<?xml version="1.0" encoding="UTF-8" standalone="no"?>
<!-- Created with Inkscape (http://www.inkscape.org/) -->

<svg
   width="210mm"
   height="297mm"
   viewBox="0 0 210 297"
   version="1.1"
   id="svg8840"
   inkscape:version="1.1.1 (3bf5ae0d25, 2021-09-20)"
   sodipodi:docname="patterns.svg"
   xmlns:inkscape="http://www.inkscape.org/namespaces/inkscape"
   xmlns:sodipodi="http://sodipodi.sourceforge.net/DTD/sodipodi-0.dtd"
   xmlns="http://www.w3.org/2000/svg"
   xmlns:svg="http://www.w3.org/2000/svg">
  <sodipodi:namedview
     id="namedview8842"
     pagecolor="#ffffff"
     bordercolor="#666666"
     borderopacity="1.0"
     inkscape:pageshadow="2"
     inkscape:pageopacity="0.0"
     inkscape:pagecheckerboard="0"
     inkscape:document-units="mm"
     showgrid="false"
     inkscape:zoom="8"
     inkscape:cx="63.25"
     inkscape:cy="40.9375"
     inkscape:window-width="1920"
     inkscape:window-height="1137"
     inkscape:window-x="-8"
     inkscape:window-y="-8"
     inkscape:window-maximized="1"
     inkscape:current-layer="layer1" />
  <defs
     id="defs8837" />
  <g
     inkscape:label="Ebene 1"
     inkscape:groupmode="layer"
     id="layer1">
    <g
       id="g25333">
      <rect
         style="fill:#ffff79;fill-opacity:1;stroke-width:0.0705286;stroke-miterlimit:2;-inkscape-stroke:none;paint-order:stroke fill markers;stop-color:#000000"
         id="rect3087"
         width="4.9999738"
         height="4.9999738"
         x="9.9999323"
         y="9.9999323" />
      <path
         id="rect3087-9"
         style="font-variation-settings:normal;opacity:1;vector-effect:none;fill:#ffc700;fill-opacity:1;stroke-width:0.0705286;stroke-linecap:butt;stroke-linejoin:miter;stroke-miterlimit:2;stroke-dasharray:none;stroke-dashoffset:0;stroke-opacity:1;-inkscape-stroke:none;paint-order:stroke fill markers;stop-color:#000000;stop-opacity:1"
         d="M 10.416617,9.9999063 A 0.41666448,0.41666447 0 0 1 9.9999063,10.416617 v 0.166656 a 0.41666448,0.41666447 0 0 1 0.4167107,0.416711 0.41666448,0.41666447 0 0 1 -0.4167107,0.416567 v 0.166656 a 0.41666448,0.41666447 0 0 1 0.4167107,0.41671 0.41666448,0.41666447 0 0 1 -0.4167107,0.416711 v 0.166656 a 0.41666448,0.41666447 0 0 1 0.4167107,0.416567 0.41666448,0.41666447 0 0 1 -0.4167107,0.416711 v 0.166656 a 0.41666448,0.41666447 0 0 1 0.4167107,0.41671 0.41666448,0.41666447 0 0 1 -0.4167107,0.416711 v 0.166656 a 0.41666448,0.41666447 0 0 1 0.4167107,0.416567 h 0.833278 a 0.41666448,0.41666447 0 0 1 0.416711,-0.416567 0.41666448,0.41666447 0 0 1 0.416711,0.416567 h 0.833278 a 0.41666448,0.41666447 0 0 1 0.416711,-0.416567 0.41666448,0.41666447 0 0 1 0.416567,0.416567 h 0.833422 a 0.41666448,0.41666447 0 0 1 0.416567,-0.416567 v -0.166656 a 0.41666448,0.41666447 0 0 1 -0.416567,-0.416711 0.41666448,0.41666447 0 0 1 0.416567,-0.41671 v -0.166656 a 0.41666448,0.41666447 0 0 1 -0.416567,-0.416711 0.41666448,0.41666447 0 0 1 0.416567,-0.416567 v -0.166656 a 0.41666448,0.41666447 0 0 1 -0.416567,-0.416711 0.41666448,0.41666447 0 0 1 0.416567,-0.41671 v -0.166656 a 0.41666448,0.41666447 0 0 1 -0.416567,-0.416567 0.41666448,0.41666447 0 0 1 0.416567,-0.416711 V 10.416617 A 0.41666448,0.41666447 0 0 1 14.583295,9.9999063 H 13.749873 A 0.41666448,0.41666447 0 0 1 13.333306,10.416617 0.41666448,0.41666447 0 0 1 12.916595,9.9999063 H 12.083317 A 0.41666448,0.41666447 0 0 1 11.666606,10.416617 0.41666448,0.41666447 0 0 1 11.249895,9.9999063 Z m 0.416711,0.0834 a 0.41666448,0.41666447 0 0 1 0.416567,0.416567 0.41666448,0.41666447 0 0 1 -0.416567,0.416711 0.41666448,0.41666447 0 0 1 -0.416711,-0.416711 0.41666448,0.41666447 0 0 1 0.416711,-0.416567 z m 1.666556,0 a 0.41666448,0.41666447 0 0 1 0.416711,0.416567 0.41666448,0.41666447 0 0 1 -0.416711,0.416711 0.41666448,0.41666447 0 0 1 -0.416567,-0.416711 0.41666448,0.41666447 0 0 1 0.416567,-0.416567 z m 1.6667,0 a 0.41666448,0.41666447 0 0 1 0.416711,0.416567 0.41666448,0.41666447 0 0 1 -0.416711,0.416711 0.41666448,0.41666447 0 0 1 -0.416711,-0.416711 0.41666448,0.41666447 0 0 1 0.416711,-0.416567 z m -2.499978,0.499967 a 0.41666448,0.41666447 0 0 1 0.416711,0.416711 0.41666448,0.41666447 0 0 1 -0.416711,0.416567 0.41666448,0.41666447 0 0 1 -0.416711,-0.416567 0.41666448,0.41666447 0 0 1 0.416711,-0.416711 z m 1.6667,0 a 0.41666448,0.41666447 0 0 1 0.416567,0.416711 0.41666448,0.41666447 0 0 1 -0.416567,0.416567 0.41666448,0.41666447 0 0 1 -0.416711,-0.416567 0.41666448,0.41666447 0 0 1 0.416711,-0.416711 z m -2.499978,0.499967 a 0.41666448,0.41666447 0 0 1 0.416567,0.41671 0.41666448,0.41666447 0 0 1 -0.416567,0.416568 0.41666448,0.41666447 0 0 1 -0.416711,-0.416568 0.41666448,0.41666447 0 0 1 0.416711,-0.41671 z m 1.666556,0 a 0.41666448,0.41666447 0 0 1 0.416711,0.41671 0.41666448,0.41666447 0 0 1 -0.416711,0.416568 0.41666448,0.41666447 0 0 1 -0.416567,-0.416568 0.41666448,0.41666447 0 0 1 0.416567,-0.41671 z m 1.6667,0 a 0.41666448,0.41666447 0 0 1 0.416711,0.41671 0.41666448,0.41666447 0 0 1 -0.416711,0.416568 0.41666448,0.41666447 0 0 1 -0.416711,-0.416568 0.41666448,0.41666447 0 0 1 0.416711,-0.41671 z m -2.499978,0.499967 a 0.41666448,0.41666447 0 0 1 0.416711,0.41671 0.41666448,0.41666447 0 0 1 -0.416711,0.416711 0.41666448,0.41666447 0 0 1 -0.416711,-0.416711 0.41666448,0.41666447 0 0 1 0.416711,-0.41671 z m 1.6667,0 a 0.41666448,0.41666447 0 0 1 0.416567,0.41671 0.41666448,0.41666447 0 0 1 -0.416567,0.416711 0.41666448,0.41666447 0 0 1 -0.416711,-0.416711 0.41666448,0.41666447 0 0 1 0.416711,-0.41671 z m -2.499978,0.50011 a 0.41666448,0.41666447 0 0 1 0.416567,0.416567 0.41666448,0.41666447 0 0 1 -0.416567,0.416711 0.41666448,0.41666447 0 0 1 -0.416711,-0.416711 0.41666448,0.41666447 0 0 1 0.416711,-0.416567 z m 1.666556,0 a 0.41666448,0.41666447 0 0 1 0.416711,0.416567 0.41666448,0.41666447 0 0 1 -0.416711,0.416711 0.41666448,0.41666447 0 0 1 -0.416567,-0.416711 0.41666448,0.41666447 0 0 1 0.416567,-0.416567 z m 1.6667,0 a 0.41666448,0.41666447 0 0 1 0.416711,0.416567 0.41666448,0.41666447 0 0 1 -0.416711,0.416711 0.41666448,0.41666447 0 0 1 -0.416711,-0.416711 0.41666448,0.41666447 0 0 1 0.416711,-0.416567 z m -2.499978,0.499967 a 0.41666448,0.41666447 0 0 1 0.416711,0.416567 0.41666448,0.41666447 0 0 1 -0.416711,0.416711 0.41666448,0.41666447 0 0 1 -0.416711,-0.416711 0.41666448,0.41666447 0 0 1 0.416711,-0.416567 z m 1.6667,0 a 0.41666448,0.41666447 0 0 1 0.416567,0.416567 0.41666448,0.41666447 0 0 1 -0.416567,0.416711 0.41666448,0.41666447 0 0 1 -0.416711,-0.416711 0.41666448,0.41666447 0 0 1 0.416711,-0.416567 z m -2.499978,0.499967 a 0.41666448,0.41666447 0 0 1 0.416567,0.416711 0.41666448,0.41666447 0 0 1 -0.416567,0.416567 0.41666448,0.41666447 0 0 1 -0.416711,-0.416567 0.41666448,0.41666447 0 0 1 0.416711,-0.416711 z m 1.666556,0 a 0.41666448,0.41666447 0 0 1 0.416711,0.416711 0.41666448,0.41666447 0 0 1 -0.416711,0.416567 0.41666448,0.41666447 0 0 1 -0.416567,-0.416567 0.41666448,0.41666447 0 0 1 0.416567,-0.416711 z m 1.6667,0 a 0.41666448,0.41666447 0 0 1 0.416711,0.416711 0.41666448,0.41666447 0 0 1 -0.416711,0.416567 0.41666448,0.41666447 0 0 1 -0.416711,-0.416567 0.41666448,0.41666447 0 0 1 0.416711,-0.416711 z m -2.499978,0.499967 a 0.41666448,0.41666447 0 0 1 0.416711,0.41671 0.41666448,0.41666447 0 0 1 -0.416711,0.416711 0.41666448,0.41666447 0 0 1 -0.416711,-0.416711 0.41666448,0.41666447 0 0 1 0.416711,-0.41671 z m 1.6667,0 a 0.41666448,0.41666447 0 0 1 0.416567,0.41671 0.41666448,0.41666447 0 0 1 -0.416567,0.416711 0.41666448,0.41666447 0 0 1 -0.416711,-0.416711 0.41666448,0.41666447 0 0 1 0.416711,-0.41671 z m -2.499978,0.499966 a 0.41666448,0.41666447 0 0 1 0.416567,0.416711 0.41666448,0.41666447 0 0 1 -0.416567,0.416711 0.41666448,0.41666447 0 0 1 -0.416711,-0.416711 0.41666448,0.41666447 0 0 1 0.416711,-0.416711 z m 1.666556,0 a 0.41666448,0.41666447 0 0 1 0.416711,0.416711 0.41666448,0.41666447 0 0 1 -0.416711,0.416711 0.41666448,0.41666447 0 0 1 -0.416567,-0.416711 0.41666448,0.41666447 0 0 1 0.416567,-0.416711 z m 1.6667,0 a 0.41666448,0.41666447 0 0 1 0.416711,0.416711 0.41666448,0.41666447 0 0 1 -0.416711,0.416711 0.41666448,0.41666447 0 0 1 -0.416711,-0.416711 0.41666448,0.41666447 0 0 1 0.416711,-0.416711 z" />
    </g>
    <g
       id="g25346">
      <rect
         style="fill:#2c5aa0;fill-opacity:1;stroke-width:0.0705286;stroke-miterlimit:2;-inkscape-stroke:none;paint-order:stroke fill markers;stop-color:#000000"
         id="rect3087-1"
         width="4.9999738"
         height="4.9999738"
         x="9.5690861"
         y="18.137749" />
      <g
         id="g16209"
         transform="matrix(0.86813271,0,0,1,1.2618477,0)"
         style="fill:#5f8dd3">
        <g
           id="g16181"
           style="fill:#5f8dd3">
          <path
             style="color:#000000;fill:#5f8dd3;stroke-width:1.00668;-inkscape-stroke:none"
             d="m 15.006107,18.137729 c 0,0.03848 -0.01435,0.07205 -0.05899,0.121905 -0.04463,0.04986 -0.116448,0.104813 -0.196618,0.165158 -0.08018,0.06034 -0.168192,0.125917 -0.243807,0.210382 -0.07561,0.08446 -0.141565,0.199442 -0.141565,0.336217 0,0.136776 0.06595,0.251752 0.141565,0.336216 0.07561,0.08446 0.163637,0.14807 0.243807,0.208416 0.08018,0.06034 0.151977,0.117259 0.196618,0.167125 0.04463,0.04986 0.05899,0.08342 0.05899,0.121903 0,0.03848 -0.01435,0.07008 -0.05899,0.119937 -0.04463,0.04986 -0.116448,0.106782 -0.196618,0.167127 -0.08018,0.06034 -0.168192,0.123948 -0.243807,0.208415 -0.07561,0.08446 -0.141565,0.199442 -0.141565,0.336217 0,0.136776 0.06595,0.251751 0.141565,0.336216 0.07561,0.08446 0.163637,0.150036 0.243807,0.210382 0.08018,0.06034 0.151977,0.117259 0.196618,0.167126 0.04463,0.04986 0.05899,0.08146 0.05899,0.119936 0,0.03849 -0.01435,0.07205 -0.05899,0.121904 -0.04463,0.04986 -0.116448,0.10678 -0.196618,0.167125 -0.08018,0.06034 -0.168192,0.123949 -0.243807,0.208416 -0.07561,0.08446 -0.141565,0.199442 -0.141565,0.336217 0,0.136776 0.06595,0.251752 0.141565,0.336216 0.07561,0.08446 0.163637,0.148071 0.243807,0.208416 0.08018,0.06034 0.151977,0.11726 0.196618,0.167125 0.04463,0.04986 0.05899,0.08342 0.05899,0.121903 h 0.322454 c 0,-0.136775 -0.06594,-0.251752 -0.141566,-0.336216 -0.07561,-0.08446 -0.163635,-0.150037 -0.243806,-0.210382 -0.08017,-0.06034 -0.151979,-0.115293 -0.196618,-0.16516 -0.04463,-0.04986 -0.05898,-0.08342 -0.05898,-0.121902 0,-0.03848 0.01435,-0.07205 0.05898,-0.121905 0.04463,-0.04986 0.116448,-0.104813 0.196618,-0.165159 0.08018,-0.06034 0.168192,-0.125916 0.243806,-0.210381 0.07561,-0.08446 0.141566,-0.199439 0.141566,-0.336217 0,-0.136775 -0.06594,-0.251752 -0.141566,-0.336215 -0.07561,-0.08446 -0.163635,-0.148071 -0.243806,-0.208417 -0.08017,-0.06034 -0.151979,-0.11726 -0.196618,-0.167125 -0.04463,-0.04986 -0.05898,-0.08342 -0.05898,-0.121903 0,-0.03848 0.01435,-0.07008 0.05898,-0.119938 0.04463,-0.04986 0.116448,-0.10678 0.196618,-0.167126 0.08018,-0.06034 0.168192,-0.123948 0.243806,-0.208414 0.07561,-0.08446 0.141566,-0.199441 0.141566,-0.336218 0,-0.136775 -0.06594,-0.251751 -0.141566,-0.336216 -0.07561,-0.08447 -0.163635,-0.150035 -0.243806,-0.210381 -0.08017,-0.06034 -0.151979,-0.115295 -0.196618,-0.16516 -0.04463,-0.04986 -0.05898,-0.08342 -0.05898,-0.121903 0,-0.03849 0.01435,-0.07205 0.05898,-0.121904 0.04463,-0.04986 0.116448,-0.10678 0.196618,-0.167125 0.08018,-0.06034 0.168192,-0.12395 0.243806,-0.208415 0.07561,-0.08446 0.141566,-0.199442 0.141566,-0.336218 z"
             id="path14688"
             sodipodi:nodetypes="ccccsscsscccsscsscccsscsccscsssccsscsssccsccssccccc" />
          <g
             id="g16173"
             style="fill:#5f8dd3">
            <path
               style="color:#000000;fill:#5f8dd3;stroke-width:1.00668;-inkscape-stroke:none"
               d="m 14.042673,18.137729 c 0,0.03848 -0.01435,0.07205 -0.05899,0.121905 -0.04463,0.04986 -0.116448,0.104813 -0.196618,0.165158 -0.08018,0.06034 -0.168192,0.125917 -0.243807,0.210382 -0.07561,0.08446 -0.141565,0.199442 -0.141565,0.336217 0,0.136776 0.06595,0.251752 0.141565,0.336216 0.07561,0.08446 0.163637,0.14807 0.243807,0.208416 0.08018,0.06034 0.151977,0.117259 0.196618,0.167125 0.04463,0.04986 0.05899,0.08342 0.05899,0.121903 0,0.03848 -0.01435,0.07008 -0.05899,0.119937 -0.04463,0.04986 -0.116448,0.106782 -0.196618,0.167127 -0.08018,0.06034 -0.168192,0.123948 -0.243807,0.208415 -0.07561,0.08446 -0.141565,0.199442 -0.141565,0.336217 0,0.136776 0.06595,0.251751 0.141565,0.336216 0.07561,0.08446 0.163637,0.150036 0.243807,0.210382 0.08018,0.06034 0.151977,0.117259 0.196618,0.167126 0.04463,0.04986 0.05899,0.08146 0.05899,0.119936 0,0.03849 -0.01435,0.07205 -0.05899,0.121904 -0.04463,0.04986 -0.116448,0.10678 -0.196618,0.167125 -0.08018,0.06034 -0.168192,0.123949 -0.243807,0.208416 -0.07561,0.08446 -0.141565,0.199442 -0.141565,0.336217 0,0.136776 0.06595,0.251752 0.141565,0.336216 0.07561,0.08446 0.163637,0.148071 0.243807,0.208416 0.08018,0.06034 0.151977,0.11726 0.196618,0.167125 0.04463,0.04986 0.05899,0.08342 0.05899,0.121903 h 0.322454 c 0,-0.136775 -0.06594,-0.251752 -0.141566,-0.336216 -0.07561,-0.08446 -0.163635,-0.150037 -0.243806,-0.210382 -0.08017,-0.06034 -0.151979,-0.115293 -0.196618,-0.16516 -0.04463,-0.04986 -0.05898,-0.08342 -0.05898,-0.121902 0,-0.03848 0.01435,-0.07205 0.05898,-0.121905 0.04463,-0.04986 0.116448,-0.104813 0.196618,-0.165159 0.08018,-0.06034 0.168192,-0.125916 0.243806,-0.210381 0.07561,-0.08446 0.141566,-0.199439 0.141566,-0.336217 0,-0.136775 -0.06594,-0.251752 -0.141566,-0.336215 -0.07561,-0.08446 -0.163635,-0.148071 -0.243806,-0.208417 -0.08017,-0.06034 -0.151979,-0.11726 -0.196618,-0.167125 -0.04463,-0.04986 -0.05898,-0.08342 -0.05898,-0.121903 0,-0.03848 0.01435,-0.07008 0.05898,-0.119938 0.04463,-0.04986 0.116448,-0.10678 0.196618,-0.167126 0.08018,-0.06034 0.168192,-0.123948 0.243806,-0.208414 0.07561,-0.08446 0.141566,-0.199441 0.141566,-0.336218 0,-0.136775 -0.06594,-0.251751 -0.141566,-0.336216 -0.07561,-0.08447 -0.163635,-0.150035 -0.243806,-0.210381 -0.08017,-0.06034 -0.151979,-0.115295 -0.196618,-0.16516 -0.04463,-0.04986 -0.05898,-0.08342 -0.05898,-0.121903 0,-0.03849 0.01435,-0.07205 0.05898,-0.121904 0.04463,-0.04986 0.116448,-0.10678 0.196618,-0.167125 0.08018,-0.06034 0.168192,-0.12395 0.243806,-0.208415 0.07561,-0.08446 0.141566,-0.199442 0.141566,-0.336218 z"
               id="path14688-5"
               sodipodi:nodetypes="ccccsscsscccsscsscccsscsccscsssccsscsssccsccssccccc" />
            <g
               id="g16167"
               style="fill:#5f8dd3">
              <path
                 style="color:#000000;fill:#5f8dd3;stroke-width:1.00668;-inkscape-stroke:none"
                 d="m 13.079239,18.137729 c 0,0.03848 -0.01435,0.07205 -0.05899,0.121905 -0.04463,0.04986 -0.116448,0.104813 -0.196618,0.165158 -0.08018,0.06034 -0.168192,0.125917 -0.243807,0.210382 -0.07561,0.08446 -0.141565,0.199442 -0.141565,0.336217 0,0.136776 0.06595,0.251752 0.141565,0.336216 0.07561,0.08446 0.163637,0.14807 0.243807,0.208416 0.08018,0.06034 0.151977,0.117259 0.196618,0.167125 0.04463,0.04986 0.05899,0.08342 0.05899,0.121903 0,0.03848 -0.01435,0.07008 -0.05899,0.119937 -0.04463,0.04986 -0.116448,0.106782 -0.196618,0.167127 -0.08018,0.06034 -0.168192,0.123948 -0.243807,0.208415 -0.07561,0.08446 -0.141565,0.199442 -0.141565,0.336217 0,0.136776 0.06595,0.251751 0.141565,0.336216 0.07561,0.08446 0.163637,0.150036 0.243807,0.210382 0.08018,0.06034 0.151977,0.117259 0.196618,0.167126 0.04463,0.04986 0.05899,0.08146 0.05899,0.119936 0,0.03849 -0.01435,0.07205 -0.05899,0.121904 -0.04463,0.04986 -0.116448,0.10678 -0.196618,0.167125 -0.08018,0.06034 -0.168192,0.123949 -0.243807,0.208416 -0.07561,0.08446 -0.141565,0.199442 -0.141565,0.336217 0,0.136776 0.06595,0.251752 0.141565,0.336216 0.07561,0.08446 0.163637,0.148071 0.243807,0.208416 0.08018,0.06034 0.151977,0.11726 0.196618,0.167125 0.04463,0.04986 0.05899,0.08342 0.05899,0.121903 h 0.322454 c 0,-0.136775 -0.06594,-0.251752 -0.141566,-0.336216 -0.07561,-0.08446 -0.163635,-0.150037 -0.243806,-0.210382 -0.08017,-0.06034 -0.151979,-0.115293 -0.196618,-0.16516 -0.04463,-0.04986 -0.05898,-0.08342 -0.05898,-0.121902 0,-0.03848 0.01435,-0.07205 0.05898,-0.121905 0.04463,-0.04986 0.116448,-0.104813 0.196618,-0.165159 0.08018,-0.06034 0.168192,-0.125916 0.243806,-0.210381 0.07561,-0.08446 0.141566,-0.199439 0.141566,-0.336217 0,-0.136775 -0.06594,-0.251752 -0.141566,-0.336215 -0.07561,-0.08446 -0.163635,-0.148071 -0.243806,-0.208417 -0.08017,-0.06034 -0.151979,-0.11726 -0.196618,-0.167125 -0.04463,-0.04986 -0.05898,-0.08342 -0.05898,-0.121903 0,-0.03848 0.01435,-0.07008 0.05898,-0.119938 0.04463,-0.04986 0.116448,-0.10678 0.196618,-0.167126 0.08018,-0.06034 0.168192,-0.123948 0.243806,-0.208414 0.07561,-0.08446 0.141566,-0.199441 0.141566,-0.336218 0,-0.136775 -0.06594,-0.251751 -0.141566,-0.336216 -0.07561,-0.08447 -0.163635,-0.150035 -0.243806,-0.210381 -0.08017,-0.06034 -0.151979,-0.115295 -0.196618,-0.16516 -0.04463,-0.04986 -0.05898,-0.08342 -0.05898,-0.121903 0,-0.03849 0.01435,-0.07205 0.05898,-0.121904 0.04463,-0.04986 0.116448,-0.10678 0.196618,-0.167125 0.08018,-0.06034 0.168192,-0.12395 0.243806,-0.208415 0.07561,-0.08446 0.141566,-0.199442 0.141566,-0.336218 z"
                 id="path14688-6"
                 sodipodi:nodetypes="ccccsscsscccsscsscccsscsccscsssccsscsssccsccssccccc" />
              <path
                 style="color:#000000;fill:#5f8dd3;stroke-width:1.00668;-inkscape-stroke:none"
                 d="m 12.115805,18.137729 c 0,0.03848 -0.01435,0.07205 -0.05899,0.121905 -0.04463,0.04986 -0.116448,0.104813 -0.196618,0.165158 -0.08018,0.06034 -0.168192,0.125917 -0.243807,0.210382 -0.07561,0.08446 -0.141565,0.199442 -0.141565,0.336217 0,0.136776 0.06595,0.251752 0.141565,0.336216 0.07561,0.08446 0.163637,0.14807 0.243807,0.208416 0.08018,0.06034 0.151977,0.117259 0.196618,0.167125 0.04463,0.04986 0.05899,0.08342 0.05899,0.121903 0,0.03848 -0.01435,0.07008 -0.05899,0.119937 -0.04463,0.04986 -0.116448,0.106782 -0.196618,0.167127 -0.08018,0.06034 -0.168192,0.123948 -0.243807,0.208415 -0.07561,0.08446 -0.141565,0.199442 -0.141565,0.336217 0,0.136776 0.06595,0.251751 0.141565,0.336216 0.07561,0.08446 0.163637,0.150036 0.243807,0.210382 0.08018,0.06034 0.151977,0.117259 0.196618,0.167126 0.04463,0.04986 0.05899,0.08146 0.05899,0.119936 0,0.03849 -0.01435,0.07205 -0.05899,0.121904 -0.04463,0.04986 -0.116448,0.10678 -0.196618,0.167125 -0.08018,0.06034 -0.168192,0.123949 -0.243807,0.208416 -0.07561,0.08446 -0.141565,0.199442 -0.141565,0.336217 0,0.136776 0.06595,0.251752 0.141565,0.336216 0.07561,0.08446 0.163637,0.148071 0.243807,0.208416 0.08018,0.06034 0.151977,0.11726 0.196618,0.167125 0.04463,0.04986 0.05899,0.08342 0.05899,0.121903 h 0.322454 c 0,-0.136775 -0.06594,-0.251752 -0.141566,-0.336216 -0.07561,-0.08446 -0.163635,-0.150037 -0.243806,-0.210382 -0.08017,-0.06034 -0.151979,-0.115293 -0.196618,-0.16516 -0.04463,-0.04986 -0.05898,-0.08342 -0.05898,-0.121902 0,-0.03848 0.01435,-0.07205 0.05898,-0.121905 0.04463,-0.04986 0.116448,-0.104813 0.196618,-0.165159 0.08018,-0.06034 0.168192,-0.125916 0.243806,-0.210381 0.07561,-0.08446 0.141566,-0.199439 0.141566,-0.336217 0,-0.136775 -0.06594,-0.251752 -0.141566,-0.336215 -0.07561,-0.08446 -0.163635,-0.148071 -0.243806,-0.208417 -0.08017,-0.06034 -0.151979,-0.11726 -0.196618,-0.167125 -0.04463,-0.04986 -0.05898,-0.08342 -0.05898,-0.121903 0,-0.03848 0.01435,-0.07008 0.05898,-0.119938 0.04463,-0.04986 0.116448,-0.10678 0.196618,-0.167126 0.08018,-0.06034 0.168192,-0.123948 0.243806,-0.208414 0.07561,-0.08446 0.141566,-0.199441 0.141566,-0.336218 0,-0.136775 -0.06594,-0.251751 -0.141566,-0.336216 -0.07561,-0.08447 -0.163635,-0.150035 -0.243806,-0.210381 -0.08017,-0.06034 -0.151979,-0.115295 -0.196618,-0.16516 -0.04463,-0.04986 -0.05898,-0.08342 -0.05898,-0.121903 0,-0.03849 0.01435,-0.07205 0.05898,-0.121904 0.04463,-0.04986 0.116448,-0.10678 0.196618,-0.167125 0.08018,-0.06034 0.168192,-0.12395 0.243806,-0.208415 0.07561,-0.08446 0.141566,-0.199442 0.141566,-0.336218 z"
                 id="path14688-5-4"
                 sodipodi:nodetypes="ccccsscsscccsscsscccsscsccscsssccsscsssccsccssccccc" />
            </g>
          </g>
        </g>
        <path
           style="color:#000000;fill:#5f8dd3;stroke-width:1.00668;-inkscape-stroke:none"
           d="m 11.173487,18.137743 c 0,0.03848 -0.01435,0.07205 -0.05899,0.121905 -0.04463,0.04986 -0.116448,0.104813 -0.196618,0.165158 -0.08018,0.06034 -0.168192,0.125917 -0.243807,0.210382 -0.07561,0.08446 -0.141565,0.199442 -0.141565,0.336217 0,0.136776 0.06595,0.251752 0.141565,0.336216 0.07561,0.08446 0.163637,0.14807 0.243807,0.208416 0.08018,0.06034 0.151977,0.117259 0.196618,0.167125 0.04463,0.04986 0.05899,0.08342 0.05899,0.121903 0,0.03848 -0.01435,0.07008 -0.05899,0.119937 -0.04463,0.04986 -0.116448,0.106782 -0.196618,0.167127 -0.08018,0.06034 -0.168192,0.123948 -0.243807,0.208415 -0.07561,0.08446 -0.141565,0.199442 -0.141565,0.336217 0,0.136776 0.06595,0.251751 0.141565,0.336216 0.07561,0.08446 0.163637,0.150036 0.243807,0.210382 0.08018,0.06034 0.151977,0.117259 0.196618,0.167126 0.04463,0.04986 0.05899,0.08146 0.05899,0.119936 0,0.03849 -0.01435,0.07205 -0.05899,0.121904 -0.04463,0.04986 -0.116448,0.10678 -0.196618,0.167125 -0.08018,0.06034 -0.168192,0.123949 -0.243807,0.208416 -0.07561,0.08446 -0.141565,0.199442 -0.141565,0.336217 0,0.136776 0.06595,0.251752 0.141565,0.336216 0.07561,0.08446 0.163637,0.148071 0.243807,0.208416 0.08018,0.06034 0.151977,0.11726 0.196618,0.167125 0.04463,0.04986 0.05899,0.08342 0.05899,0.121903 h 0.322454 c 0,-0.136775 -0.06594,-0.251752 -0.141566,-0.336216 -0.07561,-0.08446 -0.163635,-0.150037 -0.243806,-0.210382 -0.08017,-0.06034 -0.151979,-0.115293 -0.196618,-0.16516 -0.04463,-0.04986 -0.05898,-0.08342 -0.05898,-0.121902 0,-0.03848 0.01435,-0.07205 0.05898,-0.121905 0.04463,-0.04986 0.116448,-0.104813 0.196618,-0.165159 0.08018,-0.06034 0.168192,-0.125916 0.243806,-0.210381 0.07561,-0.08446 0.141566,-0.199439 0.141566,-0.336217 0,-0.136775 -0.06594,-0.251752 -0.141566,-0.336215 -0.07561,-0.08446 -0.163635,-0.148071 -0.243806,-0.208417 -0.08017,-0.06034 -0.151979,-0.11726 -0.196618,-0.167125 -0.04463,-0.04986 -0.05898,-0.08342 -0.05898,-0.121903 0,-0.03848 0.01435,-0.07008 0.05898,-0.119938 0.04463,-0.04986 0.116448,-0.10678 0.196618,-0.167126 0.08018,-0.06034 0.168192,-0.123948 0.243806,-0.208414 0.07561,-0.08446 0.141566,-0.199441 0.141566,-0.336218 0,-0.136775 -0.06594,-0.251751 -0.141566,-0.336216 -0.07561,-0.08447 -0.163635,-0.150035 -0.243806,-0.210381 -0.08017,-0.06034 -0.151979,-0.115295 -0.196618,-0.16516 -0.04463,-0.04986 -0.05898,-0.08342 -0.05898,-0.121903 0,-0.03849 0.01435,-0.07205 0.05898,-0.121904 0.04463,-0.04986 0.116448,-0.10678 0.196618,-0.167125 0.08018,-0.06034 0.168192,-0.12395 0.243806,-0.208415 0.07561,-0.08446 0.141566,-0.199442 0.141566,-0.336218 z"
           id="path14688-2"
           sodipodi:nodetypes="ccccsscsscccsscsscccsscsccscsssccsscsssccsccssccccc" />
        <path
           style="color:#000000;fill:#5f8dd3;stroke-width:1.00668;-inkscape-stroke:none"
           d="m 10.210053,18.137743 c 0,0.03848 -0.01435,0.07205 -0.05899,0.121905 -0.04463,0.04986 -0.116448,0.104813 -0.1966181,0.165158 -0.08018,0.06034 -0.168192,0.125917 -0.243807,0.210382 -0.07561,0.08446 -0.141565,0.199442 -0.141565,0.336217 0,0.136776 0.06595,0.251752 0.141565,0.336216 0.07561,0.08446 0.163637,0.14807 0.243807,0.208416 0.08018,0.06034 0.1519771,0.117259 0.1966181,0.167125 0.04463,0.04986 0.05899,0.08342 0.05899,0.121903 0,0.03848 -0.01435,0.07008 -0.05899,0.119937 -0.04463,0.04986 -0.116448,0.106782 -0.1966181,0.167127 -0.08018,0.06034 -0.168192,0.123948 -0.243807,0.208415 -0.07561,0.08446 -0.141565,0.199442 -0.141565,0.336217 0,0.136776 0.06595,0.251751 0.141565,0.336216 0.07561,0.08446 0.163637,0.150036 0.243807,0.210382 0.08018,0.06034 0.1519771,0.117259 0.1966181,0.167126 0.04463,0.04986 0.05899,0.08146 0.05899,0.119936 0,0.03849 -0.01435,0.07205 -0.05899,0.121904 -0.04463,0.04986 -0.116448,0.10678 -0.1966181,0.167125 -0.08018,0.06034 -0.168192,0.123949 -0.243807,0.208416 -0.07561,0.08446 -0.141565,0.199442 -0.141565,0.336217 0,0.136776 0.06595,0.251752 0.141565,0.336216 0.07561,0.08446 0.163637,0.148071 0.243807,0.208416 0.08018,0.06034 0.1519771,0.11726 0.1966181,0.167125 0.04463,0.04986 0.05899,0.08342 0.05899,0.121903 h 0.322454 c 0,-0.136775 -0.06594,-0.251752 -0.141566,-0.336216 -0.07561,-0.08446 -0.163635,-0.150037 -0.243806,-0.210382 -0.08017,-0.06034 -0.1519791,-0.115293 -0.1966181,-0.16516 -0.04463,-0.04986 -0.05898,-0.08342 -0.05898,-0.121902 0,-0.03848 0.01435,-0.07205 0.05898,-0.121905 0.04463,-0.04986 0.1164481,-0.104813 0.1966181,-0.165159 0.08018,-0.06034 0.168192,-0.125916 0.243806,-0.210381 0.07561,-0.08446 0.141566,-0.199439 0.141566,-0.336217 0,-0.136775 -0.06594,-0.251752 -0.141566,-0.336215 -0.07561,-0.08446 -0.163635,-0.148071 -0.243806,-0.208417 -0.08017,-0.06034 -0.1519791,-0.11726 -0.1966181,-0.167125 -0.04463,-0.04986 -0.05898,-0.08342 -0.05898,-0.121903 0,-0.03848 0.01435,-0.07008 0.05898,-0.119938 0.04463,-0.04986 0.1164481,-0.10678 0.1966181,-0.167126 0.08018,-0.06034 0.168192,-0.123948 0.243806,-0.208414 0.07561,-0.08446 0.141566,-0.199441 0.141566,-0.336218 0,-0.136775 -0.06594,-0.251751 -0.141566,-0.336216 -0.07561,-0.08447 -0.163635,-0.150035 -0.243806,-0.210381 -0.08017,-0.06034 -0.1519791,-0.115295 -0.1966181,-0.16516 -0.04463,-0.04986 -0.05898,-0.08342 -0.05898,-0.121903 0,-0.03849 0.01435,-0.07205 0.05898,-0.121904 0.04463,-0.04986 0.1164481,-0.10678 0.1966181,-0.167125 0.08018,-0.06034 0.168192,-0.12395 0.243806,-0.208415 0.07561,-0.08446 0.141566,-0.199442 0.141566,-0.336218 z"
           id="path14688-5-1"
           sodipodi:nodetypes="ccccsscsscccsscsscccsscsccscsssccsscsssccsccssccccc" />
      </g>
    </g>
    <g
       id="g25329">
      <rect
         style="fill:#2b4e38;fill-opacity:1;stroke-width:0.0705286;stroke-miterlimit:2;-inkscape-stroke:none;paint-order:stroke fill markers;stop-color:#000000"
         id="rect3087-90"
         width="4.9999738"
         height="4.9999738"
         x="15.435505"
         y="10.255711" />
      <path
         id="rect3087-90-6"
         style="fill:#002b11;fill-opacity:1;stroke-width:0.266565;stroke-miterlimit:2;-inkscape-stroke:none;paint-order:stroke fill markers;stop-color:#000000"
         d="m 58.339844,38.761719 v 18.898437 h 6.613281 l 0.01953,-1.521484 2.109375,1.521484 h 6.023438 l 1.904297,-1.066406 -0.109375,1.066406 h 2.335937 v -2.630859 l -1.1875,-0.515625 1.1875,-1.15625 v -7.917969 l -1.974609,-0.201172 1.96875,-2.476562 0.0059,0.0098 v -4.009765 h -2.335937 l -0.253907,2.492187 -2.476562,-1.96875 0.935547,-0.523437 h -6.023438 l 0.791016,0.570312 -2.943359,1.16211 0.02344,-1.732422 z m 12.429687,0.972656 0.570313,3.53125 -2.902344,-1.259766 z m -11.339843,0.445313 3.132812,0.884765 -2.773438,2.257813 z m 13.091796,1.548828 2.902344,1.259765 -2.330078,2.271485 z m -8.330078,0.488281 1.464844,3.263672 -3.128906,-0.466797 z m -5.830078,0.554687 1.583984,2.830078 -1.583984,-0.162109 z m 10.419922,0.488282 2.269531,2.332031 -3.53125,0.570312 z m -7.1875,3.164062 1.587891,2.839844 L 59.625,48.900391 Z m 14.375,0.275391 -0.464844,3.128906 -2.796875,-1.664063 z m -9.773438,0.314453 2.902344,1.261719 -2.332031,2.269531 z m 4.75586,1.097656 1.464844,3.261719 -3.13086,-0.464844 z m -6.41211,1.367188 -0.363281,3.558593 -2.478515,-1.96875 z m 9.150391,0.857422 2.900391,2.09375 -2.94336,1.162109 z m -8.181641,0.976562 3.132813,0.884766 -2.773437,2.259765 z m -6.003906,0.931641 0.572266,3.53125 -1.714844,-0.746094 V 53.357422 Z M 69.351562,53 l 3.132813,0.884766 -2.773437,2.259765 z m -6.955078,0.126953 2.271485,2.332031 -3.53125,0.570313 z"
         transform="scale(0.26458333)" />
    </g>
  </g>
</svg>
