<?xml version="1.0" encoding="UTF-8" standalone="no"?>
<svg
   xmlns:dc="http://purl.org/dc/elements/1.1/"
   xmlns:cc="http://creativecommons.org/ns#"
   xmlns:rdf="http://www.w3.org/1999/02/22-rdf-syntax-ns#"
   xmlns:svg="http://www.w3.org/2000/svg"
   xmlns="http://www.w3.org/2000/svg"
   viewBox="0 0 287.24399 120.94533"
   height="120.94533"
   width="287.24399"
   xml:space="preserve"
   id="svg1085"
   version="1.1"><metadata
     id="metadata1091"><rdf:RDF><cc:Work
         rdf:about=""><dc:format>image/svg+xml</dc:format><dc:type
           rdf:resource="http://purl.org/dc/dcmitype/StillImage" /><dc:title></dc:title></cc:Work></rdf:RDF></metadata><defs
     id="defs1089" /><g
     transform="matrix(1.3333333,0,0,-1.3333333,0,120.94533)"
     id="g1093"><g
       transform="translate(22.965,53.019)"
       id="g1095"><g
         id="g1097"><g
           id="g1099"><g
             id="g1101"><g
               id="g1103"><path
                 id="path1105"
                 style="fill:none;stroke:#000000;stroke-width:0.59776002;stroke-linecap:butt;stroke-linejoin:miter;stroke-miterlimit:10;stroke-dasharray:none;stroke-opacity:1"
                 d="M 16.99702,0 C 16.99702,9.3873 9.3873,16.99702 0,16.99702 -9.3873,16.99702 -16.99702,9.3873 -16.99702,0 c 0,-9.3873 7.60972,-16.99702 16.99702,-16.99702 9.3873,0 16.99702,7.60972 16.99702,16.99702 z" /></g><g
               transform="translate(-11.303,-3.787)"
               id="g1107"><g
                 id="g1109"><g
                   transform="translate(-11.662,-49.232)"
                   id="g1111"><text
                     id="text1115"
                     style="font-variant:normal;font-weight:normal;font-size:10.90909958px;font-family:LMSans10;-inkscape-font-specification:LMSans10-Regular;writing-mode:lr-tb;fill:#000000;fill-opacity:1;fill-rule:nonzero;stroke:none"
                     transform="matrix(1,0,0,-1,11.662,49.232)"><tspan
                       id="tspan1113"
                       y="0"
                       x="0 6.0600052 9.9992809 14.935649 18.663288">Start</tspan></text>
<g
                     transform="translate(11.662,49.232)"
                     id="g1117" /></g></g><g
                 transform="translate(11.303,3.788)"
                 id="g1119" /></g></g><g
             id="g1121"><g
               id="g1123"><path
                 id="path1125"
                 style="fill:none;stroke:#000000;stroke-width:0.59776002;stroke-linecap:butt;stroke-linejoin:miter;stroke-miterlimit:10;stroke-dasharray:none;stroke-opacity:1"
                 d="m 99.67305,0 c 0,8.08145 -6.55113,14.6326 -14.6326,14.6326 -8.08147,0 -14.6326,-6.55115 -14.6326,-14.6326 0,-8.08145 6.55113,-14.6326 14.6326,-14.6326 8.08147,0 14.6326,6.55115 14.6326,14.6326 z" /></g><g
               transform="translate(85.039)"
               id="g1127"><g
                 id="g1129" /><g
                 transform="translate(-85.039)"
                 id="g1131" /></g></g><g
             id="g1133"><g
               id="g1135"><path
                 id="path1137"
                 style="fill:none;stroke:#000000;stroke-width:0.59776002;stroke-linecap:butt;stroke-linejoin:miter;stroke-miterlimit:10;stroke-dasharray:none;stroke-opacity:1"
                 d="m 184.9701,0 c 0,8.22316 -6.66602,14.88918 -14.88918,14.88918 -8.22316,0 -14.88919,-6.66602 -14.88919,-14.88918 0,-8.22316 6.66603,-14.88918 14.88919,-14.88918 8.22316,0 14.88918,6.66602 14.88918,14.88918 z" /></g><g
               transform="translate(161.185,-3.788)"
               id="g1139"><g
                 id="g1141"><g
                   transform="translate(-184.15,-49.232)"
                   id="g1143"><text
                     id="text1147"
                     style="font-variant:normal;font-weight:normal;font-size:10.90909958px;font-family:LMSans10;-inkscape-font-specification:LMSans10-Regular;writing-mode:lr-tb;fill:#000000;fill-opacity:1;fill-rule:nonzero;stroke:none"
                     transform="matrix(1,0,0,-1,184.15,49.232)"><tspan
                       id="tspan1145"
                       y="0"
                       x="0 6.5149145 12.151647">End</tspan></text>
<g
                     transform="translate(184.15,49.232)"
                     id="g1149" /></g></g><g
                 transform="translate(-161.185,3.788)"
                 id="g1151" /></g></g><g
             id="g1153"><path
               id="path1155"
               style="fill:none;stroke:#000000;stroke-width:0.3985;stroke-linecap:butt;stroke-linejoin:miter;stroke-miterlimit:10;stroke-dasharray:none;stroke-opacity:1"
               d="M 14.97847,8.64769 C 34.57463,19.42752 52.97586,19.04631 71.25734,7.98134" /><g
               transform="matrix(0.85547,-0.51778,0.51778,0.85547,71.25734,7.98134)"
               id="g1157"><g
                 id="g1159"><path
                   id="path1161"
                   style="fill:#000000;fill-opacity:1;fill-rule:nonzero;stroke:#000000;stroke-width:0.3985;stroke-linecap:butt;stroke-linejoin:round;stroke-miterlimit:10;stroke-dasharray:none;stroke-opacity:1"
                   d="m 0.797,0 c -0.99625,0.19925 -1.99251,0.59775 -3.18802,1.29512 1.19551,-0.89662 1.19551,-1.69362 0,-2.59024 C -1.19551,-0.59775 -0.19925,-0.19925 0.797,0 Z" /></g></g><g
               id="g1163"><g
                 transform="translate(18.111,20.542)"
                 id="g1165"><g
                   id="g1167"><g
                     transform="translate(-41.076,-73.562)"
                     id="g1169"><text
                       id="text1173"
                       style="font-variant:normal;font-weight:normal;font-size:10.90909958px;font-family:LMSans10;-inkscape-font-specification:LMSans10-Regular;writing-mode:lr-tb;fill:#000000;fill-opacity:1;fill-rule:nonzero;stroke:none"
                       transform="matrix(1,0,0,-1,41.076,73.562)"><tspan
                         id="tspan1171"
                         y="0"
                         x="0 7.878552 13.515284 22.181473 25.817476 31.454208 36.69603 40.332035 45.968765">Dum-da-da</tspan></text>
<g
                       transform="translate(41.076,73.562)"
                       id="g1175" /></g></g><g
                   transform="translate(-18.111,-20.542)"
                   id="g1177" /></g></g></g><g
             id="g1179"><path
               id="path1181"
               style="fill:none;stroke:#000000;stroke-width:0.3985;stroke-linecap:butt;stroke-linejoin:miter;stroke-miterlimit:10;stroke-dasharray:none;stroke-opacity:1"
               d="m 97.9713,7.4655 c 19.96329,11.58351 38.94328,11.62518 58.09271,0.62451" /><g
               transform="matrix(0.8671,-0.4981,0.4981,0.8671,156.06401,8.09003)"
               id="g1183"><g
                 id="g1185"><path
                   id="path1187"
                   style="fill:#000000;fill-opacity:1;fill-rule:nonzero;stroke:#000000;stroke-width:0.3985;stroke-linecap:butt;stroke-linejoin:round;stroke-miterlimit:10;stroke-dasharray:none;stroke-opacity:1"
                   d="m 0.797,0 c -0.99625,0.19925 -1.99251,0.59775 -3.18802,1.29512 1.19551,-0.89662 1.19551,-1.69362 0,-2.59024 C -1.19551,-0.59775 -0.19925,-0.19925 0.797,0 Z" /></g></g><g
               id="g1189"><g
                 transform="translate(101.823,20.285)"
                 id="g1191"><g
                   id="g1193"><g
                     transform="translate(-124.788,-73.305)"
                     id="g1195"><text
                       id="text1199"
                       style="font-variant:normal;font-weight:normal;font-size:10.90909958px;font-family:LMSans10;-inkscape-font-specification:LMSans10-Regular;writing-mode:lr-tb;fill:#000000;fill-opacity:1;fill-rule:nonzero;stroke:none"
                       transform="matrix(1,0,0,-1,124.788,73.305)"><tspan
                         id="tspan1197"
                         y="0"
                         x="0 7.878552 13.515284 22.181473 25.817476 31.454208 36.69603 40.332035 45.968765">Dum-da-da</tspan></text>
<g
                       transform="translate(124.788,73.305)"
                       id="g1201" /></g></g><g
                   transform="translate(-101.823,-20.285)"
                   id="g1203" /></g></g></g><g
             id="g1205"><path
               id="path1207"
               style="fill:none;stroke:#000000;stroke-width:0.3985;stroke-linecap:butt;stroke-linejoin:miter;stroke-miterlimit:10;stroke-dasharray:none;stroke-opacity:1"
               d="M 156.92786,-7.5938 C 109.01036,-35.73476 63.30807,-36.07484 15.84488,-9.13937" /><g
               transform="matrix(-0.86966,0.49355,-0.49355,-0.86966,15.84488,-9.13939)"
               id="g1209"><g
                 id="g1211"><path
                   id="path1213"
                   style="fill:#000000;fill-opacity:1;fill-rule:nonzero;stroke:#000000;stroke-width:0.3985;stroke-linecap:butt;stroke-linejoin:round;stroke-miterlimit:10;stroke-dasharray:none;stroke-opacity:1"
                   d="m 0.797,0 c -0.99625,0.19925 -1.99251,0.59775 -3.18802,1.29512 1.19551,-0.89662 1.19551,-1.69362 0,-2.59024 C -1.19551,-0.59775 -0.19925,-0.19925 0.797,0 Z" /></g></g><g
               id="g1215"><g
                 transform="translate(74.303,-40.635)"
                 id="g1217"><g
                   id="g1219"><g
                     transform="translate(-97.268,-12.385)"
                     id="g1221"><text
                       id="text1225"
                       style="font-variant:normal;font-weight:normal;font-size:10.90909958px;font-family:LMSans10;-inkscape-font-specification:LMSans10-Regular;writing-mode:lr-tb;fill:#000000;fill-opacity:1;fill-rule:nonzero;stroke:none"
                       transform="matrix(1,0,0,-1,97.268,12.385)"><tspan
                         id="tspan1223"
                         y="0"
                         x="0 7.273097 12.514919 18.151651">Bang</tspan></text>
<g
                       transform="translate(97.268,12.385)"
                       id="g1227" /></g></g><g
                   transform="translate(-74.303,40.635)"
                   id="g1229" /></g></g></g></g></g></g></g></svg>