<?xml version="1.0" encoding="UTF-8" standalone="no"?>
<svg
   xmlns:dc="http://purl.org/dc/elements/1.1/"
   xmlns:cc="http://creativecommons.org/ns#"
   xmlns:rdf="http://www.w3.org/1999/02/22-rdf-syntax-ns#"
   xmlns:svg="http://www.w3.org/2000/svg"
   xmlns="http://www.w3.org/2000/svg"
   viewBox="0 0 396.85068 143.62267"
   height="143.62267"
   width="396.85068"
   xml:space="preserve"
   id="svg2"
   version="1.1"><metadata
     id="metadata8"><rdf:RDF><cc:Work
         rdf:about=""><dc:format>image/svg+xml</dc:format><dc:type
           rdf:resource="http://purl.org/dc/dcmitype/StillImage" /><dc:title></dc:title></cc:Work></rdf:RDF></metadata><defs
     id="defs6" /><g
     transform="matrix(1.3333333,0,0,-1.3333333,0,143.62267)"
     id="g10"><g
       transform="translate(275.975,67.906)"
       id="g12"><g
         id="g14"><g
           id="g16"><g
             id="g18"><g
               id="g20"><path
                 id="path22"
                 style="fill:none;stroke:#000000;stroke-width:0.59776002;stroke-linecap:butt;stroke-linejoin:miter;stroke-miterlimit:10;stroke-dasharray:none;stroke-opacity:1"
                 d="M 16.99702,0 C 16.99702,9.3873 9.3873,16.99702 0,16.99702 -9.3873,16.99702 -16.99702,9.3873 -16.99702,0 c 0,-9.3873 7.60972,-16.99702 16.99702,-16.99702 9.3873,0 16.99702,7.60972 16.99702,16.99702 z" /></g><g
               transform="translate(-11.303,-3.788)"
               id="g24"><g
                 id="g26"><g
                   transform="translate(-264.672,-64.118)"
                   id="g28"><text
                     id="text32"
                     style="font-variant:normal;font-weight:normal;font-size:10.90909958px;font-family:LMSans10;-inkscape-font-specification:LMSans10-Regular;writing-mode:lr-tb;fill:#000000;fill-opacity:1;fill-rule:nonzero;stroke:none"
                     transform="matrix(1,0,0,-1,264.672,64.118)"><tspan
                       id="tspan30"
                       y="0"
                       x="0 6.0600052 9.9992809 14.935649 18.663288">Start</tspan></text>
<g
                     transform="translate(264.672,64.118)"
                     id="g34" /></g></g><g
                 transform="translate(11.303,3.788)"
                 id="g36" /></g></g><g
             id="g38"><g
               id="g40"><path
                 id="path42"
                 style="fill:none;stroke:#000000;stroke-width:0.59776002;stroke-linecap:butt;stroke-linejoin:miter;stroke-miterlimit:10;stroke-dasharray:none;stroke-opacity:1"
                 d="m -70.40785,0 c 0,8.08145 -6.55113,14.6326 -14.6326,14.6326 -8.08147,0 -14.6326,-6.55115 -14.6326,-14.6326 0,-8.08145 6.55113,-14.6326 14.6326,-14.6326 8.08147,0 14.6326,6.55115 14.6326,14.6326 z" /></g><g
               transform="translate(-85.039)"
               id="g44"><g
                 id="g46" /><g
                 transform="translate(85.039)"
                 id="g48" /></g></g><g
             id="g50"><g
               id="g52"><path
                 id="path54"
                 style="fill:none;stroke:#000000;stroke-width:0.59776002;stroke-linecap:butt;stroke-linejoin:miter;stroke-miterlimit:10;stroke-dasharray:none;stroke-opacity:1"
                 d="m -155.4483,0 c 0,8.08145 -6.55115,14.6326 -14.63262,14.6326 -8.08145,0 -14.6326,-6.55115 -14.6326,-14.6326 0,-8.08145 6.55115,-14.6326 14.6326,-14.6326 8.08147,0 14.63262,6.55115 14.63262,14.6326 z" /></g><g
               transform="translate(-170.079)"
               id="g56"><g
                 id="g58" /><g
                 transform="translate(170.079)"
                 id="g60" /></g></g><g
             id="g62"><g
               id="g64"><path
                 id="path66"
                 style="fill:none;stroke:#000000;stroke-width:0.59776002;stroke-linecap:butt;stroke-linejoin:miter;stroke-miterlimit:10;stroke-dasharray:none;stroke-opacity:1"
                 d="m -240.2322,0 c 0,8.22316 -6.66601,14.88918 -14.88917,14.88918 -8.22316,0 -14.88919,-6.66602 -14.88919,-14.88918 0,-8.22316 6.66603,-14.88918 14.88919,-14.88918 8.22316,0 14.88917,6.66602 14.88917,14.88918 z" /></g><g
               transform="translate(-264.012,-3.788)"
               id="g68"><g
                 id="g70"><g
                   transform="translate(-11.963,-64.118)"
                   id="g72"><text
                     id="text76"
                     style="font-variant:normal;font-weight:normal;font-size:10.90909958px;font-family:LMSans10;-inkscape-font-specification:LMSans10-Regular;writing-mode:lr-tb;fill:#000000;fill-opacity:1;fill-rule:nonzero;stroke:none"
                     transform="matrix(1,0,0,-1,11.963,64.118)"><tspan
                       id="tspan74"
                       y="0"
                       x="0 6.5149145 12.151647">End</tspan></text>
<g
                     transform="translate(11.963,64.118)"
                     id="g78" /></g></g><g
                 transform="translate(264.012,3.788)"
                 id="g80" /></g></g><g
             id="g82"><path
               id="path84"
               style="fill:none;stroke:#000000;stroke-width:0.3985;stroke-linecap:butt;stroke-linejoin:miter;stroke-miterlimit:10;stroke-dasharray:none;stroke-opacity:1"
               d="M -14.97847,8.64769 C -34.57463,19.42752 -52.97586,19.04631 -71.25734,7.98134" /><g
               transform="matrix(-0.85547,-0.51778,0.51778,-0.85547,-71.25734,7.98134)"
               id="g86"><g
                 id="g88"><path
                   id="path90"
                   style="fill:#000000;fill-opacity:1;fill-rule:nonzero;stroke:#000000;stroke-width:0.3985;stroke-linecap:butt;stroke-linejoin:round;stroke-miterlimit:10;stroke-dasharray:none;stroke-opacity:1"
                   d="m 0.797,0 c -0.99625,0.19925 -1.99251,0.59775 -3.18802,1.29512 1.19551,-0.89662 1.19551,-1.69362 0,-2.59024 C -1.19551,-0.59775 -0.19925,-0.19925 0.797,0 Z" /></g></g><g
               id="g92"><g
                 transform="translate(-57.868,22.664)"
                 id="g94"><g
                   id="g96"><g
                     transform="translate(-218.107,-90.57)"
                     id="g98"><text
                       id="text102"
                       style="font-variant:normal;font-weight:normal;font-size:10.90909958px;font-family:LMSans10;-inkscape-font-specification:LMSans10-Regular;writing-mode:lr-tb;fill:#000000;fill-opacity:1;fill-rule:nonzero;stroke:none"
                       transform="matrix(1,0,0,-1,218.107,90.57)"><tspan
                         id="tspan100"
                         y="0"
                         x="0 5.1512771 10.788009 16.424742 20.060743 25.697475">Jup-pi</tspan></text>
<g
                       transform="translate(218.107,90.57)"
                       id="g104" /></g></g><g
                   transform="translate(57.868,-22.664)"
                   id="g106" /></g></g></g><g
             id="g108"><path
               id="path110"
               style="fill:none;stroke:#000000;stroke-width:0.3985;stroke-linecap:butt;stroke-linejoin:miter;stroke-miterlimit:10;stroke-dasharray:none;stroke-opacity:1"
               d="m -97.9713,7.4655 c -19.98617,11.53899 -39.19258,11.53899 -58.316,0.49811" /><g
               transform="matrix(-0.86601,-0.49998,0.49998,-0.86601,-156.2873,7.96362)"
               id="g112"><g
                 id="g114"><path
                   id="path116"
                   style="fill:#000000;fill-opacity:1;fill-rule:nonzero;stroke:#000000;stroke-width:0.3985;stroke-linecap:butt;stroke-linejoin:round;stroke-miterlimit:10;stroke-dasharray:none;stroke-opacity:1"
                   d="m 0.797,0 c -0.99625,0.19925 -1.99251,0.59775 -3.18802,1.29512 1.19551,-0.89662 1.19551,-1.69362 0,-2.59024 C -1.19551,-0.59775 -0.19925,-0.19925 0.797,0 Z" /></g></g><g
               id="g118"><g
                 transform="translate(-143.074,22.342)"
                 id="g120"><g
                   id="g122"><g
                     transform="translate(-132.901,-90.248)"
                     id="g124"><text
                       id="text128"
                       style="font-variant:normal;font-weight:normal;font-size:10.90909958px;font-family:LMSans10;-inkscape-font-specification:LMSans10-Regular;writing-mode:lr-tb;fill:#000000;fill-opacity:1;fill-rule:nonzero;stroke:none"
                       transform="matrix(1,0,0,-1,132.901,90.248)"><tspan
                         id="tspan126"
                         y="0"
                         x="0 7.878552 13.515284 19.152016 22.788019 28.424751">Dup-pi</tspan></text>
<g
                       transform="translate(132.901,90.248)"
                       id="g130" /></g></g><g
                   transform="translate(143.074,-22.342)"
                   id="g132" /></g></g></g><g
             id="g134"><path
               id="path136"
               style="fill:none;stroke:#000000;stroke-width:0.3985;stroke-linecap:butt;stroke-linejoin:miter;stroke-miterlimit:10;stroke-dasharray:none;stroke-opacity:1"
               d="m -157.15007,-7.4655 c 19.98619,-11.53899 39.1926,-11.53899 58.31599,-0.49811" /><g
               transform="matrix(0.86601,0.49998,-0.49998,0.86601,-98.83408,-7.96362)"
               id="g138"><g
                 id="g140"><path
                   id="path142"
                   style="fill:#000000;fill-opacity:1;fill-rule:nonzero;stroke:#000000;stroke-width:0.3985;stroke-linecap:butt;stroke-linejoin:round;stroke-miterlimit:10;stroke-dasharray:none;stroke-opacity:1"
                   d="m 0.797,0 c -0.99625,0.19925 -1.99251,0.59775 -3.18802,1.29512 1.19551,-0.89662 1.19551,-1.69362 0,-2.59024 C -1.19551,-0.59775 -0.19925,-0.19925 0.797,0 Z" /></g></g><g
               id="g144"><g
                 transform="translate(-143.074,-27.796)"
                 id="g146"><g
                   id="g148"><g
                     transform="translate(-132.901,-40.11)"
                     id="g150"><text
                       id="text154"
                       style="font-variant:normal;font-weight:normal;font-size:10.90909958px;font-family:LMSans10;-inkscape-font-specification:LMSans10-Regular;writing-mode:lr-tb;fill:#000000;fill-opacity:1;fill-rule:nonzero;stroke:none"
                       transform="matrix(1,0,0,-1,132.901,40.11)"><tspan
                         id="tspan152"
                         y="0"
                         x="0 7.878552 13.515284 19.152016 22.788019 28.424751">Dup-pi</tspan></text>
<g
                       transform="translate(132.901,40.11)"
                       id="g156" /></g></g><g
                   transform="translate(143.074,27.796)"
                   id="g158" /></g></g></g><g
             id="g160"><path
               id="path162"
               style="fill:none;stroke:#000000;stroke-width:0.3985;stroke-linecap:butt;stroke-linejoin:miter;stroke-miterlimit:10;stroke-dasharray:none;stroke-opacity:1"
               d="m -183.01176,7.4655 c -19.96329,11.58351 -38.94329,11.62518 -58.0927,0.62451" /><g
               transform="matrix(-0.8671,-0.4981,0.4981,-0.8671,-241.10446,8.09003)"
               id="g164"><g
                 id="g166"><path
                   id="path168"
                   style="fill:#000000;fill-opacity:1;fill-rule:nonzero;stroke:#000000;stroke-width:0.3985;stroke-linecap:butt;stroke-linejoin:round;stroke-miterlimit:10;stroke-dasharray:none;stroke-opacity:1"
                   d="m 0.797,0 c -0.99625,0.19925 -1.99251,0.59775 -3.18802,1.29512 1.19551,-0.89662 1.19551,-1.69362 0,-2.59024 C -1.19551,-0.59775 -0.19925,-0.19925 0.797,0 Z" /></g></g><g
               id="g170"><g
                 transform="translate(-222.014,20.286)"
                 id="g172"><g
                   id="g174"><g
                     transform="translate(-53.961,-88.192)"
                     id="g176"><text
                       id="text180"
                       style="font-variant:normal;font-weight:normal;font-size:10.90909958px;font-family:LMSans10;-inkscape-font-specification:LMSans10-Regular;writing-mode:lr-tb;fill:#000000;fill-opacity:1;fill-rule:nonzero;stroke:none"
                       transform="matrix(1,0,0,-1,53.961,88.192)"><tspan
                         id="tspan178"
                         y="0"
                         x="0 7.878552 13.638556">Doo</tspan></text>
<g
                       transform="translate(53.961,88.192)"
                       id="g182" /></g></g><g
                   transform="translate(222.014,-20.286)"
                   id="g184" /></g></g></g><g
             id="g186"><path
               id="path188"
               style="fill:none;stroke:#000000;stroke-width:0.3985;stroke-linecap:butt;stroke-linejoin:miter;stroke-miterlimit:10;stroke-dasharray:none;stroke-opacity:1"
               d="m -241.96832,-7.5938 c 76.75013,-44.78756 149.82752,-45.12747 226.1248,-1.54798" /><g
               transform="matrix(0.8683,0.49596,-0.49596,0.8683,-15.84352,-9.1418)"
               id="g190"><g
                 id="g192"><path
                   id="path194"
                   style="fill:#000000;fill-opacity:1;fill-rule:nonzero;stroke:#000000;stroke-width:0.3985;stroke-linecap:butt;stroke-linejoin:round;stroke-miterlimit:10;stroke-dasharray:none;stroke-opacity:1"
                   d="m 0.797,0 c -0.99625,0.19925 -1.99251,0.59775 -3.18802,1.29512 1.19551,-0.89662 1.19551,-1.69362 0,-2.59024 C -1.19551,-0.59775 -0.19925,-0.19925 0.797,0 Z" /></g></g><g
               id="g196"><g
                 transform="translate(-142.854,-53.119)"
                 id="g198"><g
                   id="g200"><g
                     transform="translate(-133.121,-14.787)"
                     id="g202"><text
                       id="text206"
                       style="font-variant:normal;font-weight:normal;font-size:10.90909958px;font-family:LMSans10;-inkscape-font-specification:LMSans10-Regular;writing-mode:lr-tb;fill:#000000;fill-opacity:1;fill-rule:nonzero;stroke:none"
                       transform="matrix(1,0,0,-1,133.121,14.787)"><tspan
                         id="tspan204"
                         y="0"
                         x="0 6.3676414 11.609465 17.246197 23.006201">Yahoo</tspan></text>
<g
                       transform="translate(133.121,14.787)"
                       id="g208" /></g></g><g
                   transform="translate(142.854,53.119)"
                   id="g210" /></g></g></g></g></g></g></g></svg>