<?xml version="1.0" encoding="UTF-8" standalone="no"?>
<svg
   xmlns:dc="http://purl.org/dc/elements/1.1/"
   xmlns:cc="http://creativecommons.org/ns#"
   xmlns:rdf="http://www.w3.org/1999/02/22-rdf-syntax-ns#"
   xmlns:svg="http://www.w3.org/2000/svg"
   xmlns="http://www.w3.org/2000/svg"
   viewBox="0 0 457.32266 234.33067"
   height="234.33067"
   width="457.32266"
   xml:space="preserve"
   id="svg2"
   version="1.1"><metadata
     id="metadata8"><rdf:RDF><cc:Work
         rdf:about=""><dc:format>image/svg+xml</dc:format><dc:type
           rdf:resource="http://purl.org/dc/dcmitype/StillImage" /><dc:title></dc:title></cc:Work></rdf:RDF></metadata><defs
     id="defs6" /><g
     transform="matrix(1.3333333,0,0,-1.3333333,0,234.33067)"
     id="g10"><g
       transform="translate(307.532,71.062)"
       id="g12"><g
         id="g14"><g
           id="g16"><g
             id="g18"><g
               id="g20"><path
                 id="path22"
                 style="fill:none;stroke:#000000;stroke-width:0.59776002;stroke-linecap:butt;stroke-linejoin:miter;stroke-miterlimit:10;stroke-dasharray:none;stroke-opacity:1"
                 d="M 16.99702,0 C 16.99702,9.3873 9.3873,16.99702 0,16.99702 -9.3873,16.99702 -16.99702,9.3873 -16.99702,0 c 0,-9.3873 7.60972,-16.99702 16.99702,-16.99702 9.3873,0 16.99702,7.60972 16.99702,16.99702 z" /></g><g
               transform="translate(-11.303,-3.788)"
               id="g24"><g
                 id="g26"><g
                   transform="translate(-296.229,-67.274)"
                   id="g28"><text
                     id="text32"
                     style="font-variant:normal;font-weight:normal;font-size:10.90909958px;font-family:LMSans10;-inkscape-font-specification:LMSans10-Regular;writing-mode:lr-tb;fill:#000000;fill-opacity:1;fill-rule:nonzero;stroke:none"
                     transform="matrix(1,0,0,-1,296.229,67.274)"><tspan
                       id="tspan30"
                       y="0"
                       x="0 6.0600052 9.9992809 14.935649 18.663288">Start</tspan></text>
<g
                     transform="translate(296.229,67.274)"
                     id="g34" /></g></g><g
                 transform="translate(11.303,3.788)"
                 id="g36" /></g></g><g
             id="g38"><g
               id="g40"><path
                 id="path42"
                 style="fill:none;stroke:#000000;stroke-width:0.59776002;stroke-linecap:butt;stroke-linejoin:miter;stroke-miterlimit:10;stroke-dasharray:none;stroke-opacity:1"
                 d="m -127.1015,0 c 0,8.08145 -6.55113,14.6326 -14.6326,14.6326 -8.08147,0 -14.6326,-6.55115 -14.6326,-14.6326 0,-8.08145 6.55113,-14.6326 14.6326,-14.6326 8.08147,0 14.6326,6.55115 14.6326,14.6326 z" /></g><g
               transform="translate(-141.732)"
               id="g44"><g
                 id="g46" /><g
                 transform="translate(141.732)"
                 id="g48" /></g></g><g
             id="g50"><g
               id="g52"><path
                 id="path54"
                 style="fill:none;stroke:#000000;stroke-width:0.59776002;stroke-linecap:butt;stroke-linejoin:miter;stroke-miterlimit:10;stroke-dasharray:none;stroke-opacity:1"
                 d="m -270.35176,0 c 0,8.08145 -6.55115,14.6326 -14.6326,14.6326 -8.08147,0 -14.63261,-6.55115 -14.63261,-14.6326 0,-8.08145 6.55114,-14.6326 14.63261,-14.6326 8.08145,0 14.6326,6.55115 14.6326,14.6326 z" /></g><g
               transform="translate(-284.981)"
               id="g56"><g
                 id="g58" /><g
                 transform="translate(284.981)"
                 id="g60" /></g></g><g
             id="g62"><g
               id="g64"><path
                 id="path66"
                 style="fill:none;stroke:#000000;stroke-width:0.59776002;stroke-linecap:butt;stroke-linejoin:miter;stroke-miterlimit:10;stroke-dasharray:none;stroke-opacity:1"
                 d="m -220.45064,77.99136 c 0,8.22318 -6.66601,14.88919 -14.88917,14.88919 -8.22316,0 -14.88918,-6.66601 -14.88918,-14.88919 0,-8.22316 6.66602,-14.88917 14.88918,-14.88917 8.22316,0 14.88917,6.66601 14.88917,14.88917 z" /></g><g
               transform="translate(-244.23,74.202)"
               id="g68"><g
                 id="g70"><g
                   transform="translate(-63.302,-145.264)"
                   id="g72"><text
                     id="text76"
                     style="font-variant:normal;font-weight:normal;font-size:10.90909958px;font-family:LMSans10;-inkscape-font-specification:LMSans10-Regular;writing-mode:lr-tb;fill:#000000;fill-opacity:1;fill-rule:nonzero;stroke:none"
                     transform="matrix(1,0,0,-1,63.302,145.264)"><tspan
                       id="tspan74"
                       y="0"
                       x="0 6.5149145 12.151647">End</tspan></text>
<g
                     transform="translate(63.302,145.264)"
                     id="g78" /></g></g><g
                 transform="translate(244.23,-74.202)"
                 id="g80" /></g></g><g
             id="g82"><path
               id="path84"
               style="fill:none;stroke:#000000;stroke-width:0.3985;stroke-linecap:butt;stroke-linejoin:miter;stroke-miterlimit:10;stroke-dasharray:none;stroke-opacity:1"
               d="M -14.97847,8.64769 C -53.7978,30.52608 -90.44627,30.14474 -127.94572,7.97252" /><g
               transform="matrix(-0.86075,-0.50893,0.50893,-0.86075,-127.94572,7.97252)"
               id="g86"><g
                 id="g88"><path
                   id="path90"
                   style="fill:#000000;fill-opacity:1;fill-rule:nonzero;stroke:#000000;stroke-width:0.3985;stroke-linecap:butt;stroke-linejoin:round;stroke-miterlimit:10;stroke-dasharray:none;stroke-opacity:1"
                   d="m 0.797,0 c -0.99625,0.19925 -1.99251,0.59775 -3.18802,1.29512 1.19551,-0.89662 1.19551,-1.69362 0,-2.59024 C -1.19551,-0.59775 -0.19925,-0.19925 0.797,0 Z" /></g></g><g
               id="g92"><g
                 transform="translate(-86.215,30.987)"
                 id="g94"><g
                   id="g96"><g
                     transform="translate(-221.317,-102.049)"
                     id="g98"><text
                       id="text102"
                       style="font-variant:normal;font-weight:normal;font-size:10.90909958px;font-family:LMSans10;-inkscape-font-specification:LMSans10-Regular;writing-mode:lr-tb;fill:#000000;fill-opacity:1;fill-rule:nonzero;stroke:none"
                       transform="matrix(1,0,0,-1,221.317,102.049)"><tspan
                         id="tspan100"
                         y="0"
                         x="0 5.1512771 10.788009 16.424742 20.060743 25.697475">Jup-pi</tspan></text>
<g
                       transform="translate(221.317,102.049)"
                       id="g104" /></g></g><g
                   transform="translate(86.215,-30.987)"
                   id="g106" /></g></g></g><g
             id="g108"><path
               id="path110"
               style="fill:none;stroke:#000000;stroke-width:0.3985;stroke-linecap:butt;stroke-linejoin:miter;stroke-miterlimit:10;stroke-dasharray:none;stroke-opacity:1"
               d="m -154.66495,7.4655 c -39.64512,22.88905 -77.74345,22.88905 -116.5258,0.49811" /><g
               transform="matrix(-0.86601,-0.49998,0.49998,-0.86601,-271.19075,7.96362)"
               id="g112"><g
                 id="g114"><path
                   id="path116"
                   style="fill:#000000;fill-opacity:1;fill-rule:nonzero;stroke:#000000;stroke-width:0.3985;stroke-linecap:butt;stroke-linejoin:round;stroke-miterlimit:10;stroke-dasharray:none;stroke-opacity:1"
                   d="m 0.797,0 c -0.99625,0.19925 -1.99251,0.59775 -3.18802,1.29512 1.19551,-0.89662 1.19551,-1.69362 0,-2.59024 C -1.19551,-0.59775 -0.19925,-0.19925 0.797,0 Z" /></g></g><g
               id="g118"><g
                 transform="translate(-246.205,30.854)"
                 id="g120"><g
                   id="g122"><g
                     transform="translate(-61.327,-101.916)"
                     id="g124"><text
                       id="text128"
                       style="font-variant:normal;font-weight:normal;font-size:10.90909958px;font-family:LMSans10;-inkscape-font-specification:LMSans10-Regular;writing-mode:lr-tb;fill:#000000;fill-opacity:1;fill-rule:nonzero;stroke:none"
                       transform="matrix(1,0,0,-1,61.327,101.916)"><tspan
                         id="tspan126"
                         y="0"
                         x="0 7.878552 13.515284 19.152016 22.788019 28.424751 34.663666 42.542217 48.178947 53.815681 57.451683 63.088417">Dup-piDup-pi</tspan></text>
<g
                       transform="translate(61.327,101.916)"
                       id="g130" /></g></g><g
                   transform="translate(246.205,-30.854)"
                   id="g132" /></g></g></g><g
             id="g134"><path
               id="path136"
               style="fill:none;stroke:#000000;stroke-width:0.3985;stroke-linecap:butt;stroke-linejoin:miter;stroke-miterlimit:10;stroke-dasharray:none;stroke-opacity:1"
               d="m -284.3387,14.91666 c 1.06955,25.86691 12.59428,44.04979 34.64784,55.59503" /><g
               transform="matrix(0.8859,0.46376,-0.46376,0.8859,-249.69086,70.51167)"
               id="g138"><g
                 id="g140"><path
                   id="path142"
                   style="fill:#000000;fill-opacity:1;fill-rule:nonzero;stroke:#000000;stroke-width:0.3985;stroke-linecap:butt;stroke-linejoin:round;stroke-miterlimit:10;stroke-dasharray:none;stroke-opacity:1"
                   d="m 0.797,0 c -0.99625,0.19925 -1.99251,0.59775 -3.18802,1.29512 1.19551,-0.89662 1.19551,-1.69362 0,-2.59024 C -1.19551,-0.59775 -0.19925,-0.19925 0.797,0 Z" /></g></g><g
               id="g144"><g
                 transform="translate(-297.961,52.243)"
                 id="g146"><g
                   id="g148"><g
                     transform="translate(-9.571,-123.305)"
                     id="g150"><text
                       id="text154"
                       style="font-variant:normal;font-weight:normal;font-size:10.90909958px;font-family:LMSans10;-inkscape-font-specification:LMSans10-Regular;writing-mode:lr-tb;fill:#000000;fill-opacity:1;fill-rule:nonzero;stroke:none"
                       transform="matrix(1,0,0,-1,9.571,123.305)"><tspan
                         id="tspan152"
                         y="0"
                         x="0 7.878552 13.638556">Doo</tspan></text>
<g
                       transform="translate(9.571,123.305)"
                       id="g156" /></g></g><g
                   transform="translate(297.961,-52.243)"
                   id="g158" /></g></g></g><g
             id="g160"><path
               id="path162"
               style="fill:none;stroke:#000000;stroke-width:0.3985;stroke-linecap:butt;stroke-linejoin:miter;stroke-miterlimit:10;stroke-dasharray:none;stroke-opacity:1"
               d="m -14.97847,-8.64769 c -87.38716,-49.91911 -170.15012,-49.53755 -256.2146,0.68013" /><g
               transform="matrix(-0.86368,0.50395,-0.50395,-0.86368,-271.19305,-7.96758)"
               id="g164"><g
                 id="g166"><path
                   id="path168"
                   style="fill:#000000;fill-opacity:1;fill-rule:nonzero;stroke:#000000;stroke-width:0.3985;stroke-linecap:butt;stroke-linejoin:round;stroke-miterlimit:10;stroke-dasharray:none;stroke-opacity:1"
                   d="m 0.797,0 c -0.99625,0.19925 -1.99251,0.59775 -3.18802,1.29512 1.19551,-0.89662 1.19551,-1.69362 0,-2.59024 C -1.19551,-0.59775 -0.19925,-0.19925 0.797,0 Z" /></g></g><g
               id="g170"><g
                 transform="translate(-175.172,-57.472)"
                 id="g172"><g
                   id="g174"><g
                     transform="translate(-132.36,-13.59)"
                     id="g176"><text
                       id="text180"
                       style="font-variant:normal;font-weight:normal;font-size:10.90909958px;font-family:LMSans10;-inkscape-font-specification:LMSans10-Regular;writing-mode:lr-tb;fill:#000000;fill-opacity:1;fill-rule:nonzero;stroke:none"
                       transform="matrix(1,0,0,-1,132.36,13.59)"><tspan
                         id="tspan178"
                         y="0"
                         x="0 5.1512771 10.788009 16.424742 20.060743 25.697475 31.93639 39.814941 45.451675 51.088406 54.724411 60.361141">Jup-piDup-pi</tspan></text>
<g
                       transform="translate(132.36,13.59)"
                       id="g182" /></g></g><g
                   transform="translate(175.172,57.472)"
                   id="g184" /></g></g></g><g
             id="g186"><path
               id="path188"
               style="fill:none;stroke:#000000;stroke-width:0.3985;stroke-linecap:butt;stroke-linejoin:miter;stroke-miterlimit:10;stroke-dasharray:none;stroke-opacity:1"
               d="M -220.46625,81.06183 C -136.49078,98.8189 -68.8631,76.76616 -12.16298,13.66096" /><g
               transform="matrix(0.66832,-0.74382,0.74382,0.66832,-12.16298,13.66096)"
               id="g190"><g
                 id="g192"><path
                   id="path194"
                   style="fill:#000000;fill-opacity:1;fill-rule:nonzero;stroke:#000000;stroke-width:0.3985;stroke-linecap:butt;stroke-linejoin:round;stroke-miterlimit:10;stroke-dasharray:none;stroke-opacity:1"
                   d="m 0.797,0 c -0.99625,0.19925 -1.99251,0.59775 -3.18802,1.29512 1.19551,-0.89662 1.19551,-1.69362 0,-2.59024 C -1.19551,-0.59775 -0.19925,-0.19925 0.797,0 Z" /></g></g><g
               id="g196"><g
                 transform="translate(-138.557,65.914)"
                 id="g198"><g
                   id="g200"><g
                     transform="translate(-168.975,-136.976)"
                     id="g202"><text
                       id="text206"
                       style="font-variant:normal;font-weight:normal;font-size:10.90909958px;font-family:LMSans10;-inkscape-font-specification:LMSans10-Regular;writing-mode:lr-tb;fill:#000000;fill-opacity:1;fill-rule:nonzero;stroke:none"
                       transform="matrix(1,0,0,-1,168.975,136.976)"><tspan
                         id="tspan204"
                         y="0"
                         x="0 6.3676414 11.609465 17.246197 22.995293">Yahoo</tspan></text>
<g
                       transform="translate(168.975,136.976)"
                       id="g208" /></g></g><g
                   transform="translate(138.557,-65.914)"
                   id="g210" /></g></g></g></g></g></g></g></svg>