<?xml version="1.0" encoding="UTF-8" standalone="no"?>
<svg
   xmlns:dc="http://purl.org/dc/elements/1.1/"
   xmlns:cc="http://creativecommons.org/ns#"
   xmlns:rdf="http://www.w3.org/1999/02/22-rdf-syntax-ns#"
   xmlns:svg="http://www.w3.org/2000/svg"
   xmlns="http://www.w3.org/2000/svg"
   viewBox="0 0 514.01599 124.724"
   height="124.724"
   width="514.01599"
   xml:space="preserve"
   id="svg2"
   version="1.1"><metadata
     id="metadata8"><rdf:RDF><cc:Work
         rdf:about=""><dc:format>image/svg+xml</dc:format><dc:type
           rdf:resource="http://purl.org/dc/dcmitype/StillImage" /><dc:title></dc:title></cc:Work></rdf:RDF></metadata><defs
     id="defs6" /><g
     transform="matrix(1.3333333,0,0,-1.3333333,0,124.724)"
     id="g10"><g
       transform="translate(22.965,53.99)"
       id="g12"><g
         id="g14"><g
           id="g16"><g
             id="g18"><g
               id="g20"><path
                 id="path22"
                 style="fill:none;stroke:#000000;stroke-width:0.59776002;stroke-linecap:butt;stroke-linejoin:miter;stroke-miterlimit:10;stroke-dasharray:none;stroke-opacity:1"
                 d="M 16.99702,0 C 16.99702,9.3873 9.3873,16.99702 0,16.99702 -9.3873,16.99702 -16.99702,9.3873 -16.99702,0 c 0,-9.3873 7.60972,-16.99702 16.99702,-16.99702 9.3873,0 16.99702,7.60972 16.99702,16.99702 z" /></g><g
               transform="translate(-11.303,-3.788)"
               id="g24"><g
                 id="g26"><g
                   transform="translate(-11.662,-50.202)"
                   id="g28"><text
                     id="text32"
                     style="font-variant:normal;font-weight:normal;font-size:10.90909958px;font-family:LMSans10;-inkscape-font-specification:LMSans10-Regular;writing-mode:lr-tb;fill:#000000;fill-opacity:1;fill-rule:nonzero;stroke:none"
                     transform="matrix(1,0,0,-1,11.662,50.202)"><tspan
                       id="tspan30"
                       y="0"
                       x="0 6.0600052 9.9992809 14.935649 18.663288">Start</tspan></text>
<g
                     transform="translate(11.662,50.202)"
                     id="g34" /></g></g><g
                 transform="translate(11.303,3.788)"
                 id="g36" /></g></g><g
             id="g38"><g
               id="g40"><path
                 id="path42"
                 style="fill:none;stroke:#000000;stroke-width:0.59776002;stroke-linecap:butt;stroke-linejoin:miter;stroke-miterlimit:10;stroke-dasharray:none;stroke-opacity:1"
                 d="m 99.67305,0 c 0,8.08145 -6.55113,14.6326 -14.6326,14.6326 -8.08147,0 -14.6326,-6.55115 -14.6326,-14.6326 0,-8.08145 6.55113,-14.6326 14.6326,-14.6326 8.08147,0 14.6326,6.55115 14.6326,14.6326 z" /></g><g
               transform="translate(85.039)"
               id="g44"><g
                 id="g46" /><g
                 transform="translate(-85.039)"
                 id="g48" /></g></g><g
             id="g50"><g
               id="g52"><path
                 id="path54"
                 style="fill:none;stroke:#000000;stroke-width:0.59776002;stroke-linecap:butt;stroke-linejoin:miter;stroke-miterlimit:10;stroke-dasharray:none;stroke-opacity:1"
                 d="m 184.71352,0 c 0,8.08145 -6.55115,14.6326 -14.6326,14.6326 -8.08147,0 -14.63262,-6.55115 -14.63262,-14.6326 0,-8.08145 6.55115,-14.6326 14.63262,-14.6326 8.08145,0 14.6326,6.55115 14.6326,14.6326 z" /></g><g
               transform="translate(170.079)"
               id="g56"><g
                 id="g58" /><g
                 transform="translate(-170.079)"
                 id="g60" /></g></g><g
             id="g62"><g
               id="g64"><path
                 id="path66"
                 style="fill:none;stroke:#000000;stroke-width:0.59776002;stroke-linecap:butt;stroke-linejoin:miter;stroke-miterlimit:10;stroke-dasharray:none;stroke-opacity:1"
                 d="m 269.75398,0 c 0,8.08145 -6.55114,14.6326 -14.63261,14.6326 -8.08147,0 -14.6326,-6.55115 -14.6326,-14.6326 0,-8.08145 6.55113,-14.6326 14.6326,-14.6326 8.08147,0 14.63261,6.55115 14.63261,14.6326 z" /></g><g
               transform="translate(255.118)"
               id="g68"><g
                 id="g70" /><g
                 transform="translate(-255.118)"
                 id="g72" /></g></g><g
             id="g74"><g
               id="g76"><path
                 id="path78"
                 style="fill:none;stroke:#000000;stroke-width:0.59776002;stroke-linecap:butt;stroke-linejoin:miter;stroke-miterlimit:10;stroke-dasharray:none;stroke-opacity:1"
                 d="m 355.05101,0 c 0,8.22316 -6.66601,14.88918 -14.88918,14.88918 -8.22316,0 -14.88919,-6.66602 -14.88919,-14.88918 0,-8.22316 6.66603,-14.88918 14.88919,-14.88918 8.22317,0 14.88918,6.66602 14.88918,14.88918 z" /></g><g
               transform="translate(331.264,-3.788)"
               id="g80"><g
                 id="g82"><g
                   transform="translate(-354.229,-50.202)"
                   id="g84"><text
                     id="text88"
                     style="font-variant:normal;font-weight:normal;font-size:10.90909958px;font-family:LMSans10;-inkscape-font-specification:LMSans10-Regular;writing-mode:lr-tb;fill:#000000;fill-opacity:1;fill-rule:nonzero;stroke:none"
                     transform="matrix(1,0,0,-1,354.229,50.202)"><tspan
                       id="tspan86"
                       y="0"
                       x="0 6.5149145 12.151647">End</tspan></text>
<g
                     transform="translate(354.229,50.202)"
                     id="g90" /></g></g><g
                 transform="translate(-331.264,3.788)"
                 id="g92" /></g></g><g
             id="g94"><path
               id="path96"
               style="fill:none;stroke:#000000;stroke-width:0.3985;stroke-linecap:butt;stroke-linejoin:miter;stroke-miterlimit:10;stroke-dasharray:none;stroke-opacity:1"
               d="M 14.97847,8.64769 C 34.57463,19.42752 52.97586,19.04631 71.25734,7.98134" /><g
               transform="matrix(0.85547,-0.51778,0.51778,0.85547,71.25734,7.98134)"
               id="g98"><g
                 id="g100"><path
                   id="path102"
                   style="fill:#000000;fill-opacity:1;fill-rule:nonzero;stroke:#000000;stroke-width:0.3985;stroke-linecap:butt;stroke-linejoin:round;stroke-miterlimit:10;stroke-dasharray:none;stroke-opacity:1"
                   d="m 0.797,0 c -0.99625,0.19925 -1.99251,0.59775 -3.18802,1.29512 1.19551,-0.89662 1.19551,-1.69362 0,-2.59024 C -1.19551,-0.59775 -0.19925,-0.19925 0.797,0 Z" /></g></g><g
               id="g104"><g
                 transform="translate(38.141,20.543)"
                 id="g106"><g
                   id="g108"><g
                     transform="translate(-61.106,-74.533)"
                     id="g110"><text
                       id="text114"
                       style="font-variant:normal;font-weight:normal;font-size:10.90909958px;font-family:LMSans10;-inkscape-font-specification:LMSans10-Regular;writing-mode:lr-tb;fill:#000000;fill-opacity:1;fill-rule:nonzero;stroke:none"
                       transform="matrix(1,0,0,-1,61.106,74.533)"><tspan
                         id="tspan112"
                         y="0"
                         x="0 5.9094596">La</tspan></text>
<g
                       transform="translate(61.106,74.533)"
                       id="g116" /></g></g><g
                   transform="translate(-38.141,-20.543)"
                   id="g118" /></g></g></g><g
             id="g120"><path
               id="path122"
               style="fill:none;stroke:#000000;stroke-width:0.3985;stroke-linecap:butt;stroke-linejoin:miter;stroke-miterlimit:10;stroke-dasharray:none;stroke-opacity:1"
               d="m 97.9713,7.4655 c 19.98617,11.53899 39.19258,11.53899 58.316,0.49811" /><g
               transform="matrix(0.86601,-0.49998,0.49998,0.86601,156.2873,7.96362)"
               id="g124"><g
                 id="g126"><path
                   id="path128"
                   style="fill:#000000;fill-opacity:1;fill-rule:nonzero;stroke:#000000;stroke-width:0.3985;stroke-linecap:butt;stroke-linejoin:round;stroke-miterlimit:10;stroke-dasharray:none;stroke-opacity:1"
                   d="m 0.797,0 c -0.99625,0.19925 -1.99251,0.59775 -3.18802,1.29512 1.19551,-0.89662 1.19551,-1.69362 0,-2.59024 C -1.19551,-0.59775 -0.19925,-0.19925 0.797,0 Z" /></g></g><g
               id="g130"><g
                 transform="translate(121.983,20.22)"
                 id="g132"><g
                   id="g134"><g
                     transform="translate(-144.948,-74.21)"
                     id="g136"><text
                       id="text140"
                       style="font-variant:normal;font-weight:normal;font-size:10.90909958px;font-family:LMSans10;-inkscape-font-specification:LMSans10-Regular;writing-mode:lr-tb;fill:#000000;fill-opacity:1;fill-rule:nonzero;stroke:none"
                       transform="matrix(1,0,0,-1,144.948,74.21)"><tspan
                         id="tspan138"
                         y="0"
                         x="0 5.9094596">La</tspan></text>
<g
                       transform="translate(144.948,74.21)"
                       id="g142" /></g></g><g
                   transform="translate(-121.983,-20.22)"
                   id="g144" /></g></g></g><g
             id="g146"><path
               id="path148"
               style="fill:none;stroke:#000000;stroke-width:0.3985;stroke-linecap:butt;stroke-linejoin:miter;stroke-miterlimit:10;stroke-dasharray:none;stroke-opacity:1"
               d="m 183.01176,7.4655 c 19.98618,11.53899 39.19259,11.53899 58.31598,0.49811" /><g
               transform="matrix(0.86601,-0.49998,0.49998,0.86601,241.32774,7.96362)"
               id="g150"><g
                 id="g152"><path
                   id="path154"
                   style="fill:#000000;fill-opacity:1;fill-rule:nonzero;stroke:#000000;stroke-width:0.3985;stroke-linecap:butt;stroke-linejoin:round;stroke-miterlimit:10;stroke-dasharray:none;stroke-opacity:1"
                   d="m 0.797,0 c -0.99625,0.19925 -1.99251,0.59775 -3.18802,1.29512 1.19551,-0.89662 1.19551,-1.69362 0,-2.59024 C -1.19551,-0.59775 -0.19925,-0.19925 0.797,0 Z" /></g></g><g
               id="g156"><g
                 transform="translate(207.023,20.22)"
                 id="g158"><g
                   id="g160"><g
                     transform="translate(-229.988,-74.21)"
                     id="g162"><text
                       id="text166"
                       style="font-variant:normal;font-weight:normal;font-size:10.90909958px;font-family:LMSans10;-inkscape-font-specification:LMSans10-Regular;writing-mode:lr-tb;fill:#000000;fill-opacity:1;fill-rule:nonzero;stroke:none"
                       transform="matrix(1,0,0,-1,229.988,74.21)"><tspan
                         id="tspan164"
                         y="0"
                         x="0 5.9094596">La</tspan></text>
<g
                       transform="translate(229.988,74.21)"
                       id="g168" /></g></g><g
                   transform="translate(-207.023,-20.22)"
                   id="g170" /></g></g></g><g
             id="g172"><path
               id="path174"
               style="fill:none;stroke:#000000;stroke-width:0.3985;stroke-linecap:butt;stroke-linejoin:miter;stroke-miterlimit:10;stroke-dasharray:none;stroke-opacity:1"
               d="M 242.19052,-7.4655 C 193.48398,-35.58617 146.67784,-35.58617 98.83408,-7.96361" /><g
               transform="matrix(-0.86601,0.49998,-0.49998,-0.86601,98.83408,-7.96362)"
               id="g176"><g
                 id="g178"><path
                   id="path180"
                   style="fill:#000000;fill-opacity:1;fill-rule:nonzero;stroke:#000000;stroke-width:0.3985;stroke-linecap:butt;stroke-linejoin:round;stroke-miterlimit:10;stroke-dasharray:none;stroke-opacity:1"
                   d="m 0.797,0 c -0.99625,0.19925 -1.99251,0.59775 -3.18802,1.29512 1.19551,-0.89662 1.19551,-1.69362 0,-2.59024 C -1.19551,-0.59775 -0.19925,-0.19925 0.797,0 Z" /></g></g><g
               id="g182"><g
                 transform="translate(133.503,-40.232)"
                 id="g184"><g
                   id="g186"><g
                     transform="translate(-156.468,-13.758)"
                     id="g188"><text
                       id="text192"
                       style="font-variant:normal;font-weight:normal;font-size:10.90909958px;font-family:LMSans10;-inkscape-font-specification:LMSans10-Regular;writing-mode:lr-tb;fill:#000000;fill-opacity:1;fill-rule:nonzero;stroke:none"
                       transform="matrix(1,0,0,-1,156.468,13.758)"><tspan
                         id="tspan190"
                         y="0"
                         x="0 10.302554 15.939286 21.699291 27.153841 32.790573 36.426575 42.063309 46.912403 50.548405 56.185139 61.934235 67.694237">Whoop-de-dooo</tspan></text>
<g
                       transform="translate(156.468,13.758)"
                       id="g194" /></g></g><g
                   transform="translate(-133.503,40.232)"
                   id="g196" /></g></g></g><g
             id="g198"><path
               id="path200"
               style="fill:none;stroke:#000000;stroke-width:0.3985;stroke-linecap:butt;stroke-linejoin:miter;stroke-miterlimit:10;stroke-dasharray:none;stroke-opacity:1"
               d="m 268.05222,7.4655 c 19.96328,11.58351 38.94329,11.62518 58.09271,0.62451" /><g
               transform="matrix(0.8671,-0.4981,0.4981,0.8671,326.14493,8.09003)"
               id="g202"><g
                 id="g204"><path
                   id="path206"
                   style="fill:#000000;fill-opacity:1;fill-rule:nonzero;stroke:#000000;stroke-width:0.3985;stroke-linecap:butt;stroke-linejoin:round;stroke-miterlimit:10;stroke-dasharray:none;stroke-opacity:1"
                   d="m 0.797,0 c -0.99625,0.19925 -1.99251,0.59775 -3.18802,1.29512 1.19551,-0.89662 1.19551,-1.69362 0,-2.59024 C -1.19551,-0.59775 -0.19925,-0.19925 0.797,0 Z" /></g></g><g
               id="g208"><g
                 transform="translate(277.493,22.407)"
                 id="g210"><g
                   id="g212"><g
                     transform="translate(-300.458,-76.397)"
                     id="g214"><text
                       id="text218"
                       style="font-variant:normal;font-weight:normal;font-size:10.90909958px;font-family:LMSans10;-inkscape-font-specification:LMSans10-Regular;writing-mode:lr-tb;fill:#000000;fill-opacity:1;fill-rule:nonzero;stroke:none"
                       transform="matrix(1,0,0,-1,300.458,76.397)"><tspan
                         id="tspan216"
                         y="0"
                         x="0 6.0600052 10.9091 16.545832 23.694565 28.936388 34.57312">Schwang</tspan></text>
<g
                       transform="translate(300.458,76.397)"
                       id="g220" /></g></g><g
                   transform="translate(-277.493,-22.407)"
                   id="g222" /></g></g></g></g></g></g></g></svg>