<?xml version="1.0" encoding="UTF-8" standalone="no"?>
<svg
   xmlns:dc="http://purl.org/dc/elements/1.1/"
   xmlns:cc="http://creativecommons.org/ns#"
   xmlns:rdf="http://www.w3.org/1999/02/22-rdf-syntax-ns#"
   xmlns:svg="http://www.w3.org/2000/svg"
   xmlns="http://www.w3.org/2000/svg"
   viewBox="0 0 370.39334 313.70132"
   height="313.70132"
   width="370.39334"
   xml:space="preserve"
   id="svg2"
   version="1.1"><metadata
     id="metadata8"><rdf:RDF><cc:Work
         rdf:about=""><dc:format>image/svg+xml</dc:format><dc:type
           rdf:resource="http://purl.org/dc/dcmitype/StillImage" /><dc:title></dc:title></cc:Work></rdf:RDF></metadata><defs
     id="defs6" /><g
     transform="matrix(1.3333333,0,0,-1.3333333,0,313.70133)"
     id="g10"><g
       transform="translate(137.012,197.587)"
       id="g12"><g
         id="g14"><g
           id="g16"><g
             id="g18"><g
               id="g20"><path
                 id="path22"
                 style="fill:none;stroke:#000000;stroke-width:0.59776002;stroke-linecap:butt;stroke-linejoin:miter;stroke-miterlimit:10;stroke-dasharray:none;stroke-opacity:1"
                 d="M 16.99702,0 C 16.99702,9.3873 9.3873,16.99702 0,16.99702 -9.3873,16.99702 -16.99702,9.3873 -16.99702,0 c 0,-9.3873 7.60972,-16.99702 16.99702,-16.99702 9.3873,0 16.99702,7.60972 16.99702,16.99702 z" /></g><g
               transform="translate(-11.303,-3.788)"
               id="g24"><g
                 id="g26"><g
                   transform="translate(-125.709,-193.799)"
                   id="g28"><text
                     id="text32"
                     style="font-variant:normal;font-weight:normal;font-size:10.90909958px;font-family:LMSans10;-inkscape-font-specification:LMSans10-Regular;writing-mode:lr-tb;fill:#000000;fill-opacity:1;fill-rule:nonzero;stroke:none"
                     transform="matrix(1,0,0,-1,125.709,193.799)"><tspan
                       id="tspan30"
                       y="0"
                       x="0 6.0600052 9.9992809 14.935649 18.663288">Start</tspan></text>
<g
                     transform="translate(125.709,193.799)"
                     id="g34" /></g></g><g
                 transform="translate(11.303,3.788)"
                 id="g36" /></g></g><g
             id="g38"><g
               id="g40"><path
                 id="path42"
                 style="fill:none;stroke:#000000;stroke-width:0.59776002;stroke-linecap:butt;stroke-linejoin:miter;stroke-miterlimit:10;stroke-dasharray:none;stroke-opacity:1"
                 d="m 99.67305,0 c 0,8.08145 -6.55113,14.6326 -14.6326,14.6326 -8.08147,0 -14.6326,-6.55115 -14.6326,-14.6326 0,-8.08145 6.55113,-14.6326 14.6326,-14.6326 8.08147,0 14.6326,6.55115 14.6326,14.6326 z" /></g><g
               transform="translate(85.039)"
               id="g44"><g
                 id="g46" /><g
                 transform="translate(-85.039)"
                 id="g48" /></g></g><g
             id="g50"><g
               id="g52"><path
                 id="path54"
                 style="fill:none;stroke:#000000;stroke-width:0.59776002;stroke-linecap:butt;stroke-linejoin:miter;stroke-miterlimit:10;stroke-dasharray:none;stroke-opacity:1"
                 d="m -70.40785,0 c 0,8.08145 -6.55113,14.6326 -14.6326,14.6326 -8.08147,0 -14.6326,-6.55115 -14.6326,-14.6326 0,-8.08145 6.55113,-14.6326 14.6326,-14.6326 8.08147,0 14.6326,6.55115 14.6326,14.6326 z" /></g><g
               transform="translate(-85.039)"
               id="g56"><g
                 id="g58" /><g
                 transform="translate(85.039)"
                 id="g60" /></g></g><g
             id="g62"><g
               id="g64"><path
                 id="path66"
                 style="fill:none;stroke:#000000;stroke-width:0.59776002;stroke-linecap:butt;stroke-linejoin:miter;stroke-miterlimit:10;stroke-dasharray:none;stroke-opacity:1"
                 d="m 99.67305,-85.04045 c 0,8.08147 -6.55113,14.6326 -14.6326,14.6326 -8.08147,0 -14.6326,-6.55113 -14.6326,-14.6326 0,-8.08147 6.55113,-14.6326 14.6326,-14.6326 8.08147,0 14.6326,6.55113 14.6326,14.6326 z" /></g><g
               transform="translate(85.039,-85.04)"
               id="g68"><g
                 id="g70" /><g
                 transform="translate(-85.039,85.04)"
                 id="g72" /></g></g><g
             id="g74"><g
               id="g76"><path
                 id="path78"
                 style="fill:none;stroke:#000000;stroke-width:0.59776002;stroke-linecap:butt;stroke-linejoin:miter;stroke-miterlimit:10;stroke-dasharray:none;stroke-opacity:1"
                 d="m -70.40785,-85.04045 c 0,8.08147 -6.55113,14.6326 -14.6326,14.6326 -8.08147,0 -14.6326,-6.55113 -14.6326,-14.6326 0,-8.08147 6.55113,-14.6326 14.6326,-14.6326 8.08147,0 14.6326,6.55113 14.6326,14.6326 z" /></g><g
               transform="translate(-85.039,-85.04)"
               id="g80"><g
                 id="g82" /><g
                 transform="translate(85.039,85.04)"
                 id="g84" /></g></g><g
             id="g86"><g
               id="g88"><path
                 id="path90"
                 style="fill:none;stroke:#000000;stroke-width:0.59776002;stroke-linecap:butt;stroke-linejoin:miter;stroke-miterlimit:10;stroke-dasharray:none;stroke-opacity:1"
                 d="m 14.88918,-174.21808 c 0,8.22316 -6.66602,14.88918 -14.88918,14.88918 -8.22316,0 -14.88918,-6.66602 -14.88918,-14.88918 0,-8.22316 6.66602,-14.88919 14.88918,-14.88919 8.22316,0 14.88918,6.66603 14.88918,14.88919 z" /></g><g
               transform="translate(-8.894,-178.004)"
               id="g92"><g
                 id="g94"><g
                   transform="translate(-128.118,-19.583)"
                   id="g96"><text
                     id="text100"
                     style="font-variant:normal;font-weight:normal;font-size:10.90909958px;font-family:LMSans10;-inkscape-font-specification:LMSans10-Regular;writing-mode:lr-tb;fill:#000000;fill-opacity:1;fill-rule:nonzero;stroke:none"
                     transform="matrix(1,0,0,-1,128.118,19.583)"><tspan
                       id="tspan98"
                       y="0"
                       x="0 6.5149145 12.151647">End</tspan></text>
<g
                     transform="translate(128.118,19.583)"
                     id="g102" /></g></g><g
                 transform="translate(8.894,178.004)"
                 id="g104" /></g></g><g
             id="g106"><path
               id="path108"
               style="fill:none;stroke:#000000;stroke-width:0.3985;stroke-linecap:butt;stroke-linejoin:miter;stroke-miterlimit:10;stroke-dasharray:none;stroke-opacity:1"
               d="M 14.97847,8.64769 C 34.57463,19.42752 52.97586,19.04631 71.25734,7.98134" /><g
               transform="matrix(0.85547,-0.51778,0.51778,0.85547,71.25734,7.98134)"
               id="g110"><g
                 id="g112"><path
                   id="path114"
                   style="fill:#000000;fill-opacity:1;fill-rule:nonzero;stroke:#000000;stroke-width:0.3985;stroke-linecap:butt;stroke-linejoin:round;stroke-miterlimit:10;stroke-dasharray:none;stroke-opacity:1"
                   d="m 0.797,0 c -0.99625,0.19925 -1.99251,0.59775 -3.18802,1.29512 1.19551,-0.89662 1.19551,-1.69362 0,-2.59024 C -1.19551,-0.59775 -0.19925,-0.19925 0.797,0 Z" /></g></g><g
               id="g116"><g
                 transform="translate(30.747,20.542)"
                 id="g118"><g
                   id="g120"><g
                     transform="translate(-167.759,-218.129)"
                     id="g122"><text
                       id="text126"
                       style="font-variant:normal;font-weight:normal;font-size:10.90909958px;font-family:LMSans10;-inkscape-font-specification:LMSans10-Regular;writing-mode:lr-tb;fill:#000000;fill-opacity:1;fill-rule:nonzero;stroke:none"
                       transform="matrix(1,0,0,-1,167.759,218.129)"><tspan
                         id="tspan124"
                         y="0"
                         x="0 5.9094596 14.784013 20.693472">LaLa</tspan></text>
<g
                       transform="translate(167.759,218.129)"
                       id="g128" /></g></g><g
                   transform="translate(-30.747,-20.542)"
                   id="g130" /></g></g></g><g
             id="g132"><path
               id="path134"
               style="fill:none;stroke:#000000;stroke-width:0.3985;stroke-linecap:butt;stroke-linejoin:miter;stroke-miterlimit:10;stroke-dasharray:none;stroke-opacity:1"
               d="M -14.97847,8.64769 C -34.57463,19.42752 -52.97586,19.04631 -71.25734,7.98134" /><g
               transform="matrix(-0.85547,-0.51778,0.51778,-0.85547,-71.25734,7.98134)"
               id="g136"><g
                 id="g138"><path
                   id="path140"
                   style="fill:#000000;fill-opacity:1;fill-rule:nonzero;stroke:#000000;stroke-width:0.3985;stroke-linecap:butt;stroke-linejoin:round;stroke-miterlimit:10;stroke-dasharray:none;stroke-opacity:1"
                   d="m 0.797,0 c -0.99625,0.19925 -1.99251,0.59775 -3.18802,1.29512 1.19551,-0.89662 1.19551,-1.69362 0,-2.59024 C -1.19551,-0.59775 -0.19925,-0.19925 0.797,0 Z" /></g></g><g
               id="g142"><g
                 transform="translate(-60.747,20.542)"
                 id="g144"><g
                   id="g146"><g
                     transform="translate(-76.265,-218.129)"
                     id="g148"><text
                       id="text152"
                       style="font-variant:normal;font-weight:normal;font-size:10.90909958px;font-family:LMSans10;-inkscape-font-specification:LMSans10-Regular;writing-mode:lr-tb;fill:#000000;fill-opacity:1;fill-rule:nonzero;stroke:none"
                       transform="matrix(1,0,0,-1,76.265,218.129)"><tspan
                         id="tspan150"
                         y="0"
                         x="0 7.878552 13.515284 22.181473 25.817476 31.454208">Dum-di</tspan></text>
<g
                       transform="translate(76.265,218.129)"
                       id="g154" /></g></g><g
                   transform="translate(60.747,-20.542)"
                   id="g156" /></g></g></g><g
             id="g158"><path
               id="path160"
               style="fill:none;stroke:#000000;stroke-width:0.3985;stroke-linecap:butt;stroke-linejoin:miter;stroke-miterlimit:10;stroke-dasharray:none;stroke-opacity:1"
               d="m 92.50597,-12.93085 c 11.53898,-19.98617 11.53898,-39.19258 0.4981,-58.31598" /><g
               transform="matrix(-0.49998,-0.86601,0.86601,-0.49998,93.00409,-71.24683)"
               id="g162"><g
                 id="g164"><path
                   id="path166"
                   style="fill:#000000;fill-opacity:1;fill-rule:nonzero;stroke:#000000;stroke-width:0.3985;stroke-linecap:butt;stroke-linejoin:round;stroke-miterlimit:10;stroke-dasharray:none;stroke-opacity:1"
                   d="m 0.797,0 c -0.99625,0.19925 -1.99251,0.59775 -3.18802,1.29512 1.19551,-0.89662 1.19551,-1.69362 0,-2.59024 C -1.19551,-0.59775 -0.19925,-0.19925 0.797,0 Z" /></g></g><g
               id="g168"><g
                 transform="translate(105.26,-46.308)"
                 id="g170"><g
                   id="g172"><g
                     transform="translate(-242.272,-151.279)"
                     id="g174"><text
                       id="text178"
                       style="font-variant:normal;font-weight:normal;font-size:10.90909958px;font-family:LMSans10;-inkscape-font-specification:LMSans10-Regular;writing-mode:lr-tb;fill:#000000;fill-opacity:1;fill-rule:nonzero;stroke:none"
                       transform="matrix(1,0,0,-1,242.272,151.279)"><tspan
                         id="tspan176"
                         y="0"
                         x="0 7.878552 13.120375 18.757107">Dada</tspan></text>
<g
                       transform="translate(242.272,151.279)"
                       id="g180" /></g></g><g
                   transform="translate(-105.26,46.308)"
                   id="g182" /></g></g></g><g
             id="g184"><path
               id="path186"
               style="fill:none;stroke:#000000;stroke-width:0.3985;stroke-linecap:butt;stroke-linejoin:miter;stroke-miterlimit:10;stroke-dasharray:none;stroke-opacity:1"
               d="m -92.50597,-12.93085 c -11.53898,-19.98617 -11.53898,-39.19258 -0.4981,-58.31598" /><g
               transform="matrix(0.49998,-0.86601,0.86601,0.49998,-93.00409,-71.24683)"
               id="g188"><g
                 id="g190"><path
                   id="path192"
                   style="fill:#000000;fill-opacity:1;fill-rule:nonzero;stroke:#000000;stroke-width:0.3985;stroke-linecap:butt;stroke-linejoin:round;stroke-miterlimit:10;stroke-dasharray:none;stroke-opacity:1"
                   d="m 0.797,0 c -0.99625,0.19925 -1.99251,0.59775 -3.18802,1.29512 1.19551,-0.89662 1.19551,-1.69362 0,-2.59024 C -1.19551,-0.59775 -0.19925,-0.19925 0.797,0 Z" /></g></g><g
               id="g194"><g
                 transform="translate(-127.441,-46.308)"
                 id="g196"><g
                   id="g198"><g
                     transform="translate(-9.571,-151.279)"
                     id="g200"><text
                       id="text204"
                       style="font-variant:normal;font-weight:normal;font-size:10.90909958px;font-family:LMSans10;-inkscape-font-specification:LMSans10-Regular;writing-mode:lr-tb;fill:#000000;fill-opacity:1;fill-rule:nonzero;stroke:none"
                       transform="matrix(1,0,0,-1,9.571,151.279)"><tspan
                         id="tspan202"
                         y="0"
                         x="0 7.878552 13.515284">Dum</tspan></text>
<g
                       transform="translate(9.571,151.279)"
                       id="g206" /></g></g><g
                   transform="translate(127.441,46.308)"
                   id="g208" /></g></g></g><g
             id="g210"><path
               id="path212"
               style="fill:none;stroke:#000000;stroke-width:0.3985;stroke-linecap:butt;stroke-linejoin:miter;stroke-miterlimit:10;stroke-dasharray:none;stroke-opacity:1"
               d="m -77.57494,-72.1096 c 11.53898,19.98617 11.53898,39.19258 0.49811,58.31599" /><g
               transform="matrix(-0.49998,0.86601,-0.86601,-0.49998,-77.07681,-13.79361)"
               id="g214"><g
                 id="g216"><path
                   id="path218"
                   style="fill:#000000;fill-opacity:1;fill-rule:nonzero;stroke:#000000;stroke-width:0.3985;stroke-linecap:butt;stroke-linejoin:round;stroke-miterlimit:10;stroke-dasharray:none;stroke-opacity:1"
                   d="m 0.797,0 c -0.99625,0.19925 -1.99251,0.59775 -3.18802,1.29512 1.19551,-0.89662 1.19551,-1.69362 0,-2.59024 C -1.19551,-0.59775 -0.19925,-0.19925 0.797,0 Z" /></g></g><g
               id="g220"><g
                 transform="translate(-64.819,-46.308)"
                 id="g222"><g
                   id="g224"><g
                     transform="translate(-72.193,-151.279)"
                     id="g226"><text
                       id="text230"
                       style="font-variant:normal;font-weight:normal;font-size:10.90909958px;font-family:LMSans10;-inkscape-font-specification:LMSans10-Regular;writing-mode:lr-tb;fill:#000000;fill-opacity:1;fill-rule:nonzero;stroke:none"
                       transform="matrix(1,0,0,-1,72.193,151.279)"><tspan
                         id="tspan228"
                         y="0"
                         x="0 7.878552 13.120375 18.757107">Dada</tspan></text>
<g
                       transform="translate(72.193,151.279)"
                       id="g232" /></g></g><g
                   transform="translate(64.819,46.308)"
                   id="g234" /></g></g></g><g
             id="g236"><path
               id="path238"
               style="fill:none;stroke:#000000;stroke-width:0.3985;stroke-linecap:butt;stroke-linejoin:miter;stroke-miterlimit:10;stroke-dasharray:none;stroke-opacity:1"
               d="m -70.13654,-85.93494 c 64.19304,-3.85342 111.51645,19.80905 146.40137,72.6437" /><g
               transform="matrix(0.55096,0.83447,-0.83447,0.55096,76.26483,-13.29124)"
               id="g240"><g
                 id="g242"><path
                   id="path244"
                   style="fill:#000000;fill-opacity:1;fill-rule:nonzero;stroke:#000000;stroke-width:0.3985;stroke-linecap:butt;stroke-linejoin:round;stroke-miterlimit:10;stroke-dasharray:none;stroke-opacity:1"
                   d="m 0.797,0 c -0.99625,0.19925 -1.99251,0.59775 -3.18802,1.29512 1.19551,-0.89662 1.19551,-1.69362 0,-2.59024 C -1.19551,-0.59775 -0.19925,-0.19925 0.797,0 Z" /></g></g><g
               id="g246"><g
                 transform="translate(18.224,-82.443)"
                 id="g248"><g
                   id="g250"><g
                     transform="translate(-155.236,-115.144)"
                     id="g252"><text
                       id="text256"
                       style="font-variant:normal;font-weight:normal;font-size:10.90909958px;font-family:LMSans10;-inkscape-font-specification:LMSans10-Regular;writing-mode:lr-tb;fill:#000000;fill-opacity:1;fill-rule:nonzero;stroke:none"
                       transform="matrix(1,0,0,-1,155.236,115.144)"><tspan
                         id="tspan254"
                         y="0"
                         x="0 5.9094596 14.784013 20.693472 29.578934 35.488392">LaLaLa</tspan></text>
<g
                       transform="translate(155.236,115.144)"
                       id="g258" /></g></g><g
                   transform="translate(-18.224,82.443)"
                   id="g260" /></g></g></g><g
             id="g262"><path
               id="path264"
               style="fill:none;stroke:#000000;stroke-width:0.3985;stroke-linecap:butt;stroke-linejoin:miter;stroke-miterlimit:10;stroke-dasharray:none;stroke-opacity:1"
               d="m 72.1096,-92.50597 c -48.70654,-28.12066 -95.51266,-28.12066 -143.35643,-0.4981" /><g
               transform="matrix(-0.86601,0.49998,-0.49998,-0.86601,-71.24683,-93.00409)"
               id="g266"><g
                 id="g268"><path
                   id="path270"
                   style="fill:#000000;fill-opacity:1;fill-rule:nonzero;stroke:#000000;stroke-width:0.3985;stroke-linecap:butt;stroke-linejoin:round;stroke-miterlimit:10;stroke-dasharray:none;stroke-opacity:1"
                   d="m 0.797,0 c -0.99625,0.19925 -1.99251,0.59775 -3.18802,1.29512 1.19551,-0.89662 1.19551,-1.69362 0,-2.59024 C -1.19551,-0.59775 -0.19925,-0.19925 0.797,0 Z" /></g></g><g
               id="g272"><g
                 transform="translate(-20.545,-125.272)"
                 id="g274"><g
                   id="g276"><g
                     transform="translate(-116.467,-72.315)"
                     id="g278"><text
                       id="text282"
                       style="font-variant:normal;font-weight:normal;font-size:10.90909958px;font-family:LMSans10;-inkscape-font-specification:LMSans10-Regular;writing-mode:lr-tb;fill:#000000;fill-opacity:1;fill-rule:nonzero;stroke:none"
                       transform="matrix(1,0,0,-1,116.467,72.315)"><tspan
                         id="tspan280"
                         y="0"
                         x="0 7.878552 10.484736 16.121468 21.7582 26.607294 29.213478 32.849483 38.486214">Diddel-di</tspan></text>
<g
                       transform="translate(116.467,72.315)"
                       id="g284" /></g></g><g
                   transform="translate(20.545,125.272)"
                   id="g286" /></g></g></g><g
             id="g288"><path
               id="path290"
               style="fill:none;stroke:#000000;stroke-width:0.3985;stroke-linecap:butt;stroke-linejoin:miter;stroke-miterlimit:10;stroke-dasharray:none;stroke-opacity:1"
               d="m -81.51993,-99.5502 c 8.89517,-36.86847 30.57105,-59.6591 65.99213,-70.10813" /><g
               transform="matrix(0.95909,-0.28293,0.28293,0.95909,-15.5278,-169.65831)"
               id="g292"><g
                 id="g294"><path
                   id="path296"
                   style="fill:#000000;fill-opacity:1;fill-rule:nonzero;stroke:#000000;stroke-width:0.3985;stroke-linecap:butt;stroke-linejoin:round;stroke-miterlimit:10;stroke-dasharray:none;stroke-opacity:1"
                   d="m 0.797,0 c -0.99625,0.19925 -1.99251,0.59775 -3.18802,1.29512 1.19551,-0.89662 1.19551,-1.69362 0,-2.59024 C -1.19551,-0.59775 -0.19925,-0.19925 0.797,0 Z" /></g></g><g
               id="g298"><g
                 transform="translate(-109.633,-156.222)"
                 id="g300"><g
                   id="g302"><g
                     transform="translate(-27.379,-41.365)"
                     id="g304"><text
                       id="text308"
                       style="font-variant:normal;font-weight:normal;font-size:10.90909958px;font-family:LMSans10;-inkscape-font-specification:LMSans10-Regular;writing-mode:lr-tb;fill:#000000;fill-opacity:1;fill-rule:nonzero;stroke:none"
                       transform="matrix(1,0,0,-1,27.379,41.365)"><tspan
                         id="tspan306"
                         y="0"
                         x="0 7.878552 13.120375 18.757107 23.99893 27.634932 33.271664 38.513485">Dada-dam</tspan></text>
<g
                       transform="translate(27.379,41.365)"
                       id="g310" /></g></g><g
                   transform="translate(109.633,156.222)"
                   id="g312" /></g></g></g></g></g></g></g></svg>