<?xml version="1.0" encoding="UTF-8" standalone="no"?>
<svg
   xmlns:dc="http://purl.org/dc/elements/1.1/"
   xmlns:cc="http://creativecommons.org/ns#"
   xmlns:rdf="http://www.w3.org/1999/02/22-rdf-syntax-ns#"
   xmlns:svg="http://www.w3.org/2000/svg"
   xmlns="http://www.w3.org/2000/svg"
   xmlns:sodipodi="http://sodipodi.sourceforge.net/DTD/sodipodi-0.dtd"
   xmlns:inkscape="http://www.inkscape.org/namespaces/inkscape"
   inkscape:version="1.0 (4035a4fb49, 2020-05-01)"
   sodipodi:docname="2020-SK-01-princess.svg"
   id="svg8224"
   version="1.1"
   viewBox="0 0 104.99999 105.00033"
   height="105.00033mm"
   width="104.99998mm">
  <defs
     id="defs8218" />
  <sodipodi:namedview
     fit-margin-bottom="0"
     fit-margin-right="0"
     fit-margin-left="0"
     fit-margin-top="0"
     showgrid="false"
     inkscape:document-rotation="0"
     inkscape:current-layer="g7884"
     inkscape:document-units="mm"
     inkscape:cy="560"
     inkscape:cx="400"
     inkscape:zoom="0.35"
     inkscape:pageshadow="2"
     inkscape:pageopacity="0.0"
     borderopacity="1.0"
     bordercolor="#666666"
     pagecolor="#ffffff"
     id="base" />
  <metadata
     id="metadata8221">
    <rdf:RDF>
      <cc:Work
         rdf:about="">
        <dc:format>image/svg+xml</dc:format>
        <dc:type
           rdf:resource="http://purl.org/dc/dcmitype/StillImage" />
        <dc:title></dc:title>
      </cc:Work>
    </rdf:RDF>
  </metadata>
  <g
     transform="translate(-101.85512,-54.818183)"
     id="layer1"
     inkscape:groupmode="layer"
     inkscape:label="Ebene 1">
    <g
       transform="translate(135.25116,-165.496)"
       id="g7884">
      <path
         sodipodi:nodetypes="sccsssssscsccssscccccccssssssccccccsccccsscccss"
         d="m 4.2190052,239.25437 c -30.1494122,-0.47306 -25.2044232,62.34844 -37.4825742,83.37683 1.807328,-1.15592 3.696152,-3.15109 4.51846,-5.62867 -0.351095,1.53091 -0.84528,4.68331 -0.0085,5.84735 0.909234,1.26444 6.68638,-11.98461 6.827048,-12.49179 0.226463,-0.81653 0.209317,1.6864 0.144456,2.52823 -0.08418,1.09304 -1.207343,8.60403 0.07223,8.40631 0.872914,-0.13488 1.408775,-4.02291 1.55321,-4.53793 0.693323,-2.47231 0.845525,-5.04028 1.806283,-7.45144 0.687284,-1.72484 3.466157,-5.13772 4.300117,-7.63784 -0.02305,0.75065 -0.03745,1.53838 -0.03745,1.99458 0,3.32039 -0.180178,6.64822 0.878879,10.88717 5.6782279,-2.16364 6.9553933,-8.12329 6.6621919,-15.63959 0.6435601,0.55285 1.2116965,0.97322 1.6337017,1.16884 1.1969298,0.55486 2.9868562,1.50727 4.29846639,1.50727 0.56619138,0 2.17139131,0.2423 1.69766301,-0.0505 -3.506702,-2.16745 -6.4086386,-5.75587 -8.2297311,-9.63555 -0.209018,-1.76715 -0.4485619,-3.5734 -0.6974737,-5.40114 0.6006042,0.84712 1.3679319,1.54156 2.3168462,2.16015 2.5792656,1.58491 -0.3276081,0.98768 3.040794,0.78669 0.3138195,-0.008 1.1153391,0.17862 0.9389798,-0.0666 -7.9872271,-5.12254 -5.9859737,-9.80803 -7.8454235,-16.73295 -0.5223957,-9.1772 0.6568011,-17.39309 7.3282433,-21.65146 1.46331419,3.10452 2.73132076,9.44283 3.00826381,9.57358 1.57503049,0.74363 2.61581129,-9.64798 4.43300289,-8.79002 4.4302001,2.09166 2.2935907,6.69386 5.7629023,8.33186 2.392563,1.12961 4.322101,-9.62722 4.433,-9.62722 0.747036,0 3.975409,7.10213 4.876303,7.95283 2.231443,2.10708 2.161811,-7.01234 2.2165,-7.11564 0.103709,-0.19584 5.65177,9.20863 7.092803,9.20863 0.07465,-4.32758 1.118098,-10.33178 3.608709,-5.44334 5.001928,18.30778 -4.497701,32.08745 0.442749,38.34121 1.564979,-0.89146 -1.720247,1.19377 0,0 0.08174,4.64955 0.624037,9.2861 1.903322,13.30555 4.087656,9.27833 12.371252,13.90447 20.047756,17.18071 0.60212,-0.83738 -0.857708,-1.8661 -1.444582,-2.71307 -0.707192,-1.02061 -1.790329,-2.70354 -2.794339,-4.62488 -4.127698,-5.73794 -5.086866,-6.98725 1.600071,-1.97063 4.794513,3.50056 12.511011,5.46883 15.025897,5.01484 -1.695788,-0.9758 -9.626931,-8.90119 -10.271449,-10.37538 -4.771391,-4.02826 -0.514213,-2.10026 0.819341,-0.96684 1.180274,1.00317 12.775758,4.77365 12.775758,3.58152 0,-0.55944 -4.229575,-4.43347 -5.214841,-4.74358 C 50.665896,299.81124 42.820835,277.13193 45.495271,264.92158 50.551722,248.49902 23.694072,233.60984 17.011028,242.48707 12.153016,240.32519 7.9212889,239.31249 4.2187278,239.2544 Z"
         style="fill:#ffcc00;fill-opacity:1;stroke:none;stroke-width:0.264583px;stroke-linecap:butt;stroke-linejoin:miter;stroke-opacity:1"
         id="path5611-6-1" />
      <path
         d="m 4.2190052,239.25437 c -30.1494122,-0.47306 -25.2044232,62.34844 -37.4825742,83.37683 1.429143,-0.91404 2.907175,-2.35406 3.870611,-4.14119 9.104822,-24.84251 7.102282,-78.10266 34.8718395,-77.66695 3.7025622,0.0581 7.9342875,1.07079 12.7923005,3.23268 4.330678,-5.75254 17.130315,-1.52344 24.230436,6.63403 -6.728971,-9.16153 -20.88967,-14.31387 -25.490312,-8.20273 -4.858013,-2.16189 -9.0897397,-3.17458 -12.7923008,-3.23267 z m 12.6136578,12.7948 c -0.0026,0 -0.01101,0.0333 -0.01544,0.0442 1.259993,2.14831 3.006312,5.74918 3.631862,6.33987 0.141196,0.13333 0.27305,0.22114 0.396436,0.26969 -1.318601,-2.29515 -3.426986,-6.65381 -4.012859,-6.65381 z m -17.63717465,0.51179 c -0.17241268,0.11005 -0.33935935,0.22417 -0.50450275,0.33946 1.12605245,3.25313 2.02508934,7.55788 2.25289128,7.66543 0.23355282,0.11027 0.45502982,-0.0288 0.66936352,-0.3353 -0.5653581,-2.14098 -1.43324608,-5.5809 -2.41775205,-7.66959 z m 24.72997765,0.32541 c -0.0039,0.007 -0.0075,0.15059 -0.01104,0.24574 1.252223,1.92256 3.174832,4.86812 4.555406,6.40338 -2.059725,-2.76966 -4.476232,-6.77781 -4.544377,-6.64912 z m -16.0371036,1.24694 c 1.0445546,1.99411 0.8512412,4.3616 2.6713796,5.63908 -0.8043896,-1.75138 -0.7584035,-4.05228 -2.6713796,-5.63908 z m 25.3905166,0.78513 c 0.02956,0.0557 0.05823,0.10567 0.08822,0.16452 5.466696,9.52197 -8.212011,71.22498 2.352916,34.78035 1.475639,-5.21614 2.824309,-11.04987 3.28706,-16.55578 0.495138,-5.89126 -0.02399,-11.40722 -2.487103,-15.38972 -0.508673,-0.99839 -2.849075,-2.80261 -3.241093,-2.99937 z m -36.6682099,42.75364 c 1.0882916,1.48241 2.339533,2.83407 3.71512465,3.97303 0.55246277,0.0434 1.04740875,0.0672 0.75758005,-0.11193 -1.64032549,-1.01386 -3.1457548,-2.34101 -4.4727047,-3.8611 z m 59.1750679,1.16104 c 3.184622,4.18229 7.118806,7.68809 11.730915,9.84797 0.637457,0.20064 2.620571,1.88572 3.949997,3.20716 0.0021,-0.0106 0.0053,-0.0208 0.0053,-0.0322 0,-0.55944 -4.229573,-4.43346 -5.214839,-4.74357 -4.022194,-1.88362 -7.527533,-4.79243 -10.471038,-8.27928 z m -68.575897,4.401 c -0.272556,0.81711 -0.760702,1.73293 -1.307841,2.65424 -0.0075,2.61952 0.06573,5.36225 0.889356,8.65881 0.295506,-0.11259 0.576491,-0.23785 0.848556,-0.3707 -0.592378,-3.34695 -0.467565,-6.15125 -0.467565,-8.94777 0,-0.45621 0.0144,-1.24394 0.03745,-1.99458 z m 69.742592,5.19654 c -0.125079,0.17045 0.332324,0.77834 1.848738,2.08882 -0.474913,-0.56891 -0.813536,-1.02405 -0.924644,-1.27818 -0.36425,-0.30753 -0.659759,-0.56954 -0.924094,-0.81064 z m 2.355446,2.67923 c 1.016486,1.55348 5.47895,6.1128 8.22366,8.56562 0.229067,-0.008 0.437241,-0.0265 0.616431,-0.0588 -1.308627,-0.75301 -6.319062,-5.63502 -8.840091,-8.50679 z m -79.900451,0.65653 c -0.02113,0.008 -0.04556,0.0583 -0.07383,0.16035 -0.04161,0.15006 -0.602855,1.46319 -1.359118,3.13792 -0.284122,2.57694 -0.600487,6.36954 0.315927,6.22794 0.246362,-0.0381 0.464684,-0.38017 0.656129,-0.85594 0.04033,-2.23887 0.479941,-5.3122 0.531518,-5.98167 0.05676,-0.7366 0.07693,-2.74501 -0.07053,-2.6886 z m -6.892655,6.8048 c -0.373491,1.12531 -0.968547,2.14981 -1.674503,3.04264 0.06413,0.50242 0.190602,0.93598 0.406353,1.23601 0.149962,0.20854 0.43403,0.0162 0.801695,-0.44255 -0.02059,-1.33096 0.249893,-2.89182 0.466455,-3.8361 z m 82.726766,3.69709 c 0.113309,0.16894 0.235026,0.35392 0.334678,0.49774 0.06136,0.0886 0.136286,0.18019 0.21338,0.27229 -0.119616,-0.25422 -0.322814,-0.51313 -0.548058,-0.77003 z"
         style="fill:#daaf07;fill-opacity:1;stroke:none;stroke-width:0.264583px;stroke-linecap:butt;stroke-linejoin:miter;stroke-opacity:1"
         id="path5611-6-4-2"
         sodipodi:nodetypes="ccccccccccscccccsccccccccccsccscsscccccccscccccccsccccccsccsscccscsccccscccscc" />
      <path
         id="path5611-6-0-0"
         style="fill:#deb200;fill-opacity:1;stroke:none;stroke-width:0.264583px;stroke-linecap:butt;stroke-linejoin:miter;stroke-opacity:1"
         d="m 4.2190052,239.25437 c -29.8180782,4.23559 -25.2044232,62.34844 -37.4825742,83.37683 1.807328,-1.15592 3.696152,-3.15109 4.51846,-5.62867 -0.351095,1.53091 -0.84528,4.68331 -0.0085,5.84735 5.652546,-20.91411 55.184408,3.55048 84.514303,1.06054 0.602119,-0.83738 -0.857708,-1.8661 -1.444583,-2.71307 -0.707191,-1.0206 -1.790329,-2.70354 -2.794339,-4.62487 -4.127697,-5.73794 -5.086865,-6.98726 1.600071,-1.97064 4.794513,3.50056 12.511011,5.46883 15.025897,5.01484 -1.695788,-0.9758 -9.62693,-8.90119 -10.271449,-10.37537 -4.771391,-4.02827 -0.514213,-2.10027 0.819342,-0.96685 1.180273,1.00317 12.775757,4.77365 12.775757,3.58152 0,-0.55944 -4.229575,-4.43347 -5.21484,-4.74358 -15.590661,-7.30119 -23.435722,-29.9805 -20.761286,-42.19085 5.056451,-16.42256 -21.801199,-31.31174 -28.484242,-22.43451 -3.216745,-3.33031 -8.0648578,-3.9042 -12.7923009,-3.23267 z"
         sodipodi:nodetypes="sccccsccccsscccs" />
      <path
         d="m 34.19137,250.48026 c 0,0 -44.0718125,1.01198 -44.773319,1.67439 -2.891384,2.73027 -1.594173,5.51366 -2.216501,9.62721 -0.871474,5.76037 -1.399474,13.85877 0.886601,19.25546 3.6659135,8.6541 11.27978119,18.33259 20.687342,21.75926 -0.3128933,2.97339 -0.7067989,7.63262 -4.0498009,7.37959 -3.4655789,-0.2623 -12.2092426,-1.61362 -15.4289421,-1.04234 -3.657891,0.50872 -5.735988,7.70404 -4.35967,10.3837 1.102643,2.14682 3.577066,3.31407 4.124236,5.66356 h 52.000656 c 0.766096,-1.36923 1.463017,-2.83296 2.104023,-3.92251 1.90377,-3.23591 3.330117,-8.31363 0.823744,-11.50569 -8.166177,1.30715 -20.025523,3.96652 -18.289441,-7.54151 12.057161,-5.49661 18.740844,-26.22069 16.027178,-37.08075 -1.604642,-5.30326 -2.992184,-10.85882 -7.536106,-14.65037 z"
         style="font-variation-settings:normal;vector-effect:none;fill:#ffcead;fill-opacity:1;stroke:none;stroke-width:0.31815px;stroke-linecap:butt;stroke-linejoin:miter;stroke-miterlimit:4;stroke-dasharray:none;stroke-dashoffset:0;stroke-opacity:1;stop-color:#000000"
         id="path5601-7" />
      <path
         d="m -7.6845079,248.29981 c -2.8913841,2.73026 -4.4916141,9.3685 -5.1139421,13.48205 -0.871474,5.76037 -1.399474,13.85877 0.886601,19.25546 3.6659135,8.6541 11.27978119,18.33259 20.687342,21.75926 -0.3128933,2.97339 -0.7067989,7.63262 -4.0498009,7.37959 -3.4655789,-0.2623 -12.2092426,-1.61362 -15.4289421,-1.04234 -3.657891,0.50872 -5.735988,7.70404 -4.35967,10.3837 1.102643,2.14682 3.577066,3.31407 4.124236,5.66356 h 7.4710417 c -0.9801977,-1.4154 -2.5748372,-2.47365 -3.4002891,-4.0808 -1.3763182,-2.67966 0.7017794,-9.87495 4.35967,-10.3837 3.21970593,-0.57129 11.9633632,0.78003 15.4289424,1.04234 3.343001,0.25303 3.736907,-4.40621 4.049801,-7.3796 -9.4075611,-3.42667 -17.02143193,-13.10519 -20.687343,-21.75925 -2.2860747,-5.3967 -1.7580743,-13.4951 -0.8866004,-19.25546 0.6223275,-4.11356 2.2225472,-10.75179 5.11394207,-13.48206 z m 51.6742469,61.45308 c -2.570172,0.41139 -5.50603,0.95621 -8.268872,1.15166 2.130591,1.75285 5.709172,1.85809 9.451007,1.47133 -0.193249,-0.95059 -0.569801,-1.84314 -1.182135,-2.62299 z"
         style="font-variation-settings:normal;vector-effect:none;fill:#fcc098;fill-opacity:1;stroke:none;stroke-width:0.31815px;stroke-linecap:butt;stroke-linejoin:miter;stroke-miterlimit:4;stroke-dasharray:none;stroke-dashoffset:0;stroke-opacity:1;stop-color:#000000"
         id="path5601-6-1" />
      <path
         sodipodi:nodetypes="cc"
         id="path5625-7"
         d="m 25.579764,302.4026 c -1.552416,12.06226 10.139403,8.58264 18.410186,7.35052"
         style="font-variation-settings:normal;vector-effect:none;fill:none;fill-opacity:1;stroke:#000000;stroke-width:0.264999;stroke-linecap:round;stroke-linejoin:round;stroke-miterlimit:4;stroke-dasharray:none;stroke-dashoffset:0;stroke-opacity:1;stop-color:#000000" />
      <path
         sodipodi:nodetypes="csc"
         id="path5627-1"
         d="m 8.5932056,302.8046 c -0.570361,2.10234 0.3217801,7.68878 -3.8672874,7.37172 -3.465579,-0.26229 -12.2095489,-1.61376 -15.4292592,-1.04248"
         style="font-variation-settings:normal;vector-effect:none;fill:none;fill-opacity:1;stroke:#000000;stroke-width:0.264999;stroke-linecap:round;stroke-linejoin:round;stroke-miterlimit:4;stroke-dasharray:none;stroke-dashoffset:0;stroke-opacity:1;stop-color:#000000" />
      <path
         style="font-variation-settings:normal;vector-effect:none;fill:#ff80b2;fill-opacity:1;stroke:none;stroke-width:0.264583px;stroke-linecap:butt;stroke-linejoin:miter;stroke-miterlimit:4;stroke-dasharray:none;stroke-dashoffset:0;stroke-opacity:1;stop-color:#000000"
         d="m 20.122495,291.25444 c -2.950958,-3.07403 -5.282239,0.98362 -4.703054,1.17656 -0.883119,-2.18504 -3.787843,-2.8852 -5.100035,-1.25122 0.794899,2.05805 3.359834,2.61358 5.398034,2.61133 2.19598,-0.002 2.856755,-1.07049 4.405055,-2.53667 z"
         id="path1329-1"
         sodipodi:nodetypes="cccsc" />
      <path
         sodipodi:nodetypes="sss"
         id="path5613-1-9"
         d="m 21.316122,272.96557 c -0.2585,4.52696 5.487915,4.98748 5.209843,-0.20308 -0.10246,-1.91261 -5.026551,-3.00681 -5.209843,0.20308 z"
         style="fill:#ffffff;stroke:none;stroke-width:0.264583px;stroke-linecap:butt;stroke-linejoin:miter;stroke-opacity:1" />
      <path
         style="fill:#ffffff;stroke:none;stroke-width:0.264583px;stroke-linecap:butt;stroke-linejoin:miter;stroke-opacity:1"
         d="m 4.2721901,273.04738 c -0.2585028,4.52696 5.4879156,4.98748 5.2098437,-0.20308 -0.1024604,-1.91261 -5.0265544,-3.00682 -5.2098437,0.20308 z"
         id="path5613-9-5-5"
         sodipodi:nodetypes="sss" />
      <path
         sodipodi:nodetypes="ssscssssss"
         d="m 7.6655144,271.10692 c -0.4072491,-0.0199 -0.8163291,0.14141 -1.1651876,0.39965 -0.6977138,0.51649 -1.1841967,1.43618 -0.9035,2.23135 0.029662,0.0839 0.084087,0.11669 0.1236588,0.17886 0.020976,0.23348 0.071113,0.46654 0.2647413,0.6307 0.2469795,0.20938 0.5950538,0.35888 0.9757814,0.44282 0.7614318,0.16788 1.6703413,0.081 2.1775307,-0.43048 0.2535936,-0.25574 0.3938523,-0.62003 0.3505186,-1.08134 -0.043308,-0.46132 0.2087023,-1.1688 -0.2494239,-1.84859 -0.2975867,-0.44157 -1.1668691,-0.50298 -1.5741193,-0.52297 z"
         style="color:#000000;font-style:normal;font-variant:normal;font-weight:normal;font-stretch:normal;font-size:medium;line-height:normal;font-family:sans-serif;font-variant-ligatures:normal;font-variant-position:normal;font-variant-caps:normal;font-variant-numeric:normal;font-variant-alternates:normal;font-variant-east-asian:normal;font-feature-settings:normal;font-variation-settings:normal;text-indent:0;text-align:start;text-decoration:none;text-decoration-line:none;text-decoration-style:solid;text-decoration-color:#000000;letter-spacing:normal;word-spacing:normal;text-transform:none;writing-mode:lr-tb;direction:ltr;text-orientation:mixed;dominant-baseline:auto;baseline-shift:baseline;text-anchor:start;white-space:normal;shape-padding:0;shape-margin:0;inline-size:0;clip-rule:nonzero;display:inline;overflow:visible;visibility:visible;isolation:auto;mix-blend-mode:normal;color-interpolation:sRGB;color-interpolation-filters:linearRGB;solid-color:#000000;solid-opacity:1;vector-effect:none;fill:#2c4d7f;fill-opacity:1;fill-rule:nonzero;stroke:none;stroke-width:0.264583px;stroke-linecap:butt;stroke-linejoin:miter;stroke-miterlimit:4;stroke-dasharray:none;stroke-dashoffset:0;stroke-opacity:1;color-rendering:auto;image-rendering:auto;shape-rendering:auto;text-rendering:auto;enable-background:accumulate;stop-color:#000000"
         id="path4747-1-8" />
      <path
         id="path4747-1-9-6"
         style="color:#000000;font-style:normal;font-variant:normal;font-weight:normal;font-stretch:normal;font-size:medium;line-height:normal;font-family:sans-serif;font-variant-ligatures:normal;font-variant-position:normal;font-variant-caps:normal;font-variant-numeric:normal;font-variant-alternates:normal;font-variant-east-asian:normal;font-feature-settings:normal;font-variation-settings:normal;text-indent:0;text-align:start;text-decoration:none;text-decoration-line:none;text-decoration-style:solid;text-decoration-color:#000000;letter-spacing:normal;word-spacing:normal;text-transform:none;writing-mode:lr-tb;direction:ltr;text-orientation:mixed;dominant-baseline:auto;baseline-shift:baseline;text-anchor:start;white-space:normal;shape-padding:0;shape-margin:0;inline-size:0;clip-rule:nonzero;display:inline;overflow:visible;visibility:visible;isolation:auto;mix-blend-mode:normal;color-interpolation:sRGB;color-interpolation-filters:linearRGB;solid-color:#000000;solid-opacity:1;vector-effect:none;fill:#2c4d7f;fill-opacity:1;fill-rule:nonzero;stroke:none;stroke-width:0.264583px;stroke-linecap:butt;stroke-linejoin:miter;stroke-miterlimit:4;stroke-dasharray:none;stroke-dashoffset:0;stroke-opacity:1;color-rendering:auto;image-rendering:auto;shape-rendering:auto;text-rendering:auto;enable-background:accumulate;stop-color:#000000"
         d="m 24.683225,270.95894 c -0.397777,-0.0174 -0.79734,0.12332 -1.138083,0.34853 -0.681491,0.45041 -1.156656,1.25246 -0.882489,1.94589 0.02897,0.0733 0.08214,0.10177 0.120783,0.15598 0.0205,0.20363 0.06945,0.40688 0.258585,0.55003 0.241234,0.1826 0.581214,0.31297 0.953083,0.38618 0.743724,0.1464 1.631495,0.0706 2.126887,-0.37542 0.247696,-0.22303 0.384691,-0.54072 0.342366,-0.94301 -0.0423,-0.4023 0.203846,-1.01928 -0.243623,-1.61211 -0.290665,-0.38509 -1.13973,-0.43864 -1.537509,-0.45607 z"
         sodipodi:nodetypes="ssscssssss" />
      <path
         style="font-variation-settings:normal;vector-effect:none;fill:none;fill-opacity:1;stroke:#000000;stroke-width:0.264999;stroke-linecap:round;stroke-linejoin:round;stroke-miterlimit:4;stroke-dasharray:none;stroke-dashoffset:0;stroke-opacity:1;stop-color:#000000"
         d="m 21.316118,272.96557 c -0.258499,4.52696 5.487917,4.98748 5.209847,-0.20308 -0.10246,-1.91261 -5.026554,-3.00681 -5.209847,0.20308 z"
         id="path5613-2"
         sodipodi:nodetypes="sss" />
      <path
         style="font-variation-settings:normal;vector-effect:none;fill:none;fill-opacity:1;stroke:#000000;stroke-width:0.264999;stroke-linecap:round;stroke-linejoin:round;stroke-miterlimit:4;stroke-dasharray:none;stroke-dashoffset:0;stroke-opacity:1;stop-color:#000000"
         d="m 18.940522,279.61159 c 0.685722,5.6525 -6.748483,4.54508 -5.388229,0.0418"
         id="path5621-6"
         sodipodi:nodetypes="cc" />
      <path
         style="font-variation-settings:normal;vector-effect:none;fill:none;fill-opacity:1;stroke:#000000;stroke-width:0.264999;stroke-linecap:round;stroke-linejoin:round;stroke-miterlimit:4;stroke-dasharray:none;stroke-dashoffset:0;stroke-opacity:1;stop-color:#000000"
         d="m 21.964329,289.81243 c -4.119057,4.12431 -11.274155,3.76774 -14.0761917,-1.26201"
         id="path5623-7"
         sodipodi:nodetypes="cc" />
      <path
         d="m -10.581949,308.45544 c -1.971149,0.59522 -2.54292,1.17501 -5.358198,2.61936 -7.512305,3.85409 -11.712221,8.77301 -14.353773,14.10629 h 26.5136517 c -4.4359757,-4.06185 -7.2160407,-9.81401 -6.8016807,-16.72565 z m 52.923095,1.44635 c -0.628389,-0.005 -1.336311,-0.003 -2.150334,0.003 0.600256,5.2689 -2.352891,10.97005 -6.752611,15.27722 h 29.443625 c -1.405637,-3.08983 -3.462443,-6.08703 -6.609804,-8.9816 -0.505101,-0.95392 -2.313236,-3.79784 -3.546401,-4.18599 -5.497967,-1.73052 -5.985736,-2.07866 -10.384475,-2.11171 z"
         style="fill:#ff80b2;stroke:none;stroke-width:0.264583px;stroke-linecap:butt;stroke-linejoin:miter;stroke-opacity:1"
         id="path5633-10" />
      <path
         d="m -10.581949,308.45544 c -1.97114,0.59522 -2.54292,1.17448 -5.358198,2.61883 -7.512483,3.85419 -11.712775,8.77344 -14.354324,14.10682 h 6.791754 c 3.856708,-6.23217 8.894613,-11.29078 12.920768,-16.72565 z m 52.923095,1.44635 c -0.628389,-0.005 -1.336309,-0.003 -2.150334,0.003 0.600264,5.26898 -2.352786,10.97002 -6.752611,15.27722 h 3.536479 c 7.399269,-6.73064 11.562582,-14.9905 5.366466,-15.2793 z"
         style="fill:#e478a4;fill-opacity:1;stroke:none;stroke-width:0.264583px;stroke-linecap:butt;stroke-linejoin:miter;stroke-opacity:1"
         id="path5633-1-4" />
      <path
         sodipodi:nodetypes="ccscccsscc"
         d="m -3.7802683,325.18109 c -4.4359731,-4.06185 -7.2160317,-9.81401 -6.8016807,-16.72565 -1.971149,0.59522 -2.542909,1.17501 -5.358198,2.61936 -7.431479,3.81261 -11.621216,8.74412 -14.267759,14.10629 m 93.105721,0 c -1.414016,-3.08887 -3.477021,-6.08572 -6.625793,-8.9816 -0.505101,-0.95392 -2.313236,-3.79784 -3.546401,-4.18599 -5.497967,-1.73051 -5.98574,-2.07865 -10.384475,-2.11171 -0.628389,-0.005 -1.336311,-0.003 -2.150334,0.003 0.600256,5.2689 -2.352891,10.97005 -6.752611,15.27722"
         style="font-variation-settings:normal;vector-effect:none;fill:none;fill-opacity:1;stroke:#000000;stroke-width:0.264999;stroke-linecap:round;stroke-linejoin:round;stroke-miterlimit:4;stroke-dasharray:none;stroke-dashoffset:0;stroke-opacity:1;stop-color:#000000"
         id="path5633-3-9" />
      <path
         sodipodi:nodetypes="cccssc"
         id="path5601-3-1"
         d="m 34.191241,250.48023 c 4.543922,3.79154 5.931404,9.3475 7.536046,14.65078 3.0941,12.38254 -6.027929,37.59064 -21.403294,38.42689 -14.5042361,3.424 -27.1573737,-10.53221 -32.235605,-22.52033 -2.286065,-5.3967 -1.758067,-13.49494 -0.886593,-19.25531 0.622327,-4.11356 -0.674908,-6.89738 2.216487,-9.62765"
         style="font-variation-settings:normal;vector-effect:none;fill:none;fill-opacity:1;stroke:#000000;stroke-width:0.264999;stroke-linecap:round;stroke-linejoin:round;stroke-miterlimit:4;stroke-dasharray:none;stroke-dashoffset:0;stroke-opacity:1;stop-color:#000000" />
      <path
         id="path5611-2-6"
         style="font-variation-settings:normal;opacity:1;vector-effect:none;fill:#ffcc00;fill-opacity:1;stroke:none;stroke-width:0.264583px;stroke-linecap:butt;stroke-linejoin:miter;stroke-miterlimit:4;stroke-dasharray:none;stroke-dashoffset:0;stroke-opacity:1;stop-color:#000000;stop-opacity:1"
         d="m 4.2190143,239.25437 c -30.1494193,-0.47306 -25.2044303,62.34844 -37.4825813,83.37683 1.807328,-1.15593 3.696152,-3.15109 4.51846,-5.62867 -0.351095,1.5309 -0.84528,4.68331 -0.0085,5.84734 0.909234,1.26445 6.68638,-11.98461 6.827048,-12.49179 0.226463,-0.81652 0.209317,1.68641 0.144457,2.52824 -0.08418,1.09304 -1.207344,8.60403 0.07223,8.40631 0.872914,-0.13488 1.408775,-4.02291 1.55321,-4.53793 0.693323,-2.47231 0.845526,-5.04028 1.806283,-7.45144 0.687284,-1.72484 3.466157,-5.13772 4.300117,-7.63784 -0.02305,0.75065 -0.03745,1.53838 -0.03745,1.99458 0,3.32039 -0.180178,6.64822 0.878878,10.88717 5.6782282,-2.16365 6.9553938,-8.12329 6.6621921,-15.63959 0.6435602,0.55285 1.2117074,0.97321 1.6337025,1.16884 1.1969293,0.55485 2.9868678,1.50726 4.2984731,1.50726 0.56619629,0 2.1713887,0.2423 1.6976685,-0.0505 -6.5507389,-4.87971 -8.0025555,-8.2396 -8.9272176,-15.03669 0.8565046,2.04831 7.46634287,4.78544 6.2966303,2.88024 -4.7469946,-3.04444 -5.9658612,-5.9345 -6.5639047,-9.23207 -1.8604741,-9.79597 -1.449608,-24.04523 6.0467158,-29.15234 1.4633279,3.10452 2.73132914,9.44283 3.00826888,9.57358 1.57503982,0.74363 2.61582012,-9.64798 4.43300902,-8.79002 4.4302002,2.09167 2.2935967,6.69386 5.7629021,8.33186 2.392557,1.12961 4.322107,-9.62722 4.433006,-9.62722 0.747035,0 3.975409,7.10213 4.876297,7.95283 2.231449,2.10708 2.16182,-7.01234 2.2165,-7.11563 0.103709,-0.19585 5.651766,9.20862 7.092807,9.20862 0.07469,-4.32758 1.118091,-10.33178 3.608705,-5.44333 5.700183,17.94449 -3.034966,34.26661 2.346068,51.64675 4.087665,9.27833 12.371255,13.90447 20.047766,17.18071 0.602121,-0.83738 -0.85772,-1.8661 -1.444592,-2.71307 -0.707194,-1.02061 -1.790323,-2.70354 -2.794333,-4.62488 -4.127696,-5.73794 -5.086865,-6.98725 1.600071,-1.97063 4.794504,3.50056 12.511005,5.46883 15.025889,5.01484 -1.695789,-0.9758 -9.626917,-8.90119 -10.271438,-10.37538 -4.771394,-4.02826 -0.514225,-2.10027 0.81933,-0.96685 1.180275,1.00318 12.775774,4.77366 12.775774,3.58153 0,-0.55944 -4.229592,-4.43347 -5.214857,-4.74358 C 50.665962,299.81122 42.820892,277.13191 45.495332,264.92157 50.551788,248.499 23.69413,233.60983 17.011089,242.48705 12.153079,240.32518 7.9213531,239.31248 4.2187912,239.25439 Z"
         sodipodi:nodetypes="sccsssssscsccsscccccssssssccccsccccsscccss" />
      <path
         style="font-variation-settings:normal;vector-effect:none;fill:none;fill-opacity:1;stroke:#000000;stroke-width:0.264999;stroke-linecap:round;stroke-linejoin:round;stroke-miterlimit:4;stroke-dasharray:none;stroke-dashoffset:0;stroke-opacity:1;stop-color:#000000"
         d="m 1.1024905,310.00174 c 2.0264167,15.31013 26.2411675,13.53672 29.9304265,1.22316"
         id="path1048-1" />
      <path
         id="path1050-17"
         style="font-variation-settings:normal;vector-effect:none;fill:#fbf89c;fill-opacity:1;stroke:none;stroke-width:0.139828px;stroke-linecap:butt;stroke-linejoin:miter;stroke-miterlimit:4;stroke-dasharray:none;stroke-dashoffset:0;stroke-opacity:1;paint-order:markers stroke fill;stop-color:#000000"
         d="m 32.534235,311.54252 a 1.8948701,1.7892776 0 0 1 -1.894868,1.78927 1.8948701,1.7892776 0 0 1 -1.894872,-1.78927 1.8948701,1.7892776 0 0 1 1.894872,-1.78928 1.8948701,1.7892776 0 0 1 1.894868,1.78928 z" />
      <path
         id="path1050-1-81"
         style="font-variation-settings:normal;vector-effect:none;fill:#fefbd3;fill-opacity:1;stroke:none;stroke-width:0.112401px;stroke-linecap:butt;stroke-linejoin:miter;stroke-miterlimit:4;stroke-dasharray:none;stroke-dashoffset:0;stroke-opacity:1;paint-order:markers stroke fill;stop-color:#000000"
         d="m 30.586312,310.0663 a 1.5231871,1.4383068 0 0 0 -1.523294,1.43824 1.5231871,1.4383068 0 0 0 0.514453,1.07751 1.5231871,1.4383068 0 0 1 -0.108891,-0.53324 1.5231871,1.4383068 0 0 1 1.523299,-1.4384 1.5231871,1.4383068 0 0 1 1.009037,0.36107 1.5231871,1.4383068 0 0 0 -1.414604,-0.90518 z" />
      <path
         d="m 31.021262,310.58718 a 0.527457,0.49806422 0 0 1 -0.527456,0.49806 0.527457,0.49806422 0 0 1 -0.527458,-0.49806 0.527457,0.49806422 0 0 1 0.527458,-0.49807 0.527457,0.49806422 0 0 1 0.527456,0.49807 z"
         style="font-variation-settings:normal;vector-effect:none;fill:#ffffff;fill-opacity:1;stroke:none;stroke-width:0.0389227px;stroke-linecap:butt;stroke-linejoin:miter;stroke-miterlimit:4;stroke-dasharray:none;stroke-dashoffset:0;stroke-opacity:1;paint-order:markers stroke fill;stop-color:#000000"
         id="path1050-8-96" />
      <path
         d="m 30.97299,314.28542 a 1.8948701,1.7892776 0 0 1 -1.894867,1.78928 1.8948701,1.7892776 0 0 1 -1.894872,-1.78928 1.8948701,1.7892776 0 0 1 1.894872,-1.78928 1.8948701,1.7892776 0 0 1 1.894867,1.78928 z"
         style="font-variation-settings:normal;vector-effect:none;fill:#fbf89c;fill-opacity:1;stroke:none;stroke-width:0.139828px;stroke-linecap:butt;stroke-linejoin:miter;stroke-miterlimit:4;stroke-dasharray:none;stroke-dashoffset:0;stroke-opacity:1;paint-order:markers stroke fill;stop-color:#000000"
         id="path1050-5-9" />
      <path
         d="m 29.025068,312.80921 a 1.5231871,1.4383068 0 0 0 -1.523295,1.43823 1.5231871,1.4383068 0 0 0 0.514454,1.07752 1.5231871,1.4383068 0 0 1 -0.108891,-0.53324 1.5231871,1.4383068 0 0 1 1.523299,-1.43841 1.5231871,1.4383068 0 0 1 1.009037,0.36107 1.5231871,1.4383068 0 0 0 -1.414604,-0.90517 z"
         style="font-variation-settings:normal;vector-effect:none;fill:#fefbd3;fill-opacity:1;stroke:none;stroke-width:0.112401px;stroke-linecap:butt;stroke-linejoin:miter;stroke-miterlimit:4;stroke-dasharray:none;stroke-dashoffset:0;stroke-opacity:1;paint-order:markers stroke fill;stop-color:#000000"
         id="path1050-1-9-5" />
      <path
         id="path1050-8-1-8"
         style="font-variation-settings:normal;vector-effect:none;fill:#ffffff;fill-opacity:1;stroke:none;stroke-width:0.0389227px;stroke-linecap:butt;stroke-linejoin:miter;stroke-miterlimit:4;stroke-dasharray:none;stroke-dashoffset:0;stroke-opacity:1;paint-order:markers stroke fill;stop-color:#000000"
         d="m 29.460018,313.33009 a 0.527457,0.49806422 0 0 1 -0.527457,0.49806 0.527457,0.49806422 0 0 1 -0.527457,-0.49806 0.527457,0.49806422 0 0 1 0.527457,-0.49807 0.527457,0.49806422 0 0 1 0.527457,0.49807 z" />
      <path
         d="m 28.805348,316.56506 a 1.8948701,1.7892776 0 0 1 -1.894867,1.78927 1.8948701,1.7892776 0 0 1 -1.894872,-1.78927 1.8948701,1.7892776 0 0 1 1.894872,-1.78928 1.8948701,1.7892776 0 0 1 1.894867,1.78928 z"
         style="font-variation-settings:normal;vector-effect:none;fill:#fbf89c;fill-opacity:1;stroke:none;stroke-width:0.139828px;stroke-linecap:butt;stroke-linejoin:miter;stroke-miterlimit:4;stroke-dasharray:none;stroke-dashoffset:0;stroke-opacity:1;paint-order:markers stroke fill;stop-color:#000000"
         id="path1050-54-9" />
      <path
         d="m 26.857426,315.08884 a 1.5231871,1.4383068 0 0 0 -1.523295,1.43824 1.5231871,1.4383068 0 0 0 0.514454,1.07751 1.5231871,1.4383068 0 0 1 -0.108891,-0.53324 1.5231871,1.4383068 0 0 1 1.523298,-1.43841 1.5231871,1.4383068 0 0 1 1.009038,0.36107 1.5231871,1.4383068 0 0 0 -1.414604,-0.90517 z"
         style="font-variation-settings:normal;vector-effect:none;fill:#fefbd3;fill-opacity:1;stroke:none;stroke-width:0.112401px;stroke-linecap:butt;stroke-linejoin:miter;stroke-miterlimit:4;stroke-dasharray:none;stroke-dashoffset:0;stroke-opacity:1;paint-order:markers stroke fill;stop-color:#000000"
         id="path1050-1-2-4" />
      <path
         id="path1050-8-4-0"
         style="font-variation-settings:normal;vector-effect:none;fill:#ffffff;fill-opacity:1;stroke:none;stroke-width:0.0389227px;stroke-linecap:butt;stroke-linejoin:miter;stroke-miterlimit:4;stroke-dasharray:none;stroke-dashoffset:0;stroke-opacity:1;paint-order:markers stroke fill;stop-color:#000000"
         d="m 27.292376,315.60972 a 0.527457,0.49806422 0 0 1 -0.527457,0.49806 0.527457,0.49806422 0 0 1 -0.527457,-0.49806 0.527457,0.49806422 0 0 1 0.527457,-0.49807 0.527457,0.49806422 0 0 1 0.527457,0.49807 z" />
      <path
         d="m 25.977811,318.50479 a 1.8948701,1.7892776 0 0 1 -1.894868,1.78927 1.8948701,1.7892776 0 0 1 -1.894871,-1.78927 1.8948701,1.7892776 0 0 1 1.894871,-1.78928 1.8948701,1.7892776 0 0 1 1.894868,1.78928 z"
         style="font-variation-settings:normal;vector-effect:none;fill:#fbf89c;fill-opacity:1;stroke:none;stroke-width:0.139828px;stroke-linecap:butt;stroke-linejoin:miter;stroke-miterlimit:4;stroke-dasharray:none;stroke-dashoffset:0;stroke-opacity:1;paint-order:markers stroke fill;stop-color:#000000"
         id="path1050-9-3" />
      <path
         d="m 24.029889,317.02857 a 1.5231871,1.4383068 0 0 0 -1.523295,1.43824 1.5231871,1.4383068 0 0 0 0.514453,1.07751 1.5231871,1.4383068 0 0 1 -0.108891,-0.53324 1.5231871,1.4383068 0 0 1 1.523299,-1.4384 1.5231871,1.4383068 0 0 1 1.009038,0.36107 1.5231871,1.4383068 0 0 0 -1.414604,-0.90518 z"
         style="font-variation-settings:normal;vector-effect:none;fill:#fefbd3;fill-opacity:1;stroke:none;stroke-width:0.112401px;stroke-linecap:butt;stroke-linejoin:miter;stroke-miterlimit:4;stroke-dasharray:none;stroke-dashoffset:0;stroke-opacity:1;paint-order:markers stroke fill;stop-color:#000000"
         id="path1050-1-7-0" />
      <path
         id="path1050-8-19-0"
         style="font-variation-settings:normal;vector-effect:none;fill:#ffffff;fill-opacity:1;stroke:none;stroke-width:0.0389227px;stroke-linecap:butt;stroke-linejoin:miter;stroke-miterlimit:4;stroke-dasharray:none;stroke-dashoffset:0;stroke-opacity:1;paint-order:markers stroke fill;stop-color:#000000"
         d="m 24.464838,317.54945 a 0.527457,0.49806422 0 0 1 -0.527456,0.49806 0.527457,0.49806422 0 0 1 -0.527458,-0.49806 0.527457,0.49806422 0 0 1 0.527458,-0.49807 0.527457,0.49806422 0 0 1 0.527456,0.49807 z" />
      <path
         d="m 22.860508,319.81012 a 1.8948701,1.7892776 0 0 1 -1.894868,1.78927 1.8948701,1.7892776 0 0 1 -1.894872,-1.78927 1.8948701,1.7892776 0 0 1 1.894872,-1.78928 1.8948701,1.7892776 0 0 1 1.894868,1.78928 z"
         style="font-variation-settings:normal;vector-effect:none;fill:#fbf89c;fill-opacity:1;stroke:none;stroke-width:0.139828px;stroke-linecap:butt;stroke-linejoin:miter;stroke-miterlimit:4;stroke-dasharray:none;stroke-dashoffset:0;stroke-opacity:1;paint-order:markers stroke fill;stop-color:#000000"
         id="path1050-85-8" />
      <path
         d="m 20.912586,318.33391 a 1.5231871,1.4383068 0 0 0 -1.523295,1.43823 1.5231871,1.4383068 0 0 0 0.514453,1.07752 1.5231871,1.4383068 0 0 1 -0.108891,-0.53324 1.5231871,1.4383068 0 0 1 1.523299,-1.43841 1.5231871,1.4383068 0 0 1 1.009038,0.36107 1.5231871,1.4383068 0 0 0 -1.414604,-0.90517 z"
         style="font-variation-settings:normal;vector-effect:none;fill:#fefbd3;fill-opacity:1;stroke:none;stroke-width:0.112401px;stroke-linecap:butt;stroke-linejoin:miter;stroke-miterlimit:4;stroke-dasharray:none;stroke-dashoffset:0;stroke-opacity:1;paint-order:markers stroke fill;stop-color:#000000"
         id="path1050-1-3-6" />
      <path
         id="path1050-8-5-7"
         style="font-variation-settings:normal;vector-effect:none;fill:#ffffff;fill-opacity:1;stroke:none;stroke-width:0.0389227px;stroke-linecap:butt;stroke-linejoin:miter;stroke-miterlimit:4;stroke-dasharray:none;stroke-dashoffset:0;stroke-opacity:1;paint-order:markers stroke fill;stop-color:#000000"
         d="m 21.347535,318.85479 a 0.527457,0.49806422 0 0 1 -0.527456,0.49806 0.527457,0.49806422 0 0 1 -0.527458,-0.49806 0.527457,0.49806422 0 0 1 0.527458,-0.49807 0.527457,0.49806422 0 0 1 0.527456,0.49807 z" />
      <path
         d="m 19.531914,320.49911 a 1.8948701,1.7892776 0 0 1 -1.894868,1.78927 1.8948701,1.7892776 0 0 1 -1.894871,-1.78927 1.8948701,1.7892776 0 0 1 1.894871,-1.78928 1.8948701,1.7892776 0 0 1 1.894868,1.78928 z"
         style="font-variation-settings:normal;vector-effect:none;fill:#fbf89c;fill-opacity:1;stroke:none;stroke-width:0.139828px;stroke-linecap:butt;stroke-linejoin:miter;stroke-miterlimit:4;stroke-dasharray:none;stroke-dashoffset:0;stroke-opacity:1;paint-order:markers stroke fill;stop-color:#000000"
         id="path1050-15-6" />
      <path
         d="m 17.583992,319.02289 a 1.5231871,1.4383068 0 0 0 -1.523295,1.43823 1.5231871,1.4383068 0 0 0 0.514453,1.07752 1.5231871,1.4383068 0 0 1 -0.108891,-0.53324 1.5231871,1.4383068 0 0 1 1.523299,-1.43841 1.5231871,1.4383068 0 0 1 1.009038,0.36107 1.5231871,1.4383068 0 0 0 -1.414604,-0.90517 z"
         style="font-variation-settings:normal;vector-effect:none;fill:#fefbd3;fill-opacity:1;stroke:none;stroke-width:0.112401px;stroke-linecap:butt;stroke-linejoin:miter;stroke-miterlimit:4;stroke-dasharray:none;stroke-dashoffset:0;stroke-opacity:1;paint-order:markers stroke fill;stop-color:#000000"
         id="path1050-1-4-5" />
      <path
         id="path1050-8-0-6"
         style="font-variation-settings:normal;vector-effect:none;fill:#ffffff;fill-opacity:1;stroke:none;stroke-width:0.0389227px;stroke-linecap:butt;stroke-linejoin:miter;stroke-miterlimit:4;stroke-dasharray:none;stroke-dashoffset:0;stroke-opacity:1;paint-order:markers stroke fill;stop-color:#000000"
         d="m 18.018941,319.54377 a 0.527457,0.49806422 0 0 1 -0.527456,0.49806 0.527457,0.49806422 0 0 1 -0.527457,-0.49806 0.527457,0.49806422 0 0 1 0.527457,-0.49807 0.527457,0.49806422 0 0 1 0.527456,0.49807 z" />
      <path
         d="m 15.949191,320.52874 a 1.8948701,1.7892776 0 0 1 -1.894868,1.78927 1.8948701,1.7892776 0 0 1 -1.894872,-1.78927 1.8948701,1.7892776 0 0 1 1.894872,-1.78928 1.8948701,1.7892776 0 0 1 1.894868,1.78928 z"
         style="font-variation-settings:normal;vector-effect:none;fill:#fbf89c;fill-opacity:1;stroke:none;stroke-width:0.139828px;stroke-linecap:butt;stroke-linejoin:miter;stroke-miterlimit:4;stroke-dasharray:none;stroke-dashoffset:0;stroke-opacity:1;paint-order:markers stroke fill;stop-color:#000000"
         id="path1050-7-2" />
      <path
         d="m 14.001269,319.05252 a 1.5231871,1.4383068 0 0 0 -1.523295,1.43824 1.5231871,1.4383068 0 0 0 0.514453,1.07751 1.5231871,1.4383068 0 0 1 -0.108891,-0.53324 1.5231871,1.4383068 0 0 1 1.523299,-1.43841 1.5231871,1.4383068 0 0 1 1.009038,0.36107 1.5231871,1.4383068 0 0 0 -1.414604,-0.90517 z"
         style="font-variation-settings:normal;vector-effect:none;fill:#fefbd3;fill-opacity:1;stroke:none;stroke-width:0.112401px;stroke-linecap:butt;stroke-linejoin:miter;stroke-miterlimit:4;stroke-dasharray:none;stroke-dashoffset:0;stroke-opacity:1;paint-order:markers stroke fill;stop-color:#000000"
         id="path1050-1-73-9" />
      <path
         id="path1050-8-11-9"
         style="font-variation-settings:normal;vector-effect:none;fill:#ffffff;fill-opacity:1;stroke:none;stroke-width:0.0389227px;stroke-linecap:butt;stroke-linejoin:miter;stroke-miterlimit:4;stroke-dasharray:none;stroke-dashoffset:0;stroke-opacity:1;paint-order:markers stroke fill;stop-color:#000000"
         d="m 14.436218,319.5734 a 0.527457,0.49806422 0 0 1 -0.527456,0.49806 0.527457,0.49806422 0 0 1 -0.527457,-0.49806 0.527457,0.49806422 0 0 1 0.527457,-0.49807 0.527457,0.49806422 0 0 1 0.527456,0.49807 z" />
      <path
         d="m 12.259633,320.23439 a 1.8948701,1.7892776 0 0 1 -1.894868,1.78927 1.8948701,1.7892776 0 0 1 -1.894872,-1.78927 1.8948701,1.7892776 0 0 1 1.894872,-1.78929 1.8948701,1.7892776 0 0 1 1.894868,1.78929 z"
         style="font-variation-settings:normal;vector-effect:none;fill:#fbf89c;fill-opacity:1;stroke:none;stroke-width:0.139828px;stroke-linecap:butt;stroke-linejoin:miter;stroke-miterlimit:4;stroke-dasharray:none;stroke-dashoffset:0;stroke-opacity:1;paint-order:markers stroke fill;stop-color:#000000"
         id="path1050-97-5" />
      <path
         d="m 10.31171,318.75817 a 1.5231871,1.4383068 0 0 0 -1.5232938,1.43823 1.5231871,1.4383068 0 0 0 0.5144532,1.07752 1.5231871,1.4383068 0 0 1 -0.108891,-0.53324 1.5231871,1.4383068 0 0 1 1.5232986,-1.43841 1.5231871,1.4383068 0 0 1 1.009038,0.36107 1.5231871,1.4383068 0 0 0 -1.414605,-0.90517 z"
         style="font-variation-settings:normal;vector-effect:none;fill:#fefbd3;fill-opacity:1;stroke:none;stroke-width:0.112401px;stroke-linecap:butt;stroke-linejoin:miter;stroke-miterlimit:4;stroke-dasharray:none;stroke-dashoffset:0;stroke-opacity:1;paint-order:markers stroke fill;stop-color:#000000"
         id="path1050-1-43-2" />
      <path
         id="path1050-8-2-2"
         style="font-variation-settings:normal;vector-effect:none;fill:#ffffff;fill-opacity:1;stroke:none;stroke-width:0.0389227px;stroke-linecap:butt;stroke-linejoin:miter;stroke-miterlimit:4;stroke-dasharray:none;stroke-dashoffset:0;stroke-opacity:1;paint-order:markers stroke fill;stop-color:#000000"
         d="m 10.74666,319.27905 a 0.527457,0.49806422 0 0 1 -0.527456,0.49806 0.527457,0.49806422 0 0 1 -0.5274571,-0.49806 0.527457,0.49806422 0 0 1 0.5274571,-0.49807 0.527457,0.49806422 0 0 1 0.527456,0.49807 z" />
      <path
         d="m 8.9990153,318.92676 a 1.8948701,1.7892776 0 0 1 -1.8948676,1.78927 1.8948701,1.7892776 0 0 1 -1.8948723,-1.78927 1.8948701,1.7892776 0 0 1 1.8948723,-1.78928 1.8948701,1.7892776 0 0 1 1.8948676,1.78928 z"
         style="font-variation-settings:normal;vector-effect:none;fill:#fbf89c;fill-opacity:1;stroke:none;stroke-width:0.139828px;stroke-linecap:butt;stroke-linejoin:miter;stroke-miterlimit:4;stroke-dasharray:none;stroke-dashoffset:0;stroke-opacity:1;paint-order:markers stroke fill;stop-color:#000000"
         id="path1050-2-8" />
      <path
         d="m 7.0510925,317.45055 a 1.5231871,1.4383068 0 0 0 -1.5232939,1.43823 1.5231871,1.4383068 0 0 0 0.5144532,1.07752 1.5231871,1.4383068 0 0 1 -0.108891,-0.53324 1.5231871,1.4383068 0 0 1 1.5232986,-1.43841 1.5231871,1.4383068 0 0 1 1.0090375,0.36107 1.5231871,1.4383068 0 0 0 -1.4146044,-0.90517 z"
         style="font-variation-settings:normal;vector-effect:none;fill:#fefbd3;fill-opacity:1;stroke:none;stroke-width:0.112401px;stroke-linecap:butt;stroke-linejoin:miter;stroke-miterlimit:4;stroke-dasharray:none;stroke-dashoffset:0;stroke-opacity:1;paint-order:markers stroke fill;stop-color:#000000"
         id="path1050-1-8-3" />
      <path
         id="path1050-8-9-0"
         style="font-variation-settings:normal;vector-effect:none;fill:#ffffff;fill-opacity:1;stroke:none;stroke-width:0.0389227px;stroke-linecap:butt;stroke-linejoin:miter;stroke-miterlimit:4;stroke-dasharray:none;stroke-dashoffset:0;stroke-opacity:1;paint-order:markers stroke fill;stop-color:#000000"
         d="m 7.4860427,317.97143 a 0.527457,0.49806422 0 0 1 -0.5274567,0.49806 0.527457,0.49806422 0 0 1 -0.5274567,-0.49806 0.527457,0.49806422 0 0 1 0.5274567,-0.49807 0.527457,0.49806422 0 0 1 0.5274567,0.49807 z" />
      <path
         d="m 6.1444091,316.96889 a 1.8948701,1.7892776 0 0 1 -1.8948676,1.78927 1.8948701,1.7892776 0 0 1 -1.8948723,-1.78927 1.8948701,1.7892776 0 0 1 1.8948723,-1.78928 1.8948701,1.7892776 0 0 1 1.8948676,1.78928 z"
         style="font-variation-settings:normal;vector-effect:none;fill:#fbf89c;fill-opacity:1;stroke:none;stroke-width:0.139828px;stroke-linecap:butt;stroke-linejoin:miter;stroke-miterlimit:4;stroke-dasharray:none;stroke-dashoffset:0;stroke-opacity:1;paint-order:markers stroke fill;stop-color:#000000"
         id="path1050-4-4" />
      <path
         d="m 4.1964864,315.49267 a 1.5231871,1.4383068 0 0 0 -1.5232939,1.43823 1.5231871,1.4383068 0 0 0 0.5144532,1.07752 1.5231871,1.4383068 0 0 1 -0.1088911,-0.53324 1.5231871,1.4383068 0 0 1 1.5232986,-1.43841 1.5231871,1.4383068 0 0 1 1.0090376,0.36107 1.5231871,1.4383068 0 0 0 -1.4146044,-0.90517 z"
         style="font-variation-settings:normal;vector-effect:none;fill:#fefbd3;fill-opacity:1;stroke:none;stroke-width:0.112401px;stroke-linecap:butt;stroke-linejoin:miter;stroke-miterlimit:4;stroke-dasharray:none;stroke-dashoffset:0;stroke-opacity:1;paint-order:markers stroke fill;stop-color:#000000"
         id="path1050-1-98-6" />
      <path
         id="path1050-8-13-0"
         style="font-variation-settings:normal;vector-effect:none;fill:#ffffff;fill-opacity:1;stroke:none;stroke-width:0.0389227px;stroke-linecap:butt;stroke-linejoin:miter;stroke-miterlimit:4;stroke-dasharray:none;stroke-dashoffset:0;stroke-opacity:1;paint-order:markers stroke fill;stop-color:#000000"
         d="m 4.6314365,316.01355 a 0.527457,0.49806422 0 0 1 -0.5274567,0.49806 0.527457,0.49806422 0 0 1 -0.5274567,-0.49806 0.527457,0.49806422 0 0 1 0.5274567,-0.49807 0.527457,0.49806422 0 0 1 0.5274567,0.49807 z" />
      <path
         d="m 4.067587,314.21236 a 1.8948701,1.7892776 0 0 1 -1.8948676,1.78927 1.8948701,1.7892776 0 0 1 -1.8948723,-1.78927 1.8948701,1.7892776 0 0 1 1.8948723,-1.78928 1.8948701,1.7892776 0 0 1 1.8948676,1.78928 z"
         style="font-variation-settings:normal;vector-effect:none;fill:#fbf89c;fill-opacity:1;stroke:none;stroke-width:0.139828px;stroke-linecap:butt;stroke-linejoin:miter;stroke-miterlimit:4;stroke-dasharray:none;stroke-dashoffset:0;stroke-opacity:1;paint-order:markers stroke fill;stop-color:#000000"
         id="path1050-6-0" />
      <path
         d="m 2.1196643,312.73614 a 1.5231871,1.4383068 0 0 0 -1.52329397,1.43824 1.5231871,1.4383068 0 0 0 0.51445317,1.07752 1.5231871,1.4383068 0 0 1 -0.108891,-0.53325 1.5231871,1.4383068 0 0 1 1.5232985,-1.4384 1.5231871,1.4383068 0 0 1 1.0090376,0.36107 1.5231871,1.4383068 0 0 0 -1.4146043,-0.90518 z"
         style="font-variation-settings:normal;vector-effect:none;fill:#fefbd3;fill-opacity:1;stroke:none;stroke-width:0.112401px;stroke-linecap:butt;stroke-linejoin:miter;stroke-miterlimit:4;stroke-dasharray:none;stroke-dashoffset:0;stroke-opacity:1;paint-order:markers stroke fill;stop-color:#000000"
         id="path1050-1-980-9" />
      <path
         id="path1050-8-3-8"
         style="font-variation-settings:normal;vector-effect:none;fill:#ffffff;fill-opacity:1;stroke:none;stroke-width:0.0389227px;stroke-linecap:butt;stroke-linejoin:miter;stroke-miterlimit:4;stroke-dasharray:none;stroke-dashoffset:0;stroke-opacity:1;paint-order:markers stroke fill;stop-color:#000000"
         d="m 2.5546144,313.25702 a 0.527457,0.49806422 0 0 1 -0.5274567,0.49806 0.527457,0.49806422 0 0 1 -0.5274567,-0.49806 0.527457,0.49806422 0 0 1 0.5274567,-0.49807 0.527457,0.49806422 0 0 1 0.5274567,0.49807 z" />
      <path
         d="m 2.6910767,310.97895 a 1.8948701,1.7892776 0 0 1 -1.89486761,1.78927 1.8948701,1.7892776 0 0 1 -1.89487229,-1.78927 1.8948701,1.7892776 0 0 1 1.89487229,-1.78928 1.8948701,1.7892776 0 0 1 1.89486761,1.78928 z"
         style="font-variation-settings:normal;vector-effect:none;fill:#fbf89c;fill-opacity:1;stroke:none;stroke-width:0.139828px;stroke-linecap:butt;stroke-linejoin:miter;stroke-miterlimit:4;stroke-dasharray:none;stroke-dashoffset:0;stroke-opacity:1;paint-order:markers stroke fill;stop-color:#000000"
         id="path1050-3-1" />
      <path
         d="m 0.74315393,309.50273 a 1.5231871,1.4383068 0 0 0 -1.5232939,1.43824 1.5231871,1.4383068 0 0 0 0.51445317,1.07752 1.5231871,1.4383068 0 0 1 -0.10889104,-0.53325 1.5231871,1.4383068 0 0 1 1.52329864,-1.4384 1.5231871,1.4383068 0 0 1 1.0090375,0.36107 1.5231871,1.4383068 0 0 0 -1.41460437,-0.90518 z"
         style="font-variation-settings:normal;vector-effect:none;fill:#fefbd3;fill-opacity:1;stroke:none;stroke-width:0.112401px;stroke-linecap:butt;stroke-linejoin:miter;stroke-miterlimit:4;stroke-dasharray:none;stroke-dashoffset:0;stroke-opacity:1;paint-order:markers stroke fill;stop-color:#000000"
         id="path1050-1-1-4" />
      <path
         id="path1050-8-00-4"
         style="font-variation-settings:normal;vector-effect:none;fill:#ffffff;fill-opacity:1;stroke:none;stroke-width:0.0389227px;stroke-linecap:butt;stroke-linejoin:miter;stroke-miterlimit:4;stroke-dasharray:none;stroke-dashoffset:0;stroke-opacity:1;paint-order:markers stroke fill;stop-color:#000000"
         d="m 1.1781041,310.02361 a 0.527457,0.49806422 0 0 1 -0.52745672,0.49806 0.527457,0.49806422 0 0 1 -0.52745668,-0.49806 0.527457,0.49806422 0 0 1 0.52745668,-0.49807 0.527457,0.49806422 0 0 1 0.52745672,0.49807 z" />
      <path
         sodipodi:nodetypes="sss"
         id="path5613-9-9"
         d="m 4.2721901,273.04738 c -0.2585028,4.52696 5.4879156,4.98748 5.2098437,-0.20308 -0.1024604,-1.91261 -5.0265544,-3.00681 -5.2098437,0.20308 z"
         style="font-variation-settings:normal;vector-effect:none;fill:none;fill-opacity:1;stroke:#000000;stroke-width:0.264999;stroke-linecap:round;stroke-linejoin:round;stroke-miterlimit:4;stroke-dasharray:none;stroke-dashoffset:0;stroke-opacity:1;stop-color:#000000" />
      <path
         id="path4747-0-4-0-0"
         style="color:#000000;font-style:normal;font-variant:normal;font-weight:normal;font-stretch:normal;font-size:medium;line-height:normal;font-family:sans-serif;font-variant-ligatures:normal;font-variant-position:normal;font-variant-caps:normal;font-variant-numeric:normal;font-variant-alternates:normal;font-variant-east-asian:normal;font-feature-settings:normal;font-variation-settings:normal;text-indent:0;text-align:start;text-decoration:none;text-decoration-line:none;text-decoration-style:solid;text-decoration-color:#000000;letter-spacing:normal;word-spacing:normal;text-transform:none;writing-mode:lr-tb;direction:ltr;text-orientation:mixed;dominant-baseline:auto;baseline-shift:baseline;text-anchor:start;white-space:normal;shape-padding:0;shape-margin:0;inline-size:0;clip-rule:nonzero;display:inline;overflow:visible;visibility:visible;isolation:auto;mix-blend-mode:normal;color-interpolation:sRGB;color-interpolation-filters:linearRGB;solid-color:#000000;solid-opacity:1;vector-effect:none;fill:#000000;fill-opacity:1;fill-rule:nonzero;stroke:none;stroke-width:0.111146px;stroke-linecap:butt;stroke-linejoin:miter;stroke-miterlimit:4;stroke-dasharray:none;stroke-dashoffset:0;stroke-opacity:1;color-rendering:auto;image-rendering:auto;shape-rendering:auto;text-rendering:auto;enable-background:accumulate;stop-color:#000000"
         d="m 8.1085686,272.00611 c -0.2090415,-0.0417 -0.4552357,0.009 -0.6892517,0.11442 -0.468034,0.21029 -0.9060319,0.64312 -0.9178752,1.07151 -0.00139,0.0452 0.020689,0.0662 0.028989,0.10102 -0.035626,0.12105 -0.05592,0.24413 0.01259,0.34304 0.087406,0.12617 0.2396623,0.22952 0.4220617,0.30185 0.3648032,0.14468 0.8575876,0.17044 1.2249589,-0.052 0.1836873,-0.11122 0.3297439,-0.28671 0.3991306,-0.52601 0.069385,-0.2393 0.066066,-0.54219 -0.03793,-0.92528 -0.067539,-0.24883 -0.2336831,-0.38688 -0.4427203,-0.42856 z" />
      <path
         d="m 25.127336,271.67083 c -0.209038,-0.0417 -0.455233,0.009 -0.689249,0.11443 -0.468037,0.21028 -0.906033,0.64312 -0.917878,1.0715 -0.0014,0.0452 0.02069,0.0662 0.02899,0.10102 -0.03563,0.12105 -0.05592,0.24413 0.01259,0.34305 0.08741,0.12617 0.239659,0.22952 0.422061,0.30186 0.364803,0.14466 0.857585,0.17042 1.224959,-0.052 0.183687,-0.11122 0.329744,-0.28671 0.399131,-0.52601 0.06938,-0.23929 0.06607,-0.54219 -0.03793,-0.92527 -0.06754,-0.24884 -0.233683,-0.38689 -0.44272,-0.42857 z"
         style="color:#000000;font-style:normal;font-variant:normal;font-weight:normal;font-stretch:normal;font-size:medium;line-height:normal;font-family:sans-serif;font-variant-ligatures:normal;font-variant-position:normal;font-variant-caps:normal;font-variant-numeric:normal;font-variant-alternates:normal;font-variant-east-asian:normal;font-feature-settings:normal;font-variation-settings:normal;text-indent:0;text-align:start;text-decoration:none;text-decoration-line:none;text-decoration-style:solid;text-decoration-color:#000000;letter-spacing:normal;word-spacing:normal;text-transform:none;writing-mode:lr-tb;direction:ltr;text-orientation:mixed;dominant-baseline:auto;baseline-shift:baseline;text-anchor:start;white-space:normal;shape-padding:0;shape-margin:0;inline-size:0;clip-rule:nonzero;display:inline;overflow:visible;visibility:visible;isolation:auto;mix-blend-mode:normal;color-interpolation:sRGB;color-interpolation-filters:linearRGB;solid-color:#000000;solid-opacity:1;vector-effect:none;fill:#000000;fill-opacity:1;fill-rule:nonzero;stroke:none;stroke-width:0.111146px;stroke-linecap:butt;stroke-linejoin:miter;stroke-miterlimit:4;stroke-dasharray:none;stroke-dashoffset:0;stroke-opacity:1;color-rendering:auto;image-rendering:auto;shape-rendering:auto;text-rendering:auto;enable-background:accumulate;stop-color:#000000"
         id="path4747-0-4-0-8-7" />
      <path
         style="font-variation-settings:normal;vector-effect:none;fill:none;fill-opacity:1;stroke:#000000;stroke-width:0.264999;stroke-linecap:round;stroke-linejoin:round;stroke-miterlimit:4;stroke-dasharray:none;stroke-dashoffset:0;stroke-opacity:1;stop-color:#000000"
         d="m 26.484691,271.74936 c 1.030471,-0.13507 1.533984,-0.80211 1.93169,-1.63174"
         id="path1467-3" />
      <path
         style="font-variation-settings:normal;vector-effect:none;fill:none;fill-opacity:1;stroke:#000000;stroke-width:0.264999;stroke-linecap:round;stroke-linejoin:round;stroke-miterlimit:4;stroke-dasharray:none;stroke-dashoffset:0;stroke-opacity:1;stop-color:#000000"
         d="m 25.1969,271.52051 c 0.740904,-1.47687 0.580579,-0.81387 0.729747,-1.92027"
         id="path1469-0" />
      <path
         style="font-variation-settings:normal;vector-effect:none;fill:none;fill-opacity:1;stroke:#000000;stroke-width:0.264999;stroke-linecap:round;stroke-linejoin:round;stroke-miterlimit:4;stroke-dasharray:none;stroke-dashoffset:0;stroke-opacity:1;stop-color:#000000"
         d="m 24.037883,270.77429 c 0.164554,-0.43446 0.329104,-0.86893 0.493658,-1.3034 0,-0.0729 0,-0.14592 0,-0.21889"
         id="path1471-5" />
      <path
         style="font-variation-settings:normal;vector-effect:none;fill:none;fill-opacity:1;stroke:#000000;stroke-width:0.264999;stroke-linecap:round;stroke-linejoin:round;stroke-miterlimit:4;stroke-dasharray:none;stroke-dashoffset:0;stroke-opacity:1;stop-color:#000000"
         d="m 22.857407,270.93349 c 0.03578,-0.43115 0.07155,-0.8623 0.107317,-1.29345 -0.06439,-0.0398 -0.128781,-0.0796 -0.193168,-0.1194"
         id="path1473-8" />
      <path
         style="font-variation-settings:normal;vector-effect:none;fill:none;fill-opacity:1;stroke:#000000;stroke-width:0.264999;stroke-linecap:round;stroke-linejoin:round;stroke-miterlimit:4;stroke-dasharray:none;stroke-dashoffset:0;stroke-opacity:1;stop-color:#000000"
         d="m 9.3141195,271.50061 c 0.4534336,-1.2833 0.3864892,-0.74908 0.4292658,-1.56208"
         id="path1475-2" />
      <path
         style="font-variation-settings:normal;vector-effect:none;fill:none;fill-opacity:1;stroke:#000000;stroke-width:0.264999;stroke-linecap:round;stroke-linejoin:round;stroke-miterlimit:4;stroke-dasharray:none;stroke-dashoffset:0;stroke-opacity:1;stop-color:#000000"
         d="m 7.3180419,270.70464 c 0.050083,-0.4643 0.1001558,-0.92862 0.1502401,-1.39294 -0.014308,0 -0.028616,0 -0.042924,0"
         id="path1477-2" />
      <path
         style="font-variation-settings:normal;vector-effect:none;fill:none;fill-opacity:1;stroke:#000000;stroke-width:0.264999;stroke-linecap:round;stroke-linejoin:round;stroke-miterlimit:4;stroke-dasharray:none;stroke-dashoffset:0;stroke-opacity:1;stop-color:#000000"
         d="m 5.8585421,270.98324 c -0.035775,-0.6401 -0.07154,-1.28019 -0.1073162,-1.92028 -0.035765,-0.0331 -0.07154,-0.0663 -0.1073173,-0.0994"
         id="path1479-7" />
      <path
         style="font-variation-settings:normal;vector-effect:none;fill:none;fill-opacity:1;stroke:#000000;stroke-width:0.264999;stroke-linecap:round;stroke-linejoin:round;stroke-miterlimit:4;stroke-dasharray:none;stroke-dashoffset:0;stroke-opacity:1;stop-color:#000000"
         d="m 4.6566019,271.63991 c -0.293322,-1.22376 0.032212,-0.63107 -1.2448663,-1.62178"
         id="path1481-4" />
      <path
         style="font-variation-settings:normal;vector-effect:none;fill:none;fill-opacity:1;stroke:#000000;stroke-width:0.264999;stroke-linecap:round;stroke-linejoin:round;stroke-miterlimit:4;stroke-dasharray:none;stroke-dashoffset:0;stroke-opacity:1;stop-color:#000000"
         d="m 30.219291,268.71473 c -2.226302,-4.17203 -5.181919,-2.2263 -8.628211,-1.86058"
         id="path1483-9" />
      <path
         d="m 4.2188078,239.25422 c -30.1494188,-0.47306 -25.2044238,62.34844 -37.4825758,83.37683 1.807329,-1.15593 3.696155,-3.1511 4.518465,-5.62867 -0.351095,1.5309 -0.845016,4.68331 -0.0083,5.84734 0.45338,0.6305 2.117462,-2.34765 3.689206,-5.55527 8.935384,-24.47214 7.163712,-76.35472 33.548565,-77.58519 -1.4948891,-0.28426 -2.9158098,-0.43388 -4.2653874,-0.45504 z m 18.9251682,0.57895 c -1.89283,0.0207 -3.570133,0.47109 -4.867477,1.41615 1.376842,0.45283 2.809015,1.00773 4.301222,1.67179 1.101178,-1.46272 2.752225,-2.27636 4.715855,-2.54804 -1.446001,-0.36424 -2.848445,-0.55416 -4.1496,-0.5399 z m -2.004774,11.08137 c -0.06161,0 -0.685389,3.31759 -1.637013,6.07486 0.399819,0.70418 0.73757,1.24627 0.946701,1.44374 1.646314,1.55456 2.037808,-2.98878 2.153092,-5.52662 -0.650214,-1.14083 -1.205274,-1.99198 -1.46278,-1.99198 z m -17.6371725,0.51179 c -1.6141273,1.09967 -2.89796839,2.62524 -3.90313641,4.43691 0.67842202,2.42779 1.18318397,4.62616 1.34478704,4.70246 1.17403177,0.5543 2.05161407,-5.07397 3.17477817,-7.62274 -0.2000184,-0.55222 -0.4059623,-1.07011 -0.6164288,-1.51663 z m 24.7299755,0.3254 c -0.03844,0.0726 -0.01662,4.59646 -0.774673,6.54813 0.976244,1.28185 1.844711,2.22626 2.300861,2.22626 0.03214,-1.86192 0.244884,-4.02993 0.673772,-5.51152 -1.201727,-1.81923 -2.157756,-3.34257 -2.19996,-3.26287 z m -17.53903,0.40922 c -0.7686204,0.0649 -1.3985318,2.10491 -2.0020172,4.21201 0.4206506,1.52148 0.8079331,2.95993 2.4486272,3.73458 1.127743,0.53244 2.149381,-1.57939 2.92942,-3.95742 -0.443612,-1.48945 -1.090928,-2.97953 -3.125709,-3.94022 -0.08518,-0.0402 -0.168418,-0.0558 -0.250321,-0.049 z m 26.636609,1.53591 c -1.347685,-0.17079 -1.948758,4.01781 -2.004776,7.26349 -0.159172,0 -0.370462,-0.11997 -0.616982,-0.32384 2.691635,15.80005 -3.815772,30.52203 1.005145,46.09305 4.087663,9.27833 12.371247,13.90447 20.047757,17.18071 0.602119,-0.83738 -0.857713,-1.8661 -1.444586,-2.71307 -0.09748,-0.14069 -0.216939,-0.32206 -0.327514,-0.48681 -5.172873,-3.04839 -9.918745,-7.2131 -12.709041,-13.54661 -5.381037,-17.38015 3.354113,-33.70227 -2.346073,-51.64675 -0.622651,-1.22212 -1.154701,-1.76325 -1.60393,-1.82017 z m -39.2623921,35.42143 c 0.055774,0.30723 0.1158252,0.60491 0.177539,0.89811 0.3473877,-0.0281 0.463865,-0.22291 0.2078663,-0.63987 -0.1345981,-0.0863 -0.2564165,-0.17215 -0.3854053,-0.25824 z m 0.96765034,10.79294 c 0.0158935,0.56027 0.0216241,1.111 0.0176433,1.65199 0.11346512,0.0121 0.22541141,0.0204 0.33302722,0.0204 0.56619341,0 2.17138304,0.24228 1.69766284,-0.0505 -0.74991749,-0.55863 -1.42520317,-1.09559 -2.04833389,-1.62181 z m -7.51845944,2.18826 c -0.8339596,2.50011 -3.6128378,5.91299 -4.3001228,7.63783 -0.375023,0.94117 -0.625869,1.90625 -0.834771,2.8802 0.110654,0.62391 0.243447,1.2642 0.409667,1.9295 2.221967,-0.84666 3.7674931,-2.27659 4.8112397,-4.15161 -0.189201,-2.2403 -0.123506,-4.27269 -0.123506,-6.30134 0,-0.45621 0.014447,-1.24393 0.037493,-1.99458 z m 69.9372232,5.14187 c -0.500002,-0.034 -0.247253,0.54575 1.989339,2.434 0.06982,0.15971 0.23893,0.4067 0.462597,0.70079 3.547663,1.16149 7.565877,2.18178 7.565877,1.47966 0,-0.0913 -0.12107,-0.27659 -0.313729,-0.51439 -3.065884,-0.92156 -6.301066,-2.12772 -6.895414,-2.63289 -0.708449,-0.60213 -2.241999,-1.42872 -2.80867,-1.46717 z m -7.526177,4.65923 c -0.47125,0.0695 0.802778,1.82828 3.044654,4.94403 4.353172,2.06125 9.264952,3.11682 11.175687,2.7719 -0.158235,-0.0911 -0.385409,-0.25906 -0.641241,-0.46025 -2.959792,-0.86351 -6.292432,-2.27638 -8.818035,-4.12036 -2.925535,-2.19478 -4.387604,-3.19039 -4.761065,-3.13532 z"
         style="font-variation-settings:normal;opacity:1;vector-effect:none;fill:#deb200;fill-opacity:1;stroke:none;stroke-width:0.264583px;stroke-linecap:butt;stroke-linejoin:miter;stroke-miterlimit:4;stroke-dasharray:none;stroke-dashoffset:0;stroke-opacity:1;stop-color:#000000;stop-opacity:1"
         id="path5611-2-6-5" />
      <path
         style="font-variation-settings:normal;vector-effect:none;fill:none;fill-opacity:1;stroke:#000000;stroke-width:0.264999;stroke-linecap:round;stroke-linejoin:round;stroke-miterlimit:4;stroke-dasharray:none;stroke-dashoffset:0;stroke-opacity:1;stop-color:#000000"
         d="m 9.2497293,267.19244 c -2.9577207,-1.25702 -7.1917297,-3.827 -9.27210799,0.99496"
         id="path1485-2" />
      <path
         id="path5611-2"
         style="font-variation-settings:normal;vector-effect:none;fill:none;fill-opacity:1;stroke:#000000;stroke-width:0.264999;stroke-linecap:round;stroke-linejoin:round;stroke-miterlimit:4;stroke-dasharray:none;stroke-dashoffset:0;stroke-opacity:1;stop-color:#000000"
         d="m 4.2190052,239.25437 c -30.1494122,-0.47306 -25.2044232,62.34844 -37.4825742,83.37683 1.807328,-1.15593 3.696152,-3.15109 4.51846,-5.62867 -0.351095,1.5309 -0.84528,4.68331 -0.0085,5.84734 0.909234,1.26445 6.68638,-11.98461 6.827048,-12.49179 0.226463,-0.81652 0.209317,1.68641 0.144456,2.52824 -0.08418,1.09304 -1.207343,8.60403 0.07223,8.40631 0.872914,-0.13488 1.408775,-4.02291 1.55321,-4.53793 0.693323,-2.47231 0.845525,-5.04028 1.806283,-7.45144 0.687284,-1.72484 3.466157,-5.13772 4.300117,-7.63784 -0.02305,0.75065 -0.03745,1.53838 -0.03745,1.99458 0,3.32039 -0.180178,6.64822 0.878879,10.88717 5.6782279,-2.16365 6.9553933,-8.12329 6.6621919,-15.63959 0.6435601,0.55285 1.2117072,0.97321 1.6337017,1.16884 1.1969298,0.55485 2.9868669,1.50726 4.29846852,1.50726 0.56619032,0 2.17139138,0.2423 1.69766298,-0.0505 -6.5507366,-4.87971 -8.0025473,-8.2396 -8.9272069,-15.03669 0.8565008,2.04832 7.46633769,4.78544 6.2966274,2.88024 -4.7469914,-3.04444 -5.9658581,-5.9345 -6.5639052,-9.23207 -1.8604747,-9.79596 -1.4496043,-24.04523 6.0467176,-29.15234 1.46332166,3.10452 2.73132823,9.44283 3.00827021,9.57358 1.57503159,0.74363 2.61581239,-9.64798 4.43300399,-8.79002 4.4302,2.09167 2.2935906,6.69386 5.7629018,8.33186 2.392562,1.12961 4.322102,-9.62722 4.433001,-9.62722 0.747035,0 3.975408,7.10213 4.876303,7.95283 2.231442,2.10708 2.16181,-7.01234 2.2165,-7.11563 0.103709,-0.19585 5.651768,9.20862 7.092803,9.20862 0.07465,-4.32758 1.118097,-10.33178 3.608709,-5.44333 5.700179,17.9445 -3.034966,34.26661 2.34607,51.64675 4.087657,9.27833 12.371251,13.90447 20.047757,17.18071 0.602119,-0.83738 -0.857715,-1.8661 -1.444586,-2.71307 -0.707195,-1.02061 -1.790325,-2.70354 -2.794335,-4.62488 -4.127699,-5.73794 -5.086866,-6.98725 1.600071,-1.97063 4.794509,3.50056 12.511007,5.46883 15.025893,5.01484 -1.695788,-0.9758 -9.626922,-8.90119 -10.271442,-10.37538 -4.771395,-4.02826 -0.514223,-2.10027 0.819331,-0.96684 1.180277,1.00317 12.775767,4.77365 12.775767,3.58152 0,-0.55944 -4.229583,-4.43347 -5.21485,-4.74358 -15.590608,-7.30123 -23.435669,-29.98054 -20.761232,-42.19088 5.05645,-16.42257 -21.8012,-31.31174 -28.484243,-22.43451 -4.858013,-2.16188 -9.0897398,-3.17458 -12.7923009,-3.23267 z"
         sodipodi:nodetypes="sccsssssscsccsscccccssssssccccsccccsscccss" />
      <path
         style="fill:#fff2bd;fill-opacity:1;stroke:none;stroke-width:0.264583px;stroke-linecap:butt;stroke-linejoin:miter;stroke-opacity:1"
         d="m 24.581411,236.15135 c -1.320216,-7.20502 2.527178,-12.00209 2.527178,-14.01061 -2.67776,-0.83718 -6.647271,10.56116 -7.092744,10.20037 -1.018309,-0.96155 -3.308125,-10.61897 -5.31956,-10.61897 -0.208719,0 -2.473764,12.52831 -3.723099,9.89003 -0.253024,-0.53433 -3.6854715,-6.08056 -5.2442543,-7.78357 -3.1317893,-4.57165 -2.752103,-2.21422 -1.8907224,0.87319 1.5130634,4.33728 2.0277802,5.74444 1.6791127,10.27967 -0.7015058,3.49557 -0.6025225,4.56165 2.2339271,6.3663 3.3702199,2.13617 7.4970499,3.98508 14.8266319,1.57327 5.341458,-1.19764 2.70079,-3.10671 2.00353,-6.76968 z"
         id="path5609-5"
         sodipodi:nodetypes="cccsscccccc" />
      <path
         transform="matrix(-0.07652912,0.43861111,-0.46449533,-0.0722645,81.128927,269.75618)"
         sodipodi:type="star"
         style="font-variation-settings:normal;vector-effect:none;fill:#fbed3e;fill-opacity:1;stroke:none;stroke-width:0.149868px;stroke-linecap:butt;stroke-linejoin:miter;stroke-miterlimit:4;stroke-dasharray:none;stroke-dashoffset:0;stroke-opacity:1;paint-order:markers stroke fill;stop-color:#000000"
         id="path2826-1-51-9-0-4-0"
         sodipodi:sides="4"
         sodipodi:cx="115.51156"
         sodipodi:cy="95.939255"
         sodipodi:r1="13.099477"
         sodipodi:r2="0.42057455"
         sodipodi:arg1="0.92955255"
         sodipodi:arg2="1.5344129"
         inkscape:flatsided="false"
         inkscape:rounded="0"
         inkscape:randomized="0"
         d="m 123.34757,106.43655 -7.82071,-10.076999 -10.5126,7.415709 10.077,-7.820707 -7.41571,-10.512595 7.82071,10.077001 10.5126,-7.415714 -10.07701,7.820711 z" />
      <path
         sodipodi:nodetypes="sccccccccscccccsccs"
         d="m 3.4476411,221.27187 c -0.4623802,0.0208 -0.1210758,1.59685 0.3903676,3.43 1.5130645,4.33728 2.0281355,5.74435 1.6794691,10.27957 -0.7015026,3.49558 -0.6028533,4.56178 2.2335931,6.36643 1.1555242,0.73241 2.4049731,1.42582 3.8369741,1.93055 -0.554628,-0.29697 -1.086601,-0.61154 -1.5978668,-0.9356 -2.8364465,-1.80465 -2.9356474,-2.87086 -2.2341437,-6.36642 0.3486664,-4.53523 -0.1658552,-5.94229 -1.6789154,-10.27959 -0.2177383,-0.78041 -0.4038732,-1.51325 -0.511119,-2.10026 -1.1634944,-1.67259 -1.8165205,-2.33829 -2.118359,-2.32468 z m 11.2484689,0.45035 c -0.723731,3.00374 -1.262812,6.62482 -2.247433,8.53544 l -0.67496,1.55387 c 1.562765,-1.01632 3.421848,-6.93799 3.964853,-9.25961 -0.630487,-1.30801 -0.41933,-0.8297 -1.04246,-0.8297 z m 12.157671,0.37539 c -1.940142,-0.0675 -4.972245,6.75308 -6.361232,9.69665 2.388258,-4.26612 4.010289,-6.65301 6.615966,-9.65344 -0.08368,-0.0262 -0.168677,-0.0402 -0.254734,-0.0432 z"
         style="fill:#f6e189;fill-opacity:1;stroke:none;stroke-width:0.264583px;stroke-linecap:butt;stroke-linejoin:miter;stroke-opacity:1"
         id="path5609-6-5" />
      <path
         sodipodi:nodetypes="cccsscccccc"
         id="path5609-2-5"
         d="m 24.581411,236.15135 c -1.320216,-7.20502 2.527178,-12.00209 2.527178,-14.01061 -2.67776,-0.83718 -6.647268,10.56116 -7.092744,10.20037 -1.018309,-0.96155 -3.308125,-10.61897 -5.31956,-10.61897 -0.208719,0 -2.473764,12.52831 -3.723097,9.89003 -0.253026,-0.53433 -3.6854735,-6.08057 -5.2442563,-7.78357 -3.1317893,-4.57165 -2.752103,-2.21422 -1.8907192,0.87319 1.5130634,4.33728 2.027777,5.74444 1.6791095,10.27967 -0.7015058,3.49557 -0.6025225,4.56165 2.2339271,6.36629 3.3702199,2.13617 7.4970499,3.98509 14.8266319,1.57328 5.341458,-1.19764 2.70079,-3.10671 2.00353,-6.76968 z"
         style="font-variation-settings:normal;vector-effect:none;fill:none;fill-opacity:1;stroke:#000000;stroke-width:0.264999;stroke-linecap:round;stroke-linejoin:round;stroke-miterlimit:4;stroke-dasharray:none;stroke-dashoffset:0;stroke-opacity:1;stop-color:#000000" />
      <path
         transform="matrix(1.0369358,0.23733833,-0.25134462,0.9791521,-90.064257,116.39757)"
         sodipodi:type="star"
         style="font-variation-settings:normal;vector-effect:none;fill:#fefbd3;fill-opacity:1;stroke:none;stroke-width:0.108411px;stroke-linecap:butt;stroke-linejoin:miter;stroke-miterlimit:4;stroke-dasharray:none;stroke-dashoffset:0;stroke-opacity:1;paint-order:markers stroke fill;stop-color:#000000"
         id="path2826-1-51-9-0-6-4"
         sodipodi:sides="4"
         sodipodi:cx="115.51156"
         sodipodi:cy="95.939255"
         sodipodi:r1="13.099477"
         sodipodi:r2="0.42057455"
         sodipodi:arg1="0.92955255"
         sodipodi:arg2="1.5344129"
         inkscape:flatsided="false"
         inkscape:rounded="0"
         inkscape:randomized="0"
         d="m 123.34757,106.43655 -7.82071,-10.076999 -10.5126,7.415709 10.077,-7.820707 -7.41571,-10.512595 7.82071,10.077001 10.5126,-7.415714 -10.07701,7.820711 z" />
      <path
         inkscape:randomized="0"
         inkscape:rounded="0"
         inkscape:flatsided="false"
         sodipodi:arg2="1.5344129"
         sodipodi:arg1="0.92955255"
         sodipodi:r2="0.42057455"
         sodipodi:r1="13.099477"
         sodipodi:cy="95.939255"
         sodipodi:cx="115.51156"
         sodipodi:sides="4"
         id="path2826-1-51-9-0-46"
         style="font-variation-settings:normal;vector-effect:none;fill:#fefbd3;fill-opacity:1;stroke:none;stroke-width:0.149868px;stroke-linecap:butt;stroke-linejoin:miter;stroke-miterlimit:4;stroke-dasharray:none;stroke-dashoffset:0;stroke-opacity:1;paint-order:markers stroke fill;stop-color:#000000"
         sodipodi:type="star"
         transform="matrix(0.35803125,0.64564504,-0.68374717,0.33807979,49.201343,121.9078)"
         d="m 123.34757,106.43655 -7.82071,-10.076999 -10.5126,7.415709 10.077,-7.820707 -7.41571,-10.512595 7.82071,10.077001 10.5126,-7.415714 -10.07701,7.820711 z" />
      <path
         sodipodi:nodetypes="ssscs"
         id="path1820-6"
         d="m -10.239169,295.10899 c 0.05185,0.98661 -0.917162,10.7383 -1.502423,10.467 -0.495956,-0.22991 0.429261,-6.69118 0.429261,-7.28312 0,-8.46628 -2.790215,-17.7495 -3.326802,-25.62025 2.488958,7.18227 3.998039,14.79718 4.399964,22.43637 z"
         style="fill:#ffde59;fill-opacity:1;stroke:none;stroke-width:0.264583px;stroke-linecap:butt;stroke-linejoin:miter;stroke-opacity:1" />
      <path
         sodipodi:nodetypes="ssssssscs"
         id="path1822-0"
         d="m 40.113532,285.29867 c -0.174995,3.54621 -0.514464,7.4053 -0.171703,10.96448 0.356478,3.70159 1.293293,7.18483 1.974614,10.78538 0.333834,1.7642 1.221783,4.24053 1.416573,3.99974 0.210122,-0.25975 -0.988069,-20.78165 -0.686823,-25.94859 0.196684,-3.37354 0.523501,-6.73915 0.772676,-10.0889 0.170453,-2.29151 0.757226,-4.71771 0.815601,-4.63653 0.102834,0.14301 -2.286666,4.43384 -2.704364,4.84546 -1.525742,2.46988 -1.230981,6.31806 -1.416574,10.07896 z"
         style="fill:#ffde59;fill-opacity:1;stroke:none;stroke-width:0.264583px;stroke-linecap:butt;stroke-linejoin:miter;stroke-opacity:1" />
      <path
         sodipodi:nodetypes="cscsc"
         id="path1824-1"
         d="m 46.638352,289.01982 c -0.519628,5.79471 3.140019,9.20444 6.911155,12.75541 0.250671,0.23604 3.303947,2.86678 3.348257,2.82569 0.339007,-0.3143 -3.007201,-1.8879 -5.279948,-4.25843 -2.886085,-3.01026 -2.193478,-8.79839 -4.979464,-11.32267 z"
         style="fill:#ffde59;fill-opacity:1;stroke:none;stroke-width:0.264583px;stroke-linecap:butt;stroke-linejoin:miter;stroke-opacity:1" />
      <path
         sodipodi:nodetypes="sssscss"
         id="path1826-0"
         d="m 25.389768,245.00274 c 3.335057,0.74398 6.350011,2.32635 8.75699,4.63652 1.753079,1.68256 4.08089,4.90014 4.678981,7.30301 0.261451,1.05039 0.04292,2.2145 0.04292,3.28338 v 0.67657 c 0,-8.43584 -3.420552,-16.25815 -13.478898,-15.89948 z"
         style="fill:#ffde59;fill-opacity:1;stroke:none;stroke-width:0.264583px;stroke-linecap:butt;stroke-linejoin:miter;stroke-opacity:1" />
      <path
         sodipodi:nodetypes="sssssss"
         id="path1828-8"
         d="m 2.5958333,244.02768 c -2.96384612,-0.89704 -4.9557156,0.64699 -7.297486,1.97002 -4.8429664,2.73613 -11.3488583,9.72045 -8.1560253,15.64079 0.395321,0.73304 0.04289,-1.64489 0.04289,-2.4675 0,-1.87246 0.494484,-3.25453 1.674129,-4.67632 2.5762355,-3.10506 8.6292766,-11.93648 13.7364551,-10.46699 z"
         style="fill:#ffde59;fill-opacity:1;stroke:none;stroke-width:0.264583px;stroke-linecap:butt;stroke-linejoin:miter;stroke-opacity:1" />
      <path
         sodipodi:nodetypes="cssssssc"
         id="path1830-9"
         d="m 9.2923566,245.20174 c 0.1657644,1.95947 0.4250653,5.21759 0.6868233,6.76573 0.3269411,1.93368 0.8325581,3.78576 1.1160871,5.73098 0.09306,0.63844 0.315047,2.52579 0.429264,1.89042 0.506752,-2.81894 0.267933,-5.52996 1.244866,-8.33778 0.493659,-1.41883 0.715934,-2.67944 1.073163,-4.05943 0.0891,-0.34422 1.276713,-0.63678 0.901454,-0.63678 -2.032587,0 -3.453971,-1.22541 -5.4516574,-1.35314 z"
         style="fill:#ffde59;fill-opacity:1;stroke:none;stroke-width:0.264583px;stroke-linecap:butt;stroke-linejoin:miter;stroke-opacity:1" />
      <path
         sodipodi:nodetypes="csssssc"
         id="path1832-1"
         d="m -17.142964,268.98827 c -0.390519,5.71756 -0.898319,11.42991 -1.581602,17.12582 -0.401157,3.34403 -1.00191,5.98541 -2.177362,9.18511 -0.469122,1.27698 -3.315982,13.77174 -3.951231,13.82344 -1.152576,0.0938 1.210032,-1.86311 1.76752,-2.82028 1.323109,-2.27168 2.634535,-4.80334 3.161913,-7.36782 0.664494,-3.23121 4.44755,-27.01571 2.780762,-29.94627 z"
         style="fill:#ffde59;fill-opacity:1;stroke:none;stroke-width:0.264583px;stroke-linecap:butt;stroke-linejoin:miter;stroke-opacity:1" />
      <path
         id="path1843-4"
         d="m 10.908697,280.51136 c -1.6825177,0.0879 0.682154,1.78234 0,0 z"
         style="fill:#a55000;fill-opacity:1;stroke:none;stroke-width:0.201873px;stroke-linecap:butt;stroke-linejoin:miter;stroke-opacity:1" />
      <path
         sodipodi:nodetypes="ccc"
         id="path1845-2"
         d="m 21.858774,280.32264 c 0.289629,0.006 0.538229,0.20338 0.2822,0.49341 -1.093546,0.49245 -0.931122,-0.48927 -0.2822,-0.49341 z"
         style="fill:#a55000;fill-opacity:1;stroke:none;stroke-width:0.182194px;stroke-linecap:butt;stroke-linejoin:miter;stroke-opacity:1" />
      <path
         sodipodi:nodetypes="cc"
         id="path1847-0"
         d="m 28.3165,279.66322 c -1.610421,0.19745 1.091648,0.64949 0,0 z"
         style="fill:#a55000;fill-opacity:1;stroke:none;stroke-width:0.201873px;stroke-linecap:butt;stroke-linejoin:miter;stroke-opacity:1" />
      <path
         id="path1849-1"
         d="m 22.789434,282.59411 c -1.091799,-0.23558 -0.650728,1.00212 -0.138959,0.17178"
         style="fill:#a55000;fill-opacity:1;stroke:none;stroke-width:0.201873px;stroke-linecap:butt;stroke-linejoin:miter;stroke-opacity:1" />
      <path
         sodipodi:nodetypes="cc"
         id="path1851-2"
         d="m 7.9443033,279.36262 c -1.0859848,0.17254 -0.2236664,1.00064 0.07967,0.35781"
         style="fill:#a55000;fill-opacity:1;stroke:none;stroke-width:0.201873px;stroke-linecap:butt;stroke-linejoin:miter;stroke-opacity:1" />
      <path
         id="path1853-52"
         d="m 6.6527584,281.08972 c -1.722776,-0.48042 -0.4348557,1.12886 0,0 z"
         style="fill:#a55000;fill-opacity:1;stroke:none;stroke-width:0.201873px;stroke-linecap:butt;stroke-linejoin:miter;stroke-opacity:1" />
      <path
         id="path1855-4"
         d="m 4.1339586,280.18157 c -1.3541905,-0.33003 -0.1944796,0.64758 0.092634,0.31134 0.4164218,-0.48768 0.1765568,-0.54844 -0.092634,-0.31134 z"
         style="fill:#a55000;fill-opacity:1;stroke:none;stroke-width:0.201873px;stroke-linecap:butt;stroke-linejoin:miter;stroke-opacity:1" />
      <path
         style="fill:#a55000;fill-opacity:1;stroke:none;stroke-width:0.201873px;stroke-linecap:butt;stroke-linejoin:miter;stroke-opacity:1"
         d="m 23.88976,279.78591 c 1.682524,0.088 -0.682151,1.78235 0,0 z"
         id="path1843-2-1" />
      <path
         style="fill:#a55000;fill-opacity:1;stroke:none;stroke-width:0.201873px;stroke-linecap:butt;stroke-linejoin:miter;stroke-opacity:1"
         d="m 9.5871521,280.47656 c -0.2896293,-0.007 -0.5382263,-0.24968 -0.2821968,-0.60575 1.0935457,-0.60458 0.9311187,0.60067 0.2821968,0.60575 z"
         id="path1845-1-2"
         sodipodi:nodetypes="ccc" />
      <path
         style="fill:#a55000;fill-opacity:1;stroke:none;stroke-width:0.201873px;stroke-linecap:butt;stroke-linejoin:miter;stroke-opacity:1"
         d="m 6.016331,279.81713 c 1.6104206,0.19745 -1.091645,0.64949 0,0 z"
         id="path1847-7-1"
         sodipodi:nodetypes="cc" />
      <path
         style="fill:#a55000;fill-opacity:1;stroke:none;stroke-width:0.201873px;stroke-linecap:butt;stroke-linejoin:miter;stroke-opacity:1"
         d="m 8.6564936,282.74803 c 1.0918008,-0.23559 0.6507258,1.00211 0.138957,0.17178"
         id="path1849-4-2" />
      <path
         style="fill:#a55000;fill-opacity:1;stroke:none;stroke-width:0.201873px;stroke-linecap:butt;stroke-linejoin:miter;stroke-opacity:1"
         d="m 26.388528,279.51653 c 1.085985,0.17255 0.223666,1.00065 -0.07967,0.35782"
         id="path1851-3-1"
         sodipodi:nodetypes="cc" />
      <path
         style="fill:#a55000;fill-opacity:1;stroke:none;stroke-width:0.201873px;stroke-linecap:butt;stroke-linejoin:miter;stroke-opacity:1"
         d="m 25.817557,278.07793 c 1.722774,-0.48043 0.434856,1.12887 0,0 z"
         id="path1853-5-1" />
      <path
         style="fill:#a55000;fill-opacity:1;stroke:none;stroke-width:0.201873px;stroke-linecap:butt;stroke-linejoin:miter;stroke-opacity:1"
         d="m 27.870725,281.12691 c 1.354191,-0.33002 0.19448,0.6476 -0.09263,0.31134 -0.416418,-0.48767 -0.176553,-0.54844 0.09263,-0.31134 z"
         id="path1855-9-0" />
    </g>
  </g>
</svg>
