<?xml version="1.0" encoding="UTF-8" standalone="no"?>
<!-- Created with Inkscape (http://www.inkscape.org/) -->

<svg
   width="118.70678mm"
   height="70.365677mm"
   viewBox="0 0 118.70678 70.365677"
   version="1.1"
   id="svg1095"
   inkscape:version="1.1.1 (3bf5ae0d25, 2021-09-20)"
   sodipodi:docname="2022-AT-01a-explanation.svg"
   xmlns:inkscape="http://www.inkscape.org/namespaces/inkscape"
   xmlns:sodipodi="http://sodipodi.sourceforge.net/DTD/sodipodi-0.dtd"
   xmlns="http://www.w3.org/2000/svg"
   xmlns:svg="http://www.w3.org/2000/svg">
  <sodipodi:namedview
     id="namedview1097"
     pagecolor="#ffffff"
     bordercolor="#666666"
     borderopacity="1.0"
     inkscape:pageshadow="2"
     inkscape:pageopacity="0.0"
     inkscape:pagecheckerboard="0"
     inkscape:document-units="mm"
     showgrid="false"
     inkscape:zoom="0.66368545"
     inkscape:cx="-265.93923"
     inkscape:cy="61.022884"
     inkscape:window-width="1920"
     inkscape:window-height="1137"
     inkscape:window-x="-8"
     inkscape:window-y="-8"
     inkscape:window-maximized="1"
     inkscape:current-layer="layer1" />
  <defs
     id="defs1092" />
  <g
     inkscape:label="Ebene 1"
     inkscape:groupmode="layer"
     id="layer1"
     transform="translate(-48.89534,-9.4668262)">
    <g
       fill="#ffffff"
       id="g977"
       transform="translate(48.894962,9.4669886)" />
    <path
       d="m 123.35324,51.728377 c -0.0517,1.695925 -0.34314,3.975681 -0.39067,4.453 -0.0657,0.658958 -0.11036,3.011393 -0.11036,3.011393 -0.0909,0.528824 0.60591,0.98274 1.23629,0.952128 0.45286,-0.02193 0.87148,-0.294015 0.93787,-0.968064 0.0294,-0.294078 0.0363,-2.158849 0.0985,-2.779156 0.0748,-0.744851 0.38927,-4.728007 0.23341,-6.572298 -0.0685,-0.8155 -0.33126,-1.353831 -0.52484,-1.547905 -0.14675,-0.146832 -0.95254,-0.677475 -1.68077,0.118938 -0.56677,0.619539 -2.96665,4.227546 -3.47123,5.23691 -0.26836,0.536448 -0.0503,1.189675 0.48571,1.457895 0.53672,0.268219 1.30616,-0.271997 1.57453,-0.808375 0.21454,-0.429098 0.92459,-1.537422 1.61158,-2.554473 z"
       id="path34-7"
       style="clip-rule:evenodd;fill-rule:evenodd;stroke-width:0.0698858;stroke-linecap:round;stroke-linejoin:round;stroke-miterlimit:1.5" />
    <g
       transform="translate(-7.4510382,-53.301011)"
       id="g993">
      <path
         d="m 150.42,62.773 c -2.1273,-0.03834 -4.5809,0.13629 -7.4024,0.54297 -16.602,-0.20693 -36.723,7.2007 -52.238,3.416 -7.6197,-2.9671 -12.849,-3.2982 -16.574,-1.8477 -3.7362,1.4549 -5.8398,4.6786 -7.2539,8.4766 -1.4141,3.798 -2.1812,8.2133 -3.25,12.254 -1.0688,4.0407 -2.4412,7.6805 -4.9375,9.9609 l -0.0039,0.002 -0.002,0.0039 c -1.9624,1.853 -2.6801,4.2833 -2.3242,6.9434 0.35583,2.6601 1.7376,5.567 3.9141,8.5938 4.3529,6.0535 11.913,12.597 21.168,18.324 l 0.04102,0.0254 0.04492,0.0176 c 7.9158,3.0184 25.159,7.034 41.467,-1.4043 l 0.0312,-0.0137 c 7.9718,-3.0401 12.545,-8.4749 27.633,-4.4609 l 0.0508,0.0137 0.0547,0.002 c 6.3605,0.29151 10.761,-1.5829 14.033,-4.5703 3.2723,-2.9874 5.4308,-7.0429 7.5,-11.125 l 0.0195,-0.041 0.0117,-0.041 c 1.0528,-3.5021 2.5897,-5.9989 2.6484,-9.6797 0.0587,-3.6807 -1.3774,-8.4213 -6.0957,-16.459 l 0.004,0.0039 c -2.5671,-4.4582 -3.2569,-9.8362 -6.252,-13.791 -1.4975,-1.9774 -3.598,-3.5719 -6.7383,-4.4297 -1.5702,-0.42892 -3.3991,-0.67805 -5.5488,-0.7168 z m -0.0195,1 c 2.0823,0.03749 3.83,0.2788 5.3047,0.68164 2.9494,0.80568 4.8204,2.24 6.2051,4.0684 2.7693,3.6568 3.4842,9.001 6.1816,13.686 v 0.002 l 0.002,0.002 c 4.6761,7.9658 6.0114,12.531 5.957,15.938 -0.054,3.3846 -1.4956,5.7563 -2.584,9.3457 -2.059,4.0612 -4.1773,7.9936 -7.2715,10.818 -3.0952,2.8257 -7.1559,4.5857 -13.287,4.3106 -15.312,-4.0472 -20.474,1.587 -28.195,4.5215 l -0.0274,0.0117 -0.0254,0.0137 c -15.931,8.2701 -32.902,4.3434 -40.664,1.3905 -9.1492,-5.6682 -16.614,-12.152 -20.838,-18.025 -2.1156,-2.9421 -3.4113,-5.7295 -3.7344,-8.1445 -0.32305,-2.415 0.27935,-4.4408 2.0195,-6.084 2.745,-2.5114 4.1411,-6.3412 5.2246,-10.438 1.0843,-4.0993 1.8543,-8.4922 3.2207,-12.162 1.3664,-3.6699 3.2866,-6.572 6.6777,-7.8926 3.3911,-1.3206 8.3778,-1.0758 15.914,1.8691 l 0.03125,0.01172 0.03125,0.0078 c 15.995,3.9017 36.173,-3.5917 52.463,-3.3887 l 0.0391,0.002 0.0391,-0.0059 c 2.8168,-0.40987 5.2341,-0.57655 7.3164,-0.53906 z"
         color="#000000"
         style="-inkscape-stroke:none"
         id="path987" />
      <path
         transform="matrix(0.26458,0,0,0.26458,56.35,62.767)"
         d="m 323.72,97.412 c 2.4184,1.5588 8.8283,3.6863 11.25,4.6875 3.3784,1.4194 6.0796,3.1791 7.4629,5.623 -3.1378,0.75332 -6.1912,1.414 -9.2637,1.8516 -0.002,-0.006 -0.004,-0.0131 -0.002,-0.0195 h 0.0156 c 0.002,-0.0166 -0.0215,-0.0266 -0.0215,-0.043 0.0922,-0.6014 -0.0272,-1.2009 -0.34766,-1.7129 -0.33789,-0.53831 -0.84561,-1.0092 -1.4766,-1.4473 -0.60926,-0.42301 -1.6205,-0.75836 -2.4356,-1.1367 -0.84378,-0.4078 -1.5105,-0.85266 -2.5176,-1.2324 -3.9026,-1.4716 -8.8061,-2.7943 -12.705,-4.2305 -0.004,-0.0018 -0.01,-0.0059 -0.0137,-0.0078 8.5473,3.5618 10.231,4.4446 12.291,5.1837 1.0648,0.38602 1.7312,0.80368 2.5918,1.209 0.70915,0.34821 1.6363,0.68098 2.1406,1.041 0.84289,0.60171 1.3077,1.7116 1.4414,2.5352 -6.8991,2.2622 -14.895,-0.0715 -20.319,-0.71878 0.004,0.002 0.0118,-0.002 0.0156,0 2.9403,0.97829 5.6898,1.6363 8.3008,2.041 -2.0991,1.8226 -4.543,2.7247 -7.3047,2.957 -3.1002,0.26082 -6.6014,-0.33547 -10.328,-1.4766 -0.008,-0.002 -0.0139,-0.005 -0.0215,-0.008 12.715,4.7123 16.95,0.50301 18.93,-1.2928 5.2966,0.66475 10.038,0.28198 14.676,-0.61328 -0.35147,1.2686 -1.0345,2.2702 -1.9805,3.1172 -1.2166,1.0893 -2.8801,1.9054 -4.7774,2.5762 -3.7944,1.3416 -8.5003,2.0856 -12.35,3.543 v 0.008 c -0.0113,0.005 -0.0258,0.003 -0.0371,0.008 10.583,-2.1303 10.743,-1.9325 12.637,-2.4883 2.039,-0.61265 3.9097,-1.4023 5.3164,-2.6348 1.1964,-1.0482 1.9263,-2.521 2.1836,-4.3281 3.4991,-0.62876 5.1374,-1.2892 5.8799,-1.8268 0.99576,-0.97112 0.17257,-1.658 -0.42354,-2.6201 -1.387,-1.931 -3.7635,-3.3881 -6.6438,-4.6101 -2.896,-1.2287 -6.4021,-2.184 -9.8262,-3.1738 -0.81362,-0.2352 -1.522,-0.52405 -2.332,-0.75977 -0.002,-5.07e-4 -0.004,-6.4e-5 -0.006,0 z"
         color="#000000"
         stroke-width="3.7795"
         style="-inkscape-stroke:none"
         id="path989" />
      <path
         transform="matrix(0.26458,0,0,0.26458,56.35,62.767)"
         d="m 309.69,42.342 c -2.5884,-0.01285 -5.1964,0.06327 -7.8184,0.22266 h -0.002 c -13.984,0.8501 -28.4,4.0459 -42.711,8.4961 -9.5395,2.9664 -19.04,6.5034 -28.355,10.287 -2.0336,-5.019 -5.2078,-9.4699 -9.9004,-12.762 -4.3751,-2.9073 -9.6824,-4.1104 -14.887,-4.1035 -13.971,0.29552 -28.276,6.2116 -37.936,16.428 -0.10657,-0.04411 -0.21102,-0.09187 -0.31835,-0.13476 -4.4021,-1.7572 -9.5824,-2.6029 -14.801,-2.6328 -1.2042,-0.0068 -2.4102,0.03061 -3.6094,0.10938 -6.3957,0.42052 -12.588,2.0287 -17.199,4.9746 -0.32436,0.20723 -0.63902,0.42454 -0.94727,0.64844 -5.3345,-6.846 -11.768,-12.847 -19.123,-17.346 -3.1184,-1.2234 -6.5064,-1.5244 -9.8281,-1.5586 -12.298,-0.22889 -27.056,6.1259 -29.219,19.547 -1.5415,10.285 2.9676,20.259 9.623,27.924 -2.0271,1.2137 -3.7908,2.7881 -5.2578,4.6387 -3.807,4.8026 -5.7961,11.303 -6.3555,18.145 -1.1187,13.683 3.2599,29.019 12.984,35.373 l 0.17773,0.11914 0.19922,0.0742 c 1.7519,0.6489 3.6006,0.9887 5.5195,1.1016 -1.6102,2.2638 -2.99,4.7286 -4.0352,7.4746 -4.9214,13.582 -4.0177,31.415 7.4668,41.471 9.8245,7.3862 22.917,1.8167 31.893,-4.2109 2.9357,-2.1075 5.975,-4.2006 8.8398,-6.4805 0.80468,0.61936 1.6574,1.1904 2.5586,1.7012 5.7157,3.2398 13.155,4.5798 20.602,4.4746 7.0295,-0.099 14.069,-1.4982 19.697,-4.1035 0.99765,1.4783 2.0647,2.9064 3.3125,4.1914 9.7321,6.5106 22.696,3.8263 32.828,-0.35352 10.376,-4.1381 20.437,-14.627 17.309,-26.629 -1.3887,-4.7961 -4.2427,-8.895 -7.6621,-12.535 1.7566,-1.3674 3.3194,-3.0096 4.6602,-4.8613 4.0493,-5.5924 6.3078,-13.008 6.8945,-20.617 0.5867,-7.6093 -0.50735,-15.436 -3.4551,-21.889 -0.98169,-2.1491 -2.1887,-4.1484 -3.6113,-5.9258 2.9691,-3.8653 5.0315,-8.3446 5.6074,-13.418 0.50738,-2.9567 0.84856,-6.0651 0.96485,-9.2168 10.87,-3.882 21.701,-7.6337 32.24,-10.732 26.568,-7.8109 51.168,-11.381 69.686,-3.1387 l 0.0312,0.01563 0.0371,0.0078 c 13.511,5.4349 23.009,14.433 29.564,26.102 -3.8615,2.0488 -7.0893,3.56 -9.4414,4.5117 -1.3205,0.53427 -2.3703,0.89354 -3.0488,1.0703 -0.2521,0.06573 -0.37637,0.07786 -0.49414,0.0957 -7.2258,-4.999 -15.73,-8.8508 -23.939,-10.033 -8.4042,-1.2104 -16.672,0.42946 -22.168,6.7188 l -0.008,0.0078 c -3.9375,4.5787 -7.8126,6.3102 -12.143,7.2109 -4.33,0.90078 -9.1342,0.83799 -14.381,1.6172 l -4.3477,0.64258 3.4629,2.7168 c 13.904,10.9 27.561,19.398 40.865,21.414 13.238,2.0061 26.033,-2.8279 36.99,-17.697 0.0238,-0.0195 0.0437,-0.04 0.0742,-0.0566 0.19842,-0.10825 0.54471,-0.27036 0.98242,-0.46484 0.87538,-0.38894 2.1356,-0.90405 3.6465,-1.5195 2.573,-1.0481 5.8846,-2.397 9.4395,-4.0215 6.0399,17.046 7.646,38.008 6.5117,60.654 l -0.0801,1.5508 1.5059,0.375 c 4.0007,1.0071 7.8087,1.0676 11.184,-0.30274 3.3749,-1.3703 6.158,-4.1586 8.1484,-8.2812 l 0.15625,-0.32421 0.0312,-0.35547 c 3.394,-45.711 -13.997,-85.624 -56.027,-110.46 l -0.12695,-0.08008 -0.13867,-0.05273 c -10.232,-4.0127 -21.102,-5.7543 -32.318,-5.8105 z m -0.0918,3.8008 c 10.806,0.05002 21.198,1.7169 30.9,5.502 40.635,24.088 57.182,61.993 54.037,106.33 -1.6643,3.3179 -3.6451,5.2845 -5.9941,6.2383 -2.0387,0.82775 -4.6549,0.61502 -7.4492,0.11718 0.97663,-22.587 -0.60678,-43.717 -7.0059,-61.15 -0.11773,-0.32074 -0.26766,-0.61726 -0.38867,-0.93554 -0.51527,-1.7714 -1.2042,-3.2696 -1.8965,-4.5781 -6.8684,-15.296 -17.937,-27.324 -34.543,-34.023 -0.002,-9.52e-4 -0.004,9.56e-4 -0.008,0 -20.003,-8.9006 -45.412,-4.931 -72.275,2.9668 -10.241,3.0109 -20.7,6.5992 -31.16,10.312 -0.1172,-4.0791 -0.6607,-8.1533 -1.7734,-11.996 9.2953,-3.7796 18.755,-7.3051 28.238,-10.254 14.113,-4.3885 28.213,-7.4831 41.775,-8.3105 2.5345,-0.15462 5.0493,-0.22834 7.543,-0.2168 z m -103.47,2.2188 c 2.4263,0.05235 4.8486,0.33728 7.2422,0.88672 12.771,3.5349 16.982,18.298 16.688,30.105 -0.10885,7.3436 -1.219,15.373 -5.4434,21.477 -2.4052,-2.1554 -5.2616,-3.7533 -8.5781,-4.5391 l -0.21484,-0.05273 h -0.22071 c -11.454,0.01096 -19.372,3.4418 -26.029,7.6484 -1.4875,0.93993 -2.903,1.9157 -4.2988,2.8965 -3.0435,-5.147 -7.4141,-9.418 -12.641,-12.338 4.5795,-4.7345 7.6713,-11.48 6.0898,-22.309 l -0.008,-0.05273 -0.0156,-0.05859 c -0.85735,-4.1183 -3.6355,-7.2501 -7.3184,-9.4648 1.5808,-1.5524 3.3138,-2.9668 5.2168,-4.1914 8.4475,-6.0791 19.017,-10.235 29.531,-10.008 z m -105.09,0.37695 c 3.6699,-0.06168 7.3294,0.53658 10.729,1.8809 6.3488,4.3392 11.964,9.7017 16.67,15.768 -2.3918,2.7236 -3.6901,6.1602 -3.0898,10.061 l 0.006,0.05273 0.008,0.04297 c 2.383,11.5 5.4532,17.909 8.8633,21.846 -3.5608,3.0782 -6.4713,6.8896 -8.498,11.195 -0.53805,-0.60096 -1.0627,-1.206 -1.6191,-1.8008 -6.9958,-7.4767 -15.622,-14.328 -29.455,-17.916 L 94.48268,89.82343 94.3069,89.80976 c -0.45725,-0.03175 -0.90842,-0.04962 -1.3535,-0.05469 -2.4249,-0.02759 -4.6663,0.34148 -6.7109,1.0332 -2.5752,-3.0797 -4.8828,-6.3736 -6.8203,-9.8418 -4.2724,-8.5966 -4.5046,-20.966 4.3418,-26.799 5.0136,-3.3695 11.159,-5.3054 17.275,-5.4082 z m 51.91,13.189 c 4.823,0.03666 9.5878,0.83244 13.418,2.3613 4.699,1.8757 7.8135,4.701 8.6152,8.4746 1.5357,10.661 -1.3903,15.826 -5.9473,19.941 -3.9448,-1.6227 -8.2622,-2.5195 -12.787,-2.5195 -7.06,0 -13.619,2.1808 -19.039,5.9023 -2.958,-3.2755 -5.7555,-8.8826 -8.1191,-20.246 -0.61061,-4.0536 1.29,-6.9921 5.0996,-9.4258 3.8203,-2.4406 9.5115,-4.004 15.422,-4.3926 1.1082,-0.07287 2.2249,-0.10421 3.3379,-0.0957 z m 170.1,30.334 c 1.5626,-0.01397 3.1833,0.10599 4.8476,0.3457 7.6085,1.0958 15.938,4.8073 22.848,9.6836 0.83996,0.59277 1.3221,0.44057 1.7559,0.40625 0.43374,-0.0344 0.85043,-0.12123 1.3223,-0.24415 0.94364,-0.24582 2.0974,-0.64375 3.5137,-1.2168 2.3854,-0.96519 5.8236,-2.681 9.4922,-4.6074 0.89658,1.6488 1.7811,3.3607 2.5547,5.2559 -3.4376,1.5689 -6.8431,3.0282 -9.3965,4.0684 -1.5104,0.61529 -2.7843,1.1319 -3.7578,1.5645 -0.48676,0.21626 -0.89574,0.40883 -1.2559,0.60547 -0.36019,0.19665 -0.6363,0.2125 -1.1504,0.91601 -10.419,14.258 -21.431,18.25 -33.537,16.416 -10.873,-1.6476 -22.771,-8.7441 -34.996,-17.871 3.1938,-0.25886 6.385,-0.41605 9.5957,-1.084 4.8828,-1.0158 9.7841,-3.2635 14.24,-8.4453 l -0.008,0.01367 c 3.5046,-4.0105 8.3508,-5.7568 13.932,-5.8066 z m -230.29,1.3086 c 0.36771,0.0032 0.7412,0.01777 1.123,0.04102 12.949,3.4061 20.766,9.6004 27.461,16.756 0.96257,1.0288 1.889,2.0975 2.8242,3.1562 -1.0596,3.27 -1.6348,6.7558 -1.6348,10.375 0,4.5068 0.88956,8.8076 2.5,12.74 -4.5316,2.0266 -9.0759,4.1075 -13.508,5.9805 -10.131,4.2816 -19.414,6.8218 -25.607,4.6289 -7.5871,-5.1564 -12.117,-19.224 -11.096,-31.713 0.51513,-6.3008 2.3836,-12.119 5.5449,-16.107 2.9335,-3.7006 6.8771,-5.9048 12.393,-5.8574 z m 63.486,0.39453 c 16.552,0 29.926,13.381 29.926,29.934 0,16.553 -13.373,29.934 -29.926,29.934 -16.552,0 -29.934,-13.381 -29.934,-29.934 0,-16.553 13.381,-29.934 29.934,-29.934 z m 59.092,6.0898 c 5.4942,1.3737 9.4888,5.3961 12.068,11.043 2.6098,5.7133 3.6662,12.982 3.123,20.027 -0.54319,7.0451 -2.6916,13.847 -6.1934,18.684 -3.4324,4.7406 -8.022,7.5315 -14.047,7.4258 -13.507,-6.4298 -19.685,-12.475 -23.764,-18.535 2.1917,-4.4702 3.4258,-9.4934 3.4258,-14.801 0,-4.8939 -1.0483,-9.546 -2.9297,-13.746 1.5213,-1.0449 3.0382,-2.0985 4.5762,-3.0703 6.2542,-3.9518 13.199,-6.9588 23.74,-7.0273 z m 141.35,11.453 c -0.10501,0.12366 -0.0828,0.0729 0,0 z m -230.08,28.461 c 2.2963,4.2189 5.4686,7.8943 9.2695,10.783 -4.0021,7.4986 -7.4029,15.499 -8.5801,24.996 l -0.016,0.1484 c -0.2084,4.674 1.3745,8.5949 4.0508,11.664 -0.99068,0.79018 -1.999,1.5575 -3.0391,2.2676 -8.4979,6.1141 -19.373,13.738 -30.273,9.457 -10.588,-6.1026 -12.139,-20.319 -10.631,-31.348 0.71123,-6.2919 3.5284,-11.652 7.4453,-16.229 5.6799,-0.70325 11.845,-2.9461 18.156,-5.6133 4.5088,-1.9055 9.0962,-4.0528 13.617,-6.127 z m 57.848,2.3613 c 4.4949,6.1285 11.394,12.364 24.627,18.582 l 0.34571,0.16211 0.39062,0.0156 c 3.5706,0.13304 6.8029,-0.65473 9.6524,-2.1113 2.8554,3.0749 5.2985,6.4931 6.9863,10.377 3.423,10.051 -5.3042,19.069 -13.867,22.773 -9.1654,4.035 -20.744,6.7882 -29.887,1.3379 -0.83709,-1.0024 -1.5953,-2.0498 -2.3223,-3.1152 4.508,-2.8798 7.6544,-6.8906 7.6465,-11.869 v -0.11133 l -0.0156,-0.10351 c -1.0509,-9.0356 -6.7114,-17.627 -13.42,-26.098 3.9297,-2.5598 7.2938,-5.9167 9.8633,-9.8398 z m -45.436,10.541 c 5.0433,3.0082 10.934,4.7402 17.223,4.7402 5.401,0 10.507,-1.2774 15.035,-3.543 6.6877,8.4048 11.98,16.683 12.934,24.516 -0.045,3.9252 -2.9411,7.2494 -7.9785,9.7871 -5.082,2.5602 -12.086,4.0737 -19.031,4.1719 -6.9448,0.0983 -13.823,-1.2236 -18.684,-3.9785 -4.8454,-2.7465 -7.6833,-6.6155 -7.4414,-12.453 1.0899,-8.642 4.1978,-16.087 7.9434,-23.24 z"
         color="#000000"
         stroke-width="3.7795"
         style="-inkscape-stroke:none"
         id="path991" />
    </g>
    <path
       d="m 90.175626,40.759329 c -0.04274,1.401504 -0.283571,3.285483 -0.322845,3.679937 -0.05429,0.54456 -0.09125,2.4886 -0.09125,2.4886 -0.07508,0.437018 0.500719,0.812132 1.021657,0.786834 0.374243,-0.01812 0.720187,-0.242972 0.775051,-0.800003 0.02426,-0.243025 0.03002,-1.784062 0.08143,-2.296681 0.06179,-0.615541 0.321686,-3.907202 0.192891,-5.431315 -0.0566,-0.673925 -0.273748,-1.118799 -0.433724,-1.279181 -0.12128,-0.121341 -0.787182,-0.559862 -1.388974,0.09829 -0.468383,0.511984 -2.451636,3.493623 -2.868612,4.327757 -0.221776,0.443318 -0.04158,0.983141 0.401387,1.204797 0.44354,0.221655 1.079405,-0.224777 1.301182,-0.668037 0.177301,-0.354605 0.764077,-1.270518 1.331797,-2.111004 z"
       id="path34"
       style="clip-rule:evenodd;fill-rule:evenodd;stroke-width:0.0577533;stroke-linecap:round;stroke-linejoin:round;stroke-miterlimit:1.5" />
    <path
       d="m 88.435752,28.848682 c -0.199513,-0.888564 0.953437,-2.124746 1.412849,-1.075614 0.06886,0.156999 -0.0039,0.338044 -0.0798,0.512666 -0.256368,0.592894 -2.071426,3.195986 -2.049533,3.188746 -0.0233,0.0078 -0.487308,1.065583 0.240479,1.071234 0.411741,0.0032 2.529072,-0.0048 2.619828,0.01039 0.299093,0.04983 0.581948,-0.152404 0.632091,-0.451326 0.04979,-0.298921 -0.152549,-0.582051 -0.451646,-0.631842 -0.0625,-0.01044 -1.021941,-0.01651 -1.813646,-0.02028 0.345004,-0.505 1.548449,-2.079757 1.830241,-2.73064 0.193869,-0.447583 0.254252,-0.91307 0.103466,-1.325732 -0.14831,-0.406233 -0.501787,-0.801202 -1.253943,-1.043692 -0.637035,-0.205342 -1.240877,0.111375 -1.634964,0.629408 -0.371135,0.48809 -0.506731,1.128938 -0.405031,1.475528 0.08545,0.290729 0.916002,0.68683 0.849614,0.391156 z"
       id="path36"
       style="clip-rule:evenodd;fill-rule:evenodd;stroke-width:0.0353122;stroke-linecap:round;stroke-linejoin:round;stroke-miterlimit:1.5" />
    <path
       d="m 103.06579,42.23944 c -0.24656,-1.098152 1.17833,-2.625915 1.74611,-1.329322 0.0851,0.194031 -0.005,0.417779 -0.0986,0.63359 -0.31684,0.732741 -2.56002,3.949832 -2.53295,3.940884 -0.0288,0.0096 -0.60226,1.316925 0.2972,1.323909 0.50886,0.004 3.12561,-0.0059 3.23776,0.01284 0.36965,0.06158 0.71922,-0.188352 0.7812,-0.557781 0.0615,-0.369428 -0.18853,-0.719341 -0.55818,-0.780876 -0.0772,-0.0129 -1.26299,-0.0204 -2.24144,-0.02506 0.42638,-0.624116 1.91368,-2.570315 2.26194,-3.374723 0.2396,-0.553156 0.31423,-1.128438 0.12787,-1.638436 -0.18329,-0.502052 -0.62014,-0.990183 -1.54971,-1.28987 -0.7873,-0.253777 -1.53357,0.137645 -2.02061,0.777868 -0.45867,0.603217 -0.62625,1.395223 -0.50057,1.823565 0.10567,0.359304 1.13206,0.848834 1.05003,0.483418 z"
       id="path36-4"
       style="clip-rule:evenodd;fill-rule:evenodd;stroke-width:0.0436414;stroke-linecap:round;stroke-linejoin:round;stroke-miterlimit:1.5" />
    <path
       d="m 150.78834,46.37353 c -0.15737,-0.700943 0.75212,-1.676103 1.11454,-0.848498 0.0544,0.123849 -0.003,0.266666 -0.0629,0.404417 -0.20223,0.467703 -1.63403,2.521148 -1.61675,2.515437 -0.0185,0.0062 -0.38443,0.840584 0.18969,0.845041 0.32481,0.0026 1.99506,-0.0037 2.06665,0.0082 0.23594,0.03931 0.45907,-0.120223 0.49862,-0.356028 0.0393,-0.235803 -0.12034,-0.459151 -0.35628,-0.498427 -0.0493,-0.0082 -0.80616,-0.01302 -1.4307,-0.01599 0.27217,-0.398369 1.2215,-1.640614 1.44379,-2.154061 0.15293,-0.353076 0.20057,-0.720275 0.0816,-1.045801 -0.11699,-0.320457 -0.39583,-0.632028 -0.98916,-0.823316 -0.50253,-0.161984 -0.97887,0.08786 -1.28974,0.496508 -0.29277,0.385028 -0.39973,0.89056 -0.31952,1.163968 0.0675,0.229341 0.72259,0.541805 0.67023,0.308562 z"
       id="path36-4-5"
       style="clip-rule:evenodd;fill-rule:evenodd;stroke-width:0.027856;stroke-linecap:round;stroke-linejoin:round;stroke-miterlimit:1.5" />
    <path
       d="m 88.890972,55.03036 c -0.24656,-1.098152 1.17833,-2.625915 1.74611,-1.329322 0.0851,0.194031 -0.005,0.417779 -0.0986,0.63359 -0.31684,0.732741 -2.56002,3.949832 -2.53295,3.940884 -0.0288,0.0096 -0.60226,1.316925 0.2972,1.323909 0.50886,0.004 3.12561,-0.0059 3.23776,0.01284 0.36965,0.06158 0.71922,-0.188352 0.7812,-0.557781 0.0615,-0.369428 -0.18853,-0.719341 -0.55818,-0.780876 -0.0772,-0.0129 -1.26299,-0.0204 -2.24144,-0.02506 0.42638,-0.624116 1.91368,-2.570315 2.26194,-3.374723 0.2396,-0.553156 0.31423,-1.128438 0.12787,-1.638436 -0.18329,-0.502052 -0.62014,-0.990183 -1.54971,-1.28987 -0.7873,-0.253777 -1.53357,0.137645 -2.02061,0.777868 -0.45867,0.603217 -0.62625,1.395223 -0.50057,1.823565 0.10567,0.359304 1.13206,0.848834 1.05003,0.483418 z"
       id="path36-4-6"
       style="clip-rule:evenodd;fill-rule:evenodd;stroke-width:0.0436414;stroke-linecap:round;stroke-linejoin:round;stroke-miterlimit:1.5" />
    <path
       d="m 73.950617,40.724261 c -0.24657,-1.098152 1.17833,-2.625915 1.74611,-1.329322 0.0851,0.194031 -0.005,0.417779 -0.0986,0.63359 -0.31684,0.732741 -2.560015,3.949832 -2.532945,3.940884 -0.0288,0.0096 -0.60226,1.316925 0.2972,1.323909 0.508865,0.004 3.125605,-0.0059 3.237755,0.01284 0.36965,0.06158 0.71923,-0.188352 0.7812,-0.557781 0.0615,-0.369428 -0.18853,-0.719341 -0.55817,-0.780876 -0.0772,-0.0129 -1.26299,-0.0204 -2.24144,-0.02506 0.42638,-0.624116 1.91368,-2.570315 2.26194,-3.374723 0.23959,-0.553156 0.31422,-1.128438 0.12787,-1.638436 -0.18329,-0.502052 -0.62015,-0.990183 -1.54972,-1.28987 -0.7873,-0.253777 -1.53356,0.137645 -2.020605,0.777868 -0.45867,0.603217 -0.62625,1.395223 -0.50057,1.823565 0.10567,0.359304 1.132055,0.848834 1.050035,0.483418 z"
       id="path36-4-6-7"
       style="clip-rule:evenodd;fill-rule:evenodd;stroke-width:0.0436414;stroke-linecap:round;stroke-linejoin:round;stroke-miterlimit:1.5" />
    <path
       d="m 78.268494,52.630403 c 1.476829,0.653534 0.590936,2.488746 -0.573644,2.646092 -0.15969,0.02162 -0.746048,0.07318 -0.844198,0.243443 -0.089,0.153532 -0.137307,0.329332 -0.07984,0.41925 0.01119,0.01753 0.176974,0.375359 0.744008,0.362237 0,0 2.491392,-0.0093 1.515993,1.718498 -0.447526,0.79262 -1.578545,1.10925 -2.635313,-0.14113 -0.281229,-0.3334 -0.226302,-0.535602 -0.844704,-0.24644 -0.395143,0.18486 -0.644838,0.9336 -0.363105,1.267 1.911647,2.26315 4.219448,1.37294 5.14908,0.0129 0.645859,-0.9453 0.665693,-2.360387 -1.015067,-3.613356 1.05575,-0.949463 1.205772,-1.984318 0.955057,-2.734834 -0.506006,-1.515585 -3.005536,-2.461693 -4.956846,-0.309505 -0.293432,0.323338 -0.268512,0.823803 0.05441,1.116933 0.323442,0.293177 0.823853,0.268666 1.117285,-0.05466 0.590937,-0.651814 1.2846,-0.904308 1.776881,-0.686391 z"
       id="path38"
       style="clip-rule:evenodd;fill-rule:evenodd;stroke-width:0.050855;stroke-linecap:round;stroke-linejoin:round;stroke-miterlimit:1.5" />
    <path
       d="m 77.304314,25.395309 c 1.476829,0.653534 0.590936,2.488746 -0.573644,2.646092 -0.15969,0.02162 -0.746048,0.07318 -0.844198,0.243443 -0.089,0.153532 -0.137307,0.329332 -0.07984,0.41925 0.01119,0.01753 0.176974,0.375359 0.744008,0.362237 0,0 2.491392,-0.0093 1.515993,1.718498 -0.447526,0.79262 -1.578545,1.10925 -2.635313,-0.14113 -0.281229,-0.3334 -0.226302,-0.535602 -0.844704,-0.24644 -0.395143,0.18486 -0.644838,0.9336 -0.363105,1.267 1.911647,2.26315 4.219448,1.37294 5.14908,0.0129 0.645859,-0.9453 0.665693,-2.360387 -1.015067,-3.613356 1.05575,-0.949463 1.205772,-1.984318 0.955057,-2.734834 -0.506006,-1.515585 -3.005536,-2.461693 -4.956846,-0.309505 -0.293432,0.323338 -0.268512,0.823803 0.05441,1.116933 0.323442,0.293177 0.823853,0.268666 1.117285,-0.05466 0.590937,-0.651814 1.2846,-0.904308 1.776881,-0.686391 z"
       id="path38-2"
       style="clip-rule:evenodd;fill-rule:evenodd;stroke-width:0.050855;stroke-linecap:round;stroke-linejoin:round;stroke-miterlimit:1.5" />
    <path
       d="m 102.12076,26.192625 c 1.47683,0.653534 0.59093,2.488746 -0.57365,2.646092 -0.15969,0.02162 -0.74604,0.07318 -0.84419,0.243443 -0.089,0.153532 -0.13731,0.329332 -0.0798,0.41925 0.0112,0.01753 0.17697,0.375359 0.744,0.362237 0,0 2.4914,-0.0093 1.516,1.718498 -0.44753,0.79262 -1.57855,1.10925 -2.63532,-0.14113 -0.281226,-0.3334 -0.2263,-0.535602 -0.844701,-0.24644 -0.395143,0.18486 -0.644838,0.9336 -0.363105,1.267 1.911646,2.26315 4.219446,1.37294 5.149076,0.0129 0.64586,-0.9453 0.6657,-2.360387 -1.01506,-3.613356 1.05575,-0.949463 1.20577,-1.984318 0.95505,-2.734834 -0.506,-1.515585 -3.00553,-2.461693 -4.956842,-0.309505 -0.293432,0.323338 -0.268512,0.823803 0.05441,1.116933 0.323442,0.293177 0.823852,0.268666 1.117282,-0.05466 0.59094,-0.651814 1.2846,-0.904308 1.77688,-0.686391 z"
       id="path38-2-7"
       style="clip-rule:evenodd;fill-rule:evenodd;stroke-width:0.050855;stroke-linecap:round;stroke-linejoin:round;stroke-miterlimit:1.5" />
    <path
       d="m 135.57906,35.765771 c 1.2255,0.54232 0.49036,2.065227 -0.47604,2.195797 -0.13233,0.0181 -0.61908,0.06072 -0.70052,0.201992 -0.0738,0.127394 -0.11403,0.273275 -0.0662,0.347906 0.008,0.01438 0.14687,0.31148 0.6174,0.300594 0,0 2.06744,-0.0077 1.25805,1.426055 -0.3714,0.657741 -1.30995,0.920487 -2.18687,-0.117134 -0.23337,-0.27667 -0.18755,-0.444455 -0.70098,-0.204511 -0.3279,0.153403 -0.5351,0.774727 -0.3013,1.05139 1.58633,1.878024 3.50139,1.139303 4.27285,0.01046 0.53594,-0.784436 0.55241,-1.958711 -0.84234,-2.998459 0.87612,-0.78789 1.00058,-1.646641 0.79253,-2.26944 -0.41991,-1.257674 -2.49407,-2.04278 -4.11332,-0.25684 -0.24355,0.268325 -0.2229,0.683614 0.0453,0.92686 0.26843,0.243292 0.68364,0.222953 0.92716,-0.04537 0.49035,-0.540893 1.06601,-0.75042 1.47449,-0.569586 z"
       id="path38-2-7-2"
       style="clip-rule:evenodd;fill-rule:evenodd;stroke-width:0.0422008;stroke-linecap:round;stroke-linejoin:round;stroke-miterlimit:1.5" />
    <path
       d="m 102.32521,53.307667 c 1.29531,0.5764 0.5183,2.195012 -0.50313,2.333787 -0.14007,0.01907 -0.65434,0.06454 -0.74043,0.214711 -0.0781,0.135411 -0.12043,0.290462 -0.07,0.369768 0.01,0.01546 0.15522,0.331057 0.65255,0.319484 0,0 2.18517,-0.0082 1.32966,1.515673 -0.39252,0.699071 -1.38452,0.978331 -2.3114,-0.124474 -0.24665,-0.29405 -0.19848,-0.472387 -0.740867,-0.217354 -0.346574,0.163042 -0.565578,0.823412 -0.318474,1.117463 1.676671,1.996042 3.700801,1.210899 4.516171,0.01138 0.56647,-0.833731 0.58387,-2.081802 -0.8903,-3.18689 0.92599,-0.837403 1.05757,-1.750119 0.83766,-2.412056 -0.4438,-1.336708 -2.6361,-2.171152 -4.347559,-0.272975 -0.257365,0.285176 -0.235508,0.726573 0.04772,0.985107 0.283689,0.258575 0.722579,0.236957 0.979949,-0.04821 0.5183,-0.574884 1.1267,-0.797577 1.55847,-0.60538 z"
       id="path38-2-7-4"
       style="clip-rule:evenodd;fill-rule:evenodd;stroke-width:0.0447283;stroke-linecap:round;stroke-linejoin:round;stroke-miterlimit:1.5" />
  </g>
</svg>
