<?xml version="1.0" encoding="UTF-8" standalone="no"?>
<svg
   xmlns:dc="http://purl.org/dc/elements/1.1/"
   xmlns:cc="http://creativecommons.org/ns#"
   xmlns:rdf="http://www.w3.org/1999/02/22-rdf-syntax-ns#"
   xmlns:svg="http://www.w3.org/2000/svg"
   xmlns="http://www.w3.org/2000/svg"
   xmlns:sodipodi="http://sodipodi.sourceforge.net/DTD/sodipodi-0.dtd"
   xmlns:inkscape="http://www.inkscape.org/namespaces/inkscape"
   height="182.0002"
   viewBox="-432 -172 79.320709 182.0002"
   width="79.320709"
   version="1.1"
   id="svg158"
   sodipodi:docname="8 - Kopie.svg"
   inkscape:version="0.92.4 (5da689c313, 2019-01-14)">
  <metadata
     id="metadata164">
    <rdf:RDF>
      <cc:Work
         rdf:about="">
        <dc:format>image/svg+xml</dc:format>
        <dc:type
           rdf:resource="http://purl.org/dc/dcmitype/StillImage" />
        <dc:title></dc:title>
      </cc:Work>
    </rdf:RDF>
  </metadata>
  <defs
     id="defs162" />
  <sodipodi:namedview
     pagecolor="#ffffff"
     bordercolor="#666666"
     borderopacity="1"
     objecttolerance="10"
     gridtolerance="10"
     guidetolerance="10"
     inkscape:pageopacity="0"
     inkscape:pageshadow="2"
     inkscape:window-width="1920"
     inkscape:window-height="1017"
     id="namedview160"
     showgrid="false"
     inkscape:zoom="1.6481699"
     inkscape:cx="-292.58533"
     inkscape:cy="38.142332"
     inkscape:window-x="1352"
     inkscape:window-y="-8"
     inkscape:window-maximized="1"
     inkscape:current-layer="svg158"
     fit-margin-top="0"
     fit-margin-left="0"
     fit-margin-right="0"
     fit-margin-bottom="0" />
  <line
     x1="-411.01404"
     x2="-411.01404"
     y1="-10.985758"
     y2="-10.985758"
     id="line2"
     style="fill:none;stroke:none;stroke-width:2;stroke-linecap:round" />
  <polygon
     points=""
     id="polygon8"
     style="fill:none;fill-rule:evenodd;stroke-linejoin:round"
     transform="translate(-411.01404,-10.985758)" />
  <polyline
     points="0.0,0.0 -2.6645352591003757e-14,-20.000000000000007 0.0,-0.0 20.000000000000007,-2.7869999390151112e-14 0.0,-0.0 2.9094646189298466e-14,20.000000000000007 0.0,-0.0 -20.000000000000007,3.0319292988445824e-14 0.0,-0.0"
     id="polyline68"
     style="fill:none;stroke:#ff0000;stroke-width:2;stroke-linecap:round;stroke-linejoin:round"
     transform="translate(-411.01404,-10.985758)" />
  <polyline
     points="0.0,-0.0 -1.5771969893796588e-14,-10.000000000000004 4.999999999999972,-18.660254037844403"
     id="polyline70"
     style="fill:none;stroke:#000000;stroke-width:2;stroke-linecap:round;stroke-linejoin:round"
     transform="translate(-411.01404,-10.985758)" />
  <polyline
     points="-1.5771969893796588e-14,-10.000000000000004 -3.187020375086136e-14,-20.000000000000007 4.999999999999956,-28.660254037844403 13.660254037844338,-33.660254037844425"
     id="polyline72"
     style="fill:none;stroke:#000000;stroke-width:2;stroke-linecap:round;stroke-linejoin:round"
     transform="translate(-411.01404,-10.985758)" />
  <line
     x1="-406.01404"
     x2="-401.01404"
     y1="-39.646011"
     y2="-48.306263"
     id="line74"
     style="fill:none;stroke:#000000;stroke-width:2;stroke-linecap:round" />
  <polyline
     points="-3.187020375086136e-14,-20.000000000000007 -4.741332609561355e-14,-30.00000000000001 4.9999999999999405,-38.66025403784441"
     id="polyline76"
     style="fill:none;stroke:#000000;stroke-width:2;stroke-linecap:round;stroke-linejoin:round"
     transform="translate(-411.01404,-10.985758)" />
  <polyline
     points="-4.741332609561355e-14,-30.00000000000001 -6.295644844036573e-14,-40.000000000000014 4.9999999999999245,-48.66025403784441 13.660254037844307,-53.660254037844425"
     id="polyline78"
     style="fill:none;stroke:#000000;stroke-width:2;stroke-linecap:round;stroke-linejoin:round"
     transform="translate(-411.01404,-10.985758)" />
  <polyline
     points="4.9999999999999245,-48.66025403784441 9.999999999999913,-57.32050807568881 18.660254037844297,-62.32050807568882 28.6602540378443,-62.32050807568884"
     id="polyline80"
     style="fill:none;stroke:#000000;stroke-width:2;stroke-linecap:round;stroke-linejoin:round"
     transform="translate(-411.01404,-10.985758)" />
  <line
     x1="-392.35379"
     x2="-383.69354"
     y1="-73.306267"
     y2="-78.306267"
     id="line82"
     style="fill:none;stroke:#000000;stroke-width:2;stroke-linecap:round" />
  <polyline
     points="9.999999999999913,-57.32050807568881 14.999999999999902,-65.9807621135332 23.660254037844282,-70.98076211353322"
     id="polyline84"
     style="fill:none;stroke:#000000;stroke-width:2;stroke-linecap:round;stroke-linejoin:round"
     transform="translate(-411.01404,-10.985758)" />
  <line
     x1="-396.01404"
     x2="-391.01404"
     y1="-76.966515"
     y2="-85.62677"
     id="line86"
     style="fill:none;stroke:#000000;stroke-width:2;stroke-linecap:round" />
  <polyline
     points="-6.295644844036573e-14,-40.000000000000014 -7.794445927280535e-14,-50.000000000000014 4.99999999999991,-58.66025403784441"
     id="polyline88"
     style="fill:none;stroke:#000000;stroke-width:2;stroke-linecap:round;stroke-linejoin:round"
     transform="translate(-411.01404,-10.985758)" />
  <polyline
     points="-7.794445927280535e-14,-50.000000000000014 -9.293247010524496e-14,-60.000000000000014 4.999999999999895,-68.66025403784441 13.660254037844277,-73.66025403784442"
     id="polyline90"
     style="fill:none;stroke:#000000;stroke-width:2;stroke-linecap:round;stroke-linejoin:round"
     transform="translate(-411.01404,-10.985758)" />
  <line
     x1="-406.01404"
     x2="-401.01404"
     y1="-79.646011"
     y2="-88.306267"
     id="line92"
     style="fill:none;stroke:#000000;stroke-width:2;stroke-linecap:round" />
  <polyline
     points="-9.293247010524496e-14,-60.000000000000014 -1.0847559244999715e-13,-70.00000000000001 4.999999999999879,-78.66025403784441"
     id="polyline94"
     style="fill:none;stroke:#000000;stroke-width:2;stroke-linecap:round;stroke-linejoin:round"
     transform="translate(-411.01404,-10.985758)" />
  <polyline
     points="-1.0847559244999715e-13,-70.00000000000001 -1.2401871479474934e-13,-80.00000000000001 4.999999999999863,-88.66025403784441 13.660254037844245,-93.66025403784442"
     id="polyline96"
     style="fill:none;stroke:#000000;stroke-width:2;stroke-linecap:round;stroke-linejoin:round"
     transform="translate(-411.01404,-10.985758)" />
  <polyline
     points="4.999999999999863,-88.66025403784441 9.99999999999985,-97.3205080756888 18.660254037844233,-102.32050807568882 28.660254037844236,-102.32050807568883"
     id="polyline98"
     style="fill:none;stroke:#000000;stroke-width:2;stroke-linecap:round;stroke-linejoin:round"
     transform="translate(-411.01404,-10.985758)" />
  <line
     x1="-392.35379"
     x2="-383.69354"
     y1="-113.30627"
     y2="-118.30627"
     id="line100"
     style="fill:none;stroke:#000000;stroke-width:2;stroke-linecap:round" />
  <polyline
     points="9.99999999999985,-97.3205080756888 14.99999999999984,-105.9807621135332 23.660254037844222,-110.98076211353322"
     id="polyline102"
     style="fill:none;stroke:#000000;stroke-width:2;stroke-linecap:round;stroke-linejoin:round"
     transform="translate(-411.01404,-10.985758)" />
  <polyline
     points="14.99999999999984,-105.9807621135332 19.99999999999983,-114.6410161513776 28.66025403784421,-119.64101615137761 38.66025403784421,-119.64101615137763"
     id="polyline104"
     style="fill:none;stroke:#000000;stroke-width:2;stroke-linecap:round;stroke-linejoin:round"
     transform="translate(-411.01404,-10.985758)" />
  <polyline
     points="28.66025403784421,-119.64101615137761 37.32050807568859,-124.64101615137763 47.32050807568859,-124.64101615137764 55.98076211353299,-119.64101615137766"
     id="polyline106"
     style="fill:none;stroke:#000000;stroke-width:2;stroke-linecap:round;stroke-linejoin:round"
     transform="translate(-411.01404,-10.985758)" />
  <line
     x1="-363.69354"
     x2="-353.69354"
     y1="-135.62677"
     y2="-135.62677"
     id="line108"
     style="fill:none;stroke:#000000;stroke-width:2;stroke-linecap:round" />
  <polyline
     points="37.32050807568859,-124.64101615137763 45.980762113532975,-129.64101615137764 55.980762113532975,-129.64101615137767"
     id="polyline110"
     style="fill:none;stroke:#000000;stroke-width:2;stroke-linecap:round;stroke-linejoin:round"
     transform="translate(-411.01404,-10.985758)" />
  <line
     x1="-365.03329"
     x2="-356.37302"
     y1="-140.62679"
     y2="-145.62679"
     id="line112"
     style="fill:none;stroke:#000000;stroke-width:2;stroke-linecap:round" />
  <polyline
     points="19.99999999999983,-114.6410161513776 24.99999999999982,-123.301270189222 33.6602540378442,-128.301270189222"
     id="polyline114"
     style="fill:none;stroke:#000000;stroke-width:2;stroke-linecap:round;stroke-linejoin:round"
     transform="translate(-411.01404,-10.985758)" />
  <polyline
     points="24.99999999999982,-123.301270189222 29.999999999999808,-131.96152422706638 38.66025403784419,-136.9615242270664 48.6602540378442,-136.96152422706643"
     id="polyline116"
     style="fill:none;stroke:#000000;stroke-width:2;stroke-linecap:round;stroke-linejoin:round"
     transform="translate(-411.01404,-10.985758)" />
  <line
     x1="-372.35379"
     x2="-363.69354"
     y1="-147.94728"
     y2="-152.94728"
     id="line118"
     style="fill:none;stroke:#000000;stroke-width:2;stroke-linecap:round" />
  <polyline
     points="29.999999999999808,-131.96152422706638 34.9999999999998,-140.62177826491077 43.66025403784418,-145.6217782649108"
     id="polyline120"
     style="fill:none;stroke:#000000;stroke-width:2;stroke-linecap:round;stroke-linejoin:round"
     transform="translate(-411.01404,-10.985758)" />
  <line
     x1="-376.01404"
     x2="-371.01404"
     y1="-151.60754"
     y2="-160.26779"
     id="line122"
     style="fill:none;stroke:#000000;stroke-width:2;stroke-linecap:round" />
  <polyline
     points="-1.2401871479474934e-13,-80.00000000000001 -1.3734139109025122e-13,-90.00000000000001 4.999999999999852,-98.66025403784441"
     id="polyline124"
     style="fill:none;stroke:#000000;stroke-width:2;stroke-linecap:round;stroke-linejoin:round"
     transform="translate(-411.01404,-10.985758)" />
  <polyline
     points="-1.3734139109025122e-13,-90.00000000000001 -1.506640673857531e-13,-100.00000000000001 4.999999999999838,-108.66025403784441 13.66025403784422,-113.66025403784442"
     id="polyline126"
     style="fill:none;stroke:#000000;stroke-width:2;stroke-linecap:round;stroke-linejoin:round"
     transform="translate(-411.01404,-10.985758)" />
  <line
     x1="-406.01404"
     x2="-401.01404"
     y1="-119.64602"
     y2="-128.30627"
     id="line128"
     style="fill:none;stroke:#000000;stroke-width:2;stroke-linecap:round" />
  <polyline
     points="-1.506640673857531e-13,-100.00000000000001 -1.6398674368125498e-13,-110.00000000000001 4.999999999999825,-118.66025403784441"
     id="polyline130"
     style="fill:none;stroke:#000000;stroke-width:2;stroke-linecap:round;stroke-linejoin:round"
     transform="translate(-411.01404,-10.985758)" />
  <polyline
     points="-1.6398674368125498e-13,-110.00000000000001 -1.7730941997675686e-13,-120.00000000000001 4.999999999999812,-128.66025403784442 13.660254037844194,-133.66025403784445"
     id="polyline132"
     style="fill:none;stroke:#000000;stroke-width:2;stroke-linecap:round;stroke-linejoin:round"
     transform="translate(-411.01404,-10.985758)" />
  <polyline
     points="4.999999999999812,-128.66025403784442 9.999999999999801,-137.32050807568882 18.660254037844183,-142.32050807568885 28.660254037844187,-142.32050807568888"
     id="polyline134"
     style="fill:none;stroke:#000000;stroke-width:2;stroke-linecap:round;stroke-linejoin:round"
     transform="translate(-411.01404,-10.985758)" />
  <line
     x1="-392.35379"
     x2="-383.69354"
     y1="-153.30627"
     y2="-158.30627"
     id="line136"
     style="fill:none;stroke:#000000;stroke-width:2;stroke-linecap:round" />
  <polyline
     points="9.999999999999801,-137.32050807568882 14.99999999999979,-145.98076211353322 23.660254037844172,-150.98076211353325"
     id="polyline138"
     style="fill:none;stroke:#000000;stroke-width:2;stroke-linecap:round;stroke-linejoin:round"
     transform="translate(-411.01404,-10.985758)" />
  <line
     x1="-396.01404"
     x2="-391.01404"
     y1="-156.96652"
     y2="-165.62679"
     id="line140"
     style="fill:none;stroke:#000000;stroke-width:2;stroke-linecap:round" />
  <polyline
     points="-1.7730941997675686e-13,-120.00000000000001 -1.9063209627225874e-13,-130.00000000000003 4.999999999999798,-138.66025403784442"
     id="polyline142"
     style="fill:none;stroke:#000000;stroke-width:2;stroke-linecap:round;stroke-linejoin:round"
     transform="translate(-411.01404,-10.985758)" />
  <polyline
     points="-1.9063209627225874e-13,-130.00000000000003 -2.0395477256776062e-13,-140.00000000000003 4.999999999999785,-148.66025403784442 13.660254037844167,-153.66025403784445"
     id="polyline144"
     style="fill:none;stroke:#000000;stroke-width:2;stroke-linecap:round;stroke-linejoin:round"
     transform="translate(-411.01404,-10.985758)" />
  <line
     x1="-406.01404"
     x2="-401.01404"
     y1="-159.64601"
     y2="-168.30627"
     id="line146"
     style="fill:none;stroke:#000000;stroke-width:2;stroke-linecap:round" />
  <polyline
     points="-2.0395477256776062e-13,-140.00000000000003 -2.172774488632625e-13,-150.00000000000003 4.999999999999772,-158.66025403784442"
     id="polyline148"
     style="fill:none;stroke:#000000;stroke-width:2;stroke-linecap:round;stroke-linejoin:round"
     transform="translate(-411.01404,-10.985758)" />
  <line
     x1="-411.01404"
     x2="-411.01404"
     y1="-160.98576"
     y2="-170.98576"
     id="line150"
     style="fill:none;stroke:#000000;stroke-width:2;stroke-linecap:round" />
  <line
     x1="-411.01404"
     x2="-411.01404"
     y1="-10.985758"
     y2="-10.985758"
     id="line152"
     style="fill:none;stroke:none;stroke-width:2;stroke-linecap:round" />
  <line
     x1="-411.01404"
     x2="-411.01404"
     y1="-10.985758"
     y2="-10.985758"
     id="line154"
     style="fill:none;stroke:none;stroke-width:2;stroke-linecap:round" />
</svg>
