<?xml version="1.0" encoding="UTF-8" standalone="no"?>
<svg
   xmlns:dc="http://purl.org/dc/elements/1.1/"
   xmlns:cc="http://creativecommons.org/ns#"
   xmlns:rdf="http://www.w3.org/1999/02/22-rdf-syntax-ns#"
   xmlns:svg="http://www.w3.org/2000/svg"
   xmlns="http://www.w3.org/2000/svg"
   xmlns:sodipodi="http://sodipodi.sourceforge.net/DTD/sodipodi-0.dtd"
   xmlns:inkscape="http://www.inkscape.org/namespaces/inkscape"
   height="405.000"
   viewBox="-432.000 -172.000 502.000 405.000"
   width="502.000"
   version="1.1"
   id="svg158"
   sodipodi:docname="8.svg"
   inkscape:version="0.92.4 (5da689c313, 2019-01-14)">
  <metadata
     id="metadata164">
    <rdf:RDF>
      <cc:Work
         rdf:about="">
        <dc:format>image/svg+xml</dc:format>
        <dc:type
           rdf:resource="http://purl.org/dc/dcmitype/StillImage" />
      </cc:Work>
    </rdf:RDF>
  </metadata>
  <defs
     id="defs162" />
  <sodipodi:namedview
     pagecolor="#ffffff"
     bordercolor="#666666"
     borderopacity="1"
     objecttolerance="10"
     gridtolerance="10"
     guidetolerance="10"
     inkscape:pageopacity="0"
     inkscape:pageshadow="2"
     inkscape:window-width="1920"
     inkscape:window-height="1017"
     id="namedview160"
     showgrid="false"
     inkscape:zoom="1.6481699"
     inkscape:cx="251"
     inkscape:cy="202.5"
     inkscape:window-x="1352"
     inkscape:window-y="-8"
     inkscape:window-maximized="1"
     inkscape:current-layer="svg158" />
  <line
     fill="none"
     stroke="none"
     stroke-linecap="round"
     stroke-width="2.0"
     x1="0.0"
     x2="0.0"
     y1="0.0"
     y2="0.0"
     id="line2" />
  <polyline
     fill="none"
     points="-400.0,200.0 -400.0,180.0 -400.0,200.0 -380.0,200.0 -400.0,200.0 -400.0,220.0 -400.0,200.0 -420.0,200.0 -400.0,200.0"
     stroke="#f00"
     stroke-linecap="round"
     stroke-linejoin="round"
     stroke-width="2.0"
     id="polyline4" />
  <polyline
     fill="none"
     points="-400.0,200.0 -400.0,210.0 -400.0,200.0 -400.0,170.0 -385.0,144.01923788646684"
     stroke="#000"
     stroke-linecap="round"
     stroke-linejoin="round"
     stroke-width="2.0"
     id="polyline6" />
  <polygon
     fill="none"
     fill-rule="evenodd"
     points="0.0,0.0 0.0,0.0 0.0,0.0"
     stroke-linejoin="round"
     id="polygon8" />
  <polygon
     fill="#000"
     fill-rule="evenodd"
     points="-400.0,210.0 -395.0,201.0 -400.0,203.0 -405.0,201.0"
     stroke="#000"
     stroke-linejoin="round"
     id="polygon10" />
  <polyline
     fill="none"
     points="-400.0,170.0 -400.0,140.0 -400.0,130.0 -400.0,140.0"
     stroke="#000"
     stroke-linecap="round"
     stroke-linejoin="round"
     stroke-width="2.0"
     id="polyline12" />
  <polygon
     fill="#000"
     fill-rule="evenodd"
     points="-400.0,130.0 -405.0,139.0 -400.0,137.0 -395.0,139.0"
     stroke="#000"
     stroke-linejoin="round"
     id="polygon14" />
  <polyline
     fill="none"
     points="-400.0,0.0 -400.0,-20.0 -400.0,-0.0 -380.0,-1.0106430996148605e-14 -400.0,-0.0 -400.0,20.0 -400.0,-0.0 -420.0,1.2555724594443313e-14 -400.0,-0.0"
     stroke="#f00"
     stroke-linecap="round"
     stroke-linejoin="round"
     stroke-width="2.0"
     id="polyline16" />
  <line
     fill="none"
     stroke="#000"
     stroke-linecap="round"
     stroke-width="2.0"
     x1="-400.0"
     x2="-400.0"
     y1="-0.0"
     y2="-10.0"
     id="line18" />
  <polyline
     fill="none"
     points="-300.0,0.0 -300.0,-20.0 -300.0,-0.0 -280.0,-1.500501819273802e-14 -300.0,-0.0 -300.0,20.0 -300.0,-0.0 -320.0,1.7454311791032725e-14 -300.0,-0.0"
     stroke="#f00"
     stroke-linecap="round"
     stroke-linejoin="round"
     stroke-width="2.0"
     id="polyline20" />
  <polyline
     fill="none"
     points="-300.0,-0.0 -300.0,-10.0 -295.0,-18.66025403784439"
     stroke="#000"
     stroke-linecap="round"
     stroke-linejoin="round"
     stroke-width="2.0"
     id="polyline22" />
  <line
     fill="none"
     stroke="#000"
     stroke-linecap="round"
     stroke-width="2.0"
     x1="-300.0"
     x2="-300.0"
     y1="-10.0"
     y2="-20.0"
     id="line24" />
  <polyline
     fill="none"
     points="-200.0,0.0 -200.00000000000003,-20.0 -200.0,-0.0 -180.0,-2.0098438217775013e-14 -200.0,-0.0 -199.99999999999997,20.0 -200.0,-0.0 -220.0,2.2547731816069716e-14 -200.0,-0.0"
     stroke="#f00"
     stroke-linecap="round"
     stroke-linejoin="round"
     stroke-width="2.0"
     id="polyline26" />
  <polyline
     fill="none"
     points="-200.0,-0.0 -200.0,-10.0 -195.0,-18.660254037844393"
     stroke="#000"
     stroke-linecap="round"
     stroke-linejoin="round"
     stroke-width="2.0"
     id="polyline28" />
  <polyline
     fill="none"
     points="-200.0,-10.0 -200.0,-20.0 -195.0,-28.660254037844393 -186.33974596215563,-33.6602540378444"
     stroke="#000"
     stroke-linecap="round"
     stroke-linejoin="round"
     stroke-width="2.0"
     id="polyline30" />
  <line
     fill="none"
     stroke="#000"
     stroke-linecap="round"
     stroke-width="2.0"
     x1="-195.0"
     x2="-190.0"
     y1="-28.660254037844393"
     y2="-37.320508075688785"
     id="line32" />
  <polyline
     fill="none"
     points="-200.0,-20.0 -200.0,-30.0 -195.0,-38.660254037844396"
     stroke="#000"
     stroke-linecap="round"
     stroke-linejoin="round"
     stroke-width="2.0"
     id="polyline34" />
  <line
     fill="none"
     stroke="#000"
     stroke-linecap="round"
     stroke-width="2.0"
     x1="-200.0"
     x2="-200.0"
     y1="-30.0"
     y2="-40.0"
     id="line36" />
  <polyline
     fill="none"
     points="-100.0,0.0 -100.00000000000001,-20.0 -100.0,-0.0 -80.0,-2.2318884267025326e-14 -100.0,-0.0 -99.99999999999997,20.0 -100.0,-0.0 -120.0,2.476817786532003e-14 -100.0,-0.0"
     stroke="#f00"
     stroke-linecap="round"
     stroke-linejoin="round"
     stroke-width="2.0"
     id="polyline38" />
  <polyline
     fill="none"
     points="-100.0,-0.0 -100.00000000000001,-10.0 -95.00000000000003,-18.660254037844396"
     stroke="#000"
     stroke-linecap="round"
     stroke-linejoin="round"
     stroke-width="2.0"
     id="polyline40" />
  <polyline
     fill="none"
     points="-100.00000000000001,-10.0 -100.00000000000003,-20.0 -95.00000000000004,-28.660254037844396 -86.33974596215566,-33.66025403784441"
     stroke="#000"
     stroke-linecap="round"
     stroke-linejoin="round"
     stroke-width="2.0"
     id="polyline42" />
  <line
     fill="none"
     stroke="#000"
     stroke-linecap="round"
     stroke-width="2.0"
     x1="-95.00000000000004"
     x2="-90.00000000000006"
     y1="-28.660254037844396"
     y2="-37.32050807568879"
     id="line44" />
  <polyline
     fill="none"
     points="-100.00000000000003,-20.0 -100.00000000000004,-30.0 -95.00000000000006,-38.660254037844396"
     stroke="#000"
     stroke-linecap="round"
     stroke-linejoin="round"
     stroke-width="2.0"
     id="polyline46" />
  <polyline
     fill="none"
     points="-100.00000000000004,-30.0 -100.00000000000006,-40.0 -95.00000000000007,-48.660254037844396 -86.33974596215569,-53.66025403784441"
     stroke="#000"
     stroke-linecap="round"
     stroke-linejoin="round"
     stroke-width="2.0"
     id="polyline48" />
  <polyline
     fill="none"
     points="-95.00000000000007,-48.660254037844396 -90.00000000000009,-57.32050807568879 -81.3397459621557,-62.32050807568881 -71.3397459621557,-62.32050807568882"
     stroke="#000"
     stroke-linecap="round"
     stroke-linejoin="round"
     stroke-width="2.0"
     id="polyline50" />
  <line
     fill="none"
     stroke="#000"
     stroke-linecap="round"
     stroke-width="2.0"
     x1="-81.3397459621557"
     x2="-72.67949192431132"
     y1="-62.32050807568881"
     y2="-67.32050807568882"
     id="line52" />
  <polyline
     fill="none"
     points="-90.00000000000009,-57.32050807568879 -85.0000000000001,-65.98076211353319 -76.33974596215572,-70.9807621135332"
     stroke="#000"
     stroke-linecap="round"
     stroke-linejoin="round"
     stroke-width="2.0"
     id="polyline54" />
  <line
     fill="none"
     stroke="#000"
     stroke-linecap="round"
     stroke-width="2.0"
     x1="-85.0000000000001"
     x2="-80.00000000000011"
     y1="-65.98076211353319"
     y2="-74.64101615137758"
     id="line56" />
  <polyline
     fill="none"
     points="-100.00000000000006,-40.0 -100.00000000000007,-50.0 -95.00000000000009,-58.660254037844396"
     stroke="#000"
     stroke-linecap="round"
     stroke-linejoin="round"
     stroke-width="2.0"
     id="polyline58" />
  <polyline
     fill="none"
     points="-100.00000000000007,-50.0 -100.00000000000009,-60.0 -95.0000000000001,-68.6602540378444 -86.33974596215572,-73.66025403784441"
     stroke="#000"
     stroke-linecap="round"
     stroke-linejoin="round"
     stroke-width="2.0"
     id="polyline60" />
  <line
     fill="none"
     stroke="#000"
     stroke-linecap="round"
     stroke-width="2.0"
     x1="-95.0000000000001"
     x2="-90.00000000000011"
     y1="-68.6602540378444"
     y2="-77.32050807568879"
     id="line62" />
  <polyline
     fill="none"
     points="-100.00000000000009,-60.0 -100.0000000000001,-70.0 -95.00000000000011,-78.6602540378444"
     stroke="#000"
     stroke-linecap="round"
     stroke-linejoin="round"
     stroke-width="2.0"
     id="polyline64" />
  <line
     fill="none"
     stroke="#000"
     stroke-linecap="round"
     stroke-width="2.0"
     x1="-100.0000000000001"
     x2="-100.00000000000011"
     y1="-70.0"
     y2="-80.0"
     id="line66" />
  <polyline
     fill="none"
     points="0.0,0.0 -2.6645352591003757e-14,-20.000000000000007 0.0,-0.0 20.000000000000007,-2.7869999390151112e-14 0.0,-0.0 2.9094646189298466e-14,20.000000000000007 0.0,-0.0 -20.000000000000007,3.0319292988445824e-14 0.0,-0.0"
     stroke="#f00"
     stroke-linecap="round"
     stroke-linejoin="round"
     stroke-width="2.0"
     id="polyline68" />
  <polyline
     fill="none"
     points="0.0,-0.0 -1.5771969893796588e-14,-10.000000000000004 4.999999999999972,-18.660254037844403"
     stroke="#000"
     stroke-linecap="round"
     stroke-linejoin="round"
     stroke-width="2.0"
     id="polyline70" />
  <polyline
     fill="none"
     points="-1.5771969893796588e-14,-10.000000000000004 -3.187020375086136e-14,-20.000000000000007 4.999999999999956,-28.660254037844403 13.660254037844338,-33.660254037844425"
     stroke="#000"
     stroke-linecap="round"
     stroke-linejoin="round"
     stroke-width="2.0"
     id="polyline72" />
  <line
     fill="none"
     stroke="#000"
     stroke-linecap="round"
     stroke-width="2.0"
     x1="4.999999999999956"
     x2="9.999999999999943"
     y1="-28.660254037844403"
     y2="-37.32050807568881"
     id="line74" />
  <polyline
     fill="none"
     points="-3.187020375086136e-14,-20.000000000000007 -4.741332609561355e-14,-30.00000000000001 4.9999999999999405,-38.66025403784441"
     stroke="#000"
     stroke-linecap="round"
     stroke-linejoin="round"
     stroke-width="2.0"
     id="polyline76" />
  <polyline
     fill="none"
     points="-4.741332609561355e-14,-30.00000000000001 -6.295644844036573e-14,-40.000000000000014 4.9999999999999245,-48.66025403784441 13.660254037844307,-53.660254037844425"
     stroke="#000"
     stroke-linecap="round"
     stroke-linejoin="round"
     stroke-width="2.0"
     id="polyline78" />
  <polyline
     fill="none"
     points="4.9999999999999245,-48.66025403784441 9.999999999999913,-57.32050807568881 18.660254037844297,-62.32050807568882 28.6602540378443,-62.32050807568884"
     stroke="#000"
     stroke-linecap="round"
     stroke-linejoin="round"
     stroke-width="2.0"
     id="polyline80" />
  <line
     fill="none"
     stroke="#000"
     stroke-linecap="round"
     stroke-width="2.0"
     x1="18.660254037844297"
     x2="27.32050807568868"
     y1="-62.32050807568882"
     y2="-67.32050807568883"
     id="line82" />
  <polyline
     fill="none"
     points="9.999999999999913,-57.32050807568881 14.999999999999902,-65.9807621135332 23.660254037844282,-70.98076211353322"
     stroke="#000"
     stroke-linecap="round"
     stroke-linejoin="round"
     stroke-width="2.0"
     id="polyline84" />
  <line
     fill="none"
     stroke="#000"
     stroke-linecap="round"
     stroke-width="2.0"
     x1="14.999999999999902"
     x2="19.999999999999893"
     y1="-65.9807621135332"
     y2="-74.6410161513776"
     id="line86" />
  <polyline
     fill="none"
     points="-6.295644844036573e-14,-40.000000000000014 -7.794445927280535e-14,-50.000000000000014 4.99999999999991,-58.66025403784441"
     stroke="#000"
     stroke-linecap="round"
     stroke-linejoin="round"
     stroke-width="2.0"
     id="polyline88" />
  <polyline
     fill="none"
     points="-7.794445927280535e-14,-50.000000000000014 -9.293247010524496e-14,-60.000000000000014 4.999999999999895,-68.66025403784441 13.660254037844277,-73.66025403784442"
     stroke="#000"
     stroke-linecap="round"
     stroke-linejoin="round"
     stroke-width="2.0"
     id="polyline90" />
  <line
     fill="none"
     stroke="#000"
     stroke-linecap="round"
     stroke-width="2.0"
     x1="4.999999999999895"
     x2="9.999999999999883"
     y1="-68.66025403784441"
     y2="-77.3205080756888"
     id="line92" />
  <polyline
     fill="none"
     points="-9.293247010524496e-14,-60.000000000000014 -1.0847559244999715e-13,-70.00000000000001 4.999999999999879,-78.66025403784441"
     stroke="#000"
     stroke-linecap="round"
     stroke-linejoin="round"
     stroke-width="2.0"
     id="polyline94" />
  <polyline
     fill="none"
     points="-1.0847559244999715e-13,-70.00000000000001 -1.2401871479474934e-13,-80.00000000000001 4.999999999999863,-88.66025403784441 13.660254037844245,-93.66025403784442"
     stroke="#000"
     stroke-linecap="round"
     stroke-linejoin="round"
     stroke-width="2.0"
     id="polyline96" />
  <polyline
     fill="none"
     points="4.999999999999863,-88.66025403784441 9.99999999999985,-97.3205080756888 18.660254037844233,-102.32050807568882 28.660254037844236,-102.32050807568883"
     stroke="#000"
     stroke-linecap="round"
     stroke-linejoin="round"
     stroke-width="2.0"
     id="polyline98" />
  <line
     fill="none"
     stroke="#000"
     stroke-linecap="round"
     stroke-width="2.0"
     x1="18.660254037844233"
     x2="27.320508075688615"
     y1="-102.32050807568882"
     y2="-107.32050807568883"
     id="line100" />
  <polyline
     fill="none"
     points="9.99999999999985,-97.3205080756888 14.99999999999984,-105.9807621135332 23.660254037844222,-110.98076211353322"
     stroke="#000"
     stroke-linecap="round"
     stroke-linejoin="round"
     stroke-width="2.0"
     id="polyline102" />
  <polyline
     fill="none"
     points="14.99999999999984,-105.9807621135332 19.99999999999983,-114.6410161513776 28.66025403784421,-119.64101615137761 38.66025403784421,-119.64101615137763"
     stroke="#000"
     stroke-linecap="round"
     stroke-linejoin="round"
     stroke-width="2.0"
     id="polyline104" />
  <polyline
     fill="none"
     points="28.66025403784421,-119.64101615137761 37.32050807568859,-124.64101615137763 47.32050807568859,-124.64101615137764 55.98076211353299,-119.64101615137766"
     stroke="#000"
     stroke-linecap="round"
     stroke-linejoin="round"
     stroke-width="2.0"
     id="polyline106" />
  <line
     fill="none"
     stroke="#000"
     stroke-linecap="round"
     stroke-width="2.0"
     x1="47.32050807568859"
     x2="57.32050807568859"
     y1="-124.64101615137764"
     y2="-124.64101615137766"
     id="line108" />
  <polyline
     fill="none"
     points="37.32050807568859,-124.64101615137763 45.980762113532975,-129.64101615137764 55.980762113532975,-129.64101615137767"
     stroke="#000"
     stroke-linecap="round"
     stroke-linejoin="round"
     stroke-width="2.0"
     id="polyline110" />
  <line
     fill="none"
     stroke="#000"
     stroke-linecap="round"
     stroke-width="2.0"
     x1="45.980762113532975"
     x2="54.64101615137736"
     y1="-129.64101615137764"
     y2="-134.64101615137767"
     id="line112" />
  <polyline
     fill="none"
     points="19.99999999999983,-114.6410161513776 24.99999999999982,-123.301270189222 33.6602540378442,-128.301270189222"
     stroke="#000"
     stroke-linecap="round"
     stroke-linejoin="round"
     stroke-width="2.0"
     id="polyline114" />
  <polyline
     fill="none"
     points="24.99999999999982,-123.301270189222 29.999999999999808,-131.96152422706638 38.66025403784419,-136.9615242270664 48.6602540378442,-136.96152422706643"
     stroke="#000"
     stroke-linecap="round"
     stroke-linejoin="round"
     stroke-width="2.0"
     id="polyline116" />
  <line
     fill="none"
     stroke="#000"
     stroke-linecap="round"
     stroke-width="2.0"
     x1="38.66025403784419"
     x2="47.32050807568857"
     y1="-136.9615242270664"
     y2="-141.96152422706643"
     id="line118" />
  <polyline
     fill="none"
     points="29.999999999999808,-131.96152422706638 34.9999999999998,-140.62177826491077 43.66025403784418,-145.6217782649108"
     stroke="#000"
     stroke-linecap="round"
     stroke-linejoin="round"
     stroke-width="2.0"
     id="polyline120" />
  <line
     fill="none"
     stroke="#000"
     stroke-linecap="round"
     stroke-width="2.0"
     x1="34.9999999999998"
     x2="39.99999999999979"
     y1="-140.62177826491077"
     y2="-149.28203230275517"
     id="line122" />
  <polyline
     fill="none"
     points="-1.2401871479474934e-13,-80.00000000000001 -1.3734139109025122e-13,-90.00000000000001 4.999999999999852,-98.66025403784441"
     stroke="#000"
     stroke-linecap="round"
     stroke-linejoin="round"
     stroke-width="2.0"
     id="polyline124" />
  <polyline
     fill="none"
     points="-1.3734139109025122e-13,-90.00000000000001 -1.506640673857531e-13,-100.00000000000001 4.999999999999838,-108.66025403784441 13.66025403784422,-113.66025403784442"
     stroke="#000"
     stroke-linecap="round"
     stroke-linejoin="round"
     stroke-width="2.0"
     id="polyline126" />
  <line
     fill="none"
     stroke="#000"
     stroke-linecap="round"
     stroke-width="2.0"
     x1="4.999999999999838"
     x2="9.999999999999828"
     y1="-108.66025403784441"
     y2="-117.3205080756888"
     id="line128" />
  <polyline
     fill="none"
     points="-1.506640673857531e-13,-100.00000000000001 -1.6398674368125498e-13,-110.00000000000001 4.999999999999825,-118.66025403784441"
     stroke="#000"
     stroke-linecap="round"
     stroke-linejoin="round"
     stroke-width="2.0"
     id="polyline130" />
  <polyline
     fill="none"
     points="-1.6398674368125498e-13,-110.00000000000001 -1.7730941997675686e-13,-120.00000000000001 4.999999999999812,-128.66025403784442 13.660254037844194,-133.66025403784445"
     stroke="#000"
     stroke-linecap="round"
     stroke-linejoin="round"
     stroke-width="2.0"
     id="polyline132" />
  <polyline
     fill="none"
     points="4.999999999999812,-128.66025403784442 9.999999999999801,-137.32050807568882 18.660254037844183,-142.32050807568885 28.660254037844187,-142.32050807568888"
     stroke="#000"
     stroke-linecap="round"
     stroke-linejoin="round"
     stroke-width="2.0"
     id="polyline134" />
  <line
     fill="none"
     stroke="#000"
     stroke-linecap="round"
     stroke-width="2.0"
     x1="18.660254037844183"
     x2="27.320508075688565"
     y1="-142.32050807568885"
     y2="-147.32050807568888"
     id="line136" />
  <polyline
     fill="none"
     points="9.999999999999801,-137.32050807568882 14.99999999999979,-145.98076211353322 23.660254037844172,-150.98076211353325"
     stroke="#000"
     stroke-linecap="round"
     stroke-linejoin="round"
     stroke-width="2.0"
     id="polyline138" />
  <line
     fill="none"
     stroke="#000"
     stroke-linecap="round"
     stroke-width="2.0"
     x1="14.99999999999979"
     x2="19.99999999999978"
     y1="-145.98076211353322"
     y2="-154.6410161513776"
     id="line140" />
  <polyline
     fill="none"
     points="-1.7730941997675686e-13,-120.00000000000001 -1.9063209627225874e-13,-130.00000000000003 4.999999999999798,-138.66025403784442"
     stroke="#000"
     stroke-linecap="round"
     stroke-linejoin="round"
     stroke-width="2.0"
     id="polyline142" />
  <polyline
     fill="none"
     points="-1.9063209627225874e-13,-130.00000000000003 -2.0395477256776062e-13,-140.00000000000003 4.999999999999785,-148.66025403784442 13.660254037844167,-153.66025403784445"
     stroke="#000"
     stroke-linecap="round"
     stroke-linejoin="round"
     stroke-width="2.0"
     id="polyline144" />
  <line
     fill="none"
     stroke="#000"
     stroke-linecap="round"
     stroke-width="2.0"
     x1="4.999999999999785"
     x2="9.999999999999774"
     y1="-148.66025403784442"
     y2="-157.32050807568882"
     id="line146" />
  <polyline
     fill="none"
     points="-2.0395477256776062e-13,-140.00000000000003 -2.172774488632625e-13,-150.00000000000003 4.999999999999772,-158.66025403784442"
     stroke="#000"
     stroke-linecap="round"
     stroke-linejoin="round"
     stroke-width="2.0"
     id="polyline148" />
  <line
     fill="none"
     stroke="#000"
     stroke-linecap="round"
     stroke-width="2.0"
     x1="-2.172774488632625e-13"
     x2="-2.3060012515876437e-13"
     y1="-150.00000000000003"
     y2="-160.00000000000003"
     id="line150" />
  <line
     fill="none"
     stroke="none"
     stroke-linecap="round"
     stroke-width="2.0"
     x1="0.0"
     x2="0.0"
     y1="0.0"
     y2="0.0"
     id="line152" />
  <line
     fill="none"
     stroke="none"
     stroke-linecap="round"
     stroke-width="2.0"
     x1="0.0"
     x2="0.0"
     y1="0.0"
     y2="0.0"
     id="line154" />
</svg>
