<?xml version="1.0" encoding="UTF-8" standalone="no"?>
<svg
   xmlns:dc="http://purl.org/dc/elements/1.1/"
   xmlns:cc="http://creativecommons.org/ns#"
   xmlns:rdf="http://www.w3.org/1999/02/22-rdf-syntax-ns#"
   xmlns:svg="http://www.w3.org/2000/svg"
   xmlns="http://www.w3.org/2000/svg"
   xmlns:sodipodi="http://sodipodi.sourceforge.net/DTD/sodipodi-0.dtd"
   xmlns:inkscape="http://www.inkscape.org/namespaces/inkscape"
   sodipodi:docname="2021-LT-01-icon-bike.svg"
   inkscape:version="1.0 (4035a4fb49, 2020-05-01)"
   id="svg2346"
   version="1.1"
   viewBox="0 0 52.85429 34.690258"
   height="34.690258mm"
   width="52.85429mm">
  <defs
     id="defs2340" />
  <sodipodi:namedview
     inkscape:window-maximized="1"
     inkscape:window-y="222"
     inkscape:window-x="-8"
     inkscape:window-height="987"
     inkscape:window-width="1680"
     fit-margin-bottom="0"
     fit-margin-right="0"
     fit-margin-left="0"
     fit-margin-top="0"
     showgrid="false"
     inkscape:document-rotation="0"
     inkscape:current-layer="layer1"
     inkscape:document-units="mm"
     inkscape:cy="-747.79171"
     inkscape:cx="-495.40807"
     inkscape:zoom="0.35"
     inkscape:pageshadow="2"
     inkscape:pageopacity="0.0"
     borderopacity="1.0"
     bordercolor="#666666"
     pagecolor="#ffffff"
     id="base" />
  <metadata
     id="metadata2343">
    <rdf:RDF>
      <cc:Work
         rdf:about="">
        <dc:format>image/svg+xml</dc:format>
        <dc:type
           rdf:resource="http://purl.org/dc/dcmitype/StillImage" />
        <dc:title></dc:title>
      </cc:Work>
    </rdf:RDF>
  </metadata>
  <g
     transform="translate(-236.91005,-346.01989)"
     id="layer1"
     inkscape:groupmode="layer"
     inkscape:label="Ebene 1">
    <g
       id="g1906"
       transform="matrix(1.2536552,0,0,1.2536552,210.53254,192.88212)">
      <path
         id="path1931"
         style="color:#000000;font-style:normal;font-variant:normal;font-weight:normal;font-stretch:normal;font-size:medium;line-height:normal;font-family:sans-serif;font-variant-ligatures:normal;font-variant-position:normal;font-variant-caps:normal;font-variant-numeric:normal;font-variant-alternates:normal;font-variant-east-asian:normal;font-feature-settings:normal;font-variation-settings:normal;text-indent:0;text-align:start;text-decoration:none;text-decoration-line:none;text-decoration-style:solid;text-decoration-color:#000000;letter-spacing:normal;word-spacing:normal;text-transform:none;writing-mode:lr-tb;direction:ltr;text-orientation:mixed;dominant-baseline:auto;baseline-shift:baseline;text-anchor:start;white-space:normal;shape-padding:0;shape-margin:0;inline-size:0;clip-rule:nonzero;display:inline;overflow:visible;visibility:visible;opacity:1;isolation:auto;mix-blend-mode:normal;color-interpolation:sRGB;color-interpolation-filters:linearRGB;solid-color:#000000;solid-opacity:1;vector-effect:none;fill:#000000;fill-opacity:1;fill-rule:nonzero;stroke:none;stroke-width:1.48258;stroke-linecap:butt;stroke-linejoin:miter;stroke-miterlimit:4;stroke-dasharray:none;stroke-dashoffset:0;stroke-opacity:1;paint-order:stroke fill markers;color-rendering:auto;image-rendering:auto;shape-rendering:auto;text-rendering:auto;enable-background:accumulate;stop-color:#000000;stop-opacity:1"
         d="m 46.347025,122.15372 c -0.898075,-0.0116 -1.77573,0.12549 -2.384144,0.0723 -0.296394,-0.0259 -0.557631,0.19347 -0.583643,0.48985 -0.02577,0.2964 0.193465,0.55764 0.489858,0.58364 0.826697,0.0723 1.699432,-0.0776 2.463298,-0.0679 1.768958,0.16412 1.492138,0.43216 1.886828,1.82619 0.468304,1.37772 0.20251,1.07065 -1.212688,1.35157 -0.924291,0.18214 -1.978935,0.30945 -2.270348,0.30945 -0.297792,3.1e-4 -0.538949,0.24194 -0.538534,0.53973 4.54e-4,0.29721 0.241332,0.538 0.538534,0.53825 0.525391,0 1.505348,-0.13781 2.477936,-0.32947 0.486291,-0.0959 0.956122,-0.20505 1.342317,-0.32526 0.135093,-0.0421 0.256575,-0.0864 0.372162,-0.13381 0.317115,0.92777 0.637865,1.928 0.963286,2.95224 -5.328617,0.10033 -10.638024,1.69079 -15.919008,2.37519 0.382545,-0.83318 0.761259,-1.62491 1.136217,-2.35667 0.743515,-0.0177 1.411465,-0.0603 1.947165,-0.12186 0.358581,-0.0413 0.653357,-0.0875 0.904143,-0.15561 0.125381,-0.034 0.237734,-0.0687 0.374852,-0.14577 0.06862,-0.0385 0.14738,-0.087 0.235973,-0.18728 0.08855,-0.10022 0.192051,-0.28302 0.192051,-0.5003 0,-0.2173 -0.103496,-0.39975 -0.192051,-0.50002 -0.08855,-0.10022 -0.167407,-0.14786 -0.235973,-0.18637 -0.137118,-0.077 -0.249471,-0.11139 -0.374852,-0.14547 -0.250786,-0.0682 -0.545562,-0.11469 -0.904143,-0.15592 -0.717141,-0.0824 -1.670972,-0.13083 -2.726448,-0.13083 -1.055468,0 -2.010184,0.0485 -2.727339,0.13083 -0.358574,0.0413 -0.653343,0.0878 -0.904136,0.15592 -0.125389,0.034 -0.237734,0.0685 -0.374852,0.14547 -0.06862,0.0385 -0.14738,0.0862 -0.235966,0.18637 -0.08856,0.10022 -0.192066,0.28272 -0.192066,0.50002 1.5e-5,0.21728 0.103496,0.40004 0.192066,0.5003 0.08856,0.10023 0.1674,0.14878 0.235966,0.18728 0.137118,0.077 0.249463,0.11169 0.374852,0.14577 0.250793,0.0682 0.545562,0.11439 0.904136,0.15561 0.510859,0.0588 1.145761,0.0992 1.848301,0.11829 -0.600601,1.21772 -1.202577,2.55247 -1.80648,3.9203 -0.774015,-0.24467 -1.597115,-0.37754 -2.450753,-0.37754 -4.494159,0 -8.153059,3.65889 -8.153059,8.15305 0,4.49415 3.6589,8.15305 8.153059,8.15305 4.494151,0 8.152749,-3.6589 8.152749,-8.15305 0,-0.69721 -0.08834,-1.37419 -0.253892,-2.02064 1.326394,-0.43 2.670396,-0.89058 3.986021,-1.41012 3.742505,-1.47791 7.282885,-3.40634 9.413228,-6.39974 0.258744,0.80801 0.524258,1.6217 0.799295,2.43044 -2.609153,1.36145 -4.39612,4.09192 -4.39612,7.23189 0,4.49416 3.65859,8.15275 8.152749,8.15275 4.494159,0 8.153059,-3.65859 8.153059,-8.15275 0,-4.49415 -3.6589,-8.15305 -8.153059,-8.15305 -0.96324,0 -1.887447,0.16925 -2.746149,0.47761 -1.078246,-3.18333 -2.047343,-6.5231 -3.056803,-9.10707 -0.515333,-1.78278 -0.604553,-2.51745 -2.897595,-2.56695 z m 2.553214,9.3281 c -1.909333,2.34424 -4.976883,4.04088 -8.365718,5.37911 -1.290135,0.50947 -2.620458,0.96371 -3.943013,1.39101 -0.749651,-1.61465 -2.011544,-2.94477 -3.576821,-3.77934 0.08267,-0.18738 0.165888,-0.37584 0.248216,-0.56123 5.396964,-0.58874 10.62269,-2.14723 15.637336,-2.42955 z m 6.147333,3.3507 c 3.692915,0 6.670964,2.97774 6.670964,6.67066 0,3.6929 -2.978049,6.67064 -6.670964,6.67065 -3.692915,0 -6.670639,-2.97774 -6.670639,-6.67065 0,-2.50556 1.371699,-4.68069 3.406565,-5.82118 0.579735,1.60565 1.207073,3.14517 1.90325,4.50694 -0.340475,0.35267 -0.530757,0.82373 -0.530772,1.31393 -3.1e-5,1.04489 0.847018,1.89195 1.891906,1.89191 1.04476,-1.3e-4 1.891642,-0.84714 1.891604,-1.89191 3.8e-5,-1.04476 -0.846844,-1.89177 -1.891604,-1.8919 -0.140405,1e-4 -0.280357,0.0158 -0.417278,0.0468 -0.66331,-1.31613 -1.271876,-2.83327 -1.84441,-4.43375 0.705843,-0.25319 1.466784,-0.39158 2.261378,-0.39158 z m -25.85403,0.16817 c 0.642392,0 1.262286,0.0918 1.849488,0.26016 -0.677427,1.54389 -1.358172,3.09296 -2.043942,4.52875 -0.964291,0.0996 -1.697256,0.91202 -1.697452,1.88144 -3.1e-5,1.04488 0.847018,1.89193 1.891906,1.8919 1.044881,3e-5 1.891944,-0.84702 1.891899,-1.8919 1.5e-5,-0.0435 -7.56e-4,-0.087 -0.0045,-0.13053 1.412062,-0.46488 2.974037,-0.93184 4.596537,-1.43879 0.120779,0.50335 0.186685,1.02843 0.186685,1.56961 0,3.69292 -2.977739,6.67066 -6.670654,6.67066 -3.692915,0 -6.670949,-2.97774 -6.670949,-6.67066 0,-3.6929 2.978034,-6.67064 6.670949,-6.67064 z m 3.224663,0.82677 c 1.186132,0.65416 2.149191,1.65902 2.752732,2.87609 -1.646457,0.51344 -3.251008,0.99461 -4.718117,1.48269 0.666386,-1.40503 1.321134,-2.89107 1.965385,-4.35878 z"
         sodipodi:nodetypes="ccccccccscssccccsssssssssssssssssssccsssscsccssssccccsccccssssccscccccssccccsccsssscccccc" />
    </g>
  </g>
</svg>
