<?xml version="1.0" encoding="UTF-8" standalone="no"?>
<!-- Created with Inkscape (http://www.inkscape.org/) -->

<svg
   width="20.884892mm"
   height="27.636389mm"
   viewBox="0 0 20.884892 27.636389"
   version="1.1"
   id="svg8877"
   inkscape:version="1.1.1 (3bf5ae0d25, 2021-09-20)"
   sodipodi:docname="2022-DE-06-answerC.svg"
   xmlns:inkscape="http://www.inkscape.org/namespaces/inkscape"
   xmlns:sodipodi="http://sodipodi.sourceforge.net/DTD/sodipodi-0.dtd"
   xmlns="http://www.w3.org/2000/svg"
   xmlns:svg="http://www.w3.org/2000/svg"
   xmlns:serif="http://www.serif.com/">
  <sodipodi:namedview
     id="namedview8879"
     pagecolor="#ffffff"
     bordercolor="#666666"
     borderopacity="1.0"
     inkscape:pageshadow="2"
     inkscape:pageopacity="0.0"
     inkscape:pagecheckerboard="0"
     inkscape:document-units="mm"
     showgrid="false"
     inkscape:zoom="0.66368547"
     inkscape:cx="219.23035"
     inkscape:cy="124.30587"
     inkscape:window-width="1920"
     inkscape:window-height="1137"
     inkscape:window-x="-8"
     inkscape:window-y="-8"
     inkscape:window-maximized="1"
     inkscape:current-layer="layer1" />
  <defs
     id="defs8874" />
  <g
     inkscape:label="Ebene 1"
     inkscape:groupmode="layer"
     id="layer1"
     transform="translate(-46.886918,-115.88039)">
    <g
       transform="matrix(0.26458333,0,0,0.26458333,-294.14054,-74.160022)"
       id="g2503"
       style="clip-rule:evenodd;fill-rule:evenodd;stroke-linecap:round;stroke-linejoin:round;stroke-miterlimit:1.5">
      <g
         id="g2501">
        <g
           transform="translate(2.3027,152.676)"
           id="g2410">
          <path
             d="m 1359.3,566.146 c -24.03,0.549 -48.14,0.239 -71.54,8.29 -1.38,-0.686 0.08,90.768 3.58,92.794 4.96,2.868 62.81,-10.141 73.59,-6.447 z"
             id="path2408" />
        </g>
        <path
           d="m 1363.59,761.823 c -24.09,-2.422 -48.53,0.872 -72.98,4.122 l 2.71,53.99 73.25,-7.41 z"
           style="fill:#ff9b00"
           id="path2412" />
        <g
           transform="translate(-0.583793,-1.08238)"
           id="g2416">
          <path
             d="m 1293.72,727.514 c -0.7,30.298 0.13,60.978 2.69,91.885 l -3.17,0.527 c -2.27,-30.367 -3.43,-59.963 -3.05,-91.266 z"
             style="fill:#ff0d00"
             id="path2414" />
        </g>
        <g
           transform="translate(2.30272,152.742)"
           id="g2420">
          <path
             d="m 1359.3,566.146 c -24.03,0.549 -48.14,0.239 -71.54,8.29 -1.38,-0.686 0.08,90.768 3.58,92.794 4.96,2.868 62.81,-10.141 73.59,-6.447 z"
             style="fill:none;stroke:#000000;stroke-width:1.25px"
             id="path2418" />
        </g>
        <g
           transform="translate(2.30272,152.742)"
           id="g2424">
          <path
             d="m 1364.16,660.992 c -0.59,0.881 0.43,5.801 -1.83,6.076 -23.04,2.814 -48.49,3.199 -70.99,0.162"
             style="fill:none;stroke:#000000;stroke-width:1.25px"
             id="path2422" />
        </g>
        <g
           transform="translate(2.30272,152.742)"
           id="g2428">
          <path
             d="m 1296.83,667.616 c 21.88,-0.827 46.29,-3.607 66.79,-5.703"
             style="fill:none;stroke:#000000;stroke-width:1.25px"
             id="path2426" />
        </g>
        <g
           id="path4083-118"
           serif:id="path4083-1"
           transform="matrix(0.051029,-0.00193945,0.00317541,0.0835484,1309.43,724.463)">
          <path
             d="m 199.181,701.173 c 0,0 -96.534,-73.746 -87.195,-0.841 2.045,15.962 4.469,49.083 8.861,76.048 5.608,34.43 -8.914,65.365 -4.692,104.349 l 80.805,0.954 z"
             style="fill:#b30707;fill-rule:nonzero"
             id="path2430" />
        </g>
        <g
           transform="translate(2.42028,154.45)"
           id="g2435">
          <path
             d="m 1295.52,666.014 c 21.88,-0.828 47.7,-1.467 68.2,-3.563"
             style="fill:none;stroke:#000000;stroke-width:1.25px"
             id="path2433" />
        </g>
        <g
           id="path406336"
           serif:id="path4063"
           transform="matrix(0.0221052,-8.4015e-4,8.4015e-4,0.0221052,1295.42,729.552)">
          <path
             d="M 1125.75,14.832 C 903.168,143.325 750.201,530.946 749.952,967.101 c 0.222,15.526 0.637,31.039 1.246,46.529 h -1.246 V 2457.08 H 1499.91 V 1013.63 H 1499 c 0.5,-15.495 0.8,-31.008 0.91,-46.529 -0.03,-435.333 -152.22,-822.683 -374.16,-952.269 z"
             style="fill:#ececec;fill-rule:nonzero"
             id="path2437" />
        </g>
        <g
           transform="translate(-0.713453,-2.84428)"
           id="g2442">
          <path
             d="m 1324.7,743.62 2.71,41.98 -7.89,0.209 -0.77,-42.145 z"
             style="fill:none"
             id="path2440" />
        </g>
        <g
           transform="translate(-0.713279,-2.76007)"
           id="g2446">
          <path
             d="m 1326.94,778.31 0.47,7.29 -7.89,0.209 -0.13,-7.306 z"
             style="fill:#ff0000"
             id="path2444" />
        </g>
        <g
           transform="translate(-0.713279,-2.76007)"
           id="g2450">
          <path
             d="m 1326.35,769.112 -7.12,0.816 -0.15,-8.518 6.73,-0.609 z"
             style="fill:#ff0000"
             id="path2448" />
        </g>
        <g
           transform="translate(-0.713279,-2.76007)"
           id="g2454">
          <path
             d="m 1325.25,752.023 -5.07,0.522 -1.26,0.136 -0.17,-9.017 5.95,-0.044 z"
             style="fill:#ff0000"
             id="path2452" />
        </g>
        <g
           id="path406337"
           serif:id="path4063"
           transform="translate(-60.4889,-8.977)">
          <path
             d="m 1373.3,759.475 c 0.02,0.305 0.04,0.609 0.07,0.913 l -0.03,0.002 0.29,7.709 5.22,-0.472 -0.16,-8.729 c -1.91,0.201 -3.78,0.4 -5.39,0.577 z"
             style="fill:#ff0000;fill-rule:nonzero"
             id="path2456" />
        </g>
        <g
           id="path406338"
           serif:id="path4063"
           transform="translate(-60.4889,-8.977)">
          <path
             d="m 1389.83,757.746 -4.81,0.494 0.57,8.778 4.58,-0.414 -0.26,-6.845 -0.02,10e-4 c 0,-0.343 0,-0.686 -0.01,-1.029 -0.02,-0.33 -0.03,-0.659 -0.05,-0.985 z"
             style="fill:#ff0000;fill-rule:nonzero"
             id="path2459" />
        </g>
        <g
           id="path4063-712"
           serif:id="path4063-7"
           transform="translate(-0.713453,-2.84428)">
          <path
             d="m 1328.36,751.787 c 0.01,0.214 0.02,0.429 0.03,0.644 0.01,0.343 0.01,0.686 0.02,1.029 l 0.02,-0.001 0.27,7.165 1.7,-0.153 -0.26,-6.844 -0.02,0.001 c 0,-0.343 -0.01,-0.687 -0.02,-1.03 -0.01,-0.33 -0.03,-0.659 -0.05,-0.985 z"
             style="fill:#b30707;fill-rule:nonzero"
             id="path2462" />
        </g>
        <g
           transform="translate(-0.713453,-2.84428)"
           id="g2467">
          <path
             d="m 1334.18,768.211 -23.12,2.656 1.1,7.821 21.56,-0.551 z"
             style="fill:none"
             id="path2465" />
        </g>
        <g
           id="path406339"
           serif:id="path4063"
           transform="translate(-60.4889,-8.977)">
          <path
             d="m 1373.96,776.725 0.31,8.12 4.89,-0.125 -0.15,-8.575 z"
             style="fill:#ff0000;fill-rule:nonzero"
             id="path2469" />
        </g>
        <g
           id="path406340"
           serif:id="path4063"
           transform="translate(-60.4889,-8.977)">
          <path
             d="m 1390.49,774.827 -4.37,0.501 0.59,9.199 4.14,-0.106 z"
             style="fill:#ff0000;fill-rule:nonzero"
             id="path2472" />
        </g>
        <g
           id="path4063-713"
           serif:id="path4063-7"
           transform="translate(-0.713453,-2.84428)">
          <path
             d="m 1329.01,768.889 0.36,9.443 1.71,-0.043 -0.37,-9.595 z"
             style="fill:#b30707;fill-rule:nonzero"
             id="path2475" />
        </g>
        <g
           id="path4083-119"
           serif:id="path4083-1"
           transform="matrix(0.0835484,-0.00317541,0.00317541,0.0835484,1295.42,729.552)">
          <path
             d="M 198.425,457.247 C 141.21,571.47 106.667,705.535 126.324,887.04 l 68.67,-29.62 2.507,-132.425 z"
             style="fill:#ff0000;fill-rule:nonzero"
             id="path2478" />
        </g>
        <g
           id="path4083-120"
           serif:id="path4083-1"
           transform="matrix(-0.0833152,0.00699924,0.00699924,0.0833152,1342.52,726.802)">
          <path
             d="M 198.425,457.247 C 141.21,571.47 106.667,705.535 126.324,887.04 l 70.557,-30.434 0.62,-131.611 z"
             style="fill:#ff0000;fill-rule:nonzero"
             id="path2481" />
        </g>
        <g
           id="path4063-36"
           serif:id="path4063-3"
           transform="matrix(0.0835484,-0.00317541,0.00317541,0.0835484,1295.42,729.552)">
          <path
             d="m 297.824,3.924 c -39.798,22.975 -71.079,76.861 -87.27,144.977 H 384.721 C 368.61,80.928 337.475,27.076 297.824,3.924 Z"
             style="fill:#ff0000;fill-rule:nonzero"
             id="path2484" />
        </g>
        <g
           id="path4063-3-66"
           serif:id="path4063-3-6"
           transform="matrix(0.0835484,-0.00317541,0.00317541,0.0835484,1295.42,729.552)">
          <path
             d="m 298.452,17.746 c -3.315,1.914 -6.556,4.099 -9.719,6.531 15.126,9.528 28.647,24.65 39.987,43.901 10.992,18.658 19.934,41.195 26.303,66.273 h 13.381 C 355.434,79.733 330.371,36.384 298.452,17.746 Z"
             style="fill:#fd8282;fill-rule:nonzero"
             id="path2487" />
        </g>
        <g
           transform="translate(-0.829669,-5.23396)"
           id="g2492">
          <ellipse
             cx="1349.98"
             cy="737.92798"
             rx="8.1289997"
             ry="8.3940001"
             style="fill:#0083ff"
             id="ellipse2490" />
        </g>
        <g
           transform="matrix(0.92996,0,0,0.880381,94.7718,87.5434)"
           id="g2496">
          <path
             d="m 1344.6,739.643 c -2.16,-1.51 -3.58,-4.06 -3.58,-6.949 0,-4.633 3.65,-8.394 8.13,-8.394 2.58,0 4.88,1.24 6.37,3.173 -1.3,-0.912 -2.87,-1.445 -4.56,-1.445 -4.49,0 -8.13,3.762 -8.13,8.395 0,1.972 0.66,3.787 1.77,5.22 z"
             style="fill:#60abf2"
             id="path2494" />
        </g>
        <g
           id="path406341"
           serif:id="path4063"
           transform="translate(-0.713453,-2.84428)">
          <path
             d="m 1314.16,769.969 -0.6,-15.796 0.03,-10e-4 c -0.03,-0.342 -0.05,-0.685 -0.07,-1.028 -0.36,-9.641 2.7,-18.338 7.51,-21.366 5.01,2.678 8.7,11.113 9.07,20.736 0.01,0.343 0.02,0.686 0.02,1.029 h 0.02 l 0.65,17.085 c 5.08,8.814 8.47,19.372 8.13,33.806 l -6.12,-1.732 -1.23,-14.499 c 0.14,-2.253 -0.69,-2.985 -2.18,-2.678 l -6.66,0.253 v 14.662 c -1.36,0.663 -4.13,-0.343 -4.13,-0.343 0,0 0.95,-7.863 -0.1,-14.251 l -1.83,0.162 c -1.24,0.201 -2.06,0.972 -1.78,3.701 l 0.31,13.38 -5.7,3.017 c -2.22,-15.102 0.25,-26.413 4.66,-36.137 z"
             style="fill:none;fill-rule:nonzero;stroke:#000000;stroke-width:1px;stroke-linecap:butt;stroke-miterlimit:2"
             id="path2498" />
        </g>
      </g>
    </g>
  </g>
</svg>
