<?xml version="1.0" encoding="UTF-8" standalone="no"?>
<!-- Created with Inkscape (http://www.inkscape.org/) -->

<svg
   xmlns:dc="http://purl.org/dc/elements/1.1/"
   xmlns:cc="http://creativecommons.org/ns#"
   xmlns:rdf="http://www.w3.org/1999/02/22-rdf-syntax-ns#"
   xmlns:svg="http://www.w3.org/2000/svg"
   xmlns="http://www.w3.org/2000/svg"
   xmlns:sodipodi="http://sodipodi.sourceforge.net/DTD/sodipodi-0.dtd"
   xmlns:inkscape="http://www.inkscape.org/namespaces/inkscape"
   width="48.468613mm"
   height="98.080894mm"
   viewBox="0 0 48.468613 98.080894"
   version="1.1"
   id="svg8194"
   inkscape:version="0.92.2 (5c3e80d, 2017-08-06)"
   sodipodi:docname="weight.svg">
  <defs
     id="defs8188" />
  <sodipodi:namedview
     id="base"
     pagecolor="#ffffff"
     bordercolor="#666666"
     borderopacity="1.0"
     inkscape:pageopacity="0.0"
     inkscape:pageshadow="2"
     inkscape:zoom="0.35"
     inkscape:cx="-417.70726"
     inkscape:cy="455.64245"
     inkscape:document-units="mm"
     inkscape:current-layer="text8854"
     showgrid="false"
     fit-margin-top="0"
     fit-margin-left="0"
     fit-margin-right="0"
     fit-margin-bottom="0"
     inkscape:window-width="1680"
     inkscape:window-height="987"
     inkscape:window-x="-8"
     inkscape:window-y="222"
     inkscape:window-maximized="1" />
  <metadata
     id="metadata8191">
    <rdf:RDF>
      <cc:Work
         rdf:about="">
        <dc:format>image/svg+xml</dc:format>
        <dc:type
           rdf:resource="http://purl.org/dc/dcmitype/StillImage" />
        <dc:title></dc:title>
      </cc:Work>
    </rdf:RDF>
  </metadata>
  <g
     inkscape:label="Ebene 1"
     inkscape:groupmode="layer"
     id="layer1"
     transform="translate(-64.528006,-5.2120026)">
    <g
       aria-label="10 kg"
       style="font-style:normal;font-weight:normal;font-size:10.58333302px;line-height:1.25;font-family:sans-serif;letter-spacing:0px;word-spacing:0px;fill:#000000;fill-opacity:1;stroke:none;stroke-width:0.26458332"
       id="text8854">
      <g
         id="g8908">
        <g
           id="g8790"
           transform="translate(1.0509392,-52.340039)">
          <path
             style="opacity:1;vector-effect:none;fill:#916f6f;fill-opacity:1;stroke:none;stroke-width:0.58750093;stroke-linecap:round;stroke-linejoin:round;stroke-miterlimit:4;stroke-dasharray:none;stroke-dashoffset:0;stroke-opacity:1;paint-order:markers fill stroke"
             d="M 243.31335,570.0636 C 241.26408,568.01433 240,565.17986 240,562.03906 V 345.28711 c 0,-6.28158 5.05631,-11.33789 11.33789,-11.33789 h 23.79492 c 10.67866,0 22.77711,4.31867 23.79492,-37.0791 v -37.0791 c -13.25414,-4.45075 -21.04291,-11.36306 -21.07031,-18.69922 -10e-4,-13.01828 23.98332,-23.572 53.57031,-23.57227 29.58699,2.7e-4 53.57136,10.55399 53.5703,23.57227 -0.0265,7.33616 -7.81616,14.24847 -21.0703,18.69922 v 37.0791 c 1.01781,41.39777 13.11626,37.0791 23.79492,37.0791 h 23.79492 c 6.28158,0 11.33791,5.05631 11.33791,11.33789 v 216.75193 c 0,3.1408 -1.26408,5.97528 -3.31336,8.02455 -23.45813,11.56074 -66.46023,17.71231 -91.82089,18.09155 -25.36066,0.37924 -66.16909,-0.37868 -84.40788,-18.09154 z"
             transform="scale(0.26458333)"
             id="rect7818"
             inkscape:connector-curvature="0"
             sodipodi:nodetypes="csssscccccccssssczc" />
          <path
             style="opacity:1;vector-effect:none;fill:#a28585;fill-opacity:1;stroke:none;stroke-width:0.58750093;stroke-linecap:round;stroke-linejoin:round;stroke-miterlimit:4;stroke-dasharray:none;stroke-dashoffset:0;stroke-opacity:1;paint-order:markers fill stroke"
             d="m 331.42773,217.51953 c -29.58699,2.7e-4 -53.57131,10.55399 -53.57031,23.57227 0.0274,7.33615 7.81618,14.24846 21.07031,18.69922 v 37.07812 c -0.0318,1.29368 -0.0739,2.54213 -0.12695,3.74805 -3e-5,6.2e-4 3e-5,0.001 0,0.002 -0.053,1.2052 -0.11788,2.3677 -0.1914,3.48828 -5e-5,6.3e-4 4e-5,0.001 0,0.002 -0.0735,1.12049 -0.15676,2.19934 -0.25,3.23828 -6e-5,6.2e-4 5e-5,10e-4 0,0.002 -0.0933,1.03884 -0.1964,2.03771 -0.3086,2.99805 -7e-5,6.2e-4 7e-5,10e-4 0,0.002 -0.44905,3.84295 -1.04755,7.06942 -1.76953,9.77734 -1.6e-4,5.9e-4 1.6e-4,10e-4 0,0.002 -0.18037,0.6764 -0.36895,1.32039 -0.56445,1.93359 -1.9e-4,5.7e-4 1.8e-4,0.001 0,0.002 -0.19551,0.6131 -0.39756,1.19511 -0.60742,1.74805 -2.1e-4,5.5e-4 2e-4,0.001 0,0.002 -0.20987,0.55284 -0.42888,1.07653 -0.65235,1.57227 -2.4e-4,5.2e-4 2.4e-4,0.001 0,0.002 -0.22347,0.49565 -0.45314,0.9627 -0.68945,1.4043 -2.7e-4,4.9e-4 2.6e-4,0.001 0,0.002 -0.60916,3.54 -13.47482,3.90781 -20.10704,4.65143 -14.97587,0.82501 -35.237,0.38439 -33.66054,13.84076 v 216.75195 c 0,3.14079 1.26323,5.9761 3.3125,8.02539 2.70105,2.62316 5.91912,4.80963 9.50391,6.6543 8.81297,-63.78853 -19.78509,-165.17662 -1.61133,-220.70703 9.66091,-13.80513 29.32058,-4.9341 38.27344,-12.66797 12.79766,-11.05518 22.69173,-21.01287 23.44921,-44.47266 v -37.08007 c -13.25413,-4.45076 -21.04291,-11.36307 -21.07031,-18.69922 -10e-4,-13.01828 23.98332,-23.572 53.57031,-23.57227 3.22001,3e-5 6.36806,0.1315 9.43165,0.37109 -0.008,-0.002 -0.0155,-0.004 -0.0234,-0.006 -0.87427,-0.18722 -1.76212,-0.36273 -2.66211,-0.5293 -0.002,-3.7e-4 -0.004,-0.002 -0.006,-0.002 -0.0135,-0.003 -0.0275,-0.005 -0.041,-0.008 -0.84937,-0.15678 -1.71113,-0.30361 -2.58203,-0.4414 -0.26009,-0.0411 -0.52517,-0.0778 -0.78711,-0.11719 -0.60589,-0.0912 -1.21463,-0.17991 -1.83008,-0.26172 -0.34613,-0.046 -0.69587,-0.0879 -1.04492,-0.13086 -0.60708,-0.0748 -1.21644,-0.14543 -1.83203,-0.21094 -0.29381,-0.0312 -0.58908,-0.0607 -0.88476,-0.0898 -0.62782,-0.0618 -1.26056,-0.11788 -1.89649,-0.16992 -0.35652,-0.0292 -0.7133,-0.058 -1.07226,-0.084 -0.58436,-0.0424 -1.17309,-0.0793 -1.76368,-0.11328 -0.37715,-0.0217 -0.75323,-0.0462 -1.13281,-0.0644 -0.60555,-0.0291 -1.21666,-0.0482 -1.82812,-0.0684 -0.37905,-0.0125 -0.75552,-0.0281 -1.13672,-0.0371 -0.96306,-0.0227 -1.93221,-0.0371 -2.90821,-0.0371 z m 56.29493,116.42969 c -0.0679,0 -0.13707,0.004 -0.20508,0.004 4.25501,2.86598 9.3736,1.9961 14.20508,1.9961 h 16.23437 c -0.1396,-0.0962 -0.28565,-0.18337 -0.42969,-0.27344 -0.12915,-0.0807 -0.25802,-0.16077 -0.39062,-0.23633 -0.14637,-0.0835 -0.29494,-0.1631 -0.44531,-0.24023 -0.14897,-0.0762 -0.30039,-0.149 -0.45313,-0.21875 -0.14421,-0.066 -0.28813,-0.13325 -0.43555,-0.19336 -0.27884,-0.11333 -0.56203,-0.21923 -0.85156,-0.31055 -10e-4,-4.3e-4 -0.003,-0.002 -0.004,-0.002 -0.0903,-0.0285 -0.18416,-0.0479 -0.27539,-0.0742 -0.2395,-0.0688 -0.48075,-0.13228 -0.72657,-0.18555 -0.10717,-0.0233 -0.21591,-0.0442 -0.32422,-0.0644 -0.24316,-0.0453 -0.48982,-0.0817 -0.73828,-0.11133 -0.10749,-0.0129 -0.21384,-0.0272 -0.32226,-0.0371 -0.34397,-0.0311 -0.69062,-0.0527 -1.04297,-0.0527 z"
             transform="scale(0.26458333)"
             id="rect7818-7"
             inkscape:connector-curvature="0"
             sodipodi:nodetypes="ccccccccccccccccccccccccscccsccccccccccccccccccccccscscccccccccccccss" />
          <path
             style="opacity:1;vector-effect:none;fill:#785c5c;fill-opacity:1;stroke:none;stroke-width:0.58750093;stroke-linecap:round;stroke-linejoin:round;stroke-miterlimit:4;stroke-dasharray:none;stroke-dashoffset:0;stroke-opacity:1;paint-order:markers fill stroke"
             d="m 331.42773,217.51953 c -1.48943,1e-5 -2.95927,0.0335 -4.41796,0.0859 1.45824,-0.0523 2.92899,-0.0859 4.41796,-0.0859 z m -5.01367,0.10547 c -1.38503,0.0566 -2.75305,0.14006 -4.10547,0.24219 1.3526,-0.10198 2.72025,-0.18569 4.10547,-0.24219 z m 13.5918,0.19922 c 31.64556,5.08164 54.7443,30.55059 18.06445,43.39453 1.95,16.52178 -5.34478,56.0697 3.719,67.19407 12.33947,14.47713 41.81758,7.38493 43.20874,18.30202 -12.27965,73.00884 29.89712,174.72739 -2.60157,230.17969 6.35248,-2.10363 12.20938,-4.39695 17.14649,-6.83008 2.0493,-2.04926 3.3125,-4.88456 3.3125,-8.02539 V 345.28711 c 2.39323,-11.91915 -13.05505,-14.08399 -28.87941,-15.3859 -10.65693,-0.92543 -21.68001,-0.67459 -24.88817,-3.10629 -2.6e-4,-4.9e-4 2.7e-4,-10e-4 0,-0.002 -0.23631,-0.4416 -0.46598,-0.90865 -0.68945,-1.4043 -2.4e-4,-5.2e-4 2.3e-4,-10e-4 0,-0.002 -0.22347,-0.49574 -0.44248,-1.01943 -0.65235,-1.57227 -2.1e-4,-5.5e-4 2.1e-4,-10e-4 0,-0.002 -0.20986,-0.55294 -0.41191,-1.13495 -0.60742,-1.74805 -1.8e-4,-5.7e-4 1.8e-4,-10e-4 0,-0.002 -0.1955,-0.6132 -0.38408,-1.25719 -0.56445,-1.93359 -1.6e-4,-5.9e-4 1.5e-4,-0.001 0,-0.002 -0.72198,-2.70792 -1.32048,-5.93439 -1.76953,-9.77734 -7e-5,-6.2e-4 7e-5,-0.001 0,-0.002 -0.1122,-0.96034 -0.21535,-1.95921 -0.3086,-2.99805 -5e-5,-6.2e-4 6e-5,-10e-4 0,-0.002 -0.0932,-1.03894 -0.17646,-2.11779 -0.25,-3.23828 -4e-5,-6.3e-4 4e-5,-10e-4 0,-0.002 -0.0735,-1.12058 -0.13835,-2.28308 -0.1914,-3.48828 -3e-5,-6.3e-4 3e-5,-0.001 0,-0.002 -0.0531,-1.20592 -0.0951,-2.45437 -0.12696,-3.74805 v -37.07812 c 13.25414,-4.45076 21.04386,-11.36307 21.07032,-18.69922 9e-4,-11.73307 -19.48462,-21.46036 -44.99219,-23.26758 z m -18.44531,0.10156 c -1.32717,0.1088 -2.63888,0.23572 -3.92969,0.38672 1.29076,-0.15088 2.60257,-0.27807 3.92969,-0.38672 z m -4.64649,0.47656 c -1.32122,0.16333 -2.62849,0.34101 -3.90625,0.54688 1.27782,-0.20589 2.58497,-0.38364 3.90625,-0.54688 z"
             transform="scale(0.26458333)"
             id="rect7818-2"
             inkscape:connector-curvature="0"
             sodipodi:nodetypes="ccccccccccccsccccccccccccccccccccccccccccccc" />
          <path
             style="color:#000000;font-style:normal;font-variant:normal;font-weight:normal;font-stretch:normal;font-size:medium;line-height:normal;font-family:sans-serif;font-variant-ligatures:normal;font-variant-position:normal;font-variant-caps:normal;font-variant-numeric:normal;font-variant-alternates:normal;font-feature-settings:normal;text-indent:0;text-align:start;text-decoration:none;text-decoration-line:none;text-decoration-style:solid;text-decoration-color:#000000;letter-spacing:normal;word-spacing:normal;text-transform:none;writing-mode:lr-tb;direction:ltr;text-orientation:mixed;dominant-baseline:auto;baseline-shift:baseline;text-anchor:start;white-space:normal;shape-padding:0;clip-rule:nonzero;display:inline;overflow:visible;visibility:visible;opacity:1;isolation:auto;mix-blend-mode:normal;color-interpolation:sRGB;color-interpolation-filters:linearRGB;solid-color:#000000;solid-opacity:1;vector-effect:none;fill:#3c2e2e;fill-opacity:1;fill-rule:nonzero;stroke:none;stroke-width:0.15544295;stroke-linecap:round;stroke-linejoin:round;stroke-miterlimit:4;stroke-dasharray:none;stroke-dashoffset:0;stroke-opacity:1;paint-order:markers fill stroke;color-rendering:auto;image-rendering:auto;shape-rendering:auto;text-rendering:auto;enable-background:accumulate"
             d="m 107.11133,88.681641 a 0.20066152,0.20066152 0 0 0 -0.0273,0.40039 c 1.00923,0.120345 1.78408,0.246735 2.3418,0.376953 0.55772,0.130218 0.90311,0.279007 1.01367,0.371094 0.0553,0.04604 0.0397,0.04665 0.041,0.03516 10e-4,-0.0115 -0.004,0.022 -0.0762,0.07617 -0.14439,0.10835 -0.49182,0.253622 -0.98633,0.390625 -1.97804,0.548012 -6.34981,1.072692 -11.675782,1.394531 -10.65194,0.64368 -25.1925,0.489639 -32.482422,-1.671874 a 0.20002,0.20002 0 1 0 -0.115235,0.38281 c 7.423006,2.200974 21.945724,2.332714 32.623047,1.6875 5.338662,-0.322607 9.698142,-0.835623 11.757812,-1.40625 0.51492,-0.142657 0.88393,-0.282481 1.11914,-0.458984 0.1176,-0.08825 0.2169,-0.196222 0.23438,-0.34961 0.0175,-0.153387 -0.0706,-0.294581 -0.1836,-0.388672 -0.22594,-0.18818 -0.59659,-0.315484 -1.17773,-0.451172 -0.58114,-0.135687 -1.36847,-0.265298 -2.38672,-0.386718 a 0.20002,0.20002 0 0 0 -0.0195,-0.002 z"
             id="path7890"
             inkscape:connector-curvature="0" />
          <path
             style="opacity:1;vector-effect:none;fill:#6c5353;fill-opacity:1;stroke:none;stroke-width:0.58750093;stroke-linecap:round;stroke-linejoin:round;stroke-miterlimit:4;stroke-dasharray:none;stroke-dashoffset:0;stroke-opacity:1;paint-order:markers fill stroke"
             d="m 297.67773,258.05469 c -0.82463,0.27931 -1.29025,0.5007 -1.61132,0.69531 0.92649,0.35837 1.87311,0.70917 2.86132,1.04102 v 37.07812 c -0.30493,12.40277 -1.61038,20.68136 -3.56835,26.22266 2.55551,-2.51417 8.62121,-10.9806 9.10546,-11.46485 3.36209,-3.36209 6.30987,-7.17346 9.28516,-10.89257 12.89039,-15.87705 31.98007,-28.94924 49.81055,-41.80469 -4.57466,5.15209 -63.05492,7.53132 -65.88282,-0.875 z m 65.88282,0.875 c 0.2109,-0.0825 0.35439,-0.16442 0.34179,-0.2461 -0.11281,0.0814 -0.22887,0.16468 -0.34179,0.2461 z"
             transform="scale(0.26458333)"
             id="path7894"
             inkscape:connector-curvature="0"
             sodipodi:nodetypes="cccccscccccc" />
          <path
             style="opacity:1;vector-effect:none;fill:#785c5c;fill-opacity:1;stroke:none;stroke-width:0.58750093;stroke-linecap:round;stroke-linejoin:round;stroke-miterlimit:4;stroke-dasharray:none;stroke-dashoffset:0;stroke-opacity:1;paint-order:markers fill stroke"
             d="m 297.67773,258.05469 c -0.82462,0.2793 -1.29026,0.5007 -1.61132,0.69531 0.92648,0.35837 1.87311,0.70917 2.86132,1.04102 v 37.07812 c -0.0355,1.4428 -0.0866,2.81653 -0.14843,4.15039 -0.0199,0.42817 -0.0458,0.83087 -0.0684,1.24805 -0.0472,0.87434 -0.0997,1.73523 -0.15821,2.5625 -0.0322,0.45272 -0.0661,0.89317 -0.10156,1.33203 -0.0651,0.80735 -0.13483,1.59184 -0.21094,2.35351 -0.0355,0.35358 -0.0716,0.70884 -0.10937,1.05274 -0.1032,0.94254 -0.21379,1.84868 -0.33398,2.7207 -0.0151,0.10922 -0.0296,0.22586 -0.0449,0.33399 -0.45119,3.18553 -1.01782,5.89625 -1.67773,8.21289 -0.0105,0.0369 -0.0207,0.0727 -0.0312,0.10937 -0.21797,0.75748 -0.44556,1.47293 -0.68359,2.14649 2.55551,-2.51417 8.62122,-10.9806 9.10546,-11.46485 2.99014,-2.99013 5.65136,-6.33438 8.29688,-9.65429 0.0714,-1.01009 0.13165,-2.03726 0.16601,-3.10157 v -37.08007 c -1.24671,-0.41865 -2.42807,-0.86566 -3.57617,-1.32618 -6.39785,-0.43485 -10.97937,-1.19298 -11.67383,-2.41015 z"
             transform="scale(0.26458333)"
             id="rect7818-7-5"
             inkscape:connector-curvature="0" />
          <path
             style="color:#000000;font-style:normal;font-variant:normal;font-weight:normal;font-stretch:normal;font-size:medium;line-height:normal;font-family:sans-serif;font-variant-ligatures:normal;font-variant-position:normal;font-variant-caps:normal;font-variant-numeric:normal;font-variant-alternates:normal;font-feature-settings:normal;text-indent:0;text-align:start;text-decoration:none;text-decoration-line:none;text-decoration-style:solid;text-decoration-color:#000000;letter-spacing:normal;word-spacing:normal;text-transform:none;writing-mode:lr-tb;direction:ltr;text-orientation:mixed;dominant-baseline:auto;baseline-shift:baseline;text-anchor:start;white-space:normal;shape-padding:0;clip-rule:nonzero;display:inline;overflow:visible;visibility:visible;opacity:1;isolation:auto;mix-blend-mode:normal;color-interpolation:sRGB;color-interpolation-filters:linearRGB;solid-color:#000000;solid-opacity:1;vector-effect:none;fill:#3c2e2e;fill-opacity:1;fill-rule:nonzero;stroke:none;stroke-width:0.15544295;stroke-linecap:round;stroke-linejoin:round;stroke-miterlimit:4;stroke-dasharray:none;stroke-dashoffset:0;stroke-opacity:1;paint-order:markers fill stroke;color-rendering:auto;image-rendering:auto;shape-rendering:auto;text-rendering:auto;enable-background:accumulate"
             d="m 75.864618,66.84118 a 0.20002,0.20002 0 0 0 -0.09766,0.371094 c 3.416587,2.130994 8.31862,2.751831 12.796874,2.587891 4.478255,-0.163941 8.514777,-1.097022 10.283204,-2.208985 a 0.20050968,0.20050968 0 1 0 -0.212891,-0.339844 c -1.616818,1.016634 -5.655777,1.988211 -10.085937,2.150391 -4.430161,0.16218 -9.270688,-0.471255 -12.570313,-2.529297 a 0.20002,0.20002 0 0 0 -0.113281,-0.03125 z"
             id="path7892"
             inkscape:connector-curvature="0" />
          <path
             style="fill:#c8b7b7;stroke:none;stroke-width:0.32571629px;stroke-linecap:butt;stroke-linejoin:miter;stroke-opacity:1"
             d="m 75.122765,62.087796 c 0.779383,6.421908 9.42908,4.091961 12.284226,3.549246 -4.110407,0.0011 -8.676872,0.131128 -12.284226,-3.549246 z"
             id="path7955"
             inkscape:connector-curvature="0"
             sodipodi:nodetypes="ccc" />
          <path
             style="opacity:1;vector-effect:none;fill:#584444;fill-opacity:1;stroke:none;stroke-width:0.58750093;stroke-linecap:round;stroke-linejoin:round;stroke-miterlimit:4;stroke-dasharray:none;stroke-dashoffset:0;stroke-opacity:1;paint-order:markers fill stroke"
             d="m 240,562.03906 c 0,3.14079 1.26323,5.9761 3.3125,8.02539 18.23879,17.71283 59.04754,18.46908 84.4082,18.08985 25.36066,-0.37924 68.36414,-6.5291 91.82227,-18.08985 2.0493,-2.04926 3.3125,-4.88456 3.3125,-8.02539 v -2.76953 c -30.81271,21.30416 -173.11086,40.10233 -182.81042,-4.72528 z"
             transform="scale(0.26458333)"
             id="rect7818-70"
             inkscape:connector-curvature="0"
             sodipodi:nodetypes="ccscsccc" />
          <path
             style="color:#000000;font-style:normal;font-variant:normal;font-weight:normal;font-stretch:normal;font-size:medium;line-height:normal;font-family:sans-serif;font-variant-ligatures:normal;font-variant-position:normal;font-variant-caps:normal;font-variant-numeric:normal;font-variant-alternates:normal;font-feature-settings:normal;text-indent:0;text-align:start;text-decoration:none;text-decoration-line:none;text-decoration-style:solid;text-decoration-color:#000000;letter-spacing:normal;word-spacing:normal;text-transform:none;writing-mode:lr-tb;direction:ltr;text-orientation:mixed;dominant-baseline:auto;baseline-shift:baseline;text-anchor:start;white-space:normal;shape-padding:0;clip-rule:nonzero;display:inline;overflow:visible;visibility:visible;opacity:1;isolation:auto;mix-blend-mode:normal;color-interpolation:sRGB;color-interpolation-filters:linearRGB;solid-color:#000000;solid-opacity:1;vector-effect:none;fill:#3c2e2e;fill-opacity:1;fill-rule:nonzero;stroke:none;stroke-width:0.15544295;stroke-linecap:round;stroke-linejoin:round;stroke-miterlimit:4;stroke-dasharray:none;stroke-dashoffset:0;stroke-opacity:1;paint-order:markers fill stroke;color-rendering:auto;image-rendering:auto;shape-rendering:auto;text-rendering:auto;enable-background:accumulate"
             d="m 110,93.214844 a 0.13251324,0.13251324 0 0 0 -0.0996,0.05273 c -0.80918,1.042819 -2.17042,1.658971 -3.65039,1.931641 -1.47997,0.27267 -3.07311,0.200962 -4.31445,-0.109375 a 0.13287896,0.13287896 0 1 0 -0.0645,0.257812 c 1.28344,0.320861 2.90457,0.393551 4.42579,0.113282 1.52121,-0.28027 2.94833,-0.915052 3.81445,-2.03125 A 0.13251324,0.13251324 0 0 0 110,93.214844 Z"
             id="path8050"
             inkscape:connector-curvature="0" />
          <path
             style="color:#000000;font-style:normal;font-variant:normal;font-weight:normal;font-stretch:normal;font-size:medium;line-height:normal;font-family:sans-serif;font-variant-ligatures:normal;font-variant-position:normal;font-variant-caps:normal;font-variant-numeric:normal;font-variant-alternates:normal;font-feature-settings:normal;text-indent:0;text-align:start;text-decoration:none;text-decoration-line:none;text-decoration-style:solid;text-decoration-color:#000000;letter-spacing:normal;word-spacing:normal;text-transform:none;writing-mode:lr-tb;direction:ltr;text-orientation:mixed;dominant-baseline:auto;baseline-shift:baseline;text-anchor:start;white-space:normal;shape-padding:0;clip-rule:nonzero;display:inline;overflow:visible;visibility:visible;opacity:1;isolation:auto;mix-blend-mode:normal;color-interpolation:sRGB;color-interpolation-filters:linearRGB;solid-color:#000000;solid-opacity:1;vector-effect:none;fill:#3c2e2e;fill-opacity:1;fill-rule:nonzero;stroke:none;stroke-width:0.15544295;stroke-linecap:round;stroke-linejoin:round;stroke-miterlimit:4;stroke-dasharray:none;stroke-dashoffset:0;stroke-opacity:1;paint-order:markers fill stroke;color-rendering:auto;image-rendering:auto;shape-rendering:auto;text-rendering:auto;enable-background:accumulate"
             d="m 109.22656,96.642578 a 0.13251324,0.13251324 0 0 0 -0.10937,0.05859 c -1.1002,1.611172 -2.86287,1.96875 -4.72071,1.96875 a 0.1328125,0.1328125 0 1 0 0,0.265625 c 1.89245,0 3.77485,-0.378495 4.93946,-2.083985 a 0.13251324,0.13251324 0 0 0 -0.10938,-0.208984 z"
             id="path8052"
             inkscape:connector-curvature="0" />
          <path
             style="color:#000000;font-style:normal;font-variant:normal;font-weight:normal;font-stretch:normal;font-size:medium;line-height:normal;font-family:sans-serif;font-variant-ligatures:normal;font-variant-position:normal;font-variant-caps:normal;font-variant-numeric:normal;font-variant-alternates:normal;font-feature-settings:normal;text-indent:0;text-align:start;text-decoration:none;text-decoration-line:none;text-decoration-style:solid;text-decoration-color:#000000;letter-spacing:normal;word-spacing:normal;text-transform:none;writing-mode:lr-tb;direction:ltr;text-orientation:mixed;dominant-baseline:auto;baseline-shift:baseline;text-anchor:start;white-space:normal;shape-padding:0;clip-rule:nonzero;display:inline;overflow:visible;visibility:visible;opacity:1;isolation:auto;mix-blend-mode:normal;color-interpolation:sRGB;color-interpolation-filters:linearRGB;solid-color:#000000;solid-opacity:1;vector-effect:none;fill:#3c2e2e;fill-opacity:1;fill-rule:nonzero;stroke:none;stroke-width:0.15544295;stroke-linecap:round;stroke-linejoin:round;stroke-miterlimit:4;stroke-dasharray:none;stroke-dashoffset:0;stroke-opacity:1;paint-order:markers fill stroke;color-rendering:auto;image-rendering:auto;shape-rendering:auto;text-rendering:auto;enable-background:accumulate"
             d="m 109.53125,101.47461 a 0.13251324,0.13251324 0 0 0 -0.0469,0.0117 c -1.44237,0.65787 -3.10626,0.76758 -4.7754,0.76758 a 0.13281,0.13281 0 1 0 0,0.26562 c 1.68049,0 3.38274,-0.10593 4.88477,-0.79101 a 0.13251324,0.13251324 0 0 0 -0.0625,-0.25391 z"
             id="path8054"
             inkscape:connector-curvature="0" />
          <path
             style="color:#000000;font-style:normal;font-variant:normal;font-weight:normal;font-stretch:normal;font-size:medium;line-height:normal;font-family:sans-serif;font-variant-ligatures:normal;font-variant-position:normal;font-variant-caps:normal;font-variant-numeric:normal;font-variant-alternates:normal;font-feature-settings:normal;text-indent:0;text-align:start;text-decoration:none;text-decoration-line:none;text-decoration-style:solid;text-decoration-color:#000000;letter-spacing:normal;word-spacing:normal;text-transform:none;writing-mode:lr-tb;direction:ltr;text-orientation:mixed;dominant-baseline:auto;baseline-shift:baseline;text-anchor:start;white-space:normal;shape-padding:0;clip-rule:nonzero;display:inline;overflow:visible;visibility:visible;opacity:1;isolation:auto;mix-blend-mode:normal;color-interpolation:sRGB;color-interpolation-filters:linearRGB;solid-color:#000000;solid-opacity:1;vector-effect:none;fill:#3c2e2e;fill-opacity:1;fill-rule:nonzero;stroke:none;stroke-width:0.15544295;stroke-linecap:round;stroke-linejoin:round;stroke-miterlimit:4;stroke-dasharray:none;stroke-dashoffset:0;stroke-opacity:1;paint-order:markers fill stroke;color-rendering:auto;image-rendering:auto;shape-rendering:auto;text-rendering:auto;enable-background:accumulate"
             d="m 64.697266,145.33984 c -0.317653,0.74295 -0.0041,1.56381 0.599609,2.3086 0.603737,0.74479 1.507572,1.43622 2.449219,1.96094 0.941646,0.52471 1.91726,0.88323 2.683594,0.94531 0.383166,0.031 0.718974,-0.0117 0.972656,-0.16602 0.253681,-0.15436 0.404297,-0.43174 0.404297,-0.79101 h -0.263672 c 0,0.2913 -0.09886,0.45661 -0.279297,0.5664 -0.18044,0.10979 -0.461866,0.15536 -0.8125,0.12696 -0.701269,-0.0568 -1.658147,-0.40251 -2.576172,-0.91407 -0.918025,-0.51155 -1.800577,-1.19026 -2.373047,-1.89648 -0.57247,-0.70622 -0.825688,-1.41698 -0.560547,-2.03711 z"
             id="path8056"
             inkscape:connector-curvature="0" />
          <path
             style="color:#000000;font-style:normal;font-variant:normal;font-weight:normal;font-stretch:normal;font-size:medium;line-height:normal;font-family:sans-serif;font-variant-ligatures:normal;font-variant-position:normal;font-variant-caps:normal;font-variant-numeric:normal;font-variant-alternates:normal;font-feature-settings:normal;text-indent:0;text-align:start;text-decoration:none;text-decoration-line:none;text-decoration-style:solid;text-decoration-color:#000000;letter-spacing:normal;word-spacing:normal;text-transform:none;writing-mode:lr-tb;direction:ltr;text-orientation:mixed;dominant-baseline:auto;baseline-shift:baseline;text-anchor:start;white-space:normal;shape-padding:0;clip-rule:nonzero;display:inline;overflow:visible;visibility:visible;opacity:1;isolation:auto;mix-blend-mode:normal;color-interpolation:sRGB;color-interpolation-filters:linearRGB;solid-color:#000000;solid-opacity:1;vector-effect:none;fill:#3c2e2e;fill-opacity:1;fill-rule:nonzero;stroke:none;stroke-width:0.15544295;stroke-linecap:round;stroke-linejoin:round;stroke-miterlimit:4;stroke-dasharray:none;stroke-dashoffset:0;stroke-opacity:1;paint-order:markers fill stroke;color-rendering:auto;image-rendering:auto;shape-rendering:auto;text-rendering:auto;enable-background:accumulate"
             d="m 64.615234,142.82031 -0.214843,0.15625 c 1.509538,2.06346 4.558183,3.26963 6.839843,2.69922 l -0.06445,-0.25781 c -2.140231,0.53505 -5.123325,-0.63305 -6.560547,-2.59766 z"
             id="path8058"
             inkscape:connector-curvature="0" />
          <path
             style="opacity:1;vector-effect:none;fill:#c8b7b7;fill-opacity:1;stroke:none;stroke-width:0.32571629px;stroke-linecap:butt;stroke-linejoin:miter;stroke-miterlimit:4;stroke-dasharray:none;stroke-dashoffset:0;stroke-opacity:1"
             d="m 110.28856,91.517313 c -13.194517,5.108278 -29.052946,3.15602 -35.367259,1.542496 10.064433,1.054499 26.167179,0.852492 35.367259,-1.542496 z"
             id="path8108"
             inkscape:connector-curvature="0"
             sodipodi:nodetypes="ccc" />
        </g>
        <g
           transform="translate(2.0569146)"
           id="g8869">
          <path
             d="M 77.066986,78.333244 H 73.078203 V 63.300785 q -2.186023,2.044075 -5.152768,3.023526 v -3.619715 q 1.561445,-0.511017 3.392595,-1.930512 1.83115,-1.433691 2.512508,-3.335814 h 3.236448 z"
             style="font-style:normal;font-variant:normal;font-weight:bold;font-stretch:normal;font-size:10.58333302px;font-family:Arial;-inkscape-font-specification:'Arial Bold';font-variant-ligatures:normal;font-variant-caps:normal;font-variant-numeric:normal;font-feature-settings:normal;text-align:center;writing-mode:lr-tb;text-anchor:middle;stroke-width:0.72678173;fill:#c8b7b7"
             id="path8856"
             inkscape:connector-curvature="0" />
          <path
             d="m 86.138689,57.43827 q 3.023526,0 4.72692,2.157631 2.029878,2.555093 2.029878,8.47439 0,5.905103 -2.044074,8.488584 -1.689198,2.129242 -4.712724,2.129242 -3.037722,0 -4.89726,-2.327971 -1.859541,-2.342167 -1.859541,-8.332442 0,-5.87671 2.044074,-8.460192 1.689202,-2.129242 4.712727,-2.129242 z m 0,3.307423 q -0.723943,0 -1.291742,0.468435 -0.567799,0.454237 -0.880088,1.646613 -0.411652,1.54725 -0.411652,5.20955 0,3.662298 0.369067,5.039208 0.36907,1.362716 0.922673,1.816955 0.567799,0.454238 1.291742,0.454238 0.723941,0 1.29174,-0.454238 0.567798,-0.468432 0.880088,-1.660808 0.411654,-1.533057 0.411654,-5.195355 0,-3.6623 -0.369069,-5.025013 -0.36907,-1.376913 -0.93687,-1.83115 -0.553602,-0.468435 -1.277543,-0.468435 z"
             style="font-style:normal;font-variant:normal;font-weight:bold;font-stretch:normal;font-size:10.58333302px;font-family:Arial;-inkscape-font-specification:'Arial Bold';font-variant-ligatures:normal;font-variant-caps:normal;font-variant-numeric:normal;font-feature-settings:normal;text-align:center;writing-mode:lr-tb;text-anchor:middle;stroke-width:0.72678173;fill:#c8b7b7"
             id="path8858"
             inkscape:connector-curvature="0" />
          <path
             d="m 94.514435,78.558926 v -7.575765 h 1.452108 v 4.020427 l 1.700155,-1.932699 h 1.788004 l -1.875854,2.005046 2.010213,3.482991 h -1.565796 l -1.379761,-2.464966 -0.676961,0.707967 v 1.756999 z"
             style="font-style:normal;font-variant:normal;font-weight:bold;font-stretch:normal;font-size:10.58333302px;font-family:Arial;-inkscape-font-specification:'Arial Bold';font-variant-ligatures:normal;font-variant-caps:normal;font-variant-numeric:normal;font-feature-settings:normal;text-align:center;writing-mode:lr-tb;text-anchor:middle;stroke-width:0.26458332;fill:#c8b7b7"
             id="path8860"
             inkscape:connector-curvature="0" />
          <path
             d="m 100.32287,78.920661 1.65881,0.201538 q 0.0413,0.289388 0.1912,0.397909 0.20671,0.155029 0.65113,0.155029 0.56844,0 0.85266,-0.170532 0.1912,-0.113688 0.28939,-0.366903 0.0672,-0.180867 0.0672,-0.666626 v -0.800984 q -0.65113,0.888834 -1.64332,0.888834 -1.10587,0 -1.75183,-0.935343 -0.50643,-0.738973 -0.50643,-1.839681 0,-1.379761 0.66146,-2.108399 0.66663,-0.728637 1.65365,-0.728637 1.01802,0 1.67948,0.894002 v -0.769979 h 1.35909 v 4.924764 q 0,0.971517 -0.1602,1.452108 -0.16019,0.480591 -0.44958,0.754476 -0.28939,0.273885 -0.77515,0.428914 -0.48059,0.155029 -1.21956,0.155029 -1.39526,0 -1.97921,-0.480591 -0.58394,-0.475423 -0.58394,-1.209228 0,-0.07235 0.005,-0.1757 z m 1.29708,-3.219441 q 0,0.873331 0.33589,1.281575 0.34107,0.403076 0.83716,0.403076 0.53227,0 0.89917,-0.413411 0.3669,-0.418579 0.3669,-1.235067 0,-0.852661 -0.3514,-1.266073 -0.3514,-0.413411 -0.88883,-0.413411 -0.52193,0 -0.863,0.408244 -0.33589,0.403076 -0.33589,1.235067 z"
             style="font-style:normal;font-variant:normal;font-weight:bold;font-stretch:normal;font-size:10.58333302px;font-family:Arial;-inkscape-font-specification:'Arial Bold';font-variant-ligatures:normal;font-variant-caps:normal;font-variant-numeric:normal;font-feature-settings:normal;text-align:center;writing-mode:lr-tb;text-anchor:middle;stroke-width:0.26458332;fill:#c8b7b7"
             id="path8862"
             inkscape:connector-curvature="0" />
        </g>
      </g>
    </g>
  </g>
</svg>
