<?xml version="1.0" encoding="UTF-8" standalone="no"?>
<!-- Created with Inkscape (http://www.inkscape.org/) -->

<svg
   xmlns:dc="http://purl.org/dc/elements/1.1/"
   xmlns:cc="http://creativecommons.org/ns#"
   xmlns:rdf="http://www.w3.org/1999/02/22-rdf-syntax-ns#"
   xmlns:svg="http://www.w3.org/2000/svg"
   xmlns="http://www.w3.org/2000/svg"
   xmlns:sodipodi="http://sodipodi.sourceforge.net/DTD/sodipodi-0.dtd"
   xmlns:inkscape="http://www.inkscape.org/namespaces/inkscape"
   width="20mm"
   height="30mm"
   viewBox="0 0 20.000001 30"
   version="1.1"
   id="svg8194"
   inkscape:version="0.92.2 (5c3e80d, 2017-08-06)"
   sodipodi:docname="weight_1.svg">
  <defs
     id="defs8188" />
  <sodipodi:namedview
     id="base"
     pagecolor="#ffffff"
     bordercolor="#666666"
     borderopacity="1.0"
     inkscape:pageopacity="0.0"
     inkscape:pageshadow="2"
     inkscape:zoom="1.979899"
     inkscape:cx="-84.927439"
     inkscape:cy="25.101994"
     inkscape:document-units="mm"
     inkscape:current-layer="g8908"
     showgrid="false"
     fit-margin-top="0"
     fit-margin-left="0"
     fit-margin-right="0"
     fit-margin-bottom="0"
     inkscape:window-width="1680"
     inkscape:window-height="987"
     inkscape:window-x="-8"
     inkscape:window-y="222"
     inkscape:window-maximized="1" />
  <metadata
     id="metadata8191">
    <rdf:RDF>
      <cc:Work
         rdf:about="">
        <dc:format>image/svg+xml</dc:format>
        <dc:type
           rdf:resource="http://purl.org/dc/dcmitype/StillImage" />
        <dc:title></dc:title>
      </cc:Work>
    </rdf:RDF>
  </metadata>
  <g
     inkscape:label="Ebene 1"
     inkscape:groupmode="layer"
     id="layer1"
     transform="translate(-77.673939,-43.07766)">
    <g
       aria-label="10 kg"
       style="font-style:normal;font-weight:normal;font-size:10.58333302px;line-height:1.25;font-family:sans-serif;letter-spacing:0px;word-spacing:0px;fill:#000000;fill-opacity:1;stroke:none;stroke-width:0.26458332"
       id="text8854">
      <g
         id="g8908">
        <path
           sodipodi:nodetypes="csssscccccccssssczc"
           inkscape:connector-curvature="0"
           id="rect7818"
           d="M 78.045146,71.095505 C 77.821413,70.871772 77.683404,70.562312 77.683404,70.219408 V 53.760737 c 0,-0.685804 0.552034,-1.237838 1.237839,-1.237838 h 2.597861 c 1.165867,0 2.486741,0.4715 2.597862,-4.048191 v -0.772965 c -1.447049,-0.485921 -2.297405,-1.240587 -2.300396,-2.041528 -1.09e-4,-1.421299 2.618431,-2.573524 5.848655,-2.573554 3.230223,3e-5 5.848769,1.152255 5.848653,2.573554 -0.0029,0.800941 -0.853348,1.555607 -2.300396,2.041528 v 0.772965 c 0.111122,4.519691 1.431995,4.048191 2.597863,4.048191 h 2.597862 c 0.685805,0 1.23784,0.552034 1.23784,1.237838 v 16.458669 c 0,0.342904 -0.138007,0.652364 -0.361743,0.876098 -2.561092,1.262168 -7.25594,1.933781 -10.024744,1.975186 -2.768806,0.0414 -7.224155,-0.04135 -9.215414,-1.975185 z"
           style="opacity:1;vector-effect:none;fill:#d38d5f;fill-opacity:1;stroke:none;stroke-width:0.06414169;stroke-linecap:round;stroke-linejoin:round;stroke-miterlimit:4;stroke-dasharray:none;stroke-dashoffset:0;stroke-opacity:1;paint-order:markers fill stroke" />
        <path
           sodipodi:nodetypes="ccccccccccccccccccccccccscccsccccccccccccccccccccccccscccccccccccccssc"
           inkscape:connector-curvature="0"
           id="rect7818-7"
           d="m 87.665225,43.086661 c -1.736841,0.0023 -5.558492,0.388146 -5.848655,2.573554 0.003,0.80094 0.853348,1.555606 2.300396,2.041528 v 0.772858 c -0.0035,0.14124 -0.0081,0.277542 -0.01386,0.409201 -3e-6,6.8e-5 3e-6,1.1e-4 0,2.19e-4 -0.0058,0.13158 -0.01287,0.258498 -0.0209,0.38084 -6e-6,6.9e-5 4e-6,1.09e-4 0,2.18e-4 -0.008,0.122332 -0.01712,0.240118 -0.0273,0.353547 -6e-6,6.7e-5 6e-6,1.09e-4 0,2.18e-4 -0.01018,0.113418 -0.02144,0.222471 -0.03369,0.327319 -7e-6,6.7e-5 8e-6,1.09e-4 0,2.18e-4 -0.04903,0.419562 -0.114368,0.771819 -0.193192,1.067462 -1.8e-5,6.5e-5 1.7e-5,1.09e-4 0,2.19e-4 -0.01969,0.07385 -0.04028,0.144156 -0.06162,0.211104 -2.1e-5,6.2e-5 1.9e-5,1.09e-4 0,2.18e-4 -0.02135,0.06694 -0.04341,0.130479 -0.06632,0.190847 -2.3e-5,6e-5 2.2e-5,1.09e-4 0,2.19e-4 -0.02291,0.06036 -0.04682,0.117532 -0.07122,0.171655 -2.7e-5,5.7e-5 2.6e-5,1.1e-4 0,2.19e-4 -0.0244,0.05411 -0.04947,0.105105 -0.07527,0.153317 -2.9e-5,5.4e-5 2.9e-5,1.09e-4 0,2.19e-4 -0.06651,0.386487 -1.471142,0.426643 -2.195229,0.50783 -1.635023,0.09007 -3.847076,0.04197 -3.674963,1.511095 v 16.458671 c 0,0.342902 0.137916,0.652453 0.36165,0.876189 0.294892,0.286389 0.646232,0.525102 1.03761,0.726497 0.962175,-6.964251 -2.16008,-10.827822 -0.175921,-16.890475 1.054751,-1.507205 3.201138,-0.538691 4.178586,-1.383053 1.397212,-1.206973 2.477419,-2.294126 2.560118,-4.855399 v -0.773071 c -1.447048,-0.485921 -2.297405,-1.240588 -2.300397,-2.041528 -1.09e-4,-1.421299 2.618431,-2.573524 5.848655,-2.573554 0.351552,4e-6 0.695247,0.01436 1.029721,0.04051 -8.66e-4,-2.18e-4 -0.0017,-4.54e-4 -0.0026,-6.6e-4 -0.09545,-0.02044 -0.192383,-0.0396 -0.290642,-0.05779 -2.18e-4,-4e-5 -4.54e-4,-2.18e-4 -6.6e-4,-2.18e-4 -0.0015,-3.27e-4 -0.003,-5.36e-4 -0.0045,-8.66e-4 -0.09273,-0.01712 -0.186816,-0.03315 -0.281899,-0.04819 -0.0284,-0.0045 -0.05734,-0.0085 -0.08593,-0.0128 -0.06615,-0.01 -0.13261,-0.01964 -0.199803,-0.02857 -0.03779,-0.005 -0.07597,-0.0096 -0.114082,-0.01429 -0.06628,-0.0082 -0.132807,-0.01588 -0.200016,-0.02303 -0.03208,-0.0034 -0.06431,-0.0066 -0.09659,-0.0098 -0.06854,-0.0067 -0.137625,-0.01287 -0.207053,-0.01855 -0.03893,-0.0032 -0.07788,-0.0063 -0.117067,-0.0092 -0.0638,-0.0046 -0.128074,-0.0087 -0.192554,-0.01237 -0.04118,-0.0024 -0.08223,-0.005 -0.123676,-0.007 -0.06611,-0.0032 -0.132832,-0.0053 -0.199589,-0.0075 -0.04138,-0.0014 -0.08249,-0.0031 -0.124104,-0.004 -0.105144,-0.0025 -0.210953,-0.004 -0.317511,-0.004 z m 6.14612,9.436238 c -0.0074,0 -0.01498,4.54e-4 -0.02241,4.54e-4 0.464552,0.3129 1.023383,0.217929 1.550871,0.217929 h 1.772421 c -0.01523,-0.0105 -0.03119,-0.02002 -0.04691,-0.02985 -0.01411,-0.0088 -0.02818,-0.01755 -0.04265,-0.0258 -0.01597,-0.0091 -0.03219,-0.01781 -0.04862,-0.02623 -0.01626,-0.0083 -0.03281,-0.01627 -0.04947,-0.02388 -0.01576,-0.0072 -0.03144,-0.01455 -0.04755,-0.02111 -0.03045,-0.01237 -0.06136,-0.02393 -0.09297,-0.03391 -1.07e-4,-4.7e-5 -3.26e-4,-2.19e-4 -4.13e-4,-2.19e-4 -0.0099,-0.0031 -0.02009,-0.0052 -0.03008,-0.0081 -0.02616,-0.0075 -0.05249,-0.01444 -0.07933,-0.02026 -0.01168,-0.0026 -0.02356,-0.0048 -0.0354,-0.007 -0.02653,-0.0049 -0.05348,-0.0089 -0.0806,-0.01216 -0.01172,-0.0014 -0.02336,-0.003 -0.0352,-0.004 -0.03755,-0.0034 -0.0754,-0.0058 -0.113871,-0.0058 z"
           style="opacity:1;vector-effect:none;fill:#b27852;fill-opacity:1;stroke:none;stroke-width:0.06414169;stroke-linecap:round;stroke-linejoin:round;stroke-miterlimit:4;stroke-dasharray:none;stroke-dashoffset:0;stroke-opacity:1;paint-order:markers fill stroke" />
        <path
           sodipodi:nodetypes="ccccccccccccsccccccccccccccccccccccccccccccc"
           inkscape:connector-curvature="0"
           id="rect7818-2"
           d="m 87.665225,43.086661 c -0.162612,10e-7 -0.323085,0.0037 -0.482341,0.0094 0.159207,-0.0057 0.319779,-0.0094 0.482341,-0.0094 z m -0.547379,0.01152 c -0.151214,0.0062 -0.30057,0.01529 -0.448223,0.02644 0.147673,-0.01113 0.296989,-0.02027 0.448223,-0.02644 z m 1.483914,0.02175 c 3.454973,0.554799 5.976828,3.335427 1.972226,4.737692 0.212896,1.803801 -0.583528,2.846305 0.40603,4.060832 1.347189,1.580572 4.565523,0.806266 4.717407,1.998163 -1.340657,7.970898 3.264083,11.870548 -0.284031,17.924673 0.693545,-0.229668 1.332986,-0.480046 1.872007,-0.745689 0.223736,-0.223732 0.361648,-0.533282 0.361648,-0.876189 V 53.760737 c 0.261287,-1.301298 -1.425314,-1.53765 -3.152972,-1.679788 -1.163495,-0.101036 -2.366963,-0.07365 -2.717221,-0.339136 -2.8e-5,-5.4e-5 3e-5,-1.09e-4 0,-2.19e-4 -0.0258,-0.04821 -0.05087,-0.0992 -0.07527,-0.153317 -2.6e-5,-5.7e-5 2.5e-5,-1.09e-4 0,-2.19e-4 -0.0244,-0.05412 -0.04831,-0.111298 -0.07122,-0.171655 -2.3e-5,-6e-5 2.3e-5,-1.1e-4 0,-2.19e-4 -0.02291,-0.06037 -0.04497,-0.12391 -0.06632,-0.190847 -2e-5,-6.2e-5 2e-5,-1.09e-4 0,-2.18e-4 -0.02135,-0.06695 -0.04193,-0.137257 -0.06162,-0.211104 -1.8e-5,-6.5e-5 1.6e-5,-1.09e-4 0,-2.19e-4 -0.07882,-0.295643 -0.144167,-0.6479 -0.193192,-1.067462 -8e-6,-6.7e-5 7e-6,-1.09e-4 0,-2.18e-4 -0.01225,-0.104847 -0.02351,-0.213901 -0.03369,-0.327319 -6e-6,-6.7e-5 6e-6,-1.09e-4 0,-2.18e-4 -0.01018,-0.113429 -0.01927,-0.231215 -0.02729,-0.353547 -5e-6,-6.8e-5 4e-6,-1.09e-4 0,-2.18e-4 -0.008,-0.122341 -0.01511,-0.24926 -0.0209,-0.38084 -4e-6,-6.9e-5 3e-6,-1.09e-4 0,-2.19e-4 -0.0058,-0.131659 -0.01038,-0.267961 -0.01386,-0.409201 l 0,-0.772858 c 1.447048,-0.485921 2.297508,-1.240588 2.3004,-2.041528 9.1e-5,-1.280983 -2.127281,-2.342981 -4.912126,-2.540289 z m -2.013806,0.01109 c -0.144897,0.01188 -0.288106,0.02574 -0.429033,0.04222 0.140922,-0.01647 0.284141,-0.03036 0.429033,-0.04222 z m -0.507291,0.05203 c -0.144247,0.01783 -0.286971,0.03723 -0.426473,0.05971 0.139509,-0.02248 0.28222,-0.04189 0.426473,-0.05971 z"
           style="opacity:1;vector-effect:none;fill:#a2704f;fill-opacity:1;stroke:none;stroke-width:0.06414169;stroke-linecap:round;stroke-linejoin:round;stroke-miterlimit:4;stroke-dasharray:none;stroke-dashoffset:0;stroke-opacity:1;paint-order:markers fill stroke" />
        <path
           inkscape:connector-curvature="0"
           id="path7890"
           d="m 95.679102,52.656694 c -0.109721,-0.007 -0.120924,0.157285 -0.01126,0.165217 0.416446,0.04966 0.736179,0.101812 0.966316,0.155545 0.230136,0.05373 0.372657,0.115129 0.418279,0.153127 0.02282,0.019 0.01638,0.01925 0.01692,0.01451 4.12e-4,-0.0047 -0.0017,0.0091 -0.03144,0.03143 -0.05958,0.04471 -0.202944,0.104654 -0.406998,0.161187 -0.816214,0.226131 -2.620173,0.442634 -4.817873,0.575437 -4.395396,0.265607 -10.395386,0.202044 -13.403485,-0.689879 -0.107999,-0.03682 -0.157929,0.129046 -0.04755,0.157962 3.063016,0.908206 9.055643,0.962567 13.461513,0.696327 2.202936,-0.13312 4.001824,-0.34481 4.851722,-0.580273 0.212476,-0.05887 0.364743,-0.116562 0.4618,-0.189394 0.04853,-0.03642 0.0895,-0.08097 0.09671,-0.144262 0.0072,-0.06329 -0.02913,-0.121556 -0.07576,-0.160381 -0.09323,-0.07765 -0.246176,-0.130181 -0.485977,-0.186171 -0.2398,-0.05599 -0.564683,-0.109472 -0.984851,-0.159575 -0.0025,-4.06e-4 -0.0054,-7.01e-4 -0.008,-8.25e-4 z"
           style="color:#000000;font-style:normal;font-variant:normal;font-weight:normal;font-stretch:normal;font-size:medium;line-height:normal;font-family:sans-serif;font-variant-ligatures:normal;font-variant-position:normal;font-variant-caps:normal;font-variant-numeric:normal;font-variant-alternates:normal;font-feature-settings:normal;text-indent:0;text-align:start;text-decoration:none;text-decoration-line:none;text-decoration-style:solid;text-decoration-color:#000000;letter-spacing:normal;word-spacing:normal;text-transform:none;writing-mode:lr-tb;direction:ltr;text-orientation:mixed;dominant-baseline:auto;baseline-shift:baseline;text-anchor:start;white-space:normal;shape-padding:0;clip-rule:nonzero;display:inline;overflow:visible;visibility:visible;opacity:1;isolation:auto;mix-blend-mode:normal;color-interpolation:sRGB;color-interpolation-filters:linearRGB;solid-color:#000000;solid-opacity:1;vector-effect:none;fill:#6a4833;fill-opacity:1;fill-rule:nonzero;stroke:none;stroke-width:0.06414169;stroke-linecap:round;stroke-linejoin:round;stroke-miterlimit:4;stroke-dasharray:none;stroke-dashoffset:0;stroke-opacity:1;paint-order:markers fill stroke;color-rendering:auto;image-rendering:auto;shape-rendering:auto;text-rendering:auto;enable-background:accumulate"
           sodipodi:nodetypes="ccscccssccssccccccc" />
        <path
           sodipodi:nodetypes="cccccccccccc"
           inkscape:connector-curvature="0"
           id="path7894"
           d="m 83.980495,47.512175 c -0.09003,0.03049 -0.140866,0.05466 -0.175919,0.07591 0.101151,0.03913 0.204501,0.07743 0.31239,0.113656 v 0.772858 c -0.03329,1.354099 -0.175816,2.257932 -0.389582,2.862915 0.279004,-0.274489 0.941239,-1.19883 0.994108,-1.251699 1.886286,-2.860885 4.981926,-1.494539 6.451903,-2.478112 -0.499449,0.562491 -6.884158,0.822248 -7.1929,-0.09553 z m 7.1929,0.09553 c 0.02303,-0.009 0.03869,-0.01795 0.03732,-0.02687 -0.01232,0.0089 -0.02499,0.01798 -0.03732,0.02687 z"
           style="opacity:1;vector-effect:none;fill:#855a40;fill-opacity:1;stroke:none;stroke-width:0.06414169;stroke-linecap:round;stroke-linejoin:round;stroke-miterlimit:4;stroke-dasharray:none;stroke-dashoffset:0;stroke-opacity:1;paint-order:markers fill stroke" />
        <path
           inkscape:connector-curvature="0"
           id="rect7818-7-5"
           d="m 83.980495,47.512175 c -0.09003,0.03049 -0.140867,0.05466 -0.175919,0.07591 0.10115,0.03913 0.204501,0.07743 0.31239,0.113656 v 0.772858 c -0.0039,0.15752 -0.0095,0.307501 -0.0162,0.453128 -0.0022,0.04675 -0.005,0.09071 -0.0075,0.136258 -0.0052,0.09546 -0.01089,0.189448 -0.01727,0.279767 -0.0035,0.04943 -0.0072,0.09751 -0.01109,0.145427 -0.0071,0.08814 -0.01472,0.173793 -0.02303,0.256949 -0.0039,0.0386 -0.0078,0.07739 -0.01194,0.114936 -0.01126,0.102904 -0.02334,0.201833 -0.03646,0.297038 -0.0017,0.01192 -0.0032,0.02466 -0.0049,0.03646 -0.04926,0.347787 -0.111123,0.643735 -0.18317,0.896659 -0.0012,0.004 -0.0023,0.0079 -0.0034,0.01194 -0.0238,0.0827 -0.04864,0.160811 -0.07463,0.234348 0.279003,-0.27449 0.94124,-1.198831 0.994108,-1.2517 0.326455,-0.326454 0.617,-0.69157 0.90583,-1.054028 0.0078,-0.110279 0.01437,-0.222422 0.01812,-0.338621 V 47.920088 C 85.50934,47.874378 85.380363,47.825578 85.255016,47.7753 84.556517,47.72782 84.056319,47.645053 83.980501,47.512166 Z"
           style="opacity:1;vector-effect:none;fill:#a2704f;fill-opacity:1;stroke:none;stroke-width:0.06414169;stroke-linecap:round;stroke-linejoin:round;stroke-miterlimit:4;stroke-dasharray:none;stroke-dashoffset:0;stroke-opacity:1;paint-order:markers fill stroke"
           sodipodi:nodetypes="cccccccccccccccccccccc" />
        <path
           inkscape:connector-curvature="0"
           id="path7892"
           d="m 82.785517,46.919714 c -0.08226,0.0024 -0.110723,0.110541 -0.0403,0.153127 1.409814,0.87933 3.432579,1.135511 5.280478,1.067863 1.847898,-0.06765 3.513521,-0.452673 4.243242,-0.911512 0.09351,-0.05856 0.0057,-0.198791 -0.08785,-0.140232 -0.667161,0.419502 -2.33379,0.820411 -4.161842,0.887333 -1.828054,0.06692 -3.82544,-0.194458 -5.186991,-1.043684 -0.01394,-0.0089 -0.03022,-0.01337 -0.04674,-0.0129 z"
           style="color:#000000;font-style:normal;font-variant:normal;font-weight:normal;font-stretch:normal;font-size:medium;line-height:normal;font-family:sans-serif;font-variant-ligatures:normal;font-variant-position:normal;font-variant-caps:normal;font-variant-numeric:normal;font-variant-alternates:normal;font-feature-settings:normal;text-indent:0;text-align:start;text-decoration:none;text-decoration-line:none;text-decoration-style:solid;text-decoration-color:#000000;letter-spacing:normal;word-spacing:normal;text-transform:none;writing-mode:lr-tb;direction:ltr;text-orientation:mixed;dominant-baseline:auto;baseline-shift:baseline;text-anchor:start;white-space:normal;shape-padding:0;clip-rule:nonzero;display:inline;overflow:visible;visibility:visible;opacity:1;isolation:auto;mix-blend-mode:normal;color-interpolation:sRGB;color-interpolation-filters:linearRGB;solid-color:#000000;solid-opacity:1;vector-effect:none;fill:#6a4833;fill-opacity:1;fill-rule:nonzero;stroke:none;stroke-width:0.06414169;stroke-linecap:round;stroke-linejoin:round;stroke-miterlimit:4;stroke-dasharray:none;stroke-dashoffset:0;stroke-opacity:1;paint-order:markers fill stroke;color-rendering:auto;image-rendering:auto;shape-rendering:auto;text-rendering:auto;enable-background:accumulate"
           sodipodi:nodetypes="ccsccsccc" />
        <path
           sodipodi:nodetypes="ccc"
           inkscape:connector-curvature="0"
           id="path7955"
           d="m 82.4794,44.958286 c 0.321603,2.649924 3.890798,1.688499 5.06894,1.464554 -1.696111,4.54e-4 -3.580408,0.05411 -5.06894,-1.464554 z"
           style="fill:#e9c7af;fill-opacity:1;stroke:none;stroke-width:0.13440296px;stroke-linecap:butt;stroke-linejoin:miter;stroke-opacity:1" />
        <path
           sodipodi:nodetypes="ccscsccc"
           inkscape:connector-curvature="0"
           id="rect7818-70"
           d="m 77.683404,70.219408 c 0,0.342903 0.137916,0.652454 0.361649,0.87619 1.991259,1.933836 6.446643,2.016401 9.215448,1.974997 2.768805,-0.0414 7.463806,-0.712829 10.024898,-1.974997 0.223736,-0.223733 0.361648,-0.533283 0.361648,-0.87619 v -0.302369 c -3.364044,2.325927 -18.899754,4.378257 -19.958725,-0.515893 z"
           style="opacity:1;vector-effect:none;fill:#6a4833;fill-opacity:1;stroke:none;stroke-width:0.06414169;stroke-linecap:round;stroke-linejoin:round;stroke-miterlimit:4;stroke-dasharray:none;stroke-dashoffset:0;stroke-opacity:1;paint-order:markers fill stroke" />
        <path
           inkscape:connector-curvature="0"
           id="path8050"
           d="m 96.871077,54.527267 c -0.01626,7.84e-4 -0.03132,0.0088 -0.0411,0.02176 -0.333898,0.430307 -0.895598,0.684555 -1.50629,0.797069 -0.610692,0.112514 -1.268082,0.08292 -1.780306,-0.04513 -0.07092,-0.01774 -0.09754,0.08864 -0.02661,0.106383 0.529596,0.132399 1.198536,0.162394 1.826249,0.04674 0.627709,-0.11565 1.216594,-0.377585 1.573988,-0.838171 0.02946,-0.03698 0.0012,-0.09138 -0.04593,-0.08865 z"
           style="color:#000000;font-style:normal;font-variant:normal;font-weight:normal;font-stretch:normal;font-size:medium;line-height:normal;font-family:sans-serif;font-variant-ligatures:normal;font-variant-position:normal;font-variant-caps:normal;font-variant-numeric:normal;font-variant-alternates:normal;font-feature-settings:normal;text-indent:0;text-align:start;text-decoration:none;text-decoration-line:none;text-decoration-style:solid;text-decoration-color:#000000;letter-spacing:normal;word-spacing:normal;text-transform:none;writing-mode:lr-tb;direction:ltr;text-orientation:mixed;dominant-baseline:auto;baseline-shift:baseline;text-anchor:start;white-space:normal;shape-padding:0;clip-rule:nonzero;display:inline;overflow:visible;visibility:visible;opacity:1;isolation:auto;mix-blend-mode:normal;color-interpolation:sRGB;color-interpolation-filters:linearRGB;solid-color:#000000;solid-opacity:1;vector-effect:none;fill:#6a4833;fill-opacity:1;fill-rule:nonzero;stroke:none;stroke-width:0.06414169;stroke-linecap:round;stroke-linejoin:round;stroke-miterlimit:4;stroke-dasharray:none;stroke-dashoffset:0;stroke-opacity:1;paint-order:markers fill stroke;color-rendering:auto;image-rendering:auto;shape-rendering:auto;text-rendering:auto;enable-background:accumulate"
           sodipodi:nodetypes="ccscccccc" />
        <path
           inkscape:connector-curvature="0"
           id="path8052"
           d="m 96.551926,55.941681 c -0.01811,8.3e-5 -0.03503,0.0091 -0.04513,0.02418 -0.453984,0.664831 -1.181329,0.812381 -1.947945,0.812381 -0.07307,0 -0.07307,0.109607 0,0.109607 0.780897,0 1.557647,-0.156181 2.03821,-0.859931 0.02571,-0.0364 -4.13e-4,-0.08663 -0.04514,-0.08624 z"
           style="color:#000000;font-style:normal;font-variant:normal;font-weight:normal;font-stretch:normal;font-size:medium;line-height:normal;font-family:sans-serif;font-variant-ligatures:normal;font-variant-position:normal;font-variant-caps:normal;font-variant-numeric:normal;font-variant-alternates:normal;font-feature-settings:normal;text-indent:0;text-align:start;text-decoration:none;text-decoration-line:none;text-decoration-style:solid;text-decoration-color:#000000;letter-spacing:normal;word-spacing:normal;text-transform:none;writing-mode:lr-tb;direction:ltr;text-orientation:mixed;dominant-baseline:auto;baseline-shift:baseline;text-anchor:start;white-space:normal;shape-padding:0;clip-rule:nonzero;display:inline;overflow:visible;visibility:visible;opacity:1;isolation:auto;mix-blend-mode:normal;color-interpolation:sRGB;color-interpolation-filters:linearRGB;solid-color:#000000;solid-opacity:1;vector-effect:none;fill:#6a4833;fill-opacity:1;fill-rule:nonzero;stroke:none;stroke-width:0.06414169;stroke-linecap:round;stroke-linejoin:round;stroke-miterlimit:4;stroke-dasharray:none;stroke-dashoffset:0;stroke-opacity:1;paint-order:markers fill stroke;color-rendering:auto;image-rendering:auto;shape-rendering:auto;text-rendering:auto;enable-background:accumulate"
           sodipodi:nodetypes="ccssccc" />
        <path
           inkscape:connector-curvature="0"
           id="path8054"
           d="m 96.677653,57.935561 c -0.0067,4.1e-4 -0.01325,0.0021 -0.01935,0.0048 -0.595177,0.271462 -1.281761,0.316733 -1.970512,0.316733 -0.07307,0 -0.07307,0.109605 0,0.109605 0.693434,0 1.395848,-0.04371 2.015642,-0.326401 0.05686,-0.02437 0.0359,-0.10958 -0.02579,-0.104773 z"
           style="color:#000000;font-style:normal;font-variant:normal;font-weight:normal;font-stretch:normal;font-size:medium;line-height:normal;font-family:sans-serif;font-variant-ligatures:normal;font-variant-position:normal;font-variant-caps:normal;font-variant-numeric:normal;font-variant-alternates:normal;font-feature-settings:normal;text-indent:0;text-align:start;text-decoration:none;text-decoration-line:none;text-decoration-style:solid;text-decoration-color:#000000;letter-spacing:normal;word-spacing:normal;text-transform:none;writing-mode:lr-tb;direction:ltr;text-orientation:mixed;dominant-baseline:auto;baseline-shift:baseline;text-anchor:start;white-space:normal;shape-padding:0;clip-rule:nonzero;display:inline;overflow:visible;visibility:visible;opacity:1;isolation:auto;mix-blend-mode:normal;color-interpolation:sRGB;color-interpolation-filters:linearRGB;solid-color:#000000;solid-opacity:1;vector-effect:none;fill:#6a4833;fill-opacity:1;fill-rule:nonzero;stroke:none;stroke-width:0.06414169;stroke-linecap:round;stroke-linejoin:round;stroke-miterlimit:4;stroke-dasharray:none;stroke-dashoffset:0;stroke-opacity:1;paint-order:markers fill stroke;color-rendering:auto;image-rendering:auto;shape-rendering:auto;text-rendering:auto;enable-background:accumulate"
           sodipodi:nodetypes="ccssccc" />
        <path
           inkscape:connector-curvature="0"
           id="path8056"
           d="m 78.177442,68.830334 c -0.131076,0.30657 -0.0017,0.645288 0.247421,0.952616 0.249125,0.307329 0.622082,0.59264 1.010641,0.809159 0.388559,0.216515 0.791135,0.364454 1.107354,0.390071 0.158108,0.01279 0.296676,-0.0048 0.401354,-0.06851 0.104679,-0.06369 0.166829,-0.178153 0.166829,-0.326401 H 81.00224 c 0,0.120201 -0.04079,0.188415 -0.115249,0.233718 -0.07446,0.0453 -0.190583,0.06411 -0.335268,0.05239 -0.289371,-0.02344 -0.684215,-0.166091 -1.063027,-0.37718 -0.378812,-0.211086 -0.742987,-0.491147 -0.97921,-0.78256 -0.236223,-0.291414 -0.34071,-0.5847 -0.231303,-0.84059 z"
           style="color:#000000;font-style:normal;font-variant:normal;font-weight:normal;font-stretch:normal;font-size:medium;line-height:normal;font-family:sans-serif;font-variant-ligatures:normal;font-variant-position:normal;font-variant-caps:normal;font-variant-numeric:normal;font-variant-alternates:normal;font-feature-settings:normal;text-indent:0;text-align:start;text-decoration:none;text-decoration-line:none;text-decoration-style:solid;text-decoration-color:#000000;letter-spacing:normal;word-spacing:normal;text-transform:none;writing-mode:lr-tb;direction:ltr;text-orientation:mixed;dominant-baseline:auto;baseline-shift:baseline;text-anchor:start;white-space:normal;shape-padding:0;clip-rule:nonzero;display:inline;overflow:visible;visibility:visible;opacity:1;isolation:auto;mix-blend-mode:normal;color-interpolation:sRGB;color-interpolation-filters:linearRGB;solid-color:#000000;solid-opacity:1;vector-effect:none;fill:#6a4833;fill-opacity:1;fill-rule:nonzero;stroke:none;stroke-width:0.06414169;stroke-linecap:round;stroke-linejoin:round;stroke-miterlimit:4;stroke-dasharray:none;stroke-dashoffset:0;stroke-opacity:1;paint-order:markers fill stroke;color-rendering:auto;image-rendering:auto;shape-rendering:auto;text-rendering:auto;enable-background:accumulate"
           sodipodi:nodetypes="ccccccccscscc" />
        <path
           inkscape:connector-curvature="0"
           id="path8058"
           d="m 78.143592,67.79068 -0.08865,0.06448 c 0.622893,0.851462 1.88088,1.349174 2.82238,1.113801 l -0.0266,-0.106383 c -0.883141,0.220782 -2.114079,-0.26122 -2.707132,-1.071893 z"
           style="color:#000000;font-style:normal;font-variant:normal;font-weight:normal;font-stretch:normal;font-size:medium;line-height:normal;font-family:sans-serif;font-variant-ligatures:normal;font-variant-position:normal;font-variant-caps:normal;font-variant-numeric:normal;font-variant-alternates:normal;font-feature-settings:normal;text-indent:0;text-align:start;text-decoration:none;text-decoration-line:none;text-decoration-style:solid;text-decoration-color:#000000;letter-spacing:normal;word-spacing:normal;text-transform:none;writing-mode:lr-tb;direction:ltr;text-orientation:mixed;dominant-baseline:auto;baseline-shift:baseline;text-anchor:start;white-space:normal;shape-padding:0;clip-rule:nonzero;display:inline;overflow:visible;visibility:visible;opacity:1;isolation:auto;mix-blend-mode:normal;color-interpolation:sRGB;color-interpolation-filters:linearRGB;solid-color:#000000;solid-opacity:1;vector-effect:none;fill:#6a4833;fill-opacity:1;fill-rule:nonzero;stroke:none;stroke-width:0.06414169;stroke-linecap:round;stroke-linejoin:round;stroke-miterlimit:4;stroke-dasharray:none;stroke-dashoffset:0;stroke-opacity:1;paint-order:markers fill stroke;color-rendering:auto;image-rendering:auto;shape-rendering:auto;text-rendering:auto;enable-background:accumulate"
           sodipodi:nodetypes="cccccc" />
        <path
           sodipodi:nodetypes="ccc"
           inkscape:connector-curvature="0"
           id="path8108"
           d="m 96.990148,53.826801 c -5.444561,2.10787 -11.988353,1.302294 -14.59388,0.636493 4.152969,0.435126 10.797576,0.35177 14.59388,-0.636493 z"
           style="opacity:1;vector-effect:none;fill:#e9c7af;fill-opacity:1;stroke:none;stroke-width:0.13440296px;stroke-linecap:butt;stroke-linejoin:miter;stroke-miterlimit:4;stroke-dasharray:none;stroke-dashoffset:0;stroke-opacity:1" />
        <path
           inkscape:connector-curvature="0"
           id="path8856"
           style="font-style:normal;font-variant:normal;font-weight:bold;font-stretch:normal;font-size:10.58333302px;font-family:Arial;-inkscape-font-specification:'Arial Bold';font-variant-ligatures:normal;font-variant-caps:normal;font-variant-numeric:normal;font-feature-settings:normal;text-align:center;writing-mode:lr-tb;text-anchor:middle;opacity:1;vector-effect:none;fill:#e9c7af;fill-opacity:1;stroke:none;stroke-width:0.13440296px;stroke-linecap:butt;stroke-linejoin:miter;stroke-miterlimit:4;stroke-dasharray:none;stroke-dashoffset:0;stroke-opacity:1"
           d="m 85.182918,67.992431 h -2.13409 V 59.94972 c -0.779715,0.729085 -1.698665,1.268304 -2.756849,1.617656 v -1.936631 c 0.556939,-0.18227 1.161977,-0.526559 1.815116,-1.032867 0.653138,-0.511372 1.101221,-1.106285 1.344249,-1.784737 h 1.731574 z"
           sodipodi:nodetypes="ccccccccc" />
        <path
           inkscape:connector-curvature="0"
           id="path8860"
           style="font-style:normal;font-variant:normal;font-weight:bold;font-stretch:normal;font-size:10.58333302px;font-family:Arial;-inkscape-font-specification:'Arial Bold';font-variant-ligatures:normal;font-variant-caps:normal;font-variant-numeric:normal;font-feature-settings:normal;text-align:center;writing-mode:lr-tb;text-anchor:middle;opacity:1;vector-effect:none;fill:#e9c7af;fill-opacity:1;stroke:none;stroke-width:0.19292013px;stroke-linecap:butt;stroke-linejoin:miter;stroke-miterlimit:4;stroke-dasharray:none;stroke-dashoffset:0;stroke-opacity:1"
           d="m 86.780741,67.992431 v -5.817918 h 1.115168 v 3.087545 l 1.305659,-1.484244 h 1.373123 l -1.440589,1.539804 1.543774,2.674813 h -1.202478 l -1.059606,-1.893006 -0.519883,0.543693 v 1.349313 z"
           sodipodi:nodetypes="ccccccccccccc" />
        <path
           inkscape:connector-curvature="0"
           id="path8862"
           style="font-style:normal;font-variant:normal;font-weight:bold;font-stretch:normal;font-size:10.58333302px;font-family:Arial;-inkscape-font-specification:'Arial Bold';font-variant-ligatures:normal;font-variant-caps:normal;font-variant-numeric:normal;font-feature-settings:normal;text-align:center;writing-mode:lr-tb;text-anchor:middle;opacity:1;vector-effect:none;fill:#e9c7af;fill-opacity:1;stroke:none;stroke-width:0.19292013px;stroke-linecap:butt;stroke-linejoin:miter;stroke-miterlimit:4;stroke-dasharray:none;stroke-dashoffset:0;stroke-opacity:1"
           d="m 91.241416,68.270231 1.273899,0.154774 c 0.02113,0.14816 0.07009,0.250019 0.146829,0.30558 0.105833,0.07937 0.272514,0.119056 0.500047,0.119056 0.291021,0 0.509294,-0.04365 0.654803,-0.130962 0.09789,-0.05821 0.171975,-0.152128 0.222243,-0.281768 0.03441,-0.0926 0.05159,-0.263248 0.05159,-0.511945 v -0.615128 c -0.333362,0.455062 -0.754026,0.682593 -1.262005,0.682593 -0.56617,0 -1.014617,-0.239436 -1.345334,-0.71831 -0.259277,-0.378336 -0.388916,-0.849273 -0.388916,-1.41281 0,-0.706405 0.169326,-1.24613 0.50797,-1.619175 0.341301,-0.373045 0.764613,-0.559567 1.269942,-0.559567 0.521199,0 0.951122,0.228854 1.289774,0.686561 v -0.591316 h 1.043723 v 3.782044 c 0,0.497394 -0.04098,0.869116 -0.123024,1.115167 -0.08202,0.246051 -0.197096,0.439188 -0.345262,0.579411 -0.148162,0.140222 -0.346588,0.25002 -0.595284,0.329391 -0.246048,0.07937 -0.558238,0.119056 -0.936573,0.119056 -0.714339,0 -1.220987,-0.123025 -1.519951,-0.369076 -0.298965,-0.243406 -0.448443,-0.552954 -0.448443,-0.928645 0,-0.03704 0.0012,-0.08202 0.0037,-0.134931 z m 0.9961,-2.472416 c 0,0.447125 0.08598,0.775193 0.257951,0.984204 0.17462,0.206365 0.388919,0.309548 0.642906,0.309548 0.272511,0 0.502688,-0.105829 0.690525,-0.317485 0.18785,-0.214303 0.28177,-0.530465 0.28177,-0.948488 0,-0.436542 -0.08996,-0.760642 -0.269869,-0.972299 -0.179902,-0.211657 -0.407435,-0.317485 -0.682586,-0.317485 -0.267212,0 -0.488126,0.104506 -0.662746,0.313517 -0.171967,0.206365 -0.257951,0.522528 -0.257951,0.948488 z"
           sodipodi:nodetypes="cccsccscscscscccscccscsccscscscscs" />
      </g>
    </g>
  </g>
</svg>
