<?xml version="1.0" encoding="UTF-8" standalone="no"?>
<!-- Created with Inkscape (http://www.inkscape.org/) -->

<svg
   width="103.99885mm"
   height="36.301933mm"
   viewBox="0 0 103.99883 36.301934"
   version="1.1"
   id="svg3092"
   inkscape:version="1.1.1 (3bf5ae0d25, 2021-09-20)"
   sodipodi:docname="2022-MK-01_taskbody01.svg"
   xmlns:inkscape="http://www.inkscape.org/namespaces/inkscape"
   xmlns:sodipodi="http://sodipodi.sourceforge.net/DTD/sodipodi-0.dtd"
   xmlns="http://www.w3.org/2000/svg"
   xmlns:svg="http://www.w3.org/2000/svg">
  <sodipodi:namedview
     id="namedview3094"
     pagecolor="#ffffff"
     bordercolor="#666666"
     borderopacity="1.0"
     inkscape:pageshadow="2"
     inkscape:pageopacity="0.0"
     inkscape:pagecheckerboard="0"
     inkscape:document-units="mm"
     showgrid="false"
     inkscape:zoom="1.4954752"
     inkscape:cx="277.83811"
     inkscape:cy="99.299542"
     inkscape:window-width="1920"
     inkscape:window-height="1137"
     inkscape:window-x="-8"
     inkscape:window-y="-8"
     inkscape:window-maximized="1"
     inkscape:current-layer="layer1" />
  <defs
     id="defs3089" />
  <g
     inkscape:label="Ebene 1"
     inkscape:groupmode="layer"
     id="layer1"
     transform="translate(189.94874,-32.761469)">
    <g
       id="g888"
       style="clip-rule:evenodd;fill-rule:evenodd;stroke-linecap:round;stroke-linejoin:round;stroke-miterlimit:1.5"
       transform="matrix(0.26458333,0,0,0.26458333,-425.68611,-10.918756)">
      <g
         transform="matrix(0.707326,0,0,0.707326,56.7105,-221.228)"
         id="g822">
        <path
           d="m 1184.56,710.329 c -1.92,13.104 -3.94,-113.964 0,-127.972 2.28,-8.126 12.5,-12.406 23.29,-15.555 23.24,-6.787 56.03,-5.633 69.27,-6.369 82.69,-4.594 168.04,1.2 250.91,-3.654 37.7,-2.208 223.78,-35.989 202.59,39.436 -3.96,14.082 -2.17,143.291 0,127.971 11.22,-79.28 -167.84,-42.331 -202.59,-39.436 -82.72,6.894 -168.22,-0.939 -250.91,3.654 -19.38,1.078 -88.71,-4.426 -92.56,21.925 z"
           style="fill:#ffd8a3"
           id="path820" />
      </g>
      <g
         transform="translate(-305.63,-409.598)"
         id="g826">
        <path
           d="m 1563.14,579.103 c 17.53,4.428 28.2,13.61 23.31,30.986 -1.93,6.865 -1.92,52.41 -1.23,76.514 1.51,3.966 2,8.604 1.23,14.004 -0.47,3.368 -0.92,-3.139 -1.23,-14.004 -5.04,-13.135 -21.41,-18.966 -41.48,-20.93 0.13,-1.676 0.27,-3.229 0.48,-4.569 0.74,-4.721 2.43,-6.37 2.08,-11.288 -0.65,-9.091 -2.29,-8.854 -1.78,-17.822 0.28,-5.066 1.38,-10.076 1.48,-15.149 0.1,-4.761 -1.14,-9.503 -0.89,-14.258 0.45,-8.459 10.07,-16.731 15.45,-21.387 1.03,-0.89 1.85,-1.567 2.58,-2.097 z"
           style="fill:#efd1a8"
           id="path824" />
      </g>
      <g
         transform="matrix(0.707326,0,0,0.707326,56.7105,-130.71)"
         id="g830">
        <path
           d="m 1230.38,604.409 c -0.67,1.22 -1.7,2.406 -3.19,3.526 -13.66,10.242 -50.53,-9.792 -42.63,-25.578 11.91,-23.82 73.18,-20.847 92.56,-21.924 82.69,-4.594 168.19,3.24 250.91,-3.654 34.75,-2.896 228.24,-34.967 202.91,40.995 -5.5,16.516 -31.99,13.61 -43.84,2.436 -2.89,-2.723 -2.23,-2.953 -4.08,-5.012 0.4,0.396 0,-14.609 0,-16.493 0,-10.306 1.8,-20.509 1.8,-31.022 0,-11.983 0.59,-58.487 -2.7,-68.337 -2.17,-6.524 1.95,-16.991 -0.73,-18.103"
           style="fill:none;stroke:#000000;stroke-width:1.72px"
           id="path828" />
      </g>
      <g
         transform="translate(-305.63,-409.598)"
         id="g834">
        <path
           d="m 1243.64,585.529 c -0.43,3.746 -0.43,4.218 -1.87,8.941 -3.25,10.692 -1.68,19.187 -0.59,30.595 1.18,12.336 3.86,24.498 5.05,36.833 0.37,3.845 -0.98,7.782 -0.3,11.585 0.15,0.816 0.31,1.627 0.5,2.432 -18.64,0.018 -43.84,-1.397 -46.22,14.89 -1.36,9.269 -2.78,-80.609 0,-90.518 1.61,-5.747 8.84,-8.775 16.47,-11.002 12.26,-3.579 15.73,-3.539 26.96,-3.756 z"
           style="fill:#efd1a8"
           id="path832" />
      </g>
      <g
         transform="matrix(0.707326,0,0,0.707326,56.7105,-221.228)"
         id="g838">
        <path
           d="m 1234.53,599.354 c 1.11,0.19 -1.24,6.888 -3.23,8.879 -2.08,2.078 -19.23,4.154 -22.48,3.341 -6.75,-1.688 -15.68,-6.875 -20.66,-11.846 -2.17,-2.175 -4.04,-4.185 -5.46,-6.682 -0.68,-1.18 -1.82,-3.645 -1.82,-3.645 0,0 1.51,3.162 1.51,4.86 v 11.238 c 0,10.843 0.92,21.579 0.92,32.5 0,20.212 2.43,39.983 2.43,60.141 0,6.621 -3.78,16.491 0,22.618 7.24,11.762 22.62,18.352 34.19,16.946 1.59,-0.193 9.11,-2.49 10.76,-7.944 3.1,-10.257 0,-26.36 0,-31.62 0,-33.013 3.34,-66.105 3.34,-98.716 z"
           style="fill:#ffe5c1"
           id="path836" />
      </g>
      <g
         transform="matrix(0.675001,0,0,0.701325,114.537,-216.794)"
         id="g842">
        <path
           d="m 1678.17,603.589 c 4.96,0.549 0.15,106.815 1.11,118.586 0.47,5.808 10.63,10.052 14.96,12.65 3.56,2.138 10.29,2.749 14.86,2.403 20.68,-1.564 20.81,-17.299 20.45,-34.402 -0.08,-3.408 -0.34,-6.856 -0.92,-13.281 -0.86,-9.507 0.84,-21.218 0.92,-33.328 0.16,-27.672 -1.13,-58.72 -1.13,-58.72 0,0 -2.54,16.017 -23.3,14.719 -14.28,-0.893 -26.82,-17.111 -26.95,-17.111"
           style="fill:#ffe5c1"
           id="path840" />
      </g>
      <g
         transform="matrix(0.707326,0,0,0.707326,56.7105,-221.228)"
         id="g846">
        <path
           d="m 1234.58,601.49 c 0.44,-0.042 -0.37,8.212 -0.37,11.19 0,7.615 0.49,15.368 -0.45,22.929 -2.55,20.365 -1.8,41.535 -1.8,62.043 0,7.441 -1.82,17.913 0.45,24.728 0.67,2.019 0.45,11.096 0.45,9.891"
           style="fill:none;stroke:#000000;stroke-width:1.72px"
           id="path844" />
      </g>
      <g
         transform="matrix(0.707326,0,0,0.707326,56.7105,-221.228)"
         id="g850">
        <path
           d="m 1234.77,601.117 c 1.04,-1.067 -7.12,-11.21 -10.16,-13.235 -1.19,-0.797 -3.87,-3.418 -5.46,-1.823 -3.16,3.16 -6.73,12.103 -7.6,17.314 -0.32,1.971 -0.71,5.219 -0.3,7.29 0.12,0.603 0.3,1.822 0.3,1.822 0,0 0.59,-0.304 0.91,-0.304 2.47,0 7.37,1.025 9.42,0 3.55,-1.773 17.13,-8.086 11.54,-13.668"
           style="fill:#deb780"
           id="path848" />
      </g>
      <g
         transform="matrix(0.707326,0,0,0.707326,16.8229,-220.871)"
         id="g854">
        <path
           d="m 1757.3,607.814 c 1.6,-1.169 -2.2,-7.231 -2.42,-12.289 -0.21,-4.529 2.65,-8.683 2.42,-9.384 -1.38,-4.108 -1.59,-4.944 -5.95,-5.63 -11.65,-1.835 -8.99,12.124 -9.86,15.014 -1.06,3.553 10.88,15.862 15.81,12.289 z"
           style="fill:#deb780"
           id="path852" />
      </g>
      <g
         transform="matrix(0.707326,0,0,0.707326,56.7105,-221.228)"
         id="g858">
        <path
           d="m 1182.58,587.505 c -2.13,13.622 -0.89,37.504 0.38,53.949 1.96,25.597 0.9,52.118 0.9,77.779"
           style="fill:none;stroke:#000000;stroke-width:1.72px"
           id="path856" />
      </g>
      <g
         transform="matrix(0.707326,0,0,0.707326,56.7105,-221.228)"
         id="g862">
        <path
           d="m 1219.86,584.839 c 0.79,-0.064 -5.35,4.512 -6.33,9.408 -0.73,3.628 -0.08,14.754 -0.45,14.387"
           style="fill:none;stroke:#000000;stroke-width:1.72px"
           id="path860" />
      </g>
      <g
         transform="matrix(0.707326,0,0,0.707326,16.6777,-221.731)"
         id="g866">
        <path
           d="m 1788.78,595.525 c -1.01,10.081 -1.13,26.379 -1.13,36.487 0,30.021 1.62,55.563 1.62,85.049"
           style="fill:none;stroke:#000000;stroke-width:1.72px"
           id="path864" />
      </g>
      <g
         transform="matrix(0.707326,0,0,0.707326,57.8171,-222.804)"
         id="g870">
        <path
           d="m 1699.26,590.463 c 0.56,-3.159 -5.07,12.793 0,19.091"
           style="fill:none;stroke:#000000;stroke-width:1.72px"
           id="path868" />
      </g>
      <g
         transform="matrix(0.707326,0,0,0.707326,56.7105,-221.228)"
         id="g874">
        <path
           d="m 1221.1,584.793 c -1.41,-0.351 -2.17,-0.472 -1.22,0 10.38,5.192 19.88,13.713 7.31,23.142 -13.66,10.242 -50.53,-9.792 -42.63,-25.578 11.91,-23.82 73.18,-20.847 92.56,-21.924 82.69,-4.594 168.19,3.24 250.91,-3.654 34.75,-2.896 228.24,-34.967 202.91,40.995 -4.69,14.097 -26.19,15.399 -38.47,7.374 -2.11,-1.377 -3.94,-3.029 -5.37,-4.938 -5.29,-7.047 -3.69,-13.446 0,-17.242 5.21,-5.371 14.61,-5.53 14.61,5.062"
           style="fill:none;stroke:#000000;stroke-width:1.72px"
           id="path872" />
      </g>
      <g
         transform="matrix(1.19658,-0.154577,0.154577,1.19658,-26.3675,-1118.41)"
         id="g878">
        <path
           d="m 880.172,1242.59 c -4.2,3.23 -9.46,5.15 -15.164,5.15 -13.749,0 -24.912,-11.17 -24.912,-24.92 0,-13.74 11.163,-24.91 24.912,-24.91 1.349,0 2.673,0.11 3.964,0.32 -5.927,4.55 -9.748,11.71 -9.748,19.76 0,12.4 9.08,22.69 20.948,24.6 z"
           id="path876" />
      </g>
      <g
         transform="matrix(0.675647,0,0,0.675647,461.312,-547.611)"
         id="g882">
        <path
           d="m 781.641,1093.23 25.587,18.59 -12.794,17.61 20.701,6.73 -9.773,30.08 -20.701,-6.73 v 21.77 h -31.628 v -21.77 l -20.701,6.73 -9.773,-30.08 20.7,-6.73 -12.793,-17.61 25.587,-18.59 12.794,17.61 z"
           id="path880" />
      </g>
      <g
         transform="matrix(0.518881,0,0,0.518881,329.253,-253.935)"
         id="g886">
        <path
           d="m 1417.77,911.109 v 70.986 h 75.72 v -71.287 l 21.4,-0.085 -59.26,-60.709 -59.26,61.18 z"
           id="path884" />
      </g>
    </g>
  </g>
</svg>
