<?xml version="1.0" encoding="UTF-8" standalone="no"?>
<!-- Created with Inkscape (http://www.inkscape.org/) -->

<svg
   width="103.99885mm"
   height="36.301933mm"
   viewBox="0 0 103.99883 36.301934"
   version="1.1"
   id="svg3092"
   inkscape:version="1.1.1 (3bf5ae0d25, 2021-09-20)"
   sodipodi:docname="2022-MK-01-explanation03.svg"
   xmlns:inkscape="http://www.inkscape.org/namespaces/inkscape"
   xmlns:sodipodi="http://sodipodi.sourceforge.net/DTD/sodipodi-0.dtd"
   xmlns="http://www.w3.org/2000/svg"
   xmlns:svg="http://www.w3.org/2000/svg">
  <sodipodi:namedview
     id="namedview3094"
     pagecolor="#ffffff"
     bordercolor="#666666"
     borderopacity="1.0"
     inkscape:pageshadow="2"
     inkscape:pageopacity="0.0"
     inkscape:pagecheckerboard="0"
     inkscape:document-units="mm"
     showgrid="false"
     inkscape:zoom="1.4954752"
     inkscape:cx="276.1664"
     inkscape:cy="99.29954"
     inkscape:window-width="1920"
     inkscape:window-height="1137"
     inkscape:window-x="-8"
     inkscape:window-y="-8"
     inkscape:window-maximized="1"
     inkscape:current-layer="layer1" />
  <defs
     id="defs3089" />
  <g
     inkscape:label="Ebene 1"
     inkscape:groupmode="layer"
     id="layer1"
     transform="translate(189.94874,-32.761469)">
    <g
       id="g740"
       style="clip-rule:evenodd;fill-rule:evenodd;stroke-linecap:round;stroke-linejoin:round;stroke-miterlimit:1.5"
       transform="matrix(0.26458333,0,0,0.26458333,-618.32613,-321.41362)">
      <g
         transform="translate(733.919,568.657)"
         id="g666">
        <path
           d="m 891.72,890.149 c -0.179,5.236 -0.681,-0.004 1.116,-3.688 2.724,-5.582 9.892,-16.932 30.494,-19.665 7.651,-1.015 23.292,-0.023 31.79,0 39.433,0.104 49.63,0.718 53.78,1.109 1.37,-2.661 2.91,-5.64 3.26,-5.289 2.43,2.427 2.83,3.871 2.73,5.873 7.55,0.756 7.55,-0.412 12.26,0 0.22,-3.004 3.1,-2.406 3.1,-5.348 0,-0.019 0.89,-12.373 1.66,-11.225 4.33,6.49 2.97,9.906 3.96,17.082 5.94,0.239 51.09,2.856 57.06,2.911 51.55,0.474 66.66,-6.21 117.83,-5.113 13.73,0.294 62.6,-5.266 65.96,13.269 1.67,9.218 0.04,-80.657 -3.08,-90.465 -1.81,-5.689 -9.14,-8.469 -16.84,-10.435 -16.6,-4.239 -39.75,-2.633 -49.13,-2.834 -58.56,-1.256 -123.2,14.705 -181.9,13.269 -26.704,-0.653 -154.615,-29.861 -137.817,22.947 2.034,6.394 3.526,47.065 3.805,71.934 0.029,2.589 0.005,4.424 -0.038,5.668 z"
           style="fill:#ffd8a3"
           id="path664" />
      </g>
      <g
         transform="matrix(-0.99942,0.0340491,0.0340491,0.99942,3186.63,717.451)"
         id="g670">
        <path
           d="m 1563.14,579.103 c 17.53,4.428 28.2,13.61 23.31,30.986 -1.93,6.865 -1.92,52.41 -1.23,76.514 0.23,-0.489 0.23,-2.73 0,0 -0.19,2.148 -1.81,-3.854 -3.09,-5.537 -7.05,-9.294 -21.4,-13.73 -38.39,-15.393 0.13,-1.676 0.27,-3.229 0.48,-4.569 0.74,-4.721 2.43,-6.37 2.08,-11.288 -0.65,-9.091 -2.29,-8.854 -1.78,-17.822 0.28,-5.066 1.38,-10.076 1.48,-15.149 0.1,-4.761 -1.14,-9.503 -0.89,-14.258 0.45,-8.459 10.07,-16.731 15.45,-21.387 1.03,-0.89 1.85,-1.567 2.58,-2.097 z"
           style="fill:#efd1a8"
           id="path668" />
      </g>
      <g
         transform="matrix(-0.99942,0.0340491,0.0340491,0.99942,3186.63,717.451)"
         id="g674">
        <path
           d="m 1243.64,585.529 c -0.43,3.746 -0.43,4.218 -1.87,8.941 -3.25,10.692 -1.68,19.187 -0.59,30.595 1.18,12.336 3.86,24.498 5.05,36.833 0.37,3.845 -0.98,7.782 -0.3,11.585 0.15,0.816 0.31,1.627 0.5,2.432 -18.64,0.018 -43.84,-1.397 -46.22,14.89 -1.36,9.269 -2.78,-80.609 0,-90.518 1.61,-5.747 8.84,-8.775 16.47,-11.002 12.26,-3.579 15.73,-3.539 26.96,-3.756 z"
           style="fill:#efd1a8"
           id="path672" />
      </g>
      <g
         transform="matrix(-0.706916,0.0240838,0.0240838,0.706916,2830.92,918.05)"
         id="g678">
        <path
           d="m 1234.53,599.354 c 1.11,0.19 -1.24,6.888 -3.23,8.879 -2.08,2.078 -19.23,4.154 -22.48,3.341 -6.75,-1.688 -15.68,-6.875 -20.66,-11.846 -2.17,-2.175 -4.04,-4.185 -5.46,-6.682 -0.68,-1.18 -1.82,-3.645 -1.82,-3.645 0,0 1.51,3.162 1.51,4.86 v 11.238 c 0,10.843 0.92,21.579 0.92,32.5 0,20.212 2.43,39.983 2.43,60.141 0,6.621 -3.78,16.491 0,22.618 7.24,11.762 22.62,18.352 34.19,16.946 1.59,-0.193 9.11,-2.49 10.76,-7.944 3.1,-10.257 0,-26.36 0,-31.62 0,-33.013 3.34,-66.105 3.34,-98.716 z"
           style="fill:#ffe5c1"
           id="path676" />
      </g>
      <g
         transform="matrix(-0.674609,0.0229832,0.0238795,0.700919,2773.27,924.45)"
         id="g682">
        <path
           d="m 1678.17,603.589 c 4.96,0.549 -0.17,88.24 0.78,100.011 0.47,5.808 9.88,9.168 14.2,11.766 3.57,2.138 11.14,2.666 15.7,2.32 20.68,-1.564 20.73,-16.332 20.37,-33.435 -0.08,-3.408 -0.34,-6.856 -0.92,-13.281 -0.85,-9.507 0.84,-21.218 0.92,-33.328 0.16,-27.672 -0.8,-40.145 -0.8,-40.145 0,0 -2.54,16.017 -23.3,14.719 -14.28,-0.893 -26.82,-17.111 -26.95,-17.111"
           style="fill:#ffe5c1"
           id="path680" />
      </g>
      <g
         transform="matrix(-0.706916,0.0240838,0.0240838,0.706916,2830.92,918.05)"
         id="g686">
        <path
           d="m 1234.58,601.49 c 0.44,-0.042 -0.37,8.212 -0.37,11.19 0,7.615 0.49,15.368 -0.45,22.929 -2.55,20.365 -1.8,41.535 -1.8,62.043 0,7.441 -1.82,17.913 0.45,24.728 0.67,2.019 0.45,11.096 0.45,9.891"
           style="fill:none;stroke:#000000;stroke-width:1.72px"
           id="path684" />
      </g>
      <g
         transform="matrix(-0.706916,0.0240838,0.0240838,0.706916,2830.92,918.05)"
         id="g690">
        <path
           d="m 1234.77,601.117 c 1.04,-1.067 -7.12,-11.21 -10.16,-13.235 -1.19,-0.797 -3.87,-3.418 -5.46,-1.823 -3.16,3.16 -6.73,12.103 -7.6,17.314 -0.32,1.971 -0.71,5.219 -0.3,7.29 0.12,0.603 0.3,1.822 0.3,1.822 0,0 0.59,-0.304 0.91,-0.304 2.47,0 7.37,1.025 9.42,0 3.55,-1.773 17.13,-8.086 11.54,-13.668"
           style="fill:#deb780"
           id="path688" />
      </g>
      <g
         transform="matrix(-0.706916,0.0240838,0.0240838,0.706916,2870.79,917.049)"
         id="g694">
        <path
           d="m 1757.3,607.814 c 1.6,-1.169 -2.2,-7.231 -2.42,-12.289 -0.21,-4.529 2.65,-8.683 2.42,-9.384 -1.38,-4.108 -1.59,-4.944 -5.95,-5.63 -11.65,-1.835 -8.99,12.124 -9.86,15.014 -1.06,3.553 10.88,15.862 15.81,12.289 z"
           style="fill:#deb780"
           id="path692" />
      </g>
      <g
         transform="matrix(-0.706916,0.0240838,0.0240838,0.706916,2830.92,918.05)"
         id="g698">
        <path
           d="m 1182.58,587.505 c -2.13,13.622 -0.89,37.504 0.38,53.949 1.96,25.597 0.9,52.118 0.9,77.779"
           style="fill:none;stroke:#000000;stroke-width:1.72px"
           id="path696" />
      </g>
      <g
         transform="matrix(-0.706916,0.0240838,0.0240838,0.706916,2830.92,918.05)"
         id="g702">
        <path
           d="m 1219.86,584.839 c 0.79,-0.064 -5.35,4.512 -6.33,9.408 -0.73,3.628 -0.08,14.754 -0.45,14.387"
           style="fill:none;stroke:#000000;stroke-width:1.72px"
           id="path700" />
      </g>
      <g
         transform="matrix(-0.706916,0.0240838,0.0240838,0.706916,2870.91,916.184)"
         id="g706">
        <path
           d="m 1788.78,595.525 c -1.01,10.081 -1.13,26.379 -1.13,36.487 0,30.021 2.17,34.02 2.17,63.506"
           style="fill:none;stroke:#000000;stroke-width:1.72px"
           id="path704" />
      </g>
      <g
         transform="matrix(-0.706916,0.0240838,0.0240838,0.706916,2829.76,916.513)"
         id="g710">
        <path
           d="m 1699.26,590.463 c 0.56,-3.159 -5.07,12.793 0,19.091"
           style="fill:none;stroke:#000000;stroke-width:1.72px"
           id="path708" />
      </g>
      <g
         transform="matrix(-0.706916,0.0240838,0.0240838,0.706916,2830.92,918.05)"
         id="g714">
        <path
           d="m 1221.1,584.793 c -1.41,-0.351 -2.17,-0.472 -1.22,0 10.38,5.192 19.88,13.713 7.31,23.142 -13.66,10.242 -50.53,-9.792 -42.63,-25.578 11.91,-23.82 73.18,-20.847 92.56,-21.924 82.69,-4.594 177.85,16.787 260.58,9.893 34.74,-2.896 218.57,-48.514 193.24,27.448 -4.69,14.097 -26.19,15.399 -38.47,7.374 -2.11,-1.377 -3.94,-3.029 -5.37,-4.938 -5.29,-7.047 -3.69,-13.446 0,-17.242 5.21,-5.371 14.61,-5.53 14.61,5.062"
           style="fill:none;stroke:#000000;stroke-width:1.72px"
           id="path712" />
      </g>
      <g
         transform="translate(762.877,366.365)"
         id="g718">
        <path
           d="m 951.897,997.676 7.66,23.574 h 24.789 l -20.055,14.57 7.66,23.58 -20.054,-14.57 -20.055,14.57 7.66,-23.58 -20.054,-14.57 h 24.789 z"
           id="path716" />
      </g>
      <g
         transform="translate(733.919,568.657)"
         id="g722">
        <path
           d="m 1146.16,869.087 c 21.66,-1.468 43.26,-2.749 64.6,-2.291 6.43,0.138 19.35,-0.575 32.19,0.334 m -96.79,1.957 c -36.3,2.46 -74.58,3.769 -110.21,0 -0.98,-7.281 0.31,-10.936 -4.08,-17.521 -0.76,-1.148 -1.66,11.206 -1.66,11.226 0,2.883 -2.8,2.348 -3.01,5.295 -4.73,-0.517 -4.65,0.556 -12.16,-0.064 0.08,-1.968 -0.33,-3.408 -2.74,-5.809 -0.35,-0.353 -1.9,2.661 -3.28,5.334 -7.55,-0.571 -74.177,-2.035 -84.585,-0.895 -0.422,0.046 -0.841,0.094 -1.256,0.143 v 0 c 0.388,3.22 0.749,6.431 0.859,9.665 0.045,1.332 0.127,11.949 0.397,11.66 -1.254,1.499 -0.782,1.646 -2.759,3.641 -8.112,8.184 -26.736,10.865 -31.055,-0.666 -0.954,-2.545 -1.614,-4.784 -1.996,-6.758"
           style="fill:none;stroke:#000000;stroke-width:1.22px"
           id="path720" />
      </g>
      <g
         transform="translate(733.919,568.657)"
         id="g726">
        <path
           d="m 1276.72,880.065 c 5.96,10.969 -19.62,26.02 -29.52,19.108 -1.08,-0.756 -1.84,-1.569 -2.34,-2.416"
           style="fill:none;stroke:#000000;stroke-width:1.22px"
           id="path724" />
      </g>
      <g
         transform="translate(733.919,568.657)"
         id="g730">
        <path
           d="m 923.179,866.796 c -0.487,-4.037 -1.019,-8.089 -1.16,-12.221 -0.288,-8.471 -1.601,-28.304 0.483,-35.347 1.381,-4.664 -1.783,-11.964 0.086,-12.815"
           style="fill:none;stroke:#000000;stroke-width:1.22px"
           id="path728" />
      </g>
      <g
         transform="matrix(1.19658,-0.154577,0.154577,1.19658,698.253,62.8878)"
         id="g734">
        <path
           d="m 880.172,1242.59 c -4.2,3.23 -9.46,5.15 -15.164,5.15 -13.749,0 -24.912,-11.17 -24.912,-24.92 0,-13.74 11.163,-24.91 24.912,-24.91 1.349,0 2.673,0.11 3.964,0.32 -5.927,4.55 -9.748,11.71 -9.748,19.76 0,12.4 9.08,22.69 20.948,24.6 z"
           id="path732" />
      </g>
      <g
         transform="matrix(1.24568,0,0,0.884167,261.224,403.744)"
         id="g738">
        <ellipse
           cx="1251.25"
           cy="1126.97"
           rx="24.083"
           ry="33.93"
           id="ellipse736" />
      </g>
    </g>
  </g>
</svg>
