<?xml version="1.0" encoding="UTF-8" standalone="no"?>
<svg
   xmlns:dc="http://purl.org/dc/elements/1.1/"
   xmlns:cc="http://creativecommons.org/ns#"
   xmlns:rdf="http://www.w3.org/1999/02/22-rdf-syntax-ns#"
   xmlns:svg="http://www.w3.org/2000/svg"
   xmlns="http://www.w3.org/2000/svg"
   xmlns:sodipodi="http://sodipodi.sourceforge.net/DTD/sodipodi-0.dtd"
   xmlns:inkscape="http://www.inkscape.org/namespaces/inkscape"
   sodipodi:docname="2022-SK-02-question.svg"
   inkscape:version="1.0 (4035a4fb49, 2020-05-01)"
   id="svg1970"
   version="1.1"
   viewBox="0 0 1518.4714 84.470085"
   height="84.470085mm"
   width="1518.4714mm">
  <defs
     id="defs1964" />
  <sodipodi:namedview
     showgrid="false"
     inkscape:document-rotation="0"
     inkscape:current-layer="layer1"
     inkscape:document-units="mm"
     inkscape:cy="560"
     inkscape:cx="400"
     inkscape:zoom="0.35"
     inkscape:pageshadow="2"
     inkscape:pageopacity="0.0"
     borderopacity="1.0"
     bordercolor="#666666"
     pagecolor="#ffffff"
     id="base" />
  <metadata
     id="metadata1967">
    <rdf:RDF>
      <cc:Work
         rdf:about="">
        <dc:format>image/svg+xml</dc:format>
        <dc:type
           rdf:resource="http://purl.org/dc/dcmitype/StillImage" />
        <dc:title></dc:title>
      </cc:Work>
    </rdf:RDF>
  </metadata>
  <g
     transform="translate(563.12067,-50.74379)"
     id="layer1"
     inkscape:groupmode="layer"
     inkscape:label="Ebene 1">
    <g
       transform="matrix(0.26458333,0,0,0.26458333,-619.9211,-467.51489)"
       style="clip-rule:evenodd;fill-rule:evenodd;stroke-linecap:round;stroke-linejoin:round;stroke-miterlimit:1.5"
       id="g1797">
      <g
         id="g92"
         transform="translate(7.56579,549.67)">
        <path
           id="path90"
           style="fill:#d9d9d9"
           d="m 216.3,1697.45 c 0,0 5567.42,2.45 5707.32,2.47 l 14.05,0.02 v -0.03 h 0.72 c 4.56,-0.38 8.01,-4.29 7.82,-8.86 -0.19,-4.57 -3.95,-8.18 -8.52,-8.19 l -5721.369,-2.49 c -4.715,0 -8.541,3.82 -8.547,8.53 -0.005,4.72 3.812,8.54 8.526,8.55 z m -0.11,-43.7 c 0,0 5567.42,2.45 5707.32,2.48 l 14.05,0.01 v -0.02 l 0.72,-0.01 c 4.56,-0.38 8.01,-4.29 7.82,-8.86 -0.19,-4.57 -3.95,-8.18 -8.52,-8.18 l -5721.37,-2.49 c -4.714,-0.01 -8.54,3.81 -8.546,8.53 -0.006,4.71 3.811,8.54 8.526,8.54 z m -0.11,-43.69 c 0,0 5567.42,2.45 5707.32,2.47 l 14.05,0.02 v -0.03 h 0.72 c 4.56,-0.38 8.01,-4.29 7.82,-8.86 -0.19,-4.57 -3.95,-8.18 -8.52,-8.18 L 216.1,1592.99 c -4.714,-0.01 -8.54,3.81 -8.546,8.52 -0.006,4.72 3.811,8.54 8.526,8.55 z m -0.111,-43.69 c 0,0 5567.421,2.45 5707.321,2.47 l 14.05,0.02 v -0.03 h 0.72 c 4.56,-0.39 8.01,-4.29 7.82,-8.86 -0.19,-4.57 -3.95,-8.18 -8.52,-8.19 l -5721.37,-2.49 c -4.714,0 -8.541,3.82 -8.546,8.53 -0.006,4.71 3.811,8.54 8.525,8.55 z m -0.11,-43.7 c 0,0 5567.421,2.45 5707.321,2.47 l 14.05,0.02 v -0.03 h 0.72 c 4.56,-0.38 8.01,-4.29 7.82,-8.86 -0.19,-4.57 -3.95,-8.18 -8.52,-8.18 L 215.88,1505.6 c -4.715,-0.01 -8.541,3.81 -8.546,8.52 -0.006,4.72 3.811,8.55 8.525,8.55 z m -0.11,-43.69 c 0,0 5567.421,2.45 5707.321,2.47 l 14.05,0.02 v -0.03 h 0.72 c 4.56,-0.38 8.01,-4.29 7.82,-8.86 -0.19,-4.57 -3.95,-8.18 -8.52,-8.19 L 215.77,1461.9 c -4.715,0 -8.541,3.82 -8.547,8.53 -0.005,4.72 3.812,8.54 8.526,8.55 z m -0.11,-43.7 c 0,0 5567.421,2.46 5707.321,2.48 l 14.05,0.01 v -0.02 l 0.72,-0.01 c 4.56,-0.38 8,-4.29 7.82,-8.86 -0.19,-4.56 -3.95,-8.18 -8.52,-8.18 l -5721.371,-2.49 c -4.714,0 -8.54,3.81 -8.546,8.53 -0.005,4.71 3.812,8.54 8.526,8.54 z" />
      </g>
      <g
         id="g100"
         transform="translate(5225.6,1064.41)">
        <path
           id="path98"
           style="fill:#c2c2c2"
           d="m 378.733,904.366 -0.478,300.274 c -0.007,4.71 3.812,8.54 8.523,8.55 4.712,0.01 8.543,-3.81 8.551,-8.52 l 0.477,-300.277 c 0.007,-4.712 -3.812,-8.543 -8.523,-8.55 -4.712,-0.008 -8.543,3.811 -8.55,8.523 z m 105.332,0 -0.478,300.274 c -0.007,4.71 3.812,8.54 8.523,8.55 4.712,0.01 8.543,-3.81 8.55,-8.52 l 0.478,-300.277 c 0.007,-4.712 -3.812,-8.543 -8.523,-8.55 -4.712,-0.008 -8.543,3.811 -8.55,8.523 z m -202.059,-8.523 h -0.055 c -4.712,-0.008 -8.543,3.811 -8.55,8.523 l -0.478,300.274 c -0.007,4.71 3.812,8.54 8.524,8.55 h 0.055 c 4.686,-0.02 8.487,-3.83 8.495,-8.52 l 0.477,-300.277 c 0.007,-4.693 -3.782,-8.513 -8.468,-8.55 z m 254.725,8.523 -0.478,300.274 c -0.007,4.71 3.812,8.54 8.523,8.55 4.712,0.01 8.543,-3.81 8.55,-8.52 l 0.478,-300.277 c 0.007,-4.712 -3.812,-8.543 -8.523,-8.55 -4.712,-0.008 -8.543,3.811 -8.55,8.523 z m -210.664,0 -0.478,300.274 c -0.007,4.71 3.812,8.54 8.523,8.55 4.712,0.01 8.543,-3.81 8.551,-8.52 l 0.477,-300.277 c 0.007,-4.712 -3.812,-8.543 -8.523,-8.55 -4.712,-0.008 -8.543,3.811 -8.55,8.523 z m 105.332,0 -0.478,300.274 c -0.007,4.71 3.812,8.54 8.523,8.55 4.712,0.01 8.543,-3.81 8.551,-8.52 l 0.477,-300.277 c 0.007,-4.712 -3.812,-8.543 -8.523,-8.55 -4.712,-0.008 -8.543,3.811 -8.55,8.523 z m 263.329,0 -0.477,300.274 c -0.007,4.71 3.812,8.54 8.523,8.55 4.712,0.01 8.543,-3.81 8.55,-8.52 l 0.478,-300.277 c 0.007,-4.712 -3.812,-8.543 -8.523,-8.55 -4.712,-0.008 -8.543,3.811 -8.551,8.523 z m -52.666,0 -0.477,300.274 c -0.007,4.71 3.812,8.54 8.523,8.55 4.712,0.01 8.543,-3.81 8.55,-8.52 l 0.478,-300.277 c 0.007,-4.712 -3.812,-8.543 -8.523,-8.55 -4.712,-0.008 -8.543,3.811 -8.551,8.523 z m -52.666,0 -0.477,300.274 c -0.007,4.71 3.812,8.54 8.523,8.55 4.712,0.01 8.543,-3.81 8.55,-8.52 l 0.478,-300.277 c 0.007,-4.712 -3.812,-8.543 -8.523,-8.55 -4.712,-0.008 -8.543,3.811 -8.551,8.523 z" />
      </g>
      <g
         id="g108"
         transform="translate(-40.879,1062.93)">
        <path
           id="path106"
           style="fill:#c2c2c2"
           d="m 1274.05,904.366 -0.47,300.274 c -0.01,4.71 3.81,8.54 8.52,8.55 4.71,0.01 8.54,-3.81 8.55,-8.52 l 0.48,-300.277 c 0,-4.712 -3.81,-8.543 -8.53,-8.55 -4.71,-0.008 -8.54,3.811 -8.55,8.523 z m -105.33,0 -0.47,300.274 c -0.01,4.71 3.81,8.54 8.52,8.55 4.71,0.01 8.54,-3.81 8.55,-8.52 l 0.48,-300.277 c 0,-4.712 -3.82,-8.543 -8.53,-8.55 -4.71,-0.008 -8.54,3.811 -8.55,8.523 z m 368.66,0 -0.47,300.274 c -0.01,4.71 3.81,8.54 8.52,8.55 4.71,0.01 8.54,-3.81 8.55,-8.52 l 0.48,-300.277 c 0,-4.712 -3.82,-8.543 -8.53,-8.55 -4.71,-0.008 -8.54,3.811 -8.55,8.523 z m -421.32,0 -0.48,300.274 c -0.01,4.71 3.81,8.54 8.52,8.55 4.71,0.01 8.54,-3.81 8.55,-8.52 l 0.48,-300.277 c 0.01,-4.712 -3.81,-8.543 -8.52,-8.55 -4.72,-0.008 -8.55,3.811 -8.55,8.523 z m -52.67,0 -0.48,300.274 c -0.01,4.71 3.81,8.54 8.53,8.55 4.71,0.01 8.54,-3.81 8.55,-8.52 l 0.47,-300.277 c 0.01,-4.712 -3.81,-8.543 -8.52,-8.55 -4.71,-0.008 -8.54,3.811 -8.55,8.523 z m 368.66,0 -0.48,300.274 c 0,4.71 3.82,8.54 8.53,8.55 4.71,0.01 8.54,-3.81 8.55,-8.52 l 0.47,-300.277 c 0.01,-4.712 -3.81,-8.543 -8.52,-8.55 -4.71,-0.008 -8.54,3.811 -8.55,8.523 z m -421.33,0 -0.47,300.274 c -0.01,4.71 3.81,8.54 8.52,8.55 4.71,0.01 8.54,-3.81 8.55,-8.52 l 0.48,-300.277 c 0.01,-4.712 -3.81,-8.543 -8.53,-8.55 -4.71,-0.008 -8.54,3.811 -8.55,8.523 z m -210.66,0 -0.477,300.274 c -0.007,4.71 3.812,8.54 8.523,8.55 4.711,0.01 8.543,-3.81 8.55,-8.52 l 0.477,-300.277 c 0.008,-4.712 -3.811,-8.543 -8.523,-8.55 -4.711,-0.008 -8.542,3.811 -8.55,8.523 z m -421.327,0 -0.478,300.274 c -0.007,4.71 3.812,8.54 8.523,8.55 4.712,0.01 8.543,-3.81 8.551,-8.52 l 0.477,-300.277 c 0.007,-4.712 -3.812,-8.543 -8.523,-8.55 -4.712,-0.008 -8.543,3.811 -8.55,8.523 z m 105.332,0 -0.478,300.274 c -0.007,4.71 3.812,8.54 8.523,8.55 4.712,0.01 8.543,-3.81 8.55,-8.52 l 0.478,-300.277 c 0.007,-4.712 -3.812,-8.543 -8.523,-8.55 -4.712,-0.008 -8.543,3.811 -8.55,8.523 z m -202.059,-8.523 h -0.055 c -4.712,-0.008 -8.543,3.811 -8.55,8.523 l -0.478,300.274 c -0.007,4.71 3.812,8.54 8.524,8.55 h 0.055 c 4.686,-0.02 8.487,-3.83 8.495,-8.52 l 0.477,-300.277 c 0.007,-4.693 -3.782,-8.513 -8.468,-8.55 z m 676.052,8.523 -0.477,300.274 c -0.008,4.71 3.811,8.54 8.523,8.55 4.711,0.01 8.543,-3.81 8.55,-8.52 l 0.477,-300.277 c 0.008,-4.712 -3.811,-8.543 -8.523,-8.55 -4.711,-0.008 -8.542,3.811 -8.55,8.523 z m -210.664,0 -0.477,300.274 c -0.007,4.71 3.812,8.54 8.523,8.55 4.712,0.01 8.543,-3.81 8.55,-8.52 l 0.477,-300.277 c 0.008,-4.712 -3.811,-8.543 -8.523,-8.55 -4.711,-0.008 -8.542,3.811 -8.55,8.523 z m -210.663,0 -0.478,300.274 c -0.007,4.71 3.812,8.54 8.523,8.55 4.712,0.01 8.543,-3.81 8.55,-8.52 l 0.478,-300.277 c 0.007,-4.712 -3.812,-8.543 -8.523,-8.55 -4.712,-0.008 -8.543,3.811 -8.55,8.523 z m 789.989,0 -0.48,300.274 c 0,4.71 3.81,8.54 8.53,8.55 4.71,0.01 8.54,-3.81 8.55,-8.52 l 0.47,-300.277 c 0.01,-4.712 -3.81,-8.543 -8.52,-8.55 -4.71,-0.008 -8.54,3.811 -8.55,8.523 z m -1000.653,0 -0.478,300.274 c -0.007,4.71 3.812,8.54 8.523,8.55 4.712,0.01 8.543,-3.81 8.551,-8.52 l 0.477,-300.277 c 0.007,-4.712 -3.812,-8.543 -8.523,-8.55 -4.712,-0.008 -8.543,3.811 -8.55,8.523 z m 105.332,0 -0.478,300.274 c -0.007,4.71 3.812,8.54 8.523,8.55 4.712,0.01 8.543,-3.81 8.551,-8.52 l 0.477,-300.277 c 0.007,-4.712 -3.812,-8.543 -8.523,-8.55 -4.712,-0.008 -8.543,3.811 -8.55,8.523 z m 473.993,0 -0.477,300.274 c -0.008,4.71 3.811,8.54 8.523,8.55 4.711,0.01 8.543,-3.81 8.55,-8.52 l 0.477,-300.277 c 0.008,-4.712 -3.811,-8.543 -8.523,-8.55 -4.711,-0.008 -8.542,3.811 -8.55,8.523 z m -210.664,0 -0.477,300.274 c -0.007,4.71 3.812,8.54 8.523,8.55 4.712,0.01 8.543,-3.81 8.55,-8.52 l 0.478,-300.277 c 0.007,-4.712 -3.812,-8.543 -8.523,-8.55 -4.712,-0.008 -8.543,3.811 -8.551,8.523 z m 1000.652,0 -0.48,300.274 c 0,4.71 3.82,8.54 8.53,8.55 4.71,0.01 8.54,-3.81 8.55,-8.52 l 0.47,-300.277 c 0.01,-4.712 -3.81,-8.543 -8.52,-8.55 -4.71,-0.008 -8.54,3.811 -8.55,8.523 z m -842.654,0 -0.477,300.274 c -0.008,4.71 3.812,8.54 8.523,8.55 4.711,0.01 8.543,-3.81 8.55,-8.52 l 0.477,-300.277 c 0.008,-4.712 -3.811,-8.543 -8.523,-8.55 -4.711,-0.008 -8.542,3.811 -8.55,8.523 z m -210.664,0 -0.477,300.274 c -0.007,4.71 3.812,8.54 8.523,8.55 4.712,0.01 8.543,-3.81 8.55,-8.52 l 0.478,-300.277 c 0.007,-4.712 -3.812,-8.543 -8.523,-8.55 -4.712,-0.008 -8.543,3.811 -8.551,8.523 z m 1000.658,0 -0.48,300.274 c -0.01,4.71 3.81,8.54 8.52,8.55 4.71,0.01 8.54,-3.81 8.55,-8.52 l 0.48,-300.277 c 0.01,-4.712 -3.81,-8.543 -8.52,-8.55 -4.72,-0.008 -8.55,3.811 -8.55,8.523 z m -421.33,0 -0.48,300.274 c -0.01,4.71 3.81,8.54 8.52,8.55 4.71,0.01 8.55,-3.81 8.55,-8.52 l 0.48,-300.277 c 0.01,-4.712 -3.81,-8.543 -8.52,-8.55 -4.71,-0.008 -8.55,3.811 -8.55,8.523 z m -631.994,0 -0.477,300.274 c -0.007,4.71 3.812,8.54 8.523,8.55 4.712,0.01 8.543,-3.81 8.55,-8.52 l 0.478,-300.277 c 0.007,-4.712 -3.812,-8.543 -8.523,-8.55 -4.712,-0.008 -8.543,3.811 -8.551,8.523 z m 1000.654,0 -0.48,300.274 c 0,4.71 3.81,8.54 8.53,8.55 4.71,0.01 8.54,-3.81 8.54,-8.52 l 0.48,-300.277 c 0.01,-4.712 -3.81,-8.543 -8.52,-8.55 -4.71,-0.008 -8.54,3.811 -8.55,8.523 z m -105.33,0 -0.48,300.274 c -0.01,4.71 3.81,8.54 8.52,8.55 4.72,0.01 8.55,-3.81 8.55,-8.52 l 0.48,-300.277 c 0.01,-4.712 -3.81,-8.543 -8.52,-8.55 -4.71,-0.008 -8.54,3.811 -8.55,8.523 z m -105.33,0 -0.48,300.274 c -0.01,4.71 3.81,8.54 8.52,8.55 4.71,0.01 8.54,-3.81 8.55,-8.52 l 0.48,-300.277 c 0.01,-4.712 -3.81,-8.543 -8.52,-8.55 -4.72,-0.008 -8.55,3.811 -8.55,8.523 z" />
      </g>
      <g
         id="g116"
         transform="translate(2802.94,1063.54)">
        <path
           id="path114"
           style="fill:#c2c2c2"
           d="m 1274.05,904.366 -0.47,300.274 c -0.01,4.71 3.81,8.54 8.52,8.55 4.71,0.01 8.54,-3.81 8.55,-8.52 l 0.48,-300.277 c 0,-4.712 -3.81,-8.543 -8.53,-8.55 -4.71,-0.008 -8.54,3.811 -8.55,8.523 z m -105.33,0 -0.47,300.274 c -0.01,4.71 3.81,8.54 8.52,8.55 4.71,0.01 8.54,-3.81 8.55,-8.52 l 0.48,-300.277 c 0,-4.712 -3.82,-8.543 -8.53,-8.55 -4.71,-0.008 -8.54,3.811 -8.55,8.523 z m 368.66,0 -0.47,300.274 c -0.01,4.71 3.81,8.54 8.52,8.55 4.71,0.01 8.54,-3.81 8.55,-8.52 l 0.48,-300.277 c 0,-4.712 -3.82,-8.543 -8.53,-8.55 -4.71,-0.008 -8.54,3.811 -8.55,8.523 z m -421.32,0 -0.48,300.274 c -0.01,4.71 3.81,8.54 8.52,8.55 4.71,0.01 8.54,-3.81 8.55,-8.52 l 0.48,-300.277 c 0.01,-4.712 -3.81,-8.543 -8.52,-8.55 -4.72,-0.008 -8.55,3.811 -8.55,8.523 z m -52.67,0 -0.48,300.274 c -0.01,4.71 3.81,8.54 8.53,8.55 4.71,0.01 8.54,-3.81 8.55,-8.52 l 0.47,-300.277 c 0.01,-4.712 -3.81,-8.543 -8.52,-8.55 -4.71,-0.008 -8.54,3.811 -8.55,8.523 z m 368.66,0 -0.48,300.274 c 0,4.71 3.82,8.54 8.53,8.55 4.71,0.01 8.54,-3.81 8.55,-8.52 l 0.47,-300.277 c 0.01,-4.712 -3.81,-8.543 -8.52,-8.55 -4.71,-0.008 -8.54,3.811 -8.55,8.523 z m -421.33,0 -0.47,300.274 c -0.01,4.71 3.81,8.54 8.52,8.55 4.71,0.01 8.54,-3.81 8.55,-8.52 l 0.48,-300.277 c 0.01,-4.712 -3.81,-8.543 -8.53,-8.55 -4.71,-0.008 -8.54,3.811 -8.55,8.523 z m -210.66,0 -0.477,300.274 c -0.007,4.71 3.812,8.54 8.523,8.55 4.711,0.01 8.543,-3.81 8.55,-8.52 l 0.477,-300.277 c 0.008,-4.712 -3.811,-8.543 -8.523,-8.55 -4.711,-0.008 -8.542,3.811 -8.55,8.523 z m -421.327,0 -0.478,300.274 c -0.007,4.71 3.812,8.54 8.523,8.55 4.712,0.01 8.543,-3.81 8.551,-8.52 l 0.477,-300.277 c 0.007,-4.712 -3.812,-8.543 -8.523,-8.55 -4.712,-0.008 -8.543,3.811 -8.55,8.523 z m 105.332,0 -0.478,300.274 c -0.007,4.71 3.812,8.54 8.523,8.55 4.712,0.01 8.543,-3.81 8.55,-8.52 l 0.478,-300.277 c 0.007,-4.712 -3.812,-8.543 -8.523,-8.55 -4.712,-0.008 -8.543,3.811 -8.55,8.523 z m -202.059,-8.523 h -0.055 c -4.712,-0.008 -8.543,3.811 -8.55,8.523 l -0.478,300.274 c -0.007,4.71 3.812,8.54 8.524,8.55 h 0.055 c 4.686,-0.02 8.487,-3.83 8.495,-8.52 l 0.477,-300.277 c 0.007,-4.693 -3.782,-8.513 -8.468,-8.55 z m 676.052,8.523 -0.477,300.274 c -0.008,4.71 3.811,8.54 8.523,8.55 4.711,0.01 8.543,-3.81 8.55,-8.52 l 0.477,-300.277 c 0.008,-4.712 -3.811,-8.543 -8.523,-8.55 -4.711,-0.008 -8.542,3.811 -8.55,8.523 z m -210.664,0 -0.477,300.274 c -0.007,4.71 3.812,8.54 8.523,8.55 4.712,0.01 8.543,-3.81 8.55,-8.52 l 0.477,-300.277 c 0.008,-4.712 -3.811,-8.543 -8.523,-8.55 -4.711,-0.008 -8.542,3.811 -8.55,8.523 z m -210.663,0 -0.478,300.274 c -0.007,4.71 3.812,8.54 8.523,8.55 4.712,0.01 8.543,-3.81 8.55,-8.52 l 0.478,-300.277 c 0.007,-4.712 -3.812,-8.543 -8.523,-8.55 -4.712,-0.008 -8.543,3.811 -8.55,8.523 z m 789.989,0 -0.48,300.274 c 0,4.71 3.81,8.54 8.53,8.55 4.71,0.01 8.54,-3.81 8.55,-8.52 l 0.47,-300.277 c 0.01,-4.712 -3.81,-8.543 -8.52,-8.55 -4.71,-0.008 -8.54,3.811 -8.55,8.523 z m -1000.653,0 -0.478,300.274 c -0.007,4.71 3.812,8.54 8.523,8.55 4.712,0.01 8.543,-3.81 8.551,-8.52 l 0.477,-300.277 c 0.007,-4.712 -3.812,-8.543 -8.523,-8.55 -4.712,-0.008 -8.543,3.811 -8.55,8.523 z m 105.332,0 -0.478,300.274 c -0.007,4.71 3.812,8.54 8.523,8.55 4.712,0.01 8.543,-3.81 8.551,-8.52 l 0.477,-300.277 c 0.007,-4.712 -3.812,-8.543 -8.523,-8.55 -4.712,-0.008 -8.543,3.811 -8.55,8.523 z m 473.993,0 -0.477,300.274 c -0.008,4.71 3.811,8.54 8.523,8.55 4.711,0.01 8.543,-3.81 8.55,-8.52 l 0.477,-300.277 c 0.008,-4.712 -3.811,-8.543 -8.523,-8.55 -4.711,-0.008 -8.542,3.811 -8.55,8.523 z m -210.664,0 -0.477,300.274 c -0.007,4.71 3.812,8.54 8.523,8.55 4.712,0.01 8.543,-3.81 8.55,-8.52 l 0.478,-300.277 c 0.007,-4.712 -3.812,-8.543 -8.523,-8.55 -4.712,-0.008 -8.543,3.811 -8.551,8.523 z m 1000.652,0 -0.48,300.274 c 0,4.71 3.82,8.54 8.53,8.55 4.71,0.01 8.54,-3.81 8.55,-8.52 l 0.47,-300.277 c 0.01,-4.712 -3.81,-8.543 -8.52,-8.55 -4.71,-0.008 -8.54,3.811 -8.55,8.523 z m -842.654,0 -0.477,300.274 c -0.008,4.71 3.812,8.54 8.523,8.55 4.711,0.01 8.543,-3.81 8.55,-8.52 l 0.477,-300.277 c 0.008,-4.712 -3.811,-8.543 -8.523,-8.55 -4.711,-0.008 -8.542,3.811 -8.55,8.523 z m -210.664,0 -0.477,300.274 c -0.007,4.71 3.812,8.54 8.523,8.55 4.712,0.01 8.543,-3.81 8.55,-8.52 l 0.478,-300.277 c 0.007,-4.712 -3.812,-8.543 -8.523,-8.55 -4.712,-0.008 -8.543,3.811 -8.551,8.523 z m 1000.658,0 -0.48,300.274 c -0.01,4.71 3.81,8.54 8.52,8.55 4.71,0.01 8.54,-3.81 8.55,-8.52 l 0.48,-300.277 c 0.01,-4.712 -3.81,-8.543 -8.52,-8.55 -4.72,-0.008 -8.55,3.811 -8.55,8.523 z m -421.33,0 -0.48,300.274 c -0.01,4.71 3.81,8.54 8.52,8.55 4.71,0.01 8.55,-3.81 8.55,-8.52 l 0.48,-300.277 c 0.01,-4.712 -3.81,-8.543 -8.52,-8.55 -4.71,-0.008 -8.55,3.811 -8.55,8.523 z m -631.994,0 -0.477,300.274 c -0.007,4.71 3.812,8.54 8.523,8.55 4.712,0.01 8.543,-3.81 8.55,-8.52 l 0.478,-300.277 c 0.007,-4.712 -3.812,-8.543 -8.523,-8.55 -4.712,-0.008 -8.543,3.811 -8.551,8.523 z m 1000.654,0 -0.48,300.274 c 0,4.71 3.81,8.54 8.53,8.55 4.71,0.01 8.54,-3.81 8.54,-8.52 l 0.48,-300.277 c 0.01,-4.712 -3.81,-8.543 -8.52,-8.55 -4.71,-0.008 -8.54,3.811 -8.55,8.523 z m -105.33,0 -0.48,300.274 c -0.01,4.71 3.81,8.54 8.52,8.55 4.72,0.01 8.55,-3.81 8.55,-8.52 l 0.48,-300.277 c 0.01,-4.712 -3.81,-8.543 -8.52,-8.55 -4.71,-0.008 -8.54,3.811 -8.55,8.523 z m -105.33,0 -0.48,300.274 c -0.01,4.71 3.81,8.54 8.52,8.55 4.71,0.01 8.54,-3.81 8.55,-8.52 l 0.48,-300.277 c 0.01,-4.712 -3.81,-8.543 -8.52,-8.55 -4.72,-0.008 -8.55,3.811 -8.55,8.523 z" />
      </g>
      <g
         id="g124"
         transform="translate(1381.12,1063.36)">
        <path
           id="path122"
           style="fill:#c2c2c2"
           d="m 1274.05,904.366 -0.47,300.274 c -0.01,4.71 3.81,8.54 8.52,8.55 4.71,0.01 8.54,-3.81 8.55,-8.52 l 0.48,-300.277 c 0,-4.712 -3.81,-8.543 -8.53,-8.55 -4.71,-0.008 -8.54,3.811 -8.55,8.523 z m -105.33,0 -0.47,300.274 c -0.01,4.71 3.81,8.54 8.52,8.55 4.71,0.01 8.54,-3.81 8.55,-8.52 l 0.48,-300.277 c 0,-4.712 -3.82,-8.543 -8.53,-8.55 -4.71,-0.008 -8.54,3.811 -8.55,8.523 z m 368.66,0 -0.47,300.274 c -0.01,4.71 3.81,8.54 8.52,8.55 4.71,0.01 8.54,-3.81 8.55,-8.52 l 0.48,-300.277 c 0,-4.712 -3.82,-8.543 -8.53,-8.55 -4.71,-0.008 -8.54,3.811 -8.55,8.523 z m -421.32,0 -0.48,300.274 c -0.01,4.71 3.81,8.54 8.52,8.55 4.71,0.01 8.54,-3.81 8.55,-8.52 l 0.48,-300.277 c 0.01,-4.712 -3.81,-8.543 -8.52,-8.55 -4.72,-0.008 -8.55,3.811 -8.55,8.523 z m -52.67,0 -0.48,300.274 c -0.01,4.71 3.81,8.54 8.53,8.55 4.71,0.01 8.54,-3.81 8.55,-8.52 l 0.47,-300.277 c 0.01,-4.712 -3.81,-8.543 -8.52,-8.55 -4.71,-0.008 -8.54,3.811 -8.55,8.523 z m 368.66,0 -0.48,300.274 c 0,4.71 3.82,8.54 8.53,8.55 4.71,0.01 8.54,-3.81 8.55,-8.52 l 0.47,-300.277 c 0.01,-4.712 -3.81,-8.543 -8.52,-8.55 -4.71,-0.008 -8.54,3.811 -8.55,8.523 z m -421.33,0 -0.47,300.274 c -0.01,4.71 3.81,8.54 8.52,8.55 4.71,0.01 8.54,-3.81 8.55,-8.52 l 0.48,-300.277 c 0.01,-4.712 -3.81,-8.543 -8.53,-8.55 -4.71,-0.008 -8.54,3.811 -8.55,8.523 z m -210.66,0 -0.477,300.274 c -0.007,4.71 3.812,8.54 8.523,8.55 4.711,0.01 8.543,-3.81 8.55,-8.52 l 0.477,-300.277 c 0.008,-4.712 -3.811,-8.543 -8.523,-8.55 -4.711,-0.008 -8.542,3.811 -8.55,8.523 z m -421.327,0 -0.478,300.274 c -0.007,4.71 3.812,8.54 8.523,8.55 4.712,0.01 8.543,-3.81 8.551,-8.52 l 0.477,-300.277 c 0.007,-4.712 -3.812,-8.543 -8.523,-8.55 -4.712,-0.008 -8.543,3.811 -8.55,8.523 z m 105.332,0 -0.478,300.274 c -0.007,4.71 3.812,8.54 8.523,8.55 4.712,0.01 8.543,-3.81 8.55,-8.52 l 0.478,-300.277 c 0.007,-4.712 -3.812,-8.543 -8.523,-8.55 -4.712,-0.008 -8.543,3.811 -8.55,8.523 z m -202.059,-8.523 h -0.055 c -4.712,-0.008 -8.543,3.811 -8.55,8.523 l -0.478,300.274 c -0.007,4.71 3.812,8.54 8.524,8.55 h 0.055 c 4.686,-0.02 8.487,-3.83 8.495,-8.52 l 0.477,-300.277 c 0.007,-4.693 -3.782,-8.513 -8.468,-8.55 z m 676.052,8.523 -0.477,300.274 c -0.008,4.71 3.811,8.54 8.523,8.55 4.711,0.01 8.543,-3.81 8.55,-8.52 l 0.477,-300.277 c 0.008,-4.712 -3.811,-8.543 -8.523,-8.55 -4.711,-0.008 -8.542,3.811 -8.55,8.523 z m -210.664,0 -0.477,300.274 c -0.007,4.71 3.812,8.54 8.523,8.55 4.712,0.01 8.543,-3.81 8.55,-8.52 l 0.477,-300.277 c 0.008,-4.712 -3.811,-8.543 -8.523,-8.55 -4.711,-0.008 -8.542,3.811 -8.55,8.523 z m -210.663,0 -0.478,300.274 c -0.007,4.71 3.812,8.54 8.523,8.55 4.712,0.01 8.543,-3.81 8.55,-8.52 l 0.478,-300.277 c 0.007,-4.712 -3.812,-8.543 -8.523,-8.55 -4.712,-0.008 -8.543,3.811 -8.55,8.523 z m 789.989,0 -0.48,300.274 c 0,4.71 3.81,8.54 8.53,8.55 4.71,0.01 8.54,-3.81 8.55,-8.52 l 0.47,-300.277 c 0.01,-4.712 -3.81,-8.543 -8.52,-8.55 -4.71,-0.008 -8.54,3.811 -8.55,8.523 z m -1000.653,0 -0.478,300.274 c -0.007,4.71 3.812,8.54 8.523,8.55 4.712,0.01 8.543,-3.81 8.551,-8.52 l 0.477,-300.277 c 0.007,-4.712 -3.812,-8.543 -8.523,-8.55 -4.712,-0.008 -8.543,3.811 -8.55,8.523 z m 105.332,0 -0.478,300.274 c -0.007,4.71 3.812,8.54 8.523,8.55 4.712,0.01 8.543,-3.81 8.551,-8.52 l 0.477,-300.277 c 0.007,-4.712 -3.812,-8.543 -8.523,-8.55 -4.712,-0.008 -8.543,3.811 -8.55,8.523 z m 473.993,0 -0.477,300.274 c -0.008,4.71 3.811,8.54 8.523,8.55 4.711,0.01 8.543,-3.81 8.55,-8.52 l 0.477,-300.277 c 0.008,-4.712 -3.811,-8.543 -8.523,-8.55 -4.711,-0.008 -8.542,3.811 -8.55,8.523 z m -210.664,0 -0.477,300.274 c -0.007,4.71 3.812,8.54 8.523,8.55 4.712,0.01 8.543,-3.81 8.55,-8.52 l 0.478,-300.277 c 0.007,-4.712 -3.812,-8.543 -8.523,-8.55 -4.712,-0.008 -8.543,3.811 -8.551,8.523 z m 1000.652,0 -0.48,300.274 c 0,4.71 3.82,8.54 8.53,8.55 4.71,0.01 8.54,-3.81 8.55,-8.52 l 0.47,-300.277 c 0.01,-4.712 -3.81,-8.543 -8.52,-8.55 -4.71,-0.008 -8.54,3.811 -8.55,8.523 z m -842.654,0 -0.477,300.274 c -0.008,4.71 3.812,8.54 8.523,8.55 4.711,0.01 8.543,-3.81 8.55,-8.52 l 0.477,-300.277 c 0.008,-4.712 -3.811,-8.543 -8.523,-8.55 -4.711,-0.008 -8.542,3.811 -8.55,8.523 z m -210.664,0 -0.477,300.274 c -0.007,4.71 3.812,8.54 8.523,8.55 4.712,0.01 8.543,-3.81 8.55,-8.52 l 0.478,-300.277 c 0.007,-4.712 -3.812,-8.543 -8.523,-8.55 -4.712,-0.008 -8.543,3.811 -8.551,8.523 z m 1000.658,0 -0.48,300.274 c -0.01,4.71 3.81,8.54 8.52,8.55 4.71,0.01 8.54,-3.81 8.55,-8.52 l 0.48,-300.277 c 0.01,-4.712 -3.81,-8.543 -8.52,-8.55 -4.72,-0.008 -8.55,3.811 -8.55,8.523 z m -421.33,0 -0.48,300.274 c -0.01,4.71 3.81,8.54 8.52,8.55 4.71,0.01 8.55,-3.81 8.55,-8.52 l 0.48,-300.277 c 0.01,-4.712 -3.81,-8.543 -8.52,-8.55 -4.71,-0.008 -8.55,3.811 -8.55,8.523 z m -631.994,0 -0.477,300.274 c -0.007,4.71 3.812,8.54 8.523,8.55 4.712,0.01 8.543,-3.81 8.55,-8.52 l 0.478,-300.277 c 0.007,-4.712 -3.812,-8.543 -8.523,-8.55 -4.712,-0.008 -8.543,3.811 -8.551,8.523 z m 1000.654,0 -0.48,300.274 c 0,4.71 3.81,8.54 8.53,8.55 4.71,0.01 8.54,-3.81 8.54,-8.52 l 0.48,-300.277 c 0.01,-4.712 -3.81,-8.543 -8.52,-8.55 -4.71,-0.008 -8.54,3.811 -8.55,8.523 z m -105.33,0 -0.48,300.274 c -0.01,4.71 3.81,8.54 8.52,8.55 4.72,0.01 8.55,-3.81 8.55,-8.52 l 0.48,-300.277 c 0.01,-4.712 -3.81,-8.543 -8.52,-8.55 -4.71,-0.008 -8.54,3.811 -8.55,8.523 z m -105.33,0 -0.48,300.274 c -0.01,4.71 3.81,8.54 8.52,8.55 4.71,0.01 8.54,-3.81 8.55,-8.52 l 0.48,-300.277 c 0.01,-4.712 -3.81,-8.543 -8.52,-8.55 -4.72,-0.008 -8.55,3.811 -8.55,8.523 z" />
      </g>
      <g
         id="g132"
         transform="translate(4224.94,1063.97)">
        <path
           id="path130"
           style="fill:#c2c2c2"
           d="m 1168.72,904.366 -0.47,300.274 c -0.01,4.71 3.81,8.54 8.52,8.55 4.71,0.01 8.54,-3.81 8.55,-8.52 l 0.48,-300.277 c 0,-4.712 -3.82,-8.543 -8.53,-8.55 -4.71,-0.008 -8.54,3.811 -8.55,8.523 z m -52.66,0 -0.48,300.274 c -0.01,4.71 3.81,8.54 8.52,8.55 4.71,0.01 8.54,-3.81 8.55,-8.52 l 0.48,-300.277 c 0.01,-4.712 -3.81,-8.543 -8.52,-8.55 -4.72,-0.008 -8.55,3.811 -8.55,8.523 z m -52.67,0 -0.48,300.274 c -0.01,4.71 3.81,8.54 8.53,8.55 4.71,0.01 8.54,-3.81 8.55,-8.52 l 0.47,-300.277 c 0.01,-4.712 -3.81,-8.543 -8.52,-8.55 -4.71,-0.008 -8.54,3.811 -8.55,8.523 z m -52.67,0 -0.47,300.274 c -0.01,4.71 3.81,8.54 8.52,8.55 4.71,0.01 8.54,-3.81 8.55,-8.52 l 0.48,-300.277 c 0.01,-4.712 -3.81,-8.543 -8.53,-8.55 -4.71,-0.008 -8.54,3.811 -8.55,8.523 z m -210.66,0 -0.477,300.274 c -0.007,4.71 3.812,8.54 8.523,8.55 4.711,0.01 8.543,-3.81 8.55,-8.52 l 0.477,-300.277 c 0.008,-4.712 -3.811,-8.543 -8.523,-8.55 -4.711,-0.008 -8.542,3.811 -8.55,8.523 z m -421.327,0 -0.478,300.274 c -0.007,4.71 3.812,8.54 8.523,8.55 4.712,0.01 8.543,-3.81 8.551,-8.52 l 0.477,-300.277 c 0.007,-4.712 -3.812,-8.543 -8.523,-8.55 -4.712,-0.008 -8.543,3.811 -8.55,8.523 z m 105.332,0 -0.478,300.274 c -0.007,4.71 3.812,8.54 8.523,8.55 4.712,0.01 8.543,-3.81 8.55,-8.52 l 0.478,-300.277 c 0.007,-4.712 -3.812,-8.543 -8.523,-8.55 -4.712,-0.008 -8.543,3.811 -8.55,8.523 z m -202.059,-8.523 h -0.055 c -4.712,-0.008 -8.543,3.811 -8.55,8.523 l -0.478,300.274 c -0.007,4.71 3.812,8.54 8.524,8.55 h 0.055 c 4.686,-0.02 8.487,-3.83 8.495,-8.52 l 0.477,-300.277 c 0.007,-4.693 -3.782,-8.513 -8.468,-8.55 z m 676.052,8.523 -0.477,300.274 c -0.008,4.71 3.811,8.54 8.523,8.55 4.711,0.01 8.543,-3.81 8.55,-8.52 l 0.477,-300.277 c 0.008,-4.712 -3.811,-8.543 -8.523,-8.55 -4.711,-0.008 -8.542,3.811 -8.55,8.523 z m -210.664,0 -0.477,300.274 c -0.007,4.71 3.812,8.54 8.523,8.55 4.712,0.01 8.543,-3.81 8.55,-8.52 l 0.477,-300.277 c 0.008,-4.712 -3.811,-8.543 -8.523,-8.55 -4.711,-0.008 -8.542,3.811 -8.55,8.523 z m -210.663,0 -0.478,300.274 c -0.007,4.71 3.812,8.54 8.523,8.55 4.712,0.01 8.543,-3.81 8.55,-8.52 l 0.478,-300.277 c 0.007,-4.712 -3.812,-8.543 -8.523,-8.55 -4.712,-0.008 -8.543,3.811 -8.55,8.523 z m -210.664,0 -0.478,300.274 c -0.007,4.71 3.812,8.54 8.523,8.55 4.712,0.01 8.543,-3.81 8.551,-8.52 l 0.477,-300.277 c 0.007,-4.712 -3.812,-8.543 -8.523,-8.55 -4.712,-0.008 -8.543,3.811 -8.55,8.523 z m 105.332,0 -0.478,300.274 c -0.007,4.71 3.812,8.54 8.523,8.55 4.712,0.01 8.543,-3.81 8.551,-8.52 l 0.477,-300.277 c 0.007,-4.712 -3.812,-8.543 -8.523,-8.55 -4.712,-0.008 -8.543,3.811 -8.55,8.523 z m 473.993,0 -0.477,300.274 c -0.008,4.71 3.811,8.54 8.523,8.55 4.711,0.01 8.543,-3.81 8.55,-8.52 l 0.477,-300.277 c 0.008,-4.712 -3.811,-8.543 -8.523,-8.55 -4.711,-0.008 -8.542,3.811 -8.55,8.523 z m -210.664,0 -0.477,300.274 c -0.007,4.71 3.812,8.54 8.523,8.55 4.712,0.01 8.543,-3.81 8.55,-8.52 l 0.478,-300.277 c 0.007,-4.712 -3.812,-8.543 -8.523,-8.55 -4.712,-0.008 -8.543,3.811 -8.551,8.523 z m 157.998,0 -0.477,300.274 c -0.008,4.71 3.812,8.54 8.523,8.55 4.711,0.01 8.543,-3.81 8.55,-8.52 l 0.477,-300.277 c 0.008,-4.712 -3.811,-8.543 -8.523,-8.55 -4.711,-0.008 -8.542,3.811 -8.55,8.523 z m -210.664,0 -0.477,300.274 c -0.007,4.71 3.812,8.54 8.523,8.55 4.712,0.01 8.543,-3.81 8.55,-8.52 l 0.478,-300.277 c 0.007,-4.712 -3.812,-8.543 -8.523,-8.55 -4.712,-0.008 -8.543,3.811 -8.551,8.523 z m 579.328,0 -0.48,300.274 c -0.01,4.71 3.81,8.54 8.52,8.55 4.71,0.01 8.55,-3.81 8.55,-8.52 l 0.48,-300.277 c 0.01,-4.712 -3.81,-8.543 -8.52,-8.55 -4.71,-0.008 -8.55,3.811 -8.55,8.523 z m -631.994,0 -0.477,300.274 c -0.007,4.71 3.812,8.54 8.523,8.55 4.712,0.01 8.543,-3.81 8.55,-8.52 l 0.478,-300.277 c 0.007,-4.712 -3.812,-8.543 -8.523,-8.55 -4.712,-0.008 -8.543,3.811 -8.551,8.523 z" />
      </g>
      <g
         id="g140"
         transform="translate(7.56579,549.67)">
        <path
           id="path138"
           style="fill:#d9d9d9"
           d="m 216.355,1719.29 c 0,0 5567.335,2.65 5706.825,2.67 l 14.04,0.02 v -0.03 h 0.72 c 4.56,-0.38 8.01,-4.29 7.82,-8.86 -0.19,-4.57 -3.94,-8.18 -8.52,-8.18 l -5720.864,-2.69 c -4.715,0 -8.541,3.81 -8.547,8.53 -0.005,4.71 3.812,8.54 8.526,8.54 z m -0.11,-43.69 c 0,0 5567.335,2.65 5706.825,2.67 l 14.04,0.02 v -0.03 h 0.73 c 4.55,-0.39 8,-4.29 7.81,-8.86 -0.19,-4.57 -3.94,-8.18 -8.52,-8.19 l -5720.864,-2.68 c -4.715,-0.01 -8.541,3.81 -8.547,8.52 -0.005,4.72 3.812,8.55 8.526,8.55 z m -0.11,-43.69 c 0,0 5567.335,2.64 5706.825,2.67 l 14.04,0.01 v -0.03 h 0.73 c 4.55,-0.38 8,-4.29 7.81,-8.86 -0.19,-4.57 -3.94,-8.18 -8.52,-8.18 l -5720.865,-2.69 c -4.714,0 -8.54,3.81 -8.546,8.53 -0.006,4.71 3.811,8.54 8.526,8.55 z m -0.11,-43.7 c 0,0 5567.335,2.65 5706.825,2.67 l 14.04,0.02 v -0.03 h 0.72 c 4.56,-0.38 8.01,-4.29 7.82,-8.86 -0.19,-4.57 -3.94,-8.18 -8.52,-8.18 l -5720.865,-2.69 c -4.714,-0.01 -8.54,3.81 -8.546,8.53 -0.006,4.71 3.811,8.54 8.526,8.54 z m -0.111,-43.69 c 0,0 5567.336,2.64 5706.826,2.67 l 14.04,0.01 v -0.02 l 0.73,-0.01 c 4.55,-0.38 8,-4.28 7.81,-8.85 -0.19,-4.57 -3.94,-8.18 -8.52,-8.19 l -5720.865,-2.68 c -4.714,-0.01 -8.541,3.81 -8.546,8.52 -0.006,4.72 3.811,8.54 8.525,8.55 z m -0.11,-43.69 c 0,0 5567.336,2.64 5706.826,2.66 l 14.04,0.02 v -0.03 h 0.72 c 4.56,-0.38 8.01,-4.29 7.82,-8.86 -0.19,-4.57 -3.94,-8.18 -8.52,-8.18 l -5720.865,-2.69 c -4.715,0 -8.541,3.81 -8.547,8.53 -0.005,4.71 3.812,8.54 8.526,8.55 z m -0.11,-43.7 c 0,0 5567.336,2.65 5706.826,2.67 l 14.04,0.02 v -0.03 h 0.72 c 4.56,-0.39 8.01,-4.29 7.82,-8.86 -0.19,-4.57 -3.95,-8.18 -8.52,-8.19 l -5720.865,-2.68 c -4.715,-0.01 -8.541,3.81 -8.547,8.52 -0.005,4.72 3.812,8.54 8.526,8.55 z" />
      </g>
      <g
         id="g148"
         transform="translate(5250.77,1064.84)">
        <path
           id="path146"
           style="fill:#cecece"
           d="m 378.733,904.366 -0.478,300.274 c -0.007,4.71 3.812,8.54 8.523,8.55 4.712,0.01 8.543,-3.81 8.551,-8.52 l 0.477,-300.277 c 0.007,-4.712 -3.812,-8.543 -8.523,-8.55 -4.712,-0.008 -8.543,3.811 -8.55,8.523 z m 105.332,0 -0.478,300.274 c -0.007,4.71 3.812,8.54 8.523,8.55 4.712,0.01 8.543,-3.81 8.55,-8.52 l 0.478,-300.277 c 0.007,-4.712 -3.812,-8.543 -8.523,-8.55 -4.712,-0.008 -8.543,3.811 -8.55,8.523 z m -202.059,-8.523 h -0.055 c -4.712,-0.008 -8.543,3.811 -8.55,8.523 l -0.478,300.274 c -0.007,4.71 3.812,8.54 8.524,8.55 h 0.055 c 4.686,-0.02 8.487,-3.83 8.495,-8.52 l 0.477,-300.277 c 0.007,-4.693 -3.782,-8.513 -8.468,-8.55 z m 254.725,8.523 -0.478,300.274 c -0.007,4.71 3.812,8.54 8.523,8.55 4.712,0.01 8.543,-3.81 8.55,-8.52 l 0.478,-300.277 c 0.007,-4.712 -3.812,-8.543 -8.523,-8.55 -4.712,-0.008 -8.543,3.811 -8.55,8.523 z m -210.664,0 -0.478,300.274 c -0.007,4.71 3.812,8.54 8.523,8.55 4.712,0.01 8.543,-3.81 8.551,-8.52 l 0.477,-300.277 c 0.007,-4.712 -3.812,-8.543 -8.523,-8.55 -4.712,-0.008 -8.543,3.811 -8.55,8.523 z m 105.332,0 -0.478,300.274 c -0.007,4.71 3.812,8.54 8.523,8.55 4.712,0.01 8.543,-3.81 8.551,-8.52 l 0.477,-300.277 c 0.007,-4.712 -3.812,-8.543 -8.523,-8.55 -4.712,-0.008 -8.543,3.811 -8.55,8.523 z m 210.663,0 -0.477,300.274 c -0.007,4.71 3.812,8.54 8.523,8.55 4.712,0.01 8.543,-3.81 8.55,-8.52 l 0.478,-300.277 c 0.007,-4.712 -3.812,-8.543 -8.523,-8.55 -4.712,-0.008 -8.543,3.811 -8.551,8.523 z m -52.666,0 -0.477,300.274 c -0.007,4.71 3.812,8.54 8.523,8.55 4.712,0.01 8.543,-3.81 8.55,-8.52 l 0.478,-300.277 c 0.007,-4.712 -3.812,-8.543 -8.523,-8.55 -4.712,-0.008 -8.543,3.811 -8.551,8.523 z" />
      </g>
      <g
         id="g156"
         transform="translate(-15.7126,1063.36)">
        <path
           id="path154"
           style="fill:#cecece"
           d="m 1274.05,904.366 -0.47,300.274 c -0.01,4.71 3.81,8.54 8.52,8.55 4.71,0.01 8.54,-3.81 8.55,-8.52 l 0.48,-300.277 c 0,-4.712 -3.81,-8.543 -8.53,-8.55 -4.71,-0.008 -8.54,3.811 -8.55,8.523 z m -105.33,0 -0.47,300.274 c -0.01,4.71 3.81,8.54 8.52,8.55 4.71,0.01 8.54,-3.81 8.55,-8.52 l 0.48,-300.277 c 0,-4.712 -3.82,-8.543 -8.53,-8.55 -4.71,-0.008 -8.54,3.811 -8.55,8.523 z m 368.66,0 -0.47,300.274 c -0.01,4.71 3.81,8.54 8.52,8.55 4.71,0.01 8.54,-3.81 8.55,-8.52 l 0.48,-300.277 c 0,-4.712 -3.82,-8.543 -8.53,-8.55 -4.71,-0.008 -8.54,3.811 -8.55,8.523 z m -421.32,0 -0.48,300.274 c -0.01,4.71 3.81,8.54 8.52,8.55 4.71,0.01 8.54,-3.81 8.55,-8.52 l 0.48,-300.277 c 0.01,-4.712 -3.81,-8.543 -8.52,-8.55 -4.72,-0.008 -8.55,3.811 -8.55,8.523 z m -52.67,0 -0.48,300.274 c -0.01,4.71 3.81,8.54 8.53,8.55 4.71,0.01 8.54,-3.81 8.55,-8.52 l 0.47,-300.277 c 0.01,-4.712 -3.81,-8.543 -8.52,-8.55 -4.71,-0.008 -8.54,3.811 -8.55,8.523 z m 368.66,0 -0.48,300.274 c 0,4.71 3.82,8.54 8.53,8.55 4.71,0.01 8.54,-3.81 8.55,-8.52 l 0.47,-300.277 c 0.01,-4.712 -3.81,-8.543 -8.52,-8.55 -4.71,-0.008 -8.54,3.811 -8.55,8.523 z m -421.33,0 -0.47,300.274 c -0.01,4.71 3.81,8.54 8.52,8.55 4.71,0.01 8.54,-3.81 8.55,-8.52 l 0.48,-300.277 c 0.01,-4.712 -3.81,-8.543 -8.53,-8.55 -4.71,-0.008 -8.54,3.811 -8.55,8.523 z m -210.66,0 -0.477,300.274 c -0.007,4.71 3.812,8.54 8.523,8.55 4.711,0.01 8.543,-3.81 8.55,-8.52 l 0.477,-300.277 c 0.008,-4.712 -3.811,-8.543 -8.523,-8.55 -4.711,-0.008 -8.542,3.811 -8.55,8.523 z m -421.327,0 -0.478,300.274 c -0.007,4.71 3.812,8.54 8.523,8.55 4.712,0.01 8.543,-3.81 8.551,-8.52 l 0.477,-300.277 c 0.007,-4.712 -3.812,-8.543 -8.523,-8.55 -4.712,-0.008 -8.543,3.811 -8.55,8.523 z m 105.332,0 -0.478,300.274 c -0.007,4.71 3.812,8.54 8.523,8.55 4.712,0.01 8.543,-3.81 8.55,-8.52 l 0.478,-300.277 c 0.007,-4.712 -3.812,-8.543 -8.523,-8.55 -4.712,-0.008 -8.543,3.811 -8.55,8.523 z m -202.059,-8.523 h -0.055 c -4.712,-0.008 -8.543,3.811 -8.55,8.523 l -0.478,300.274 c -0.007,4.71 3.812,8.54 8.524,8.55 h 0.055 c 4.686,-0.02 8.487,-3.83 8.495,-8.52 l 0.477,-300.277 c 0.007,-4.693 -3.782,-8.513 -8.468,-8.55 z m 676.052,8.523 -0.477,300.274 c -0.008,4.71 3.811,8.54 8.523,8.55 4.711,0.01 8.543,-3.81 8.55,-8.52 l 0.477,-300.277 c 0.008,-4.712 -3.811,-8.543 -8.523,-8.55 -4.711,-0.008 -8.542,3.811 -8.55,8.523 z m -210.664,0 -0.477,300.274 c -0.007,4.71 3.812,8.54 8.523,8.55 4.712,0.01 8.543,-3.81 8.55,-8.52 l 0.477,-300.277 c 0.008,-4.712 -3.811,-8.543 -8.523,-8.55 -4.711,-0.008 -8.542,3.811 -8.55,8.523 z m -210.663,0 -0.478,300.274 c -0.007,4.71 3.812,8.54 8.523,8.55 4.712,0.01 8.543,-3.81 8.55,-8.52 l 0.478,-300.277 c 0.007,-4.712 -3.812,-8.543 -8.523,-8.55 -4.712,-0.008 -8.543,3.811 -8.55,8.523 z m 789.989,0 -0.48,300.274 c 0,4.71 3.81,8.54 8.53,8.55 4.71,0.01 8.54,-3.81 8.55,-8.52 l 0.47,-300.277 c 0.01,-4.712 -3.81,-8.543 -8.52,-8.55 -4.71,-0.008 -8.54,3.811 -8.55,8.523 z m -1000.653,0 -0.478,300.274 c -0.007,4.71 3.812,8.54 8.523,8.55 4.712,0.01 8.543,-3.81 8.551,-8.52 l 0.477,-300.277 c 0.007,-4.712 -3.812,-8.543 -8.523,-8.55 -4.712,-0.008 -8.543,3.811 -8.55,8.523 z m 105.332,0 -0.478,300.274 c -0.007,4.71 3.812,8.54 8.523,8.55 4.712,0.01 8.543,-3.81 8.551,-8.52 l 0.477,-300.277 c 0.007,-4.712 -3.812,-8.543 -8.523,-8.55 -4.712,-0.008 -8.543,3.811 -8.55,8.523 z m 473.993,0 -0.477,300.274 c -0.008,4.71 3.811,8.54 8.523,8.55 4.711,0.01 8.543,-3.81 8.55,-8.52 l 0.477,-300.277 c 0.008,-4.712 -3.811,-8.543 -8.523,-8.55 -4.711,-0.008 -8.542,3.811 -8.55,8.523 z m -210.664,0 -0.477,300.274 c -0.007,4.71 3.812,8.54 8.523,8.55 4.712,0.01 8.543,-3.81 8.55,-8.52 l 0.478,-300.277 c 0.007,-4.712 -3.812,-8.543 -8.523,-8.55 -4.712,-0.008 -8.543,3.811 -8.551,8.523 z m 157.998,0 -0.477,300.274 c -0.008,4.71 3.812,8.54 8.523,8.55 4.711,0.01 8.543,-3.81 8.55,-8.52 l 0.477,-300.277 c 0.008,-4.712 -3.811,-8.543 -8.523,-8.55 -4.711,-0.008 -8.542,3.811 -8.55,8.523 z m -210.664,0 -0.477,300.274 c -0.007,4.71 3.812,8.54 8.523,8.55 4.712,0.01 8.543,-3.81 8.55,-8.52 l 0.478,-300.277 c 0.007,-4.712 -3.812,-8.543 -8.523,-8.55 -4.712,-0.008 -8.543,3.811 -8.551,8.523 z m 1000.658,0 -0.48,300.274 c -0.01,4.71 3.81,8.54 8.52,8.55 4.71,0.01 8.54,-3.81 8.55,-8.52 l 0.48,-300.277 c 0.01,-4.712 -3.81,-8.543 -8.52,-8.55 -4.72,-0.008 -8.55,3.811 -8.55,8.523 z m -421.33,0 -0.48,300.274 c -0.01,4.71 3.81,8.54 8.52,8.55 4.71,0.01 8.55,-3.81 8.55,-8.52 l 0.48,-300.277 c 0.01,-4.712 -3.81,-8.543 -8.52,-8.55 -4.71,-0.008 -8.55,3.811 -8.55,8.523 z m -631.994,0 -0.477,300.274 c -0.007,4.71 3.812,8.54 8.523,8.55 4.712,0.01 8.543,-3.81 8.55,-8.52 l 0.478,-300.277 c 0.007,-4.712 -3.812,-8.543 -8.523,-8.55 -4.712,-0.008 -8.543,3.811 -8.551,8.523 z m 1000.654,0 -0.48,300.274 c 0,4.71 3.81,8.54 8.53,8.55 4.71,0.01 8.54,-3.81 8.54,-8.52 l 0.48,-300.277 c 0.01,-4.712 -3.81,-8.543 -8.52,-8.55 -4.71,-0.008 -8.54,3.811 -8.55,8.523 z m -105.33,0 -0.48,300.274 c -0.01,4.71 3.81,8.54 8.52,8.55 4.72,0.01 8.55,-3.81 8.55,-8.52 l 0.48,-300.277 c 0.01,-4.712 -3.81,-8.543 -8.52,-8.55 -4.71,-0.008 -8.54,3.811 -8.55,8.523 z m -105.33,0 -0.48,300.274 c -0.01,4.71 3.81,8.54 8.52,8.55 4.71,0.01 8.54,-3.81 8.55,-8.52 l 0.48,-300.277 c 0.01,-4.712 -3.81,-8.543 -8.52,-8.55 -4.72,-0.008 -8.55,3.811 -8.55,8.523 z" />
      </g>
      <g
         id="g164"
         transform="translate(2828.1,1063.97)">
        <path
           id="path162"
           style="fill:#cecece"
           d="m 1274.05,904.366 -0.47,300.274 c -0.01,4.71 3.81,8.54 8.52,8.55 4.71,0.01 8.54,-3.81 8.55,-8.52 l 0.48,-300.277 c 0,-4.712 -3.81,-8.543 -8.53,-8.55 -4.71,-0.008 -8.54,3.811 -8.55,8.523 z m -105.33,0 -0.47,300.274 c -0.01,4.71 3.81,8.54 8.52,8.55 4.71,0.01 8.54,-3.81 8.55,-8.52 l 0.48,-300.277 c 0,-4.712 -3.82,-8.543 -8.53,-8.55 -4.71,-0.008 -8.54,3.811 -8.55,8.523 z m 368.66,0 -0.47,300.274 c -0.01,4.71 3.81,8.54 8.52,8.55 4.71,0.01 8.54,-3.81 8.55,-8.52 l 0.48,-300.277 c 0,-4.712 -3.82,-8.543 -8.53,-8.55 -4.71,-0.008 -8.54,3.811 -8.55,8.523 z m -421.32,0 -0.48,300.274 c -0.01,4.71 3.81,8.54 8.52,8.55 4.71,0.01 8.54,-3.81 8.55,-8.52 l 0.48,-300.277 c 0.01,-4.712 -3.81,-8.543 -8.52,-8.55 -4.72,-0.008 -8.55,3.811 -8.55,8.523 z m -52.67,0 -0.48,300.274 c -0.01,4.71 3.81,8.54 8.53,8.55 4.71,0.01 8.54,-3.81 8.55,-8.52 l 0.47,-300.277 c 0.01,-4.712 -3.81,-8.543 -8.52,-8.55 -4.71,-0.008 -8.54,3.811 -8.55,8.523 z m 368.66,0 -0.48,300.274 c 0,4.71 3.82,8.54 8.53,8.55 4.71,0.01 8.54,-3.81 8.55,-8.52 l 0.47,-300.277 c 0.01,-4.712 -3.81,-8.543 -8.52,-8.55 -4.71,-0.008 -8.54,3.811 -8.55,8.523 z m -421.33,0 -0.47,300.274 c -0.01,4.71 3.81,8.54 8.52,8.55 4.71,0.01 8.54,-3.81 8.55,-8.52 l 0.48,-300.277 c 0.01,-4.712 -3.81,-8.543 -8.53,-8.55 -4.71,-0.008 -8.54,3.811 -8.55,8.523 z m -210.66,0 -0.477,300.274 c -0.007,4.71 3.812,8.54 8.523,8.55 4.711,0.01 8.543,-3.81 8.55,-8.52 l 0.477,-300.277 c 0.008,-4.712 -3.811,-8.543 -8.523,-8.55 -4.711,-0.008 -8.542,3.811 -8.55,8.523 z m -421.327,0 -0.478,300.274 c -0.007,4.71 3.812,8.54 8.523,8.55 4.712,0.01 8.543,-3.81 8.551,-8.52 l 0.477,-300.277 c 0.007,-4.712 -3.812,-8.543 -8.523,-8.55 -4.712,-0.008 -8.543,3.811 -8.55,8.523 z m 105.332,0 -0.478,300.274 c -0.007,4.71 3.812,8.54 8.523,8.55 4.712,0.01 8.543,-3.81 8.55,-8.52 l 0.478,-300.277 c 0.007,-4.712 -3.812,-8.543 -8.523,-8.55 -4.712,-0.008 -8.543,3.811 -8.55,8.523 z m -202.059,-8.523 h -0.055 c -4.712,-0.008 -8.543,3.811 -8.55,8.523 l -0.478,300.274 c -0.007,4.71 3.812,8.54 8.524,8.55 h 0.055 c 4.686,-0.02 8.487,-3.83 8.495,-8.52 l 0.477,-300.277 c 0.007,-4.693 -3.782,-8.513 -8.468,-8.55 z m 676.052,8.523 -0.477,300.274 c -0.008,4.71 3.811,8.54 8.523,8.55 4.711,0.01 8.543,-3.81 8.55,-8.52 l 0.477,-300.277 c 0.008,-4.712 -3.811,-8.543 -8.523,-8.55 -4.711,-0.008 -8.542,3.811 -8.55,8.523 z m -210.664,0 -0.477,300.274 c -0.007,4.71 3.812,8.54 8.523,8.55 4.712,0.01 8.543,-3.81 8.55,-8.52 l 0.477,-300.277 c 0.008,-4.712 -3.811,-8.543 -8.523,-8.55 -4.711,-0.008 -8.542,3.811 -8.55,8.523 z m -210.663,0 -0.478,300.274 c -0.007,4.71 3.812,8.54 8.523,8.55 4.712,0.01 8.543,-3.81 8.55,-8.52 l 0.478,-300.277 c 0.007,-4.712 -3.812,-8.543 -8.523,-8.55 -4.712,-0.008 -8.543,3.811 -8.55,8.523 z m 789.989,0 -0.48,300.274 c 0,4.71 3.81,8.54 8.53,8.55 4.71,0.01 8.54,-3.81 8.55,-8.52 l 0.47,-300.277 c 0.01,-4.712 -3.81,-8.543 -8.52,-8.55 -4.71,-0.008 -8.54,3.811 -8.55,8.523 z m -1000.653,0 -0.478,300.274 c -0.007,4.71 3.812,8.54 8.523,8.55 4.712,0.01 8.543,-3.81 8.551,-8.52 l 0.477,-300.277 c 0.007,-4.712 -3.812,-8.543 -8.523,-8.55 -4.712,-0.008 -8.543,3.811 -8.55,8.523 z m 105.332,0 -0.478,300.274 c -0.007,4.71 3.812,8.54 8.523,8.55 4.712,0.01 8.543,-3.81 8.551,-8.52 l 0.477,-300.277 c 0.007,-4.712 -3.812,-8.543 -8.523,-8.55 -4.712,-0.008 -8.543,3.811 -8.55,8.523 z m 473.993,0 -0.477,300.274 c -0.008,4.71 3.811,8.54 8.523,8.55 4.711,0.01 8.543,-3.81 8.55,-8.52 l 0.477,-300.277 c 0.008,-4.712 -3.811,-8.543 -8.523,-8.55 -4.711,-0.008 -8.542,3.811 -8.55,8.523 z m -210.664,0 -0.477,300.274 c -0.007,4.71 3.812,8.54 8.523,8.55 4.712,0.01 8.543,-3.81 8.55,-8.52 l 0.478,-300.277 c 0.007,-4.712 -3.812,-8.543 -8.523,-8.55 -4.712,-0.008 -8.543,3.811 -8.551,8.523 z m 157.998,0 -0.477,300.274 c -0.008,4.71 3.812,8.54 8.523,8.55 4.711,0.01 8.543,-3.81 8.55,-8.52 l 0.477,-300.277 c 0.008,-4.712 -3.811,-8.543 -8.523,-8.55 -4.711,-0.008 -8.542,3.811 -8.55,8.523 z m -210.664,0 -0.477,300.274 c -0.007,4.71 3.812,8.54 8.523,8.55 4.712,0.01 8.543,-3.81 8.55,-8.52 l 0.478,-300.277 c 0.007,-4.712 -3.812,-8.543 -8.523,-8.55 -4.712,-0.008 -8.543,3.811 -8.551,8.523 z m 1000.658,0 -0.48,300.274 c -0.01,4.71 3.81,8.54 8.52,8.55 4.71,0.01 8.54,-3.81 8.55,-8.52 l 0.48,-300.277 c 0.01,-4.712 -3.81,-8.543 -8.52,-8.55 -4.72,-0.008 -8.55,3.811 -8.55,8.523 z m -421.33,0 -0.48,300.274 c -0.01,4.71 3.81,8.54 8.52,8.55 4.71,0.01 8.55,-3.81 8.55,-8.52 l 0.48,-300.277 c 0.01,-4.712 -3.81,-8.543 -8.52,-8.55 -4.71,-0.008 -8.55,3.811 -8.55,8.523 z m -631.994,0 -0.477,300.274 c -0.007,4.71 3.812,8.54 8.523,8.55 4.712,0.01 8.543,-3.81 8.55,-8.52 l 0.478,-300.277 c 0.007,-4.712 -3.812,-8.543 -8.523,-8.55 -4.712,-0.008 -8.543,3.811 -8.551,8.523 z m 1000.654,0 -0.48,300.274 c 0,4.71 3.81,8.54 8.53,8.55 4.71,0.01 8.54,-3.81 8.54,-8.52 l 0.48,-300.277 c 0.01,-4.712 -3.81,-8.543 -8.52,-8.55 -4.71,-0.008 -8.54,3.811 -8.55,8.523 z m -105.33,0 -0.48,300.274 c -0.01,4.71 3.81,8.54 8.52,8.55 4.72,0.01 8.55,-3.81 8.55,-8.52 l 0.48,-300.277 c 0.01,-4.712 -3.81,-8.543 -8.52,-8.55 -4.71,-0.008 -8.54,3.811 -8.55,8.523 z m -105.33,0 -0.48,300.274 c -0.01,4.71 3.81,8.54 8.52,8.55 4.71,0.01 8.54,-3.81 8.55,-8.52 l 0.48,-300.277 c 0.01,-4.712 -3.81,-8.543 -8.52,-8.55 -4.72,-0.008 -8.55,3.811 -8.55,8.523 z" />
      </g>
      <g
         id="g172"
         transform="translate(1406.29,1063.79)">
        <path
           id="path170"
           style="fill:#cecece"
           d="m 1274.05,904.366 -0.47,300.274 c -0.01,4.71 3.81,8.54 8.52,8.55 4.71,0.01 8.54,-3.81 8.55,-8.52 l 0.48,-300.277 c 0,-4.712 -3.81,-8.543 -8.53,-8.55 -4.71,-0.008 -8.54,3.811 -8.55,8.523 z m -105.33,0 -0.47,300.274 c -0.01,4.71 3.81,8.54 8.52,8.55 4.71,0.01 8.54,-3.81 8.55,-8.52 l 0.48,-300.277 c 0,-4.712 -3.82,-8.543 -8.53,-8.55 -4.71,-0.008 -8.54,3.811 -8.55,8.523 z m 368.66,0 -0.47,300.274 c -0.01,4.71 3.81,8.54 8.52,8.55 4.71,0.01 8.54,-3.81 8.55,-8.52 l 0.48,-300.277 c 0,-4.712 -3.82,-8.543 -8.53,-8.55 -4.71,-0.008 -8.54,3.811 -8.55,8.523 z m -421.32,0 -0.48,300.274 c -0.01,4.71 3.81,8.54 8.52,8.55 4.71,0.01 8.54,-3.81 8.55,-8.52 l 0.48,-300.277 c 0.01,-4.712 -3.81,-8.543 -8.52,-8.55 -4.72,-0.008 -8.55,3.811 -8.55,8.523 z m -52.67,0 -0.48,300.274 c -0.01,4.71 3.81,8.54 8.53,8.55 4.71,0.01 8.54,-3.81 8.55,-8.52 l 0.47,-300.277 c 0.01,-4.712 -3.81,-8.543 -8.52,-8.55 -4.71,-0.008 -8.54,3.811 -8.55,8.523 z m 368.66,0 -0.48,300.274 c 0,4.71 3.82,8.54 8.53,8.55 4.71,0.01 8.54,-3.81 8.55,-8.52 l 0.47,-300.277 c 0.01,-4.712 -3.81,-8.543 -8.52,-8.55 -4.71,-0.008 -8.54,3.811 -8.55,8.523 z m -421.33,0 -0.47,300.274 c -0.01,4.71 3.81,8.54 8.52,8.55 4.71,0.01 8.54,-3.81 8.55,-8.52 l 0.48,-300.277 c 0.01,-4.712 -3.81,-8.543 -8.53,-8.55 -4.71,-0.008 -8.54,3.811 -8.55,8.523 z m -210.66,0 -0.477,300.274 c -0.007,4.71 3.812,8.54 8.523,8.55 4.711,0.01 8.543,-3.81 8.55,-8.52 l 0.477,-300.277 c 0.008,-4.712 -3.811,-8.543 -8.523,-8.55 -4.711,-0.008 -8.542,3.811 -8.55,8.523 z m -421.327,0 -0.478,300.274 c -0.007,4.71 3.812,8.54 8.523,8.55 4.712,0.01 8.543,-3.81 8.551,-8.52 l 0.477,-300.277 c 0.007,-4.712 -3.812,-8.543 -8.523,-8.55 -4.712,-0.008 -8.543,3.811 -8.55,8.523 z m 105.332,0 -0.478,300.274 c -0.007,4.71 3.812,8.54 8.523,8.55 4.712,0.01 8.543,-3.81 8.55,-8.52 l 0.478,-300.277 c 0.007,-4.712 -3.812,-8.543 -8.523,-8.55 -4.712,-0.008 -8.543,3.811 -8.55,8.523 z m -202.059,-8.523 h -0.055 c -4.712,-0.008 -8.543,3.811 -8.55,8.523 l -0.478,300.274 c -0.007,4.71 3.812,8.54 8.524,8.55 h 0.055 c 4.686,-0.02 8.487,-3.83 8.495,-8.52 l 0.477,-300.277 c 0.007,-4.693 -3.782,-8.513 -8.468,-8.55 z m 676.052,8.523 -0.477,300.274 c -0.008,4.71 3.811,8.54 8.523,8.55 4.711,0.01 8.543,-3.81 8.55,-8.52 l 0.477,-300.277 c 0.008,-4.712 -3.811,-8.543 -8.523,-8.55 -4.711,-0.008 -8.542,3.811 -8.55,8.523 z m -210.664,0 -0.477,300.274 c -0.007,4.71 3.812,8.54 8.523,8.55 4.712,0.01 8.543,-3.81 8.55,-8.52 l 0.477,-300.277 c 0.008,-4.712 -3.811,-8.543 -8.523,-8.55 -4.711,-0.008 -8.542,3.811 -8.55,8.523 z m -210.663,0 -0.478,300.274 c -0.007,4.71 3.812,8.54 8.523,8.55 4.712,0.01 8.543,-3.81 8.55,-8.52 l 0.478,-300.277 c 0.007,-4.712 -3.812,-8.543 -8.523,-8.55 -4.712,-0.008 -8.543,3.811 -8.55,8.523 z m 789.989,0 -0.48,300.274 c 0,4.71 3.81,8.54 8.53,8.55 4.71,0.01 8.54,-3.81 8.55,-8.52 l 0.47,-300.277 c 0.01,-4.712 -3.81,-8.543 -8.52,-8.55 -4.71,-0.008 -8.54,3.811 -8.55,8.523 z m -1000.653,0 -0.478,300.274 c -0.007,4.71 3.812,8.54 8.523,8.55 4.712,0.01 8.543,-3.81 8.551,-8.52 l 0.477,-300.277 c 0.007,-4.712 -3.812,-8.543 -8.523,-8.55 -4.712,-0.008 -8.543,3.811 -8.55,8.523 z m 105.332,0 -0.478,300.274 c -0.007,4.71 3.812,8.54 8.523,8.55 4.712,0.01 8.543,-3.81 8.551,-8.52 l 0.477,-300.277 c 0.007,-4.712 -3.812,-8.543 -8.523,-8.55 -4.712,-0.008 -8.543,3.811 -8.55,8.523 z m 473.993,0 -0.477,300.274 c -0.008,4.71 3.811,8.54 8.523,8.55 4.711,0.01 8.543,-3.81 8.55,-8.52 l 0.477,-300.277 c 0.008,-4.712 -3.811,-8.543 -8.523,-8.55 -4.711,-0.008 -8.542,3.811 -8.55,8.523 z m -210.664,0 -0.477,300.274 c -0.007,4.71 3.812,8.54 8.523,8.55 4.712,0.01 8.543,-3.81 8.55,-8.52 l 0.478,-300.277 c 0.007,-4.712 -3.812,-8.543 -8.523,-8.55 -4.712,-0.008 -8.543,3.811 -8.551,8.523 z m 157.998,0 -0.477,300.274 c -0.008,4.71 3.812,8.54 8.523,8.55 4.711,0.01 8.543,-3.81 8.55,-8.52 l 0.477,-300.277 c 0.008,-4.712 -3.811,-8.543 -8.523,-8.55 -4.711,-0.008 -8.542,3.811 -8.55,8.523 z m -210.664,0 -0.477,300.274 c -0.007,4.71 3.812,8.54 8.523,8.55 4.712,0.01 8.543,-3.81 8.55,-8.52 l 0.478,-300.277 c 0.007,-4.712 -3.812,-8.543 -8.523,-8.55 -4.712,-0.008 -8.543,3.811 -8.551,8.523 z m 1000.658,0 -0.48,300.274 c -0.01,4.71 3.81,8.54 8.52,8.55 4.71,0.01 8.54,-3.81 8.55,-8.52 l 0.48,-300.277 c 0.01,-4.712 -3.81,-8.543 -8.52,-8.55 -4.72,-0.008 -8.55,3.811 -8.55,8.523 z m -421.33,0 -0.48,300.274 c -0.01,4.71 3.81,8.54 8.52,8.55 4.71,0.01 8.55,-3.81 8.55,-8.52 l 0.48,-300.277 c 0.01,-4.712 -3.81,-8.543 -8.52,-8.55 -4.71,-0.008 -8.55,3.811 -8.55,8.523 z m -631.994,0 -0.477,300.274 c -0.007,4.71 3.812,8.54 8.523,8.55 4.712,0.01 8.543,-3.81 8.55,-8.52 l 0.478,-300.277 c 0.007,-4.712 -3.812,-8.543 -8.523,-8.55 -4.712,-0.008 -8.543,3.811 -8.551,8.523 z m 1000.654,0 -0.48,300.274 c 0,4.71 3.81,8.54 8.53,8.55 4.71,0.01 8.54,-3.81 8.54,-8.52 l 0.48,-300.277 c 0.01,-4.712 -3.81,-8.543 -8.52,-8.55 -4.71,-0.008 -8.54,3.811 -8.55,8.523 z m -105.33,0 -0.48,300.274 c -0.01,4.71 3.81,8.54 8.52,8.55 4.72,0.01 8.55,-3.81 8.55,-8.52 l 0.48,-300.277 c 0.01,-4.712 -3.81,-8.543 -8.52,-8.55 -4.71,-0.008 -8.54,3.811 -8.55,8.523 z m -105.33,0 -0.48,300.274 c -0.01,4.71 3.81,8.54 8.52,8.55 4.71,0.01 8.54,-3.81 8.55,-8.52 l 0.48,-300.277 c 0.01,-4.712 -3.81,-8.543 -8.52,-8.55 -4.72,-0.008 -8.55,3.811 -8.55,8.523 z" />
      </g>
      <g
         id="g180"
         transform="translate(4250.1,1064.41)">
        <path
           id="path178"
           style="fill:#cecece"
           d="m 1168.72,904.366 -0.47,300.274 c -0.01,4.71 3.81,8.54 8.52,8.55 4.71,0.01 8.54,-3.81 8.55,-8.52 l 0.48,-300.277 c 0,-4.712 -3.82,-8.543 -8.53,-8.55 -4.71,-0.008 -8.54,3.811 -8.55,8.523 z m -52.66,0 -0.48,300.274 c -0.01,4.71 3.81,8.54 8.52,8.55 4.71,0.01 8.54,-3.81 8.55,-8.52 l 0.48,-300.277 c 0.01,-4.712 -3.81,-8.543 -8.52,-8.55 -4.72,-0.008 -8.55,3.811 -8.55,8.523 z m -52.67,0 -0.48,300.274 c -0.01,4.71 3.81,8.54 8.53,8.55 4.71,0.01 8.54,-3.81 8.55,-8.52 l 0.47,-300.277 c 0.01,-4.712 -3.81,-8.543 -8.52,-8.55 -4.71,-0.008 -8.54,3.811 -8.55,8.523 z m -52.67,0 -0.47,300.274 c -0.01,4.71 3.81,8.54 8.52,8.55 4.71,0.01 8.54,-3.81 8.55,-8.52 l 0.48,-300.277 c 0.01,-4.712 -3.81,-8.543 -8.53,-8.55 -4.71,-0.008 -8.54,3.811 -8.55,8.523 z m -210.66,0 -0.477,300.274 c -0.007,4.71 3.812,8.54 8.523,8.55 4.711,0.01 8.543,-3.81 8.55,-8.52 l 0.477,-300.277 c 0.008,-4.712 -3.811,-8.543 -8.523,-8.55 -4.711,-0.008 -8.542,3.811 -8.55,8.523 z m -421.327,0 -0.478,300.274 c -0.007,4.71 3.812,8.54 8.523,8.55 4.712,0.01 8.543,-3.81 8.551,-8.52 l 0.477,-300.277 c 0.007,-4.712 -3.812,-8.543 -8.523,-8.55 -4.712,-0.008 -8.543,3.811 -8.55,8.523 z m 105.332,0 -0.478,300.274 c -0.007,4.71 3.812,8.54 8.523,8.55 4.712,0.01 8.543,-3.81 8.55,-8.52 l 0.478,-300.277 c 0.007,-4.712 -3.812,-8.543 -8.523,-8.55 -4.712,-0.008 -8.543,3.811 -8.55,8.523 z m -202.059,-8.523 h -0.055 c -4.712,-0.008 -8.543,3.811 -8.55,8.523 l -0.478,300.274 c -0.007,4.71 3.812,8.54 8.524,8.55 h 0.055 c 4.686,-0.02 8.487,-3.83 8.495,-8.52 l 0.477,-300.277 c 0.007,-4.693 -3.782,-8.513 -8.468,-8.55 z m 676.052,8.523 -0.477,300.274 c -0.008,4.71 3.811,8.54 8.523,8.55 4.711,0.01 8.543,-3.81 8.55,-8.52 l 0.477,-300.277 c 0.008,-4.712 -3.811,-8.543 -8.523,-8.55 -4.711,-0.008 -8.542,3.811 -8.55,8.523 z m -210.664,0 -0.477,300.274 c -0.007,4.71 3.812,8.54 8.523,8.55 4.712,0.01 8.543,-3.81 8.55,-8.52 l 0.477,-300.277 c 0.008,-4.712 -3.811,-8.543 -8.523,-8.55 -4.711,-0.008 -8.542,3.811 -8.55,8.523 z m -210.663,0 -0.478,300.274 c -0.007,4.71 3.812,8.54 8.523,8.55 4.712,0.01 8.543,-3.81 8.55,-8.52 l 0.478,-300.277 c 0.007,-4.712 -3.812,-8.543 -8.523,-8.55 -4.712,-0.008 -8.543,3.811 -8.55,8.523 z m -210.664,0 -0.478,300.274 c -0.007,4.71 3.812,8.54 8.523,8.55 4.712,0.01 8.543,-3.81 8.551,-8.52 l 0.477,-300.277 c 0.007,-4.712 -3.812,-8.543 -8.523,-8.55 -4.712,-0.008 -8.543,3.811 -8.55,8.523 z m 105.332,0 -0.478,300.274 c -0.007,4.71 3.812,8.54 8.523,8.55 4.712,0.01 8.543,-3.81 8.551,-8.52 l 0.477,-300.277 c 0.007,-4.712 -3.812,-8.543 -8.523,-8.55 -4.712,-0.008 -8.543,3.811 -8.55,8.523 z m 473.993,0 -0.477,300.274 c -0.008,4.71 3.811,8.54 8.523,8.55 4.711,0.01 8.543,-3.81 8.55,-8.52 l 0.477,-300.277 c 0.008,-4.712 -3.811,-8.543 -8.523,-8.55 -4.711,-0.008 -8.542,3.811 -8.55,8.523 z m -210.664,0 -0.477,300.274 c -0.007,4.71 3.812,8.54 8.523,8.55 4.712,0.01 8.543,-3.81 8.55,-8.52 l 0.478,-300.277 c 0.007,-4.712 -3.812,-8.543 -8.523,-8.55 -4.712,-0.008 -8.543,3.811 -8.551,8.523 z m 157.998,0 -0.477,300.274 c -0.008,4.71 3.812,8.54 8.523,8.55 4.711,0.01 8.543,-3.81 8.55,-8.52 l 0.477,-300.277 c 0.008,-4.712 -3.811,-8.543 -8.523,-8.55 -4.711,-0.008 -8.542,3.811 -8.55,8.523 z m -210.664,0 -0.477,300.274 c -0.007,4.71 3.812,8.54 8.523,8.55 4.712,0.01 8.543,-3.81 8.55,-8.52 l 0.478,-300.277 c 0.007,-4.712 -3.812,-8.543 -8.523,-8.55 -4.712,-0.008 -8.543,3.811 -8.551,8.523 z m 579.328,0 -0.48,300.274 c -0.01,4.71 3.81,8.54 8.52,8.55 4.71,0.01 8.55,-3.81 8.55,-8.52 l 0.48,-300.277 c 0.01,-4.712 -3.81,-8.543 -8.52,-8.55 -4.71,-0.008 -8.55,3.811 -8.55,8.523 z m -631.994,0 -0.477,300.274 c -0.007,4.71 3.812,8.54 8.523,8.55 4.712,0.01 8.543,-3.81 8.55,-8.52 l 0.478,-300.277 c 0.007,-4.712 -3.812,-8.543 -8.523,-8.55 -4.712,-0.008 -8.543,3.811 -8.551,8.523 z" />
      </g>
      <g
         id="g366"
         transform="translate(69.8849,1065.79)">
        <g
           id="g352"
           transform="translate(470.941,-7.70709)">
          <path
             id="path350"
             style="fill:none;stroke:#810011;stroke-width:33.54px"
             d="m 468.978,949.586 1.188,221.144" />
        </g>
        <g
           id="g356"
           transform="rotate(-90,701.1885,820.8315)">
          <path
             id="path354"
             style="fill:none;stroke:#810011;stroke-width:33.54px"
             d="m 468.978,949.586 1.188,221.144" />
        </g>
        <g
           id="g360"
           transform="matrix(-0.85136,0.524589,-0.578913,-0.937333,1982.52,1785.62)">
          <path
             id="path358"
             style="fill:none;stroke:#810011;stroke-width:31.86px"
             d="m 489.789,941.51 23.375,243.93" />
        </g>
        <g
           id="g364"
           transform="matrix(0.85136,0.524589,0.578913,-0.937333,-102.677,1785.62)">
          <path
             id="path362"
             style="fill:none;stroke:#810011;stroke-width:31.86px"
             d="m 489.789,941.51 23.375,243.93" />
        </g>
      </g>
      <g
         id="g384"
         transform="translate(1470.21,1065.79)">
        <g
           id="g370"
           transform="translate(470.941,-7.70709)">
          <path
             id="path368"
             style="fill:none;stroke:#810011;stroke-width:33.54px"
             d="m 468.978,949.586 1.188,221.144" />
        </g>
        <g
           id="g374"
           transform="rotate(-90,701.1885,820.8315)">
          <path
             id="path372"
             style="fill:none;stroke:#810011;stroke-width:33.54px"
             d="m 468.978,949.586 1.188,221.144" />
        </g>
        <g
           id="g378"
           transform="matrix(-0.85136,0.524589,-0.578913,-0.937333,1982.52,1785.62)">
          <path
             id="path376"
             style="fill:none;stroke:#810011;stroke-width:31.86px"
             d="m 489.789,941.51 23.375,243.93" />
        </g>
        <g
           id="g382"
           transform="matrix(0.85136,0.524589,0.578913,-0.937333,-102.677,1785.62)">
          <path
             id="path380"
             style="fill:none;stroke:#810011;stroke-width:31.86px"
             d="m 489.789,941.51 23.375,243.93" />
        </g>
      </g>
      <g
         id="g402"
         transform="translate(2870.53,1065.79)">
        <g
           id="g388"
           transform="translate(470.941,-7.70709)">
          <path
             id="path386"
             style="fill:none;stroke:#810011;stroke-width:33.54px"
             d="m 468.978,949.586 1.188,221.144" />
        </g>
        <g
           id="g392"
           transform="rotate(-90,701.1885,820.8315)">
          <path
             id="path390"
             style="fill:none;stroke:#810011;stroke-width:33.54px"
             d="m 468.978,949.586 1.188,221.144" />
        </g>
        <g
           id="g396"
           transform="matrix(-0.85136,0.524589,-0.578913,-0.937333,1982.52,1785.62)">
          <path
             id="path394"
             style="fill:none;stroke:#810011;stroke-width:31.86px"
             d="m 489.789,941.51 23.375,243.93" />
        </g>
        <g
           id="g400"
           transform="matrix(0.85136,0.524589,0.578913,-0.937333,-102.677,1785.62)">
          <path
             id="path398"
             style="fill:none;stroke:#810011;stroke-width:31.86px"
             d="m 489.789,941.51 23.375,243.93" />
        </g>
      </g>
      <g
         id="g420"
         transform="translate(4270.85,1065.79)">
        <g
           id="g406"
           transform="translate(470.941,-7.70709)">
          <path
             id="path404"
             style="fill:none;stroke:#810011;stroke-width:33.54px"
             d="m 468.978,949.586 1.188,221.144" />
        </g>
        <g
           id="g410"
           transform="rotate(-90,701.1885,820.8315)">
          <path
             id="path408"
             style="fill:none;stroke:#810011;stroke-width:33.54px"
             d="m 468.978,949.586 1.188,221.144" />
        </g>
        <g
           id="g414"
           transform="matrix(-0.85136,0.524589,-0.578913,-0.937333,1982.52,1785.62)">
          <path
             id="path412"
             style="fill:none;stroke:#810011;stroke-width:31.86px"
             d="m 489.789,941.51 23.375,243.93" />
        </g>
        <g
           id="g418"
           transform="matrix(0.85136,0.524589,0.578913,-0.937333,-102.677,1785.62)">
          <path
             id="path416"
             style="fill:none;stroke:#810011;stroke-width:31.86px"
             d="m 489.789,941.51 23.375,243.93" />
        </g>
      </g>
      <g
         id="g438"
         transform="translate(615.99,1065.79)">
        <g
           id="g424"
           transform="translate(470.941,-7.70709)">
          <path
             id="path422"
             style="fill:none;stroke:#810011;stroke-width:33.54px"
             d="m 468.978,949.586 1.188,221.144" />
        </g>
        <g
           id="g428"
           transform="rotate(-90,701.1885,820.8315)">
          <path
             id="path426"
             style="fill:none;stroke:#810011;stroke-width:33.54px"
             d="m 468.978,949.586 1.188,221.144" />
        </g>
        <g
           id="g432"
           transform="matrix(-0.85136,0.524589,-0.578913,-0.937333,1982.52,1785.62)">
          <path
             id="path430"
             style="fill:none;stroke:#810011;stroke-width:31.86px"
             d="m 489.789,941.51 23.375,243.93" />
        </g>
        <g
           id="g436"
           transform="matrix(0.85136,0.524589,0.578913,-0.937333,-102.677,1785.62)">
          <path
             id="path434"
             style="fill:none;stroke:#810011;stroke-width:31.86px"
             d="m 489.789,941.51 23.375,243.93" />
        </g>
      </g>
      <g
         id="g456"
         transform="translate(2016.31,1065.79)">
        <g
           id="g442"
           transform="translate(470.941,-7.70709)">
          <path
             id="path440"
             style="fill:none;stroke:#810011;stroke-width:33.54px"
             d="m 468.978,949.586 1.188,221.144" />
        </g>
        <g
           id="g446"
           transform="rotate(-90,701.1885,820.8315)">
          <path
             id="path444"
             style="fill:none;stroke:#810011;stroke-width:33.54px"
             d="m 468.978,949.586 1.188,221.144" />
        </g>
        <g
           id="g450"
           transform="matrix(-0.85136,0.524589,-0.578913,-0.937333,1982.52,1785.62)">
          <path
             id="path448"
             style="fill:none;stroke:#810011;stroke-width:31.86px"
             d="m 489.789,941.51 23.375,243.93" />
        </g>
        <g
           id="g454"
           transform="matrix(0.85136,0.524589,0.578913,-0.937333,-102.677,1785.62)">
          <path
             id="path452"
             style="fill:none;stroke:#810011;stroke-width:31.86px"
             d="m 489.789,941.51 23.375,243.93" />
        </g>
      </g>
      <g
         id="g474"
         transform="translate(3416.63,1065.79)">
        <g
           id="g460"
           transform="translate(470.941,-7.70709)">
          <path
             id="path458"
             style="fill:none;stroke:#810011;stroke-width:33.54px"
             d="m 468.978,949.586 1.188,221.144" />
        </g>
        <g
           id="g464"
           transform="rotate(-90,701.1885,820.8315)">
          <path
             id="path462"
             style="fill:none;stroke:#810011;stroke-width:33.54px"
             d="m 468.978,949.586 1.188,221.144" />
        </g>
        <g
           id="g468"
           transform="matrix(-0.85136,0.524589,-0.578913,-0.937333,1982.52,1785.62)">
          <path
             id="path466"
             style="fill:none;stroke:#810011;stroke-width:31.86px"
             d="m 489.789,941.51 23.375,243.93" />
        </g>
        <g
           id="g472"
           transform="matrix(0.85136,0.524589,0.578913,-0.937333,-102.677,1785.62)">
          <path
             id="path470"
             style="fill:none;stroke:#810011;stroke-width:31.86px"
             d="m 489.789,941.51 23.375,243.93" />
        </g>
      </g>
      <g
         id="g492"
         transform="translate(4816.95,1065.79)">
        <g
           id="g478"
           transform="translate(470.941,-7.70709)">
          <path
             id="path476"
             style="fill:none;stroke:#810011;stroke-width:33.54px"
             d="m 468.978,949.586 1.188,221.144" />
        </g>
        <g
           id="g482"
           transform="rotate(-90,701.1885,820.8315)">
          <path
             id="path480"
             style="fill:none;stroke:#810011;stroke-width:33.54px"
             d="m 468.978,949.586 1.188,221.144" />
        </g>
        <g
           id="g486"
           transform="matrix(-0.85136,0.524589,-0.578913,-0.937333,1982.52,1785.62)">
          <path
             id="path484"
             style="fill:none;stroke:#810011;stroke-width:31.86px"
             d="m 489.789,941.51 23.375,243.93" />
        </g>
        <g
           id="g490"
           transform="matrix(0.85136,0.524589,0.578913,-0.937333,-102.677,1785.62)">
          <path
             id="path488"
             style="fill:none;stroke:#810011;stroke-width:31.86px"
             d="m 489.789,941.51 23.375,243.93" />
        </g>
      </g>
      <g
         id="g638"
         transform="translate(-266.437,1066.33)">
        <g
           id="g632"
           transform="matrix(-0.85136,0.524589,-0.578913,-0.937333,1740.66,1785.67)">
          <path
             id="path630"
             style="fill:none;stroke:#810011;stroke-width:31.86px"
             d="m 489.789,941.51 23.375,243.93" />
        </g>
        <g
           id="g636"
           transform="matrix(0.85136,0.524589,0.578913,-0.937333,-344.529,1785.67)">
          <path
             id="path634"
             style="fill:none;stroke:#810011;stroke-width:31.86px"
             d="m 489.789,941.51 23.375,243.93" />
        </g>
      </g>
      <g
         id="g648"
         transform="translate(1133.88,1066.33)">
        <g
           id="g642"
           transform="matrix(-0.85136,0.524589,-0.578913,-0.937333,1740.66,1785.67)">
          <path
             id="path640"
             style="fill:none;stroke:#810011;stroke-width:31.86px"
             d="m 489.789,941.51 23.375,243.93" />
        </g>
        <g
           id="g646"
           transform="matrix(0.85136,0.524589,0.578913,-0.937333,-344.529,1785.67)">
          <path
             id="path644"
             style="fill:none;stroke:#810011;stroke-width:31.86px"
             d="m 489.789,941.51 23.375,243.93" />
        </g>
      </g>
      <g
         id="g658"
         transform="translate(2534.2,1066.33)">
        <g
           id="g652"
           transform="matrix(-0.85136,0.524589,-0.578913,-0.937333,1740.66,1785.67)">
          <path
             id="path650"
             style="fill:none;stroke:#810011;stroke-width:31.86px"
             d="m 489.789,941.51 23.375,243.93" />
        </g>
        <g
           id="g656"
           transform="matrix(0.85136,0.524589,0.578913,-0.937333,-344.529,1785.67)">
          <path
             id="path654"
             style="fill:none;stroke:#810011;stroke-width:31.86px"
             d="m 489.789,941.51 23.375,243.93" />
        </g>
      </g>
      <g
         id="g668"
         transform="translate(3934.52,1066.33)">
        <g
           id="g662"
           transform="matrix(-0.85136,0.524589,-0.578913,-0.937333,1740.66,1785.67)">
          <path
             id="path660"
             style="fill:none;stroke:#810011;stroke-width:31.86px"
             d="m 489.789,941.51 23.375,243.93" />
        </g>
        <g
           id="g666"
           transform="matrix(0.85136,0.524589,0.578913,-0.937333,-344.529,1785.67)">
          <path
             id="path664"
             style="fill:none;stroke:#810011;stroke-width:31.86px"
             d="m 489.789,941.51 23.375,243.93" />
        </g>
      </g>
      <g
         id="g678"
         transform="translate(12.333,1066.33)">
        <g
           id="g672"
           transform="matrix(-0.85136,0.524589,-0.578913,-0.937333,1740.66,1785.67)">
          <path
             id="path670"
             style="fill:none;stroke:#810011;stroke-width:31.86px"
             d="m 489.789,941.51 23.375,243.93" />
        </g>
        <g
           id="g676"
           transform="matrix(0.85136,0.524589,0.578913,-0.937333,-344.529,1785.67)">
          <path
             id="path674"
             style="fill:none;stroke:#810011;stroke-width:31.86px"
             d="m 489.789,941.51 23.375,243.93" />
        </g>
      </g>
      <g
         id="g688"
         transform="translate(1412.65,1066.33)">
        <g
           id="g682"
           transform="matrix(-0.85136,0.524589,-0.578913,-0.937333,1740.66,1785.67)">
          <path
             id="path680"
             style="fill:none;stroke:#810011;stroke-width:31.86px"
             d="m 489.789,941.51 23.375,243.93" />
        </g>
        <g
           id="g686"
           transform="matrix(0.85136,0.524589,0.578913,-0.937333,-344.529,1785.67)">
          <path
             id="path684"
             style="fill:none;stroke:#810011;stroke-width:31.86px"
             d="m 489.789,941.51 23.375,243.93" />
        </g>
      </g>
      <g
         id="g698"
         transform="translate(2812.97,1066.33)">
        <g
           id="g692"
           transform="matrix(-0.85136,0.524589,-0.578913,-0.937333,1740.66,1785.67)">
          <path
             id="path690"
             style="fill:none;stroke:#810011;stroke-width:31.86px"
             d="m 489.789,941.51 23.375,243.93" />
        </g>
        <g
           id="g696"
           transform="matrix(0.85136,0.524589,0.578913,-0.937333,-344.529,1785.67)">
          <path
             id="path694"
             style="fill:none;stroke:#810011;stroke-width:31.86px"
             d="m 489.789,941.51 23.375,243.93" />
        </g>
      </g>
      <g
         id="g708"
         transform="translate(4213.29,1066.33)">
        <g
           id="g702"
           transform="matrix(-0.85136,0.524589,-0.578913,-0.937333,1740.66,1785.67)">
          <path
             id="path700"
             style="fill:none;stroke:#810011;stroke-width:31.86px"
             d="m 489.789,941.51 23.375,243.93" />
        </g>
        <g
           id="g706"
           transform="matrix(0.85136,0.524589,0.578913,-0.937333,-344.529,1785.67)">
          <path
             id="path704"
             style="fill:none;stroke:#810011;stroke-width:31.86px"
             d="m 489.789,941.51 23.375,243.93" />
        </g>
      </g>
      <g
         id="g718"
         transform="translate(585.013,1066.33)">
        <g
           id="g712"
           transform="matrix(-0.85136,0.524589,-0.578913,-0.937333,1740.66,1785.67)">
          <path
             id="path710"
             style="fill:none;stroke:#810011;stroke-width:31.86px"
             d="m 489.789,941.51 23.375,243.93" />
        </g>
        <g
           id="g716"
           transform="matrix(0.85136,0.524589,0.578913,-0.937333,-344.529,1785.67)">
          <path
             id="path714"
             style="fill:none;stroke:#810011;stroke-width:31.86px"
             d="m 489.789,941.51 23.375,243.93" />
        </g>
      </g>
      <g
         id="g728"
         transform="translate(1985.33,1066.33)">
        <g
           id="g722"
           transform="matrix(-0.85136,0.524589,-0.578913,-0.937333,1740.66,1785.67)">
          <path
             id="path720"
             style="fill:none;stroke:#810011;stroke-width:31.86px"
             d="m 489.789,941.51 23.375,243.93" />
        </g>
        <g
           id="g726"
           transform="matrix(0.85136,0.524589,0.578913,-0.937333,-344.529,1785.67)">
          <path
             id="path724"
             style="fill:none;stroke:#810011;stroke-width:31.86px"
             d="m 489.789,941.51 23.375,243.93" />
        </g>
      </g>
      <g
         id="g738"
         transform="translate(3385.65,1066.33)">
        <g
           id="g732"
           transform="matrix(-0.85136,0.524589,-0.578913,-0.937333,1740.66,1785.67)">
          <path
             id="path730"
             style="fill:none;stroke:#810011;stroke-width:31.86px"
             d="m 489.789,941.51 23.375,243.93" />
        </g>
        <g
           id="g736"
           transform="matrix(0.85136,0.524589,0.578913,-0.937333,-344.529,1785.67)">
          <path
             id="path734"
             style="fill:none;stroke:#810011;stroke-width:31.86px"
             d="m 489.789,941.51 23.375,243.93" />
        </g>
      </g>
      <g
         id="g748"
         transform="translate(4785.97,1066.33)">
        <g
           id="g742"
           transform="matrix(-0.85136,0.524589,-0.578913,-0.937333,1740.66,1785.67)">
          <path
             id="path740"
             style="fill:none;stroke:#810011;stroke-width:31.86px"
             d="m 489.789,941.51 23.375,243.93" />
        </g>
        <g
           id="g746"
           transform="matrix(0.85136,0.524589,0.578913,-0.937333,-344.529,1785.67)">
          <path
             id="path744"
             style="fill:none;stroke:#810011;stroke-width:31.86px"
             d="m 489.789,941.51 23.375,243.93" />
        </g>
      </g>
    </g>
  </g>
</svg>
