<?xml version="1.0" encoding="UTF-8" standalone="no"?>
<svg
   xmlns:dc="http://purl.org/dc/elements/1.1/"
   xmlns:cc="http://creativecommons.org/ns#"
   xmlns:rdf="http://www.w3.org/1999/02/22-rdf-syntax-ns#"
   xmlns:svg="http://www.w3.org/2000/svg"
   xmlns="http://www.w3.org/2000/svg"
   xmlns:sodipodi="http://sodipodi.sourceforge.net/DTD/sodipodi-0.dtd"
   xmlns:inkscape="http://www.inkscape.org/namespaces/inkscape"
   xml:space="preserve"
   width="32mm"
   height="12mm"
   version="1.1"
   style="clip-rule:evenodd;fill-rule:evenodd;image-rendering:optimizeQuality;shape-rendering:geometricPrecision;text-rendering:geometricPrecision"
   viewBox="0 0 1407.434 527.36417"
   id="svg79"
   sodipodi:docname="2020-PK-02_question-compatible.svg"
   inkscape:version="1.0 (4035a4fb49, 2020-05-01)"><metadata
   id="metadata83"><rdf:RDF><cc:Work
       rdf:about=""><dc:format>image/svg+xml</dc:format><dc:type
         rdf:resource="http://purl.org/dc/dcmitype/StillImage" /><dc:title></dc:title></cc:Work></rdf:RDF></metadata><sodipodi:namedview
   inkscape:window-maximized="1"
   inkscape:window-y="222"
   inkscape:window-x="-8"
   inkscape:cy="28.76265"
   inkscape:cx="56.325437"
   inkscape:zoom="6.3140187"
   units="mm"
   inkscape:document-rotation="0"
   pagecolor="#ffffff"
   bordercolor="#666666"
   borderopacity="1"
   objecttolerance="10"
   gridtolerance="10"
   guidetolerance="10"
   inkscape:pageopacity="0"
   inkscape:pageshadow="2"
   inkscape:window-width="1680"
   inkscape:window-height="987"
   id="namedview81"
   showgrid="false"
   inkscape:current-layer="svg79" />
 <defs
   id="defs4">
  <style
   type="text/css"
   id="style2">
   <![CDATA[
    .str1 {stroke:#2B2A29;stroke-width:10.9941;stroke-linecap:round;stroke-linejoin:round}
    .str0 {stroke:#2B2A29;stroke-width:21.9881}
    .str2 {stroke:#2B2A29;stroke-width:32.9822;stroke-linecap:round;stroke-linejoin:round}
    .fil4 {fill:none}
    .fil0 {fill:#B2B09C}
    .fil5 {fill:#DCCF73}
    .fil3 {fill:#FCD5A6}
    .fil7 {fill:#FEFEFE}
    .fil6 {fill:#FFFBDB}
    .fil2 {fill:#827E60}
    .fil1 {fill:#C7C7BA}
   ]]>
  </style>
 </defs>
 <g
   transform="matrix(0.99577814,0,0,0.99998122,0.08528576,0.99771485)"
   id="Layer_x0020_1">
  <metadata
   id="CorelCorpID_0Corel-Layer" />
  <g
   id="_1142134000">
   <path
   class="fil0"
   d="m 139,479 c 96,0 190,-37 203,-141 12,-99 -14,-281 -116,-321 -5,3 -4,2 -8,8 74,0 116,-19 208,-12 93,6 222,7 318,7 130,0 244,3 372,12 108,8 153,11 235,86 12,12 41,86 45,153 2,46 -12,91 -22,106 -35,52 -98,121 -164,121 l -886,18 c -25,0 -169,-25 -185,-37 z"
   id="path7" />
   <path
   class="fil1"
   d="M 309,106 C 290,65 263,32 226,17 c -5,3 -4,2 -8,8 74,0 116,-19 208,-12 93,6 222,7 318,7 130,0 244,3 372,12 104,7 149,11 225,77 -25,3 -56,3 -92,-2 C 1131,91 983,93 863,93 725,93 458,112 309,106 Z"
   id="path9" />
   <path
   class="fil2"
   d="m 139,479 c 87,0 172,-30 197,-113 77,3 140,8 242,30 13,2 645,3 673,-1 47,-6 87,-11 119,-13 -35,51 -96,116 -160,116 l -886,18 c -25,0 -169,-25 -185,-37 z"
   id="path11" />
   <path
   class="fil3"
   d="M 197,32 C 119,32 23,124 9,209 -32,444 189,625 337,383 386,303 388,177 332,100 284,36 199,32 197,32 Z"
   id="path13" />
   <path
   style="color:#000000;font-style:normal;font-variant:normal;font-weight:normal;font-stretch:normal;font-size:medium;line-height:normal;font-family:sans-serif;font-variant-ligatures:normal;font-variant-position:normal;font-variant-caps:normal;font-variant-numeric:normal;font-variant-alternates:normal;font-variant-east-asian:normal;font-feature-settings:normal;font-variation-settings:normal;text-indent:0;text-align:start;text-decoration:none;text-decoration-line:none;text-decoration-style:solid;text-decoration-color:#000000;letter-spacing:normal;word-spacing:normal;text-transform:none;writing-mode:lr-tb;direction:ltr;text-orientation:mixed;dominant-baseline:auto;baseline-shift:baseline;text-anchor:start;white-space:normal;shape-padding:0;shape-margin:0;inline-size:0;clip-rule:nonzero;display:inline;overflow:visible;visibility:visible;opacity:1;isolation:auto;mix-blend-mode:normal;color-interpolation:sRGB;color-interpolation-filters:linearRGB;solid-color:#000000;solid-opacity:1;vector-effect:none;fill:#2b2a29;fill-opacity:1;fill-rule:nonzero;stroke:none;stroke-width:21.9881;stroke-linecap:butt;stroke-linejoin:miter;stroke-miterlimit:4;stroke-dasharray:none;stroke-dashoffset:0;stroke-opacity:1;color-rendering:auto;image-rendering:auto;shape-rendering:auto;text-rendering:auto;enable-background:accumulate;stop-color:#000000;stop-opacity:1"
   d="M 686.38867,0.13476562 C 536.81997,0.25924875 387.15623,4.5105073 198.62109,11.011719 l -0.20507,0.0078 -0.20313,0.01367 C 138.93887,15.286048 90.750311,47.723899 57.208984,93.279297 23.667658,138.83469 4.1484084,197.53751 0.52734375,256.70312 -3.0937209,315.86874 9.2011831,375.71498 40.789062,423.11328 c 31.584333,47.39298 82.949278,81.78021 154.105468,88.82422 269.01268,27.20353 802.42992,6.05321 1037.57427,-4.95312 65.5073,-2.79947 135.3534,-65.22756 165.875,-150.00977 30.5211,-84.78105 19.4296,-193.90846 -80.8165,-287.988282 -35.168,-33.03667 -83.9929,-51.863151 -143.9589,-54.964844 C 985.42315,4.013989 835.95304,0.01028611 686.38867,0.13476562 Z m -0.0273,21.98046838 c 149.1813,-0.125516 298.2076,3.871415 486.05463,13.863282 h 0.01 0.01 c 56.034,2.898307 99.2091,20.071826 130.0411,49.035156 v 0.002 0.002 c 94.75,88.919298 103.1581,186.790018 75.1796,264.507808 -27.9784,77.71779 -94.6323,133.2897 -146.125,135.49023 l -0.023,0.002 h -0.022 C 996.61054,496.01176 462.07784,516.85746 197.10547,490.0625 l -0.0117,-0.002 -0.0117,-0.002 C 131.75066,483.59725 87.373058,453.36341 59.085938,410.91797 30.798817,368.47252 19.093721,313.25626 22.472656,258.04688 25.851592,202.83749 44.332342,147.85281 74.916016,106.31445 105.47654,64.807545 147.49886,36.759615 199.66992,32.978516 387.99067,26.485671 537.26065,22.240683 686.36133,22.115234 Z"
   id="path950" />
   <path
   style="color:#000000;font-style:normal;font-variant:normal;font-weight:normal;font-stretch:normal;font-size:medium;line-height:normal;font-family:sans-serif;font-variant-ligatures:normal;font-variant-position:normal;font-variant-caps:normal;font-variant-numeric:normal;font-variant-alternates:normal;font-variant-east-asian:normal;font-feature-settings:normal;font-variation-settings:normal;text-indent:0;text-align:start;text-decoration:none;text-decoration-line:none;text-decoration-style:solid;text-decoration-color:#000000;letter-spacing:normal;word-spacing:normal;text-transform:none;writing-mode:lr-tb;direction:ltr;text-orientation:mixed;dominant-baseline:auto;baseline-shift:baseline;text-anchor:start;white-space:normal;shape-padding:0;shape-margin:0;inline-size:0;clip-rule:nonzero;display:inline;overflow:visible;visibility:visible;opacity:1;isolation:auto;mix-blend-mode:normal;color-interpolation:sRGB;color-interpolation-filters:linearRGB;solid-color:#000000;solid-opacity:1;vector-effect:none;fill:#2b2a29;fill-opacity:1;fill-rule:nonzero;stroke:none;stroke-width:10.9941;stroke-linecap:round;stroke-linejoin:round;stroke-miterlimit:4;stroke-dasharray:none;stroke-dashoffset:0;stroke-opacity:1;color-rendering:auto;image-rendering:auto;shape-rendering:auto;text-rendering:auto;enable-background:accumulate;stop-color:#000000;stop-opacity:1"
   d="M 189,19.503906 A 5.4970498,5.4970498 0 0 0 183.50391,25 5.4970498,5.4970498 0 0 0 189,30.496094 c 154.94206,0 281.46873,303.978166 43.20312,444.771486 a 5.4975995,5.4975995 0 0 0 -0.11718,0.0703 c -10.19593,6.37246 -28.99025,9.15271 -48.70117,8.66602 -19.71093,-0.48669 -40.40582,-3.94987 -54.80469,-8.26953 a 5.4970498,5.4970498 0 0 0 -6.8457,3.68554 5.4970498,5.4970498 0 0 0 3.68554,6.8457 c 15.60113,4.68034 36.90624,8.21716 57.69531,8.73047 20.77773,0.51303 40.97187,-1.70447 54.77539,-10.32031 C 483.49704,339.44263 358.03604,19.503906 189,19.503906 Z"
   id="path910" />
   <g
   id="g25">
    <path
   class="fil5"
   d="m 386,411 c 9,-32 366,-11 404,-15 74,-9 315,2 414,1 l 31,6 22,9 -61,2 z"
   id="path19" />
    <path
   class="fil6"
   d="m 386,410 c 14,10 43,15 96,18 111,7 282,4 308,4 79,1 315,-2 414,-1 l 31,-6 23,-11 h -62 z"
   id="path21" />
    <path
   style="color:#000000;font-style:normal;font-variant:normal;font-weight:normal;font-stretch:normal;font-size:medium;line-height:normal;font-family:sans-serif;font-variant-ligatures:normal;font-variant-position:normal;font-variant-caps:normal;font-variant-numeric:normal;font-variant-alternates:normal;font-variant-east-asian:normal;font-feature-settings:normal;font-variation-settings:normal;text-indent:0;text-align:start;text-decoration:none;text-decoration-line:none;text-decoration-style:solid;text-decoration-color:#000000;letter-spacing:normal;word-spacing:normal;text-transform:none;writing-mode:lr-tb;direction:ltr;text-orientation:mixed;dominant-baseline:auto;baseline-shift:baseline;text-anchor:start;white-space:normal;shape-padding:0;shape-margin:0;inline-size:0;clip-rule:nonzero;display:inline;overflow:visible;visibility:visible;opacity:1;isolation:auto;mix-blend-mode:normal;color-interpolation:sRGB;color-interpolation-filters:linearRGB;solid-color:#000000;solid-opacity:1;vector-effect:none;fill:#2b2a29;fill-opacity:1;fill-rule:nonzero;stroke:none;stroke-width:10.9941;stroke-linecap:round;stroke-linejoin:round;stroke-miterlimit:4;stroke-dasharray:none;stroke-dashoffset:0;stroke-opacity:1;color-rendering:auto;image-rendering:auto;shape-rendering:auto;text-rendering:auto;enable-background:accumulate;stop-color:#000000;stop-opacity:1"
   d="m 559.80859,384.31836 c -33.86406,-0.18775 -66.7713,0.43959 -95.06054,2.54297 -18.8595,1.40225 -35.65982,3.45308 -49.44532,6.41601 -13.78549,2.96294 -24.55953,6.62581 -31.75976,12.44727 a 5.4975995,5.4975995 0 0 0 0.37305,8.82617 c 9.24477,6.26764 25.08002,9.84825 47.36132,13.07227 22.2813,3.22401 50.71804,5.59643 83.44727,7.33593 65.45846,3.479 148.04933,4.41218 231.9082,4.28711 167.71775,-0.25013 341.12079,-4.69474 390.03709,-1.75976 73.7084,5.04169 103.6871,-8.50966 123.9785,-19.66992 a 5.4975995,5.4975995 0 0 0 -0.5546,-9.89844 c -16.589,-6.83074 -33.5232,-16.41406 -56.0938,-16.41406 a 5.4975995,5.4975995 0 0 0 -0.055,0 c -49.2514,0.49749 -134.3016,-1.99923 -216.21874,-3.5 -81.91717,-1.50078 -160.41421,-2.07969 -198.39062,2.53906 -3.21391,0.38934 -12.0449,0.45919 -24.0586,0.15234 -12.01503,-0.30688 -27.50833,-0.92206 -45.33203,-1.65625 -35.64739,-1.46838 -80.6284,-3.40849 -126.08984,-4.28515 -11.36536,-0.21917 -22.75886,-0.37297 -34.04688,-0.43555 z m -0.0664,10.99609 c 11.23248,0.0614 22.5802,0.21331 33.90234,0.43164 45.28856,0.87334 90.18255,2.80823 125.84766,4.27735 17.83255,0.73456 33.35488,1.35376 45.5039,1.66406 12.14903,0.3103 20.62903,0.38008 25.66602,-0.23047 a 5.4975995,5.4975995 0 0 0 0.002,0 c 36.02359,-4.38125 115.02655,-3.96016 196.85938,-2.46094 81.80701,1.49876 166.72151,4.00046 216.47651,3.5 15.2938,0 27.9157,5.2209 41.0742,10.9375 -19.1056,9.11852 -47.0482,17.23621 -107.6992,13.08203 a 5.4975995,5.4975995 0 0 0 -0.045,-0.002 c -51.0837,-3.06502 -223.18061,1.49037 -390.71286,1.74024 -83.76613,0.12493 -166.23776,-0.81689 -231.31055,-4.27539 -32.53639,-1.72925 -60.73247,-4.09121 -82.45508,-7.23438 -14.29917,-2.06903 -25.54257,-4.69212 -33.38476,-7.30664 4.84914,-1.98068 10.89526,-3.85206 18.14453,-5.41016 13.00356,-2.79487 29.40637,-4.82217 47.95312,-6.20117 27.82013,-2.0685 60.48028,-2.69604 94.17774,-2.51172 z"
   id="path914" />
   </g>
   <g
   id="g41">
    <path
   class="fil6"
   d="m 947,200 c 17,0 33,3 47,11 14,-14 31,-24 53,-36 -11,23 -19,41 -32,55 13,14 18,31 18,51 0,19 -5,32 -14,43 11,13 20,30 31,51 -20,-11 -38,-20 -51,-31 -14,8 -28,10 -47,10 -18,0 -34,-2 -48,-10 -14,14 -31,23 -55,35 12,-20 21,-37 33,-51 -13,-12 -19,-27 -19,-47 1,-21 6,-37 18,-51 -14,-14 -23,-30 -34,-51 23,10 41,19 55,32 14,-8 27,-11 45,-11 z m 0,23 c 33,0 61,24 61,57 0,33 -24,51 -57,51 -33,0 -63,-18 -63,-51 0,-33 26,-57 59,-57 z"
   id="path27" />
    <path
   class="fil6"
   d="m 1023,243 c 2,6 10,11 10,38 -1,27 -34,73 -81,73 -37,0 -71,-17 -84,-47 -7,-21 -6,-67 27,-90 30,-20 62,-21 88,-10 16,7 28,18 40,36 z m -88,-19 c -58,16 -46,72 -44,71 7,24 33,36 60,36 33,0 57,-32 57,-51 0,-20 -6,-20 -7,-25 -2,-12 -30,-40 -66,-31 z"
   id="path29" />
    <path
   class="fil5"
   d="m 1019,280 c -1,8 -1,16 -4,23 -3,5 2,14 4,22 l 23,36 3,10 -45,-46 c -12,11 -29,16 -48,16 -28,0 -54,-11 -67,-32 l 6,-12 c 1,2 7,12 8,13 11,14 31,21 52,21 19,0 39,-8 49,-21 7,-10 8,-25 8,-30 0,-13 -4,-20 -5,-23 8,5 16,18 16,23 z"
   id="path31" />
    <path
   class="fil5"
   d="m 947,200 c 17,0 33,5 46,13 v -1 l 33,-27 16,-5 -36,41 c -2,9 -4,14 -2,14 2,0 8,-6 9,-5 4,4 18,20 16,24 -1,2 -17,-4 -26,-17 -12,-16 -34,-24 -56,-24 -39,0 -69,28 -69,67 -1,12 2,22 8,30 l 6,1 10,11 -4,9 -44,45 5,-18 21,-31 h 1 -1 c -3,-8 -17,-22 -17,-46 0,-20 6,-37 17,-50 2,-2 5,5 7,10 1,2 11,-11 12,-13 l -50,-46 28,12 26,17 c 13,-7 28,-11 44,-11 z"
   id="path33" />
    <path
   class="fil4"
   d="m 947,213 c 39,0 72,28 72,67 -1,39 -28,61 -67,61 -39,0 -75,-22 -74,-61 0,-39 30,-67 69,-67 z"
   id="path35" />
    <path
   style="color:#000000;font-style:normal;font-variant:normal;font-weight:normal;font-stretch:normal;font-size:medium;line-height:normal;font-family:sans-serif;font-variant-ligatures:normal;font-variant-position:normal;font-variant-caps:normal;font-variant-numeric:normal;font-variant-alternates:normal;font-variant-east-asian:normal;font-feature-settings:normal;font-variation-settings:normal;text-indent:0;text-align:start;text-decoration:none;text-decoration-line:none;text-decoration-style:solid;text-decoration-color:#000000;letter-spacing:normal;word-spacing:normal;text-transform:none;writing-mode:lr-tb;direction:ltr;text-orientation:mixed;dominant-baseline:auto;baseline-shift:baseline;text-anchor:start;white-space:normal;shape-padding:0;shape-margin:0;inline-size:0;clip-rule:nonzero;display:inline;overflow:visible;visibility:visible;opacity:1;isolation:auto;mix-blend-mode:normal;color-interpolation:sRGB;color-interpolation-filters:linearRGB;solid-color:#000000;solid-opacity:1;vector-effect:none;fill:#2b2a29;fill-opacity:1;fill-rule:nonzero;stroke:none;stroke-width:10.9941;stroke-linecap:round;stroke-linejoin:round;stroke-miterlimit:4;stroke-dasharray:none;stroke-dashoffset:0;stroke-opacity:1;color-rendering:auto;image-rendering:auto;shape-rendering:auto;text-rendering:auto;enable-background:accumulate;stop-color:#000000;stop-opacity:1"
   d="m 1047.0449,169.50391 a 5.4975995,5.4975995 0 0 0 -2.6777,0.66992 c -20.6156,11.24485 -37.1468,21.05997 -51.18556,34.21484 -14.16354,-7.16842 -29.89859,-9.88476 -46.18164,-9.88476 -17.1038,0 -30.61053,2.98015 -44.14258,9.97656 -14.31636,-12.35995 -31.97778,-21.09182 -53.66601,-30.52149 a 5.4975995,5.4975995 0 0 0 -7.06055,7.5918 c 10.15175,19.38061 19.01553,34.89626 31.73633,48.67188 -10.68665,14.16059 -15.40784,30.57428 -16.35742,50.51562 A 5.4975995,5.4975995 0 0 0 857.50391,281 c 0,19.20934 5.6313,34.95233 17.23632,47.41797 -10.9459,13.77853 -19.57432,29.62257 -30.45312,47.75391 a 5.4975995,5.4975995 0 0 0 7.17187,7.74414 c 22.48851,-11.24426 39.32774,-20.12896 53.47461,-33.2754 14.29101,7.06857 30.11242,8.85547 47.06641,8.85547 17.991,0 32.46762,-1.91019 46.4707,-9.03906 13.397,10.55481 30.3421,19.16305 48.8809,29.35938 a 5.4975995,5.4975995 0 0 0 7.5175,-7.36719 c -10.1158,-19.31204 -18.6984,-35.35051 -28.9921,-48.46094 8.0561,-11.23947 12.6191,-24.92449 12.6191,-42.98828 0,-19.21632 -4.6777,-36.53686 -16.3047,-50.94922 11.9355,-14.24581 19.68,-31.58747 29.7676,-52.67969 a 5.4975995,5.4975995 0 0 0 -4.9141,-7.86718 z m -12.498,18.76171 c -7.5546,15.53374 -14.331,28.03984 -23.5742,37.99415 a 5.4975995,5.4975995 0 0 0 0,7.48046 c 11.9683,12.88903 16.5312,28.17594 16.5312,47.25977 0,18.03561 -4.4701,29.39009 -12.7578,39.51953 a 5.4975995,5.4975995 0 0 0 0.057,7.03125 c 7.3897,8.73328 14.2224,20.44486 21.3672,33.53711 -13.0263,-7.15309 -24.9949,-13.98772 -33.6191,-21.28516 a 5.4975995,5.4975995 0 0 0 -6.27736,-0.57617 c -12.97202,7.41258 -25.6592,9.27735 -44.27344,9.27735 -17.59281,0 -32.49723,-1.97666 -45.27344,-9.27735 a 5.4975995,5.4975995 0 0 0 -6.61328,0.88672 c -9.8648,9.8648 -21.47554,17.22987 -36.62109,25.2832 7.5285,-12.74354 14.62979,-24.42454 22.68164,-33.81836 a 5.4975995,5.4975995 0 0 0 -0.44531,-7.61718 c -11.90888,-10.99281 -17.19747,-23.99427 -17.22657,-42.81055 0.97717,-20.20022 5.54955,-34.59621 16.67188,-47.57227 a 5.4975995,5.4975995 0 0 0 -0.28711,-7.46484 c -10.1156,-10.1156 -17.56904,-21.42584 -25.35156,-35.40039 15.7676,7.45092 28.53207,14.84996 38.72461,24.31445 a 5.4975995,5.4975995 0 0 0 6.46679,0.7461 c 13.24125,-7.56643 24.88422,-10.27735 42.27344,-10.27735 16.35329,0 31.3259,2.87875 44.27344,10.27735 a 5.4975995,5.4975995 0 0 0 6.61328,-0.88672 c 10.09368,-10.09373 21.99478,-18.13454 36.66018,-26.6211 z"
   id="path918" />
    <path
   style="color:#000000;font-style:normal;font-variant:normal;font-weight:normal;font-stretch:normal;font-size:medium;line-height:normal;font-family:sans-serif;font-variant-ligatures:normal;font-variant-position:normal;font-variant-caps:normal;font-variant-numeric:normal;font-variant-alternates:normal;font-variant-east-asian:normal;font-feature-settings:normal;font-variation-settings:normal;text-indent:0;text-align:start;text-decoration:none;text-decoration-line:none;text-decoration-style:solid;text-decoration-color:#000000;letter-spacing:normal;word-spacing:normal;text-transform:none;writing-mode:lr-tb;direction:ltr;text-orientation:mixed;dominant-baseline:auto;baseline-shift:baseline;text-anchor:start;white-space:normal;shape-padding:0;shape-margin:0;inline-size:0;clip-rule:nonzero;display:inline;overflow:visible;visibility:visible;opacity:1;isolation:auto;mix-blend-mode:normal;color-interpolation:sRGB;color-interpolation-filters:linearRGB;solid-color:#000000;solid-opacity:1;vector-effect:none;fill:#2b2a29;fill-opacity:1;fill-rule:nonzero;stroke:none;stroke-width:10.9941;stroke-linecap:round;stroke-linejoin:round;stroke-miterlimit:4;stroke-dasharray:none;stroke-dashoffset:0;stroke-opacity:1;color-rendering:auto;image-rendering:auto;shape-rendering:auto;text-rendering:auto;enable-background:accumulate;stop-color:#000000;stop-opacity:1"
   d="m 947,217.50391 c -35.66524,0 -64.49609,26.60875 -64.49609,62.49609 0,18.16577 8.5474,32.79355 21.3457,42.28906 12.79829,9.49551 29.65093,14.20703 47.15039,14.20703 17.49946,0 33.09478,-4.77156 44.43945,-14.43554 11.34465,-9.66399 18.05665,-24.22793 18.05665,-42.06055 0,-36.10944 -30.83086,-62.49609 -66.4961,-62.49609 z m 0,10.99218 c 30.33476,0 55.5039,21.61335 55.5039,51.50391 0,15.16738 -5.28803,26.10344 -14.19335,33.68945 -8.90533,7.58602 -21.81001,11.81446 -37.31055,11.81446 -15.50054,0 -30.1479,-4.28848 -40.59961,-12.04297 -10.4517,-7.75449 -16.9043,-18.62671 -16.9043,-33.46094 0,-30.11266 23.16915,-51.50391 53.50391,-51.50391 z"
   id="path922" />
   </g>
   <path
   class="fil7"
   d="M 34,322 184,262 47,383 C 33,384 33,330 34,322 Z"
   id="path43" />
   <path
   class="fil7"
   d="m 137,460 33,-132 -48,125 c 5,20 15,12 15,7 z"
   id="path45" />
   <path
   class="fil7"
   d="m 218,40 c -2,1 -46,-3 -38,12 l 5,180 z"
   id="path47" />
   <path
   style="color:#000000;font-style:normal;font-variant:normal;font-weight:normal;font-stretch:normal;font-size:medium;line-height:normal;font-family:sans-serif;font-variant-ligatures:normal;font-variant-position:normal;font-variant-caps:normal;font-variant-numeric:normal;font-variant-alternates:normal;font-variant-east-asian:normal;font-feature-settings:normal;font-variation-settings:normal;text-indent:0;text-align:start;text-decoration:none;text-decoration-line:none;text-decoration-style:solid;text-decoration-color:#000000;letter-spacing:normal;word-spacing:normal;text-transform:none;writing-mode:lr-tb;direction:ltr;text-orientation:mixed;dominant-baseline:auto;baseline-shift:baseline;text-anchor:start;white-space:normal;shape-padding:0;shape-margin:0;inline-size:0;clip-rule:nonzero;display:inline;overflow:visible;visibility:visible;opacity:1;isolation:auto;mix-blend-mode:normal;color-interpolation:sRGB;color-interpolation-filters:linearRGB;solid-color:#000000;solid-opacity:1;vector-effect:none;fill:#2b2a29;fill-opacity:1;fill-rule:nonzero;stroke:none;stroke-width:32.9822;stroke-linecap:round;stroke-linejoin:round;stroke-miterlimit:4;stroke-dasharray:none;stroke-dashoffset:0;stroke-opacity:1;color-rendering:auto;image-rendering:auto;shape-rendering:auto;text-rendering:auto;enable-background:accumulate;stop-color:#000000;stop-opacity:1"
   d="M 187.35352,68.964844 C 143.78608,70.377091 109.051,91.299911 86.767578,122.07812 61.310989,157.23916 50.45995,204.00036 51.513672,251.31445 52.55168,338.23401 69.220115,397.40988 112.57617,432.7793 a 16.492749,16.492749 0 0 0 0.19531,0.15625 c 24.86635,19.66176 58.69824,29.99649 93.34766,20.18164 34.64942,-9.81486 68.13429,-38.86086 95.51172,-91.50977 a 16.492749,16.492749 0 0 0 0.0195,-0.0371 C 320.9947,324.12966 323.79722,259.09473 311.28513,197.5879 305.02908,166.83449 294.54326,137.28176 277.81052,113.69337 261.07999,90.108093 236.85655,72.315236 206.4902,69.578135 199.93922,68.960223 193.5568,68.763772 187.35349,68.964854 Z m 0.86132,32.853516 c 4.85665,-0.0981 9.92934,0.0974 15.23047,0.59961 a 16.492749,16.492749 0 0 0 0.0762,0.006 c 19.62802,1.76652 34.52572,12.22121 47.38672,30.35156 12.86101,18.13036 22.43769,43.76513 28.05664,71.38672 11.23681,55.23776 5.04212,119.69443 -6.61132,142.25977 -10e-4,0.002 -0.003,0.006 -0.004,0.008 -24.6171,47.32347 -51.62468,68.26982 -75.21875,74.95312 -23.55927,6.67344 -45.68868,0.0383 -63.80469,-14.24804 C 100.77236,380.50715 85.465835,333.73273 84.490234,250.80664 a 16.492749,16.492749 0 0 0 -0.0039,-0.17773 c -0.936327,-41.66654 9.212867,-81.88214 28.996096,-109.20703 17.31033,-23.90929 40.73589,-38.91714 74.73242,-39.60352 z"
   id="path954" />
   <path
   style="color:#000000;font-style:normal;font-variant:normal;font-weight:normal;font-stretch:normal;font-size:medium;line-height:normal;font-family:sans-serif;font-variant-ligatures:normal;font-variant-position:normal;font-variant-caps:normal;font-variant-numeric:normal;font-variant-alternates:normal;font-variant-east-asian:normal;font-feature-settings:normal;font-variation-settings:normal;text-indent:0;text-align:start;text-decoration:none;text-decoration-line:none;text-decoration-style:solid;text-decoration-color:#000000;letter-spacing:normal;word-spacing:normal;text-transform:none;writing-mode:lr-tb;direction:ltr;text-orientation:mixed;dominant-baseline:auto;baseline-shift:baseline;text-anchor:start;white-space:normal;shape-padding:0;shape-margin:0;inline-size:0;clip-rule:nonzero;display:inline;overflow:visible;visibility:visible;opacity:1;isolation:auto;mix-blend-mode:normal;color-interpolation:sRGB;color-interpolation-filters:linearRGB;solid-color:#000000;solid-opacity:1;vector-effect:none;fill:#2b2a29;fill-opacity:1;fill-rule:nonzero;stroke:none;stroke-width:32.9822;stroke-linecap:round;stroke-linejoin:round;stroke-miterlimit:4;stroke-dasharray:none;stroke-dashoffset:0;stroke-opacity:1;color-rendering:auto;image-rendering:auto;shape-rendering:auto;text-rendering:auto;enable-background:accumulate;stop-color:#000000;stop-opacity:1"
   d="m 184.47852,161.45117 c -24.76303,1.57668 -44.82425,15.67354 -56.60352,34.01172 -13.4435,20.92909 -18.46908,46.76464 -17.34961,71.20117 1.65283,46.31359 17.994,83.07278 47.87109,97.02735 14.94761,6.98151 33.28404,6.18148 48.85547,-2.61524 15.51341,-8.76393 28.79596,-24.23393 40.25391,-46.25586 12.09624,-22.05304 12.538,-53.52232 6.14844,-84.63672 -3.2015,-15.5899 -8.55225,-30.8009 -17.6211,-43.55273 -9.06885,-12.75184 -23.01288,-23.22994 -40.32422,-25.0332 a 16.492749,16.492749 0 0 0 -0.33984,-0.0312 c -3.71899,-0.30992 -7.35305,-0.34048 -10.89062,-0.11524 z m 1.67382,32.81055 c 1.97169,-0.0715 4.06037,-0.008 6.25391,0.16601 6.62654,0.72382 11.53643,3.98828 16.74805,11.31641 5.24365,7.37317 9.6429,18.66217 12.1914,31.07227 5.09701,24.82019 1.04401,55.27644 -2.78515,62.21679 a 16.492749,16.492749 0 0 0 -0.20117,0.375 c -9.51293,18.34636 -19.55777,28.56234 -27.33008,32.95313 -7.77232,4.39078 -12.74839,4.21575 -18.67578,1.44726 -11.85479,-5.53696 -27.50905,-29.7439 -28.87305,-68.39062 a 16.492749,16.492749 0 0 0 -0.008,-0.18359 c -0.86204,-18.53369 3.61436,-38.65519 12.15234,-51.94727 7.47073,-11.63057 16.22982,-18.50685 30.52734,-19.02539 z"
   id="path958" />
   <g
   id="g59">
    <path
   class="fil5"
   d="m 398,120 c 9,-32 366,-11 404,-16 73,-8 315,3 414,2 l 30,6 23,8 -62,2 z"
   id="path53" />
    <path
   class="fil6"
   d="m 398,118 c 13,10 43,15 96,19 111,7 282,4 308,4 78,0 315,-3 414,-2 l 30,-6 24,-11 h -63 z"
   id="path55" />
    <path
   style="color:#000000;font-style:normal;font-variant:normal;font-weight:normal;font-stretch:normal;font-size:medium;line-height:normal;font-family:sans-serif;font-variant-ligatures:normal;font-variant-position:normal;font-variant-caps:normal;font-variant-numeric:normal;font-variant-alternates:normal;font-variant-east-asian:normal;font-feature-settings:normal;font-variation-settings:normal;text-indent:0;text-align:start;text-decoration:none;text-decoration-line:none;text-decoration-style:solid;text-decoration-color:#000000;letter-spacing:normal;word-spacing:normal;text-transform:none;writing-mode:lr-tb;direction:ltr;text-orientation:mixed;dominant-baseline:auto;baseline-shift:baseline;text-anchor:start;white-space:normal;shape-padding:0;shape-margin:0;inline-size:0;clip-rule:nonzero;display:inline;overflow:visible;visibility:visible;opacity:1;isolation:auto;mix-blend-mode:normal;color-interpolation:sRGB;color-interpolation-filters:linearRGB;solid-color:#000000;solid-opacity:1;vector-effect:none;fill:#2b2a29;fill-opacity:1;fill-rule:nonzero;stroke:none;stroke-width:10.9941;stroke-linecap:round;stroke-linejoin:round;stroke-miterlimit:4;stroke-dasharray:none;stroke-dashoffset:0;stroke-opacity:1;color-rendering:auto;image-rendering:auto;shape-rendering:auto;text-rendering:auto;enable-background:accumulate;stop-color:#000000;stop-opacity:1"
   d="m 571.62109,92.496094 c -33.92556,-0.128326 -66.91359,0.579077 -95.3125,2.789062 -18.9326,1.473324 -35.82078,3.608422 -49.70507,6.669924 -13.8843,3.0615 -24.77452,6.85146 -32.07032,12.7793 a 5.4975995,5.4975995 0 0 0 0.41797,8.83984 c 9.33979,6.22653 25.27274,9.81178 47.62305,13.00976 22.35031,3.19799 50.8336,5.53408 83.59375,7.23438 65.52031,3.4006 148.11128,4.24033 231.96875,4.05273 167.71493,-0.3752 341.16928,-4.80446 390.48238,-1.38671 a 5.4975995,5.4975995 0 0 0 0.076,0.004 c 72.6896,4.03831 103.509,-8.40107 124.1328,-20.77539 a 5.4975995,5.4975995 0 0 0 -0.7343,-9.79492 c -16.589,-6.83074 -33.6578,-16.48905 -56.3555,-15.4082 l 0.207,-0.006 c -49.2512,0.49748 -134.5497,-1.999286 -216.58592,-3.625004 -82.03621,-1.625717 -160.53391,-2.445128 -197.95899,1.65625 a 5.4975995,5.4975995 0 0 0 -0.0625,0.0078 c -3.21301,0.389456 -12.04702,0.459248 -24.06445,0.154297 C 765.256,98.392314 749.75986,97.781095 731.92773,97.054688 696.26348,95.601873 651.249,93.692995 605.72266,92.878906 594.34107,92.675384 582.92962,92.538869 571.62109,92.496094 Z m -0.0469,10.996096 c 11.25154,0.0417 22.61596,0.17618 33.95312,0.3789 45.34866,0.81091 90.27168,2.71454 125.95118,4.16797 17.83975,0.72672 33.36704,1.34206 45.51757,1.65039 12.15054,0.30833 20.62903,0.37813 25.66602,-0.23242 l -0.0625,0.008 c 35.57492,-3.89862 114.57722,-3.21803 196.54101,-1.59375 81.96381,1.62429 167.16531,4.12752 216.91411,3.625 a 5.4975995,5.4975995 0 0 0 0.207,-0.006 c 15.3072,-0.72891 27.9045,4.37779 41.1309,10.09375 -19.1546,9.50377 -47.7805,17.27815 -108.0879,13.92774 -51.7595,-3.57462 -223.72078,0.99253 -391.19145,1.36719 -83.76753,0.1874 -166.23906,-0.66037 -231.375,-4.04102 -32.56797,-1.69032 -60.81124,-4.0183 -82.60547,-7.13672 -14.43876,-2.06596 -25.80593,-4.68926 -33.72656,-7.32031 4.95356,-2.08238 11.13154,-4.05244 18.56445,-5.69141 13.09618,-2.88772 29.57518,-4.9948 48.18946,-6.44336 27.9214,-2.17282 60.65945,-2.879 94.41406,-2.7539 z"
   id="path926" />
   </g>
   <g
   id="g67">
    <path
   class="fil5"
   d="m 385,253 c 9,-32 366,-11 404,-15 74,-9 315,2 414,1 l 31,6 22,9 -62,2 z"
   id="path61" />
    <path
   class="fil6"
   d="m 385,252 c 14,10 43,15 96,18 111,7 282,4 308,4 79,1 315,-2 414,-1 l 31,-6 23,-11 h -63 z"
   id="path63" />
    <path
   style="color:#000000;font-style:normal;font-variant:normal;font-weight:normal;font-stretch:normal;font-size:medium;line-height:normal;font-family:sans-serif;font-variant-ligatures:normal;font-variant-position:normal;font-variant-caps:normal;font-variant-numeric:normal;font-variant-alternates:normal;font-variant-east-asian:normal;font-feature-settings:normal;font-variation-settings:normal;text-indent:0;text-align:start;text-decoration:none;text-decoration-line:none;text-decoration-style:solid;text-decoration-color:#000000;letter-spacing:normal;word-spacing:normal;text-transform:none;writing-mode:lr-tb;direction:ltr;text-orientation:mixed;dominant-baseline:auto;baseline-shift:baseline;text-anchor:start;white-space:normal;shape-padding:0;shape-margin:0;inline-size:0;clip-rule:nonzero;display:inline;overflow:visible;visibility:visible;opacity:1;isolation:auto;mix-blend-mode:normal;color-interpolation:sRGB;color-interpolation-filters:linearRGB;solid-color:#000000;solid-opacity:1;vector-effect:none;fill:#2b2a29;fill-opacity:1;fill-rule:nonzero;stroke:none;stroke-width:10.9941;stroke-linecap:round;stroke-linejoin:round;stroke-miterlimit:4;stroke-dasharray:none;stroke-dashoffset:0;stroke-opacity:1;color-rendering:auto;image-rendering:auto;shape-rendering:auto;text-rendering:auto;enable-background:accumulate;stop-color:#000000;stop-opacity:1"
   d="m 558.80859,226.31836 c -33.86406,-0.18775 -66.7713,0.43959 -95.06054,2.54297 -18.8595,1.40225 -35.65982,3.45308 -49.44532,6.41601 -13.78549,2.96294 -24.55953,6.62581 -31.75976,12.44727 a 5.4975995,5.4975995 0 0 0 0.37305,8.82617 c 9.24477,6.26764 25.08002,9.84825 47.36132,13.07227 22.2813,3.22401 50.71804,5.59643 83.44727,7.33593 65.45846,3.479 148.04933,4.41218 231.9082,4.28711 167.71775,-0.25013 341.12079,-4.69474 390.03709,-1.75976 73.7084,5.04169 103.6871,-8.50966 123.9785,-19.66992 a 5.4975995,5.4975995 0 0 0 -0.5546,-9.89844 c -16.589,-6.83074 -33.5232,-16.41406 -56.0938,-16.41406 a 5.4975995,5.4975995 0 0 0 -0.055,0 c -49.2514,0.49749 -134.3016,-1.99923 -216.21874,-3.5 -81.91717,-1.50078 -160.41421,-2.07969 -198.39062,2.53906 -3.21391,0.38934 -12.0449,0.45919 -24.0586,0.15234 -12.01503,-0.30688 -27.50833,-0.92206 -45.33203,-1.65625 -35.64739,-1.46838 -80.6284,-3.40849 -126.08984,-4.28515 -11.36536,-0.21917 -22.75886,-0.37297 -34.04688,-0.43555 z m -0.0664,10.99609 c 11.23248,0.0614 22.5802,0.21331 33.90234,0.43164 45.28856,0.87334 90.18255,2.80823 125.84766,4.27735 17.83255,0.73456 33.35488,1.35376 45.5039,1.66406 12.14903,0.3103 20.62903,0.38008 25.66602,-0.23047 a 5.4975995,5.4975995 0 0 0 0.002,0 c 36.02359,-4.38125 115.02655,-3.96016 196.85938,-2.46094 81.80701,1.49876 166.72151,4.00046 216.47651,3.5 15.2938,0 27.9157,5.2209 41.0742,10.9375 -19.1056,9.11852 -47.0482,17.23621 -107.6992,13.08203 a 5.4975995,5.4975995 0 0 0 -0.045,-0.002 c -51.0837,-3.06502 -223.18061,1.49037 -390.71286,1.74024 -83.76613,0.12493 -166.23776,-0.81689 -231.31055,-4.27539 -32.53639,-1.72925 -60.73247,-4.09121 -82.45508,-7.23438 -14.29917,-2.06903 -25.54257,-4.69212 -33.38476,-7.30664 4.84914,-1.98068 10.89526,-3.85206 18.14453,-5.41016 13.00356,-2.79487 29.40637,-4.82217 47.95312,-6.20117 27.82013,-2.0685 60.48028,-2.69604 94.17774,-2.51172 z"
   id="path930" />
   </g>
   <path
   style="color:#000000;font-style:normal;font-variant:normal;font-weight:normal;font-stretch:normal;font-size:medium;line-height:normal;font-family:sans-serif;font-variant-ligatures:normal;font-variant-position:normal;font-variant-caps:normal;font-variant-numeric:normal;font-variant-alternates:normal;font-variant-east-asian:normal;font-feature-settings:normal;font-variation-settings:normal;text-indent:0;text-align:start;text-decoration:none;text-decoration-line:none;text-decoration-style:solid;text-decoration-color:#000000;letter-spacing:normal;word-spacing:normal;text-transform:none;writing-mode:lr-tb;direction:ltr;text-orientation:mixed;dominant-baseline:auto;baseline-shift:baseline;text-anchor:start;white-space:normal;shape-padding:0;shape-margin:0;inline-size:0;clip-rule:nonzero;display:inline;overflow:visible;visibility:visible;opacity:1;isolation:auto;mix-blend-mode:normal;color-interpolation:sRGB;color-interpolation-filters:linearRGB;solid-color:#000000;solid-opacity:1;vector-effect:none;fill:#2b2a29;fill-opacity:1;fill-rule:nonzero;stroke:none;stroke-width:10.9941;stroke-linecap:round;stroke-linejoin:round;stroke-miterlimit:4;stroke-dasharray:none;stroke-dashoffset:0;stroke-opacity:1;color-rendering:auto;image-rendering:auto;shape-rendering:auto;text-rendering:auto;enable-background:accumulate;stop-color:#000000;stop-opacity:1"
   d="m 878.96289,228.50391 a 5.4970498,5.4970498 0 0 0 -4.25586,2.0625 c -2.61421,3.26776 -5.03103,7.79437 -7.0918,11.78711 -2.06076,3.99273 -3.60546,7.34375 -3.60546,7.34375 a 5.4970498,5.4970498 0 0 0 2.6875,7.29296 5.4970498,5.4970498 0 0 0 7.29296,-2.6875 c 0,0 1.4553,-3.14898 3.39454,-6.90625 1.93923,-3.75726 4.52241,-8.23065 5.9082,-9.96289 a 5.4970498,5.4970498 0 0 0 -0.85938,-7.72656 5.4970498,5.4970498 0 0 0 -3.4707,-1.20312 z"
   id="path934" />
   <path
   style="color:#000000;font-style:normal;font-variant:normal;font-weight:normal;font-stretch:normal;font-size:medium;line-height:normal;font-family:sans-serif;font-variant-ligatures:normal;font-variant-position:normal;font-variant-caps:normal;font-variant-numeric:normal;font-variant-alternates:normal;font-variant-east-asian:normal;font-feature-settings:normal;font-variation-settings:normal;text-indent:0;text-align:start;text-decoration:none;text-decoration-line:none;text-decoration-style:solid;text-decoration-color:#000000;letter-spacing:normal;word-spacing:normal;text-transform:none;writing-mode:lr-tb;direction:ltr;text-orientation:mixed;dominant-baseline:auto;baseline-shift:baseline;text-anchor:start;white-space:normal;shape-padding:0;shape-margin:0;inline-size:0;clip-rule:nonzero;display:inline;overflow:visible;visibility:visible;opacity:1;isolation:auto;mix-blend-mode:normal;color-interpolation:sRGB;color-interpolation-filters:linearRGB;solid-color:#000000;solid-opacity:1;vector-effect:none;fill:#2b2a29;fill-opacity:1;fill-rule:nonzero;stroke:none;stroke-width:10.9941;stroke-linecap:round;stroke-linejoin:round;stroke-miterlimit:4;stroke-dasharray:none;stroke-dashoffset:0;stroke-opacity:1;color-rendering:auto;image-rendering:auto;shape-rendering:auto;text-rendering:auto;enable-background:accumulate;stop-color:#000000;stop-opacity:1"
   d="m 910.85938,224.50391 a 5.4970498,5.4970498 0 0 0 -4.91211,3.33007 c -0.57909,1.3512 -3.73986,3.58018 -8.05469,9.18946 -4.31483,5.60928 -8.70862,14.43722 -11.31446,30.07226 l 0.0313,-0.17382 -1,5 a 5.4970498,5.4970498 0 0 0 4.3125,6.46874 5.4970498,5.4970498 0 0 0 6.46874,-4.3125 l 1,-5 a 5.4975995,5.4975995 0 0 0 0.0313,-0.17382 c 2.39416,-14.36496 6.00037,-21.03702 9.18554,-25.17774 3.18517,-4.14072 7.0244,-5.91174 9.44531,-11.56054 a 5.4970498,5.4970498 0 0 0 -2.88671,-7.21875 5.4970498,5.4970498 0 0 0 -2.30664,-0.44336 z"
   id="path938" />
   <path
   style="color:#000000;font-style:normal;font-variant:normal;font-weight:normal;font-stretch:normal;font-size:medium;line-height:normal;font-family:sans-serif;font-variant-ligatures:normal;font-variant-position:normal;font-variant-caps:normal;font-variant-numeric:normal;font-variant-alternates:normal;font-variant-east-asian:normal;font-feature-settings:normal;font-variation-settings:normal;text-indent:0;text-align:start;text-decoration:none;text-decoration-line:none;text-decoration-style:solid;text-decoration-color:#000000;letter-spacing:normal;word-spacing:normal;text-transform:none;writing-mode:lr-tb;direction:ltr;text-orientation:mixed;dominant-baseline:auto;baseline-shift:baseline;text-anchor:start;white-space:normal;shape-padding:0;shape-margin:0;inline-size:0;clip-rule:nonzero;display:inline;overflow:visible;visibility:visible;opacity:1;isolation:auto;mix-blend-mode:normal;color-interpolation:sRGB;color-interpolation-filters:linearRGB;solid-color:#000000;solid-opacity:1;vector-effect:none;fill:#2b2a29;fill-opacity:1;fill-rule:nonzero;stroke:none;stroke-width:10.9941;stroke-linecap:round;stroke-linejoin:round;stroke-miterlimit:4;stroke-dasharray:none;stroke-dashoffset:0;stroke-opacity:1;color-rendering:auto;image-rendering:auto;shape-rendering:auto;text-rendering:auto;enable-background:accumulate;stop-color:#000000;stop-opacity:1"
   d="m 988.93945,230.50391 a 5.4970498,5.4970498 0 0 0 -3.71289,1.5 5.4970498,5.4970498 0 0 0 -0.22265,7.76953 c 4.23768,4.48696 6.66392,7.10802 7.95312,8.60742 1.2892,1.4994 1.16034,1.46486 1.12695,1.37305 -0.0334,-0.0918 0.27095,1.28297 1.14258,3.24414 0.87163,1.96116 2.3208,4.6032 5.15824,8.98828 a 5.4970498,5.4970498 0 0 0 7.6015,1.6289 5.4970498,5.4970498 0 0 0 1.6289,-7.60156 c -2.6626,-4.11492 -3.8384,-6.34788 -4.3418,-7.48047 -0.5033,-1.13258 -0.324,-1.07029 -0.8574,-2.53711 -0.5334,-1.46681 -1.5372,-2.93885 -3.123,-4.7832 -1.58583,-1.84435 -4.03459,-4.47329 -8.29691,-8.98633 a 5.4970498,5.4970498 0 0 0 -4.05664,-1.72265 z"
   id="path942" />
   <path
   style="color:#000000;font-style:normal;font-variant:normal;font-weight:normal;font-stretch:normal;font-size:medium;line-height:normal;font-family:sans-serif;font-variant-ligatures:normal;font-variant-position:normal;font-variant-caps:normal;font-variant-numeric:normal;font-variant-alternates:normal;font-variant-east-asian:normal;font-feature-settings:normal;font-variation-settings:normal;text-indent:0;text-align:start;text-decoration:none;text-decoration-line:none;text-decoration-style:solid;text-decoration-color:#000000;letter-spacing:normal;word-spacing:normal;text-transform:none;writing-mode:lr-tb;direction:ltr;text-orientation:mixed;dominant-baseline:auto;baseline-shift:baseline;text-anchor:start;white-space:normal;shape-padding:0;shape-margin:0;inline-size:0;clip-rule:nonzero;display:inline;overflow:visible;visibility:visible;opacity:1;isolation:auto;mix-blend-mode:normal;color-interpolation:sRGB;color-interpolation-filters:linearRGB;solid-color:#000000;solid-opacity:1;vector-effect:none;fill:#2b2a29;fill-opacity:1;fill-rule:nonzero;stroke:none;stroke-width:10.9941;stroke-linecap:round;stroke-linejoin:round;stroke-miterlimit:4;stroke-dasharray:none;stroke-dashoffset:0;stroke-opacity:1;color-rendering:auto;image-rendering:auto;shape-rendering:auto;text-rendering:auto;enable-background:accumulate;stop-color:#000000;stop-opacity:1"
   d="m 1016.875,232.50391 a 5.4970498,5.4970498 0 0 0 -3.5527,1.41015 5.4970498,5.4970498 0 0 0 -0.4082,7.76367 c 8.5936,9.54852 14.0534,18.65892 17.832,30.93946 a 5.4970498,5.4970498 0 0 0 6.8711,3.63672 5.4970498,5.4970498 0 0 0 3.6367,-6.8711 c -4.2214,-13.71946 -10.7616,-24.60906 -20.168,-35.06054 a 5.4970498,5.4970498 0 0 0 -4.2109,-1.81836 z"
   id="path946" />
  </g>
 </g>
</svg>
