<?xml version="1.0" encoding="UTF-8" standalone="no"?>
<svg
   xmlns:dc="http://purl.org/dc/elements/1.1/"
   xmlns:cc="http://creativecommons.org/ns#"
   xmlns:rdf="http://www.w3.org/1999/02/22-rdf-syntax-ns#"
   xmlns:svg="http://www.w3.org/2000/svg"
   xmlns="http://www.w3.org/2000/svg"
   xmlns:sodipodi="http://sodipodi.sourceforge.net/DTD/sodipodi-0.dtd"
   xmlns:inkscape="http://www.inkscape.org/namespaces/inkscape"
   sodipodi:docname="2021-HU-05c-answerA_background.svg"
   inkscape:version="1.0 (4035a4fb49, 2020-05-01)"
   id="svg856"
   version="1.1"
   viewBox="0 0 30 30"
   height="30mm"
   width="30mm">
  <defs
     id="defs850" />
  <sodipodi:namedview
     inkscape:window-maximized="1"
     inkscape:window-y="222"
     inkscape:window-x="-8"
     inkscape:window-height="987"
     inkscape:window-width="1680"
     showgrid="false"
     inkscape:document-rotation="0"
     inkscape:current-layer="layer1"
     inkscape:document-units="mm"
     inkscape:cy="560"
     inkscape:cx="400"
     inkscape:zoom="0.35927152"
     inkscape:pageshadow="2"
     inkscape:pageopacity="0.0"
     borderopacity="1.0"
     bordercolor="#666666"
     pagecolor="#ffffff"
     id="base" />
  <metadata
     id="metadata853">
    <rdf:RDF>
      <cc:Work
         rdf:about="">
        <dc:format>image/svg+xml</dc:format>
        <dc:type
           rdf:resource="http://purl.org/dc/dcmitype/StillImage" />
        <dc:title></dc:title>
      </cc:Work>
    </rdf:RDF>
  </metadata>
  <g
     id="layer1"
     inkscape:groupmode="layer"
     inkscape:label="Ebene 1">
    <rect
       style="fill:#ffffff;fill-opacity:1;stroke:none;stroke-width:1.55998;stroke-linecap:round;stroke-linejoin:round;paint-order:markers fill stroke;stop-color:#000000"
       id="rect840"
       width="30.000002"
       height="30.000002"
       x="-9.5367432e-07"
       y="-9.5367432e-07" />
    <path
       id="rect1271-0"
       style="font-variation-settings:normal;opacity:0.995;vector-effect:none;fill:#ff6600;fill-opacity:1;stroke:none;stroke-width:1.4716;stroke-linecap:round;stroke-linejoin:miter;stroke-miterlimit:4;stroke-dasharray:none;stroke-dashoffset:0;stroke-opacity:1;paint-order:markers fill stroke;stop-color:#000000;stop-opacity:1"
       d="M 14.999999,0.93413915 2.2913677,11.77768 l 3.488372,-1e-6 2e-6,17.288182 h 9.0518463 l 10e-7,-7.219789 5.892939,-6e-6 1e-6,7.21979 h 3.993593 l 10e-7,-17.28818 2.990509,-10e-7 z m 1.428376,11.75773185 2.639022,10e-7 -1e-6,2.639427 -2.639022,-10e-7 z m 3.162587,2e-6 2.639019,-8e-6 1e-6,2.639436 -2.639019,-2e-6 z m -11.8209463,0.0151 2.6390203,-5e-6 -1e-6,2.639023 -2.6390193,-2e-6 z m 3.1625763,-10e-7 2.639022,10e-7 v 2.639022 l -2.639019,-1e-6 z m 5.495783,3.008861 2.639022,10e-7 -1e-6,2.63983 -2.639022,-1e-6 z m 3.162586,2e-6 2.639022,10e-7 -1e-6,2.63983 h -2.639021 z m -11.8209413,0.0151 2.6390173,2e-6 -2e-6,2.639831 -2.6390163,8e-6 z m 3.1625743,-5e-6 2.63902,10e-7 -1e-6,2.639841 -2.639019,-2e-6 z"
       sodipodi:nodetypes="cccccccccccccccccccccccccccccccccccccccccccccccccccc" />
  </g>
</svg>
