<?xml version="1.0" encoding="UTF-8" standalone="no"?>
<!-- Generator: Adobe Illustrator 23.0.0, SVG Export Plug-In . SVG Version: 6.00 Build 0)  -->

<svg
   xmlns:dc="http://purl.org/dc/elements/1.1/"
   xmlns:cc="http://creativecommons.org/ns#"
   xmlns:rdf="http://www.w3.org/1999/02/22-rdf-syntax-ns#"
   xmlns:svg="http://www.w3.org/2000/svg"
   xmlns="http://www.w3.org/2000/svg"
   xmlns:sodipodi="http://sodipodi.sourceforge.net/DTD/sodipodi-0.dtd"
   xmlns:inkscape="http://www.inkscape.org/namespaces/inkscape"
   version="1.1"
   id="Layer_1"
   x="0px"
   y="0px"
   viewBox="0 0 1356 810.9"
   style="enable-background:new 0 0 1356 810.9;"
   xml:space="preserve"
   sodipodi:docname="Crumbled-keys.svg"
   inkscape:version="0.92.4 (5da689c313, 2019-01-14)"><metadata
   id="metadata98"><rdf:RDF><cc:Work
       rdf:about=""><dc:format>image/svg+xml</dc:format><dc:type
         rdf:resource="http://purl.org/dc/dcmitype/StillImage" /></cc:Work></rdf:RDF></metadata><defs
   id="defs96" /><sodipodi:namedview
   pagecolor="#ffffff"
   bordercolor="#666666"
   borderopacity="1"
   objecttolerance="10"
   gridtolerance="10"
   guidetolerance="10"
   inkscape:pageopacity="0"
   inkscape:pageshadow="2"
   inkscape:window-width="1600"
   inkscape:window-height="837"
   id="namedview94"
   showgrid="false"
   inkscape:zoom="0.41312121"
   inkscape:cx="639.22479"
   inkscape:cy="680.44835"
   inkscape:window-x="-8"
   inkscape:window-y="-8"
   inkscape:window-maximized="1"
   inkscape:current-layer="g87" />
<style
   type="text/css"
   id="style55">
	.st0{fill:#E2A442;stroke:#000000;stroke-miterlimit:10;}
	.st1{font-family:'MyriadPro-Bold';}
	.st2{font-size:70.0025px;}
</style>
<g
   id="g63">
	
	<g
   id="g103"
   transform="rotate(150.50703,290.98962,223.89629)"><path
     id="path57"
     d="m 380.1,383.4 58.2,-49.4 8.6,-7.3 c 29.9,-25.3 36.7,-66.3 15.3,-91.5 v 0 C 443.9,213.7 411,210.6 383.2,226 L 371,211.6 c -6.5,-7.7 -19.2,-7.6 -28.3,0.1 l -8.7,7.3 -4.3,3.7 -48.1,-56.7 1.5,-1.3 c 4.6,-3.9 5.7,-10.4 2.4,-14.3 l -3.2,-3.8 -2.6,-3.1 -3.2,-3.8 c -3.3,-3.9 -9.8,-3.9 -14.5,0 l -4.4,3.8 -3.1,2.6 -78.4,-92.4 c -4.6,-5.5 -13.7,-5.4 -20.2,0.1 -0.3,0.3 -0.6,0.6 -0.9,0.9 -5.7,5.5 -6.8,13.9 -2.4,19.1 l 3.7,4.4 -7.6,6.4 -19.1,16.2 c -1.8,1.5 -2.2,3.9 -0.9,5.4 l 1.5,1.8 c 1.3,1.5 0.9,3.9 -0.9,5.4 l -8.1,6.9 c -1.8,1.5 -4.2,1.5 -5.5,0 l -1.5,-1.8 c -1.3,-1.5 -3.7,-1.5 -5.5,0 l -4.3,3.7 c -1.8,1.5 -2.2,3.9 -0.9,5.4 l 9.3,11 c 1.3,1.5 3.7,1.5 5.5,0 l 1.8,-1.5 c 1.8,-1.5 4.2,-1.5 5.5,0 l 12.2,14.4 c 1.3,1.5 0.9,3.9 -0.9,5.4 l -1.8,1.5 c -1.8,1.5 -2.2,3.9 -0.9,5.4 l 5.2,6.2 c 1.3,1.5 3.7,1.5 5.5,0 l 2.2,-1.9 c 1.8,-1.5 4.2,-1.5 5.5,0 l 2.4,2.8 c 1.3,1.5 0.9,3.9 -0.9,5.4 l -2.2,1.9 c -1.8,1.5 -2.2,3.9 -0.9,5.4 l 1.1,1.3 c 1.3,1.5 3.7,1.5 5.5,0 l 18.2,-15.4 c 1.8,-1.5 2.2,-3.9 0.9,-5.4 -1.3,-1.5 -0.9,-3.9 0.9,-5.4 l 9.7,-8.3 c 1.8,-1.5 4.2,-1.5 5.5,0 1.3,1.5 3.7,1.5 5.5,0 l 3.6,-3.1 7.6,-6.4 21.5,25.3 -3.1,2.6 -4.4,3.8 c -4.6,3.9 -5.7,10.4 -2.4,14.3 l 9,10.6 c 3.3,3.9 9.8,3.9 14.5,0 l 1.5,-1.3 48.1,56.7 -10.7,9.1 c -9.1,7.7 -11.2,20.2 -4.7,27.9 l 12.2,14.4 c -19.6,25 -22,58 -3.7,79.5 v 0 c 21.4,25.1 62.9,25 92.8,-0.4 z"
     class="st0"
     inkscape:connector-curvature="0"
     style="fill:#e2a442;stroke:#000000;stroke-miterlimit:10" /><g
     id="g61">
		<text
   id="text59"
   class="st1 st2"
   transform="matrix(-0.6471,-0.7624,0.7624,-0.6471,422.9594,334.588)"
   style="font-size:70.00250244px;font-family:MyriadPro-Bold">934</text>

	</g></g>
</g>
<g
   id="g71"
   transform="rotate(-30.552587,272.8635,602.44518)">
	<path
   class="st0"
   d="m 124.1,502.8 -37.2,66.6 -5.5,9.8 c -19.1,34.2 -11.1,75 17.8,91.1 v 0 c 24.6,13.7 56.6,5 77.3,-19.1 l 16.5,9.2 c 8.8,4.9 20.6,0.4 26.5,-10 l 5.5,-9.8 2.8,-4.9 64.9,36.2 -1,1.8 c -3,5.3 -1.7,11.7 2.8,14.2 l 4.3,2.4 3.5,2 4.3,2.4 c 4.5,2.5 10.6,0.2 13.5,-5.1 l 2.8,-5.1 2,-3.5 105.9,59 c 6.3,3.5 14.8,0.3 18.9,-7.1 0.2,-0.4 0.4,-0.8 0.6,-1.1 3.4,-7.2 1.5,-15.4 -4.4,-18.7 l -5,-2.8 4.8,-8.7 12.2,-21.9 c 1.1,-2 0.7,-4.5 -1.1,-5.4 l -2.1,-1.2 c -1.7,-1 -2.2,-3.4 -1.1,-5.4 l 5.2,-9.3 c 1.1,-2 3.4,-2.9 5.2,-2 l 2.1,1.2 c 1.7,1 4,0.1 5.2,-2 l 2.8,-5 c 1.1,-2 0.7,-4.5 -1.1,-5.4 l -12.6,-7 c -1.7,-1 -4,-0.1 -5.2,2 l -1.1,2 c -1.1,2 -3.4,2.9 -5.2,2 L 432.5,635 c -1.7,-1 -2.2,-3.4 -1.1,-5.4 l 1.1,-2 c 1.1,-2 0.7,-4.5 -1.1,-5.4 l -7,-3.9 c -1.7,-1 -4,-0.1 -5.2,2 l -1.4,2.5 c -1.1,2 -3.4,2.9 -5.2,2 l -3.2,-1.8 c -1.7,-1 -2.2,-3.4 -1.1,-5.4 l 1.4,-2.5 c 1.1,-2 0.7,-4.5 -1.1,-5.4 l -1.5,-0.8 c -1.7,-1 -4,-0.1 -5.2,2 l -11.6,20.8 c -1.1,2 -0.7,4.5 1.1,5.4 1.7,1 2.2,3.4 1.1,5.4 l -6.2,11.1 c -1.1,2 -3.4,2.9 -5.2,2 -1.8,-0.9 -4,-0.1 -5.2,2 l -2.3,4.2 -4.8,8.7 -29,-16.2 2,-3.5 2.8,-5.1 c 3,-5.3 1.7,-11.7 -2.8,-14.2 l -12.1,-6.8 c -4.5,-2.5 -10.6,-0.2 -13.5,5.1 l -1,1.7 -64.9,-36.5 6.9,-12.3 c 5.8,-10.4 3.4,-22.9 -5.4,-27.8 l -16.5,-9.2 c 9.6,-30.3 0.3,-62 -24.4,-75.7 v 0 c -28.9,-16.1 -67.7,-1.4 -86.8,32.8 z"
   id="path65"
   inkscape:connector-curvature="0"
   style="fill:#e2a442;stroke:#000000;stroke-miterlimit:10" />
	<g
   id="g69">
		<text
   transform="matrix(0.8734,0.487,-0.487,0.8734,101.0408,563.6013)"
   class="st1 st2"
   id="text67"
   style="font-size:70.00250244px;font-family:MyriadPro-Bold">346</text>

	</g>
</g>
<g
   id="g79">
	<path
   class="st0"
   d="M921.6,215.5l32.2,69.2l4.7,10.2c16.5,35.5,54.2,53,84.2,39.1l0,0c25.6-11.9,37.3-42.8,29.9-73.7l17.1-8   c9.1-4.2,12.5-16.5,7.4-27.3l-4.7-10.2l-2.4-5.1l67.4-31.3l0.8,1.8c2.6,5.5,8.5,8.3,13.1,6.1l4.5-2.1l3.7-1.7l4.5-2.1   c4.7-2.2,6.4-8.4,3.8-14l-2.5-5.3l-1.7-3.7l109.9-51.1c6.5-3,8.9-11.8,5.3-19.5c-0.2-0.4-0.4-0.8-0.6-1.1   c-3.8-6.9-11.6-10.2-17.7-7.4l-5.2,2.4l-4.2-9l-10.5-22.7c-1-2.1-3.2-3.2-5-2.3l-2.1,1c-1.8,0.8-4-0.2-5-2.3l-4.5-9.7   c-1-2.1-0.3-4.5,1.4-5.3l2.1-1c1.8-0.8,2.4-3.2,1.4-5.3l-2.4-5.2c-1-2.1-3.2-3.2-5-2.3l-13.1,6.1c-1.8,0.8-2.4,3.2-1.4,5.3l1,2.1   c1,2.1,0.3,4.5-1.4,5.3l-17.1,7.9c-1.8,0.8-4-0.2-5-2.3l-1-2.1c-1-2.1-3.2-3.2-5-2.3l-7.3,3.4c-1.8,0.8-2.4,3.2-1.4,5.3l1.2,2.6   c1,2.1,0.3,4.5-1.4,5.3l-3.3,1.5c-1.8,0.8-4-0.2-5-2.3l-1.2-2.6c-1-2.1-3.2-3.2-5-2.3l-1.6,0.7c-1.8,0.8-2.4,3.2-1.4,5.3l10.1,21.6   c1,2.1,3.2,3.2,5,2.3c1.8-0.8,4,0.2,5,2.3l5.4,11.6c1,2.1,0.3,4.5-1.4,5.3c-1.8,0.8-2.4,3.2-1.4,5.3l2,4.3l4.2,9l-30.1,14l-1.7-3.6   l-2.5-5.3c-2.6-5.5-8.5-8.3-13.1-6.1l-12.6,5.8c-4.7,2.2-6.4,8.4-3.8,14l0.8,1.8l-67.4,31.3l-5.9-12.8c-5-10.8-16.5-16.2-25.6-11.9   l-17.1,8c-18.9-25.6-50-36.6-75.6-24.7l0,0C916,139.9,905.1,180,921.6,215.5z"
   id="path73" />
	<g
   id="g77">
		<text
   transform="matrix(0.9068 -0.4215 0.4215 0.9068 957.3075 269.824)"
   class="st1 st2"
   id="text75">396</text>

	</g>
</g>
<g
   id="g87">
	
	<g
   id="g108"
   transform="rotate(-9.0090223,1041.4244,608.52539)"><path
     id="path81"
     d="m 917.4,479.1 -47.9,59.4 -7.1,8.8 c -24.6,30.5 -23.6,72 2.1,92.8 v 0 c 22,17.7 54.9,14.5 79.4,-5.7 l 14.7,11.9 c 7.8,6.3 20.3,3.9 27.8,-5.4 l 7.1,-8.8 3.6,-4.4 57.9,46.6 -1.3,1.6 c -3.8,4.7 -3.7,11.2 0.3,14.5 l 3.8,3.1 3.1,2.5 3.8,3.1 c 4,3.2 10.4,2 14.2,-2.8 l 3.7,-4.5 2.5,-3.2 94.4,76 c 5.6,4.5 14.5,2.8 19.8,-3.8 0.3,-0.3 0.5,-0.7 0.8,-1 4.5,-6.5 4.1,-14.9 -1.2,-19.2 l -4.5,-3.6 6.2,-7.7 15.7,-19.5 c 1.5,-1.8 1.4,-4.3 -0.1,-5.5 l -1.8,-1.5 c -1.5,-1.2 -1.6,-3.7 -0.1,-5.5 l 6.7,-8.3 c 1.5,-1.8 3.9,-2.3 5.4,-1.1 l 1.8,1.5 c 1.5,1.2 4,0.8 5.4,-1.1 l 3.6,-4.4 c 1.5,-1.8 1.4,-4.3 -0.1,-5.5 l -11.2,-9 c -1.5,-1.2 -4,-0.8 -5.4,1.1 l -1.4,1.8 c -1.5,1.8 -3.9,2.3 -5.4,1.1 L 1199,661.6 c -1.5,-1.2 -1.6,-3.7 -0.1,-5.5 l 1.4,-1.8 c 1.5,-1.8 1.4,-4.3 -0.1,-5.5 l -6.3,-5.1 c -1.5,-1.2 -4,-0.8 -5.4,1.1 l -1.8,2.2 c -1.5,1.8 -3.9,2.3 -5.4,1.1 l -2.8,-2.3 c -1.5,-1.2 -1.6,-3.7 -0.1,-5.5 l 1.8,-2.2 c 1.5,-1.8 1.4,-4.3 -0.1,-5.5 l -1.4,-1.1 c -1.5,-1.2 -4,-0.8 -5.4,1.1 l -15,18.6 c -1.5,1.8 -1.4,4.3 0.1,5.5 1.5,1.2 1.6,3.7 0.1,5.5 l -8,9.9 c -1.5,1.8 -3.9,2.3 -5.4,1.1 -1.5,-1.2 -4,-0.8 -5.4,1.1 l -3,3.7 -6.2,7.7 -25.8,-20.8 2.5,-3.1 3.7,-4.5 c 3.8,-4.7 3.7,-11.2 -0.3,-14.5 l -10.8,-8.7 c -4,-3.2 -10.4,-2 -14.2,2.8 l -1.2,1.5 -57.9,-46.7 8.8,-11 c 7.5,-9.3 7.2,-22 -0.6,-28.3 L 1020,540.5 c 14.6,-28.2 10.7,-61.1 -11.3,-78.8 v 0 c -25.9,-21 -66.7,-13.1 -91.3,17.4 z"
     class="st0"
     inkscape:connector-curvature="0"
     style="fill:#e2a442;stroke:#000000;stroke-miterlimit:10" /><g
     id="g85">
		<text
   id="text83"
   class="st1 st2"
   transform="matrix(0.7786,0.6275,-0.6275,0.7786,884.4512,535.1467)"
   style="font-size:70.00250244px;font-family:MyriadPro-Bold">636</text>

	</g></g>
</g>
<g
   id="g91">
	<path
   class="st0"
   d="M579.8,512.5l68.8,32.9l10.2,4.8c35.3,16.9,75.5,6.4,89.8-23.5l0,0c12.2-25.5,1.5-56.8-23.9-75.9l8.1-17.1   c4.3-9.1-0.9-20.6-11.6-25.8l-10.2-4.8l-5.1-2.4l32-67.1l1.8,0.9c5.5,2.6,11.8,1,14-3.7l2.1-4.4l1.7-3.6l2.1-4.4   c2.2-4.6-0.5-10.6-6-13.2l-5.3-2.5l-3.7-1.7l52.2-109.4c3.1-6.5-0.6-14.7-8.3-18.4c-0.4-0.2-0.8-0.3-1.2-0.5   c-7.4-2.9-15.4-0.5-18.4,5.6l-2.5,5.2l-9-4.3l-22.6-10.8c-2.1-1-4.5-0.4-5.3,1.4l-1,2.1c-0.8,1.8-3.2,2.4-5.3,1.4l-9.6-4.6   c-2.1-1-3.1-3.3-2.3-5l1-2.1c0.8-1.8-0.2-4-2.3-5l-5.1-2.5c-2.1-1-4.5-0.4-5.3,1.4l-6.2,13c-0.8,1.8,0.2,4,2.3,5l2.1,1   c2.1,1,3.1,3.3,2.3,5l-8.1,17c-0.8,1.8-3.2,2.4-5.3,1.4l-2.1-1c-2.1-1-4.5-0.4-5.3,1.4l-3.5,7.3c-0.8,1.8,0.2,4,2.3,5l2.6,1.2   c2.1,1,3.1,3.3,2.3,5l-1.6,3.3c-0.8,1.8-3.2,2.4-5.3,1.4l-2.6-1.2c-2.1-1-4.5-0.4-5.3,1.4l-0.7,1.6c-0.8,1.8,0.2,4,2.3,5l21.5,10.3   c2.1,1,4.5,0.4,5.3-1.4c0.8-1.8,3.2-2.4,5.3-1.4l11.5,5.5c2.1,1,3.1,3.3,2.3,5c-0.8,1.8,0.2,4,2.3,5l4.3,2.1l9,4.3L717,287.6   l-3.6-1.7l-5.3-2.5c-5.5-2.6-11.8-1-14,3.7l-6,12.5c-2.2,4.6,0.5,10.6,6,13.2l1.8,0.9l-32,67.1l-12.7-6.1   c-10.8-5.1-23-1.9-27.4,7.1l-8.1,17.1c-30.8-7.7-61.9,3.7-74,29.1l0,0C527.4,457.8,544.5,495.6,579.8,512.5z"
   id="path89" />
</g>
</svg>