<?xml version="1.0" encoding="UTF-8" standalone="no"?>
<svg
   xmlns:dc="http://purl.org/dc/elements/1.1/"
   xmlns:cc="http://creativecommons.org/ns#"
   xmlns:rdf="http://www.w3.org/1999/02/22-rdf-syntax-ns#"
   xmlns:svg="http://www.w3.org/2000/svg"
   xmlns="http://www.w3.org/2000/svg"
   xmlns:sodipodi="http://sodipodi.sourceforge.net/DTD/sodipodi-0.dtd"
   xmlns:inkscape="http://www.inkscape.org/namespaces/inkscape"
   height="404.32834"
   viewBox="-432 -1162 99.961052 404.32832"
   width="99.961052"
   version="1.1"
   id="svg430"
   sodipodi:docname="2_result.svg"
   inkscape:version="0.92.4 (5da689c313, 2019-01-14)">
  <metadata
     id="metadata436">
    <rdf:RDF>
      <cc:Work
         rdf:about="">
        <dc:format>image/svg+xml</dc:format>
        <dc:type
           rdf:resource="http://purl.org/dc/dcmitype/StillImage" />
        <dc:title></dc:title>
      </cc:Work>
    </rdf:RDF>
  </metadata>
  <defs
     id="defs434" />
  <sodipodi:namedview
     pagecolor="#ffffff"
     bordercolor="#666666"
     borderopacity="1"
     objecttolerance="10"
     gridtolerance="10"
     guidetolerance="10"
     inkscape:pageopacity="0"
     inkscape:pageshadow="2"
     inkscape:window-width="1920"
     inkscape:window-height="1017"
     id="namedview432"
     showgrid="false"
     inkscape:zoom="0.95700186"
     inkscape:cx="479.92375"
     inkscape:cy="283.23767"
     inkscape:window-x="1352"
     inkscape:window-y="-8"
     inkscape:window-maximized="1"
     inkscape:current-layer="svg430"
     fit-margin-top="0"
     fit-margin-left="0"
     fit-margin-right="0"
     fit-margin-bottom="0" />
  <polyline
     points="-100.0,0.0 -100.00000000000003,-20.000000000000004 -100.0,-0.0 -80.0,-2.2873995779337904e-14 -100.0,-0.0 -99.99999999999997,20.000000000000004 -100.0,-0.0 -120.0,2.5323289377632607e-14 -100.0,-0.0"
     id="polyline42"
     style="fill:none;stroke:#ff0000;stroke-width:2;stroke-linecap:round;stroke-linejoin:round"
     transform="translate(-311.01404,-778.65762)" />
  <polyline
     points="-100.0,-0.0 -100.00000000000001,-10.000000000000002 -100.00000000000003,-20.000000000000004 -97.41180954897483,-29.659258262890692 -94.82361909794963,-39.31851652578138"
     id="polyline44"
     style="fill:none;stroke:#000000;stroke-width:2;stroke-linecap:round;stroke-linejoin:round"
     transform="translate(-311.01404,-778.65762)" />
  <polyline
     points="-100.00000000000003,-20.000000000000004 -100.00000000000004,-30.000000000000007 -100.00000000000006,-40.00000000000001 -100.00000000000007,-50.00000000000001 -97.41180954897487,-59.659258262890695 -94.82361909794967,-69.31851652578138"
     id="polyline46"
     style="fill:none;stroke:#000000;stroke-width:2;stroke-linecap:round;stroke-linejoin:round"
     transform="translate(-311.01404,-778.65762)" />
  <polyline
     points="-100.00000000000007,-50.00000000000001 -100.00000000000009,-60.00000000000001 -97.41180954897489,-69.65925826289069 -94.82361909794969,-79.31851652578138 -89.8236190979497,-87.97877056362577 -84.82361909794972,-96.63902460147017"
     id="polyline48"
     style="fill:none;stroke:#000000;stroke-width:2;stroke-linecap:round;stroke-linejoin:round"
     transform="translate(-311.01404,-778.65762)" />
  <polyline
     points="-94.82361909794969,-79.31851652578138 -92.23542864692449,-88.97777478867206 -89.64723819589929,-98.63703305156275 -87.05904774487409,-108.29629131445344 -82.0590477448741,-116.95654535229784 -77.05904774487412,-125.61679939014223"
     id="polyline50"
     style="fill:none;stroke:#000000;stroke-width:2;stroke-linecap:round;stroke-linejoin:round"
     transform="translate(-311.01404,-778.65762)" />
  <line
     x1="-398.07309"
     x2="-395.48489"
     y1="-886.95392"
     y2="-896.61316"
     id="line52"
     style="fill:none;stroke:#000000;stroke-width:2;stroke-linecap:round" />
  <polyline
     points="-100.00000000000009,-60.00000000000001 -100.0000000000001,-70.00000000000001 -100.00000000000011,-80.00000000000001 -97.41180954897492,-89.6592582628907 -94.82361909794972,-99.31851652578139"
     id="polyline54"
     style="fill:none;stroke:#000000;stroke-width:2;stroke-linecap:round;stroke-linejoin:round"
     transform="translate(-311.01404,-778.65762)" />
  <polyline
     points="-100.00000000000011,-80.00000000000001 -100.00000000000013,-90.00000000000001 -100.00000000000014,-100.00000000000001 -100.00000000000016,-110.00000000000001 -97.41180954897496,-119.6592582628907 -94.82361909794976,-129.31851652578138"
     id="polyline56"
     style="fill:none;stroke:#000000;stroke-width:2;stroke-linecap:round;stroke-linejoin:round"
     transform="translate(-311.01404,-778.65762)" />
  <polyline
     points="-100.00000000000016,-110.00000000000001 -100.00000000000017,-120.00000000000001 -100.00000000000018,-130.00000000000003 -100.0000000000002,-140.00000000000003 -97.411809548975,-149.65925826289072 -94.8236190979498,-159.3185165257814"
     id="polyline58"
     style="fill:none;stroke:#000000;stroke-width:2;stroke-linecap:round;stroke-linejoin:round"
     transform="translate(-311.01404,-778.65762)" />
  <polyline
     points="-100.0000000000002,-140.00000000000003 -100.00000000000021,-150.00000000000003 -97.41180954897501,-159.65925826289072 -94.82361909794982,-169.3185165257814 -89.82361909794983,-177.9787705636258 -84.82361909794984,-186.6390246014702"
     id="polyline60"
     style="fill:none;stroke:#000000;stroke-width:2;stroke-linecap:round;stroke-linejoin:round"
     transform="translate(-311.01404,-778.65762)" />
  <polyline
     points="-94.82361909794982,-169.3185165257814 -92.23542864692462,-178.9777747886721 -89.64723819589942,-188.63703305156278 -87.05904774487422,-198.29629131445347 -82.05904774487423,-206.95654535229787 -77.05904774487425,-215.61679939014226"
     id="polyline62"
     style="fill:none;stroke:#000000;stroke-width:2;stroke-linecap:round;stroke-linejoin:round"
     transform="translate(-311.01404,-778.65762)" />
  <line
     x1="-398.07309"
     x2="-395.48489"
     y1="-976.95392"
     y2="-986.61316"
     id="line64"
     style="fill:none;stroke:#000000;stroke-width:2;stroke-linecap:round" />
  <polyline
     points="-100.00000000000021,-150.00000000000003 -100.00000000000023,-160.00000000000003 -100.00000000000024,-170.00000000000003 -97.41180954897504,-179.65925826289072 -94.82361909794984,-189.3185165257814"
     id="polyline66"
     style="fill:none;stroke:#000000;stroke-width:2;stroke-linecap:round;stroke-linejoin:round"
     transform="translate(-311.01404,-778.65762)" />
  <polyline
     points="-100.00000000000024,-170.00000000000003 -100.00000000000026,-180.00000000000003 -97.41180954897506,-189.65925826289072 -94.82361909794986,-199.3185165257814 -89.82361909794987,-207.9787705636258 -84.82361909794989,-216.6390246014702"
     id="polyline68"
     style="fill:none;stroke:#000000;stroke-width:2;stroke-linecap:round;stroke-linejoin:round"
     transform="translate(-311.01404,-778.65762)" />
  <polyline
     points="-94.82361909794986,-199.3185165257814 -92.23542864692466,-208.9777747886721 -89.64723819589946,-218.63703305156278 -87.05904774487426,-228.29629131445347 -82.05904774487428,-236.95654535229787 -77.05904774487429,-245.61679939014226"
     id="polyline70"
     style="fill:none;stroke:#000000;stroke-width:2;stroke-linecap:round;stroke-linejoin:round"
     transform="translate(-311.01404,-778.65762)" />
  <polyline
     points="-87.05904774487426,-228.29629131445347 -84.47085729384906,-237.95554957734416 -79.47085729384908,-246.61580361518855 -74.4708572938491,-255.27605765303295 -67.39978948198363,-262.34712546489845 -60.32872167011816,-269.41819327676393"
     id="polyline72"
     style="fill:none;stroke:#000000;stroke-width:2;stroke-linecap:round;stroke-linejoin:round"
     transform="translate(-311.01404,-778.65762)" />
  <polyline
     points="-74.4708572938491,-255.27605765303295 -69.47085729384911,-263.93631169087735 -64.47085729384912,-272.5965657287217 -59.470857293849136,-281.2568197665661 -52.39978948198367,-288.32788757843156 -45.3287216701182,-295.39895539029703"
     id="polyline74"
     style="fill:none;stroke:#000000;stroke-width:2;stroke-linecap:round;stroke-linejoin:round"
     transform="translate(-311.01404,-778.65762)" />
  <line
     x1="-370.48489"
     x2="-365.48489"
     y1="-1059.9144"
     y2="-1068.5747"
     id="line76"
     style="fill:none;stroke:#000000;stroke-width:2;stroke-linecap:round" />
  <polyline
     points="-84.47085729384906,-237.95554957734416 -81.88266684282387,-247.61480784023485 -79.29447639179867,-257.2740661031255 -74.29447639179868,-265.9343201409699 -69.2944763917987,-274.59457417881424"
     id="polyline78"
     style="fill:none;stroke:#000000;stroke-width:2;stroke-linecap:round;stroke-linejoin:round"
     transform="translate(-311.01404,-778.65762)" />
  <polyline
     points="-79.29447639179867,-257.2740661031255 -76.70628594077347,-266.9333243660162 -74.11809548974827,-276.59258262890694 -71.52990503872307,-286.25184089179766 -66.52990503872309,-294.912094929642 -61.52990503872309,-303.5723489674864"
     id="polyline80"
     style="fill:none;stroke:#000000;stroke-width:2;stroke-linecap:round;stroke-linejoin:round"
     transform="translate(-311.01404,-778.65762)" />
  <polyline
     points="-71.52990503872307,-286.25184089179766 -68.94171458769787,-295.9110991546884 -66.35352413667268,-305.5703574175791 -63.76533368564748,-315.2296156804698 -58.765333685647484,-323.8898697183142 -53.76533368564749,-332.55012375615854"
     id="polyline82"
     style="fill:none;stroke:#000000;stroke-width:2;stroke-linecap:round;stroke-linejoin:round"
     transform="translate(-311.01404,-778.65762)" />
  <polyline
     points="-63.76533368564748,-315.2296156804698 -61.17714323462228,-324.8888739433605 -56.177143234622285,-333.5491279812049 -51.17714323462229,-342.20938201904926 -44.106075422756824,-349.28044983091473 -37.035007610891356,-356.3515176427802"
     id="polyline84"
     style="fill:none;stroke:#000000;stroke-width:2;stroke-linecap:round;stroke-linejoin:round"
     transform="translate(-311.01404,-778.65762)" />
  <polyline
     points="-51.17714323462229,-342.20938201904926 -46.1771432346223,-350.8696360568937 -41.17714323462231,-359.5298900947381 -36.177143234622314,-368.19014413258253 -29.106075422756845,-375.261211944448 -22.035007610891377,-382.3322797563135"
     id="polyline86"
     style="fill:none;stroke:#000000;stroke-width:2;stroke-linecap:round;stroke-linejoin:round"
     transform="translate(-311.01404,-778.65762)" />
  <line
     x1="-347.19119"
     x2="-342.19119"
     y1="-1146.8478"
     y2="-1155.5081"
     id="line88"
     style="fill:none;stroke:#000000;stroke-width:2;stroke-linecap:round" />
  <polyline
     points="-61.17714323462228,-324.8888739433605 -58.58895278359708,-334.54813220625124 -56.00076233257188,-344.20739046914196 -51.00076233257189,-352.8676445069864 -46.000762332571895,-361.5278985448308"
     id="polyline90"
     style="fill:none;stroke:#000000;stroke-width:2;stroke-linecap:round;stroke-linejoin:round"
     transform="translate(-311.01404,-778.65762)" />
  <line
     x1="-367.0148"
     x2="-364.42661"
     y1="-1122.865"
     y2="-1132.5243"
     id="line92"
     style="fill:none;stroke:#000000;stroke-width:2;stroke-linecap:round" />
  <polyline
     points="-100.00000000000026,-180.00000000000003 -100.00000000000027,-190.00000000000003 -100.00000000000028,-200.00000000000003 -97.41180954897509,-209.65925826289072 -94.82361909794989,-219.3185165257814"
     id="polyline94"
     style="fill:none;stroke:#000000;stroke-width:2;stroke-linecap:round;stroke-linejoin:round"
     transform="translate(-311.01404,-778.65762)" />
  <polyline
     points="-100.00000000000028,-200.00000000000003 -100.0000000000003,-210.00000000000003 -100.00000000000031,-220.00000000000003 -100.00000000000033,-230.00000000000003 -97.41180954897513,-239.65925826289072 -94.82361909794993,-249.3185165257814"
     id="polyline96"
     style="fill:none;stroke:#000000;stroke-width:2;stroke-linecap:round;stroke-linejoin:round"
     transform="translate(-311.01404,-778.65762)" />
  <polyline
     points="-100.00000000000033,-230.00000000000003 -100.00000000000034,-240.00000000000003 -97.41180954897514,-249.65925826289072 -94.82361909794994,-259.31851652578143 -89.82361909794996,-267.97877056362586 -84.82361909794997,-276.6390246014703"
     id="polyline98"
     style="fill:none;stroke:#000000;stroke-width:2;stroke-linecap:round;stroke-linejoin:round"
     transform="translate(-311.01404,-778.65762)" />
  <polyline
     points="-94.82361909794994,-259.31851652578143 -92.23542864692475,-268.97777478867215 -89.64723819589955,-278.63703305156287 -87.05904774487435,-288.2962913144536 -82.05904774487436,-296.956545352298 -77.05904774487438,-305.61679939014243"
     id="polyline100"
     style="fill:none;stroke:#000000;stroke-width:2;stroke-linecap:round;stroke-linejoin:round"
     transform="translate(-311.01404,-778.65762)" />
  <line
     x1="-398.07309"
     x2="-395.48489"
     y1="-1066.9539"
     y2="-1076.6132"
     id="line102"
     style="fill:none;stroke:#000000;stroke-width:2;stroke-linecap:round" />
  <polyline
     points="-100.00000000000034,-240.00000000000003 -100.00000000000036,-250.00000000000003 -100.00000000000037,-260.00000000000006 -97.41180954897517,-269.6592582628908 -94.82361909794997,-279.3185165257815"
     id="polyline104"
     style="fill:none;stroke:#000000;stroke-width:2;stroke-linecap:round;stroke-linejoin:round"
     transform="translate(-311.01404,-778.65762)" />
  <line
     x1="-411.01404"
     x2="-411.01404"
     y1="-1038.6576"
     y2="-1048.6576"
     id="line106"
     style="fill:none;stroke:#000000;stroke-width:2;stroke-linecap:round" />
</svg>
