<?xml version="1.0" encoding="UTF-8" standalone="no"?>
<svg
   xmlns:dc="http://purl.org/dc/elements/1.1/"
   xmlns:cc="http://creativecommons.org/ns#"
   xmlns:rdf="http://www.w3.org/1999/02/22-rdf-syntax-ns#"
   xmlns:svg="http://www.w3.org/2000/svg"
   xmlns="http://www.w3.org/2000/svg"
   xmlns:sodipodi="http://sodipodi.sourceforge.net/DTD/sodipodi-0.dtd"
   xmlns:inkscape="http://www.inkscape.org/namespaces/inkscape"
   sodipodi:docname="2020-CH-01c_taskbody2-fra-compatible.svg"
   inkscape:version="1.0 (4035a4fb49, 2020-05-01)"
   id="svg1043"
   version="1.1"
   viewBox="0 0 17.902786 17.329845"
   height="17.329845mm"
   width="17.902786mm">
  <defs
     id="defs1037" />
  <sodipodi:namedview
     inkscape:window-maximized="1"
     inkscape:window-y="222"
     inkscape:window-x="-8"
     inkscape:window-height="987"
     inkscape:window-width="1680"
     fit-margin-bottom="0"
     fit-margin-right="0"
     fit-margin-left="0"
     fit-margin-top="0"
     showgrid="false"
     inkscape:document-rotation="0"
     inkscape:current-layer="g888"
     inkscape:document-units="mm"
     inkscape:cy="79.51903"
     inkscape:cx="64.017033"
     inkscape:zoom="3.959798"
     inkscape:pageshadow="2"
     inkscape:pageopacity="0.0"
     borderopacity="1.0"
     bordercolor="#666666"
     pagecolor="#ffffff"
     id="base" />
  <metadata
     id="metadata1040">
    <rdf:RDF>
      <cc:Work
         rdf:about="">
        <dc:format>image/svg+xml</dc:format>
        <dc:type
           rdf:resource="http://purl.org/dc/dcmitype/StillImage" />
        <dc:title></dc:title>
      </cc:Work>
    </rdf:RDF>
  </metadata>
  <g
     transform="translate(58.175483,49.294333)"
     id="layer1"
     inkscape:groupmode="layer"
     inkscape:label="Ebene 1">
    <g
       transform="translate(-154.22409,-189.12941)"
       id="g888">
      <path
         id="path1196"
         d="m 105,139.83594 c -4.93073,0 -8.95117,3.87555 -8.95117,8.66406 0,4.78851 4.02044,8.66406 8.95117,8.66406 4.93073,0 8.95117,-3.87555 8.95117,-8.66406 0,-4.78851 -4.02044,-8.66406 -8.95117,-8.66406 z m 0,0.86328 c 4.47897,0 8.08594,3.49601 8.08594,7.80078 0,4.30477 -3.60697,7.80078 -8.08594,7.80078 -4.47897,0 -8.08594,-3.49601 -8.08594,-7.80078 0,-4.30477 3.60697,-7.80078 8.08594,-7.80078 z"
         style="color:#000000;font-style:normal;font-variant:normal;font-weight:normal;font-stretch:normal;font-size:medium;line-height:normal;font-family:sans-serif;font-variant-ligatures:normal;font-variant-position:normal;font-variant-caps:normal;font-variant-numeric:normal;font-variant-alternates:normal;font-variant-east-asian:normal;font-feature-settings:normal;font-variation-settings:normal;text-indent:0;text-align:start;text-decoration:none;text-decoration-line:none;text-decoration-style:solid;text-decoration-color:#000000;letter-spacing:normal;word-spacing:normal;text-transform:none;writing-mode:lr-tb;direction:ltr;text-orientation:mixed;dominant-baseline:auto;baseline-shift:baseline;text-anchor:start;white-space:normal;shape-padding:0;shape-margin:0;inline-size:0;clip-rule:nonzero;display:inline;overflow:visible;visibility:visible;opacity:1;isolation:auto;mix-blend-mode:normal;color-interpolation:sRGB;color-interpolation-filters:linearRGB;solid-color:#000000;solid-opacity:1;vector-effect:none;fill:#000000;fill-opacity:1;fill-rule:nonzero;stroke:none;stroke-width:0.865;stroke-linecap:square;stroke-linejoin:miter;stroke-miterlimit:4;stroke-dasharray:none;stroke-dashoffset:0;stroke-opacity:1;paint-order:markers stroke fill;color-rendering:auto;image-rendering:auto;shape-rendering:auto;text-rendering:auto;enable-background:accumulate;stop-color:#000000;stop-opacity:1" />
      <path
         id="path1202"
         d="m 105,155.03216 c -3.73478,0 -6.76242,-2.92455 -6.76241,-6.53216 -1e-5,-3.60761 3.02763,-6.53216 6.76241,-6.53216 3.73478,0 6.76241,2.92455 6.76241,6.53216 0,3.60761 -3.02763,6.53216 -6.76241,6.53216 z"
         style="color:#000000;font-style:normal;font-variant:normal;font-weight:normal;font-stretch:normal;font-size:medium;line-height:normal;font-family:sans-serif;font-variant-ligatures:normal;font-variant-position:normal;font-variant-caps:normal;font-variant-numeric:normal;font-variant-alternates:normal;font-variant-east-asian:normal;font-feature-settings:normal;font-variation-settings:normal;text-indent:0;text-align:start;text-decoration:none;text-decoration-line:none;text-decoration-style:solid;text-decoration-color:#000000;letter-spacing:normal;word-spacing:normal;text-transform:none;writing-mode:lr-tb;direction:ltr;text-orientation:mixed;dominant-baseline:auto;baseline-shift:baseline;text-anchor:start;white-space:normal;shape-padding:0;shape-margin:0;inline-size:0;clip-rule:nonzero;display:inline;overflow:visible;visibility:visible;opacity:1;isolation:auto;mix-blend-mode:normal;color-interpolation:sRGB;color-interpolation-filters:linearRGB;solid-color:#000000;solid-opacity:1;vector-effect:none;fill:#2a7fff;fill-opacity:1;fill-rule:nonzero;stroke:none;stroke-width:0.365001;stroke-linecap:square;stroke-linejoin:miter;stroke-miterlimit:4;stroke-dasharray:none;stroke-dashoffset:0;stroke-opacity:1;paint-order:markers stroke fill;color-rendering:auto;image-rendering:auto;shape-rendering:auto;text-rendering:auto;enable-background:accumulate;stop-color:#000000;stop-opacity:1" />
      <path
         id="path1200"
         d="m 105,141.78516 c -3.83005,0 -6.94532,3.00512 -6.94531,6.71484 -10e-6,3.70972 3.11526,6.71484 6.94531,6.71484 3.83005,0 6.94531,-3.00512 6.94531,-6.71484 0,-3.70972 -3.11526,-6.71484 -6.94531,-6.71484 z m 0,0.36523 c 3.63951,0 6.58008,2.84411 6.58008,6.34961 0,3.5055 -2.94057,6.34961 -6.58008,6.34961 -3.63951,0 -6.58008,-2.84411 -6.58008,-6.34961 0,-3.5055 2.94057,-6.34961 6.58008,-6.34961 z"
         style="color:#000000;font-style:normal;font-variant:normal;font-weight:normal;font-stretch:normal;font-size:medium;line-height:normal;font-family:sans-serif;font-variant-ligatures:normal;font-variant-position:normal;font-variant-caps:normal;font-variant-numeric:normal;font-variant-alternates:normal;font-variant-east-asian:normal;font-feature-settings:normal;font-variation-settings:normal;text-indent:0;text-align:start;text-decoration:none;text-decoration-line:none;text-decoration-style:solid;text-decoration-color:#000000;letter-spacing:normal;word-spacing:normal;text-transform:none;writing-mode:lr-tb;direction:ltr;text-orientation:mixed;dominant-baseline:auto;baseline-shift:baseline;text-anchor:start;white-space:normal;shape-padding:0;shape-margin:0;inline-size:0;clip-rule:nonzero;display:inline;overflow:visible;visibility:visible;opacity:1;isolation:auto;mix-blend-mode:normal;color-interpolation:sRGB;color-interpolation-filters:linearRGB;solid-color:#000000;solid-opacity:1;vector-effect:none;fill:#000000;fill-opacity:1;fill-rule:nonzero;stroke:none;stroke-width:0.365001;stroke-linecap:square;stroke-linejoin:miter;stroke-miterlimit:4;stroke-dasharray:none;stroke-dashoffset:0;stroke-opacity:1;paint-order:markers stroke fill;color-rendering:auto;image-rendering:auto;shape-rendering:auto;text-rendering:auto;enable-background:accumulate;stop-color:#000000;stop-opacity:1" />
      <g
         style="font-style:normal;font-variant:normal;font-weight:bold;font-stretch:normal;font-size:4.23333px;line-height:1.25;font-family:Arial;-inkscape-font-specification:'Arial, Bold';font-variant-ligatures:normal;font-variant-caps:normal;font-variant-numeric:normal;font-feature-settings:normal;text-align:start;letter-spacing:0px;word-spacing:0px;writing-mode:lr-tb;text-anchor:start;fill:#000000;fill-opacity:1;stroke:none;stroke-width:0.264583"
         id="text852"
         aria-label="début">
        <path
           id="path848"
           style="stroke-width:0.264583"
           d="m 101.51365,149.87077 h -0.5395 v -0.32246 q -0.13436,0.1881 -0.31833,0.28112 -0.1819,0.0909 -0.36793,0.0909 -0.378276,0 -0.64906,-0.30385 -0.268718,-0.30593 -0.268718,-0.85163 0,-0.55811 0.262517,-0.84749 0.262516,-0.29146 0.663521,-0.29146 0.36794,0 0.63666,0.30593 v -1.09141 h 0.58084 z m -1.550293,-1.14515 q 0,0.3514 0.09715,0.5085 0.14056,0.22738 0.39274,0.22738 0.2005,0 0.34106,-0.1695 0.14056,-0.17157 0.14056,-0.51056 0,-0.37828 -0.13642,-0.54364 -0.13643,-0.16743 -0.34933,-0.16743 -0.20671,0 -0.34727,0.16536 -0.138493,0.1633 -0.138493,0.48989 z" />
        <path
           id="path850"
           style="stroke-width:0.264583"
           d="m 103.35953,149.17211 0.57878,0.0971 q -0.11163,0.31833 -0.35347,0.48576 -0.23978,0.16536 -0.60151,0.16536 -0.57258,0 -0.8475,-0.37413 -0.21704,-0.29973 -0.21704,-0.75655 0,-0.5457 0.28526,-0.85369 0.28525,-0.31006 0.7214,-0.31006 0.48989,0 0.77308,0.32453 0.28318,0.32246 0.27078,0.99012 h -1.45521 q 0.006,0.25838 0.14056,0.40307 0.13436,0.14263 0.33487,0.14263 0.13642,0 0.22944,-0.0744 0.093,-0.0744 0.14056,-0.23978 z m 0.0331,-0.58705 q -0.006,-0.25218 -0.13022,-0.3824 -0.12403,-0.13229 -0.30179,-0.13229 -0.19017,0 -0.31419,0.13849 -0.12403,0.13849 -0.12196,0.3762 z m -0.74207,-1.17822 0.28525,-0.61805 h 0.65113 l -0.56844,0.61805 z" />
        <path
           id="path852"
           style="stroke-width:0.264583"
           d="m 104.41993,149.87077 v -3.0303 h 0.58084 v 1.09141 q 0.26872,-0.30593 0.63665,-0.30593 0.40101,0 0.66353,0.29146 0.26252,0.28938 0.26252,0.83302 0,0.56224 -0.26872,0.8661 -0.26665,0.30385 -0.64906,0.30385 -0.1881,0 -0.37207,-0.093 -0.1819,-0.0951 -0.31419,-0.27906 v 0.32246 z m 0.57671,-1.14515 q 0,0.34107 0.10748,0.50437 0.1509,0.23151 0.40101,0.23151 0.19224,0 0.3266,-0.1633 0.13642,-0.16537 0.13642,-0.51883 0,-0.37621 -0.13642,-0.54157 -0.13643,-0.16743 -0.34933,-0.16743 -0.20878,0 -0.34727,0.1633 -0.13849,0.16123 -0.13849,0.49195 z" />
        <path
           id="path854"
           style="stroke-width:0.264583"
           d="m 108.47756,149.87077 v -0.32866 q -0.11989,0.1757 -0.31626,0.27699 -0.1943,0.10128 -0.41134,0.10128 -0.22118,0 -0.39688,-0.0971 -0.1757,-0.0971 -0.25425,-0.27285 -0.0785,-0.1757 -0.0785,-0.48576 v -1.38906 h 0.58084 v 1.00872 q 0,0.46302 0.031,0.56844 0.0331,0.10336 0.11783,0.16537 0.0847,0.0599 0.21497,0.0599 0.14883,0 0.26665,-0.0806 0.11782,-0.0827 0.16123,-0.20257 0.0434,-0.12196 0.0434,-0.59325 v -0.92604 h 0.58084 v 2.19521 z" />
        <path
           id="path856"
           style="stroke-width:0.264583"
           d="m 110.6273,147.67556 v 0.46302 h -0.39688 v 0.8847 q 0,0.26872 0.0103,0.31419 0.0124,0.0434 0.0517,0.0724 0.0414,0.0289 0.0992,0.0289 0.0806,0 0.23358,-0.0558 l 0.0496,0.45062 q -0.20257,0.0868 -0.45889,0.0868 -0.15709,0 -0.28318,-0.0517 -0.12609,-0.0537 -0.18604,-0.13643 -0.0579,-0.0848 -0.0806,-0.22738 -0.0186,-0.10128 -0.0186,-0.40927 v -0.95705 h -0.26665 v -0.46302 h 0.26665 v -0.43615 l 0.58291,-0.339 v 0.77515 z" />
      </g>
    </g>
  </g>
</svg>
