<?xml version="1.0" encoding="UTF-8" standalone="no"?>
<svg
   xmlns:dc="http://purl.org/dc/elements/1.1/"
   xmlns:cc="http://creativecommons.org/ns#"
   xmlns:rdf="http://www.w3.org/1999/02/22-rdf-syntax-ns#"
   xmlns:svg="http://www.w3.org/2000/svg"
   xmlns="http://www.w3.org/2000/svg"
   xmlns:sodipodi="http://sodipodi.sourceforge.net/DTD/sodipodi-0.dtd"
   xmlns:inkscape="http://www.inkscape.org/namespaces/inkscape"
   width="17.902786mm"
   height="17.329845mm"
   viewBox="0 0 17.902786 17.329845"
   version="1.1"
   id="svg1660"
   inkscape:version="1.0 (4035a4fb49, 2020-05-01)"
   sodipodi:docname="2020-CH-01c_taskbody3-fra-compatible.svg">
  <defs
     id="defs1654" />
  <sodipodi:namedview
     id="base"
     pagecolor="#ffffff"
     bordercolor="#666666"
     borderopacity="1.0"
     inkscape:pageopacity="0.0"
     inkscape:pageshadow="2"
     inkscape:zoom="1.979899"
     inkscape:cx="70.710678"
     inkscape:cy="90.835781"
     inkscape:document-units="mm"
     inkscape:current-layer="text852-9-5"
     inkscape:document-rotation="0"
     showgrid="false"
     fit-margin-top="0"
     fit-margin-left="0"
     fit-margin-right="0"
     fit-margin-bottom="0"
     inkscape:window-width="1024"
     inkscape:window-height="1257"
     inkscape:window-x="1672"
     inkscape:window-y="-8"
     inkscape:window-maximized="1" />
  <metadata
     id="metadata1657">
    <rdf:RDF>
      <cc:Work
         rdf:about="">
        <dc:format>image/svg+xml</dc:format>
        <dc:type
           rdf:resource="http://purl.org/dc/dcmitype/StillImage" />
        <dc:title />
      </cc:Work>
    </rdf:RDF>
  </metadata>
  <g
     inkscape:label="Ebene 1"
     inkscape:groupmode="layer"
     id="layer1"
     transform="translate(-36.366021,-149.94603)">
    <g
       id="g882"
       transform="translate(-137.21872,9.9478677)">
      <path
         style="color:#000000;font-style:normal;font-variant:normal;font-weight:normal;font-stretch:normal;font-size:medium;line-height:normal;font-family:sans-serif;font-variant-ligatures:normal;font-variant-position:normal;font-variant-caps:normal;font-variant-numeric:normal;font-variant-alternates:normal;font-variant-east-asian:normal;font-feature-settings:normal;font-variation-settings:normal;text-indent:0;text-align:start;text-decoration:none;text-decoration-line:none;text-decoration-style:solid;text-decoration-color:#000000;letter-spacing:normal;word-spacing:normal;text-transform:none;writing-mode:lr-tb;direction:ltr;text-orientation:mixed;dominant-baseline:auto;baseline-shift:baseline;text-anchor:start;white-space:normal;shape-padding:0;shape-margin:0;inline-size:0;clip-rule:nonzero;display:inline;overflow:visible;visibility:visible;opacity:1;isolation:auto;mix-blend-mode:normal;color-interpolation:sRGB;color-interpolation-filters:linearRGB;solid-color:#000000;solid-opacity:1;vector-effect:none;fill:#000000;fill-opacity:1;fill-rule:nonzero;stroke:none;stroke-width:0.865;stroke-linecap:square;stroke-linejoin:miter;stroke-miterlimit:4;stroke-dasharray:none;stroke-dashoffset:0;stroke-opacity:1;paint-order:markers stroke fill;color-rendering:auto;image-rendering:auto;shape-rendering:auto;text-rendering:auto;enable-background:accumulate;stop-color:#000000;stop-opacity:1"
         d="m 182.53516,139.99805 c -4.93073,0 -8.95118,3.8775 -8.95118,8.66601 0,4.78852 4.02044,8.66407 8.95118,8.66406 4.93074,0 8.95312,-3.87553 8.95312,-8.66406 0,-4.78851 -4.02238,-8.66601 -8.95312,-8.66601 z m 0,0.86523 c 4.47898,0 8.08789,3.49602 8.08789,7.80078 0,4.30478 -3.60891,7.79883 -8.08789,7.79883 -4.47898,0 -8.08594,-3.49406 -8.08594,-7.79883 0,-4.30476 3.60697,-7.80078 8.08594,-7.80078 z"
         id="path1210" />
      <g
         id="g1212"
         style="opacity:1">
        <path
           style="color:#000000;font-style:normal;font-variant:normal;font-weight:normal;font-stretch:normal;font-size:medium;line-height:normal;font-family:sans-serif;font-variant-ligatures:normal;font-variant-position:normal;font-variant-caps:normal;font-variant-numeric:normal;font-variant-alternates:normal;font-variant-east-asian:normal;font-feature-settings:normal;font-variation-settings:normal;text-indent:0;text-align:start;text-decoration:none;text-decoration-line:none;text-decoration-style:solid;text-decoration-color:#000000;letter-spacing:normal;word-spacing:normal;text-transform:none;writing-mode:lr-tb;direction:ltr;text-orientation:mixed;dominant-baseline:auto;baseline-shift:baseline;text-anchor:start;white-space:normal;shape-padding:0;shape-margin:0;inline-size:0;clip-rule:nonzero;display:inline;overflow:visible;visibility:visible;isolation:auto;mix-blend-mode:normal;color-interpolation:sRGB;color-interpolation-filters:linearRGB;solid-color:#000000;solid-opacity:1;vector-effect:none;fill:#ffd83e;fill-opacity:1;fill-rule:nonzero;stroke:none;stroke-width:0.365001;stroke-linecap:square;stroke-linejoin:miter;stroke-miterlimit:4;stroke-dasharray:none;stroke-dashoffset:0;stroke-opacity:1;paint-order:markers stroke fill;color-rendering:auto;image-rendering:auto;shape-rendering:auto;text-rendering:auto;enable-background:accumulate;stop-color:#000000;stop-opacity:1"
           d="m 182.53593,155.19544 c -3.73478,0 -6.76241,-2.92455 -6.76241,-6.53216 0,-3.60761 3.02764,-6.53215 6.76241,-6.53215 3.73478,0 6.76242,2.92454 6.76242,6.53215 0,3.60761 -3.02764,6.53216 -6.76242,6.53216 z"
           id="path1216" />
        <path
           style="color:#000000;font-style:normal;font-variant:normal;font-weight:normal;font-stretch:normal;font-size:medium;line-height:normal;font-family:sans-serif;font-variant-ligatures:normal;font-variant-position:normal;font-variant-caps:normal;font-variant-numeric:normal;font-variant-alternates:normal;font-variant-east-asian:normal;font-feature-settings:normal;font-variation-settings:normal;text-indent:0;text-align:start;text-decoration:none;text-decoration-line:none;text-decoration-style:solid;text-decoration-color:#000000;letter-spacing:normal;word-spacing:normal;text-transform:none;writing-mode:lr-tb;direction:ltr;text-orientation:mixed;dominant-baseline:auto;baseline-shift:baseline;text-anchor:start;white-space:normal;shape-padding:0;shape-margin:0;inline-size:0;clip-rule:nonzero;display:inline;overflow:visible;visibility:visible;isolation:auto;mix-blend-mode:normal;color-interpolation:sRGB;color-interpolation-filters:linearRGB;solid-color:#000000;solid-opacity:1;vector-effect:none;fill:#000000;fill-opacity:1;fill-rule:nonzero;stroke:none;stroke-width:0.365001;stroke-linecap:square;stroke-linejoin:miter;stroke-miterlimit:4;stroke-dasharray:none;stroke-dashoffset:0;stroke-opacity:1;paint-order:markers stroke fill;color-rendering:auto;image-rendering:auto;shape-rendering:auto;text-rendering:auto;enable-background:accumulate;stop-color:#000000;stop-opacity:1"
           d="m 182.53516,141.94922 c -3.83005,0 -6.94336,3.00513 -6.94336,6.71484 0,3.70972 3.1133,6.71485 6.94336,6.71485 3.83005,0 6.94531,-3.00513 6.94531,-6.71485 0,-3.70971 -3.11526,-6.71484 -6.94531,-6.71484 z m 0,0.36523 c 3.6395,0 6.58007,2.84411 6.58007,6.34961 0,3.50551 -2.94057,6.34961 -6.58007,6.34961 -3.63951,0 -6.58008,-2.8441 -6.58008,-6.34961 0,-3.5055 2.94058,-6.34961 6.58008,-6.34961 z"
           id="path1214" />
      </g>
      <g
         aria-label="Ende"
         id="text852-9-5"
         style="font-style:normal;font-variant:normal;font-weight:bold;font-stretch:normal;font-size:4.23333px;line-height:1.25;font-family:Arial;-inkscape-font-specification:'Arial, Bold';font-variant-ligatures:normal;font-variant-caps:normal;font-variant-numeric:normal;font-feature-settings:normal;text-align:start;letter-spacing:0px;word-spacing:0px;writing-mode:lr-tb;text-anchor:start;fill:#000000;fill-opacity:1;stroke:none;stroke-width:0.264583">
        <g
           style="font-style:normal;font-variant:normal;font-weight:bold;font-stretch:normal;font-size:4.23333px;line-height:1.25;font-family:Arial;-inkscape-font-specification:'Arial, Bold';font-variant-ligatures:normal;font-variant-caps:normal;font-variant-numeric:normal;font-feature-settings:normal;text-align:start;letter-spacing:0px;word-spacing:0px;writing-mode:lr-tb;text-anchor:start;fill:#000000;fill-opacity:1;stroke:none;stroke-width:0.264583"
           id="text852-9"
           aria-label="fin">
          <path
             id="path838"
             style="stroke-width:0.264583"
             d="m 180.22986,147.83865 h 0.32246 v -0.16537 q 0,-0.27698 0.0579,-0.41341 0.0599,-0.13642 0.21704,-0.22117 0.15916,-0.0868 0.40101,-0.0868 0.24805,0 0.48576,0.0744 l -0.0786,0.40515 q -0.13849,-0.0331 -0.26665,-0.0331 -0.12609,0 -0.1819,0.06 -0.0538,0.0579 -0.0538,0.22531 v 0.15503 h 0.43409 v 0.45682 h -0.43409 v 1.73839 h -0.58084 v -1.73839 h -0.32246 z" />
          <path
             id="path840"
             style="stroke-width:0.264583"
             d="m 181.89798,147.54099 v -0.53743 h 0.58084 v 0.53743 z m 0,2.49287 v -2.19521 h 0.58084 v 2.19521 z" />
          <path
             id="path842"
             style="stroke-width:0.264583"
             d="M 185.06884,150.03386 H 184.488 v -1.12034 q 0,-0.35554 -0.0372,-0.45889 -0.0372,-0.10542 -0.12196,-0.1633 -0.0827,-0.0579 -0.2005,-0.0579 -0.1509,0 -0.27079,0.0827 -0.11989,0.0827 -0.16536,0.2191 -0.0434,0.13643 -0.0434,0.50437 v 0.99425 h -0.58084 v -2.19521 h 0.5395 v 0.32246 q 0.28732,-0.37207 0.72347,-0.37207 0.19224,0 0.3514,0.0703 0.15916,0.0682 0.23978,0.1757 0.0827,0.10748 0.11369,0.24391 0.0331,0.13642 0.0331,0.39067 z" />
        </g>
      </g>
    </g>
  </g>
</svg>
