<?xml version="1.0" encoding="UTF-8" standalone="no"?>
<svg
   xmlns:dc="http://purl.org/dc/elements/1.1/"
   xmlns:cc="http://creativecommons.org/ns#"
   xmlns:rdf="http://www.w3.org/1999/02/22-rdf-syntax-ns#"
   xmlns:svg="http://www.w3.org/2000/svg"
   xmlns="http://www.w3.org/2000/svg"
   xmlns:sodipodi="http://sodipodi.sourceforge.net/DTD/sodipodi-0.dtd"
   xmlns:inkscape="http://www.inkscape.org/namespaces/inkscape"
   width="230mm"
   height="30mm"
   viewBox="0 0 230 30"
   version="1.1"
   id="svg8"
   inkscape:version="1.0 (4035a4fb49, 2020-05-01)"
   sodipodi:docname="2020-CH-01c_taskbody5-ita.svg">
  <defs
     id="defs2" />
  <sodipodi:namedview
     inkscape:window-maximized="1"
     inkscape:window-y="222"
     inkscape:window-x="-8"
     inkscape:window-height="987"
     inkscape:window-width="1680"
     fit-margin-bottom="0"
     fit-margin-right="0"
     fit-margin-left="0"
     fit-margin-top="0"
     inkscape:snap-global="false"
     id="base"
     pagecolor="#ffffff"
     bordercolor="#666666"
     borderopacity="1.0"
     inkscape:pageopacity="0.0"
     inkscape:pageshadow="2"
     inkscape:zoom="2.8"
     inkscape:cx="185.08114"
     inkscape:cy="121.3329"
     inkscape:document-units="mm"
     inkscape:current-layer="g882"
     inkscape:document-rotation="0"
     showgrid="false" />
  <metadata
     id="metadata5">
    <rdf:RDF>
      <cc:Work
         rdf:about="">
        <dc:format>image/svg+xml</dc:format>
        <dc:type
           rdf:resource="http://purl.org/dc/dcmitype/StillImage" />
        <dc:title></dc:title>
      </cc:Work>
    </rdf:RDF>
  </metadata>
  <g
     transform="translate(-3.5813508,-118.15191)"
     inkscape:label="Ebene 1"
     inkscape:groupmode="layer"
     id="layer1">
    <g
       id="g888"
       transform="translate(115.69936,-14.534436)">
      <ellipse
         ry="8.2324228"
         rx="8.5188932"
         cy="148.5"
         cx="105"
         id="path833"
         style="fill:none;stroke:#000000;stroke-width:0.865;stroke-linecap:square;paint-order:markers stroke fill;stop-color:#000000" />
      <ellipse
         style="fill:#2a7fff;stroke:#000000;stroke-width:0.365;stroke-linecap:square;stroke-miterlimit:4;stroke-dasharray:none;paint-order:markers stroke fill;stop-color:#000000"
         id="path833-9"
         cx="105"
         cy="148.5"
         rx="6.7624145"
         ry="6.5321565" />
      <text
         id="text852"
         y="149.87077"
         x="99.998291"
         style="font-style:normal;font-variant:normal;font-weight:bold;font-stretch:normal;font-size:4.23333px;line-height:1.25;font-family:Arial;-inkscape-font-specification:'Arial, Bold';font-variant-ligatures:normal;font-variant-caps:normal;font-variant-numeric:normal;font-feature-settings:normal;text-align:start;letter-spacing:0px;word-spacing:0px;writing-mode:lr-tb;text-anchor:start;fill:#000000;fill-opacity:1;stroke:none;stroke-width:0.264583"
         xml:space="preserve"><tspan
           style="stroke-width:0.264583"
           y="149.87077"
           x="99.998291"
           id="tspan850"
           sodipodi:role="line">Start</tspan></text>
    </g>
    <g
       id="g882"
       transform="translate(-128.24793,-16.788625)">
      <ellipse
         style="fill:none;stroke:#000000;stroke-width:0.865;stroke-linecap:square;paint-order:markers stroke fill;stop-color:#000000"
         id="path833-5"
         cx="182.53593"
         cy="148.66328"
         rx="8.5188932"
         ry="8.2324228" />
      <ellipse
         ry="6.5321565"
         rx="6.7624149"
         cy="148.66328"
         cx="182.53593"
         id="path833-9-7"
         style="fill:#ffd83e;fill-opacity:1;stroke:#000000;stroke-width:0.365001;stroke-linecap:square;stroke-miterlimit:4;stroke-dasharray:none;paint-order:markers stroke fill;stop-color:#000000" />
      <text
         xml:space="preserve"
         style="font-style:normal;font-variant:normal;font-weight:bold;font-stretch:normal;font-size:4.23333px;line-height:1.25;font-family:Arial;-inkscape-font-specification:'Arial, Bold';font-variant-ligatures:normal;font-variant-caps:normal;font-variant-numeric:normal;font-feature-settings:normal;text-align:start;letter-spacing:0px;word-spacing:0px;writing-mode:lr-tb;text-anchor:start;fill:#000000;fill-opacity:1;stroke:none;stroke-width:0.264583"
         x="178.1012"
         y="150.03406"
         id="text852-9"><tspan
           sodipodi:role="line"
           id="tspan850-9"
           x="178.1012"
           y="150.03406"
           style="stroke-width:0.264583">Fine</tspan></text>
    </g>
    <ellipse
       style="fill:none;stroke:#000000;stroke-width:0.365;stroke-linecap:square;stroke-miterlimit:4;stroke-dasharray:none;paint-order:markers stroke fill;stop-color:#000000"
       id="path833-9-78"
       cx="164.25722"
       cy="130.88872"
       rx="6.7624145"
       ry="6.5321565" />
    <ellipse
       ry="6.5321565"
       rx="6.7624149"
       cy="131.54991"
       cx="112.202"
       id="path833-9-78-1"
       style="fill:none;stroke:#000000;stroke-width:0.365001;stroke-linecap:square;stroke-miterlimit:4;stroke-dasharray:none;paint-order:markers stroke fill;stop-color:#000000" />
    <path
       style="font-variation-settings:normal;opacity:1;vector-effect:none;fill:none;fill-opacity:1;stroke:#000000;stroke-width:0.365001;stroke-linecap:square;stroke-linejoin:miter;stroke-miterlimit:4;stroke-dasharray:none;stroke-dashoffset:0;stroke-opacity:1;paint-order:markers stroke fill;stop-color:#000000;stop-opacity:1"
       d="m 216.63304,141.47467 c -16.37039,4.69757 -157.44586,8.90072 -156.640685,-3.45183"
       id="path968"
       sodipodi:nodetypes="cc" />
    <path
       sodipodi:nodetypes="scccs"
       id="path859"
       d="m 215.82856,141.10811 c 1.84177,0.37166 -1.88227,2.33931 -2.15484,2.42936 -0.1595,0.0416 -0.29326,-0.74232 -0.38709,-1.53674 -0.27,-1.95126 -0.29708,-1.61266 0.68365,-1.35038 0.98073,0.26224 1.43429,0.3722 1.85828,0.45776 z"
       style="fill:#000000;stroke:#000000;stroke-width:0.264583px;stroke-linecap:butt;stroke-linejoin:miter;stroke-opacity:1" />
    <text
       id="text877"
       y="136.56763"
       x="124.42635"
       style="font-style:normal;font-variant:normal;font-weight:normal;font-stretch:normal;font-size:6.35px;line-height:1.25;font-family:Arial;-inkscape-font-specification:'Arial, Normal';font-variant-ligatures:normal;font-variant-caps:normal;font-variant-numeric:normal;font-variant-east-asian:normal;text-align:start;letter-spacing:0px;word-spacing:0px;writing-mode:lr-tb;text-anchor:start;fill:#000000;fill-opacity:1;stroke:none;stroke-width:0.264583"
       xml:space="preserve"><tspan
         style="font-style:normal;font-variant:normal;font-weight:normal;font-stretch:normal;font-size:6.35px;font-family:Arial;-inkscape-font-specification:'Arial, Normal';font-variant-ligatures:normal;font-variant-caps:normal;font-variant-numeric:normal;font-variant-east-asian:normal;stroke-width:0.264583"
         y="136.56763"
         x="124.42635"
         id="tspan875"
         sodipodi:role="line">Dup-pi</tspan></text>
    <path
       sodipodi:nodetypes="cc"
       id="path879"
       d="m 158.35814,127.74349 c -12.65539,-1.33029 -25.89693,-2.91603 -39.02991,0.46026"
       style="font-variation-settings:normal;opacity:1;vector-effect:none;fill:none;fill-opacity:1;stroke:#000000;stroke-width:0.365001;stroke-linecap:square;stroke-linejoin:miter;stroke-miterlimit:4;stroke-dasharray:none;stroke-dashoffset:0;stroke-opacity:1;paint-order:markers stroke fill;stop-color:#000000;stop-opacity:1" />
    <path
       inkscape:transform-center-y="-1.2570366"
       inkscape:transform-center-x="0.42700329"
       style="fill:#000000;stroke:#000000;stroke-width:0.264583px;stroke-linecap:butt;stroke-linejoin:miter;stroke-opacity:1"
       d="m 121.74548,128.4398 c 0.89503,1.41218 -2.98401,0.20931 -3.22687,0.0885 -0.13373,-0.0774 0.37739,-0.64004 0.92195,-1.18328 1.31227,-1.35977 1.03727,-1.17143 1.46489,-0.38025 0.42761,0.79109 0.63402,1.15004 0.84005,1.47514 z"
       id="path859-8"
       sodipodi:nodetypes="scccs" />
    <text
       xml:space="preserve"
       style="font-style:normal;font-variant:normal;font-weight:normal;font-stretch:normal;font-size:6.35px;line-height:1.25;font-family:Arial;-inkscape-font-specification:'Arial, Normal';font-variant-ligatures:normal;font-variant-caps:normal;font-variant-numeric:normal;font-variant-east-asian:normal;text-align:start;letter-spacing:0px;word-spacing:0px;writing-mode:lr-tb;text-anchor:start;fill:#000000;fill-opacity:1;stroke:none;stroke-width:0.264583"
       x="129.91046"
       y="124.52116"
       id="text877-5"><tspan
         sodipodi:role="line"
         id="tspan875-7"
         x="129.91046"
         y="124.52116"
         style="font-style:normal;font-variant:normal;font-weight:normal;font-stretch:normal;font-size:6.35px;font-family:Arial;-inkscape-font-specification:'Arial, Normal';font-variant-ligatures:normal;font-variant-caps:normal;font-variant-numeric:normal;font-variant-east-asian:normal;stroke-width:0.264583">Dup-pi</tspan></text>
    <path
       style="font-variation-settings:normal;opacity:1;vector-effect:none;fill:none;fill-opacity:1;stroke:#000000;stroke-width:0.365001;stroke-linecap:square;stroke-linejoin:miter;stroke-miterlimit:4;stroke-dasharray:none;stroke-dashoffset:0;stroke-opacity:1;paint-order:markers stroke fill;stop-color:#000000;stop-opacity:1"
       d="m 211.70918,133.10866 c -12.46927,0.23561 -26.2261,2.38108 -39.02991,-0.64861"
       id="path879-0"
       sodipodi:nodetypes="cc" />
    <path
       sodipodi:nodetypes="scccs"
       id="path859-8-1"
       d="m 173.70527,133.70909 c -0.23531,1.65528 -2.40633,-1.777 -2.51271,-2.02652 -0.0515,-0.14571 0.70245,-0.24213 1.4693,-0.30212 1.88083,-0.18315 1.54937,-0.21828 1.36137,0.66119 -0.18796,0.87941 -0.26382,1.28646 -0.318,1.66752 z"
       style="fill:#000000;stroke:#000000;stroke-width:0.264583px;stroke-linecap:butt;stroke-linejoin:miter;stroke-opacity:1"
       inkscape:transform-center-x="-0.19344881"
       inkscape:transform-center-y="-0.67815814" />
    <text
       id="text877-5-9"
       y="131.88139"
       x="182.67621"
       style="font-style:normal;font-variant:normal;font-weight:normal;font-stretch:normal;font-size:6.35px;line-height:1.25;font-family:Arial;-inkscape-font-specification:'Arial, Normal';font-variant-ligatures:normal;font-variant-caps:normal;font-variant-numeric:normal;font-variant-east-asian:normal;text-align:start;letter-spacing:0px;word-spacing:0px;writing-mode:lr-tb;text-anchor:start;fill:#000000;fill-opacity:1;stroke:none;stroke-width:0.264583"
       xml:space="preserve"><tspan
         style="font-style:normal;font-variant:normal;font-weight:normal;font-stretch:normal;font-size:6.35px;font-family:Arial;-inkscape-font-specification:'Arial, Normal';font-variant-ligatures:normal;font-variant-caps:normal;font-variant-numeric:normal;font-variant-east-asian:normal;stroke-width:0.264583"
         y="131.88139"
         x="182.67621"
         id="tspan875-7-8"
         sodipodi:role="line">Jup-pi</tspan></text>
    <path
       style="font-variation-settings:normal;opacity:1;vector-effect:none;fill:none;fill-opacity:1;stroke:#000000;stroke-width:0.365001;stroke-linecap:square;stroke-linejoin:miter;stroke-miterlimit:4;stroke-dasharray:none;stroke-dashoffset:0;stroke-opacity:1;paint-order:markers stroke fill;stop-color:#000000;stop-opacity:1"
       d="m 105.3154,130.94055 c -11.688798,0.14149 -30.130375,-0.0994 -42.637095,1.79365"
       id="path879-2"
       sodipodi:nodetypes="cc" />
    <path
       sodipodi:nodetypes="ccccc"
       id="path859-8-9"
       d="m 63.397196,132.70231 c -0.11253,-0.10593 0.513501,-0.53702 1.16767,-0.94164 1.587971,-1.0244 1.277239,-0.90379 1.513009,-0.0359 0.235781,0.86781 0.414405,1.51169 0.414405,1.8716 0,0.35992 -2.977925,-0.39583 -3.095084,-0.89406 z"
       style="fill:#000000;stroke:#000000;stroke-width:0.264583px;stroke-linecap:butt;stroke-linejoin:miter;stroke-opacity:1"
       inkscape:transform-center-x="0.33216517"
       inkscape:transform-center-y="-1.1419937" />
    <text
       transform="translate(57.440432,-8.2168075)"
       id="text877-5-6"
       y="137.74823"
       x="23.080969"
       style="font-style:normal;font-variant:normal;font-weight:normal;font-stretch:normal;font-size:6.35px;line-height:1.25;font-family:Arial;-inkscape-font-specification:'Arial, Normal';font-variant-ligatures:normal;font-variant-position:normal;font-variant-caps:normal;font-variant-numeric:normal;font-variant-alternates:normal;font-variant-east-asian:normal;font-feature-settings:normal;font-variation-settings:normal;text-indent:0;text-align:start;text-decoration:none;text-decoration-line:none;text-decoration-style:solid;text-decoration-color:#000000;letter-spacing:0px;word-spacing:0px;text-transform:none;writing-mode:lr-tb;direction:ltr;text-orientation:mixed;dominant-baseline:auto;baseline-shift:baseline;text-anchor:start;white-space:normal;shape-padding:0;shape-margin:0;inline-size:0;opacity:1;vector-effect:none;fill:#000000;fill-opacity:1;stroke:none;stroke-width:0.264583;stroke-linecap:butt;stroke-linejoin:miter;stroke-miterlimit:4;stroke-dasharray:none;stroke-dashoffset:0;stroke-opacity:1;stop-color:#000000;stop-opacity:1"
       xml:space="preserve"><tspan
         style="font-style:normal;font-variant:normal;font-weight:normal;font-stretch:normal;font-size:6.35px;line-height:1.25;font-family:Arial;-inkscape-font-specification:'Arial, Normal';font-variant-ligatures:normal;font-variant-position:normal;font-variant-caps:normal;font-variant-numeric:normal;font-variant-alternates:normal;font-variant-east-asian:normal;font-feature-settings:normal;font-variation-settings:normal;text-indent:0;text-align:start;text-decoration:none;text-decoration-line:none;text-decoration-style:solid;text-decoration-color:#000000;letter-spacing:0px;word-spacing:0px;text-transform:none;writing-mode:lr-tb;direction:ltr;text-orientation:mixed;dominant-baseline:auto;baseline-shift:baseline;text-anchor:start;white-space:normal;shape-padding:0;shape-margin:0;inline-size:0;vector-effect:none;fill:#000000;fill-opacity:1;stroke:none;stroke-width:0.264583;stroke-linecap:butt;stroke-linejoin:miter;stroke-miterlimit:4;stroke-dasharray:none;stroke-dashoffset:0;stroke-opacity:1;stop-color:#000000;stop-opacity:1"
         y="137.74823"
         x="23.080969"
         id="tspan875-7-9"
         sodipodi:role="line">Duh</tspan></text>
    <path
       sodipodi:nodetypes="cc"
       id="path879-2-2"
       d="m 116.57692,136.65181 c 12.29236,3.02816 27.89003,2.39589 41.29909,-0.9778"
       style="font-variation-settings:normal;opacity:1;vector-effect:none;fill:none;fill-opacity:1;stroke:#000000;stroke-width:0.365001;stroke-linecap:square;stroke-linejoin:miter;stroke-miterlimit:4;stroke-dasharray:none;stroke-dashoffset:0;stroke-opacity:1;paint-order:markers stroke fill;stop-color:#000000;stop-opacity:1" />
    <path
       inkscape:transform-center-y="1.1419911"
       inkscape:transform-center-x="-0.33216511"
       style="fill:#000000;stroke:#000000;stroke-width:0.264583px;stroke-linecap:butt;stroke-linejoin:miter;stroke-opacity:1"
       d="m 159.16178,135.49947 c 0.11253,0.10593 -0.5135,0.53702 -1.16767,0.94164 -1.58797,1.0244 -1.27724,0.90379 -1.51301,0.0359 -0.23578,-0.86781 -0.41441,-1.51169 -0.41441,-1.8716 0,-0.35992 2.97793,0.39583 3.09509,0.89406 z"
       id="path859-8-9-3"
       sodipodi:nodetypes="ccccc" />
    <text
       xml:space="preserve"
       style="font-style:normal;font-variant:normal;font-weight:normal;font-stretch:normal;font-size:6.35px;line-height:1.25;font-family:Arial;-inkscape-font-specification:'Arial, Normal';font-variant-ligatures:normal;font-variant-position:normal;font-variant-caps:normal;font-variant-numeric:normal;font-variant-alternates:normal;font-variant-east-asian:normal;font-feature-settings:normal;font-variation-settings:normal;text-indent:0;text-align:start;text-decoration:none;text-decoration-line:none;text-decoration-style:solid;text-decoration-color:#000000;letter-spacing:0px;word-spacing:0px;text-transform:none;writing-mode:lr-tb;direction:ltr;text-orientation:mixed;dominant-baseline:auto;baseline-shift:baseline;text-anchor:start;white-space:normal;shape-padding:0;shape-margin:0;inline-size:0;opacity:1;vector-effect:none;fill:#000000;fill-opacity:1;stroke:none;stroke-width:0.264583;stroke-linecap:butt;stroke-linejoin:miter;stroke-miterlimit:4;stroke-dasharray:none;stroke-dashoffset:0;stroke-opacity:1;stop-color:#000000;stop-opacity:1"
       x="23.080969"
       y="137.74823"
       id="text877-5-6-5"
       transform="translate(63.716723,6.2574416)"><tspan
         sodipodi:role="line"
         id="tspan875-7-9-9"
         x="23.080969"
         y="137.74823"
         style="font-style:normal;font-variant:normal;font-weight:normal;font-stretch:normal;font-size:6.35px;line-height:1.25;font-family:Arial;-inkscape-font-specification:'Arial, Normal';font-variant-ligatures:normal;font-variant-position:normal;font-variant-caps:normal;font-variant-numeric:normal;font-variant-alternates:normal;font-variant-east-asian:normal;font-feature-settings:normal;font-variation-settings:normal;text-indent:0;text-align:start;text-decoration:none;text-decoration-line:none;text-decoration-style:solid;text-decoration-color:#000000;letter-spacing:0px;word-spacing:0px;text-transform:none;writing-mode:lr-tb;direction:ltr;text-orientation:mixed;dominant-baseline:auto;baseline-shift:baseline;text-anchor:start;white-space:normal;shape-padding:0;shape-margin:0;inline-size:0;vector-effect:none;fill:#000000;fill-opacity:1;stroke:none;stroke-width:0.264583;stroke-linecap:butt;stroke-linejoin:miter;stroke-miterlimit:4;stroke-dasharray:none;stroke-dashoffset:0;stroke-opacity:1;stop-color:#000000;stop-opacity:1">Juhu</tspan></text>
    <path
       id="rect927"
       style="fill:#e6e6e6;stroke:none;stroke-width:1;paint-order:markers stroke fill;stop-color:#000000"
       d="m 3.7399974,118.3152 v 29.2592 l 39.3443686,0.0718 V 118.48315 C 30.046651,118.38449 16.955263,118.3152 3.7399974,118.3152 Z" />
    <path
       id="rect890"
       style="fill:none;stroke:#000000;stroke-width:0.317751;stroke-linecap:square;stroke-miterlimit:4;stroke-dasharray:none;paint-order:markers stroke fill;stop-color:#000000"
       d="m 3.740113,118.31522 c 75.85168,0 147.744017,2.20004 227.555047,0 l 2.11569,29.67736 -229.670737,-0.41799 z"
       sodipodi:nodetypes="ccccc" />
    <text
       id="text900"
       y="129.12505"
       x="17.030642"
       style="font-style:normal;font-variant:normal;font-weight:bold;font-stretch:normal;font-size:10.4888px;line-height:1.25;font-family:Arial;-inkscape-font-specification:'Arial, Bold';font-variant-ligatures:normal;font-variant-caps:normal;font-variant-numeric:normal;font-feature-settings:normal;text-align:start;letter-spacing:0px;word-spacing:0px;writing-mode:lr-tb;text-anchor:start;fill:#000000;fill-opacity:1;stroke:none;stroke-width:0.264583"
       xml:space="preserve"><tspan
         style="stroke-width:0.264583"
         y="129.12505"
         x="17.030642"
         id="tspan898"
         sodipodi:role="line">ttt2</tspan></text>
    <g
       style="stroke-width:0.691563"
       id="g1132"
       transform="matrix(1.3520377,0.51274051,-0.51274051,1.3520377,-98.753015,11.918418)">
      <path
         style="text-decoration:none;text-decoration-line:none"
         d="m 184.365,0 c -1.532,0.0527112 -3.106,1.14907 -4.588,2.08984 -0.503,0.31955 -0.991,0.61614 -1.461,0.86328 -0.04,-0.15231 -0.095,-0.30479 -0.132,-0.45703 -0.021,-0.08845 -0.101,-0.14995 -0.192,-0.14648 -0.104,0.00742 -0.182,0.09783 -0.175,0.20194 0.001,0.01094 0.003,0.02179 0.005,0.03243 0.045,0.1812 0.11,0.36181 0.158,0.54297 -0.203,0.0964 -0.401,0.18113 -0.593,0.24805 -0.732,0.25432 -1.347,0.27453 -1.891,-0.08789 -0.108,-0.07666 -0.257,-0.05141 -0.334,0.05641 -0.077,0.10782 -0.051,0.25737 0.056,0.33403 0.004,0.00278 0.008,0.00545 0.012,0.008 0.693,0.46145 1.504,0.41921 2.311,0.13867 0.189,-0.06585 0.38,-0.14538 0.572,-0.23438 0.006,0.02019 0.012,0.04037 0.018,0.06055 -1.021,0.37786 -2.002,0.80229 -2.856,1.36914 -0.056,-0.38643 -0.093,-0.77434 -0.103,-1.16406 -0.001,-0.10438 -0.086,-0.18824 -0.191,-0.18732 -0.008,7e-5 -0.016,6.6e-4 -0.024,0.00177 -0.098,0.01385 -0.168,0.10066 -0.162,0.19922 0.058,2.26246 0.91,4.43157 1.906,6.49996 -0.249,0.2182 -0.471,0.5804 -0.681,1.045 -0.227,0.5005 -0.425,1.109 -0.575,1.7265 -0.149,0.6176 -0.242,1.2488 -0.236,1.7949 0.008,0.5462 0.1,1.0216 0.398,1.3204 0.081,0.0799 0.193,0.1301 0.309,0.1191 0.116,-0.011 0.207,-0.0745 0.281,-0.1484 0.149,-0.148 0.264,-0.3645 0.377,-0.6426 0.034,-0.0801 0.049,-0.2194 0.08,-0.3086 0.066,0.0064 0.137,-0.0112 0.186,-0.0449 0.05,-0.0352 0.083,-0.0785 0.111,-0.125 0.112,-0.1863 0.171,-0.4666 0.221,-0.9375 0.034,-0.3359 0.039,-0.8946 0.051,-1.4336 0.05,-0.3624 0.099,-0.7197 0.131,-1.0508 0.289,0.5699 0.582,1.1403 0.859,1.6934 0.062,0.0839 0.18,0.1017 0.264,0.0397 0.065,-0.0481 0.093,-0.1325 0.068,-0.2097 -0.382,-0.7633 -0.785,-1.539 -1.176,-2.3261 -0.012,-0.1382 -0.033,-0.2632 -0.072,-0.3672 -0.034,-0.0923 -0.086,-0.1825 -0.192,-0.2364 -0.008,-0.0043 -0.018,0.0033 -0.027,0.002 -0.772,-1.60374 -1.446,-3.25012 -1.742,-4.93164 10e-4,0 10e-4,0 0.002,0 0.043,0.012 0.088,0.00854 0.129,-0.00977 0.813,-0.54225 1.767,-0.94955 2.771,-1.31836 0.609,2.00834 1.423,3.99893 2.334,5.92383 -0.012,-0.00841 -0.019,-0.02038 -0.033,-0.02734 -0.241,-0.12061 -0.453,-0.05383 -0.65,0.01367 0.02,-0.1024 -0.047,-0.20183 -0.149,-0.22209 -0.026,-0.00523 -0.054,-0.00475 -0.08,0.00138 -0.048,0.01046 -0.09,0.03918 -0.117,0.08008 -0.371,0.53654 -0.712,1.60274 -0.879,2.67184 -0.083,0.5346 -0.115,1.0653 -0.074,1.5293 0.04,0.4641 0.151,0.8655 0.414,1.1289 0.068,0.0679 0.173,0.115 0.273,0.1036 0.101,-0.0114 0.178,-0.0586 0.243,-0.1172 0.127,-0.1172 0.229,-0.2877 0.334,-0.502 0.209,-0.4285 0.407,-1.0355 0.574,-1.6758 0.166,-0.6402 0.297,-1.309 0.347,-1.8457 0.027,-0.2683 0.031,-0.5026 0.008,-0.6953 0,-0.0035 -10e-4,-0.0063 -0.002,-0.0097 0.149,0.3082 0.292,0.6217 0.444,0.9257 0.047,0.0939 0.161,0.1319 0.254,0.085 0.094,-0.0469 0.132,-0.161 0.085,-0.2549 -1.165,-2.33161 -2.229,-4.78411 -2.974,-7.24413 0.894,-0.31582 1.823,-0.60767 2.744,-0.92383 0.781,1.83423 1.47,3.81388 2.377,5.65039 -0.017,0.03561 -0.034,0.06705 -0.051,0.09766 -0.094,0.17496 -0.236,0.29453 -0.287,0.51563 -0.004,0.02003 -0.003,0.04603 -0.008,0.0664 -0.015,0.03742 -0.031,0.05111 -0.045,0.08985 -0.191,0.48936 -0.372,1.07173 -0.508,1.66013 -0.136,0.5885 -0.225,1.1816 -0.222,1.6973 0.003,0.5156 0.084,0.9633 0.369,1.248 0.074,0.0746 0.2,0.1261 0.311,0.1036 0.111,-0.0227 0.181,-0.0873 0.244,-0.1622 0.124,-0.1497 0.222,-0.3659 0.316,-0.6347 0.034,-0.1021 0.054,-0.2761 0.088,-0.3926 0.098,-0.0369 0.147,-0.1459 0.11,-0.2436 -0.008,-0.0217 -0.02,-0.0418 -0.036,-0.0591 0.113,-0.439 0.231,-0.857 0.311,-1.3653 0.069,-0.4402 0.117,-0.8679 0.15,-1.27146 0.121,0.20116 0.238,0.40536 0.367,0.59966 0.063,0.0838 0.182,0.1011 0.265,0.0385 0.077,-0.0572 0.099,-0.1625 0.052,-0.2456 -0.232,-0.3471 -0.446,-0.70885 -0.651,-1.08006 0.001,-0.04391 0.008,-0.10283 0.008,-0.14453 -0.001,-0.28165 -0.019,-0.50528 -0.074,-0.67969 -0.03,-0.08719 -0.064,-0.17426 -0.162,-0.23632 -0.034,-0.02268 -0.075,0.01045 -0.117,0.00781 -0.003,-5e-5 -0.006,-5e-5 -0.008,0 -0.031,-0.01959 -0.067,-0.02976 -0.104,-0.0293 -0.027,0.00263 -0.054,0.0113 -0.078,0.02539 -0.833,-1.73961 -1.504,-3.61647 -2.258,-5.38672 1.037,-0.36675 2.045,-0.78423 2.961,-1.32226 0.697,0.7896 1.294,1.81007 1.842,2.82226 0.569,1.05064 1.08,2.07814 1.633,2.8418 -0.073,0.00167 -0.136,0.04096 -0.207,0.06055 0.003,-0.01663 0.01,-0.02822 0.014,-0.04492 0.011,-0.0943 0.016,-0.18566 -0.022,-0.28907 -0.038,-0.1034 -0.167,-0.21289 -0.295,-0.21289 h -0.002 c -0.063,0 -0.135,0.01962 -0.191,0.06641 -0.057,0.0466 -0.083,0.10901 -0.096,0.16211 -0.023,0.10624 -0.011,0.19319 0.008,0.28125 0.034,0.16411 0.081,0.3316 0.088,0.40625 -0.25,0.67898 -0.435,1.03987 -0.561,1.40234 -0.129,0.37202 -0.193,0.75003 -0.193,1.45309 0,0.4728 0.041,0.8029 0.127,1.0411 0.043,0.119 0.102,0.2204 0.183,0.2949 0.082,0.0744 0.197,0.1173 0.303,0.1113 -0.034,0.0782 -0.057,0.1286 -0.088,0.207 -0.042,0.1073 -0.081,0.1994 -0.074,0.3243 0.003,0.0624 0.026,0.1474 0.088,0.207 0.062,0.0596 0.152,0.082 0.223,0.082 0.118,0 0.231,-0.0331 0.316,-0.1113 0.085,-0.0782 0.122,-0.1899 0.133,-0.2891 0.022,-0.1984 -0.033,-0.4034 -0.102,-0.6269 0.008,-0.0201 0.018,-0.0388 0.022,-0.0586 0.004,-0.0204 0.003,-0.0382 0.008,-0.0586 0.155,-0.1774 0.308,-0.4178 0.451,-0.6875 0.285,-0.5394 0.532,-1.21339 0.648,-1.83791 0.058,-0.31226 0.084,-0.61321 0.059,-0.8789 -0.015,-0.14333 -0.048,-0.27627 -0.098,-0.39844 0.001,-6.5e-4 0.001,-0.0013 0.002,-0.00195 0.08,-0.06825 0.09,-0.18853 0.022,-0.26867 -0.003,-0.00297 -0.006,-0.00586 -0.008,-0.00868 -0.669,-0.66921 -1.323,-1.986 -2.059,-3.3457 -0.544,-1.00473 -1.139,-2.03307 -1.859,-2.85742 0.044,-0.09463 0.003,-0.20705 -0.092,-0.2511 -0.038,-0.01792 -0.082,-0.02235 -0.123,-0.01257 -0.008,0.00209 -0.016,0.0047 -0.024,0.00781 -0.184,-0.191044 -0.372,-0.373796 -0.574,-0.533204 0,-6.56e-4 -0.001,-0.001307 -0.002,-0.001954 0.269,-0.032975 0.532,-0.042733 0.784,0.001954 0.126,0.035548 0.257,-0.037848 0.292,-0.163936 0.036,-0.126087 -0.038,-0.2571185 -0.164,-0.2926668 C 185.051,0.0488629 185.035,0.046102 185.02,0.0449219 184.803,0.00637069 184.584,-0.00753017 184.365,0 Z m -0.488,0.548828 c -0.001,6.46e-4 -0.001,0.001297 -0.002,0.001953 -0.055,0.083693 -0.036,0.196009 0.045,0.25586 0.158,0.124957 0.302,0.284339 0.451,0.433589 -0.866,0.49551 -1.835,0.87737 -2.832,1.22657 -0.054,-0.12372 -0.103,-0.25476 -0.158,-0.37696 -0.03,-0.07189 -0.1,-0.11838 -0.178,-0.11718 -0.104,-4.7e-4 -0.189,0.08377 -0.19,0.18815 0,0.0296 0.007,0.05881 0.02,0.08528 0.051,0.11142 0.095,0.23279 0.145,0.34571 -0.901,0.30657 -1.804,0.61038 -2.696,0.92773 -0.009,-0.03401 -0.021,-0.06755 -0.031,-0.10156 0.518,-0.26771 1.043,-0.59008 1.578,-0.92969 1.305,-0.82825 2.643,-1.692977 3.848,-1.939452 z m 4.119,6.986332 c 0.024,-0.00653 0.051,-0.00342 0.086,0.0039 h 0.002 c 0.073,0.01594 0.195,0.07816 0.346,0.22852 0.081,0.08077 0.141,0.23492 0.162,0.44922 0.019,0.2143 -0.004,0.4791 -0.059,0.76758 -0.105,0.56666 -0.33,1.20582 -0.59,1.70512 0.046,-0.5737 0.068,-1.16904 0.237,-1.67583 0.032,-0.10032 -0.023,-0.20787 -0.123,-0.24023 -0.101,-0.03236 -0.208,0.02273 -0.241,0.12304 -0.22,0.65985 -0.219,1.29962 -0.279,1.93362 -0.03,-0.1167 -0.103,-0.2897 -0.103,-0.3692 0,-0.2629 -0.003,-1.2974 0.154,-2.07418 0.079,-0.38839 0.215,-0.70317 0.332,-0.80469 0.029,-0.02538 0.052,-0.0402 0.076,-0.04687 z m -4.074,1.48046 c 0.061,0.11745 0.12,0.23574 0.183,0.35157 -0.014,0.5101 -0.075,1.15261 -0.179,1.81051 -0.043,0.2727 -0.109,0.463 -0.162,0.7227 -0.069,-0.3599 -0.124,-0.8047 -0.133,-1.2617 -0.008,-0.4441 0.027,-0.88473 0.103,-1.25589 0.068,-0.16149 0.126,-0.25022 0.188,-0.36719 z m -3.832,1.15428 c 0.071,4e-4 0.16,0.0243 0.279,0.084 -0.019,-0.0091 -0.011,-0.0138 0,0.0156 0.011,0.0295 0.026,0.0886 0.037,0.1621 0.019,0.1472 0.015,0.3606 -0.008,0.6133 -0.018,0.2171 -0.094,0.5098 -0.14,0.7676 10e-4,-0.0938 0.008,-0.119 0.008,-0.2207 -0.013,-0.1036 -0.108,-0.1769 -0.212,-0.1638 -0.085,0.0109 -0.153,0.0782 -0.163,0.1638 0,0.764 -0.031,1.2945 -0.075,1.6309 -0.011,0.0923 -0.022,0.1362 -0.037,0.1992 -0.058,-0.1746 -0.121,-0.4223 -0.164,-0.7168 -0.089,-0.625 -0.106,-1.4159 0.024,-1.9414 0.064,-0.2628 0.168,-0.4531 0.273,-0.5313 0.052,-0.0384 0.107,-0.0629 0.178,-0.0625 z m 6.967,0.291 c 0,0.3222 0.152,0.6789 0.273,1.0196 -0.015,0.0079 -0.06,0.0504 -0.066,0.0507 -0.012,7e-4 -0.013,0.0021 -0.032,-0.0136 -0.018,-0.0159 -0.043,-0.0592 -0.072,-0.1406 -0.058,-0.163 -0.103,-0.4664 -0.103,-0.9161 z m -10.176,0.2793 c 0.031,0.0625 0.061,0.1253 0.092,0.1875 0.014,0.1 0.036,0.1631 0.037,0.3086 0.001,0.2021 -0.06,0.5268 -0.082,0.7832 -0.002,0.0026 -0.004,0.0052 -0.006,0.0078 -0.034,0.0357 -0.053,0.0834 -0.053,0.1329 0,0.2589 -0.02,0.3626 -0.023,0.582 -0.031,0.2247 -0.023,0.3919 -0.067,0.6211 -0.067,0.3677 -0.17,0.6366 -0.258,0.9746 -0.003,-0.0204 -0.011,-0.0237 -0.015,-0.0449 -0.055,-0.2476 -0.093,-0.5572 -0.121,-0.875 0.072,-0.5661 0.258,-1.1359 0.476,-1.7598 0.039,-0.0968 -0.007,-0.2069 -0.104,-0.246 -0.023,-0.0092 -0.047,-0.0138 -0.071,-0.0138 -0.082,0.0012 -0.154,0.0548 -0.178,0.1328 -0.031,0.0874 -0.058,0.173 -0.088,0.2598 0.084,-0.48 0.244,-0.8548 0.461,-1.0508 z m 6.389,0.0821 c 0.018,0.4224 0.058,0.8427 0.125,1.1816 0.038,0.1948 0.082,0.3673 0.132,0.5098 0.019,0.0491 0.05,0.0749 0.069,0.1172 -0.045,0.1663 -0.08,0.4043 -0.127,0.539 -0.087,0.2491 -0.179,0.4411 -0.242,0.5176 -0.008,0.0083 -0.003,0.0024 -0.008,0.0078 -0.152,-0.1663 -0.25,-0.505 -0.252,-0.9609 -0.003,-0.4699 0.083,-1.0404 0.215,-1.6094 0.026,-0.1067 0.06,-0.1967 0.088,-0.3027 z m -4.008,1.0117 c 0.007,0.3202 -0.057,0.6323 -0.016,0.9238 0.047,0.33 0.109,0.6198 0.186,0.834 0.038,0.1071 0.074,0.1898 0.132,0.2656 0.027,0.0355 0.067,0.0684 0.118,0.0957 -0.059,0.1509 -0.113,0.369 -0.17,0.4864 -0.095,0.1935 -0.193,0.3319 -0.25,0.3847 -0.149,-0.1618 -0.26,-0.4577 -0.295,-0.8633 -0.038,-0.419 -0.009,-0.9342 0.072,-1.4472 0.044,-0.2779 0.155,-0.41 0.223,-0.6797 z m -3.241,0.7598 c -0.002,0.1858 0.006,0.3692 0.01,0.5546 -0.1,0.5547 -0.104,1.1185 0.094,1.7129 0.031,0.0936 0.129,0.1479 0.225,0.125 -0.045,0.1383 -0.078,0.3445 -0.123,0.4571 -0.105,0.2558 -0.221,0.4433 -0.295,0.5175 -0.038,0.0371 -0.057,0.0375 -0.051,0.0371 0.007,-5e-4 0.019,0.0097 -0.008,-0.0156 -0.175,-0.1752 -0.283,-0.5552 -0.289,-1.0547 -0.008,-0.4995 0.079,-1.1021 0.223,-1.6972 0.054,-0.2274 0.143,-0.4153 0.213,-0.6348 z"
         id="path928"
         color="#000000"
         color-interpolation-filters="linearRGB"
         stroke="none"
         stroke-width="0.261378"
         stroke-linecap="round"
         stroke-linejoin="round"
         stroke-miterlimit="4"
         stroke-dasharray="none"
         stroke-dashoffset="0"
         stroke-opacity="1"
         fill="#000000"
         fill-rule="nonzero"
         fill-opacity="1"
         clip-rule="nonzero"
         font-family="Arial"
         font-style="normal"
         font-variant="normal"
         font-weight="400"
         font-stretch="normal"
         font-size="12px"
         text-anchor="start"
         letter-spacing="0"
         word-spacing="0"
         direction="ltr"
         writing-mode="lr-tb"
         visibility="visible"
         display="inline"
         overflow="visible"
         opacity="1"
         text-decoration="none"
         baseline-shift="baseline"
         transform="matrix(0.264583,0,0,0.264583,67.8439,37.9059)" />
    </g>
    <path
       style="text-decoration:none;text-decoration-line:none"
       d="m 8.5190658,123.03545 c -0.03134,-0.005 -0.06273,0.008 -0.08192,0.0328 -2.532e-4,6e-4 -7.673e-4,0.002 -0.00111,0.003 -0.0077,0.004 -0.02077,0.003 -0.025501,0.008 -0.02082,0.0231 -0.02818,0.0449 -0.03604,0.0691 -0.015859,0.0483 -0.02372,0.10499 -0.03049,0.17335 -0.01271,0.13705 -0.015179,0.31775 -0.01198,0.50023 0.0032,0.18247 0.011819,0.36615 0.02027,0.51052 0.004,0.0721 0.0088,0.13635 0.012761,0.18322 0.0036,0.0467 0.0028,0.0677 0.0081,0.0947 0.0098,0.0483 0.01102,0.17058 -8.467e-4,0.31524 -0.011859,0.14466 -0.03318,0.31356 -0.04675,0.47926 -0.01402,0.16556 -0.02118,0.32879 -0.010829,0.46126 0.0054,0.0663 0.015711,0.1254 0.03592,0.17834 0.02028,0.0528 0.05166,0.10497 0.110735,0.12913 0,0 0.03388,0.006 0.03388,0.006 3.01e-5,-7e-5 0.03436,-0.005 0.03436,-0.005 4.762e-4,5e-5 0.021619,-0.0169 0.021651,-0.017 8.79e-5,-2.1e-4 0.01624,-0.0119 0.01624,-0.0119 6.35e-4,-3.5e-4 0.01174,-0.0192 0.012081,-0.02 2.58e-4,-6.4e-4 5.557e-4,-0.0109 0.00191,-0.0141 0.0046,-0.0149 0.0065,-0.0254 0.0078,-0.0372 0.00201,-0.0238 0.00249,-0.0518 0.0034,-0.0891 0.0019,-0.0744 0.0051,-0.18097 0.003,-0.30858 -0.0035,-0.2551 -0.012941,-0.5995 -0.020921,-0.95337 -0.008,-0.3539 -0.01605,-0.71837 -0.01561,-1.01091 2.029e-4,-0.14625 0.0018,-0.27181 0.0067,-0.37157 0.0018,-0.0358 0.0037,-0.0415 0.0063,-0.0695 0.04857,0.0366 0.1087109,0.0811 0.1800939,0.13902 0.1560999,0.12662 0.3552251,0.29499 0.551629,0.4652 0.1959779,0.17004 0.38998,0.3401 0.536103,0.47425 0.07305,0.0671 0.1330769,0.1239 0.176317,0.16633 0.02161,0.0218 0.03932,0.0412 0.05056,0.0534 0.0021,0.003 0.0026,0.003 0.0053,0.005 0.0014,0.006 0.0042,0.0488 -0.0203,0.11104 -0.02523,0.064 -0.06999,0.14471 -0.1193011,0.22062 -0.09686,0.1525 -0.2120522,0.29805 -0.246906,0.33869 -0.02762,0.0388 -0.019061,0.0924 0.019809,0.12018 0.03289,0.0232 0.07734,0.0205 0.1072401,-0.006 0.04227,-0.0492 0.1632109,-0.1967 0.267491,-0.36011 0.05218,-0.0818 0.09895,-0.16728 0.130763,-0.24865 0.03179,-0.0814 0.05853,-0.16132 0.024,-0.24419 -0.001,-0.001 -0.0071,-0.014 -0.01081,-0.0193 -0.0035,-0.005 -0.0061,-0.008 -0.01043,-0.0118 -0.0061,-0.008 -0.01223,-0.0147 -0.01927,-0.0228 -0.01474,-0.0157 -0.03275,-0.0367 -0.05557,-0.0592 -0.04601,-0.0453 -0.110063,-0.10552 -0.1842499,-0.17346 -0.1479503,-0.13571 -0.3414371,-0.30703 -0.5384761,-0.47809 -0.1974752,-0.1712 -0.3996301,-0.3394 -0.55837,-0.46799 -0.07915,-0.0642 -0.1463029,-0.11926 -0.20052,-0.15894 -0.02656,-0.0206 -0.05118,-0.0339 -0.07072,-0.0475 -0.0063,-0.004 -0.016841,-0.006 -0.02236,-0.009 -8.202e-4,-5.2e-4 -0.0018,-6e-4 -0.0033,-0.001 -0.011229,-0.0122 -0.025289,-0.0201 -0.04082,-0.0243 z m -0.4511432,2.97235 c -1.029e-4,2.5e-4 -2.199e-4,5.3e-4 -2.54e-4,6e-4 9.79e-4,7e-5 0.00201,1.7e-4 0.0028,4.5e-4 z m -2.54e-4,6e-4 c -0.0028,-4.2e-4 -0.0055,-10e-4 -0.0084,-1.8e-4 -0.0091,-0.003 -0.01801,-0.004 -0.02755,-0.004 -0.0045,-7.6e-4 -0.0096,-6.6e-4 -0.014931,10e-4 -0.0042,4.5e-4 -0.0086,0.002 -0.0127,0.002 -0.02603,0.009 -0.06955,0.0472 -0.09919,0.0642 -0.08467,0.0384 -0.165721,0.0704 -0.2600812,0.15532 -0.026321,0.0234 -0.05243,0.062 -0.07886,0.088 -0.07365,0.0777 -0.2254091,0.0886 -0.2658181,0.17897 -0.01682,0.0374 -0.0089,0.0481 -0.02073,0.0857 -0.016021,0.0165 -0.03119,0.0293 -0.04739,0.046 -0.1469519,0.14852 -0.2855211,0.30422 -0.379772,0.44795 -0.04635,0.0723 -0.08195,0.14131 -0.1044599,0.2084 -0.02214,0.0673 -0.02996,0.13708 -0.0023,0.20304 0.01674,0.0398 0.04277,0.0749 0.07923,0.0978 0.009,0.006 0.020799,9.5e-4 0.03093,0.005 0.003,0.0383 -0.03169,0.0857 -0.01697,0.12097 0.015521,0.0367 0.04787,0.0756 0.09227,0.0875 0.0441,0.0126 0.08286,9.3e-4 0.1148429,-0.0146 0.06395,-0.0311 0.1209371,-0.0837 0.1832102,-0.15404 0.1245558,-0.14074 0.2694289,-0.35401 0.406386,-0.57565 0.1373619,-0.22144 0.2649511,-0.45145 0.355786,-0.62898 0.04559,-0.0887 0.08095,-0.16285 0.1039892,-0.21919 0.011549,-0.0282 0.01978,-0.0534 0.024,-0.0777 0.00101,-0.005 0.0035,-0.01 0.0045,-0.0167 8.996e-4,-0.007 0.00111,-0.0267 -1.019e-4,-0.0289 -1.651e-4,-7.9e-4 -0.0066,-0.0213 -0.0066,-0.0213 1.51e-5,-4e-5 -0.0027,-8.4e-4 -0.00259,-0.001 -0.0018,-0.004 -0.0037,-0.009 -0.0058,-0.0135 -0.0014,-0.002 -0.0013,-0.003 -0.0023,-0.004 -0.0022,-0.004 -0.0048,-0.007 -0.0074,-0.0106 3.41e-5,-8e-5 -0.0052,-0.004 -0.01115,-0.008 -0.0043,-0.004 -0.0094,-0.007 -0.014499,-0.009 -0.00201,-9.3e-4 -0.0046,-0.002 -0.0067,-0.003 2.239e-4,-5.3e-4 3.704e-4,-9.3e-4 7.673e-4,-0.002 z m -0.261438,0.33571 c -0.09303,0.15756 -0.2181971,0.35644 -0.3528782,0.54356 -0.03098,0.0434 -0.05928,0.0631 -0.09095,0.10431 0.0049,-0.059 0.03351,-0.15423 0.05757,-0.2564 0.07507,-0.0944 0.151443,-0.17393 0.2273983,-0.25244 0.04425,-0.0383 0.09208,-0.0878 0.1331428,-0.12075 0.01161,-0.0102 0.012909,-0.01 0.025741,-0.0183 z m -0.6284682,0.76091 8.202e-4,3.2e-4 c 0.0084,0.0227 0.026159,0.0408 0.04863,0.0497 -0.06063,0.0699 -0.12987,0.16698 -0.180898,0.20986 0.0091,-0.0272 -9.21e-5,-0.0348 0.01198,-0.0643 0.026281,-0.0606 0.08127,-0.13005 0.1193959,-0.19556 z m -0.1139521,0.4412 c -0.022421,0.0225 -0.04167,0.038 -0.05728,0.0497 -0.00111,-0.006 0.0063,-0.0178 0.0057,-0.0235 0.018301,-0.007 0.03469,-0.0162 0.05153,-0.026 z"
       id="path971"
       color="#000000"
       color-interpolation-filters="linearRGB"
       stroke="none"
       stroke-width="0.0999998"
       stroke-linecap="round"
       stroke-linejoin="round"
       stroke-miterlimit="4"
       stroke-dasharray="none"
       stroke-dashoffset="0"
       stroke-opacity="1"
       fill="#000000"
       fill-rule="nonzero"
       fill-opacity="1"
       clip-rule="nonzero"
       font-family="Arial"
       font-style="normal"
       font-variant="normal"
       font-weight="400"
       font-stretch="normal"
       font-size="12px"
       text-anchor="start"
       letter-spacing="0"
       word-spacing="0"
       direction="ltr"
       writing-mode="lr-tb"
       visibility="visible"
       display="inline"
       overflow="visible"
       opacity="1"
       text-decoration="none"
       baseline-shift="baseline" />
    <g
       id="g1085"
       stroke-width="0.0678201"
       stroke-miterlimit="4"
       stroke-dasharray="none"
       transform="matrix(1.4242457,0.3816255,-0.3816255,1.4242457,-111.6855,37.590405)">
      <path
         style="text-decoration:none;text-decoration-line:none"
         d="m 161.479,6.58984 c -0.012,2e-4 -0.024,0.00151 -0.036,0.00391 -0.036,0.00777 -0.069,0.02612 -0.095,0.05273 -0.016,0.01708 -0.029,0.03694 -0.037,0.0586 -0.588,1.36228 -1.61,2.02662 -2.797,2.50976 -0.41,0.16681 -0.842,0.30907 -1.276,0.44922 -0.143,-0.53796 -0.302,-1.04583 -0.49,-1.45312 -0.036,-0.08675 -0.13,-0.13415 -0.221,-0.11133 -0.034,0.01078 -0.064,0.03111 -0.088,0.05859 -0.051,0.05641 -0.063,0.13803 -0.031,0.20703 0.177,0.38312 0.329,0.88245 0.467,1.41602 -0.706,0.22675 -1.416,0.46075 -2.076,0.79105 -0.091,0.0506 -0.124,0.1657 -0.074,0.257 0.047,0.0839 0.149,0.1195 0.238,0.0828 0.621,-0.3103 1.309,-0.5378 2.01,-0.7637 0.51,2.1833 0.736,5.0028 0.736,5.6797 -0.013,0.1036 0.06,0.1981 0.164,0.2113 0.103,0.0131 0.198,-0.0603 0.211,-0.1638 0.002,-0.0158 0.002,-0.0317 0,-0.0475 0,-0.7569 -0.209,-3.5631 -0.748,-5.7988 0.446,-0.14459 0.892,-0.29287 1.324,-0.46875 1.123,-0.45691 2.078,-1.2468 2.733,-2.47266 1.398,1.85385 2.345,5.03241 2.345,7.42771 0,0.0382 0.011,0.0756 0.032,0.1074 -0.045,-0.0523 -0.098,-0.0982 -0.17,-0.123 -0.062,-0.0212 -0.123,0.004 -0.186,0.0156 -0.002,5e-4 -0.005,-5e-4 -0.008,0 -0.042,-0.0098 -0.086,-0.005 -0.125,0.0137 -0.293,0.1421 -0.493,0.274 -0.635,0.4141 -0.141,0.14 -0.214,0.2903 -0.25,0.4414 -0.071,0.3021 -0.025,0.5595 -0.156,0.9531 -0.141,0.4242 -0.372,1.0579 -0.183,1.625 0.118,0.3553 0.235,0.5859 0.42,0.7148 0.092,0.0645 0.21,0.0924 0.318,0.0743 0.108,-0.0182 0.203,-0.07 0.279,-0.1407 0.022,-0.02 0.025,-0.0809 0.045,-0.1035 0.015,-0.0159 0.037,-0.0197 0.051,-0.0371 0.169,-0.2043 0.311,-0.495 0.43,-0.8184 0.056,-0.1533 0.077,-0.3069 0.117,-0.4648 0.002,-0.0076 0.006,-0.0155 0.008,-0.0234 0.003,-0.0129 0.004,-0.0243 0.007,-0.0371 0.037,-0.1546 0.094,-0.3134 0.11,-0.4571 0.007,-0.0638 -0.033,-0.1013 -0.03,-0.1621 0.067,-0.4039 0.159,-0.8314 0.149,-1.1601 -0.008,-0.2577 -0.038,-0.4761 -0.133,-0.6485 -0.009,-0.0168 -0.024,-0.031 -0.035,-0.0469 0.074,0.0741 0.193,0.0746 0.267,10e-4 0.007,-0.0064 0.013,-0.0132 0.018,-0.0205 0.028,-0.0328 0.044,-0.0741 0.045,-0.1172 0,-2.5523 -0.947,-5.91764 -2.496,-7.85544 -0.036,-0.04484 -0.091,-0.07073 -0.148,-0.07032 z m 0.74,2.82422 c -0.01,0.00182 -0.02,0.00443 -0.03,0.00782 -0.035,0.01044 -0.066,0.03079 -0.089,0.05859 -0.387,0.40714 -0.665,0.57463 -0.901,0.62693 -0.236,0.0523 -0.464,-0.0029 -0.789,-0.11131 -0.094,-0.04552 -0.207,-0.00628 -0.252,0.08761 -0.046,0.094 -0.007,0.207 0.087,0.2525 0.015,0.0071 0.03,0.0122 0.046,0.0154 0.339,0.113 0.649,0.2006 0.99,0.125 0.341,-0.0756 0.679,-0.3042 1.092,-0.73832 0.076,-0.07206 0.078,-0.19169 0.006,-0.2672 -0.041,-0.04342 -0.101,-0.06458 -0.16,-0.05702 z m 1.261,5.43944 c -0.007,-0.0025 -0.002,-0.0039 0.016,0.0293 0.037,0.0666 0.081,0.2437 0.088,0.4727 0.004,0.1185 -0.049,0.3023 -0.059,0.4433 -0.053,-0.0302 -0.098,-0.0836 -0.162,-0.0879 -0.127,-0.0087 -0.243,0.0639 -0.31,0.1465 -0.039,0.0477 -0.059,0.1083 -0.084,0.1641 0.07,-0.2255 0.136,-0.4725 0.209,-0.6504 0.063,-0.1544 0.131,-0.2866 0.185,-0.377 0.054,-0.0903 0.112,-0.1368 0.088,-0.125 0.019,-0.0094 0.012,-0.007 0.016,-0.0078 0.004,-0.0024 0.009,-0.005 0.013,-0.0078 z m -0.132,1.2403 c 0.002,0.0016 0.022,0.009 0.074,0.0605 0.009,0.0087 0.009,0.1633 0.021,0.2656 -0.033,0.211 -0.022,0.3909 -0.072,0.5977 -0.007,0.0298 -0.015,0.0575 -0.023,0.0879 -0.048,0.1812 -0.112,0.2325 -0.17,0.3906 -0.003,-0.002 -0.005,-0.004 -0.008,-0.0059 0,5e-4 0.001,-0.0048 0,-0.0078 0,-0.0026 0,-0.0052 0,-0.0078 -10e-4,-0.0155 0.001,-0.0445 0,-0.0742 -0.003,-0.0593 -0.009,-0.1421 -0.008,-0.2363 0.003,-0.1886 0.021,-0.4262 0.053,-0.6348 0.032,-0.2086 0.097,-0.3915 0.133,-0.4355 z m -5.477,0.1113 c -0.005,0.0023 -0.01,0.0049 -0.016,0.0078 -0.002,7e-4 -0.005,-7e-4 -0.007,0 -0.008,0.0021 -0.007,0.0055 -0.014,0.0078 -0.005,0.0024 -0.011,0.005 -0.016,0.0078 -0.021,0.0087 -0.041,0.0212 -0.058,0.0371 -0.005,0.0046 -0.003,0.0092 -0.008,0.0137 -0.54,0.1817 -0.905,0.4278 -1.049,0.7461 -0.157,0.3471 -0.125,0.715 -0.125,1.0703 0,0.477 0.038,0.8296 0.09,1.1074 -0.028,0.2105 -0.095,0.5133 -0.098,0.6563 -0.003,0.1549 0.005,0.2735 0.037,0.3769 0.017,0.0517 0.041,0.1023 0.082,0.1485 0.042,0.0462 0.111,0.0818 0.178,0.0879 0.135,0.0121 0.215,-0.058 0.287,-0.125 0.073,-0.0671 0.145,-0.1493 0.215,-0.252 0.049,-0.0719 0.096,-0.1915 0.147,-0.2793 0.107,-0.0843 0.21,-0.1759 0.295,-0.3105 0.213,-0.3384 0.388,-0.8087 0.459,-1.2696 0.013,-0.0892 -0.051,-0.148 -0.045,-0.2363 0.07,-0.2395 0.193,-0.4877 0.228,-0.7012 0.05,-0.3046 0.07,-0.5715 -0.008,-0.791 -0.038,-0.1097 -0.115,-0.2162 -0.228,-0.2734 -0.077,-0.039 -0.163,-0.0216 -0.25,-0.0137 -0.03,-0.0134 -0.063,-0.0188 -0.096,-0.0156 z m 4.994,0.1406 c -0.008,0.0449 -0.02,0.0864 -0.027,0.1328 -0.036,0.2349 -0.048,0.4845 -0.051,0.6856 -0.001,0.1005 -0.003,0.1839 0,0.2519 0.001,0.034 0.006,0.0632 0.008,0.0879 0.001,0.0125 0.006,0.0254 0.008,0.0371 0.001,0.0117 0.006,0.042 0.008,0.0449 0.028,0.1006 0.132,0.1594 0.232,0.1314 0.017,-0.0046 0.032,-0.0113 0.047,-0.02 -0.085,0.196 -0.162,0.4667 -0.236,0.5527 -0.047,0.0481 -0.093,0.0919 -0.104,0.0957 l -0.008,-0.0078 c -0.055,-0.0554 -0.123,-0.3046 -0.109,-0.6484 0.013,-0.3439 0.082,-0.7732 0.183,-1.1895 0.014,-0.0568 0.034,-0.0981 0.049,-0.1543 z m -4.855,0.2285 h 0.002 c 0.009,0.0011 0.034,-0.0015 0.037,0 0.008,0.0042 0.026,0.0101 0.043,0.0586 0.034,0.0969 0.038,0.3219 -0.008,0.5977 -0.001,0.0064 -0.007,0.017 -0.008,0.0234 -0.037,-0.0682 0.014,-0.1799 -0.043,-0.2363 -0.05,-0.0505 -0.123,-0.0464 -0.185,-0.0742 0.078,-0.1117 0.055,-0.2555 0.162,-0.3692 z m -0.537,0.3242 c -0.036,0.0587 -0.06,0.1262 -0.09,0.1856 -0.005,0.0087 -0.017,0.0128 -0.022,0.0215 -0.011,0.0192 -0.013,0.0537 -0.023,0.0742 -0.127,0.2674 -0.304,0.5381 -0.375,0.834 -0.001,-0.327 -0.008,-0.6212 0.088,-0.834 0.049,-0.1092 0.298,-0.1858 0.422,-0.2813 z m 0.25,0.3399 c -0.02,0.0036 -0.012,-0.0115 0.045,0.0449 0.096,0.0968 0.086,0.3817 0.087,0.6426 -0.113,0.3829 -0.208,0.7603 -0.369,1.1211 -0.002,-0.0648 -0.007,-0.1223 -0.007,-0.1992 -0.002,-0.2682 0.017,-0.5906 0.052,-0.8848 0.036,-0.2942 0.1,-0.5617 0.162,-0.6719 0.031,-0.0551 0.049,-0.0563 0.03,-0.0527 z m 1.461,0.4785 0.002,0.002 c -0.006,0.0023 -0.011,0.0049 -0.016,0.0078 -0.013,0.0032 -0.025,0.0078 -0.037,0.0136 -0.006,0.0024 -0.011,0.005 -0.016,0.0078 -0.004,0.0025 -0.009,0.0051 -0.013,0.0079 -0.027,0.0215 -0.047,0.0498 -0.059,0.082 -0.003,0.0044 -0.005,0.009 -0.008,0.0137 -0.006,0.019 -0.008,0.0387 -0.008,0.0586 0,0.0052 0,0.0104 0,0.0156 0.002,0.0201 0.006,0.0399 0.014,0.0586 0.002,0.0053 0.005,0.0105 0.008,0.0156 0.01,0.0161 0.022,0.0306 0.037,0.043 0.005,0.0055 0.01,0.0107 0.016,0.0156 l 0.751,0.5605 c 0.037,0.0273 0.082,0.0405 0.127,0.0371 0.013,-0.0013 0.025,-0.0039 0.038,-0.0078 0.01,-0.003 0.019,-0.007 0.029,-0.0117 0.083,0.0632 0.201,0.047 0.265,-0.0361 0.028,-0.0371 0.041,-0.0834 0.038,-0.1299 v -0.1914 c 0.001,-0.1044 -0.083,-0.1901 -0.187,-0.1914 -0.002,-10e-5 -0.005,-10e-5 -0.007,0 -0.05,0.0011 -0.098,0.0222 -0.133,0.0586 -0.023,0.0251 -0.039,0.0562 -0.046,0.0898 l -0.647,-0.4824 c -0.015,-0.0123 -0.032,-0.0222 -0.051,-0.0293 -0.017,-0.0051 -0.035,-0.0077 -0.052,-0.0078 -0.008,-4e-4 -0.015,-4e-4 -0.022,0 -0.008,-5e-4 -0.016,-5e-4 -0.023,0 z m -2.075,0.998 c 0,0.0445 -0.005,0.0985 -0.005,0.1407 0,0.1411 0.006,0.2657 0.013,0.3691 0.008,0.1035 0.011,0.1721 0.037,0.25 -0.035,-0.0578 -0.075,-0.1203 -0.111,-0.2871 0.022,-0.1563 0.029,-0.2694 0.066,-0.4727 z m 0.067,0.8125 c 0.014,0.0181 0.032,0.0334 0.053,0.045 -0.003,0.0049 -0.006,0.0091 -0.008,0.0136 -0.001,0.001 -0.007,-10e-4 -0.008,0 -0.003,-10e-5 -0.005,0.0085 -0.022,-0.0078 -0.004,-0.0038 -0.01,-0.0439 -0.015,-0.0508 z m -0.229,0.3321 c 0.027,0.0227 0.065,0.0208 0.096,0.0371 -0.032,0.046 -0.053,0.0724 -0.08,0.1035 -0.005,-0.0443 -0.017,-0.0622 -0.016,-0.1328 0,-0.0014 0,-0.0063 0,-0.0078 z"
         id="path981"
         color="#000000"
         color-interpolation-filters="linearRGB"
         stroke="none"
         stroke-width="0.256327"
         stroke-linecap="round"
         stroke-linejoin="round"
         stroke-miterlimit="4"
         stroke-dasharray="none"
         stroke-dashoffset="0"
         stroke-opacity="1"
         fill="#000000"
         fill-rule="nonzero"
         fill-opacity="1"
         clip-rule="nonzero"
         font-family="Arial"
         font-style="normal"
         font-variant="normal"
         font-weight="400"
         font-stretch="normal"
         font-size="12px"
         text-anchor="start"
         letter-spacing="0"
         word-spacing="0"
         direction="ltr"
         writing-mode="lr-tb"
         visibility="visible"
         display="inline"
         overflow="visible"
         opacity="1"
         text-decoration="none"
         baseline-shift="baseline"
         transform="matrix(0.264583,0,0,0.264583,55.0133,32.0581)" />
    </g>
    <path
       style="font-variation-settings:normal;opacity:1;vector-effect:none;fill:none;fill-opacity:1;stroke:#000000;stroke-width:0.534892;stroke-linecap:round;stroke-linejoin:round;stroke-miterlimit:4;stroke-dasharray:none;stroke-dashoffset:0;stroke-opacity:1;stop-color:#000000;stop-opacity:1"
       d="m 11.786703,138.59392 c -0.907135,-0.56957 -1.9057461,-0.35712 -2.4291891,0.16102 -3.2753543,3.2423 2.1191521,5.32937 3.6764201,2.74051 0.921591,-1.53206 -0.01234,-2.20192 -0.999529,-2.93464"
       id="path998"
       sodipodi:nodetypes="cssc" />
    <path
       style="font-variation-settings:normal;opacity:1;vector-effect:none;fill:none;fill-opacity:1;stroke:#000000;stroke-width:0.534892;stroke-linecap:round;stroke-linejoin:round;stroke-miterlimit:4;stroke-dasharray:none;stroke-dashoffset:0;stroke-opacity:1;stop-color:#000000;stop-opacity:1"
       d="m 11.533722,139.93547 c 0.01375,-0.76671 -1.7632392,-0.88431 -1.581217,0.97923 0.107039,1.09497 1.540075,0.3255 2.012402,-0.13126"
       id="path1000"
       sodipodi:nodetypes="csc" />
    <path
       style="fill:none;stroke:#000000;stroke-width:0.534892;stroke-linecap:round;stroke-linejoin:round;stroke-miterlimit:4;stroke-dasharray:none;stroke-opacity:1"
       d="m 20.880871,137.66928 c 0.226406,0.45332 -2.19877,9.21321 -1.159302,5.81159"
       id="path1002" />
    <path
       style="fill:none;stroke:#000000;stroke-width:0.534892;stroke-linecap:round;stroke-linejoin:round;stroke-miterlimit:4;stroke-dasharray:none;stroke-opacity:1"
       d="m 23.220506,138.19809 c -2.301935,0.36299 -4.603856,0.72599 -6.905795,1.089 -0.410014,0.39528 -0.478671,0.35235 -0.0045,0.24294"
       id="path1004" />
    <path
       style="fill:none;stroke:#000000;stroke-width:0.534892;stroke-linecap:round;stroke-linejoin:round;stroke-miterlimit:4;stroke-dasharray:none;stroke-opacity:1"
       d="m 23.747453,140.395 c 2.240124,-3.78809 -3.338147,1.58031 -2.385503,1.98168 1.14902,0.48415 1.95699,-1.83683 2.394386,-2.46758 0.04621,-0.0665 -0.0029,0.16197 -0.0045,0.24293 -0.0113,0.61695 -0.155587,1.2535 -0.277019,1.85819 -0.03252,0.16097 -0.238095,0.55515 -0.08982,0.48443 0.20838,-0.20092 0.096,-0.12619 0.328371,-0.23702"
       id="path1006" />
    <path
       style="fill:none;stroke:#000000;stroke-width:0.534892;stroke-linecap:round;stroke-linejoin:round;stroke-miterlimit:4;stroke-dasharray:none;stroke-opacity:1"
       d="m 25.748755,137.27214 c -0.252804,0.53546 -0.53262,1.05897 -0.758444,1.60637 -0.53747,1.30288 -1.267652,2.55685 -1.530184,3.94156 -0.406146,2.14202 0.831891,-0.98551 1.731712,-1.6696 0.890943,-0.67731 3.94885,-2.65551 3.8018,0.31249 -0.164862,3.32639 -5.560392,2.37678 -6.078241,0.13201 -0.0663,-0.28784 2.185552,1.02668 2.489812,1.17962 1.794818,0.90222 4.380802,1.77639 6.15177,0.27441 0.408745,-0.34663 0.761961,-0.76055 1.075,-1.19554 2.49388,-3.46524 -2.660809,-2.21632 -3.483795,0.0174 -0.418133,1.13491 1.813337,2.25884 2.636972,1.99242 1.876645,-0.607 2.653266,-3.35363 2.323772,-3.03595 -0.224888,0.21682 -0.46514,0.0515 -0.895255,0.22668 -1.133266,0.46135 0.837634,2.9268 0.873054,0.98808 0.003,-0.16027 0.07023,-0.50483 -0.06915,-0.64936 -0.08923,-0.0926 -0.303326,1.20963 0.787638,1.22955 1.043406,0.0191 2.929893,-0.79631 3.423499,-1.15261"
       id="path1008" />
  </g>
</svg>
