<?xml version="1.0" encoding="UTF-8" standalone="no"?>
<!-- Created with Inkscape (http://www.inkscape.org/) -->

<svg
   width="62.601238mm"
   height="44.687092mm"
   viewBox="0 0 62.601238 44.687092"
   version="1.1"
   id="svg40796"
   inkscape:version="1.1.1 (3bf5ae0d25, 2021-09-20)"
   sodipodi:docname="2022-DE-07-explanation1.svg"
   xmlns:inkscape="http://www.inkscape.org/namespaces/inkscape"
   xmlns:sodipodi="http://sodipodi.sourceforge.net/DTD/sodipodi-0.dtd"
   xmlns="http://www.w3.org/2000/svg"
   xmlns:svg="http://www.w3.org/2000/svg">
  <sodipodi:namedview
     id="namedview40798"
     pagecolor="#ffffff"
     bordercolor="#666666"
     borderopacity="1.0"
     inkscape:pageshadow="2"
     inkscape:pageopacity="0.0"
     inkscape:pagecheckerboard="0"
     inkscape:document-units="mm"
     showgrid="false"
     inkscape:zoom="0.66368547"
     inkscape:cx="-163.48105"
     inkscape:cy="437.70734"
     inkscape:window-width="1680"
     inkscape:window-height="1027"
     inkscape:window-x="1912"
     inkscape:window-y="-8"
     inkscape:window-maximized="1"
     inkscape:current-layer="layer1" />
  <defs
     id="defs40793" />
  <g
     inkscape:label="Ebene 1"
     inkscape:groupmode="layer"
     id="layer1"
     transform="translate(-148.22745,-32.671216)">
    <g
       transform="matrix(0.26458333,0,0,0.26458333,115.99798,-250.27323)"
       id="g14"
       style="clip-rule:evenodd;fill-rule:evenodd;stroke-linejoin:round;stroke-miterlimit:2">
      <g
         id="g1495">
        <g
           transform="matrix(0.582346,0,0,0.582346,-61.995442,859.50722)"
           id="g8">
          <path
             d="m 702.963,360.42 v 2.378 c 0,3.041 -2.469,5.51 -5.51,5.51 h -35.212 c -3.041,0 -5.51,-2.469 -5.51,-5.51 v -2.378 h -11.266 v 21.128 c 0,8.604 -6.986,15.59 -15.59,15.59 H 408.144 c -8.604,0 -15.59,-6.986 -15.59,-15.59 V 360.42 h -10.988 v 0.424 c 0,3.041 -2.469,5.51 -5.511,5.51 h -35.211 c -3.041,0 -5.511,-2.469 -5.511,-5.51 v -0.424 h -19.7 v 290.027 h 19.7 v -14.35 c 0,-3.041 2.47,-5.511 5.511,-5.511 h 35.211 c 3.042,0 5.511,2.47 5.511,5.511 v 14.35 h 10.988 v -15.325 c 0,-8.604 6.986,-15.59 15.59,-15.59 h 221.731 c 8.604,0 15.59,6.986 15.59,15.59 v 15.325 h 11.266 v -12.396 c 0,-3.042 2.469,-5.511 5.51,-5.511 h 35.212 c 3.041,0 5.51,2.469 5.51,5.511 v 12.396 h 18.963 V 360.42 Z m 0,227.692 c 0,-3.042 -2.469,-5.511 -5.51,-5.511 h -35.212 c -3.041,0 -5.51,2.469 -5.51,5.511 v 24.38 c 0,3.042 2.469,5.511 5.51,5.511 h 35.212 c 3.041,0 5.51,-2.469 5.51,-5.511 z m -321.397,-1.954 c 0,-3.041 -2.469,-5.51 -5.511,-5.51 h -35.211 c -3.041,0 -5.511,2.469 -5.511,5.51 v 24.381 c 0,3.041 2.47,5.51 5.511,5.51 h 35.211 c 3.042,0 5.511,-2.469 5.511,-5.51 z m 263.899,-157.73 c 0,-8.605 -6.986,-15.59 -15.59,-15.59 H 408.144 c -8.604,0 -15.59,6.985 -15.59,15.59 v 159.814 c 0,8.605 6.986,15.59 15.59,15.59 h 221.731 c 8.604,0 15.59,-6.985 15.59,-15.59 z m 57.498,109.745 c 0,-3.042 -2.469,-5.511 -5.51,-5.511 h -35.212 c -3.041,0 -5.51,2.469 -5.51,5.511 v 24.38 c 0,3.042 2.469,5.511 5.51,5.511 h 35.212 c 3.041,0 5.51,-2.469 5.51,-5.511 z m -321.397,-1.954 c 0,-3.041 -2.469,-5.51 -5.511,-5.51 h -35.211 c -3.041,0 -5.511,2.469 -5.511,5.51 V 560.6 c 0,3.041 2.47,5.51 5.511,5.51 h 35.211 c 3.042,0 5.511,-2.469 5.511,-5.51 z m 321.397,-47.985 c 0,-3.041 -2.469,-5.511 -5.51,-5.511 h -35.212 c -3.041,0 -5.51,2.47 -5.51,5.511 v 24.381 c 0,3.041 2.469,5.51 5.51,5.51 h 35.212 c 3.041,0 5.51,-2.469 5.51,-5.51 z M 381.566,486.28 c 0,-3.041 -2.469,-5.51 -5.511,-5.51 h -35.211 c -3.041,0 -5.511,2.469 -5.511,5.51 v 24.381 c 0,3.041 2.47,5.51 5.511,5.51 h 35.211 c 3.042,0 5.511,-2.469 5.511,-5.51 z m 321.397,-47.985 c 0,-3.041 -2.469,-5.51 -5.51,-5.51 h -35.212 c -3.041,0 -5.51,2.469 -5.51,5.51 v 24.381 c 0,3.041 2.469,5.51 5.51,5.51 h 35.212 c 3.041,0 5.51,-2.469 5.51,-5.51 z m -321.397,-1.954 c 0,-3.041 -2.469,-5.51 -5.511,-5.51 h -35.211 c -3.041,0 -5.511,2.469 -5.511,5.51 v 24.381 c 0,3.041 2.47,5.51 5.511,5.51 h 35.211 c 3.042,0 5.511,-2.469 5.511,-5.51 z m 321.397,-47.985 c 0,-3.041 -2.469,-5.51 -5.51,-5.51 h -35.212 c -3.041,0 -5.51,2.469 -5.51,5.51 v 24.381 c 0,3.041 2.469,5.51 5.51,5.51 h 35.212 c 3.041,0 5.51,-2.469 5.51,-5.51 z m -321.397,-1.954 c 0,-3.041 -2.469,-5.51 -5.511,-5.51 h -35.211 c -3.041,0 -5.511,2.469 -5.511,5.51 v 24.381 c 0,3.041 2.47,5.51 5.511,5.51 h 35.211 c 3.042,0 5.511,-2.469 5.511,-5.51 z"
             id="path6" />
        </g>
        <g
           transform="translate(-279.584,-70.2287)"
           id="g12">
          <g
             aria-label="1"
             id="text10"
             style="font-size:110.526px;font-family:Impact;-inkscape-font-specification:'Impact, Normal';stroke-width:0.937512">
            <path
               d="m 538.12772,1180.3862 v 87.3738 h -21.80298 v -46.844 q 0,-10.146 -0.48571,-12.1967 -0.48571,-2.0508 -2.69839,-3.0762 -2.15871,-1.0794 -9.7142,-1.0794 h -2.15871 v -10.1999 q 15.81256,-3.3999 24.01566,-13.9776 z"
               style="font-size:110.526px;font-family:Impact;-inkscape-font-specification:'Impact, Normal';stroke-width:0.937512"
               id="path1040" />
          </g>
        </g>
      </g>
    </g>
  </g>
</svg>
