<?xml version="1.0" encoding="UTF-8" standalone="no"?>
<!-- Created with Inkscape (http://www.inkscape.org/) -->

<svg
   width="62.601238mm"
   height="44.687092mm"
   viewBox="0 0 62.601238 44.687092"
   version="1.1"
   id="svg40796"
   inkscape:version="1.1.1 (3bf5ae0d25, 2021-09-20)"
   sodipodi:docname="2022-DE-07-explanation2.svg"
   xmlns:inkscape="http://www.inkscape.org/namespaces/inkscape"
   xmlns:sodipodi="http://sodipodi.sourceforge.net/DTD/sodipodi-0.dtd"
   xmlns="http://www.w3.org/2000/svg"
   xmlns:svg="http://www.w3.org/2000/svg">
  <sodipodi:namedview
     id="namedview40798"
     pagecolor="#ffffff"
     bordercolor="#666666"
     borderopacity="1.0"
     inkscape:pageshadow="2"
     inkscape:pageopacity="0.0"
     inkscape:pagecheckerboard="0"
     inkscape:document-units="mm"
     showgrid="false"
     inkscape:zoom="0.66368547"
     inkscape:cx="-241.07805"
     inkscape:cy="437.70734"
     inkscape:window-width="1680"
     inkscape:window-height="1027"
     inkscape:window-x="1912"
     inkscape:window-y="-8"
     inkscape:window-maximized="1"
     inkscape:current-layer="layer1" />
  <defs
     id="defs40793" />
  <g
     inkscape:label="Ebene 1"
     inkscape:groupmode="layer"
     id="layer1"
     transform="translate(-148.22745,-32.671216)">
    <g
       transform="matrix(0.26458333,0,0,0.26458333,42.412548,-250.24466)"
       id="g34"
       style="clip-rule:evenodd;fill-rule:evenodd;stroke-linejoin:round;stroke-miterlimit:2">
      <g
         transform="matrix(0.582346,0,0,0.582346,216.12273,859.39922)"
         id="g28">
        <path
           d="m 702.963,360.42 v 2.378 c 0,3.041 -2.469,5.51 -5.51,5.51 h -35.212 c -3.041,0 -5.51,-2.469 -5.51,-5.51 v -2.378 h -11.266 v 21.128 c 0,8.604 -6.986,15.59 -15.59,15.59 H 408.144 c -8.604,0 -15.59,-6.986 -15.59,-15.59 V 360.42 h -10.988 v 0.424 c 0,3.041 -2.469,5.51 -5.511,5.51 h -35.211 c -3.041,0 -5.511,-2.469 -5.511,-5.51 v -0.424 h -19.7 v 290.027 h 19.7 v -14.35 c 0,-3.041 2.47,-5.511 5.511,-5.511 h 35.211 c 3.042,0 5.511,2.47 5.511,5.511 v 14.35 h 10.988 v -15.325 c 0,-8.604 6.986,-15.59 15.59,-15.59 h 221.731 c 8.604,0 15.59,6.986 15.59,15.59 v 15.325 h 11.266 v -12.396 c 0,-3.042 2.469,-5.511 5.51,-5.511 h 35.212 c 3.041,0 5.51,2.469 5.51,5.511 v 12.396 h 18.963 V 360.42 Z m 0,227.692 c 0,-3.042 -2.469,-5.511 -5.51,-5.511 h -35.212 c -3.041,0 -5.51,2.469 -5.51,5.511 v 24.38 c 0,3.042 2.469,5.511 5.51,5.511 h 35.212 c 3.041,0 5.51,-2.469 5.51,-5.511 z m -321.397,-1.954 c 0,-3.041 -2.469,-5.51 -5.511,-5.51 h -35.211 c -3.041,0 -5.511,2.469 -5.511,5.51 v 24.381 c 0,3.041 2.47,5.51 5.511,5.51 h 35.211 c 3.042,0 5.511,-2.469 5.511,-5.51 z m 263.899,-157.73 c 0,-8.605 -6.986,-15.59 -15.59,-15.59 H 408.144 c -8.604,0 -15.59,6.985 -15.59,15.59 v 159.814 c 0,8.605 6.986,15.59 15.59,15.59 h 221.731 c 8.604,0 15.59,-6.985 15.59,-15.59 z m 57.498,109.745 c 0,-3.042 -2.469,-5.511 -5.51,-5.511 h -35.212 c -3.041,0 -5.51,2.469 -5.51,5.511 v 24.38 c 0,3.042 2.469,5.511 5.51,5.511 h 35.212 c 3.041,0 5.51,-2.469 5.51,-5.511 z m -321.397,-1.954 c 0,-3.041 -2.469,-5.51 -5.511,-5.51 h -35.211 c -3.041,0 -5.511,2.469 -5.511,5.51 V 560.6 c 0,3.041 2.47,5.51 5.511,5.51 h 35.211 c 3.042,0 5.511,-2.469 5.511,-5.51 z m 321.397,-47.985 c 0,-3.041 -2.469,-5.511 -5.51,-5.511 h -35.212 c -3.041,0 -5.51,2.47 -5.51,5.511 v 24.381 c 0,3.041 2.469,5.51 5.51,5.51 h 35.212 c 3.041,0 5.51,-2.469 5.51,-5.51 z M 381.566,486.28 c 0,-3.041 -2.469,-5.51 -5.511,-5.51 h -35.211 c -3.041,0 -5.511,2.469 -5.511,5.51 v 24.381 c 0,3.041 2.47,5.51 5.511,5.51 h 35.211 c 3.042,0 5.511,-2.469 5.511,-5.51 z m 321.397,-47.985 c 0,-3.041 -2.469,-5.51 -5.51,-5.51 h -35.212 c -3.041,0 -5.51,2.469 -5.51,5.51 v 24.381 c 0,3.041 2.469,5.51 5.51,5.51 h 35.212 c 3.041,0 5.51,-2.469 5.51,-5.51 z m -321.397,-1.954 c 0,-3.041 -2.469,-5.51 -5.511,-5.51 h -35.211 c -3.041,0 -5.511,2.469 -5.511,5.51 v 24.381 c 0,3.041 2.47,5.51 5.511,5.51 h 35.211 c 3.042,0 5.511,-2.469 5.511,-5.51 z m 321.397,-47.985 c 0,-3.041 -2.469,-5.51 -5.51,-5.51 h -35.212 c -3.041,0 -5.51,2.469 -5.51,5.51 v 24.381 c 0,3.041 2.469,5.51 5.51,5.51 h 35.212 c 3.041,0 5.51,-2.469 5.51,-5.51 z m -321.397,-1.954 c 0,-3.041 -2.469,-5.51 -5.511,-5.51 h -35.211 c -3.041,0 -5.511,2.469 -5.511,5.51 v 24.381 c 0,3.041 2.47,5.51 5.511,5.51 h 35.211 c 3.042,0 5.511,-2.469 5.511,-5.51 z"
           id="path26" />
      </g>
      <g
         transform="translate(7.68859,-69.4516)"
         id="g32">
        <g
           aria-label="2"
           id="text30"
           style="font-size:110.526px;font-family:Impact;-inkscape-font-specification:'Impact, Normal';stroke-width:0.937512">
          <path
             d="m 533.56056,1252.8163 v 14.8951 h -47.97735 v -12.4665 q 21.31727,-34.8632 25.31088,-43.1203 4.04758,-8.311 4.04758,-12.9522 0,-3.5619 -1.24125,-5.2889 -1.1873,-1.7809 -3.66981,-1.7809 -2.48252,0 -3.72378,1.9428 -1.18729,1.9429 -1.18729,7.7174 v 8.311 h -19.53633 v -3.1841 q 0,-7.3396 0.75554,-11.5491 0.75555,-4.2634 3.72378,-8.365 2.96823,-4.1015 7.71739,-6.2063 4.74917,-2.1047 11.3872,-2.1047 13.00624,0 19.64427,6.4761 6.69201,6.4222 6.69201,16.2983 0,7.5015 -3.77775,15.8665 -3.72377,8.365 -22.07282,35.5108 z"
             style="font-size:110.526px;font-family:Impact;-inkscape-font-specification:'Impact, Normal';stroke-width:0.937512"
             id="path1046" />
        </g>
      </g>
    </g>
  </g>
</svg>
