<?xml version="1.0" encoding="UTF-8" standalone="no"?>
<svg
   xmlns:dc="http://purl.org/dc/elements/1.1/"
   xmlns:cc="http://creativecommons.org/ns#"
   xmlns:rdf="http://www.w3.org/1999/02/22-rdf-syntax-ns#"
   xmlns:svg="http://www.w3.org/2000/svg"
   xmlns="http://www.w3.org/2000/svg"
   xmlns:sodipodi="http://sodipodi.sourceforge.net/DTD/sodipodi-0.dtd"
   xmlns:inkscape="http://www.inkscape.org/namespaces/inkscape"
   width="87.290382mm"
   height="26.131872mm"
   viewBox="0 0 87.290384 26.131872"
   version="1.1"
   id="svg1005"
   inkscape:version="1.0 (4035a4fb49, 2020-05-01)"
   sodipodi:docname="2021-AT-01-itsinformatics-compatible.svg">
  <defs
     id="defs999" />
  <sodipodi:namedview
     id="base"
     pagecolor="#ffffff"
     bordercolor="#666666"
     borderopacity="1.0"
     inkscape:pageopacity="0.0"
     inkscape:pageshadow="2"
     inkscape:zoom="0.98994949"
     inkscape:cx="300.12527"
     inkscape:cy="120.06327"
     inkscape:document-units="mm"
     inkscape:current-layer="layer1"
     inkscape:document-rotation="0"
     showgrid="false"
     inkscape:snap-object-midpoints="true"
     fit-margin-top="0"
     fit-margin-left="0"
     fit-margin-right="0"
     fit-margin-bottom="0"
     inkscape:window-width="1680"
     inkscape:window-height="987"
     inkscape:window-x="-8"
     inkscape:window-y="222"
     inkscape:window-maximized="1" />
  <metadata
     id="metadata1002">
    <rdf:RDF>
      <cc:Work
         rdf:about="">
        <dc:format>image/svg+xml</dc:format>
        <dc:type
           rdf:resource="http://purl.org/dc/dcmitype/StillImage" />
        <dc:title></dc:title>
      </cc:Work>
    </rdf:RDF>
  </metadata>
  <g
     inkscape:label="Ebene 1"
     inkscape:groupmode="layer"
     id="layer1"
     transform="translate(3.3529536,-86.338813)">
    <path
       sodipodi:nodetypes="ccccc"
       style="font-variation-settings:normal;opacity:1;vector-effect:none;fill:none;fill-opacity:1;stroke:#000000;stroke-width:0.367001;stroke-linecap:round;stroke-linejoin:round;stroke-miterlimit:4;stroke-dasharray:none;stroke-dashoffset:0;stroke-opacity:1;paint-order:markers fill stroke;stop-color:#000000;stop-opacity:1"
       d="m 7.6321097,91.534194 -5.7896855,15.741116 26.3170268,10e-6 7.697073,-15.741129 z"
       id="path1677" />
    <path
       style="font-variation-settings:normal;opacity:1;vector-effect:none;fill:none;fill-opacity:1;stroke:#000000;stroke-width:0.367001;stroke-linecap:round;stroke-linejoin:round;stroke-miterlimit:4;stroke-dasharray:none;stroke-dashoffset:0;stroke-opacity:1;paint-order:markers fill stroke;stop-color:#000000;stop-opacity:1"
       d="m 35.856524,91.534206 29.061086,10e-7 -8.500472,15.741113 -28.257693,-10e-6"
       id="path1679"
       sodipodi:nodetypes="cccc" />
    <path
       sodipodi:nodetypes="cc"
       style="font-variation-settings:normal;opacity:1;vector-effect:none;fill:none;fill-opacity:1;stroke:#000000;stroke-width:0.367001;stroke-linecap:round;stroke-linejoin:round;stroke-miterlimit:4;stroke-dasharray:none;stroke-dashoffset:0;stroke-opacity:1;paint-order:markers fill stroke;stop-color:#000000;stop-opacity:1"
       d="M 56.417069,107.27531 H 77.355708"
       id="path1681" />
    <g
       id="g1632"
       transform="translate(-6.3500003,-3.4858639)">
      <circle
         style="fill:#f9f9f9;stroke-width:0.840999;stroke-linecap:round;stroke-linejoin:round;paint-order:markers fill stroke;stop-color:#000000"
         id="path931-1"
         cx="13.98211"
         cy="95.020058"
         r="5.1953778" />
      <circle
         r="4.7085981"
         cy="95.020065"
         cx="13.98211"
         id="path931"
         style="font-variation-settings:normal;opacity:1;vector-effect:none;fill:none;fill-opacity:1;stroke:#000000;stroke-width:0.367001;stroke-linecap:round;stroke-linejoin:round;stroke-miterlimit:4;stroke-dasharray:none;stroke-dashoffset:0;stroke-opacity:1;paint-order:markers fill stroke;stop-color:#000000;stop-opacity:1" />
      <g
         style="font-size:7.82309px;line-height:1.25;font-family:Arial;-inkscape-font-specification:'Arial, Normal';letter-spacing:0px;word-spacing:0px;stroke-width:0.264583"
         id="text929"
         aria-label="A">
        <path
           id="path2323"
           style="stroke-width:0.264583"
           d="m 11.361678,97.623344 2.150586,-5.599926 h 0.798352 l 2.291921,5.599926 h -0.844191 l -0.653197,-1.696021 h -2.34158 l -0.614998,1.696021 z m 1.615804,-2.29956 h 1.898475 l -0.58444,-1.550867 q -0.267391,-0.706675 -0.397267,-1.16124 -0.106956,0.538602 -0.301769,1.069563 z" />
      </g>
    </g>
    <g
       id="g1638"
       transform="translate(-35.98335,13.398723)">
      <circle
         r="5.1953778"
         cy="78.135468"
         cx="71.839874"
         id="path931-1-4"
         style="fill:#f9f9f9;stroke-width:0.840999;stroke-linecap:round;stroke-linejoin:round;paint-order:markers fill stroke;stop-color:#000000" />
      <circle
         style="font-variation-settings:normal;opacity:1;vector-effect:none;fill:none;fill-opacity:1;stroke:#000000;stroke-width:0.367001;stroke-linecap:round;stroke-linejoin:round;stroke-miterlimit:4;stroke-dasharray:none;stroke-dashoffset:0;stroke-opacity:1;paint-order:markers fill stroke;stop-color:#000000;stop-opacity:1"
         id="path931-3"
         cx="71.839874"
         cy="78.135483"
         r="4.7085981" />
      <g
         style="font-size:7.82309px;line-height:1.25;font-family:Arial;-inkscape-font-specification:'Arial, Normal';letter-spacing:0px;word-spacing:0px;stroke-width:0.264583"
         id="text929-0"
         aria-label="B">
        <path
           id="path2326"
           style="stroke-width:0.264583"
           d="m 69.803884,80.738754 v -5.599927 h 2.100927 q 0.641738,0 1.027545,0.171895 0.389626,0.168074 0.607359,0.523322 0.221552,0.351427 0.221552,0.737234 0,0.359068 -0.194813,0.676117 -0.194813,0.317049 -0.58826,0.511862 0.508043,0.148975 0.779253,0.508043 0.275031,0.359067 0.275031,0.84801 0,0.393447 -0.168074,0.733415 -0.164255,0.336148 -0.408726,0.519502 -0.244472,0.183354 -0.614999,0.27885 -0.366707,0.09168 -0.901489,0.09168 z m 0.741054,-3.246888 h 1.210899 q 0.492763,0 0.706675,-0.06494 0.28267,-0.08404 0.424005,-0.278851 0.145155,-0.194813 0.145155,-0.488943 0,-0.27885 -0.133695,-0.488943 -0.133695,-0.213913 -0.381987,-0.29031 -0.248291,-0.08022 -0.85183,-0.08022 h -1.119222 z m 0,2.586051 h 1.394252 q 0.359068,0 0.504223,-0.02674 0.255931,-0.04584 0.427825,-0.152795 0.171894,-0.106956 0.28267,-0.309409 0.110776,-0.206273 0.110776,-0.473664 0,-0.313229 -0.160434,-0.542421 -0.160434,-0.233012 -0.446925,-0.324689 -0.28267,-0.0955 -0.817451,-0.0955 h -1.294936 z" />
      </g>
    </g>
    <g
       id="g1644"
       transform="translate(-77.157646,15.345837)">
      <circle
         r="5.1953778"
         cy="76.188354"
         cx="142.07526"
         id="path931-1-1"
         style="fill:#f9f9f9;stroke-width:0.840999;stroke-linecap:round;stroke-linejoin:round;paint-order:markers fill stroke;stop-color:#000000" />
      <circle
         style="font-variation-settings:normal;opacity:1;vector-effect:none;fill:none;fill-opacity:1;stroke:#000000;stroke-width:0.367001;stroke-linecap:round;stroke-linejoin:round;stroke-miterlimit:4;stroke-dasharray:none;stroke-dashoffset:0;stroke-opacity:1;paint-order:markers fill stroke;stop-color:#000000;stop-opacity:1"
         id="path931-33"
         cx="142.07526"
         cy="76.18837"
         r="4.7085981" />
      <g
         style="font-size:7.82309px;line-height:1.25;font-family:Arial;-inkscape-font-specification:'Arial, Normal';letter-spacing:0px;word-spacing:0px;stroke-width:0.264583"
         id="text929-2"
         aria-label="C">
        <path
           id="path2329"
           style="stroke-width:0.264583"
           d="m 143.77039,77.074101 0.74105,0.187174 q -0.23301,0.912949 -0.84037,1.394252 -0.60354,0.477483 -1.47829,0.477483 -0.90531,0 -1.47447,-0.366707 -0.56534,-0.370527 -0.86329,-1.069563 -0.29413,-0.699036 -0.29413,-1.501208 0,-0.87475 0.33233,-1.524128 0.33615,-0.653197 0.95115,-0.989345 0.61882,-0.339969 1.35987,-0.339969 0.84037,0 1.41335,0.427825 0.57298,0.427826 0.79835,1.203259 l -0.72959,0.171894 q -0.19481,-0.611179 -0.56534,-0.890029 -0.37053,-0.278851 -0.93205,-0.278851 -0.64556,0 -1.08102,0.30941 -0.43165,0.309409 -0.60736,0.832731 -0.17572,0.519502 -0.17572,1.073383 0,0.714315 0.20628,1.249097 0.21009,0.530962 0.64938,0.794532 0.43928,0.263571 0.95114,0.263571 0.62264,0 1.05429,-0.359067 0.43164,-0.359068 0.58444,-1.065744 z" />
      </g>
    </g>
    <g
       id="g1675"
       transform="translate(0,-14.066727)">
      <circle
         r="5.1953778"
         cy="121.34203"
         cx="1.8424243"
         id="path931-1-3"
         style="fill:#f9f9f9;stroke-width:0.840999;stroke-linecap:round;stroke-linejoin:round;paint-order:markers fill stroke;stop-color:#000000" />
      <circle
         style="font-variation-settings:normal;opacity:1;vector-effect:none;fill:none;fill-opacity:1;stroke:#000000;stroke-width:0.367001;stroke-linecap:round;stroke-linejoin:round;stroke-miterlimit:4;stroke-dasharray:none;stroke-dashoffset:0;stroke-opacity:1;paint-order:markers fill stroke;stop-color:#000000;stop-opacity:1"
         id="path931-6"
         cx="1.8424243"
         cy="121.34204"
         r="4.7085981" />
      <g
         style="font-size:7.82309px;line-height:1.25;font-family:Arial;-inkscape-font-specification:'Arial, Normal';letter-spacing:0px;word-spacing:0px;stroke-width:0.264583"
         id="text929-1"
         aria-label="D">
        <path
           id="path2332"
           style="stroke-width:0.264583"
           d="m -0.16301482,124.04366 v -5.59992 H 1.7660186 q 0.6531975,0 0.9969856,0.0802 0.4813034,0.11078 0.8212717,0.40109 0.4431047,0.37435 0.6608372,0.95879 0.2215523,0.58062 0.2215523,1.32931 0,0.63792 -0.1489748,1.13068 -0.1489749,0.49276 -0.3819868,0.81745 -0.233012,0.32087 -0.5118624,0.50805 -0.2750305,0.18335 -0.6684769,0.27885 -0.3896266,0.0955 -0.897669,0.0955 z m 0.74105443,-0.66083 H 1.7736584 q 0.5538808,0 0.86711,-0.10314 0.3170491,-0.10314 0.5042226,-0.29031 0.2635709,-0.26357 0.4087259,-0.70668 0.1489749,-0.44692 0.1489749,-1.08102 0,-0.87857 -0.29031,-1.34841 -0.2864901,-0.47367 -0.6990359,-0.6341 -0.2979497,-0.1146 -0.9587869,-0.1146 H 0.57803961 Z" />
      </g>
    </g>
    <g
       id="g1669"
       transform="translate(-29.633346,-5.4241104)">
      <g
         id="g1662">
        <circle
           style="fill:#f9f9f9;stroke-width:0.840999;stroke-linecap:round;stroke-linejoin:round;paint-order:markers fill stroke;stop-color:#000000"
           id="path931-1-7"
           cx="57.792797"
           cy="112.69942"
           r="5.1953778" />
        <circle
           r="4.7085981"
           cy="112.69943"
           cx="57.792797"
           id="path931-0"
           style="font-variation-settings:normal;opacity:1;vector-effect:none;fill:none;fill-opacity:1;stroke:#000000;stroke-width:0.367001;stroke-linecap:round;stroke-linejoin:round;stroke-miterlimit:4;stroke-dasharray:none;stroke-dashoffset:0;stroke-opacity:1;paint-order:markers fill stroke;stop-color:#000000;stop-opacity:1" />
        <g
           style="font-size:7.82309px;line-height:1.25;font-family:Arial;-inkscape-font-specification:'Arial, Normal';letter-spacing:0px;word-spacing:0px;stroke-width:0.264583"
           id="text929-5"
           aria-label="E">
          <path
             id="path2335"
             style="stroke-width:0.264583"
             d="m 55.802645,115.3027 v -5.59993 h 4.04906 v 0.66084 H 56.5437 v 1.71512 h 3.097913 v 0.65701 H 56.5437 v 1.90612 h 3.437881 v 0.66084 z" />
        </g>
      </g>
    </g>
    <g
       id="g1656"
       transform="translate(-54.504195,-3.7551498)">
      <circle
         r="5.1953778"
         cy="111.03046"
         cx="110.92133"
         id="path931-1-8"
         style="fill:#f9f9f9;stroke-width:0.840999;stroke-linecap:round;stroke-linejoin:round;paint-order:markers fill stroke;stop-color:#000000" />
      <circle
         style="font-variation-settings:normal;opacity:1;vector-effect:none;fill:none;fill-opacity:1;stroke:#000000;stroke-width:0.367001;stroke-linecap:round;stroke-linejoin:round;stroke-miterlimit:4;stroke-dasharray:none;stroke-dashoffset:0;stroke-opacity:1;paint-order:markers fill stroke;stop-color:#000000;stop-opacity:1"
         id="path931-2"
         cx="110.92133"
         cy="111.03047"
         r="4.7085981" />
      <g
         style="font-size:7.82309px;line-height:1.25;font-family:Arial;-inkscape-font-specification:'Arial, Normal';letter-spacing:0px;word-spacing:0px;stroke-width:0.264583"
         id="text929-4"
         aria-label="F">
        <path
           id="path2338"
           style="stroke-width:0.264583"
           d="m 109.37133,113.91189 v -5.59993 h 3.77785 v 0.66084 h -3.0368 v 1.73422 h 2.62807 v 0.66084 h -2.62807 v 2.54403 z" />
      </g>
    </g>
    <g
       transform="translate(-85.725048)"
       id="g1650">
      <circle
         r="5.1953778"
         cy="107.27531"
         cx="164.4671"
         id="path931-1-2"
         style="fill:#f9f9f9;stroke-width:0.840999;stroke-linecap:round;stroke-linejoin:round;paint-order:markers fill stroke;stop-color:#000000" />
      <circle
         style="font-variation-settings:normal;opacity:1;vector-effect:none;fill:none;fill-opacity:1;stroke:#000000;stroke-width:0.367001;stroke-linecap:round;stroke-linejoin:round;stroke-miterlimit:4;stroke-dasharray:none;stroke-dashoffset:0;stroke-opacity:1;paint-order:markers fill stroke;stop-color:#000000;stop-opacity:1"
         id="path931-19"
         cx="164.4671"
         cy="107.27532"
         r="4.7085981" />
      <g
         style="font-size:7.82309px;line-height:1.25;font-family:Arial;-inkscape-font-specification:'Arial, Normal';letter-spacing:0px;word-spacing:0px;stroke-width:0.264583"
         id="text929-17"
         aria-label="G">
        <path
           id="path2341"
           style="stroke-width:0.264583"
           d="m 164.66487,107.82125 v -0.65701 l 2.37214,-0.004 v 2.078 q -0.54624,0.43547 -1.12686,0.65702 -0.58062,0.21773 -1.1918,0.21773 -0.82509,0 -1.50121,-0.35142 -0.6723,-0.35525 -1.01608,-1.02373 -0.34379,-0.66848 -0.34379,-1.49357 0,-0.81745 0.33997,-1.52412 0.34378,-0.7105 0.98552,-1.05429 0.64174,-0.34379 1.47829,-0.34379 0.60736,0 1.0963,0.19864 0.49277,0.19481 0.77162,0.54624 0.27885,0.35143 0.424,0.91677 l -0.66847,0.18335 q -0.12606,-0.42783 -0.31323,-0.6723 -0.18718,-0.24447 -0.53479,-0.38962 -0.3476,-0.14898 -0.77161,-0.14898 -0.50804,0 -0.87857,0.15662 -0.37053,0.15279 -0.59972,0.4049 -0.22537,0.25211 -0.35143,0.55388 -0.21391,0.51951 -0.21391,1.12686 0,0.7487 0.25593,1.25292 0.25975,0.50422 0.75252,0.7487 0.49276,0.24447 1.04664,0.24447 0.4813,0 0.93969,-0.18336 0.45838,-0.18717 0.69521,-0.39726 v -1.04283 z" />
      </g>
    </g>
  </g>
</svg>
