<?xml version="1.0" encoding="UTF-8" standalone="no"?>
<svg
   xmlns:dc="http://purl.org/dc/elements/1.1/"
   xmlns:cc="http://creativecommons.org/ns#"
   xmlns:rdf="http://www.w3.org/1999/02/22-rdf-syntax-ns#"
   xmlns:svg="http://www.w3.org/2000/svg"
   xmlns="http://www.w3.org/2000/svg"
   xmlns:sodipodi="http://sodipodi.sourceforge.net/DTD/sodipodi-0.dtd"
   xmlns:inkscape="http://www.inkscape.org/namespaces/inkscape"
   height="300"
   width="153.12453"
   inkscape:version="1.0 (4035a4fb49, 2020-05-01)"
   sodipodi:docname="2020-CH-07_taskbody_ice.svg"
   xml:space="preserve"
   viewBox="0 0 153.12453 300.00001"
   y="0px"
   x="0px"
   id="Layer_1"
   version="1.1"><metadata
   id="metadata318"><rdf:RDF><cc:Work
       rdf:about=""><dc:format>image/svg+xml</dc:format><dc:type
         rdf:resource="http://purl.org/dc/dcmitype/StillImage" /><dc:title></dc:title></cc:Work></rdf:RDF></metadata><defs
   id="defs316">
		
		
		
		
		
		
		
		
		
		
		
		
		
	</defs><sodipodi:namedview
   fit-margin-bottom="0"
   fit-margin-right="0"
   fit-margin-left="0"
   fit-margin-top="0"
   inkscape:document-rotation="0"
   inkscape:current-layer="g311"
   inkscape:window-maximized="1"
   inkscape:window-y="-8"
   inkscape:window-x="-8"
   inkscape:cy="171.30499"
   inkscape:cx="99.129997"
   inkscape:zoom="1.9555764"
   showgrid="false"
   id="namedview314"
   inkscape:window-height="837"
   inkscape:window-width="1600"
   inkscape:pageshadow="2"
   inkscape:pageopacity="0"
   guidetolerance="10"
   gridtolerance="10"
   objecttolerance="10"
   borderopacity="1"
   bordercolor="#666666"
   pagecolor="#ffffff" />
<style
   id="style273"
   type="text/css">
	.st0{fill:#FCB323;}
	.st1{fill:#693F38;}
	.st2{fill:#524B4B;}
</style>
<g
   transform="matrix(0.94088038,0,0,0.94088038,-19.800447,-8.1440345)"
   id="g311">
	<path
   id="path275"
   d="m 51.237043,169.48275 c 0,0 39.669886,150.17602 43.966299,150.19587 4.286491,0.0198 60.377998,-145.98876 60.377998,-145.98876 0,0 -13.38535,-2.19286 -15.28054,-6.97547 0,0 -1.70666,9.90259 -13.4449,10.09112 -11.73823,0.18852 -22.71244,-12.49235 -28.705596,-10.59716 -5.983227,1.89518 -6.588495,13.09761 -18.118361,10.74599 -11.529867,-2.34169 -19.57696,-10.12088 -19.57696,-10.12088 0,0 -2.212703,0.51596 -9.21794,2.64929 z"
   class="st0"
   style="stroke-width:0.992243" />
	<path
   style="fill:#ffaaee;stroke-width:0.992243"
   id="path277"
   d="m 49.312091,137.35391 c 0,0 -17.919913,24.22066 -8.711895,27.04855 9.21794,2.82789 21.085169,-10.63684 21.085169,-10.63684 0,0 6.528961,12.77017 14.139466,11.71839 7.610506,-1.05178 23.86345,-14.1097 23.86345,-14.1097 0,0 9.297329,18.55495 21.859119,14.20892 12.5618,-4.34602 12.97855,-11.75808 18.83278,-11.15281 5.85424,0.60527 14.64551,20.16239 19.68611,11.13297 5.05051,-9.02942 -2.42108,-22.10718 -2.42108,-22.10718 0,0 44.8097,-18.5351 16.21325,-87.843296 C 151.01702,0.20605014 79.754115,11.567235 51.891924,34.636891 33.922399,49.52054 19.892079,81.341781 49.312091,137.35391 Z"
   class="st1" />
	<g
   id="g281"
   transform="matrix(0.99224326,0,0,0.99224326,0.16628293,0.06713609)">
			<g
   style="opacity:1"
   id="g839"><path
     style="color:#000000;font-style:normal;font-variant:normal;font-weight:normal;font-stretch:normal;font-size:medium;line-height:normal;font-family:sans-serif;font-variant-ligatures:normal;font-variant-position:normal;font-variant-caps:normal;font-variant-numeric:normal;font-variant-alternates:normal;font-variant-east-asian:normal;font-feature-settings:normal;font-variation-settings:normal;text-indent:0;text-align:start;text-decoration:none;text-decoration-line:none;text-decoration-style:solid;text-decoration-color:#000000;letter-spacing:normal;word-spacing:normal;text-transform:none;writing-mode:lr-tb;direction:ltr;text-orientation:mixed;dominant-baseline:auto;baseline-shift:baseline;text-anchor:start;white-space:normal;shape-padding:0;shape-margin:0;inline-size:0;clip-rule:nonzero;display:inline;overflow:visible;visibility:visible;isolation:auto;mix-blend-mode:normal;color-interpolation:sRGB;color-interpolation-filters:linearRGB;solid-color:#000000;solid-opacity:1;vector-effect:none;fill:#000000;fill-opacity:1;fill-rule:nonzero;stroke:none;stroke-width:2.4881;stroke-linecap:butt;stroke-linejoin:miter;stroke-miterlimit:4;stroke-dasharray:none;stroke-dashoffset:0;stroke-opacity:1;color-rendering:auto;image-rendering:auto;shape-rendering:auto;text-rendering:auto;enable-background:accumulate;stop-color:#000000;stop-opacity:1"
     d="m 114.63086,281.61914 -2.26758,5.74414 0.002,-0.01 c -0.7112,1.7593 -1.49764,3.48949 -2.25195,5.23242 0.70603,-1.76208 1.38825,-3.53568 2.13086,-5.27735 v -0.002 c 0.80455,-1.89178 1.58629,-3.79375 2.38672,-5.6875 z"
     id="path888" /><path
     style="color:#000000;font-style:normal;font-variant:normal;font-weight:normal;font-stretch:normal;font-size:medium;line-height:normal;font-family:sans-serif;font-variant-ligatures:normal;font-variant-position:normal;font-variant-caps:normal;font-variant-numeric:normal;font-variant-alternates:normal;font-variant-east-asian:normal;font-feature-settings:normal;font-variation-settings:normal;text-indent:0;text-align:start;text-decoration:none;text-decoration-line:none;text-decoration-style:solid;text-decoration-color:#000000;letter-spacing:normal;word-spacing:normal;text-transform:none;writing-mode:lr-tb;direction:ltr;text-orientation:mixed;dominant-baseline:auto;baseline-shift:baseline;text-anchor:start;white-space:normal;shape-padding:0;shape-margin:0;inline-size:0;clip-rule:nonzero;display:inline;overflow:visible;visibility:visible;isolation:auto;mix-blend-mode:normal;color-interpolation:sRGB;color-interpolation-filters:linearRGB;solid-color:#000000;solid-opacity:1;vector-effect:none;fill:#000000;fill-opacity:1;fill-rule:nonzero;stroke:none;stroke-width:2.4881;stroke-linecap:butt;stroke-linejoin:miter;stroke-miterlimit:4;stroke-dasharray:none;stroke-dashoffset:0;stroke-opacity:1;color-rendering:auto;image-rendering:auto;shape-rendering:auto;text-rendering:auto;enable-background:accumulate;stop-color:#000000;stop-opacity:1"
     d="m 145.47852,204.36914 c -0.50276,1.31339 -0.98651,2.63245 -1.49024,3.94531 v 0.002 c -1.68014,4.4029 -3.45568,8.74257 -5.21094,13.0957 1.68877,-4.37755 3.35779,-8.75834 5.11719,-13.12695 0.5265,-1.3073 1.0591,-2.60876 1.58399,-3.91602 z"
     id="path880" /><path
     style="color:#000000;font-style:normal;font-variant:normal;font-weight:normal;font-stretch:normal;font-size:medium;line-height:normal;font-family:sans-serif;font-variant-ligatures:normal;font-variant-position:normal;font-variant-caps:normal;font-variant-numeric:normal;font-variant-alternates:normal;font-variant-east-asian:normal;font-feature-settings:normal;font-variation-settings:normal;text-indent:0;text-align:start;text-decoration:none;text-decoration-line:none;text-decoration-style:solid;text-decoration-color:#000000;letter-spacing:normal;word-spacing:normal;text-transform:none;writing-mode:lr-tb;direction:ltr;text-orientation:mixed;dominant-baseline:auto;baseline-shift:baseline;text-anchor:start;white-space:normal;shape-padding:0;shape-margin:0;inline-size:0;clip-rule:nonzero;display:inline;overflow:visible;visibility:visible;isolation:auto;mix-blend-mode:normal;color-interpolation:sRGB;color-interpolation-filters:linearRGB;solid-color:#000000;solid-opacity:1;vector-effect:none;fill:#000000;fill-opacity:1;fill-rule:nonzero;stroke:none;stroke-width:2.4881;stroke-linecap:butt;stroke-linejoin:miter;stroke-miterlimit:4;stroke-dasharray:none;stroke-dashoffset:0;stroke-opacity:1;color-rendering:auto;image-rendering:auto;shape-rendering:auto;text-rendering:auto;enable-background:accumulate;stop-color:#000000;stop-opacity:1"
     d="m 123.31641,181.38672 c -0.009,0.0123 -0.0167,0.0248 -0.0254,0.0371 3.6e-4,-5.7e-4 -3.7e-4,-0.001 0,-0.002 z"
     id="path878" /><path
     style="color:#000000;font-style:normal;font-variant:normal;font-weight:normal;font-stretch:normal;font-size:medium;line-height:normal;font-family:sans-serif;font-variant-ligatures:normal;font-variant-position:normal;font-variant-caps:normal;font-variant-numeric:normal;font-variant-alternates:normal;font-variant-east-asian:normal;font-feature-settings:normal;font-variation-settings:normal;text-indent:0;text-align:start;text-decoration:none;text-decoration-line:none;text-decoration-style:solid;text-decoration-color:#000000;letter-spacing:normal;word-spacing:normal;text-transform:none;writing-mode:lr-tb;direction:ltr;text-orientation:mixed;dominant-baseline:auto;baseline-shift:baseline;text-anchor:start;white-space:normal;shape-padding:0;shape-margin:0;inline-size:0;clip-rule:nonzero;display:inline;overflow:visible;visibility:visible;isolation:auto;mix-blend-mode:normal;color-interpolation:sRGB;color-interpolation-filters:linearRGB;solid-color:#000000;solid-opacity:1;vector-effect:none;fill:#000000;fill-opacity:1;fill-rule:nonzero;stroke:none;stroke-width:2.4881;stroke-linecap:butt;stroke-linejoin:miter;stroke-miterlimit:4;stroke-dasharray:none;stroke-dashoffset:0;stroke-opacity:1;color-rendering:auto;image-rendering:auto;shape-rendering:auto;text-rendering:auto;enable-background:accumulate;stop-color:#000000;stop-opacity:1"
     d="m 79.419922,170.68359 c 0.0032,-6.1e-4 0.0065,6.2e-4 0.0098,0 l -0.02148,0.004 c 0.0041,-7e-4 0.0076,-0.003 0.01172,-0.004 z"
     id="path876" /><path
     style="color:#000000;font-style:normal;font-variant:normal;font-weight:normal;font-stretch:normal;font-size:medium;line-height:normal;font-family:sans-serif;font-variant-ligatures:normal;font-variant-position:normal;font-variant-caps:normal;font-variant-numeric:normal;font-variant-alternates:normal;font-variant-east-asian:normal;font-feature-settings:normal;font-variation-settings:normal;text-indent:0;text-align:start;text-decoration:none;text-decoration-line:none;text-decoration-style:solid;text-decoration-color:#000000;letter-spacing:normal;word-spacing:normal;text-transform:none;writing-mode:lr-tb;direction:ltr;text-orientation:mixed;dominant-baseline:auto;baseline-shift:baseline;text-anchor:start;white-space:normal;shape-padding:0;shape-margin:0;inline-size:0;clip-rule:nonzero;display:inline;overflow:visible;visibility:visible;isolation:auto;mix-blend-mode:normal;color-interpolation:sRGB;color-interpolation-filters:linearRGB;solid-color:#000000;solid-opacity:1;vector-effect:none;fill:#000000;fill-opacity:1;fill-rule:nonzero;stroke:none;stroke-width:2.4881;stroke-linecap:butt;stroke-linejoin:miter;stroke-miterlimit:4;stroke-dasharray:none;stroke-dashoffset:0;stroke-opacity:1;color-rendering:auto;image-rendering:auto;shape-rendering:auto;text-rendering:auto;enable-background:accumulate;stop-color:#000000;stop-opacity:1"
     d="m 162.74805,165.7832 -0.008,0.01 c 0.001,-0.002 6.1e-4,-0.004 0.002,-0.006 0.002,-0.002 0.004,-0.002 0.006,-0.004 z"
     id="path874" /></g>
		</g><g
   id="g285">
			
		</g><path
   class="st2"
   d="m 113.79798,147.14736 c -3.38355,-2.73859 -5.94353,-5.71533 -10.41855,-6.12214 -2.68898,-0.24806 -5.467264,0.96247 -7.908182,1.93487 -1.726504,0.69457 -6.886168,5.96338 -7.541049,3.2744 -2.341694,-9.6446 -12.740403,-11.13297 -18.614483,-2.79812 -0.09923,0.13891 0.03969,0.30759 0.198448,0.25798 1.924952,-0.65488 3.740757,-1.50821 5.606175,-2.31193 7.064771,-3.03627 10.299484,3.03627 11.797771,8.77143 0.168682,0.64496 0.992244,1.25023 1.597512,0.65488 4.415483,-4.2468 12.035918,-10.47808 18.594638,-6.41981 2.10355,1.29983 3.56215,3.0958 5.81454,4.23687 0.91287,0.47628 1.60744,-0.87316 0.87318,-1.47843 z"
   id="path287"
   style="fill:#000000;stroke-width:0.992243" /><path
   class="st2"
   d="m 147.85177,140.12227 c -1.88526,-2.94696 -6.16183,-1.86542 -8.54322,-0.1786 -2.6989,1.9051 -3.73083,4.93144 -4.43532,7.94787 -0.0397,0.15876 0.17861,0.26791 0.29768,0.16868 1.89518,-1.50821 3.29424,-3.35378 5.07035,-5.01083 2.2524,-2.09363 4.73301,-0.76403 7.28307,-1.66697 0.53581,-0.19845 0.58542,-0.8434 0.32744,-1.26015 z"
   id="path289"
   style="fill:#000000;stroke-width:0.992243" />
<path
   sodipodi:nodetypes="ccccccccccccccccccccccccscccccccccccccccccccccccscccccccccccccccccscccccccccccccccccccccccccccccccccccccccccccccccccccccccccccccccccsccccccccccccccccccscccccccccsccccccccccccccccccccccccccccccscccccccccccccccccccccccccccccccccccccccscccsccccsccccccccccccccccccccccccccccccccccccccccccccccccsccccccccccccccccccccccccccccccccccccccccccccccccccccccccccccccccccccccccccccccccccccccccccccccccccccccccccccccccccccccccccccccccccccccccsccsscccccccccccccccccccccccccscccccccccccccccccccccccccsccccccccccccccccccccccsscccccscccscccccccccccccccccccccccccccccccscccsccsccccccccccccccccccccccccccccsccc"
   d="m 102.68485,8.6557598 -0.0125,0.00206 -2.887505,0.057677 -1.498762,0.028839 -1.502915,0.1050552 -2.947704,0.2142301 -0.0519,0.00412 c -3.843431,0.4668066 -7.749903,1.0510559 -11.618525,2.0310659 -0.0045,0.0011 -0.0079,9.16e-4 -0.01245,0.0021 -0.981414,0.20927 -1.870495,0.473881 -2.694451,0.704487 h -0.04567 l -0.195129,0.06386 c -0.856145,0.245555 -1.800485,0.481894 -2.80032,0.805423 l -0.03737,0.01236 -0.04359,0.01648 -0.0062,0.0021 -0.01038,0.0041 c -1.733737,0.590853 -3.579264,1.156783 -5.457405,1.923952 -0.0019,7.24e-4 -0.0042,0.0013 -0.0062,0.0021 -3.691494,1.391553 -7.263591,3.058095 -10.709302,4.898454 l -0.01038,0.0062 -0.149461,0.08034 -0.04774,0.04532 c -3.412924,1.856538 -6.672013,3.952414 -9.77102,6.216793 -0.87016,0.631455 -1.627895,1.273683 -2.329101,1.823017 -0.741716,0.581067 -1.508653,1.20043 -2.264751,1.890992 l -0.04152,0.03296 -0.02906,0.02472 c -0.07591,0.06815 -0.08236,0.07941 -0.03114,0.0309 l -2.15058,1.915712 -2.084151,2.080504 -1.066987,1.064971 -0.977724,1.104109 -0.0083,0.0082 -0.02906,0.03502 c -0.592705,0.681512 -1.256676,1.400142 -1.918084,2.1835 l -0.0062,0.0062 -0.02076,0.02678 -0.02906,0.03502 -0.01246,0.01648 c -1.106287,1.432709 -2.3929,2.929533 -3.543474,4.692464 -0.0017,0.0024 -0.0025,0.0059 -0.0042,0.0082 l -0.0062,0.0041 c -2.350815,3.273889 -4.201013,6.777019 -5.849742,10.268626 l -0.0083,0.01648 -0.0083,0.01442 -0.01038,0.02678 c -3.157515,7.166127 -5.349798,14.766148 -6.177725,22.5848 -0.276695,2.029787 -0.346612,3.977335 -0.471217,5.804812 -8.3e-5,0.0012 8.3e-5,0.0029 0,0.0041 l -0.0062,0.0515 v 0.102996 c -0.01948,1.831024 -0.09227,3.777087 0.03321,5.808932 0.05484,1.997753 0.245564,3.912889 0.400639,5.759495 l 0.0042,0.04738 0.375729,2.879746 -0.0021,-0.0041 c 0.133985,1.050997 0.329007,2.009263 0.454611,2.855028 l 0.0042,0.01236 0.0021,0.01236 v 0.0103 l 0.0042,0.01442 c 0.653851,3.84229 1.579703,7.64642 2.74012,11.3748 l 0.0021,0.006 v 0.002 l 0.01038,0.0309 c 1.205542,3.68938 2.6375,7.33722 4.363434,10.85983 2.32e-4,5.1e-4 0.0038,0.005 0.0042,0.006 v 0.002 l 0.0021,0.002 v 0.002 c 0.0037,0.008 0.0066,0.0172 0.01038,0.0247 l 0.0062,0.0103 c 0.0011,0.002 7.86e-4,0.001 0.0021,0.004 l 0.0021,0.004 0.02076,0.0412 0.03529,0.0556 c 2e-5,3e-5 -0.0021,-0.006 -0.0042,-0.0103 0.0066,0.0108 0.0095,0.0167 0.01453,0.0247 0.0068,0.0111 0.01857,0.0295 0.02076,0.0329 l -0.01661,-0.0226 c 1.630289,3.36293 3.493608,6.59144 5.523833,9.70421 v 0.19363 l 0.311378,0.30899 c 1.693179,2.54856 3.552428,4.99586 5.548743,7.393 -1.409313,2.93258 -2.711173,5.91261 -3.753134,9.05533 l -0.04567,0.0474 -0.09134,0.2822 c -0.653989,2.02931 -1.208466,4.14353 -1.550659,6.35069 l -0.01246,0.0927 0.01038,-0.068 v 0.0206 c -0.283867,2.10258 -0.495688,4.58862 0.257404,7.23233 v 0.0309 l 0.0519,0.17509 c 0.429501,1.40778 1.232728,2.89795 2.584431,4.05802 l 0.05605,0.0556 0.04567,0.033 c 1.301789,1.05692 2.682105,1.62025 3.948264,1.98575 l 0.04359,0.0124 c 0.885625,0.23862 1.636256,0.19041 2.39968,0.18951 3.208473,12.65384 6.597772,25.25144 10.096927,37.8178 3.736486,13.45402 7.785925,26.77107 11.483594,40.15579 v 0.0371 l 0.04982,0.14625 c 1.843281,6.43991 3.353861,13.03821 5.038084,19.65149 l 0.153613,0.59944 c 3.53e-4,9.9e-4 0.0017,0.003 0.0021,0.004 1.744035,6.85235 3.810669,13.57634 5.957685,20.24474 l 0.0062,0.0227 6.248303,20.03464 0.02491,0.0803 0.0062,0.0103 c 1.043349,3.2485 2.110918,6.49592 3.234172,9.74128 v 0.0144 l 0.0685,0.19363 c 0.573748,1.64912 1.192245,3.29214 1.864112,4.94583 l 0.0083,0.0433 0.05812,0.12771 c 0.336998,0.79002 0.708912,1.74452 1.382515,2.84267 l 0.04774,0.0803 0.06228,0.0845 c -0.04332,-0.0584 0.195182,0.30756 0.506507,0.64064 l 0.01038,0.0123 0.0042,0.004 0.199281,0.21629 0.128703,0.10712 0.0042,0.004 c 0.09353,0.0774 0.306438,0.24093 0.59992,0.40786 0.392287,0.23232 0.848983,0.38892 1.34515,0.4573 0.368912,0.0537 0.701233,0.0388 0.913374,0.0165 0.117992,-0.0122 0.252042,-0.031 0.392335,-0.0618 -0.144091,0.0315 -0.0146,0.0219 0.205509,-0.0391 0.06809,-0.0189 0.124407,-0.0617 0.186826,-0.0865 l 0.0021,0.002 0.168143,-0.0721 c 0.137295,-0.0551 0.295469,-0.1085 0.400639,-0.16272 -0.04349,0.0224 0.26348,-0.19323 0.491975,-0.34813 l 0.02076,0.0247 c 0.02195,-0.0164 0.05218,-0.0409 0.07681,-0.0597 0.04194,-0.0323 0.08051,-0.0605 0.130779,-0.10095 h 0.0021 c -0.03433,0.0277 0.246482,-0.193 0.456687,-0.44905 l -0.07265,0.0824 c -0.139687,0.14216 -0.130426,0.13815 0.02076,-0.0185 l 0.0042,-0.006 0.0062,-0.004 c 0.12505,-0.1328 0.244122,-0.26315 0.359123,-0.40579 l 0.0062,-0.008 0.01661,-0.0206 0.0083,-0.0103 c 0.428035,-0.55346 0.726641,-1.05412 0.961118,-1.44194 l 0.0062,-0.0103 0.03321,-0.0598 h 0.0021 c 1.803138,-3.21671 3.178968,-6.405 4.583468,-9.52293 l 0.0166,-0.0165 4.35721,-9.80308 0.006,-0.0124 c 1.41722,-3.11016 2.94773,-6.22949 4.42779,-9.40141 l 0.0249,-0.0515 0.0104,-0.0226 c 1.47156,-3.20859 2.88576,-6.44915 4.2202,-9.72482 l 0.0893,-0.22041 v -0.0103 l 15.43808,-38.78595 c 2.53922,-6.45552 5.25223,-12.86126 8.0107,-19.26835 5.7e-4,-9.9e-4 0.001,-0.003 0.002,-0.004 l 0.0104,-0.0288 c 2.83814,-6.47928 5.34346,-13.04882 7.85086,-19.5691 l 0.0789,-0.21217 v -0.004 c 2.49191,-6.44501 4.99036,-12.90969 7.3921,-19.41462 v -0.002 c 0.007,-0.0187 0.0137,-0.0369 0.0208,-0.0556 l 0.006,-0.0185 c 2.37999,-6.33426 4.69774,-12.69044 6.95824,-19.07266 0.91178,-0.55798 2.02834,-1.31695 2.96847,-2.48013 l 0.056,-0.0536 0.0457,-0.0577 c 0.002,-0.002 0.002,-0.005 0.004,-0.008 0.885,-1.12312 1.43784,-2.42331 1.72918,-3.74696 l 0.11002,-0.21836 v -0.21217 c 0.44761,-2.65164 -0.0779,-5.08807 -0.71617,-7.11491 l 0.0187,0.0597 -0.0125,-0.0474 -0.0145,-0.0433 c -0.69191,-2.10338 -1.63321,-4.02965 -2.64671,-5.82335 l -0.081,-0.14831 -0.0249,-0.0247 c -0.48296,-0.82852 -0.97929,-1.64496 -1.51952,-2.4554 l -0.002,-0.004 c -0.001,-0.002 -0.003,-0.004 -0.004,-0.006 l -0.002,-0.002 -0.0685,-0.103 -0.008,-0.006 c -0.0416,-0.0635 -0.0866,-0.12628 -0.12871,-0.18951 l 0.23043,-0.18333 1.15001,-0.98464 0.0249,-0.0391 c 0.297,-0.25973 0.63262,-0.54812 1.00886,-0.95169 l 1.96583,-2.02694 1.02754,-1.06085 0.0104,-0.008 0.0187,-0.0227 c 0.37368,-0.40753 0.67746,-0.78902 0.94035,-1.10205 l 0.10795,-0.10506 0.0394,-0.0762 c 1.16344,-1.39348 2.45133,-2.8495 3.58914,-4.59152 0.51169,-0.72715 1.08068,-1.49554 1.6337,-2.35035 l 0.0104,-0.0165 0.0228,-0.0391 1.47593,-2.48219 0.17022,-0.28221 v -0.0412 c 3.9437,-6.76404 6.46736,-14.2341 7.79065,-21.83499 1.39147,-7.7733 1.35389,-15.701488 0.32383,-23.423185 -1.00443,-7.770734 -3.16895,-15.311772 -6.06977,-22.487983 l -0.006,-0.01648 -0.0145,-0.03708 -0.0291,-0.05356 -0.002,-0.0041 C 171.02907,47.866829 161.95882,34.722303 149.70904,24.926949 l -0.12662,-0.123593 -0.137,-0.06798 C 137.05009,15.057577 121.54424,9.4678288 105.72182,8.7587551 l -0.027,-0.00206 h -0.0145 L 102.7513,8.6557597 Z m -0.0353,7.8708962 h 0.0332 c 0.89837,1.55e-4 1.79937,0.01562 2.70275,0.04326 h 0.0187 0.0374 0.0187 c 0.83595,0 1.71059,0.04314 2.59481,0.109174 l 0.0457,0.0041 h 0.004 l 2.64879,0.187452 c 1.88153,0.240677 3.67645,0.397127 5.32247,0.698307 0.003,5.58e-4 0.007,0.0015 0.0104,0.0021 l 0.0125,0.0041 0.0809,0.01236 h 0.006 c 3.49497,0.495447 6.97766,1.385468 10.46435,2.445107 6.81253,2.182982 13.32033,5.446224 18.8757,9.848406 l 0.0187,0.01442 0.0208,0.01442 c 0.4002,0.311255 0.75952,0.577942 1.04208,0.811604 l 1.02339,0.883698 c 0.73649,0.655889 1.43082,1.217799 2.01357,1.761219 1.37143,1.329864 2.69943,2.538391 3.81541,3.796406 l 0.006,0.0062 0.0436,0.0515 0.027,0.02678 c 2.46579,2.56061 4.69651,5.416596 6.84199,8.377633 4.12253,5.902799 7.62449,12.236433 10.23186,18.88521 v 0.03296 l 0.10171,0.203931 c 5.30715,13.435849 7.60557,28.16212 5.35154,42.289857 -1.15838,7.04889 -3.41108,13.9098 -6.95409,20.03875 -0.004,0.007 -0.009,0.0136 -0.0125,0.0206 l -1.38874,2.38125 c -0.42249,0.6645 -0.94777,1.3798 -1.49046,2.18762 l -0.80335,1.16179 -0.027,0.0433 -0.004,0.006 c -0.18048,0.28651 -0.3892,0.57014 -0.62483,0.85074 l -0.0208,0.0206 -1.75824,2.22058 c -0.31669,0.39119 -0.57726,0.73468 -0.79505,0.9867 -0.003,0.003 -0.007,0.008 -0.0104,0.0103 l -0.89677,0.96405 -1.9513,2.09698 -0.0187,0.0226 c -0.102,0.11867 -0.47702,0.47399 -0.88431,0.86723 v -0.002 l -1.10642,1.0691 -2.76919,2.76439 -0.0768,0.88988 -0.002,0.002 c -0.0478,0.56924 0.20947,1.25717 0.57709,1.8395 l -0.0872,0.0556 0.0934,0.1442 0.0685,0.0927 0.0893,0.13184 0.2055,0.29455 0.39442,0.58708 c 0.2372,0.34901 0.47374,0.72105 0.70786,1.10205 0.47175,0.7677 0.92373,1.55013 1.34515,2.34006 l -0.004,-0.004 c 0.82222,1.55908 1.51471,3.1496 1.98035,4.71925 0.43776,1.56616 0.60546,3.10088 0.37781,4.11568 -0.11128,0.48689 -0.30117,0.86378 -0.55632,1.16591 l -0.004,0.006 -0.0166,0.0206 -0.029,0.035 0.0187,-0.0268 c -0.20326,0.24004 -0.65791,0.5853 -1.31609,0.97845 -0.5813,0.30137 -1.18023,0.52931 -1.79769,0.68182 -0.64421,0.13027 -1.29669,0.18791 -1.94921,0.16068 -1.38613,-0.0789 -2.87332,-0.49122 -4.31985,-1.15355 l -0.0145,-0.006 c -2.96079,-1.36715 -5.82257,-3.58248 -8.17468,-6.03552 l -0.0104,0.0103 c -0.26118,-0.2749 -0.53893,-0.49431 -0.76391,-0.62827 l -0.0187,-0.0103 h -0.002 c -1.73645,-1.01419 -3.97263,-0.39772 -4.9758,1.29156 l -0.002,0.004 -0.0228,0.0391 -0.0104,0.0165 c -1.62951,2.77689 -4.07897,5.35983 -6.79426,7.05105 h -0.0934 l -0.21796,0.21835 c -1.4285,0.85226 -2.89625,1.51892 -4.36759,1.84979 l -0.027,0.006 -0.62483,0.16274 -0.56255,0.0865 -1.24344,0.18539 -1.27041,0.033 -0.64352,0.0185 c 0.0897,-4e-5 -0.13819,-0.0194 -0.46291,-0.0474 l -0.006,-0.002 -0.0789,-0.006 h -0.027 c -2.77393,-0.12926 -5.54999,-1.86989 -8.16846,-4.31138 -0.001,-0.001 -0.002,-0.003 -0.004,-0.004 v -0.002 c -1.33265,-1.24857 -2.67702,-2.65331 -4.13302,-4.10952 l -0.0145,-0.0165 -0.0768,-0.0845 -0.0602,-0.0453 c -1.40088,-1.35595 -3.1726,-3.16412 -5.89334,-4.28666 -1.738459,-0.81713 -3.81792,-0.92884 -5.704428,-0.20393 -1.650175,0.57202 -2.83013,1.50984 -3.684631,2.21646 l -0.0602,0.0474 -0.05812,0.0597 c -1.757764,1.52426 -3.10234,3.06015 -4.396648,4.31756 l -0.0021,0.006 -0.01453,0.0103 -0.0021,0.002 c -1.323494,1.30342 -2.647778,2.447 -4.039601,3.32057 h -0.0021 c -1.387725,0.85751 -2.862912,1.46837 -4.340599,1.71795 v 0.002 l -0.03321,0.004 -0.01661,0.004 c -2.947256,0.55181 -6.237427,-0.3121 -9.127505,-2.08257 l -0.0062,-0.004 c -6.239495,-4.3047 -9.133069,-11.20463 -13.040558,-7.65236 -2.584331,2.46082 -5.628538,4.62029 -8.668743,5.59882 h -0.0021 c -1.451272,0.45364 -2.8516,0.54077 -3.902595,0.23689 h -0.0042 l -0.03114,-0.0124 -0.01661,-0.004 c -0.460664,-0.12765 -1.197621,-0.53496 -1.301558,-0.62209 -0.132507,-0.11507 -0.301315,-0.39777 -0.433852,-0.78277 v -0.97434 h -0.05605 c -0.14382,-1.01428 -0.230609,-2.15663 -0.01661,-3.50389 0.277356,-1.70302 0.751585,-3.44572 1.332694,-5.1992 l 0.0062,-0.0206 c 0.0013,-0.004 0.0029,-0.009 0.0042,-0.0124 1.198024,-3.53706 2.745907,-7.05188 4.506666,-10.37986 0.727102,-1.31757 0.540882,-2.94824 -0.431776,-4.08891 l -0.02491,-0.033 -0.01868,-0.0227 c -2.258664,-2.60958 -4.378266,-5.58166 -6.312654,-8.61452 v -0.002 c -1.932418,-3.02423 -3.688897,-6.17052 -5.29549,-9.40346 -0.0045,-0.009 -0.008,-0.0198 -0.01245,-0.0288 -0.0023,-0.005 -0.006,-0.008 -0.0083,-0.0123 v -0.002 l -0.0021,-0.002 C 33.082216,111.71703 30.526989,104.96094 28.998868,97.977311 V 96.91852 h -0.151537 c -0.639534,-3.174871 -1.097642,-6.398987 -1.210219,-9.630056 l -0.0021,-0.0515 v 0.02884 l -0.0021,-0.03502 c -0.09776,-1.65801 -0.02791,-3.437193 -0.0062,-5.306316 0.140096,-1.890959 0.204053,-3.668595 0.456686,-5.277476 v -0.0021 l 0.0062,-0.02884 0.0062,-0.05356 v -0.0021 c 0.866663,-7.067205 3.006484,-13.997986 6.022037,-20.483696 8.61e-4,-0.0019 0.0012,-0.0043 0.0021,-0.0062 1.590157,-3.209854 3.342878,-6.297866 5.401358,-9.11302 0.0027,-0.0038 0.0056,-0.0065 0.0083,-0.0103 l 0.03114,-0.03914 0.04567,-0.0721 -0.0021,0.0062 c 0.882653,-1.348159 2.051327,-2.699084 3.232096,-4.218685 0.0034,-0.0039 0.007,-0.01048 0.01038,-0.01442 0.527499,-0.614706 1.126435,-1.255071 1.743714,-1.94661 l 0.3093,-0.346064 v -0.0021 l 0.562555,-0.628271 0.927905,-0.922837 1.924311,-1.899233 2.067545,-1.825075 0.0021,-0.0041 0.01245,-0.0103 c 0.587534,-0.539767 1.250377,-1.06506 1.967905,-1.623206 l 0.05812,-0.04532 0.0062,-0.0062 c 0.657319,-0.505678 1.219284,-0.964667 1.76032,-1.371897 h -0.01868 l 0.315529,-0.230709 0.01038,-0.0041 0.07058,-0.05356 -0.01868,0.0206 c 2.913474,-2.105748 5.928152,-4.034431 9.079761,-5.716237 l 0.0021,-0.0021 c 11.898457,-6.371685 25.507102,-9.4623 39.019376,-9.465056 z M 35.962935,117.80395 c 0.02391,0.0197 0.05611,0.0474 0.05605,0.0474 -6.9e-5,-7e-5 0.05918,0.086 0.112096,0.16479 -0.08174,-0.10342 -0.154061,-0.19233 -0.168143,-0.21011 z m 7.913134,32.88021 c -0.01327,0.0522 -0.01781,0.075 -0.02491,0.10299 h -0.0021 c 0.0077,-0.0302 0.01362,-0.0506 0.02699,-0.10299 z m 54.418367,10.44989 v 0.002 c 0.05146,0.0158 0.132413,0.0426 0.265708,0.0968 l 0.0042,0.002 0.01245,0.006 0.01661,0.006 h 0.0062 c 0.729643,0.28289 2.131846,1.43442 3.462516,2.76439 1.33244,1.34155 2.73458,2.88572 4.38212,4.38348 1.6187,1.48057 3.46051,2.94245 5.62347,4.09921 l 0.0602,0.0329 0.0623,0.0288 c 0.34347,0.16499 0.89179,0.49069 1.63992,0.77659 l 0.002,0.002 0.0125,0.004 1.72503,0.6262 1.70219,0.38108 -0.056,-0.0144 c 2.7e-4,9e-5 0.11632,0.0166 0.23042,0.0309 -0.0265,-0.001 -0.0364,9.1e-4 -0.0623,-0.002 0.86095,0.19806 1.61906,0.20857 1.88072,0.23689 h 0.0125 l 0.0374,0.004 0.0332,0.002 0.008,0.002 c 0.1353,0.01 0.51703,0.0639 1.00056,0.0639 h 0.0457 l 0.85525,-0.0309 1.75409,-0.0762 1.74164,-0.26572 0.93828,-0.15243 0.87601,-0.24514 0.0353,-0.0103 v -0.008 c 2.26038,-0.55242 4.30433,-1.51426 6.15904,-2.62432 h 0.0519 l 0.29685,-0.18333 0.002,-0.002 c 2.00595,-1.24002 3.80652,-2.73716 5.38476,-4.42055 l 0.0104,-0.008 0.0104,-0.0124 c 0.58345,-0.63088 1.0459,-1.29455 1.53406,-1.95279 0.49234,0.41548 0.97085,0.83249 1.50914,1.22976 l 0.12039,0.11948 0.0996,0.0494 c 1.70782,1.21298 3.55968,2.33192 5.6131,3.20521 2.07588,0.89685 4.39791,1.55614 6.88559,1.63762 h 0.0208 0.0145 c 0.0429,8.1e-4 0.0658,-0.0103 0.10794,-0.0103 -2.07,4.89808 -4.13266,9.80159 -6.14866,14.72419 -2.69564,6.47543 -5.29623,12.96682 -7.92144,19.43521 -2.62582,6.4699 -5.31116,12.9678 -7.70762,19.61442 l 0.002,0.002 c -2.37884,6.47917 -4.80654,12.91036 -7.41285,19.26217 l 0.0104,-0.0124 -0.0913,0.22042 -0.004,0.0123 -0.0395,0.0927 c -0.0157,0.0387 -0.0299,0.0787 -0.0457,0.1174 v 0.002 c -1.1234,2.7638 -2.26749,5.52344 -3.41062,8.28494 -5.67666,-9.54526 -10.89306,-19.48055 -17.19218,-28.99523 l -0.004,-0.0206 -0.0872,-0.13802 c 0.003,0.006 7e-5,-0.003 -0.0145,-0.0268 l -0.0145,-0.0206 -0.0145,-0.0227 c -0.64864,-0.97598 -1.27961,-1.97449 -1.9077,-2.98274 7.42777,-13.1625 15.20356,-25.97915 23.97605,-38.38015 0.002,-0.003 0.002,-0.007 0.004,-0.0103 l 0.006,-0.006 0.0395,-0.0597 0.004,-0.004 c 0.41741,-0.63509 0.47493,-1.3523 0.35082,-1.96721 -0.12411,-0.61491 -0.41152,-1.18213 -0.9632,-1.60466 -0.44849,-0.34351 -1.11249,-0.60336 -1.84543,-0.54588 -0.8744,0.0687 -1.51278,0.46577 -1.97828,1.14325 -8.51702,11.34573 -16.37695,22.64582 -23.481999,34.88449 -5.176521,-8.98948 -10.130319,-18.33819 -17.609423,-26.3915 l -0.0042,-0.004 c -1.230106,-1.31704 -3.175317,-1.43332 -4.508743,-0.38726 -1.302416,1.02169 -1.675869,2.88414 -0.734851,4.38141 6.149707,9.83037 13.403893,18.45198 19.793215,27.56359 -6.166632,11.29725 -11.358343,27.06188 -19.417486,36.46032 -1.117716,-3.4095 -2.242073,-6.80851 -3.211338,-10.21713 -5.55e-4,-0.002 -0.0015,-0.004 -0.0021,-0.006 -0.01305,-0.0459 -0.03059,-0.0921 -0.04359,-0.13801 l -0.0083,-0.0288 0.01661,0.0474 -0.01245,-0.0412 c -3.916783,-13.37182 -7.415264,-26.88857 -11.18421,-40.37824 -3.43451,-12.30164 -6.931564,-24.57846 -10.557766,-36.83522 2.050141,-0.73454 3.921393,-1.71856 5.590261,-2.83854 l 0.01245,-0.008 c 0.879799,-0.59707 1.637565,-1.25987 2.41006,-1.91159 2.117935,2.30483 4.455342,4.41574 7.178284,6.13027 l 0.04774,0.0515 0.13493,0.0886 0.02076,0.0124 c 1.963854,1.19092 4.115621,2.14021 6.418524,2.74791 2.504148,0.71534 5.056569,0.6795 7.387945,0.36667 h 0.0042 l 0.03944,-0.006 0.02906,-0.004 c 2.448465,-0.39923 4.766805,-1.28941 6.844072,-2.4863 l 0.01868,-0.0103 c 2.061217,-1.19991 3.816837,-2.65959 5.390979,-4.11776 l 0.0042,0.002 c 1.601447,-1.46366 2.969814,-2.92965 4.211897,-3.9303 l 0.0021,-0.002 c 0.601295,-0.47365 1.312482,-0.83971 1.343074,-0.84869 l 0.0083,-0.002 0.08096,-0.0247 h 0.0021 c 0.02483,-0.01 0.02034,-0.0101 0.0685,-0.006 z m 6.217164,62.72823 c 0.003,0.007 0.0166,0.0391 0.0166,0.0391 -1e-5,-4e-5 0.008,0.12788 0.0145,0.22865 -0.0104,-0.0849 -0.0229,-0.2009 -0.0311,-0.26779 z m 0.0394,0.36872 c 6e-5,7.6e-4 0,0.0124 0,0.0124 1e-5,-6e-5 -0.0228,0.16693 -0.0228,0.16685 1e-5,-6e-5 -0.008,0.0365 -0.006,0.0268 0.004,-0.0177 0.0251,-0.17604 0.0291,-0.20599 z m -4.859558,1.10412 c 0.129764,0.20495 0.263447,0.41237 0.392338,0.61796 l 0.002,0.002 c 0.002,0.003 0.0104,0.0146 0.0125,0.0185 0.0184,0.0294 0.038,0.0592 0.0561,0.0886 l -0.0208,-0.0371 c 0.0316,0.0538 0.0602,0.10688 0.13493,0.19569 l -0.10795,-0.14625 c 6.42608,10.48176 9.67708,24.40439 17.87928,35.30265 -2.99043,7.15724 -6.0098,14.3021 -9.06523,21.43126 -1.39503,3.24676 -2.70676,6.52137 -3.98147,9.78249 l -0.008,0.0268 -0.0125,0.035 c -1.24039,3.26987 -2.43952,6.51211 -3.74898,9.6692 -1.335419,3.16214 -2.766048,6.29977 -4.222278,9.43436 -0.781886,1.62323 -1.623658,3.15914 -2.453653,4.71306 -0.148184,-0.42633 -0.299137,-0.837 -0.448383,-1.27096 -1.090892,-3.23818 -2.129612,-6.5145 -3.149063,-9.80102 l -0.02491,-0.0865 c -2.051841,-6.66896 -4.079018,-13.3217 -5.932775,-20.01403 l -0.0083,-0.0309 -0.0062,-0.0144 c -1.832208,-6.73153 -3.691475,-13.4766 -5.860121,-20.18088 -4.41e-4,-10e-4 -0.0016,-0.003 -0.0021,-0.004 -0.363933,-1.13017 -0.735131,-2.24961 -1.104351,-3.36794 3.926173,-2.78374 6.748573,-6.93061 9.007106,-11.2924 2.583922,-4.99019 4.576988,-10.24383 6.505709,-13.8302 2.032277,-3.78151 4.095136,-7.51372 6.167346,-11.2409 z"
   style="color:#000000;font-style:normal;font-variant:normal;font-weight:normal;font-stretch:normal;font-size:medium;line-height:normal;font-family:sans-serif;font-variant-ligatures:normal;font-variant-position:normal;font-variant-caps:normal;font-variant-numeric:normal;font-variant-alternates:normal;font-variant-east-asian:normal;font-feature-settings:normal;font-variation-settings:normal;text-indent:0;text-align:start;text-decoration:none;text-decoration-line:none;text-decoration-style:solid;text-decoration-color:#000000;letter-spacing:normal;word-spacing:normal;text-transform:none;writing-mode:lr-tb;direction:ltr;text-orientation:mixed;dominant-baseline:auto;baseline-shift:baseline;text-anchor:start;white-space:normal;shape-padding:0;shape-margin:0;inline-size:0;clip-rule:nonzero;display:inline;overflow:visible;visibility:visible;isolation:auto;mix-blend-mode:normal;color-interpolation:sRGB;color-interpolation-filters:linearRGB;solid-color:#000000;solid-opacity:1;vector-effect:none;fill:#000000;fill-opacity:1;fill-rule:nonzero;stroke:none;stroke-width:2.45946;stroke-linecap:butt;stroke-linejoin:miter;stroke-miterlimit:4;stroke-dasharray:none;stroke-dashoffset:0;stroke-opacity:1;color-rendering:auto;image-rendering:auto;shape-rendering:auto;text-rendering:auto;enable-background:accumulate;stop-color:#000000"
   id="path846" /></g>
</svg>
