<?xml version="1.0" ?><!DOCTYPE svg  PUBLIC '-//W3C//DTD SVG 1.1//EN'  'http://www.w3.org/Graphics/SVG/1.1/DTD/svg11.dtd'><svg height="425.000" viewBox="-438.000 -192.000 451.000 425.000" width="451.000" xmlns="http://www.w3.org/2000/svg"><line fill="none" stroke="none" stroke-linecap="round" stroke-width="2.0" x1="0.0" x2="0.0" y1="0.0" y2="0.0"/><polyline fill="none" points="-400.0,200.0 -400.0,180.0 -400.0,200.0 -380.0,200.0 -400.0,200.0 -400.0,220.0 -400.0,200.0 -420.0,200.0 -400.0,200.0" stroke="#f00" stroke-linecap="round" stroke-linejoin="round" stroke-width="2.0"/><polyline fill="none" points="-400.0,200.0 -400.0,210.0 -400.0,200.0 -400.0,170.0 -425.98076211353316,155.0" stroke="#000" stroke-linecap="round" stroke-linejoin="round" stroke-width="2.0"/><polygon fill="none" fill-rule="evenodd" points="0.0,0.0 0.0,0.0 0.0,0.0" stroke-linejoin="round"/><polygon fill="#000" fill-rule="evenodd" points="-400.0,210.0 -395.0,201.0 -400.0,203.0 -405.0,201.0" stroke="#000" stroke-linejoin="round"/><polyline fill="none" points="-400.0,170.0 -400.0,140.0 -374.01923788646684,124.99999999999999" stroke="#000" stroke-linecap="round" stroke-linejoin="round" stroke-width="2.0"/><polyline fill="none" points="-400.0,140.0 -400.0,110.0 -400.0,100.0 -400.0,110.0" stroke="#000" stroke-linecap="round" stroke-linejoin="round" stroke-width="2.0"/><polygon fill="#000" fill-rule="evenodd" points="-400.0,100.0 -405.0,109.0 -400.0,107.0 -395.0,109.0" stroke="#000" stroke-linejoin="round"/><polyline fill="none" points="-400.0,0.0 -400.0,-20.0 -400.0,-0.0 -380.0,-8.996207971523449e-15 -400.0,-0.0 -400.0,20.0 -400.0,-0.0 -420.0,1.1445501569818157e-14 -400.0,-0.0" stroke="#f00" stroke-linecap="round" stroke-linejoin="round" stroke-width="2.0"/><line fill="none" stroke="#000" stroke-linecap="round" stroke-width="2.0" x1="-400.0" x2="-400.0" y1="-0.0" y2="-20.0"/><polyline fill="none" points="-300.0,0.0 -300.0,-20.0 -300.0,-0.0 -280.0,-1.3894795168112863e-14 -300.0,-0.0 -300.0,20.0 -300.0,-0.0 -320.0,1.634408876640757e-14 -300.0,-0.0" stroke="#f00" stroke-linecap="round" stroke-linejoin="round" stroke-width="2.0"/><polyline fill="none" points="-300.0,-0.0 -300.0,-20.0 -317.3205080756888,-29.999999999999986" stroke="#000" stroke-linecap="round" stroke-linejoin="round" stroke-width="2.0"/><polyline fill="none" points="-300.0,-20.0 -300.0,-40.0 -282.67949192431126,-50.000000000000014" stroke="#000" stroke-linecap="round" stroke-linejoin="round" stroke-width="2.0"/><line fill="none" stroke="#000" stroke-linecap="round" stroke-width="2.0" x1="-300.0" x2="-300.0" y1="-40.0" y2="-60.0"/><polyline fill="none" points="-200.0,0.0 -200.00000000000003,-20.0 -200.0,-0.0 -180.0,-1.8988215193149856e-14 -200.0,-0.0 -199.99999999999997,20.0 -200.0,-0.0 -220.0,2.143750879144456e-14 -200.0,-0.0" stroke="#f00" stroke-linecap="round" stroke-linejoin="round" stroke-width="2.0"/><polyline fill="none" points="-200.0,-0.0 -200.00000000000003,-20.0 -217.32050807568882,-29.999999999999982" stroke="#000" stroke-linecap="round" stroke-linejoin="round" stroke-width="2.0"/><polyline fill="none" points="-200.00000000000003,-20.0 -200.00000000000006,-40.0 -182.6794919243113,-50.00000000000002" stroke="#000" stroke-linecap="round" stroke-linejoin="round" stroke-width="2.0"/><polyline fill="none" points="-200.00000000000006,-40.0 -200.00000000000009,-60.0 -217.32050807568888,-69.99999999999999 -234.64101615137764,-59.99999999999997" stroke="#000" stroke-linecap="round" stroke-linejoin="round" stroke-width="2.0"/><polyline fill="none" points="-217.32050807568888,-69.99999999999999 -234.64101615137767,-79.99999999999997 -234.6410161513777,-99.99999999999997" stroke="#000" stroke-linecap="round" stroke-linejoin="round" stroke-width="2.0"/><line fill="none" stroke="#000" stroke-linecap="round" stroke-width="2.0" x1="-234.64101615137767" x2="-251.96152422706646" y1="-79.99999999999997" y2="-89.99999999999996"/><polyline fill="none" points="-200.00000000000009,-60.0 -200.0000000000001,-80.0 -217.3205080756889,-89.99999999999999" stroke="#000" stroke-linecap="round" stroke-linejoin="round" stroke-width="2.0"/><polyline fill="none" points="-200.0000000000001,-80.0 -200.00000000000014,-100.0 -182.67949192431138,-110.00000000000003" stroke="#000" stroke-linecap="round" stroke-linejoin="round" stroke-width="2.0"/><polyline fill="none" points="-200.00000000000014,-100.0 -200.00000000000017,-120.0 -182.6794919243114,-130.00000000000003 -182.67949192431144,-150.00000000000003" stroke="#000" stroke-linecap="round" stroke-linejoin="round" stroke-width="2.0"/><polyline fill="none" points="-182.6794919243114,-130.00000000000003 -165.35898384862264,-140.00000000000006 -148.03847577293385,-130.00000000000009" stroke="#000" stroke-linecap="round" stroke-linejoin="round" stroke-width="2.0"/><line fill="none" stroke="#000" stroke-linecap="round" stroke-width="2.0" x1="-165.35898384862264" x2="-148.03847577293388" y1="-140.00000000000006" y2="-150.00000000000009"/><polyline fill="none" points="-200.00000000000017,-120.0 -200.0000000000002,-140.0 -217.320508075689,-150.0" stroke="#000" stroke-linecap="round" stroke-linejoin="round" stroke-width="2.0"/><polyline fill="none" points="-200.0000000000002,-140.0 -200.00000000000023,-160.0 -182.67949192431146,-170.00000000000003" stroke="#000" stroke-linecap="round" stroke-linejoin="round" stroke-width="2.0"/><line fill="none" stroke="#000" stroke-linecap="round" stroke-width="2.0" x1="-200.00000000000023" x2="-200.00000000000026" y1="-160.0" y2="-180.0"/><line fill="none" stroke="none" stroke-linecap="round" stroke-width="2.0" x1="0.0" x2="0.0" y1="0.0" y2="0.0"/><line fill="none" stroke="none" stroke-linecap="round" stroke-width="2.0" x1="0.0" x2="0.0" y1="0.0" y2="0.0"/><polygon fill="#000" fill-rule="evenodd" points="0.0,-0.0 -9.0,-5.0 -7.0,-0.0 -9.0,5.0" stroke="#000" stroke-linejoin="round"/></svg>