<?xml version="1.0" encoding="UTF-8" standalone="no"?>
<svg
   xmlns:dc="http://purl.org/dc/elements/1.1/"
   xmlns:cc="http://creativecommons.org/ns#"
   xmlns:rdf="http://www.w3.org/1999/02/22-rdf-syntax-ns#"
   xmlns:svg="http://www.w3.org/2000/svg"
   xmlns="http://www.w3.org/2000/svg"
   xmlns:sodipodi="http://sodipodi.sourceforge.net/DTD/sodipodi-0.dtd"
   xmlns:inkscape="http://www.inkscape.org/namespaces/inkscape"
   height="202.0002"
   viewBox="-438 -192 273.95984 202.0002"
   width="273.95984"
   version="1.1"
   id="svg64"
   sodipodi:docname="example_results.svg"
   inkscape:version="0.92.4 (5da689c313, 2019-01-14)">
  <metadata
     id="metadata70">
    <rdf:RDF>
      <cc:Work
         rdf:about="">
        <dc:format>image/svg+xml</dc:format>
        <dc:type
           rdf:resource="http://purl.org/dc/dcmitype/StillImage" />
        <dc:title></dc:title>
      </cc:Work>
    </rdf:RDF>
  </metadata>
  <defs
     id="defs68" />
  <sodipodi:namedview
     pagecolor="#ffffff"
     bordercolor="#666666"
     borderopacity="1"
     objecttolerance="10"
     gridtolerance="10"
     guidetolerance="10"
     inkscape:pageopacity="0"
     inkscape:pageshadow="2"
     inkscape:window-width="1920"
     inkscape:window-height="1017"
     id="namedview66"
     showgrid="false"
     fit-margin-top="0"
     fit-margin-left="0"
     fit-margin-right="0"
     fit-margin-bottom="0"
     inkscape:zoom="1.5706089"
     inkscape:cx="208.48596"
     inkscape:cy="0.48595751"
     inkscape:window-x="1352"
     inkscape:window-y="-8"
     inkscape:window-maximized="1"
     inkscape:current-layer="svg64" />
  <polyline
     points="-400.0,0.0 -400.0,-20.0 -400.0,-0.0 -380.0,-8.996207971523449e-15 -400.0,-0.0 -400.0,20.0 -400.0,-0.0 -420.0,1.1445501569818157e-14 -400.0,-0.0"
     id="polyline18"
     style="fill:none;stroke:#ff0000;stroke-width:2;stroke-linecap:round;stroke-linejoin:round"
     transform="translate(-17.014042,-10.985758)" />
  <line
     x1="-417.01404"
     x2="-417.01404"
     y1="-10.985758"
     y2="-30.985758"
     id="line20"
     style="fill:none;stroke:#000000;stroke-width:2;stroke-linecap:round" />
  <polyline
     points="-300.0,0.0 -300.0,-20.0 -300.0,-0.0 -280.0,-1.3894795168112863e-14 -300.0,-0.0 -300.0,20.0 -300.0,-0.0 -320.0,1.634408876640757e-14 -300.0,-0.0"
     id="polyline22"
     style="fill:none;stroke:#ff0000;stroke-width:2;stroke-linecap:round;stroke-linejoin:round"
     transform="translate(-17.014042,-10.985758)" />
  <polyline
     points="-300.0,-0.0 -300.0,-20.0 -317.3205080756888,-29.999999999999986"
     id="polyline24"
     style="fill:none;stroke:#000000;stroke-width:2;stroke-linecap:round;stroke-linejoin:round"
     transform="translate(-17.014042,-10.985758)" />
  <polyline
     points="-300.0,-20.0 -300.0,-40.0 -282.67949192431126,-50.000000000000014"
     id="polyline26"
     style="fill:none;stroke:#000000;stroke-width:2;stroke-linecap:round;stroke-linejoin:round"
     transform="translate(-17.014042,-10.985758)" />
  <line
     x1="-317.01404"
     x2="-317.01404"
     y1="-50.985756"
     y2="-70.985756"
     id="line28"
     style="fill:none;stroke:#000000;stroke-width:2;stroke-linecap:round" />
  <polyline
     points="-200.0,0.0 -200.00000000000003,-20.0 -200.0,-0.0 -180.0,-1.8988215193149856e-14 -200.0,-0.0 -199.99999999999997,20.0 -200.0,-0.0 -220.0,2.143750879144456e-14 -200.0,-0.0"
     id="polyline30"
     style="fill:none;stroke:#ff0000;stroke-width:2;stroke-linecap:round;stroke-linejoin:round"
     transform="translate(-17.014042,-10.985758)" />
  <polyline
     points="-200.0,-0.0 -200.00000000000003,-20.0 -217.32050807568882,-29.999999999999982"
     id="polyline32"
     style="fill:none;stroke:#000000;stroke-width:2;stroke-linecap:round;stroke-linejoin:round"
     transform="translate(-17.014042,-10.985758)" />
  <polyline
     points="-200.00000000000003,-20.0 -200.00000000000006,-40.0 -182.6794919243113,-50.00000000000002"
     id="polyline34"
     style="fill:none;stroke:#000000;stroke-width:2;stroke-linecap:round;stroke-linejoin:round"
     transform="translate(-17.014042,-10.985758)" />
  <polyline
     points="-200.00000000000006,-40.0 -200.00000000000009,-60.0 -217.32050807568888,-69.99999999999999 -234.64101615137764,-59.99999999999997"
     id="polyline36"
     style="fill:none;stroke:#000000;stroke-width:2;stroke-linecap:round;stroke-linejoin:round"
     transform="translate(-17.014042,-10.985758)" />
  <polyline
     points="-217.32050807568888,-69.99999999999999 -234.64101615137767,-79.99999999999997 -234.6410161513777,-99.99999999999997"
     id="polyline38"
     style="fill:none;stroke:#000000;stroke-width:2;stroke-linecap:round;stroke-linejoin:round"
     transform="translate(-17.014042,-10.985758)" />
  <line
     x1="-251.65506"
     x2="-268.97556"
     y1="-90.985756"
     y2="-100.98576"
     id="line40"
     style="fill:none;stroke:#000000;stroke-width:2;stroke-linecap:round" />
  <polyline
     points="-200.00000000000009,-60.0 -200.0000000000001,-80.0 -217.3205080756889,-89.99999999999999"
     id="polyline42"
     style="fill:none;stroke:#000000;stroke-width:2;stroke-linecap:round;stroke-linejoin:round"
     transform="translate(-17.014042,-10.985758)" />
  <polyline
     points="-200.0000000000001,-80.0 -200.00000000000014,-100.0 -182.67949192431138,-110.00000000000003"
     id="polyline44"
     style="fill:none;stroke:#000000;stroke-width:2;stroke-linecap:round;stroke-linejoin:round"
     transform="translate(-17.014042,-10.985758)" />
  <polyline
     points="-200.00000000000014,-100.0 -200.00000000000017,-120.0 -182.6794919243114,-130.00000000000003 -182.67949192431144,-150.00000000000003"
     id="polyline46"
     style="fill:none;stroke:#000000;stroke-width:2;stroke-linecap:round;stroke-linejoin:round"
     transform="translate(-17.014042,-10.985758)" />
  <polyline
     points="-182.6794919243114,-130.00000000000003 -165.35898384862264,-140.00000000000006 -148.03847577293385,-130.00000000000009"
     id="polyline48"
     style="fill:none;stroke:#000000;stroke-width:2;stroke-linecap:round;stroke-linejoin:round"
     transform="translate(-17.014042,-10.985758)" />
  <line
     x1="-182.37302"
     x2="-165.05252"
     y1="-150.98576"
     y2="-160.98576"
     id="line50"
     style="fill:none;stroke:#000000;stroke-width:2;stroke-linecap:round" />
  <polyline
     points="-200.00000000000017,-120.0 -200.0000000000002,-140.0 -217.320508075689,-150.0"
     id="polyline52"
     style="fill:none;stroke:#000000;stroke-width:2;stroke-linecap:round;stroke-linejoin:round"
     transform="translate(-17.014042,-10.985758)" />
  <polyline
     points="-200.0000000000002,-140.0 -200.00000000000023,-160.0 -182.67949192431146,-170.00000000000003"
     id="polyline54"
     style="fill:none;stroke:#000000;stroke-width:2;stroke-linecap:round;stroke-linejoin:round"
     transform="translate(-17.014042,-10.985758)" />
  <line
     x1="-217.01404"
     x2="-217.01404"
     y1="-170.98576"
     y2="-190.98576"
     id="line56"
     style="fill:none;stroke:#000000;stroke-width:2;stroke-linecap:round" />
</svg>
