<?xml version="1.0" encoding="UTF-8" standalone="no"?>
<!-- Created with Inkscape (http://www.inkscape.org/) -->

<svg
   width="393.33307mm"
   height="147.95178mm"
   viewBox="0 0 393.33307 147.95178"
   version="1.1"
   id="svg6847"
   inkscape:version="1.1.1 (3bf5ae0d25, 2021-09-20)"
   sodipodi:docname="2022-CY-01-solution.svg"
   xmlns:inkscape="http://www.inkscape.org/namespaces/inkscape"
   xmlns:sodipodi="http://sodipodi.sourceforge.net/DTD/sodipodi-0.dtd"
   xmlns="http://www.w3.org/2000/svg"
   xmlns:svg="http://www.w3.org/2000/svg">
  <sodipodi:namedview
     id="namedview6849"
     pagecolor="#ffffff"
     bordercolor="#666666"
     borderopacity="1.0"
     inkscape:pageshadow="2"
     inkscape:pageopacity="0.0"
     inkscape:pagecheckerboard="0"
     inkscape:document-units="mm"
     showgrid="false"
     inkscape:zoom="0.4692965"
     inkscape:cx="297.25344"
     inkscape:cy="508.2075"
     inkscape:window-width="1680"
     inkscape:window-height="1027"
     inkscape:window-x="1912"
     inkscape:window-y="-8"
     inkscape:window-maximized="1"
     inkscape:current-layer="layer1" />
  <defs
     id="defs6844" />
  <g
     inkscape:label="Ebene 1"
     inkscape:groupmode="layer"
     id="layer1"
     transform="translate(228.55916,93.510119)">
    <g
       transform="matrix(0.25649131,0,0,0.24558413,-303.33842,-181.35036)"
       id="g468"
       style="clip-rule:evenodd;fill-rule:evenodd;stroke-linecap:round;stroke-linejoin:round;stroke-miterlimit:1.5">
      <path
         d="m 1305.82,459.395 c 20.15,-11.313 45.11,-10.218 67.95,-13.787 146.48,-22.888 259.95,-92.401 398.74,-29.317 106.84,48.567 24.12,410.842 -15.33,454.236 -37.05,40.749 -20.18,29.514 -71.57,55.21 -79.36,39.679 -202.83,8.561 -284.91,-15.758 -51.52,-15.266 -93.46,-8.166 -146.82,-17.059 -87.83,-14.638 -144.44,47.354 -229.88,59.814 -80.006,11.667 -164.612,6.718 -245.208,3.939 C 699.019,953.922 608.013,958.187 531.541,930.38 501.058,919.295 442.873,871.867 425.067,843.698 374.315,763.408 270.875,655.817 295.192,558.551 318.877,463.81 313.069,433.427 407.385,418.633 c 114.034,-17.888 342.427,-80.948 544.357,-54.612 56.948,7.427 308.948,120.71 354.078,95.374 z"
         style="fill:#a5f171;font-variation-settings:normal;opacity:1;vector-effect:none;fill-opacity:1;stroke-width:1.00001001;stroke-linecap:round;stroke-linejoin:round;stroke-miterlimit:1.5;stroke-dasharray:none;stroke-dashoffset:0;stroke-opacity:1;-inkscape-stroke:none;stop-color:#000000;stop-opacity:1"
         id="path466" />
    </g>
    <g
       transform="matrix(0.26458333,0,0,0.26458333,-310.77767,-198.09584)"
       id="g484"
       style="clip-rule:evenodd;fill-rule:evenodd;stroke-linecap:round;stroke-linejoin:round;stroke-miterlimit:1.5">
      <path
         d="m 1229.72,646.516 c -11.53,-1.256 -21.7,15.911 -27.17,31.386 -4.33,12.238 -14.24,21.367 -22.67,29.996 -3.59,3.677 -7.13,25.229 -8.35,33.299 -1.26,8.386 -7.08,17.016 -13.29,26.803 -10.04,16.067 -60.96,27.303 -69.91,36.257 -19.79,19.792 -58.46,21.727 -93.349,13.122 -15.465,-4.113 -42.254,-1.131 -52.125,3.432 -17.518,8.1 -52.926,18.674 -86.293,30.698 -11.558,4.165 -15.928,12.795 -4.051,13.148 3.476,0.104 10.736,2.674 13.41,4.786 4.309,3.403 6.642,15.72 8.072,19.343 2.735,6.927 10.268,6.513 14.645,5.37 54.652,-14.272 58.859,-10.41 77.449,-18.859 16.404,-7.455 35.262,-13.744 52.352,-16.592 4.43,-0.737 9,-0.678 13.6,-0.353 4.24,0.299 8.52,1.033 12.6,0.353 27.71,-4.618 93.97,-33.062 116.42,-49.897 3.31,-2.487 5.43,-5.97 7.77,-9.276 2.53,-3.579 5.14,-7.103 8.26,-10.219 13.82,-13.826 26.85,-25.423 41.51,-39.192 15.42,-14.492 19.28,-28.723 28.8,-49.103 3.93,-8.424 22.44,-29.836 12.08,-38.064 -11.98,-9.517 -20.98,-15.481 -29.76,-16.438 z m 294.69,-68.509 c -1.94,-9.024 -18.17,-19.957 -24,-17.191 -4.52,2.143 -8.88,6.866 -13.44,10.401 -5.31,4.113 -10.81,7.158 -16.13,8.221 -10.2,2.04 -20.49,5.159 -30.66,8.806 -10.08,3.614 -25.29,21.742 -27.64,27.163 -3.01,6.955 -7.12,17.747 -15.73,23.813 -8.92,6.286 -11.93,24.684 -8.48,33.483 34.86,89.091 30.34,79.193 75.66,114.484 8.84,6.877 14.63,16.731 20.07,26.897 3.48,6.518 21.83,15.649 27.85,14.108 16.29,-4.177 34.52,-7.141 52.59,-9.08 7.17,-0.77 25.93,-18.279 28.49,-26.397 5.34,-16.918 57.65,-139.236 44.91,-170.541 -6.06,-14.915 -23.9,-25.851 -47.39,-20.063 -24.22,5.97 -61.09,-0.881 -66.1,-24.104 z M 938.284,693.984 c -5.352,-3.081 -21.888,-0.643 -26.21,2.519 -17.85,13.064 -52.346,18.793 -88.617,19.489 -7.444,0.142 -28.648,17.467 -31.358,26.11 -3.687,11.76 -8.133,23.067 -16.415,33.42 -10.436,13.044 -16.848,30.866 -28.124,44.601 -5.944,7.24 -1.559,17.049 10.513,15.624 4.838,-0.571 13.077,3.202 19.632,3.946 5.649,0.641 13.964,3.453 20.154,3.617 6.325,0.168 23.156,-5.008 33.3,-9.163 31.346,-12.838 70.383,-25.294 92.948,-36.936 6.246,-3.223 10.98,-2.732 12.486,-9.329 5.525,-24.2 7.257,-44.045 31.23,-55.537 13.375,-6.412 14.41,-20.875 3.525,-23.092 -11.765,-2.397 -22.313,-9.078 -33.064,-15.269 z M 895.367,509.76 c -6.651,-12.77 -24.027,-26.058 -33.758,-17.687 -5.882,5.06 -18.203,9.258 -27.693,9.403 -9.328,0.143 -14.165,12.276 -18.277,22.576 -7.173,17.966 -3.658,42.254 -3.72,62.417 -0.028,9.301 2.23,20.011 9.766,20.226 36.032,1.027 73.198,28.866 91.249,46.918 30.134,10.854 61.647,24.85 87.866,42.328 1.59,1.058 5.7,1.653 10.1,1.807 5.2,0.182 19.72,0.574 21.48,-0.007 6.83,-2.261 -2.99,-16.259 -12.22,-28.269 -17.5,-22.761 -30.893,-51.082 -73.373,-91.957 -7.498,-7.214 -37.765,-41.536 -51.42,-67.755 z m 302.193,131.526 c 0.43,-1.347 0.11,-11.971 -0.07,-13.872 -1.24,-12.735 -5.41,-20.349 -2.76,-27.36 1.99,-5.268 -1.93,-15.055 -7.47,-17.645 -40.31,-18.855 -64.25,-27.238 -92.26,-30.689 -45.59,-5.619 -83.44,-56.231 -128.101,-67.397 -6.349,-1.587 -15.621,-6.579 -25.342,-12.65 -2.248,-1.405 -9.517,0.018 -11.352,2.091 -2.823,3.188 -6.416,6.928 -10.361,10.229 -3.153,2.637 -2.465,10.029 0.373,13.091 10.346,11.164 29.412,39.387 30.864,42.787 7.567,17.713 44.069,61.403 54.659,72.852 33.4,36.115 43.1,52.727 52.55,62.947 7.76,8.392 18.46,16.424 28.22,14.11 16.08,-3.812 33.18,-5.508 47,-1.937 25.65,6.626 33.82,4.528 46.58,-13.894 5.21,-7.517 14.51,-23.345 17.47,-32.663 z M 737.687,484.832 c -9.467,-3.662 -25.528,-13.195 -36.057,-8.131 -11.158,5.367 -24.993,-1.102 -35.415,2.806 -4.886,1.832 -11.438,7.045 -18.058,12.59 -12.062,10.104 -23.851,21.787 -27.395,24.623 -0.804,0.643 -17.724,20.55 -29.474,26.199 -10.389,4.995 -4.556,11.099 -1.018,13.829 7.503,5.79 14.199,12.344 16.654,20.452 1.549,5.118 -0.457,10.704 -9.926,19.933 -3.012,2.936 -20.152,9.408 -25.672,13.273 -5.021,3.515 -6.351,11.368 -6.661,12.9 -0.981,4.853 3.31,9.592 8.225,9.497 27.179,1.001 60.363,-4.7 88.095,-1.234 15.203,1.901 32.728,3.169 47.438,6.847 3.857,0.964 20.494,-3.392 25.311,-6.853 9.512,-6.835 20.264,-12.696 33.001,-14.379 6.175,-0.815 29.581,-10.767 28.401,-16.074 -2.107,-9.476 -5.36,-26.655 -4.393,-41.186 0.478,-7.178 -4.05,-28.509 -1.844,-34.966 1.976,-5.787 -12.484,-20.156 -15.177,-21.039 -10.473,-3.436 -22.577,-13.882 -36.035,-19.087 z m -21.001,337.456 c -71.012,-21.599 -119.52,65.105 -84.655,72.573 22.391,4.796 27.183,24.213 85.049,30.305 27.135,2.857 77.477,8.307 101.618,0.26 13.381,-4.46 32.092,-3.159 44.715,-10.053 36.358,-4.31 73.668,-5.169 109.182,-14.048 16.803,-4.2 33.835,-13.418 50.255,-16.156 4.08,-0.68 8.36,0.054 12.61,0.353 4.6,0.325 9.17,0.384 13.59,-0.353 30.49,-5.082 103.41,-36.373 128.11,-54.898 4,-3.002 7.24,-6.626 10.17,-10.522 2.88,-3.834 5.31,-8.046 8.73,-11.465 14.6,-14.599 30.52,-24.893 43.63,-41.587 14.18,-18.039 5.67,-15.098 18.6,-33.448 1.34,-1.906 11.27,-24.928 18.02,-33.168 10.45,-12.762 27.27,-36.7 35.25,-37.109 18.25,-0.937 34.3,-6.252 39.03,3.372 3.49,7.122 10.52,11.986 15.2,21.341 58.57,117.051 47.59,84.809 68.1,105.19 6.57,6.529 20.16,28.094 26.77,34.776 15.39,15.54 -4.26,34.885 -5.95,43.061 -4.09,19.773 19.61,16.797 34.93,22.924 63.96,25.585 101.3,25.564 167.02,7.642 43.06,-11.744 53.03,-44.81 9.71,-79.468 -3.4,-2.726 -16.39,-10.435 -32.6,-5.327 -17.7,5.578 -13.92,-8.041 -19.3,-24.198 -3.93,-11.815 44.09,-108.254 46.99,-126.698 2.93,-18.621 9.29,-84.778 32.52,-86.245 41.83,-2.641 82.76,-71.646 37.31,-80.739 -12.66,-2.533 -110.63,-53.704 -142.57,-20.773 -7.32,7.539 -54.52,6.983 -63.74,13.132 -7.61,5.068 -18.32,10.859 -20.67,20.633 -2.09,8.714 -13.05,21.426 -15.9,25.224 -6.18,8.236 -49.14,28.772 -59.68,27.061 -7.92,-1.286 -35.93,4.391 -47.72,-0.017 -44.77,-16.742 -133.81,-27.167 -161.69,-9.587 -3.38,2.13 -22.94,2.897 -31.04,-0.004 -27.95,-10.008 -56.45,-18.558 -84.79,-28.005 -44.23,-14.742 -60.42,-38.139 -105.745,-49.47 -5.743,-1.436 -38.619,-25.208 -47.428,-31.006 -6.12,-4.029 -44.979,-20.831 -67.64,-23.311 -37.534,-4.107 -89.003,-3.261 -141.207,11.444 -8.134,2.291 -33.173,16.062 -39.366,15.952 -15.866,-0.28 -33.811,5.521 -47.168,10.53 -15.693,5.885 -45.103,34.267 -51.35,39.264 -0.797,0.638 -18.572,13.866 -28.804,22.092 -0.765,0.342 -52.672,6.822 -60.088,4.665 -100.387,-29.19 -194.778,75.306 -99.895,85.705 10.34,1.133 12.06,0.803 20.029,3.288 2.12,0.035 23.447,1.298 31.905,12.831 0,0 21.725,8.021 24.367,8.797 9.836,2.887 20.507,4.34 33.74,2.891 5.615,1.557 9.464,6.021 14.295,9.382 5.983,4.164 12.633,7.624 21.135,8.839 31.823,4.546 64.394,0.808 97.388,0.031 23.387,-0.55 44.321,13.913 46.062,30.216 0.964,9.023 18.458,17.086 45.149,22.091 7.368,1.382 19.715,16.927 17.63,23.577 -2.708,8.637 -6.431,16.54 -11.766,24.687 -13.136,20.063 -19.764,69.087 -38.047,63.526 z"
         style="fill:#2cd1ec;font-variation-settings:normal;opacity:1;vector-effect:none;fill-opacity:1;stroke-width:0.999987;stroke-linecap:round;stroke-linejoin:round;stroke-miterlimit:1.5;stroke-dasharray:none;stroke-dashoffset:0;stroke-opacity:1;-inkscape-stroke:none;stop-color:#000000;stop-opacity:1"
         id="path482" />
    </g>
    <g
       transform="matrix(0.26458333,0,0,0.26458333,-305.10209,-207.28746)"
       id="g500"
       style="clip-rule:evenodd;fill-rule:evenodd;stroke-linecap:round;stroke-linejoin:round;stroke-miterlimit:1.5">
      <path
         d="m 1241.88,612.462 c 0.96,0.454 1.87,1.373 2.61,1.85 1.34,0.848 2.77,1.431 4.44,1.785 1.09,0.232 2.44,0.46 3.48,0.207 0.91,-0.219 1.78,-0.914 2.86,-0.78 1.34,0.165 2.22,1.085 3.15,1.737 0.92,0.646 1.99,1.09 3.21,1.321 2.43,0.463 3.76,-0.892 5.93,-0.854 2.54,0.045 4.02,2.216 6.42,2.694 1.23,0.245 2.24,-0.006 3.26,-0.378 0.46,-0.169 1.26,-0.619 1.9,-0.515 1.29,0.209 3.04,0.681 4.07,1.321 0.6,0.379 0.9,0.898 1.64,1.172 1.46,0.548 1.95,-1.038 3.18,-0.839 0.92,0.149 1.41,0.799 2.01,1.397 0.22,-0.149 0.46,-0.262 0.74,-0.312 1.28,-0.235 2.37,0.544 3.43,1 0.31,0.131 0.62,0.239 0.93,0.322 1.13,-0.214 2.22,-0.531 3.41,-0.575 0.23,-0.008 0.49,0.061 0.76,0.18 1.2,-0.704 2.02,-1.837 3.44,-2.297 2.35,-0.754 4.39,1.273 6.74,1.061 1.21,-0.108 2.06,-0.72 2.88,-1.473 0.37,-0.341 0.96,-1.111 1.58,-1.196 1.25,-0.169 3.01,-0.183 4.15,0.228 0.68,0.243 1.11,0.746 1.87,0.829 1.52,0.165 1.47,-1.818 2.67,-1.98 1.5,-0.204 2.33,1.627 4,1.608 2.64,-0.029 4.09,-1.994 6.23,-2.843 1.03,-0.41 3.2,1.151 4.35,1.258 1.52,0.143 3.08,-1.188 4.65,-1.332 2.74,-0.251 4.95,2.328 7.48,0.006 0.73,-0.672 0.81,-1.722 1.43,-2.424 0.42,-0.482 2.35,1.094 2.86,1.14 0.8,0.074 1.64,-0.378 2.44,-0.394 1.13,-0.022 2.11,0.38 3.21,0.47 -0.87,-3.499 -5.78,-10.139 -7.39,-12.241 -7.27,-9.511 -26.26,-23.489 -37.82,-26.795 -10.58,-3.022 -21.63,1.03 -29.95,7.566 -2.16,1.693 -3.1,4.578 -5.32,6.056 -4.34,2.891 -9.64,2.998 -14.23,5.292 -3.77,1.887 -5.21,6.825 -8.82,9.236 -1.41,0.938 -9.68,5.138 -13.88,7.492 z"
         style="fill:#926a41"
         id="path498" />
    </g>
    <g
       transform="matrix(0.26458333,0,0,0.26458333,-305.10209,-207.28746)"
       id="g516"
       style="clip-rule:evenodd;fill-rule:evenodd;stroke-linecap:round;stroke-linejoin:round;stroke-miterlimit:1.5">
      <path
         d="m 1241.88,612.462 c 0.96,0.454 1.87,1.373 2.61,1.85 1.34,0.848 2.77,1.431 4.44,1.785 1.09,0.232 2.44,0.46 3.48,0.207 0.91,-0.219 1.78,-0.914 2.86,-0.78 1.34,0.165 2.22,1.085 3.15,1.737 0.92,0.646 1.99,1.09 3.21,1.321 2.43,0.463 3.76,-0.892 5.93,-0.854 2.54,0.045 4.02,2.216 6.42,2.694 1.23,0.245 2.24,-0.006 3.26,-0.378 0.46,-0.169 1.26,-0.619 1.9,-0.515 1.29,0.209 3.04,0.681 4.07,1.321 0.6,0.379 0.9,0.898 1.64,1.172 1.46,0.548 1.95,-1.038 3.18,-0.839 0.92,0.149 1.41,0.799 2.01,1.397 0.22,-0.149 0.46,-0.262 0.74,-0.312 1.28,-0.235 2.37,0.544 3.43,1 0.31,0.131 0.62,0.239 0.93,0.322 1.13,-0.214 2.22,-0.531 3.41,-0.575 0.23,-0.008 0.49,0.061 0.76,0.18 1.2,-0.704 2.02,-1.837 3.44,-2.297 2.35,-0.754 4.39,1.273 6.74,1.061 1.21,-0.108 2.06,-0.72 2.88,-1.473 0.37,-0.341 0.96,-1.111 1.58,-1.196 1.25,-0.169 3.01,-0.183 4.15,0.228 0.68,0.243 1.11,0.746 1.87,0.829 1.52,0.165 1.47,-1.818 2.67,-1.98 1.5,-0.204 2.33,1.627 4,1.608 2.64,-0.029 4.09,-1.994 6.23,-2.843 1.03,-0.41 3.2,1.151 4.35,1.258 1.52,0.143 3.08,-1.188 4.65,-1.332 2.74,-0.251 4.95,2.328 7.48,0.006 0.73,-0.672 0.81,-1.722 1.43,-2.424 0.42,-0.482 2.35,1.094 2.86,1.14 0.8,0.074 1.64,-0.378 2.44,-0.394 1.13,-0.022 2.11,0.38 3.21,0.47 -0.87,-3.499 -5.78,-10.139 -7.39,-12.241 -7.27,-9.511 -26.26,-23.489 -37.82,-26.795 -10.58,-3.022 -21.63,1.03 -29.95,7.566 -2.16,1.693 -3.1,4.578 -5.32,6.056 -4.34,2.891 -9.64,2.998 -14.23,5.292 -3.77,1.887 -5.21,6.825 -8.82,9.236 -1.41,0.938 -9.68,5.138 -13.88,7.492 z"
         style="fill:#926a41"
         id="path514" />
    </g>
    <g
       transform="matrix(0.26458333,0,0,0.26458333,-223.901,-219.71494)"
       id="g532"
       style="clip-rule:evenodd;fill-rule:evenodd;stroke-linecap:round;stroke-linejoin:round;stroke-miterlimit:1.5">
      <path
         d="m 1227.76,615.28 c 0.95,0.454 1.86,1.373 2.61,1.85 1.33,0.848 2.76,1.431 4.44,1.785 1.09,0.232 2.43,0.46 3.48,0.207 0.91,-0.219 1.78,-0.914 2.86,-0.78 1.33,0.165 2.22,1.085 3.14,1.737 0.92,0.646 2,1.09 3.22,1.321 2.43,0.462 3.76,-0.893 5.93,-0.854 2.53,0.045 18.14,-0.602 20.54,-0.124 1.23,0.245 2.24,-0.006 3.26,-0.378 0.46,-0.169 1.26,-0.619 1.9,-0.515 1.29,0.209 3.04,0.681 4.07,1.321 0.6,0.379 0.9,0.898 1.64,1.172 1.46,0.548 1.95,-1.038 3.18,-0.839 0.92,0.149 1.41,0.799 2.01,1.397 0.22,-0.149 0.46,-0.262 0.74,-0.312 1.28,-0.235 2.37,0.544 3.43,1 0.31,0.131 0.62,0.239 0.93,0.322 1.13,-0.214 2.22,-0.531 3.41,-0.575 0.23,-0.008 0.49,0.061 0.76,0.18 1.2,-0.704 2.02,-1.837 3.44,-2.297 2.35,-0.754 4.39,1.273 6.74,1.061 1.21,-0.108 2.06,-0.72 2.88,-1.473 0.37,-0.341 0.96,-1.111 1.58,-1.196 1.25,-0.169 3.01,-0.183 4.15,0.228 0.68,0.243 1.11,0.746 1.87,0.829 1.52,0.165 1.47,-1.818 2.67,-1.98 1.5,-0.204 2.33,1.627 4,1.608 2.64,-0.029 4.09,-1.994 6.23,-2.843 1.03,-0.41 3.2,1.151 4.35,1.258 1.52,0.143 3.08,-1.188 4.65,-1.332 2.74,-0.251 4.95,2.328 7.48,0.006 0.73,-0.672 0.81,-1.722 1.43,-2.424 0.42,-0.482 2.35,1.094 2.86,1.14 0.8,0.074 1.64,-0.378 2.44,-0.394 1.13,-0.022 2.11,0.38 3.21,0.47 -0.87,-3.499 -5.78,-10.139 -7.39,-12.241 -7.27,-9.511 -26.26,-23.489 -37.82,-26.795 -10.58,-3.022 -21.63,1.03 -29.95,7.566 -2.16,1.693 -3.1,4.578 -5.32,6.056 -4.34,2.891 -10.23,8.149 -14.82,10.443 -3.78,1.887 -18.74,4.492 -22.36,6.903 -1.4,0.938 -9.67,5.138 -13.87,7.492 z"
         style="fill:#926a41"
         id="path530" />
    </g>
    <g
       transform="matrix(0.23836312,0,0,0.26458333,-342.95106,-159.33967)"
       id="g548"
       style="clip-rule:evenodd;fill-rule:evenodd;stroke-linecap:round;stroke-linejoin:round;stroke-miterlimit:1.5">
      <path
         d="m 1241.88,612.462 c 0.96,0.454 1.87,1.373 2.61,1.85 1.34,0.848 2.77,1.431 4.44,1.785 1.09,0.232 2.44,0.46 3.48,0.207 0.91,-0.219 1.78,-0.914 2.86,-0.78 1.34,0.165 2.22,1.085 3.15,1.737 0.92,0.646 1.99,1.09 3.21,1.321 2.43,0.463 3.76,-0.892 5.93,-0.854 2.54,0.045 4.02,2.216 6.42,2.694 1.23,0.245 2.24,-0.006 3.26,-0.378 0.46,-0.169 1.26,-0.619 1.9,-0.515 1.29,0.209 3.04,0.681 4.07,1.321 0.6,0.379 0.9,0.898 1.64,1.172 1.46,0.548 1.95,-1.038 3.18,-0.839 0.92,0.149 1.41,0.799 2.01,1.397 0.22,-0.149 0.46,-0.262 0.74,-0.312 1.28,-0.235 2.37,0.544 3.43,1 0.31,0.131 0.62,0.239 0.93,0.322 1.13,-0.214 2.22,-0.531 3.41,-0.575 0.23,-0.008 0.49,0.061 0.76,0.18 1.2,-0.704 2.02,-1.837 3.44,-2.297 2.35,-0.754 4.39,1.273 6.74,1.061 1.21,-0.108 2.06,-0.72 2.88,-1.473 0.37,-0.341 0.96,-1.111 1.58,-1.196 1.25,-0.169 3.01,-0.183 4.15,0.228 0.68,0.243 1.11,0.746 1.87,0.829 1.52,0.165 1.47,-1.818 2.67,-1.98 1.5,-0.204 2.33,1.627 4,1.608 2.64,-0.029 4.09,-1.994 6.23,-2.843 1.03,-0.41 3.2,1.151 4.35,1.258 1.52,0.143 3.08,-1.188 4.65,-1.332 2.74,-0.251 4.95,2.328 7.48,0.006 0.73,-0.672 0.81,-1.722 1.43,-2.424 0.42,-0.482 2.35,1.094 2.86,1.14 0.8,0.074 1.64,-0.378 2.44,-0.394 1.13,-0.022 2.11,0.38 3.21,0.47 -0.87,-3.499 -5.78,-10.139 -7.39,-12.241 -7.27,-9.511 -26.26,-23.489 -37.82,-26.795 -10.58,-3.022 -21.63,1.03 -29.95,7.566 -2.16,1.693 -3.1,4.578 -5.32,6.056 -4.34,2.891 -9.64,2.998 -14.23,5.292 -3.77,1.887 -5.21,6.825 -8.82,9.236 -1.41,0.938 -9.68,5.138 -13.88,7.492 z"
         style="fill:#926a41"
         id="path546" />
    </g>
    <g
       transform="matrix(0.23836312,0,0,0.26458333,-424.63667,-124.0813)"
       id="g564"
       style="clip-rule:evenodd;fill-rule:evenodd;stroke-linecap:round;stroke-linejoin:round;stroke-miterlimit:1.5">
      <path
         d="m 1241.88,612.462 c 0.96,0.454 1.87,1.373 2.61,1.85 1.34,0.848 2.77,1.431 4.44,1.785 1.09,0.232 2.44,0.46 3.48,0.207 0.91,-0.219 1.78,-0.914 2.86,-0.78 1.34,0.165 2.22,1.085 3.15,1.737 0.92,0.646 1.99,1.09 3.21,1.321 2.43,0.463 3.76,-0.892 5.93,-0.854 2.54,0.045 4.02,2.216 6.42,2.694 1.23,0.245 2.24,-0.006 3.26,-0.378 0.46,-0.169 1.26,-0.619 1.9,-0.515 1.29,0.209 3.04,0.681 4.07,1.321 0.6,0.379 0.9,0.898 1.64,1.172 1.46,0.548 1.95,-1.038 3.18,-0.839 0.92,0.149 1.41,0.799 2.01,1.397 0.22,-0.149 0.46,-0.262 0.74,-0.312 1.28,-0.235 2.37,0.544 3.43,1 0.31,0.131 0.62,0.239 0.93,0.322 1.13,-0.214 2.22,-0.531 3.41,-0.575 0.23,-0.008 0.49,0.061 0.76,0.18 1.2,-0.704 2.02,-1.837 3.44,-2.297 2.35,-0.754 4.39,1.273 6.74,1.061 1.21,-0.108 2.06,-0.72 2.88,-1.473 0.37,-0.341 0.96,-1.111 1.58,-1.196 1.25,-0.169 3.01,-0.183 4.15,0.228 0.68,0.243 1.11,0.746 1.87,0.829 1.52,0.165 1.47,-1.818 2.67,-1.98 1.5,-0.204 2.33,1.627 4,1.608 2.64,-0.029 4.09,-1.994 6.23,-2.843 1.03,-0.41 3.2,1.151 4.35,1.258 1.52,0.143 3.08,-1.188 4.65,-1.332 2.74,-0.251 4.95,2.328 7.48,0.006 0.73,-0.672 0.81,-1.722 1.43,-2.424 0.42,-0.482 2.35,1.094 2.86,1.14 0.8,0.074 1.64,-0.378 2.44,-0.394 1.13,-0.022 2.11,0.38 3.21,0.47 -0.87,-3.499 -5.78,-10.139 -7.39,-12.241 -7.27,-9.511 -26.26,-23.489 -37.82,-26.795 -10.58,-3.022 -30.28,-5.408 -38.6,1.128 -2.15,1.693 -3.1,4.578 -5.32,6.057 -4.33,2.891 -9.63,2.998 -14.22,5.292 -3.78,1.887 -5.21,6.824 -8.83,9.236 -1.41,0.938 -1.03,11.575 -5.23,13.929 z"
         style="fill:#926a41"
         id="path562" />
    </g>
    <g
       transform="matrix(0.23836312,0,0,0.26458333,-202.2721,-129.3518)"
       id="g580"
       style="clip-rule:evenodd;fill-rule:evenodd;stroke-linecap:round;stroke-linejoin:round;stroke-miterlimit:1.5">
      <path
         d="m 1241.88,612.462 c 0.96,0.454 1.87,1.373 2.61,1.85 1.34,0.848 2.77,1.431 4.44,1.785 1.09,0.232 2.44,0.46 3.48,0.207 0.91,-0.219 1.78,-0.914 2.86,-0.78 1.34,0.165 2.22,1.085 3.15,1.737 0.92,0.646 1.99,1.09 3.21,1.321 2.43,0.463 3.76,-0.892 5.93,-0.854 2.54,0.045 4.02,2.216 6.42,2.694 1.23,0.245 2.24,-0.006 3.26,-0.378 0.46,-0.169 1.26,-0.619 1.9,-0.515 1.29,0.209 3.04,0.681 4.07,1.321 0.6,0.379 0.9,0.898 1.64,1.172 1.46,0.548 1.95,-1.038 3.18,-0.839 0.92,0.149 1.41,0.799 2.01,1.397 0.22,-0.149 0.46,-0.262 0.74,-0.312 1.28,-0.235 2.37,0.544 3.43,1 0.31,0.131 0.62,0.239 0.93,0.322 1.13,-0.214 2.22,-0.531 3.41,-0.575 0.23,-0.008 0.49,0.061 0.76,0.18 1.2,-0.704 2.02,-1.837 3.44,-2.297 2.35,-0.754 4.39,1.273 6.74,1.061 1.21,-0.108 2.06,-0.72 2.88,-1.473 0.37,-0.341 0.96,-1.111 1.58,-1.196 1.25,-0.169 3.01,-0.183 4.15,0.228 0.68,0.243 1.11,0.746 1.87,0.829 1.52,0.165 1.47,-1.818 2.67,-1.98 1.5,-0.204 2.33,1.627 4,1.608 2.64,-0.029 4.09,-1.994 6.23,-2.843 1.03,-0.41 3.2,1.151 4.35,1.258 1.52,0.143 3.08,-1.188 4.65,-1.332 2.74,-0.251 4.95,2.328 7.48,0.006 0.73,-0.672 0.81,-1.722 1.43,-2.424 0.42,-0.482 2.35,1.094 2.86,1.14 0.8,0.074 1.64,-0.378 2.44,-0.394 1.13,-0.022 2.11,0.38 3.21,0.47 -0.87,-3.499 -5.78,-10.139 -7.39,-12.241 -7.27,-9.511 -26.26,-23.489 -37.82,-26.795 -5.14,-1.467 -12.21,-0.03 -19.18,1.248 -7.39,1.354 -28.28,2.372 -34.81,7.052 -6.26,4.482 -12.17,9.987 -12.98,13.413 -0.39,1.645 -1.03,11.575 -5.23,13.929 z"
         style="fill:#926a41"
         id="path578" />
    </g>
    <g
       transform="matrix(0.21837597,0,0,0.29736785,-383.36405,-260.28086)"
       id="g596"
       style="clip-rule:evenodd;fill-rule:evenodd;stroke-linecap:round;stroke-linejoin:round;stroke-miterlimit:1.5">
      <path
         d="m 1241.88,612.462 c 0.96,0.454 1.87,1.373 2.61,1.85 1.34,0.848 2.77,1.431 4.44,1.785 1.09,0.232 2.44,0.46 3.48,0.207 0.91,-0.219 1.78,-0.914 2.86,-0.78 1.34,0.165 2.22,1.085 3.15,1.737 0.92,0.646 1.99,1.09 3.21,1.321 2.43,0.463 3.76,-0.892 5.93,-0.854 2.54,0.045 4.02,2.216 6.42,2.694 1.23,0.245 2.24,-0.006 3.26,-0.378 0.46,-0.169 1.26,-0.619 1.9,-0.515 1.29,0.209 3.04,0.681 4.07,1.321 0.6,0.379 0.9,0.898 1.64,1.172 1.46,0.548 1.95,-1.038 3.18,-0.839 0.92,0.149 1.41,0.799 2.01,1.397 0.22,-0.149 0.46,-0.262 0.74,-0.312 1.28,-0.235 2.37,0.544 3.43,1 0.31,0.131 0.62,0.239 0.93,0.322 1.13,-0.214 2.22,-0.531 3.41,-0.575 0.23,-0.008 0.49,0.061 0.76,0.18 1.2,-0.704 2.02,-1.837 3.44,-2.297 2.35,-0.754 4.39,1.273 6.74,1.061 1.21,-0.108 2.06,-0.72 2.88,-1.473 0.37,-0.341 0.96,-1.111 1.58,-1.196 1.25,-0.169 3.01,-0.183 4.15,0.228 0.68,0.243 1.11,0.746 1.87,0.829 1.52,0.165 1.47,-1.818 2.67,-1.98 1.5,-0.204 2.33,1.627 4,1.608 2.64,-0.029 4.09,-1.994 6.23,-2.843 1.03,-0.41 3.2,1.151 4.35,1.258 1.52,0.143 3.08,-1.188 4.65,-1.332 2.74,-0.251 4.95,2.328 7.48,0.006 0.73,-0.672 0.81,-1.722 1.43,-2.424 0.42,-0.482 2.35,1.094 2.86,1.14 0.8,0.074 1.64,-0.378 2.44,-0.394 1.13,-0.022 2.11,0.38 3.21,0.47 -0.87,-3.499 -5.78,-10.139 -7.39,-12.241 -7.27,-9.511 -26.26,-23.489 -37.82,-26.795 -10.58,-3.022 -21.63,1.03 -29.95,7.566 -2.16,1.693 -3.1,4.578 -5.32,6.056 -4.34,2.891 -9.64,2.998 -14.23,5.292 -3.77,1.887 -5.21,6.825 -8.82,9.236 -1.41,0.938 -9.68,5.138 -13.88,7.492 z"
         style="fill:#926a41"
         id="path594" />
    </g>
    <g
       transform="matrix(0.23836312,0,0,0.30154033,-408.81247,-205.33484)"
       id="g612"
       style="clip-rule:evenodd;fill-rule:evenodd;stroke-linecap:round;stroke-linejoin:round;stroke-miterlimit:1.5">
      <path
         d="m 1241.88,612.462 c 0.96,0.454 1.87,1.373 2.61,1.85 1.34,0.848 2.77,1.431 4.44,1.785 1.09,0.232 2.44,0.46 3.48,0.207 0.91,-0.219 1.78,-0.914 2.86,-0.78 1.34,0.165 2.22,1.085 3.15,1.737 0.92,0.646 1.99,1.09 3.21,1.321 2.43,0.463 3.76,-0.892 5.93,-0.854 2.54,0.045 4.02,2.216 6.42,2.694 1.23,0.245 2.24,-0.006 3.26,-0.378 0.46,-0.169 1.26,-0.619 1.9,-0.515 1.29,0.209 3.04,0.681 4.07,1.321 0.6,0.379 0.9,0.898 1.64,1.172 1.46,0.548 1.95,-1.038 3.18,-0.839 0.92,0.149 1.41,0.799 2.01,1.397 0.22,-0.149 0.46,-0.262 0.74,-0.312 1.28,-0.235 2.37,0.544 3.43,1 0.31,0.131 0.62,0.239 0.93,0.322 1.13,-0.214 2.22,-0.531 3.41,-0.575 0.23,-0.008 0.49,0.061 0.76,0.18 1.2,-0.704 2.02,-1.837 3.44,-2.297 2.35,-0.754 4.39,1.273 6.74,1.061 1.21,-0.108 2.06,-0.72 2.88,-1.473 0.37,-0.341 0.96,-1.111 1.58,-1.196 1.25,-0.169 3.01,-0.183 4.15,0.228 0.68,0.243 1.11,0.746 1.87,0.829 1.52,0.165 1.47,-1.818 2.67,-1.98 1.5,-0.204 2.33,1.627 4,1.608 2.64,-0.029 4.09,-1.994 6.23,-2.843 1.03,-0.41 3.2,1.151 4.35,1.258 1.52,0.143 3.08,-1.188 4.65,-1.332 2.74,-0.251 4.95,2.328 7.48,0.006 0.73,-0.672 0.81,-1.722 1.43,-2.424 0.42,-0.482 2.35,1.094 2.86,1.14 0.8,0.074 1.64,-0.378 2.44,-0.394 1.13,-0.022 2.11,0.38 3.21,0.47 -0.87,-3.499 -5.78,-10.139 -7.39,-12.241 -7.27,-9.511 -26.26,-23.489 -37.82,-26.795 -10.58,-3.022 -21.63,1.03 -29.95,7.566 -2.16,1.693 -3.1,4.578 -5.32,6.056 -4.34,2.891 -9.64,2.998 -14.23,5.292 -3.77,1.887 -5.21,6.825 -8.82,9.236 -1.41,0.938 -9.68,5.138 -13.88,7.492 z"
         style="fill:#926a41"
         id="path610" />
    </g>
    <g
       transform="matrix(0.23836312,0,0,0.30154033,-500.99489,-234.08975)"
       id="g628"
       style="clip-rule:evenodd;fill-rule:evenodd;stroke-linecap:round;stroke-linejoin:round;stroke-miterlimit:1.5">
      <path
         d="m 1250.99,603.766 c -11.68,2.209 -18.88,11.509 -6.5,10.546 1.58,-0.123 2.77,1.431 4.44,1.785 1.09,0.232 2.44,0.46 3.48,0.207 0.91,-0.219 1.78,-0.914 2.86,-0.78 1.34,0.165 2.22,1.085 3.15,1.737 0.92,0.646 1.99,1.09 3.21,1.321 2.43,0.463 3.76,-0.892 5.93,-0.854 2.54,0.045 4.02,2.216 6.42,2.694 1.23,0.245 2.24,-0.006 3.26,-0.378 0.46,-0.169 1.26,-0.619 1.9,-0.515 1.29,0.209 3.04,0.681 4.07,1.321 0.6,0.379 0.9,0.898 1.64,1.172 1.46,0.548 1.95,-1.038 3.18,-0.839 0.92,0.149 1.41,0.799 2.01,1.397 0.22,-0.149 0.46,-0.262 0.74,-0.312 1.28,-0.235 2.37,0.544 3.43,1 0.31,0.131 0.62,0.239 0.93,0.322 1.13,-0.214 2.22,-0.531 3.41,-0.575 0.23,-0.008 0.49,0.061 0.76,0.18 1.2,-0.704 2.02,-1.837 3.44,-2.297 2.35,-0.754 4.39,1.273 6.74,1.061 1.21,-0.108 2.06,-0.72 2.88,-1.473 0.37,-0.341 0.96,-1.111 1.58,-1.196 1.25,-0.169 3.01,-0.183 4.15,0.228 0.68,0.243 1.11,0.746 1.87,0.829 1.52,0.165 1.47,-1.818 2.67,-1.98 1.5,-0.204 2.33,1.627 4,1.608 2.64,-0.029 4.09,-1.994 6.23,-2.843 1.03,-0.41 3.2,1.151 4.35,1.258 1.52,0.143 3.08,-1.188 4.65,-1.332 2.74,-0.251 4.95,2.328 7.48,0.006 0.73,-0.672 0.81,-1.722 1.43,-2.424 0.42,-0.482 2.35,1.094 2.86,1.14 0.8,0.074 1.64,-0.378 2.44,-0.394 1.13,-0.022 2.11,0.38 3.21,0.47 -0.87,-3.499 -5.78,-10.139 -7.39,-12.241 -7.27,-9.511 -26.26,-23.489 -37.82,-26.795 -10.58,-3.022 -21.63,1.03 -29.95,7.566 -2.16,1.693 -3.1,4.578 -5.32,6.056 -4.34,2.891 -6.54,6.8 -11.13,9.094 -3.77,1.887 -12.42,3.422 -16.69,4.23 z"
         style="fill:#926a41"
         id="path626" />
    </g>
    <g
       transform="matrix(0.26458333,0,0,0.26458333,-310.97307,-197.79421)"
       id="g644"
       style="clip-rule:evenodd;fill-rule:evenodd;stroke-linecap:round;stroke-linejoin:round;stroke-miterlimit:1.5">
      <path
         d="m 1373.37,639.469 c -2.11,-0.526 -4.46,-2.246 -6.23,-3.817 -0.76,-0.682 -1.48,-2.698 -1.48,-2.698 0,0 -0.86,1.597 -1.21,2.429 -0.39,0.894 -1.35,4.417 -2.57,4.722 -0.48,0.121 -2.77,-4.512 -2.83,-4.453 -1.07,1.069 -1.66,4.306 -4.05,3.508 -0.54,-0.179 -0.95,-2.29 -1.35,-2.158 -0.79,0.262 -0.92,1.565 -1.89,1.889 -1.25,0.418 -1.79,-0.493 -2.69,-0.945 -0.71,-0.354 -1.16,0.81 -1.89,0.81"
         style="fill:none;stroke:#051372;stroke-width:1px"
         id="path642" />
    </g>
    <g
       transform="matrix(0.26458333,0,0,0.26458333,-385.00314,-160.04346)"
       id="g660"
       style="clip-rule:evenodd;fill-rule:evenodd;stroke-linecap:round;stroke-linejoin:round;stroke-miterlimit:1.5">
      <path
         d="m 1373.37,639.469 c -2.11,-0.526 -4.46,-2.246 -6.23,-3.817 -0.76,-0.682 -1.48,-2.698 -1.48,-2.698 0,0 -0.86,1.597 -1.21,2.429 -0.39,0.894 -1.35,4.417 -2.57,4.722 -0.48,0.121 -2.77,-4.512 -2.83,-4.453 -1.07,1.069 -1.66,4.306 -4.05,3.508 -0.54,-0.179 -0.95,-2.29 -1.35,-2.158 -0.79,0.262 -0.92,1.565 -1.89,1.889 -1.25,0.418 -1.79,-0.493 -2.69,-0.945 -0.71,-0.354 -1.16,0.81 -1.89,0.81"
         style="fill:none;stroke:#051372;stroke-width:1px"
         id="path658" />
    </g>
    <g
       transform="matrix(0.46705837,0,0,0.26358426,-767.85495,-139.67319)"
       id="g676"
       style="clip-rule:evenodd;fill-rule:evenodd;stroke-linecap:round;stroke-linejoin:round;stroke-miterlimit:1.5">
      <path
         d="m 1373.37,639.469 c -2.11,-0.526 -4.46,-2.246 -6.23,-3.817 -0.76,-0.682 -1.48,-2.698 -1.48,-2.698 0,0 -0.86,1.597 -1.21,2.429 -0.39,0.894 -1.35,4.417 -2.57,4.722 -0.48,0.121 -2.77,-4.512 -2.83,-4.453 -1.07,1.069 -1.66,4.306 -4.05,3.508 -0.54,-0.179 -0.95,-2.29 -1.35,-2.158 -0.79,0.262 -0.92,1.565 -1.89,1.889 -1.25,0.418 -1.79,-0.493 -2.69,-0.945 -0.71,-0.354 -1.16,0.81 -1.89,0.81"
         style="fill:none;stroke:#051372;stroke-width:0.7px"
         id="path674" />
    </g>
    <g
       transform="matrix(0.46705837,0,0,0.26358426,-545.48933,-144.94105)"
       id="g692"
       style="clip-rule:evenodd;fill-rule:evenodd;stroke-linecap:round;stroke-linejoin:round;stroke-miterlimit:1.5">
      <path
         d="m 1373.37,639.469 c -2.11,-0.526 -4.46,-2.246 -6.23,-3.817 -0.76,-0.682 -1.48,-2.698 -1.48,-2.698 0,0 -0.86,1.597 -1.21,2.429 -0.39,0.894 -1.35,4.417 -2.57,4.722 -0.48,0.121 -2.77,-4.512 -2.83,-4.453 -1.07,1.069 -1.66,4.306 -4.05,3.508 -0.54,-0.179 -0.95,-2.29 -1.35,-2.158 -0.79,0.262 -0.92,1.565 -1.89,1.889 -1.25,0.418 -1.79,-0.493 -2.69,-0.945 -0.71,-0.354 -1.16,0.81 -1.89,0.81"
         style="fill:none;stroke:#051372;stroke-width:0.7px"
         id="path690" />
    </g>
    <g
       transform="matrix(0.26458333,0,0,0.26458333,-443.54749,-241.37638)"
       id="g708"
       style="clip-rule:evenodd;fill-rule:evenodd;stroke-linecap:round;stroke-linejoin:round;stroke-miterlimit:1.5">
      <path
         d="m 1373.37,639.469 c -2.11,-0.526 -4.46,-2.246 -6.23,-3.817 -0.76,-0.682 -1.48,-2.698 -1.48,-2.698 0,0 -0.86,1.597 -1.21,2.429 -0.39,0.894 -1.35,4.417 -2.57,4.722 -0.48,0.121 -2.77,-4.512 -2.83,-4.453 -1.07,1.069 -1.66,4.306 -4.05,3.508 -0.54,-0.179 -0.95,-2.29 -1.35,-2.158 -0.79,0.262 -0.92,1.565 -1.89,1.889 -1.25,0.418 -1.79,-0.493 -2.69,-0.945 -0.71,-0.354 -1.16,0.81 -1.89,0.81"
         style="fill:none;stroke:#051372;stroke-width:1px"
         id="path706" />
    </g>
    <g
       transform="matrix(0.26458333,0,0,0.26458333,-445.93615,-199.58809)"
       id="g724"
       style="clip-rule:evenodd;fill-rule:evenodd;stroke-linecap:round;stroke-linejoin:round;stroke-miterlimit:1.5">
      <path
         d="m 1373.37,639.469 c -2.11,-0.526 -4.46,-2.246 -6.23,-3.817 -0.76,-0.682 -1.48,-2.698 -1.48,-2.698 0,0 -0.86,1.597 -1.21,2.429 -0.39,0.894 -1.35,4.417 -2.57,4.722 -0.48,0.121 -2.77,-4.512 -2.83,-4.453 -1.07,1.069 -1.66,4.306 -4.05,3.508 -0.54,-0.179 -0.95,-2.29 -1.35,-2.158 -0.79,0.262 -0.92,1.565 -1.89,1.889 -1.25,0.418 -1.79,-0.493 -2.69,-0.945 -0.71,-0.354 -1.16,0.81 -1.89,0.81"
         style="fill:none;stroke:#051372;stroke-width:1px"
         id="path722" />
    </g>
    <g
       transform="matrix(0.26458333,0,0,0.26458333,-535.67753,-223.86361)"
       id="g740"
       style="clip-rule:evenodd;fill-rule:evenodd;stroke-linecap:round;stroke-linejoin:round;stroke-miterlimit:1.5">
      <path
         d="m 1373.37,639.469 c -2.11,-0.526 -4.46,-2.246 -6.23,-3.817 -0.76,-0.682 -1.48,-2.698 -1.48,-2.698 0,0 -0.86,1.597 -1.21,2.429 -0.39,0.894 -1.35,4.417 -2.57,4.722 -0.48,0.121 -2.77,-4.512 -2.83,-4.453 -1.07,1.069 -1.66,4.306 -4.05,3.508 -0.54,-0.179 -0.95,-2.29 -1.35,-2.158 -0.79,0.262 -0.92,1.565 -1.89,1.889 -1.25,0.418 -1.79,-0.493 -2.69,-0.945 -0.71,-0.354 -1.16,0.81 -1.89,0.81"
         style="fill:none;stroke:#051372;stroke-width:1px"
         id="path738" />
    </g>
    <g
       transform="matrix(0.26458333,0,0,0.26458333,-312.63333,-192.32792)"
       id="g756"
       style="clip-rule:evenodd;fill-rule:evenodd;stroke-linecap:round;stroke-linejoin:round;stroke-miterlimit:1.5">
      <path
         d="m 1256.94,575.6 c -0.84,0.792 -5.37,-0.583 -5.96,-1.471 -0.5,-0.745 -0.81,-2.563 -0.81,-2.563 0,0 -0.31,1.186 -0.54,1.754 -0.37,0.917 -1.53,3.274 -2.7,3.508 -0.78,0.156 -1.68,-0.049 -2.29,-0.54 -0.38,-0.304 -0.81,-1.214 -0.81,-1.214 0,0 -1.33,2.11 -2.43,2.293 -1.8,0.301 -1.34,-1.069 -2.16,-1.889 -0.07,-0.074 -0.67,0.675 -0.81,0.81 -0.46,0.457 -0.98,0.702 -1.62,0.809 -1.06,0.177 -1.45,-1.585 -2.16,-1.349 -0.32,0.109 -1.75,1.331 -1.75,0.945"
         style="fill:none;stroke:#051372;stroke-width:1px"
         id="path754" />
    </g>
    <g
       transform="matrix(0.26458333,0,0,0.26458333,-231.43236,-204.7554)"
       id="g772"
       style="clip-rule:evenodd;fill-rule:evenodd;stroke-linecap:round;stroke-linejoin:round;stroke-miterlimit:1.5">
      <path
         d="m 1256.94,575.6 c -0.84,0.792 -5.37,-0.583 -5.96,-1.471 -0.5,-0.745 -0.81,-2.563 -0.81,-2.563 0,0 -0.31,1.186 -0.54,1.754 -0.37,0.917 -1.53,3.274 -2.7,3.508 -0.78,0.156 -1.68,-0.049 -2.29,-0.54 -0.38,-0.304 -0.81,-1.214 -0.81,-1.214 0,0 -1.33,2.11 -2.43,2.293 -1.8,0.301 -1.34,-1.069 -2.16,-1.889 -0.07,-0.074 -0.67,0.675 -0.81,0.81 -0.46,0.457 -0.98,0.702 -1.62,0.809 -1.06,0.177 -1.45,-1.585 -2.16,-1.349 -0.32,0.109 -1.75,1.331 -1.75,0.945"
         style="fill:none;stroke:#051372;stroke-width:1px"
         id="path770" />
    </g>
    <g
       transform="matrix(0.26458333,0,0,0.26458333,-341.66148,-159.76565)"
       id="g788"
       style="clip-rule:evenodd;fill-rule:evenodd;stroke-linecap:round;stroke-linejoin:round;stroke-miterlimit:1.5">
      <path
         d="m 1256.94,575.6 c -0.84,0.792 -5.37,-0.583 -5.96,-1.471 -0.5,-0.745 -0.81,-2.563 -0.81,-2.563 0,0 -0.31,1.186 -0.54,1.754 -0.37,0.917 -1.53,3.274 -2.7,3.508 -0.78,0.156 -1.68,-0.049 -2.29,-0.54 -0.38,-0.304 -0.81,-1.214 -0.81,-1.214 0,0 -1.33,2.11 -2.43,2.293 -1.8,0.301 -1.34,-1.069 -2.16,-1.889 -0.07,-0.074 -0.67,0.675 -0.81,0.81 -0.46,0.457 -0.98,0.702 -1.62,0.809 -1.06,0.177 -1.45,-1.585 -2.16,-1.349 -0.32,0.109 -1.75,1.331 -1.75,0.945"
         style="fill:none;stroke:#051372;stroke-width:1px"
         id="path786" />
    </g>
    <g
       transform="matrix(0.26458333,0,0,0.38121431,-358.95888,-278.58235)"
       id="g804"
       style="clip-rule:evenodd;fill-rule:evenodd;stroke-linecap:round;stroke-linejoin:round;stroke-miterlimit:1.5">
      <path
         d="m 1256.94,575.6 c -0.84,0.792 -5.37,-0.583 -5.96,-1.471 -0.5,-0.745 -0.81,-2.563 -0.81,-2.563 0,0 -0.31,1.186 -0.54,1.754 -0.37,0.917 -1.53,3.274 -2.7,3.508 -0.78,0.156 -1.68,-0.049 -2.29,-0.54 -0.38,-0.304 -0.81,-1.214 -0.81,-1.214 0,0 -1.33,2.11 -2.43,2.293 -1.8,0.301 -1.34,-1.069 -2.16,-1.889 -0.07,-0.074 -0.67,0.675 -0.81,0.81 -0.46,0.457 -0.98,0.702 -1.62,0.809 -1.06,0.177 -1.45,-1.585 -2.16,-1.349 -0.32,0.109 -1.75,1.331 -1.75,0.945"
         style="fill:none;stroke:#051372;stroke-width:0.81px"
         id="path802" />
    </g>
    <g
       transform="matrix(-0.26458333,0,0,0.26458333,253.19593,-170.40984)"
       id="g820"
       style="clip-rule:evenodd;fill-rule:evenodd;stroke-linecap:round;stroke-linejoin:round;stroke-miterlimit:1.5">
      <path
         d="m 1256.94,575.6 c -0.84,0.792 -5.37,-0.583 -5.96,-1.471 -0.5,-0.745 -0.81,-2.563 -0.81,-2.563 0,0 -0.31,1.186 -0.54,1.754 -0.37,0.917 -1.53,3.274 -2.7,3.508 -0.78,0.156 -1.68,-0.049 -2.29,-0.54 -0.38,-0.304 -0.81,-1.214 -0.81,-1.214 0,0 -1.33,2.11 -2.43,2.293 -1.8,0.301 -1.34,-1.069 -2.16,-1.889 -0.07,-0.074 -0.67,0.675 -0.81,0.81 -0.46,0.457 -0.98,0.702 -1.62,0.809 -1.06,0.177 -1.45,-1.585 -2.16,-1.349 -0.32,0.109 -1.75,1.331 -1.75,0.945"
         style="fill:none;stroke:#051372;stroke-width:1px"
         id="path818" />
    </g>
    <g
       transform="matrix(-0.26458333,0,0,0.26458333,163.45455,-194.68536)"
       id="g836"
       style="clip-rule:evenodd;fill-rule:evenodd;stroke-linecap:round;stroke-linejoin:round;stroke-miterlimit:1.5">
      <path
         d="m 1256.94,575.6 c -0.84,0.792 -5.37,-0.583 -5.96,-1.471 -0.5,-0.745 -0.81,-2.563 -0.81,-2.563 0,0 -0.31,1.186 -0.54,1.754 -0.37,0.917 -1.53,3.274 -2.7,3.508 -0.78,0.156 -1.68,-0.049 -2.29,-0.54 -0.38,-0.304 -0.81,-1.214 -0.81,-1.214 0,0 -1.33,2.11 -2.43,2.293 -1.8,0.301 -1.34,-1.069 -2.16,-1.889 -0.07,-0.074 -0.67,0.675 -0.81,0.81 -0.46,0.457 -0.98,0.702 -1.62,0.809 -1.06,0.177 -1.45,-1.585 -2.16,-1.349 -0.32,0.109 -1.75,1.331 -1.75,0.945"
         style="fill:none;stroke:#051372;stroke-width:1px"
         id="path834" />
    </g>
    <g
       transform="matrix(0.26458333,0,0,0.26458333,-300.27539,-199.46373)"
       id="g852"
       style="clip-rule:evenodd;fill-rule:evenodd;stroke-linecap:round;stroke-linejoin:round;stroke-miterlimit:1.5">
      <path
         d="m 1252.63,642.474 c -0.43,-1.08 -4.12,-1.45 -5.16,-2.369 -0.27,-0.243 -1.89,-3.505 -2.56,-2.833 -0.71,0.704 -0.09,2.782 -0.95,3.642 -1.03,1.029 -5.31,-1.724 -6.61,-2.158 -1.04,-0.349 -0.77,2.09 -1.62,2.428 -1.38,0.553 -2.98,-1.355 -4.18,-1.754 -0.91,-0.303 -1.45,0.742 -1.75,1.349 -0.13,0.251 -1.6,-0.622 -1.76,-0.674 -0.57,-0.19 -1.16,0.405 -1.75,0.405"
         style="fill:none;stroke:#051372;stroke-width:1px"
         id="path850" />
    </g>
    <g
       transform="matrix(0.26458333,0,0,0.26458333,-378.59202,-159.33967)"
       id="g868"
       style="clip-rule:evenodd;fill-rule:evenodd;stroke-linecap:round;stroke-linejoin:round;stroke-miterlimit:1.5">
      <path
         d="m 1252.63,642.474 c -0.43,-1.08 -4.12,-1.45 -5.16,-2.369 -0.27,-0.243 -1.89,-3.505 -2.56,-2.833 -0.71,0.704 -0.09,2.782 -0.95,3.642 -1.03,1.029 -5.31,-1.724 -6.61,-2.158 -1.04,-0.349 -0.77,2.09 -1.62,2.428 -1.38,0.553 -2.98,-1.355 -4.18,-1.754 -0.91,-0.303 -1.45,0.742 -1.75,1.349 -0.13,0.251 -1.6,-0.622 -1.76,-0.674 -0.57,-0.19 -1.16,0.405 -1.75,0.405"
         style="fill:none;stroke:#051372;stroke-width:1px"
         id="path866" />
    </g>
    <g
       transform="matrix(0.26458333,0,0,0.26458333,-416.99629,-130.64561)"
       id="g884"
       style="clip-rule:evenodd;fill-rule:evenodd;stroke-linecap:round;stroke-linejoin:round;stroke-miterlimit:1.5">
      <path
         d="m 1252.63,642.474 c -0.43,-1.08 -4.12,-1.45 -5.16,-2.369 -0.27,-0.243 -1.89,-3.505 -2.56,-2.833 -0.71,0.704 -0.09,2.782 -0.95,3.642 -1.03,1.029 -5.31,-1.724 -6.61,-2.158 -1.04,-0.349 -0.77,2.09 -1.62,2.428 -1.38,0.553 -2.98,-1.355 -4.18,-1.754 -0.91,-0.303 -1.45,0.742 -1.75,1.349 -0.13,0.251 -1.6,-0.622 -1.76,-0.674 -0.57,-0.19 -1.16,0.405 -1.75,0.405"
         style="fill:none;stroke:#051372;stroke-width:1px"
         id="path882" />
    </g>
    <g
       transform="matrix(0.26458333,0,0,0.26458333,-194.63173,-135.91611)"
       id="g900"
       style="clip-rule:evenodd;fill-rule:evenodd;stroke-linecap:round;stroke-linejoin:round;stroke-miterlimit:1.5">
      <path
         d="m 1252.63,642.474 c -0.43,-1.08 -4.12,-1.45 -5.16,-2.369 -0.27,-0.243 -1.89,-3.505 -2.56,-2.833 -0.71,0.704 -0.09,2.782 -0.95,3.642 -1.03,1.029 -5.31,-1.724 -6.61,-2.158 -1.04,-0.349 -0.77,2.09 -1.62,2.428 -1.38,0.553 -2.98,-1.355 -4.18,-1.754 -0.91,-0.303 -1.45,0.742 -1.75,1.349 -0.13,0.251 -1.6,-0.622 -1.76,-0.674 -0.57,-0.19 -1.16,0.405 -1.75,0.405"
         style="fill:none;stroke:#051372;stroke-width:1px"
         id="path898" />
    </g>
    <g
       transform="matrix(0.26458333,0,0,0.26458333,-305.10209,-207.28746)"
       id="g916"
       style="clip-rule:evenodd;fill-rule:evenodd;stroke-linecap:round;stroke-linejoin:round;stroke-miterlimit:1.5">
      <path
         d="m 1207.52,526.417 c 0.02,-0.022 0.03,-0.044 0.04,-0.066"
         style="fill:none"
         id="path914" />
    </g>
    <g
       transform="matrix(0.26458333,0,0,0.26458333,-223.901,-219.71494)"
       id="g932"
       style="clip-rule:evenodd;fill-rule:evenodd;stroke-linecap:round;stroke-linejoin:round;stroke-miterlimit:1.5">
      <path
         d="m 1207.52,526.417 c 0.02,-0.022 0.03,-0.044 0.04,-0.066"
         style="fill:none"
         id="path930" />
    </g>
    <g
       transform="matrix(0.26458333,0,0,0.26458333,-310.97307,-197.79421)"
       id="g948"
       style="clip-rule:evenodd;fill-rule:evenodd;stroke-linecap:round;stroke-linejoin:round;stroke-miterlimit:1.5">
      <path
         d="m 1421.13,651.342 c -1.11,-0.898 -1.05,-2.079 0.14,-1.417"
         style="fill:none"
         id="path946" />
    </g>
    <g
       transform="matrix(0.26458333,0,0,0.26458333,-305.79464,-207.90394)"
       id="g964"
       style="clip-rule:evenodd;fill-rule:evenodd;stroke-linecap:round;stroke-linejoin:round;stroke-miterlimit:1.5">
      <path
         d="m 1327.16,615.209 c 1.34,-0.035 -1.06,-5.656 -1.55,-6.806 -2.09,-4.876 -7.19,-11.963 -13.04,-12.613 -3.01,-0.335 -6.11,-0.061 -8.78,1.276 -1.22,0.608 -1.97,2.795 -2.7,3.826 -0.79,1.129 -2.72,2.014 -3.25,3.259 -1.02,2.375 -2.14,4.781 -3.12,7.086 -0.87,2.028 -2.55,3.933 -2.98,6.094 -0.25,1.281 2.48,0.314 3.26,0.425 1.54,0.219 2.74,1.243 4.11,1.7 1,0.334 2.5,-0.08 3.54,0 4.86,0.374 9.18,0.347 13.98,-1.397 1.88,-0.685 10.53,-2.85 10.53,-2.85 z"
         style="fill:#5a3614"
         id="path962" />
    </g>
    <g
       transform="matrix(0.26354986,0.02336263,-0.02336263,0.26354986,-210.42089,-250.19225)"
       id="g980"
       style="clip-rule:evenodd;fill-rule:evenodd;stroke-linecap:round;stroke-linejoin:round;stroke-miterlimit:1.5">
      <path
         d="m 1327.16,615.209 c 1.34,-0.035 -1.06,-5.656 -1.55,-6.806 -2.09,-4.876 -7.19,-11.963 -13.04,-12.613 -3.01,-0.335 -13.31,0.648 -15.99,1.985 -1.21,0.608 -1.97,2.795 -2.69,3.826 -0.79,1.129 -2.73,2.014 -3.26,3.259 -1.02,2.375 -2.13,4.781 -3.12,7.086 -0.87,2.028 -2.54,3.932 -2.97,6.094 -0.26,1.281 2.48,0.314 3.26,0.425 1.53,0.219 2.74,1.243 4.11,1.7 1,0.334 2.5,-0.08 3.54,0 4.85,0.374 16.38,-0.362 21.18,-2.106 1.88,-0.685 10.53,-2.85 10.53,-2.85 z"
         style="fill:#5a3614"
         id="path978" />
    </g>
    <g
       transform="matrix(0.26458333,0,0,0.26458333,-379.28444,-159.95615)"
       id="g996"
       style="clip-rule:evenodd;fill-rule:evenodd;stroke-linecap:round;stroke-linejoin:round;stroke-miterlimit:1.5">
      <path
         d="m 1327.16,615.209 c 1.34,-0.035 -1.06,-5.656 -1.55,-6.806 -2.09,-4.876 -7.19,-11.963 -13.04,-12.613 -3.01,-0.335 -6.11,-0.061 -8.78,1.276 -1.22,0.608 -1.97,2.795 -2.7,3.826 -0.79,1.129 -2.72,2.014 -3.25,3.259 -1.02,2.375 -2.14,4.781 -3.12,7.086 -0.87,2.028 -2.55,3.933 -2.98,6.094 -0.25,1.281 2.48,0.314 3.26,0.425 1.54,0.219 2.74,1.243 4.11,1.7 1,0.334 2.5,-0.08 3.54,0 4.86,0.374 9.18,0.347 13.98,-1.397 1.88,-0.685 10.53,-2.85 10.53,-2.85 z"
         style="fill:#5a3614"
         id="path994" />
    </g>
    <g
       transform="matrix(0.26458333,0,0,0.26458333,-460.97031,-124.69778)"
       id="g1012"
       style="clip-rule:evenodd;fill-rule:evenodd;stroke-linecap:round;stroke-linejoin:round;stroke-miterlimit:1.5">
      <path
         d="m 1327.16,615.209 c 1.34,-0.035 -1.06,-5.656 -1.55,-6.806 -2.09,-4.876 -7.19,-11.963 -13.04,-12.613 -3.01,-0.335 -6.11,-0.061 -8.78,1.276 -1.22,0.608 -1.97,2.795 -2.7,3.826 -0.79,1.129 -2.72,2.014 -3.25,3.259 -1.02,2.375 -2.14,4.781 -3.12,7.086 -0.87,2.028 -2.55,3.933 -2.98,6.094 -0.25,1.281 2.48,0.314 3.26,0.425 1.54,0.219 2.74,1.243 4.11,1.7 1,0.334 2.5,-0.08 3.54,0 4.86,0.374 9.18,0.347 13.98,-1.397 1.88,-0.685 10.53,-2.85 10.53,-2.85 z"
         style="fill:#5a3614"
         id="path1010" />
    </g>
    <g
       transform="matrix(0.26458333,0,0,0.26458333,-238.60548,-129.96828)"
       id="g1028"
       style="clip-rule:evenodd;fill-rule:evenodd;stroke-linecap:round;stroke-linejoin:round;stroke-miterlimit:1.5">
      <path
         d="m 1324.86,619.649 c 0.49,3.279 -0.41,-7.054 -0.91,-8.204 -2.09,-4.876 -6.99,-12.931 -12.84,-13.58 -3.01,-0.336 -4.65,-2.136 -7.32,-0.799 -1.22,0.608 -1.97,2.795 -2.7,3.826 -0.79,1.129 -2.72,2.014 -3.25,3.259 -1.02,2.375 -2.14,4.781 -3.12,7.086 -0.87,2.028 -2.55,3.933 -2.98,6.094 -0.25,1.281 2.48,0.314 3.26,0.425 1.54,0.219 2.74,1.243 4.11,1.7 1,0.334 2.5,-0.08 3.54,0 4.86,0.374 9.18,0.347 13.98,-1.397 1.88,-0.685 8.23,1.59 8.23,1.59 z"
         style="fill:#5a3614"
         id="path1026" />
    </g>
    <g
       transform="matrix(0.29599466,0,0,0.34920237,-487.80303,-293.0929)"
       id="g1044"
       style="clip-rule:evenodd;fill-rule:evenodd;stroke-linecap:round;stroke-linejoin:round;stroke-miterlimit:1.5">
      <path
         d="m 1327.16,615.209 c 1.34,-0.035 -1.06,-5.656 -1.55,-6.806 -2.09,-4.876 -7.19,-11.963 -13.04,-12.613 -3.01,-0.335 -5.82,1.642 -8.78,1.276 -4.75,-0.586 -14.27,17.204 -12.05,20.265 0.77,1.056 2.48,0.314 3.26,0.425 1.54,0.219 2.74,1.243 4.11,1.7 1,0.334 2.5,-0.08 3.54,0 4.86,0.374 9.18,0.347 13.98,-1.397 1.88,-0.685 10.53,-2.85 10.53,-2.85 z"
         style="fill:#5a3614"
         id="path1042" />
    </g>
    <g
       transform="matrix(0.26458333,0,0,0.26458333,-444.05629,-183.64959)"
       id="g1060"
       style="clip-rule:evenodd;fill-rule:evenodd;stroke-linecap:round;stroke-linejoin:round;stroke-miterlimit:1.5">
      <path
         d="m 1327.16,615.209 c 1.34,-0.035 -1.06,-5.656 -1.55,-6.806 -2.09,-4.876 -7.19,-11.963 -13.04,-12.613 -3.01,-0.335 -6.11,-0.061 -8.78,1.276 -1.22,0.608 -1.97,2.795 -2.7,3.826 -0.79,1.129 -2.72,2.014 -3.25,3.259 -1.02,2.375 -2.14,4.781 -3.12,7.086 -0.87,2.028 -2.55,3.933 -2.98,6.094 -0.25,1.281 2.48,0.314 3.26,0.425 1.54,0.219 2.74,1.243 4.11,1.7 1,0.334 2.5,-0.08 3.54,0 4.86,0.374 9.18,0.347 13.98,-1.397 1.88,-0.685 10.53,-2.85 10.53,-2.85 z"
         style="fill:#5a3614"
         id="path1058" />
    </g>
    <g
       transform="matrix(0.26458333,0,0,0.26458333,-536.23871,-212.4045)"
       id="g1076"
       style="clip-rule:evenodd;fill-rule:evenodd;stroke-linecap:round;stroke-linejoin:round;stroke-miterlimit:1.5">
      <path
         d="m 1327.16,615.209 c 1.34,-0.035 -1.06,-5.656 -1.55,-6.806 -2.09,-4.876 -7.19,-11.963 -13.04,-12.613 -3.01,-0.335 -6.11,-0.061 -8.78,1.276 -1.22,0.608 -1.97,2.795 -2.7,3.826 -0.79,1.129 -2.72,2.014 -3.25,3.259 -1.02,2.375 -2.14,4.781 -3.12,7.086 -0.87,2.028 -2.55,3.933 -2.98,6.094 -0.25,1.281 2.48,0.314 3.26,0.425 1.54,0.219 2.74,1.243 4.11,1.7 1,0.334 2.5,-0.08 3.54,0 4.86,0.374 9.18,0.347 13.98,-1.397 1.88,-0.685 10.53,-2.85 10.53,-2.85 z"
         style="fill:#5a3614"
         id="path1074" />
    </g>
    <g
       transform="matrix(0.26458333,0,0,0.26458333,-305.10209,-207.28746)"
       id="g1092"
       style="clip-rule:evenodd;fill-rule:evenodd;stroke-linecap:round;stroke-linejoin:round;stroke-miterlimit:1.5">
      <path
         d="m 1342.59,617.053 c 2.42,0.176 4.45,2.125 6.76,0.011 0.73,-0.672 0.81,-1.722 1.43,-2.424 0.42,-0.482 2.35,1.094 2.86,1.14 0.8,0.074 1.64,-0.378 2.44,-0.394 1.13,-0.022 2.11,0.38 3.21,0.47 -0.87,-3.499 -5.78,-10.139 -7.39,-12.241 -7.27,-9.511 -26.26,-23.489 -37.82,-26.795 -8.07,-2.305 -16.42,-0.494 -23.61,3.395 2.57,-0.034 5.12,1.54 7.73,1.016 19.49,-3.9 34.46,13.758 39.62,25.195 0.83,1.85 3.36,6.746 4.77,10.627 z"
         style="fill:#968069"
         id="path1090" />
    </g>
    <g
       transform="matrix(0.26458333,0,0,0.26458333,-223.901,-219.71494)"
       id="g1108"
       style="clip-rule:evenodd;fill-rule:evenodd;stroke-linecap:round;stroke-linejoin:round;stroke-miterlimit:1.5">
      <path
         d="m 1342.59,617.053 c 2.42,0.176 4.45,2.125 6.76,0.011 0.73,-0.672 0.81,-1.722 1.43,-2.424 0.42,-0.482 2.35,1.094 2.86,1.14 0.8,0.074 1.64,-0.378 2.44,-0.394 1.13,-0.022 2.11,0.38 3.21,0.47 -0.87,-3.499 -5.78,-10.139 -7.39,-12.241 -7.27,-9.511 -26.26,-23.489 -37.82,-26.795 -8.07,-2.305 -16.42,-0.494 -23.61,3.395 2.57,-0.034 5.12,1.54 7.73,1.016 19.49,-3.9 34.46,13.758 39.62,25.195 0.83,1.85 3.36,6.746 4.77,10.627 z"
         style="fill:#968069"
         id="path1106" />
    </g>
    <g
       transform="matrix(0.23382525,0,0,0.26458333,-336.78283,-159.33967)"
       id="g1124"
       style="clip-rule:evenodd;fill-rule:evenodd;stroke-linecap:round;stroke-linejoin:round;stroke-miterlimit:1.5">
      <path
         d="m 1342.59,617.053 c 2.42,0.176 4.45,2.125 6.76,0.011 0.73,-0.672 0.81,-1.722 1.43,-2.424 0.42,-0.482 2.35,1.094 2.86,1.14 0.8,0.074 1.64,-0.378 2.44,-0.394 1.13,-0.022 2.11,0.38 3.21,0.47 -0.87,-3.499 -5.78,-10.139 -7.39,-12.241 -7.27,-9.511 -26.26,-23.489 -37.82,-26.795 -8.07,-2.305 -16.42,-0.494 -23.61,3.395 2.57,-0.034 5.12,1.54 7.73,1.016 19.49,-3.9 34.46,13.758 39.62,25.195 0.83,1.85 3.36,6.746 4.77,10.627 z"
         style="fill:#968069"
         id="path1122" />
    </g>
    <g
       transform="matrix(0.23382525,0,0,0.26458333,-418.51368,-124.2374)"
       id="g1140"
       style="clip-rule:evenodd;fill-rule:evenodd;stroke-linecap:round;stroke-linejoin:round;stroke-miterlimit:1.5">
      <path
         d="m 1342.59,617.053 c 2.42,0.176 4.45,2.125 6.76,0.011 0.73,-0.672 0.81,-1.722 1.43,-2.424 0.42,-0.482 2.35,1.094 2.86,1.14 0.8,0.074 1.64,-0.378 2.44,-0.394 1.13,-0.022 2.11,0.38 3.21,0.47 -0.87,-3.499 -5.78,-10.139 -7.39,-12.241 -7.27,-9.511 -26.26,-23.489 -37.82,-26.795 -8.07,-2.305 -29.45,-3.612 -36.64,0.278 2.58,-0.034 8.17,5.594 20.76,4.133 19.81,-2.297 34.46,13.758 39.62,25.195 0.83,1.85 3.36,6.746 4.77,10.627 z"
         style="fill:#968069"
         id="path1138" />
    </g>
    <g
       transform="matrix(0.16364532,0,0,0.221293,-100.75386,-102.75059)"
       id="g1156"
       style="clip-rule:evenodd;fill-rule:evenodd;stroke-linecap:round;stroke-linejoin:round;stroke-miterlimit:1.5">
      <path
         d="m 1342.59,617.053 c 2.42,0.176 4.45,2.125 6.76,0.011 0.73,-0.672 0.81,-1.722 1.43,-2.424 0.42,-0.482 2.35,1.094 2.86,1.14 0.8,0.074 1.64,-0.378 2.44,-0.394 1.13,-0.022 2.11,0.38 3.21,0.47 -0.87,-3.499 -5.78,-10.139 -7.39,-12.241 -7.27,-9.511 -26.26,-23.489 -37.82,-26.795 -8.07,-2.305 -29.45,-3.612 -36.64,0.278 2.58,-0.034 8.17,5.594 20.76,4.133 19.81,-2.297 34.46,13.758 39.62,25.195 0.83,1.85 3.36,6.746 4.77,10.627 z"
         style="fill:#968069"
         id="path1154" />
    </g>
    <g
       transform="matrix(0.21421883,0,0,0.29736785,-377.71308,-260.28086)"
       id="g1172"
       style="clip-rule:evenodd;fill-rule:evenodd;stroke-linecap:round;stroke-linejoin:round;stroke-miterlimit:1.5">
      <path
         d="m 1342.59,617.053 c 2.42,0.176 4.45,2.125 6.76,0.011 0.73,-0.672 0.81,-1.722 1.43,-2.424 0.42,-0.482 2.35,1.094 2.86,1.14 0.8,0.074 1.64,-0.378 2.44,-0.394 1.13,-0.022 2.11,0.38 3.21,0.47 -0.87,-3.499 -5.78,-10.139 -7.39,-12.241 -7.27,-9.511 -26.26,-23.489 -37.82,-26.795 -8.07,-2.305 -15.72,1.951 -22.91,5.841 2.58,-0.034 5.12,1.54 7.73,1.016 19.49,-3.9 33.76,11.312 38.92,22.749 0.83,1.85 3.36,6.746 4.77,10.627 z"
         style="fill:#968069"
         id="path1170" />
    </g>
    <g
       transform="matrix(0.23382525,0,0,0.30154033,-402.64423,-205.33484)"
       id="g1188"
       style="clip-rule:evenodd;fill-rule:evenodd;stroke-linecap:round;stroke-linejoin:round;stroke-miterlimit:1.5">
      <path
         d="m 1342.59,617.053 c 2.42,0.176 4.45,2.125 6.76,0.011 0.73,-0.672 0.81,-1.722 1.43,-2.424 0.42,-0.482 2.35,1.094 2.86,1.14 0.8,0.074 1.64,-0.378 2.44,-0.394 1.13,-0.022 2.11,0.38 3.21,0.47 -0.87,-3.499 -5.78,-10.139 -7.39,-12.241 -7.27,-9.511 -26.26,-23.489 -37.82,-26.795 -8.07,-2.305 -16.42,-0.494 -23.61,3.395 2.57,-0.034 5.12,1.54 7.73,1.016 19.49,-3.9 34.46,13.758 39.62,25.195 0.83,1.85 3.36,6.746 4.77,10.627 z"
         style="fill:#968069"
         id="path1186" />
    </g>
    <g
       transform="matrix(0.17904592,0,0,0.24558519,-420.3655,-199.50607)"
       id="g1204"
       style="clip-rule:evenodd;fill-rule:evenodd;stroke-linecap:round;stroke-linejoin:round;stroke-miterlimit:1.5">
      <path
         d="m 1339.86,617.593 c 2.42,0.176 7.18,1.585 9.49,-0.529 0.73,-0.672 0.95,-1.354 0.85,-2.184 -0.06,-0.481 4.04,1.686 4.44,0.992 0.69,-1.196 3.76,-1.16 5.41,0.392 -0.87,-3.499 -6.72,-10.422 -8.15,-12.649 -7.21,-11.24 -33.24,-30.864 -44.86,-32.513 -8.31,-1.178 25.62,23.887 30.78,35.324 0.83,1.85 0.63,7.285 2.04,11.167 z"
         style="fill:#968069"
         id="path1202" />
    </g>
    <g
       transform="matrix(-0.26458333,0,0,0.26458333,313.96543,-158.91634)"
       id="g1220"
       style="clip-rule:evenodd;fill-rule:evenodd;stroke-linecap:round;stroke-linejoin:round;stroke-miterlimit:1.5">
      <path
         d="m 1340.5,607.513 c 0.07,-2 -2.52,-3.984 -3.76,-5.299 -3.54,-3.763 -7.73,-6.997 -12.23,-9.531 -1.6,-0.899 -6.62,-5.051 -8.25,-5.868"
         style="fill:none;stroke:#5a3614;stroke-width:1px"
         id="path1218" />
    </g>
    <g
       transform="matrix(-0.26458333,0,0,0.26458333,232.28062,-123.65796)"
       id="g1236"
       style="clip-rule:evenodd;fill-rule:evenodd;stroke-linecap:round;stroke-linejoin:round;stroke-miterlimit:1.5">
      <path
         d="m 1340.5,607.513 c 0.07,-2 -2.52,-3.984 -3.76,-5.299 -3.54,-3.763 -7.73,-6.997 -12.23,-9.531 -1.6,-0.899 -6.62,-5.051 -8.25,-5.868"
         style="fill:none;stroke:#5a3614;stroke-width:1px"
         id="path1234" />
    </g>
    <g
       transform="matrix(-0.26458333,0,0,0.26458333,454.64438,-128.92846)"
       id="g1252"
       style="clip-rule:evenodd;fill-rule:evenodd;stroke-linecap:round;stroke-linejoin:round;stroke-miterlimit:1.5">
      <path
         d="m 1340.5,607.513 c 0.07,-2 -2.52,-3.984 -3.76,-5.299 -3.54,-3.763 -7.73,-6.997 -12.23,-9.531 -1.6,-0.899 -6.62,-5.051 -8.25,-5.868"
         style="fill:none;stroke:#5a3614;stroke-width:1px"
         id="path1250" />
    </g>
    <g
       transform="matrix(-0.18616401,0,0,0.18570998,124.28564,-75.35034)"
       id="g1268"
       style="clip-rule:evenodd;fill-rule:evenodd;stroke-linecap:round;stroke-linejoin:round;stroke-miterlimit:1.5">
      <path
         d="m 1340.5,607.513 c 0.07,-2 -3.36,-3.538 -3.76,-5.299 -1.03,-4.566 -3.1,-8.477 -12.23,-9.531 -1.82,-0.21 -6.62,-5.051 -8.25,-5.868"
         style="fill:none;stroke:#5a3614;stroke-width:1.42px"
         id="path1266" />
    </g>
    <g
       transform="matrix(-0.18616401,0,0,0.18570998,346.64941,-80.62084)"
       id="g1284"
       style="clip-rule:evenodd;fill-rule:evenodd;stroke-linecap:round;stroke-linejoin:round;stroke-miterlimit:1.5">
      <path
         d="m 1340.5,607.513 c 0.07,-2 -3.36,-3.538 -3.76,-5.299 -1.03,-4.566 -3.1,-8.477 -12.23,-9.531 -1.82,-0.21 -6.62,-5.051 -8.25,-5.868"
         style="fill:none;stroke:#5a3614;stroke-width:1.42px"
         id="path1282" />
    </g>
    <g
       transform="matrix(-0.26836158,0,0,0.25297315,252.44187,-175.04534)"
       id="g1300"
       style="clip-rule:evenodd;fill-rule:evenodd;stroke-linecap:round;stroke-linejoin:round;stroke-miterlimit:1.5">
      <path
         d="m 1340.5,607.513 c 0.07,-2 -2.52,-3.984 -3.76,-5.299 -3.54,-3.763 -7.73,-6.997 -12.23,-9.531 -1.6,-0.899 -6.62,-5.051 -8.25,-5.868"
         style="fill:none;stroke:#5a3614;stroke-width:1.01px"
         id="path1298" />
    </g>
    <g
       transform="matrix(-0.26836158,0,0,0.25297315,160.26103,-203.79761)"
       id="g1316"
       style="clip-rule:evenodd;fill-rule:evenodd;stroke-linecap:round;stroke-linejoin:round;stroke-miterlimit:1.5">
      <path
         d="m 1340.5,607.513 c 0.07,-2 -6.85,-3.981 -8.09,-5.295 -3.54,-3.764 -3.87,-5.936 -8.37,-8.47 -1.6,-0.898 -6.15,-6.116 -7.78,-6.933"
         style="fill:none;stroke:#5a3614;stroke-width:1.01px"
         id="path1314" />
    </g>
    <g
       transform="matrix(0.26458333,0,0,0.26458333,-305.10209,-207.28746)"
       id="g1332"
       style="clip-rule:evenodd;fill-rule:evenodd;stroke-linecap:round;stroke-linejoin:round;stroke-miterlimit:1.5">
      <path
         d="m 1340.5,607.513 c 0.07,-2 -2.52,-3.984 -3.76,-5.299 -3.54,-3.763 -7.73,-6.997 -12.23,-9.531 -1.6,-0.899 -6.62,-5.051 -8.25,-5.868"
         style="fill:none;stroke:#5a3614;stroke-width:1px"
         id="path1330" />
    </g>
    <g
       transform="matrix(0.26458333,0,0,0.26458333,-227.12838,-219.66203)"
       id="g1348"
       style="clip-rule:evenodd;fill-rule:evenodd;stroke-linecap:round;stroke-linejoin:round;stroke-miterlimit:1.5">
      <path
         d="m 1339.67,612.332 c 0.08,-2 -4.6,-6.097 -5.77,-9.719 -1.59,-4.917 -4.74,-5.801 -9.25,-8.334 -1.59,-0.899 -6.76,-6.647 -8.39,-7.464"
         style="fill:none;stroke:#5a3614;stroke-width:1px"
         id="path1346" />
    </g>
    <g
       transform="matrix(0.26458333,0,0,0.26458333,-305.79464,-207.90394)"
       id="g1364"
       style="clip-rule:evenodd;fill-rule:evenodd;stroke-linecap:round;stroke-linejoin:round;stroke-miterlimit:1.5">
      <path
         d="m 1302.42,598.534 c -0.5,0.826 -4.05,4.372 -4.58,5.617 -1.02,2.375 -2.14,4.781 -3.12,7.086 -0.87,2.028 -2.55,3.933 -2.98,6.094 -0.25,1.281 2.48,0.314 3.26,0.425 1.54,0.219 2.74,1.243 4.11,1.7 1,0.334 2.5,-0.08 3.54,0 4.86,0.374 9.18,0.347 13.98,-1.397 0.55,-0.2 3.84,-1.226 5.17,-1.588 -1.27,-2.941 -1.67,-7.709 -3.68,-10.123 -2.66,-3.19 -5.83,-5.557 -8.93,-8.249 -1.01,-0.872 -5.56,1.01 -6.77,0.435 z"
         style="fill:#352e26"
         id="path1362" />
    </g>
    <g
       transform="matrix(0.26354986,0.02336263,-0.02336263,0.26354986,-210.42089,-250.19225)"
       id="g1380"
       style="clip-rule:evenodd;fill-rule:evenodd;stroke-linecap:round;stroke-linejoin:round;stroke-miterlimit:1.5">
      <path
         d="m 1302.42,598.534 c -0.5,0.826 -10.39,4.397 -10.92,5.642 -1.02,2.375 -2.13,4.781 -3.12,7.086 -0.87,2.027 -2.54,3.932 -2.97,6.094 -0.26,1.281 2.48,0.314 3.26,0.425 1.53,0.219 2.73,1.243 4.11,1.7 1,0.333 8.83,-0.105 9.87,-0.025 4.86,0.374 9.18,0.347 13.98,-1.397 0.55,-0.2 3.84,-1.226 5.17,-1.588 -1.27,-2.941 -1.67,-7.709 -3.68,-10.123 -2.66,-3.19 -5.83,-5.557 -8.93,-8.249 -1.01,-0.872 -5.56,1.01 -6.77,0.435 z"
         style="fill:#352e26"
         id="path1378" />
    </g>
    <g
       transform="matrix(0.26458333,0,0,0.26458333,-379.28444,-159.95615)"
       id="g1396"
       style="clip-rule:evenodd;fill-rule:evenodd;stroke-linecap:round;stroke-linejoin:round;stroke-miterlimit:1.5">
      <path
         d="m 1302.42,598.534 c -0.5,0.826 -0.92,1.776 -1.33,2.358 -0.79,1.129 -2.72,2.014 -3.25,3.259 -1.02,2.375 -2.14,4.781 -3.12,7.086 -0.87,2.028 -2.55,3.933 -2.98,6.094 -0.25,1.281 2.48,0.314 3.26,0.425 1.54,0.219 2.74,1.243 4.11,1.7 1,0.334 2.5,-0.08 3.54,0 4.86,0.374 9.18,0.347 13.98,-1.397 0.55,-0.2 3.84,-1.226 5.17,-1.588 -1.27,-2.941 -1.67,-7.709 -3.68,-10.123 -2.66,-3.19 -5.83,-5.557 -8.93,-8.249 -1.01,-0.872 -5.56,1.01 -6.77,0.435 z"
         style="fill:#352e26"
         id="path1394" />
    </g>
    <g
       transform="matrix(0.26458333,0,0,0.26458333,-460.97031,-124.69778)"
       id="g1412"
       style="clip-rule:evenodd;fill-rule:evenodd;stroke-linecap:round;stroke-linejoin:round;stroke-miterlimit:1.5">
      <path
         d="m 1302.42,598.534 c -4.03,-0.557 -13.12,15.507 -10.68,18.797 0.78,1.048 2.48,0.314 3.26,0.425 1.54,0.219 2.74,1.243 4.11,1.7 1,0.334 2.5,-0.08 3.54,0 4.86,0.374 9.18,0.347 13.98,-1.397 0.55,-0.2 3.84,-1.226 5.17,-1.588 -1.27,-2.941 -1.67,-7.709 -3.68,-10.123 -2.66,-3.19 -5.83,-5.557 -8.93,-8.249 -1.01,-0.872 -5.56,1.01 -6.77,0.435 z"
         style="fill:#352e26"
         id="path1410" />
    </g>
    <g
       transform="matrix(0.26458333,0,0,0.26458333,-238.60548,-129.96828)"
       id="g1428"
       style="clip-rule:evenodd;fill-rule:evenodd;stroke-linecap:round;stroke-linejoin:round;stroke-miterlimit:1.5">
      <path
         d="m 1302.42,598.534 c -4.03,-0.557 -13.12,15.507 -10.68,18.797 0.78,1.048 2.48,0.314 3.26,0.425 1.54,0.219 2.74,1.243 4.11,1.7 1,0.334 2.5,-0.08 3.54,0 4.86,0.374 9.18,0.347 13.98,-1.397 0.55,-0.2 -1.32,0.362 0,0 -1.27,-2.94 0.85,-7.211 -1.16,-9.625 -2.66,-3.19 -3.18,-7.643 -6.28,-10.335 -1.01,-0.872 -5.56,1.01 -6.77,0.435 z"
         style="fill:#352e26"
         id="path1426" />
    </g>
    <g
       transform="matrix(0.29599466,0,0,0.34920237,-487.80303,-293.0929)"
       id="g1444"
       style="clip-rule:evenodd;fill-rule:evenodd;stroke-linecap:round;stroke-linejoin:round;stroke-miterlimit:1.5">
      <path
         d="m 1302.95,599.723 c -1.75,-0.472 -10.16,13.5 -9.34,16.654 0.33,1.264 0.61,1.268 1.39,1.379 1.54,0.219 2.74,1.243 4.11,1.7 1,0.334 2.5,-0.08 3.54,0 4.86,0.374 9.18,0.347 13.98,-1.397 0.55,-0.2 3.84,-1.226 5.17,-1.588 -1.27,-2.941 -0.43,-7.694 -2.45,-10.108 -2.66,-3.19 -4.48,-5.151 -7.59,-7.843 -1,-0.872 -7.61,1.778 -8.81,1.203 z"
         style="fill:#352e26"
         id="path1442" />
    </g>
    <g
       transform="matrix(0.26458333,0,0,0.26458333,-444.05629,-183.64959)"
       id="g1460"
       style="clip-rule:evenodd;fill-rule:evenodd;stroke-linecap:round;stroke-linejoin:round;stroke-miterlimit:1.5">
      <path
         d="m 1302.42,598.534 c -0.5,0.826 -0.92,1.776 -1.33,2.358 -0.79,1.129 -2.72,2.014 -3.25,3.259 -1.02,2.375 -2.14,4.781 -3.12,7.086 -0.87,2.028 -2.55,3.933 -2.98,6.094 -0.25,1.281 2.48,0.314 3.26,0.425 1.54,0.219 2.74,1.243 4.11,1.7 1,0.334 2.5,-0.08 3.54,0 4.86,0.374 9.18,0.347 13.98,-1.397 0.55,-0.2 3.84,-1.226 5.17,-1.588 -1.27,-2.941 -1.67,-7.709 -3.68,-10.123 -2.66,-3.19 -5.83,-5.557 -8.93,-8.249 -1.01,-0.872 -5.56,1.01 -6.77,0.435 z"
         style="fill:#352e26"
         id="path1458" />
    </g>
    <g
       transform="matrix(0.26458333,0,0,0.26458333,-536.23871,-212.4045)"
       id="g1476"
       style="clip-rule:evenodd;fill-rule:evenodd;stroke-linecap:round;stroke-linejoin:round;stroke-miterlimit:1.5">
      <path
         d="m 1302.42,598.534 c -0.5,0.826 -0.92,1.776 -1.33,2.358 -0.79,1.129 -2.72,2.014 -3.25,3.259 -1.02,2.375 -2.14,4.781 -3.12,7.086 -0.87,2.028 -2.55,3.933 -2.98,6.094 -0.25,1.281 2.48,0.314 3.26,0.425 1.54,0.219 2.74,1.243 4.11,1.7 1,0.334 2.5,-0.08 3.54,0 4.86,0.374 9.18,0.347 13.98,-1.397 0.55,-0.2 3.84,-1.226 5.17,-1.588 -1.27,-2.941 -1.67,-7.709 -3.68,-10.123 -2.66,-3.19 -5.83,-5.557 -8.93,-8.249 -1.01,-0.872 -5.56,1.01 -6.77,0.435 z"
         style="fill:#352e26"
         id="path1474" />
    </g>
    <g
       transform="matrix(0.26458333,0,0,0.26458333,-305.10209,-207.28746)"
       id="g1492"
       style="clip-rule:evenodd;fill-rule:evenodd;stroke-linecap:round;stroke-linejoin:round;stroke-miterlimit:1.5">
      <path
         d="m 1233.2,624.755 c -0.03,0.105 -0.23,0.312 -0.23,0.148"
         style="fill:none"
         id="path1490" />
    </g>
    <g
       transform="matrix(0.26458333,0,0,0.26458333,-223.901,-219.71494)"
       id="g1508"
       style="clip-rule:evenodd;fill-rule:evenodd;stroke-linecap:round;stroke-linejoin:round;stroke-miterlimit:1.5">
      <path
         d="m 1233.2,624.755 c -0.03,0.105 -0.23,0.312 -0.23,0.148"
         style="fill:none"
         id="path1506" />
    </g>
    <g
       transform="matrix(0.26458333,0,0,0.26458333,-378.59202,-159.33967)"
       id="g1524"
       style="clip-rule:evenodd;fill-rule:evenodd;stroke-linecap:round;stroke-linejoin:round;stroke-miterlimit:1.5">
      <path
         d="m 1233.2,624.755 c -0.03,0.105 -0.23,0.312 -0.23,0.148"
         style="fill:none"
         id="path1522" />
    </g>
    <g
       transform="matrix(0.26458333,0,0,0.26458333,-460.27763,-124.0813)"
       id="g1540"
       style="clip-rule:evenodd;fill-rule:evenodd;stroke-linecap:round;stroke-linejoin:round;stroke-miterlimit:1.5">
      <path
         d="m 1233.2,624.755 c -0.03,0.105 -0.23,0.312 -0.23,0.148"
         style="fill:none"
         id="path1538" />
    </g>
    <g
       transform="matrix(0.26458333,0,0,0.26458333,-237.91307,-129.3518)"
       id="g1556"
       style="clip-rule:evenodd;fill-rule:evenodd;stroke-linecap:round;stroke-linejoin:round;stroke-miterlimit:1.5">
      <path
         d="m 1233.2,624.755 c -0.03,0.105 -0.23,0.312 -0.23,0.148"
         style="fill:none"
         id="path1554" />
    </g>
    <g
       transform="matrix(0.24239775,0,0,0.29736785,-424.5049,-260.17767)"
       id="g1572"
       style="clip-rule:evenodd;fill-rule:evenodd;stroke-linecap:round;stroke-linejoin:round;stroke-miterlimit:1.5">
      <path
         d="m 1233.2,624.755 c -0.03,0.105 -0.23,0.312 -0.23,0.148"
         style="fill:none"
         id="path1570" />
    </g>
    <g
       transform="matrix(0.26458333,0,0,0.26458333,-444.45343,-182.28963)"
       id="g1588"
       style="clip-rule:evenodd;fill-rule:evenodd;stroke-linecap:round;stroke-linejoin:round;stroke-miterlimit:1.5">
      <path
         d="m 1233.2,624.755 c -0.03,0.105 -0.23,0.312 -0.23,0.148"
         style="fill:none"
         id="path1586" />
    </g>
    <g
       transform="matrix(0.26458333,0,0,0.26458333,-536.63585,-211.0419)"
       id="g1604"
       style="clip-rule:evenodd;fill-rule:evenodd;stroke-linecap:round;stroke-linejoin:round;stroke-miterlimit:1.5">
      <path
         d="m 1233.2,624.755 c -0.03,0.105 -0.23,0.312 -0.23,0.148"
         style="fill:none"
         id="path1602" />
    </g>
    <g
       transform="matrix(0.26458333,0,0,0.26458333,-305.10209,-207.28746)"
       id="g1620"
       style="clip-rule:evenodd;fill-rule:evenodd;stroke-linecap:round;stroke-linejoin:round;stroke-miterlimit:1.5">
      <path
         d="m 1307.99,623.784 c 0.09,0.013 0.26,0.08 0.26,0.08 0,0 -0.46,-0.334 -0.69,-0.518 -0.45,-0.378 -0.85,-0.913 -1.2,-1.381 -0.2,-0.263 -0.9,-2.343 -0.98,-2.302 -0.34,0.172 -0.55,0.733 -0.75,1.036 -0.43,0.646 -2.64,3.745 -3.68,2.187 -0.36,-0.536 -0.13,-1.743 -0.52,-2.129 -0.14,-0.136 -0.61,1.048 -0.63,1.093 -0.34,0.794 -0.63,1.907 -1.62,2.072 -1.15,0.192 -2.11,-0.951 -2.64,-1.842 -0.18,-0.304 -0.38,-0.853 -0.75,-0.978 -0.25,-0.083 -0.47,0.603 -0.52,0.748 -0.28,0.775 -0.85,2.068 -1.72,2.359 -1.53,0.508 -1.95,-2.061 -2.71,-2.819 -0.05,-0.056 -0.63,0.785 -0.69,0.863 -0.37,0.447 -1.12,1.448 -1.84,1.208 -1.24,-0.413 -0.95,-2.64 -2.07,-3.28 -1.16,-0.662 -2.16,2.294 -2.99,2.532 -1.01,0.288 -0.68,-2.081 -1.5,-2.244 -0.38,-0.076 -0.71,0.314 -1.04,0.46 -0.79,0.36 -1.94,1.179 -2.82,1.266 -0.22,0.023 -0.77,-0.008 -0.97,-0.057 -0.32,-0.075 -0.62,-0.216 -0.92,-0.345 -0.39,-0.165 -2.94,-1.294 -2.94,-1.036"
         style="fill:none;stroke:#051372;stroke-width:1px"
         id="path1618" />
    </g>
    <g
       transform="matrix(0.26458333,0,0,0.26458333,-214.757,-215.62978)"
       id="g1636"
       style="clip-rule:evenodd;fill-rule:evenodd;stroke-linecap:round;stroke-linejoin:round;stroke-miterlimit:1.5">
      <path
         d="m 1307.99,623.784 c 0.09,0.013 0.26,0.08 0.26,0.08 0,0 -0.46,-0.334 -0.69,-0.518 -0.45,-0.378 -0.85,-0.913 -1.2,-1.381 -0.2,-0.263 -0.9,-2.343 -0.98,-2.302 -0.34,0.172 -0.55,0.733 -0.75,1.036 -0.43,0.646 -2.64,3.745 -3.68,2.187 -0.36,-0.536 -0.13,-1.743 -0.52,-2.129 -0.14,-0.136 -0.61,1.048 -0.63,1.093 -0.34,0.794 -0.63,1.907 -1.62,2.072 -1.15,0.192 -2.11,-0.951 -2.64,-1.842 -0.18,-0.304 -0.38,-0.853 -0.75,-0.978 -0.25,-0.083 -0.47,0.603 -0.52,0.748 -0.28,0.775 -0.85,2.068 -1.72,2.359 -1.53,0.508 -1.95,-2.061 -2.71,-2.819 -0.05,-0.056 -0.63,0.785 -0.69,0.863 -0.37,0.447 -1.12,1.448 -1.84,1.208 -1.24,-0.413 -0.95,-2.64 -2.07,-3.28 -1.16,-0.662 -2.16,2.294 -2.99,2.532 -1.01,0.288 -0.68,-2.081 -1.5,-2.244 -0.38,-0.076 -0.71,0.314 -1.04,0.46 -0.79,0.36 -1.94,1.179 -2.82,1.266 -0.22,0.023 -0.77,-0.008 -0.97,-0.057 -0.32,-0.075 -0.62,-0.216 -0.92,-0.345 -0.39,-0.165 -2.94,-1.294 -2.94,-1.036"
         style="fill:none;stroke:#051372;stroke-width:1px"
         id="path1634" />
    </g>
    <g
       transform="matrix(0.26458333,0,0,0.26458333,-377.27519,-159.27088)"
       id="g1652"
       style="clip-rule:evenodd;fill-rule:evenodd;stroke-linecap:round;stroke-linejoin:round;stroke-miterlimit:1.5">
      <path
         d="m 1307.99,623.784 c 0.09,0.013 0.26,0.08 0.26,0.08 0,0 -0.46,-0.334 -0.69,-0.518 -0.45,-0.378 -0.85,-0.913 -1.2,-1.381 -0.2,-0.263 -0.9,-2.343 -0.98,-2.302 -0.34,0.172 -0.55,0.733 -0.75,1.036 -0.43,0.646 -2.64,3.745 -3.68,2.187 -0.36,-0.536 -0.13,-1.743 -0.52,-2.129 -0.14,-0.136 -0.61,1.048 -0.63,1.093 -0.34,0.794 -0.63,1.907 -1.62,2.072 -1.15,0.192 -2.11,-0.951 -2.64,-1.842 -0.18,-0.304 -0.38,-0.853 -0.75,-0.978 -0.25,-0.083 -0.47,0.603 -0.52,0.748 -0.28,0.775 -0.85,2.068 -1.72,2.359 -1.53,0.508 -1.95,-2.061 -2.71,-2.819 -0.05,-0.056 -0.63,0.785 -0.69,0.863 -0.37,0.447 -1.12,1.448 -1.84,1.208 -1.24,-0.413 -0.95,-2.64 -2.07,-3.28 -1.16,-0.662 -2.16,2.294 -2.99,2.532 -1.01,0.288 -0.68,-2.081 -1.5,-2.244 -0.38,-0.076 -0.71,0.314 -1.04,0.46 -0.79,0.36 -1.94,1.179 -2.82,1.266 -0.22,0.023 -0.77,-0.008 -0.97,-0.057 -0.32,-0.075 -0.62,-0.216 -0.92,-0.345 -0.39,-0.165 -2.94,-1.294 -2.94,-1.036"
         style="fill:none;stroke:#051372;stroke-width:1px"
         id="path1650" />
    </g>
    <g
       transform="matrix(0.43911572,0,0,0.27968839,-687.25494,-132.96601)"
       id="g1668"
       style="clip-rule:evenodd;fill-rule:evenodd;stroke-linecap:round;stroke-linejoin:round;stroke-miterlimit:1.5">
      <path
         d="m 1307.99,623.784 c 0.09,0.013 0.26,0.08 0.26,0.08 0,0 -0.46,-0.334 -0.69,-0.518 -0.45,-0.378 -0.85,-0.913 -1.2,-1.381 -0.2,-0.263 -0.9,-2.343 -0.98,-2.302 -0.34,0.172 -0.55,0.733 -0.75,1.036 -0.43,0.646 -2.64,3.745 -3.68,2.187 -0.36,-0.536 -0.13,-1.743 -0.52,-2.129 -0.14,-0.136 -0.61,1.048 -0.63,1.093 -0.34,0.794 -0.63,1.907 -1.62,2.072 -1.15,0.192 -2.11,-0.951 -2.64,-1.842 -0.18,-0.304 -0.38,-0.853 -0.75,-0.978 -0.25,-0.083 -0.47,0.603 -0.52,0.748 -0.28,0.775 -0.85,2.068 -1.72,2.359 -1.53,0.508 -1.95,-2.061 -2.71,-2.819 -0.05,-0.056 -0.63,0.785 -0.69,0.863 -0.37,0.447 -1.12,1.448 -1.84,1.208 -1.24,-0.413 -0.95,-2.64 -2.07,-3.28 -1.16,-0.662 -2.16,2.294 -2.99,2.532 -1.01,0.288 -0.68,-2.081 -1.5,-2.244 -0.38,-0.076 -0.71,0.314 -1.04,0.46 -0.79,0.36 -1.94,1.179 -2.82,1.266 -0.22,0.023 -0.77,-0.008 -0.97,-0.057 -0.32,-0.075 -0.62,-0.216 -0.92,-0.345 -0.39,-0.165 -2.94,-1.294 -2.94,-1.036"
         style="fill:none;stroke:#051372;stroke-width:0.72px"
         id="path1666" />
    </g>
    <g
       transform="matrix(0.43911572,0,0,0.27968839,-463.00839,-135.21496)"
       id="g1684"
       style="clip-rule:evenodd;fill-rule:evenodd;stroke-linecap:round;stroke-linejoin:round;stroke-miterlimit:1.5">
      <path
         d="m 1307.99,623.784 c 0.09,0.013 0.26,0.08 0.26,0.08 0,0 -0.46,-0.334 -0.69,-0.518 -0.45,-0.378 -0.85,-0.913 -1.2,-1.381 -0.2,-0.263 -0.9,-2.343 -0.98,-2.302 -0.34,0.172 -0.55,0.733 -0.75,1.036 -0.43,0.646 -2.64,3.745 -3.68,2.187 -0.36,-0.536 -0.13,-1.743 -0.52,-2.129 -0.14,-0.136 -0.61,1.048 -0.63,1.093 -0.34,0.794 -0.63,1.907 -1.62,2.072 -1.15,0.192 -2.11,-0.951 -2.64,-1.842 -0.18,-0.304 -0.38,-0.853 -0.75,-0.978 -0.25,-0.083 -0.47,0.603 -0.52,0.748 -0.28,0.775 -0.85,2.068 -1.72,2.359 -1.53,0.508 -1.95,-2.061 -2.71,-2.819 -0.05,-0.056 -0.63,0.785 -0.69,0.863 -0.37,0.447 -1.12,1.448 -1.84,1.208 -1.24,-0.413 -0.95,-2.64 -2.07,-3.28 -1.16,-0.662 -2.16,2.294 -2.99,2.532 -1.01,0.288 -0.68,-2.081 -1.5,-2.244 -0.38,-0.076 -0.71,0.314 -1.04,0.46 -0.79,0.36 -1.94,1.179 -2.82,1.266 -0.22,0.023 -0.77,-0.008 -0.97,-0.057 -0.32,-0.075 -0.62,-0.216 -0.92,-0.345 -0.39,-0.165 -2.94,-1.294 -2.94,-1.036"
         style="fill:none;stroke:#051372;stroke-width:0.72px"
         id="path1682" />
    </g>
    <g
       transform="matrix(0.29323506,0,0,0.25393359,-475.54805,-226.3454)"
       id="g1700"
       style="clip-rule:evenodd;fill-rule:evenodd;stroke-linecap:round;stroke-linejoin:round;stroke-miterlimit:1.5">
      <path
         d="m 1307.99,623.784 c 0.09,0.013 0.26,0.08 0.26,0.08 0,0 -0.46,-0.334 -0.69,-0.518 -0.45,-0.378 -0.85,-0.913 -1.2,-1.381 -0.2,-0.263 -0.9,-2.343 -0.98,-2.302 -0.34,0.172 -0.55,0.733 -0.75,1.036 -0.43,0.646 -2.64,3.745 -3.68,2.187 -0.36,-0.536 -0.13,-1.743 -0.52,-2.129 -0.14,-0.136 -0.61,1.048 -0.63,1.093 -0.34,0.794 -0.63,1.907 -1.62,2.072 -1.15,0.192 -2.11,-0.951 -2.64,-1.842 -0.18,-0.304 -0.38,-0.853 -0.75,-0.978 -0.25,-0.083 -0.47,0.603 -0.52,0.748 -0.28,0.775 -0.85,2.068 -1.72,2.359 -1.53,0.508 -1.95,-2.061 -2.71,-2.819 -0.05,-0.056 -0.63,0.785 -0.69,0.863 -0.37,0.447 -1.12,1.448 -1.84,1.208 -1.24,-0.413 -0.95,-2.64 -2.07,-3.28 -1.16,-0.662 -2.16,2.294 -2.99,2.532 -1.01,0.288 -0.68,-2.081 -1.5,-2.244 -0.38,-0.076 -0.71,0.314 -1.04,0.46 -0.79,0.36 -1.94,1.179 -2.82,1.266 -0.22,0.023 -0.77,-0.008 -0.97,-0.057 -0.32,-0.075 -0.62,-0.216 -0.92,-0.345 -0.39,-0.165 -2.94,-1.294 -2.94,-1.036"
         style="fill:none;stroke:#051372;stroke-width:0.96px"
         id="path1698" />
    </g>
    <g
       transform="matrix(0.26458333,0,0,0.26458333,-437.35624,-238.80463)"
       id="g1716"
       style="clip-rule:evenodd;fill-rule:evenodd;stroke-linecap:round;stroke-linejoin:round;stroke-miterlimit:1.5">
      <path
         d="m 1237.23,621.396 c -0.42,-1.08 -4.12,-1.45 -5.15,-2.369 -0.28,-0.243 -1.9,-3.505 -2.57,-2.834 -0.7,0.705 -0.08,2.783 -0.94,3.643 -1.03,1.029 -5.31,-1.725 -6.61,-2.159 -1.05,-0.348 -0.78,2.091 -1.62,2.429 -1.39,0.553 -2.99,-1.355 -4.19,-1.754 -0.9,-0.303 -1.45,0.742 -1.75,1.349 -0.12,0.25 -1.6,-0.623 -1.75,-0.674 -0.57,-0.19 -1.17,0.404 -1.76,0.404"
         style="fill:none;stroke:#051372;stroke-width:1px"
         id="path1714" />
    </g>
    <g
       transform="matrix(0.31434087,0,0,0.28458318,-519.68981,-191.65588)"
       id="g1732"
       style="clip-rule:evenodd;fill-rule:evenodd;stroke-linecap:round;stroke-linejoin:round;stroke-miterlimit:1.5">
      <path
         d="m 1307.99,623.784 c 0.09,0.013 0.26,0.08 0.26,0.08 0,0 -0.46,-0.334 -0.69,-0.518 -0.45,-0.378 -0.85,-0.913 -1.2,-1.381 -0.2,-0.263 -0.9,-2.343 -0.98,-2.302 -0.34,0.172 -0.55,0.733 -0.75,1.036 -0.43,0.646 -2.64,3.745 -3.68,2.187 -0.36,-0.536 -0.13,-1.743 -0.52,-2.129 -0.14,-0.136 -0.61,1.048 -0.63,1.093 -0.34,0.794 -0.63,1.907 -1.62,2.072 -1.15,0.192 -2.11,-0.951 -2.64,-1.842 -0.18,-0.304 -0.38,-0.853 -0.75,-0.978 -0.25,-0.083 -0.47,0.603 -0.52,0.748 -0.28,0.775 -0.85,2.068 -1.72,2.359 -1.53,0.508 -1.95,-2.061 -2.71,-2.819 -0.05,-0.056 -0.63,0.785 -0.69,0.863 -0.37,0.447 -1.12,1.448 -1.84,1.208 -1.24,-0.413 -0.95,-2.64 -2.07,-3.28 -1.16,-0.662 -2.16,2.294 -2.99,2.532 -1.01,0.288 -0.68,-2.081 -1.5,-2.244 -0.38,-0.076 -0.71,0.314 -1.04,0.46 -0.79,0.36 -1.94,1.179 -2.82,1.266 -0.22,0.023 -0.77,-0.008 -0.97,-0.057 -0.32,-0.075 -0.62,-0.216 -0.92,-0.345 -0.39,-0.165 -2.94,-1.294 -2.94,-1.036"
         style="fill:none;stroke:#051372;stroke-width:0.88px"
         id="path1730" />
    </g>
    <g
       transform="matrix(0.31434087,0,0,0.19129692,-589.84329,-158.60148)"
       id="g1748"
       style="clip-rule:evenodd;fill-rule:evenodd;stroke-linecap:round;stroke-linejoin:round;stroke-miterlimit:1.5">
      <path
         d="m 1307.99,623.784 c 0.09,0.013 0.26,0.08 0.26,0.08 0,0 -0.46,-0.334 -0.69,-0.518 -0.45,-0.378 -0.85,-0.913 -1.2,-1.381 -0.2,-0.263 -0.9,-2.343 -0.98,-2.302 -0.34,0.172 -0.55,0.733 -0.75,1.036 -0.43,0.646 -2.64,3.745 -3.68,2.187 -0.36,-0.536 -0.13,-1.743 -0.52,-2.129 -0.14,-0.136 -0.61,1.048 -0.63,1.093 -0.34,0.794 -0.63,1.907 -1.62,2.072 -1.15,0.192 -2.11,-0.951 -2.64,-1.842 -0.18,-0.304 -0.38,-0.853 -0.75,-0.978 -0.25,-0.083 -0.47,0.603 -0.52,0.748 -0.28,0.775 -0.85,2.068 -1.72,2.359 -1.53,0.508 -1.95,-2.061 -2.71,-2.819 -0.05,-0.056 -0.63,0.785 -0.69,0.863 -0.37,0.447 -1.12,1.448 -1.84,1.208 -1.24,-0.413 -0.95,-2.64 -2.07,-3.28 -1.16,-0.662 -2.16,2.294 -2.99,2.532 -1.01,0.288 -0.68,-2.081 -1.5,-2.244 -0.38,-0.076 -0.71,0.314 -1.04,0.46 -0.79,0.36 -1.94,1.179 -2.82,1.266 -0.22,0.023 -0.77,-0.008 -0.97,-0.057 -0.32,-0.075 -0.62,-0.216 -0.92,-0.345 -0.39,-0.165 -2.94,-1.294 -2.94,-1.036"
         style="fill:none;stroke:#051372;stroke-width:1.02px"
         id="path1746" />
    </g>
    <g
       transform="matrix(0.26458333,0,0,0.26458333,-326.04292,-189.39634)"
       id="g1900"
       style="clip-rule:evenodd;fill-rule:evenodd;stroke-linecap:round;stroke-linejoin:round;stroke-miterlimit:1.5">
      <g
         transform="translate(-4.92836,-4.63582)"
         id="g1866">
        <path
           d="m 603.795,754.601 c 1.473,-0.558 0.09,3.641 -0.452,5.052 -0.276,0.716 -2.127,3.035 -1.338,3.823 1.001,1.001 2.711,-1.511 4.085,-1.167 1.781,0.445 6.012,2.626 7.294,2.626 1.393,0 -1.477,-2.428 -1.75,-3.793 -0.666,-3.328 0.288,-4.361 -0.185,-7.67 z"
           style="fill:#926a41"
           id="path1864" />
      </g>
      <g
         transform="matrix(0.553969,0,0,0.529567,396.109,256.8)"
         id="g1870">
        <path
           d="m 399.653,844.155 c -2.269,-7.374 -22.273,-10.591 -20.005,-11.731 8.679,-4.366 -0.619,-22.385 -12.167,-23.347 -8.334,-0.695 -15.36,4.289 -15.455,12.824 -0.066,5.969 -4.383,-5.096 -9.152,-6.117 -6.883,-1.473 -12.039,9.867 -8.841,13.248 4.846,5.123 -26.832,2.918 -5.997,22.229 8.64,8.008 -2.086,22.672 1.959,25.554 3.338,2.379 8.695,4.875 11.838,6.577 12.403,6.718 63.139,0.612 60.528,-16.229 -0.788,-5.089 -9.807,-0.848 -10.862,-6.314 -1.276,-6.61 10.341,-9.584 8.154,-16.694 z"
           style="fill:#2b8d3f"
           id="path1868" />
      </g>
      <g
         transform="matrix(0.202846,0.170037,-0.192073,0.229134,726.806,472.372)"
         id="g1874">
        <path
           d="m 399.653,844.155 c -2.269,-7.374 -22.273,-10.591 -20.005,-11.731 8.679,-4.366 -0.619,-22.385 -12.167,-23.347 -8.334,-0.695 -15.36,4.289 -15.455,12.824 -0.066,5.969 -4.383,-5.096 -9.152,-6.117 -6.883,-1.473 -12.039,9.867 -8.841,13.248 4.846,5.123 -26.832,2.918 -5.997,22.229 8.64,8.008 -2.086,22.672 1.959,25.554 3.338,2.379 8.695,4.875 11.838,6.577 12.403,6.718 63.139,0.612 60.528,-16.229 -0.788,-5.089 -9.807,-0.848 -10.862,-6.314 -1.276,-6.61 10.341,-9.584 8.154,-16.694 z"
           style="fill:#3fc51e"
           id="path1872" />
      </g>
      <g
         transform="matrix(0.202846,0.170037,-0.192073,0.229134,674.506,470.9)"
         id="g1878">
        <path
           d="m 399.653,844.155 c -2.269,-7.374 -22.273,-10.591 -20.005,-11.731 8.679,-4.366 -0.619,-22.385 -12.167,-23.347 -8.334,-0.695 -15.36,4.289 -15.455,12.824 -0.066,5.969 -4.383,-5.096 -9.152,-6.117 -6.883,-1.473 -12.039,9.867 -8.841,13.248 4.846,5.123 -26.832,2.918 -5.997,22.229 8.64,8.008 -2.086,22.672 1.959,25.554 3.338,2.379 8.695,4.875 11.838,6.577 12.403,6.718 63.139,0.612 60.528,-16.229 -0.788,-5.089 -9.807,-0.848 -10.862,-6.314 -1.276,-6.61 10.341,-9.584 8.154,-16.694 z"
           style="fill:#3fc51e"
           id="path1876" />
      </g>
      <g
         transform="translate(20.2113,-6.93955)"
         id="g1886">
        <g
           transform="translate(-4.92836,-4.63582)"
           id="g1882">
          <path
             d="m 605.475,753.344 c 1.472,-0.559 -0.5,7.187 -1.043,8.598 -0.275,0.717 6.275,0.839 7.649,1.183 1.781,0.445 -0.159,-6.344 -0.632,-9.653 z"
             style="fill:#926a41"
             id="path1880" />
        </g>
        <path
           d="m 624.373,750.122 c -10.376,-9.223 -26.603,-52.586 -26.414,-52.775 0.16,-0.16 -12.901,52.321 -13.747,53.46 -2.899,3.905 18.794,-1.826 40.161,-0.685 z"
           style="fill:#00500a"
           id="path1884" />
      </g>
      <g
         transform="translate(-40.5324,-14.1476)"
         id="g1894">
        <g
           transform="translate(-4.92836,-4.63582)"
           id="g1890">
          <path
             d="m 605.663,753.846 c 0,0 -3.974,8.465 -2.902,8.159 2.325,-0.663 8.784,0 10.066,0 1.393,0 -2.186,-6.381 -2.3,-7.769 -0.117,-1.429 -4.277,0.895 -4.864,-0.39 z"
             style="fill:#926a41"
             id="path1888" />
        </g>
        <path
           d="m 624.373,750.122 c -10.376,-9.223 -26.603,-52.586 -26.414,-52.775 0.16,-0.16 -12.901,52.321 -13.747,53.46 -2.899,3.905 18.794,-1.826 40.161,-0.685 z"
           style="fill:#00500a"
           id="path1892" />
      </g>
      <g
         transform="translate(-0.109856,2.67106)"
         id="g1898">
        <path
           d="m 624.373,750.122 c -10.376,-9.223 -26.603,-52.586 -26.414,-52.775 0.16,-0.16 -12.901,52.321 -13.747,53.46 -2.899,3.905 18.794,-1.826 40.161,-0.685 z"
           style="fill:#00500a"
           id="path1896" />
      </g>
    </g>
    <g
       transform="matrix(0.26458333,0,0,0.26458333,-179.7042,-229.69503)"
       id="g2020"
       style="clip-rule:evenodd;fill-rule:evenodd;stroke-linecap:round;stroke-linejoin:round;stroke-miterlimit:1.5">
      <g
         transform="translate(-4.92836,-4.63582)"
         id="g1994">
        <path
           d="m 603.795,754.601 c 1.473,-0.558 0.09,3.641 -0.452,5.052 -0.276,0.716 -2.127,3.035 -1.338,3.823 1.001,1.001 2.711,-1.511 4.085,-1.167 1.781,0.445 6.012,2.626 7.294,2.626 1.393,0 -1.477,-2.428 -1.75,-3.793 -0.666,-3.328 0.288,-4.361 -0.185,-7.67 z"
           style="fill:#926a41"
           id="path1992" />
      </g>
      <g
         transform="matrix(0.553969,0,0,0.529567,396.109,256.8)"
         id="g1998">
        <path
           d="m 399.653,844.155 c -2.269,-7.374 -22.273,-10.591 -20.005,-11.731 8.679,-4.366 -0.619,-22.385 -12.167,-23.347 -8.334,-0.695 -15.36,4.289 -15.455,12.824 -0.066,5.969 -4.383,-5.096 -9.152,-6.117 -6.883,-1.473 -12.039,9.867 -8.841,13.248 4.846,5.123 -26.832,2.918 -5.997,22.229 8.64,8.008 -2.086,22.672 1.959,25.554 3.338,2.379 8.695,4.875 11.838,6.577 12.403,6.718 63.139,0.612 60.528,-16.229 -0.788,-5.089 -9.807,-0.848 -10.862,-6.314 -1.276,-6.61 10.341,-9.584 8.154,-16.694 z"
           style="fill:#2b8d3f"
           id="path1996" />
      </g>
      <g
         transform="matrix(0.210312,-0.160711,0.181538,0.237567,350.752,594.011)"
         id="g2002">
        <path
           d="m 399.653,844.155 c -2.269,-7.374 -22.273,-10.591 -20.005,-11.731 8.679,-4.366 -0.619,-22.385 -12.167,-23.347 -8.334,-0.695 -15.36,4.289 -15.455,12.824 -0.066,5.969 -4.383,-5.096 -9.152,-6.117 -6.883,-1.473 -12.039,9.867 -8.841,13.248 4.846,5.123 -26.832,2.918 -5.997,22.229 8.64,8.008 -2.086,22.672 1.959,25.554 3.338,2.379 8.695,4.875 11.838,6.577 12.403,6.718 63.139,0.612 60.528,-16.229 -0.788,-5.089 -9.807,-0.848 -10.862,-6.314 -1.276,-6.61 10.341,-9.584 8.154,-16.694 z"
           style="fill:#3fc51e"
           id="path2000" />
      </g>
      <g
         transform="matrix(0.210312,-0.160711,0.181538,0.237567,378.426,574.827)"
         id="g2006">
        <path
           d="m 399.653,844.155 c -2.269,-7.374 -22.273,-10.591 -20.005,-11.731 8.679,-4.366 -0.619,-22.385 -12.167,-23.347 -8.334,-0.695 -15.36,4.289 -15.455,12.824 -0.066,5.969 -4.383,-5.096 -9.152,-6.117 -6.883,-1.473 -12.039,9.867 -8.841,13.248 4.846,5.123 -26.832,2.918 -5.997,22.229 8.64,8.008 -2.086,22.672 1.959,25.554 3.338,2.379 8.695,4.875 11.838,6.577 12.403,6.718 63.139,0.612 60.528,-16.229 -0.788,-5.089 -9.807,-0.848 -10.862,-6.314 -1.276,-6.61 10.341,-9.584 8.154,-16.694 z"
           style="fill:#3fc51e"
           id="path2004" />
      </g>
      <g
         transform="translate(20.2113,-6.93955)"
         id="g2014">
        <g
           transform="translate(-4.92836,-4.63582)"
           id="g2010">
          <path
             d="m 605.475,753.344 c 1.472,-0.559 -0.5,7.187 -1.043,8.598 -0.275,0.717 6.275,0.839 7.649,1.183 1.781,0.445 -0.159,-6.344 -0.632,-9.653 z"
             style="fill:#926a41"
             id="path2008" />
        </g>
        <path
           d="m 624.373,750.122 c -10.376,-9.223 -26.603,-52.586 -26.414,-52.775 0.16,-0.16 -12.901,52.321 -13.747,53.46 -2.899,3.905 18.794,-1.826 40.161,-0.685 z"
           style="fill:#00500a"
           id="path2012" />
      </g>
      <g
         transform="matrix(1.11652,0,0,1.11652,-72.5518,-85.933)"
         id="g2018">
        <path
           d="m 624.373,750.122 c -10.376,-9.223 -26.603,-52.586 -26.414,-52.775 0.16,-0.16 -12.901,52.321 -13.747,53.46 -2.899,3.905 18.794,-1.826 40.161,-0.685 z"
           style="fill:#00500a"
           id="path2016" />
      </g>
    </g>
    <g
       transform="matrix(-0.2823501,0,0,0.32015641,220.39818,-215.46044)"
       id="g2036"
       style="clip-rule:evenodd;fill-rule:evenodd;stroke-linecap:round;stroke-linejoin:round;stroke-miterlimit:1.5">
      <path
         d="m 603.795,754.601 c 1.473,-0.558 0.09,3.641 -0.452,5.052 -0.276,0.716 -2.127,3.035 -1.338,3.823 1.001,1.001 2.711,-1.511 4.085,-1.167 1.781,0.445 6.012,2.626 7.294,2.626 1.393,0 -1.477,-2.428 -1.75,-3.793 -0.666,-3.328 0.288,-4.361 -0.185,-7.67 z"
         style="fill:#926a41"
         id="path2034" />
    </g>
    <g
       transform="matrix(-0.15641267,0,0,0.1695442,107.1671,-131.75951)"
       id="g2052"
       style="clip-rule:evenodd;fill-rule:evenodd;stroke-linecap:round;stroke-linejoin:round;stroke-miterlimit:1.5">
      <path
         d="m 399.653,844.155 c -2.269,-7.374 -22.273,-10.591 -20.005,-11.731 8.679,-4.366 -0.619,-22.385 -12.167,-23.347 -8.334,-0.695 -15.36,4.289 -15.455,12.824 -0.066,5.969 -4.383,-5.096 -9.152,-6.117 -6.883,-1.473 -12.039,9.867 -8.841,13.248 4.846,5.123 -26.832,2.918 -5.997,22.229 8.64,8.008 -2.086,22.672 1.959,25.554 3.338,2.379 8.695,4.875 11.838,6.577 12.403,6.718 63.139,0.612 60.528,-16.229 -0.788,-5.089 -9.807,-0.848 -10.862,-6.314 -1.276,-6.61 10.341,-9.584 8.154,-16.694 z"
         style="fill:#2b8d3f"
         id="path2050" />
    </g>
    <g
       transform="matrix(-0.0572733,0.05443828,0.05423165,0.07335864,13.792994,-62.742944)"
       id="g2068"
       style="clip-rule:evenodd;fill-rule:evenodd;stroke-linecap:round;stroke-linejoin:round;stroke-miterlimit:1.5">
      <path
         d="m 399.653,844.155 c -2.269,-7.374 -22.273,-10.591 -20.005,-11.731 8.679,-4.366 -0.619,-22.385 -12.167,-23.347 -8.334,-0.695 -15.36,4.289 -15.455,12.824 -0.066,5.969 -4.383,-5.096 -9.152,-6.117 -6.883,-1.473 -12.039,9.867 -8.841,13.248 4.846,5.123 -26.832,2.918 -5.997,22.229 8.64,8.008 -2.086,22.672 1.959,25.554 3.338,2.379 8.695,4.875 11.838,6.577 12.403,6.718 63.139,0.612 60.528,-16.229 -0.788,-5.089 -9.807,-0.848 -10.862,-6.314 -1.276,-6.61 10.341,-9.584 8.154,-16.694 z"
         style="fill:#3fc51e"
         id="path2066" />
    </g>
    <g
       transform="matrix(-0.2823501,0,0,0.32015641,214.69112,-217.6803)"
       id="g2084"
       style="clip-rule:evenodd;fill-rule:evenodd;stroke-linecap:round;stroke-linejoin:round;stroke-miterlimit:1.5">
      <path
         d="m 605.475,753.344 c 1.472,-0.559 -0.5,7.187 -1.043,8.598 -0.275,0.717 6.275,0.839 7.649,1.183 1.781,0.445 -0.159,-6.344 -0.632,-9.653 z"
         style="fill:#926a41"
         id="path2082" />
    </g>
    <g
       transform="matrix(-0.2823501,0,0,0.32015641,213.29941,-216.19598)"
       id="g2100"
       style="clip-rule:evenodd;fill-rule:evenodd;stroke-linecap:round;stroke-linejoin:round;stroke-miterlimit:1.5">
      <path
         d="m 624.373,750.122 c -10.376,-9.223 -26.603,-52.586 -26.414,-52.775 0.16,-0.16 -12.901,52.321 -13.747,53.46 -2.899,3.905 18.794,-1.826 40.161,-0.685 z"
         style="fill:#00500a"
         id="path2098" />
    </g>
    <g
       transform="matrix(-0.2823501,0,0,0.32015641,228.28012,-219.33923)"
       id="g2116"
       style="clip-rule:evenodd;fill-rule:evenodd;stroke-linecap:round;stroke-linejoin:round;stroke-miterlimit:1.5">
      <path
         d="m 605.663,753.846 c 0,0 -3.974,8.465 -2.902,8.159 2.325,-0.663 8.784,0 10.066,0 1.393,0 -2.186,-6.381 -2.3,-7.769 -0.117,-1.429 -4.277,0.895 -4.864,-0.39 z"
         style="fill:#926a41"
         id="path2114" />
    </g>
    <g
       transform="matrix(-0.2823501,0,0,0.32015641,226.88841,-217.85492)"
       id="g2132"
       style="clip-rule:evenodd;fill-rule:evenodd;stroke-linecap:round;stroke-linejoin:round;stroke-miterlimit:1.5">
      <path
         d="m 624.373,750.122 c -10.376,-9.223 -26.603,-52.586 -26.414,-52.775 0.16,-0.16 -12.901,52.321 -13.747,53.46 -2.899,3.905 18.794,-1.826 40.161,-0.685 z"
         style="fill:#00500a"
         id="path2130" />
    </g>
    <g
       transform="matrix(-0.2823501,0,0,0.32015641,219.00647,-213.60836)"
       id="g2178"
       style="clip-rule:evenodd;fill-rule:evenodd;stroke-linecap:round;stroke-linejoin:round;stroke-miterlimit:1.5">
      <path
         d="m 624.373,750.122 c -10.376,-9.223 -26.603,-52.586 -26.414,-52.775 0.16,-0.16 -12.901,52.321 -13.747,53.46 -2.899,3.905 18.794,-1.826 40.161,-0.685 z"
         style="fill:#00500a"
         id="path2176" />
    </g>
    <g
       transform="matrix(0.26458333,0,0,0.26458333,-302.82594,-328.68676)"
       id="g2278"
       style="clip-rule:evenodd;fill-rule:evenodd;stroke-linecap:round;stroke-linejoin:round;stroke-miterlimit:1.5">
      <g
         transform="matrix(0.909991,0,0,0.785194,303.47,897.145)"
         id="g2272">
        <path
           d="m 844.663,399.666 c -30.634,-17.899 -72.196,-27.942 -111.358,-2.615 -18.921,12.238 -26.645,27.868 -27.916,42.42 -1.967,22.513 11.954,43.918 29.694,51.503 24.563,10.502 57.236,14.246 84.614,10.551 19.334,-2.609 36.053,-9.09 46.185,-18.829 20.099,-19.318 19.709,-55.377 -1.924,-71.602 -4.036,-3.027 -9.434,-1.687 -12.046,2.99 -2.612,4.678 -1.456,10.933 2.58,13.961 11.812,8.858 11.242,28.563 0.269,39.11 -8.088,7.773 -21.646,12.232 -37.079,14.315 -24.771,3.343 -54.344,0.063 -76.569,-9.439 -10.663,-4.559 -19.573,-16.994 -18.391,-30.526 0.828,-9.481 6.746,-18.85 19.073,-26.822 33.423,-21.617 68.88,-12.264 95.025,3.012 4.293,2.508 9.535,0.505 11.7,-4.47 2.164,-4.975 0.436,-11.051 -3.857,-13.559 z"
           style="fill:#ffffff"
           id="path2270" />
      </g>
      <g
         transform="matrix(0.909991,0,0,0.785194,303.47,897.145)"
         id="g2276">
        <path
           d="m 842.702,404.173 c -29.511,-17.243 -69.548,-27.113 -107.274,-2.714 -17.271,11.17 -24.545,25.237 -25.706,38.52 -1.771,20.268 10.898,39.431 26.869,46.259 23.978,10.252 55.876,13.88 82.602,10.273 18.359,-2.477 34.288,-8.453 43.909,-17.7 17.816,-17.125 17.667,-49.097 -1.511,-63.48 -2.018,-1.513 -4.716,-0.843 -6.022,1.496 -1.306,2.339 -0.728,5.466 1.29,6.98 14.266,10.699 13.936,34.494 0.682,47.233 -8.599,8.265 -22.947,13.23 -39.355,15.444 -25.423,3.431 -55.771,0.035 -78.58,-9.717 -12.432,-5.315 -22.596,-19.994 -21.217,-35.771 0.939,-10.746 7.31,-21.684 21.284,-30.721 34.857,-22.544 71.841,-13.019 99.108,2.913 2.146,1.254 4.767,0.252 5.85,-2.235 1.082,-2.488 0.218,-5.526 -1.929,-6.78 z"
           style="fill:#00500a"
           id="path2274" />
      </g>
    </g>
  </g>
</svg>
