<?xml version="1.0" encoding="UTF-8" standalone="no"?>
<!-- Created with Inkscape (http://www.inkscape.org/) -->

<svg
   width="393.3331mm"
   height="147.95178mm"
   viewBox="0 0 393.3331 147.95178"
   version="1.1"
   id="svg3813"
   inkscape:version="1.1.1 (3bf5ae0d25, 2021-09-20)"
   sodipodi:docname="2022-CY-01-question.svg"
   xmlns:inkscape="http://www.inkscape.org/namespaces/inkscape"
   xmlns:sodipodi="http://sodipodi.sourceforge.net/DTD/sodipodi-0.dtd"
   xmlns="http://www.w3.org/2000/svg"
   xmlns:svg="http://www.w3.org/2000/svg">
  <sodipodi:namedview
     id="namedview3815"
     pagecolor="#ffffff"
     bordercolor="#666666"
     borderopacity="1.0"
     inkscape:pageshadow="2"
     inkscape:pageopacity="0.0"
     inkscape:pagecheckerboard="0"
     inkscape:document-units="mm"
     showgrid="false"
     inkscape:zoom="0.66368547"
     inkscape:cx="856.58045"
     inkscape:cy="606.46197"
     inkscape:window-width="1680"
     inkscape:window-height="1027"
     inkscape:window-x="1912"
     inkscape:window-y="-8"
     inkscape:window-maximized="1"
     inkscape:current-layer="layer1" />
  <defs
     id="defs3810" />
  <g
     inkscape:label="Ebene 1"
     inkscape:groupmode="layer"
     id="layer1"
     transform="translate(121.71889,11.785286)">
    <g
       id="g3573"
       style="clip-rule:evenodd;fill-rule:evenodd;stroke-linecap:round;stroke-linejoin:round;stroke-miterlimit:1.5"
       transform="matrix(0.26458333,0,0,0.26458333,-195.98567,-36.103038)">
      <g
         transform="matrix(0.969416,0,0,0.928192,-1.93693,-240.085)"
         id="g4">
        <path
           d="m 1305.82,459.395 c 20.15,-11.313 45.11,-10.218 67.95,-13.787 146.48,-22.888 259.95,-92.401 398.74,-29.317 106.84,48.567 24.12,410.842 -15.33,454.236 -37.05,40.749 -20.18,29.514 -71.57,55.21 -79.36,39.679 -202.83,8.561 -284.91,-15.758 -51.52,-15.266 -93.46,-8.166 -146.82,-17.059 -87.83,-14.638 -144.44,47.354 -229.88,59.814 -80.006,11.667 -164.612,6.718 -245.208,3.939 C 699.019,953.922 608.013,958.187 531.541,930.38 501.058,919.295 442.873,871.867 425.067,843.698 374.315,763.408 270.875,655.817 295.192,558.551 318.877,463.81 313.069,433.427 407.385,418.633 c 114.034,-17.888 342.427,-80.948 544.357,-54.612 56.948,7.427 308.948,120.71 354.078,95.374 z"
           style="fill:#a5f171;font-variation-settings:normal;opacity:1;vector-effect:none;fill-opacity:1;stroke-width:1.00000607;stroke-linecap:round;stroke-linejoin:round;stroke-miterlimit:1.5;stroke-dasharray:none;stroke-dashoffset:0;stroke-opacity:1;-inkscape-stroke:none;stop-color:#000000;stop-opacity:1"
           id="path2" />
      </g>
      <g
         transform="translate(-30.4355,-303.959)"
         id="g8">
        <path
           d="m 1229.72,646.516 c -11.53,-1.256 -21.7,15.911 -27.17,31.386 -4.33,12.238 -14.24,21.367 -22.67,29.996 -3.59,3.677 -7.13,25.229 -8.35,33.299 -1.26,8.386 -7.08,17.016 -13.29,26.803 -10.04,16.067 -60.96,27.303 -69.91,36.257 -19.79,19.792 -58.46,21.727 -93.349,13.122 -15.465,-4.113 -42.254,-1.131 -52.125,3.432 -17.518,8.1 -52.926,18.674 -86.293,30.698 -11.558,4.165 -15.928,12.795 -4.051,13.148 3.476,0.104 10.736,2.674 13.41,4.786 4.309,3.403 6.642,15.72 8.072,19.343 2.735,6.927 10.268,6.513 14.645,5.37 54.652,-14.272 58.859,-10.41 77.449,-18.859 16.404,-7.455 35.262,-13.744 52.352,-16.592 4.43,-0.737 9,-0.678 13.6,-0.353 4.24,0.299 8.52,1.033 12.6,0.353 27.71,-4.618 93.97,-33.062 116.42,-49.897 3.31,-2.487 5.43,-5.97 7.77,-9.276 2.53,-3.579 5.14,-7.103 8.26,-10.219 13.82,-13.826 26.85,-25.423 41.51,-39.192 15.42,-14.492 19.28,-28.723 28.8,-49.103 3.93,-8.424 22.44,-29.836 12.08,-38.064 -11.98,-9.517 -20.98,-15.481 -29.76,-16.438 z m 294.69,-68.509 c -1.94,-9.024 -18.17,-19.957 -24,-17.191 -4.52,2.143 -8.88,6.866 -13.44,10.401 -5.31,4.113 -10.81,7.158 -16.13,8.221 -10.2,2.04 -20.49,5.159 -30.66,8.806 -10.08,3.614 -25.29,21.742 -27.64,27.163 -3.01,6.955 -7.12,17.747 -15.73,23.813 -8.92,6.286 -11.93,24.684 -8.48,33.483 34.86,89.091 30.34,79.193 75.66,114.484 8.84,6.877 14.63,16.731 20.07,26.897 3.48,6.518 21.83,15.649 27.85,14.108 16.29,-4.177 34.52,-7.141 52.59,-9.08 7.17,-0.77 25.93,-18.279 28.49,-26.397 5.34,-16.918 57.65,-139.236 44.91,-170.541 -6.06,-14.915 -23.9,-25.851 -47.39,-20.063 -24.22,5.97 -61.09,-0.881 -66.1,-24.104 z M 938.284,693.984 c -5.352,-3.081 -21.888,-0.643 -26.21,2.519 -17.85,13.064 -52.346,18.793 -88.617,19.489 -7.444,0.142 -28.648,17.467 -31.358,26.11 -3.687,11.76 -8.133,23.067 -16.415,33.42 -10.436,13.044 -16.848,30.866 -28.124,44.601 -5.944,7.24 -1.559,17.049 10.513,15.624 4.838,-0.571 13.077,3.202 19.632,3.946 5.649,0.641 13.964,3.453 20.154,3.617 6.325,0.168 23.156,-5.008 33.3,-9.163 31.346,-12.838 70.383,-25.294 92.948,-36.936 6.246,-3.223 10.98,-2.732 12.486,-9.329 5.525,-24.2 7.257,-44.045 31.23,-55.537 13.375,-6.412 14.41,-20.875 3.525,-23.092 -11.765,-2.397 -22.313,-9.078 -33.064,-15.269 z M 895.367,509.76 c -6.651,-12.77 -24.027,-26.058 -33.758,-17.687 -5.882,5.06 -18.203,9.258 -27.693,9.403 -9.328,0.143 -14.165,12.276 -18.277,22.576 -7.173,17.966 -3.658,42.254 -3.72,62.417 -0.028,9.301 2.23,20.011 9.766,20.226 36.032,1.027 73.198,28.866 91.249,46.918 30.134,10.854 61.647,24.85 87.866,42.328 1.59,1.058 5.7,1.653 10.1,1.807 5.2,0.182 19.72,0.574 21.48,-0.007 6.83,-2.261 -2.99,-16.259 -12.22,-28.269 -17.5,-22.761 -30.893,-51.082 -73.373,-91.957 -7.498,-7.214 -37.765,-41.536 -51.42,-67.755 z m 302.193,131.526 c 0.43,-1.347 0.11,-11.971 -0.07,-13.872 -1.24,-12.735 -5.41,-20.349 -2.76,-27.36 1.99,-5.268 -1.93,-15.055 -7.47,-17.645 -40.31,-18.855 -64.25,-27.238 -92.26,-30.689 -45.59,-5.619 -83.44,-56.231 -128.101,-67.397 -6.349,-1.587 -15.621,-6.579 -25.342,-12.65 -2.248,-1.405 -9.517,0.018 -11.352,2.091 -2.823,3.188 -6.416,6.928 -10.361,10.229 -3.153,2.637 -2.465,10.029 0.373,13.091 10.346,11.164 29.412,39.387 30.864,42.787 7.567,17.713 44.069,61.403 54.659,72.852 33.4,36.115 43.1,52.727 52.55,62.947 7.76,8.392 18.46,16.424 28.22,14.11 16.08,-3.812 33.18,-5.508 47,-1.937 25.65,6.626 33.82,4.528 46.58,-13.894 5.21,-7.517 14.51,-23.345 17.47,-32.663 z M 737.687,484.832 c -9.467,-3.662 -25.528,-13.195 -36.057,-8.131 -11.158,5.367 -24.993,-1.102 -35.415,2.806 -4.886,1.832 -11.438,7.045 -18.058,12.59 -12.062,10.104 -23.851,21.787 -27.395,24.623 -0.804,0.643 -17.724,20.55 -29.474,26.199 -10.389,4.995 -4.556,11.099 -1.018,13.829 7.503,5.79 14.199,12.344 16.654,20.452 1.549,5.118 -0.457,10.704 -9.926,19.933 -3.012,2.936 -20.152,9.408 -25.672,13.273 -5.021,3.515 -6.351,11.368 -6.661,12.9 -0.981,4.853 3.31,9.592 8.225,9.497 27.179,1.001 60.363,-4.7 88.095,-1.234 15.203,1.901 32.728,3.169 47.438,6.847 3.857,0.964 20.494,-3.392 25.311,-6.853 9.512,-6.835 20.264,-12.696 33.001,-14.379 6.175,-0.815 29.581,-10.767 28.401,-16.074 -2.107,-9.476 -5.36,-26.655 -4.393,-41.186 0.478,-7.178 -4.05,-28.509 -1.844,-34.966 1.976,-5.787 -12.484,-20.156 -15.177,-21.039 -10.473,-3.436 -22.577,-13.882 -36.035,-19.087 z m -21.001,337.456 c -71.012,-21.599 -119.52,65.105 -84.655,72.573 22.391,4.796 27.183,24.213 85.049,30.305 27.135,2.857 77.477,8.307 101.618,0.26 13.381,-4.46 32.092,-3.159 44.715,-10.053 36.358,-4.31 73.668,-5.169 109.182,-14.048 16.803,-4.2 33.835,-13.418 50.255,-16.156 4.08,-0.68 8.36,0.054 12.61,0.353 4.6,0.325 9.17,0.384 13.59,-0.353 30.49,-5.082 103.41,-36.373 128.11,-54.898 4,-3.002 7.24,-6.626 10.17,-10.522 2.88,-3.834 5.31,-8.046 8.73,-11.465 14.6,-14.599 30.52,-24.893 43.63,-41.587 14.18,-18.039 5.67,-15.098 18.6,-33.448 1.34,-1.906 11.27,-24.928 18.02,-33.168 10.45,-12.762 27.27,-36.7 35.25,-37.109 18.25,-0.937 34.3,-6.252 39.03,3.372 3.49,7.122 10.52,11.986 15.2,21.341 58.57,117.051 47.59,84.809 68.1,105.19 6.57,6.529 20.16,28.094 26.77,34.776 15.39,15.54 -4.26,34.885 -5.95,43.061 -4.09,19.773 19.61,16.797 34.93,22.924 63.96,25.585 101.3,25.564 167.02,7.642 43.06,-11.744 53.03,-44.81 9.71,-79.468 -3.4,-2.726 -16.39,-10.435 -32.6,-5.327 -17.7,5.578 -13.92,-8.041 -19.3,-24.198 -3.93,-11.815 44.09,-108.254 46.99,-126.698 2.93,-18.621 9.29,-84.778 32.52,-86.245 41.83,-2.641 82.76,-71.646 37.31,-80.739 -12.66,-2.533 -110.63,-53.704 -142.57,-20.773 -7.32,7.539 -54.52,6.983 -63.74,13.132 -7.61,5.068 -18.32,10.859 -20.67,20.633 -2.09,8.714 -13.05,21.426 -15.9,25.224 -6.18,8.236 -49.14,28.772 -59.68,27.061 -7.92,-1.286 -35.93,4.391 -47.72,-0.017 -44.77,-16.742 -133.81,-27.167 -161.69,-9.587 -3.38,2.13 -22.94,2.897 -31.04,-0.004 -27.95,-10.008 -56.45,-18.558 -84.79,-28.005 -44.23,-14.742 -60.42,-38.139 -105.745,-49.47 -5.743,-1.436 -38.619,-25.208 -47.428,-31.006 -6.12,-4.029 -44.979,-20.831 -67.64,-23.311 -37.534,-4.107 -89.003,-3.261 -141.207,11.444 -8.134,2.291 -33.173,16.062 -39.366,15.952 -15.866,-0.28 -33.811,5.521 -47.168,10.53 -15.693,5.885 -45.103,34.267 -51.35,39.264 -0.797,0.638 -18.572,13.866 -28.804,22.092 -0.765,0.342 -52.672,6.822 -60.088,4.665 -100.387,-29.19 -194.778,75.306 -99.895,85.705 10.34,1.133 12.06,0.803 20.029,3.288 2.12,0.035 23.447,1.298 31.905,12.831 0,0 21.725,8.021 24.367,8.797 9.836,2.887 20.507,4.34 33.74,2.891 5.615,1.557 9.464,6.021 14.295,9.382 5.983,4.164 12.633,7.624 21.135,8.839 31.823,4.546 64.394,0.808 97.388,0.031 23.387,-0.55 44.321,13.913 46.062,30.216 0.964,9.023 18.458,17.086 45.149,22.091 7.368,1.382 19.715,16.927 17.63,23.577 -2.708,8.637 -6.431,16.54 -11.766,24.687 -13.136,20.063 -19.764,69.087 -38.047,63.526 z"
           style="fill:#2cd1ec;font-variation-settings:normal;opacity:1;vector-effect:none;fill-opacity:1;stroke-width:0.999987;stroke-linecap:round;stroke-linejoin:round;stroke-miterlimit:1.5;stroke-dasharray:none;stroke-dashoffset:0;stroke-opacity:1;-inkscape-stroke:none;stop-color:#000000;stop-opacity:1"
           id="path6" />
      </g>
      <g
         transform="translate(-8.60276,-338.11)"
         id="g12">
        <path
           d="m 1241.88,612.462 c 0.96,0.454 1.87,1.373 2.61,1.85 1.34,0.848 2.77,1.431 4.44,1.785 1.09,0.232 2.44,0.46 3.48,0.207 0.91,-0.219 1.78,-0.914 2.86,-0.78 1.34,0.165 2.22,1.085 3.15,1.737 0.92,0.646 1.99,1.09 3.21,1.321 2.43,0.463 3.76,-0.892 5.93,-0.854 2.54,0.045 4.02,2.216 6.42,2.694 1.23,0.245 2.24,-0.006 3.26,-0.378 0.46,-0.169 1.26,-0.619 1.9,-0.515 1.29,0.209 3.04,0.681 4.07,1.321 0.6,0.379 0.9,0.898 1.64,1.172 1.46,0.548 1.95,-1.038 3.18,-0.839 0.92,0.149 1.41,0.799 2.01,1.397 0.22,-0.149 0.46,-0.262 0.74,-0.312 1.28,-0.235 2.37,0.544 3.43,1 0.31,0.131 0.62,0.239 0.93,0.322 1.13,-0.214 2.22,-0.531 3.41,-0.575 0.23,-0.008 0.49,0.061 0.76,0.18 1.2,-0.704 2.02,-1.837 3.44,-2.297 2.35,-0.754 4.39,1.273 6.74,1.061 1.21,-0.108 2.06,-0.72 2.88,-1.473 0.37,-0.341 0.96,-1.111 1.58,-1.196 1.25,-0.169 3.01,-0.183 4.15,0.228 0.68,0.243 1.11,0.746 1.87,0.829 1.52,0.165 1.47,-1.818 2.67,-1.98 1.5,-0.204 2.33,1.627 4,1.608 2.64,-0.029 4.09,-1.994 6.23,-2.843 1.03,-0.41 3.2,1.151 4.35,1.258 1.52,0.143 3.08,-1.188 4.65,-1.332 2.74,-0.251 4.95,2.328 7.48,0.006 0.73,-0.672 0.81,-1.722 1.43,-2.424 0.42,-0.482 2.35,1.094 2.86,1.14 0.8,0.074 1.64,-0.378 2.44,-0.394 1.13,-0.022 2.11,0.38 3.21,0.47 -0.87,-3.499 -5.78,-10.139 -7.39,-12.241 -7.27,-9.511 -26.26,-23.489 -37.82,-26.795 -10.58,-3.022 -21.63,1.03 -29.95,7.566 -2.16,1.693 -3.1,4.578 -5.32,6.056 -4.34,2.891 -9.64,2.998 -14.23,5.292 -3.77,1.887 -5.21,6.825 -8.82,9.236 -1.41,0.938 -9.68,5.138 -13.88,7.492 z"
           style="fill:#926a41"
           id="path10" />
      </g>
      <g
         transform="translate(-8.60276,-338.11)"
         id="g16">
        <path
           d="m 1241.88,612.462 c 0.96,0.454 1.87,1.373 2.61,1.85 1.34,0.848 2.77,1.431 4.44,1.785 1.09,0.232 2.44,0.46 3.48,0.207 0.91,-0.219 1.78,-0.914 2.86,-0.78 1.34,0.165 2.22,1.085 3.15,1.737 0.92,0.646 1.99,1.09 3.21,1.321 2.43,0.463 3.76,-0.892 5.93,-0.854 2.54,0.045 4.02,2.216 6.42,2.694 1.23,0.245 2.24,-0.006 3.26,-0.378 0.46,-0.169 1.26,-0.619 1.9,-0.515 1.29,0.209 3.04,0.681 4.07,1.321 0.6,0.379 0.9,0.898 1.64,1.172 1.46,0.548 1.95,-1.038 3.18,-0.839 0.92,0.149 1.41,0.799 2.01,1.397 0.22,-0.149 0.46,-0.262 0.74,-0.312 1.28,-0.235 2.37,0.544 3.43,1 0.31,0.131 0.62,0.239 0.93,0.322 1.13,-0.214 2.22,-0.531 3.41,-0.575 0.23,-0.008 0.49,0.061 0.76,0.18 1.2,-0.704 2.02,-1.837 3.44,-2.297 2.35,-0.754 4.39,1.273 6.74,1.061 1.21,-0.108 2.06,-0.72 2.88,-1.473 0.37,-0.341 0.96,-1.111 1.58,-1.196 1.25,-0.169 3.01,-0.183 4.15,0.228 0.68,0.243 1.11,0.746 1.87,0.829 1.52,0.165 1.47,-1.818 2.67,-1.98 1.5,-0.204 2.33,1.627 4,1.608 2.64,-0.029 4.09,-1.994 6.23,-2.843 1.03,-0.41 3.2,1.151 4.35,1.258 1.52,0.143 3.08,-1.188 4.65,-1.332 2.74,-0.251 4.95,2.328 7.48,0.006 0.73,-0.672 0.81,-1.722 1.43,-2.424 0.42,-0.482 2.35,1.094 2.86,1.14 0.8,0.074 1.64,-0.378 2.44,-0.394 1.13,-0.022 2.11,0.38 3.21,0.47 -0.87,-3.499 -5.78,-10.139 -7.39,-12.241 -7.27,-9.511 -26.26,-23.489 -37.82,-26.795 -10.58,-3.022 -21.63,1.03 -29.95,7.566 -2.16,1.693 -3.1,4.578 -5.32,6.056 -4.34,2.891 -9.64,2.998 -14.23,5.292 -3.77,1.887 -5.21,6.825 -8.82,9.236 -1.41,0.938 -9.68,5.138 -13.88,7.492 z"
           style="fill:#926a41"
           id="path14" />
      </g>
      <g
         transform="translate(298.299,-385.079)"
         id="g20">
        <path
           d="m 1227.76,615.28 c 0.95,0.454 1.86,1.373 2.61,1.85 1.33,0.848 2.76,1.431 4.44,1.785 1.09,0.232 2.43,0.46 3.48,0.207 0.91,-0.219 1.78,-0.914 2.86,-0.78 1.33,0.165 2.22,1.085 3.14,1.737 0.92,0.646 2,1.09 3.22,1.321 2.43,0.462 3.76,-0.893 5.93,-0.854 2.53,0.045 18.14,-0.602 20.54,-0.124 1.23,0.245 2.24,-0.006 3.26,-0.378 0.46,-0.169 1.26,-0.619 1.9,-0.515 1.29,0.209 3.04,0.681 4.07,1.321 0.6,0.379 0.9,0.898 1.64,1.172 1.46,0.548 1.95,-1.038 3.18,-0.839 0.92,0.149 1.41,0.799 2.01,1.397 0.22,-0.149 0.46,-0.262 0.74,-0.312 1.28,-0.235 2.37,0.544 3.43,1 0.31,0.131 0.62,0.239 0.93,0.322 1.13,-0.214 2.22,-0.531 3.41,-0.575 0.23,-0.008 0.49,0.061 0.76,0.18 1.2,-0.704 2.02,-1.837 3.44,-2.297 2.35,-0.754 4.39,1.273 6.74,1.061 1.21,-0.108 2.06,-0.72 2.88,-1.473 0.37,-0.341 0.96,-1.111 1.58,-1.196 1.25,-0.169 3.01,-0.183 4.15,0.228 0.68,0.243 1.11,0.746 1.87,0.829 1.52,0.165 1.47,-1.818 2.67,-1.98 1.5,-0.204 2.33,1.627 4,1.608 2.64,-0.029 4.09,-1.994 6.23,-2.843 1.03,-0.41 3.2,1.151 4.35,1.258 1.52,0.143 3.08,-1.188 4.65,-1.332 2.74,-0.251 4.95,2.328 7.48,0.006 0.73,-0.672 0.81,-1.722 1.43,-2.424 0.42,-0.482 2.35,1.094 2.86,1.14 0.8,0.074 1.64,-0.378 2.44,-0.394 1.13,-0.022 2.11,0.38 3.21,0.47 -0.87,-3.499 -5.78,-10.139 -7.39,-12.241 -7.27,-9.511 -26.26,-23.489 -37.82,-26.795 -10.58,-3.022 -21.63,1.03 -29.95,7.566 -2.16,1.693 -3.1,4.578 -5.32,6.056 -4.34,2.891 -10.23,8.149 -14.82,10.443 -3.78,1.887 -18.74,4.492 -22.36,6.903 -1.4,0.938 -9.67,5.138 -13.87,7.492 z"
           style="fill:#926a41"
           id="path18" />
      </g>
      <g
         transform="matrix(0.9009,0,0,1,-151.654,-156.893)"
         id="g24">
        <path
           d="m 1241.88,612.462 c 0.96,0.454 1.87,1.373 2.61,1.85 1.34,0.848 2.77,1.431 4.44,1.785 1.09,0.232 2.44,0.46 3.48,0.207 0.91,-0.219 1.78,-0.914 2.86,-0.78 1.34,0.165 2.22,1.085 3.15,1.737 0.92,0.646 1.99,1.09 3.21,1.321 2.43,0.463 3.76,-0.892 5.93,-0.854 2.54,0.045 4.02,2.216 6.42,2.694 1.23,0.245 2.24,-0.006 3.26,-0.378 0.46,-0.169 1.26,-0.619 1.9,-0.515 1.29,0.209 3.04,0.681 4.07,1.321 0.6,0.379 0.9,0.898 1.64,1.172 1.46,0.548 1.95,-1.038 3.18,-0.839 0.92,0.149 1.41,0.799 2.01,1.397 0.22,-0.149 0.46,-0.262 0.74,-0.312 1.28,-0.235 2.37,0.544 3.43,1 0.31,0.131 0.62,0.239 0.93,0.322 1.13,-0.214 2.22,-0.531 3.41,-0.575 0.23,-0.008 0.49,0.061 0.76,0.18 1.2,-0.704 2.02,-1.837 3.44,-2.297 2.35,-0.754 4.39,1.273 6.74,1.061 1.21,-0.108 2.06,-0.72 2.88,-1.473 0.37,-0.341 0.96,-1.111 1.58,-1.196 1.25,-0.169 3.01,-0.183 4.15,0.228 0.68,0.243 1.11,0.746 1.87,0.829 1.52,0.165 1.47,-1.818 2.67,-1.98 1.5,-0.204 2.33,1.627 4,1.608 2.64,-0.029 4.09,-1.994 6.23,-2.843 1.03,-0.41 3.2,1.151 4.35,1.258 1.52,0.143 3.08,-1.188 4.65,-1.332 2.74,-0.251 4.95,2.328 7.48,0.006 0.73,-0.672 0.81,-1.722 1.43,-2.424 0.42,-0.482 2.35,1.094 2.86,1.14 0.8,0.074 1.64,-0.378 2.44,-0.394 1.13,-0.022 2.11,0.38 3.21,0.47 -0.87,-3.499 -5.78,-10.139 -7.39,-12.241 -7.27,-9.511 -26.26,-23.489 -37.82,-26.795 -10.58,-3.022 -21.63,1.03 -29.95,7.566 -2.16,1.693 -3.1,4.578 -5.32,6.056 -4.34,2.891 -9.64,2.998 -14.23,5.292 -3.77,1.887 -5.21,6.825 -8.82,9.236 -1.41,0.938 -9.68,5.138 -13.88,7.492 z"
           style="fill:#926a41"
           id="path22" />
      </g>
      <g
         transform="matrix(0.9009,0,0,1,-460.387,-23.6334)"
         id="g28">
        <path
           d="m 1241.88,612.462 c 0.96,0.454 1.87,1.373 2.61,1.85 1.34,0.848 2.77,1.431 4.44,1.785 1.09,0.232 2.44,0.46 3.48,0.207 0.91,-0.219 1.78,-0.914 2.86,-0.78 1.34,0.165 2.22,1.085 3.15,1.737 0.92,0.646 1.99,1.09 3.21,1.321 2.43,0.463 3.76,-0.892 5.93,-0.854 2.54,0.045 4.02,2.216 6.42,2.694 1.23,0.245 2.24,-0.006 3.26,-0.378 0.46,-0.169 1.26,-0.619 1.9,-0.515 1.29,0.209 3.04,0.681 4.07,1.321 0.6,0.379 0.9,0.898 1.64,1.172 1.46,0.548 1.95,-1.038 3.18,-0.839 0.92,0.149 1.41,0.799 2.01,1.397 0.22,-0.149 0.46,-0.262 0.74,-0.312 1.28,-0.235 2.37,0.544 3.43,1 0.31,0.131 0.62,0.239 0.93,0.322 1.13,-0.214 2.22,-0.531 3.41,-0.575 0.23,-0.008 0.49,0.061 0.76,0.18 1.2,-0.704 2.02,-1.837 3.44,-2.297 2.35,-0.754 4.39,1.273 6.74,1.061 1.21,-0.108 2.06,-0.72 2.88,-1.473 0.37,-0.341 0.96,-1.111 1.58,-1.196 1.25,-0.169 3.01,-0.183 4.15,0.228 0.68,0.243 1.11,0.746 1.87,0.829 1.52,0.165 1.47,-1.818 2.67,-1.98 1.5,-0.204 2.33,1.627 4,1.608 2.64,-0.029 4.09,-1.994 6.23,-2.843 1.03,-0.41 3.2,1.151 4.35,1.258 1.52,0.143 3.08,-1.188 4.65,-1.332 2.74,-0.251 4.95,2.328 7.48,0.006 0.73,-0.672 0.81,-1.722 1.43,-2.424 0.42,-0.482 2.35,1.094 2.86,1.14 0.8,0.074 1.64,-0.378 2.44,-0.394 1.13,-0.022 2.11,0.38 3.21,0.47 -0.87,-3.499 -5.78,-10.139 -7.39,-12.241 -7.27,-9.511 -26.26,-23.489 -37.82,-26.795 -10.58,-3.022 -30.28,-5.408 -38.6,1.128 -2.15,1.693 -3.1,4.578 -5.32,6.057 -4.33,2.891 -9.63,2.998 -14.22,5.292 -3.78,1.887 -5.21,6.824 -8.83,9.236 -1.41,0.938 -1.03,11.575 -5.23,13.929 z"
           style="fill:#926a41"
           id="path26" />
      </g>
      <g
         transform="matrix(0.9009,0,0,1,380.046,-43.5488)"
         id="g32">
        <path
           d="m 1241.88,612.462 c 0.96,0.454 1.87,1.373 2.61,1.85 1.34,0.848 2.77,1.431 4.44,1.785 1.09,0.232 2.44,0.46 3.48,0.207 0.91,-0.219 1.78,-0.914 2.86,-0.78 1.34,0.165 2.22,1.085 3.15,1.737 0.92,0.646 1.99,1.09 3.21,1.321 2.43,0.463 3.76,-0.892 5.93,-0.854 2.54,0.045 4.02,2.216 6.42,2.694 1.23,0.245 2.24,-0.006 3.26,-0.378 0.46,-0.169 1.26,-0.619 1.9,-0.515 1.29,0.209 3.04,0.681 4.07,1.321 0.6,0.379 0.9,0.898 1.64,1.172 1.46,0.548 1.95,-1.038 3.18,-0.839 0.92,0.149 1.41,0.799 2.01,1.397 0.22,-0.149 0.46,-0.262 0.74,-0.312 1.28,-0.235 2.37,0.544 3.43,1 0.31,0.131 0.62,0.239 0.93,0.322 1.13,-0.214 2.22,-0.531 3.41,-0.575 0.23,-0.008 0.49,0.061 0.76,0.18 1.2,-0.704 2.02,-1.837 3.44,-2.297 2.35,-0.754 4.39,1.273 6.74,1.061 1.21,-0.108 2.06,-0.72 2.88,-1.473 0.37,-0.341 0.96,-1.111 1.58,-1.196 1.25,-0.169 3.01,-0.183 4.15,0.228 0.68,0.243 1.11,0.746 1.87,0.829 1.52,0.165 1.47,-1.818 2.67,-1.98 1.5,-0.204 2.33,1.627 4,1.608 2.64,-0.029 4.09,-1.994 6.23,-2.843 1.03,-0.41 3.2,1.151 4.35,1.258 1.52,0.143 3.08,-1.188 4.65,-1.332 2.74,-0.251 4.95,2.328 7.48,0.006 0.73,-0.672 0.81,-1.722 1.43,-2.424 0.42,-0.482 2.35,1.094 2.86,1.14 0.8,0.074 1.64,-0.378 2.44,-0.394 1.13,-0.022 2.11,0.38 3.21,0.47 -0.87,-3.499 -5.78,-10.139 -7.39,-12.241 -7.27,-9.511 -26.26,-23.489 -37.82,-26.795 -5.14,-1.467 -12.21,-0.03 -19.18,1.248 -7.39,1.354 -28.28,2.372 -34.81,7.052 -6.26,4.482 -12.17,9.987 -12.98,13.413 -0.39,1.645 -1.03,11.575 -5.23,13.929 z"
           style="fill:#926a41"
           id="path30" />
      </g>
      <g
         transform="matrix(0.825358,0,0,1.12391,-304.396,-538.397)"
         id="g36">
        <path
           d="m 1241.88,612.462 c 0.96,0.454 1.87,1.373 2.61,1.85 1.34,0.848 2.77,1.431 4.44,1.785 1.09,0.232 2.44,0.46 3.48,0.207 0.91,-0.219 1.78,-0.914 2.86,-0.78 1.34,0.165 2.22,1.085 3.15,1.737 0.92,0.646 1.99,1.09 3.21,1.321 2.43,0.463 3.76,-0.892 5.93,-0.854 2.54,0.045 4.02,2.216 6.42,2.694 1.23,0.245 2.24,-0.006 3.26,-0.378 0.46,-0.169 1.26,-0.619 1.9,-0.515 1.29,0.209 3.04,0.681 4.07,1.321 0.6,0.379 0.9,0.898 1.64,1.172 1.46,0.548 1.95,-1.038 3.18,-0.839 0.92,0.149 1.41,0.799 2.01,1.397 0.22,-0.149 0.46,-0.262 0.74,-0.312 1.28,-0.235 2.37,0.544 3.43,1 0.31,0.131 0.62,0.239 0.93,0.322 1.13,-0.214 2.22,-0.531 3.41,-0.575 0.23,-0.008 0.49,0.061 0.76,0.18 1.2,-0.704 2.02,-1.837 3.44,-2.297 2.35,-0.754 4.39,1.273 6.74,1.061 1.21,-0.108 2.06,-0.72 2.88,-1.473 0.37,-0.341 0.96,-1.111 1.58,-1.196 1.25,-0.169 3.01,-0.183 4.15,0.228 0.68,0.243 1.11,0.746 1.87,0.829 1.52,0.165 1.47,-1.818 2.67,-1.98 1.5,-0.204 2.33,1.627 4,1.608 2.64,-0.029 4.09,-1.994 6.23,-2.843 1.03,-0.41 3.2,1.151 4.35,1.258 1.52,0.143 3.08,-1.188 4.65,-1.332 2.74,-0.251 4.95,2.328 7.48,0.006 0.73,-0.672 0.81,-1.722 1.43,-2.424 0.42,-0.482 2.35,1.094 2.86,1.14 0.8,0.074 1.64,-0.378 2.44,-0.394 1.13,-0.022 2.11,0.38 3.21,0.47 -0.87,-3.499 -5.78,-10.139 -7.39,-12.241 -7.27,-9.511 -26.26,-23.489 -37.82,-26.795 -10.58,-3.022 -21.63,1.03 -29.95,7.566 -2.16,1.693 -3.1,4.578 -5.32,6.056 -4.34,2.891 -9.64,2.998 -14.23,5.292 -3.77,1.887 -5.21,6.825 -8.82,9.236 -1.41,0.938 -9.68,5.138 -13.88,7.492 z"
           style="fill:#926a41"
           id="path34" />
      </g>
      <g
         transform="matrix(0.9009,0,0,1.13968,-400.579,-330.733)"
         id="g40">
        <path
           d="m 1241.88,612.462 c 0.96,0.454 1.87,1.373 2.61,1.85 1.34,0.848 2.77,1.431 4.44,1.785 1.09,0.232 2.44,0.46 3.48,0.207 0.91,-0.219 1.78,-0.914 2.86,-0.78 1.34,0.165 2.22,1.085 3.15,1.737 0.92,0.646 1.99,1.09 3.21,1.321 2.43,0.463 3.76,-0.892 5.93,-0.854 2.54,0.045 4.02,2.216 6.42,2.694 1.23,0.245 2.24,-0.006 3.26,-0.378 0.46,-0.169 1.26,-0.619 1.9,-0.515 1.29,0.209 3.04,0.681 4.07,1.321 0.6,0.379 0.9,0.898 1.64,1.172 1.46,0.548 1.95,-1.038 3.18,-0.839 0.92,0.149 1.41,0.799 2.01,1.397 0.22,-0.149 0.46,-0.262 0.74,-0.312 1.28,-0.235 2.37,0.544 3.43,1 0.31,0.131 0.62,0.239 0.93,0.322 1.13,-0.214 2.22,-0.531 3.41,-0.575 0.23,-0.008 0.49,0.061 0.76,0.18 1.2,-0.704 2.02,-1.837 3.44,-2.297 2.35,-0.754 4.39,1.273 6.74,1.061 1.21,-0.108 2.06,-0.72 2.88,-1.473 0.37,-0.341 0.96,-1.111 1.58,-1.196 1.25,-0.169 3.01,-0.183 4.15,0.228 0.68,0.243 1.11,0.746 1.87,0.829 1.52,0.165 1.47,-1.818 2.67,-1.98 1.5,-0.204 2.33,1.627 4,1.608 2.64,-0.029 4.09,-1.994 6.23,-2.843 1.03,-0.41 3.2,1.151 4.35,1.258 1.52,0.143 3.08,-1.188 4.65,-1.332 2.74,-0.251 4.95,2.328 7.48,0.006 0.73,-0.672 0.81,-1.722 1.43,-2.424 0.42,-0.482 2.35,1.094 2.86,1.14 0.8,0.074 1.64,-0.378 2.44,-0.394 1.13,-0.022 2.11,0.38 3.21,0.47 -0.87,-3.499 -5.78,-10.139 -7.39,-12.241 -7.27,-9.511 -26.26,-23.489 -37.82,-26.795 -10.58,-3.022 -21.63,1.03 -29.95,7.566 -2.16,1.693 -3.1,4.578 -5.32,6.056 -4.34,2.891 -9.64,2.998 -14.23,5.292 -3.77,1.887 -5.21,6.825 -8.82,9.236 -1.41,0.938 -9.68,5.138 -13.88,7.492 z"
           style="fill:#926a41"
           id="path38" />
      </g>
      <g
         transform="matrix(0.9009,0,0,1.13968,-748.985,-439.406)"
         id="g44">
        <path
           d="m 1250.99,603.766 c -11.68,2.209 -18.88,11.509 -6.5,10.546 1.58,-0.123 2.77,1.431 4.44,1.785 1.09,0.232 2.44,0.46 3.48,0.207 0.91,-0.219 1.78,-0.914 2.86,-0.78 1.34,0.165 2.22,1.085 3.15,1.737 0.92,0.646 1.99,1.09 3.21,1.321 2.43,0.463 3.76,-0.892 5.93,-0.854 2.54,0.045 4.02,2.216 6.42,2.694 1.23,0.245 2.24,-0.006 3.26,-0.378 0.46,-0.169 1.26,-0.619 1.9,-0.515 1.29,0.209 3.04,0.681 4.07,1.321 0.6,0.379 0.9,0.898 1.64,1.172 1.46,0.548 1.95,-1.038 3.18,-0.839 0.92,0.149 1.41,0.799 2.01,1.397 0.22,-0.149 0.46,-0.262 0.74,-0.312 1.28,-0.235 2.37,0.544 3.43,1 0.31,0.131 0.62,0.239 0.93,0.322 1.13,-0.214 2.22,-0.531 3.41,-0.575 0.23,-0.008 0.49,0.061 0.76,0.18 1.2,-0.704 2.02,-1.837 3.44,-2.297 2.35,-0.754 4.39,1.273 6.74,1.061 1.21,-0.108 2.06,-0.72 2.88,-1.473 0.37,-0.341 0.96,-1.111 1.58,-1.196 1.25,-0.169 3.01,-0.183 4.15,0.228 0.68,0.243 1.11,0.746 1.87,0.829 1.52,0.165 1.47,-1.818 2.67,-1.98 1.5,-0.204 2.33,1.627 4,1.608 2.64,-0.029 4.09,-1.994 6.23,-2.843 1.03,-0.41 3.2,1.151 4.35,1.258 1.52,0.143 3.08,-1.188 4.65,-1.332 2.74,-0.251 4.95,2.328 7.48,0.006 0.73,-0.672 0.81,-1.722 1.43,-2.424 0.42,-0.482 2.35,1.094 2.86,1.14 0.8,0.074 1.64,-0.378 2.44,-0.394 1.13,-0.022 2.11,0.38 3.21,0.47 -0.87,-3.499 -5.78,-10.139 -7.39,-12.241 -7.27,-9.511 -26.26,-23.489 -37.82,-26.795 -10.58,-3.022 -21.63,1.03 -29.95,7.566 -2.16,1.693 -3.1,4.578 -5.32,6.056 -4.34,2.891 -6.54,6.8 -11.13,9.094 -3.77,1.887 -12.42,3.422 -16.69,4.23 z"
           style="fill:#926a41"
           id="path42" />
      </g>
      <g
         transform="translate(-30.7923,-302.235)"
         id="g48">
        <path
           d="m 1373.37,639.469 c -2.11,-0.526 -4.46,-2.246 -6.23,-3.817 -0.76,-0.682 -1.48,-2.698 -1.48,-2.698 0,0 -0.86,1.597 -1.21,2.429 -0.39,0.894 -1.35,4.417 -2.57,4.722 -0.48,0.121 -2.77,-4.512 -2.83,-4.453 -1.07,1.069 -1.66,4.306 -4.05,3.508 -0.54,-0.179 -0.95,-2.29 -1.35,-2.158 -0.79,0.262 -0.92,1.565 -1.89,1.889 -1.25,0.418 -1.79,-0.493 -2.69,-0.945 -0.71,-0.354 -1.16,0.81 -1.89,0.81"
           style="fill:none;stroke:#051372;stroke-width:1px"
           id="path46" />
      </g>
      <g
         transform="translate(-310.591,-159.552)"
         id="g52">
        <path
           d="m 1373.37,639.469 c -2.11,-0.526 -4.46,-2.246 -6.23,-3.817 -0.76,-0.682 -1.48,-2.698 -1.48,-2.698 0,0 -0.86,1.597 -1.21,2.429 -0.39,0.894 -1.35,4.417 -2.57,4.722 -0.48,0.121 -2.77,-4.512 -2.83,-4.453 -1.07,1.069 -1.66,4.306 -4.05,3.508 -0.54,-0.179 -0.95,-2.29 -1.35,-2.158 -0.79,0.262 -0.92,1.565 -1.89,1.889 -1.25,0.418 -1.79,-0.493 -2.69,-0.945 -0.71,-0.354 -1.16,0.81 -1.89,0.81"
           style="fill:none;stroke:#051372;stroke-width:1px"
           id="path50" />
      </g>
      <g
         transform="matrix(1.76526,0,0,0.996224,-1757.59,-82.5585)"
         id="g56">
        <path
           d="m 1373.37,639.469 c -2.11,-0.526 -4.46,-2.246 -6.23,-3.817 -0.76,-0.682 -1.48,-2.698 -1.48,-2.698 0,0 -0.86,1.597 -1.21,2.429 -0.39,0.894 -1.35,4.417 -2.57,4.722 -0.48,0.121 -2.77,-4.512 -2.83,-4.453 -1.07,1.069 -1.66,4.306 -4.05,3.508 -0.54,-0.179 -0.95,-2.29 -1.35,-2.158 -0.79,0.262 -0.92,1.565 -1.89,1.889 -1.25,0.418 -1.79,-0.493 -2.69,-0.945 -0.71,-0.354 -1.16,0.81 -1.89,0.81"
           style="fill:none;stroke:#051372;stroke-width:0.7px"
           id="path54" />
      </g>
      <g
         transform="matrix(1.76526,0,0,0.996224,-917.153,-102.474)"
         id="g60">
        <path
           d="m 1373.37,639.469 c -2.11,-0.526 -4.46,-2.246 -6.23,-3.817 -0.76,-0.682 -1.48,-2.698 -1.48,-2.698 0,0 -0.86,1.597 -1.21,2.429 -0.39,0.894 -1.35,4.417 -2.57,4.722 -0.48,0.121 -2.77,-4.512 -2.83,-4.453 -1.07,1.069 -1.66,4.306 -4.05,3.508 -0.54,-0.179 -0.95,-2.29 -1.35,-2.158 -0.79,0.262 -0.92,1.565 -1.89,1.889 -1.25,0.418 -1.79,-0.493 -2.69,-0.945 -0.71,-0.354 -1.16,0.81 -1.89,0.81"
           style="fill:none;stroke:#051372;stroke-width:0.7px"
           id="path58" />
      </g>
      <g
         transform="translate(-531.861,-466.949)"
         id="g64">
        <path
           d="m 1373.37,639.469 c -2.11,-0.526 -4.46,-2.246 -6.23,-3.817 -0.76,-0.682 -1.48,-2.698 -1.48,-2.698 0,0 -0.86,1.597 -1.21,2.429 -0.39,0.894 -1.35,4.417 -2.57,4.722 -0.48,0.121 -2.77,-4.512 -2.83,-4.453 -1.07,1.069 -1.66,4.306 -4.05,3.508 -0.54,-0.179 -0.95,-2.29 -1.35,-2.158 -0.79,0.262 -0.92,1.565 -1.89,1.889 -1.25,0.418 -1.79,-0.493 -2.69,-0.945 -0.71,-0.354 -1.16,0.81 -1.89,0.81"
           style="fill:none;stroke:#051372;stroke-width:1px"
           id="path62" />
      </g>
      <g
         transform="translate(-540.889,-309.009)"
         id="g68">
        <path
           d="m 1373.37,639.469 c -2.11,-0.526 -4.46,-2.246 -6.23,-3.817 -0.76,-0.682 -1.48,-2.698 -1.48,-2.698 0,0 -0.86,1.597 -1.21,2.429 -0.39,0.894 -1.35,4.417 -2.57,4.722 -0.48,0.121 -2.77,-4.512 -2.83,-4.453 -1.07,1.069 -1.66,4.306 -4.05,3.508 -0.54,-0.179 -0.95,-2.29 -1.35,-2.158 -0.79,0.262 -0.92,1.565 -1.89,1.889 -1.25,0.418 -1.79,-0.493 -2.69,-0.945 -0.71,-0.354 -1.16,0.81 -1.89,0.81"
           style="fill:none;stroke:#051372;stroke-width:1px"
           id="path66" />
      </g>
      <g
         transform="translate(-880.069,-400.756)"
         id="g72">
        <path
           d="m 1373.37,639.469 c -2.11,-0.526 -4.46,-2.246 -6.23,-3.817 -0.76,-0.682 -1.48,-2.698 -1.48,-2.698 0,0 -0.86,1.597 -1.21,2.429 -0.39,0.894 -1.35,4.417 -2.57,4.722 -0.48,0.121 -2.77,-4.512 -2.83,-4.453 -1.07,1.069 -1.66,4.306 -4.05,3.508 -0.54,-0.179 -0.95,-2.29 -1.35,-2.158 -0.79,0.262 -0.92,1.565 -1.89,1.889 -1.25,0.418 -1.79,-0.493 -2.69,-0.945 -0.71,-0.354 -1.16,0.81 -1.89,0.81"
           style="fill:none;stroke:#051372;stroke-width:1px"
           id="path70" />
      </g>
      <g
         transform="translate(-37.0673,-281.572)"
         id="g76">
        <path
           d="m 1256.94,575.6 c -0.84,0.792 -5.37,-0.583 -5.96,-1.471 -0.5,-0.745 -0.81,-2.563 -0.81,-2.563 0,0 -0.31,1.186 -0.54,1.754 -0.37,0.917 -1.53,3.274 -2.7,3.508 -0.78,0.156 -1.68,-0.049 -2.29,-0.54 -0.38,-0.304 -0.81,-1.214 -0.81,-1.214 0,0 -1.33,2.11 -2.43,2.293 -1.8,0.301 -1.34,-1.069 -2.16,-1.889 -0.07,-0.074 -0.67,0.675 -0.81,0.81 -0.46,0.457 -0.98,0.702 -1.62,0.809 -1.06,0.177 -1.45,-1.585 -2.16,-1.349 -0.32,0.109 -1.75,1.331 -1.75,0.945"
           style="fill:none;stroke:#051372;stroke-width:1px"
           id="path74" />
      </g>
      <g
         transform="translate(269.834,-328.541)"
         id="g80">
        <path
           d="m 1256.94,575.6 c -0.84,0.792 -5.37,-0.583 -5.96,-1.471 -0.5,-0.745 -0.81,-2.563 -0.81,-2.563 0,0 -0.31,1.186 -0.54,1.754 -0.37,0.917 -1.53,3.274 -2.7,3.508 -0.78,0.156 -1.68,-0.049 -2.29,-0.54 -0.38,-0.304 -0.81,-1.214 -0.81,-1.214 0,0 -1.33,2.11 -2.43,2.293 -1.8,0.301 -1.34,-1.069 -2.16,-1.889 -0.07,-0.074 -0.67,0.675 -0.81,0.81 -0.46,0.457 -0.98,0.702 -1.62,0.809 -1.06,0.177 -1.45,-1.585 -2.16,-1.349 -0.32,0.109 -1.75,1.331 -1.75,0.945"
           style="fill:none;stroke:#051372;stroke-width:1px"
           id="path78" />
      </g>
      <g
         transform="translate(-146.78,-158.501)"
         id="g84">
        <path
           d="m 1256.94,575.6 c -0.84,0.792 -5.37,-0.583 -5.96,-1.471 -0.5,-0.745 -0.81,-2.563 -0.81,-2.563 0,0 -0.31,1.186 -0.54,1.754 -0.37,0.917 -1.53,3.274 -2.7,3.508 -0.78,0.156 -1.68,-0.049 -2.29,-0.54 -0.38,-0.304 -0.81,-1.214 -0.81,-1.214 0,0 -1.33,2.11 -2.43,2.293 -1.8,0.301 -1.34,-1.069 -2.16,-1.889 -0.07,-0.074 -0.67,0.675 -0.81,0.81 -0.46,0.457 -0.98,0.702 -1.62,0.809 -1.06,0.177 -1.45,-1.585 -2.16,-1.349 -0.32,0.109 -1.75,1.331 -1.75,0.945"
           style="fill:none;stroke:#051372;stroke-width:1px"
           id="path82" />
      </g>
      <g
         transform="matrix(1,0,0,1.44081,-212.156,-607.572)"
         id="g88">
        <path
           d="m 1256.94,575.6 c -0.84,0.792 -5.37,-0.583 -5.96,-1.471 -0.5,-0.745 -0.81,-2.563 -0.81,-2.563 0,0 -0.31,1.186 -0.54,1.754 -0.37,0.917 -1.53,3.274 -2.7,3.508 -0.78,0.156 -1.68,-0.049 -2.29,-0.54 -0.38,-0.304 -0.81,-1.214 -0.81,-1.214 0,0 -1.33,2.11 -2.43,2.293 -1.8,0.301 -1.34,-1.069 -2.16,-1.889 -0.07,-0.074 -0.67,0.675 -0.81,0.81 -0.46,0.457 -0.98,0.702 -1.62,0.809 -1.06,0.177 -1.45,-1.585 -2.16,-1.349 -0.32,0.109 -1.75,1.331 -1.75,0.945"
           style="fill:none;stroke:#051372;stroke-width:0.81px"
           id="path86" />
      </g>
      <g
         transform="matrix(-1,0,0,1,2101.5,-198.732)"
         id="g92">
        <path
           d="m 1256.94,575.6 c -0.84,0.792 -5.37,-0.583 -5.96,-1.471 -0.5,-0.745 -0.81,-2.563 -0.81,-2.563 0,0 -0.31,1.186 -0.54,1.754 -0.37,0.917 -1.53,3.274 -2.7,3.508 -0.78,0.156 -1.68,-0.049 -2.29,-0.54 -0.38,-0.304 -0.81,-1.214 -0.81,-1.214 0,0 -1.33,2.11 -2.43,2.293 -1.8,0.301 -1.34,-1.069 -2.16,-1.889 -0.07,-0.074 -0.67,0.675 -0.81,0.81 -0.46,0.457 -0.98,0.702 -1.62,0.809 -1.06,0.177 -1.45,-1.585 -2.16,-1.349 -0.32,0.109 -1.75,1.331 -1.75,0.945"
           style="fill:none;stroke:#051372;stroke-width:1px"
           id="path90" />
      </g>
      <g
         transform="matrix(-1,0,0,1,1762.32,-290.479)"
         id="g96">
        <path
           d="m 1256.94,575.6 c -0.84,0.792 -5.37,-0.583 -5.96,-1.471 -0.5,-0.745 -0.81,-2.563 -0.81,-2.563 0,0 -0.31,1.186 -0.54,1.754 -0.37,0.917 -1.53,3.274 -2.7,3.508 -0.78,0.156 -1.68,-0.049 -2.29,-0.54 -0.38,-0.304 -0.81,-1.214 -0.81,-1.214 0,0 -1.33,2.11 -2.43,2.293 -1.8,0.301 -1.34,-1.069 -2.16,-1.889 -0.07,-0.074 -0.67,0.675 -0.81,0.81 -0.46,0.457 -0.98,0.702 -1.62,0.809 -1.06,0.177 -1.45,-1.585 -2.16,-1.349 -0.32,0.109 -1.75,1.331 -1.75,0.945"
           style="fill:none;stroke:#051372;stroke-width:1px"
           id="path94" />
      </g>
      <g
         transform="translate(9.63987,-308.536)"
         id="g100">
        <path
           d="m 1252.63,642.474 c -0.43,-1.08 -4.12,-1.45 -5.16,-2.369 -0.27,-0.243 -1.89,-3.505 -2.56,-2.833 -0.71,0.704 -0.09,2.782 -0.95,3.642 -1.03,1.029 -5.31,-1.724 -6.61,-2.158 -1.04,-0.349 -0.77,2.09 -1.62,2.428 -1.38,0.553 -2.98,-1.355 -4.18,-1.754 -0.91,-0.303 -1.45,0.742 -1.75,1.349 -0.13,0.251 -1.6,-0.622 -1.76,-0.674 -0.57,-0.19 -1.16,0.405 -1.75,0.405"
           style="fill:none;stroke:#051372;stroke-width:1px"
           id="path98" />
      </g>
      <g
         transform="translate(-286.36,-156.893)"
         id="g104">
        <path
           d="m 1252.63,642.474 c -0.43,-1.08 -4.12,-1.45 -5.16,-2.369 -0.27,-0.243 -1.89,-3.505 -2.56,-2.833 -0.71,0.704 -0.09,2.782 -0.95,3.642 -1.03,1.029 -5.31,-1.724 -6.61,-2.158 -1.04,-0.349 -0.77,2.09 -1.62,2.428 -1.38,0.553 -2.98,-1.355 -4.18,-1.754 -0.91,-0.303 -1.45,0.742 -1.75,1.349 -0.13,0.251 -1.6,-0.622 -1.76,-0.674 -0.57,-0.19 -1.16,0.405 -1.75,0.405"
           style="fill:none;stroke:#051372;stroke-width:1px"
           id="path102" />
      </g>
      <g
         transform="translate(-431.51,-48.4408)"
         id="g108">
        <path
           d="m 1252.63,642.474 c -0.43,-1.08 -4.12,-1.45 -5.16,-2.369 -0.27,-0.243 -1.89,-3.505 -2.56,-2.833 -0.71,0.704 -0.09,2.782 -0.95,3.642 -1.03,1.029 -5.31,-1.724 -6.61,-2.158 -1.04,-0.349 -0.77,2.09 -1.62,2.428 -1.38,0.553 -2.98,-1.355 -4.18,-1.754 -0.91,-0.303 -1.45,0.742 -1.75,1.349 -0.13,0.251 -1.6,-0.622 -1.76,-0.674 -0.57,-0.19 -1.16,0.405 -1.75,0.405"
           style="fill:none;stroke:#051372;stroke-width:1px"
           id="path106" />
      </g>
      <g
         transform="translate(408.923,-68.3562)"
         id="g112">
        <path
           d="m 1252.63,642.474 c -0.43,-1.08 -4.12,-1.45 -5.16,-2.369 -0.27,-0.243 -1.89,-3.505 -2.56,-2.833 -0.71,0.704 -0.09,2.782 -0.95,3.642 -1.03,1.029 -5.31,-1.724 -6.61,-2.158 -1.04,-0.349 -0.77,2.09 -1.62,2.428 -1.38,0.553 -2.98,-1.355 -4.18,-1.754 -0.91,-0.303 -1.45,0.742 -1.75,1.349 -0.13,0.251 -1.6,-0.622 -1.76,-0.674 -0.57,-0.19 -1.16,0.405 -1.75,0.405"
           style="fill:none;stroke:#051372;stroke-width:1px"
           id="path110" />
      </g>
      <g
         transform="translate(-8.60276,-338.11)"
         id="g116">
        <path
           d="m 1207.52,526.417 c 0.02,-0.022 0.03,-0.044 0.04,-0.066"
           style="fill:none"
           id="path114" />
      </g>
      <g
         transform="translate(298.299,-385.079)"
         id="g120">
        <path
           d="m 1207.52,526.417 c 0.02,-0.022 0.03,-0.044 0.04,-0.066"
           style="fill:none"
           id="path118" />
      </g>
      <g
         transform="translate(-30.7923,-302.235)"
         id="g124">
        <path
           d="m 1421.13,651.342 c -1.11,-0.898 -1.05,-2.079 0.14,-1.417"
           style="fill:none"
           id="path122" />
      </g>
      <g
         transform="translate(-11.2203,-340.441)"
         id="g128">
        <path
           d="m 1327.16,615.209 c 1.34,-0.035 -1.06,-5.656 -1.55,-6.806 -2.09,-4.876 -7.19,-11.963 -13.04,-12.613 -3.01,-0.335 -6.11,-0.061 -8.78,1.276 -1.22,0.608 -1.97,2.795 -2.7,3.826 -0.79,1.129 -2.72,2.014 -3.25,3.259 -1.02,2.375 -2.14,4.781 -3.12,7.086 -0.87,2.028 -2.55,3.933 -2.98,6.094 -0.25,1.281 2.48,0.314 3.26,0.425 1.54,0.219 2.74,1.243 4.11,1.7 1,0.334 2.5,-0.08 3.54,0 4.86,0.374 9.18,0.347 13.98,-1.397 1.88,-0.685 10.53,-2.85 10.53,-2.85 z"
           style="fill:#5a3614"
           id="path126" />
      </g>
      <g
         transform="rotate(5.0657974,5829.137,3697.4009)"
         id="g132">
        <path
           d="m 1327.16,615.209 c 1.34,-0.035 -1.06,-5.656 -1.55,-6.806 -2.09,-4.876 -7.19,-11.963 -13.04,-12.613 -3.01,-0.335 -13.31,0.648 -15.99,1.985 -1.21,0.608 -1.97,2.795 -2.69,3.826 -0.79,1.129 -2.73,2.014 -3.26,3.259 -1.02,2.375 -2.13,4.781 -3.12,7.086 -0.87,2.028 -2.54,3.932 -2.97,6.094 -0.26,1.281 2.48,0.314 3.26,0.425 1.53,0.219 2.74,1.243 4.11,1.7 1,0.334 2.5,-0.08 3.54,0 4.85,0.374 16.38,-0.362 21.18,-2.106 1.88,-0.685 10.53,-2.85 10.53,-2.85 z"
           style="fill:#5a3614"
           id="path130" />
      </g>
      <g
         transform="translate(-288.977,-159.224)"
         id="g136">
        <path
           d="m 1327.16,615.209 c 1.34,-0.035 -1.06,-5.656 -1.55,-6.806 -2.09,-4.876 -7.19,-11.963 -13.04,-12.613 -3.01,-0.335 -6.11,-0.061 -8.78,1.276 -1.22,0.608 -1.97,2.795 -2.7,3.826 -0.79,1.129 -2.72,2.014 -3.25,3.259 -1.02,2.375 -2.14,4.781 -3.12,7.086 -0.87,2.028 -2.55,3.933 -2.98,6.094 -0.25,1.281 2.48,0.314 3.26,0.425 1.54,0.219 2.74,1.243 4.11,1.7 1,0.334 2.5,-0.08 3.54,0 4.86,0.374 9.18,0.347 13.98,-1.397 1.88,-0.685 10.53,-2.85 10.53,-2.85 z"
           style="fill:#5a3614"
           id="path134" />
      </g>
      <g
         transform="translate(-597.711,-25.9643)"
         id="g140">
        <path
           d="m 1327.16,615.209 c 1.34,-0.035 -1.06,-5.656 -1.55,-6.806 -2.09,-4.876 -7.19,-11.963 -13.04,-12.613 -3.01,-0.335 -6.11,-0.061 -8.78,1.276 -1.22,0.608 -1.97,2.795 -2.7,3.826 -0.79,1.129 -2.72,2.014 -3.25,3.259 -1.02,2.375 -2.14,4.781 -3.12,7.086 -0.87,2.028 -2.55,3.933 -2.98,6.094 -0.25,1.281 2.48,0.314 3.26,0.425 1.54,0.219 2.74,1.243 4.11,1.7 1,0.334 2.5,-0.08 3.54,0 4.86,0.374 9.18,0.347 13.98,-1.397 1.88,-0.685 10.53,-2.85 10.53,-2.85 z"
           style="fill:#5a3614"
           id="path138" />
      </g>
      <g
         transform="translate(242.723,-45.8798)"
         id="g144">
        <path
           d="m 1324.86,619.649 c 0.49,3.279 -0.41,-7.054 -0.91,-8.204 -2.09,-4.876 -6.99,-12.931 -12.84,-13.58 -3.01,-0.336 -4.65,-2.136 -7.32,-0.799 -1.22,0.608 -1.97,2.795 -2.7,3.826 -0.79,1.129 -2.72,2.014 -3.25,3.259 -1.02,2.375 -2.14,4.781 -3.12,7.086 -0.87,2.028 -2.55,3.933 -2.98,6.094 -0.25,1.281 2.48,0.314 3.26,0.425 1.54,0.219 2.74,1.243 4.11,1.7 1,0.334 2.5,-0.08 3.54,0 4.86,0.374 9.18,0.347 13.98,-1.397 1.88,-0.685 8.23,1.59 8.23,1.59 z"
           style="fill:#5a3614"
           id="path142" />
      </g>
      <g
         transform="matrix(1.11872,0,0,1.31982,-699.126,-662.414)"
         id="g148">
        <path
           d="m 1327.16,615.209 c 1.34,-0.035 -1.06,-5.656 -1.55,-6.806 -2.09,-4.876 -7.19,-11.963 -13.04,-12.613 -3.01,-0.335 -5.82,1.642 -8.78,1.276 -4.75,-0.586 -14.27,17.204 -12.05,20.265 0.77,1.056 2.48,0.314 3.26,0.425 1.54,0.219 2.74,1.243 4.11,1.7 1,0.334 2.5,-0.08 3.54,0 4.86,0.374 9.18,0.347 13.98,-1.397 1.88,-0.685 10.53,-2.85 10.53,-2.85 z"
           style="fill:#5a3614"
           id="path146" />
      </g>
      <g
         transform="translate(-533.784,-248.774)"
         id="g152">
        <path
           d="m 1327.16,615.209 c 1.34,-0.035 -1.06,-5.656 -1.55,-6.806 -2.09,-4.876 -7.19,-11.963 -13.04,-12.613 -3.01,-0.335 -6.11,-0.061 -8.78,1.276 -1.22,0.608 -1.97,2.795 -2.7,3.826 -0.79,1.129 -2.72,2.014 -3.25,3.259 -1.02,2.375 -2.14,4.781 -3.12,7.086 -0.87,2.028 -2.55,3.933 -2.98,6.094 -0.25,1.281 2.48,0.314 3.26,0.425 1.54,0.219 2.74,1.243 4.11,1.7 1,0.334 2.5,-0.08 3.54,0 4.86,0.374 9.18,0.347 13.98,-1.397 1.88,-0.685 10.53,-2.85 10.53,-2.85 z"
           style="fill:#5a3614"
           id="path150" />
      </g>
      <g
         transform="translate(-882.19,-357.447)"
         id="g156">
        <path
           d="m 1327.16,615.209 c 1.34,-0.035 -1.06,-5.656 -1.55,-6.806 -2.09,-4.876 -7.19,-11.963 -13.04,-12.613 -3.01,-0.335 -6.11,-0.061 -8.78,1.276 -1.22,0.608 -1.97,2.795 -2.7,3.826 -0.79,1.129 -2.72,2.014 -3.25,3.259 -1.02,2.375 -2.14,4.781 -3.12,7.086 -0.87,2.028 -2.55,3.933 -2.98,6.094 -0.25,1.281 2.48,0.314 3.26,0.425 1.54,0.219 2.74,1.243 4.11,1.7 1,0.334 2.5,-0.08 3.54,0 4.86,0.374 9.18,0.347 13.98,-1.397 1.88,-0.685 10.53,-2.85 10.53,-2.85 z"
           style="fill:#5a3614"
           id="path154" />
      </g>
      <g
         transform="translate(-8.60276,-338.11)"
         id="g160">
        <path
           d="m 1342.59,617.053 c 2.42,0.176 4.45,2.125 6.76,0.011 0.73,-0.672 0.81,-1.722 1.43,-2.424 0.42,-0.482 2.35,1.094 2.86,1.14 0.8,0.074 1.64,-0.378 2.44,-0.394 1.13,-0.022 2.11,0.38 3.21,0.47 -0.87,-3.499 -5.78,-10.139 -7.39,-12.241 -7.27,-9.511 -26.26,-23.489 -37.82,-26.795 -8.07,-2.305 -16.42,-0.494 -23.61,3.395 2.57,-0.034 5.12,1.54 7.73,1.016 19.49,-3.9 34.46,13.758 39.62,25.195 0.83,1.85 3.36,6.746 4.77,10.627 z"
           style="fill:#968069"
           id="path158" />
      </g>
      <g
         transform="translate(298.299,-385.079)"
         id="g164">
        <path
           d="m 1342.59,617.053 c 2.42,0.176 4.45,2.125 6.76,0.011 0.73,-0.672 0.81,-1.722 1.43,-2.424 0.42,-0.482 2.35,1.094 2.86,1.14 0.8,0.074 1.64,-0.378 2.44,-0.394 1.13,-0.022 2.11,0.38 3.21,0.47 -0.87,-3.499 -5.78,-10.139 -7.39,-12.241 -7.27,-9.511 -26.26,-23.489 -37.82,-26.795 -8.07,-2.305 -16.42,-0.494 -23.61,3.395 2.57,-0.034 5.12,1.54 7.73,1.016 19.49,-3.9 34.46,13.758 39.62,25.195 0.83,1.85 3.36,6.746 4.77,10.627 z"
           style="fill:#968069"
           id="path162" />
      </g>
      <g
         transform="matrix(0.883749,0,0,1,-128.341,-156.893)"
         id="g168">
        <path
           d="m 1342.59,617.053 c 2.42,0.176 4.45,2.125 6.76,0.011 0.73,-0.672 0.81,-1.722 1.43,-2.424 0.42,-0.482 2.35,1.094 2.86,1.14 0.8,0.074 1.64,-0.378 2.44,-0.394 1.13,-0.022 2.11,0.38 3.21,0.47 -0.87,-3.499 -5.78,-10.139 -7.39,-12.241 -7.27,-9.511 -26.26,-23.489 -37.82,-26.795 -8.07,-2.305 -16.42,-0.494 -23.61,3.395 2.57,-0.034 5.12,1.54 7.73,1.016 19.49,-3.9 34.46,13.758 39.62,25.195 0.83,1.85 3.36,6.746 4.77,10.627 z"
           style="fill:#968069"
           id="path166" />
      </g>
      <g
         transform="matrix(0.883749,0,0,1,-437.245,-24.2202)"
         id="g172">
        <path
           d="m 1342.59,617.053 c 2.42,0.176 4.45,2.125 6.76,0.011 0.73,-0.672 0.81,-1.722 1.43,-2.424 0.42,-0.482 2.35,1.094 2.86,1.14 0.8,0.074 1.64,-0.378 2.44,-0.394 1.13,-0.022 2.11,0.38 3.21,0.47 -0.87,-3.499 -5.78,-10.139 -7.39,-12.241 -7.27,-9.511 -26.26,-23.489 -37.82,-26.795 -8.07,-2.305 -29.45,-3.612 -36.64,0.278 2.58,-0.034 8.17,5.594 20.76,4.133 19.81,-2.297 34.46,13.758 39.62,25.195 0.83,1.85 3.36,6.746 4.77,10.627 z"
           style="fill:#968069"
           id="path170" />
      </g>
      <g
         transform="matrix(0.618502,0,0,0.836383,763.737,56.9866)"
         id="g176">
        <path
           d="m 1342.59,617.053 c 2.42,0.176 4.45,2.125 6.76,0.011 0.73,-0.672 0.81,-1.722 1.43,-2.424 0.42,-0.482 2.35,1.094 2.86,1.14 0.8,0.074 1.64,-0.378 2.44,-0.394 1.13,-0.022 2.11,0.38 3.21,0.47 -0.87,-3.499 -5.78,-10.139 -7.39,-12.241 -7.27,-9.511 -26.26,-23.489 -37.82,-26.795 -8.07,-2.305 -29.45,-3.612 -36.64,0.278 2.58,-0.034 8.17,5.594 20.76,4.133 19.81,-2.297 34.46,13.758 39.62,25.195 0.83,1.85 3.36,6.746 4.77,10.627 z"
           style="fill:#968069"
           id="path174" />
      </g>
      <g
         transform="matrix(0.809646,0,0,1.12391,-283.038,-538.397)"
         id="g180">
        <path
           d="m 1342.59,617.053 c 2.42,0.176 4.45,2.125 6.76,0.011 0.73,-0.672 0.81,-1.722 1.43,-2.424 0.42,-0.482 2.35,1.094 2.86,1.14 0.8,0.074 1.64,-0.378 2.44,-0.394 1.13,-0.022 2.11,0.38 3.21,0.47 -0.87,-3.499 -5.78,-10.139 -7.39,-12.241 -7.27,-9.511 -26.26,-23.489 -37.82,-26.795 -8.07,-2.305 -15.72,1.951 -22.91,5.841 2.58,-0.034 5.12,1.54 7.73,1.016 19.49,-3.9 33.76,11.312 38.92,22.749 0.83,1.85 3.36,6.746 4.77,10.627 z"
           style="fill:#968069"
           id="path178" />
      </g>
      <g
         transform="matrix(0.883749,0,0,1.13968,-377.266,-330.733)"
         id="g184">
        <path
           d="m 1342.59,617.053 c 2.42,0.176 4.45,2.125 6.76,0.011 0.73,-0.672 0.81,-1.722 1.43,-2.424 0.42,-0.482 2.35,1.094 2.86,1.14 0.8,0.074 1.64,-0.378 2.44,-0.394 1.13,-0.022 2.11,0.38 3.21,0.47 -0.87,-3.499 -5.78,-10.139 -7.39,-12.241 -7.27,-9.511 -26.26,-23.489 -37.82,-26.795 -8.07,-2.305 -16.42,-0.494 -23.61,3.395 2.57,-0.034 5.12,1.54 7.73,1.016 19.49,-3.9 34.46,13.758 39.62,25.195 0.83,1.85 3.36,6.746 4.77,10.627 z"
           style="fill:#968069"
           id="path182" />
      </g>
      <g
         transform="matrix(0.676709,0,0,0.928196,-444.244,-308.698)"
         id="g188">
        <path
           d="m 1339.86,617.593 c 2.42,0.176 7.18,1.585 9.49,-0.529 0.73,-0.672 0.95,-1.354 0.85,-2.184 -0.06,-0.481 4.04,1.686 4.44,0.992 0.69,-1.196 3.76,-1.16 5.41,0.392 -0.87,-3.499 -6.72,-10.422 -8.15,-12.649 -7.21,-11.24 -33.24,-30.864 -44.86,-32.513 -8.31,-1.178 25.62,23.887 30.78,35.324 0.83,1.85 0.63,7.285 2.04,11.167 z"
           style="fill:#968069"
           id="path186" />
      </g>
      <g
         transform="matrix(-1,0,0,1,2331.18,-155.293)"
         id="g192">
        <path
           d="m 1340.5,607.513 c 0.07,-2 -2.52,-3.984 -3.76,-5.299 -3.54,-3.763 -7.73,-6.997 -12.23,-9.531 -1.6,-0.899 -6.62,-5.051 -8.25,-5.868"
           style="fill:none;stroke:#5a3614;stroke-width:1px"
           id="path190" />
      </g>
      <g
         transform="matrix(-1,0,0,1,2022.45,-22.0327)"
         id="g196">
        <path
           d="m 1340.5,607.513 c 0.07,-2 -2.52,-3.984 -3.76,-5.299 -3.54,-3.763 -7.73,-6.997 -12.23,-9.531 -1.6,-0.899 -6.62,-5.051 -8.25,-5.868"
           style="fill:none;stroke:#5a3614;stroke-width:1px"
           id="path194" />
      </g>
      <g
         transform="matrix(-1,0,0,1,2862.88,-41.9481)"
         id="g200">
        <path
           d="m 1340.5,607.513 c 0.07,-2 -2.52,-3.984 -3.76,-5.299 -3.54,-3.763 -7.73,-6.997 -12.23,-9.531 -1.6,-0.899 -6.62,-5.051 -8.25,-5.868"
           style="fill:none;stroke:#5a3614;stroke-width:1px"
           id="path198" />
      </g>
      <g
         transform="matrix(-0.703612,0,0,0.701896,1614.28,160.55)"
         id="g204">
        <path
           d="m 1340.5,607.513 c 0.07,-2 -3.36,-3.538 -3.76,-5.299 -1.03,-4.566 -3.1,-8.477 -12.23,-9.531 -1.82,-0.21 -6.62,-5.051 -8.25,-5.868"
           style="fill:none;stroke:#5a3614;stroke-width:1.42px"
           id="path202" />
      </g>
      <g
         transform="matrix(-0.703612,0,0,0.701896,2454.71,140.634)"
         id="g208">
        <path
           d="m 1340.5,607.513 c 0.07,-2 -3.36,-3.538 -3.76,-5.299 -1.03,-4.566 -3.1,-8.477 -12.23,-9.531 -1.82,-0.21 -6.62,-5.051 -8.25,-5.868"
           style="fill:none;stroke:#5a3614;stroke-width:1.42px"
           id="path206" />
      </g>
      <g
         transform="matrix(-1.01428,0,0,0.956119,2098.65,-216.249)"
         id="g212">
        <path
           d="m 1340.5,607.513 c 0.07,-2 -2.52,-3.984 -3.76,-5.299 -3.54,-3.763 -7.73,-6.997 -12.23,-9.531 -1.6,-0.899 -6.62,-5.051 -8.25,-5.868"
           style="fill:none;stroke:#5a3614;stroke-width:1.01px"
           id="path210" />
      </g>
      <g
         transform="matrix(-1.01428,0,0,0.956119,1750.25,-324.922)"
         id="g216">
        <path
           d="m 1340.5,607.513 c 0.07,-2 -6.85,-3.981 -8.09,-5.295 -3.54,-3.764 -3.87,-5.936 -8.37,-8.47 -1.6,-0.898 -6.15,-6.116 -7.78,-6.933"
           style="fill:none;stroke:#5a3614;stroke-width:1.01px"
           id="path214" />
      </g>
      <g
         transform="translate(-8.60276,-338.11)"
         id="g220">
        <path
           d="m 1340.5,607.513 c 0.07,-2 -2.52,-3.984 -3.76,-5.299 -3.54,-3.763 -7.73,-6.997 -12.23,-9.531 -1.6,-0.899 -6.62,-5.051 -8.25,-5.868"
           style="fill:none;stroke:#5a3614;stroke-width:1px"
           id="path218" />
      </g>
      <g
         transform="translate(286.101,-384.876)"
         id="g224">
        <path
           d="m 1339.67,612.332 c 0.08,-2 -4.6,-6.097 -5.77,-9.719 -1.59,-4.917 -4.74,-5.801 -9.25,-8.334 -1.59,-0.899 -6.76,-6.647 -8.39,-7.464"
           style="fill:none;stroke:#5a3614;stroke-width:1px"
           id="path222" />
      </g>
      <g
         transform="translate(-11.2203,-340.441)"
         id="g228">
        <path
           d="m 1302.42,598.534 c -0.5,0.826 -4.05,4.372 -4.58,5.617 -1.02,2.375 -2.14,4.781 -3.12,7.086 -0.87,2.028 -2.55,3.933 -2.98,6.094 -0.25,1.281 2.48,0.314 3.26,0.425 1.54,0.219 2.74,1.243 4.11,1.7 1,0.334 2.5,-0.08 3.54,0 4.86,0.374 9.18,0.347 13.98,-1.397 0.55,-0.2 3.84,-1.226 5.17,-1.588 -1.27,-2.941 -1.67,-7.709 -3.68,-10.123 -2.66,-3.19 -5.83,-5.557 -8.93,-8.249 -1.01,-0.872 -5.56,1.01 -6.77,0.435 z"
           style="fill:#352e26"
           id="path226" />
      </g>
      <g
         transform="rotate(5.0657974,5829.137,3697.4009)"
         id="g232">
        <path
           d="m 1302.42,598.534 c -0.5,0.826 -10.39,4.397 -10.92,5.642 -1.02,2.375 -2.13,4.781 -3.12,7.086 -0.87,2.027 -2.54,3.932 -2.97,6.094 -0.26,1.281 2.48,0.314 3.26,0.425 1.53,0.219 2.73,1.243 4.11,1.7 1,0.333 8.83,-0.105 9.87,-0.025 4.86,0.374 9.18,0.347 13.98,-1.397 0.55,-0.2 3.84,-1.226 5.17,-1.588 -1.27,-2.941 -1.67,-7.709 -3.68,-10.123 -2.66,-3.19 -5.83,-5.557 -8.93,-8.249 -1.01,-0.872 -5.56,1.01 -6.77,0.435 z"
           style="fill:#352e26"
           id="path230" />
      </g>
      <g
         transform="translate(-288.977,-159.224)"
         id="g236">
        <path
           d="m 1302.42,598.534 c -0.5,0.826 -0.92,1.776 -1.33,2.358 -0.79,1.129 -2.72,2.014 -3.25,3.259 -1.02,2.375 -2.14,4.781 -3.12,7.086 -0.87,2.028 -2.55,3.933 -2.98,6.094 -0.25,1.281 2.48,0.314 3.26,0.425 1.54,0.219 2.74,1.243 4.11,1.7 1,0.334 2.5,-0.08 3.54,0 4.86,0.374 9.18,0.347 13.98,-1.397 0.55,-0.2 3.84,-1.226 5.17,-1.588 -1.27,-2.941 -1.67,-7.709 -3.68,-10.123 -2.66,-3.19 -5.83,-5.557 -8.93,-8.249 -1.01,-0.872 -5.56,1.01 -6.77,0.435 z"
           style="fill:#352e26"
           id="path234" />
      </g>
      <g
         transform="translate(-597.711,-25.9643)"
         id="g240">
        <path
           d="m 1302.42,598.534 c -4.03,-0.557 -13.12,15.507 -10.68,18.797 0.78,1.048 2.48,0.314 3.26,0.425 1.54,0.219 2.74,1.243 4.11,1.7 1,0.334 2.5,-0.08 3.54,0 4.86,0.374 9.18,0.347 13.98,-1.397 0.55,-0.2 3.84,-1.226 5.17,-1.588 -1.27,-2.941 -1.67,-7.709 -3.68,-10.123 -2.66,-3.19 -5.83,-5.557 -8.93,-8.249 -1.01,-0.872 -5.56,1.01 -6.77,0.435 z"
           style="fill:#352e26"
           id="path238" />
      </g>
      <g
         transform="translate(242.723,-45.8798)"
         id="g244">
        <path
           d="m 1302.42,598.534 c -4.03,-0.557 -13.12,15.507 -10.68,18.797 0.78,1.048 2.48,0.314 3.26,0.425 1.54,0.219 2.74,1.243 4.11,1.7 1,0.334 2.5,-0.08 3.54,0 4.86,0.374 9.18,0.347 13.98,-1.397 0.55,-0.2 -1.32,0.362 0,0 -1.27,-2.94 0.85,-7.211 -1.16,-9.625 -2.66,-3.19 -3.18,-7.643 -6.28,-10.335 -1.01,-0.872 -5.56,1.01 -6.77,0.435 z"
           style="fill:#352e26"
           id="path242" />
      </g>
      <g
         transform="matrix(1.11872,0,0,1.31982,-699.126,-662.414)"
         id="g248">
        <path
           d="m 1302.95,599.723 c -1.75,-0.472 -10.16,13.5 -9.34,16.654 0.33,1.264 0.61,1.268 1.39,1.379 1.54,0.219 2.74,1.243 4.11,1.7 1,0.334 2.5,-0.08 3.54,0 4.86,0.374 9.18,0.347 13.98,-1.397 0.55,-0.2 3.84,-1.226 5.17,-1.588 -1.27,-2.941 -0.43,-7.694 -2.45,-10.108 -2.66,-3.19 -4.48,-5.151 -7.59,-7.843 -1,-0.872 -7.61,1.778 -8.81,1.203 z"
           style="fill:#352e26"
           id="path246" />
      </g>
      <g
         transform="translate(-533.784,-248.774)"
         id="g252">
        <path
           d="m 1302.42,598.534 c -0.5,0.826 -0.92,1.776 -1.33,2.358 -0.79,1.129 -2.72,2.014 -3.25,3.259 -1.02,2.375 -2.14,4.781 -3.12,7.086 -0.87,2.028 -2.55,3.933 -2.98,6.094 -0.25,1.281 2.48,0.314 3.26,0.425 1.54,0.219 2.74,1.243 4.11,1.7 1,0.334 2.5,-0.08 3.54,0 4.86,0.374 9.18,0.347 13.98,-1.397 0.55,-0.2 3.84,-1.226 5.17,-1.588 -1.27,-2.941 -1.67,-7.709 -3.68,-10.123 -2.66,-3.19 -5.83,-5.557 -8.93,-8.249 -1.01,-0.872 -5.56,1.01 -6.77,0.435 z"
           style="fill:#352e26"
           id="path250" />
      </g>
      <g
         transform="translate(-882.19,-357.447)"
         id="g256">
        <path
           d="m 1302.42,598.534 c -0.5,0.826 -0.92,1.776 -1.33,2.358 -0.79,1.129 -2.72,2.014 -3.25,3.259 -1.02,2.375 -2.14,4.781 -3.12,7.086 -0.87,2.028 -2.55,3.933 -2.98,6.094 -0.25,1.281 2.48,0.314 3.26,0.425 1.54,0.219 2.74,1.243 4.11,1.7 1,0.334 2.5,-0.08 3.54,0 4.86,0.374 9.18,0.347 13.98,-1.397 0.55,-0.2 3.84,-1.226 5.17,-1.588 -1.27,-2.941 -1.67,-7.709 -3.68,-10.123 -2.66,-3.19 -5.83,-5.557 -8.93,-8.249 -1.01,-0.872 -5.56,1.01 -6.77,0.435 z"
           style="fill:#352e26"
           id="path254" />
      </g>
      <g
         transform="translate(-8.60276,-338.11)"
         id="g260">
        <path
           d="m 1233.2,624.755 c -0.03,0.105 -0.23,0.312 -0.23,0.148"
           style="fill:none"
           id="path258" />
      </g>
      <g
         transform="translate(298.299,-385.079)"
         id="g264">
        <path
           d="m 1233.2,624.755 c -0.03,0.105 -0.23,0.312 -0.23,0.148"
           style="fill:none"
           id="path262" />
      </g>
      <g
         transform="translate(-286.36,-156.893)"
         id="g268">
        <path
           d="m 1233.2,624.755 c -0.03,0.105 -0.23,0.312 -0.23,0.148"
           style="fill:none"
           id="path266" />
      </g>
      <g
         transform="translate(-595.093,-23.6334)"
         id="g272">
        <path
           d="m 1233.2,624.755 c -0.03,0.105 -0.23,0.312 -0.23,0.148"
           style="fill:none"
           id="path270" />
      </g>
      <g
         transform="translate(245.34,-43.5488)"
         id="g276">
        <path
           d="m 1233.2,624.755 c -0.03,0.105 -0.23,0.312 -0.23,0.148"
           style="fill:none"
           id="path274" />
      </g>
      <g
         transform="matrix(0.916149,0,0,1.12391,-459.889,-538.007)"
         id="g280">
        <path
           d="m 1233.2,624.755 c -0.03,0.105 -0.23,0.312 -0.23,0.148"
           style="fill:none"
           id="path278" />
      </g>
      <g
         transform="translate(-535.285,-243.627)"
         id="g284">
        <path
           d="m 1233.2,624.755 c -0.03,0.105 -0.23,0.312 -0.23,0.148"
           style="fill:none"
           id="path282" />
      </g>
      <g
         transform="translate(-883.691,-352.3)"
         id="g288">
        <path
           d="m 1233.2,624.755 c -0.03,0.105 -0.23,0.312 -0.23,0.148"
           style="fill:none"
           id="path286" />
      </g>
      <g
         transform="translate(-8.60276,-338.11)"
         id="g292">
        <path
           d="m 1307.99,623.784 c 0.09,0.013 0.26,0.08 0.26,0.08 0,0 -0.46,-0.334 -0.69,-0.518 -0.45,-0.378 -0.85,-0.913 -1.2,-1.381 -0.2,-0.263 -0.9,-2.343 -0.98,-2.302 -0.34,0.172 -0.55,0.733 -0.75,1.036 -0.43,0.646 -2.64,3.745 -3.68,2.187 -0.36,-0.536 -0.13,-1.743 -0.52,-2.129 -0.14,-0.136 -0.61,1.048 -0.63,1.093 -0.34,0.794 -0.63,1.907 -1.62,2.072 -1.15,0.192 -2.11,-0.951 -2.64,-1.842 -0.18,-0.304 -0.38,-0.853 -0.75,-0.978 -0.25,-0.083 -0.47,0.603 -0.52,0.748 -0.28,0.775 -0.85,2.068 -1.72,2.359 -1.53,0.508 -1.95,-2.061 -2.71,-2.819 -0.05,-0.056 -0.63,0.785 -0.69,0.863 -0.37,0.447 -1.12,1.448 -1.84,1.208 -1.24,-0.413 -0.95,-2.64 -2.07,-3.28 -1.16,-0.662 -2.16,2.294 -2.99,2.532 -1.01,0.288 -0.68,-2.081 -1.5,-2.244 -0.38,-0.076 -0.71,0.314 -1.04,0.46 -0.79,0.36 -1.94,1.179 -2.82,1.266 -0.22,0.023 -0.77,-0.008 -0.97,-0.057 -0.32,-0.075 -0.62,-0.216 -0.92,-0.345 -0.39,-0.165 -2.94,-1.294 -2.94,-1.036"
           style="fill:none;stroke:#051372;stroke-width:1px"
           id="path290" />
      </g>
      <g
         transform="translate(332.859,-369.636)"
         id="g296">
        <path
           d="m 1307.99,623.784 c 0.09,0.013 0.26,0.08 0.26,0.08 0,0 -0.46,-0.334 -0.69,-0.518 -0.45,-0.378 -0.85,-0.913 -1.2,-1.381 -0.2,-0.263 -0.9,-2.343 -0.98,-2.302 -0.34,0.172 -0.55,0.733 -0.75,1.036 -0.43,0.646 -2.64,3.745 -3.68,2.187 -0.36,-0.536 -0.13,-1.743 -0.52,-2.129 -0.14,-0.136 -0.61,1.048 -0.63,1.093 -0.34,0.794 -0.63,1.907 -1.62,2.072 -1.15,0.192 -2.11,-0.951 -2.64,-1.842 -0.18,-0.304 -0.38,-0.853 -0.75,-0.978 -0.25,-0.083 -0.47,0.603 -0.52,0.748 -0.28,0.775 -0.85,2.068 -1.72,2.359 -1.53,0.508 -1.95,-2.061 -2.71,-2.819 -0.05,-0.056 -0.63,0.785 -0.69,0.863 -0.37,0.447 -1.12,1.448 -1.84,1.208 -1.24,-0.413 -0.95,-2.64 -2.07,-3.28 -1.16,-0.662 -2.16,2.294 -2.99,2.532 -1.01,0.288 -0.68,-2.081 -1.5,-2.244 -0.38,-0.076 -0.71,0.314 -1.04,0.46 -0.79,0.36 -1.94,1.179 -2.82,1.266 -0.22,0.023 -0.77,-0.008 -0.97,-0.057 -0.32,-0.075 -0.62,-0.216 -0.92,-0.345 -0.39,-0.165 -2.94,-1.294 -2.94,-1.036"
           style="fill:none;stroke:#051372;stroke-width:1px"
           id="path294" />
      </g>
      <g
         transform="translate(-281.383,-156.628)"
         id="g300">
        <path
           d="m 1307.99,623.784 c 0.09,0.013 0.26,0.08 0.26,0.08 0,0 -0.46,-0.334 -0.69,-0.518 -0.45,-0.378 -0.85,-0.913 -1.2,-1.381 -0.2,-0.263 -0.9,-2.343 -0.98,-2.302 -0.34,0.172 -0.55,0.733 -0.75,1.036 -0.43,0.646 -2.64,3.745 -3.68,2.187 -0.36,-0.536 -0.13,-1.743 -0.52,-2.129 -0.14,-0.136 -0.61,1.048 -0.63,1.093 -0.34,0.794 -0.63,1.907 -1.62,2.072 -1.15,0.192 -2.11,-0.951 -2.64,-1.842 -0.18,-0.304 -0.38,-0.853 -0.75,-0.978 -0.25,-0.083 -0.47,0.603 -0.52,0.748 -0.28,0.775 -0.85,2.068 -1.72,2.359 -1.53,0.508 -1.95,-2.061 -2.71,-2.819 -0.05,-0.056 -0.63,0.785 -0.69,0.863 -0.37,0.447 -1.12,1.448 -1.84,1.208 -1.24,-0.413 -0.95,-2.64 -2.07,-3.28 -1.16,-0.662 -2.16,2.294 -2.99,2.532 -1.01,0.288 -0.68,-2.081 -1.5,-2.244 -0.38,-0.076 -0.71,0.314 -1.04,0.46 -0.79,0.36 -1.94,1.179 -2.82,1.266 -0.22,0.023 -0.77,-0.008 -0.97,-0.057 -0.32,-0.075 -0.62,-0.216 -0.92,-0.345 -0.39,-0.165 -2.94,-1.294 -2.94,-1.036"
           style="fill:none;stroke:#051372;stroke-width:1px"
           id="path298" />
      </g>
      <g
         transform="matrix(1.65965,0,0,1.05709,-1452.96,-57.2128)"
         id="g304">
        <path
           d="m 1307.99,623.784 c 0.09,0.013 0.26,0.08 0.26,0.08 0,0 -0.46,-0.334 -0.69,-0.518 -0.45,-0.378 -0.85,-0.913 -1.2,-1.381 -0.2,-0.263 -0.9,-2.343 -0.98,-2.302 -0.34,0.172 -0.55,0.733 -0.75,1.036 -0.43,0.646 -2.64,3.745 -3.68,2.187 -0.36,-0.536 -0.13,-1.743 -0.52,-2.129 -0.14,-0.136 -0.61,1.048 -0.63,1.093 -0.34,0.794 -0.63,1.907 -1.62,2.072 -1.15,0.192 -2.11,-0.951 -2.64,-1.842 -0.18,-0.304 -0.38,-0.853 -0.75,-0.978 -0.25,-0.083 -0.47,0.603 -0.52,0.748 -0.28,0.775 -0.85,2.068 -1.72,2.359 -1.53,0.508 -1.95,-2.061 -2.71,-2.819 -0.05,-0.056 -0.63,0.785 -0.69,0.863 -0.37,0.447 -1.12,1.448 -1.84,1.208 -1.24,-0.413 -0.95,-2.64 -2.07,-3.28 -1.16,-0.662 -2.16,2.294 -2.99,2.532 -1.01,0.288 -0.68,-2.081 -1.5,-2.244 -0.38,-0.076 -0.71,0.314 -1.04,0.46 -0.79,0.36 -1.94,1.179 -2.82,1.266 -0.22,0.023 -0.77,-0.008 -0.97,-0.057 -0.32,-0.075 -0.62,-0.216 -0.92,-0.345 -0.39,-0.165 -2.94,-1.294 -2.94,-1.036"
           style="fill:none;stroke:#051372;stroke-width:0.72px"
           id="path302" />
      </g>
      <g
         transform="matrix(1.65965,0,0,1.05709,-605.414,-65.715)"
         id="g308">
        <path
           d="m 1307.99,623.784 c 0.09,0.013 0.26,0.08 0.26,0.08 0,0 -0.46,-0.334 -0.69,-0.518 -0.45,-0.378 -0.85,-0.913 -1.2,-1.381 -0.2,-0.263 -0.9,-2.343 -0.98,-2.302 -0.34,0.172 -0.55,0.733 -0.75,1.036 -0.43,0.646 -2.64,3.745 -3.68,2.187 -0.36,-0.536 -0.13,-1.743 -0.52,-2.129 -0.14,-0.136 -0.61,1.048 -0.63,1.093 -0.34,0.794 -0.63,1.907 -1.62,2.072 -1.15,0.192 -2.11,-0.951 -2.64,-1.842 -0.18,-0.304 -0.38,-0.853 -0.75,-0.978 -0.25,-0.083 -0.47,0.603 -0.52,0.748 -0.28,0.775 -0.85,2.068 -1.72,2.359 -1.53,0.508 -1.95,-2.061 -2.71,-2.819 -0.05,-0.056 -0.63,0.785 -0.69,0.863 -0.37,0.447 -1.12,1.448 -1.84,1.208 -1.24,-0.413 -0.95,-2.64 -2.07,-3.28 -1.16,-0.662 -2.16,2.294 -2.99,2.532 -1.01,0.288 -0.68,-2.081 -1.5,-2.244 -0.38,-0.076 -0.71,0.314 -1.04,0.46 -0.79,0.36 -1.94,1.179 -2.82,1.266 -0.22,0.023 -0.77,-0.008 -0.97,-0.057 -0.32,-0.075 -0.62,-0.216 -0.92,-0.345 -0.39,-0.165 -2.94,-1.294 -2.94,-1.036"
           style="fill:none;stroke:#051372;stroke-width:0.72px"
           id="path306" />
      </g>
      <g
         transform="matrix(1.10829,0,0,0.959749,-652.808,-410.144)"
         id="g312">
        <path
           d="m 1307.99,623.784 c 0.09,0.013 0.26,0.08 0.26,0.08 0,0 -0.46,-0.334 -0.69,-0.518 -0.45,-0.378 -0.85,-0.913 -1.2,-1.381 -0.2,-0.263 -0.9,-2.343 -0.98,-2.302 -0.34,0.172 -0.55,0.733 -0.75,1.036 -0.43,0.646 -2.64,3.745 -3.68,2.187 -0.36,-0.536 -0.13,-1.743 -0.52,-2.129 -0.14,-0.136 -0.61,1.048 -0.63,1.093 -0.34,0.794 -0.63,1.907 -1.62,2.072 -1.15,0.192 -2.11,-0.951 -2.64,-1.842 -0.18,-0.304 -0.38,-0.853 -0.75,-0.978 -0.25,-0.083 -0.47,0.603 -0.52,0.748 -0.28,0.775 -0.85,2.068 -1.72,2.359 -1.53,0.508 -1.95,-2.061 -2.71,-2.819 -0.05,-0.056 -0.63,0.785 -0.69,0.863 -0.37,0.447 -1.12,1.448 -1.84,1.208 -1.24,-0.413 -0.95,-2.64 -2.07,-3.28 -1.16,-0.662 -2.16,2.294 -2.99,2.532 -1.01,0.288 -0.68,-2.081 -1.5,-2.244 -0.38,-0.076 -0.71,0.314 -1.04,0.46 -0.79,0.36 -1.94,1.179 -2.82,1.266 -0.22,0.023 -0.77,-0.008 -0.97,-0.057 -0.32,-0.075 -0.62,-0.216 -0.92,-0.345 -0.39,-0.165 -2.94,-1.294 -2.94,-1.036"
           style="fill:none;stroke:#051372;stroke-width:0.96px"
           id="path310" />
      </g>
      <g
         transform="translate(-508.461,-457.234)"
         id="g316">
        <path
           d="m 1237.23,621.396 c -0.42,-1.08 -4.12,-1.45 -5.15,-2.369 -0.28,-0.243 -1.9,-3.505 -2.57,-2.834 -0.7,0.705 -0.08,2.783 -0.94,3.643 -1.03,1.029 -5.31,-1.725 -6.61,-2.159 -1.05,-0.348 -0.78,2.091 -1.62,2.429 -1.39,0.553 -2.99,-1.355 -4.19,-1.754 -0.9,-0.303 -1.45,0.742 -1.75,1.349 -0.12,0.25 -1.6,-0.623 -1.75,-0.674 -0.57,-0.19 -1.17,0.404 -1.76,0.404"
           style="fill:none;stroke:#051372;stroke-width:1px"
           id="path314" />
      </g>
      <g
         transform="matrix(1.18806,0,0,1.07559,-819.643,-279.03)"
         id="g320">
        <path
           d="m 1307.99,623.784 c 0.09,0.013 0.26,0.08 0.26,0.08 0,0 -0.46,-0.334 -0.69,-0.518 -0.45,-0.378 -0.85,-0.913 -1.2,-1.381 -0.2,-0.263 -0.9,-2.343 -0.98,-2.302 -0.34,0.172 -0.55,0.733 -0.75,1.036 -0.43,0.646 -2.64,3.745 -3.68,2.187 -0.36,-0.536 -0.13,-1.743 -0.52,-2.129 -0.14,-0.136 -0.61,1.048 -0.63,1.093 -0.34,0.794 -0.63,1.907 -1.62,2.072 -1.15,0.192 -2.11,-0.951 -2.64,-1.842 -0.18,-0.304 -0.38,-0.853 -0.75,-0.978 -0.25,-0.083 -0.47,0.603 -0.52,0.748 -0.28,0.775 -0.85,2.068 -1.72,2.359 -1.53,0.508 -1.95,-2.061 -2.71,-2.819 -0.05,-0.056 -0.63,0.785 -0.69,0.863 -0.37,0.447 -1.12,1.448 -1.84,1.208 -1.24,-0.413 -0.95,-2.64 -2.07,-3.28 -1.16,-0.662 -2.16,2.294 -2.99,2.532 -1.01,0.288 -0.68,-2.081 -1.5,-2.244 -0.38,-0.076 -0.71,0.314 -1.04,0.46 -0.79,0.36 -1.94,1.179 -2.82,1.266 -0.22,0.023 -0.77,-0.008 -0.97,-0.057 -0.32,-0.075 -0.62,-0.216 -0.92,-0.345 -0.39,-0.165 -2.94,-1.294 -2.94,-1.036"
           style="fill:none;stroke:#051372;stroke-width:0.88px"
           id="path318" />
      </g>
      <g
         transform="matrix(1.18806,0,0,0.723012,-1084.79,-154.098)"
         id="g324">
        <path
           d="m 1307.99,623.784 c 0.09,0.013 0.26,0.08 0.26,0.08 0,0 -0.46,-0.334 -0.69,-0.518 -0.45,-0.378 -0.85,-0.913 -1.2,-1.381 -0.2,-0.263 -0.9,-2.343 -0.98,-2.302 -0.34,0.172 -0.55,0.733 -0.75,1.036 -0.43,0.646 -2.64,3.745 -3.68,2.187 -0.36,-0.536 -0.13,-1.743 -0.52,-2.129 -0.14,-0.136 -0.61,1.048 -0.63,1.093 -0.34,0.794 -0.63,1.907 -1.62,2.072 -1.15,0.192 -2.11,-0.951 -2.64,-1.842 -0.18,-0.304 -0.38,-0.853 -0.75,-0.978 -0.25,-0.083 -0.47,0.603 -0.52,0.748 -0.28,0.775 -0.85,2.068 -1.72,2.359 -1.53,0.508 -1.95,-2.061 -2.71,-2.819 -0.05,-0.056 -0.63,0.785 -0.69,0.863 -0.37,0.447 -1.12,1.448 -1.84,1.208 -1.24,-0.413 -0.95,-2.64 -2.07,-3.28 -1.16,-0.662 -2.16,2.294 -2.99,2.532 -1.01,0.288 -0.68,-2.081 -1.5,-2.244 -0.38,-0.076 -0.71,0.314 -1.04,0.46 -0.79,0.36 -1.94,1.179 -2.82,1.266 -0.22,0.023 -0.77,-0.008 -0.97,-0.057 -0.32,-0.075 -0.62,-0.216 -0.92,-0.345 -0.39,-0.165 -2.94,-1.294 -2.94,-1.036"
           style="fill:none;stroke:#051372;stroke-width:1.02px"
           id="path322" />
      </g>
      <g
         transform="translate(-91.6609,-277.824)"
         id="g328">
        <path
           d="m 603.795,754.601 c 1.473,-0.558 0.09,3.641 -0.452,5.052 -0.276,0.716 -2.127,3.035 -1.338,3.823 1.001,1.001 2.711,-1.511 4.085,-1.167 1.781,0.445 6.012,2.626 7.294,2.626 1.393,0 -1.477,-2.428 -1.75,-3.793 -0.666,-3.328 0.288,-4.361 -0.185,-7.67 z"
           style="fill:#926a41"
           id="path326" />
      </g>
      <g
         transform="matrix(0.553969,0,0,0.529567,309.376,-16.3875)"
         id="g332">
        <path
           d="m 399.653,844.155 c -2.269,-7.374 -22.273,-10.591 -20.005,-11.731 8.679,-4.366 -0.619,-22.385 -12.167,-23.347 -8.334,-0.695 -15.36,4.289 -15.455,12.824 -0.066,5.969 -4.383,-5.096 -9.152,-6.117 -6.883,-1.473 -12.039,9.867 -8.841,13.248 4.846,5.123 -26.832,2.918 -5.997,22.229 8.64,8.008 -2.086,22.672 1.959,25.554 3.338,2.379 8.695,4.875 11.838,6.577 12.403,6.718 63.139,0.612 60.528,-16.229 -0.788,-5.089 -9.807,-0.848 -10.862,-6.314 -1.276,-6.61 10.341,-9.584 8.154,-16.694 z"
           style="fill:#2b8d3f"
           id="path330" />
      </g>
      <g
         transform="matrix(0.202846,0.170037,-0.192073,0.229134,640.074,199.184)"
         id="g336">
        <path
           d="m 399.653,844.155 c -2.269,-7.374 -22.273,-10.591 -20.005,-11.731 8.679,-4.366 -0.619,-22.385 -12.167,-23.347 -8.334,-0.695 -15.36,4.289 -15.455,12.824 -0.066,5.969 -4.383,-5.096 -9.152,-6.117 -6.883,-1.473 -12.039,9.867 -8.841,13.248 4.846,5.123 -26.832,2.918 -5.997,22.229 8.64,8.008 -2.086,22.672 1.959,25.554 3.338,2.379 8.695,4.875 11.838,6.577 12.403,6.718 63.139,0.612 60.528,-16.229 -0.788,-5.089 -9.807,-0.848 -10.862,-6.314 -1.276,-6.61 10.341,-9.584 8.154,-16.694 z"
           style="fill:#3fc51e"
           id="path334" />
      </g>
      <g
         transform="matrix(0.202846,0.170037,-0.192073,0.229134,587.773,197.712)"
         id="g340">
        <path
           d="m 399.653,844.155 c -2.269,-7.374 -22.273,-10.591 -20.005,-11.731 8.679,-4.366 -0.619,-22.385 -12.167,-23.347 -8.334,-0.695 -15.36,4.289 -15.455,12.824 -0.066,5.969 -4.383,-5.096 -9.152,-6.117 -6.883,-1.473 -12.039,9.867 -8.841,13.248 4.846,5.123 -26.832,2.918 -5.997,22.229 8.64,8.008 -2.086,22.672 1.959,25.554 3.338,2.379 8.695,4.875 11.838,6.577 12.403,6.718 63.139,0.612 60.528,-16.229 -0.788,-5.089 -9.807,-0.848 -10.862,-6.314 -1.276,-6.61 10.341,-9.584 8.154,-16.694 z"
           style="fill:#3fc51e"
           id="path338" />
      </g>
      <g
         transform="translate(-71.4497,-284.763)"
         id="g344">
        <path
           d="m 605.475,753.344 c 1.472,-0.559 -0.5,7.187 -1.043,8.598 -0.275,0.717 6.275,0.839 7.649,1.183 1.781,0.445 -0.159,-6.344 -0.632,-9.653 z"
           style="fill:#926a41"
           id="path342" />
      </g>
      <g
         transform="translate(-66.5213,-280.127)"
         id="g348">
        <path
           d="m 624.373,750.122 c -10.376,-9.223 -26.603,-52.586 -26.414,-52.775 0.16,-0.16 -12.901,52.321 -13.747,53.46 -2.899,3.905 18.794,-1.826 40.161,-0.685 z"
           style="fill:#00500a"
           id="path346" />
      </g>
      <g
         transform="translate(-132.193,-291.971)"
         id="g352">
        <path
           d="m 605.663,753.846 c 0,0 -3.974,8.465 -2.902,8.159 2.325,-0.663 8.784,0 10.066,0 1.393,0 -2.186,-6.381 -2.3,-7.769 -0.117,-1.429 -4.277,0.895 -4.864,-0.39 z"
           style="fill:#926a41"
           id="path350" />
      </g>
      <g
         transform="translate(-127.265,-287.335)"
         id="g356">
        <path
           d="m 624.373,750.122 c -10.376,-9.223 -26.603,-52.586 -26.414,-52.775 0.16,-0.16 -12.901,52.321 -13.747,53.46 -2.899,3.905 18.794,-1.826 40.161,-0.685 z"
           style="fill:#00500a"
           id="path354" />
      </g>
      <g
         transform="translate(-86.8424,-270.517)"
         id="g360">
        <path
           d="m 624.373,750.122 c -10.376,-9.223 -26.603,-52.586 -26.414,-52.775 0.16,-0.16 -12.901,52.321 -13.747,53.46 -2.899,3.905 18.794,-1.826 40.161,-0.685 z"
           style="fill:#00500a"
           id="path358" />
      </g>
      <g
         transform="translate(460.414,-427.433)"
         id="g364">
        <path
           d="m 603.795,754.601 c 1.473,-0.558 0.09,3.641 -0.452,5.052 -0.276,0.716 -2.127,3.035 -1.338,3.823 1.001,1.001 2.711,-1.511 4.085,-1.167 1.781,0.445 6.012,2.626 7.294,2.626 1.393,0 -1.477,-2.428 -1.75,-3.793 -0.666,-3.328 0.288,-4.361 -0.185,-7.67 z"
           style="fill:#926a41"
           id="path362" />
      </g>
      <g
         transform="matrix(0.553969,0,0,0.529567,861.451,-165.997)"
         id="g368">
        <path
           d="m 399.653,844.155 c -2.269,-7.374 -22.273,-10.591 -20.005,-11.731 8.679,-4.366 -0.619,-22.385 -12.167,-23.347 -8.334,-0.695 -15.36,4.289 -15.455,12.824 -0.066,5.969 -4.383,-5.096 -9.152,-6.117 -6.883,-1.473 -12.039,9.867 -8.841,13.248 4.846,5.123 -26.832,2.918 -5.997,22.229 8.64,8.008 -2.086,22.672 1.959,25.554 3.338,2.379 8.695,4.875 11.838,6.577 12.403,6.718 63.139,0.612 60.528,-16.229 -0.788,-5.089 -9.807,-0.848 -10.862,-6.314 -1.276,-6.61 10.341,-9.584 8.154,-16.694 z"
           style="fill:#2b8d3f"
           id="path366" />
      </g>
      <g
         transform="matrix(0.210312,-0.160711,0.181538,0.237567,816.094,171.214)"
         id="g372">
        <path
           d="m 399.653,844.155 c -2.269,-7.374 -22.273,-10.591 -20.005,-11.731 8.679,-4.366 -0.619,-22.385 -12.167,-23.347 -8.334,-0.695 -15.36,4.289 -15.455,12.824 -0.066,5.969 -4.383,-5.096 -9.152,-6.117 -6.883,-1.473 -12.039,9.867 -8.841,13.248 4.846,5.123 -26.832,2.918 -5.997,22.229 8.64,8.008 -2.086,22.672 1.959,25.554 3.338,2.379 8.695,4.875 11.838,6.577 12.403,6.718 63.139,0.612 60.528,-16.229 -0.788,-5.089 -9.807,-0.848 -10.862,-6.314 -1.276,-6.61 10.341,-9.584 8.154,-16.694 z"
           style="fill:#3fc51e"
           id="path370" />
      </g>
      <g
         transform="matrix(0.210312,-0.160711,0.181538,0.237567,843.769,152.03)"
         id="g376">
        <path
           d="m 399.653,844.155 c -2.269,-7.374 -22.273,-10.591 -20.005,-11.731 8.679,-4.366 -0.619,-22.385 -12.167,-23.347 -8.334,-0.695 -15.36,4.289 -15.455,12.824 -0.066,5.969 -4.383,-5.096 -9.152,-6.117 -6.883,-1.473 -12.039,9.867 -8.841,13.248 4.846,5.123 -26.832,2.918 -5.997,22.229 8.64,8.008 -2.086,22.672 1.959,25.554 3.338,2.379 8.695,4.875 11.838,6.577 12.403,6.718 63.139,0.612 60.528,-16.229 -0.788,-5.089 -9.807,-0.848 -10.862,-6.314 -1.276,-6.61 10.341,-9.584 8.154,-16.694 z"
           style="fill:#3fc51e"
           id="path374" />
      </g>
      <g
         transform="translate(480.625,-434.372)"
         id="g380">
        <path
           d="m 605.475,753.344 c 1.472,-0.559 -0.5,7.187 -1.043,8.598 -0.275,0.717 6.275,0.839 7.649,1.183 1.781,0.445 -0.159,-6.344 -0.632,-9.653 z"
           style="fill:#926a41"
           id="path378" />
      </g>
      <g
         transform="translate(485.554,-429.737)"
         id="g384">
        <path
           d="m 624.373,750.122 c -10.376,-9.223 -26.603,-52.586 -26.414,-52.775 0.16,-0.16 -12.901,52.321 -13.747,53.46 -2.899,3.905 18.794,-1.826 40.161,-0.685 z"
           style="fill:#00500a"
           id="path382" />
      </g>
      <g
         transform="matrix(1.11652,0,0,1.11652,392.791,-508.73)"
         id="g388">
        <path
           d="m 624.373,750.122 c -10.376,-9.223 -26.603,-52.586 -26.414,-52.775 0.16,-0.16 -12.901,52.321 -13.747,53.46 -2.899,3.905 18.794,-1.826 40.161,-0.685 z"
           style="fill:#00500a"
           id="path386" />
      </g>
      <g
         transform="matrix(-1.06715,0,0,1.21004,1977.54,-368.995)"
         id="g392">
        <path
           d="m 603.795,754.601 c 1.473,-0.558 0.09,3.641 -0.452,5.052 -0.276,0.716 -2.127,3.035 -1.338,3.823 1.001,1.001 2.711,-1.511 4.085,-1.167 1.781,0.445 6.012,2.626 7.294,2.626 1.393,0 -1.477,-2.428 -1.75,-3.793 -0.666,-3.328 0.288,-4.361 -0.185,-7.67 z"
           style="fill:#926a41"
           id="path390" />
      </g>
      <g
         transform="matrix(-0.591166,0,0,0.640797,1549.58,-52.6473)"
         id="g396">
        <path
           d="m 399.653,844.155 c -2.269,-7.374 -22.273,-10.591 -20.005,-11.731 8.679,-4.366 -0.619,-22.385 -12.167,-23.347 -8.334,-0.695 -15.36,4.289 -15.455,12.824 -0.066,5.969 -4.383,-5.096 -9.152,-6.117 -6.883,-1.473 -12.039,9.867 -8.841,13.248 4.846,5.123 -26.832,2.918 -5.997,22.229 8.64,8.008 -2.086,22.672 1.959,25.554 3.338,2.379 8.695,4.875 11.838,6.577 12.403,6.718 63.139,0.612 60.528,-16.229 -0.788,-5.089 -9.807,-0.848 -10.862,-6.314 -1.276,-6.61 10.341,-9.584 8.154,-16.694 z"
           style="fill:#2b8d3f"
           id="path394" />
      </g>
      <g
         transform="matrix(-0.216466,0.205751,0.20497,0.277261,1196.67,208.203)"
         id="g400">
        <path
           d="m 399.653,844.155 c -2.269,-7.374 -22.273,-10.591 -20.005,-11.731 8.679,-4.366 -0.619,-22.385 -12.167,-23.347 -8.334,-0.695 -15.36,4.289 -15.455,12.824 -0.066,5.969 -4.383,-5.096 -9.152,-6.117 -6.883,-1.473 -12.039,9.867 -8.841,13.248 4.846,5.123 -26.832,2.918 -5.997,22.229 8.64,8.008 -2.086,22.672 1.959,25.554 3.338,2.379 8.695,4.875 11.838,6.577 12.403,6.718 63.139,0.612 60.528,-16.229 -0.788,-5.089 -9.807,-0.848 -10.862,-6.314 -1.276,-6.61 10.341,-9.584 8.154,-16.694 z"
           style="fill:#3fc51e"
           id="path398" />
      </g>
      <g
         transform="matrix(-1.06715,0,0,1.21004,1955.97,-377.392)"
         id="g404">
        <path
           d="m 605.475,753.344 c 1.472,-0.559 -0.5,7.187 -1.043,8.598 -0.275,0.717 6.275,0.839 7.649,1.183 1.781,0.445 -0.159,-6.344 -0.632,-9.653 z"
           style="fill:#926a41"
           id="path402" />
      </g>
      <g
         transform="matrix(-1.06715,0,0,1.21004,1950.71,-371.783)"
         id="g408">
        <path
           d="m 624.373,750.122 c -10.376,-9.223 -26.603,-52.586 -26.414,-52.775 0.16,-0.16 -12.901,52.321 -13.747,53.46 -2.899,3.905 18.794,-1.826 40.161,-0.685 z"
           style="fill:#00500a"
           id="path406" />
      </g>
      <g
         transform="matrix(-1.06715,0,0,1.21004,2007.33,-383.661)"
         id="g412">
        <path
           d="m 605.663,753.846 c 0,0 -3.974,8.465 -2.902,8.159 2.325,-0.663 8.784,0 10.066,0 1.393,0 -2.186,-6.381 -2.3,-7.769 -0.117,-1.429 -4.277,0.895 -4.864,-0.39 z"
           style="fill:#926a41"
           id="path410" />
      </g>
      <g
         transform="matrix(-1.06715,0,0,1.21004,2002.07,-378.052)"
         id="g416">
        <path
           d="m 624.373,750.122 c -10.376,-9.223 -26.603,-52.586 -26.414,-52.775 0.16,-0.16 -12.901,52.321 -13.747,53.46 -2.899,3.905 18.794,-1.826 40.161,-0.685 z"
           style="fill:#00500a"
           id="path414" />
      </g>
      <g
         transform="matrix(-1.06715,0,0,1.21004,1972.28,-362.002)"
         id="g420">
        <path
           d="m 624.373,750.122 c -10.376,-9.223 -26.603,-52.586 -26.414,-52.775 0.16,-0.16 -12.901,52.321 -13.747,53.46 -2.899,3.905 18.794,-1.826 40.161,-0.685 z"
           style="fill:#00500a"
           id="path418" />
      </g>
      <g
         transform="matrix(-1.06715,0,0,1.21004,1977.54,-368.995)"
         id="g424">
        <path
           d="m 603.795,754.601 c 1.473,-0.558 0.09,3.641 -0.452,5.052 -0.276,0.716 -2.127,3.035 -1.338,3.823 1.001,1.001 2.711,-1.511 4.085,-1.167 1.781,0.445 6.012,2.626 7.294,2.626 1.393,0 -1.477,-2.428 -1.75,-3.793 -0.666,-3.328 0.288,-4.361 -0.185,-7.67 z"
           style="fill:#926a41"
           id="path422" />
      </g>
      <g
         transform="matrix(-0.591166,0,0,0.640797,1549.58,-52.6473)"
         id="g428">
        <path
           d="m 399.653,844.155 c -2.269,-7.374 -22.273,-10.591 -20.005,-11.731 8.679,-4.366 -0.619,-22.385 -12.167,-23.347 -8.334,-0.695 -15.36,4.289 -15.455,12.824 -0.066,5.969 -4.383,-5.096 -9.152,-6.117 -6.883,-1.473 -12.039,9.867 -8.841,13.248 4.846,5.123 -26.832,2.918 -5.997,22.229 8.64,8.008 -2.086,22.672 1.959,25.554 3.338,2.379 8.695,4.875 11.838,6.577 12.403,6.718 63.139,0.612 60.528,-16.229 -0.788,-5.089 -9.807,-0.848 -10.862,-6.314 -1.276,-6.61 10.341,-9.584 8.154,-16.694 z"
           style="fill:#2b8d3f"
           id="path426" />
      </g>
      <g
         transform="matrix(-0.216466,0.205751,0.20497,0.277261,1196.67,208.203)"
         id="g432">
        <path
           d="m 399.653,844.155 c -2.269,-7.374 -22.273,-10.591 -20.005,-11.731 8.679,-4.366 -0.619,-22.385 -12.167,-23.347 -8.334,-0.695 -15.36,4.289 -15.455,12.824 -0.066,5.969 -4.383,-5.096 -9.152,-6.117 -6.883,-1.473 -12.039,9.867 -8.841,13.248 4.846,5.123 -26.832,2.918 -5.997,22.229 8.64,8.008 -2.086,22.672 1.959,25.554 3.338,2.379 8.695,4.875 11.838,6.577 12.403,6.718 63.139,0.612 60.528,-16.229 -0.788,-5.089 -9.807,-0.848 -10.862,-6.314 -1.276,-6.61 10.341,-9.584 8.154,-16.694 z"
           style="fill:#3fc51e"
           id="path430" />
      </g>
      <g
         transform="matrix(-1.06715,0,0,1.21004,1955.97,-377.392)"
         id="g436">
        <path
           d="m 605.475,753.344 c 1.472,-0.559 -0.5,7.187 -1.043,8.598 -0.275,0.717 6.275,0.839 7.649,1.183 1.781,0.445 -0.159,-6.344 -0.632,-9.653 z"
           style="fill:#926a41"
           id="path434" />
      </g>
      <g
         transform="matrix(-1.06715,0,0,1.21004,1950.71,-371.783)"
         id="g440">
        <path
           d="m 624.373,750.122 c -10.376,-9.223 -26.603,-52.586 -26.414,-52.775 0.16,-0.16 -12.901,52.321 -13.747,53.46 -2.899,3.905 18.794,-1.826 40.161,-0.685 z"
           style="fill:#00500a"
           id="path438" />
      </g>
      <g
         transform="matrix(-1.06715,0,0,1.21004,2007.33,-383.661)"
         id="g444">
        <path
           d="m 605.663,753.846 c 0,0 -3.974,8.465 -2.902,8.159 2.325,-0.663 8.784,0 10.066,0 1.393,0 -2.186,-6.381 -2.3,-7.769 -0.117,-1.429 -4.277,0.895 -4.864,-0.39 z"
           style="fill:#926a41"
           id="path442" />
      </g>
      <g
         transform="matrix(-1.06715,0,0,1.21004,2002.07,-378.052)"
         id="g448">
        <path
           d="m 624.373,750.122 c -10.376,-9.223 -26.603,-52.586 -26.414,-52.775 0.16,-0.16 -12.901,52.321 -13.747,53.46 -2.899,3.905 18.794,-1.826 40.161,-0.685 z"
           style="fill:#00500a"
           id="path446" />
      </g>
      <g
         transform="matrix(-1.06715,0,0,1.21004,1972.28,-362.002)"
         id="g452">
        <path
           d="m 624.373,750.122 c -10.376,-9.223 -26.603,-52.586 -26.414,-52.775 0.16,-0.16 -12.901,52.321 -13.747,53.46 -2.899,3.905 18.794,-1.826 40.161,-0.685 z"
           style="fill:#00500a"
           id="path450" />
      </g>
    </g>
  </g>
</svg>
