<?xml version="1.0" encoding="UTF-8" standalone="no"?>
<svg
   xmlns:dc="http://purl.org/dc/elements/1.1/"
   xmlns:cc="http://creativecommons.org/ns#"
   xmlns:rdf="http://www.w3.org/1999/02/22-rdf-syntax-ns#"
   xmlns:svg="http://www.w3.org/2000/svg"
   xmlns="http://www.w3.org/2000/svg"
   xmlns:sodipodi="http://sodipodi.sourceforge.net/DTD/sodipodi-0.dtd"
   xmlns:inkscape="http://www.inkscape.org/namespaces/inkscape"
   xml:space="preserve"
   width="36.976246mm"
   height="40mm"
   version="1.1"
   style="clip-rule:evenodd;fill-rule:evenodd;image-rendering:optimizeQuality;shape-rendering:geometricPrecision;text-rendering:geometricPrecision"
   viewBox="0 0 1455.8785 1575.2031"
   id="svg444"
   sodipodi:docname="2020-SI-01_explanation3-fra-compatible.svg"
   inkscape:version="1.0 (4035a4fb49, 2020-05-01)"><metadata
   id="metadata448"><rdf:RDF><cc:Work
       rdf:about=""><dc:format>image/svg+xml</dc:format><dc:type
         rdf:resource="http://purl.org/dc/dcmitype/StillImage" /><dc:title></dc:title></cc:Work></rdf:RDF></metadata><sodipodi:namedview
   units="mm"
   fit-margin-bottom="0"
   fit-margin-right="0"
   fit-margin-left="0"
   fit-margin-top="0"
   inkscape:document-rotation="0"
   pagecolor="#ffffff"
   bordercolor="#666666"
   borderopacity="1"
   objecttolerance="10"
   gridtolerance="10"
   guidetolerance="10"
   inkscape:pageopacity="0"
   inkscape:pageshadow="2"
   inkscape:window-width="1680"
   inkscape:window-height="987"
   id="namedview446"
   showgrid="false"
   inkscape:snap-global="true"
   inkscape:zoom="1.0027712"
   inkscape:cx="102.80614"
   inkscape:cy="104.50003"
   inkscape:window-x="-8"
   inkscape:window-y="222"
   inkscape:window-maximized="1"
   inkscape:current-layer="svg444" />
 <defs
   id="defs4">
  <style
   type="text/css"
   id="style2">
   <![CDATA[
    .str2 {stroke:#2B2A29;stroke-width:9.84252;stroke-linecap:round;stroke-linejoin:round}
    .str1 {stroke:#2B2A29;stroke-width:19.685;stroke-linecap:round;stroke-linejoin:round}
    .str0 {stroke:#2B2A29;stroke-width:39.3701;stroke-linecap:round;stroke-linejoin:round}
    .fil0 {fill:none}
    .fil1 {fill:#2B2A29}
    .fil3 {fill:#434242}
    .fil2 {fill:#748187}
    .fil7 {fill:#A75F4A}
    .fil4 {fill:#B0CB1F}
    .fil13 {fill:#B2B3B3}
    .fil8 {fill:#CC6F3C}
    .fil9 {fill:#EBECEC}
    .fil5 {fill:#FEFEFE}
    .fil11 {fill:#FFED00}
    .fil6 {fill:#0078BF}
    .fil10 {fill:#2B2A29;fill-rule:nonzero}
    .fil12 {fill:#FEFEFE;fill-rule:nonzero}
   ]]>
  </style>
 
   
   
  
   
   
   
   
  
  
  
  
  
  
  
  
  
  
  
  
  
  
  
  
  
  
  
  
  
  
  
  
  
  
  
  
  
  
  
  
  
  
  
  
  
  
  
  
  
  
  
  
  
  
  
  
  
  
  
  
  
  
  
  
  
  
  
  
  
  
  
  
  
  
  
  
  
  
  
  
  
  
  
  
  
  
  
  
  
  
  
  
  
  
  
  
  
  
  
  
  
  
  
  
  
  
  
  
  
  
  
  
  
  
  
  
  
  
  
  
  
  
  
  
  
  
  
  
  
  
  
  
  
 </defs>
 <path
   id="path13"
   d="m 45.554795,1432.5972 c 78.000005,-140 17,-122 258.000005,-177 221,-50 549,-22 772,16 105,18 323,-36 323,129 0,8 -2,4 4,8 z"
   class="fil1" /><g
   id="_1060349744"
   transform="translate(-4201.4452,-224.40281)">
   <path
   id="path43"
   d="m 4375,1730 c -32,-118 106,-27 28,2 -13,5 -26,9 -26,-20 m 5,56 c -43,0 -110,-122 28,-154 84,-19 93,169 15,161 -1,0 -46,-7 -43,-7 z"
   class="fil2" />
   <path
   id="path2317"
   d="m 4406.248,1591.3086 c -8.5738,-0.1177 -16.9932,1.9737 -24.6757,5.6914 -24.584,11.8966 -43.4703,38.7715 -54.4317,68.4668 -10.9613,29.6953 -14.1252,62.8503 -1.2422,88.6348 6.4416,12.8922 17.3362,23.6576 32.3438,29.5605 15.0076,5.9029 33.7352,7.1271 56.5039,3.0234 a 9.8424997,9.8424997 0 0 0 7.9394,-11.4316 9.8424997,9.8424997 0 0 0 -11.4316,-7.9394 c -20.2313,3.6463 -35.1599,2.2142 -45.8047,-1.9727 -10.6447,-4.1869 -17.3986,-10.945 -21.9414,-20.0371 -9.0857,-18.1843 -7.5621,-46.8418 2.1016,-73.0215 9.6636,-26.1797 27.3398,-49.2423 44.5371,-57.5644 8.5986,-4.1611 16.6142,-5.0541 25.0976,-2.0977 8.4835,2.9564 17.9761,10.2786 27.5371,24.793 a 9.843484,9.843484 0 0 0 0.029,0.045 c 9.3711,14.0565 18.3831,42.7015 18.8477,68.7168 0.2323,13.0076 -1.5847,25.366 -5.668,35.0703 -4.0832,9.7043 -10.0315,16.6708 -19.0781,20.8008 a 9.8424997,9.8424997 0 0 0 -4.8652,13.041 9.8424997,9.8424997 0 0 0 13.041,4.8652 c 13.9534,-6.37 23.5051,-17.9035 29.0469,-31.0742 5.5417,-13.1707 7.4747,-28.0623 7.207,-43.0547 -0.5352,-29.9703 -9.5154,-60.3086 -22.1348,-79.2539 -11.1861,-16.9757 -23.8142,-27.7744 -37.4863,-32.5391 -5.1288,-1.7873 -10.3283,-2.652 -15.4727,-2.7226 z"
   style="color:#000000;font-style:normal;font-variant:normal;font-weight:normal;font-stretch:normal;font-size:medium;line-height:normal;font-family:sans-serif;font-variant-ligatures:normal;font-variant-position:normal;font-variant-caps:normal;font-variant-numeric:normal;font-variant-alternates:normal;font-variant-east-asian:normal;font-feature-settings:normal;font-variation-settings:normal;text-indent:0;text-align:start;text-decoration:none;text-decoration-line:none;text-decoration-style:solid;text-decoration-color:#000000;letter-spacing:normal;word-spacing:normal;text-transform:none;writing-mode:lr-tb;direction:ltr;text-orientation:mixed;dominant-baseline:auto;baseline-shift:baseline;text-anchor:start;white-space:normal;shape-padding:0;shape-margin:0;inline-size:0;clip-rule:nonzero;display:inline;overflow:visible;visibility:visible;opacity:1;isolation:auto;mix-blend-mode:normal;color-interpolation:sRGB;color-interpolation-filters:linearRGB;solid-color:#000000;solid-opacity:1;vector-effect:none;fill:#2b2a29;fill-opacity:1;fill-rule:nonzero;stroke:none;stroke-width:19.685;stroke-linecap:round;stroke-linejoin:round;stroke-miterlimit:4;stroke-dasharray:none;stroke-dashoffset:0;stroke-opacity:1;color-rendering:auto;image-rendering:auto;shape-rendering:auto;text-rendering:auto;enable-background:accumulate;stop-color:#000000;stop-opacity:1" />
   <g
   style="opacity:1"
   id="g1991"><path
     id="path1993"
     d="m 4424,1723 c -102,63 -39,-154 8,-39 6,14 4,32 -8,39 z"
     style="color:#000000;font-style:normal;font-variant:normal;font-weight:normal;font-stretch:normal;font-size:medium;line-height:normal;font-family:sans-serif;font-variant-ligatures:normal;font-variant-position:normal;font-variant-caps:normal;font-variant-numeric:normal;font-variant-alternates:normal;font-variant-east-asian:normal;font-feature-settings:normal;font-variation-settings:normal;text-indent:0;text-align:start;text-decoration:none;text-decoration-line:none;text-decoration-style:solid;text-decoration-color:#000000;letter-spacing:normal;word-spacing:normal;text-transform:none;writing-mode:lr-tb;direction:ltr;text-orientation:mixed;dominant-baseline:auto;baseline-shift:baseline;text-anchor:start;white-space:normal;shape-padding:0;shape-margin:0;inline-size:0;clip-rule:nonzero;display:inline;overflow:visible;visibility:visible;isolation:auto;mix-blend-mode:normal;color-interpolation:sRGB;color-interpolation-filters:linearRGB;solid-color:#000000;solid-opacity:1;vector-effect:none;fill:#434242;fill-opacity:1;fill-rule:nonzero;stroke:none;stroke-width:9.84252;stroke-linecap:round;stroke-linejoin:round;stroke-miterlimit:4;stroke-dasharray:none;stroke-dashoffset:0;stroke-opacity:1;color-rendering:auto;image-rendering:auto;shape-rendering:auto;text-rendering:auto;enable-background:accumulate;stop-color:#000000;stop-opacity:1" /><path
     id="path1995"
     d="m 4400.6211,1644.9141 c -1.8484,0.02 -3.6673,0.2867 -5.4219,0.7988 -14.0365,4.0965 -23.119,20.0356 -27.8164,36.9726 -4.6974,16.9371 -5.1096,35.7616 4.375,47.6895 4.7423,5.964 12.3505,9.6099 21.5703,9.2383 9.1979,-0.3707 20.0195,-4.2671 33.168,-12.375 7.4722,-4.3669 11.6671,-12.0875 13.1016,-20.2637 1.4332,-8.1694 0.3055,-17.0007 -3.0606,-24.875 -6.0452,-14.7803 -12.4059,-24.5981 -19.3437,-30.584 -5.2084,-4.4937 -11.0272,-6.6618 -16.5723,-6.6015 z m 0.2676,9.7441 c 2.9559,-0.1206 6.0511,1.0113 9.875,4.3106 5.0985,4.3989 10.982,12.9466 16.6816,26.8925 a 4.921752,4.921752 0 0 0 0.031,0.078 c 2.6212,6.1161 3.4902,13.2684 2.4257,19.3359 -1.0644,6.0674 -3.8658,10.8397 -8.3828,13.4746 a 4.921752,4.921752 0 0 0 -0.1054,0.062 c -12.3091,7.6026 -21.8058,10.6958 -28.4805,10.9648 -6.6747,0.2691 -10.5119,-1.8038 -13.4727,-5.5273 -5.9216,-7.4471 -6.7713,-23.8726 -2.5937,-38.9355 4.1776,-15.063 13.2826,-27.8739 21.0898,-30.1524 0.9759,-0.2848 1.9464,-0.4637 2.9317,-0.5039 z"
     style="color:#000000;font-style:normal;font-variant:normal;font-weight:normal;font-stretch:normal;font-size:medium;line-height:normal;font-family:sans-serif;font-variant-ligatures:normal;font-variant-position:normal;font-variant-caps:normal;font-variant-numeric:normal;font-variant-alternates:normal;font-variant-east-asian:normal;font-feature-settings:normal;font-variation-settings:normal;text-indent:0;text-align:start;text-decoration:none;text-decoration-line:none;text-decoration-style:solid;text-decoration-color:#000000;letter-spacing:normal;word-spacing:normal;text-transform:none;writing-mode:lr-tb;direction:ltr;text-orientation:mixed;dominant-baseline:auto;baseline-shift:baseline;text-anchor:start;white-space:normal;shape-padding:0;shape-margin:0;inline-size:0;clip-rule:nonzero;display:inline;overflow:visible;visibility:visible;isolation:auto;mix-blend-mode:normal;color-interpolation:sRGB;color-interpolation-filters:linearRGB;solid-color:#000000;solid-opacity:1;vector-effect:none;fill:#2b2a29;fill-opacity:1;fill-rule:nonzero;stroke:none;stroke-width:9.84252;stroke-linecap:round;stroke-linejoin:round;stroke-miterlimit:4;stroke-dasharray:none;stroke-dashoffset:0;stroke-opacity:1;color-rendering:auto;image-rendering:auto;shape-rendering:auto;text-rendering:auto;enable-background:accumulate;stop-color:#000000;stop-opacity:1" /></g>
  </g><g
   id="_1060350160"
   transform="translate(-4201.4452,-224.40281)">
   <path
   id="path50"
   d="m 5260,1730 c -31,-118 107,-27 29,2 -13,5 -27,9 -27,-20 m 5,56 c -43,0 -110,-122 29,-154 84,-19 93,169 15,161 -1,0 -46,-7 -44,-7 z"
   class="fil2" />
   <path
   id="path2321"
   d="m 5291.8926,1591.3066 c -8.5981,-0.1173 -17.0359,1.9724 -24.7344,5.6895 -24.6352,11.8948 -43.5004,38.7844 -54.3984,68.4883 -10.8981,29.7039 -13.9585,62.8708 -0.9903,88.6426 6.4842,12.8858 17.412,23.638 32.4395,29.5371 15.0275,5.8991 33.7676,7.1252 56.5371,3.0214 a 9.8424997,9.8424997 0 0 0 7.9394,-11.4316 9.8424997,9.8424997 0 0 0 -11.4316,-7.9394 c -20.2305,3.6462 -35.1779,2.2161 -45.8535,-1.9747 -10.6756,-4.1907 -17.4666,-10.962 -22.0449,-20.0605 -9.1568,-18.197 -7.7172,-46.8426 1.8847,-73.0137 9.602,-26.1711 27.2368,-49.219 44.4766,-57.5429 8.6199,-4.162 16.6909,-5.063 25.2578,-2.0957 8.567,2.9672 18.1542,10.3094 27.8359,24.832 9.3329,13.9992 18.1239,42.6293 18.4727,68.6719 0.1744,13.0213 -1.6718,25.4105 -5.7285,35.1464 -4.0567,9.736 -9.9371,16.7056 -18.7168,20.8028 a 9.8424997,9.8424997 0 0 0 -4.7578,13.082 9.8424997,9.8424997 0 0 0 13.082,4.7578 c 13.7203,-6.4028 23.0899,-17.9332 28.5645,-31.0722 5.4745,-13.1391 7.4408,-27.9999 7.2402,-42.9786 -0.4012,-29.9574 -9.1102,-60.3273 -21.7773,-79.3281 -11.3183,-16.9774 -24.0436,-27.7602 -37.7735,-32.5156 -5.1487,-1.7833 -10.3646,-2.6484 -15.5234,-2.7188 z"
   style="color:#000000;font-style:normal;font-variant:normal;font-weight:normal;font-stretch:normal;font-size:medium;line-height:normal;font-family:sans-serif;font-variant-ligatures:normal;font-variant-position:normal;font-variant-caps:normal;font-variant-numeric:normal;font-variant-alternates:normal;font-variant-east-asian:normal;font-feature-settings:normal;font-variation-settings:normal;text-indent:0;text-align:start;text-decoration:none;text-decoration-line:none;text-decoration-style:solid;text-decoration-color:#000000;letter-spacing:normal;word-spacing:normal;text-transform:none;writing-mode:lr-tb;direction:ltr;text-orientation:mixed;dominant-baseline:auto;baseline-shift:baseline;text-anchor:start;white-space:normal;shape-padding:0;shape-margin:0;inline-size:0;clip-rule:nonzero;display:inline;overflow:visible;visibility:visible;opacity:1;isolation:auto;mix-blend-mode:normal;color-interpolation:sRGB;color-interpolation-filters:linearRGB;solid-color:#000000;solid-opacity:1;vector-effect:none;fill:#2b2a29;fill-opacity:1;fill-rule:nonzero;stroke:none;stroke-width:19.685;stroke-linecap:round;stroke-linejoin:round;stroke-miterlimit:4;stroke-dasharray:none;stroke-dashoffset:0;stroke-opacity:1;color-rendering:auto;image-rendering:auto;shape-rendering:auto;text-rendering:auto;enable-background:accumulate;stop-color:#000000;stop-opacity:1" />
   <g
   style="opacity:1"
   id="g1997"><path
     id="path1999"
     d="m 5310,1723 c -102,63 -39,-154 7,-39 6,14 5,32 -7,39 z"
     style="color:#000000;font-style:normal;font-variant:normal;font-weight:normal;font-stretch:normal;font-size:medium;line-height:normal;font-family:sans-serif;font-variant-ligatures:normal;font-variant-position:normal;font-variant-caps:normal;font-variant-numeric:normal;font-variant-alternates:normal;font-variant-east-asian:normal;font-feature-settings:normal;font-variation-settings:normal;text-indent:0;text-align:start;text-decoration:none;text-decoration-line:none;text-decoration-style:solid;text-decoration-color:#000000;letter-spacing:normal;word-spacing:normal;text-transform:none;writing-mode:lr-tb;direction:ltr;text-orientation:mixed;dominant-baseline:auto;baseline-shift:baseline;text-anchor:start;white-space:normal;shape-padding:0;shape-margin:0;inline-size:0;clip-rule:nonzero;display:inline;overflow:visible;visibility:visible;isolation:auto;mix-blend-mode:normal;color-interpolation:sRGB;color-interpolation-filters:linearRGB;solid-color:#000000;solid-opacity:1;vector-effect:none;fill:#434242;fill-opacity:1;fill-rule:nonzero;stroke:none;stroke-width:9.84252;stroke-linecap:round;stroke-linejoin:round;stroke-miterlimit:4;stroke-dasharray:none;stroke-dashoffset:0;stroke-opacity:1;color-rendering:auto;image-rendering:auto;shape-rendering:auto;text-rendering:auto;enable-background:accumulate;stop-color:#000000;stop-opacity:1" /><path
     id="path2001"
     d="m 5286.1406,1644.916 c -1.8344,0.02 -3.6383,0.2881 -5.3789,0.8028 -13.9249,4.1169 -22.8777,20.0495 -27.5078,36.9824 -4.6301,16.9329 -5.0091,35.7555 4.4902,47.6777 4.7497,5.9611 12.3606,9.606 21.5821,9.2344 9.1992,-0.3707 20.0201,-4.2678 33.1679,-12.375 7.524,-4.3969 11.4808,-12.2494 12.6289,-20.4297 1.1466,-8.1694 -0.2568,-16.9182 -3.582,-24.6992 -5.913,-14.7647 -12.1518,-24.5747 -18.9883,-30.5684 -5.1352,-4.5022 -10.9088,-6.6835 -16.4121,-6.625 z m 0.2735,9.7383 c 2.8832,-0.1224 5.8969,0.9983 9.6504,4.2891 5.0046,4.3877 10.7882,12.9373 16.3671,26.8847 a 4.921752,4.921752 0 0 0 0.045,0.1114 c 2.6602,6.2071 3.7514,13.438 2.9004,19.5019 -0.8511,6.0639 -3.3919,10.7037 -7.8575,13.3086 a 4.921752,4.921752 0 0 0 -0.1054,0.062 c -12.3091,7.6026 -21.8055,10.6958 -28.4825,10.9648 -6.6769,0.2691 -10.5191,-1.8048 -13.4882,-5.5312 -5.9382,-7.4528 -6.8172,-23.8802 -2.6973,-38.9473 4.1199,-15.0671 13.1671,-27.8845 20.8047,-30.1426 0.9547,-0.2822 1.9022,-0.4611 2.8633,-0.5019 z"
     style="color:#000000;font-style:normal;font-variant:normal;font-weight:normal;font-stretch:normal;font-size:medium;line-height:normal;font-family:sans-serif;font-variant-ligatures:normal;font-variant-position:normal;font-variant-caps:normal;font-variant-numeric:normal;font-variant-alternates:normal;font-variant-east-asian:normal;font-feature-settings:normal;font-variation-settings:normal;text-indent:0;text-align:start;text-decoration:none;text-decoration-line:none;text-decoration-style:solid;text-decoration-color:#000000;letter-spacing:normal;word-spacing:normal;text-transform:none;writing-mode:lr-tb;direction:ltr;text-orientation:mixed;dominant-baseline:auto;baseline-shift:baseline;text-anchor:start;white-space:normal;shape-padding:0;shape-margin:0;inline-size:0;clip-rule:nonzero;display:inline;overflow:visible;visibility:visible;isolation:auto;mix-blend-mode:normal;color-interpolation:sRGB;color-interpolation-filters:linearRGB;solid-color:#000000;solid-opacity:1;vector-effect:none;fill:#2b2a29;fill-opacity:1;fill-rule:nonzero;stroke:none;stroke-width:9.84252;stroke-linecap:round;stroke-linejoin:round;stroke-miterlimit:4;stroke-dasharray:none;stroke-dashoffset:0;stroke-opacity:1;color-rendering:auto;image-rendering:auto;shape-rendering:auto;text-rendering:auto;enable-background:accumulate;stop-color:#000000;stop-opacity:1" /></g>
  </g><g
   id="_1060344464"
   transform="translate(-4201.4452,-224.40281)">
   <path
   id="path85"
   d="m 4546,1668 c -9,60 28,49 45,32 12,-12 20,-20 -7,-45 -10,-10 -36,3 -36,32 m -3,-75 c -43,0 -102,141 37,173 84,19 93,-170 15,-162 -1,0 -49,-11 -52,-11 z"
   class="fil2" />
   <path
   id="path2341"
   d="m 4574.5625,1597.1621 c -17.9442,-0.5696 -32.6981,5.1785 -44.6875,10.9043 -35.0831,15.8464 -49.0969,57.2229 -47.0801,95.9453 2.0185,38.7551 20.2155,78.1524 56.2774,89.3848 a 9.843484,9.843484 0 0 0 0.1,0.031 c 10.3171,3.0952 24.9936,7.0115 41.541,6.0215 16.5474,-0.99 35.0662,-7.3103 51.2461,-23.4902 a 9.843484,9.843484 0 0 0 0.08,-0.08 c 22.9546,-23.4884 36.604,-52.2124 38.4082,-80.2461 1.8037,-28.028 -8.9695,-55.6286 -33.6446,-73.582 -23.6497,-17.3391 -44.2431,-24.3174 -62.2402,-24.8887 z m -0.625,19.6758 c 13.4984,0.4285 29.8994,5.4482 51.2422,21.0996 a 9.843484,9.843484 0 0 0 0.031,0.023 c 19.3144,14.0469 27.0377,33.94 25.5918,56.4063 -1.4449,22.4524 -12.7844,47.2107 -32.8066,67.7148 -12.8055,12.7851 -25.7711,16.9597 -38.459,17.7188 -12.6762,0.7584 -24.9709,-2.3114 -34.6445,-5.211 -24.9173,-7.7859 -40.7069,-38.3727 -42.4375,-71.6015 -1.7315,-33.2449 10.7321,-65.8284 35.584,-77.0117 a 9.843484,9.843484 0 0 0 0.207,-0.098 c 10.99,-5.2561 22.193,-9.4695 35.6914,-9.041 z"
   style="color:#000000;font-style:normal;font-variant:normal;font-weight:normal;font-stretch:normal;font-size:medium;line-height:normal;font-family:sans-serif;font-variant-ligatures:normal;font-variant-position:normal;font-variant-caps:normal;font-variant-numeric:normal;font-variant-alternates:normal;font-variant-east-asian:normal;font-feature-settings:normal;font-variation-settings:normal;text-indent:0;text-align:start;text-decoration:none;text-decoration-line:none;text-decoration-style:solid;text-decoration-color:#000000;letter-spacing:normal;word-spacing:normal;text-transform:none;writing-mode:lr-tb;direction:ltr;text-orientation:mixed;dominant-baseline:auto;baseline-shift:baseline;text-anchor:start;white-space:normal;shape-padding:0;shape-margin:0;inline-size:0;clip-rule:nonzero;display:inline;overflow:visible;visibility:visible;opacity:1;isolation:auto;mix-blend-mode:normal;color-interpolation:sRGB;color-interpolation-filters:linearRGB;solid-color:#000000;solid-opacity:1;vector-effect:none;fill:#2b2a29;fill-opacity:1;fill-rule:nonzero;stroke:none;stroke-width:19.685;stroke-linecap:round;stroke-linejoin:round;stroke-miterlimit:4;stroke-dasharray:none;stroke-dashoffset:0;stroke-opacity:1;color-rendering:auto;image-rendering:auto;shape-rendering:auto;text-rendering:auto;enable-background:accumulate;stop-color:#000000;stop-opacity:1" />
   <g
   style="opacity:1"
   id="g2027"><path
     id="path2029"
     d="m 4609,1684 c -93,-104 -92,138 -1,20 5,-7 7,-14 1,-20 z"
     style="color:#000000;font-style:normal;font-variant:normal;font-weight:normal;font-stretch:normal;font-size:medium;line-height:normal;font-family:sans-serif;font-variant-ligatures:normal;font-variant-position:normal;font-variant-caps:normal;font-variant-numeric:normal;font-variant-alternates:normal;font-variant-east-asian:normal;font-feature-settings:normal;font-variation-settings:normal;text-indent:0;text-align:start;text-decoration:none;text-decoration-line:none;text-decoration-style:solid;text-decoration-color:#000000;letter-spacing:normal;word-spacing:normal;text-transform:none;writing-mode:lr-tb;direction:ltr;text-orientation:mixed;dominant-baseline:auto;baseline-shift:baseline;text-anchor:start;white-space:normal;shape-padding:0;shape-margin:0;inline-size:0;clip-rule:nonzero;display:inline;overflow:visible;visibility:visible;isolation:auto;mix-blend-mode:normal;color-interpolation:sRGB;color-interpolation-filters:linearRGB;solid-color:#000000;solid-opacity:1;vector-effect:none;fill:#434242;fill-opacity:1;fill-rule:nonzero;stroke:none;stroke-width:9.84252;stroke-linecap:round;stroke-linejoin:round;stroke-miterlimit:4;stroke-dasharray:none;stroke-dashoffset:0;stroke-opacity:1;color-rendering:auto;image-rendering:auto;shape-rendering:auto;text-rendering:auto;enable-background:accumulate;stop-color:#000000;stop-opacity:1" /><path
     id="path2031"
     d="m 4566.457,1652.4688 c -4.3735,0.076 -8.4211,1.1287 -11.9765,3.041 -14.2218,7.649 -19.9024,26.2131 -19.9024,43.7402 0,8.7635 1.5008,17.4312 4.7149,24.8184 3.2141,7.3872 8.298,13.6925 15.6035,16.5468 7.3055,2.8544 16.2232,1.7861 25.6426,-3.5859 9.4193,-5.372 19.7327,-14.9496 31.3574,-30.0234 a 4.921752,4.921752 0 0 0 0.1074,-0.1446 c 2.7706,-3.8788 4.9924,-8.0193 5.5117,-12.6933 0.5182,-4.6638 -1.1616,-9.7542 -5.0136,-13.6211 -11.8704,-13.2386 -22.4379,-21.2922 -32.1114,-25.2598 -4.8598,-1.9933 -9.56,-2.8943 -13.9336,-2.8183 z m 0.2364,9.7382 c 2.8627,-0.04 6.1274,0.6125 9.9628,2.1856 7.671,3.1462 17.3654,10.2405 28.6758,22.8886 a 4.921752,4.921752 0 0 0 0.1875,0.1993 c 2.1301,2.13 2.4455,3.5255 2.2149,5.6015 -0.2294,2.0642 -1.5031,4.9055 -3.709,8.0059 -11.0913,14.3638 -20.6898,23.0154 -28.3613,27.3906 -7.6901,4.3858 -13.0536,4.5832 -17.1856,2.9688 -4.132,-1.6145 -7.6418,-5.5122 -10.1621,-11.3047 -2.5203,-5.7925 -3.8945,-13.2811 -3.8945,-20.8926 0,-15.2229 5.8194,-30.2838 14.7226,-35.0723 2.2258,-1.1971 4.6861,-1.9304 7.5489,-1.9707 z"
     style="color:#000000;font-style:normal;font-variant:normal;font-weight:normal;font-stretch:normal;font-size:medium;line-height:normal;font-family:sans-serif;font-variant-ligatures:normal;font-variant-position:normal;font-variant-caps:normal;font-variant-numeric:normal;font-variant-alternates:normal;font-variant-east-asian:normal;font-feature-settings:normal;font-variation-settings:normal;text-indent:0;text-align:start;text-decoration:none;text-decoration-line:none;text-decoration-style:solid;text-decoration-color:#000000;letter-spacing:normal;word-spacing:normal;text-transform:none;writing-mode:lr-tb;direction:ltr;text-orientation:mixed;dominant-baseline:auto;baseline-shift:baseline;text-anchor:start;white-space:normal;shape-padding:0;shape-margin:0;inline-size:0;clip-rule:nonzero;display:inline;overflow:visible;visibility:visible;isolation:auto;mix-blend-mode:normal;color-interpolation:sRGB;color-interpolation-filters:linearRGB;solid-color:#000000;solid-opacity:1;vector-effect:none;fill:#2b2a29;fill-opacity:1;fill-rule:nonzero;stroke:none;stroke-width:9.84252;stroke-linecap:round;stroke-linejoin:round;stroke-miterlimit:4;stroke-dasharray:none;stroke-dashoffset:0;stroke-opacity:1;color-rendering:auto;image-rendering:auto;shape-rendering:auto;text-rendering:auto;enable-background:accumulate;stop-color:#000000;stop-opacity:1" /></g>
  </g><g
   id="_1060342448"
   transform="translate(-4201.4452,-224.40281)">
   <path
   id="path92"
   d="m 5432,1668 c -9,60 27,49 45,32 12,-12 19,-20 -7,-45 -10,-10 -36,3 -36,32 m -3,-75 c -43,0 -102,141 37,173 84,19 92,-170 14,-162 0,0 -49,-11 -51,-11 z"
   class="fil2" />
   <path
   id="path2345"
   d="m 5460.5625,1597.1621 c -17.9178,-0.5688 -32.6509,5.1635 -44.6309,10.8809 -35.5574,15.7961 -49.6622,57.2588 -47.5097,96.0039 2.1542,38.7768 20.6031,78.1217 56.6504,89.3496 a 9.843484,9.843484 0 0 0 0.1,0.031 c 10.3171,3.0952 24.98,7.0137 41.4219,6.0215 16.4225,-0.991 34.745,-7.3454 50.4296,-23.5605 23.4351,-23.4638 37.352,-52.1749 39.295,-80.209 1.9444,-28.0556 -8.8406,-55.6755 -33.5157,-73.6289 -23.6497,-17.3391 -44.2431,-24.3174 -62.2402,-24.8887 z m -0.625,19.6758 c 13.4984,0.4285 29.8994,5.4482 51.2422,21.0996 a 9.843484,9.843484 0 0 0 0.031,0.023 c 19.3144,14.0469 27.0259,33.9207 25.4707,56.3594 -1.5551,22.4388 -13.1169,47.197 -33.6406,67.7207 a 9.843484,9.843484 0 0 0 -0.1211,0.1231 c -12.3031,12.7425 -24.9555,16.8789 -37.5137,17.6367 -12.5319,0.7562 -24.8399,-2.3114 -34.5136,-5.211 -24.9321,-7.7904 -40.9696,-38.4296 -42.8145,-71.6367 -1.8457,-33.2231 10.528,-65.7201 35.9063,-76.9531 a 9.843484,9.843484 0 0 0 0.2617,-0.1211 c 10.99,-5.2561 22.193,-9.4695 35.6914,-9.041 z"
   style="color:#000000;font-style:normal;font-variant:normal;font-weight:normal;font-stretch:normal;font-size:medium;line-height:normal;font-family:sans-serif;font-variant-ligatures:normal;font-variant-position:normal;font-variant-caps:normal;font-variant-numeric:normal;font-variant-alternates:normal;font-variant-east-asian:normal;font-feature-settings:normal;font-variation-settings:normal;text-indent:0;text-align:start;text-decoration:none;text-decoration-line:none;text-decoration-style:solid;text-decoration-color:#000000;letter-spacing:normal;word-spacing:normal;text-transform:none;writing-mode:lr-tb;direction:ltr;text-orientation:mixed;dominant-baseline:auto;baseline-shift:baseline;text-anchor:start;white-space:normal;shape-padding:0;shape-margin:0;inline-size:0;clip-rule:nonzero;display:inline;overflow:visible;visibility:visible;opacity:1;isolation:auto;mix-blend-mode:normal;color-interpolation:sRGB;color-interpolation-filters:linearRGB;solid-color:#000000;solid-opacity:1;vector-effect:none;fill:#2b2a29;fill-opacity:1;fill-rule:nonzero;stroke:none;stroke-width:19.685;stroke-linecap:round;stroke-linejoin:round;stroke-miterlimit:4;stroke-dasharray:none;stroke-dashoffset:0;stroke-opacity:1;color-rendering:auto;image-rendering:auto;shape-rendering:auto;text-rendering:auto;enable-background:accumulate;stop-color:#000000;stop-opacity:1" />
   <g
   style="opacity:1"
   id="g2033"><path
     id="path2035"
     d="m 5495,1684 c -94,-104 -93,138 -2,20 5,-7 7,-14 2,-20 z"
     style="color:#000000;font-style:normal;font-variant:normal;font-weight:normal;font-stretch:normal;font-size:medium;line-height:normal;font-family:sans-serif;font-variant-ligatures:normal;font-variant-position:normal;font-variant-caps:normal;font-variant-numeric:normal;font-variant-alternates:normal;font-variant-east-asian:normal;font-feature-settings:normal;font-variation-settings:normal;text-indent:0;text-align:start;text-decoration:none;text-decoration-line:none;text-decoration-style:solid;text-decoration-color:#000000;letter-spacing:normal;word-spacing:normal;text-transform:none;writing-mode:lr-tb;direction:ltr;text-orientation:mixed;dominant-baseline:auto;baseline-shift:baseline;text-anchor:start;white-space:normal;shape-padding:0;shape-margin:0;inline-size:0;clip-rule:nonzero;display:inline;overflow:visible;visibility:visible;isolation:auto;mix-blend-mode:normal;color-interpolation:sRGB;color-interpolation-filters:linearRGB;solid-color:#000000;solid-opacity:1;vector-effect:none;fill:#434242;fill-opacity:1;fill-rule:nonzero;stroke:none;stroke-width:9.84252;stroke-linecap:round;stroke-linejoin:round;stroke-miterlimit:4;stroke-dasharray:none;stroke-dashoffset:0;stroke-opacity:1;color-rendering:auto;image-rendering:auto;shape-rendering:auto;text-rendering:auto;enable-background:accumulate;stop-color:#000000;stop-opacity:1" /><path
     id="path2037"
     d="m 5451.9961,1652.4668 c -4.4066,0.076 -8.483,1.125 -12.0703,3.0312 -14.3493,7.6249 -20.1558,26.1995 -20.2227,43.7325 -0.033,8.7664 1.441,17.4378 4.6367,24.8281 3.1958,7.3903 8.2703,13.6986 15.5704,16.5547 7.3,2.8561 16.2137,1.788 25.6308,-3.584 9.4171,-5.372 19.7308,-14.9496 31.3555,-30.0234 a 4.921752,4.921752 0 0 0 0.1074,-0.1446 c 2.7706,-3.8788 4.9416,-7.9818 5.6133,-12.5156 0.6717,-4.5338 -0.5268,-9.5251 -3.836,-13.4961 a 4.921752,4.921752 0 0 0 -0.1308,-0.1504 c -12.0669,-13.3505 -22.7981,-21.4404 -32.6074,-25.4199 -4.9047,-1.9898 -9.6403,-2.888 -14.0469,-2.8125 z m 0.2305,9.7441 c 2.9122,-0.041 6.2308,0.6128 10.1172,2.1895 7.747,3.1429 17.5117,10.2178 28.8964,22.7891 1.6601,2.0079 1.9687,3.5139 1.6426,5.7148 -0.3264,2.2035 -1.6491,5.0829 -3.8555,8.1836 -11.0916,14.3644 -20.6913,23.0153 -28.3613,27.3906 -7.6883,4.3858 -13.0481,4.5834 -17.1699,2.9707 -4.1218,-1.6126 -7.6176,-5.5074 -10.1211,-11.2969 -2.5035,-5.7894 -3.8572,-13.2742 -3.8281,-20.8828 0.058,-15.217 5.9391,-30.2674 14.9961,-35.08 2.2642,-1.2032 4.7713,-1.9378 7.6836,-1.9786 z"
     style="color:#000000;font-style:normal;font-variant:normal;font-weight:normal;font-stretch:normal;font-size:medium;line-height:normal;font-family:sans-serif;font-variant-ligatures:normal;font-variant-position:normal;font-variant-caps:normal;font-variant-numeric:normal;font-variant-alternates:normal;font-variant-east-asian:normal;font-feature-settings:normal;font-variation-settings:normal;text-indent:0;text-align:start;text-decoration:none;text-decoration-line:none;text-decoration-style:solid;text-decoration-color:#000000;letter-spacing:normal;word-spacing:normal;text-transform:none;writing-mode:lr-tb;direction:ltr;text-orientation:mixed;dominant-baseline:auto;baseline-shift:baseline;text-anchor:start;white-space:normal;shape-padding:0;shape-margin:0;inline-size:0;clip-rule:nonzero;display:inline;overflow:visible;visibility:visible;isolation:auto;mix-blend-mode:normal;color-interpolation:sRGB;color-interpolation-filters:linearRGB;solid-color:#000000;solid-opacity:1;vector-effect:none;fill:#2b2a29;fill-opacity:1;fill-rule:nonzero;stroke:none;stroke-width:9.84252;stroke-linecap:round;stroke-linejoin:round;stroke-miterlimit:4;stroke-dasharray:none;stroke-dashoffset:0;stroke-opacity:1;color-rendering:auto;image-rendering:auto;shape-rendering:auto;text-rendering:auto;enable-background:accumulate;stop-color:#000000;stop-opacity:1" /></g>
  </g><g
   transform="translate(-4057.0521,6.0401409)"
   style="opacity:1"
   id="g2275"><path
     id="path2277"
     d="m 5385.4167,125.95905 c -99,-53.000002 -848,-6 -1175,-21 -108,-5.000002 -141,25.32275 -144,134.32275 l 2,1150 c 5,40 13,50 59,36 4,-1 5,-6 7,-12 6,-55 11,-63 22,-77 26,-32 189,-12 280,-24 131,-16 86,134 121,99 l 473,11 c 8,-66 5,-60 18,-73 32,-32 270,-16 339,-5 32,5 17,55 30,91 26,4 42,2 80,-2 l -1,-1078 c 23,-114 -16,-220.32275 -111,-229.32275 z"
     style="color:#000000;font-style:normal;font-variant:normal;font-weight:normal;font-stretch:normal;font-size:medium;line-height:normal;font-family:sans-serif;font-variant-ligatures:normal;font-variant-position:normal;font-variant-caps:normal;font-variant-numeric:normal;font-variant-alternates:normal;font-variant-east-asian:normal;font-feature-settings:normal;font-variation-settings:normal;text-indent:0;text-align:start;text-decoration:none;text-decoration-line:none;text-decoration-style:solid;text-decoration-color:#000000;letter-spacing:normal;word-spacing:normal;text-transform:none;writing-mode:lr-tb;direction:ltr;text-orientation:mixed;dominant-baseline:auto;baseline-shift:baseline;text-anchor:start;white-space:normal;shape-padding:0;shape-margin:0;inline-size:0;clip-rule:nonzero;display:inline;overflow:visible;visibility:visible;isolation:auto;mix-blend-mode:normal;color-interpolation:sRGB;color-interpolation-filters:linearRGB;solid-color:#000000;solid-opacity:1;vector-effect:none;fill:#d40000;fill-opacity:1;fill-rule:nonzero;stroke:none;stroke-width:19.685;stroke-linecap:round;stroke-linejoin:round;stroke-miterlimit:4;stroke-dasharray:none;stroke-dashoffset:0;stroke-opacity:1;color-rendering:auto;image-rendering:auto;shape-rendering:auto;text-rendering:auto;enable-background:accumulate;stop-color:#000000;stop-opacity:1" /><path
     id="path2279"
     d="m 5056.3652,90.134766 c -54.5428,-0.09764 -112.9272,0.419519 -173.082,1.232422 -240.6173,3.251584 -509.7254,11.222152 -672.4121,3.759765 v 0 c -54.9623,-2.544162 -93.3247,3.59173 -118.5293,27.037107 -25.2053,23.44596 -34.2332,61.3806 -35.7598,116.84766 a 9.843484,9.843484 0 0 0 0,0.28711 l 2,1149.99997 a 9.843484,9.843484 0 0 0 0.076,1.2032 c 1.2838,10.2704 2.7395,18.9163 5.3144,26.4375 2.575,7.5211 6.5645,14.2846 13.0059,18.707 6.4414,4.4224 14.438,5.8497 23.0703,5.3691 8.5157,-0.4741 18.1307,-2.6692 29.8008,-6.2011 5.5344,-1.4022 9.1486,-6.1055 10.7305,-9.4668 1.5857,-3.3697 2.2854,-6.2644 3.1816,-8.9532 a 9.843484,9.843484 0 0 0 0.4473,-2.0449 c 2.9736,-27.2581 5.7283,-42.5424 8.7207,-51.9629 2.9749,-9.3655 5.8339,-13.1401 11.1582,-19.9179 3.0365,-3.7045 16.1129,-9.3073 35.6054,-12 19.5232,-2.697 44.9103,-3.5971 72.4454,-3.8458 55.0701,-0.4972 118.6144,1.6083 165.5722,-4.5839 l -0.094,0.012 c 30.9802,-3.7839 49.6197,2.1735 62.084,11.6933 12.4642,9.5199 19.3779,23.5125 23.8105,38.0352 4.4326,14.5226 5.9365,28.713 9.2598,39.457 0.8308,2.686 1.7672,5.2297 3.4082,7.8125 1.6409,2.5828 4.3796,5.5372 8.5117,6.791 4.132,1.2539 8.433,0.2609 11.5137,-1.3086 1.7884,-0.9111 3.3647,-2.0535 4.8925,-3.3203 l 469.0977,10.9102 a 9.843484,9.843484 0 0 0 10,-8.6543 c 4.0134,-33.1105 5.4276,-48.5701 6.959,-55.4102 0.7657,-3.42 1.2076,-4.2065 2.0566,-5.373 0.8491,-1.1665 2.79,-3.0576 6.1739,-6.4414 1.6982,-1.6982 7.6087,-4.9178 16.5136,-7.3067 8.905,-2.3888 20.6739,-4.3092 34.2852,-5.6894 27.2226,-2.7604 61.8556,-3.431 97.6777,-2.7481 71.6443,1.3659 148.5184,8.1641 182.0137,13.504 a 9.843484,9.843484 0 0 0 0.029,0 c 5.412,0.8456 7.1221,2.4329 9.2695,6.3105 2.1475,3.8776 3.7047,10.5785 4.5879,18.8809 1.7665,16.6047 1.0011,38.9211 8.4063,59.4277 a 9.843484,9.843484 0 0 0 7.7597,6.3848 c 27.0872,4.1672 44.581,2.0549 82.5274,-1.9395 a 9.843484,9.843484 0 0 0 8.8125,-9.7969 l -1,-1077.20504 c 11.5452,-58.22753 7.6076,-114.72283 -12.1075,-158.83789 -19.599,-43.85545 -55.9166,-75.39434 -105.9316,-80.82813 -14.9381,-7.44053 -37.2184,-11.98903 -67.0859,-15.71484 -31.0657,-3.875275 -69.9388,-6.448879 -114.7325,-8.095703 -44.7936,-1.646825 -95.4943,-2.359388 -150.0371,-2.457031 z m -0.021,19.687504 c 54.3946,0.0977 104.8795,0.80698 149.3359,2.4414 44.4564,1.63443 82.8977,4.20145 113.0195,7.95899 30.1219,3.75753 52.2405,9.15057 62.0723,14.41406 a 9.843484,9.843484 0 0 0 3.7168,1.12109 c 44.0029,4.1687 74.0398,30.00179 91.6933,69.50391 17.6535,39.50211 21.7573,92.71289 10.5879,148.07422 a 9.843484,9.843484 0 0 0 -0.1953,1.95508 l 0.9922,1069.11518 c -28.0928,2.963 -43.4048,4.1536 -62.6406,1.795 -3.8104,-14.65 -3.8497,-32.6552 -5.5977,-49.086 -0.9917,-9.3226 -2.4951,-18.3073 -6.9414,-26.3359 -4.4445,-8.0255 -12.8574,-14.5612 -23.4394,-16.2188 -35.5116,-5.6596 -112.1236,-12.3601 -184.7188,-13.7441 -36.3028,-0.6921 -71.4804,-0.05 -100.039,2.8457 -14.2794,1.4479 -26.8933,3.4416 -37.3985,6.2598 -10.5052,2.8181 -19.0322,6.0986 -25.334,12.4004 -3.1161,3.1161 -5.6752,5.35 -8.1699,8.7773 -2.4947,3.4273 -4.2403,7.7013 -5.3496,12.6563 -1.9549,8.7318 -3.3123,23.1697 -6.2676,48.4765 l -464.0234,-10.791 a 9.843484,9.843484 0 0 0 -6.461,2.2227 c -2.0485,-7.5294 -4.0642,-21.9335 -8.8554,-37.6309 -5.0674,-16.6023 -13.6537,-34.9222 -30.6895,-47.9336 -17.0357,-13.0114 -41.8982,-19.804 -76.4179,-15.5879 a 9.843484,9.843484 0 0 0 -0.092,0.012 c -44.0422,5.8078 -107.4979,3.9133 -163.1778,4.4161 -27.8399,0.2513 -53.7653,1.1012 -74.9609,4.0293 -21.1956,2.928 -38.2246,6.8097 -48.2149,19.1054 a 9.843484,9.843484 0 0 0 -0.1,0.127 c -5.6151,7.1465 -10.7599,14.397 -14.5175,26.2265 -3.7012,11.6519 -6.4197,27.6745 -9.3926,54.6602 -0.7787,2.3675 -1.3941,4.2558 -1.7696,5.1875 -10.2684,3.0442 -18.4034,4.7715 -24.0507,5.0859 -5.9615,0.3319 -8.9004,-0.6158 -10.834,-1.9433 -1.9337,-1.3276 -3.7566,-3.6892 -5.5254,-8.8555 -1.7356,-5.0694 -3.1292,-12.5468 -4.3301,-22.0156 l -1.998,-1149.08401 c 1.4813,-53.47575 10.4528,-85.18173 29.4863,-102.88672 19.0447,-17.71542 51.1793,-24.2405 104.2148,-21.78515 164.3137,7.53732 433.2031,-0.49185 673.584,-3.74024 60.0953,-0.8121 118.4003,-1.32618 172.795,-1.22851 z"
     style="color:#000000;font-style:normal;font-variant:normal;font-weight:normal;font-stretch:normal;font-size:medium;line-height:normal;font-family:sans-serif;font-variant-ligatures:normal;font-variant-position:normal;font-variant-caps:normal;font-variant-numeric:normal;font-variant-alternates:normal;font-variant-east-asian:normal;font-feature-settings:normal;font-variation-settings:normal;text-indent:0;text-align:start;text-decoration:none;text-decoration-line:none;text-decoration-style:solid;text-decoration-color:#000000;letter-spacing:normal;word-spacing:normal;text-transform:none;writing-mode:lr-tb;direction:ltr;text-orientation:mixed;dominant-baseline:auto;baseline-shift:baseline;text-anchor:start;white-space:normal;shape-padding:0;shape-margin:0;inline-size:0;clip-rule:nonzero;display:inline;overflow:visible;visibility:visible;isolation:auto;mix-blend-mode:normal;color-interpolation:sRGB;color-interpolation-filters:linearRGB;solid-color:#000000;solid-opacity:1;vector-effect:none;fill:#2b2a29;fill-opacity:1;fill-rule:nonzero;stroke:none;stroke-width:19.685;stroke-linecap:round;stroke-linejoin:round;stroke-miterlimit:4;stroke-dasharray:none;stroke-dashoffset:0;stroke-opacity:1;color-rendering:auto;image-rendering:auto;shape-rendering:auto;text-rendering:auto;enable-background:accumulate;stop-color:#000000;stop-opacity:1" /></g><path
   sodipodi:nodetypes="scccsssssssssccss"
   id="path1276"
   style="fill:#ffffff;stroke:none;stroke-width:10.4193px;stroke-linecap:butt;stroke-linejoin:miter;stroke-opacity:1"
   d="m 1008.4999,122.30391 c 272.3441,0 -641.5632,14.34044 -845.9383,4.96544 -39.3633,-1.82238 -68.678105,6.68378 -90.293905,23.3824 0.9335,12.88881 1.1669,25.7905 -0.7127,38.70613 -23.9813,164.82165 -19.8618,279.97685 -19.8618,446.72804 0,160.38225 10.6697,320.2909 23.1789,479.95988 2.0397,26.0353 -11.4403,115.9018 -4.6398,125.4998 25.2228,35.5998 165.742005,50.3619 207.979205,49.1051 225.2818,-6.7027 452.2681,-39.482 678.2728,-16.2597 30.5503,3.1391 414.2423,15.1065 424.587,7.4888 29.666,-21.8455 -2.7552,-90.7271 2.6456,-125.1946 22.7482,-145.1788 12.5681,-282.31698 9.2797,-429.22679 -2.6824,-119.83138 1.195,-239.84283 3.9683,-359.64945 0.7867,-33.98572 4.5959,-86.69492 6.2882,-183.9253 -17.5603,-20.01659 -39.476,-33.1294 -65.6905,-35.61289 -37.125,-19.87499 -492.4697,-25.96686 -329.0631,-25.96686 z" /><path
   id="path2183"
   d="m 844.0443,703.53805 c -2.0487,-0.10996 -4.0965,0.37518 -6.2343,1.14648 l -199.2559,1.99219 c 0,0 -0.01,0 -0.012,0 -6.1171,-0.002 -11.9449,-1.24874 -17.8887,1.43555 -2.9738,1.34301 -5.6049,4.04687 -7.0371,7.50976 -1.4322,3.46289 -1.9824,7.60552 -1.9824,12.97461 a 4.921752,4.921752 0 0 0 0,0.0918 l 13,702.99996 a 4.9212599,4.9212599 0 0 0 5.0117,4.8301 4.9212599,4.9212599 0 0 0 4.8301,-5.0117 L 621.4776,728.57711 c 0,-4.6174 0.574,-7.59648 1.2344,-9.19336 0.6616,-1.59961 1.091,-1.89379 1.9922,-2.30078 1.8024,-0.81398 6.9711,-0.56446 13.8496,-0.56446 a 4.921752,4.921752 0 0 0 0.051,0 l 200,-2 a 4.921752,4.921752 0 0 0 1.8242,-0.37109 c 1.6765,-0.69031 2.7246,-0.79754 3.0801,-0.7793 -0.012,0.0717 0.625,1.51418 0.625,3.97852 0,2.60007 -0.4483,5.84659 -0.8809,8.6582 -0.2162,1.40581 -0.4268,2.70015 -0.5644,3.88867 -0.1,0.85919 -0.2185,1.63893 -0.057,2.8125 l -8.998,687.82619 a 4.9212599,4.9212599 0 0 0 4.8555,4.9863 4.9212599,4.9212599 0 0 0 4.9863,-4.8574 l 9,-688.00001 a 4.921752,4.921752 0 0 0 -0.2051,-1.46875 c 0.3913,1.21882 0.1063,0.60245 0.1953,-0.16601 0.097,-0.83492 0.2944,-2.08745 0.5157,-3.52539 0.4424,-2.87589 0.9941,-6.50437 0.9941,-10.1543 0,-3.64993 -0.2475,-7.69085 -3.4688,-10.97656 -1.6106,-1.64286 -4.05,-2.70253 -6.4629,-2.83203 z"
   style="color:#000000;font-style:normal;font-variant:normal;font-weight:normal;font-stretch:normal;font-size:medium;line-height:normal;font-family:sans-serif;font-variant-ligatures:normal;font-variant-position:normal;font-variant-caps:normal;font-variant-numeric:normal;font-variant-alternates:normal;font-variant-east-asian:normal;font-feature-settings:normal;font-variation-settings:normal;text-indent:0;text-align:start;text-decoration:none;text-decoration-line:none;text-decoration-style:solid;text-decoration-color:#000000;letter-spacing:normal;word-spacing:normal;text-transform:none;writing-mode:lr-tb;direction:ltr;text-orientation:mixed;dominant-baseline:auto;baseline-shift:baseline;text-anchor:start;white-space:normal;shape-padding:0;shape-margin:0;inline-size:0;clip-rule:nonzero;display:inline;overflow:visible;visibility:visible;opacity:1;isolation:auto;mix-blend-mode:normal;color-interpolation:sRGB;color-interpolation-filters:linearRGB;solid-color:#000000;solid-opacity:1;vector-effect:none;fill:#2b2a29;fill-opacity:1;fill-rule:nonzero;stroke:none;stroke-width:9.84252;stroke-linecap:round;stroke-linejoin:round;stroke-miterlimit:4;stroke-dasharray:none;stroke-dashoffset:0;stroke-opacity:1;color-rendering:auto;image-rendering:auto;shape-rendering:auto;text-rendering:auto;enable-background:accumulate;stop-color:#000000;stop-opacity:1" /><path
   id="path1933"
   d="m 731.5619,715.67672 a 4.9212599,4.9212599 0 0 0 -4.9277,4.91406 l -1,702.00002 a 4.9212599,4.9212599 0 0 0 4.9141,4.9277 4.9212599,4.9212599 0 0 0 4.9277,-4.914 l 1,-702.00005 a 4.9212599,4.9212599 0 0 0 -4.9141,-4.92773 z"
   style="color:#000000;font-style:normal;font-variant:normal;font-weight:normal;font-stretch:normal;font-size:medium;line-height:normal;font-family:sans-serif;font-variant-ligatures:normal;font-variant-position:normal;font-variant-caps:normal;font-variant-numeric:normal;font-variant-alternates:normal;font-variant-east-asian:normal;font-feature-settings:normal;font-variation-settings:normal;text-indent:0;text-align:start;text-decoration:none;text-decoration-line:none;text-decoration-style:solid;text-decoration-color:#000000;letter-spacing:normal;word-spacing:normal;text-transform:none;writing-mode:lr-tb;direction:ltr;text-orientation:mixed;dominant-baseline:auto;baseline-shift:baseline;text-anchor:start;white-space:normal;shape-padding:0;shape-margin:0;inline-size:0;clip-rule:nonzero;display:inline;overflow:visible;visibility:visible;opacity:1;isolation:auto;mix-blend-mode:normal;color-interpolation:sRGB;color-interpolation-filters:linearRGB;solid-color:#000000;solid-opacity:1;vector-effect:none;fill:#2b2a29;fill-opacity:1;fill-rule:nonzero;stroke:none;stroke-width:9.84252;stroke-linecap:round;stroke-linejoin:round;stroke-miterlimit:4;stroke-dasharray:none;stroke-dashoffset:0;stroke-opacity:1;color-rendering:auto;image-rendering:auto;shape-rendering:auto;text-rendering:auto;enable-background:accumulate;stop-color:#000000;stop-opacity:1" /><g
   transform="translate(-4047.8619,22.315399)"
   style="opacity:1"
   id="g2245"><path
     id="path2247"
     d="m 4685.4167,1140.2818 v -410 c -11,-25 6,-13 9,-12 l 55,-2 c 10,1 7,2 7,16 l 5,416 c -20,9 -46,3 -67,3 -10,2 -14,-4 -9,-11 z"
     style="color:#000000;font-style:normal;font-variant:normal;font-weight:normal;font-stretch:normal;font-size:medium;line-height:normal;font-family:sans-serif;font-variant-ligatures:normal;font-variant-position:normal;font-variant-caps:normal;font-variant-numeric:normal;font-variant-alternates:normal;font-variant-east-asian:normal;font-feature-settings:normal;font-variation-settings:normal;text-indent:0;text-align:start;text-decoration:none;text-decoration-line:none;text-decoration-style:solid;text-decoration-color:#000000;letter-spacing:normal;word-spacing:normal;text-transform:none;writing-mode:lr-tb;direction:ltr;text-orientation:mixed;dominant-baseline:auto;baseline-shift:baseline;text-anchor:start;white-space:normal;shape-padding:0;shape-margin:0;inline-size:0;clip-rule:nonzero;display:inline;overflow:visible;visibility:visible;isolation:auto;mix-blend-mode:normal;color-interpolation:sRGB;color-interpolation-filters:linearRGB;solid-color:#000000;solid-opacity:1;vector-effect:none;fill:#808080;fill-opacity:1;fill-rule:nonzero;stroke:none;stroke-width:9.84252;stroke-linecap:round;stroke-linejoin:round;stroke-miterlimit:4;stroke-dasharray:none;stroke-dashoffset:0;stroke-opacity:1;color-rendering:auto;image-rendering:auto;shape-rendering:auto;text-rendering:auto;enable-background:accumulate;stop-color:#000000;stop-opacity:1" /><path
     id="path2249"
     d="m 4684.666,709.61133 c -1.6327,0 -3.8198,0.49429 -5.4668,2.10351 -1.6469,1.60923 -2.2771,3.82685 -2.3554,5.81055 -0.1464,3.70755 1.1488,7.80582 3.6523,13.64649 v 407.91992 c -2.3957,4.2695 -2.983,9.3019 -0.1133,13.0547 3.079,4.0263 8.392,5.0002 14.0977,4.0605 20.0559,0.013 46.7753,6.5434 68.955,-3.4375 a 4.921752,4.921752 0 0 0 2.9024,-4.5468 l -5,-415.94145 v -0.01 c 0,-6.63969 1.1654,-9.54541 0.1191,-13.99218 -0.5234,-2.22477 -2.7635,-4.75343 -4.8886,-5.60938 -2.1251,-0.85594 -4.0571,-1.02465 -6.6622,-1.28515 a 4.921752,4.921752 0 0 0 -0.6679,-0.0215 l -53.8477,1.95899 c -0.1337,-0.1242 -1.3473,-0.72558 -3.082,-1.54883 -2.062,-0.97856 -4.3772,-2.16211 -7.6426,-2.16211 z m 2.4785,10.7207 c 0.4342,0.16009 0.4953,0.12134 0.9434,0.33399 1.6255,0.77144 2.545,1.54234 4.7734,2.28515 a 4.921752,4.921752 0 0 0 1.7344,0.24805 l 54.5684,-1.98438 c 1.5408,0.16835 2.139,0.30501 2.6777,0.42188 -0.086,0.61914 -0.3457,3.98354 -0.3457,10.64453 a 4.921752,4.921752 0 0 0 0,0.0606 l 4.957,412.46485 c -17.5762,6.2985 -41.2523,1.5547 -62.0371,1.5547 a 4.921752,4.921752 0 0 0 -0.9648,0.096 c -3.9483,0.7897 -5.2438,-0.2808 -5.25,-0.289 -0.01,-0.01 -0.532,-0.5717 1.2207,-3.0254 a 4.921752,4.921752 0 0 0 0.916,-2.8614 V 730.28125 a 4.921752,4.921752 0 0 0 -0.416,-1.98047 c -1.6461,-3.74107 -2.3656,-6.18689 -2.7774,-7.96875 z"
     style="color:#000000;font-style:normal;font-variant:normal;font-weight:normal;font-stretch:normal;font-size:medium;line-height:normal;font-family:sans-serif;font-variant-ligatures:normal;font-variant-position:normal;font-variant-caps:normal;font-variant-numeric:normal;font-variant-alternates:normal;font-variant-east-asian:normal;font-feature-settings:normal;font-variation-settings:normal;text-indent:0;text-align:start;text-decoration:none;text-decoration-line:none;text-decoration-style:solid;text-decoration-color:#000000;letter-spacing:normal;word-spacing:normal;text-transform:none;writing-mode:lr-tb;direction:ltr;text-orientation:mixed;dominant-baseline:auto;baseline-shift:baseline;text-anchor:start;white-space:normal;shape-padding:0;shape-margin:0;inline-size:0;clip-rule:nonzero;display:inline;overflow:visible;visibility:visible;isolation:auto;mix-blend-mode:normal;color-interpolation:sRGB;color-interpolation-filters:linearRGB;solid-color:#000000;solid-opacity:1;vector-effect:none;fill:#2b2a29;fill-opacity:1;fill-rule:nonzero;stroke:none;stroke-width:9.84252;stroke-linecap:round;stroke-linejoin:round;stroke-miterlimit:4;stroke-dasharray:none;stroke-dashoffset:0;stroke-opacity:1;color-rendering:auto;image-rendering:auto;shape-rendering:auto;text-rendering:auto;enable-background:accumulate;stop-color:#000000;stop-opacity:1" /></g><g
   transform="translate(-4047.8619,22.315399)"
   style="opacity:1"
   id="g2233"><path
     id="path2235"
     d="m 4795.4167,1140.2818 v -410 c 0,-27 6,-12 9,-12 l 55,-2 c 10,0 7,2 7,16 l 5,416 c 0,22 -47,2 -67,3 -11,1 -9,-2 -9,-11 z"
     style="color:#000000;font-style:normal;font-variant:normal;font-weight:normal;font-stretch:normal;font-size:medium;line-height:normal;font-family:sans-serif;font-variant-ligatures:normal;font-variant-position:normal;font-variant-caps:normal;font-variant-numeric:normal;font-variant-alternates:normal;font-variant-east-asian:normal;font-feature-settings:normal;font-variation-settings:normal;text-indent:0;text-align:start;text-decoration:none;text-decoration-line:none;text-decoration-style:solid;text-decoration-color:#000000;letter-spacing:normal;word-spacing:normal;text-transform:none;writing-mode:lr-tb;direction:ltr;text-orientation:mixed;dominant-baseline:auto;baseline-shift:baseline;text-anchor:start;white-space:normal;shape-padding:0;shape-margin:0;inline-size:0;clip-rule:nonzero;display:inline;overflow:visible;visibility:visible;isolation:auto;mix-blend-mode:normal;color-interpolation:sRGB;color-interpolation-filters:linearRGB;solid-color:#000000;solid-opacity:1;vector-effect:none;fill:#808080;fill-opacity:1;fill-rule:nonzero;stroke:none;stroke-width:9.84252;stroke-linecap:round;stroke-linejoin:round;stroke-miterlimit:4;stroke-dasharray:none;stroke-dashoffset:0;stroke-opacity:1;color-rendering:auto;image-rendering:auto;shape-rendering:auto;text-rendering:auto;enable-background:accumulate;stop-color:#000000;stop-opacity:1" /><path
     id="path2237"
     d="m 4799.7578,709.33203 c -1.8298,-0.36597 -4.578,0.51134 -5.9062,1.95508 -1.3283,1.44374 -1.8064,2.896 -2.2188,4.51367 -0.8247,3.23535 -1.1367,7.5482 -1.1367,14.48047 v 409.99995 c 0,4.1355 -1.3219,7.0183 0.8945,11.4512 1.1083,2.2165 3.7146,3.8687 5.9824,4.3379 2.2679,0.4692 4.5308,0.3822 7.4883,0.1133 l -0.1992,0.014 c 8.1737,-0.4087 25.2776,4.1263 40.0293,6.3261 7.3759,1.0999 14.2695,1.7102 20.3145,0.1289 3.0224,-0.7906 5.9569,-2.2493 8.1054,-4.7812 2.1485,-2.5319 3.2266,-5.9637 3.2266,-9.5899 a 4.921752,4.921752 0 0 0 0,-0.058 l -5,-415.94145 v -0.01 c 0,-6.64021 1.1262,-9.83631 0.1328,-14.30664 -0.497,-2.23653 -2.77,-4.95057 -5.0703,-5.78125 -2.3004,-0.83068 -4.3203,-0.82226 -6.9844,-0.82226 a 4.921752,4.921752 0 0 0 -0.1777,0.002 l -53.5606,1.94727 c -0.1672,-0.15937 -0.2304,-0.20699 -0.4531,-0.42969 -0.9844,-0.98438 -1.8071,-2.81689 -5.4668,-3.54883 z m 59.6836,11.87305 c 1.5204,0.002 1.8268,0.0862 2.3848,0.15625 -0.058,0.88976 -0.3301,4.32982 -0.3301,10.91992 a 4.921752,4.921752 0 0 0 0,0.0606 l 5,415.94535 c 0,1.8682 -0.3914,2.6265 -0.8906,3.2149 -0.5,0.5891 -1.3936,1.1851 -3.0899,1.6289 -3.3925,0.8874 -9.4989,0.6833 -16.373,-0.3418 -13.7483,-2.0502 -30.1444,-7.0132 -41.9707,-6.4219 a 4.921752,4.921752 0 0 0 -0.2012,0.014 c -1.9934,0.1812 -2.8714,0.099 -3.6094,0.039 0.041,-1.0187 -0.023,-2.9146 -0.023,-6.1386 V 730.28125 c 0,-3.6355 0.1415,-6.28772 0.3281,-8.35156 0.767,0.59737 1.7592,1.27343 3.75,1.27343 a 4.921752,4.921752 0 0 0 0.1797,-0.004 z"
     style="color:#000000;font-style:normal;font-variant:normal;font-weight:normal;font-stretch:normal;font-size:medium;line-height:normal;font-family:sans-serif;font-variant-ligatures:normal;font-variant-position:normal;font-variant-caps:normal;font-variant-numeric:normal;font-variant-alternates:normal;font-variant-east-asian:normal;font-feature-settings:normal;font-variation-settings:normal;text-indent:0;text-align:start;text-decoration:none;text-decoration-line:none;text-decoration-style:solid;text-decoration-color:#000000;letter-spacing:normal;word-spacing:normal;text-transform:none;writing-mode:lr-tb;direction:ltr;text-orientation:mixed;dominant-baseline:auto;baseline-shift:baseline;text-anchor:start;white-space:normal;shape-padding:0;shape-margin:0;inline-size:0;clip-rule:nonzero;display:inline;overflow:visible;visibility:visible;isolation:auto;mix-blend-mode:normal;color-interpolation:sRGB;color-interpolation-filters:linearRGB;solid-color:#000000;solid-opacity:1;vector-effect:none;fill:#2b2a29;fill-opacity:1;fill-rule:nonzero;stroke:none;stroke-width:9.84252;stroke-linecap:round;stroke-linejoin:round;stroke-miterlimit:4;stroke-dasharray:none;stroke-dashoffset:0;stroke-opacity:1;color-rendering:auto;image-rendering:auto;shape-rendering:auto;text-rendering:auto;enable-background:accumulate;stop-color:#000000;stop-opacity:1" /></g><g
   transform="translate(-4047.8619,22.315399)"
   style="opacity:1"
   id="g2209"><path
     id="path2211"
     d="m 5350.4167,691.2818 -320,-10 c -16,-1 -21,3 -22,39 l -6,409 c 0,34 -2,29 26,28 l 344,-14 c 26,-1 16,-39 15,-60 l -6,-363 c 0,-44 -14,-28 -31,-29 z"
     style="color:#000000;font-style:normal;font-variant:normal;font-weight:normal;font-stretch:normal;font-size:medium;line-height:normal;font-family:sans-serif;font-variant-ligatures:normal;font-variant-position:normal;font-variant-caps:normal;font-variant-numeric:normal;font-variant-alternates:normal;font-variant-east-asian:normal;font-feature-settings:normal;font-variation-settings:normal;text-indent:0;text-align:start;text-decoration:none;text-decoration-line:none;text-decoration-style:solid;text-decoration-color:#000000;letter-spacing:normal;word-spacing:normal;text-transform:none;writing-mode:lr-tb;direction:ltr;text-orientation:mixed;dominant-baseline:auto;baseline-shift:baseline;text-anchor:start;white-space:normal;shape-padding:0;shape-margin:0;inline-size:0;clip-rule:nonzero;display:inline;overflow:visible;visibility:visible;isolation:auto;mix-blend-mode:normal;color-interpolation:sRGB;color-interpolation-filters:linearRGB;solid-color:#000000;solid-opacity:1;vector-effect:none;fill:#808080;fill-opacity:1;fill-rule:nonzero;stroke:none;stroke-width:9.84252;stroke-linecap:round;stroke-linejoin:round;stroke-miterlimit:4;stroke-dasharray:none;stroke-dashoffset:0;stroke-opacity:1;color-rendering:auto;image-rendering:auto;shape-rendering:auto;text-rendering:auto;enable-background:accumulate;stop-color:#000000;stop-opacity:1" /><path
     id="path2213"
     d="m 5024.6602,676.26562 c -1.9436,0.0975 -3.8215,0.36227 -5.668,0.9004 -3.693,1.07624 -7.1254,3.54961 -9.3692,7.12304 -4.4875,7.14687 -5.6188,17.63296 -6.125,35.85547 a 4.921752,4.921752 0 0 0 0,0.0644 l -6,409.00007 a 4.921752,4.921752 0 0 0 0,0.072 c 0,8.4518 -0.1383,14.4867 0.1328,19.1466 0.2711,4.6597 0.7922,8.5695 3.8828,11.5313 3.0906,2.9618 7.039,3.1556 11.1328,3.0703 4.0938,-0.085 9.0956,-0.5854 15.9473,-0.8301 a 4.921752,4.921752 0 0 0 0.025,0 l 343.9883,-14 c 7.7082,-0.2965 13.8568,-3.8077 17.3515,-9.0195 3.4948,-5.2118 4.6637,-11.5543 5,-18.1465 0.6719,-13.1692 -2.1465,-28.0826 -2.6211,-37.9453 l -5.998,-362.88678 v 0.0801 c 0,-11.26098 -0.8202,-18.88851 -2.709,-24.51758 -1.8888,-5.62907 -5.6095,-9.57409 -9.9707,-10.83398 -4.3612,-1.2599 -8.3367,-0.40804 -12.1035,0.27539 -3.7668,0.68342 -7.4071,1.36656 -10.8496,1.16406 a 4.921752,4.921752 0 0 0 -0.1348,-0.006 l -320,-10 0.1543,0.008 c -2.1099,-0.13186 -4.1208,-0.20299 -6.0644,-0.10547 z m 0.5156,9.85547 c 1.3962,-0.0704 3.0435,-0.0459 4.9336,0.0723 a 4.921752,4.921752 0 0 0 0.1543,0.008 l 320,10 -0.1367,-0.006 c 5.0575,0.2975 9.5441,-0.64631 13.1835,-1.30664 3.6395,-0.66032 6.3515,-0.86901 7.6153,-0.5039 1.2638,0.3651 2.1056,0.73258 3.373,4.50976 1.2675,3.77718 2.1973,10.6477 2.1973,21.38672 a 4.921752,4.921752 0 0 0 0,0.082 l 6,363.00007 a 4.921752,4.921752 0 0 0 0.01,0.1523 c 0.5303,11.1377 3.2023,25.7001 2.625,37.0156 -0.2887,5.6578 -1.4323,10.3154 -3.3438,13.1661 -1.9115,2.8506 -4.2629,4.4625 -9.5547,4.6659 a 4.921752,4.921752 0 0 0 -0.012,0 l -344,14 c -7.132,0.2557 -12.3762,0.7535 -15.7773,0.8243 -3.4062,0.071 -4.2078,-0.4228 -4.1172,-0.336 0.091,0.087 -0.6383,-1.0641 -0.8672,-4.998 -0.228,-3.9187 -0.1181,-10.006 -0.1172,-18.502 v -0.021 l 6,-408.94133 c 0.4951,-17.75763 2.36,-27.26613 4.6211,-30.86718 1.1312,-1.80157 2.0113,-2.3907 3.7871,-2.90821 0.8879,-0.25875 2.0334,-0.42369 3.4297,-0.49414 z"
     style="color:#000000;font-style:normal;font-variant:normal;font-weight:normal;font-stretch:normal;font-size:medium;line-height:normal;font-family:sans-serif;font-variant-ligatures:normal;font-variant-position:normal;font-variant-caps:normal;font-variant-numeric:normal;font-variant-alternates:normal;font-variant-east-asian:normal;font-feature-settings:normal;font-variation-settings:normal;text-indent:0;text-align:start;text-decoration:none;text-decoration-line:none;text-decoration-style:solid;text-decoration-color:#000000;letter-spacing:normal;word-spacing:normal;text-transform:none;writing-mode:lr-tb;direction:ltr;text-orientation:mixed;dominant-baseline:auto;baseline-shift:baseline;text-anchor:start;white-space:normal;shape-padding:0;shape-margin:0;inline-size:0;clip-rule:nonzero;display:inline;overflow:visible;visibility:visible;isolation:auto;mix-blend-mode:normal;color-interpolation:sRGB;color-interpolation-filters:linearRGB;solid-color:#000000;solid-opacity:1;vector-effect:none;fill:#2b2a29;fill-opacity:1;fill-rule:nonzero;stroke:none;stroke-width:9.84252;stroke-linecap:round;stroke-linejoin:round;stroke-miterlimit:4;stroke-dasharray:none;stroke-dashoffset:0;stroke-opacity:1;color-rendering:auto;image-rendering:auto;shape-rendering:auto;text-rendering:auto;enable-background:accumulate;stop-color:#000000;stop-opacity:1" /></g><g
   transform="translate(-4047.8619,22.315399)"
   style="opacity:1"
   id="g2203"><path
     id="path2205"
     d="m 4530.4167,695.2818 -320,3 c -16,1 -21,4 -21,39 l -6,381 c -1,34 -3,29 25,29 l 344,-1 c 27,0 16,-38 16,-59 l -6,-364 c -1,-44 -15,-28 -32,-28 z"
     style="color:#000000;font-style:normal;font-variant:normal;font-weight:normal;font-stretch:normal;font-size:medium;line-height:normal;font-family:sans-serif;font-variant-ligatures:normal;font-variant-position:normal;font-variant-caps:normal;font-variant-numeric:normal;font-variant-alternates:normal;font-variant-east-asian:normal;font-feature-settings:normal;font-variation-settings:normal;text-indent:0;text-align:start;text-decoration:none;text-decoration-line:none;text-decoration-style:solid;text-decoration-color:#000000;letter-spacing:normal;word-spacing:normal;text-transform:none;writing-mode:lr-tb;direction:ltr;text-orientation:mixed;dominant-baseline:auto;baseline-shift:baseline;text-anchor:start;white-space:normal;shape-padding:0;shape-margin:0;inline-size:0;clip-rule:nonzero;display:inline;overflow:visible;visibility:visible;isolation:auto;mix-blend-mode:normal;color-interpolation:sRGB;color-interpolation-filters:linearRGB;solid-color:#000000;solid-opacity:1;vector-effect:none;fill:#808080;fill-opacity:1;fill-rule:nonzero;stroke:none;stroke-width:9.84252;stroke-linecap:round;stroke-linejoin:round;stroke-miterlimit:4;stroke-dasharray:none;stroke-dashoffset:0;stroke-opacity:1;color-rendering:auto;image-rendering:auto;shape-rendering:auto;text-rendering:auto;enable-background:accumulate;stop-color:#000000;stop-opacity:1" /><path
     id="path2207"
     d="m 4550.4102,687.51562 c -3.1785,-0.17729 -6.1534,0.52196 -9.0118,1.14649 -3.8112,0.8327 -7.5043,1.69922 -10.9824,1.69922 a 4.921752,4.921752 0 0 0 -0.045,0 l -320,3 a 4.921752,4.921752 0 0 0 -0.2617,0.01 c -4.137,0.25856 -7.844,0.61095 -11.375,1.86914 -3.5311,1.25819 -6.8264,3.68671 -9.002,7.20118 -4.3512,7.02893 -5.2363,17.10549 -5.2363,34.83984 v -0.0762 l -6,381.00001 c -0.2481,8.4009 -0.5711,14.4259 -0.4531,19.0761 0.1183,4.6669 0.4896,8.5721 3.4453,11.6563 2.9556,3.0842 6.9022,3.4473 10.9863,3.5156 4.0841,0.068 9.0879,-0.25 15.9414,-0.25 a 4.921752,4.921752 0 0 0 0.016,0 l 343.9844,-1 c 7.9044,0 14.2647,-3.2185 17.9024,-8.3359 3.6376,-5.1174 4.8017,-11.4215 5.1386,-17.957 0.6738,-13.0711 -2.1191,-27.9882 -2.1191,-37.629 a 4.921752,4.921752 0 0 0 0,-0.08 l -6,-364.00002 a 4.921752,4.921752 0 0 0 0,-0.0312 c -0.256,-11.26755 -1.2723,-18.90764 -3.33,-24.51953 -2.0577,-5.61189 -5.9163,-9.47484 -10.3477,-10.63086 -1.1078,-0.289 -2.1886,-0.44481 -3.248,-0.50391 z m -2.209,9.96876 c 1.3009,-0.12733 2.3133,-0.1134 2.9726,0.0586 1.3186,0.34398 2.212,0.73299 3.5918,4.49609 1.3798,3.76311 2.4866,10.62302 2.7305,21.35547 l 6,363.96876 v -0.082 c 0,11.3593 2.7071,25.9442 2.1309,37.1231 -0.2882,5.5895 -1.4365,10.0959 -3.3301,12.7598 -1.8936,2.6638 -4.2853,4.1972 -9.8809,4.1972 a 4.921752,4.921752 0 0 0 -0.014,0 l -344,1 c -7.1369,6e-4 -12.38,0.3066 -15.7617,0.25 -3.3846,-0.057 -4.1255,-0.5685 -4.0449,-0.4843 0.081,0.084 -0.6125,-1.1376 -0.7129,-5.0958 -0.1004,-3.9581 0.2016,-10.0537 0.4531,-18.6054 a 4.921752,4.921752 0 0 0 0,-0.066 l 6,-381.00001 a 4.921752,4.921752 0 0 0 0,-0.0781 c 0,-17.26565 1.6149,-26.18713 3.7637,-29.6582 1.0743,-1.73554 2.0291,-2.43202 3.9355,-3.11133 1.8907,-0.6737 4.7879,-1.06854 8.6035,-1.31055 l 319.7754,-2.99805 c 5.022,0 9.4558,-1.13348 13.082,-1.92578 1.8132,-0.39615 3.4023,-0.66564 4.7032,-0.79296 z"
     style="color:#000000;font-style:normal;font-variant:normal;font-weight:normal;font-stretch:normal;font-size:medium;line-height:normal;font-family:sans-serif;font-variant-ligatures:normal;font-variant-position:normal;font-variant-caps:normal;font-variant-numeric:normal;font-variant-alternates:normal;font-variant-east-asian:normal;font-feature-settings:normal;font-variation-settings:normal;text-indent:0;text-align:start;text-decoration:none;text-decoration-line:none;text-decoration-style:solid;text-decoration-color:#000000;letter-spacing:normal;word-spacing:normal;text-transform:none;writing-mode:lr-tb;direction:ltr;text-orientation:mixed;dominant-baseline:auto;baseline-shift:baseline;text-anchor:start;white-space:normal;shape-padding:0;shape-margin:0;inline-size:0;clip-rule:nonzero;display:inline;overflow:visible;visibility:visible;isolation:auto;mix-blend-mode:normal;color-interpolation:sRGB;color-interpolation-filters:linearRGB;solid-color:#000000;solid-opacity:1;vector-effect:none;fill:#2b2a29;fill-opacity:1;fill-rule:nonzero;stroke:none;stroke-width:9.84252;stroke-linecap:round;stroke-linejoin:round;stroke-miterlimit:4;stroke-dasharray:none;stroke-dashoffset:0;stroke-opacity:1;color-rendering:auto;image-rendering:auto;shape-rendering:auto;text-rendering:auto;enable-background:accumulate;stop-color:#000000;stop-opacity:1" /></g><g
   transform="translate(-4047.8619,22.315399)"
   style="opacity:1"
   id="g2197"><path
     id="path2199"
     d="m 5402.4167,172.12042 -104,-9 c -6,0 -7,3 -7,33 l -2,343 c -1,29 -1,25 8,24 l 112,-12 c 9,-1 6,-32 6,-50 l -2,-305 c -1,-37 -5,-24 -11,-24 z"
     style="color:#000000;font-style:normal;font-variant:normal;font-weight:normal;font-stretch:normal;font-size:medium;line-height:normal;font-family:sans-serif;font-variant-ligatures:normal;font-variant-position:normal;font-variant-caps:normal;font-variant-numeric:normal;font-variant-alternates:normal;font-variant-east-asian:normal;font-feature-settings:normal;font-variation-settings:normal;text-indent:0;text-align:start;text-decoration:none;text-decoration-line:none;text-decoration-style:solid;text-decoration-color:#000000;letter-spacing:normal;word-spacing:normal;text-transform:none;writing-mode:lr-tb;direction:ltr;text-orientation:mixed;dominant-baseline:auto;baseline-shift:baseline;text-anchor:start;white-space:normal;shape-padding:0;shape-margin:0;inline-size:0;clip-rule:nonzero;display:inline;overflow:visible;visibility:visible;isolation:auto;mix-blend-mode:normal;color-interpolation:sRGB;color-interpolation-filters:linearRGB;solid-color:#000000;solid-opacity:1;vector-effect:none;fill:#808080;fill-opacity:1;fill-rule:nonzero;stroke:none;stroke-width:9.84252;stroke-linecap:round;stroke-linejoin:round;stroke-miterlimit:4;stroke-dasharray:none;stroke-dashoffset:0;stroke-opacity:1;color-rendering:auto;image-rendering:auto;shape-rendering:auto;text-rendering:auto;enable-background:accumulate;stop-color:#000000;stop-opacity:1" /><path
     id="path2201"
     d="m 5298.416,158.19922 c -1.9101,0 -4.4912,0.24919 -6.6992,2.01562 -2.208,1.76643 -3.2342,4.30097 -3.8535,7.08789 -1.2387,5.57386 -1.3672,13.76368 -1.3672,28.81836 l -2,342.88282 c -0.2487,7.20941 -0.4375,12.40034 -0.4375,16.24218 0,3.85433 -0.039,6.25686 1.0391,8.95118 0.5388,1.34715 1.6782,2.91113 3.2402,3.75 1.562,0.83887 3.05,0.89222 4.1367,0.83789 2.1657,-0.10829 3.5847,-0.56028 5.4668,-0.77149 l 0.02,-0.002 111.9805,-11.99805 a 4.921752,4.921752 0 0 0 0.02,-0.002 c 2.5268,-0.28075 4.7734,-1.79926 6.1465,-3.52344 1.3732,-1.72418 2.1595,-3.63294 2.7637,-5.67578 1.2084,-4.08567 1.6432,-8.87765 1.8379,-14.13477 0.3894,-10.51423 -0.3711,-22.83004 -0.3711,-31.55664 a 4.921752,4.921752 0 0 0 0,-0.0332 l -2,-305 a 4.921752,4.921752 0 0 0 0,-0.0996 c -0.2526,-9.34635 -0.6814,-15.58923 -1.3515,-19.9707 -0.6701,-4.38147 -1.0135,-7.34247 -4.2832,-9.74024 -1.6349,-1.19888 -3.974,-1.43524 -5.416,-1.14062 -1.4421,0.29461 -2.3164,0.7941 -3.0254,1.16211 -1.3928,0.72285 -2.0485,0.87888 -1.8106,0.88476 l -103.6074,-8.96679 a 4.921752,4.921752 0 0 0 -0.4258,-0.0176 z m -0.1562,9.84766 103.7324,8.97656 a 4.921752,4.921752 0 0 0 0.4238,0.0176 c 1.9281,0 3.3149,-0.48429 4.4395,-1.01172 0.1498,0.52255 0.2804,0.69189 0.4004,1.47656 0.5478,3.58208 0.9926,9.58357 1.2402,18.71484 l 2,304.93164 c 0,9.2699 0.7372,21.43426 0.3769,31.16016 -0.1802,4.86788 -0.681,9.1384 -1.4414,11.70898 -0.3667,1.23992 -0.7893,1.98959 -0.9863,2.25391 l -111.5527,11.95117 a 4.921752,4.921752 0 0 0 -0.02,0.002 c -1.4711,0.16346 -1.8772,0.25966 -2.7578,0.41015 -0.1014,-0.82175 -0.2148,-1.13764 -0.2148,-3.39258 0,-3.52067 0.1854,-8.70313 0.4355,-15.95703 a 4.921752,4.921752 0 0 0 0,-0.14062 l 2,-343 a 4.921752,4.921752 0 0 0 0,-0.0273 c 0,-14.94532 0.3714,-23.25744 1.1328,-26.68359 0.3406,-1.53257 0.5296,-1.53348 0.3535,-1.375 0.08,-0.006 0.2065,-0.0104 0.4356,-0.0156 z"
     style="color:#000000;font-style:normal;font-variant:normal;font-weight:normal;font-stretch:normal;font-size:medium;line-height:normal;font-family:sans-serif;font-variant-ligatures:normal;font-variant-position:normal;font-variant-caps:normal;font-variant-numeric:normal;font-variant-alternates:normal;font-variant-east-asian:normal;font-feature-settings:normal;font-variation-settings:normal;text-indent:0;text-align:start;text-decoration:none;text-decoration-line:none;text-decoration-style:solid;text-decoration-color:#000000;letter-spacing:normal;word-spacing:normal;text-transform:none;writing-mode:lr-tb;direction:ltr;text-orientation:mixed;dominant-baseline:auto;baseline-shift:baseline;text-anchor:start;white-space:normal;shape-padding:0;shape-margin:0;inline-size:0;clip-rule:nonzero;display:inline;overflow:visible;visibility:visible;isolation:auto;mix-blend-mode:normal;color-interpolation:sRGB;color-interpolation-filters:linearRGB;solid-color:#000000;solid-opacity:1;vector-effect:none;fill:#2b2a29;fill-opacity:1;fill-rule:nonzero;stroke:none;stroke-width:9.84252;stroke-linecap:round;stroke-linejoin:round;stroke-miterlimit:4;stroke-dasharray:none;stroke-dashoffset:0;stroke-opacity:1;color-rendering:auto;image-rendering:auto;shape-rendering:auto;text-rendering:auto;enable-background:accumulate;stop-color:#000000;stop-opacity:1" /></g><path
   id="path1949"
   d="m 1320.4994,853.67672 -358,4 a 4.9212599,4.9212599 0 0 0 -4.8652,4.97461 4.9212599,4.9212599 0 0 0 4.9766,4.86718 l 358,-4 a 4.9212599,4.9212599 0 0 0 4.8652,-4.97656 4.9212599,4.9212599 0 0 0 -4.9766,-4.86523 z"
   style="color:#000000;font-style:normal;font-variant:normal;font-weight:normal;font-stretch:normal;font-size:medium;line-height:normal;font-family:sans-serif;font-variant-ligatures:normal;font-variant-position:normal;font-variant-caps:normal;font-variant-numeric:normal;font-variant-alternates:normal;font-variant-east-asian:normal;font-feature-settings:normal;font-variation-settings:normal;text-indent:0;text-align:start;text-decoration:none;text-decoration-line:none;text-decoration-style:solid;text-decoration-color:#000000;letter-spacing:normal;word-spacing:normal;text-transform:none;writing-mode:lr-tb;direction:ltr;text-orientation:mixed;dominant-baseline:auto;baseline-shift:baseline;text-anchor:start;white-space:normal;shape-padding:0;shape-margin:0;inline-size:0;clip-rule:nonzero;display:inline;overflow:visible;visibility:visible;opacity:1;isolation:auto;mix-blend-mode:normal;color-interpolation:sRGB;color-interpolation-filters:linearRGB;solid-color:#000000;solid-opacity:1;vector-effect:none;fill:#2b2a29;fill-opacity:1;fill-rule:nonzero;stroke:none;stroke-width:9.84252;stroke-linecap:round;stroke-linejoin:round;stroke-miterlimit:4;stroke-dasharray:none;stroke-dashoffset:0;stroke-opacity:1;color-rendering:auto;image-rendering:auto;shape-rendering:auto;text-rendering:auto;enable-background:accumulate;stop-color:#000000;stop-opacity:1" /><path
   id="path1953"
   d="m 500.5131,857.67672 -357,3 a 4.9212599,4.9212599 0 0 0 -4.8789,4.96094 4.9212599,4.9212599 0 0 0 4.9629,4.88085 l 357,-3 a 4.9212599,4.9212599 0 0 0 4.8789,-4.96289 4.9212599,4.9212599 0 0 0 -4.9629,-4.8789 z"
   style="color:#000000;font-style:normal;font-variant:normal;font-weight:normal;font-stretch:normal;font-size:medium;line-height:normal;font-family:sans-serif;font-variant-ligatures:normal;font-variant-position:normal;font-variant-caps:normal;font-variant-numeric:normal;font-variant-alternates:normal;font-variant-east-asian:normal;font-feature-settings:normal;font-variation-settings:normal;text-indent:0;text-align:start;text-decoration:none;text-decoration-line:none;text-decoration-style:solid;text-decoration-color:#000000;letter-spacing:normal;word-spacing:normal;text-transform:none;writing-mode:lr-tb;direction:ltr;text-orientation:mixed;dominant-baseline:auto;baseline-shift:baseline;text-anchor:start;white-space:normal;shape-padding:0;shape-margin:0;inline-size:0;clip-rule:nonzero;display:inline;overflow:visible;visibility:visible;opacity:1;isolation:auto;mix-blend-mode:normal;color-interpolation:sRGB;color-interpolation-filters:linearRGB;solid-color:#000000;solid-opacity:1;vector-effect:none;fill:#2b2a29;fill-opacity:1;fill-rule:nonzero;stroke:none;stroke-width:9.84252;stroke-linecap:round;stroke-linejoin:round;stroke-miterlimit:4;stroke-dasharray:none;stroke-dashoffset:0;stroke-opacity:1;color-rendering:auto;image-rendering:auto;shape-rendering:auto;text-rendering:auto;enable-background:accumulate;stop-color:#000000;stop-opacity:1" /><g
   id="_1240679952"
   transform="translate(-4201.4452,-224.40281)">
   <g
   style="opacity:1"
   id="g2191"><path
     id="path2193"
     d="m 4312.984,411.91414 115,-9 c 6,0 8,3 8,33 l 2,343 c 0,29 1,25 -9,24 l -124,-12 c -10,-1 -6,-32 -6,-50 l 2,-305 c 1,-37 5,-24 12,-24 z"
     style="color:#000000;font-style:normal;font-variant:normal;font-weight:normal;font-stretch:normal;font-size:medium;line-height:normal;font-family:sans-serif;font-variant-ligatures:normal;font-variant-position:normal;font-variant-caps:normal;font-variant-numeric:normal;font-variant-alternates:normal;font-variant-east-asian:normal;font-feature-settings:normal;font-variation-settings:normal;text-indent:0;text-align:start;text-decoration:none;text-decoration-line:none;text-decoration-style:solid;text-decoration-color:#000000;letter-spacing:normal;word-spacing:normal;text-transform:none;writing-mode:lr-tb;direction:ltr;text-orientation:mixed;dominant-baseline:auto;baseline-shift:baseline;text-anchor:start;white-space:normal;shape-padding:0;shape-margin:0;inline-size:0;clip-rule:nonzero;display:inline;overflow:visible;visibility:visible;isolation:auto;mix-blend-mode:normal;color-interpolation:sRGB;color-interpolation-filters:linearRGB;solid-color:#000000;solid-opacity:1;vector-effect:none;fill:#808080;fill-opacity:1;fill-rule:nonzero;stroke:none;stroke-width:9.84252;stroke-linecap:round;stroke-linejoin:round;stroke-miterlimit:4;stroke-dasharray:none;stroke-dashoffset:0;stroke-opacity:1;color-rendering:auto;image-rendering:auto;shape-rendering:auto;text-rendering:auto;enable-background:accumulate;stop-color:#000000;stop-opacity:1" /><path
     id="path2195"
     d="m 4427.9844,397.99219 a 4.921752,4.921752 0 0 0 -0.3848,0.0156 l -114.6465,8.97266 c -0.2389,-0.007 -1.0711,-0.27836 -2.5781,-0.98047 -0.7626,-0.3553 -1.6751,-0.81799 -3.0938,-1.08398 -1.4186,-0.266 -3.6562,-0.0864 -5.3359,1.06836 -3.3593,2.30954 -3.8196,5.40876 -4.5098,9.80859 -0.6901,4.39983 -1.1184,10.64193 -1.371,19.98828 a 4.921752,4.921752 0 0 0 0,0.10156 l -2,305 a 4.921752,4.921752 0 0 0 0,0.0312 c 0,8.63546 -1.0085,20.94944 -0.748,31.4961 0.1302,5.27333 0.5239,10.09929 1.8125,14.25781 0.6442,2.07926 1.5118,4.0446 3.0078,5.77148 1.4959,1.72688 3.8407,3.11923 6.3593,3.3711 a 4.921752,4.921752 0 0 0 0.016,0.002 l 124,12 c 2.1595,0.21751 3.6836,0.66369 5.8652,0.76758 1.0937,0.0521 2.5668,0.0126 4.1465,-0.82031 1.5797,-0.83295 2.7424,-2.42043 3.2812,-3.76758 1.0778,-2.69431 1.0368,-5.04787 1.1016,-8.86914 0.065,-3.82128 0,-8.98727 0,-16.20899 a 4.921752,4.921752 0 0 0 0,-0.0293 l -2,-342.97071 c 0,-15.10936 -0.3532,-23.39796 -1.9277,-29.0664 -0.7873,-2.83423 -2.0709,-5.34343 -4.3164,-6.97657 -2.2456,-1.63314 -4.7657,-1.8789 -6.6758,-1.8789 z m 0.8867,9.83984 c -0.1831,-0.13314 0.1584,-0.0173 0.6211,1.64844 0.9254,3.33155 1.5703,11.54295 1.5703,26.43359 a 4.921752,4.921752 0 0 0 0,0.0293 l 2,343 c 2e-4,7.25745 0.06,12.46449 0,16.01172 -0.039,2.32182 -0.1535,2.69262 -0.2598,3.51562 -0.9714,-0.15511 -1.573,-0.27762 -3.3281,-0.45312 a 4.921752,4.921752 0 0 0 -0.016,-0.002 l -123.9824,-11.99804 c 0.028,0.009 0.2933,0.20243 0.098,-0.0234 -0.1994,-0.23015 -0.6579,-0.99137 -1.0449,-2.24023 -0.7739,-2.49773 -1.2552,-6.73427 -1.375,-11.58594 -0.2393,-9.69296 0.7479,-21.86016 0.75,-31.2207 v -0.0332 l 2,-304.86718 c 0.2474,-9.15365 0.6941,-15.1596 1.2539,-18.72852 0.1492,-0.95128 0.3047,-1.20438 0.4805,-1.75977 1.3027,0.60748 2.9619,1.27735 5.3457,1.27735 a 4.921752,4.921752 0 0 0 0.3828,-0.0156 l 114.8105,-8.98437 c 0.5089,0.0296 0.8365,0.1002 0.6934,-0.004 z"
     style="color:#000000;font-style:normal;font-variant:normal;font-weight:normal;font-stretch:normal;font-size:medium;line-height:normal;font-family:sans-serif;font-variant-ligatures:normal;font-variant-position:normal;font-variant-caps:normal;font-variant-numeric:normal;font-variant-alternates:normal;font-variant-east-asian:normal;font-feature-settings:normal;font-variation-settings:normal;text-indent:0;text-align:start;text-decoration:none;text-decoration-line:none;text-decoration-style:solid;text-decoration-color:#000000;letter-spacing:normal;word-spacing:normal;text-transform:none;writing-mode:lr-tb;direction:ltr;text-orientation:mixed;dominant-baseline:auto;baseline-shift:baseline;text-anchor:start;white-space:normal;shape-padding:0;shape-margin:0;inline-size:0;clip-rule:nonzero;display:inline;overflow:visible;visibility:visible;isolation:auto;mix-blend-mode:normal;color-interpolation:sRGB;color-interpolation-filters:linearRGB;solid-color:#000000;solid-opacity:1;vector-effect:none;fill:#2b2a29;fill-opacity:1;fill-rule:nonzero;stroke:none;stroke-width:9.84252;stroke-linecap:round;stroke-linejoin:round;stroke-miterlimit:4;stroke-dasharray:none;stroke-dashoffset:0;stroke-opacity:1;color-rendering:auto;image-rendering:auto;shape-rendering:auto;text-rendering:auto;enable-background:accumulate;stop-color:#000000;stop-opacity:1" /></g>
   <path
   id="path1957"
   d="m 4305.9121,507.1543 a 4.9212599,4.9212599 0 0 0 -4.8476,4.80664 4.9212599,4.9212599 0 0 0 4.8046,5.03515 l 129,3 a 4.9212599,4.9212599 0 0 0 5.0352,-4.80664 4.9212599,4.9212599 0 0 0 -4.8066,-5.0332 l -129,-3 a 4.9212599,4.9212599 0 0 0 -0.1856,-0.002 z"
   style="color:#000000;font-style:normal;font-variant:normal;font-weight:normal;font-stretch:normal;font-size:medium;line-height:normal;font-family:sans-serif;font-variant-ligatures:normal;font-variant-position:normal;font-variant-caps:normal;font-variant-numeric:normal;font-variant-alternates:normal;font-variant-east-asian:normal;font-feature-settings:normal;font-variation-settings:normal;text-indent:0;text-align:start;text-decoration:none;text-decoration-line:none;text-decoration-style:solid;text-decoration-color:#000000;letter-spacing:normal;word-spacing:normal;text-transform:none;writing-mode:lr-tb;direction:ltr;text-orientation:mixed;dominant-baseline:auto;baseline-shift:baseline;text-anchor:start;white-space:normal;shape-padding:0;shape-margin:0;inline-size:0;clip-rule:nonzero;display:inline;overflow:visible;visibility:visible;opacity:1;isolation:auto;mix-blend-mode:normal;color-interpolation:sRGB;color-interpolation-filters:linearRGB;solid-color:#000000;solid-opacity:1;vector-effect:none;fill:#2b2a29;fill-opacity:1;fill-rule:nonzero;stroke:none;stroke-width:9.84252;stroke-linecap:round;stroke-linejoin:round;stroke-miterlimit:4;stroke-dasharray:none;stroke-dashoffset:0;stroke-opacity:1;color-rendering:auto;image-rendering:auto;shape-rendering:auto;text-rendering:auto;enable-background:accumulate;stop-color:#000000;stop-opacity:1" />
  </g><path
   id="path1961"
   d="m 1360.4291,289.67672 -117,3 a 4.9212599,4.9212599 0 0 0 -4.793,5.04687 4.9212599,4.9212599 0 0 0 5.045,4.79297 l 117,-3 a 4.9212599,4.9212599 0 0 0 4.7929,-5.04492 4.9212599,4.9212599 0 0 0 -5.0449,-4.79492 z"
   style="color:#000000;font-style:normal;font-variant:normal;font-weight:normal;font-stretch:normal;font-size:medium;line-height:normal;font-family:sans-serif;font-variant-ligatures:normal;font-variant-position:normal;font-variant-caps:normal;font-variant-numeric:normal;font-variant-alternates:normal;font-variant-east-asian:normal;font-feature-settings:normal;font-variation-settings:normal;text-indent:0;text-align:start;text-decoration:none;text-decoration-line:none;text-decoration-style:solid;text-decoration-color:#000000;letter-spacing:normal;word-spacing:normal;text-transform:none;writing-mode:lr-tb;direction:ltr;text-orientation:mixed;dominant-baseline:auto;baseline-shift:baseline;text-anchor:start;white-space:normal;shape-padding:0;shape-margin:0;inline-size:0;clip-rule:nonzero;display:inline;overflow:visible;visibility:visible;opacity:1;isolation:auto;mix-blend-mode:normal;color-interpolation:sRGB;color-interpolation-filters:linearRGB;solid-color:#000000;solid-opacity:1;vector-effect:none;fill:#2b2a29;fill-opacity:1;fill-rule:nonzero;stroke:none;stroke-width:9.84252;stroke-linecap:round;stroke-linejoin:round;stroke-miterlimit:4;stroke-dasharray:none;stroke-dashoffset:0;stroke-opacity:1;color-rendering:auto;image-rendering:auto;shape-rendering:auto;text-rendering:auto;enable-background:accumulate;stop-color:#000000;stop-opacity:1" /><path
   id="path427"
   d="m 155.5548,1166.5972 c 13,0 27,0 40,0 v 6 c -2,-16 77,-158 59,-160 -73,-6 -34,59 -46,60 -30,2 -42,68 -53,94 z"
   class="fil13 str2"
   style="font-variation-settings:normal;vector-effect:none;fill:#550000;fill-opacity:1;stroke:#333333;stroke-width:9.84252;stroke-linecap:round;stroke-linejoin:round;stroke-miterlimit:4;stroke-dasharray:none;stroke-dashoffset:0;stroke-opacity:1;stop-color:#000000" /><path
   id="path429"
   d="m 330.5548,1166.5972 c 13,0 27,0 40,0 v 6 c -2,-16 77,-158 59,-160 -73,-6 -34,59 -46,60 -30,2 -42,68 -53,94 z"
   class="fil13 str2"
   style="font-variation-settings:normal;vector-effect:none;fill:#550000;fill-opacity:1;stroke:#333333;stroke-width:9.84252;stroke-linecap:round;stroke-linejoin:round;stroke-miterlimit:4;stroke-dasharray:none;stroke-dashoffset:0;stroke-opacity:1;stop-color:#000000" /><path
   id="path431"
   d="m 974.5548,1177.5972 c 13,0 26,0 40,0 v 5 c -2,-15 77,-158 59,-159 -73,-6 -35,58 -47,59 -29,3 -41,69 -52,95 z"
   class="fil13 str2"
   style="font-variation-settings:normal;vector-effect:none;fill:#550000;fill-opacity:1;stroke:#333333;stroke-width:9.84252;stroke-linecap:round;stroke-linejoin:round;stroke-miterlimit:4;stroke-dasharray:none;stroke-dashoffset:0;stroke-opacity:1;stop-color:#000000" /><path
   id="path433"
   d="m 463.5548,1166.5972 c 14,0 27,0 40,0 v 2 h 1 c 1,-7 8,-23 17,-43 0,-6 -1,-12 -1,-16 l -1,-81 c -8,18 4,43 -3,44 -29,2 -42,68 -53,94 z"
   class="fil13 str2"
   style="font-variation-settings:normal;vector-effect:none;fill:#550000;fill-opacity:1;stroke:#333333;stroke-width:9.84252;stroke-linecap:round;stroke-linejoin:round;stroke-miterlimit:4;stroke-dasharray:none;stroke-dashoffset:0;stroke-opacity:1;stop-color:#000000" /><path
   id="path435"
   d="m 1120.5548,1177.5972 c 13,0 26,0 39,0 v 5 c -2,-15 78,-158 59,-159 -73,-6 -34,58 -46,59 -29,3 -42,69 -52,95 z"
   class="fil13 str2"
   style="font-variation-settings:normal;vector-effect:none;fill:#550000;fill-opacity:1;stroke:#333333;stroke-width:9.84252;stroke-linecap:round;stroke-linejoin:round;stroke-miterlimit:4;stroke-dasharray:none;stroke-dashoffset:0;stroke-opacity:1;stop-color:#000000" /><path
   id="path437"
   d="m 1251.3233,574.09993 c 13,0 27,0 40,0 v 6 c -2,-16 77,-158 59,-160 -73,-6 -34,58 -46,59 -30,3 -42,69 -53,95 z"
   class="fil13 str2"
   style="font-variation-settings:normal;vector-effect:none;fill:#550000;fill-opacity:1;stroke:#333333;stroke-width:9.84252;stroke-linecap:round;stroke-linejoin:round;stroke-miterlimit:4;stroke-dasharray:none;stroke-dashoffset:0;stroke-opacity:1;stop-color:#000000" /><path
   id="path439"
   d="m 1318.5548,1165.5972 c 5,-11 13,-30 22,-49 0,-4 -1,-8 -1,-11 l -1,-82 c -20,16 -1,52 -9,53 -29,2 -41,63 -52,91 z"
   class="fil13 str2"
   style="font-variation-settings:normal;vector-effect:none;fill:#550000;fill-opacity:1;stroke:#333333;stroke-width:9.84252;stroke-linecap:round;stroke-linejoin:round;stroke-miterlimit:4;stroke-dasharray:none;stroke-dashoffset:0;stroke-opacity:1;stop-color:#000000" /><path
   sodipodi:nodetypes="cccccccc"
   id="path441"
   d="m 192.5388,570.51133 h -40 v 0 h -1 c -5,-21 -38,-85 -53.000005,-123 v -31 c 67.000005,-3 30.000005,58 42.000005,59 29,3 41,69 52,95 z"
   class="fil13 str2"
   style="font-variation-settings:normal;vector-effect:none;fill:#550000;fill-opacity:1;stroke:#333333;stroke-width:9.84252;stroke-linecap:round;stroke-linejoin:round;stroke-miterlimit:4;stroke-dasharray:none;stroke-dashoffset:0;stroke-opacity:1;stop-color:#000000" /><g
   transform="translate(-4222.2838,-158.88898)"
   id="g1375"><g
     style="opacity:1"
     id="g1866"><path
       id="path1868"
       d="m 5368.4972,191.09912 -841.3396,28.06182 c -48.2564,1.60353 -33.5697,54.5201 -32.5206,102.62607 l 10.4905,355.98418 c 0,1.60354 12.5886,43.29537 55.5997,43.29537 h 820.3587 c 56.6488,0 43.0111,-64.94305 43.0111,-87.3925 V 246.42099 c 0,-65.74483 -35.6678,-56.12363 -55.5998,-55.32187 z"
       style="color:#000000;font-style:normal;font-variant:normal;font-weight:normal;font-stretch:normal;font-size:medium;line-height:normal;font-family:sans-serif;font-variant-ligatures:normal;font-variant-position:normal;font-variant-caps:normal;font-variant-numeric:normal;font-variant-alternates:normal;font-variant-east-asian:normal;font-feature-settings:normal;font-variation-settings:normal;text-indent:0;text-align:start;text-decoration:none;text-decoration-line:none;text-decoration-style:solid;text-decoration-color:#000000;letter-spacing:normal;word-spacing:normal;text-transform:none;writing-mode:lr-tb;direction:ltr;text-orientation:mixed;dominant-baseline:auto;baseline-shift:baseline;text-anchor:start;white-space:normal;shape-padding:0;shape-margin:0;inline-size:0;clip-rule:evenodd;display:inline;overflow:visible;visibility:visible;isolation:auto;mix-blend-mode:normal;color-interpolation:sRGB;color-interpolation-filters:linearRGB;solid-color:#000000;solid-opacity:1;vector-effect:none;fill:#4d4d4d;fill-opacity:1;fill-rule:evenodd;stroke:none;stroke-width:17.5646;stroke-linecap:round;stroke-linejoin:round;stroke-miterlimit:4;stroke-dasharray:none;stroke-dashoffset:0;stroke-opacity:1;color-rendering:auto;image-rendering:optimizeQuality;shape-rendering:geometricPrecision;text-rendering:geometricPrecision;enable-background:accumulate;stop-color:#000000;stop-opacity:1" /><path
       id="path1870"
       d="m 5385.6172,181.20508 c -6.9293,-0.0174 -13.0894,0.94282 -17.4727,1.11914 l -841.2793,28.05859 c -13.6813,0.45462 -24.6409,4.94083 -31.7968,12.82031 -7.1559,7.87949 -10.1565,18.10225 -11.3868,28.83204 -2.4604,21.45956 1.6692,46.7133 2.1758,69.94336 a 8.7831782,8.7831782 0 0 0 0,0.0664 l 10.4902,355.98438 v -0.25782 c 0,2.97295 0.27,2.33451 0.4355,2.96875 0.1656,0.63425 0.3713,1.31543 0.6348,2.11133 0.527,1.59181 1.2856,3.60675 2.336,5.95117 2.1007,4.68886 5.3526,10.67715 10.1953,16.71289 9.6854,12.07149 26.4361,24.33399 50.7793,24.33399 h 820.3593 c 15.8403,0 28.2733,-4.83094 36.711,-12.95508 8.4377,-8.12413 12.6123,-18.81302 14.6621,-29.44336 4.0995,-21.26067 0.4199,-44.33099 0.4199,-53.77734 V 246.42188 c 0,-17.23031 -2.2793,-30.11713 -6.625,-40.02149 -4.3457,-9.90436 -11.0917,-16.71226 -18.5508,-20.44727 -7.459,-3.735 -15.1566,-4.73063 -22.0859,-4.74804 z m -0.047,17.91015 c 5.3643,0.008 10.3202,0.56539 14.2695,2.54297 3.9494,1.97759 7.3652,5.04148 10.3301,11.79883 2.9649,6.75735 5.1446,17.32273 5.1446,32.96485 v 387.25195 c 0,13.00309 3.1403,33.62991 -0.1036,50.45312 -1.6219,8.41161 -4.6599,15.361 -9.5976,20.11524 -4.9377,4.75423 -12.0432,8.04297 -24.5274,8.04297 h -820.3593 c -18.6679,0 -29.7165,-8.58641 -37.0782,-17.76172 -3.6808,-4.58766 -6.2635,-9.32299 -7.8672,-12.90235 -0.8018,-1.78968 -1.3619,-3.29392 -1.6914,-4.28906 -0.1103,-0.33324 -0.1529,-0.49525 -0.2089,-0.68945 L 4503.418,321.5957 c -0.5425,-24.87591 -4.2832,-50.13445 -2.2852,-67.56054 0.999,-8.71305 3.3098,-15.02676 6.9395,-19.02344 3.6296,-3.99668 8.93,-6.72708 19.3769,-7.07422 l 841.3379,-28.06055 a 8.7831782,8.7831782 0 0 0 0.06,-0.002 c 5.5827,-0.22456 11.3564,-0.76741 16.7207,-0.75977 z"
       style="color:#000000;font-style:normal;font-variant:normal;font-weight:normal;font-stretch:normal;font-size:medium;line-height:normal;font-family:sans-serif;font-variant-ligatures:normal;font-variant-position:normal;font-variant-caps:normal;font-variant-numeric:normal;font-variant-alternates:normal;font-variant-east-asian:normal;font-feature-settings:normal;font-variation-settings:normal;text-indent:0;text-align:start;text-decoration:none;text-decoration-line:none;text-decoration-style:solid;text-decoration-color:#000000;letter-spacing:normal;word-spacing:normal;text-transform:none;writing-mode:lr-tb;direction:ltr;text-orientation:mixed;dominant-baseline:auto;baseline-shift:baseline;text-anchor:start;white-space:normal;shape-padding:0;shape-margin:0;inline-size:0;clip-rule:evenodd;display:inline;overflow:visible;visibility:visible;isolation:auto;mix-blend-mode:normal;color-interpolation:sRGB;color-interpolation-filters:linearRGB;solid-color:#000000;solid-opacity:1;vector-effect:none;fill:#2b2a29;fill-opacity:1;fill-rule:evenodd;stroke:none;stroke-width:17.5646;stroke-linecap:round;stroke-linejoin:round;stroke-miterlimit:4;stroke-dasharray:none;stroke-dashoffset:0;stroke-opacity:1;color-rendering:auto;image-rendering:optimizeQuality;shape-rendering:geometricPrecision;text-rendering:geometricPrecision;enable-background:accumulate;stop-color:#000000;stop-opacity:1" /></g><g
     style="font-style:normal;font-weight:normal;font-size:166.709px;line-height:1.25;font-family:sans-serif;letter-spacing:0px;word-spacing:0px;clip-rule:evenodd;fill:#ffffff;fill-opacity:1;fill-rule:evenodd;stroke:none;stroke-width:10.4193;image-rendering:optimizeQuality;shape-rendering:geometricPrecision;text-rendering:geometricPrecision"
     id="text1275-7"
     aria-label="300 kg"><path
       id="path1188"
       style="font-style:normal;font-variant:normal;font-weight:bold;font-stretch:normal;font-size:166.709px;font-family:Arial;-inkscape-font-specification:'Arial Bold';fill:#ffffff;stroke-width:10.4193"
       d="m 4707.4886,623.97019 22.141,-2.68623 q 1.0582,8.46569 5.6981,12.94274 4.6398,4.47705 11.2333,4.47705 7.0819,0 11.8845,-5.37246 4.8841,-5.37246 4.8841,-14.48936 0,-8.62849 -4.6399,-13.67534 -4.6398,-5.04686 -11.3147,-5.04686 -4.3956,0 -10.5007,1.70942 l 2.5234,-18.6408 q 9.2797,0.2442 14.1638,-3.98864 4.884,-4.31425 4.884,-11.39613 0,-6.02366 -3.5816,-9.6053 -3.5817,-3.58164 -9.5239,-3.58164 -5.8609,0 -10.0123,4.07005 -4.1515,4.07004 -5.0469,11.88452 l -21.0828,-3.58164 q 2.1978,-10.82631 6.5935,-17.25698 4.477,-6.51207 12.3729,-10.17511 7.9773,-3.74444 17.8268,-3.74444 16.85,0 27.0251,10.74491 8.3843,8.7913 8.3843,19.86182 0,15.71037 -17.1756,25.07147 10.2565,2.19782 16.3616,9.84951 6.1864,7.65168 6.1864,18.478 0,15.71036 -11.4775,26.78088 -11.4775,11.07052 -28.5717,11.07052 -16.1988,0 -26.8623,-9.2797 -10.6635,-9.3611 -12.3729,-24.42026 z" /><path
       id="path1190"
       style="font-style:normal;font-variant:normal;font-weight:bold;font-stretch:normal;font-size:166.709px;font-family:Arial;-inkscape-font-specification:'Arial Bold';fill:#ffffff;stroke-width:10.4193"
       d="m 4839.765,535.81304 q 17.3384,0 27.1065,12.37293 11.6403,14.65216 11.6403,48.59633 0,33.86276 -11.7217,48.67772 -9.6867,12.21013 -27.0251,12.21013 -17.4198,0 -28.0833,-13.34974 -10.6635,-13.43115 -10.6635,-47.78232 0,-33.69996 11.7217,-48.51492 9.6867,-12.21013 27.0251,-12.21013 z m 0,18.9664 q -4.1514,0 -7.4075,2.68623 -3.256,2.60483 -5.0468,9.4425 -2.3607,8.8727 -2.3607,29.87413 0,21.00142 2.1165,28.89731 2.1164,7.81448 5.291,10.41931 3.2561,2.60483 7.4075,2.60483 4.1514,0 7.4075,-2.60483 3.256,-2.68623 5.0468,-9.5239 2.3607,-8.7913 2.3607,-29.79272 0,-21.00143 -2.1165,-28.81591 -2.1164,-7.89589 -5.3724,-10.50072 -3.1747,-2.68623 -7.3261,-2.68623 z" /><path
       id="path1192"
       style="font-style:normal;font-variant:normal;font-weight:bold;font-stretch:normal;font-size:166.709px;font-family:Arial;-inkscape-font-specification:'Arial Bold';fill:#ffffff;stroke-width:10.4193"
       d="m 4932.562,535.81304 q 17.3384,0 27.1065,12.37293 11.6403,14.65216 11.6403,48.59633 0,33.86276 -11.7217,48.67772 -9.6867,12.21013 -27.0251,12.21013 -17.4198,0 -28.0833,-13.34974 -10.6635,-13.43115 -10.6635,-47.78232 0,-33.69996 11.7217,-48.51492 9.6867,-12.21013 27.0251,-12.21013 z m 0,18.9664 q -4.1514,0 -7.4075,2.68623 -3.256,2.60483 -5.0468,9.4425 -2.3607,8.8727 -2.3607,29.87413 0,21.00142 2.1165,28.89731 2.1164,7.81448 5.291,10.41931 3.2561,2.60483 7.4075,2.60483 4.1515,0 7.4075,-2.60483 3.256,-2.68623 5.0468,-9.5239 2.3607,-8.7913 2.3607,-29.79272 0,-21.00143 -2.1165,-28.81591 -2.1164,-7.89589 -5.3724,-10.50072 -3.1746,-2.68623 -7.3261,-2.68623 z" /><path
       id="path1194"
       style="font-style:normal;font-variant:normal;font-weight:bold;font-stretch:normal;font-size:166.709px;font-family:Arial;-inkscape-font-specification:'Arial Bold';fill:#ffffff;stroke-width:10.4193"
       d="M 5036.9993,655.63513 V 536.30144 h 22.8737 v 63.32989 l 26.7809,-30.44393 h 28.1647 l -29.5485,31.58354 31.6649,54.86419 h -24.6645 l -21.734,-38.82822 -10.6635,11.15192 v 27.6763 z" /><path
       id="path1196"
       style="font-style:normal;font-variant:normal;font-weight:bold;font-stretch:normal;font-size:166.709px;font-family:Arial;-inkscape-font-specification:'Arial Bold';fill:#ffffff;stroke-width:10.4193"
       d="m 5128.4939,661.33319 26.1297,3.17464 q 0.6512,4.55845 3.0118,6.26787 3.2561,2.44202 10.2565,2.44202 8.9541,0 13.4312,-2.68623 3.0118,-1.79082 4.5584,-5.77946 1.0582,-2.84903 1.0582,-10.50071 v -12.61714 q -10.2565,14.00095 -25.8854,14.00095 -17.4198,0 -27.5949,-14.73356 -7.9773,-11.64032 -7.9773,-28.97871 0,-21.73403 10.4193,-33.21156 10.5007,-11.47752 26.0483,-11.47752 16.0359,0 26.4553,14.08235 V 569.1874 h 21.4084 v 77.57504 q 0,15.30336 -2.5234,22.87364 -2.5235,7.57028 -7.0819,11.88453 -4.5585,4.31425 -12.2101,6.75627 -7.5703,2.44203 -19.2106,2.44203 -21.9783,0 -31.1766,-7.57028 -9.1983,-7.48888 -9.1983,-19.04781 0,-1.13961 0.081,-2.76763 z m 20.4316,-50.71274 q 0,13.75674 5.2911,20.18741 5.3725,6.34927 13.1869,6.34927 8.3843,0 14.1638,-6.51207 5.7795,-6.59347 5.7795,-19.45481 0,-13.43114 -5.5353,-19.94321 -5.5353,-6.51207 -14.001,-6.51207 -8.2214,0 -13.5939,6.43067 -5.2911,6.34926 -5.2911,19.45481 z" /></g><g
     style="font-style:normal;font-weight:normal;font-size:166.709px;line-height:1.25;font-family:sans-serif;letter-spacing:0px;word-spacing:0px;clip-rule:evenodd;fill:#ffffff;fill-opacity:1;fill-rule:evenodd;stroke:none;stroke-width:10.4193;image-rendering:optimizeQuality;shape-rendering:geometricPrecision;text-rendering:geometricPrecision"
     id="text1275-9-2-3"
     aria-label="15 castors"><path
       id="path1169"
       style="font-style:normal;font-variant:normal;font-weight:bold;font-stretch:normal;font-size:166.709px;font-family:Arial;-inkscape-font-specification:'Arial Bold';fill:#ffffff;stroke-width:10.4193"
       d="m 4635.0112,409.07004 h -22.8737 v -86.20353 q -12.5357,11.72172 -29.5485,17.33838 v -20.75722 q 8.9541,-2.93043 19.4548,-11.07052 10.5007,-8.22149 14.408,-19.12921 h 18.5594 z" /><path
       id="path1171"
       style="font-style:normal;font-variant:normal;font-weight:bold;font-stretch:normal;font-size:166.709px;font-family:Arial;-inkscape-font-specification:'Arial Bold';fill:#ffffff;stroke-width:10.4193"
       d="m 4654.0209,378.38191 22.7922,-2.36063 q 0.9768,7.73308 5.7795,12.29153 4.8026,4.47705 11.0705,4.47705 7.1633,0 12.1287,-5.77946 4.9655,-5.86086 4.9655,-17.58259 0,-10.98912 -4.9655,-16.44298 -4.884,-5.53526 -12.7799,-5.53526 -9.8495,0 -17.664,8.7099 l -18.5594,-2.68623 11.7217,-62.10887 h 60.4809 v 21.40843 h -43.1425 l -3.5816,20.26882 q 7.6517,-3.82584 15.6289,-3.82584 15.222,0 25.8041,11.07052 10.5821,11.07051 10.5821,28.73451 0,14.73355 -8.5471,26.29248 -11.6403,15.79177 -32.3161,15.79177 -16.5244,0 -26.9437,-8.8727 -10.4193,-8.87269 -12.4543,-23.85045 z" /><path
       id="path1173"
       style="font-style:normal;font-variant:normal;font-weight:bold;font-stretch:normal;font-size:166.709px;font-family:Arial;-inkscape-font-specification:'Arial Bold';fill:#ffffff;stroke-width:10.4193"
       d="m 4862.5986,348.18218 -22.548,4.07004 q -1.1396,-6.75627 -5.2097,-10.17511 -3.9886,-3.41883 -10.4193,-3.41883 -8.5471,0 -13.6753,5.94226 -5.0469,5.86087 -5.0469,19.69901 0,15.38477 5.1283,21.73404 5.2096,6.34927 13.9195,6.34927 6.5121,0 10.6635,-3.66304 4.1515,-3.74444 5.8609,-12.77994 l 22.4666,3.82584 q -3.5002,15.46617 -13.4311,23.36205 -9.9309,7.89589 -26.6181,7.89589 -18.9664,0 -30.2811,-11.96593 -11.2333,-11.96593 -11.2333,-33.13016 0,-21.40843 11.3147,-33.29296 11.3147,-11.96593 30.6067,-11.96593 15.7918,0 25.0715,6.83768 9.3611,6.75627 13.4311,20.67582 z" /><path
       id="path1175"
       style="font-style:normal;font-variant:normal;font-weight:bold;font-stretch:normal;font-size:166.709px;font-family:Arial;-inkscape-font-specification:'Arial Bold';fill:#ffffff;stroke-width:10.4193"
       d="m 4897.1126,348.99619 -20.7572,-3.74444 q 3.5002,-12.53574 12.0473,-18.5594 8.5471,-6.02367 25.3971,-6.02367 15.3033,0 22.7922,3.66304 7.4889,3.58164 10.5007,9.1983 3.0933,5.53526 3.0933,20.43162 l -0.2442,26.69949 q 0,11.39612 1.0582,16.84998 1.1396,5.37246 4.1514,11.55893 h -22.6294 q -0.8954,-2.27923 -2.1978,-6.75628 -0.5698,-2.03502 -0.814,-2.68622 -5.8609,5.69806 -12.5358,8.54709 -6.6749,2.84903 -14.2451,2.84903 -13.3498,0 -21.0829,-7.24468 -7.6516,-7.24468 -7.6516,-18.3152 0,-7.32608 3.5002,-13.02414 3.5002,-5.77946 9.7681,-8.79129 6.3493,-3.09324 18.2338,-5.37246 16.036,-3.01183 22.2224,-5.61666 V 350.38 q 0,-6.59347 -3.256,-9.3611 -3.256,-2.84903 -12.2915,-2.84903 -6.1051,0 -9.5239,2.44203 -3.4189,2.36062 -5.5353,8.38429 z m 30.6067,18.5594 q -4.3956,1.46522 -13.9195,3.50024 -9.5239,2.03502 -12.4544,3.98864 -4.477,3.17463 -4.477,8.05869 0,4.80265 3.5816,8.30289 3.5817,3.50023 9.1169,3.50023 6.1865,0 11.8032,-4.07004 4.1514,-3.09323 5.4538,-7.57028 0.8954,-2.93043 0.8954,-11.15192 z" /><path
       id="path1177"
       style="font-style:normal;font-variant:normal;font-weight:bold;font-stretch:normal;font-size:166.709px;font-family:Arial;-inkscape-font-specification:'Arial Bold';fill:#ffffff;stroke-width:10.4193"
       d="m 4964.7567,384.40557 22.9551,-3.50024 q 1.4652,6.67488 5.9422,10.17511 4.4771,3.41884 12.5358,3.41884 8.8727,0 13.3497,-3.25603 3.0119,-2.27923 3.0119,-6.10507 0,-2.60483 -1.6281,-4.31425 -1.7094,-1.62801 -7.6516,-3.01183 -27.6763,-6.10507 -35.0838,-11.15192 -10.2565,-7.00048 -10.2565,-19.45481 0,-11.23332 8.8727,-18.885 8.8727,-7.65169 27.5135,-7.65169 17.7453,0 26.3738,5.77947 8.6285,5.77946 11.8846,17.09418 l -21.5713,3.98864 q -1.3838,-5.04685 -5.291,-7.73308 -3.8259,-2.68623 -10.9891,-2.68623 -9.0355,0 -12.9428,2.52343 -2.6048,1.79082 -2.6048,4.63985 0,2.44202 2.2792,4.15144 3.0933,2.27923 21.327,6.43067 18.3152,4.15145 25.5599,10.17511 7.1633,6.10507 7.1633,17.01279 0,11.88452 -9.9309,20.43162 -9.9309,8.54709 -29.3857,8.54709 -17.664,0 -28.0019,-7.16328 -10.2565,-7.16328 -13.4312,-19.45481 z" /><path
       id="path1179"
       style="font-style:normal;font-variant:normal;font-weight:bold;font-stretch:normal;font-size:166.709px;font-family:Arial;-inkscape-font-specification:'Arial Bold';fill:#ffffff;stroke-width:10.4193"
       d="m 5105.2547,322.6223 v 18.2338 h -15.629 v 34.83958 q 0,10.58211 0.407,12.37293 0.4884,1.70942 2.035,2.84903 1.628,1.13961 3.9073,1.13961 3.1746,0 9.1983,-2.19782 l 1.9536,17.74539 q -7.9773,3.41884 -18.071,3.41884 -6.1865,0 -11.1519,-2.03502 -4.9655,-2.11643 -7.3261,-5.37246 -2.2792,-3.33744 -3.1746,-8.9541 -0.7326,-3.98864 -0.7326,-16.11737 V 340.8561 h -10.5008 v -18.2338 h 10.5008 v -17.17558 l 22.955,-13.34974 v 30.52532 z" /><path
       id="path1181"
       style="font-style:normal;font-variant:normal;font-weight:bold;font-stretch:normal;font-size:166.709px;font-family:Arial;-inkscape-font-specification:'Arial Bold';fill:#ffffff;stroke-width:10.4193"
       d="m 5115.9996,364.62516 q 0,-11.39612 5.6166,-22.05964 5.6167,-10.66352 15.8732,-16.28018 10.3379,-5.61666 23.0365,-5.61666 19.6176,0 32.1533,12.77994 12.5357,12.69854 12.5357,32.15335 0,19.61761 -12.6985,32.56035 -12.6171,12.86134 -31.8277,12.86134 -11.8846,0 -22.7109,-5.37246 -10.7449,-5.37246 -16.3616,-15.71037 -5.6166,-10.41931 -5.6166,-25.31567 z m 23.4434,1.22101 q 0,12.86134 6.1051,19.69901 6.1051,6.83768 15.0592,6.83768 8.9541,0 14.9777,-6.83768 6.1051,-6.83767 6.1051,-19.86181 0,-12.69854 -6.1051,-19.53621 -6.0236,-6.83768 -14.9777,-6.83768 -8.9541,0 -15.0592,6.83768 -6.1051,6.83767 -6.1051,19.69901 z" /><path
       id="path1183"
       style="font-style:normal;font-variant:normal;font-weight:bold;font-stretch:normal;font-size:166.709px;font-family:Arial;-inkscape-font-specification:'Arial Bold';fill:#ffffff;stroke-width:10.4193"
       d="m 5245.1014,409.07004 h -22.8737 V 322.6223 h 21.2456 v 12.29154 q 5.4539,-8.7099 9.7681,-11.47753 4.3957,-2.76763 9.9309,-2.76763 7.8145,0 15.0592,4.31425 l -7.0819,19.94322 q -5.7794,-3.74445 -10.7449,-3.74445 -4.8026,0 -8.1401,2.68623 -3.3374,2.60483 -5.291,9.52391 -1.8722,6.91907 -1.8722,28.97871 z" /><path
       id="path1185"
       style="font-style:normal;font-variant:normal;font-weight:bold;font-stretch:normal;font-size:166.709px;font-family:Arial;-inkscape-font-specification:'Arial Bold';fill:#ffffff;stroke-width:10.4193"
       d="m 5279.9409,384.40557 22.9551,-3.50024 q 1.4652,6.67488 5.9422,10.17511 4.4771,3.41884 12.5358,3.41884 8.8727,0 13.3497,-3.25603 3.0119,-2.27923 3.0119,-6.10507 0,-2.60483 -1.6281,-4.31425 -1.7094,-1.62801 -7.6516,-3.01183 -27.6763,-6.10507 -35.0838,-11.15192 -10.2565,-7.00048 -10.2565,-19.45481 0,-11.23332 8.8727,-18.885 8.8727,-7.65169 27.5135,-7.65169 17.7454,0 26.3738,5.77947 8.6285,5.77946 11.8846,17.09418 l -21.5713,3.98864 q -1.3838,-5.04685 -5.291,-7.73308 -3.8259,-2.68623 -10.9891,-2.68623 -9.0355,0 -12.9428,2.52343 -2.6048,1.79082 -2.6048,4.63985 0,2.44202 2.2792,4.15144 3.0933,2.27923 21.3271,6.43067 18.3151,4.15145 25.5598,10.17511 7.1633,6.10507 7.1633,17.01279 0,11.88452 -9.9309,20.43162 -9.9309,8.54709 -29.3857,8.54709 -17.664,0 -28.0019,-7.16328 -10.2565,-7.16328 -13.4312,-19.45481 z" /></g><g
     style="font-style:normal;font-weight:normal;font-size:416.773px;line-height:1.25;font-family:sans-serif;letter-spacing:0px;word-spacing:0px;clip-rule:evenodd;fill:#000000;fill-opacity:1;fill-rule:evenodd;stroke:none;stroke-width:10.4193;image-rendering:optimizeQuality;shape-rendering:geometricPrecision;text-rendering:geometricPrecision"
     id="text1397-1" /><line
     id="line331-23"
     y2="483.09833"
     x2="5415.772"
     y1="483.09833"
     x1="4497.6479"
     class="fil0 str2"
     style="clip-rule:evenodd;fill:none;fill-rule:evenodd;stroke:#2b2a29;stroke-width:11.8631;stroke-linecap:round;stroke-linejoin:round;image-rendering:optimizeQuality;shape-rendering:geometricPrecision;text-rendering:geometricPrecision" /></g><g
   transform="translate(-4047.8619,22.315399)"
   style="font-style:normal;font-weight:normal;font-size:416.773px;line-height:1.25;font-family:sans-serif;letter-spacing:0px;word-spacing:0px;fill:#000000;fill-opacity:1;stroke:none;stroke-width:10.4193"
   id="text1397" />
</svg>
