<?xml version="1.0" encoding="UTF-8" standalone="no"?>
<svg
   xmlns:dc="http://purl.org/dc/elements/1.1/"
   xmlns:cc="http://creativecommons.org/ns#"
   xmlns:rdf="http://www.w3.org/1999/02/22-rdf-syntax-ns#"
   xmlns:svg="http://www.w3.org/2000/svg"
   xmlns="http://www.w3.org/2000/svg"
   xmlns:sodipodi="http://sodipodi.sourceforge.net/DTD/sodipodi-0.dtd"
   xmlns:inkscape="http://www.inkscape.org/namespaces/inkscape"
   width="531.31439mm"
   height="199.27104mm"
   viewBox="0 0 531.3144 199.27104"
   version="1.1"
   id="svg8"
   inkscape:version="1.0 (4035a4fb49, 2020-05-01)"
   sodipodi:docname="2021-DE-06-taskbody.svg">
  <defs
     id="defs2" />
  <sodipodi:namedview
     inkscape:window-maximized="1"
     inkscape:window-y="222"
     inkscape:window-x="-8"
     inkscape:window-height="987"
     inkscape:window-width="1680"
     fit-margin-bottom="0"
     fit-margin-right="0"
     fit-margin-left="0"
     fit-margin-top="0"
     id="base"
     pagecolor="#ffffff"
     bordercolor="#666666"
     borderopacity="1.0"
     inkscape:pageopacity="0.0"
     inkscape:pageshadow="2"
     inkscape:zoom="0.35"
     inkscape:cx="1138.4421"
     inkscape:cy="216.44676"
     inkscape:document-units="mm"
     inkscape:current-layer="layer1"
     inkscape:document-rotation="0"
     showgrid="false"
     inkscape:snap-global="false" />
  <metadata
     id="metadata5">
    <rdf:RDF>
      <cc:Work
         rdf:about="">
        <dc:format>image/svg+xml</dc:format>
        <dc:type
           rdf:resource="http://purl.org/dc/dcmitype/StillImage" />
        <dc:title></dc:title>
      </cc:Work>
    </rdf:RDF>
  </metadata>
  <g
     transform="translate(151.87507,8.50756)"
     inkscape:label="Ebene 1"
     inkscape:groupmode="layer"
     id="layer1">
    <path
       style="fill:#ffb380;stroke:none;stroke-width:0.265;stroke-linecap:butt;stroke-linejoin:miter;stroke-miterlimit:4;stroke-dasharray:none;stroke-opacity:1"
       d="m 277.31183,24.005511 c 4.77279,0.08926 0.30204,-0.314155 1.75347,-5.865998 C 281.80416,7.6630381 280.56234,-2.018334 275.12828,0.63084773 267.03496,4.576446 241.25446,5.3775888 232.61502,6.6457292 227.21445,7.438454 222.13989,9.450157 216.80076,10.308256 197.10758,13.473318 181.68291,20.270688 161.84784,21.772263 129.86777,24.193251 98.752672,32.130087 68.3187,42.079933 62.306076,44.045653 56.993296,47.530951 51.081811,49.73253 31.791929,56.916547 12.646065,63.786503 -6.1870054,72.15434 -17.697654,77.268707 -28.192992,83.757309 -39.899842,88.591045 c -9.633979,3.977852 -19.539762,7.227305 -29.180301,11.225794 -5.112559,2.120481 -10.954395,5.971011 -16.442864,7.205951 -6.916743,1.55631 -17.589123,-2.59093 -23.820653,0.77419 -4.65687,2.51478 1.78299,5.07702 1.8858,9.37965 0.32151,13.45563 -6.77677,25.42204 10.057612,30.52106 5.336421,1.61636 9.906042,3.41445 15.648845,2.97766 17.209719,-1.30895 44.43386,-23.42108 61.569765,-28.58558 5.748797,-1.7326 11.6983493,-2.72038 17.4023091,-4.61538 9.8346477,-3.2673 19.1412529,-8.13777 28.9817929,-11.43423 10.661811,-3.57156 21.867791,-5.25241 32.521807,-8.932995 5.03377,-1.738987 9.176097,-5.526617 14.193136,-7.533489 7.043198,-2.817358 14.680758,-4.265642 21.60401,-7.325053 11.383493,-5.030417 21.686423,-13.744607 33.348913,-17.74688 6.35623,-2.181301 13.1692,-3.126681 19.65203,-4.883369 15.58685,-4.22365 31.00386,-9.819788 46.28485,-15.007428 23.57259,-8.002495 47.87861,-14.689127 72.58683,-17.865984 3.91308,-0.503127 11.63058,-2.493204 14.19312,-1.607939"
       id="path1663"
       sodipodi:nodetypes="csssssssssssssssssssssssssc" />
    <path
       id="path1550-2"
       style="fill:#239823;fill-opacity:1;stroke:none;stroke-width:0.999999px;stroke-linecap:butt;stroke-linejoin:miter;stroke-opacity:1"
       d="M 851.28906,-31.642578 C 743.83172,-31.268983 636.41503,-20.703969 529.05078,-14.591797 468.26581,-11.131355 401.8521,-12.567104 341.95703,1.0039062 272.47832,16.746376 205.42103,42.503468 135.23438,55.755859 83.352876,65.551941 29.043618,65.089289 -23.388672,72.306641 -95.49567,82.232232 -173.60952,108.36067 -243.55273,128.49023 c -21.7213,6.25137 -115.72211,32.70686 -183.42188,42.54102 -3.89961,5.15426 -9.1316,6.84749 -15.29883,8.58008 -57.86339,21.43771 -101.38942,0.53361 -56.70703,37.42187 12.59229,10.71744 -11.12883,19.23606 -18.25781,25.4336 -4.30681,3.7441 -6.98918,9.59294 -11.69141,12.77343 -58.96118,26.47637 -57.02346,32.43419 -12.0039,58.24024 4.57481,2.69062 8.78704,5.43555 7.1914,11.31055 -1.03487,3.8103 -10.33228,4.57202 -13.06836,7.14648 -3.86067,3.63265 -0.34611,10.24912 -4.93945,13.33594 -88.60114,44.71038 118.71087,47.01345 149.802,35.3938 28.97367,-11.09307 57.80222,-33.97176 89.71875,-35.73046 20.36107,-1.12198 55.19375,0.88956 61.70898,25.60156 3.6274,13.75862 -50.11098,-13.34615 -62.0852,-8.72193 -16.46332,6.35782 -34.14733,8.13029 -51.26758,11.92968 -96.47553,34.76875 -184.12274,47.13446 -55.98315,64.06249 10.72449,-25.45138 187.2647,4.51327 285.82104,-54.08592 32.77068,-13.98248 49.269907,-38.96451 81.902348,-53.79493 18.771514,-8.53108 52.77424052,-7.36283 71.02539,-17.21875 39.847597,-21.51828 84.678702,-18.18576 125.992192,-36.77734 63.22132,-28.45039 102.39006,-36.36479 162.11132,-73.24023 127.32198,-84.15406 205.76601,-82.27487 416.60352,-136.980472 58.0173,-15.053628 244.33176,-35.438977 308.71489,-36.0625 107.9258,-31.945603 166.7624,-53.21836 -34.4688,-54.109376 -48.85912,-5.41639 -97.71239,-7.351456 -146.55664,-7.18164 z"
       transform="scale(0.26458333)"
       sodipodi:nodetypes="sssssscccsccssccssscccscscsccs" />
    <path
       sodipodi:nodetypes="csssssccssssssscc"
       id="path835-2"
       d="m 262.36172,54.790924 c -20.15091,4.791157 -59.07384,3.923405 -71.91256,22.201555 -3.00212,4.274046 -12.45613,5.161781 -15.21873,9.40942 -8.37393,12.875276 -25.71314,13.829471 -39.13867,21.290301 -14.28528,7.93862 -30.84354,11.14618 -46.218674,16.28783 -8.78175,2.93672 -16.22336,8.14741 -24.48234,12.08931 -21.64487,10.3308 -45.78827,0.89261 -59.5220998,23.37243 -10.1775107,5.12392 -102.0413482,-7.32866 -83.0372452,21.86924 24.132606,2.17199 48.094725,-2.74032 72.2890642,-3.63276 6.600911,-0.24348 12.173671,1.04088 18.5602608,1.84616 8.09721,1.02097 16.7778,0.38391 24.87934,-0.0298 15.88246,-0.81104 31.1707,-3.47329 46.88037,-5.24069 13.354474,-1.50242 26.948664,-0.96558 40.329684,-2.32257 20.95397,-2.12498 42.17385,-3.41222 63.02547,-6.25309 17.43922,-2.37597 34.81766,-5.14938 52.2731,-6.69975 7.17933,-0.63766 18.87424,-4.83794 26.07395,-4.80994 53.64389,-56.381855 67.967,-87.982062 -4.78092,-99.377646 z"
       style="font-variation-settings:normal;opacity:1;vector-effect:none;fill:#ffb380;fill-opacity:1;stroke:none;stroke-width:0.265;stroke-linecap:butt;stroke-linejoin:miter;stroke-miterlimit:4;stroke-dasharray:none;stroke-dashoffset:0;stroke-opacity:1;stop-color:#000000;stop-opacity:1" />
    <path
       sodipodi:nodetypes="csssssssscscsssssccc"
       id="path837-4"
       d="m -88.708555,134.37825 c 0.884174,-5.00203 28.171725,-1.84635 32.053827,-5.08152 9.203045,-7.66942 31.945951,-5.34372 42.980224,-10.05181 8.6705711,-3.69954 13.0361721,-10.30935 21.6701771,-14.23323 4.9666339,-2.25718 13.9628909,-1.94811 18.7918459,-4.55582 10.543001,-5.693386 22.484229,-14.376251 33.415079,-19.29527 16.72731,-7.527499 36.46778,-8.795258 52.269032,-18.551884 11.55652,-7.135675 24.91129,-8.802379 33.39191,-19.428403 2.59855,-3.255915 24.56941,-7.788035 27.83319,-10.570921 13.65719,-11.644867 46.95486,-10.889029 63.37055,-15.694752 58.40715,-1.435008 87.32065,7.86855 66.7311,36.697762 -5.8798,8.232821 -41.95165,-5.88076 -50.61542,3.726884 -20.1509,4.791157 -44.52936,9.354574 -57.36808,27.632724 -3.00211,4.274047 -12.45612,5.16178 -15.21873,9.409419 -8.37393,12.875271 -25.71313,13.829461 -39.13866,21.290291 -14.28528,7.93862 -30.84354,11.14618 -46.218682,16.28783 -8.78174,2.93672 -16.22335,8.14741 -24.48233,12.08931 -21.64488,10.3308 -51.613981,-0.11328 -64.341293,22.95132 -47.554172,14.02989 -61.59512,12.43045 -87.868328,7.59226 -17.980301,-11.03138 -21.801557,-20.44182 -7.255412,-40.21419 z"
       style="fill:#2a7fff;stroke:none;stroke-width:0.264583px;stroke-linecap:butt;stroke-linejoin:miter;stroke-opacity:1" />
    <path
       style="fill:none;stroke:#000000;stroke-width:0.265;stroke-linecap:round;stroke-linejoin:round;stroke-miterlimit:4;stroke-dasharray:none;stroke-opacity:1"
       d="m 251.9929,60.21224 c -20.1509,4.791157 -43.86768,5.692047 -56.70639,23.970196 -3.00212,4.274047 -12.45613,5.161781 -15.21874,9.40942 -8.37393,12.875274 -25.71313,13.829464 -39.13866,21.290294 -14.28528,7.93862 -30.84354,11.14618 -46.218676,16.28783 -8.781743,2.93672 -16.223353,8.14741 -24.482335,12.08931 -21.644874,10.3308 -45.788274,0.89261 -59.522106,23.37243 -12.5100935,20.47677 -112.031603,14.44004 -106.643215,12.30688"
       id="path835"
       sodipodi:nodetypes="cssssssc" />
    <g
       id="g1661"
       transform="translate(7.1131112,5.2109123)">
      <path
         sodipodi:nodetypes="sccssscssccss"
         transform="scale(0.26458333)"
         d="m 166.17198,335.5297 c -1.71565,0.0297 -3.47394,0.14858 -5.2793,0.36523 -21.19713,0.0912 -18.06856,12.05148 -20.38086,22.2832 -5.53104,14.9342 8.75966,14.46657 20.63086,20.3711 17.89212,8.89924 94.55692,45.25849 111.28896,56.10116 23.86139,15.46261 44.59221,32.31777 69.77344,45.91602 12.41758,6.7057 21.64682,19.68659 31.47851,29.96093 0.67734,0.9051 1.46899,1.73138 2.40821,2.45118 10.99362,8.42528 14.21432,2.55143 20.88281,-2.25 12.77197,-9.19607 10.93986,-34.56098 0.0898,-41.86524 l 0.16016,-0.33789 C 363.03668,453.38029 322.53489,426.05384 290.5625,406.96484 257.85238,387.43536 201.0567,334.92543 166.17198,335.5297 Z"
         style="fill:#a05a2c;stroke:#000000;stroke-width:0.999999px;stroke-linecap:butt;stroke-linejoin:miter;stroke-opacity:1"
         id="path843-6" />
      <path
         sodipodi:nodetypes="scccccsccscsccsss"
         transform="scale(0.26458333)"
         d="m 172.70295,334.48673 c 0,-0.53662 -1.07797,-0.007 -1.62304,0.002 -1.71565,0.0299 -3.47394,0.14859 -5.2793,0.36523 -5.98239,0.0257 -10.02637,0.99852 -12.80273,2.60938 0,0 4.26484,-0.57241 6.95703,-0.58399 1.80536,-0.21664 3.56365,-0.33537 5.27929,-0.36523 34.88472,-0.60427 86.77248,52.94669 119.4826,72.47615 31.97238,19.089 72.47399,46.41546 106.66211,61.56055 l -0.16016,0.33789 c 10.84993,7.30424 12.68212,32.66915 -0.0898,41.86524 -2.15879,1.55436 -3.95663,3.21502 -5.77344,4.47265 4.44609,0.13822 7.31642,-3.4 11.61914,-6.49804 12.77197,-9.19609 10.93977,-34.561 0.0898,-41.86524 l 0.16016,-0.33789 C 363.03648,453.38033 320.92994,428.51581 290.5625,406.96488 260.5253,385.64832 172.70295,342.83339 172.70295,334.48677 Z"
         style="fill:#c36b36;fill-opacity:1;stroke:none;stroke-width:1.00157;stroke-linecap:butt;stroke-linejoin:miter;stroke-miterlimit:4;stroke-dasharray:none;stroke-opacity:1"
         id="path843-6-1" />
      <path
         sodipodi:nodetypes="ccsssccscscssscc"
         transform="scale(0.26458333)"
         d="m 151.03526,337.21329 c -10.31439,3.38932 -8.66331,12.73393 -10.52344,20.96484 -5.53104,14.93421 8.75966,14.46657 20.63086,20.3711 17.89212,8.89924 94.55692,45.25849 111.28896,56.10116 23.86138,15.46258 44.59221,32.31777 69.77344,45.91602 12.41758,6.70571 21.64682,19.68659 31.47851,29.96093 0.67734,0.90513 1.46899,1.7314 2.40821,2.45118 10.99363,8.42528 14.21432,2.55143 20.88281,-2.25 3.72527,-2.68228 6.19911,-6.74412 7.57812,-11.32813 -5.6109,4.44421 -9.17728,8.65922 -19.20703,0.97266 -0.93921,-0.71978 -1.73087,-1.54605 -2.4082,-2.45117 -9.83169,-10.27435 -19.06094,-23.25523 -31.47852,-29.96094 -25.18123,-13.59825 -45.91205,-30.45344 -69.77343,-45.91602 -16.73204,-10.84267 -96.4604,-40.78705 -114.35251,-49.68629 -11.87121,-5.90452 -28.9441,-5.1274 -23.41306,-20.0616 0.62179,-2.75137 6.70155,-12.34679 7.11528,-15.08374 z"
         style="fill:#894c26;fill-opacity:1;stroke:none;stroke-width:0.999999px;stroke-linecap:butt;stroke-linejoin:miter;stroke-opacity:1"
         id="path843-6-8" />
      <path
         sodipodi:nodetypes="csccsssc"
         id="path849"
         d="M 105.09889,123.96403 C 96.053331,119.95689 85.337392,112.72684 76.878031,107.67621 67.797843,102.25491 52.759928,87.649392 42.569675,88.872256 c -5.608408,0.02413 -4.780935,3.188634 -5.39273,5.895777 -1.463421,3.951339 2.317976,3.827329 5.458897,5.389567 4.733957,2.35459 25.017957,11.97486 29.444976,14.84365 6.313326,4.09115 11.798472,8.551 18.461005,12.14887 3.552426,1.91837 6.117887,5.77944 8.965827,8.57568"
         style="fill:none;stroke:#000000;stroke-width:0.265;stroke-linecap:round;stroke-linejoin:round;stroke-miterlimit:4;stroke-dasharray:none;stroke-opacity:1" />
      <path
         sodipodi:nodetypes="ssss"
         id="path843"
         d="m 99.50765,135.7258 c 2.90873,2.22919 3.76069,0.67485 5.52506,-0.59553 4.22297,-3.04062 2.41601,-12.77014 -2.54748,-11.49378 -2.42011,0.62233 -6.653514,9.27215 -2.97758,12.08931 z"
         style="fill:none;stroke:#000000;stroke-width:0.265;stroke-linecap:round;stroke-linejoin:round;stroke-miterlimit:4;stroke-dasharray:none;stroke-opacity:1" />
      <path
         style="fill:#e9c6af;stroke:#000000;stroke-width:0.264583px;stroke-linecap:butt;stroke-linejoin:miter;stroke-opacity:1"
         d="m 99.507649,135.7258 c 2.908731,2.22919 3.760691,0.67485 5.525061,-0.59553 4.22297,-3.04062 2.41601,-12.77014 -2.54748,-11.49378 -2.42011,0.62233 -6.653515,9.27215 -2.977581,12.08931 z"
         id="path843-7"
         sodipodi:nodetypes="ssss" />
      <path
         sodipodi:nodetypes="cc"
         id="path855"
         d="m 106.15071,132.67946 c -9.387716,7.29944 -6.02347,-10.32454 -0.93597,-6.16164"
         style="fill:none;stroke:#000000;stroke-width:0.265;stroke-linecap:round;stroke-linejoin:round;stroke-miterlimit:4;stroke-dasharray:none;stroke-opacity:1" />
      <path
         id="path869"
         d="m 106.359,131.53295 c -0.66435,-0.0822 -1.29296,0.12421 -1.94842,-0.034 -0.39078,-0.0944 -0.78232,-0.1886 -1.16487,-0.31214 -0.6116,-0.19742 -0.88628,-0.50938 -0.92417,-1.09535 -0.20852,-3.2028 3.79553,-0.99661 3.35189,-0.0266 -0.2533,0.55372 -1.41436,0.0464 -1.38442,-0.49941"
         style="fill:none;stroke:#000000;stroke-width:0.265;stroke-linecap:round;stroke-linejoin:round;stroke-miterlimit:4;stroke-dasharray:none;stroke-opacity:1" />
    </g>
    <path
       style="fill:none;stroke:#000000;stroke-width:0.265;stroke-linecap:round;stroke-linejoin:round;stroke-miterlimit:4;stroke-dasharray:none;stroke-opacity:1"
       d="m 286.84687,12.050413 c -17.0347,0.164974 -52.94891,2.695246 -68.29932,6.678185 C 162.76345,33.202785 144.67516,38.095361 110.98788,60.361123 95.186628,70.11775 76.401535,72.843527 59.674227,80.371026 48.743375,85.290045 38.191686,90.935692 27.648683,96.629073 c -4.828956,2.60771 -13.825211,2.298644 -18.7918468,4.555827 -8.63400407,3.92388 -12.9996039,10.53369 -21.6701752,14.23323 -26.076365,15.50436 -67.690755,9.54156 -70.528279,16.27557"
       id="path837"
       sodipodi:nodetypes="cscssscc" />
    <g
       id="g1596"
       transform="translate(7.4108694,3.6327503)">
      <path
         transform="scale(0.26458333)"
         d="m 810.59118,183.60872 c -13.30529,-0.27666 -36.31808,11.04739 -28.0039,24.14258 5.78437,9.11069 46.39494,43.82158 63.03967,45.81901 l 0.38282,-0.26953 c 9.97726,12.14314 36.92248,16.77099 39.25585,2.07031 0.57532,-3.6246 5.37227,-9.18028 2.75196,-13.5039 -2.98991,-4.9335 -5.23644,-7.15591 -7.12696,-13.16797 C 864.499,218.613 869.34445,224.8661 852.48571,215.6302 825.20815,200.68643 842.59777,200.32179 816.724,185.01888 c -1.53752,-0.90936 -3.66887,-1.35893 -6.13282,-1.41016 z"
         style="font-variation-settings:normal;opacity:1;vector-effect:none;fill:#a05a2c;fill-opacity:1;stroke:none;stroke-width:0.999999px;stroke-linecap:butt;stroke-linejoin:miter;stroke-miterlimit:4;stroke-dasharray:none;stroke-dashoffset:0;stroke-opacity:1;stop-color:#000000;stop-opacity:1"
         id="path851-8"
         sodipodi:nodetypes="ssccsscsss" />
      <path
         transform="scale(0.26458333)"
         d="m 784.92517,193.62435 c -3.9963,4.02283 -5.63475,8.93424 -2.33789,14.12695 5.78437,9.11069 46.39497,43.82158 63.03967,45.81901 l 0.38282,-0.26953 c 9.97727,12.14314 36.92245,16.77099 39.25585,2.07031 0.32501,-2.0476 1.9948,-4.71198 2.91602,-7.42187 -5.42369,10.88716 -29.07197,6.09515 -38.28125,-5.11328 l -0.38281,0.26953 c -16.6447,-1.99743 -57.2553,-36.70833 -63.03968,-45.81901 -0.78679,-1.23923 -1.29225,-2.46294 -1.55273,-3.66211 z"
         style="font-variation-settings:normal;opacity:1;vector-effect:none;fill:#894c26;fill-opacity:1;stroke:none;stroke-width:0.999999px;stroke-linecap:butt;stroke-linejoin:miter;stroke-miterlimit:4;stroke-dasharray:none;stroke-dashoffset:0;stroke-opacity:1;stop-color:#000000;stop-opacity:1"
         id="path851-8-0"
         sodipodi:nodetypes="csccscccsc" />
      <path
         id="path851"
         d="m 233.06872,60.510006 c -1.85164,-0.179601 -3.72387,-0.535979 -5.59124,-0.535979 -1.69735,0 -2.65621,0.710679 -3.63927,1.995035 -4.77498,6.238462 9.50319,11.175365 10.38846,5.598009 0.15222,-0.959009 1.42114,-2.42924 0.72785,-3.573198 -0.79108,-1.305322 -1.3856,-1.893176 -1.8858,-3.483867 z"
         style="font-variation-settings:normal;opacity:1;vector-effect:none;fill:none;fill-opacity:1;stroke:#000000;stroke-width:0.265;stroke-linecap:round;stroke-linejoin:round;stroke-miterlimit:4;stroke-dasharray:none;stroke-dashoffset:0;stroke-opacity:1;stop-color:#000000;stop-opacity:1" />
      <path
         sodipodi:nodetypes="sccscsscsscsss"
         transform="scale(0.26458333)"
         d="m 810.59118,183.60872 c -4.05984,-0.0844 -9.02288,0.91639 -13.72461,2.71289 0.46535,0.17319 0.89671,0.37537 1.28907,0.60742 15.17667,4.74301 10.59601,-8.38486 38.81215,21.53933 13.18761,13.98592 22.18143,13.00975 38.57306,23.09597 1.89052,6.01206 -9.08154,7.2795 -6.09163,12.21301 2.62031,4.32362 -2.17663,9.87931 -2.75195,13.50391 -0.42381,2.67005 -1.66636,4.69457 -3.46485,6.16016 10.21495,2.63227 20.62239,0.81798 22.0332,-8.07032 0.57532,-3.6246 5.37227,-9.18029 2.75196,-13.5039 -2.98991,-4.93351 -5.23644,-7.15591 -7.12696,-13.16797 C 864.499,218.613 869.34445,224.86611 852.48571,215.6302 825.20815,200.68644 842.59773,200.32179 816.724,185.01888 c -1.53755,-0.90936 -3.66887,-1.35893 -6.13282,-1.41016 z"
         style="font-variation-settings:normal;opacity:1;vector-effect:none;fill:#c57038;fill-opacity:1;stroke:none;stroke-width:0.999999px;stroke-linecap:butt;stroke-linejoin:miter;stroke-miterlimit:4;stroke-dasharray:none;stroke-dashoffset:0;stroke-opacity:1;stop-color:#000000;stop-opacity:1"
         id="path851-8-9" />
      <path
         style="font-variation-settings:normal;opacity:1;vector-effect:none;fill:#ffccaa;fill-opacity:1;stroke:#000000;stroke-width:0.264583px;stroke-linecap:butt;stroke-linejoin:miter;stroke-miterlimit:4;stroke-dasharray:none;stroke-dashoffset:0;stroke-opacity:1;stop-color:#000000;stop-opacity:1"
         d="m 231.67653,60.350491 c -0.95949,-0.12114 -1.90126,-0.247434 -2.79801,-0.317973 -0.46705,-0.03622 -0.9342,-0.05849 -1.40104,-0.05849 -1.69735,0 -2.65621,0.710679 -3.63927,1.995035 -4.77498,6.238462 9.50319,11.175365 10.38846,5.598009 0.15222,-0.959009 1.3634,-2.396182 0.72785,-3.573198 -1.32472,-2.108079 -1.02736,-3.360016 -3.27799,-3.643383 z"
         id="path851-7"
         sodipodi:nodetypes="ccssscc" />
      <path
         sodipodi:nodetypes="csssc"
         id="path853"
         d="m 233.06872,60.510006 c -4.33695,-2.668645 -3.05445,-1.014393 -7.51499,-3.458058 -7.21719,-3.953875 -2.61632,-4.050353 -9.46209,-8.099248 -2.60353,-1.539846 -11.63915,1.90849 -9.03199,6.014884 1.53045,2.410537 12.27539,11.594573 16.67931,12.12306"
         style="fill:none;stroke:#000000;stroke-width:0.265;stroke-linecap:round;stroke-linejoin:round;stroke-miterlimit:4;stroke-dasharray:none;stroke-opacity:1" />
      <path
         id="path863"
         d="m 230.45506,61.790402 c -8.70677,2.473682 1.84826,10.846787 4.56563,2.620343"
         style="fill:none;stroke:#000000;stroke-width:0.265;stroke-linecap:round;stroke-linejoin:round;stroke-miterlimit:4;stroke-dasharray:none;stroke-opacity:1" />
      <path
         id="path865"
         d="m 231.21504,64.20274 c -0.34531,-0.02252 -0.87589,-0.09592 -1.20757,0.05211 -2.81132,1.254673 3.75747,1.97553 1.64594,0.312653"
         style="fill:none;stroke:#000000;stroke-width:0.265;stroke-linecap:round;stroke-linejoin:round;stroke-miterlimit:4;stroke-dasharray:none;stroke-opacity:1" />
    </g>
    <path
       style="fill:#2a7fff;stroke:#000000;stroke-width:0.264583px;stroke-linecap:butt;stroke-linejoin:miter;stroke-opacity:1"
       d="m 91.325368,125.31289 c -1.311381,0.20658 -2.703223,0.13843 -3.984679,-0.23519 -0.720873,-0.21018 -1.58502,-0.66077 -2.180811,-1.13054 -0.240824,-0.18988 -0.3263,-0.76067 -0.688999,-0.77983 -0.699349,-0.037 -0.817634,1.37165 -1.413959,1.73611 -0.908672,0.55533 -1.280217,-0.16106 -2.064847,-0.0199 -0.781845,0.14065 -1.607117,0.97752 -2.434989,0.99325 -1.582859,0.0301 -3.509596,-2.46539 -5.00025,-1.96113 -0.176512,0.0597 -1.063441,1.7456 -1.258477,1.95579 -0.874683,0.94258 -2.14968,1.73677 -3.103163,2.35033"
       id="path936" />
    <path
       style="fill:#2a7fff;stroke:#000000;stroke-width:0.264583px;stroke-linecap:butt;stroke-linejoin:miter;stroke-opacity:1"
       d="m 72.634107,113.47842 c -0.839829,0.8637 -2.552198,-0.53962 -3.426942,0.21694 -0.361275,0.31245 -0.333818,0.96613 -0.768302,1.22314 -1.046869,0.61928 -3.048091,-0.92966 -4.365666,-0.18661 -0.96238,0.54275 -1.740124,1.60981 -2.770871,1.89848 -0.840327,0.23552 -4.337411,0.26682 -4.687867,1.26335 -0.249523,0.71008 -2.550481,1.54057 -1.971664,1.6535"
       id="path938" />
    <path
       style="fill:#2a7fff;stroke:#000000;stroke-width:0.264583px;stroke-linecap:butt;stroke-linejoin:miter;stroke-opacity:1"
       d="m 63.980716,108.13354 c -1.177526,-0.84806 -0.694961,-0.595 -2.156688,-1.21008 -5.14273,-2.16404 -4.540623,1.98632 -6.423264,2.58427 -1.146721,0.36419 -3.468483,-0.19177 -4.459763,0.51679 -0.58362,0.41717 -0.178018,1.15196 -0.539719,1.50101 -1.344656,1.29762 -3.719389,1.23439 -5.259275,2.10282 -1.356564,0.76504 -4.8374,3.26462 -6.606961,2.40999"
       id="path940" />
    <path
       id="path841-3"
       style="font-variation-settings:normal;vector-effect:none;fill:#a05a2c;fill-opacity:1;stroke:#000000;stroke-width:0.264583px;stroke-linecap:butt;stroke-linejoin:miter;stroke-miterlimit:4;stroke-dasharray:none;stroke-dashoffset:0;stroke-opacity:1;stop-color:#000000"
       d="m 98.890605,78.953835 c -1.920883,-0.01349 -3.78727,0.606711 -4.643128,2.697512 -0.408813,0.998702 -0.929791,2.534729 -0.364321,3.722254 1.0296,2.162212 9.187084,5.112519 11.282004,6.282819 8.31924,4.647427 14.73758,11.57846 22.6627,16.88321 1.67662,1.12226 5.95109,8.29193 11.14092,10.62881 3.20611,5.46496 14.96275,-0.93987 11.32334,-11.28355 -0.5621,-1.59756 -2.0749,-1.32745 -3.40807,-2.70992 -9.30933,-3.21237 -25.14634,-11.155699 -35.36683,-18.491372 -2.98621,-2.143324 -4.78675,-5.54916 -8.07237,-6.789251 -1.122,-0.423476 -2.85935,-0.9286 -4.554245,-0.940512 z" />
    <path
       id="path841-3-7"
       style="font-variation-settings:normal;vector-effect:none;fill:#894c26;fill-opacity:1;stroke:none;stroke-width:0.264583px;stroke-linecap:butt;stroke-linejoin:miter;stroke-miterlimit:4;stroke-dasharray:none;stroke-dashoffset:0;stroke-opacity:1;stop-color:#000000"
       d="m 94.617481,80.929426 c -0.138073,0.218482 -0.262128,0.458385 -0.370004,0.721921 -0.408813,0.998699 -0.929791,2.534729 -0.364321,3.722254 1.029602,2.162209 9.187064,5.112519 11.282004,6.282819 8.31924,4.647427 14.73758,11.57846 22.6627,16.88321 1.67662,1.12226 5.95109,8.29194 11.14092,10.62881 3.03393,5.17149 13.7221,-0.28693 11.77757,-9.65316 -1.85826,5.99925 -9.15731,8.64464 -11.57914,4.51652 -5.18983,-2.33687 -9.4643,-9.50655 -11.14092,-10.62881 -7.92512,-5.304752 -15.11718,-6.447323 -25.04476,-15.379487 -1.59971,-1.439309 -6.246962,-5.033719 -8.364049,-7.094077 z"
       sodipodi:nodetypes="csssscccssc" />
    <path
       style="fill:none;stroke:#000000;stroke-width:0.265;stroke-linecap:round;stroke-linejoin:round;stroke-miterlimit:4;stroke-dasharray:none;stroke-opacity:1"
       d="m 146.88428,105.17497 c -2.51533,-0.0878 -5.97433,0.58899 -6.98078,3.21587 -8.10762,20.3231 15.32926,13.53623 10.38845,-0.5062 -0.5621,-1.59756 -2.07451,-1.3272 -3.40767,-2.70967 z"
       id="path841"
       sodipodi:nodetypes="ccsc" />
    <path
       id="path841-3-1"
       style="font-variation-settings:normal;vector-effect:none;fill:#c36b36;fill-opacity:1;stroke:none;stroke-width:0.264999;stroke-linecap:butt;stroke-linejoin:miter;stroke-miterlimit:4;stroke-dasharray:none;stroke-dashoffset:0;stroke-opacity:1;stop-color:#000000"
       d="m 98.890605,78.953835 c -1.398916,-0.0098 -2.766952,0.319731 -3.73879,1.305349 0.753464,-0.324554 1.603258,-0.447887 2.464964,-0.441833 1.694897,0.01191 3.432241,0.517032 4.554241,0.940509 3.28562,1.240091 8.21263,5.621112 11.19884,7.764436 10.22049,7.335673 22.93104,14.303834 32.24037,17.516194 1.33317,1.38247 2.84596,1.11234 3.40806,2.70991 1.78678,5.07825 -0.13948,9.20229 -2.9409,11.44323 3.43551,-1.91288 6.26271,-6.48612 4.21473,-12.30674 -0.5621,-1.59757 -2.07489,-1.32745 -3.40807,-2.70992 -9.30933,-3.21235 -25.14634,-11.155699 -35.36683,-18.491372 -2.98621,-2.143324 -4.78675,-5.54916 -8.07237,-6.789251 -1.122,-0.423476 -2.85935,-0.9286 -4.554245,-0.940512 z"
       sodipodi:nodetypes="scssscscscsss" />
    <path
       sodipodi:nodetypes="ccsc"
       id="path841-9"
       d="m 146.88428,105.17497 c -2.51533,-0.0878 -5.97433,0.58899 -6.98078,3.21587 -8.10762,20.3231 15.32926,13.53623 10.38845,-0.5062 -0.5621,-1.59756 -2.07451,-1.3272 -3.40767,-2.70967 z"
       style="fill:#ffccaa;stroke:#000000;stroke-width:0.264583px;stroke-linecap:butt;stroke-linejoin:miter;stroke-opacity:1" />
    <path
       style="fill:none;stroke:#000000;stroke-width:0.265;stroke-linecap:round;stroke-linejoin:round;stroke-miterlimit:4;stroke-dasharray:none;stroke-opacity:1"
       d="m 146.88428,105.17497 c -9.30934,-3.21237 -25.14656,-11.155622 -35.36705,-18.491296 -2.98621,-2.143323 -4.78694,-5.548982 -8.07256,-6.789073 -2.39359,-0.903417 -7.586386,-2.178804 -9.197416,1.75682 -0.408813,0.998702 -0.929396,2.534558 -0.363926,3.722082 1.029597,2.162214 9.186802,5.11257 11.281722,6.282869 8.31924,4.647428 14.73759,11.578608 22.66271,16.883358 2.05973,1.3787 8.03995,11.886 14.82173,11.3449"
       id="path847"
       sodipodi:nodetypes="cssssssc" />
    <path
       style="fill:none;stroke:#000000;stroke-width:0.265;stroke-linecap:round;stroke-linejoin:round;stroke-miterlimit:4;stroke-dasharray:none;stroke-opacity:1"
       d="m 144.46913,108.00375 c -10.34094,2.74994 1.15717,16.13105 4.36712,4.04962"
       id="path857" />
    <path
       style="fill:none;stroke:#000000;stroke-width:0.265;stroke-linecap:round;stroke-linejoin:round;stroke-miterlimit:4;stroke-dasharray:none;stroke-opacity:1"
       d="m 145.99212,110.37175 c -0.44604,0.4645 -1.43854,0.0529 -1.95198,0.48387 -1.35698,1.13912 0.73884,2.89878 2.36553,2.19603 1.19476,-0.51615 1.02551,-3.18452 -0.41355,-2.6799 z"
       id="path867" />
    <path
       style="fill:none;stroke:#000000;stroke-width:0.265;stroke-linecap:round;stroke-linejoin:round;stroke-miterlimit:4;stroke-dasharray:none;stroke-opacity:1"
       d="m 139.79851,114.39777 c -0.12365,3.42561 3.67568,5.71487 6.82362,4.55583"
       id="path1102" />
    <path
       style="fill:none;stroke:#000000;stroke-width:0.265;stroke-linecap:round;stroke-linejoin:round;stroke-miterlimit:4;stroke-dasharray:none;stroke-opacity:1"
       d="m 143.7438,107.17693 c 1.92907,0.0941 4.00825,-0.30225 4.87993,1.9206"
       id="path1104" />
    <path
       style="font-variation-settings:normal;opacity:1;vector-effect:none;fill:#2a7fff;fill-opacity:1;stroke:#000000;stroke-width:0.264583px;stroke-linecap:butt;stroke-linejoin:miter;stroke-miterlimit:4;stroke-dasharray:none;stroke-dashoffset:0;stroke-opacity:1;stop-color:#000000;stop-opacity:1"
       d="m 103.20734,91.380425 c -0.15264,-0.885251 -1.0433,-1.327293 -1.71211,-1.816375 -2.178302,-1.592926 -2.330144,0.443976 -4.168612,0.625311 -0.84002,0.08285 -1.697694,-0.514522 -2.506133,-0.238212 -0.986076,0.337021 -1.473073,1.584002 -2.58884,1.875927 -1.453319,0.380238 -3.014027,0.247843 -4.474643,0.647642 -0.652884,0.178708 -1.223005,0.708049 -1.877531,0.915633 -0.665726,0.211135 -1.713783,0.216114 -2.274541,0.327541"
       id="path1106" />
    <path
       style="font-variation-settings:normal;opacity:1;vector-effect:none;fill:#2a7fff;fill-opacity:1;stroke:#000000;stroke-width:0.264583px;stroke-linecap:butt;stroke-linejoin:miter;stroke-miterlimit:4;stroke-dasharray:none;stroke-dashoffset:0;stroke-opacity:1;stop-color:#000000;stop-opacity:1"
       d="m 128.83108,107.98091 c -0.63858,-0.74459 -1.67009,-1.32022 -2.65501,-1.48139 -1.08867,-0.17815 -0.6603,0.80744 -1.69557,0.87097 -1.59457,0.0979 -3.01942,-0.64429 -4.67314,-0.22333 -0.75341,0.19178 -1.50732,1.02999 -2.258,1.04218 -1.23719,0.0201 -2.631,-0.28506 -3.87913,-0.0893 -1.18484,0.18581 -2.10594,1.64013 -3.38287,1.95782 -1.21741,0.30287 -2.52773,-0.0127 -3.76333,0.11166 -1.02257,0.10289 -1.15173,1.44107 -2.4565,1.04962"
       id="path1108" />
    <path
       style="fill:none;stroke:#000000;stroke-width:0.265;stroke-linecap:round;stroke-linejoin:round;stroke-miterlimit:4;stroke-dasharray:none;stroke-opacity:1"
       d="m 121.23825,88.894078 c 1.37899,-0.341107 3.68543,0.930978 4.97091,0.223324 0.77599,-0.427186 -0.10103,-2.264077 0.76094,-2.382131 1.90868,-0.261414 3.80642,1.108985 5.69875,1.191064 1.72883,0.07499 2.4899,-0.834567 4.06937,-1.116624 1.13153,-0.202065 2.23465,0.18174 3.36632,0.133996 0.93678,-0.03952 1.91026,-0.506159 2.89487,-0.632754"
       id="path1110" />
    <path
       style="fill:none;stroke:#000000;stroke-width:0.265;stroke-linecap:round;stroke-linejoin:round;stroke-miterlimit:4;stroke-dasharray:none;stroke-opacity:1"
       d="m 108.83166,76.98342 c 1.90491,0.459621 4.33694,0.854215 6.21984,0 1.57488,-0.714481 -1.21636,-1.592369 1.74519,-1.875928 2.36458,-0.226401 4.80956,0.337074 7.20409,0.07444 0.46135,-0.0506 0.13448,-0.854078 0.38874,-1.101736 0.7875,-0.767019 2.50231,-0.881033 3.52348,-1.302726"
       id="path1114" />
    <g
       id="g1618"
       transform="translate(5.8559102,2.9478875)">
      <path
         sodipodi:nodetypes="scccsccs"
         transform="scale(0.26458333)"
         d="m 640.02584,229.96347 c -1.66309,0.02 -1.44307,0.24539 -3.09506,0.5758 -48.6336,21.92483 -0.89564,52.10351 21.96029,68.80115 27.49362,20.01447 17.90277,10.04934 43.04448,26.1381 3.08887,4.84036 7.74652,8.67317 13.89843,10.47265 28.09966,8.21938 55.67124,-33.9056 42.63868,-32.58008 16.80585,-2.49172 -2.58263,-15.99775 -16.75586,-19.86328 -72.23583,-23.01825 -67.87485,-53.9511 -101.69096,-53.54434 z"
         style="font-variation-settings:normal;opacity:1;vector-effect:none;fill:#a05a2c;fill-opacity:1;stroke:none;stroke-width:0.999999px;stroke-linecap:butt;stroke-linejoin:miter;stroke-miterlimit:4;stroke-dasharray:none;stroke-dashoffset:0;stroke-opacity:1;stop-color:#000000;stop-opacity:1"
         id="path839-6" />
      <path
         transform="scale(0.26458333)"
         d="m 620.02829,244.0866 c -12.56639,19.57017 21.92416,41.73523 40.3164,55.17187 27.49361,20.01447 16.44914,10.13128 41.59086,26.22005 3.08885,4.84035 7.74654,8.67317 13.89843,10.47265 28.09966,8.21938 55.67124,-33.90559 42.63868,-32.58008 7.58141,-1.12405 7.78409,-4.49036 4.43554,-8.20117 -3.95974,11.0415 -24.45663,32.54269 -45.26172,26.45703 -6.15189,-1.79948 -10.80958,-5.6323 -13.89843,-10.47265 -25.14172,-16.08876 -14.09725,-6.20558 -41.59086,-26.22005 -13.99548,-10.22454 -37.31369,-25.50384 -42.1289,-40.84765 z"
         style="font-variation-settings:normal;opacity:1;vector-effect:none;fill:#894c26;fill-opacity:1;stroke:none;stroke-width:0.999999px;stroke-linecap:butt;stroke-linejoin:miter;stroke-miterlimit:4;stroke-dasharray:none;stroke-dashoffset:0;stroke-opacity:1;stop-color:#000000;stop-opacity:1"
         id="path839-6-9"
         sodipodi:nodetypes="cccsccsccc" />
      <path
         sodipodi:nodetypes="cccccccccc"
         transform="scale(0.26458333)"
         d="m 619.36422,245.20183 c 19.40474,-24.03717 41.28795,-14.812 62.67298,8.99969 24.44045,19.72154 6.88635,12.68656 42.57036,21.50806 9.16688,2.50013 33.23586,22.3599 35.56236,27.3373 13.67187,-3.15465 -7.71992,-11.20039 -21.37093,-14.92349 -55.8203,8.0396 -87.11937,-102.72411 -119.43477,-42.92156 z m 141.02055,58.38411 c 0.84142,2.47441 -0.75049,4.49523 -6.28907,5.3164 5.04767,-0.51338 3.98565,5.49526 -0.82031,12.56836 7.23709,-7.99365 10.64984,-16.37192 7.10938,-17.88476 z"
         style="font-variation-settings:normal;opacity:1;vector-effect:none;fill:#c36b36;fill-opacity:1;stroke:none;stroke-width:1.00157;stroke-linecap:butt;stroke-linejoin:miter;stroke-miterlimit:4;stroke-dasharray:none;stroke-dashoffset:0;stroke-opacity:1;stop-color:#000000;stop-opacity:1"
         id="path839-6-3" />
      <path
         style="fill:#ffccaa;stroke:#000000;stroke-width:0.264583px;stroke-linecap:butt;stroke-linejoin:miter;stroke-opacity:1"
         d="m 196.24596,75.01123 c -13.32416,-3.633962 -14.80622,11.548198 -6.84844,13.875914 7.4347,2.174711 14.72993,-8.971047 11.28173,-8.620337 4.44655,-0.659267 -0.68329,-4.232822 -4.43329,-5.255577 z"
         id="path839-3"
         sodipodi:nodetypes="sscs" />
      <path
         sodipodi:nodetypes="sscs"
         id="path839"
         d="m 196.24596,75.011231 c -13.32416,-3.633962 -14.80622,11.548198 -6.84844,13.875914 7.4347,2.174711 14.72993,-8.971047 11.28173,-8.620337 4.44655,-0.659267 -0.68329,-4.232822 -4.43329,-5.255577 z"
         style="fill:none;stroke:#000000;stroke-width:0.265;stroke-linecap:round;stroke-linejoin:round;stroke-miterlimit:4;stroke-dasharray:none;stroke-opacity:1" />
      <path
         id="path859"
         d="m 194.691,78.405767 c -9.34593,-1.836137 -4.49141,13.128013 3.07683,5.181137"
         style="fill:none;stroke:#000000;stroke-width:0.265;stroke-linecap:round;stroke-linejoin:round;stroke-miterlimit:4;stroke-dasharray:none;stroke-opacity:1" />
      <path
         id="path861"
         d="m 194.39325,82.127849 c -5.07027,-0.931032 -1.56357,4.147674 0,0 z"
         style="fill:none;stroke:#000000;stroke-width:0.265;stroke-linecap:round;stroke-linejoin:round;stroke-miterlimit:4;stroke-dasharray:none;stroke-opacity:1" />
      <path
         sodipodi:nodetypes="cccc"
         id="path845"
         d="m 196.24596,75.011231 c -20.05235,-6.389765 -18.51168,-15.915819 -27.83625,-14.050854 -12.86764,5.800945 0.25922,13.80073 6.30652,18.218647 8.65149,6.298007 5.80514,4.606169 12.75413,9.06048"
         style="fill:none;stroke:#000000;stroke-width:0.265;stroke-linecap:round;stroke-linejoin:round;stroke-miterlimit:4;stroke-dasharray:none;stroke-opacity:1" />
    </g>
    <path
       id="path1110-8"
       d="m 140.64225,71.432393 c 1.37899,-0.341107 3.68543,0.930978 4.97091,0.223325 0.77599,-0.427187 -0.10103,-2.264078 0.76094,-2.382132 1.90868,-0.261414 3.80642,1.108985 5.69875,1.191064 1.72883,0.07499 2.4899,-0.834567 4.06937,-1.116624 1.13153,-0.202065 2.32766,0.585827 3.36632,0.133996 0.96768,-0.420957 5.57176,-0.273353 6.44315,0.997517"
       style="font-variation-settings:normal;opacity:1;vector-effect:none;fill:#2a7fff;fill-opacity:1;stroke:#000000;stroke-width:0.264583px;stroke-linecap:butt;stroke-linejoin:miter;stroke-miterlimit:4;stroke-dasharray:none;stroke-dashoffset:0;stroke-opacity:1;stop-color:#000000;stop-opacity:1"
       sodipodi:nodetypes="csssssc" />
    <path
       style="font-variation-settings:normal;opacity:1;vector-effect:none;fill:#2a7fff;fill-opacity:1;stroke:#000000;stroke-width:0.264583px;stroke-linecap:butt;stroke-linejoin:miter;stroke-miterlimit:4;stroke-dasharray:none;stroke-dashoffset:0;stroke-opacity:1;stop-color:#000000;stop-opacity:1"
       d="m 210.06198,56.848374 c -2.87789,-0.141941 -5.60016,-1.060744 -8.49205,-0.600075 -1.69511,0.270025 -3.59269,1.079732 -5.27537,1.105402 -0.62728,0.0096 -1.10237,-0.215606 -1.63758,-0.526383 -0.18246,-0.105947 -0.37015,-0.522189 -0.51467,-0.368467 -1.31195,1.395474 -4.19706,1.009349 -6.04737,0.97907"
       id="path1460" />
    <path
       style="fill:none;stroke:#000000;stroke-width:0.265;stroke-linecap:round;stroke-linejoin:round;stroke-miterlimit:4;stroke-dasharray:none;stroke-opacity:1"
       d="m 227.61925,35.119339 c -5.08271,-0.06469 -10.28929,-0.658501 -15.33482,0.210552 -1.48287,0.255413 -2.82124,0.969225 -4.30452,1.189625 -2.57062,0.381966 -5.18662,0.07439 -7.74344,0.621128 -1.79447,0.383723 -3.4608,1.224423 -5.27537,1.526508 -3.20544,0.533639 -6.33649,-0.986914 -9.54479,-0.89485 -2.19114,0.06288 -1.92109,2.632449 -4.3279,2.537161 -4.14376,-0.164054 -7.85491,-0.378295 -12.01286,-0.136861"
       id="path1462" />
    <path
       style="fill:none;stroke:#000000;stroke-width:0.265;stroke-linecap:round;stroke-linejoin:round;stroke-miterlimit:4;stroke-dasharray:none;stroke-opacity:1"
       d="m 194.24758,51.258199 c -1.14241,-0.319336 -2.2629,-0.731255 -3.42723,-0.958013 -3.88926,-0.757447 -7.62927,0.522022 -11.45141,0.821155 -2.24746,0.175895 -4.29837,-0.488193 -6.51525,-0.610603 -1.83438,-0.101287 -3.64867,0.105278 -5.29876,0.105278"
       id="path1464" />
    <path
       sodipodi:nodetypes="csssssc"
       id="path1112-9"
       d="m 191.73973,62.549443 c 2.47198,2.527872 4.20001,-0.03587 4.92955,0.17866 0.8168,0.240197 1.90254,1.060429 2.80389,0.751861 1.58492,-0.542586 2.80242,-1.505529 4.52427,-1.712158 1.61937,-0.194329 3.28715,0.0241 4.91301,-0.05211 1.04802,-0.04913 2.06789,-0.788472 3.16781,-0.870969 0.90692,-0.06802 4.52562,2.145461 5.24385,1.913152"
       style="font-variation-settings:normal;opacity:1;vector-effect:none;fill:#2a7fff;fill-opacity:1;stroke:#000000;stroke-width:0.264583px;stroke-linecap:butt;stroke-linejoin:miter;stroke-miterlimit:4;stroke-dasharray:none;stroke-dashoffset:0;stroke-opacity:1;stop-color:#000000;stop-opacity:1" />
    <path
       sodipodi:nodetypes="cscssscc"
       id="path837-5"
       d="m 259.75174,10.70796 c -17.0347,0.164974 -52.94892,2.695246 -68.29933,6.678185 -55.7841,14.474188 -73.87239,19.366764 -107.559672,41.632526 -15.80125,9.756627 -34.58634,12.482404 -51.31365,20.009903 -10.930862,4.91902 -17.037665,-1.984271 -27.5806749,3.70911 -4.82895002,2.60771 -13.8252091,2.298642 -18.7918431,4.555826 -8.634005,3.923882 -12.999604,10.533692 -21.670177,14.23322 -26.076365,15.50437 -67.690753,9.54157 -70.528273,16.27558"
       style="fill:none;stroke:#000000;stroke-width:0.265;stroke-linecap:round;stroke-linejoin:round;stroke-miterlimit:4;stroke-dasharray:none;stroke-opacity:1" />
    <path
       style="fill:none;stroke:#000000;stroke-width:0.265;stroke-linecap:round;stroke-linejoin:round;stroke-miterlimit:4;stroke-dasharray:none;stroke-opacity:1"
       d="m 184.94124,19.299817 c -0.81066,2.02301 -1.1829,9.24525 -1.21649,9.643311"
       id="path1516" />
    <path
       style="fill:none;stroke:#000000;stroke-width:0.265;stroke-linecap:round;stroke-linejoin:round;stroke-miterlimit:4;stroke-dasharray:none;stroke-opacity:1"
       d="m 168.98647,25.784839 c -0.004,4.28199 -0.47292,5.05824 -1.9651,8.253664"
       id="path1518" />
    <path
       style="fill:none;stroke:#000000;stroke-width:0.265;stroke-linecap:round;stroke-linejoin:round;stroke-miterlimit:4;stroke-dasharray:none;stroke-opacity:1"
       d="m 158.08482,29.069461 c -0.0298,4.680918 -2.32638,8.716589 -4.30451,12.464716"
       id="path1520" />
    <path
       style="fill:none;stroke:#000000;stroke-width:0.265;stroke-linecap:round;stroke-linejoin:round;stroke-miterlimit:4;stroke-dasharray:none;stroke-opacity:1"
       d="m 127.90645,36.059808 c -2.697,6.077035 -2.74132,9.030822 -2.85408,14.612355"
       id="path1522" />
    <path
       style="fill:none;stroke:#000000;stroke-width:0.265;stroke-linecap:round;stroke-linejoin:round;stroke-miterlimit:4;stroke-dasharray:none;stroke-opacity:1"
       d="m 110.12694,42.334277 c -0.27,6.834439 -0.62543,13.679734 -1.12291,20.507828"
       id="path1524" />
    <path
       style="fill:none;stroke:#000000;stroke-width:0.265;stroke-linecap:round;stroke-linejoin:round;stroke-miterlimit:4;stroke-dasharray:none;stroke-opacity:1"
       d="m 98.38311,48.861411 c 1.782,5.148254 2.15226,10.521219 2.15226,15.91778"
       id="path1526" />
    <path
       style="fill:none;stroke:#000000;stroke-width:0.265;stroke-linecap:round;stroke-linejoin:round;stroke-miterlimit:4;stroke-dasharray:none;stroke-opacity:1"
       d="m 85.329209,57.620399 c 1.039302,3.482822 5.048184,10.262132 0.09357,12.548939"
       id="path1528" />
    <path
       style="fill:none;stroke:#000000;stroke-width:0.265;stroke-linecap:round;stroke-linejoin:round;stroke-miterlimit:4;stroke-dasharray:none;stroke-opacity:1"
       d="m 68.204735,65.452958 c -1.445646,3.691292 -2.18554,8.357618 -2.947654,11.875169"
       id="path1530" />
    <path
       style="fill:none;stroke:#000000;stroke-width:0.265;stroke-linecap:round;stroke-linejoin:round;stroke-miterlimit:4;stroke-dasharray:none;stroke-opacity:1"
       d="m 39.80431,74.969938 c 1.101437,5.627833 0.617326,8.290308 0.09358,13.812255"
       id="path1532" />
    <path
       style="fill:none;stroke:#000000;stroke-width:0.265;stroke-linecap:round;stroke-linejoin:round;stroke-miterlimit:4;stroke-dasharray:none;stroke-opacity:1"
       d="m 25.299976,79.644207 c -2.392946,9.23476 -1.516514,18.470803 0.09358,27.413953"
       id="path1534" />
    <path
       style="fill:none;stroke:#000000;stroke-width:0.265;stroke-linecap:round;stroke-linejoin:round;stroke-miterlimit:4;stroke-dasharray:none;stroke-opacity:1"
       d="m 8.3158676,84.402696 c -0.00297,6.845766 1.9894944,13.548098 1.1229162,20.213054"
       id="path1536" />
    <path
       style="fill:none;stroke:#000000;stroke-width:0.265;stroke-linecap:round;stroke-linejoin:round;stroke-miterlimit:4;stroke-dasharray:none;stroke-opacity:1"
       d="m -8.4810885,81.918177 c 2.047834,9.006998 -0.5146698,18.769063 -0.5146698,28.129833"
       id="path1538" />
    <path
       style="fill:none;stroke:#000000;stroke-width:0.265;stroke-linecap:round;stroke-linejoin:round;stroke-miterlimit:4;stroke-dasharray:none;stroke-opacity:1"
       d="m -20.903349,88.519002 c 4.673093,7.020033 9.205532,27.558408 1.965103,34.783298"
       id="path1540" />
    <path
       style="fill:none;stroke:#000000;stroke-width:0.265;stroke-linecap:round;stroke-linejoin:round;stroke-miterlimit:4;stroke-dasharray:none;stroke-opacity:1"
       d="m -40.671355,101.41535 c -0.240012,14.6616 0.907462,9.9248 -3.32196,20.42361"
       id="path1542" />
    <path
       style="fill:none;stroke:#000000;stroke-width:0.265;stroke-linecap:round;stroke-linejoin:round;stroke-miterlimit:4;stroke-dasharray:none;stroke-opacity:1"
       d="m -24.10834,97.709624 c 3.122033,5.758676 3.509114,12.028456 3.509114,18.402306"
       id="path1544" />
    <path
       style="fill:none;stroke:#000000;stroke-width:0.265;stroke-linecap:round;stroke-linejoin:round;stroke-miterlimit:4;stroke-dasharray:none;stroke-opacity:1"
       d="m -29.25504,96.404199 c 3.050443,7.318451 3.049645,14.951091 2.666926,22.529131"
       id="path1546" />
    <path
       style="fill:none;stroke:#000000;stroke-width:0.265;stroke-linecap:round;stroke-linejoin:round;stroke-miterlimit:4;stroke-dasharray:none;stroke-opacity:1"
       d="m -73.844173,113.33263 c 1.02875,13.0089 0.83113,7.87778 1.02934,15.37035"
       id="path1548" />
    <path
       style="fill:#eec2c2;fill-opacity:1;stroke:none;stroke-width:0.264583px;stroke-linecap:butt;stroke-linejoin:miter;stroke-opacity:1"
       d="m 164.35978,34.824527 c -3.31672,-2.327926 -7.96099,-1.875721 -11.61257,-0.40943 -1.37074,0.550421 -2.82903,3.143221 -3.53174,3.424314 -0.73241,0.292971 -2.23078,-0.02683 -2.96104,0 -0.9729,0.03574 -2.06855,0.778328 -2.91142,1.220843 -0.8232,0.432195 -0.61765,1.743388 -1.4557,2.032254 -1.1677,0.402495 -2.51222,0.287438 -3.73025,0.387099 -0.87717,0.07177 -1.61829,0.53998 -2.5144,0.558311 -0.78195,0.01601 -1.5184,-0.206323 -2.27455,-0.342432 -2.37675,-0.427826 -5.86234,1.30442 -7.80787,2.493793 -1.24725,0.762487 -0.22169,2.662462 -0.83538,3.803967 -1.10728,2.059599 -3.8729,1.919603 -5.58297,3.029773 -0.93003,0.603777 -0.23639,1.530419 -1.02561,2.0397 -2.20321,1.421738 -7.22682,-0.347192 -8.55227,2.25558 -0.57597,1.131031 -0.32253,2.392508 -1.21585,3.357317 -0.92372,0.99764 -2.43108,0.519433 -3.5152,1.399503 -1.49246,1.211559 0.18847,2.248135 -3.03548,2.248135 -1.13604,0 -5.182792,1.408756 -4.036276,3.20099 1.350796,2.111563 4.311816,2.562119 6.674746,2.233248 0.50563,-0.07037 0.58811,-0.461074 0.98426,-0.558311 2.41306,-0.592315 5.17229,0.05886 7.55147,-0.908188 1.17393,-0.47716 1.16357,-1.893995 2.16702,-2.627788 0.82344,-0.602157 2.33358,-0.648049 3.29188,-0.990074 1.14338,-0.408082 2.27837,-1.042768 3.39941,-1.526053 1.4173,-0.611007 2.56656,-2.089996 4.09417,-2.724563 1.87226,-0.777726 4.48773,0.101653 6.42662,0.02233 1.54624,-0.06326 3.86588,-1.350899 5.23558,-2.024811 2.41299,-1.187222 -1.58056,-3.804862 1.07523,-5.21091 2.14174,-1.133893 4.1744,-0.131882 6.35218,0.07444 4.20349,0.398238 5.17369,-1.468022 7.51839,-4.153842 0.35745,-0.409458 0.22522,-0.999511 0.72785,-1.429279 0.82578,-0.706054 2.18959,-0.842047 3.09338,-1.511165 0.5878,-0.435173 0.96053,-1.192874 1.57977,-1.660046 1.18437,-0.893524 2.65016,-1.186082 3.80469,-2.017369 0.55311,-0.39825 0.37199,-1.100851 0.74439,-1.466498 0.95865,-0.941239 2.24925,-1.635069 3.09338,-2.71712 1.17177,-1.502037 -0.2022,-1.641427 -1.21584,-1.503718 z"
       id="path1709" />
    <path
       style="fill:none;stroke:#000000;stroke-width:0.265;stroke-linecap:round;stroke-linejoin:round;stroke-miterlimit:4;stroke-dasharray:none;stroke-opacity:1"
       d="M 264.01326,-6.471827 C 222.64585,-11.057704 181.29678,-6.2132342 139.9778,-3.860974 123.89512,-2.9453988 106.32315,-3.3248052 90.475907,0.2658578 72.092994,4.4310532 54.350747,11.245518 35.780527,14.75188 22.053544,17.34376 7.684241,17.221785 -6.1884676,19.131375 -25.26678,21.757522 -45.933939,28.670445 -64.439749,33.996391 c -8.615386,2.479498 -60.231511,16.986925 -66.907091,10.653967"
       id="path1550" />
    <path
       style="font-variation-settings:normal;opacity:1;vector-effect:none;fill:#2a7fff;fill-opacity:1;stroke:#000000;stroke-width:0.264583px;stroke-linecap:butt;stroke-linejoin:miter;stroke-miterlimit:4;stroke-dasharray:none;stroke-dashoffset:0;stroke-opacity:1;stop-color:#000000;stop-opacity:1"
       d="m 155.47217,80.489619 c 2.47198,2.527872 4.20001,-0.03587 4.92955,0.17866 0.8168,0.240197 1.90254,1.060429 2.80389,0.751861 1.58492,-0.542586 2.80242,-1.505529 4.52427,-1.712158 1.61937,-0.194329 3.28715,0.0241 4.91301,-0.05211 1.04802,-0.04913 2.06789,-0.788472 3.16781,-0.870969 0.90692,-0.06802 4.52562,2.145461 5.24385,1.913152"
       id="path1112"
       sodipodi:nodetypes="csssssc" />
    <path
       style="fill:none;stroke:#000000;stroke-width:0.265;stroke-linecap:round;stroke-linejoin:round;stroke-miterlimit:4;stroke-dasharray:none;stroke-opacity:1"
       d="m 161.56083,33.945924 c -7.73078,-5.875028 -14.82186,10.573562 -6.10831,8.315897 3.2462,-0.841085 3.92819,-2.740935 5.11197,-4.351479 1.85379,-1.969615 3.48521,-2.051729 0.99634,-3.964418 z"
       id="path1665"
       sodipodi:nodetypes="cscc" />
    <path
       style="fill:none;stroke:#000000;stroke-width:0.265;stroke-linecap:round;stroke-linejoin:round;stroke-miterlimit:4;stroke-dasharray:none;stroke-opacity:1"
       d="m 149.69586,38.867286 c -1.47597,-1.153636 -4.20786,-2.283042 -5.72357,-0.476427 -0.5136,0.612169 -0.23159,2.109515 -0.23159,2.828779 0,5.101063 4.37025,-0.339444 5.39273,1.846154 0.43411,0.927944 -0.82256,2.98345 0.1985,3.066992 2.17095,0.177628 3.08791,-4.483664 6.05442,-4.555826"
       id="path1667" />
    <path
       style="fill:none;stroke:#000000;stroke-width:0.265;stroke-linecap:round;stroke-linejoin:round;stroke-miterlimit:4;stroke-dasharray:none;stroke-opacity:1"
       d="m 143.44294,41.815173 c -3.11452,-0.639715 -3.00635,1.283554 -5.16114,2.679896 -3.69761,2.396114 9.30879,4.619529 9.75985,-1.875928 0.13553,-1.951683 -4.02993,-0.812226 -4.59871,-0.803968 z"
       id="path1669" />
    <path
       style="fill:none;stroke:#000000;stroke-width:0.265;stroke-linecap:round;stroke-linejoin:round;stroke-miterlimit:4;stroke-dasharray:none;stroke-opacity:1"
       d="m 134.7087,47.562063 c -9.6569,2.736334 3.27534,8.067971 3.27534,0.148884"
       id="path1671" />
    <path
       style="fill:none;stroke:#000000;stroke-width:0.265;stroke-linecap:round;stroke-linejoin:round;stroke-miterlimit:4;stroke-dasharray:none;stroke-opacity:1"
       d="m 150.6553,46.192339 c 0.36298,1.996435 0.0195,2.709174 -2.31589,3.63275 -6.78723,2.684113 -6.33408,-2.439524 -1.55496,-2.024811 -9.25023,-3.854323 -8.34989,6.401755 0,0"
       id="path1673" />
    <path
       style="fill:none;stroke:#000000;stroke-width:0.265;stroke-linecap:round;stroke-linejoin:round;stroke-miterlimit:4;stroke-dasharray:none;stroke-opacity:1"
       d="m 134.7087,43.542217 c -0.0797,-5.146696 -11.00617,0.581514 -9.6606,3.09677 2.17905,4.073263 11.6529,-1.132932 12.73743,-3.573195"
       id="path1675" />
    <path
       style="fill:none;stroke:#000000;stroke-width:0.265;stroke-linecap:round;stroke-linejoin:round;stroke-miterlimit:4;stroke-dasharray:none;stroke-opacity:1"
       d="m 130.20924,48.425586 c -1.57701,0.297768 -3.21303,0.372462 -4.73104,0.8933 -4.06692,1.395372 1.13545,3.205533 2.97758,2.769227 2.86094,-0.677609 7.63541,-4.336296 1.75346,-3.662527 z"
       id="path1677" />
    <path
       style="fill:none;stroke:#000000;stroke-width:0.265;stroke-linecap:round;stroke-linejoin:round;stroke-miterlimit:4;stroke-dasharray:none;stroke-opacity:1"
       d="m 131.30102,52.02856 c -1.04767,-0.138959 -2.09243,-0.53187 -3.143,-0.416872 -1.1678,0.127828 -6.02286,0.806072 -5.09497,3.543419 0.69847,2.060567 8.19756,0.83752 9.26358,0.53598 2.15664,-0.610037 1.22533,-3.518535 3.17609,-2.82878"
       id="path1679" />
    <path
       style="fill:none;stroke:#000000;stroke-width:0.265;stroke-linecap:round;stroke-linejoin:round;stroke-miterlimit:4;stroke-dasharray:none;stroke-opacity:1"
       d="m 120.58173,53.10052 c -16.86803,0.909288 -2.39049,12.156627 2.05122,2.828779"
       id="path1681" />
    <path
       style="fill:none;stroke:#000000;stroke-width:0.265;stroke-linecap:round;stroke-linejoin:round;stroke-miterlimit:4;stroke-dasharray:none;stroke-opacity:1"
       d="m 110.68954,58.579421 c -1.03664,-0.129032 -2.07483,-0.528063 -3.10992,-0.387096 -2.58426,0.351946 -4.21998,4.862894 -1.02561,5.41935 3.16117,0.550669 6.35214,-5.210985 7.70863,-2.76923"
       id="path1683" />
    <path
       style="fill:none;stroke:#000000;stroke-width:0.265;stroke-linecap:round;stroke-linejoin:round;stroke-miterlimit:4;stroke-dasharray:none;stroke-opacity:1"
       d="m 100.56577,62.65882 c -8.793923,3.2692 9.97065,6.871565 12.17499,1.280395"
       id="path1685" />
    <path
       style="fill:none;stroke:#000000;stroke-width:0.265;stroke-linecap:round;stroke-linejoin:round;stroke-miterlimit:4;stroke-dasharray:none;stroke-opacity:1"
       d="m 112.57534,58.430538 c 2.82701,5.690012 8.55292,2.554531 11.94341,-0.744416"
       id="path1687" />
    <path
       style="fill:none;stroke:#000000;stroke-width:0.265;stroke-linecap:round;stroke-linejoin:round;stroke-miterlimit:4;stroke-dasharray:none;stroke-opacity:1"
       d="m 123.95632,55.393319 c 4.28098,2.921889 9.80455,3.107045 13.89538,-0.267988"
       id="path1689" />
    <path
       style="fill:#916f6f;stroke:none;stroke-width:0.264583px;stroke-linecap:butt;stroke-linejoin:miter;stroke-opacity:1"
       d="m 19.298212,101.70568 c -2.003188,-0.3976 -3.985547,-0.93951 -6.054416,-0.75931 -1.099677,0.0958 -2.089461,1.05227 -3.167816,1.16874 -0.5904433,0.0638 -0.7966825,-0.24744 -1.2737427,-0.47643 -0.8271819,-0.39706 -2.98485,0.53119 -3.7302479,0.93052 -0.4803476,0.25734 -0.7801739,0.73324 -1.1993036,1.04963 -0.4746791,0.35831 -1.145156,0.3347 -1.6211276,0.67741 -1.1897737,0.85666 -1.88332964,1.22086 -3.333237,1.68983 -1.6426603,0.53131 -5.4733428,-0.36483 -6.3521738,1.53349 -0.5214686,1.12641 3.0816957,2.20508 3.4242187,2.44913 0.9549212,0.6804 -2.5252145,0.65824 -3.0023945,1.10918 -0.935437,0.88402 0.9543692,1.27321 0.6368714,1.98759 -0.03942,0.0887 -1.6197929,-0.0176 -1.6707541,-0.0149 -1.5447745,0.0823 -2.3824979,-0.24211 -3.8956689,0.41687 -0.427203,0.18605 -1.16425,0.72002 -1.422622,1.0794 -0.113933,0.15848 0.143318,1.08852 0,1.13152 -0.878952,0.26369 -2.059356,-0.45575 -2.894871,-0.6402 -0.919291,-0.20294 -1.651101,0.0901 -2.506131,0.33499 -2.363348,0.67679 -2.791151,2.12365 -1.910615,4.32505 0.494187,1.2355 1.894086,1.5005 3.002395,1.8536 0.711751,0.22676 4.040484,0.66925 4.805485,0.45409 1.171278,-0.32943 2.9162533,-1.99799 3.7798747,-2.85856 0.4397314,-0.43817 0.5393356,-0.96294 1.133135,-1.31761 1.1085282,-0.66211 2.2174083,-0.67375 3.3663212,-1.15385 0.8496049,-0.35502 1.8457505,-1.14723 2.6136549,-1.63771 0.97943318,-0.62559 2.29094785,-0.7575 3.3497791,-1.20596 0.6211991,-0.2631 0.63025,-1.24712 1.4391644,-1.54838 2.3764237,-0.88504 5.8497755,0.97455 7.7168987,-0.17122 0.752982,-0.46207 0.163705,-0.76558 0.09098,-1.34739 -0.05193,-0.41547 0.231424,-0.79727 0.140608,-1.20595 -0.274631,-1.23588 -1.231479,-1.46847 0.909817,-2.16625 0.796389,-0.25952 1.636899,-0.0578 2.456505,-0.21589 2.134687,-0.4117 3.232762,-2.33105 4.896467,-3.45409 0.540025,-0.36452 1.735684,-0.23181 2.092578,-0.72208 0.782284,-1.07464 -1.200743,-1.58307 -1.819633,-1.29528 z"
       id="path1707" />
    <path
       style="fill:none;stroke:#000000;stroke-width:0.265;stroke-linecap:round;stroke-linejoin:round;stroke-miterlimit:4;stroke-dasharray:none;stroke-opacity:1"
       d="m 21.461352,102.67863 c -4.470524,-1.16998 -3.907519,-1.414 -7.940217,-1.2804 -2.963212,0.0982 -8.0787136,4.81 -5.9551627,5.06203 4.7715027,0.56631 17.9729887,-3.99007 6.9146057,-3.99007"
       id="path1691" />
    <path
       style="fill:none;stroke:#000000;stroke-width:0.265;stroke-linecap:round;stroke-linejoin:round;stroke-miterlimit:4;stroke-dasharray:none;stroke-opacity:1"
       d="m 3.0334317,110.53966 c -2.57495419,2.46927 4.727526,-2.94629 3.3745924,-4.0794 -1.4310426,-1.19853 -4.9485412,-0.98805 -6.35217377,-0.8933 -11.99802633,0.80989 -2.10348633,7.48943 2.97758137,4.9727 0.1163291,-0.0576 2.3598323,-3.29735 3.1430026,-4.01985"
       id="path1693" />
    <path
       style="fill:none;stroke:#000000;stroke-width:0.265;stroke-linecap:round;stroke-linejoin:round;stroke-miterlimit:4;stroke-dasharray:none;stroke-opacity:1"
       d="m 10.841312,102.91684 c -4.5573251,-2.23004 -5.8327639,-0.0834 -8.6680704,2.32258"
       id="path1695" />
    <path
       style="fill:none;stroke:#000000;stroke-width:0.265;stroke-linecap:round;stroke-linejoin:round;stroke-miterlimit:4;stroke-dasharray:none;stroke-opacity:1"
       d="m -4.5097744,115.06571 c -10.8305756,-5.3933 -15.2101136,7.47656 0,0 z"
       id="path1697" />
    <path
       style="fill:none;stroke:#000000;stroke-width:0.265;stroke-linecap:round;stroke-linejoin:round;stroke-miterlimit:4;stroke-dasharray:none;stroke-opacity:1"
       d="m 0.35360848,112.11782 c -11.75640948,-3.46306 -5.76010978,2.92018 -2.18355968,1.42928 1.71169539,-0.71353 4.1112664,-1.68496 5.3265623,-1.84615"
       id="path1699" />
    <path
       style="fill:none;stroke:#000000;stroke-width:0.265;stroke-linecap:round;stroke-linejoin:round;stroke-miterlimit:4;stroke-dasharray:none;stroke-opacity:1"
       d="m 9.2201843,109.08061 c -1.2306131,-0.66195 -4.4459668,-0.59182 -3.8377717,1.69726 0.3444436,1.2964 5.1827574,0.99229 5.0949724,0.0893 -0.07046,-0.72478 -1.7665731,-1.2662 -1.2572007,-1.78659 0.5795962,-0.59215 1.6542117,-0.0993 2.4813177,-0.14889"
       id="path1701" />
    <path
       style="fill:none;stroke:#000000;stroke-width:0.265;stroke-linecap:round;stroke-linejoin:round;stroke-miterlimit:4;stroke-dasharray:none;stroke-opacity:1"
       d="m -12.74775,117.20963 c -0.80505,-0.64516 -1.388426,-1.8346 -2.415149,-1.93548 -7.680974,-0.75471 -9.703115,9.20087 3.143002,4.40694 2.00786,-0.7493 2.9114135,-0.77943 2.9114135,-3.00744"
       id="path1703" />
    <path
       style="fill:#5bc95b;fill-opacity:1;stroke:none;stroke-width:0.264999;stroke-linecap:butt;stroke-linejoin:miter;stroke-miterlimit:4;stroke-dasharray:none;stroke-opacity:1"
       d="m 330.97504,75.977279 c -20.34229,3.899462 -59.18929,1.319147 -72.82018,19.014414 -3.18735,4.137748 -12.67126,4.608453 -15.61817,8.730357 -8.93259,12.49417 -26.29699,12.68417 -40.03794,19.54677 -14.62089,7.30208 -31.3043,9.77763 -46.89087,14.23747 -8.90251,2.5473 -16.56629,7.42536 -24.99078,10.99987 -22.07866,9.36797 -45.783185,-1.12387 -60.493274,20.72959 -10.393203,4.67094 -101.619826,-11.81346 -83.919441,18.19271 24.013596,3.23221 48.168729,-0.62052 72.378901,-0.44705 6.605232,0.0473 12.116052,1.57576 18.461005,2.6614 8.044414,1.37643 16.744633,1.12211 24.856529,1.06543 15.90277,-0.1111 31.29339,-2.09778 47.06563,-3.17192 13.40767,-0.91309 26.96505,0.22165 40.39284,-0.54499 21.0272,-1.20051 42.28317,-1.5524 63.23962,-3.47262 17.52691,-1.60598 35.01059,-3.6117 52.51736,-4.39217 7.20044,-0.32101 19.06893,-4.0024 26.26043,-3.65749 56.07382,-53.96577 71.77411,-84.90484 -0.40166,-99.491771 z"
       id="path835-2-6"
       sodipodi:nodetypes="csssssccssssssscc" />
  </g>
</svg>
