<?xml version="1.0" encoding="UTF-8" standalone="no"?>
<svg
   xmlns:dc="http://purl.org/dc/elements/1.1/"
   xmlns:cc="http://creativecommons.org/ns#"
   xmlns:rdf="http://www.w3.org/1999/02/22-rdf-syntax-ns#"
   xmlns:svg="http://www.w3.org/2000/svg"
   xmlns="http://www.w3.org/2000/svg"
   xmlns:sodipodi="http://sodipodi.sourceforge.net/DTD/sodipodi-0.dtd"
   xmlns:inkscape="http://www.inkscape.org/namespaces/inkscape"
   inkscape:version="1.0 (4035a4fb49, 2020-05-01)"
   sodipodi:docname="2021-PH-03-explan4.svg"
   id="svg712"
   style="clip-rule:evenodd;fill-rule:evenodd;stroke-linecap:round;stroke-linejoin:round;stroke-miterlimit:1.5"
   xml:space="preserve"
   version="1.1"
   viewBox="0 0 1374.5914 971.70636"
   height="971.70636"
   width="1374.5914"><metadata
   id="metadata718"><rdf:RDF><cc:Work
       rdf:about=""><dc:format>image/svg+xml</dc:format><dc:type
         rdf:resource="http://purl.org/dc/dcmitype/StillImage" /><dc:title></dc:title></cc:Work></rdf:RDF></metadata><defs
   id="defs716" /><sodipodi:namedview
   fit-margin-bottom="0"
   fit-margin-right="0"
   fit-margin-left="0"
   fit-margin-top="0"
   inkscape:current-layer="g1800"
   showgrid="false"
   id="namedview714"
   inkscape:window-height="480"
   inkscape:window-width="640"
   inkscape:pageshadow="2"
   inkscape:pageopacity="0"
   guidetolerance="10"
   gridtolerance="10"
   objecttolerance="10"
   borderopacity="1"
   bordercolor="#666666"
   pagecolor="#ffffff" />
    <g
   id="g710"
   transform="translate(-1378.6283,-3040.1719)">
        <g
   id="g708">
            
            
            
            
            
            
            
            
            
            
            
            
            
            
            
            
            
            
            
        <g
   transform="translate(88.804985,43.578158)"
   id="g3263"><g
     transform="translate(1255.4959,-82.887707)"
     style="clip-rule:evenodd;fill-rule:evenodd;stroke-linecap:round;stroke-linejoin:round;stroke-miterlimit:1.5"
     id="g1800"><g
       style="clip-rule:evenodd;fill-rule:evenodd;stroke-linecap:round;stroke-linejoin:round;stroke-miterlimit:1.5"
       transform="translate(-161.67343,1588.1899)"
       id="g30"><g
         transform="matrix(1,0,0,1.15377,0,-256.31)"
         id="g4"><path
           d="m 348.166,1722.79 191.543,-2.45 -1.051,-53.16 -190.346,-0.3 z"
           style="fill:#009429;stroke:#000000;stroke-width:2.7px"
           id="path2" /></g><g
         transform="translate(-280.458,6.87753)"
         id="g8"><path
           d="m 670.025,1721.13 10.197,-21.2 9.776,20.8 24.99,0.09 -17.063,18.81 c 0.726,3.25 5.615,20.93 6.8,24.16 l -23.658,-11.11 -24.506,10.97 6.789,-23.8 -17.302,-18.34 z"
           style="fill:#1a1719;stroke:#000000;stroke-width:2.92px"
           id="path6" /></g><g
         transform="matrix(0.776868,0,0,1,200.127,-40.4722)"
         id="g28"><path
           d="m 190.214,1708.05 c -1.24,-1.03 0.327,115.89 0.327,148.47"
           style="fill:#ffffff"
           id="path10" /><path
           d="m 193.811,1708.88 c 0.368,-0.96 0.088,-2.04 -0.856,-2.83 -1.079,-0.89 -2.277,-1.02 -3.332,-0.89 -0.787,0.09 -1.747,0.37 -2.517,1.22 -0.173,0.19 -0.426,0.5 -0.592,1 -0.112,0.33 -0.273,1.58 -0.345,3.62 -0.651,18.49 0.618,116.18 0.618,145.52 0,1.61 1.682,2.92 3.754,2.92 2.072,0 3.755,-1.31 3.755,-2.92 0,-29.31 -1.271,-126.89 -0.621,-145.37 0.034,-0.95 0.103,-1.87 0.136,-2.27 z m -2.785,2.01 c -1.252,0.22 -2.613,-0.07 -3.552,-0.85 1.158,0.96 2.395,1.1 3.552,0.85 z"
           id="path12" /><path
           d="m 190.926,1707.4 c 83.42,-0.57 162.93,-1.33 246.176,-1.33"
           style="fill:#ffffff"
           id="path14" /><path
           d="m 190.959,1710.31 c 83.408,-0.56 162.908,-1.32 246.143,-1.32 2.072,0 3.754,-1.31 3.754,-2.92 0,-1.61 -1.682,-2.92 -3.754,-2.92 -83.257,0 -162.778,0.76 -246.208,1.33 -2.072,0.02 -3.74,1.33 -3.722,2.94 0.018,1.61 1.715,2.91 3.787,2.89 z"
           id="path16" /><path
           d="m 436.895,1706.55 c -0.62,19.84 1.336,117.22 1.336,146.57"
           style="fill:#ffffff"
           id="path18" /><path
           d="m 433.142,1706.47 c -0.62,19.86 1.335,117.29 1.335,146.65 0,1.62 1.682,2.92 3.754,2.92 2.072,0 3.754,-1.3 3.754,-2.92 0,-29.33 -1.956,-126.67 -1.337,-146.5 0.05,-1.61 -1.591,-2.95 -3.662,-2.99 -2.072,-0.04 -3.794,1.24 -3.844,2.84 z"
           id="path20" /><g
           transform="translate(1.23839,2.48673)"
           id="g26"><path
             d="m 191.084,1854.4 c -2.518,0.04 241.846,-1.98 246.538,-1.98"
             style="fill:#ffffff"
             id="path22" /><path
             d="m 191.088,1851.49 h -0.081 c -0.926,0.01 -1.369,0.22 -1.391,0.22 -0.13,0.05 -3.557,5.6 1.449,5.61 v 0 0 h 0.018 c 0.215,0 2.402,-0.01 6.204,-0.04 37.787,-0.3 236.113,-1.94 240.335,-1.94 2.072,0 3.754,-1.31 3.754,-2.92 0,-1.61 -1.682,-2.91 -3.754,-2.91 -4.224,0 -202.612,1.63 -240.411,1.93 -3.757,0.03 -6.13,0.05 -6.13,0.05 z m 1.345,5.64 c -0.395,0.12 -0.823,0.18 -1.271,0.19 0.694,-0.01 1.108,-0.14 1.271,-0.19 z m 0.78,-0.32 -0.04,0.02 0.013,-0.01 z m 0.972,-0.76 c -0.248,0.28 -0.559,0.53 -0.916,0.73 0.424,-0.23 0.713,-0.49 0.916,-0.73 z m -2.199,-4.48 c 0.96,0.19 1.777,0.66 2.287,1.3 -0.28,-0.4 -0.91,-1.05 -2.287,-1.3 z"
             id="path24" /></g></g></g><g
       style="clip-rule:evenodd;fill-rule:evenodd;stroke-linecap:round;stroke-linejoin:round;stroke-miterlimit:1.5"
       transform="translate(56.506667,1540.1099)"
       id="g60"><g
         transform="matrix(1,0,0,1.15377,0,-256.31)"
         id="g34"><path
           d="m 348.166,1722.79 191.543,-2.45 -1.051,-53.16 -190.346,-0.3 z"
           style="fill:#009429;stroke:#000000;stroke-width:2.7px"
           id="path32" /></g><g
         transform="translate(-280.458,6.87753)"
         id="g38"><path
           d="m 670.025,1721.13 10.197,-21.2 9.776,20.8 24.99,0.09 -17.063,18.81 c 0.726,3.25 5.615,20.93 6.8,24.16 l -23.658,-11.11 -24.506,10.97 6.789,-23.8 -17.302,-18.34 z"
           style="fill:#1a1719;stroke:#000000;stroke-width:2.92px"
           id="path36" /></g><g
         transform="matrix(0.776868,0,0,1,200.127,-40.4722)"
         id="g58"><path
           d="m 190.214,1708.05 c -1.24,-1.03 0.327,115.89 0.327,148.47"
           style="fill:#ffffff"
           id="path40" /><path
           d="m 193.811,1708.88 c 0.368,-0.96 0.088,-2.04 -0.856,-2.83 -1.079,-0.89 -2.277,-1.02 -3.332,-0.89 -0.787,0.09 -1.747,0.37 -2.517,1.22 -0.173,0.19 -0.426,0.5 -0.592,1 -0.112,0.33 -0.273,1.58 -0.345,3.62 -0.651,18.49 0.618,116.18 0.618,145.52 0,1.61 1.682,2.92 3.754,2.92 2.072,0 3.755,-1.31 3.755,-2.92 0,-29.31 -1.271,-126.89 -0.621,-145.37 0.034,-0.95 0.103,-1.87 0.136,-2.27 z m -2.785,2.01 c -1.252,0.22 -2.613,-0.07 -3.552,-0.85 1.158,0.96 2.395,1.1 3.552,0.85 z"
           id="path42" /><path
           d="m 190.926,1707.4 c 83.42,-0.57 162.93,-1.33 246.176,-1.33"
           style="fill:#ffffff"
           id="path44" /><path
           d="m 190.959,1710.31 c 83.408,-0.56 162.908,-1.32 246.143,-1.32 2.072,0 3.754,-1.31 3.754,-2.92 0,-1.61 -1.682,-2.92 -3.754,-2.92 -83.257,0 -162.778,0.76 -246.208,1.33 -2.072,0.02 -3.74,1.33 -3.722,2.94 0.018,1.61 1.715,2.91 3.787,2.89 z"
           id="path46" /><path
           d="m 436.895,1706.55 c -0.62,19.84 1.336,117.22 1.336,146.57"
           style="fill:#ffffff"
           id="path48" /><path
           d="m 433.142,1706.47 c -0.62,19.86 1.335,117.29 1.335,146.65 0,1.62 1.682,2.92 3.754,2.92 2.072,0 3.754,-1.3 3.754,-2.92 0,-29.33 -1.956,-126.67 -1.337,-146.5 0.05,-1.61 -1.591,-2.95 -3.662,-2.99 -2.072,-0.04 -3.794,1.24 -3.844,2.84 z"
           id="path50" /><g
           transform="translate(1.23839,2.48673)"
           id="g56"><path
             d="m 191.084,1854.4 c -2.518,0.04 241.846,-1.98 246.538,-1.98"
             style="fill:#ffffff"
             id="path52" /><path
             d="m 191.088,1851.49 h -0.081 c -0.926,0.01 -1.369,0.22 -1.391,0.22 -0.13,0.05 -3.557,5.6 1.449,5.61 v 0 0 h 0.018 c 0.215,0 2.402,-0.01 6.204,-0.04 37.787,-0.3 236.113,-1.94 240.335,-1.94 2.072,0 3.754,-1.31 3.754,-2.92 0,-1.61 -1.682,-2.91 -3.754,-2.91 -4.224,0 -202.612,1.63 -240.411,1.93 -3.757,0.03 -6.13,0.05 -6.13,0.05 z m 1.345,5.64 c -0.395,0.12 -0.823,0.18 -1.271,0.19 0.694,-0.01 1.108,-0.14 1.271,-0.19 z m 0.78,-0.32 -0.04,0.02 0.013,-0.01 z m 0.972,-0.76 c -0.248,0.28 -0.559,0.53 -0.916,0.73 0.424,-0.23 0.713,-0.49 0.916,-0.73 z m -2.199,-4.48 c 0.96,0.19 1.777,0.66 2.287,1.3 -0.28,-0.4 -0.91,-1.05 -2.287,-1.3 z"
             id="path54" /></g></g></g><g
       style="clip-rule:evenodd;fill-rule:evenodd;stroke-linecap:round;stroke-linejoin:round;stroke-miterlimit:1.5"
       transform="translate(285.84757,1538.7199)"
       id="g90"><g
         transform="matrix(1,0,0,1.15377,0,-256.31)"
         id="g64"><path
           d="m 348.166,1722.79 191.543,-2.45 -1.051,-53.16 -190.346,-0.3 z"
           style="fill:#009429;stroke:#000000;stroke-width:2.7px"
           id="path62" /></g><g
         transform="translate(-280.458,6.87753)"
         id="g68"><path
           d="m 670.025,1721.13 10.197,-21.2 9.776,20.8 24.99,0.09 -17.063,18.81 c 0.726,3.25 5.615,20.93 6.8,24.16 l -23.658,-11.11 -24.506,10.97 6.789,-23.8 -17.302,-18.34 z"
           style="fill:#1a1719;stroke:#000000;stroke-width:2.92px"
           id="path66" /></g><g
         transform="matrix(0.776868,0,0,1,200.127,-40.4722)"
         id="g88"><path
           d="m 190.214,1708.05 c -1.24,-1.03 0.327,115.89 0.327,148.47"
           style="fill:#ffffff"
           id="path70" /><path
           d="m 193.811,1708.88 c 0.368,-0.96 0.088,-2.04 -0.856,-2.83 -1.079,-0.89 -2.277,-1.02 -3.332,-0.89 -0.787,0.09 -1.747,0.37 -2.517,1.22 -0.173,0.19 -0.426,0.5 -0.592,1 -0.112,0.33 -0.273,1.58 -0.345,3.62 -0.651,18.49 0.618,116.18 0.618,145.52 0,1.61 1.682,2.92 3.754,2.92 2.072,0 3.755,-1.31 3.755,-2.92 0,-29.31 -1.271,-126.89 -0.621,-145.37 0.034,-0.95 0.103,-1.87 0.136,-2.27 z m -2.785,2.01 c -1.252,0.22 -2.613,-0.07 -3.552,-0.85 1.158,0.96 2.395,1.1 3.552,0.85 z"
           id="path72" /><path
           d="m 190.926,1707.4 c 83.42,-0.57 162.93,-1.33 246.176,-1.33"
           style="fill:#ffffff"
           id="path74" /><path
           d="m 190.959,1710.31 c 83.408,-0.56 162.908,-1.32 246.143,-1.32 2.072,0 3.754,-1.31 3.754,-2.92 0,-1.61 -1.682,-2.92 -3.754,-2.92 -83.257,0 -162.778,0.76 -246.208,1.33 -2.072,0.02 -3.74,1.33 -3.722,2.94 0.018,1.61 1.715,2.91 3.787,2.89 z"
           id="path76" /><path
           d="m 436.895,1706.55 c -0.62,19.84 1.336,117.22 1.336,146.57"
           style="fill:#ffffff"
           id="path78" /><path
           d="m 433.142,1706.47 c -0.62,19.86 1.335,117.29 1.335,146.65 0,1.62 1.682,2.92 3.754,2.92 2.072,0 3.754,-1.3 3.754,-2.92 0,-29.33 -1.956,-126.67 -1.337,-146.5 0.05,-1.61 -1.591,-2.95 -3.662,-2.99 -2.072,-0.04 -3.794,1.24 -3.844,2.84 z"
           id="path80" /><g
           transform="translate(1.23839,2.48673)"
           id="g86"><path
             d="m 191.084,1854.4 c -2.518,0.04 241.846,-1.98 246.538,-1.98"
             style="fill:#ffffff"
             id="path82" /><path
             d="m 191.088,1851.49 h -0.081 c -0.926,0.01 -1.369,0.22 -1.391,0.22 -0.13,0.05 -3.557,5.6 1.449,5.61 v 0 0 h 0.018 c 0.215,0 2.402,-0.01 6.204,-0.04 37.787,-0.3 236.113,-1.94 240.335,-1.94 2.072,0 3.754,-1.31 3.754,-2.92 0,-1.61 -1.682,-2.91 -3.754,-2.91 -4.224,0 -202.612,1.63 -240.411,1.93 -3.757,0.03 -6.13,0.05 -6.13,0.05 z m 1.345,5.64 c -0.395,0.12 -0.823,0.18 -1.271,0.19 0.694,-0.01 1.108,-0.14 1.271,-0.19 z m 0.78,-0.32 -0.04,0.02 0.013,-0.01 z m 0.972,-0.76 c -0.248,0.28 -0.559,0.53 -0.916,0.73 0.424,-0.23 0.713,-0.49 0.916,-0.73 z m -2.199,-4.48 c 0.96,0.19 1.777,0.66 2.287,1.3 -0.28,-0.4 -0.91,-1.05 -2.287,-1.3 z"
             id="path84" /></g></g></g><g
       style="clip-rule:evenodd;fill-rule:evenodd;stroke-linecap:round;stroke-linejoin:round;stroke-miterlimit:1.5"
       transform="translate(510.32757,1539.4199)"
       id="g120"><g
         transform="matrix(1,0,0,1.15377,0,-256.31)"
         id="g94"><path
           d="m 348.166,1722.79 191.543,-2.45 -1.051,-53.16 -190.346,-0.3 z"
           style="fill:#009429;stroke:#000000;stroke-width:2.7px"
           id="path92" /></g><g
         transform="translate(-280.458,6.87753)"
         id="g98"><path
           d="m 670.025,1721.13 10.197,-21.2 9.776,20.8 24.99,0.09 -17.063,18.81 c 0.726,3.25 5.615,20.93 6.8,24.16 l -23.658,-11.11 -24.506,10.97 6.789,-23.8 -17.302,-18.34 z"
           style="fill:#1a1719;stroke:#000000;stroke-width:2.92px"
           id="path96" /></g><g
         transform="matrix(0.776868,0,0,1,200.127,-40.4722)"
         id="g118"><path
           d="m 190.214,1708.05 c -1.24,-1.03 0.327,115.89 0.327,148.47"
           style="fill:#ffffff"
           id="path100" /><path
           d="m 193.811,1708.88 c 0.368,-0.96 0.088,-2.04 -0.856,-2.83 -1.079,-0.89 -2.277,-1.02 -3.332,-0.89 -0.787,0.09 -1.747,0.37 -2.517,1.22 -0.173,0.19 -0.426,0.5 -0.592,1 -0.112,0.33 -0.273,1.58 -0.345,3.62 -0.651,18.49 0.618,116.18 0.618,145.52 0,1.61 1.682,2.92 3.754,2.92 2.072,0 3.755,-1.31 3.755,-2.92 0,-29.31 -1.271,-126.89 -0.621,-145.37 0.034,-0.95 0.103,-1.87 0.136,-2.27 z m -2.785,2.01 c -1.252,0.22 -2.613,-0.07 -3.552,-0.85 1.158,0.96 2.395,1.1 3.552,0.85 z"
           id="path102" /><path
           d="m 190.926,1707.4 c 83.42,-0.57 162.93,-1.33 246.176,-1.33"
           style="fill:#ffffff"
           id="path104" /><path
           d="m 190.959,1710.31 c 83.408,-0.56 162.908,-1.32 246.143,-1.32 2.072,0 3.754,-1.31 3.754,-2.92 0,-1.61 -1.682,-2.92 -3.754,-2.92 -83.257,0 -162.778,0.76 -246.208,1.33 -2.072,0.02 -3.74,1.33 -3.722,2.94 0.018,1.61 1.715,2.91 3.787,2.89 z"
           id="path106" /><path
           d="m 436.895,1706.55 c -0.62,19.84 1.336,117.22 1.336,146.57"
           style="fill:#ffffff"
           id="path108" /><path
           d="m 433.142,1706.47 c -0.62,19.86 1.335,117.29 1.335,146.65 0,1.62 1.682,2.92 3.754,2.92 2.072,0 3.754,-1.3 3.754,-2.92 0,-29.33 -1.956,-126.67 -1.337,-146.5 0.05,-1.61 -1.591,-2.95 -3.662,-2.99 -2.072,-0.04 -3.794,1.24 -3.844,2.84 z"
           id="path110" /><g
           transform="translate(1.23839,2.48673)"
           id="g116"><path
             d="m 191.084,1854.4 c -2.518,0.04 241.846,-1.98 246.538,-1.98"
             style="fill:#ffffff"
             id="path112" /><path
             d="m 191.088,1851.49 h -0.081 c -0.926,0.01 -1.369,0.22 -1.391,0.22 -0.13,0.05 -3.557,5.6 1.449,5.61 v 0 0 h 0.018 c 0.215,0 2.402,-0.01 6.204,-0.04 37.787,-0.3 236.113,-1.94 240.335,-1.94 2.072,0 3.754,-1.31 3.754,-2.92 0,-1.61 -1.682,-2.91 -3.754,-2.91 -4.224,0 -202.612,1.63 -240.411,1.93 -3.757,0.03 -6.13,0.05 -6.13,0.05 z m 1.345,5.64 c -0.395,0.12 -0.823,0.18 -1.271,0.19 0.694,-0.01 1.108,-0.14 1.271,-0.19 z m 0.78,-0.32 -0.04,0.02 0.013,-0.01 z m 0.972,-0.76 c -0.248,0.28 -0.559,0.53 -0.916,0.73 0.424,-0.23 0.713,-0.49 0.916,-0.73 z m -2.199,-4.48 c 0.96,0.19 1.777,0.66 2.287,1.3 -0.28,-0.4 -0.91,-1.05 -2.287,-1.3 z"
             id="path114" /></g></g></g><g
       style="clip-rule:evenodd;fill-rule:evenodd;stroke-linecap:round;stroke-linejoin:round;stroke-miterlimit:1.5"
       transform="translate(738.63657,1570.7699)"
       id="g150"><g
         transform="matrix(1,0,0,1.15377,0,-256.31)"
         id="g124"><path
           d="m 348.166,1722.79 191.543,-2.45 -1.051,-53.16 -190.346,-0.3 z"
           style="fill:#009429;stroke:#000000;stroke-width:2.7px"
           id="path122" /></g><g
         transform="translate(-280.458,6.87753)"
         id="g128"><path
           d="m 670.025,1721.13 10.197,-21.2 9.776,20.8 24.99,0.09 -17.063,18.81 c 0.726,3.25 5.615,20.93 6.8,24.16 l -23.658,-11.11 -24.506,10.97 6.789,-23.8 -17.302,-18.34 z"
           style="fill:#1a1719;stroke:#000000;stroke-width:2.92px"
           id="path126" /></g><g
         transform="matrix(0.776868,0,0,1,200.127,-40.4722)"
         id="g148"><path
           d="m 190.214,1708.05 c -1.24,-1.03 0.327,115.89 0.327,148.47"
           style="fill:#ffffff"
           id="path130" /><path
           d="m 193.811,1708.88 c 0.368,-0.96 0.088,-2.04 -0.856,-2.83 -1.079,-0.89 -2.277,-1.02 -3.332,-0.89 -0.787,0.09 -1.747,0.37 -2.517,1.22 -0.173,0.19 -0.426,0.5 -0.592,1 -0.112,0.33 -0.273,1.58 -0.345,3.62 -0.651,18.49 0.618,116.18 0.618,145.52 0,1.61 1.682,2.92 3.754,2.92 2.072,0 3.755,-1.31 3.755,-2.92 0,-29.31 -1.271,-126.89 -0.621,-145.37 0.034,-0.95 0.103,-1.87 0.136,-2.27 z m -2.785,2.01 c -1.252,0.22 -2.613,-0.07 -3.552,-0.85 1.158,0.96 2.395,1.1 3.552,0.85 z"
           id="path132" /><path
           d="m 190.926,1707.4 c 83.42,-0.57 162.93,-1.33 246.176,-1.33"
           style="fill:#ffffff"
           id="path134" /><path
           d="m 190.959,1710.31 c 83.408,-0.56 162.908,-1.32 246.143,-1.32 2.072,0 3.754,-1.31 3.754,-2.92 0,-1.61 -1.682,-2.92 -3.754,-2.92 -83.257,0 -162.778,0.76 -246.208,1.33 -2.072,0.02 -3.74,1.33 -3.722,2.94 0.018,1.61 1.715,2.91 3.787,2.89 z"
           id="path136" /><path
           d="m 436.895,1706.55 c -0.62,19.84 1.336,117.22 1.336,146.57"
           style="fill:#ffffff"
           id="path138" /><path
           d="m 433.142,1706.47 c -0.62,19.86 1.335,117.29 1.335,146.65 0,1.62 1.682,2.92 3.754,2.92 2.072,0 3.754,-1.3 3.754,-2.92 0,-29.33 -1.956,-126.67 -1.337,-146.5 0.05,-1.61 -1.591,-2.95 -3.662,-2.99 -2.072,-0.04 -3.794,1.24 -3.844,2.84 z"
           id="path140" /><g
           transform="translate(1.23839,2.48673)"
           id="g146"><path
             d="m 191.084,1854.4 c -2.518,0.04 241.846,-1.98 246.538,-1.98"
             style="fill:#ffffff"
             id="path142" /><path
             d="m 191.088,1851.49 h -0.081 c -0.926,0.01 -1.369,0.22 -1.391,0.22 -0.13,0.05 -3.557,5.6 1.449,5.61 v 0 0 h 0.018 c 0.215,0 2.402,-0.01 6.204,-0.04 37.787,-0.3 236.113,-1.94 240.335,-1.94 2.072,0 3.754,-1.31 3.754,-2.92 0,-1.61 -1.682,-2.91 -3.754,-2.91 -4.224,0 -202.612,1.63 -240.411,1.93 -3.757,0.03 -6.13,0.05 -6.13,0.05 z m 1.345,5.64 c -0.395,0.12 -0.823,0.18 -1.271,0.19 0.694,-0.01 1.108,-0.14 1.271,-0.19 z m 0.78,-0.32 -0.04,0.02 0.013,-0.01 z m 0.972,-0.76 c -0.248,0.28 -0.559,0.53 -0.916,0.73 0.424,-0.23 0.713,-0.49 0.916,-0.73 z m -2.199,-4.48 c 0.96,0.19 1.777,0.66 2.287,1.3 -0.28,-0.4 -0.91,-1.05 -2.287,-1.3 z"
             id="path144" /></g></g></g><g
       style="clip-rule:evenodd;fill-rule:evenodd;stroke-linecap:round;stroke-linejoin:round;stroke-miterlimit:1.5"
       transform="translate(-82.254529,1763.2999)"
       id="g180"><g
         transform="matrix(1,0,0,1.15377,0,-256.31)"
         id="g154"><path
           d="m 348.166,1722.79 191.543,-2.45 -1.051,-53.16 -190.346,-0.3 z"
           style="fill:#009429;stroke:#000000;stroke-width:2.7px"
           id="path152" /></g><g
         transform="translate(-280.458,6.87753)"
         id="g158"><path
           d="m 670.025,1721.13 10.197,-21.2 9.776,20.8 24.99,0.09 -17.063,18.81 c 0.726,3.25 5.615,20.93 6.8,24.16 l -23.658,-11.11 -24.506,10.97 6.789,-23.8 -17.302,-18.34 z"
           style="fill:#1a1719;stroke:#000000;stroke-width:2.92px"
           id="path156" /></g><g
         transform="matrix(0.776868,0,0,1,200.127,-40.4722)"
         id="g178"><path
           d="m 190.214,1708.05 c -1.24,-1.03 0.327,115.89 0.327,148.47"
           style="fill:#ffffff"
           id="path160" /><path
           d="m 193.811,1708.88 c 0.368,-0.96 0.088,-2.04 -0.856,-2.83 -1.079,-0.89 -2.277,-1.02 -3.332,-0.89 -0.787,0.09 -1.747,0.37 -2.517,1.22 -0.173,0.19 -0.426,0.5 -0.592,1 -0.112,0.33 -0.273,1.58 -0.345,3.62 -0.651,18.49 0.618,116.18 0.618,145.52 0,1.61 1.682,2.92 3.754,2.92 2.072,0 3.755,-1.31 3.755,-2.92 0,-29.31 -1.271,-126.89 -0.621,-145.37 0.034,-0.95 0.103,-1.87 0.136,-2.27 z m -2.785,2.01 c -1.252,0.22 -2.613,-0.07 -3.552,-0.85 1.158,0.96 2.395,1.1 3.552,0.85 z"
           id="path162" /><path
           d="m 190.926,1707.4 c 83.42,-0.57 162.93,-1.33 246.176,-1.33"
           style="fill:#ffffff"
           id="path164" /><path
           d="m 190.959,1710.31 c 83.408,-0.56 162.908,-1.32 246.143,-1.32 2.072,0 3.754,-1.31 3.754,-2.92 0,-1.61 -1.682,-2.92 -3.754,-2.92 -83.257,0 -162.778,0.76 -246.208,1.33 -2.072,0.02 -3.74,1.33 -3.722,2.94 0.018,1.61 1.715,2.91 3.787,2.89 z"
           id="path166" /><path
           d="m 436.895,1706.55 c -0.62,19.84 1.336,117.22 1.336,146.57"
           style="fill:#ffffff"
           id="path168" /><path
           d="m 433.142,1706.47 c -0.62,19.86 1.335,117.29 1.335,146.65 0,1.62 1.682,2.92 3.754,2.92 2.072,0 3.754,-1.3 3.754,-2.92 0,-29.33 -1.956,-126.67 -1.337,-146.5 0.05,-1.61 -1.591,-2.95 -3.662,-2.99 -2.072,-0.04 -3.794,1.24 -3.844,2.84 z"
           id="path170" /><g
           transform="translate(1.23839,2.48673)"
           id="g176"><path
             d="m 191.084,1854.4 c -2.518,0.04 241.846,-1.98 246.538,-1.98"
             style="fill:#ffffff"
             id="path172" /><path
             d="m 191.088,1851.49 h -0.081 c -0.926,0.01 -1.369,0.22 -1.391,0.22 -0.13,0.05 -3.557,5.6 1.449,5.61 v 0 0 h 0.018 c 0.215,0 2.402,-0.01 6.204,-0.04 37.787,-0.3 236.113,-1.94 240.335,-1.94 2.072,0 3.754,-1.31 3.754,-2.92 0,-1.61 -1.682,-2.91 -3.754,-2.91 -4.224,0 -202.612,1.63 -240.411,1.93 -3.757,0.03 -6.13,0.05 -6.13,0.05 z m 1.345,5.64 c -0.395,0.12 -0.823,0.18 -1.271,0.19 0.694,-0.01 1.108,-0.14 1.271,-0.19 z m 0.78,-0.32 -0.04,0.02 0.013,-0.01 z m 0.972,-0.76 c -0.248,0.28 -0.559,0.53 -0.916,0.73 0.424,-0.23 0.713,-0.49 0.916,-0.73 z m -2.199,-4.48 c 0.96,0.19 1.777,0.66 2.287,1.3 -0.28,-0.4 -0.91,-1.05 -2.287,-1.3 z"
             id="path174" /></g></g></g><g
       style="clip-rule:evenodd;fill-rule:evenodd;stroke-linecap:round;stroke-linejoin:round;stroke-miterlimit:1.5"
       transform="translate(156.33956,1737.3199)"
       id="g210"><g
         transform="matrix(1,0,0,1.15377,0,-256.31)"
         id="g184"><path
           d="m 348.166,1722.79 191.543,-2.45 -1.051,-53.16 -190.346,-0.3 z"
           style="fill:#009429;stroke:#000000;stroke-width:2.7px"
           id="path182" /></g><g
         transform="translate(-280.458,6.87753)"
         id="g188"><path
           d="m 670.025,1721.13 10.197,-21.2 9.776,20.8 24.99,0.09 -17.063,18.81 c 0.726,3.25 5.615,20.93 6.8,24.16 l -23.658,-11.11 -24.506,10.97 6.789,-23.8 -17.302,-18.34 z"
           style="fill:#1a1719;stroke:#000000;stroke-width:2.92px"
           id="path186" /></g><g
         transform="matrix(0.776868,0,0,1,200.127,-40.4722)"
         id="g208"><path
           d="m 190.214,1708.05 c -1.24,-1.03 0.327,115.89 0.327,148.47"
           style="fill:#ffffff"
           id="path190" /><path
           d="m 193.811,1708.88 c 0.368,-0.96 0.088,-2.04 -0.856,-2.83 -1.079,-0.89 -2.277,-1.02 -3.332,-0.89 -0.787,0.09 -1.747,0.37 -2.517,1.22 -0.173,0.19 -0.426,0.5 -0.592,1 -0.112,0.33 -0.273,1.58 -0.345,3.62 -0.651,18.49 0.618,116.18 0.618,145.52 0,1.61 1.682,2.92 3.754,2.92 2.072,0 3.755,-1.31 3.755,-2.92 0,-29.31 -1.271,-126.89 -0.621,-145.37 0.034,-0.95 0.103,-1.87 0.136,-2.27 z m -2.785,2.01 c -1.252,0.22 -2.613,-0.07 -3.552,-0.85 1.158,0.96 2.395,1.1 3.552,0.85 z"
           id="path192" /><path
           d="m 190.926,1707.4 c 83.42,-0.57 162.93,-1.33 246.176,-1.33"
           style="fill:#ffffff"
           id="path194" /><path
           d="m 190.959,1710.31 c 83.408,-0.56 162.908,-1.32 246.143,-1.32 2.072,0 3.754,-1.31 3.754,-2.92 0,-1.61 -1.682,-2.92 -3.754,-2.92 -83.257,0 -162.778,0.76 -246.208,1.33 -2.072,0.02 -3.74,1.33 -3.722,2.94 0.018,1.61 1.715,2.91 3.787,2.89 z"
           id="path196" /><path
           d="m 436.895,1706.55 c -0.62,19.84 1.336,117.22 1.336,146.57"
           style="fill:#ffffff"
           id="path198" /><path
           d="m 433.142,1706.47 c -0.62,19.86 1.335,117.29 1.335,146.65 0,1.62 1.682,2.92 3.754,2.92 2.072,0 3.754,-1.3 3.754,-2.92 0,-29.33 -1.956,-126.67 -1.337,-146.5 0.05,-1.61 -1.591,-2.95 -3.662,-2.99 -2.072,-0.04 -3.794,1.24 -3.844,2.84 z"
           id="path200" /><g
           transform="translate(1.23839,2.48673)"
           id="g206"><path
             d="m 191.084,1854.4 c -2.518,0.04 241.846,-1.98 246.538,-1.98"
             style="fill:#ffffff"
             id="path202" /><path
             d="m 191.088,1851.49 h -0.081 c -0.926,0.01 -1.369,0.22 -1.391,0.22 -0.13,0.05 -3.557,5.6 1.449,5.61 v 0 0 h 0.018 c 0.215,0 2.402,-0.01 6.204,-0.04 37.787,-0.3 236.113,-1.94 240.335,-1.94 2.072,0 3.754,-1.31 3.754,-2.92 0,-1.61 -1.682,-2.91 -3.754,-2.91 -4.224,0 -202.612,1.63 -240.411,1.93 -3.757,0.03 -6.13,0.05 -6.13,0.05 z m 1.345,5.64 c -0.395,0.12 -0.823,0.18 -1.271,0.19 0.694,-0.01 1.108,-0.14 1.271,-0.19 z m 0.78,-0.32 -0.04,0.02 0.013,-0.01 z m 0.972,-0.76 c -0.248,0.28 -0.559,0.53 -0.916,0.73 0.424,-0.23 0.713,-0.49 0.916,-0.73 z m -2.199,-4.48 c 0.96,0.19 1.777,0.66 2.287,1.3 -0.28,-0.4 -0.91,-1.05 -2.287,-1.3 z"
             id="path204" /></g></g></g><g
       style="clip-rule:evenodd;fill-rule:evenodd;stroke-linecap:round;stroke-linejoin:round;stroke-miterlimit:1.5"
       transform="translate(394.93457,1711.3499)"
       id="g240"><g
         transform="matrix(1,0,0,1.15377,0,-256.31)"
         id="g214"><path
           d="m 348.166,1722.79 191.543,-2.45 -1.051,-53.16 -190.346,-0.3 z"
           style="fill:#009429;stroke:#000000;stroke-width:2.7px"
           id="path212" /></g><g
         transform="translate(-280.458,6.87753)"
         id="g218"><path
           d="m 670.025,1721.13 10.197,-21.2 9.776,20.8 24.99,0.09 -17.063,18.81 c 0.726,3.25 5.615,20.93 6.8,24.16 l -23.658,-11.11 -24.506,10.97 6.789,-23.8 -17.302,-18.34 z"
           style="fill:#1a1719;stroke:#000000;stroke-width:2.92px"
           id="path216" /></g><g
         transform="matrix(0.776868,0,0,1,200.127,-40.4722)"
         id="g238"><path
           d="m 190.214,1708.05 c -1.24,-1.03 0.327,115.89 0.327,148.47"
           style="fill:#ffffff"
           id="path220" /><path
           d="m 193.811,1708.88 c 0.368,-0.96 0.088,-2.04 -0.856,-2.83 -1.079,-0.89 -2.277,-1.02 -3.332,-0.89 -0.787,0.09 -1.747,0.37 -2.517,1.22 -0.173,0.19 -0.426,0.5 -0.592,1 -0.112,0.33 -0.273,1.58 -0.345,3.62 -0.651,18.49 0.618,116.18 0.618,145.52 0,1.61 1.682,2.92 3.754,2.92 2.072,0 3.755,-1.31 3.755,-2.92 0,-29.31 -1.271,-126.89 -0.621,-145.37 0.034,-0.95 0.103,-1.87 0.136,-2.27 z m -2.785,2.01 c -1.252,0.22 -2.613,-0.07 -3.552,-0.85 1.158,0.96 2.395,1.1 3.552,0.85 z"
           id="path222" /><path
           d="m 190.926,1707.4 c 83.42,-0.57 162.93,-1.33 246.176,-1.33"
           style="fill:#ffffff"
           id="path224" /><path
           d="m 190.959,1710.31 c 83.408,-0.56 162.908,-1.32 246.143,-1.32 2.072,0 3.754,-1.31 3.754,-2.92 0,-1.61 -1.682,-2.92 -3.754,-2.92 -83.257,0 -162.778,0.76 -246.208,1.33 -2.072,0.02 -3.74,1.33 -3.722,2.94 0.018,1.61 1.715,2.91 3.787,2.89 z"
           id="path226" /><path
           d="m 436.895,1706.55 c -0.62,19.84 1.336,117.22 1.336,146.57"
           style="fill:#ffffff"
           id="path228" /><path
           d="m 433.142,1706.47 c -0.62,19.86 1.335,117.29 1.335,146.65 0,1.62 1.682,2.92 3.754,2.92 2.072,0 3.754,-1.3 3.754,-2.92 0,-29.33 -1.956,-126.67 -1.337,-146.5 0.05,-1.61 -1.591,-2.95 -3.662,-2.99 -2.072,-0.04 -3.794,1.24 -3.844,2.84 z"
           id="path230" /><g
           transform="translate(1.23839,2.48673)"
           id="g236"><path
             d="m 191.084,1854.4 c -2.518,0.04 241.846,-1.98 246.538,-1.98"
             style="fill:#ffffff"
             id="path232" /><path
             d="m 191.088,1851.49 h -0.081 c -0.926,0.01 -1.369,0.22 -1.391,0.22 -0.13,0.05 -3.557,5.6 1.449,5.61 v 0 0 h 0.018 c 0.215,0 2.402,-0.01 6.204,-0.04 37.787,-0.3 236.113,-1.94 240.335,-1.94 2.072,0 3.754,-1.31 3.754,-2.92 0,-1.61 -1.682,-2.91 -3.754,-2.91 -4.224,0 -202.612,1.63 -240.411,1.93 -3.757,0.03 -6.13,0.05 -6.13,0.05 z m 1.345,5.64 c -0.395,0.12 -0.823,0.18 -1.271,0.19 0.694,-0.01 1.108,-0.14 1.271,-0.19 z m 0.78,-0.32 -0.04,0.02 0.013,-0.01 z m 0.972,-0.76 c -0.248,0.28 -0.559,0.53 -0.916,0.73 0.424,-0.23 0.713,-0.49 0.916,-0.73 z m -2.199,-4.48 c 0.96,0.19 1.777,0.66 2.287,1.3 -0.28,-0.4 -0.91,-1.05 -2.287,-1.3 z"
             id="path234" /></g></g></g><g
       style="clip-rule:evenodd;fill-rule:evenodd;stroke-linecap:round;stroke-linejoin:round;stroke-miterlimit:1.5"
       transform="translate(639.15257,1750.5399)"
       id="g270"><g
         transform="matrix(1,0,0,1.15377,0,-256.31)"
         id="g244"><path
           d="m 348.166,1722.79 191.543,-2.45 -1.051,-53.16 -190.346,-0.3 z"
           style="fill:#009429;stroke:#000000;stroke-width:2.7px"
           id="path242" /></g><g
         transform="translate(-280.458,6.87753)"
         id="g248"><path
           d="m 670.025,1721.13 10.197,-21.2 9.776,20.8 24.99,0.09 -17.063,18.81 c 0.726,3.25 5.615,20.93 6.8,24.16 l -23.658,-11.11 -24.506,10.97 6.789,-23.8 -17.302,-18.34 z"
           style="fill:#1a1719;stroke:#000000;stroke-width:2.92px"
           id="path246" /></g><g
         transform="matrix(0.776868,0,0,1,200.127,-40.4722)"
         id="g268"><path
           d="m 190.214,1708.05 c -1.24,-1.03 0.327,115.89 0.327,148.47"
           style="fill:#ffffff"
           id="path250" /><path
           d="m 193.811,1708.88 c 0.368,-0.96 0.088,-2.04 -0.856,-2.83 -1.079,-0.89 -2.277,-1.02 -3.332,-0.89 -0.787,0.09 -1.747,0.37 -2.517,1.22 -0.173,0.19 -0.426,0.5 -0.592,1 -0.112,0.33 -0.273,1.58 -0.345,3.62 -0.651,18.49 0.618,116.18 0.618,145.52 0,1.61 1.682,2.92 3.754,2.92 2.072,0 3.755,-1.31 3.755,-2.92 0,-29.31 -1.271,-126.89 -0.621,-145.37 0.034,-0.95 0.103,-1.87 0.136,-2.27 z m -2.785,2.01 c -1.252,0.22 -2.613,-0.07 -3.552,-0.85 1.158,0.96 2.395,1.1 3.552,0.85 z"
           id="path252" /><path
           d="m 190.926,1707.4 c 83.42,-0.57 162.93,-1.33 246.176,-1.33"
           style="fill:#ffffff"
           id="path254" /><path
           d="m 190.959,1710.31 c 83.408,-0.56 162.908,-1.32 246.143,-1.32 2.072,0 3.754,-1.31 3.754,-2.92 0,-1.61 -1.682,-2.92 -3.754,-2.92 -83.257,0 -162.778,0.76 -246.208,1.33 -2.072,0.02 -3.74,1.33 -3.722,2.94 0.018,1.61 1.715,2.91 3.787,2.89 z"
           id="path256" /><path
           d="m 436.895,1706.55 c -0.62,19.84 1.336,117.22 1.336,146.57"
           style="fill:#ffffff"
           id="path258" /><path
           d="m 433.142,1706.47 c -0.62,19.86 1.335,117.29 1.335,146.65 0,1.62 1.682,2.92 3.754,2.92 2.072,0 3.754,-1.3 3.754,-2.92 0,-29.33 -1.956,-126.67 -1.337,-146.5 0.05,-1.61 -1.591,-2.95 -3.662,-2.99 -2.072,-0.04 -3.794,1.24 -3.844,2.84 z"
           id="path260" /><g
           transform="translate(1.23839,2.48673)"
           id="g266"><path
             d="m 191.084,1854.4 c -2.518,0.04 241.846,-1.98 246.538,-1.98"
             style="fill:#ffffff"
             id="path262" /><path
             d="m 191.088,1851.49 h -0.081 c -0.926,0.01 -1.369,0.22 -1.391,0.22 -0.13,0.05 -3.557,5.6 1.449,5.61 v 0 0 h 0.018 c 0.215,0 2.402,-0.01 6.204,-0.04 37.787,-0.3 236.113,-1.94 240.335,-1.94 2.072,0 3.754,-1.31 3.754,-2.92 0,-1.61 -1.682,-2.91 -3.754,-2.91 -4.224,0 -202.612,1.63 -240.411,1.93 -3.757,0.03 -6.13,0.05 -6.13,0.05 z m 1.345,5.64 c -0.395,0.12 -0.823,0.18 -1.271,0.19 0.694,-0.01 1.108,-0.14 1.271,-0.19 z m 0.78,-0.32 -0.04,0.02 0.013,-0.01 z m 0.972,-0.76 c -0.248,0.28 -0.559,0.53 -0.916,0.73 0.424,-0.23 0.713,-0.49 0.916,-0.73 z m -2.199,-4.48 c 0.96,0.19 1.777,0.66 2.287,1.3 -0.28,-0.4 -0.91,-1.05 -2.287,-1.3 z"
             id="path264" /></g></g></g><g
       style="clip-rule:evenodd;fill-rule:evenodd;stroke-linecap:round;stroke-linejoin:round;stroke-miterlimit:1.5"
       transform="translate(52.046567,2319.2199)"
       id="g306"><g
         transform="translate(261.001,-533.065)"
         id="g300"><g
           transform="matrix(1,0,0,1.05587,-224.852,187.113)"
           id="g274"><path
             d="m 348.166,1722.79 191.543,-2.45 -1.051,-53.16 -190.346,-0.3 z"
             style="fill:#0065b1;stroke:#000000;stroke-width:2.84px"
             id="path272" /></g><g
           transform="matrix(0.857919,0,0,1,17.4524,0)"
           id="g278"><path
             d="m 122.835,1859.6 c -0.256,-0.28 129.055,69.15 129.055,70.02 0,2.03 -111.159,70.96 -127.417,78.7 -1.049,0.5 -1.638,-149.99 -1.638,-148.72 z"
             style="fill:#e30011;stroke:#000000;stroke-width:3.13px"
             id="path276" /></g><g
           transform="matrix(0.776868,0,0,1,-25.7254,151.714)"
           id="g298"><path
             d="m 190.214,1708.05 c -1.24,-1.03 0.327,115.89 0.327,148.47"
             style="fill:#ffffff"
             id="path280" /><path
             d="m 193.811,1708.88 c 0.368,-0.96 0.088,-2.04 -0.856,-2.83 -1.079,-0.89 -2.277,-1.02 -3.332,-0.89 -0.787,0.09 -1.747,0.37 -2.517,1.22 -0.173,0.19 -0.426,0.5 -0.592,1 -0.112,0.33 -0.273,1.58 -0.345,3.62 -0.651,18.49 0.618,116.18 0.618,145.52 0,1.61 1.682,2.92 3.754,2.92 2.072,0 3.755,-1.31 3.755,-2.92 0,-29.31 -1.271,-126.89 -0.621,-145.37 0.034,-0.95 0.103,-1.87 0.136,-2.27 z m -2.785,2.01 c -1.252,0.22 -2.613,-0.07 -3.552,-0.85 1.158,0.96 2.395,1.1 3.552,0.85 z"
             id="path282" /><path
             d="m 190.926,1707.4 c 83.42,-0.57 162.93,-1.33 246.176,-1.33"
             style="fill:#ffffff"
             id="path284" /><path
             d="m 190.959,1710.31 c 83.408,-0.56 162.908,-1.32 246.143,-1.32 2.072,0 3.754,-1.31 3.754,-2.92 0,-1.61 -1.682,-2.92 -3.754,-2.92 -83.257,0 -162.778,0.76 -246.208,1.33 -2.072,0.02 -3.74,1.33 -3.722,2.94 0.018,1.61 1.715,2.91 3.787,2.89 z"
             id="path286" /><path
             d="m 436.895,1706.55 c -0.62,19.84 1.336,117.22 1.336,146.57"
             style="fill:#ffffff"
             id="path288" /><path
             d="m 433.142,1706.47 c -0.62,19.86 1.335,117.29 1.335,146.65 0,1.62 1.682,2.92 3.754,2.92 2.072,0 3.754,-1.3 3.754,-2.92 0,-29.33 -1.956,-126.67 -1.337,-146.5 0.05,-1.61 -1.591,-2.95 -3.662,-2.99 -2.072,-0.04 -3.794,1.24 -3.844,2.84 z"
             id="path290" /><g
             transform="translate(1.23839,2.48673)"
             id="g296"><path
               d="m 191.084,1854.4 c -2.518,0.04 241.846,-1.98 246.538,-1.98"
               style="fill:#ffffff"
               id="path292" /><path
               d="m 191.088,1851.49 h -0.081 c -0.926,0.01 -1.369,0.22 -1.391,0.22 -0.13,0.05 -3.557,5.6 1.449,5.61 v 0 0 h 0.018 c 0.215,0 2.402,-0.01 6.204,-0.04 37.787,-0.3 236.113,-1.94 240.335,-1.94 2.072,0 3.754,-1.31 3.754,-2.92 0,-1.61 -1.682,-2.91 -3.754,-2.91 -4.224,0 -202.612,1.63 -240.411,1.93 -3.757,0.03 -6.13,0.05 -6.13,0.05 z m 1.345,5.64 c -0.395,0.12 -0.823,0.18 -1.271,0.19 0.694,-0.01 1.108,-0.14 1.271,-0.19 z m 0.78,-0.32 -0.04,0.02 0.013,-0.01 z m 0.972,-0.76 c -0.248,0.28 -0.559,0.53 -0.916,0.73 0.424,-0.23 0.713,-0.49 0.916,-0.73 z m -2.199,-4.48 c 0.96,0.19 1.777,0.66 2.287,1.3 -0.28,-0.4 -0.91,-1.05 -2.287,-1.3 z"
               id="path294" /></g></g></g><g
         transform="matrix(0.793577,0,0,0.80296,180.328,-30.6649)"
         id="g304"><path
           d="m 343.664,1800.26 c 7.979,-16.84 8.015,-60.32 -42.408,-54.17 -37.6,4.59 -41.859,54.48 -9.833,71.36 19.232,10.13 44.11,-0.04 52.241,-17.19 z"
           style="fill:#ffcd00;stroke:#000000;stroke-width:3.65px"
           id="path302" /></g></g><g
       style="clip-rule:evenodd;fill-rule:evenodd;stroke-linecap:round;stroke-linejoin:round;stroke-miterlimit:1.5"
       transform="translate(-178.68043,2334.7699)"
       id="g342"><g
         transform="translate(261.001,-533.065)"
         id="g336"><g
           transform="matrix(1,0,0,1.05587,-224.852,187.113)"
           id="g310"><path
             d="m 348.166,1722.79 191.543,-2.45 -1.051,-53.16 -190.346,-0.3 z"
             style="fill:#0065b1;stroke:#000000;stroke-width:2.84px"
             id="path308" /></g><g
           transform="matrix(0.857919,0,0,1,17.4524,0)"
           id="g314"><path
             d="m 122.835,1859.6 c -0.256,-0.28 129.055,69.15 129.055,70.02 0,2.03 -111.159,70.96 -127.417,78.7 -1.049,0.5 -1.638,-149.99 -1.638,-148.72 z"
             style="fill:#e30011;stroke:#000000;stroke-width:3.13px"
             id="path312" /></g><g
           transform="matrix(0.776868,0,0,1,-25.7254,151.714)"
           id="g334"><path
             d="m 190.214,1708.05 c -1.24,-1.03 0.327,115.89 0.327,148.47"
             style="fill:#ffffff"
             id="path316" /><path
             d="m 193.811,1708.88 c 0.368,-0.96 0.088,-2.04 -0.856,-2.83 -1.079,-0.89 -2.277,-1.02 -3.332,-0.89 -0.787,0.09 -1.747,0.37 -2.517,1.22 -0.173,0.19 -0.426,0.5 -0.592,1 -0.112,0.33 -0.273,1.58 -0.345,3.62 -0.651,18.49 0.618,116.18 0.618,145.52 0,1.61 1.682,2.92 3.754,2.92 2.072,0 3.755,-1.31 3.755,-2.92 0,-29.31 -1.271,-126.89 -0.621,-145.37 0.034,-0.95 0.103,-1.87 0.136,-2.27 z m -2.785,2.01 c -1.252,0.22 -2.613,-0.07 -3.552,-0.85 1.158,0.96 2.395,1.1 3.552,0.85 z"
             id="path318" /><path
             d="m 190.926,1707.4 c 83.42,-0.57 162.93,-1.33 246.176,-1.33"
             style="fill:#ffffff"
             id="path320" /><path
             d="m 190.959,1710.31 c 83.408,-0.56 162.908,-1.32 246.143,-1.32 2.072,0 3.754,-1.31 3.754,-2.92 0,-1.61 -1.682,-2.92 -3.754,-2.92 -83.257,0 -162.778,0.76 -246.208,1.33 -2.072,0.02 -3.74,1.33 -3.722,2.94 0.018,1.61 1.715,2.91 3.787,2.89 z"
             id="path322" /><path
             d="m 436.895,1706.55 c -0.62,19.84 1.336,117.22 1.336,146.57"
             style="fill:#ffffff"
             id="path324" /><path
             d="m 433.142,1706.47 c -0.62,19.86 1.335,117.29 1.335,146.65 0,1.62 1.682,2.92 3.754,2.92 2.072,0 3.754,-1.3 3.754,-2.92 0,-29.33 -1.956,-126.67 -1.337,-146.5 0.05,-1.61 -1.591,-2.95 -3.662,-2.99 -2.072,-0.04 -3.794,1.24 -3.844,2.84 z"
             id="path326" /><g
             transform="translate(1.23839,2.48673)"
             id="g332"><path
               d="m 191.084,1854.4 c -2.518,0.04 241.846,-1.98 246.538,-1.98"
               style="fill:#ffffff"
               id="path328" /><path
               d="m 191.088,1851.49 h -0.081 c -0.926,0.01 -1.369,0.22 -1.391,0.22 -0.13,0.05 -3.557,5.6 1.449,5.61 v 0 0 h 0.018 c 0.215,0 2.402,-0.01 6.204,-0.04 37.787,-0.3 236.113,-1.94 240.335,-1.94 2.072,0 3.754,-1.31 3.754,-2.92 0,-1.61 -1.682,-2.91 -3.754,-2.91 -4.224,0 -202.612,1.63 -240.411,1.93 -3.757,0.03 -6.13,0.05 -6.13,0.05 z m 1.345,5.64 c -0.395,0.12 -0.823,0.18 -1.271,0.19 0.694,-0.01 1.108,-0.14 1.271,-0.19 z m 0.78,-0.32 -0.04,0.02 0.013,-0.01 z m 0.972,-0.76 c -0.248,0.28 -0.559,0.53 -0.916,0.73 0.424,-0.23 0.713,-0.49 0.916,-0.73 z m -2.199,-4.48 c 0.96,0.19 1.777,0.66 2.287,1.3 -0.28,-0.4 -0.91,-1.05 -2.287,-1.3 z"
               id="path330" /></g></g></g><g
         transform="matrix(0.793577,0,0,0.80296,180.328,-30.6649)"
         id="g340"><path
           d="m 343.664,1800.26 c 7.979,-16.84 8.015,-60.32 -42.408,-54.17 -37.6,4.59 -41.859,54.48 -9.833,71.36 19.232,10.13 44.11,-0.04 52.241,-17.19 z"
           style="fill:#ffcd00;stroke:#000000;stroke-width:3.65px"
           id="path338" /></g></g><g
       style="clip-rule:evenodd;fill-rule:evenodd;stroke-linecap:round;stroke-linejoin:round;stroke-miterlimit:1.5"
       transform="translate(51.898167,2500.7799)"
       id="g378"><g
         transform="translate(261.001,-533.065)"
         id="g372"><g
           transform="matrix(1,0,0,1.05587,-224.852,187.113)"
           id="g346"><path
             d="m 348.166,1722.79 191.543,-2.45 -1.051,-53.16 -190.346,-0.3 z"
             style="fill:#0065b1;stroke:#000000;stroke-width:2.84px"
             id="path344" /></g><g
           transform="matrix(0.857919,0,0,1,17.4524,0)"
           id="g350"><path
             d="m 122.835,1859.6 c -0.256,-0.28 129.055,69.15 129.055,70.02 0,2.03 -111.159,70.96 -127.417,78.7 -1.049,0.5 -1.638,-149.99 -1.638,-148.72 z"
             style="fill:#e30011;stroke:#000000;stroke-width:3.13px"
             id="path348" /></g><g
           transform="matrix(0.776868,0,0,1,-25.7254,151.714)"
           id="g370"><path
             d="m 190.214,1708.05 c -1.24,-1.03 0.327,115.89 0.327,148.47"
             style="fill:#ffffff"
             id="path352" /><path
             d="m 193.811,1708.88 c 0.368,-0.96 0.088,-2.04 -0.856,-2.83 -1.079,-0.89 -2.277,-1.02 -3.332,-0.89 -0.787,0.09 -1.747,0.37 -2.517,1.22 -0.173,0.19 -0.426,0.5 -0.592,1 -0.112,0.33 -0.273,1.58 -0.345,3.62 -0.651,18.49 0.618,116.18 0.618,145.52 0,1.61 1.682,2.92 3.754,2.92 2.072,0 3.755,-1.31 3.755,-2.92 0,-29.31 -1.271,-126.89 -0.621,-145.37 0.034,-0.95 0.103,-1.87 0.136,-2.27 z m -2.785,2.01 c -1.252,0.22 -2.613,-0.07 -3.552,-0.85 1.158,0.96 2.395,1.1 3.552,0.85 z"
             id="path354" /><path
             d="m 190.926,1707.4 c 83.42,-0.57 162.93,-1.33 246.176,-1.33"
             style="fill:#ffffff"
             id="path356" /><path
             d="m 190.959,1710.31 c 83.408,-0.56 162.908,-1.32 246.143,-1.32 2.072,0 3.754,-1.31 3.754,-2.92 0,-1.61 -1.682,-2.92 -3.754,-2.92 -83.257,0 -162.778,0.76 -246.208,1.33 -2.072,0.02 -3.74,1.33 -3.722,2.94 0.018,1.61 1.715,2.91 3.787,2.89 z"
             id="path358" /><path
             d="m 436.895,1706.55 c -0.62,19.84 1.336,117.22 1.336,146.57"
             style="fill:#ffffff"
             id="path360" /><path
             d="m 433.142,1706.47 c -0.62,19.86 1.335,117.29 1.335,146.65 0,1.62 1.682,2.92 3.754,2.92 2.072,0 3.754,-1.3 3.754,-2.92 0,-29.33 -1.956,-126.67 -1.337,-146.5 0.05,-1.61 -1.591,-2.95 -3.662,-2.99 -2.072,-0.04 -3.794,1.24 -3.844,2.84 z"
             id="path362" /><g
             transform="translate(1.23839,2.48673)"
             id="g368"><path
               d="m 191.084,1854.4 c -2.518,0.04 241.846,-1.98 246.538,-1.98"
               style="fill:#ffffff"
               id="path364" /><path
               d="m 191.088,1851.49 h -0.081 c -0.926,0.01 -1.369,0.22 -1.391,0.22 -0.13,0.05 -3.557,5.6 1.449,5.61 v 0 0 h 0.018 c 0.215,0 2.402,-0.01 6.204,-0.04 37.787,-0.3 236.113,-1.94 240.335,-1.94 2.072,0 3.754,-1.31 3.754,-2.92 0,-1.61 -1.682,-2.91 -3.754,-2.91 -4.224,0 -202.612,1.63 -240.411,1.93 -3.757,0.03 -6.13,0.05 -6.13,0.05 z m 1.345,5.64 c -0.395,0.12 -0.823,0.18 -1.271,0.19 0.694,-0.01 1.108,-0.14 1.271,-0.19 z m 0.78,-0.32 -0.04,0.02 0.013,-0.01 z m 0.972,-0.76 c -0.248,0.28 -0.559,0.53 -0.916,0.73 0.424,-0.23 0.713,-0.49 0.916,-0.73 z m -2.199,-4.48 c 0.96,0.19 1.777,0.66 2.287,1.3 -0.28,-0.4 -0.91,-1.05 -2.287,-1.3 z"
               id="path366" /></g></g></g><g
         transform="matrix(0.793577,0,0,0.80296,180.328,-30.6649)"
         id="g376"><path
           d="m 343.664,1800.26 c 7.979,-16.84 8.015,-60.32 -42.408,-54.17 -37.6,4.59 -41.859,54.48 -9.833,71.36 19.232,10.13 44.11,-0.04 52.241,-17.19 z"
           style="fill:#ffcd00;stroke:#000000;stroke-width:3.65px"
           id="path374" /></g></g><g
       style="clip-rule:evenodd;fill-rule:evenodd;stroke-linecap:round;stroke-linejoin:round;stroke-miterlimit:1.5"
       transform="translate(321.39357,2305.8599)"
       id="g414"><g
         transform="translate(261.001,-533.065)"
         id="g408"><g
           transform="matrix(1,0,0,1.05587,-224.852,187.113)"
           id="g382"><path
             d="m 348.166,1722.79 191.543,-2.45 -1.051,-53.16 -190.346,-0.3 z"
             style="fill:#0065b1;stroke:#000000;stroke-width:2.84px"
             id="path380" /></g><g
           transform="matrix(0.857919,0,0,1,17.4524,0)"
           id="g386"><path
             d="m 122.835,1859.6 c -0.256,-0.28 129.055,69.15 129.055,70.02 0,2.03 -111.159,70.96 -127.417,78.7 -1.049,0.5 -1.638,-149.99 -1.638,-148.72 z"
             style="fill:#e30011;stroke:#000000;stroke-width:3.13px"
             id="path384" /></g><g
           transform="matrix(0.776868,0,0,1,-25.7254,151.714)"
           id="g406"><path
             d="m 190.214,1708.05 c -1.24,-1.03 0.327,115.89 0.327,148.47"
             style="fill:#ffffff"
             id="path388" /><path
             d="m 193.811,1708.88 c 0.368,-0.96 0.088,-2.04 -0.856,-2.83 -1.079,-0.89 -2.277,-1.02 -3.332,-0.89 -0.787,0.09 -1.747,0.37 -2.517,1.22 -0.173,0.19 -0.426,0.5 -0.592,1 -0.112,0.33 -0.273,1.58 -0.345,3.62 -0.651,18.49 0.618,116.18 0.618,145.52 0,1.61 1.682,2.92 3.754,2.92 2.072,0 3.755,-1.31 3.755,-2.92 0,-29.31 -1.271,-126.89 -0.621,-145.37 0.034,-0.95 0.103,-1.87 0.136,-2.27 z m -2.785,2.01 c -1.252,0.22 -2.613,-0.07 -3.552,-0.85 1.158,0.96 2.395,1.1 3.552,0.85 z"
             id="path390" /><path
             d="m 190.926,1707.4 c 83.42,-0.57 162.93,-1.33 246.176,-1.33"
             style="fill:#ffffff"
             id="path392" /><path
             d="m 190.959,1710.31 c 83.408,-0.56 162.908,-1.32 246.143,-1.32 2.072,0 3.754,-1.31 3.754,-2.92 0,-1.61 -1.682,-2.92 -3.754,-2.92 -83.257,0 -162.778,0.76 -246.208,1.33 -2.072,0.02 -3.74,1.33 -3.722,2.94 0.018,1.61 1.715,2.91 3.787,2.89 z"
             id="path394" /><path
             d="m 436.895,1706.55 c -0.62,19.84 1.336,117.22 1.336,146.57"
             style="fill:#ffffff"
             id="path396" /><path
             d="m 433.142,1706.47 c -0.62,19.86 1.335,117.29 1.335,146.65 0,1.62 1.682,2.92 3.754,2.92 2.072,0 3.754,-1.3 3.754,-2.92 0,-29.33 -1.956,-126.67 -1.337,-146.5 0.05,-1.61 -1.591,-2.95 -3.662,-2.99 -2.072,-0.04 -3.794,1.24 -3.844,2.84 z"
             id="path398" /><g
             transform="translate(1.23839,2.48673)"
             id="g404"><path
               d="m 191.084,1854.4 c -2.518,0.04 241.846,-1.98 246.538,-1.98"
               style="fill:#ffffff"
               id="path400" /><path
               d="m 191.088,1851.49 h -0.081 c -0.926,0.01 -1.369,0.22 -1.391,0.22 -0.13,0.05 -3.557,5.6 1.449,5.61 v 0 0 h 0.018 c 0.215,0 2.402,-0.01 6.204,-0.04 37.787,-0.3 236.113,-1.94 240.335,-1.94 2.072,0 3.754,-1.31 3.754,-2.92 0,-1.61 -1.682,-2.91 -3.754,-2.91 -4.224,0 -202.612,1.63 -240.411,1.93 -3.757,0.03 -6.13,0.05 -6.13,0.05 z m 1.345,5.64 c -0.395,0.12 -0.823,0.18 -1.271,0.19 0.694,-0.01 1.108,-0.14 1.271,-0.19 z m 0.78,-0.32 -0.04,0.02 0.013,-0.01 z m 0.972,-0.76 c -0.248,0.28 -0.559,0.53 -0.916,0.73 0.424,-0.23 0.713,-0.49 0.916,-0.73 z m -2.199,-4.48 c 0.96,0.19 1.777,0.66 2.287,1.3 -0.28,-0.4 -0.91,-1.05 -2.287,-1.3 z"
               id="path402" /></g></g></g><g
         transform="matrix(0.793577,0,0,0.80296,180.328,-30.6649)"
         id="g412"><path
           d="m 343.664,1800.26 c 7.979,-16.84 8.015,-60.32 -42.408,-54.17 -37.6,4.59 -41.859,54.48 -9.833,71.36 19.232,10.13 44.11,-0.04 52.241,-17.19 z"
           style="fill:#ffcd00;stroke:#000000;stroke-width:3.65px"
           id="path410" /></g></g><g
       style="clip-rule:evenodd;fill-rule:evenodd;stroke-linecap:round;stroke-linejoin:round;stroke-miterlimit:1.5"
       transform="translate(550.55557,2304.7799)"
       id="g450"><g
         transform="translate(261.001,-533.065)"
         id="g444"><g
           transform="matrix(1,0,0,1.05587,-224.852,187.113)"
           id="g418"><path
             d="m 348.166,1722.79 191.543,-2.45 -1.051,-53.16 -190.346,-0.3 z"
             style="fill:#0065b1;stroke:#000000;stroke-width:2.84px"
             id="path416" /></g><g
           transform="matrix(0.857919,0,0,1,17.4524,0)"
           id="g422"><path
             d="m 122.835,1859.6 c -0.256,-0.28 129.055,69.15 129.055,70.02 0,2.03 -111.159,70.96 -127.417,78.7 -1.049,0.5 -1.638,-149.99 -1.638,-148.72 z"
             style="fill:#e30011;stroke:#000000;stroke-width:3.13px"
             id="path420" /></g><g
           transform="matrix(0.776868,0,0,1,-25.7254,151.714)"
           id="g442"><path
             d="m 190.214,1708.05 c -1.24,-1.03 0.327,115.89 0.327,148.47"
             style="fill:#ffffff"
             id="path424" /><path
             d="m 193.811,1708.88 c 0.368,-0.96 0.088,-2.04 -0.856,-2.83 -1.079,-0.89 -2.277,-1.02 -3.332,-0.89 -0.787,0.09 -1.747,0.37 -2.517,1.22 -0.173,0.19 -0.426,0.5 -0.592,1 -0.112,0.33 -0.273,1.58 -0.345,3.62 -0.651,18.49 0.618,116.18 0.618,145.52 0,1.61 1.682,2.92 3.754,2.92 2.072,0 3.755,-1.31 3.755,-2.92 0,-29.31 -1.271,-126.89 -0.621,-145.37 0.034,-0.95 0.103,-1.87 0.136,-2.27 z m -2.785,2.01 c -1.252,0.22 -2.613,-0.07 -3.552,-0.85 1.158,0.96 2.395,1.1 3.552,0.85 z"
             id="path426" /><path
             d="m 190.926,1707.4 c 83.42,-0.57 162.93,-1.33 246.176,-1.33"
             style="fill:#ffffff"
             id="path428" /><path
             d="m 190.959,1710.31 c 83.408,-0.56 162.908,-1.32 246.143,-1.32 2.072,0 3.754,-1.31 3.754,-2.92 0,-1.61 -1.682,-2.92 -3.754,-2.92 -83.257,0 -162.778,0.76 -246.208,1.33 -2.072,0.02 -3.74,1.33 -3.722,2.94 0.018,1.61 1.715,2.91 3.787,2.89 z"
             id="path430" /><path
             d="m 436.895,1706.55 c -0.62,19.84 1.336,117.22 1.336,146.57"
             style="fill:#ffffff"
             id="path432" /><path
             d="m 433.142,1706.47 c -0.62,19.86 1.335,117.29 1.335,146.65 0,1.62 1.682,2.92 3.754,2.92 2.072,0 3.754,-1.3 3.754,-2.92 0,-29.33 -1.956,-126.67 -1.337,-146.5 0.05,-1.61 -1.591,-2.95 -3.662,-2.99 -2.072,-0.04 -3.794,1.24 -3.844,2.84 z"
             id="path434" /><g
             transform="translate(1.23839,2.48673)"
             id="g440"><path
               d="m 191.084,1854.4 c -2.518,0.04 241.846,-1.98 246.538,-1.98"
               style="fill:#ffffff"
               id="path436" /><path
               d="m 191.088,1851.49 h -0.081 c -0.926,0.01 -1.369,0.22 -1.391,0.22 -0.13,0.05 -3.557,5.6 1.449,5.61 v 0 0 h 0.018 c 0.215,0 2.402,-0.01 6.204,-0.04 37.787,-0.3 236.113,-1.94 240.335,-1.94 2.072,0 3.754,-1.31 3.754,-2.92 0,-1.61 -1.682,-2.91 -3.754,-2.91 -4.224,0 -202.612,1.63 -240.411,1.93 -3.757,0.03 -6.13,0.05 -6.13,0.05 z m 1.345,5.64 c -0.395,0.12 -0.823,0.18 -1.271,0.19 0.694,-0.01 1.108,-0.14 1.271,-0.19 z m 0.78,-0.32 -0.04,0.02 0.013,-0.01 z m 0.972,-0.76 c -0.248,0.28 -0.559,0.53 -0.916,0.73 0.424,-0.23 0.713,-0.49 0.916,-0.73 z m -2.199,-4.48 c 0.96,0.19 1.777,0.66 2.287,1.3 -0.28,-0.4 -0.91,-1.05 -2.287,-1.3 z"
               id="path438" /></g></g></g><g
         transform="matrix(0.793577,0,0,0.80296,180.328,-30.6649)"
         id="g448"><path
           d="m 343.664,1800.26 c 7.979,-16.84 8.015,-60.32 -42.408,-54.17 -37.6,4.59 -41.859,54.48 -9.833,71.36 19.232,10.13 44.11,-0.04 52.241,-17.19 z"
           style="fill:#ffcd00;stroke:#000000;stroke-width:3.65px"
           id="path446" /></g></g><g
       style="clip-rule:evenodd;fill-rule:evenodd;stroke-linecap:round;stroke-linejoin:round;stroke-miterlimit:1.5"
       transform="translate(332.17957,2500.2599)"
       id="g486"><g
         transform="translate(261.001,-533.065)"
         id="g480"><g
           transform="matrix(1,0,0,1.05587,-224.852,187.113)"
           id="g454"><path
             d="m 348.166,1722.79 191.543,-2.45 -1.051,-53.16 -190.346,-0.3 z"
             style="fill:#0065b1;stroke:#000000;stroke-width:2.84px"
             id="path452" /></g><g
           transform="matrix(0.857919,0,0,1,17.4524,0)"
           id="g458"><path
             d="m 122.835,1859.6 c -0.256,-0.28 129.055,69.15 129.055,70.02 0,2.03 -111.159,70.96 -127.417,78.7 -1.049,0.5 -1.638,-149.99 -1.638,-148.72 z"
             style="fill:#e30011;stroke:#000000;stroke-width:3.13px"
             id="path456" /></g><g
           transform="matrix(0.776868,0,0,1,-25.7254,151.714)"
           id="g478"><path
             d="m 190.214,1708.05 c -1.24,-1.03 0.327,115.89 0.327,148.47"
             style="fill:#ffffff"
             id="path460" /><path
             d="m 193.811,1708.88 c 0.368,-0.96 0.088,-2.04 -0.856,-2.83 -1.079,-0.89 -2.277,-1.02 -3.332,-0.89 -0.787,0.09 -1.747,0.37 -2.517,1.22 -0.173,0.19 -0.426,0.5 -0.592,1 -0.112,0.33 -0.273,1.58 -0.345,3.62 -0.651,18.49 0.618,116.18 0.618,145.52 0,1.61 1.682,2.92 3.754,2.92 2.072,0 3.755,-1.31 3.755,-2.92 0,-29.31 -1.271,-126.89 -0.621,-145.37 0.034,-0.95 0.103,-1.87 0.136,-2.27 z m -2.785,2.01 c -1.252,0.22 -2.613,-0.07 -3.552,-0.85 1.158,0.96 2.395,1.1 3.552,0.85 z"
             id="path462" /><path
             d="m 190.926,1707.4 c 83.42,-0.57 162.93,-1.33 246.176,-1.33"
             style="fill:#ffffff"
             id="path464" /><path
             d="m 190.959,1710.31 c 83.408,-0.56 162.908,-1.32 246.143,-1.32 2.072,0 3.754,-1.31 3.754,-2.92 0,-1.61 -1.682,-2.92 -3.754,-2.92 -83.257,0 -162.778,0.76 -246.208,1.33 -2.072,0.02 -3.74,1.33 -3.722,2.94 0.018,1.61 1.715,2.91 3.787,2.89 z"
             id="path466" /><path
             d="m 436.895,1706.55 c -0.62,19.84 1.336,117.22 1.336,146.57"
             style="fill:#ffffff"
             id="path468" /><path
             d="m 433.142,1706.47 c -0.62,19.86 1.335,117.29 1.335,146.65 0,1.62 1.682,2.92 3.754,2.92 2.072,0 3.754,-1.3 3.754,-2.92 0,-29.33 -1.956,-126.67 -1.337,-146.5 0.05,-1.61 -1.591,-2.95 -3.662,-2.99 -2.072,-0.04 -3.794,1.24 -3.844,2.84 z"
             id="path470" /><g
             transform="translate(1.23839,2.48673)"
             id="g476"><path
               d="m 191.084,1854.4 c -2.518,0.04 241.846,-1.98 246.538,-1.98"
               style="fill:#ffffff"
               id="path472" /><path
               d="m 191.088,1851.49 h -0.081 c -0.926,0.01 -1.369,0.22 -1.391,0.22 -0.13,0.05 -3.557,5.6 1.449,5.61 v 0 0 h 0.018 c 0.215,0 2.402,-0.01 6.204,-0.04 37.787,-0.3 236.113,-1.94 240.335,-1.94 2.072,0 3.754,-1.31 3.754,-2.92 0,-1.61 -1.682,-2.91 -3.754,-2.91 -4.224,0 -202.612,1.63 -240.411,1.93 -3.757,0.03 -6.13,0.05 -6.13,0.05 z m 1.345,5.64 c -0.395,0.12 -0.823,0.18 -1.271,0.19 0.694,-0.01 1.108,-0.14 1.271,-0.19 z m 0.78,-0.32 -0.04,0.02 0.013,-0.01 z m 0.972,-0.76 c -0.248,0.28 -0.559,0.53 -0.916,0.73 0.424,-0.23 0.713,-0.49 0.916,-0.73 z m -2.199,-4.48 c 0.96,0.19 1.777,0.66 2.287,1.3 -0.28,-0.4 -0.91,-1.05 -2.287,-1.3 z"
               id="path474" /></g></g></g><g
         transform="matrix(0.793577,0,0,0.80296,180.328,-30.6649)"
         id="g484"><path
           d="m 343.664,1800.26 c 7.979,-16.84 8.015,-60.32 -42.408,-54.17 -37.6,4.59 -41.859,54.48 -9.833,71.36 19.232,10.13 44.11,-0.04 52.241,-17.19 z"
           style="fill:#ffcd00;stroke:#000000;stroke-width:3.65px"
           id="path482" /></g></g><g
       style="clip-rule:evenodd;fill-rule:evenodd;stroke-linecap:round;stroke-linejoin:round;stroke-miterlimit:1.5"
       id="g706"
       transform="matrix(0.47026,0,0,-0.38639677,127.39911,4193.9101)"><path
         id="path704"
         style="fill:#e5250f"
         d="m 2357.56,949.835 c 280.07,527.205 398.5,1002.805 360.73,1330.975 -25.75,223.74 -123.59,379.99 -290.77,441.04 C 1949.49,2896.41 1304.61,2916.68 794.101,2846.28 452.008,2799.11 170.15,2710.8 37.858,2601.85 -76.748,2507.47 -154.938,2284.32 -184.519,2018.57 -228.492,1623.53 -166.302,1134.91 33.098,844.47 81.795,773.539 153.07,652.847 304.345,550.743 455.118,448.977 685.683,365.462 1053.74,369.508 1697.88,376.59 2144.1,548.007 2357.56,949.835 Z m -23.4,14.648 C 2124.72,570.219 1685.49,405.778 1053.47,398.83 692.636,394.864 466.422,475.878 318.608,575.645 171.297,675.074 102.179,792.92 54.758,861.992 -141.024,1147.16 -200.876,1627.18 -157.701,2015.05 c 28.518,256.2 101.398,472.45 211.886,563.44 129.964,107.03 407.249,192.36 743.321,238.7 506.744,69.88 1146.894,50.14 1621.404,-123.14 157.58,-57.54 248.31,-205.97 272.58,-416.87 37.26,-323.78 -81.01,-792.55 -357.33,-1312.696 z" /></g></g></g></g>
    </g>
</svg>
