<?xml version="1.0" encoding="UTF-8" standalone="no"?>
<svg
   xmlns:dc="http://purl.org/dc/elements/1.1/"
   xmlns:cc="http://creativecommons.org/ns#"
   xmlns:rdf="http://www.w3.org/1999/02/22-rdf-syntax-ns#"
   xmlns:svg="http://www.w3.org/2000/svg"
   xmlns="http://www.w3.org/2000/svg"
   xmlns:sodipodi="http://sodipodi.sourceforge.net/DTD/sodipodi-0.dtd"
   xmlns:inkscape="http://www.inkscape.org/namespaces/inkscape"
   sodipodi:docname="2021-SV-01-buttonT.svg"
   inkscape:version="1.0 (4035a4fb49, 2020-05-01)"
   id="svg267"
   version="1.1"
   viewBox="0 0 52.066063 44.333366"
   height="44.333366mm"
   width="52.066063mm">
  <defs
     id="defs261" />
  <sodipodi:namedview
     inkscape:window-maximized="1"
     inkscape:window-y="222"
     inkscape:window-x="-8"
     inkscape:window-height="987"
     inkscape:window-width="1680"
     fit-margin-bottom="0"
     fit-margin-right="0"
     fit-margin-left="0"
     fit-margin-top="0"
     showgrid="false"
     inkscape:document-rotation="0"
     inkscape:current-layer="layer1"
     inkscape:document-units="mm"
     inkscape:cy="230.87987"
     inkscape:cx="212.51672"
     inkscape:zoom="0.35"
     inkscape:pageshadow="2"
     inkscape:pageopacity="0.0"
     borderopacity="1.0"
     bordercolor="#666666"
     pagecolor="#ffffff"
     id="base" />
  <metadata
     id="metadata264">
    <rdf:RDF>
      <cc:Work
         rdf:about="">
        <dc:format>image/svg+xml</dc:format>
        <dc:type
           rdf:resource="http://purl.org/dc/dcmitype/StillImage" />
        <dc:title></dc:title>
      </cc:Work>
    </rdf:RDF>
  </metadata>
  <g
     transform="translate(-49.60495,-87.0797)"
     id="layer1"
     inkscape:groupmode="layer"
     inkscape:label="Ebene 1">
    <g
       style="clip-rule:evenodd;fill-rule:evenodd;stroke-linejoin:round;stroke-miterlimit:2"
       transform="matrix(0.33029525,6.216015e-4,-6.8390029e-4,0.36339992,-423.49081,-280.86198)"
       id="g162">
      <path
         d="m 1450.86,1029.98 c -6.24,1.01 -6.62,9.28 -8.95,13.93 -5.71,11.43 -3.44,18.64 -3.44,30.63 0,7.19 2.23,15.35 3.1,22.71 3.97,33.58 128.62,45.89 139.3,5.73 2.1,-7.89 5.94,-12.05 6.95,-20.18 1.48,-11.8 5.31,-25.08 -1.03,-36.48 -13.53,-24.35 -43.45,-31.11 -68.44,-33.61 -3.92,-0.39 -67.49,7.16 -67.49,17.27 z"
         style="fill:#faca00"
         id="path150" />
      <path
         d="m 1461.86,1023.6 c 1.66,-1.59 -6.28,3.2 -7.56,4.48 -3.82,3.82 -10.65,11.99 -12.04,17.55 -4.49,17.95 3.37,22.85 15.7,36.63 20.86,23.3 125.96,30.64 128.09,-9.95 0.68,-12.93 0.44,-29.53 -8.93,-38.9 -8.78,-8.77 -20.15,-11.3 -31.75,-15.71 -36.98,-14.09 -81.32,-10.27 -106.21,21.74"
         style="fill:#fdeb4d"
         id="path152" />
      <g
         id="g160">
        <path
           d="m 1442.96,1051.23 c -1.12,-9.86 3.84,-17.75 12.37,-23.63 8.95,-6.15 21.72,-10.12 35.81,-11.9 25.61,-3.23 55.6,0.8 75.36,12.8 12.78,7.77 21.22,18.93 21,33.7 -0.12,8.05 -7.09,31 -7.09,37.1 0,1.18 1.05,2.13 2.34,2.13 1.29,0 2.34,-0.95 2.34,-2.13 0,-6.09 6.96,-29 7.08,-37.04 0.25,-16.32 -8.95,-28.7 -23.08,-37.29 -20.61,-12.52 -51.88,-16.85 -78.59,-13.48 -14.96,1.89 -28.49,6.19 -37.99,12.73 -9.89,6.81 -15.5,16.02 -14.2,27.45 0.13,1.17 1.28,2.01 2.56,1.89 1.29,-0.12 2.22,-1.16 2.09,-2.33 z"
           id="path154" />
        <path
           d="m 1439.26,1052.55 c 0.19,13.26 7.05,24.06 17.8,32.28 15.91,12.17 40.4,18.65 64.09,18.99 39.84,0.59 77.18,-16.17 68.61,-51.51 -0.14,-0.58 -0.76,-0.94 -1.39,-0.81 -0.63,0.12 -1.03,0.69 -0.89,1.26 8.22,33.92 -28.06,49.5 -66.29,48.94 -19.3,-0.28 -39.16,-4.69 -54.24,-13.05 -14.9,-8.24 -25.13,-20.34 -25.36,-36.13 -0.01,-0.59 -0.54,-1.06 -1.18,-1.05 -0.65,0.01 -1.16,0.49 -1.15,1.08 z"
           id="path156" />
        <path
           d="m 1579.73,1098.3 c -4.98,12.95 -16.54,21.21 -30.91,25.57 -14.72,4.46 -32.37,4.83 -49.18,1.85 -16.79,-2.98 -32.76,-9.31 -44.1,-18.36 -11.03,-8.82 -17.66,-20.23 -16.06,-33.63 0.53,-4.42 1.11,-14.17 2.62,-26.49 0.15,-1.16 -0.78,-2.21 -2.06,-2.35 -1.28,-0.12 -2.44,0.72 -2.58,1.88 -1.51,12.33 -2.09,22.08 -2.62,26.5 -1.77,14.84 5.41,27.52 17.62,37.28 11.91,9.51 28.65,16.21 46.28,19.34 17.62,3.13 36.12,2.68 51.56,-1.99 15.78,-4.78 28.37,-13.98 33.84,-28.2 0.42,-1.1 -0.22,-2.32 -1.44,-2.7 -1.22,-0.39 -2.55,0.2 -2.97,1.3 z"
           id="path158" />
      </g>
    </g>
    <g
       transform="matrix(0.26458333,0,0,0.26458333,-326.47868,-178.30075)"
       style="clip-rule:evenodd;fill-rule:evenodd;stroke-linejoin:round;stroke-miterlimit:2"
       id="g196">
      <path
         d="m 1473.51,1052.01 c 19.23,-0.24 59.99,-0.25 79.23,-0.25 4.56,0 8.26,-3.7 8.26,-8.25 0,-4.56 -3.7,-8.26 -8.26,-8.26 -19.29,0 -60.15,0.01 -79.43,0.25 -4.56,0.05 -8.21,3.8 -8.16,8.35 0.06,4.56 3.8,8.21 8.36,8.16 z"
         id="path192" />
      <path
         d="m 1506.57,1050.07 c 1.39,1.86 20.2,27.11 36.36,52.03 2.48,3.82 7.6,4.91 11.42,2.43 3.83,-2.48 4.92,-7.6 2.44,-11.42 -17.29,-26.65 -34.39,-49.81 -37.56,-53.66 -4.96,-6.02 -11.38,-2.24 -11.77,-1.95 -1.66,1.22 -3.91,3.49 -3.29,7.83 0.27,1.87 1.14,3.51 2.4,4.74 z m 9.98,1.21 c -1.48,0.92 -3.57,1.67 -6.27,0.88 1.02,0.27 2.11,0.34 3.23,0.19 1.11,-0.16 2.13,-0.53 3.04,-1.07 z m 1.2,-0.87 c 1.57,-1.29 3.32,-3.5 2.77,-7.4 0.41,2.88 -0.72,5.63 -2.77,7.4 z"
         id="path194" />
    </g>
  </g>
</svg>
