<?xml version="1.0" encoding="UTF-8" standalone="no"?>
<svg
   xmlns:dc="http://purl.org/dc/elements/1.1/"
   xmlns:cc="http://creativecommons.org/ns#"
   xmlns:rdf="http://www.w3.org/1999/02/22-rdf-syntax-ns#"
   xmlns:svg="http://www.w3.org/2000/svg"
   xmlns="http://www.w3.org/2000/svg"
   xmlns:sodipodi="http://sodipodi.sourceforge.net/DTD/sodipodi-0.dtd"
   xmlns:inkscape="http://www.inkscape.org/namespaces/inkscape"
   sodipodi:docname="2020-IS-02-taskbody_teddy6-inline.svg"
   inkscape:version="1.0 (4035a4fb49, 2020-05-01)"
   id="svg1338"
   version="1.1"
   viewBox="0 0 13.809822 12.13365"
   height="1.213365cm"
   width="1.3809823cm">
  <defs
     id="defs1332" />
  <sodipodi:namedview
     fit-margin-bottom="0"
     fit-margin-right="0"
     fit-margin-left="0"
     fit-margin-top="0"
     units="cm"
     showgrid="false"
     inkscape:document-rotation="0"
     inkscape:current-layer="_1205601312"
     inkscape:document-units="mm"
     inkscape:cy="560"
     inkscape:cx="400"
     inkscape:zoom="0.35"
     inkscape:pageshadow="2"
     inkscape:pageopacity="0.0"
     borderopacity="1.0"
     bordercolor="#666666"
     pagecolor="#ffffff"
     id="base" />
  <metadata
     id="metadata1335">
    <rdf:RDF>
      <cc:Work
         rdf:about="">
        <dc:format>image/svg+xml</dc:format>
        <dc:type
           rdf:resource="http://purl.org/dc/dcmitype/StillImage" />
        <dc:title></dc:title>
      </cc:Work>
    </rdf:RDF>
  </metadata>
  <g
     transform="translate(-2.4591071,-9.5452779)"
     id="layer1"
     inkscape:groupmode="layer"
     inkscape:label="Ebene 1">
    <g
       id="_1052274192-3"
       style="clip-rule:evenodd;fill-rule:evenodd;image-rendering:optimizeQuality;shape-rendering:geometricPrecision;text-rendering:geometricPrecision"
       transform="matrix(0.02774247,0,0,0.02774247,-33.148357,-27.336013)">
      <g
         transform="translate(-1018.1512,-147.30305)"
         style="clip-rule:evenodd;fill-rule:evenodd;image-rendering:optimizeQuality;shape-rendering:geometricPrecision;text-rendering:geometricPrecision"
         id="_1205601312">
        <g
           transform="translate(-55.799588,166.06448)"
           id="g3185">
          <path
             id="path147"
             d="m 2459,1538 c -1,-30 -136,-30 -79,30 33,33 68,27 58,42 -12,17 13,43 -6,56 -64,45 13,121 88,35 1,-1 45,12 51,12 30,0 117,4 138,-11 7,-5 143,37 102,-33 -27,-46 -35,5 -33,-79 3,-79 -14,28 50,-69 42,-61 -36,-65 -66,-28 -2,2 -72,-16 -80,-17 -157,-19 -176,53 -220,57 -5,0 -4,-1 -8,4 z"
             class="fil3"
             style="font-variation-settings:normal;opacity:1;vector-effect:none;fill:#fecc00;fill-opacity:1;stroke-width:1;stroke-linecap:butt;stroke-linejoin:miter;stroke-miterlimit:4;stroke-dasharray:none;stroke-dashoffset:0;stroke-opacity:1;stop-color:#000000;stop-opacity:1" />
          <path
             id="path149"
             d="m 2525,1352 c -45,-20 -108,-16 -65,50 1,1 -18,52 -18,67 0,101 57,97 134,129 57,23 189,-43 189,-122 0,-55 -32,-79 -20,-106 26,-64 -81,-61 -99,-11 -18,-4 -20,-28 -96,-16 -10,2 -22,10 -25,9 z"
             class="fil3"
             style="font-variation-settings:normal;opacity:1;vector-effect:none;fill:#fecc00;fill-opacity:1;stroke-width:1;stroke-linecap:butt;stroke-linejoin:miter;stroke-miterlimit:4;stroke-dasharray:none;stroke-dashoffset:0;stroke-opacity:1;stop-color:#000000;stop-opacity:1" />
          <path
             d="m 283.86914,137.42773 c -1.72359,-0.0329 -3.78122,0.68198 -6.05273,2.54493 -2.86064,-0.9159 -4.83138,-0.95516 -6.59766,-0.73438 -1.64944,0.20619 -3.12523,0.56143 -5.22852,0.61328 -0.0798,-0.21624 -0.18012,-0.41683 -0.32226,-0.5664 -0.43559,-0.45838 -0.98811,-0.69709 -1.61133,-0.875 -1.24642,-0.35586 -2.83867,-0.40616 -4.40039,-0.0469 -1.56173,0.35927 -3.13261,1.16148 -4.00586,2.67578 -0.83177,1.44239 -0.88601,3.41538 0.082,5.78711 -1.43788,4.13568 -1.94503,6.78699 -1.74609,8.9043 0.0913,0.97167 0.33671,1.80542 0.67383,2.58789 -0.92203,-0.28997 -1.93113,-0.58857 -2.94727,-0.72852 -0.30235,-0.0416 -0.60847,-0.0727 -0.91406,-0.082 -0.9168,-0.028 -1.82121,0.13496 -2.54883,0.76758 -0.96709,0.84085 -1.22705,2.30544 -0.83203,4.21289 0.47869,2.61869 2.2067,4.26855 3.95508,5.17188 1.26337,0.65274 2.52251,0.95719 3.51172,1.08007 0.23993,1.26362 0.43854,3.09529 0.4707,4.07618 -0.1127,0.14096 -0.58466,0.71132 -1.22266,1.43359 -0.70502,0.79814 -1.5296,1.76577 -2.16211,2.80078 -0.6325,1.03501 -1.14042,2.1733 -0.88476,3.39258 0.25562,1.21908 1.37912,2.16145 3.10937,2.60156 0,0 0,0.002 0,0.002 2.83114,0.7225 5.63605,-0.31762 7.75391,-1.44532 1.05903,-0.5639 1.95752,-1.16396 2.60547,-1.61718 0.31569,-0.22084 0.56796,-0.40358 0.74414,-0.52735 3.94264,0.8667 7.76135,0.3437 16.87109,-0.26367 2.26258,-0.14443 4.74162,0.4463 6.94922,1.05664 2.20761,0.61034 4.02168,1.3345 5.64453,1.02539 a 0.94480805,0.94480805 0 0 0 0.004,0 c 0.91936,-0.17794 1.64961,-0.4775 2.19726,-0.95898 0.54765,-0.48149 0.85385,-1.16346 0.89844,-1.82032 0.0892,-1.31372 -0.58047,-2.49806 -1.35742,-3.625 -0.77696,-1.12693 -1.73253,-2.1853 -2.47852,-2.99414 -0.37299,-0.40442 -0.69394,-0.74651 -0.90039,-0.98242 -0.0873,-0.0998 -0.13771,-0.16456 -0.16992,-0.20703 a 0.94480805,0.94480805 0 0 0 -0.01,-0.0215 c 0.0131,0.0328 -0.0567,-0.35501 -0.043,-0.85547 0.0137,-0.50046 0.0641,-1.14342 0.0977,-1.8418 0.0394,-0.82057 0.0532,-1.71784 -0.0469,-2.60742 1.32431,-0.38763 2.51821,-1.2844 3.5039,-2.36524 1.38832,-1.52232 2.4196,-3.44506 2.8125,-5.2539 0.19646,-0.90443 0.23901,-1.78952 0.002,-2.61133 -0.23707,-0.82181 -0.82645,-1.57863 -1.6875,-1.93945 -0.43053,-0.18041 -0.89989,-0.27953 -1.41602,-0.29688 -1.23957,-0.0417 -2.76852,0.41178 -4.66211,1.33399 -0.0553,-2.41657 -0.64357,-5.39469 -2.91211,-9.07618 1.99354,-2.57547 -0.23978,-7.63899 -4.72656,-7.72461 z m -0.041,1.63477 c 3.24886,-0.0437 3.73293,4.50926 3.16993,5.07227 a 0.94471358,0.94471358 0 0 0 -0.22071,0.98437 0.94471358,0.94471358 0 0 0 0.0899,0.81641 c 2.66418,4.22595 2.87336,7.08858 2.73633,9.57617 a 0.94471358,0.94471358 0 0 0 -0.0312,0.48437 c -0.006,0.0884 -0.009,0.17993 -0.0156,0.26758 a 0.94471358,0.94471358 0 0 0 0.86914,1.01367 0.94471358,0.94471358 0 0 0 1.01367,-0.86914 c 5.8e-4,-0.008 0.001,-0.0159 0.002,-0.0234 2.97767,-1.57495 4.76329,-1.72387 5.41406,-1.45118 0.34312,0.14379 0.49038,0.32851 0.60351,0.72071 0.11313,0.3922 0.11767,0.99291 -0.0332,1.6875 -0.30175,1.38918 -1.20367,3.11146 -2.36133,4.38086 -0.79835,0.87541 -1.69243,1.501 -2.54687,1.78515 a 0.94471358,0.94471358 0 0 0 -0.86133,-0.5664 0.94471358,0.94471358 0 0 0 -0.36328,0.0703 0.94471358,0.94471358 0 0 0 -0.58594,0.9043 0.94471358,0.94471358 0 0 0 -0.3125,0.64062 0.94471358,0.94471358 0 0 0 0.66406,0.96484 c 0.0849,0.73077 0.0933,1.55292 0.0547,2.35547 -0.032,0.66472 -0.0819,1.30657 -0.0977,1.88086 -0.0136,0.49415 -0.0261,0.91966 0.10938,1.38281 0.0139,0.17217 0.0722,0.27277 0.10742,0.34766 0.0525,0.11155 0.10013,0.18144 0.14844,0.25 0.0966,0.13712 0.20074,0.25928 0.32422,0.40039 0.24696,0.2822 0.5677,0.62281 0.93359,1.01953 0.73179,0.79346 1.63267,1.80192 2.31055,2.78516 0.67789,0.98324 1.06135,1.95371 1.0293,2.42578 -0.016,0.23604 -0.0635,0.35504 -0.26172,0.5293 -0.19795,0.17402 -0.60251,0.38485 -1.30664,0.52148 -0.57957,0.11001 -2.53896,-0.37064 -4.78711,-0.99219 -2.24867,-0.62168 -4.90869,-1.28927 -7.57422,-1.11914 a 0.94480805,0.94480805 0 0 0 -0.002,0 c -9.45535,0.63036 -13.03262,1.12673 -16.70118,0.23438 a 0.94480805,0.94480805 0 0 0 -0.22265,-0.0273 c -0.31818,0 -0.37578,0.0698 -0.44727,0.10352 -0.0715,0.0337 -0.11784,0.0635 -0.16406,0.0918 -0.0924,0.0566 -0.17672,0.11503 -0.27734,0.18554 -0.20127,0.14102 -0.45526,0.32528 -0.76368,0.54102 -0.61684,0.43147 -1.4488,0.98525 -2.4082,1.49609 -1.91879,1.0217 -4.30369,1.81658 -6.40039,1.28125 a 0.94480805,0.94480805 0 0 0 -0.002,0 c -1.36245,-0.34638 -1.63949,-0.7542 -1.72461,-1.16015 -0.0851,-0.40595 0.1256,-1.16718 0.64648,-2.01953 0.52088,-0.85236 1.28251,-1.75855 1.9668,-2.53321 0.68427,-0.77464 1.24354,-1.28012 1.59961,-1.9414 a 0.94480805,0.94480805 0 0 0 0.11133,-0.44727 c 0,-1.15186 -0.19413,-3.20309 -0.5293,-4.80078 a 0.94471358,0.94471358 0 0 0 0.11133,-0.44141 0.94471358,0.94471358 0 0 0 -0.45313,-0.80468 0.94471358,0.94471358 0 0 0 -1.08398,-0.41407 0.94471358,0.94471358 0 0 0 -0.33008,0.17969 c -0.77657,-0.11703 -1.79161,-0.36251 -2.73438,-0.84961 -1.39565,-0.72109 -2.60289,-1.84714 -2.96484,-3.83789 a 0.94480805,0.94480805 0 0 0 -0.004,-0.0254 c -0.33354,-1.59628 -0.066,-2.17035 0.21875,-2.41797 0.28481,-0.24762 0.98544,-0.37513 1.96485,-0.24023 0.9794,0.13488 2.13789,0.48627 3.16406,0.8164 0.51309,0.16507 0.95684,0.33397 1.38086,0.46094 0.0857,0.13549 0.16419,0.26638 0.25195,0.4043 a 0.94471358,0.94471358 0 0 0 1.30469,0.28906 0.94471358,0.94471358 0 0 0 0.4375,-0.83203 0.94471358,0.94471358 0 0 0 0.20898,-0.59375 0.94471358,0.94471358 0 0 0 -0.94335,-0.94336 c -0.002,0 -0.0821,-0.0209 -0.0937,-0.0234 -0.71033,-1.17279 -1.17345,-2.15193 -1.29883,-3.48633 -0.1621,-1.72511 0.2568,-4.19911 1.75781,-8.44335 a 0.94480805,0.94480805 0 0 0 -0.0273,-0.69922 c -0.97173,-2.1864 -0.82989,-3.52714 -0.31055,-4.42774 0.51934,-0.90061 1.56297,-1.49438 2.79297,-1.77734 1.23,-0.28295 2.60507,-0.2223 3.45898,0.0215 0.35879,0.10243 0.57935,0.2353 0.68164,0.31055 a 0.94480805,0.94480805 0 0 0 0.88477,1.22461 c 2.84269,0.0547 4.6545,-0.4368 6.34765,-0.64844 1.69316,-0.21165 3.32675,-0.2028 6.25977,0.8086 a 0.94480805,0.94480805 0 0 0 0.92969,-0.18165 c 2.22067,-1.93957 3.91425,-2.66062 5.18554,-2.67773 z m -10.73828,10.73242 c -0.5854,0.0131 -1.1691,0.16564 -1.6875,0.52735 -0.6909,0.48207 -1.23302,1.30335 -1.59375,2.52343 -0.41272,1.35929 0.0895,2.51852 1,3.17188 0.91104,0.65374 2.16501,0.89459 3.39453,0.80273 1.22954,-0.0919 2.45256,-0.52193 3.26954,-1.375 0.81696,-0.85307 1.14284,-2.16249 0.57031,-3.67969 a 0.47240458,0.47240458 0 0 0 -0.22266,-0.25195 c -1.07936,-0.56539 -2.60025,-1.49787 -4.14648,-1.6875 -0.19328,-0.0237 -0.38885,-0.0356 -0.58399,-0.0312 z m 0.0234,0.94141 c 0.14369,-0.002 0.29126,0.008 0.44531,0.0273 1.17638,0.14428 2.55199,0.91798 3.65235,1.5 0.39193,1.16566 0.14515,1.93926 -0.41992,2.5293 -0.592,0.61815 -1.60913,1.00741 -2.66016,1.08594 -1.05104,0.0785 -2.11628,-0.15875 -2.77148,-0.62891 -0.65521,-0.47015 -0.96646,-1.07952 -0.64649,-2.13086 a 0.47240458,0.47240458 0 0 0 0.002,-0.004 c 0.32082,-1.08584 0.75977,-1.69246 1.22852,-2.01953 0.35156,-0.24529 0.73884,-0.35299 1.16992,-0.35937 z"
             style="color:#000000;font-style:normal;font-variant:normal;font-weight:normal;font-stretch:normal;font-size:medium;line-height:normal;font-family:sans-serif;font-variant-ligatures:normal;font-variant-position:normal;font-variant-caps:normal;font-variant-numeric:normal;font-variant-alternates:normal;font-variant-east-asian:normal;font-feature-settings:normal;font-variation-settings:normal;text-indent:0;text-align:start;text-decoration:none;text-decoration-line:none;text-decoration-style:solid;text-decoration-color:#000000;letter-spacing:normal;word-spacing:normal;text-transform:none;writing-mode:lr-tb;direction:ltr;text-orientation:mixed;dominant-baseline:auto;baseline-shift:baseline;text-anchor:start;white-space:normal;shape-padding:0;shape-margin:0;inline-size:0;clip-rule:nonzero;display:inline;overflow:visible;visibility:visible;opacity:1;isolation:auto;mix-blend-mode:normal;color-interpolation:sRGB;color-interpolation-filters:linearRGB;solid-color:#000000;solid-opacity:1;vector-effect:none;fill:#2b2a29;fill-opacity:1;fill-rule:nonzero;stroke:none;stroke-width:1.88943;stroke-linecap:round;stroke-linejoin:round;stroke-miterlimit:4;stroke-dasharray:none;stroke-dashoffset:0;stroke-opacity:1;color-rendering:auto;image-rendering:auto;shape-rendering:auto;text-rendering:auto;enable-background:accumulate;stop-color:#000000;stop-opacity:1"
             id="path2315"
             transform="matrix(9.5371229,0,0,9.5371229,-0.513698,0)" />
          <path
             id="path2295"
             d="m 2766.916,1488.4961 a 4.50493,4.50493 0 0 0 -4.1035,2.8418 c -46.7957,117.9642 -205.5439,144.3384 -293.4648,46.6484 a 4.50493,4.50493 0 0 0 -6.3614,-0.334 4.50493,4.50493 0 0 0 -0.334,6.3614 c 92.0791,102.31 259.3309,74.6842 308.5352,-49.3516 a 4.50493,4.50493 0 0 0 -2.5254,-5.8496 4.50493,4.50493 0 0 0 -1.7461,-0.3164 z"
             style="color:#000000;font-style:normal;font-variant:normal;font-weight:normal;font-stretch:normal;font-size:medium;line-height:normal;font-family:sans-serif;font-variant-ligatures:normal;font-variant-position:normal;font-variant-caps:normal;font-variant-numeric:normal;font-variant-alternates:normal;font-variant-east-asian:normal;font-feature-settings:normal;font-variation-settings:normal;text-indent:0;text-align:start;text-decoration:none;text-decoration-line:none;text-decoration-style:solid;text-decoration-color:#000000;letter-spacing:normal;word-spacing:normal;text-transform:none;writing-mode:lr-tb;direction:ltr;text-orientation:mixed;dominant-baseline:auto;baseline-shift:baseline;text-anchor:start;white-space:normal;shape-padding:0;shape-margin:0;inline-size:0;clip-rule:nonzero;display:inline;overflow:visible;visibility:visible;opacity:1;isolation:auto;mix-blend-mode:normal;color-interpolation:sRGB;color-interpolation-filters:linearRGB;solid-color:#000000;solid-opacity:1;vector-effect:none;fill:#2b2a29;fill-opacity:1;fill-rule:nonzero;stroke:none;stroke-width:9.00986;stroke-linecap:round;stroke-linejoin:round;stroke-miterlimit:4;stroke-dasharray:none;stroke-dashoffset:0;stroke-opacity:1;color-rendering:auto;image-rendering:auto;shape-rendering:auto;text-rendering:auto;enable-background:accumulate;stop-color:#000000;stop-opacity:1" />
          <g
             style="opacity:1"
             id="g2287">
            <path
               id="path2289"
               d="m 2606,1441 c -92,-2 -99,143 23,131 114,-11 35,-158 -20,-129 -7,4 -3,4 -3,-2 z"
               style="color:#000000;font-style:normal;font-variant:normal;font-weight:normal;font-stretch:normal;font-size:medium;line-height:normal;font-family:sans-serif;font-variant-ligatures:normal;font-variant-position:normal;font-variant-caps:normal;font-variant-numeric:normal;font-variant-alternates:normal;font-variant-east-asian:normal;font-feature-settings:normal;font-variation-settings:normal;text-indent:0;text-align:start;text-decoration:none;text-decoration-line:none;text-decoration-style:solid;text-decoration-color:#000000;letter-spacing:normal;word-spacing:normal;text-transform:none;writing-mode:lr-tb;direction:ltr;text-orientation:mixed;dominant-baseline:auto;baseline-shift:baseline;text-anchor:start;white-space:normal;shape-padding:0;shape-margin:0;inline-size:0;clip-rule:nonzero;display:inline;overflow:visible;visibility:visible;isolation:auto;mix-blend-mode:normal;color-interpolation:sRGB;color-interpolation-filters:linearRGB;solid-color:#000000;solid-opacity:1;vector-effect:none;fill:#f7aa47;fill-opacity:1;fill-rule:nonzero;stroke:none;stroke-width:9.00986;stroke-linecap:round;stroke-linejoin:round;stroke-miterlimit:4;stroke-dasharray:none;stroke-dashoffset:0;stroke-opacity:1;color-rendering:auto;image-rendering:auto;shape-rendering:auto;text-rendering:auto;enable-background:accumulate;stop-color:#000000;stop-opacity:1" />
            <path
               id="path2291"
               d="m 2624.8848,1434.7734 c -5.2395,-0.1113 -10.4636,0.9779 -15.541,3.209 a 4.5053805,4.5053805 0 0 0 -3.2461,-1.4863 c -24.1838,-0.5257 -43.3058,8.7468 -55.8379,22.8203 -12.5321,14.0735 -18.5752,32.7818 -17.5078,51.1934 1.0673,18.4116 9.3462,36.6368 25.4589,49.3398 16.1128,12.703 39.8551,19.7189 71.2305,16.6328 29.4994,-2.8484 47.7153,-14.9141 56.2559,-31.2734 8.5413,-16.3609 7.4038,-36.1486 0.9179,-54.2305 -6.4859,-18.0819 -18.3393,-34.7015 -32.5781,-45.2265 -8.8992,-6.5782 -19.0208,-10.7633 -29.1523,-10.9786 z m 0.076,8.9082 c 7.8662,0.1779 15.9208,3.5509 23.7207,9.3164 12.48,9.225 23.5641,24.6054 29.4532,41.0235 5.8891,16.4181 6.5641,33.6304 -0.4258,47.0195 -6.9899,13.3892 -21.6469,23.8215 -49.1426,26.4746 a 4.5053805,4.5053805 0 0 0 -0.01,0 c -29.6246,2.9139 -50.7573,-3.6952 -64.7695,-14.7422 -14.0123,-11.047 -21.1084,-26.6968 -22.0411,-42.7852 -0.9326,-16.0884 4.3993,-32.5051 15.2422,-44.6816 9.8973,-11.1146 24.3576,-18.753 43.3868,-19.6543 7e-4,0.2495 0,0.564 0,0.5645 1e-4,5e-4 0.3182,1.2827 0.3184,1.2832 1e-4,4e-4 1.0758,1.5622 1.0761,1.5625 3e-4,2e-4 1.7144,1.0115 1.7149,1.0117 4e-4,10e-5 1.4604,0.2148 1.4609,0.2148 6e-4,0 0.6909,-0.058 0.9297,-0.1133 0.4776,-0.1099 0.7359,-0.231 0.9316,-0.3242 1.5658,-0.7456 0.9759,-0.6255 1.0547,-0.6914 0.1576,-0.1318 0.2369,-0.2022 0.459,-0.373 0.4332,-0.3332 1.3223,-0.958 2.8379,-1.8301 4.4693,-2.3441 9.1001,-3.3836 13.7988,-3.2774 z"
               style="color:#000000;font-style:normal;font-variant:normal;font-weight:normal;font-stretch:normal;font-size:medium;line-height:normal;font-family:sans-serif;font-variant-ligatures:normal;font-variant-position:normal;font-variant-caps:normal;font-variant-numeric:normal;font-variant-alternates:normal;font-variant-east-asian:normal;font-feature-settings:normal;font-variation-settings:normal;text-indent:0;text-align:start;text-decoration:none;text-decoration-line:none;text-decoration-style:solid;text-decoration-color:#000000;letter-spacing:normal;word-spacing:normal;text-transform:none;writing-mode:lr-tb;direction:ltr;text-orientation:mixed;dominant-baseline:auto;baseline-shift:baseline;text-anchor:start;white-space:normal;shape-padding:0;shape-margin:0;inline-size:0;clip-rule:nonzero;display:inline;overflow:visible;visibility:visible;isolation:auto;mix-blend-mode:normal;color-interpolation:sRGB;color-interpolation-filters:linearRGB;solid-color:#000000;solid-opacity:1;vector-effect:none;fill:#2b2a29;fill-opacity:1;fill-rule:nonzero;stroke:none;stroke-width:9.00986;stroke-linecap:round;stroke-linejoin:round;stroke-miterlimit:4;stroke-dasharray:none;stroke-dashoffset:0;stroke-opacity:1;color-rendering:auto;image-rendering:auto;shape-rendering:auto;text-rendering:auto;enable-background:accumulate;stop-color:#000000;stop-opacity:1" />
          </g>
          <g
             style="opacity:1"
             id="g2281">
            <path
               id="path2283"
               d="m 2647,1449 c -21,-11 -57,-34 -70,10 -14,46 90,43 70,-10 z"
               style="color:#000000;font-style:normal;font-variant:normal;font-weight:normal;font-stretch:normal;font-size:medium;line-height:normal;font-family:sans-serif;font-variant-ligatures:normal;font-variant-position:normal;font-variant-caps:normal;font-variant-numeric:normal;font-variant-alternates:normal;font-variant-east-asian:normal;font-feature-settings:normal;font-variation-settings:normal;text-indent:0;text-align:start;text-decoration:none;text-decoration-line:none;text-decoration-style:solid;text-decoration-color:#000000;letter-spacing:normal;word-spacing:normal;text-transform:none;writing-mode:lr-tb;direction:ltr;text-orientation:mixed;dominant-baseline:auto;baseline-shift:baseline;text-anchor:start;white-space:normal;shape-padding:0;shape-margin:0;inline-size:0;clip-rule:nonzero;display:inline;overflow:visible;visibility:visible;isolation:auto;mix-blend-mode:normal;color-interpolation:sRGB;color-interpolation-filters:linearRGB;solid-color:#000000;solid-opacity:1;vector-effect:none;fill:#2b2a29;fill-opacity:1;fill-rule:nonzero;stroke:none;stroke-width:9.00986;stroke-linecap:round;stroke-linejoin:round;stroke-miterlimit:4;stroke-dasharray:none;stroke-dashoffset:0;stroke-opacity:1;color-rendering:auto;image-rendering:auto;shape-rendering:auto;text-rendering:auto;enable-background:accumulate;stop-color:#000000;stop-opacity:1" />
          </g>
          <path
             id="path2279"
             d="m 2606.9121,1486.5449 a 4.5053805,4.5053805 0 0 0 -4.4062,4.7578 c 1.2167,18.0072 -1.0878,29.1574 -4.4395,35.4766 -3.3517,6.3191 -7.3565,8.1797 -11.6445,8.6133 -4.2881,0.4336 -9.014,-1.1201 -11.8184,-2.8223 -0.7181,-0.4359 -0.7554,-0.5589 -1.1484,-0.9121 a 4.50493,4.50493 0 0 0 -0.2363,-2.2402 4.50493,4.50493 0 0 0 -5.8008,-2.6368 c -1.4655,0.5496 -3.3248,2.2511 -3.6895,4.2813 -0.3646,2.0302 0.3439,3.467 0.9922,4.5039 1.2967,2.0739 3.0311,3.3863 5.207,4.707 4.3519,2.6416 10.5635,4.7754 17.4004,4.084 6.837,-0.6914 14.1447,-4.7683 18.6992,-13.3554 1.0663,-2.0104 1.9742,-4.2979 2.7676,-6.7891 2.3159,6.6116 5.0459,12.1616 8.2735,16.3613 7.4446,9.6867 17.3086,13.1003 25.9785,12.2852 8.6698,-0.8151 16.1099,-5.2633 20.6992,-10.7285 2.2946,-2.7327 3.9694,-5.7754 4.2988,-9.2364 0.3295,-3.4609 -1.3064,-7.4172 -4.4922,-9.6074 a 4.50493,4.50493 0 0 0 -6.2656,1.1602 4.50493,4.50493 0 0 0 1.1602,6.2656 c 0.8142,0.5598 0.7096,0.4785 0.6289,1.3262 -0.081,0.8476 -0.7576,2.5471 -2.2285,4.2988 -2.942,3.5035 -8.6894,6.9928 -14.6446,7.5527 -5.9551,0.5599 -12.1536,-1.214 -17.9902,-8.8086 -5.8367,-7.5945 -11.0099,-21.4428 -12.7207,-44.416 a 4.5053805,4.5053805 0 0 0 -4.5801,-4.1211 z"
             style="color:#000000;font-style:normal;font-variant:normal;font-weight:normal;font-stretch:normal;font-size:medium;line-height:normal;font-family:sans-serif;font-variant-ligatures:normal;font-variant-position:normal;font-variant-caps:normal;font-variant-numeric:normal;font-variant-alternates:normal;font-variant-east-asian:normal;font-feature-settings:normal;font-variation-settings:normal;text-indent:0;text-align:start;text-decoration:none;text-decoration-line:none;text-decoration-style:solid;text-decoration-color:#000000;letter-spacing:normal;word-spacing:normal;text-transform:none;writing-mode:lr-tb;direction:ltr;text-orientation:mixed;dominant-baseline:auto;baseline-shift:baseline;text-anchor:start;white-space:normal;shape-padding:0;shape-margin:0;inline-size:0;clip-rule:nonzero;display:inline;overflow:visible;visibility:visible;opacity:1;isolation:auto;mix-blend-mode:normal;color-interpolation:sRGB;color-interpolation-filters:linearRGB;solid-color:#000000;solid-opacity:1;vector-effect:none;fill:#2b2a29;fill-opacity:1;fill-rule:nonzero;stroke:none;stroke-width:9.00986;stroke-linecap:round;stroke-linejoin:round;stroke-miterlimit:4;stroke-dasharray:none;stroke-dashoffset:0;stroke-opacity:1;color-rendering:auto;image-rendering:auto;shape-rendering:auto;text-rendering:auto;enable-background:accumulate;stop-color:#000000;stop-opacity:1" />
          <g
             style="opacity:1"
             id="g2271">
            <path
               id="path2273"
               d="m 2672,1405 c -53,0 11,53 8,15 -1,-7 -11,-15 -8,-15 z"
               style="color:#000000;font-style:normal;font-variant:normal;font-weight:normal;font-stretch:normal;font-size:medium;line-height:normal;font-family:sans-serif;font-variant-ligatures:normal;font-variant-position:normal;font-variant-caps:normal;font-variant-numeric:normal;font-variant-alternates:normal;font-variant-east-asian:normal;font-feature-settings:normal;font-variation-settings:normal;text-indent:0;text-align:start;text-decoration:none;text-decoration-line:none;text-decoration-style:solid;text-decoration-color:#000000;letter-spacing:normal;word-spacing:normal;text-transform:none;writing-mode:lr-tb;direction:ltr;text-orientation:mixed;dominant-baseline:auto;baseline-shift:baseline;text-anchor:start;white-space:normal;shape-padding:0;shape-margin:0;inline-size:0;clip-rule:nonzero;display:inline;overflow:visible;visibility:visible;isolation:auto;mix-blend-mode:normal;color-interpolation:sRGB;color-interpolation-filters:linearRGB;solid-color:#000000;solid-opacity:1;vector-effect:none;fill:#2b2a29;fill-opacity:1;fill-rule:nonzero;stroke:none;stroke-width:9.00986;stroke-linecap:round;stroke-linejoin:round;stroke-miterlimit:4;stroke-dasharray:none;stroke-dashoffset:0;stroke-opacity:1;color-rendering:auto;image-rendering:auto;shape-rendering:auto;text-rendering:auto;enable-background:accumulate;stop-color:#000000;stop-opacity:1" />
            <path
               id="path2275"
               d="m 2672,1400.4941 c -7.0004,0 -12.3207,0.8304 -16.4707,2.545 -4.15,1.7145 -7.2502,4.6049 -8.4785,8.1875 -1.2283,3.5825 -0.5487,7.2634 0.8808,10.4043 1.4295,3.1408 3.6332,5.947 6.2246,8.3945 5.183,4.895 11.7936,8.7025 18.7618,8.1523 3.4841,-0.275 7.1626,-2.173 9.2519,-5.5351 2.0894,-3.3622 2.7416,-7.6626 2.3203,-12.9981 a 4.5053805,4.5053805 0 0 0 -0.031,-0.2812 c -0.7633,-5.3433 -4.0883,-9.2964 -6.4121,-12.2656 -0.7871,-1.0057 -1.1623,-1.5154 -1.6055,-2.1055 a 4.5053805,4.5053805 0 0 0 -0.01,-0.2969 4.5053805,4.5053805 0 0 0 -0.016,-0.1777 4.5053805,4.5053805 0 0 0 -0.1836,-0.8711 4.5053805,4.5053805 0 0 0 -0.3496,-0.8203 4.5053805,4.5053805 0 0 0 -0.09,-0.1543 4.5053805,4.5053805 0 0 0 -0.094,-0.1504 4.5053805,4.5053805 0 0 0 -0.1015,-0.1485 4.5053805,4.5053805 0 0 0 -0.1075,-0.1425 4.5053805,4.5053805 0 0 0 -0.1132,-0.1387 4.5053805,4.5053805 0 0 0 -0.1172,-0.1328 4.5053805,4.5053805 0 0 0 -0.1231,-0.1289 4.5053805,4.5053805 0 0 0 -0.1269,-0.125 4.5053805,4.5053805 0 0 0 -0.1348,-0.1192 4.5053805,4.5053805 0 0 0 -0.1367,-0.1132 4.5053805,4.5053805 0 0 0 -0.1426,-0.1094 4.5053805,4.5053805 0 0 0 -0.1445,-0.1016 4.5053805,4.5053805 0 0 0 -0.1504,-0.098 4.5053805,4.5053805 0 0 0 -0.1543,-0.09 4.5053805,4.5053805 0 0 0 -0.1563,-0.084 4.5053805,4.5053805 0 0 0 -0.3242,-0.1504 4.5053805,4.5053805 0 0 0 -0.8535,-0.2597 4.5053805,4.5053805 0 0 0 -0.8125,-0.086 z m 0.791,8.9278 c -0.052,0.012 -0.077,0.015 -0.125,0.023 a 4.5053805,4.5053805 0 0 0 0.125,-0.023 z m -4.0312,0.3047 c 0.6896,0.9665 1.382,1.889 2.1933,2.9257 2.1506,2.748 4.2721,6.2196 4.5508,7.9004 0.2828,4.011 -0.3695,6.3433 -0.9863,7.336 -0.6294,1.0128 -1.0447,1.2086 -2.3106,1.3086 -2.5318,0.1998 -8.0462,-2.1177 -11.8632,-5.7227 -1.9086,-1.8025 -3.4237,-3.8401 -4.2129,-5.5742 -0.7893,-1.7342 -0.8284,-2.9595 -0.5567,-3.752 0.2717,-0.7924 0.8903,-1.7458 3.3965,-2.7812 1.9934,-0.8236 5.4543,-1.3922 9.7891,-1.6406 z"
               style="color:#000000;font-style:normal;font-variant:normal;font-weight:normal;font-stretch:normal;font-size:medium;line-height:normal;font-family:sans-serif;font-variant-ligatures:normal;font-variant-position:normal;font-variant-caps:normal;font-variant-numeric:normal;font-variant-alternates:normal;font-variant-east-asian:normal;font-feature-settings:normal;font-variation-settings:normal;text-indent:0;text-align:start;text-decoration:none;text-decoration-line:none;text-decoration-style:solid;text-decoration-color:#000000;letter-spacing:normal;word-spacing:normal;text-transform:none;writing-mode:lr-tb;direction:ltr;text-orientation:mixed;dominant-baseline:auto;baseline-shift:baseline;text-anchor:start;white-space:normal;shape-padding:0;shape-margin:0;inline-size:0;clip-rule:nonzero;display:inline;overflow:visible;visibility:visible;isolation:auto;mix-blend-mode:normal;color-interpolation:sRGB;color-interpolation-filters:linearRGB;solid-color:#000000;solid-opacity:1;vector-effect:none;fill:#2b2a29;fill-opacity:1;fill-rule:nonzero;stroke:none;stroke-width:9.00986;stroke-linecap:round;stroke-linejoin:round;stroke-miterlimit:4;stroke-dasharray:none;stroke-dashoffset:0;stroke-opacity:1;color-rendering:auto;image-rendering:auto;shape-rendering:auto;text-rendering:auto;enable-background:accumulate;stop-color:#000000;stop-opacity:1" />
          </g>
          <g
             style="opacity:1"
             id="g2265">
            <path
               id="path2267"
               d="m 2532,1414 c -84,11 29,72 6,8 -1,-3 -4,-9 -6,-8 z"
               style="color:#000000;font-style:normal;font-variant:normal;font-weight:normal;font-stretch:normal;font-size:medium;line-height:normal;font-family:sans-serif;font-variant-ligatures:normal;font-variant-position:normal;font-variant-caps:normal;font-variant-numeric:normal;font-variant-alternates:normal;font-variant-east-asian:normal;font-feature-settings:normal;font-variation-settings:normal;text-indent:0;text-align:start;text-decoration:none;text-decoration-line:none;text-decoration-style:solid;text-decoration-color:#000000;letter-spacing:normal;word-spacing:normal;text-transform:none;writing-mode:lr-tb;direction:ltr;text-orientation:mixed;dominant-baseline:auto;baseline-shift:baseline;text-anchor:start;white-space:normal;shape-padding:0;shape-margin:0;inline-size:0;clip-rule:nonzero;display:inline;overflow:visible;visibility:visible;isolation:auto;mix-blend-mode:normal;color-interpolation:sRGB;color-interpolation-filters:linearRGB;solid-color:#000000;solid-opacity:1;vector-effect:none;fill:#2b2a29;fill-opacity:1;fill-rule:nonzero;stroke:none;stroke-width:9.00986;stroke-linecap:round;stroke-linejoin:round;stroke-miterlimit:4;stroke-dasharray:none;stroke-dashoffset:0;stroke-opacity:1;color-rendering:auto;image-rendering:auto;shape-rendering:auto;text-rendering:auto;enable-background:accumulate;stop-color:#000000;stop-opacity:1" />
            <path
               id="path2269"
               d="m 2532.0215,1409.4277 c -0.6959,0.056 -1.4085,0.2287 -2.0371,0.543 l 1.4316,-0.4375 c -10.8302,1.4182 -18.7013,3.6285 -24.4101,6.5957 -5.7089,2.9672 -9.4549,6.9541 -10.6407,11.6621 -1.1858,4.708 0.3894,9.356 3.0078,13.0528 2.6184,3.6967 6.3226,6.76 10.4922,9.1777 8.3392,4.8353 18.7355,7.6073 27.1485,3.2812 4.2065,-2.163 7.4226,-6.5271 8.332,-12.0937 0.9061,-5.5464 -0.069,-12.2426 -3.0781,-20.6445 -0.6428,-1.9256 -1.688,-4.298 -3.1035,-6.5 -0.7091,-1.1031 -1.4536,-2.1593 -2.6856,-3.1583 -0.616,-0.4994 -1.3841,-1.0173 -2.5156,-1.3222 -0.5658,-0.1525 -1.2455,-0.2125 -1.9414,-0.1563 z m -0.6192,9.2676 c 0.093,0.1253 0.086,0.089 0.1836,0.2402 0.8319,1.294 1.7831,3.4157 2.1407,4.4883 a 4.5053805,4.5053805 0 0 0 0.033,0.1 c 2.715,7.5548 3.2351,12.928 2.6953,16.2325 -0.5398,3.3044 -1.7222,4.5888 -3.5625,5.5351 -3.6808,1.8927 -11.972,0.7272 -18.5078,-3.0625 -3.2679,-1.8948 -6.0481,-4.3158 -7.6602,-6.5918 -1.6121,-2.2759 -2.0134,-4.0888 -1.6211,-5.6465 0.3923,-1.5576 1.7792,-3.641 6.0586,-5.8652 4.0837,-2.1225 10.8135,-4.0929 20.2402,-5.4297 z"
               style="color:#000000;font-style:normal;font-variant:normal;font-weight:normal;font-stretch:normal;font-size:medium;line-height:normal;font-family:sans-serif;font-variant-ligatures:normal;font-variant-position:normal;font-variant-caps:normal;font-variant-numeric:normal;font-variant-alternates:normal;font-variant-east-asian:normal;font-feature-settings:normal;font-variation-settings:normal;text-indent:0;text-align:start;text-decoration:none;text-decoration-line:none;text-decoration-style:solid;text-decoration-color:#000000;letter-spacing:normal;word-spacing:normal;text-transform:none;writing-mode:lr-tb;direction:ltr;text-orientation:mixed;dominant-baseline:auto;baseline-shift:baseline;text-anchor:start;white-space:normal;shape-padding:0;shape-margin:0;inline-size:0;clip-rule:nonzero;display:inline;overflow:visible;visibility:visible;isolation:auto;mix-blend-mode:normal;color-interpolation:sRGB;color-interpolation-filters:linearRGB;solid-color:#000000;solid-opacity:1;vector-effect:none;fill:#2b2a29;fill-opacity:1;fill-rule:nonzero;stroke:none;stroke-width:9.00986;stroke-linecap:round;stroke-linejoin:round;stroke-miterlimit:4;stroke-dasharray:none;stroke-dashoffset:0;stroke-opacity:1;color-rendering:auto;image-rendering:auto;shape-rendering:auto;text-rendering:auto;enable-background:accumulate;stop-color:#000000;stop-opacity:1" />
          </g>
          <g
             style="opacity:1"
             id="g2259">
            <path
               id="path2261"
               d="m 2546,1594 c -24,7 -103,-72 -64,35 55,150 91,-55 169,8 6,5 43,14 75,38 29,21 48,-148 -9,-118 -40,21 -120,63 -159,38 -2,-2 -9,-2 -12,-1 z"
               style="color:#000000;font-style:normal;font-variant:normal;font-weight:normal;font-stretch:normal;font-size:medium;line-height:normal;font-family:sans-serif;font-variant-ligatures:normal;font-variant-position:normal;font-variant-caps:normal;font-variant-numeric:normal;font-variant-alternates:normal;font-variant-east-asian:normal;font-feature-settings:normal;font-variation-settings:normal;text-indent:0;text-align:start;text-decoration:none;text-decoration-line:none;text-decoration-style:solid;text-decoration-color:#000000;letter-spacing:normal;word-spacing:normal;text-transform:none;writing-mode:lr-tb;direction:ltr;text-orientation:mixed;dominant-baseline:auto;baseline-shift:baseline;text-anchor:start;white-space:normal;shape-padding:0;shape-margin:0;inline-size:0;clip-rule:nonzero;display:inline;overflow:visible;visibility:visible;isolation:auto;mix-blend-mode:normal;color-interpolation:sRGB;color-interpolation-filters:linearRGB;solid-color:#000000;solid-opacity:1;vector-effect:none;fill:#008dd2;fill-opacity:1;fill-rule:nonzero;stroke:none;stroke-width:9.00986;stroke-linecap:round;stroke-linejoin:round;stroke-miterlimit:4;stroke-dasharray:none;stroke-dashoffset:0;stroke-opacity:1;color-rendering:auto;image-rendering:auto;shape-rendering:auto;text-rendering:auto;enable-background:accumulate;stop-color:#000000;stop-opacity:1" />
            <path
               id="path2263"
               d="m 2731.5195,1549.0176 c -5.0978,-0.4492 -10.7267,0.8967 -16.6133,3.9941 -20,10.5 -49.8252,26.1306 -79.2109,35.9668 -29.3857,9.8362 -57.9068,13.3547 -75.2637,2.2285 l 0.7539,0.6075 c -2.8581,-2.8582 -5.7186,-2.7873 -8.5742,-2.9375 -2.8555,-0.1503 -5.5379,0.017 -8.0351,0.8496 l 0.1621,-0.051 c -3.1757,0.9262 -12.4413,-1.713 -22.4414,-6.3828 -10.0001,-4.6698 -20.9211,-10.6222 -30.5977,-13.5996 -4.8383,-1.4888 -9.445,-2.3582 -13.9199,-1.336 -4.4749,1.0222 -8.4303,4.6922 -9.9258,9.7383 -2.991,10.0922 0.058,25.4051 9.9141,52.4473 a 4.5053805,4.5053805 0 0 0 0,0.01 c 6.9595,18.9802 13.6457,32.5052 20.4297,41.9101 6.7841,9.405 13.8637,14.8462 21.4238,16.5996 7.5602,1.7535 14.9625,-0.4056 21.7149,-4.3261 6.7524,-3.9206 13.1628,-9.6195 19.6582,-15.8614 12.9907,-12.4837 26.404,-27.1767 40.5273,-34.623 14.1234,-7.4463 28.2073,-8.6393 46.6465,6.2539 l -0.055,-0.043 c 2.7387,2.2823 6.0888,3.4473 10.9649,5.3946 4.8761,1.9472 11.0108,4.272 17.9258,7.1738 13.8299,5.8036 30.7415,13.9121 46.291,25.5742 a 4.5053805,4.5053805 0 0 0 0.061,0.045 c 2.441,1.7677 5.298,2.7858 8.1485,2.6582 2.8504,-0.1275 5.452,-1.3503 7.5898,-3.0644 4.2756,-3.4283 7.2934,-8.7697 9.9316,-15.3652 5.2765,-13.1912 8.5841,-31.7107 9.2247,-50.0958 0.6405,-18.385 -1.2605,-36.4949 -7.711,-49.0996 -3.2252,-6.3023 -7.8227,-11.4131 -14.1094,-13.6152 -1.5716,-0.5505 -3.2124,-0.8991 -4.9121,-1.0488 z m -0.875,8.9433 c 1.0085,0.094 1.9389,0.3054 2.8067,0.6094 3.4712,1.2159 6.5143,4.2223 9.0703,9.2168 5.112,9.9891 7.336,27.1917 6.7265,44.6817 -0.6094,17.4899 -3.9268,35.4079 -8.5878,47.0605 -2.3306,5.8263 -5.1096,10.0084 -7.2012,11.6855 -1.0458,0.8386 -1.7694,1.0637 -2.3555,1.0899 -0.5861,0.026 -1.2769,-0.096 -2.4609,-0.9531 l 0.061,0.045 c -16.4505,-12.3379 -34.0389,-20.7294 -48.209,-26.6758 -7.085,-2.9732 -13.3253,-5.3359 -18.0742,-7.2324 -4.7489,-1.8965 -8.2738,-3.7315 -8.5351,-3.9492 a 4.5053805,4.5053805 0 0 0 -0.055,-0.043 c -20.5608,-16.6068 -40.2269,-15.7998 -56.5098,-7.2149 -16.2829,8.585 -29.9321,23.9545 -42.5664,36.0958 -6.3171,6.0706 -12.3598,11.3248 -17.9394,14.5644 -5.5797,3.2396 -10.3883,4.4477 -15.1563,3.3418 -4.768,-1.1059 -10.1337,-4.7506 -16.1504,-13.0918 -6.0159,-8.34 -12.4859,-21.2189 -19.2754,-39.7344 v -0.01 c -9.6408,-26.4525 -11.3428,-41.3877 -9.7403,-46.7949 0.8014,-2.7039 1.4789,-3.0964 3.2969,-3.5117 1.8181,-0.4153 5.1645,-0.097 9.2637,1.164 8.1984,2.5226 19.0899,8.3202 29.4336,13.1504 10.3436,4.8302 19.953,9.441 28.7773,6.8672 a 4.5053805,4.5053805 0 0 0 0.1621,-0.051 c 0.5028,-0.1676 2.8204,-0.5001 4.7149,-0.4004 1.8944,0.1 3.5339,1.1707 2.6758,0.3125 a 4.5053805,4.5053805 0 0 0 0.7539,0.6075 c 21.6431,13.8738 52.622,8.8923 82.9863,-1.2715 30.3643,-10.1638 60.539,-26.0332 80.5391,-36.5332 4.7995,-2.526 8.5215,-3.3061 11.5468,-3.0254 z"
               style="color:#000000;font-style:normal;font-variant:normal;font-weight:normal;font-stretch:normal;font-size:medium;line-height:normal;font-family:sans-serif;font-variant-ligatures:normal;font-variant-position:normal;font-variant-caps:normal;font-variant-numeric:normal;font-variant-alternates:normal;font-variant-east-asian:normal;font-feature-settings:normal;font-variation-settings:normal;text-indent:0;text-align:start;text-decoration:none;text-decoration-line:none;text-decoration-style:solid;text-decoration-color:#000000;letter-spacing:normal;word-spacing:normal;text-transform:none;writing-mode:lr-tb;direction:ltr;text-orientation:mixed;dominant-baseline:auto;baseline-shift:baseline;text-anchor:start;white-space:normal;shape-padding:0;shape-margin:0;inline-size:0;clip-rule:nonzero;display:inline;overflow:visible;visibility:visible;isolation:auto;mix-blend-mode:normal;color-interpolation:sRGB;color-interpolation-filters:linearRGB;solid-color:#000000;solid-opacity:1;vector-effect:none;fill:#2b2a29;fill-opacity:1;fill-rule:nonzero;stroke:none;stroke-width:9.00986;stroke-linecap:round;stroke-linejoin:round;stroke-miterlimit:4;stroke-dasharray:none;stroke-dashoffset:0;stroke-opacity:1;color-rendering:auto;image-rendering:auto;shape-rendering:auto;text-rendering:auto;enable-background:accumulate;stop-color:#000000;stop-opacity:1" />
          </g>
          <g
             style="opacity:1"
             id="g2253">
            <path
               id="path2255"
               d="m 2609,1590 c -42,-13 -26,55 -11,55 64,0 56,-41 11,-55 z"
               style="color:#000000;font-style:normal;font-variant:normal;font-weight:normal;font-stretch:normal;font-size:medium;line-height:normal;font-family:sans-serif;font-variant-ligatures:normal;font-variant-position:normal;font-variant-caps:normal;font-variant-numeric:normal;font-variant-alternates:normal;font-variant-east-asian:normal;font-feature-settings:normal;font-variation-settings:normal;text-indent:0;text-align:start;text-decoration:none;text-decoration-line:none;text-decoration-style:solid;text-decoration-color:#000000;letter-spacing:normal;word-spacing:normal;text-transform:none;writing-mode:lr-tb;direction:ltr;text-orientation:mixed;dominant-baseline:auto;baseline-shift:baseline;text-anchor:start;white-space:normal;shape-padding:0;shape-margin:0;inline-size:0;clip-rule:nonzero;display:inline;overflow:visible;visibility:visible;isolation:auto;mix-blend-mode:normal;color-interpolation:sRGB;color-interpolation-filters:linearRGB;solid-color:#000000;solid-opacity:1;vector-effect:none;fill:#008dd2;fill-opacity:1;fill-rule:nonzero;stroke:none;stroke-width:9.00986;stroke-linecap:round;stroke-linejoin:round;stroke-miterlimit:4;stroke-dasharray:none;stroke-dashoffset:0;stroke-opacity:1;color-rendering:auto;image-rendering:auto;shape-rendering:auto;text-rendering:auto;enable-background:accumulate;stop-color:#000000;stop-opacity:1" />
            <path
               id="path2257"
               d="m 2602.1582,1584.0469 c -7.7091,-0.66 -13.9488,1.5745 -18.0254,6.0176 -5.4355,5.9241 -6.8502,14.3689 -6.5098,22.7441 0.3405,8.3752 2.5398,16.9076 5.7969,23.7148 1.6286,3.4037 3.5102,6.383 5.8008,8.7286 2.2906,2.3455 5.2024,4.2539 8.7793,4.2539 16.481,0 28.6491,-2.571 37.1816,-7.1641 8.5326,-4.5931 13.4544,-11.7418 13.6954,-19.4512 0.2409,-7.7093 -3.7933,-15.2347 -10.4981,-21.6465 -6.7047,-6.4117 -16.2316,-11.8708 -28.041,-15.5449 a 4.5053805,4.5053805 0 0 0 -0.01,0 c -2.8706,-0.8886 -5.6041,-1.4304 -8.1738,-1.6504 z m -0.7363,8.8574 c 1.8028,0.2121 3.8667,0.662 6.2461,1.3984 10.6876,3.326 19.0339,8.2409 24.4843,13.4532 5.4515,5.2132 7.8548,10.5628 7.7207,14.8535 -0.134,4.2906 -2.3997,8.2669 -8.9609,11.7988 -6.5612,3.5319 -17.3931,6.0859 -32.9121,6.0859 -0.1731,0 -1.0425,-0.2166 -2.334,-1.539 -1.2914,-1.3225 -2.7926,-3.554 -4.1172,-6.3223 -2.6491,-5.5365 -4.6373,-13.1916 -4.9218,-20.1914 -0.2846,-6.9998 1.2382,-13.1175 4.1464,-16.2871 2.1812,-2.3772 5.2399,-3.8864 10.6485,-3.25 z"
               style="color:#000000;font-style:normal;font-variant:normal;font-weight:normal;font-stretch:normal;font-size:medium;line-height:normal;font-family:sans-serif;font-variant-ligatures:normal;font-variant-position:normal;font-variant-caps:normal;font-variant-numeric:normal;font-variant-alternates:normal;font-variant-east-asian:normal;font-feature-settings:normal;font-variation-settings:normal;text-indent:0;text-align:start;text-decoration:none;text-decoration-line:none;text-decoration-style:solid;text-decoration-color:#000000;letter-spacing:normal;word-spacing:normal;text-transform:none;writing-mode:lr-tb;direction:ltr;text-orientation:mixed;dominant-baseline:auto;baseline-shift:baseline;text-anchor:start;white-space:normal;shape-padding:0;shape-margin:0;inline-size:0;clip-rule:nonzero;display:inline;overflow:visible;visibility:visible;isolation:auto;mix-blend-mode:normal;color-interpolation:sRGB;color-interpolation-filters:linearRGB;solid-color:#000000;solid-opacity:1;vector-effect:none;fill:#2b2a29;fill-opacity:1;fill-rule:nonzero;stroke:none;stroke-width:9.00986;stroke-linecap:round;stroke-linejoin:round;stroke-miterlimit:4;stroke-dasharray:none;stroke-dashoffset:0;stroke-opacity:1;color-rendering:auto;image-rendering:auto;shape-rendering:auto;text-rendering:auto;enable-background:accumulate;stop-color:#000000;stop-opacity:1" />
          </g>
        </g>
      </g>
    </g>
  </g>
</svg>
