<?xml version="1.0" encoding="UTF-8"?>
<!--?xml version="1.0" encoding="UTF-8"?-->
<!-- Created with Inkscape (http://www.inkscape.org/) -->
<svg id="svg5285" width="393.33mm" height="147.95mm" version="1.1" viewBox="0 0 393.33 147.95" xmlns="http://www.w3.org/2000/svg">
 <g id="g1966" class="csvg-ignore" transform="translate(251.68,105.07)">
  <path id="path454" d="m8.4709-80.091c5.1683-2.7783 11.57-2.5094 17.429-3.3859 37.571-5.6209 66.675-22.692 102.27-7.1998 27.404 11.927 6.1866 100.9-3.932 111.55-9.503 10.007-5.176 7.2482-18.357 13.559-20.355 9.7445-52.024 2.1024-73.077-3.8699-13.214-3.7491-23.972-2.0054-37.658-4.1894-22.528-3.5949-37.048 11.629-58.962 14.689-20.521 2.8652-42.222 1.6498-62.894.96736-20.461-.6756-43.803.37182-63.418-6.4571-7.8186-2.7223-22.743-14.37-27.31-21.288-13.017-19.718-39.549-46.141-33.312-70.028 6.075-23.267 4.5853-30.728 28.777-34.362 29.249-4.393 87.83-19.88 139.62-13.412 14.607 1.824 79.242 29.644 90.818 23.422z" style="clip-rule:evenodd;fill-rule:evenodd;fill:#a5f171;stroke-linecap:round;stroke-linejoin:round;stroke-miterlimit:1.5;stroke-width:.25098"/>
  <path id="path470" d="m-8.6391-38.792c-3.0506-.33232-5.7415 4.2098-7.1887 8.3042-1.1456 3.238-3.7677 5.6534-5.9981 7.9364-.94985.97287-1.8865 6.6752-2.2093 8.8104-.33338 2.2188-1.8732 4.5022-3.5163 7.0916-2.6564 4.2511-16.129 7.2239-18.497 9.593-5.2361 5.2366-15.468 5.7486-24.699 3.4719-4.0918-1.0882-11.18-.29924-13.791.90805-4.635 2.1431-14.003 4.9408-22.832 8.1222-3.058 1.102-4.2143 3.3853-1.0718 3.4787.9197.02752 2.8406.7075 3.5481 1.2663 1.1401.90038 1.7574 4.1592 2.1357 5.1178.72364 1.8328 2.7167 1.7232 3.8748 1.4208 14.46-3.7761 15.573-2.7543 20.492-4.9898 4.3402-1.9725 9.3297-3.6364 13.851-4.39 1.1721-.195 2.3812-.17939 3.5983-.0934 1.1218.07911 2.2542.27332 3.3338.0934 7.3316-1.2218 24.863-8.7477 30.803-13.202.87577-.65802 1.4367-1.5796 2.0558-2.4543.6694-.94694 1.36-1.8793 2.1855-2.7038 3.6565-3.6581 7.1041-6.7265 10.983-10.37 4.0799-3.8343 5.1012-7.5996 7.62-12.992 1.0398-2.2288 5.9372-7.8941 3.1962-10.071-3.1697-2.518-5.551-4.096-7.874-4.3492zm77.97-18.126c-.51329-2.3876-4.8075-5.2803-6.35-4.5485-1.1959.567-2.3495 1.8166-3.556 2.7519-1.4049 1.0882-2.8601 1.8939-4.2677 2.1751-2.6988.53975-5.4213 1.365-8.1121 2.3299-2.667.9562-6.6913 5.7526-7.3131 7.1869-.7964 1.8402-1.8838 4.6956-4.1619 6.3005-2.3601 1.6632-3.1565 6.531-2.2437 8.859 9.2234 23.572 8.0275 20.953 20.018 30.291 2.3389 1.8195 3.8709 4.4267 5.3102 7.1165.92075 1.7246 5.7759 4.1405 7.3686 3.7327 4.3101-1.1052 9.1334-1.8894 13.914-2.4024 1.8971-.20373 6.8606-4.8363 7.538-6.9842 1.4129-4.4762 15.253-36.84 11.882-45.122-1.6034-3.9463-6.3235-6.8397-12.539-5.3083-6.4082 1.5796-16.163-.2331-17.489-6.3775zm-155.08 30.686c-1.416-.81518-5.7912-.17013-6.9347.66648-4.7228 3.4565-13.85 4.9723-23.447 5.1565-1.9696.03757-7.5798 4.6215-8.2968 6.9083-.97552 3.1115-2.1519 6.1031-4.3431 8.8424-2.7612 3.4512-4.4577 8.1666-7.4412 11.801-1.5727 1.9156-.41248 4.5109 2.7816 4.1338 1.28-.15108 3.46.8472 5.1943 1.044 1.4946.1696 3.6946.91361 5.3324.957 1.6735.04445 6.1267-1.325 8.8106-2.4244 8.2936-3.3967 18.622-6.6924 24.592-9.7726 1.6526-.85275 2.9051-.72284 3.3036-2.4683 1.4618-6.4029 1.9201-11.654 8.2629-14.694 3.5388-1.6965 3.8126-5.5232.93266-6.1098-3.1128-.63421-5.9036-2.4019-8.7482-4.0399zm-11.355-48.743c-1.7597-3.3787-6.3571-6.8945-8.9318-4.6797-1.5563 1.3388-4.8162 2.4495-7.3271 2.4879-2.468.03784-3.7478 3.248-4.8358 5.9732-1.8978 4.7535-.96784 11.18-.98425 16.514-.007 2.4609.59002 5.2946 2.5839 5.3515 9.5335.27173 19.367 7.6375 24.143 12.414 7.973 2.8718 16.311 6.5749 23.248 11.199.42069.27993 1.5081.43736 2.6723.4781 1.3758.04816 5.2176.15187 5.6832-.0019 1.8071-.59822-.7911-4.3019-3.2332-7.4795-4.6302-6.0222-8.1738-13.515-19.413-24.33-1.9838-1.9087-9.992-10.99-13.605-17.927zm79.955 34.8c.11377-.35639.0291-3.1673-.01852-3.6703-.32808-3.3695-1.4314-5.384-.73025-7.239.52652-1.3938-.51065-3.9833-1.9764-4.6686-10.665-4.9887-16.999-7.2067-24.41-8.1198-12.062-1.4867-22.077-14.878-33.893-17.832-1.6798-.41989-4.1331-1.7407-6.7051-3.347-.59478-.37174-2.518.0048-3.0036.55324-.74692.84349-1.6976 1.833-2.7413 2.7064-.83423.69771-.6522 2.6535.09869 3.4637 2.7374 2.9538 7.7819 10.421 8.1661 11.321 2.0021 4.6866 11.66 16.246 14.462 19.275 8.8371 9.5554 11.404 13.951 13.904 16.655 2.0532 2.2204 4.8842 4.3455 7.4665 3.7333 4.2545-1.0086 8.7789-1.4573 12.435-.5125 6.7866 1.7531 8.9482 1.198 12.324-3.6761 1.3785-1.9889 3.8391-6.1767 4.6223-8.6421zm-121.67-41.395c-2.5048-.9689-6.7543-3.4912-9.5401-2.1513-2.9522 1.42-6.6127-.29157-9.3702.74242-1.2928.48472-3.0263 1.864-4.7778 3.3311-3.1914 2.6734-6.3106 5.7645-7.2483 6.5148-.21273.17013-4.6895 5.4372-7.7983 6.9318-2.7488 1.3216-1.2054 2.9366-.26935 3.6589 1.9852 1.5319 3.7568 3.266 4.4064 5.4113.40984 1.3541-.12091 2.8321-2.6262 5.2739-.79693.77682-5.3319 2.4892-6.7924 3.5118-1.3285.93001-1.6804 3.0078-1.7624 3.4131-.25956 1.284.87577 2.5379 2.1762 2.5127 7.1911.26485 15.971-1.2435 23.308-.3265 4.0225.50297 8.6593.83846 12.551 1.8116 1.0205.25506 5.4224-.89747 6.6969-1.8132 2.5167-1.8084 5.3615-3.3592 8.7315-3.8044 1.6338-.21564 7.8266-2.8488 7.5144-4.2529-.55748-2.5072-1.4182-7.0525-1.1623-10.897.12647-1.8992-1.0716-7.543-.4879-9.2514.52282-1.5311-3.303-5.3329-4.0156-5.5666-2.771-.90911-5.9735-3.6729-9.5343-5.0501zm-5.5565 89.285c-18.789-5.7147-31.623 17.226-22.398 19.202 5.9243 1.2689 7.1922 6.4064 22.503 8.0182 7.1795.75592 20.499 2.1979 26.886.06879 3.5404-1.18 8.491-.83582 11.831-2.6599 9.6197-1.1404 19.491-1.3676 28.888-3.7169 4.4458-1.1112 8.9522-3.5502 13.297-4.2746 1.0795-.17992 2.2119.01429 3.3364.0934 1.2171.08599 2.4262.1016 3.5957-.0934 8.0671-1.3446 27.361-9.6237 33.896-14.525 1.0583-.79428 1.9156-1.7531 2.6908-2.7839.762-1.0144 1.4049-2.1288 2.3098-3.0334 3.8629-3.8627 8.0751-6.5863 11.544-11.003 3.7518-4.7728 1.5002-3.9947 4.9212-8.8498.35454-.5043 2.9819-6.5955 4.7678-8.7757 2.7649-3.3766 7.2152-9.7102 9.3266-9.8184 4.8286-.24791 9.0752-1.6542 10.327.89218.9234 1.8844 2.7834 3.1713 4.0217 5.6465 15.497 30.97 12.592 22.439 18.018 27.832 1.7383 1.7275 5.334 7.4332 7.0829 9.2011 4.0719 4.1116-1.1271 9.23-1.5743 11.393-1.0821 5.2316 5.1885 4.4442 9.2419 6.0653 16.923 6.7694 26.802 6.7638 44.191 2.0219 11.393-3.1073 14.031-11.856 2.5691-21.026-.89958-.72125-4.3365-2.7609-8.6254-1.4094-4.6831 1.4758-3.683-2.1275-5.1065-6.4024-1.0398-3.1261 11.665-28.642 12.433-33.522.77523-4.9268 2.458-22.431 8.6042-22.819 11.068-.69876 21.897-18.956 9.8716-21.362-3.3496-.67019-29.271-14.209-37.722-5.4962-1.9368 1.9947-14.425 1.8476-16.865 3.4745-2.0135 1.3409-4.8472 2.8731-5.4689 5.4591-.55298 2.3056-3.4528 5.669-4.2069 6.6738-1.6351 2.1791-13.002 7.6126-15.79 7.1599-2.0955-.34025-9.5065 1.1618-12.626-.0045-11.845-4.4297-35.404-7.1879-42.78-2.5366-.89429.56356-6.0695.7665-8.2127-.0011-7.3951-2.6479-14.936-4.9101-22.434-7.4097-11.703-3.9005-15.986-10.091-27.978-13.089-1.5195-.37994-10.218-6.6696-12.549-8.2037-1.6192-1.066-11.901-5.5115-17.896-6.1677-9.9309-1.0866-23.549-.86281-37.361 3.0279-2.1521.60616-8.777 4.2497-10.416 4.2206-4.1979-.07408-8.9458 1.4608-12.48 2.7861-4.1521 1.5571-11.934 9.0665-13.586 10.389-.21087.1688-4.9138 3.6687-7.621 5.8452-.20241.09049-13.936 1.805-15.898 1.2343-26.561-7.7232-51.535 19.925-26.431 22.676 2.7358.29977 3.1909.21246 5.2993.86995.56092.0093 6.2037.34343 8.4415 3.3949 0 0 5.7481 2.1222 6.4471 2.3275 2.6024.76385 5.4258 1.1483 8.927.76491 1.4856.41196 2.504 1.5931 3.7822 2.4823 1.583 1.1017 3.3425 2.0172 5.592 2.3387 8.4198 1.2028 17.038.21378 25.767.0082 6.1878-.14552 11.727 3.6811 12.187 7.9946.25506 2.3873 4.8837 4.5207 11.946 5.8449 1.9494.36565 5.2163 4.4786 4.6646 6.2381-.71649 2.2852-1.7015 4.3762-3.1131 6.5318-3.4756 5.3083-5.2292 18.279-10.067 16.808z" style="clip-rule:evenodd;fill-rule:evenodd;fill:#2cd1ec;stroke-linecap:round;stroke-linejoin:round;stroke-miterlimit:1.5;stroke-width:.26458"/>
  <path id="path630" d="m29.276-40.162c-.55827-.13917-1.18-.59425-1.6484-1.0099-.20108-.18045-.39158-.71385-.39158-.71385s-.22754.42254-.32014.64267c-.10319.23654-.35719 1.1687-.67998 1.2494-.127.03202-.7329-1.1938-.74877-1.1782-.2831.28284-.43921 1.1393-1.0716.92816-.14288-.04736-.25135-.6059-.35719-.57097-.20902.06932-.24342.41407-.50006.4998-.33073.1106-.4736-.13044-.71173-.25003-.18785-.09366-.30692.21431-.50006.21431" style="clip-rule:evenodd;fill:none;stroke-linecap:round;stroke-linejoin:round;stroke-miterlimit:1.5;stroke-width:.26458px;stroke:#051372"/>
  <path id="path646" d="m-44.754-2.4109c-.55827-.13917-1.18-.59425-1.6484-1.0099-.20108-.18045-.39158-.71385-.39158-.71385s-.22754.42254-.32014.64267c-.10319.23654-.35719 1.1687-.67998 1.2494-.127.032015-.7329-1.1938-.74877-1.1782-.2831.28284-.43921 1.1393-1.0716.92816-.14288-.04736-.25135-.6059-.35719-.57097-.20902.069321-.24342.41407-.50006.4998-.33073.1106-.4736-.13044-.71173-.25003-.18785-.093663-.30692.21431-.50006.21431" style="clip-rule:evenodd;fill:none;stroke-linecap:round;stroke-linejoin:round;stroke-miterlimit:1.5;stroke-width:.26458px;stroke:#051372"/>
  <path id="path662" d="m-149.53 17.322c-.98549-.13864-2.0831-.59201-2.9098-1.0061-.35496-.17976-.69125-.71115-.69125-.71115s-.40167.42094-.56514.64025c-.18215.23564-.63053 1.1643-1.2003 1.2446-.22419.03189-1.2938-1.1893-1.3218-1.1737-.49975.28177-.77532 1.135-1.8916.92465-.25221-.04718-.4437-.60361-.63053-.56882-.36897.06906-.42969.41251-.88274.49791-.58382.11018-.83603-.12995-1.2564-.24909-.33162-.09331-.54179.2135-.88275.2135" style="clip-rule:evenodd;fill:none;stroke-linecap:round;stroke-linejoin:round;stroke-miterlimit:1.5;stroke-width:.24561px;stroke:#051372"/>
  <path id="path678" d="m72.832 12.052c-.98549-.13864-2.0831-.59201-2.9098-1.0061-.35496-.17976-.69125-.71115-.69125-.71115s-.40167.42094-.56514.64025c-.18215.23564-.63053 1.1643-1.2003 1.2446-.22419.03189-1.2938-1.1893-1.3218-1.1737-.49975.28177-.77532 1.135-1.8916.92465-.25221-.04718-.4437-.60361-.63053-.56882-.36898.06906-.42969.41251-.88274.49791-.58382.11018-.83603-.12995-1.2564-.24909-.33161-.09331-.54179.2135-.88274.2135" style="clip-rule:evenodd;fill:none;stroke-linecap:round;stroke-linejoin:round;stroke-miterlimit:1.5;stroke-width:.24561px;stroke:#051372"/>
  <path id="path694" d="m-103.3-83.743c-.55827-.13917-1.18-.59425-1.6484-1.0099-.20108-.18045-.39158-.71385-.39158-.71385s-.22754.42254-.32015.64267c-.10318.23654-.35718 1.1687-.67997 1.2494-.127.03202-.7329-1.1938-.74878-1.1782-.2831.28284-.4392 1.1393-1.0716.92816-.14287-.04736-.25135-.6059-.35719-.57097-.20902.06932-.24341.41407-.50006.4998-.33073.1106-.4736-.13044-.71173-.25003-.18785-.09366-.30691.21431-.50006.21431" style="clip-rule:evenodd;fill:none;stroke-linecap:round;stroke-linejoin:round;stroke-miterlimit:1.5;stroke-width:.26458px;stroke:#051372"/>
  <path id="path710" d="m-105.69-41.955c-.55827-.13917-1.18-.59425-1.6484-1.0099-.20108-.18045-.39158-.71385-.39158-.71385s-.22754.42254-.32015.64267c-.10318.23654-.35718 1.1687-.67997 1.2494-.127.03202-.7329-1.1938-.74878-1.1782-.2831.28284-.4392 1.1393-1.0716.92816-.14287-.04736-.25135-.6059-.35719-.57097-.20902.06932-.24341.41407-.50006.4998-.33073.1106-.4736-.13044-.71173-.25003-.18785-.09366-.30691.21431-.50006.21431" style="clip-rule:evenodd;fill:none;stroke-linecap:round;stroke-linejoin:round;stroke-miterlimit:1.5;stroke-width:.26458px;stroke:#051372"/>
  <path id="path726" d="m-195.43-66.229c-.55827-.13917-1.18-.59425-1.6484-1.0099-.20108-.18045-.39158-.71385-.39158-.71385s-.22754.42254-.32015.64267c-.10318.23654-.35718 1.1687-.67997 1.2494-.127.03202-.7329-1.1938-.74878-1.1782-.2831.28284-.4392 1.1393-1.0716.92816-.14287-.04736-.25135-.6059-.35719-.57097-.20902.06932-.24341.41407-.50006.4998-.33073.1106-.4736-.13044-.71173-.25003-.18785-.09366-.30691.21431-.50006.21431" style="clip-rule:evenodd;fill:none;stroke-linecap:round;stroke-linejoin:round;stroke-miterlimit:1.5;stroke-width:.26458px;stroke:#051372"/>
  <path id="path742" d="m-3.1901-51.594c-.22225.20955-1.4208-.15425-1.5769-.3892-.13229-.19712-.21431-.67813-.21431-.67813s-.082021.3138-.14288.46408c-.097896.24262-.40481.86625-.71438.92816-.20638.04127-.4445-.01297-.6059-.14288-.10054-.08043-.21431-.3212-.21431-.3212s-.3519.55827-.64294.60669c-.47625.07964-.35454-.28284-.5715-.4998-.018521-.01958-.17727.17859-.21431.21431-.12171.12092-.25929.18574-.42862.21405-.28046.04683-.38365-.41936-.5715-.35692-.084667.02884-.46302.35216-.46302.25003" style="clip-rule:evenodd;fill:none;stroke-linecap:round;stroke-linejoin:round;stroke-miterlimit:1.5;stroke-width:.26458px;stroke:#051372"/>
  <path id="path758" d="m78.011-64.021c-.22225.20955-1.4208-.15425-1.5769-.3892-.13229-.19712-.21431-.67813-.21431-.67813s-.08202.3138-.14288.46408c-.0979.24262-.40481.86625-.71438.92816-.20638.04127-.4445-.01297-.6059-.14288-.10054-.08043-.21431-.3212-.21431-.3212s-.3519.55827-.64294.60669c-.47625.07964-.35454-.28284-.5715-.4998-.01852-.01958-.17727.17859-.21431.21431-.12171.12092-.25929.18574-.42862.21405-.28046.04683-.38364-.41936-.5715-.35692-.08467.02884-.46302.35216-.46302.25003" style="clip-rule:evenodd;fill:none;stroke-linecap:round;stroke-linejoin:round;stroke-miterlimit:1.5;stroke-width:.26458px;stroke:#051372"/>
  <path id="path774" d="m-32.218-19.031c-.22225.20955-1.4208-.15425-1.5769-.3892-.13229-.19712-.21431-.67813-.21431-.67813s-.08202.3138-.14288.46408c-.0979.24262-.40481.86625-.71438.92816-.20638.04127-.4445-.01297-.6059-.14288-.10054-.08043-.21431-.3212-.21431-.3212s-.3519.55827-.64294.60669c-.47625.07964-.35454-.28284-.5715-.4998-.01852-.01958-.17727.17859-.21431.21431-.12171.12092-.25929.18574-.42862.21405-.28046.04683-.38364-.41936-.5715-.35692-.08467.02884-.46302.35216-.46302.25003" style="clip-rule:evenodd;fill:none;stroke-linecap:round;stroke-linejoin:round;stroke-miterlimit:1.5;stroke-width:.26458px;stroke:#051372"/>
  <path id="path790" d="m-49.516-70.715c-.22225.30192-1.4208-.22225-1.5769-.56077-.13229-.284-.21431-.97705-.21431-.97705s-.08202.45212-.14288.66865c-.0979.34957-.40481 1.2481-.71438 1.3373-.20638.05947-.4445-.01868-.6059-.20586-.10054-.11589-.21431-.46279-.21431-.46279s-.3519.80436-.64294.87412c-.47625.11474-.35454-.40752-.5715-.72011-.01852-.02821-.17727.25732-.21431.30878-.12171.17422-.25929.26761-.42862.3084-.28046.06747-.38364-.60422-.5715-.51426-.08467.04155-.46302.5074-.46302.36025" style="clip-rule:evenodd;fill:none;stroke-linecap:round;stroke-linejoin:round;stroke-miterlimit:1.5;stroke-width:.25725px;stroke:#051372"/>
  <path id="path806" d="m-102.49-29.676c.22225.20955 1.4208-.15425 1.5769-.3892.13229-.19712.21431-.67813.21431-.67813s.082.3138.14287.46408c.0979.24262.40482.86625.71438.92816.20638.04128.4445-.01296.6059-.14288.10054-.08043.21431-.3212.21431-.3212s.3519.55827.64294.60669c.47625.07964.35454-.28284.5715-.4998.01852-.01958.17727.17859.21431.21431.12171.12092.25929.18574.42862.21405.28046.04683.38364-.41936.5715-.35692.08467.02884.46302.35216.46302.25003" style="clip-rule:evenodd;fill:none;stroke-linecap:round;stroke-linejoin:round;stroke-miterlimit:1.5;stroke-width:.26458px;stroke:#051372"/>
  <path id="path822" d="m-192.23-53.951c.22225.20955 1.4208-.15425 1.5769-.3892.13229-.19712.21431-.67813.21431-.67813s.082.3138.14287.46408c.0979.24262.40482.86625.71438.92816.20637.04128.4445-.01296.60589-.14288.10055-.08043.21432-.3212.21432-.3212s.35189.55827.64293.60669c.47625.07964.35455-.28284.5715-.4998.0185-.01958.17727.17859.21432.21431.1217.12092.25929.18574.42862.21405.28046.04683.38365-.41936.5715-.35692.0847.02884.46302.35216.46302.25003" style="clip-rule:evenodd;fill:none;stroke-linecap:round;stroke-linejoin:round;stroke-miterlimit:1.5;stroke-width:.26458px;stroke:#051372"/>
  <path id="path838" d="m8.0275-41.035c-.11377-.28575-1.0901-.38364-1.3652-.6268-.071438-.06429-.50006-.92736-.67733-.74956-.18785.18627-.023813.73607-.25135.96361-.27252.27226-1.4049-.45614-1.7489-.57097-.27517-.09234-.20373.55298-.42862.64241-.36512.14631-.78846-.35851-1.106-.46408-.24077-.08017-.38365.19632-.46302.35692-.034396.06641-.42333-.16457-.46567-.17833-.15081-.05027-.30692.10716-.46302.10716" style="clip-rule:evenodd;fill:none;stroke-linecap:round;stroke-linejoin:round;stroke-miterlimit:1.5;stroke-width:.26458px;stroke:#051372"/>
  <path id="path854" d="m-70.289-.9123c-.11377-.28575-1.0901-.38365-1.3652-.6268-.07144-.064294-.50006-.92736-.67733-.74956-.18785.18627-.02381.73607-.25135.96361-.27252.27226-1.4049-.45614-1.7489-.57097-.27517-.092339-.20373.55298-.42862.64241-.36512.14631-.78846-.35851-1.106-.46408-.24077-.080169-.38365.19632-.46302.35692-.0344.06641-.42333-.16457-.46567-.17833-.15081-.050271-.30692.10716-.46302.10716" style="clip-rule:evenodd;fill:none;stroke-linecap:round;stroke-linejoin:round;stroke-miterlimit:1.5;stroke-width:.26458px;stroke:#051372"/>
  <path id="path870" d="m-108.69 27.782c-.11377-.28575-1.0901-.38364-1.3652-.6268-.0714-.06429-.50007-.92736-.67734-.74956-.18785.18627-.0238.73607-.25135.96361-.27252.27226-1.4049-.45614-1.7489-.57097-.27516-.09234-.20373.55298-.42862.64241-.36513.14631-.78846-.35851-1.106-.46408-.24077-.08017-.38365.19632-.46302.35692-.0344.06641-.42333-.16457-.46567-.17833-.15081-.05027-.30691.10716-.46302.10716" style="clip-rule:evenodd;fill:none;stroke-linecap:round;stroke-linejoin:round;stroke-miterlimit:1.5;stroke-width:.26458px;stroke:#051372"/>
  <path id="path886" d="m112.31 21.886c-.0714-.06429-.50007-.92736-.67734-.74956-.18785.18627-.0238.73607-.25135.96361-.27252.27226-1.4049-.45614-1.7489-.57097-.27516-.09234-.20373.55298-.42862.64241-.36513.14631-.78846-.35851-1.106-.46408-.24077-.08017-.38365.19632-.46302.35692-.0344.06641-.42333-.16457-.46567-.17833-.15081-.05027-.30691.10716-.46302.10716" style="clip-rule:evenodd;fill:none;stroke-linecap:round;stroke-linejoin:round;stroke-miterlimit:1.5;stroke-width:.26458px;stroke:#051372"/>
  <path id="path902" d="m-8.7346-79.566c.00529-.0058.00794-.01164.010583-.01746" style="clip-rule:evenodd;fill:none;stroke-linecap:round;stroke-linejoin:round;stroke-miterlimit:1.5;stroke-width:.26458"/>
  <path id="path918" d="m72.467-91.993c.0053-.0058.0079-.01164.01058-.01746" style="clip-rule:evenodd;fill:none;stroke-linecap:round;stroke-linejoin:round;stroke-miterlimit:1.5;stroke-width:.26458"/>
  <path id="path934" d="m41.912-37.021c-.29369-.2376-.27781-.55007.03704-.37491" style="clip-rule:evenodd;fill:none;stroke-linecap:round;stroke-linejoin:round;stroke-miterlimit:1.5;stroke-width:.26458"/>
  <path id="path1478" d="m-1.9401-53.547c-.00794.02778-.060854.08255-.060854.03916" style="clip-rule:evenodd;fill:none;stroke-linecap:round;stroke-linejoin:round;stroke-miterlimit:1.5;stroke-width:.26458"/>
  <path id="path1510" d="m-75.43-5.6005c-.0079.027781-.06086.08255-.06086.039158" style="clip-rule:evenodd;fill:none;stroke-linecap:round;stroke-linejoin:round;stroke-miterlimit:1.5;stroke-width:.26458"/>
  <path id="path1526" d="m-157.12 29.658c-.008.02778-.0608.08255-.0608.03916" style="clip-rule:evenodd;fill:none;stroke-linecap:round;stroke-linejoin:round;stroke-miterlimit:1.5;stroke-width:.26458"/>
  <path id="path1542" d="m65.249 24.388c-.0079.02778-.06086.08255-.06086.03916" style="clip-rule:evenodd;fill:none;stroke-linecap:round;stroke-linejoin:round;stroke-miterlimit:1.5;stroke-width:.26458"/>
  <path id="path1558" d="m-148.7-85.955c-.007.03122-.0558.09278-.0558.04401" style="clip-rule:evenodd;fill:none;stroke-linecap:round;stroke-linejoin:round;stroke-miterlimit:1.5;stroke-width:.26848"/>
  <path id="path1574" d="m-141.29-28.549c-.008.02778-.0609.08255-.0609.03916" style="clip-rule:evenodd;fill:none;stroke-linecap:round;stroke-linejoin:round;stroke-miterlimit:1.5;stroke-width:.26458"/>
  <path id="path1606" d="m20.667-52.183c.02381.0034.06879.02117.06879.02117s-.12171-.08837-.18256-.13706c-.11906-.10001-.2249-.24156-.3175-.36539-.05292-.06959-.23812-.61992-.25929-.60907-.08996.04551-.14552.19394-.19844.27411-.11377.17092-.6985.99086-.97367.57864-.09525-.14182-.0344-.46117-.13758-.5633-.03704-.03598-.1614.27728-.16669.28919-.08996.21008-.16669.50456-.42862.54822-.30427.0508-.55827-.25162-.6985-.48736-.04763-.08043-.10054-.22569-.19844-.25876-.06615-.02196-.12435.15954-.13758.19791-.07408.20505-.2249.54716-.45508.62415-.40481.13441-.51594-.54531-.71702-.74586-.01323-.01482-.16669.2077-.18256.22834-.0979.11827-.29633.38312-.48683.31962-.32808-.10927-.25136-.6985-.54769-.86783-.30692-.17515-.5715.60695-.7911.66992-.26723.0762-.17992-.5506-.39688-.59372-.10054-.02011-.18785.08308-.27517.12171-.20902.09525-.51329.31194-.74612.33496-.05821.0061-.20373-.0021-.25665-.01508-.08467-.01984-.16404-.05715-.24342-.09128-.10319-.04366-.77787-.34237-.77787-.27411" style="clip-rule:evenodd;fill:none;stroke-linecap:round;stroke-linejoin:round;stroke-miterlimit:1.5;stroke-width:.26458px;stroke:#051372"/>
  <path id="path1622" d="m108.19-62.146c.0238.0034.0688.02117.0688.02117s-.12171-.08837-.18256-.13706c-.11906-.10001-.2249-.24156-.3175-.36539-.0529-.06959-.23813-.61992-.25929-.60907-.09.04551-.14552.19394-.19844.27411-.11377.17092-.6985.99086-.97367.57864-.0952-.14182-.0344-.46117-.13758-.5633-.037-.03598-.1614.27728-.16669.28919-.09.21008-.16669.50456-.42862.54822-.30427.0508-.55827-.25162-.6985-.48736-.0476-.08043-.10054-.22569-.19844-.25876-.0661-.02196-.12435.15954-.13758.19791-.0741.20505-.2249.54716-.45509.62415-.40481.13441-.51593-.54531-.71702-.74586-.0132-.01482-.16669.2077-.18256.22834-.0979.11827-.29633.38312-.48683.31962-.32809-.10927-.25136-.6985-.54769-.86783-.30692-.17515-.5715.60695-.79111.66992-.26722.0762-.17991-.5506-.39687-.59372-.10054-.02011-.18785.08308-.27517.12171-.20902.09525-.51329.31194-.74612.33496-.05821.0061-.20373-.0021-.25665-.01508-.08467-.01984-.16404-.05715-.24342-.09128-.10319-.04366-.77788-.34237-.77788-.27411" style="clip-rule:evenodd;fill:none;stroke-linecap:round;stroke-linejoin:round;stroke-miterlimit:1.5;stroke-width:.26458px;stroke:#051372"/>
  <path id="path1638" d="m-54.325-5.787c.02381.00344.06879.021167.06879.021167s-.12171-.088371-.18256-.13705c-.11906-.10001-.2249-.24156-.3175-.36539-.05292-.069585-.23812-.61992-.25929-.60907-.08996.045508-.14552.19394-.19844.27411-.11377.17092-.6985.99086-.97367.57864-.09525-.14182-.0344-.46117-.13758-.5633-.03704-.035983-.1614.27728-.16669.28919-.08996.21008-.16669.50456-.42862.54822-.30427.0508-.55827-.25162-.6985-.48736-.04762-.080433-.10054-.22569-.19844-.25876-.06615-.02196-.12435.15954-.13758.19791-.07408.20505-.2249.54716-.45508.62415-.40481.13441-.51594-.54531-.71702-.74586-.01323-.014817-.16669.2077-.18256.22834-.0979.11827-.29633.38312-.48683.31962-.32808-.10927-.25136-.6985-.54769-.86783-.30692-.17515-.5715.60695-.7911.66992-.26723.0762-.17992-.5506-.39688-.59372-.10054-.020108-.18785.083079-.27517.12171-.20902.09525-.51329.31194-.74612.33496-.05821.00609-.20373-.00212-.25665-.015081-.08467-.019844-.16404-.05715-.24342-.091281-.10319-.043656-.77788-.34237-.77788-.27411" style="clip-rule:evenodd;fill:none;stroke-linecap:round;stroke-linejoin:round;stroke-miterlimit:1.5;stroke-width:.26458px;stroke:#051372"/>
  <path id="path1654" d="m-136.02 29.939c.0395.0036.11417.02238.11417.02238s-.20199-.09342-.30299-.14488c-.1976-.10572-.37325-.25536-.52694-.38625-.0878-.07356-.3952-.65531-.43033-.64384-.1493.04811-.24152.20501-.32934.28976-.18882.18068-1.1593 1.0474-1.6159.61168-.15809-.14991-.0571-.4875-.22834-.59546-.0615-.03804-.26786.29311-.27665.3057-.1493.22207-.27664.53337-.71136.57952-.50499.0537-.92654-.26598-1.1593-.51519-.079-.08503-.16686-.23858-.32934-.27354-.10978-.02321-.20638.16865-.22834.20921-.12295.21676-.37325.5784-.75528.65978-.67184.14208-.85627-.57644-1.19-.78844-.022-.01566-.27664.21956-.30299.24137-.16247.12502-.49181.40499-.80797.33786-.54451-.11551-.41716-.73838-.90897-.91738-.50938-.18515-.94849.64161-1.313.70817-.4435.08055-.2986-.58203-.65867-.62762-.16687-.02126-.31177.08782-.45668.12866-.3469.10069-.85189.32975-1.2383.35409-.0966.0064-.33812-.0022-.42594-.01594-.14052-.02098-.27225-.06041-.40399-.09649-.17125-.04615-1.291-.36192-1.291-.28976" style="clip-rule:evenodd;fill:none;stroke-linecap:round;stroke-linejoin:round;stroke-miterlimit:1.5;stroke-width:.25232px;stroke:#051372"/>
  <path id="path1670" d="m88.228 27.689c.03952.0036.11417.02238.11417.02238s-.20199-.09342-.30299-.14488c-.1976-.10572-.37325-.25536-.52694-.38625-.08782-.07356-.3952-.65531-.43033-.64384-.1493.04811-.24151.20501-.32934.28976-.18882.18068-1.1593 1.0474-1.6159.61168-.15808-.14991-.05709-.4875-.22834-.59546-.06148-.03804-.26786.29311-.27664.3057-.1493.22207-.27664.53337-.71137.57952-.50498.0537-.92653-.26598-1.1593-.51519-.07904-.08503-.16686-.23858-.32934-.27354-.10978-.02321-.20638.16865-.22834.20921-.12295.21676-.37325.5784-.75528.65978-.67185.14208-.85628-.57644-1.19-.78844-.02196-.01566-.27664.21956-.30299.24137-.16247.12502-.49181.40499-.80797.33786-.5445-.11551-.41716-.73838-.90897-.91738-.50937-.18515-.94849.64161-1.313.70817-.44351.08055-.2986-.58203-.65867-.62762-.16686-.02126-.31177.08782-.45668.12866-.3469.10069-.85188.32975-1.2383.35409-.09661.0064-.33812-.0022-.42594-.01594-.14052-.02098-.27225-.06041-.40399-.09649-.17126-.04615-1.291-.36192-1.291-.28976" style="clip-rule:evenodd;fill:none;stroke-linecap:round;stroke-linejoin:round;stroke-miterlimit:1.5;stroke-width:.25232px;stroke:#051372"/>
  <path id="path1686" d="m-115.12-79.506c.0264.0033.0762.02031.0762.02031s-.13489-.08481-.20233-.13154c-.13196-.09599-.24925-.23184-.35189-.35068-.0586-.06678-.26391-.59497-.28737-.58456-.0997.04368-.16128.18613-.21992.26308-.12609.16404-.77414.95098-1.0791.55535-.10556-.13611-.0381-.44261-.15248-.54062-.041-.03454-.17887.26612-.18474.27755-.0997.20162-.18474.48425-.47504.52615-.33722.04876-.61873-.24149-.77414-.46774-.0528-.0772-.11143-.21661-.21993-.24835-.0733-.02108-.13782.15312-.15248.18994-.0821.1968-.24925.52514-.50436.59903-.44865.129-.57181-.52336-.79467-.71584-.0147-.01422-.18474.19934-.20233.21914-.1085.11351-.32843.3677-.53955.30675-.36362-.10488-.27858-.67038-.607-.8329-.34015-.1681-.63339.58252-.87677.64296-.29617.07313-.1994-.52844-.43986-.56983-.11143-.0193-.20819.07973-.30496.11681-.23166.09142-.56888.29939-.82692.32148-.0645.0058-.2258-.002-.28444-.01447-.0938-.01904-.18181-.05485-.26978-.08761-.11436-.0419-.86211-.32859-.86211-.26308" style="clip-rule:evenodd;fill:none;stroke-linecap:round;stroke-linejoin:round;stroke-miterlimit:1.5;stroke-width:.26196px;stroke:#051372"/>
  <path id="path1702" d="m-133.13-85.954c-.11112-.28575-1.0901-.38365-1.3626-.6268-.0741-.06429-.50271-.92736-.67998-.74983-.18521.18653-.0212.73634-.24871.96388-.27252.27226-1.4049-.45641-1.7489-.57124-.27782-.09208-.20638.55324-.42863.64267-.36777.14632-.7911-.35851-1.1086-.46408-.23813-.08017-.38365.19632-.46302.35692-.0318.06615-.42334-.16484-.46302-.17833-.15082-.05027-.30957.10689-.46567.10689" style="clip-rule:evenodd;fill:none;stroke-linecap:round;stroke-linejoin:round;stroke-miterlimit:1.5;stroke-width:.26458px;stroke:#051372"/>
  <path id="path1718" d="m-131.66-25.697c.0283.0037.0817.02277.0817.02277s-.14459-.09505-.21689-.14741c-.14146-.10757-.26719-.25982-.37721-.39301-.0629-.07485-.28291-.66678-.30806-.65511-.10687.04895-.17288.2086-.23575.29483-.13517.18384-.82986 1.0658-1.1568.62238-.11316-.15254-.0409-.49603-.16345-.60588-.044-.0387-.19175.29824-.19804.31105-.10687.22596-.19803.5427-.50923.58966-.36149.05464-.66326-.27064-.82986-.5242-.0566-.08651-.11945-.24275-.23575-.27832-.0786-.02362-.14775.1716-.16346.21287-.088.22055-.26719.58852-.54067.67133-.48094.14457-.61296-.58653-.85186-.80224-.0157-.01594-.19804.2234-.2169.2456-.1163.12721-.35206.41208-.57838.34378-.38979-.11753-.29863-.7513-.65069-.93343-.36464-.18839-.67898.65283-.93988.72056-.31748.08196-.21375-.59222-.47151-.6386-.11945-.02163-.22318.08936-.32692.13091-.24832.10245-.60982.33552-.88644.36028-.0692.0065-.24204-.0023-.30491-.01622-.10059-.02134-.19489-.06147-.28919-.09818-.12259-.04696-.92416-.36825-.92416-.29483" style="clip-rule:evenodd;fill:none;stroke-linecap:round;stroke-linejoin:round;stroke-miterlimit:1.5;stroke-width:.2632px;stroke:#051372"/>
  <path id="path1734" d="m-201.81-50.833c.0283.0025.0817.0153.0817.0153s-.14459-.06389-.21689-.09909c-.14146-.07231-.26719-.17465-.37721-.26418-.0629-.05031-.28291-.44821-.30806-.44037-.10687.0329-.17288.14022-.23575.19818-.13517.12358-.82986.71641-1.1568.41837-.11316-.10254-.0409-.33343-.16345-.40727-.044-.02602-.19175.20048-.19804.20909-.10687.15189-.19803.3648-.50923.39637-.36149.03673-.66326-.18192-.82986-.35237-.0566-.05815-.11945-.16318-.23575-.18709-.0786-.01588-.14775.11535-.16346.14309-.088.14826-.26719.3956-.54067.45127-.48094.09718-.61296-.39426-.85186-.53927-.0157-.01071-.19804.15017-.2169.16509-.1163.08551-.35206.277-.57838.23109-.38979-.07901-.29863-.50502-.65069-.62745-.36464-.12664-.67898.43884-.93988.48436-.31748.05509-.21375-.39809-.47151-.42927-.11945-.01454-.22318.06007-.32692.088-.24832.06887-.60982.22554-.88644.24218-.0692.0044-.24204-.0015-.30491-.0109-.10059-.01435-.19489-.04132-.28919-.066-.12259-.03156-.92416-.24754-.92416-.19818" style="clip-rule:evenodd;fill:none;stroke-linecap:round;stroke-linejoin:round;stroke-miterlimit:1.5;stroke-width:.25012px;stroke:#051372"/>
  <path id="path1750" d="m-194.18.63159c.38973-.14764.0238.96335-.11959 1.3367-.073.18944-.56277.80301-.35401 1.0115.26485.26485.71728-.39979 1.0808-.30877.47122.11774 1.5907.6948 1.9299.6948.36857 0-.39079-.64241-.46302-1.0036-.17621-.88053.0762-1.1538-.0489-2.0294z" style="clip-rule:evenodd;fill-rule:evenodd;fill:#926a41;stroke-linecap:round;stroke-linejoin:round;stroke-miterlimit:1.5;stroke-width:.26458"/>
  <path id="path1754" d="m-189.25-11.573c-.33257-1.0332-3.2646-1.484-2.9322-1.6437 1.2721-.61174-.0907-3.1365-1.7833-3.2713-1.2215-.09738-2.2513.60095-2.2652 1.7968-.01.83634-.64242-.71402-1.3414-.85708-1.0088-.20639-1.7646 1.3825-1.2958 1.8562.71028.71781-3.9328.40885-.87899 3.1146 1.2664 1.122-.30575 3.1767.28713 3.5805.48926.33333 1.2744.68306 1.7351.92153 1.8179.94129 9.2543.08575 8.8716-2.2739-.1155-.71304-1.4374-.11882-1.5921-.88468-.18702-.92616 1.5157-1.3429 1.1951-2.3391z" style="clip-rule:evenodd;fill-rule:evenodd;fill:#2b8d3f;stroke-linecap:round;stroke-linejoin:round;stroke-miterlimit:1.5;stroke-width:.14331"/>
  <path id="path1758" d="m-181.78-3.658c.25297-.54913-.65716-1.6441-.4775-1.6112.68768.12577 1.1044-1.3849.53348-1.9628-.41196-.41707-1.0423-.43101-1.4812.082151-.30689.3589.0237-.50613-.18033-.78258-.29455-.39896-1.1476.056565-1.1477.40541-.00027.5286-1.5884-1.0302-1.4515 1.0778.0567.87419-1.2641 1.2806-1.1935 1.6373.0582.2944.21891.68673.3011.93131.32426.96528 3.3576 2.8777 4.0733 1.7392.21632-.34397-.48325-.49262-.26209-.87146.26743-.45814 1.042-.1158 1.286-.64523z" style="clip-rule:evenodd;fill-rule:evenodd;fill:#3fc51e;stroke-linecap:round;stroke-linejoin:round;stroke-miterlimit:1.5;stroke-width:.074431"/>
  <path id="path1762" d="m-195.62-4.0475c.25297-.54913-.65716-1.6441-.4775-1.6112.68768.12577 1.1044-1.3849.53348-1.9628-.41196-.41707-1.0423-.43101-1.4812.082151-.30689.3589.0237-.50613-.18033-.78258-.29455-.39896-1.1476.056565-1.1477.40541-.00027.5286-1.5884-1.0302-1.4515 1.0778.0567.87419-1.2641 1.2806-1.1935 1.6373.0583.2944.21891.68673.3011.93131.32426.96528 3.3576 2.8777 4.0733 1.7392.21632-.34397-.48325-.49262-.26209-.87146.26743-.45814 1.042-.1158 1.286-.64523z" style="clip-rule:evenodd;fill-rule:evenodd;fill:#3fc51e;stroke-linecap:round;stroke-linejoin:round;stroke-miterlimit:1.5;stroke-width:.074431"/>
  <path id="path1766" d="m-188.39-1.5371c.38947-.1479-.13229 1.9016-.27596 2.2749-.0728.18971 1.6603.22199 2.0238.313.47122.11774-.0421-1.6785-.16722-2.554z" style="clip-rule:evenodd;fill-rule:evenodd;fill:#926a41;stroke-linecap:round;stroke-linejoin:round;stroke-miterlimit:1.5;stroke-width:.26458"/>
  <path id="path1770" d="m-182.09-1.163c-2.7453-2.4403-7.0387-13.913-6.9887-13.963.0423-.04233-3.4134 13.843-3.6372 14.145-.76703 1.0332 4.9726-.48313 10.626-.18124z" style="clip-rule:evenodd;fill-rule:evenodd;fill:#00500a;stroke-linecap:round;stroke-linejoin:round;stroke-miterlimit:1.5;stroke-width:.26458"/>
  <path id="path1774" d="m-204.41-3.3114s-1.0514 2.2397-.76782 2.1587c.61516-.17542 2.3241 0 2.6633 0 .36856 0-.57838-1.6883-.60854-2.0555-.031-.37809-1.1316.2368-1.2869-.10319z" style="clip-rule:evenodd;fill-rule:evenodd;fill:#926a41;stroke-linecap:round;stroke-linejoin:round;stroke-miterlimit:1.5;stroke-width:.26458"/>
  <path id="path1778" d="m-198.16-3.0701c-2.7453-2.4403-7.0387-13.913-6.9887-13.963.0423-.04233-3.4134 13.843-3.6372 14.145-.76703 1.0332 4.9726-.48313 10.626-.18124z" style="clip-rule:evenodd;fill-rule:evenodd;fill:#00500a;stroke-linecap:round;stroke-linejoin:round;stroke-miterlimit:1.5;stroke-width:.26458"/>
  <path id="path1782" d="m-187.46 1.3798c-2.7453-2.4403-7.0387-13.913-6.9887-13.963.0423-.04233-3.4134 13.843-3.6372 14.145-.76703 1.0332 4.9726-.48313 10.626-.18124z" style="clip-rule:evenodd;fill-rule:evenodd;fill:#00500a;stroke-linecap:round;stroke-linejoin:round;stroke-miterlimit:1.5;stroke-width:.26458"/>
  <path id="path1902" d="m-44.376-42.826c.38973-.14764.02381.96335-.11959 1.3367-.07303.18944-.56277.80301-.35401 1.0115.26485.26485.71728-.39978 1.0808-.30877.47122.11774 1.5907.6948 1.9299.6948.36856 0-.39079-.64241-.46302-1.0036-.17621-.88053.0762-1.1538-.04895-2.0294z" style="clip-rule:evenodd;fill-rule:evenodd;fill:#926a41;stroke-linecap:round;stroke-linejoin:round;stroke-miterlimit:1.5;stroke-width:.26458"/>
  <path id="path1906" d="m-39.445-55.031c-.33257-1.0332-3.2646-1.484-2.9322-1.6437 1.2721-.61174-.09073-3.1365-1.7833-3.2713-1.2215-.09738-2.2513.60095-2.2653 1.7968-.0097.83634-.64242-.71402-1.3414-.85708-1.0088-.20639-1.7646 1.3825-1.2958 1.8562.71028.71781-3.9328.40885-.87899 3.1146 1.2664 1.122-.30575 3.1767.28713 3.5805.48925.33333 1.2744.68306 1.7351.92153 1.8179.94129 9.2543.08575 8.8716-2.2739-.1155-.71304-1.4374-.11882-1.5921-.88468-.18702-.92616 1.5157-1.3429 1.1951-2.3391z" style="clip-rule:evenodd;fill-rule:evenodd;fill:#2b8d3f;stroke-linecap:round;stroke-linejoin:round;stroke-miterlimit:1.5;stroke-width:.14331"/>
  <path id="path1910" d="m-47.238-48.022c-.48045-.36702-1.7481.28137-1.6766.11327.27324-.64347-1.1096-1.3807-1.7984-.95015-.49713.31069-.6487.92272-.24403 1.4632.28303.378-.48866-.13394-.80308.0047-.45376.20009-.19598 1.1321.14437 1.2087.51572.11595-1.3529 1.3244.734 1.6522.86541.13597.9729 1.5138 1.3364 1.5229.30001.0076.71799-.0633.97463-.08996 1.0128-.10512 3.5428-2.6463 2.5886-3.5938-.28828-.28637-.58644.3637-.90769.06499-.38849-.36122.11509-1.0421-.34812-1.396z" style="clip-rule:evenodd;fill-rule:evenodd;fill:#3fc51e;stroke-linecap:round;stroke-linejoin:round;stroke-miterlimit:1.5;stroke-width:.074431"/>
  <path id="path1914" d="m-39.916-53.098c-.48045-.36702-1.7481.28137-1.6766.11327.27324-.64347-1.1096-1.3807-1.7984-.95015-.49713.31069-.6487.92272-.24403 1.4632.28303.378-.48866-.13394-.80308.0047-.45376.20009-.19598 1.1321.14437 1.2087.51572.11595-1.3529 1.3244.734 1.6522.86541.13597.9729 1.5138 1.3364 1.5229.30001.0076.71799-.0633.97463-.08996 1.0128-.10512 3.5428-2.6463 2.5886-3.5938-.28828-.28637-.58644.3637-.90769.06499-.38849-.36122.11509-1.0421-.34812-1.396z" style="clip-rule:evenodd;fill-rule:evenodd;fill:#3fc51e;stroke-linecap:round;stroke-linejoin:round;stroke-miterlimit:1.5;stroke-width:.074431"/>
  <path id="path1918" d="m-38.584-44.994c.38947-.1479-.13229 1.9016-.27596 2.2749-.07276.18971 1.6603.22198 2.0238.313.47122.11774-.04207-1.6785-.16722-2.554z" style="clip-rule:evenodd;fill-rule:evenodd;fill:#926a41;stroke-linecap:round;stroke-linejoin:round;stroke-miterlimit:1.5;stroke-width:.26458"/>
  <path id="path1922" d="m-32.28-44.62c-2.7453-2.4403-7.0387-13.913-6.9887-13.963.04233-.04233-3.4134 13.843-3.6372 14.145-.76703 1.0332 4.9726-.48313 10.626-.18124z" style="clip-rule:evenodd;fill-rule:evenodd;fill:#00500a;stroke-linecap:round;stroke-linejoin:round;stroke-miterlimit:1.5;stroke-width:.26458"/>
  <path id="path1926" d="m-37.575-42.395c-3.0652-2.7246-7.8589-15.535-7.803-15.59.04727-.04727-3.8111 15.456-4.061 15.793-.8564 1.1536 5.552-.53942 11.864-.20236z" style="clip-rule:evenodd;fill-rule:evenodd;fill:#00500a;stroke-linecap:round;stroke-linejoin:round;stroke-miterlimit:1.5;stroke-width:.29541"/>
  <path id="path2022" d="m26.794 14.571c-.4159-.17865-.02541 1.1657.12762 1.6174.07793.22923.60056.97168.37778 1.224-.28263.32048-.76545-.48376-1.1534-.37362-.50287.14247-1.6975.84073-2.0595.84073-.39331 0 .41703-.77734.49411-1.2144.18804-1.0655-.08132-1.3962.05223-2.4556z" style="clip-rule:evenodd;fill-rule:evenodd;fill:#926a41;stroke-linecap:round;stroke-linejoin:round;stroke-miterlimit:1.5;stroke-width:.30066"/>
  <path id="path2038" d="m21.534-.19688c.3549-1.2502 3.4838-1.7956 3.129-1.9889-1.3575-.74023.09682-3.7952 1.9031-3.9583 1.3035-.11783 2.4025.72718 2.4174 2.1742.01032 1.012.68556-.864 1.4315-1.0371 1.0766-.24974 1.8831 1.6729 1.3828 2.2461-.75798.86858 4.1969.49473.93801 3.7688-1.3514 1.3577.32628 3.8439-.30641 4.3325-.52211.40335-1.36.82653-1.8516 1.1151-1.94 1.139-9.8757.10376-9.4673-2.7515.12325-.86281 1.5339-.14377 1.699-1.0705.19958-1.1207-1.6175-1.6249-1.2754-2.8304z" style="clip-rule:evenodd;fill-rule:evenodd;fill:#2b8d3f;stroke-linecap:round;stroke-linejoin:round;stroke-miterlimit:1.5;stroke-width:.16285"/>
  <path id="path2054" d="m13.561 9.3819c-.26995-.66447.70128-1.9894.50956-1.9496-.73385.15219-1.1785-1.6758-.5693-2.3751.43962-.50467 1.1123-.52154 1.5806.099408.32749.43428-.02534-.61244.19243-.94695.31433-.48276 1.2246.068447 1.2248.49057.000282.63962 1.695-1.2466 1.549 1.3042-.06055 1.0578 1.349 1.5496 1.2736 1.9813-.06216.35624-.23361.83096-.32132 1.1269-.34603 1.168-3.583 3.4821-4.3468 2.1045-.23085-.41622.51569-.59608.27968-1.0545-.28539-.55436-1.112-.14012-1.3723-.78076z" style="clip-rule:evenodd;fill-rule:evenodd;fill:#3fc51e;stroke-linecap:round;stroke-linejoin:round;stroke-miterlimit:1.5;stroke-width:.08458"/>
  <path id="path2070" d="m20.613 11.947c-.41562-.17897.14118 2.301.29449 2.7527.07765.22955-1.7717.26861-2.1597.37874-.50286.14247.04489-2.0311.17845-3.0905z" style="clip-rule:evenodd;fill-rule:evenodd;fill:#926a41;stroke-linecap:round;stroke-linejoin:round;stroke-miterlimit:1.5;stroke-width:.30066"/>
  <path id="path2164" d="m19.593 14.988c2.9297-2.9528 7.5114-16.836 7.458-16.896-.04518-.051225 3.6426 16.751 3.8815 17.116.81853 1.2502-5.3065-.58461-11.339-.21931z" style="clip-rule:evenodd;fill-rule:evenodd;fill:#00500a;stroke-linecap:round;stroke-linejoin:round;stroke-miterlimit:1.5;stroke-width:.30066"/>
  <path id="path2086" d="m13.885 12.4c2.9297-2.9528 7.5114-16.836 7.458-16.896-.04518-.051225 3.6426 16.751 3.8815 17.116.81853 1.2502-5.3065-.58461-11.339-.21931z" style="clip-rule:evenodd;fill-rule:evenodd;fill:#00500a;stroke-linecap:round;stroke-linejoin:round;stroke-miterlimit:1.5;stroke-width:.30066"/>
  <path id="path2102" d="m34.149 10.449s1.1221 2.7101.81938 2.6122c-.65646-.21226-2.4802 0-2.8421 0-.39331 0 .61722-2.0429.6494-2.4873.03303-.4575 1.2076.28654 1.3734-.12486z" style="clip-rule:evenodd;fill-rule:evenodd;fill:#926a41;stroke-linecap:round;stroke-linejoin:round;stroke-miterlimit:1.5;stroke-width:.30066"/>
  <path id="path2118" d="m27.474 10.741c2.9297-2.9528 7.5114-16.836 7.458-16.896-.04518-.051225 3.6426 16.751 3.8815 17.116.81853 1.2502-5.3065-.58461-11.339-.21931z" style="clip-rule:evenodd;fill-rule:evenodd;fill:#00500a;stroke-linecap:round;stroke-linejoin:round;stroke-miterlimit:1.5;stroke-width:.30066"/>
  <path id="path614" d="m-225.93-63.589c-2.7841.6661-4.5003 3.4704-1.5494 3.18.37661-.03709.66027.4315 1.0583.53825.25982.06996.58161.13871.82951.06242.21691-.06604.42428-.27561.68171-.2352.31941.04975.52917.32717.75085.52378.21929.1948.47434.32868.76514.39833.57923.13961.89625-.26897 1.4135-.25752.60544.01357.95822.66821 1.5303.81235.29318.07388.53393-.0018.77706-.11398.10965-.05096.30034-.18665.45289-.15529.30749.06302.72463.20535.97014.39834.14302.11428.21453.27078.39091.3534.34801.16524.46481-.313.758-.25299.21929.04493.33609.24093.47911.42125.0524-.04493.10965-.079.17639-.09408.3051-.07086.56492.16404.81758.30154.0739.0395.14779.07207.22168.0971.26935-.06453.52917-.16012.81282-.17338.0548-.0024.1168.01839.18116.05428.28603-.21228.48149-.55393.81996-.69264.56016-.22736 1.0464.38386 1.6066.31993.28842-.03257.49103-.21711.68649-.44417.0882-.10282.22883-.33501.37661-.36064.29796-.05096.71747-.05518.98921.06875.16209.07327.26458.22495.44574.24998.36231.04975.35039-.5482.63643-.59705.35754-.06151.55538.49061.95345.48488.62928-.0087.9749-.60127 1.485-.85728.24552-.12363.76276.34707 1.0369.37934.36231.04312.73416-.35823 1.1084-.40165.65311-.07569 1.1799.70199 1.783.0018.174-.20264.19307-.51925.34086-.73093.10011-.14534.56015.32989.68171.34376.19069.02231.39092-.11398.58161-.11881.26935-.0066.50295.11458.76515.14172-.20738-1.0551-1.3777-3.0573-1.7615-3.6912-1.7329-2.868-6.2594-7.0829-9.0149-8.0798-2.5219-.91126-5.1558.31059-7.139 2.2815-.51486.51051-.73892 1.3805-1.2681 1.8261-1.0345.87175-1.5589 2.0505-2.653 2.7422-.89863.56901-2.9605 1.0319-3.9783 1.2755z" style="clip-rule:evenodd;fill-rule:evenodd;fill:#926a41;stroke-linecap:round;stroke-linejoin:round;stroke-miterlimit:1.5;stroke-width:.2681"/>
  <path id="path1062" d="m-208.22-61.189c.35454-.0093-.28046-1.4965-.4101-1.8008-.55298-1.2901-1.9024-3.1652-3.4502-3.3372-.79639-.08863-1.6166-.01614-2.323.33761-.32279.16087-.52123.73951-.71438 1.0123-.20902.29872-.71966.53287-.85989.86228-.26988.62839-.56621 1.265-.8255 1.8748-.23019.53658-.67469 1.0406-.78846 1.6124-.0662.33893.65617.08308.86254.11245.40746.05794.72496.32888 1.0874.44979.26458.08837.66146-.02117.93662 0 1.2859.09895 2.4289.09181 3.6989-.36962.49742-.18124 2.7861-.75406 2.7861-.75406z" style="clip-rule:evenodd;fill-rule:evenodd;fill:#5a3614;stroke-linecap:round;stroke-linejoin:round;stroke-miterlimit:1.5;stroke-width:.26458"/>
  <path id="path1190" d="m-203.59-59.394c.43329.04322 1.2856.38925 1.6991-.12991.13071-.16503.1701-.33252.15219-.53636-.0107-.11813.72335.41406.79497.24362.12354-.29372.67321-.28488.96863.09627-.15577-.8593-1.2032-2.5595-1.4592-3.1064-1.2909-2.7604-5.9515-7.5797-8.032-7.9847-1.4879-.2893 4.5872 5.8663 5.511 8.6751.14861.45433.1128 1.7891.36526 2.7424z" style="clip-rule:evenodd;fill-rule:evenodd;fill:#968069;stroke-linecap:round;stroke-linejoin:round;stroke-miterlimit:1.5;stroke-width:.20969"/>
  <path id="path1302" d="m-222.6-61.673c-.0188-.50595 1.8383-1.0071 2.171-1.3395.95-.95219 1.0386-1.5016 2.2462-2.1427.42938-.22717 1.6504-1.5472 2.0879-1.7539" style="clip-rule:evenodd;fill:none;stroke-linecap:round;stroke-linejoin:round;stroke-miterlimit:1.5;stroke-width:.26316px;stroke:#5a3614"/>
  <path id="path1462" d="m-214.76-65.601c-.13229.21855-.24342.4699-.3519.62389-.20902.29872-.71966.53287-.85989.86228-.26988.62839-.56621 1.265-.8255 1.8748-.23019.53658-.67469 1.0406-.78846 1.6124-.0662.33893.65617.08308.86254.11245.40746.05794.72496.32888 1.0874.44979.26458.08837.66146-.02117.93662 0 1.2859.09895 2.4289.09181 3.6989-.36962.14552-.05292 1.016-.32438 1.3679-.42016-.33603-.77814-.44186-2.0397-.97367-2.6784-.70379-.84402-1.5425-1.4703-2.3627-2.1825-.26723-.23072-1.4711.26723-1.7912.11509z" style="clip-rule:evenodd;fill-rule:evenodd;fill:#352e26;stroke-linecap:round;stroke-linejoin:round;stroke-miterlimit:1.5;stroke-width:.26458"/>
  <path id="path1590" d="m-233.47-57.302c-.008.02778-.0609.08255-.0609.03916" style="clip-rule:evenodd;fill:none;stroke-linecap:round;stroke-linejoin:round;stroke-miterlimit:1.5;stroke-width:.26458"/>
  <path id="path518" d="m77.822-68.482c.25135.12012.49212.36327.69056.48948.3519.22437.73025.37862 1.1748.47228.2884.06138.64294.12171.92075.05477.24077-.05794.47096-.24183.75671-.20638.3519.04366.58738.28707.83079.45958.24342.17092.52917.2884.85196.34951.64294.12224.99483-.23627 1.569-.22595.6694.01191 4.7995-.15928 5.4345-.03281.32544.06482.59267-.0016.86254-.10001.12171-.04471.33338-.16378.50271-.13626.34131.0553.80433.18018 1.0769.34951.15875.10028.23812.2376.43392.31009.38629.14499.51594-.27464.84138-.22198.24342.03942.37306.2114.53181.36962.05821-.03942.12171-.06932.19579-.08255.33867-.06218.62706.14393.90752.26458.08202.03466.16404.06323.24606.0852.29898-.05662.58738-.14049.90223-.15214.06085-.0021.12965.01614.20108.04762.3175-.18627.53446-.48604.91017-.60775.62177-.1995 1.1615.33682 1.7833.28072.32015-.02857.54504-.1905.762-.38973.0979-.09022.254-.29395.41805-.31644.33073-.04471.79639-.04842 1.098.06033.17991.06429.29368.19738.49477.21934.40216.04366.38894-.48101.70644-.52388.39687-.05398.61647.43048 1.0583.42545.6985-.0077 1.0821-.52758 1.6484-.75221.27252-.10848.84667.30454 1.1509.33284.40217.03784.81492-.31432 1.2303-.35242.72496-.06641 1.3097.61595 1.9791.0016.19314-.1778.21431-.45561.37835-.64135.11113-.12753.62177.28945.75671.30162.21167.01958.43392-.10001.64558-.10425.29898-.0058.55827.10054.84931.12435-.23018-.92578-1.5293-2.6826-1.9553-3.2388-1.9235-2.5165-6.948-6.2148-10.007-7.0895-2.7993-.79957-5.7229.27252-7.9243 2.0018-.5715.44794-.82021 1.2113-1.4076 1.6023-1.1483.76491-2.7067 2.1561-3.9211 2.763-1.0001.49927-4.9583 1.1885-5.9161 1.8264-.37042.24818-2.5585 1.3594-3.6698 1.9823z" style="clip-rule:evenodd;fill-rule:evenodd;fill:#926a41;stroke-linecap:round;stroke-linejoin:round;stroke-miterlimit:1.5;stroke-width:.26458"/>
  <path id="path966" d="m101.86-68.608c.35398.02208-.14722-1.5154-.24949-1.8299-.43691-1.3339-1.6154-3.3208-3.142-3.6288-.78546-.15861-3.523-.14018-4.2605.14958-.3331.13197-.58449.6906-.79833.9455-.23458.27909-.76654.46701-.93531.78275-.32431.6021-.67306 1.2103-.98782 1.7946-.27667.51415-.76128.97694-.92512 1.5367-.09845.33153.64627.14069.84924.18817.39812.09346.69309.39161 1.0435.54406.25575.11139.66074.03732.93297.0827 1.2695.21188 4.3254.28728 5.6312-.06022.51148-.13661 2.8418-.50511 2.8418-.50511z" style="clip-rule:evenodd;fill-rule:evenodd;fill:#5a3614;stroke-linecap:round;stroke-linejoin:round;stroke-miterlimit:1.5;stroke-width:.26458"/>
  <path id="path1094" d="m108.2-68.012c.64029.04657 1.1774.56224 1.7886.0029.19314-.1778.21431-.45561.37835-.64135.11113-.12753.62177.28945.75671.30162.21167.01958.43392-.10001.64558-.10425.29898-.0058.55827.10054.84931.12435-.23018-.92578-1.5293-2.6826-1.9553-3.2388-1.9235-2.5165-6.948-6.2148-10.007-7.0895-2.1352-.60986-4.3445-.1307-6.2468.89826.67998-.009 1.3547.40746 2.0452.26882 5.1567-1.0319 9.1175 3.6401 10.483 6.6662.2196.48948.889 1.7849 1.2621 2.8117z" style="clip-rule:evenodd;fill-rule:evenodd;fill:#968069;stroke-linecap:round;stroke-linejoin:round;stroke-miterlimit:1.5;stroke-width:.26458"/>
  <path id="path1334" d="m104.2-69.208c.0212-.52917-1.2171-1.6132-1.5266-2.5715-.42068-1.301-1.2541-1.5348-2.4474-2.205-.42069-.23786-1.7886-1.7587-2.2199-1.9748" style="clip-rule:evenodd;fill:none;stroke-linecap:round;stroke-linejoin:round;stroke-miterlimit:1.5;stroke-width:.26458px;stroke:#5a3614"/>
  <path id="path1366" d="m95.726-73.58c-.15107.20601-2.841.91609-3.0098 1.2318-.32431.6021-.67306 1.2103-.98782 1.7946-.27664.51389-.76128.97694-.92512 1.5367-.09845.33153.64627.14069.84924.18817.39812.09346.69045.39137 1.0435.54406.25577.11112 2.3296.17862 2.6018.224 1.2721.21211 2.4113.30592 3.7171-.04157.14962-.03986 1.0407-.2334 1.3997-.29773-.266-.80477-.26002-2.0707-.73336-2.7539-.62652-.90287-1.4067-1.6008-2.1608-2.3827-.24581-.25341-1.4889.13629-1.7944-.04352z" style="clip-rule:evenodd;fill-rule:evenodd;fill:#352e26;stroke-linecap:round;stroke-linejoin:round;stroke-miterlimit:1.5;stroke-width:.26458"/>
  <path id="path1494" d="m79.261-65.975c-.0079.02778-.06086.08255-.06086.03916" style="clip-rule:evenodd;fill:none;stroke-linecap:round;stroke-linejoin:round;stroke-miterlimit:1.5;stroke-width:.26458"/>
  <path id="path566" d="m70.624 21.136c.22883.12012.44574.36327.62213.48948.31941.22437.66027.37862 1.0583.47228.25982.06138.58161.12171.8295.05477.21691-.05794.42429-.24183.68172-.20638.31941.04366.52917.28707.75084.45958.2193.17092.47434.2884.76515.34951.57922.1225.89624-.23601 1.4135-.22595.60544.01191.95822.58632 1.5303.71279.29319.06482.53393-.0016.77706-.10001.10965-.04471.30034-.16378.45289-.13626.30749.0553.72462.18018.97014.34951.14302.10028.21453.2376.39092.31009.34801.14499.46481-.27464.75799-.22198.2193.03942.33609.2114.47911.36962.05244-.03942.10965-.06932.17639-.08255.3051-.06218.56492.14393.81759.26458.07389.03466.14778.06324.22168.0852.26935-.05662.52917-.14049.81282-.15214.05482-.0021.1168.01614.18116.04763.28604-.18627.48149-.48604.81997-.60775.56015-.1995 1.0464.33682 1.6066.28072.28842-.02858.49103-.1905.68649-.38973.08819-.09022.22883-.29395.37661-.31644.29795-.04471.71747-.04842.98921.06032.16209.06429.26458.19738.44574.21934.36231.04366.35039-.48101.63643-.52388.35754-.05397.55539.43048.95345.42545.62928-.0077.9749-.52758 1.485-.75221.24551-.10848.76276.30454 1.0369.33284.36231.03784.73416-.31432 1.1084-.35242.65312-.06641 1.1799.61595 1.783.0016.174-.1778.19307-.45561.34086-.64135.10011-.12753.56015.28945.68172.30162.19069.01958.39092-.10001.58161-.10425.26935-.0058.50295.10054.76514.12435-.20738-.92578-1.3777-2.6826-1.7615-3.2388-1.7329-2.5165-6.2594-6.2148-9.0149-7.0895-1.2252-.38814-2.9104-.0079-4.5718.3302-1.7615.35825-6.7409.62759-8.2974 1.8658-1.4922 1.1859-2.9009 2.6424-3.094 3.5489-.09296.43524-.24551 3.0626-1.2466 3.6854z" style="clip-rule:evenodd;fill-rule:evenodd;fill:#926a41;stroke-linecap:round;stroke-linejoin:round;stroke-miterlimit:1.5;stroke-width:.25113"/>
  <path id="path1014" d="m88.808 22.421c.12964.86757-.10848-1.8664-.24077-2.1706-.55298-1.2901-1.8494-3.4213-3.3972-3.593-.7964-.0889-1.2303-.56515-1.9368-.2114-.32279.16087-.52123.73951-.71438 1.0123-.20902.29872-.71967.53287-.8599.86228-.26988.62839-.56621 1.265-.8255 1.8748-.23019.53658-.67469 1.0406-.78846 1.6124-.06615.33893.65617.08308.86254.11245.40746.05794.72496.32888 1.0874.44979.26458.08837.66146-.02117.93662 0 1.2859.09895 2.4289.09181 3.6989-.36962.49742-.18124 2.1775.42069 2.1775.42069z" style="clip-rule:evenodd;fill-rule:evenodd;fill:#5a3614;stroke-linecap:round;stroke-linejoin:round;stroke-miterlimit:1.5;stroke-width:.26458"/>
  <path id="path1142" d="m95.833 22.238c.39602.03895.72822.47025 1.1062.0024.11946-.14871.13255-.38107.23401-.53641.06873-.10666.38457.24209.46803.25227.13092.01638.26838-.08365.3993-.08719.18492-.0049.34529.08409.5253.10401-.14237-.7743-.94587-2.2437-1.2093-2.7088-1.1897-2.1047-4.2973-5.198-6.1891-5.9295-1.3206-.51008-4.8194-.79931-5.996.06152.4222-.0075 1.337 1.2379 3.3973.9146 3.2418-.50831 5.6392 3.0445 6.4836 5.5755.13583.40939.54985 1.4928.78059 2.3517z" style="clip-rule:evenodd;fill-rule:evenodd;fill:#968069;stroke-linecap:round;stroke-linejoin:round;stroke-miterlimit:1.5;stroke-width:.1903"/>
  <path id="path1238" d="m76.848 20.25c-.01852-.52917.66675-1.0541.99483-1.402.93662-.99563 2.0452-1.8513 3.2359-2.5217.42333-.23786 1.7515-1.3364 2.1828-1.5526" style="clip-rule:evenodd;fill:none;stroke-linecap:round;stroke-linejoin:round;stroke-miterlimit:1.5;stroke-width:.26458px;stroke:#5a3614"/>
  <path id="path1270" d="m73.974 20.642c-.01303-.37142.62551-.65704.69998-.98408.19175-.84795.57711-1.5743 2.2768-1.77.33882-.039 1.2324-.93802 1.5359-1.0897" style="clip-rule:evenodd;fill:none;stroke-linecap:round;stroke-linejoin:round;stroke-miterlimit:1.5;stroke-width:.26403px;stroke:#5a3614"/>
  <path id="path1414" d="m82.871 16.834c-1.0663-.14737-3.4713 4.1029-2.8258 4.9734.20638.27728.65617.08308.86254.11245.40746.05794.72496.32888 1.0874.44979.26458.08837.66146-.02117.93662 0 1.2859.09895 2.4289.09181 3.6989-.36962.14552-.05292-.34925.09578 0 0-.33602-.77788.2249-1.9079-.30692-2.5466-.70379-.84402-.84138-2.0222-1.6616-2.7345-.26723-.23072-1.4711.26723-1.7912.11509z" style="clip-rule:evenodd;fill-rule:evenodd;fill:#352e26;stroke-linecap:round;stroke-linejoin:round;stroke-miterlimit:1.5;stroke-width:.26458"/>
  <path id="path582" d="m-135.29-89.713c.20964.135.40836.40829.56996.55013.29262.25217.6049.42553.96959.5308.23803.06899.53284.13679.75995.06155.19872-.06512.38871-.27179.62455-.23195.29263.04906.4848.32264.68789.51653.2009.1921.43457.32413.70099.39282.53065.13768.82109-.26525 1.295-.25395.55468.01338.87788.65897 1.402.80111.2686.07286.48916-.0018.7119-.1124.10046-.05026.27516-.18407.41492-.15314.2817.06215.66386.20251.88879.39282.13102.1127.19654.26704.35814.34852.31882.16296.42583-.30867.69443-.24949.20091.04431.30791.2376.43894.41542.048-.04431.10045-.07791.16159-.09278.27953-.06988.51756.16177.74903.29737.0677.03896.1354.07107.20309.09575.24677-.06364.4848-.1579.74467-.17099.0502-.0024.107.01814.16596.05353.26205-.20935.44112-.54626.75121-.68305.51319-.22422.95868.37855 1.4719.31551.26423-.03212.44985-.2141.62892-.43802.0808-.1014.20964-.33038.34504-.35565.27297-.05026.65731-.05442.90626.0678.14849.07226.24239.22184.40836.24652.33193.04906.32101-.54062.58306-.58879.32757-.06066.50882.48382.87351.47817.57651-.0086.89315-.59295 1.3605-.84542.22493-.12192.6988.34227.94993.37409.33194.04252.6726-.35327 1.0154-.39609.59835-.07464 1.081.69227 1.6335.0018.15941-.19983.17688-.51207.31227-.72082.0917-.14333.51319.32532.62456.339.1747.02201.35813-.1124.53284-.11716.24676-.0065.46077.113.70098.13976-.18998-1.0405-1.2622-3.015-1.6138-3.6401-1.5876-2.8283-5.7346-6.9849-8.259-7.968-2.3104-.89864-4.7235.30629-6.5404 2.2499-.47169.50344-.67696 1.3614-1.1618 1.8009-.94775.85969-2.1051.89151-3.1075 1.5737-.82327.56113-1.1377 2.0295-1.9261 2.7465-.30791.27893-2.1139 1.5279-3.0311 2.2279z" style="clip-rule:evenodd;fill-rule:evenodd;fill:#926a41;stroke-linecap:round;stroke-linejoin:round;stroke-miterlimit:1.5;stroke-width:.25483"/>
  <path id="path1030" d="m-118.09-89.82c.39664-.01222-.31375-1.9751-.45879-2.3767-.61863-1.7027-2.1282-4.1775-3.8598-4.4045-.89094-.11698-1.7227.57339-2.5988.44558-1.406-.20463-4.2238 6.0077-3.5667 7.0766.22792.36876.73407.10965.96494.14841.45584.07648.81103.43406 1.2165.59364.296.11663.73999-.02794 1.0478 0 1.4385.1306 2.7172.12117 4.138-.48784.55647-.2392 3.1168-.99523 3.1168-.99523z" style="clip-rule:evenodd;fill-rule:evenodd;fill:#5a3614;stroke-linecap:round;stroke-linejoin:round;stroke-miterlimit:1.5;stroke-width:.3215"/>
  <path id="path1158" d="m-113.23-88.348c.51841.05234.95327.63191 1.4481.0033.15638-.19983.17352-.51207.30633-.72082.09-.14333.50342.32532.61267.339.17137.02201.35132-.1124.52269-.11716.24207-.0065.452.113.68764.13976-.18637-1.0405-1.2382-3.015-1.5831-3.6401-1.5574-2.8283-5.6254-6.9849-8.1018-7.968-1.7288-.68543-3.3675.58017-4.9078 1.7369.55268-.01011 1.0968.45795 1.6559.30213 4.1751-1.1597 7.232 3.3638 8.3374 6.7648.1778.55013.71977 2.006 1.0218 3.1601z" style="clip-rule:evenodd;fill-rule:evenodd;fill:#968069;stroke-linecap:round;stroke-linejoin:round;stroke-miterlimit:1.5;stroke-width:.25239"/>
  <path id="path1430" d="m-125.26-95.228c-.51799-.16482-3.0073 4.7142-2.7646 5.8156.0977.44139.18056.44279.41143.48155.45584.07648.81103.43406 1.2165.59364.296.11663.73999-.02794 1.0478 0 1.4385.1306 2.7172.12117 4.138-.48784.1628-.06984 1.1366-.42812 1.5303-.55453-.37591-1.027-.12728-2.6868-.72519-3.5297-.78734-1.114-1.326-1.7987-2.2466-2.7388-.296-.3045-2.2525.62088-2.6077.42009z" style="clip-rule:evenodd;fill-rule:evenodd;fill:#352e26;stroke-linecap:round;stroke-linejoin:round;stroke-miterlimit:1.5;stroke-width:.3215"/>
  <path id="path534" d="m-70.055-8.853c.22883.12012.44574.36327.62213.48948.31941.22437.66027.37862 1.0583.47228.25982.061383.58161.12171.8295.054769.21691-.057944.42429-.24183.68172-.20638.31941.043656.52917.28707.75084.45958.2193.17092.47434.2884.76515.34951.57922.1225.89624-.23601 1.4135-.22595.60544.011906.95822.58632 1.5303.71279.29319.064823.53393-.00159.77706-.10001.10965-.044715.30034-.16378.45289-.13626.30749.055298.72462.18018.97014.34951.14302.10028.21453.2376.39092.31009.34801.14499.46481-.27464.75799-.22199.2193.039423.33609.2114.47911.36962.05244-.039423.10965-.069321.17639-.08255.3051-.062177.56492.14393.81759.26458.07389.03466.14778.063235.22168.085196.26935-.056621.52917-.14049.81282-.15214.05482-.00212.1168.01614.18116.047625.28604-.18627.48149-.48604.81997-.60775.56015-.1995 1.0464.33681 1.6066.28072.28842-.028575.49103-.1905.68649-.38973.08819-.090223.22883-.29395.37661-.31644.29795-.044715.71747-.048419.98921.060325.16209.064294.26458.19738.44574.21934.36231.043656.35039-.48101.63643-.52388.35754-.053975.55539.43048.95345.42545.62928-.00767.9749-.52758 1.485-.75221.24551-.10848.76276.30454 1.0369.33285.36231.037835.73416-.31432 1.1084-.35242.65312-.06641 1.1799.61595 1.783.00159.174-.1778.19307-.45561.34086-.64135.10011-.12753.56015.28945.68172.30162.19069.019579.39092-.10001.58161-.10425.26935-.00582.50295.10054.76514.12435-.20738-.92578-1.3777-2.6826-1.7615-3.2388-1.7329-2.5165-6.2594-6.2148-9.0149-7.0895-2.5219-.79957-5.1558.27252-7.139 2.0018-.51486.44794-.73892 1.2113-1.2681 1.6023-1.0345.76491-2.2978.79322-3.3919 1.4002-.89863.49927-1.2419 1.8058-2.1024 2.4437-.33609.24818-2.3074 1.3594-3.3085 1.9823z" style="clip-rule:evenodd;fill-rule:evenodd;fill:#926a41;stroke-linecap:round;stroke-linejoin:round;stroke-miterlimit:1.5;stroke-width:.25113"/>
  <path id="path982" d="m-51.262-8.7429c.35454-.00926-.28046-1.4965-.4101-1.8008-.55298-1.2901-1.9024-3.1652-3.4502-3.3372-.7964-.08864-1.6166-.01614-2.323.33761-.32279.16087-.52123.73951-.71438 1.0123-.20902.29872-.71967.53287-.8599.86228-.26988.62839-.56621 1.265-.8255 1.8748-.23019.53658-.67469 1.0406-.78846 1.6124-.06615.33893.65617.083079.86254.11245.40746.057944.72496.32888 1.0874.44979.26458.088371.66146-.021167.93662 0 1.2859.098954 2.4289.09181 3.6989-.36962.49742-.18124 2.7861-.75406 2.7861-.75406z" style="clip-rule:evenodd;fill-rule:evenodd;fill:#5a3614;stroke-linecap:round;stroke-linejoin:round;stroke-miterlimit:1.5;stroke-width:.26458"/>
  <path id="path1110" d="m-45.974-7.6383c.56586.046567 1.0405.56224 1.5807.00291.17069-.1778.1894-.45561.33437-.64135.09821-.12753.54949.28945.66874.30162.18706.019579.38347-.10001.57053-.10425.26422-.00582.49337.10054.75058.12435-.20343-.92578-1.3515-2.6826-1.728-3.2388-1.6999-2.5165-6.1403-6.2148-8.8433-7.0895-1.887-.60986-3.8394-.1307-5.5206.89826.60093-.009 1.1972.40746 1.8075.26882 4.5573-1.0319 8.0576 3.6401 9.2642 6.6662.19408.48948.78565 1.7849 1.1153 2.8117z" style="clip-rule:evenodd;fill-rule:evenodd;fill:#968069;stroke-linecap:round;stroke-linejoin:round;stroke-miterlimit:1.5;stroke-width:.24873"/>
  <path id="path1206" d="m-63.831-9.7391c-.01852-.52917.66675-1.0541.99483-1.402.93662-.99563 2.0452-1.8513 3.2359-2.5217.42333-.23786 1.7515-1.3364 2.1828-1.5526" style="clip-rule:evenodd;fill:none;stroke-linecap:round;stroke-linejoin:round;stroke-miterlimit:1.5;stroke-width:.26458px;stroke:#5a3614"/>
  <path id="path1382" d="m-57.808-13.155c-.13229.21855-.24342.4699-.3519.62389-.20902.29872-.71967.53287-.8599.86228-.26988.62839-.56621 1.265-.8255 1.8748-.23019.53658-.67469 1.0406-.78846 1.6124-.06615.33893.65617.083079.86254.11245.40746.057944.72496.32888 1.0874.44979.26458.088371.66146-.021167.93662 0 1.2859.098954 2.4289.09181 3.6989-.36962.14552-.052917 1.016-.32438 1.3679-.42016-.33602-.77814-.44186-2.0397-.97367-2.6784-.70379-.84402-1.5425-1.4703-2.3627-2.1825-.26723-.23072-1.4711.26723-1.7912.11509z" style="clip-rule:evenodd;fill-rule:evenodd;fill:#352e26;stroke-linecap:round;stroke-linejoin:round;stroke-miterlimit:1.5;stroke-width:.26458"/>
  <path id="path550" d="m-151.74 26.405c.22883.12012.44574.36327.62213.48948.31941.22437.66027.37862 1.0583.47228.25982.06138.58161.12171.82951.05477.21691-.05794.42428-.24183.68171-.20638.31941.04366.52917.28707.75085.45958.21929.17092.47434.2884.76514.34951.57923.1225.89625-.23601 1.4135-.22595.60544.01191.95822.58632 1.5303.71279.29318.06482.53393-.0016.77706-.10001.10965-.04471.30034-.16378.45289-.13626.30749.0553.72463.18018.97014.34951.14302.10028.21453.2376.39091.31009.34801.14499.46481-.27464.758-.22198.21929.03942.33609.2114.47911.36962.0524-.03942.10965-.06932.17639-.08255.3051-.06218.56492.14393.81758.26458.0739.03466.14779.06324.22168.0852.26935-.05662.52917-.14049.81282-.15214.0548-.0021.1168.01614.18116.04763.28603-.18627.48149-.48604.81996-.60775.56016-.1995 1.0464.33682 1.6066.28072.28842-.02858.49103-.1905.68649-.38973.0882-.09022.22883-.29395.37661-.31644.29796-.04471.71747-.04842.98921.06032.16209.06429.26458.19738.44574.21934.36231.04366.35039-.48101.63643-.52388.35754-.05397.55538.43048.95345.42545.62928-.0077.9749-.52758 1.485-.75221.24552-.10848.76276.30454 1.0369.33284.36231.03784.73416-.31432 1.1084-.35242.65311-.06641 1.1799.61595 1.783.0016.174-.1778.19307-.45561.34086-.64135.10011-.12753.56015.28945.68171.30162.19069.01958.39092-.10001.58161-.10425.26935-.0058.50295.10054.76515.12435-.20738-.92578-1.3777-2.6826-1.7615-3.2388-1.7329-2.5165-6.2594-6.2148-9.0149-7.0895-2.5219-.79957-7.2176-1.4309-9.2008.29845-.51248.44794-.73892 1.2113-1.2681 1.6026-1.0321.76491-2.2954.79322-3.3895 1.4002-.90102.49927-1.2419 1.8055-2.1048 2.4437-.33609.24818-.24551 3.0626-1.2466 3.6854z" style="clip-rule:evenodd;fill-rule:evenodd;fill:#926a41;stroke-linecap:round;stroke-linejoin:round;stroke-miterlimit:1.5;stroke-width:.25113"/>
  <path id="path998" d="m-132.95 26.515c.35454-.0093-.28046-1.4965-.4101-1.8008-.55298-1.2901-1.9024-3.1652-3.4502-3.3372-.79639-.08864-1.6166-.01614-2.323.33761-.32279.16087-.52123.73951-.71438 1.0123-.20902.29872-.71966.53287-.85989.86228-.26988.62839-.56621 1.265-.8255 1.8748-.23019.53658-.67469 1.0406-.78846 1.6124-.0661.33893.65617.08308.86254.11245.40746.05794.72496.32888 1.0874.44979.26458.08837.66146-.02117.93662 0 1.2859.09895 2.4289.09181 3.6989-.36962.49742-.18124 2.7861-.75406 2.7861-.75406z" style="clip-rule:evenodd;fill-rule:evenodd;fill:#5a3614;stroke-linecap:round;stroke-linejoin:round;stroke-miterlimit:1.5;stroke-width:.26458"/>
  <path id="path1126" d="m-127.7 27.465c.56586.04657 1.0405.56224 1.5807.0029.17069-.1778.1894-.45561.33437-.64135.0982-.12753.54949.28945.66874.30162.18706.01958.38347-.10001.57054-.10425.26422-.0058.49337.10054.75057.12435-.20342-.92578-1.3515-2.6826-1.728-3.2388-1.6999-2.5165-6.1403-6.2148-8.8433-7.0895-1.887-.60986-6.8862-.95568-8.5674.07355.60327-.009 1.9104 1.4801 4.8542 1.0935 4.6321-.60775 8.0576 3.6401 9.2642 6.6662.19407.48948.78565 1.7849 1.1153 2.8117z" style="clip-rule:evenodd;fill-rule:evenodd;fill:#968069;stroke-linecap:round;stroke-linejoin:round;stroke-miterlimit:1.5;stroke-width:.24873"/>
  <path id="path1222" d="m-145.52 25.519c-.0185-.52917.66675-1.0541.99483-1.402.93662-.99563 2.0452-1.8513 3.2358-2.5217.42334-.23786 1.7516-1.3364 2.1828-1.5526" style="clip-rule:evenodd;fill:none;stroke-linecap:round;stroke-linejoin:round;stroke-miterlimit:1.5;stroke-width:.26458px;stroke:#5a3614"/>
  <path id="path1254" d="m-148.39 25.911c-.013-.37142.62552-.65704.69998-.98408.19175-.84795.57711-1.5743 2.2768-1.77.33882-.039 1.2324-.93802 1.5358-1.0897" style="clip-rule:evenodd;fill:none;stroke-linecap:round;stroke-linejoin:round;stroke-miterlimit:1.5;stroke-width:.26403px;stroke:#5a3614"/>
  <path id="path1398" d="m-139.49 22.104c-1.0663-.14737-3.4713 4.1029-2.8258 4.9734.20638.27728.65617.08308.86254.11245.40746.05794.72496.32888 1.0874.44979.26458.08837.66146-.02117.93662 0 1.2859.09895 2.4289.09181 3.6989-.36962.14552-.05292 1.016-.32438 1.3679-.42016-.33603-.77814-.44186-2.0397-.97367-2.6784-.70379-.84402-1.5425-1.4703-2.3627-2.1825-.26723-.23072-1.4711.26723-1.7912.11509z" style="clip-rule:evenodd;fill-rule:evenodd;fill:#352e26;stroke-linecap:round;stroke-linejoin:round;stroke-miterlimit:1.5;stroke-width:.26458"/>
  <path id="path598" d="m-135.92-32.213c.22883.1369.44574.41401.62213.55785.31941.25571.66027.4315 1.0583.53825.25982.06996.58161.13871.82951.06242.21691-.06604.42428-.27561.68171-.2352.31941.04975.52917.32717.75085.52378.21929.1948.47434.32868.76514.39833.57923.13961.89625-.26897 1.4135-.25752.60544.01357.95822.66821 1.5303.81235.29318.07388.53393-.0018.77706-.11398.10965-.05096.30034-.18665.45289-.15529.30749.06302.72463.20535.97014.39834.14302.11428.21453.27078.39091.3534.34801.16524.46481-.313.758-.25299.21929.04493.33609.24093.47911.42125.0524-.04493.10965-.079.17639-.09408.3051-.07086.56492.16404.81758.30154.0739.0395.14779.07207.22168.0971.26935-.06453.52917-.16012.81282-.17338.0548-.0024.1168.01839.18116.05428.28603-.21228.48149-.55393.81996-.69264.56016-.22736 1.0464.38386 1.6066.31993.28842-.03257.49103-.21711.68649-.44417.0882-.10282.22883-.33501.37661-.36064.29796-.05096.71747-.05518.98921.06875.16209.07327.26458.22495.44574.24998.36231.04975.35039-.5482.63643-.59705.35754-.06151.55538.49061.95345.48488.62928-.0087.9749-.60127 1.485-.85728.24552-.12363.76276.34707 1.0369.37934.36231.04312.73416-.35823 1.1084-.40165.65311-.07569 1.1799.70199 1.783.0018.174-.20264.19307-.51925.34086-.73093.10011-.14534.56015.32989.68171.34376.19069.02231.39092-.11398.58161-.11881.26935-.0066.50295.11458.76515.14172-.20738-1.0551-1.3777-3.0573-1.7615-3.6912-1.7329-2.868-6.2594-7.0829-9.0149-8.0798-2.5219-.91126-5.1558.31059-7.139 2.2815-.51486.51051-.73892 1.3805-1.2681 1.8261-1.0345.87175-2.2978.90402-3.3919 1.5958-.89862.56901-1.2419 2.058-2.1024 2.785-.33609.28284-2.3074 1.5493-3.3085 2.2591z" style="clip-rule:evenodd;fill-rule:evenodd;fill:#926a41;stroke-linecap:round;stroke-linejoin:round;stroke-miterlimit:1.5;stroke-width:.2681"/>
  <path id="path1046" d="m-116.03-32.436c.35454-.0093-.28046-1.4965-.4101-1.8008-.55298-1.2901-1.9024-3.1652-3.4502-3.3372-.79639-.08864-1.6166-.01614-2.323.33761-.32279.16087-.52123.73951-.71438 1.0123-.20902.29872-.71966.53287-.85989.86228-.26988.62839-.56621 1.265-.8255 1.8748-.23019.53658-.67469 1.0406-.78846 1.6124-.0662.33893.65617.08308.86254.11245.40746.05794.72496.32888 1.0874.44979.26458.08837.66146-.02117.93662 0 1.2859.09895 2.4289.09181 3.6989-.36962.49742-.18124 2.7861-.75406 2.7861-.75406z" style="clip-rule:evenodd;fill-rule:evenodd;fill:#5a3614;stroke-linecap:round;stroke-linejoin:round;stroke-miterlimit:1.5;stroke-width:.26458"/>
  <path id="path1174" d="m-111.83-30.829c.56586.05307 1.0405.64077 1.5807.0033.17069-.20264.1894-.51925.33437-.73093.0982-.14534.54949.32989.66874.34376.18706.02231.38347-.11398.57054-.11881.26422-.0066.49337.11458.75057.14172-.20342-1.0551-1.3515-3.0573-1.728-3.6912-1.6999-2.868-6.1403-7.0829-8.8433-8.0798-1.887-.69505-3.8394-.14896-5.5206 1.0237.60093-.01025 1.1972.46437 1.8075.30636 4.5572-1.176 8.0576 4.1486 9.2642 7.5973.19407.55785.78565 2.0342 1.1153 3.2045z" style="clip-rule:evenodd;fill-rule:evenodd;fill:#968069;stroke-linecap:round;stroke-linejoin:round;stroke-miterlimit:1.5;stroke-width:.26553"/>
  <path id="path1286" d="m-130.42-32.92c-.0188-.50595.67627-1.0078 1.009-1.3405.95-.95194 2.0744-1.7701 3.2821-2.4111.42938-.22742 1.7766-1.2778 2.214-1.4844" style="clip-rule:evenodd;fill:none;stroke-linecap:round;stroke-linejoin:round;stroke-miterlimit:1.5;stroke-width:.26316px;stroke:#5a3614"/>
  <path id="path1446" d="m-122.58-36.848c-.13229.21855-.24342.4699-.3519.62389-.20902.29872-.71966.53287-.85989.86228-.26988.62839-.56621 1.265-.8255 1.8748-.23019.53658-.67469 1.0406-.78846 1.6124-.0662.33893.65617.08308.86254.11245.40746.05794.72496.32888 1.0874.44979.26458.08837.66146-.02117.93662 0 1.2859.09895 2.4289.09181 3.6989-.36962.14552-.05292 1.016-.32438 1.3679-.42016-.33603-.77814-.44186-2.0397-.97367-2.6784-.70379-.84402-1.5425-1.4703-2.3627-2.1825-.26723-.23072-1.4711.26723-1.7912.11509z" style="clip-rule:evenodd;fill-rule:evenodd;fill:#352e26;stroke-linecap:round;stroke-linejoin:round;stroke-miterlimit:1.5;stroke-width:.26458"/>
  <path id="path486" d="m.35651-56.8c.254.12012.49477.36327.69056.48948.35454.22437.7329.37862 1.1747.47228.2884.06138.64558.12171.92075.05477.24077-.05794.47096-.24183.75671-.20638.35454.04366.58738.28707.83344.45958.24342.17092.52652.2884.84931.34951.64294.1225.99483-.23601 1.569-.22595.67204.01191 1.0636.58632 1.6986.71279.32544.06482.59267-.0016.86254-.10001.12171-.04471.33337-.16378.50271-.13626.34131.0553.80433.18018 1.0769.34951.15875.10028.23812.2376.43392.31009.38629.14499.51594-.27464.84138-.22198.24342.03942.37306.2114.53181.36962.05821-.03942.12171-.06932.19579-.08255.33867-.06218.62706.14393.90752.26458.08202.03466.16404.06323.24606.0852.29898-.05662.58738-.14049.90223-.15214.06085-.0021.12965.01614.20108.04762.3175-.18627.53446-.48604.91017-.60775.62177-.1995 1.1615.33682 1.7833.28072.32015-.02857.54504-.1905.762-.38973.0979-.09022.254-.29395.41804-.31644.33073-.04471.7964-.04842 1.098.06032.17992.06429.29369.19738.49477.21934.40217.04366.38894-.48101.70644-.52388.39688-.05398.61648.43048 1.0583.42545.6985-.0077 1.0821-.52758 1.6484-.75221.27252-.10848.84667.30454 1.1509.33284.40217.03784.81492-.31432 1.2303-.35242.72496-.06641 1.3097.61595 1.9791.0016.19315-.1778.21431-.45561.37835-.64135.11112-.12753.62177.28945.75671.30162.21167.01958.43392-.10001.64558-.10425.29898-.0058.55827.10054.84931.12435-.23019-.92578-1.5293-2.6826-1.9553-3.2388-1.9235-2.5165-6.948-6.2148-10.007-7.0895-2.7993-.79957-5.7229.27252-7.9243 2.0018-.5715.44794-.82021 1.2113-1.4076 1.6023-1.1483.76491-2.5506.79322-3.765 1.4002-.99748.49927-1.3785 1.8058-2.3336 2.4437-.37306.24818-2.5612 1.3594-3.6724 1.9823z" style="clip-rule:evenodd;fill-rule:evenodd;fill:#926a41;stroke-linecap:round;stroke-linejoin:round;stroke-miterlimit:1.5;stroke-width:.26458"/>
  <path id="path502" d="m.35651-56.8c.254.12012.49477.36327.69056.48948.35454.22437.7329.37862 1.1747.47228.2884.06138.64558.12171.92075.05477.24077-.05794.47096-.24183.75671-.20638.35454.04366.58738.28707.83344.45958.24342.17092.52652.2884.84931.34951.64294.1225.99483-.23601 1.569-.22595.67204.01191 1.0636.58632 1.6986.71279.32544.06482.59267-.0016.86254-.10001.12171-.04471.33337-.16378.50271-.13626.34131.0553.80433.18018 1.0769.34951.15875.10028.23812.2376.43392.31009.38629.14499.51594-.27464.84138-.22198.24342.03942.37306.2114.53181.36962.05821-.03942.12171-.06932.19579-.08255.33867-.06218.62706.14393.90752.26458.08202.03466.16404.06323.24606.0852.29898-.05662.58738-.14049.90223-.15214.06085-.0021.12965.01614.20108.04762.3175-.18627.53446-.48604.91017-.60775.62177-.1995 1.1615.33682 1.7833.28072.32015-.02857.54504-.1905.762-.38973.0979-.09022.254-.29395.41804-.31644.33073-.04471.7964-.04842 1.098.06032.17992.06429.29369.19738.49477.21934.40217.04366.38894-.48101.70644-.52388.39688-.05398.61648.43048 1.0583.42545.6985-.0077 1.0821-.52758 1.6484-.75221.27252-.10848.84667.30454 1.1509.33284.40217.03784.81492-.31432 1.2303-.35242.72496-.06641 1.3097.61595 1.9791.0016.19315-.1778.21431-.45561.37835-.64135.11112-.12753.62177.28945.75671.30162.21167.01958.43392-.10001.64558-.10425.29898-.0058.55827.10054.84931.12435-.23019-.92578-1.5293-2.6826-1.9553-3.2388-1.9235-2.5165-6.948-6.2148-10.007-7.0895-2.7993-.79957-5.7229.27252-7.9243 2.0018-.5715.44794-.82021 1.2113-1.4076 1.6023-1.1483.76491-2.5506.79322-3.765 1.4002-.99748.49927-1.3785 1.8058-2.3336 2.4437-.37306.24818-2.5612 1.3594-3.6724 1.9823z" style="clip-rule:evenodd;fill-rule:evenodd;fill:#926a41;stroke-linecap:round;stroke-linejoin:round;stroke-miterlimit:1.5;stroke-width:.26458"/>
  <path id="path950" d="m22.228-56.69c.35454-.0093-.28046-1.4965-.4101-1.8008-.55298-1.2901-1.9024-3.1652-3.4502-3.3372-.7964-.08864-1.6166-.01614-2.323.33761-.32279.16087-.52123.73951-.71438 1.0123-.20902.29872-.71967.53287-.8599.86228-.26988.62839-.56621 1.265-.8255 1.8748-.23019.53658-.67469 1.0406-.78846 1.6124-.06615.33893.65617.08308.86254.11245.40746.05794.72496.32888 1.0874.44979.26458.08837.66146-.02117.93662 0 1.2859.09895 2.4289.09181 3.6989-.36962.49742-.18124 2.7861-.75406 2.7861-.75406z" style="clip-rule:evenodd;fill-rule:evenodd;fill:#5a3614;stroke-linecap:round;stroke-linejoin:round;stroke-miterlimit:1.5;stroke-width:.26458"/>
  <path id="path1078" d="m27.003-55.585c.64029.04657 1.1774.56224 1.7886.0029.19315-.1778.21431-.45561.37835-.64135.11112-.12753.62177.28945.75671.30162.21167.01958.43392-.10001.64558-.10425.29898-.0058.55827.10054.84931.12435-.23019-.92578-1.5293-2.6826-1.9553-3.2388-1.9235-2.5165-6.948-6.2148-10.007-7.0895-2.1352-.60986-4.3445-.1307-6.2468.89826.67998-.009 1.3547.40746 2.0452.26882 5.1567-1.0319 9.1175 3.6401 10.483 6.6662.2196.48948.889 1.7849 1.2621 2.8117z" style="clip-rule:evenodd;fill-rule:evenodd;fill:#968069;stroke-linecap:round;stroke-linejoin:round;stroke-miterlimit:1.5;stroke-width:.26458"/>
  <path id="path1318" d="m26.45-58.109c.01852-.52917-.66675-1.0541-.99483-1.402-.93662-.99563-2.0452-1.8513-3.2359-2.5217-.42333-.23786-1.7515-1.3364-2.1828-1.5526" style="clip-rule:evenodd;fill:none;stroke-linecap:round;stroke-linejoin:round;stroke-miterlimit:1.5;stroke-width:.26458px;stroke:#5a3614"/>
  <path id="path1350" d="m15.682-61.102c-.13229.21855-1.0716 1.1568-1.2118 1.4862-.26988.62839-.56621 1.265-.8255 1.8748-.23019.53658-.67469 1.0406-.78846 1.6124-.06615.33893.65617.08308.86254.11245.40746.05794.72496.32888 1.0874.44979.26458.08837.66146-.02117.93662 0 1.2859.09895 2.4289.09181 3.6989-.36962.14552-.05292 1.016-.32438 1.3679-.42016-.33602-.77814-.44186-2.0397-.97367-2.6784-.70379-.84402-1.5425-1.4703-2.3627-2.1825-.26723-.23072-1.4711.26723-1.7912.11509z" style="clip-rule:evenodd;fill-rule:evenodd;fill:#352e26;stroke-linecap:round;stroke-linejoin:round;stroke-miterlimit:1.5;stroke-width:.26458"/>
 </g>
 <g id="g1784" class="csvg-group" transform="translate(251.68,105.07)">
  <g id="g1264" class="csvg-button" transform="translate(-251.99,-105.23)">
   <ellipse id="path990-9" cx="37.617" cy="40.587" rx="23.135" ry="12.869" style="-inkscape-stroke:none;fill-opacity:0;paint-order:stroke fill markers;stop-color:#000000;stroke-miterlimit:1.5;stroke-width:.061253"/>
  </g>
  <g id="g1323" class="csvg-button">
   <path id="path2210" d="m-196.28-68.785c.0478-.0108.0956-.0241.14311-.03906 1.1042-.34736 1.7184-1.5259 1.371-2.6301-.19157-.60871-.85111-1.4702-2.1242-2.106-2.4779-1.2371-8.1665-2.476-9.1384-2.6525-7.6081-1.3828-14.274.10076-21.888 2.3276-3.8372 1.1223-5.8926 3.2199-6.818 5.5373-1.0763 2.6947-.60375 5.8342.82733 8.5221 1.3828 2.5969 3.6404 4.7265 5.9452 5.6219 5.6429 2.1924 13.149 2.9746 19.438 2.2032 4.4562-.54659 8.3064-1.9053 10.642-3.945 3.8166-3.3338 4.3801-9.0778 1.6018-12.84zm-4.6064-1.8251c-2.3761-.75143-5.2575-1.3603-5.8921-1.4756-6.9421-1.2617-13.013.19487-19.961 2.2269-2.2367.654-3.5603 1.7158-4.1001 3.0668-.63279 1.5847-.20712 3.4144.63461 4.9949.88974 1.6709 2.2788 3.1073 3.7617 3.6836 5.0529 1.9632 11.777 2.6403 17.409 1.9495 3.4918-.42817 6.5631-1.3423 8.3929-2.9407 2.5279-2.208 2.6688-6.333-.0521-8.1876-.9565-.65192-1.2036-1.9576-.55186-2.9143.10424-.1529.22518-.28773.35891-.40345z" style="clip-rule:evenodd;fill-rule:evenodd;fill:#ffffff;stroke-linecap:round;stroke-linejoin:round;stroke-miterlimit:1.5;stroke-width:.21793"/>
   <path id="path2214" d="m-197.72-70.381c.21832.47014.75738.71673 1.2649.55698.55208-.17368.85933-.76286.68559-1.3151-.0869-.27589-.27844-.58149-.6145-.86673-.41789-.35442-1.1536-.73647-2.0682-1.0884-2.6564-1.0228-6.9497-1.9379-7.7672-2.0864-7.4416-1.3524-13.959.12444-21.406 2.3025-3.4367 1.0051-5.3096 2.8441-6.1386 4.9197-.96541 2.4172-.50454 5.2295.7791 7.6402 1.2596 2.3654 3.2999 4.3218 5.3992 5.1374 5.4955 2.135 12.806 2.891 18.931 2.1398 4.2151-.51688 7.8707-1.7646 10.08-3.694 4.0633-3.5492 4.0237-10.176-.34977-13.157-.47824-.32596-1.1312-.20235-1.4571.27589s-.20232 1.1312.27593 1.4572c3.2716 2.23 3.1909 7.1892.15134 9.844-1.9562 1.7085-5.2223 2.734-8.9552 3.1917-5.7963.71092-12.716.0077-17.916-2.0129-1.6885-.65607-3.2947-2.2657-4.3076-4.1683-.98896-1.8571-1.4265-4.0145-.68285-5.8766.63598-1.5922 2.1432-2.9135 4.7797-3.6844 7.1145-2.0806 13.334-3.544 20.443-2.252.7775.14127 4.8622 1.0074 7.3888 1.9801.6321.24327 1.3632.68121 1.4857.756z" style="clip-rule:evenodd;fill-rule:evenodd;fill:#00500a;stroke-linecap:round;stroke-linejoin:round;stroke-miterlimit:1.5;stroke-width:.21793"/>
   <ellipse id="path990-9-9" cx="-214.37" cy="-64.643" rx="23.135" ry="12.869" style="-inkscape-stroke:none;fill-opacity:0;paint-order:stroke fill markers;stop-color:#000000;stroke-miterlimit:1.5;stroke-width:.061253"/>
  </g>
 </g>
 <g id="g1764" class="csvg-group" transform="translate(251.68,105.07)">
  <g id="g2838" class="csvg-button" transform="translate(-251.61,-105.59)">
   <ellipse id="path990" cx="130.38" cy="12.539" rx="23.135" ry="12.869" style="-inkscape-stroke:none;fill-opacity:0;paint-order:stroke fill markers;stop-color:#000000;stroke-miterlimit:1.5;stroke-width:.061253"/>
  </g>
  <g id="g1365" class="csvg-button">
   <path id="path2134" d="m-102.99-97.185.10013-.02975c1.1014-.35573 1.7068-1.5391 1.3508-2.6404-.19295-.59713-.85682-1.4545-2.1391-2.0781-2.4751-1.2036-8.1574-2.4088-9.1281-2.5806-7.6003-1.3454-14.258.0996-21.865 2.2663-3.8431 1.0947-5.8981 3.1508-6.8251 5.4116-1.087 2.651-.61427 5.7404.83122 8.3845 1.3854 2.5338 3.6426 4.6135 5.9513 5.4873 5.6361 2.1327 13.133 2.8938 19.415 2.1433 4.4498-.53136 8.2957-1.8545 10.628-3.8383 3.8196-3.2495 4.4096-8.8305 1.681-12.526zm-4.7411-1.7873c-2.3606-.72016-5.1793-1.3001-5.8064-1.4112-6.9501-1.2303-13.028.18859-19.984 2.17-2.2312.63557-3.5551 1.6564-4.0932 2.9688-.62227 1.5174-.1966 3.2677.63073 4.7811.88745 1.6232 2.2765 3.0166 3.7553 3.5763 5.06 1.9148 11.793 2.5751 17.433 1.9015 3.4984-.41785 6.5741-1.3086 8.4073-2.8683 2.4902-2.1186 2.629-6.0771-.0517-7.8566-.96427-.64003-1.2276-1.9427-.58729-2.9071.0873-.13153.187-.2501.29673-.35451z" style="clip-rule:evenodd;fill-rule:evenodd;fill:#ffffff;stroke-linecap:round;stroke-linejoin:round;stroke-miterlimit:1.5;stroke-width:.21508"/>
   <path id="path2138" d="m-104.48-98.751c.22449.46277.76172.70154 1.2651.53885.55072-.17786.85339-.76953.67531-1.3203-.13991-.43323-.66937-1.0049-1.5998-1.4575-2.3995-1.1667-7.9112-2.3242-8.8524-2.4909-7.4375-1.3167-13.951.12181-21.394 2.2422-3.4396.97977-5.3124 2.7774-6.1422 4.8009-.97067 2.3675-.50979 5.1222.78115 7.4836 1.2608 2.3062 3.3011 4.2143 5.4024 5.0095 5.4918 2.0783 12.798 2.814 18.919 2.0828 4.2119-.50304 7.8652-1.7179 10.072-3.5957 4.082-3.4729 4.0436-9.9569-.35023-12.874-.48213-.31991-1.1334-.18839-1.4537.29381-.32005.4822-.18837 1.1336.29376 1.4537 3.2515 2.1584 3.1719 6.9589.15111 9.5288-1.9578 1.6657-5.2262 2.6645-8.9623 3.1109-5.8002.69284-12.724.0073-17.928-1.962-1.6864-.6382-3.2926-2.2032-4.3044-4.054-.98187-1.7958-1.4192-3.8812-.68079-5.6819.63507-1.5492 2.1425-2.8294 4.7761-3.5795 7.1184-2.0277 13.342-3.4531 20.454-2.1941.77796.1378 4.8648.98179 7.3927 1.9298.62936.23594 1.3566.65925 1.4846.73493z" style="clip-rule:evenodd;fill-rule:evenodd;fill:#00500a;stroke-linecap:round;stroke-linejoin:round;stroke-miterlimit:1.5;stroke-width:.21508"/>
   <ellipse id="path990-98" cx="-121.23" cy="-93.051" rx="23.135" ry="12.869" style="-inkscape-stroke:none;fill-opacity:0;paint-order:stroke fill markers;stop-color:#000000;stroke-miterlimit:1.5;stroke-width:.061253"/>
  </g>
 </g>
 <g id="g1719" class="csvg-group" transform="translate(251.68,105.07)">
  <g id="g3260" class="csvg-button">
   <ellipse id="path990-40" cx="16.59" cy="-59.204" rx="23.135" ry="12.869" style="-inkscape-stroke:none;fill-opacity:0;paint-order:stroke fill markers;stop-color:#000000;stroke-miterlimit:1.5;stroke-width:.061253"/>
  </g>
  <g id="g1419" class="csvg-button">
   <path id="path2280" d="m3.6683-49.836c7.3757 3.7185 17.383 5.8049 26.811.54326 4.5556-2.5424 6.4153-5.7896 6.7213-8.8127.47359-4.6771-2.8781-9.1239-7.1494-10.7-5.914-2.1818-13.781-2.9596-20.372-2.192-4.655.54202-8.6804 1.8884-11.12 3.9117-4.8392 4.0133-4.7453 11.505.46324 14.875.97174.62886 2.2714.35047 2.9003-.62117.62889-.97185.35056-2.2713-.62118-2.9004-2.844-1.8402-2.7067-5.9339-.064767-8.1251 1.9473-1.6148 5.2117-2.5412 8.9275-2.9739 5.9641-.6945 13.084-.01309 18.435 1.9609 2.5673.94713 4.7126 3.5305 4.428 6.3418-.19936 1.9697-1.6242 3.9161-4.5922 5.5722-8.0472 4.4909-16.584 2.5478-22.879-.62574-1.0336-.52104-2.2957-.10491-2.817.92864-.52102 1.0336-.10498 2.2958.92864 2.8169z" style="clip-rule:evenodd;fill-rule:evenodd;fill:#ffffff;stroke-linecap:round;stroke-linejoin:round;stroke-miterlimit:1.5;stroke-width:.22365"/>
   <path id="path2284" d="m4.1405-50.772c7.1053 3.5822 16.745 5.6327 25.828.56383 4.1583-2.3206 5.9097-5.243 6.1892-8.0025.4264-4.2107-2.6239-8.1918-6.4692-9.6103-5.7731-2.1298-13.453-2.8836-19.888-2.1342-4.4203.5146-8.2555 1.7561-10.572 3.6772-4.2895 3.5577-4.2537 10.2.3638 13.188.48587.31432 1.1355.17513 1.4499-.31079.31444-.48593.17528-1.1356-.31059-1.4501-3.4348-2.2227-3.3553-7.1661-.1642-9.8126 2.0704-1.717 5.5249-2.7485 9.4754-3.2085 6.1211-.71279 13.428-.0073 18.92 2.0187 2.9932 1.1042 5.4404 4.1537 5.1084 7.4314-.22608 2.2325-1.76 4.5048-5.1245 6.3823-8.3925 4.6835-17.297 2.7047-23.862-.60517-.51669-.26052-1.1477-.05235-1.4085.46432-.26051.51688-.052488 1.148.46444 1.4085z" style="clip-rule:evenodd;fill-rule:evenodd;fill:#00500a;stroke-linecap:round;stroke-linejoin:round;stroke-miterlimit:1.5;stroke-width:.22365"/>
   <ellipse id="path990-40-8" cx="16.59" cy="-59.204" rx="23.135" ry="12.869" style="-inkscape-stroke:none;fill-opacity:0;paint-order:stroke fill markers;stop-color:#000000;stroke-miterlimit:1.5;stroke-width:.061253"/>
  </g>
 </g>
 <g id="g1699" class="csvg-group" transform="translate(251.68,105.07)">
  <g id="g3365" class="csvg-button">
   <ellipse id="path990-7" cx="95.454" cy="-71.413" rx="23.135" ry="12.869" style="-inkscape-stroke:none;fill-opacity:0;paint-order:stroke fill markers;stop-color:#000000;stroke-miterlimit:1.5;stroke-width:.061253"/>
  </g>
  <g id="g1499" class="csvg-button">
   <path id="path2290" d="m74.246-74.268c-1.578 2.1976-2.0005 4.3075-1.6435 6.2208.49863 2.6744 2.6615 5.1169 6.1206 6.8647 7.3271 3.7017 20.751 4.4901 31.563-.39452 4.8936-2.2109 6.8248-5.4617 7.1058-8.5852.42328-4.7041-3.1415-9.4451-7.3752-11.007-5.914-2.1818-13.781-2.9596-20.372-2.192-4.655.54202-8.6804 1.8884-11.12 3.9117-.89108.73876-1.0144 2.0621-.27544 2.9532.73892.89104 2.0622 1.0144 2.953.27548 1.9473-1.6148 5.2117-2.5412 8.9275-2.9739 5.9641-.6945 13.084-.01309 18.435 1.9609 2.6046.96084 4.9098 3.8014 4.6492 6.6958-.1748 1.9431-1.6103 3.763-4.655 5.1385-9.5725 4.3247-21.457 3.7507-27.944.47325-2.0687-1.0452-3.5903-2.2904-3.8887-3.8899-.17432-.93529.15602-1.931.92744-3.0051.67512-.94027.45987-2.2518-.48033-2.927s-2.2517-.45996-2.927.48032z" style="clip-rule:evenodd;fill-rule:evenodd;fill:#ffffff;stroke-linecap:round;stroke-linejoin:round;stroke-miterlimit:1.5;stroke-width:.22365"/>
   <path id="path2294" d="m75.098-73.656c-1.3762 1.9167-1.7757 3.7482-1.4646 5.4169.44855 2.4051 2.4517 4.5493 5.5627 6.1211 7.1171 3.5957 20.156 4.3303 30.658-.41425 4.4309-2.0019 6.2386-4.8956 6.493-7.7235.38258-4.2516-2.8673-8.5177-6.6938-9.9292-5.7732-2.1298-13.453-2.8836-19.888-2.1342-4.4203.5146-8.2555 1.7561-10.572 3.6772-.44542.36938-.50706 1.0311-.13772 1.4767.36958.44542 1.0312.50712 1.4766.13774 2.0704-1.717 5.5249-2.7485 9.4754-3.2085 6.1211-.71279 13.428-.0073 18.92 2.0187 3.012 1.111 5.6321 4.4269 5.3308 7.7736-.20128 2.2379-1.7615 4.4161-5.2675 6.0002-9.8823 4.4647-22.152 3.8371-28.849.45352-2.4154-1.2203-4.0984-2.7662-4.4468-4.6334-.21982-1.1796.13363-2.4544 1.1066-3.8091.33756-.47014.22993-1.126-.24005-1.4636-.47022-.33759-1.1261-.22998-1.4636.24016z" style="clip-rule:evenodd;fill-rule:evenodd;fill:#00500a;stroke-linecap:round;stroke-linejoin:round;stroke-miterlimit:1.5;stroke-width:.22365"/>
   <ellipse id="path990-7-2" cx="95.454" cy="-71.413" rx="23.135" ry="12.869" style="-inkscape-stroke:none;fill-opacity:0;paint-order:stroke fill markers;stop-color:#000000;stroke-miterlimit:1.5;stroke-width:.061253"/>
  </g>
 </g>
 <g id="g1755" class="csvg-group" transform="translate(251.68,105.07)">
  <g id="g2945" class="csvg-button">
   <ellipse id="path990-4" cx="-121.34" cy="-34.785" rx="23.135" ry="12.869" style="-inkscape-stroke:none;fill-opacity:0;paint-order:stroke fill markers;stop-color:#000000;stroke-miterlimit:1.5;stroke-width:.061253"/>
  </g>
  <g id="g1407" class="csvg-button">
   <path id="path2180" d="m-138.06-40.055c-.65199-.33124-1.4587-.31141-2.1107.12141-1.4917.99029-2.2495 2.1769-2.5481 3.4069-.29239 1.205-.13465 2.5028.4323 3.8171.84973 1.9695 2.7124 4.0439 4.7473 5.775 2.3293 1.9816 6.0883 3.3365 10.432 3.9187 6.1539.82497 13.49.15358 19.14-1.9844 4.1069-1.5542 7.1582-5.6983 6.6664-10.265-.31114-2.8889-2.0346-6.0534-6.1292-8.7524-5.0778-3.347-16.752-3.961-23.959-1.4773-3.4154 1.1771-5.8258 3.1014-6.6701 5.4401zm.89683 2.861c-.15797.29543-.38932.55706-.68766.75516-.42063.27924-.70754.55464-.79166.90146-.0903.37151.0327.76083.20734 1.1659.63348 1.468 2.0972 2.9516 3.6141 4.242 1.8357 1.5619 4.8474 2.4972 8.271 2.9561 5.4966.73695 12.052.15945 17.098-1.7501 2.386-.90308 4.2663-3.2396 3.9805-5.8928-.20734-1.9249-1.5388-3.9009-4.2672-5.6993-3.6849-2.4288-11.491-2.9425-17.486-1.7544-1.9249.38163-3.6632.94193-4.9923 1.7189-.96015.56131-1.7107 1.1918-1.9361 2.0419-.29673 1.119-1.4459 1.7865-2.5648 1.4899-.15819-.04189-.30725-.10077-.44555-.17483z" style="clip-rule:evenodd;fill-rule:evenodd;fill:#ffffff;stroke-linecap:round;stroke-linejoin:round;stroke-miterlimit:1.5;stroke-width:.21508"/>
   <path id="path2184" d="m-135.17-38.778c.28919-1.0905 1.1885-1.9583 2.4205-2.6785 1.4167-.82821 3.2661-1.4355 5.3176-1.8422 6.2643-1.2418 14.416-.63112 18.266 1.9073 3.0697 2.0233 4.4994 4.2969 4.7329 6.4626.3372 3.1315-1.8359 5.9201-4.6522 6.9859-5.1969 1.9666-11.947 2.5676-17.608 1.8088-3.6536-.48988-6.8523-1.5302-8.8114-3.1969-1.6462-1.4004-3.2096-3.0318-3.8973-4.6253-.2725-.63193-.40418-1.2491-.26358-1.8286.13762-.56718.54294-1.0712 1.2308-1.5279.48213-.32011.61381-.97147.29353-1.4537-.32005-.48219-.97135-.61372-1.4535-.29361-1.2237.81222-1.8641 1.7716-2.1089 2.7805-.24187.99656-.0928 2.0676.37606 3.1544.79555 1.844 2.5586 3.7708 4.464 5.3918 2.2056 1.8766 5.778 3.1267 9.8916 3.6781 5.9895.80292 13.13.155 18.629-1.9259 3.6767-1.3915 6.4353-5.0838 5.995-9.172-.28507-2.6477-1.9109-5.5154-5.6638-7.9891-4.8821-3.2181-16.11-3.7495-23.04-1.3614-3.2465 1.1186-5.5428 2.9144-6.1457 5.1884-.14836.55949.1854 1.1342.74481 1.2825.55963.14832 1.1341-.18555 1.2825-.74504z" style="clip-rule:evenodd;fill-rule:evenodd;fill:#00500a;stroke-linecap:round;stroke-linejoin:round;stroke-miterlimit:1.5;stroke-width:.21508"/>
   <ellipse id="path990-4-9" cx="-121.34" cy="-34.785" rx="23.135" ry="12.869" style="-inkscape-stroke:none;fill-opacity:0;paint-order:stroke fill markers;stop-color:#000000;stroke-miterlimit:1.5;stroke-width:.061253"/>
  </g>
 </g>
 <g id="g1737" class="csvg-group" transform="translate(251.68,105.07)">
  <g id="g3155" class="csvg-button">
   <ellipse id="path990-5" cx="-55.675" cy="-11.027" rx="23.135" ry="12.869" style="-inkscape-stroke:none;fill-opacity:0;paint-order:stroke fill markers;stop-color:#000000;stroke-miterlimit:1.5;stroke-width:.061253"/>
  </g>
  <g id="g1415" class="csvg-button">
   <path id="path2240" d="m-42.287-19.847c-7.3757-3.7185-17.383-5.8049-26.811-.54326-4.5556 2.5424-6.4153 5.7896-6.7213 8.8127-.47359 4.6771 2.8781 9.1239 7.1494 10.7 5.914 2.1818 13.781 2.9596 20.372 2.192 4.655-.54202 8.6804-1.8884 11.12-3.9117 4.8392-4.0133 4.7453-11.505-.46324-14.875-.97174-.62886-2.2714-.35047-2.9003.62117-.62889.97185-.35056 2.2713.62118 2.9004 2.844 1.8402 2.7067 5.9339.06477 8.1251-1.9473 1.6148-5.2117 2.5412-8.9275 2.9739-5.9641.69451-13.084.013088-18.435-1.9609-2.5673-.94713-4.7126-3.5305-4.428-6.3418.19936-1.9697 1.6242-3.9161 4.5922-5.5722 8.0472-4.4909 16.584-2.5478 22.879.62574 1.0336.52104 2.2957.10491 2.817-.92864.52102-1.0336.10498-2.2958-.92864-2.8169z" style="clip-rule:evenodd;fill-rule:evenodd;fill:#ffffff;stroke-linecap:round;stroke-linejoin:round;stroke-miterlimit:1.5;stroke-width:.22365"/>
   <path id="path2244" d="m-42.759-18.91c-7.1053-3.5822-16.745-5.6327-25.828-.56383-4.1583 2.3206-5.9097 5.243-6.1892 8.0025-.4264 4.2107 2.6239 8.1918 6.4692 9.6103 5.7731 2.1298 13.453 2.8836 19.888 2.1342 4.4203-.51459 8.2555-1.7561 10.572-3.6772 4.2895-3.5577 4.2537-10.2-.3638-13.188-.48587-.31432-1.1355-.17513-1.4499.31079-.31444.48593-.17528 1.1356.31059 1.4501 3.4348 2.2227 3.3553 7.1661.1642 9.8126-2.0704 1.717-5.5249 2.7485-9.4754 3.2085-6.1211.71279-13.428.00727-18.92-2.0187-2.9932-1.1042-5.4404-4.1537-5.1084-7.4314.22608-2.2325 1.76-4.5048 5.1245-6.3823 8.3925-4.6835 17.297-2.7047 23.862.60517.51669.26052 1.1477.05235 1.4085-.46432.26051-.51688.05249-1.148-.46444-1.4085z" style="clip-rule:evenodd;fill-rule:evenodd;fill:#00500a;stroke-linecap:round;stroke-linejoin:round;stroke-miterlimit:1.5;stroke-width:.22365"/>
   <ellipse id="path990-5-2" cx="-55.675" cy="-11.027" rx="23.135" ry="12.869" style="-inkscape-stroke:none;fill-opacity:0;paint-order:stroke fill markers;stop-color:#000000;stroke-miterlimit:1.5;stroke-width:.061253"/>
  </g>
 </g>
 <g id="g1804" class="csvg-group" transform="translate(251.68,105.07)">
  <g id="g3050" class="csvg-button">
   <ellipse id="path990-90" cx="-137.51" cy="22.96" rx="23.135" ry="12.869" style="-inkscape-stroke:none;fill-opacity:0;paint-order:stroke fill markers;stop-color:#000000;stroke-miterlimit:1.5;stroke-width:.061253"/>
  </g>
  <g id="g1411" class="csvg-button">
   <path id="path2230" d="m-119.3 27.719c2.8428-3.7694 2.2558-9.5149-1.6646-12.852-2.3864-2.0312-6.3232-3.3838-10.878-3.9281-6.4384-.7693-14.122.0106-19.899 2.1976-2.3583.89291-4.6636 3.019-6.0787 5.6084-1.475 2.6995-1.9597 5.8531-.85023 8.5597.94618 2.3085 3.0455 4.4057 6.9681 5.5236 7.7977 2.2221 14.623 3.7052 22.414 2.3253.99474-.17617 6.8175-1.4108 9.3534-2.6446 1.2974-.63114 1.9717-1.496 2.1668-2.1006.3559-1.1015-.24962-2.2846-1.3511-2.6403-.0603-.01953-.12083-.03615-.18159-.04944zm-4.66 1.8259c-.13795-.11966-.26206-.2601-.36811-.41965-.64024-.96416-.37748-2.267.58676-2.9075 2.7815-1.8473 2.6424-5.9566.0582-8.156-1.8877-1.6067-5.0542-2.5269-8.6566-2.9575-5.7962-.69264-12.716-.0133-17.916 1.9555-1.529.57879-2.9657 2.0183-3.883 3.6969-.85749 1.5691-1.2948 3.3842-.6501 4.9573.55743 1.3599 1.9259 2.4219 4.2366 3.0805 7.1469 2.0368 13.392 3.4939 20.533 2.2291.65268-.11551 3.6156-.72567 6.059-1.4788z" style="clip-rule:evenodd;fill-rule:evenodd;fill:#ffffff;stroke-linecap:round;stroke-linejoin:round;stroke-miterlimit:1.5;stroke-width:.22077"/>
   <path id="path2234" d="m-120.71 29.311c-.12575.075-.88166.5173-1.5358.76286-2.5962.97372-6.7929 1.8409-7.5917 1.9823-7.3036 1.2934-13.694-.17015-21.004-2.253-2.7133-.77324-4.265-2.0945-4.9195-3.6913-.76084-1.8564-.31156-4.0067.70007-5.8579 1.0417-1.9063 2.6959-3.5176 4.432-4.1749 5.3442-2.0233 12.455-2.7277 18.412-2.016 3.8403.45892 7.1994 1.4875 9.2119 3.2002 3.1144 2.6507 3.1944 7.602-.15766 9.8282-.48212.32014-.6135.97164-.29326 1.4536.32001.48219.97152.61369 1.4536.29355 4.4939-2.9845 4.5317-9.619.3566-13.173-2.2619-1.925-6.006-3.1696-10.322-3.6855-6.2779-.75018-13.771.0046-19.403 2.1371-2.1509.81417-4.2392 2.7689-5.5297 5.1306-1.3206 2.4165-1.7934 5.2359-.80025 7.6589.84881 2.0713 2.766 3.91 6.2852 4.9129 7.6351 2.1758 14.315 3.6524 21.944 2.3014.96495-.17098 6.6172-1.3581 9.0775-2.5551.94571-.46016 1.4853-1.0392 1.6277-1.4798.17783-.55074-.12481-1.1424-.67568-1.3202-.50535-.16329-1.0452.07832-1.2678.54472z" style="clip-rule:evenodd;fill-rule:evenodd;fill:#00500a;stroke-linecap:round;stroke-linejoin:round;stroke-miterlimit:1.5;stroke-width:.22077"/>
   <ellipse id="path990-90-5" cx="-137.51" cy="22.96" rx="23.135" ry="12.869" style="-inkscape-stroke:none;fill-opacity:0;paint-order:stroke fill markers;stop-color:#000000;stroke-miterlimit:1.5;stroke-width:.061253"/>
  </g>
 </g>
 <g id="g1679" class="csvg-group" transform="translate(251.68,105.07)">
  <g id="g3470" class="csvg-button">
   <ellipse id="path990-53" cx="84.564" cy="17.681" rx="23.135" ry="12.869" style="-inkscape-stroke:none;fill-opacity:0;paint-order:stroke fill markers;stop-color:#000000;stroke-miterlimit:1.5;stroke-width:.061253"/>
  </g>
  <g id="g1579" class="csvg-button">
   <path id="path2310" d="m66.978 14.575c-1.2532 2.1251-1.6892 4.1357-1.5058 5.9385.22897 2.2524 1.4075 4.2593 3.4774 5.8533 5.0133 3.8612 16.106 5.2426 29.714 1.3007 3.9322-1.1391 6.0498-3.2374 7.0114-5.5382 1.1355-2.7165.66067-5.8693-.82752-8.5665-1.4232-2.5792-3.7536-4.698-6.1733-5.5907-5.9176-2.183-14.76-2.4489-22.133-1.245-5.1202.83598-9.5289 2.4147-11.929 4.4053-.89084.73896-1.0144 2.0623-.27544 2.9532.65682.79215 1.7754.97767 2.6412.48946zm3.2509-1.8781c.15048.06087.2959.14044.43338.23912.9402.67518 1.1554 1.9867.48009 2.927-1.3394 1.8654-1.8257 3.5432-1.3288 4.9976.51452 1.5062 1.9777 2.6411 4.0266 3.4896 5.1223 2.1211 13.618 2.1961 23.657-.71175 2.3429-.67851 3.7353-1.7559 4.3083-3.1266.65465-1.5664.22801-3.3672-.63009-4.9226-.92287-1.6728-2.3831-3.1029-3.9525-3.6817-5.3475-1.9728-13.342-2.1286-20.005-1.0408-2.6294.42942-5.0532 1.0371-6.9885 1.8303z" style="clip-rule:evenodd;fill-rule:evenodd;fill:#ffffff;stroke-linecap:round;stroke-linejoin:round;stroke-miterlimit:1.5;stroke-width:.22365"/>
   <path id="path2314" d="m68.587 14.028c-1.6507 2.2987-2.2664 4.4639-2.0716 6.3796.20104 1.978 1.2563 3.7285 3.0739 5.1285 4.8551 3.7393 15.603 4.9417 28.783 1.1241 3.5342-1.0236 5.471-2.8671 6.3353-4.9351 1.0153-2.429.55256-5.244-.77816-7.6556-1.298-2.3526-3.411-4.2994-5.6181-5.1135-5.7748-2.1305-14.405-2.369-21.601-1.1941-4.8994.80004-9.1319 2.273-11.429 4.1776-.44566.36959-.5073 1.0313-.13772 1.4767.36934.44562 1.031.50732 1.4766.13774 2.0896-1.733 5.9696-2.9941 10.428-3.722 6.8405-1.1171 15.047-.93362 20.537 1.0917 1.7819.65732 3.4598 2.2597 4.5079 4.1591 1.0153 1.8404 1.454 3.9799.67921 5.8334-.66982 1.603-2.2442 2.9361-4.9839 3.7297-7.4819 2.167-14.136 2.6864-19.255 1.9807-3.2737-.45123-5.9015-1.3946-7.6641-2.7521-1.3136-1.0119-2.1217-2.2495-2.2671-3.679-.15168-1.4921.40305-3.1536 1.6887-4.944.33756-.47014.22993-1.126-.24029-1.4636-.46998-.33759-1.1258-.22998-1.4634.24016z" style="clip-rule:evenodd;fill-rule:evenodd;fill:#00500a;stroke-linecap:round;stroke-linejoin:round;stroke-miterlimit:1.5;stroke-width:.22365"/>
   <ellipse id="path990-53-8" cx="84.564" cy="17.681" rx="23.135" ry="12.869" style="-inkscape-stroke:none;fill-opacity:0;paint-order:stroke fill markers;stop-color:#000000;stroke-miterlimit:1.5;stroke-width:.061253"/>
  </g>
 </g>
</svg>
