<?xml version="1.0" encoding="UTF-8" standalone="no"?>
<svg
   xmlns:dc="http://purl.org/dc/elements/1.1/"
   xmlns:cc="http://creativecommons.org/ns#"
   xmlns:rdf="http://www.w3.org/1999/02/22-rdf-syntax-ns#"
   xmlns:svg="http://www.w3.org/2000/svg"
   xmlns="http://www.w3.org/2000/svg"
   xmlns:sodipodi="http://sodipodi.sourceforge.net/DTD/sodipodi-0.dtd"
   xmlns:inkscape="http://www.inkscape.org/namespaces/inkscape"
   inkscape:version="1.0 (4035a4fb49, 2020-05-01)"
   sodipodi:docname="2022-PH-03-field09.svg"
   id="svg5450"
   version="1.1"
   viewBox="0 0 29.170293 25.04745"
   height="25.047449mm"
   width="29.170294mm">
  <defs
     id="defs5444" />
  <sodipodi:namedview
     showgrid="false"
     inkscape:document-rotation="0"
     inkscape:current-layer="layer1"
     inkscape:document-units="mm"
     inkscape:cy="560"
     inkscape:cx="400"
     inkscape:zoom="0.35"
     inkscape:pageshadow="2"
     inkscape:pageopacity="0.0"
     borderopacity="1.0"
     bordercolor="#666666"
     pagecolor="#ffffff"
     id="base" />
  <metadata
     id="metadata5447">
    <rdf:RDF>
      <cc:Work
         rdf:about="">
        <dc:format>image/svg+xml</dc:format>
        <dc:type
           rdf:resource="http://purl.org/dc/dcmitype/StillImage" />
        <dc:title></dc:title>
      </cc:Work>
    </rdf:RDF>
  </metadata>
  <g
     transform="translate(-90.156481,-135.90135)"
     id="layer1"
     inkscape:groupmode="layer"
     inkscape:label="Ebene 1">
    <g
       id="g1573"
       transform="matrix(0.26458333,0,0,0.26458333,-227.2274,-217.08187)"
       style="clip-rule:evenodd;fill-rule:evenodd;stroke-linecap:round;stroke-linejoin:round;stroke-miterlimit:1.5">
      <g
         id="g1553"
         transform="matrix(1.61161,0,0,1.66244,1106.66,-57.3183)" />
      <g
         id="g1571"
         transform="translate(454.687,1051.63)">
        <g
           id="g1557"
           transform="matrix(0.681759,-0.705242,0.759208,0.733928,-4.12977,-123.178)">
          <path
             id="path1555"
             style="fill:#895d3c"
             d="m 254.267,814.77 c 5.936,5.022 7.07,2.311 12.025,8.299 5.542,6.696 10.802,13.424 10.186,22.66 -0.207,3.109 -0.462,7.128 -2.481,9.653 -2.173,2.716 -5.968,3.697 -8.646,5.78 -2.321,1.806 -4.507,4.051 -7.07,5.511 -3.789,2.157 -8.601,2.601 -12.818,3.319 -5.748,0.978 -11.984,2.708 -17.854,2.174 -2.764,-0.251 -5.301,-1.152 -8.011,-1.716 -3.189,-0.665 -6.443,-0.724 -9.385,-2.289 -8.026,-4.271 -12.482,-15.87 -10.758,-24.492 0.714,-3.566 0.157,-10.291 1.15,-13.767 1.997,-6.989 6.121,-1.73 12.128,-6.45 3.607,-2.834 7.318,-10.911 11.443,-11.828 1.589,-0.353 3.905,7.322 5.45,6.807 1.975,-0.658 4.392,3.143 6.384,2.574 2.49,-0.711 2.982,-15.55 5.562,-16.019 2.13,-0.387 -1.436,14.126 0.556,14.68 1.877,0.521 8.154,-8.269 12.139,-4.896 z" />
        </g>
        <g
           id="g1561"
           transform="matrix(0.274425,-0.283877,0.396668,0.38346,478.22,94.0383)">
          <path
             id="path1559"
             style="fill:#ac7e5b"
             d="m 169.864,664.881 c 0.409,-0.183 0.833,-0.317 1.27,-0.396 2.13,-0.388 4.416,0.705 6.409,1.258 1.876,0.522 -1.125,-2.571 2.861,0.802 5.935,5.022 10.495,10.034 15.45,16.022 5.542,6.696 10.802,13.424 10.186,22.661 -0.207,3.108 -0.461,7.128 -2.481,9.652 -2.173,2.717 -5.968,3.697 -8.646,5.781 -2.321,1.805 -4.507,4.051 -7.07,5.51 -3.789,2.158 -10.007,-8.716 -7.817,-10.522 2.527,-2.083 6.106,-3.063 8.157,-5.78 1.905,-2.524 2.145,-6.544 2.34,-9.652 0.581,-9.237 -4.381,-15.965 -9.609,-22.661 -3.642,-4.665 -7.058,-8.738 -11.05,-12.675 z" />
        </g>
        <g
           id="g1565"
           transform="matrix(0.564723,-0.584175,0.759208,0.733928,19.1589,-148.397)">
          <path
             id="path1563"
             style="fill:#76553c"
             d="m 218.675,870.294 c -2.886,-0.534 -5.801,-0.718 -8.462,-2.133 -8.026,-4.271 -12.482,-15.87 -10.758,-24.492 0.714,-3.566 0.157,-10.291 1.15,-13.767 1.997,-6.989 6.755,-2.187 12.761,-6.907 3.607,-2.834 6.685,-10.454 10.81,-11.371 1.589,-0.353 4.812,5.262 6.358,4.747 1.975,-0.658 4.302,0.226 6.294,-0.343 2.49,-0.711 4.63,-3.079 7.21,-3.548 2.13,-0.387 4.416,0.705 6.409,1.259 1.876,0.521 -1.124,-2.571 2.861,0.801 l 3.738,3.347 c -2.168,0.827 -4.105,2.561 -6.297,3.152 -2.112,0.569 -4.579,-0.315 -6.672,0.343 -1.638,0.515 -2.44,2.394 -4.125,2.747 -4.372,0.917 -10.29,-7.123 -14.113,-4.289 -6.367,4.719 -11.222,8.084 -13.339,15.073 -1.053,3.476 -0.462,10.201 -1.219,13.767 -1.51,7.126 1.454,16.286 7.394,21.614 z" />
        </g>
        <g
           id="g1569"
           transform="matrix(0.681759,-0.705242,0.759208,0.733928,-3.38321,-121.209)">
          <path
             id="path1567"
             style="fill:#5d3d25"
             d="m 242.58,864.568 c -0.358,0.068 -0.696,0.21 -1.014,0.423 -0.206,0.138 -0.678,0.454 -0.979,1.1 -0.131,0.077 -0.257,0.167 -0.377,0.269 -9.69,8.238 -22.247,2.28 -29.672,-6.27 -4.827,-5.557 -7.745,-12.319 -5.683,-17.412 0.569,-1.404 -0.109,-3.005 -1.513,-3.573 -1.404,-0.568 -3.005,0.11 -3.573,1.514 -2.703,6.674 0.3,15.786 6.626,23.07 8.864,10.207 23.747,16.555 35.635,8.197 1.272,3.477 3.003,8.37 3.713,9.327 3.58,4.826 5.986,8.025 11.588,8.025 1.515,0 4.956,-1.485 4.956,-3 0,-1.514 -1.137,-6.618 -2.651,-6.618 -3.86,0 -7.019,1.648 -9.486,-1.676 -0.522,-0.705 -1.588,-3.87 -2.557,-6.681 0.372,0.032 0.761,0.05 1.166,0.051 3.792,0.013 9.279,-1.294 13.74,-3.333 3.237,-1.48 5.92,-3.383 7.298,-5.332 5.073,-7.175 8.949,-17.04 9.412,-23.331 0.277,-3.765 -0.792,-6.484 -2.551,-7.745 -1.231,-0.882 -2.947,-0.598 -3.829,0.633 -0.882,1.231 -0.598,2.947 0.633,3.829 0.059,0.042 0.053,0.132 0.083,0.214 0.091,0.25 0.145,0.538 0.181,0.856 0.129,1.157 -0.01,2.598 -0.327,4.211 -1.073,5.477 -4.212,12.69 -8.083,18.165 -0.79,1.118 -2.3,2.108 -4.065,3.01 -3.066,1.566 -6.923,2.736 -10.134,3.165 -1.142,0.153 -2.194,0.213 -3.08,0.142 -0.263,-0.021 -0.585,-0.089 -0.816,-0.144 -0.337,-1.135 -1.388,-1.963 -2.631,-1.963 -0.793,0 -1.509,0.337 -2.01,0.877 z m -1.365,-9.451 c -1.074,-0.666 -2.505,-0.517 -3.418,0.429 -5.836,6.053 -13.009,4.42 -16.931,1.234 -1.149,-0.934 -2.029,-1.977 -2.393,-3.005 -0.12,-0.34 -0.25,-0.675 -0.011,-0.913 1.072,-1.069 1.075,-2.808 0.006,-3.881 -1.07,-1.072 -2.808,-1.075 -3.881,-0.005 -2.402,2.395 -2.305,6.108 0.341,9.547 4.558,5.921 17.001,11.014 26.819,0.833 0.165,-0.171 0.303,-0.358 0.415,-0.555 0.073,0.045 0.149,0.087 0.228,0.126 1.423,0.703 3.937,0.85 6.665,0.371 3.521,-0.617 7.414,-2.134 9.143,-3.456 0.586,-0.448 3.25,-2.303 4.962,-3.779 1.16,-0.999 1.922,-1.996 2.15,-2.557 0.52,-1.281 0.178,-2.286 -0.394,-3.009 -0.407,-0.514 -1.29,-1.338 -3.117,-1.107 -1.322,0.167 -2.305,1.25 -2.393,2.531 -1.437,1.131 -4.064,3.197 -4.541,3.562 -1.269,0.97 -4.173,1.957 -6.757,2.41 -1.345,0.236 -2.588,0.46 -3.289,0.113 -1.312,-0.647 -2.893,-0.148 -3.604,1.111 z m -1.969,-7.514 c -0.629,-0.3 -1.371,-0.362 -2.08,-0.117 -3.182,1.103 -5.589,0.002 -8.126,-1.455 -2.216,-1.273 -4.498,-2.832 -7.169,-4.089 -1.305,-0.614 -4.348,-3.286 -5.489,-4.383 -0.216,-0.344 -0.513,-0.644 -0.882,-0.871 -1.662,-1.022 -2.841,-0.131 -3.102,0.052 -0.535,0.376 -0.913,0.891 -1.086,1.576 -0.093,0.367 -0.281,1.202 0.376,2.207 0.33,0.505 5.766,5.405 7.846,6.384 3.232,1.521 5.867,3.513 8.536,4.83 3.328,1.642 6.701,2.387 10.893,0.935 0.791,-0.275 1.377,-0.876 1.659,-1.601 0.368,0.176 0.781,0.273 1.216,0.267 3.23,-0.039 6.593,-1.755 9.881,-4.128 3.938,-2.843 7.789,-6.704 11.429,-7.917 1.871,-0.623 3.998,-0.873 5.524,-2.122 1.388,-1.136 1.61,-2.709 0.854,-4.266 -0.662,-1.365 -2.39,-2.451 -3.365,-2.56 -1.505,-0.168 -2.864,0.918 -3.032,2.423 -0.032,0.291 -0.018,0.577 0.038,0.85 -0.595,0.14 -1.189,0.281 -1.754,0.469 -3.458,1.153 -7.179,4.259 -10.905,7.163 -2.944,2.294 -5.832,4.565 -8.737,4.601 -1.153,0.014 -2.132,0.739 -2.525,1.752 z m 22.981,-18.872 c 1.352,-0.596 1.993,-2.166 1.432,-3.543 -0.571,-1.403 -2.173,-2.078 -3.576,-1.507 -0.725,0.295 -2.471,1.571 -4.535,3.361 -4.052,3.513 -9.816,9.044 -10.972,10.035 -1.15,0.985 -1.283,2.719 -0.298,3.869 0.986,1.15 2.72,1.283 3.869,0.297 1.159,-0.993 6.935,-6.535 10.996,-10.055 1.333,-1.156 3.011,-2.402 3.084,-2.457 z m -47.584,12.975 c -0.333,0.072 -0.681,0.083 -1.023,0.027 -0.342,-0.055 -0.68,-0.177 -0.994,-0.37 0.816,0.501 1.508,0.492 2.017,0.343 z m 18.493,-15.153 -0.066,-0.08 c -2.945,-3.576 -5.465,-7.095 -7.374,-11.348 -0.023,-0.316 0.583,-4.437 0.292,-5.509 -0.524,-1.934 -4.491,-3.173 -5.32,-2.838 -1.961,0.794 -3.177,2.754 -3.25,4.266 -0.029,0.608 3.018,5.76 3.215,6.203 2.122,4.768 4.909,8.718 8.201,12.715 1.124,1.365 2.154,2.621 3.324,3.827 -4.926,-0.869 -8.731,-2.925 -12.386,-7.336 -0.898,-1.084 -1.438,-2.991 -2.217,-4.52 -0.899,-1.761 -2.069,-3.135 -3.488,-3.775 -1.38,-0.622 -3.006,-0.007 -3.629,1.374 -0.622,1.38 -0.007,3.006 1.373,3.629 0.235,0.105 0.347,0.382 0.51,0.645 0.26,0.421 0.49,0.899 0.713,1.391 0.79,1.738 1.545,3.59 2.513,4.758 5.628,6.792 11.497,9.18 19.997,9.747 0.712,0.047 1.379,-0.182 1.896,-0.595 0.512,0.276 1.115,0.392 1.733,0.293 3.054,-0.49 5.846,-2.724 8.188,-5.773 2.855,-3.719 5.108,-8.632 6.832,-11.341 1.745,-2.742 3.098,-5.292 3.676,-6.949 0.463,-1.326 0.476,-2.374 0.33,-2.997 -0.23,-0.974 -0.777,-1.615 -1.475,-2.023 -0.696,-0.406 -2.076,-0.809 -4.002,0.327 -1.305,0.769 -1.739,2.453 -0.97,3.757 0.082,0.14 0.175,0.27 0.278,0.389 -0.611,1.276 -1.516,3.055 -2.467,4.55 -1.661,2.61 -3.803,7.361 -6.555,10.944 -0.791,1.031 -1.61,1.985 -2.501,2.673 l -0.019,-0.09 c 0.955,-5.018 1.763,-10.04 2.848,-15.03 0.159,-0.734 2.379,-8.154 3.89,-11.228 1.348,-0.533 2.058,-2.037 1.59,-3.427 -0.625,-1.854 -1.921,-2.182 -2.938,-2.157 -0.661,0.017 -1.905,0.367 -2.858,1.863 -1.698,2.668 -4.845,12.854 -5.047,13.783 -0.2,0.921 -0.391,1.843 -0.575,2.766 -1.398,-8.067 -2.331,-12.354 -4.745,-20.65 -0.658,-2.264 1.765,-4.67 1.147,-5.905 -0.677,-1.355 -4.343,-2.877 -6.94,-2.365 -1.06,0.209 -4.287,4.102 -3.61,5.456 0.65,1.299 3.899,3.227 4.584,5.689 2.75,9.884 3.96,17.448 4.913,23.161 0.045,0.275 0.19,0.91 0.389,1.73 z m 1.828,7.174 c -0.02,0.064 -0.038,0.131 -0.054,0.199 -0.017,0.07 -0.03,0.143 -0.041,0.218 h 0.002 c 0.021,-0.14 0.053,-0.278 0.095,-0.41 z" />
        </g>
      </g>
    </g>
  </g>
</svg>
