<?xml version="1.0" encoding="UTF-8" standalone="no"?>
<svg
   xmlns:dc="http://purl.org/dc/elements/1.1/"
   xmlns:cc="http://creativecommons.org/ns#"
   xmlns:rdf="http://www.w3.org/1999/02/22-rdf-syntax-ns#"
   xmlns:svg="http://www.w3.org/2000/svg"
   xmlns="http://www.w3.org/2000/svg"
   xmlns:sodipodi="http://sodipodi.sourceforge.net/DTD/sodipodi-0.dtd"
   xmlns:inkscape="http://www.inkscape.org/namespaces/inkscape"
   width="48.735756mm"
   height="3.4236317mm"
   viewBox="0 0 48.735756 3.4236317"
   version="1.1"
   id="svg1021"
   inkscape:version="1.0 (4035a4fb49, 2020-05-01)"
   sodipodi:docname="2021-DE-05-explanation-deu-nose08.svg">
  <defs
     id="defs1015" />
  <sodipodi:namedview
     id="base"
     pagecolor="#ffffff"
     bordercolor="#666666"
     borderopacity="1.0"
     inkscape:pageopacity="0.0"
     inkscape:pageshadow="2"
     inkscape:zoom="0.35"
     inkscape:cx="400"
     inkscape:cy="560"
     inkscape:document-units="mm"
     inkscape:current-layer="text1104-7-4"
     inkscape:document-rotation="0"
     showgrid="false"
     fit-margin-top="0"
     fit-margin-left="0"
     fit-margin-right="0"
     fit-margin-bottom="0" />
  <metadata
     id="metadata1018">
    <rdf:RDF>
      <cc:Work
         rdf:about="">
        <dc:format>image/svg+xml</dc:format>
        <dc:type
           rdf:resource="http://purl.org/dc/dcmitype/StillImage" />
        <dc:title />
      </cc:Work>
    </rdf:RDF>
  </metadata>
  <g
     inkscape:label="Ebene 1"
     inkscape:groupmode="layer"
     id="layer1"
     transform="translate(-35.794895,-29.541573)">
    <g
       transform="matrix(0.26458333,0,0,0.26458333,-70.942788,0.02643223)"
       id="g1363">
      <path
         sodipodi:nodetypes="ccccccccccccccccccccccccccc"
         id="rect948-51-5-1"
         style="font-variation-settings:normal;opacity:0.995;vector-effect:none;fill:#37c871;fill-opacity:1;stroke:none;stroke-width:0.95284401;stroke-linecap:butt;stroke-linejoin:miter;stroke-miterlimit:4;stroke-dasharray:none;stroke-dashoffset:0;stroke-opacity:1;stop-color:#000000;stop-opacity:1"
         d="m 409.88694,111.55329 -1.01798,1.01798 -4.43295,4.43297 -1.01799,1.01984 6.46892,6.46892 0.0465,-0.0465 h 7.52968 l 0.0465,0.0465 0.0465,-0.0465 h 155.92192 l 0.0465,0.0465 0.0465,-0.0465 h 7.52971 l 0.0465,0.0465 1.01798,-1.01798 4.43295,-4.43296 1.01798,-1.01798 -6.46891,-6.47079 -0.0465,0.0465 h -7.52971 l -0.0465,-0.0465 -0.0465,0.0465 H 417.55595 l -0.0465,-0.0465 -0.0465,0.0465 h -7.52971 z" />
      <g
         style="font-style:normal;font-variant:normal;font-weight:bold;font-stretch:normal;font-size:12px;line-height:1.25;font-family:Arial;-inkscape-font-specification:'Arial, Bold';font-variant-ligatures:normal;font-variant-caps:normal;font-variant-numeric:normal;font-feature-settings:normal;text-align:start;letter-spacing:0px;word-spacing:0px;writing-mode:lr-tb;text-anchor:start;fill:#000000;fill-opacity:1;stroke:none;stroke-width:0.999999"
         id="text1104-7-4"
         aria-label="Nasenlänge &lt; 0,8">
        <path
           id="path1099"
           style="font-style:normal;font-variant:normal;font-weight:bold;font-stretch:normal;font-size:12px;font-family:'Courier New';-inkscape-font-specification:'Courier New Bold';stroke-width:0.999999"
           d="m 447.7807,115.82295 v 3.63281 h 0.43359 q 0.4336,0 0.61524,0.16993 0.1875,0.16406 0.1875,0.43359 0,0.26367 -0.1875,0.43359 -0.18164,0.16407 -0.61524,0.16407 h -1.57617 q -0.43359,0 -0.62109,-0.16407 -0.18164,-0.16992 -0.18164,-0.43945 0,-0.25781 0.18164,-0.42773 0.18164,-0.16993 0.5625,-0.16993 v -4.69921 h -0.1875 q -0.43359,0 -0.62109,-0.16407 -0.18165,-0.16992 -0.18165,-0.43945 0,-0.26953 0.18165,-0.43359 0.1875,-0.16993 0.62109,-0.16993 l 1.38867,0.006 3.07031,4.81641 v -3.61523 h -0.43359 q -0.43359,0 -0.62109,-0.16407 -0.18164,-0.16992 -0.18164,-0.43945 0,-0.26953 0.18164,-0.43359 0.1875,-0.16993 0.62109,-0.16993 l 1.57617,0.006 q 0.4336,0 0.61524,0.16407 0.1875,0.16406 0.1875,0.43359 0,0.26367 -0.18164,0.43359 -0.18165,0.16993 -0.55665,0.16993 v 5.90039 h -1.18945 z" />
        <path
           id="path1101"
           style="font-style:normal;font-variant:normal;font-weight:bold;font-stretch:normal;font-size:12px;font-family:'Courier New';-inkscape-font-specification:'Courier New Bold';stroke-width:0.999999"
           d="m 457.56,120.65694 v -0.28125 q -0.45117,0.24023 -0.9961,0.35742 -0.54492,0.12305 -0.99023,0.12305 -0.9668,0 -1.57031,-0.50977 -0.60352,-0.51563 -0.60352,-1.13672 0,-0.75586 0.76758,-1.40039 0.77344,-0.65039 2.13281,-0.65039 0.54492,0 1.25977,0.11719 v -0.28711 q 0,-0.26953 -0.23438,-0.43946 -0.22851,-0.16992 -0.8789,-0.16992 -0.53321,0 -1.38282,0.21094 -0.3164,0.0762 -0.49218,0.0762 -0.24024,0 -0.41016,-0.16992 -0.16406,-0.17578 -0.16406,-0.44531 0,-0.15235 0.0586,-0.26367 0.0586,-0.11133 0.16406,-0.17579 0.10547,-0.0703 0.43946,-0.16406 0.44531,-0.12304 0.9082,-0.19336 0.46289,-0.0762 0.83789,-0.0762 1.11914,0 1.73438,0.48633 0.62109,0.48047 0.62109,1.31836 v 2.47265 h 0.20508 q 0.43359,0 0.61523,0.16993 0.1875,0.16406 0.1875,0.43359 0,0.26367 -0.1875,0.43359 -0.18164,0.16407 -0.61523,0.16407 z m 0,-2.15039 q -0.72071,-0.14063 -1.33008,-0.14063 -0.73242,0 -1.25977,0.35742 -0.32812,0.22852 -0.32812,0.46289 0,0.16993 0.1582,0.27539 0.29297,0.19336 0.80274,0.19336 0.43359,0 0.97851,-0.16992 0.55078,-0.16992 0.97852,-0.46289 z" />
        <path
           id="path1103"
           style="font-style:normal;font-variant:normal;font-weight:bold;font-stretch:normal;font-size:12px;font-family:'Courier New';-inkscape-font-specification:'Courier New Bold';stroke-width:0.999999"
           d="m 464.97211,116.74287 q -0.29297,-0.18164 -0.61524,-0.26953 -0.32226,-0.0937 -0.67383,-0.0937 -0.69726,0 -1.10742,0.22852 -0.18164,0.0996 -0.18164,0.2168 0,0.13476 0.2461,0.26367 0.1875,0.0937 0.83789,0.18164 1.19531,0.16406 1.66406,0.32812 0.61523,0.2168 0.94922,0.64453 0.33398,0.42774 0.33398,0.90235 0,0.64453 -0.56836,1.07812 -0.81445,0.62696 -2.11523,0.62696 -0.52149,0 -0.9668,-0.0937 -0.43945,-0.0879 -0.80859,-0.26368 -0.0879,0.0762 -0.1875,0.11719 -0.0996,0.041 -0.20508,0.041 -0.28125,0 -0.45117,-0.18164 -0.16406,-0.1875 -0.16406,-0.6211 v -0.40429 q 0,-0.4336 0.16406,-0.61524 0.16992,-0.1875 0.43945,-0.1875 0.2168,0 0.36328,0.12305 0.14649,0.11719 0.22852,0.41015 0.27539,0.23438 0.66211,0.35743 0.38672,0.11718 0.89062,0.11718 0.82617,0 1.28321,-0.25781 0.21679,-0.1289 0.21679,-0.26953 0,-0.23437 -0.31054,-0.38672 -0.31055,-0.15234 -1.28321,-0.25781 -1.44726,-0.15234 -1.93359,-0.58594 -0.48633,-0.42773 -0.48633,-1.05469 0,-0.64453 0.54492,-1.07226 0.73828,-0.58594 1.9336,-0.58594 0.41601,0 0.79687,0.082 0.38672,0.0762 0.73828,0.24024 0.11133,-0.082 0.20508,-0.12305 0.0996,-0.041 0.18164,-0.041 0.24609,0 0.41016,0.1875 0.16406,0.18164 0.16406,0.61524 v 0.29297 q 0,0.39258 -0.0937,0.5332 -0.1875,0.26953 -0.50977,0.26953 -0.21679,0 -0.38086,-0.13476 -0.16406,-0.13477 -0.21093,-0.35743 z" />
        <path
           id="path1105"
           style="font-style:normal;font-variant:normal;font-weight:bold;font-stretch:normal;font-size:12px;font-family:'Courier New';-inkscape-font-specification:'Courier New Bold';stroke-width:0.999999"
           d="m 473.88422,118.60616 h -4.92774 q 0.1875,0.46875 0.66211,0.75585 0.48047,0.28711 1.29492,0.28711 0.66797,0 1.77539,-0.28711 0.45704,-0.11718 0.63282,-0.11718 0.24023,0 0.40429,0.16992 0.16407,0.16992 0.16407,0.42773 0,0.23438 -0.17579,0.39844 -0.23437,0.2168 -1.14257,0.41602 -0.90821,0.19336 -1.7461,0.19336 -1.4414,0 -2.30859,-0.81446 -0.86133,-0.81445 -0.86133,-2.0039 0,-1.26563 0.93164,-2.05664 0.9375,-0.79688 2.15625,-0.79688 0.73242,0 1.3418,0.25781 0.61523,0.25782 0.91406,0.55664 0.42188,0.4336 0.69727,1.07227 0.1875,0.44531 0.1875,1.03125 z m -1.33008,-1.20118 q -0.27539,-0.51562 -0.7207,-0.76757 -0.44532,-0.25782 -1.06055,-0.25782 -0.60938,0 -1.05469,0.25782 -0.44531,0.25195 -0.72656,0.76757 z" />
        <path
           id="path1107"
           style="font-style:normal;font-variant:normal;font-weight:bold;font-stretch:normal;font-size:12px;font-family:'Courier New';-inkscape-font-specification:'Courier New Bold';stroke-width:0.999999"
           d="m 476.84906,115.33662 v 0.4043 q 0.32813,-0.28125 0.7207,-0.42187 0.39844,-0.14063 0.86133,-0.14063 1.06641,0 1.6875,0.66211 0.49219,0.52734 0.49219,1.38281 v 2.23242 q 0.38086,0 0.5625,0.16993 0.18164,0.16406 0.18164,0.43359 0,0.26367 -0.1875,0.43359 -0.18164,0.16407 -0.61523,0.16407 h -1.08399 q -0.43359,0 -0.62109,-0.16407 -0.18164,-0.16992 -0.18164,-0.43945 0,-0.26367 0.18164,-0.42773 0.18164,-0.16993 0.5625,-0.16993 v -2.26757 q 0,-0.39258 -0.21094,-0.57422 -0.27539,-0.23438 -0.82617,-0.23438 -0.41602,0 -0.73242,0.16407 -0.31055,0.1582 -0.79102,0.67968 v 2.23242 q 0.46289,0 0.59766,0.0879 0.28711,0.17578 0.28711,0.51562 0,0.26367 -0.1875,0.43359 -0.18164,0.16407 -0.61524,0.16407 h -1.36523 q -0.4336,0 -0.6211,-0.16407 -0.18164,-0.16992 -0.18164,-0.43945 0,-0.32812 0.28125,-0.50976 0.14063,-0.0879 0.60352,-0.0879 v -2.91796 q -0.38086,0 -0.5625,-0.16993 -0.18164,-0.16992 -0.18164,-0.43359 0,-0.26367 0.18164,-0.42773 0.1875,-0.16993 0.62109,-0.16993 z" />
        <path
           id="path1109"
           style="font-style:normal;font-variant:normal;font-weight:bold;font-stretch:normal;font-size:12px;font-family:'Courier New';-inkscape-font-specification:'Courier New Bold';stroke-width:0.999999"
           d="m 485.86078,113.05733 v 6.39843 h 1.44141 q 0.43359,0 0.61523,0.16993 0.1875,0.16406 0.1875,0.43359 0,0.26367 -0.1875,0.43359 -0.18164,0.16407 -0.61523,0.16407 h -4.08399 q -0.43359,0 -0.62109,-0.16407 -0.18164,-0.16992 -0.18164,-0.43945 0,-0.26367 0.18164,-0.42773 0.1875,-0.16993 0.62109,-0.16993 h 1.44141 v -5.19726 h -0.9668 q -0.42773,0 -0.61523,-0.16406 -0.1875,-0.16993 -0.1875,-0.43946 0,-0.26367 0.18164,-0.42773 0.1875,-0.16992 0.62109,-0.16992 z" />
        <path
           id="path1111"
           style="font-style:normal;font-variant:normal;font-weight:bold;font-stretch:normal;font-size:12px;font-family:'Courier New';-inkscape-font-specification:'Courier New Bold';stroke-width:0.999999"
           d="m 493.53656,120.65694 v -0.28125 q -0.45117,0.24023 -0.99609,0.35742 -0.54493,0.12305 -0.99024,0.12305 -0.96679,0 -1.57031,-0.50977 -0.60352,-0.51563 -0.60352,-1.13672 0,-0.75586 0.76758,-1.40039 0.77344,-0.65039 2.13281,-0.65039 0.54493,0 1.25977,0.11719 v -0.28711 q 0,-0.26953 -0.23437,-0.43946 -0.22852,-0.16992 -0.87891,-0.16992 -0.5332,0 -1.38281,0.21094 -0.31641,0.0762 -0.49219,0.0762 -0.24024,0 -0.41016,-0.16992 -0.16406,-0.17578 -0.16406,-0.44531 0,-0.15235 0.0586,-0.26367 0.0586,-0.11133 0.16407,-0.17579 0.10547,-0.0703 0.43945,-0.16406 0.44531,-0.12304 0.9082,-0.19336 0.46289,-0.0762 0.83789,-0.0762 1.11914,0 1.73438,0.48633 0.62109,0.48047 0.62109,1.31836 v 2.47265 h 0.20508 q 0.43359,0 0.61523,0.16993 0.1875,0.16406 0.1875,0.43359 0,0.26367 -0.1875,0.43359 -0.18164,0.16407 -0.61523,0.16407 z m 0,-2.15039 q -0.7207,-0.14063 -1.33008,-0.14063 -0.73242,0 -1.25976,0.35742 -0.32813,0.22852 -0.32813,0.46289 0,0.16993 0.1582,0.27539 0.29297,0.19336 0.80274,0.19336 0.43359,0 0.97851,-0.16992 0.55079,-0.16992 0.97852,-0.46289 z m -1.69922,-4.7461 q 0,0.26953 -0.1875,0.45703 -0.18164,0.18164 -0.44531,0.18164 -0.26367,0 -0.45117,-0.1875 -0.1875,-0.1875 -0.1875,-0.45117 0,-0.26367 0.1875,-0.44531 0.1875,-0.1875 0.45117,-0.1875 0.26367,0 0.44531,0.1875 0.1875,0.18164 0.1875,0.44531 z m 2.50781,0 q 0,0.26953 -0.1875,0.45703 -0.1875,0.18164 -0.45117,0.18164 -0.26367,0 -0.45117,-0.1875 -0.18164,-0.1875 -0.18164,-0.45117 0,-0.26367 0.18164,-0.44531 0.1875,-0.1875 0.45117,-0.1875 0.26367,0 0.45117,0.1875 0.1875,0.18164 0.1875,0.44531 z" />
        <path
           id="path1113"
           style="font-style:normal;font-variant:normal;font-weight:bold;font-stretch:normal;font-size:12px;font-family:'Courier New';-inkscape-font-specification:'Courier New Bold';stroke-width:0.999999"
           d="m 498.435,115.33662 v 0.4043 q 0.32812,-0.28125 0.7207,-0.42187 0.39844,-0.14063 0.86133,-0.14063 1.06641,0 1.6875,0.66211 0.49219,0.52734 0.49219,1.38281 v 2.23242 q 0.38086,0 0.5625,0.16993 0.18164,0.16406 0.18164,0.43359 0,0.26367 -0.1875,0.43359 -0.18164,0.16407 -0.61524,0.16407 h -1.08398 q -0.4336,0 -0.6211,-0.16407 -0.18164,-0.16992 -0.18164,-0.43945 0,-0.26367 0.18164,-0.42773 0.18165,-0.16993 0.5625,-0.16993 v -2.26757 q 0,-0.39258 -0.21093,-0.57422 -0.27539,-0.23438 -0.82617,-0.23438 -0.41602,0 -0.73243,0.16407 -0.31054,0.1582 -0.79101,0.67968 v 2.23242 q 0.46289,0 0.59765,0.0879 0.28711,0.17578 0.28711,0.51562 0,0.26367 -0.1875,0.43359 -0.18164,0.16407 -0.61523,0.16407 h -1.36524 q -0.43359,0 -0.62109,-0.16407 -0.18164,-0.16992 -0.18164,-0.43945 0,-0.32812 0.28125,-0.50976 0.14063,-0.0879 0.60352,-0.0879 v -2.91796 q -0.38086,0 -0.5625,-0.16993 -0.18164,-0.16992 -0.18164,-0.43359 0,-0.26367 0.18164,-0.42773 0.1875,-0.16993 0.62109,-0.16993 z" />
        <path
           id="path1115"
           style="font-style:normal;font-variant:normal;font-weight:bold;font-stretch:normal;font-size:12px;font-family:'Courier New';-inkscape-font-specification:'Courier New Bold';stroke-width:0.999999"
           d="m 508.16742,115.69405 v -0.35743 h 1.40625 q 0.43359,0 0.61523,0.16993 0.1875,0.16406 0.1875,0.43359 0,0.26367 -0.1875,0.43359 -0.18164,0.16407 -0.61523,0.16407 h -0.20508 v 4.37109 q 0,0.63281 -0.26953,1.10156 -0.26367,0.47461 -0.81445,0.81446 -0.55078,0.33984 -1.24219,0.33984 h -1.35938 q -0.43359,0 -0.62109,-0.16992 -0.18164,-0.16407 -0.18164,-0.42774 0,-0.26953 0.18164,-0.43945 0.1875,-0.16406 0.62109,-0.16406 h 1.32422 q 0.55078,0 0.85547,-0.29883 0.30469,-0.29883 0.30469,-0.75586 v -0.58594 q -0.39844,0.25781 -0.81445,0.38672 -0.41016,0.12891 -0.84375,0.12891 -1.22461,0 -2.05078,-0.81446 -0.82618,-0.82031 -0.82618,-2.02148 0,-1.20703 0.82618,-2.02148 0.82617,-0.82032 2.05078,-0.82032 0.45703,0 0.86718,0.13477 0.41602,0.1289 0.79102,0.39844 z m -0.006,2.30273 q 0,-0.66211 -0.49219,-1.14844 -0.48633,-0.48633 -1.17187,-0.48633 -0.68555,0 -1.17774,0.48633 -0.48632,0.48633 -0.48632,1.14844 0,0.66797 0.48632,1.1543 0.49219,0.48047 1.17774,0.48047 0.68554,0 1.17187,-0.48047 0.49219,-0.48633 0.49219,-1.1543 z" />
        <path
           id="path1117"
           style="font-style:normal;font-variant:normal;font-weight:bold;font-stretch:normal;font-size:12px;font-family:'Courier New';-inkscape-font-specification:'Courier New Bold';stroke-width:0.999999"
           d="m 517.05609,118.60616 h -4.92773 q 0.1875,0.46875 0.66211,0.75585 0.48047,0.28711 1.29492,0.28711 0.66797,0 1.77539,-0.28711 0.45703,-0.11718 0.63281,-0.11718 0.24024,0 0.4043,0.16992 0.16406,0.16992 0.16406,0.42773 0,0.23438 -0.17578,0.39844 -0.23438,0.2168 -1.14258,0.41602 -0.9082,0.19336 -1.74609,0.19336 -1.44141,0 -2.3086,-0.81446 -0.86132,-0.81445 -0.86132,-2.0039 0,-1.26563 0.93164,-2.05664 0.9375,-0.79688 2.15625,-0.79688 0.73242,0 1.34179,0.25781 0.61524,0.25782 0.91407,0.55664 0.42187,0.4336 0.69726,1.07227 0.1875,0.44531 0.1875,1.03125 z m -1.33008,-1.20118 q -0.27539,-0.51562 -0.7207,-0.76757 -0.44531,-0.25782 -1.06055,-0.25782 -0.60937,0 -1.05468,0.25782 -0.44532,0.25195 -0.72657,0.76757 z" />
        <path
           id="path1119"
           style="font-style:normal;font-variant:normal;font-weight:bold;font-stretch:normal;font-size:12px;font-family:'Courier New';-inkscape-font-specification:'Courier New Bold';stroke-width:0.999999"
           d="m 527.17523,117.23506 3.89063,2.15625 q 0.29297,0.16406 0.38672,0.29297 0.0996,0.12891 0.0996,0.32813 0,0.25195 -0.18165,0.43945 -0.18164,0.18164 -0.42187,0.18164 -0.1582,0 -0.47461,-0.17578 l -5.79492,-3.22266 5.79492,-3.22265 q 0.31641,-0.16993 0.46875,-0.16993 0.24609,0 0.42773,0.18164 0.18165,0.18164 0.18165,0.4336 0,0.19922 -0.0996,0.32812 -0.0937,0.12891 -0.38672,0.29297 z" />
        <path
           id="path1121"
           style="font-style:normal;font-variant:normal;font-weight:bold;font-stretch:normal;font-size:12px;font-family:'Courier New';-inkscape-font-specification:'Courier New Bold';stroke-width:0.999999"
           d="m 545.44476,116.19795 v 1.31836 q 0,1.17188 -0.67968,2.24414 -0.67383,1.07227 -1.9336,1.07227 -0.72656,0 -1.23047,-0.31641 -0.49804,-0.32226 -0.94922,-1.17773 -0.44531,-0.86133 -0.44531,-1.82227 v -1.31836 q 0,-1.16601 0.67383,-2.23828 0.67383,-1.07812 1.93359,-1.07812 0.72071,0 1.21875,0.3164 0.50391,0.31641 0.95508,1.17774 0.45703,0.85547 0.45703,1.82226 z m -1.20703,0 q 0,-0.97851 -0.54492,-1.71094 -0.31055,-0.40429 -0.87305,-0.40429 -0.54492,0 -0.89062,0.44531 -0.52149,0.67383 -0.52149,1.66992 v 1.31836 q 0,0.98438 0.55079,1.71094 0.30468,0.4043 0.87304,0.4043 0.53906,0 0.88477,-0.44532 0.52148,-0.67382 0.52148,-1.66992 z" />
        <path
           id="path1123"
           style="font-style:normal;font-variant:normal;font-weight:bold;font-stretch:normal;font-size:12px;font-family:'Courier New';-inkscape-font-specification:'Courier New Bold';stroke-width:0.999999"
           d="m 549.73383,119.03975 h 1.60546 l -1.72851,3.25781 q -0.15234,0.28711 -0.38086,0.28711 -0.15234,0 -0.26367,-0.0996 -0.10547,-0.0996 -0.10547,-0.22265 0,-0.0879 0.041,-0.24024 z" />
        <path
           id="path1125"
           style="font-style:normal;font-variant:normal;font-weight:bold;font-stretch:normal;font-size:12px;font-family:'Courier New';-inkscape-font-specification:'Courier New Bold';stroke-width:0.999999"
           d="m 558.91547,116.81905 q 0.46289,0.35742 0.6914,0.81445 0.23438,0.45117 0.23438,0.99609 0,0.60352 -0.29883,1.11328 -0.29297,0.50391 -0.92578,0.79688 -0.63281,0.29297 -1.40625,0.29297 -0.77344,0 -1.39453,-0.29297 -0.6211,-0.29297 -0.91992,-0.80274 -0.29297,-0.50976 -0.29297,-1.10742 0,-0.54492 0.22851,-0.99609 0.23438,-0.45703 0.69727,-0.81445 -0.4043,-0.375 -0.60938,-0.79688 -0.20508,-0.42187 -0.20508,-0.89062 0,-0.91993 0.70313,-1.58204 0.70312,-0.66796 1.80469,-0.66796 1.10156,0 1.80468,0.66796 0.70313,0.66211 0.70313,1.58204 0,0.47461 -0.20508,0.89648 -0.19922,0.42188 -0.60937,0.79102 z m -0.41602,-1.66407 q 0,-0.44531 -0.35156,-0.75586 -0.3457,-0.3164 -0.9375,-0.3164 -0.59766,0 -0.94922,0.3164 -0.3457,0.31055 -0.3457,0.75586 0,0.45118 0.3457,0.76758 0.35156,0.31055 0.94922,0.31055 0.5918,0 0.9375,-0.31055 0.35156,-0.3164 0.35156,-0.76758 z m 0.14063,3.53321 q 0,-0.47461 -0.41016,-0.85547 -0.4043,-0.38672 -1.00781,-0.38672 -0.60352,0 -1.01367,0.38672 -0.4043,0.38086 -0.4043,0.86719 0,0.375 0.35156,0.65625 0.35156,0.27539 1.06641,0.27539 0.7207,0 1.0664,-0.27539 0.35157,-0.28125 0.35157,-0.66797 z" />
      </g>
    </g>
  </g>
</svg>
