<?xml version="1.0" encoding="UTF-8" standalone="no"?>
<svg
   xmlns:dc="http://purl.org/dc/elements/1.1/"
   xmlns:cc="http://creativecommons.org/ns#"
   xmlns:rdf="http://www.w3.org/1999/02/22-rdf-syntax-ns#"
   xmlns:svg="http://www.w3.org/2000/svg"
   xmlns="http://www.w3.org/2000/svg"
   xmlns:sodipodi="http://sodipodi.sourceforge.net/DTD/sodipodi-0.dtd"
   xmlns:inkscape="http://www.inkscape.org/namespaces/inkscape"
   sodipodi:docname="2018-LT-04_beaver2.svg"
   inkscape:version="1.0 (4035a4fb49, 2020-05-01)"
   id="svg1732"
   version="1.1"
   viewBox="0 0 22.361814 13.904113"
   height="13.904113mm"
   width="22.361814mm">
  <defs
     id="defs1726">
    <clipPath
       id="id0">
      <path
         d="m 657,329 c 10,-6 18,-2 14,3 26,-12 69,53 23,86 -27,18 -55,8 -62,-24 0,4 -13,5 -12,-10 -23,-18 6,-67 37,-55 z"
         id="path9032"
         inkscape:connector-curvature="0" />
    </clipPath>
  </defs>
  <sodipodi:namedview
     inkscape:window-maximized="1"
     inkscape:window-y="222"
     inkscape:window-x="-8"
     inkscape:window-height="987"
     inkscape:window-width="1680"
     fit-margin-bottom="0"
     fit-margin-right="0"
     fit-margin-left="0"
     fit-margin-top="0"
     showgrid="false"
     inkscape:document-rotation="0"
     inkscape:current-layer="layer1"
     inkscape:document-units="mm"
     inkscape:cy="44.749651"
     inkscape:cx="44.175743"
     inkscape:zoom="2.8"
     inkscape:pageshadow="2"
     inkscape:pageopacity="0.0"
     borderopacity="1.0"
     bordercolor="#666666"
     pagecolor="#ffffff"
     id="base" />
  <metadata
     id="metadata1729">
    <rdf:RDF>
      <cc:Work
         rdf:about="">
        <dc:format>image/svg+xml</dc:format>
        <dc:type
           rdf:resource="http://purl.org/dc/dcmitype/StillImage" />
        <dc:title></dc:title>
      </cc:Work>
    </rdf:RDF>
  </metadata>
  <g
     transform="translate(-67.43814,-104.17294)"
     id="layer1"
     inkscape:groupmode="layer"
     inkscape:label="Ebene 1">
    <g
       id="g2046"
       transform="matrix(0.38806813,0,0,0.38806813,50.239244,116.6333)">
      <g
         id="g9207"
         style="clip-rule:evenodd;fill-rule:evenodd;image-rendering:optimizeQuality;shape-rendering:geometricPrecision;text-rendering:geometricPrecision"
         transform="matrix(0.26458333,0,0,0.26458333,-116.38858,-115.34284)">
        <path
           style="fill:#96604d;stroke:#2e2e2d;stroke-width:2.95333;stroke-linecap:round;stroke-linejoin:round"
           inkscape:connector-curvature="0"
           id="path9209"
           d="m 692,346 c -9,-35 18,-37 16,-18 -3,19 0,11 5,28 2,7 -6,13 -12,7 -4,-3 -10,-8 -9,-15 0,-1 0,-1 0,-2 z" />
        <path
           style="fill:none;stroke:#2e2e2d;stroke-width:1.772;stroke-linecap:round;stroke-linejoin:round"
           inkscape:connector-curvature="0"
           id="path9211"
           d="m 696,318 c -1,4 -2,5 -2,9" />
        <path
           style="fill:none;stroke:#2e2e2d;stroke-width:1.772;stroke-linecap:round;stroke-linejoin:round"
           inkscape:connector-curvature="0"
           id="path9213"
           d="m 701,317 c -1,4 -3,3 -3,9" />
        <path
           style="fill:none;stroke:#2e2e2d;stroke-width:1.772;stroke-linecap:round;stroke-linejoin:round"
           inkscape:connector-curvature="0"
           id="path9215"
           d="m 706,319 c -2,3 -3,4 -3,8" />
      </g>
      <g
         id="g9217"
         style="clip-rule:evenodd;fill-rule:evenodd;image-rendering:optimizeQuality;shape-rendering:geometricPrecision;text-rendering:geometricPrecision"
         transform="matrix(0.26458333,0,0,0.26458333,-116.38858,-115.34284)">
        <path
           style="fill:#96604d;stroke:#2e2e2d;stroke-width:2.95333;stroke-linecap:round;stroke-linejoin:round"
           inkscape:connector-curvature="0"
           id="path9219"
           d="m 652,409 c -8,3 -33,-1 -28,13 1,1 26,7 29,7 24,3 34,-26 1,-19 -2,0 -2,-1 -2,-1 z" />
        <path
           style="fill:none;stroke:#2e2e2d;stroke-width:1.772;stroke-linecap:round;stroke-linejoin:round"
           inkscape:connector-curvature="0"
           id="path9221"
           d="m 626,415 c 7,-3 9,2 9,0" />
        <path
           style="fill:none;stroke:#2e2e2d;stroke-width:1.772;stroke-linecap:round;stroke-linejoin:round"
           inkscape:connector-curvature="0"
           id="path9223"
           d="m 624,418 c 3,0 6,1 8,1" />
        <path
           style="fill:none;stroke:#2e2e2d;stroke-width:1.772;stroke-linecap:round;stroke-linejoin:round"
           inkscape:connector-curvature="0"
           id="path9225"
           d="m 629,423 c 2,0 5,1 6,0" />
      </g>
      <path
         style="clip-rule:evenodd;fill:#b67040;fill-rule:evenodd;stroke:#2e2e2d;stroke-width:2.95333;stroke-linecap:round;stroke-linejoin:round;image-rendering:optimizeQuality;shape-rendering:geometricPrecision;text-rendering:geometricPrecision"
         inkscape:connector-curvature="0"
         id="path9227"
         d="m 634,333 c 1,4 -11,23 -14,26 -10,10 -18,-2 -2,-16 1,-11 14,-21 16,-10 z"
         transform="matrix(0.26458333,0,0,0.26458333,-116.38858,-115.34284)" />
      <path
         style="clip-rule:evenodd;fill:#96604d;fill-rule:evenodd;image-rendering:optimizeQuality;shape-rendering:geometricPrecision;text-rendering:geometricPrecision"
         inkscape:connector-curvature="0"
         id="path9229"
         d="m 657,329 c 10,-6 18,-2 14,3 26,-12 69,53 23,86 -27,18 -55,8 -62,-24 0,4 -13,5 -12,-10 -23,-18 6,-67 37,-55 z"
         transform="matrix(0.26458333,0,0,0.26458333,-116.38858,-115.34284)" />
      <g
         id="g9231"
         clip-path="url(#id0)"
         style="clip-rule:evenodd;fill-rule:evenodd;image-rendering:optimizeQuality;shape-rendering:geometricPrecision;text-rendering:geometricPrecision"
         transform="matrix(0.26458333,0,0,0.26458333,-116.38858,-115.34284)">
        <g
           id="g9233">
          <path
             style="fill:#c29466"
             inkscape:connector-curvature="0"
             d="m 640,329 c -11,4 -15,5 -21,16 -5,7 -7,12 -7,20 -1,2 3,7 6,8 2,1 6,2 9,0 3,-2 6,-7 7,-11 1,-9 3,-9 8,-16 1,-2 5,-4 7,-7 6,-8 -3,-13 -9,-10 z"
             id="1" />
        </g>
      </g>
      <path
         style="clip-rule:evenodd;fill:none;fill-rule:evenodd;stroke:#2e2e2d;stroke-width:2.95333;stroke-linecap:round;stroke-linejoin:round;image-rendering:optimizeQuality;shape-rendering:geometricPrecision;text-rendering:geometricPrecision"
         inkscape:connector-curvature="0"
         id="path9236"
         d="m 657,329 c 10,-6 18,-2 14,3 26,-12 69,53 23,86 -27,18 -55,8 -62,-24 0,4 -13,5 -12,-10 -23,-18 6,-67 37,-55 z"
         transform="matrix(0.26458333,0,0,0.26458333,-116.38858,-115.34284)" />
      <path
         style="clip-rule:evenodd;fill:#2e2e2d;fill-rule:evenodd;stroke:#2e2e2d;stroke-width:1.772;stroke-linecap:round;stroke-linejoin:round;image-rendering:optimizeQuality;shape-rendering:geometricPrecision;text-rendering:geometricPrecision"
         inkscape:connector-curvature="0"
         id="path9238"
         d="m 619,339 c -12,17 0,17 1,13 0,0 12,-15 3,-16 -2,0 -3,3 -4,3 z"
         transform="matrix(0.26458333,0,0,0.26458333,-116.38858,-115.34284)" />
      <path
         style="clip-rule:evenodd;fill:none;fill-rule:evenodd;stroke:#2e2e2d;stroke-width:1.772;stroke-linecap:round;stroke-linejoin:round;image-rendering:optimizeQuality;shape-rendering:geometricPrecision;text-rendering:geometricPrecision"
         inkscape:connector-curvature="0"
         id="path9240"
         d="m 640,333 c -6,3 -4,5 -6,10"
         transform="matrix(0.26458333,0,0,0.26458333,-116.38858,-115.34284)" />
      <path
         style="clip-rule:evenodd;fill:none;fill-rule:evenodd;stroke:#2e2e2d;stroke-width:1.772;stroke-linecap:round;stroke-linejoin:round;image-rendering:optimizeQuality;shape-rendering:geometricPrecision;text-rendering:geometricPrecision"
         inkscape:connector-curvature="0"
         id="path9242"
         d="m 627,360 c -6,4 -8,6 -8,12"
         transform="matrix(0.26458333,0,0,0.26458333,-116.38858,-115.34284)" />
      <g
         transform="matrix(0.26458333,0,0,0.26458333,-112.65144,-110.24673)"
         id="g9244"
         style="clip-rule:evenodd;fill-rule:evenodd;image-rendering:optimizeQuality;shape-rendering:geometricPrecision;text-rendering:geometricPrecision">
        <path
           style="fill:#704333;stroke:#2e2e2d;stroke-width:2.95333;stroke-linecap:round;stroke-linejoin:round"
           inkscape:connector-curvature="0"
           id="path9246"
           d="m 699,356 c -11,12 -23,8 -24,27 0,2 -2,10 0,13 1,3 -7,17 20,28 18,7 41,7 59,0 23,-8 39,-28 50,-49 5,-7 8,-29 3,-38 -11,-27 -60,-31 -78,-7 -6,7 -20,21 -29,25 0,1 -1,1 -1,1 z" />
        <path
           style="fill:none;stroke:#2e2e2d;stroke-width:1.772;stroke-linecap:round;stroke-linejoin:round"
           inkscape:connector-curvature="0"
           id="path9248"
           d="m 686,384 c 10,0 71,16 71,28 l -3,-1" />
        <path
           style="fill:none;stroke:#2e2e2d;stroke-width:1.772;stroke-linecap:round;stroke-linejoin:round"
           inkscape:connector-curvature="0"
           id="path9250"
           d="m 694,369 c 19,-1 79,-3 87,20" />
        <path
           style="fill:none;stroke:#2e2e2d;stroke-width:1.772;stroke-linecap:round;stroke-linejoin:round"
           inkscape:connector-curvature="0"
           id="path9252"
           d="m 710,358 c 15,-7 80,-10 82,7" />
        <path
           style="fill:none;stroke:#2e2e2d;stroke-width:1.772;stroke-linecap:round;stroke-linejoin:round"
           inkscape:connector-curvature="0"
           id="path9254"
           d="m 739,330 c 13,-7 40,-9 53,-1 1,0 3,2 2,3" />
        <path
           style="fill:none;stroke:#2e2e2d;stroke-width:1.772;stroke-linecap:round;stroke-linejoin:round"
           inkscape:connector-curvature="0"
           id="path9256"
           d="m 719,344 c -3,32 -2,40 -19,63 l -2,1" />
        <path
           style="fill:none;stroke:#2e2e2d;stroke-width:1.772;stroke-linecap:round;stroke-linejoin:round"
           inkscape:connector-curvature="0"
           id="path9258"
           d="m 740,338 c 10,22 6,31 -1,53 -1,1 -11,30 -11,30" />
        <path
           style="fill:none;stroke:#2e2e2d;stroke-width:1.772;stroke-linecap:round;stroke-linejoin:round"
           inkscape:connector-curvature="0"
           id="path9260"
           d="m 760,322 c 22,19 19,59 6,78" />
      </g>
      <path
         style="clip-rule:evenodd;fill:none;fill-rule:evenodd;stroke:#2e2e2d;stroke-width:1.772;stroke-linecap:round;stroke-linejoin:round;image-rendering:optimizeQuality;shape-rendering:geometricPrecision;text-rendering:geometricPrecision"
         inkscape:connector-curvature="0"
         id="path9262"
         d="m 671,341 c 6,9 2,22 -5,28 -4,13 -14,23 -23,23"
         transform="matrix(0.26458333,0,0,0.26458333,-116.38858,-115.34284)" />
      <path
         style="clip-rule:evenodd;fill:none;fill-rule:evenodd;stroke:#2e2e2d;stroke-width:1.772;stroke-linecap:round;stroke-linejoin:round;image-rendering:optimizeQuality;shape-rendering:geometricPrecision;text-rendering:geometricPrecision"
         inkscape:connector-curvature="0"
         id="path9264"
         d="m 620,384 c 4,1 1,1 7,3 1,0 0,0 1,0"
         transform="matrix(0.26458333,0,0,0.26458333,-116.38858,-115.34284)" />
      <path
         style="clip-rule:evenodd;fill:none;fill-rule:evenodd;stroke:#2e2e2d;stroke-width:1.772;stroke-linecap:round;stroke-linejoin:round;image-rendering:optimizeQuality;shape-rendering:geometricPrecision;text-rendering:geometricPrecision"
         inkscape:connector-curvature="0"
         id="path9266"
         d="m 658,329 c 0,1 3,3 4,3"
         transform="matrix(0.26458333,0,0,0.26458333,-116.38858,-115.34284)" />
    </g>
  </g>
</svg>
