<?xml version="1.0" encoding="UTF-8" standalone="no"?>
<svg
   xmlns:dc="http://purl.org/dc/elements/1.1/"
   xmlns:cc="http://creativecommons.org/ns#"
   xmlns:rdf="http://www.w3.org/1999/02/22-rdf-syntax-ns#"
   xmlns:svg="http://www.w3.org/2000/svg"
   xmlns="http://www.w3.org/2000/svg"
   xmlns:sodipodi="http://sodipodi.sourceforge.net/DTD/sodipodi-0.dtd"
   xmlns:inkscape="http://www.inkscape.org/namespaces/inkscape"
   sodipodi:docname="2020-CY-02_question-interactive0.svg"
   inkscape:version="1.0 (4035a4fb49, 2020-05-01)"
   id="svg1756"
   version="1.1"
   viewBox="0 0 28 28"
   height="28mm"
   width="28mm">
  <defs
     id="defs1750" />
  <sodipodi:namedview
     inkscape:window-maximized="1"
     inkscape:window-y="222"
     inkscape:window-x="-8"
     inkscape:window-height="987"
     inkscape:window-width="1680"
     fit-margin-bottom="0"
     fit-margin-right="0"
     fit-margin-left="0"
     fit-margin-top="0"
     showgrid="false"
     inkscape:document-rotation="0"
     inkscape:current-layer="layer1"
     inkscape:document-units="mm"
     inkscape:cy="71.333958"
     inkscape:cx="78.666735"
     inkscape:zoom="2.8"
     inkscape:pageshadow="2"
     inkscape:pageopacity="0.0"
     borderopacity="1.0"
     bordercolor="#666666"
     pagecolor="#ffffff"
     id="base" />
  <metadata
     id="metadata1753">
    <rdf:RDF>
      <cc:Work
         rdf:about="">
        <dc:format>image/svg+xml</dc:format>
        <dc:type
           rdf:resource="http://purl.org/dc/dcmitype/StillImage" />
        <dc:title></dc:title>
      </cc:Work>
    </rdf:RDF>
  </metadata>
  <g
     transform="translate(-75.980934,-27.412209)"
     id="layer1"
     inkscape:groupmode="layer"
     inkscape:label="Ebene 1">
    <g
       id="g19527"
       transform="translate(48.679509,-83.738303)">
      <g
         transform="translate(-142.44885,3.8653522)"
         id="g18272">
        <g
           id="g3486">
          <path
             id="rect2921-9-1-383"
             style="font-variation-settings:normal;opacity:1;vector-effect:none;fill:#b6c939;fill-opacity:1;stroke:none;stroke-width:0.01;stroke-linecap:butt;stroke-linejoin:miter;stroke-miterlimit:4;stroke-dasharray:none;stroke-dashoffset:0;stroke-opacity:1;paint-order:markers stroke fill;stop-color:#000000;stop-opacity:1"
             d="m 197.12736,107.36697 -16.58348,0.20619 c -3.20134,1.38626 -6.31877,1.89085 -8.83918,3.59366 -1.95268,1.28075 -1.97749,0.63036 -1.79944,4.29163 v 19.32582 c 0,0.2744 0.22066,0.49558 0.49506,0.49558 h 17.71571 c 0.16858,0 0.31628,-0.0839 0.40566,-0.21187 2.43242,-0.33629 5.14226,-2.48409 8.60567,-5.07758 0.2744,0 0.49558,-0.22119 0.49558,-0.49558 v -21.63279 c 0,-0.2744 -0.2212,-0.49848 -0.49558,-0.49506 z"
             sodipodi:nodetypes="ccccsssccssc" />
          <path
             id="rect2921-9-0-45"
             style="font-variation-settings:normal;opacity:1;vector-effect:none;fill:#32964d;fill-opacity:1;stroke:none;stroke-width:0.01;stroke-linecap:butt;stroke-linejoin:miter;stroke-miterlimit:4;stroke-dasharray:none;stroke-dashoffset:0;stroke-opacity:1;paint-order:markers stroke fill;stop-color:#000000;stop-opacity:1"
             d="m 188.85773,118.39398 -0.0822,5.56305 -0.16444,10.59691 c -0.002,0.10581 -0.0333,0.2034 -0.0894,0.28371 2.43242,-0.33629 5.14228,-2.25376 8.60569,-4.84725 0.27439,0 0.49824,-0.2212 0.49557,-0.49558 L 197.415,108.07571 c -0.50376,0.41043 -2.41169,1.63167 -4.3662,2.77208 -0.97725,0.5702 -1.67598,0.88397 -2.42461,1.27974 -0.5986,0.21142 -1.23545,0.27716 -1.51306,0.63899 -0.86939,1.1331 -0.21758,3.20446 -0.25339,5.62746 z"
             sodipodi:nodetypes="ccsccscscscc" />
          <path
             style="color:#000000;font-style:normal;font-variant:normal;font-weight:normal;font-stretch:normal;font-size:medium;line-height:normal;font-family:sans-serif;font-variant-ligatures:normal;font-variant-position:normal;font-variant-caps:normal;font-variant-numeric:normal;font-variant-alternates:normal;font-variant-east-asian:normal;font-feature-settings:normal;font-variation-settings:normal;text-indent:0;text-align:start;text-decoration:none;text-decoration-line:none;text-decoration-style:solid;text-decoration-color:#000000;letter-spacing:normal;word-spacing:normal;text-transform:none;writing-mode:lr-tb;direction:ltr;text-orientation:mixed;dominant-baseline:auto;baseline-shift:baseline;text-anchor:start;white-space:normal;shape-padding:0;shape-margin:0;inline-size:0;clip-rule:nonzero;display:inline;overflow:visible;visibility:visible;opacity:1;isolation:auto;mix-blend-mode:normal;color-interpolation:sRGB;color-interpolation-filters:linearRGB;solid-color:#000000;solid-opacity:1;vector-effect:none;fill:#000000;fill-opacity:1;fill-rule:nonzero;stroke:none;stroke-width:0.165;stroke-linecap:round;stroke-linejoin:round;stroke-miterlimit:4;stroke-dasharray:none;stroke-dashoffset:0;stroke-opacity:1;color-rendering:auto;image-rendering:auto;shape-rendering:auto;text-rendering:auto;enable-background:accumulate;stop-color:#000000;stop-opacity:1"
             d="m 197.54297,129.71484 a 0.0825,0.0825 0 0 0 -0.0312,0.01 c -1.28443,0.65734 -2.88358,1.794 -4.40039,2.82617 -1.51682,1.03217 -2.95801,1.95706 -3.88086,2.18945 a 0.0825,0.0825 0 0 0 -0.0606,0.10157 0.0825,0.0825 0 0 0 0.0996,0.0586 c 0.98264,-0.24745 2.41675,-1.17938 3.93555,-2.21289 1.51879,-1.03351 3.11579,-2.16897 4.38086,-2.81641 a 0.0825,0.0825 0 0 0 0.0371,-0.11132 0.0825,0.0825 0 0 0 -0.0801,-0.0449 z"
             id="path23034" />
          <path
             style="color:#000000;font-style:normal;font-variant:normal;font-weight:normal;font-stretch:normal;font-size:medium;line-height:normal;font-family:sans-serif;font-variant-ligatures:normal;font-variant-position:normal;font-variant-caps:normal;font-variant-numeric:normal;font-variant-alternates:normal;font-variant-east-asian:normal;font-feature-settings:normal;font-variation-settings:normal;text-indent:0;text-align:start;text-decoration:none;text-decoration-line:none;text-decoration-style:solid;text-decoration-color:#000000;letter-spacing:normal;word-spacing:normal;text-transform:none;writing-mode:lr-tb;direction:ltr;text-orientation:mixed;dominant-baseline:auto;baseline-shift:baseline;text-anchor:start;white-space:normal;shape-padding:0;shape-margin:0;inline-size:0;clip-rule:nonzero;display:inline;overflow:visible;visibility:visible;opacity:1;isolation:auto;mix-blend-mode:normal;color-interpolation:sRGB;color-interpolation-filters:linearRGB;solid-color:#000000;solid-opacity:1;vector-effect:none;fill:#000000;fill-opacity:1;fill-rule:nonzero;stroke:none;stroke-width:0.165;stroke-linecap:round;stroke-linejoin:round;stroke-miterlimit:4;stroke-dasharray:none;stroke-dashoffset:0;stroke-opacity:1;color-rendering:auto;image-rendering:auto;shape-rendering:auto;text-rendering:auto;enable-background:accumulate;stop-color:#000000;stop-opacity:1"
             d="m 197.5332,130.13867 a 0.0825,0.0825 0 0 0 -0.0293,0.0117 c -2.78451,1.83486 -5.41604,3.75622 -7.9375,4.82813 a 0.0825,0.0825 0 0 0 -0.0449,0.10742 0.0825,0.0825 0 0 0 0.10938,0.043 c 2.54863,-1.08346 5.1827,-3.00783 7.96289,-4.83985 a 0.0825,0.0825 0 0 0 0.0234,-0.11523 0.0825,0.0825 0 0 0 -0.084,-0.0352 z"
             id="path23030" />
          <path
             id="rect2921-9-3-4"
             style="font-variation-settings:normal;opacity:1;vector-effect:none;fill:#8db742;fill-opacity:1;stroke:none;stroke-width:0.01;stroke-linecap:butt;stroke-linejoin:miter;stroke-miterlimit:4;stroke-dasharray:none;stroke-dashoffset:0;stroke-opacity:1;paint-order:markers stroke fill;stop-color:#000000;stop-opacity:1"
             d="m 197.12736,107.36697 -16.58348,0.20619 c -1.25265,0.0741 -12.62886,5.39394 -9.52455,4.65587 l 17.0967,0.19706 z"
             sodipodi:nodetypes="ccccc" />
          <path
             style="font-variation-settings:normal;opacity:1;vector-effect:none;fill:#32964d;fill-opacity:1;stroke:none;stroke-width:0;stroke-linecap:butt;stroke-linejoin:miter;stroke-miterlimit:4;stroke-dasharray:none;stroke-dashoffset:0;stroke-opacity:1;stop-color:#000000;stop-opacity:1"
             d="m 197.11764,107.84218 c -0.84241,0.37771 -2.05978,0.93623 -2.76624,1.48384 -0.44197,0.34259 -0.81244,0.70012 -1.3396,0.93304 -0.91321,0.40348 -1.87198,0.69131 -2.78075,1.10398 -0.1599,0.0726 -1.89853,0.98802 -1.86673,1.0921 0.093,0.30422 1.75581,-0.53903 1.92476,-0.59828 1.03233,-0.36199 1.66955,-0.75321 2.61149,-1.27492 0.57643,-0.31926 1.18238,-0.57415 1.7555,-0.90929 0.45644,-0.26692 0.86199,-0.59057 1.33476,-0.83095 0.22906,-0.11647 1.53804,-0.73619 1.12681,-0.99952 z"
             id="path3022-70" />
          <path
             style="color:#000000;font-style:normal;font-variant:normal;font-weight:normal;font-stretch:normal;font-size:medium;line-height:normal;font-family:sans-serif;font-variant-ligatures:normal;font-variant-position:normal;font-variant-caps:normal;font-variant-numeric:normal;font-variant-alternates:normal;font-variant-east-asian:normal;font-feature-settings:normal;font-variation-settings:normal;text-indent:0;text-align:start;text-decoration:none;text-decoration-line:none;text-decoration-style:solid;text-decoration-color:#000000;letter-spacing:normal;word-spacing:normal;text-transform:none;writing-mode:lr-tb;direction:ltr;text-orientation:mixed;dominant-baseline:auto;baseline-shift:baseline;text-anchor:start;white-space:normal;shape-padding:0;shape-margin:0;inline-size:0;clip-rule:nonzero;display:inline;overflow:visible;visibility:visible;opacity:1;isolation:auto;mix-blend-mode:normal;color-interpolation:sRGB;color-interpolation-filters:linearRGB;solid-color:#000000;solid-opacity:1;vector-effect:none;fill:#000000;fill-opacity:1;fill-rule:nonzero;stroke:none;stroke-width:0.165;stroke-linecap:round;stroke-linejoin:round;stroke-miterlimit:4;stroke-dasharray:none;stroke-dashoffset:0;stroke-opacity:1;color-rendering:auto;image-rendering:auto;shape-rendering:auto;text-rendering:auto;enable-background:accumulate;stop-color:#000000;stop-opacity:1"
             d="m 196.87109,107.56055 a 0.0825,0.0825 0 0 0 -0.0312,0.01 c -0.16675,0.095 -0.23766,0.13614 -0.27539,0.15821 -0.0377,0.0221 -0.0452,0.0266 -0.0684,0.043 -0.0464,0.0328 -0.19061,0.12921 -0.90625,0.56836 -2.93378,1.42693 -4.73689,2.67196 -7.52539,3.75586 a 0.0825,0.0825 0 0 0 -0.0469,0.10547 0.0825,0.0825 0 0 0 0.10742,0.0469 c 2.80871,-1.09176 4.61578,-2.33977 7.54492,-3.76367 a 0.08250825,0.08250825 0 0 0 0.008,-0.004 c 0.71642,-0.43963 0.86144,-0.53706 0.91407,-0.57422 0.0263,-0.0186 0.0216,-0.0166 0.0566,-0.0371 0.035,-0.0205 0.10656,-0.0612 0.27344,-0.15625 a 0.0825,0.0825 0 0 0 0.0312,-0.11133 0.0825,0.0825 0 0 0 -0.082,-0.041 z"
             id="path23026" />
          <path
             style="color:#000000;font-style:normal;font-variant:normal;font-weight:normal;font-stretch:normal;font-size:medium;line-height:normal;font-family:sans-serif;font-variant-ligatures:normal;font-variant-position:normal;font-variant-caps:normal;font-variant-numeric:normal;font-variant-alternates:normal;font-variant-east-asian:normal;font-feature-settings:normal;font-variation-settings:normal;text-indent:0;text-align:start;text-decoration:none;text-decoration-line:none;text-decoration-style:solid;text-decoration-color:#000000;letter-spacing:normal;word-spacing:normal;text-transform:none;writing-mode:lr-tb;direction:ltr;text-orientation:mixed;dominant-baseline:auto;baseline-shift:baseline;text-anchor:start;white-space:normal;shape-padding:0;shape-margin:0;inline-size:0;clip-rule:nonzero;display:inline;overflow:visible;visibility:visible;opacity:1;isolation:auto;mix-blend-mode:normal;color-interpolation:sRGB;color-interpolation-filters:linearRGB;solid-color:#000000;solid-opacity:1;vector-effect:none;fill:#000000;fill-opacity:1;fill-rule:nonzero;stroke:none;stroke-width:0.165;stroke-linecap:round;stroke-linejoin:round;stroke-miterlimit:4;stroke-dasharray:none;stroke-dashoffset:0;stroke-opacity:1;color-rendering:auto;image-rendering:auto;shape-rendering:auto;text-rendering:auto;enable-background:accumulate;stop-color:#000000;stop-opacity:1"
             d="m 197.37109,108.1582 a 0.0825,0.0825 0 0 0 -0.0312,0.01 c -0.16675,0.095 -0.23766,0.13614 -0.27539,0.1582 -0.0377,0.0221 -0.0452,0.0266 -0.0684,0.043 -0.0464,0.0328 -0.19062,0.12921 -0.90625,0.56836 -2.93229,1.42599 -4.70595,2.55413 -7.49609,3.63867 a 0.0825,0.0825 0 0 0 -0.0469,0.10742 0.0825,0.0825 0 0 0 0.10546,0.0469 c 2.80704,-1.09111 4.58704,-2.22385 7.51758,-3.64844 a 0.08250825,0.08250825 0 0 0 0.006,-0.004 c 0.71641,-0.43963 0.86339,-0.53705 0.91602,-0.57421 0.0263,-0.0186 0.0216,-0.0166 0.0566,-0.0371 0.035,-0.0205 0.10656,-0.0612 0.27344,-0.15625 a 0.0825,0.0825 0 0 0 0.0312,-0.11133 0.0825,0.0825 0 0 0 -0.082,-0.041 z"
             id="path23022" />
          <path
             sodipodi:nodetypes="ccccccccscccccccccccccccccccscccccccccccc"
             style="color:#000000;font-style:normal;font-variant:normal;font-weight:normal;font-stretch:normal;font-size:medium;line-height:normal;font-family:sans-serif;font-variant-ligatures:normal;font-variant-position:normal;font-variant-caps:normal;font-variant-numeric:normal;font-variant-alternates:normal;font-variant-east-asian:normal;font-feature-settings:normal;font-variation-settings:normal;text-indent:0;text-align:start;text-decoration:none;text-decoration-line:none;text-decoration-style:solid;text-decoration-color:#000000;letter-spacing:normal;word-spacing:normal;text-transform:none;writing-mode:lr-tb;direction:ltr;text-orientation:mixed;dominant-baseline:auto;baseline-shift:baseline;text-anchor:start;white-space:normal;shape-padding:0;shape-margin:0;inline-size:0;clip-rule:nonzero;display:inline;overflow:visible;visibility:visible;opacity:1;isolation:auto;mix-blend-mode:normal;color-interpolation:sRGB;color-interpolation-filters:linearRGB;solid-color:#000000;solid-opacity:1;vector-effect:none;fill:#000000;fill-opacity:1;fill-rule:nonzero;stroke:none;stroke-width:0.165;stroke-linecap:round;stroke-linejoin:round;stroke-miterlimit:4;stroke-dasharray:none;stroke-dashoffset:0;stroke-opacity:1;color-rendering:auto;image-rendering:auto;shape-rendering:auto;text-rendering:auto;enable-background:accumulate;stop-color:#000000;stop-opacity:1"
             d="m 186.88086,112.51367 c -0.53357,-0.014 -1.10716,0.0395 -1.7207,0.10352 -1.2271,0.12793 -2.61812,0.30561 -4.17578,0.12695 -0.004,-2.8e-4 -0.008,-2.8e-4 -0.0117,0 -2.75011,0.0629 -7.91177,0.26386 -10.49805,-0.0645 -0.0117,-0.002 -0.0237,-0.001 -0.0352,0.002 -0.0731,0.0232 -0.11987,0.0917 -0.14062,0.16406 -0.0208,0.0724 -0.0248,0.15765 -0.0234,0.26172 0.003,0.20814 0.0332,0.49194 0.0586,0.85156 0.0508,0.71925 0.0816,1.73891 -0.1621,3.01172 -1.3e-4,0.003 -1.3e-4,0.005 0,0.008 -0.55988,6.09147 -0.31644,14.94507 0.0156,17.95501 0.003,0.0293 0.0219,0.0546 0.0488,0.0664 0.67108,0.29205 1.40635,0.22653 2.14062,0.11719 0.73428,-0.10935 1.47131,-0.26127 2.15039,-0.16602 1.96282,0.27486 4.01967,0.0852 5.98047,0.28125 2.53847,0.25386 7.79492,-0.19141 7.79492,-0.19141 0.0333,-0.002 0.0619,-0.0248 0.0723,-0.0566 0.002,-0.006 0.003,-0.0129 0.004,-0.0195 0,0 0.30986,-3.98643 0.45703,-8.77533 0.11748,-4.02092 -0.17191,-8.71094 -0.42774,-13.31054 -0.002,-0.0307 -0.0207,-0.0578 -0.0488,-0.0703 -0.45295,-0.20021 -0.94495,-0.28091 -1.47852,-0.29492 z m -1.70508,0.26758 c 1.20568,-0.1257 2.22353,-0.18291 3.07031,0.17578 0.25486,4.57747 0.54037,9.23983 0.42383,13.22852 -0.14587,4.74443 -0.44618,8.62398 -0.45117,8.69329 -0.0939,0.008 -5.22123,0.43688 -7.69531,0.18946 -1.98244,-0.19825 -4.03789,-0.0101 -5.97461,-0.28125 -0.71869,-0.10081 -1.46938,0.0576 -2.19727,0.16601 -0.71056,0.10581 -1.39129,0.14746 -2.00195,-0.10156 -0.32698,-3.01997 -0.5695,-11.80987 -0.0137,-17.85736 l -0.002,0.008 c 0.24728,-1.29145 0.21535,-2.32932 0.16407,-3.05468 -0.0256,-0.36269 -0.0561,-0.64822 -0.0586,-0.8418 -0.001,-0.0968 0.005,-0.17155 0.0176,-0.21485 0.0115,-0.0402 0.0206,-0.0431 0.0312,-0.0469 2.62925,0.32838 7.75023,0.12708 10.48828,0.0644 1.57569,0.17883 2.97855,3.1e-4 4.19922,-0.12695 z"
             id="path23018" />
          <path
             sodipodi:nodetypes="cccccccccssccccscccscc"
             style="color:#000000;font-style:normal;font-variant:normal;font-weight:normal;font-stretch:normal;font-size:medium;line-height:normal;font-family:sans-serif;font-variant-ligatures:normal;font-variant-position:normal;font-variant-caps:normal;font-variant-numeric:normal;font-variant-alternates:normal;font-variant-east-asian:normal;font-feature-settings:normal;font-variation-settings:normal;text-indent:0;text-align:start;text-decoration:none;text-decoration-line:none;text-decoration-style:solid;text-decoration-color:#000000;letter-spacing:normal;word-spacing:normal;text-transform:none;writing-mode:lr-tb;direction:ltr;text-orientation:mixed;dominant-baseline:auto;baseline-shift:baseline;text-anchor:start;white-space:normal;shape-padding:0;shape-margin:0;inline-size:0;clip-rule:nonzero;display:inline;overflow:visible;visibility:visible;opacity:1;isolation:auto;mix-blend-mode:normal;color-interpolation:sRGB;color-interpolation-filters:linearRGB;solid-color:#000000;solid-opacity:1;vector-effect:none;fill:#000000;fill-opacity:1;fill-rule:nonzero;stroke:none;stroke-width:0.165;stroke-linecap:round;stroke-linejoin:round;stroke-miterlimit:4;stroke-dasharray:none;stroke-dashoffset:0;stroke-opacity:1;paint-order:markers stroke fill;color-rendering:auto;image-rendering:auto;shape-rendering:auto;text-rendering:auto;enable-background:accumulate;stop-color:#000000;stop-opacity:1"
             d="m 196.98521,107.28516 -16.58398,0.20507 c -0.0108,5.9e-4 -0.0214,0.003 -0.0312,0.008 -3.19012,1.3814 -6.17148,1.88335 -8.71178,3.59961 -0.48451,0.31768 -0.85069,0.51635 -1.1289,0.69531 -0.27856,0.17918 -0.47466,0.34433 -0.59766,0.58984 -0.246,0.49103 -0.1984,1.2495 -0.10937,3.08008 0.002,0.046 0.0419,0.0812 0.0879,0.0781 0.0452,-0.002 0.08,-0.0407 0.0781,-0.0859 -0.089,-1.83068 -0.11826,-2.57877 0.0918,-2.99805 0.10503,-0.20964 0.26934,-0.35189 0.53906,-0.52539 0.26972,-0.1735 0.63995,-0.37333 1.13086,-0.69531 10e-6,-6.7e-4 10e-6,-0.001 0,-0.002 2.49478,-1.68551 5.45823,-2.19426 8.66295,-3.57813 l 16.57422,-0.20703 c 0.22893,-0.003 0.41016,0.18204 0.41211,0.41211 l 0.1835,21.64116 c -8.4e-4,0.046 0.036,0.0837 0.082,0.084 0.046,-2.7e-4 0.0828,-0.038 0.082,-0.084 l -0.1835,-21.64116 c -0.003,-0.31872 -0.25828,-0.58016 -0.57813,-0.57617 z"
             id="path23014" />
          <g
             id="g22358"
             style="opacity:1">
            <path
               style="color:#000000;font-style:normal;font-variant:normal;font-weight:normal;font-stretch:normal;font-size:medium;line-height:normal;font-family:sans-serif;font-variant-ligatures:normal;font-variant-position:normal;font-variant-caps:normal;font-variant-numeric:normal;font-variant-alternates:normal;font-variant-east-asian:normal;font-feature-settings:normal;font-variation-settings:normal;text-indent:0;text-align:start;text-decoration:none;text-decoration-line:none;text-decoration-style:solid;text-decoration-color:#000000;letter-spacing:normal;word-spacing:normal;text-transform:none;writing-mode:lr-tb;direction:ltr;text-orientation:mixed;dominant-baseline:auto;baseline-shift:baseline;text-anchor:start;white-space:normal;shape-padding:0;shape-margin:0;inline-size:0;clip-rule:nonzero;display:inline;overflow:visible;visibility:visible;isolation:auto;mix-blend-mode:normal;color-interpolation:sRGB;color-interpolation-filters:linearRGB;solid-color:#000000;solid-opacity:1;vector-effect:none;fill:#dce189;fill-opacity:1;fill-rule:nonzero;stroke:none;stroke-width:0.15;stroke-linecap:round;stroke-linejoin:round;stroke-miterlimit:4;stroke-dasharray:none;stroke-dashoffset:0;stroke-opacity:1;color-rendering:auto;image-rendering:auto;shape-rendering:auto;text-rendering:auto;enable-background:accumulate;stop-color:#000000;stop-opacity:1"
               d="m 171.04582,114.28632 c 0.37748,0.0303 0.75495,0.0455 1.13243,0.0758 5.07706,-0.0303 10.17299,-0.0455 15.26892,-0.0758 0,3.03247 -0.11324,6.26206 -0.13212,9.18839 -0.0377,3.07796 0.0378,5.86783 0.0378,9.32485 0,0.40938 0.0944,1.27364 0.0944,1.68302 H 171.0459 c -0.0377,-4.9126 -0.0566,-9.84037 -0.0944,-14.76813 0.0377,-1.80432 0.0566,-3.62381 0.0944,-5.42813 z"
               id="path22360" />
            <path
               style="color:#000000;font-style:normal;font-variant:normal;font-weight:normal;font-stretch:normal;font-size:medium;line-height:normal;font-family:sans-serif;font-variant-ligatures:normal;font-variant-position:normal;font-variant-caps:normal;font-variant-numeric:normal;font-variant-alternates:normal;font-variant-east-asian:normal;font-feature-settings:normal;font-variation-settings:normal;text-indent:0;text-align:start;text-decoration:none;text-decoration-line:none;text-decoration-style:solid;text-decoration-color:#000000;letter-spacing:normal;word-spacing:normal;text-transform:none;writing-mode:lr-tb;direction:ltr;text-orientation:mixed;dominant-baseline:auto;baseline-shift:baseline;text-anchor:start;white-space:normal;shape-padding:0;shape-margin:0;inline-size:0;clip-rule:nonzero;display:inline;overflow:visible;visibility:visible;isolation:auto;mix-blend-mode:normal;color-interpolation:sRGB;color-interpolation-filters:linearRGB;solid-color:#000000;solid-opacity:1;vector-effect:none;fill:#2e2e2d;fill-opacity:1;fill-rule:nonzero;stroke:none;stroke-width:0.15;stroke-linecap:round;stroke-linejoin:round;stroke-miterlimit:4;stroke-dasharray:none;stroke-dashoffset:0;stroke-opacity:1;color-rendering:auto;image-rendering:auto;shape-rendering:auto;text-rendering:auto;enable-background:accumulate;stop-color:#000000;stop-opacity:1"
               d="m 171.04492,114.21094 a 0.0750075,0.0750075 0 0 0 -0.0742,0.0742 c -0.0378,1.80485 -0.0561,3.62394 -0.0937,5.42773 a 0.0750075,0.0750075 0 0 0 0,0.002 c 0.0378,4.92757 0.056,9.85479 0.0937,14.76758 a 0.0750075,0.0750075 0 0 0 0.0762,0.0742 h 16.40039 a 0.0750075,0.0750075 0 0 0 0.0742,-0.0742 c 0,-0.42091 -0.0937,-1.28574 -0.0937,-1.68359 0,-3.45811 -0.0748,-6.24609 -0.0371,-9.32227 a 0.0750075,0.0750075 0 0 0 0,-0.002 c 0.0189,-2.92475 0.13086,-6.15316 0.13086,-9.1875 a 0.0750075,0.0750075 0 0 0 -0.0742,-0.0762 c -5.09383,0.0303 -10.1884,0.0459 -15.26368,0.0762 -0.37946,-0.0305 -0.75536,-0.046 -1.13086,-0.0762 a 0.0750075,0.0750075 0 0 0 -0.006,0 z m 16.32617,0.15039 c -0.002,3.00927 -0.11212,6.20903 -0.13086,9.11328 -0.0377,3.07974 0.0371,5.86829 0.0371,9.32422 0,0.40236 0.0842,1.19145 0.0918,1.60937 h -16.24805 c -0.0373,-4.88787 -0.0561,-9.79017 -0.0937,-14.69336 0.0371,-1.77759 0.0551,-3.57067 0.0918,-5.34765 0.35237,0.0264 0.70379,0.0423 1.05274,0.0703 a 0.0750075,0.0750075 0 0 0 0.006,0 c 5.05159,-0.0302 10.12271,-0.0462 15.19336,-0.0762 z"
               id="path22362" />
          </g>
          <path
             style="color:#000000;font-style:normal;font-variant:normal;font-weight:normal;font-stretch:normal;font-size:medium;line-height:normal;font-family:sans-serif;font-variant-ligatures:normal;font-variant-position:normal;font-variant-caps:normal;font-variant-numeric:normal;font-variant-alternates:normal;font-variant-east-asian:normal;font-feature-settings:normal;font-variation-settings:normal;text-indent:0;text-align:start;text-decoration:none;text-decoration-line:none;text-decoration-style:solid;text-decoration-color:#000000;letter-spacing:normal;word-spacing:normal;text-transform:none;writing-mode:lr-tb;direction:ltr;text-orientation:mixed;dominant-baseline:auto;baseline-shift:baseline;text-anchor:start;white-space:normal;shape-padding:0;shape-margin:0;inline-size:0;clip-rule:nonzero;display:inline;overflow:visible;visibility:visible;opacity:1;isolation:auto;mix-blend-mode:normal;color-interpolation:sRGB;color-interpolation-filters:linearRGB;solid-color:#000000;solid-opacity:1;vector-effect:none;fill:#2e2e2d;fill-opacity:1;fill-rule:nonzero;stroke:none;stroke-width:0.15;stroke-linecap:round;stroke-linejoin:round;stroke-miterlimit:4;stroke-dasharray:none;stroke-dashoffset:0;stroke-opacity:1;color-rendering:auto;image-rendering:auto;shape-rendering:auto;text-rendering:auto;enable-background:accumulate;stop-color:#000000;stop-opacity:1"
             d="m 183.29492,116.33398 -7.81445,0.0312 c -0.34699,0 -0.60542,-0.0199 -0.82422,0.0606 -0.2188,0.0805 -0.37554,0.26772 -0.49219,0.62695 a 0.075,0.075 0 0 0 0.0488,0.0957 0.075,0.075 0 0 0 0.0937,-0.0488 c 0.10983,-0.33823 0.22756,-0.46964 0.40039,-0.5332 0.17283,-0.0636 0.4221,-0.0527 0.77344,-0.0527 a 0.0750075,0.0750075 0 0 0 0.002,0 l 7.81055,-0.0293 c 0.20345,0.004 0.34012,0.0232 0.42773,0.0527 0.0876,0.0296 0.12601,0.0637 0.15235,0.10742 0.041,0.0682 0.0609,0.2122 0.0996,0.35742 l -8.86914,0.0293 a 0.075,0.075 0 0 0 -0.0742,0.0762 0.075,0.075 0 0 0 0.0742,0.0742 l 8.96484,-0.0312 a 0.0750075,0.0750075 0 0 0 0.0703,-0.10156 c -0.0688,-0.17281 -0.0498,-0.33292 -0.13867,-0.48047 -0.0444,-0.0738 -0.11873,-0.13611 -0.23047,-0.17383 -0.11174,-0.0377 -0.26088,-0.0567 -0.47265,-0.0606 a 0.0750075,0.0750075 0 0 0 -0.002,0 z"
             id="path22356" />
          <path
             style="color:#000000;font-style:normal;font-variant:normal;font-weight:normal;font-stretch:normal;font-size:medium;line-height:normal;font-family:sans-serif;font-variant-ligatures:normal;font-variant-position:normal;font-variant-caps:normal;font-variant-numeric:normal;font-variant-alternates:normal;font-variant-east-asian:normal;font-feature-settings:normal;font-variation-settings:normal;text-indent:0;text-align:start;text-decoration:none;text-decoration-line:none;text-decoration-style:solid;text-decoration-color:#000000;letter-spacing:normal;word-spacing:normal;text-transform:none;writing-mode:lr-tb;direction:ltr;text-orientation:mixed;dominant-baseline:auto;baseline-shift:baseline;text-anchor:start;white-space:normal;shape-padding:0;shape-margin:0;inline-size:0;clip-rule:nonzero;display:inline;overflow:visible;visibility:visible;opacity:1;isolation:auto;mix-blend-mode:normal;color-interpolation:sRGB;color-interpolation-filters:linearRGB;solid-color:#000000;solid-opacity:1;vector-effect:none;fill:#2e2e2d;fill-opacity:1;fill-rule:nonzero;stroke:none;stroke-width:0.15;stroke-linecap:round;stroke-linejoin:round;stroke-miterlimit:4;stroke-dasharray:none;stroke-dashoffset:0;stroke-opacity:1;color-rendering:auto;image-rendering:auto;shape-rendering:auto;text-rendering:auto;enable-background:accumulate;stop-color:#000000;stop-opacity:1"
             d="m 184.03125,117.54688 -8.83398,0.0762 c -0.31264,0 -0.49699,0.003 -0.64063,0.0859 -0.14364,0.0831 -0.21096,0.23507 -0.29687,0.48047 a 0.075,0.075 0 0 0 0.0449,0.0937 0.075,0.075 0 0 0 0.0957,-0.0449 c 0.084,-0.23978 0.13819,-0.34701 0.23047,-0.40039 0.0923,-0.0534 0.2562,-0.0645 0.56641,-0.0645 a 0.0750075,0.0750075 0 0 0 0.002,0 l 8.80469,-0.0762 c 0.0963,0.0965 0.17401,0.16306 0.22265,0.19531 0.0469,0.0311 0.0622,0.04 0.0606,0.0352 6.4e-4,0.009 0.003,0.0212 0.004,0.0449 0.001,0.0378 0.009,0.13122 0.0156,0.21289 l -9.24219,0.10547 a 0.075,0.075 0 0 0 -0.0742,0.0742 0.075,0.075 0 0 0 0.0762,0.0742 l 9.26367,-0.10351 c 0.005,0.0231 0.005,0.0461 0.0312,0.0684 0.0198,0.0171 0.0575,0.0262 0.082,0.0195 0.0245,-0.007 0.0369,-0.0192 0.0469,-0.0293 0.0401,-0.0402 0.0519,-0.082 0.0625,-0.10742 a 0.0750075,0.0750075 0 0 0 -0.0703,-0.10352 h -0.0254 c -0.007,-0.0849 -0.0164,-0.17777 -0.0176,-0.21679 -8.7e-4,-0.0283 6.7e-4,-0.0479 -0.002,-0.0684 -0.003,-0.0205 -0.0124,-0.0487 -0.0312,-0.0684 -0.0377,-0.0394 -0.0543,-0.0338 -0.0977,-0.0625 -0.0433,-0.0287 -0.11212,-0.0826 -0.22265,-0.19727 a 0.0750075,0.0750075 0 0 0 -0.0547,-0.0234 z"
             id="path22352" />
          <path
             style="color:#000000;font-style:normal;font-variant:normal;font-weight:normal;font-stretch:normal;font-size:medium;line-height:normal;font-family:sans-serif;font-variant-ligatures:normal;font-variant-position:normal;font-variant-caps:normal;font-variant-numeric:normal;font-variant-alternates:normal;font-variant-east-asian:normal;font-feature-settings:normal;font-variation-settings:normal;text-indent:0;text-align:start;text-decoration:none;text-decoration-line:none;text-decoration-style:solid;text-decoration-color:#000000;letter-spacing:normal;word-spacing:normal;text-transform:none;writing-mode:lr-tb;direction:ltr;text-orientation:mixed;dominant-baseline:auto;baseline-shift:baseline;text-anchor:start;white-space:normal;shape-padding:0;shape-margin:0;inline-size:0;clip-rule:nonzero;display:inline;overflow:visible;visibility:visible;opacity:1;isolation:auto;mix-blend-mode:normal;color-interpolation:sRGB;color-interpolation-filters:linearRGB;solid-color:#000000;solid-opacity:1;vector-effect:none;fill:#2e2e2d;fill-opacity:1;fill-rule:nonzero;stroke:none;stroke-width:0.15;stroke-linecap:round;stroke-linejoin:round;stroke-miterlimit:4;stroke-dasharray:none;stroke-dashoffset:0;stroke-opacity:1;color-rendering:auto;image-rendering:auto;shape-rendering:auto;text-rendering:auto;enable-background:accumulate;stop-color:#000000;stop-opacity:1"
             d="m 184.2168,118.77539 -8.62696,0.25586 c -0.005,-0.0122 -0.006,-0.0275 -0.0137,-0.0371 -0.0305,-0.0396 -0.0724,-0.0623 -0.12109,-0.082 -0.0974,-0.0394 -0.22888,-0.0588 -0.37305,-0.0527 -0.14417,0.006 -0.30053,0.0401 -0.43555,0.12109 -0.13501,0.081 -0.24765,0.21082 -0.29492,0.39648 a 0.075,0.075 0 0 0 0.0547,0.0918 0.075,0.075 0 0 0 0.0898,-0.0547 c 0.0377,-0.14791 0.12171,-0.2426 0.22852,-0.30664 0.1068,-0.064 0.2385,-0.0943 0.36328,-0.0996 0.12478,-0.005 0.24163,0.017 0.31055,0.0449 0.03,0.0121 0.0444,0.0234 0.0508,0.0293 a 0.0750075,0.0750075 0 0 0 0.0723,0.10156 l 8.63672,-0.25586 c 0.0274,0.11015 0.0503,0.25641 0.0625,0.36915 0.001,0.0108 9.3e-4,0.0135 0.002,0.0234 l -9.38282,0.0762 a 0.075,0.075 0 0 0 -0.0762,0.0762 0.075,0.075 0 0 0 0.0762,0.0742 l 9.4043,-0.0762 c 0.001,0.003 0.002,0.006 0.002,0.006 3e-5,6e-5 0.006,0.008 0.006,0.008 3e-5,4e-5 0.0117,0.0136 0.0117,0.0137 2e-5,1e-5 0.0119,-0.0135 0.0234,-0.0274 h 0.0273 l -0.0156,-0.0137 c 0.005,-0.006 0.0137,-0.0156 0.0137,-0.0156 0,0 0.0547,0.0528 0.0547,0.0527 2e-5,-3e-5 0.01,-0.0156 0.01,-0.0156 5e-5,-9e-5 0.008,-0.0155 0.008,-0.0156 9e-5,-3.1e-4 0.002,-0.011 0.002,-0.0137 0.003,-0.0216 0.002,-0.0275 0.002,-0.0527 a 0.0750075,0.0750075 0 0 0 -0.01,-0.0371 c -0.003,-0.0256 -0.006,-0.0419 -0.01,-0.0801 -0.0143,-0.13209 -0.0365,-0.3176 -0.0781,-0.45118 a 0.0750075,0.0750075 0 0 0 -0.0742,-0.0527 z"
             id="path22348" />
          <g
             id="g22340"
             style="opacity:1">
            <path
               style="color:#000000;font-style:normal;font-variant:normal;font-weight:normal;font-stretch:normal;font-size:medium;line-height:normal;font-family:sans-serif;font-variant-ligatures:normal;font-variant-position:normal;font-variant-caps:normal;font-variant-numeric:normal;font-variant-alternates:normal;font-variant-east-asian:normal;font-feature-settings:normal;font-variation-settings:normal;text-indent:0;text-align:start;text-decoration:none;text-decoration-line:none;text-decoration-style:solid;text-decoration-color:#000000;letter-spacing:normal;word-spacing:normal;text-transform:none;writing-mode:lr-tb;direction:ltr;text-orientation:mixed;dominant-baseline:auto;baseline-shift:baseline;text-anchor:start;white-space:normal;shape-padding:0;shape-margin:0;inline-size:0;clip-rule:nonzero;display:inline;overflow:visible;visibility:visible;isolation:auto;mix-blend-mode:normal;color-interpolation:sRGB;color-interpolation-filters:linearRGB;solid-color:#000000;solid-opacity:1;vector-effect:none;fill:#c5c5c5;fill-opacity:1;fill-rule:nonzero;stroke:none;stroke-width:0.15;stroke-linecap:round;stroke-linejoin:round;stroke-miterlimit:4;stroke-dasharray:none;stroke-dashoffset:0;stroke-opacity:1;color-rendering:auto;image-rendering:auto;shape-rendering:auto;text-rendering:auto;enable-background:accumulate;stop-color:#000000;stop-opacity:1"
               d="m 172.216,124.52091 c 0.50959,0.97039 2.47247,-0.27292 1.5099,-1.1675 -0.41522,-0.39422 -2.17049,-0.15162 -1.5099,1.1675 z"
               id="path22342" />
            <path
               style="color:#000000;font-style:normal;font-variant:normal;font-weight:normal;font-stretch:normal;font-size:medium;line-height:normal;font-family:sans-serif;font-variant-ligatures:normal;font-variant-position:normal;font-variant-caps:normal;font-variant-numeric:normal;font-variant-alternates:normal;font-variant-east-asian:normal;font-feature-settings:normal;font-variation-settings:normal;text-indent:0;text-align:start;text-decoration:none;text-decoration-line:none;text-decoration-style:solid;text-decoration-color:#000000;letter-spacing:normal;word-spacing:normal;text-transform:none;writing-mode:lr-tb;direction:ltr;text-orientation:mixed;dominant-baseline:auto;baseline-shift:baseline;text-anchor:start;white-space:normal;shape-padding:0;shape-margin:0;inline-size:0;clip-rule:nonzero;display:inline;overflow:visible;visibility:visible;isolation:auto;mix-blend-mode:normal;color-interpolation:sRGB;color-interpolation-filters:linearRGB;solid-color:#000000;solid-opacity:1;vector-effect:none;fill:#2e2e2d;fill-opacity:1;fill-rule:nonzero;stroke:none;stroke-width:0.15;stroke-linecap:round;stroke-linejoin:round;stroke-miterlimit:4;stroke-dasharray:none;stroke-dashoffset:0;stroke-opacity:1;color-rendering:auto;image-rendering:auto;shape-rendering:auto;text-rendering:auto;enable-background:accumulate;stop-color:#000000;stop-opacity:1"
               d="m 173.22656,123.10938 c -0.22388,-0.0127 -0.47247,0.0235 -0.68945,0.11718 -0.21698,0.0937 -0.40506,0.24735 -0.49219,0.47266 -0.0871,0.2253 -0.068,0.51297 0.10352,0.85547 a 0.0750075,0.0750075 0 0 0 0.002,0.002 c 0.13968,0.26598 0.38923,0.38615 0.65039,0.39258 0.26117,0.006 0.53706,-0.0933 0.76563,-0.25195 0.22857,-0.15868 0.41202,-0.37779 0.47461,-0.62891 0.0626,-0.25112 -0.007,-0.53134 -0.26368,-0.76953 -0.12572,-0.11937 -0.3269,-0.17673 -0.55078,-0.18945 z m -0.01,0.15039 c 0.20137,0.0114 0.37514,0.0707 0.45703,0.14843 a 0.0750075,0.0750075 0 0 0 0.002,0 c 0.22499,0.2091 0.26941,0.41977 0.21875,0.62305 -0.0507,0.20328 -0.20853,0.40029 -0.41406,0.54297 -0.20553,0.14268 -0.45567,0.23003 -0.67578,0.22461 -0.22012,-0.005 -0.40637,-0.0933 -0.52149,-0.3125 -0.15758,-0.31583 -0.16664,-0.55403 -0.0976,-0.73242 0.0692,-0.17887 0.22094,-0.30807 0.41211,-0.39063 0.19117,-0.0826 0.41777,-0.11496 0.61914,-0.10351 z"
               id="path22344" />
          </g>
          <g
             id="g22334"
             style="opacity:1">
            <path
               style="color:#000000;font-style:normal;font-variant:normal;font-weight:normal;font-stretch:normal;font-size:medium;line-height:normal;font-family:sans-serif;font-variant-ligatures:normal;font-variant-position:normal;font-variant-caps:normal;font-variant-numeric:normal;font-variant-alternates:normal;font-variant-east-asian:normal;font-feature-settings:normal;font-variation-settings:normal;text-indent:0;text-align:start;text-decoration:none;text-decoration-line:none;text-decoration-style:solid;text-decoration-color:#000000;letter-spacing:normal;word-spacing:normal;text-transform:none;writing-mode:lr-tb;direction:ltr;text-orientation:mixed;dominant-baseline:auto;baseline-shift:baseline;text-anchor:start;white-space:normal;shape-padding:0;shape-margin:0;inline-size:0;clip-rule:nonzero;display:inline;overflow:visible;visibility:visible;isolation:auto;mix-blend-mode:normal;color-interpolation:sRGB;color-interpolation-filters:linearRGB;solid-color:#000000;solid-opacity:1;vector-effect:none;fill:#d68048;fill-opacity:1;fill-rule:nonzero;stroke:none;stroke-width:0.15;stroke-linecap:round;stroke-linejoin:round;stroke-miterlimit:4;stroke-dasharray:none;stroke-dashoffset:0;stroke-opacity:1;color-rendering:auto;image-rendering:auto;shape-rendering:auto;text-rendering:auto;enable-background:accumulate;stop-color:#000000;stop-opacity:1"
               d="m 172.83883,123.59601 c 0.0189,0.28808 0.0189,0.54584 0.0189,0.83393 0.66059,-0.13646 0.28311,0.0152 0.32086,-0.77328 0,-0.16679 -0.3586,-0.13646 -0.33973,-0.0606 z"
               id="path22336" />
            <path
               style="color:#000000;font-style:normal;font-variant:normal;font-weight:normal;font-stretch:normal;font-size:medium;line-height:normal;font-family:sans-serif;font-variant-ligatures:normal;font-variant-position:normal;font-variant-caps:normal;font-variant-numeric:normal;font-variant-alternates:normal;font-variant-east-asian:normal;font-feature-settings:normal;font-variation-settings:normal;text-indent:0;text-align:start;text-decoration:none;text-decoration-line:none;text-decoration-style:solid;text-decoration-color:#000000;letter-spacing:normal;word-spacing:normal;text-transform:none;writing-mode:lr-tb;direction:ltr;text-orientation:mixed;dominant-baseline:auto;baseline-shift:baseline;text-anchor:start;white-space:normal;shape-padding:0;shape-margin:0;inline-size:0;clip-rule:nonzero;display:inline;overflow:visible;visibility:visible;isolation:auto;mix-blend-mode:normal;color-interpolation:sRGB;color-interpolation-filters:linearRGB;solid-color:#000000;solid-opacity:1;vector-effect:none;fill:#2e2e2d;fill-opacity:1;fill-rule:nonzero;stroke:none;stroke-width:0.15;stroke-linecap:round;stroke-linejoin:round;stroke-miterlimit:4;stroke-dasharray:none;stroke-dashoffset:0;stroke-opacity:1;color-rendering:auto;image-rendering:auto;shape-rendering:auto;text-rendering:auto;enable-background:accumulate;stop-color:#000000;stop-opacity:1"
               d="m 173.00586,123.46094 c -0.0523,-0.002 -0.10269,0.002 -0.14648,0.0176 -0.0219,0.008 -0.0441,0.0174 -0.0645,0.0371 -0.006,0.006 -0.003,0.0191 -0.008,0.0273 a 0.0750075,0.0750075 0 0 0 -0.002,0.002 0.0750075,0.0750075 0 0 0 -0.0215,0.0566 c 0.0187,0.28517 0.0195,0.54004 0.0195,0.82813 a 0.0750075,0.0750075 0 0 0 0.0899,0.0742 c 0.16383,-0.0339 0.26157,-0.0499 0.33007,-0.0703 0.0343,-0.0102 0.065,-0.0199 0.0918,-0.0488 0.0268,-0.0289 0.034,-0.0729 0.0312,-0.10352 -0.006,-0.0612 -0.0282,-0.11161 -0.0469,-0.20508 -0.0187,-0.0935 -0.0345,-0.22474 -0.0254,-0.41601 a 0.0750075,0.0750075 0 0 0 0,-0.004 c 0,-0.0686 -0.0446,-0.12567 -0.0937,-0.1543 -0.0491,-0.0286 -0.10202,-0.0387 -0.1543,-0.041 z m -0.008,0.14844 c 0.035,0.002 0.0703,0.0113 0.0879,0.0215 0.0175,0.0102 0.0176,0.0106 0.0176,0.0254 -0.009,0.20025 0.009,0.34599 0.0293,0.44922 0.0198,0.0988 0.0395,0.15906 0.043,0.17969 -0.003,0.001 -0.001,0.001 -0.0156,0.006 -0.0342,0.0102 -0.13435,0.0283 -0.22852,0.0469 -1.9e-4,-0.24176 -0.002,-0.46965 -0.0176,-0.7168 0.0191,-0.006 0.0512,-0.0131 0.084,-0.0117 z"
               id="path22338" />
          </g>
        </g>
        <path
           sodipodi:nodetypes="ccccccccccssscssscccccsssssssscc"
           id="path17646"
           d="m 180.56965,124.48626 c -0.12531,-0.32626 -1.04824,-2.44147 -1.65657,-2.02558 -0.64285,1.68913 -0.20254,3.10749 -0.39281,4.73026 -0.0268,0.22628 -0.0137,0.43297 -0.0137,0.66065 0.48916,-0.31023 1.35718,-0.44181 1.87175,-0.87361 0.0242,-0.0238 -0.0514,-0.12565 -0.0581,-0.15092 -0.0421,-0.15875 -0.21839,-0.8303 -0.1093,-0.99097 7.4e-4,-7.5e-4 0.0724,0.066 0.0785,0.0704 0.45984,0.33372 0.88821,0.55733 1.23987,1.02956 0.0249,-0.17669 0.24114,-0.28075 0.39621,-0.37895 0.20673,-0.13423 -0.0253,-0.97319 0.19469,-1.1352 0.0286,-0.021 0.23787,0.18854 0.31082,0.19451 0.31466,0.0258 0.62541,-0.28191 0.65238,-0.21128 0.0231,0.0605 -0.0138,0.14233 0.007,0.20458 0.0137,0.0412 0.31888,0.62679 0.38595,0.62208 0.2988,-0.021 0.52727,-0.21139 0.79926,-0.31523 0.3189,-0.12177 0.64521,-0.21949 0.9632,-0.34375 0.10617,-0.0415 0.49522,-0.18568 0.49526,-0.18612 0.0322,-0.28482 -0.28331,-0.6031 -0.30399,-0.86691 -0.002,-0.0293 -0.0524,-0.0684 -0.0273,-0.0839 2.28681,-0.98034 0.29324,-3.92964 -1.28085,-3.43745 -0.58419,0.23777 -0.53152,0.53033 -0.51234,0.78141 -0.0896,-0.022 -0.0761,-0.36052 -0.15369,-0.36052 -0.0238,0 -0.69211,0.4007 -0.7002,0.3689 -0.053,-0.20802 0.0374,-0.4397 -0.0649,-0.64054 -0.34387,-0.67524 -1.22686,-0.83876 -1.83761,-0.38902 -0.4261,0.31377 -0.66731,1.03363 -0.3074,1.46552 0.0623,0.0748 0.16875,0.0332 0.22202,0.0855 0.0176,0.0173 -0.15713,0.61954 -0.15713,0.84678 0,0.0659 0.0579,1.4471 0.0513,1.44876 -0.0487,0.012 -0.0634,-0.078 -0.0922,-0.11905 z"
           style="fill:#b3b3b3;fill-opacity:1;stroke:none;stroke-width:0.054515px;stroke-linecap:butt;stroke-linejoin:miter;stroke-opacity:1" />
        <path
           style="fill:#ffffff;fill-opacity:1;stroke:none;stroke-width:0.0539812px;stroke-linecap:butt;stroke-linejoin:miter;stroke-opacity:1"
           d="m 180.54942,124.44729 c -0.12409,-0.32307 -1.03798,-2.41757 -1.64035,-2.00575 -0.63656,1.67259 -0.20056,3.07706 -0.38897,4.68394 -0.0265,0.22407 -0.0136,0.42873 -0.0136,0.65418 0.48437,-0.30719 1.34389,-0.43748 1.85342,-0.86505 0.024,-0.0236 -0.0509,-0.12442 -0.0575,-0.14944 -0.0417,-0.1572 -0.21625,-0.82217 -0.10823,-0.98127 7.3e-4,-7.3e-4 0.0717,0.0653 0.0777,0.0697 0.45534,0.33045 0.87951,0.55187 1.22773,1.01948 0.0247,-0.17496 0.23878,-0.278 0.39233,-0.37524 0.20471,-0.13292 -0.025,-0.96366 0.19278,-1.12409 0.0283,-0.0208 0.23555,0.1867 0.30778,0.19261 0.31158,0.0255 0.61929,-0.27915 0.64599,-0.20921 0.0229,0.0599 -0.0137,0.14094 0.007,0.20258 0.0136,0.0408 0.31576,0.62065 0.38218,0.61598 0.29587,-0.0208 0.5221,-0.20932 0.79143,-0.31214 0.31578,-0.12058 0.63889,-0.21734 0.95377,-0.34038 0.10513,-0.0411 0.49037,-0.18387 0.49041,-0.1843 0.0319,-0.28203 -0.28054,-0.5972 -0.30102,-0.85842 -0.002,-0.029 -0.0519,-0.0677 -0.027,-0.0831 2.26442,-0.97074 0.29037,-3.89116 -1.26831,-3.40379 -0.57847,0.23544 -0.52631,0.52514 -0.50732,0.77376 -0.0887,-0.0218 -0.0754,-0.35699 -0.15218,-0.35699 -0.0236,0 -0.68534,0.39677 -0.69335,0.36529 -0.0525,-0.20599 0.037,-0.4354 -0.0643,-0.63427 -0.34051,-0.66863 -1.21485,-0.83055 -1.81962,-0.38521 -0.42193,0.31069 -0.66077,1.02351 -0.30439,1.45117 0.0617,0.0741 0.1671,0.0329 0.21985,0.0847 0.0174,0.0171 -0.15559,0.61347 -0.15559,0.83849 0,0.0653 0.0573,1.43293 0.0508,1.43457 -0.0482,0.0119 -0.0628,-0.0772 -0.0913,-0.11788 z"
           id="path17646-6"
           sodipodi:nodetypes="ccccccccccssscssscccccsssssssscc" />
        <path
           d="m 184.24239,122.86523 c 0.1402,0.29391 0.81632,0.41005 0.87949,-0.0216 0.0256,-0.17493 -0.0218,-0.35403 -0.0565,-0.52738 -0.14623,-0.7299 -1.27623,0.22022 -0.69575,0.17657 -0.1517,-0.0756 -0.23683,0.14262 -0.12721,0.37239 z m -0.46803,-0.84195 c 0.44679,-1.35689 2.29913,-0.0344 2.39351,0.91751 0.0248,0.25068 -0.13751,0.46434 -0.24186,0.67849 -0.3704,0.76008 -0.98522,0.82118 -1.53286,0.15728 -0.55081,-0.52641 -0.84517,-1.09601 -0.61879,-1.75328 z"
           style="fill:#aad400;stroke:none;stroke-width:0.0546005;stroke-linecap:round;stroke-linejoin:round;stroke-miterlimit:4;stroke-dasharray:none;stroke-opacity:1"
           id="path17553-5" />
        <path
           sodipodi:nodetypes="csssssscssssssccc"
           style="fill:#ffcc00;stroke:none;stroke-width:0.054601;stroke-linecap:round;stroke-linejoin:round;stroke-miterlimit:4;stroke-dasharray:none;stroke-opacity:1"
           d="m 182.66556,122.58149 c 0.24352,-0.1712 0.39015,-0.4688 0.64392,-0.62452 0.0483,-0.0296 -0.0457,0.10855 -0.0408,0.165 0.0119,0.1394 0.0527,0.27482 0.0817,0.41172 0.0959,0.4542 0.18536,0.88605 0.38321,1.31073 0.15013,0.3222 0.12015,0.039 0.38008,-0.10178 0.16208,-0.0878 0.36537,-0.10998 0.53398,-0.19275 0.0103,-0.004 -0.01,0.0228 -0.007,0.0339 0.0155,0.0584 0.0397,0.11411 0.0597,0.17116 0.0975,0.27912 0.0843,0.25915 0.20416,0.51812 0.0253,0.0548 0.40334,0.84415 0.35495,0.84812 -0.53516,0.0438 -0.81377,0.49268 -1.27529,0.6862 -0.031,0.013 -0.27026,0.13765 -0.30782,0.10795 -0.13102,-0.10363 -0.27749,-0.33566 -0.35809,-0.47958 -0.11028,-0.19692 -0.21227,-0.38774 -0.2827,-0.59831 l -0.91109,-1.89216 z"
           id="path17549-4" />
        <path
           sodipodi:nodetypes="sscs"
           style="fill:#ff6600;stroke:none;stroke-width:0.054601;stroke-linecap:round;stroke-linejoin:round;stroke-miterlimit:4;stroke-dasharray:none;stroke-opacity:1"
           d="m 181.49079,122.3579 c 1.35001,-0.0741 0.92822,-1.24101 0.13193,-1.18274 -0.76373,0.0559 -0.91038,0.74669 -0.91038,0.74669 -0.009,0.16246 0.40976,0.45628 0.77845,0.43605 z"
           id="path17545-1" />
        <path
           sodipodi:nodetypes="cscsssssscc"
           style="fill:#ff6600;stroke:none;stroke-width:0.0546005;stroke-linecap:round;stroke-linejoin:round;stroke-miterlimit:4;stroke-dasharray:none;stroke-opacity:1"
           d="m 181.40598,123.1798 c -0.0375,-0.0352 -0.19863,-0.0513 -0.14763,-0.0447 0.51408,0.0668 0.87207,-0.57373 1.16849,-0.88821 0.0221,0.12884 0.0433,0.25806 0.0848,0.38242 0.10716,0.32073 0.21302,0.64133 0.35808,0.94681 0.0531,0.11187 0.0721,0.24692 0.15392,0.34233 0.0378,0.044 0.084,0.0307 0.0691,0.0262 -0.24438,-0.0742 -0.44748,0.1218 -0.59366,0.29762 -0.0646,0.0777 -0.1759,0.34772 -0.1759,0.24672 0,-0.0248 0.0105,-0.0483 0.0157,-0.0725 z"
           id="path17543-2" />
        <path
           style="fill:#d40000;stroke:none;stroke-width:0.0546005;stroke-linecap:round;stroke-linejoin:round;stroke-miterlimit:4;stroke-dasharray:none;stroke-opacity:1"
           d="m 179.18186,123.0099 c 0.19294,-0.0202 1.02373,1.53556 1.38544,2.00029 0.17569,0.22571 0.33151,0.40815 0.33611,0.33154 0.0419,-0.69874 -0.23132,-1.42561 -0.0534,-2.12801 0.0435,-0.17179 0.0944,-0.35312 0.16019,-0.51811 0.017,-0.0425 0.0257,-0.15393 0.0596,-0.12337 0.1497,0.13473 0.2886,0.39532 0.42404,0.54125 0.31662,0.34115 0.65769,0.65558 1.01143,0.9576 0.2844,0.24282 0.57715,0.47524 0.88264,0.69084 0.0704,0.0497 0.25981,0.13699 0.18534,0.18042 -0.11486,0.0669 -0.34256,0.0652 -0.45232,0.0971 -0.1438,0.0419 -0.52408,0.46871 -0.68161,0.3007 -0.11546,-0.12313 -0.55913,-1.63992 -0.55913,-1.03316 0.14418,0.64415 -0.31741,2.0752 -0.31741,2.0752 l -1.76199,-1.47844 c 0,0 0.12998,0.50465 0.13821,0.60447 0.0258,0.31222 0.0829,0.65988 0.0534,0.97612 -0.008,0.0803 -0.66022,0.73053 -0.757,0.76021 -0.29224,-0.70094 -0.24656,-4.21443 -0.0536,-4.23469 z"
           id="path17541-1"
           sodipodi:nodetypes="cscssssssssscccsscc" />
        <path
           d="M 185.60512,128.74475 H 172.2727 c -0.23985,0 -0.43294,0.19309 -0.43294,0.43294 v 4.0059 c 0,0.23984 0.19309,0.43293 0.43294,0.43293 h 13.33242 c 0.23985,0 0.43294,-0.19309 0.43294,-0.43293 v -4.0059 c 0,-0.23985 -0.19309,-0.43294 -0.43294,-0.43294 z"
           style="font-variation-settings:normal;vector-effect:none;fill:#b3b3b3;fill-opacity:1;stroke:none;stroke-width:0.165;stroke-linecap:round;stroke-linejoin:round;stroke-miterlimit:4;stroke-dasharray:none;stroke-dashoffset:0;stroke-opacity:1;paint-order:markers stroke fill;stop-color:#000000"
           id="rect3488-1-13-8" />
        <g
           transform="matrix(-1,0,0,0.87409139,243.34877,17.066367)"
           style="stroke-width:1.0696"
           id="g3506-78-8">
          <path
             id="path3508-5-1"
             d="m 69.392578,127.23633 c -1.189604,-0.0907 -2.781301,-0.0639 -4.421875,0.008 -1.640573,0.0717 -3.328523,0.19014 -4.708984,0.28516 -1.380461,0.095 -2.461228,0.1657 -2.851563,0.14648 a 0.08250825,0.08250825 0 0 0 -0.08594,0.0781 l -0.248047,4.83007 c -0.01657,0.32328 0.259379,0.58204 0.578125,0.58204 1.188777,0 4.500534,0.0539 7.552734,0.0801 1.5261,0.0131 2.9867,0.0186 4.087891,0.008 0.550595,-0.005 1.011534,-0.0141 1.345703,-0.0293 0.167085,-0.008 0.301544,-0.0165 0.402344,-0.0273 0.0504,-0.005 0.09284,-0.0107 0.126953,-0.0176 0.03412,-0.007 0.05687,-0.0108 0.08984,-0.0332 a 0.08250825,0.08250825 0 0 0 0.03711,-0.0644 l 0.142578,-5.07422 a 0.08250825,0.08250825 0 0 0 0,-0.002 0.08250825,0.08250825 0 0 0 0,-0.002 c -0.0038,-0.12468 -0.07051,-0.23661 -0.175781,-0.32227 -0.105267,-0.0857 -0.250205,-0.15329 -0.427734,-0.21094 -0.35506,-0.11528 -0.848558,-0.18904 -1.44336,-0.23437 z m -0.01172,0.16601 c 0.588049,0.0448 1.072685,0.11889 1.404297,0.22657 0.165806,0.0538 0.29253,0.11612 0.373047,0.18164 0.07993,0.065 0.114617,0.12544 0.117188,0.19531 1.9e-5,5.1e-4 -1.6e-5,10e-4 0,0.002 l -0.142579,5.00977 c -0.0259,0.005 -0.06167,0.0107 -0.107421,0.0156 -0.09477,0.0102 -0.227362,0.0198 -0.392579,0.0274 -0.330433,0.0151 -0.790274,0.0239 -1.339843,0.0293 -1.099139,0.0108 -2.560292,0.005 -4.085938,-0.008 -3.051291,-0.0262 -6.359005,-0.0801 -7.552734,-0.0801 -0.230047,0 -0.423634,-0.18535 -0.412109,-0.41015 l 0.24414,-4.75586 c 0.44771,0.015 1.446888,-0.0503 2.78711,-0.14258 1.380597,-0.095 3.067457,-0.21357 4.705078,-0.28516 1.63762,-0.0716 3.226247,-0.0955 4.402343,-0.006 z"
             style="color:#000000;font-style:normal;font-variant:normal;font-weight:normal;font-stretch:normal;font-size:medium;line-height:normal;font-family:sans-serif;font-variant-ligatures:normal;font-variant-position:normal;font-variant-caps:normal;font-variant-numeric:normal;font-variant-alternates:normal;font-variant-east-asian:normal;font-feature-settings:normal;font-variation-settings:normal;text-indent:0;text-align:start;text-decoration:none;text-decoration-line:none;text-decoration-style:solid;text-decoration-color:#000000;letter-spacing:normal;word-spacing:normal;text-transform:none;writing-mode:lr-tb;direction:ltr;text-orientation:mixed;dominant-baseline:auto;baseline-shift:baseline;text-anchor:start;white-space:normal;shape-padding:0;shape-margin:0;inline-size:0;clip-rule:nonzero;display:inline;overflow:visible;visibility:visible;isolation:auto;mix-blend-mode:normal;color-interpolation:sRGB;color-interpolation-filters:linearRGB;solid-color:#000000;solid-opacity:1;vector-effect:none;fill:#000000;fill-opacity:1;fill-rule:nonzero;stroke:none;stroke-width:0.176484;stroke-linecap:round;stroke-linejoin:round;stroke-miterlimit:4;stroke-dasharray:none;stroke-dashoffset:0;stroke-opacity:1;paint-order:markers stroke fill;color-rendering:auto;image-rendering:auto;shape-rendering:auto;text-rendering:auto;enable-background:accumulate;stop-color:#000000;stop-opacity:1" />
          <path
             id="path3510-12-3"
             d="m 71.35753,128.00571 -0.143624,5.07312 c -0.322275,0.21949 -11.176867,0.005 -13.559373,0.005 -0.274396,0 -0.509349,-0.22126 -0.4953,-0.4953 l 0.24765,-4.83057 c 1.628589,0.0802 13.903491,-1.31387 13.950647,0.24765 z"
             style="color:#000000;font-style:normal;font-variant:normal;font-weight:normal;font-stretch:normal;font-size:medium;line-height:normal;font-family:sans-serif;font-variant-ligatures:normal;font-variant-position:normal;font-variant-caps:normal;font-variant-numeric:normal;font-variant-alternates:normal;font-variant-east-asian:normal;font-feature-settings:normal;font-variation-settings:normal;text-indent:0;text-align:start;text-decoration:none;text-decoration-line:none;text-decoration-style:solid;text-decoration-color:#000000;letter-spacing:normal;word-spacing:normal;text-transform:none;writing-mode:lr-tb;direction:ltr;text-orientation:mixed;dominant-baseline:auto;baseline-shift:baseline;text-anchor:start;white-space:normal;shape-padding:0;shape-margin:0;inline-size:0;clip-rule:nonzero;display:inline;overflow:visible;visibility:visible;isolation:auto;mix-blend-mode:normal;color-interpolation:sRGB;color-interpolation-filters:linearRGB;solid-color:#000000;solid-opacity:1;vector-effect:none;fill:#ffffff;fill-opacity:1;fill-rule:nonzero;stroke:none;stroke-width:0.176484;stroke-linecap:round;stroke-linejoin:round;stroke-miterlimit:4;stroke-dasharray:none;stroke-dashoffset:0;stroke-opacity:1;paint-order:markers stroke fill;color-rendering:auto;image-rendering:auto;shape-rendering:auto;text-rendering:auto;enable-background:accumulate;stop-color:#000000;stop-opacity:1" />
        </g>
        <g
           aria-label="Milo"
           id="text3514-54-5"
           style="font-style:normal;font-variant:normal;font-weight:bold;font-stretch:normal;font-size:4.23333px;line-height:1.25;font-family:Arial;-inkscape-font-specification:'Arial, Bold';font-variant-ligatures:normal;font-variant-caps:normal;font-variant-numeric:normal;font-feature-settings:normal;text-align:start;letter-spacing:0px;word-spacing:0px;writing-mode:lr-tb;text-anchor:start;fill:#000000;fill-opacity:1;stroke:none;stroke-width:0.264583">
          <path
             d="m 175.08433,132.3456 v -3.03031 h 0.91571 l 0.54983,2.06706 0.54364,-2.06706 h 0.91777 v 3.03031 h -0.56844 v -2.38539 l -0.60151,2.38539 h -0.58911 l -0.59945,-2.38539 v 2.38539 z"
             style="stroke-width:0.264583"
             id="path22098" />
          <path
             d="m 178.619,129.85273 v -0.53744 h 0.58084 v 0.53744 z m 0,2.49287 v -2.19522 h 0.58084 v 2.19522 z"
             style="stroke-width:0.264583"
             id="path22100" />
          <path
             d="m 179.79308,132.3456 v -3.03031 h 0.58085 v 3.03031 z"
             style="stroke-width:0.264583"
             id="path22102" />
          <path
             d="m 180.83281,131.21698 q 0,-0.28938 0.14263,-0.56017 0.14263,-0.27078 0.40307,-0.41341 0.26252,-0.14263 0.58498,-0.14263 0.49816,0 0.81649,0.32453 0.31832,0.32246 0.31832,0.81649 0,0.49816 -0.32246,0.82682 -0.32039,0.3266 -0.80822,0.3266 -0.30179,0 -0.5767,-0.13643 -0.27285,-0.13643 -0.41548,-0.39894 -0.14263,-0.26458 -0.14263,-0.64286 z m 0.59531,0.031 q 0,0.32659 0.15503,0.50023 0.15503,0.17363 0.38241,0.17363 0.22737,0 0.38034,-0.17363 0.15503,-0.17364 0.15503,-0.50436 0,-0.32246 -0.15503,-0.4961 -0.15297,-0.17363 -0.38034,-0.17363 -0.22738,0 -0.38241,0.17363 -0.15503,0.17364 -0.15503,0.50023 z"
             style="stroke-width:0.264583"
             id="path22104" />
        </g>
        <path
           style="color:#000000;font-style:normal;font-variant:normal;font-weight:normal;font-stretch:normal;font-size:medium;line-height:normal;font-family:sans-serif;font-variant-ligatures:normal;font-variant-position:normal;font-variant-caps:normal;font-variant-numeric:normal;font-variant-alternates:normal;font-variant-east-asian:normal;font-feature-settings:normal;font-variation-settings:normal;text-indent:0;text-align:start;text-decoration:none;text-decoration-line:none;text-decoration-style:solid;text-decoration-color:#000000;letter-spacing:normal;word-spacing:normal;text-transform:none;writing-mode:lr-tb;direction:ltr;text-orientation:mixed;dominant-baseline:auto;baseline-shift:baseline;text-anchor:start;white-space:normal;shape-padding:0;shape-margin:0;inline-size:0;clip-rule:nonzero;display:inline;overflow:visible;visibility:visible;opacity:1;isolation:auto;mix-blend-mode:normal;color-interpolation:sRGB;color-interpolation-filters:linearRGB;solid-color:#000000;solid-opacity:1;vector-effect:none;fill:#000000;fill-opacity:1;fill-rule:nonzero;stroke:none;stroke-width:0.054601;stroke-linecap:round;stroke-linejoin:round;stroke-miterlimit:4;stroke-dasharray:none;stroke-dashoffset:0;stroke-opacity:1;color-rendering:auto;image-rendering:auto;shape-rendering:auto;text-rendering:auto;enable-background:accumulate;stop-color:#000000;stop-opacity:1"
           d="m 181.05664,122.53906 c -0.0129,7.6e-4 -0.0234,0.009 -0.0293,0.0156 -0.0117,0.0136 -0.0149,0.0289 -0.0195,0.0449 -0.009,0.032 -0.0174,0.0708 -0.0234,0.0859 -0.0665,0.16688 -0.11654,0.34921 -0.16016,0.52148 -0.179,0.70667 0.0881,1.42837 0.0527,2.11328 -0.0135,-0.009 -0.0331,-0.0242 -0.0586,-0.0508 -0.06,-0.0627 -0.14284,-0.16281 -0.23047,-0.27539 -0.17801,-0.22871 -0.47662,-0.73475 -0.75391,-1.17969 -0.13864,-0.22247 -0.27124,-0.43054 -0.38281,-0.58203 -0.0558,-0.0757 -0.10668,-0.13833 -0.15039,-0.18164 -0.0219,-0.0217 -0.041,-0.0387 -0.0606,-0.0508 -0.0139,-0.009 -0.0283,-0.0114 -0.043,-0.0137 a 0.02730323,0.02730323 0 0 0 -0.0176,-0.004 c -0.0162,0.002 -0.0288,0.011 -0.0371,0.0215 -0.008,0.0105 -0.0155,0.0241 -0.0215,0.0391 -0.0121,0.03 -0.0215,0.0705 -0.0312,0.12109 -0.0195,0.10126 -0.0354,0.24386 -0.0488,0.41602 -0.0269,0.34432 -0.0415,0.80618 -0.041,1.29101 5e-4,0.48483 0.0149,0.99258 0.0488,1.42188 0.0339,0.4293 0.0858,0.77994 0.16211,0.96289 a 0.02730323,0.02730323 0 0 0 0.0332,0.0156 c 0.0214,-0.007 0.0404,-0.0215 0.0684,-0.043 0.028,-0.0214 0.0619,-0.0505 0.0996,-0.084 0.0755,-0.0669 0.16551,-0.15372 0.25391,-0.24219 0.0884,-0.0885 0.17388,-0.17853 0.23828,-0.25195 0.0322,-0.0367 0.0605,-0.0691 0.0801,-0.0957 0.01,-0.0133 0.0174,-0.0245 0.0234,-0.0352 0.006,-0.0106 0.0104,-0.02 0.0117,-0.0332 0.03,-0.32133 -0.0271,-0.66989 -0.0527,-0.98047 -0.002,-0.0289 -0.012,-0.0789 -0.0254,-0.14063 -0.0134,-0.0617 -0.032,-0.13368 -0.0488,-0.20312 -0.0232,-0.096 -0.0331,-0.13719 -0.0449,-0.18359 l 1.69726,1.42382 a 0.02730323,0.02730323 0 0 0 0.043,-0.0117 c 0,0 0.11716,-0.35915 0.21484,-0.79882 0.0977,-0.43967 0.17791,-0.95868 0.10352,-1.29102 l 0.002,0.006 c 0,-0.0371 9.4e-4,-0.0658 0.004,-0.0859 0.002,-0.0136 0.004,-0.0163 0.006,-0.0215 0.004,0.003 0.006,0.004 0.0117,0.0117 0.0384,0.0521 0.0996,0.19073 0.16211,0.34961 0.0625,0.15888 0.12756,0.33981 0.18554,0.49023 0.029,0.0752 0.0565,0.14244 0.0801,0.19531 0.0235,0.0529 0.0415,0.0909 0.0625,0.11329 0.0471,0.0502 0.11425,0.0557 0.17969,0.0371 0.0654,-0.0186 0.13375,-0.0593 0.20117,-0.10546 0.0674,-0.0462 0.13358,-0.0977 0.19141,-0.14063 0.0578,-0.0429 0.10961,-0.0761 0.13672,-0.084 0.0499,-0.0145 0.13481,-0.0231 0.2207,-0.0352 0.0859,-0.0121 0.17398,-0.027 0.23828,-0.0644 0.0132,-0.008 0.0232,-0.0199 0.0273,-0.0352 0.004,-0.0153 5.1e-4,-0.0315 -0.006,-0.043 -0.0127,-0.0229 -0.0339,-0.039 -0.0586,-0.0566 -0.0494,-0.0353 -0.11456,-0.0693 -0.14648,-0.0918 -0.30465,-0.215 -0.59696,-0.44705 -0.88086,-0.68945 -0.35322,-0.30157 -0.69411,-0.61496 -1.00977,-0.95508 -0.13075,-0.14087 -0.26931,-0.40214 -0.42578,-0.54297 -0.008,-0.007 -0.0183,-0.0144 -0.0312,-0.0137 z m 0.006,0.0684 c 0.13867,0.13204 0.27596,0.3787 0.41211,0.52539 0.31758,0.34219 0.65941,0.65652 1.01367,0.95899 0.28489,0.24324 0.57844,0.47716 0.88477,0.69336 0.0385,0.0272 0.10218,0.0601 0.14648,0.0918 0.0222,0.0158 0.0389,0.0318 0.043,0.0391 5.5e-4,-0.002 0.002,-0.001 -0.004,0.002 -0.0506,0.0294 -0.13268,0.0468 -0.21679,0.0586 -0.0841,0.0118 -0.16866,0.0197 -0.22852,0.0371 -0.0448,0.0131 -0.0955,0.0481 -0.1543,0.0918 -0.0588,0.0436 -0.12414,0.0959 -0.18945,0.14062 -0.0653,0.0448 -0.13088,0.0821 -0.18555,0.0977 -0.0547,0.0155 -0.0933,0.0123 -0.125,-0.0215 -0.008,-0.008 -0.0299,-0.0464 -0.0527,-0.0977 -0.0228,-0.0513 -0.0493,-0.11854 -0.0781,-0.19336 -0.0577,-0.14965 -0.12267,-0.33232 -0.18554,-0.49219 -0.0629,-0.15986 -0.12156,-0.29385 -0.16992,-0.35937 -0.0121,-0.0164 -0.0224,-0.0292 -0.0391,-0.0371 -0.008,-0.004 -0.0203,-0.007 -0.0312,-0.004 -0.0109,0.003 -0.0196,0.01 -0.0254,0.0176 -0.0116,0.0153 -0.0159,0.0323 -0.0195,0.0566 -0.004,0.0243 -0.004,0.055 -0.004,0.0937 a 0.02730323,0.02730323 0 0 0 0,0.006 c 0.0698,0.31181 -0.008,0.83068 -0.10547,1.26758 -0.0923,0.41546 -0.19074,0.72125 -0.20117,0.7539 l -1.72852,-1.45117 a 0.02730323,0.02730323 0 0 0 -0.0449,0.0273 c 0,0 0.0329,0.12722 0.0664,0.26562 0.0167,0.0692 0.0336,0.14017 0.0469,0.20117 0.0133,0.061 0.0237,0.11185 0.0254,0.13282 0.0259,0.31385 0.0818,0.6615 0.0527,0.97265 3.2e-4,-0.003 -0.001,0.002 -0.006,0.01 -0.004,0.008 -0.0105,0.019 -0.0195,0.0312 -0.018,0.0245 -0.0446,0.0558 -0.0762,0.0918 -0.0632,0.072 -0.14857,0.16022 -0.23633,0.24805 -0.0878,0.0878 -0.17768,0.17439 -0.25195,0.24024 -0.0371,0.0329 -0.0694,0.0619 -0.0957,0.082 -0.0126,0.01 -0.0164,0.01 -0.0254,0.0156 -0.0663,-0.17397 -0.11786,-0.50181 -0.15039,-0.91406 -0.0337,-0.42726 -0.0483,-0.93232 -0.0488,-1.41602 -5e-4,-0.48369 0.0143,-0.94505 0.041,-1.28711 0.0134,-0.17102 0.0281,-0.31265 0.0469,-0.41015 0.009,-0.0487 0.0196,-0.0873 0.0293,-0.11133 0.005,-0.012 0.0105,-0.0194 0.0137,-0.0234 0,0 0,-0.002 0,-0.002 0.003,-2.7e-4 0.0114,0.001 0.0254,0.01 0.014,0.009 0.0327,0.0231 0.0527,0.043 0.0401,0.0397 0.0877,0.10126 0.14258,0.17578 0.10977,0.14905 0.24443,0.35413 0.38281,0.57618 0.27677,0.4441 0.57216,0.94952 0.75586,1.18554 0.0881,0.11313 0.17137,0.21543 0.23438,0.28125 0.0315,0.0329 0.058,0.0572 0.082,0.0703 0.012,0.007 0.0249,0.0127 0.043,0.006 0.009,-0.003 0.0176,-0.0119 0.0215,-0.0195 0.004,-0.008 0.003,-0.0142 0.004,-0.0215 0.0424,-0.70695 -0.22792,-1.43144 -0.0527,-2.12305 0.0434,-0.17131 0.0932,-0.35252 0.15821,-0.51562 0.011,-0.0274 0.0176,-0.0651 0.0254,-0.0918 9.7e-4,-0.003 8.8e-4,-0.003 0.002,-0.006 z"
           id="path23010" />
        <path
           style="color:#000000;font-style:normal;font-variant:normal;font-weight:normal;font-stretch:normal;font-size:medium;line-height:normal;font-family:sans-serif;font-variant-ligatures:normal;font-variant-position:normal;font-variant-caps:normal;font-variant-numeric:normal;font-variant-alternates:normal;font-variant-east-asian:normal;font-feature-settings:normal;font-variation-settings:normal;text-indent:0;text-align:start;text-decoration:none;text-decoration-line:none;text-decoration-style:solid;text-decoration-color:#000000;letter-spacing:normal;word-spacing:normal;text-transform:none;writing-mode:lr-tb;direction:ltr;text-orientation:mixed;dominant-baseline:auto;baseline-shift:baseline;text-anchor:start;white-space:normal;shape-padding:0;shape-margin:0;inline-size:0;clip-rule:nonzero;display:inline;overflow:visible;visibility:visible;opacity:1;isolation:auto;mix-blend-mode:normal;color-interpolation:sRGB;color-interpolation-filters:linearRGB;solid-color:#000000;solid-opacity:1;vector-effect:none;fill:#000000;fill-opacity:1;fill-rule:nonzero;stroke:none;stroke-width:0.054601;stroke-linecap:round;stroke-linejoin:round;stroke-miterlimit:4;stroke-dasharray:none;stroke-dashoffset:0;stroke-opacity:1;color-rendering:auto;image-rendering:auto;shape-rendering:auto;text-rendering:auto;enable-background:accumulate;stop-color:#000000;stop-opacity:1"
           d="m 182.42383,122.2207 a 0.02730323,0.02730323 0 0 0 -0.0176,0.008 c -0.15079,0.15998 -0.31366,0.39736 -0.50195,0.58593 -0.18829,0.18857 -0.3974,0.32483 -0.64258,0.29297 -0.002,-2.6e-4 -0.003,1.8e-4 -0.004,0 -0.002,-3e-4 -0.004,1.6e-4 -0.006,0 0,0 -0.002,-0.002 -0.002,-0.002 0,0 -0.002,0 -0.002,0 0,0 -0.002,0 -0.002,0 0,0 -0.0117,0.006 -0.0117,0.006 0,0 0.002,0.0469 0.002,0.0469 0,0 0.002,0 0.002,0 1e-4,3e-5 0.005,0.002 0.006,0.002 3e-4,5e-5 0.002,-5e-5 0.002,0 4.7e-4,7e-5 0.001,0.002 0.002,0.002 7.5e-4,9e-5 0.003,-1.6e-4 0.004,0 9.3e-4,1.2e-4 8.6e-4,-1.4e-4 0.002,0 0.008,0.001 0.0213,0.002 0.0391,0.006 0.0186,0.004 0.0406,0.01 0.0586,0.0156 0.0179,0.006 0.0321,0.0128 0.0352,0.0156 a 0.0273005,0.0273005 0 0 0 0.0391,0 0.0273005,0.0273005 0 0 0 -0.002,-0.0391 c -0.0157,-0.0148 -0.0335,-0.0224 -0.0547,-0.0293 -0.01,-0.003 -0.0193,-0.005 -0.0293,-0.008 0.22615,-0.008 0.43435,-0.10011 0.60352,-0.26953 0.17984,-0.18011 0.33082,-0.39271 0.46875,-0.54688 0.0191,0.11091 0.0378,0.22288 0.0742,0.33203 0.10714,0.32067 0.21335,0.6417 0.35937,0.94922 0.0503,0.10596 0.0686,0.24238 0.15625,0.3457 -0.0901,-0.002 -0.18279,-0.003 -0.25781,0.043 -0.10396,0.0644 -0.19175,0.15919 -0.26562,0.24805 -0.0366,0.044 -0.0783,0.12804 -0.11329,0.19141 a 0.0273005,0.0273005 0 0 0 -0.0215,-0.0254 0.0273005,0.0273005 0 0 0 -0.0312,0.0195 c -0.004,0.0204 -0.0176,0.0456 -0.0176,0.0781 0,0.008 0.002,0.0146 0.004,0.0215 8e-4,0.003 0.002,0.008 0.004,0.0117 0.001,0.002 0.004,0.005 0.004,0.006 3.5e-4,4.2e-4 0.005,0.006 0.006,0.006 7.9e-4,5.4e-4 0.0186,0.006 0.0195,0.006 4.8e-4,-2e-5 0.007,-0.002 0.008,-0.002 5.3e-4,-1.6e-4 0.004,-0.001 0.006,-0.002 0.007,-0.004 0.0116,-0.007 0.0156,-0.0117 0.0162,-0.0175 0.0306,-0.0454 0.0488,-0.0781 0.0363,-0.0654 0.0821,-0.15272 0.10937,-0.18554 0.0723,-0.087 0.15867,-0.17733 0.25391,-0.23633 0.0905,-0.0561 0.18789,-0.0778 0.29492,-0.0508 0.002,3.3e-4 0.004,0.004 0.006,0.004 0.005,5.9e-4 0.011,4e-4 0.0156,0 0.002,-2e-4 0.004,5.1e-4 0.006,0 0.002,-5e-4 0.007,-0.002 0.008,-0.002 7e-4,-3e-4 0.0114,-0.007 0.0117,-0.008 1.8e-4,-1.7e-4 0.006,-0.008 0.006,-0.008 8e-5,-1.7e-4 0.002,-0.0154 0.002,-0.0156 -3e-5,-1.8e-4 -0.006,-0.0135 -0.006,-0.0137 -1.3e-4,-1.8e-4 -0.006,-0.006 -0.006,-0.006 -2.4e-4,-1.7e-4 -0.006,-0.004 -0.006,-0.004 -3.5e-4,-1.5e-4 -0.003,-0.002 -0.004,-0.002 -0.008,-0.002 -0.0137,0.006 -0.0215,0.004 -0.008,-8.8e-4 -0.0207,-0.005 -0.0352,-0.0215 -0.0749,-0.0873 -0.0947,-0.21866 -0.15039,-0.33594 -0.14409,-0.30344 -0.25024,-0.62257 -0.35742,-0.94336 -0.0406,-0.12162 -0.0619,-0.24993 -0.084,-0.3789 a 0.02730323,0.02730323 0 0 0 -0.0293,-0.0215 z"
           id="path23006" />
        <path
           style="color:#000000;font-style:normal;font-variant:normal;font-weight:normal;font-stretch:normal;font-size:medium;line-height:normal;font-family:sans-serif;font-variant-ligatures:normal;font-variant-position:normal;font-variant-caps:normal;font-variant-numeric:normal;font-variant-alternates:normal;font-variant-east-asian:normal;font-feature-settings:normal;font-variation-settings:normal;text-indent:0;text-align:start;text-decoration:none;text-decoration-line:none;text-decoration-style:solid;text-decoration-color:#000000;letter-spacing:normal;word-spacing:normal;text-transform:none;writing-mode:lr-tb;direction:ltr;text-orientation:mixed;dominant-baseline:auto;baseline-shift:baseline;text-anchor:start;white-space:normal;shape-padding:0;shape-margin:0;inline-size:0;clip-rule:nonzero;display:inline;overflow:visible;visibility:visible;opacity:1;isolation:auto;mix-blend-mode:normal;color-interpolation:sRGB;color-interpolation-filters:linearRGB;solid-color:#000000;solid-opacity:1;vector-effect:none;fill:#000000;fill-opacity:1;fill-rule:nonzero;stroke:none;stroke-width:0.054601;stroke-linecap:round;stroke-linejoin:round;stroke-miterlimit:4;stroke-dasharray:none;stroke-dashoffset:0;stroke-opacity:1;color-rendering:auto;image-rendering:auto;shape-rendering:auto;text-rendering:auto;enable-background:accumulate;stop-color:#000000;stop-opacity:1"
           d="m 181.62109,121.14844 c -0.39219,0.0296 -0.74186,0.27803 -0.85937,0.54687 -0.0588,0.13442 -0.0565,0.27697 0.0332,0.39258 0.042,0.0541 0.16992,0.0725 0.25,0.11133 0.0108,0.0142 0.003,0.0421 0.0156,0.0547 0.0982,0.0979 0.24889,0.14357 0.43164,0.13086 0.30625,-0.0213 0.52141,-0.1116 0.6582,-0.23633 0.13679,-0.12474 0.19338,-0.28339 0.18359,-0.4375 -0.0196,-0.30823 -0.30205,-0.59353 -0.71289,-0.5625 z m 0.004,0.0547 c 0.38405,-0.029 0.63866,0.23458 0.65625,0.51172 0.009,0.13858 -0.0426,0.28025 -0.16797,0.39454 -0.12533,0.11428 -0.32756,0.2 -0.625,0.2207 -0.0568,0.004 -0.0809,-0.0296 -0.1289,-0.0371 a 0.0273005,0.0273005 0 0 0 -0.0215,-0.0215 c -0.1341,-0.0173 -0.1695,-0.0716 -0.25195,-0.10937 -0.0617,-0.0829 -0.10615,-0.18215 -0.0859,-0.32813 a 0.0273005,0.0273005 0 0 0 -0.0234,-0.0312 0.0273005,0.0273005 0 0 0 -0.0312,0.0234 c -0.0182,0.13183 0.0354,0.22037 0.084,0.31055 -0.0544,-0.0312 -0.16208,-0.0442 -0.19141,-0.082 -0.0768,-0.0989 -0.0785,-0.21633 -0.0254,-0.33789 0.10627,-0.24313 0.44109,-0.48561 0.8125,-0.51368 z"
           id="path23002" />
        <path
           style="color:#000000;font-style:normal;font-variant:normal;font-weight:normal;font-stretch:normal;font-size:medium;line-height:normal;font-family:sans-serif;font-variant-ligatures:normal;font-variant-position:normal;font-variant-caps:normal;font-variant-numeric:normal;font-variant-alternates:normal;font-variant-east-asian:normal;font-feature-settings:normal;font-variation-settings:normal;text-indent:0;text-align:start;text-decoration:none;text-decoration-line:none;text-decoration-style:solid;text-decoration-color:#000000;letter-spacing:normal;word-spacing:normal;text-transform:none;writing-mode:lr-tb;direction:ltr;text-orientation:mixed;dominant-baseline:auto;baseline-shift:baseline;text-anchor:start;white-space:normal;shape-padding:0;shape-margin:0;inline-size:0;clip-rule:nonzero;display:inline;overflow:visible;visibility:visible;opacity:1;isolation:auto;mix-blend-mode:normal;color-interpolation:sRGB;color-interpolation-filters:linearRGB;solid-color:#000000;solid-opacity:1;vector-effect:none;fill:#000000;fill-opacity:1;fill-rule:nonzero;stroke:none;stroke-width:0.054601;stroke-linecap:round;stroke-linejoin:round;stroke-miterlimit:4;stroke-dasharray:none;stroke-dashoffset:0;stroke-opacity:1;color-rendering:auto;image-rendering:auto;shape-rendering:auto;text-rendering:auto;enable-background:accumulate;stop-color:#000000;stop-opacity:1"
           d="m 183.31836,121.92578 c -7.4e-4,1e-5 -0.007,10e-4 -0.01,0.002 -0.006,0.002 -0.009,0.003 -0.0137,0.006 -0.26299,0.16138 -0.40897,0.4594 -0.64453,0.625 a 0.0273005,0.0273005 0 0 0 -0.008,0.0391 0.0273005,0.0273005 0 0 0 0.0391,0.006 c 0.22703,-0.15961 0.37479,-0.40356 0.58008,-0.5625 -0.002,0.006 -0.006,0.0114 -0.008,0.0176 -0.008,0.0219 -0.0137,0.0439 -0.0117,0.0664 0.0122,0.14318 0.0533,0.27867 0.082,0.41406 0.0959,0.45414 0.18525,0.88816 0.38476,1.31641 0.038,0.0816 0.0616,0.12656 0.0937,0.15039 0.0161,0.0119 0.0387,0.0176 0.0566,0.0117 0.018,-0.006 0.0307,-0.0177 0.043,-0.0312 0.0492,-0.0541 0.10178,-0.15222 0.22461,-0.21875 0.14216,-0.077 0.32456,-0.10637 0.48828,-0.17578 0.0162,0.0603 0.0392,0.11664 0.0586,0.17187 0.0974,0.27878 0.0851,0.26231 0.20508,0.52149 0.0134,0.0291 0.11364,0.23715 0.20507,0.4414 0.0457,0.10213 0.0905,0.20286 0.11914,0.27735 0.0143,0.0372 0.0241,0.0678 0.0293,0.0879 0.002,0.006 0.001,0.008 0.002,0.0117 -0.26103,0.0285 -0.46747,0.14529 -0.65626,0.2832 -0.19549,0.1428 -0.37984,0.29992 -0.60546,0.39453 -0.0105,0.004 -0.0294,0.0144 -0.0566,0.0273 -0.0272,0.013 -0.0601,0.0287 -0.0937,0.043 -0.0336,0.0143 -0.0678,0.028 -0.0937,0.0352 -0.013,0.004 -0.0242,0.005 -0.0312,0.006 -0.007,4.1e-4 -0.008,-0.002 -0.004,0.002 -0.12323,-0.0975 -0.27174,-0.33012 -0.35156,-0.47265 -0.11012,-0.19663 -0.21176,-0.386 -0.28125,-0.59376 a 0.0273005,0.0273005 0 0 0 -0.0332,-0.0156 0.0273005,0.0273005 0 0 0 -0.0176,0.0332 c 0.0714,0.21339 0.1747,0.4063 0.28515,0.60352 0.0814,0.14531 0.22643,0.37849 0.36524,0.48828 0.0139,0.011 0.0277,0.0105 0.041,0.01 0.0133,-7.8e-4 0.0258,-0.004 0.041,-0.008 0.0304,-0.008 0.0668,-0.0223 0.10156,-0.0371 0.0348,-0.0148 0.0682,-0.0298 0.0957,-0.043 0.0275,-0.0131 0.0497,-0.0253 0.0547,-0.0273 0.2359,-0.0989 0.42225,-0.26137 0.61524,-0.40234 0.19298,-0.14097 0.39193,-0.25994 0.65234,-0.28125 7.5e-4,-6e-5 0.017,-0.005 0.0176,-0.006 5.5e-4,-4.4e-4 0.007,-0.0129 0.008,-0.0137 3.5e-4,-8.1e-4 0.003,-0.007 0.004,-0.01 4e-4,-0.003 5e-5,-0.005 0,-0.008 -2e-4,-0.0103 -0.003,-0.0212 -0.006,-0.0332 -0.006,-0.0241 -0.0166,-0.0556 -0.0312,-0.0937 -0.0294,-0.0764 -0.0732,-0.17674 -0.11914,-0.2793 -0.0918,-0.20512 -0.19321,-0.41765 -0.20508,-0.44336 -0.11977,-0.25876 -0.10551,-0.23616 -0.20313,-0.51563 -0.0199,-0.0569 -0.0418,-0.11163 -0.0566,-0.16601 7.9e-4,-0.002 6.4e-4,-0.005 0.002,-0.008 8.6e-4,-0.002 10e-4,-0.004 0.002,-0.006 9.2e-4,-0.002 0.004,-0.009 0.004,-0.01 1.1e-4,-5.3e-4 5e-5,-0.009 0,-0.01 -2e-5,-1.9e-4 -0.002,-0.008 -0.002,-0.008 -6e-5,-1.4e-4 -0.008,-0.01 -0.008,-0.01 -1.1e-4,-1e-4 -0.0116,-0.006 -0.0117,-0.006 -1.6e-4,-5e-5 -0.008,-0.002 -0.008,-0.002 -2.1e-4,10e-6 -0.006,0.002 -0.006,0.002 -2.7e-4,6e-5 -0.003,0.002 -0.004,0.002 a 0.02730323,0.02730323 0 0 0 -0.004,0 c -0.16255,0.0798 -0.36441,0.10192 -0.53321,0.19336 -0.13709,0.0743 -0.20189,0.1883 -0.24023,0.23047 -0.01,0.0105 -0.0172,0.0149 -0.0195,0.0156 -0.002,7.6e-4 4.1e-4,0.003 -0.006,-0.002 -0.0125,-0.009 -0.0411,-0.0514 -0.0781,-0.13086 -0.19619,-0.42111 -0.28494,-0.85042 -0.38086,-1.30469 -0.0293,-0.1384 -0.0704,-0.27258 -0.082,-0.4082 -4.9e-4,-0.006 0.003,-0.0221 0.01,-0.041 0.007,-0.019 0.0169,-0.0415 0.0254,-0.0605 0.008,-0.0191 0.0162,-0.0344 0.0195,-0.0508 4.1e-4,-0.002 -1.8e-4,-0.003 0,-0.006 1.8e-4,-0.002 1.1e-4,-0.007 0,-0.008 -1.1e-4,-7.6e-4 -0.004,-0.0112 -0.004,-0.0117 -3e-4,-5.3e-4 -0.0112,-0.0115 -0.0117,-0.0117 -5.1e-4,-2.7e-4 -0.0149,-0.004 -0.0156,-0.004 z"
           id="path22998" />
        <path
           style="color:#000000;font-style:normal;font-variant:normal;font-weight:normal;font-stretch:normal;font-size:medium;line-height:normal;font-family:sans-serif;font-variant-ligatures:normal;font-variant-position:normal;font-variant-caps:normal;font-variant-numeric:normal;font-variant-alternates:normal;font-variant-east-asian:normal;font-feature-settings:normal;font-variation-settings:normal;text-indent:0;text-align:start;text-decoration:none;text-decoration-line:none;text-decoration-style:solid;text-decoration-color:#000000;letter-spacing:normal;word-spacing:normal;text-transform:none;writing-mode:lr-tb;direction:ltr;text-orientation:mixed;dominant-baseline:auto;baseline-shift:baseline;text-anchor:start;white-space:normal;shape-padding:0;shape-margin:0;inline-size:0;clip-rule:nonzero;display:inline;overflow:visible;visibility:visible;opacity:1;isolation:auto;mix-blend-mode:normal;color-interpolation:sRGB;color-interpolation-filters:linearRGB;solid-color:#000000;solid-opacity:1;vector-effect:none;fill:#000000;fill-opacity:1;fill-rule:nonzero;stroke:none;stroke-width:0.054601;stroke-linecap:round;stroke-linejoin:round;stroke-miterlimit:4;stroke-dasharray:none;stroke-dashoffset:0;stroke-opacity:1;color-rendering:auto;image-rendering:auto;shape-rendering:auto;text-rendering:auto;enable-background:accumulate;stop-color:#000000;stop-opacity:1"
           d="m 184.31836,121.43359 c -0.24711,0.054 -0.45645,0.23624 -0.57031,0.58203 a 0.0273005,0.0273005 0 0 0 0.0176,0.0332 0.0273005,0.0273005 0 0 0 0.0352,-0.0176 c 0.10953,-0.33265 0.30048,-0.49496 0.5293,-0.54492 0.22882,-0.05 0.4981,0.0162 0.75976,0.15429 0.52334,0.2761 1.0052,0.843 1.05078,1.30274 0.0235,0.23755 -0.13218,0.44632 -0.23828,0.66406 -0.18272,0.37495 -0.42326,0.57158 -0.67968,0.59766 -0.25643,0.0261 -0.53823,-0.11755 -0.8086,-0.44531 a 0.0273005,0.0273005 0 0 0 -0.0391,-0.004 0.0273005,0.0273005 0 0 0 -0.002,0.0371 c 0.27727,0.33613 0.57497,0.49532 0.85547,0.4668 0.28049,-0.0285 0.53497,-0.24378 0.72265,-0.62891 0.1026,-0.21056 0.27024,-0.42955 0.24414,-0.69336 -0.0488,-0.49217 -0.54195,-1.0618 -1.08008,-1.3457 -0.26906,-0.14195 -0.54977,-0.21216 -0.79687,-0.15821 z"
           id="path22994" />
        <path
           style="color:#000000;font-style:normal;font-variant:normal;font-weight:normal;font-stretch:normal;font-size:medium;line-height:normal;font-family:sans-serif;font-variant-ligatures:normal;font-variant-position:normal;font-variant-caps:normal;font-variant-numeric:normal;font-variant-alternates:normal;font-variant-east-asian:normal;font-feature-settings:normal;font-variation-settings:normal;text-indent:0;text-align:start;text-decoration:none;text-decoration-line:none;text-decoration-style:solid;text-decoration-color:#000000;letter-spacing:normal;word-spacing:normal;text-transform:none;writing-mode:lr-tb;direction:ltr;text-orientation:mixed;dominant-baseline:auto;baseline-shift:baseline;text-anchor:start;white-space:normal;shape-padding:0;shape-margin:0;inline-size:0;clip-rule:nonzero;display:inline;overflow:visible;visibility:visible;opacity:1;isolation:auto;mix-blend-mode:normal;color-interpolation:sRGB;color-interpolation-filters:linearRGB;solid-color:#000000;solid-opacity:1;vector-effect:none;fill:#000000;fill-opacity:1;fill-rule:nonzero;stroke:none;stroke-width:0.054601;stroke-linecap:round;stroke-linejoin:round;stroke-miterlimit:4;stroke-dasharray:none;stroke-dashoffset:0;stroke-opacity:1;color-rendering:auto;image-rendering:auto;shape-rendering:auto;text-rendering:auto;enable-background:accumulate;stop-color:#000000;stop-opacity:1"
           d="m 184.81641,122.01953 c -0.12674,-0.0106 -0.26463,0.0508 -0.37696,0.14258 -0.0766,0.0626 -0.10822,0.14881 -0.14648,0.23047 0.0156,-0.0601 -0.007,-0.12074 0.01,-0.18164 a 0.0273005,0.0273005 0 0 0 -0.0176,-0.0332 0.0273005,0.0273005 0 0 0 -0.0352,0.0195 c -0.0244,0.0882 0.004,0.18956 -0.0137,0.2832 -0.001,0.007 -0.0109,0.0125 -0.0117,0.0195 -0.002,0.0142 0.009,0.0268 0.01,0.041 -0.0146,0.11236 -0.0724,0.21691 -0.0156,0.33593 0.0769,0.16109 0.2874,0.26502 0.49023,0.27735 0.10142,0.006 0.20252,-0.0115 0.28321,-0.0606 0.0807,-0.049 0.13942,-0.1311 0.15625,-0.24609 0.0267,-0.18235 -0.0222,-0.36491 -0.0566,-0.53711 -0.0191,-0.0951 -0.0553,-0.16484 -0.10352,-0.21289 -0.0483,-0.0481 -0.10851,-0.0728 -0.17187,-0.0781 z m -0.004,0.0547 c 0.0526,0.004 0.0998,0.0238 0.13867,0.0625 0.0389,0.0387 0.0704,0.0982 0.0879,0.18555 0.0349,0.17449 0.0812,0.35006 0.0566,0.51757 -0.0148,0.10084 -0.0646,0.1656 -0.13281,0.20704 -0.0682,0.0414 -0.15697,0.0584 -0.25,0.0527 -0.18606,-0.0113 -0.38195,-0.11327 -0.44531,-0.24609 -0.0273,-0.0572 0.0154,-0.1119 0.01,-0.16797 0.0377,0.0494 0.0933,0.091 0.17578,0.12109 a 0.0273005,0.0273005 0 0 0 0.0352,-0.0156 0.0273005,0.0273005 0 0 0 -0.0156,-0.0352 c -0.0803,-0.0293 -0.13283,-0.067 -0.16211,-0.10938 -0.024,-0.0347 -0.0258,-0.0749 -0.0254,-0.11523 0.002,-0.0123 -2.6e-4,-0.0248 0.002,-0.0371 0.0167,-0.0983 0.0873,-0.2072 0.1875,-0.28906 0.1043,-0.0852 0.23266,-0.13969 0.33789,-0.13086 z"
           id="path22990" />
      </g>
    </g>
  </g>
</svg>
