<?xml version="1.0" encoding="UTF-8" standalone="no"?>
<svg
   xmlns:dc="http://purl.org/dc/elements/1.1/"
   xmlns:cc="http://creativecommons.org/ns#"
   xmlns:rdf="http://www.w3.org/1999/02/22-rdf-syntax-ns#"
   xmlns:svg="http://www.w3.org/2000/svg"
   xmlns="http://www.w3.org/2000/svg"
   xmlns:sodipodi="http://sodipodi.sourceforge.net/DTD/sodipodi-0.dtd"
   xmlns:inkscape="http://www.inkscape.org/namespaces/inkscape"
   inkscape:version="1.0 (4035a4fb49, 2020-05-01)"
   sodipodi:docname="2020-LT-01_taskbody3-compatible.svg"
   id="svg1157"
   viewBox="0 0 2461.2017 1968.9388"
   style="clip-rule:evenodd;fill-rule:evenodd;image-rendering:optimizeQuality;shape-rendering:geometricPrecision;text-rendering:geometricPrecision"
   version="1.1"
   height="20mm"
   width="25mm"
   xml:space="preserve"><metadata
   id="metadata1161"><rdf:RDF><cc:Work
       rdf:about=""><dc:format>image/svg+xml</dc:format><dc:type
         rdf:resource="http://purl.org/dc/dcmitype/StillImage" /><dc:title></dc:title></cc:Work></rdf:RDF></metadata><sodipodi:namedview
   fit-margin-bottom="0"
   fit-margin-right="0"
   fit-margin-left="0"
   fit-margin-top="0"
   inkscape:snap-global="false"
   inkscape:current-layer="_806366064"
   showgrid="false"
   id="namedview1159"
   inkscape:window-height="480"
   inkscape:window-width="640"
   inkscape:pageshadow="2"
   inkscape:pageopacity="0"
   guidetolerance="10"
   gridtolerance="10"
   objecttolerance="10"
   borderopacity="1"
   bordercolor="#666666"
   pagecolor="#ffffff" />
 <defs
   id="defs4">
  <style
   id="style2"
   type="text/css">
   <![CDATA[
    .str1 {stroke:#2B2A29;stroke-width:14.7676;stroke-linecap:round;stroke-linejoin:round}
    .str0 {stroke:#2B2A29;stroke-width:49.2252;stroke-linecap:round;stroke-linejoin:round}
    .str2 {stroke:#2B2A29;stroke-width:98.4505;stroke-linecap:round;stroke-linejoin:round}
    .fil6 {fill:none}
    .fil7 {fill:#2B2A29}
    .fil13 {fill:#57A7B3}
    .fil11 {fill:#5B7674}
    .fil10 {fill:#96A7B1}
    .fil12 {fill:#A75F4A}
    .fil9 {fill:#B7CBD8}
    .fil4 {fill:#EF7F1A}
    .fil1 {fill:#FCD5A6}
    .fil3 {fill:#9D6432}
    .fil8 {fill:#C5AD90}
    .fil0 {fill:#C8E8FB}
    .fil5 {fill:#FBCCA2}
    .fil2 {fill:#FEEDD6}
   ]]>
  </style>
 
    
    
   
    
    
    
    
    
    
    
    
    
    
    
    
    
    
    
    
    
    
    
    
    
    
    
    
    
    
    
    
    
    
    
    
    
    
    
    
    
    
    
    
    
    
    
    
    
    
    
    
    
    
    
    
    
    
    
    
    
    
   </defs>
 <g
   transform="translate(-8340.6806,-6200.2797)"
   id="Layer_x0020_1">
  <metadata
   id="CorelCorpID_0Corel-Layer" />
  <g
   id="_806366064">
   
   
   
  <g
   style="opacity:1"
   id="g3020"><path
     id="path3022"
     d="m 10040.016,7863.5917 c -371.9997,330 -845.9997,278 -955.9997,278 -586,0 -1027,-682 -448,-1154 718,-585 2223.9997,148 1403.9997,876 z"
     style="color:#000000;font-style:normal;font-variant:normal;font-weight:normal;font-stretch:normal;font-size:medium;line-height:normal;font-family:sans-serif;font-variant-ligatures:normal;font-variant-position:normal;font-variant-caps:normal;font-variant-numeric:normal;font-variant-alternates:normal;font-variant-east-asian:normal;font-feature-settings:normal;font-variation-settings:normal;text-indent:0;text-align:start;text-decoration:none;text-decoration-line:none;text-decoration-style:solid;text-decoration-color:#000000;letter-spacing:normal;word-spacing:normal;text-transform:none;writing-mode:lr-tb;direction:ltr;text-orientation:mixed;dominant-baseline:auto;baseline-shift:baseline;text-anchor:start;white-space:normal;shape-padding:0;shape-margin:0;inline-size:0;clip-rule:evenodd;display:inline;overflow:visible;visibility:visible;isolation:auto;mix-blend-mode:normal;color-interpolation:sRGB;color-interpolation-filters:linearRGB;solid-color:#000000;solid-opacity:1;vector-effect:none;fill:#feedd6;fill-opacity:1;fill-rule:evenodd;stroke:none;stroke-width:49.2252;stroke-linecap:round;stroke-linejoin:round;stroke-miterlimit:4;stroke-dasharray:none;stroke-dashoffset:0;stroke-opacity:1.0;color-rendering:auto;image-rendering:optimizeQuality;shape-rendering:geometricPrecision;text-rendering:geometricPrecision;enable-background:accumulate;stop-color:#000000;stop-opacity:1;" /><path
     id="path3024"
     d="M 9272.6387 6750.1016 C 9038.7573 6752.3903 8805.1884 6818.0086 8620.4707 6968.5098 A 24.615062 24.615062 0 0 0 8620.4648 6968.5156 C 8324.093 7210.1175 8285.4665 7513.738 8400.9883 7752.3184 C 8516.51 7990.8987 8781.4674 8166.2051 9084.0156 8166.2051 C 9135.1373 8166.2051 9285.6683 8179.4067 9467.6094 8150.6523 C 9649.5505 8121.898 9865.9875 8050.8737 10056.35 7882.0039 A 24.615062 24.615062 0 0 0 10056.357 7881.998 C 10265.688 7696.1533 10330.812 7503.2984 10291.539 7331.832 C 10252.266 7160.3657 10112.639 7014.5005 9926.6758 6911.6777 C 9740.7129 6808.8549 9506.52 6747.8128 9272.6387 6750.1016 z M 9274.582 6800.4883 C 9499.3881 6798.4333 9725.0704 6856.4537 9902.8574 6954.7559 C 10080.644 7053.0581 10208.642 7190.3804 10243.557 7342.8203 C 10278.471 7495.2602 10224.345 7667.0303 10023.676 7845.1855 C 9842.04 8006.3111 9635.4803 8074.286 9459.9238 8102.0312 C 9284.365 8129.7769 9142.894 8116.9785 9084.0156 8116.9785 C 8800.5639 8116.9785 8552.0212 7951.2849 8445.293 7730.8652 C 8338.5654 7510.447 8368.9395 7237.069 8651.5625 7006.6719 L 8651.5684 7006.668 C 8825.8499 6864.6723 9049.7783 6802.5433 9274.582 6800.4883 z "
     style="color:#000000;font-style:normal;font-variant:normal;font-weight:normal;font-stretch:normal;font-size:medium;line-height:normal;font-family:sans-serif;font-variant-ligatures:normal;font-variant-position:normal;font-variant-caps:normal;font-variant-numeric:normal;font-variant-alternates:normal;font-variant-east-asian:normal;font-feature-settings:normal;font-variation-settings:normal;text-indent:0;text-align:start;text-decoration:none;text-decoration-line:none;text-decoration-style:solid;text-decoration-color:#000000;letter-spacing:normal;word-spacing:normal;text-transform:none;writing-mode:lr-tb;direction:ltr;text-orientation:mixed;dominant-baseline:auto;baseline-shift:baseline;text-anchor:start;white-space:normal;shape-padding:0;shape-margin:0;inline-size:0;clip-rule:evenodd;display:inline;overflow:visible;visibility:visible;isolation:auto;mix-blend-mode:normal;color-interpolation:sRGB;color-interpolation-filters:linearRGB;solid-color:#000000;solid-opacity:1;vector-effect:none;fill:#2b2a29;fill-opacity:1;fill-rule:evenodd;stroke:none;stroke-width:49.2252;stroke-linecap:round;stroke-linejoin:round;stroke-miterlimit:4;stroke-dasharray:none;stroke-dashoffset:0;stroke-opacity:1.0;color-rendering:auto;image-rendering:optimizeQuality;shape-rendering:geometricPrecision;text-rendering:geometricPrecision;enable-background:accumulate;stop-color:#000000;stop-opacity:1;" /></g><path
   style="clip-rule:evenodd;fill:#c5ad90;fill-rule:evenodd;stroke-width:1;image-rendering:optimizeQuality;shape-rendering:geometricPrecision;text-rendering:geometricPrecision"
   class="fil8"
   d="m 9465.7438,7189.4931 c -4,0 -1338,560 -405,531 259,-8 987.0002,173 864.9997,-263 -26,-91 -472.9997,-267 -459.9997,-268 z"
   id="path1121" /><path
   transform="matrix(26.047718,0,0,26.047718,8340.6806,6200.2684)"
   d="M 46.023438 0 A 1.8899995 1.8899995 0 0 0 44.617188 0.63671875 C 44.109184 1.2109802 43.833194 1.7120247 43.779297 1.8085938 C 43.725397 1.9051588 43.687137 1.9924367 43.017578 2.734375 A 1.8899995 1.8899995 0 0 0 42.994141 2.7617188 C 41.556456 4.4150498 40.223032 6.3599994 38.939453 8.5253906 C 38.64398 8.5157406 38.35401 8.5085601 38.072266 8.5019531 C 37.854212 8.1662692 37.628328 7.8383902 37.388672 7.5234375 C 37.387372 7.5216575 37.385066 7.5172581 37.384766 7.5175781 C 37.376566 7.5068211 37.367595 7.495098 37.359375 7.484375 C 37.342085 7.455624 37.325164 7.427289 37.302734 7.390625 C 37.243868 7.294436 37.167364 7.1703207 37.080078 7.0332031 C 36.905506 6.758968 36.710976 6.4570825 36.476562 6.15625 C 36.461252 6.1366053 36.437995 6.1099607 36.421875 6.0898438 C 36.301703 5.881883 36.179306 5.674434 36.044922 5.46875 C 35.376257 4.4453091 34.700809 3.510398 33.650391 2.8085938 C 33.387788 2.6331426 33.090958 2.4491641 32.591797 2.3515625 C 32.09264 2.253957 31.232806 2.3694519 30.681641 2.8730469 C 30.130471 3.3766419 29.996865 3.9492228 29.943359 4.3691406 C 29.889849 4.7890584 29.91545 5.1453659 29.96875 5.53125 C 30.125551 6.6663859 30.563993 8.1199098 31.404297 10.257812 C 30.228566 10.132811 28.934403 9.9800384 27.734375 9.8359375 C 26.518038 9.6898825 25.390958 9.553059 24.537109 9.4570312 C 24.110185 9.4090152 23.753639 9.3714553 23.46875 9.3476562 C 23.326304 9.3357592 23.20497 9.3262546 23.070312 9.3222656 C 23.002982 9.3202756 22.936807 9.3182487 22.826172 9.3242188 C 22.715536 9.3301988 22.680122 9.2087698 22.039062 9.5292969 C 21.448612 9.8245243 20.946984 10.117329 20.484375 10.638672 C 20.021762 11.160019 19.628272 12.218628 19.921875 13.103516 C 20.215482 13.988407 20.798632 14.395511 21.296875 14.691406 C 21.795118 14.987302 22.315803 15.184979 22.90625 15.369141 C 24.644287 15.911242 27.053639 16.296334 29.96875 16.601562 C 29.99653 16.78553 30.05131 16.980559 30.128906 17.167969 C 29.94595 17.37672 29.777716 17.706196 29.740234 18.367188 C 29.707294 18.948071 30.101322 19.747902 30.535156 20.074219 C 30.546316 20.082619 30.555386 20.087673 30.566406 20.095703 C 28.226013 24.203195 26.022042 29.178037 24.476562 33.634766 C 22.476604 39.381198 18.676733 44.35833 15.421875 47.892578 C 13.794281 49.659877 12.312844 51.064799 11.253906 52.054688 C 10.724436 52.549633 10.308099 52.931045 9.9863281 53.253906 C 9.8254388 53.415337 9.6976065 53.532537 9.5078125 53.796875 C 9.4129135 53.929044 9.2586181 54.037979 9.1445312 54.621094 C 9.0874862 54.912647 9.0630762 55.434996 9.3671875 55.958984 C 9.6712948 56.482969 10.223184 56.770644 10.5625 56.855469 A 1.8899995 1.8899995 0 0 0 10.771484 56.896484 C 11.512371 56.995264 12.234936 56.990747 12.9375 56.904297 C 13.122887 57.243778 13.370585 57.518881 13.574219 57.652344 C 14.360883 58.16794 14.684596 58.037 15.058594 58.033203 C 15.806594 58.025603 16.581685 57.860311 17.507812 57.525391 C 19.203682 56.912105 21.297076 55.670819 22.945312 53.462891 C 27.269374 52.398444 35.446952 50.365626 42.363281 48.652344 C 43.5767 52.68029 44.877883 56.541288 46.212891 59.4375 C 46.976493 61.09409 47.705591 62.43305 48.671875 63.447266 C 49.155015 63.954373 49.724168 64.42843 50.564453 64.640625 C 51.404738 64.85282 52.470046 64.587845 53.128906 64.058594 L 53.117188 64.070312 C 53.378124 63.86431 53.556535 63.760489 53.775391 63.634766 C 53.869771 63.580546 53.999245 63.526879 54.150391 63.435547 C 58.01623 62.805377 64.575023 61.068165 71.373047 59.238281 C 77.977272 57.460571 84.68867 55.619595 88.755859 54.707031 C 88.894643 54.824834 89.034823 54.939669 89.185547 55.044922 C 89.636719 55.359948 90.188402 55.726981 91.128906 55.642578 C 91.947903 55.569078 92.694675 54.886635 93.03125 54.28125 C 93.133063 54.25457 93.243179 54.2194 93.369141 54.160156 C 93.736582 53.987362 94.185142 53.544153 94.349609 53.072266 C 94.678544 52.12849 94.33037 51.740845 94.226562 51.548828 C 94.211472 51.520918 94.203083 51.506442 94.189453 51.482422 C 94.095973 51.26734 93.976396 51.074117 93.826172 50.933594 C 93.59667 50.718892 93.39402 50.594829 93.212891 50.517578 C 93.187011 50.167444 93.117631 50.168402 93.09375 50.107422 C 93.06438 50.032532 93.048206 50.001725 93.035156 49.974609 C 93.009086 49.920379 92.996165 49.89677 92.984375 49.875 C 92.960765 49.83145 92.945241 49.80315 92.925781 49.769531 C 92.886811 49.702291 92.839151 49.623216 92.779297 49.523438 C 92.659555 49.323884 92.491148 49.044666 92.275391 48.691406 C 91.843798 47.984891 91.228039 46.986819 90.488281 45.787109 C 89.008766 43.387698 87.029986 40.188549 85.023438 36.953125 C 83.016888 33.717705 80.983183 30.445146 79.398438 27.902344 C 77.813921 25.35991 76.759985 23.669324 76.4375 23.185547 C 74.941899 20.896636 73.750596 19.130232 72.746094 17.552734 A 1.8899995 1.8899995 0 0 0 73.117188 17.478516 C 73.575193 17.337586 74.15328 16.968099 74.519531 16.429688 C 75.344786 16.303434 76.078464 16.166587 76.703125 16.005859 C 77.184472 15.881998 77.606117 15.751471 78.027344 15.550781 C 78.448571 15.350092 78.982701 15.142311 79.382812 14.275391 A 1.8899995 1.8899995 0 0 0 79.392578 14.253906 C 79.603038 13.78284 79.776065 13.133832 79.564453 12.402344 C 79.352841 11.670855 78.748921 11.131193 78.269531 10.894531 C 77.310714 10.421211 76.604777 10.487556 75.796875 10.509766 C 74.981525 10.532186 74.084556 10.620496 73.167969 10.71875 C 73.656418 9.1903231 73.98599 8.0251505 74.154297 7.1582031 C 74.282178 6.4994736 74.465072 6.0949926 74.169922 5.1484375 C 74.022347 4.67516 73.39991 3.8586943 72.583984 3.7011719 C 71.768059 3.5436494 71.306826 3.829461 71.013672 4.0039062 C 70.427402 4.3527968 70.163337 4.6845644 69.804688 5.0898438 C 69.446037 5.495123 69.068863 5.966724 68.662109 6.4941406 C 68.425467 6.8009429 68.162429 7.1544535 67.908203 7.4921875 C 67.770293 7.0908405 67.63551 6.7145195 67.492188 6.2753906 L 67.486328 6.2578125 C 67.259251 5.5450923 66.898032 4.9877581 66.271484 4.5253906 C 65.955526 4.2922378 65.544391 4.0587018 64.935547 4.0195312 C 64.326664 3.9803608 63.527831 4.2962602 63.101562 4.7871094 C 62.249031 5.7688038 62.387609 6.6264986 62.509766 7.5625 C 62.547926 7.8548941 62.61129 8.1737256 62.6875 8.5078125 C 62.374002 8.6628126 62.001977 8.9407681 61.787109 9.3789062 C 61.750309 9.4539383 61.720443 9.5284429 61.695312 9.6015625 C 61.678802 9.6172605 61.660771 9.6279382 61.644531 9.6445312 C 61.523509 9.7681849 61.427895 9.9167295 61.345703 10.070312 C 60.329407 10.0056 59.254433 9.9275309 58.205078 9.84375 C 55.81318 9.6527813 53.648992 9.4526293 52.560547 9.4082031 L 52.578125 9.4082031 C 51.218895 9.3402432 49.680577 9.2398717 48.101562 9.1367188 A 1.8899995 1.8899995 0 0 0 47.041016 9.0683594 C 47.675436 7.6279069 48.19413 6.2856319 48.492188 5.078125 C 48.713489 4.1815589 48.857366 3.3517359 48.669922 2.4023438 C 48.482477 1.4529476 47.557492 0.31215059 46.472656 0.052734375 A 1.8899995 1.8899995 0 0 0 46.023438 0 z "
   style="color:#000000;font-style:normal;font-variant:normal;font-weight:normal;font-stretch:normal;font-size:medium;line-height:normal;font-family:sans-serif;font-variant-ligatures:normal;font-variant-position:normal;font-variant-caps:normal;font-variant-numeric:normal;font-variant-alternates:normal;font-variant-east-asian:normal;font-feature-settings:normal;font-variation-settings:normal;text-indent:0;text-align:start;text-decoration:none;text-decoration-line:none;text-decoration-style:solid;text-decoration-color:#000000;letter-spacing:normal;word-spacing:normal;text-transform:none;writing-mode:lr-tb;direction:ltr;text-orientation:mixed;dominant-baseline:auto;baseline-shift:baseline;text-anchor:start;white-space:normal;shape-padding:0;shape-margin:0;inline-size:0;clip-rule:evenodd;display:inline;overflow:visible;visibility:visible;opacity:1;isolation:auto;mix-blend-mode:normal;color-interpolation:sRGB;color-interpolation-filters:linearRGB;solid-color:#000000;solid-opacity:1;vector-effect:none;fill:#2b2a29;fill-opacity:1;fill-rule:evenodd;stroke:none;stroke-width:3.77962;stroke-linecap:round;stroke-linejoin:round;stroke-miterlimit:4;stroke-dasharray:none;stroke-dashoffset:0;stroke-opacity:1;color-rendering:auto;image-rendering:optimizeQuality;shape-rendering:geometricPrecision;text-rendering:geometricPrecision;enable-background:accumulate;stop-color:#000000;stop-opacity:1"
   id="path3045" /><g
   style="clip-rule:evenodd;fill-rule:evenodd;image-rendering:optimizeQuality;shape-rendering:geometricPrecision;text-rendering:geometricPrecision"
   id="g1151"
   transform="translate(-6025.2563,-5931.5071)"><g
     style="opacity:1"
     id="g3078"><path
       id="path3080"
       d="m 15392,12644 c -132,100 -260,583 -396,713 -11,10 -49,126 -125,139 1,2 798,-200 871,-212 148,-24 306,-64 173,-215 -181,-204 -339,-156 -505,-415 -6,-10 -14,-13 -18,-10 z"
       style="color:#000000;font-style:normal;font-variant:normal;font-weight:normal;font-stretch:normal;font-size:medium;line-height:normal;font-family:sans-serif;font-variant-ligatures:normal;font-variant-position:normal;font-variant-caps:normal;font-variant-numeric:normal;font-variant-alternates:normal;font-variant-east-asian:normal;font-feature-settings:normal;font-variation-settings:normal;text-indent:0;text-align:start;text-decoration:none;text-decoration-line:none;text-decoration-style:solid;text-decoration-color:#000000;letter-spacing:normal;word-spacing:normal;text-transform:none;writing-mode:lr-tb;direction:ltr;text-orientation:mixed;dominant-baseline:auto;baseline-shift:baseline;text-anchor:start;white-space:normal;shape-padding:0;shape-margin:0;inline-size:0;clip-rule:nonzero;display:inline;overflow:visible;visibility:visible;isolation:auto;mix-blend-mode:normal;color-interpolation:sRGB;color-interpolation-filters:linearRGB;solid-color:#000000;solid-opacity:1;vector-effect:none;fill:#5b7674;fill-opacity:1;fill-rule:nonzero;stroke:none;stroke-width:14.7676;stroke-linecap:round;stroke-linejoin:round;stroke-miterlimit:4;stroke-dasharray:none;stroke-dashoffset:0;stroke-opacity:1.0;color-rendering:auto;image-rendering:auto;shape-rendering:auto;text-rendering:auto;enable-background:accumulate;stop-color:#000000;stop-opacity:1;" /><path
       id="path3082"
       d="M 15395.545 12635.533 C 15392.763 12635.528 15389.988 12636.28 15387.57 12638.094 A 7.3845384 7.3845384 0 0 0 15387.541 12638.115 C 15352.718 12664.496 15319.929 12714.098 15287.045 12775.842 C 15254.161 12837.586 15221.493 12911.523 15188.736 12986.287 C 15123.224 13135.816 15056.433 13289.019 14990.898 13351.662 L 14991.033 13351.537 C 14987.812 13354.465 14986.428 13357.467 14984.088 13361.807 C 14981.748 13366.146 14979.061 13371.564 14975.924 13377.783 C 14969.65 13390.221 14961.609 13405.825 14951.654 13421.398 C 14931.745 13452.545 14904.36 13482.804 14869.756 13488.723 A 7.3845384 7.3845384 0 0 0 14864.396 13499.303 C 14864.4 13499.311 14869.938 13503.347 14870.625 13503.387 C 14871.312 13503.426 14871.57 13503.386 14871.811 13503.365 C 14872.292 13503.323 14872.548 13503.279 14872.846 13503.229 C 14873.442 13503.129 14874.081 13503.001 14874.9 13502.828 C 14876.54 13502.483 14878.834 13501.966 14881.814 13501.273 C 14887.774 13499.889 14896.435 13497.813 14907.463 13495.133 C 14929.518 13489.772 14961.023 13481.995 14999.027 13472.572 C 15075.036 13453.726 15177.035 13428.29 15281.279 13402.416 C 15385.524 13376.542 15492.015 13350.232 15576.988 13329.645 C 15661.945 13309.061 15726.067 13294.104 15743.182 13291.289 C 15817.412 13279.252 15894.466 13263.806 15938.381 13229.975 C 15960.338 13213.059 15973.996 13190.359 15972.26 13162.463 C 15970.524 13134.567 15954.377 13102.535 15920.541 13064.119 A 7.3845384 7.3845384 0 0 0 15920.523 13064.1 C 15829.125 12961.087 15743.011 12921.365 15660.451 12875.664 C 15577.891 12829.963 15498.531 12778.445 15416.217 12650.016 L 15416.332 12650.201 C 15412.755 12644.239 15408.428 12639.959 15403.553 12637.521 C 15401.115 12636.303 15398.327 12635.539 15395.545 12635.533 z M 15395.945 12650.32 C 15396.053 12650.355 15396.257 12650.384 15396.947 12650.729 C 15398.572 12651.541 15401.245 12653.761 15403.668 12657.799 A 7.3845384 7.3845384 0 0 0 15403.783 12657.984 C 15487.469 12788.555 15570.109 12842.537 15653.299 12888.586 C 15736.489 12934.635 15819.875 12972.913 15909.477 13073.9 C 15942.127 13110.975 15956.101 13140.563 15957.521 13163.381 C 15958.942 13186.203 15948.787 13203.316 15929.369 13218.275 C 15890.534 13248.194 15814.588 13264.748 15740.818 13276.711 A 7.3845384 7.3845384 0 0 0 15740.803 13276.715 C 15721.403 13279.904 15658.539 13294.693 15573.512 13315.293 C 15488.485 13335.893 15381.976 13362.208 15277.721 13388.084 C 15173.465 13413.96 15071.464 13439.399 14995.473 13458.24 C 14966.858 13465.335 14946.53 13470.323 14926.564 13475.217 C 14941.43 13461.81 14953.839 13445.397 14964.096 13429.352 C 14974.516 13413.05 14982.787 13396.966 14989.107 13384.436 C 14992.268 13378.17 14994.948 13372.783 14997.088 13368.814 C 14999.228 13364.846 15001.438 13362.035 15000.967 13362.463 A 7.3845384 7.3845384 0 0 0 15001.102 13362.338 C 15071.567 13294.981 15136.776 13141.684 15202.264 12992.213 C 15235.007 12917.477 15267.589 12843.789 15300.08 12782.783 C 15332.394 12722.11 15364.921 12674.078 15395.945 12650.32 z "
       style="color:#000000;font-style:normal;font-variant:normal;font-weight:normal;font-stretch:normal;font-size:medium;line-height:normal;font-family:sans-serif;font-variant-ligatures:normal;font-variant-position:normal;font-variant-caps:normal;font-variant-numeric:normal;font-variant-alternates:normal;font-variant-east-asian:normal;font-feature-settings:normal;font-variation-settings:normal;text-indent:0;text-align:start;text-decoration:none;text-decoration-line:none;text-decoration-style:solid;text-decoration-color:#000000;letter-spacing:normal;word-spacing:normal;text-transform:none;writing-mode:lr-tb;direction:ltr;text-orientation:mixed;dominant-baseline:auto;baseline-shift:baseline;text-anchor:start;white-space:normal;shape-padding:0;shape-margin:0;inline-size:0;clip-rule:nonzero;display:inline;overflow:visible;visibility:visible;isolation:auto;mix-blend-mode:normal;color-interpolation:sRGB;color-interpolation-filters:linearRGB;solid-color:#000000;solid-opacity:1;vector-effect:none;fill:#2b2a29;fill-opacity:1;fill-rule:nonzero;stroke:none;stroke-width:14.7676;stroke-linecap:round;stroke-linejoin:round;stroke-miterlimit:4;stroke-dasharray:none;stroke-dashoffset:0;stroke-opacity:1.0;color-rendering:auto;image-rendering:auto;shape-rendering:auto;text-rendering:auto;enable-background:accumulate;stop-color:#000000;stop-opacity:1;" /></g><g
     style="opacity:1"
     id="g3072"><path
       id="path3074"
       d="m 16067,12492 c 123,-136 262,-396 134,-24 -14,38 -564,755 -343,331 4,-8 203,-301 209,-307 z"
       style="color:#000000;font-style:normal;font-variant:normal;font-weight:normal;font-stretch:normal;font-size:medium;line-height:normal;font-family:sans-serif;font-variant-ligatures:normal;font-variant-position:normal;font-variant-caps:normal;font-variant-numeric:normal;font-variant-alternates:normal;font-variant-east-asian:normal;font-feature-settings:normal;font-variation-settings:normal;text-indent:0;text-align:start;text-decoration:none;text-decoration-line:none;text-decoration-style:solid;text-decoration-color:#000000;letter-spacing:normal;word-spacing:normal;text-transform:none;writing-mode:lr-tb;direction:ltr;text-orientation:mixed;dominant-baseline:auto;baseline-shift:baseline;text-anchor:start;white-space:normal;shape-padding:0;shape-margin:0;inline-size:0;clip-rule:nonzero;display:inline;overflow:visible;visibility:visible;isolation:auto;mix-blend-mode:normal;color-interpolation:sRGB;color-interpolation-filters:linearRGB;solid-color:#000000;solid-opacity:1;vector-effect:none;fill:#a75f4a;fill-opacity:1;fill-rule:nonzero;stroke:none;stroke-width:14.7676;stroke-linecap:round;stroke-linejoin:round;stroke-miterlimit:4;stroke-dasharray:none;stroke-dashoffset:0;stroke-opacity:1.0;color-rendering:auto;image-rendering:auto;shape-rendering:auto;text-rendering:auto;enable-background:accumulate;stop-color:#000000;stop-opacity:1;" /><path
       id="path3076"
       d="M 16244.451 12268.934 C 16240.9 12269.423 16238.029 12271.267 16235.127 12273.314 C 16231.258 12276.044 16227.254 12279.753 16222.803 12284.383 C 16204.999 12302.903 16180.235 12336.462 16151.926 12374.125 C 16123.616 12411.788 16091.952 12453.402 16061.523 12487.047 L 16061.779 12486.779 C 16060.74 12487.819 16060.604 12488.125 16059.994 12488.932 C 16059.384 12489.738 16058.634 12490.763 16057.721 12492.027 C 16055.895 12494.557 16053.435 12498.033 16050.412 12502.35 C 16044.367 12510.983 16036.079 12522.961 16026.291 12537.189 C 16006.716 12565.645 15981.15 12603.09 15955.645 12640.598 C 15930.139 12678.105 15904.697 12715.675 15885.375 12744.377 C 15875.714 12758.728 15867.584 12770.861 15861.732 12779.674 C 15858.806 12784.08 15856.45 12787.655 15854.746 12790.281 C 15853.045 12792.903 15852.372 12793.75 15851.402 12795.688 C 15851.401 12795.691 15851.398 12795.694 15851.396 12795.697 C 15823.717 12848.809 15808.026 12884.011 15801.623 12906.006 C 15798.419 12917.012 15796.795 12924.486 15799.461 12931.713 C 15800.794 12935.326 15804.429 12938.842 15808.373 12939.715 C 15812.317 12940.588 15815.755 12939.692 15819.105 12938.367 C 15832.506 12933.068 15849.077 12917.996 15870.973 12895.803 C 15892.868 12873.61 15919.02 12844.371 15946.996 12811.539 C 16002.949 12745.875 16066.155 12665.871 16116.303 12599.842 C 16141.377 12566.827 16163.178 12537.314 16179.193 12514.805 C 16187.201 12503.55 16193.759 12494.051 16198.588 12486.686 C 16203.417 12479.32 16206.348 12474.84 16207.928 12470.553 A 7.3845384 7.3845384 0 0 0 16207.982 12470.402 C 16240.03 12377.264 16255.446 12324.046 16258.691 12296.553 C 16259.503 12289.679 16259.657 12284.416 16258.623 12279.74 C 16258.106 12277.402 16257.269 12275.103 16255.543 12273.01 C 16253.817 12270.916 16250.978 12269.299 16248.256 12268.938 C 16246.895 12268.757 16245.635 12268.77 16244.451 12268.934 z M 16244.357 12284.998 C 16244.535 12287.158 16244.569 12290.236 16244.027 12294.822 C 16241.18 12318.942 16225.979 12372.695 16194.061 12465.469 C 16193.876 12465.957 16190.884 12471.503 16186.238 12478.59 C 16181.58 12485.695 16175.102 12495.083 16167.162 12506.242 C 16151.283 12528.561 16129.545 12557.986 16104.541 12590.908 C 16054.533 12656.754 15991.426 12736.625 15935.754 12801.961 C 15907.918 12834.629 15881.929 12863.672 15860.461 12885.432 C 15838.993 12907.192 15820.978 12921.745 15813.676 12924.633 C 15813.407 12924.739 15813.591 12924.66 15813.365 12924.73 C 15813.331 12922.645 15813.505 12918.029 15815.803 12910.135 C 15821.563 12890.349 15837.015 12855.234 15864.547 12802.412 A 7.3845384 7.3845384 0 0 0 15864.604 12802.303 C 15864.131 12803.247 15865.482 12800.866 15867.135 12798.318 C 15868.788 12795.771 15871.123 12792.224 15874.033 12787.842 C 15879.853 12779.077 15887.974 12766.959 15897.625 12752.623 C 15916.928 12723.95 15942.361 12686.395 15967.855 12648.902 C 15993.35 12611.41 16018.909 12573.98 16038.459 12545.561 C 16048.234 12531.351 16056.508 12519.392 16062.51 12510.822 C 16065.51 12506.537 16067.945 12503.095 16069.695 12500.67 C 16070.571 12499.457 16071.278 12498.495 16071.773 12497.84 C 16072.269 12497.185 16072.885 12496.556 16072.221 12497.221 A 7.3845384 7.3845384 0 0 0 16072.477 12496.953 C 16103.548 12462.598 16135.384 12420.712 16163.73 12383 C 16192.077 12345.288 16217.126 12311.597 16233.447 12294.617 C 16237.528 12290.372 16241.076 12287.191 16243.639 12285.383 C 16243.965 12285.152 16244.069 12285.169 16244.357 12284.998 z "
       style="color:#000000;font-style:normal;font-variant:normal;font-weight:normal;font-stretch:normal;font-size:medium;line-height:normal;font-family:sans-serif;font-variant-ligatures:normal;font-variant-position:normal;font-variant-caps:normal;font-variant-numeric:normal;font-variant-alternates:normal;font-variant-east-asian:normal;font-feature-settings:normal;font-variation-settings:normal;text-indent:0;text-align:start;text-decoration:none;text-decoration-line:none;text-decoration-style:solid;text-decoration-color:#000000;letter-spacing:normal;word-spacing:normal;text-transform:none;writing-mode:lr-tb;direction:ltr;text-orientation:mixed;dominant-baseline:auto;baseline-shift:baseline;text-anchor:start;white-space:normal;shape-padding:0;shape-margin:0;inline-size:0;clip-rule:nonzero;display:inline;overflow:visible;visibility:visible;isolation:auto;mix-blend-mode:normal;color-interpolation:sRGB;color-interpolation-filters:linearRGB;solid-color:#000000;solid-opacity:1;vector-effect:none;fill:#2b2a29;fill-opacity:1;fill-rule:nonzero;stroke:none;stroke-width:14.7676;stroke-linecap:round;stroke-linejoin:round;stroke-miterlimit:4;stroke-dasharray:none;stroke-dashoffset:0;stroke-opacity:1.0;color-rendering:auto;image-rendering:auto;shape-rendering:auto;text-rendering:auto;enable-background:accumulate;stop-color:#000000;stop-opacity:1;" /></g><g
     style="opacity:1"
     id="g3066"><path
       id="path3068"
       d="m 16113,12464 c 103,21 303,-44 276,19 -36,85 -1703,80 -1427,-59 7,-4 276,36 324,31 58,-6 791,2 827,9 z"
       style="color:#000000;font-style:normal;font-variant:normal;font-weight:normal;font-stretch:normal;font-size:medium;line-height:normal;font-family:sans-serif;font-variant-ligatures:normal;font-variant-position:normal;font-variant-caps:normal;font-variant-numeric:normal;font-variant-alternates:normal;font-variant-east-asian:normal;font-feature-settings:normal;font-variation-settings:normal;text-indent:0;text-align:start;text-decoration:none;text-decoration-line:none;text-decoration-style:solid;text-decoration-color:#000000;letter-spacing:normal;word-spacing:normal;text-transform:none;writing-mode:lr-tb;direction:ltr;text-orientation:mixed;dominant-baseline:auto;baseline-shift:baseline;text-anchor:start;white-space:normal;shape-padding:0;shape-margin:0;inline-size:0;clip-rule:nonzero;display:inline;overflow:visible;visibility:visible;isolation:auto;mix-blend-mode:normal;color-interpolation:sRGB;color-interpolation-filters:linearRGB;solid-color:#000000;solid-opacity:1;vector-effect:none;fill:#a75f4a;fill-opacity:1;fill-rule:nonzero;stroke:none;stroke-width:14.7676;stroke-linecap:round;stroke-linejoin:round;stroke-miterlimit:4;stroke-dasharray:none;stroke-dashoffset:0;stroke-opacity:1.0;color-rendering:auto;image-rendering:auto;shape-rendering:auto;text-rendering:auto;enable-background:accumulate;stop-color:#000000;stop-opacity:1;" /><path
       id="path3070"
       d="M 14966.49 12416.363 C 14965.18 12416.323 14964.066 12416.317 14962.979 12416.381 C 14961.897 12416.444 14961.331 12415.895 14958.371 12417.576 C 14940.648 12426.536 14929.484 12434.86 14925.256 12445.852 C 14923.129 12451.383 14923.47 12457.703 14926.053 12462.889 C 14928.635 12468.075 14932.948 12472.243 14938.404 12476.008 C 14960.231 12491.067 15002.936 12501.704 15062.314 12511.105 C 15181.072 12529.908 15364.789 12540.879 15558.348 12544.883 C 15751.906 12548.887 15955.155 12545.888 16112.469 12536.559 C 16191.125 12531.894 16258.267 12525.657 16307.189 12517.861 C 16331.651 12513.963 16351.53 12509.701 16366.295 12504.893 C 16373.677 12502.488 16379.785 12499.968 16384.709 12497.062 C 16389.629 12494.159 16393.668 12490.897 16395.793 12485.889 C 16399.72 12476.714 16399.983 12467.422 16395.113 12460.646 C 16390.24 12453.867 16382.285 12450.863 16373.105 12449.148 C 16354.747 12445.719 16328.939 12447.511 16299.039 12450.4 C 16239.239 12456.179 16163.597 12466.781 16114.475 12456.766 A 7.3845384 7.3845384 0 0 0 16114.41 12456.752 C 16111.073 12456.103 16106.315 12455.756 16098.859 12455.309 C 16091.404 12454.861 16081.615 12454.418 16069.781 12453.979 C 16046.113 12453.099 16014.278 12452.235 15976.912 12451.414 C 15902.181 12449.772 15805.351 12448.305 15707.83 12447.242 C 15610.309 12446.179 15512.105 12445.521 15434.627 12445.506 C 15357.149 12445.49 15301.491 12445.975 15285.24 12447.656 A 7.3845384 7.3845384 0 0 0 15285.234 12447.656 C 15274.95 12448.728 15248.744 12447.324 15216.793 12444.352 C 15184.842 12441.379 15146.54 12436.978 15109.502 12432.543 C 15072.463 12428.108 15036.688 12423.64 15009.674 12420.523 C 14996.167 12418.965 14984.862 12417.747 14976.598 12417.033 C 14972.466 12416.676 14969.111 12416.443 14966.49 12416.363 z M 14963.84 12431.123 C 14963.881 12431.121 14964.048 12431.125 14964.102 12431.123 C 14963.666 12431.241 14963.63 12431.135 14963.84 12431.123 z M 14964.383 12431.123 C 14964.803 12431.113 14965.246 12431.101 14966.041 12431.125 C 14968.153 12431.189 14971.341 12431.4 14975.328 12431.744 C 14983.302 12432.433 14994.536 12433.644 15007.982 12435.195 C 15034.875 12438.298 15070.662 12442.767 15107.748 12447.207 C 15144.835 12451.647 15183.221 12456.058 15215.426 12459.055 C 15247.627 12462.051 15273.043 12463.772 15286.76 12462.344 C 15299.509 12461.025 15357.226 12460.26 15434.623 12460.275 C 15512.02 12460.291 15610.191 12460.946 15707.67 12462.008 C 15805.149 12463.07 15901.944 12464.54 15976.588 12466.18 C 16013.91 12467 16045.699 12467.862 16069.234 12468.736 C 16081.002 12469.174 16090.709 12469.615 16097.975 12470.051 C 16105.24 12470.487 16110.427 12471.022 16111.59 12471.248 L 16111.525 12471.234 C 16165.403 12482.219 16241.261 12470.821 16300.461 12465.1 C 16330.061 12462.239 16355.628 12460.906 16370.395 12463.664 C 16377.778 12465.043 16381.823 12467.462 16383.121 12469.268 C 16384.419 12471.074 16385.028 12473.522 16382.213 12480.092 A 7.3845384 7.3845384 0 0 0 16382.201 12480.121 C 16382.075 12480.419 16380.683 12482.291 16377.203 12484.344 C 16373.724 12486.397 16368.46 12488.657 16361.723 12490.852 C 16348.248 12495.24 16328.892 12499.451 16304.865 12503.279 C 16256.811 12510.937 16189.968 12517.169 16111.594 12521.816 C 15954.845 12531.112 15751.844 12534.113 15558.652 12530.117 C 15365.461 12526.121 15181.928 12515.092 15064.623 12496.52 C 15005.971 12487.233 14963.441 12475.339 14946.791 12463.852 C 14942.628 12460.98 14940.245 12458.26 14939.271 12456.305 C 14938.298 12454.349 14938.224 12453.275 14939.039 12451.154 C 14940.635 12447.005 14948.519 12439.275 14964.383 12431.123 z "
       style="color:#000000;font-style:normal;font-variant:normal;font-weight:normal;font-stretch:normal;font-size:medium;line-height:normal;font-family:sans-serif;font-variant-ligatures:normal;font-variant-position:normal;font-variant-caps:normal;font-variant-numeric:normal;font-variant-alternates:normal;font-variant-east-asian:normal;font-feature-settings:normal;font-variation-settings:normal;text-indent:0;text-align:start;text-decoration:none;text-decoration-line:none;text-decoration-style:solid;text-decoration-color:#000000;letter-spacing:normal;word-spacing:normal;text-transform:none;writing-mode:lr-tb;direction:ltr;text-orientation:mixed;dominant-baseline:auto;baseline-shift:baseline;text-anchor:start;white-space:normal;shape-padding:0;shape-margin:0;inline-size:0;clip-rule:nonzero;display:inline;overflow:visible;visibility:visible;isolation:auto;mix-blend-mode:normal;color-interpolation:sRGB;color-interpolation-filters:linearRGB;solid-color:#000000;solid-opacity:1;vector-effect:none;fill:#2b2a29;fill-opacity:1;fill-rule:nonzero;stroke:none;stroke-width:14.7676;stroke-linecap:round;stroke-linejoin:round;stroke-miterlimit:4;stroke-dasharray:none;stroke-dashoffset:0;stroke-opacity:1.0;color-rendering:auto;image-rendering:auto;shape-rendering:auto;text-rendering:auto;enable-background:accumulate;stop-color:#000000;stop-opacity:1;" /></g><g
     style="opacity:1"
     id="g3084"><path
       id="path3086"
       d="m 15696,13738 c -31,-201 -309,-680 -258,-941 3,-12 -48,-112 -80,-107 -42,64 -138,354 -327,586 -66,81 -213,311 -378,289 -16,-4 286,-222 397,-541 72,-210 206,-469 301,-533 8,-6 -3,-7 -2,-13 -287,-125 141,-61 384,-52 67,2 373,36 364,14 17,10 334,771 539,953 34,30 144,105 141,105 17,-53 -1048,287 -1081,240 z"
       style="color:#000000;font-style:normal;font-variant:normal;font-weight:normal;font-stretch:normal;font-size:medium;line-height:normal;font-family:sans-serif;font-variant-ligatures:normal;font-variant-position:normal;font-variant-caps:normal;font-variant-numeric:normal;font-variant-alternates:normal;font-variant-east-asian:normal;font-feature-settings:normal;font-variation-settings:normal;text-indent:0;text-align:start;text-decoration:none;text-decoration-line:none;text-decoration-style:solid;text-decoration-color:#000000;letter-spacing:normal;word-spacing:normal;text-transform:none;writing-mode:lr-tb;direction:ltr;text-orientation:mixed;dominant-baseline:auto;baseline-shift:baseline;text-anchor:start;white-space:normal;shape-padding:0;shape-margin:0;inline-size:0;clip-rule:nonzero;display:inline;overflow:visible;visibility:visible;isolation:auto;mix-blend-mode:normal;color-interpolation:sRGB;color-interpolation-filters:linearRGB;solid-color:#000000;solid-opacity:1;vector-effect:none;fill:#57a7b3;fill-opacity:1;fill-rule:nonzero;stroke:none;stroke-width:14.7676;stroke-linecap:round;stroke-linejoin:round;stroke-miterlimit:4;stroke-dasharray:none;stroke-dashoffset:0;stroke-opacity:1.0;color-rendering:auto;image-rendering:auto;shape-rendering:auto;text-rendering:auto;enable-background:accumulate;stop-color:#000000;stop-opacity:1;" /><path
       id="path3088"
       d="M 15342.359 12394.367 C 15316.793 12393.989 15295.331 12394.633 15279.258 12396.934 C 15271.221 12398.084 15264.536 12399.604 15259.047 12401.945 C 15253.557 12404.287 15248.558 12407.719 15246.701 12413.68 C 15244.845 12419.64 15247.33 12425.727 15251.291 12430.645 C 15255.252 12435.562 15261.04 12440.318 15269.037 12445.65 C 15284.493 12455.957 15308.545 12468.265 15342.688 12483.258 C 15343.124 12484.314 15343.566 12485.418 15344.088 12486.121 C 15344.289 12486.392 15344.325 12486.351 15344.518 12486.588 C 15295.094 12521.194 15239.163 12601.313 15185.402 12699.195 C 15130.79 12798.627 15079.169 12916.157 15043.016 13021.605 L 15043.025 13021.574 C 14988.037 13179.604 14885.431 13313.169 14798.443 13407.623 C 14754.95 13454.85 14715.394 13492.292 14687.629 13518.246 C 14673.747 13531.223 14662.841 13541.293 14655.682 13548.477 C 14652.102 13552.068 14649.501 13554.82 14647.604 13557.463 C 14646.655 13558.784 14645.705 13559.847 14645.17 13562.584 C 14644.902 13563.952 14644.825 13566.174 14646.096 13568.363 C 14647.366 13570.552 14649.671 13571.779 14651.209 13572.164 A 7.3845384 7.3845384 0 0 0 14652.023 13572.318 C 14738.15 13583.802 14818.014 13529.922 14884.316 13464.377 C 14950.619 13398.832 15004.191 13320.592 15036.725 13280.664 C 15131.789 13163.971 15203.268 13032.981 15256.273 12923.211 C 15282.776 12868.326 15304.658 12818.738 15322.502 12778.959 C 15339.233 12741.662 15352.458 12713.311 15362.143 12697.539 C 15366.415 12698.386 15372.538 12701.753 15379.311 12708.25 C 15387.843 12716.436 15396.905 12728.465 15404.885 12741.074 C 15412.865 12753.683 15419.826 12766.907 15424.514 12777.502 C 15426.857 12782.8 15428.633 12787.459 15429.668 12790.887 C 15430.703 12794.314 15430.321 12797.267 15430.836 12795.209 A 7.3845384 7.3845384 0 0 0 15430.754 12795.584 C 15404.607 12929.397 15462.23 13114.81 15529.342 13292.607 C 15596.454 13470.404 15673.575 13641.038 15688.703 13739.125 A 7.3845384 7.3845384 0 0 0 15689.957 13742.242 C 15692.631 13746.05 15696.412 13747.509 15700.281 13748.465 C 15704.15 13749.421 15708.533 13749.796 15713.686 13749.852 C 15723.991 13749.964 15737.357 13748.692 15753.686 13746.314 C 15786.342 13741.559 15830.694 13732.307 15882.904 13720.064 C 15987.324 13695.58 16123.043 13659.131 16257.176 13622.879 C 16391.309 13586.627 16523.857 13550.57 16621.641 13526.928 C 16670.532 13515.106 16710.789 13506.389 16737.881 13502.326 C 16751.427 13500.295 16761.809 13499.486 16767.561 13499.848 C 16767.689 13499.856 16767.621 13499.867 16767.744 13499.877 C 16767.986 13500.059 16768.52 13500.437 16768.742 13500.605 C 16769.915 13501.493 16770.66 13502.091 16771.137 13502.486 A 7.3845384 7.3845384 0 0 0 16777 13505.385 C 16777.985 13505.385 16779.936 13505.396 16782.092 13503.381 C 16783.049 13502.486 16783.606 13501.308 16783.951 13500.146 L 16784.031 13500.256 C 16784.083 13500.095 16784.07 13499.88 16784.115 13499.711 C 16784.639 13497.751 16784.769 13495.323 16783.871 13493.068 C 16782.895 13490.619 16781.028 13488.873 16779.293 13487.83 C 16777.333 13486.651 16775.38 13486.069 16773.361 13485.693 C 16770.904 13483.885 16768.737 13482.271 16765.328 13479.818 C 16754.87 13472.292 16740.347 13461.987 16724.678 13450.75 C 16693.348 13428.283 16657.236 13401.887 16640.902 13387.479 L 16640.895 13387.471 C 16640.892 13387.468 16640.887 13387.465 16640.885 13387.463 C 16540.795 13298.589 16409.495 13062.729 16302.605 12848.701 C 16249.158 12741.681 16201.562 12639.995 16166.252 12564.406 C 16148.597 12526.612 16134.019 12495.349 16123.281 12473.141 C 16117.913 12462.037 16113.513 12453.209 16110.111 12446.863 C 16108.411 12443.69 16106.971 12441.147 16105.693 12439.137 C 16105.055 12438.131 16104.464 12437.264 16103.801 12436.428 C 16103.138 12435.591 16102.674 12434.77 16100.744 12433.635 A 7.3845384 7.3845384 0 0 0 16090.1 12437.377 C 16089.168 12437.694 16088.137 12438.105 16085.572 12438.498 C 16078.74 12439.546 16067.432 12440.054 16053.377 12439.992 C 16025.267 12439.869 15985.835 12437.63 15944.027 12434.635 C 15860.413 12428.644 15767.633 12419.646 15733.221 12418.619 C 15612.211 12414.134 15444.61 12395.878 15342.359 12394.367 z M 15342.141 12409.133 C 15442.876 12410.622 15610.74 12428.861 15732.727 12433.379 A 7.3845384 7.3845384 0 0 0 15732.779 12433.381 C 15765.367 12434.354 15859.087 12443.356 15942.973 12449.365 C 15984.915 12452.37 16024.483 12454.631 16053.311 12454.758 C 16067.724 12454.821 16079.369 12454.391 16087.811 12453.096 C 16090.748 12452.645 16093.217 12452.027 16095.58 12451.182 C 16096.117 12452.137 16096.465 12452.667 16097.094 12453.84 C 16100.304 12459.829 16104.658 12468.553 16109.984 12479.57 C 16120.638 12501.605 16135.216 12532.857 16152.873 12570.656 C 16188.188 12646.255 16235.842 12748.069 16289.395 12855.299 C 16396.499 13069.759 16526.19 13305.384 16631.098 13398.521 A 7.3845384 7.3845384 0 0 0 16631.115 13398.537 C 16648.788 13414.131 16684.661 13440.224 16716.072 13462.75 C 16728.705 13471.809 16739.185 13479.273 16748.754 13486.121 C 16744.619 13486.572 16740.596 13486.985 16735.689 13487.721 C 16707.664 13491.923 16667.249 13500.706 16618.172 13512.572 C 16520.018 13536.305 16387.441 13572.373 16253.324 13608.621 C 16119.207 13644.869 15983.551 13681.295 15879.533 13705.686 C 15827.525 13717.881 15783.392 13727.066 15751.557 13731.701 C 15735.639 13734.019 15722.758 13735.181 15713.846 13735.084 C 15709.389 13735.036 15705.92 13734.645 15703.824 13734.127 C 15703.217 13733.977 15703.046 13733.86 15702.719 13733.719 C 15685.812 13630.529 15609.388 13462.853 15543.158 13287.393 C 15476.27 13110.19 15420.393 12925.603 15445.246 12798.416 L 15445.164 12798.791 C 15446.429 12793.733 15445.109 12790.936 15443.805 12786.617 C 15442.5 12782.299 15440.533 12777.216 15438.018 12771.529 C 15432.986 12760.156 15425.76 12746.442 15417.365 12733.176 C 15408.97 12719.91 15399.469 12707.126 15389.533 12697.594 C 15379.597 12688.061 15368.864 12680.829 15356.859 12682.705 A 7.3845384 7.3845384 0 0 0 15351.826 12685.949 C 15340.631 12703.009 15326.904 12733.07 15309.029 12772.916 C 15291.155 12812.762 15269.349 12862.174 15242.977 12916.789 C 15190.232 13026.019 15119.211 13156.029 15025.275 13271.336 C 14991.809 13312.408 14938.881 13389.668 14873.934 13453.873 C 14812.379 13514.724 14740.769 13562.827 14666.309 13558.744 C 14673.045 13551.994 14683.874 13541.974 14697.715 13529.035 C 14725.544 13503.021 14765.425 13465.275 14809.307 13417.627 C 14897.069 13322.331 15000.963 13187.396 15056.975 13026.426 A 7.3845384 7.3845384 0 0 0 15056.984 13026.395 C 15092.831 12921.843 15144.21 12804.873 15198.348 12706.305 C 15252.485 12607.737 15310.119 12527.443 15355.125 12497.123 A 7.3845384 7.3845384 0 0 0 15355.43 12496.906 C 15358.158 12494.86 15360.813 12492.314 15361.264 12488.061 C 15361.715 12483.807 15359.297 12480.836 15358.035 12479.477 C 15357.036 12478.401 15356.654 12478.044 15356.379 12477.768 A 7.3845384 7.3845384 0 0 0 15351.949 12471.23 C 15316.276 12455.694 15291.813 12443.091 15277.229 12433.365 C 15269.936 12428.503 15265.142 12424.302 15262.789 12421.381 C 15260.436 12418.46 15260.874 12417.829 15260.799 12418.07 C 15260.724 12418.312 15261.333 12417.026 15264.842 12415.529 C 15268.35 12414.033 15274.052 12412.596 15281.352 12411.551 C 15295.95 12409.461 15316.957 12408.761 15342.141 12409.133 z M 16770.623 13501.721 A 7.3845384 7.3845384 0 0 0 16770.914 13502.18 C 16770.814 13502.09 16770.742 13501.916 16770.623 13501.721 z "
       style="color:#000000;font-style:normal;font-variant:normal;font-weight:normal;font-stretch:normal;font-size:medium;line-height:normal;font-family:sans-serif;font-variant-ligatures:normal;font-variant-position:normal;font-variant-caps:normal;font-variant-numeric:normal;font-variant-alternates:normal;font-variant-east-asian:normal;font-feature-settings:normal;font-variation-settings:normal;text-indent:0;text-align:start;text-decoration:none;text-decoration-line:none;text-decoration-style:solid;text-decoration-color:#000000;letter-spacing:normal;word-spacing:normal;text-transform:none;writing-mode:lr-tb;direction:ltr;text-orientation:mixed;dominant-baseline:auto;baseline-shift:baseline;text-anchor:start;white-space:normal;shape-padding:0;shape-margin:0;inline-size:0;clip-rule:nonzero;display:inline;overflow:visible;visibility:visible;isolation:auto;mix-blend-mode:normal;color-interpolation:sRGB;color-interpolation-filters:linearRGB;solid-color:#000000;solid-opacity:1;vector-effect:none;fill:#2b2a29;fill-opacity:1;fill-rule:nonzero;stroke:none;stroke-width:14.7676;stroke-linecap:round;stroke-linejoin:round;stroke-miterlimit:4;stroke-dasharray:none;stroke-dashoffset:0;stroke-opacity:1.0;color-rendering:auto;image-rendering:auto;shape-rendering:auto;text-rendering:auto;enable-background:accumulate;stop-color:#000000;stop-opacity:1;" /></g><g
     style="opacity:1"
     id="g3060"><path
       id="path3062"
       d="m 15288,12358 c 7,-44 -191,-285 -31,89 30,70 56,287 116,420 27,60 229,988 346,895 49,-39 52,4 -8,-132 -140,-319 -204,-996 -413,-1276 -1,-2 -51,-84 -10,4 z"
       style="color:#000000;font-style:normal;font-variant:normal;font-weight:normal;font-stretch:normal;font-size:medium;line-height:normal;font-family:sans-serif;font-variant-ligatures:normal;font-variant-position:normal;font-variant-caps:normal;font-variant-numeric:normal;font-variant-alternates:normal;font-variant-east-asian:normal;font-feature-settings:normal;font-variation-settings:normal;text-indent:0;text-align:start;text-decoration:none;text-decoration-line:none;text-decoration-style:solid;text-decoration-color:#000000;letter-spacing:normal;word-spacing:normal;text-transform:none;writing-mode:lr-tb;direction:ltr;text-orientation:mixed;dominant-baseline:auto;baseline-shift:baseline;text-anchor:start;white-space:normal;shape-padding:0;shape-margin:0;inline-size:0;clip-rule:nonzero;display:inline;overflow:visible;visibility:visible;isolation:auto;mix-blend-mode:normal;color-interpolation:sRGB;color-interpolation-filters:linearRGB;solid-color:#000000;solid-opacity:1;vector-effect:none;fill:#a75f4a;fill-opacity:1;fill-rule:nonzero;stroke:none;stroke-width:14.7676;stroke-linecap:round;stroke-linejoin:round;stroke-miterlimit:4;stroke-dasharray:none;stroke-dashoffset:0;stroke-opacity:1.0;color-rendering:auto;image-rendering:auto;shape-rendering:auto;text-rendering:auto;enable-background:accumulate;stop-color:#000000;stop-opacity:1;" /><path
       id="path3064"
       d="M 15203.385 12233.725 C 15199.85 12233.774 15196.122 12234.897 15193.348 12237.445 C 15189.648 12240.843 15188.051 12245.537 15187.377 12250.838 C 15186.702 12256.139 15186.945 12262.398 15188.014 12270.135 C 15192.286 12301.083 15210.107 12356.162 15250.211 12449.904 A 7.3845384 7.3845384 0 0 0 15250.213 12449.908 C 15264.429 12483.079 15278.767 12555.243 15296.543 12634.982 C 15314.318 12714.719 15335.813 12802.523 15366.266 12870.029 C 15368.886 12875.853 15375.372 12897.547 15383.691 12928.42 C 15392.011 12959.293 15402.572 13000.1 15414.855 13047.102 C 15439.423 13141.105 15470.881 13259.901 15505.18 13374 C 15539.478 13488.099 15576.552 13597.423 15612.715 13673.014 C 15630.796 13710.809 15648.474 13740.169 15666.455 13757.955 C 15675.446 13766.848 15684.647 13773.016 15694.576 13775.152 C 15704.506 13777.289 15714.908 13774.683 15723.594 13767.779 A 7.3845384 7.3845384 0 0 0 15723.598 13767.777 C 15735.302 13758.462 15743.912 13754.253 15750.535 13750.451 C 15753.847 13748.55 15756.855 13746.78 15759.441 13743.746 C 15762.028 13740.712 15763.484 13736.167 15763.248 13731.961 C 15762.775 13723.548 15758.561 13715.15 15751.135 13699.371 C 15743.71 13683.595 15732.709 13660.914 15717.762 13627.033 L 15717.758 13627.023 C 15717.757 13627.022 15717.757 13627.021 15717.756 13627.02 C 15648.365 13468.9 15597.216 13219.923 15537.549 12975.623 C 15477.924 12731.499 15410.006 12491.947 15304.152 12349.91 C 15304.013 12349.676 15303.848 12349.358 15303.613 12348.965 C 15303.183 12348.243 15302.603 12347.285 15301.9 12346.137 C 15300.496 12343.839 15298.602 12340.785 15296.482 12337.447 C 15292.243 12330.773 15287.183 12323.051 15283.104 12317.748 C 15282.085 12316.424 15281.403 12315.32 15280.502 12314.273 C 15280.5 12314.272 15280.5 12314.269 15280.498 12314.268 C 15277.264 12308.496 15273.65 12302.582 15269.779 12296.693 C 15254.35 12273.222 15235.489 12250.403 15219.209 12239.598 C 15215.139 12236.896 15211.183 12234.856 15206.812 12234.02 C 15205.72 12233.81 15204.563 12233.708 15203.385 12233.725 z M 15203.336 12248.32 C 15203.302 12248.351 15202.722 12248.274 15204.037 12248.525 C 15205.352 12248.777 15207.955 12249.854 15211.041 12251.902 C 15223.386 12260.097 15242.712 12282.403 15257.439 12304.807 C 15260.046 12308.772 15262.321 12312.68 15264.625 12316.586 C 15264.003 12319.139 15264.606 12320.211 15264.926 12321.611 C 15266.428 12328.194 15270.999 12338.996 15281.307 12361.119 A 7.3845384 7.3845384 0 0 0 15294.385 12361.707 C 15396.092 12500.177 15464.074 12737.039 15523.201 12979.127 C 15582.782 13223.071 15633.632 13472.086 15704.238 13632.967 A 7.3845384 7.3845384 0 0 0 15704.244 13632.98 C 15719.293 13667.091 15730.416 13690.033 15737.771 13705.66 C 15745.126 13721.288 15748.35 13730.077 15748.502 13732.789 C 15748.578 13734.145 15748.644 13733.647 15748.203 13734.164 C 15747.762 13734.681 15746.106 13735.965 15743.184 13737.643 C 15737.338 13740.997 15727.198 13746.038 15714.402 13756.223 C 15708.465 13760.941 15703.579 13761.984 15697.684 13760.715 C 15691.787 13759.446 15684.625 13755.154 15676.842 13747.455 C 15661.276 13732.058 15643.766 13703.706 15626.035 13666.643 C 15590.573 13592.515 15553.522 13483.526 15519.32 13369.75 C 15485.119 13255.974 15453.702 13137.332 15429.145 13043.367 C 15416.866 12996.385 15406.302 12955.574 15397.949 12924.576 C 15389.597 12893.578 15383.864 12873.147 15379.734 12863.971 A 7.3845384 7.3845384 0 0 0 15379.73 12863.963 C 15350.185 12798.471 15328.681 12711.278 15310.957 12631.768 C 15293.233 12552.26 15279.572 12480.926 15263.789 12444.096 L 15263.787 12444.092 C 15223.892 12350.837 15206.464 12295.791 15202.643 12268.115 C 15201.687 12261.196 15201.604 12256.017 15202.025 12252.703 C 15202.447 12249.389 15203.369 12248.29 15203.336 12248.32 z "
       style="color:#000000;font-style:normal;font-variant:normal;font-weight:normal;font-stretch:normal;font-size:medium;line-height:normal;font-family:sans-serif;font-variant-ligatures:normal;font-variant-position:normal;font-variant-caps:normal;font-variant-numeric:normal;font-variant-alternates:normal;font-variant-east-asian:normal;font-feature-settings:normal;font-variation-settings:normal;text-indent:0;text-align:start;text-decoration:none;text-decoration-line:none;text-decoration-style:solid;text-decoration-color:#000000;letter-spacing:normal;word-spacing:normal;text-transform:none;writing-mode:lr-tb;direction:ltr;text-orientation:mixed;dominant-baseline:auto;baseline-shift:baseline;text-anchor:start;white-space:normal;shape-padding:0;shape-margin:0;inline-size:0;clip-rule:nonzero;display:inline;overflow:visible;visibility:visible;isolation:auto;mix-blend-mode:normal;color-interpolation:sRGB;color-interpolation-filters:linearRGB;solid-color:#000000;solid-opacity:1;vector-effect:none;fill:#2b2a29;fill-opacity:1;fill-rule:nonzero;stroke:none;stroke-width:14.7676;stroke-linecap:round;stroke-linejoin:round;stroke-miterlimit:4;stroke-dasharray:none;stroke-dashoffset:0;stroke-opacity:1.0;color-rendering:auto;image-rendering:auto;shape-rendering:auto;text-rendering:auto;enable-background:accumulate;stop-color:#000000;stop-opacity:1;" /></g><g
     style="opacity:1"
     id="g3054"><path
       id="path3056"
       d="m 15523,12236 c -252,285 -401,1001 -776,1351 -22,20 155,6 217,-165 25,-69 278,-475 454,-816 98,-192 218,-408 147,-425 -23,26 -5,14 -42,55 z"
       style="color:#000000;font-style:normal;font-variant:normal;font-weight:normal;font-stretch:normal;font-size:medium;line-height:normal;font-family:sans-serif;font-variant-ligatures:normal;font-variant-position:normal;font-variant-caps:normal;font-variant-numeric:normal;font-variant-alternates:normal;font-variant-east-asian:normal;font-feature-settings:normal;font-variation-settings:normal;text-indent:0;text-align:start;text-decoration:none;text-decoration-line:none;text-decoration-style:solid;text-decoration-color:#000000;letter-spacing:normal;word-spacing:normal;text-transform:none;writing-mode:lr-tb;direction:ltr;text-orientation:mixed;dominant-baseline:auto;baseline-shift:baseline;text-anchor:start;white-space:normal;shape-padding:0;shape-margin:0;inline-size:0;clip-rule:nonzero;display:inline;overflow:visible;visibility:visible;isolation:auto;mix-blend-mode:normal;color-interpolation:sRGB;color-interpolation-filters:linearRGB;solid-color:#000000;solid-opacity:1;vector-effect:none;fill:#a75f4a;fill-opacity:1;fill-rule:nonzero;stroke:none;stroke-width:14.7676;stroke-linecap:round;stroke-linejoin:round;stroke-miterlimit:4;stroke-dasharray:none;stroke-dashoffset:0;stroke-opacity:1.0;color-rendering:auto;image-rendering:auto;shape-rendering:auto;text-rendering:auto;enable-background:accumulate;stop-color:#000000;stop-opacity:1;" /><path
       id="path3058"
       d="M 15564.906 12173.617 A 7.3845384 7.3845384 0 0 0 15559.469 12176.107 C 15547.709 12189.401 15545.563 12194.331 15542.803 12199.277 C 15540.042 12204.223 15535.859 12210.729 15517.518 12231.053 A 7.3845384 7.3845384 0 0 0 15517.469 12231.109 C 15389.915 12375.367 15289.934 12625.904 15174.385 12884.109 C 15058.836 13142.314 14927.981 13407.982 14741.961 13581.602 L 14742.033 13581.537 C 14739.826 13583.544 14737.293 13586.518 14737.789 13591.113 C 14738.285 13595.709 14741.953 13598.361 14744.609 13599.475 C 14749.923 13601.703 14755.689 13601.695 14763.502 13601.062 C 14779.129 13599.797 14801.709 13594.363 14827.055 13582.848 C 14877.746 13559.818 14939.196 13512.074 14970.941 13424.518 A 7.3845384 7.3845384 0 0 0 14970.941 13424.516 C 14976.623 13408.835 14997.219 13369.999 15027.164 13316.975 C 15057.109 13263.95 15096.573 13196.081 15140.766 13119.697 C 15229.15 12966.931 15336.447 12780.107 15424.561 12609.387 A 7.3845384 7.3845384 0 0 0 15424.576 12609.357 C 15473.531 12513.446 15528.075 12411.42 15561.691 12330.715 C 15578.5 12290.362 15590.152 12255.459 15593.105 12228.379 C 15594.582 12214.839 15593.973 12203.117 15589.895 12193.408 C 15585.816 12183.699 15577.545 12176.41 15566.719 12173.818 A 7.3845384 7.3845384 0 0 0 15564.906 12173.617 z M 15567.398 12189.572 C 15571.679 12191.443 15574.291 12194.389 15576.281 12199.127 C 15578.847 12205.234 15579.746 12214.677 15578.426 12226.777 C 15575.786 12250.978 15564.625 12285.263 15548.059 12325.035 C 15514.925 12404.58 15460.469 12506.554 15411.424 12602.643 C 15323.54 12772.915 15216.345 12959.578 15127.984 13112.303 C 15083.802 13188.669 15044.328 13256.55 15014.305 13309.713 C 14984.281 13362.876 14963.877 13400.665 14957.059 13419.484 C 14926.804 13502.927 14868.754 13547.682 14820.945 13569.402 C 14797.041 13580.262 14775.621 13585.266 14762.311 13586.344 C 14760.732 13586.472 14759.701 13586.355 14758.354 13586.354 C 14943.927 13409.946 15073.465 13145.778 15187.865 12890.141 C 15303.551 12631.629 15404.059 12381.7 15528.482 12240.947 C 15528.486 12240.943 15528.488 12240.94 15528.492 12240.936 C 15528.505 12240.921 15528.518 12240.905 15528.531 12240.891 C 15547.142 12220.263 15552.461 12212.27 15555.697 12206.473 C 15558.553 12201.357 15559.596 12198.727 15567.398 12189.572 z "
       style="color:#000000;font-style:normal;font-variant:normal;font-weight:normal;font-stretch:normal;font-size:medium;line-height:normal;font-family:sans-serif;font-variant-ligatures:normal;font-variant-position:normal;font-variant-caps:normal;font-variant-numeric:normal;font-variant-alternates:normal;font-variant-east-asian:normal;font-feature-settings:normal;font-variation-settings:normal;text-indent:0;text-align:start;text-decoration:none;text-decoration-line:none;text-decoration-style:solid;text-decoration-color:#000000;letter-spacing:normal;word-spacing:normal;text-transform:none;writing-mode:lr-tb;direction:ltr;text-orientation:mixed;dominant-baseline:auto;baseline-shift:baseline;text-anchor:start;white-space:normal;shape-padding:0;shape-margin:0;inline-size:0;clip-rule:nonzero;display:inline;overflow:visible;visibility:visible;isolation:auto;mix-blend-mode:normal;color-interpolation:sRGB;color-interpolation-filters:linearRGB;solid-color:#000000;solid-opacity:1;vector-effect:none;fill:#2b2a29;fill-opacity:1;fill-rule:nonzero;stroke:none;stroke-width:14.7676;stroke-linecap:round;stroke-linejoin:round;stroke-miterlimit:4;stroke-dasharray:none;stroke-dashoffset:0;stroke-opacity:1.0;color-rendering:auto;image-rendering:auto;shape-rendering:auto;text-rendering:auto;enable-background:accumulate;stop-color:#000000;stop-opacity:1;" /></g><g
     style="opacity:1"
     id="g3048"><path
       id="path3050"
       d="m 16316,12763 c -122,-187 -172,-245 -239,-453 -12,-39 -79,-57 12,151 2,5 721,1411 656,994 0,-3 -407,-659 -429,-692 z"
       style="color:#000000;font-style:normal;font-variant:normal;font-weight:normal;font-stretch:normal;font-size:medium;line-height:normal;font-family:sans-serif;font-variant-ligatures:normal;font-variant-position:normal;font-variant-caps:normal;font-variant-numeric:normal;font-variant-alternates:normal;font-variant-east-asian:normal;font-feature-settings:normal;font-variation-settings:normal;text-indent:0;text-align:start;text-decoration:none;text-decoration-line:none;text-decoration-style:solid;text-decoration-color:#000000;letter-spacing:normal;word-spacing:normal;text-transform:none;writing-mode:lr-tb;direction:ltr;text-orientation:mixed;dominant-baseline:auto;baseline-shift:baseline;text-anchor:start;white-space:normal;shape-padding:0;shape-margin:0;inline-size:0;clip-rule:nonzero;display:inline;overflow:visible;visibility:visible;isolation:auto;mix-blend-mode:normal;color-interpolation:sRGB;color-interpolation-filters:linearRGB;solid-color:#000000;solid-opacity:1;vector-effect:none;fill:#a75f4a;fill-opacity:1;fill-rule:nonzero;stroke:none;stroke-width:14.7676;stroke-linecap:round;stroke-linejoin:round;stroke-miterlimit:4;stroke-dasharray:none;stroke-dashoffset:0;stroke-opacity:1.0;color-rendering:auto;image-rendering:auto;shape-rendering:auto;text-rendering:auto;enable-background:accumulate;stop-color:#000000;stop-opacity:1;" /><path
       id="path3052"
       d="M 16053.834 12278.158 C 16052.514 12278.147 16051.169 12278.288 16049.811 12278.613 C 16044.376 12279.914 16039.889 12284.399 16037.551 12290.053 C 16032.874 12301.361 16033.374 12318.235 16039.859 12345.859 C 16046.335 12373.443 16059.34 12411.592 16082.145 12463.742 C 16082.546 12464.745 16082.433 12464.388 16082.551 12464.627 C 16082.668 12464.866 16082.819 12465.17 16083.012 12465.555 C 16083.397 12466.324 16083.944 12467.411 16084.656 12468.814 C 16086.08 12471.622 16088.155 12475.692 16090.838 12480.934 C 16096.204 12491.416 16104.004 12506.581 16113.871 12525.645 C 16133.605 12563.772 16161.609 12617.493 16194.957 12680.516 C 16261.653 12806.561 16349.714 12969.803 16435.719 13119.92 C 16521.723 13270.037 16605.487 13406.854 16664.426 13480.91 C 16679.16 13499.424 16692.323 13514.025 16703.924 13524.115 C 16715.524 13534.205 16725.455 13540.738 16736.35 13539.561 C 16741.797 13538.972 16746.902 13535.612 16749.996 13530.957 C 16753.09 13526.302 16754.745 13520.574 16755.684 13513.596 C 16757.561 13499.64 16756.413 13480.282 16752.295 13453.863 L 16752.385 13455 C 16752.385 13452.38 16751.981 13452.56 16751.855 13452.24 C 16751.73 13451.921 16751.652 13451.761 16751.58 13451.611 C 16751.436 13451.312 16751.325 13451.104 16751.195 13450.865 C 16750.937 13450.388 16750.624 13449.839 16750.221 13449.143 C 16749.413 13447.749 16748.259 13445.804 16746.756 13443.299 C 16743.75 13438.288 16739.361 13431.061 16733.77 13421.908 C 16722.587 13403.602 16706.601 13377.598 16687.348 13346.375 C 16648.842 13283.928 16597.278 13200.611 16545.025 13116.357 C 16492.773 13032.104 16439.832 12946.913 16398.578 12880.719 C 16357.344 12814.557 16328.138 12767.9 16322.184 12758.965 C 16200.08 12571.806 16150.835 12515.111 16084.057 12307.828 C 16080.536 12296.385 16073.532 12286.781 16064.811 12281.557 C 16061.54 12279.597 16057.795 12278.19 16053.834 12278.158 z M 16053.248 12292.977 C 16053.638 12292.883 16055.035 12292.915 16057.221 12294.225 C 16061.593 12296.844 16067.464 12304.115 16069.943 12312.172 A 7.3845384 7.3845384 0 0 0 16069.973 12312.264 C 16137.179 12520.903 16187.939 12580.223 16309.816 12767.035 A 7.3845384 7.3845384 0 0 0 16309.855 12767.096 C 16314.921 12774.694 16344.801 12822.351 16386.047 12888.531 C 16427.293 12954.712 16480.227 13039.896 16532.475 13124.143 C 16584.722 13208.389 16636.283 13291.697 16674.777 13354.125 C 16694.024 13385.339 16710.007 13411.335 16721.168 13429.607 C 16726.749 13438.743 16731.125 13445.95 16734.092 13450.895 C 16735.575 13453.367 16736.709 13455.28 16737.443 13456.547 C 16737.642 13456.889 16737.724 13457.041 16737.859 13457.281 C 16741.704 13482.352 16742.539 13500.548 16741.049 13511.627 C 16740.292 13517.256 16738.904 13520.968 16737.697 13522.783 C 16736.491 13524.599 16736.038 13524.739 16734.764 13524.877 C 16732.215 13525.152 16724.044 13522.045 16713.615 13512.975 C 16703.187 13503.904 16690.394 13489.826 16675.98 13471.715 C 16618.325 13399.271 16534.402 13262.463 16448.531 13112.58 C 16362.661 12962.697 16274.66 12799.564 16208.012 12673.609 C 16174.688 12610.632 16146.7 12556.947 16126.984 12518.855 C 16117.127 12499.81 16109.338 12484.662 16103.984 12474.203 C 16101.307 12468.974 16099.239 12464.916 16097.828 12462.135 C 16097.123 12460.744 16096.581 12459.672 16096.215 12458.941 C 16096.032 12458.576 16095.892 12458.295 16095.805 12458.117 C 16095.717 12457.939 16095.485 12457.333 16095.855 12458.258 A 7.3845384 7.3845384 0 0 0 16095.766 12458.041 C 16073.133 12406.31 16060.405 12368.766 16054.234 12342.484 C 16048.064 12316.202 16049.001 12301.014 16051.199 12295.697 C 16052.299 12293.039 16052.858 12293.07 16053.248 12292.977 z M 16737.768 13456.598 C 16737.803 13456.827 16737.818 13457.012 16737.854 13457.24 C 16737.811 13457.148 16737.804 13456.783 16737.768 13456.598 z "
       style="color:#000000;font-style:normal;font-variant:normal;font-weight:normal;font-stretch:normal;font-size:medium;line-height:normal;font-family:sans-serif;font-variant-ligatures:normal;font-variant-position:normal;font-variant-caps:normal;font-variant-numeric:normal;font-variant-alternates:normal;font-variant-east-asian:normal;font-feature-settings:normal;font-variation-settings:normal;text-indent:0;text-align:start;text-decoration:none;text-decoration-line:none;text-decoration-style:solid;text-decoration-color:#000000;letter-spacing:normal;word-spacing:normal;text-transform:none;writing-mode:lr-tb;direction:ltr;text-orientation:mixed;dominant-baseline:auto;baseline-shift:baseline;text-anchor:start;white-space:normal;shape-padding:0;shape-margin:0;inline-size:0;clip-rule:nonzero;display:inline;overflow:visible;visibility:visible;isolation:auto;mix-blend-mode:normal;color-interpolation:sRGB;color-interpolation-filters:linearRGB;solid-color:#000000;solid-opacity:1;vector-effect:none;fill:#2b2a29;fill-opacity:1;fill-rule:nonzero;stroke:none;stroke-width:14.7676;stroke-linecap:round;stroke-linejoin:round;stroke-miterlimit:4;stroke-dasharray:none;stroke-dashoffset:0;stroke-opacity:1.0;color-rendering:auto;image-rendering:auto;shape-rendering:auto;text-rendering:auto;enable-background:accumulate;stop-color:#000000;stop-opacity:1;" /></g><path
     id="path3092"
     d="M 16027.697 12438.516 C 16015.977 12438.316 15999.869 12438.586 15980.6 12439.182 C 15942.06 12440.373 15890.943 12442.876 15838.24 12445.627 C 15732.834 12451.129 15620.036 12457.563 15592.25 12456.621 A 7.3838 7.3838 0 0 0 15584.621 12463.75 A 7.3838 7.3838 0 0 0 15591.75 12471.379 C 15622.964 12472.437 15733.666 12465.871 15839.01 12460.373 C 15891.682 12457.624 15942.753 12455.127 15981.057 12453.943 C 16000.209 12453.351 16016.188 12453.09 16027.447 12453.281 C 16033.077 12453.377 16037.551 12453.593 16040.451 12453.896 C 16041.719 12454.029 16042.515 12454.177 16043.014 12454.283 C 16042.963 12454.257 16042.818 12454.081 16042.756 12454.041 A 7.3838 7.3838 0 0 0 16043.16 12454.307 C 16043.199 12454.315 16043.352 12454.332 16043.383 12454.34 C 16043.463 12454.36 16043.328 12454.366 16043.338 12454.412 A 7.3838 7.3838 0 0 0 16051.613 12453.766 A 7.3838 7.3838 0 0 0 16052.766 12443.387 C 16050.111 12440.068 16048.468 12440.384 16046.934 12440.004 C 16045.399 12439.624 16043.834 12439.404 16041.988 12439.211 C 16038.297 12438.825 16033.558 12438.615 16027.697 12438.516 z "
     style="color:#000000;font-style:normal;font-variant:normal;font-weight:normal;font-stretch:normal;font-size:medium;line-height:normal;font-family:sans-serif;font-variant-ligatures:normal;font-variant-position:normal;font-variant-caps:normal;font-variant-numeric:normal;font-variant-alternates:normal;font-variant-east-asian:normal;font-feature-settings:normal;font-variation-settings:normal;text-indent:0;text-align:start;text-decoration:none;text-decoration-line:none;text-decoration-style:solid;text-decoration-color:#000000;letter-spacing:normal;word-spacing:normal;text-transform:none;writing-mode:lr-tb;direction:ltr;text-orientation:mixed;dominant-baseline:auto;baseline-shift:baseline;text-anchor:start;white-space:normal;shape-padding:0;shape-margin:0;inline-size:0;clip-rule:nonzero;display:inline;overflow:visible;visibility:visible;isolation:auto;mix-blend-mode:normal;color-interpolation:sRGB;color-interpolation-filters:linearRGB;solid-color:#000000;solid-opacity:1;vector-effect:none;fill:#2b2a29;fill-opacity:1;fill-rule:nonzero;stroke:none;stroke-width:14.7676;stroke-linecap:round;stroke-linejoin:round;stroke-miterlimit:4;stroke-dasharray:none;stroke-dashoffset:0;stroke-opacity:1;color-rendering:auto;image-rendering:auto;shape-rendering:auto;text-rendering:auto;enable-background:accumulate;stop-color:#000000;stop-opacity:1;opacity:1" /><path
     id="path3096"
     d="M 15641.971 12614.617 A 7.3838 7.3838 0 0 0 15640.887 12614.701 A 7.3838 7.3838 0 0 0 15634.701 12623.113 C 15643.651 12681.786 15678.2 12934.934 15731.164 13175.463 C 15757.646 13295.727 15788.707 13412.875 15823.711 13501.51 C 15841.213 13545.827 15859.659 13583.019 15879.373 13610.129 C 15899.088 13637.239 15920.387 13654.888 15944.244 13657.346 A 7.3838 7.3838 0 0 0 15952.346 13650.756 A 7.3838 7.3838 0 0 0 15945.756 13642.654 C 15928.363 13640.862 15909.819 13626.886 15891.318 13601.445 C 15872.818 13576.005 15854.678 13539.72 15837.445 13496.084 C 15802.98 13408.813 15771.979 13292.148 15745.586 13172.287 C 15692.8 12932.566 15658.349 12680.214 15649.299 12620.887 A 7.3838 7.3838 0 0 0 15641.971 12614.617 z "
     style="color:#000000;font-style:normal;font-variant:normal;font-weight:normal;font-stretch:normal;font-size:medium;line-height:normal;font-family:sans-serif;font-variant-ligatures:normal;font-variant-position:normal;font-variant-caps:normal;font-variant-numeric:normal;font-variant-alternates:normal;font-variant-east-asian:normal;font-feature-settings:normal;font-variation-settings:normal;text-indent:0;text-align:start;text-decoration:none;text-decoration-line:none;text-decoration-style:solid;text-decoration-color:#000000;letter-spacing:normal;word-spacing:normal;text-transform:none;writing-mode:lr-tb;direction:ltr;text-orientation:mixed;dominant-baseline:auto;baseline-shift:baseline;text-anchor:start;white-space:normal;shape-padding:0;shape-margin:0;inline-size:0;clip-rule:nonzero;display:inline;overflow:visible;visibility:visible;isolation:auto;mix-blend-mode:normal;color-interpolation:sRGB;color-interpolation-filters:linearRGB;solid-color:#000000;solid-opacity:1;vector-effect:none;fill:#2b2a29;fill-opacity:1;fill-rule:nonzero;stroke:none;stroke-width:14.7676;stroke-linecap:round;stroke-linejoin:round;stroke-miterlimit:4;stroke-dasharray:none;stroke-dashoffset:0;stroke-opacity:1;color-rendering:auto;image-rendering:auto;shape-rendering:auto;text-rendering:auto;enable-background:accumulate;stop-color:#000000;stop-opacity:1;opacity:1" /><path
     id="path3100"
     d="M 15772.951 12746.617 A 7.3838 7.3838 0 0 0 15772.094 12746.672 A 7.3838 7.3838 0 0 0 15765.672 12754.906 C 15777.392 12849.689 15831.09 13003.635 15899.012 13155.268 C 15966.933 13306.901 16048.881 13455.593 16118.334 13538.734 L 16137.307 13561.703 A 7.3838 7.3838 0 0 0 16147.703 13562.693 A 7.3838 7.3838 0 0 0 16148.693 13552.297 L 16129.693 13529.297 A 7.3845384 7.3845384 0 0 0 16129.666 13529.266 C 16062.119 13448.407 15980.067 13300.099 15912.488 13149.232 C 15844.91 12998.365 15791.608 12844.311 15780.328 12753.094 A 7.3838 7.3838 0 0 0 15772.951 12746.617 z "
     style="color:#000000;font-style:normal;font-variant:normal;font-weight:normal;font-stretch:normal;font-size:medium;line-height:normal;font-family:sans-serif;font-variant-ligatures:normal;font-variant-position:normal;font-variant-caps:normal;font-variant-numeric:normal;font-variant-alternates:normal;font-variant-east-asian:normal;font-feature-settings:normal;font-variation-settings:normal;text-indent:0;text-align:start;text-decoration:none;text-decoration-line:none;text-decoration-style:solid;text-decoration-color:#000000;letter-spacing:normal;word-spacing:normal;text-transform:none;writing-mode:lr-tb;direction:ltr;text-orientation:mixed;dominant-baseline:auto;baseline-shift:baseline;text-anchor:start;white-space:normal;shape-padding:0;shape-margin:0;inline-size:0;clip-rule:nonzero;display:inline;overflow:visible;visibility:visible;isolation:auto;mix-blend-mode:normal;color-interpolation:sRGB;color-interpolation-filters:linearRGB;solid-color:#000000;solid-opacity:1;vector-effect:none;fill:#2b2a29;fill-opacity:1;fill-rule:nonzero;stroke:none;stroke-width:14.7676;stroke-linecap:round;stroke-linejoin:round;stroke-miterlimit:4;stroke-dasharray:none;stroke-dashoffset:0;stroke-opacity:1;color-rendering:auto;image-rendering:auto;shape-rendering:auto;text-rendering:auto;enable-background:accumulate;stop-color:#000000;stop-opacity:1;opacity:1" /><path
     id="path3104"
     d="M 16005.906 12554.617 A 7.3838 7.3838 0 0 0 16005.049 12554.678 A 7.3838 7.3838 0 0 0 15998.678 12562.951 C 16040.844 12887.73 16150.047 13059.972 16259.734 13171.551 C 16369.422 13283.13 16478.183 13334.755 16520.443 13416.395 A 7.3838 7.3838 0 0 0 16530.395 13419.557 A 7.3838 7.3838 0 0 0 16533.557 13409.605 C 16487.817 13321.245 16378.078 13270.87 16270.266 13161.199 C 16162.453 13051.528 16055.156 12883.27 16013.322 12561.049 A 7.3838 7.3838 0 0 0 16005.906 12554.617 z "
     style="color:#000000;font-style:normal;font-variant:normal;font-weight:normal;font-stretch:normal;font-size:medium;line-height:normal;font-family:sans-serif;font-variant-ligatures:normal;font-variant-position:normal;font-variant-caps:normal;font-variant-numeric:normal;font-variant-alternates:normal;font-variant-east-asian:normal;font-feature-settings:normal;font-variation-settings:normal;text-indent:0;text-align:start;text-decoration:none;text-decoration-line:none;text-decoration-style:solid;text-decoration-color:#000000;letter-spacing:normal;word-spacing:normal;text-transform:none;writing-mode:lr-tb;direction:ltr;text-orientation:mixed;dominant-baseline:auto;baseline-shift:baseline;text-anchor:start;white-space:normal;shape-padding:0;shape-margin:0;inline-size:0;clip-rule:nonzero;display:inline;overflow:visible;visibility:visible;isolation:auto;mix-blend-mode:normal;color-interpolation:sRGB;color-interpolation-filters:linearRGB;solid-color:#000000;solid-opacity:1;vector-effect:none;fill:#2b2a29;fill-opacity:1;fill-rule:nonzero;stroke:none;stroke-width:14.7676;stroke-linecap:round;stroke-linejoin:round;stroke-miterlimit:4;stroke-dasharray:none;stroke-dashoffset:0;stroke-opacity:1;color-rendering:auto;image-rendering:auto;shape-rendering:auto;text-rendering:auto;enable-background:accumulate;stop-color:#000000;stop-opacity:1;opacity:1" /><g
     style="opacity:1"
     id="g3106"><path
       id="path3108"
       d="m 15401,12596 c 144,-73 218,-72 201,-180 -27,6 -52,-1 -70,-15 -191,24 -628,316 -43,49 77,-35 -465,210 -248,160 46,-11 269,-126 296,-151 1,5 -426,185 -253,150 399,-80 183,-122 -56,27 -71,44 160,-28 173,-40 z"
       style="color:#000000;font-style:normal;font-variant:normal;font-weight:normal;font-stretch:normal;font-size:medium;line-height:normal;font-family:sans-serif;font-variant-ligatures:normal;font-variant-position:normal;font-variant-caps:normal;font-variant-numeric:normal;font-variant-alternates:normal;font-variant-east-asian:normal;font-feature-settings:normal;font-variation-settings:normal;text-indent:0;text-align:start;text-decoration:none;text-decoration-line:none;text-decoration-style:solid;text-decoration-color:#000000;letter-spacing:normal;word-spacing:normal;text-transform:none;writing-mode:lr-tb;direction:ltr;text-orientation:mixed;dominant-baseline:auto;baseline-shift:baseline;text-anchor:start;white-space:normal;shape-padding:0;shape-margin:0;inline-size:0;clip-rule:nonzero;display:inline;overflow:visible;visibility:visible;isolation:auto;mix-blend-mode:normal;color-interpolation:sRGB;color-interpolation-filters:linearRGB;solid-color:#000000;solid-opacity:1;vector-effect:none;fill:#96a7b1;fill-opacity:1;fill-rule:nonzero;stroke:none;stroke-width:14.7676;stroke-linecap:round;stroke-linejoin:round;stroke-miterlimit:4;stroke-dasharray:none;stroke-dashoffset:0;stroke-opacity:1.0;color-rendering:auto;image-rendering:auto;shape-rendering:auto;text-rendering:auto;enable-background:accumulate;stop-color:#000000;stop-opacity:1;" /><path
       id="path3110"
       d="M 15531.854 12393.617 A 7.3845384 7.3845384 0 0 0 15531.08 12393.674 C 15432.596 12406.049 15276.671 12484.953 15215.225 12528.605 C 15207.544 12534.062 15201.341 12538.965 15196.746 12543.373 C 15192.151 12547.781 15188.401 12550.823 15187.809 12557.506 C 15187.512 12560.847 15189.781 12565.326 15192.668 12567.082 C 15195.555 12568.838 15198.229 12569.096 15201.109 12569.162 C 15206.871 12569.295 15214 12568.043 15223.893 12565.514 C 15234.181 12562.883 15247.522 12558.692 15263.955 12552.889 C 15233.812 12569.219 15208.294 12584.221 15194.396 12595.424 C 15189.275 12599.552 15185.53 12602.8 15183.234 12607.637 C 15182.086 12610.055 15181.302 12613.754 15182.953 12617.209 C 15184.605 12620.664 15187.741 12622.315 15190.373 12623.111 C 15195.638 12624.705 15201.364 12624.4 15209.754 12623.389 C 15217.363 12622.471 15227.271 12620.598 15239.225 12617.922 C 15240.024 12618.525 15240.839 12618.825 15241.658 12619.178 C 15235.823 12622.612 15229.983 12626.064 15224.111 12629.725 C 15219.484 12632.592 15215.984 12635.024 15213.299 12637.322 C 15210.613 12639.62 15208.233 12641.27 15207.281 12645.93 C 15206.805 12648.26 15207.575 12651.722 15209.328 12653.699 C 15211.081 12655.677 15212.95 12656.354 15214.502 12656.787 C 15217.607 12657.653 15220.352 12657.582 15223.715 12657.369 C 15237.164 12656.52 15259.544 12651.165 15284.973 12644.115 C 15310.401 12637.066 15338.373 12628.285 15360.916 12620.477 C 15372.188 12616.572 15382.09 12612.918 15389.713 12609.805 C 15393.525 12608.248 15396.762 12606.832 15399.396 12605.535 C 15401.455 12604.522 15403.033 12603.649 15404.643 12602.436 C 15476.02 12566.28 15530.107 12548.612 15565.902 12525.312 C 15583.826 12513.646 15597.33 12500.177 15604.826 12482.273 C 15612.322 12464.37 15613.673 12442.663 15609.295 12414.852 A 7.3845384 7.3845384 0 0 0 15600.398 12408.793 C 15575.528 12414.32 15552.859 12407.87 15536.533 12395.172 A 7.3845384 7.3845384 0 0 0 15531.854 12393.617 z M 15530.25 12408.762 C 15547.789 12421.336 15570.762 12427.909 15595.533 12424.535 C 15598.223 12446.745 15596.687 12463.476 15591.205 12476.57 C 15585.107 12491.135 15574.299 12502.229 15557.848 12512.938 C 15545.723 12520.83 15529.672 12528.532 15511.809 12536.66 C 15510.9 12534.872 15509.559 12533.399 15508.256 12532.518 C 15504.301 12529.842 15500.501 12529.519 15495.656 12529.252 C 15476.277 12528.183 15439.524 12534.721 15391.367 12550.662 C 15390.795 12550.852 15390.179 12551.081 15389.604 12551.273 C 15392.925 12549.587 15396.177 12548.019 15399.492 12546.32 C 15432.009 12529.655 15463.924 12512.557 15489.48 12498.012 C 15513.165 12484.532 15530.478 12473.998 15539.627 12466.318 C 15539.676 12466.288 15539.753 12466.251 15539.801 12466.221 C 15540.35 12465.876 15540.837 12465.57 15541.537 12464.971 C 15541.887 12464.671 15542.301 12464.335 15542.91 12463.5 C 15543.519 12462.665 15544.92 12460.949 15544.24 12457.553 A 7.3845384 7.3845384 0 0 0 15531.982 12453.582 C 15531.876 12453.68 15531.57 12453.885 15531.451 12453.99 C 15530.912 12454.31 15530.192 12454.728 15529.002 12455.35 C 15526.146 12456.843 15521.737 12458.997 15516.156 12461.645 C 15504.994 12466.939 15489.079 12474.241 15470.488 12482.756 C 15433.306 12499.785 15385.39 12521.677 15342.775 12542.357 C 15300.161 12563.038 15263.307 12582.047 15246.193 12595.172 C 15242.712 12597.842 15239.991 12600.059 15237.926 12603.104 C 15225.28 12605.981 15215.236 12607.855 15207.986 12608.729 C 15205.225 12609.061 15203.26 12609.086 15201.268 12609.139 C 15202.086 12608.378 15202.639 12607.748 15203.666 12606.92 C 15221.369 12592.65 15266.619 12567.444 15315.869 12542.195 C 15365.12 12516.947 15418.817 12491.189 15455.369 12473.943 C 15473.645 12465.32 15487.636 12458.825 15494.652 12455.578 C 15496.406 12454.766 15497.724 12454.159 15498.566 12453.77 C 15498.988 12453.575 15499.288 12453.436 15499.475 12453.35 C 15499.568 12453.306 15499.608 12453.287 15499.701 12453.242 C 15499.748 12453.22 15494.329 12439.5 15493.799 12439.713 C 15493.269 12439.926 15493.532 12439.826 15493.498 12439.842 C 15493.489 12439.846 15493.388 12439.892 15493.379 12439.896 C 15492.787 12440.163 15490.678 12441.126 15485.945 12443.277 A 7.3845384 7.3845384 0 0 0 15485.934 12443.283 C 15339.83 12509.966 15257.289 12541.729 15220.232 12551.205 C 15214.741 12552.609 15210.587 12553.37 15207.186 12553.844 C 15210.913 12550.296 15216.569 12545.764 15223.775 12540.645 C 15281.789 12499.431 15437.403 12421.505 15530.25 12408.762 z M 15491.08 12544.008 C 15487.049 12546.22 15481.631 12548.783 15474.443 12551.66 C 15447.772 12562.336 15399.15 12576.747 15323.783 12593.125 C 15349.547 12581.439 15373.98 12571.974 15396.008 12564.682 C 15439.7 12550.218 15474.561 12544.173 15491.08 12544.008 z M 15393.576 12591.898 C 15393.175 12592.125 15393.356 12592.047 15392.873 12592.285 C 15390.73 12593.34 15387.741 12594.658 15384.131 12596.133 C 15376.91 12599.082 15367.187 12602.678 15356.084 12606.523 C 15333.877 12614.215 15306.099 12622.934 15281.027 12629.885 C 15262.731 12634.957 15245.733 12639.017 15233.811 12641.121 C 15246.854 12633.041 15259.812 12625.56 15272.611 12618.602 C 15276.545 12617.943 15280.695 12617.201 15285.465 12616.236 C 15328.497 12607.608 15364.007 12599.468 15393.576 12591.898 z "
       style="color:#000000;font-style:normal;font-variant:normal;font-weight:normal;font-stretch:normal;font-size:medium;line-height:normal;font-family:sans-serif;font-variant-ligatures:normal;font-variant-position:normal;font-variant-caps:normal;font-variant-numeric:normal;font-variant-alternates:normal;font-variant-east-asian:normal;font-feature-settings:normal;font-variation-settings:normal;text-indent:0;text-align:start;text-decoration:none;text-decoration-line:none;text-decoration-style:solid;text-decoration-color:#000000;letter-spacing:normal;word-spacing:normal;text-transform:none;writing-mode:lr-tb;direction:ltr;text-orientation:mixed;dominant-baseline:auto;baseline-shift:baseline;text-anchor:start;white-space:normal;shape-padding:0;shape-margin:0;inline-size:0;clip-rule:nonzero;display:inline;overflow:visible;visibility:visible;isolation:auto;mix-blend-mode:normal;color-interpolation:sRGB;color-interpolation-filters:linearRGB;solid-color:#000000;solid-opacity:1;vector-effect:none;fill:#2b2a29;fill-opacity:1;fill-rule:nonzero;stroke:none;stroke-width:14.7676;stroke-linecap:round;stroke-linejoin:round;stroke-miterlimit:4;stroke-dasharray:none;stroke-dashoffset:0;stroke-opacity:1.0;color-rendering:auto;image-rendering:auto;shape-rendering:auto;text-rendering:auto;enable-background:accumulate;stop-color:#000000;stop-opacity:1;" /></g><g
     style="opacity:1"
     id="g3112"><path
       id="path3114"
       d="m 16226,12508 c -407,-227 -110,-46 30,32 83,-28 -319,-230 -198,-87 19,23 160,34 112,116 -17,29 184,30 -161,-148 -8,-4 -2,-23 104,87 8,8 149,66 113,0 z"
       style="color:#000000;font-style:normal;font-variant:normal;font-weight:normal;font-stretch:normal;font-size:medium;line-height:normal;font-family:sans-serif;font-variant-ligatures:normal;font-variant-position:normal;font-variant-caps:normal;font-variant-numeric:normal;font-variant-alternates:normal;font-variant-east-asian:normal;font-feature-settings:normal;font-variation-settings:normal;text-indent:0;text-align:start;text-decoration:none;text-decoration-line:none;text-decoration-style:solid;text-decoration-color:#000000;letter-spacing:normal;word-spacing:normal;text-transform:none;writing-mode:lr-tb;direction:ltr;text-orientation:mixed;dominant-baseline:auto;baseline-shift:baseline;text-anchor:start;white-space:normal;shape-padding:0;shape-margin:0;inline-size:0;clip-rule:nonzero;display:inline;overflow:visible;visibility:visible;isolation:auto;mix-blend-mode:normal;color-interpolation:sRGB;color-interpolation-filters:linearRGB;solid-color:#000000;solid-opacity:1;vector-effect:none;fill:#96a7b1;fill-opacity:1;fill-rule:nonzero;stroke:none;stroke-width:14.7676;stroke-linecap:round;stroke-linejoin:round;stroke-miterlimit:4;stroke-dasharray:none;stroke-dashoffset:0;stroke-opacity:1.0;color-rendering:auto;image-rendering:auto;shape-rendering:auto;text-rendering:auto;enable-background:accumulate;stop-color:#000000;stop-opacity:1;" /><path
       id="path3116"
       d="M 16019.854 12390.246 C 16019.025 12390.263 16017.777 12390.25 16015.936 12391.379 C 16014.094 12392.507 16012.361 12395.602 16012.338 12397.723 C 16012.291 12401.964 16013.764 12402.361 16014.35 12403.055 C 16014.935 12403.748 16015.408 12404.178 16015.924 12404.633 C 16016.956 12405.542 16018.135 12406.443 16019.615 12407.521 C 16021.613 12408.976 16024.854 12411.108 16027.867 12413.115 C 16027.854 12413.816 16027.756 12414.516 16027.82 12415.213 C 16027.969 12416.817 16028.281 12418.45 16028.695 12420.107 C 16026.538 12418.597 16023.903 12416.563 16022.133 12415.469 C 16018.396 12413.158 16015.485 12411.689 16012.834 12410.781 C 16010.183 12409.873 16007.652 12408.543 16003.305 12411.027 C 16001.131 12412.269 15999.315 12415.322 15999.174 12417.676 C 15999.033 12420.03 15999.74 12421.57 16000.42 12422.754 C 16001.779 12425.122 16003.486 12426.498 16005.697 12427.604 L 16005.615 12427.562 C 16015.071 12432.441 16023.946 12437.13 16032.59 12441.74 C 16048.496 12454.712 16072.067 12476.163 16107.684 12513.123 A 7.3845384 7.3845384 0 0 0 16107.779 12513.221 C 16109.408 12514.849 16110.59 12515.452 16112.281 12516.432 C 16113.972 12517.412 16116.004 12518.474 16118.389 12519.639 C 16123.158 12521.968 16129.312 12524.686 16136.344 12527.508 C 16147.075 12531.815 16159.806 12536.337 16172.547 12539.914 C 16172.127 12547.024 16169.5 12555.236 16163.627 12565.27 L 16163.631 12565.266 C 16161.763 12568.451 16161.06 12572.604 16162.092 12576.141 C 16163.123 12579.677 16165.41 12582.245 16167.854 12584.123 C 16172.741 12587.878 16178.795 12589.653 16185.266 12590.467 C 16191.736 12591.28 16198.598 12590.987 16204.924 12588.844 C 16211.25 12586.701 16217.588 12582.049 16219.625 12574.564 C 16221.662 12567.08 16219.247 12558.732 16213.23 12549.627 C 16212.623 12548.707 16211.792 12547.711 16211.104 12546.764 C 16217.106 12546.772 16222.697 12545.943 16227.682 12543.705 C 16230.812 12542.299 16233.611 12539.909 16235.701 12536.953 C 16241.092 12539.995 16247.375 12543.648 16252.406 12546.451 A 7.3845384 7.3845384 0 0 0 16258.359 12546.996 C 16264.612 12544.887 16269.754 12541.55 16272.592 12536.402 C 16275.43 12531.255 16275.186 12525.15 16273.318 12519.887 C 16269.582 12509.361 16260.36 12499.565 16247.863 12488.873 C 16222.871 12467.49 16183.913 12444.006 16145.955 12425.723 C 16107.997 12407.44 16072.232 12394.079 16049.283 12394.949 C 16045.181 12395.105 16041.298 12395.75 16037.809 12397.365 C 16033.898 12395.446 16029.708 12393.361 16027.322 12392.338 C 16025.581 12391.591 16024.283 12391.069 16022.85 12390.67 C 16022.133 12390.47 16021.51 12390.212 16019.854 12390.246 z M 16065.469 12411.562 C 16084.236 12415.564 16111.833 12425.68 16139.545 12439.027 C 16176.587 12456.869 16215.004 12480.197 16238.262 12500.096 C 16249.89 12510.045 16257.511 12519.506 16259.4 12524.828 C 16260.345 12527.489 16260.109 12528.456 16259.658 12529.273 C 16259.347 12529.837 16258.172 12530.753 16256.363 12531.713 C 16251.041 12528.739 16244.624 12525.02 16238.918 12521.791 C 16238.162 12516.498 16235.978 12510.873 16232.482 12504.465 A 7.3845384 7.3845384 0 0 0 16229.596 12501.551 C 16149.757 12457.022 16097.752 12428.615 16065.469 12411.562 z M 16007.574 12424.727 C 16007.633 12424.682 16007.799 12424.665 16008.049 12424.75 C 16008.066 12424.756 16008.142 12424.802 16008.16 12424.809 C 16007.732 12424.851 16007.49 12424.79 16007.574 12424.727 z M 16047.332 12425.492 C 16069.878 12439.697 16100.58 12458.366 16135.91 12479.256 C 16127.539 12475.404 16119.2 12472.092 16110.895 12469.012 C 16094.58 12459.149 16075.936 12448.479 16054.818 12436.977 C 16051.659 12432.625 16049.202 12428.806 16047.332 12425.492 z M 16094.268 12478.639 C 16097.613 12479.851 16100.994 12481.11 16104.447 12482.387 C 16129.073 12497.32 16148.353 12510.332 16163.059 12521.531 C 16155.586 12519.055 16148.287 12516.391 16141.844 12513.805 C 16135.094 12511.096 16129.202 12508.485 16124.869 12506.369 C 16122.703 12505.311 16120.921 12504.371 16119.686 12503.654 C 16118.45 12502.938 16117.592 12502.151 16118.221 12502.779 C 16109.22 12493.44 16101.885 12486.22 16094.268 12478.639 z M 16164.689 12496.092 C 16184.921 12507.919 16203.935 12518.886 16222.727 12529.576 C 16222.369 12529.78 16222.216 12529.97 16221.631 12530.232 C 16217.789 12531.958 16207.857 12531.974 16196.137 12530.109 C 16192.265 12526.416 16187.991 12522.571 16182.988 12518.443 C 16182.635 12517.664 16182.36 12516.848 16181.963 12516.09 C 16177.857 12508.248 16171.806 12501.732 16164.689 12496.092 z M 16186.734 12543.432 C 16187.559 12543.614 16188.355 12543.756 16189.172 12543.928 C 16194.431 12549.235 16198.356 12553.902 16200.91 12557.768 C 16205.628 12564.908 16205.838 12568.982 16205.375 12570.686 C 16204.912 12572.389 16203.625 12573.69 16200.186 12574.855 C 16196.746 12576.021 16191.701 12576.392 16187.109 12575.814 C 16182.517 12575.237 16178.353 12573.567 16176.85 12572.412 C 16176.556 12572.187 16176.716 12572.36 16176.623 12572.254 C 16182.523 12562.05 16185.742 12552.39 16186.734 12543.432 z "
       style="color:#000000;font-style:normal;font-variant:normal;font-weight:normal;font-stretch:normal;font-size:medium;line-height:normal;font-family:sans-serif;font-variant-ligatures:normal;font-variant-position:normal;font-variant-caps:normal;font-variant-numeric:normal;font-variant-alternates:normal;font-variant-east-asian:normal;font-feature-settings:normal;font-variation-settings:normal;text-indent:0;text-align:start;text-decoration:none;text-decoration-line:none;text-decoration-style:solid;text-decoration-color:#000000;letter-spacing:normal;word-spacing:normal;text-transform:none;writing-mode:lr-tb;direction:ltr;text-orientation:mixed;dominant-baseline:auto;baseline-shift:baseline;text-anchor:start;white-space:normal;shape-padding:0;shape-margin:0;inline-size:0;clip-rule:nonzero;display:inline;overflow:visible;visibility:visible;isolation:auto;mix-blend-mode:normal;color-interpolation:sRGB;color-interpolation-filters:linearRGB;solid-color:#000000;solid-opacity:1;vector-effect:none;fill:#2b2a29;fill-opacity:1;fill-rule:nonzero;stroke:none;stroke-width:14.7676;stroke-linecap:round;stroke-linejoin:round;stroke-miterlimit:4;stroke-dasharray:none;stroke-dashoffset:0;stroke-opacity:1.0;color-rendering:auto;image-rendering:auto;shape-rendering:auto;text-rendering:auto;enable-background:accumulate;stop-color:#000000;stop-opacity:1;" /></g></g></g>
 </g>
</svg>
