<?xml version="1.0" encoding="UTF-8" standalone="no"?>
<svg
   xmlns:dc="http://purl.org/dc/elements/1.1/"
   xmlns:cc="http://creativecommons.org/ns#"
   xmlns:rdf="http://www.w3.org/1999/02/22-rdf-syntax-ns#"
   xmlns:svg="http://www.w3.org/2000/svg"
   xmlns="http://www.w3.org/2000/svg"
   xmlns:sodipodi="http://sodipodi.sourceforge.net/DTD/sodipodi-0.dtd"
   xmlns:inkscape="http://www.inkscape.org/namespaces/inkscape"
   inkscape:version="1.0 (4035a4fb49, 2020-05-01)"
   height="300"
   width="316.72284"
   sodipodi:docname="2020-CH-07_taskbody_fish.svg"
   xml:space="preserve"
   viewBox="0 0 316.72285 300.00001"
   y="0px"
   x="0px"
   id="Layer_1"
   version="1.1"><metadata
   id="metadata31"><rdf:RDF><cc:Work
       rdf:about=""><dc:format>image/svg+xml</dc:format><dc:type
         rdf:resource="http://purl.org/dc/dcmitype/StillImage" /><dc:title></dc:title></cc:Work></rdf:RDF></metadata><defs
   id="defs29" /><sodipodi:namedview
   fit-margin-bottom="0"
   fit-margin-right="0"
   fit-margin-left="0"
   fit-margin-top="0"
   inkscape:current-layer="Layer_1"
   showgrid="false"
   id="namedview27"
   inkscape:window-height="480"
   inkscape:window-width="640"
   inkscape:pageshadow="2"
   inkscape:pageopacity="0"
   guidetolerance="10"
   gridtolerance="10"
   objecttolerance="10"
   borderopacity="1"
   bordercolor="#666666"
   pagecolor="#ffffff" />
<style
   id="style2"
   type="text/css">
	.st0{fill:#C7EAF9;}
	.st1{fill:#231F20;}
	.st2{fill:#A5D9F6;}
	.st3{fill:#FFFFFF;}
</style>
<path
   id="path860"
   d="m 167.07783,48.649392 c -3.86881,2.197444 -7.69732,4.563134 -11.48056,7.094209 -0.3989,0.407942 -0.87212,0.732241 -1.40458,0.938149 -2.37438,1.616155 -4.73377,3.300125 -7.07026,5.055132 C 80.360434,111.73538 59.907644,209.7991 59.707584,210.78588 c -0.26316,1.30235 -1.16603,2.39124 -2.3959,2.89828 -0.46436,0.192 -46.869537,19.53213 -49.2210617,47.5017 -0.538531,6.39291 0.667504,11.29638 3.2986117,13.46541 1.978088,1.62404 4.960733,1.88055 8.868411,0.76642 4.917724,-1.40123 13.478445,-5.69263 26.337549,-18.15838 0.47771,-0.4619 1.05909,-0.78911 1.67527,-0.96722 0.66157,-0.18743 1.37542,-0.20951 2.06224,-0.0308 1.33632,0.33661 2.40673,1.34154 2.81692,2.65271 4.65928,14.63393 15.30571,35.22692 23.35973,32.92853 1.32315,-0.37479 2.72623,-1.32847 4.15883,-2.83231 12.93882,-13.54376 -0.004,-50.92181 -6.08092,-64.18735 -0.6047,-1.32576 -0.44206,-2.87479 0.42955,-4.04629 16.98863,-22.73369 66.412316,-44.23 106.125086,-61.50759 12.6312,-5.49087 23.52882,-10.23443 31.75114,-14.32179 68.29101,-33.9295 86.76438,-62.062335 95.22616,-82.774488 2.02798,-4.926625 -1.15768,-9.99004 -4.18942,-13.365798 -7.33107,-8.1852 -21.44468,-15.077214 -37.7544,-18.433827 -13.88051,-2.85586 -36.13121,-4.634576 -63.31973,3.128214 -12.20219,3.479482 -24.1714,8.555765 -35.77782,15.148091 z"
   style="font-variation-settings:normal;opacity:1;vector-effect:none;fill:#a5d9f6;fill-opacity:1;stroke-width:0.732568;stroke-linecap:butt;stroke-linejoin:miter;stroke-miterlimit:4;stroke-dasharray:none;stroke-dashoffset:0;stroke-opacity:1;stop-color:#000000;stop-opacity:1" /><g
   transform="matrix(0.63442259,-0.36628405,0.36628405,0.63442259,-78.681828,146.01191)"
   id="g24">
	<g
   id="g20">
		<g
   id="g10">
			<path
   id="path4"
   d="m 323.18,43.69 c 0.17,-0.02 0.33,-0.03 0.5,-0.05 -15.9,-12.4 -41.96,-27.8 -58.22,-18.06 -5.38,3.22 -9.78,7.47 -14.87,12.38 -8.98,8.67 -20.07,19.37 -41.35,28.42 -1.22,4.61 -3.82,13.87 -7.12,22.74 32.86,-20.34 74.98,-39.91 121.06,-45.43 z"
   class="st0" />
			<path
   id="path6"
   d="m 324.57,105.18 c -4.64,1.33 -8.04,4.41 -10.41,9.41 -4.62,9.77 -4.16,18.39 1.26,23.64 6.02,5.83 20.27,8.91 40.86,-1.17 -0.41,-7.75 0.24,-15.65 1.95,-23.61 -6.61,-3.94 -22.58,-11.45 -33.66,-8.27 z"
   class="st0" />
			
				<circle
   r="19.77"
   id="ellipse8"
   cy="136.66"
   cx="450.81"
   class="st1"
   transform="matrix(0.9968,-0.0801,0.0801,0.9968,-9.4933,36.5292)" />
		</g>
		<g
   id="g18">
			<path
   style="fill:#000000"
   id="path12"
   d="m 529.3,143.99 c -7.09,-33.81 -50.52,-78.73 -117.03,-95.4 -23.18,-5.81 -47.79,-7.92 -73.33,-6.33 -9.47,-8.51 -50.69,-43.01 -79.06,-26.01 -6.45,3.86 -11.49,8.73 -16.83,13.89 -9.1,8.79 -19.42,18.75 -40.42,27.21 -1.61,0.65 -2.82,2.03 -3.24,3.72 -3.03,12.09 -9.76,33.5 -14.91,39.5 -0.05,0.05 -0.08,0.12 -0.12,0.17 -4.11,2.84 -8.03,5.65 -11.72,8.38 -31.87,23.62 -53.15,45.74 -59.47,52.58 -14.17,-1.49 -75.03,-5.76 -98.12,27.47 -7.27,10.47 -9.53,20.21 -6.54,28.19 1.76,4.68 6.22,10.86 17.5,13.68 10.04,2.52 23.7,1.97 40.67,-1.6 -0.88,5.57 -1.85,13.32 -2.07,21.33 -0.6,22.34 5.02,35.15 16.7,38.08 0,0 0,0 0,0 3.72,0.93 7.94,0.72 12.54,-0.62 32.7,-9.57 42.16,-70.84 44.02,-86.11 34.25,-12.52 106.13,-4.34 159.02,1.68 18.82,2.14 35.08,3.99 47.86,4.79 47.5,2.97 85.66,0.66 116.65,-7.07 23.7,-5.91 42.69,-14.82 59.75,-28.04 7.96,-6.15 10.85,-16.62 8.15,-29.49 z M 209.24,66.38 c 21.28,-9.04 32.37,-19.75 41.35,-28.42 5.09,-4.92 9.49,-9.16 14.87,-12.38 16.26,-9.74 42.32,5.66 58.22,18.06 -0.17,0.02 -0.33,0.03 -0.5,0.05 -46.07,5.52 -88.19,25.09 -121.05,45.42 3.29,-8.87 5.88,-18.12 7.11,-22.73 z m 305.27,98.52 c -24.15,18.71 -65.19,39.36 -169.07,32.86 -12.51,-0.78 -28.63,-2.62 -47.31,-4.74 -58.74,-6.68 -131.84,-15 -167.44,0.28 -1.83,0.78 -3.08,2.51 -3.27,4.48 -1.87,19.83 -12.08,72.85 -36.62,80.03 -2.72,0.8 -5.03,0.97 -6.85,0.51 0,0 0,0 0,0 -11.09,-2.78 -9.63,-34.39 -5.14,-54.87 0.4,-1.84 -0.17,-3.75 -1.52,-5.06 -0.7,-0.68 -1.55,-1.14 -2.46,-1.37 -0.85,-0.21 -1.76,-0.22 -2.64,0 -23.71,5.96 -36.76,5.19 -43.53,3.49 -5.39,-1.35 -8.74,-3.69 -9.96,-6.96 -1.63,-4.36 0.29,-10.98 5.29,-18.17 21.86,-31.46 89.92,-22.66 90.61,-22.56 1.8,0.24 3.61,-0.43 4.81,-1.79 0.91,-1.03 92.02,-103 205.08,-116.55 3.96,-0.47 7.89,-0.85 11.81,-1.15 0.77,0.12 1.55,0.06 2.3,-0.15 24.8,-1.64 48.64,0.34 71.05,5.96 37.44,9.38 62.53,26.67 76.99,39.52 16.99,15.1 28.97,32.88 32.05,47.56 1.25,6.07 1.56,14.23 -4.18,18.68 z"
   class="st1" />
			
			<path
   style="fill:#000000"
   id="path16"
   d="m 382.86,83.14 c 1.8,-2.4 1.31,-5.8 -1.09,-7.6 -2.4,-1.8 -5.81,-1.32 -7.61,1.08 -0.34,0.45 -7.75,10.46 -12.98,26.04 -7.75,-4.2 -25.06,-12.08 -39.59,-7.93 -7.72,2.21 -13.53,7.33 -17.27,15.22 -6.63,14.04 -5.32,27.53 3.52,36.09 3.68,3.56 8.27,6 13.54,7.32 10.2,2.56 22.91,0.89 36.26,-4.97 1.85,9.66 5.39,18.99 10.65,27.81 0.77,1.29 1.99,2.15 3.35,2.49 1.34,0.34 2.82,0.16 4.1,-0.6 2.58,-1.54 3.42,-4.87 1.89,-7.45 -26.35,-44.22 3.93,-85.76 5.23,-87.5 z m -67.45,55.1 c -5.42,-5.25 -5.88,-13.87 -1.26,-23.64 2.37,-5 5.77,-8.08 10.41,-9.41 11.09,-3.18 27.05,4.32 33.66,8.27 -1.72,7.96 -2.37,15.86 -1.95,23.61 -20.58,10.07 -34.83,7 -40.86,1.17 z"
   class="st1" />
		</g>
	</g>
	<path
   id="path22"
   d="m 449.13,126.08 c -3.23,-0.81 -6.51,1.16 -7.32,4.38 -0.81,3.23 1.16,6.51 4.38,7.32 3.23,0.81 6.51,-1.16 7.32,-4.38 0.81,-3.23 -1.16,-6.51 -4.38,-7.32 z"
   class="st3" />
</g>
</svg>
