<?xml version="1.0" encoding="UTF-8" standalone="no"?>
<svg
   xmlns:dc="http://purl.org/dc/elements/1.1/"
   xmlns:cc="http://creativecommons.org/ns#"
   xmlns:rdf="http://www.w3.org/1999/02/22-rdf-syntax-ns#"
   xmlns:svg="http://www.w3.org/2000/svg"
   xmlns="http://www.w3.org/2000/svg"
   xmlns:sodipodi="http://sodipodi.sourceforge.net/DTD/sodipodi-0.dtd"
   xmlns:inkscape="http://www.inkscape.org/namespaces/inkscape"
   width="105.00432mm"
   height="104.99535mm"
   viewBox="0 0 105.00432 104.99535"
   version="1.1"
   id="svg8224"
   sodipodi:docname="2020-SK-01-dragon.svg"
   inkscape:version="1.0 (4035a4fb49, 2020-05-01)">
  <defs
     id="defs8218" />
  <sodipodi:namedview
     id="base"
     pagecolor="#ffffff"
     bordercolor="#666666"
     borderopacity="1.0"
     inkscape:pageopacity="0.0"
     inkscape:pageshadow="2"
     inkscape:zoom="0.35"
     inkscape:cx="400"
     inkscape:cy="560"
     inkscape:document-units="mm"
     inkscape:current-layer="layer1"
     inkscape:document-rotation="0"
     showgrid="false"
     fit-margin-top="0"
     fit-margin-left="0"
     fit-margin-right="0"
     fit-margin-bottom="0" />
  <metadata
     id="metadata8221">
    <rdf:RDF>
      <cc:Work
         rdf:about="">
        <dc:format>image/svg+xml</dc:format>
        <dc:type
           rdf:resource="http://purl.org/dc/dcmitype/StillImage" />
        <dc:title></dc:title>
      </cc:Work>
    </rdf:RDF>
  </metadata>
  <g
     inkscape:label="Ebene 1"
     inkscape:groupmode="layer"
     id="layer1"
     transform="translate(-98.226291,-55.60296)">
    <g
       style="stroke-width:0.961691"
       id="g8020"
       transform="matrix(1.0731512,0,0,1.0075537,-157.54121,-166.38032)">
      <path
         id="path891-0"
         style="fill:#008080;stroke:none;stroke-width:0.963201;stroke-linecap:round;stroke-linejoin:round;stroke-miterlimit:4;stroke-dasharray:none;stroke-opacity:1"
         d="m 985.03711,1130.6895 c -16.39132,1.0117 -20.00232,60.0827 -29.56836,61.9648 -3.68787,-3.5562 -11.64177,-4.8565 -15.01367,-7.5059 -7.75571,-6.0937 -16.1767,-11.3002 -24.49805,-16.5957 -26.15486,-16.6439 -7.92424,4.2899 -13.43555,24.4981 -2.45523,9.0024 -0.95665,23.1562 1.70508,33.0273 h 26.08594 l 108.9258,-59.1074 c -10.01,-5.5318 -20.6696,-10.0261 -30.0313,-16.5957 -5.7938,-4.0658 -10.01063,-10.0087 -15.01559,-15.0137 -3.4488,-3.4488 -6.47208,-4.8374 -9.1543,-4.6718 z"
         transform="scale(0.26458333)"
         sodipodi:nodetypes="scscscccsss" />
      <path
         id="path885-67"
         style="fill:#008080;stroke:none;stroke-width:0.963201;stroke-linecap:round;stroke-linejoin:round;stroke-miterlimit:4;stroke-dasharray:none;stroke-opacity:1"
         d="m 1168.0664,1158.6562 c -1.845,-0.2166 -3.9727,4.3659 -6.3379,5.1543 -16.0265,5.3422 -31.0826,14.6977 -43.4648,22.127 11.2904,13.6606 21.162,27.6501 33.0019,40.1406 h 77.7793 c -2.0612,-43.8119 -3.4811,-31.6867 -51.1172,-12.0859 -13.9207,-17.2505 -0.5508,-46.3867 -9.0879,-54.9238 -0.2518,-0.2519 -0.5098,-0.3812 -0.7734,-0.4122 z"
         transform="scale(0.26458333)"
         sodipodi:nodetypes="csccccsc" />
      <path
         id="path885-6-9"
         style="font-variation-settings:normal;vector-effect:none;fill:none;fill-opacity:1;stroke:#000000;stroke-width:0.963201;stroke-linecap:round;stroke-linejoin:round;stroke-miterlimit:4;stroke-dasharray:none;stroke-dashoffset:0;stroke-opacity:1;stop-color:#000000"
         d="m 985.03711,1130.6895 c -16.39132,1.0117 -20.00232,60.0827 -29.56836,61.9648 -3.68787,-3.5562 -11.64177,-4.8565 -15.01367,-7.5059 -7.75571,-6.0937 -16.1767,-11.3002 -24.49805,-16.5957 -26.15486,-16.6439 -7.92424,4.2899 -13.43555,24.4981 -2.45523,9.0024 -0.95667,23.1562 1.70508,33.0273 h 324.81834 c -2.0612,-43.8119 -3.4811,-31.6867 -51.1172,-12.0859 -13.9207,-17.2505 -0.5508,-46.3867 -9.0879,-54.9238 -2.0147,-2.0148 -4.4082,3.8411 -7.1113,4.7421 -16.0265,5.3422 -31.0826,14.6977 -43.4648,22.127 l -79.0254,-18.9668 c -10.01,-5.5318 -20.6696,-10.0261 -30.0313,-16.5957 -5.7938,-4.0658 -10.01063,-10.0087 -15.01559,-15.0137 -3.4488,-3.4488 -6.47208,-4.8374 -9.1543,-4.6718 z"
         transform="scale(0.26458333)"
         sodipodi:nodetypes="scscscccssccsss" />
      <path
         id="path881-3"
         style="fill:#008000;stroke:none;stroke-width:0.963201;stroke-linecap:round;stroke-linejoin:round;stroke-miterlimit:4;stroke-dasharray:none;stroke-opacity:1"
         d="m 1039.2383,1166.9707 c -32.4841,6.3341 -71.80117,7.8264 -100.36525,26.8691 -12.27138,8.1809 -20.59723,23.4973 -32.53321,32.2383 h 289.13866 c -5.8608,-5.9391 -11.8217,-11.8219 -18.7363,-16.4316 -21.5073,-14.3382 -48.0346,-22.4391 -64.8008,-41.0938 z"
         transform="scale(0.26458333)" />
      <path
         id="path857-05"
         style="fill:#57b157;fill-opacity:1;stroke:none;stroke-width:0.963201;stroke-linecap:round;stroke-linejoin:round;stroke-miterlimit:4;stroke-dasharray:none;stroke-opacity:1"
         d="m 1066.1055,1132.1992 c -2.0177,9.6406 -20.1157,32.8894 -37.9278,50.7324 -13.0422,12.9701 -30.46518,21.8075 -45.04879,36.1973 -2.03158,2.1586 -3.74685,4.5006 -5.2168,6.9492 h 152.78909 c -13.609,-29.719 -27.5544,-62.3333 -16.3887,-89.1367 z"
         transform="scale(0.26458333)" />
      <path
         d="m 282.07395,299.56139 c -0.32219,1.53944 -2.1971,4.39118 -4.66689,7.4476 0.20994,0.23379 0.37942,0.42819 0.45785,0.52659 1.71032,2.14573 -0.0952,3.65081 3.30109,6.0327 1.20573,0.8456 2.60096,1.2663 3.99976,1.62006 0.70021,0.17708 1.33339,0.88985 2.12028,0.56792 2.32467,-0.95103 4.5511,-4.65478 6.62595,-6.22184 0.0238,-0.018 0.0543,-0.0347 0.0806,-0.0522 -0.44888,-2.98209 -0.30492,-5.8881 0.81183,-8.60619 -0.018,-0.0225 -0.0351,-0.0459 -0.0532,-0.0682 z"
         style="fill:#499c49;fill-opacity:1;stroke:none;stroke-width:0.254847;stroke-linecap:round;stroke-linejoin:round;stroke-miterlimit:4;stroke-dasharray:none;stroke-opacity:1"
         id="path857-5-9" />
      <path
         style="color:#000000;font-style:normal;font-variant:normal;font-weight:normal;font-stretch:normal;font-size:medium;line-height:normal;font-family:sans-serif;font-variant-ligatures:normal;font-variant-position:normal;font-variant-caps:normal;font-variant-numeric:normal;font-variant-alternates:normal;font-variant-east-asian:normal;font-feature-settings:normal;font-variation-settings:normal;text-indent:0;text-align:start;text-decoration:none;text-decoration-line:none;text-decoration-style:solid;text-decoration-color:#000000;letter-spacing:normal;word-spacing:normal;text-transform:none;writing-mode:lr-tb;direction:ltr;text-orientation:mixed;dominant-baseline:auto;baseline-shift:baseline;text-anchor:start;white-space:normal;shape-padding:0;shape-margin:0;inline-size:0;clip-rule:nonzero;display:inline;overflow:visible;visibility:visible;isolation:auto;mix-blend-mode:normal;color-interpolation:sRGB;color-interpolation-filters:linearRGB;solid-color:#000000;solid-opacity:1;vector-effect:none;fill:#ffeeaa;fill-opacity:1;fill-rule:nonzero;stroke:none;stroke-width:0.639524;stroke-linecap:round;stroke-linejoin:round;stroke-miterlimit:4;stroke-dasharray:none;stroke-dashoffset:0;stroke-opacity:1;color-rendering:auto;image-rendering:auto;shape-rendering:auto;text-rendering:auto;enable-background:accumulate;stop-color:#000000"
         d="m 275.05411,311.09 a 0.33250001,0.33250001 0 0 0 -0.13086,0.0195 0.33250001,0.33250001 0 0 0 -0.19922,0.42773 c 1.45802,3.99573 5.28741,6.09559 9.16992,6.6875 3.88251,0.59191 7.8654,-0.26732 9.78907,-2.39844 a 0.33250001,0.33250001 0 0 0 -0.0234,-0.46875 0.33250001,0.33250001 0 0 0 -0.47071,0.0234 c -1.6686,1.84855 -5.47724,2.75404 -9.19336,2.1875 -3.71611,-0.56654 -7.29135,-2.54601 -8.64648,-6.25976 A 0.33250001,0.33250001 0 0 0 275.05411,311.09 Z"
         id="path2077-6" />
      <path
         id="path1111-3"
         style="color:#000000;font-style:normal;font-variant:normal;font-weight:normal;font-stretch:normal;font-size:medium;line-height:normal;font-family:sans-serif;font-variant-ligatures:normal;font-variant-position:normal;font-variant-caps:normal;font-variant-numeric:normal;font-variant-alternates:normal;font-variant-east-asian:normal;font-feature-settings:normal;font-variation-settings:normal;text-indent:0;text-align:start;text-decoration:none;text-decoration-line:none;text-decoration-style:solid;text-decoration-color:#000000;letter-spacing:normal;word-spacing:normal;text-transform:none;writing-mode:lr-tb;direction:ltr;text-orientation:mixed;dominant-baseline:auto;baseline-shift:baseline;text-anchor:start;white-space:normal;shape-padding:0;shape-margin:0;inline-size:0;clip-rule:nonzero;display:inline;overflow:visible;visibility:visible;isolation:auto;mix-blend-mode:normal;color-interpolation:sRGB;color-interpolation-filters:linearRGB;solid-color:#000000;solid-opacity:1;vector-effect:none;fill:#ffeeaa;fill-opacity:1;fill-rule:nonzero;stroke:none;stroke-width:2.41711;stroke-linecap:round;stroke-linejoin:round;stroke-miterlimit:4;stroke-dasharray:none;stroke-dashoffset:0;stroke-opacity:1;color-rendering:auto;image-rendering:auto;shape-rendering:auto;text-rendering:auto;enable-background:accumulate;stop-color:#000000"
         d="m 135.78711,368.88086 a 1.256693,1.256693 0 0 0 -0.79688,0.31836 1.256693,1.256693 0 0 0 -0.10351,1.77148 c 10.27589,11.55202 24.75182,18.59024 41.56055,22.36719 h 15.70312 c -22.90628,-2.50437 -42.66774,-9.7364 -55.38867,-24.03711 a 1.256693,1.256693 0 0 0 -0.97461,-0.41992 z"
         transform="matrix(0.26458333,0,0,0.26458333,234.12646,220.329)" />
      <path
         id="path881-9-9"
         style="font-variation-settings:normal;vector-effect:none;fill:none;fill-opacity:1;stroke:#000000;stroke-width:0.963201;stroke-linecap:round;stroke-linejoin:round;stroke-miterlimit:4;stroke-dasharray:none;stroke-dashoffset:0;stroke-opacity:1;stop-color:#000000"
         d="m 1000.7891,1173.2285 c 13.1585,-2.1902 26.2833,-3.8856 38.4492,-6.2578 l 3.75,-0.043 c 11.9524,-13.8991 21.6701,-27.8143 23.1172,-34.7285 m -65.3164,41.0293 c -21.97615,3.6579 -44.04974,8.7005 -61.91605,20.6113 -12.27138,8.1809 -20.59723,23.4973 -32.53321,32.2383"
         transform="scale(0.26458333)"
         sodipodi:nodetypes="cccccsc" />
      <path
         id="path857-0-6"
         style="font-variation-settings:normal;vector-effect:none;fill:none;fill-opacity:1;stroke:#000000;stroke-width:0.963201;stroke-linecap:round;stroke-linejoin:round;stroke-miterlimit:4;stroke-dasharray:none;stroke-dashoffset:0;stroke-opacity:1;stop-color:#000000"
         d="m 1114.3125,1136.9414 c -4.021,9.6523 -4.7821,19.9354 -3.4746,30.4981 l 1.1035,1.1132 c 16.7662,18.6547 43.2935,26.7556 64.8008,41.0938 6.9146,4.6097 12.8755,10.4925 18.7363,16.4316"
         transform="scale(0.26458333)"
         sodipodi:nodetypes="cccsc" />
      <path
         id="path881-7-7"
         style="font-variation-settings:normal;vector-effect:none;fill:#2c6d2c;fill-opacity:1;stroke:none;stroke-width:0.96169px;stroke-linecap:butt;stroke-linejoin:miter;stroke-miterlimit:4;stroke-dasharray:none;stroke-dashoffset:0;stroke-opacity:1;stop-color:#000000"
         d="m 1014.5625,1184.0391 c -0.161,-0.038 -0.4914,0.3571 -0.8535,0.8789 0.5738,-0.1489 0.959,-0.3376 0.959,-0.5957 0,-0.1803 -0.038,-0.2681 -0.1055,-0.2832 z m -0.8535,0.8789 c -1.6639,0.4317 -4.9529,0.5193 -5.3535,0.9199 -0.5761,0.5761 -14.50803,5.4058 -16.41605,6.3144 -3.00654,1.4317 -5.29773,4.0168 -8.08203,5.8067 -4.25843,2.7375 -8.96617,4.8509 -13.38281,7.3242 -10.43622,5.8443 -20.42668,12.9747 -29.60938,20.7949 H 991.875 c 2.33905,-6.2447 5.57738,-11.7689 8.3984,-17.7636 3.4563,-7.3447 6.0768,-15.1036 11.8692,-20.709 0.038,-0.1486 0.8669,-1.6795 1.5664,-2.6875 z"
         transform="scale(0.26458333)" />
      <path
         id="path857-1-6"
         style="font-variation-settings:normal;vector-effect:none;fill:#499c49;fill-opacity:1;stroke:none;stroke-width:0.963201;stroke-linecap:round;stroke-linejoin:round;stroke-miterlimit:4;stroke-dasharray:none;stroke-dashoffset:0;stroke-opacity:1;stop-color:#000000"
         d="m 1002.6094,1203.1309 c -6.63873,4.833 -13.31339,9.9109 -19.48245,15.998 -2.03157,2.1586 -3.74489,4.5006 -5.21484,6.9492 H 991.875 c 2.33905,-6.2447 5.57738,-11.7689 8.3984,-17.7636 0.8076,-1.716 1.5686,-3.4553 2.336,-5.1836 z"
         transform="scale(0.26458333)" />
      <path
         style="font-variation-settings:normal;vector-effect:none;fill:#008000;fill-opacity:1;stroke:none;stroke-width:0.209134px;stroke-linecap:butt;stroke-linejoin:miter;stroke-miterlimit:4;stroke-dasharray:none;stroke-dashoffset:0;stroke-opacity:1;stop-color:#000000"
         d="m 303.46348,296.16743 c -5.17065,12.43457 -14.77056,7.54498 -23.29915,6.64078 -1.69244,-0.17945 -9.51728,0.47439 -10.03759,-1.12443 -2.00048,-6.14713 -1.49567,-11.58039 -1.17446,-9.95311 -0.58284,-8.01798 12.22433,-6.17632 16.70751,-6.17632 4.2004,0 14.36856,-0.0802 17.59324,3.297 0.97387,1.01994 0.19468,5.68407 0.21045,7.31608 z"
         id="path853-5-1"
         sodipodi:nodetypes="cssc" />
      <path
         style="font-variation-settings:normal;vector-effect:none;fill:none;fill-opacity:1;stroke:#000000;stroke-width:0.254847;stroke-linecap:round;stroke-linejoin:round;stroke-miterlimit:4;stroke-dasharray:none;stroke-dashoffset:0;stroke-opacity:1;stop-color:#000000"
         d="m 303.46348,296.16743 c -5.17065,12.43457 -14.77056,7.54498 -23.29915,6.64078 -1.69244,-0.17945 -9.51728,0.47439 -10.03759,-1.12443 -2.00048,-6.14713 -1.49567,-11.58039 -1.17446,-9.95311"
         id="path853-9"
         sodipodi:nodetypes="cssc" />
      <path
         id="path853-5-4-0"
         style="font-variation-settings:normal;vector-effect:none;fill:#2c6d2c;fill-opacity:1;stroke:none;stroke-width:0.217549px;stroke-linecap:butt;stroke-linejoin:miter;stroke-miterlimit:4;stroke-dasharray:none;stroke-dashoffset:0;stroke-opacity:1;stop-color:#000000"
         d="m 279.32342,287.33841 c -5.20106,-0.006 -11.1296,0.84642 -10.72889,6.35878 -0.2182,-1.10541 -0.51885,1.05086 -0.0636,4.47218 0.18039,-0.49567 0.36534,-0.9875 0.55449,-1.46201 0.20328,-0.50997 3.05168,-6.18519 3.06937,-6.1869 0.0998,-0.009 2.87753,4.28343 2.90502,4.24418 0.84028,-1.20114 1.99195,-2.64731 2.95361,-4.02195 0.32412,-0.46332 0.0973,-1.62464 0.60751,-1.6679 1.26483,-0.10713 3.09499,5.66451 3.62034,5.62005 4.67832,-0.39627 2.07464,-10.0175 6.85141,-2.19677 0.43913,0.71895 0.47701,2.27623 0.98528,2.79059 0.13572,0.13735 2.79777,-4.59956 3.15994,-5.11725 0.84305,-1.20511 3.76886,4.7923 4.6763,5.71062 0.77032,0.77956 2.22084,-5.13352 2.80516,-4.00959 0.90735,1.74527 1.10572,5.07043 1.59456,7.96659 0.27413,-0.52885 0.5387,-1.09539 0.79219,-1.70501 -0.0157,-1.63201 0.76312,-6.29627 -0.21075,-7.31622 -3.22468,-3.3772 -13.39272,-3.29691 -17.59311,-3.29691 -1.401,0 -3.6147,-0.17987 -5.97881,-0.18248 z" />
      <path
         sodipodi:nodetypes="cssssssssscssssccc"
         id="path851-5-1"
         d="m 307.60849,287.56989 c 0.0944,0.51435 -2.89931,15.30582 -3.21422,14.98715 -2.27771,-2.30502 -1.79187,-9.71618 -3.31758,-12.65086 -0.58432,-1.12394 -2.03451,4.78893 -2.80483,4.00937 -0.90744,-0.91831 -3.83323,-6.91571 -4.67628,-5.71061 -0.36217,0.5177 -3.02449,5.25448 -3.16021,5.11712 -0.50827,-0.51436 -0.54591,-2.07136 -0.98503,-2.79031 -4.77677,-7.82073 -2.17315,1.80055 -6.85147,2.19682 -0.52535,0.0445 -2.35567,-5.72757 -3.6205,-5.62044 -0.51021,0.0433 -0.28328,1.20461 -0.6074,1.66794 -0.96166,1.37464 -2.11321,2.8208 -2.9535,4.02195 -0.0275,0.0392 -2.80523,-4.25263 -2.90499,-4.24418 -0.0177,0.002 -2.8663,5.67714 -3.06958,6.18712 -1.42738,3.58088 -2.68231,8.12999 -2.60609,8.12354 0.35042,-0.0297 -0.16167,-0.82599 -0.2544,-1.23571 -0.27246,-1.20391 -0.21272,-2.50209 -0.46587,-3.73234 -0.48553,-2.35838 -2.13268,-10.65933 -1.05669,-12.19738 14.18288,0.6236 22.58319,-7.77225 42.54864,1.87082 z"
         style="font-variation-settings:normal;vector-effect:none;fill:#ffeeaa;fill-opacity:1;stroke:none;stroke-width:0.546786;stroke-linecap:round;stroke-linejoin:round;stroke-miterlimit:4;stroke-dasharray:none;stroke-dashoffset:0;stroke-opacity:1;stop-color:#000000" />
      <path
         sodipodi:nodetypes="scccccccscccsccs"
         id="path833-5-0"
         d="m 317.33482,265.23674 c 5.05147,-8.07515 1.24795,-15.23475 -7.29956,-18.39916 l -3.1037,-0.63416 c 1.90339,-4.52455 12.33915,-10.08192 18.51987,-5.87452 -0.79014,-7.07937 -17.98534,-13.38252 -26.63511,-0.97332 -4.01554,2.46083 -7.9882,5.05455 -14.326,0.3164 -0.0593,0.005 0.0166,-0.89338 -0.0905,-1.06879 -3.8989,-11.1328 -18.33728,-6.85616 -25.22513,-1.27216 -0.9046,0.94016 4.79978,0.85628 6.20736,1.26831 6.55372,1.91846 7.74247,6.08977 6.01076,9.53784 -14.89247,-1.44376 -20.57688,19.99475 -7.65912,22.89557 -0.36495,7.08978 -9.59119,12.62996 -3.41122,17.84475 2.30823,0.36602 4.4774,-0.65166 6.51941,-0.91205 28.69822,-3.65937 32.2825,1.01907 43.82525,2.20946 5.81708,-1.8135 7.01521,-18.3601 3.28614,-22.49883 0.90657,-1.07435 2.31967,-0.7418 3.38158,-2.43934 z"
         style="font-variation-settings:normal;vector-effect:none;fill:#008000;fill-opacity:1;stroke:none;stroke-width:0.217549px;stroke-linecap:butt;stroke-linejoin:miter;stroke-miterlimit:4;stroke-dasharray:none;stroke-dashoffset:0;stroke-opacity:1;stop-color:#000000" />
      <path
         id="path833-5-9-7"
         style="font-variation-settings:normal;vector-effect:none;fill:#2c6d2c;fill-opacity:1;stroke:none;stroke-width:0.217549px;stroke-linecap:butt;stroke-linejoin:miter;stroke-miterlimit:4;stroke-dasharray:none;stroke-dashoffset:0;stroke-opacity:1;stop-color:#000000"
         d="m 274.29066,231.64929 c -5.32439,-0.0347 -11.34899,2.62815 -15.11579,5.6819 -0.78556,0.81645 3.40954,0.86066 5.44994,1.12799 -0.19674,-0.11109 -0.24821,-0.2456 -0.087,-0.41311 3.52275,-2.8559 9.02037,-5.36869 14.07308,-5.65406 -1.33702,-0.5033 -2.80012,-0.73281 -4.32019,-0.74272 z m 37.62557,0.64463 c -4.66178,0.0673 -9.58577,2.02049 -13.09974,7.06173 -1.92549,1.17999 -3.842,2.38796 -6.01327,2.80604 4.69714,2.10868 8.02227,-0.0358 11.37617,-2.09117 3.48771,-5.00357 8.36472,-6.96339 12.99546,-7.05819 -1.64555,-0.48045 -3.43176,-0.74477 -5.25862,-0.71841 z m -45.93545,6.49177 c 6.02639,1.99209 7.08953,6.01095 5.41194,9.35127 -14.89247,-1.44376 -20.57684,19.99511 -7.65907,22.89593 -0.36495,7.08978 -9.59132,12.62972 -3.41135,17.84451 1.47196,0.2334 2.8871,-0.0953 4.24905,-0.4321 -3.76423,-4.8843 4.18688,-10.12516 4.52519,-16.69754 -12.91776,-2.90081 -7.23295,-24.33924 7.65952,-22.89548 1.7317,-3.44807 0.54266,-7.61926 -6.01106,-9.53772 -0.83606,-0.24474 -3.18167,-0.31554 -4.76422,-0.52887 z m 31.20139,48.79098 c 4.84078,0.86767 8.38815,2.07275 13.48501,2.59838 0.083,-0.0259 0.16456,-0.0557 0.24565,-0.0875 -4.19385,-0.85709 -7.91932,-1.9985 -13.73066,-2.5109 z"
         sodipodi:nodetypes="sccccssccccscccccccsccccc" />
      <path
         sodipodi:nodetypes="cscc"
         id="path843-2-9"
         d="m 298.64805,283.83715 c -1.20829,-4.56743 7.10392,-9.26301 10.84217,-7.55653 6.9508,3.17297 4.31002,6.02623 4.17842,8.96313 -8.40628,4.94895 -13.56503,-0.208 -15.02059,-1.4066 z"
         style="font-variation-settings:normal;vector-effect:none;fill:#008080;fill-opacity:1;stroke:none;stroke-width:0.217549px;stroke-linecap:butt;stroke-linejoin:miter;stroke-miterlimit:4;stroke-dasharray:none;stroke-dashoffset:0;stroke-opacity:1;stop-color:#000000" />
      <path
         style="font-variation-settings:normal;vector-effect:none;fill:none;fill-opacity:1;stroke:#000000;stroke-width:0.254847;stroke-linecap:round;stroke-linejoin:round;stroke-miterlimit:4;stroke-dasharray:none;stroke-dashoffset:0;stroke-opacity:1;stop-color:#000000"
         d="m 313.95324,267.67608 c 3.72907,4.13873 2.53094,20.68533 -3.28614,22.49883"
         id="path839-3"
         sodipodi:nodetypes="cc" />
      <path
         style="font-variation-settings:normal;vector-effect:none;fill:#008080;fill-opacity:1;stroke:none;stroke-width:0.217549px;stroke-linecap:butt;stroke-linejoin:miter;stroke-miterlimit:4;stroke-dasharray:none;stroke-dashoffset:0;stroke-opacity:1;stop-color:#000000"
         d="m 276.72273,285.51486 c -0.31924,-11.62457 -13.0239,-10.54558 -14.19312,-0.23309 5.57543,2.18868 9.74857,0.87163 14.19312,0.23309 z"
         id="path845-3-0"
         sodipodi:nodetypes="ccc" />
      <path
         style="font-variation-settings:normal;vector-effect:none;fill:none;fill-opacity:1;stroke:#000000;stroke-width:0.254847;stroke-linecap:round;stroke-linejoin:round;stroke-miterlimit:4;stroke-dasharray:none;stroke-dashoffset:0;stroke-opacity:1;stop-color:#000000"
         d="m 276.72273,285.51486 c -0.31924,-11.62457 -13.0239,-10.54558 -14.19312,-0.23309"
         id="path845-2" />
      <path
         style="font-variation-settings:normal;vector-effect:none;fill:none;fill-opacity:1;stroke:#000000;stroke-width:0.254847;stroke-linecap:round;stroke-linejoin:round;stroke-miterlimit:4;stroke-dasharray:none;stroke-dashoffset:0;stroke-opacity:1;stop-color:#000000"
         d="m 310.6671,290.17491 c -11.35743,-1.17127 -20.11314,-6.441 -44.0714,-2.03297 -2.11906,0.38988 -3.4593,1.15671 -6.27326,0.73556 -6.17997,-5.21479 3.04628,-10.75497 3.41123,-17.84475 -12.91776,-2.90082 -7.23335,-24.33933 7.65911,-22.89557"
         id="path849-1"
         sodipodi:nodetypes="csccc" />
      <path
         style="font-variation-settings:normal;vector-effect:none;fill:none;fill-opacity:1;stroke:#000000;stroke-width:0.254847;stroke-linecap:round;stroke-linejoin:round;stroke-miterlimit:4;stroke-dasharray:none;stroke-dashoffset:0;stroke-opacity:1;stop-color:#000000"
         d="m 307.11405,290.47246 c 0.0944,0.51435 -2.40487,12.40325 -2.71978,12.08458 -2.27771,-2.30502 -1.79187,-9.71618 -3.31758,-12.65086 -0.58432,-1.12394 -2.03451,4.78893 -2.80483,4.00937 -0.90744,-0.91831 -3.83323,-6.91571 -4.67628,-5.71061 -0.36217,0.5177 -3.02449,5.25448 -3.16021,5.11712 -0.50826,-0.51436 -0.54591,-2.07136 -0.98503,-2.79031 -4.77677,-7.82073 -2.17315,1.80055 -6.85147,2.19682 -0.52535,0.0445 -2.35567,-5.72757 -3.6205,-5.62044 -0.51021,0.0433 -0.28328,1.20461 -0.6074,1.66794 -0.96166,1.37464 -2.11321,2.8208 -2.9535,4.02195 -0.0275,0.0392 -2.80522,-4.25263 -2.90499,-4.24418 -0.0177,0.002 -2.8663,5.67714 -3.06958,6.18712 -1.42738,3.58088 -2.68231,8.12999 -2.60609,8.12354 0.35042,-0.0297 -0.16167,-0.82599 -0.2544,-1.23571 -0.27245,-1.20391 -0.21272,-2.50209 -0.46587,-3.73234 -0.48553,-2.35838 -2.17388,-7.88823 -1.0979,-9.42629"
         id="path851-9" />
      <path
         sodipodi:nodetypes="csscc"
         id="path859-4-4"
         d="m 314.47729,255.37289 c -1.63662,-3.76607 -5.3455,-4.68683 -9.25412,-4.35576 -9.7781,0.82823 -9.0073,13.42862 -0.0327,15.23804 3.65377,0.73665 7.8915,-1.88431 9.58658,-5.02273 0.67982,-1.86919 1.48986,-3.72434 -0.29985,-5.85955 z"
         style="font-variation-settings:normal;vector-effect:none;fill:#ffeeaa;fill-opacity:1;stroke:none;stroke-width:0.546786;stroke-linecap:round;stroke-linejoin:round;stroke-miterlimit:4;stroke-dasharray:none;stroke-dashoffset:0;stroke-opacity:1;stop-color:#000000" />
      <path
         id="path859-4-7-1"
         style="font-variation-settings:normal;vector-effect:none;fill:#e3d6a4;fill-opacity:1;stroke:none;stroke-width:0.546787;stroke-linecap:round;stroke-linejoin:round;stroke-miterlimit:4;stroke-dasharray:none;stroke-dashoffset:0;stroke-opacity:1;stop-color:#000000"
         d="m 306.67571,250.95494 c -0.47867,-9.1e-4 -0.96415,0.0209 -1.45273,0.0623 -8.65411,0.73302 -9.04353,10.6861 -2.7972,14.21933 -3.53103,-4.34749 -2.12718,-11.57654 5.19898,-12.19708 2.18037,-0.18469 4.29816,0.021 6.02917,0.89204 -1.60369,-2.18669 -4.17409,-2.97161 -6.97822,-2.97658 z" />
      <path
         style="font-variation-settings:normal;vector-effect:none;fill:none;fill-opacity:1;stroke:#000000;stroke-width:0.254847;stroke-linecap:round;stroke-linejoin:round;stroke-miterlimit:4;stroke-dasharray:none;stroke-dashoffset:0;stroke-opacity:1;stop-color:#000000"
         d="m 314.47729,255.37289 c -1.63662,-3.76607 -5.3455,-4.68683 -9.25412,-4.35576 -9.7781,0.82823 -9.0073,13.42862 -0.0327,15.23804 3.65377,0.73665 7.8915,-1.88431 9.58658,-5.02273 0.67982,-1.86919 1.48986,-3.72434 -0.29985,-5.85955 z"
         id="path859-3"
         sodipodi:nodetypes="csscc" />
      <path
         sodipodi:nodetypes="csscc"
         id="path861-6-7"
         d="m 267.85063,252.6544 c -9.49722,1.72595 -9.47262,17.03789 3.65902,15.9256 2.89517,-0.24523 5.48877,-0.0362 7.50879,-2.43011 1.39203,-1.64967 1.86624,-5.23951 1.34641,-8.23474 -1.90485,-5.72535 -7.24775,-6.15068 -12.51422,-5.26075 z"
         style="font-variation-settings:normal;vector-effect:none;fill:#ffeeaa;fill-opacity:1;stroke:none;stroke-width:0.546786;stroke-linecap:round;stroke-linejoin:round;stroke-miterlimit:4;stroke-dasharray:none;stroke-dashoffset:0;stroke-opacity:1;stop-color:#000000" />
      <path
         id="path861-6-3-7"
         style="font-variation-settings:normal;vector-effect:none;fill:#e3d6a4;fill-opacity:1;stroke:none;stroke-width:0.546787;stroke-linecap:round;stroke-linejoin:round;stroke-miterlimit:4;stroke-dasharray:none;stroke-dashoffset:0;stroke-opacity:1;stop-color:#000000"
         d="m 271.75988,252.29588 c -1.27126,-0.004 -2.59267,0.13584 -3.90929,0.35832 -7.57528,1.37668 -9.0922,11.39649 -2.73226,14.83126 -3.3393,-4.31929 -1.26332,-11.64597 5.13403,-12.80857 3.1574,-0.53354 6.34134,-0.59244 8.79634,0.6782 -1.72575,-2.27788 -4.37467,-3.04961 -7.28882,-3.05921 z" />
      <path
         style="font-variation-settings:normal;vector-effect:none;fill:none;fill-opacity:1;stroke:#000000;stroke-width:0.254847;stroke-linecap:round;stroke-linejoin:round;stroke-miterlimit:4;stroke-dasharray:none;stroke-dashoffset:0;stroke-opacity:1;stop-color:#000000"
         d="m 267.85063,252.6544 c -9.49722,1.72595 -9.47262,17.03789 3.65902,15.9256 2.89517,-0.24523 5.48877,-0.0362 7.50879,-2.43011 1.39203,-1.64967 1.86624,-5.23951 1.34641,-8.23474 -1.90485,-5.72535 -7.24775,-6.15068 -12.51422,-5.26075 z"
         id="path861-63"
         sodipodi:nodetypes="csscc" />
      <path
         id="path863-0-6"
         d="m 271.07701,282.40487 c 0.38265,-1.90984 -1.2788,-2.69272 -2.86812,-2.0894 -2.31291,0.87799 -0.83492,4.58829 0.48282,5.70023 2.39534,2.02124 4.57585,-8.29087 -0.22925,-4.82466"
         style="fill:#550000;stroke:none;stroke-width:0.217893;stroke-linecap:round;stroke-linejoin:round;stroke-miterlimit:4;stroke-dasharray:none;stroke-opacity:1" />
      <path
         d="m 269.38152,280.11862 c -0.37328,-0.0184 -0.77528,0.0462 -1.17261,0.19706 -0.18137,0.0688 -0.33698,0.15652 -0.47364,0.25758 0.57744,-0.0355 1.10949,0.11688 1.48543,0.44271 1.2628,0.58384 0.76214,3.82815 -0.30884,5.15171 1.82173,0.98715 3.39472,-4.80496 1.66613,-5.60414 -0.31232,-0.27069 -0.73211,-0.42203 -1.19647,-0.44492 z"
         style="fill:#782121;stroke:none;stroke-width:0.217892;stroke-linecap:round;stroke-linejoin:round;stroke-miterlimit:4;stroke-dasharray:none;stroke-opacity:1"
         id="path863-8-2" />
      <path
         style="font-variation-settings:normal;vector-effect:none;fill:none;fill-opacity:1;stroke:#000000;stroke-width:0.254847;stroke-linecap:round;stroke-linejoin:round;stroke-miterlimit:4;stroke-dasharray:none;stroke-dashoffset:0;stroke-opacity:1;stop-color:#000000"
         d="m 271.07702,282.40487 c 0.38264,-1.90984 -1.27881,-2.69272 -2.86813,-2.0894 -2.31291,0.87799 -0.83491,4.58829 0.48282,5.70023 2.39534,2.02124 4.57585,-8.29087 -0.22925,-4.82466"
         id="path863-5" />
      <path
         style="font-variation-settings:normal;vector-effect:none;fill:#550000;fill-opacity:1;stroke:none;stroke-width:0.217549px;stroke-linecap:butt;stroke-linejoin:miter;stroke-miterlimit:4;stroke-dasharray:none;stroke-dashoffset:0;stroke-opacity:1;stop-color:#000000"
         d="m 306.94189,280.08466 c -1.4467,-1.01163 -1.02201,-1.24434 -2.67199,0.22633 -1.82835,1.62965 0.0482,6.80792 2.4121,5.17798 1.72405,-1.18874 2.06201,-6.0884 -0.95687,-4.94242"
         id="path865-4" />
      <path
         d="m 308.58264,259.13184 c -0.9149,-0.039 -1.91283,0.39481 -2.34124,1.24418 -0.64957,1.28784 -0.20823,2.91401 0.70295,3.96761 0.45559,0.5268 1.03304,0.91432 1.66303,1.03697 0.63001,0.12263 1.31104,-0.0277 1.94095,-0.55317 0.89129,-0.74347 1.35212,-2.13252 1.22077,-3.2925 -0.0657,-0.57999 -0.28388,-1.10789 -0.68969,-1.45802 -0.29146,-0.25148 -0.71055,-0.35568 -1.18807,-0.37203 -0.0357,-0.0349 -0.0316,-0.10872 -0.0703,-0.14006 -0.33996,-0.27574 -0.78099,-0.41348 -1.23844,-0.43298 z"
         style="color:#000000;font-style:normal;font-variant:normal;font-weight:normal;font-stretch:normal;font-size:medium;line-height:normal;font-family:sans-serif;font-variant-ligatures:normal;font-variant-position:normal;font-variant-caps:normal;font-variant-numeric:normal;font-variant-alternates:normal;font-variant-east-asian:normal;font-feature-settings:normal;font-variation-settings:normal;text-indent:0;text-align:start;text-decoration:none;text-decoration-line:none;text-decoration-style:solid;text-decoration-color:#000000;letter-spacing:normal;word-spacing:normal;text-transform:none;writing-mode:lr-tb;direction:ltr;text-orientation:mixed;dominant-baseline:auto;baseline-shift:baseline;text-anchor:start;white-space:normal;shape-padding:0;shape-margin:0;inline-size:0;clip-rule:nonzero;display:inline;overflow:visible;visibility:visible;isolation:auto;mix-blend-mode:normal;color-interpolation:sRGB;color-interpolation-filters:linearRGB;solid-color:#000000;solid-opacity:1;vector-effect:none;fill:#000000;fill-opacity:1;fill-rule:nonzero;stroke:none;stroke-width:0.217549px;stroke-linecap:butt;stroke-linejoin:miter;stroke-miterlimit:4;stroke-dasharray:none;stroke-dashoffset:0;stroke-opacity:1;color-rendering:auto;image-rendering:auto;shape-rendering:auto;text-rendering:auto;enable-background:accumulate;stop-color:#000000"
         id="path2193-7" />
      <path
         d="m 267.92703,254.67203 -0.0848,0.20987 c 0.0394,0.0157 0.0527,0.0284 0.0583,0.0353 0.006,0.007 0.01,0.0142 0.015,0.0389 0.0105,0.0493 0.0156,0.15559 0.0826,0.28145 0.0894,0.16795 0.23096,0.26428 0.27658,0.35522 0.0113,0.0226 0.0208,0.10272 0.0141,0.18822 -0.007,0.0855 -0.0234,0.17531 -0.0292,0.24698 -0.005,0.0573 0.0132,0.10724 0.03,0.14006 0.0168,0.0328 0.0323,0.0531 0.0376,0.0654 0.0613,0.14253 0.0606,0.34586 0.0959,0.55846 0.0305,0.18398 0.10348,0.38284 0.28852,0.52092 -0.0281,-0.004 -0.0569,-0.0103 -0.0848,-0.0137 -0.47823,-0.0587 -0.93882,-0.0292 -1.3246,0.20634 l 0.11841,0.19263 c 0.32461,-0.19819 0.7269,-0.23081 1.17835,-0.1754 0.45146,0.0554 0.94521,0.2001 1.43638,0.33755 0.49118,0.13747 0.97978,0.26828 1.42931,0.29294 0.34202,0.0187 0.6665,-0.0281 0.94198,-0.18822 -0.0238,0.51897 -0.0797,1.02939 -0.11576,1.45538 -0.0198,0.23407 -0.0336,0.44201 -0.03,0.61591 0.003,0.17388 0.0168,0.31309 0.0844,0.4237 0.32317,0.5293 0.73818,0.69101 1.04006,0.9009 0.30188,0.20987 0.52413,0.45352 0.56598,1.24064 l 0.22533,-0.0106 c -0.0442,-0.831 -0.32735,-1.18335 -0.66141,-1.41561 -0.33406,-0.23226 -0.68613,-0.35838 -0.97556,-0.83241 -0.023,-0.0377 -0.0498,-0.15217 -0.053,-0.3106 -0.003,-0.15844 0.0109,-0.36133 0.0305,-0.59249 0.003,-0.031 0.006,-0.0709 0.009,-0.10295 l 0.14227,0.11355 c 0.0589,-0.0736 0.12615,-0.0899 0.22754,-0.12459 0.10139,-0.0347 0.23666,-0.0969 0.31547,-0.25317 0.0482,-0.0956 0.0325,-0.18733 0.0323,-0.21031 -6.8e-4,8.6e-4 0.002,-0.004 0.0287,-0.0177 -0.01,0.005 0.0293,-0.002 0.0826,0.007 0.0533,0.009 0.11664,0.0371 0.20898,-0.009 0.0544,-0.0274 0.0691,-0.0755 0.0747,-0.10383 0.006,-0.0283 0.006,-0.0512 0.004,-0.0707 -0.001,-0.0195 -0.005,-0.0362 -0.006,-0.0481 l -0.002,-0.002 c -0.001,0.0129 0.005,-0.0137 0.0217,-0.042 0.0166,-0.0284 0.0407,-0.0642 0.0672,-0.0999 0.0529,-0.0712 0.11481,-0.14132 0.14581,-0.17806 0.017,-0.0202 0.0658,-0.0481 0.13078,-0.0764 0.065,-0.0284 0.14618,-0.0557 0.21031,-0.13166 0.0376,-0.0446 0.0471,-0.10591 0.0424,-0.14802 -0.004,-0.0364 -0.0147,-0.0617 -0.0239,-0.0848 0.0157,0.002 0.0297,0.003 0.0521,0.003 0.0318,-0.002 0.0788,-0.0103 0.11841,-0.0455 0.10235,-0.0912 0.14142,-0.21529 0.1807,-0.32165 0.0393,-0.10635 0.0811,-0.19462 0.10737,-0.21693 -6.8e-4,4.5e-4 0.0241,-0.009 0.0707,-0.0163 0.0466,-0.008 0.12199,-0.0128 0.18203,-0.084 0.0539,-0.0639 0.0689,-0.136 0.0782,-0.1891 0.009,-0.0531 0.0158,-0.0913 0.0256,-0.11135 0.0269,-0.0547 0.1129,-0.16345 0.20766,-0.25713 0.0947,-0.0937 0.20355,-0.17924 0.25758,-0.20634 0.066,-0.0331 0.12105,-0.0829 0.18425,-0.14139 0.0632,-0.0585 0.13034,-0.12525 0.19529,-0.18556 0.0649,-0.0604 0.12897,-0.11324 0.17717,-0.14404 0.0482,-0.0308 0.071,-0.0239 0.049,-0.0327 l 0.0831,-0.20987 c -0.10032,-0.0399 -0.18313,0.006 -0.25405,0.0517 -0.0709,0.0453 -0.13983,0.10628 -0.20855,0.1701 -0.0687,0.0639 -0.1365,0.12987 -0.19528,0.18425 -0.0588,0.0544 -0.11356,0.0974 -0.13167,0.10648 -0.10087,0.0506 -0.2109,0.14227 -0.31635,0.24653 -0.10544,0.10428 -0.19937,0.21425 -0.25095,0.31944 -0.0329,0.0671 -0.0384,0.12792 -0.046,0.17144 -0.008,0.0435 -0.0151,0.0656 -0.0283,0.0813 0.009,-0.011 -0.002,-8e-5 -0.0464,0.007 -0.0439,0.007 -0.1137,0.011 -0.18027,0.0676 -0.10135,0.0862 -0.13385,0.20572 -0.17275,0.31106 -0.0368,0.0995 -0.0755,0.18084 -0.11223,0.21914 -0.009,-4.5e-4 -0.0164,-8.6e-4 -0.0323,-0.003 -0.0234,-0.002 -0.0532,-0.006 -0.0901,8.6e-4 -0.0369,0.007 -0.0838,0.0278 -0.11664,0.0667 -0.0421,0.0498 -0.0379,0.1131 -0.0296,0.14845 0.008,0.0353 0.0204,0.0605 0.0287,0.0813 0.005,0.0121 0.005,0.0158 0.007,0.023 -0.018,0.0153 -0.0537,0.0372 -0.11223,0.0628 -0.066,0.0288 -0.14905,0.0601 -0.21428,0.13741 -0.0304,0.036 -0.0944,0.11117 -0.15332,0.19042 -0.0294,0.0397 -0.0571,0.0794 -0.0804,0.1193 -0.0233,0.0398 -0.0444,0.0752 -0.0508,0.13166 -0.003,0.0254 1.2e-4,0.031 0.002,0.0385 -0.0138,-2.2e-4 -0.005,-0.002 -0.0239,-0.005 -0.0565,-0.009 -0.1297,-0.0294 -0.21826,0.015 -0.0506,0.0254 -0.0932,0.0564 -0.12106,0.0994 -0.0279,0.043 -0.033,0.0914 -0.0327,0.12327 6.8e-4,0.0639 0.009,0.0726 -0.008,0.10648 -0.0476,0.0943 -0.0958,0.11006 -0.18733,0.14138 -0.0804,0.0275 -0.19347,0.0627 -0.29029,0.15774 0.0394,-0.43239 0.0917,-0.93335 0.10825,-1.45273 2.3e-4,-0.01 1.6e-4,-0.0198 4.6e-4,-0.0296 0.003,-0.003 0.007,-0.005 0.01,-0.009 l -0.01,-0.01 c 0.0156,-0.56856 -0.0139,-1.14267 -0.16967,-1.63564 -0.16014,-0.50676 -0.46234,-0.932 -0.97422,-1.13594 l -0.0831,0.20987 c 0.44121,0.17578 0.69289,0.52756 0.83991,0.99278 0.13627,0.4312 0.17068,0.95601 0.16082,1.48543 -0.2499,0.20094 -0.56389,0.26174 -0.93799,0.24124 -0.41391,-0.0227 -0.89031,-0.14799 -1.37983,-0.28498 -0.42185,-0.11805 -0.85251,-0.24053 -1.26981,-0.3106 l 0.0839,-0.15906 c -0.1871,-0.0989 -0.23458,-0.23254 -0.2651,-0.41664 -0.0305,-0.18411 -0.0234,-0.40557 -0.11222,-0.61193 -0.0168,-0.0391 -0.0342,-0.0652 -0.042,-0.0804 -0.008,-0.0151 -0.007,-0.0145 -0.007,-0.0181 0.004,-0.0502 0.02,-0.147 0.0278,-0.24698 0.008,-0.1 0.0144,-0.2057 -0.0362,-0.30662 -0.0845,-0.16848 -0.22658,-0.26331 -0.27836,-0.36053 -0.0456,-0.0857 -0.045,-0.14123 -0.0623,-0.22269 -0.009,-0.0407 -0.0241,-0.0915 -0.0601,-0.13564 -0.036,-0.0441 -0.0868,-0.0763 -0.14933,-0.10118 z m -0.75464,5.3545 c -0.0538,0.003 -0.10872,0.0132 -0.16392,0.0292 -0.10437,0.0302 -0.1358,0.10899 -0.16701,0.16171 -0.0312,0.0528 -0.0627,0.0899 -0.0645,0.091 -0.0639,0.0391 -0.17407,0.0313 -0.30309,0.0204 -0.0645,-0.005 -0.13194,-0.0111 -0.20413,0.004 -0.0722,0.0151 -0.15121,0.0621 -0.1944,0.1405 l 0.19705,0.11091 c 0.0116,-0.021 0.0163,-0.0233 0.0446,-0.0292 0.0283,-0.006 0.0789,-0.005 0.13918,0 0.12047,0.0103 0.28603,0.0396 0.43917,-0.0539 0.082,-0.0501 0.11265,-0.12038 0.14183,-0.16967 0.0292,-0.0493 0.0571,-0.0665 0.0349,-0.0601 0.15578,-0.0451 0.3146,-0.0144 0.48954,0.0406 0.17495,0.0551 0.35893,0.13588 0.55671,0.16259 0.0971,0.0131 0.17546,-0.0205 0.23107,-0.0433 0.0556,-0.0227 0.0887,-0.0309 0.0963,-0.0296 0.21813,0.0353 0.57276,0.17944 0.87085,0.15419 0.14134,-0.012 0.29004,-0.0589 0.43254,-0.0972 0.14251,-0.0383 0.27835,-0.0665 0.36716,-0.0614 0.0655,0.003 0.14166,0.0327 0.22887,0.0698 0.0872,0.0371 0.18556,0.0819 0.30221,0.0866 0.0488,0.002 0.0933,-0.02 0.11885,-0.0402 0.0255,-0.0202 0.0398,-0.0389 0.0508,-0.0513 0.007,-0.008 0.008,-0.009 0.011,-0.011 0.43411,0.0358 0.75797,0.0898 1.20839,0.11885 l 0.0141,-0.22577 c -0.44456,-0.0286 -0.76619,-0.0832 -1.21855,-0.11974 -0.0468,-0.003 -0.0929,0.0123 -0.12283,0.0322 -0.0299,0.0199 -0.0491,0.0409 -0.0623,0.0557 -0.006,0.007 -0.005,0.007 -0.009,0.0106 -0.0574,-0.006 -0.123,-0.0292 -0.2028,-0.0632 -0.0871,-0.037 -0.18775,-0.0829 -0.30619,-0.0897 -0.14392,-0.009 -0.29172,0.0314 -0.43785,0.0707 -0.14613,0.0392 -0.28922,0.0796 -0.39322,0.0884 -0.19926,0.0168 -0.55076,-0.10912 -0.81562,-0.152 -0.0947,-0.0153 -0.16567,0.0219 -0.21914,0.0438 -0.0535,0.0219 -0.0902,0.0329 -0.11488,0.0296 -0.15367,-0.0208 -0.32768,-0.094 -0.51738,-0.15376 -0.14228,-0.0448 -0.29668,-0.0816 -0.45817,-0.0703 z m 3.17806,3.21828 c -0.16827,0.0143 -0.27248,0.13939 -0.36981,0.23946 -0.0973,0.10008 -0.1876,0.18109 -0.2567,0.19573 -0.0641,0.0136 -0.0836,0.002 -0.13387,-0.0353 -0.0503,-0.0367 -0.11448,-0.10507 -0.22003,-0.14712 -0.20472,-0.0816 -0.40408,-0.0632 -0.57968,-0.0734 -0.0718,-0.004 -0.13155,0.0248 -0.16834,0.0477 -0.0368,0.0229 -0.0586,0.0371 -0.0703,0.0411 -0.0455,0.0156 -0.14226,0.0195 -0.24875,0.0128 -0.10649,-0.007 -0.22223,-0.0197 -0.32916,-0.0106 -0.23986,0.0203 -0.45541,0.11744 -0.61856,0.099 0.005,4.5e-4 -0.0799,-0.0377 -0.15773,-0.0804 -0.0389,-0.0214 -0.0791,-0.0429 -0.12548,-0.0579 -0.0464,-0.015 -0.10588,-0.0263 -0.16922,8.6e-4 -0.0358,0.0154 -0.0632,0.0486 -0.0756,0.0769 -0.0124,0.0284 -0.0151,0.0525 -0.0155,0.0734 -6.8e-4,0.0378 0.007,0.0675 0.0128,0.0959 -0.0346,0.003 -0.0466,0.006 -0.11045,8.5e-4 -0.10848,-0.009 -0.24601,-0.0253 -0.38749,-0.0455 -0.28296,-0.0404 -0.57391,-0.0913 -0.73387,-0.0954 -0.17321,-0.004 -0.28249,0.0292 -0.36097,0.0689 -0.0785,0.0397 -0.11623,0.0716 -0.21208,0.0919 -0.23192,0.0491 -0.49855,0.0188 -0.76701,0.0416 l 0.019,0.22446 c 0.23591,-0.02 0.51227,0.014 0.79352,-0.0455 0.13242,-0.028 0.2106,-0.0804 0.26907,-0.11001 0.0585,-0.0296 0.10708,-0.0502 0.25228,-0.0464 0.11311,0.003 0.42008,0.0536 0.70693,0.0946 0.14342,0.0205 0.28458,0.0388 0.40294,0.0477 0.11836,0.009 0.20128,0.0205 0.29514,-0.0198 0.0561,-0.0241 0.0719,-0.0799 0.0747,-0.10516 0.003,-0.0254 10e-4,-0.0397 -0.001,-0.0552 -0.003,-0.0196 -0.007,-0.037 -0.011,-0.0544 0.0125,0.006 0.021,0.01 0.0349,0.0173 0.0691,0.0379 0.1334,0.0948 0.24035,0.10693 0.25546,0.0289 0.48537,-0.0847 0.66363,-0.0998 0.0715,-0.006 0.18332,0.005 0.29602,0.0119 0.1127,0.007 0.22695,0.0139 0.33623,-0.0234 0.0576,-0.0197 0.0942,-0.0493 0.11709,-0.0636 0.0229,-0.0143 0.0259,-0.0156 0.0358,-0.0151 0.19557,0.0113 0.36301,4.6e-4 0.50721,0.0579 0.0517,0.0206 0.0998,0.067 0.17143,0.11929 0.0716,0.0522 0.18444,0.10313 0.31458,0.0756 0.16764,-0.0356 0.27484,-0.16121 0.37158,-0.26067 0.0967,-0.0995 0.18104,-0.1662 0.2271,-0.17011 -0.008,6.8e-4 -0.007,-0.004 0.008,0.009 0.0148,0.0132 0.0363,0.0397 0.0566,0.0724 0.0405,0.0656 0.0703,0.1424 0.1056,0.20015 0.0675,0.11048 0.1859,0.1793 0.31325,0.25538 0.12736,0.0761 0.25295,0.14014 0.33933,0.16877 0.0408,0.0135 0.0898,0.0159 0.13078,8.6e-4 0.041,-0.015 0.068,-0.0431 0.0853,-0.0645 0.0273,-0.0339 0.0313,-0.0428 0.0305,-0.0459 0.006,-4.5e-4 0.0173,-0.002 0.034,4.5e-4 0.0361,0.005 0.0705,0.0208 0.13873,0.0151 0.0488,-0.004 0.1335,-0.005 0.2187,-0.0119 0.0852,-0.007 0.16962,-0.0117 0.25096,-0.0614 0.0343,-0.021 0.039,-0.0461 0.0512,-0.0711 0.008,0.003 0.0115,0.003 0.0208,0.008 0.0465,0.0207 0.0952,0.0606 0.19043,0.0526 0.0461,-0.004 0.069,-0.0164 0.0981,-0.0283 0.0291,-0.0118 0.0596,-0.0254 0.0875,-0.0358 0.0557,-0.0208 0.0964,-0.0133 0.0804,-0.0221 0.13344,0.0735 0.25384,0.11183 0.32607,0.19219 l 0.16833,-0.15022 c -0.12341,-0.1373 -0.28096,-0.18264 -0.38571,-0.24035 -0.10565,-0.0582 -0.19759,-0.0174 -0.26907,0.009 -0.0357,0.0133 -0.0677,0.0262 -0.0923,0.0362 -0.0247,0.01 -0.0472,0.0141 -0.0322,0.0128 0.023,-0.002 -0.0301,-0.0114 -0.08,-0.0336 -0.025,-0.0111 -0.0507,-0.0225 -0.0831,-0.0314 -0.0323,-0.009 -0.0805,-0.0221 -0.1383,0.0132 -0.0506,0.0309 -0.0605,0.0725 -0.0672,0.0945 -0.0144,0.007 -0.0741,0.0253 -0.14491,0.031 -0.0739,0.006 -0.15319,0.006 -0.21871,0.0119 0.0178,-0.002 -0.0356,-0.007 -0.0866,-0.0146 -0.051,-0.008 -0.12197,-0.0265 -0.1997,0.0353 -0.0458,0.0365 -0.0517,0.0582 -0.0592,0.0738 -0.0544,-0.0201 -0.16917,-0.0739 -0.27835,-0.13917 -0.11602,-0.0693 -0.22714,-0.16424 -0.23638,-0.17938 -0.01,-0.0162 -0.0522,-0.11417 -0.1056,-0.2006 -0.0267,-0.0432 -0.0576,-0.0865 -0.0994,-0.12371 -0.0418,-0.0372 -0.10385,-0.072 -0.17673,-0.0658 z"
         style="color:#000000;font-style:normal;font-variant:normal;font-weight:normal;font-stretch:normal;font-size:medium;line-height:normal;font-family:sans-serif;font-variant-ligatures:normal;font-variant-position:normal;font-variant-caps:normal;font-variant-numeric:normal;font-variant-alternates:normal;font-variant-east-asian:normal;font-feature-settings:normal;font-variation-settings:normal;text-indent:0;text-align:start;text-decoration:none;text-decoration-line:none;text-decoration-style:solid;text-decoration-color:#000000;letter-spacing:normal;word-spacing:normal;text-transform:none;writing-mode:lr-tb;direction:ltr;text-orientation:mixed;dominant-baseline:auto;baseline-shift:baseline;text-anchor:start;white-space:normal;shape-padding:0;shape-margin:0;inline-size:0;clip-rule:nonzero;display:inline;overflow:visible;visibility:visible;isolation:auto;mix-blend-mode:normal;color-interpolation:sRGB;color-interpolation-filters:linearRGB;solid-color:#000000;solid-opacity:1;vector-effect:none;fill:#550000;fill-opacity:1;fill-rule:nonzero;stroke:none;stroke-width:0.217549px;stroke-linecap:butt;stroke-linejoin:miter;stroke-miterlimit:4;stroke-dasharray:none;stroke-dashoffset:0;stroke-opacity:1;color-rendering:auto;image-rendering:auto;shape-rendering:auto;text-rendering:auto;enable-background:accumulate;stop-color:#000000"
         id="path2217-6" />
      <path
         sodipodi:nodetypes="cssscscccccsssssscccscsssssscsssssscssccssssscsscsscsssssssssscsssccsssscccssssssscccssssscccscssscscssssscscsssccsssscsssssssssscccssssssscscsssssscssscccscsscsssscsssccssssscccscsssssssccssssscssssscccssssssssssscssscsssssssssssssssscsssccsssccsssssscsssscsssscccssscscsc"
         d="m 309.60635,252.89633 c -0.0797,0.2001 -0.25681,0.54059 -0.41133,0.72371 -0.0394,0.0468 -0.0469,0.0992 -0.0481,0.14139 -0.002,0.0422 0.003,0.0793 0.008,0.11178 0.004,0.0297 0.008,0.0536 0.009,0.0693 -0.0724,0.0781 -0.23033,0.14777 -0.39632,0.2483 -0.13293,0.0805 -0.26815,0.19956 -0.32916,0.37777 8.6e-4,-0.0392 -0.0106,-0.0901 -0.0442,-0.11841 -0.322,-0.27171 -0.73108,-0.45134 -0.99941,-0.67776 l -0.14625,0.17319 c 0.28893,0.2438 0.65938,0.41749 0.94065,0.63756 -0.0186,0.0241 -0.0372,0.0478 -0.0632,0.0844 -0.0365,0.0514 -0.0768,0.11204 -0.0928,0.19042 -0.016,0.0784 0.002,0.17719 0.0632,0.25449 0.13855,0.174 0.34521,0.19888 0.45817,0.26113 0.0463,0.0255 0.10452,0.0998 0.16481,0.18556 0.0603,0.0858 0.11984,0.18758 0.24124,0.23594 0.18839,0.0751 0.37108,0.0598 0.49352,0.0504 0.006,0.005 0.0114,0.009 0.0198,0.0168 0.4835,0.39349 0.56264,0.46519 0.62121,0.64596 -0.009,0.14938 -0.0174,0.29449 -0.0261,0.40294 -0.004,0.0528 -0.009,0.0964 -0.0128,0.1268 -0.0224,0.003 -0.0535,0.005 -0.0884,0.008 -0.0375,0.003 -0.0769,0.004 -0.1162,0.01 -0.0393,0.006 -0.084,0.003 -0.13565,0.0636 -0.0271,0.0322 -0.0414,0.0769 -0.0406,0.11399 6.8e-4,0.037 0.0115,0.0669 0.023,0.0919 0.0229,0.05 0.0518,0.0885 0.0773,0.12415 0.0171,0.0239 0.0252,0.0389 0.0349,0.0557 -0.009,6.9e-4 -0.0127,0.002 -0.023,0.002 -0.0269,0.002 -0.058,8.6e-4 -0.0932,0.008 -0.0352,0.007 -0.0804,0.0204 -0.1184,0.0654 -0.0534,0.0634 -0.0476,0.12956 -0.0402,0.18115 0.008,0.0516 0.0226,0.1002 0.0358,0.1458 0.0132,0.0456 0.0262,0.088 0.03,0.11488 0.002,0.0126 1.6e-4,0.0177 0,0.0186 -0.0737,0.0933 -0.12768,0.21381 -0.18115,0.33888 -0.0564,0.13206 -0.11122,0.26854 -0.16481,0.36584 -0.0663,0.12027 -0.0704,0.22133 -0.10338,0.26685 l 0.18424,0.13344 c 0.086,-0.11899 0.0873,-0.23682 0.11753,-0.29161 0.0647,-0.11755 0.12063,-0.25718 0.1754,-0.38527 0.0547,-0.1281 0.11065,-0.2446 0.15553,-0.2978 0.0534,-0.0633 0.0476,-0.12956 0.0402,-0.18114 -0.008,-0.0516 -0.0226,-0.10064 -0.0357,-0.14625 -0.0125,-0.043 -0.0216,-0.0812 -0.0261,-0.10825 0.0115,-8.5e-4 0.0206,-0.003 0.0367,-0.003 0.027,-0.002 0.0575,-0.003 0.0928,-0.01 0.0353,-0.007 0.081,-0.0186 0.11885,-0.0636 0.0526,-0.0624 0.0486,-0.15384 0.0274,-0.20854 -0.0212,-0.0547 -0.0515,-0.0952 -0.0782,-0.13255 -0.0126,-0.0176 -0.0173,-0.0266 -0.0269,-0.0411 0.0165,-8.5e-4 0.0291,-0.003 0.0481,-0.004 0.0388,-0.003 0.0807,-0.006 0.12283,-0.0137 0.0421,-0.008 0.0907,-0.014 0.13696,-0.0689 6.8e-4,-6.8e-4 0.0126,-0.0198 0.0159,-0.0265 0.003,-0.007 0.005,-0.0106 0.007,-0.0155 0.003,-0.01 0.006,-0.0177 0.008,-0.0256 0.003,-0.0158 0.005,-0.0324 0.008,-0.0512 0.005,-0.0378 0.0101,-0.0857 0.0146,-0.14182 0.009,-0.11231 0.017,-0.25663 0.0261,-0.40605 0.009,-0.14941 0.019,-0.30325 0.0287,-0.42989 0.01,-0.12665 0.0227,-0.23381 0.0287,-0.25891 0.0294,-0.12148 0.14829,-0.29717 0.29073,-0.46216 0.14243,-0.16498 0.3027,-0.32201 0.41089,-0.45021 0.0919,-0.10896 0.11331,-0.23903 0.14051,-0.34198 0.0272,-0.10294 0.0544,-0.16893 0.099,-0.19617 l -0.11836,-0.19444 c -0.13096,0.0799 -0.17054,0.21793 -0.20015,0.33004 -0.0296,0.11211 -0.0559,0.20926 -0.0941,0.2545 -0.0953,0.11297 -0.25864,0.27414 -0.40913,0.44845 -0.15049,0.17431 -0.2925,0.3594 -0.34021,0.55671 -0.0119,0.049 -0.0188,0.11912 -0.0257,0.1997 -0.032,-0.007 -0.0637,-0.0122 -0.0915,-0.0168 -0.21856,-0.0507 -0.3634,-0.23477 -0.54964,-0.33888 -0.10994,0.009 -0.30366,0.018 -0.44757,-0.0393 -0.0248,-0.01 -0.079,-0.071 -0.13873,-0.15596 -0.0598,-0.085 -0.12588,-0.19096 -0.24124,-0.2545 -0.16585,-0.0914 -0.32142,-0.11806 -0.38924,-0.20324 -0.0238,-0.0299 -0.0244,-0.0421 -0.019,-0.0685 0.005,-0.0264 0.0263,-0.0655 0.0548,-0.1056 0.0285,-0.0401 0.0626,-0.078 0.0919,-0.1215 0.005,-0.008 0.009,-0.0161 0.0141,-0.0243 -0.005,0.0275 -0.009,0.0561 -0.0106,0.0862 l 0.22533,0.0124 c 0.01,-0.19282 0.10808,-0.27655 0.25405,-0.36495 0.14596,-0.0884 0.3364,-0.1513 0.46524,-0.30398 0.0429,-0.0509 0.0433,-0.10168 0.042,-0.13962 -0.002,-0.038 -0.008,-0.0711 -0.0119,-0.10118 -0.004,-0.0301 -0.009,-0.0561 -0.008,-0.0711 2.1e-4,-0.007 0.002,-0.01 0.002,-0.0102 0.18416,-0.22085 0.35491,-0.55814 0.44272,-0.7785 z m -8.28956,0.88144 -0.19263,0.11841 c 0.11655,0.1909 0.22571,0.30597 0.34109,0.37025 0.11537,0.0643 0.23128,0.0685 0.32518,0.0579 0.0939,-0.0106 0.17036,-0.0303 0.23373,-0.03 0.0634,2.2e-4 0.11571,0.0128 0.19264,0.0778 -0.008,-0.007 0.003,0.01 0.0133,0.061 0.0101,0.0513 0.0244,0.13444 0.099,0.1975 0.0632,0.0534 0.14402,0.10048 0.22533,0.14846 0.0813,0.048 0.16141,0.0977 0.20059,0.13077 0.2587,0.2183 0.37169,0.5328 0.45376,0.84787 0.0821,0.31507 0.11865,0.62718 0.30839,0.8271 0.16655,0.1755 0.37396,0.28397 0.55804,0.39676 0.0507,0.0311 0.0988,0.0622 0.14491,0.0945 -0.15137,0.059 -0.23529,0.18553 -0.27438,0.29691 -0.042,0.11976 -0.0645,0.22199 -0.0959,0.2726 -0.003,8.6e-4 -0.003,0.002 -0.008,0.003 -0.0233,0.003 -0.0615,0.003 -0.10206,0.002 -0.0406,-0.002 -0.084,-0.004 -0.12592,-0.004 -0.0419,-1.2e-4 -0.0774,-0.003 -0.13078,0.0194 -0.2258,0.0971 -0.33224,0.26583 -0.47187,0.35479 -0.004,6.8e-4 -0.0132,0.003 -0.0256,0.003 -0.025,5e-5 -0.0614,-0.003 -0.0994,-0.005 -0.038,-0.003 -0.0767,-0.006 -0.1193,-0.003 -0.0426,0.003 -0.0979,0.008 -0.14536,0.064 -0.0508,0.0602 -0.13878,0.11417 -0.23638,0.16923 -0.31013,-0.079 -0.3815,-0.18976 -0.43564,-0.3486 -0.0547,-0.16049 -0.0627,-0.38627 -0.20103,-0.61282 -0.0536,-0.0877 -0.13182,-0.10734 -0.21385,-0.12946 -0.082,-0.0221 -0.17546,-0.0357 -0.2704,-0.0477 -0.0949,-0.0121 -0.19059,-0.0217 -0.27084,-0.0322 -0.0802,-0.0105 -0.14982,-0.0251 -0.16877,-0.0327 -0.0123,-0.005 -0.005,-0.002 -0.007,-0.008 -0.003,-0.006 -0.007,-0.027 -0.008,-0.0565 -6.8e-4,-0.0295 10e-4,-0.0656 -0.003,-0.1087 -0.004,-0.0431 -0.0148,-0.0979 -0.0574,-0.1458 -0.19103,-0.21431 -0.42314,-0.31685 -0.58852,-0.45641 l -0.14447,0.17321 c 0.19834,0.16734 0.41096,0.26298 0.56288,0.43343 -0.005,-0.006 -6.8e-4,-0.004 10e-4,0.0168 0.002,0.0209 0.002,0.0535 0.003,0.0932 0.001,0.0397 0.003,0.0871 0.0252,0.13873 0.022,0.0517 0.0711,0.10462 0.13343,0.12946 0.0647,0.0258 0.13642,0.0357 0.2218,0.0469 0.0854,0.0112 0.17987,0.0207 0.27084,0.0322 0.091,0.0115 0.17876,0.0247 0.24124,0.0416 0.0625,0.0169 0.0917,0.0481 0.0795,0.0283 0.10287,0.16849 0.10872,0.36391 0.17894,0.56995 0.0556,0.16323 0.1734,0.32094 0.4025,0.42549 -0.0412,0.0386 -0.0681,0.0868 -0.0804,0.13033 -0.0163,0.0576 -0.0154,0.10721 -0.0181,0.14404 -0.003,0.0369 -0.008,0.059 -0.0141,0.0698 -0.006,0.0108 -0.0117,0.0205 -0.0539,0.0349 -0.0206,0.007 -0.0984,0.008 -0.18424,0.004 -0.0858,-0.004 -0.18481,-0.0161 -0.28277,0.0438 -0.3066,0.18719 -0.67879,0.44515 -0.96892,0.56996 0.005,-0.003 -0.0442,-0.006 -0.11488,-0.0287 -0.0353,-0.0111 -0.0737,-0.0234 -0.12415,-0.0247 -0.0504,-0.002 -0.12076,0.0183 -0.16348,0.0689 -0.14726,0.17451 -0.29867,0.45463 -0.39897,0.57349 l 0.17143,0.14492 c 0.13138,-0.15568 0.2771,-0.41833 0.39323,-0.55979 0.0102,0.002 0.0279,0.005 0.0548,0.0137 0.0624,0.0197 0.15624,0.0687 0.27172,0.019 0.32777,-0.14099 0.69976,-0.4026 0.99632,-0.58366 0.0106,-0.007 0.0746,-0.0153 0.15464,-0.0115 0.0801,0.003 0.17065,0.0175 0.26863,-0.0159 0.0808,-0.0276 0.1439,-0.0774 0.17761,-0.1374 0.0337,-0.06 0.04,-0.11949 0.0433,-0.1648 0.003,-0.0453 0.005,-0.0796 0.0102,-0.0981 0.005,-0.0185 0.004,-0.0215 0.0238,-0.0336 0.14441,-0.0882 0.33716,-0.16241 0.47586,-0.31369 -0.002,6.7e-4 0.002,-0.002 0.0102,-0.003 0.0182,-0.002 0.0498,4.6e-4 0.0857,0.003 0.0359,0.003 0.0758,0.005 0.1162,0.005 0.0404,-7e-5 0.0826,0.003 0.13652,-0.03 0.20063,-0.12251 0.29278,-0.27962 0.44802,-0.34639 -0.0162,0.007 0.01,-4.5e-4 0.042,-4.5e-4 0.0322,9e-5 0.0755,0.002 0.11929,0.003 0.0438,0.002 0.0888,0.003 0.13388,-0.002 0.045,-0.004 0.0979,-0.006 0.14845,-0.0663 0.10113,-0.11985 0.10944,-0.26199 0.14403,-0.36053 0.0345,-0.0985 0.0579,-0.14979 0.18955,-0.17364 l -0.0212,-0.11664 c 0.0693,0.0586 0.12732,0.12374 0.17319,0.19882 0.0216,0.2901 0.19661,0.49864 0.3791,0.66716 0.15108,0.13954 0.28177,0.26316 0.3919,0.39234 -0.002,4.5e-4 -0.002,3e-5 -0.003,4.5e-4 -0.0407,0.013 -0.10613,0.0465 -0.12415,0.12106 -0.0195,0.0805 -0.003,0.15014 0.0155,0.21826 0.018,0.0681 0.039,0.12662 0.0685,0.17497 0.0605,0.0992 0.15923,0.15283 0.26774,0.21385 0.10851,0.061 0.22973,0.12158 0.33756,0.18732 0.10783,0.0658 0.2001,0.13665 0.24698,0.20369 0.0469,0.067 0.0596,0.11908 0.0243,0.20766 l 0.20943,0.0826 c 0.0606,-0.15215 0.0302,-0.30712 -0.0486,-0.41974 -0.0787,-0.11263 -0.19508,-0.194 -0.31458,-0.26686 -0.11949,-0.0728 -0.24396,-0.13516 -0.34462,-0.19176 -0.10067,-0.0566 -0.17317,-0.11645 -0.1838,-0.13387 -0.008,-0.0125 -0.0319,-0.0649 -0.0451,-0.11488 -0.009,-0.0331 -0.008,-0.051 -0.009,-0.0716 0.0114,-0.002 0.0183,-0.004 0.0332,-0.006 0.0289,-0.003 0.0576,-0.003 0.10339,-0.0239 0.0229,-0.0103 0.0599,-0.0327 0.0769,-0.0804 0.0169,-0.0477 6.7e-4,-0.0935 -0.0151,-0.11929 -0.13728,-0.22485 -0.3581,-0.37948 -0.53372,-0.54168 -0.17562,-0.1622 -0.30215,-0.31717 -0.30884,-0.54168 l -4.5e-4,-0.0269 -0.0141,-0.0257 c -0.12526,-0.22091 -0.32273,-0.35494 -0.51429,-0.47231 -0.19155,-0.11737 -0.38001,-0.22043 -0.51295,-0.36053 -0.10765,-0.11343 -0.16921,-0.40027 -0.2545,-0.72769 -0.0853,-0.32743 -0.21015,-0.69818 -0.52578,-0.96451 -0.0657,-0.0555 -0.1495,-0.10475 -0.23107,-0.15288 -0.0816,-0.0481 -0.16185,-0.0966 -0.19662,-0.12592 -0.003,-0.003 -0.0113,-0.0205 -0.0208,-0.0685 -0.01,-0.048 -0.0146,-0.12668 -0.0897,-0.18999 -0.11269,-0.0951 -0.23434,-0.13027 -0.33799,-0.13078 -0.10366,-4.5e-4 -0.18809,0.0239 -0.25891,0.0318 -0.0708,0.008 -0.12265,0.007 -0.18999,-0.0305 -0.0673,-0.0375 -0.15491,-0.12054 -0.25935,-0.29161 z m 4.47969,7.58971 c -0.10171,-0.003 -0.20721,0.002 -0.31723,0.0247 -0.20281,0.043 -0.42715,0.18433 -0.65567,0.33049 -0.22853,0.14616 -0.45706,0.30024 -0.60752,0.36495 0.0195,-0.009 0.008,2.3e-4 -0.0269,-0.0194 -0.0346,-0.0198 -0.0797,-0.0575 -0.12327,-0.0937 -0.0436,-0.0362 -0.0807,-0.0701 -0.13078,-0.0976 -0.0125,-0.007 -0.0254,-0.0132 -0.0469,-0.0181 -0.0215,-0.005 -0.057,-0.008 -0.0928,0.0115 -0.0358,0.0191 -0.0569,0.0556 -0.0636,0.0809 -0.007,0.0253 -0.006,0.0431 -0.005,0.0605 0.003,0.0348 -0.003,0.054 -0.03,0.083 -0.0269,0.029 -0.0781,0.0616 -0.14801,0.0897 -0.13987,0.0563 -0.34945,0.0937 -0.56377,0.11488 -0.21432,0.0212 -0.43383,0.028 -0.60354,0.0327 -0.0849,0.003 -0.1574,0.005 -0.21252,0.008 -0.0276,0.002 -0.0498,0.003 -0.0711,0.006 -0.0106,0.002 -0.0218,0.003 -0.0349,0.006 -0.007,0.002 -0.0143,0.004 -0.0243,0.009 -0.005,0.003 -0.009,0.005 -0.0159,0.01 -0.007,0.004 -0.0231,0.0217 -0.0234,0.0221 -0.0513,0.0608 -0.0395,0.0962 -0.0406,0.13432 -0.001,0.038 9.4e-4,0.0768 0.003,0.11531 0.002,0.0386 0.004,0.0766 0.004,0.10515 2.3e-4,0.0286 -0.007,0.0513 -4.5e-4,0.0353 l 4.5e-4,0.002 c -0.005,0.0127 -0.0368,0.045 -0.10294,0.0756 -0.0661,0.0305 -0.15844,0.0576 -0.2545,0.0804 -0.096,0.0228 -0.19538,0.0411 -0.28321,0.0605 -0.0878,0.0194 -0.15771,0.0337 -0.22489,0.0746 l 0.11709,0.19263 c 0.005,-0.003 0.0742,-0.0268 0.15685,-0.045 0.0827,-0.0183 0.18361,-0.0384 0.2863,-0.0628 0.10269,-0.0244 0.20607,-0.0535 0.29691,-0.0954 0.0909,-0.0419 0.17755,-0.0969 0.21782,-0.19794 0.0199,-0.05 0.0184,-0.0834 0.0181,-0.12195 -2.3e-4,-0.0385 -0.004,-0.0778 -0.006,-0.11532 -0.002,-0.0256 -0.002,-0.0446 -0.002,-0.065 0.049,-0.003 0.11854,-0.005 0.20236,-0.007 0.17038,-0.004 0.39578,-0.0104 0.62032,-0.0327 0.22455,-0.0222 0.44786,-0.0581 0.62607,-0.1299 0.0891,-0.0358 0.16807,-0.0815 0.22887,-0.14712 0.0266,-0.0287 0.023,-0.075 0.0389,-0.11223 0.008,0.007 0.01,0.007 0.0181,0.0137 0.0453,0.0376 0.098,0.0802 0.15729,0.11399 0.0592,0.0338 0.13892,0.0696 0.22887,0.031 0.18934,-0.0815 0.41472,-0.23694 0.63977,-0.38085 0.22503,-0.14393 0.45304,-0.27331 0.581,-0.30045 0.17274,-0.0366 0.34945,-0.0134 0.55273,-0.002 l 0.0128,-0.22577 c -0.096,-0.005 -0.19388,-0.0153 -0.29559,-0.0181 z m -1.8433,0.62519 c -1.4e-4,-0.002 0.002,0.003 -0.002,0.0168 -6.7e-4,0.003 -0.007,0.006 -0.008,0.009 1e-4,-0.01 0.0106,-0.0157 0.01,-0.0256 z"
         style="color:#000000;font-style:normal;font-variant:normal;font-weight:normal;font-stretch:normal;font-size:medium;line-height:normal;font-family:sans-serif;font-variant-ligatures:normal;font-variant-position:normal;font-variant-caps:normal;font-variant-numeric:normal;font-variant-alternates:normal;font-variant-east-asian:normal;font-feature-settings:normal;font-variation-settings:normal;text-indent:0;text-align:start;text-decoration:none;text-decoration-line:none;text-decoration-style:solid;text-decoration-color:#000000;letter-spacing:normal;word-spacing:normal;text-transform:none;writing-mode:lr-tb;direction:ltr;text-orientation:mixed;dominant-baseline:auto;baseline-shift:baseline;text-anchor:start;white-space:normal;shape-padding:0;shape-margin:0;inline-size:0;clip-rule:nonzero;display:inline;overflow:visible;visibility:visible;isolation:auto;mix-blend-mode:normal;color-interpolation:sRGB;color-interpolation-filters:linearRGB;solid-color:#000000;solid-opacity:1;vector-effect:none;fill:#550000;fill-opacity:1;fill-rule:nonzero;stroke:none;stroke-width:0.217549px;stroke-linecap:butt;stroke-linejoin:miter;stroke-miterlimit:4;stroke-dasharray:none;stroke-dashoffset:0;stroke-opacity:1;color-rendering:auto;image-rendering:auto;shape-rendering:auto;text-rendering:auto;enable-background:accumulate;stop-color:#000000"
         id="path2242-8" />
      <path
         d="m 275.53487,260.25811 c -0.12666,-4.2e-4 -0.25446,0.0173 -0.38129,0.0513 -0.67646,0.18102 -1.33807,0.79965 -1.86495,1.58571 -0.52689,0.78607 -0.91567,1.74307 -1.00737,2.62933 -0.0917,0.88625 0.12042,1.71824 0.81694,2.18483 2.9096,1.94916 6.52091,-3.77576 3.83594,-5.32402 -0.21804,-0.46724 -0.48246,-0.79086 -0.78557,-0.96407 -0.19459,-0.1112 -0.40259,-0.16233 -0.6137,-0.16303 z"
         style="color:#000000;font-style:normal;font-variant:normal;font-weight:normal;font-stretch:normal;font-size:medium;line-height:normal;font-family:sans-serif;font-variant-ligatures:normal;font-variant-position:normal;font-variant-caps:normal;font-variant-numeric:normal;font-variant-alternates:normal;font-variant-east-asian:normal;font-feature-settings:normal;font-variation-settings:normal;text-indent:0;text-align:start;text-decoration:none;text-decoration-line:none;text-decoration-style:solid;text-decoration-color:#000000;letter-spacing:normal;word-spacing:normal;text-transform:none;writing-mode:lr-tb;direction:ltr;text-orientation:mixed;dominant-baseline:auto;baseline-shift:baseline;text-anchor:start;white-space:normal;shape-padding:0;shape-margin:0;inline-size:0;clip-rule:nonzero;display:inline;overflow:visible;visibility:visible;isolation:auto;mix-blend-mode:normal;color-interpolation:sRGB;color-interpolation-filters:linearRGB;solid-color:#000000;solid-opacity:1;vector-effect:none;fill:#000000;fill-opacity:1;fill-rule:nonzero;stroke:none;stroke-width:0.217549px;stroke-linecap:butt;stroke-linejoin:miter;stroke-miterlimit:4;stroke-dasharray:none;stroke-dashoffset:0;stroke-opacity:1;color-rendering:auto;image-rendering:auto;shape-rendering:auto;text-rendering:auto;enable-background:accumulate;stop-color:#000000"
         id="path2211-7" />
      <path
         style="font-variation-settings:normal;vector-effect:none;fill:none;fill-opacity:1;stroke:#000000;stroke-width:0.254847;stroke-linecap:round;stroke-linejoin:round;stroke-miterlimit:4;stroke-dasharray:none;stroke-dashoffset:0;stroke-opacity:1;stop-color:#000000"
         d="m 306.94189,280.08466 c -1.4467,-1.01163 -1.02201,-1.24434 -2.672,0.22633 -1.82834,1.62965 0.0482,6.80792 2.41211,5.17798 1.72405,-1.18874 2.062,-6.0884 -0.95687,-4.94242"
         id="path865-3-7" />
      <path
         style="font-variation-settings:normal;vector-effect:none;fill:none;fill-opacity:1;stroke:#000000;stroke-width:0.254847;stroke-linecap:round;stroke-linejoin:round;stroke-miterlimit:4;stroke-dasharray:none;stroke-dashoffset:0;stroke-opacity:1;stop-color:#000000"
         d="m 298.64805,283.83715 c -1.20829,-4.56743 6.88644,-8.66952 10.84217,-7.55653 8.44152,2.37511 2.54507,13.49779 4.71565,6.95638"
         id="path843-4" />
      <path
         id="path877-1-0-3"
         d="m 305.72513,280.54655 c 3.62955,4.09091 7.04998,1.04829 10.95658,0.1484 5.80244,-1.33656 2.94653,-0.32345 7.53604,-4.22652 1.73997,-1.47973 3.93528,-1.50452 5.6822,-2.81362 3.92646,-2.94238 1.00212,-6.56114 -2.81362,-5.68219 -4.63928,1.06863 -2.94331,2.87924 -5.01202,4.37153 -1.88669,1.36101 -8.32939,-0.97288 -15.22588,4.51905 -1.3854,1.10325 -2.14929,2.00292 -1.1233,3.68335 z"
         style="font-variation-settings:normal;vector-effect:none;fill:#999999;fill-opacity:1;stroke:none;stroke-width:0.217549px;stroke-linecap:butt;stroke-linejoin:miter;stroke-miterlimit:4;stroke-dasharray:none;stroke-dashoffset:0;stroke-opacity:1;stop-color:#000000" />
      <path
         d="m 315.88516,273.1055 c -2.62288,0.31609 -5.77882,1.16338 -9.03669,3.75774 -1.38539,1.10325 -2.14911,2.00309 -1.12312,3.68352 3.33161,3.7551 6.48777,1.50288 10.00473,0.41134 0.41137,-2.63669 0.46454,-5.4367 0.15508,-7.8526 z"
         style="font-variation-settings:normal;vector-effect:none;fill:#688768;fill-opacity:1;stroke:none;stroke-width:0.217549px;stroke-linecap:butt;stroke-linejoin:miter;stroke-miterlimit:4;stroke-dasharray:none;stroke-dashoffset:0;stroke-opacity:1;stop-color:#000000"
         id="path833-5-2-2" />
      <path
         id="path879-1-8-7"
         d="m 323.97156,256.98586 c -2.36993,9.48091 10.21172,7.59818 12.13098,1.3048 0.61575,-2.01909 -2.62066,-1.27346 -3.53539,-1.49464 -1.834,-0.44347 0.71395,-2.37476 -0.27158,-3.20638 -1.20238,-1.01459 -5.60347,-0.23195 -6.94715,0.58844 -0.83093,0.50734 -0.70696,2.0139 -1.37686,2.80778 z"
         style="fill:#999999;stroke:none;stroke-width:0.217892;stroke-linecap:round;stroke-linejoin:round;stroke-miterlimit:4;stroke-dasharray:none;stroke-opacity:1"
         sodipodi:nodetypes="cssssc" />
      <path
         id="path875-2-9-4"
         d="m 263.9853,274.93211 c -1.44795,-2.37151 -3.64845,-0.17365 -5.49484,-1.32868 -1.86669,-1.16773 -3.99543,-4.83809 -6.00491,-5.23249 -2.7876,-0.54709 -6.25265,3.72037 -4.66792,6.31592 1.55734,2.55068 6.0523,1.94911 7.6957,4.01281 1.24443,1.56269 -0.55631,3.67899 0.61569,5.15074 0.69033,0.86688 3.91887,0.88275 4.94536,1.1958 2.01954,0.61589 1.06892,1.5973 1.85968,2.89245 0.28268,0.46298 0.54617,0.52309 0.82893,0.40145 2.99582,-1.28875 3.73354,-1.89061 3.8621,-2.78839 6.00333,-3.36561 -1.41288,-6.87991 -3.63979,-10.61961 z"
         style="fill:#999999;stroke:none;stroke-width:0.217892;stroke-linecap:round;stroke-linejoin:round;stroke-miterlimit:4;stroke-dasharray:none;stroke-opacity:1"
         sodipodi:nodetypes="csssssssccc" />
      <path
         d="m 305.68205,279.26678 c -0.2197,-6.8e-4 -0.4641,0.19716 -0.95082,0.63137 0.19745,0.14104 0.45229,0.35856 0.85317,0.63888 l -1.21679,0.46215 c 2.89547,-1.09913 2.70241,3.36111 1.16068,4.7766 0.35982,0.0679 0.74913,-0.008 1.15361,-0.28675 1.72405,-1.18874 2.06232,-6.08825 -0.95656,-4.94228 l 1.21635,-0.46215 c -0.72335,-0.50581 -0.97873,-0.81702 -1.25964,-0.81782 z"
         style="font-variation-settings:normal;vector-effect:none;fill:#782121;fill-opacity:1;stroke:none;stroke-width:0.217549px;stroke-linecap:butt;stroke-linejoin:miter;stroke-miterlimit:4;stroke-dasharray:none;stroke-dashoffset:0;stroke-opacity:1;stop-color:#000000"
         id="path865-3-6-8" />
      <path
         d="m 308.10238,275.94468 c -0.41581,0.27907 -0.8338,0.58402 -1.25391,0.91856 -1.38539,1.10325 -2.14911,2.00309 -1.12312,3.68352 2.86339,3.22736 5.59737,2.01517 8.54184,0.91767 0.0279,-1.6739 -0.8191,-3.3772 -4.77703,-5.18396 -0.41249,-0.18829 -0.88285,-0.29461 -1.38778,-0.33579 z"
         style="font-variation-settings:normal;vector-effect:none;fill:#5d8585;fill-opacity:1;stroke:none;stroke-width:0.217549px;stroke-linecap:butt;stroke-linejoin:miter;stroke-miterlimit:4;stroke-dasharray:none;stroke-dashoffset:0;stroke-opacity:1;stop-color:#000000"
         id="path843-2-5-9" />
      <path
         d="m 305.68205,279.26678 c -0.11737,-2.2e-4 -0.24161,0.0572 -0.40383,0.17364 0.054,0.3319 0.19629,0.69551 0.44713,1.10634 l 1.21635,-0.46216 c -0.72335,-0.50581 -0.97874,-0.81701 -1.25965,-0.81782 z m 0.0433,1.27998 c 0.76056,0.85724 1.51216,1.39858 2.26083,1.71473 -0.041,-1.28744 -0.70324,-2.306 -2.26083,-1.71473 z"
         style="font-variation-settings:normal;vector-effect:none;fill:#7e5656;fill-opacity:1;stroke:none;stroke-width:0.217549px;stroke-linecap:butt;stroke-linejoin:miter;stroke-miterlimit:4;stroke-dasharray:none;stroke-dashoffset:0;stroke-opacity:1;stop-color:#000000"
         id="path865-9-6" />
      <path
         style="font-variation-settings:normal;vector-effect:none;fill:none;fill-opacity:1;stroke:#000000;stroke-width:0.254847;stroke-linecap:round;stroke-linejoin:round;stroke-miterlimit:4;stroke-dasharray:none;stroke-dashoffset:0;stroke-opacity:1;stop-color:#000000"
         d="m 271.39278,248.13718 c 1.73171,-3.44807 0.54296,-7.61938 -6.01076,-9.53784 -1.40758,-0.41203 -7.11196,-0.32815 -6.20736,-1.26831 6.88785,-5.584 21.32623,-9.86064 25.22514,1.27216 0.10709,0.17541 0.0312,1.07381 0.0905,1.06879 0.49782,-0.0422 4.80285,-12.94871 4.93996,-13.69476 0.022,-0.11976 1.17177,-3.97324 1.47956,-3.71352 0.73198,0.61767 1.87918,4.20879 2.41209,5.17799 0.99576,1.81096 1.22087,3.88859 2.1011,5.74256 1.00184,2.11008 2.28566,4.10903 3.39328,6.17133 8.64977,-12.4092 25.84497,-6.10605 26.63511,0.97332 -6.18072,-4.2074 -16.61648,1.34997 -18.51986,5.87452 l 3.10369,0.63416 c 8.54751,3.16441 12.35103,10.32401 7.29956,18.39916 -1.06191,1.69754 -2.47501,1.36499 -3.38158,2.43934"
         id="path833-8"
         sodipodi:nodetypes="csccscsssccccsc" />
      <path
         id="path833-5-3-0"
         style="font-variation-settings:normal;vector-effect:none;fill:#688768;fill-opacity:1;stroke:none;stroke-width:0.217549px;stroke-linecap:butt;stroke-linejoin:miter;stroke-miterlimit:4;stroke-dasharray:none;stroke-dashoffset:0;stroke-opacity:1;stop-color:#000000"
         d="m 263.08593,274.02185 c -1.42597,3.92057 -4.69504,7.36754 -4.87999,10.58795 1.1002,0.17993 2.30893,0.26592 2.86835,0.43652 2.01953,0.61589 1.06888,1.59705 1.85965,2.8922 0.28268,0.46299 0.5461,0.52326 0.82887,0.40162 2.99581,-1.28875 3.73388,-1.89059 3.86245,-2.78837 6.00333,-3.36561 -1.41286,-6.88006 -3.63977,-10.61976 -0.2751,-0.45057 -0.57773,-0.73514 -0.89956,-0.91016 z" />
      <path
         style="font-variation-settings:normal;vector-effect:none;fill:#008080;fill-opacity:1;stroke:none;stroke-width:0.217549px;stroke-linecap:butt;stroke-linejoin:miter;stroke-miterlimit:4;stroke-dasharray:none;stroke-dashoffset:0;stroke-opacity:1;stop-color:#000000"
         d="m 284.49032,239.67198 c 0.49783,-0.0422 4.80286,-14.75844 4.93997,-15.50449 0.022,-0.11975 1.17177,-3.97324 1.47956,-3.71352 0.73198,0.61767 1.87918,4.20879 2.41209,5.17799 0.99576,1.81097 1.22087,5.69832 2.1011,7.55229 1.00183,2.11008 2.28566,4.10903 3.39328,6.17133 -1.80056,12.27408 -16.50213,5.32127 -14.326,0.3164 z"
         id="path833-2-2"
         sodipodi:nodetypes="ccssscc" />
      <path
         id="path833-2-4-2"
         style="font-variation-settings:normal;vector-effect:none;fill:#0f7171;fill-opacity:1;stroke:none;stroke-width:0.217549px;stroke-linecap:butt;stroke-linejoin:miter;stroke-miterlimit:4;stroke-dasharray:none;stroke-dashoffset:0;stroke-opacity:1;stop-color:#000000"
         d="m 290.87862,220.44147 c -0.34728,-0.01 -1.42696,3.60991 -1.44831,3.72592 -0.13711,0.74606 -4.44224,15.46244 -4.94006,15.5046 -0.68897,1.58454 0.31471,3.36395 2.06421,4.66702 -0.31464,-0.75239 -0.36131,-1.52978 -0.0415,-2.26524 -2.26311,-4.00887 5.58624,-16.79455 4.39707,-21.61993 -0.01,-0.008 -0.0202,-0.0121 -0.0314,-0.0124 z"
         sodipodi:nodetypes="cccccccc" />
      <path
         id="path833-2-8-0"
         style="font-variation-settings:normal;vector-effect:none;fill:#4b9292;fill-opacity:1;stroke:none;stroke-width:0.217549px;stroke-linecap:butt;stroke-linejoin:miter;stroke-miterlimit:4;stroke-dasharray:none;stroke-dashoffset:0;stroke-opacity:1;stop-color:#000000"
         d="m 290.87862,220.44147 c 0.89341,6.40797 1.09251,11.01779 2.64831,14.63906 1.94419,4.19125 4.74718,5.86409 1.99265,10.20134 1.59388,-0.99718 2.84748,-2.86254 3.29691,-5.92622 -1.10762,-2.0623 -2.39184,-4.06136 -3.39367,-6.17145 -0.88023,-1.85396 -1.10513,-5.74118 -2.10089,-7.55215 -0.53291,-0.9692 -1.67996,-4.56055 -2.41194,-5.17821 -0.01,-0.008 -0.0202,-0.0121 -0.0314,-0.0124 z"
         sodipodi:nodetypes="ccccssscc" />
      <path
         sodipodi:nodetypes="ccssscc"
         id="path833-2-0-5"
         d="m 284.49032,239.67198 c 0.49783,-0.0422 4.80286,-14.75844 4.93997,-15.50449 0.022,-0.11975 1.17177,-3.97324 1.47956,-3.71352 0.73198,0.61767 1.87918,4.20879 2.41209,5.17799 0.99576,1.81097 1.22087,5.69832 2.1011,7.55229 1.00183,2.11008 2.28566,4.10903 3.39328,6.17133 -1.80056,12.27408 -16.50213,5.32127 -14.326,0.3164 z"
         style="font-variation-settings:normal;vector-effect:none;fill:none;fill-opacity:1;stroke:#000000;stroke-width:0.254847;stroke-linecap:round;stroke-linejoin:round;stroke-miterlimit:4;stroke-dasharray:none;stroke-dashoffset:0;stroke-opacity:1;stop-color:#000000" />
      <path
         id="path845-3-7-7"
         style="font-variation-settings:normal;vector-effect:none;fill:#5d8585;fill-opacity:1;stroke:none;stroke-width:0.217549px;stroke-linecap:butt;stroke-linejoin:miter;stroke-miterlimit:4;stroke-dasharray:none;stroke-dashoffset:0;stroke-opacity:1;stop-color:#000000"
         d="m 266.76281,278.11494 c -2.1151,1.23876 -3.83687,3.67175 -4.23314,7.16688 1.66897,0.65517 3.21152,0.99459 4.67408,1.13372 0.25683,-0.27951 0.37717,-0.55418 0.42151,-0.86377 4.2706,-2.3942 1.74988,-4.86453 -0.86245,-7.43683 z" />
      <path
         id="path863-0-8-5"
         style="font-variation-settings:normal;vector-effect:none;fill:#7e5656;fill-opacity:1;stroke:none;stroke-width:0.217549px;stroke-linecap:butt;stroke-linejoin:miter;stroke-miterlimit:4;stroke-dasharray:none;stroke-dashoffset:0;stroke-opacity:1;stop-color:#000000"
         d="m 268.71878,280.17208 c -0.1692,0.0331 -0.33973,0.079 -0.50987,0.1436 -1.93955,0.73626 -1.21185,3.45906 -0.14978,4.9763 2.63136,-1.66653 2.10176,-3.37038 0.65965,-5.1199 z" />
      <path
         id="path1053-2"
         style="font-variation-settings:normal;vector-effect:none;fill:#b7d7a0;fill-opacity:1;stroke:none;stroke-width:2.41711;stroke-linecap:round;stroke-linejoin:round;stroke-miterlimit:4;stroke-dasharray:none;stroke-dashoffset:0;stroke-opacity:1;stop-color:#000000"
         d="m 1108.9141,1184.4922 c -1.0638,-0.018 -2.1007,0.055 -3.0918,0.248 15.276,2.8707 34.6242,20.689 43.9882,33.1348 1.5997,2.1261 2.2086,5.4333 3.0684,8.2031 h 15.0938 c -2.2529,-4.7981 -5.4562,-10.6376 -5.5039,-10.7011 -8.7678,-11.6879 -25.8119,-22.874 -39.8223,-27.6368 -4.0158,-1.3651 -9.1228,-3.1706 -13.7324,-3.248 z"
         transform="scale(0.26458333)" />
      <path
         id="path857-4-9"
         style="font-variation-settings:normal;vector-effect:none;fill:#ffeeaa;fill-opacity:1;stroke:none;stroke-width:0.639525;stroke-linecap:round;stroke-linejoin:round;stroke-miterlimit:4;stroke-dasharray:none;stroke-dashoffset:0;stroke-opacity:1;stop-color:#000000"
         d="m 293.39988,313.39672 c -0.28145,-0.005 -0.5558,0.0151 -0.81804,0.0661 0.81045,0.1523 1.6645,0.4655 2.53163,0.89246 -0.0777,-0.25112 -0.15091,-0.50173 -0.22324,-0.75241 -0.49995,-0.11663 -1.00564,-0.19806 -1.49035,-0.20619 z" />
      <path
         sodipodi:nodetypes="czccc"
         id="path1136-4"
         d="m 303.80263,247.93102 c 1.89036,-0.28631 4.44107,-0.28692 6.75896,0.20218 2.31789,0.48909 8.65671,6.69977 5.90952,4.7266 -0.65447,-0.46858 -1.49983,-1.04784 -2.38543,-1.5011 -3.35446,-1.67723 -6.6985,-2.71078 -10.28305,-3.42768 z"
         style="font-variation-settings:normal;vector-effect:none;fill:#b7d7a0;fill-opacity:1;stroke:none;stroke-width:0.546786;stroke-linecap:round;stroke-linejoin:round;stroke-miterlimit:4;stroke-dasharray:none;stroke-dashoffset:0;stroke-opacity:1;stop-color:#000000" />
      <path
         sodipodi:nodetypes="ccc"
         id="path1152-4"
         d="m 304.03115,275.46674 c -1.71029,-0.6888 -4.62211,3.31648 -5.96904,3.64709 0.28845,-3.41755 6.86331,-5.5001 5.96904,-3.64709 z"
         style="font-variation-settings:normal;vector-effect:none;fill:#b7d7a0;fill-opacity:1;stroke:none;stroke-width:0.546786;stroke-linecap:round;stroke-linejoin:round;stroke-miterlimit:4;stroke-dasharray:none;stroke-dashoffset:0;stroke-opacity:1;stop-color:#000000" />
      <path
         sodipodi:nodetypes="csc"
         id="path1154-6"
         d="m 276.02692,278.13622 c 1.68519,3.56554 3.58543,4.42054 1.1483,0.19266 -2.26172,-3.92359 -2.67696,-2.28739 -1.1483,-0.19266 z"
         style="font-variation-settings:normal;vector-effect:none;fill:#b7d7a0;fill-opacity:1;stroke:none;stroke-width:0.546786;stroke-linecap:round;stroke-linejoin:round;stroke-miterlimit:4;stroke-dasharray:none;stroke-dashoffset:0;stroke-opacity:1;stop-color:#000000" />
    </g>
    <path
       id="path857-1-6-6"
       style="font-variation-settings:normal;vector-effect:none;fill:#499c49;fill-opacity:1;stroke:none;stroke-width:0.264999;stroke-linecap:round;stroke-linejoin:round;stroke-miterlimit:4;stroke-dasharray:none;stroke-dashoffset:0;stroke-opacity:1;stop-color:#000000"
       d="m 150.33602,107.4922 a 0.3568228,0.33501163 0 0 0 -0.015,5.2e-4 0.3568228,0.33501163 0 0 0 -0.18245,0.061 0.3568228,0.33501163 0 0 0 -0.0837,0.46652 c 0.18015,0.23796 0.36818,0.46691 0.56177,0.68884 h 0.81689 c 0.0117,-0.0286 0.0228,-0.0577 0.0343,-0.0864 -0.29197,-0.31378 -0.5699,-0.64354 -0.83241,-0.99031 a 0.3568228,0.33501163 0 0 0 -0.29947,-0.14006 z" />
  </g>
</svg>
