<?xml version="1.0" encoding="UTF-8" standalone="no"?>
<svg
   xmlns:dc="http://purl.org/dc/elements/1.1/"
   xmlns:cc="http://creativecommons.org/ns#"
   xmlns:rdf="http://www.w3.org/1999/02/22-rdf-syntax-ns#"
   xmlns:svg="http://www.w3.org/2000/svg"
   xmlns="http://www.w3.org/2000/svg"
   xmlns:sodipodi="http://sodipodi.sourceforge.net/DTD/sodipodi-0.dtd"
   xmlns:inkscape="http://www.inkscape.org/namespaces/inkscape"
   inkscape:version="1.0 (4035a4fb49, 2020-05-01)"
   sodipodi:docname="2020-LT-01_taskbody3.svg"
   id="svg1157"
   viewBox="0 0 2461.2017 1968.9388"
   style="clip-rule:evenodd;fill-rule:evenodd;image-rendering:optimizeQuality;shape-rendering:geometricPrecision;text-rendering:geometricPrecision"
   version="1.1"
   height="20mm"
   width="25mm"
   xml:space="preserve"><metadata
   id="metadata1161"><rdf:RDF><cc:Work
       rdf:about=""><dc:format>image/svg+xml</dc:format><dc:type
         rdf:resource="http://purl.org/dc/dcmitype/StillImage" /><dc:title></dc:title></cc:Work></rdf:RDF></metadata><sodipodi:namedview
   fit-margin-bottom="0"
   fit-margin-right="0"
   fit-margin-left="0"
   fit-margin-top="0"
   inkscape:snap-global="false"
   inkscape:current-layer="_806366064"
   showgrid="false"
   id="namedview1159"
   inkscape:window-height="480"
   inkscape:window-width="640"
   inkscape:pageshadow="2"
   inkscape:pageopacity="0"
   guidetolerance="10"
   gridtolerance="10"
   objecttolerance="10"
   borderopacity="1"
   bordercolor="#666666"
   pagecolor="#ffffff" />
 <defs
   id="defs4">
  <style
   id="style2"
   type="text/css">
   <![CDATA[
    .str1 {stroke:#2B2A29;stroke-width:14.7676;stroke-linecap:round;stroke-linejoin:round}
    .str0 {stroke:#2B2A29;stroke-width:49.2252;stroke-linecap:round;stroke-linejoin:round}
    .str2 {stroke:#2B2A29;stroke-width:98.4505;stroke-linecap:round;stroke-linejoin:round}
    .fil6 {fill:none}
    .fil7 {fill:#2B2A29}
    .fil13 {fill:#57A7B3}
    .fil11 {fill:#5B7674}
    .fil10 {fill:#96A7B1}
    .fil12 {fill:#A75F4A}
    .fil9 {fill:#B7CBD8}
    .fil4 {fill:#EF7F1A}
    .fil1 {fill:#FCD5A6}
    .fil3 {fill:#9D6432}
    .fil8 {fill:#C5AD90}
    .fil0 {fill:#C8E8FB}
    .fil5 {fill:#FBCCA2}
    .fil2 {fill:#FEEDD6}
   ]]>
  </style>
 
    
    
   
    
    
    
    
    
    
    
    
    
    
    
    
    
    
    
    
    
    
    
    
    
    
    
    
    
    
    
    
    
    
    
    
    
    
    
    
    
    
    
    
    
    
    
    
    
    
    
    
    
    
    
    
    
    
    
    
    
    
   </defs>
 <g
   transform="translate(-8340.6806,-6200.2797)"
   id="Layer_x0020_1">
  <metadata
   id="CorelCorpID_0Corel-Layer" />
  <g
   id="_806366064">
   
   
   
  <path
   style="clip-rule:evenodd;fill:#feedd6;fill-rule:evenodd;stroke:#2b2a29;stroke-width:49.2252;stroke-linecap:round;stroke-linejoin:round;image-rendering:optimizeQuality;shape-rendering:geometricPrecision;text-rendering:geometricPrecision"
   id="path1117"
   d="m 10040.016,7863.5917 c -371.9997,330 -845.9997,278 -955.9997,278 -586,0 -1027,-682 -448,-1154 718,-585 2223.9997,148 1403.9997,876 z"
   class="fil2 str0" /><path
   style="clip-rule:evenodd;fill:#c5ad90;fill-rule:evenodd;stroke-width:1;image-rendering:optimizeQuality;shape-rendering:geometricPrecision;text-rendering:geometricPrecision"
   class="fil8"
   d="m 9465.7438,7189.4931 c -4,0 -1338,560 -405,531 259,-8 987.0002,173 864.9997,-263 -26,-91 -472.9997,-267 -459.9997,-268 z"
   id="path1121" /><path
   style="clip-rule:evenodd;fill:none;fill-rule:evenodd;stroke:#2b2a29;stroke-width:98.4505;stroke-linecap:round;stroke-linejoin:round;image-rendering:optimizeQuality;shape-rendering:geometricPrecision;text-rendering:geometricPrecision"
   id="path1123"
   d="m 10048.744,6493.4931 c -87.0005,-47 -58.0005,-27 5,12 -2,-4 -3,-8 -5,-12 z m 148,96 c 12,7 24,13 34,19 13,-4 14,-13 8,-24 73,-9 119,-20 125,-33 21,-47 -86,-23 -184,-16 l -3,-1.9999 c 107,-311.0001 23,-173.0001 -79,-41.0001 l -6,-3 c -13,-32 -26,-68 -40,-111 -11,-35 -66.0005,-53 -11,94 -31,-6 -44.0005,4 -13,43 h 5 c -15,-8 -31,-16 -49.0005,-26 -6,-3 -4,-15 42.0005,26 -86.0005,0 -269.0002,-19 -318.0002,-21 -40,-1.9999 -85,-5 -131,-8 v -1.9999 c -3,0.9999 -5,0.9999 -8,1.9999 l -36,-3 c -10,-3 -19,-8 -26,-14 -4,1 -7,1 -11,2 56,-117 90,-211 44,-222 -23,26 -5,14 -42,55 -40,46 -78,103 -115,168 -29,-1 -55,-2 -78,-2 -10,-17 -21,-34 -32,-48 -1,-2 -51,-84 -10,5 7,-45 -191,-286 -31,88 1,2 2,5 3,8 -82,-4 -292,-34 -298,-31 -98,49 47,81 275,99 -58,37 -67,58 46,15 l 3,12 c -85,45 -143,83 -45,60 3,-0.9999 5,-1.9999 8,-1.9999 2,-4 4,-7 7,-11 -12,8 -17,14 -11,16 -4,6 -8,13 -12,20 l -5,3 c -17,10 -17,14 -6,14 -65,108 -129,250 -172,374 -111,319 -413,537 -397,541 60,8 117,-17 169,-56 -24,28 -49,54 -75,78 -19,18 112,9 187,-106 118,-29 375,-93 569,-141 70,240 155,471 216,422 19,-15 31,-18 35,-24 180.9997,-26 728.0002,-191 939.0002,-235 36,39 58,42 56,-10 20,-1.9999 30,-1 28,5 1,0 -11,-9 -29,-22 -1,-6 -2,-13 -3,-21 0,-3 -407,-659 -429,-692 -49,-75 -86,-129 -117,-180 17,-3 27,-19 -21,-59 h -1 c 3,8 4,16 1,25 -3,-6 -6,-12 -9,-18 34,11 69,15 62,-11 z"
   class="fil6 str2" /><g
   style="clip-rule:evenodd;fill-rule:evenodd;image-rendering:optimizeQuality;shape-rendering:geometricPrecision;text-rendering:geometricPrecision"
   id="g1151"
   transform="translate(-6025.2563,-5931.5071)"><path
     id="path1125"
     d="m 15392,12644 c -132,100 -260,583 -396,713 -11,10 -49,126 -125,139 1,2 798,-200 871,-212 148,-24 306,-64 173,-215 -181,-204 -339,-156 -505,-415 -6,-10 -14,-13 -18,-10 z"
     class="fil11 str1" /><path
     id="path1127"
     d="m 16067,12492 c 123,-136 262,-396 134,-24 -14,38 -564,755 -343,331 4,-8 203,-301 209,-307 z"
     class="fil12 str1" /><path
     id="path1129"
     d="m 16113,12464 c 103,21 303,-44 276,19 -36,85 -1703,80 -1427,-59 7,-4 276,36 324,31 58,-6 791,2 827,9 z"
     class="fil12 str1" /><path
     id="path1131"
     d="m 15696,13738 c -31,-201 -309,-680 -258,-941 3,-12 -48,-112 -80,-107 -42,64 -138,354 -327,586 -66,81 -213,311 -378,289 -16,-4 286,-222 397,-541 72,-210 206,-469 301,-533 8,-6 -3,-7 -2,-13 -287,-125 141,-61 384,-52 67,2 373,36 364,14 17,10 334,771 539,953 34,30 144,105 141,105 17,-53 -1048,287 -1081,240 z"
     class="fil13 str1" /><path
     id="path1133"
     d="m 15288,12358 c 7,-44 -191,-285 -31,89 30,70 56,287 116,420 27,60 229,988 346,895 49,-39 52,4 -8,-132 -140,-319 -204,-996 -413,-1276 -1,-2 -51,-84 -10,4 z"
     class="fil12 str1" /><path
     id="path1135"
     d="m 15523,12236 c -252,285 -401,1001 -776,1351 -22,20 155,6 217,-165 25,-69 278,-475 454,-816 98,-192 218,-408 147,-425 -23,26 -5,14 -42,55 z"
     class="fil12 str1" /><path
     id="path1137"
     d="m 16316,12763 c -122,-187 -172,-245 -239,-453 -12,-39 -79,-57 12,151 2,5 721,1411 656,994 0,-3 -407,-659 -429,-692 z"
     class="fil12 str1" /><path
     id="path1139"
     d="m 15592,12464 c 59,2 447,-26 455,-16"
     class="fil6 str1" /><path
     id="path1141"
     d="m 15642,12622 c 18,118 138,1011 303,1028"
     class="fil6 str1" /><path
     id="path1143"
     d="m 15773,12754 c 23,186 214,616 351,780 l 19,23"
     class="fil6 str1" /><path
     id="path1145"
     d="m 16006,12562 c 84,647 433,681 521,851"
     class="fil6 str1" /><path
     id="path1147"
     d="m 15401,12596 c 144,-73 218,-72 201,-180 -27,6 -52,-1 -70,-15 -191,24 -628,316 -43,49 77,-35 -465,210 -248,160 46,-11 269,-126 296,-151 1,5 -426,185 -253,150 399,-80 183,-122 -56,27 -71,44 160,-28 173,-40 z"
     class="fil10 str1" /><path
     id="path1149"
     d="m 16226,12508 c -407,-227 -110,-46 30,32 83,-28 -319,-230 -198,-87 19,23 160,34 112,116 -17,29 184,30 -161,-148 -8,-4 -2,-23 104,87 8,8 149,66 113,0 z"
     class="fil10 str1" /></g></g>
 </g>
</svg>
