<?xml version="1.0" encoding="UTF-8" standalone="no"?>
<!-- Created with Inkscape (http://www.inkscape.org/) -->

<svg
   xmlns:dc="http://purl.org/dc/elements/1.1/"
   xmlns:cc="http://creativecommons.org/ns#"
   xmlns:rdf="http://www.w3.org/1999/02/22-rdf-syntax-ns#"
   xmlns:svg="http://www.w3.org/2000/svg"
   xmlns="http://www.w3.org/2000/svg"
   xmlns:sodipodi="http://sodipodi.sourceforge.net/DTD/sodipodi-0.dtd"
   xmlns:inkscape="http://www.inkscape.org/namespaces/inkscape"
   width="174.19939mm"
   height="130.23759mm"
   viewBox="0 0 174.19939 130.23759"
   version="1.1"
   id="svg1605"
   inkscape:version="0.92.2 (5c3e80d, 2017-08-06)"
   sodipodi:docname="2020-CH-02_explanation.svg">
  <defs
     id="defs1599" />
  <sodipodi:namedview
     id="base"
     pagecolor="#ffffff"
     bordercolor="#666666"
     borderopacity="1.0"
     inkscape:pageopacity="0.0"
     inkscape:pageshadow="2"
     inkscape:zoom="0.7108234"
     inkscape:cx="144.10633"
     inkscape:cy="132.72813"
     inkscape:document-units="mm"
     inkscape:current-layer="layer1"
     showgrid="false"
     inkscape:window-width="1680"
     inkscape:window-height="987"
     inkscape:window-x="-8"
     inkscape:window-y="222"
     inkscape:window-maximized="1"
     inkscape:snap-global="false"
     fit-margin-top="0"
     fit-margin-left="0"
     fit-margin-right="0"
     fit-margin-bottom="0" />
  <metadata
     id="metadata1602">
    <rdf:RDF>
      <cc:Work
         rdf:about="">
        <dc:format>image/svg+xml</dc:format>
        <dc:type
           rdf:resource="http://purl.org/dc/dcmitype/StillImage" />
        <dc:title></dc:title>
      </cc:Work>
    </rdf:RDF>
  </metadata>
  <g
     inkscape:label="Ebene 1"
     inkscape:groupmode="layer"
     id="layer1"
     transform="translate(-18.8526,-94.171585)">
    <path
       style="opacity:1;vector-effect:none;fill:#755541;fill-opacity:1;stroke:none;stroke-width:1.89778113;stroke-linecap:round;stroke-linejoin:round;stroke-miterlimit:4;stroke-dasharray:none;stroke-dashoffset:0;stroke-opacity:1;paint-order:markers fill stroke"
       d="m 24.09556,94.500547 c -1.874479,0.0037 -5.034494,1.702049 -4.981557,3.697901 L 192.80264,98.010474 c 0.002,-1.996555 -2.02571,-3.842624 -3.90018,-3.838883 z"
       id="path2268"
       inkscape:connector-curvature="0"
       sodipodi:nodetypes="sccss" />
    <path
       style="opacity:1;vector-effect:none;fill:#5b4232;fill-opacity:1;stroke:none;stroke-width:7.17271614;stroke-linecap:round;stroke-linejoin:round;stroke-miterlimit:4;stroke-dasharray:none;stroke-dashoffset:0;stroke-opacity:1;paint-order:markers fill stroke"
       d="m 723.56503,360.12724 c -42.67335,44.50139 -53.79932,32.80896 -88.57153,79.17191 l 75.71353,408.30827 c 7.08397,0.0983 18.17257,-12.48473 18.17257,-20.03074 l 10e-6,-455.368 c 0,-4.65166 -1.99275,-9.62619 -5.31458,-12.08144 z"
       transform="scale(0.26458333)"
       id="path2268-0"
       inkscape:connector-curvature="0"
       sodipodi:nodetypes="cccssc" />
    <path
       style="opacity:1;vector-effect:none;fill:#1a1a1a;fill-opacity:1;stroke:none;stroke-width:1.77664566;stroke-linecap:round;stroke-linejoin:round;stroke-miterlimit:4;stroke-dasharray:none;stroke-dashoffset:0;stroke-opacity:1;paint-order:markers fill stroke"
       d="m 27.570442,98.874872 c -1.754835,0 -3.167786,1.504758 -3.167786,3.373878 v 115.25663 c 0,1.86911 1.412951,3.37388 3.167786,3.37388 H 182.42962 c 1.75483,0 3.16731,-1.50477 3.16731,-3.37388 V 102.24875 c 0,-1.86912 -1.41248,-3.373878 -3.16731,-3.373878 z"
       id="path2220"
       inkscape:connector-curvature="0"
       sodipodi:nodetypes="sssssssss" />
    <path
       style="opacity:1;vector-effect:none;fill:#1d1d1d;fill-opacity:1;stroke:none;stroke-width:1.89778113;stroke-linecap:round;stroke-linejoin:round;stroke-miterlimit:4;stroke-dasharray:none;stroke-dashoffset:0;stroke-opacity:1;paint-order:markers fill stroke"
       d="m 180.27074,137.8482 c -0.68502,0.0173 -1.12622,0.12576 -1.464,0.21962 -1.35109,0.3754 -1.70371,0.71049 -2.2965,1.06919 -1.18558,0.71742 -2.59893,1.62756 -2.70784,1.67896 -2.52732,1.19274 -4.95926,2.35654 -7.42126,3.55792 -0.76415,0.28572 -1.58898,0.58399 -2.11718,0.81753 -25.72258,11.37331 -51.77487,22.47981 -75.032113,36.41018 -6.532186,3.10034 -13.092935,6.16319 -19.770367,9.09608 l 1.601451,1.49603 c -2.277782,1.3861 -4.582938,2.79288 -6.245614,3.95118 -1.04635,0.72895 -1.902745,1.36454 -2.575552,2.00402 -0.336386,0.31974 -0.64204,0.62221 -0.89917,1.11104 -0.128593,0.24441 -0.274828,0.64227 -0.223758,1.09399 0.05103,0.45171 0.299138,0.95771 0.964797,1.41749 1.092319,0.75447 2.593534,1.0239 3.784783,1.06556 0.488135,0.0173 0.900012,-0.0768 1.351338,-0.10852 -0.232939,0.26093 -0.499742,0.47536 -0.672827,0.84078 -0.15512,0.32742 -0.319519,0.74699 -0.140044,1.35134 0.17944,0.60435 0.984525,1.3592 1.91358,1.68258 1.33572,0.46494 2.6669,0.56681 3.954796,0.49506 -1.010261,0.65994 -2.310426,1.51502 -3.588927,2.38384 -1.291765,0.87781 -2.547718,1.75486 -3.496945,2.48202 -0.474594,0.36358 -0.85987,0.66921 -1.226799,1.03714 -0.183309,0.18396 -0.382641,0.33853 -0.597895,0.80822 -0.107775,0.23484 -0.294598,0.58368 -0.04961,1.2144 0.245025,0.63074 1.438126,1.41322 2.406054,1.59008 1.801897,0.32923 3.18896,0.0802 4.558377,-0.2067 1.36942,-0.2869 2.746888,-0.70589 4.209563,-1.21595 2.925334,-1.02012 6.164627,-2.41429 9.349817,-3.88194 2.007885,-0.9252 2.622409,-1.2869 4.472596,-2.19573 -0.854867,0.52635 -1.69091,1.09087 -2.560053,1.60352 -1.230508,0.72577 -2.354757,1.63265 -3.364135,2.36162 -0.109985,0.004 -0.09219,-0.0239 -0.21704,-0.015 -0.612953,0.0439 -1.573012,0.21661 -2.348693,0.7183 -0.775663,0.5017 -1.071385,1.18578 -1.10381,1.63763 -0.03445,0.48025 -0.211662,1.35476 1.426787,2.17816 0.819213,0.4117 1.951868,0.53282 2.673739,0.48317 0.721867,-0.0497 1.15966,-0.18425 1.504299,-0.2992 0.07406,-0.0247 0.06804,-0.0479 0.136943,-0.0724 0.430215,0.0159 0.721693,0.0806 1.381312,0.002 4.854478,-0.57969 8.723789,-2.71325 11.255643,-3.70624 1.326454,-0.52022 2.602595,-1.09215 3.918627,-1.62315 -0.61422,0.45954 -1.179952,0.89105 -1.62006,1.30483 -0.254661,0.23943 -0.486709,0.46396 -0.719852,0.81958 -0.233143,0.35564 -0.950253,1.03947 0.178801,2.22519 1.052266,1.10503 2.897791,1.24327 3.857131,1.21956 0.95934,-0.0237 1.68141,-0.15524 2.44068,-0.3116 1.51858,-0.31272 3.09349,-0.78054 4.65191,-1.28158 3.11679,-1.00205 6.15041,-2.17565 6.38824,-2.26653 4.4193,-1.6889 8.77819,-3.50046 13.08034,-5.38881 -0.75888,0.5842 -1.63442,1.19085 -2.39417,1.75596 0.2452,-0.18237 -0.44375,0.29126 -1.06712,0.7214 -0.62338,0.43013 -1.40377,0.98713 -2.16576,1.60662 -0.76203,0.61948 -1.50845,1.28151 -2.08566,2.06809 -0.57723,0.78659 -1.35117,1.98516 -0.0548,3.34657 0.54214,0.56933 1.55955,0.96747 2.33991,1.09347 0.78033,0.12599 1.35818,0.0896 1.83245,0.0419 0.94852,-0.0953 1.59546,-0.27876 2.27841,-0.48317 1.3659,-0.40883 2.75075,-0.96528 4.12533,-1.55133 0.36295,-0.15474 0.63193,-0.28838 0.9834,-0.4439 -0.13301,0.22649 -0.27422,0.4569 -0.3023,0.83716 -0.0343,0.46138 0.17678,1.20291 0.98133,1.75855 0.93933,0.64881 2.26594,0.78558 3.02152,0.76171 0.7556,-0.0239 1.23165,-0.13335 1.67277,-0.24237 0.88227,-0.218 1.60892,-0.49419 2.44326,-0.83612 1.66865,-0.68385 3.64079,-1.64008 5.85494,-2.76624 0.73836,-0.37554 1.58611,-0.85142 2.36575,-1.25832 -0.0862,0.18873 -0.16452,0.40736 -0.077,0.89348 0.10391,0.5802 1.1487,1.5544 2.24069,1.80248 0.72656,0.16506 0.99655,0.0762 1.35961,0.0377 -1.4514,0.87235 -2.96836,1.75657 -3.74034,2.36007 l 5.30613,2.74505 c 0.17576,-0.13747 2.193,-1.43272 4.60489,-2.87321 2.41192,-1.44049 5.41075,-3.19889 8.32766,-4.91702 2.9169,-1.71814 5.74832,-3.39334 7.8636,-4.70203 1.05764,-0.65434 1.92847,-1.21141 2.59467,-1.67484 0.3331,-0.23172 0.60878,-0.42854 0.89504,-0.67851 0.14314,-0.12499 0.29307,-0.25317 0.48576,-0.51108 0.19272,-0.2579 0.90155,-0.73522 0.0682,-1.92495 -0.71378,-1.01908 -2.63004,-1.80315 -4.18476,-1.8991 -1.52078,-0.0939 -2.72217,0.15044 -3.89278,0.44441 0.1343,-0.17662 0.33272,-0.29894 0.44958,-0.53588 0.17612,-0.35705 0.64683,-1.00462 -0.33331,-2.01952 -0.49009,-0.50745 -1.4363,-0.88741 -2.15594,-1.002 -0.71964,-0.11459 -1.2194,-0.0723 -1.59112,-0.0305 -0.16599,0.0189 -0.14067,0.0585 -0.28009,0.0796 0.0455,-0.0265 0.1123,-0.0663 0.15762,-0.0925 3.63797,-2.1066 6.57889,-3.74235 6.98458,-3.94756 -0.21215,0.10732 -0.0191,0.009 0.0362,-0.0181 0.0545,-0.0265 0.13424,-0.0649 0.23357,-0.11317 0.19887,-0.0965 0.47906,-0.23197 0.81288,-0.39429 0.66765,-0.32462 1.54855,-0.75584 2.42827,-1.18804 0.87971,-0.4322 1.75535,-0.86419 2.42724,-1.2051 0.33594,-0.17047 0.61511,-0.31583 0.8537,-0.44493 0.1192,-0.0645 0.21996,-0.11754 0.37258,-0.21136 0.0763,-0.0469 0.15548,-0.0891 0.34779,-0.24133 0.0962,-0.0761 0.2269,-0.15651 0.44648,-0.45165 0.0549,-0.0738 0.11672,-0.16393 0.17622,-0.28422 0.0597,-0.12027 0.14657,-0.47497 0.14676,-0.47542 5e-5,-4.6e-4 -0.10575,-0.76601 -0.10594,-0.76637 -1.5e-4,-4.6e-4 -0.77891,-0.89735 -0.77928,-0.89762 -1.34725,-0.93054 -2.70007,-0.72025 -3.19308,-0.66094 -0.49302,0.0593 -0.69312,0.12572 -0.87541,0.17725 -0.36456,0.10305 -0.56568,0.18268 -0.79633,0.27286 -0.46131,0.18034 -0.95251,0.39695 -1.56063,0.67334 -1.21623,0.5528 -2.8448,1.33295 -4.78833,2.28307 -3.88709,1.9002 -9.00977,4.47047 -14.21051,7.09982 -5.20071,2.62935 -10.47622,5.31627 -14.6451,7.43314 -2.04825,1.04006 -2.48792,1.24957 -3.8778,1.94768 1.69525,-1.28277 3.39084,-2.66722 5.17695,-3.8039 2.72335,-1.73312 11.69854,-6.04337 20.0334,-10.24744 4.16743,-2.10204 8.23048,-4.21698 11.49697,-6.13347 3.26653,-1.91648 5.76189,-3.36189 6.97425,-5.37952 0.0938,-0.15601 0.20351,-0.34569 0.2527,-0.67489 0.049,-0.32919 0.044,-0.89527 -0.59686,-1.49035 -0.64099,-0.59508 -1.82565,-0.90341 -2.53059,-0.94671 -0.70494,-0.0433 -1.09853,0.0317 -1.39268,0.0858 -1.17663,0.21635 -1.33483,0.38812 -1.73323,0.56121 -0.79683,0.34614 -1.62724,0.76524 -1.79576,0.83974 -6.10685,2.70015 -3.64853,1.55099 -10.86032,5.12578 -15.4279,7.64739 -31.33634,15.83861 -47.7268,22.28701 2.3,-1.44029 5.2356,-3.29014 5.50561,-3.4494 15.54097,-9.16638 34.28526,-16.42292 51.69503,-24.82742 1.51024,-0.72906 5.67676,-2.10599 9.61389,-3.62614 2.7163,-1.04878 5.50829,-2.09827 7.53907,-3.57962 v -5.66322 c -0.25608,-0.0566 -0.50004,-0.0946 -0.70952,-0.10956 -0.76211,-0.0544 -1.23518,0.0224 -1.6216,0.0894 -1.54565,0.26773 -2.27546,0.64969 -3.32693,1.08986 -2.10298,0.88034 -4.62756,2.08841 -5.56555,2.44688 -7.99864,3.05678 -14.747,6.99615 -21.67517,10.21591 -18.22042,8.46764 -36.21889,17.2314 -54.93411,24.99227 3.71306,-2.35319 7.43332,-4.63507 11.45408,-6.69158 24.39006,-12.4747 52.08644,-23.49577 76.3788,-36.78483 v -6.42545 c -0.43142,0.18689 -0.87556,0.37923 -1.25677,0.55346 -0.25413,0.11615 -0.47885,0.22178 -0.69505,0.32969 -0.10832,0.054 -0.21227,0.1052 -0.34933,0.18294 -0.0385,0.0218 -0.18216,0.16125 -0.22479,0.17518 -1.28334,0.57968 -1.36974,0.63584 -3.91243,1.7601 -2.10192,0.92936 -4.14847,1.87178 -6.23114,2.80964 -0.20711,-0.3581 -0.31658,-0.74279 -0.76998,-0.9865 -1.43271,-0.77009 -2.3784,-0.53827 -2.8422,-0.49506 -0.4638,0.0432 -0.71349,0.10097 -0.95447,0.15607 -1.92763,0.44079 -3.75759,1.20729 -6.41614,2.23707 -5.31708,2.05954 -12.34795,4.98524 -12.76976,5.15369 -9.48927,3.7896 -18.8443,7.70062 -28.17761,11.62978 6.55934,-2.98765 13.14531,-5.99128 19.59673,-8.9178 0.0501,-0.0227 0.74463,-0.32941 0.85215,-0.37776 2.16444,-0.776 4.32813,-1.54515 6.7231,-2.44274 3.41606,-1.2803 6.73817,-2.57684 9.18445,-3.67006 1.22312,-0.54661 2.20308,-1.01051 3.0515,-1.55856 0.42421,-0.27403 0.86885,-0.51233 1.28416,-1.19528 0.20757,-0.34146 0.41722,-0.88153 0.13901,-1.52755 -0.27813,-0.64601 -1.11217,-1.19337 -1.78129,-1.42628 -1.22215,-0.4254 -1.84378,-0.27531 -2.20503,-0.23874 -0.36126,0.0366 -0.53761,0.0789 -0.68523,0.11265 -0.29523,0.0676 -0.44242,0.11679 -0.59222,0.16537 -0.29963,0.0972 -0.55532,0.19345 -0.86092,0.31109 -0.61123,0.23526 -1.37268,0.54705 -2.2748,0.92553 -1.80426,0.75696 -4.14238,1.76925 -6.50813,2.80603 -4.19424,1.83809 -7.66083,3.39214 -9.09764,4.03799 -0.80568,0.28845 -1.81576,0.6657 -2.52439,0.91674 -1.32559,0.46963 -2.45221,0.86336 -3.26647,1.14825 -0.81424,0.28489 -0.92861,0.31252 -1.50223,0.53072 -18.34516,6.97832 -36.163047,15.06877 -53.037592,23.4704 -0.107035,0.0391 -0.211289,0.0845 -0.318326,0.12351 -0.774523,0.28153 -1.800733,0.71741 -3.318145,1.31155 -0.967539,0.37886 -2.172054,0.79918 -3.322277,1.21336 1.103429,-0.68728 1.926849,-1.2567 3.126941,-1.97507 2.873528,-1.72011 5.869977,-3.44981 8.256344,-4.81728 2.386385,-1.36749 3.976124,-2.2541 4.716507,-2.71353 1.004073,-0.62302 2.101152,-1.16637 3.118157,-1.77819 22.618121,-10.73481 44.449551,-22.09827 67.221221,-32.47553 3.29635,-1.50217 6.39731,-3.0394 9.55549,-4.5806 0.31444,-0.11978 0.3237,-0.12608 0.67437,-0.25838 1.43415,-0.54108 3.20556,-1.2143 4.95319,-1.92288 1.74766,-0.70856 3.46155,-1.44207 4.87981,-2.17507 0.70915,-0.36649 1.34282,-0.72545 1.92598,-1.15755 0.58315,-0.4321 1.34152,-0.90468 1.42265,-2.03553 0.0321,-0.44628 0.13107,-1.29942 -1.35857,-2.07378 -0.74475,-0.38718 -1.75829,-0.53209 -2.44326,-0.51469 z m -57.20116,49.55821 c -7.30594,3.38804 -14.68047,6.71039 -21.93251,10.12341 7.18242,-3.47734 14.47893,-6.85955 21.93251,-10.12341 z m -32.674495,7.79281 c -0.893884,0.38334 -1.79224,0.76515 -2.686142,1.14825 -1.861828,0.7979 -4.984208,2.42192 -8.230505,3.86126 0.09727,-0.0613 0.228521,-0.15273 0.321426,-0.21084 0.505897,-0.31642 0.941703,-0.58278 1.256771,-0.77256 0.220673,-0.13291 0.530143,-0.29896 0.545703,-0.3111 1.103789,-0.55018 2.283817,-1.06333 3.388942,-1.61437 1.824689,-0.66833 3.597796,-1.40625 5.403805,-2.10064 z"
       id="rect2150-1-3"
       inkscape:connector-curvature="0" />
    <path
       style="opacity:1;vector-effect:none;fill:#1c1c1c;fill-opacity:1;stroke:none;stroke-width:1.89778113;stroke-linecap:round;stroke-linejoin:round;stroke-miterlimit:4;stroke-dasharray:none;stroke-dashoffset:0;stroke-opacity:1;paint-order:markers fill stroke"
       d="m 52.409719,128.39369 c -0.287808,0.60637 -0.400061,1.2452 -0.411861,1.79059 -0.0077,0.35572 0.109545,0.65028 0.15658,0.97668 -0.302908,-0.1557 -0.554087,-0.3387 -0.974616,-0.44545 -0.376793,-0.0957 -0.858795,-0.19297 -1.543058,-0.031 -0.684265,0.16191 -1.525122,0.7863 -1.871205,1.47847 -0.497583,0.99516 -0.581474,1.96819 -0.468704,2.90059 -0.776256,-0.69993 -1.782207,-1.60058 -2.802929,-2.4846 -1.031291,-0.89317 -2.060583,-1.76021 -2.911968,-2.41225 -0.425693,-0.32602 -0.782724,-0.59016 -1.21078,-0.83768 -0.214027,-0.12376 -0.395516,-0.26075 -0.935858,-0.39274 -0.270174,-0.066 -0.671666,-0.18357 -1.384414,0.0274 -0.712748,0.211 -1.575699,1.11914 -1.753896,1.83193 -0.331735,1.32694 -0.01415,2.3222 0.345715,3.30264 0.359865,0.98044 0.869825,1.95961 1.486215,2.9962 1.232775,2.07318 2.899338,4.3552 4.648292,6.59391 1.102522,1.41125 1.529593,1.8393 2.609662,3.13676 -0.620305,-0.59393 -1.283742,-1.17264 -1.888775,-1.77767 -0.856581,-0.85658 -1.916515,-1.62614 -2.771408,-2.32182 -0.0074,-0.0797 0.02455,-0.0683 0.01137,-0.15865 -0.06471,-0.44326 -0.284576,-1.13201 -0.874882,-1.66966 -0.590304,-0.53765 -1.376776,-0.71675 -1.89239,-0.71675 -0.548018,0 -1.548681,-0.0836 -2.447396,1.15031 -0.44936,0.61695 -0.560231,1.44675 -0.486275,1.96887 0.07396,0.52211 0.237448,0.83347 0.376722,1.07797 0.02994,0.0526 0.05675,0.0468 0.0863,0.0956 -0.0077,0.31354 -0.07463,0.52872 0.03101,1.00407 0.777418,3.49839 3.301918,6.19957 4.494297,7.98814 0.624695,0.93704 1.306314,1.83475 1.943034,2.76366 -0.538392,-0.42251 -1.042905,-0.81118 -1.524971,-1.1095 -0.278924,-0.17261 -0.540541,-0.32915 -0.951362,-0.48007 -0.410824,-0.15092 -1.207307,-0.63655 -2.531113,0.24598 -1.233717,0.82249 -1.347179,2.17092 -1.297077,2.86701 0.0501,0.69609 0.217485,1.21428 0.413927,1.75803 0.392888,1.08751 0.964113,2.20788 1.572514,3.31453 1.2168,2.21329 2.62699,4.35718 2.736268,4.5253 2.030757,3.12424 4.199697,6.19763 6.454902,9.22631 -0.683916,-0.52115 -1.396098,-1.12571 -2.05827,-1.64848 0.213685,0.1687 -0.342906,-0.30723 -0.848011,-0.73794 -0.505106,-0.4307 -1.158386,-0.96876 -1.882574,-1.49034 -0.724186,-0.52159 -1.495925,-1.02963 -2.406055,-1.40819 -0.910127,-0.37855 -2.294797,-0.87843 -3.814754,0.13488 -0.635627,0.42375 -1.064826,1.18372 -1.189591,1.75751 -0.124764,0.57379 -0.06936,0.99205 -0.0036,1.33429 0.131475,0.6845 0.356291,1.14515 0.605648,1.63091 0.49871,0.97153 1.166225,1.94906 1.867069,2.91765 0.185049,0.25575 0.343508,0.44405 0.529167,0.69143 -0.261255,-0.0849 -0.526725,-0.17512 -0.960665,-0.1757 -0.526519,-7.1e-4 -1.367039,0.19088 -1.980759,0.8046 -0.716629,0.71662 -0.840176,1.68858 -0.794781,2.23656 0.04539,0.54798 0.181438,0.88806 0.316259,1.20303 0.269642,0.62993 0.602141,1.14357 1.011824,1.73219 0.819365,1.17724 1.956353,2.56068 3.292822,4.11137 0.44567,0.51712 1.007954,1.1092 1.490348,1.65469 -0.217109,-0.0528 -0.467781,-0.0987 -1.019575,-0.0103 -0.658561,0.10572 -1.743522,0.91621 -1.999879,1.72289 -0.170569,0.53673 -0.06244,0.72824 -0.0098,0.99012 -1.028915,-1.0095 -2.072947,-2.06605 -2.77916,-2.5957 l -3.000333,3.99975 c 0.160859,0.12064 1.685433,1.5197 3.384804,3.19774 1.699374,1.67804 3.774869,3.76591 5.802749,5.79655 2.027878,2.03062 4.0049,4.00168 5.546948,5.47098 0.771025,0.73465 1.426858,1.33877 1.970939,1.79886 0.272039,0.23003 0.503068,0.41992 0.794782,0.61494 0.145859,0.0975 0.295264,0.19947 0.593762,0.32608 0.2985,0.1266 0.859721,0.61712 2.195216,-0.0506 1.143942,-0.57197 1.990529,-2.0053 2.062406,-3.14038 0.07031,-1.11033 -0.236315,-1.97149 -0.599445,-2.80706 0.204478,0.0885 0.348369,0.22664 0.621149,0.29921 0.411067,0.10935 1.16011,0.41759 2.292884,-0.34779 0.566386,-0.38269 0.976627,-1.08995 1.089856,-1.61902 0.113226,-0.52907 0.05293,-0.89056 -0.0041,-1.15858 -0.02548,-0.1197 -0.07024,-0.0988 -0.09767,-0.19896 0.03121,0.0318 0.07856,0.078 0.109556,0.10956 2.487851,2.5345 4.422278,4.58683 4.665864,4.87101 -0.127392,-0.14861 -0.0097,-0.0129 0.0217,0.0253 0.03143,0.0382 0.07752,0.0941 0.134876,0.16381 0.114718,0.1395 0.275725,0.33633 0.468704,0.57051 0.385961,0.46836 0.898168,1.08634 1.411801,1.70326 0.513633,0.6169 1.027332,1.23058 1.431954,1.70118 0.202311,0.2353 0.374253,0.43069 0.5271,0.59738 0.07642,0.0833 0.139542,0.15389 0.250114,0.25993 0.05529,0.053 0.105166,0.10854 0.283186,0.2403 0.08901,0.0659 0.183973,0.15654 0.52555,0.30076 0.0854,0.036 0.189669,0.0761 0.328144,0.11317 0.13848,0.0371 0.544152,0.0822 0.544671,0.0822 5.19e-4,2e-5 0.870865,-0.11717 0.871265,-0.1173 3.97e-4,-1.3e-4 1.003276,-0.61312 1.003557,-0.6134 1.027811,-1.02781 0.75538,-2.00014 0.675925,-2.35541 -0.07945,-0.35527 -0.15962,-0.49703 -0.222723,-0.62684 -0.126209,-0.25962 -0.221396,-0.40135 -0.329698,-0.5643 -0.216601,-0.32593 -0.475546,-0.67207 -0.805119,-1.09968 -0.659138,-0.85523 -1.58728,-1.99838 -2.716627,-3.36155 -2.258698,-2.72635 -5.310413,-6.31589 -8.431528,-9.95908 -3.121117,-3.64318 -6.309852,-7.33788 -8.8222,-10.25778 -1.234369,-1.4346 -1.483625,-1.74276 -2.312522,-2.71663 1.50241,1.16536 3.120506,2.32563 4.458645,3.56465 2.040294,1.88915 7.167594,8.18785 12.158429,14.02704 2.495418,2.91961 5.003414,5.76283 7.265707,8.03724 2.262291,2.27442 3.968697,4.01284 6.296774,4.78886 0.180012,0.06 0.399399,0.12977 0.775663,0.14831 0.376261,0.0185 1.020508,-0.0147 1.683102,-0.5116 0.662593,-0.49695 0.985652,-1.3741 1.018024,-1.88877 0.03237,-0.51467 -0.06255,-0.7967 -0.131257,-1.00769 -0.274847,-0.84398 -0.474811,-0.94985 -0.681612,-1.23042 -0.413602,-0.56114 -0.910995,-1.14282 -0.99994,-1.26142 -3.223604,-4.29814 -1.854655,-2.57175 -6.101437,-7.62744 -9.08495,-10.81542 -18.801059,-21.95161 -26.543082,-33.52922 1.69645,1.59671 3.874836,3.63455 4.062802,3.82251 10.818386,10.81838 19.537748,24.06446 29.533079,36.28098 0.867064,1.05974 2.536172,4.01653 4.363043,6.79907 0.388337,0.59149 0.779783,1.18582 1.182357,1.7694 h 8.760187 c -0.183285,-0.27284 -0.37624,-0.53413 -0.584978,-0.82785 -1.0537,-1.4827 -2.490763,-3.255 -2.921783,-3.91811 -3.675523,-5.65464 -8.326625,-10.3548 -12.162049,-15.22284 -10.08679,-12.80246 -20.505801,-25.4276 -29.799213,-38.62659 2.770626,2.57623 5.460817,5.16089 7.900807,7.97626 13.941248,16.08606 26.483286,34.37215 41.035221,50.61913 h 7.886342 c -0.29102,-0.37627 -0.64454,-0.83803 -1.42369,-1.87689 -1.10952,-1.47937 -2.23298,-2.91773 -3.35173,-4.38267 0.40304,-0.16921 0.8386,-0.26906 1.10536,-0.61134 0.84293,-1.08157 0.5565,-1.75698 0.49609,-2.09186 -0.0604,-0.33487 -0.13244,-0.51347 -0.20102,-0.68574 -0.54866,-1.37818 -1.46584,-2.66776 -2.703192,-4.5465 -2.474688,-3.75747 -5.977387,-8.71611 -6.179468,-9.01392 -4.546383,-6.69993 -9.228257,-13.29546 -13.9299,-19.87475 3.562075,4.61205 7.14312,9.24222 10.632943,13.779 0.02705,0.0352 0.393448,0.52435 0.451136,0.59997 0.936278,1.53281 1.865164,3.06534 2.945555,4.7594 1.541029,2.41632 3.097795,4.76322 4.402315,6.48435 0.652262,0.86056 1.204627,1.54872 1.849501,2.13682 0.322435,0.29405 0.604523,0.60501 1.39268,0.87127 0.39407,0.13313 1.01472,0.25702 1.74408,0.0212 0.72936,-0.23585 1.33256,-0.87039 1.58182,-1.36891 0.45526,-0.91052 0.26948,-1.35473 0.21911,-1.61541 -0.0504,-0.26068 -0.10266,-0.38642 -0.1447,-0.49196 -0.0841,-0.21107 -0.14413,-0.31532 -0.20309,-0.42168 -0.11792,-0.21273 -0.23378,-0.39377 -0.37517,-0.60978 -0.28277,-0.43201 -0.65653,-0.96907 -1.10949,-1.60507 -0.90593,-1.27199 -2.11502,-2.91866 -3.353287,-4.58422 -2.195335,-2.95284 -4.049897,-5.39148 -4.820377,-6.40219 -0.348062,-0.57058 -0.802249,-1.2855 -1.105361,-1.78749 -0.56701,-0.93906 -1.042786,-1.73706 -1.386993,-2.31407 -0.34421,-0.577 -0.377838,-0.65895 -0.640273,-1.06453 -8.392872,-12.9708 -18.040313,-25.50034 -28.019478,-37.32795 -0.04704,-0.0757 -0.101912,-0.14902 -0.148828,-0.2248 -0.339416,-0.54829 -0.860549,-1.27205 -1.574062,-2.34404 -0.454964,-0.68353 -0.963348,-1.53681 -1.462961,-2.35128 0.809665,0.76622 1.479061,1.33505 2.326474,2.16989 2.029084,1.99902 4.071937,4.08675 5.687507,5.75004 1.615569,1.6633 2.663679,2.77292 3.204972,3.28714 0.734049,0.69735 1.379566,1.46617 2.101164,2.17351 12.775907,15.88085 26.249207,31.15708 38.621413,47.16818 1.79096,2.31771 3.61717,4.49184 5.44928,6.70709 0.14404,0.2223 0.15138,0.22845 0.31058,0.47645 0.65103,1.01423 1.46101,2.26667 2.31045,3.50005 0.84943,1.23338 1.72639,2.4407 2.59571,3.43338 0.43466,0.49634 0.85892,0.93862 1.36529,1.33997 0.50638,0.40135 1.06293,0.92759 2.35335,0.92759 0.50927,0 1.48367,0.0276 2.33009,-1.09554 0.4232,-0.56154 0.56392,-1.30547 0.52761,-1.80248 -0.0363,-0.49699 -0.17017,-0.81253 -0.28525,-1.05316 -0.46028,-0.96251 -0.85085,-1.20064 -1.27383,-1.61282 -0.84596,-0.82435 -1.91699,-1.80455 -1.97817,-1.88102 -1.41987,-1.77484 -2.80417,-3.48206 -4.2323,-5.20899 -0.34394,-0.54055 -0.70407,-1.12426 -0.98289,-1.49603 C 106.47034,180.59581 93.188321,162.23803 76.756037,146.05928 73.066213,141.47284 69.4184,136.86372 65.915873,132.16297 l -1.66605,1.2423 c -1.634159,-1.58337 -3.292091,-3.18594 -4.651912,-4.3341 -0.287552,-0.2428 -0.56007,-0.46479 -0.826823,-0.67748 z m 2.910417,11.54658 c 0.07223,0.0676 0.179607,0.15822 0.248047,0.22272 0.372713,0.35123 0.686718,0.6537 0.910539,0.87282 0.157695,0.15439 0.35651,0.37326 0.368454,0.38137 0.653259,0.77345 1.265994,1.60432 1.920295,2.37867 0.805437,1.29148 1.688687,2.54183 2.523361,3.81837 -0.458301,-0.62975 -0.915012,-1.26312 -1.373042,-1.89291 -0.953961,-1.3117 -2.879495,-3.49644 -4.597654,-5.78104 z m 3.57446,15.6037 c 4.13504,5.03943 8.163983,10.1664 12.062311,15.41404 -4.036271,-5.13384 -7.998875,-10.32065 -12.062311,-15.41404 z"
       id="rect2150-1-3-9"
       inkscape:connector-curvature="0" />
    <path
       style="opacity:1;vector-effect:none;fill:#a7683f;fill-opacity:1;stroke:none;stroke-width:7.17271614;stroke-linecap:round;stroke-linejoin:round;stroke-miterlimit:4;stroke-dasharray:none;stroke-dashoffset:0;stroke-opacity:1;paint-order:markers fill stroke"
       d="m 84.25,360.91211 c -7.084662,0 -12.789062,6.07506 -12.789062,13.62109 v 459.45313 c 0,7.54603 5.7044,13.62109 12.789062,13.62109 h 625.20117 c 7.08466,0 12.78711,-6.07506 12.78711,-13.62109 V 374.5332 c 0,-7.54603 -5.70245,-13.62109 -12.78711,-13.62109 z m 32.46484,36.94336 h 560.27149 c 4.03131,0 7.27539,3.16178 7.27539,7.08984 v 398.62891 c 0,3.92806 -3.24408,7.08984 -7.27539,7.08984 H 116.71484 c -4.03131,0 -7.27734,-3.16178 -7.27734,-7.08984 V 404.94531 c 0,-3.92806 3.24603,-7.08984 7.27734,-7.08984 z"
       id="rect2150"
       transform="scale(0.26458333)"
       inkscape:connector-curvature="0"
       sodipodi:nodetypes="ssssssssssssssssss" />
    <path
       style="opacity:1;vector-effect:none;fill:#8d5d3d;fill-opacity:1;stroke:none;stroke-width:1.89778113;stroke-linecap:round;stroke-linejoin:round;stroke-miterlimit:4;stroke-dasharray:none;stroke-dashoffset:0;stroke-opacity:1;paint-order:markers fill stroke"
       d="m 187.91956,224.34272 c -29.01801,-3.61335 -119.762505,-1.50379 -163.16215,-1.50379 -1.87448,0 -3.38325,-1.60735 -3.38325,-3.60391 l -2.34979,-118.82395 -0.10527,5.98029 -0.0665,114.4139 c -10e-4,1.99656 1.50878,3.60467 3.38326,3.60392 z"
       id="path2912-0"
       inkscape:connector-curvature="0"
       sodipodi:nodetypes="cccccssc" />
    <path
       style="opacity:1;vector-effect:none;fill:#916549;fill-opacity:1;stroke:none;stroke-width:1.89778113;stroke-linecap:round;stroke-linejoin:round;stroke-miterlimit:4;stroke-dasharray:none;stroke-dashoffset:0;stroke-opacity:1;paint-order:markers fill stroke"
       d="m 22.130094,95.576019 c 29.018018,3.613348 119.762496,1.503786 163.162136,1.503786 1.87448,0 3.38325,1.607359 3.38325,3.603915 l 2.34979,118.82395 0.10527,-5.98029 0.0665,-114.413904 c 0.001,-1.996553 -1.50878,-3.604668 -3.38326,-3.603916 z"
       id="path2912"
       inkscape:connector-curvature="0"
       sodipodi:nodetypes="cccccssc" />
    <path
       style="opacity:1;vector-effect:none;fill:#c08158;fill-opacity:1;stroke:none;stroke-width:7.17271614;stroke-linecap:round;stroke-linejoin:round;stroke-miterlimit:4;stroke-dasharray:none;stroke-dashoffset:0;stroke-opacity:1;paint-order:markers fill stroke"
       d="m 115.73668,397.75231 c -1.24434,0.003 -2.25798,0.55618 -3.04284,1.23607 176.45823,4.74061 376.50757,2.0813 560.73975,2.77529 4.03129,0 7.27539,3.16178 7.27539,7.08985 l 2.67831,398.2664 c 0.97996,-1.20586 1.51477,-3.17624 1.51949,-4.84199 l 1.13033,-398.75449 c 0.0111,-3.92805 -3.24412,-7.09929 -7.27539,-7.08985 z"
       transform="scale(0.26458333)"
       id="rect2150-5"
       inkscape:connector-curvature="0"
       sodipodi:nodetypes="sccccssss" />
    <path
       style="opacity:1;vector-effect:none;fill:#3d3129;fill-opacity:1;stroke:none;stroke-width:1.89778113;stroke-linecap:round;stroke-linejoin:round;stroke-miterlimit:4;stroke-dasharray:none;stroke-dashoffset:0;stroke-opacity:1;paint-order:markers fill stroke"
       d="m 179.19924,214.50286 c 0.32923,-6.7e-4 0.89113,-0.19414 1.09879,-0.37403 -46.6879,-1.25429 -99.382657,-0.55068 -148.127414,-0.7343 -1.06661,0 -1.92495,-0.83655 -1.92495,-1.87585 L 29.21982,106.19102 c -0.25928,0.31905 -0.4375,0.65241 -0.437277,1.09313 l 0.05339,105.64478 c 5.25e-4,1.0393 0.858339,1.87802 1.92494,1.87585 z"
       id="rect2150-5-3"
       inkscape:connector-curvature="0"
       sodipodi:nodetypes="sccccssss" />
    <path
       style="color:#000000;font-style:normal;font-variant:normal;font-weight:normal;font-stretch:normal;font-size:medium;line-height:normal;font-family:sans-serif;font-variant-ligatures:normal;font-variant-position:normal;font-variant-caps:normal;font-variant-numeric:normal;font-variant-alternates:normal;font-feature-settings:normal;text-indent:0;text-align:start;text-decoration:none;text-decoration-line:none;text-decoration-style:solid;text-decoration-color:#000000;letter-spacing:normal;word-spacing:normal;text-transform:none;writing-mode:lr-tb;direction:ltr;text-orientation:mixed;dominant-baseline:auto;baseline-shift:baseline;text-anchor:start;white-space:normal;shape-padding:0;clip-rule:nonzero;display:inline;overflow:visible;visibility:visible;opacity:1;isolation:auto;mix-blend-mode:normal;color-interpolation:sRGB;color-interpolation-filters:linearRGB;solid-color:#000000;solid-opacity:1;vector-effect:none;fill:#d8b197;fill-opacity:1;fill-rule:nonzero;stroke:none;stroke-width:7.17271614;stroke-linecap:round;stroke-linejoin:round;stroke-miterlimit:4;stroke-dasharray:none;stroke-dashoffset:0;stroke-opacity:1;paint-order:markers fill stroke;color-rendering:auto;image-rendering:auto;shape-rendering:auto;text-rendering:auto;enable-background:accumulate"
       d="m 98.08774,399.53693 c -4.828769,38.71266 3.74126,80.98069 7.98257,119.15256 l 0.9961,-0.11133 C 102.8337,480.48385 94.362813,438.46432 99.02891,400.09797 Z m 19.96419,-17.92888 c 27.98715,-0.29679 40.54991,-2.01217 68.66877,-4.53574 25.17537,0.43371 50.19942,1.78439 74.67969,4.23242 36.60158,3.66015 72.96958,11.99692 109.6875,16.55078 h 8.70508 c -39.55871,-4.20811 -78.74872,-13.59403 -118.29688,-17.54883 -21.64863,-2.16487 -43.71873,-3.47448 -65.93945,-4.05469 38.74201,-3.74067 77.40954,-9.17416 115.56055,-15.33984 l -6.31641,-4e-5 c -39.00303,6.2101 -78.51061,11.60499 -118.05469,15.15625 -11.84801,-0.20479 -23.72546,-0.22478 -35.60156,-0.0273 -16.83479,-1.32418 -90.854032,5.95127 -34.12385,5.57871 m 594.84455,-12.02996 c -29.17001,0.53827 -58.55934,3.47104 -82.46289,6.45899 -95.97018,11.99628 -199.66767,-10.30747 -296.95117,-1.42578 l 0.0879,0.99609 c 97.06823,-8.86203 200.77905,13.44413 296.98828,1.41797 22.68547,-2.83568 50.32368,-5.60371 77.99116,-6.33247 z M 699.828,382.55245 c -31.78308,3.56019 -63.89921,6.20598 -95.99011,9.12333 -24.3343,2.21222 -49.36538,4.44493 -74.60547,6.17969 h 13.91211 c 20.55292,-1.55585 40.90779,-3.3762 60.78906,-5.18359 32.16458,-2.92406 64.32547,-5.57951 96.12683,-9.14091 10.46766,43.864 0.61846,90.09036 7.05872,135.17215 5.34603,37.42194 13.33159,162.50929 8.52539,200.95899 -4.27775,34.22203 -14.36346,68.28089 -18.25012,101.63648 -1.80903,0.023 0.96527,-1.13892 -0.84753,-1.08961 -1.44385,-24.23142 0.20117,-49.16799 0.20117,-73.48632 0,-61.93149 -2.8418,-208.86158 -2.8418,-270.7168 v -69.62695 l -1.00586,0.002 v 69.625 c 0,61.88583 2.8418,208.81588 2.8418,270.7168 0,24.2619 -1.64188,49.21036 -0.19531,73.51757 -35.21002,1.04659 -71.02664,6.7739 -104.49415,9.81641 -150.73059,17.38598 -219.98361,-7.31014 -279.1247,2.99425 l 0.084,0.49023 H 315.18 c 91.33616,0 184.68584,5.81144 275.9626,-2.48643 33.52589,-3.04781 69.33665,-8.7694 104.4668,-9.81446 l 1,-0.0293 1.79284,0.076 c 3.88274,-33.28004 13.95678,-67.29368 18.23255,-101.49976 4.83344,-38.66748 -3.18729,-163.84436 -8.52735,-201.22461 -6.15074,-43.05509 2.54075,-89.13794 -6.09004,-131.82606 -0.35025,-1.73233 -0.55141,-1.59413 -0.96086,-3.31485 l -0.22657,-0.98047 m -583.54172,-1.82545 c -24.387313,0.32602 -18.908953,-0.37155 0.41016,-1.53513 v -2e-5 l 1.04492,-0.0606 c 20.52511,-1.2118 25.65125,-2.03948 46.32894,-2.11582 3.84525,-0.0142 7.68942,0.005 11.53125,0.0332 -24.66206,2.01382 -33.74573,3.39904 -58.28402,3.66661 z M 82.374752,838.33491 c 1.461814,-23.12015 -0.886484,-55.85364 -0.886484,-68.87597 0,-90.41452 7.227967,-268.03756 -5.683593,-357.46875 l -0.988282,0.14844 c 12.890215,89.28333 5.675781,266.85257 5.675782,357.32031 0,13.03588 2.344095,45.74914 0.88453,68.82324 l -0.06641,1 0.998047,0.0527 m 4.072501,-8.38183 0.998047,0.0527 c 34.86076,1.69384 69.45698,1.70839 100.23243,-1.36914 43.77816,-4.37783 88.49915,-4.49376 132.1582,-9.95117 23.23768,-2.90468 47.58047,-7.10157 70.98438,-7.10157 58.4807,0 118.03749,-0.58264 176.14648,4.25977 28.65974,2.38836 57.97804,2.84961 86.7207,2.84961 h 31.25586 c 0.55359,0 1.77156,0.31367 2.76172,0.48828 0.49508,0.0873 0.93019,0.15951 1.35742,0.0586 0.21355,-0.0503 0.47039,-0.17649 0.60547,-0.43554 0.13493,-0.25928 0.094,-0.54222 0.008,-0.78321 -1.52871,-4.25778 -3.86962,-8.11998 -5.77344,-12.11328 l -0.59375,0.28125 c -0.0694,0.1141 -0.1353,0.23003 -0.21094,0.33985 1.89614,3.94685 4.12683,7.70327 5.58789,11.72851 -0.15798,0.0113 -0.42612,0.008 -0.8125,-0.0586 -0.90603,-0.15988 -2.06236,-0.50977 -2.92969,-0.50977 h -31.25586 c -28.73208,0 -58.0188,-0.45729 -86.63281,-2.84179 C 508.8164,811 449.22796,811.58789 390.75391,811.58789 c -23.5233,0 -47.9061,4.2087 -71.11133,7.10938 -43.57727,5.44713 -88.29127,5.55904 -132.13477,9.94335 -30.69259,3.06927 -65.22804,3.05493 -100.044919,1.36524 8.113968,-96.69719 18.807739,-284.15165 -0.296875,-379.67383 -2.688284,-13.44143 1.749083,-28.64657 0.0059,-42.59375 -0.426954,-3.41563 -2.447801,-6.40749 -4.953125,-9.22656 -2.50532,-2.81904 -5.515827,-5.48435 -8.03125,-8.2168 -1.015298,-1.10288 -1.939095,-2.21523 -2.726562,-3.34765 l -4.1e-5,-4e-5 v 1.69335 c 0.617757,0.79138 1.283693,1.56863 1.988281,2.33399 2.564946,2.78623 5.577243,5.44646 8.02539,8.20117 2.448144,2.75475 4.313695,5.58768 4.701172,8.6875 1.705935,13.64746 -2.749817,28.87289 0.0078,42.66016 19.065689,95.3284 8.396497,282.71002 0.28125,379.43164"
       transform="scale(0.26458333)"
       id="path2270"
       inkscape:connector-curvature="0"
       sodipodi:nodetypes="cccccccsccscccccccsccscccccscssccssccsscscccsccccscscccccccccccscccccccccsscccccccccssssccccccccccccscccsc" />
    <path
       style="color:#000000;font-style:normal;font-variant:normal;font-weight:normal;font-stretch:normal;font-size:medium;line-height:normal;font-family:sans-serif;font-variant-ligatures:normal;font-variant-position:normal;font-variant-caps:normal;font-variant-numeric:normal;font-variant-alternates:normal;font-feature-settings:normal;text-indent:0;text-align:start;text-decoration:none;text-decoration-line:none;text-decoration-style:solid;text-decoration-color:#000000;letter-spacing:normal;word-spacing:normal;text-transform:none;writing-mode:lr-tb;direction:ltr;text-orientation:mixed;dominant-baseline:auto;baseline-shift:baseline;text-anchor:start;white-space:normal;shape-padding:0;clip-rule:nonzero;display:inline;overflow:visible;visibility:visible;opacity:1;isolation:auto;mix-blend-mode:normal;color-interpolation:sRGB;color-interpolation-filters:linearRGB;solid-color:#000000;solid-opacity:1;vector-effect:none;fill:#4d301d;fill-opacity:1;fill-rule:nonzero;stroke:none;stroke-width:1.89778113;stroke-linecap:round;stroke-linejoin:round;stroke-miterlimit:4;stroke-dasharray:none;stroke-dashoffset:0;stroke-opacity:1;paint-order:markers fill stroke;color-rendering:auto;image-rendering:auto;shape-rendering:auto;text-rendering:auto;enable-background:accumulate"
       d="m 180.82996,213.71727 -0.21679,0.13868 c 0.002,0.004 0.007,0.007 0.01,0.0117 l -0.002,0.002 c 0.008,0.0105 0.0196,0.0188 0.0273,0.0293 0.31552,0.55045 0.81694,1.02013 1.26563,1.52929 0.009,0.0138 0.0124,0.0212 0.0215,0.0352 0.0688,0.10637 0.1834,0.22775 0.26367,0.34375 0.0114,0.0179 0.0263,0.0416 0.0371,0.0586 0.0882,0.13823 0.14575,0.22966 0.19336,0.28516 1.23647,1.44131 2.48757,2.96344 3.60156,4.46679 0.28214,0.38282 0.51292,0.76768 0.72461,1.16797 0.0763,0.14711 0.18967,0.30484 0.25,0.43555 0.0689,0.14923 0.11344,0.25951 0.15821,0.36914 -1.5e-4,0.0341 0.001,0.0471 0.002,0.0859 0.001,0.0547 0.006,0.11499 0.0352,0.17773 0.0294,0.0627 0.0945,0.12271 0.17187,0.14453 8e-5,3e-5 0.0605,0.002 0.0606,0.002 7e-5,-2e-5 0.0624,-0.0312 0.0625,-0.0312 5e-5,-5e-5 0.0293,-0.0409 0.0293,-0.041 4e-5,-8e-5 0.01,-0.0272 0.01,-0.0273 5e-5,-2.5e-4 0.002,-0.0289 0.002,-0.0293 0,-3.9e-4 4.2e-4,-0.01 0,-0.0137 -0.002,-0.0148 -0.004,-0.0221 -0.006,-0.0293 -0.004,-0.0144 -0.007,-0.0283 -0.0137,-0.0469 -0.0125,-0.0372 -0.0316,-0.0881 -0.0566,-0.15235 -0.0104,-0.0269 -0.0343,-0.0763 -0.0469,-0.10742 0.001,-0.0563 0.0116,-0.10163 -0.01,-0.16797 -0.066,-0.20521 -0.25312,-0.37163 -0.35351,-0.57226 -0.17544,-0.3497 -0.35685,-0.72058 -0.60938,-1.06641 -0.0192,-0.0262 -0.0432,-0.0519 -0.0625,-0.0781 0.49382,0.56935 1.03671,1.1152 1.4961,1.67773 0.005,0.007 0.0925,0.1307 0.19726,0.28125 0.10477,0.15055 0.23743,0.33992 0.37305,0.52539 0.13561,0.18547 0.2735,0.36585 0.39062,0.5 0.0586,0.0671 0.11134,0.12402 0.16211,0.16602 0.0254,0.021 0.0502,0.0379 0.082,0.0527 0.0318,0.0148 0.0816,0.0337 0.14258,0.008 0.0317,-0.0134 0.0613,-0.0433 0.0762,-0.0723 0.0149,-0.029 0.0172,-0.0545 0.0176,-0.0762 7.4e-4,-0.0433 -0.008,-0.0755 -0.0195,-0.10938 -0.0235,-0.0678 -0.0631,-0.14094 -0.11328,-0.22851 -0.10033,-0.17515 -0.24734,-0.39701 -0.4043,-0.62305 -0.15695,-0.22605 -0.32394,-0.457 -0.45898,-0.64453 -0.13504,-0.18753 -0.24248,-0.34162 -0.26563,-0.38086 -1.52379,-2.58346 -4.12526,-4.60421 -6.1582,-6.8711 -0.009,-0.0146 -0.0225,-0.0371 -0.0312,-0.0508 -0.04,-0.0624 -0.0736,-0.11597 -0.0996,-0.15429 -0.013,-0.0192 -0.025,-0.0335 -0.0352,-0.0469 -0.005,-0.007 -0.009,-0.0139 -0.0156,-0.0215 -0.003,-0.004 -0.008,-0.007 -0.0156,-0.0137 -0.004,-0.003 -0.0133,-0.0115 -0.0137,-0.0117 -3.5e-4,-2.4e-4 -0.0349,-0.0155 -0.0351,-0.0156 h -0.002 c -1.2e-4,-3e-5 -0.0409,-0.006 -0.041,-0.006 -2e-5,0 -0.008,0.003 -0.0117,0.004 -0.23678,-0.27674 -0.55438,-0.52064 -0.76563,-0.8086 z m 2.47852,2.99415 c 1.69191,1.63729 3.41294,3.252 4.52344,5.13476 0.0177,0.03 0.0771,0.111 0.11132,0.16016 -1.11674,-1.35946 -2.36931,-2.71328 -3.60351,-4.04102 -0.18545,-0.22228 -0.36766,-0.45002 -0.54883,-0.67187 -0.15651,-0.19166 -0.31176,-0.39111 -0.48242,-0.58203 z"
       id="path2350"
       inkscape:connector-curvature="0" />
    <path
       style="color:#000000;font-style:normal;font-variant:normal;font-weight:normal;font-stretch:normal;font-size:medium;line-height:normal;font-family:sans-serif;font-variant-ligatures:normal;font-variant-position:normal;font-variant-caps:normal;font-variant-numeric:normal;font-variant-alternates:normal;font-feature-settings:normal;text-indent:0;text-align:start;text-decoration:none;text-decoration-line:none;text-decoration-style:solid;text-decoration-color:#000000;letter-spacing:normal;word-spacing:normal;text-transform:none;writing-mode:lr-tb;direction:ltr;text-orientation:mixed;dominant-baseline:auto;baseline-shift:baseline;text-anchor:start;white-space:normal;shape-padding:0;clip-rule:nonzero;display:inline;overflow:visible;visibility:visible;opacity:1;isolation:auto;mix-blend-mode:normal;color-interpolation:sRGB;color-interpolation-filters:linearRGB;solid-color:#000000;solid-opacity:1;vector-effect:none;fill:#4d301d;fill-opacity:1;fill-rule:nonzero;stroke:none;stroke-width:1.89778113;stroke-linecap:round;stroke-linejoin:round;stroke-miterlimit:4;stroke-dasharray:none;stroke-dashoffset:0;stroke-opacity:1;paint-order:markers fill stroke;color-rendering:auto;image-rendering:auto;shape-rendering:auto;text-rendering:auto;enable-background:accumulate"
       d="m 181.05198,106.08878 0.16619,0.19649 c 0.004,-0.003 0.006,-0.008 0.0103,-0.0115 l 0.002,0.002 c 0.009,-0.009 0.016,-0.0219 0.0254,-0.0309 0.50377,-0.38571 0.90283,-0.94496 1.34802,-1.45719 0.0125,-0.0108 0.0194,-0.0151 0.032,-0.026 0.0963,-0.0823 0.20143,-0.21197 0.30576,-0.30691 0.0162,-0.0137 0.0377,-0.0316 0.0532,-0.0445 0.12532,-0.10575 0.20832,-0.17491 0.25702,-0.22946 1.26467,-1.41662 2.60752,-2.85846 3.94992,-4.16191 0.34204,-0.3304 0.69291,-0.61016 1.06161,-0.87304 0.1357,-0.0951 0.277,-0.22841 0.39856,-0.30554 0.13878,-0.0881 0.24219,-0.14684 0.34491,-0.20574 0.0338,-0.004 0.0465,-0.007 0.0849,-0.0134 0.0541,-0.008 0.11318,-0.0212 0.17149,-0.0584 0.0583,-0.0375 0.1091,-0.10994 0.12048,-0.18952 1e-5,-8e-5 -0.006,-0.0602 -0.006,-0.0603 -3e-5,-6e-5 -0.0392,-0.0577 -0.0392,-0.0578 -5e-5,-4e-5 -0.0444,-0.0236 -0.0445,-0.0236 -8e-5,-2e-5 -0.0283,-0.006 -0.0284,-0.006 -2.6e-4,-1e-5 -0.0289,0.002 -0.0293,0.002 -3.9e-4,6e-5 -0.01,9.1e-4 -0.0136,0.002 -0.0144,0.004 -0.0214,0.007 -0.0282,0.01 -0.0137,0.006 -0.0271,0.0107 -0.0447,0.0198 -0.0352,0.0173 -0.0831,0.043 -0.14351,0.0763 -0.0253,0.0139 -0.0711,0.0441 -0.10025,0.0607 -0.0559,0.006 -0.10227,0.002 -0.16516,0.0322 -0.19465,0.0926 -0.3348,0.30015 -0.52035,0.42625 -0.32336,0.22025 -0.66691,0.44922 -0.97622,0.74537 -0.0234,0.0225 -0.0457,0.0497 -0.0691,0.0723 0.49886,-0.56494 0.96793,-1.17539 1.46459,-1.7053 0.006,-0.006 0.11729,-0.10901 0.25262,-0.2328 0.13533,-0.12381 0.30545,-0.2804 0.4713,-0.43941 0.16586,-0.159 0.32636,-0.31958 0.4438,-0.45345 0.0587,-0.067 0.10817,-0.1268 0.14307,-0.18269 0.0174,-0.028 0.0309,-0.0548 0.0414,-0.0883 0.0105,-0.0335 0.0226,-0.0853 -0.011,-0.14239 -0.0175,-0.0296 -0.051,-0.055 -0.0818,-0.0659 -0.0307,-0.0109 -0.0563,-0.01 -0.0779,-0.007 -0.043,0.005 -0.0738,0.0179 -0.10583,0.0338 -0.0641,0.0323 -0.13133,0.0812 -0.21148,0.14258 -0.16029,0.12266 -0.36071,0.29778 -0.56394,0.48332 -0.20325,0.18553 -0.41003,0.38166 -0.578,0.54037 -0.16799,0.15873 -0.30648,0.28565 -0.3423,0.3138 -2.35866,1.85282 -4.01671,4.69921 -5.9941,7.01471 -0.0133,0.0109 -0.0338,0.0272 -0.0462,0.0377 -0.0565,0.0479 -0.10519,0.0883 -0.13972,0.11918 -0.0173,0.0154 -0.0299,0.0292 -0.0418,0.0411 -0.006,0.006 -0.0126,0.0108 -0.0192,0.0183 -0.004,0.004 -0.006,0.009 -0.0115,0.0173 -0.002,0.004 -0.01,0.0147 -0.01,0.0151 -1.9e-4,3.8e-4 -0.0107,0.0367 -0.0108,0.0369 l 2.7e-4,0.002 c -1e-5,1.2e-4 -5.3e-4,0.0413 -5.1e-4,0.0414 0,2e-5 0.004,0.008 0.006,0.0111 -0.24291,0.27137 -0.44255,0.6185 -0.69997,0.86606 z m 2.63916,-2.85357 c 1.39855,-1.89402 2.77086,-3.81392 4.48979,-5.1642 0.0274,-0.0215 0.0998,-0.0911 0.14399,-0.13157 -1.19942,1.2871 -2.37524,2.70808 -3.52766,4.1074 -0.19573,0.21328 -0.39731,0.42407 -0.59318,0.63305 -0.16922,0.18054 -0.34633,0.36086 -0.51294,0.55532 z"
       id="path2350-4"
       inkscape:connector-curvature="0" />
    <path
       style="color:#000000;font-style:normal;font-variant:normal;font-weight:normal;font-stretch:normal;font-size:medium;line-height:normal;font-family:sans-serif;font-variant-ligatures:normal;font-variant-position:normal;font-variant-caps:normal;font-variant-numeric:normal;font-variant-alternates:normal;font-feature-settings:normal;text-indent:0;text-align:start;text-decoration:none;text-decoration-line:none;text-decoration-style:solid;text-decoration-color:#000000;letter-spacing:normal;word-spacing:normal;text-transform:none;writing-mode:lr-tb;direction:ltr;text-orientation:mixed;dominant-baseline:auto;baseline-shift:baseline;text-anchor:start;white-space:normal;shape-padding:0;clip-rule:nonzero;display:inline;overflow:visible;visibility:visible;opacity:1;isolation:auto;mix-blend-mode:normal;color-interpolation:sRGB;color-interpolation-filters:linearRGB;solid-color:#000000;solid-opacity:1;vector-effect:none;fill:#4d301d;fill-opacity:1;fill-rule:nonzero;stroke:none;stroke-width:1.89778113;stroke-linecap:round;stroke-linejoin:round;stroke-miterlimit:4;stroke-dasharray:none;stroke-dashoffset:0;stroke-opacity:1;paint-order:markers fill stroke;color-rendering:auto;image-rendering:auto;shape-rendering:auto;text-rendering:auto;enable-background:accumulate"
       d="m 20.958984,95.828125 c -0.01249,0 -0.02584,0.0032 -0.04102,0.0078 -0.01518,0.0046 -0.04402,0.0208 -0.04492,0.02148 -8.98e-4,6.79e-4 -0.02507,0.02284 -0.0332,0.03516 -0.0081,0.01232 -0.01406,0.02445 -0.01758,0.03516 -0.01408,0.04283 -0.0073,0.06557 -0.0039,0.08594 0.0069,0.04074 0.01914,0.07307 0.03516,0.111328 0.03202,0.07652 0.0793,0.16778 0.130859,0.261719 0.05156,0.09394 0.107499,0.189878 0.152344,0.263672 0.02242,0.0369 0.04256,0.06714 0.05859,0.0918 0.008,0.01233 0.01497,0.02394 0.02148,0.0332 0.0065,0.0093 0.0071,0.01294 0.02539,0.03125 0.655144,0.655146 1.240736,1.370575 1.875,2.0625 0.07111,0.07758 0.462786,0.478405 0.77539,0.798828 0.747833,0.856248 1.498503,1.736658 2.177734,2.671868 -0.765195,-0.71493 -1.637741,-1.25051 -2.283203,-2.04492 -1.093197,-1.345469 -2.097678,-2.776496 -3.294921,-4.048823 l -0.19336,0.18164 c 1.179992,1.253993 2.182244,2.678177 3.283203,4.033203 0.818211,1.00702 1.933018,1.51918 2.728516,2.44726 0.04448,0.0519 0.113628,0.11326 0.222656,0.20703 0.109028,0.0938 0.25204,0.21322 0.416016,0.34766 0.327951,0.26888 0.742746,0.60029 1.152343,0.92578 0.409598,0.32549 0.367041,0.6902 0.670748,0.92786 0.151853,0.11883 0.278837,0.21921 0.369141,0.28906 0.04515,0.0349 0.08174,0.0625 0.107421,0.082 0.01284,0.01 0.02329,0.0176 0.03125,0.0234 0.004,0.003 0.0063,0.005 0.0098,0.008 0.0035,0.002 0.02089,0.0114 0.02148,0.0117 0.05539,0.0277 0.08209,0.0465 0.148438,0.0527 0.0083,7.7e-4 0.01745,0.003 0.0293,0.002 0.01184,-0.001 0.0418,-0.0112 0.04297,-0.0117 0.0012,-4.8e-4 0.05204,-0.0382 0.05273,-0.0391 6.95e-4,-8.2e-4 0.03102,-0.0614 0.03125,-0.0625 1.14e-4,-5.8e-4 0.002,-0.019 0.002,-0.0273 -1.3e-5,-0.008 -9.24e-4,-0.0149 -0.002,-0.0215 -0.0021,-0.0132 -0.0046,-0.0248 -0.0078,-0.0332 -0.0064,-0.0167 -0.01312,-0.0272 -0.01953,-0.0371 -0.05128,-0.0793 -0.126429,-0.14124 -0.248047,-0.24805 -0.07197,-0.0632 -0.21899,-0.17841 -0.314453,-0.25781 -0.15163,-0.15798 -0.303489,-0.31468 -0.519531,-0.53711 -0.58544,-0.60274 -0.927803,-1.45561 -1.729341,-2.27356 -0.801538,-0.81796 -1.61704,-1.64819 -2.257813,-2.302733 -0.230457,-0.235412 -0.25657,-0.265723 -0.433593,-0.447266 -0.457979,-0.524091 -0.849915,-1.083216 -1.335938,-1.638672 -0.04786,-0.0547 -0.159295,-0.217739 -0.292969,-0.416015 -0.133674,-0.198277 -0.294269,-0.436363 -0.46289,-0.667969 -0.168621,-0.231607 -0.344125,-0.455589 -0.513672,-0.626953 -0.169547,-0.171365 -0.324953,-0.308594 -0.521485,-0.308594 z m 0.269532,0.451172 c 0.02737,0.02342 0.0338,0.01396 0.0625,0.04297 0.152527,0.154163 0.323604,0.369514 0.488281,0.595703 0.09181,0.126099 0.170963,0.245003 0.255859,0.36914 -0.201461,-0.221705 -0.389799,-0.45018 -0.603515,-0.664062 0.0035,0.005 0.01007,0.01007 -0.0039,-0.0039 -0.0035,-0.0051 -0.0061,-0.01279 -0.01172,-0.02148 -0.01378,-0.0212 -0.03133,-0.05072 -0.05273,-0.08594 -0.03946,-0.06493 -0.08885,-0.149577 -0.134765,-0.232422 z M 25.929688,101.75 c 0.231445,0.23606 0.42446,0.43334 0.658203,0.67188 0.447348,0.45651 0.807053,0.82679 1.21289,1.24218 -0.09843,-0.0774 -0.21879,-0.17284 -0.30664,-0.24218 -0.175737,-0.13873 -0.324971,-0.25897 -0.433594,-0.34766 -0.05431,-0.0443 -0.09851,-0.0809 -0.128906,-0.10742 -0.0152,-0.0132 -0.02791,-0.0243 -0.03516,-0.0312 -0.296008,-0.44395 -0.65975,-0.78106 -0.966796,-1.18555 z"
       id="path2383"
       inkscape:connector-curvature="0"
       sodipodi:nodetypes="csccccccccccccccccccccccccccccccccccccccccccccccccccccccccccccccccccc" />
    <path
       style="color:#000000;font-style:normal;font-variant:normal;font-weight:normal;font-stretch:normal;font-size:medium;line-height:normal;font-family:sans-serif;font-variant-ligatures:normal;font-variant-position:normal;font-variant-caps:normal;font-variant-numeric:normal;font-variant-alternates:normal;font-feature-settings:normal;text-indent:0;text-align:start;text-decoration:none;text-decoration-line:none;text-decoration-style:solid;text-decoration-color:#000000;letter-spacing:normal;word-spacing:normal;text-transform:none;writing-mode:lr-tb;direction:ltr;text-orientation:mixed;dominant-baseline:auto;baseline-shift:baseline;text-anchor:start;white-space:normal;shape-padding:0;clip-rule:nonzero;display:inline;overflow:visible;visibility:visible;opacity:1;isolation:auto;mix-blend-mode:normal;color-interpolation:sRGB;color-interpolation-filters:linearRGB;solid-color:#000000;solid-opacity:1;vector-effect:none;fill:#4d301d;fill-opacity:1;fill-rule:nonzero;stroke:none;stroke-width:1.89778113;stroke-linecap:round;stroke-linejoin:round;stroke-miterlimit:4;stroke-dasharray:none;stroke-dashoffset:0;stroke-opacity:1;paint-order:markers fill stroke;color-rendering:auto;image-rendering:auto;shape-rendering:auto;text-rendering:auto;enable-background:accumulate"
       d="m 29.013672,213.82475 c -0.129897,-0.01 -0.237725,0.0489 -0.38086,0.13086 -0.143134,0.082 -0.309431,0.1976 -0.496093,0.33789 -0.373325,0.28058 -0.821527,0.66018 -1.263672,1.05273 -0.0919,0.0816 -0.110646,0.10961 -0.201172,0.19141 -0.347795,0.26097 -0.704168,0.5129 -1.035156,0.78906 -0.423632,0.35346 -0.679383,0.77618 -1.023438,1.15625 -0.583735,0.57351 -1.245007,1.09128 -1.839843,1.71094 -0.272189,0.28354 -0.407129,0.57646 -0.525391,0.85547 -0.03826,0.0903 -0.101143,0.17399 -0.140625,0.26172 -0.139892,0.15718 -0.261128,0.30993 -0.41211,0.46484 -0.404363,0.41488 -0.70082,0.89651 -1.132812,1.21094 -0.114822,0.0836 -0.241562,0.18072 -0.351562,0.2539 -0.08719,0.0405 -0.159083,0.0537 -0.242188,0.12305 -0.0058,0.005 -0.01323,0.0103 -0.02344,0.0234 -0.0051,0.007 -0.01742,0.0289 -0.01758,0.0293 -8e-5,1.9e-4 -0.0078,0.0272 -0.0078,0.0273 -3.1e-5,1.7e-4 -1.8e-5,0.0409 0,0.041 1.8e-5,1.4e-4 0.01361,0.0448 0.01367,0.0449 6.5e-5,1.2e-4 0.02723,0.0351 0.02734,0.0352 2.21e-4,2e-4 0.05038,0.0272 0.05078,0.0273 3.96e-4,1.1e-4 0.02217,0.005 0.0293,0.006 0.0071,4.8e-4 0.01304,2.2e-4 0.01758,0 0.03627,-0.002 0.04307,-0.007 0.05859,-0.0117 0.03105,-0.009 0.06171,-0.0212 0.08203,-0.0293 0.05666,-0.0225 0.08915,-0.0663 0.142578,-0.10156 0.134003,-0.0603 0.269263,-0.12254 0.423828,-0.21094 -0.01092,0.0267 -0.04025,0.0418 -0.04297,0.0762 -3.8e-4,0.005 -0.0022,0.009 -0.002,0.0156 2.16e-4,0.007 0.0038,0.0248 0.0039,0.0254 1.19e-4,5.7e-4 0.01151,0.0328 0.01172,0.0332 2.07e-4,4e-4 0.03486,0.0427 0.03516,0.043 2.92e-4,2.4e-4 0.05236,0.0253 0.05273,0.0254 3.71e-4,8e-5 0.04643,0.002 0.04687,0.002 4.46e-4,-6e-5 0.02878,-0.008 0.0293,-0.008 5.16e-4,-1.9e-4 0.01469,-0.005 0.01953,-0.008 0.03872,-0.0214 0.0408,-0.0323 0.05078,-0.043 0.01996,-0.0213 0.04494,-0.0449 0.0332,-0.0352 v -0.002 c 0.02678,-0.0224 0.116713,-0.0528 0.220703,-0.0801 0.10399,-0.0273 0.222295,-0.0513 0.322266,-0.13476 0.08419,-0.0702 0.132179,-0.15429 0.150391,-0.23438 0.01821,-0.0801 0.01025,-0.1484 0.0059,-0.19922 -0.0044,-0.0508 -0.0044,-0.0822 0.002,-0.10156 0.0062,-0.0188 0.018,-0.0391 0.07031,-0.0723 0.0014,-9.1e-4 4.54e-4,-0.001 0.002,-0.002 0.0086,-0.0106 0.0296,-0.0249 0.03711,-0.0352 0.0018,-0.002 0.0041,-0.005 0.0059,-0.008 0.481862,-0.32077 0.801127,-0.81843 1.158204,-1.16601 0.873485,-0.85026 1.729416,-1.73704 2.603515,-2.58789 0.808382,-0.78689 1.382553,-1.73886 2.275391,-2.375 0.325156,-0.23167 0.665809,-0.4757 1.007812,-0.61133 h 0.002 c -0.02495,0.01 -0.0076,0.003 0.0059,0 0.01344,-0.003 0.03257,-0.008 0.05273,-0.0137 0.02016,-0.005 0.04164,-0.0114 0.06836,-0.0254 0.02672,-0.014 0.08127,-0.0405 0.08789,-0.12305 v -0.002 c 0.0023,-0.029 -0.0015,-0.0763 -0.03906,-0.11524 -0.03758,-0.039 -0.08617,-0.0461 -0.113281,-0.0449 -0.05422,0.002 -0.07604,0.0178 -0.101563,0.0293 -0.05104,0.0231 -0.111076,0.0455 -0.0957,0.043 -0.131161,0.0217 -0.258536,0.10221 -0.398438,0.1582 3e-6,-6e-5 3e-6,-0.002 0,-0.002 -1.77e-4,-2e-5 -0.0056,4e-5 -0.0078,0 -0.0087,-1.9e-4 -0.0119,-2.2e-4 -0.01563,0 -0.0044,2.5e-4 -0.01079,0.002 -0.01563,0.002 0,0 -0.002,0.002 -0.002,0.002 -2.74e-4,6e-5 -0.0016,-0.002 -0.002,-0.002 -4.65e-4,-0.002 -0.0014,-0.0185 -0.002,-0.0156 -0.0053,0.0255 7.25e-4,-0.003 0.02344,-0.0293 0.02271,-0.0262 0.05732,-0.0589 0.09375,-0.0918 0.07286,-0.0659 0.153319,-0.12902 0.195312,-0.16406 0.101013,-0.0843 0.218307,-0.16091 0.308594,-0.21485 0.09029,-0.0539 0.152344,-0.084 0.152344,-0.084 z m -1.19336,1.27344 c -0.03451,0.0246 -0.07746,0.0423 -0.111328,0.0664 -0.94799,0.67544 -1.529856,1.64426 -2.30664,2.40039 -0.877979,0.85463 -1.733929,1.73948 -2.603516,2.58594 -0.04647,0.0452 -0.08851,0.0871 -0.132812,0.13477 0.0217,-0.032 0.04462,-0.0616 0.06641,-0.0937 1.200537,-0.98208 2.213677,-2.18391 3.160156,-3.35938 0.509308,-0.63253 1.202344,-1.16962 1.837891,-1.69531 0.02713,-0.0141 0.06242,-0.0268 0.08984,-0.0391 z m -6.373046,6.76172 c -1.91e-4,9.3e-4 2.08e-4,0.003 0,0.004 -0.0065,0.0285 -0.01711,0.0526 -0.06641,0.0937 -0.0073,0.006 -0.04352,0.0144 -0.05859,0.0215 0.04826,-0.0433 0.07713,-0.0774 0.125,-0.11914 z"
       id="path2401"
       inkscape:connector-curvature="0" />
    <path
       style="color:#000000;font-style:normal;font-variant:normal;font-weight:normal;font-stretch:normal;font-size:medium;line-height:normal;font-family:sans-serif;font-variant-ligatures:normal;font-variant-position:normal;font-variant-caps:normal;font-variant-numeric:normal;font-variant-alternates:normal;font-feature-settings:normal;text-indent:0;text-align:start;text-decoration:none;text-decoration-line:none;text-decoration-style:solid;text-decoration-color:#000000;letter-spacing:normal;word-spacing:normal;text-transform:none;writing-mode:lr-tb;direction:ltr;text-orientation:mixed;dominant-baseline:auto;baseline-shift:baseline;text-anchor:start;white-space:normal;shape-padding:0;clip-rule:nonzero;display:inline;overflow:visible;visibility:visible;opacity:1;isolation:auto;mix-blend-mode:normal;color-interpolation:sRGB;color-interpolation-filters:linearRGB;solid-color:#000000;solid-opacity:1;vector-effect:none;fill:#222222;fill-opacity:1;fill-rule:nonzero;stroke:none;stroke-width:1.89778113;stroke-linecap:round;stroke-linejoin:round;stroke-miterlimit:4;stroke-dasharray:none;stroke-dashoffset:0;stroke-opacity:1;paint-order:markers fill stroke;color-rendering:auto;image-rendering:auto;shape-rendering:auto;text-rendering:auto;enable-background:accumulate"
       d="m 117.19683,124.77214 c -0.26606,0.002 -0.53224,0.007 -0.7984,0.014 -5.11018,0.13413 -10.23129,1.13505 -15.09778,2.82411 -2.316773,0.80411 -4.586446,1.76413 -6.788221,2.86133 -0.674548,-0.47799 -1.48062,-0.73525 -2.307352,-0.73639 v 5.1e-4 c -2.356944,0.002 -4.201278,2.03107 -3.979087,4.37752 -3.283005,2.18837 -6.324309,4.70548 -9.026837,7.49876 -4.847431,-0.50661 -9.376378,-0.27015 -13.202811,2.02572 -2.191724,1.31503 -3.921117,3.46499 -4.416269,5.87509 -0.495155,2.41009 0.105915,4.67025 1.037145,6.64249 0.573694,1.21502 1.497899,2.31253 2.320272,3.44372 -0.585899,-0.20335 -1.140955,-0.44371 -1.732193,-0.64079 -5.102664,-1.77276 -7.675482,5.94675 -2.529562,7.58972 2.157942,0.71931 4.284239,1.49741 6.387724,2.32079 -0.04872,1.73342 0.110297,3.47371 0.71365,5.22035 0.466125,1.34936 1.275567,2.75937 2.615345,3.81837 1.339779,1.05899 3.130614,1.60559 4.840015,1.60559 2.843502,0.0989 4.87846,-2.71848 3.890719,-5.38675 0.397968,0.18828 0.795269,0.37872 1.192692,0.56896 0.05557,0.1071 0.108759,0.21438 0.166399,0.32142 4.340288,8.06054 12.154717,12.60963 20.619411,14.25184 8.46469,1.64221 17.72625,0.61306 26.20667,-2.28719 27.61231,-8.94643 74.10245,-22.88676 13.32632,-54.8101 -16.50525,-7.96838 -15.18996,-7.469 -23.43785,-7.39903 z m 0.35554,7.97574 c 6.57987,-0.007 12.91037,1.79503 18.28157,5.82342 34.93013,54.07627 7.76802,-10.47383 -33.75763,-1.20613 -0.3997,-0.33799 -0.79727,-0.67775 -1.19218,-1.02009 1.00214,-0.42781 2.01623,-0.82096 3.03961,-1.17615 4.50763,-1.56452 9.1266,-2.41626 13.62863,-2.42105 z m -24.172172,7.60161 c 0.275571,0.24751 0.549214,0.49803 0.826823,0.74259 -1.374233,0.82824 -2.696787,1.72936 -3.954796,2.69492 -0.390472,-0.10624 -0.782278,-0.21613 -1.170988,-0.31677 1.368145,-1.10959 2.805618,-2.15312 4.298961,-3.12074 z m 7.390242,6.17223 c 0.22431,0.17604 0.44948,0.35048 0.67438,0.52555 -0.14918,0.0928 -0.29708,0.18853 -0.44545,0.28319 -0.3323,-0.13427 -0.66593,-0.26707 -0.99735,-0.39998 0.25461,-0.1391 0.51035,-0.27595 0.76842,-0.40876 z m -27.889249,3.13314 c -0.731049,1.17166 -1.409276,2.37156 -2.023649,3.6003 -0.105222,0.21045 -0.213405,0.44137 -0.322461,0.68161 -0.282866,-0.43288 -0.514324,-0.83538 -0.685229,-1.19734 -0.469254,-0.99383 -0.452599,-1.52734 -0.434083,-1.61747 0.01852,-0.0901 -0.0997,-0.14554 0.695566,-0.6227 0.611751,-0.36705 1.558925,-0.66203 2.769856,-0.8444 z m 9.477457,0.50126 c 0.383895,0.0724 0.773893,0.15105 1.166855,0.23306 -2.768653,3.54823 -4.681386,7.51032 -5.34076,11.65563 -0.437761,-0.3735 -0.872855,-0.75013 -1.300178,-1.13172 -0.07692,-0.0687 -0.148543,-0.13836 -0.224793,-0.20722 0.588275,-1.954 1.162579,-3.49409 1.351857,-3.87263 1.158282,-2.31657 2.629027,-4.55657 4.347019,-6.67712 z m 9.898621,2.55954 c 0.455623,0.14272 0.910979,0.28613 1.368909,0.43511 -3.721158,3.59228 -6.636078,7.71008 -7.473963,12.39925 -0.04954,-4.51838 2.362517,-9.03875 6.105054,-12.83436 z m 10.005591,3.5202 c 5.30795,2.04129 10.32405,4.19762 14.49731,6.01358 -0.91255,1.34821 -1.99022,2.47013 -3.12746,3.24167 -1.71741,1.16514 -3.36952,1.56366 -4.96662,1.26607 -1.5971,-0.2976 -3.4432,-1.31126 -5.42964,-4.16409 -3.02408,-4.50609 -9.742323,0.17284 -6.564463,4.57182 1.972437,2.8327 4.346863,4.87464 6.903973,6.15621 -0.44185,-0.0599 -0.89802,-0.0754 -1.3317,-0.15193 -3.953877,-0.69775 -6.255247,-1.85401 -7.322555,-2.79518 -1.067305,-0.94116 -1.215866,-1.4901 -1.161685,-2.60346 0.10836,-2.22672 2.873629,-6.7824 7.19904,-10.47843 0.4221,-0.36068 0.8596,-0.71153 1.3038,-1.05626 z m 5.08858,25.73951 c 0.003,-0.10533 0.002,-0.20754 -0.002,-0.30541 37.19111,-24.30596 35.54993,1.86049 0.002,0.30541 z"
       id="path2621"
       inkscape:connector-curvature="0"
       sodipodi:nodetypes="ccccccccccsccccccccccsccccsccccscccccccccccccccccccccccccccccccccccccsccccc" />
    <path
       style="fill:none;stroke:#ffffff;stroke-width:0.465;stroke-linecap:round;stroke-linejoin:round;stroke-miterlimit:4;stroke-dasharray:none;stroke-opacity:1"
       d="m 56.888977,114.63627 c -0.750196,30.4159 1.456065,62.87741 -2.12669,93.04271"
       id="path2511"
       inkscape:connector-curvature="0"
       sodipodi:nodetypes="cc" />
    <path
       style="fill:none;stroke:#ffffff;stroke-width:0.465;stroke-linecap:round;stroke-linejoin:round;stroke-miterlimit:4;stroke-dasharray:none;stroke-opacity:1"
       d="M 38.014596,128.45975 170.93277,127.39641"
       id="path2513"
       inkscape:connector-curvature="0" />
    <path
       inkscape:connector-curvature="0"
       id="path2580"
       style="font-style:normal;font-variant:normal;font-weight:normal;font-stretch:normal;font-size:17.63888931px;line-height:1.25;font-family:DCHBasisschrift;-inkscape-font-specification:'DCHBasisschrift, Normal';font-variant-ligatures:normal;font-variant-caps:normal;font-variant-numeric:normal;font-feature-settings:normal;text-align:start;letter-spacing:0px;word-spacing:0px;writing-mode:lr-tb;text-anchor:start;fill:#ffffff;fill-opacity:1;stroke:#ffffff;stroke-width:0.40989915"
       d="m 69.642347,142.74393 -4.264259,-10.05109 c -0.04818,-0.14454 -0.192718,-0.25695 -0.353316,-0.25695 -0.160599,0 -0.305137,0.11241 -0.353317,0.25695 l -3.324385,9.9571 c -0.06423,0.19272 0.04818,0.40149 0.240898,0.46573 0.03212,0.016 0.0803,0.016 0.112419,0.016 0.160598,0 0.305137,-0.0964 0.353315,-0.2409 l 1.204488,-3.62952 3.905385,-0.13958 1.772138,3.86309 c 0.06424,0.19272 0.273018,0.28908 0.465736,0.22484 0.192718,-0.0643 0.305137,-0.27302 0.240898,-0.46574 z m -6.1272,-4.22137 1.509625,-4.54493 1.525684,4.54493 z"
       sodipodi:nodetypes="ccscccsccccccccccc" />
    <path
       inkscape:connector-curvature="0"
       id="path2582"
       style="font-style:normal;font-variant:normal;font-weight:normal;font-stretch:normal;font-size:17.63888931px;line-height:1.25;font-family:DCHBasisschrift;-inkscape-font-specification:'DCHBasisschrift, Normal';font-variant-ligatures:normal;font-variant-caps:normal;font-variant-numeric:normal;font-feature-settings:normal;text-align:start;letter-spacing:0px;word-spacing:0px;writing-mode:lr-tb;text-anchor:start;fill:#ffffff;fill-opacity:1;stroke:#ffffff;stroke-width:0.40989915"
       d="m 82.822244,137.74986 c -0.208778,-0.20877 -0.449676,-0.38543 -0.706633,-0.52997 0.256957,-0.12848 0.497855,-0.30514 0.706633,-0.51392 0.529975,-0.51391 0.819052,-1.22054 0.819052,-1.97536 0.162068,-1.57844 -1.322461,-2.27791 -2.70991,-2.29472 h -1.99142 c -0.208777,0 -0.369376,0.17666 -0.369376,0.36937 v 9.95709 c 0,0.20879 0.160599,0.36938 0.369376,0.36938 h 2.007479 c 2.328806,-0.0581 2.708884,-1.40843 2.693851,-3.42256 0,-0.73876 -0.289077,-1.44539 -0.819052,-1.95931 z m -3.512901,-4.57522 h 1.622043 c 1.670222,0 1.971157,0.5442 1.971157,1.55597 -0.112136,1.0445 -1.336447,2.65951 -1.971157,2.68382 h -1.622043 z m 1.638102,9.21834 h -1.638102 v -4.2398 h 1.638102 c 1.654163,0 1.955098,0.54422 1.955098,1.55599 0,1.02783 -0.300935,2.68381 -1.955098,2.68381 z"
       sodipodi:nodetypes="cccccssssccccsccccsccsss" />
    <path
       inkscape:connector-curvature="0"
       id="path2584"
       style="font-style:normal;font-variant:normal;font-weight:normal;font-stretch:normal;font-size:17.63888931px;line-height:1.25;font-family:DCHBasisschrift;-inkscape-font-specification:'DCHBasisschrift, Normal';font-variant-ligatures:normal;font-variant-caps:normal;font-variant-numeric:normal;font-feature-settings:normal;text-align:start;letter-spacing:0px;word-spacing:0px;writing-mode:lr-tb;text-anchor:start;fill:#ffffff;fill-opacity:1;stroke:#ffffff;stroke-width:0.40989915"
       d="m 97.927923,143.13174 c 0.610273,0 1.300846,-0.11241 2.039598,-0.35332 0.192719,-0.0642 0.289079,-0.27301 0.224839,-0.46572 -0.0642,-0.19273 -0.273018,-0.30514 -0.465736,-0.24091 -1.477505,0.4818 -2.947895,0.71558 -3.783006,0.1053 -1.381145,-0.99571 -1.525683,-3.1959 -1.525683,-4.09525 0,-1.67023 0.481794,-2.97107 1.381145,-3.758 0.883291,-0.75481 2.41792,-1.29373 4.007843,-1.05284 0.208777,0.016 0.401497,-0.11241 0.433617,-0.32119 0.0161,-0.19272 -0.11242,-0.38544 -0.321198,-0.41756 -0.899351,-0.12848 -1.734462,-0.11242 -2.473214,0.0482 -0.706633,0.16059 -1.614928,0.74769 -2.128843,1.19737 -1.076009,0.9154 -1.638103,2.40897 -1.638103,4.30403 0,0.94753 0.128479,1.84688 0.385436,2.58563 0.305137,0.93147 0.802992,1.63811 1.445385,2.10384 0.594214,0.43361 1.598868,0.36044 2.41792,0.36044 z"
       sodipodi:nodetypes="cccccsccccccscccc" />
    <path
       inkscape:connector-curvature="0"
       id="path2586"
       style="font-style:normal;font-variant:normal;font-weight:normal;font-stretch:normal;font-size:17.63888931px;line-height:1.25;font-family:DCHBasisschrift;-inkscape-font-specification:'DCHBasisschrift, Normal';font-variant-ligatures:normal;font-variant-caps:normal;font-variant-numeric:normal;font-feature-settings:normal;text-align:start;letter-spacing:0px;word-spacing:0px;writing-mode:lr-tb;text-anchor:start;fill:#ffffff;fill-opacity:1;stroke:#ffffff;stroke-width:0.40989915"
       d="m 110.70203,143.13174 c 0.78693,0 1.42933,-0.0482 2.02354,-0.14454 0.77087,-0.14453 1.41327,-0.38543 1.9593,-0.72269 0.6424,-0.40149 1.14025,-0.96358 1.47751,-1.65416 0.36937,-0.75481 0.56209,-1.71841 0.56209,-2.82653 0,-1.10813 -0.19272,-2.05566 -0.56209,-2.81048 -0.33726,-0.69057 -0.83511,-1.25266 -1.46145,-1.65415 -0.54603,-0.33726 -1.18843,-0.57816 -1.94324,-0.7227 -0.59422,-0.11241 -1.23661,-0.16059 -2.02354,-0.16059 -0.0803,0 -0.17666,0 -0.27302,0 -0.20877,0.016 -0.36937,0.17666 -0.36937,0.36937 v 9.95709 c 0,0.20878 0.1606,0.36938 0.36937,0.36938 0.0803,0 0.1606,0 0.2409,0 z m 0.12848,-9.95709 c 1.01177,0.016 2.42504,0.11242 3.46893,0.77086 1.14024,0.7227 1.68628,1.97537 1.68628,3.83831 0,1.879 -0.5621,3.13166 -1.70234,3.85436 -1.0439,0.65845 -2.4411,0.75481 -3.45287,0.75481 z" />
    <path
       inkscape:connector-curvature="0"
       id="path2588"
       style="font-style:normal;font-variant:normal;font-weight:normal;font-stretch:normal;font-size:17.63888931px;line-height:1.25;font-family:DCHBasisschrift;-inkscape-font-specification:'DCHBasisschrift, Normal';font-variant-ligatures:normal;font-variant-caps:normal;font-variant-numeric:normal;font-feature-settings:normal;text-align:start;letter-spacing:0px;word-spacing:0px;writing-mode:lr-tb;text-anchor:start;fill:#ffffff;fill-opacity:1;stroke:#ffffff;stroke-width:0.40989915"
       d="m 131.37628,142.39299 h -4.06314 v -4.61202 h 3.69376 c 0.20878,0 0.36938,-0.1606 0.36938,-0.36937 0,-0.19272 -0.1606,-0.36938 -0.36938,-0.36938 h -3.69376 v -3.86757 l 3.92356,-0.18611 c 0.20854,-0.01 0.36938,-0.1606 0.36938,-0.36938 0,-0.19271 -0.1608,-0.37841 -0.36938,-0.36937 l -4.29294,0.18611 c -0.20857,0.009 -0.36937,0.17666 -0.36937,0.36937 v 9.95709 c 0,0.20878 0.1606,0.36938 0.36937,0.36938 h 4.43252 c 0.20878,0 0.36938,-0.1606 0.36938,-0.36938 0,-0.19271 -0.1606,-0.36937 -0.36938,-0.36937 z"
       sodipodi:nodetypes="sccsssccssssssssss" />
    <path
       inkscape:connector-curvature="0"
       id="path2590"
       style="font-style:normal;font-variant:normal;font-weight:normal;font-stretch:normal;font-size:17.63888931px;line-height:1.25;font-family:DCHBasisschrift;-inkscape-font-specification:'DCHBasisschrift, Normal';font-variant-ligatures:normal;font-variant-caps:normal;font-variant-numeric:normal;font-feature-settings:normal;text-align:start;letter-spacing:0px;word-spacing:0px;writing-mode:lr-tb;text-anchor:start;fill:#ffffff;fill-opacity:1;stroke:#ffffff;stroke-width:0.40989915"
       d="m 146.39745,132.4359 h -4.43251 c -0.20878,0 -0.38263,0.17711 -0.36938,0.36937 0.23608,3.42458 -0.14258,6.69547 -0.37222,10.00362 -0.0145,0.20828 0.1606,0.36938 0.36938,0.36938 0.19271,0 0.35273,-0.16127 0.36937,-0.36938 l 0.37222,-4.6557 3.55419,-0.0465 c 0.19269,-0.003 0.36936,-0.1606 0.36936,-0.36937 0,-0.19272 -0.17667,-0.3719 -0.36936,-0.36938 l -3.55419,0.0465 v -4.23979 h 4.06313 c 0.19272,0 0.36938,-0.1606 0.36938,-0.36938 0,-0.19271 -0.17666,-0.36937 -0.36937,-0.36937 z"
       sodipodi:nodetypes="sssssscsssccsss" />
    <path
       inkscape:connector-curvature="0"
       id="path2592"
       style="font-style:normal;font-variant:normal;font-weight:normal;font-stretch:normal;font-size:17.63888931px;line-height:1.25;font-family:DCHBasisschrift;-inkscape-font-specification:'DCHBasisschrift, Normal';font-variant-ligatures:normal;font-variant-caps:normal;font-variant-numeric:normal;font-feature-settings:normal;text-align:start;letter-spacing:0px;word-spacing:0px;writing-mode:lr-tb;text-anchor:start;fill:#ffffff;fill-opacity:1;stroke:#ffffff;stroke-width:0.40989915"
       d="m 162.44141,137.69361 c -0.19272,0 -0.36938,0.17666 -0.36938,0.36938 0,2.10383 -0.22529,3.46277 -1.39766,4.08911 -0.64239,0.35331 -1.36508,0.32119 -1.94324,-0.0643 -0.46573,-0.30514 -0.83512,-0.80299 -1.05995,-1.46145 -0.27302,-0.77087 -0.36938,-1.7184 -0.27302,-2.7944 0.35332,-3.83831 2.31189,-4.5643 4.64057,-4.5643 0.19271,0 0.36937,-0.1606 0.36937,-0.36938 0,-0.19271 -0.17666,-0.36937 -0.36937,-0.36937 -0.4818,0 -1.04316,-0.0931 -2.42431,0.58145 -0.78693,0.36938 -1.42933,0.91541 -1.91112,1.58992 -0.57815,0.81906 -0.93147,1.84688 -1.04389,3.06743 -0.11242,1.18843 0,2.23232 0.30514,3.11561 0.46508,1.44319 2.45398,2.76216 3.5979,2.20638 0.61026,-0.33726 1.12418,-0.88329 1.50962,-1.62205 v 3.19591 c 0,1.17237 0.12803,1.84073 -0.51437,2.41889 -0.57816,0.52997 -1.36509,0.7548 -2.29656,0.65845 -0.20878,-0.016 -0.38543,0.12848 -0.40149,0.33726 -0.0321,0.19271 0.12848,0.38543 0.32119,0.40149 0.1606,0.016 0.3212,0.016 0.46574,0.016 0.38544,0 0.75481,-0.0482 1.09207,-0.14454 0.51391,-0.14454 0.94753,-0.38544 1.31691,-0.7227 0.80299,-0.72269 0.75526,-1.5677 0.75526,-2.96492 v -6.58452 0 -0.016 c 0,-0.19272 -0.1606,-0.36938 -0.36937,-0.36938 z"
       sodipodi:nodetypes="csccccsssccccccsccccsccsccscc" />
    <path
       inkscape:connector-curvature="0"
       id="path2541"
       style="font-style:normal;font-variant:normal;font-weight:normal;font-stretch:normal;font-size:17.63888931px;line-height:1.25;font-family:DCHBasisschrift;-inkscape-font-specification:'DCHBasisschrift, Normal';font-variant-ligatures:normal;font-variant-caps:normal;font-variant-numeric:normal;font-feature-settings:normal;text-align:start;letter-spacing:0px;word-spacing:0px;writing-mode:lr-tb;text-anchor:start;fill:#ffffff;fill-opacity:1;stroke:#ffffff;stroke-width:0.40989915"
       d="m 67.97175,152.47883 c -0.208777,0 -0.369376,0.17666 -0.369376,0.36938 l 0.0658,5.00397 -5.221005,-0.3948 v -4.60917 c 0,-0.19272 -0.176659,-0.36938 -0.369377,-0.36938 -0.208778,0 -0.369376,0.17666 -0.369376,0.36938 v 9.95709 c 0,0.20878 0.160598,0.36938 0.369376,0.36938 0.192718,0 0.369377,-0.1606 0.369377,-0.36938 v -4.60917 l 5.221005,0.3948 -0.0658,4.21437 c -0.0033,0.20875 0.160599,0.36938 0.369376,0.36938 0.192718,0 0.369377,-0.1606 0.369377,-0.36938 v -9.95709 c 0,-0.19272 -0.176659,-0.36938 -0.369377,-0.36938 z"
       sodipodi:nodetypes="ssccssssssccsssss" />
    <path
       inkscape:connector-curvature="0"
       id="path2543"
       style="font-style:normal;font-variant:normal;font-weight:normal;font-stretch:normal;font-size:17.63888931px;line-height:1.25;font-family:DCHBasisschrift;-inkscape-font-specification:'DCHBasisschrift, Normal';font-variant-ligatures:normal;font-variant-caps:normal;font-variant-numeric:normal;font-feature-settings:normal;text-align:start;letter-spacing:0px;word-spacing:0px;writing-mode:lr-tb;text-anchor:start;fill:#ffffff;fill-opacity:1;stroke:#ffffff;stroke-width:0.40989915"
       d="m 81.340912,163.17468 c 0.208777,0 0.369375,-0.1606 0.369375,-0.36938 v -9.95709 c 0,-0.19272 -0.160598,-0.36938 -0.369375,-0.36938 -0.208778,0 -0.369376,0.17666 -0.369376,0.36938 v 9.95709 c 0,0.20878 0.160598,0.36938 0.369376,0.36938 z" />
    <path
       inkscape:connector-curvature="0"
       id="path2545"
       style="font-style:normal;font-variant:normal;font-weight:normal;font-stretch:normal;font-size:17.63888931px;line-height:1.25;font-family:DCHBasisschrift;-inkscape-font-specification:'DCHBasisschrift, Normal';font-variant-ligatures:normal;font-variant-caps:normal;font-variant-numeric:normal;font-feature-settings:normal;text-align:start;letter-spacing:0px;word-spacing:0px;writing-mode:lr-tb;text-anchor:start;fill:#ffffff;fill-opacity:1;stroke:#ffffff;stroke-width:0.40989915"
       d="m 95.851218,168.53867 c 0.353316,0 0.674512,-0.0321 0.963589,-0.11242 0.433616,-0.12849 0.835112,-0.33726 1.156308,-0.62634 0.385437,-0.35332 0.674514,-0.81904 0.867231,-1.38115 0.192718,-0.56209 0.323356,-1.23738 0.289077,-1.99141 l -0.5264,-11.57914 c -0.0088,-0.19252 -0.160598,-0.36938 -0.369376,-0.36938 -0.192718,0 -0.378128,0.17686 -0.369376,0.36938 l 0.5264,11.57914 c 0.05908,1.2995 -0.321196,2.28049 -0.91541,2.82653 -0.481795,0.43362 -1.156308,0.61027 -1.991419,0.52997 -0.208778,-0.016 -0.385437,0.12848 -0.401496,0.33726 -0.03212,0.19271 0.128478,0.38544 0.321196,0.4015 0.160599,0.016 0.305137,0.016 0.449676,0.016 z"
       sodipodi:nodetypes="ccccssssscccccc" />
    <path
       inkscape:connector-curvature="0"
       id="path2547"
       style="font-style:normal;font-variant:normal;font-weight:normal;font-stretch:normal;font-size:17.63888931px;line-height:1.25;font-family:DCHBasisschrift;-inkscape-font-specification:'DCHBasisschrift, Normal';font-variant-ligatures:normal;font-variant-caps:normal;font-variant-numeric:normal;font-feature-settings:normal;text-align:start;letter-spacing:0px;word-spacing:0px;writing-mode:lr-tb;text-anchor:start;fill:#ffffff;fill-opacity:1;stroke:#ffffff;stroke-width:0.40989915"
       d="m 111.70962,157.82676 4.80812,-4.26099 c 0.14454,-0.14454 0.14454,-0.36938 0,-0.51392 -0.14453,-0.14454 -0.38543,-0.14454 -0.52997,0 l -4.79207,4.24494 v -4.44858 c 0,-0.19272 -0.1606,-0.36938 -0.36938,-0.36938 -0.20878,0 -0.37383,0.17671 -0.36938,0.36938 0.0814,3.52685 0.0463,6.97602 -0.3948,10.15449 -0.0287,0.2068 0.1606,0.36938 0.36938,0.36938 0.20878,0 0.3517,-0.16135 0.36938,-0.36938 l 0.3948,-4.64597 4.52887,4.70554 c 0.0803,0.0803 0.17666,0.11241 0.27302,0.11241 0.0964,0 0.17666,-0.0321 0.25695,-0.0964 0.14454,-0.14454 0.14454,-0.36939 0,-0.52998 z"
       sodipodi:nodetypes="cccccssssssccsccc" />
    <path
       inkscape:connector-curvature="0"
       id="path2549"
       style="font-style:normal;font-variant:normal;font-weight:normal;font-stretch:normal;font-size:17.63888931px;line-height:1.25;font-family:DCHBasisschrift;-inkscape-font-specification:'DCHBasisschrift, Normal';font-variant-ligatures:normal;font-variant-caps:normal;font-variant-numeric:normal;font-feature-settings:normal;text-align:start;letter-spacing:0px;word-spacing:0px;writing-mode:lr-tb;text-anchor:start;fill:#ffffff;fill-opacity:1;stroke:#ffffff;stroke-width:0.40989915"
       d="m 131.37627,163.17468 c 0.20879,0 0.36939,-0.1606 0.36939,-0.36938 0,-0.19271 -0.1606,-0.36937 -0.36939,-0.36937 h -4.06313 l -0.1316,-9.39032 c -0.003,-0.1927 -0.16059,-0.36938 -0.36938,-0.36938 -0.20878,0 -0.37197,0.17668 -0.36937,0.36938 l 0.1316,9.75969 c 0.003,0.20876 0.16059,0.36938 0.36937,0.36938 z"
       sodipodi:nodetypes="ssscssssss" />
    <path
       inkscape:connector-curvature="0"
       id="path2551"
       style="font-style:normal;font-variant:normal;font-weight:normal;font-stretch:normal;font-size:17.63888931px;line-height:1.25;font-family:DCHBasisschrift;-inkscape-font-specification:'DCHBasisschrift, Normal';font-variant-ligatures:normal;font-variant-caps:normal;font-variant-numeric:normal;font-feature-settings:normal;text-align:start;letter-spacing:0px;word-spacing:0px;writing-mode:lr-tb;text-anchor:start;fill:#ffffff;fill-opacity:1;stroke:#ffffff;stroke-width:0.40989915"
       d="m 149.97556,163.10889 c 0.20878,0 0.38543,-0.1606 0.38543,-0.36938 0,-0.016 -0.016,-0.0482 -0.016,-0.0803 l -3.06697,-9.8913 c -0.0321,-0.1606 -0.17666,-0.27302 -0.35331,-0.28908 -0.1606,0 -0.30514,0.11242 -0.35332,0.27302 l -2.27737,8.14435 -2.55664,-8.14435 c -0.0482,-0.1606 -0.19272,-0.27302 -0.35331,-0.27302 -0.17666,0.016 -0.3212,0.12848 -0.35332,0.28908 l -2.40898,9.9571 c -0.016,0.0321 -0.016,0.0643 -0.016,0.0803 0,0.19272 0.1606,0.38544 0.36937,0.38544 0.1606,0 0.3212,-0.12848 0.36938,-0.28908 l 2.07172,-8.57595 2.50845,7.98375 c 0.0482,0.1606 0.19272,0.27302 0.36939,0.27302 0.16059,0 0.30513,-0.11242 0.35331,-0.27302 l 2.24526,-7.98375 2.72971,8.51015 c 0.0482,0.1606 0.19272,0.27302 0.35332,0.27302 z"
       sodipodi:nodetypes="cscccccccccsscccsccccc" />
    <path
       inkscape:connector-curvature="0"
       id="path2553"
       style="font-style:normal;font-variant:normal;font-weight:normal;font-stretch:normal;font-size:17.63888931px;line-height:1.25;font-family:DCHBasisschrift;-inkscape-font-specification:'DCHBasisschrift, Normal';font-variant-ligatures:normal;font-variant-caps:normal;font-variant-numeric:normal;font-feature-settings:normal;text-align:start;letter-spacing:0px;word-spacing:0px;writing-mode:lr-tb;text-anchor:start;fill:#ffffff;fill-opacity:1;stroke:#ffffff;stroke-width:0.40989915"
       d="m 162.90682,163.17462 c 0.0321,0 0.0642,0 0.0964,-0.016 0.1606,-0.0321 0.26755,-0.17674 0.27302,-0.35332 l 0.329,-10.61509 c 0.006,-0.19263 -0.17666,-0.36938 -0.36937,-0.36938 -0.20879,0 -0.36255,0.17678 -0.36939,0.36938 l -0.329,9.26607 -5.25156,-8.78473 c -0.0803,-0.14453 -0.2409,-0.22484 -0.4015,-0.17666 -0.1606,0.0482 -0.27301,0.19272 -0.27301,0.35332 v 9.95709 c 0,0.20878 0.1606,0.36938 0.36938,0.36938 0.19271,0 0.36937,-0.1606 0.36937,-0.36938 v -8.60807 l 5.23551,8.80079 c 0.0642,0.11242 0.19271,0.17666 0.3212,0.17666 z"
       sodipodi:nodetypes="ccsssscccsssscccc" />
    <path
       inkscape:connector-curvature="0"
       id="path2555"
       style="font-style:normal;font-variant:normal;font-weight:normal;font-stretch:normal;font-size:17.63888931px;line-height:1.25;font-family:DCHBasisschrift;-inkscape-font-specification:'DCHBasisschrift, Normal';font-variant-ligatures:normal;font-variant-caps:normal;font-variant-numeric:normal;font-feature-settings:normal;text-align:start;letter-spacing:0px;word-spacing:0px;writing-mode:lr-tb;text-anchor:start;fill:#ffffff;fill-opacity:1;stroke:#ffffff;stroke-width:0.40989915"
       d="m 65.024772,183.21483 c 1.172368,0 1.771717,-0.4305 2.510468,-1.47439 0.706634,-0.97965 1.092069,-2.29655 1.092069,-3.74194 0,-1.42932 -0.385435,-2.74623 -1.092069,-3.72588 -0.738751,-1.04389 -1.3381,-1.75364 -2.510468,-1.75364 -1.172368,0 -2.232317,0.57815 -2.98713,1.62204 -0.690572,0.97965 -1.076008,2.29656 -1.076008,3.72588 0,1.44539 0.385436,2.76229 1.076008,3.74194 0.754813,1.04389 1.814762,1.60599 2.98713,1.60599 z m 0,-9.9571 c 1.188428,0 1.48264,0.85429 1.916255,1.44851 0.610273,0.85117 0.94753,2.02354 0.94753,3.29226 0,1.28479 -0.337257,2.45716 -0.94753,3.30833 -0.433615,0.59421 -0.727827,1.16924 -1.916255,1.16924 -1.188428,0 -1.9593,-0.70663 -2.376856,-1.30084 -0.610274,-0.85117 -0.947529,-2.02354 -0.947529,-3.30833 0,-1.26872 0.337255,-2.44109 0.947529,-3.29226 0.417556,-0.59422 1.188428,-1.31691 2.376856,-1.31691 z"
       sodipodi:nodetypes="scscscscsscscscscs" />
    <path
       inkscape:connector-curvature="0"
       id="path2557"
       style="font-style:normal;font-variant:normal;font-weight:normal;font-stretch:normal;font-size:17.63888931px;line-height:1.25;font-family:DCHBasisschrift;-inkscape-font-specification:'DCHBasisschrift, Normal';font-variant-ligatures:normal;font-variant-caps:normal;font-variant-numeric:normal;font-feature-settings:normal;text-align:start;letter-spacing:0px;word-spacing:0px;writing-mode:lr-tb;text-anchor:start;fill:#ffffff;fill-opacity:1;stroke:#ffffff;stroke-width:0.40989915"
       d="m 82.963182,173.07327 c -0.578154,-0.57815 -1.068206,-0.55429 -2.031796,-0.55429 h -1.991419 c -0.208778,0 -0.369377,0.17666 -0.369377,0.36937 v 9.95711 c 0,0.20877 0.160599,0.36937 0.369377,0.36937 0.192717,0 0.369376,-0.1606 0.369376,-0.36937 v -4.60918 h 1.622043 c 1.545278,-0.20176 2.830741,-1.80823 2.850847,-3.18765 0,-0.73875 -0.289077,-1.44539 -0.819051,-1.97536 z m -2.031796,4.42426 h -1.622043 v -4.2398 h 1.622043 c 1.670223,0 2.112094,0.77913 2.112094,1.7909 -0.11883,1.15624 -1.220018,2.42489 -2.112094,2.4489 z"
       sodipodi:nodetypes="ssssssscccscccscc" />
    <path
       inkscape:connector-curvature="0"
       id="path2559"
       style="font-style:normal;font-variant:normal;font-weight:normal;font-stretch:normal;font-size:17.63888931px;line-height:1.25;font-family:DCHBasisschrift;-inkscape-font-specification:'DCHBasisschrift, Normal';font-variant-ligatures:normal;font-variant-caps:normal;font-variant-numeric:normal;font-feature-settings:normal;text-align:start;letter-spacing:0px;word-spacing:0px;writing-mode:lr-tb;text-anchor:start;fill:#ffffff;fill-opacity:1;stroke:#ffffff;stroke-width:0.40989915"
       d="m 99.398054,182.36365 c 0.240897,-0.22484 0.465735,-0.46573 0.674516,-0.75481 0.70663,-0.97965 1.09206,-2.29656 1.09206,-3.74194 0,-1.42932 -0.38543,-2.74623 -1.09206,-3.72588 -0.738756,-1.04389 -1.798704,-1.62204 -2.971072,-1.62204 -2.538483,0.47574 -3.647156,3.61111 -3.668338,5.67692 0,1.44538 0.385436,2.76229 1.076009,3.74194 0.754812,1.04389 1.419961,1.27698 2.592329,1.27698 0.594214,0 1.156308,-0.14453 1.670222,-0.41755 l 1.188428,1.14025 c 0.08029,0.0643 0.176662,0.0964 0.256952,0.0964 0.0964,0 0.20879,-0.0321 0.27302,-0.11241 0.14454,-0.14454 0.14454,-0.38544 -0.016,-0.52998 z m -2.296556,0.11242 c -1.188428,0 -1.5645,-0.37763 -1.982056,-0.97185 -0.610273,-0.85117 -0.947529,-2.02353 -0.947529,-3.30832 0.05359,-1.91323 1.381613,-4.8871 2.929585,-4.93817 1.188427,0 1.943239,0.72269 2.376855,1.31691 0.610277,0.85117 0.947537,2.02353 0.947537,3.29226 0,1.28479 -0.33726,2.45715 -0.947537,3.30832 -0.160599,0.22485 -0.369376,0.46574 -0.626333,0.67451 l -0.947531,-0.89934 c -0.160598,-0.14454 -0.385435,-0.14454 -0.529974,0 -0.144538,0.1606 -0.128479,0.38543 0.01606,0.52997 l 0.802991,0.77088 c -0.305137,0.14454 -0.674513,0.22483 -1.092068,0.22483 z"
       sodipodi:nodetypes="ccsccccsccscccsccccsccccccs" />
    <path
       inkscape:connector-curvature="0"
       id="path2561"
       style="font-style:normal;font-variant:normal;font-weight:normal;font-stretch:normal;font-size:17.63888931px;line-height:1.25;font-family:DCHBasisschrift;-inkscape-font-specification:'DCHBasisschrift, Normal';font-variant-ligatures:normal;font-variant-caps:normal;font-variant-numeric:normal;font-feature-settings:normal;text-align:start;letter-spacing:0px;word-spacing:0px;writing-mode:lr-tb;text-anchor:start;fill:#ffffff;fill-opacity:1;stroke:#ffffff;stroke-width:0.40989915"
       d="m 115.18881,182.32529 -3.22067,-4.08902 h 0.77087 c 0.96359,0 1.78265,-0.30513 2.3608,-0.88328 0.51391,-0.51392 0.80299,-1.22055 0.80299,-1.97537 0.13012,-1.64373 -1.66666,-2.53918 -3.29539,-2.46384 h -2.00748 c -0.20878,0 -0.37203,0.17668 -0.36938,0.36937 l 0.1316,9.5623 c 0.003,0.20875 0.1606,0.36937 0.36938,0.36937 0.20878,0 0.36938,-0.1606 0.36938,-0.36937 v -4.44858 l 3.55793,4.44234 c 0.0642,0.0803 0.1606,0.11241 0.25696,0.11241 0.0964,0 0.19272,-0.0321 0.25695,-0.0964 0.14454,-0.14454 0.14454,-0.36938 0.016,-0.52998 z m -4.2195,-8.67276 h 1.6381 c 1.67022,0 2.55664,0.71332 2.55664,1.72509 0,0.5621 -0.20878,1.07602 -0.59422,1.46145 -0.43361,0.43361 -1.076,0.65846 -1.83082,0.65846 h -1.62204 -0.016 z"
       sodipodi:nodetypes="ccscccsssssccsccccsscsccc" />
    <path
       inkscape:connector-curvature="0"
       id="path2563"
       style="font-style:normal;font-variant:normal;font-weight:normal;font-stretch:normal;font-size:17.63888931px;line-height:1.25;font-family:DCHBasisschrift;-inkscape-font-specification:'DCHBasisschrift, Normal';font-variant-ligatures:normal;font-variant-caps:normal;font-variant-numeric:normal;font-feature-settings:normal;text-align:start;letter-spacing:0px;word-spacing:0px;writing-mode:lr-tb;text-anchor:start;fill:#ffffff;fill-opacity:1;stroke:#ffffff;stroke-width:0.40989915"
       d="m 127.92735,183.47685 c 0.20879,0 0.41756,0 0.61028,-0.016 1.02783,-0.0803 2.01217,-0.61651 2.5582,-1.09831 0.54603,-0.4818 0.83511,-1.15631 0.83511,-2.00748 0,-0.75481 -0.28908,-1.38115 -0.86723,-1.92718 -0.4818,-0.44968 -1.12419,-0.77088 -1.73446,-1.10813 -1.17237,-0.62633 -2.2002,-1.17236 -2.2002,-2.37686 0,-0.48178 0.14453,-0.8351 0.43361,-1.10812 0.85117,-0.77088 2.63069,-0.70975 3.44974,-0.6134 h 0.016 c 0.20878,0.016 0.38544,-0.12848 0.4015,-0.33725 0.016,-0.20878 -0.12849,-0.38544 -0.3212,-0.4015 h -0.0321 c -0.44968,-0.0482 -1.20449,-0.12848 -1.95929,-0.0803 -0.9636,0.0642 -1.57075,0.4528 -2.03648,0.88642 -0.46574,0.41755 -0.69058,0.96358 -0.69058,1.65416 0,0.75481 0.28908,1.38115 0.86723,1.92718 0.4818,0.44967 1.12419,0.78693 1.73446,1.10812 1.17237,0.62634 2.2002,1.17237 2.2002,2.37686 0,0.62633 -0.19272,1.10813 -0.59421,1.44539 -0.41756,0.36937 -1.25735,0.85741 -2.10853,0.92165 -0.56209,0.0482 -1.20448,0.016 -1.879,-0.0803 -0.19271,-0.016 -0.38543,0.12848 -0.41755,0.3212 -0.016,0.20877 0.11242,0.38543 0.3212,0.41756 0.48179,0.0642 0.96358,0.0964 1.41326,0.0964 z"
       sodipodi:nodetypes="ccssccsccccccccsccsccccccc" />
    <path
       inkscape:connector-curvature="0"
       id="path2565"
       style="font-style:normal;font-variant:normal;font-weight:normal;font-stretch:normal;font-size:17.63888931px;line-height:1.25;font-family:DCHBasisschrift;-inkscape-font-specification:'DCHBasisschrift, Normal';font-variant-ligatures:normal;font-variant-caps:normal;font-variant-numeric:normal;font-feature-settings:normal;text-align:start;letter-spacing:0px;word-spacing:0px;writing-mode:lr-tb;text-anchor:start;fill:#ffffff;fill-opacity:1;stroke:#ffffff;stroke-width:0.40989915"
       d="m 147.10131,172.78218 -5.89396,-0.2632 c -0.20857,-0.009 -0.36937,0.17666 -0.36937,0.36937 0,0.20878 0.16059,0.36938 0.36937,0.36938 h 2.56957 v 0.016 9.57167 c 0,0.20877 0.17666,0.36937 0.36938,0.36937 0.20877,0 0.36937,-0.1606 0.36937,-0.36937 v -9.57167 -0.016 l 2.58564,0.2632 c 0.19173,0.0195 0.36938,-0.1606 0.36938,-0.36938 0,-0.19271 -0.17685,-0.36077 -0.36938,-0.36937 z"
       sodipodi:nodetypes="ssssccsssccsss" />
    <path
       inkscape:connector-curvature="0"
       id="path2567"
       style="font-style:normal;font-variant:normal;font-weight:normal;font-stretch:normal;font-size:17.63888931px;line-height:1.25;font-family:DCHBasisschrift;-inkscape-font-specification:'DCHBasisschrift, Normal';font-variant-ligatures:normal;font-variant-caps:normal;font-variant-numeric:normal;font-feature-settings:normal;text-align:start;letter-spacing:0px;word-spacing:0px;writing-mode:lr-tb;text-anchor:start;fill:#ffffff;fill-opacity:1;stroke:#ffffff;stroke-width:0.40989915"
       d="m 162.90142,172.51898 c -0.19272,0 -0.36938,0.17666 -0.36938,0.36937 v 2.07172 c 0,4.70554 -1.25266,7.516 -3.3565,7.516 -0.59421,0 -1.02783,-0.20877 -1.33297,-0.67451 -0.30513,-0.44967 -0.43225,-1.12485 -0.46573,-1.9593 l -0.2632,-6.55911 c -0.008,-0.19256 -0.1606,-0.36937 -0.36937,-0.36937 v 0 c -0.19273,0 -0.37712,0.17681 -0.36939,0.36937 l 0.2632,6.55911 c 0.0393,0.97886 0.20879,1.78264 0.57816,2.3608 0.44967,0.67451 1.12418,1.01176 1.9593,1.01176 0.86723,0 2.10384,-0.36937 3.00319,-2.13595 0.12848,-0.25696 0.25695,-0.52998 0.35331,-0.83511 v 2.60169 c 0,0.20878 0.17666,0.36937 0.36938,0.36937 0.20877,0 0.36937,-0.16059 0.36937,-0.36937 v -9.9571 c 0,-0.19271 -0.1606,-0.36937 -0.36937,-0.36937 z"
       sodipodi:nodetypes="sssscssccsscsccsssss" />
    <path
       inkscape:connector-curvature="0"
       id="path2569"
       style="font-style:normal;font-variant:normal;font-weight:normal;font-stretch:normal;font-size:17.63888931px;line-height:1.25;font-family:DCHBasisschrift;-inkscape-font-specification:'DCHBasisschrift, Normal';font-variant-ligatures:normal;font-variant-caps:normal;font-variant-numeric:normal;font-feature-settings:normal;text-align:start;letter-spacing:0px;word-spacing:0px;writing-mode:lr-tb;text-anchor:start;fill:#ffffff;fill-opacity:1;stroke:#ffffff;stroke-width:0.40989915"
       d="m 65.032803,203.24825 c 0.144538,0 0.289077,-0.0964 0.337256,-0.24089 1.066,-3.28798 1.834974,-6.63536 3.719185,-9.7597 0.06424,-0.19272 -0.03212,-0.4015 -0.224837,-0.46574 -0.192719,-0.0803 -0.401496,0.0321 -0.465736,0.22484 -1.554542,2.36454 -2.503798,5.48568 -3.365868,8.71581 l -2.98713,-8.91321 c -0.06423,-0.19271 -0.273017,-0.30514 -0.465735,-0.22484 -0.192717,0.0642 -0.289077,0.27302 -0.224837,0.46574 l 3.324385,9.9571 c 0.04818,0.14453 0.192718,0.24089 0.353317,0.24089 z"
       sodipodi:nodetypes="scccccccccs" />
    <path
       inkscape:connector-curvature="0"
       id="path2571"
       style="font-style:normal;font-variant:normal;font-weight:normal;font-stretch:normal;font-size:17.63888931px;line-height:1.25;font-family:DCHBasisschrift;-inkscape-font-specification:'DCHBasisschrift, Normal';font-variant-ligatures:normal;font-variant-caps:normal;font-variant-numeric:normal;font-feature-settings:normal;text-align:start;letter-spacing:0px;word-spacing:0px;writing-mode:lr-tb;text-anchor:start;fill:#ffffff;fill-opacity:1;stroke:#ffffff;stroke-width:0.40989915"
       d="m 84.111345,203.24825 h 0.01606 c 0.160598,0 0.305136,-0.11241 0.353316,-0.27301 l 2.392915,-9.9571 c 0.04818,-0.20878 -0.06423,-0.40149 -0.273017,-0.44967 -0.192718,-0.0482 -0.401496,0.0803 -0.449676,0.27301 l -2.055657,8.57595 -2.721916,-7.60501 c -0.04818,-0.1606 -0.192718,-0.27302 -0.353316,-0.27302 -0.176658,0 -0.321197,0.11242 -0.353316,0.27302 l -2.063916,7.60501 -2.071718,-8.57595 c -0.04818,-0.19272 -0.240898,-0.3212 -0.449675,-0.27301 -0.192718,0.0482 -0.321197,0.24089 -0.273017,0.44967 l 2.408974,9.9571 c 0.03212,0.1606 0.176659,0.27301 0.353317,0.27301 0.160599,0.016 0.321196,-0.0964 0.369376,-0.27301 l 2.079975,-7.68531 2.737975,7.68531 c 0.04818,0.1606 0.192718,0.27301 0.353316,0.27301 z"
       sodipodi:nodetypes="ssccccccsccccccccccs" />
    <path
       inkscape:connector-curvature="0"
       id="path2573"
       style="font-style:normal;font-variant:normal;font-weight:normal;font-stretch:normal;font-size:17.63888931px;line-height:1.25;font-family:DCHBasisschrift;-inkscape-font-specification:'DCHBasisschrift, Normal';font-variant-ligatures:normal;font-variant-caps:normal;font-variant-numeric:normal;font-feature-settings:normal;text-align:start;letter-spacing:0px;word-spacing:0px;writing-mode:lr-tb;text-anchor:start;fill:#ffffff;fill-opacity:1;stroke:#ffffff;stroke-width:0.40989915"
       d="m 100.36991,202.70222 -2.842586,-4.80189 3.221326,-4.58843 c 0.11243,-0.17665 0.0482,-0.4015 -0.12848,-0.49785 -0.17665,-0.11243 -0.40149,-0.0482 -0.49785,0.12848 l -3.028611,4.23511 -2.617753,-4.43251 c -0.112419,-0.17666 -0.337257,-0.24091 -0.513914,-0.12848 -0.176658,0.0964 -0.224838,0.3212 -0.12848,0.49785 l 2.842591,4.78583 -2.842591,4.80189 c -0.09636,0.17666 -0.04818,0.40149 0.12848,0.49786 0.06423,0.0321 0.128478,0.0482 0.192717,0.0482 0.128479,0 0.240898,-0.0642 0.321197,-0.17666 l 2.617753,-4.44857 2.633814,4.44857 c 0.06419,0.11243 0.192712,0.17666 0.321197,0.17666 0.0643,0 0.12848,-0.016 0.19271,-0.0482 0.1606,-0.0964 0.22485,-0.3212 0.12848,-0.49786 z"
       sodipodi:nodetypes="ccccccccccccscccscc" />
    <path
       inkscape:connector-curvature="0"
       id="path2575"
       style="font-style:normal;font-variant:normal;font-weight:normal;font-stretch:normal;font-size:17.63888931px;line-height:1.25;font-family:DCHBasisschrift;-inkscape-font-specification:'DCHBasisschrift, Normal';font-variant-ligatures:normal;font-variant-caps:normal;font-variant-numeric:normal;font-feature-settings:normal;text-align:start;letter-spacing:0px;word-spacing:0px;writing-mode:lr-tb;text-anchor:start;fill:#ffffff;fill-opacity:1;stroke:#ffffff;stroke-width:0.40989915"
       d="m 117.13533,195.0593 v 0 -2.07171 c 0,-0.19273 -0.1606,-0.36939 -0.36938,-0.36939 -0.20877,0 -0.36937,0.17666 -0.36937,0.36939 v 2.07171 c 0,2.48927 -0.74812,4.43095 -1.40657,5.7318 -0.59422,1.14025 -1.38115,1.7184 -2.3608,1.7184 -1.49357,0 -1.81476,-1.41326 -1.81476,-2.61775 v -6.96996 c 0,-0.19273 -0.1606,-0.36939 -0.36938,-0.36939 v 0 c -0.20877,0 -0.36937,0.17666 -0.36937,0.36939 v 6.96996 c 0,0.99571 0.20877,1.7987 0.59421,2.36079 0.43362,0.65846 1.10813,0.99571 1.9593,0.99571 0.86723,0 2.10384,-0.36937 3.01925,-2.11989 0.12847,-0.25696 0.2409,-0.54603 0.35332,-0.83511 v 4.20768 c 0,1.30084 -0.5186,2.87269 -1.11282,3.41872 -0.49785,0.43362 -1.1563,0.61028 -2.00747,0.52997 -0.19273,-0.016 -0.38544,0.12848 -0.4015,0.33726 -0.016,0.19272 0.12848,0.38544 0.33725,0.4015 0.14454,0.016 0.30514,0.016 0.44968,0.016 0.33726,0 0.65846,-0.0321 0.96359,-0.11242 1.80423,-0.59943 2.48216,-2.96291 2.51002,-4.59109 l 0.3948,-9.42553 v -0.016 z"
       sodipodi:nodetypes="ccsssscsssccsscsccsccccsccccc" />
    <path
       inkscape:connector-curvature="0"
       id="path2577"
       style="font-style:normal;font-variant:normal;font-weight:normal;font-stretch:normal;font-size:17.63888931px;line-height:1.25;font-family:DCHBasisschrift;-inkscape-font-specification:'DCHBasisschrift, Normal';font-variant-ligatures:normal;font-variant-caps:normal;font-variant-numeric:normal;font-feature-settings:normal;text-align:start;letter-spacing:0px;word-spacing:0px;writing-mode:lr-tb;text-anchor:start;fill:#ffffff;fill-opacity:1;stroke:#ffffff;stroke-width:0.40989915"
       d="m 132.10697,202.5095 h -5.25156 l 5.57276,-9.395 c 0.0643,-0.11242 0.0643,-0.25696 0,-0.36937 -0.0643,-0.11242 -0.19276,-0.19588 -0.3212,-0.19273 l -5.36756,0.1316 c -0.20872,0.005 -0.36937,0.17666 -0.36937,0.36939 0,0.20877 0.16067,0.37518 0.36937,0.36937 l 4.72517,-0.1316 -5.57277,9.41106 c -0.0642,0.11242 -0.0642,0.25696 0,0.36937 0.0643,0.11243 0.19273,0.17666 0.3212,0.17666 h 5.89396 c 0.20878,0 0.36938,-0.1606 0.36938,-0.36937 0,-0.19272 -0.1606,-0.36938 -0.36938,-0.36938 z"
       sodipodi:nodetypes="scccsssscccssss" />
    <rect
       style="opacity:1;vector-effect:none;fill:none;fill-opacity:1;stroke:#ffffff;stroke-width:1;stroke-linecap:round;stroke-linejoin:round;stroke-miterlimit:4;stroke-dasharray:none;stroke-dashoffset:0;stroke-opacity:1;paint-order:markers fill stroke"
       id="rect2644"
       width="14.089326"
       height="7.9750905"
       x="38.546268"
       y="134.30815"
       rx="0"
       ry="0" />
    <path
       style="opacity:1;vector-effect:none;fill:none;fill-opacity:1;stroke:#ffffff;stroke-width:1;stroke-linecap:round;stroke-linejoin:round;stroke-miterlimit:4;stroke-dasharray:none;stroke-dashoffset:0;stroke-opacity:1;paint-order:markers fill stroke"
       d="m 39.009052,154.22469 c 4.696442,0 9.392884,0 14.089326,0 0.05102,4.01937 -1.868822,6.06549 -3.722079,7.08059 -2.561508,1.37317 -5.077377,0.98862 -7.080062,-0.37009 -1.49717,-1.05053 -2.915957,-3.0087 -3.287185,-6.7105 z"
       id="rect2644-4"
       inkscape:connector-curvature="0"
       sodipodi:nodetypes="ccccc" />
    <rect
       style="opacity:1;vector-effect:none;fill:none;fill-opacity:1;stroke:#ffffff;stroke-width:1;stroke-linecap:round;stroke-linejoin:round;stroke-miterlimit:4;stroke-dasharray:none;stroke-dashoffset:0;stroke-opacity:1;paint-order:markers fill stroke"
       id="rect2644-7"
       width="14.089326"
       height="7.9750905"
       x="38.44521"
       y="174.49442"
       rx="0"
       ry="0" />
    <path
       style="opacity:1;vector-effect:none;fill:none;fill-opacity:1;stroke:#ffffff;stroke-width:1;stroke-linecap:round;stroke-linejoin:round;stroke-miterlimit:4;stroke-dasharray:none;stroke-dashoffset:0;stroke-opacity:1;paint-order:markers fill stroke"
       d="m 45.489873,174.71204 v 7.71739"
       id="path2679"
       inkscape:connector-curvature="0"
       sodipodi:nodetypes="cc" />
    <path
       style="opacity:1;vector-effect:none;fill:none;fill-opacity:1;stroke:#ffffff;stroke-width:1;stroke-linecap:round;stroke-linejoin:round;stroke-miterlimit:4;stroke-dasharray:none;stroke-dashoffset:0;stroke-opacity:1;paint-order:markers fill stroke"
       d="m 38.445213,195.07764 h 14.089326 l -3.522331,7.97509 -3.522332,-7.9375 -3.522331,7.9375 z"
       id="rect2644-9"
       inkscape:connector-curvature="0"
       sodipodi:nodetypes="cccccc" />
    <path
       style="opacity:1;vector-effect:none;fill:none;fill-opacity:1;stroke:#ffffff;stroke-width:1;stroke-linecap:round;stroke-linejoin:round;stroke-miterlimit:4;stroke-dasharray:none;stroke-dashoffset:0;stroke-opacity:1;paint-order:markers fill stroke"
       d="m 66.553232,115.75928 c -0.05693,2.23384 -0.198351,8.38431 -0.187491,9.98044"
       id="path2699"
       inkscape:connector-curvature="0"
       sodipodi:nodetypes="cc" />
    <path
       style="opacity:1;vector-effect:none;fill:none;fill-opacity:1;stroke:#ffffff;stroke-width:1;stroke-linecap:round;stroke-linejoin:round;stroke-miterlimit:4;stroke-dasharray:none;stroke-dashoffset:0;stroke-opacity:1;paint-order:markers fill stroke"
       d="m 78.155884,115.16794 c 0.206235,2.75109 0.120933,5.59562 0.398756,8.37385 0.06188,0.61878 0.132916,2.48272 0.132916,1.86085 0,-0.26584 0,-0.53167 0,-0.79751"
       id="path2701"
       inkscape:connector-curvature="0" />
    <path
       style="opacity:1;vector-effect:none;fill:none;fill-opacity:1;stroke:#ffffff;stroke-width:1;stroke-linecap:round;stroke-linejoin:round;stroke-miterlimit:4;stroke-dasharray:none;stroke-dashoffset:0;stroke-opacity:1;paint-order:markers fill stroke"
       d="m 81.744675,115.16793 c 0,0.62029 0,1.24057 0,1.86086 0,1.90516 0,3.81032 0,5.71548 0,0.83532 -0.0305,1.70837 0.132919,2.52545 0.02748,0.13738 0.132919,0.53886 0.132919,0.39875 0,-0.26584 0,-0.53167 0,-0.79751"
       id="path2703"
       inkscape:connector-curvature="0" />
    <path
       style="opacity:1;vector-effect:none;fill:none;fill-opacity:1;stroke:#ffffff;stroke-width:1;stroke-linecap:round;stroke-linejoin:round;stroke-miterlimit:4;stroke-dasharray:none;stroke-dashoffset:0;stroke-opacity:1;paint-order:markers fill stroke"
       d="m 94.047786,114.99261 c -0.05693,2.23384 -0.198351,8.38431 -0.187491,9.98044"
       id="path2699-4"
       inkscape:connector-curvature="0"
       sodipodi:nodetypes="cc" />
    <path
       style="opacity:1;vector-effect:none;fill:none;fill-opacity:1;stroke:#ffffff;stroke-width:1;stroke-linecap:round;stroke-linejoin:round;stroke-miterlimit:4;stroke-dasharray:none;stroke-dashoffset:0;stroke-opacity:1;paint-order:markers fill stroke"
       d="m 96.654571,114.93044 c 0.206227,2.75109 0.12093,5.59562 0.398747,8.37385 0.0619,0.61878 0.13292,2.48272 0.13292,1.86085 0,-0.26584 0,-0.53167 0,-0.79751"
       id="path2701-2"
       inkscape:connector-curvature="0" />
    <path
       style="opacity:1;vector-effect:none;fill:none;fill-opacity:1;stroke:#ffffff;stroke-width:1;stroke-linecap:round;stroke-linejoin:round;stroke-miterlimit:4;stroke-dasharray:none;stroke-dashoffset:0;stroke-opacity:1;paint-order:markers fill stroke"
       d="m 100.24334,114.93043 c 0,0.62029 0,1.24057 0,1.86086 0,1.90516 0,3.81032 0,5.71548 0,0.83532 -0.0305,1.70837 0.13292,2.52545 0.0275,0.13738 0.13292,0.53886 0.13292,0.39875 0,-0.26584 0,-0.53167 0,-0.79751"
       id="path2703-1"
       inkscape:connector-curvature="0" />
    <path
       style="opacity:1;vector-effect:none;fill:none;fill-opacity:1;stroke:#ffffff;stroke-width:1;stroke-linecap:round;stroke-linejoin:round;stroke-miterlimit:4;stroke-dasharray:none;stroke-dashoffset:0;stroke-opacity:1;paint-order:markers fill stroke"
       d="m 113.86646,119.9156 4.64508,5.25859 h -9.29017 z"
       id="rect2644-40"
       inkscape:connector-curvature="0"
       sodipodi:nodetypes="cccc" />
    <path
       style="opacity:1;vector-effect:none;fill:none;fill-opacity:1;stroke:#ffffff;stroke-width:1;stroke-linecap:round;stroke-linejoin:round;stroke-miterlimit:4;stroke-dasharray:none;stroke-dashoffset:0;stroke-opacity:1;paint-order:markers fill stroke"
       d="m 130.25981,119.58329 4.64508,5.25859 h -9.29017 z"
       id="rect2644-40-0"
       inkscape:connector-curvature="0"
       sodipodi:nodetypes="cccc" />
    <path
       style="opacity:1;vector-effect:none;fill:none;fill-opacity:1;stroke:#ffffff;stroke-width:1;stroke-linecap:round;stroke-linejoin:round;stroke-miterlimit:4;stroke-dasharray:none;stroke-dashoffset:0;stroke-opacity:1;paint-order:markers fill stroke"
       d="m 144.21623,119.45038 4.64508,5.25859 h -9.29017 z"
       id="rect2644-40-03"
       inkscape:connector-curvature="0"
       sodipodi:nodetypes="cccc" />
    <path
       style="opacity:1;vector-effect:none;fill:none;fill-opacity:1;stroke:#ffffff;stroke-width:1;stroke-linecap:round;stroke-linejoin:round;stroke-miterlimit:4;stroke-dasharray:none;stroke-dashoffset:0;stroke-opacity:1;paint-order:markers fill stroke"
       d="m 160.831,118.91871 4.64508,5.25859 h -9.29017 z"
       id="rect2644-40-8"
       inkscape:connector-curvature="0"
       sodipodi:nodetypes="cccc" />
    <path
       style="opacity:1;vector-effect:none;fill:none;fill-opacity:1;stroke:#ffffff;stroke-width:1;stroke-linecap:round;stroke-linejoin:round;stroke-miterlimit:4;stroke-dasharray:none;stroke-dashoffset:0;stroke-opacity:1;paint-order:markers fill stroke"
       d="m 130.26132,114.42835 c 0,0.83532 -0.16342,4.23382 0,5.0509"
       id="path2703-6"
       inkscape:connector-curvature="0"
       sodipodi:nodetypes="cc" />
    <path
       id="path2703-6-2"
       style="opacity:1;vector-effect:none;fill:none;fill-opacity:1;stroke:#ffffff;stroke-width:1.04383111;stroke-linecap:round;stroke-linejoin:round;stroke-miterlimit:4;stroke-dasharray:none;stroke-dashoffset:0;stroke-opacity:1;paint-order:markers fill stroke"
       d="m 147.21591,114.74484 c -0.90144,1.39338 -1.8869,2.73561 -2.69072,4.18989 -0.0456,0.0872 -0.0881,0.17638 -0.1241,0.26811"
       inkscape:connector-curvature="0" />
    <path
       id="path2703-6-2-6"
       style="opacity:1;vector-effect:none;fill:none;fill-opacity:1;stroke:#ffffff;stroke-width:1.04383111;stroke-linecap:round;stroke-linejoin:round;stroke-miterlimit:4;stroke-dasharray:none;stroke-dashoffset:0;stroke-opacity:1;paint-order:markers fill stroke"
       d="m 141.4782,114.74484 c 0.90144,1.39338 1.8869,2.73561 2.69072,4.18989 0.0456,0.0872 0.0881,0.17638 0.1241,0.26811"
       inkscape:connector-curvature="0" />
    <path
       id="path2703-6-2-69"
       style="opacity:1;vector-effect:none;fill:none;fill-opacity:1;stroke:#ffffff;stroke-width:1.04383111;stroke-linecap:round;stroke-linejoin:round;stroke-miterlimit:4;stroke-dasharray:none;stroke-dashoffset:0;stroke-opacity:1;paint-order:markers fill stroke"
       d="m 163.96568,114.4007 c -0.90144,1.39338 -1.8869,2.73561 -2.69072,4.18989 -0.0456,0.0872 -0.0881,0.17638 -0.1241,0.26811"
       inkscape:connector-curvature="0" />
    <path
       id="path2703-6-2-6-8"
       style="opacity:1;vector-effect:none;fill:none;fill-opacity:1;stroke:#ffffff;stroke-width:1.04383111;stroke-linecap:round;stroke-linejoin:round;stroke-miterlimit:4;stroke-dasharray:none;stroke-dashoffset:0;stroke-opacity:1;paint-order:markers fill stroke"
       d="m 157.29754,114.53362 c 0.90144,1.39338 1.8869,2.73561 2.69072,4.18989 0.0456,0.0872 0.0881,0.17638 0.1241,0.26811"
       inkscape:connector-curvature="0" />
    <path
       style="opacity:1;vector-effect:none;fill:none;fill-opacity:1;stroke:#ffffff;stroke-width:1;stroke-linecap:round;stroke-linejoin:round;stroke-miterlimit:4;stroke-dasharray:none;stroke-dashoffset:0;stroke-opacity:1;paint-order:markers fill stroke"
       d="m 160.60343,112.77547 c 0,0.83532 -0.16342,5.29717 0,6.11425"
       id="path2703-6-9"
       inkscape:connector-curvature="0"
       sodipodi:nodetypes="cc" />
  </g>
</svg>
