<?xml version="1.0" encoding="UTF-8" standalone="no"?>
<svg
   xmlns:dc="http://purl.org/dc/elements/1.1/"
   xmlns:cc="http://creativecommons.org/ns#"
   xmlns:rdf="http://www.w3.org/1999/02/22-rdf-syntax-ns#"
   xmlns:svg="http://www.w3.org/2000/svg"
   xmlns="http://www.w3.org/2000/svg"
   xmlns:sodipodi="http://sodipodi.sourceforge.net/DTD/sodipodi-0.dtd"
   xmlns:inkscape="http://www.inkscape.org/namespaces/inkscape"
   inkscape:version="1.0 (4035a4fb49, 2020-05-01)"
   sodipodi:docname="2020-JP-01b-b.svg"
   id="svg5915"
   version="1.1"
   viewBox="0 0 29.866 32.364318"
   height="32.364319mm"
   width="29.865999mm">
  <defs
     id="defs5909" />
  <sodipodi:namedview
     fit-margin-bottom="0"
     fit-margin-right="0"
     fit-margin-left="0"
     fit-margin-top="0"
     showgrid="false"
     inkscape:document-rotation="0"
     inkscape:current-layer="layer1"
     inkscape:document-units="mm"
     inkscape:cy="560"
     inkscape:cx="400"
     inkscape:zoom="0.35"
     inkscape:pageshadow="2"
     inkscape:pageopacity="0.0"
     borderopacity="1.0"
     bordercolor="#666666"
     pagecolor="#ffffff"
     id="base" />
  <metadata
     id="metadata5912">
    <rdf:RDF>
      <cc:Work
         rdf:about="">
        <dc:format>image/svg+xml</dc:format>
        <dc:type
           rdf:resource="http://purl.org/dc/dcmitype/StillImage" />
        <dc:title></dc:title>
      </cc:Work>
    </rdf:RDF>
  </metadata>
  <g
     transform="translate(-84.002347,-196.92616)"
     id="layer1"
     inkscape:groupmode="layer"
     inkscape:label="Ebene 1">
    <g
       id="g5505"
       transform="translate(49.029565,88.690869)">
      <g
         transform="translate(8.3709732)"
         id="g6323">
        <path
           fill="#F7F8F8"
           stroke="#000000"
           stroke-width="0.529167"
           stroke-linecap="round"
           stroke-linejoin="round"
           stroke-miterlimit="10"
           d="m 28.495002,136.92266 c 0,0 0.10583,3.41313 0.42333,3.41313 0.3175,0 2.75167,-0.10584 3.09563,-0.21167 0.3175,-0.10583 0.52916,-3.09563 0.52916,-3.09563 z"
           id="path43"
           style="fill:#cccccc;stroke:none" />
        <path
           fill="#F7F8F8"
           stroke="#000000"
           stroke-width="0.529167"
           stroke-linecap="round"
           stroke-linejoin="round"
           stroke-miterlimit="10"
           d="m 55.323752,136.79037 c 0,0 -0.10584,3.41312 -0.42334,3.41312 -0.3175,0 -2.75166,-0.10583 -3.09562,-0.21166 -0.3175,-0.10584 -0.52917,-3.09563 -0.52917,-3.09563 z"
           id="path45"
           style="fill:#cccccc;stroke:none" />
        <path
           fill="#F7F8F8"
           stroke="#000000"
           stroke-width="0.529167"
           stroke-linecap="round"
           stroke-linejoin="round"
           stroke-miterlimit="10"
           d="m 27.383752,109.43245 c 0,0 28.01937,-0.42333 28.09875,-0.21167 0.3175,0.89959 1.19062,26.96105 0.39687,28.33688 -0.55562,1.00542 -27.22562,0.66146 -28.12521,0.44979 -0.899579,-0.21166 -1.269996,-28.12521 -0.37041,-28.575 z"
           id="path47"
           style="fill:#e6e6e6;stroke:none" />
        <path
           d="m 48.920826,122.97911 a 7.6464581,7.6464581 0 0 1 -7.646458,7.64646 7.6464581,7.6464581 0 0 1 -7.646458,-7.64646 7.6464581,7.6464581 0 0 1 7.646458,-7.64646 7.6464581,7.6464581 0 0 1 7.646458,7.64646"
           style="fill:#5f8dd3;stroke:none;stroke-width:0.25;stroke-linecap:round;stroke-linejoin:round;stroke-miterlimit:10;stroke-dasharray:none"
           id="circle49" />
        <path
           d="m 50.005632,122.95265 a 8.7577076,8.7577076 0 0 1 -8.757707,8.75771 8.7577076,8.7577076 0 0 1 -8.757708,-8.75771 8.7577076,8.7577076 0 0 1 8.757708,-8.75771 8.7577076,8.7577076 0 0 1 8.757707,8.75771"
           style="fill:none;stroke:none;stroke-width:0.25;stroke-linecap:round;stroke-linejoin:round;stroke-miterlimit:10;stroke-dasharray:none"
           id="circle51" />
        <path
           fill="#9FA0A0"
           stroke="#000000"
           stroke-width="2.1839"
           stroke-linecap="round"
           stroke-linejoin="round"
           stroke-miterlimit="10"
           d="m 28.230412,110.94058 c 0,0 -0.3175,2.11666 0,2.11666 0.3175,0 6.32355,-0.23812 6.32355,-0.23812 l -0.0794,-1.95792 c 0,0 -6.24417,-0.0794 -6.24417,0.0794 z"
           id="path53"
           style="font-variation-settings:normal;vector-effect:none;fill:#999999;fill-opacity:1;stroke:none;stroke-width:0.25;stroke-linecap:round;stroke-linejoin:round;stroke-miterlimit:4;stroke-dasharray:none;stroke-dashoffset:0;stroke-opacity:1;paint-order:markers stroke fill;stop-color:#000000" />
        <path
           d="m 54.265403,111.46974 a 1.5081249,1.5081249 0 0 1 -1.508125,1.50813 1.5081249,1.5081249 0 0 1 -1.508125,-1.50813 1.5081249,1.5081249 0 0 1 1.508125,-1.50812 1.5081249,1.5081249 0 0 1 1.508125,1.50812"
           style="fill:#008000;stroke:none;stroke-width:0.25;stroke-linecap:round;stroke-linejoin:round;stroke-miterlimit:10;stroke-dasharray:none"
           id="circle55" />
        <path
           d="m 49.66167,111.23161 a 1.2700001,1.2700001 0 0 1 -1.27,1.27 1.2700001,1.2700001 0 0 1 -1.27,-1.27 1.2700001,1.2700001 0 0 1 1.27,-1.27 1.2700001,1.2700001 0 0 1 1.27,1.27"
           style="fill:#008000;stroke:none;stroke-width:0.25;stroke-linecap:round;stroke-linejoin:round;stroke-miterlimit:10;stroke-dasharray:none"
           id="circle57" />
        <path
           d="m 46.354374,111.1787 a 1.2700001,1.2700001 0 0 1 -1.270001,1.27 1.2700001,1.2700001 0 0 1 -1.27,-1.27 1.2700001,1.2700001 0 0 1 1.27,-1.27 1.2700001,1.2700001 0 0 1 1.270001,1.27"
           style="fill:#008000;stroke:none;stroke-width:0.25;stroke-linecap:round;stroke-linejoin:round;stroke-miterlimit:10;stroke-dasharray:none"
           id="circle59" />
      </g>
      <g
         id="g1351"
         style="opacity:1">
        <path
           style="color:#000000;font-style:normal;font-variant:normal;font-weight:normal;font-stretch:normal;font-size:medium;line-height:normal;font-family:sans-serif;font-variant-ligatures:normal;font-variant-position:normal;font-variant-caps:normal;font-variant-numeric:normal;font-variant-alternates:normal;font-variant-east-asian:normal;font-feature-settings:normal;font-variation-settings:normal;text-indent:0;text-align:start;text-decoration:none;text-decoration-line:none;text-decoration-style:solid;text-decoration-color:#000000;letter-spacing:normal;word-spacing:normal;text-transform:none;writing-mode:lr-tb;direction:ltr;text-orientation:mixed;dominant-baseline:auto;baseline-shift:baseline;text-anchor:start;white-space:normal;shape-padding:0;shape-margin:0;inline-size:0;clip-rule:nonzero;display:inline;overflow:visible;visibility:visible;isolation:auto;mix-blend-mode:normal;color-interpolation:sRGB;color-interpolation-filters:linearRGB;solid-color:#000000;solid-opacity:1;vector-effect:none;fill:#cccccc;fill-opacity:1;fill-rule:nonzero;stroke:none;stroke-width:0.529167;stroke-linecap:round;stroke-linejoin:round;stroke-miterlimit:10;stroke-dasharray:none;stroke-dashoffset:0;stroke-opacity:1;color-rendering:auto;image-rendering:auto;shape-rendering:auto;text-rendering:auto;enable-background:accumulate;stop-color:#000000;stop-opacity:1"
           d="m 36.865976,136.92266 c 0,0 0.10583,3.41313 0.42333,3.41313 0.3175,0 2.75167,-0.10584 3.095631,-0.21167 0.3175,-0.10583 0.529158,-3.09563 0.529158,-3.09563 z"
           id="path1353" />
        <path
           style="color:#000000;font-style:normal;font-variant:normal;font-weight:normal;font-stretch:normal;font-size:medium;line-height:normal;font-family:sans-serif;font-variant-ligatures:normal;font-variant-position:normal;font-variant-caps:normal;font-variant-numeric:normal;font-variant-alternates:normal;font-variant-east-asian:normal;font-feature-settings:normal;font-variation-settings:normal;text-indent:0;text-align:start;text-decoration:none;text-decoration-line:none;text-decoration-style:solid;text-decoration-color:#000000;letter-spacing:normal;word-spacing:normal;text-transform:none;writing-mode:lr-tb;direction:ltr;text-orientation:mixed;dominant-baseline:auto;baseline-shift:baseline;text-anchor:start;white-space:normal;shape-padding:0;shape-margin:0;inline-size:0;clip-rule:nonzero;display:inline;overflow:visible;visibility:visible;isolation:auto;mix-blend-mode:normal;color-interpolation:sRGB;color-interpolation-filters:linearRGB;solid-color:#000000;solid-opacity:1;vector-effect:none;fill:#000000;fill-opacity:1;fill-rule:nonzero;stroke:none;stroke-width:0.529167;stroke-linecap:round;stroke-linejoin:round;stroke-miterlimit:10;stroke-dasharray:none;stroke-dashoffset:0;stroke-opacity:1;color-rendering:auto;image-rendering:auto;shape-rendering:auto;text-rendering:auto;enable-background:accumulate;stop-color:#000000;stop-opacity:1"
           d="m 36.873047,136.6582 a 0.26460996,0.26460996 0 0 0 -0.271485,0.27344 c 0,0 0.02698,0.85734 0.09375,1.71875 0.03339,0.43071 0.07556,0.86157 0.132813,1.19727 0.02862,0.16785 0.06046,0.30893 0.103516,0.42968 0.02153,0.0604 0.04247,0.11614 0.08594,0.17578 0.04346,0.0596 0.133129,0.14649 0.271484,0.14649 0.188151,0 0.858199,-0.0265 1.552735,-0.0664 0.347268,-0.0199 0.696322,-0.0431 0.982422,-0.0684 0.286099,-0.0252 0.480693,-0.0393 0.638672,-0.0879 a 0.26460996,0.26460996 0 0 0 0.0059,-0.002 c 0.10639,-0.0355 0.156796,-0.10094 0.193359,-0.1543 0.03656,-0.0533 0.05935,-0.1045 0.08203,-0.16211 0.04536,-0.11521 0.08131,-0.25097 0.115234,-0.40625 0.06785,-0.31055 0.125048,-0.69932 0.171875,-1.08398 0.09365,-0.76932 0.146484,-1.52148 0.146484,-1.52148 a 0.26460996,0.26460996 0 0 0 -0.255859,-0.28321 z m 0.273437,0.53711 3.476563,0.0898 c -0.01546,0.20305 -0.04252,0.60535 -0.117188,1.21875 -0.04577,0.37602 -0.100977,0.75535 -0.162109,1.03515 -0.03057,0.1399 -0.06481,0.25567 -0.0918,0.32422 -0.0036,0.009 -0.0045,0.008 -0.0078,0.0156 -0.05683,0.0103 -0.222532,0.0371 -0.466797,0.0586 -0.276969,0.0244 -0.620887,0.0486 -0.964844,0.0684 -0.627938,0.036 -1.184972,0.0545 -1.390625,0.0586 -0.02214,-0.0696 -0.04898,-0.17011 -0.07227,-0.30664 -0.05189,-0.30426 -0.09419,-0.72586 -0.126953,-1.14843 -0.05465,-0.70494 -0.06857,-1.19863 -0.07617,-1.41407 z"
           id="path1355" />
      </g>
      <g
         id="g1345"
         style="opacity:1">
        <path
           style="color:#000000;font-style:normal;font-variant:normal;font-weight:normal;font-stretch:normal;font-size:medium;line-height:normal;font-family:sans-serif;font-variant-ligatures:normal;font-variant-position:normal;font-variant-caps:normal;font-variant-numeric:normal;font-variant-alternates:normal;font-variant-east-asian:normal;font-feature-settings:normal;font-variation-settings:normal;text-indent:0;text-align:start;text-decoration:none;text-decoration-line:none;text-decoration-style:solid;text-decoration-color:#000000;letter-spacing:normal;word-spacing:normal;text-transform:none;writing-mode:lr-tb;direction:ltr;text-orientation:mixed;dominant-baseline:auto;baseline-shift:baseline;text-anchor:start;white-space:normal;shape-padding:0;shape-margin:0;inline-size:0;clip-rule:nonzero;display:inline;overflow:visible;visibility:visible;isolation:auto;mix-blend-mode:normal;color-interpolation:sRGB;color-interpolation-filters:linearRGB;solid-color:#000000;solid-opacity:1;vector-effect:none;fill:#cccccc;fill-opacity:1;fill-rule:nonzero;stroke:none;stroke-width:0.529167;stroke-linecap:round;stroke-linejoin:round;stroke-miterlimit:10;stroke-dasharray:none;stroke-dashoffset:0;stroke-opacity:1;color-rendering:auto;image-rendering:auto;shape-rendering:auto;text-rendering:auto;enable-background:accumulate;stop-color:#000000;stop-opacity:1"
           d="m 63.694726,136.79037 c 0,0 -0.105842,3.41312 -0.423342,3.41312 -0.3175,0 -2.751658,-0.10583 -3.095619,-0.21166 -0.3175,-0.10584 -0.52917,-3.09563 -0.52917,-3.09563 z"
           id="path1347" />
        <path
           style="color:#000000;font-style:normal;font-variant:normal;font-weight:normal;font-stretch:normal;font-size:medium;line-height:normal;font-family:sans-serif;font-variant-ligatures:normal;font-variant-position:normal;font-variant-caps:normal;font-variant-numeric:normal;font-variant-alternates:normal;font-variant-east-asian:normal;font-feature-settings:normal;font-variation-settings:normal;text-indent:0;text-align:start;text-decoration:none;text-decoration-line:none;text-decoration-style:solid;text-decoration-color:#000000;letter-spacing:normal;word-spacing:normal;text-transform:none;writing-mode:lr-tb;direction:ltr;text-orientation:mixed;dominant-baseline:auto;baseline-shift:baseline;text-anchor:start;white-space:normal;shape-padding:0;shape-margin:0;inline-size:0;clip-rule:nonzero;display:inline;overflow:visible;visibility:visible;isolation:auto;mix-blend-mode:normal;color-interpolation:sRGB;color-interpolation-filters:linearRGB;solid-color:#000000;solid-opacity:1;vector-effect:none;fill:#000000;fill-opacity:1;fill-rule:nonzero;stroke:none;stroke-width:0.529167;stroke-linecap:round;stroke-linejoin:round;stroke-miterlimit:10;stroke-dasharray:none;stroke-dashoffset:0;stroke-opacity:1;color-rendering:auto;image-rendering:auto;shape-rendering:auto;text-rendering:auto;enable-background:accumulate;stop-color:#000000;stop-opacity:1"
           d="m 63.6875,136.52539 -4.046875,0.10547 a 0.26460996,0.26460996 0 0 0 -0.257813,0.2832 c 0,0 0.05283,0.75217 0.146485,1.52149 0.04683,0.38465 0.104023,0.77343 0.171875,1.08398 0.03393,0.15528 0.06988,0.29104 0.115234,0.40625 0.02268,0.0576 0.04547,0.11071 0.08203,0.16406 0.03656,0.0534 0.08697,0.11688 0.193359,0.15235 a 0.26460996,0.26460996 0 0 0 0.0059,0.002 c 0.157979,0.0486 0.352574,0.0646 0.638672,0.0898 0.286098,0.0252 0.635155,0.0484 0.982422,0.0684 0.694533,0.0399 1.364587,0.0664 1.552734,0.0664 0.138355,0 0.228022,-0.0888 0.271485,-0.14844 0.04346,-0.0596 0.06636,-0.11345 0.08789,-0.17383 0.04306,-0.12075 0.07294,-0.26379 0.101563,-0.43164 0.05725,-0.33569 0.09942,-0.76656 0.132812,-1.19726 0.06678,-0.86141 0.09375,-1.71875 0.09375,-1.71875 A 0.26460996,0.26460996 0 0 0 63.6875,136.52539 Z m -0.273438,0.53711 c -0.0076,0.21543 -0.02152,0.70913 -0.07617,1.41406 -0.03276,0.42258 -0.07506,0.84418 -0.126953,1.14844 -0.0233,0.13661 -0.05012,0.23901 -0.07227,0.30859 -0.205651,-0.004 -0.762687,-0.0245 -1.390625,-0.0605 -0.343956,-0.0198 -0.687877,-0.042 -0.964844,-0.0664 -0.245285,-0.0216 -0.413003,-0.0504 -0.46875,-0.0605 -0.0029,-0.007 -0.0028,-0.006 -0.0059,-0.0137 -0.02699,-0.0685 -0.06123,-0.18627 -0.0918,-0.32617 -0.06113,-0.2798 -0.116333,-0.65718 -0.162109,-1.0332 -0.0747,-0.61358 -0.10174,-1.01783 -0.117188,-1.22071 z"
           id="path1349" />
      </g>
      <g
         id="g1339"
         style="opacity:1">
        <path
           style="color:#000000;font-style:normal;font-variant:normal;font-weight:normal;font-stretch:normal;font-size:medium;line-height:normal;font-family:sans-serif;font-variant-ligatures:normal;font-variant-position:normal;font-variant-caps:normal;font-variant-numeric:normal;font-variant-alternates:normal;font-variant-east-asian:normal;font-feature-settings:normal;font-variation-settings:normal;text-indent:0;text-align:start;text-decoration:none;text-decoration-line:none;text-decoration-style:solid;text-decoration-color:#000000;letter-spacing:normal;word-spacing:normal;text-transform:none;writing-mode:lr-tb;direction:ltr;text-orientation:mixed;dominant-baseline:auto;baseline-shift:baseline;text-anchor:start;white-space:normal;shape-padding:0;shape-margin:0;inline-size:0;clip-rule:nonzero;display:inline;overflow:visible;visibility:visible;isolation:auto;mix-blend-mode:normal;color-interpolation:sRGB;color-interpolation-filters:linearRGB;solid-color:#000000;solid-opacity:1;vector-effect:none;fill:#e6e6e6;fill-opacity:1;fill-rule:nonzero;stroke:none;stroke-width:0.529167;stroke-linecap:round;stroke-linejoin:round;stroke-miterlimit:10;stroke-dasharray:none;stroke-dashoffset:0;stroke-opacity:1;color-rendering:auto;image-rendering:auto;shape-rendering:auto;text-rendering:auto;enable-background:accumulate;stop-color:#000000;stop-opacity:1"
           d="m 35.754726,109.43245 c 0,0 28.019369,-0.42333 28.09875,-0.21167 0.3175,0.89959 1.190619,26.96105 0.396869,28.33688 -0.555619,1.00542 -27.225619,0.66146 -28.125211,0.44979 -0.899578,-0.21166 -1.269994,-28.12521 -0.370408,-28.575 z"
           id="path1341" />
        <path
           style="color:#000000;font-style:normal;font-variant:normal;font-weight:normal;font-stretch:normal;font-size:medium;line-height:normal;font-family:sans-serif;font-variant-ligatures:normal;font-variant-position:normal;font-variant-caps:normal;font-variant-numeric:normal;font-variant-alternates:normal;font-variant-east-asian:normal;font-feature-settings:normal;font-variation-settings:normal;text-indent:0;text-align:start;text-decoration:none;text-decoration-line:none;text-decoration-style:solid;text-decoration-color:#000000;letter-spacing:normal;word-spacing:normal;text-transform:none;writing-mode:lr-tb;direction:ltr;text-orientation:mixed;dominant-baseline:auto;baseline-shift:baseline;text-anchor:start;white-space:normal;shape-padding:0;shape-margin:0;inline-size:0;clip-rule:nonzero;display:inline;overflow:visible;visibility:visible;isolation:auto;mix-blend-mode:normal;color-interpolation:sRGB;color-interpolation-filters:linearRGB;solid-color:#000000;solid-opacity:1;vector-effect:none;fill:#000000;fill-opacity:1;fill-rule:nonzero;stroke:none;stroke-width:0.529167;stroke-linecap:round;stroke-linejoin:round;stroke-miterlimit:10;stroke-dasharray:none;stroke-dashoffset:0;stroke-opacity:1;color-rendering:auto;image-rendering:auto;shape-rendering:auto;text-rendering:auto;enable-background:accumulate;stop-color:#000000;stop-opacity:1"
           d="m 59.427734,108.90039 c -2.639307,0.01 -6.148533,0.0423 -9.65625,0.082 C 42.756052,109.0618 35.75,109.16797 35.75,109.16797 a 0.26460996,0.26460996 0 0 0 -0.113281,0.0273 c -0.15131,0.0757 -0.174092,0.17194 -0.208985,0.26172 -0.03489,0.0898 -0.06095,0.19318 -0.08594,0.31641 -0.04998,0.24645 -0.09133,0.57388 -0.128906,0.98242 -0.07516,0.81707 -0.130973,1.9482 -0.169922,3.29297 -0.0779,2.68953 -0.08931,6.23032 -0.04297,9.76367 0.04634,3.53335 0.149361,7.05892 0.296875,9.71875 0.07376,1.32992 0.158147,2.44313 0.253906,3.23828 0.04788,0.39758 0.09789,0.71429 0.154297,0.94922 0.02821,0.11747 0.05808,0.21248 0.09766,0.29883 0.03957,0.0863 0.07634,0.20443 0.261719,0.24804 0.123268,0.029 0.255548,0.0328 0.503906,0.0469 0.248359,0.0141 0.582778,0.0291 0.992188,0.043 0.81882,0.0278 1.937142,0.053 3.255859,0.0762 2.637435,0.0463 6.07334,0.0789 9.5,0.0723 3.426661,-0.007 6.842476,-0.0521 9.441406,-0.15821 1.299466,-0.053 2.393781,-0.12131 3.189454,-0.20898 0.397836,-0.0438 0.720228,-0.0915 0.964843,-0.14844 0.122308,-0.0285 0.225916,-0.0586 0.316407,-0.0977 0.09007,-0.0389 0.180182,-0.0764 0.251953,-0.20507 7.2e-5,-1.3e-4 0.0019,1.2e-4 0.002,0 0.09585,-0.16793 0.121697,-0.35073 0.160156,-0.62696 0.03871,-0.27805 0.06972,-0.63345 0.0957,-1.06054 0.05196,-0.85419 0.08132,-1.99237 0.09375,-3.32032 0.02485,-2.65589 -0.02019,-6.07094 -0.09961,-9.47265 -0.07942,-3.40172 -0.192435,-6.78918 -0.306641,-9.38281 -0.0571,-1.29682 -0.115041,-2.39452 -0.167969,-3.19922 -0.02646,-0.40236 -0.05204,-0.731 -0.07617,-0.97657 -0.02413,-0.24556 -0.02809,-0.37189 -0.07813,-0.51367 a 0.26460996,0.26460996 0 0 0 -0.002,-0.006 c -3.1e-4,-8.2e-4 -0.07287,-0.10638 -0.09961,-0.125 -0.02673,-0.0186 -0.04418,-0.0256 -0.05859,-0.0312 -0.02882,-0.0113 -0.04472,-0.0163 -0.06055,-0.0195 -0.03166,-0.006 -0.05928,-0.009 -0.0918,-0.0117 -0.06504,-0.006 -0.148506,-0.0112 -0.25586,-0.0156 -0.214707,-0.009 -0.520013,-0.0152 -0.908203,-0.0195 -0.776379,-0.009 -1.879565,-0.009 -3.199219,-0.004 z m 0.002,0.5293 c 1.318325,-0.005 2.420281,-0.005 3.191406,0.004 0.385562,0.004 0.688124,0.0112 0.892578,0.0195 0.05021,0.002 0.07372,0.004 0.111328,0.006 0.01105,0.0681 0.01706,0.0939 0.03125,0.23829 0.02316,0.23569 0.04797,0.56189 0.07422,0.96093 0.05249,0.7981 0.109017,1.89306 0.166015,3.1875 0.113997,2.58889 0.229262,5.97302 0.308594,9.3711 0.07933,3.39807 0.122414,6.81133 0.09766,9.45703 -0.01238,1.32285 -0.04082,2.45506 -0.0918,3.29297 -0.02549,0.41895 -0.05821,0.76423 -0.09375,1.01953 -0.03555,0.2553 -0.09389,0.4363 -0.0957,0.43945 a 0.26460996,0.26460996 0 0 0 -0.002,0.004 c 0.0372,-0.0673 0.04113,-0.044 -0.002,-0.0254 -0.04308,0.0186 -0.120839,0.0442 -0.224609,0.0684 -0.20754,0.0483 -0.515991,0.0961 -0.902344,0.13867 -0.772706,0.0851 -1.86126,0.15424 -3.154297,0.20703 -2.586074,0.10557 -5.997181,0.14964 -9.419922,0.15625 -3.42274,0.007 -6.856671,-0.026 -9.490234,-0.0723 -1.316782,-0.0231 -2.433993,-0.0486 -3.248047,-0.0762 -0.407027,-0.0138 -0.73905,-0.0293 -0.980469,-0.043 -0.192262,-0.0109 -0.278664,-0.0222 -0.328125,-0.0273 -0.01441,-0.0382 -0.03015,-0.0824 -0.04883,-0.16016 -0.04741,-0.19743 -0.09795,-0.5038 -0.144531,-0.89062 -0.09317,-0.77364 -0.176584,-1.87936 -0.25,-3.20313 -0.146833,-2.64754 -0.250611,-6.16759 -0.296875,-9.69531 -0.04626,-3.52772 -0.03653,-7.06481 0.04102,-9.74219 0.03877,-1.33869 0.09471,-2.4634 0.167969,-3.25976 0.03663,-0.39819 0.07811,-0.71578 0.121094,-0.92774 0.0171,-0.0843 0.03396,-0.13607 0.04883,-0.18164 0.147869,-0.002 6.930285,-0.10508 13.869141,-0.18359 3.507048,-0.0397 7.015693,-0.0721 9.652344,-0.082 z"
           id="path1343" />
      </g>
      <g
         id="g1333"
         style="opacity:1">
        <path
           style="color:#000000;font-style:normal;font-variant:normal;font-weight:normal;font-stretch:normal;font-size:medium;line-height:normal;font-family:sans-serif;font-variant-ligatures:normal;font-variant-position:normal;font-variant-caps:normal;font-variant-numeric:normal;font-variant-alternates:normal;font-variant-east-asian:normal;font-feature-settings:normal;font-variation-settings:normal;text-indent:0;text-align:start;text-decoration:none;text-decoration-line:none;text-decoration-style:solid;text-decoration-color:#000000;letter-spacing:normal;word-spacing:normal;text-transform:none;writing-mode:lr-tb;direction:ltr;text-orientation:mixed;dominant-baseline:auto;baseline-shift:baseline;text-anchor:start;white-space:normal;shape-padding:0;shape-margin:0;inline-size:0;clip-rule:nonzero;display:inline;overflow:visible;visibility:visible;isolation:auto;mix-blend-mode:normal;color-interpolation:sRGB;color-interpolation-filters:linearRGB;solid-color:#000000;solid-opacity:1;vector-effect:none;fill:#5f8dd3;fill-opacity:1;fill-rule:nonzero;stroke:none;stroke-width:0.25;stroke-linecap:round;stroke-linejoin:round;stroke-miterlimit:10;stroke-dasharray:none;stroke-dashoffset:0;stroke-opacity:1;color-rendering:auto;image-rendering:auto;shape-rendering:auto;text-rendering:auto;enable-background:accumulate;stop-color:#000000;stop-opacity:1"
           d="m 57.291798,122.97911 c 10e-7,4.22302 -3.423433,7.64646 -7.646455,7.64646 -4.223023,0 -7.64646,-3.42344 -7.646459,-7.64646 -10e-7,-4.22302 3.423436,-7.64646 7.646459,-7.64646 4.223022,0 7.646456,3.42344 7.646455,7.64646"
           id="path1335" />
        <path
           style="color:#000000;font-style:normal;font-variant:normal;font-weight:normal;font-stretch:normal;font-size:medium;line-height:normal;font-family:sans-serif;font-variant-ligatures:normal;font-variant-position:normal;font-variant-caps:normal;font-variant-numeric:normal;font-variant-alternates:normal;font-variant-east-asian:normal;font-feature-settings:normal;font-variation-settings:normal;text-indent:0;text-align:start;text-decoration:none;text-decoration-line:none;text-decoration-style:solid;text-decoration-color:#000000;letter-spacing:normal;word-spacing:normal;text-transform:none;writing-mode:lr-tb;direction:ltr;text-orientation:mixed;dominant-baseline:auto;baseline-shift:baseline;text-anchor:start;white-space:normal;shape-padding:0;shape-margin:0;inline-size:0;clip-rule:nonzero;display:inline;overflow:visible;visibility:visible;isolation:auto;mix-blend-mode:normal;color-interpolation:sRGB;color-interpolation-filters:linearRGB;solid-color:#000000;solid-opacity:1;vector-effect:none;fill:#000000;fill-opacity:1;fill-rule:nonzero;stroke:none;stroke-width:0.25;stroke-linecap:round;stroke-linejoin:round;stroke-miterlimit:10;stroke-dasharray:none;stroke-dashoffset:0;stroke-opacity:1;color-rendering:auto;image-rendering:auto;shape-rendering:auto;text-rendering:auto;enable-background:accumulate;stop-color:#000000;stop-opacity:1"
           d="m 49.644531,115.20703 c -4.290578,0 -7.771485,3.48091 -7.771484,7.77149 -10e-7,4.29057 3.480906,7.77148 7.771484,7.77148 4.272604,0 7.732727,-3.4549 7.761719,-7.7207 a 0.125,0.125 0 0 0 0.0098,-0.0508 0.125,0.125 0 0 0 -0.0098,-0.0469 c -0.02687,-4.26762 -3.487794,-7.72461 -7.761719,-7.72461 z m 0,0.25 c 4.155467,0 7.521486,3.36602 7.521485,7.52149 10e-7,4.15546 -3.366018,7.52148 -7.521485,7.52148 -4.155468,0 -7.521485,-3.36602 -7.521484,-7.52148 -10e-7,-4.15547 3.366016,-7.52149 7.521484,-7.52149 z"
           id="path1337" />
      </g>
      <path
         style="color:#000000;font-style:normal;font-variant:normal;font-weight:normal;font-stretch:normal;font-size:medium;line-height:normal;font-family:sans-serif;font-variant-ligatures:normal;font-variant-position:normal;font-variant-caps:normal;font-variant-numeric:normal;font-variant-alternates:normal;font-variant-east-asian:normal;font-feature-settings:normal;font-variation-settings:normal;text-indent:0;text-align:start;text-decoration:none;text-decoration-line:none;text-decoration-style:solid;text-decoration-color:#000000;letter-spacing:normal;word-spacing:normal;text-transform:none;writing-mode:lr-tb;direction:ltr;text-orientation:mixed;dominant-baseline:auto;baseline-shift:baseline;text-anchor:start;white-space:normal;shape-padding:0;shape-margin:0;inline-size:0;clip-rule:nonzero;display:inline;overflow:visible;visibility:visible;opacity:1;isolation:auto;mix-blend-mode:normal;color-interpolation:sRGB;color-interpolation-filters:linearRGB;solid-color:#000000;solid-opacity:1;vector-effect:none;fill:#000000;fill-opacity:1;fill-rule:nonzero;stroke:none;stroke-width:0.25;stroke-linecap:round;stroke-linejoin:round;stroke-miterlimit:10;stroke-dasharray:none;stroke-dashoffset:0;stroke-opacity:1;color-rendering:auto;image-rendering:auto;shape-rendering:auto;text-rendering:auto;enable-background:accumulate;stop-color:#000000;stop-opacity:1"
         d="m 49.619141,114.07031 c -4.904305,0 -8.882814,3.97851 -8.882813,8.88281 -10e-7,4.90431 3.978508,8.88282 8.882813,8.88282 4.88766,0 8.84617,-3.95458 8.873047,-8.83594 a 0.125,0.125 0 0 0 0.002,-0.004 0.125,0.125 0 0 0 0.0078,-0.043 0.125,0.125 0 0 0 -0.0098,-0.0449 c -0.02581,-4.88228 -3.984722,-8.83789 -8.873047,-8.83789 z m 0,0.25 c 4.769194,0 8.632813,3.86362 8.632812,8.63281 10e-7,4.7692 -3.863618,8.63282 -8.632812,8.63282 -4.769195,0 -8.632814,-3.86362 -8.632813,-8.63282 -10e-7,-4.76919 3.863618,-8.63281 8.632813,-8.63281 z"
         id="path1331" />
      <g
         id="g1323"
         style="opacity:1">
        <path
           style="color:#000000;font-style:normal;font-variant:normal;font-weight:normal;font-stretch:normal;font-size:medium;line-height:normal;font-family:sans-serif;font-variant-ligatures:normal;font-variant-position:normal;font-variant-caps:normal;font-variant-numeric:normal;font-variant-alternates:normal;font-variant-east-asian:normal;font-feature-settings:normal;font-variation-settings:normal;text-indent:0;text-align:start;text-decoration:none;text-decoration-line:none;text-decoration-style:solid;text-decoration-color:#000000;letter-spacing:normal;word-spacing:normal;text-transform:none;writing-mode:lr-tb;direction:ltr;text-orientation:mixed;dominant-baseline:auto;baseline-shift:baseline;text-anchor:start;white-space:normal;shape-padding:0;shape-margin:0;inline-size:0;clip-rule:nonzero;display:inline;overflow:visible;visibility:visible;isolation:auto;mix-blend-mode:normal;color-interpolation:sRGB;color-interpolation-filters:linearRGB;solid-color:#000000;solid-opacity:1;vector-effect:none;fill:#000000;fill-opacity:1;fill-rule:nonzero;stroke:none;stroke-width:0.25;stroke-linecap:round;stroke-linejoin:round;stroke-miterlimit:4;stroke-dasharray:none;stroke-dashoffset:0;stroke-opacity:1;paint-order:markers stroke fill;color-rendering:auto;image-rendering:auto;shape-rendering:auto;text-rendering:auto;enable-background:accumulate;stop-color:#000000;stop-opacity:1"
           d="m 39.722656,110.7168 c -0.781051,0 -1.560929,0.005 -2.148437,0.0195 -0.293754,0.007 -0.539903,0.0179 -0.714844,0.0312 -0.08747,0.007 -0.155161,0.0139 -0.208984,0.0234 -0.02691,0.005 -0.05053,0.01 -0.07617,0.0195 -0.01282,0.005 -0.0255,0.0101 -0.04492,0.0254 -0.0049,0.004 -0.01019,0.008 -0.01563,0.0137 -0.0033,0.003 -0.0061,0.009 -0.0098,0.0137 -0.0024,0.003 -0.0077,0.008 -0.0078,0.008 -5.65e-4,9.1e-4 -0.0082,0.0331 -0.01367,0.0527 l -0.0039,-0.002 c 0,0 -0.0019,0.0192 -0.002,0.0195 -0.0028,0.0189 -0.07972,0.52323 -0.11914,1.04882 -0.02008,0.26769 -0.02948,0.53527 -0.01367,0.7461 0.0079,0.10541 0.01943,0.19504 0.04883,0.27344 0.0147,0.0392 0.0334,0.0775 0.06641,0.11132 0.03301,0.0339 0.08801,0.0606 0.142578,0.0606 0.095,0 0.519088,-0.0148 1.126954,-0.0371 0.607865,-0.0223 1.387561,-0.0523 2.158203,-0.082 1.541283,-0.0595 3.042968,-0.11914 3.042969,-0.11914 a 0.1250125,0.1250125 0 0 0 0.121093,-0.12891 l -0.08008,-1.95898 a 0.1250125,0.1250125 0 0 0 -0.123047,-0.11914 c 0,0 -1.562898,-0.0195 -3.125,-0.0195 z m 0,0.25 c 1.500436,0 2.889555,0.0181 3.001953,0.0195 l 0.07031,1.71094 c -0.11589,0.005 -1.440138,0.0581 -2.917969,0.11523 -0.770559,0.0298 -1.550637,0.0597 -2.158203,0.082 -0.591616,0.0217 -1.006414,0.0344 -1.087891,0.0352 -0.002,-0.004 -0.0016,-0.002 -0.0039,-0.008 -0.01401,-0.0374 -0.02818,-0.11206 -0.03516,-0.20508 -0.01395,-0.18604 -0.004,-0.4475 0.01563,-0.70899 0.03638,-0.48502 0.09935,-0.90443 0.109375,-0.97265 0.03877,-0.006 0.08932,-0.014 0.162109,-0.0195 0.166537,-0.0127 0.409535,-0.0219 0.701172,-0.0293 0.583274,-0.0148 1.362587,-0.0195 2.142578,-0.0195 z"
           id="path1325" />
        <path
           style="color:#000000;font-style:normal;font-variant:normal;font-weight:normal;font-stretch:normal;font-size:medium;line-height:normal;font-family:sans-serif;font-variant-ligatures:normal;font-variant-position:normal;font-variant-caps:normal;font-variant-numeric:normal;font-variant-alternates:normal;font-variant-east-asian:normal;font-feature-settings:normal;font-variation-settings:normal;text-indent:0;text-align:start;text-decoration:none;text-decoration-line:none;text-decoration-style:solid;text-decoration-color:#000000;letter-spacing:normal;word-spacing:normal;text-transform:none;writing-mode:lr-tb;direction:ltr;text-orientation:mixed;dominant-baseline:auto;baseline-shift:baseline;text-anchor:start;white-space:normal;shape-padding:0;shape-margin:0;inline-size:0;clip-rule:nonzero;display:inline;overflow:visible;visibility:visible;isolation:auto;mix-blend-mode:normal;color-interpolation:sRGB;color-interpolation-filters:linearRGB;solid-color:#000000;solid-opacity:1;vector-effect:none;fill:#999999;fill-opacity:1;fill-rule:nonzero;stroke:none;stroke-width:0.25;stroke-linecap:round;stroke-linejoin:round;stroke-miterlimit:4;stroke-dasharray:none;stroke-dashoffset:0;stroke-opacity:1;paint-order:markers stroke fill;color-rendering:auto;image-rendering:auto;shape-rendering:auto;text-rendering:auto;enable-background:accumulate;stop-color:#000000;stop-opacity:1"
           d="m 36.601384,110.94058 c 0,0 -0.3175,2.11666 0,2.11666 0.3175,0 6.323553,-0.23812 6.323553,-0.23812 l -0.0794,-1.95792 c 0,0 -6.244169,-0.0794 -6.244169,0.0794 z"
           id="path1327" />
      </g>
      <g
         id="g1317"
         style="opacity:1">
        <path
           style="color:#000000;font-style:normal;font-variant:normal;font-weight:normal;font-stretch:normal;font-size:medium;line-height:normal;font-family:sans-serif;font-variant-ligatures:normal;font-variant-position:normal;font-variant-caps:normal;font-variant-numeric:normal;font-variant-alternates:normal;font-variant-east-asian:normal;font-feature-settings:normal;font-variation-settings:normal;text-indent:0;text-align:start;text-decoration:none;text-decoration-line:none;text-decoration-style:solid;text-decoration-color:#000000;letter-spacing:normal;word-spacing:normal;text-transform:none;writing-mode:lr-tb;direction:ltr;text-orientation:mixed;dominant-baseline:auto;baseline-shift:baseline;text-anchor:start;white-space:normal;shape-padding:0;shape-margin:0;inline-size:0;clip-rule:nonzero;display:inline;overflow:visible;visibility:visible;isolation:auto;mix-blend-mode:normal;color-interpolation:sRGB;color-interpolation-filters:linearRGB;solid-color:#000000;solid-opacity:1;vector-effect:none;fill:#008000;fill-opacity:1;fill-rule:nonzero;stroke:none;stroke-width:0.25;stroke-linecap:round;stroke-linejoin:round;stroke-miterlimit:10;stroke-dasharray:none;stroke-dashoffset:0;stroke-opacity:1;color-rendering:auto;image-rendering:auto;shape-rendering:auto;text-rendering:auto;enable-background:accumulate;stop-color:#000000;stop-opacity:1"
           d="m 62.636376,111.46974 c 3e-6,0.83292 -0.675209,1.50813 -1.508125,1.50813 -0.832916,0 -1.508128,-0.67521 -1.508125,-1.50813 3e-6,-0.83291 0.675212,-1.50812 1.508125,-1.50812 0.832913,0 1.508122,0.67521 1.508125,1.50812"
           id="path1319" />
        <path
           style="color:#000000;font-style:normal;font-variant:normal;font-weight:normal;font-stretch:normal;font-size:medium;line-height:normal;font-family:sans-serif;font-variant-ligatures:normal;font-variant-position:normal;font-variant-caps:normal;font-variant-numeric:normal;font-variant-alternates:normal;font-variant-east-asian:normal;font-feature-settings:normal;font-variation-settings:normal;text-indent:0;text-align:start;text-decoration:none;text-decoration-line:none;text-decoration-style:solid;text-decoration-color:#000000;letter-spacing:normal;word-spacing:normal;text-transform:none;writing-mode:lr-tb;direction:ltr;text-orientation:mixed;dominant-baseline:auto;baseline-shift:baseline;text-anchor:start;white-space:normal;shape-padding:0;shape-margin:0;inline-size:0;clip-rule:nonzero;display:inline;overflow:visible;visibility:visible;isolation:auto;mix-blend-mode:normal;color-interpolation:sRGB;color-interpolation-filters:linearRGB;solid-color:#000000;solid-opacity:1;vector-effect:none;fill:#000000;fill-opacity:1;fill-rule:nonzero;stroke:none;stroke-width:0.25;stroke-linecap:round;stroke-linejoin:round;stroke-miterlimit:10;stroke-dasharray:none;stroke-dashoffset:0;stroke-opacity:1;color-rendering:auto;image-rendering:auto;shape-rendering:auto;text-rendering:auto;enable-background:accumulate;stop-color:#000000;stop-opacity:1"
           d="m 61.128906,109.83594 c -0.900467,0 -1.632809,0.7343 -1.632812,1.63476 -3e-6,0.90047 0.732341,1.63282 1.632812,1.63282 0.866968,0 1.545921,-0.69269 1.597656,-1.54688 a 0.125,0.125 0 0 0 0.03516,-0.0859 0.125,0.125 0 0 0 -0.03516,-0.0859 c -0.05167,-0.85426 -0.730644,-1.54883 -1.597656,-1.54883 z m 0,0.25 c 0.765358,0 1.38281,0.61941 1.382813,1.38476 2e-6,0.76536 -0.617452,1.38282 -1.382813,1.38282 -0.765361,0 -1.382815,-0.61746 -1.382812,-1.38282 2e-6,-0.76535 0.617455,-1.38476 1.382812,-1.38476 z"
           id="path1321" />
      </g>
      <g
         id="g1311"
         style="opacity:1">
        <path
           style="color:#000000;font-style:normal;font-variant:normal;font-weight:normal;font-stretch:normal;font-size:medium;line-height:normal;font-family:sans-serif;font-variant-ligatures:normal;font-variant-position:normal;font-variant-caps:normal;font-variant-numeric:normal;font-variant-alternates:normal;font-variant-east-asian:normal;font-feature-settings:normal;font-variation-settings:normal;text-indent:0;text-align:start;text-decoration:none;text-decoration-line:none;text-decoration-style:solid;text-decoration-color:#000000;letter-spacing:normal;word-spacing:normal;text-transform:none;writing-mode:lr-tb;direction:ltr;text-orientation:mixed;dominant-baseline:auto;baseline-shift:baseline;text-anchor:start;white-space:normal;shape-padding:0;shape-margin:0;inline-size:0;clip-rule:nonzero;display:inline;overflow:visible;visibility:visible;isolation:auto;mix-blend-mode:normal;color-interpolation:sRGB;color-interpolation-filters:linearRGB;solid-color:#000000;solid-opacity:1;vector-effect:none;fill:#008000;fill-opacity:1;fill-rule:nonzero;stroke:none;stroke-width:0.25;stroke-linecap:round;stroke-linejoin:round;stroke-miterlimit:10;stroke-dasharray:none;stroke-dashoffset:0;stroke-opacity:1;color-rendering:auto;image-rendering:auto;shape-rendering:auto;text-rendering:auto;enable-background:accumulate;stop-color:#000000;stop-opacity:1"
           d="m 58.032642,111.23161 c 0,0.7014 -0.568598,1.27 -1.27,1.27 -0.701402,0 -1.27,-0.5686 -1.27,-1.27 0,-0.7014 0.568598,-1.27 1.27,-1.27 0.701402,0 1.27,0.5686 1.27,1.27"
           id="path1313" />
        <path
           style="color:#000000;font-style:normal;font-variant:normal;font-weight:normal;font-stretch:normal;font-size:medium;line-height:normal;font-family:sans-serif;font-variant-ligatures:normal;font-variant-position:normal;font-variant-caps:normal;font-variant-numeric:normal;font-variant-alternates:normal;font-variant-east-asian:normal;font-feature-settings:normal;font-variation-settings:normal;text-indent:0;text-align:start;text-decoration:none;text-decoration-line:none;text-decoration-style:solid;text-decoration-color:#000000;letter-spacing:normal;word-spacing:normal;text-transform:none;writing-mode:lr-tb;direction:ltr;text-orientation:mixed;dominant-baseline:auto;baseline-shift:baseline;text-anchor:start;white-space:normal;shape-padding:0;shape-margin:0;inline-size:0;clip-rule:nonzero;display:inline;overflow:visible;visibility:visible;isolation:auto;mix-blend-mode:normal;color-interpolation:sRGB;color-interpolation-filters:linearRGB;solid-color:#000000;solid-opacity:1;vector-effect:none;fill:#000000;fill-opacity:1;fill-rule:nonzero;stroke:none;stroke-width:0.25;stroke-linecap:round;stroke-linejoin:round;stroke-miterlimit:10;stroke-dasharray:none;stroke-dashoffset:0;stroke-opacity:1;color-rendering:auto;image-rendering:auto;shape-rendering:auto;text-rendering:auto;enable-background:accumulate;stop-color:#000000;stop-opacity:1"
           d="m 56.761719,109.83594 c -0.768957,0 -1.394531,0.62753 -1.394531,1.39648 0,0.76896 0.625574,1.39453 1.394531,1.39453 0.735481,0 1.310069,-0.58589 1.361328,-1.30859 a 0.125,0.125 0 0 0 0.03516,-0.0859 0.125,0.125 0 0 0 -0.03711,-0.0879 c -0.0525,-0.7215 -0.624757,-1.30859 -1.359375,-1.30859 z m 0,0.25 c 0.633846,0 1.146484,0.51264 1.146484,1.14648 0,0.63385 -0.512638,1.14453 -1.146484,1.14453 -0.633847,0 -1.144531,-0.51068 -1.144531,-1.14453 0,-0.63384 0.510684,-1.14648 1.144531,-1.14648 z"
           id="path1315" />
      </g>
      <g
         id="g1305"
         style="opacity:1">
        <path
           style="color:#000000;font-style:normal;font-variant:normal;font-weight:normal;font-stretch:normal;font-size:medium;line-height:normal;font-family:sans-serif;font-variant-ligatures:normal;font-variant-position:normal;font-variant-caps:normal;font-variant-numeric:normal;font-variant-alternates:normal;font-variant-east-asian:normal;font-feature-settings:normal;font-variation-settings:normal;text-indent:0;text-align:start;text-decoration:none;text-decoration-line:none;text-decoration-style:solid;text-decoration-color:#000000;letter-spacing:normal;word-spacing:normal;text-transform:none;writing-mode:lr-tb;direction:ltr;text-orientation:mixed;dominant-baseline:auto;baseline-shift:baseline;text-anchor:start;white-space:normal;shape-padding:0;shape-margin:0;inline-size:0;clip-rule:nonzero;display:inline;overflow:visible;visibility:visible;isolation:auto;mix-blend-mode:normal;color-interpolation:sRGB;color-interpolation-filters:linearRGB;solid-color:#000000;solid-opacity:1;vector-effect:none;fill:#008000;fill-opacity:1;fill-rule:nonzero;stroke:none;stroke-width:0.25;stroke-linecap:round;stroke-linejoin:round;stroke-miterlimit:10;stroke-dasharray:none;stroke-dashoffset:0;stroke-opacity:1;color-rendering:auto;image-rendering:auto;shape-rendering:auto;text-rendering:auto;enable-background:accumulate;stop-color:#000000;stop-opacity:1"
           d="m 54.725348,111.1787 c 0,0.7014 -0.5686,1.27 -1.270003,1.27 -0.701402,0 -1.27,-0.5686 -1.27,-1.27 0,-0.7014 0.568598,-1.27 1.27,-1.27 0.701403,0 1.270003,0.5686 1.270003,1.27"
           id="path1307" />
        <path
           style="color:#000000;font-style:normal;font-variant:normal;font-weight:normal;font-stretch:normal;font-size:medium;line-height:normal;font-family:sans-serif;font-variant-ligatures:normal;font-variant-position:normal;font-variant-caps:normal;font-variant-numeric:normal;font-variant-alternates:normal;font-variant-east-asian:normal;font-feature-settings:normal;font-variation-settings:normal;text-indent:0;text-align:start;text-decoration:none;text-decoration-line:none;text-decoration-style:solid;text-decoration-color:#000000;letter-spacing:normal;word-spacing:normal;text-transform:none;writing-mode:lr-tb;direction:ltr;text-orientation:mixed;dominant-baseline:auto;baseline-shift:baseline;text-anchor:start;white-space:normal;shape-padding:0;shape-margin:0;inline-size:0;clip-rule:nonzero;display:inline;overflow:visible;visibility:visible;isolation:auto;mix-blend-mode:normal;color-interpolation:sRGB;color-interpolation-filters:linearRGB;solid-color:#000000;solid-opacity:1;vector-effect:none;fill:#000000;fill-opacity:1;fill-rule:nonzero;stroke:none;stroke-width:0.25;stroke-linecap:round;stroke-linejoin:round;stroke-miterlimit:10;stroke-dasharray:none;stroke-dashoffset:0;stroke-opacity:1;color-rendering:auto;image-rendering:auto;shape-rendering:auto;text-rendering:auto;enable-background:accumulate;stop-color:#000000;stop-opacity:1"
           d="m 53.455078,109.7832 c -0.768956,0 -1.394531,0.62558 -1.394531,1.39453 0,0.76896 0.625575,1.39649 1.394531,1.39649 0.733946,0 1.303964,-0.58607 1.357422,-1.30664 a 0.125,0.125 0 0 0 0.03711,-0.0898 0.125,0.125 0 0 0 -0.03516,-0.0859 c -0.05129,-0.72268 -0.623916,-1.3086 -1.359375,-1.3086 z m 0,0.25 c 0.633848,0 1.144531,0.51069 1.144531,1.14453 0,0.63385 -0.510683,1.14649 -1.144531,1.14649 -0.633846,0 -1.144531,-0.51264 -1.144531,-1.14649 0,-0.63384 0.510685,-1.14453 1.144531,-1.14453 z"
           id="path1309" />
      </g>
      <path
         d="m 49.749454,116.88375 a 5.4370322,5.4370322 0 0 0 -4.4586,2.37811 5.4370322,5.4370322 0 0 1 3.38199,-1.17987 5.4370322,5.4370322 0 0 1 5.4371,5.43674 5.4370322,5.4370322 0 0 1 -0.94214,3.05863 5.4370322,5.4370322 0 0 0 2.05477,-4.2565 5.4370322,5.4370322 0 0 0 -5.43711,-5.43711 5.4370322,5.4370322 0 0 0 -0.036,0 z"
         style="fill:#adc5e9;fill-opacity:1;stroke:none;stroke-width:0.376264;stroke-linecap:round;stroke-linejoin:round;stroke-miterlimit:10"
         id="circle49-8" />
    </g>
  </g>
</svg>
