<?xml version="1.0" encoding="UTF-8" standalone="no"?>
<svg
   xmlns:dc="http://purl.org/dc/elements/1.1/"
   xmlns:cc="http://creativecommons.org/ns#"
   xmlns:rdf="http://www.w3.org/1999/02/22-rdf-syntax-ns#"
   xmlns:svg="http://www.w3.org/2000/svg"
   xmlns="http://www.w3.org/2000/svg"
   xmlns:sodipodi="http://sodipodi.sourceforge.net/DTD/sodipodi-0.dtd"
   xmlns:inkscape="http://www.inkscape.org/namespaces/inkscape"
   sodipodi:docname="2020-BE-03_taskbody_star-compatible.svg"
   inkscape:version="1.0 (4035a4fb49, 2020-05-01)"
   id="svg8"
   version="1.1"
   viewBox="0 0 30 26.123049"
   height="26.123049mm"
   width="30mm">
  <defs
     id="defs2" />
  <sodipodi:namedview
     inkscape:document-rotation="0"
     inkscape:snap-nodes="false"
     inkscape:window-maximized="1"
     inkscape:window-y="27"
     inkscape:window-x="67"
     inkscape:window-height="1025"
     inkscape:window-width="1853"
     showgrid="false"
     inkscape:current-layer="layer1"
     inkscape:document-units="mm"
     inkscape:cy="30.281099"
     inkscape:cx="610.23381"
     inkscape:zoom="0.98994949"
     inkscape:pageshadow="2"
     inkscape:pageopacity="0.0"
     borderopacity="1.0"
     bordercolor="#666666"
     pagecolor="#ffffff"
     id="base" />
  <metadata
     id="metadata5">
    <rdf:RDF>
      <cc:Work
         rdf:about="">
        <dc:format>image/svg+xml</dc:format>
        <dc:type
           rdf:resource="http://purl.org/dc/dcmitype/StillImage" />
        <dc:title></dc:title>
      </cc:Work>
    </rdf:RDF>
  </metadata>
  <g
     transform="translate(-7.3335041,-177.27531)"
     id="layer1"
     inkscape:groupmode="layer"
     inkscape:label="Layer 1">
    <g
       style="opacity:1"
       transform="matrix(0.85833505,0.15997905,-0.15970518,0.85980695,18.522721,96.568197)"
       inkscape:transform-center-y="35.557487"
       inkscape:transform-center-x="-78.707184"
       id="g848">
      <path
         id="path850"
         d="m 34.815209,117.38433 -9.64625,-8.2408 -6.872188,11.30316 2.313616,-12.4743 -13.2249168,-0.29991 11.9598648,-4.23349 -6.352728,-11.603074 9.646249,8.240794 6.872188,-11.303154 -2.313615,12.474294 13.224916,0.29991 -11.959865,4.2335 z"
         style="color:#000000;font-style:normal;font-variant:normal;font-weight:normal;font-stretch:normal;font-size:medium;line-height:normal;font-family:sans-serif;font-variant-ligatures:normal;font-variant-position:normal;font-variant-caps:normal;font-variant-numeric:normal;font-variant-alternates:normal;font-variant-east-asian:normal;font-feature-settings:normal;font-variation-settings:normal;text-indent:0;text-align:start;text-decoration:none;text-decoration-line:none;text-decoration-style:solid;text-decoration-color:#000000;letter-spacing:normal;word-spacing:normal;text-transform:none;writing-mode:lr-tb;direction:ltr;text-orientation:mixed;dominant-baseline:auto;baseline-shift:baseline;text-anchor:start;white-space:normal;shape-padding:0;shape-margin:0;inline-size:0;clip-rule:nonzero;display:inline;overflow:visible;visibility:visible;isolation:auto;mix-blend-mode:normal;color-interpolation:sRGB;color-interpolation-filters:linearRGB;solid-color:#000000;solid-opacity:1;vector-effect:none;fill:#ffff00;fill-opacity:1;fill-rule:nonzero;stroke:none;stroke-width:0.761539;stroke-linecap:butt;stroke-linejoin:round;stroke-miterlimit:4;stroke-dasharray:none;stroke-dashoffset:0;stroke-opacity:1.0;color-rendering:auto;image-rendering:auto;shape-rendering:auto;text-rendering:auto;enable-background:accumulate;stop-color:#000000;stop-opacity:1;" />
      <path
         id="path852"
         d="M 29.503906 88.392578 A 0.38080757 0.38080757 0 0 0 29.185547 88.576172 L 22.546875 99.496094 L 13.240234 91.546875 A 0.38080757 0.38080757 0 0 0 12.658203 92.019531 L 18.796875 103.22852 L 7.2578125 107.31445 A 0.38080757 0.38080757 0 0 0 7.3769531 108.05273 L 20.154297 108.34375 L 17.921875 120.37695 A 0.38080757 0.38080757 0 0 0 18.623047 120.64453 L 25.261719 109.72461 L 34.568359 117.67383 A 0.38080757 0.38080757 0 0 0 35.148438 117.20117 L 29.011719 105.99023 L 40.548828 101.90625 A 0.38080757 0.38080757 0 0 0 40.431641 101.16797 L 27.654297 100.87695 L 29.884766 88.84375 A 0.38080757 0.38080757 0 0 0 29.503906 88.392578 z M 28.757812 90.744141 L 26.822266 101.17773 A 0.38080757 0.38080757 0 0 0 27.189453 101.62891 L 38.341797 101.88086 L 28.335938 105.42188 A 0.38080757 0.38080757 0 0 0 28.128906 105.96484 L 33.484375 115.74805 L 25.416016 108.85352 A 0.38080757 0.38080757 0 0 0 24.84375 108.94531 L 19.050781 118.47266 L 20.984375 108.04102 A 0.38080757 0.38080757 0 0 0 20.619141 107.5918 L 9.4707031 107.33789 L 19.472656 103.79883 A 0.38080757 0.38080757 0 0 0 19.679688 103.25586 L 14.322266 93.472656 L 22.390625 100.36719 A 0.38080757 0.38080757 0 0 0 22.964844 100.27539 L 28.757812 90.744141 z "
         style="color:#000000;font-style:normal;font-variant:normal;font-weight:normal;font-stretch:normal;font-size:medium;line-height:normal;font-family:sans-serif;font-variant-ligatures:normal;font-variant-position:normal;font-variant-caps:normal;font-variant-numeric:normal;font-variant-alternates:normal;font-variant-east-asian:normal;font-feature-settings:normal;font-variation-settings:normal;text-indent:0;text-align:start;text-decoration:none;text-decoration-line:none;text-decoration-style:solid;text-decoration-color:#000000;letter-spacing:normal;word-spacing:normal;text-transform:none;writing-mode:lr-tb;direction:ltr;text-orientation:mixed;dominant-baseline:auto;baseline-shift:baseline;text-anchor:start;white-space:normal;shape-padding:0;shape-margin:0;inline-size:0;clip-rule:nonzero;display:inline;overflow:visible;visibility:visible;isolation:auto;mix-blend-mode:normal;color-interpolation:sRGB;color-interpolation-filters:linearRGB;solid-color:#000000;solid-opacity:1;vector-effect:none;fill:#ffb380;fill-opacity:1;fill-rule:nonzero;stroke:none;stroke-width:0.761539;stroke-linecap:butt;stroke-linejoin:round;stroke-miterlimit:4;stroke-dasharray:none;stroke-dashoffset:0;stroke-opacity:1.0;color-rendering:auto;image-rendering:auto;shape-rendering:auto;text-rendering:auto;enable-background:accumulate;stop-color:#000000;stop-opacity:1;" />
    </g>
  </g>
</svg>
