<?xml version="1.0" encoding="UTF-8" standalone="no"?>
<svg
   xmlns:dc="http://purl.org/dc/elements/1.1/"
   xmlns:cc="http://creativecommons.org/ns#"
   xmlns:rdf="http://www.w3.org/1999/02/22-rdf-syntax-ns#"
   xmlns:svg="http://www.w3.org/2000/svg"
   xmlns="http://www.w3.org/2000/svg"
   xmlns:sodipodi="http://sodipodi.sourceforge.net/DTD/sodipodi-0.dtd"
   xmlns:inkscape="http://www.inkscape.org/namespaces/inkscape"
   inkscape:version="1.0 (4035a4fb49, 2020-05-01)"
   sodipodi:docname="2020-IE-09_answerF.svg"
   id="svg8"
   version="1.1"
   viewBox="0 0 70 80"
   height="80mm"
   width="70mm">
  <defs
     id="defs2" />
  <sodipodi:namedview
     inkscape:snap-global="false"
     fit-margin-bottom="0"
     fit-margin-right="0"
     fit-margin-left="0"
     fit-margin-top="0"
     showgrid="false"
     inkscape:document-rotation="0"
     inkscape:current-layer="g9367"
     inkscape:document-units="mm"
     inkscape:cy="560"
     inkscape:cx="400"
     inkscape:zoom="0.35"
     inkscape:pageshadow="2"
     inkscape:pageopacity="0.0"
     borderopacity="1.0"
     bordercolor="#666666"
     pagecolor="#ffffff"
     id="base" />
  <metadata
     id="metadata5">
    <rdf:RDF>
      <cc:Work
         rdf:about="">
        <dc:format>image/svg+xml</dc:format>
        <dc:type
           rdf:resource="http://purl.org/dc/dcmitype/StillImage" />
        <dc:title></dc:title>
      </cc:Work>
    </rdf:RDF>
  </metadata>
  <g
     transform="translate(62.199152,-1.5955265)"
     id="layer1"
     inkscape:groupmode="layer"
     inkscape:label="Ebene 1">
    <g
       style="opacity:0.999"
       id="g9367"
       transform="translate(-200.79358,-11.659051)">
      <g
         style="opacity:0.998001"
         transform="translate(117.57172,-95.904617)"
         id="g1418-58-7">
        <path
           id="path837-20-9-6-2-6"
           style="font-variation-settings:normal;opacity:1;vector-effect:none;fill:#00efef;fill-opacity:1;stroke:none;stroke-width:0.365001;stroke-linecap:round;stroke-linejoin:round;stroke-miterlimit:4;stroke-dasharray:none;stroke-dashoffset:0;stroke-opacity:1;stop-color:#000000;stop-opacity:1"
           d="m 55.765537,125.88221 c -1.84743,0.0483 -3.6868,0.13377 -5.49113,0.20567 -6.8175,0.27946 -15.23927,0.76855 -22.34593,3.71243 -4.35496,1.66686 -6.09966,3.86176 -5.97327,6.02392 l -0.0558,0.002 c -0.20388,1.67031 0.19552,4.55781 0.13642,6.9479 -0.0416,1.68335 0.79892,1.06242 0.82372,1.94303 0.29651,10.52191 5.56509,21.38454 20.64732,26.29401 0.2904,1.31687 -0.11962,0.95517 0.0615,1.61024 0.83824,3.03178 26.40146,1.95941 26.41906,-0.79427 0.0323,-0.0158 0.10562,-0.51374 0.16692,-1.07693 0.151,-1.14808 -0.29353,0.12188 1.10794,-0.76016 12.04284,-4.90747 16.90569,-12.85878 18.76216,-26.14209 0.0937,-0.86045 0.50333,-0.194 0.48783,-1.07383 -0.0577,-3.27052 0.23068,-5.0544 -0.11059,-9.2723 l -0.093,0.003 c 0.005,-1.60567 -0.9882,-2.71805 -3.0334,-3.61375 -9.26167,-3.29806 -21.67959,-3.80564 -31.50971,-4.00905 z" />
        <g
           id="g1411-4-9">
          <path
             d="m 38.766717,126.99363 c -3.73694,0.52901 -7.49776,1.37703 -10.94868,2.80654 -0.32662,0.12502 -0.63879,0.25324 -0.93638,0.38396 -0.89257,0.39209 -1.65605,0.80897 -2.29857,1.24385 -0.1071,0.0725 -0.21118,0.14512 -0.3116,0.21859 -1.50617,1.10206 -2.26594,2.31183 -2.40967,3.52847 -0.0192,0.16223 -0.0272,0.32453 -0.0248,0.48679 0.002,0.16226 0.0154,0.32446 0.0388,0.48628 0.1871,1.2945 1.0352,2.56708 2.38539,3.69693 0.50632,0.42369 1.08321,0.82744 1.72237,1.20458 0.21305,0.12571 0.43334,0.24834 0.65991,0.36793 0.45314,0.23919 0.9326,0.46561 1.43609,0.67748 0.50349,0.21187 1.03087,0.40937 1.57974,0.59014 0.54888,0.18078 1.11913,0.34503 1.70843,0.49093 4.62915,1.45319 10.73599,2.26306 17.26148,2.47841 -5.49564,-4.25973 -10.88455,-10.56228 -9.86245,-18.66088 z"
             style="font-variation-settings:normal;opacity:1;vector-effect:none;fill:#19b5b5;fill-opacity:1;stroke:none;stroke-width:0.365001;stroke-linecap:round;stroke-linejoin:round;stroke-miterlimit:4;stroke-dasharray:none;stroke-dashoffset:0;stroke-opacity:1;stop-color:#000000;stop-opacity:1"
             id="path837-20-4-0-6-3-9" />
          <path
             id="path1145-4-7-6-7"
             d="m 55.636677,125.1494 c -1.85723,0.0485 -3.70084,0.1353 -5.50195,0.20703 -6.82425,0.27973 -15.31927,0.75667 -22.58594,3.76367 -2.69146,1.03143 -4.49145,2.27324 -5.50781,3.70508 -1.01754,1.43348 -1.17006,3.08547 -0.58399,4.55859 1.16846,2.93698 4.8596,5.28495 9.69141,6.49024 0.001,3.4e-4 0.003,-3.5e-4 0.004,0 9.57113,3.00352 25.0061,3.29292 37.80274,1.34571 9.08718,-1.38276 16.82219,-3.8009 20.24805,-7.60743 0.69951,-0.77724 1.21674,-1.62529 1.49414,-2.54297 a 0.73257328,0.73257328 0 0 0 0.006,-0.0156 c 0.36239,-1.30647 0.30353,-2.51546 -0.27735,-3.51367 -0.58088,-0.99822 -1.60102,-1.72217 -2.9668,-2.32032 a 0.73257328,0.73257328 0 0 0 -0.0488,-0.0195 c -9.43424,-3.35952 -21.89768,-3.84713 -31.74024,-4.05079 a 0.73257328,0.73257328 0 0 0 -0.0332,0 z m 0.0176,1.46484 c 9.80387,0.20309 22.1483,0.73218 31.23047,3.95703 1.19722,0.52733 1.92214,1.09804 2.27539,1.70508 0.3538,0.60799 0.42323,1.31774 0.13281,2.37305 -0.20399,0.67247 -0.59307,1.33279 -1.17773,1.98242 -2.8688,3.18758 -10.43385,5.77724 -19.38085,7.13868 -12.60069,1.9174 -27.98555,1.58282 -37.14649,-1.29298 a 0.73257328,0.73257328 0 0 0 -0.0449,-0.0117 c -4.57441,-1.13253 -7.86611,-3.46514 -8.72462,-5.62305 -0.42925,-1.07895 -0.35398,-2.08516 0.41602,-3.16992 0.76999,-1.08476 2.31637,-2.22135 4.8457,-3.18945 a 0.73257328,0.73257328 0 0 0 0.0176,-0.006 c 6.94352,-2.8763 15.28884,-3.37915 22.0957,-3.6582 1.80113,-0.0717 3.62986,-0.15695 5.46094,-0.20508 z"
             style="color:#000000;font-style:normal;font-variant:normal;font-weight:normal;font-stretch:normal;font-size:medium;line-height:normal;font-family:sans-serif;font-variant-ligatures:normal;font-variant-position:normal;font-variant-caps:normal;font-variant-numeric:normal;font-variant-alternates:normal;font-variant-east-asian:normal;font-feature-settings:normal;font-variation-settings:normal;text-indent:0;text-align:start;text-decoration:none;text-decoration-line:none;text-decoration-style:solid;text-decoration-color:#000000;letter-spacing:normal;word-spacing:normal;text-transform:none;writing-mode:lr-tb;direction:ltr;text-orientation:mixed;dominant-baseline:auto;baseline-shift:baseline;text-anchor:start;white-space:normal;shape-padding:0;shape-margin:0;inline-size:0;clip-rule:nonzero;display:inline;overflow:visible;visibility:visible;opacity:1;isolation:auto;mix-blend-mode:normal;color-interpolation:sRGB;color-interpolation-filters:linearRGB;solid-color:#000000;solid-opacity:1;vector-effect:none;fill:#034747;fill-opacity:1;fill-rule:nonzero;stroke:none;stroke-width:0.365001;stroke-linecap:round;stroke-linejoin:round;stroke-miterlimit:4;stroke-dasharray:none;stroke-dashoffset:0;stroke-opacity:1;color-rendering:auto;image-rendering:auto;shape-rendering:auto;text-rendering:auto;enable-background:accumulate;stop-color:#000000;stop-opacity:1" />
          <path
             id="path837-20-1-4-6-5-5"
             style="font-variation-settings:normal;opacity:1;vector-effect:none;fill:#00b6b6;fill-opacity:1;stroke:none;stroke-width:0.365001;stroke-linecap:round;stroke-linejoin:round;stroke-miterlimit:4;stroke-dasharray:none;stroke-dashoffset:0;stroke-opacity:1;stop-color:#000000;stop-opacity:1"
             d="m 74.870003,128.2851 c 0.003,0.0422 0.005,0.084 0.006,0.12712 l 0.0698,-0.004 c 0.67806,5.04856 -0.38479,10.41732 -2.53887,15.135 2.97293,-0.64866 5.69347,-1.43629 8.0176,-2.35903 0.54084,-2.98315 0.60355,-6.08226 0.31471,-9.23975 l -0.0703,0.004 c -0.0132,-1.20802 -0.77253,-2.03421 -2.32079,-2.68614 -1.10654,-0.37636 -2.27169,-0.69974 -3.47834,-0.9772 z" />
        </g>
      </g>
      <g
         style="opacity:0.998001"
         transform="translate(117.57172,-81.261067)"
         id="g1418-53-2">
        <path
           id="path837-20-9-6-9-9"
           style="font-variation-settings:normal;opacity:1;vector-effect:none;fill:#00efef;fill-opacity:1;stroke:none;stroke-width:0.365001;stroke-linecap:round;stroke-linejoin:round;stroke-miterlimit:4;stroke-dasharray:none;stroke-dashoffset:0;stroke-opacity:1;stop-color:#000000;stop-opacity:1"
           d="m 55.765537,125.88221 c -1.84743,0.0483 -3.6868,0.13377 -5.49113,0.20567 -6.8175,0.27946 -15.23927,0.76855 -22.34593,3.71243 -4.35496,1.66686 -6.09966,3.86176 -5.97327,6.02392 l -0.0558,0.002 c -0.20388,1.67031 0.19552,4.55781 0.13642,6.9479 -0.0416,1.68335 0.79892,1.06242 0.82372,1.94303 0.29651,10.52191 5.56509,21.38454 20.64732,26.29401 0.2904,1.31687 -0.11962,0.95517 0.0615,1.61024 0.83824,3.03178 26.40146,1.95941 26.41906,-0.79427 0.0323,-0.0158 0.10562,-0.51374 0.16692,-1.07693 0.151,-1.14808 -0.29353,0.12188 1.10794,-0.76016 12.04284,-4.90747 16.90569,-12.85878 18.76216,-26.14209 0.0937,-0.86045 0.50333,-0.194 0.48783,-1.07383 -0.0577,-3.27052 0.23068,-5.0544 -0.11059,-9.2723 l -0.093,0.003 c 0.005,-1.60567 -0.9882,-2.71805 -3.0334,-3.61375 -9.26167,-3.29806 -21.67959,-3.80564 -31.50971,-4.00905 z" />
        <g
           id="g1411-6-9">
          <path
             d="m 38.766717,126.99363 c -3.73694,0.52901 -7.49776,1.37703 -10.94868,2.80654 -0.32662,0.12502 -0.63879,0.25324 -0.93638,0.38396 -0.89257,0.39209 -1.65605,0.80897 -2.29857,1.24385 -0.1071,0.0725 -0.21118,0.14512 -0.3116,0.21859 -1.50617,1.10206 -2.26594,2.31183 -2.40967,3.52847 -0.0192,0.16223 -0.0272,0.32453 -0.0248,0.48679 0.002,0.16226 0.0154,0.32446 0.0388,0.48628 0.1871,1.2945 1.0352,2.56708 2.38539,3.69693 0.50632,0.42369 1.08321,0.82744 1.72237,1.20458 0.21305,0.12571 0.43334,0.24834 0.65991,0.36793 0.45314,0.23919 0.9326,0.46561 1.43609,0.67748 0.50349,0.21187 1.03087,0.40937 1.57974,0.59014 0.54888,0.18078 1.11913,0.34503 1.70843,0.49093 4.62915,1.45319 10.73599,2.26306 17.26148,2.47841 -5.49564,-4.25973 -10.88455,-10.56228 -9.86245,-18.66088 z"
             style="font-variation-settings:normal;opacity:1;vector-effect:none;fill:#19b5b5;fill-opacity:1;stroke:none;stroke-width:0.365001;stroke-linecap:round;stroke-linejoin:round;stroke-miterlimit:4;stroke-dasharray:none;stroke-dashoffset:0;stroke-opacity:1;stop-color:#000000;stop-opacity:1"
             id="path837-20-4-0-6-2-8" />
          <path
             id="path1145-4-7-0-3"
             d="m 55.636677,125.1494 c -1.85723,0.0485 -3.70084,0.1353 -5.50195,0.20703 -6.82425,0.27973 -15.31927,0.75667 -22.58594,3.76367 -2.69146,1.03143 -4.49145,2.27324 -5.50781,3.70508 -1.01754,1.43348 -1.17006,3.08547 -0.58399,4.55859 1.16846,2.93698 4.8596,5.28495 9.69141,6.49024 0.001,3.4e-4 0.003,-3.5e-4 0.004,0 9.57113,3.00352 25.0061,3.29292 37.80274,1.34571 9.08718,-1.38276 16.82219,-3.8009 20.24805,-7.60743 0.69951,-0.77724 1.21674,-1.62529 1.49414,-2.54297 a 0.73257328,0.73257328 0 0 0 0.006,-0.0156 c 0.36239,-1.30647 0.30353,-2.51546 -0.27735,-3.51367 -0.58088,-0.99822 -1.60102,-1.72217 -2.9668,-2.32032 a 0.73257328,0.73257328 0 0 0 -0.0488,-0.0195 c -9.43424,-3.35952 -21.89768,-3.84713 -31.74024,-4.05079 a 0.73257328,0.73257328 0 0 0 -0.0332,0 z m 0.0176,1.46484 c 9.80387,0.20309 22.1483,0.73218 31.23047,3.95703 1.19722,0.52733 1.92214,1.09804 2.27539,1.70508 0.3538,0.60799 0.42323,1.31774 0.13281,2.37305 -0.20399,0.67247 -0.59307,1.33279 -1.17773,1.98242 -2.8688,3.18758 -10.43385,5.77724 -19.38085,7.13868 -12.60069,1.9174 -27.98555,1.58282 -37.14649,-1.29298 a 0.73257328,0.73257328 0 0 0 -0.0449,-0.0117 c -4.57441,-1.13253 -7.86611,-3.46514 -8.72462,-5.62305 -0.42925,-1.07895 -0.35398,-2.08516 0.41602,-3.16992 0.76999,-1.08476 2.31637,-2.22135 4.8457,-3.18945 a 0.73257328,0.73257328 0 0 0 0.0176,-0.006 c 6.94352,-2.8763 15.28884,-3.37915 22.0957,-3.6582 1.80113,-0.0717 3.62986,-0.15695 5.46094,-0.20508 z"
             style="color:#000000;font-style:normal;font-variant:normal;font-weight:normal;font-stretch:normal;font-size:medium;line-height:normal;font-family:sans-serif;font-variant-ligatures:normal;font-variant-position:normal;font-variant-caps:normal;font-variant-numeric:normal;font-variant-alternates:normal;font-variant-east-asian:normal;font-feature-settings:normal;font-variation-settings:normal;text-indent:0;text-align:start;text-decoration:none;text-decoration-line:none;text-decoration-style:solid;text-decoration-color:#000000;letter-spacing:normal;word-spacing:normal;text-transform:none;writing-mode:lr-tb;direction:ltr;text-orientation:mixed;dominant-baseline:auto;baseline-shift:baseline;text-anchor:start;white-space:normal;shape-padding:0;shape-margin:0;inline-size:0;clip-rule:nonzero;display:inline;overflow:visible;visibility:visible;opacity:1;isolation:auto;mix-blend-mode:normal;color-interpolation:sRGB;color-interpolation-filters:linearRGB;solid-color:#000000;solid-opacity:1;vector-effect:none;fill:#034747;fill-opacity:1;fill-rule:nonzero;stroke:none;stroke-width:0.365001;stroke-linecap:round;stroke-linejoin:round;stroke-miterlimit:4;stroke-dasharray:none;stroke-dashoffset:0;stroke-opacity:1;color-rendering:auto;image-rendering:auto;shape-rendering:auto;text-rendering:auto;enable-background:accumulate;stop-color:#000000;stop-opacity:1" />
          <path
             id="path837-20-1-4-6-8-4"
             style="font-variation-settings:normal;opacity:1;vector-effect:none;fill:#00b6b6;fill-opacity:1;stroke:none;stroke-width:0.365001;stroke-linecap:round;stroke-linejoin:round;stroke-miterlimit:4;stroke-dasharray:none;stroke-dashoffset:0;stroke-opacity:1;stop-color:#000000;stop-opacity:1"
             d="m 74.870003,128.2851 c 0.003,0.0422 0.005,0.084 0.006,0.12712 l 0.0698,-0.004 c 0.67806,5.04856 -0.38479,10.41732 -2.53887,15.135 2.97293,-0.64866 5.69347,-1.43629 8.0176,-2.35903 0.54084,-2.98315 0.60355,-6.08226 0.31471,-9.23975 l -0.0703,0.004 c -0.0132,-1.20802 -0.77253,-2.03421 -2.32079,-2.68614 -1.10654,-0.37636 -2.27169,-0.69974 -3.47834,-0.9772 z" />
        </g>
      </g>
      <g
         id="g1418-58-7-2"
         transform="rotate(-12.880109,-366.09736,-436.7505)"
         style="opacity:0.998001">
        <path
           d="m 55.765537,125.88221 c -1.84743,0.0483 -3.6868,0.13377 -5.49113,0.20567 -6.8175,0.27946 -15.23927,0.76855 -22.34593,3.71243 -4.35496,1.66686 -6.09966,3.86176 -5.97327,6.02392 l -0.0558,0.002 c -0.20388,1.67031 0.19552,4.55781 0.13642,6.9479 -0.0416,1.68335 0.79892,1.06242 0.82372,1.94303 0.29651,10.52191 5.56509,21.38454 20.64732,26.29401 0.2904,1.31687 -0.11962,0.95517 0.0615,1.61024 0.83824,3.03178 26.40146,1.95941 26.41906,-0.79427 0.0323,-0.0158 0.10562,-0.51374 0.16692,-1.07693 0.151,-1.14808 -0.29353,0.12188 1.10794,-0.76016 12.04284,-4.90747 16.90569,-12.85878 18.76216,-26.14209 0.0937,-0.86045 0.50333,-0.194 0.48783,-1.07383 -0.0577,-3.27052 0.23068,-5.0544 -0.11059,-9.2723 l -0.093,0.003 c 0.005,-1.60567 -0.9882,-2.71805 -3.0334,-3.61375 -9.26167,-3.29806 -21.67959,-3.80564 -31.50971,-4.00905 z"
           style="font-variation-settings:normal;opacity:1;vector-effect:none;fill:#00efef;fill-opacity:1;stroke:none;stroke-width:0.365001;stroke-linecap:round;stroke-linejoin:round;stroke-miterlimit:4;stroke-dasharray:none;stroke-dashoffset:0;stroke-opacity:1;stop-color:#000000;stop-opacity:1"
           id="path837-20-9-6-2-6-5" />
        <g
           id="g1411-4-9-5">
          <path
             id="path837-20-4-0-6-3-9-8"
             style="font-variation-settings:normal;opacity:1;vector-effect:none;fill:#19b5b5;fill-opacity:1;stroke:none;stroke-width:0.365001;stroke-linecap:round;stroke-linejoin:round;stroke-miterlimit:4;stroke-dasharray:none;stroke-dashoffset:0;stroke-opacity:1;stop-color:#000000;stop-opacity:1"
             d="m 38.766717,126.99363 c -3.73694,0.52901 -7.49776,1.37703 -10.94868,2.80654 -0.32662,0.12502 -0.63879,0.25324 -0.93638,0.38396 -0.89257,0.39209 -1.65605,0.80897 -2.29857,1.24385 -0.1071,0.0725 -0.21118,0.14512 -0.3116,0.21859 -1.50617,1.10206 -2.26594,2.31183 -2.40967,3.52847 -0.0192,0.16223 -0.0272,0.32453 -0.0248,0.48679 0.002,0.16226 0.0154,0.32446 0.0388,0.48628 0.1871,1.2945 1.0352,2.56708 2.38539,3.69693 0.50632,0.42369 1.08321,0.82744 1.72237,1.20458 0.21305,0.12571 0.43334,0.24834 0.65991,0.36793 0.45314,0.23919 0.9326,0.46561 1.43609,0.67748 0.50349,0.21187 1.03087,0.40937 1.57974,0.59014 0.54888,0.18078 1.11913,0.34503 1.70843,0.49093 4.62915,1.45319 10.73599,2.26306 17.26148,2.47841 -5.49564,-4.25973 -10.88455,-10.56228 -9.86245,-18.66088 z" />
          <path
             style="color:#000000;font-style:normal;font-variant:normal;font-weight:normal;font-stretch:normal;font-size:medium;line-height:normal;font-family:sans-serif;font-variant-ligatures:normal;font-variant-position:normal;font-variant-caps:normal;font-variant-numeric:normal;font-variant-alternates:normal;font-variant-east-asian:normal;font-feature-settings:normal;font-variation-settings:normal;text-indent:0;text-align:start;text-decoration:none;text-decoration-line:none;text-decoration-style:solid;text-decoration-color:#000000;letter-spacing:normal;word-spacing:normal;text-transform:none;writing-mode:lr-tb;direction:ltr;text-orientation:mixed;dominant-baseline:auto;baseline-shift:baseline;text-anchor:start;white-space:normal;shape-padding:0;shape-margin:0;inline-size:0;clip-rule:nonzero;display:inline;overflow:visible;visibility:visible;opacity:1;isolation:auto;mix-blend-mode:normal;color-interpolation:sRGB;color-interpolation-filters:linearRGB;solid-color:#000000;solid-opacity:1;vector-effect:none;fill:#19b5b5;fill-opacity:1;fill-rule:nonzero;stroke:none;stroke-width:0.365001;stroke-linecap:round;stroke-linejoin:round;stroke-miterlimit:4;stroke-dasharray:none;stroke-dashoffset:0;stroke-opacity:1;color-rendering:auto;image-rendering:auto;shape-rendering:auto;text-rendering:auto;enable-background:accumulate;stop-color:#000000;stop-opacity:1"
             d="m 55.636677,125.1494 c -1.85723,0.0485 -3.70084,0.1353 -5.50195,0.20703 -6.82425,0.27973 -15.31927,0.75667 -22.58594,3.76367 -2.69146,1.03143 -4.49145,2.27324 -5.50781,3.70508 -1.01754,1.43348 -1.17006,3.08547 -0.58399,4.55859 1.16846,2.93698 4.8596,5.28495 9.69141,6.49024 0.001,3.4e-4 0.003,-3.5e-4 0.004,0 9.57113,3.00352 25.0061,3.29292 37.80274,1.34571 9.08718,-1.38276 16.82219,-3.8009 20.24805,-7.60743 0.69951,-0.77724 1.21674,-1.62529 1.49414,-2.54297 a 0.73257328,0.73257328 0 0 0 0.006,-0.0156 c 0.36239,-1.30647 0.30353,-2.51546 -0.27735,-3.51367 -0.58088,-0.99822 -1.60102,-1.72217 -2.9668,-2.32032 a 0.73257328,0.73257328 0 0 0 -0.0488,-0.0195 c -9.43424,-3.35952 -21.89768,-3.84713 -31.74024,-4.05079 a 0.73257328,0.73257328 0 0 0 -0.0332,0 z m 0.0176,1.46484 c 9.80387,0.20309 22.1483,0.73218 31.23047,3.95703 1.19722,0.52733 1.92214,1.09804 2.27539,1.70508 0.3538,0.60799 0.42323,1.31774 0.13281,2.37305 -0.20399,0.67247 -0.59307,1.33279 -1.17773,1.98242 -2.8688,3.18758 -10.43385,5.77724 -19.38085,7.13868 -12.60069,1.9174 -27.98555,1.58282 -37.14649,-1.29298 a 0.73257328,0.73257328 0 0 0 -0.0449,-0.0117 c -4.57441,-1.13253 -7.86611,-3.46514 -8.72462,-5.62305 -0.42925,-1.07895 -0.35398,-2.08516 0.41602,-3.16992 0.76999,-1.08476 2.31637,-2.22135 4.8457,-3.18945 a 0.73257328,0.73257328 0 0 0 0.0176,-0.006 c 6.94352,-2.8763 15.28884,-3.37915 22.0957,-3.6582 1.80113,-0.0717 3.62986,-0.15695 5.46094,-0.20508 z"
             id="path1145-4-7-6-7-0" />
          <path
             d="m 74.870003,128.2851 c 0.003,0.0422 0.005,0.084 0.006,0.12712 l 0.0698,-0.004 c 0.67806,5.04856 -0.38479,10.41732 -2.53887,15.135 2.97293,-0.64866 5.69347,-1.43629 8.0176,-2.35903 0.54084,-2.98315 0.60355,-6.08226 0.31471,-9.23975 l -0.0703,0.004 c -0.0132,-1.20802 -0.77253,-2.03421 -2.32079,-2.68614 -1.10654,-0.37636 -2.27169,-0.69974 -3.47834,-0.9772 z"
             style="font-variation-settings:normal;opacity:1;vector-effect:none;fill:#7affff;fill-opacity:1;stroke:none;stroke-width:0.365001;stroke-linecap:round;stroke-linejoin:round;stroke-miterlimit:4;stroke-dasharray:none;stroke-dashoffset:0;stroke-opacity:1;stop-color:#000000;stop-opacity:1"
             id="path837-20-1-4-6-5-5-2" />
        </g>
      </g>
      <g
         transform="rotate(-12.880109,-319.00128,-420.12388)"
         id="g1307-4-7-1-5"
         style="opacity:0.998001">
        <path
           id="path837-20-49-9-7-3-3"
           style="font-variation-settings:normal;opacity:1;vector-effect:none;fill:#00efef;fill-opacity:1;stroke:none;stroke-width:1.37953;stroke-linecap:round;stroke-linejoin:round;stroke-miterlimit:4;stroke-dasharray:none;stroke-dashoffset:0;stroke-opacity:1;stop-color:#000000;stop-opacity:1"
           d="m 359.53125,463.98438 c -0.12665,0.7412 -0.2839,1.49788 -0.50391,2.29101 -0.90909,3.00752 -2.62777,5.86373 -5.05664,8.5625 -11.89542,13.21724 -40.80833,22.67739 -74.88867,27.86328 -47.99773,7.30364 -106.24582,6.12601 -141.64453,-4.98633 C 117.90636,492.8793 103.8909,482.70185 101.71289,472 c -0.22236,1.15274 -0.31353,2.30717 -0.24609,3.46094 l -0.21094,0.008 c -0.77057,6.31298 0.73899,17.22635 0.51562,26.25977 -0.15722,6.36226 3.01959,4.01546 3.11329,7.34375 1.1207,39.76784 21.0334,80.82342 78.03711,99.3789 1.09757,4.97715 -0.45213,3.61008 0.23242,6.08594 3.16815,11.4587 99.78504,7.40566 99.85156,-3.00195 0.12208,-0.0597 0.39917,-1.94172 0.63086,-4.07032 0.57071,-4.3392 -1.1094,0.46065 4.1875,-2.87304 45.51624,-18.54792 63.89549,-48.60005 70.91211,-98.80469 0.35414,-3.2521 1.90233,-0.73325 1.84375,-4.05859 -0.21808,-12.36102 0.87187,-19.10326 -0.41797,-35.04493 l -0.35156,0.0117 c 0.003,-0.94959 -0.0967,-1.84863 -0.2793,-2.71093 z"
           transform="scale(0.26458333)" />
        <path
           transform="matrix(0.26458333,0,0,0.26458333,-68.91503,14.383691)"
           d="m 499.77734,505.12305 c -0.22557,-0.0203 -0.45421,-0.012 -0.67968,-0.0332 -5.21233,-0.48984 -10.39948,-1.20765 -15.5586,-2.11523 -3.70649,-0.65204 -7.38092,-1.50612 -11.05859,-2.3418 l -22.69336,14.34766 c 2.05156,1.74586 3.69339,2.99544 5.2793,4.13476 3.34401,0.35648 6.82481,0.68143 10.46289,0.90235 4.05163,0.24603 8.22805,0.39005 12.40234,0.38867 4.17429,-10e-4 8.34484,-0.1481 12.38672,-0.48047 4.04188,-0.33236 7.95497,-0.85074 11.60937,-1.59766 1.82721,-0.37344 3.58898,-0.80411 5.27149,-1.29687 1.21527,-0.35592 2.33547,-0.78222 3.46094,-1.20508 -3.84134,-3.21699 -7.48276,-6.91242 -10.88282,-10.70312 z"
           style="opacity:0.999;fill:#ffcc00;stroke:none;stroke-width:0.999999px;stroke-linecap:butt;stroke-linejoin:miter;stroke-opacity:1"
           id="path1115-9-0-7" />
        <path
           transform="matrix(0.26458333,0,0,0.26458333,-68.91503,14.383691)"
           d="m 488.35352,490.5957 -15.87305,10.03711 c 3.67767,0.83568 7.3521,1.68976 11.05859,2.3418 5.15912,0.90758 10.34627,1.62539 15.5586,2.11523 0.22547,0.0212 0.45411,0.0129 0.67968,0.0332 -4.37553,-4.87826 -8.31824,-9.9331 -11.42382,-14.52735 z"
           style="opacity:0.999;fill:#ff6600;stroke:none;stroke-width:0.999999px;stroke-linecap:butt;stroke-linejoin:miter;stroke-opacity:1"
           id="path1118-0-6-2" />
        <path
           transform="matrix(0.26458333,0,0,0.26458333,-68.91503,14.383691)"
           d="m 510.66016,515.82617 c -1.12547,0.42286 -2.24567,0.84916 -3.46094,1.20508 -1.68251,0.49276 -3.44428,0.92342 -5.27149,1.29687 -3.6544,0.74692 -7.56749,1.2653 -11.60937,1.59766 -4.04188,0.33237 -8.21243,0.47909 -12.38672,0.48047 -4.17429,10e-4 -8.35071,-0.14264 -12.40234,-0.38867 -3.63808,-0.22092 -7.11888,-0.54587 -10.46289,-0.90235 5.86843,4.2159 9.64235,5.04347 18.42968,6.73438 15.64332,3.00299 30.73021,5.06869 44.51368,-4.50977 -2.49537,-1.56343 -4.94113,-3.49665 -7.34961,-5.51367 z"
           style="opacity:0.999;fill:#d40000;stroke:none;stroke-width:0.999999px;stroke-linecap:butt;stroke-linejoin:miter;stroke-opacity:1"
           id="path1075-2-4-3-0" />
        <path
           sodipodi:nodetypes="ccccc"
           id="path1075-3-2-7"
           d="m 68.14149,152.32177 c -3.068372,-1.92245 -5.986019,-5.38249 -7.846539,-8.13485 l -10.20391,6.45216 c 2.551398,2.17122 3.319692,2.30716 6.272987,2.87545 4.13896,0.79454 8.130587,1.34154 11.777462,-1.19276 z"
           style="fill:none;stroke:#000000;stroke-width:0.264583px;stroke-linecap:butt;stroke-linejoin:miter;stroke-opacity:1" />
        <path
           sodipodi:nodetypes="cc"
           id="path1063-1-6-0"
           d="m 59.841942,155.28056 c -0.657136,-2.19408 -0.638558,-7.77927 0.453009,-10.97499"
           style="fill:none;stroke:#552200;stroke-width:0.765;stroke-linecap:round;stroke-linejoin:miter;stroke-miterlimit:4;stroke-dasharray:none;stroke-opacity:1" />
        <path
           style="opacity:0.999;fill:#803300;stroke:none;stroke-width:0.264583px;stroke-linecap:butt;stroke-linejoin:miter;stroke-opacity:1"
           d="m 70.49886,158.42494 c 0.74423,-0.42571 6.510449,-4.88964 6.051156,-5.53151 -9.41437,2.96164 -21.152018,3.33815 -30.255781,-0.11865 -0.0537,0 0.539339,1.27288 0.901291,1.99669 1.483183,2.73895 4.066701,2.6474 4.907836,3.1585 6.131833,3.98511 12.263665,2.77211 18.395498,0.49497 z"
           id="path1061-4-5-0-9"
           sodipodi:nodetypes="cccccc" />
        <path
           sodipodi:nodetypes="ccccc"
           id="path1061-0-3-2"
           d="m 70.498861,158.42494 c 0.74423,-0.42571 6.510448,-4.88964 6.051156,-5.53151 -9.41437,2.96164 -21.152018,3.33815 -30.255781,-0.11865 -0.0537,0 0.539339,1.27288 0.901291,1.99669 1.483183,2.73895 4.066701,2.6474 4.907836,3.1585"
           style="fill:none;stroke:#000000;stroke-width:0.264583px;stroke-linecap:butt;stroke-linejoin:miter;stroke-opacity:1" />
        <path
           d="m 87.59611,152.24761 c -0.706904,1.00477 -2.384945,-0.15921 -2.703581,0.39234 -0.156153,1.80912 -2.293461,2.60124 -2.803632,1.6001 -0.422309,2.16908 -4.036813,1.5272 -4.21914,0.99219 -0.59164,1.3023 -1.964026,3.12331 -3.529569,2.60249 -0.962759,-0.96725 -1.845106,-2.28124 -2.580671,-0.34061 -1.000023,1.8159 -3.187898,0.89325 -4.01474,-0.51677 -1.325218,0.22308 -2.832775,2.14241 -3.916419,0.14804 -1.593654,-0.81632 -2.25913,2.16464 -4.021074,1.82183 -1.229269,-0.19667 -1.845658,-2.62367 -3.122108,-0.89302 -1.580487,1.6048 -3.123036,-0.70863 -4.35122,-0.85864 -0.627325,2.24746 -2.878498,1.05316 -3.938488,-0.11456 -0.860377,-1.15504 -1.990991,2.70384 -2.117482,0.38431 -1.285138,-0.18427 -1.772687,-3.48945 -2.494901,-1.17643 -1.345596,1.17375 -3.428197,7.7e-4 -5.005097,-0.28981 -1.174606,-0.4277 1.189556,0.98826 1.634801,1.30966 2.488684,1.56377 5.192697,2.76842 7.984967,3.67674 -0.523606,2.17064 1.631485,2.8805 3.420516,3.00369 5.922329,0.75008 11.94799,0.48636 17.855424,-0.27974 1.667273,-0.30655 3.462978,-0.46799 4.914231,-1.41196 0.726866,-0.97646 -0.05643,-2.40409 1.56525,-2.33312 4.291121,-1.73813 8.368121,-4.20992 11.442933,-7.71673 z"
           style="opacity:0.999;fill:#5599ff;stroke:none;stroke-width:0.365001;stroke-linecap:round;stroke-linejoin:round;stroke-miterlimit:4;stroke-dasharray:none;stroke-opacity:1"
           id="path980-5-3-1" />
        <path
           transform="matrix(0.26458333,0,0,0.26458333,-68.91503,14.383691)"
           d="m 602.19727,506.38086 c -6.32975,4.18039 -14.83329,5.72006 -20.56836,6.41211 1.36536,2.00447 5.15854,6.31687 8.30468,10.12109 4.69966,-5.04223 8.7691,-10.53226 12.26368,-16.5332 z"
           style="font-variation-settings:normal;opacity:0.999;vector-effect:none;fill:#803300;fill-opacity:1;stroke:none;stroke-width:0.999999px;stroke-linecap:butt;stroke-linejoin:miter;stroke-miterlimit:4;stroke-dasharray:none;stroke-dashoffset:0;stroke-opacity:1;stop-color:#000000;stop-opacity:1"
           id="path837-20-49-9-3-0-6-4" />
        <path
           id="path1145-3-5-1-5-6"
           style="color:#000000;font-style:normal;font-variant:normal;font-weight:normal;font-stretch:normal;font-size:medium;line-height:normal;font-family:sans-serif;font-variant-ligatures:normal;font-variant-position:normal;font-variant-caps:normal;font-variant-numeric:normal;font-variant-alternates:normal;font-variant-east-asian:normal;font-feature-settings:normal;font-variation-settings:normal;text-indent:0;text-align:start;text-decoration:none;text-decoration-line:none;text-decoration-style:solid;text-decoration-color:#000000;letter-spacing:normal;word-spacing:normal;text-transform:none;writing-mode:lr-tb;direction:ltr;text-orientation:mixed;dominant-baseline:auto;baseline-shift:baseline;text-anchor:start;white-space:normal;shape-padding:0;shape-margin:0;inline-size:0;clip-rule:nonzero;display:inline;overflow:visible;visibility:visible;opacity:1;isolation:auto;mix-blend-mode:normal;color-interpolation:sRGB;color-interpolation-filters:linearRGB;solid-color:#000000;solid-opacity:1;vector-effect:none;fill:#0dcdcd;fill-opacity:1;fill-rule:nonzero;stroke:none;stroke-width:1.37953;stroke-linecap:round;stroke-linejoin:round;stroke-miterlimit:4;stroke-dasharray:none;stroke-dashoffset:0;stroke-opacity:1;color-rendering:auto;image-rendering:auto;shape-rendering:auto;text-rendering:auto;enable-background:accumulate;stop-color:#000000;stop-opacity:1"
           d="m 359.41016,457.98828 c 0.61477,2.40368 0.49286,5.13023 -0.38282,8.28711 -0.80177,2.65249 -2.23534,5.18688 -4.22851,7.59961 -0.81252,1.56278 -1.90226,3.10861 -3.2793,4.63867 -10.84275,12.04759 -39.43457,21.83491 -73.25,26.98047 -47.62465,7.24687 -105.77246,5.98241 -140.39648,-4.88672 a 2.7687809,2.7687809 0 0 0 -0.16993,-0.043 c -17.28907,-4.28046 -29.72988,-13.09806 -32.9746,-21.2539 -0.13234,-0.33263 -0.23132,-0.66096 -0.3379,-0.99024 -3.29359,-5.09198 -3.99748,-10.54667 -1.35742,-15.7832 -0.44059,0.52348 -0.86048,1.05211 -1.24218,1.58984 -3.845787,5.41792 -4.422103,11.66078 -2.207036,17.22852 4.416186,11.10036 18.366906,19.97586 36.628906,24.53125 0.004,0.001 0.0119,-10e-4 0.0156,0 36.17435,11.35189 94.5097,12.44551 142.875,5.08594 34.34521,-5.22618 63.58116,-14.36699 76.52929,-28.75391 2.64382,-2.9376 4.59805,-6.14098 5.64649,-9.60937 a 2.7687809,2.7687809 0 0 0 0.0234,-0.0605 c 1.36967,-4.93784 1.14659,-9.5065 -1.04882,-13.2793 -0.25718,-0.44194 -0.54158,-0.86685 -0.84375,-1.28125 z"
           transform="scale(0.26458333)" />
        <path
           d="m 32.206869,137.9636 c 0.51619,8.87765 5.21463,17.87228 17.92167,22.00858 0.25257,1.14537 -0.1045,0.83077 0.053,1.40051 0.51695,1.86971 11.83977,1.9437 18.39361,0.97533 -6.49494,0.54617 -14.7682,0.25643 -15.2083,-1.33533 -0.15754,-0.56976 0.19955,-0.25516 -0.0531,-1.40052 -12.1796,-3.96463 -16.99838,-12.39268 -17.83223,-20.90292 -1.14358,-0.22169 -2.23654,-0.47076 -3.27474,-0.74565 z"
           style="font-variation-settings:normal;opacity:1;vector-effect:none;fill:#7affff;fill-opacity:1;stroke:none;stroke-width:0.365001;stroke-linecap:round;stroke-linejoin:round;stroke-miterlimit:4;stroke-dasharray:none;stroke-dashoffset:0;stroke-opacity:1;stop-color:#000000;stop-opacity:1"
           id="path837-2-3-0-32-7-2" />
        <path
           id="path1178-9-4-16-7-2"
           d="m 94.059119,134.0497 a 0.53250005,0.53250005 0 0 0 -0.36523,0.15234 c -3.17114,3.0999 -10.51787,5.50776 -19.13086,6.81836 -12.62764,1.9215 -28.01943,1.59258 -37.23633,-1.30078 a 0.53250005,0.53250005 0 0 0 -0.66797,0.34766 0.53250005,0.53250005 0 0 0 0.34961,0.66797 c 9.51492,2.98691 24.94369,3.28122 37.71484,1.33789 8.71089,-1.32551 16.1672,-3.64142 19.71485,-7.10938 a 0.53250005,0.53250005 0 0 0 0.008,-0.75391 0.53250005,0.53250005 0 0 0 -0.38672,-0.16015 z"
           style="color:#000000;font-style:normal;font-variant:normal;font-weight:normal;font-stretch:normal;font-size:medium;line-height:normal;font-family:sans-serif;font-variant-ligatures:normal;font-variant-position:normal;font-variant-caps:normal;font-variant-numeric:normal;font-variant-alternates:normal;font-variant-east-asian:normal;font-feature-settings:normal;font-variation-settings:normal;text-indent:0;text-align:start;text-decoration:none;text-decoration-line:none;text-decoration-style:solid;text-decoration-color:#000000;letter-spacing:normal;word-spacing:normal;text-transform:none;writing-mode:lr-tb;direction:ltr;text-orientation:mixed;dominant-baseline:auto;baseline-shift:baseline;text-anchor:start;white-space:normal;shape-padding:0;shape-margin:0;inline-size:0;clip-rule:nonzero;display:inline;overflow:visible;visibility:visible;opacity:1;isolation:auto;mix-blend-mode:normal;color-interpolation:sRGB;color-interpolation-filters:linearRGB;solid-color:#000000;solid-opacity:1;vector-effect:none;fill:#37fbfb;fill-opacity:1;fill-rule:nonzero;stroke:none;stroke-width:0.365001;stroke-linecap:round;stroke-linejoin:round;stroke-miterlimit:4;stroke-dasharray:none;stroke-dashoffset:0;stroke-opacity:1;color-rendering:auto;image-rendering:auto;shape-rendering:auto;text-rendering:auto;enable-background:accumulate;stop-color:#000000;stop-opacity:1" />
        <path
           id="path837-2-3-0-3-0-7-3"
           style="font-variation-settings:normal;opacity:0.999;vector-effect:none;fill:#7eaef5;fill-opacity:1;stroke:none;stroke-width:0.365001;stroke-linecap:round;stroke-linejoin:round;stroke-miterlimit:4;stroke-dasharray:none;stroke-dashoffset:0;stroke-opacity:1;stop-color:#000000;stop-opacity:1"
           d="m 44.431536,155.24847 c -0.134059,0.067 -0.268589,0.33678 -0.40721,0.62271 -0.138628,0.28593 -0.281077,0.58823 -0.431498,0.71985 -0.09338,0.0817 -0.242292,0.13425 -0.43098,0.16433 2.001885,1.25611 4.3195,2.34547 6.996472,3.21686 0.252569,1.14537 -0.104791,0.83069 0.05271,1.40043 0.516951,1.86971 11.839871,1.9435 18.393712,0.97514 -6.494942,0.54616 -14.768275,0.25643 -15.208375,-1.33533 -0.157541,-0.56975 0.199941,-0.25507 -0.05271,-1.40043 -2.134531,-0.69482 -4.038645,-1.52885 -5.739186,-2.47426 -0.08335,0.0888 -0.169759,0.18675 -0.256831,0.28938 -0.33488,0.39473 -0.670277,0.83528 -0.798917,0.89246 -0.12709,0.0565 -0.109622,-0.82534 -0.240813,-0.85422 -0.131188,-0.0289 -0.26312,-0.0947 -0.39274,-0.18655 -0.259252,-0.18371 -0.509648,-0.47082 -0.728638,-0.77204 -0.43797,-0.60245 -0.749994,-1.26083 -0.754994,-1.25833 z" />
        <path
           style="font-variation-settings:normal;opacity:1;vector-effect:none;fill:none;fill-opacity:1;stroke:#000000;stroke-width:0.365001;stroke-linecap:round;stroke-linejoin:round;stroke-miterlimit:4;stroke-dasharray:none;stroke-dashoffset:0;stroke-opacity:1;stop-color:#000000;stop-opacity:1"
           d="m 74.585809,160.05225 c -1.48351,0.81471 -4.75142,1.40072 -8.57651,1.72771 -5.60804,0.47942 -12.41377,0.40212 -16.54974,-0.3273"
           id="path833-7-0-4-7-1-0-9"
           sodipodi:nodetypes="csc" />
        <path
           transform="matrix(0.26458333,0,0,0.26458333,-68.91503,14.383691)"
           d="m 616.1582,465.0332 c -8.25512,9.18887 -16.73554,22.46033 -27.35547,29.37305 5.59861,0.53142 12.93904,2.78987 18.07813,2.89063 3.49776,-7.64816 6.27649,-16.02646 8.47461,-25.20508 z"
           style="fill:#44aa00;stroke:#000000;stroke-width:0.999999px;stroke-linecap:butt;stroke-linejoin:miter;stroke-opacity:1"
           id="path1069-7-4-1" />
        <path
           transform="matrix(0.26458333,0,0,0.26458333,-68.91503,14.383691)"
           d="m 602.19727,506.38086 c -6.32975,4.18039 -14.83329,5.72006 -20.56836,6.41211 1.36536,2.00447 5.15854,6.31687 8.30468,10.12109 4.69966,-5.04223 8.7691,-10.53226 12.26368,-16.5332 z"
           style="font-variation-settings:normal;opacity:1;vector-effect:none;fill:none;fill-opacity:1;stroke:#000000;stroke-width:0.999999px;stroke-linecap:butt;stroke-linejoin:miter;stroke-miterlimit:4;stroke-dasharray:none;stroke-dashoffset:0;stroke-opacity:1;stop-color:#000000;stop-opacity:1"
           id="path837-20-49-9-97-3-3-2" />
        <path
           id="path1250-8-1-2"
           d="m 33.835972,136.59331 c -1.363985,-0.78344 -2.496865,-0.16494 -3.084901,1.30516 -1.410555,3.52638 4.074046,5.29931 5.813856,3.5595 1.814999,-1.815 -1.707263,-5.8501 -4.627356,-4.39006"
           style="fill:#ffcc00;stroke:none;stroke-width:0.965;stroke-linecap:round;stroke-linejoin:round;stroke-miterlimit:4;stroke-dasharray:none;stroke-opacity:1" />
        <path
           id="path1252-1-5-4"
           d="m 38.937927,142.16987 c 2.473675,1.83802 5.102191,3.33111 7.83091,4.74601"
           style="fill:none;stroke:#ffcc00;stroke-width:0.965;stroke-linecap:round;stroke-linejoin:round;stroke-miterlimit:4;stroke-dasharray:none;stroke-opacity:1" />
        <path
           id="path1254-7-3-6"
           d="m 34.073274,143.11907 c 2.074543,3.28452 2.840477,7.82582 6.169806,10.20391"
           style="fill:none;stroke:#ffcc00;stroke-width:0.965;stroke-linecap:round;stroke-linejoin:round;stroke-miterlimit:4;stroke-dasharray:none;stroke-opacity:1" />
        <path
           id="path1256-0-1-8"
           d="m 31.700272,142.52582 c 0.09947,1.25513 -0.355952,2.42542 -0.355952,3.67815"
           style="fill:none;stroke:#ffcc00;stroke-width:0.965;stroke-linecap:round;stroke-linejoin:round;stroke-miterlimit:4;stroke-dasharray:none;stroke-opacity:1" />
        <path
           id="path1258-6-8-2"
           d="m 37.751427,137.77982 c 2.080231,-0.33093 4.049972,-1.06785 6.169806,-1.06785"
           style="fill:none;stroke:#ffcc00;stroke-width:0.965;stroke-linecap:round;stroke-linejoin:round;stroke-miterlimit:4;stroke-dasharray:none;stroke-opacity:1" />
        <path
           id="path1260-86-1-7"
           d="m 33.124074,135.52546 c -0.81973,-1.04374 -0.561076,-1.51831 -0.474602,-2.72895"
           style="fill:none;stroke:#ffcc00;stroke-width:0.965;stroke-linecap:round;stroke-linejoin:round;stroke-miterlimit:4;stroke-dasharray:none;stroke-opacity:1" />
        <path
           id="path1262-6-5-2"
           d="m 30.513771,135.64411 c -1.142711,-1.60521 -2.256742,-3.09002 -3.084904,-4.86465"
           style="fill:none;stroke:#ffcc00;stroke-width:0.965;stroke-linecap:round;stroke-linejoin:round;stroke-miterlimit:4;stroke-dasharray:none;stroke-opacity:1" />
        <path
           transform="matrix(0.26458333,0,0,0.26458333,-68.91503,14.383691)"
           d="m 382.19336,467.07422 c 0.27783,4.77817 0.88891,9.56288 1.84961,14.30469 4.16422,1.72116 9.03695,1.98259 12.41601,0.41211 -0.876,-3.94095 -1.49852,-7.91656 -1.88867,-11.89844 -4.32219,-0.83789 -8.45305,-1.77941 -12.37695,-2.81836 z m 7.00976,17.66016 a 1.8236202,1.8236202 0 0 0 -0.92773,0.28124 1.8236202,1.8236202 0 0 0 -0.56836,2.51758 c 7.54373,11.94361 10.4316,29.52288 23.80078,39.07227 a 1.8236202,1.8236202 0 0 0 2.53907,-0.41992 1.8236202,1.8236202 0 0 0 -0.42188,-2.54688 c -11.79739,-8.42672 -14.70004,-25.17043 -22.83789,-38.05469 a 1.8236202,1.8236202 0 0 0 -1.4707,-0.84765 1.8236202,1.8236202 0 0 0 -0.11329,-0.002 z"
           style="font-variation-settings:normal;opacity:1;vector-effect:none;fill:#f1e4b0;fill-opacity:1;stroke:none;stroke-width:1.37953;stroke-linecap:round;stroke-linejoin:round;stroke-miterlimit:4;stroke-dasharray:none;stroke-dashoffset:0;stroke-opacity:1;stop-color:#000000;stop-opacity:1"
           id="path837-2-3-0-27-9-8-6" />
        <path
           style="opacity:0.999;fill:none;stroke:#ffcc00;stroke-width:0.964999;stroke-linecap:round;stroke-linejoin:round;stroke-miterlimit:4;stroke-dasharray:none;stroke-opacity:1"
           d="m 33.124073,135.52546 c -0.819731,-1.04374 -0.561077,-1.51831 -0.474603,-2.72895"
           id="path1260-8-5-1-1" />
        <path
           transform="matrix(0.26458333,0,0,0.26458333,-68.91503,14.383691)"
           d="m 383.88086,445.71875 a 1.8236202,1.8236202 0 0 0 -0.10742,0.004 1.8236202,1.8236202 0 0 0 -1.48438,0.90625 c 1.09273,0.48581 2.21398,0.95288 3.36328,1.40039 0.0108,-0.13576 0.0231,-0.21605 0.0332,-0.35742 a 1.8236202,1.8236202 0 0 0 -1.69141,-1.94922 1.8236202,1.8236202 0 0 0 -0.11328,-0.004 z"
           style="color:#000000;font-style:normal;font-variant:normal;font-weight:normal;font-stretch:normal;font-size:medium;line-height:normal;font-family:sans-serif;font-variant-ligatures:normal;font-variant-position:normal;font-variant-caps:normal;font-variant-numeric:normal;font-variant-alternates:normal;font-variant-east-asian:normal;font-feature-settings:normal;font-variation-settings:normal;text-indent:0;text-align:start;text-decoration:none;text-decoration-line:none;text-decoration-style:solid;text-decoration-color:#000000;letter-spacing:normal;word-spacing:normal;text-transform:none;writing-mode:lr-tb;direction:ltr;text-orientation:mixed;dominant-baseline:auto;baseline-shift:baseline;text-anchor:start;white-space:normal;shape-padding:0;shape-margin:0;inline-size:0;clip-rule:nonzero;display:inline;overflow:visible;visibility:visible;opacity:1;isolation:auto;mix-blend-mode:normal;color-interpolation:sRGB;color-interpolation-filters:linearRGB;solid-color:#000000;solid-opacity:1;vector-effect:none;fill:#c49d00;fill-opacity:1;fill-rule:nonzero;stroke:none;stroke-width:1.37953;stroke-linecap:round;stroke-linejoin:round;stroke-miterlimit:4;stroke-dasharray:none;stroke-dashoffset:0;stroke-opacity:1;color-rendering:auto;image-rendering:auto;shape-rendering:auto;text-rendering:auto;enable-background:accumulate;stop-color:#000000;stop-opacity:1"
           id="path1145-3-5-6-9-2-2" />
      </g>
      <g
         style="opacity:0.998001"
         id="g1307-4-7-1"
         transform="translate(112.68045,-85.824697)">
        <path
           transform="scale(0.26458333)"
           d="m 359.53125,463.98438 c -0.12665,0.7412 -0.2839,1.49788 -0.50391,2.29101 -0.90909,3.00752 -2.62777,5.86373 -5.05664,8.5625 -11.89542,13.21724 -40.80833,22.67739 -74.88867,27.86328 -47.99773,7.30364 -106.24582,6.12601 -141.64453,-4.98633 C 117.90636,492.8793 103.8909,482.70185 101.71289,472 c -0.22236,1.15274 -0.31353,2.30717 -0.24609,3.46094 l -0.21094,0.008 c -0.77057,6.31298 0.73899,17.22635 0.51562,26.25977 -0.15722,6.36226 3.01959,4.01546 3.11329,7.34375 1.1207,39.76784 21.0334,80.82342 78.03711,99.3789 1.09757,4.97715 -0.45213,3.61008 0.23242,6.08594 3.16815,11.4587 99.78504,7.40566 99.85156,-3.00195 0.12208,-0.0597 0.39917,-1.94172 0.63086,-4.07032 0.57071,-4.3392 -1.1094,0.46065 4.1875,-2.87304 45.51624,-18.54792 63.89549,-48.60005 70.91211,-98.80469 0.35414,-3.2521 1.90233,-0.73325 1.84375,-4.05859 -0.21808,-12.36102 0.87187,-19.10326 -0.41797,-35.04493 l -0.35156,0.0117 c 0.003,-0.94959 -0.0967,-1.84863 -0.2793,-2.71093 z"
           style="font-variation-settings:normal;opacity:1;vector-effect:none;fill:#00efef;fill-opacity:1;stroke:none;stroke-width:1.37953;stroke-linecap:round;stroke-linejoin:round;stroke-miterlimit:4;stroke-dasharray:none;stroke-dashoffset:0;stroke-opacity:1;stop-color:#000000;stop-opacity:1"
           id="path837-20-49-9-7-3" />
        <path
           id="path1115-9-0"
           style="opacity:0.999;fill:#ffcc00;stroke:none;stroke-width:0.999999px;stroke-linecap:butt;stroke-linejoin:miter;stroke-opacity:1"
           d="m 499.77734,505.12305 c -0.22557,-0.0203 -0.45421,-0.012 -0.67968,-0.0332 -5.21233,-0.48984 -10.39948,-1.20765 -15.5586,-2.11523 -3.70649,-0.65204 -7.38092,-1.50612 -11.05859,-2.3418 l -22.69336,14.34766 c 2.05156,1.74586 3.69339,2.99544 5.2793,4.13476 3.34401,0.35648 6.82481,0.68143 10.46289,0.90235 4.05163,0.24603 8.22805,0.39005 12.40234,0.38867 4.17429,-10e-4 8.34484,-0.1481 12.38672,-0.48047 4.04188,-0.33236 7.95497,-0.85074 11.60937,-1.59766 1.82721,-0.37344 3.58898,-0.80411 5.27149,-1.29687 1.21527,-0.35592 2.33547,-0.78222 3.46094,-1.20508 -3.84134,-3.21699 -7.48276,-6.91242 -10.88282,-10.70312 z"
           transform="matrix(0.26458333,0,0,0.26458333,-68.91503,14.383691)" />
        <path
           id="path1118-0-6"
           style="opacity:0.999;fill:#ff6600;stroke:none;stroke-width:0.999999px;stroke-linecap:butt;stroke-linejoin:miter;stroke-opacity:1"
           d="m 488.35352,490.5957 -15.87305,10.03711 c 3.67767,0.83568 7.3521,1.68976 11.05859,2.3418 5.15912,0.90758 10.34627,1.62539 15.5586,2.11523 0.22547,0.0212 0.45411,0.0129 0.67968,0.0332 -4.37553,-4.87826 -8.31824,-9.9331 -11.42382,-14.52735 z"
           transform="matrix(0.26458333,0,0,0.26458333,-68.91503,14.383691)" />
        <path
           id="path1075-2-4-3"
           style="opacity:0.999;fill:#d40000;stroke:none;stroke-width:0.999999px;stroke-linecap:butt;stroke-linejoin:miter;stroke-opacity:1"
           d="m 510.66016,515.82617 c -1.12547,0.42286 -2.24567,0.84916 -3.46094,1.20508 -1.68251,0.49276 -3.44428,0.92342 -5.27149,1.29687 -3.6544,0.74692 -7.56749,1.2653 -11.60937,1.59766 -4.04188,0.33237 -8.21243,0.47909 -12.38672,0.48047 -4.17429,10e-4 -8.35071,-0.14264 -12.40234,-0.38867 -3.63808,-0.22092 -7.11888,-0.54587 -10.46289,-0.90235 5.86843,4.2159 9.64235,5.04347 18.42968,6.73438 15.64332,3.00299 30.73021,5.06869 44.51368,-4.50977 -2.49537,-1.56343 -4.94113,-3.49665 -7.34961,-5.51367 z"
           transform="matrix(0.26458333,0,0,0.26458333,-68.91503,14.383691)" />
        <path
           style="fill:none;stroke:#000000;stroke-width:0.264583px;stroke-linecap:butt;stroke-linejoin:miter;stroke-opacity:1"
           d="m 68.14149,152.32177 c -3.068372,-1.92245 -5.986019,-5.38249 -7.846539,-8.13485 l -10.20391,6.45216 c 2.551398,2.17122 3.319692,2.30716 6.272987,2.87545 4.13896,0.79454 8.130587,1.34154 11.777462,-1.19276 z"
           id="path1075-3-2"
           sodipodi:nodetypes="ccccc" />
        <path
           style="fill:none;stroke:#552200;stroke-width:0.765;stroke-linecap:round;stroke-linejoin:miter;stroke-miterlimit:4;stroke-dasharray:none;stroke-opacity:1"
           d="m 59.841942,155.28056 c -0.657136,-2.19408 -0.638558,-7.77927 0.453009,-10.97499"
           id="path1063-1-6"
           sodipodi:nodetypes="cc" />
        <path
           sodipodi:nodetypes="cccccc"
           id="path1061-4-5-0"
           d="m 70.49886,158.42494 c 0.74423,-0.42571 6.510449,-4.88964 6.051156,-5.53151 -9.41437,2.96164 -21.152018,3.33815 -30.255781,-0.11865 -0.0537,0 0.539339,1.27288 0.901291,1.99669 1.483183,2.73895 4.066701,2.6474 4.907836,3.1585 6.131833,3.98511 12.263665,2.77211 18.395498,0.49497 z"
           style="opacity:0.999;fill:#803300;stroke:none;stroke-width:0.264583px;stroke-linecap:butt;stroke-linejoin:miter;stroke-opacity:1" />
        <path
           style="fill:none;stroke:#000000;stroke-width:0.264583px;stroke-linecap:butt;stroke-linejoin:miter;stroke-opacity:1"
           d="m 70.498861,158.42494 c 0.74423,-0.42571 6.510448,-4.88964 6.051156,-5.53151 -9.41437,2.96164 -21.152018,3.33815 -30.255781,-0.11865 -0.0537,0 0.539339,1.27288 0.901291,1.99669 1.483183,2.73895 4.066701,2.6474 4.907836,3.1585"
           id="path1061-0-3"
           sodipodi:nodetypes="ccccc" />
        <path
           id="path980-5-3"
           style="opacity:0.999;fill:#5599ff;stroke:none;stroke-width:0.365001;stroke-linecap:round;stroke-linejoin:round;stroke-miterlimit:4;stroke-dasharray:none;stroke-opacity:1"
           d="m 87.59611,152.24761 c -0.706904,1.00477 -2.384945,-0.15921 -2.703581,0.39234 -0.156153,1.80912 -2.293461,2.60124 -2.803632,1.6001 -0.422309,2.16908 -4.036813,1.5272 -4.21914,0.99219 -0.59164,1.3023 -1.964026,3.12331 -3.529569,2.60249 -0.962759,-0.96725 -1.845106,-2.28124 -2.580671,-0.34061 -1.000023,1.8159 -3.187898,0.89325 -4.01474,-0.51677 -1.325218,0.22308 -2.832775,2.14241 -3.916419,0.14804 -1.593654,-0.81632 -2.25913,2.16464 -4.021074,1.82183 -1.229269,-0.19667 -1.845658,-2.62367 -3.122108,-0.89302 -1.580487,1.6048 -3.123036,-0.70863 -4.35122,-0.85864 -0.627325,2.24746 -2.878498,1.05316 -3.938488,-0.11456 -0.860377,-1.15504 -1.990991,2.70384 -2.117482,0.38431 -1.285138,-0.18427 -1.772687,-3.48945 -2.494901,-1.17643 -1.345596,1.17375 -3.428197,7.7e-4 -5.005097,-0.28981 -1.174606,-0.4277 1.189556,0.98826 1.634801,1.30966 2.488684,1.56377 5.192697,2.76842 7.984967,3.67674 -0.523606,2.17064 1.631485,2.8805 3.420516,3.00369 5.922329,0.75008 11.94799,0.48636 17.855424,-0.27974 1.667273,-0.30655 3.462978,-0.46799 4.914231,-1.41196 0.726866,-0.97646 -0.05643,-2.40409 1.56525,-2.33312 4.291121,-1.73813 8.368121,-4.20992 11.442933,-7.71673 z" />
        <path
           id="path837-20-49-9-3-0-6"
           style="font-variation-settings:normal;opacity:0.999;vector-effect:none;fill:#803300;fill-opacity:1;stroke:none;stroke-width:0.999999px;stroke-linecap:butt;stroke-linejoin:miter;stroke-miterlimit:4;stroke-dasharray:none;stroke-dashoffset:0;stroke-opacity:1;stop-color:#000000;stop-opacity:1"
           d="m 602.19727,506.38086 c -6.32975,4.18039 -14.83329,5.72006 -20.56836,6.41211 1.36536,2.00447 5.15854,6.31687 8.30468,10.12109 4.69966,-5.04223 8.7691,-10.53226 12.26368,-16.5332 z"
           transform="matrix(0.26458333,0,0,0.26458333,-68.91503,14.383691)" />
        <path
           transform="scale(0.26458333)"
           d="m 359.41016,457.98828 c 0.61477,2.40368 0.49286,5.13023 -0.38282,8.28711 -0.80177,2.65249 -2.23534,5.18688 -4.22851,7.59961 -0.81252,1.56278 -1.90226,3.10861 -3.2793,4.63867 -10.84275,12.04759 -39.43457,21.83491 -73.25,26.98047 -47.62465,7.24687 -105.77246,5.98241 -140.39648,-4.88672 a 2.7687809,2.7687809 0 0 0 -0.16993,-0.043 c -17.28907,-4.28046 -29.72988,-13.09806 -32.9746,-21.2539 -0.13234,-0.33263 -0.23132,-0.66096 -0.3379,-0.99024 -3.29359,-5.09198 -3.99748,-10.54667 -1.35742,-15.7832 -0.44059,0.52348 -0.86048,1.05211 -1.24218,1.58984 -3.845787,5.41792 -4.422103,11.66078 -2.207036,17.22852 4.416186,11.10036 18.366906,19.97586 36.628906,24.53125 0.004,0.001 0.0119,-10e-4 0.0156,0 36.17435,11.35189 94.5097,12.44551 142.875,5.08594 34.34521,-5.22618 63.58116,-14.36699 76.52929,-28.75391 2.64382,-2.9376 4.59805,-6.14098 5.64649,-9.60937 a 2.7687809,2.7687809 0 0 0 0.0234,-0.0605 c 1.36967,-4.93784 1.14659,-9.5065 -1.04882,-13.2793 -0.25718,-0.44194 -0.54158,-0.86685 -0.84375,-1.28125 z"
           style="color:#000000;font-style:normal;font-variant:normal;font-weight:normal;font-stretch:normal;font-size:medium;line-height:normal;font-family:sans-serif;font-variant-ligatures:normal;font-variant-position:normal;font-variant-caps:normal;font-variant-numeric:normal;font-variant-alternates:normal;font-variant-east-asian:normal;font-feature-settings:normal;font-variation-settings:normal;text-indent:0;text-align:start;text-decoration:none;text-decoration-line:none;text-decoration-style:solid;text-decoration-color:#000000;letter-spacing:normal;word-spacing:normal;text-transform:none;writing-mode:lr-tb;direction:ltr;text-orientation:mixed;dominant-baseline:auto;baseline-shift:baseline;text-anchor:start;white-space:normal;shape-padding:0;shape-margin:0;inline-size:0;clip-rule:nonzero;display:inline;overflow:visible;visibility:visible;opacity:1;isolation:auto;mix-blend-mode:normal;color-interpolation:sRGB;color-interpolation-filters:linearRGB;solid-color:#000000;solid-opacity:1;vector-effect:none;fill:#0dcdcd;fill-opacity:1;fill-rule:nonzero;stroke:none;stroke-width:1.37953;stroke-linecap:round;stroke-linejoin:round;stroke-miterlimit:4;stroke-dasharray:none;stroke-dashoffset:0;stroke-opacity:1;color-rendering:auto;image-rendering:auto;shape-rendering:auto;text-rendering:auto;enable-background:accumulate;stop-color:#000000;stop-opacity:1"
           id="path1145-3-5-1-5" />
        <path
           id="path837-2-3-0-32-7"
           style="font-variation-settings:normal;opacity:1;vector-effect:none;fill:#7affff;fill-opacity:1;stroke:none;stroke-width:0.365001;stroke-linecap:round;stroke-linejoin:round;stroke-miterlimit:4;stroke-dasharray:none;stroke-dashoffset:0;stroke-opacity:1;stop-color:#000000;stop-opacity:1"
           d="m 32.206869,137.9636 c 0.51619,8.87765 5.21463,17.87228 17.92167,22.00858 0.25257,1.14537 -0.1045,0.83077 0.053,1.40051 0.51695,1.86971 11.83977,1.9437 18.39361,0.97533 -6.49494,0.54617 -14.7682,0.25643 -15.2083,-1.33533 -0.15754,-0.56976 0.19955,-0.25516 -0.0531,-1.40052 -12.1796,-3.96463 -16.99838,-12.39268 -17.83223,-20.90292 -1.14358,-0.22169 -2.23654,-0.47076 -3.27474,-0.74565 z" />
        <path
           style="color:#000000;font-style:normal;font-variant:normal;font-weight:normal;font-stretch:normal;font-size:medium;line-height:normal;font-family:sans-serif;font-variant-ligatures:normal;font-variant-position:normal;font-variant-caps:normal;font-variant-numeric:normal;font-variant-alternates:normal;font-variant-east-asian:normal;font-feature-settings:normal;font-variation-settings:normal;text-indent:0;text-align:start;text-decoration:none;text-decoration-line:none;text-decoration-style:solid;text-decoration-color:#000000;letter-spacing:normal;word-spacing:normal;text-transform:none;writing-mode:lr-tb;direction:ltr;text-orientation:mixed;dominant-baseline:auto;baseline-shift:baseline;text-anchor:start;white-space:normal;shape-padding:0;shape-margin:0;inline-size:0;clip-rule:nonzero;display:inline;overflow:visible;visibility:visible;opacity:1;isolation:auto;mix-blend-mode:normal;color-interpolation:sRGB;color-interpolation-filters:linearRGB;solid-color:#000000;solid-opacity:1;vector-effect:none;fill:#37fbfb;fill-opacity:1;fill-rule:nonzero;stroke:none;stroke-width:0.365001;stroke-linecap:round;stroke-linejoin:round;stroke-miterlimit:4;stroke-dasharray:none;stroke-dashoffset:0;stroke-opacity:1;color-rendering:auto;image-rendering:auto;shape-rendering:auto;text-rendering:auto;enable-background:accumulate;stop-color:#000000;stop-opacity:1"
           d="m 94.059119,134.0497 a 0.53250005,0.53250005 0 0 0 -0.36523,0.15234 c -3.17114,3.0999 -10.51787,5.50776 -19.13086,6.81836 -12.62764,1.9215 -28.01943,1.59258 -37.23633,-1.30078 a 0.53250005,0.53250005 0 0 0 -0.66797,0.34766 0.53250005,0.53250005 0 0 0 0.34961,0.66797 c 9.51492,2.98691 24.94369,3.28122 37.71484,1.33789 8.71089,-1.32551 16.1672,-3.64142 19.71485,-7.10938 a 0.53250005,0.53250005 0 0 0 0.008,-0.75391 0.53250005,0.53250005 0 0 0 -0.38672,-0.16015 z"
           id="path1178-9-4-16-7" />
        <path
           d="m 44.431536,155.24847 c -0.134059,0.067 -0.268589,0.33678 -0.40721,0.62271 -0.138628,0.28593 -0.281077,0.58823 -0.431498,0.71985 -0.09338,0.0817 -0.242292,0.13425 -0.43098,0.16433 2.001885,1.25611 4.3195,2.34547 6.996472,3.21686 0.252569,1.14537 -0.104791,0.83069 0.05271,1.40043 0.516951,1.86971 11.839871,1.9435 18.393712,0.97514 -6.494942,0.54616 -14.768275,0.25643 -15.208375,-1.33533 -0.157541,-0.56975 0.199941,-0.25507 -0.05271,-1.40043 -2.134531,-0.69482 -4.038645,-1.52885 -5.739186,-2.47426 -0.08335,0.0888 -0.169759,0.18675 -0.256831,0.28938 -0.33488,0.39473 -0.670277,0.83528 -0.798917,0.89246 -0.12709,0.0565 -0.109622,-0.82534 -0.240813,-0.85422 -0.131188,-0.0289 -0.26312,-0.0947 -0.39274,-0.18655 -0.259252,-0.18371 -0.509648,-0.47082 -0.728638,-0.77204 -0.43797,-0.60245 -0.749994,-1.26083 -0.754994,-1.25833 z"
           style="font-variation-settings:normal;opacity:0.999;vector-effect:none;fill:#7eaef5;fill-opacity:1;stroke:none;stroke-width:0.365001;stroke-linecap:round;stroke-linejoin:round;stroke-miterlimit:4;stroke-dasharray:none;stroke-dashoffset:0;stroke-opacity:1;stop-color:#000000;stop-opacity:1"
           id="path837-2-3-0-3-0-7" />
        <path
           sodipodi:nodetypes="csc"
           id="path833-7-0-4-7-1-0"
           d="m 74.585809,160.05225 c -1.48351,0.81471 -4.75142,1.40072 -8.57651,1.72771 -5.60804,0.47942 -12.41377,0.40212 -16.54974,-0.3273"
           style="font-variation-settings:normal;opacity:1;vector-effect:none;fill:none;fill-opacity:1;stroke:#000000;stroke-width:0.365001;stroke-linecap:round;stroke-linejoin:round;stroke-miterlimit:4;stroke-dasharray:none;stroke-dashoffset:0;stroke-opacity:1;stop-color:#000000;stop-opacity:1" />
        <path
           id="path1069-7-4"
           style="fill:#44aa00;stroke:#000000;stroke-width:0.999999px;stroke-linecap:butt;stroke-linejoin:miter;stroke-opacity:1"
           d="m 616.1582,465.0332 c -8.25512,9.18887 -16.73554,22.46033 -27.35547,29.37305 5.59861,0.53142 12.93904,2.78987 18.07813,2.89063 3.49776,-7.64816 6.27649,-16.02646 8.47461,-25.20508 z"
           transform="matrix(0.26458333,0,0,0.26458333,-68.91503,14.383691)" />
        <path
           id="path837-20-49-9-97-3-3"
           style="font-variation-settings:normal;opacity:1;vector-effect:none;fill:none;fill-opacity:1;stroke:#000000;stroke-width:0.999999px;stroke-linecap:butt;stroke-linejoin:miter;stroke-miterlimit:4;stroke-dasharray:none;stroke-dashoffset:0;stroke-opacity:1;stop-color:#000000;stop-opacity:1"
           d="m 602.19727,506.38086 c -6.32975,4.18039 -14.83329,5.72006 -20.56836,6.41211 1.36536,2.00447 5.15854,6.31687 8.30468,10.12109 4.69966,-5.04223 8.7691,-10.53226 12.26368,-16.5332 z"
           transform="matrix(0.26458333,0,0,0.26458333,-68.91503,14.383691)" />
        <path
           style="fill:#ffcc00;stroke:none;stroke-width:0.965;stroke-linecap:round;stroke-linejoin:round;stroke-miterlimit:4;stroke-dasharray:none;stroke-opacity:1"
           d="m 33.835972,136.59331 c -1.363985,-0.78344 -2.496865,-0.16494 -3.084901,1.30516 -1.410555,3.52638 4.074046,5.29931 5.813856,3.5595 1.814999,-1.815 -1.707263,-5.8501 -4.627356,-4.39006"
           id="path1250-8-1" />
        <path
           style="fill:none;stroke:#ffcc00;stroke-width:0.965;stroke-linecap:round;stroke-linejoin:round;stroke-miterlimit:4;stroke-dasharray:none;stroke-opacity:1"
           d="m 38.937927,142.16987 c 2.473675,1.83802 5.102191,3.33111 7.83091,4.74601"
           id="path1252-1-5" />
        <path
           style="fill:none;stroke:#ffcc00;stroke-width:0.965;stroke-linecap:round;stroke-linejoin:round;stroke-miterlimit:4;stroke-dasharray:none;stroke-opacity:1"
           d="m 34.073274,143.11907 c 2.074543,3.28452 2.840477,7.82582 6.169806,10.20391"
           id="path1254-7-3" />
        <path
           style="fill:none;stroke:#ffcc00;stroke-width:0.965;stroke-linecap:round;stroke-linejoin:round;stroke-miterlimit:4;stroke-dasharray:none;stroke-opacity:1"
           d="m 31.700272,142.52582 c 0.09947,1.25513 -0.355952,2.42542 -0.355952,3.67815"
           id="path1256-0-1" />
        <path
           style="fill:none;stroke:#ffcc00;stroke-width:0.965;stroke-linecap:round;stroke-linejoin:round;stroke-miterlimit:4;stroke-dasharray:none;stroke-opacity:1"
           d="m 37.751427,137.77982 c 2.080231,-0.33093 4.049972,-1.06785 6.169806,-1.06785"
           id="path1258-6-8" />
        <path
           style="fill:none;stroke:#ffcc00;stroke-width:0.965;stroke-linecap:round;stroke-linejoin:round;stroke-miterlimit:4;stroke-dasharray:none;stroke-opacity:1"
           d="m 33.124074,135.52546 c -0.81973,-1.04374 -0.561076,-1.51831 -0.474602,-2.72895"
           id="path1260-86-1" />
        <path
           style="fill:none;stroke:#ffcc00;stroke-width:0.965;stroke-linecap:round;stroke-linejoin:round;stroke-miterlimit:4;stroke-dasharray:none;stroke-opacity:1"
           d="m 30.513771,135.64411 c -1.142711,-1.60521 -2.256742,-3.09002 -3.084904,-4.86465"
           id="path1262-6-5" />
        <path
           id="path837-2-3-0-27-9-8"
           style="font-variation-settings:normal;opacity:1;vector-effect:none;fill:#f1e4b0;fill-opacity:1;stroke:none;stroke-width:1.37953;stroke-linecap:round;stroke-linejoin:round;stroke-miterlimit:4;stroke-dasharray:none;stroke-dashoffset:0;stroke-opacity:1;stop-color:#000000;stop-opacity:1"
           d="m 382.19336,467.07422 c 0.27783,4.77817 0.88891,9.56288 1.84961,14.30469 4.16422,1.72116 9.03695,1.98259 12.41601,0.41211 -0.876,-3.94095 -1.49852,-7.91656 -1.88867,-11.89844 -4.32219,-0.83789 -8.45305,-1.77941 -12.37695,-2.81836 z m 7.00976,17.66016 a 1.8236202,1.8236202 0 0 0 -0.92773,0.28124 1.8236202,1.8236202 0 0 0 -0.56836,2.51758 c 7.54373,11.94361 10.4316,29.52288 23.80078,39.07227 a 1.8236202,1.8236202 0 0 0 2.53907,-0.41992 1.8236202,1.8236202 0 0 0 -0.42188,-2.54688 c -11.79739,-8.42672 -14.70004,-25.17043 -22.83789,-38.05469 a 1.8236202,1.8236202 0 0 0 -1.4707,-0.84765 1.8236202,1.8236202 0 0 0 -0.11329,-0.002 z"
           transform="matrix(0.26458333,0,0,0.26458333,-68.91503,14.383691)" />
        <path
           id="path1260-8-5-1"
           d="m 33.124073,135.52546 c -0.819731,-1.04374 -0.561077,-1.51831 -0.474603,-2.72895"
           style="opacity:0.999;fill:none;stroke:#ffcc00;stroke-width:0.964999;stroke-linecap:round;stroke-linejoin:round;stroke-miterlimit:4;stroke-dasharray:none;stroke-opacity:1" />
        <path
           id="path1145-3-5-6-9-2"
           style="color:#000000;font-style:normal;font-variant:normal;font-weight:normal;font-stretch:normal;font-size:medium;line-height:normal;font-family:sans-serif;font-variant-ligatures:normal;font-variant-position:normal;font-variant-caps:normal;font-variant-numeric:normal;font-variant-alternates:normal;font-variant-east-asian:normal;font-feature-settings:normal;font-variation-settings:normal;text-indent:0;text-align:start;text-decoration:none;text-decoration-line:none;text-decoration-style:solid;text-decoration-color:#000000;letter-spacing:normal;word-spacing:normal;text-transform:none;writing-mode:lr-tb;direction:ltr;text-orientation:mixed;dominant-baseline:auto;baseline-shift:baseline;text-anchor:start;white-space:normal;shape-padding:0;shape-margin:0;inline-size:0;clip-rule:nonzero;display:inline;overflow:visible;visibility:visible;opacity:1;isolation:auto;mix-blend-mode:normal;color-interpolation:sRGB;color-interpolation-filters:linearRGB;solid-color:#000000;solid-opacity:1;vector-effect:none;fill:#c49d00;fill-opacity:1;fill-rule:nonzero;stroke:none;stroke-width:1.37953;stroke-linecap:round;stroke-linejoin:round;stroke-miterlimit:4;stroke-dasharray:none;stroke-dashoffset:0;stroke-opacity:1;color-rendering:auto;image-rendering:auto;shape-rendering:auto;text-rendering:auto;enable-background:accumulate;stop-color:#000000;stop-opacity:1"
           d="m 383.88086,445.71875 a 1.8236202,1.8236202 0 0 0 -0.10742,0.004 1.8236202,1.8236202 0 0 0 -1.48438,0.90625 c 1.09273,0.48581 2.21398,0.95288 3.36328,1.40039 0.0108,-0.13576 0.0231,-0.21605 0.0332,-0.35742 a 1.8236202,1.8236202 0 0 0 -1.69141,-1.94922 1.8236202,1.8236202 0 0 0 -0.11328,-0.004 z"
           transform="matrix(0.26458333,0,0,0.26458333,-68.91503,14.383691)" />
      </g>
      <path
         id="path837-20-49-9-9-9-8"
         style="opacity:0.998001;fill:#008080;stroke:none;stroke-width:0.365001;stroke-linecap:round;stroke-linejoin:round;stroke-miterlimit:4;stroke-dasharray:none;stroke-opacity:1"
         d="m 173.62962,64.05367 c 0.0263,-0.183441 0.0349,-0.344461 -0.0207,-0.28887 -0.0546,0.0546 -0.0754,0.10641 -0.0693,0.15503 0.006,0.0477 0.0395,0.0922 0.0899,0.13384 z" />
      <g
         style="opacity:0.998001"
         id="g1307-4-73-2"
         transform="translate(112.68045,-71.18119)">
        <path
           transform="scale(0.26458333)"
           d="m 359.53125,463.98438 c -0.12665,0.7412 -0.2839,1.49788 -0.50391,2.29101 -0.90909,3.00752 -2.62777,5.86373 -5.05664,8.5625 -11.89542,13.21724 -40.80833,22.67739 -74.88867,27.86328 -47.99773,7.30364 -106.24582,6.12601 -141.64453,-4.98633 C 117.90636,492.8793 103.8909,482.70185 101.71289,472 c -0.22236,1.15274 -0.31353,2.30717 -0.24609,3.46094 l -0.21094,0.008 c -0.77057,6.31298 0.73899,17.22635 0.51562,26.25977 -0.15722,6.36226 3.01959,4.01546 3.11329,7.34375 1.1207,39.76784 21.0334,80.82342 78.03711,99.3789 1.09757,4.97715 -0.45213,3.61008 0.23242,6.08594 3.16815,11.4587 99.78504,7.40566 99.85156,-3.00195 0.12208,-0.0597 0.39917,-1.94172 0.63086,-4.07032 0.57071,-4.3392 -1.1094,0.46065 4.1875,-2.87304 45.51624,-18.54792 63.89549,-48.60005 70.91211,-98.80469 0.35414,-3.2521 1.90233,-0.73325 1.84375,-4.05859 -0.21808,-12.36102 0.87187,-19.10326 -0.41797,-35.04493 l -0.35156,0.0117 c 0.003,-0.94959 -0.0967,-1.84863 -0.2793,-2.71093 z"
           style="font-variation-settings:normal;opacity:1;vector-effect:none;fill:#00efef;fill-opacity:1;stroke:none;stroke-width:1.37953;stroke-linecap:round;stroke-linejoin:round;stroke-miterlimit:4;stroke-dasharray:none;stroke-dashoffset:0;stroke-opacity:1;stop-color:#000000;stop-opacity:1"
           id="path837-20-49-9-4-4" />
        <path
           id="path1115-5-6"
           style="opacity:0.999;fill:#ffcc00;stroke:none;stroke-width:0.999999px;stroke-linecap:butt;stroke-linejoin:miter;stroke-opacity:1"
           d="m 499.77734,505.12305 c -0.22557,-0.0203 -0.45421,-0.012 -0.67968,-0.0332 -5.21233,-0.48984 -10.39948,-1.20765 -15.5586,-2.11523 -3.70649,-0.65204 -7.38092,-1.50612 -11.05859,-2.3418 l -22.69336,14.34766 c 2.05156,1.74586 3.69339,2.99544 5.2793,4.13476 3.34401,0.35648 6.82481,0.68143 10.46289,0.90235 4.05163,0.24603 8.22805,0.39005 12.40234,0.38867 4.17429,-10e-4 8.34484,-0.1481 12.38672,-0.48047 4.04188,-0.33236 7.95497,-0.85074 11.60937,-1.59766 1.82721,-0.37344 3.58898,-0.80411 5.27149,-1.29687 1.21527,-0.35592 2.33547,-0.78222 3.46094,-1.20508 -3.84134,-3.21699 -7.48276,-6.91242 -10.88282,-10.70312 z"
           transform="matrix(0.26458333,0,0,0.26458333,-68.91503,14.383691)" />
        <path
           id="path1118-4-9"
           style="opacity:0.999;fill:#ff6600;stroke:none;stroke-width:0.999999px;stroke-linecap:butt;stroke-linejoin:miter;stroke-opacity:1"
           d="m 488.35352,490.5957 -15.87305,10.03711 c 3.67767,0.83568 7.3521,1.68976 11.05859,2.3418 5.15912,0.90758 10.34627,1.62539 15.5586,2.11523 0.22547,0.0212 0.45411,0.0129 0.67968,0.0332 -4.37553,-4.87826 -8.31824,-9.9331 -11.42382,-14.52735 z"
           transform="matrix(0.26458333,0,0,0.26458333,-68.91503,14.383691)" />
        <path
           id="path1075-2-0-8"
           style="opacity:0.999;fill:#d40000;stroke:none;stroke-width:0.999999px;stroke-linecap:butt;stroke-linejoin:miter;stroke-opacity:1"
           d="m 510.66016,515.82617 c -1.12547,0.42286 -2.24567,0.84916 -3.46094,1.20508 -1.68251,0.49276 -3.44428,0.92342 -5.27149,1.29687 -3.6544,0.74692 -7.56749,1.2653 -11.60937,1.59766 -4.04188,0.33237 -8.21243,0.47909 -12.38672,0.48047 -4.17429,10e-4 -8.35071,-0.14264 -12.40234,-0.38867 -3.63808,-0.22092 -7.11888,-0.54587 -10.46289,-0.90235 5.86843,4.2159 9.64235,5.04347 18.42968,6.73438 15.64332,3.00299 30.73021,5.06869 44.51368,-4.50977 -2.49537,-1.56343 -4.94113,-3.49665 -7.34961,-5.51367 z"
           transform="matrix(0.26458333,0,0,0.26458333,-68.91503,14.383691)" />
        <path
           style="fill:none;stroke:#000000;stroke-width:0.264583px;stroke-linecap:butt;stroke-linejoin:miter;stroke-opacity:1"
           d="m 68.14149,152.32177 c -3.068372,-1.92245 -5.986019,-5.38249 -7.846539,-8.13485 l -10.20391,6.45216 c 2.551398,2.17122 3.319692,2.30716 6.272987,2.87545 4.13896,0.79454 8.130587,1.34154 11.777462,-1.19276 z"
           id="path1075-5-2"
           sodipodi:nodetypes="ccccc" />
        <path
           style="fill:none;stroke:#552200;stroke-width:0.765;stroke-linecap:round;stroke-linejoin:miter;stroke-miterlimit:4;stroke-dasharray:none;stroke-opacity:1"
           d="m 59.841942,155.28056 c -0.657136,-2.19408 -0.638558,-7.77927 0.453009,-10.97499"
           id="path1063-6-2"
           sodipodi:nodetypes="cc" />
        <path
           sodipodi:nodetypes="cccccc"
           id="path1061-4-0-5"
           d="m 70.49886,158.42494 c 0.74423,-0.42571 6.510449,-4.88964 6.051156,-5.53151 -9.41437,2.96164 -21.152018,3.33815 -30.255781,-0.11865 -0.0537,0 0.539339,1.27288 0.901291,1.99669 1.483183,2.73895 4.066701,2.6474 4.907836,3.1585 6.131833,3.98511 12.263665,2.77211 18.395498,0.49497 z"
           style="opacity:0.999;fill:#803300;stroke:none;stroke-width:0.264583px;stroke-linecap:butt;stroke-linejoin:miter;stroke-opacity:1" />
        <path
           style="fill:none;stroke:#000000;stroke-width:0.264583px;stroke-linecap:butt;stroke-linejoin:miter;stroke-opacity:1"
           d="m 70.498861,158.42494 c 0.74423,-0.42571 6.510448,-4.88964 6.051156,-5.53151 -9.41437,2.96164 -21.152018,3.33815 -30.255781,-0.11865 -0.0537,0 0.539339,1.27288 0.901291,1.99669 1.483183,2.73895 4.066701,2.6474 4.907836,3.1585"
           id="path1061-01-3"
           sodipodi:nodetypes="ccccc" />
        <path
           id="path980-3-9"
           style="opacity:0.999;fill:#5599ff;stroke:none;stroke-width:0.365001;stroke-linecap:round;stroke-linejoin:round;stroke-miterlimit:4;stroke-dasharray:none;stroke-opacity:1"
           d="m 87.59611,152.24761 c -0.706904,1.00477 -2.384945,-0.15921 -2.703581,0.39234 -0.156153,1.80912 -2.293461,2.60124 -2.803632,1.6001 -0.422309,2.16908 -4.036813,1.5272 -4.21914,0.99219 -0.59164,1.3023 -1.964026,3.12331 -3.529569,2.60249 -0.962759,-0.96725 -1.845106,-2.28124 -2.580671,-0.34061 -1.000023,1.8159 -3.187898,0.89325 -4.01474,-0.51677 -1.325218,0.22308 -2.832775,2.14241 -3.916419,0.14804 -1.593654,-0.81632 -2.25913,2.16464 -4.021074,1.82183 -1.229269,-0.19667 -1.845658,-2.62367 -3.122108,-0.89302 -1.580487,1.6048 -3.123036,-0.70863 -4.35122,-0.85864 -0.627325,2.24746 -2.878498,1.05316 -3.938488,-0.11456 -0.860377,-1.15504 -1.990991,2.70384 -2.117482,0.38431 -1.285138,-0.18427 -1.772687,-3.48945 -2.494901,-1.17643 -1.345596,1.17375 -3.428197,7.7e-4 -5.005097,-0.28981 -1.174606,-0.4277 1.189556,0.98826 1.634801,1.30966 2.488684,1.56377 5.192697,2.76842 7.984967,3.67674 -0.523606,2.17064 1.631485,2.8805 3.420516,3.00369 5.922329,0.75008 11.94799,0.48636 17.855424,-0.27974 1.667273,-0.30655 3.462978,-0.46799 4.914231,-1.41196 0.726866,-0.97646 -0.05643,-2.40409 1.56525,-2.33312 4.291121,-1.73813 8.368121,-4.20992 11.442933,-7.71673 z" />
        <path
           id="path837-20-49-9-3-8-9"
           style="font-variation-settings:normal;opacity:0.999;vector-effect:none;fill:#803300;fill-opacity:1;stroke:none;stroke-width:0.999999px;stroke-linecap:butt;stroke-linejoin:miter;stroke-miterlimit:4;stroke-dasharray:none;stroke-dashoffset:0;stroke-opacity:1;stop-color:#000000;stop-opacity:1"
           d="m 602.19727,506.38086 c -6.32975,4.18039 -14.83329,5.72006 -20.56836,6.41211 1.36536,2.00447 5.15854,6.31687 8.30468,10.12109 4.69966,-5.04223 8.7691,-10.53226 12.26368,-16.5332 z"
           transform="matrix(0.26458333,0,0,0.26458333,-68.91503,14.383691)" />
        <path
           transform="scale(0.26458333)"
           d="m 359.41016,457.98828 c 0.61477,2.40368 0.49286,5.13023 -0.38282,8.28711 -0.80177,2.65249 -2.23534,5.18688 -4.22851,7.59961 -0.81252,1.56278 -1.90226,3.10861 -3.2793,4.63867 -10.84275,12.04759 -39.43457,21.83491 -73.25,26.98047 -47.62465,7.24687 -105.77246,5.98241 -140.39648,-4.88672 a 2.7687809,2.7687809 0 0 0 -0.16993,-0.043 c -17.28907,-4.28046 -29.72988,-13.09806 -32.9746,-21.2539 -0.13234,-0.33263 -0.23132,-0.66096 -0.3379,-0.99024 -3.29359,-5.09198 -3.99748,-10.54667 -1.35742,-15.7832 -0.44059,0.52348 -0.86048,1.05211 -1.24218,1.58984 -3.845787,5.41792 -4.422103,11.66078 -2.207036,17.22852 4.416186,11.10036 18.366906,19.97586 36.628906,24.53125 0.004,0.001 0.0119,-10e-4 0.0156,0 36.17435,11.35189 94.5097,12.44551 142.875,5.08594 34.34521,-5.22618 63.58116,-14.36699 76.52929,-28.75391 2.64382,-2.9376 4.59805,-6.14098 5.64649,-9.60937 a 2.7687809,2.7687809 0 0 0 0.0234,-0.0605 c 1.36967,-4.93784 1.14659,-9.5065 -1.04882,-13.2793 -0.25718,-0.44194 -0.54158,-0.86685 -0.84375,-1.28125 z"
           style="color:#000000;font-style:normal;font-variant:normal;font-weight:normal;font-stretch:normal;font-size:medium;line-height:normal;font-family:sans-serif;font-variant-ligatures:normal;font-variant-position:normal;font-variant-caps:normal;font-variant-numeric:normal;font-variant-alternates:normal;font-variant-east-asian:normal;font-feature-settings:normal;font-variation-settings:normal;text-indent:0;text-align:start;text-decoration:none;text-decoration-line:none;text-decoration-style:solid;text-decoration-color:#000000;letter-spacing:normal;word-spacing:normal;text-transform:none;writing-mode:lr-tb;direction:ltr;text-orientation:mixed;dominant-baseline:auto;baseline-shift:baseline;text-anchor:start;white-space:normal;shape-padding:0;shape-margin:0;inline-size:0;clip-rule:nonzero;display:inline;overflow:visible;visibility:visible;opacity:1;isolation:auto;mix-blend-mode:normal;color-interpolation:sRGB;color-interpolation-filters:linearRGB;solid-color:#000000;solid-opacity:1;vector-effect:none;fill:#0dcdcd;fill-opacity:1;fill-rule:nonzero;stroke:none;stroke-width:1.37953;stroke-linecap:round;stroke-linejoin:round;stroke-miterlimit:4;stroke-dasharray:none;stroke-dashoffset:0;stroke-opacity:1;color-rendering:auto;image-rendering:auto;shape-rendering:auto;text-rendering:auto;enable-background:accumulate;stop-color:#000000;stop-opacity:1"
           id="path1145-3-5-06-8" />
        <path
           id="path837-2-3-0-329-1"
           style="font-variation-settings:normal;opacity:1;vector-effect:none;fill:#7affff;fill-opacity:1;stroke:none;stroke-width:0.365001;stroke-linecap:round;stroke-linejoin:round;stroke-miterlimit:4;stroke-dasharray:none;stroke-dashoffset:0;stroke-opacity:1;stop-color:#000000;stop-opacity:1"
           d="m 32.206869,137.9636 c 0.51619,8.87765 5.21463,17.87228 17.92167,22.00858 0.25257,1.14537 -0.1045,0.83077 0.053,1.40051 0.51695,1.86971 11.83977,1.9437 18.39361,0.97533 -6.49494,0.54617 -14.7682,0.25643 -15.2083,-1.33533 -0.15754,-0.56976 0.19955,-0.25516 -0.0531,-1.40052 -12.1796,-3.96463 -16.99838,-12.39268 -17.83223,-20.90292 -1.14358,-0.22169 -2.23654,-0.47076 -3.27474,-0.74565 z" />
        <path
           style="color:#000000;font-style:normal;font-variant:normal;font-weight:normal;font-stretch:normal;font-size:medium;line-height:normal;font-family:sans-serif;font-variant-ligatures:normal;font-variant-position:normal;font-variant-caps:normal;font-variant-numeric:normal;font-variant-alternates:normal;font-variant-east-asian:normal;font-feature-settings:normal;font-variation-settings:normal;text-indent:0;text-align:start;text-decoration:none;text-decoration-line:none;text-decoration-style:solid;text-decoration-color:#000000;letter-spacing:normal;word-spacing:normal;text-transform:none;writing-mode:lr-tb;direction:ltr;text-orientation:mixed;dominant-baseline:auto;baseline-shift:baseline;text-anchor:start;white-space:normal;shape-padding:0;shape-margin:0;inline-size:0;clip-rule:nonzero;display:inline;overflow:visible;visibility:visible;opacity:1;isolation:auto;mix-blend-mode:normal;color-interpolation:sRGB;color-interpolation-filters:linearRGB;solid-color:#000000;solid-opacity:1;vector-effect:none;fill:#37fbfb;fill-opacity:1;fill-rule:nonzero;stroke:none;stroke-width:0.365001;stroke-linecap:round;stroke-linejoin:round;stroke-miterlimit:4;stroke-dasharray:none;stroke-dashoffset:0;stroke-opacity:1;color-rendering:auto;image-rendering:auto;shape-rendering:auto;text-rendering:auto;enable-background:accumulate;stop-color:#000000;stop-opacity:1"
           d="m 94.059119,134.0497 a 0.53250005,0.53250005 0 0 0 -0.36523,0.15234 c -3.17114,3.0999 -10.51787,5.50776 -19.13086,6.81836 -12.62764,1.9215 -28.01943,1.59258 -37.23633,-1.30078 a 0.53250005,0.53250005 0 0 0 -0.66797,0.34766 0.53250005,0.53250005 0 0 0 0.34961,0.66797 c 9.51492,2.98691 24.94369,3.28122 37.71484,1.33789 8.71089,-1.32551 16.1672,-3.64142 19.71485,-7.10938 a 0.53250005,0.53250005 0 0 0 0.008,-0.75391 0.53250005,0.53250005 0 0 0 -0.38672,-0.16015 z"
           id="path1178-9-4-4-4" />
        <path
           d="m 44.431536,155.24847 c -0.134059,0.067 -0.268589,0.33678 -0.40721,0.62271 -0.138628,0.28593 -0.281077,0.58823 -0.431498,0.71985 -0.09338,0.0817 -0.242292,0.13425 -0.43098,0.16433 2.001885,1.25611 4.3195,2.34547 6.996472,3.21686 0.252569,1.14537 -0.104791,0.83069 0.05271,1.40043 0.516951,1.86971 11.839871,1.9435 18.393712,0.97514 -6.494942,0.54616 -14.768275,0.25643 -15.208375,-1.33533 -0.157541,-0.56975 0.199941,-0.25507 -0.05271,-1.40043 -2.134531,-0.69482 -4.038645,-1.52885 -5.739186,-2.47426 -0.08335,0.0888 -0.169759,0.18675 -0.256831,0.28938 -0.33488,0.39473 -0.670277,0.83528 -0.798917,0.89246 -0.12709,0.0565 -0.109622,-0.82534 -0.240813,-0.85422 -0.131188,-0.0289 -0.26312,-0.0947 -0.39274,-0.18655 -0.259252,-0.18371 -0.509648,-0.47082 -0.728638,-0.77204 -0.43797,-0.60245 -0.749994,-1.26083 -0.754994,-1.25833 z"
           style="font-variation-settings:normal;opacity:0.999;vector-effect:none;fill:#7eaef5;fill-opacity:1;stroke:none;stroke-width:0.365001;stroke-linecap:round;stroke-linejoin:round;stroke-miterlimit:4;stroke-dasharray:none;stroke-dashoffset:0;stroke-opacity:1;stop-color:#000000;stop-opacity:1"
           id="path837-2-3-0-3-8-5" />
        <path
           sodipodi:nodetypes="csc"
           id="path833-7-0-4-7-5-4"
           d="m 74.585809,160.05225 c -1.48351,0.81471 -4.75142,1.40072 -8.57651,1.72771 -5.60804,0.47942 -12.41377,0.40212 -16.54974,-0.3273"
           style="font-variation-settings:normal;opacity:1;vector-effect:none;fill:none;fill-opacity:1;stroke:#000000;stroke-width:0.365001;stroke-linecap:round;stroke-linejoin:round;stroke-miterlimit:4;stroke-dasharray:none;stroke-dashoffset:0;stroke-opacity:1;stop-color:#000000;stop-opacity:1" />
        <path
           id="path1069-5-4"
           style="fill:#44aa00;stroke:#000000;stroke-width:0.999999px;stroke-linecap:butt;stroke-linejoin:miter;stroke-opacity:1"
           d="m 616.1582,465.0332 c -8.25512,9.18887 -16.73554,22.46033 -27.35547,29.37305 5.59861,0.53142 12.93904,2.78987 18.07813,2.89063 3.49776,-7.64816 6.27649,-16.02646 8.47461,-25.20508 z"
           transform="matrix(0.26458333,0,0,0.26458333,-68.91503,14.383691)" />
        <path
           id="path837-20-49-9-97-7-5"
           style="font-variation-settings:normal;opacity:1;vector-effect:none;fill:none;fill-opacity:1;stroke:#000000;stroke-width:0.999999px;stroke-linecap:butt;stroke-linejoin:miter;stroke-miterlimit:4;stroke-dasharray:none;stroke-dashoffset:0;stroke-opacity:1;stop-color:#000000;stop-opacity:1"
           d="m 602.19727,506.38086 c -6.32975,4.18039 -14.83329,5.72006 -20.56836,6.41211 1.36536,2.00447 5.15854,6.31687 8.30468,10.12109 4.69966,-5.04223 8.7691,-10.53226 12.26368,-16.5332 z"
           transform="matrix(0.26458333,0,0,0.26458333,-68.91503,14.383691)" />
        <path
           style="fill:#ffcc00;stroke:none;stroke-width:0.965;stroke-linecap:round;stroke-linejoin:round;stroke-miterlimit:4;stroke-dasharray:none;stroke-opacity:1"
           d="m 33.835972,136.59331 c -1.363985,-0.78344 -2.496865,-0.16494 -3.084901,1.30516 -1.410555,3.52638 4.074046,5.29931 5.813856,3.5595 1.814999,-1.815 -1.707263,-5.8501 -4.627356,-4.39006"
           id="path1250-4-3" />
        <path
           style="fill:none;stroke:#ffcc00;stroke-width:0.965;stroke-linecap:round;stroke-linejoin:round;stroke-miterlimit:4;stroke-dasharray:none;stroke-opacity:1"
           d="m 38.937927,142.16987 c 2.473675,1.83802 5.102191,3.33111 7.83091,4.74601"
           id="path1252-5-7" />
        <path
           style="fill:none;stroke:#ffcc00;stroke-width:0.965;stroke-linecap:round;stroke-linejoin:round;stroke-miterlimit:4;stroke-dasharray:none;stroke-opacity:1"
           d="m 34.073274,143.11907 c 2.074543,3.28452 2.840477,7.82582 6.169806,10.20391"
           id="path1254-3-4" />
        <path
           style="fill:none;stroke:#ffcc00;stroke-width:0.965;stroke-linecap:round;stroke-linejoin:round;stroke-miterlimit:4;stroke-dasharray:none;stroke-opacity:1"
           d="m 31.700272,142.52582 c 0.09947,1.25513 -0.355952,2.42542 -0.355952,3.67815"
           id="path1256-6-7" />
        <path
           style="fill:none;stroke:#ffcc00;stroke-width:0.965;stroke-linecap:round;stroke-linejoin:round;stroke-miterlimit:4;stroke-dasharray:none;stroke-opacity:1"
           d="m 37.751427,137.77982 c 2.080231,-0.33093 4.049972,-1.06785 6.169806,-1.06785"
           id="path1258-9-7" />
        <path
           style="fill:none;stroke:#ffcc00;stroke-width:0.965;stroke-linecap:round;stroke-linejoin:round;stroke-miterlimit:4;stroke-dasharray:none;stroke-opacity:1"
           d="m 33.124074,135.52546 c -0.81973,-1.04374 -0.561076,-1.51831 -0.474602,-2.72895"
           id="path1260-7-8" />
        <path
           style="fill:none;stroke:#ffcc00;stroke-width:0.965;stroke-linecap:round;stroke-linejoin:round;stroke-miterlimit:4;stroke-dasharray:none;stroke-opacity:1"
           d="m 30.513771,135.64411 c -1.142711,-1.60521 -2.256742,-3.09002 -3.084904,-4.86465"
           id="path1262-7-1" />
        <path
           id="path837-2-3-0-27-8-0"
           style="font-variation-settings:normal;opacity:1;vector-effect:none;fill:#f1e4b0;fill-opacity:1;stroke:none;stroke-width:1.37953;stroke-linecap:round;stroke-linejoin:round;stroke-miterlimit:4;stroke-dasharray:none;stroke-dashoffset:0;stroke-opacity:1;stop-color:#000000;stop-opacity:1"
           d="m 382.19336,467.07422 c 0.27783,4.77817 0.88891,9.56288 1.84961,14.30469 4.16422,1.72116 9.03695,1.98259 12.41601,0.41211 -0.876,-3.94095 -1.49852,-7.91656 -1.88867,-11.89844 -4.32219,-0.83789 -8.45305,-1.77941 -12.37695,-2.81836 z m 7.00976,17.66016 a 1.8236202,1.8236202 0 0 0 -0.92773,0.28124 1.8236202,1.8236202 0 0 0 -0.56836,2.51758 c 7.54373,11.94361 10.4316,29.52288 23.80078,39.07227 a 1.8236202,1.8236202 0 0 0 2.53907,-0.41992 1.8236202,1.8236202 0 0 0 -0.42188,-2.54688 c -11.79739,-8.42672 -14.70004,-25.17043 -22.83789,-38.05469 a 1.8236202,1.8236202 0 0 0 -1.4707,-0.84765 1.8236202,1.8236202 0 0 0 -0.11329,-0.002 z"
           transform="matrix(0.26458333,0,0,0.26458333,-68.91503,14.383691)" />
        <path
           id="path1260-8-3-7"
           d="m 33.124073,135.52546 c -0.819731,-1.04374 -0.561077,-1.51831 -0.474603,-2.72895"
           style="opacity:0.999;fill:none;stroke:#ffcc00;stroke-width:0.964999;stroke-linecap:round;stroke-linejoin:round;stroke-miterlimit:4;stroke-dasharray:none;stroke-opacity:1" />
        <path
           id="path1145-3-5-6-97-3"
           style="color:#000000;font-style:normal;font-variant:normal;font-weight:normal;font-stretch:normal;font-size:medium;line-height:normal;font-family:sans-serif;font-variant-ligatures:normal;font-variant-position:normal;font-variant-caps:normal;font-variant-numeric:normal;font-variant-alternates:normal;font-variant-east-asian:normal;font-feature-settings:normal;font-variation-settings:normal;text-indent:0;text-align:start;text-decoration:none;text-decoration-line:none;text-decoration-style:solid;text-decoration-color:#000000;letter-spacing:normal;word-spacing:normal;text-transform:none;writing-mode:lr-tb;direction:ltr;text-orientation:mixed;dominant-baseline:auto;baseline-shift:baseline;text-anchor:start;white-space:normal;shape-padding:0;shape-margin:0;inline-size:0;clip-rule:nonzero;display:inline;overflow:visible;visibility:visible;opacity:1;isolation:auto;mix-blend-mode:normal;color-interpolation:sRGB;color-interpolation-filters:linearRGB;solid-color:#000000;solid-opacity:1;vector-effect:none;fill:#c49d00;fill-opacity:1;fill-rule:nonzero;stroke:none;stroke-width:1.37953;stroke-linecap:round;stroke-linejoin:round;stroke-miterlimit:4;stroke-dasharray:none;stroke-dashoffset:0;stroke-opacity:1;color-rendering:auto;image-rendering:auto;shape-rendering:auto;text-rendering:auto;enable-background:accumulate;stop-color:#000000;stop-opacity:1"
           d="m 383.88086,445.71875 a 1.8236202,1.8236202 0 0 0 -0.10742,0.004 1.8236202,1.8236202 0 0 0 -1.48438,0.90625 c 1.09273,0.48581 2.21398,0.95288 3.36328,1.40039 0.0108,-0.13576 0.0231,-0.21605 0.0332,-0.35742 a 1.8236202,1.8236202 0 0 0 -1.69141,-1.94922 1.8236202,1.8236202 0 0 0 -0.11328,-0.004 z"
           transform="matrix(0.26458333,0,0,0.26458333,-68.91503,14.383691)" />
      </g>
      <path
         id="path837-20-49-9-9-8-8"
         style="opacity:0.998001;fill:#008080;stroke:none;stroke-width:0.365001;stroke-linecap:round;stroke-linejoin:round;stroke-miterlimit:4;stroke-dasharray:none;stroke-opacity:1"
         d="m 173.62966,89.307879 c 0.0264,-0.18344 0.0349,-0.34446 -0.0207,-0.28887 -0.0546,0.0546 -0.0754,0.10641 -0.0693,0.15503 0.006,0.0477 0.0395,0.0922 0.0899,0.13384 z" />
    </g>
  </g>
</svg>
