<?xml version="1.0" encoding="UTF-8"?>
<!DOCTYPE svg PUBLIC "-//W3C//DTD SVG 1.1//EN" "http://www.w3.org/Graphics/SVG/1.1/DTD/svg11.dtd">
<!-- Creator: CorelDRAW X6 -->
<svg xmlns="http://www.w3.org/2000/svg" xml:space="preserve" width="7.36625in" height="2.62896in" version="1.1" style="shape-rendering:geometricPrecision; text-rendering:geometricPrecision; image-rendering:optimizeQuality; fill-rule:evenodd; clip-rule:evenodd"
viewBox="0 0 8059 2876"
 xmlns:xlink="http://www.w3.org/1999/xlink">
 <defs>
  <style type="text/css">
   <![CDATA[
    .str2 {stroke:#2B2A29;stroke-width:6.46096;stroke-linecap:round;stroke-linejoin:round}
    .str1 {stroke:#2B2A29;stroke-width:21.5365;stroke-linecap:round;stroke-linejoin:round}
    .str3 {stroke:#E31E24;stroke-width:64.6096;stroke-linecap:round;stroke-linejoin:round}
    .str0 {stroke:#E31E24;stroke-width:64.6096;stroke-dasharray:64.609561 64.609561}
    .fil0 {fill:none}
    .fil17 {fill:#009846}
    .fil10 {fill:#2B2A29}
    .fil3 {fill:#748187}
    .fil5 {fill:#7E4230}
    .fil2 {fill:#96A7B1}
    .fil6 {fill:#A75F4A}
    .fil11 {fill:#B8C8BA}
    .fil9 {fill:#CC6F3C}
    .fil7 {fill:#D19563}
    .fil15 {fill:#EF7F1A}
    .fil4 {fill:#FCD5A6}
    .fil8 {fill:#FEFEFE}
    .fil18 {fill:#0A592C}
    .fil12 {fill:#8B998D}
    .fil14 {fill:#9D6432}
    .fil1 {fill:#BEBC9B}
    .fil19 {fill:#E1E0D1}
    .fil13 {fill:#E2E7E3}
    .fil16 {fill:#FBCCA2}
   ]]>
  </style>
 </defs>
 <g id="Layer_x0020_1">
  <metadata id="CorelCorpID_0Corel-Layer"/>
  <g id="_198336704">
   <line class="fil0 str0" x1="4333" y1="1545" x2="4328" y2= "690" />
   <path class="fil1" d="M3857 293c-76,-2 -483,99 -272,126 34,4 250,30 232,52 27,22 102,-25 91,46 4,4 1017,47 641,-49 -113,-29 648,8 591,-101 -36,-70 -963,-8 -985,-43 -2,-3 -219,-22 -266,-32 0,0 -31,1 -32,1z"/>
   <path class="fil1" d="M4942 2664c258,105 216,41 -77,87 -37,6 -139,-48 -286,-48 -155,0 -57,-46 -249,-95 -225,-57 -86,-117 -250,-13 -45,29 -150,31 -66,-55 83,-86 -256,-19 -314,-19 -217,0 -428,33 -644,1 -266,-40 -650,50 -936,40 -306,-11 -93,13 -407,11 -339,-3 -432,-70 -811,-12 -138,22 -240,-73 -545,-15 -110,22 -148,-31 -245,31 -5,3 -212,49 -50,59 58,3 311,16 342,76 -40,29 -315,71 -14,74 223,2 417,-26 654,-16 115,6 272,-60 349,-21 0,0 325,3 260,-40 -1,-1 -321,83 157,77 81,-1 -72,43 -77,-73 -2,-68 50,-74 68,42 4,29 62,-9 62,78 91,0 583,38 583,-68 0,-66 32,12 10,-83 48,51 21,-4 77,94 12,23 83,-28 136,36 1,2 522,36 530,-5 29,-143 -67,-132 280,-82 121,17 442,98 449,-79 0,-3 165,-39 69,15 -135,75 265,54 330,73 220,66 203,-63 309,-107 59,-25 48,-112 110,7 11,22 93,-7 168,41 118,76 680,39 471,-33 -2,0 171,-29 86,40 -149,121 424,133 537,88 71,-27 131,51 303,28 7,-1 207,9 275,5 17,-1 635,23 452,-5 -84,-13 -950,-49 -869,-87 46,-21 334,-31 207,-106 -35,-21 -128,68 -78,-96 24,-76 -333,44 -472,-13 -75,-31 -1347,-3 -884,168z"/>
   <g>
    <path class="fil2 str1" d="M6216 2499c0,-163 -35,-206 27,-239 27,-15 82,-27 149,-47 58,-17 480,-28 492,64 14,110 14,148 18,251 0,10 -69,74 -126,10 -6,-6 -15,138 -183,47 -66,-36 19,-14 -41,37 -31,26 -127,-2 -145,-67 -4,0 -1,28 -49,35 -118,15 -67,-64 -127,-54 -17,3 -15,-21 -15,-37z"/>
    <path class="fil3" d="M6876 2342c-30,-4 -43,43 -114,26 -2,0 -107,18 -138,15 -10,0 -105,13 -141,11 -43,-1 26,2 14,51 -3,15 0,151 12,156 26,10 61,6 59,-32 -1,-19 40,14 60,15 21,2 61,23 103,-1 20,-12 34,-61 55,-69 8,-3 16,20 26,31 14,16 69,2 77,-31 8,-30 -14,-122 -1,-150 6,-11 -2,-20 -12,-22z"/>
    <path class="fil4 str2" d="M6329 2254c-38,2 -55,19 -68,27 -36,23 -18,42 8,55 114,58 679,24 588,-74 -32,-34 -460,-48 -508,-16 -7,5 -11,8 -20,8z"/>
    <path class="fil0 str2" d="M6239 2362c0,51 4,96 4,143"/>
    <path class="fil0 str2" d="M6262 2416c0,12 -5,78 8,81"/>
    <path class="fil0 str2" d="M6871 2351c0,53 0,105 0,158"/>
    <path class="fil0 str2" d="M6208 2299c0,37 29,29 49,49 30,32 68,10 98,40 7,8 -2,16 45,5 38,-10 55,2 100,-5 41,-7 95,-5 134,-10 49,-6 232,-5 245,-58 5,-16 0,-20 0,-29"/>
    <path class="fil0 str2" d="M6699 2378c-1,5 -2,49 -2,60"/>
    <line class="fil0 str2" x1="6393" y1="2394" x2="6392" y2= "2395" />
    <path class="fil0 str2" d="M6357 2391c0,2 13,148 17,162 1,1 -2,29 -2,33"/>
    <path class="fil0 str2" d="M6247 2307c60,0 116,-7 174,-15"/>
    <path class="fil0 str2" d="M6466 2359c28,-28 54,-59 93,-71l3 -2"/>
    <path class="fil0 str2" d="M6514 2258c-79,-10 -197,87 41,62 35,-3 63,-9 95,-21"/>
    <path class="fil0 str2" d="M6584 2283c3,2 102,-19 116,-20 13,-2 91,-7 101,0"/>
    <path class="fil0 str2" d="M6520 2274c4,-10 13,-49 17,-45"/>
    <path class="fil0 str2" d="M6424 2247c18,14 46,34 66,47"/>
    <path class="fil0 str2" d="M6578 2300c26,7 109,29 126,42"/>
    <path class="fil0 str2" d="M6741 2252c66,50 -82,87 -113,93"/>
    <path class="fil0 str2" d="M6794 2258c9,46 -73,67 -106,77"/>
   </g>
   <g>
    <path class="fil2 str1" d="M304 2592c0,-163 -35,-206 28,-239 27,-15 81,-27 148,-47 58,-17 480,-28 492,64 14,110 14,148 18,251 1,25 -65,22 -133,54 -70,34 -163,-5 -217,40 -74,63 -63,-61 -184,-34 -1,0 -3,1 -5,1 -1,0 -3,0 -5,1 -117,15 -66,-64 -127,-54 -17,3 -15,-21 -15,-37z"/>
    <path class="fil3" d="M965 2436c-31,-5 -44,42 -114,25 -3,0 -107,19 -138,16 -10,-1 -106,12 -142,11 -42,-2 26,1 15,51 -3,14 -1,150 11,155 27,10 61,6 59,-32 0,-19 41,15 61,16 160,8 127,-30 144,-26 5,1 13,-15 39,-14 20,1 78,-18 78,-30 0,-32 -14,-122 -1,-151 5,-11 -2,-20 -12,-21z"/>
    <path class="fil4 str2" d="M418 2348c-38,1 -55,18 -68,26 -36,24 -19,42 8,55 114,58 679,25 588,-74 -32,-34 -461,-48 -509,-16 -7,5 -11,8 -19,9z"/>
    <path class="fil0 str2" d="M327 2456c0,50 4,96 4,142"/>
    <path class="fil0 str2" d="M350 2510c0,11 -5,78 8,81"/>
    <path class="fil0 str2" d="M959 2444c0,53 0,105 0,158"/>
    <path class="fil0 str2" d="M297 2392c0,37 29,29 48,50 30,31 68,9 98,39 8,8 -1,16 45,5 39,-10 55,2 100,-5 41,-6 96,-5 134,-10 50,-6 232,-5 246,-58 4,-16 -1,-19 -1,-29"/>
    <path class="fil0 str2" d="M787 2471c-1,5 -1,50 -1,60"/>
    <line class="fil0 str2" x1="482" y1="2488" x2="481" y2= "2488" />
    <path class="fil0 str2" d="M445 2484c0,2 13,148 18,162 0,1 -3,29 -3,33"/>
    <path class="fil0 str2" d="M336 2400c59,0 115,-7 174,-15"/>
    <path class="fil0 str2" d="M554 2452c29,-28 54,-59 94,-71l2 -1"/>
    <path class="fil0 str2" d="M603 2351c-80,-10 -198,88 40,63 35,-4 63,-10 96,-22"/>
    <path class="fil0 str2" d="M673 2376c2,3 101,-19 116,-20 13,-1 90,-7 100,0"/>
    <path class="fil0 str2" d="M608 2367c5,-10 14,-49 18,-45"/>
    <path class="fil0 str2" d="M512 2340c19,15 47,34 67,48"/>
    <path class="fil0 str2" d="M666 2393c26,7 110,29 127,42"/>
    <path class="fil0 str2" d="M829 2345c66,50 -81,87 -112,93"/>
    <path class="fil0 str2" d="M882 2351c10,46 -73,67 -105,77"/>
   </g>
   <g>
    <path class="fil2 str1" d="M1042 2546c0,-163 -35,-206 28,-240 27,-14 81,-27 148,-46 58,-17 480,-29 492,64 14,109 14,148 18,251 0,4 -48,56 -113,75 -92,27 -215,15 -237,19 -100,15 -348,-73 -321,-86 16,-8 -15,-22 -15,-37z"/>
    <path class="fil3" d="M1703 2389c-31,-5 -44,42 -114,26 -3,-1 -107,18 -138,15 -10,-1 -106,13 -142,11 -43,-2 26,1 15,51 -3,14 -1,154 11,155 283,38 396,-68 381,-86 -21,-24 -14,-122 -1,-150 5,-12 -3,-20 -12,-22z"/>
    <path class="fil4 str2" d="M1156 2301c-38,2 -56,18 -68,26 -37,24 -19,42 8,56 114,57 679,24 588,-74 -32,-34 -461,-48 -509,-17 -7,5 -11,9 -19,9z"/>
    <path class="fil0 str2" d="M1065 2409c0,51 4,96 4,143"/>
    <path class="fil0 str2" d="M1088 2463c0,12 -5,78 8,81"/>
    <path class="fil0 str2" d="M1697 2397c0,53 0,106 0,158"/>
    <path class="fil0 str2" d="M1035 2345c0,37 29,29 48,50 30,31 68,9 98,40 8,7 -1,15 45,4 39,-9 55,3 100,-5 41,-6 95,-5 134,-10 50,-6 232,-4 246,-57 4,-17 -1,-20 -1,-30"/>
    <path class="fil0 str2" d="M1525 2424c-1,5 -1,50 -1,60"/>
    <line class="fil0 str2" x1="1220" y1="2441" x2="1219" y2= "2442" />
    <path class="fil0 str2" d="M1183 2437c0,3 13,149 18,163 0,1 -3,28 -3,33"/>
    <path class="fil0 str2" d="M1074 2353c59,0 115,-6 174,-15"/>
    <path class="fil0 str2" d="M1292 2406c29,-28 54,-60 94,-72l2 -1"/>
    <path class="fil0 str2" d="M1341 2305c-80,-11 -198,87 40,62 35,-4 63,-9 96,-22"/>
    <path class="fil0 str2" d="M1411 2330c2,2 101,-19 116,-21 13,-1 90,-6 100,0"/>
    <path class="fil0 str2" d="M1346 2321c5,-10 14,-49 18,-45"/>
    <path class="fil0 str2" d="M1250 2293c19,15 47,35 67,48"/>
    <path class="fil0 str2" d="M1404 2346c26,8 110,29 127,43"/>
    <path class="fil0 str2" d="M1567 2299c66,50 -81,87 -112,92"/>
    <path class="fil0 str2" d="M1620 2305c10,45 -73,66 -105,77"/>
   </g>
   <g>
    <path class="fil2 str1" d="M1790 2612c-17,-162 -56,-202 3,-242 25,-17 78,-35 143,-61 56,-23 474,-78 496,12 25,108 29,146 44,248 8,53 -71,45 -155,89 -51,27 -110,12 -183,41 -49,19 -325,-53 -328,-52 -17,5 -18,-20 -20,-35z"/>
    <path class="fil3" d="M2431 2387c-30,-2 -39,47 -111,37 -2,0 -104,30 -135,30 -10,0 -104,23 -140,26 -42,2 26,-2 20,49 -2,14 15,150 28,153 27,7 61,0 55,-38 -3,-18 42,11 62,9 20,-1 64,19 102,-12 10,-8 75,-17 106,-35 39,-20 44,-49 44,-49 -4,0 -31,-115 -16,-150 5,-12 -5,-20 -15,-20z"/>
    <path class="fil4 str2" d="M1878 2356c-38,6 -53,24 -65,34 -33,27 -14,43 14,54 119,45 678,-47 577,-135 -35,-30 -463,0 -507,37 -7,5 -11,9 -19,10z"/>
    <path class="fil0 str2" d="M1799 2473c5,51 14,95 19,142"/>
    <path class="fil0 str2" d="M1828 2524c1,12 3,79 16,80"/>
    <path class="fil0 str2" d="M2427 2396c5,52 11,105 16,157"/>
    <path class="fil0 str2" d="M1762 2413c4,37 32,26 54,44 33,28 68,3 101,30 9,6 0,15 45,-1 38,-13 56,-3 99,-15 41,-10 95,-15 133,-24 48,-11 230,-29 238,-83 2,-16 -3,-19 -4,-29"/>
    <path class="fil0 str2" d="M2259 2440c-1,6 3,50 4,60"/>
    <line class="fil0 str2" x1="1956" y1="2489" x2="1955" y2= "2490" />
    <path class="fil0 str2" d="M1920 2489c0,3 28,146 34,160 0,1 0,28 1,33"/>
    <path class="fil0 str2" d="M1802 2417c59,-6 114,-19 171,-33"/>
    <path class="fil0 str2" d="M2024 2446c26,-31 48,-64 86,-81l3 -1"/>
    <path class="fil0 str2" d="M2062 2341c-80,-2 -187,107 47,58 34,-8 62,-16 93,-32"/>
    <path class="fil0 str2" d="M2134 2358c3,2 99,-29 114,-32 13,-3 89,-16 100,-11"/>
    <path class="fil0 str2" d="M2069 2356c4,-10 9,-50 13,-47"/>
    <path class="fil0 str2" d="M1971 2339c20,13 50,29 71,40"/>
    <path class="fil0 str2" d="M2130 2376c27,4 112,17 130,29"/>
    <path class="fil0 str2" d="M2287 2311c71,43 -72,95 -102,104"/>
    <path class="fil0 str2" d="M2340 2312c14,44 -66,73 -96,87"/>
   </g>
   <g>
    <path class="fil2 str1" d="M2518 2577c0,-163 -35,-206 28,-240 27,-14 81,-27 148,-46 58,-17 480,-29 492,64 14,110 14,148 18,251 0,10 -60,65 -126,10 -3,-3 -6,20 -21,41 -32,47 -173,52 -274,40 -68,-9 -107,-32 -123,-30 -117,16 -66,-63 -127,-53 -17,3 -15,-22 -15,-37z"/>
    <path class="fil3" d="M3179 2420c-31,-5 -44,42 -115,26 -2,-1 -106,18 -137,15 -10,-1 -106,13 -142,11 -43,-2 26,1 15,51 -3,14 -1,151 11,155 51,20 8,-22 120,-16 20,1 60,23 102,-2 20,-11 34,-60 55,-68 8,-3 16,20 26,31 14,15 70,1 78,-31 7,-31 -14,-122 -1,-150 5,-12 -3,-20 -12,-22z"/>
    <path class="fil4 str2" d="M2632 2332c-38,2 -56,18 -68,27 -37,23 -19,41 8,55 114,57 679,24 587,-74 -31,-34 -460,-48 -508,-17 -7,5 -11,9 -19,9z"/>
    <path class="fil0 str2" d="M2541 2440c0,51 4,96 4,143"/>
    <path class="fil0 str2" d="M2564 2494c0,12 -5,78 8,81"/>
    <path class="fil0 str2" d="M3173 2428c0,53 0,106 0,159"/>
    <path class="fil0 str2" d="M2511 2377c0,37 29,28 48,49 30,31 68,9 98,40 8,7 -1,15 45,4 39,-9 55,3 100,-4 41,-7 95,-6 134,-10 50,-7 232,-5 246,-58 4,-17 -1,-20 -1,-29"/>
    <path class="fil0 str2" d="M3001 2455c-1,5 -1,50 -1,60"/>
    <line class="fil0 str2" x1="2695" y1="2472" x2="2695" y2= "2473" />
    <path class="fil0 str2" d="M2659 2468c0,3 13,149 18,163 0,1 -3,28 -3,33"/>
    <path class="fil0 str2" d="M2550 2384c59,0 115,-6 174,-15"/>
    <path class="fil0 str2" d="M2768 2437c28,-28 54,-60 94,-72l2 -1"/>
    <path class="fil0 str2" d="M2817 2336c-80,-11 -198,87 40,62 35,-4 63,-9 96,-21"/>
    <path class="fil0 str2" d="M2886 2361c3,2 102,-19 117,-21 13,-1 90,-6 100,0"/>
    <path class="fil0 str2" d="M2822 2352c5,-10 14,-49 18,-45"/>
    <path class="fil0 str2" d="M2726 2324c19,15 46,35 67,48"/>
    <path class="fil0 str2" d="M2880 2377c26,8 110,29 127,43"/>
    <path class="fil0 str2" d="M3043 2330c66,50 -81,87 -112,92"/>
    <path class="fil0 str2" d="M3096 2336c9,45 -73,66 -105,77"/>
   </g>
   <g>
    <path class="fil2 str1" d="M3259 2558c-6,-163 -42,-204 19,-240 26,-15 80,-30 147,-52 57,-19 478,-46 494,46 18,109 19,147 27,250 1,13 -74,77 -143,94 -72,17 -138,-14 -163,-26 -37,-18 -15,-1 -9,9 5,8 -5,5 -31,30 -61,55 -65,-48 -195,-26 -117,20 -69,-61 -129,-48 -17,3 -16,-21 -17,-37z"/>
    <path class="fil3" d="M3914 2377c-31,-3 -42,44 -114,30 -2,0 -106,22 -137,20 -10,0 -105,17 -141,17 -42,0 26,0 17,50 -3,14 5,151 17,155 27,9 61,4 58,-34 -1,-19 41,13 61,13 20,0 61,20 102,-5 20,-13 32,7 53,-2 7,-3 16,-49 26,-39 15,15 70,-1 77,-34 6,-30 -19,-121 -6,-150 5,-12 -4,-20 -13,-21z"/>
    <path class="fil4 str2" d="M3364 2310c-38,3 -55,20 -67,28 -36,25 -17,43 10,55 116,54 679,-1 584,-95 -32,-33 -462,-31 -508,2 -7,5 -11,9 -19,10z"/>
    <path class="fil0 str2" d="M3277 2421c2,50 8,96 9,142"/>
    <path class="fil0 str2" d="M3302 2474c1,12 -2,78 11,80"/>
    <path class="fil0 str2" d="M3909 2386c2,52 3,105 5,158"/>
    <path class="fil0 str2" d="M3244 2358c2,37 31,28 51,48 31,30 68,7 99,36 8,7 -1,16 45,3 38,-11 56,0 100,-9 41,-8 95,-8 134,-15 49,-8 231,-13 243,-66 4,-17 -2,-20 -2,-30"/>
    <path class="fil0 str2" d="M3738 2419c-1,5 0,50 0,60"/>
    <line class="fil0 str2" x1="3433" y1="2447" x2="3432" y2= "2448" />
    <path class="fil0 str2" d="M3396 2445c0,2 19,147 24,161 0,1 -1,29 -1,34"/>
    <path class="fil0 str2" d="M3284 2365c59,-2 115,-11 173,-22"/>
    <path class="fil0 str2" d="M3504 2409c27,-29 52,-61 91,-75l2 -1"/>
    <path class="fil0 str2" d="M3549 2306c-80,-7 -194,95 43,61 34,-5 62,-12 94,-25"/>
    <path class="fil0 str2" d="M3619 2328c3,3 101,-22 116,-24 13,-2 90,-10 100,-4"/>
    <path class="fil0 str2" d="M3555 2322c4,-10 11,-49 16,-46"/>
    <path class="fil0 str2" d="M3458 2298c19,14 47,33 68,45"/>
    <path class="fil0 str2" d="M3614 2346c26,6 110,24 128,37"/>
    <path class="fil0 str2" d="M3775 2292c67,47 -78,90 -109,97"/>
    <path class="fil0 str2" d="M3828 2296c11,45 -71,69 -102,81"/>
   </g>
   <g>
    <path class="fil2 str1" d="M3994 2507c0,-163 -35,-206 28,-240 26,-14 81,-27 148,-46 58,-17 480,-28 492,64 14,110 14,148 18,251 0,10 -85,141 -143,77 -6,-7 -190,3 -205,17 -2,1 -4,3 -6,4 -56,42 -58,-54 -190,-37 -117,16 -66,-63 -127,-53 -17,3 -15,-22 -15,-37z"/>
    <path class="fil3" d="M4655 2350c-31,-4 -44,43 -115,26 -2,-1 -106,18 -137,15 -10,-1 -106,13 -142,11 -43,-1 26,1 15,51 -4,14 0,149 11,155 69,42 11,-25 119,-16 21,2 61,23 103,-2 20,-11 28,-8 49,-16 7,-3 16,20 25,31 15,16 77,-51 85,-83 7,-30 -15,-122 -1,-150 5,-12 -3,-20 -12,-22z"/>
    <path class="fil4 str2" d="M4108 2262c-38,2 -56,18 -68,27 -37,23 -19,42 7,55 115,57 680,24 588,-74 -31,-34 -460,-48 -508,-16 -7,4 -11,8 -19,8z"/>
    <path class="fil0 str2" d="M4017 2370c0,51 4,96 4,143"/>
    <path class="fil0 str2" d="M4040 2424c0,12 -5,78 8,81"/>
    <path class="fil0 str2" d="M4649 2359c0,52 0,105 0,158"/>
    <path class="fil0 str2" d="M3987 2307c0,37 29,29 48,49 30,31 68,10 98,40 8,7 -1,15 45,4 39,-9 55,3 100,-4 41,-7 95,-5 134,-10 50,-7 232,-5 246,-58 4,-17 -1,-20 -1,-29"/>
    <path class="fil0 str2" d="M4477 2385c-1,6 -1,50 -1,60"/>
    <line class="fil0 str2" x1="4171" y1="2402" x2="4171" y2= "2403" />
    <path class="fil0 str2" d="M4135 2399c0,2 13,148 18,162 0,1 -3,28 -3,33"/>
    <path class="fil0 str2" d="M4026 2315c59,0 115,-7 174,-15"/>
    <path class="fil0 str2" d="M4244 2367c28,-28 54,-59 94,-72l2 -1"/>
    <path class="fil0 str2" d="M4293 2266c-80,-11 -198,87 40,62 35,-3 63,-9 96,-21"/>
    <path class="fil0 str2" d="M4362 2291c3,2 102,-19 117,-20 13,-2 90,-7 100,-1"/>
    <path class="fil0 str2" d="M4298 2282c5,-10 13,-49 18,-45"/>
    <path class="fil0 str2" d="M4202 2254c19,15 46,35 67,48"/>
    <path class="fil0 str2" d="M4356 2308c26,7 110,28 127,42"/>
    <path class="fil0 str2" d="M4519 2260c66,50 -81,87 -112,93"/>
    <path class="fil0 str2" d="M4572 2266c9,45 -73,66 -105,77"/>
   </g>
   <g>
    <path class="fil2 str1" d="M4732 2507c0,-163 -35,-206 28,-240 26,-14 81,-27 148,-46 58,-17 480,-28 492,64 14,110 14,148 18,251 0,10 -68,74 -126,10 -6,-6 -15,137 -183,47 -66,-36 20,-14 -41,37 -31,26 -126,-2 -144,-67 -5,0 -2,28 -50,34 -117,16 -67,-63 -127,-53 -17,3 -15,-22 -15,-37z"/>
    <path class="fil3" d="M5393 2350c-31,-4 -44,43 -115,26 -2,-1 -106,18 -138,15 -9,-1 -105,13 -141,11 -43,-1 26,1 15,51 -4,14 -1,151 11,155 27,11 61,6 59,-31 -1,-19 41,14 60,15 21,1 61,23 103,-2 20,-11 34,-60 55,-68 8,-3 16,20 26,31 14,15 70,1 78,-31 7,-30 -15,-122 -1,-150 5,-12 -3,-20 -12,-22z"/>
    <path class="fil4 str2" d="M4846 2262c-38,2 -56,18 -68,27 -37,23 -19,42 7,55 115,57 680,24 588,-74 -31,-34 -460,-48 -508,-16 -7,4 -11,8 -19,8z"/>
    <path class="fil0 str2" d="M4755 2370c0,51 4,96 4,143"/>
    <path class="fil0 str2" d="M4778 2424c0,12 -5,78 8,81"/>
    <path class="fil0 str2" d="M5387 2359c0,52 0,105 0,158"/>
    <path class="fil0 str2" d="M4725 2307c0,37 29,29 48,49 30,31 68,10 98,40 8,7 -1,15 45,4 39,-9 55,3 100,-4 41,-7 95,-5 134,-10 50,-7 232,-5 246,-58 4,-17 -1,-20 -1,-29"/>
    <path class="fil0 str2" d="M5215 2385c-1,6 -1,50 -1,60"/>
    <line class="fil0 str2" x1="4909" y1="2402" x2="4909" y2= "2403" />
    <path class="fil0 str2" d="M4873 2399c0,2 13,148 18,162 0,1 -3,28 -3,33"/>
    <path class="fil0 str2" d="M4763 2315c60,0 116,-7 175,-15"/>
    <path class="fil0 str2" d="M4982 2367c28,-28 54,-59 94,-72l2 -1"/>
    <path class="fil0 str2" d="M5031 2266c-80,-11 -198,87 40,62 35,-3 63,-9 96,-21"/>
    <path class="fil0 str2" d="M5100 2291c3,2 102,-19 117,-20 12,-2 90,-7 100,-1"/>
    <path class="fil0 str2" d="M5036 2282c5,-10 13,-49 18,-45"/>
    <path class="fil0 str2" d="M4940 2254c19,15 46,35 67,48"/>
    <path class="fil0 str2" d="M5094 2308c26,7 110,28 127,42"/>
    <path class="fil0 str2" d="M5257 2260c66,50 -81,87 -112,93"/>
    <path class="fil0 str2" d="M5310 2266c9,45 -73,66 -105,77"/>
   </g>
   <g>
    <path class="fil2 str1" d="M5470 2546c0,-163 -35,-206 28,-240 26,-14 81,-27 148,-46 58,-17 480,-29 492,64 14,109 14,148 18,251 0,10 -68,74 -126,10 -6,-6 -15,137 -183,47 -66,-36 20,-14 -41,37 -31,26 -126,-2 -144,-67 -5,0 -2,28 -50,34 -117,16 -67,-63 -127,-53 -17,3 -15,-22 -15,-37z"/>
    <path class="fil3" d="M6131 2389c-31,-5 -44,42 -115,26 -2,-1 -106,18 -138,15 -9,-1 -105,13 -141,11 -43,-2 26,1 15,51 -4,14 -1,151 11,155 27,10 61,6 59,-32 -1,-18 41,15 60,16 21,1 61,23 103,-2 20,-11 34,-60 55,-68 8,-3 16,20 26,31 14,15 70,1 77,-31 8,-31 -14,-122 0,-150 5,-12 -3,-20 -12,-22z"/>
    <path class="fil4 str2" d="M5584 2301c-38,2 -56,18 -68,26 -37,24 -19,42 7,56 114,57 680,24 588,-74 -31,-34 -460,-48 -508,-17 -7,5 -11,9 -19,9z"/>
    <path class="fil0 str2" d="M5493 2409c0,51 4,96 4,143"/>
    <path class="fil0 str2" d="M5516 2463c0,12 -5,78 8,81"/>
    <path class="fil0 str2" d="M6125 2397c0,53 0,106 0,158"/>
    <path class="fil0 str2" d="M5463 2345c0,37 29,29 48,50 30,31 68,9 98,40 8,7 -1,15 45,4 39,-9 55,3 100,-5 41,-6 95,-5 134,-10 49,-6 232,-4 246,-57 4,-17 -1,-20 -1,-30"/>
    <path class="fil0 str2" d="M5953 2424c-1,5 -1,50 -1,60"/>
    <line class="fil0 str2" x1="5647" y1="2441" x2="5646" y2= "2442" />
    <path class="fil0 str2" d="M5611 2437c0,3 13,149 18,163 0,1 -3,28 -3,33"/>
    <path class="fil0 str2" d="M5501 2353c60,0 116,-6 175,-15"/>
    <path class="fil0 str2" d="M5720 2406c28,-28 54,-60 94,-72l2 -1"/>
    <path class="fil0 str2" d="M5769 2305c-80,-11 -198,87 40,62 35,-4 63,-9 96,-22"/>
    <path class="fil0 str2" d="M5838 2330c3,2 102,-19 117,-21 12,-1 90,-6 100,0"/>
    <path class="fil0 str2" d="M5774 2321c5,-10 13,-49 18,-45"/>
    <path class="fil0 str2" d="M5678 2293c19,15 46,35 67,48"/>
    <path class="fil0 str2" d="M5832 2346c26,8 110,29 127,43"/>
    <path class="fil0 str2" d="M5995 2299c66,50 -81,87 -112,92"/>
    <path class="fil0 str2" d="M6048 2305c9,45 -73,66 -105,77"/>
   </g>
   <g>
    <g>
     <path class="fil5 str1" d="M3490 1679c-41,-155 -105,-205 -122,-391 -8,-98 -254,-41 -254,163 0,237 28,691 301,781 178,59 74,-376 81,-474 1,-10 -4,-72 -6,-79z"/>
     <path class="fil0 str2" d="M3244 1300c-50,64 -85,262 -48,319"/>
     <path class="fil0 str2" d="M3332 1297c-73,109 -150,433 -97,543"/>
     <path class="fil0 str2" d="M3350 1418c-21,156 -77,245 -79,443 0,63 -3,153 31,209"/>
     <path class="fil0 str2" d="M3169 1749c103,102 97,148 151,215"/>
     <path class="fil0 str2" d="M3129 1546c40,7 205,225 221,273"/>
     <path class="fil0 str2" d="M3162 1403c78,95 132,155 195,261"/>
     <path class="fil0 str2" d="M3226 1303c57,51 141,190 167,264"/>
    </g>
    <path class="fil6 str1" d="M3802 1782c45,20 55,55 28,104 20,105 8,194 -28,275 10,2 123,54 122,88 -5,115 -129,-2 -206,35 -51,23 -113,17 -149,29 -2,11 290,22 149,73 -49,18 -239,7 -292,-15 -116,-48 -97,-55 -121,-171 -14,-70 -69,-161 -76,-263 -8,-136 26,-296 68,-425 14,-42 29,-69 17,-84 -29,-18 -25,-104 43,-58 39,-39 199,-52 263,-52 27,-24 69,-29 82,6 236,144 190,296 100,458z"/>
    <path class="fil0 str2" d="M3478 2170c63,18 84,102 100,155 6,0 5,-3 6,-9"/>
    <path class="fil0 str2" d="M3657 2371c37,12 23,12 39,27"/>
    <path class="fil0 str2" d="M3696 2355c7,6 25,17 27,25"/>
    <path class="fil0 str2" d="M3833 2249c15,11 23,21 30,40"/>
    <path class="fil0 str2" d="M3872 2231c3,7 18,51 18,52"/>
    <path class="fil0 str2" d="M3902 2231c2,12 4,17 6,27"/>
    <path class="fil7" d="M3617 1346c-49,12 -302,16 -136,109 70,39 210,100 279,24 39,-44 -81,-201 -143,-133z"/>
    <path class="fil7" d="M3561 1907c-10,128 168,397 242,119 7,-25 15,-130 -16,-128 -69,2 -39,-93 -102,-27 -40,43 -86,31 -124,36z"/>
    <path class="fil0 str2" d="M3523 1418c79,16 82,-22 94,-21"/>
    <path class="fil0 str2" d="M3666 1382c66,5 33,-2 67,-6"/>
    <g>
     <path class="fil8 str2" d="M3795 1537c2,21 -9,91 -30,91 -56,0 -65,25 -57,-70 1,-8 86,-41 82,-17l5 -4z"/>
     <path class="fil0 str2" d="M3754 1531c0,13 -6,101 -3,100"/>
     <path class="fil9 str2" d="M3710 1420c-157,17 -71,266 101,104 48,-46 6,-115 -101,-104z"/>
     <path class="fil0 str2" d="M3729 1415c57,74 28,156 28,155"/>
     <path class="fil10 str2" d="M3731 1393c-158,44 70,93 42,4 -4,-10 -30,-7 -42,-4z"/>
    </g>
    <path class="fil0 str2" d="M3463 1421c24,-40 35,-88 85,-75"/>
    <path class="fil0 str2" d="M3639 1331c31,-20 35,-2 63,6"/>
    <path class="fil0 str2" d="M3353 1391c-35,-11 -27,22 -12,27"/>
    <path class="fil0 str2" d="M3781 1785c-107,-31 -161,-83 -247,49 -14,22 63,73 150,-18"/>
    <path class="fil0 str2" d="M3499 1722c7,4 90,55 91,57"/>
    <path class="fil0 str2" d="M3469 1898c77,22 168,19 233,-52"/>
    <path class="fil0 str2" d="M3678 1813c7,4 92,134 145,72"/>
    <path class="fil0 str2" d="M3723 1761c32,-32 85,-29 85,6"/>
    <path class="fil0 str2" d="M3775 1794c30,0 29,-25 27,-9"/>
   </g>
   <g>
    <line class="fil0 str2" x1="4360" y1="103" x2="4556" y2= "115" />
    <path class="fil11 str1" d="M3811 131c-119,3 -56,148 -61,271 -2,31 -6,-38 35,6 83,87 177,-70 182,8 3,53 47,-21 152,67 82,68 119,4 206,6 152,4 -8,-111 130,-27 109,66 -26,-61 43,-10 28,21 155,-95 203,-75 281,114 147,-153 109,-243 -273,0 -424,-211 -617,-81 -9,6 -413,58 -382,78z"/>
    <path class="fil0 str2" d="M4156 327c0,80 -8,112 22,187"/>
    <path class="fil12" d="M4795 179c-57,5 -566,95 -566,147 0,112 1,127 14,142 32,34 104,-79 189,-44 62,25 207,-92 355,-62 83,17 56,-27 31,-152 -1,-1 -22,-31 -23,-31z"/>
    <path class="fil13" d="M4341 51c-19,3 -810,119 -445,132 16,1 114,25 182,46 46,14 70,26 76,28 38,11 539,-48 569,-84 9,-11 -61,-34 -144,-44 -105,-13 -173,-68 -238,-78z"/>
    <path class="fil0 str2" d="M3757 190c31,1 275,47 303,63 17,-63 65,-28 33,20 -12,17 56,137 77,-3 5,-32 21,27 64,-14 1,-1 481,-57 568,-91"/>
    <path class="fil0 str2" d="M4712 29c49,63 138,21 138,-18 0,100 227,18 174,21"/>
    <path class="fil0 str2" d="M4488 469c92,91 165,-43 164,-10 -3,62 152,31 145,-2 -10,49 178,66 156,24"/>
    <path class="fil0 str2" d="M3748 453c169,83 152,-1 196,34 53,43 50,-19 90,41 16,25 135,40 150,22"/>
   </g>
   <g>
    <g>
     <g>
      <path class="fil14 str1" d="M4277 1927c16,163 96,212 78,226 -13,10 -32,-9 -166,57 -45,23 -49,76 44,54 129,-30 305,32 240,-166 -30,-94 -200,-203 -196,-171z"/>
      <path class="fil15 str1" d="M4130 1371c-54,-26 -121,4 -159,-19 -18,-10 -9,-32 -43,-62 -93,-85 -271,-117 -57,50 12,9 77,24 97,59 -36,64 -30,125 -91,176 -4,4 -18,29 14,40 19,7 78,-9 131,-45 25,15 33,60 27,86 -13,56 -77,130 -64,154 54,101 99,160 79,259 -17,84 127,75 30,-160 -37,-90 158,-127 70,86 -56,136 86,232 73,-86 -1,-41 137,84 147,102 54,101 110,249 48,264 -180,43 -151,63 -157,118 -4,36 104,-5 247,-40 137,-34 -15,-285 86,-300 28,-4 36,120 59,172 64,143 226,190 359,190 69,0 110,1 175,-13 0,0 -179,-44 -200,-43 -126,4 -220,-215 -237,-334 -18,-120 38,-423 -218,-528 -162,-66 -260,95 -323,68 -16,-6 -61,-35 -66,-71 -2,-20 5,-71 35,-74 162,13 236,-187 194,-179 -239,49 -130,73 -256,130z"/>
      <path class="fil16" d="M4254 1308c22,-16 170,-95 102,5 -32,48 -59,88 -129,80 -33,-4 27,-85 27,-85z"/>
      <path class="fil16" d="M3933 1346c-27,-63 -225,-157 -61,-31 12,9 74,61 61,31z"/>
      <path class="fil16" d="M3996 1396c98,-36 157,13 91,103 -14,19 -177,124 -148,58 22,-53 16,-146 57,-161z"/>
      <path class="fil16" d="M4403 1715c-50,247 145,216 145,502 0,130 -56,99 -148,148 -38,21 -234,14 34,-67 71,-21 26,-197 -3,-238 -54,-75 -154,-279 -49,-346 0,0 22,-2 21,1z"/>
      <path class="fil16" d="M4085 1665c72,-61 185,81 148,211 -2,6 -21,285 -67,217 -32,-47 118,-260 -52,-267 -83,-3 -9,172 -10,227 -3,94 -12,-84 -49,-149 -52,-87 -47,-136 6,-220 5,-7 14,-11 24,-19z"/>
      <path class="fil0 str2" d="M4596 1657c-449,-68 -212,355 -202,359"/>
      <path class="fil0 str2" d="M4208 1698c71,98 57,111 34,211 -1,6 -13,4 -17,4"/>
      <path class="fil0 str2" d="M4114 1723c17,75 56,116 62,136"/>
      <path class="fil10 str2" d="M3895 1573c31,-21 68,13 -11,13 -11,0 11,-13 11,-13z"/>
      <path class="fil0 str2" d="M3898 1582c1,13 2,20 2,33"/>
      <path class="fil0 str2" d="M4005 1370c-12,0 -35,5 -39,47"/>
      <path class="fil0 str2" d="M4218 1386c-2,4 16,0 20,-1 104,-35 64,-17 104,-71 63,-85 -159,95 -159,95"/>
      <path class="fil0 str2" d="M4113 1532c-5,34 -87,25 -103,35"/>
      <path class="fil16" d="M4716 2072c50,82 119,328 282,315 -3,29 -333,-3 -297,-301 2,-10 14,-17 15,-14z"/>
     </g>
     <path class="fil0 str2" d="M4059 1449c6,2 48,10 47,-3"/>
     <path class="fil0 str2" d="M3981 1437c17,9 14,7 30,0"/>
    </g>
    <path class="fil0 str2" d="M4311 2344c-15,15 -40,66 -23,65"/>
    <path class="fil0 str2" d="M4336 2347c-4,9 -16,35 -16,46"/>
    <path class="fil0 str2" d="M4371 2347c-5,15 -9,21 -11,37"/>
    <path class="fil0 str2" d="M4180 2068c-4,18 -9,35 -5,53"/>
    <path class="fil0 str2" d="M4196 2068c-2,12 -2,36 -5,44"/>
    <path class="fil0 str2" d="M4078 2070c0,12 0,23 0,35"/>
    <path class="fil0 str2" d="M4104 2059c0,14 2,21 2,34"/>
   </g>
   <path class="fil17 str2" d="M7495 2636c-68,-815 -285,-1030 -486,-1723 -115,-398 133,-525 47,-433 -256,274 101,1160 273,1445 70,117 189,662 -47,78 -25,-62 -619,-1241 -482,-1026 247,386 290,835 425,1264 74,237 41,511 42,509 60,-82 329,108 226,-97l2 -17z"/>
   <path class="fil17 str2" d="M4612 2703c-13,-115 75,-248 75,-249 -76,-14 -145,427 -113,99 17,-178 -84,71 -84,150 0,-204 -12,-175 -37,13 -2,17 -52,26 37,3 51,-29 123,-3 122,-16z"/>
   <g>
    <g>
     <g>
      <path class="fil14 str1" d="M5648 1899c17,164 96,213 78,226 -12,10 -31,-9 -165,58 -46,22 -50,75 44,53 129,-30 305,32 240,-166 -31,-93 -200,-203 -197,-171z"/>
      <path class="fil15 str1" d="M5502 1343c-55,-25 -121,4 -160,-19 -17,-10 -9,-31 -42,-62 -93,-85 -272,-116 -58,50 12,9 77,24 98,60 -37,63 -30,124 -91,176 -4,3 -18,28 13,39 20,7 78,-9 132,-45 25,16 32,60 27,86 -13,56 -77,130 -65,154 54,101 100,161 80,259 -18,84 127,75 30,-160 -37,-89 158,-126 70,86 -56,136 86,233 73,-86 -2,-41 137,84 147,102 54,101 110,250 47,265 -179,43 -150,63 -156,117 -4,36 103,-5 246,-40 137,-34 -15,-285 87,-300 27,-4 36,120 59,172 63,143 226,191 358,191 70,0 110,0 176,-13 0,-1 -179,-45 -200,-44 -126,4 -221,-215 -238,-333 -17,-121 38,-423 -217,-528 -162,-67 -260,94 -324,68 -15,-7 -61,-35 -65,-71 -2,-20 5,-71 35,-75 162,13 236,-187 194,-179 -240,49 -131,73 -256,130z"/>
      <path class="fil16" d="M5626 1281c21,-17 170,-96 102,4 -32,48 -59,89 -129,80 -33,-4 27,-84 27,-84z"/>
      <path class="fil16" d="M5305 1318c-27,-63 -225,-157 -61,-31 12,9 74,61 61,31z"/>
      <path class="fil16" d="M5368 1368c97,-36 157,14 91,103 -14,20 -177,125 -149,58 23,-53 17,-146 58,-161z"/>
      <path class="fil16" d="M5775 1687c-50,247 144,216 144,503 0,129 -55,98 -148,148 -38,20 -233,13 35,-68 70,-21 26,-197 -4,-238 -54,-75 -153,-279 -48,-346 0,0 21,-2 21,1z"/>
      <path class="fil16" d="M5457 1637c72,-61 185,81 147,211 -1,6 -20,286 -66,217 -32,-47 118,-259 -52,-267 -84,-3 -9,172 -10,227 -3,94 -12,-84 -50,-148 -52,-88 -46,-136 7,-220 5,-8 14,-11 24,-20z"/>
      <path class="fil0 str2" d="M5968 1629c-450,-68 -213,355 -202,359"/>
      <path class="fil0 str2" d="M5580 1671c71,97 57,110 34,210 -2,6 -13,4 -17,4"/>
      <path class="fil0 str2" d="M5485 1695c18,75 57,116 62,136"/>
      <path class="fil10 str2" d="M5267 1545c31,-21 68,13 -11,13 -12,0 10,-13 11,-13z"/>
      <path class="fil0 str2" d="M5270 1554c1,13 2,20 2,33"/>
      <path class="fil0 str2" d="M5377 1342c-12,0 -35,5 -39,47"/>
      <path class="fil0 str2" d="M5589 1358c-1,4 17,0 21,-1 104,-35 63,-17 104,-71 63,-85 -159,95 -160,95"/>
      <path class="fil0 str2" d="M5484 1505c-4,33 -87,24 -103,35"/>
      <path class="fil16" d="M6088 2044c49,82 118,328 282,315 -3,29 -334,-3 -297,-301 1,-10 13,-17 15,-14z"/>
     </g>
     <path class="fil0 str2" d="M5430 1421c7,2 49,10 48,-2"/>
     <path class="fil0 str2" d="M5353 1409c17,10 14,7 30,0"/>
    </g>
    <path class="fil0 str2" d="M5683 2317c-15,14 -41,66 -23,64"/>
    <path class="fil0 str2" d="M5708 2319c-4,9 -17,35 -16,46"/>
    <path class="fil0 str2" d="M5743 2319c-6,15 -10,21 -12,37"/>
    <path class="fil0 str2" d="M5551 2040c-4,18 -9,36 -4,53"/>
    <path class="fil0 str2" d="M5568 2040c-2,12 -2,36 -5,44"/>
    <path class="fil0 str2" d="M5450 2042c0,12 0,23 0,35"/>
    <path class="fil0 str2" d="M5475 2031c0,14 3,21 3,34"/>
   </g>
   <g>
    <g>
     <g>
      <path class="fil14 str1" d="M6362 1899c17,164 97,213 79,226 -13,10 -32,-9 -166,58 -45,22 -49,75 44,53 129,-30 305,32 240,-166 -30,-93 -200,-203 -197,-171z"/>
      <path class="fil15 str1" d="M6216 1343c-54,-25 -121,4 -159,-19 -18,-10 -9,-31 -43,-62 -93,-85 -271,-116 -58,50 13,9 78,24 98,60 -36,63 -30,124 -91,176 -4,3 -18,28 14,39 19,7 78,-9 131,-45 25,16 33,60 27,86 -13,56 -77,130 -65,154 55,101 100,161 80,259 -17,84 127,75 30,-160 -37,-89 158,-126 70,86 -56,136 86,233 73,-86 -1,-41 137,84 147,102 54,101 110,250 48,265 -180,43 -151,63 -157,117 -4,36 104,-5 247,-40 137,-34 -15,-285 86,-300 28,-4 36,120 59,172 64,143 226,191 359,191 69,0 109,0 175,-13 0,-1 -179,-45 -200,-44 -126,4 -220,-215 -238,-333 -17,-121 39,-423 -217,-528 -162,-67 -260,94 -323,68 -16,-7 -61,-35 -66,-71 -2,-20 5,-71 35,-75 162,13 236,-187 194,-179 -240,49 -130,73 -256,130z"/>
      <path class="fil16" d="M6340 1281c21,-17 170,-96 102,4 -32,48 -59,89 -129,80 -33,-4 27,-84 27,-84z"/>
      <path class="fil16" d="M6019 1318c-27,-63 -225,-157 -61,-31 12,9 74,61 61,31z"/>
      <path class="fil16" d="M6082 1368c97,-36 157,14 91,103 -14,20 -177,125 -148,58 22,-53 16,-146 57,-161z"/>
      <path class="fil16" d="M6489 1687c-50,247 145,216 145,503 0,129 -56,98 -148,148 -38,20 -234,13 34,-68 71,-21 26,-197 -3,-238 -54,-75 -154,-279 -49,-346 0,0 22,-2 21,1z"/>
      <path class="fil16" d="M6171 1637c72,-61 185,81 148,211 -2,6 -21,286 -67,217 -32,-47 118,-259 -52,-267 -83,-3 -9,172 -10,227 -3,94 -12,-84 -49,-148 -52,-88 -47,-136 6,-220 5,-8 14,-11 24,-20z"/>
      <path class="fil0 str2" d="M6682 1629c-449,-68 -213,355 -202,359"/>
      <path class="fil0 str2" d="M6294 1671c71,97 57,110 34,210 -1,6 -13,4 -17,4"/>
      <path class="fil0 str2" d="M6200 1695c17,75 56,116 61,136"/>
      <path class="fil10 str2" d="M5981 1545c31,-21 68,13 -11,13 -11,0 11,-13 11,-13z"/>
      <path class="fil0 str2" d="M5984 1554c1,13 2,20 2,33"/>
      <path class="fil0 str2" d="M6091 1342c-12,0 -35,5 -39,47"/>
      <path class="fil0 str2" d="M6304 1358c-2,4 16,0 20,-1 104,-35 64,-17 104,-71 63,-85 -159,95 -159,95"/>
      <path class="fil0 str2" d="M6199 1505c-5,33 -87,24 -103,35"/>
      <path class="fil16" d="M6802 2044c50,82 119,328 282,315 -3,29 -333,-3 -297,-301 2,-10 14,-17 15,-14z"/>
     </g>
     <path class="fil0 str2" d="M6145 1421c6,2 48,10 47,-2"/>
     <path class="fil0 str2" d="M6067 1409c17,10 14,7 30,0"/>
    </g>
    <path class="fil0 str2" d="M6397 2317c-15,14 -41,66 -23,64"/>
    <path class="fil0 str2" d="M6422 2319c-4,9 -16,35 -16,46"/>
    <path class="fil0 str2" d="M6457 2319c-5,15 -9,21 -12,37"/>
    <path class="fil0 str2" d="M6266 2040c-5,18 -9,36 -5,53"/>
    <path class="fil0 str2" d="M6282 2040c-2,12 -2,36 -5,44"/>
    <path class="fil0 str2" d="M6164 2042c0,12 0,23 0,35"/>
    <path class="fil0 str2" d="M6190 2031c0,14 2,21 2,34"/>
   </g>
   <g>
    <g>
     <g>
      <path class="fil14 str1" d="M7077 1899c17,164 96,213 78,226 -13,10 -32,-9 -166,58 -45,22 -49,75 44,53 129,-30 305,32 241,-166 -31,-93 -201,-203 -197,-171z"/>
      <path class="fil15 str1" d="M6930 1343c-54,-25 -121,4 -159,-19 -18,-10 -9,-31 -43,-62 -92,-85 -271,-116 -57,50 12,9 77,24 97,60 -36,63 -30,124 -90,176 -5,3 -18,28 13,39 20,7 78,-9 131,-45 25,16 33,60 27,86 -12,56 -77,130 -64,154 54,101 99,161 79,259 -17,84 127,75 30,-160 -36,-89 158,-126 70,86 -55,136 86,233 74,-86 -2,-41 137,84 147,102 54,101 110,250 47,265 -180,43 -151,63 -157,117 -4,36 104,-5 247,-40 137,-34 -15,-285 87,-300 27,-4 35,120 58,172 64,143 227,191 359,191 70,0 110,0 175,-13 1,-1 -179,-45 -200,-44 -126,4 -220,-215 -237,-333 -18,-121 38,-423 -217,-528 -162,-67 -261,94 -324,68 -15,-7 -61,-35 -65,-71 -3,-20 4,-71 34,-75 163,13 237,-187 194,-179 -239,49 -130,73 -256,130z"/>
      <path class="fil16" d="M7054 1281c22,-17 170,-96 103,4 -33,48 -59,89 -130,80 -33,-4 27,-84 27,-84z"/>
      <path class="fil16" d="M6733 1318c-26,-63 -225,-157 -60,-31 11,9 73,61 60,31z"/>
      <path class="fil16" d="M6796 1368c98,-36 158,14 92,103 -15,20 -177,125 -149,58 23,-53 17,-146 57,-161z"/>
      <path class="fil16" d="M7203 1687c-50,247 145,216 145,503 0,129 -56,98 -148,148 -38,20 -233,13 35,-68 70,-21 26,-197 -4,-238 -54,-75 -153,-279 -49,-346 0,0 22,-2 21,1z"/>
      <path class="fil16" d="M6886 1637c71,-61 184,81 147,211 -2,6 -20,286 -67,217 -32,-47 119,-259 -52,-267 -83,-3 -8,172 -10,227 -3,94 -11,-84 -49,-148 -52,-88 -47,-136 7,-220 4,-8 14,-11 24,-20z"/>
      <path class="fil0 str2" d="M7396 1629c-449,-68 -212,355 -202,359"/>
      <path class="fil0 str2" d="M7009 1671c70,97 56,110 33,210 -1,6 -12,4 -17,4"/>
      <path class="fil0 str2" d="M6914 1695c18,75 57,116 62,136"/>
      <path class="fil10 str2" d="M6695 1545c31,-21 68,13 -11,13 -11,0 11,-13 11,-13z"/>
      <path class="fil0 str2" d="M6699 1554c0,13 2,20 2,33"/>
      <path class="fil0 str2" d="M6806 1342c-13,0 -36,5 -39,47"/>
      <path class="fil0 str2" d="M7018 1358c-2,4 16,0 21,-1 104,-35 63,-17 103,-71 63,-85 -159,95 -159,95"/>
      <path class="fil0 str2" d="M6913 1505c-5,33 -87,24 -103,35"/>
      <path class="fil16" d="M7516 2044c50,82 119,328 283,315 -4,29 -334,-3 -297,-301 1,-10 13,-17 14,-14z"/>
     </g>
     <path class="fil0 str2" d="M6859 1421c7,2 48,10 47,-2"/>
     <path class="fil0 str2" d="M6781 1409c17,10 15,7 30,0"/>
    </g>
    <path class="fil0 str2" d="M7111 2317c-15,14 -40,66 -23,64"/>
    <path class="fil0 str2" d="M7137 2319c-4,9 -17,35 -16,46"/>
    <path class="fil0 str2" d="M7171 2319c-5,15 -9,21 -11,37"/>
    <path class="fil0 str2" d="M6980 2040c-4,18 -9,36 -5,53"/>
    <path class="fil0 str2" d="M6996 2040c-2,12 -1,36 -4,44"/>
    <path class="fil0 str2" d="M6879 2042c0,12 0,23 0,35"/>
    <path class="fil0 str2" d="M6904 2031c0,14 2,21 2,34"/>
   </g>
   <g>
    <path class="fil18 str2" d="M6326 2314c11,-172 -342,-1627 -87,-636 195,755 109,647 75,-108 -16,-349 27,96 106,344 107,334 93,522 -36,-298 -65,-418 53,-7 106,150 46,138 159,608 31,682 -244,142 -245,-214 -195,-134z"/>
    <path class="fil18 str2" d="M6818 2498c-110,-146 -46,-480 55,-638 1,-1 147,-234 102,-128 -111,258 36,645 50,547 34,-229 43,-399 254,-550 58,-42 -1,98 -13,195 -3,25 -17,304 28,119 17,-70 200,-427 166,-162 -3,19 -52,349 13,193 83,-199 75,79 97,197 43,237 -201,262 -393,299 -102,19 -289,22 -359,-72z"/>
    <path class="fil18 str2" d="M7580 2307c-26,-20 -72,-406 -88,-471 -98,-396 -420,-573 -470,-683 -20,-45 81,111 111,180 150,347 185,1010 154,910 -121,-393 -511,-780 -511,-1058 0,-92 32,151 52,222 23,77 151,454 140,518 -34,0 -176,-658 -179,-743 0,-1 6,-433 -26,-330 -31,99 67,1334 94,1349 -76,-235 -218,-459 -218,-712 0,201 118,697 214,878 22,41 -116,-214 -137,-266 -35,-88 -114,-479 -47,-112 15,87 127,605 208,640 96,41 472,104 550,12 42,-49 256,-198 156,-322 -9,-11 1,-9 -3,-12z"/>
    <path class="fil18 str2" d="M7632 2452c-16,-311 -134,-565 -186,-872 -11,-59 -135,-472 -23,-174 101,269 234,719 300,1004 1,2 -27,-518 -11,-742 20,-276 19,-464 -52,-731 -62,-230 93,275 96,285 83,375 -24,889 50,1209 1,5 -93,-825 233,-1275 76,-105 -134,410 -138,423 -108,326 -100,488 -72,804 11,124 -36,168 -161,149 -17,-2 -188,15 -90,-73 14,-13 53,-13 54,-7z"/>
    <path class="fil18 str2" d="M7652 2591c-101,-91 -191,-834 -191,-995 0,-383 213,-779 214,-810 0,-3 -107,333 -101,603 2,123 40,225 40,362 0,-458 -8,-790 359,-1115 0,1 -152,233 -163,256 -215,448 -252,1143 -76,1621 43,116 -79,81 -82,78z"/>
    <path class="fil17 str2" d="M6711 2810c-1,-1 -137,-566 -159,-643 -120,-415 -54,-543 -267,-973 -24,-48 -34,-205 43,-20 107,256 213,314 273,653 47,271 144,532 144,805 0,-595 -85,-885 -184,-1454 -68,-392 192,497 199,553 46,379 34,494 24,860 -4,176 87,-620 106,-688 62,-216 245,-410 246,-412 2,0 -183,382 -196,438 -70,295 -105,497 -94,796 3,61 -118,126 -135,85z"/>
    <path class="fil17 str2" d="M6959 2655c-135,-166 45,-989 -235,-1493 0,-1 -95,-279 -34,-188 324,482 249,599 294,1145 10,118 52,752 20,231 -25,-408 104,-1305 106,-1233 6,168 -62,308 -33,629 1,2 106,887 103,569 -5,-707 362,-817 -24,-1453 -27,-45 134,53 203,581 52,402 53,596 46,988 -8,445 69,-176 76,-267 32,-380 -17,-816 -123,-1180 76,-108 232,803 237,864 16,202 58,529 -17,722 -32,82 -61,-1 -219,67 -67,29 18,-98 -249,28 -58,28 -149,-8 -151,-10z"/>
    <path class="fil17 str2" d="M7044 2737c-87,-510 -342,-1064 -748,-1403 -164,-137 38,-30 162,150 174,252 382,1073 381,1069 -28,-441 -857,-1216 -804,-1096 27,61 668,414 794,1074 63,331 -113,150 233,224 5,-9 -22,-43 -18,-18z"/>
    <path class="fil0 str1" d="M7095 2546c-254,-697 -260,-810 -723,-1458 -4,-5 -107,-165 -61,-126"/>
    <path class="fil6 str2" d="M6244 875c-259,-291 -400,-310 38,128 54,54 200,141 -8,-83 -15,-17 -16,-29 -30,-45z"/>
    <path class="fil17 str2" d="M7557 2598c267,-431 170,-750 299,-1122 1,17 -329,891 -301,784 3,-8 183,-688 78,-332 -37,127 -64,490 -59,118 1,-95 168,-731 0,-253 -116,329 -36,487 -88,743 -5,27 18,148 71,62z"/>
    <g>
     <path class="fil19" d="M7814 2543c53,120 97,124 -138,223 -338,142 -1141,172 -1448,-59 -15,-12 189,-39 186,-35 180,109 361,-42 392,-25 173,92 194,-55 263,-19 80,40 129,-23 255,-16 77,4 66,-31 224,-20 63,4 158,-44 253,-41 8,0 10,-1 13,-8z"/>
     <path class="fil0 str2" d="M6414 2672c180,109 361,-42 392,-25 173,92 194,-55 263,-19 80,40 129,-23 255,-16 77,4 66,-31 224,-20 63,4 158,-44 253,-41 8,0 10,-1 13,-8"/>
    </g>
    <path class="fil17 str2" d="M6393 2713c113,-116 122,-537 112,-173 0,14 -116,295 -2,97 35,-61 140,-521 24,0 -19,89 24,73 -78,73 -9,0 -55,1 -56,3z"/>
   </g>
   <path class="fil0 str3" d="M4474 785c-90,-115 -94,-92 -150,-205 -26,99 -107,191 -122,219"/>
  </g>
 </g>
</svg>
