<?xml version="1.0" encoding="UTF-8"?>
<!DOCTYPE svg PUBLIC "-//W3C//DTD SVG 1.1//EN" "http://www.w3.org/Graphics/SVG/1.1/DTD/svg11.dtd">
<!-- Creator: CorelDRAW X6 -->
<svg xmlns="http://www.w3.org/2000/svg" xml:space="preserve" width="124mm" height="82.25mm" version="1.1" style="shape-rendering:geometricPrecision; text-rendering:geometricPrecision; image-rendering:optimizeQuality; fill-rule:evenodd; clip-rule:evenodd"
viewBox="0 0 10235 6789"
 xmlns:xlink="http://www.w3.org/1999/xlink">
 <defs>
  <style type="text/css">
   <![CDATA[
    .str4 {stroke:#2B2A29;stroke-width:12.3812}
    .str3 {stroke:#2B2A29;stroke-width:41.2708}
    .str2 {stroke:#2B2A29;stroke-width:41.2708;stroke-linecap:round;stroke-linejoin:round}
    .str0 {stroke:#2B2A29;stroke-width:330.166;stroke-linecap:round;stroke-linejoin:round}
    .str1 {stroke:#2B2A29;stroke-width:41.2708;stroke-dasharray:41.270767 123.812301}
    .fil0 {fill:none}
    .fil8 {fill:#2B2A29}
    .fil4 {fill:#96A7B1}
    .fil6 {fill:#B7CBD8}
    .fil3 {fill:#D9DADA}
    .fil1 {fill:#E31E24}
    .fil9 {fill:#FECC00}
    .fil2 {fill:#FEFEFE}
    .fil5 {fill:#FFED00}
    .fil10 {fill:#89241F}
    .fil7 {fill:#D6E4EE}
   ]]>
  </style>
 </defs>
 <g id="Layer_x0020_1">
  <metadata id="CorelCorpID_0Corel-Layer"/>
  <g id="_748844368">
   <polyline class="fil0 str0" points="8584,1671 10070,1671 10070,3322 10070,4973 10070,6624 8419,6624 6768,6624 5118,6624 3467,6624 1816,6624 165,6624 165,4973 165,3322 165,1671 1816,1671 3467,1671 5118,1671 6603,1671 "/>
   <rect class="fil1 str1" x="6768" y="21" width="1651" height="1651"/>
   <g>
    <rect class="fil2 str2" x="165" y="1671" width="1651" height="1651"/>
    <rect class="fil2 str2" x="165" y="3322" width="1651" height="1651"/>
    <rect class="fil2 str2" x="165" y="4973" width="1651" height="1651"/>
    <rect class="fil2 str2" x="1816" y="1671" width="1651" height="1651"/>
    <rect class="fil2 str2" x="1816" y="3322" width="1651" height="1651"/>
    <rect class="fil2 str2" x="1816" y="4973" width="1651" height="1651"/>
    <rect class="fil2 str2" x="3467" y="1671" width="1651" height="1651"/>
    <rect class="fil2 str2" x="3467" y="3322" width="1651" height="1651"/>
    <rect class="fil2 str2" x="3467" y="4973" width="1651" height="1651"/>
    <rect class="fil2 str2" x="5118" y="1671" width="1651" height="1651"/>
    <rect class="fil2 str2" x="5118" y="3322" width="1651" height="1651"/>
    <rect class="fil2 str2" x="5118" y="4973" width="1651" height="1651"/>
    <rect class="fil2 str2" x="6768" y="1671" width="1651" height="1651"/>
    <rect class="fil2 str2" x="6768" y="3322" width="1651" height="1651"/>
    <rect class="fil2 str2" x="6768" y="4973" width="1651" height="1651"/>
    <rect class="fil2 str2" x="8419" y="1671" width="1651" height="1651"/>
    <rect class="fil2 str2" x="8419" y="3322" width="1651" height="1651"/>
    <rect class="fil2 str2" x="8419" y="4973" width="1651" height="1651"/>
   </g>
   <g>
    <path class="fil3" d="M750 5264c376,29 587,-101 795,303 44,87 -6,692 -56,742 -112,111 -245,87 -404,117 -77,15 -585,-6 -567,-145 44,-339 -40,-1039 232,-1017z"/>
    <path class="fil4 str3" d="M1525 6095l-1032 4c-14,0 -58,2 -56,29 -10,2 -6,50 36,50l1049 -13c0,0 71,-70 3,-70z"/>
    <path class="fil4 str3" d="M1525 5557l-1032 4c-14,0 -58,3 -56,29 -10,3 -6,50 36,50l1049 -12c0,-1 71,-71 3,-71z"/>
    <path class="fil5 str3" d="M624 5537l-3 702c0,83 14,107 66,107l625 0c59,0 63,-23 63,-100l0 -696c0,-479 -749,-532 -751,-13z"/>
    <polygon class="fil1 str4" points="787,5448 1190,5448 985,5236 "/>
    <g>
     <rect class="fil6 str3" x="402" y="5428" width="158" height="378" rx="32" ry="33"/>
     <path class="fil4" d="M433 5727c10,0 110,-6 107,13 -2,9 6,30 -5,36 -8,5 -80,5 -102,2 -17,-2 -10,-51 0,-51z"/>
     <path class="fil7" d="M438 5648c24,17 79,18 94,-8 14,-22 2,-104 -5,-156 0,-4 -66,-29 -95,-4 0,0 -24,148 6,168z"/>
     <path class="fil0 str4" d="M410 5449c40,0 107,-15 138,-4"/>
     <path class="fil0 str4" d="M406 5786c50,0 101,4 146,4"/>
     <path class="fil0 str4" d="M402 5461c56,22 110,0 158,0"/>
     <path class="fil0 str4" d="M414 5756c25,7 118,0 154,0"/>
     <path class="fil0 str4" d="M406 5524c53,0 110,0 162,0"/>
     <path class="fil0 str4" d="M406 5694c50,0 100,0 150,0"/>
     <path class="fil0 str4" d="M406 5615c57,0 110,9 154,9"/>
    </g>
    <g>
     <rect class="fil6 str3" x="402" y="5947" width="158" height="378" rx="32" ry="33"/>
     <path class="fil4" d="M433 6246c10,0 110,-6 107,13 -2,9 6,30 -5,36 -8,5 -80,5 -102,2 -17,-2 -10,-51 0,-51z"/>
     <path class="fil7" d="M438 6167c24,16 79,18 94,-8 14,-22 2,-104 -5,-156 0,-4 -66,-29 -95,-4 0,0 -24,148 6,168z"/>
     <path class="fil0 str4" d="M410 5968c40,0 107,-16 138,-4"/>
     <path class="fil0 str4" d="M406 6304c50,0 101,5 146,5"/>
     <path class="fil0 str4" d="M402 5980c56,22 110,0 158,0"/>
     <path class="fil0 str4" d="M414 6275c25,6 118,0 154,0"/>
     <path class="fil0 str4" d="M406 6043c53,0 110,0 162,0"/>
     <path class="fil0 str4" d="M406 6213c50,0 100,0 150,0"/>
     <path class="fil0 str4" d="M406 6134c57,0 110,8 154,8"/>
    </g>
    <path class="fil8 str4" d="M676 5576c158,-63 480,-65 628,-3 40,16 -22,174 -28,200 -5,25 -530,36 -559,0 -23,-27 -72,-185 -41,-197z"/>
    <path class="fil8 str4" d="M1292 6226l-582 -4c-22,3 -77,80 0,80l601 7c-1,0 12,-41 -19,-83z"/>
    <path class="fil0 str4" d="M710 5833c6,68 -16,289 9,353"/>
    <path class="fil2" d="M756 5830c-53,551 108,236 34,13 -6,-19 -34,-15 -34,-13z"/>
    <path class="fil2" d="M708 5627c17,133 119,205 31,-12 -15,-38 -35,-17 -31,12z"/>
    <path class="fil2" d="M816 5281c-133,35 -169,398 -42,116 21,-48 135,-141 42,-116z"/>
    <path class="fil0 str4" d="M653 5368c77,0 173,-34 155,-130 0,0 0,-9 0,-10"/>
    <path class="fil9" d="M1205 5284c-14,-17 -112,-72 -22,26 51,56 58,215 82,214 158,-7 -6,341 -6,396 0,189 -31,188 57,323 2,-2 28,-745 -4,-788 -34,-43 -108,-172 -107,-171z"/>
    <g>
     <rect class="fil6 str3" x="1434" y="5428" width="158" height="378" rx="32" ry="33"/>
     <path class="fil4" d="M1464 5727c11,0 110,-6 107,13 -1,9 6,30 -4,36 -9,5 -81,5 -102,2 -17,-2 -10,-51 -1,-51z"/>
     <path class="fil7" d="M1469 5648c25,17 80,18 95,-8 13,-22 2,-104 -5,-156 -1,-4 -66,-29 -95,-4 -1,0 -24,148 5,168z"/>
     <path class="fil0 str4" d="M1442 5449c40,0 107,-15 138,-4"/>
     <path class="fil0 str4" d="M1438 5786c49,0 100,4 146,4"/>
     <path class="fil0 str4" d="M1434 5461c55,22 109,0 158,0"/>
     <path class="fil0 str4" d="M1445 5756c25,7 119,0 155,0"/>
     <path class="fil0 str4" d="M1438 5524c53,0 110,0 162,0"/>
     <path class="fil0 str4" d="M1438 5694c50,0 100,0 150,0"/>
     <path class="fil0 str4" d="M1438 5615c56,0 109,9 154,9"/>
    </g>
    <g>
     <rect class="fil6 str3" x="1434" y="5947" width="158" height="378" rx="32" ry="33"/>
     <path class="fil4" d="M1464 6246c11,0 110,-6 107,13 -1,9 6,30 -4,36 -9,5 -81,5 -102,2 -17,-2 -10,-51 -1,-51z"/>
     <path class="fil7" d="M1469 6167c25,16 80,18 95,-8 13,-22 2,-104 -5,-156 -1,-4 -66,-29 -95,-4 -1,0 -24,148 5,168z"/>
     <path class="fil0 str4" d="M1442 5968c40,0 107,-16 138,-4"/>
     <path class="fil0 str4" d="M1438 6304c49,0 100,5 146,5"/>
     <path class="fil0 str4" d="M1434 5980c55,22 109,0 158,0"/>
     <path class="fil0 str4" d="M1445 6275c25,6 119,0 155,0"/>
     <path class="fil0 str4" d="M1438 6043c53,0 110,0 162,0"/>
     <path class="fil0 str4" d="M1438 6213c50,0 100,0 150,0"/>
     <path class="fil0 str4" d="M1438 6134c56,0 109,8 154,8"/>
    </g>
    <path class="fil0 str4" d="M1279 5823c-1,88 5,223 10,320"/>
    <path class="fil0 str4" d="M1172 5228c13,47 34,148 107,119 8,-3 24,-8 26,-13"/>
   </g>
   <g>
    <path class="fil3" d="M750 3604c376,29 587,-101 795,303 44,87 -6,692 -56,742 -112,111 -245,87 -404,117 -77,16 -585,-6 -567,-144 44,-339 -40,-1040 232,-1018z"/>
    <path class="fil4 str3" d="M1525 4435l-1032 4c-14,0 -58,2 -56,29 -10,3 -6,50 36,50l1049 -13c0,0 71,-70 3,-70z"/>
    <path class="fil4 str3" d="M1525 3897l-1032 4c-14,0 -58,3 -56,29 -10,3 -6,50 36,50l1049 -12c0,0 71,-71 3,-71z"/>
    <path class="fil5 str3" d="M624 3877l-3 702c0,84 14,107 66,107l625 0c59,0 63,-23 63,-100l0 -696c0,-479 -749,-532 -751,-13z"/>
    <polygon class="fil1 str4" points="787,3788 1190,3788 985,3577 "/>
    <g>
     <rect class="fil6 str3" x="402" y="3768" width="158" height="378" rx="32" ry="33"/>
     <path class="fil4" d="M433 4068c10,0 110,-6 107,12 -2,9 6,30 -5,36 -8,5 -80,5 -102,2 -17,-2 -10,-50 0,-50z"/>
     <path class="fil7" d="M438 3988c24,17 79,18 94,-8 14,-22 2,-104 -5,-156 0,-4 -66,-29 -95,-4 0,1 -24,148 6,168z"/>
     <path class="fil0 str4" d="M410 3789c40,0 107,-15 138,-4"/>
     <path class="fil0 str4" d="M406 4126c50,0 101,4 146,4"/>
     <path class="fil0 str4" d="M402 3802c56,22 110,0 158,0"/>
     <path class="fil0 str4" d="M414 4097c25,6 118,0 154,0"/>
     <path class="fil0 str4" d="M406 3864c53,0 110,0 162,0"/>
     <path class="fil0 str4" d="M406 4034c50,0 100,0 150,0"/>
     <path class="fil0 str4" d="M406 3955c57,0 110,9 154,9"/>
    </g>
    <g>
     <rect class="fil6 str3" x="402" y="4287" width="158" height="378" rx="32" ry="33"/>
     <path class="fil4" d="M433 4586c10,1 110,-6 107,13 -2,9 6,30 -5,36 -8,5 -80,5 -102,2 -17,-2 -10,-51 0,-51z"/>
     <path class="fil7" d="M438 4507c24,17 79,18 94,-8 14,-22 2,-104 -5,-156 0,-4 -66,-29 -95,-4 0,0 -24,148 6,168z"/>
     <path class="fil0 str4" d="M410 4308c40,0 107,-15 138,-4"/>
     <path class="fil0 str4" d="M406 4645c50,0 101,4 146,4"/>
     <path class="fil0 str4" d="M402 4321c56,21 110,0 158,0"/>
     <path class="fil0 str4" d="M414 4616c25,6 118,0 154,0"/>
     <path class="fil0 str4" d="M406 4383c53,0 110,0 162,0"/>
     <path class="fil0 str4" d="M406 4553c50,0 100,0 150,0"/>
     <path class="fil0 str4" d="M406 4474c57,0 110,9 154,9"/>
    </g>
    <path class="fil8 str4" d="M676 3916c158,-62 480,-64 628,-3 40,16 -22,174 -28,201 -5,24 -530,35 -559,0 -23,-27 -72,-186 -41,-198z"/>
    <path class="fil8 str4" d="M1292 4566l-582 -3c-22,2 -77,80 0,80l601 6c-1,0 12,-41 -19,-83z"/>
    <path class="fil0 str4" d="M710 4174c6,68 -16,288 9,352"/>
    <path class="fil2" d="M756 4170c-53,552 108,236 34,13 -6,-18 -34,-15 -34,-13z"/>
    <path class="fil2" d="M708 3967c17,133 119,205 31,-12 -15,-38 -35,-17 -31,12z"/>
    <path class="fil2" d="M816 3621c-133,35 -169,398 -42,116 21,-48 135,-141 42,-116z"/>
    <path class="fil0 str4" d="M653 3708c77,0 173,-33 155,-130 0,0 0,-9 0,-10"/>
    <path class="fil9" d="M1205 3624c-14,-17 -112,-72 -22,26 51,56 58,215 82,214 158,-7 -6,341 -6,397 0,188 -31,187 57,322 2,-2 28,-745 -4,-787 -34,-44 -108,-173 -107,-172z"/>
    <g>
     <rect class="fil6 str3" x="1434" y="3768" width="158" height="378" rx="32" ry="33"/>
     <path class="fil4" d="M1464 4068c11,0 110,-6 107,12 -1,9 6,30 -4,36 -9,5 -81,5 -102,2 -17,-2 -10,-50 -1,-50z"/>
     <path class="fil7" d="M1469 3988c25,17 80,18 95,-8 13,-22 2,-104 -5,-156 -1,-4 -66,-29 -95,-4 -1,1 -24,148 5,168z"/>
     <path class="fil0 str4" d="M1442 3789c40,0 107,-15 138,-4"/>
     <path class="fil0 str4" d="M1438 4126c49,0 100,4 146,4"/>
     <path class="fil0 str4" d="M1434 3802c55,22 109,0 158,0"/>
     <path class="fil0 str4" d="M1445 4097c25,6 119,0 155,0"/>
     <path class="fil0 str4" d="M1438 3864c53,0 110,0 162,0"/>
     <path class="fil0 str4" d="M1438 4034c50,0 100,0 150,0"/>
     <path class="fil0 str4" d="M1438 3955c56,0 109,9 154,9"/>
    </g>
    <g>
     <rect class="fil6 str3" x="1434" y="4287" width="158" height="378" rx="32" ry="33"/>
     <path class="fil4" d="M1464 4586c11,1 110,-6 107,13 -1,9 6,30 -4,36 -9,5 -81,5 -102,2 -17,-2 -10,-51 -1,-51z"/>
     <path class="fil7" d="M1469 4507c25,17 80,18 95,-8 13,-22 2,-104 -5,-156 -1,-4 -66,-29 -95,-4 -1,0 -24,148 5,168z"/>
     <path class="fil0 str4" d="M1442 4308c40,0 107,-15 138,-4"/>
     <path class="fil0 str4" d="M1438 4645c49,0 100,4 146,4"/>
     <path class="fil0 str4" d="M1434 4321c55,21 109,0 158,0"/>
     <path class="fil0 str4" d="M1445 4616c25,6 119,0 155,0"/>
     <path class="fil0 str4" d="M1438 4383c53,0 110,0 162,0"/>
     <path class="fil0 str4" d="M1438 4553c50,0 100,0 150,0"/>
     <path class="fil0 str4" d="M1438 4474c56,0 109,9 154,9"/>
    </g>
    <path class="fil0 str4" d="M1279 4164c-1,87 5,222 10,319"/>
    <path class="fil0 str4" d="M1172 3568c13,48 34,148 107,119 8,-3 24,-8 26,-12"/>
   </g>
   <g>
    <path class="fil3" d="M1508 2244c-30,376 101,587 -304,795 -86,44 -692,-6 -742,-57 -111,-111 -86,-245 -117,-403 -15,-78 7,-585 145,-567 339,44 1039,-40 1018,232z"/>
    <path class="fil4 str3" d="M677 3019l-4 -1032c0,-14 -3,-58 -29,-56 -3,-10 -50,-6 -50,36l12 1049c0,0 71,71 71,3z"/>
    <path class="fil4 str3" d="M1214 3019l-4 -1032c0,-14 -2,-58 -29,-56 -2,-10 -50,-6 -50,36l13 1049c0,0 70,71 70,3z"/>
    <path class="fil5 str3" d="M1234 2118l-701 -3c-84,0 -107,14 -107,65l0 626c0,59 23,63 99,63l696 0c479,0 532,-749 13,-751z"/>
    <polygon class="fil1 str4" points="1324,2281 1324,2684 1535,2479 "/>
    <g>
     <rect class="fil6 str3" transform="matrix(2.30244E-014 0.869353 -0.913788 2.42013E-014 1343.12 1895.88)" width="182" height="414" rx="36" ry="36"/>
     <path class="fil4" d="M1044 1926c0,11 6,111 -13,107 -8,-1 -29,6 -36,-4 -4,-9 -4,-80 -2,-102 2,-17 51,-10 51,-1z"/>
     <path class="fil7" d="M1124 1932c-17,24 -18,79 7,94 23,14 104,2 157,-5 3,0 29,-66 3,-95 0,-1 -148,-24 -167,6z"/>
     <path class="fil0 str4" d="M1322 1904c0,40 16,107 5,138"/>
     <path class="fil0 str4" d="M986 1900c0,50 -4,101 -4,146"/>
     <path class="fil0 str4" d="M1310 1896c-22,56 0,109 0,158"/>
     <path class="fil0 str4" d="M1015 1908c-6,24 0,118 0,154"/>
     <path class="fil0 str4" d="M1248 1900c0,53 0,110 0,162"/>
     <path class="fil0 str4" d="M1077 1900c0,50 0,100 0,150"/>
     <path class="fil0 str4" d="M1156 1900c0,57 -8,109 -8,154"/>
    </g>
    <g>
     <rect class="fil6 str3" transform="matrix(2.30244E-014 0.869353 -0.913788 2.42013E-014 824.256 1895.88)" width="182" height="414" rx="36" ry="36"/>
     <path class="fil4" d="M525 1926c0,11 6,111 -13,107 -8,-1 -29,6 -35,-4 -5,-9 -5,-80 -3,-102 2,-17 51,-10 51,-1z"/>
     <path class="fil7" d="M605 1932c-17,24 -18,79 8,94 22,14 103,2 156,-5 3,0 29,-66 4,-95 -1,-1 -148,-24 -168,6z"/>
     <path class="fil0 str4" d="M803 1904c0,40 16,107 5,138"/>
     <path class="fil0 str4" d="M467 1900c0,50 -4,101 -4,146"/>
     <path class="fil0 str4" d="M791 1896c-22,56 0,109 0,158"/>
     <path class="fil0 str4" d="M496 1908c-6,24 0,118 0,154"/>
     <path class="fil0 str4" d="M729 1900c0,53 0,110 0,162"/>
     <path class="fil0 str4" d="M558 1900c0,50 0,100 0,150"/>
     <path class="fil0 str4" d="M637 1900c0,57 -8,109 -8,154"/>
    </g>
    <path class="fil8 str4" d="M1196 2170c62,158 64,480 3,628 -17,40 -174,-23 -201,-28 -25,-6 -35,-530 0,-559 27,-23 186,-72 198,-41z"/>
    <path class="fil8 str4" d="M546 2786l3 -582c-2,-23 -80,-77 -80,0l-7 601c0,-1 42,12 84,-19z"/>
    <path class="fil0 str4" d="M938 2204c-68,6 -288,-16 -353,9"/>
    <path class="fil2" d="M942 2249c-552,-52 -237,109 -14,35 19,-6 16,-34 14,-35z"/>
    <path class="fil2" d="M1491 2310c-36,-133 -398,-169 -117,-43 48,22 141,136 117,43z"/>
    <path class="fil0 str4" d="M1404 2147c0,77 33,173 129,154 0,0 9,1 10,1"/>
    <path class="fil9" d="M1487 2699c18,-15 73,-113 -26,-22 -55,51 -214,57 -213,82 7,157 -342,-6 -397,-6 -188,0 -188,-31 -322,57 2,2 745,28 787,-5 44,-33 173,-107 171,-106z"/>
    <g>
     <rect class="fil6 str3" transform="matrix(2.30244E-014 0.869353 -0.913788 2.42013E-014 1343.12 2927.45)" width="182" height="414" rx="36" ry="36"/>
     <path class="fil4" d="M1044 2958c0,11 6,110 -13,107 -8,-2 -29,6 -36,-5 -4,-8 -4,-80 -2,-101 2,-18 51,-11 51,-1z"/>
     <path class="fil7" d="M1124 2963c-17,25 -18,79 7,95 23,13 104,2 157,-5 3,-1 29,-66 3,-96 0,0 -148,-23 -167,6z"/>
     <path class="fil0 str4" d="M1322 2935c0,41 16,108 5,139"/>
     <path class="fil0 str4" d="M986 2931c0,50 -4,101 -4,147"/>
     <path class="fil0 str4" d="M1310 2927c-22,56 0,110 0,159"/>
     <path class="fil0 str4" d="M1015 2939c-6,25 0,118 0,154"/>
     <path class="fil0 str4" d="M1248 2931c0,54 0,111 0,162"/>
     <path class="fil0 str4" d="M1077 2931c0,50 0,101 0,151"/>
     <path class="fil0 str4" d="M1156 2931c0,57 -8,110 -8,155"/>
    </g>
    <g>
     <rect class="fil6 str3" transform="matrix(2.30244E-014 0.869353 -0.913788 2.42013E-014 824.256 2927.45)" width="182" height="414" rx="36" ry="36"/>
     <path class="fil4" d="M525 2958c0,11 6,110 -13,107 -8,-2 -29,6 -35,-5 -5,-8 -5,-80 -3,-101 2,-18 51,-11 51,-1z"/>
     <path class="fil7" d="M605 2963c-17,25 -18,79 8,95 22,13 103,2 156,-5 3,-1 29,-66 4,-96 -1,0 -148,-23 -168,6z"/>
     <path class="fil0 str4" d="M803 2935c0,41 16,108 5,139"/>
     <path class="fil0 str4" d="M467 2931c0,50 -4,101 -4,147"/>
     <path class="fil0 str4" d="M791 2927c-22,56 0,110 0,159"/>
     <path class="fil0 str4" d="M496 2939c-6,25 0,118 0,154"/>
     <path class="fil0 str4" d="M729 2931c0,54 0,111 0,162"/>
     <path class="fil0 str4" d="M558 2931c0,50 0,101 0,151"/>
     <path class="fil0 str4" d="M637 2931c0,57 -8,110 -8,155"/>
    </g>
    <path class="fil0 str4" d="M948 2773c-87,-1 -223,5 -319,10"/>
    <path class="fil0 str4" d="M1543 2666c-47,13 -147,33 -118,107 3,8 8,24 12,25"/>
   </g>
   <g>
    <path class="fil3" d="M4827 2244c-29,376 101,587 -303,795 -87,44 -692,-6 -742,-57 -111,-111 -87,-245 -117,-403 -15,-78 6,-585 144,-567 340,44 1040,-40 1018,232z"/>
    <path class="fil4 str3" d="M3996 3019l-4 -1032c0,-14 -2,-58 -29,-56 -2,-10 -50,-6 -50,36l13 1049c0,0 70,71 70,3z"/>
    <path class="fil4 str3" d="M4534 3019l-4 -1032c0,-14 -3,-58 -29,-56 -3,-10 -50,-6 -50,36l12 1049c1,0 71,71 71,3z"/>
    <path class="fil5 str3" d="M4554 2118l-702 -3c-84,0 -107,14 -107,65l0 626c0,59 23,63 100,63l696 0c479,0 532,-749 13,-751z"/>
    <polygon class="fil1 str4" points="4643,2281 4643,2684 4855,2479 "/>
    <g>
     <rect class="fil6 str3" transform="matrix(2.30244E-014 0.869353 -0.913788 2.42013E-014 4662.67 1895.88)" width="182" height="414" rx="36" ry="36"/>
     <path class="fil4" d="M4364 1926c-1,11 6,111 -13,107 -9,-1 -30,6 -36,-4 -5,-9 -5,-80 -2,-102 2,-17 51,-10 51,-1z"/>
     <path class="fil7" d="M4443 1932c-17,24 -18,79 8,94 22,14 104,2 156,-5 4,0 29,-66 4,-95 0,-1 -148,-24 -168,6z"/>
     <path class="fil0 str4" d="M4642 1904c0,40 15,107 4,138"/>
     <path class="fil0 str4" d="M4305 1900c0,50 -4,101 -4,146"/>
     <path class="fil0 str4" d="M4629 1896c-21,56 0,109 0,158"/>
     <path class="fil0 str4" d="M4334 1908c-6,24 0,118 0,154"/>
     <path class="fil0 str4" d="M4567 1900c0,53 0,110 0,162"/>
     <path class="fil0 str4" d="M4397 1900c0,50 0,100 0,150"/>
     <path class="fil0 str4" d="M4476 1900c0,57 -9,109 -9,154"/>
    </g>
    <g>
     <rect class="fil6 str3" transform="matrix(2.30244E-014 0.869353 -0.913788 2.42013E-014 4143.8 1895.88)" width="182" height="414" rx="36" ry="36"/>
     <path class="fil4" d="M3845 1926c0,11 6,111 -13,107 -9,-1 -30,6 -36,-4 -5,-9 -5,-80 -2,-102 2,-17 51,-10 51,-1z"/>
     <path class="fil7" d="M3924 1932c-16,24 -18,79 8,94 22,14 104,2 156,-5 4,0 29,-66 4,-95 0,-1 -148,-24 -168,6z"/>
     <path class="fil0 str4" d="M4123 1904c0,40 15,107 4,138"/>
     <path class="fil0 str4" d="M3787 1900c0,50 -5,101 -5,146"/>
     <path class="fil0 str4" d="M4111 1896c-22,56 0,109 0,158"/>
     <path class="fil0 str4" d="M3816 1908c-7,24 0,118 0,154"/>
     <path class="fil0 str4" d="M4048 1900c0,53 0,110 0,162"/>
     <path class="fil0 str4" d="M3878 1900c0,50 0,100 0,150"/>
     <path class="fil0 str4" d="M3957 1900c0,57 -8,109 -8,154"/>
    </g>
    <path class="fil8 str4" d="M4515 2170c63,158 65,480 3,628 -16,40 -174,-23 -201,-28 -24,-6 -35,-530 0,-559 27,-23 186,-72 198,-41z"/>
    <path class="fil8 str4" d="M3865 2786l3 -582c-2,-23 -79,-77 -79,0l-7 601c0,-1 41,12 83,-19z"/>
    <path class="fil0 str4" d="M4258 2204c-68,6 -289,-16 -353,9"/>
    <path class="fil2" d="M4261 2249c-551,-52 -236,109 -13,35 19,-6 15,-34 13,-35z"/>
    <path class="fil2" d="M4464 2202c-133,17 -205,119 12,31 38,-15 17,-35 -12,-31z"/>
    <path class="fil2" d="M4810 2310c-35,-133 -398,-169 -116,-43 48,22 141,136 116,43z"/>
    <path class="fil0 str4" d="M4723 2147c0,77 34,173 130,154 0,0 9,1 10,1"/>
    <path class="fil9" d="M4807 2699c17,-15 72,-113 -26,-22 -56,51 -215,57 -214,82 7,157 -341,-6 -397,-6 -188,0 -187,-31 -322,57 2,2 745,28 788,-5 43,-33 172,-107 171,-106z"/>
    <g>
     <rect class="fil6 str3" transform="matrix(2.30244E-014 0.869353 -0.913788 2.42013E-014 4662.67 2927.45)" width="182" height="414" rx="36" ry="36"/>
     <path class="fil4" d="M4364 2958c-1,11 6,110 -13,107 -9,-2 -30,6 -36,-5 -5,-8 -5,-80 -2,-101 2,-18 51,-11 51,-1z"/>
     <path class="fil7" d="M4443 2963c-17,25 -18,79 8,95 22,13 104,2 156,-5 4,-1 29,-66 4,-96 0,0 -148,-23 -168,6z"/>
     <path class="fil0 str4" d="M4642 2935c0,41 15,108 4,139"/>
     <path class="fil0 str4" d="M4305 2931c0,50 -4,101 -4,147"/>
     <path class="fil0 str4" d="M4629 2927c-21,56 0,110 0,159"/>
     <path class="fil0 str4" d="M4334 2939c-6,25 0,118 0,154"/>
     <path class="fil0 str4" d="M4567 2931c0,54 0,111 0,162"/>
     <path class="fil0 str4" d="M4397 2931c0,50 0,101 0,151"/>
     <path class="fil0 str4" d="M4476 2931c0,57 -9,110 -9,155"/>
    </g>
    <g>
     <rect class="fil6 str3" transform="matrix(2.30244E-014 0.869353 -0.913788 2.42013E-014 4143.8 2927.45)" width="182" height="414" rx="36" ry="36"/>
     <path class="fil4" d="M3845 2958c0,11 6,110 -13,107 -9,-2 -30,6 -36,-5 -5,-8 -5,-80 -2,-101 2,-18 51,-11 51,-1z"/>
     <path class="fil7" d="M3924 2963c-16,25 -18,79 8,95 22,13 104,2 156,-5 4,-1 29,-66 4,-96 0,0 -148,-23 -168,6z"/>
     <path class="fil0 str4" d="M4123 2935c0,41 15,108 4,139"/>
     <path class="fil0 str4" d="M3787 2931c0,50 -5,101 -5,147"/>
     <path class="fil0 str4" d="M4111 2927c-22,56 0,110 0,159"/>
     <path class="fil0 str4" d="M3816 2939c-7,25 0,118 0,154"/>
     <path class="fil0 str4" d="M4048 2931c0,54 0,111 0,162"/>
     <path class="fil0 str4" d="M3878 2931c0,50 0,101 0,151"/>
     <path class="fil0 str4" d="M3957 2931c0,57 -8,110 -8,155"/>
    </g>
    <path class="fil0 str4" d="M4268 2773c-88,-1 -223,5 -320,10"/>
    <path class="fil0 str4" d="M4863 2666c-47,13 -148,33 -119,107 3,8 8,24 12,25"/>
   </g>
   <g>
    <path class="fil3" d="M5718 1959c376,29 587,-101 794,303 45,87 -5,692 -56,742 -111,111 -245,87 -403,117 -78,15 -585,-6 -567,-145 44,-339 -40,-1039 232,-1017z"/>
    <path class="fil4 str3" d="M6493 2790l-1032 4c-14,0 -58,2 -57,29 -9,2 -5,50 37,50l1048 -13c1,0 72,-70 4,-70z"/>
    <path class="fil4 str3" d="M6493 2252l-1032 4c-14,0 -58,3 -57,29 -9,3 -5,50 37,50l1048 -12c1,-1 72,-71 4,-71z"/>
    <path class="fil5 str3" d="M5592 2232l-3 702c-1,83 14,107 65,107l626 0c59,0 63,-23 63,-100l0 -696c0,-479 -749,-532 -751,-13z"/>
    <polygon class="fil1 str4" points="5755,2143 6158,2143 5953,1931 "/>
    <g>
     <rect class="fil6 str3" x="5370" y="2123" width="158" height="378" rx="32" ry="33"/>
     <path class="fil4" d="M5400 2422c11,0 110,-6 107,13 -1,9 6,30 -4,36 -9,5 -81,5 -102,2 -17,-2 -10,-51 -1,-51z"/>
     <path class="fil7" d="M5405 2343c25,17 80,18 95,-8 13,-22 2,-104 -5,-156 -1,-4 -66,-29 -95,-4 -1,0 -24,148 5,168z"/>
     <path class="fil0 str4" d="M5378 2144c40,0 107,-15 138,-4"/>
     <path class="fil0 str4" d="M5374 2481c50,0 101,4 146,4"/>
     <path class="fil0 str4" d="M5370 2157c55,21 109,0 158,0"/>
     <path class="fil0 str4" d="M5382 2451c24,7 118,0 154,0"/>
     <path class="fil0 str4" d="M5374 2219c53,0 110,0 162,0"/>
     <path class="fil0 str4" d="M5374 2389c50,0 100,0 150,0"/>
     <path class="fil0 str4" d="M5374 2310c56,0 109,9 154,9"/>
    </g>
    <g>
     <rect class="fil6 str3" x="5370" y="2642" width="158" height="378" rx="32" ry="33"/>
     <path class="fil4" d="M5400 2941c11,0 110,-6 107,13 -1,9 6,30 -4,36 -9,5 -81,5 -102,2 -17,-2 -10,-51 -1,-51z"/>
     <path class="fil7" d="M5405 2862c25,16 80,18 95,-8 13,-22 2,-104 -5,-156 -1,-4 -66,-29 -95,-4 -1,0 -24,148 5,168z"/>
     <path class="fil0 str4" d="M5378 2663c40,0 107,-16 138,-4"/>
     <path class="fil0 str4" d="M5374 2999c50,0 101,5 146,5"/>
     <path class="fil0 str4" d="M5370 2675c55,22 109,0 158,0"/>
     <path class="fil0 str4" d="M5382 2970c24,7 118,0 154,0"/>
     <path class="fil0 str4" d="M5374 2738c53,0 110,0 162,0"/>
     <path class="fil0 str4" d="M5374 2908c50,0 100,0 150,0"/>
     <path class="fil0 str4" d="M5374 2829c56,0 109,8 154,8"/>
    </g>
    <path class="fil8 str4" d="M5644 2271c158,-63 480,-65 628,-3 40,16 -23,174 -28,200 -6,25 -530,36 -559,0 -23,-27 -72,-185 -41,-197z"/>
    <path class="fil8 str4" d="M6260 2921l-583 -4c-22,3 -77,80 0,80l602 7c-2,0 12,-41 -19,-83z"/>
    <path class="fil0 str4" d="M5677 2528c7,68 -15,289 10,353"/>
    <path class="fil2" d="M5723 2525c-52,551 109,236 35,13 -6,-19 -35,-15 -35,-13z"/>
    <path class="fil2" d="M5675 2322c18,133 119,205 32,-12 -15,-38 -35,-17 -32,12z"/>
    <path class="fil2" d="M5783 1976c-133,35 -168,398 -42,116 22,-48 136,-141 42,-116z"/>
    <path class="fil0 str4" d="M5620 2063c78,0 174,-34 155,-130 0,0 0,-9 0,-10"/>
    <path class="fil9" d="M6173 1979c-15,-17 -113,-72 -22,26 51,56 57,215 82,214 157,-7 -7,341 -7,396 0,189 -30,188 57,323 3,-2 29,-745 -4,-788 -33,-43 -108,-172 -106,-171z"/>
    <g>
     <rect class="fil6 str3" x="6401" y="2123" width="158" height="378" rx="32" ry="33"/>
     <path class="fil4" d="M6432 2422c10,0 110,-6 107,13 -2,9 6,30 -5,36 -8,5 -80,5 -101,2 -18,-2 -11,-51 -1,-51z"/>
     <path class="fil7" d="M6437 2343c25,17 79,18 95,-8 13,-22 2,-104 -6,-156 0,-4 -65,-29 -95,-4 0,0 -23,148 6,168z"/>
     <path class="fil0 str4" d="M6409 2144c41,0 108,-15 139,-4"/>
     <path class="fil0 str4" d="M6405 2481c50,0 101,4 146,4"/>
     <path class="fil0 str4" d="M6401 2157c56,21 110,0 158,0"/>
     <path class="fil0 str4" d="M6413 2451c25,7 118,0 154,0"/>
     <path class="fil0 str4" d="M6405 2219c53,0 111,0 162,0"/>
     <path class="fil0 str4" d="M6405 2389c50,0 100,0 150,0"/>
     <path class="fil0 str4" d="M6405 2310c57,0 110,9 154,9"/>
    </g>
    <g>
     <rect class="fil6 str3" x="6401" y="2642" width="158" height="378" rx="32" ry="33"/>
     <path class="fil4" d="M6432 2941c10,0 110,-6 107,13 -2,9 6,30 -5,36 -8,5 -80,5 -101,2 -18,-2 -11,-51 -1,-51z"/>
     <path class="fil7" d="M6437 2862c25,16 79,18 95,-8 13,-22 2,-104 -6,-156 0,-4 -65,-29 -95,-4 0,0 -23,148 6,168z"/>
     <path class="fil0 str4" d="M6409 2663c41,0 108,-16 139,-4"/>
     <path class="fil0 str4" d="M6405 2999c50,0 101,5 146,5"/>
     <path class="fil0 str4" d="M6401 2675c56,22 110,0 158,0"/>
     <path class="fil0 str4" d="M6413 2970c25,7 118,0 154,0"/>
     <path class="fil0 str4" d="M6405 2738c53,0 111,0 162,0"/>
     <path class="fil0 str4" d="M6405 2908c50,0 100,0 150,0"/>
     <path class="fil0 str4" d="M6405 2829c57,0 110,8 154,8"/>
    </g>
    <path class="fil0 str4" d="M6247 2518c-2,88 4,223 9,320"/>
    <path class="fil0 str4" d="M6139 1923c14,47 34,148 108,119 8,-3 24,-8 25,-13"/>
   </g>
   <g>
    <path class="fil3" d="M5718 5278c376,30 587,-101 794,303 45,87 -5,693 -56,743 -111,111 -245,86 -403,117 -78,15 -585,-7 -567,-145 44,-339 -40,-1039 232,-1018z"/>
    <path class="fil4 str3" d="M6493 6109l-1032 4c-14,0 -58,3 -57,29 -9,3 -5,50 37,50l1048 -12c1,-1 72,-71 4,-71z"/>
    <path class="fil4 str3" d="M6493 5572l-1032 4c-14,0 -58,2 -57,29 -9,2 -5,50 37,50l1048 -13c1,0 72,-70 4,-70z"/>
    <path class="fil5 str3" d="M5592 5552l-3 701c-1,84 14,107 65,107l626 0c59,0 63,-23 63,-99l0 -696c0,-479 -749,-532 -751,-13z"/>
    <polygon class="fil1 str4" points="5755,5462 6158,5462 5953,5251 "/>
    <g>
     <rect class="fil6 str3" x="5370" y="5443" width="158" height="378" rx="32" ry="33"/>
     <path class="fil4" d="M5400 5742c11,0 110,-6 107,13 -1,8 6,29 -4,36 -9,4 -81,4 -102,2 -17,-2 -10,-51 -1,-51z"/>
     <path class="fil7" d="M5405 5662c25,17 80,18 95,-7 13,-23 2,-104 -5,-157 -1,-3 -66,-29 -95,-3 -1,0 -24,147 5,167z"/>
     <path class="fil0 str4" d="M5378 5464c40,0 107,-16 138,-5"/>
     <path class="fil0 str4" d="M5374 5800c50,0 101,4 146,4"/>
     <path class="fil0 str4" d="M5370 5476c55,22 109,0 158,0"/>
     <path class="fil0 str4" d="M5382 5771c24,6 118,0 154,0"/>
     <path class="fil0 str4" d="M5374 5538c53,0 110,0 162,0"/>
     <path class="fil0 str4" d="M5374 5709c50,0 100,0 150,0"/>
     <path class="fil0 str4" d="M5374 5630c56,0 109,8 154,8"/>
    </g>
    <g>
     <rect class="fil6 str3" x="5370" y="5962" width="158" height="378" rx="32" ry="33"/>
     <path class="fil4" d="M5400 6261c11,0 110,-6 107,12 -1,9 6,30 -4,36 -9,5 -81,5 -102,3 -17,-2 -10,-51 -1,-51z"/>
     <path class="fil7" d="M5405 6181c25,17 80,18 95,-8 13,-22 2,-103 -5,-156 -1,-4 -66,-29 -95,-4 -1,1 -24,148 5,168z"/>
     <path class="fil0 str4" d="M5378 5982c40,0 107,-15 138,-4"/>
     <path class="fil0 str4" d="M5374 6319c50,0 101,4 146,4"/>
     <path class="fil0 str4" d="M5370 5995c55,22 109,0 158,0"/>
     <path class="fil0 str4" d="M5382 6290c24,6 118,0 154,0"/>
     <path class="fil0 str4" d="M5374 6057c53,0 110,0 162,0"/>
     <path class="fil0 str4" d="M5374 6228c50,0 100,0 150,0"/>
     <path class="fil0 str4" d="M5374 6149c56,0 109,8 154,8"/>
    </g>
    <path class="fil8 str4" d="M5644 5590c158,-62 480,-64 628,-3 40,17 -23,174 -28,201 -6,25 -530,35 -559,0 -23,-27 -72,-186 -41,-198z"/>
    <path class="fil8 str4" d="M6260 6240l-583 -3c-22,2 -77,80 0,80l602 7c-2,0 12,-42 -19,-84z"/>
    <path class="fil0 str4" d="M5677 5848c7,68 -15,288 10,352"/>
    <path class="fil2" d="M5723 5844c-52,552 109,237 35,13 -6,-18 -35,-15 -35,-13z"/>
    <path class="fil2" d="M5675 5641c18,134 119,206 32,-11 -15,-38 -35,-17 -32,11z"/>
    <path class="fil2" d="M5783 5295c-133,36 -168,398 -42,117 22,-48 136,-141 42,-117z"/>
    <path class="fil0 str4" d="M5620 5382c78,0 174,-33 155,-129 0,0 0,-10 0,-10"/>
    <path class="fil9" d="M6173 5299c-15,-18 -113,-73 -22,26 51,55 57,214 82,213 157,-7 -7,342 -7,397 0,188 -30,188 57,322 3,-2 29,-745 -4,-787 -33,-44 -108,-173 -106,-171z"/>
    <g>
     <rect class="fil6 str3" x="6401" y="5443" width="158" height="378" rx="32" ry="33"/>
     <path class="fil4" d="M6432 5742c10,0 110,-6 107,13 -2,8 6,29 -5,36 -8,4 -80,4 -101,2 -18,-2 -11,-51 -1,-51z"/>
     <path class="fil7" d="M6437 5662c25,17 79,18 95,-7 13,-23 2,-104 -6,-157 0,-3 -65,-29 -95,-3 0,0 -23,147 6,167z"/>
     <path class="fil0 str4" d="M6409 5464c41,0 108,-16 139,-5"/>
     <path class="fil0 str4" d="M6405 5800c50,0 101,4 146,4"/>
     <path class="fil0 str4" d="M6401 5476c56,22 110,0 158,0"/>
     <path class="fil0 str4" d="M6413 5771c25,6 118,0 154,0"/>
     <path class="fil0 str4" d="M6405 5538c53,0 111,0 162,0"/>
     <path class="fil0 str4" d="M6405 5709c50,0 100,0 150,0"/>
     <path class="fil0 str4" d="M6405 5630c57,0 110,8 154,8"/>
    </g>
    <g>
     <rect class="fil6 str3" x="6401" y="5962" width="158" height="378" rx="32" ry="33"/>
     <path class="fil4" d="M6432 6261c10,0 110,-6 107,12 -2,9 6,30 -5,36 -8,5 -80,5 -101,3 -18,-2 -11,-51 -1,-51z"/>
     <path class="fil7" d="M6437 6181c25,17 79,18 95,-8 13,-22 2,-103 -6,-156 0,-4 -65,-29 -95,-4 0,1 -23,148 6,168z"/>
     <path class="fil0 str4" d="M6409 5982c41,0 108,-15 139,-4"/>
     <path class="fil0 str4" d="M6405 6319c50,0 101,4 146,4"/>
     <path class="fil0 str4" d="M6401 5995c56,22 110,0 158,0"/>
     <path class="fil0 str4" d="M6413 6290c25,6 118,0 154,0"/>
     <path class="fil0 str4" d="M6405 6057c53,0 111,0 162,0"/>
     <path class="fil0 str4" d="M6405 6228c50,0 100,0 150,0"/>
     <path class="fil0 str4" d="M6405 6149c57,0 110,8 154,8"/>
    </g>
    <path class="fil0 str4" d="M6247 5838c-2,87 4,223 9,319"/>
    <path class="fil0 str4" d="M6139 5243c14,47 34,147 108,118 8,-3 24,-8 25,-12"/>
   </g>
   <g>
    <path class="fil3" d="M7343 3566c376,30 587,-101 794,303 45,87 -5,693 -56,743 -112,110 -245,86 -403,117 -78,15 -585,-7 -567,-145 44,-339 -41,-1039 232,-1018z"/>
    <path class="fil4 str3" d="M8118 4397l-1032 4c-14,0 -58,3 -57,29 -9,3 -5,50 37,50l1048 -12c0,-1 72,-71 4,-71z"/>
    <path class="fil4 str3" d="M8118 3859l-1032 5c-14,0 -58,2 -57,29 -9,2 -5,49 37,49l1048 -12c0,0 72,-71 4,-71z"/>
    <path class="fil5 str3" d="M7216 3840l-2 701c-1,84 14,107 65,107l626 0c58,0 62,-23 62,-100l0 -695c0,-480 -748,-532 -751,-13z"/>
    <polygon class="fil1 str4" points="7379,3750 7783,3750 7578,3539 "/>
    <g>
     <rect class="fil6 str3" x="6995" y="3731" width="158" height="378" rx="32" ry="33"/>
     <path class="fil4" d="M7025 4030c11,0 110,-6 107,12 -1,9 6,30 -5,36 -8,5 -80,5 -101,3 -17,-2 -11,-51 -1,-51z"/>
     <path class="fil7" d="M7030 3950c25,17 80,18 95,-8 13,-22 2,-103 -5,-156 -1,-4 -66,-29 -95,-4 -1,1 -24,148 5,168z"/>
     <path class="fil0 str4" d="M7002 3751c41,0 108,-15 139,-4"/>
     <path class="fil0 str4" d="M6999 4088c49,0 100,4 146,4"/>
     <path class="fil0 str4" d="M6995 3764c55,22 109,0 158,0"/>
     <path class="fil0 str4" d="M7006 4059c25,6 118,0 155,0"/>
     <path class="fil0 str4" d="M6999 3826c53,0 110,0 162,0"/>
     <path class="fil0 str4" d="M6999 3997c50,0 100,0 150,0"/>
     <path class="fil0 str4" d="M6999 3918c56,0 109,8 154,8"/>
    </g>
    <g>
     <rect class="fil6 str3" x="6995" y="4249" width="158" height="378" rx="32" ry="33"/>
     <path class="fil4" d="M7025 4549c11,0 110,-6 107,12 -1,9 6,30 -5,36 -8,5 -80,5 -101,2 -17,-2 -11,-50 -1,-50z"/>
     <path class="fil7" d="M7030 4469c25,17 80,18 95,-8 13,-22 2,-104 -5,-156 -1,-4 -66,-29 -95,-4 -1,1 -24,148 5,168z"/>
     <path class="fil0 str4" d="M7002 4270c41,0 108,-15 139,-4"/>
     <path class="fil0 str4" d="M6999 4607c49,0 100,4 146,4"/>
     <path class="fil0 str4" d="M6995 4283c55,22 109,0 158,0"/>
     <path class="fil0 str4" d="M7006 4578c25,6 118,0 155,0"/>
     <path class="fil0 str4" d="M6999 4345c53,0 110,0 162,0"/>
     <path class="fil0 str4" d="M6999 4515c50,0 100,0 150,0"/>
     <path class="fil0 str4" d="M6999 4436c56,0 109,9 154,9"/>
    </g>
    <path class="fil8 str4" d="M7269 3878c158,-62 480,-64 627,-3 41,17 -22,174 -28,201 -5,24 -529,35 -559,0 -22,-27 -71,-186 -40,-198z"/>
    <path class="fil8 str4" d="M7884 4528l-582 -3c-22,2 -77,80 0,80l601 6c-1,0 13,-41 -19,-83z"/>
    <path class="fil0 str4" d="M7302 4136c7,68 -15,288 10,352"/>
    <path class="fil2" d="M7348 4132c-52,552 108,236 35,13 -6,-18 -35,-15 -35,-13z"/>
    <path class="fil2" d="M7300 3929c18,133 119,206 32,-12 -16,-37 -36,-16 -32,12z"/>
    <path class="fil2" d="M7408 3583c-133,36 -168,398 -42,117 22,-48 136,-142 42,-117z"/>
    <path class="fil0 str4" d="M7245 3670c78,0 174,-33 155,-129 0,0 0,-10 0,-11"/>
    <path class="fil9" d="M7797 3587c-14,-18 -112,-73 -21,26 51,55 57,214 82,213 157,-7 -7,341 -7,397 0,188 -30,188 57,322 3,-2 28,-745 -4,-787 -33,-44 -108,-173 -107,-171z"/>
    <g>
     <rect class="fil6 str3" x="8026" y="3731" width="158" height="378" rx="32" ry="33"/>
     <path class="fil4" d="M8057 4030c10,0 110,-6 107,12 -2,9 6,30 -5,36 -8,5 -80,5 -101,3 -18,-2 -11,-51 -1,-51z"/>
     <path class="fil7" d="M8062 3950c24,17 79,18 95,-8 13,-22 2,-103 -6,-156 0,-4 -65,-29 -95,-4 0,1 -24,148 6,168z"/>
     <path class="fil0 str4" d="M8034 3751c40,0 107,-15 138,-4"/>
     <path class="fil0 str4" d="M8030 4088c50,0 101,4 146,4"/>
     <path class="fil0 str4" d="M8026 3764c56,22 110,0 158,0"/>
     <path class="fil0 str4" d="M8038 4059c25,6 118,0 154,0"/>
     <path class="fil0 str4" d="M8030 3826c53,0 110,0 162,0"/>
     <path class="fil0 str4" d="M8030 3997c50,0 100,0 150,0"/>
     <path class="fil0 str4" d="M8030 3918c57,0 110,8 154,8"/>
    </g>
    <g>
     <rect class="fil6 str3" x="8026" y="4249" width="158" height="378" rx="32" ry="33"/>
     <path class="fil4" d="M8057 4549c10,0 110,-6 107,12 -2,9 6,30 -5,36 -8,5 -80,5 -101,2 -18,-2 -11,-50 -1,-50z"/>
     <path class="fil7" d="M8062 4469c24,17 79,18 95,-8 13,-22 2,-104 -6,-156 0,-4 -65,-29 -95,-4 0,1 -24,148 6,168z"/>
     <path class="fil0 str4" d="M8034 4270c40,0 107,-15 138,-4"/>
     <path class="fil0 str4" d="M8030 4607c50,0 101,4 146,4"/>
     <path class="fil0 str4" d="M8026 4283c56,22 110,0 158,0"/>
     <path class="fil0 str4" d="M8038 4578c25,6 118,0 154,0"/>
     <path class="fil0 str4" d="M8030 4345c53,0 110,0 162,0"/>
     <path class="fil0 str4" d="M8030 4515c50,0 100,0 150,0"/>
     <path class="fil0 str4" d="M8030 4436c57,0 110,9 154,9"/>
    </g>
    <path class="fil0 str4" d="M7872 4126c-2,87 4,223 9,319"/>
    <path class="fil0 str4" d="M7764 3530c14,48 34,148 108,119 8,-3 24,-8 25,-12"/>
   </g>
   <g>
    <path class="fil3" d="M8985 3566c376,30 587,-101 795,303 44,87 -6,693 -57,743 -111,110 -245,86 -403,117 -78,15 -585,-7 -567,-145 44,-339 -40,-1039 232,-1018z"/>
    <path class="fil4 str3" d="M9760 4397l-1032 4c-14,0 -58,3 -56,29 -10,3 -6,50 36,50l1049 -12c0,-1 71,-71 3,-71z"/>
    <path class="fil4 str3" d="M9760 3859l-1032 5c-14,0 -58,2 -56,29 -10,2 -6,49 36,49l1049 -12c0,0 71,-71 3,-71z"/>
    <path class="fil5 str3" d="M8859 3840l-3 701c0,84 14,107 65,107l626 0c59,0 63,-23 63,-100l0 -695c0,-480 -749,-532 -751,-13z"/>
    <polygon class="fil1 str4" points="9022,3750 9425,3750 9220,3539 "/>
    <g>
     <rect class="fil6 str3" x="8637" y="3731" width="158" height="378" rx="32" ry="33"/>
     <path class="fil4" d="M8667 4030c11,0 110,-6 107,12 -1,9 6,30 -4,36 -9,5 -80,5 -102,3 -17,-2 -10,-51 -1,-51z"/>
     <path class="fil7" d="M8673 3950c24,17 79,18 94,-8 14,-22 2,-103 -5,-156 0,-4 -66,-29 -95,-4 -1,1 -24,148 6,168z"/>
     <path class="fil0 str4" d="M8645 3751c40,0 107,-15 138,-4"/>
     <path class="fil0 str4" d="M8641 4088c50,0 101,4 146,4"/>
     <path class="fil0 str4" d="M8637 3764c56,22 109,0 158,0"/>
     <path class="fil0 str4" d="M8649 4059c24,6 118,0 154,0"/>
     <path class="fil0 str4" d="M8641 3826c53,0 110,0 162,0"/>
     <path class="fil0 str4" d="M8641 3997c50,0 100,0 150,0"/>
     <path class="fil0 str4" d="M8641 3918c57,0 109,8 154,8"/>
    </g>
    <g>
     <rect class="fil6 str3" x="8637" y="4249" width="158" height="378" rx="32" ry="33"/>
     <path class="fil4" d="M8667 4549c11,0 110,-6 107,12 -1,9 6,30 -4,36 -9,5 -80,5 -102,2 -17,-2 -10,-50 -1,-50z"/>
     <path class="fil7" d="M8673 4469c24,17 79,18 94,-8 14,-22 2,-104 -5,-156 0,-4 -66,-29 -95,-4 -1,1 -24,148 6,168z"/>
     <path class="fil0 str4" d="M8645 4270c40,0 107,-15 138,-4"/>
     <path class="fil0 str4" d="M8641 4607c50,0 101,4 146,4"/>
     <path class="fil0 str4" d="M8637 4283c56,22 109,0 158,0"/>
     <path class="fil0 str4" d="M8649 4578c24,6 118,0 154,0"/>
     <path class="fil0 str4" d="M8641 4345c53,0 110,0 162,0"/>
     <path class="fil0 str4" d="M8641 4515c50,0 100,0 150,0"/>
     <path class="fil0 str4" d="M8641 4436c57,0 109,9 154,9"/>
    </g>
    <path class="fil8 str4" d="M8911 3878c158,-62 480,-64 628,-3 40,17 -23,174 -28,201 -6,24 -530,35 -559,0 -23,-27 -72,-186 -41,-198z"/>
    <path class="fil8 str4" d="M9527 4528l-582 -3c-23,2 -77,80 0,80l601 6c-1,0 12,-41 -19,-83z"/>
    <path class="fil0 str4" d="M8945 4136c6,68 -16,288 9,352"/>
    <path class="fil2" d="M8990 4132c-52,552 109,236 35,13 -6,-18 -34,-15 -35,-13z"/>
    <path class="fil2" d="M8943 3929c17,133 119,206 31,-12 -15,-37 -35,-16 -31,12z"/>
    <path class="fil2" d="M9051 3583c-133,36 -169,398 -43,117 22,-48 136,-142 43,-117z"/>
    <path class="fil0 str4" d="M8888 3670c77,0 173,-33 154,-129 0,0 1,-10 1,-11"/>
    <path class="fil9" d="M9440 3587c-15,-18 -113,-73 -22,26 51,55 57,214 82,213 157,-7 -6,341 -6,397 0,188 -31,188 57,322 2,-2 28,-745 -5,-787 -33,-44 -108,-173 -106,-171z"/>
    <g>
     <rect class="fil6 str3" x="9668" y="3731" width="158" height="378" rx="32" ry="33"/>
     <path class="fil4" d="M9699 4030c11,0 110,-6 107,12 -2,9 6,30 -5,36 -8,5 -80,5 -101,3 -18,-2 -11,-51 -1,-51z"/>
     <path class="fil7" d="M9704 3950c25,17 79,18 95,-8 13,-22 2,-103 -5,-156 -1,-4 -66,-29 -96,-4 0,1 -23,148 6,168z"/>
     <path class="fil0 str4" d="M9676 3751c41,0 108,-15 139,-4"/>
     <path class="fil0 str4" d="M9672 4088c50,0 101,4 147,4"/>
     <path class="fil0 str4" d="M9668 3764c56,22 110,0 159,0"/>
     <path class="fil0 str4" d="M9680 4059c25,6 118,0 154,0"/>
     <path class="fil0 str4" d="M9672 3826c54,0 111,0 162,0"/>
     <path class="fil0 str4" d="M9672 3997c50,0 101,0 151,0"/>
     <path class="fil0 str4" d="M9672 3918c57,0 110,8 155,8"/>
    </g>
    <g>
     <rect class="fil6 str3" x="9668" y="4249" width="158" height="378" rx="32" ry="33"/>
     <path class="fil4" d="M9699 4549c11,0 110,-6 107,12 -2,9 6,30 -5,36 -8,5 -80,5 -101,2 -18,-2 -11,-50 -1,-50z"/>
     <path class="fil7" d="M9704 4469c25,17 79,18 95,-8 13,-22 2,-104 -5,-156 -1,-4 -66,-29 -96,-4 0,1 -23,148 6,168z"/>
     <path class="fil0 str4" d="M9676 4270c41,0 108,-15 139,-4"/>
     <path class="fil0 str4" d="M9672 4607c50,0 101,4 147,4"/>
     <path class="fil0 str4" d="M9668 4283c56,22 110,0 159,0"/>
     <path class="fil0 str4" d="M9680 4578c25,6 118,0 154,0"/>
     <path class="fil0 str4" d="M9672 4345c54,0 111,0 162,0"/>
     <path class="fil0 str4" d="M9672 4515c50,0 101,0 151,0"/>
     <path class="fil0 str4" d="M9672 4436c57,0 110,9 155,9"/>
    </g>
    <path class="fil0 str4" d="M9514 4126c-1,87 5,223 10,319"/>
    <path class="fil0 str4" d="M9406 3530c14,48 34,148 108,119 8,-3 24,-8 25,-12"/>
   </g>
   <g>
    <path class="fil3" d="M4076 4691c376,-30 587,100 794,-304 45,-87 -6,-692 -56,-742 -112,-111 -245,-86 -403,-117 -78,-15 -585,6 -567,145 44,339 -41,1039 232,1018z"/>
    <path class="fil4 str3" d="M4851 3860l-1032 -5c-14,0 -58,-2 -57,-29 -9,-2 -5,-50 37,-50l1048 13c0,0 72,71 4,71z"/>
    <path class="fil4 str3" d="M4851 4397l-1032 -4c-14,0 -58,-3 -57,-29 -9,-3 -5,-50 37,-50l1048 12c0,1 72,71 4,71z"/>
    <path class="fil5 str3" d="M3949 4417l-3 -702c0,-83 15,-106 66,-106l626 0c58,0 62,22 62,99l0 696c0,479 -749,532 -751,13z"/>
    <polygon class="fil1 str4" points="4112,4507 4515,4507 4311,4718 "/>
    <g>
     <rect class="fil6 str3" x="3727" y="4148" width="158" height="378" rx="32" ry="33"/>
     <path class="fil4" d="M3758 4227c11,0 110,6 107,-13 -2,-9 6,-30 -5,-36 -8,-5 -80,-5 -101,-2 -18,2 -11,51 -1,51z"/>
     <path class="fil7" d="M3763 4306c25,-16 79,-18 95,8 13,22 2,104 -5,156 -1,4 -66,29 -96,4 0,0 -23,-148 6,-168z"/>
     <path class="fil0 str4" d="M3735 4505c41,0 108,16 139,4"/>
     <path class="fil0 str4" d="M3731 4169c50,0 101,-5 147,-5"/>
     <path class="fil0 str4" d="M3727 4493c56,-22 110,0 159,0"/>
     <path class="fil0 str4" d="M3739 4198c25,-7 118,0 154,0"/>
     <path class="fil0 str4" d="M3731 4430c54,0 111,0 162,0"/>
     <path class="fil0 str4" d="M3731 4260c50,0 101,0 151,0"/>
     <path class="fil0 str4" d="M3731 4339c57,0 110,-8 155,-8"/>
    </g>
    <g>
     <rect class="fil6 str3" x="3727" y="3629" width="158" height="378" rx="32" ry="33"/>
     <path class="fil4" d="M3758 3708c11,0 110,6 107,-13 -2,-8 6,-30 -5,-36 -8,-5 -80,-4 -101,-2 -18,2 -11,51 -1,51z"/>
     <path class="fil7" d="M3763 3787c25,-16 79,-18 95,8 13,23 2,104 -5,156 -1,4 -66,29 -96,4 0,0 -23,-148 6,-168z"/>
     <path class="fil0 str4" d="M3735 3986c41,0 108,16 139,4"/>
     <path class="fil0 str4" d="M3731 3650c50,0 101,-4 147,-4"/>
     <path class="fil0 str4" d="M3727 3974c56,-22 110,0 159,0"/>
     <path class="fil0 str4" d="M3739 3679c25,-6 118,0 154,0"/>
     <path class="fil0 str4" d="M3731 3911c54,0 111,0 162,0"/>
     <path class="fil0 str4" d="M3731 3741c50,0 101,0 151,0"/>
     <path class="fil0 str4" d="M3731 3820c57,0 110,-8 155,-8"/>
    </g>
    <path class="fil8 str4" d="M4002 4379c157,62 480,64 627,3 41,-17 -22,-175 -28,-201 -5,-25 -529,-36 -559,0 -22,27 -71,185 -40,198z"/>
    <path class="fil8 str4" d="M4617 3728l-582 4c-22,-2 -77,-80 0,-80l601 -7c-1,0 13,41 -19,83z"/>
    <path class="fil0 str4" d="M4035 4121c7,-68 -15,-289 10,-353"/>
    <path class="fil2" d="M4081 4125c-53,-552 108,-237 35,-14 -6,19 -35,15 -35,14z"/>
    <path class="fil2" d="M4033 4327c18,-133 119,-205 31,12 -15,38 -35,17 -31,-12z"/>
    <path class="fil2" d="M4141 4673c-133,-35 -169,-398 -42,-116 22,48 135,141 42,116z"/>
    <path class="fil0 str4" d="M3978 4586c77,0 174,34 155,130 0,0 0,9 0,10"/>
    <path class="fil9" d="M4530 4670c-14,17 -112,73 -21,-26 51,-56 57,-215 81,-213 158,7 -6,-342 -6,-397 0,-189 -30,-188 57,-322 2,2 28,744 -4,787 -34,43 -108,173 -107,171z"/>
    <g>
     <rect class="fil6 str3" x="4759" y="4148" width="158" height="378" rx="32" ry="33"/>
     <path class="fil4" d="M4790 4227c10,0 110,6 106,-13 -1,-9 7,-30 -4,-36 -8,-5 -80,-5 -102,-2 -17,2 -10,51 0,51z"/>
     <path class="fil7" d="M4795 4306c24,-16 79,-18 94,8 14,22 2,104 -5,156 0,4 -66,29 -95,4 -1,0 -24,-148 6,-168z"/>
     <path class="fil0 str4" d="M4767 4505c40,0 107,16 138,4"/>
     <path class="fil0 str4" d="M4763 4169c50,0 101,-5 146,-5"/>
     <path class="fil0 str4" d="M4759 4493c56,-22 110,0 158,0"/>
     <path class="fil0 str4" d="M4771 4198c25,-7 118,0 154,0"/>
     <path class="fil0 str4" d="M4763 4430c53,0 110,0 162,0"/>
     <path class="fil0 str4" d="M4763 4260c50,0 100,0 150,0"/>
     <path class="fil0 str4" d="M4763 4339c57,0 110,-8 154,-8"/>
    </g>
    <g>
     <rect class="fil6 str3" x="4759" y="3629" width="158" height="378" rx="32" ry="33"/>
     <path class="fil4" d="M4790 3708c10,0 110,6 106,-13 -1,-8 7,-30 -4,-36 -8,-5 -80,-4 -102,-2 -17,2 -10,51 0,51z"/>
     <path class="fil7" d="M4795 3787c24,-16 79,-18 94,8 14,23 2,104 -5,156 0,4 -66,29 -95,4 -1,0 -24,-148 6,-168z"/>
     <path class="fil0 str4" d="M4767 3986c40,0 107,16 138,4"/>
     <path class="fil0 str4" d="M4763 3650c50,0 101,-4 146,-4"/>
     <path class="fil0 str4" d="M4759 3974c56,-22 110,0 158,0"/>
     <path class="fil0 str4" d="M4771 3679c25,-6 118,0 154,0"/>
     <path class="fil0 str4" d="M4763 3911c53,0 110,0 162,0"/>
     <path class="fil0 str4" d="M4763 3741c50,0 100,0 150,0"/>
     <path class="fil0 str4" d="M4763 3820c57,0 110,-8 154,-8"/>
    </g>
    <path class="fil0 str4" d="M4605 4131c-2,-88 4,-223 9,-320"/>
    <path class="fil0 str4" d="M4497 4726c14,-47 34,-148 108,-119 8,3 23,8 25,13"/>
   </g>
   <g>
    <path class="fil3" d="M8147 5546c-30,376 101,587 -303,795 -87,44 -693,-6 -743,-57 -111,-111 -86,-245 -117,-403 -15,-78 7,-585 145,-567 339,44 1039,-40 1018,232z"/>
    <path class="fil4 str3" d="M7316 6321l-4 -1032c0,-14 -3,-58 -29,-56 -3,-10 -50,-6 -50,36l12 1049c1,0 71,71 71,3z"/>
    <path class="fil4 str3" d="M7853 6321l-4 -1032c0,-14 -2,-58 -29,-56 -2,-10 -50,-6 -50,36l13 1049c0,0 70,71 70,3z"/>
    <path class="fil5 str3" d="M7873 5420l-701 -3c-84,0 -107,14 -107,65l0 626c0,59 23,63 99,63l696 0c479,0 532,-749 13,-751z"/>
    <polygon class="fil1 str4" points="7963,5583 7963,5986 8174,5781 "/>
    <g>
     <rect class="fil6 str3" transform="matrix(2.30244E-014 0.869353 -0.913788 2.42013E-014 7982.22 5197.95)" width="182" height="414" rx="36" ry="36"/>
     <path class="fil4" d="M7683 5229c0,10 6,110 -13,106 -8,-1 -29,7 -36,-4 -4,-8 -4,-80 -2,-102 2,-17 51,-10 51,0z"/>
     <path class="fil7" d="M7763 5234c-17,24 -18,79 7,94 23,14 104,2 157,-5 3,0 29,-66 3,-95 0,-1 -147,-24 -167,6z"/>
     <path class="fil0 str4" d="M7961 5206c0,40 16,107 5,138"/>
     <path class="fil0 str4" d="M7625 5202c0,50 -4,101 -4,146"/>
     <path class="fil0 str4" d="M7949 5198c-22,56 0,110 0,158"/>
     <path class="fil0 str4" d="M7654 5210c-6,25 0,118 0,154"/>
     <path class="fil0 str4" d="M7887 5202c0,53 0,110 0,162"/>
     <path class="fil0 str4" d="M7716 5202c0,50 0,100 0,150"/>
     <path class="fil0 str4" d="M7795 5202c0,57 -8,110 -8,154"/>
    </g>
    <g>
     <rect class="fil6 str3" transform="matrix(2.30244E-014 0.869353 -0.913788 2.42013E-014 7463.35 5197.95)" width="182" height="414" rx="36" ry="36"/>
     <path class="fil4" d="M7164 5229c0,10 6,110 -12,106 -9,-1 -30,7 -36,-4 -5,-8 -5,-80 -3,-102 2,-17 51,-10 51,0z"/>
     <path class="fil7" d="M7244 5234c-17,24 -18,79 8,94 22,14 103,2 156,-5 4,0 29,-66 4,-95 -1,-1 -148,-24 -168,6z"/>
     <path class="fil0 str4" d="M7443 5206c0,40 15,107 4,138"/>
     <path class="fil0 str4" d="M7106 5202c0,50 -4,101 -4,146"/>
     <path class="fil0 str4" d="M7430 5198c-22,56 0,110 0,158"/>
     <path class="fil0 str4" d="M7135 5210c-6,25 0,118 0,154"/>
     <path class="fil0 str4" d="M7368 5202c0,53 0,110 0,162"/>
     <path class="fil0 str4" d="M7197 5202c0,50 0,100 0,150"/>
     <path class="fil0 str4" d="M7276 5202c0,57 -8,110 -8,154"/>
    </g>
    <path class="fil8 str4" d="M7835 5472c62,158 64,480 3,628 -17,40 -174,-23 -201,-28 -25,-5 -35,-530 0,-559 27,-23 186,-72 198,-41z"/>
    <path class="fil8 str4" d="M7185 6088l3 -582c-2,-23 -80,-77 -80,0l-6 601c0,-1 41,12 83,-19z"/>
    <path class="fil0 str4" d="M7577 5506c-68,6 -288,-16 -352,9"/>
    <path class="fil2" d="M7581 5552c-552,-53 -237,108 -13,34 18,-6 15,-34 13,-34z"/>
    <path class="fil2" d="M8130 5612c-36,-133 -398,-169 -117,-42 48,21 141,135 117,42z"/>
    <path class="fil0 str4" d="M8043 5449c0,77 33,173 129,154 0,0 10,1 10,1"/>
    <path class="fil9" d="M8126 6001c18,-15 73,-113 -26,-22 -55,51 -214,57 -213,82 7,158 -342,-6 -397,-6 -188,0 -188,-31 -322,57 2,2 745,28 787,-5 44,-33 173,-107 171,-106z"/>
    <g>
     <rect class="fil6 str3" transform="matrix(2.30244E-014 0.869353 -0.913788 2.42013E-014 7982.22 6229.53)" width="182" height="414" rx="36" ry="36"/>
     <path class="fil4" d="M7683 6260c0,11 6,110 -13,107 -8,-1 -29,6 -36,-5 -4,-8 -4,-80 -2,-101 2,-17 51,-11 51,-1z"/>
     <path class="fil7" d="M7763 6265c-17,25 -18,80 7,95 23,13 104,2 157,-5 3,-1 29,-66 3,-95 0,-1 -147,-24 -167,5z"/>
     <path class="fil0 str4" d="M7961 6237c0,41 16,108 5,139"/>
     <path class="fil0 str4" d="M7625 6233c0,50 -4,101 -4,147"/>
     <path class="fil0 str4" d="M7949 6230c-22,55 0,109 0,158"/>
     <path class="fil0 str4" d="M7654 6241c-6,25 0,118 0,155"/>
     <path class="fil0 str4" d="M7887 6233c0,54 0,111 0,163"/>
     <path class="fil0 str4" d="M7716 6233c0,51 0,101 0,151"/>
     <path class="fil0 str4" d="M7795 6233c0,57 -8,110 -8,155"/>
    </g>
    <g>
     <rect class="fil6 str3" transform="matrix(2.30244E-014 0.869353 -0.913788 2.42013E-014 7463.35 6229.53)" width="182" height="414" rx="36" ry="36"/>
     <path class="fil4" d="M7164 6260c0,11 6,110 -12,107 -9,-1 -30,6 -36,-5 -5,-8 -5,-80 -3,-101 2,-17 51,-11 51,-1z"/>
     <path class="fil7" d="M7244 6265c-17,25 -18,80 8,95 22,13 103,2 156,-5 4,-1 29,-66 4,-95 -1,-1 -148,-24 -168,5z"/>
     <path class="fil0 str4" d="M7443 6237c0,41 15,108 4,139"/>
     <path class="fil0 str4" d="M7106 6233c0,50 -4,101 -4,147"/>
     <path class="fil0 str4" d="M7430 6230c-22,55 0,109 0,158"/>
     <path class="fil0 str4" d="M7135 6241c-6,25 0,118 0,155"/>
     <path class="fil0 str4" d="M7368 6233c0,54 0,111 0,163"/>
     <path class="fil0 str4" d="M7197 6233c0,51 0,101 0,151"/>
     <path class="fil0 str4" d="M7276 6233c0,57 -8,110 -8,155"/>
    </g>
    <path class="fil0 str4" d="M7587 6075c-87,-1 -223,5 -319,10"/>
    <path class="fil0 str4" d="M8182 5968c-47,13 -147,34 -118,107 3,8 8,24 12,26"/>
   </g>
   <g>
    <path class="fil3" d="M2383 5217c438,32 684,-109 926,330 52,94 -6,752 -65,806 -131,121 -286,94 -471,127 -90,17 -682,-7 -661,-157 51,-368 -47,-1129 271,-1106z"/>
    <g>
     <rect class="fil6 str3" x="1986" y="5396" width="172" height="411" rx="34" ry="36"/>
     <path class="fil4" d="M2019 5721c11,0 119,-6 116,14 -2,9 7,32 -5,39 -9,5 -87,5 -110,2 -19,-2 -12,-55 -1,-55z"/>
     <path class="fil7" d="M2024 5635c27,18 87,19 103,-9 15,-24 2,-113 -5,-169 -1,-5 -72,-32 -104,-5 0,1 -26,161 6,183z"/>
     <path class="fil0 str4" d="M1994 5419c44,0 117,-17 150,-5"/>
     <path class="fil0 str4" d="M1990 5784c54,0 109,5 159,5"/>
     <path class="fil0 str4" d="M1986 5432c60,24 119,0 171,0"/>
     <path class="fil0 str4" d="M1998 5753c27,6 129,0 168,0"/>
     <path class="fil0 str4" d="M1990 5500c58,0 120,0 176,0"/>
     <path class="fil0 str4" d="M1990 5685c54,0 109,0 163,0"/>
     <path class="fil0 str4" d="M1990 5599c61,0 119,9 167,9"/>
    </g>
    <g>
     <rect class="fil6 str3" x="1986" y="5960" width="172" height="411" rx="34" ry="36"/>
     <path class="fil4" d="M2019 6285c11,0 119,-7 116,14 -2,9 7,32 -5,39 -9,5 -87,5 -110,2 -19,-2 -12,-55 -1,-55z"/>
     <path class="fil7" d="M2024 6198c27,19 87,20 103,-8 15,-24 2,-113 -5,-170 -1,-4 -72,-31 -104,-4 0,1 -26,161 6,182z"/>
     <path class="fil0 str4" d="M1994 5982c44,0 117,-16 150,-4"/>
     <path class="fil0 str4" d="M1990 6348c54,0 109,5 159,5"/>
     <path class="fil0 str4" d="M1986 5996c60,24 119,0 171,0"/>
     <path class="fil0 str4" d="M1998 6316c27,7 129,0 168,0"/>
     <path class="fil0 str4" d="M1990 6064c58,0 120,0 176,0"/>
     <path class="fil0 str4" d="M1990 6249c54,0 109,0 163,0"/>
     <path class="fil0 str4" d="M1990 6163c61,0 119,9 167,9"/>
    </g>
    <g>
     <rect class="fil6 str3" x="3106" y="5396" width="172" height="411" rx="34" ry="36"/>
     <path class="fil4" d="M3140 5721c11,0 119,-6 116,14 -2,9 6,32 -5,39 -9,5 -87,5 -111,2 -19,-2 -11,-55 0,-55z"/>
     <path class="fil7" d="M3145 5635c27,18 86,19 103,-9 14,-24 2,-113 -6,-169 0,-5 -71,-32 -103,-5 -1,1 -26,161 6,183z"/>
     <path class="fil0 str4" d="M3115 5419c44,0 116,-17 150,-5"/>
     <path class="fil0 str4" d="M3111 5784c54,0 109,5 158,5"/>
     <path class="fil0 str4" d="M3106 5432c61,24 119,0 172,0"/>
     <path class="fil0 str4" d="M3119 5753c27,6 128,0 168,0"/>
     <path class="fil0 str4" d="M3111 5500c57,0 119,0 176,0"/>
     <path class="fil0 str4" d="M3111 5685c54,0 108,0 163,0"/>
     <path class="fil0 str4" d="M3111 5599c61,0 119,9 167,9"/>
    </g>
    <g>
     <rect class="fil6 str3" x="3106" y="5960" width="172" height="411" rx="34" ry="36"/>
     <path class="fil4" d="M3140 6285c11,0 119,-7 116,14 -2,9 6,32 -5,39 -9,5 -87,5 -111,2 -19,-2 -11,-55 0,-55z"/>
     <path class="fil7" d="M3145 6198c27,19 86,20 103,-8 14,-24 2,-113 -6,-170 0,-4 -71,-31 -103,-4 -1,1 -26,161 6,182z"/>
     <path class="fil0 str4" d="M3115 5982c44,0 116,-16 150,-4"/>
     <path class="fil0 str4" d="M3111 6348c54,0 109,5 158,5"/>
     <path class="fil0 str4" d="M3106 5996c61,24 119,0 172,0"/>
     <path class="fil0 str4" d="M3119 6316c27,7 128,0 168,0"/>
     <path class="fil0 str4" d="M3111 6064c57,0 119,0 176,0"/>
     <path class="fil0 str4" d="M3111 6249c54,0 108,0 163,0"/>
     <path class="fil0 str4" d="M3111 6163c61,0 119,9 167,9"/>
    </g>
    <path class="fil1 str3" d="M2067 5515l-4 762c-1,91 21,116 99,116l946 0c89,0 95,-25 95,-108l0 -756c0,-521 -1133,-578 -1136,-14z"/>
    <polygon class="fil5 str4" points="2404,5378 2842,5378 2619,5148 "/>
    <path class="fil8 str4" d="M2137 5443c244,-45 745,-47 973,-2 63,12 -34,128 -43,148 -8,18 -822,26 -867,0 -35,-20 -111,-137 -63,-146z"/>
    <path class="fil8 str4" d="M3087 6263l-893 -4c-34,2 -118,87 0,87l922 7c-2,0 19,-45 -29,-90z"/>
    <path class="fil0 str4" d="M2196 5675c7,105 -17,445 10,544"/>
    <path class="fil2" d="M2110 5575c-57,1170 117,501 38,28 -7,-39 -38,-32 -38,-28z"/>
    <path class="fil2" d="M2185 5481c28,98 185,151 49,-9 -23,-27 -54,-12 -49,9z"/>
    <path class="fil2" d="M2278 5235c-144,27 -183,309 -46,90 24,-37 148,-110 46,-90z"/>
    <path class="fil0 str4" d="M2138 5330c84,0 189,-36 168,-140 0,0 1,-10 1,-11"/>
    <path class="fil10" d="M3027 5346c55,60 19,90 46,89 171,-8 -2,269 4,329 16,153 -14,315 11,435 11,52 48,77 76,121 3,-1 24,-620 6,-839 -3,-39 -41,-113 -47,-120 0,-1 -217,-147 -96,-15z"/>
    <path class="fil0 str4" d="M3062 5659c-1,135 5,344 11,493"/>
    <path class="fil0 str4" d="M2945 5183c15,51 37,160 117,129 9,-4 26,-9 28,-14"/>
    <g>
     <path class="fil8" d="M2564 5893c-137,33 -78,197 61,205 140,7 226,-199 50,-204 123,-123 -124,-172 -124,-69 0,53 36,57 13,68z"/>
     <path class="fil8" d="M2666 5871c140,-38 129,-97 19,-152 -2,0 -15,-83 77,-2 94,82 71,123 -4,161 43,-3 105,-17 105,-62 0,-22 -43,-230 30,-120 4,8 52,105 8,162 -10,12 -59,44 -97,60 72,10 148,32 151,69 24,278 -95,224 -47,107 52,-126 -72,-142 -164,-148 40,11 162,50 142,83 -10,16 -115,220 -141,151 -22,-56 176,-161 11,-185 -26,-3 -77,-43 -45,-51l-11 0c-42,-3 -56,27 -19,-33 9,-1 25,-2 46,-1 -5,-4 -10,-8 -13,-12l-10 4c-16,7 -56,-27 -38,-31zm-72 0c-140,-38 -129,-97 -19,-152 2,0 15,-83 -78,-2 -93,82 -70,123 5,161 -44,-3 -106,-17 -106,-62 0,-22 44,-230 -29,-120 -4,8 -52,105 -8,162 10,12 59,44 97,60 -72,10 -148,32 -151,69 -24,278 95,224 47,107 -52,-126 72,-142 164,-148 -41,11 -162,50 -142,83 10,16 115,220 141,151 22,-56 -176,-161 -11,-185 26,-3 76,-43 45,-51l11 0c42,-3 55,27 19,-33 -9,-1 -25,-2 -46,-1 5,-4 10,-8 13,-12l10 4c16,7 56,-27 38,-31z"/>
    </g>
   </g>
   <g>
    <path class="fil2" d="M7474 781c-248,59 -141,357 111,370 253,13 410,-360 90,-369 223,-222 -224,-312 -224,-125 0,95 65,104 23,124z"/>
    <path class="fil2" d="M7659 740c254,-69 233,-175 34,-274 -2,-1 -26,-151 141,-5 168,149 127,223 -8,292 78,-5 190,-31 190,-112 0,-40 -77,-416 53,-216 9,13 95,189 15,291 -17,23 -106,80 -175,109 131,19 268,59 273,125 44,503 -172,406 -85,194 94,-228 -131,-257 -297,-267 74,20 294,90 258,149 -18,29 -209,398 -257,274 -39,-101 319,-292 22,-334 -48,-7 -140,-78 -83,-93l-19 -1c-76,-5 -101,51 -35,-58 16,-3 46,-4 83,-2 -9,-7 -17,-15 -23,-22l-19 8c-27,11 -100,-50 -68,-58zm-130 0c-255,-69 -233,-175 -34,-274 2,-1 26,-151 -141,-5 -169,149 -127,223 8,292 -79,-5 -191,-31 -191,-112 0,-40 78,-416 -53,-216 -8,13 -94,189 -14,291 17,23 106,80 175,109 -131,19 -268,59 -274,125 -44,503 173,406 85,194 -94,-228 131,-257 297,-267 -73,20 -293,90 -257,149 18,29 208,398 256,274 40,-101 -318,-292 -21,-334 48,-7 139,-78 82,-93l20 -1c76,-5 101,51 35,-58 -17,-3 -47,-4 -84,-2 9,-7 18,-15 24,-22l19 8c27,11 100,-50 68,-58z"/>
   </g>
  </g>
 </g>
</svg>
