<?xml version="1.0" encoding="UTF-8" standalone="no"?>
<svg
   xmlns:dc="http://purl.org/dc/elements/1.1/"
   xmlns:cc="http://creativecommons.org/ns#"
   xmlns:rdf="http://www.w3.org/1999/02/22-rdf-syntax-ns#"
   xmlns:svg="http://www.w3.org/2000/svg"
   xmlns="http://www.w3.org/2000/svg"
   xmlns:sodipodi="http://sodipodi.sourceforge.net/DTD/sodipodi-0.dtd"
   xmlns:inkscape="http://www.inkscape.org/namespaces/inkscape"
   width="1.3561862cm"
   height="1.3852063cm"
   viewBox="0 0 13.561861 13.852064"
   version="1.1"
   id="svg1338"
   inkscape:version="1.0 (4035a4fb49, 2020-05-01)"
   sodipodi:docname="2020-IS-02-taskbody_teddy8.svg">
  <defs
     id="defs1332" />
  <sodipodi:namedview
     id="base"
     pagecolor="#ffffff"
     bordercolor="#666666"
     borderopacity="1.0"
     inkscape:pageopacity="0.0"
     inkscape:pageshadow="2"
     inkscape:zoom="0.35"
     inkscape:cx="400"
     inkscape:cy="560"
     inkscape:document-units="mm"
     inkscape:current-layer="_1052274192-3"
     inkscape:document-rotation="0"
     showgrid="false"
     units="cm"
     fit-margin-top="0"
     fit-margin-left="0"
     fit-margin-right="0"
     fit-margin-bottom="0" />
  <metadata
     id="metadata1335">
    <rdf:RDF>
      <cc:Work
         rdf:about="">
        <dc:format>image/svg+xml</dc:format>
        <dc:type
           rdf:resource="http://purl.org/dc/dcmitype/StillImage" />
        <dc:title></dc:title>
      </cc:Work>
    </rdf:RDF>
  </metadata>
  <g
     inkscape:label="Ebene 1"
     inkscape:groupmode="layer"
     id="layer1"
     transform="translate(-2.5830883,-6.1084502)">
    <g
       transform="matrix(0.02774247,0,0,0.02774247,-33.148357,-27.336013)"
       style="clip-rule:evenodd;fill-rule:evenodd;image-rendering:optimizeQuality;shape-rendering:geometricPrecision;text-rendering:geometricPrecision"
       id="_1052274192-3">
      <g
         transform="translate(-1546.0603,-778.1759)"
         style="clip-rule:evenodd;fill-rule:evenodd;image-rendering:optimizeQuality;shape-rendering:geometricPrecision;text-rendering:geometricPrecision"
         id="_1205609984">
        <g
           id="g2247"
           style="opacity:1">
          <path
             style="color:#000000;font-style:normal;font-variant:normal;font-weight:normal;font-stretch:normal;font-size:medium;line-height:normal;font-family:sans-serif;font-variant-ligatures:normal;font-variant-position:normal;font-variant-caps:normal;font-variant-numeric:normal;font-variant-alternates:normal;font-variant-east-asian:normal;font-feature-settings:normal;font-variation-settings:normal;text-indent:0;text-align:start;text-decoration:none;text-decoration-line:none;text-decoration-style:solid;text-decoration-color:#000000;letter-spacing:normal;word-spacing:normal;text-transform:none;writing-mode:lr-tb;direction:ltr;text-orientation:mixed;dominant-baseline:auto;baseline-shift:baseline;text-anchor:start;white-space:normal;shape-padding:0;shape-margin:0;inline-size:0;clip-rule:nonzero;display:inline;overflow:visible;visibility:visible;isolation:auto;mix-blend-mode:normal;color-interpolation:sRGB;color-interpolation-filters:linearRGB;solid-color:#000000;solid-opacity:1;vector-effect:none;fill:#f6ad71;fill-opacity:1;fill-rule:nonzero;stroke:none;stroke-width:18.0197;stroke-linecap:round;stroke-linejoin:round;stroke-miterlimit:4;stroke-dasharray:none;stroke-dashoffset:0;stroke-opacity:1;color-rendering:auto;image-rendering:auto;shape-rendering:auto;text-rendering:auto;enable-background:accumulate;stop-color:#000000;stop-opacity:1"
             d="m 3057,2390 c 0,0 -86,81 27,84 56,1 148,-69 131,-165 -11,-64 43,97 96,-2 22,-41 -90,-121 -89,-125 -3,-26 12,-47 -12,-81 22,18 40,-64 9,-89 -55,-45 -74,1 -95,14 -75,-17 -88,0 -156,18 -1,-1 -2,-3 -4,-5 -65,-64 -97,57 -25,71 -11,57 22,119 34,120 -71,53 -160,-24 -120,74 13,31 98,44 122,14 11,-3 28,28 -25,52 -62,27 -50,61 -5,66 26,2 52,16 105,-35 3,-3 7,-6 7,-11 z"
             id="path2249" />
          <path
             style="color:#000000;font-style:normal;font-variant:normal;font-weight:normal;font-stretch:normal;font-size:medium;line-height:normal;font-family:sans-serif;font-variant-ligatures:normal;font-variant-position:normal;font-variant-caps:normal;font-variant-numeric:normal;font-variant-alternates:normal;font-variant-east-asian:normal;font-feature-settings:normal;font-variation-settings:normal;text-indent:0;text-align:start;text-decoration:none;text-decoration-line:none;text-decoration-style:solid;text-decoration-color:#000000;letter-spacing:normal;word-spacing:normal;text-transform:none;writing-mode:lr-tb;direction:ltr;text-orientation:mixed;dominant-baseline:auto;baseline-shift:baseline;text-anchor:start;white-space:normal;shape-padding:0;shape-margin:0;inline-size:0;clip-rule:nonzero;display:inline;overflow:visible;visibility:visible;isolation:auto;mix-blend-mode:normal;color-interpolation:sRGB;color-interpolation-filters:linearRGB;solid-color:#000000;solid-opacity:1;vector-effect:none;fill:#2b2a29;fill-opacity:1;fill-rule:nonzero;stroke:none;stroke-width:18.0197;stroke-linecap:round;stroke-linejoin:round;stroke-miterlimit:4;stroke-dasharray:none;stroke-dashoffset:0;stroke-opacity:1;color-rendering:auto;image-rendering:auto;shape-rendering:auto;text-rendering:auto;enable-background:accumulate;stop-color:#000000;stop-opacity:1"
             d="m 3176.8965,1983.709 c -8.3851,-0.017 -15.9609,2.2089 -22.3438,5.5683 -15.3753,8.0923 -25.4989,21.1033 -32.8652,27.0372 -35.6713,-7.6875 -58.6773,-7.7068 -80.1406,-3.2618 -20.9711,4.3432 -40.3333,12.3414 -70.252,20.6289 -0.3578,-0.3869 -0.5278,-0.6567 -0.9238,-1.0527 a 9.0107505,9.0107505 0 0 0 -0.049,-0.049 c -17.5248,-17.2552 -34.9022,-23.6999 -49.8164,-20.2305 -14.9142,3.4694 -24.7999,16.1289 -29.0176,30.3359 -4.2177,14.2071 -3.3988,30.7458 3.832,45.3184 6.2007,12.4965 17.5764,23.2662 33.6152,28.6074 -3.5243,27.9792 1.9662,55.7211 9.9844,77.502 4.4065,11.9698 9.5445,22.1305 14.6856,29.7637 1.3141,1.9511 2.6241,3.7274 3.957,5.3535 -29.6765,16.5888 -61.4846,12.2375 -86.0586,11.8847 -6.843,-0.098 -13.1423,0.066 -19.1601,1.6739 -6.0179,1.608 -12.2184,5.3681 -15.4532,11.6132 -3.2348,6.2452 -3.4507,13.5255 -2.0136,21.9668 1.437,8.4414 4.6383,18.4351 9.7812,31.0352 a 9.0107505,9.0107505 0 0 0 0.033,0.08 c 4.5173,10.772 14.1125,18.3631 25.4356,24.0508 11.3231,5.6876 24.7613,9.4707 38.582,11.2734 24.9508,3.2544 51.7558,0.8069 68.2598,-14.0527 0.4188,1.0594 0.7426,2.3849 0.5624,4.2539 -0.5776,5.9929 -6.4057,17.5338 -31.248,28.7832 l 0.1191,-0.053 c -16.2321,7.0689 -28.0513,14.7017 -36.1171,22.9688 -8.0659,8.2671 -12.5625,17.684 -11.8985,27.1699 0.664,9.486 6.587,17.6016 14.7012,22.9981 8.1142,5.3964 18.5978,8.7092 30.918,10.0781 a 9.0107505,9.0107505 0 0 0 0.3027,0.027 c 11.6261,0.8943 25.9688,5.2585 44.4922,2.2891 8.7215,-1.3981 18.1602,-4.5631 28.5215,-10.166 -1.4599,9.9261 0.3312,20.5964 8.3418,28.7988 10.5934,10.8472 28.742,16.3222 58.0976,17.1016 a 9.0107505,9.0107505 0 0 0 0.078,0 c 31.8404,0.5686 70.1674,-17.9465 99.5704,-48.9316 27.0876,-28.5453 46.2277,-68.6136 42.0058,-114.7129 2.1974,2.6213 4.5554,5.3209 7.0313,7.9453 10.0403,10.6428 22.9526,21.5486 39.5215,21.7793 16.5671,0.2307 32.9416,-11.6267 46.9707,-37.8281 v 0 c 7.5802,-14.1313 3.2572,-30.3098 -4.8281,-44.8907 -8.0861,-14.5822 -20.4427,-28.9308 -33.3047,-42.0488 -12.862,-13.118 -26.2609,-24.9229 -36.3203,-33.6641 -5.0297,-4.3705 -9.2416,-7.9915 -11.9981,-10.4902 -0.7918,-0.7178 -1.1094,-1.0518 -1.6211,-1.5469 -0.6799,-10.2816 1.6291,-20.8375 2.0118,-33.8496 0.3048,-10.3629 -1.2427,-22.1177 -7.3321,-35 2.6159,-1.6189 4.8228,-3.7234 6.6211,-6.0449 5.9109,-7.6304 9.2582,-17.9919 11.1055,-29.6914 3.6933,-23.3913 1.2905,-52.9651 -18.6016,-69.0254 -14.5157,-11.8706 -27.3021,-18.3112 -39.1367,-20.4902 -2.9608,-0.5452 -5.8456,-0.7991 -8.6406,-0.8047 z m -0.1445,17.959 c 1.7313,0.024 3.5623,0.2072 5.5234,0.5683 7.8442,1.4444 18.0485,6.1237 31.0195,16.7364 a 9.0107505,9.0107505 0 0 0 0.049,0.041 c 11.0897,8.9433 15.1862,32.856 12.1308,52.207 -1.5277,9.6755 -4.8679,18.0015 -7.5508,21.4648 -1.2321,1.5906 -1.8651,1.7486 -1.7617,1.7383 -0.085,-0.079 -0.07,-0.08 -0.457,-0.3965 a 9.0107505,9.0107505 0 0 0 -13.0664,12.168 c 10.986,15.5636 12.5687,26.538 12.2304,38.0391 -0.3287,11.1765 -3.2891,23.1774 -1.875,37.584 -0.4216,3.8885 1.203,4.9785 1.7637,5.8105 0.6537,0.9699 1.171,1.5288 1.7266,2.125 1.1111,1.1925 2.3587,2.3587 3.9043,3.7598 3.0912,2.8021 7.2933,6.4077 12.2793,10.7402 9.9718,8.6651 23.0104,20.1727 35.2734,32.6797 12.263,12.507 23.7189,26.0959 30.4141,38.1699 6.6952,12.074 8.1219,21.2689 4.705,27.6367 a 9.0107505,9.0107505 0 0 0 0,0.01 c -12.4699,23.293 -22.7192,28.4334 -30.8378,28.3204 -8.1187,-0.1131 -17.9564,-6.8948 -26.6661,-16.127 -8.7096,-9.2322 -15.2778,-19.4299 -21.1308,-25.5566 -1.4633,-1.5317 -2.3765,-3.2123 -6.5938,-4.4805 -2.1086,-0.6341 -6.027,-0.5344 -8.7304,1.4062 -2.7035,1.9407 -3.5523,4.3001 -3.9922,5.8985 -0.8799,3.1968 -0.6347,5.2541 -0.4024,8.0547 0.2323,2.8006 0.7051,6.1139 1.418,10.2617 a 9.0107505,9.0107505 0 0 0 0.01,0.045 c 7.9478,44.8819 -9.442,83.3387 -35.7891,111.1035 -26.3409,27.7585 -62.0027,43.7402 -86.1621,43.3164 -27.1012,-0.728 -40.5642,-6.4958 -45.623,-11.6757 -5.0628,-5.1841 -5.013,-10.8272 -1.9453,-19.4063 2.1319,-5.9623 6.0599,-12.0472 10.1875,-17.7676 3.0773,-2.6831 6.2177,-5.537 9.4511,-8.6484 a 9.0107505,9.0107505 0 0 0 0.1231,-0.1211 c 1.1461,-1.1461 3.2137,-2.8511 5.3379,-5.5547 2.1242,-2.7035 4.3008,-6.9138 4.3008,-11.8164 a 9.0107505,9.0107505 0 0 0 -15.1875,-6.5586 c 0,0 -9.6516,8.7793 -18.7481,21.5488 -19.5636,16.4927 -34.1751,22.5727 -46.125,24.4883 -14.2266,2.2806 -25.8839,-1.3552 -40.2578,-2.4609 l 0.3027,0.027 c -10.1798,-1.1311 -18.0712,-3.9433 -22.9257,-7.1719 -4.8546,-3.2285 -6.4941,-6.2379 -6.7051,-9.2519 -0.211,-3.0141 1.1049,-7.4722 6.8203,-13.3301 5.7154,-5.8579 15.6462,-12.6001 30.4141,-19.0312 a 9.0107505,9.0107505 0 0 0 0.1191,-0.053 c 28.1577,-12.7506 40.3296,-28.7097 41.752,-43.4668 0.7111,-7.3785 -1.3553,-14.0747 -5.2754,-18.9218 -3.9201,-4.8472 -10.446,-8.4512 -17.5645,-6.5098 a 9.0107505,9.0107505 0 0 0 -4.6641,3.0625 c -8.3621,10.4527 -32.8152,15.7149 -56.9238,12.5703 -12.0543,-1.5723 -23.8036,-4.9767 -32.8242,-9.5078 -9.011,-4.5263 -14.9095,-10.1775 -16.8984,-14.9024 -4.8387,-11.8638 -7.6034,-20.8858 -8.6758,-27.1855 -1.0747,-6.3126 -0.3453,-9.5088 0.248,-10.6543 0.5933,-1.1455 1.1038,-1.6901 4.1055,-2.4922 3.0017,-0.8021 8.0305,-1.1537 14.25,-1.0644 24.8779,0.3571 68.5203,6.9166 107.1426,-21.9141 a 9.0107505,9.0107505 0 0 0 -3.7969,-16.0879 c 0.3588,0.073 0.099,0.02 -0.7871,-0.8105 -1.2987,-1.2175 -3.2151,-3.4846 -5.2539,-6.5118 -4.0777,-6.0543 -8.7522,-15.1436 -12.7207,-25.9238 -7.9371,-21.5604 -13.0516,-49.9224 -7.9844,-76.1797 a 9.0107505,9.0107505 0 0 0 -7.1269,-10.5508 c -15.4904,-3.012 -24.2699,-11.1077 -29.2579,-21.1601 -4.9879,-10.0524 -5.6065,-22.3887 -2.6992,-32.1816 2.9073,-9.793 8.7091,-16.2585 15.8262,-17.9141 7.1103,-1.6541 18.0951,0.7745 33.0488,15.4824 0.9282,0.935 0.8793,1.8754 3.9922,4.9883 a 9.0107505,9.0107505 0 0 0 8.6758,2.3379 c 34.541,-9.1432 54.9898,-17.8887 74.8984,-22.0117 19.9086,-4.1231 40.0456,-4.2423 76.8047,4.0898 a 9.0107505,9.0107505 0 0 0 6.7344,-1.1269 c 13.5099,-8.3633 22.7261,-22.396 34.2051,-28.4375 4.3046,-2.2656 8.6106,-3.6257 13.8047,-3.5547 z m 54.1367,177.5097 c 0.2436,0.6485 0.2758,1.7263 0.1152,3.1192 a 9.0107505,9.0107505 0 0 0 -0.053,-1.3301 c -0.068,-0.5914 -0.017,-1.1964 -0.062,-1.7891 z"
             id="path2251" />
        </g>
        <g
           id="g2241"
           style="opacity:1">
          <path
             style="color:#000000;font-style:normal;font-variant:normal;font-weight:normal;font-stretch:normal;font-size:medium;line-height:normal;font-family:sans-serif;font-variant-ligatures:normal;font-variant-position:normal;font-variant-caps:normal;font-variant-numeric:normal;font-variant-alternates:normal;font-variant-east-asian:normal;font-feature-settings:normal;font-variation-settings:normal;text-indent:0;text-align:start;text-decoration:none;text-decoration-line:none;text-decoration-style:solid;text-decoration-color:#000000;letter-spacing:normal;word-spacing:normal;text-transform:none;writing-mode:lr-tb;direction:ltr;text-orientation:mixed;dominant-baseline:auto;baseline-shift:baseline;text-anchor:start;white-space:normal;shape-padding:0;shape-margin:0;inline-size:0;clip-rule:nonzero;display:inline;overflow:visible;visibility:visible;isolation:auto;mix-blend-mode:normal;color-interpolation:sRGB;color-interpolation-filters:linearRGB;solid-color:#000000;solid-opacity:1;vector-effect:none;fill:#fcd5a6;fill-opacity:1;fill-rule:nonzero;stroke:none;stroke-width:9.00986;stroke-linecap:round;stroke-linejoin:round;stroke-miterlimit:4;stroke-dasharray:none;stroke-dashoffset:0;stroke-opacity:1;color-rendering:auto;image-rendering:auto;shape-rendering:auto;text-rendering:auto;enable-background:accumulate;stop-color:#000000;stop-opacity:1"
             d="m 2982,2131 c 43,7 124,-51 115,53 -4,53 -168,57 -134,-46 3,-8 11,-8 19,-7 z"
             id="path2243" />
          <path
             style="color:#000000;font-style:normal;font-variant:normal;font-weight:normal;font-stretch:normal;font-size:medium;line-height:normal;font-family:sans-serif;font-variant-ligatures:normal;font-variant-position:normal;font-variant-caps:normal;font-variant-numeric:normal;font-variant-alternates:normal;font-variant-east-asian:normal;font-feature-settings:normal;font-variation-settings:normal;text-indent:0;text-align:start;text-decoration:none;text-decoration-line:none;text-decoration-style:solid;text-decoration-color:#000000;letter-spacing:normal;word-spacing:normal;text-transform:none;writing-mode:lr-tb;direction:ltr;text-orientation:mixed;dominant-baseline:auto;baseline-shift:baseline;text-anchor:start;white-space:normal;shape-padding:0;shape-margin:0;inline-size:0;clip-rule:nonzero;display:inline;overflow:visible;visibility:visible;isolation:auto;mix-blend-mode:normal;color-interpolation:sRGB;color-interpolation-filters:linearRGB;solid-color:#000000;solid-opacity:1;vector-effect:none;fill:#2b2a29;fill-opacity:1;fill-rule:nonzero;stroke:none;stroke-width:9.00986;stroke-linecap:round;stroke-linejoin:round;stroke-miterlimit:4;stroke-dasharray:none;stroke-dashoffset:0;stroke-opacity:1;color-rendering:auto;image-rendering:auto;shape-rendering:auto;text-rendering:auto;enable-background:accumulate;stop-color:#000000;stop-opacity:1"
             d="m 3058.8848,2116.6211 c -12.9823,0.3312 -27.0248,3.7691 -40.4336,6.5781 -13.4089,2.809 -26.1717,4.909 -35.7266,3.3535 a 4.5053805,4.5053805 0 0 0 -0.166,-0.023 c -4.1834,-0.5229 -8.6506,-0.9099 -13.0645,0.2344 -4.4138,1.1443 -8.7506,4.4216 -10.7129,9.6543 a 4.5053805,4.5053805 0 0 0 -0.059,0.1699 c -35.3378,107.0526 138.0448,109.9484 142.7675,47.7676 2.2909,-26.5216 -0.9555,-43.5316 -9.0156,-54.2364 -8.0637,-10.7096 -20.6076,-13.8292 -33.5898,-13.498 z m 0.2304,9.0078 c 11.5178,-0.2938 20.2239,2.0241 26.1602,9.9082 5.9363,7.8841 9.4394,22.6167 7.2363,48.0742 a 4.5053805,4.5053805 0 0 0 0,0.049 c -3.3042,43.7814 -157.7319,54.6747 -125.2695,-44.1094 1.0334,-2.73 2.1941,-3.4621 4.5176,-4.0645 2.3361,-0.6057 5.8689,-0.4927 9.6855,-0.016 l -0.166,-0.023 c 11.9451,1.9445 25.4323,-0.5805 39.0234,-3.4278 13.5912,-2.8472 27.2987,-6.0968 38.8164,-6.3906 z"
             id="path2245" />
        </g>
        <g
           id="g2235"
           style="opacity:1">
          <path
             style="color:#000000;font-style:normal;font-variant:normal;font-weight:normal;font-stretch:normal;font-size:medium;line-height:normal;font-family:sans-serif;font-variant-ligatures:normal;font-variant-position:normal;font-variant-caps:normal;font-variant-numeric:normal;font-variant-alternates:normal;font-variant-east-asian:normal;font-feature-settings:normal;font-variation-settings:normal;text-indent:0;text-align:start;text-decoration:none;text-decoration-line:none;text-decoration-style:solid;text-decoration-color:#000000;letter-spacing:normal;word-spacing:normal;text-transform:none;writing-mode:lr-tb;direction:ltr;text-orientation:mixed;dominant-baseline:auto;baseline-shift:baseline;text-anchor:start;white-space:normal;shape-padding:0;shape-margin:0;inline-size:0;clip-rule:nonzero;display:inline;overflow:visible;visibility:visible;isolation:auto;mix-blend-mode:normal;color-interpolation:sRGB;color-interpolation-filters:linearRGB;solid-color:#000000;solid-opacity:1;vector-effect:none;fill:#2b2a29;fill-opacity:1;fill-rule:nonzero;stroke:none;stroke-width:9.00986;stroke-linecap:round;stroke-linejoin:round;stroke-miterlimit:4;stroke-dasharray:none;stroke-dashoffset:0;stroke-opacity:1;color-rendering:auto;image-rendering:auto;shape-rendering:auto;text-rendering:auto;enable-background:accumulate;stop-color:#000000;stop-opacity:1"
             d="m 3028,2112 c -43,8 -11,-6 -49,13 -31,15 64,62 66,3 1,-13 -7,-18 -17,-16 z"
             id="path2237" />
          <path
             style="color:#000000;font-style:normal;font-variant:normal;font-weight:normal;font-stretch:normal;font-size:medium;line-height:normal;font-family:sans-serif;font-variant-ligatures:normal;font-variant-position:normal;font-variant-caps:normal;font-variant-numeric:normal;font-variant-alternates:normal;font-variant-east-asian:normal;font-feature-settings:normal;font-variation-settings:normal;text-indent:0;text-align:start;text-decoration:none;text-decoration-line:none;text-decoration-style:solid;text-decoration-color:#000000;letter-spacing:normal;word-spacing:normal;text-transform:none;writing-mode:lr-tb;direction:ltr;text-orientation:mixed;dominant-baseline:auto;baseline-shift:baseline;text-anchor:start;white-space:normal;shape-padding:0;shape-margin:0;inline-size:0;clip-rule:nonzero;display:inline;overflow:visible;visibility:visible;isolation:auto;mix-blend-mode:normal;color-interpolation:sRGB;color-interpolation-filters:linearRGB;solid-color:#000000;solid-opacity:1;vector-effect:none;fill:#2b2a29;fill-opacity:1;fill-rule:nonzero;stroke:none;stroke-width:9.00986;stroke-linecap:round;stroke-linejoin:round;stroke-miterlimit:4;stroke-dasharray:none;stroke-dashoffset:0;stroke-opacity:1;color-rendering:auto;image-rendering:auto;shape-rendering:auto;text-rendering:auto;enable-background:accumulate;stop-color:#000000;stop-opacity:1"
             d="m 3031.5605,2107.0801 c -1.4699,0.033 -2.9597,0.2052 -4.4433,0.5019 l 0.059,-0.012 c -10.6165,1.9752 -16.4879,2.5637 -19.7637,2.6621 -3.2758,0.098 -3.5201,-0.2376 -5.5234,-0.3554 -1.0017,-0.059 -2.3389,0.122 -3.461,0.5 -1.122,0.3779 -2.2102,0.8887 -3.7773,1.6601 -3.1249,1.5382 -8.1955,4.1986 -17.6133,8.9082 -4.6962,2.2724 -8.0324,5.9183 -8.6445,10.2852 -0.6122,4.3668 1.3187,8.35 4.0742,11.7168 5.511,6.7336 15.0753,12.2679 25.8223,15.6054 10.7469,3.3376 22.7563,4.4089 32.9394,0.1309 10.1571,-4.2671 17.6878,-14.5069 18.2637,-30.4141 0.5527,-7.4247 -1.5523,-13.6339 -5.9688,-17.3437 -3.3242,-2.7924 -7.5529,-3.945 -11.9629,-3.8457 z m 0.1641,9 c 2.6331,-0.077 4.6387,0.599 6.002,1.7441 1.8177,1.5269 3.2074,4.2901 2.7812,9.8301 a 4.5053805,4.5053805 0 0 0 -0.01,0.1934 c -0.4584,13.5228 -5.5347,19.4967 -12.7578,22.5312 -7.2231,3.0345 -17.4012,2.4808 -26.7793,-0.4316 -9.378,-2.9125 -17.8762,-8.2532 -21.5214,-12.7071 -1.8227,-2.2269 -2.2434,-3.9156 -2.125,-4.7597 0.1183,-0.8441 0.5946,-1.9482 3.6484,-3.4258 a 4.5053805,4.5053805 0 0 0 0.053,-0.025 c 9.5283,-4.7641 14.7182,-7.4841 17.6153,-8.9102 1.4485,-0.713 2.3212,-1.085 2.6718,-1.2031 0.3506,-0.1181 0,-0.047 0.059,-0.043 0.1217,0.01 2.3149,0.4837 6.3203,0.3633 4.0055,-0.1203 10.2591,-0.7818 21.1426,-2.8066 a 4.5053805,4.5053805 0 0 0 0.059,-0.012 c 1.0164,-0.2033 1.9641,-0.3124 2.8418,-0.3379 z"
             id="path2239" />
        </g>
        <path
           style="color:#000000;font-style:normal;font-variant:normal;font-weight:normal;font-stretch:normal;font-size:medium;line-height:normal;font-family:sans-serif;font-variant-ligatures:normal;font-variant-position:normal;font-variant-caps:normal;font-variant-numeric:normal;font-variant-alternates:normal;font-variant-east-asian:normal;font-feature-settings:normal;font-variation-settings:normal;text-indent:0;text-align:start;text-decoration:none;text-decoration-line:none;text-decoration-style:solid;text-decoration-color:#000000;letter-spacing:normal;word-spacing:normal;text-transform:none;writing-mode:lr-tb;direction:ltr;text-orientation:mixed;dominant-baseline:auto;baseline-shift:baseline;text-anchor:start;white-space:normal;shape-padding:0;shape-margin:0;inline-size:0;clip-rule:nonzero;display:inline;overflow:visible;visibility:visible;opacity:1;isolation:auto;mix-blend-mode:normal;color-interpolation:sRGB;color-interpolation-filters:linearRGB;solid-color:#000000;solid-opacity:1;vector-effect:none;fill:#2b2a29;fill-opacity:1;fill-rule:nonzero;stroke:none;stroke-width:9.00986;stroke-linecap:round;stroke-linejoin:round;stroke-miterlimit:4;stroke-dasharray:none;stroke-dashoffset:0;stroke-opacity:1;color-rendering:auto;image-rendering:auto;shape-rendering:auto;text-rendering:auto;enable-background:accumulate;stop-color:#000000;stop-opacity:1"
           d="m 3018,2145.4941 a 4.50493,4.50493 0 0 0 -4.5059,4.5059 c 0,14.3447 -0.8475,25.066 1.4883,35.3711 2.3358,10.3051 8.1246,19.6485 20.0625,30.0293 a 4.50493,4.50493 0 0 0 6.3555,-0.4453 4.50493,4.50493 0 0 0 -0.4453,-6.3555 c -11.0621,-9.6192 -15.2733,-16.7758 -17.1875,-25.2207 -1.9142,-8.4449 -1.2617,-18.7236 -1.2617,-33.3789 A 4.50493,4.50493 0 0 0 3018,2145.4941 Z"
           id="path2233" />
        <g
           id="g2225"
           style="opacity:1">
          <path
             style="color:#000000;font-style:normal;font-variant:normal;font-weight:normal;font-stretch:normal;font-size:medium;line-height:normal;font-family:sans-serif;font-variant-ligatures:normal;font-variant-position:normal;font-variant-caps:normal;font-variant-numeric:normal;font-variant-alternates:normal;font-variant-east-asian:normal;font-feature-settings:normal;font-variation-settings:normal;text-indent:0;text-align:start;text-decoration:none;text-decoration-line:none;text-decoration-style:solid;text-decoration-color:#000000;letter-spacing:normal;word-spacing:normal;text-transform:none;writing-mode:lr-tb;direction:ltr;text-orientation:mixed;dominant-baseline:auto;baseline-shift:baseline;text-anchor:start;white-space:normal;shape-padding:0;shape-margin:0;inline-size:0;clip-rule:nonzero;display:inline;overflow:visible;visibility:visible;isolation:auto;mix-blend-mode:normal;color-interpolation:sRGB;color-interpolation-filters:linearRGB;solid-color:#000000;solid-opacity:1;vector-effect:none;fill:#2b2a29;fill-opacity:1;fill-rule:nonzero;stroke:none;stroke-width:9.00986;stroke-linecap:round;stroke-linejoin:round;stroke-miterlimit:4;stroke-dasharray:none;stroke-dashoffset:0;stroke-opacity:1;color-rendering:auto;image-rendering:auto;shape-rendering:auto;text-rendering:auto;enable-background:accumulate;stop-color:#000000;stop-opacity:1"
             d="m 3089,2079 c -22,25 35,10 0,0 z"
             id="path2227" />
          <path
             style="color:#000000;font-style:normal;font-variant:normal;font-weight:normal;font-stretch:normal;font-size:medium;line-height:normal;font-family:sans-serif;font-variant-ligatures:normal;font-variant-position:normal;font-variant-caps:normal;font-variant-numeric:normal;font-variant-alternates:normal;font-variant-east-asian:normal;font-feature-settings:normal;font-variation-settings:normal;text-indent:0;text-align:start;text-decoration:none;text-decoration-line:none;text-decoration-style:solid;text-decoration-color:#000000;letter-spacing:normal;word-spacing:normal;text-transform:none;writing-mode:lr-tb;direction:ltr;text-orientation:mixed;dominant-baseline:auto;baseline-shift:baseline;text-anchor:start;white-space:normal;shape-padding:0;shape-margin:0;inline-size:0;clip-rule:nonzero;display:inline;overflow:visible;visibility:visible;isolation:auto;mix-blend-mode:normal;color-interpolation:sRGB;color-interpolation-filters:linearRGB;solid-color:#000000;solid-opacity:1;vector-effect:none;fill:#2b2a29;fill-opacity:1;fill-rule:nonzero;stroke:none;stroke-width:9.00986;stroke-linecap:round;stroke-linejoin:round;stroke-miterlimit:4;stroke-dasharray:none;stroke-dashoffset:0;stroke-opacity:1;color-rendering:auto;image-rendering:auto;shape-rendering:auto;text-rendering:auto;enable-background:accumulate;stop-color:#000000;stop-opacity:1"
             d="m 3089.0039,2074.4961 a 4.5053805,4.5053805 0 0 0 -3.3867,1.5273 c -2.9949,3.4033 -4.8766,6.2808 -5.7969,9.2168 -0.9202,2.9361 -0.5258,6.4357 1.4258,8.6739 1.9516,2.2381 4.5233,2.956 6.8633,3.1914 2.3399,0.2354 4.6731,-0.034 6.9121,-0.6231 2.239,-0.5892 4.3731,-1.4838 6.2519,-2.8847 1.8788,-1.401 3.7996,-3.5945 3.9004,-6.7188 0.1008,-3.1243 -1.8776,-5.8285 -4.3984,-7.6406 -2.5209,-1.8121 -5.8638,-3.2351 -10.5371,-4.5703 a 4.5053805,4.5053805 0 0 0 -1.2344,-0.1719 z m 1.5899,9.8242 c 2.2866,0.83 4.0828,1.6354 4.9062,2.2246 -0.6604,0.4232 -1.6099,0.917 -2.7715,1.2227 -1.3235,0.3483 -2.756,0.4697 -3.7168,0.373 -0.6284,-0.063 -0.5551,-0.07 -0.6387,-0.098 0.023,-0.071 0.012,0 0.045,-0.1075 0.2113,-0.6742 1.0225,-2.0187 2.1758,-3.6152 z"
             id="path2229" />
        </g>
        <g
           id="g2219"
           style="opacity:1">
          <path
             style="color:#000000;font-style:normal;font-variant:normal;font-weight:normal;font-stretch:normal;font-size:medium;line-height:normal;font-family:sans-serif;font-variant-ligatures:normal;font-variant-position:normal;font-variant-caps:normal;font-variant-numeric:normal;font-variant-alternates:normal;font-variant-east-asian:normal;font-feature-settings:normal;font-variation-settings:normal;text-indent:0;text-align:start;text-decoration:none;text-decoration-line:none;text-decoration-style:solid;text-decoration-color:#000000;letter-spacing:normal;word-spacing:normal;text-transform:none;writing-mode:lr-tb;direction:ltr;text-orientation:mixed;dominant-baseline:auto;baseline-shift:baseline;text-anchor:start;white-space:normal;shape-padding:0;shape-margin:0;inline-size:0;clip-rule:nonzero;display:inline;overflow:visible;visibility:visible;isolation:auto;mix-blend-mode:normal;color-interpolation:sRGB;color-interpolation-filters:linearRGB;solid-color:#000000;solid-opacity:1;vector-effect:none;fill:#2b2a29;fill-opacity:1;fill-rule:nonzero;stroke:none;stroke-width:9.00986;stroke-linecap:round;stroke-linejoin:round;stroke-miterlimit:4;stroke-dasharray:none;stroke-dashoffset:0;stroke-opacity:1;color-rendering:auto;image-rendering:auto;shape-rendering:auto;text-rendering:auto;enable-background:accumulate;stop-color:#000000;stop-opacity:1"
             d="m 2980,2088 c -34,21 31,28 0,0 z"
             id="path2221" />
          <path
             style="color:#000000;font-style:normal;font-variant:normal;font-weight:normal;font-stretch:normal;font-size:medium;line-height:normal;font-family:sans-serif;font-variant-ligatures:normal;font-variant-position:normal;font-variant-caps:normal;font-variant-numeric:normal;font-variant-alternates:normal;font-variant-east-asian:normal;font-feature-settings:normal;font-variation-settings:normal;text-indent:0;text-align:start;text-decoration:none;text-decoration-line:none;text-decoration-style:solid;text-decoration-color:#000000;letter-spacing:normal;word-spacing:normal;text-transform:none;writing-mode:lr-tb;direction:ltr;text-orientation:mixed;dominant-baseline:auto;baseline-shift:baseline;text-anchor:start;white-space:normal;shape-padding:0;shape-margin:0;inline-size:0;clip-rule:nonzero;display:inline;overflow:visible;visibility:visible;isolation:auto;mix-blend-mode:normal;color-interpolation:sRGB;color-interpolation-filters:linearRGB;solid-color:#000000;solid-opacity:1;vector-effect:none;fill:#2b2a29;fill-opacity:1;fill-rule:nonzero;stroke:none;stroke-width:9.00986;stroke-linecap:round;stroke-linejoin:round;stroke-miterlimit:4;stroke-dasharray:none;stroke-dashoffset:0;stroke-opacity:1;color-rendering:auto;image-rendering:auto;shape-rendering:auto;text-rendering:auto;enable-background:accumulate;stop-color:#000000;stop-opacity:1"
             d="m 2979.918,2083.4961 a 4.5053805,4.5053805 0 0 0 -2.2852,0.6719 c -4.5706,2.823 -7.7203,5.5033 -9.7851,8.3867 -2.0649,2.8834 -2.9923,6.3134 -2.1915,9.3808 0.8009,3.0675 2.9924,5.2063 5.2911,6.5586 2.2986,1.3524 4.8541,2.0804 7.4453,2.3594 2.5912,0.2791 5.2254,0.1152 7.7402,-0.7558 2.5148,-0.8711 5.1238,-2.6577 6.336,-5.6329 1.2121,-2.9752 0.6819,-6.4309 -0.9551,-9.621 -1.6371,-3.1902 -4.3632,-6.4564 -8.4942,-10.1876 a 4.5053805,4.5053805 0 0 0 -3.1015,-1.1601 z m -0.4395,10.4082 c 1.9325,2.0384 3.3998,3.845 4.0195,5.0527 0.8747,1.7044 0.618,2.1315 0.627,2.1094 0.01,-0.022 -0.062,0.2148 -0.9414,0.5195 -0.8797,0.3047 -2.3549,0.469 -3.8262,0.3106 -1.4713,-0.1585 -2.9314,-0.6336 -3.8398,-1.168 -0.9084,-0.5344 -1.1153,-0.9659 -1.1426,-1.0703 -0.027,-0.1044 -0.2125,-0.4479 0.7969,-1.8574 0.6986,-0.9756 2.2721,-2.3707 4.3066,-3.8965 z"
             id="path2223" />
        </g>
        <path
           style="color:#000000;font-style:normal;font-variant:normal;font-weight:normal;font-stretch:normal;font-size:medium;line-height:normal;font-family:sans-serif;font-variant-ligatures:normal;font-variant-position:normal;font-variant-caps:normal;font-variant-numeric:normal;font-variant-alternates:normal;font-variant-east-asian:normal;font-feature-settings:normal;font-variation-settings:normal;text-indent:0;text-align:start;text-decoration:none;text-decoration-line:none;text-decoration-style:solid;text-decoration-color:#000000;letter-spacing:normal;word-spacing:normal;text-transform:none;writing-mode:lr-tb;direction:ltr;text-orientation:mixed;dominant-baseline:auto;baseline-shift:baseline;text-anchor:start;white-space:normal;shape-padding:0;shape-margin:0;inline-size:0;clip-rule:nonzero;display:inline;overflow:visible;visibility:visible;opacity:1;isolation:auto;mix-blend-mode:normal;color-interpolation:sRGB;color-interpolation-filters:linearRGB;solid-color:#000000;solid-opacity:1;vector-effect:none;fill:#2b2a29;fill-opacity:1;fill-rule:nonzero;stroke:none;stroke-width:9.00986;stroke-linecap:round;stroke-linejoin:round;stroke-miterlimit:4;stroke-dasharray:none;stroke-dashoffset:0;stroke-opacity:1;color-rendering:auto;image-rendering:auto;shape-rendering:auto;text-rendering:auto;enable-background:accumulate;stop-color:#000000;stop-opacity:1"
           d="m 3189.2695,2015 c -3.1996,0.4333 -6.3923,2.377 -8.084,5.4043 -2.2555,4.0365 -2.9527,9.3303 -2.6875,16.7559 a 4.50493,4.50493 0 0 0 4.6622,4.3418 4.50493,4.50493 0 0 0 4.3418,-4.6622 c -0.2348,-6.5744 0.7242,-10.5618 1.5507,-12.041 0.8266,-1.4791 0.4108,-1.1199 1.5625,-0.8847 1.1518,0.2352 3.6553,1.622 6.2325,4.1425 2.5771,2.5206 5.2992,6.0406 7.6562,9.9981 4.7141,7.915 7.8044,17.6701 7.0664,24.3242 -0.369,3.3271 -1.481,5.7575 -3.584,7.6035 -2.1029,1.846 -5.5041,3.2938 -11.1621,3.5156 H 3197 c -0.1812,0 -0.2154,0.023 -0.3867,0.027 -0.06,-0.4612 -0.072,-0.5831 -0.1543,-1.1582 a 4.50493,4.50493 0 0 0 -5.0957,-3.8223 4.50493,4.50493 0 0 0 -3.8223,5.0957 c 0.2394,1.6757 0.3479,2.7754 0.5078,3.7949 0.16,1.0196 0.076,2.6678 2.2481,4.2969 1.086,0.8146 2.3432,1.0185 3.0566,1.0391 0.7134,0.021 1.1059,-0.05 1.4551,-0.094 0.6983,-0.087 1.2417,-0.1679 2.1914,-0.1679 a 4.5053805,4.5053805 0 0 0 0.1758,0 c 7.092,-0.2782 12.7533,-2.2366 16.7558,-5.75 4.0025,-3.5134 6.0389,-8.3955 6.5918,-13.3809 1.1058,-9.9709 -2.8664,-20.8408 -8.2773,-29.9258 -2.7055,-4.5425 -5.8116,-8.6162 -9.0977,-11.8301 -3.2861,-3.2138 -6.681,-5.702 -10.7324,-6.5293 -1.0128,-0.2068 -2.0799,-0.2303 -3.1465,-0.086 z m 7.6641,60.9023 c 0.1393,0.3267 0.064,0.4343 0.018,0.1348 0,-0.021 -0.014,-0.1118 -0.018,-0.1348 z"
           id="path2217" />
        <path
           style="color:#000000;font-style:normal;font-variant:normal;font-weight:normal;font-stretch:normal;font-size:medium;line-height:normal;font-family:sans-serif;font-variant-ligatures:normal;font-variant-position:normal;font-variant-caps:normal;font-variant-numeric:normal;font-variant-alternates:normal;font-variant-east-asian:normal;font-feature-settings:normal;font-variation-settings:normal;text-indent:0;text-align:start;text-decoration:none;text-decoration-line:none;text-decoration-style:solid;text-decoration-color:#000000;letter-spacing:normal;word-spacing:normal;text-transform:none;writing-mode:lr-tb;direction:ltr;text-orientation:mixed;dominant-baseline:auto;baseline-shift:baseline;text-anchor:start;white-space:normal;shape-padding:0;shape-margin:0;inline-size:0;clip-rule:nonzero;display:inline;overflow:visible;visibility:visible;opacity:1;isolation:auto;mix-blend-mode:normal;color-interpolation:sRGB;color-interpolation-filters:linearRGB;solid-color:#000000;solid-opacity:1;vector-effect:none;fill:#2b2a29;fill-opacity:1;fill-rule:nonzero;stroke:none;stroke-width:9.00986;stroke-linecap:round;stroke-linejoin:round;stroke-miterlimit:4;stroke-dasharray:none;stroke-dashoffset:0;stroke-opacity:1;color-rendering:auto;image-rendering:auto;shape-rendering:auto;text-rendering:auto;enable-background:accumulate;stop-color:#000000;stop-opacity:1"
           d="m 2975.8398,2038.7363 c -5.4926,-0.1432 -10.6274,2.1155 -14.6582,5.5293 -5.3743,4.5517 -9.4377,10.9837 -12.7187,17.6114 -3.281,6.6276 -5.7209,13.4819 -7.3691,18.9277 -0.8242,2.7229 -1.4474,5.0889 -1.875,6.918 -0.2139,0.9145 -0.3785,1.6919 -0.4981,2.3437 -0.1196,0.6518 -0.2266,0.9327 -0.2266,1.9336 a 4.50493,4.50493 0 0 0 4.5059,4.5059 4.50493,4.50493 0 0 0 4.5059,-4.5059 c 0,0.6259 -0.01,0.1416 0.076,-0.3086 0.083,-0.4502 0.2217,-1.1118 0.4102,-1.918 0.377,-1.6123 0.9569,-3.8166 1.7266,-6.3593 1.5392,-5.0855 3.8493,-11.5437 6.8183,-17.5411 2.969,-5.9973 6.6556,-11.5028 10.4688,-14.7324 3.8132,-3.2295 7.1017,-4.3567 11.5703,-2.8672 a 4.50493,4.50493 0 0 0 5.6972,-2.8496 4.50493,4.50493 0 0 0 -2.8496,-5.6972 c -1.8828,-0.6277 -3.7531,-0.9425 -5.584,-0.9903 z"
           id="path2213" />
        <path
           style="color:#000000;font-style:normal;font-variant:normal;font-weight:normal;font-stretch:normal;font-size:medium;line-height:normal;font-family:sans-serif;font-variant-ligatures:normal;font-variant-position:normal;font-variant-caps:normal;font-variant-numeric:normal;font-variant-alternates:normal;font-variant-east-asian:normal;font-feature-settings:normal;font-variation-settings:normal;text-indent:0;text-align:start;text-decoration:none;text-decoration-line:none;text-decoration-style:solid;text-decoration-color:#000000;letter-spacing:normal;word-spacing:normal;text-transform:none;writing-mode:lr-tb;direction:ltr;text-orientation:mixed;dominant-baseline:auto;baseline-shift:baseline;text-anchor:start;white-space:normal;shape-padding:0;shape-margin:0;inline-size:0;clip-rule:nonzero;display:inline;overflow:visible;visibility:visible;opacity:1;isolation:auto;mix-blend-mode:normal;color-interpolation:sRGB;color-interpolation-filters:linearRGB;solid-color:#000000;solid-opacity:1;vector-effect:none;fill:#2b2a29;fill-opacity:1;fill-rule:nonzero;stroke:none;stroke-width:9.00986;stroke-linecap:round;stroke-linejoin:round;stroke-miterlimit:4;stroke-dasharray:none;stroke-dashoffset:0;stroke-opacity:1;color-rendering:auto;image-rendering:auto;shape-rendering:auto;text-rendering:auto;enable-background:accumulate;stop-color:#000000;stop-opacity:1"
           d="m 3216.875,2170.4961 a 4.50493,4.50493 0 0 0 -4.2402,3.3906 c -11.8938,46.6236 -59.0829,71.8092 -110.2852,79.2813 -51.2023,7.4721 -105.5927,-3.7822 -128.1641,-26.3535 a 4.50493,4.50493 0 0 0 -6.371,0 4.50493,4.50493 0 0 0 0,6.371 c 26.4286,26.4287 82.5382,36.6744 135.8359,28.8965 53.2977,-7.7779 104.6086,-34.5923 117.7148,-85.9687 a 4.50493,4.50493 0 0 0 -3.2519,-5.4785 4.50493,4.50493 0 0 0 -1.2383,-0.1387 z"
           id="path2209" />
        <g
           id="g2201"
           style="opacity:1">
          <path
             style="color:#000000;font-style:normal;font-variant:normal;font-weight:normal;font-stretch:normal;font-size:medium;line-height:normal;font-family:sans-serif;font-variant-ligatures:normal;font-variant-position:normal;font-variant-caps:normal;font-variant-numeric:normal;font-variant-alternates:normal;font-variant-east-asian:normal;font-feature-settings:normal;font-variation-settings:normal;text-indent:0;text-align:start;text-decoration:none;text-decoration-line:none;text-decoration-style:solid;text-decoration-color:#000000;letter-spacing:normal;word-spacing:normal;text-transform:none;writing-mode:lr-tb;direction:ltr;text-orientation:mixed;dominant-baseline:auto;baseline-shift:baseline;text-anchor:start;white-space:normal;shape-padding:0;shape-margin:0;inline-size:0;clip-rule:nonzero;display:inline;overflow:visible;visibility:visible;isolation:auto;mix-blend-mode:normal;color-interpolation:sRGB;color-interpolation-filters:linearRGB;solid-color:#000000;solid-opacity:1;vector-effect:none;fill:#008dd2;fill-opacity:1;fill-rule:nonzero;stroke:none;stroke-width:9.00986;stroke-linecap:round;stroke-linejoin:round;stroke-miterlimit:4;stroke-dasharray:none;stroke-dashoffset:0;stroke-opacity:1;color-rendering:auto;image-rendering:auto;shape-rendering:auto;text-rendering:auto;enable-background:accumulate;stop-color:#000000;stop-opacity:1"
             d="m 3055,2250 c -34,-7 -104,-35 -70,36 26,56 81,-56 63,3 -3,10 -13,135 11,40 2,-7 43,65 14,-13 -21,-56 20,-62 35,38 4,22 2,-36 10,-29 59,52 -9,-61 -23,-64 21,0 107,50 60,-49 -19,-42 -94,39 -100,38 z"
             id="path2203" />
          <path
             style="color:#000000;font-style:normal;font-variant:normal;font-weight:normal;font-stretch:normal;font-size:medium;line-height:normal;font-family:sans-serif;font-variant-ligatures:normal;font-variant-position:normal;font-variant-caps:normal;font-variant-numeric:normal;font-variant-alternates:normal;font-variant-east-asian:normal;font-feature-settings:normal;font-variation-settings:normal;text-indent:0;text-align:start;text-decoration:none;text-decoration-line:none;text-decoration-style:solid;text-decoration-color:#000000;letter-spacing:normal;word-spacing:normal;text-transform:none;writing-mode:lr-tb;direction:ltr;text-orientation:mixed;dominant-baseline:auto;baseline-shift:baseline;text-anchor:start;white-space:normal;shape-padding:0;shape-margin:0;inline-size:0;clip-rule:nonzero;display:inline;overflow:visible;visibility:visible;isolation:auto;mix-blend-mode:normal;color-interpolation:sRGB;color-interpolation-filters:linearRGB;solid-color:#000000;solid-opacity:1;vector-effect:none;fill:#2b2a29;fill-opacity:1;fill-rule:nonzero;stroke:none;stroke-width:9.00986;stroke-linecap:round;stroke-linejoin:round;stroke-miterlimit:4;stroke-dasharray:none;stroke-dashoffset:0;stroke-opacity:1;color-rendering:auto;image-rendering:auto;shape-rendering:auto;text-rendering:auto;enable-background:accumulate;stop-color:#000000;stop-opacity:1"
             d="m 3135.5723,2195.4512 c -1.3691,0.072 -2.7475,0.2313 -4.127,0.4668 -11.0361,1.8833 -22.6742,8.3804 -33.8535,15.9824 -11.1793,7.6019 -21.8096,16.4123 -29.9883,23.2148 -4.0893,3.4013 -7.5766,6.3061 -10.1015,8.2383 -1.1955,0.9148 -2.1361,1.5663 -2.7559,1.9473 -16.4745,-3.5289 -41.6315,-12.1273 -60.5039,-11.0488 -4.812,0.2749 -9.3147,1.2017 -13.2031,3.3808 -3.8885,2.1791 -7.0364,5.7918 -8.5176,10.4356 -2.961,9.2832 -0.2944,21.6782 8.4062,39.8535 3.496,7.5202 7.6852,12.6926 12.6368,15.7109 4.9576,3.0221 10.54,3.6046 15.6621,2.582 10.2441,-2.045 19.2652,-9.5433 26.83,-16.5312 3.6871,-3.4059 6.9522,-6.7042 9.6504,-9.3106 -0.5248,2.0893 -1.1078,4.3371 -2.0156,7.3125 a 4.5053805,4.5053805 0 0 0 -0.01,0.02 c -0.6471,2.1572 -1.0061,4.9653 -1.5293,9.2324 -0.5231,4.2671 -1.0702,9.6444 -1.5664,15.5117 -0.9923,11.7347 -1.7827,25.3891 -1.7187,35.9531 0.032,5.282 0.2445,9.7268 0.8828,13.1524 0.3192,1.7128 0.5821,3.1487 1.7481,4.8379 0.5829,0.8446 1.5818,1.9025 3.2011,2.3515 1.6194,0.4491 3.3782,-0.042 4.4082,-0.6816 2.0601,-1.2791 2.7469,-2.7153 3.6973,-4.5332 0.9504,-1.8179 1.8956,-4.1014 2.9473,-7.0488 1.6563,-4.6419 3.6425,-11.5103 5.8476,-19.8047 0.3948,0.4715 0.5824,0.6191 1.002,1.1387 3.5806,4.4338 7.9604,10.3448 11.7246,14.3828 1.8821,2.019 2.9787,3.752 6.2929,4.6836 0.8286,0.2328 1.9677,0.3788 3.2286,-0.012 1.2608,-0.3905 2.3968,-1.381 2.9824,-2.3242 1.1711,-1.8864 1.0644,-3.3057 0.9941,-4.8027 -0.281,-5.9879 -3.3135,-15.6997 -10.6054,-35.3125 a 4.5053805,4.5053805 0 0 0 0,-0.012 c -5.0715,-13.524 -6.1818,-23.8909 -5.2735,-29.4414 0.4541,-2.7753 1.4075,-4.1268 1.7793,-4.4278 0.3718,-0.3009 0.2416,-0.4378 1.5274,0.1035 2.5714,1.0828 8.4849,7.0665 13.8828,19.1817 5.3978,12.1152 10.7058,30.1382 14.4101,54.834 a 4.5053805,4.5053805 0 0 0 0.024,0.1386 c 0.2626,1.4445 0.5039,2.5941 0.7597,3.5645 0.2558,0.9704 0.3584,1.6492 1.1348,2.8535 0.3882,0.6021 1.0359,1.745 3.0879,2.1856 2.052,0.4405 4.0674,-0.921 4.6953,-1.709 1.2558,-1.5762 1.0989,-2.1625 1.2754,-2.9512 0.706,-3.1548 0.9689,-7.8201 1.4648,-13.2129 0.493,-5.3607 1.1422,-11.1502 2.002,-14.7207 5.8967,4.9994 10.7306,8.6192 14.5215,10.5156 2.2299,1.1156 4.209,1.8591 6.5293,1.8321 2.3202,-0.027 5.1437,-1.6169 6.2363,-3.752 2.1852,-4.2703 0.8231,-7.9036 -0.6504,-12.418 -1.4735,-4.5143 -3.8318,-9.7649 -6.7441,-15.4296 -5.8248,-11.3294 -13.8691,-24.2268 -21.4414,-34.6368 -2.0301,-2.7907 -4.0071,-5.3525 -5.9258,-7.7109 2.6691,0.7855 5.1224,1.4742 8.0136,2.3574 10.3529,3.1625 21.8031,6.4853 31.9415,6.5547 5.0691,0.035 9.9443,-0.7397 14.0898,-3.2754 4.1455,-2.5357 7.1904,-6.9733 8.2715,-12.5781 2.1599,-11.1974 -1.8414,-27.0819 -13.7266,-52.1328 v -0.01 c -2.7164,-6.0005 -6.7798,-10.3107 -11.7051,-12.6036 -3.6956,-1.7204 -7.7152,-2.2966 -11.8222,-2.08 z m 3.2461,9.0293 c 1.7688,0.1511 3.3582,0.559 4.7754,1.2187 2.8342,1.3194 5.2691,3.663 7.3027,8.1582 a 4.5053805,4.5053805 0 0 0 0.033,0.074 c 11.5847,24.4019 14.453,39.3776 13.0527,46.6368 -0.7001,3.6296 -2.0459,5.3247 -4.1269,6.5976 -2.0811,1.2729 -5.2684,1.9829 -9.3243,1.9551 -8.1116,-0.056 -19.1614,-3.0453 -29.371,-6.1641 -10.2097,-3.1187 -19.1225,-6.4629 -26.1602,-6.4629 a 4.5053805,4.5053805 0 0 0 -0.9434,8.9102 c -0.7174,-0.1537 2.2152,1.3726 5.0918,4.4277 2.8767,3.0552 6.3702,7.3984 10.0059,12.3965 7.2714,9.9963 15.1646,22.6614 20.7148,33.457 2.7752,5.3978 4.9638,10.3503 6.1895,14.1055 0.4826,1.4785 0.5808,2.5645 0.6914,3.5586 -0.1245,-0.057 -0.076,-0.01 -0.209,-0.076 -3.0597,-1.5306 -8.3301,-5.278 -15.5625,-11.6523 a 4.5053805,4.5053805 0 0 0 -0.012,-0.012 c -1.0626,-0.9298 -2.749,-1.8472 -4.7207,-1.6856 -1.9718,0.1617 -3.4534,1.3389 -4.2871,2.3516 -1.6674,2.0254 -2.1447,4.0051 -2.711,6.332 -0.2802,1.1518 -0.4485,2.5465 -0.6699,3.8321 -3.268,-14.9851 -7.1216,-27.091 -11.2129,-36.2735 -5.8521,-13.1348 -11.6886,-20.9011 -18.6172,-23.8183 -3.4642,-1.4587 -7.7819,-1.1581 -10.6914,1.1972 -2.9094,2.3553 -4.331,5.8788 -5.0019,9.9785 -1.3414,8.1972 0.2979,19.5768 5.7226,34.0469 10e-4,0 0,0 0,0.01 8e-4,0 0,0 0,0.01 3.82,10.2754 6.2433,17.7164 7.8223,23.1641 -2.3675,-2.9308 -4.6638,-5.711 -6.9902,-8.5918 -1.8816,-2.33 -3.5455,-4.3292 -5.211,-5.8496 -0.8327,-0.7602 -1.4789,-1.503 -3.2753,-2.0547 -0.8983,-0.2758 -2.438,-0.4545 -3.9317,0.334 -1.4937,0.7884 -2.2552,2.2251 -2.5273,3.1777 a 4.5053805,4.5053805 0 0 0 -0.035,0.1348 c -2.6289,10.4061 -4.7741,17.7158 -6.5859,23.1074 -0.031,-1.0579 -0.161,-1.4998 -0.168,-2.6562 -0.061,-10.061 0.7111,-23.5941 1.6875,-35.1407 0.4882,-5.7733 1.0271,-11.0601 1.5313,-15.1718 0.5041,-4.1118 1.1139,-7.3975 1.2168,-7.7403 2.2807,-7.4773 3.4848,-12.1909 3.7089,-15.7851 0.1122,-1.7991 0.3757,-3.622 -1.4961,-5.8184 -0.9359,-1.0982 -2.6166,-1.853 -3.9238,-1.9121 -1.3072,-0.059 -2.2377,0.2728 -3.0058,0.6094 -3.0726,1.3462 -5.0247,3.4958 -7.8907,6.2558 -2.8659,2.7601 -6.1711,6.1034 -9.7636,9.4219 -7.1852,6.6371 -15.6641,12.9513 -22.4825,14.3125 -3.4091,0.6806 -6.2486,0.3647 -9.205,-1.4375 -2.9565,-1.8022 -6.1685,-5.3731 -9.17,-11.8379 a 4.5053805,4.5053805 0 0 0 -0.023,-0.049 c -8.2897,-17.3109 -9.6216,-28.0356 -7.959,-33.2481 0.8313,-2.6062 2.1521,-4.0873 4.3418,-5.3144 2.1897,-1.2271 5.3745,-2.0191 9.3125,-2.2442 15.752,-0.9001 41.7701,7.548 59.334,11.1641 a 4.5053805,4.5053805 0 0 0 0.168,0.031 c 3.1823,0.5303 3.7976,-0.609 4.955,-1.3008 1.1575,-0.6918 2.3641,-1.5618 3.7637,-2.6328 2.7993,-2.1421 6.3042,-5.0732 10.3867,-8.4688 8.1651,-6.7912 18.5973,-15.4183 29.293,-22.6914 10.6957,-7.273 21.7451,-13.0884 30.3027,-14.5488 2.1394,-0.3651 4.0886,-0.4715 5.8575,-0.3203 z m -23.7969,123.8984 c 0.01,0.01 0.012,0.01 0.02,0.016 -5e-4,-4e-4 -0.01,0 -0.01,0 z"
             id="path2205" />
        </g>
        <g
           id="g2195"
           style="opacity:1">
          <path
             style="color:#000000;font-style:normal;font-variant:normal;font-weight:normal;font-stretch:normal;font-size:medium;line-height:normal;font-family:sans-serif;font-variant-ligatures:normal;font-variant-position:normal;font-variant-caps:normal;font-variant-numeric:normal;font-variant-alternates:normal;font-variant-east-asian:normal;font-feature-settings:normal;font-variation-settings:normal;text-indent:0;text-align:start;text-decoration:none;text-decoration-line:none;text-decoration-style:solid;text-decoration-color:#000000;letter-spacing:normal;word-spacing:normal;text-transform:none;writing-mode:lr-tb;direction:ltr;text-orientation:mixed;dominant-baseline:auto;baseline-shift:baseline;text-anchor:start;white-space:normal;shape-padding:0;shape-margin:0;inline-size:0;clip-rule:nonzero;display:inline;overflow:visible;visibility:visible;isolation:auto;mix-blend-mode:normal;color-interpolation:sRGB;color-interpolation-filters:linearRGB;solid-color:#000000;solid-opacity:1;vector-effect:none;fill:#008dd2;fill-opacity:1;fill-rule:nonzero;stroke:none;stroke-width:9.00986;stroke-linecap:round;stroke-linejoin:round;stroke-miterlimit:4;stroke-dasharray:none;stroke-dashoffset:0;stroke-opacity:1;color-rendering:auto;image-rendering:auto;shape-rendering:auto;text-rendering:auto;enable-background:accumulate;stop-color:#000000;stop-opacity:1"
             d="m 3067,2234 c -38,-26 -70,99 34,47 12,-6 6,-73 -34,-47 z"
             id="path2197" />
          <path
             style="color:#000000;font-style:normal;font-variant:normal;font-weight:normal;font-stretch:normal;font-size:medium;line-height:normal;font-family:sans-serif;font-variant-ligatures:normal;font-variant-position:normal;font-variant-caps:normal;font-variant-numeric:normal;font-variant-alternates:normal;font-variant-east-asian:normal;font-feature-settings:normal;font-variation-settings:normal;text-indent:0;text-align:start;text-decoration:none;text-decoration-line:none;text-decoration-style:solid;text-decoration-color:#000000;letter-spacing:normal;word-spacing:normal;text-transform:none;writing-mode:lr-tb;direction:ltr;text-orientation:mixed;dominant-baseline:auto;baseline-shift:baseline;text-anchor:start;white-space:normal;shape-padding:0;shape-margin:0;inline-size:0;clip-rule:nonzero;display:inline;overflow:visible;visibility:visible;isolation:auto;mix-blend-mode:normal;color-interpolation:sRGB;color-interpolation-filters:linearRGB;solid-color:#000000;solid-opacity:1;vector-effect:none;fill:#2b2a29;fill-opacity:1;fill-rule:nonzero;stroke:none;stroke-width:9.00986;stroke-linecap:round;stroke-linejoin:round;stroke-miterlimit:4;stroke-dasharray:none;stroke-dashoffset:0;stroke-opacity:1;color-rendering:auto;image-rendering:auto;shape-rendering:auto;text-rendering:auto;enable-background:accumulate;stop-color:#000000;stop-opacity:1"
             d="m 3086.6367,2223.7363 c -5.7836,-0.6965 -12.4614,1.0635 -19.5801,5.1504 -4.8545,-2.6197 -9.9366,-3.5234 -14.6211,-2.623 -5.4873,1.0546 -10.2396,4.213 -14.0839,8.3613 -7.6887,8.2966 -12.2449,20.6856 -12.1055,32.6777 0.1394,11.9922 5.7826,24.1898 18.6875,28.8692 12.9049,4.6794 31.519,2.1389 58.082,-11.1426 3.067,-1.5335 4.6835,-4.2812 5.8145,-7.2207 1.1309,-2.9396 1.7627,-6.3185 2.0371,-10.0059 0.5488,-7.3747 -0.3717,-15.9701 -3.1172,-23.7949 -2.7455,-7.8247 -7.4058,-15.1319 -15.0156,-18.5801 -1.9025,-0.862 -3.9407,-1.4316 -6.0977,-1.6914 z m -1.2344,8.8633 c 1.3197,0.1729 2.5158,0.5378 3.6133,1.0352 4.3902,1.9893 7.9799,6.9321 10.2344,13.3574 2.2545,6.4252 3.084,14.0798 2.6328,20.1426 -0.2256,3.0314 -0.7813,5.668 -1.4629,7.4394 -0.6815,1.7714 -1.5025,2.43 -1.4355,2.3965 -25.437,12.7185 -41.8229,14.053 -50.9805,10.7324 -9.1576,-3.3206 -12.6394,-10.998 -12.75,-20.5058 -0.1106,-9.5079 3.9582,-20.2439 9.707,-26.4473 2.8745,-3.1017 6.044,-5.0371 9.1739,-5.6387 3.1299,-0.6015 6.388,-0.084 10.3222,2.6075 a 4.5053805,4.5053805 0 0 0 4.9981,0.059 c 6.9117,-4.4926 11.9884,-5.6963 15.9472,-5.1777 z"
             id="path2199" />
        </g>
      </g>
    </g>
  </g>
</svg>
