<?xml version="1.0" encoding="UTF-8" standalone="no"?>
<svg
   xmlns:dc="http://purl.org/dc/elements/1.1/"
   xmlns:cc="http://creativecommons.org/ns#"
   xmlns:rdf="http://www.w3.org/1999/02/22-rdf-syntax-ns#"
   xmlns:svg="http://www.w3.org/2000/svg"
   xmlns="http://www.w3.org/2000/svg"
   xmlns:sodipodi="http://sodipodi.sourceforge.net/DTD/sodipodi-0.dtd"
   xmlns:inkscape="http://www.inkscape.org/namespaces/inkscape"
   sodipodi:docname="2020-IS-02-taskbody_teddy4-inline.svg"
   inkscape:version="1.0 (4035a4fb49, 2020-05-01)"
   id="svg1338"
   version="1.1"
   viewBox="0 0 11.843979 13.668242"
   height="1.3668242cm"
   width="1.1843979cm">
  <defs
     id="defs1332" />
  <sodipodi:namedview
     fit-margin-bottom="0"
     fit-margin-right="0"
     fit-margin-left="0"
     fit-margin-top="0"
     units="cm"
     showgrid="false"
     inkscape:document-rotation="0"
     inkscape:current-layer="_1052274192-3"
     inkscape:document-units="mm"
     inkscape:cy="560"
     inkscape:cx="400"
     inkscape:zoom="0.35"
     inkscape:pageshadow="2"
     inkscape:pageopacity="0.0"
     borderopacity="1.0"
     bordercolor="#666666"
     pagecolor="#ffffff"
     id="base" />
  <metadata
     id="metadata1335">
    <rdf:RDF>
      <cc:Work
         rdf:about="">
        <dc:format>image/svg+xml</dc:format>
        <dc:type
           rdf:resource="http://purl.org/dc/dcmitype/StillImage" />
        <dc:title></dc:title>
      </cc:Work>
    </rdf:RDF>
  </metadata>
  <g
     transform="translate(-3.4420284,-6.4760939)"
     id="layer1"
     inkscape:groupmode="layer"
     inkscape:label="Ebene 1">
    <g
       id="_1052274192-3"
       style="clip-rule:evenodd;fill-rule:evenodd;image-rendering:optimizeQuality;shape-rendering:geometricPrecision;text-rendering:geometricPrecision"
       transform="matrix(0.02774247,0,0,0.02774247,-33.148357,-27.336013)">
      <g
         transform="translate(-1587.4023,771.28981)"
         id="g1573"
         style="clip-rule:evenodd;opacity:1;fill-rule:evenodd;image-rendering:optimizeQuality;shape-rendering:geometricPrecision;text-rendering:geometricPrecision">
        <path
           style="color:#000000;font-style:normal;font-variant:normal;font-weight:normal;font-stretch:normal;font-size:medium;line-height:normal;font-family:sans-serif;font-variant-ligatures:normal;font-variant-position:normal;font-variant-caps:normal;font-variant-numeric:normal;font-variant-alternates:normal;font-variant-east-asian:normal;font-feature-settings:normal;font-variation-settings:normal;text-indent:0;text-align:start;text-decoration:none;text-decoration-line:none;text-decoration-style:solid;text-decoration-color:#000000;letter-spacing:normal;word-spacing:normal;text-transform:none;writing-mode:lr-tb;direction:ltr;text-orientation:mixed;dominant-baseline:auto;baseline-shift:baseline;text-anchor:start;white-space:normal;shape-padding:0;shape-margin:0;inline-size:0;clip-rule:nonzero;display:inline;overflow:visible;visibility:visible;isolation:auto;mix-blend-mode:normal;color-interpolation:sRGB;color-interpolation-filters:linearRGB;solid-color:#000000;solid-opacity:1;vector-effect:none;fill:#ef7f1a;fill-opacity:1;fill-rule:nonzero;stroke:none;stroke-width:18.0197;stroke-linecap:round;stroke-linejoin:round;stroke-miterlimit:4;stroke-dasharray:none;stroke-dashoffset:0;stroke-opacity:1;color-rendering:auto;image-rendering:auto;shape-rendering:auto;text-rendering:auto;enable-background:accumulate;stop-color:#000000;stop-opacity:1"
           d="m 3262,588 c 7,4 -20,56 -9,58 96,20 94,158 0,116 -4,-2 -6,-14 -11,-14 1,23 -10,57 -22,92 -11,32 -23,66 -42,78 -69,43 -74,-30 -74,-67 0,14 -15,68 -37,70 -99,8 -71,-114 -72,-160 1,21 -65,31 -76,-4 -20,-65 46,-75 81,-125 8,-12 0,-48 1,-51 -47,-5 -50,-167 68,-109 2,1 4,5 7,8 h 83 c 78,-81 173,70 103,108 z"
           id="path1575" />
        <path
           style="color:#000000;font-style:normal;font-variant:normal;font-weight:normal;font-stretch:normal;font-size:medium;line-height:normal;font-family:sans-serif;font-variant-ligatures:normal;font-variant-position:normal;font-variant-caps:normal;font-variant-numeric:normal;font-variant-alternates:normal;font-variant-east-asian:normal;font-feature-settings:normal;font-variation-settings:normal;text-indent:0;text-align:start;text-decoration:none;text-decoration-line:none;text-decoration-style:solid;text-decoration-color:#000000;letter-spacing:normal;word-spacing:normal;text-transform:none;writing-mode:lr-tb;direction:ltr;text-orientation:mixed;dominant-baseline:auto;baseline-shift:baseline;text-anchor:start;white-space:normal;shape-padding:0;shape-margin:0;inline-size:0;clip-rule:nonzero;display:inline;overflow:visible;visibility:visible;isolation:auto;mix-blend-mode:normal;color-interpolation:sRGB;color-interpolation-filters:linearRGB;solid-color:#000000;solid-opacity:1;vector-effect:none;fill:#2b2a29;fill-opacity:1;fill-rule:nonzero;stroke:none;stroke-width:18.0197;stroke-linecap:round;stroke-linejoin:round;stroke-miterlimit:4;stroke-dasharray:none;stroke-dashoffset:0;stroke-opacity:1;color-rendering:auto;image-rendering:auto;shape-rendering:auto;text-rendering:auto;enable-background:accumulate;stop-color:#000000;stop-opacity:1"
           d="m 3211.2031,447.56445 c -18.4052,-0.8661 -38.0239,6.36254 -55.7461,23.42578 h -75.205 c -0.3328,-0.43613 -0.5502,-0.65345 -0.92,-1.14648 -1.2211,-1.62814 -2.0792,-3.79061 -6.3027,-5.90234 a 9.0107505,9.0107505 0 0 0 -0.055,-0.0274 c -30.9766,-15.22577 -56.0281,-16.78712 -74.7305,-8.25195 -18.7023,8.53517 -29.3781,26.33844 -33.8808,45.11133 -4.5027,18.77289 -3.3522,39.0209 2.3008,55.80468 4.742,14.07937 13.2322,26.66129 25.7617,31.44141 0.066,0.56429 0.1035,1.00492 0.1777,1.61524 0.4897,4.02774 1.1248,9.03946 1.541,14.21289 0.8303,10.31935 -0.7075,21.68889 -1.6328,23.125 -16.1361,22.96743 -40.3267,37.44585 -59.7305,55.26562 -9.7222,8.92861 -18.3303,18.963 -22.9589,31.7793 -4.6287,12.8163 -4.8623,27.98947 0.5664,45.63281 a 9.0107505,9.0107505 0 0 0 0.016,0.0508 c 3.5595,11.32562 11.9488,19.31088 21.3945,23.78516 9.4457,4.47428 20.0151,5.94099 30.0821,5.51562 8.31,-0.35112 16.2265,-2.03675 23.164,-4.95703 -1.5165,22.39452 -3.8802,51.78506 0.3028,78.59375 2.9205,18.71826 9.1727,36.67366 22.4863,49.65625 13.3136,12.98259 33.344,19.83089 59.8926,17.68555 a 9.0107505,9.0107505 0 0 0 0.09,-0.008 c 9.0487,-0.82261 15.9172,-6.52719 21.25,-13.11914 4.2202,-5.21668 7.5773,-11.41913 10.5742,-17.83594 1.7876,6.99551 4.1856,13.79418 7.6367,19.91015 5.8503,10.36748 15.6312,19.08897 28.8438,20.875 13.2126,1.78604 28.3819,-2.77521 46.6445,-14.15625 a 9.0107505,9.0107505 0 0 0 0.045,-0.0293 c 12.0242,-7.59421 20.2213,-20.51354 27.3047,-35.20508 7.0835,-14.69154 12.8958,-31.45762 18.4043,-47.48242 a 9.0107505,9.0107505 0 0 0 0,-0.008 c 8.8132,-25.70499 17.3349,-50.77198 20.8438,-72.67774 25.1695,11.23474 46.4499,11.12496 61.5195,1.83008 15.0784,-9.3003 22.2303,-26.62679 22.3731,-44.75391 0.2764,-35.11078 -24.7799,-76.49615 -73.6465,-88.92969 0.021,-0.15188 0,-0.0846 0.023,-0.24414 0.6931,-4.13368 2.7015,-10.79716 4.9258,-17.59375 2.2243,-6.79659 4.6419,-13.78608 6.1758,-19.88671 0.735,-2.92342 1.2839,-5.59666 1.4004,-8.50391 16.2718,-11.61654 23.5618,-30.02886 23.2754,-48.59766 -0.3191,-20.68528 -8.8187,-42.08518 -22.2559,-59.66211 -13.4372,-17.57693 -32.0712,-31.53829 -53.7285,-35.41211 -2.7072,-0.48422 -5.4521,-0.79522 -8.2266,-0.92578 z m -0.959,17.94532 c 2.0211,0.11889 4.0256,0.36313 6.0137,0.71875 15.9052,2.84493 31.2712,13.82107 42.584,28.61914 11.3128,14.79807 18.3132,33.21067 18.5566,48.99414 0.2435,15.78347 -5.1471,28.34156 -19.6972,36.24023 a 9.0107505,9.0107505 0 0 0 -3.6895,12.08399 c -0.089,0.8396 -0.2454,2.09857 -0.75,4.10546 -1.2161,4.83687 -3.5485,11.72238 -5.8242,18.67579 -2.2757,6.95341 -4.5173,13.91493 -5.5742,20.21875 -0.5285,3.15191 -0.9102,6.10033 -0.1778,9.71875 0.3662,1.8092 1.0782,3.92208 2.7481,5.93359 1.6699,2.01151 4.4178,3.58556 6.9551,4.04687 l -0.2266,-0.0449 c 43.9371,9.15357 64.2927,45.1136 64.0781,72.35938 -0.1072,13.62288 -5.0803,24.17139 -13.8144,29.55859 -8.547,5.27176 -22.3823,6.64688 -43.4082,-2.42578 -0.4866,-0.83769 -1.2069,-2.33753 -2.084,-4.0918 -0.8952,-1.7903 -1.8877,-3.82835 -3.7148,-6.04492 -1.8272,-2.21656 -5.3649,-5.18555 -10.2188,-5.18555 a 9.0107505,9.0107505 0 0 0 -9.002,9.40039 c 0.8588,19.75046 -9.5542,53.78296 -21.5214,88.6875 -5.4906,15.97254 -11.1764,32.2036 -17.5918,45.50977 -6.4114,13.29761 -13.7071,23.3698 -20.6778,27.78125 -16.2214,10.10338 -27.545,12.5415 -34.6718,11.57813 -7.1312,-0.96397 -11.5378,-4.74248 -15.5625,-11.875 -8.0496,-14.26506 -9.9629,-40.97812 -9.9629,-59.07227 a 9.0107505,9.0107505 0 0 0 -0.043,-0.75586 9.0107505,9.0107505 0 0 0 -0.027,-0.25 9.0107505,9.0107505 0 0 0 -0.078,-0.5 9.0107505,9.0107505 0 0 0 -0.049,-0.24805 9.0107505,9.0107505 0 0 0 -0.057,-0.24609 9.0107505,9.0107505 0 0 0 -0.1329,-0.48633 9.0107505,9.0107505 0 0 0 -0.076,-0.24023 9.0107505,9.0107505 0 0 0 -0.1739,-0.47461 9.0107505,9.0107505 0 0 0 -0.1992,-0.46289 9.0107505,9.0107505 0 0 0 -0.1093,-0.22852 9.0107505,9.0107505 0 0 0 -0.2383,-0.44531 9.0107505,9.0107505 0 0 0 -0.2617,-0.42969 9.0107505,9.0107505 0 0 0 -0.1407,-0.21094 9.0107505,9.0107505 0 0 0 -0.2968,-0.4082 9.0107505,9.0107505 0 0 0 -0.1563,-0.19726 9.0107505,9.0107505 0 0 0 -0.5059,-0.56446 9.0107505,9.0107505 0 0 0 -0.1777,-0.17773 9.0107505,9.0107505 0 0 0 -0.1836,-0.17383 9.0107505,9.0107505 0 0 0 -0.3808,-0.33203 9.0107505,9.0107505 0 0 0 -0.1973,-0.1582 9.0107505,9.0107505 0 0 0 -0.6152,-0.4375 9.0107505,9.0107505 0 0 0 -0.2149,-0.13477 9.0107505,9.0107505 0 0 0 -0.2168,-0.12891 9.0107505,9.0107505 0 0 0 -0.4453,-0.23828 9.0107505,9.0107505 0 0 0 -0.457,-0.21289 9.0107505,9.0107505 0 0 0 -0.2324,-0.0977 9.0107505,9.0107505 0 0 0 -0.2364,-0.0898 9.0107505,9.0107505 0 0 0 -0.4785,-0.16211 9.0107505,9.0107505 0 0 0 -0.2422,-0.0703 9.0107505,9.0107505 0 0 0 -0.2441,-0.0625 9.0107505,9.0107505 0 0 0 -0.4942,-0.10547 9.0107505,9.0107505 0 0 0 -0.248,-0.043 9.0107505,9.0107505 0 0 0 -0.502,-0.0644 9.0107505,9.0107505 0 0 0 -0.5019,-0.0371 9.0107505,9.0107505 0 0 0 -0.5059,-0.008 9.0107505,9.0107505 0 0 0 -0.2519,0.006 9.0107505,9.0107505 0 0 0 -0.5039,0.0351 9.0107505,9.0107505 0 0 0 -0.25,0.0274 9.0107505,9.0107505 0 0 0 -0.25,0.0351 9.0107505,9.0107505 0 0 0 -0.25,0.041 9.0107505,9.0107505 0 0 0 -0.2461,0.0488 9.0107505,9.0107505 0 0 0 -0.2481,0.0566 9.0107505,9.0107505 0 0 0 -0.2441,0.0625 9.0107505,9.0107505 0 0 0 -0.2422,0.0684 9.0107505,9.0107505 0 0 0 -0.2402,0.0762 9.0107505,9.0107505 0 0 0 -0.2383,0.084 9.0107505,9.0107505 0 0 0 -0.2363,0.0879 9.0107505,9.0107505 0 0 0 -0.2344,0.0977 9.0107505,9.0107505 0 0 0 -0.2305,0.10156 9.0107505,9.0107505 0 0 0 -0.2266,0.10938 9.0107505,9.0107505 0 0 0 -0.2246,0.11523 9.0107505,9.0107505 0 0 0 -0.8632,0.52149 9.0107505,9.0107505 0 0 0 -0.2071,0.14648 9.0107505,9.0107505 0 0 0 -0.2011,0.15039 9.0107505,9.0107505 0 0 0 -0.1993,0.1582 9.0107505,9.0107505 0 0 0 -0.3808,0.33008 9.0107505,9.0107505 0 0 0 -0.3633,0.34961 9.0107505,9.0107505 0 0 0 -0.1738,0.1836 9.0107505,9.0107505 0 0 0 -0.4903,0.57617 9.0107505,9.0107505 0 0 0 -0.1523,0.20117 9.0107505,9.0107505 0 0 0 -0.1465,0.20508 9.0107505,9.0107505 0 0 0 -0.1406,0.21093 9.0107505,9.0107505 0 0 0 -0.5039,0.87305 9.0107505,9.0107505 0 0 0 -0.1114,0.22852 9.0107505,9.0107505 0 0 0 -0.375,0.93554 9.0107505,9.0107505 0 0 0 -0.078,0.24024 9.0107505,9.0107505 0 0 0 -0.1347,0.48633 9.0107505,9.0107505 0 0 0 -0.1504,0.74218 9.0107505,9.0107505 0 0 0 -0.037,0.25 9.0107505,9.0107505 0 0 0 -0.074,1.04102 c 0,3.7822 -3.4795,21.54259 -9.5488,36.01562 -3.0347,7.23652 -6.7156,13.97282 -10.3828,18.50586 -3.6578,4.52143 -6.9045,6.31674 -8.8574,6.50196 -22.9055,1.8366 -36.4841,-3.56099 -45.7852,-12.63086 -9.3114,-9.07991 -14.6842,-22.99951 -17.2637,-39.53125 -5.1588,-33.06348 1.399,-74.05682 0.8555,-99.05664 h -0.019 c 0,-0.0798 0.015,-0.15224 0.012,-0.23242 a 9.0107505,9.0107505 0 0 0 -18.0078,0.62304 c 0,0.0722 -0.011,0.19482 -0.01,0.26758 0.011,0.53408 -0.5997,2.30784 -5.1562,4.75781 -4.6051,2.47607 -12.024,4.45271 -19.7071,4.77735 -7.683,0.32463 -15.6136,-0.95866 -21.6054,-3.79688 -5.9856,-2.83526 -9.9674,-6.7216 -11.9102,-12.88476 -4.5595,-14.83774 -4.0446,-25.28241 -0.832,-34.17774 3.2151,-8.90245 9.5445,-16.68056 18.1973,-24.62695 17.3054,-15.89279 43.5481,-31.39721 62.4121,-58.3457 a 9.0107505,9.0107505 0 0 0 0.1152,-0.16797 c 7.0755,-10.61332 5.5269,-23.19256 4.6094,-34.59571 -0.4588,-5.70157 -1.1362,-11.00235 -1.6153,-14.94336 -0.2395,-1.9705 -0.4284,-3.61512 -0.5136,-4.64257 -0.031,-0.37459 -0.033,-0.52131 -0.039,-0.66797 a 9.0107505,9.0107505 0 0 0 -7.9844,-10.10742 c -6.6708,-0.70966 -13.7701,-8.02793 -18.2109,-21.2129 -4.4408,-13.18496 -5.4778,-30.74945 -1.8555,-45.85156 3.6223,-15.10211 11.384,-27.23634 23.8379,-32.91992 12.273,-5.60099 30.7756,-5.67759 58.1289,7.50195 0.1951,0.16346 0.6056,0.48579 1.0645,1.09766 1.0289,1.37186 2.503,3.50696 4.7109,5.71484 a 9.0107505,9.0107505 0 0 0 6.3711,2.63868 h 83 a 9.0107505,9.0107505 0 0 0 6.4902,-2.75977 c 15.659,-16.26123 30.6066,-21.57247 44.7539,-20.74023 z"
           id="path1577" />
      </g>
      <path
         style="color:#000000;font-style:normal;font-variant:normal;font-weight:normal;font-stretch:normal;font-size:medium;line-height:normal;font-family:sans-serif;font-variant-ligatures:normal;font-variant-position:normal;font-variant-caps:normal;font-variant-numeric:normal;font-variant-alternates:normal;font-variant-east-asian:normal;font-feature-settings:normal;font-variation-settings:normal;text-indent:0;text-align:start;text-decoration:none;text-decoration-line:none;text-decoration-style:solid;text-decoration-color:#000000;letter-spacing:normal;word-spacing:normal;text-transform:none;writing-mode:lr-tb;direction:ltr;text-orientation:mixed;dominant-baseline:auto;baseline-shift:baseline;text-anchor:start;white-space:normal;shape-padding:0;shape-margin:0;inline-size:0;clip-rule:nonzero;display:inline;overflow:visible;visibility:visible;opacity:1;isolation:auto;mix-blend-mode:normal;color-interpolation:sRGB;color-interpolation-filters:linearRGB;solid-color:#000000;solid-opacity:1;vector-effect:none;fill:#2b2a29;fill-opacity:1;fill-rule:nonzero;stroke:none;stroke-width:9.00986;stroke-linecap:round;stroke-linejoin:round;stroke-miterlimit:4;stroke-dasharray:none;stroke-dashoffset:0;stroke-opacity:1;color-rendering:auto;image-rendering:auto;shape-rendering:auto;text-rendering:auto;enable-background:accumulate;stop-color:#000000;stop-opacity:1"
         d="m 1657.6365,1401.7859 a 4.5049296,4.5049296 0 0 0 -4.1797,2.7285 c -20.1084,46.9195 -72.2194,70.2695 -123.8594,70.2695 -49.4689,0 -91.7087,-25.2872 -106.8477,-61.2422 a 4.5049296,4.5049296 0 0 0 -5.9003,-2.4042 4.5049296,4.5049296 0 0 0 -2.4043,5.9003 c 16.861,40.045 62.6212,66.7579 115.1523,66.7579 54.36,0 110.249,-24.65 132.1406,-75.7305 a 4.5049296,4.5049296 0 0 0 -2.3652,-5.916 4.5049296,4.5049296 0 0 0 -1.7363,-0.3633 z"
         id="path1595" />
      <path
         style="color:#000000;font-style:normal;font-variant:normal;font-weight:normal;font-stretch:normal;font-size:medium;line-height:normal;font-family:sans-serif;font-variant-ligatures:normal;font-variant-position:normal;font-variant-caps:normal;font-variant-numeric:normal;font-variant-alternates:normal;font-variant-east-asian:normal;font-feature-settings:normal;font-variation-settings:normal;text-indent:0;text-align:start;text-decoration:none;text-decoration-line:none;text-decoration-style:solid;text-decoration-color:#000000;letter-spacing:normal;word-spacing:normal;text-transform:none;writing-mode:lr-tb;direction:ltr;text-orientation:mixed;dominant-baseline:auto;baseline-shift:baseline;text-anchor:start;white-space:normal;shape-padding:0;shape-margin:0;inline-size:0;clip-rule:nonzero;display:inline;overflow:visible;visibility:visible;opacity:1;isolation:auto;mix-blend-mode:normal;color-interpolation:sRGB;color-interpolation-filters:linearRGB;solid-color:#000000;solid-opacity:1;vector-effect:none;fill:#2b2a29;fill-opacity:1;fill-rule:nonzero;stroke:none;stroke-width:9.00986;stroke-linecap:round;stroke-linejoin:round;stroke-miterlimit:4;stroke-dasharray:none;stroke-dashoffset:0;stroke-opacity:1;color-rendering:auto;image-rendering:auto;shape-rendering:auto;text-rendering:auto;enable-background:accumulate;stop-color:#000000;stop-opacity:1"
         d="m 1629.9704,1267.657 c -3.4991,0.2578 -6.9918,2.2988 -9.1523,5.5215 -2.1605,3.2227 -3.3005,7.404 -3.7129,12.7656 a 4.5049296,4.5049296 0 0 0 4.1465,4.8379 4.5049296,4.5049296 0 0 0 4.8379,-4.1465 c 0.3376,-4.3884 1.3226,-7.1133 2.2129,-8.4414 0.8903,-1.3281 1.3741,-1.4824 2.3281,-1.5527 1.908,-0.1406 6.6661,2.1513 10.709,6.748 4.0428,4.5967 7.3913,10.9992 8.293,16.6836 0.7621,4.8046 -0.01,8.6994 -3,11.8887 a 4.5049296,4.5049296 0 0 0 -4.459,-0.9453 4.5049296,4.5049296 0 0 0 -2.8496,5.6972 c 0.7849,2.3548 2.3901,4.5298 4.8496,5.3496 2.4513,0.8172 5.0264,-0.024 6.5898,-1.5761 6.9922,-5.5634 8.9935,-14.0957 7.7676,-21.8242 -1.2546,-7.9094 -5.3436,-15.4444 -10.4258,-21.2227 -5.0821,-5.7783 -11.1365,-10.2989 -18.1348,-9.7832 z"
         id="path1581" />
      <path
         style="color:#000000;font-style:normal;font-variant:normal;font-weight:normal;font-stretch:normal;font-size:medium;line-height:normal;font-family:sans-serif;font-variant-ligatures:normal;font-variant-position:normal;font-variant-caps:normal;font-variant-numeric:normal;font-variant-alternates:normal;font-variant-east-asian:normal;font-feature-settings:normal;font-variation-settings:normal;text-indent:0;text-align:start;text-decoration:none;text-decoration-line:none;text-decoration-style:solid;text-decoration-color:#000000;letter-spacing:normal;word-spacing:normal;text-transform:none;writing-mode:lr-tb;direction:ltr;text-orientation:mixed;dominant-baseline:auto;baseline-shift:baseline;text-anchor:start;white-space:normal;shape-padding:0;shape-margin:0;inline-size:0;clip-rule:nonzero;display:inline;overflow:visible;visibility:visible;opacity:1;isolation:auto;mix-blend-mode:normal;color-interpolation:sRGB;color-interpolation-filters:linearRGB;solid-color:#000000;solid-opacity:1;vector-effect:none;fill:#2b2a29;fill-opacity:1;fill-rule:nonzero;stroke:none;stroke-width:9.00986;stroke-linecap:round;stroke-linejoin:round;stroke-miterlimit:4;stroke-dasharray:none;stroke-dashoffset:0;stroke-opacity:1;color-rendering:auto;image-rendering:auto;shape-rendering:auto;text-rendering:auto;enable-background:accumulate;stop-color:#000000;stop-opacity:1"
         d="m 1431.5544,1270.6687 c -4.8836,-0.5299 -9.4027,0.2844 -13.2812,2.2383 -7.7571,3.9077 -12.5641,11.7117 -14.2207,20.1387 -1.6566,8.4269 -0.2258,17.7846 5.2832,25.2226 5.5089,7.438 15.1511,12.5274 28.2617,12.5274 a 4.5049296,4.5049296 0 0 0 4.5059,-4.5059 4.5049296,4.5049296 0 0 0 -4.5059,-4.5059 c -10.8894,0 -17.2472,-3.7856 -21.0195,-8.8789 -3.7723,-5.0932 -4.904,-11.923 -3.6856,-18.1211 1.2184,-6.198 4.7239,-11.4565 9.4356,-13.83 4.7116,-2.3736 11.0213,-2.5228 19.8379,3.1289 a 4.5049296,4.5049296 0 0 0 6.2246,-1.3614 4.5049296,4.5049296 0 0 0 -1.3614,-6.2246 c -5.3417,-3.4241 -10.5909,-5.2982 -15.4746,-5.8281 z"
         id="path1599" />
      <g
         transform="translate(-1587.4023,771.28981)"
         id="g1607"
         style="clip-rule:evenodd;opacity:1;fill-rule:evenodd;image-rendering:optimizeQuality;shape-rendering:geometricPrecision;text-rendering:geometricPrecision">
        <path
           id="path1609"
           style="color:#000000;font-style:normal;font-variant:normal;font-weight:normal;font-stretch:normal;font-size:medium;line-height:normal;font-family:sans-serif;font-variant-ligatures:normal;font-variant-position:normal;font-variant-caps:normal;font-variant-numeric:normal;font-variant-alternates:normal;font-variant-east-asian:normal;font-feature-settings:normal;font-variation-settings:normal;text-indent:0;text-align:start;text-decoration:none;text-decoration-line:none;text-decoration-style:solid;text-decoration-color:#000000;letter-spacing:normal;word-spacing:normal;text-transform:none;writing-mode:lr-tb;direction:ltr;text-orientation:mixed;dominant-baseline:auto;baseline-shift:baseline;text-anchor:start;white-space:normal;shape-padding:0;shape-margin:0;inline-size:0;clip-rule:nonzero;display:inline;overflow:visible;visibility:visible;isolation:auto;mix-blend-mode:normal;color-interpolation:sRGB;color-interpolation-filters:linearRGB;solid-color:#000000;solid-opacity:1;vector-effect:none;fill:#2b2a29;fill-opacity:1;fill-rule:nonzero;stroke:none;stroke-width:0.944715;stroke-linecap:round;stroke-linejoin:round;stroke-miterlimit:4;stroke-dasharray:none;stroke-dashoffset:0;stroke-opacity:1;color-rendering:auto;image-rendering:auto;shape-rendering:auto;text-rendering:auto;enable-background:accumulate;stop-color:#000000;stop-opacity:1"
           d="m 401.98828,81.277344 c -0.12655,-1.51e-4 -0.24783,0.0095 -0.36523,0.03125 -0.4696,0.08686 -0.84639,0.384892 -1.04493,0.751953 -0.39706,0.734122 -0.26087,1.640618 0.0332,2.419922 0.14703,0.389653 0.34314,0.749506 0.58984,1.041015 0.2467,0.291511 0.55412,0.537812 0.96094,0.582032 0.40682,0.04422 0.82537,-0.189576 1.0957,-0.56836 0.27034,-0.378783 0.46531,-0.906774 0.61719,-1.652344 a 0.47240458,0.47240458 0 0 0 0,-0.002 c 0.0584,-0.291825 0.11943,-0.708907 0.0879,-1.134765 -0.0158,-0.212929 -0.0533,-0.430455 -0.15039,-0.642578 -0.0971,-0.212125 -0.27693,-0.430303 -0.53906,-0.535157 -0.48131,-0.192525 -0.90552,-0.290561 -1.28516,-0.291015 z"
           transform="matrix(9.5371229,0,0,9.5371229,-754.39502,-237.10785)" />
      </g>
      <path
         id="path1603"
         style="color:#000000;font-style:normal;font-variant:normal;font-weight:normal;font-stretch:normal;font-size:medium;line-height:normal;font-family:sans-serif;font-variant-ligatures:normal;font-variant-position:normal;font-variant-caps:normal;font-variant-numeric:normal;font-variant-alternates:normal;font-variant-east-asian:normal;font-feature-settings:normal;font-variation-settings:normal;text-indent:0;text-align:start;text-decoration:none;text-decoration-line:none;text-decoration-style:solid;text-decoration-color:#000000;letter-spacing:normal;word-spacing:normal;text-transform:none;writing-mode:lr-tb;direction:ltr;text-orientation:mixed;dominant-baseline:auto;baseline-shift:baseline;text-anchor:start;white-space:normal;shape-padding:0;shape-margin:0;inline-size:0;clip-rule:nonzero;display:inline;overflow:visible;visibility:visible;opacity:1;isolation:auto;mix-blend-mode:normal;color-interpolation:sRGB;color-interpolation-filters:linearRGB;solid-color:#000000;solid-opacity:1;vector-effect:none;fill:#2b2a29;fill-opacity:1;fill-rule:nonzero;stroke:none;stroke-width:9.00986;stroke-linecap:round;stroke-linejoin:round;stroke-miterlimit:4;stroke-dasharray:none;stroke-dashoffset:0;stroke-opacity:1;color-rendering:auto;image-rendering:auto;shape-rendering:auto;text-rendering:auto;enable-background:accumulate;stop-color:#000000;stop-opacity:1"
         d="m 1572.2974,1306.186 c -3.1169,-0.1664 -5.904,0.077 -8.4009,0.7264 -4.9938,1.2991 -8.7637,4.5635 -10.5243,8.5499 -3.5214,7.9728 -0.5589,17.1548 4.0793,24.2899 2.3189,3.5675 5.1598,6.6758 8.5685,8.792 3.4087,2.1163 7.7642,3.2487 11.9214,1.7323 4.1573,-1.5163 7.2887,-5.3027 9.3881,-10.6361 2.0995,-5.3333 3.3749,-12.4728 3.7627,-22.1663 0.1926,-0.8596 0.412,-1.6798 0.3538,-2.7569 -0.076,-1.4343 -0.9337,-3.4388 -2.2166,-4.5077 -2.5655,-2.138 -4.2996,-1.8398 -6.743,-2.3284 -3.756,-0.9577 -7.1412,-1.5324 -10.1891,-1.6951 z" />
      <g
         transform="translate(-1587.4023,771.28981)"
         id="g1587"
         style="clip-rule:evenodd;opacity:1;fill-rule:evenodd;image-rendering:optimizeQuality;shape-rendering:geometricPrecision;text-rendering:geometricPrecision">
        <path
           style="color:#000000;font-style:normal;font-variant:normal;font-weight:normal;font-stretch:normal;font-size:medium;line-height:normal;font-family:sans-serif;font-variant-ligatures:normal;font-variant-position:normal;font-variant-caps:normal;font-variant-numeric:normal;font-variant-alternates:normal;font-variant-east-asian:normal;font-feature-settings:normal;font-variation-settings:normal;text-indent:0;text-align:start;text-decoration:none;text-decoration-line:none;text-decoration-style:solid;text-decoration-color:#000000;letter-spacing:normal;word-spacing:normal;text-transform:none;writing-mode:lr-tb;direction:ltr;text-orientation:mixed;dominant-baseline:auto;baseline-shift:baseline;text-anchor:start;white-space:normal;shape-padding:0;shape-margin:0;inline-size:0;clip-rule:nonzero;display:inline;overflow:visible;visibility:visible;isolation:auto;mix-blend-mode:normal;color-interpolation:sRGB;color-interpolation-filters:linearRGB;solid-color:#000000;solid-opacity:1;vector-effect:none;fill:#fecc00;fill-opacity:1;fill-rule:nonzero;stroke:none;stroke-width:9.00986;stroke-linecap:round;stroke-linejoin:round;stroke-miterlimit:4;stroke-dasharray:none;stroke-dashoffset:0;stroke-opacity:1;color-rendering:auto;image-rendering:auto;shape-rendering:auto;text-rendering:auto;enable-background:accumulate;stop-color:#000000;stop-opacity:1"
           d="m 3121,575 c -80,26 -54,153 24,111 54,-29 29,-82 -20,-108 -3,-1 -2,-4 -4,-3 z"
           id="path1589" />
        <path
           style="color:#000000;font-style:normal;font-variant:normal;font-weight:normal;font-stretch:normal;font-size:medium;line-height:normal;font-family:sans-serif;font-variant-ligatures:normal;font-variant-position:normal;font-variant-caps:normal;font-variant-numeric:normal;font-variant-alternates:normal;font-variant-east-asian:normal;font-feature-settings:normal;font-variation-settings:normal;text-indent:0;text-align:start;text-decoration:none;text-decoration-line:none;text-decoration-style:solid;text-decoration-color:#000000;letter-spacing:normal;word-spacing:normal;text-transform:none;writing-mode:lr-tb;direction:ltr;text-orientation:mixed;dominant-baseline:auto;baseline-shift:baseline;text-anchor:start;white-space:normal;shape-padding:0;shape-margin:0;inline-size:0;clip-rule:nonzero;display:inline;overflow:visible;visibility:visible;isolation:auto;mix-blend-mode:normal;color-interpolation:sRGB;color-interpolation-filters:linearRGB;solid-color:#000000;solid-opacity:1;vector-effect:none;fill:#2b2a29;fill-opacity:1;fill-rule:nonzero;stroke:none;stroke-width:9.00986;stroke-linecap:round;stroke-linejoin:round;stroke-miterlimit:4;stroke-dasharray:none;stroke-dashoffset:0;stroke-opacity:1;color-rendering:auto;image-rendering:auto;shape-rendering:auto;text-rendering:auto;enable-background:accumulate;stop-color:#000000;stop-opacity:1"
           d="m 3121.3125,570.30664 c -1.0209,0.0704 -1.7423,0.37117 -2.3281,0.66406 l 0.623,-0.25586 c -42.187,13.71077 -56.9437,54.42327 -50.2656,86.21094 3.339,15.89384 12.0419,29.9192 25.6523,37.0918 13.6092,7.17194 31.7126,6.94703 52.1368,-4.04883 14.1315,-7.58916 23.5115,-17.00339 28.4863,-27.49023 4.9747,-10.48685 5.4,-21.88875 2.3457,-32.81641 -6.1086,-21.85532 -25.5122,-42.19526 -50.8516,-55.64063 a 4.5053805,4.5053805 0 0 0 -0.457,-0.21093 c -0.016,-0.0514 0.053,0.0306 0,-0.0762 -0.1875,-0.375 -0.3372,-1.39474 -2.1094,-2.57618 -0.8861,-0.59071 -2.2115,-0.92197 -3.2324,-0.85156 z m -1.0215,9.77344 c 0.82,0.86358 1.9025,1.73246 3.2852,2.19336 l -0.6875,-0.29492 c 23.6606,12.55463 41.257,31.71469 46.3984,50.10937 2.5707,9.19734 2.1835,18.10794 -1.8105,26.52734 -3.994,8.41941 -11.739,16.50518 -24.6075,23.41602 a 4.5053805,4.5053805 0 0 0 -0.01,0.002 c -18.5736,10.00116 -32.9679,9.65163 -43.6699,4.01172 -10.7021,-5.6399 -18.1242,-17.11454 -21.0352,-30.9707 -5.7093,-27.17651 6.0178,-62.06297 42.1328,-74.99414 z"
           id="path1591" />
      </g>
      <path
         style="clip-rule:evenodd;fill:#2b2a29;fill-rule:evenodd;stroke:#2b2a29;stroke-width:9.00986;stroke-linecap:round;stroke-linejoin:round;image-rendering:optimizeQuality;shape-rendering:geometricPrecision;text-rendering:geometricPrecision"
         id="path142-5"
         d="m 1534.5974,1349.2898 c -65,-8 -26,100 21,22 9,-15 -21,-22 -21,-22 z"
         class="fil5 str2" />
      <path
         style="color:#000000;font-style:normal;font-variant:normal;font-weight:normal;font-stretch:normal;font-size:medium;line-height:normal;font-family:sans-serif;font-variant-ligatures:normal;font-variant-position:normal;font-variant-caps:normal;font-variant-numeric:normal;font-variant-alternates:normal;font-variant-east-asian:normal;font-feature-settings:normal;font-variation-settings:normal;text-indent:0;text-align:start;text-decoration:none;text-decoration-line:none;text-decoration-style:solid;text-decoration-color:#000000;letter-spacing:normal;word-spacing:normal;text-transform:none;writing-mode:lr-tb;direction:ltr;text-orientation:mixed;dominant-baseline:auto;baseline-shift:baseline;text-anchor:start;white-space:normal;shape-padding:0;shape-margin:0;inline-size:0;clip-rule:nonzero;display:inline;overflow:visible;visibility:visible;opacity:1;isolation:auto;mix-blend-mode:normal;color-interpolation:sRGB;color-interpolation-filters:linearRGB;solid-color:#000000;solid-opacity:1;vector-effect:none;fill:#2b2a29;fill-opacity:1;fill-rule:nonzero;stroke:none;stroke-width:9.00986;stroke-linecap:round;stroke-linejoin:round;stroke-miterlimit:4;stroke-dasharray:none;stroke-dashoffset:0;stroke-opacity:1;color-rendering:auto;image-rendering:auto;shape-rendering:auto;text-rendering:auto;enable-background:accumulate;stop-color:#000000;stop-opacity:1"
         d="m 1586.5759,1402.7859 a 4.5049296,4.5049296 0 0 0 -3.8203,2.1504 c -8.5206,13.902 -24.7617,20.7154 -41.875,22.498 -17.1133,1.7827 -34.8459,-1.7978 -44.0488,-7.0566 a 4.5049296,4.5049296 0 0 0 -6.1465,1.6777 4.5049296,4.5049296 0 0 0 1.6777,6.1465 c 11.7971,6.7412 30.5645,10.1607 49.4512,8.1934 18.8867,-1.9674 38.1456,-9.654 48.625,-26.752 a 4.5049296,4.5049296 0 0 0 -1.4883,-6.1953 4.5049296,4.5049296 0 0 0 -2.375,-0.6621 z"
         id="path1585" />
    </g>
  </g>
</svg>
