<?xml version="1.0" encoding="UTF-8" standalone="no"?>
<svg
   xmlns:dc="http://purl.org/dc/elements/1.1/"
   xmlns:cc="http://creativecommons.org/ns#"
   xmlns:rdf="http://www.w3.org/1999/02/22-rdf-syntax-ns#"
   xmlns:svg="http://www.w3.org/2000/svg"
   xmlns="http://www.w3.org/2000/svg"
   xmlns:sodipodi="http://sodipodi.sourceforge.net/DTD/sodipodi-0.dtd"
   xmlns:inkscape="http://www.inkscape.org/namespaces/inkscape"
   width="108mm"
   height="60mm"
   viewBox="0 0 108 60"
   version="1.1"
   id="svg404"
   inkscape:version="1.0 (4035a4fb49, 2020-05-01)"
   sodipodi:docname="2020-JP-04-taskbody4.svg">
  <defs
     id="defs398" />
  <sodipodi:namedview
     id="base"
     pagecolor="#ffffff"
     bordercolor="#666666"
     borderopacity="1.0"
     inkscape:pageopacity="0.0"
     inkscape:pageshadow="2"
     inkscape:zoom="2.6549416"
     inkscape:cx="219.27214"
     inkscape:cy="121.84826"
     inkscape:document-units="mm"
     inkscape:current-layer="layer1"
     inkscape:document-rotation="0"
     showgrid="false"
     fit-margin-top="0"
     fit-margin-left="0"
     fit-margin-right="0"
     fit-margin-bottom="0"
     inkscape:window-width="1440"
     inkscape:window-height="855"
     inkscape:window-x="0"
     inkscape:window-y="23"
     inkscape:window-maximized="1" />
  <metadata
     id="metadata401">
    <rdf:RDF>
      <cc:Work
         rdf:about="">
        <dc:format>image/svg+xml</dc:format>
        <dc:type
           rdf:resource="http://purl.org/dc/dcmitype/StillImage" />
        <dc:title></dc:title>
      </cc:Work>
    </rdf:RDF>
  </metadata>
  <g
     inkscape:label="Layer 1"
     inkscape:groupmode="layer"
     id="layer1"
     transform="translate(20.97409,-186.23122)">
    <path
       id="path138"
       d="M 11.002929,230.47359 H -15.6058 c -0.713832,0 -1.30459,-0.59038 -1.30459,-1.30376 v -26.592 c 0,-0.71338 0.590758,-1.30377 1.30459,-1.30377 h 26.608729 c 0.713833,0 1.304591,0.59039 1.304591,1.30377 v 26.592 c 0,0.71338 -0.590758,1.30376 -1.304591,1.30376 z"
       stroke-miterlimit="10"
       stroke-linejoin="round"
       stroke-linecap="round"
       stroke-width="1.05833"
       stroke="#000000"
       fill="#ffffff" />
    <rect
       id="rect140"
       height="17.367207"
       width="17.378134"
       stroke-miterlimit="10"
       stroke-linejoin="round"
       stroke-linecap="round"
       stroke-width="2.84811"
       stroke="#172a88"
       fill="#2ea7e0"
       y="207.19023"
       x="-10.990502" />
    <g
       id="g142"
       transform="matrix(0.26458333,0,0,0.26458333,-36.874503,-72.663566)">
      <path
         id="path144"
         d="M 450.56305,1090.8604 H 349.99463 c -2.69795,0 -4.93074,-2.2314 -4.93074,-4.9276 V 985.42762 c 0,-2.69626 2.23279,-4.92764 4.93074,-4.92764 h 100.56842 c 2.69796,0 4.93074,2.23138 4.93074,4.92764 v 100.50518 c -0.093,2.6962 -2.23278,4.9276 -4.93074,4.9276 z"
         stroke-miterlimit="10"
         stroke-linejoin="round"
         stroke-linecap="round"
         stroke-width="4"
         stroke="#000000"
         fill="#ffffff" />
      <polygon
         transform="matrix(0.93032769,0,0,0.92974272,3.9393288,67.014283)"
         id="polygon146"
         points="426.8,1066.7 399.3,1081.1 404.5,1050.5 382.2,1028.7 413,1024.3 426.8,996.4 440.6,1024.3 471.4,1028.7 449.1,1050.5 454.4,1081.1 "
         stroke-miterlimit="10"
         stroke-linejoin="round"
         stroke-linecap="round"
         stroke-width="8.9789"
         stroke="#f39800"
         fill="#fff100" />
    </g>
    <g
       style="stroke-width:1.07523"
       id="g148"
       transform="matrix(0.2461492,0,0,0.24599442,-35.740804,-54.437145)">
      <ellipse
         id="ellipse150"
         ry="12.8"
         rx="66.599998"
         cy="1207.8"
         cx="279.70001"
         stroke-miterlimit="10"
         stroke-width="3.43309"
         stroke="#000000"
         fill="#898989" />
      <polygon
         id="polygon152"
         points="426.6,1122.1 136.2,1183.2 139.3,1198.2 429.7,1137.1 "
         stroke-miterlimit="10"
         stroke-width="3.16235"
         stroke="#000000"
         fill="#dcdddd" />
      <path
         id="path154"
         d="m 266.7,1206.8 h 26.8 v -58 c 0,0 -5.2,-9.9 -13.3,-9.9 -7.7,0 -13.5,9.9 -13.5,9.9 z"
         stroke-miterlimit="10"
         stroke-width="3.09569"
         stroke="#000000"
         fill="#b5b5b6" />
      <rect
         id="rect156"
         height="26.1"
         width="18.1"
         stroke-miterlimit="10"
         stroke-width="3.21225"
         stroke="#000000"
         fill="#b5b5b6"
         y="1113.3"
         x="413.60001" />
      <rect
         id="rect158"
         height="26.6"
         width="18.1"
         stroke-miterlimit="10"
         stroke-width="3.21225"
         stroke="#000000"
         fill="#b5b5b6"
         y="1172"
         x="128.10001" />
      <circle
         id="circle160"
         r="6.5"
         cy="1129.9"
         cx="422.60001"
         stroke-miterlimit="10"
         stroke-width="3.21225"
         stroke="#000000"
         fill="#898989" />
      <circle
         id="circle162"
         r="6.5"
         cy="1189.1"
         cx="137.60001"
         stroke-miterlimit="10"
         stroke-width="3.21225"
         stroke="#000000"
         fill="#898989" />
      <rect
         id="rect164"
         height="15.5"
         width="39.5"
         stroke-miterlimit="10"
         stroke-width="3.21225"
         stroke="#000000"
         fill="#f5ea5e"
         y="1098.6"
         x="402.39999" />
      <rect
         id="rect166"
         height="15.5"
         width="39.5"
         stroke-miterlimit="10"
         stroke-width="3.21225"
         stroke="#000000"
         fill="#f5ea5e"
         y="1158.7"
         x="117.6" />
      <polygon
         id="polygon168"
         points="61.5,1165.7 61.5,1154 210.4,1152.6 210.7,1164.2 "
         stroke-miterlimit="10"
         stroke-width="3.01913"
         stroke="#000000"
         fill="#f5ea5e" />
      <polygon
         id="polygon170"
         points="348.1,1106 348.1,1094.4 496.9,1092.9 497.2,1104.5 "
         stroke-miterlimit="10"
         stroke-width="3.01913"
         stroke="#000000"
         fill="#f5ea5e" />
      <circle
         id="circle172"
         r="6.9000001"
         cy="1158.3"
         cx="280.39999"
         stroke-miterlimit="10"
         stroke-width="3.43309"
         stroke="#000000"
         fill="#898989" />
    </g>
  </g>
</svg>
