<?xml version="1.0" encoding="UTF-8" standalone="no"?>
<svg
   xmlns:dc="http://purl.org/dc/elements/1.1/"
   xmlns:cc="http://creativecommons.org/ns#"
   xmlns:rdf="http://www.w3.org/1999/02/22-rdf-syntax-ns#"
   xmlns:svg="http://www.w3.org/2000/svg"
   xmlns="http://www.w3.org/2000/svg"
   xmlns:sodipodi="http://sodipodi.sourceforge.net/DTD/sodipodi-0.dtd"
   xmlns:inkscape="http://www.inkscape.org/namespaces/inkscape"
   width="108mm"
   height="60mm"
   viewBox="0 0 108 60"
   version="1.1"
   id="svg136"
   inkscape:version="1.0 (4035a4fb49, 2020-05-01)"
   sodipodi:docname="2020-JP-04-taskbody2.svg">
  <defs
     id="defs130" />
  <sodipodi:namedview
     id="base"
     pagecolor="#ffffff"
     bordercolor="#666666"
     borderopacity="1.0"
     inkscape:pageopacity="0.0"
     inkscape:pageshadow="2"
     inkscape:zoom="2.6549425"
     inkscape:cx="219.26602"
     inkscape:cy="121.84821"
     inkscape:document-units="mm"
     inkscape:current-layer="layer1"
     inkscape:document-rotation="0"
     showgrid="false"
     fit-margin-top="0"
     fit-margin-left="0"
     fit-margin-right="0"
     fit-margin-bottom="0"
     inkscape:window-width="1440"
     inkscape:window-height="855"
     inkscape:window-x="0"
     inkscape:window-y="23"
     inkscape:window-maximized="1" />
  <metadata
     id="metadata133">
    <rdf:RDF>
      <cc:Work
         rdf:about="">
        <dc:format>image/svg+xml</dc:format>
        <dc:type
           rdf:resource="http://purl.org/dc/dcmitype/StillImage" />
        <dc:title></dc:title>
      </cc:Work>
    </rdf:RDF>
  </metadata>
  <g
     inkscape:label="Layer 1"
     inkscape:groupmode="layer"
     id="layer1"
     transform="translate(-206.56902,-183.20742)">
    <path
       id="path68"
       d="m 238.84253,227.36505 h -26.60952 c -0.71385,0 -1.30464,-0.59024 -1.30464,-1.30344 v -26.58533 c 0,-0.7132 0.59079,-1.30344 1.30464,-1.30344 h 26.60952 c 0.71387,0 1.30465,0.59024 1.30465,1.30344 v 26.58533 c -0.0247,0.7132 -0.59078,1.30344 -1.30465,1.30344 z"
       stroke-miterlimit="10"
       stroke-linejoin="round"
       stroke-linecap="round"
       stroke-width="1.05833"
       stroke="#000000"
       fill="#ffffff" />
    <path
       id="path70"
       d="m 309.73565,212.90421 h -26.60953 c -0.71386,0 -1.30464,-0.59024 -1.30464,-1.30344 v -26.56074 c 0,-0.7132 0.59078,-1.30344 1.30464,-1.30344 h 26.60953 c 0.71385,0 1.30463,0.59024 1.30463,1.30344 v 26.58533 c 0,0.7132 -0.59078,1.27885 -1.30463,1.27885 z"
       stroke-miterlimit="10"
       stroke-linejoin="round"
       stroke-linecap="round"
       stroke-width="1.05833"
       stroke="#000000"
       fill="#ffffff" />
    <rect
       id="rect72"
       height="17.36285"
       width="17.378656"
       stroke-miterlimit="10"
       stroke-linejoin="round"
       stroke-linecap="round"
       stroke-width="2.84811"
       stroke="#172a88"
       fill="#2ea7e0"
       y="189.63898"
       x="287.74155" />
    <polygon
       id="polygon74"
       points="610.1,766.7 653.3,735.4 696.4,766.7 679.9,817.5 626.6,817.5 "
       stroke-miterlimit="10"
       stroke-linejoin="round"
       stroke-linecap="round"
       stroke-width="9.75651"
       stroke="#601986"
       fill="#893e84"
       transform="matrix(0.24615663,0,0,0.24593273,64.735965,21.814465)" />
    <g
       style="stroke-width:1.07535"
       id="g86"
       transform="matrix(0.24615663,0,0,0.24593273,64.957509,21.839072)">
      <ellipse
         id="ellipse88"
         ry="12.8"
         rx="66.599998"
         cy="885.59998"
         cx="795"
         stroke-miterlimit="10"
         stroke-width="3.43347"
         stroke="#000000"
         fill="#898989" />
      <polygon
         id="polygon90"
         points="654.6,876 945.1,814.9 942,799.9 651.5,861 "
         stroke-miterlimit="10"
         stroke-width="3.1627"
         stroke="#000000"
         fill="#dcdddd" />
      <path
         id="path92"
         d="m 782,884.6 h 26.8 v -58 c 0,0 -5.2,-9.9 -13.3,-9.9 -7.7,0 -13.5,9.9 -13.5,9.9 z"
         stroke-miterlimit="10"
         stroke-width="3.09603"
         stroke="#000000"
         fill="#b5b5b6" />
      <rect
         id="rect94"
         height="26.1"
         width="18.1"
         stroke-miterlimit="10"
         stroke-width="3.2126"
         stroke="#000000"
         fill="#b5b5b6"
         y="791.09998"
         x="928.90002" />
      <rect
         id="rect96"
         height="26.6"
         width="18.1"
         stroke-miterlimit="10"
         stroke-width="3.2126"
         stroke="#000000"
         fill="#b5b5b6"
         y="849.90002"
         x="643.5" />
      <circle
         id="circle98"
         r="6.5"
         cy="807.70001"
         cx="937.90002"
         stroke-miterlimit="10"
         stroke-width="3.2126"
         stroke="#000000"
         fill="#898989" />
      <circle
         id="circle100"
         r="6.5"
         cy="866.90002"
         cx="652.90002"
         stroke-miterlimit="10"
         stroke-width="3.2126"
         stroke="#000000"
         fill="#898989" />
      <rect
         id="rect102"
         height="15.5"
         width="39.5"
         stroke-miterlimit="10"
         stroke-width="3.2126"
         stroke="#000000"
         fill="#f5ea5e"
         y="776.40002"
         x="917.70001" />
      <rect
         id="rect104"
         height="15.5"
         width="39.5"
         stroke-miterlimit="10"
         stroke-width="3.2126"
         stroke="#000000"
         fill="#f5ea5e"
         y="836.59998"
         x="632.90002" />
      <polygon
         id="polygon106"
         points="725.7,830.4 726,842 576.8,843.5 576.8,831.8 "
         stroke-miterlimit="10"
         stroke-width="3.01946"
         stroke="#000000"
         fill="#f5ea5e" />
      <polygon
         id="polygon108"
         points="1012.3,770.7 1012.5,782.3 863.4,783.8 863.4,772.2 "
         stroke-miterlimit="10"
         stroke-width="3.01946"
         stroke="#000000"
         fill="#f5ea5e" />
      <circle
         id="circle110"
         r="6.9000001"
         cy="836.09998"
         cx="795.70001"
         stroke-miterlimit="10"
         stroke-width="3.43347"
         stroke="#000000"
         fill="#898989" />
    </g>
  </g>
</svg>
