<?xml version="1.0" encoding="UTF-8" standalone="no"?>
<svg
   xmlns:dc="http://purl.org/dc/elements/1.1/"
   xmlns:cc="http://creativecommons.org/ns#"
   xmlns:rdf="http://www.w3.org/1999/02/22-rdf-syntax-ns#"
   xmlns:svg="http://www.w3.org/2000/svg"
   xmlns="http://www.w3.org/2000/svg"
   xmlns:sodipodi="http://sodipodi.sourceforge.net/DTD/sodipodi-0.dtd"
   xmlns:inkscape="http://www.inkscape.org/namespaces/inkscape"
   sodipodi:docname="2020-JP-02-taskbody2.svg"
   inkscape:version="1.0 (4035a4fb49, 2020-05-01)"
   id="svg2552"
   version="1.1"
   viewBox="0 0 28.000002 19.999999"
   height="19.999998mm"
   width="28.000002mm">
  <defs
     id="defs2546" />
  <sodipodi:namedview
     fit-margin-bottom="0"
     fit-margin-right="0"
     fit-margin-left="0"
     fit-margin-top="0"
     showgrid="false"
     inkscape:document-rotation="0"
     inkscape:current-layer="layer1"
     inkscape:document-units="mm"
     inkscape:cy="560"
     inkscape:cx="400"
     inkscape:zoom="0.35"
     inkscape:pageshadow="2"
     inkscape:pageopacity="0.0"
     borderopacity="1.0"
     bordercolor="#666666"
     pagecolor="#ffffff"
     id="base" />
  <metadata
     id="metadata2549">
    <rdf:RDF>
      <cc:Work
         rdf:about="">
        <dc:format>image/svg+xml</dc:format>
        <dc:type
           rdf:resource="http://purl.org/dc/dcmitype/StillImage" />
        <dc:title></dc:title>
      </cc:Work>
    </rdf:RDF>
  </metadata>
  <g
     transform="translate(-35.764046,-17.072422)"
     id="layer1"
     inkscape:groupmode="layer"
     inkscape:label="Ebene 1">
    <path
       id="path2384"
       d="m 52.144,31.01079 c -2.312793,-0.0064 -4.656763,1.118452 -6.471094,3.376906 -0.538483,-0.342145 -1.107301,-0.698613 -1.657243,-1.093849 v 2.918644 c 0.0901,0.109386 0.181355,0.226176 0.271263,0.331967 -0.04406,0.08644 -0.08647,0.175469 -0.129273,0.263926 h 13.058214 l 3.150789,0.0381 -3.150789,-3.770676 C 55.719607,31.705692 53.941678,31.015749 52.144,31.010798 Z"
       style="color:#000000;font-style:normal;font-variant:normal;font-weight:normal;font-stretch:normal;font-size:medium;line-height:normal;font-family:sans-serif;font-variant-ligatures:normal;font-variant-position:normal;font-variant-caps:normal;font-variant-numeric:normal;font-variant-alternates:normal;font-variant-east-asian:normal;font-feature-settings:normal;font-variation-settings:normal;text-indent:0;text-align:start;text-decoration:none;text-decoration-line:none;text-decoration-style:solid;text-decoration-color:#000000;letter-spacing:normal;word-spacing:normal;text-transform:none;writing-mode:lr-tb;direction:ltr;text-orientation:mixed;dominant-baseline:auto;baseline-shift:baseline;text-anchor:start;white-space:normal;shape-padding:0;shape-margin:0;inline-size:0;clip-rule:nonzero;display:inline;overflow:visible;visibility:visible;isolation:auto;mix-blend-mode:normal;color-interpolation:sRGB;color-interpolation-filters:linearRGB;solid-color:#000000;solid-opacity:1;vector-effect:none;fill:#dd8c56;fill-opacity:1;fill-rule:nonzero;stroke:none;stroke-width:0.529167;stroke-linecap:round;stroke-linejoin:round;stroke-miterlimit:4;stroke-dasharray:none;stroke-dashoffset:0;stroke-opacity:1;color-rendering:auto;image-rendering:auto;shape-rendering:auto;text-rendering:auto;enable-background:accumulate;stop-color:#000000"
       sodipodi:nodetypes="sccccccccs" />
    <path
       id="path2378"
       d="m 45.672727,34.387476 c -1.526141,-0.969687 -3.302865,-2.033668 -4.17066,-3.866094 0.571145,-1.187526 -0.04307,-4.251683 -1.402937,-2.42172 -0.260586,0.350667 -0.157718,0.730076 -0.475767,1.050547 0.0069,-1.522258 -0.645943,-2.060987 -1.290618,-2.059855 -0.96972,0.0016 -1.919613,1.22412 -0.578551,2.154187 -0.71998,-0.179401 -1.911505,-0.118439 -1.692211,1.208799 0.278898,1.687988 3.52948,1.193185 4.652785,2.085627 1.320409,1.049038 2.450157,2.685256 3.571977,4.005273"
       style="color:#000000;font-style:normal;font-variant:normal;font-weight:normal;font-stretch:normal;font-size:medium;line-height:normal;font-family:sans-serif;font-variant-ligatures:normal;font-variant-position:normal;font-variant-caps:normal;font-variant-numeric:normal;font-variant-alternates:normal;font-variant-east-asian:normal;font-feature-settings:normal;font-variation-settings:normal;text-indent:0;text-align:start;text-decoration:none;text-decoration-line:none;text-decoration-style:solid;text-decoration-color:#000000;letter-spacing:normal;word-spacing:normal;text-transform:none;writing-mode:lr-tb;direction:ltr;text-orientation:mixed;dominant-baseline:auto;baseline-shift:baseline;text-anchor:start;white-space:normal;shape-padding:0;shape-margin:0;inline-size:0;clip-rule:nonzero;display:inline;overflow:visible;visibility:visible;isolation:auto;mix-blend-mode:normal;color-interpolation:sRGB;color-interpolation-filters:linearRGB;solid-color:#000000;solid-opacity:1;vector-effect:none;fill:#dd8c56;fill-opacity:1;fill-rule:nonzero;stroke:none;stroke-width:0.529167;stroke-linecap:round;stroke-linejoin:round;stroke-miterlimit:4;stroke-dasharray:none;stroke-dashoffset:0;stroke-opacity:1;color-rendering:auto;image-rendering:auto;shape-rendering:auto;text-rendering:auto;enable-background:accumulate;stop-color:#000000" />
    <path
       sodipodi:nodetypes="sscssssscssccsccccccsscscssscsssscsccsccsccssssscccccscccccccccccccccccccccccccc"
       id="path2386"
       style="color:#000000;font-style:normal;font-variant:normal;font-weight:normal;font-stretch:normal;font-size:medium;line-height:normal;font-family:sans-serif;font-variant-ligatures:normal;font-variant-position:normal;font-variant-caps:normal;font-variant-numeric:normal;font-variant-alternates:normal;font-variant-east-asian:normal;font-feature-settings:normal;font-variation-settings:normal;text-indent:0;text-align:start;text-decoration:none;text-decoration-line:none;text-decoration-style:solid;text-decoration-color:#000000;letter-spacing:normal;word-spacing:normal;text-transform:none;writing-mode:lr-tb;direction:ltr;text-orientation:mixed;dominant-baseline:auto;baseline-shift:baseline;text-anchor:start;white-space:normal;shape-padding:0;shape-margin:0;inline-size:0;clip-rule:nonzero;display:inline;overflow:visible;visibility:visible;isolation:auto;mix-blend-mode:normal;color-interpolation:sRGB;color-interpolation-filters:linearRGB;solid-color:#000000;solid-opacity:1;vector-effect:none;fill:#040000;fill-opacity:1;fill-rule:nonzero;stroke:none;stroke-width:0.529167;stroke-linecap:round;stroke-linejoin:round;stroke-miterlimit:4;stroke-dasharray:none;stroke-dashoffset:0;stroke-opacity:1;color-rendering:auto;image-rendering:auto;shape-rendering:auto;text-rendering:auto;enable-background:accumulate;stop-color:#000000"
       d="m 38.332216,26.826755 c -0.601874,0.0011 -1.164372,0.357888 -1.403465,0.886109 -0.162704,0.35945 -0.118773,0.798624 0.147287,1.205705 -0.212819,0.0085 -0.429477,0.03606 -0.632064,0.125261 -0.227027,0.09997 -0.435709,0.273462 -0.556828,0.522694 -0.121116,0.249233 -0.154229,0.559793 -0.09325,0.928896 0.08316,0.503313 0.409828,0.867092 0.818027,1.098486 0.408195,0.231392 0.899902,0.35772 1.404523,0.45929 1.009246,0.203147 2.08332,0.338002 2.526661,0.690226 1.796976,1.316638 2.566213,2.664679 3.2002,3.516648 0.514374,0.69123 0.213639,0.812351 1.752685,0.812351 h 14.974833 c 0.149807,-1.6e-5 0.271246,-0.118169 0.271263,-0.263925 -1.21798,-2.117203 -2.216747,-2.795082 -3.549193,-4.065584 -1.33245,-1.270506 -3.180048,-1.990789 -5.048555,-1.995936 -2.332345,-0.0064 -4.6739,1.120458 -6.508181,3.298034 -0.229571,-0.145709 -0.461723,-0.293347 -0.694049,-0.444341 -0.02007,-0.01317 -0.04032,-0.02595 -0.0604,-0.03918 -0.152449,-0.09959 -0.303431,-0.205031 -0.454576,-0.309286 -1.05584,-0.734967 -2.047579,-1.589293 -2.631563,-2.76864 0.274474,-0.701843 0.247937,-1.677269 -0.01536,-2.39337 -0.140631,-0.382467 -0.359596,-0.729822 -0.752859,-0.8093 -0.19663,-0.03974 -0.409782,0.0099 -0.598684,0.125261 -0.188899,0.115328 -0.366058,0.292453 -0.549412,0.539191 -0.06119,0.08234 -0.06001,0.148466 -0.09483,0.228872 -0.07747,-0.312819 -0.190191,-0.576403 -0.342786,-0.780436 -0.289584,-0.387196 -0.70926,-0.567727 -1.109423,-0.567025 z m 5.412048,8.628089 c -0.876986,-1.097121 -1.795934,-2.27615 -2.858322,-3.120193 -0.679969,-0.540219 -1.792649,-0.60392 -2.759246,-0.798481 -0.483298,-0.09728 -0.926514,-0.219997 -1.241344,-0.398463 -0.314827,-0.178464 -0.49948,-0.38563 -0.55577,-0.726309 -0.04866,-0.294517 -0.01489,-0.489218 0.04821,-0.619093 0.06311,-0.129877 0.156366,-0.209292 0.289805,-0.268047 0.266878,-0.11751 0.70136,-0.102963 1.019355,-0.0237 0.291013,0.07226 0.469138,-0.300926 0.224638,-0.470632 -0.600135,-0.416209 -0.629383,-0.788194 -0.486365,-1.104155 0.143015,-0.31596 0.540249,-0.570554 0.908094,-0.57115 l 2.8e-5,-1.4e-5 c 0.24451,-5.28e-4 0.473394,0.08756 0.669679,0.350009 0.196286,0.262451 0.352436,0.720089 0.349145,1.444371 -9.08e-4,0.237719 0.296317,0.355364 0.466232,0.184542 0.206333,-0.207902 0.278953,-0.446624 0.327422,-0.632491 0.04847,-0.185868 0.0801,-0.32106 0.173247,-0.446406 0.156613,-0.210753 0.295673,-0.338827 0.398417,-0.401558 0.102746,-0.06273 0.156481,-0.06441 0.199739,-0.05567 0.08652,0.01748 0.240281,0.167363 0.351792,0.470632 0.223021,0.606531 0.219082,1.659876 -0.01272,2.141817 -0.03376,0.07037 -0.03397,0.151641 -5.43e-4,0.22217 0.568511,1.200467 1.499276,2.075522 2.488513,2.799052 l 0.542407,0.378818 c 0.412672,0.278053 0.825324,0.53675 1.218034,0.786107 0.0064,0.004 0.01329,0.0089 0.01961,0.01288 8.15e-4,5.28e-4 0.0019,5.28e-4 0.0027,0.0011 0.02681,0.01657 0.0564,0.02844 0.08742,0.03505 0.0029,5.28e-4 0.0056,0.0011 0.0085,0.0016 0.0299,0.0055 0.06052,0.006 0.0906,0.0016 0.0022,-2.64e-4 0.0042,-5.27e-4 0.0064,-0.0011 2.7e-4,-5.6e-5 8.13e-4,5.8e-5 0.0011,0 0.03115,-0.0054 0.0611,-0.01602 0.08848,-0.03144 l 5.42e-4,-5.27e-4 c 2.12e-4,-1.22e-4 2.72e-4,-2.65e-4 5.43e-4,-5.28e-4 0.02846,-0.01639 0.0536,-0.03771 0.07418,-0.06289 5.49e-4,-5.3e-4 0.0011,-0.0011 0.0016,-0.0016 0.0016,-0.0021 0.0031,-0.0042 0.0048,-0.0062 1.770699,-2.200901 4.032474,-3.275279 6.25228,-3.269169 l -1.23e-4,4.2e-5 c 1.694373,0.0047 3.367753,0.648673 4.801134,1.927892 0,0 3.662358,3.296742 2.600305,3.341851 H 44.558031 c 0,-5.27e-4 -5.42e-4,-0.0011 -5.42e-4,-0.0016 -6e-5,-0.02913 -0.005,-0.05803 -0.01483,-0.08557 -5.43e-4,-0.0013 -0.0011,-0.0024 -0.0016,-0.0036 -0.0103,-0.02785 -0.02534,-0.05382 -0.04451,-0.07681 l -5.42e-4,-5.28e-4 c -1.47e-4,-1.71e-4 -2.72e-4,-2.64e-4 -5.42e-4,-5.27e-4 -0.02418,-0.02843 -0.04894,-0.06096 -0.07312,-0.0897 -0.0449,-0.05488 -0.08926,-0.108743 -0.135631,-0.165983 z" />
    <path
       id="path2475"
       d="m 55.232472,19.702469 c 0,0 1.376779,-3.939823 2.510598,-1.654726 0.323947,0.630372 -1.37678,2.048708 -1.37678,2.048708 z"
       style="color:#000000;font-style:normal;font-variant:normal;font-weight:normal;font-stretch:normal;font-size:medium;line-height:normal;font-family:sans-serif;font-variant-ligatures:normal;font-variant-position:normal;font-variant-caps:normal;font-variant-numeric:normal;font-variant-alternates:normal;font-variant-east-asian:normal;font-feature-settings:normal;font-variation-settings:normal;text-indent:0;text-align:start;text-decoration:none;text-decoration-line:none;text-decoration-style:solid;text-decoration-color:#000000;letter-spacing:normal;word-spacing:normal;text-transform:none;writing-mode:lr-tb;direction:ltr;text-orientation:mixed;dominant-baseline:auto;baseline-shift:baseline;text-anchor:start;white-space:normal;shape-padding:0;shape-margin:0;inline-size:0;clip-rule:nonzero;display:inline;overflow:visible;visibility:visible;isolation:auto;mix-blend-mode:normal;color-interpolation:sRGB;color-interpolation-filters:linearRGB;solid-color:#000000;solid-opacity:1;vector-effect:none;fill:#dd8c56;fill-opacity:1;fill-rule:nonzero;stroke:none;stroke-width:0.529167;stroke-linecap:round;stroke-linejoin:round;stroke-miterlimit:4;stroke-dasharray:none;stroke-dashoffset:0;stroke-opacity:1;color-rendering:auto;image-rendering:auto;shape-rendering:auto;text-rendering:auto;enable-background:accumulate;stop-color:#000000" />
    <path
       id="path2477"
       d="m 56.826272,17.082486 c -0.431596,0.07186 -0.729199,0.414627 -0.988609,0.787965 -0.518827,0.746668 -0.862074,1.74676 -0.862074,1.74676 a 0.27128949,0.26395162 0 0 0 0.166088,0.333956 l 1.134134,0.393981 a 0.27128949,0.26395162 0 0 0 0.267322,-0.04767 c 0,0 0.436868,-0.364915 0.838346,-0.817206 0.200734,-0.226147 0.394002,-0.472756 0.525144,-0.727945 0.130899,-0.254718 0.21962,-0.545114 0.07913,-0.820288 -0.152693,-0.307187 -0.315136,-0.529717 -0.509335,-0.677153 -0.194693,-0.147814 -0.43431,-0.208283 -0.650107,-0.172367 z m 0.09174,0.520183 c 0.07273,-0.01213 0.126996,-0.0063 0.224609,0.06768 0.09762,0.07415 0.225484,0.229629 0.355906,0.492478 a 0.27128949,0.26395162 0 0 0 0.0015,0.0031 c 0.02033,0.03955 0.01911,0.161311 -0.07751,0.349352 -0.09663,0.18804 -0.26844,0.41298 -0.452394,0.620214 -0.317955,0.358201 -0.584176,0.580455 -0.673837,0.657148 l -0.691231,-0.240084 c 0.08132,-0.217352 0.29446,-0.829269 0.68174,-1.386636 0.226513,-0.325982 0.485696,-0.53907 0.631132,-0.563269 z"
       style="color:#000000;font-style:normal;font-variant:normal;font-weight:normal;font-stretch:normal;font-size:medium;line-height:normal;font-family:sans-serif;font-variant-ligatures:normal;font-variant-position:normal;font-variant-caps:normal;font-variant-numeric:normal;font-variant-alternates:normal;font-variant-east-asian:normal;font-feature-settings:normal;font-variation-settings:normal;text-indent:0;text-align:start;text-decoration:none;text-decoration-line:none;text-decoration-style:solid;text-decoration-color:#000000;letter-spacing:normal;word-spacing:normal;text-transform:none;writing-mode:lr-tb;direction:ltr;text-orientation:mixed;dominant-baseline:auto;baseline-shift:baseline;text-anchor:start;white-space:normal;shape-padding:0;shape-margin:0;inline-size:0;clip-rule:nonzero;display:inline;overflow:visible;visibility:visible;isolation:auto;mix-blend-mode:normal;color-interpolation:sRGB;color-interpolation-filters:linearRGB;solid-color:#000000;solid-opacity:1;vector-effect:none;fill:#040000;fill-opacity:1;fill-rule:nonzero;stroke:none;stroke-width:0.529167;stroke-linecap:round;stroke-linejoin:round;stroke-miterlimit:4;stroke-dasharray:none;stroke-dashoffset:0;stroke-opacity:1;color-rendering:auto;image-rendering:auto;shape-rendering:auto;text-rendering:auto;enable-background:accumulate;stop-color:#000000" />
    <path
       id="path2469"
       d="m 49.158445,19.702469 c 0,0 -1.457765,-3.861027 -2.672571,-1.654726 -0.323948,0.630372 1.457767,2.048708 1.457767,2.048708 z"
       style="color:#000000;font-style:normal;font-variant:normal;font-weight:normal;font-stretch:normal;font-size:medium;line-height:normal;font-family:sans-serif;font-variant-ligatures:normal;font-variant-position:normal;font-variant-caps:normal;font-variant-numeric:normal;font-variant-alternates:normal;font-variant-east-asian:normal;font-feature-settings:normal;font-variation-settings:normal;text-indent:0;text-align:start;text-decoration:none;text-decoration-line:none;text-decoration-style:solid;text-decoration-color:#000000;letter-spacing:normal;word-spacing:normal;text-transform:none;writing-mode:lr-tb;direction:ltr;text-orientation:mixed;dominant-baseline:auto;baseline-shift:baseline;text-anchor:start;white-space:normal;shape-padding:0;shape-margin:0;inline-size:0;clip-rule:nonzero;display:inline;overflow:visible;visibility:visible;isolation:auto;mix-blend-mode:normal;color-interpolation:sRGB;color-interpolation-filters:linearRGB;solid-color:#000000;solid-opacity:1;vector-effect:none;fill:#dd8c56;fill-opacity:1;fill-rule:nonzero;stroke:none;stroke-width:0.529167;stroke-linecap:round;stroke-linejoin:round;stroke-miterlimit:4;stroke-dasharray:none;stroke-dashoffset:0;stroke-opacity:1;color-rendering:auto;image-rendering:auto;shape-rendering:auto;text-rendering:auto;enable-background:accumulate;stop-color:#000000" />
    <path
       id="path2471"
       d="m 47.462148,17.114808 c -0.219102,-0.03688 -0.461472,0.01457 -0.667511,0.153898 -0.206039,0.139328 -0.382339,0.354474 -0.547294,0.654074 a 0.27128949,0.26395162 0 0 0 -0.0048,0.0079 c -0.143662,0.279562 -0.04486,0.573055 0.09491,0.827978 0.139736,0.254922 0.344203,0.502123 0.555199,0.727945 0.421999,0.451646 0.87947,0.814125 0.87947,0.814125 a 0.27128949,0.26395162 0 0 0 0.257831,0.04617 L 49.244736,19.9529 a 0.27128949,0.26395162 0 0 0 0.167667,-0.341661 c 0,0 -0.364377,-0.9826 -0.915849,-1.719055 -0.275737,-0.368224 -0.596284,-0.703503 -1.03448,-0.777185 z m -0.09174,0.520175 c 0.176794,0.02971 0.447518,0.246649 0.688074,0.567894 0.407154,0.54372 0.625138,1.125064 0.714961,1.346616 l -0.76242,0.247776 c -0.08898,-0.07249 -0.377642,-0.303674 -0.716541,-0.666382 -0.19394,-0.207558 -0.374476,-0.433444 -0.477702,-0.621751 -0.102789,-0.187521 -0.106627,-0.30547 -0.08858,-0.341662 0.137379,-0.247713 0.271243,-0.39362 0.37646,-0.464772 0.106207,-0.07178 0.177346,-0.08258 0.265743,-0.06769 z"
       style="color:#000000;font-style:normal;font-variant:normal;font-weight:normal;font-stretch:normal;font-size:medium;line-height:normal;font-family:sans-serif;font-variant-ligatures:normal;font-variant-position:normal;font-variant-caps:normal;font-variant-numeric:normal;font-variant-alternates:normal;font-variant-east-asian:normal;font-feature-settings:normal;font-variation-settings:normal;text-indent:0;text-align:start;text-decoration:none;text-decoration-line:none;text-decoration-style:solid;text-decoration-color:#000000;letter-spacing:normal;word-spacing:normal;text-transform:none;writing-mode:lr-tb;direction:ltr;text-orientation:mixed;dominant-baseline:auto;baseline-shift:baseline;text-anchor:start;white-space:normal;shape-padding:0;shape-margin:0;inline-size:0;clip-rule:nonzero;display:inline;overflow:visible;visibility:visible;isolation:auto;mix-blend-mode:normal;color-interpolation:sRGB;color-interpolation-filters:linearRGB;solid-color:#000000;solid-opacity:1;vector-effect:none;fill:#040000;fill-opacity:1;fill-rule:nonzero;stroke:none;stroke-width:0.529167;stroke-linecap:round;stroke-linejoin:round;stroke-miterlimit:4;stroke-dasharray:none;stroke-dashoffset:0;stroke-opacity:1;color-rendering:auto;image-rendering:auto;shape-rendering:auto;text-rendering:auto;enable-background:accumulate;stop-color:#000000" />
    <path
       id="path2390"
       d="m 46.242913,24.666647 c 0,0 -1.37678,-5.673346 5.42613,-5.988532 4.697247,-0.157593 7.369819,1.024354 6.316987,6.303717 0,0 4.454286,5.909736 -2.348623,7.722054 0,0 -3.320467,0.709168 -7.207845,0 0,0 -6.640935,-1.418337 -2.186649,-8.037239 z"
       style="color:#000000;font-style:normal;font-variant:normal;font-weight:normal;font-stretch:normal;font-size:medium;line-height:normal;font-family:sans-serif;font-variant-ligatures:normal;font-variant-position:normal;font-variant-caps:normal;font-variant-numeric:normal;font-variant-alternates:normal;font-variant-east-asian:normal;font-feature-settings:normal;font-variation-settings:normal;text-indent:0;text-align:start;text-decoration:none;text-decoration-line:none;text-decoration-style:solid;text-decoration-color:#000000;letter-spacing:normal;word-spacing:normal;text-transform:none;writing-mode:lr-tb;direction:ltr;text-orientation:mixed;dominant-baseline:auto;baseline-shift:baseline;text-anchor:start;white-space:normal;shape-padding:0;shape-margin:0;inline-size:0;clip-rule:nonzero;display:inline;overflow:visible;visibility:visible;isolation:auto;mix-blend-mode:normal;color-interpolation:sRGB;color-interpolation-filters:linearRGB;solid-color:#000000;solid-opacity:1;vector-effect:none;fill:#dd8c56;fill-opacity:1;fill-rule:nonzero;stroke:none;stroke-width:0.529167;stroke-linecap:round;stroke-linejoin:round;stroke-miterlimit:4;stroke-dasharray:none;stroke-dashoffset:0;stroke-opacity:1;color-rendering:auto;image-rendering:auto;shape-rendering:auto;text-rendering:auto;enable-background:accumulate;stop-color:#000000" />
    <path
       id="path2392"
       d="m 51.660183,18.413713 a 0.27128949,0.26395162 0 0 0 -0.0048,0.0016 c -3.479559,0.16121 -4.97257,1.749077 -5.507748,3.290367 -0.504291,1.452329 -0.217759,2.756805 -0.181905,2.913311 -1.080951,1.635594 -1.527214,2.988403 -1.531157,4.095265 -0.0041,1.130595 0.441565,2.000122 1.029733,2.63014 1.176345,1.260026 2.907312,1.617478 2.907312,1.617478 a 0.27128949,0.26395162 0 0 0 0.0081,0.0016 c 3.947072,0.720057 7.315719,-0.0016 7.315719,-0.0016 a 0.27128949,0.26395162 0 0 0 0.01425,-0.0032 c 1.744217,-0.464671 2.810144,-1.207792 3.392919,-2.08226 0.582766,-0.874467 0.666555,-1.856728 0.52831,-2.751722 -0.264479,-1.712208 -1.281052,-3.091784 -1.372981,-3.214959 0.491876,-2.602072 0.09655,-4.324248 -1.097754,-5.318761 -1.216409,-1.012906 -3.126107,-1.256969 -5.499845,-1.17733 z m 0.01895,0.527882 c 2.32351,-0.07793 4.097142,0.191081 5.128123,1.049592 1.030988,0.858503 1.430206,2.345093 0.912682,4.940168 a 0.27128949,0.26395162 0 0 0 0.04746,0.206227 c 0,0 1.077192,1.446175 1.32711,3.064134 0.124963,0.80898 0.0477,1.643655 -0.44764,2.386974 -0.494798,0.74246 -1.422942,1.417587 -3.076559,1.859107 -0.01474,0.0032 -3.269656,0.691975 -7.086364,-0.0032 -0.0056,-0.0016 -1.589143,-0.352456 -2.61784,-1.454346 -0.51528,-0.551929 -0.892518,-1.277724 -0.888962,-2.274633 0.0033,-0.996902 0.398983,-2.278455 1.493198,-3.904428 a 0.27128949,0.26395162 0 0 0 0.03636,-0.204681 c 0,0 -0.322142,-1.35753 0.155017,-2.731717 0.476981,-1.373683 1.696792,-2.778489 5.017397,-2.933316 z"
       style="color:#000000;font-style:normal;font-variant:normal;font-weight:normal;font-stretch:normal;font-size:medium;line-height:normal;font-family:sans-serif;font-variant-ligatures:normal;font-variant-position:normal;font-variant-caps:normal;font-variant-numeric:normal;font-variant-alternates:normal;font-variant-east-asian:normal;font-feature-settings:normal;font-variation-settings:normal;text-indent:0;text-align:start;text-decoration:none;text-decoration-line:none;text-decoration-style:solid;text-decoration-color:#000000;letter-spacing:normal;word-spacing:normal;text-transform:none;writing-mode:lr-tb;direction:ltr;text-orientation:mixed;dominant-baseline:auto;baseline-shift:baseline;text-anchor:start;white-space:normal;shape-padding:0;shape-margin:0;inline-size:0;clip-rule:nonzero;display:inline;overflow:visible;visibility:visible;isolation:auto;mix-blend-mode:normal;color-interpolation:sRGB;color-interpolation-filters:linearRGB;solid-color:#000000;solid-opacity:1;vector-effect:none;fill:#040000;fill-opacity:1;fill-rule:nonzero;stroke:none;stroke-width:0.529167;stroke-linecap:round;stroke-linejoin:round;stroke-miterlimit:4;stroke-dasharray:none;stroke-dashoffset:0;stroke-opacity:1;color-rendering:auto;image-rendering:auto;shape-rendering:auto;text-rendering:auto;enable-background:accumulate;stop-color:#000000" />
    <path
       sodipodi:nodetypes="ccscc"
       id="path2458"
       d="m 49.725355,28.212487 c 0,0 0.323948,3.467045 0.566908,3.624638 0.161975,0.157593 3.401455,0.23639 3.563429,-0.07879 0.161975,-0.315186 0.485923,-3.624637 0.485923,-3.624637 z"
       style="color:#000000;font-style:normal;font-variant:normal;font-weight:normal;font-stretch:normal;font-size:medium;line-height:normal;font-family:sans-serif;font-variant-ligatures:normal;font-variant-position:normal;font-variant-caps:normal;font-variant-numeric:normal;font-variant-alternates:normal;font-variant-east-asian:normal;font-feature-settings:normal;font-variation-settings:normal;text-indent:0;text-align:start;text-decoration:none;text-decoration-line:none;text-decoration-style:solid;text-decoration-color:#000000;letter-spacing:normal;word-spacing:normal;text-transform:none;writing-mode:lr-tb;direction:ltr;text-orientation:mixed;dominant-baseline:auto;baseline-shift:baseline;text-anchor:start;white-space:normal;shape-padding:0;shape-margin:0;inline-size:0;clip-rule:nonzero;display:inline;overflow:visible;visibility:visible;isolation:auto;mix-blend-mode:normal;color-interpolation:sRGB;color-interpolation-filters:linearRGB;solid-color:#000000;solid-opacity:1;vector-effect:none;fill:#ffffff;fill-opacity:1;fill-rule:nonzero;stroke:none;stroke-width:0.529167;stroke-linecap:round;stroke-linejoin:round;stroke-miterlimit:4;stroke-dasharray:none;stroke-dashoffset:0;stroke-opacity:1;color-rendering:auto;image-rendering:auto;shape-rendering:auto;text-rendering:auto;enable-background:accumulate;stop-color:#000000" />
    <path
       d="m 52.074593,27.633884 c -2.71e-4,8e-6 -0.09929,0.01689 -0.0996,0.01703 -2.72e-4,1.19e-4 -0.0675,0.03791 -0.06782,0.03815 -2.7e-4,2.27e-4 -0.03119,0.02566 -0.04133,0.03712 -0.01015,0.01148 -0.01788,0.02191 -0.02385,0.03093 -0.02382,0.03605 -0.02973,0.05607 -0.03497,0.07217 -0.01047,0.0322 -0.01205,0.04955 -0.01535,0.07061 -0.0067,0.04215 -0.01015,0.0885 -0.01429,0.14485 -0.0083,0.112704 -0.01492,0.265177 -0.02067,0.447953 -0.0115,0.365553 -0.02037,0.848987 -0.02542,1.332514 -0.0098,0.940484 -0.0095,1.829055 -0.0095,1.879951 -0.293875,-0.0057 -0.578299,-0.01592 -0.806368,-0.03299 -0.159733,-0.01196 -0.294822,-0.02566 -0.386231,-0.04021 -0.02401,-0.0038 -0.0334,-0.0073 -0.05033,-0.01082 -0.0066,-0.0179 -0.01106,-0.02929 -0.01907,-0.0567 -0.02774,-0.09495 -0.06026,-0.238853 -0.09166,-0.407744 -0.06279,-0.337784 -0.125321,-0.78315 -0.180666,-1.223747 -0.110694,-0.881188 -0.191262,-1.744897 -0.191262,-1.744897 a 0.27126237,0.26392523 0 0 0 -0.295632,-0.238671 0.27126237,0.26392523 0 0 0 -0.245303,0.287639 c 0,0 0.08083,0.869153 0.192852,1.760876 0.05601,0.445869 0.120203,0.897551 0.186493,1.254162 0.03314,0.178307 0.06683,0.33087 0.103312,0.455683 0.01823,0.0624 0.03536,0.117547 0.05986,0.170622 0.02154,0.04667 0.0524,0.09965 0.126626,0.157223 0.06744,0.0559 0.114807,0.07247 0.157883,0.08454 0.04949,0.01389 0.101314,0.02261 0.160001,0.03196 0.117383,0.01868 0.262517,0.03374 0.431796,0.04639 0.338557,0.02534 0.768912,0.04021 1.200548,0.04021 0.431646,0 0.862948,-0.01483 1.208495,-0.05103 0.17277,-0.0181 0.322309,-0.0396 0.450869,-0.07372 0.06428,-0.01705 0.123652,-0.03755 0.183313,-0.06804 0.05966,-0.03049 0.129596,-0.06971 0.180667,-0.169078 0.05461,-0.10628 0.06584,-0.186054 0.09166,-0.313925 0.0258,-0.127864 0.05199,-0.286702 0.07894,-0.46651 0.0539,-0.359619 0.109208,-0.803803 0.160005,-1.238696 0.101591,-0.869795 0.183314,-1.69902 0.183314,-1.69902 a 0.27126237,0.26392523 0 0 0 -0.245303,-0.287636 0.27126237,0.26392523 0 0 0 -0.03815,0 0.27126237,0.26392523 0 0 0 -0.257488,0.238151 c 0,0 -0.07978,0.824983 -0.180666,1.68871 -0.05044,0.431869 -0.105491,0.873682 -0.157882,1.223233 -0.02621,0.174777 -0.05286,0.326766 -0.07577,0.440217 -0.01698,0.0841 -0.02642,0.111575 -0.03178,0.13248 -0.01215,0.0043 -0.01516,0.006 -0.03338,0.01082 -0.08025,0.0213 -0.21039,0.04188 -0.366629,0.05825 -0.264255,0.02769 -0.608566,0.04037 -0.960545,0.04433 -2.4e-5,-0.04906 -2.71e-4,-0.939405 0.0095,-1.877377 0.005,-0.481729 0.01256,-0.963307 0.02385,-1.321688 0.0056,-0.179189 0.01343,-0.327853 0.02067,-0.4263 0.0032,-0.04398 0.0055,-0.07353 0.008,-0.09072 a 0.27126237,0.26392523 0 0 0 0.01907,-0.09434 0.27126237,0.26392523 0 0 0 -0.270733,-0.262896 z"
       style="color:#000000;font-style:normal;font-variant:normal;font-weight:normal;font-stretch:normal;font-size:medium;line-height:normal;font-family:sans-serif;font-variant-ligatures:normal;font-variant-position:normal;font-variant-caps:normal;font-variant-numeric:normal;font-variant-alternates:normal;font-variant-east-asian:normal;font-feature-settings:normal;font-variation-settings:normal;text-indent:0;text-align:start;text-decoration:none;text-decoration-line:none;text-decoration-style:solid;text-decoration-color:#000000;letter-spacing:normal;word-spacing:normal;text-transform:none;writing-mode:lr-tb;direction:ltr;text-orientation:mixed;dominant-baseline:auto;baseline-shift:baseline;text-anchor:start;white-space:normal;shape-padding:0;shape-margin:0;inline-size:0;clip-rule:nonzero;display:inline;overflow:visible;visibility:visible;isolation:auto;mix-blend-mode:normal;color-interpolation:sRGB;color-interpolation-filters:linearRGB;solid-color:#000000;solid-opacity:1;vector-effect:none;fill:#040000;fill-opacity:1;fill-rule:nonzero;stroke:none;stroke-width:0.529167;stroke-linecap:round;stroke-linejoin:round;stroke-miterlimit:4;stroke-dasharray:none;stroke-dashoffset:0;stroke-opacity:1;color-rendering:auto;image-rendering:auto;shape-rendering:auto;text-rendering:auto;enable-background:accumulate;stop-color:#000000"
       id="path2460" />
    <path
       d="m 50.211253,21.408443 c -0.252548,0 -0.474194,0.113989 -0.605572,0.269597 -0.131378,0.155605 -0.188017,0.33514 -0.218281,0.500014 -0.06009,0.327336 -0.01177,0.625002 -0.01112,0.629399 5.42e-4,0.0071 0.02029,0.234632 0.101191,0.481972 0.04106,0.12565 0.09526,0.257481 0.191262,0.378364 0.09236,0.116303 0.254086,0.221003 0.444509,0.229387 0.03491,0.0071 0.230902,0.05405 0.485308,-0.03712 0.275071,-0.09859 0.562237,-0.397012 0.61087,-0.900025 0.04284,-0.416511 0.03543,-0.774357 -0.117088,-1.071168 -0.152531,-0.29681 -0.489306,-0.480425 -0.881074,-0.480425 z"
       style="color:#000000;font-style:normal;font-variant:normal;font-weight:normal;font-stretch:normal;font-size:medium;line-height:normal;font-family:sans-serif;font-variant-ligatures:normal;font-variant-position:normal;font-variant-caps:normal;font-variant-numeric:normal;font-variant-alternates:normal;font-variant-east-asian:normal;font-feature-settings:normal;font-variation-settings:normal;text-indent:0;text-align:start;text-decoration:none;text-decoration-line:none;text-decoration-style:solid;text-decoration-color:#000000;letter-spacing:normal;word-spacing:normal;text-transform:none;writing-mode:lr-tb;direction:ltr;text-orientation:mixed;dominant-baseline:auto;baseline-shift:baseline;text-anchor:start;white-space:normal;shape-padding:0;shape-margin:0;inline-size:0;clip-rule:nonzero;display:inline;overflow:visible;visibility:visible;isolation:auto;mix-blend-mode:normal;color-interpolation:sRGB;color-interpolation-filters:linearRGB;solid-color:#000000;solid-opacity:1;vector-effect:none;fill:#040000;fill-opacity:1;fill-rule:nonzero;stroke:none;stroke-width:0.529167;stroke-linecap:round;stroke-linejoin:round;stroke-miterlimit:4;stroke-dasharray:none;stroke-dashoffset:0;stroke-opacity:1;color-rendering:auto;image-rendering:auto;shape-rendering:auto;text-rendering:auto;enable-background:accumulate;stop-color:#000000"
       id="path2439" />
    <path
       d="m 54.131845,21.417205 c -0.161233,0.0048 -0.260103,0.06201 -0.307821,0.08506 -0.174397,0.01301 -0.330612,0.09718 -0.422258,0.20207 -0.09853,0.112785 -0.15395,0.236628 -0.19603,0.353617 -0.08276,0.230053 -0.103674,0.440719 -0.104371,0.44795 -8.14e-4,0.0047 -0.04897,0.303604 0.01112,0.630948 0.03029,0.164874 0.0869,0.344406 0.218282,0.500014 0.129004,0.152794 0.347574,0.260962 0.594447,0.264958 0.192262,0.01985 0.374423,0.0016 0.526629,-0.07836 0.158599,-0.08309 0.270245,-0.221853 0.338549,-0.368051 0.136602,-0.29239 0.145697,-0.63155 0.145697,-0.995906 0,-0.307212 -0.0543,-0.538619 -0.167949,-0.715483 -0.113615,-0.176875 -0.292611,-0.279522 -0.453518,-0.310836 -0.06796,-0.01322 -0.12904,-0.01761 -0.182782,-0.01599 z"
       style="color:#000000;font-style:normal;font-variant:normal;font-weight:normal;font-stretch:normal;font-size:medium;line-height:normal;font-family:sans-serif;font-variant-ligatures:normal;font-variant-position:normal;font-variant-caps:normal;font-variant-numeric:normal;font-variant-alternates:normal;font-variant-east-asian:normal;font-feature-settings:normal;font-variation-settings:normal;text-indent:0;text-align:start;text-decoration:none;text-decoration-line:none;text-decoration-style:solid;text-decoration-color:#000000;letter-spacing:normal;word-spacing:normal;text-transform:none;writing-mode:lr-tb;direction:ltr;text-orientation:mixed;dominant-baseline:auto;baseline-shift:baseline;text-anchor:start;white-space:normal;shape-padding:0;shape-margin:0;inline-size:0;clip-rule:nonzero;display:inline;overflow:visible;visibility:visible;isolation:auto;mix-blend-mode:normal;color-interpolation:sRGB;color-interpolation-filters:linearRGB;solid-color:#000000;solid-opacity:1;vector-effect:none;fill:#040000;fill-opacity:1;fill-rule:nonzero;stroke:none;stroke-width:0.529167;stroke-linecap:round;stroke-linejoin:round;stroke-miterlimit:4;stroke-dasharray:none;stroke-dashoffset:0;stroke-opacity:1;color-rendering:auto;image-rendering:auto;shape-rendering:auto;text-rendering:auto;enable-background:accumulate;stop-color:#000000"
       id="path2433" />
    <path
       id="path3977-2-7-5-6-4_2_"
       sodipodi:nodetypes="ccscc"
       inkscape:connector-curvature="0"
       d="m 57.662083,27.660912 c 0,0 0.80987,-2.285097 -2.348624,-1.969911 0,0 -2.186649,0.630371 -2.510598,1.260742 -0.890857,1.57593 -0.80987,1.260744 -0.80987,1.260744 2.67552,1.230596 5.045896,1.911933 5.669092,-0.551575 z"
       style="fill:#f4a876;stroke-width:0.529167;stroke-miterlimit:4;stroke-dasharray:none" />
    <path
       d="m 46.419938,27.172014 -0.517623,0.158767 0.08264,0.25207 c 0.340567,1.056206 0.920328,1.673146 1.600554,1.945421 0.680236,0.272273 1.421255,0.203134 2.094338,0.01082 1.126388,-0.321815 2.063416,-0.969843 2.353414,-1.182509 0.289442,0.212302 1.226979,0.86053 2.353942,1.182509 0.673083,0.192312 1.414105,0.26145 2.094339,-0.01082 0.680226,-0.272275 1.259987,-0.889215 1.600553,-1.945421 l 0.08212,-0.25207 -0.517094,-0.158767 -0.08212,0.252586 c -0.307329,0.953107 -0.769633,1.408139 -1.289027,1.616027 -0.519387,0.207896 -1.134251,0.164391 -1.736714,-0.0078 -1.20493,-0.344262 -2.29566,-1.183538 -2.29566,-1.183538 l -0.202918,-0.158253 -0.0058,-0.0067 -0.0016,0.0011 -0.0016,-0.0011 -0.0058,0.0067 -0.202915,0.158253 c 0,0 -1.0902,0.839276 -2.295135,1.183538 -0.602463,0.172125 -1.217328,0.215629 -1.736715,0.0078 C 47.271555,28.832739 46.80925,28.377707 46.50192,27.4246 Z"
       style="color:#000000;font-style:normal;font-variant:normal;font-weight:normal;font-stretch:normal;font-size:medium;line-height:normal;font-family:sans-serif;font-variant-ligatures:normal;font-variant-position:normal;font-variant-caps:normal;font-variant-numeric:normal;font-variant-alternates:normal;font-variant-east-asian:normal;font-feature-settings:normal;font-variation-settings:normal;text-indent:0;text-align:start;text-decoration:none;text-decoration-line:none;text-decoration-style:solid;text-decoration-color:#000000;letter-spacing:normal;word-spacing:normal;text-transform:none;writing-mode:lr-tb;direction:ltr;text-orientation:mixed;dominant-baseline:auto;baseline-shift:baseline;text-anchor:start;white-space:normal;shape-padding:0;shape-margin:0;inline-size:0;clip-rule:nonzero;display:inline;overflow:visible;visibility:visible;isolation:auto;mix-blend-mode:normal;color-interpolation:sRGB;color-interpolation-filters:linearRGB;solid-color:#000000;solid-opacity:1;vector-effect:none;fill:#040000;fill-opacity:1;fill-rule:nonzero;stroke:none;stroke-width:0.529167;stroke-linecap:square;stroke-linejoin:round;stroke-miterlimit:4;stroke-dasharray:none;stroke-dashoffset:0;stroke-opacity:1;color-rendering:auto;image-rendering:auto;shape-rendering:auto;text-rendering:auto;enable-background:accumulate;stop-color:#000000"
       id="path2398" />
    <path
       style="color:#000000;font-style:normal;font-variant:normal;font-weight:normal;font-stretch:normal;font-size:medium;line-height:normal;font-family:sans-serif;font-variant-ligatures:normal;font-variant-position:normal;font-variant-caps:normal;font-variant-numeric:normal;font-variant-alternates:normal;font-variant-east-asian:normal;font-feature-settings:normal;font-variation-settings:normal;text-indent:0;text-align:start;text-decoration:none;text-decoration-line:none;text-decoration-style:solid;text-decoration-color:#000000;letter-spacing:normal;word-spacing:normal;text-transform:none;writing-mode:lr-tb;direction:ltr;text-orientation:mixed;dominant-baseline:auto;baseline-shift:baseline;text-anchor:start;white-space:normal;shape-padding:0;shape-margin:0;inline-size:0;clip-rule:nonzero;display:inline;overflow:visible;visibility:visible;isolation:auto;mix-blend-mode:normal;color-interpolation:sRGB;color-interpolation-filters:linearRGB;solid-color:#000000;solid-opacity:1;vector-effect:none;fill:#040000;fill-opacity:1;fill-rule:nonzero;stroke:none;stroke-width:0.529167;stroke-linecap:round;stroke-linejoin:round;stroke-miterlimit:4;stroke-dasharray:none;stroke-dashoffset:0;stroke-opacity:1;color-rendering:auto;image-rendering:auto;shape-rendering:auto;text-rendering:auto;enable-background:accumulate;stop-color:#000000"
       d="m 63.499789,23.929466 c -3.688854,-0.07976 -7.594112,0.715637 -7.594112,0.715637 a 0.27126236,0.26392522 0 0 0 -0.21038,0.312413 0.27126236,0.26392522 0 0 0 0.321105,0.203145 c 0,0 3.870758,-0.781157 7.470736,-0.703313 a 0.27126236,0.26392522 0 0 0 0.276814,-0.25702 0.27126236,0.26392522 0 0 0 -0.264163,-0.270862 z"
       id="path2501" />
    <path
       style="color:#000000;font-style:normal;font-variant:normal;font-weight:normal;font-stretch:normal;font-size:medium;line-height:normal;font-family:sans-serif;font-variant-ligatures:normal;font-variant-position:normal;font-variant-caps:normal;font-variant-numeric:normal;font-variant-alternates:normal;font-variant-east-asian:normal;font-feature-settings:normal;font-variation-settings:normal;text-indent:0;text-align:start;text-decoration:none;text-decoration-line:none;text-decoration-style:solid;text-decoration-color:#000000;letter-spacing:normal;word-spacing:normal;text-transform:none;writing-mode:lr-tb;direction:ltr;text-orientation:mixed;dominant-baseline:auto;baseline-shift:baseline;text-anchor:start;white-space:normal;shape-padding:0;shape-margin:0;inline-size:0;clip-rule:nonzero;display:inline;overflow:visible;visibility:visible;isolation:auto;mix-blend-mode:normal;color-interpolation:sRGB;color-interpolation-filters:linearRGB;solid-color:#000000;solid-opacity:1;vector-effect:none;fill:#040000;fill-opacity:1;fill-rule:nonzero;stroke:none;stroke-width:0.529167;stroke-linecap:round;stroke-linejoin:round;stroke-miterlimit:4;stroke-dasharray:none;stroke-dashoffset:0;stroke-opacity:1;color-rendering:auto;image-rendering:auto;shape-rendering:auto;text-rendering:auto;enable-background:accumulate;stop-color:#000000"
       d="m 62.949336,25.646985 c -0.219572,-7.89e-4 -0.515256,0.0024 -0.863654,0.0079 -0.696788,0.01111 -1.601153,0.03388 -2.497632,0.05846 -1.792938,0.04925 -3.555831,0.107731 -3.555831,0.107731 a 0.27126236,0.26392522 0 0 0 -0.260997,0.273944 0.27126236,0.26392522 0 0 0 0.27998,0.253937 c 0,0 1.761937,-0.05854 3.552674,-0.10773 0.89536,-0.02459 1.797069,-0.04743 2.489719,-0.05846 0.346317,-0.0055 0.640316,-0.0088 0.852574,-0.0079 0.106133,5.29e-4 0.192329,0.0024 0.251506,0.0047 0.02956,0.0016 0.05369,0.0032 0.06641,0.0047 0.01279,7.88e-4 0.02486,0.0081 -0.01895,-0.0063 a 0.27126236,0.26392522 0 0 0 0.343247,-0.16775 0.27126236,0.26392522 0 0 0 -0.170833,-0.332426 c -0.05904,-0.01914 -0.07467,-0.01742 -0.102814,-0.02001 -0.02818,-0.0024 -0.05953,-0.0032 -0.09491,-0.0047 -0.0707,-0.0032 -0.160702,-0.0055 -0.27048,-0.0063 z"
       id="path2497" />
    <path
       style="color:#000000;font-style:normal;font-variant:normal;font-weight:normal;font-stretch:normal;font-size:medium;line-height:normal;font-family:sans-serif;font-variant-ligatures:normal;font-variant-position:normal;font-variant-caps:normal;font-variant-numeric:normal;font-variant-alternates:normal;font-variant-east-asian:normal;font-feature-settings:normal;font-variation-settings:normal;text-indent:0;text-align:start;text-decoration:none;text-decoration-line:none;text-decoration-style:solid;text-decoration-color:#000000;letter-spacing:normal;word-spacing:normal;text-transform:none;writing-mode:lr-tb;direction:ltr;text-orientation:mixed;dominant-baseline:auto;baseline-shift:baseline;text-anchor:start;white-space:normal;shape-padding:0;shape-margin:0;inline-size:0;clip-rule:nonzero;display:inline;overflow:visible;visibility:visible;isolation:auto;mix-blend-mode:normal;color-interpolation:sRGB;color-interpolation-filters:linearRGB;solid-color:#000000;solid-opacity:1;vector-effect:none;fill:#040000;fill-opacity:1;fill-rule:nonzero;stroke:none;stroke-width:0.529167;stroke-linecap:round;stroke-linejoin:round;stroke-miterlimit:4;stroke-dasharray:none;stroke-dashoffset:0;stroke-opacity:1;color-rendering:auto;image-rendering:auto;shape-rendering:auto;text-rendering:auto;enable-background:accumulate;stop-color:#000000"
       d="m 55.867718,26.767376 a 0.27126236,0.26392522 0 0 0 -0.25783,0.237004 0.27126236,0.26392522 0 0 0 0.243593,0.289325 l 7.288831,0.707939 a 0.27126236,0.26392522 0 0 0 0.297368,-0.235468 0.27126236,0.26392522 0 0 0 -0.243593,-0.289325 l -7.288831,-0.709475 a 0.27126236,0.26392522 0 0 0 -0.03952,0 z"
       id="path2493" />
    <path
       style="color:#000000;font-style:normal;font-variant:normal;font-weight:normal;font-stretch:normal;font-size:medium;line-height:normal;font-family:sans-serif;font-variant-ligatures:normal;font-variant-position:normal;font-variant-caps:normal;font-variant-numeric:normal;font-variant-alternates:normal;font-variant-east-asian:normal;font-feature-settings:normal;font-variation-settings:normal;text-indent:0;text-align:start;text-decoration:none;text-decoration-line:none;text-decoration-style:solid;text-decoration-color:#000000;letter-spacing:normal;word-spacing:normal;text-transform:none;writing-mode:lr-tb;direction:ltr;text-orientation:mixed;dominant-baseline:auto;baseline-shift:baseline;text-anchor:start;white-space:normal;shape-padding:0;shape-margin:0;inline-size:0;clip-rule:nonzero;display:inline;overflow:visible;visibility:visible;isolation:auto;mix-blend-mode:normal;color-interpolation:sRGB;color-interpolation-filters:linearRGB;solid-color:#000000;solid-opacity:1;vector-effect:none;fill:#040000;fill-opacity:1;fill-rule:nonzero;stroke:none;stroke-width:0.529167;stroke-linecap:round;stroke-linejoin:miter;stroke-miterlimit:4;stroke-dasharray:none;stroke-dashoffset:0;stroke-opacity:1;color-rendering:auto;image-rendering:auto;shape-rendering:auto;text-rendering:auto;enable-background:accumulate;stop-color:#000000"
       d="m 41.222034,23.615517 a 0.27126236,0.26392522 0 0 0 -0.272068,0.263164 0.27126236,0.26392522 0 0 0 0.272068,0.263165 c 3.276362,0 6.906038,0.781811 6.906038,0.781811 a 0.27126236,0.26392522 0 0 0 0.322685,-0.200064 0.27126236,0.26392522 0 0 0 -0.205626,-0.313957 c 0,0 -3.658524,-0.794119 -7.023097,-0.794119 z"
       id="path2481" />
    <path
       id="path3977-2-7-5-6-4_2_-6"
       sodipodi:nodetypes="ccscc"
       inkscape:connector-curvature="0"
       d="m 46.413658,27.452306 c 0,0 -0.80987,-2.285097 2.348632,-1.969911 0,0 2.186649,0.630371 2.510588,1.260744 0.890859,1.575928 0.809871,1.260742 0.809871,1.260742 -2.675511,1.230597 -5.045896,1.911934 -5.669091,-0.551575 z"
       style="fill:#f4a876;stroke-width:0.529167;stroke-miterlimit:4;stroke-dasharray:none" />
    <path
       style="color:#000000;font-style:normal;font-variant:normal;font-weight:normal;font-stretch:normal;font-size:medium;line-height:normal;font-family:sans-serif;font-variant-ligatures:normal;font-variant-position:normal;font-variant-caps:normal;font-variant-numeric:normal;font-variant-alternates:normal;font-variant-east-asian:normal;font-feature-settings:normal;font-variation-settings:normal;text-indent:0;text-align:start;text-decoration:none;text-decoration-line:none;text-decoration-style:solid;text-decoration-color:#000000;letter-spacing:normal;word-spacing:normal;text-transform:none;writing-mode:lr-tb;direction:ltr;text-orientation:mixed;dominant-baseline:auto;baseline-shift:baseline;text-anchor:start;white-space:normal;shape-padding:0;shape-margin:0;inline-size:0;clip-rule:nonzero;display:inline;overflow:visible;visibility:visible;isolation:auto;mix-blend-mode:normal;color-interpolation:sRGB;color-interpolation-filters:linearRGB;solid-color:#000000;solid-opacity:1;vector-effect:none;fill:#040000;fill-opacity:1;fill-rule:nonzero;stroke:none;stroke-width:0.529167;stroke-linecap:round;stroke-linejoin:miter;stroke-miterlimit:4;stroke-dasharray:none;stroke-dashoffset:0;stroke-opacity:1;color-rendering:auto;image-rendering:auto;shape-rendering:auto;text-rendering:auto;enable-background:accumulate;stop-color:#000000"
       d="m 41.663348,25.411518 c -0.103258,5.51e-4 -0.188796,0.0016 -0.256243,0.0047 -0.06746,0.0032 -0.07815,-0.01158 -0.189817,0.02459 a 0.27126236,0.26392522 0 0 0 -0.172413,0.333963 0.27126236,0.26392522 0 0 0 0.343247,0.166213 c -0.08132,0.02639 -0.01263,0.0055 0.04268,0.0032 0.05531,-0.0024 0.136317,-0.004 0.235688,-0.0047 0.198734,-7.88e-4 0.47375,6.38e-4 0.797212,0.0063 0.64694,0.01103 1.489051,0.03389 2.32363,0.05846 1.669167,0.04917 3.307502,0.107722 3.307502,0.107722 a 0.27126236,0.26392522 0 0 0 0.281559,-0.25393 0.27126236,0.26392522 0 0 0 -0.260996,-0.272398 c 0,0 -1.640692,-0.05996 -3.31224,-0.109276 -0.835778,-0.02466 -1.678577,-0.04586 -2.329964,-0.05697 -0.32569,-0.0055 -0.603353,-0.0088 -0.80987,-0.0079 z"
       id="path2485" />
    <path
       style="color:#000000;font-style:normal;font-variant:normal;font-weight:normal;font-stretch:normal;font-size:medium;line-height:normal;font-family:sans-serif;font-variant-ligatures:normal;font-variant-position:normal;font-variant-caps:normal;font-variant-numeric:normal;font-variant-alternates:normal;font-variant-east-asian:normal;font-feature-settings:normal;font-variation-settings:normal;text-indent:0;text-align:start;text-decoration:none;text-decoration-line:none;text-decoration-style:solid;text-decoration-color:#000000;letter-spacing:normal;word-spacing:normal;text-transform:none;writing-mode:lr-tb;direction:ltr;text-orientation:mixed;dominant-baseline:auto;baseline-shift:baseline;text-anchor:start;white-space:normal;shape-padding:0;shape-margin:0;inline-size:0;clip-rule:nonzero;display:inline;overflow:visible;visibility:visible;isolation:auto;mix-blend-mode:normal;color-interpolation:sRGB;color-interpolation-filters:linearRGB;solid-color:#000000;solid-opacity:1;vector-effect:none;fill:#040000;fill-opacity:1;fill-rule:nonzero;stroke:none;stroke-width:0.529167;stroke-linecap:round;stroke-linejoin:miter;stroke-miterlimit:4;stroke-dasharray:none;stroke-dashoffset:0;stroke-opacity:1;color-rendering:auto;image-rendering:auto;shape-rendering:auto;text-rendering:auto;enable-background:accumulate;stop-color:#000000"
       d="m 48.186601,26.530364 a 0.27126236,0.26392522 0 0 0 -0.03167,0.0016 l -6.803225,0.787964 a 0.27126236,0.26392522 0 0 0 -0.237267,0.293943 0.27126236,0.26392522 0 0 0 0.300534,0.23085 l 6.803225,-0.787964 a 0.27126236,0.26392522 0 0 0 0.237268,-0.293943 0.27126236,0.26392522 0 0 0 -0.268901,-0.232394 z"
       id="path2489" />
    <path
       id="path2410"
       d="m 52.318373,24.473769 a 0.31610804,0.22652803 0 0 0 -0.09331,0.01055 l -1.047648,0.01993 c -0.52504,0.0039 -0.938543,0.05996 -1.263722,0.171264 -0.326402,0.111694 -0.559952,0.288536 -0.674428,0.495038 -0.22895,0.412997 -0.03385,0.872664 0.252089,1.304444 0.570351,0.861088 1.617829,1.671652 1.623854,1.676309 0.188117,0.160492 0.401526,0.26192 0.618774,0.300309 0.218964,0.03869 0.426712,0.01142 0.586021,-0.03633 0.314481,-0.09433 0.488085,-0.264117 0.492725,-0.268633 0.0166,-0.01253 1.100541,-0.826559 1.705709,-1.693902 0.304899,-0.43699 0.51796,-0.900148 0.289731,-1.318526 -0.114103,-0.209188 -0.354034,-0.387394 -0.687516,-0.497379 -0.307426,-0.101395 -0.714701,-0.142543 -1.19825,-0.150155 a 0.31610804,0.22652803 0 0 0 -0.101489,-0.01293 h -0.0084 z"
       style="color:#000000;font-style:normal;font-variant:normal;font-weight:normal;font-stretch:normal;font-size:medium;line-height:normal;font-family:sans-serif;font-variant-ligatures:normal;font-variant-position:normal;font-variant-caps:normal;font-variant-numeric:normal;font-variant-alternates:normal;font-variant-east-asian:normal;font-feature-settings:normal;font-variation-settings:normal;text-indent:0;text-align:start;text-decoration:none;text-decoration-line:none;text-decoration-style:solid;text-decoration-color:#000000;letter-spacing:normal;word-spacing:normal;text-transform:none;writing-mode:lr-tb;direction:ltr;text-orientation:mixed;dominant-baseline:auto;baseline-shift:baseline;text-anchor:start;white-space:normal;shape-padding:0;shape-margin:0;inline-size:0;clip-rule:nonzero;display:inline;overflow:visible;visibility:visible;isolation:auto;mix-blend-mode:normal;color-interpolation:sRGB;color-interpolation-filters:linearRGB;solid-color:#000000;solid-opacity:1;vector-effect:none;fill:#040000;fill-opacity:1;fill-rule:nonzero;stroke:none;stroke-width:0.529167;stroke-linecap:round;stroke-linejoin:round;stroke-miterlimit:4;stroke-dasharray:none;stroke-dashoffset:0;stroke-opacity:1;color-rendering:auto;image-rendering:auto;shape-rendering:auto;text-rendering:auto;enable-background:accumulate;stop-color:#000000" />
  </g>
</svg>
