<?xml version="1.0" encoding="UTF-8" standalone="no"?>
<svg
   xmlns:dc="http://purl.org/dc/elements/1.1/"
   xmlns:cc="http://creativecommons.org/ns#"
   xmlns:rdf="http://www.w3.org/1999/02/22-rdf-syntax-ns#"
   xmlns:svg="http://www.w3.org/2000/svg"
   xmlns="http://www.w3.org/2000/svg"
   xmlns:sodipodi="http://sodipodi.sourceforge.net/DTD/sodipodi-0.dtd"
   xmlns:inkscape="http://www.inkscape.org/namespaces/inkscape"
   width="105mm"
   height="105mm"
   viewBox="0 0 104.99999 105"
   version="1.1"
   id="svg8224"
   sodipodi:docname="2020-SK-01-king.svg"
   inkscape:version="1.0 (4035a4fb49, 2020-05-01)">
  <defs
     id="defs8218" />
  <sodipodi:namedview
     id="base"
     pagecolor="#ffffff"
     bordercolor="#666666"
     borderopacity="1.0"
     inkscape:pageopacity="0.0"
     inkscape:pageshadow="2"
     inkscape:zoom="0.35"
     inkscape:cx="400"
     inkscape:cy="560"
     inkscape:document-units="mm"
     inkscape:current-layer="layer1"
     inkscape:document-rotation="0"
     showgrid="false"
     fit-margin-top="0"
     fit-margin-left="0"
     fit-margin-right="0"
     fit-margin-bottom="0" />
  <metadata
     id="metadata8221">
    <rdf:RDF>
      <cc:Work
         rdf:about="">
        <dc:format>image/svg+xml</dc:format>
        <dc:type
           rdf:resource="http://purl.org/dc/dcmitype/StillImage" />
        <dc:title></dc:title>
      </cc:Work>
    </rdf:RDF>
  </metadata>
  <g
     inkscape:label="Ebene 1"
     inkscape:groupmode="layer"
     id="layer1"
     transform="translate(-94.028208,-55.599339)">
    <g
       style="stroke-width:1.00221"
       id="g7957"
       transform="matrix(0.98818422,0,0,1.0074965,8.6900347,-166.36614)">
      <path
         id="path2142-2"
         style="fill:#ff0000;stroke:none;stroke-width:1.20511px;stroke-linecap:butt;stroke-linejoin:miter;stroke-opacity:1"
         d="m 432.23047,1160.8398 c -9.1378,-0.032 -18.2937,0.9031 -27.49609,2.875 -20.08128,4.3031 -61.71318,27.5221 -70.58985,45.2754 -2.2618,6.7278 -4.71936,12.2096 -7.24805,17.0879 h 400.5918 c -21.74164,-19.0472 -54.67201,-42.5841 -77.58594,-39.5566 l -182.45117,-20.9063 c -11.75331,-3.0938 -23.4721,-4.7341 -35.2207,-4.7754 z"
         transform="scale(0.26458333)" />
      <path
         id="path2142-12-1"
         style="fill:#e60505;fill-opacity:1;stroke:none;stroke-width:1.20511px;stroke-linecap:butt;stroke-linejoin:miter;stroke-opacity:1"
         d="m 432.23047,1160.8398 c -9.1378,-0.03 -18.29374,0.9031 -27.49609,2.875 -20.08132,4.3031 -61.71514,27.5221 -70.5918,45.2754 -2.26181,6.7278 -4.71746,12.2097 -7.2461,17.0879 h 47.72071 c 0.74973,-1.9038 1.48597,-3.898 2.20117,-6.0254 8.87666,-17.7533 50.50857,-40.9703 70.58984,-45.2734 21.03402,-4.5074 41.82198,-3.5997 62.7168,1.9004 l 177.12891,20.2949 c -13.19774,-7.2811 -26.41908,-11.8978 -37.35352,-10.4531 l -182.44922,-20.9063 c -11.75331,-3.0938 -23.47208,-4.7341 -35.2207,-4.7754 z"
         transform="scale(0.26458333)" />
      <path
         id="path2128-1-05"
         style="fill:#ffb380;stroke:none;stroke-width:1.20511px;stroke-linecap:butt;stroke-linejoin:miter;stroke-opacity:1"
         d="m 670.52539,856.41016 -148.01172,12.27929 c -12.6726,-9.07086 -26.33478,6.11039 -33.70312,16.14844 -22.13042,30.14884 -45.10915,129.43941 -24.42383,162.88281 14.52722,23.4872 40.22479,45.137 67.93164,57.4199 -9.02804,-0.1939 -18.34804,-0.6072 -28.0293,-1.8828 31.04557,12.6761 -13.83321,56.7598 -30.97265,62.9063 l 37.02148,59.914 h 82.91602 c 10.22235,-14.8963 17.99856,-30.2822 19.02734,-46.9043 5.97381,-17.0922 -2.32845,-7.5279 -3.24219,-23.0605 -0.44553,-7.5745 6.7153,-29.4913 2.85156,-35.1602 -4.15933,-2.8801 -8.36443,-5.2089 -12.62109,-7.1113 29.94652,-6.0815 53.9286,-25.882 77.34961,-51.334 8.9235,-9.6973 11.90501,-21.9123 17.15039,-33.5918 12.92916,-28.7883 15.99674,-56.01166 11.54688,-87.31639 -4.67524,-32.88971 -7.26136,-61.65177 -34.79102,-85.18945 z m -197.20898,309.75394 -5.86524,-0.5489 c 0.77496,1.5499 2.91142,1.6082 5.86524,0.5489 z"
         transform="scale(0.26458333)" />
      <path
         sodipodi:nodetypes="scsccsscscssccsccss"
         d="m 165.20937,221.49349 c -0.22632,-0.0269 -0.34348,0.67715 -0.42651,1.32304 -1.07182,-0.30702 -2.1692,-0.36188 -3.24792,-0.0134 -0.21053,0.068 -1.62908,0.28616 -1.68509,0.39709 -6.54081,-3.86388 -3.88051,-3.4933 -4.4742,0.0713 -1.25011,-1.33482 -1.73556,-0.61376 -3.44774,-0.96937 -1.20605,-0.25049 -4.37398,-1.46606 -5.26635,-0.79402 -0.29263,0.22037 2.32993,4.03661 1.79603,4.21484 -0.4387,-0.79858 -0.73398,-1.87388 -3.2752,-1.60989 -0.37117,0.0386 -7.08363,2.03708 -7.38556,2.23876 -2.4134,1.61202 -2.85575,2.78796 -5.47435,3.816 -0.30103,0.11817 -3.46308,3.39837 -2.28126,3.98592 1.18993,0.59159 -1.01872,2.73027 0.21999,3.19545 19.71315,4.11509 44.21313,8.98291 55.13753,-4.28087 0.32445,-0.0134 -1.97644,-4.57189 -7.24859,-6.21643 -1.77753,-0.55447 -1.93999,-0.71973 -3.71629,-1.66849 -5.95289,-2.45273 -2.8048,1.25293 -7.60266,-1.48683 -0.42218,-0.77322 -0.93778,-1.49031 -1.49609,-2.12111 -0.0454,-0.0513 -0.0871,-0.0774 -0.12573,-0.082 z"
         style="font-variation-settings:normal;vector-effect:none;fill:none;fill-opacity:1;stroke:#000000;stroke-width:0.265585;stroke-linecap:round;stroke-linejoin:round;stroke-miterlimit:4;stroke-dasharray:none;stroke-dashoffset:0;stroke-opacity:1;stop-color:#000000"
         id="path2148-7-7" />
      <path
         style="font-variation-settings:normal;vector-effect:none;fill:none;fill-opacity:1;stroke:#000000;stroke-width:0.265585;stroke-linecap:round;stroke-linejoin:round;stroke-miterlimit:4;stroke-dasharray:none;stroke-dashoffset:0;stroke-opacity:1;stop-color:#000000"
         d="m 161.89627,296.58564 c 1.02228,1.49988 -0.87216,7.29857 -0.75427,9.30264 0.24176,4.1097 2.43828,1.57912 0.85771,6.10143"
         id="path2132-5"
         sodipodi:nodetypes="csc" />
      <path
         id="path2128-1-0-8"
         style="font-variation-settings:normal;vector-effect:none;fill:#dca37c;fill-opacity:1;stroke:none;stroke-width:1.20511px;stroke-linecap:butt;stroke-linejoin:miter;stroke-miterlimit:4;stroke-dasharray:none;stroke-dashoffset:0;stroke-opacity:1;stop-color:#000000"
         d="m 670.52539,856.41016 -148.01172,12.27929 c -12.6726,-9.07086 -26.33478,6.11039 -33.70312,16.14844 -22.13042,30.14884 -45.10915,129.43941 -24.42383,162.88281 14.52722,23.4873 40.22479,45.137 67.93164,57.4199 -9.02804,-0.1939 -18.34804,-0.6073 -28.0293,-1.8828 31.04557,12.6761 -13.83321,56.7598 -30.97265,62.9063 l 37.02148,59.914 h 37.04297 l -34.94922,-56.5605 c -2.95381,1.0593 -5.09028,1.0011 -5.86523,-0.5488 l 5.86523,0.5488 c 17.13944,-6.1464 62.01823,-50.2302 30.97266,-62.9063 4.75528,0.6265 9.42254,1.0415 14.01172,1.3282 -36.54748,-4.3972 -44.35502,-31.9485 -64.53125,-46.2481 -45.65556,-32.3578 -4.83494,-132.42405 24.42382,-162.88281 8.62632,-8.98008 31.64771,-35.83649 44.32032,-26.76562 l 115.32812,-9.56836 c -1.98206,-2.05735 -4.11143,-4.08066 -6.43164,-6.06445 z M 557.41602,1107.9395 c 4.26683,0.5133 8.90112,0.731 14.01757,0.5546 -4.59363,-0.099 -9.26366,-0.2577 -14.01757,-0.5546 z m -84.09961,58.2246 -5.86524,-0.5489 c 0.77499,1.5499 2.91142,1.6082 5.86524,0.5489 z"
         transform="scale(0.26458333)" />
      <path
         style="font-variation-settings:normal;vector-effect:none;fill:none;fill-opacity:1;stroke:#000000;stroke-width:0.265585;stroke-linecap:round;stroke-linejoin:round;stroke-miterlimit:4;stroke-dasharray:none;stroke-dashoffset:0;stroke-opacity:1;stop-color:#000000"
         d="m 177.40991,226.59196 c 7.28389,6.22767 7.9681,13.83746 9.20509,22.53953 1.17736,8.28271 0.36581,15.48529 -3.05503,23.1022 -1.38784,3.09021 -2.17695,6.32219 -4.53797,8.88794 -8.23996,8.95451 -16.74133,15.2672 -28.86819,13.91414 -10.43073,-1.16381 -21.8317,-9.00946 -27.28502,-17.82625 -5.47299,-8.84859 0.60694,-35.11931 6.46228,-43.09619 1.94953,-2.65591 5.56453,-6.67261 8.91749,-4.27262"
         id="path2128-5"
         sodipodi:nodetypes="cssssssc" />
      <path
         style="font-variation-settings:normal;vector-effect:none;fill:#241f1c;fill-opacity:1;stroke:none;stroke-width:0.279179px;stroke-linecap:butt;stroke-linejoin:miter;stroke-miterlimit:4;stroke-dasharray:none;stroke-dashoffset:0;stroke-opacity:1;stop-color:#000000"
         d="m 181.4474,239.9834 c -0.19377,1.74653 0.89187,3.16391 1.3112,4.76861 0.32849,1.25708 -0.83941,1.721 0.10774,2.59258 0.33343,0.30682 1.00974,0.62691 1.24987,1.06108 0.0792,0.14324 0.0911,0.44002 0.20826,0.54786 0.65497,0.60269 1.85473,0.36599 2.45742,1.10365 0.19201,0.23501 0.81691,1.62836 1.25371,1.15367 0.2164,-0.23517 -0.005,-3.39352 -0.15776,-3.79627 -0.16793,-0.44173 -0.58592,-0.37436 -0.77151,-0.70995 -0.17712,-0.32026 0.53883,-0.64846 0.61351,-0.86027 0.14906,-0.42278 -0.30498,-0.904 -0.50914,-1.09186 -0.22959,-0.21127 0.48152,-0.38277 0.33959,-0.75613 -0.0299,-0.0787 -2.52972,-0.90303 -2.83163,-1.18085 -1.61408,-1.48527 0.10397,-3.82652 -3.27126,-2.83212 z"
         id="path2635-1" />
      <path
         style="font-variation-settings:normal;vector-effect:none;fill:none;fill-opacity:1;stroke:#000000;stroke-width:0.265585;stroke-linecap:round;stroke-linejoin:round;stroke-miterlimit:4;stroke-dasharray:none;stroke-dashoffset:0;stroke-opacity:1;stop-color:#000000"
         d="m 133.42657,291.90353 c 9.62977,3.9319 -8.35171,19.28863 -9.74654,16.49897"
         id="path2134-6" />
      <path
         style="fill:#241f1c;stroke:none;stroke-width:0.262187px;stroke-linecap:butt;stroke-linejoin:miter;stroke-opacity:1"
         d="m 185.5332,266.58376 c 1.92985,-1.45649 -1.26799,12.42425 -4.3717,16.2335 -0.67047,0.82287 -0.28584,-0.57914 -1.18409,-1.53946 -0.0225,-0.024 -0.45308,1.06377 -0.53103,1.83381 -0.18434,1.821 -0.79849,7.87314 -2.91471,8.37509 -0.79125,0.18767 -0.35778,-7.0483 -0.66084,-6.66494 -1.12011,1.41694 -0.4874,3.76463 -2.30566,4.55742 -0.29284,0.12768 -1.07862,-0.95249 -1.70564,-0.15933 -1.69441,2.14339 -1.26321,4.4881 -4.40416,5.54407 -1.90455,0.64031 -1.63524,-5.28596 -1.18009,-5.30487 0.91441,-0.038 -0.3251,2.08913 -0.44521,3.14162 -0.2,1.75232 -0.54654,3.966 -2.30566,4.55742 -1.0605,0.35653 -0.73556,-4.59936 -1.16578,-3.67352 -1.39797,3.00842 -0.34411,8.50216 -4.35999,9.25708 -2.91685,0.5483 -1.31016,-7.97644 -1.67433,-7.96131 -0.12498,0.005 -0.75734,2.95266 -1.55778,4.08018 -2.83963,3.99996 -5.45222,-1.36154 -5.92729,-2.79118 -0.26364,-0.79337 -0.14179,-1.76337 -0.37036,-0.96255 -0.46672,1.63517 -1.84111,4.76119 -3.63758,4.83585 -1.97371,0.082 -2.11303,-3.41491 -2.3204,-5.03441 -0.0565,-0.44159 -0.074,-1.78156 -0.0555,-1.33617 0.097,2.33382 -0.74486,5.31128 -3.02577,5.70275 -2.08864,0.35846 -3.15153,-3.8472 -3.67715,-5.42895 -0.0607,-0.18258 -1.67489,1.41357 -2.6205,1.67522 -1.25262,0.34659 -1.7174,-1.66099 -2.02702,-2.59272 -0.32704,-0.98418 -1.06094,-5.81896 -1.43996,-5.5771 -0.0727,0.0464 -1.91832,5.90871 -2.84918,3.97069 -1.54474,-3.21606 1.41908,-4.67661 -0.51037,-7.73854 -0.12718,-0.20182 -0.77104,2.56183 -1.21675,3.12563 -0.64467,0.81551 -0.0925,-2.22694 -0.13882,-3.34042 -0.0632,-1.52204 -0.50894,-3.01015 -0.56828,-4.43798 -0.0147,-0.3544 -0.52732,5.82027 -1.32916,4.963 -0.72077,-0.7706 -0.68418,-5.42167 -0.84318,-6.43428 -0.30896,-1.96768 -1.50263,-3.82953 -1.58179,-5.73434 -0.0617,-1.48464 1.13191,5.46617 0.18509,4.4539 -0.71554,-0.765 -0.70142,-9.34021 0.37769,-9.38505 0.52166,-0.0217 0.49852,3.32548 0.90521,3.30857 0.20006,-0.008 0.0553,-4.34933 0.75437,-4.9391 0.46571,-0.39286 0.24696,1.3241 0.27489,1.9963 0.0529,1.27383 0.165,6.94823 1.27264,7.53183 0.38803,0.20444 0.67754,-3.37437 1.20235,-3.39618 0.26084,-0.0108 1.10445,4.72538 1.17083,5.08218 0.75392,4.05207 1.02366,-1.03359 1.11256,-0.93854 0.92105,0.98471 0.10986,5.939 1.81966,6.83986 0.26484,0.13953 -0.0669,-3.43295 1.02001,-3.16552 1.86929,0.45995 2.88698,4.78857 4.66584,6.05234 0.41612,0.29564 0.27342,-2.26129 0.49149,-2.02813 1.43992,1.53944 1.11898,5.4108 3.33392,6.33076 1.64915,0.68498 2.90995,-6.03937 4.22161,-4.63704 0.65204,0.6971 2.14284,6.56724 4.04478,4.96275 0.39589,-0.33397 0.99798,-3.83218 1.76788,-3.64274 1.49976,0.36901 1.11106,3.96615 3.05903,4.33446 1.72195,0.32559 1.5171,-3.91087 2.16959,-3.21327 0.70809,0.75703 1.309,4.07961 2.62957,3.23692 1.10421,-0.70463 0.71381,-2.97011 1.76788,-3.64275 0.39843,-0.25424 1.22115,1.50249 1.39671,1.28044 0.76108,-0.96276 0.64674,-3.28749 1.95947,-3.65071 1.76638,-0.48875 1.60021,2.92997 2.97574,2.33021 1.73551,-0.75671 1.32993,-3.74853 2.67033,-5.01872 2.02418,-1.91817 2.2313,1.39853 3.40245,-1.2568 0.1247,-0.28272 1.4026,-3.07428 1.8049,-2.75197 0.12165,0.0975 0.94143,2.75787 1.24214,2.17919 0.2939,-0.56561 0.46155,-1.20895 0.69234,-1.81342 1.39881,-3.66381 1.43145,0.35836 2.49074,-0.10351 0.25575,-0.11145 3.37045,-6.18544 3.79216,-5.73459 0.19519,0.20867 -0.17008,0.67276 0.2286,0.88282 0.0102,0.005 0.74654,-3.67576 1.21162,-3.17346 0.6645,0.7177 1.98664,-2.84472 2.79167,-3.45229 z"
         id="path2130-95"
         sodipodi:nodetypes="ssssscssssssssssssscsssssssssssssssssssssccssscsssssssscssssssccscss" />
      <path
         id="path2917-8"
         style="color:#000000;font-style:normal;font-variant:normal;font-weight:normal;font-stretch:normal;font-size:medium;line-height:normal;font-family:sans-serif;font-variant-ligatures:normal;font-variant-position:normal;font-variant-caps:normal;font-variant-numeric:normal;font-variant-alternates:normal;font-variant-east-asian:normal;font-feature-settings:normal;font-variation-settings:normal;text-indent:0;text-align:start;text-decoration:none;text-decoration-line:none;text-decoration-style:solid;text-decoration-color:#000000;letter-spacing:normal;word-spacing:normal;text-transform:none;writing-mode:lr-tb;direction:ltr;text-orientation:mixed;dominant-baseline:auto;baseline-shift:baseline;text-anchor:start;white-space:normal;shape-padding:0;shape-margin:0;inline-size:0;clip-rule:nonzero;display:inline;overflow:visible;visibility:visible;isolation:auto;mix-blend-mode:normal;color-interpolation:sRGB;color-interpolation-filters:linearRGB;solid-color:#000000;solid-opacity:1;vector-effect:none;fill:#ffcc00;fill-opacity:1;fill-rule:nonzero;stroke:none;stroke-width:0.318855px;stroke-linecap:butt;stroke-linejoin:miter;stroke-miterlimit:4;stroke-dasharray:none;stroke-dashoffset:0;stroke-opacity:1;color-rendering:auto;image-rendering:auto;shape-rendering:auto;text-rendering:auto;enable-background:accumulate;stop-color:#000000"
         d="m 131.39991,304.05342 c -1.92251,-0.6248 -1.83131,0.36943 -1.5751,1.46606 0.98365,1.08559 2.15635,2.1875 3.4742,3.27628 3.16416,2.61417 7.15741,5.06826 11.34401,6.49987 4.18661,1.43163 8.61048,1.85202 12.50312,0.18965 1.82977,-0.78141 3.50578,-2.02466 4.94853,-3.78375 0.886,-2.64496 1.89964,-3.64787 -0.23564,-3.36827 -1.52183,2.67463 -3.42865,4.30198 -5.54282,5.20485 -3.23468,1.38138 -7.11425,1.07778 -10.98692,-0.2465 -3.87268,-1.32427 -7.69342,-3.65918 -10.68204,-6.1283 -1.24819,-1.03124 -2.34663,-2.09919 -3.24734,-3.10989 z"
         sodipodi:nodetypes="ccsssccsssc" />
      <path
         style="font-variation-settings:normal;vector-effect:none;fill:none;fill-opacity:1;stroke:#000000;stroke-width:0.265585;stroke-linecap:round;stroke-linejoin:round;stroke-miterlimit:4;stroke-dasharray:none;stroke-dashoffset:0;stroke-opacity:1;stop-color:#000000"
         d="m 169.0836,272.83529 c 0.23237,2.59622 -2.2311,3.4117 -4.28694,4.19324 -7.68364,3.7488 -26.00795,0.0418 -24.10395,-5.69012"
         id="path2152-6"
         sodipodi:nodetypes="ccc" />
      <path
         sodipodi:nodetypes="cscc"
         id="path2154-9-7"
         d="m 170.70946,252.91532 c -1.10166,0.95899 -1.26391,1.79168 -1.20651,3.17299 0.25643,6.17046 4.6279,3.32563 5.74375,0.24492 0.7253,-3.3102 -2.43656,-5.1712 -4.53724,-3.41791 z"
         style="fill:#ffffff;fill-opacity:1;stroke:none;stroke-width:0.282642px;stroke-linecap:butt;stroke-linejoin:miter;stroke-opacity:1" />
      <path
         style="font-variation-settings:normal;vector-effect:none;fill:none;fill-opacity:1;stroke:#000000;stroke-width:0.265585;stroke-linecap:round;stroke-linejoin:round;stroke-miterlimit:4;stroke-dasharray:none;stroke-dashoffset:0;stroke-opacity:1;stop-color:#000000"
         d="m 170.70946,252.91532 c -1.10166,0.95899 -1.26391,1.79168 -1.20651,3.17299 0.25643,6.17046 4.6279,3.32563 5.74374,0.24492 0.72531,-3.3102 -2.43655,-5.1712 -4.53723,-3.41791 z"
         id="path2154-3"
         sodipodi:nodetypes="cscc" />
      <path
         sodipodi:nodetypes="sccs"
         id="path2156-1-9"
         d="m 144.94327,258.42066 c 1.75185,1.06509 3.61606,0.1766 4.16607,-1.73456 1.11385,-2.6448 -0.0399,-8.17962 -3.01679,-5.61659 -1.89229,1.70489 -3.1207,6.15256 -1.14928,7.35115 z"
         style="fill:#ffffff;fill-opacity:1;stroke:none;stroke-width:0.282642px;stroke-linecap:butt;stroke-linejoin:miter;stroke-opacity:1" />
      <path
         style="font-variation-settings:normal;vector-effect:none;fill:none;fill-opacity:1;stroke:#000000;stroke-width:0.265585;stroke-linecap:round;stroke-linejoin:round;stroke-miterlimit:4;stroke-dasharray:none;stroke-dashoffset:0;stroke-opacity:1;stop-color:#000000"
         d="m 144.94599,258.48613 c 1.75185,1.06509 3.61606,0.17661 4.16607,-1.73455 1.11385,-2.64481 -0.0399,-8.17963 -3.01679,-5.61659 -1.89229,1.70488 -3.1207,6.15255 -1.14928,7.35114 z"
         id="path2156-8"
         sodipodi:nodetypes="sccs" />
      <path
         style="color:#000000;font-style:normal;font-variant:normal;font-weight:normal;font-stretch:normal;font-size:medium;line-height:normal;font-family:sans-serif;font-variant-ligatures:normal;font-variant-position:normal;font-variant-caps:normal;font-variant-numeric:normal;font-variant-alternates:normal;font-variant-east-asian:normal;font-feature-settings:normal;font-variation-settings:normal;text-indent:0;text-align:start;text-decoration:none;text-decoration-line:none;text-decoration-style:solid;text-decoration-color:#000000;letter-spacing:normal;word-spacing:normal;text-transform:none;writing-mode:lr-tb;direction:ltr;text-orientation:mixed;dominant-baseline:auto;baseline-shift:baseline;text-anchor:start;white-space:normal;shape-padding:0;shape-margin:0;inline-size:0;clip-rule:nonzero;display:inline;overflow:visible;visibility:visible;isolation:auto;mix-blend-mode:normal;color-interpolation:sRGB;color-interpolation-filters:linearRGB;solid-color:#000000;solid-opacity:1;vector-effect:none;fill:#000000;fill-opacity:1;fill-rule:nonzero;stroke:none;stroke-width:0.49758px;stroke-linecap:butt;stroke-linejoin:miter;stroke-miterlimit:4;stroke-dasharray:none;stroke-dashoffset:0;stroke-opacity:1;color-rendering:auto;image-rendering:auto;shape-rendering:auto;text-rendering:auto;enable-background:accumulate;stop-color:#000000"
         d="m 171.43897,257.42457 c 0.13819,0.5168 0.61673,0.96566 1.4445,1.16352 0.54553,0.1304 1.04921,-0.028 1.38915,-0.32775 0.23726,-0.20925 0.3414,-0.51913 0.4625,-0.81242 0.0379,-0.0622 0.0861,-0.0735 0.12308,-0.14294 l -0.0336,-0.0127 c 0.0244,-0.0727 0.0923,-0.12148 0.11096,-0.19588 1.05824,-3.61902 -4.22912,-2.66616 -3.49657,0.32819 z"
         id="path2548-6"
         sodipodi:nodetypes="cssccccc"
         inkscape:transform-center-x="3.6006445"
         inkscape:transform-center-y="3.0012495" />
      <path
         id="path2562-7"
         style="color:#000000;font-style:normal;font-variant:normal;font-weight:normal;font-stretch:normal;font-size:medium;line-height:normal;font-family:sans-serif;font-variant-ligatures:normal;font-variant-position:normal;font-variant-caps:normal;font-variant-numeric:normal;font-variant-alternates:normal;font-variant-east-asian:normal;font-feature-settings:normal;font-variation-settings:normal;text-indent:0;text-align:start;text-decoration:none;text-decoration-line:none;text-decoration-style:solid;text-decoration-color:#000000;letter-spacing:normal;word-spacing:normal;text-transform:none;writing-mode:lr-tb;direction:ltr;text-orientation:mixed;dominant-baseline:auto;baseline-shift:baseline;text-anchor:start;white-space:normal;shape-padding:0;shape-margin:0;inline-size:0;clip-rule:nonzero;display:inline;overflow:visible;visibility:visible;isolation:auto;mix-blend-mode:normal;color-interpolation:sRGB;color-interpolation-filters:linearRGB;solid-color:#000000;solid-opacity:1;vector-effect:none;fill:#000000;fill-opacity:1;fill-rule:nonzero;stroke:none;stroke-width:0.443088px;stroke-linecap:butt;stroke-linejoin:miter;stroke-miterlimit:4;stroke-dasharray:none;stroke-dashoffset:0;stroke-opacity:1;color-rendering:auto;image-rendering:auto;shape-rendering:auto;text-rendering:auto;enable-background:accumulate;stop-color:#000000"
         d="m 146.03205,254.58747 c -0.21395,0.43912 -0.28645,0.94611 -0.21609,1.41678 0.0704,0.47068 0.28379,0.91289 0.69502,1.19496 2.04773,0.72975 3.31891,-0.15872 2.97009,-1.90224 -0.33752,-1.71028 -2.56484,-2.46756 -3.44902,-0.7095 z"
         sodipodi:nodetypes="csccc" />
      <path
         style="color:#000000;font-style:normal;font-variant:normal;font-weight:normal;font-stretch:normal;font-size:medium;line-height:normal;font-family:sans-serif;font-variant-ligatures:normal;font-variant-position:normal;font-variant-caps:normal;font-variant-numeric:normal;font-variant-alternates:normal;font-variant-east-asian:normal;font-feature-settings:normal;font-variation-settings:normal;text-indent:0;text-align:start;text-decoration:none;text-decoration-line:none;text-decoration-style:solid;text-decoration-color:#000000;letter-spacing:normal;word-spacing:normal;text-transform:none;writing-mode:lr-tb;direction:ltr;text-orientation:mixed;dominant-baseline:auto;baseline-shift:baseline;text-anchor:start;white-space:normal;shape-padding:0;shape-margin:0;inline-size:0;clip-rule:nonzero;display:inline;overflow:visible;visibility:visible;isolation:auto;mix-blend-mode:normal;color-interpolation:sRGB;color-interpolation-filters:linearRGB;solid-color:#000000;solid-opacity:1;vector-effect:none;fill:#d78f5f;fill-opacity:1;fill-rule:nonzero;stroke:none;stroke-width:0.282642px;stroke-linecap:butt;stroke-linejoin:miter;stroke-miterlimit:4;stroke-dasharray:none;stroke-dashoffset:0;stroke-opacity:1;color-rendering:auto;image-rendering:auto;shape-rendering:auto;text-rendering:auto;enable-background:accumulate;stop-color:#000000"
         d="m 150.459,243.62469 a 0.31822792,0.31822792 0 0 0 -0.28581,0.25274 0.31822792,0.31822792 0 0 0 0.2461,0.37619 c 0.61591,0.12705 1.21996,0.2041 1.7774,0.36453 2.11573,0.60888 4.43895,1.8216 6.84117,1.96141 1.62774,0.0947 3.73466,-0.0536 5.77431,-0.0684 2.03966,-0.0148 4.01095,0.11486 5.29472,0.69142 a 0.31822792,0.31822792 0 0 0 0.41964,-0.15953 0.31822792,0.31822792 0 0 0 -0.1596,-0.42137 c -1.46679,-0.65875 -3.49369,-0.76123 -5.56038,-0.74623 -2.06669,0.015 -4.17453,0.15894 -5.731,0.0684 -2.20836,-0.12853 -4.49536,-1.30226 -6.70329,-1.93768 -0.61998,-0.17842 -1.24064,-0.25594 -1.82468,-0.37643 a 0.31822792,0.31822792 0 0 0 -0.0886,-0.005 z"
         id="path2602-0" />
      <path
         style="color:#000000;font-style:normal;font-variant:normal;font-weight:normal;font-stretch:normal;font-size:medium;line-height:normal;font-family:sans-serif;font-variant-ligatures:normal;font-variant-position:normal;font-variant-caps:normal;font-variant-numeric:normal;font-variant-alternates:normal;font-variant-east-asian:normal;font-feature-settings:normal;font-variation-settings:normal;text-indent:0;text-align:start;text-decoration:none;text-decoration-line:none;text-decoration-style:solid;text-decoration-color:#000000;letter-spacing:normal;word-spacing:normal;text-transform:none;writing-mode:lr-tb;direction:ltr;text-orientation:mixed;dominant-baseline:auto;baseline-shift:baseline;text-anchor:start;white-space:normal;shape-padding:0;shape-margin:0;inline-size:0;clip-rule:nonzero;display:inline;overflow:visible;visibility:visible;isolation:auto;mix-blend-mode:normal;color-interpolation:sRGB;color-interpolation-filters:linearRGB;solid-color:#000000;solid-opacity:1;vector-effect:none;fill:#000000;fill-opacity:1;fill-rule:nonzero;stroke:none;stroke-width:0.888389;stroke-linecap:round;stroke-linejoin:round;stroke-miterlimit:4;stroke-dasharray:none;stroke-dashoffset:0;stroke-opacity:1;color-rendering:auto;image-rendering:auto;shape-rendering:auto;text-rendering:auto;enable-background:accumulate;stop-color:#000000"
         d="m 170.08051,249.15306 c -0.22285,0.0229 -0.39361,0.20842 -0.3979,0.4324 0.56919,1.01719 4.11902,0.50782 5.49218,0.89808 1.39341,0.41429 2.54871,1.21428 3.64848,2.98302 0.12963,0.20646 0.40166,0.26948 0.60887,0.14104 0.81241,-1.12705 -2.5348,-3.80505 -3.17167,-4.00785 -1.5739,-0.46795 -4.13847,-0.41458 -6.12807,-0.44885 -0.0173,-2.6e-4 -0.0346,4.6e-4 -0.0519,0.002 z"
         id="path2589-6"
         sodipodi:nodetypes="ccccccscc" />
      <path
         style="color:#000000;font-style:normal;font-variant:normal;font-weight:normal;font-stretch:normal;font-size:medium;line-height:normal;font-family:sans-serif;font-variant-ligatures:normal;font-variant-position:normal;font-variant-caps:normal;font-variant-numeric:normal;font-variant-alternates:normal;font-variant-east-asian:normal;font-feature-settings:normal;font-variation-settings:normal;text-indent:0;text-align:start;text-decoration:none;text-decoration-line:none;text-decoration-style:solid;text-decoration-color:#000000;letter-spacing:normal;word-spacing:normal;text-transform:none;writing-mode:lr-tb;direction:ltr;text-orientation:mixed;dominant-baseline:auto;baseline-shift:baseline;text-anchor:start;white-space:normal;shape-padding:0;shape-margin:0;inline-size:0;clip-rule:nonzero;display:inline;overflow:visible;visibility:visible;isolation:auto;mix-blend-mode:normal;color-interpolation:sRGB;color-interpolation-filters:linearRGB;solid-color:#000000;solid-opacity:1;vector-effect:none;fill:#000000;fill-opacity:1;fill-rule:nonzero;stroke:none;stroke-width:0.888389;stroke-linecap:round;stroke-linejoin:round;stroke-miterlimit:4;stroke-dasharray:none;stroke-dashoffset:0;stroke-opacity:1;color-rendering:auto;image-rendering:auto;shape-rendering:auto;text-rendering:auto;enable-background:accumulate;stop-color:#000000"
         d="m 145.29813,246.55245 c 0.01,0.2323 -4.27814,1.58773 -5.50196,2.91102 -0.16571,0.18011 -0.15406,0.46045 0.026,0.62619 0.17965,0.16621 0.46002,0.15533 0.62626,-0.0242 1.06824,-1.15506 3.15794,-1.79872 5.09536,-2.08463 1.93742,-0.2859 3.67571,-0.32037 4.89385,1.99181 0.11435,0.2162 0.38223,0.2989 0.59856,0.18479 0.2162,-0.11435 0.29891,-0.38223 0.1848,-0.59856 -1.3739,-2.60783 -3.72785,-3.33025 -5.92289,-3.00633 z"
         id="path2585-5"
         sodipodi:nodetypes="scccscccss" />
      <path
         style="font-variation-settings:normal;vector-effect:none;fill:none;fill-opacity:1;stroke:#000000;stroke-width:0.265585;stroke-linecap:round;stroke-linejoin:round;stroke-miterlimit:4;stroke-dasharray:none;stroke-dashoffset:0;stroke-opacity:1;stop-color:#000000"
         d="m 158.9163,258.98194 c -0.22274,1.96226 -0.15371,4.0876 0.24985,6.01225 0.59435,2.83456 2.44708,3.34116 -0.01,5.1308 -1.56214,1.13786 -3.15957,0.43842 -4.69471,-0.25102"
         id="path2168-7" />
      <path
         style="font-variation-settings:normal;vector-effect:none;fill:#241f1c;fill-opacity:1;stroke:none;stroke-width:0.279179px;stroke-linecap:butt;stroke-linejoin:miter;stroke-miterlimit:4;stroke-dasharray:none;stroke-dashoffset:0;stroke-opacity:1;stop-color:#000000"
         d="m 134.26357,241.53462 c -0.11833,0.12858 -0.24878,0.24699 -0.35498,0.38575 -0.78445,1.02507 -1.2318,1.91261 -2.48868,2.60773 -0.36216,0.20029 -0.99377,0.30575 -1.2732,0.60942 -0.75887,0.82468 0.0347,1.5119 -1.0226,2.17579 -0.75755,0.47566 -1.62679,0.29461 -2.37661,0.84078 -0.70733,0.51522 -0.83793,1.64742 -1.49326,2.00985 -0.3745,0.20711 -1.38555,0.11805 -1.55867,0.43578 -0.27065,0.49673 -0.1031,1.22446 -0.38985,1.77848 -0.1267,0.24479 -0.56778,0.41608 -0.62121,0.67508 -0.11385,0.55185 -0.046,0.58106 -0.5517,0.11568 -0.22216,-0.20443 -0.61809,-0.34689 -0.76768,-0.61736 -0.15484,-0.27998 0.003,-3.34495 0.21261,-3.81166 0.20291,-0.45181 1.14128,-0.7868 1.25011,-1.16498 0.0787,-0.27335 -0.0494,-1.01075 0.13517,-1.21139 0.15448,-0.16788 0.44197,-0.18999 0.63275,-0.3973 0.20505,-0.22283 -0.0476,-0.60221 0.058,-0.83718 0.17532,-0.39036 0.56063,-0.31892 0.72149,-0.49374 0.0647,-0.0703 -0.0143,-0.37168 0.0734,-0.46681 0.1139,-0.12378 0.46639,-0.0229 0.5517,-0.11567 0.37548,-0.40803 0.89889,-1.04652 1.23473,-1.53535 0.66825,-0.97267 1.05776,-2.18058 2.01033,-2.95885 0.44803,-0.36605 1.31991,-0.24035 1.84414,-0.26214 3.1335,-0.13022 2.85911,-0.13961 4.17409,2.23809 z"
         id="path2633-1" />
      <path
         id="path2148-4"
         style="fill:#241c1c;stroke:none;stroke-width:0.273753px;stroke-linecap:butt;stroke-linejoin:miter;stroke-opacity:1"
         d="m 165.20937,221.49349 c -0.22632,-0.0268 -0.34348,0.67715 -0.42651,1.32304 -1.07182,-0.30702 -2.1692,-0.36188 -3.24792,-0.0134 -0.21053,0.068 -1.62908,0.28616 -1.68509,0.39709 -6.54081,-3.86388 -3.88051,-3.4933 -4.4742,0.0713 -1.25011,-1.33483 -1.73556,-0.61376 -3.44774,-0.96937 -1.20605,-0.25049 -4.37398,-1.46607 -5.26635,-0.79403 -0.29263,0.22038 2.32993,4.03662 1.79603,4.21484 -0.4387,-0.79857 -0.73398,-1.87388 -3.2752,-1.60988 -0.37117,0.0386 -7.08363,2.03707 -7.38556,2.23875 -2.4134,1.61203 -2.85575,2.78797 -5.47435,3.816 -0.30103,0.11818 -3.46307,3.39838 -2.28126,3.98593 1.18993,0.59159 -1.01872,2.73026 0.21999,3.19545 19.71315,4.11509 44.21313,8.98291 55.13753,-4.28087 0.32445,-0.0134 -1.97644,-4.57189 -7.24859,-6.21644 -1.77753,-0.55446 -1.93999,-0.71973 -3.71629,-1.66848 -5.95289,-2.45273 -2.8048,1.25292 -7.60266,-1.48684 -0.42218,-0.77322 -0.93778,-1.49031 -1.49609,-2.12111 -0.0454,-0.0513 -0.0871,-0.0774 -0.12573,-0.082 z"
         sodipodi:nodetypes="scsccsscscssccsccss" />
      <path
         id="path2633-4-5"
         d="m 134.26357,241.53462 c -0.11833,0.12858 -0.24878,0.24698 -0.35498,0.38575 -0.78445,1.02507 -1.2318,1.91261 -2.48868,2.60773 -0.36216,0.20029 -0.99377,0.30575 -1.2732,0.60942 -0.75887,0.82468 0.0347,1.5119 -1.0226,2.17579 -0.75755,0.47566 -1.62679,0.29461 -2.37661,0.84078 -0.70733,0.51522 -0.83793,1.64742 -1.49326,2.00985 -0.3745,0.20711 -1.38555,0.11805 -1.55867,0.43578 -0.27065,0.49673 -0.1031,1.22446 -0.38985,1.77848 -0.1267,0.24479 -0.56778,0.41608 -0.62121,0.67508 -0.11385,0.55185 -0.046,0.58105 -0.5517,0.11568 -0.22216,-0.20443 -0.61809,-0.34689 -0.76768,-0.61736 -0.15484,-0.27998 0.003,-3.34495 0.21261,-3.81166 0.20291,-0.45181 1.14128,-0.7868 1.25011,-1.16498 0.0787,-0.27335 -0.0494,-1.01075 0.13516,-1.21139 0.15449,-0.16788 0.44198,-0.18999 0.63276,-0.3973 0.20505,-0.22283 -0.0476,-0.60221 0.058,-0.83718 0.17531,-0.39036 0.56063,-0.31892 0.72149,-0.49374 0.0647,-0.0703 -0.0143,-0.37168 0.0734,-0.46681 0.1139,-0.12378 0.46639,-0.0229 0.5517,-0.11567 0.37548,-0.40803 0.89889,-1.04652 1.23473,-1.53535 0.66825,-0.97267 1.05776,-2.18058 2.01033,-2.95885 0.44803,-0.36605 1.31991,-0.24035 1.84414,-0.26214 3.1335,-0.13022 2.85911,-0.13962 4.17409,2.23809 z"
         style="font-variation-settings:normal;vector-effect:none;fill:none;fill-opacity:1;stroke:#000000;stroke-width:0.265585;stroke-linecap:round;stroke-linejoin:round;stroke-miterlimit:4;stroke-dasharray:none;stroke-dashoffset:0;stroke-opacity:1;stop-color:#000000" />
      <path
         id="path2635-5-1"
         d="m 181.4474,239.9834 c -0.19377,1.74653 0.89187,3.16391 1.3112,4.76861 0.32849,1.25708 -0.83941,1.721 0.10774,2.59258 0.33343,0.30682 1.00974,0.62691 1.24987,1.06108 0.0792,0.14324 0.0911,0.44002 0.20826,0.54786 0.65497,0.60269 1.85473,0.36599 2.45742,1.10365 0.19201,0.23501 0.81691,1.62836 1.25371,1.15367 0.2164,-0.23517 -0.005,-3.39352 -0.15776,-3.79627 -0.16793,-0.44173 -0.58592,-0.37436 -0.77151,-0.70995 -0.17712,-0.32026 0.53883,-0.64846 0.61351,-0.86027 0.14906,-0.42278 -0.30498,-0.904 -0.50914,-1.09186 -0.22959,-0.21127 0.48152,-0.38277 0.33959,-0.75613 -0.0299,-0.0787 -2.52972,-0.90303 -2.83163,-1.18085 -1.61408,-1.48527 0.10397,-3.82652 -3.27126,-2.83212 z"
         style="font-variation-settings:normal;vector-effect:none;fill:none;fill-opacity:1;stroke:#000000;stroke-width:0.265585;stroke-linecap:round;stroke-linejoin:round;stroke-miterlimit:4;stroke-dasharray:none;stroke-dashoffset:0;stroke-opacity:1;stop-color:#000000" />
      <path
         sodipodi:nodetypes="csscsccccsccscccccc"
         id="path2146-5-0"
         d="m 123.64731,228.54995 c -0.11619,0.005 2.01143,1.60153 3.64426,2.9714 1.45136,1.21763 3.08107,4.42375 4.51785,5.16571 0.083,0.0428 0.586,-0.76648 0.74403,-0.92316 2.38448,-2.36413 4.36885,-6.74206 6.33785,-9.18511 0.67355,-0.83572 7.50526,8.09467 8.32238,8.95193 1.91962,-4.60892 3.62481,-5.43518 6.89166,-8.9613 0,0 3.85345,7.25022 6.99042,8.83052 1.07903,-3.28263 3.62195,-7.20022 6.08565,-8.88221 1.21738,-0.76281 5.28982,7.34259 6.31083,8.41375 0.87102,0.91381 4.82653,-8.37729 6.1861,-9.48372 1.48343,0.98196 3.1322,9.45547 4.33623,9.64674 -0.087,-2.09407 4.33261,-6.0213 5.72371,-7.0605 0.0929,-0.0694 1.91289,-1.03718 1.9156,-0.97185 -1.89742,5.56217 -4.24919,8.14666 -5.24936,14.13739 -0.15372,0.89196 -0.33498,1.63376 -0.62328,2.07513 -0.28756,0.35679 -0.96797,0.37716 -1.75733,0.27045 -10.67853,-1.37711 -43.2337,-6.1891 -59.53357,0.58404 -2.20647,-2.98314 -0.0296,-14.93158 -0.84303,-15.57921 z"
         style="fill:#ffcc00;stroke:none;stroke-width:0.264671px;stroke-linecap:butt;stroke-linejoin:miter;stroke-opacity:1" />
      <path
         style="fill:#d40000;stroke:none;stroke-width:0.220108px;stroke-linecap:butt;stroke-linejoin:miter;stroke-opacity:1"
         d="m 153.67274,229.85694 c 0.4003,1.03129 3.62437,5.53884 3.24118,6.03034 -1.75117,0.29104 -3.15951,2.26459 -3.87463,3.63705 -0.6259,-1.59193 -1.74447,-3.04901 -2.4268,-4.42454 0.59916,-1.32121 2.8908,-4.32582 3.06025,-5.24285 z"
         id="path2362-36"
         sodipodi:nodetypes="ccccc" />
      <path
         id="path2362-5-4"
         style="fill:#ff5959;fill-opacity:1;stroke:none;stroke-width:0.220108px;stroke-linecap:butt;stroke-linejoin:miter;stroke-opacity:1"
         d="m 153.73568,229.9933 -0.10225,4.45645 3.31017,1.32266 c 0.003,-0.16571 -0.10687,-0.45572 -0.28491,-0.81936 l -1.7221,-2.92683 c -0.52253,-0.83706 -1.00561,-1.61674 -1.20091,-2.03292 z" />
      <path
         id="path2362-9-8"
         style="fill:#c80000;fill-opacity:1;stroke:none;stroke-width:0.220108px;stroke-linecap:butt;stroke-linejoin:miter;stroke-opacity:1"
         d="m 153.62797,234.3184 -0.57617,5.18356 c 0.71856,-1.37148 2.11995,-3.32509 3.862,-3.6146 0.0206,-0.0264 0.029,-0.0666 0.0298,-0.11495 l -3.31017,-1.32266 z" />
      <path
         id="path2362-2-1"
         style="fill:#b20000;fill-opacity:1;stroke:none;stroke-width:0.220108px;stroke-linecap:butt;stroke-linejoin:miter;stroke-opacity:1"
         d="m 153.62797,234.3184 -2.99087,0.82712 c 0.68421,1.36215 1.78337,2.80459 2.40236,4.37896 0.004,-0.007 0.009,-0.0153 0.0123,-0.0225 z" />
      <path
         sodipodi:nodetypes="ccccc"
         id="path2362-1-3"
         d="m 139.09728,229.40616 c 0.48141,0.91599 3.89075,4.67599 3.6121,5.20735 -1.51431,0.56642 -2.51786,2.67848 -2.9818,4.10361 -0.75019,-1.41262 -1.91988,-2.61544 -2.69336,-3.81266 0.36761,-1.35716 2.02605,-4.59702 2.06306,-5.4983 z"
         style="fill:#d40000;stroke:none;stroke-width:0.204517px;stroke-linecap:butt;stroke-linejoin:miter;stroke-opacity:1" />
      <path
         d="m 139.1698,229.52562 0.45853,4.2608 3.09317,0.7128 c -0.018,-0.15826 -0.15075,-0.41634 -0.35316,-0.73323 l -1.88502,-2.50278 c -0.56567,-0.71082 -1.08936,-1.37352 -1.31352,-1.73759 z"
         style="fill:#ff5959;fill-opacity:1;stroke:none;stroke-width:0.204517px;stroke-linecap:butt;stroke-linejoin:miter;stroke-opacity:1"
         id="path2362-5-8-1" />
      <path
         d="m 139.60731,233.66223 0.12859,5.03152 c 0.46711,-1.42477 1.46696,-3.51668 2.97339,-4.08015 0.0149,-0.0285 0.0175,-0.0682 0.0122,-0.11438 l -3.09317,-0.7128 z"
         style="fill:#c80000;fill-opacity:1;stroke:none;stroke-width:0.204517px;stroke-linecap:butt;stroke-linejoin:miter;stroke-opacity:1"
         id="path2362-9-6-5" />
      <path
         d="m 139.60731,233.66223 -2.54567,1.28172 c 0.77349,1.18416 1.9242,2.37625 2.66611,3.77328 0.002,-0.007 0.006,-0.016 0.008,-0.0235 z"
         style="fill:#b20000;fill-opacity:1;stroke:none;stroke-width:0.204517px;stroke-linecap:butt;stroke-linejoin:miter;stroke-opacity:1"
         id="path2362-2-0-17" />
      <path
         style="font-variation-settings:normal;vector-effect:none;fill:none;fill-opacity:1;stroke:#000000;stroke-width:0.265585;stroke-linecap:round;stroke-linejoin:round;stroke-miterlimit:4;stroke-dasharray:none;stroke-dashoffset:0;stroke-opacity:1;stop-color:#000000"
         d="m 123.64731,228.54995 c -0.11619,0.005 2.01142,1.60153 3.64426,2.9714 1.45136,1.21763 3.08106,4.42375 4.51784,5.16571 0.0829,0.0428 0.58601,-0.76648 0.74403,-0.92316 2.38448,-2.36413 4.36885,-6.74206 6.33784,-9.18511 0.67356,-0.83572 7.50526,8.09467 8.32237,8.95193 1.91962,-4.60892 3.62482,-5.43518 6.89167,-8.9613 0,0 3.85343,7.25022 6.9904,8.83052 1.07903,-3.28263 3.62195,-7.20022 6.08565,-8.88221 1.21737,-0.76281 5.28981,7.34259 6.31082,8.41375 0.87103,0.91381 4.82652,-8.37729 6.18609,-9.48372 1.48344,0.98196 3.13221,9.45547 4.33623,9.64674 -0.087,-2.09406 4.33261,-6.0213 5.72371,-7.0605 0.0929,-0.0694 1.91289,-1.03717 1.9156,-0.97185 0.0219,0.52692 -0.54128,1.33363 -0.94637,2.26303 -2.03181,3.86879 -3.3782,8.19432 -4.38491,12.31933 -0.16697,0.68371 -0.30251,1.26449 -0.54136,1.63016 -0.28756,0.35679 -0.96797,0.37716 -1.75732,0.27045 -10.67852,-1.37711 -43.23367,-6.1891 -59.53352,0.58404 -2.20646,-2.98314 -0.0296,-14.93158 -0.84303,-15.57921 z"
         id="path2146-4"
         sodipodi:nodetypes="csscsccccsccsscccccc" />
      <path
         sodipodi:nodetypes="ccccc"
         id="path2362-3-5"
         d="m 123.47365,233.26975 c 0.50079,0.97353 4.15252,5.03615 3.82172,5.57506 -1.70821,0.51811 -2.90723,2.66501 -3.47883,4.12352 -0.78096,-1.50173 -1.22512,-2.9463 -2.04031,-4.22543 0.46171,-1.39239 1.62145,-4.53889 1.69742,-5.47315 z"
         style="fill:#d40000;stroke:none;stroke-width:0.220108px;stroke-linecap:butt;stroke-linejoin:miter;stroke-opacity:1" />
      <path
         d="m 123.5498,233.39716 0.34633,4.44606 3.41715,0.88346 c -0.0141,-0.16518 -0.15183,-0.43934 -0.36501,-0.7778 l -2.0027,-2.68641 c -0.60254,-0.76438 -1.16018,-1.47685 -1.39577,-1.86531 z"
         style="fill:#ff5959;fill-opacity:1;stroke:none;stroke-width:0.220108px;stroke-linecap:butt;stroke-linejoin:miter;stroke-opacity:1"
         id="path2362-5-82-6" />
      <path
         d="m 123.87752,237.71328 -0.0509,5.23117 c 0.57513,-1.45799 1.76924,-3.58414 3.46856,-4.09955 0.0178,-0.0289 0.0221,-0.07 0.018,-0.11822 l -3.41714,-0.88346 z"
         style="fill:#c80000;fill-opacity:1;stroke:none;stroke-width:0.220108px;stroke-linecap:butt;stroke-linejoin:miter;stroke-opacity:1"
         id="path2362-9-0-9" />
      <path
         d="m 123.87752,237.71328 -2.07228,1.07191 c 0.81572,1.26556 1.23914,2.6981 2.01148,4.18327 0.003,-0.008 0.007,-0.0164 0.01,-0.024 z"
         style="fill:#b20000;fill-opacity:1;stroke:none;stroke-width:0.220108px;stroke-linecap:butt;stroke-linejoin:miter;stroke-opacity:1"
         id="path2362-2-9-1"
         sodipodi:nodetypes="ccccc" />
      <path
         id="path2602-8-4"
         d="m 152.47249,242.09937 c -0.11676,0.0275 -0.19933,0.14274 -0.20275,0.2828 -0.004,0.17395 0.11332,0.32762 0.2632,0.34351 0.53718,0.0546 1.05692,0.0611 1.54988,0.15543 1.87101,0.35798 4.28193,1.04886 6.32398,0.9101 1.3837,-0.094 2.85908,-0.2435 4.573,-0.4933 1.71392,-0.24981 3.39189,-0.34891 4.55808,0.073 0.14522,0.0521 0.29238,-0.04 0.32927,-0.20609 0.0371,-0.16695 -0.0513,-0.34536 -0.19717,-0.39814 -1.33244,-0.4821 -3.05314,-0.34971 -4.78978,-0.0966 -1.73665,0.25312 -3.48867,0.63843 -4.81178,0.72834 -1.87726,0.12756 -3.97667,-0.76907 -5.92921,-1.14264 -0.54828,-0.1049 -1.08205,-0.10998 -1.59144,-0.16175 -0.0254,-0.002 -0.0507,-5.9e-4 -0.0753,0.005 z"
         style="color:#000000;font-style:normal;font-variant:normal;font-weight:normal;font-stretch:normal;font-size:medium;line-height:normal;font-family:sans-serif;font-variant-ligatures:normal;font-variant-position:normal;font-variant-caps:normal;font-variant-numeric:normal;font-variant-alternates:normal;font-variant-east-asian:normal;font-feature-settings:normal;font-variation-settings:normal;text-indent:0;text-align:start;text-decoration:none;text-decoration-line:none;text-decoration-style:solid;text-decoration-color:#000000;letter-spacing:normal;word-spacing:normal;text-transform:none;writing-mode:lr-tb;direction:ltr;text-orientation:mixed;dominant-baseline:auto;baseline-shift:baseline;text-anchor:start;white-space:normal;shape-padding:0;shape-margin:0;inline-size:0;clip-rule:nonzero;display:inline;overflow:visible;visibility:visible;isolation:auto;mix-blend-mode:normal;color-interpolation:sRGB;color-interpolation-filters:linearRGB;solid-color:#000000;solid-opacity:1;vector-effect:none;fill:#d78f5f;fill-opacity:1;fill-rule:nonzero;stroke:none;stroke-width:0.260423px;stroke-linecap:butt;stroke-linejoin:miter;stroke-miterlimit:4;stroke-dasharray:none;stroke-dashoffset:0;stroke-opacity:1;color-rendering:auto;image-rendering:auto;shape-rendering:auto;text-rendering:auto;enable-background:accumulate;stop-color:#000000"
         sodipodi:nodetypes="cccssscscsssccc" />
      <path
         sodipodi:nodetypes="ssssscssssssssssssscsssssssssssssssssssssccssscsssssssscssssssccscss"
         id="path2130-9-3"
         d="m 185.66076,266.57846 c 1.93374,-1.45666 -1.27146,12.42439 -4.38153,16.2339 -0.67184,0.82293 -0.28636,-0.57911 -1.18627,-1.53936 -0.0225,-0.024 -0.45404,1.06381 -0.53222,1.83386 -0.18484,1.82102 -0.80068,7.87323 -2.92106,8.37535 -0.79281,0.18774 -0.35791,-7.04829 -0.66159,-6.6649 -1.12241,1.41703 -0.48865,3.76467 -2.31052,4.55761 -0.29342,0.12771 -1.08064,-0.9524 -1.70895,-0.15919 -1.69788,2.14354 -1.26604,4.48822 -4.41319,5.54445 -1.90831,0.64047 -1.638,-5.28585 -1.18196,-5.3048 0.9162,-0.0381 -0.3259,2.08917 -0.44634,3.14167 -0.20052,1.75235 -0.54792,3.96606 -2.31052,4.55762 -1.06259,0.35662 -0.73662,-4.59931 -1.16775,-3.67343 -1.40094,3.00854 -0.34547,8.50221 -4.36923,9.25746 -2.92259,0.54854 -1.31207,-7.97636 -1.67695,-7.96119 -0.12523,0.005 -0.75906,2.95272 -1.56115,4.08031 -2.84549,4.0002 -5.46273,-1.3611 -5.93861,-2.79071 -0.26409,-0.79335 -0.14193,-1.76337 -0.37101,-0.96252 -0.46776,1.63521 -1.84508,4.76135 -3.64506,4.83615 -1.97756,0.0822 -2.11687,-3.41474 -2.32451,-5.03423 -0.0566,-0.44159 -0.074,-1.78156 -0.0555,-1.33617 0.097,2.33382 -0.74674,5.31136 -3.03213,5.70301 -2.09273,0.35863 -3.15735,-3.84695 -3.68387,-5.42867 -0.0608,-0.18257 -1.67827,1.41371 -2.62575,1.67544 -1.25508,0.3467 -1.72061,-1.66086 -2.03075,-2.59257 -0.3276,-0.98415 -1.06254,-5.81889 -1.44232,-5.577 -0.0729,0.0464 -1.92254,5.90888 -2.85506,3.97094 -1.54748,-3.21595 1.42223,-4.67675 -0.51073,-7.73853 -0.12741,-0.20181 -0.77275,2.5619 -1.21937,3.12575 -0.646,0.81556 -0.0926,-2.22695 -0.13882,-3.34043 -0.0632,-1.52204 -0.5097,-3.01011 -0.56903,-4.43795 -0.0147,-0.3544 -0.52883,5.82033 -1.33216,4.96313 -0.72211,-0.77054 -0.68507,-5.42163 -0.8443,-6.43424 -0.3094,-1.96765 -1.50525,-3.82941 -1.58441,-5.73423 -0.0617,-1.48464 1.13368,5.4661 0.1851,4.45391 -0.71688,-0.76496 -0.70204,-9.34019 0.37918,-9.38512 0.52267,-0.0217 0.49922,3.32545 0.9067,3.30851 0.20046,-0.008 0.0557,-4.34935 0.75625,-4.93918 0.46664,-0.3929 0.24733,1.32409 0.27526,1.99628 0.0529,1.27383 0.16475,6.94825 1.27451,7.53175 0.38877,0.20441 0.67914,-3.37443 1.20497,-3.39628 0.26134,-0.0109 1.10621,4.7253 1.1727,5.0821 0.75506,4.05202 1.02574,-1.03368 1.1148,-0.93863 0.92277,0.98464 0.10959,5.93901 1.82266,6.83973 0.26534,0.13952 -0.0668,-3.43295 1.02225,-3.16561 1.87289,0.4598 2.89221,4.78835 4.67444,6.05198 0.41691,0.29561 0.27413,-2.26131 0.49261,-2.02818 1.4426,1.53933 1.12072,5.41073 3.33991,6.33052 1.65231,0.68484 2.9161,-6.03963 4.23021,-4.6374 0.65325,0.69705 2.14648,6.56708 4.05226,4.96244 0.39668,-0.33401 1.00023,-3.83228 1.77162,-3.6429 1.50266,0.36889 1.1129,3.96607 3.06464,4.33423 1.72528,0.32546 1.52037,-3.91101 2.17407,-3.21346 0.70942,0.75698 1.31123,4.07952 2.63443,3.23672 1.10643,-0.70472 0.71545,-2.97018 1.77162,-3.6429 0.39923,-0.25428 1.22342,1.5024 1.39933,1.28032 0.76265,-0.96282 0.64827,-3.28754 1.96359,-3.65088 1.76986,-0.48889 1.60309,2.92986 2.98135,2.32999 1.73895,-0.75686 1.33282,-3.74866 2.67594,-5.01896 2.02828,-1.91834 2.23553,1.39835 3.40918,-1.25708 0.12497,-0.28273 1.40558,-3.07441 1.80864,-2.75212 0.12188,0.0975 0.94305,2.7578 1.24438,2.17909 0.29452,-0.56563 0.46255,-1.20899 0.69384,-1.81349 1.40183,-3.66392 1.43422,0.35825 2.49561,-0.10371 0.25624,-0.11147 3.37751,-6.18573 3.79999,-5.73491 0.19556,0.20865 -0.17045,0.67278 0.229,0.88281 0.0102,0.005 0.74828,-3.67584 1.21423,-3.17358 0.66574,0.71765 1.99074,-2.84488 2.79738,-3.45252 z"
         style="font-variation-settings:normal;vector-effect:none;fill:none;fill-opacity:1;stroke:#000000;stroke-width:0.265585;stroke-linecap:round;stroke-linejoin:round;stroke-miterlimit:4;stroke-dasharray:none;stroke-dashoffset:0;stroke-opacity:1;stop-color:#000000" />
      <path
         style="font-variation-settings:normal;vector-effect:none;fill:#ff5959;fill-opacity:1;stroke:none;stroke-width:0.204517px;stroke-linecap:butt;stroke-linejoin:miter;stroke-miterlimit:4;stroke-dasharray:none;stroke-dashoffset:0;stroke-opacity:1;stop-color:#000000"
         d="m 167.25073,230.44176 c -0.45444,0.92217 -3.75279,4.72647 -3.45859,5.25405 1.53063,0.54631 2.59596,2.6447 3.10163,4.06343 0.70859,-1.42225 1.84276,-2.64029 2.58096,-3.8475 -0.40736,-1.35205 -2.16054,-4.56936 -2.224,-5.46998 z"
         id="path2362-1-2-8"
         sodipodi:nodetypes="ccccc" />
      <path
         id="path2362-5-8-2-7"
         style="font-variation-settings:normal;vector-effect:none;fill:#d40000;fill-opacity:1;stroke:none;stroke-width:0.220109px;stroke-linecap:butt;stroke-linejoin:miter;stroke-miterlimit:4;stroke-dasharray:none;stroke-dashoffset:0;stroke-opacity:1;stop-color:#000000"
         d="m 167.18173,230.56215 -0.33341,4.26603 -3.07166,0.75352 c 0.0134,-0.15846 0.1385,-0.41824 0.33157,-0.73774 l 1.81122,-2.5272 c 0.54471,-0.71815 1.04885,-1.38765 1.26228,-1.75461 z" />
      <path
         sodipodi:nodetypes="cccccc"
         id="path2362-9-6-8-2"
         style="font-variation-settings:normal;vector-effect:none;fill:#b20000;fill-opacity:1;stroke:none;stroke-width:0.204517px;stroke-linecap:butt;stroke-linejoin:miter;stroke-miterlimit:4;stroke-dasharray:none;stroke-dashoffset:0;stroke-opacity:1;stop-color:#000000"
         d="m 166.86569,234.70374 0.0191,5.03225 -3.09254,-4.04009 c -0.0158,-0.0283 -0.0195,-0.068 -0.0156,-0.1142 l 3.07166,-0.75352 z" />
      <path
         id="path2362-2-0-1-8"
         style="font-variation-settings:normal;vector-effect:none;fill:#c80000;fill-opacity:1;stroke:none;stroke-width:0.220109px;stroke-linecap:butt;stroke-linejoin:miter;stroke-miterlimit:4;stroke-dasharray:none;stroke-dashoffset:0;stroke-opacity:1;stop-color:#000000"
         d="m 166.86569,234.70374 2.58278,1.24784 c -0.73859,1.19416 -1.8541,2.40121 -2.55487,3.80778 -0.003,-0.007 -0.006,-0.0159 -0.009,-0.0234 z" />
      <path
         style="fill:#d40000;stroke:none;stroke-width:0.205027px;stroke-linecap:butt;stroke-linejoin:miter;stroke-opacity:1"
         d="m 179.95018,230.4031 c 0.16613,1.10247 2.13684,6.23873 1.73153,6.64053 -1.52664,-0.0904 -3.04412,1.55099 -3.87633,2.7494 -0.26319,-1.70353 -0.9647,-3.3803 -1.31155,-4.88274 0.72579,-1.17288 3.16059,-3.64004 3.45635,-4.50719 z"
         id="path2362-1-8-7"
         sodipodi:nodetypes="ccccc" />
      <path
         id="path2362-5-8-5-9"
         style="fill:#ff5959;fill-opacity:1;stroke:none;stroke-width:0.205027px;stroke-linecap:butt;stroke-linejoin:miter;stroke-opacity:1"
         d="m 179.9806,230.55102 -0.82853,4.36942 2.57382,2.01639 c 0.0299,-0.16272 -0.0143,-0.4721 -0.10403,-0.86879 l -0.96615,-3.25507 c -0.30166,-0.9374 -0.57957,-1.80977 -0.67511,-2.26195 z" />
      <path
         sodipodi:nodetypes="cccccc"
         id="path2362-9-6-86-0"
         style="fill:#c80000;fill-opacity:1;stroke:none;stroke-width:0.205027px;stroke-linecap:butt;stroke-linejoin:miter;stroke-opacity:1"
         d="m 179.16934,234.78983 -1.34968,4.98385 3.86194,-2.73 c 0.0217,-0.0216 0.0356,-0.0594 0.0443,-0.10685 l -2.57382,-2.01638 z" />
      <path
         id="path2362-2-0-9-7"
         style="fill:#b20000;fill-opacity:1;stroke:none;stroke-width:0.205027px;stroke-linecap:butt;stroke-linejoin:miter;stroke-opacity:1"
         d="m 179.16934,234.78983 -2.66236,0.17083 c 0.35067,1.48966 1.03824,3.14782 1.29852,4.83256 0.004,-0.006 0.01,-0.0133 0.0142,-0.0195 z" />
      <path
         style="fill:#d40000;stroke:none;stroke-width:0.220109px;stroke-linecap:butt;stroke-linejoin:miter;stroke-opacity:1"
         d="m 189.21853,232.45936 c 0.15523,1.11107 0.0769,4.80781 -0.40536,5.16903 -1.76285,-0.23305 -1.38742,2.84741 -2.39019,3.96015 -0.24734,-1.71741 -0.19833,-3.24126 -0.54886,-4.76676 0.87883,-1.09735 2.97358,-3.52856 3.34474,-4.36246 z"
         id="path2362-3-0-1"
         sodipodi:nodetypes="cccccc" />
      <path
         id="path2362-5-82-2-3"
         style="fill:#ff5959;fill-opacity:1;stroke:none;stroke-width:0.220109px;stroke-linecap:butt;stroke-linejoin:miter;stroke-opacity:1"
         d="m 189.24876,232.6092 -1.10479,4.26399 1.2612,1.29281 c -0.0635,-0.76554 -0.099,-1.43108 -0.11068,-2.26907 z"
         sodipodi:nodetypes="ccccc" />
      <path
         id="path2362-9-0-2-6"
         style="fill:#c80000;fill-opacity:1;stroke:none;stroke-width:0.220109px;stroke-linecap:butt;stroke-linejoin:miter;stroke-opacity:1"
         d="m 188.16833,236.74503 -1.72822,4.82561 2.91021,-3.30264 c 0.0259,-0.0194 0.0431,-0.0557 0.0548,-0.10201 -0.2545,-0.5668 -0.90481,-0.98352 -1.23681,-1.42096 z"
         sodipodi:nodetypes="ccccc" />
      <path
         sodipodi:nodetypes="ccccc"
         id="path2362-2-9-8-0"
         style="fill:#b20000;fill-opacity:1;stroke:none;stroke-width:0.220109px;stroke-linecap:butt;stroke-linejoin:miter;stroke-opacity:1"
         d="m 188.16833,236.74503 -2.28102,0.12808 c 0.35572,1.51311 0.29115,3.01716 0.53583,4.71562 0.005,-0.006 0.0119,-0.0122 0.0171,-0.0181 z" />
      <path
         d="m 51.143594,34.461022 -6.932504,-8.932543 -9.318667,6.573502 8.932543,-6.932504 -6.573502,-9.318667 6.932504,8.932544 9.318667,-6.573503 -8.932543,6.932504 z"
         sodipodi:type="star"
         style="font-variation-settings:normal;vector-effect:none;fill:#ffaaaa;fill-opacity:1;stroke:none;stroke-width:0.235053px;stroke-linecap:butt;stroke-linejoin:miter;stroke-miterlimit:4;stroke-dasharray:none;stroke-dashoffset:0;stroke-opacity:1;paint-order:markers stroke fill;stop-color:#000000"
         id="path2826-7"
         sodipodi:sides="4"
         sodipodi:cx="44.197529"
         sodipodi:cy="25.155916"
         sodipodi:r1="11.611753"
         sodipodi:r2="0.37280944"
         sodipodi:arg1="0.92955255"
         sodipodi:arg2="1.5344129"
         inkscape:flatsided="false"
         inkscape:rounded="0"
         inkscape:randomized="0"
         transform="rotate(-2.3796885,5187.4414,-1764.9135)" />
      <path
         d="m 102.3872,31.315633 -6.932507,-8.932544 -9.318667,6.573503 8.932543,-6.932504 -6.573502,-9.318667 6.932504,8.932543 9.318669,-6.573502 -8.932546,6.932504 z"
         inkscape:randomized="0"
         inkscape:rounded="0"
         inkscape:flatsided="false"
         sodipodi:arg2="1.5344129"
         sodipodi:arg1="0.92955255"
         sodipodi:r2="0.37280941"
         sodipodi:r1="11.611753"
         sodipodi:cy="22.010527"
         sodipodi:cx="95.441132"
         sodipodi:sides="4"
         id="path2826-1-6"
         style="font-variation-settings:normal;vector-effect:none;fill:#ffaaaa;fill-opacity:1;stroke:none;stroke-width:0.235053px;stroke-linecap:butt;stroke-linejoin:miter;stroke-miterlimit:4;stroke-dasharray:none;stroke-dashoffset:0;stroke-opacity:1;paint-order:markers stroke fill;stop-color:#000000"
         sodipodi:type="star"
         transform="rotate(-2.3796885,5183.2799,-1907.4316)" />
      <path
         d="m 69.637511,23.05899 -3.807995,-4.906608 -5.118704,3.610797 4.906608,-3.807995 -3.610796,-5.118704 3.807994,4.906608 5.118704,-3.610797 -4.906608,3.807995 z"
         inkscape:randomized="0"
         inkscape:rounded="0"
         inkscape:flatsided="false"
         sodipodi:arg2="1.5344129"
         sodipodi:arg1="0.92955255"
         sodipodi:r2="0.20478263"
         sodipodi:r1="6.3782864"
         sodipodi:cy="17.947735"
         sodipodi:cx="65.822067"
         sodipodi:sides="4"
         id="path2826-0-3"
         style="font-variation-settings:normal;vector-effect:none;fill:#ffeeaa;fill-opacity:1;stroke:none;stroke-width:0.129113px;stroke-linecap:butt;stroke-linejoin:miter;stroke-miterlimit:4;stroke-dasharray:none;stroke-dashoffset:0;stroke-opacity:1;paint-order:markers stroke fill;stop-color:#000000"
         sodipodi:type="star"
         transform="rotate(14.603069,-715.34576,474.91514)"
         inkscape:transform-center-x="0.44354775"
         inkscape:transform-center-y="-0.14784925" />
      <path
         id="path2142-1-6"
         style="font-variation-settings:normal;vector-effect:none;fill:none;fill-opacity:1;stroke:#000000;stroke-width:1.00378;stroke-linecap:round;stroke-linejoin:round;stroke-miterlimit:4;stroke-dasharray:none;stroke-dashoffset:0;stroke-opacity:1;stop-color:#000000"
         d="m 467.45117,1165.6152 c -11.75331,-3.0938 -23.4721,-4.7341 -35.2207,-4.7754 -9.1378,-0.032 -18.2937,0.9031 -27.49609,2.875 -20.08128,4.3031 -61.71319,27.5221 -70.58985,45.2754 -2.2618,6.7278 -4.71936,12.2096 -7.24805,17.0879 m 400.5918,0 c -20.47357,-17.9363 -50.8662,-39.8538 -73.47851,-39.8222 -1.40054,0 -2.77099,0.089 -4.10743,0.2656"
         transform="scale(0.26458333)"
         sodipodi:nodetypes="csscccsc" />
      <path
         id="path2362-8-1-2"
         style="font-variation-settings:normal;vector-effect:none;fill:#ffcc00;fill-opacity:1;stroke:none;stroke-width:1.33396px;stroke-linecap:butt;stroke-linejoin:miter;stroke-miterlimit:4;stroke-dasharray:none;stroke-dashoffset:0;stroke-opacity:1;stop-color:#000000"
         d="m 559.52344,1187.9102 c -0.94817,5.5044 -15.81196,24.0996 -19.58203,32.1445 1.2263,1.9833 2.63832,3.9878 4.13671,6.0234 h 30.37696 c 2.58747,-1.6 5.37211,-2.7968 8.32617,-3.3711 2.48795,-3.0443 -20.3232,-28.7965 -23.25781,-34.7968 z"
         transform="scale(0.26458333)" />
      <path
         id="path2917-4-8"
         style="color:#000000;font-style:normal;font-variant:normal;font-weight:normal;font-stretch:normal;font-size:medium;line-height:normal;font-family:sans-serif;font-variant-ligatures:normal;font-variant-position:normal;font-variant-caps:normal;font-variant-numeric:normal;font-variant-alternates:normal;font-variant-east-asian:normal;font-feature-settings:normal;font-variation-settings:normal;text-indent:0;text-align:start;text-decoration:none;text-decoration-line:none;text-decoration-style:solid;text-decoration-color:#000000;letter-spacing:normal;word-spacing:normal;text-transform:none;writing-mode:lr-tb;direction:ltr;text-orientation:mixed;dominant-baseline:auto;baseline-shift:baseline;text-anchor:start;white-space:normal;shape-padding:0;shape-margin:0;inline-size:0;clip-rule:nonzero;display:inline;overflow:visible;visibility:visible;isolation:auto;mix-blend-mode:normal;color-interpolation:sRGB;color-interpolation-filters:linearRGB;solid-color:#000000;solid-opacity:1;vector-effect:none;fill:none;fill-opacity:1;fill-rule:nonzero;stroke:#000000;stroke-width:1.00378;stroke-linecap:round;stroke-linejoin:round;stroke-miterlimit:4;stroke-dasharray:none;stroke-dashoffset:0;stroke-opacity:1;color-rendering:auto;image-rendering:auto;shape-rendering:auto;text-rendering:auto;enable-background:accumulate;stop-color:#000000"
         d="m 574.45117,1226.0781 c 2.5886,-1.6012 5.37463,-2.7984 8.33008,-3.373 1.83632,-2.247 -10.06945,-16.815 -17.63281,-26.7305 9.90599,1.1558 19.72975,0.2797 28.79101,-3.5898 6.91563,-2.9534 13.24822,-7.652 18.70117,-14.3008 3.35018,-9.9991 6.43098,-15.3404 -0.89257,-12.7305 -5.75135,10.1077 -12.95708,16.2597 -20.94727,19.6719 -12.2256,5.221 -26.88849,4.0735 -41.52539,-0.9316 -14.6369,-5.0051 -29.07747,-13.8301 -40.37305,-23.1622 -4.71715,-3.8972 -8.8691,-7.9342 -12.27343,-11.7539 -1.35465,-0.424 -2.4244,-0.6224 -3.26563,-0.6406 -3.64534,-0.079 -3.00263,3.223 -2.6875,6.1836 3.71777,4.1029 8.15043,8.2681 13.13086,12.3828 11.95903,9.8803 27.05167,19.1536 42.875,24.5645 3.20867,1.0972 6.45666,2.0283 9.71484,2.7773 -4.80434,7.9278 -13.66416,19.6539 -16.45507,25.6094 1.2263,1.9832 2.63844,3.988 4.13671,6.0234"
         transform="scale(0.26458333)"
         sodipodi:nodetypes="cccsccssscscssccc" />
      <path
         id="path2362-8-2"
         style="fill:#d40000;stroke:none;stroke-width:1.0022px;stroke-linecap:butt;stroke-linejoin:miter;stroke-opacity:1"
         d="m 559.4707,1196.2422 c -0.67993,3.9474 -11.33928,17.2815 -14.04297,23.0508 1.36618,2.2094 3.07056,4.4759 4.81446,6.7851 H 566.875 c 2.71394,-2.3581 5.8319,-4.2114 9.27539,-4.8808 1.7842,-2.1832 -14.57517,-20.6521 -16.67969,-24.9551 z"
         transform="scale(0.26458333)" />
      <path
         d="m 148.11334,316.65575 0.0523,5.0316 4.30744,1.2895 c -0.003,-0.18704 -0.15609,-0.50738 -0.39983,-0.90659 l -2.33319,-3.19536 c -0.70585,-0.91203 -1.35865,-1.76177 -1.62673,-2.21915 z"
         style="fill:#ff5959;fill-opacity:1;stroke:none;stroke-width:0.265168px;stroke-linecap:butt;stroke-linejoin:miter;stroke-opacity:1"
         id="path2362-5-7-7" />
      <path
         id="path2362-9-1-3"
         style="fill:#c80000;fill-opacity:1;stroke:none;stroke-width:1.0022px;stroke-linecap:butt;stroke-linejoin:miter;stroke-opacity:1"
         d="m 559.94922,1215.2676 -0.96875,10.8105 h 7.89453 c 2.71325,-2.3583 5.83078,-4.2112 9.27539,-4.8808 0.0956,-0.1172 0.12878,-0.292 0.125,-0.4981 l -16.2793,-4.873 z"
         transform="scale(0.26458333)" />
      <path
         id="path2362-2-02-4"
         style="fill:#b20000;fill-opacity:1;stroke:none;stroke-width:1.0022px;stroke-linecap:butt;stroke-linejoin:miter;stroke-opacity:1"
         d="m 559.94922,1215.2676 -14.39453,4.2148 c 1.34468,2.1485 3.00069,4.3524 4.69336,6.5957 h 8.73242 z"
         transform="scale(0.26458333)" />
      <path
         id="path2138-9"
         style="fill:#ffffff;stroke:none;stroke-width:1.20511px;stroke-linecap:butt;stroke-linejoin:miter;stroke-opacity:1"
         d="m 470.36133,1143.3398 c -11.28665,0.039 -21.22857,10.5377 -26.01367,19.17 -5.34819,10.6963 20.84438,41.4105 31.65625,46.8164 4.25564,2.1278 14.81635,9.3335 24.52929,16.7519 h 37.82813 c -0.87256,-2.8956 -1.72158,-5.1429 -2.49219,-6.2988 -16.1777,-25.7406 -33.2026,-28.0824 -47.21289,-66.1191 -6.10091,-7.491 -12.38283,-10.3409 -18.29492,-10.3204 z"
         transform="scale(0.26458333)" />
      <path
         id="path2140-7"
         style="fill:#ffffff;stroke:none;stroke-width:1.20511px;stroke-linecap:butt;stroke-linejoin:miter;stroke-opacity:1"
         d="m 630.43359,1158.9609 c -16.11945,-0.068 -27.0957,22.0337 -27.0957,36.1133 0,8.3853 -7.70627,20.1085 -16.66211,31.0039 h 15.9043 c 3.88529,-4.3993 8.25833,-8.7984 12.16211,-10.0996 4.74092,-1.5803 11.49503,-4.8447 15.20312,-8.5527 4.23447,-4.2345 8.90298,-10.8014 13.30469,-15.2031 14.52276,-14.5228 11.23813,-27.0024 -7.6543,-32.4961 -1.77116,-0.5151 -3.49458,-0.7586 -5.16211,-0.7657 z"
         transform="scale(0.26458333)" />
      <path
         id="path2826-1-5-7"
         style="font-variation-settings:normal;vector-effect:none;fill:#ffaaaa;fill-opacity:1;stroke:none;stroke-width:0.486989px;stroke-linecap:butt;stroke-linejoin:miter;stroke-miterlimit:4;stroke-dasharray:none;stroke-dashoffset:0;stroke-opacity:1;paint-order:markers stroke fill;stop-color:#000000"
         inkscape:transform-center-x="1.7927305"
         inkscape:transform-center-y="-0.14599321"
         d="m 560.12695,1194.0723 6.0918,22.83 -22.33594,7.0645 22.82813,-6.0898 2.59375,8.2011 h 0.70117 l -2.32031,-8.6953 22.33593,-7.0644 -22.82812,6.0898 z"
         transform="scale(0.26458333)" />
      <path
         id="path2138-1-8"
         style="fill:#f0f0f0;fill-opacity:1;stroke:none;stroke-width:1.20511px;stroke-linecap:butt;stroke-linejoin:miter;stroke-opacity:1"
         d="m 468.55273,1143.4434 c -10.53154,1.0691 -19.67765,10.8989 -24.20507,19.0664 -5.34819,10.6963 20.84438,41.4105 31.65625,46.8164 4.25564,2.1278 14.81635,9.3335 24.52929,16.7519 h 10.91407 c -10.4643,-8.2073 -22.91822,-16.7911 -27.63282,-19.1484 -10.81186,-5.4059 -37.00439,-36.1201 -31.65625,-46.8164 3.36019,-6.0617 9.2682,-13.0355 16.39453,-16.6699 z"
         transform="scale(0.26458333)" />
      <path
         id="path2138-0-4"
         style="font-variation-settings:normal;vector-effect:none;fill:none;fill-opacity:1;stroke:#000000;stroke-width:1.00378;stroke-linecap:round;stroke-linejoin:round;stroke-miterlimit:4;stroke-dasharray:none;stroke-dashoffset:0;stroke-opacity:1;stop-color:#000000"
         d="m 538.36133,1226.0781 c -0.87256,-2.8956 -1.72158,-5.1429 -2.49219,-6.2988 -16.1777,-25.7406 -33.2026,-28.0824 -47.21289,-66.1191 -6.10091,-7.491 -12.38283,-10.3409 -18.29492,-10.3204 -11.28665,0.039 -21.22857,10.5377 -26.01367,19.17 -5.34819,10.6963 20.84438,41.4105 31.65625,46.8164 4.25564,2.1278 14.81635,9.3335 24.52929,16.7519"
         transform="scale(0.26458333)"
         sodipodi:nodetypes="cccccsc" />
      <path
         id="path2140-5-6"
         style="font-variation-settings:normal;vector-effect:none;fill:#f0f0f0;fill-opacity:1;stroke:none;stroke-width:1.20511px;stroke-linecap:butt;stroke-linejoin:miter;stroke-miterlimit:4;stroke-dasharray:none;stroke-dashoffset:0;stroke-opacity:1;stop-color:#000000"
         d="m 629.11328,1159.0176 c -15.3936,1.1017 -25.77539,22.3659 -25.77539,36.0566 0,8.3853 -7.70627,20.1085 -16.66211,31.0039 h 5.81641 c 9.77796,-11.5423 18.6582,-24.399 18.6582,-33.4023 0,-11.221 6.9724,-27.5301 17.96289,-33.6582 z"
         transform="scale(0.26458333)" />
      <path
         id="path2140-3-3"
         style="font-variation-settings:normal;vector-effect:none;fill:none;fill-opacity:1;stroke:#000000;stroke-width:1.00378;stroke-linecap:round;stroke-linejoin:round;stroke-miterlimit:4;stroke-dasharray:none;stroke-dashoffset:0;stroke-opacity:1;stop-color:#000000"
         d="m 602.58008,1226.0781 c 3.88528,-4.3993 8.25833,-8.7984 12.16211,-10.0996 4.74092,-1.5803 11.49503,-4.8447 15.20312,-8.5527 4.23447,-4.2345 8.90298,-10.8014 13.30469,-15.2031 14.52276,-14.5228 11.23813,-27.0024 -7.6543,-32.4961 -1.77116,-0.5151 -3.49458,-0.7586 -5.16211,-0.7657 -16.11945,-0.068 -27.0957,22.0337 -27.0957,36.1133 0,8.3853 -7.70627,20.1085 -16.66211,31.0039"
         transform="scale(0.26458333)"
         sodipodi:nodetypes="cssssssc" />
    </g>
  </g>
</svg>
