<?xml version="1.0" encoding="UTF-8" standalone="no"?>
<svg
   xmlns:dc="http://purl.org/dc/elements/1.1/"
   xmlns:cc="http://creativecommons.org/ns#"
   xmlns:rdf="http://www.w3.org/1999/02/22-rdf-syntax-ns#"
   xmlns:svg="http://www.w3.org/2000/svg"
   xmlns="http://www.w3.org/2000/svg"
   xmlns:sodipodi="http://sodipodi.sourceforge.net/DTD/sodipodi-0.dtd"
   xmlns:inkscape="http://www.inkscape.org/namespaces/inkscape"
   sodipodi:docname="2020-CH-01c_taskbody3-ita-compatible.svg"
   inkscape:version="1.0 (4035a4fb49, 2020-05-01)"
   id="svg1660"
   version="1.1"
   viewBox="0 0 17.902786 17.329845"
   height="17.329845mm"
   width="17.902786mm">
  <defs
     id="defs1654" />
  <sodipodi:namedview
     inkscape:window-maximized="1"
     inkscape:window-y="222"
     inkscape:window-x="-8"
     inkscape:window-height="987"
     inkscape:window-width="1680"
     fit-margin-bottom="0"
     fit-margin-right="0"
     fit-margin-left="0"
     fit-margin-top="0"
     showgrid="false"
     inkscape:document-rotation="0"
     inkscape:current-layer="g882"
     inkscape:document-units="mm"
     inkscape:cy="32.749314"
     inkscape:cx="33.832037"
     inkscape:zoom="11.801774"
     inkscape:pageshadow="2"
     inkscape:pageopacity="0.0"
     borderopacity="1.0"
     bordercolor="#666666"
     pagecolor="#ffffff"
     id="base" />
  <metadata
     id="metadata1657">
    <rdf:RDF>
      <cc:Work
         rdf:about="">
        <dc:format>image/svg+xml</dc:format>
        <dc:type
           rdf:resource="http://purl.org/dc/dcmitype/StillImage" />
        <dc:title></dc:title>
      </cc:Work>
    </rdf:RDF>
  </metadata>
  <g
     transform="translate(-36.366021,-149.94603)"
     id="layer1"
     inkscape:groupmode="layer"
     inkscape:label="Ebene 1">
    <g
       transform="translate(-137.21872,9.9478677)"
       id="g882">
      <path
         id="path1210"
         d="m 182.53516,139.99805 c -4.93073,0 -8.95118,3.8775 -8.95118,8.66601 0,4.78852 4.02044,8.66407 8.95118,8.66406 4.93074,0 8.95312,-3.87553 8.95312,-8.66406 0,-4.78851 -4.02238,-8.66601 -8.95312,-8.66601 z m 0,0.86523 c 4.47898,0 8.08789,3.49602 8.08789,7.80078 0,4.30478 -3.60891,7.79883 -8.08789,7.79883 -4.47898,0 -8.08594,-3.49406 -8.08594,-7.79883 0,-4.30476 3.60697,-7.80078 8.08594,-7.80078 z"
         style="color:#000000;font-style:normal;font-variant:normal;font-weight:normal;font-stretch:normal;font-size:medium;line-height:normal;font-family:sans-serif;font-variant-ligatures:normal;font-variant-position:normal;font-variant-caps:normal;font-variant-numeric:normal;font-variant-alternates:normal;font-variant-east-asian:normal;font-feature-settings:normal;font-variation-settings:normal;text-indent:0;text-align:start;text-decoration:none;text-decoration-line:none;text-decoration-style:solid;text-decoration-color:#000000;letter-spacing:normal;word-spacing:normal;text-transform:none;writing-mode:lr-tb;direction:ltr;text-orientation:mixed;dominant-baseline:auto;baseline-shift:baseline;text-anchor:start;white-space:normal;shape-padding:0;shape-margin:0;inline-size:0;clip-rule:nonzero;display:inline;overflow:visible;visibility:visible;opacity:1;isolation:auto;mix-blend-mode:normal;color-interpolation:sRGB;color-interpolation-filters:linearRGB;solid-color:#000000;solid-opacity:1;vector-effect:none;fill:#000000;fill-opacity:1;fill-rule:nonzero;stroke:none;stroke-width:0.865;stroke-linecap:square;stroke-linejoin:miter;stroke-miterlimit:4;stroke-dasharray:none;stroke-dashoffset:0;stroke-opacity:1;paint-order:markers stroke fill;color-rendering:auto;image-rendering:auto;shape-rendering:auto;text-rendering:auto;enable-background:accumulate;stop-color:#000000;stop-opacity:1" />
      <g
         style="opacity:1"
         id="g1212">
        <path
           id="path1216"
           d="m 182.53593,155.19544 c -3.73478,0 -6.76241,-2.92455 -6.76241,-6.53216 0,-3.60761 3.02764,-6.53215 6.76241,-6.53215 3.73478,0 6.76242,2.92454 6.76242,6.53215 0,3.60761 -3.02764,6.53216 -6.76242,6.53216 z"
           style="color:#000000;font-style:normal;font-variant:normal;font-weight:normal;font-stretch:normal;font-size:medium;line-height:normal;font-family:sans-serif;font-variant-ligatures:normal;font-variant-position:normal;font-variant-caps:normal;font-variant-numeric:normal;font-variant-alternates:normal;font-variant-east-asian:normal;font-feature-settings:normal;font-variation-settings:normal;text-indent:0;text-align:start;text-decoration:none;text-decoration-line:none;text-decoration-style:solid;text-decoration-color:#000000;letter-spacing:normal;word-spacing:normal;text-transform:none;writing-mode:lr-tb;direction:ltr;text-orientation:mixed;dominant-baseline:auto;baseline-shift:baseline;text-anchor:start;white-space:normal;shape-padding:0;shape-margin:0;inline-size:0;clip-rule:nonzero;display:inline;overflow:visible;visibility:visible;isolation:auto;mix-blend-mode:normal;color-interpolation:sRGB;color-interpolation-filters:linearRGB;solid-color:#000000;solid-opacity:1;vector-effect:none;fill:#ffd83e;fill-opacity:1;fill-rule:nonzero;stroke:none;stroke-width:0.365001;stroke-linecap:square;stroke-linejoin:miter;stroke-miterlimit:4;stroke-dasharray:none;stroke-dashoffset:0;stroke-opacity:1;paint-order:markers stroke fill;color-rendering:auto;image-rendering:auto;shape-rendering:auto;text-rendering:auto;enable-background:accumulate;stop-color:#000000;stop-opacity:1" />
        <path
           id="path1214"
           d="m 182.53516,141.94922 c -3.83005,0 -6.94336,3.00513 -6.94336,6.71484 0,3.70972 3.1133,6.71485 6.94336,6.71485 3.83005,0 6.94531,-3.00513 6.94531,-6.71485 0,-3.70971 -3.11526,-6.71484 -6.94531,-6.71484 z m 0,0.36523 c 3.6395,0 6.58007,2.84411 6.58007,6.34961 0,3.50551 -2.94057,6.34961 -6.58007,6.34961 -3.63951,0 -6.58008,-2.8441 -6.58008,-6.34961 0,-3.5055 2.94058,-6.34961 6.58008,-6.34961 z"
           style="color:#000000;font-style:normal;font-variant:normal;font-weight:normal;font-stretch:normal;font-size:medium;line-height:normal;font-family:sans-serif;font-variant-ligatures:normal;font-variant-position:normal;font-variant-caps:normal;font-variant-numeric:normal;font-variant-alternates:normal;font-variant-east-asian:normal;font-feature-settings:normal;font-variation-settings:normal;text-indent:0;text-align:start;text-decoration:none;text-decoration-line:none;text-decoration-style:solid;text-decoration-color:#000000;letter-spacing:normal;word-spacing:normal;text-transform:none;writing-mode:lr-tb;direction:ltr;text-orientation:mixed;dominant-baseline:auto;baseline-shift:baseline;text-anchor:start;white-space:normal;shape-padding:0;shape-margin:0;inline-size:0;clip-rule:nonzero;display:inline;overflow:visible;visibility:visible;isolation:auto;mix-blend-mode:normal;color-interpolation:sRGB;color-interpolation-filters:linearRGB;solid-color:#000000;solid-opacity:1;vector-effect:none;fill:#000000;fill-opacity:1;fill-rule:nonzero;stroke:none;stroke-width:0.365001;stroke-linecap:square;stroke-linejoin:miter;stroke-miterlimit:4;stroke-dasharray:none;stroke-dashoffset:0;stroke-opacity:1;paint-order:markers stroke fill;color-rendering:auto;image-rendering:auto;shape-rendering:auto;text-rendering:auto;enable-background:accumulate;stop-color:#000000;stop-opacity:1" />
      </g>
      <g
         style="font-style:normal;font-variant:normal;font-weight:bold;font-stretch:normal;font-size:4.23333px;line-height:1.25;font-family:Arial;-inkscape-font-specification:'Arial, Bold';font-variant-ligatures:normal;font-variant-caps:normal;font-variant-numeric:normal;font-feature-settings:normal;text-align:start;letter-spacing:0px;word-spacing:0px;writing-mode:lr-tb;text-anchor:start;fill:#000000;fill-opacity:1;stroke:none;stroke-width:0.264583"
         id="text852-9"
         aria-label="Fine">
        <path
           id="path848"
           style="stroke-width:0.264583"
           d="m 178.4145,150.03386 v -3.0303 h 2.07739 v 0.51263 h -1.46554 v 0.71726 h 1.26503 v 0.51263 h -1.26503 v 1.28778 z" />
        <path
           id="path850"
           style="stroke-width:0.264583"
           d="m 180.99418,147.54099 v -0.53743 h 0.58084 v 0.53743 z m 0,2.49287 v -2.19521 h 0.58084 v 2.19521 z" />
        <path
           id="path852"
           style="stroke-width:0.264583"
           d="m 184.16505,150.03386 h -0.58085 v -1.12034 q 0,-0.35554 -0.0372,-0.45889 -0.0372,-0.10542 -0.12196,-0.1633 -0.0827,-0.0579 -0.20051,-0.0579 -0.15089,0 -0.27078,0.0827 -0.11989,0.0827 -0.16536,0.2191 -0.0434,0.13643 -0.0434,0.50437 v 0.99425 h -0.58084 v -2.19521 h 0.5395 v 0.32246 q 0.28732,-0.37207 0.72347,-0.37207 0.19223,0 0.3514,0.0703 0.15916,0.0682 0.23977,0.1757 0.0827,0.10748 0.11369,0.24391 0.0331,0.13642 0.0331,0.39067 z" />
        <path
           id="path854"
           style="stroke-width:0.264583"
           d="m 186.02746,149.33519 0.57878,0.0972 q -0.11162,0.31832 -0.35347,0.48575 -0.23978,0.16537 -0.60151,0.16537 -0.57258,0 -0.84749,-0.37414 -0.21705,-0.29972 -0.21705,-0.75654 0,-0.5457 0.28526,-0.85369 0.28525,-0.31006 0.7214,-0.31006 0.48989,0 0.77308,0.32452 0.28319,0.32247 0.27078,0.99012 h -1.4552 q 0.006,0.25839 0.14056,0.40308 0.13435,0.14263 0.33486,0.14263 0.13642,0 0.22944,-0.0744 0.093,-0.0744 0.14056,-0.23978 z m 0.0331,-0.58704 q -0.006,-0.25218 -0.13023,-0.3824 -0.12402,-0.1323 -0.30179,-0.1323 -0.19017,0 -0.31419,0.1385 -0.12403,0.13849 -0.12196,0.3762 z" />
      </g>
    </g>
  </g>
</svg>
