<?xml version="1.0" encoding="UTF-8" standalone="no"?>
<svg
   xmlns:dc="http://purl.org/dc/elements/1.1/"
   xmlns:cc="http://creativecommons.org/ns#"
   xmlns:rdf="http://www.w3.org/1999/02/22-rdf-syntax-ns#"
   xmlns:svg="http://www.w3.org/2000/svg"
   xmlns="http://www.w3.org/2000/svg"
   xmlns:sodipodi="http://sodipodi.sourceforge.net/DTD/sodipodi-0.dtd"
   xmlns:inkscape="http://www.inkscape.org/namespaces/inkscape"
   inkscape:version="1.0 (4035a4fb49, 2020-05-01)"
   sodipodi:docname="2020-HU-02_explanation1-compatible.svg"
   id="svg99"
   viewBox="0 0 302.53561 262.22968"
   height="5.2531915cm"
   width="6.0581088cm"
   version="1.1">
  <metadata
     id="metadata105">
    <rdf:RDF>
      <cc:Work
         rdf:about="">
        <dc:format>image/svg+xml</dc:format>
        <dc:type
           rdf:resource="http://purl.org/dc/dcmitype/StillImage" />
        <dc:title></dc:title>
      </cc:Work>
    </rdf:RDF>
  </metadata>
  <defs
     id="defs103" />
  <sodipodi:namedview
     inkscape:document-rotation="0"
     inkscape:current-layer="svg99"
     inkscape:window-maximized="1"
     inkscape:window-y="-8"
     inkscape:window-x="-8"
     inkscape:cy="99.27291"
     inkscape:cx="114.48395"
     inkscape:zoom="2.9363499"
     fit-margin-bottom="0"
     fit-margin-right="0"
     fit-margin-left="0"
     fit-margin-top="0"
     showgrid="false"
     id="namedview101"
     inkscape:window-height="750"
     inkscape:window-width="1408"
     inkscape:pageshadow="2"
     inkscape:pageopacity="0"
     guidetolerance="10"
     gridtolerance="10"
     objecttolerance="10"
     borderopacity="1"
     bordercolor="#666666"
     pagecolor="#ffffff" />
  <g
     transform="translate(-213.7322,-91.053558)"
     style="stroke-width:1;stroke-linecap:square;stroke-linejoin:miter;stroke-miterlimit:10;stroke-dasharray:none;stroke-dashoffset:0"
     id="g97"
     stroke-miterlimit="10.000">
    <g
       id="misc" />
    <!-- misc -->
    <g
       id="layer0">
      <clipPath
         id="clipfc198355-f569-4e92-b1e3-3b180e251b3c">
        <path
           inkscape:connector-curvature="0"
           id="path5"
           d="M 0,0 V 611 H 819 V 0 Z" />
      </clipPath>
      <g
         id="g16"
         clip-path="url(#clip1)">
        <g
           style="fill:#000000;fill-opacity:1;fill-rule:evenodd;stroke:none"
           id="g14">
          <path
             transform="matrix(1.3213014,0,0,1.3213014,213.7322,90.998958)"
             d="M 114.47852 -0.04296875 A 0.94603696 0.94603696 0 0 0 114.39648 -0.0390625 A 0.94603696 0.94603696 0 0 0 114.38477 -0.037109375 A 0.94603696 0.94603696 0 0 0 114.1582 0.015625 A 0.94603696 0.94603696 0 0 0 114.08594 0.044921875 A 0.94603696 0.94603696 0 0 0 114.08203 0.046875 A 0.94603696 0.94603696 0 0 0 113.96875 0.109375 A 0.94603696 0.94603696 0 0 0 113.94141 0.12695312 A 0.94603696 0.94603696 0 0 0 113.89258 0.16601562 A 0.94603696 0.94603696 0 0 0 113.87891 0.17578125 A 0.94603696 0.94603696 0 0 0 113.87695 0.17773438 A 0.94603696 0.94603696 0 0 0 113.81641 0.23242188 A 0.94603696 0.94603696 0 0 0 113.8125 0.23632812 A 0.94603696 0.94603696 0 0 0 113.76172 0.29101562 A 0.94603696 0.94603696 0 0 0 113.76172 0.29296875 A 0.94603696 0.94603696 0 0 0 113.71289 0.35546875 A 0.94603696 0.94603696 0 0 0 113.71094 0.35742188 A 0.94603696 0.94603696 0 0 0 113.66797 0.42382812 A 0.94603696 0.94603696 0 0 0 113.66797 0.42578125 A 0.94603696 0.94603696 0 0 0 113.66406 0.4296875 L 56.90625 98.740234 A 0.94603696 0.94603696 0 0 0 56.904297 98.744141 L 0.15039062 197.04492 A 0.94603696 0.94603696 0 0 0 0.14453125 197.05273 L 0.140625 197.06055 A 0.94603696 0.94603696 0 0 0 0.048828125 197.27734 A 0.94603696 0.94603696 0 0 0 0.046875 197.28711 A 0.94603696 0.94603696 0 0 0 0.013671875 197.51953 A 0.94603696 0.94603696 0 0 0 0.013671875 197.5293 A 0.94603696 0.94603696 0 0 0 0.013671875 197.5332 A 0.94603696 0.94603696 0 0 0 0.017578125 197.61133 A 0.94603696 0.94603696 0 0 0 0.017578125 197.61523 A 0.94603696 0.94603696 0 0 0 0.02734375 197.69141 A 0.94603696 0.94603696 0 0 0 0.02734375 197.69531 A 0.94603696 0.94603696 0 0 0 0.044921875 197.77148 A 0.94603696 0.94603696 0 0 0 0.060546875 197.82227 A 0.94603696 0.94603696 0 0 0 0.068359375 197.84961 A 0.94603696 0.94603696 0 0 0 0.0703125 197.85352 A 0.94603696 0.94603696 0 0 0 0.076171875 197.86719 A 0.94603696 0.94603696 0 0 0 0.13867188 198.00195 A 0.94603696 0.94603696 0 0 0 0.1796875 198.06836 A 0.94603696 0.94603696 0 0 0 0.18164062 198.07227 A 0.94603696 0.94603696 0 0 0 0.22851562 198.13281 A 0.94603696 0.94603696 0 0 0 0.23046875 198.13672 A 0.94603696 0.94603696 0 0 0 0.28320312 198.19336 A 0.94603696 0.94603696 0 0 0 0.37304688 198.27539 A 0.94603696 0.94603696 0 0 0 0.40625 198.30078 A 0.94603696 0.94603696 0 0 0 0.41015625 198.30273 A 0.94603696 0.94603696 0 0 0 0.47460938 198.3457 A 0.94603696 0.94603696 0 0 0 0.47851562 198.34766 A 0.94603696 0.94603696 0 0 0 0.48632812 198.35156 A 0.94603696 0.94603696 0 0 0 0.55273438 198.38867 A 0.94603696 0.94603696 0 0 0 0.61523438 198.41406 A 0.94603696 0.94603696 0 0 0 0.625 198.41797 A 0.94603696 0.94603696 0 0 0 0.62695312 198.41797 A 0.94603696 0.94603696 0 0 0 0.6640625 198.42969 A 0.94603696 0.94603696 0 0 0 0.703125 198.44336 A 0.94603696 0.94603696 0 0 0 0.71289062 198.44531 A 0.94603696 0.94603696 0 0 0 0.78320312 198.46289 A 0.94603696 0.94603696 0 0 0 0.81445312 198.4668 A 0.94603696 0.94603696 0 0 0 0.9453125 198.47852 A 0.94603696 0.94603696 0 0 0 0.95507812 198.47852 A 0.94603696 0.94603696 0 0 0 0.95898438 198.47852 L 114.47461 198.47852 A 0.94603696 0.94603696 0 0 0 114.47852 198.47852 L 228.00781 198.47852 A 0.94603696 0.94603696 0 0 0 228.13477 198.4707 A 0.94603696 0.94603696 0 0 0 228.16211 198.4668 A 0.94603696 0.94603696 0 0 0 228.17188 198.46484 A 0.94603696 0.94603696 0 0 0 228.24219 198.44922 A 0.94603696 0.94603696 0 0 0 228.25195 198.44727 A 0.94603696 0.94603696 0 0 0 228.32031 198.42578 A 0.94603696 0.94603696 0 0 0 228.32812 198.42383 A 0.94603696 0.94603696 0 0 0 228.4707 198.35938 A 0.94603696 0.94603696 0 0 0 228.47656 198.35547 A 0.94603696 0.94603696 0 0 0 228.48047 198.35156 A 0.94603696 0.94603696 0 0 0 228.53125 198.32031 A 0.94603696 0.94603696 0 0 0 228.55078 198.30859 A 0.94603696 0.94603696 0 0 0 228.61133 198.26172 A 0.94603696 0.94603696 0 0 0 228.61523 198.25781 A 0.94603696 0.94603696 0 0 0 228.67188 198.20703 A 0.94603696 0.94603696 0 0 0 228.67383 198.20508 A 0.94603696 0.94603696 0 0 0 228.67578 198.20312 A 0.94603696 0.94603696 0 0 0 228.72852 198.14648 A 0.94603696 0.94603696 0 0 0 228.73047 198.14258 A 0.94603696 0.94603696 0 0 0 228.7793 198.08203 A 0.94603696 0.94603696 0 0 0 228.78125 198.07812 A 0.94603696 0.94603696 0 0 0 228.82227 198.01367 A 0.94603696 0.94603696 0 0 0 228.82422 198.00977 A 0.94603696 0.94603696 0 0 0 228.86133 197.94141 A 0.94603696 0.94603696 0 0 0 228.86133 197.93945 A 0.94603696 0.94603696 0 0 0 228.86328 197.9375 A 0.94603696 0.94603696 0 0 0 228.86523 197.93164 A 0.94603696 0.94603696 0 0 0 228.91992 197.78516 A 0.94603696 0.94603696 0 0 0 228.9375 197.70898 A 0.94603696 0.94603696 0 0 0 228.9375 197.70508 A 0.94603696 0.94603696 0 0 0 228.94922 197.62891 A 0.94603696 0.94603696 0 0 0 228.95508 197.5332 A 0.94603696 0.94603696 0 0 0 228.94141 197.37891 A 0.94603696 0.94603696 0 0 0 228.93945 197.37109 A 0.94603696 0.94603696 0 0 0 228.92383 197.29883 A 0.94603696 0.94603696 0 0 0 228.92188 197.29102 A 0.94603696 0.94603696 0 0 0 228.90039 197.2207 A 0.94603696 0.94603696 0 0 0 228.89844 197.21289 A 0.94603696 0.94603696 0 0 0 228.87109 197.14453 A 0.94603696 0.94603696 0 0 0 228.86719 197.13672 A 0.94603696 0.94603696 0 0 0 228.83398 197.07227 A 0.94603696 0.94603696 0 0 0 228.83008 197.06445 A 0.94603696 0.94603696 0 0 0 228.82812 197.06055 L 172.07031 98.755859 A 0.94603696 0.94603696 0 0 0 172.06836 98.751953 L 115.30664 0.4375 A 0.94603696 0.94603696 0 0 0 115.30273 0.4296875 A 0.94603696 0.94603696 0 0 0 115.26367 0.3671875 A 0.94603696 0.94603696 0 0 0 115.26172 0.36523438 A 0.94603696 0.94603696 0 0 0 115.25977 0.36132812 A 0.94603696 0.94603696 0 0 0 115.21484 0.30273438 A 0.94603696 0.94603696 0 0 0 115.20898 0.29492188 A 0.94603696 0.94603696 0 0 0 115.10156 0.18554688 A 0.94603696 0.94603696 0 0 0 115.09375 0.1796875 A 0.94603696 0.94603696 0 0 0 115.03711 0.13476562 A 0.94603696 0.94603696 0 0 0 115.03516 0.1328125 A 0.94603696 0.94603696 0 0 0 115.0293 0.12890625 A 0.94603696 0.94603696 0 0 0 114.96875 0.08984375 A 0.94603696 0.94603696 0 0 0 114.96094 0.0859375 A 0.94603696 0.94603696 0 0 0 114.95703 0.083984375 A 0.94603696 0.94603696 0 0 0 114.88867 0.046875 A 0.94603696 0.94603696 0 0 0 114.88672 0.046875 A 0.94603696 0.94603696 0 0 0 114.88477 0.044921875 A 0.94603696 0.94603696 0 0 0 114.80859 0.013671875 A 0.94603696 0.94603696 0 0 0 114.73438 -0.009765625 A 0.94603696 0.94603696 0 0 0 114.73047 -0.009765625 A 0.94603696 0.94603696 0 0 0 114.68359 -0.021484375 A 0.94603696 0.94603696 0 0 0 114.65039 -0.029296875 A 0.94603696 0.94603696 0 0 0 114.57422 -0.0390625 A 0.94603696 0.94603696 0 0 0 114.57031 -0.0390625 A 0.94603696 0.94603696 0 0 0 114.49219 -0.04296875 A 0.94603696 0.94603696 0 0 0 114.47852 -0.04296875 z M 114.48438 2.7949219 L 169.61133 98.275391 L 59.357422 98.275391 L 114.48438 2.7949219 z M 57.720703 101.10938 L 112.8457 196.58789 L 2.5976562 196.58789 L 57.720703 101.10938 z M 171.24609 101.10938 L 226.37109 196.58789 L 116.12109 196.58789 L 171.24609 101.10938 z "
             style="stroke-width:0.75683"
             id="path8" />
          <title
             id="title10">Dreieck triangle_{1,0}</title>
          <desc
             id="desc12">Dreieck triangle_{1,0}: Polygon D, E, F</desc>
        </g>
        <!-- drawing style -->
      </g>
      <!-- clip1 -->
      <clipPath
         id="clipe93242ca-4cad-4fbd-997e-25948b462a92">
        <path
           inkscape:connector-curvature="0"
           id="path18"
           d="M 0,0 V 611 H 819 V 0 Z" />
      </clipPath>
      <g
         id="g29"
         clip-path="url(#clip2)">
        <g
           style="fill:none;stroke:#000000;stroke-width:2.5;stroke-linecap:round;stroke-linejoin:round;stroke-opacity:1"
           id="g27">
          <title
             id="title23">Strecke c</title>
          <desc
             id="desc25">Strecke c: Strecke A, B</desc>
        </g>
        <!-- drawing style -->
      </g>
      <!-- clip2 -->
      <clipPath
         id="clipbedc79a7-3f53-4781-9106-144bc85633b8">
        <path
           inkscape:connector-curvature="0"
           id="path31"
           d="M 0,0 V 611 H 819 V 0 Z" />
      </clipPath>
      <g
         id="g42"
         clip-path="url(#clip3)">
        <g
           style="fill:none;stroke:#000000;stroke-width:2.5;stroke-linecap:round;stroke-linejoin:round;stroke-opacity:1"
           id="g40">
          <title
             id="title36">Strecke a</title>
          <desc
             id="desc38">Strecke a: Strecke B, C</desc>
        </g>
        <!-- drawing style -->
      </g>
      <!-- clip3 -->
      <clipPath
         id="clip400ef74c-b47d-4281-9cef-b1aceb7dce21">
        <path
           inkscape:connector-curvature="0"
           id="path44"
           d="M 0,0 V 611 H 819 V 0 Z" />
      </clipPath>
      <g
         id="g55"
         clip-path="url(#clip4)">
        <g
           style="fill:none;stroke:#000000;stroke-width:2.5;stroke-linecap:round;stroke-linejoin:round;stroke-opacity:1"
           id="g53">
          <title
             id="title49">Strecke b</title>
          <desc
             id="desc51">Strecke b: Strecke C, A</desc>
        </g>
        <!-- drawing style -->
      </g>
      <!-- clip4 -->
      <clipPath
         id="clip8bdeaa23-8566-41eb-b3ab-5b68bb48b4e7">
        <path
           inkscape:connector-curvature="0"
           id="path57"
           d="M 0,0 V 611 H 819 V 0 Z" />
      </clipPath>
      <g
         id="g68"
         clip-path="url(#clip5)">
        <g
           style="fill:none;stroke:#000000;stroke-width:2.5;stroke-linecap:round;stroke-linejoin:round;stroke-opacity:1"
           id="g66">
          <title
             id="title62">Strecke f</title>
          <desc
             id="desc64">Strecke f: Strecke D, E</desc>
        </g>
        <!-- drawing style -->
      </g>
      <!-- clip5 -->
      <clipPath
         id="clip65a19200-7875-4a0d-99ba-02f8c7694ab7">
        <path
           inkscape:connector-curvature="0"
           id="path70"
           d="M 0,0 V 611 H 819 V 0 Z" />
      </clipPath>
      <g
         id="g81"
         clip-path="url(#clip6)">
        <g
           style="fill:none;stroke:#000000;stroke-width:2.5;stroke-linecap:round;stroke-linejoin:round;stroke-opacity:1"
           id="g79">
          <title
             id="title75">Strecke d</title>
          <desc
             id="desc77">Strecke d: Strecke E, F</desc>
        </g>
        <!-- drawing style -->
      </g>
      <!-- clip6 -->
      <clipPath
         id="clip829c4c43-270c-4639-b5ab-5ff1363b9e4b">
        <path
           inkscape:connector-curvature="0"
           id="path83"
           d="M 0,0 V 611 H 819 V 0 Z" />
      </clipPath>
      <g
         id="g94"
         clip-path="url(#clip7)">
        <g
           style="fill:none;stroke:#000000;stroke-width:2.5;stroke-linecap:round;stroke-linejoin:round;stroke-opacity:1"
           id="g92">
          <title
             id="title88">Strecke e</title>
          <desc
             id="desc90">Strecke e: Strecke F, D</desc>
        </g>
        <!-- drawing style -->
      </g>
      <!-- clip7 -->
    </g>
    <!-- layer0 -->
  </g>
  <!-- default stroke -->
</svg>
