<?xml version="1.0" encoding="UTF-8" standalone="no"?>
<svg
   xmlns:dc="http://purl.org/dc/elements/1.1/"
   xmlns:cc="http://creativecommons.org/ns#"
   xmlns:rdf="http://www.w3.org/1999/02/22-rdf-syntax-ns#"
   xmlns:svg="http://www.w3.org/2000/svg"
   xmlns="http://www.w3.org/2000/svg"
   xmlns:sodipodi="http://sodipodi.sourceforge.net/DTD/sodipodi-0.dtd"
   xmlns:inkscape="http://www.inkscape.org/namespaces/inkscape"
   xml:space="preserve"
   width="100mm"
   height="50mm"
   version="1.1"
   style="clip-rule:evenodd;fill-rule:evenodd;image-rendering:optimizeQuality;shape-rendering:geometricPrecision;text-rendering:geometricPrecision"
   viewBox="0 0 9844.8067 4922.347"
   id="svg1157"
   sodipodi:docname="2020-LT-01_taskbody2.svg"
   inkscape:version="1.0 (4035a4fb49, 2020-05-01)"><metadata
   id="metadata1161"><rdf:RDF><cc:Work
       rdf:about=""><dc:format>image/svg+xml</dc:format><dc:type
         rdf:resource="http://purl.org/dc/dcmitype/StillImage" /><dc:title /></cc:Work></rdf:RDF></metadata><sodipodi:namedview
   inkscape:document-rotation="0"
   pagecolor="#ffffff"
   bordercolor="#666666"
   borderopacity="1"
   objecttolerance="10"
   gridtolerance="10"
   guidetolerance="10"
   inkscape:pageopacity="0"
   inkscape:pageshadow="2"
   inkscape:window-width="640"
   inkscape:window-height="480"
   id="namedview1159"
   showgrid="false"
   inkscape:current-layer="_806366064"
   inkscape:snap-global="false"
   fit-margin-top="0"
   fit-margin-left="0"
   fit-margin-right="0"
   fit-margin-bottom="0" />
 <defs
   id="defs4">
  <style
   type="text/css"
   id="style2">
   <![CDATA[
    .str1 {stroke:#2B2A29;stroke-width:14.7676;stroke-linecap:round;stroke-linejoin:round}
    .str0 {stroke:#2B2A29;stroke-width:49.2252;stroke-linecap:round;stroke-linejoin:round}
    .str2 {stroke:#2B2A29;stroke-width:98.4505;stroke-linecap:round;stroke-linejoin:round}
    .fil6 {fill:none}
    .fil7 {fill:#2B2A29}
    .fil13 {fill:#57A7B3}
    .fil11 {fill:#5B7674}
    .fil10 {fill:#96A7B1}
    .fil12 {fill:#A75F4A}
    .fil9 {fill:#B7CBD8}
    .fil4 {fill:#EF7F1A}
    .fil1 {fill:#FCD5A6}
    .fil3 {fill:#9D6432}
    .fil8 {fill:#C5AD90}
    .fil0 {fill:#C8E8FB}
    .fil5 {fill:#FBCCA2}
    .fil2 {fill:#FEEDD6}
   ]]>
  </style>
 
    
    
   
    
    
    
    
    
    
    
    
    
    
    
    
    
    
    
    
    
    
    
    
    
    
    
    
    
    
    
    
    
    
    
    
    
    
    
    
    
    
    
    
    
    
    
    
    
    
    
    
    
    
    
    
    
    
    
    
    
    
   </defs>
 <g
   id="Layer_x0020_1"
   transform="translate(-4488.0119,-5018.9066)">
  <metadata
   id="CorelCorpID_0Corel-Layer" />
  <g
   id="_806366064">
   <path
   id="path2920"
   style="font-variation-settings:normal;opacity:1;vector-effect:none;fill:#c8e8fb;fill-opacity:1;stroke:none;stroke-width:0.994885;stroke-linecap:butt;stroke-linejoin:miter;stroke-miterlimit:4;stroke-dasharray:none;stroke-dashoffset:0;stroke-opacity:1;stop-color:#000000;stop-opacity:1"
   d="m 6756.1178,5152.7355 c 463.9497,-260.5113 1011.1748,-77.4302 1492.5174,29.3791 888.362,268.1514 1773.6468,691.2837 2723.3098,594.3541 974.72,3.189 1928.666,253.3331 2862.787,510.2321 418.361,108.1295 471.592,562.0454 482.913,929.5192 47.037,359.576 -1.977,846.9731 -401.269,973.2217 -704.024,306.9709 -1465.391,-151.5725 -2180.542,100.4099 -428.496,104.242 -828.997,350.1955 -1283.217,302.0859 -375.98,-19.9402 -785.7966,79.5654 -998.6603,424.7526 -298.3316,372.9994 -677.1204,697.1888 -1148.3459,800.9455 C 7422.501,10093.737 6402.7758,9902.6399 5705.9772,9273.805 5300.0733,8991.8331 5363.2823,8345.0012 4908.833,8109.2469 4567.2339,7848.1809 4296.8354,7298.8168 4664.5691,6939.5331 5160.3159,5917.5396 6055.5252,5901.775 6756.1178,5152.7355 Z"
   sodipodi:nodetypes="cccccccccccccc" /><path
   sodipodi:nodetypes="cccccccccccccccccccccccc"
   style="font-variation-settings:normal;clip-rule:evenodd;opacity:1;vector-effect:none;fill:#fcd5a6;fill-opacity:1;fill-rule:evenodd;stroke:none;stroke-width:49.2252;stroke-linecap:round;stroke-linejoin:round;stroke-miterlimit:4;stroke-dasharray:none;stroke-dashoffset:0;stroke-opacity:1;image-rendering:optimizeQuality;shape-rendering:geometricPrecision;text-rendering:geometricPrecision;stop-color:#000000;stop-opacity:1"
   id="path9-8"
   d="m 8588.2169,5617.983 h -550.0038 m 0,0 v 1662.475 c -77,47 -144.9842,115.0017 -193.9842,195.0018 H 6055.1781 l 9.005,550.0038 h 1792.0523 c 47.9999,68.9999 109.9779,128.0238 181.9777,173.0238 v 1261.1265 h 550.0038 V 8222.5003 c 83,-47 150.0033,-116.0369 198.0032,-197.0367 h 2313.0069 c 48,68.9999 109.978,128.0238 181.978,173.0238 247.88,141.6366 409.468,100.8615 550.003,24.0129 83,-47 150.004,-116.0369 198.004,-197.0367 l 1550.214,-2.6239 177.736,-547.3799 h -1736.955 c -199.915,-385.4395 -708.288,-374.1792 -932.987,0 H 8777.2154 c -44,-63 -105.9985,-120.0034 -188.9985,-166.0034 V 5617.983" /><path
   style="color:#000000;font-style:normal;font-variant:normal;font-weight:normal;font-stretch:normal;font-size:medium;line-height:normal;font-family:sans-serif;font-variant-ligatures:normal;font-variant-position:normal;font-variant-caps:normal;font-variant-numeric:normal;font-variant-alternates:normal;font-variant-east-asian:normal;font-feature-settings:normal;font-variation-settings:normal;text-indent:0;text-align:start;text-decoration:none;text-decoration-line:none;text-decoration-style:solid;text-decoration-color:#000000;letter-spacing:normal;word-spacing:normal;text-transform:none;writing-mode:lr-tb;direction:ltr;text-orientation:mixed;dominant-baseline:auto;baseline-shift:baseline;text-anchor:start;white-space:normal;shape-padding:0;shape-margin:0;inline-size:0;clip-rule:nonzero;display:inline;overflow:visible;visibility:visible;opacity:1;isolation:auto;mix-blend-mode:normal;color-interpolation:sRGB;color-interpolation-filters:linearRGB;solid-color:#000000;solid-opacity:1;vector-effect:none;fill:#2b2a29;fill-opacity:1;fill-rule:nonzero;stroke:none;stroke-width:49.2252;stroke-linecap:round;stroke-linejoin:round;stroke-miterlimit:4;stroke-dasharray:none;stroke-dashoffset:0;stroke-opacity:1;color-rendering:auto;image-rendering:auto;shape-rendering:auto;text-rendering:auto;enable-background:accumulate;stop-color:#000000;stop-opacity:1"
   d="m 8038.2129,5593.3691 c -13.5929,7e-4 -24.6117,11.0204 -24.6113,24.6133 v 1648.916 c -71.8264,46.2864 -135.1456,109.7632 -182.918,183.9493 h -1931.791 c -13.5929,-4e-4 -24.6126,11.0184 -24.6133,24.6113 -4e-4,13.5937 11.0196,24.6137 24.6133,24.6133 h 1945.3359 c 8.5653,-7e-4 16.5144,-4.4538 20.9883,-11.7578 46.9486,-76.6509 112.3326,-141.9916 185.8203,-186.8477 7.3225,-4.4703 11.7892,-12.4306 11.7891,-21.0098 V 5617.9824 c 4e-4,-13.5937 -11.0196,-24.6137 -24.6133,-24.6133 z m 550.0039,0 c -13.5937,-4e-4 -24.6137,11.0196 -24.6133,24.6133 V 7309.457 c 6e-4,8.9473 4.8561,17.1897 12.6817,21.5274 80.0048,44.34 138.9757,98.7526 180.7519,158.5683 4.6042,6.5915 12.1374,10.519 20.1777,10.5196 h 2310.0062 c 8.642,-9e-4 16.65,-4.5333 21.099,-11.9414 108.188,-180.1598 283.354,-271.5761 454.879,-272.9161 171.526,-1.34 339.172,86.5128 435.158,271.5762 4.232,8.1595 12.658,13.2811 21.85,13.2813 h 1632.765 c 13.593,-9e-4 24.611,-11.0205 24.611,-24.6133 0,-13.592 -11.019,-24.6104 -24.611,-24.6113 h -1618.087 c -105.18,-191.4405 -287.494,-286.2994 -472.071,-284.8575 -184.882,1.4444 -372.166,98.6631 -489.271,284.8575 H 8789.5703 c -43.2131,-58.6294 -101.6192,-111.692 -176.7402,-155.4493 v -1677.416 c 4e-4,-13.5937 -11.0196,-24.6137 -24.6133,-24.6133 z M 5907.8965,8000.8516 c -13.5929,-4e-4 -24.6126,11.0184 -24.6133,24.6113 -4e-4,13.5937 11.0196,24.6137 24.6133,24.6133 h 1935.8847 c 46.0924,63.4582 103.6553,118.3068 169.8204,161.6406 v 1299.9915 c -4e-4,13.593 11.0184,24.6126 24.6113,24.6133 13.5937,4e-4 24.6137,-11.0196 24.6133,-24.6133 v -1313.222 c -7e-4,-8.486 -4.3724,-16.3733 -11.5684,-20.8711 -69.1804,-43.2379 -128.7327,-99.9589 -174.8183,-166.207 -4.6011,-6.6129 -12.1471,-10.5559 -20.2032,-10.5566 z m 2878.3242,0 c -8.6931,4e-4 -16.7414,4.5862 -21.1738,12.0644 -46.0056,77.6344 -110.0074,143.4596 -188.9571,188.166 -7.716,4.3692 -12.4858,12.5508 -12.4863,21.418 v 1289.2083 c -4e-4,13.5937 11.0196,24.6137 24.6133,24.6133 13.5937,4e-4 24.6137,-11.0196 24.6133,-24.6133 V 8236.5527 c 77.152,-46.5209 140.2673,-111.3294 187.1699,-186.4765 h 2286.771 c 48.787,67.1672 110.308,124.8575 181.389,169.2832 0.275,0.1715 0.553,0.3375 0.834,0.498 253.647,144.932 429.736,103.1391 574.024,24.2383 0.106,-0.058 0.212,-0.1177 0.318,-0.1777 82.863,-46.9222 150.239,-114.6689 199.654,-193.8418 h 1621.988 c 13.593,-9e-4 24.611,-11.0205 24.611,-24.6133 0,-13.592 -11.019,-24.6104 -24.611,-24.6113 h -1635.765 c -8.694,-3e-4 -16.743,4.5855 -21.176,12.0644 -45.974,77.5813 -109.921,143.3676 -188.797,188.0723 -136.642,74.6886 -283.605,114.3506 -525.322,-23.5918 -69.037,-43.2114 -128.476,-99.848 -174.486,-165.9883 -4.601,-6.6135 -12.148,-10.5564 -20.205,-10.5566 z"
   id="path2744"
   sodipodi:nodetypes="sccccscccsccsscccscccssccsccsccccscsccccscccsccccsccsccccscscccscccccscc" /><path
   d="m 11597,7344 c 600,125 407,779 0,779 -215,0 -420,-184 -420,-400 0,-215 219,-421 420,-379 z"
   id="path2696"
   style="font-variation-settings:normal;opacity:1;vector-effect:none;fill:#feedd6;fill-opacity:1;stroke-width:1;stroke-linecap:butt;stroke-linejoin:miter;stroke-miterlimit:4;stroke-dasharray:none;stroke-dashoffset:0;stroke-opacity:1;stop-color:#000000;stop-opacity:1" /><path
   d="m 8354,7344 c 600,125 407,779 0,779 -215,0 -420,-184 -420,-400 0,-215 219,-421 420,-379 z"
   id="path2694"
   style="font-variation-settings:normal;opacity:1;vector-effect:none;fill:#feedd6;fill-opacity:1;stroke-width:1;stroke-linecap:butt;stroke-linejoin:miter;stroke-miterlimit:4;stroke-dasharray:none;stroke-dashoffset:0;stroke-opacity:1;stop-color:#000000;stop-opacity:1" /><path
   id="path55"
   d="m 9140,6480 c 516,129 207,-225 584,-34 243,123 268,-64 540,29 38,13 190,5 231,5"
   class="fil6 str1" /><path
   id="path57"
   d="m 9995,6064 c 588,165 344,-262 568,-6 32,37 218,38 265,6"
   class="fil6 str1" /><path
   id="path61"
   d="m 5827,9273 c 325,312 857,239 813,-14 -45,253 696,233 750,76"
   class="fil6 str1" /><path
   id="path63"
   d="m 6515,8814 c 749,254 492,-269 712,-15 79,91 278,180 392,120"
   class="fil6 str1" /><g
   id="g335"
   transform="translate(1569.8482,-1739.9079)">
     <path
   id="path297"
   d="m 11333,9641 c 40,6 94,7 174,0 101,-10 206,-7 314,-11 v -310 c -138,-20 -273,-23 -344,-11 -40,6 -92,24 -144,44 z"
   class="fil8" />
     <g
   id="g333">
      <g
   id="g307">
       <path
   id="path299"
   d="m 11212,9197 c -27,28 -20,192 -14,240 8,67 28,22 77,65 181,157 229,56 425,67 59,3 247,4 255,-71 6,-68 33,-305 -44,-313 -133,-13 -218,-111 -394,-46 -85,31 -244,-9 -305,58 z"
   class="fil9 str0" />
       <path
   id="path301"
   d="m 11245,9220 c 1,0 220,107 221,107 26,0 449,-60 450,-71"
   class="fil6 str1" />
       <path
   id="path303"
   d="m 11456,9338 c -32,56 -9,145 -9,201"
   class="fil6 str1" />
       <path
   id="path305"
   d="m 11918,9276 c -66,17 -437,61 -448,127 -33,199 103,131 244,136 39,2 227,-23 221,-118 -1,-13 19,-154 -17,-145 z"
   class="fil10" />
      </g>
      <path
   id="path309"
   d="m 11289,9064 c -61,34 -75,101 -30,151 38,42 119,90 205,109 52,11 147,-19 205,-23 43,-2 191,-27 240,-48 33,-14 -5,-52 -3,-119 4,-103 -528,-121 -617,-70 z"
   class="fil7" />
      <g
   id="g319">
       <path
   id="path311"
   d="m 11212,8866 c -27,28 -20,192 -14,240 8,67 28,22 77,65 181,157 229,57 425,67 59,3 247,5 255,-71 6,-68 33,-305 -44,-313 -133,-13 -218,-111 -394,-46 -85,31 -244,-9 -305,58 z"
   class="fil9 str0" />
       <path
   id="path313"
   d="m 11245,8889 c 1,0 220,107 221,107 26,0 449,-59 450,-71"
   class="fil6 str1" />
       <path
   id="path315"
   d="m 11456,9007 c -32,57 -9,145 -9,201"
   class="fil6 str1" />
       <path
   id="path317"
   d="m 11918,8945 c -66,17 -437,61 -448,127 -33,199 103,131 244,136 39,2 227,-23 221,-118 -1,-13 19,-153 -17,-145 z"
   class="fil10" />
      </g>
      <path
   id="path321"
   d="m 11286,8752 c -60,34 -74,101 -29,151 38,42 118,90 205,109 51,11 146,-19 205,-22 42,-3 191,-28 240,-48 32,-14 -5,-53 -3,-119 4,-104 -529,-122 -618,-71 z"
   class="fil7" />
      <g
   id="g331">
       <path
   id="path323"
   d="m 11210,8554 c -27,28 -21,192 -15,240 8,67 29,22 78,65 181,157 229,57 425,67 59,3 247,5 254,-71 7,-68 33,-305 -43,-313 -133,-13 -218,-111 -394,-46 -85,32 -244,-9 -305,58 z"
   class="fil9 str0" />
       <path
   id="path325"
   d="m 11243,8577 c 0,1 219,107 220,107 27,0 449,-59 451,-71"
   class="fil6 str1" />
       <path
   id="path327"
   d="m 11454,8696 c -33,56 -10,144 -10,200"
   class="fil6 str1" />
       <path
   id="path329"
   d="m 11916,8633 c -66,17 -437,62 -448,127 -33,199 102,131 243,136 39,2 228,-23 222,-118 -1,-13 19,-153 -17,-145 z"
   class="fil10" />
      </g>
     </g>
    </g><g
   id="g527">
     <path
   id="path515"
   d="m 9643,7703 c -4,2 -141,100 -67,127 147,53 115,124 336,98 109,-12 224,-3 342,-18 34,-4 305,-38 268,-123 -71,-162 -497,-218 -635,-191 -68,14 -187,83 -244,107 z"
   class="fil8" />
     <g
   id="g525">
      <path
   id="path517"
   d="m 9575,7484 c -26,28 -20,192 -14,240 8,67 29,22 78,65 181,157 229,56 425,67 59,3 247,5 254,-71 7,-68 33,-305 -43,-313 -133,-13 -218,-111 -394,-46 -85,31 -244,-9 -306,58 z"
   class="fil9 str0" />
      <path
   id="path519"
   d="m 9609,7507 c 0,0 219,107 220,107 26,0 449,-60 451,-71"
   class="fil6 str1" />
      <path
   id="path521"
   d="m 9820,7625 c -33,57 -10,145 -10,201"
   class="fil6 str1" />
      <path
   id="path523"
   d="m 10282,7563 c -66,17 -437,61 -448,127 -33,199 102,131 243,136 39,2 228,-23 222,-118 -1,-13 19,-154 -17,-145 z"
   class="fil10" />
     </g>
    </g><g
   id="g923">
     <path
   id="path897"
   d="m 6429,7663 c -5,2 -142,99 -68,126 147,53 115,124 336,98 109,-12 224,-3 343,-18 33,-4 304,-38 267,-123 -71,-162 -497,-218 -634,-190 -69,13 -187,82 -244,107 z"
   class="fil8" />
     <g
   id="g921">
      <g
   id="g907">
       <path
   id="path899"
   d="m 6362,7443 c -26,28 -20,192 -14,240 8,67 28,22 78,65 180,157 228,57 425,67 58,3 246,5 254,-71 7,-68 33,-305 -44,-313 -133,-13 -218,-111 -394,-46 -85,32 -244,-8 -305,58 z"
   class="fil9 str0" />
       <path
   id="path901"
   d="m 6396,7466 c 0,1 219,107 220,107 26,0 449,-59 450,-71"
   class="fil6 str1" />
       <path
   id="path903"
   d="m 6606,7585 c -32,56 -9,144 -9,201"
   class="fil6 str1" />
       <path
   id="path905"
   d="m 7068,7523 c -66,16 -437,61 -448,126 -33,199 103,131 244,137 39,1 227,-24 221,-119 -1,-13 19,-153 -17,-144 z"
   class="fil10" />
      </g>
      <path
   id="path909"
   d="m 6439,7310 c -60,34 -75,101 -30,151 38,42 119,90 205,109 52,11 147,-19 205,-22 43,-3 191,-27 240,-48 33,-14 -5,-53 -3,-119 4,-104 -528,-122 -617,-71 z"
   class="fil7" />
      <g
   id="g919">
       <path
   id="path911"
   d="m 6362,7112 c -26,28 -20,192 -14,240 8,67 28,22 78,65 180,157 228,57 425,67 58,3 246,5 254,-71 7,-68 33,-305 -44,-312 -133,-14 -218,-112 -394,-47 -85,32 -244,-8 -305,58 z"
   class="fil9 str0" />
       <path
   id="path913"
   d="m 6396,7136 c 0,0 219,106 220,106 26,0 449,-59 450,-71"
   class="fil6 str1" />
       <path
   id="path915"
   d="m 6606,7254 c -32,56 -9,144 -9,201"
   class="fil6 str1" />
       <path
   id="path917"
   d="m 7068,7192 c -66,16 -437,61 -448,126 -33,199 103,131 244,137 39,1 227,-24 221,-119 -1,-13 19,-153 -17,-144 z"
   class="fil10" />
      </g>
     </g>
    </g><g
   id="g1059">
     <path
   id="path1033"
   d="m 8089,6776 c 40,6 94,7 174,0 101,-10 206,-7 314,-11 v -310 c -139,-20 -273,-23 -345,-11 -39,6 -91,24 -143,44 z"
   class="fil8" />
     <g
   id="g1057">
      <g
   id="g1043">
       <path
   id="path1035"
   d="m 7968,6332 c -27,28 -20,192 -15,240 9,67 29,22 78,65 181,157 229,56 425,67 59,3 247,4 255,-71 6,-68 33,-305 -44,-313 -133,-13 -218,-111 -394,-46 -85,31 -244,-9 -305,58 z"
   class="fil9 str0" />
       <path
   id="path1037"
   d="m 8001,6355 c 1,0 219,107 221,107 26,0 448,-60 450,-71"
   class="fil6 str1" />
       <path
   id="path1039"
   d="m 8212,6473 c -32,57 -10,145 -10,201"
   class="fil6 str1" />
       <path
   id="path1041"
   d="m 8674,6411 c -66,17 -437,61 -448,127 -33,199 102,131 243,136 39,2 228,-23 222,-118 -1,-13 19,-154 -17,-145 z"
   class="fil10" />
      </g>
      <path
   id="path1045"
   d="m 8044,6199 c -60,34 -74,101 -29,151 38,42 118,90 205,109 52,11 147,-19 205,-23 42,-2 191,-27 240,-48 33,-14 -5,-52 -3,-119 4,-103 -529,-121 -618,-70 z"
   class="fil7" />
      <g
   id="g1055">
       <path
   id="path1047"
   d="m 7968,6001 c -27,28 -20,192 -15,240 9,67 29,22 78,65 181,157 229,57 425,67 59,3 247,5 255,-71 6,-68 33,-305 -44,-313 -133,-13 -218,-111 -394,-46 -85,32 -244,-9 -305,58 z"
   class="fil9 str0" />
       <path
   id="path1049"
   d="m 8001,6024 c 1,0 219,107 221,107 26,0 448,-59 450,-71"
   class="fil6 str1" />
       <path
   id="path1051"
   d="m 8212,6142 c -32,57 -10,145 -10,201"
   class="fil6 str1" />
       <path
   id="path1053"
   d="m 8674,6080 c -66,17 -437,61 -448,127 -33,199 102,131 243,136 39,2 228,-23 222,-118 -1,-13 19,-153 -17,-145 z"
   class="fil10" />
      </g>
     </g>
    </g><g
   id="g1115">
     <path
   id="path1103"
   d="m 8090,9320 c 40,6 94,7 174,-1 101,-9 206,-6 314,-10 v -310 c -138,-20 -273,-23 -344,-11 -40,6 -92,24 -144,44 z"
   class="fil8" />
     <g
   id="g1113">
      <path
   id="path1105"
   d="m 7968,8875 c -27,28 -20,192 -15,240 9,67 29,22 78,65 181,157 229,57 425,67 59,3 247,5 255,-71 6,-68 33,-305 -44,-313 -133,-13 -218,-111 -394,-46 -85,32 -244,-8 -305,58 z"
   class="fil9 str0" />
      <path
   id="path1107"
   d="m 8001,8898 c 1,1 219,107 221,107 26,0 448,-59 450,-71"
   class="fil6 str1" />
      <path
   id="path1109"
   d="m 8212,9017 c -32,56 -10,144 -10,201"
   class="fil6 str1" />
      <path
   id="path1111"
   d="m 8674,8955 c -66,16 -437,61 -448,126 -33,199 102,131 243,137 39,1 228,-24 222,-119 -1,-13 19,-153 -17,-144 z"
   class="fil10" />
     </g>
    </g><path
   id="path2866"
   d="m 6578.8067,6431.8544 c -624.9127,-0.1839 -1285.6858,326.8871 -1449.5703,924.5039 -38.4587,-56.8276 -81.9032,-99.2768 -116.6172,-128.0468 a 65.119291,65.119291 0 0 0 -91.6914,8.5859 65.119291,65.119291 0 0 0 8.584,91.6914 c 60.5577,50.1886 148.2019,143.0998 161.8321,296.918 5e-4,0.01 0,0.012 0,0.017 a 65.125803,65.125803 0 0 0 0.041,0.4532 65.119291,65.119291 0 0 0 0.021,0.2215 65.125803,65.125803 0 0 0 0.01,0.055 65.119291,65.119291 0 0 0 0.066,0.6347 65.125803,65.125803 0 0 0 0,0.042 65.119291,65.119291 0 0 0 0.072,0.6192 65.125803,65.125803 0 0 0 0.043,0.3477 65.119291,65.119291 0 0 0 0.041,0.3261 65.125803,65.125803 0 0 0 0.01,0.052 65.119291,65.119291 0 0 0 0.088,0.6483 65.125803,65.125803 0 0 0 0,0.025 65.119291,65.119291 0 0 0 0.092,0.6174 65.125803,65.125803 0 0 0 0.01,0.052 65.119291,65.119291 0 0 0 0.098,0.6171 65.125803,65.125803 0 0 0 0.07,0.4298 65.119291,65.119291 0 0 0 0.041,0.2396 65.125803,65.125803 0 0 0 0.01,0.052 65.119291,65.119291 0 0 0 0.1151,0.6445 65.125803,65.125803 0 0 0 0,0.024 65.119291,65.119291 0 0 0 0.1173,0.6131 65.125803,65.125803 0 0 0 0.062,0.3087 65.119291,65.119291 0 0 0 0.07,0.3574 65.125803,65.125803 0 0 0 0.012,0.052 65.119291,65.119291 0 0 0 0.1289,0.6113 65.125803,65.125803 0 0 0 0.012,0.052 65.119291,65.119291 0 0 0 0.3027,1.3222 65.119291,65.119291 0 0 0 0.1485,0.6074 65.125803,65.125803 0 0 0 0.014,0.052 65.119291,65.119291 0 0 0 0.1602,0.6231 65.125803,65.125803 0 0 0 0.01,0.034 65.119291,65.119291 0 0 0 0.1602,0.6035 65.125803,65.125803 0 0 0 0.1054,0.377 65.119291,65.119291 0 0 0 0.076,0.2774 65.125803,65.125803 0 0 0 0.016,0.052 65.119291,65.119291 0 0 0 0.1819,0.6327 65.125803,65.125803 0 0 0 0.01,0.02 65.119291,65.119291 0 0 0 0.1797,0.5957 65.125803,65.125803 0 0 0 0.092,0.297 65.119291,65.119291 0 0 0 0.1094,0.3516 65.125803,65.125803 0 0 0 0.017,0.052 65.119291,65.119291 0 0 0 0.1914,0.5937 65.125803,65.125803 0 0 0 0.017,0.052 65.119291,65.119291 0 0 0 0.2168,0.6446 65.119291,65.119291 0 0 0 0.2031,0.5879 65.125803,65.125803 0 0 0 0.1251,0.3499 65.119291,65.119291 0 0 0 0.1034,0.2909 65.125803,65.125803 0 0 0 0.019,0.052 65.119291,65.119291 0 0 0 0.2167,0.584 65.125803,65.125803 0 0 0 0.059,0.1537 65.119291,65.119291 0 0 0 0.2032,0.5332 65.119291,65.119291 0 0 0 0.2284,0.5801 65.125803,65.125803 0 0 0 0.1836,0.455 65.119291,65.119291 0 0 0 0.07,0.1745 65.125803,65.125803 0 0 0 0.021,0.052 65.119291,65.119291 0 0 0 0.2501,0.5996 65.125803,65.125803 0 0 0 0.082,0.1902 65.119291,65.119291 0 0 0 0.1758,0.4082 65.125803,65.125803 0 0 0 0.01,0.012 65.119291,65.119291 0 0 0 4.4434,8.4375 c 6.3215,10.5203 17.5932,23.4446 37.1445,29.8418 25.2577,8.2643 48.1397,-1.2245 58.334,-7.8203 20.3886,-13.1915 21.6239,-20.5548 25.6816,-26.7969 6.821,-10.4928 11.2132,-18.5713 11.6094,-19.7012 101.5975,-123.2588 194.9362,-188.3043 347.8808,-239.1426 a 65.119291,65.119291 0 0 0 41.2558,-82.3358 65.119291,65.119291 0 0 0 -82.3359,-41.2539 c -116.9235,38.8649 -211.349,91.2736 -295.6387,164.3945 240.926,-1054.2845 2225.8135,-1216.5281 2421.9004,-114.4843 a 65.119291,65.119291 0 0 0 75.5194,52.705 65.119291,65.119291 0 0 0 52.7052,-75.5195 c -104.8168,-589.071 -645.5288,-862.1323 -1216.2259,-862.3004 z"
   style="color:#000000;font-style:normal;font-variant:normal;font-weight:normal;font-stretch:normal;font-size:medium;line-height:normal;font-family:sans-serif;font-variant-ligatures:normal;font-variant-position:normal;font-variant-caps:normal;font-variant-numeric:normal;font-variant-alternates:normal;font-variant-east-asian:normal;font-feature-settings:normal;font-variation-settings:normal;text-indent:0;text-align:start;text-decoration:none;text-decoration-line:none;text-decoration-style:solid;text-decoration-color:#000000;letter-spacing:normal;word-spacing:normal;text-transform:none;writing-mode:lr-tb;direction:ltr;text-orientation:mixed;dominant-baseline:auto;baseline-shift:baseline;text-anchor:start;white-space:normal;shape-padding:0;shape-margin:0;inline-size:0;clip-rule:evenodd;display:inline;overflow:visible;visibility:visible;opacity:1;isolation:auto;mix-blend-mode:normal;color-interpolation:sRGB;color-interpolation-filters:linearRGB;solid-color:#000000;solid-opacity:1;vector-effect:none;fill:#ffffff;fill-opacity:1;fill-rule:evenodd;stroke:none;stroke-width:130.239;stroke-linecap:round;stroke-linejoin:round;stroke-miterlimit:4;stroke-dasharray:none;stroke-dashoffset:0;stroke-opacity:1;color-rendering:auto;image-rendering:optimizeQuality;shape-rendering:geometricPrecision;text-rendering:geometricPrecision;enable-background:accumulate;stop-color:#000000;stop-opacity:1" /><g
   transform="matrix(0.62553279,0,0,0.62553279,7207.181,6433.0201)"
   id="g49">
     <path
   id="path13"
   d="m 2029,1513 c -36,344 -203,448 -165,476 27,20 67,-19 349,121 95,47 104,160 -93,113 -271,-64 -643,68 -506,-350 64,-197 422,-428 415,-360 z"
   class="fil3 str0" />
     <path
   id="path15"
   d="m 2337,341 c 115,-53 255,8 336,-39 37,-22 19,-67 89,-131 196,-179 572,-245 122,105 -26,19 -163,51 -206,126 77,133 64,261 191,370 10,8 38,60 -28,83 -41,15 -164,-19 -276,-94 -53,32 -69,127 -57,181 26,118 162,274 136,324 -114,213 -210,338 -168,546 36,177 -268,158 -63,-338 77,-188 -333,-266 -148,182 118,286 -180,490 -154,-182 3,-86 -289,177 -310,216 -113,212 -232,525 -100,557 379,90 318,133 331,248 8,75 -219,-11 -520,-86 -288,-71 31,-599 -182,-631 -58,-9 -76,253 -124,362 -134,302 -477,402 -756,402 -147,0 -231,1 -369,-28 -1,-1 377,-93 421,-91 265,8 464,-453 501,-703 36,-254 -81,-891 457,-1112 341,-140 548,199 682,143 32,-14 128,-74 138,-150 5,-42 -11,-149 -73,-156 -343,27 -498,-395 -409,-377 504,103 274,153 539,273 z"
   class="fil4 str0" />
     <path
   id="path17"
   d="m 2076,210 c -45,-35 -358,-201 -216,9 68,101 124,187 272,168 71,-8 -56,-177 -56,-177 z"
   class="fil5" />
     <path
   id="path19"
   d="m 2752,289 c 56,-133 474,-331 128,-65 -25,19 -155,128 -128,65 z"
   class="fil5" />
     <path
   id="path21"
   d="m 2619,394 c -205,-76 -331,29 -192,217 30,41 373,262 313,122 -48,-111 -35,-308 -121,-339 z"
   class="fil5" />
     <path
   id="path23"
   d="m 1762,1067 c 105,519 -305,454 -305,1058 0,272 118,208 312,311 80,43 491,29 -73,-141 -148,-45 -55,-416 8,-502 113,-158 323,-588 103,-729 -1,-1 -46,-5 -45,3 z"
   class="fil5" />
     <path
   id="path25"
   d="m 2431,961 c -150,-129 -389,171 -310,445 3,12 43,601 141,456 66,-98 -250,-546 109,-561 175,-8 18,361 21,477 6,198 24,-177 104,-313 109,-185 98,-286 -14,-463 -10,-15 -30,-23 -51,-41 z"
   class="fil5" />
     <path
   id="path27"
   d="m 1356,944 c 946,-144 447,748 425,756"
   class="fil6 str1" />
     <path
   id="path29"
   d="m 2172,1031 c -149,206 -119,233 -71,444 3,13 27,8 36,8"
   class="fil6 str1" />
     <path
   id="path31"
   d="m 2372,1083 c -38,157 -120,244 -131,287"
   class="fil6 str1" />
     <path
   id="path33"
   d="m 2528,467 c -232,-31 110,157 0,0 z"
   class="fil7 str1" />
     <path
   id="path35"
   d="m 2697,432 c -138,-10 44,180 18,21 -1,-5 -14,-21 -18,-21 z"
   class="fil7 str1" />
     <path
   id="path37"
   d="m 2832,766 c -65,-43 -144,29 24,29 23,0 -23,-28 -24,-29 z"
   class="fil7 str1" />
     <path
   id="path39"
   d="m 2825,786 c -1,27 -4,43 -4,69"
   class="fil6 str1" />
     <path
   id="path41"
   d="m 2599,339 c 27,0 75,11 83,100"
   class="fil6 str1" />
     <path
   id="path43"
   d="m 2152,373 c 4,9 -34,0 -43,-3 -219,-73 -133,-35 -218,-149 -134,-178 334,200 335,200"
   class="fil6 str1" />
     <path
   id="path45"
   d="m 2374,682 c 10,71 183,52 217,73"
   class="fil6 str1" />
     <path
   id="path47"
   d="m 1102,1817 c -104,174 -249,692 -594,665 7,61 703,-6 626,-634 -3,-22 -28,-36 -32,-31 z"
   class="fil5" />
    </g>
   
   
  <path
   id="path2862"
   d="m 10104.957,6617.7724 c -227.1709,-2.7846 -450.4029,36.2535 -644.1015,120.7168 -258.265,112.6177 -465.2058,310.3319 -541.6798,592.9043 a 65.119291,65.119291 0 0 0 45.8458,79.8691 65.119291,65.119291 0 0 0 79.8712,-45.8457 c 65.1565,-240.755 236.8917,-406.7625 468.0194,-507.5468 231.1276,-100.7844 520.4679,-132.0041 802.3649,-94.4102 281.898,37.5939 555.618,143.8054 757.444,309.5976 153.662,126.2277 266.158,284.9404 314.593,478.377 -83.684,-72.0409 -177.412,-123.858 -293.23,-162.3555 a 65.119291,65.119291 0 0 0 -82.336,41.2539 65.119291,65.119291 0 0 0 41.254,82.336 c 152.942,50.8373 246.282,115.882 347.877,239.1367 0.388,1.1161 4.786,9.2073 11.613,19.709 4.058,6.2421 5.293,13.6054 25.682,26.7969 10.194,6.5957 33.076,16.0845 58.334,7.8203 19.557,-6.3992 30.828,-19.3296 37.148,-29.8516 a 65.119291,65.119291 0 0 0 4.438,-8.4238 65.125803,65.125803 0 0 0 0.08,-0.1745 65.119291,65.119291 0 0 0 0.08,-0.1928 65.125803,65.125803 0 0 0 0.182,-0.4316 65.125803,65.125803 0 0 0 0.261,-0.6269 65.119291,65.119291 0 0 0 0.182,-0.453 65.125803,65.125803 0 0 0 0.08,-0.1745 65.119291,65.119291 0 0 0 0.05,-0.1068 65.125803,65.125803 0 0 0 0.208,-0.5254 65.119291,65.119291 0 0 0 0.183,-0.459 65.125803,65.125803 0 0 0 0.08,-0.1745 65.119291,65.119291 0 0 0 0.156,-0.461 65.125803,65.125803 0 0 0 0.08,-0.1772 65.119291,65.119291 0 0 0 0.156,-0.461 65.125803,65.125803 0 0 0 0.05,-0.1771 65.119291,65.119291 0 0 0 0.156,-0.4629 65.125803,65.125803 0 0 0 0.05,-0.1797 65.119291,65.119291 0 0 0 0.157,-0.4647 65.125803,65.125803 0 0 0 0.05,-0.1771 65.119291,65.119291 0 0 0 0.156,-0.4668 65.125803,65.125803 0 0 0 0.05,-0.1798 65.119291,65.119291 0 0 0 0.156,-0.4688 65.125803,65.125803 0 0 0 0.05,-0.1797 65.119291,65.119291 0 0 0 0.131,-0.4707 65.125803,65.125803 0 0 0 0.05,-0.1797 65.119291,65.119291 0 0 0 0.13,-0.4726 65.125803,65.125803 0 0 0 0.05,-0.1797 65.119291,65.119291 0 0 0 0.13,-0.4728 65.125803,65.125803 0 0 0 0.05,-0.1823 65.119291,65.119291 0 0 0 0.13,-0.4746 65.125803,65.125803 0 0 0 0.05,-0.1823 65.119291,65.119291 0 0 0 0.13,-0.4767 65.125803,65.125803 0 0 0 0.05,-0.1823 65.119291,65.119291 0 0 0 0.01,-0.052 65.125803,65.125803 0 0 0 0.157,-0.59 65.125803,65.125803 0 0 0 0,-0.019 65.119291,65.119291 0 0 0 0.01,-0.062 65.125803,65.125803 0 0 0 0.13,-0.5546 65.125803,65.125803 0 0 0 0.01,-0.044 65.119291,65.119291 0 0 0 0.104,-0.4785 65.125803,65.125803 0 0 0 0.05,-0.1823 65.119291,65.119291 0 0 0 0.01,-0.062 65.125803,65.125803 0 0 0 0.104,-0.5566 65.125803,65.125803 0 0 0 0,-0.044 65.119291,65.119291 0 0 0 0.02,-0.112 65.125803,65.125803 0 0 0 0.105,-0.5546 65.125803,65.125803 0 0 0 0.104,-0.6173 65.125803,65.125803 0 0 0 0,-0.05 65.119291,65.119291 0 0 0 0.02,-0.1328 65.125803,65.125803 0 0 0 0.08,-0.5372 65.125803,65.125803 0 0 0 0.104,-0.6504 65.125803,65.125803 0 0 0 0,-0.018 65.119291,65.119291 0 0 0 0.01,-0.06 65.125803,65.125803 0 0 0 0.08,-0.578 65.125803,65.125803 0 0 0 0,-0.034 65.119291,65.119291 0 0 0 0.08,-0.4845 65.119291,65.119291 0 0 0 0.08,-0.6739 65.119291,65.119291 0 0 0 0.05,-0.455 65.125803,65.125803 0 0 0 0.05,-0.3652 65.125803,65.125803 0 0 0 0,-0.039 65.119291,65.119291 0 0 0 0.05,-0.4881 65.119291,65.119291 0 0 0 0.08,-0.6739 65.119291,65.119291 0 0 0 0.05,-0.6757 65.125803,65.125803 0 0 0 0,-0.012 c 13.626,-153.8292 101.272,-246.7474 161.832,-296.9374 a 65.119291,65.119291 0 0 0 8.586,-91.6914 65.119291,65.119291 0 0 0 -91.691,-8.5859 c -35.479,29.4034 -80.077,73.089 -119.149,131.8242 -60.999,-205.3369 -185.939,-377.0441 -347.468,-509.7344 -225.127,-184.933 -520.297,-297.7016 -822.899,-338.0566 -75.65,-10.0888 -151.811,-15.6636 -227.535,-16.5918 z"
   style="color:#000000;font-style:normal;font-variant:normal;font-weight:normal;font-stretch:normal;font-size:medium;line-height:normal;font-family:sans-serif;font-variant-ligatures:normal;font-variant-position:normal;font-variant-caps:normal;font-variant-numeric:normal;font-variant-alternates:normal;font-variant-east-asian:normal;font-feature-settings:normal;font-variation-settings:normal;text-indent:0;text-align:start;text-decoration:none;text-decoration-line:none;text-decoration-style:solid;text-decoration-color:#000000;letter-spacing:normal;word-spacing:normal;text-transform:none;writing-mode:lr-tb;direction:ltr;text-orientation:mixed;dominant-baseline:auto;baseline-shift:baseline;text-anchor:start;white-space:normal;shape-padding:0;shape-margin:0;inline-size:0;clip-rule:evenodd;display:inline;overflow:visible;visibility:visible;opacity:1;isolation:auto;mix-blend-mode:normal;color-interpolation:sRGB;color-interpolation-filters:linearRGB;solid-color:#000000;solid-opacity:1;vector-effect:none;fill:#ffffff;fill-opacity:1;fill-rule:evenodd;stroke:none;stroke-width:130.239;stroke-linecap:round;stroke-linejoin:round;stroke-miterlimit:4;stroke-dasharray:none;stroke-dashoffset:0;stroke-opacity:1;color-rendering:auto;image-rendering:optimizeQuality;shape-rendering:geometricPrecision;text-rendering:geometricPrecision;enable-background:accumulate;stop-color:#000000;stop-opacity:1" /><path
   style="fill:none;stroke:#008000;stroke-width:65.1193;stroke-linecap:round;stroke-linejoin:round;stroke-miterlimit:4;stroke-dasharray:none;stroke-opacity:1"
   d="m 7730.9171,7305.5356 c -221.348,-1244.0162 -2541.6379,-984.5722 -2574.7063,314.2179 4.8769,11.1726 17.3068,-17.3965 24.0519,-27.5512 108.5454,-132.7245 217.2264,-208.9966 380.8206,-263.3747 m -590.018,-50.404 c 67.7454,56.1455 169.5339,165.0709 185.1455,341.3299"
   id="path2750"
   sodipodi:nodetypes="cccccc" /><path
   id="path2858"
   d="m 7625.42,8054.1434 a 65.119291,65.119291 0 0 0 -58.1465,35.5957 c -118.2492,232.4764 -197.8925,504.3995 -174.6796,779.3829 17.9511,212.6522 99.7727,426.1213 268.785,616.4843 -81.2959,1.516 -150.6652,20.381 -198.9393,38.2852 a 65.119291,65.119291 0 0 0 -38.4102,83.6991 65.119291,65.119291 0 0 0 83.6991,38.4123 c 73.7464,-27.3511 198.0402,-56.7983 338.0724,8.3163 a 65.125803,65.125803 0 0 0 0.5027,0.2344 65.119291,65.119291 0 0 0 0.62,0.2761 65.119291,65.119291 0 0 0 0.3933,0.1824 65.125803,65.125803 0 0 0 0.2344,0.1041 65.119291,65.119291 0 0 0 0.1042,0.052 65.125803,65.125803 0 0 0 0.6252,0.2631 65.125803,65.125803 0 0 0 0.5548,0.2345 65.119291,65.119291 0 0 0 0.3464,0.1302 65.125803,65.125803 0 0 0 0.31,0.1302 65.119291,65.119291 0 0 0 0.435,0.1563 65.125803,65.125803 0 0 0 0.1302,0.052 65.119291,65.119291 0 0 0 0.4038,0.1563 65.125803,65.125803 0 0 0 0.2917,0.1042 65.119291,65.119291 0 0 0 0.1563,0.052 65.125803,65.125803 0 0 0 0.4167,0.1563 65.119291,65.119291 0 0 0 0.1042,0.052 65.125803,65.125803 0 0 0 0.5314,0.1823 65.119291,65.119291 0 0 0 0.4793,0.1563 65.125803,65.125803 0 0 0 0.2084,0.078 65.119291,65.119291 0 0 0 0.078,0.023 65.125803,65.125803 0 0 0 0.5288,0.1823 65.119291,65.119291 0 0 0 0.5939,0.1823 65.125803,65.125803 0 0 0 0.078,0.026 65.119291,65.119291 0 0 0 0.2605,0.078 65.125803,65.125803 0 0 0 0.4714,0.1563 65.119291,65.119291 0 0 0 0.1042,0.026 65.125803,65.125803 0 0 0 0.4611,0.1303 65.119291,65.119291 0 0 0 0.4636,0.1302 65.125803,65.125803 0 0 0 0.1824,0.052 65.119291,65.119291 0 0 0 0.3073,0.078 65.125803,65.125803 0 0 0 0.3126,0.078 65.119291,65.119291 0 0 0 0.1302,0.026 65.125803,65.125803 0 0 0 0.547,0.1303 65.119291,65.119291 0 0 0 0.1042,0.026 65.125803,65.125803 0 0 0 0.6174,0.1563 65.119291,65.119291 0 0 0 0.1302,0.026 65.125803,65.125803 0 0 0 0.5678,0.1302 65.125803,65.125803 0 0 0 0.5549,0.1302 65.119291,65.119291 0 0 0 0.5652,0.1303 65.125803,65.125803 0 0 0 0.1302,0.026 65.119291,65.119291 0 0 0 0.078,0.016 65.125803,65.125803 0 0 0 0.5444,0.1042 65.119291,65.119291 0 0 0 0.3933,0.078 65.125803,65.125803 0 0 0 0.3933,0.078 65.125803,65.125803 0 0 0 0.6173,0.1042 65.119291,65.119291 0 0 0 0.2345,0.026 65.125803,65.125803 0 0 0 0.4975,0.078 65.125803,65.125803 0 0 0 0.6694,0.1042 65.125803,65.125803 0 0 0 0.6147,0.1042 65.119291,65.119291 0 0 0 0.052,0.01 65.125803,65.125803 0 0 0 0.5496,0.078 65.119291,65.119291 0 0 0 0.633,0.078 65.125803,65.125803 0 0 0 0.052,0.01 65.119291,65.119291 0 0 0 0.3282,0.052 65.125803,65.125803 0 0 0 0.3282,0.026 65.119291,65.119291 0 0 0 0.1302,0.014 65.125803,65.125803 0 0 0 0.016,0 65.119291,65.119291 0 0 0 9.5215,0.3699 c 12.2716,-0.2084 29.101,-3.5115 44.4178,-17.2459 19.7848,-17.7411 23.0075,-42.3034 22.3927,-54.4299 -1.2294,-24.2533 -6.9883,-29.0054 -10.3654,-35.6405 -5.6789,-11.1584 -10.4826,-19.0045 -11.2596,-19.9062 -55.9448,-149.6129 -65.6049,-262.9702 -33.1603,-420.842 a 65.119291,65.119291 0 0 0 -50.6777,-76.8945 65.119291,65.119291 0 0 0 -76.8944,50.6759 c -22.0859,107.4661 -25.8849,204.8496 -11.5293,302.246 -144.7041,-166.2566 -210.5645,-346.5785 -226.0605,-530.1484 -20.4825,-242.6382 50.7169,-492.5889 160.9881,-709.3807 a 65.119291,65.119291 0 0 0 -28.5194,-87.5646 65.119291,65.119291 0 0 0 -29.418,-7.0782 z"
   style="color:#000000;font-style:normal;font-variant:normal;font-weight:normal;font-stretch:normal;font-size:medium;line-height:normal;font-family:sans-serif;font-variant-ligatures:normal;font-variant-position:normal;font-variant-caps:normal;font-variant-numeric:normal;font-variant-alternates:normal;font-variant-east-asian:normal;font-feature-settings:normal;font-variation-settings:normal;text-indent:0;text-align:start;text-decoration:none;text-decoration-line:none;text-decoration-style:solid;text-decoration-color:#000000;letter-spacing:normal;word-spacing:normal;text-transform:none;writing-mode:lr-tb;direction:ltr;text-orientation:mixed;dominant-baseline:auto;baseline-shift:baseline;text-anchor:start;white-space:normal;shape-padding:0;shape-margin:0;inline-size:0;clip-rule:evenodd;display:inline;overflow:visible;visibility:visible;opacity:1;isolation:auto;mix-blend-mode:normal;color-interpolation:sRGB;color-interpolation-filters:linearRGB;solid-color:#000000;solid-opacity:1;vector-effect:none;fill:#ffffff;fill-opacity:1;fill-rule:evenodd;stroke:none;stroke-width:130.239;stroke-linecap:round;stroke-linejoin:round;stroke-miterlimit:4;stroke-dasharray:none;stroke-dashoffset:0;stroke-opacity:1;color-rendering:auto;image-rendering:optimizeQuality;shape-rendering:geometricPrecision;text-rendering:geometricPrecision;enable-background:accumulate;stop-color:#000000;stop-opacity:1" /><path
   sodipodi:nodetypes="cccccc"
   id="path2750-2"
   d="m 8982.0339,7348.3783 c 283.2618,-1046.6549 2462.8801,-816.459 2496.3811,393.3953 -4.877,11.1726 -17.307,-17.3965 -24.052,-27.5512 -108.545,-132.7245 -217.226,-208.9966 -380.82,-263.3747 m 590.018,-50.404 c -67.746,56.1455 -169.534,165.0709 -185.146,341.3299"
   style="clip-rule:evenodd;fill:none;fill-rule:evenodd;stroke:#008000;stroke-width:65.1193;stroke-linecap:round;stroke-linejoin:round;stroke-miterlimit:4;stroke-dasharray:none;stroke-opacity:1;image-rendering:optimizeQuality;shape-rendering:geometricPrecision;text-rendering:geometricPrecision" /><path
   id="path2854"
   d="m 7993.6564,5237.9306 a 65.119291,65.119291 0 0 0 -7.2463,0.4082 65.119291,65.119291 0 0 0 -0.016,0 65.125803,65.125803 0 0 0 -0.1302,0.014 65.119291,65.119291 0 0 0 -0.2605,0.031 65.125803,65.125803 0 0 0 -0.2943,0.035 65.119291,65.119291 0 0 0 -0.2865,0.037 65.125803,65.125803 0 0 0 -0.5132,0.066 65.119291,65.119291 0 0 0 -0.2344,0.033 65.125803,65.125803 0 0 0 -0.4741,0.066 65.119291,65.119291 0 0 0 -0.078,0.012 65.125803,65.125803 0 0 0 -0.5652,0.086 65.119291,65.119291 0 0 0 -0.2084,0.033 65.125803,65.125803 0 0 0 -0.4376,0.072 65.119291,65.119291 0 0 0 -0.078,0.012 65.125803,65.125803 0 0 0 -0.4845,0.084 65.119291,65.119291 0 0 0 -0.5834,0.1055 65.125803,65.125803 0 0 0 -0.1563,0.029 65.119291,65.119291 0 0 0 -0.1042,0.021 65.125803,65.125803 0 0 0 -0.4819,0.094 65.119291,65.119291 0 0 0 -0.6642,0.1348 65.119291,65.119291 0 0 0 -0.6642,0.1426 65.119291,65.119291 0 0 0 -0.4637,0.1035 65.125803,65.125803 0 0 0 -0.8595,0.2012 65.119291,65.119291 0 0 0 -0.4793,0.1172 65.125803,65.125803 0 0 0 -0.3621,0.092 65.119291,65.119291 0 0 0 -0.023,0.01 65.125803,65.125803 0 0 0 -0.4897,0.127 65.119291,65.119291 0 0 0 -0.3777,0.1015 65.125803,65.125803 0 0 0 -0.4194,0.1153 65.125803,65.125803 0 0 0 -0.6512,0.1855 65.125803,65.125803 0 0 0 -0.4714,0.1387 65.119291,65.119291 0 0 0 -0.3569,0.1074 65.125803,65.125803 0 0 0 -0.4714,0.1446 65.125803,65.125803 0 0 0 -0.495,0.1563 65.119291,65.119291 0 0 0 -0.6199,0.2031 65.119291,65.119291 0 0 0 -0.4714,0.1581 65.125803,65.125803 0 0 0 -0.2736,0.094 65.119291,65.119291 0 0 0 -0.2604,0.088 65.125803,65.125803 0 0 0 -0.3621,0.127 65.119291,65.119291 0 0 0 -0.4662,0.17 65.125803,65.125803 0 0 0 -0.1303,0.045 65.119291,65.119291 0 0 0 -0.1563,0.053 65.125803,65.125803 0 0 0 -0.461,0.1738 65.119291,65.119291 0 0 0 -0.5105,0.1953 65.125803,65.125803 0 0 0 -0.1824,0.076 65.119291,65.119291 0 0 0 -0.1042,0.039 65.125803,65.125803 0 0 0 -0.4558,0.1835 65.119291,65.119291 0 0 0 -0.4871,0.1993 65.125803,65.125803 0 0 0 -0.2787,0.1152 65.119291,65.119291 0 0 0 -0.026,0.014 65.125803,65.125803 0 0 0 -0.4532,0.1914 65.119291,65.119291 0 0 0 -0.4454,0.1933 65.125803,65.125803 0 0 0 -0.1823,0.076 65.119291,65.119291 0 0 0 -0.1824,0.076 65.125803,65.125803 0 0 0 -0.4558,0.2051 65.119291,65.119291 0 0 0 -0.3777,0.1718 65.125803,65.125803 0 0 0 -0.2344,0.1055 65.119291,65.119291 0 0 0 -0.01,0.01 65.125803,65.125803 0 0 0 -0.025,0.012 c -140.022,65.0989 -264.3055,35.6539 -338.0471,8.3047 a 65.119291,65.119291 0 0 0 -83.6994,38.4101 65.119291,65.119291 0 0 0 38.4123,83.6992 c 48.274,17.9039 117.6414,36.7708 198.9373,38.2872 -169.0124,190.363 -250.834,403.832 -268.7851,616.4843 -23.2128,274.9836 56.4303,546.9046 174.6797,779.3809 a 65.119291,65.119291 0 0 0 87.5646,28.5195 65.119291,65.119291 0 0 0 28.5194,-87.5644 c -110.2715,-216.7919 -181.4687,-466.7427 -160.9864,-709.3809 15.4961,-183.5699 81.3549,-363.8917 226.0588,-530.1484 -14.3554,97.396 -10.5566,194.7785 11.5292,302.2441 a 65.119291,65.119291 0 0 0 76.8944,50.6777 65.119291,65.119291 0 0 0 50.6777,-76.8945 c -32.4445,-157.871 -22.7842,-271.2296 33.1603,-420.8418 0.7762,-0.9012 5.5825,-8.7494 11.2617,-19.9082 3.3769,-6.6352 9.1355,-11.3873 10.3652,-35.6406 0.6147,-12.1267 -2.6097,-36.6885 -22.3966,-54.4297 -15.32,-13.7363 -32.1517,-17.0314 -44.4239,-17.2441 a 65.119291,65.119291 0 0 0 -2.2609,-0.039 z"
   style="color:#000000;font-style:normal;font-variant:normal;font-weight:normal;font-stretch:normal;font-size:medium;line-height:normal;font-family:sans-serif;font-variant-ligatures:normal;font-variant-position:normal;font-variant-caps:normal;font-variant-numeric:normal;font-variant-alternates:normal;font-variant-east-asian:normal;font-feature-settings:normal;font-variation-settings:normal;text-indent:0;text-align:start;text-decoration:none;text-decoration-line:none;text-decoration-style:solid;text-decoration-color:#000000;letter-spacing:normal;word-spacing:normal;text-transform:none;writing-mode:lr-tb;direction:ltr;text-orientation:mixed;dominant-baseline:auto;baseline-shift:baseline;text-anchor:start;white-space:normal;shape-padding:0;shape-margin:0;inline-size:0;clip-rule:evenodd;display:inline;overflow:visible;visibility:visible;opacity:1;isolation:auto;mix-blend-mode:normal;color-interpolation:sRGB;color-interpolation-filters:linearRGB;solid-color:#000000;solid-opacity:1;vector-effect:none;fill:#ffffff;fill-opacity:1;fill-rule:evenodd;stroke:none;stroke-width:130.239;stroke-linecap:round;stroke-linejoin:round;stroke-miterlimit:4;stroke-dasharray:none;stroke-dashoffset:0;stroke-opacity:1;color-rendering:auto;image-rendering:optimizeQuality;shape-rendering:geometricPrecision;text-rendering:geometricPrecision;enable-background:accumulate;stop-color:#000000;stop-opacity:1" /><path
   sodipodi:nodetypes="cccccc"
   id="path2750-5"
   d="m 7625.315,8119.2363 c -228.5207,449.2683 -301.6826,1043.7467 247.9426,1476.0084 12.1143,1.363 -6.412,-23.686 -11.8342,-34.605 -60.6699,-160.3648 -72.3829,-292.6214 -37.6787,-461.4872 m -338.6601,485.7682 c 82.4961,-30.596 227.7225,-64.285 388.173,10.324"
   style="clip-rule:evenodd;fill:none;fill-rule:evenodd;stroke:#008000;stroke-width:65.1193;stroke-linecap:round;stroke-linejoin:round;stroke-miterlimit:4;stroke-dasharray:none;stroke-opacity:1;image-rendering:optimizeQuality;shape-rendering:geometricPrecision;text-rendering:geometricPrecision" /><path
   id="path2850"
   d="m 13556.93,6520.8213 a 65.119291,65.119291 0 0 0 -1.183,0.01 65.119291,65.119291 0 0 0 -64.049,66.1738 c 0.753,46.1292 6.954,108.3455 28.408,175.664 -309.588,-126.0069 -651.996,-78.1046 -953.482,71.2989 -377.419,187.0327 -700.168,529.1888 -852.5,904.3085 a 65.119291,65.119291 0 0 0 35.832,84.836 65.119291,65.119291 0 0 0 84.836,-35.834 c 138.356,-340.704 442.893,-664.7709 789.662,-836.6152 287.967,-142.7043 598.459,-182.7667 877.207,-54.7246 -108.492,20.2441 -207.503,60.955 -309.933,127.2109 a 65.119291,65.119291 0 0 0 -19.311,90.0449 65.119291,65.119291 0 0 0 90.045,19.3106 c 135.328,-87.5357 244.462,-119.6783 404.18,-121.8536 1.128,0.3975 10.18,2.0247 22.634,3.2657 7.409,0.7382 13.926,4.3782 36.971,-3.2793 11.523,-3.8288 33.241,-15.7469 42.59,-40.6231 7.241,-19.266 4.197,-36.1496 -0.05,-47.6621 a 65.119291,65.119291 0 0 0 -3.791,-8.7207 65.119291,65.119291 0 0 0 0,-0.01 65.125803,65.125803 0 0 0 -0.02,-0.044 65.119291,65.119291 0 0 0 -0.297,-0.5567 65.119291,65.119291 0 0 0 -0.26,-0.4608 65.119291,65.119291 0 0 0 -0.08,-0.1354 65.125803,65.125803 0 0 0 -0.08,-0.1641 65.125803,65.125803 0 0 0 -0.321,-0.5723 65.125803,65.125803 0 0 0 -0.01,-0.02 65.119291,65.119291 0 0 0 -0.234,-0.4256 65.125803,65.125803 0 0 0 -0.08,-0.1615 65.119291,65.119291 0 0 0 -0.26,-0.4238 65.125803,65.125803 0 0 0 -0.105,-0.1589 65.119291,65.119291 0 0 0 -0.26,-0.4199 65.119291,65.119291 0 0 0 -0.328,-0.5311 65.119291,65.119291 0 0 0 -0.03,-0.047 65.125803,65.125803 0 0 0 -0.105,-0.1588 65.119291,65.119291 0 0 0 -0.26,-0.416 65.119291,65.119291 0 0 0 -0.357,-0.5528 65.119291,65.119291 0 0 0 0,-0.014 65.125803,65.125803 0 0 0 -0.104,-0.1563 65.119291,65.119291 0 0 0 -0.271,-0.4103 65.125803,65.125803 0 0 0 0,-0.01 65.119291,65.119291 0 0 0 -0.302,-0.4472 65.119291,65.119291 0 0 0 -0.08,-0.1094 65.125803,65.125803 0 0 0 -0.104,-0.1537 65.119291,65.119291 0 0 0 -0.279,-0.4043 65.125803,65.125803 0 0 0 -0.104,-0.1536 65.119291,65.119291 0 0 0 -0.284,-0.4004 65.125803,65.125803 0 0 0 -0.104,-0.1511 65.119291,65.119291 0 0 0 -0.287,-0.3982 65.125803,65.125803 0 0 0 -0.104,-0.1537 65.119291,65.119291 0 0 0 -0.292,-0.3944 65.125803,65.125803 0 0 0 -0.104,-0.1511 65.119291,65.119291 0 0 0 -0.294,-0.3907 65.119291,65.119291 0 0 0 -0.383,-0.498 65.119291,65.119291 0 0 0 -0.03,-0.042 65.125803,65.125803 0 0 0 -0.104,-0.1485 65.119291,65.119291 0 0 0 -0.305,-0.3847 65.119291,65.119291 0 0 0 -0.341,-0.4259 65.119291,65.119291 0 0 0 -0.08,-0.1042 65.125803,65.125803 0 0 0 -0.131,-0.1458 65.119291,65.119291 0 0 0 -0.08,-0.099 65.125803,65.125803 0 0 0 -0.346,-0.4202 65.125803,65.125803 0 0 0 0,-0.01 65.119291,65.119291 0 0 0 -0.315,-0.375 65.125803,65.125803 0 0 0 -0.13,-0.1459 65.119291,65.119291 0 0 0 -0.318,-0.3709 65.125803,65.125803 0 0 0 -0.13,-0.1433 65.119291,65.119291 0 0 0 -0.326,-0.3691 65.119291,65.119291 0 0 0 -0.451,-0.5058 65.119291,65.119291 0 0 0 -0.455,-0.502 65.119291,65.119291 0 0 0 -0.464,-0.4962 65.119291,65.119291 0 0 0 -0.466,-0.4923 65.119291,65.119291 0 0 0 -0.415,-0.4277 65.119291,65.119291 0 0 0 -0.05,-0.06 65.125803,65.125803 0 0 0 -0.13,-0.1328 65.119291,65.119291 0 0 0 -0.346,-0.3496 65.125803,65.125803 0 0 0 -0.13,-0.1329 65.119291,65.119291 0 0 0 -0.349,-0.3435 65.125803,65.125803 0 0 0 -0.131,-0.1303 65.119291,65.119291 0 0 0 -0.354,-0.3417 65.125803,65.125803 0 0 0 0,-0.01 c -111.502,-106.8473 -129.178,-233.3526 -130.461,-311.998 a 65.119291,65.119291 0 0 0 -64.99,-64.0567 z"
   style="color:#000000;font-style:normal;font-variant:normal;font-weight:normal;font-stretch:normal;font-size:medium;line-height:normal;font-family:sans-serif;font-variant-ligatures:normal;font-variant-position:normal;font-variant-caps:normal;font-variant-numeric:normal;font-variant-alternates:normal;font-variant-east-asian:normal;font-feature-settings:normal;font-variation-settings:normal;text-indent:0;text-align:start;text-decoration:none;text-decoration-line:none;text-decoration-style:solid;text-decoration-color:#000000;letter-spacing:normal;word-spacing:normal;text-transform:none;writing-mode:lr-tb;direction:ltr;text-orientation:mixed;dominant-baseline:auto;baseline-shift:baseline;text-anchor:start;white-space:normal;shape-padding:0;shape-margin:0;inline-size:0;clip-rule:evenodd;display:inline;overflow:visible;visibility:visible;opacity:1;isolation:auto;mix-blend-mode:normal;color-interpolation:sRGB;color-interpolation-filters:linearRGB;solid-color:#000000;solid-opacity:1;vector-effect:none;fill:#ffffff;fill-opacity:1;fill-rule:evenodd;stroke:none;stroke-width:130.239;stroke-linecap:round;stroke-linejoin:round;stroke-miterlimit:4;stroke-dasharray:none;stroke-dashoffset:0;stroke-opacity:1;color-rendering:auto;image-rendering:optimizeQuality;shape-rendering:geometricPrecision;text-rendering:geometricPrecision;enable-background:accumulate;stop-color:#000000;stop-opacity:1" /><path
   style="clip-rule:evenodd;fill:none;fill-rule:evenodd;stroke:#008000;stroke-width:65.1193;stroke-linecap:round;stroke-linejoin:round;stroke-miterlimit:4;stroke-dasharray:none;stroke-opacity:1;image-rendering:optimizeQuality;shape-rendering:geometricPrecision;text-rendering:geometricPrecision"
   d="m 7745.7336,6779.0319 c -228.5207,-449.2681 -301.6826,-1043.7465 247.9426,-1476.0086 12.1143,-1.363 -6.412,23.686 -11.8342,34.605 -60.6699,160.365 -72.3829,292.6218 -37.6787,461.4876 m -338.6601,-485.7686 c 82.4961,30.596 227.7225,64.285 388.173,-10.324"
   id="path2750-5-0"
   sodipodi:nodetypes="cccccc" /><path
   id="path2846"
   d="m 12143.359,6588.5556 a 65.119291,65.119291 0 0 0 -43.744,16.9766 65.119291,65.119291 0 0 0 -4.293,91.9941 c 160.848,176.5891 281.812,398.8055 410.012,614.6914 11.869,19.9875 28.426,42.4631 43.074,63.6719 7.324,10.6044 13.983,20.5422 18.069,27.2051 1.299,2.1226 1.685,2.8826 2.321,4.0293 -0.42,-1.2279 -0.883,-3.3842 -1.384,-6.3184 a 65.119291,65.119291 0 0 0 1.826,7.0879 c 0.183,0.3313 0.831,1.4277 0.878,1.5254 0.08,0.138 -0.156,0.06 -0.497,-0.3691 a 65.119291,65.119291 0 0 0 69.643,43.7032 65.119291,65.119291 0 0 0 56.65,-72.6075 c -2.199,-17.804 -6.091,-22.4848 -9.098,-28.5527 -3.007,-6.0679 -6.033,-11.2299 -9.31,-16.5742 -6.554,-10.6885 -14.102,-21.8035 -21.934,-33.1426 -15.663,-22.6782 -33.206,-47.6482 -38.26,-56.1582 -126.37,-212.8055 -250.362,-443.3849 -425.709,-635.8926 a 65.119291,65.119291 0 0 0 -48.248,-21.2695 z"
   style="color:#000000;font-style:normal;font-variant:normal;font-weight:normal;font-stretch:normal;font-size:medium;line-height:normal;font-family:sans-serif;font-variant-ligatures:normal;font-variant-position:normal;font-variant-caps:normal;font-variant-numeric:normal;font-variant-alternates:normal;font-variant-east-asian:normal;font-feature-settings:normal;font-variation-settings:normal;text-indent:0;text-align:start;text-decoration:none;text-decoration-line:none;text-decoration-style:solid;text-decoration-color:#000000;letter-spacing:normal;word-spacing:normal;text-transform:none;writing-mode:lr-tb;direction:ltr;text-orientation:mixed;dominant-baseline:auto;baseline-shift:baseline;text-anchor:start;white-space:normal;shape-padding:0;shape-margin:0;inline-size:0;clip-rule:evenodd;display:inline;overflow:visible;visibility:visible;opacity:1;isolation:auto;mix-blend-mode:normal;color-interpolation:sRGB;color-interpolation-filters:linearRGB;solid-color:#000000;solid-opacity:1;vector-effect:none;fill:#ffffff;fill-opacity:1;fill-rule:evenodd;stroke:none;stroke-width:130.239;stroke-linecap:round;stroke-linejoin:round;stroke-miterlimit:4;stroke-dasharray:none;stroke-dashoffset:0;stroke-opacity:1;color-rendering:auto;image-rendering:optimizeQuality;shape-rendering:geometricPrecision;text-rendering:geometricPrecision;enable-background:accumulate;stop-color:#000000;stop-opacity:1" /><path
   style="clip-rule:evenodd;fill:none;fill-rule:evenodd;stroke:#aa0000;stroke-width:65.1193;stroke-linecap:round;stroke-linejoin:round;stroke-miterlimit:4;stroke-dasharray:none;stroke-opacity:1;image-rendering:optimizeQuality;shape-rendering:geometricPrecision;text-rendering:geometricPrecision"
   d="m 11774.459,7762.7494 c 290.688,-715.8238 1254.574,-1332.4491 1932.867,-818.8829 5.667,10.7934 -24.398,2.6226 -36.54,1.5338 -171.45,1.6756 -298.938,38.7669 -443.69,132.398 m 329.714,-491.8844 c 1.435,87.9753 22.756,235.5257 150.516,357.9526"
   id="path2750-2-2"
   sodipodi:nodetypes="cccccc" /><path
   id="path2842"
   d="m 12599.564,6555.6201 a 65.119291,65.119291 0 0 0 -51.544,25.4511 c -162.988,212.1888 -220.109,466.6557 -294.03,696.293 -7.757,24.0986 -15.13,57.4087 -21.539,82.2793 -0.156,0.6385 -0.315,1.0656 -0.482,1.7012 a 65.119291,65.119291 0 0 0 -13.698,39.9531 c 0,3.8729 -0.01,7.5294 0.802,13.709 0.409,3.0897 0.891,6.7745 2.905,12.9961 2.014,6.2215 3.963,16.4929 20.158,30.2714 16.195,13.7786 53.998,17.3181 71.021,9.0977 17.023,-8.2204 21.313,-15.9555 24.805,-20.7187 6.984,-9.5265 7.744,-13.1406 9.228,-16.7696 5.936,-14.5159 7.827,-23.9624 11.377,-37.7402 7.102,-27.5557 16.022,-64.3968 19.395,-74.8731 76.231,-236.8121 132.549,-473.57 273.342,-656.8632 a 65.119291,65.119291 0 0 0 -11.975,-91.3106 65.119291,65.119291 0 0 0 -39.766,-13.4765 z"
   style="color:#000000;font-style:normal;font-variant:normal;font-weight:normal;font-stretch:normal;font-size:medium;line-height:normal;font-family:sans-serif;font-variant-ligatures:normal;font-variant-position:normal;font-variant-caps:normal;font-variant-numeric:normal;font-variant-alternates:normal;font-variant-east-asian:normal;font-feature-settings:normal;font-variation-settings:normal;text-indent:0;text-align:start;text-decoration:none;text-decoration-line:none;text-decoration-style:solid;text-decoration-color:#000000;letter-spacing:normal;word-spacing:normal;text-transform:none;writing-mode:lr-tb;direction:ltr;text-orientation:mixed;dominant-baseline:auto;baseline-shift:baseline;text-anchor:start;white-space:normal;shape-padding:0;shape-margin:0;inline-size:0;clip-rule:evenodd;display:inline;overflow:visible;visibility:visible;opacity:1;isolation:auto;mix-blend-mode:normal;color-interpolation:sRGB;color-interpolation-filters:linearRGB;solid-color:#000000;solid-opacity:1;vector-effect:none;fill:#ffffff;fill-opacity:1;fill-rule:evenodd;stroke:none;stroke-width:130.239;stroke-linecap:round;stroke-linejoin:round;stroke-miterlimit:4;stroke-dasharray:none;stroke-dashoffset:0;stroke-opacity:1;color-rendering:auto;image-rendering:optimizeQuality;shape-rendering:geometricPrecision;text-rendering:geometricPrecision;enable-background:accumulate;stop-color:#000000;stop-opacity:1" /><path
   style="font-variation-settings:normal;opacity:1;vector-effect:none;fill:none;fill-opacity:1;stroke:#2b2a29;stroke-width:49.2252;stroke-linecap:round;stroke-linejoin:round;stroke-miterlimit:4;stroke-dasharray:none;stroke-dashoffset:0;stroke-opacity:1;stop-color:#000000;stop-opacity:1"
   d="m 12143.465,6653.6483 c 168.097,184.5484 290.576,410.947 417.861,625.2927 16.923,28.4975 68.202,94.8897 69.963,109.1558"
   id="path2803" /><path
   style="font-variation-settings:normal;opacity:1;vector-effect:none;fill:none;fill-opacity:1;stroke:#2b2a29;stroke-width:49.2252;stroke-linecap:round;stroke-linejoin:round;stroke-miterlimit:4;stroke-dasharray:none;stroke-dashoffset:0;stroke-opacity:1;stop-color:#000000;stop-opacity:1"
   d="m 12599.662,6620.7133 c -151.89,197.741 -208.609,443.3525 -283.685,676.5772 -11.13,34.575 -32.586,140.3024 -32.586,103.9802"
   id="path2805" /></g>
 </g>
</svg>
