<?xml version="1.0" encoding="UTF-8" standalone="no"?>
<svg
   xmlns:dc="http://purl.org/dc/elements/1.1/"
   xmlns:cc="http://creativecommons.org/ns#"
   xmlns:rdf="http://www.w3.org/1999/02/22-rdf-syntax-ns#"
   xmlns:svg="http://www.w3.org/2000/svg"
   xmlns="http://www.w3.org/2000/svg"
   xmlns:sodipodi="http://sodipodi.sourceforge.net/DTD/sodipodi-0.dtd"
   xmlns:inkscape="http://www.inkscape.org/namespaces/inkscape"
   width="1.2426291cm"
   height="1.4157199cm"
   viewBox="0 0 12.42629 14.157199"
   version="1.1"
   id="svg1338"
   inkscape:version="1.0 (4035a4fb49, 2020-05-01)"
   sodipodi:docname="2020-IS-02-taskbody_teddy5-inline.svg">
  <defs
     id="defs1332" />
  <sodipodi:namedview
     id="base"
     pagecolor="#ffffff"
     bordercolor="#666666"
     borderopacity="1.0"
     inkscape:pageopacity="0.0"
     inkscape:pageshadow="2"
     inkscape:zoom="0.35"
     inkscape:cx="400"
     inkscape:cy="560"
     inkscape:document-units="mm"
     inkscape:current-layer="_1052274192-3"
     inkscape:document-rotation="0"
     showgrid="false"
     units="cm"
     fit-margin-top="0"
     fit-margin-left="0"
     fit-margin-right="0"
     fit-margin-bottom="0" />
  <metadata
     id="metadata1335">
    <rdf:RDF>
      <cc:Work
         rdf:about="">
        <dc:format>image/svg+xml</dc:format>
        <dc:type
           rdf:resource="http://purl.org/dc/dcmitype/StillImage" />
        <dc:title></dc:title>
      </cc:Work>
    </rdf:RDF>
  </metadata>
  <g
     inkscape:label="Ebene 1"
     inkscape:groupmode="layer"
     id="layer1"
     transform="translate(-3.150873,-5.4981783)">
    <g
       transform="matrix(0.02774247,0,0,0.02774247,-33.148357,-27.336013)"
       style="clip-rule:evenodd;fill-rule:evenodd;image-rendering:optimizeQuality;shape-rendering:geometricPrecision;text-rendering:geometricPrecision"
       id="_1052274192-3">
      <g
         transform="translate(-257.85452,-834.02306)"
         style="clip-rule:evenodd;fill-rule:evenodd;image-rendering:optimizeQuality;shape-rendering:geometricPrecision;text-rendering:geometricPrecision"
         id="_1205616736">
        <g
           id="g2189"
           style="opacity:1">
          <path
             style="color:#000000;font-style:normal;font-variant:normal;font-weight:normal;font-stretch:normal;font-size:medium;line-height:normal;font-family:sans-serif;font-variant-ligatures:normal;font-variant-position:normal;font-variant-caps:normal;font-variant-numeric:normal;font-variant-alternates:normal;font-variant-east-asian:normal;font-feature-settings:normal;font-variation-settings:normal;text-indent:0;text-align:start;text-decoration:none;text-decoration-line:none;text-decoration-style:solid;text-decoration-color:#000000;letter-spacing:normal;word-spacing:normal;text-transform:none;writing-mode:lr-tb;direction:ltr;text-orientation:mixed;dominant-baseline:auto;baseline-shift:baseline;text-anchor:start;white-space:normal;shape-padding:0;shape-margin:0;inline-size:0;clip-rule:nonzero;display:inline;overflow:visible;visibility:visible;isolation:auto;mix-blend-mode:normal;color-interpolation:sRGB;color-interpolation-filters:linearRGB;solid-color:#000000;solid-opacity:1;vector-effect:none;fill:#f5b2b6;fill-opacity:1;fill-rule:nonzero;stroke:none;stroke-width:18.0197;stroke-linecap:round;stroke-linejoin:round;stroke-miterlimit:4;stroke-dasharray:none;stroke-dashoffset:0;stroke-opacity:1;color-rendering:auto;image-rendering:auto;shape-rendering:auto;text-rendering:auto;enable-background:accumulate;stop-color:#000000;stop-opacity:1"
             d="m 1911,2487 c 19,3 124,23 86,-38 -27,-43 -71,-53 -97,-68 88,33 90,-15 66,-79 -15,-39 -35,-62 -68,-95 15,-41 19,-83 -12,-118 22,-39 -30,-99 -81,-33 -34,-6 -107,12 -125,17 0,-38 -114,-24 -59,53 11,36 -7,54 13,100 -61,37 -68,138 -50,202 8,11 56,38 69,-16 60,67 251,155 258,75 z"
             id="path2191" />
          <path
             style="color:#000000;font-style:normal;font-variant:normal;font-weight:normal;font-stretch:normal;font-size:medium;line-height:normal;font-family:sans-serif;font-variant-ligatures:normal;font-variant-position:normal;font-variant-caps:normal;font-variant-numeric:normal;font-variant-alternates:normal;font-variant-east-asian:normal;font-feature-settings:normal;font-variation-settings:normal;text-indent:0;text-align:start;text-decoration:none;text-decoration-line:none;text-decoration-style:solid;text-decoration-color:#000000;letter-spacing:normal;word-spacing:normal;text-transform:none;writing-mode:lr-tb;direction:ltr;text-orientation:mixed;dominant-baseline:auto;baseline-shift:baseline;text-anchor:start;white-space:normal;shape-padding:0;shape-margin:0;inline-size:0;clip-rule:nonzero;display:inline;overflow:visible;visibility:visible;isolation:auto;mix-blend-mode:normal;color-interpolation:sRGB;color-interpolation-filters:linearRGB;solid-color:#000000;solid-opacity:1;vector-effect:none;fill:#2b2a29;fill-opacity:1;fill-rule:nonzero;stroke:none;stroke-width:18.0197;stroke-linecap:round;stroke-linejoin:round;stroke-miterlimit:4;stroke-dasharray:none;stroke-dashoffset:0;stroke-opacity:1;color-rendering:auto;image-rendering:auto;shape-rendering:auto;text-rendering:auto;enable-background:accumulate;stop-color:#000000;stop-opacity:1"
             d="m 1850.4727,2017.582 c -3.4295,0.1112 -6.9357,0.6055 -10.4766,1.5274 -13.0153,3.3885 -26.1854,12.2589 -38.7949,27.3261 -18.9895,-2.1055 -43.3165,1.0091 -66.2696,5.0665 -20.2307,3.5761 -37.0251,7.6327 -48.4453,10.582 -1.2452,-2.6662 -2.8426,-5.1213 -4.8086,-7.1485 -4.4243,-4.5621 -10.0856,-7.43 -16.1386,-9.1718 -12.1061,-3.4837 -26.1868,-2.7216 -38.918,2.209 -12.7312,4.9305 -24.5215,14.7784 -28.334,29.6855 -3.7127,14.5168 0.5472,32.0981 14.3262,51.9883 4.5864,15.7328 3.1408,27.3302 2.5097,42.2226 -0.5807,13.7067 -0.01,29.8601 7.8028,50.6621 -29.3784,20.9822 -45.4724,55.8187 -52.4063,92.6778 -7.4226,39.457 -4.6102,81.7483 4.8067,115.2305 a 9.0107505,9.0107505 0 0 0 1.3867,2.8593 c 3.4895,4.7982 8.553,8.6011 15.2441,12.3145 6.6912,3.7133 14.8532,6.889 23.8242,7.7324 8.9711,0.8434 19.0325,-0.9038 27.5196,-7.3359 5.4004,-4.0929 9.8328,-10.0619 13.3515,-17.5547 33.9334,32.4795 90.1921,65.777 142.1485,84.6387 28.7722,10.4451 55.979,16.5203 78.2539,14.3261 11.1374,-1.097 21.2992,-4.377 29.1523,-11.0664 5.6349,-4.7998 9.6647,-11.372 11.916,-19.0488 13.5481,2.2115 37.3358,5.6226 58.0977,3.666 13.0139,-1.2264 25.8119,-4.1445 33.3535,-14.6094 3.7708,-5.2324 5.3239,-12.2262 4.3457,-19.3222 -0.9781,-7.0961 -4.0895,-14.4813 -9.2734,-22.8028 a 9.0107505,9.0107505 0 0 0 -0.016,-0.027 c -13.1594,-20.9575 -30.1058,-34.5008 -46.9102,-44.5391 11.3694,-2.3135 20.4094,-8.5535 25.2227,-17.5429 11.3444,-21.1874 3.7811,-50.5206 -8.5079,-83.2911 a 9.0107505,9.0107505 0 0 0 -0.025,-0.07 c -14.8753,-38.6757 -35.3402,-62.9893 -66.1602,-94.1054 6.6618,-19.4917 10.9924,-39.4727 9.998,-59.3594 -0.9984,-19.9691 -7.596,-39.7672 -21.6894,-57.5801 9.2612,-22.6923 0.3775,-48.7634 -18.5215,-61.9785 -7.6889,-5.3765 -17.2761,-8.4935 -27.5644,-8.1602 z m 0.6875,17.9434 c 6.3244,-0.2687 11.7729,1.6401 16.5527,4.9824 12.7461,8.9127 18.9755,28.9343 10.4394,44.0664 a 9.0107505,9.0107505 0 0 0 1.1036,10.4004 c 14.1864,16.017 20.0826,32.9563 20.9961,51.2246 0.9134,18.2684 -3.4652,37.8947 -10.7129,57.7051 a 9.0107505,9.0107505 0 0 0 2.0898,9.4668 c 32.8033,32.8032 51.493,54.2561 65.9551,91.8516 0,0 0,0.01 0.01,0.012 11.6894,31.1985 15.1181,57.8342 9.4668,68.3886 -2.8277,5.2814 -6.8222,8.2579 -16.8769,8.9668 -10.0547,0.709 -25.6985,-2.0314 -47.0156,-10.0253 a 9.0107505,9.0107505 0 0 0 -7.6661,16.2402 c 28.3078,16.3314 68.8745,25.1862 93.8653,64.9785 0,0 0,0.01 0.01,0.01 4.3023,6.9131 6.2211,12.24 6.6993,15.709 0.4789,3.4743 -0.085,4.9024 -1.1114,6.3262 -2.0521,2.8476 -9.5666,6.1795 -20.4277,7.2031 -21.7221,2.0471 -52.1039,-3.3474 -62.125,-4.9297 a 9.0107505,9.0107505 0 0 0 -10.3789,8.1152 c -0.7137,8.1564 -3.3356,12.8711 -7.502,16.42 -4.1663,3.5489 -10.5437,5.9955 -19.2343,6.8515 -17.3814,1.7121 -42.9871,-3.4002 -70.3399,-13.3301 -54.7055,-19.8596 -117.1001,-58.7451 -145.2383,-90.166 a 9.0107505,9.0107505 0 0 0 -15.4707,3.9004 c -2.9147,12.1073 -7.403,18.4067 -11.8222,21.7559 -4.4192,3.3491 -9.2953,4.2894 -14.9492,3.7578 -5.654,-0.5316 -11.8045,-2.7934 -16.7696,-5.5488 -4.2446,-2.3556 -7.2877,-5.0673 -8.5312,-6.3399 -8.1483,-30.2629 -10.6179,-69.4631 -3.9375,-104.9746 6.8274,-36.2929 22.9189,-68.1439 50.4414,-84.8379 a 9.0107505,9.0107505 0 0 0 3.5898,-11.2949 c -9.4346,-21.6995 -9.7395,-35.5057 -9.1347,-49.7773 0.6047,-14.2716 2.5142,-29.5489 -3.5098,-49.2637 a 9.0107505,9.0107505 0 0 0 -1.2852,-2.6035 c -12.8193,-17.947 -14.6816,-30.454 -12.5879,-38.6407 2.0938,-8.1866 8.491,-13.9012 17.3848,-17.3457 8.8938,-3.4444 19.8756,-3.8698 27.4258,-1.6972 3.7751,1.0863 6.5904,2.7575 8.1855,4.4023 1.5952,1.6449 2.25,3.0201 2.25,5.5176 a 9.0107505,9.0107505 0 0 0 11.4219,8.6816 c 8.6601,-2.4055 31.3068,-8.1294 55.6563,-12.4336 24.3494,-4.3041 50.9704,-6.9152 65.3652,-4.375 a 9.0107505,9.0107505 0 0 0 8.6953,-3.3632 c 11.8932,-15.3912 23.1635,-22.5566 32.4063,-24.9629 2.3106,-0.6016 4.5168,-0.9319 6.625,-1.0215 z"
             id="path2193" />
        </g>
        <path
           style="color:#000000;font-style:normal;font-variant:normal;font-weight:normal;font-stretch:normal;font-size:medium;line-height:normal;font-family:sans-serif;font-variant-ligatures:normal;font-variant-position:normal;font-variant-caps:normal;font-variant-numeric:normal;font-variant-alternates:normal;font-variant-east-asian:normal;font-feature-settings:normal;font-variation-settings:normal;text-indent:0;text-align:start;text-decoration:none;text-decoration-line:none;text-decoration-style:solid;text-decoration-color:#000000;letter-spacing:normal;word-spacing:normal;text-transform:none;writing-mode:lr-tb;direction:ltr;text-orientation:mixed;dominant-baseline:auto;baseline-shift:baseline;text-anchor:start;white-space:normal;shape-padding:0;shape-margin:0;inline-size:0;clip-rule:nonzero;display:inline;overflow:visible;visibility:visible;opacity:1;isolation:auto;mix-blend-mode:normal;color-interpolation:sRGB;color-interpolation-filters:linearRGB;solid-color:#000000;solid-opacity:1;vector-effect:none;fill:#2b2a29;fill-opacity:1;fill-rule:nonzero;stroke:none;stroke-width:9.00986;stroke-linecap:round;stroke-linejoin:round;stroke-miterlimit:4;stroke-dasharray:none;stroke-dashoffset:0;stroke-opacity:1;color-rendering:auto;image-rendering:auto;shape-rendering:auto;text-rendering:auto;enable-background:accumulate;stop-color:#000000;stop-opacity:1"
           d="m 1662.0312,2270.4961 a 4.50493,4.50493 0 0 0 -1.3457,0.1953 4.50493,4.50493 0 0 0 -2.9941,5.6231 c 17.3572,56.8929 -10.8349,115.7013 -22.0566,159.5683 a 4.50493,4.50493 0 0 0 3.248,5.4824 4.50493,4.50493 0 0 0 5.4824,-3.248 c 10.7783,-42.133 40.5862,-103.3246 21.9434,-164.4317 a 4.50493,4.50493 0 0 0 -4.2774,-3.1894 z"
           id="path2187" />
        <path
           style="color:#000000;font-style:normal;font-variant:normal;font-weight:normal;font-stretch:normal;font-size:medium;line-height:normal;font-family:sans-serif;font-variant-ligatures:normal;font-variant-position:normal;font-variant-caps:normal;font-variant-numeric:normal;font-variant-alternates:normal;font-variant-east-asian:normal;font-feature-settings:normal;font-variation-settings:normal;text-indent:0;text-align:start;text-decoration:none;text-decoration-line:none;text-decoration-style:solid;text-decoration-color:#000000;letter-spacing:normal;word-spacing:normal;text-transform:none;writing-mode:lr-tb;direction:ltr;text-orientation:mixed;dominant-baseline:auto;baseline-shift:baseline;text-anchor:start;white-space:normal;shape-padding:0;shape-margin:0;inline-size:0;clip-rule:nonzero;display:inline;overflow:visible;visibility:visible;opacity:1;isolation:auto;mix-blend-mode:normal;color-interpolation:sRGB;color-interpolation-filters:linearRGB;solid-color:#000000;solid-opacity:1;vector-effect:none;fill:#2b2a29;fill-opacity:1;fill-rule:nonzero;stroke:none;stroke-width:9.00986;stroke-linecap:round;stroke-linejoin:round;stroke-miterlimit:4;stroke-dasharray:none;stroke-dashoffset:0;stroke-opacity:1;color-rendering:auto;image-rendering:auto;shape-rendering:auto;text-rendering:auto;enable-background:accumulate;stop-color:#000000;stop-opacity:1"
           d="m 1891.9844,2245.4941 a 4.50493,4.50493 0 0 0 -1.6797,0.3321 4.50493,4.50493 0 0 0 -2.4785,5.8691 c 12.2704,30.2041 18.6679,104.7917 18.6679,141.3047 a 4.50493,4.50493 0 0 0 4.5059,4.5059 4.50493,4.50493 0 0 0 4.5059,-4.5059 c 0,-37.487 -5.6025,-110.8994 -19.3321,-144.6953 a 4.50493,4.50493 0 0 0 -4.1894,-2.8106 z"
           id="path2183" />
        <path
           style="color:#000000;font-style:normal;font-variant:normal;font-weight:normal;font-stretch:normal;font-size:medium;line-height:normal;font-family:sans-serif;font-variant-ligatures:normal;font-variant-position:normal;font-variant-caps:normal;font-variant-numeric:normal;font-variant-alternates:normal;font-variant-east-asian:normal;font-feature-settings:normal;font-variation-settings:normal;text-indent:0;text-align:start;text-decoration:none;text-decoration-line:none;text-decoration-style:solid;text-decoration-color:#000000;letter-spacing:normal;word-spacing:normal;text-transform:none;writing-mode:lr-tb;direction:ltr;text-orientation:mixed;dominant-baseline:auto;baseline-shift:baseline;text-anchor:start;white-space:normal;shape-padding:0;shape-margin:0;inline-size:0;clip-rule:nonzero;display:inline;overflow:visible;visibility:visible;opacity:1;isolation:auto;mix-blend-mode:normal;color-interpolation:sRGB;color-interpolation-filters:linearRGB;solid-color:#000000;solid-opacity:1;vector-effect:none;fill:#2b2a29;fill-opacity:1;fill-rule:nonzero;stroke:none;stroke-width:9.00986;stroke-linecap:round;stroke-linejoin:round;stroke-miterlimit:4;stroke-dasharray:none;stroke-dashoffset:0;stroke-opacity:1;color-rendering:auto;image-rendering:auto;shape-rendering:auto;text-rendering:auto;enable-background:accumulate;stop-color:#000000;stop-opacity:1"
           d="m 1827.0254,2395.4961 a 4.50493,4.50493 0 0 0 -4.0195,2.4199 4.50493,4.50493 0 0 0 1.9101,6.0781 c 10.5722,5.516 35.0336,23.3019 56.0176,42.8047 10.492,9.7514 20.2086,19.9854 27.1035,29.2891 6.8949,9.3036 10.6382,17.7889 10.4609,22.7519 a 4.50493,4.50493 0 0 0 4.3418,4.6622 4.50493,4.50493 0 0 0 4.6622,-4.3418 c 0.3227,-9.037 -4.809,-18.4267 -12.2266,-28.4356 -7.4176,-10.0088 -17.451,-20.5248 -28.209,-30.5234 -21.516,-19.9972 -45.5546,-37.7113 -57.9824,-44.1953 a 4.50493,4.50493 0 0 0 -2.0586,-0.5098 z"
           id="path2179" />
        <g
           id="g2171"
           style="opacity:1">
          <path
             style="color:#000000;font-style:normal;font-variant:normal;font-weight:normal;font-stretch:normal;font-size:medium;line-height:normal;font-family:sans-serif;font-variant-ligatures:normal;font-variant-position:normal;font-variant-caps:normal;font-variant-numeric:normal;font-variant-alternates:normal;font-variant-east-asian:normal;font-feature-settings:normal;font-variation-settings:normal;text-indent:0;text-align:start;text-decoration:none;text-decoration-line:none;text-decoration-style:solid;text-decoration-color:#000000;letter-spacing:normal;word-spacing:normal;text-transform:none;writing-mode:lr-tb;direction:ltr;text-orientation:mixed;dominant-baseline:auto;baseline-shift:baseline;text-anchor:start;white-space:normal;shape-padding:0;shape-margin:0;inline-size:0;clip-rule:nonzero;display:inline;overflow:visible;visibility:visible;isolation:auto;mix-blend-mode:normal;color-interpolation:sRGB;color-interpolation-filters:linearRGB;solid-color:#000000;solid-opacity:1;vector-effect:none;fill:#fefefe;fill-opacity:1;fill-rule:nonzero;stroke:none;stroke-width:9.00986;stroke-linecap:round;stroke-linejoin:round;stroke-miterlimit:4;stroke-dasharray:none;stroke-dashoffset:0;stroke-opacity:1;color-rendering:auto;image-rendering:auto;shape-rendering:auto;text-rendering:auto;enable-background:accumulate;stop-color:#000000;stop-opacity:1"
             d="m 1735,2117 c -82,-8 13,95 19,15 0,-7 -11,-14 -19,-15 z"
             id="path2173" />
          <path
             id="path2175"
             style="color:#000000;font-style:normal;font-variant:normal;font-weight:normal;font-stretch:normal;font-size:medium;line-height:normal;font-family:sans-serif;font-variant-ligatures:normal;font-variant-position:normal;font-variant-caps:normal;font-variant-numeric:normal;font-variant-alternates:normal;font-variant-east-asian:normal;font-feature-settings:normal;font-variation-settings:normal;text-indent:0;text-align:start;text-decoration:none;text-decoration-line:none;text-decoration-style:solid;text-decoration-color:#000000;letter-spacing:normal;word-spacing:normal;text-transform:none;writing-mode:lr-tb;direction:ltr;text-orientation:mixed;dominant-baseline:auto;baseline-shift:baseline;text-anchor:start;white-space:normal;shape-padding:0;shape-margin:0;inline-size:0;clip-rule:nonzero;display:inline;overflow:visible;visibility:visible;isolation:auto;mix-blend-mode:normal;color-interpolation:sRGB;color-interpolation-filters:linearRGB;solid-color:#000000;solid-opacity:1;vector-effect:none;fill:#2b2a29;fill-opacity:1;fill-rule:nonzero;stroke:none;stroke-width:0.944715;stroke-linecap:round;stroke-linejoin:round;stroke-miterlimit:4;stroke-dasharray:none;stroke-dashoffset:0;stroke-opacity:1;color-rendering:auto;image-rendering:auto;shape-rendering:auto;text-rendering:auto;enable-background:accumulate;stop-color:#000000;stop-opacity:1"
             d="m 181.23047,221.45703 c -0.74107,-0.0149 -1.34027,0.0684 -1.82617,0.24414 -0.64787,0.23431 -1.09964,0.66702 -1.28125,1.18945 -0.36324,1.04487 0.22423,2.1778 1.04687,3.0293 0.82264,0.8515 1.96798,1.49648 3.10547,1.26563 0.56876,-0.11543 1.10232,-0.48183 1.47461,-1.08203 0.37228,-0.60021 0.6051,-1.42283 0.6875,-2.52149 a 0.47240458,0.47240458 0 0 0 0.002,-0.0352 c 0,-0.61441 -0.41648,-1.0661 -0.875,-1.40235 -0.45852,-0.33625 -1.00367,-0.57273 -1.53125,-0.63867 a 0.47240458,0.47240458 0 0 0 -0.0137,-0.002 c -0.27978,-0.0273 -0.54203,-0.0419 -0.78906,-0.0469 z m -0.0176,0.94531 c 0.21654,0.004 0.45154,0.0165 0.70508,0.041 0.31115,0.0396 0.76088,0.22308 1.08789,0.46289 0.32498,0.23832 0.48351,0.51539 0.48633,0.63672 -0.0771,0.98034 -0.28849,1.64909 -0.54492,2.0625 -0.2593,0.41803 -0.54015,0.58951 -0.85938,0.6543 -0.63846,0.12957 -1.56676,-0.301 -2.23828,-0.9961 -0.67152,-0.69508 -1.00157,-1.58043 -0.83399,-2.0625 0.0838,-0.24104 0.2603,-0.44834 0.71094,-0.61133 0.33799,-0.12223 0.82767,-0.19909 1.48633,-0.1875 z"
             transform="matrix(9.5371229,0,0,9.5371229,-0.513698,0)" />
        </g>
        <g
           id="g2165"
           style="opacity:1">
          <path
             id="path2167"
             style="color:#000000;font-style:normal;font-variant:normal;font-weight:normal;font-stretch:normal;font-size:medium;line-height:normal;font-family:sans-serif;font-variant-ligatures:normal;font-variant-position:normal;font-variant-caps:normal;font-variant-numeric:normal;font-variant-alternates:normal;font-variant-east-asian:normal;font-feature-settings:normal;font-variation-settings:normal;text-indent:0;text-align:start;text-decoration:none;text-decoration-line:none;text-decoration-style:solid;text-decoration-color:#000000;letter-spacing:normal;word-spacing:normal;text-transform:none;writing-mode:lr-tb;direction:ltr;text-orientation:mixed;dominant-baseline:auto;baseline-shift:baseline;text-anchor:start;white-space:normal;shape-padding:0;shape-margin:0;inline-size:0;clip-rule:nonzero;display:inline;overflow:visible;visibility:visible;isolation:auto;mix-blend-mode:normal;color-interpolation:sRGB;color-interpolation-filters:linearRGB;solid-color:#000000;solid-opacity:1;vector-effect:none;fill:#fefefe;fill-opacity:1;fill-rule:nonzero;stroke:none;stroke-width:0.944715;stroke-linecap:round;stroke-linejoin:round;stroke-miterlimit:4;stroke-dasharray:none;stroke-dashoffset:0;stroke-opacity:1;color-rendering:auto;image-rendering:auto;shape-rendering:auto;text-rendering:auto;enable-background:accumulate;stop-color:#000000;stop-opacity:1"
             d="m 190.52734,220.09375 c -0.31619,0.004 -0.57081,0.0342 -0.79882,0.11719 -0.22802,0.083 -0.46009,0.25112 -0.55079,0.51172 -0.0907,0.26059 -0.0187,0.51139 0.0801,0.69922 0.0988,0.18782 0.23502,0.347 0.39649,0.50585 0.15904,0.15648 0.34684,0.31048 0.55273,0.46094 0.8676,1.74311 3.62712,3.69309 4.3125,1.35352 0.0128,-0.007 0.0264,-0.008 0.0391,-0.0156 0.21263,-0.12557 0.3846,-0.36663 0.43164,-0.62304 0.0941,-0.51284 -0.12623,-1.01192 -0.55859,-1.69532 a 0.47240458,0.47240458 0 0 0 -0.0879,-0.10351 l -0.83789,-0.73438 a 0.47240458,0.47240458 0 0 0 -0.21289,-0.10547 c -1.25072,-0.26611 -2.13323,-0.37907 -2.76563,-0.37109 z"
             transform="matrix(9.5371229,0,0,9.5371229,-0.513698,0)" />
          <path
             style="color:#000000;font-style:normal;font-variant:normal;font-weight:normal;font-stretch:normal;font-size:medium;line-height:normal;font-family:sans-serif;font-variant-ligatures:normal;font-variant-position:normal;font-variant-caps:normal;font-variant-numeric:normal;font-variant-alternates:normal;font-variant-east-asian:normal;font-feature-settings:normal;font-variation-settings:normal;text-indent:0;text-align:start;text-decoration:none;text-decoration-line:none;text-decoration-style:solid;text-decoration-color:#000000;letter-spacing:normal;word-spacing:normal;text-transform:none;writing-mode:lr-tb;direction:ltr;text-orientation:mixed;dominant-baseline:auto;baseline-shift:baseline;text-anchor:start;white-space:normal;shape-padding:0;shape-margin:0;inline-size:0;clip-rule:nonzero;display:inline;overflow:visible;visibility:visible;isolation:auto;mix-blend-mode:normal;color-interpolation:sRGB;color-interpolation-filters:linearRGB;solid-color:#000000;solid-opacity:1;vector-effect:none;fill:#2b2a29;fill-opacity:1;fill-rule:nonzero;stroke:none;stroke-width:9.00986;stroke-linecap:round;stroke-linejoin:round;stroke-miterlimit:4;stroke-dasharray:none;stroke-dashoffset:0;stroke-opacity:1;color-rendering:auto;image-rendering:auto;shape-rendering:auto;text-rendering:auto;enable-background:accumulate;stop-color:#000000;stop-opacity:1"
             d="m 1824.1465,2097.9785 c -1.6339,0.017 -3.1592,0.1359 -4.5899,0.3535 -5.7225,0.8706 -10.268,3.8289 -12.1328,8.1719 -1.8648,4.343 -1.1434,9.0328 0.541,13.4316 1.6845,4.3989 4.4588,8.7278 7.8477,12.7266 6.7777,7.9977 15.7911,14.9074 25.2754,15.9121 4.7422,0.5024 9.8919,-0.9546 13.4277,-4.873 3.5202,-3.9012 5.4152,-9.6173 5.9668,-17.291 1.2393,-12.61 -7.9943,-23.1722 -18.3769,-25.7754 -7.1895,-1.8449 -13.0614,-2.7079 -17.959,-2.6563 z m 4.3262,9.25 c 3.1568,0.3172 6.9545,0.9918 11.4062,2.1348 a 4.5053805,4.5053805 0 0 0 0.029,0.01 c 5.6006,1.4001 12.346,8.813 11.6094,16.1797 a 4.5053805,4.5053805 0 0 0 -0.012,0.1347 c -0.4579,6.5248 -2.0886,10.2193 -3.6778,11.9805 -1.5892,1.7612 -3.1582,2.2262 -5.791,1.9473 -5.2657,-0.5578 -13.6273,-6.0231 -19.3496,-12.7754 -2.8611,-3.3762 -5.1181,-7.0161 -6.3086,-10.125 -1.1905,-3.1089 -1.1879,-5.4661 -0.6777,-6.6543 0.5102,-1.1882 1.4334,-2.2456 5.2109,-2.8203 1.8888,-0.2874 4.4037,-0.327 7.5606,-0.01 z"
             id="path2169" />
        </g>
        <g
           id="g2159"
           style="opacity:1">
          <path
             id="path2161"
             style="color:#000000;font-style:normal;font-variant:normal;font-weight:normal;font-stretch:normal;font-size:medium;line-height:normal;font-family:sans-serif;font-variant-ligatures:normal;font-variant-position:normal;font-variant-caps:normal;font-variant-numeric:normal;font-variant-alternates:normal;font-variant-east-asian:normal;font-feature-settings:normal;font-variation-settings:normal;text-indent:0;text-align:start;text-decoration:none;text-decoration-line:none;text-decoration-style:solid;text-decoration-color:#000000;letter-spacing:normal;word-spacing:normal;text-transform:none;writing-mode:lr-tb;direction:ltr;text-orientation:mixed;dominant-baseline:auto;baseline-shift:baseline;text-anchor:start;white-space:normal;shape-padding:0;shape-margin:0;inline-size:0;clip-rule:nonzero;display:inline;overflow:visible;visibility:visible;isolation:auto;mix-blend-mode:normal;color-interpolation:sRGB;color-interpolation-filters:linearRGB;solid-color:#000000;solid-opacity:1;vector-effect:none;fill:#2b2a29;fill-opacity:1;fill-rule:nonzero;stroke:none;stroke-width:0.944715;stroke-linecap:round;stroke-linejoin:round;stroke-miterlimit:4;stroke-dasharray:none;stroke-dashoffset:0;stroke-opacity:1;color-rendering:auto;image-rendering:auto;shape-rendering:auto;text-rendering:auto;enable-background:accumulate;stop-color:#000000;stop-opacity:1"
             d="m 180.79297,221.67969 c -0.35018,0.0175 -0.64645,0.0625 -0.90235,0.13867 -0.51177,0.1524 -0.91275,0.50023 -0.98632,0.94922 -0.0736,0.44899 0.12872,0.84051 0.39062,1.18164 0.26192,0.34114 0.61574,0.65106 1.01367,0.91992 0.79586,0.53774 1.74494,0.95509 2.61914,0.73828 0.43711,-0.10841 0.8413,-0.4617 0.98829,-0.95703 0.14699,-0.49533 0.0991,-1.09286 -0.125,-1.86328 a 0.47240458,0.47240458 0 0 0 -0.006,-0.0176 c -0.076,-0.22801 -0.20835,-0.34774 -0.34375,-0.46094 -0.1354,-0.11321 -0.28582,-0.2084 -0.44727,-0.29297 -0.32138,-0.16834 -0.65055,-0.30149 -1.01562,-0.30273 -0.4514,-0.0379 -0.8457,-0.0502 -1.18555,-0.0332 z"
             transform="matrix(9.5371229,0,0,9.5371229,-0.513698,0)" />
        </g>
        <g
           id="g2153"
           style="opacity:1">
          <path
             style="color:#000000;font-style:normal;font-variant:normal;font-weight:normal;font-stretch:normal;font-size:medium;line-height:normal;font-family:sans-serif;font-variant-ligatures:normal;font-variant-position:normal;font-variant-caps:normal;font-variant-numeric:normal;font-variant-alternates:normal;font-variant-east-asian:normal;font-feature-settings:normal;font-variation-settings:normal;text-indent:0;text-align:start;text-decoration:none;text-decoration-line:none;text-decoration-style:solid;text-decoration-color:#000000;letter-spacing:normal;word-spacing:normal;text-transform:none;writing-mode:lr-tb;direction:ltr;text-orientation:mixed;dominant-baseline:auto;baseline-shift:baseline;text-anchor:start;white-space:normal;shape-padding:0;shape-margin:0;inline-size:0;clip-rule:nonzero;display:inline;overflow:visible;visibility:visible;isolation:auto;mix-blend-mode:normal;color-interpolation:sRGB;color-interpolation-filters:linearRGB;solid-color:#000000;solid-opacity:1;vector-effect:none;fill:#2b2a29;fill-opacity:1;fill-rule:nonzero;stroke:none;stroke-width:9.00986;stroke-linecap:round;stroke-linejoin:round;stroke-miterlimit:4;stroke-dasharray:none;stroke-dashoffset:0;stroke-opacity:1;color-rendering:auto;image-rendering:auto;shape-rendering:auto;text-rendering:auto;enable-background:accumulate;stop-color:#000000;stop-opacity:1"
             d="m 1842,2107 c -94,-20 39,56 8,7 z"
             id="path2155" />
        </g>
        <g
           id="g2147"
           style="opacity:1">
          <path
             style="color:#000000;font-style:normal;font-variant:normal;font-weight:normal;font-stretch:normal;font-size:medium;line-height:normal;font-family:sans-serif;font-variant-ligatures:normal;font-variant-position:normal;font-variant-caps:normal;font-variant-numeric:normal;font-variant-alternates:normal;font-variant-east-asian:normal;font-feature-settings:normal;font-variation-settings:normal;text-indent:0;text-align:start;text-decoration:none;text-decoration-line:none;text-decoration-style:solid;text-decoration-color:#000000;letter-spacing:normal;word-spacing:normal;text-transform:none;writing-mode:lr-tb;direction:ltr;text-orientation:mixed;dominant-baseline:auto;baseline-shift:baseline;text-anchor:start;white-space:normal;shape-padding:0;shape-margin:0;inline-size:0;clip-rule:nonzero;display:inline;overflow:visible;visibility:visible;isolation:auto;mix-blend-mode:normal;color-interpolation:sRGB;color-interpolation-filters:linearRGB;solid-color:#000000;solid-opacity:1;vector-effect:none;fill:#2b2a29;fill-opacity:1;fill-rule:nonzero;stroke:none;stroke-width:9.00986;stroke-linecap:round;stroke-linejoin:round;stroke-miterlimit:4;stroke-dasharray:none;stroke-dashoffset:0;stroke-opacity:1;color-rendering:auto;image-rendering:auto;shape-rendering:auto;text-rendering:auto;enable-background:accumulate;stop-color:#000000;stop-opacity:1"
             d="m 1805,2159 c -72,-26 -25,85 19,17 -3,-9 -9,-14 -19,-17 z"
             id="path2149" />
          <path
             style="color:#000000;font-style:normal;font-variant:normal;font-weight:normal;font-stretch:normal;font-size:medium;line-height:normal;font-family:sans-serif;font-variant-ligatures:normal;font-variant-position:normal;font-variant-caps:normal;font-variant-numeric:normal;font-variant-alternates:normal;font-variant-east-asian:normal;font-feature-settings:normal;font-variation-settings:normal;text-indent:0;text-align:start;text-decoration:none;text-decoration-line:none;text-decoration-style:solid;text-decoration-color:#000000;letter-spacing:normal;word-spacing:normal;text-transform:none;writing-mode:lr-tb;direction:ltr;text-orientation:mixed;dominant-baseline:auto;baseline-shift:baseline;text-anchor:start;white-space:normal;shape-padding:0;shape-margin:0;inline-size:0;clip-rule:nonzero;display:inline;overflow:visible;visibility:visible;isolation:auto;mix-blend-mode:normal;color-interpolation:sRGB;color-interpolation-filters:linearRGB;solid-color:#000000;solid-opacity:1;vector-effect:none;fill:#2b2a29;fill-opacity:1;fill-rule:nonzero;stroke:none;stroke-width:9.00986;stroke-linecap:round;stroke-linejoin:round;stroke-miterlimit:4;stroke-dasharray:none;stroke-dashoffset:0;stroke-opacity:1;color-rendering:auto;image-rendering:auto;shape-rendering:auto;text-rendering:auto;enable-background:accumulate;stop-color:#000000;stop-opacity:1"
             d="m 1788.0586,2150.5391 c -1.771,-0.1059 -3.4549,-0.097 -5.0566,0.023 -6.4072,0.4806 -11.5976,2.89 -14.9708,6.7031 -6.7463,7.6263 -5.7448,18.915 -1.0351,28.0489 4.7097,9.1338 13.6707,17.0305 25.1406,17.5605 11.4699,0.53 24.1422,-6.6513 35.6445,-24.4277 a 4.5053805,4.5053805 0 0 0 0.4922,-3.8711 c -3.4073,-10.222 -11.118,-16.6179 -21.9414,-19.875 -6.9688,-2.5003 -13.0121,-3.8477 -18.2734,-4.1621 z m -0.543,9.0019 c 4.2044,0.2618 9.511,1.3683 15.9551,3.6953 a 4.5053805,4.5053805 0 0 0 0.2344,0.078 c 8.2893,2.4868 12.4898,5.8379 15.1484,12.1816 -9.9684,14.5389 -19.1622,18.7088 -26.3027,18.3789 -7.4676,-0.345 -14.0066,-5.8233 -17.5469,-12.6895 -3.5403,-6.8661 -3.5388,-14.2024 -0.2227,-17.9511 1.6581,-1.8744 4.2646,-3.34 8.8965,-3.6875 1.158,-0.087 2.4365,-0.093 3.8379,-0.01 z"
             id="path2151" />
        </g>
        <path
           style="color:#000000;font-style:normal;font-variant:normal;font-weight:normal;font-stretch:normal;font-size:medium;line-height:normal;font-family:sans-serif;font-variant-ligatures:normal;font-variant-position:normal;font-variant-caps:normal;font-variant-numeric:normal;font-variant-alternates:normal;font-variant-east-asian:normal;font-feature-settings:normal;font-variation-settings:normal;text-indent:0;text-align:start;text-decoration:none;text-decoration-line:none;text-decoration-style:solid;text-decoration-color:#000000;letter-spacing:normal;word-spacing:normal;text-transform:none;writing-mode:lr-tb;direction:ltr;text-orientation:mixed;dominant-baseline:auto;baseline-shift:baseline;text-anchor:start;white-space:normal;shape-padding:0;shape-margin:0;inline-size:0;clip-rule:nonzero;display:inline;overflow:visible;visibility:visible;opacity:1;isolation:auto;mix-blend-mode:normal;color-interpolation:sRGB;color-interpolation-filters:linearRGB;solid-color:#000000;solid-opacity:1;vector-effect:none;fill:#2b2a29;fill-opacity:1;fill-rule:nonzero;stroke:none;stroke-width:9.00986;stroke-linecap:round;stroke-linejoin:round;stroke-miterlimit:4;stroke-dasharray:none;stroke-dashoffset:0;stroke-opacity:1;color-rendering:auto;image-rendering:auto;shape-rendering:auto;text-rendering:auto;enable-background:accumulate;stop-color:#000000;stop-opacity:1"
           d="m 1792.0859,2180.4961 a 4.5053805,4.5053805 0 0 0 -4.5898,4.375 c -0.2625,9.1859 0.8589,16.8433 1.7676,22.9062 0.9086,6.063 1.393,10.533 0.8535,12.8067 -0.5395,2.2737 -1.1552,3.2665 -5.877,4.6777 -4.7217,1.4113 -13.1602,2.2324 -26.2402,2.2324 a 4.50493,4.50493 0 0 0 -4.5059,4.5059 4.50493,4.50493 0 0 0 4.5059,4.5059 c 13.42,0 22.3565,-0.6789 28.8223,-2.6114 6.4657,-1.9325 10.85,-6.1272 12.0605,-11.2285 1.2105,-5.1013 0.1949,-10.1938 -0.709,-16.2246 -0.2617,-1.7463 -0.4864,-3.7624 -0.7324,-5.6758 7.5648,9.9634 14.5946,16.6946 21.1973,20.7949 9.2227,5.7275 17.9651,6.3244 24.8027,3.7891 6.8377,-2.5353 11.5798,-7.6936 14.6445,-12.459 1.5324,-2.3827 2.6506,-4.689 3.3965,-6.7148 0.373,-1.013 0.6542,-1.9519 0.8399,-2.8731 0.1857,-0.9211 0.3904,-1.712 0.096,-3.1855 a 4.50493,4.50493 0 0 0 -5.3008,-3.5352 4.50493,4.50493 0 0 0 -3.5352,5.3008 c -0.1697,-0.8485 -0.029,-0.6711 -0.092,-0.3594 -0.063,0.3118 -0.2147,0.8704 -0.4609,1.5391 -0.4924,1.3374 -1.3507,3.1327 -2.5215,4.9531 -2.3415,3.6409 -5.9119,7.2951 -10.1992,8.8848 -4.2874,1.5897 -9.4825,1.6241 -16.916,-2.9922 -7.4335,-4.6163 -16.7983,-14.1549 -27.5781,-31.3047 a 4.5053805,4.5053805 0 0 0 -3.7286,-2.1074 z"
           id="path2145" />
        <path
           style="color:#000000;font-style:normal;font-variant:normal;font-weight:normal;font-stretch:normal;font-size:medium;line-height:normal;font-family:sans-serif;font-variant-ligatures:normal;font-variant-position:normal;font-variant-caps:normal;font-variant-numeric:normal;font-variant-alternates:normal;font-variant-east-asian:normal;font-feature-settings:normal;font-variation-settings:normal;text-indent:0;text-align:start;text-decoration:none;text-decoration-line:none;text-decoration-style:solid;text-decoration-color:#000000;letter-spacing:normal;word-spacing:normal;text-transform:none;writing-mode:lr-tb;direction:ltr;text-orientation:mixed;dominant-baseline:auto;baseline-shift:baseline;text-anchor:start;white-space:normal;shape-padding:0;shape-margin:0;inline-size:0;clip-rule:nonzero;display:inline;overflow:visible;visibility:visible;opacity:1;isolation:auto;mix-blend-mode:normal;color-interpolation:sRGB;color-interpolation-filters:linearRGB;solid-color:#000000;solid-opacity:1;vector-effect:none;fill:#2b2a29;fill-opacity:1;fill-rule:nonzero;stroke:none;stroke-width:9.00986;stroke-linecap:round;stroke-linejoin:round;stroke-miterlimit:4;stroke-dasharray:none;stroke-dashoffset:0;stroke-opacity:1;color-rendering:auto;image-rendering:auto;shape-rendering:auto;text-rendering:auto;enable-background:accumulate;stop-color:#000000;stop-opacity:1"
           d="m 1891.9355,2208.4961 a 4.50493,4.50493 0 0 0 -0.6464,0.055 4.50493,4.50493 0 0 0 -3.7383,5.1601 c 0.2094,1.3091 -0.4882,4.5758 -3.0567,8.6797 -2.5684,4.104 -6.757,8.9894 -12.2812,14.0332 -11.0484,10.0877 -27.4169,20.8623 -46.9317,28.9121 -39.0294,16.0997 -90.2957,21.4602 -138.8808,-9.1484 a 4.50493,4.50493 0 0 0 -6.2129,1.4121 4.50493,4.50493 0 0 0 1.4121,6.2129 c 51.4149,32.3914 106.1486,26.7519 147.1192,9.8516 20.4852,-8.4502 37.6167,-19.6756 49.5683,-30.5879 5.9758,-5.4562 10.6622,-10.8208 13.8438,-15.9043 3.1815,-5.0836 5.1089,-9.9419 4.3183,-14.8828 a 4.50493,4.50493 0 0 0 -4.5137,-3.793 z"
           id="path2141" />
        <g
           id="g2133"
           style="opacity:1">
          <path
             style="color:#000000;font-style:normal;font-variant:normal;font-weight:normal;font-stretch:normal;font-size:medium;line-height:normal;font-family:sans-serif;font-variant-ligatures:normal;font-variant-position:normal;font-variant-caps:normal;font-variant-numeric:normal;font-variant-alternates:normal;font-variant-east-asian:normal;font-feature-settings:normal;font-variation-settings:normal;text-indent:0;text-align:start;text-decoration:none;text-decoration-line:none;text-decoration-style:solid;text-decoration-color:#000000;letter-spacing:normal;word-spacing:normal;text-transform:none;writing-mode:lr-tb;direction:ltr;text-orientation:mixed;dominant-baseline:auto;baseline-shift:baseline;text-anchor:start;white-space:normal;shape-padding:0;shape-margin:0;inline-size:0;clip-rule:nonzero;display:inline;overflow:visible;visibility:visible;isolation:auto;mix-blend-mode:normal;color-interpolation:sRGB;color-interpolation-filters:linearRGB;solid-color:#000000;solid-opacity:1;vector-effect:none;fill:#e31e24;fill-opacity:1;fill-rule:nonzero;stroke:none;stroke-width:9.00986;stroke-linecap:round;stroke-linejoin:round;stroke-miterlimit:4;stroke-dasharray:none;stroke-dashoffset:0;stroke-opacity:1;color-rendering:auto;image-rendering:auto;shape-rendering:auto;text-rendering:auto;enable-background:accumulate;stop-color:#000000;stop-opacity:1"
             d="m 1782,2278 c -35,-11 -94,-70 -80,31 19,136 45,-40 147,18 46,27 36,-116 -19,-73 -14,11 -33,30 -48,24 z"
             id="path2135" />
          <path
             style="color:#000000;font-style:normal;font-variant:normal;font-weight:normal;font-stretch:normal;font-size:medium;line-height:normal;font-family:sans-serif;font-variant-ligatures:normal;font-variant-position:normal;font-variant-caps:normal;font-variant-numeric:normal;font-variant-alternates:normal;font-variant-east-asian:normal;font-feature-settings:normal;font-variation-settings:normal;text-indent:0;text-align:start;text-decoration:none;text-decoration-line:none;text-decoration-style:solid;text-decoration-color:#000000;letter-spacing:normal;word-spacing:normal;text-transform:none;writing-mode:lr-tb;direction:ltr;text-orientation:mixed;dominant-baseline:auto;baseline-shift:baseline;text-anchor:start;white-space:normal;shape-padding:0;shape-margin:0;inline-size:0;clip-rule:nonzero;display:inline;overflow:visible;visibility:visible;isolation:auto;mix-blend-mode:normal;color-interpolation:sRGB;color-interpolation-filters:linearRGB;solid-color:#000000;solid-opacity:1;vector-effect:none;fill:#2b2a29;fill-opacity:1;fill-rule:nonzero;stroke:none;stroke-width:9.00986;stroke-linecap:round;stroke-linejoin:round;stroke-miterlimit:4;stroke-dasharray:none;stroke-dashoffset:0;stroke-opacity:1;color-rendering:auto;image-rendering:auto;shape-rendering:auto;text-rendering:auto;enable-background:accumulate;stop-color:#000000;stop-opacity:1"
             d="m 1848.2812,2241.3984 c -6.6433,0.3145 -13.6783,3.2843 -21.0566,9.0528 a 4.5053805,4.5053805 0 0 0 -0.01,0.01 c -7.2123,5.6669 -15.3718,13.0545 -23.2754,18.127 -7.9036,5.0725 -14.899,7.3798 -20.2676,5.2324 a 4.5053805,4.5053805 0 0 0 -0.3222,-0.1133 c -7.9965,-2.5132 -18.1703,-8.1458 -28.4532,-13.6719 -10.2828,-5.526 -20.6578,-10.9878 -30.3847,-12.9472 -4.8635,-0.9797 -9.7009,-1.0826 -14.1758,0.6094 -4.4749,1.6919 -8.2747,5.2822 -10.7227,10.3457 -4.8959,10.127 -5.629,25.9629 -2.0781,51.58 2.3939,17.1357 4.8872,29.4436 7.7675,38.2227 2.8804,8.7791 6.0572,14.4445 11.2344,17.1719 2.5886,1.3637 5.5773,1.6727 8.2637,1.166 2.6864,-0.5067 5.1344,-1.6865 7.5488,-3.1953 4.8288,-3.0177 9.6485,-7.4711 15.0586,-12.4121 10.8202,-9.882 23.8068,-21.676 39.8008,-27.5 15.994,-5.824 34.9831,-6.1356 59.5605,7.8398 l -0.055,-0.031 c 6.4678,3.7963 12.7872,4.9612 18.2578,3.2714 5.4705,-1.6897 9.4863,-5.9634 12.1875,-11.1308 5.4023,-10.3349 6.582,-24.9269 4.6757,-39.125 -1.9062,-14.1981 -6.8847,-28.0733 -16.2382,-36.2324 -4.6768,-4.0796 -10.677,-6.584 -17.3204,-6.2696 z m 0.4258,9 c 4.2513,-0.2012 7.6963,1.2007 10.9727,4.0586 6.5527,5.7159 11.5117,17.8407 13.2305,30.6426 1.7187,12.8019 0.2109,26.2099 -3.7305,33.75 -1.9707,3.7701 -4.2909,5.9027 -6.8633,6.6973 -2.5724,0.7946 -6.003,0.522 -11.0352,-2.4317 a 4.5053805,4.5053805 0 0 0 -0.055,-0.031 c -26.4226,-15.0246 -48.9335,-15.0862 -67.0957,-8.4727 -18.1623,6.6135 -31.9882,19.4445 -42.793,29.3125 -5.4024,4.934 -10.0983,9.1369 -13.7578,11.4239 -1.8298,1.1434 -3.3676,1.7791 -4.4453,1.9824 -1.0778,0.2032 -1.6316,0.1168 -2.3946,-0.2852 -1.5259,-0.8039 -4.2944,-4.1541 -6.8711,-12.0078 -2.5767,-7.8537 -5.0521,-19.7958 -7.4082,-36.6601 v 0 c -3.4491,-24.8829 -2.0572,-39.547 1.2656,-46.42 1.6614,-3.4365 3.4945,-4.9712 5.7969,-5.8418 2.3024,-0.8705 5.3869,-0.9734 9.2109,-0.2031 7.6481,1.5406 17.7106,6.5788 27.8965,12.0528 10.1079,5.4319 20.3498,11.2365 29.793,14.2441 9.6009,3.7844 19.5668,-0.3888 28.3828,-6.0469 8.8434,-5.6756 17.1803,-13.2843 23.9668,-18.6172 v 0 c 10e-4,-8e-4 0,0 0,0 6.368,-4.9767 11.6745,-6.9434 15.9238,-7.1446 z"
             id="path2137" />
        </g>
        <g
           id="g2127"
           style="opacity:1">
          <path
             style="color:#000000;font-style:normal;font-variant:normal;font-weight:normal;font-stretch:normal;font-size:medium;line-height:normal;font-family:sans-serif;font-variant-ligatures:normal;font-variant-position:normal;font-variant-caps:normal;font-variant-numeric:normal;font-variant-alternates:normal;font-variant-east-asian:normal;font-feature-settings:normal;font-variation-settings:normal;text-indent:0;text-align:start;text-decoration:none;text-decoration-line:none;text-decoration-style:solid;text-decoration-color:#000000;letter-spacing:normal;word-spacing:normal;text-transform:none;writing-mode:lr-tb;direction:ltr;text-orientation:mixed;dominant-baseline:auto;baseline-shift:baseline;text-anchor:start;white-space:normal;shape-padding:0;shape-margin:0;inline-size:0;clip-rule:nonzero;display:inline;overflow:visible;visibility:visible;isolation:auto;mix-blend-mode:normal;color-interpolation:sRGB;color-interpolation-filters:linearRGB;solid-color:#000000;solid-opacity:1;vector-effect:none;fill:#e31e24;fill-opacity:1;fill-rule:nonzero;stroke:none;stroke-width:9.00986;stroke-linecap:round;stroke-linejoin:round;stroke-miterlimit:4;stroke-dasharray:none;stroke-dashoffset:0;stroke-opacity:1;color-rendering:auto;image-rendering:auto;shape-rendering:auto;text-rendering:auto;enable-background:accumulate;stop-color:#000000;stop-opacity:1"
             d="m 1775,2274 c -65,-2 48,151 36,-2 0,-7 -30,2 -36,2 z"
             id="path2129" />
          <path
             style="color:#000000;font-style:normal;font-variant:normal;font-weight:normal;font-stretch:normal;font-size:medium;line-height:normal;font-family:sans-serif;font-variant-ligatures:normal;font-variant-position:normal;font-variant-caps:normal;font-variant-numeric:normal;font-variant-alternates:normal;font-variant-east-asian:normal;font-feature-settings:normal;font-variation-settings:normal;text-indent:0;text-align:start;text-decoration:none;text-decoration-line:none;text-decoration-style:solid;text-decoration-color:#000000;letter-spacing:normal;word-spacing:normal;text-transform:none;writing-mode:lr-tb;direction:ltr;text-orientation:mixed;dominant-baseline:auto;baseline-shift:baseline;text-anchor:start;white-space:normal;shape-padding:0;shape-margin:0;inline-size:0;clip-rule:nonzero;display:inline;overflow:visible;visibility:visible;isolation:auto;mix-blend-mode:normal;color-interpolation:sRGB;color-interpolation-filters:linearRGB;solid-color:#000000;solid-opacity:1;vector-effect:none;fill:#2b2a29;fill-opacity:1;fill-rule:nonzero;stroke:none;stroke-width:9.00986;stroke-linecap:round;stroke-linejoin:round;stroke-miterlimit:4;stroke-dasharray:none;stroke-dashoffset:0;stroke-opacity:1;color-rendering:auto;image-rendering:auto;shape-rendering:auto;text-rendering:auto;enable-background:accumulate;stop-color:#000000;stop-opacity:1"
             d="m 1806.4355,2264.8594 c -3.5851,-0.1735 -7.6697,0.3629 -11.9257,1.0722 -4.2561,0.7094 -8.615,1.6274 -12.2403,2.3555 -3.6252,0.7282 -6.8957,1.207 -7.2695,1.207 h 0.1387 c -8.9874,-0.2765 -15.9679,2.2507 -20.1875,7.1915 -4.2197,4.9408 -5.2558,11.5464 -4.5391,18.1562 1.4335,13.2196 9.4785,27.7814 19.5059,37.9434 5.0137,5.081 10.5514,9.0836 16.539,10.8691 5.9877,1.7855 12.8023,0.8787 17.877,-3.7539 5.0747,-4.6326 8.4266,-12.1817 10.3379,-23.2031 1.9113,-11.0215 2.3376,-25.6822 0.8183,-45.0528 l 0.016,0.3516 c 0,-2.4839 -1.9434,-5.0113 -3.7618,-5.9375 -1.8183,-0.9262 -3.516,-1.1164 -5.3086,-1.2031 z m -0.4335,9 c 0.4028,0.02 0.3249,0.037 0.5976,0.084 1.3229,18.031 0.8594,31.6116 -0.8066,41.2187 -1.7176,9.9043 -4.7173,15.5193 -7.5332,18.0899 -2.8159,2.5705 -5.431,2.9058 -9.2286,1.7734 -3.7975,-1.1324 -8.4004,-4.208 -12.6992,-8.5645 -8.5976,-8.713 -15.8651,-22.4637 -16.9629,-32.5879 -0.5489,-5.0621 0.3447,-8.8861 2.4336,-11.332 2.089,-2.4459 5.796,-4.2625 13.0586,-4.039 a 4.5053805,4.5053805 0 0 0 0.1387,0 c 2.6262,0 5.3557,-0.6462 9.043,-1.3868 3.6872,-0.7406 7.9533,-1.6351 11.9472,-2.3007 3.994,-0.6657 7.7844,-1.0668 10.0118,-0.959 z"
             id="path2131" />
        </g>
        <path
           style="color:#000000;font-style:normal;font-variant:normal;font-weight:normal;font-stretch:normal;font-size:medium;line-height:normal;font-family:sans-serif;font-variant-ligatures:normal;font-variant-position:normal;font-variant-caps:normal;font-variant-numeric:normal;font-variant-alternates:normal;font-variant-east-asian:normal;font-feature-settings:normal;font-variation-settings:normal;text-indent:0;text-align:start;text-decoration:none;text-decoration-line:none;text-decoration-style:solid;text-decoration-color:#000000;letter-spacing:normal;word-spacing:normal;text-transform:none;writing-mode:lr-tb;direction:ltr;text-orientation:mixed;dominant-baseline:auto;baseline-shift:baseline;text-anchor:start;white-space:normal;shape-padding:0;shape-margin:0;inline-size:0;clip-rule:nonzero;display:inline;overflow:visible;visibility:visible;opacity:1;isolation:auto;mix-blend-mode:normal;color-interpolation:sRGB;color-interpolation-filters:linearRGB;solid-color:#000000;solid-opacity:1;vector-effect:none;fill:#2b2a29;fill-opacity:1;fill-rule:nonzero;stroke:none;stroke-width:9.00986;stroke-linecap:round;stroke-linejoin:round;stroke-miterlimit:4;stroke-dasharray:none;stroke-dashoffset:0;stroke-opacity:1;color-rendering:auto;image-rendering:auto;shape-rendering:auto;text-rendering:auto;enable-background:accumulate;stop-color:#000000;stop-opacity:1"
           d="m 1645.0469,2081.2676 c -1.2643,-0.054 -2.4838,0.014 -3.668,0.209 -4.7368,0.7783 -8.5028,4.253 -9.9902,8.3652 -2.9748,8.2244 -0.2408,18.464 4.5039,29.0078 a 4.50493,4.50493 0 0 0 5.957,2.2578 4.50493,4.50493 0 0 0 2.2578,-5.957 c -4.2553,-9.4562 -5.5213,-18.7166 -4.2461,-22.2422 0.6376,-1.7628 1.0591,-2.2256 2.9785,-2.541 1.9195,-0.3154 5.7406,0.1881 11.2832,2.7285 a 4.50493,4.50493 0 0 0 5.9727,-2.2187 4.50493,4.50493 0 0 0 -2.2187,-5.9727 c -4.843,-2.2197 -9.0374,-3.4757 -12.8301,-3.6367 z"
           id="path2125" />
        <path
           style="color:#000000;font-style:normal;font-variant:normal;font-weight:normal;font-stretch:normal;font-size:medium;line-height:normal;font-family:sans-serif;font-variant-ligatures:normal;font-variant-position:normal;font-variant-caps:normal;font-variant-numeric:normal;font-variant-alternates:normal;font-variant-east-asian:normal;font-feature-settings:normal;font-variation-settings:normal;text-indent:0;text-align:start;text-decoration:none;text-decoration-line:none;text-decoration-style:solid;text-decoration-color:#000000;letter-spacing:normal;word-spacing:normal;text-transform:none;writing-mode:lr-tb;direction:ltr;text-orientation:mixed;dominant-baseline:auto;baseline-shift:baseline;text-anchor:start;white-space:normal;shape-padding:0;shape-margin:0;inline-size:0;clip-rule:nonzero;display:inline;overflow:visible;visibility:visible;opacity:1;isolation:auto;mix-blend-mode:normal;color-interpolation:sRGB;color-interpolation-filters:linearRGB;solid-color:#000000;solid-opacity:1;vector-effect:none;fill:#2b2a29;fill-opacity:1;fill-rule:nonzero;stroke:none;stroke-width:9.00986;stroke-linecap:round;stroke-linejoin:round;stroke-miterlimit:4;stroke-dasharray:none;stroke-dashoffset:0;stroke-opacity:1;color-rendering:auto;image-rendering:auto;shape-rendering:auto;text-rendering:auto;enable-background:accumulate;stop-color:#000000;stop-opacity:1"
           d="m 1806,2051.4941 a 4.50493,4.50493 0 0 0 -4.5059,4.5059 4.50493,4.50493 0 0 0 4.5059,4.5059 c 25.3069,0 52.2488,5.4015 73.3262,35.1015 a 4.50493,4.50493 0 0 0 6.2812,1.0664 4.50493,4.50493 0 0 0 1.0664,-6.2812 c -22.9226,-32.3 -53.9807,-38.8985 -80.6738,-38.8985 z"
           id="path2121" />
      </g>
    </g>
  </g>
</svg>
