<?xml version="1.0" encoding="UTF-8" standalone="no"?>
<svg
   xmlns:dc="http://purl.org/dc/elements/1.1/"
   xmlns:cc="http://creativecommons.org/ns#"
   xmlns:rdf="http://www.w3.org/1999/02/22-rdf-syntax-ns#"
   xmlns:svg="http://www.w3.org/2000/svg"
   xmlns="http://www.w3.org/2000/svg"
   xmlns:sodipodi="http://sodipodi.sourceforge.net/DTD/sodipodi-0.dtd"
   xmlns:inkscape="http://www.inkscape.org/namespaces/inkscape"
   inkscape:version="1.0 (4035a4fb49, 2020-05-01)"
   sodipodi:docname="2021-PH-03-explan2.svg"
   id="svg712"
   style="clip-rule:evenodd;fill-rule:evenodd;stroke-linecap:round;stroke-linejoin:round;stroke-miterlimit:1.5"
   xml:space="preserve"
   version="1.1"
   viewBox="0 0 1374.5914 971.70636"
   height="971.70636"
   width="1374.5914"><metadata
   id="metadata718"><rdf:RDF><cc:Work
       rdf:about=""><dc:format>image/svg+xml</dc:format><dc:type
         rdf:resource="http://purl.org/dc/dcmitype/StillImage" /><dc:title></dc:title></cc:Work></rdf:RDF></metadata><defs
   id="defs716" /><sodipodi:namedview
   fit-margin-bottom="0"
   fit-margin-right="0"
   fit-margin-left="0"
   fit-margin-top="0"
   inkscape:current-layer="g708"
   showgrid="false"
   id="namedview714"
   inkscape:window-height="480"
   inkscape:window-width="640"
   inkscape:pageshadow="2"
   inkscape:pageopacity="0"
   guidetolerance="10"
   gridtolerance="10"
   objecttolerance="10"
   borderopacity="1"
   bordercolor="#666666"
   pagecolor="#ffffff" />
    <g
   id="g710"
   transform="translate(-1378.6283,-3040.1719)">
        <g
   id="g708">
            
            
            
            
            
            
            
            
            
            
            
            
            
            
            
            
            
            
            
        <g
   transform="translate(88.804985,43.578158)"
   id="g3263"><g
     id="g26"
     transform="translate(1211.2792,1588.4259)"
     style="clip-rule:evenodd;fill-rule:evenodd;stroke-linecap:round;stroke-linejoin:round;stroke-miterlimit:1.5"><g
       id="g4"
       transform="matrix(1,0,0,1.15377,0,-256.31)"><path
         id="path2"
         style="fill:#009429;stroke:#000000;stroke-width:2.7px"
         d="m 348.166,1722.79 191.543,-2.45 -1.051,-53.16 -190.346,-0.3 z" /></g><g
       id="g24"
       transform="matrix(0.776868,0,0,1,200.127,-40.4722)"><path
         id="path6"
         style="fill:#ffffff"
         d="m 190.214,1708.05 c -1.24,-1.03 0.327,115.89 0.327,148.47" /><path
         id="path8"
         d="m 193.811,1708.88 c 0.368,-0.96 0.088,-2.04 -0.856,-2.83 -1.079,-0.89 -2.277,-1.02 -3.332,-0.89 -0.787,0.09 -1.747,0.37 -2.517,1.22 -0.173,0.19 -0.426,0.5 -0.592,1 -0.112,0.33 -0.273,1.58 -0.345,3.62 -0.651,18.49 0.618,116.18 0.618,145.52 0,1.61 1.682,2.92 3.754,2.92 2.072,0 3.755,-1.31 3.755,-2.92 0,-29.31 -1.271,-126.89 -0.621,-145.37 0.034,-0.95 0.103,-1.87 0.136,-2.27 z m -2.785,2.01 c -1.252,0.22 -2.613,-0.07 -3.552,-0.85 1.158,0.96 2.395,1.1 3.552,0.85 z" /><path
         id="path10"
         style="fill:#ffffff"
         d="m 190.926,1707.4 c 83.42,-0.57 162.93,-1.33 246.176,-1.33" /><path
         id="path12"
         d="m 190.959,1710.31 c 83.408,-0.56 162.908,-1.32 246.143,-1.32 2.072,0 3.754,-1.31 3.754,-2.92 0,-1.61 -1.682,-2.92 -3.754,-2.92 -83.257,0 -162.778,0.76 -246.208,1.33 -2.072,0.02 -3.74,1.33 -3.722,2.94 0.018,1.61 1.715,2.91 3.787,2.89 z" /><path
         id="path14"
         style="fill:#ffffff"
         d="m 436.895,1706.55 c -0.62,19.84 1.336,117.22 1.336,146.57" /><path
         id="path16"
         d="m 433.142,1706.47 c -0.62,19.86 1.335,117.29 1.335,146.65 0,1.62 1.682,2.92 3.754,2.92 2.072,0 3.754,-1.3 3.754,-2.92 0,-29.33 -1.956,-126.67 -1.337,-146.5 0.05,-1.61 -1.591,-2.95 -3.662,-2.99 -2.072,-0.04 -3.794,1.24 -3.844,2.84 z" /><g
         id="g22"
         transform="translate(1.23839,2.48673)"><path
           id="path18"
           style="fill:#ffffff"
           d="m 191.084,1854.4 c -2.518,0.04 241.846,-1.98 246.538,-1.98" /><path
           id="path20"
           d="m 191.088,1851.49 h -0.081 c -0.926,0.01 -1.369,0.22 -1.391,0.22 -0.13,0.05 -3.557,5.6 1.449,5.61 v 0 0 h 0.018 c 0.215,0 2.402,-0.01 6.204,-0.04 37.787,-0.3 236.113,-1.94 240.335,-1.94 2.072,0 3.754,-1.31 3.754,-2.92 0,-1.61 -1.682,-2.91 -3.754,-2.91 -4.224,0 -202.612,1.63 -240.411,1.93 -3.757,0.03 -6.13,0.05 -6.13,0.05 z m 1.345,5.64 c -0.395,0.12 -0.823,0.18 -1.271,0.19 0.694,-0.01 1.108,-0.14 1.271,-0.19 z m 0.78,-0.32 -0.04,0.02 0.013,-0.01 z m 0.972,-0.76 c -0.248,0.28 -0.559,0.53 -0.916,0.73 0.424,-0.23 0.713,-0.49 0.916,-0.73 z m -2.199,-4.48 c 0.96,0.19 1.777,0.66 2.287,1.3 -0.28,-0.4 -0.91,-1.05 -2.287,-1.3 z" /></g></g></g><g
     id="g52"
     transform="translate(1348.5727,1383.9189)"
     style="clip-rule:evenodd;fill-rule:evenodd;stroke-linecap:round;stroke-linejoin:round;stroke-miterlimit:1.5"><g
       id="g30"
       transform="matrix(1,0,0,1.15377,0,-256.31)"><path
         id="path28"
         style="fill:#009429;stroke:#000000;stroke-width:2.7px"
         d="m 348.166,1722.79 191.543,-2.45 -1.051,-53.16 -190.346,-0.3 z" /></g><g
       id="g50"
       transform="matrix(0.776868,0,0,1,200.127,-40.4722)"><path
         id="path32"
         style="fill:#ffffff"
         d="m 190.214,1708.05 c -1.24,-1.03 0.327,115.89 0.327,148.47" /><path
         id="path34"
         d="m 193.811,1708.88 c 0.368,-0.96 0.088,-2.04 -0.856,-2.83 -1.079,-0.89 -2.277,-1.02 -3.332,-0.89 -0.787,0.09 -1.747,0.37 -2.517,1.22 -0.173,0.19 -0.426,0.5 -0.592,1 -0.112,0.33 -0.273,1.58 -0.345,3.62 -0.651,18.49 0.618,116.18 0.618,145.52 0,1.61 1.682,2.92 3.754,2.92 2.072,0 3.755,-1.31 3.755,-2.92 0,-29.31 -1.271,-126.89 -0.621,-145.37 0.034,-0.95 0.103,-1.87 0.136,-2.27 z m -2.785,2.01 c -1.252,0.22 -2.613,-0.07 -3.552,-0.85 1.158,0.96 2.395,1.1 3.552,0.85 z" /><path
         id="path36"
         style="fill:#ffffff"
         d="m 190.926,1707.4 c 83.42,-0.57 162.93,-1.33 246.176,-1.33" /><path
         id="path38"
         d="m 190.959,1710.31 c 83.408,-0.56 162.908,-1.32 246.143,-1.32 2.072,0 3.754,-1.31 3.754,-2.92 0,-1.61 -1.682,-2.92 -3.754,-2.92 -83.257,0 -162.778,0.76 -246.208,1.33 -2.072,0.02 -3.74,1.33 -3.722,2.94 0.018,1.61 1.715,2.91 3.787,2.89 z" /><path
         id="path40"
         style="fill:#ffffff"
         d="m 436.895,1706.55 c -0.62,19.84 1.336,117.22 1.336,146.57" /><path
         id="path42"
         d="m 433.142,1706.47 c -0.62,19.86 1.335,117.29 1.335,146.65 0,1.62 1.682,2.92 3.754,2.92 2.072,0 3.754,-1.3 3.754,-2.92 0,-29.33 -1.956,-126.67 -1.337,-146.5 0.05,-1.61 -1.591,-2.95 -3.662,-2.99 -2.072,-0.04 -3.794,1.24 -3.844,2.84 z" /><g
         id="g48"
         transform="translate(1.23839,2.48673)"><path
           id="path44"
           style="fill:#ffffff"
           d="m 191.084,1854.4 c -2.518,0.04 241.846,-1.98 246.538,-1.98" /><path
           id="path46"
           d="m 191.088,1851.49 h -0.081 c -0.926,0.01 -1.369,0.22 -1.391,0.22 -0.13,0.05 -3.557,5.6 1.449,5.61 v 0 0 h 0.018 c 0.215,0 2.402,-0.01 6.204,-0.04 37.787,-0.3 236.113,-1.94 240.335,-1.94 2.072,0 3.754,-1.31 3.754,-2.92 0,-1.61 -1.682,-2.91 -3.754,-2.91 -4.224,0 -202.612,1.63 -240.411,1.93 -3.757,0.03 -6.13,0.05 -6.13,0.05 z m 1.345,5.64 c -0.395,0.12 -0.823,0.18 -1.271,0.19 0.694,-0.01 1.108,-0.14 1.271,-0.19 z m 0.78,-0.32 -0.04,0.02 0.013,-0.01 z m 0.972,-0.76 c -0.248,0.28 -0.559,0.53 -0.916,0.73 0.424,-0.23 0.713,-0.49 0.916,-0.73 z m -2.199,-4.48 c 0.96,0.19 1.777,0.66 2.287,1.3 -0.28,-0.4 -0.91,-1.05 -2.287,-1.3 z" /></g></g></g><g
     id="g78"
     transform="translate(1115.2662,1402.2329)"
     style="clip-rule:evenodd;fill-rule:evenodd;stroke-linecap:round;stroke-linejoin:round;stroke-miterlimit:1.5"><g
       id="g56"
       transform="matrix(1,0,0,1.15377,0,-256.31)"><path
         id="path54"
         style="fill:#009429;stroke:#000000;stroke-width:2.7px"
         d="m 348.166,1722.79 191.543,-2.45 -1.051,-53.16 -190.346,-0.3 z" /></g><g
       id="g76"
       transform="matrix(0.776868,0,0,1,200.127,-40.4722)"><path
         id="path58"
         style="fill:#ffffff"
         d="m 190.214,1708.05 c -1.24,-1.03 0.327,115.89 0.327,148.47" /><path
         id="path60"
         d="m 193.811,1708.88 c 0.368,-0.96 0.088,-2.04 -0.856,-2.83 -1.079,-0.89 -2.277,-1.02 -3.332,-0.89 -0.787,0.09 -1.747,0.37 -2.517,1.22 -0.173,0.19 -0.426,0.5 -0.592,1 -0.112,0.33 -0.273,1.58 -0.345,3.62 -0.651,18.49 0.618,116.18 0.618,145.52 0,1.61 1.682,2.92 3.754,2.92 2.072,0 3.755,-1.31 3.755,-2.92 0,-29.31 -1.271,-126.89 -0.621,-145.37 0.034,-0.95 0.103,-1.87 0.136,-2.27 z m -2.785,2.01 c -1.252,0.22 -2.613,-0.07 -3.552,-0.85 1.158,0.96 2.395,1.1 3.552,0.85 z" /><path
         id="path62"
         style="fill:#ffffff"
         d="m 190.926,1707.4 c 83.42,-0.57 162.93,-1.33 246.176,-1.33" /><path
         id="path64"
         d="m 190.959,1710.31 c 83.408,-0.56 162.908,-1.32 246.143,-1.32 2.072,0 3.754,-1.31 3.754,-2.92 0,-1.61 -1.682,-2.92 -3.754,-2.92 -83.257,0 -162.778,0.76 -246.208,1.33 -2.072,0.02 -3.74,1.33 -3.722,2.94 0.018,1.61 1.715,2.91 3.787,2.89 z" /><path
         id="path66"
         style="fill:#ffffff"
         d="m 436.895,1706.55 c -0.62,19.84 1.336,117.22 1.336,146.57" /><path
         id="path68"
         d="m 433.142,1706.47 c -0.62,19.86 1.335,117.29 1.335,146.65 0,1.62 1.682,2.92 3.754,2.92 2.072,0 3.754,-1.3 3.754,-2.92 0,-29.33 -1.956,-126.67 -1.337,-146.5 0.05,-1.61 -1.591,-2.95 -3.662,-2.99 -2.072,-0.04 -3.794,1.24 -3.844,2.84 z" /><g
         id="g74"
         transform="translate(1.23839,2.48673)"><path
           id="path70"
           style="fill:#ffffff"
           d="m 191.084,1854.4 c -2.518,0.04 241.846,-1.98 246.538,-1.98" /><path
           id="path72"
           d="m 191.088,1851.49 h -0.081 c -0.926,0.01 -1.369,0.22 -1.391,0.22 -0.13,0.05 -3.557,5.6 1.449,5.61 v 0 0 h 0.018 c 0.215,0 2.402,-0.01 6.204,-0.04 37.787,-0.3 236.113,-1.94 240.335,-1.94 2.072,0 3.754,-1.31 3.754,-2.92 0,-1.61 -1.682,-2.91 -3.754,-2.91 -4.224,0 -202.612,1.63 -240.411,1.93 -3.757,0.03 -6.13,0.05 -6.13,0.05 z m 1.345,5.64 c -0.395,0.12 -0.823,0.18 -1.271,0.19 0.694,-0.01 1.108,-0.14 1.271,-0.19 z m 0.78,-0.32 -0.04,0.02 0.013,-0.01 z m 0.972,-0.76 c -0.248,0.28 -0.559,0.53 -0.916,0.73 0.424,-0.23 0.713,-0.49 0.916,-0.73 z m -2.199,-4.48 c 0.96,0.19 1.777,0.66 2.287,1.3 -0.28,-0.4 -0.91,-1.05 -2.287,-1.3 z" /></g></g></g><g
     id="g104"
     transform="translate(1461.8982,1580.1529)"
     style="clip-rule:evenodd;fill-rule:evenodd;stroke-linecap:round;stroke-linejoin:round;stroke-miterlimit:1.5"><g
       id="g82"
       transform="matrix(1,0,0,1.15377,0,-256.31)"><path
         id="path80"
         style="fill:#009429;stroke:#000000;stroke-width:2.7px"
         d="m 348.166,1722.79 191.543,-2.45 -1.051,-53.16 -190.346,-0.3 z" /></g><g
       id="g102"
       transform="matrix(0.776868,0,0,1,200.127,-40.4722)"><path
         id="path84"
         style="fill:#ffffff"
         d="m 190.214,1708.05 c -1.24,-1.03 0.327,115.89 0.327,148.47" /><path
         id="path86"
         d="m 193.811,1708.88 c 0.368,-0.96 0.088,-2.04 -0.856,-2.83 -1.079,-0.89 -2.277,-1.02 -3.332,-0.89 -0.787,0.09 -1.747,0.37 -2.517,1.22 -0.173,0.19 -0.426,0.5 -0.592,1 -0.112,0.33 -0.273,1.58 -0.345,3.62 -0.651,18.49 0.618,116.18 0.618,145.52 0,1.61 1.682,2.92 3.754,2.92 2.072,0 3.755,-1.31 3.755,-2.92 0,-29.31 -1.271,-126.89 -0.621,-145.37 0.034,-0.95 0.103,-1.87 0.136,-2.27 z m -2.785,2.01 c -1.252,0.22 -2.613,-0.07 -3.552,-0.85 1.158,0.96 2.395,1.1 3.552,0.85 z" /><path
         id="path88"
         style="fill:#ffffff"
         d="m 190.926,1707.4 c 83.42,-0.57 162.93,-1.33 246.176,-1.33" /><path
         id="path90"
         d="m 190.959,1710.31 c 83.408,-0.56 162.908,-1.32 246.143,-1.32 2.072,0 3.754,-1.31 3.754,-2.92 0,-1.61 -1.682,-2.92 -3.754,-2.92 -83.257,0 -162.778,0.76 -246.208,1.33 -2.072,0.02 -3.74,1.33 -3.722,2.94 0.018,1.61 1.715,2.91 3.787,2.89 z" /><path
         id="path92"
         style="fill:#ffffff"
         d="m 436.895,1706.55 c -0.62,19.84 1.336,117.22 1.336,146.57" /><path
         id="path94"
         d="m 433.142,1706.47 c -0.62,19.86 1.335,117.29 1.335,146.65 0,1.62 1.682,2.92 3.754,2.92 2.072,0 3.754,-1.3 3.754,-2.92 0,-29.33 -1.956,-126.67 -1.337,-146.5 0.05,-1.61 -1.591,-2.95 -3.662,-2.99 -2.072,-0.04 -3.794,1.24 -3.844,2.84 z" /><g
         id="g100"
         transform="translate(1.23839,2.48673)"><path
           id="path96"
           style="fill:#ffffff"
           d="m 191.084,1854.4 c -2.518,0.04 241.846,-1.98 246.538,-1.98" /><path
           id="path98"
           d="m 191.088,1851.49 h -0.081 c -0.926,0.01 -1.369,0.22 -1.391,0.22 -0.13,0.05 -3.557,5.6 1.449,5.61 v 0 0 h 0.018 c 0.215,0 2.402,-0.01 6.204,-0.04 37.787,-0.3 236.113,-1.94 240.335,-1.94 2.072,0 3.754,-1.31 3.754,-2.92 0,-1.61 -1.682,-2.91 -3.754,-2.91 -4.224,0 -202.612,1.63 -240.411,1.93 -3.757,0.03 -6.13,0.05 -6.13,0.05 z m 1.345,5.64 c -0.395,0.12 -0.823,0.18 -1.271,0.19 0.694,-0.01 1.108,-0.14 1.271,-0.19 z m 0.78,-0.32 -0.04,0.02 0.013,-0.01 z m 0.972,-0.76 c -0.248,0.28 -0.559,0.53 -0.916,0.73 0.424,-0.23 0.713,-0.49 0.916,-0.73 z m -2.199,-4.48 c 0.96,0.19 1.777,0.66 2.287,1.3 -0.28,-0.4 -0.91,-1.05 -2.287,-1.3 z" /></g></g></g><g
     id="g130"
     transform="translate(1594.5522,1609.2409)"
     style="clip-rule:evenodd;fill-rule:evenodd;stroke-linecap:round;stroke-linejoin:round;stroke-miterlimit:1.5"><g
       id="g108"
       transform="matrix(1,0,0,1.05587,7.84923,185.008)"><path
         id="path106"
         style="fill:#0065b1;stroke:#000000;stroke-width:2.84px"
         d="m 348.166,1722.79 191.543,-2.45 -1.051,-53.16 -190.346,-0.3 z" /></g><g
       id="g128"
       transform="matrix(0.776868,0,0,1,208.055,146.9)"><path
         id="path110"
         style="fill:#ffffff"
         d="m 190.214,1708.05 c -1.24,-1.03 0.327,115.89 0.327,148.47" /><path
         id="path112"
         d="m 193.811,1708.88 c 0.368,-0.96 0.088,-2.04 -0.856,-2.83 -1.079,-0.89 -2.277,-1.02 -3.332,-0.89 -0.787,0.09 -1.747,0.37 -2.517,1.22 -0.173,0.19 -0.426,0.5 -0.592,1 -0.112,0.33 -0.273,1.58 -0.345,3.62 -0.651,18.49 0.618,116.18 0.618,145.52 0,1.61 1.682,2.92 3.754,2.92 2.072,0 3.755,-1.31 3.755,-2.92 0,-29.31 -1.271,-126.89 -0.621,-145.37 0.034,-0.95 0.103,-1.87 0.136,-2.27 z m -2.785,2.01 c -1.252,0.22 -2.613,-0.07 -3.552,-0.85 1.158,0.96 2.395,1.1 3.552,0.85 z" /><path
         id="path114"
         style="fill:#ffffff"
         d="m 190.926,1707.4 c 83.42,-0.57 162.93,-1.33 246.176,-1.33" /><path
         id="path116"
         d="m 190.959,1710.31 c 83.408,-0.56 162.908,-1.32 246.143,-1.32 2.072,0 3.754,-1.31 3.754,-2.92 0,-1.61 -1.682,-2.92 -3.754,-2.92 -83.257,0 -162.778,0.76 -246.208,1.33 -2.072,0.02 -3.74,1.33 -3.722,2.94 0.018,1.61 1.715,2.91 3.787,2.89 z" /><path
         id="path118"
         style="fill:#ffffff"
         d="m 436.895,1706.55 c -0.62,19.84 1.336,117.22 1.336,146.57" /><path
         id="path120"
         d="m 433.142,1706.47 c -0.62,19.86 1.335,117.29 1.335,146.65 0,1.62 1.682,2.92 3.754,2.92 2.072,0 3.754,-1.3 3.754,-2.92 0,-29.33 -1.956,-126.67 -1.337,-146.5 0.05,-1.61 -1.591,-2.95 -3.662,-2.99 -2.072,-0.04 -3.794,1.24 -3.844,2.84 z" /><g
         id="g126"
         transform="translate(1.23839,2.48673)"><path
           id="path122"
           style="fill:#ffffff"
           d="m 191.084,1854.4 c -2.518,0.04 241.846,-1.98 246.538,-1.98" /><path
           id="path124"
           d="m 191.088,1851.49 h -0.081 c -0.926,0.01 -1.369,0.22 -1.391,0.22 -0.13,0.05 -3.557,5.6 1.449,5.61 v 0 0 h 0.018 c 0.215,0 2.402,-0.01 6.204,-0.04 37.787,-0.3 236.113,-1.94 240.335,-1.94 2.072,0 3.754,-1.31 3.754,-2.92 0,-1.61 -1.682,-2.91 -3.754,-2.91 -4.224,0 -202.612,1.63 -240.411,1.93 -3.757,0.03 -6.13,0.05 -6.13,0.05 z m 1.345,5.64 c -0.395,0.12 -0.823,0.18 -1.271,0.19 0.694,-0.01 1.108,-0.14 1.271,-0.19 z m 0.78,-0.32 -0.04,0.02 0.013,-0.01 z m 0.972,-0.76 c -0.248,0.28 -0.559,0.53 -0.916,0.73 0.424,-0.23 0.713,-0.49 0.916,-0.73 z m -2.199,-4.48 c 0.96,0.19 1.777,0.66 2.287,1.3 -0.28,-0.4 -0.91,-1.05 -2.287,-1.3 z" /></g></g></g><g
     id="g156"
     transform="translate(1591.8762,1823.7289)"
     style="clip-rule:evenodd;fill-rule:evenodd;stroke-linecap:round;stroke-linejoin:round;stroke-miterlimit:1.5"><g
       id="g134"
       transform="matrix(1,0,0,1.05587,7.84923,185.008)"><path
         id="path132"
         style="fill:#0065b1;stroke:#000000;stroke-width:2.84px"
         d="m 348.166,1722.79 191.543,-2.45 -1.051,-53.16 -190.346,-0.3 z" /></g><g
       id="g154"
       transform="matrix(0.776868,0,0,1,208.055,146.9)"><path
         id="path136"
         style="fill:#ffffff"
         d="m 190.214,1708.05 c -1.24,-1.03 0.327,115.89 0.327,148.47" /><path
         id="path138"
         d="m 193.811,1708.88 c 0.368,-0.96 0.088,-2.04 -0.856,-2.83 -1.079,-0.89 -2.277,-1.02 -3.332,-0.89 -0.787,0.09 -1.747,0.37 -2.517,1.22 -0.173,0.19 -0.426,0.5 -0.592,1 -0.112,0.33 -0.273,1.58 -0.345,3.62 -0.651,18.49 0.618,116.18 0.618,145.52 0,1.61 1.682,2.92 3.754,2.92 2.072,0 3.755,-1.31 3.755,-2.92 0,-29.31 -1.271,-126.89 -0.621,-145.37 0.034,-0.95 0.103,-1.87 0.136,-2.27 z m -2.785,2.01 c -1.252,0.22 -2.613,-0.07 -3.552,-0.85 1.158,0.96 2.395,1.1 3.552,0.85 z" /><path
         id="path140"
         style="fill:#ffffff"
         d="m 190.926,1707.4 c 83.42,-0.57 162.93,-1.33 246.176,-1.33" /><path
         id="path142"
         d="m 190.959,1710.31 c 83.408,-0.56 162.908,-1.32 246.143,-1.32 2.072,0 3.754,-1.31 3.754,-2.92 0,-1.61 -1.682,-2.92 -3.754,-2.92 -83.257,0 -162.778,0.76 -246.208,1.33 -2.072,0.02 -3.74,1.33 -3.722,2.94 0.018,1.61 1.715,2.91 3.787,2.89 z" /><path
         id="path144"
         style="fill:#ffffff"
         d="m 436.895,1706.55 c -0.62,19.84 1.336,117.22 1.336,146.57" /><path
         id="path146"
         d="m 433.142,1706.47 c -0.62,19.86 1.335,117.29 1.335,146.65 0,1.62 1.682,2.92 3.754,2.92 2.072,0 3.754,-1.3 3.754,-2.92 0,-29.33 -1.956,-126.67 -1.337,-146.5 0.05,-1.61 -1.591,-2.95 -3.662,-2.99 -2.072,-0.04 -3.794,1.24 -3.844,2.84 z" /><g
         id="g152"
         transform="translate(1.23839,2.48673)"><path
           id="path148"
           style="fill:#ffffff"
           d="m 191.084,1854.4 c -2.518,0.04 241.846,-1.98 246.538,-1.98" /><path
           id="path150"
           d="m 191.088,1851.49 h -0.081 c -0.926,0.01 -1.369,0.22 -1.391,0.22 -0.13,0.05 -3.557,5.6 1.449,5.61 v 0 0 h 0.018 c 0.215,0 2.402,-0.01 6.204,-0.04 37.787,-0.3 236.113,-1.94 240.335,-1.94 2.072,0 3.754,-1.31 3.754,-2.92 0,-1.61 -1.682,-2.91 -3.754,-2.91 -4.224,0 -202.612,1.63 -240.411,1.93 -3.757,0.03 -6.13,0.05 -6.13,0.05 z m 1.345,5.64 c -0.395,0.12 -0.823,0.18 -1.271,0.19 0.694,-0.01 1.108,-0.14 1.271,-0.19 z m 0.78,-0.32 -0.04,0.02 0.013,-0.01 z m 0.972,-0.76 c -0.248,0.28 -0.559,0.53 -0.916,0.73 0.424,-0.23 0.713,-0.49 0.916,-0.73 z m -2.199,-4.48 c 0.96,0.19 1.777,0.66 2.287,1.3 -0.28,-0.4 -0.91,-1.05 -2.287,-1.3 z" /></g></g></g><g
     id="g182"
     transform="translate(1840.2472,1622.7589)"
     style="clip-rule:evenodd;fill-rule:evenodd;stroke-linecap:round;stroke-linejoin:round;stroke-miterlimit:1.5"><g
       id="g160"
       transform="matrix(1,0,0,1.05587,7.84923,185.008)"><path
         id="path158"
         style="fill:#0065b1;stroke:#000000;stroke-width:2.84px"
         d="m 348.166,1722.79 191.543,-2.45 -1.051,-53.16 -190.346,-0.3 z" /></g><g
       id="g180"
       transform="matrix(0.776868,0,0,1,208.055,146.9)"><path
         id="path162"
         style="fill:#ffffff"
         d="m 190.214,1708.05 c -1.24,-1.03 0.327,115.89 0.327,148.47" /><path
         id="path164"
         d="m 193.811,1708.88 c 0.368,-0.96 0.088,-2.04 -0.856,-2.83 -1.079,-0.89 -2.277,-1.02 -3.332,-0.89 -0.787,0.09 -1.747,0.37 -2.517,1.22 -0.173,0.19 -0.426,0.5 -0.592,1 -0.112,0.33 -0.273,1.58 -0.345,3.62 -0.651,18.49 0.618,116.18 0.618,145.52 0,1.61 1.682,2.92 3.754,2.92 2.072,0 3.755,-1.31 3.755,-2.92 0,-29.31 -1.271,-126.89 -0.621,-145.37 0.034,-0.95 0.103,-1.87 0.136,-2.27 z m -2.785,2.01 c -1.252,0.22 -2.613,-0.07 -3.552,-0.85 1.158,0.96 2.395,1.1 3.552,0.85 z" /><path
         id="path166"
         style="fill:#ffffff"
         d="m 190.926,1707.4 c 83.42,-0.57 162.93,-1.33 246.176,-1.33" /><path
         id="path168"
         d="m 190.959,1710.31 c 83.408,-0.56 162.908,-1.32 246.143,-1.32 2.072,0 3.754,-1.31 3.754,-2.92 0,-1.61 -1.682,-2.92 -3.754,-2.92 -83.257,0 -162.778,0.76 -246.208,1.33 -2.072,0.02 -3.74,1.33 -3.722,2.94 0.018,1.61 1.715,2.91 3.787,2.89 z" /><path
         id="path170"
         style="fill:#ffffff"
         d="m 436.895,1706.55 c -0.62,19.84 1.336,117.22 1.336,146.57" /><path
         id="path172"
         d="m 433.142,1706.47 c -0.62,19.86 1.335,117.29 1.335,146.65 0,1.62 1.682,2.92 3.754,2.92 2.072,0 3.754,-1.3 3.754,-2.92 0,-29.33 -1.956,-126.67 -1.337,-146.5 0.05,-1.61 -1.591,-2.95 -3.662,-2.99 -2.072,-0.04 -3.794,1.24 -3.844,2.84 z" /><g
         id="g178"
         transform="translate(1.23839,2.48673)"><path
           id="path174"
           style="fill:#ffffff"
           d="m 191.084,1854.4 c -2.518,0.04 241.846,-1.98 246.538,-1.98" /><path
           id="path176"
           d="m 191.088,1851.49 h -0.081 c -0.926,0.01 -1.369,0.22 -1.391,0.22 -0.13,0.05 -3.557,5.6 1.449,5.61 v 0 0 h 0.018 c 0.215,0 2.402,-0.01 6.204,-0.04 37.787,-0.3 236.113,-1.94 240.335,-1.94 2.072,0 3.754,-1.31 3.754,-2.92 0,-1.61 -1.682,-2.91 -3.754,-2.91 -4.224,0 -202.612,1.63 -240.411,1.93 -3.757,0.03 -6.13,0.05 -6.13,0.05 z m 1.345,5.64 c -0.395,0.12 -0.823,0.18 -1.271,0.19 0.694,-0.01 1.108,-0.14 1.271,-0.19 z m 0.78,-0.32 -0.04,0.02 0.013,-0.01 z m 0.972,-0.76 c -0.248,0.28 -0.559,0.53 -0.916,0.73 0.424,-0.23 0.713,-0.49 0.916,-0.73 z m -2.199,-4.48 c 0.96,0.19 1.777,0.66 2.287,1.3 -0.28,-0.4 -0.91,-1.05 -2.287,-1.3 z" /></g></g></g><g
     id="g208"
     transform="translate(1475.9482,1582.8069)"
     style="clip-rule:evenodd;fill-rule:evenodd;stroke-linecap:round;stroke-linejoin:round;stroke-miterlimit:1.5"><g
       id="g202"
       transform="matrix(0.776868,0,0,1,443.157,-42.8761)"><path
         id="path184"
         style="fill:#ffffff"
         d="m 190.214,1708.05 c -1.24,-1.03 0.327,115.89 0.327,148.47" /><path
         id="path186"
         d="m 193.811,1708.88 c 0.368,-0.96 0.088,-2.04 -0.856,-2.83 -1.079,-0.89 -2.277,-1.02 -3.332,-0.89 -0.787,0.09 -1.747,0.37 -2.517,1.22 -0.173,0.19 -0.426,0.5 -0.592,1 -0.112,0.33 -0.273,1.58 -0.345,3.62 -0.651,18.49 0.618,116.18 0.618,145.52 0,1.61 1.682,2.92 3.754,2.92 2.072,0 3.755,-1.31 3.755,-2.92 0,-29.31 -1.271,-126.89 -0.621,-145.37 0.034,-0.95 0.103,-1.87 0.136,-2.27 z m -2.785,2.01 c -1.252,0.22 -2.613,-0.07 -3.552,-0.85 1.158,0.96 2.395,1.1 3.552,0.85 z" /><path
         id="path188"
         style="fill:#ffffff"
         d="m 190.926,1707.4 c 83.42,-0.57 162.93,-1.33 246.176,-1.33" /><path
         id="path190"
         d="m 190.959,1710.31 c 83.408,-0.56 162.908,-1.32 246.143,-1.32 2.072,0 3.754,-1.31 3.754,-2.92 0,-1.61 -1.682,-2.92 -3.754,-2.92 -83.257,0 -162.778,0.76 -246.208,1.33 -2.072,0.02 -3.74,1.33 -3.722,2.94 0.018,1.61 1.715,2.91 3.787,2.89 z" /><path
         id="path192"
         style="fill:#ffffff"
         d="m 436.895,1706.55 c -0.62,19.84 1.336,117.22 1.336,146.57" /><path
         id="path194"
         d="m 433.142,1706.47 c -0.62,19.86 1.335,117.29 1.335,146.65 0,1.62 1.682,2.92 3.754,2.92 2.072,0 3.754,-1.3 3.754,-2.92 0,-29.33 -1.956,-126.67 -1.337,-146.5 0.05,-1.61 -1.591,-2.95 -3.662,-2.99 -2.072,-0.04 -3.794,1.24 -3.844,2.84 z" /><g
         id="g200"
         transform="translate(1.23839,2.48673)"><path
           id="path196"
           style="fill:#ffffff"
           d="m 191.084,1854.4 c -2.518,0.04 241.846,-1.98 246.538,-1.98" /><path
           id="path198"
           d="m 191.088,1851.49 h -0.081 c -0.926,0.01 -1.369,0.22 -1.391,0.22 -0.13,0.05 -3.557,5.6 1.449,5.61 v 0 0 h 0.018 c 0.215,0 2.402,-0.01 6.204,-0.04 37.787,-0.3 236.113,-1.94 240.335,-1.94 2.072,0 3.754,-1.31 3.754,-2.92 0,-1.61 -1.682,-2.91 -3.754,-2.91 -4.224,0 -202.612,1.63 -240.411,1.93 -3.757,0.03 -6.13,0.05 -6.13,0.05 z m 1.345,5.64 c -0.395,0.12 -0.823,0.18 -1.271,0.19 0.694,-0.01 1.108,-0.14 1.271,-0.19 z m 0.78,-0.32 -0.04,0.02 0.013,-0.01 z m 0.972,-0.76 c -0.248,0.28 -0.559,0.53 -0.916,0.73 0.424,-0.23 0.713,-0.49 0.916,-0.73 z m -2.199,-4.48 c 0.96,0.19 1.777,0.66 2.287,1.3 -0.28,-0.4 -0.91,-1.05 -2.287,-1.3 z" /></g></g><g
       id="g206"
       transform="translate(8.11942,0.769745)"><path
         id="path204"
         style="fill:#1a1719;stroke:#000000;stroke-width:2.92px"
         d="m 670.025,1721.13 10.197,-21.2 9.776,20.8 24.99,0.09 -17.063,18.81 c 0.726,3.25 5.615,20.93 6.8,24.16 l -23.658,-11.11 -24.506,10.97 6.789,-23.8 -17.302,-18.34 z" /></g></g><g
     id="g234"
     transform="translate(1571.2382,1393.1889)"
     style="clip-rule:evenodd;fill-rule:evenodd;stroke-linecap:round;stroke-linejoin:round;stroke-miterlimit:1.5"><g
       id="g228"
       transform="matrix(0.776868,0,0,1,443.157,-42.8761)"><path
         id="path210"
         style="fill:#ffffff"
         d="m 190.214,1708.05 c -1.24,-1.03 0.327,115.89 0.327,148.47" /><path
         id="path212"
         d="m 193.811,1708.88 c 0.368,-0.96 0.088,-2.04 -0.856,-2.83 -1.079,-0.89 -2.277,-1.02 -3.332,-0.89 -0.787,0.09 -1.747,0.37 -2.517,1.22 -0.173,0.19 -0.426,0.5 -0.592,1 -0.112,0.33 -0.273,1.58 -0.345,3.62 -0.651,18.49 0.618,116.18 0.618,145.52 0,1.61 1.682,2.92 3.754,2.92 2.072,0 3.755,-1.31 3.755,-2.92 0,-29.31 -1.271,-126.89 -0.621,-145.37 0.034,-0.95 0.103,-1.87 0.136,-2.27 z m -2.785,2.01 c -1.252,0.22 -2.613,-0.07 -3.552,-0.85 1.158,0.96 2.395,1.1 3.552,0.85 z" /><path
         id="path214"
         style="fill:#ffffff"
         d="m 190.926,1707.4 c 83.42,-0.57 162.93,-1.33 246.176,-1.33" /><path
         id="path216"
         d="m 190.959,1710.31 c 83.408,-0.56 162.908,-1.32 246.143,-1.32 2.072,0 3.754,-1.31 3.754,-2.92 0,-1.61 -1.682,-2.92 -3.754,-2.92 -83.257,0 -162.778,0.76 -246.208,1.33 -2.072,0.02 -3.74,1.33 -3.722,2.94 0.018,1.61 1.715,2.91 3.787,2.89 z" /><path
         id="path218"
         style="fill:#ffffff"
         d="m 436.895,1706.55 c -0.62,19.84 1.336,117.22 1.336,146.57" /><path
         id="path220"
         d="m 433.142,1706.47 c -0.62,19.86 1.335,117.29 1.335,146.65 0,1.62 1.682,2.92 3.754,2.92 2.072,0 3.754,-1.3 3.754,-2.92 0,-29.33 -1.956,-126.67 -1.337,-146.5 0.05,-1.61 -1.591,-2.95 -3.662,-2.99 -2.072,-0.04 -3.794,1.24 -3.844,2.84 z" /><g
         id="g226"
         transform="translate(1.23839,2.48673)"><path
           id="path222"
           style="fill:#ffffff"
           d="m 191.084,1854.4 c -2.518,0.04 241.846,-1.98 246.538,-1.98" /><path
           id="path224"
           d="m 191.088,1851.49 h -0.081 c -0.926,0.01 -1.369,0.22 -1.391,0.22 -0.13,0.05 -3.557,5.6 1.449,5.61 v 0 0 h 0.018 c 0.215,0 2.402,-0.01 6.204,-0.04 37.787,-0.3 236.113,-1.94 240.335,-1.94 2.072,0 3.754,-1.31 3.754,-2.92 0,-1.61 -1.682,-2.91 -3.754,-2.91 -4.224,0 -202.612,1.63 -240.411,1.93 -3.757,0.03 -6.13,0.05 -6.13,0.05 z m 1.345,5.64 c -0.395,0.12 -0.823,0.18 -1.271,0.19 0.694,-0.01 1.108,-0.14 1.271,-0.19 z m 0.78,-0.32 -0.04,0.02 0.013,-0.01 z m 0.972,-0.76 c -0.248,0.28 -0.559,0.53 -0.916,0.73 0.424,-0.23 0.713,-0.49 0.916,-0.73 z m -2.199,-4.48 c 0.96,0.19 1.777,0.66 2.287,1.3 -0.28,-0.4 -0.91,-1.05 -2.287,-1.3 z" /></g></g><g
       id="g232"
       transform="translate(8.11942,0.769745)"><path
         id="path230"
         style="fill:#1a1719;stroke:#000000;stroke-width:2.92px"
         d="m 670.025,1721.13 10.197,-21.2 9.776,20.8 24.99,0.09 -17.063,18.81 c 0.726,3.25 5.615,20.93 6.8,24.16 l -23.658,-11.11 -24.506,10.97 6.789,-23.8 -17.302,-18.34 z" /></g></g><g
     id="g260"
     transform="translate(1710.3202,1600.2729)"
     style="clip-rule:evenodd;fill-rule:evenodd;stroke-linecap:round;stroke-linejoin:round;stroke-miterlimit:1.5"><g
       id="g254"
       transform="matrix(0.776868,0,0,1,443.157,-42.8761)"><path
         id="path236"
         style="fill:#ffffff"
         d="m 190.214,1708.05 c -1.24,-1.03 0.327,115.89 0.327,148.47" /><path
         id="path238"
         d="m 193.811,1708.88 c 0.368,-0.96 0.088,-2.04 -0.856,-2.83 -1.079,-0.89 -2.277,-1.02 -3.332,-0.89 -0.787,0.09 -1.747,0.37 -2.517,1.22 -0.173,0.19 -0.426,0.5 -0.592,1 -0.112,0.33 -0.273,1.58 -0.345,3.62 -0.651,18.49 0.618,116.18 0.618,145.52 0,1.61 1.682,2.92 3.754,2.92 2.072,0 3.755,-1.31 3.755,-2.92 0,-29.31 -1.271,-126.89 -0.621,-145.37 0.034,-0.95 0.103,-1.87 0.136,-2.27 z m -2.785,2.01 c -1.252,0.22 -2.613,-0.07 -3.552,-0.85 1.158,0.96 2.395,1.1 3.552,0.85 z" /><path
         id="path240"
         style="fill:#ffffff"
         d="m 190.926,1707.4 c 83.42,-0.57 162.93,-1.33 246.176,-1.33" /><path
         id="path242"
         d="m 190.959,1710.31 c 83.408,-0.56 162.908,-1.32 246.143,-1.32 2.072,0 3.754,-1.31 3.754,-2.92 0,-1.61 -1.682,-2.92 -3.754,-2.92 -83.257,0 -162.778,0.76 -246.208,1.33 -2.072,0.02 -3.74,1.33 -3.722,2.94 0.018,1.61 1.715,2.91 3.787,2.89 z" /><path
         id="path244"
         style="fill:#ffffff"
         d="m 436.895,1706.55 c -0.62,19.84 1.336,117.22 1.336,146.57" /><path
         id="path246"
         d="m 433.142,1706.47 c -0.62,19.86 1.335,117.29 1.335,146.65 0,1.62 1.682,2.92 3.754,2.92 2.072,0 3.754,-1.3 3.754,-2.92 0,-29.33 -1.956,-126.67 -1.337,-146.5 0.05,-1.61 -1.591,-2.95 -3.662,-2.99 -2.072,-0.04 -3.794,1.24 -3.844,2.84 z" /><g
         id="g252"
         transform="translate(1.23839,2.48673)"><path
           id="path248"
           style="fill:#ffffff"
           d="m 191.084,1854.4 c -2.518,0.04 241.846,-1.98 246.538,-1.98" /><path
           id="path250"
           d="m 191.088,1851.49 h -0.081 c -0.926,0.01 -1.369,0.22 -1.391,0.22 -0.13,0.05 -3.557,5.6 1.449,5.61 v 0 0 h 0.018 c 0.215,0 2.402,-0.01 6.204,-0.04 37.787,-0.3 236.113,-1.94 240.335,-1.94 2.072,0 3.754,-1.31 3.754,-2.92 0,-1.61 -1.682,-2.91 -3.754,-2.91 -4.224,0 -202.612,1.63 -240.411,1.93 -3.757,0.03 -6.13,0.05 -6.13,0.05 z m 1.345,5.64 c -0.395,0.12 -0.823,0.18 -1.271,0.19 0.694,-0.01 1.108,-0.14 1.271,-0.19 z m 0.78,-0.32 -0.04,0.02 0.013,-0.01 z m 0.972,-0.76 c -0.248,0.28 -0.559,0.53 -0.916,0.73 0.424,-0.23 0.713,-0.49 0.916,-0.73 z m -2.199,-4.48 c 0.96,0.19 1.777,0.66 2.287,1.3 -0.28,-0.4 -0.91,-1.05 -2.287,-1.3 z" /></g></g><g
       id="g258"
       transform="translate(8.11942,0.769745)"><path
         id="path256"
         style="fill:#1a1719;stroke:#000000;stroke-width:2.92px"
         d="m 670.025,1721.13 10.197,-21.2 9.776,20.8 24.99,0.09 -17.063,18.81 c 0.726,3.25 5.615,20.93 6.8,24.16 l -23.658,-11.11 -24.506,10.97 6.789,-23.8 -17.302,-18.34 z" /></g></g><g
     id="g286"
     transform="translate(1803.8512,1411.2609)"
     style="clip-rule:evenodd;fill-rule:evenodd;stroke-linecap:round;stroke-linejoin:round;stroke-miterlimit:1.5"><g
       id="g280"
       transform="matrix(0.776868,0,0,1,443.157,-42.8761)"><path
         id="path262"
         style="fill:#ffffff"
         d="m 190.214,1708.05 c -1.24,-1.03 0.327,115.89 0.327,148.47" /><path
         id="path264"
         d="m 193.811,1708.88 c 0.368,-0.96 0.088,-2.04 -0.856,-2.83 -1.079,-0.89 -2.277,-1.02 -3.332,-0.89 -0.787,0.09 -1.747,0.37 -2.517,1.22 -0.173,0.19 -0.426,0.5 -0.592,1 -0.112,0.33 -0.273,1.58 -0.345,3.62 -0.651,18.49 0.618,116.18 0.618,145.52 0,1.61 1.682,2.92 3.754,2.92 2.072,0 3.755,-1.31 3.755,-2.92 0,-29.31 -1.271,-126.89 -0.621,-145.37 0.034,-0.95 0.103,-1.87 0.136,-2.27 z m -2.785,2.01 c -1.252,0.22 -2.613,-0.07 -3.552,-0.85 1.158,0.96 2.395,1.1 3.552,0.85 z" /><path
         id="path266"
         style="fill:#ffffff"
         d="m 190.926,1707.4 c 83.42,-0.57 162.93,-1.33 246.176,-1.33" /><path
         id="path268"
         d="m 190.959,1710.31 c 83.408,-0.56 162.908,-1.32 246.143,-1.32 2.072,0 3.754,-1.31 3.754,-2.92 0,-1.61 -1.682,-2.92 -3.754,-2.92 -83.257,0 -162.778,0.76 -246.208,1.33 -2.072,0.02 -3.74,1.33 -3.722,2.94 0.018,1.61 1.715,2.91 3.787,2.89 z" /><path
         id="path270"
         style="fill:#ffffff"
         d="m 436.895,1706.55 c -0.62,19.84 1.336,117.22 1.336,146.57" /><path
         id="path272"
         d="m 433.142,1706.47 c -0.62,19.86 1.335,117.29 1.335,146.65 0,1.62 1.682,2.92 3.754,2.92 2.072,0 3.754,-1.3 3.754,-2.92 0,-29.33 -1.956,-126.67 -1.337,-146.5 0.05,-1.61 -1.591,-2.95 -3.662,-2.99 -2.072,-0.04 -3.794,1.24 -3.844,2.84 z" /><g
         id="g278"
         transform="translate(1.23839,2.48673)"><path
           id="path274"
           style="fill:#ffffff"
           d="m 191.084,1854.4 c -2.518,0.04 241.846,-1.98 246.538,-1.98" /><path
           id="path276"
           d="m 191.088,1851.49 h -0.081 c -0.926,0.01 -1.369,0.22 -1.391,0.22 -0.13,0.05 -3.557,5.6 1.449,5.61 v 0 0 h 0.018 c 0.215,0 2.402,-0.01 6.204,-0.04 37.787,-0.3 236.113,-1.94 240.335,-1.94 2.072,0 3.754,-1.31 3.754,-2.92 0,-1.61 -1.682,-2.91 -3.754,-2.91 -4.224,0 -202.612,1.63 -240.411,1.93 -3.757,0.03 -6.13,0.05 -6.13,0.05 z m 1.345,5.64 c -0.395,0.12 -0.823,0.18 -1.271,0.19 0.694,-0.01 1.108,-0.14 1.271,-0.19 z m 0.78,-0.32 -0.04,0.02 0.013,-0.01 z m 0.972,-0.76 c -0.248,0.28 -0.559,0.53 -0.916,0.73 0.424,-0.23 0.713,-0.49 0.916,-0.73 z m -2.199,-4.48 c 0.96,0.19 1.777,0.66 2.287,1.3 -0.28,-0.4 -0.91,-1.05 -2.287,-1.3 z" /></g></g><g
       id="g284"
       transform="translate(8.11942,0.769745)"><path
         id="path282"
         style="fill:#1a1719;stroke:#000000;stroke-width:2.92px"
         d="m 670.025,1721.13 10.197,-21.2 9.776,20.8 24.99,0.09 -17.063,18.81 c 0.726,3.25 5.615,20.93 6.8,24.16 l -23.658,-11.11 -24.506,10.97 6.789,-23.8 -17.302,-18.34 z" /></g></g><g
     id="g312"
     transform="translate(1339.3434,1379.8929)"
     style="clip-rule:evenodd;fill-rule:evenodd;stroke-linecap:round;stroke-linejoin:round;stroke-miterlimit:1.5"><g
       id="g306"
       transform="matrix(0.776868,0,0,1,443.157,-42.8761)"><path
         id="path288"
         style="fill:#ffffff"
         d="m 190.214,1708.05 c -1.24,-1.03 0.327,115.89 0.327,148.47" /><path
         id="path290"
         d="m 193.811,1708.88 c 0.368,-0.96 0.088,-2.04 -0.856,-2.83 -1.079,-0.89 -2.277,-1.02 -3.332,-0.89 -0.787,0.09 -1.747,0.37 -2.517,1.22 -0.173,0.19 -0.426,0.5 -0.592,1 -0.112,0.33 -0.273,1.58 -0.345,3.62 -0.651,18.49 0.618,116.18 0.618,145.52 0,1.61 1.682,2.92 3.754,2.92 2.072,0 3.755,-1.31 3.755,-2.92 0,-29.31 -1.271,-126.89 -0.621,-145.37 0.034,-0.95 0.103,-1.87 0.136,-2.27 z m -2.785,2.01 c -1.252,0.22 -2.613,-0.07 -3.552,-0.85 1.158,0.96 2.395,1.1 3.552,0.85 z" /><path
         id="path292"
         style="fill:#ffffff"
         d="m 190.926,1707.4 c 83.42,-0.57 162.93,-1.33 246.176,-1.33" /><path
         id="path294"
         d="m 190.959,1710.31 c 83.408,-0.56 162.908,-1.32 246.143,-1.32 2.072,0 3.754,-1.31 3.754,-2.92 0,-1.61 -1.682,-2.92 -3.754,-2.92 -83.257,0 -162.778,0.76 -246.208,1.33 -2.072,0.02 -3.74,1.33 -3.722,2.94 0.018,1.61 1.715,2.91 3.787,2.89 z" /><path
         id="path296"
         style="fill:#ffffff"
         d="m 436.895,1706.55 c -0.62,19.84 1.336,117.22 1.336,146.57" /><path
         id="path298"
         d="m 433.142,1706.47 c -0.62,19.86 1.335,117.29 1.335,146.65 0,1.62 1.682,2.92 3.754,2.92 2.072,0 3.754,-1.3 3.754,-2.92 0,-29.33 -1.956,-126.67 -1.337,-146.5 0.05,-1.61 -1.591,-2.95 -3.662,-2.99 -2.072,-0.04 -3.794,1.24 -3.844,2.84 z" /><g
         id="g304"
         transform="translate(1.23839,2.48673)"><path
           id="path300"
           style="fill:#ffffff"
           d="m 191.084,1854.4 c -2.518,0.04 241.846,-1.98 246.538,-1.98" /><path
           id="path302"
           d="m 191.088,1851.49 h -0.081 c -0.926,0.01 -1.369,0.22 -1.391,0.22 -0.13,0.05 -3.557,5.6 1.449,5.61 v 0 0 h 0.018 c 0.215,0 2.402,-0.01 6.204,-0.04 37.787,-0.3 236.113,-1.94 240.335,-1.94 2.072,0 3.754,-1.31 3.754,-2.92 0,-1.61 -1.682,-2.91 -3.754,-2.91 -4.224,0 -202.612,1.63 -240.411,1.93 -3.757,0.03 -6.13,0.05 -6.13,0.05 z m 1.345,5.64 c -0.395,0.12 -0.823,0.18 -1.271,0.19 0.694,-0.01 1.108,-0.14 1.271,-0.19 z m 0.78,-0.32 -0.04,0.02 0.013,-0.01 z m 0.972,-0.76 c -0.248,0.28 -0.559,0.53 -0.916,0.73 0.424,-0.23 0.713,-0.49 0.916,-0.73 z m -2.199,-4.48 c 0.96,0.19 1.777,0.66 2.287,1.3 -0.28,-0.4 -0.91,-1.05 -2.287,-1.3 z" /></g></g><g
       id="g310"
       transform="translate(8.11942,0.769745)"><path
         id="path308"
         style="fill:#1a1719;stroke:#000000;stroke-width:2.92px"
         d="m 670.025,1721.13 10.197,-21.2 9.776,20.8 24.99,0.09 -17.063,18.81 c 0.726,3.25 5.615,20.93 6.8,24.16 l -23.658,-11.11 -24.506,10.97 6.789,-23.8 -17.302,-18.34 z" /></g></g><g
     id="g344"
     transform="translate(1067.5332,2164.6519)"
     style="clip-rule:evenodd;fill-rule:evenodd;stroke-linecap:round;stroke-linejoin:round;stroke-miterlimit:1.5"><g
       id="g338"
       transform="translate(261.001,-533.065)"><g
         id="g316"
         transform="matrix(0.857919,0,0,1,17.4524,0)"><path
           id="path314"
           style="fill:#e30011;stroke:#000000;stroke-width:3.13px"
           d="m 122.835,1859.6 c -0.256,-0.28 129.055,69.15 129.055,70.02 0,2.03 -111.159,70.96 -127.417,78.7 -1.049,0.5 -1.638,-149.99 -1.638,-148.72 z" /></g><g
         id="g336"
         transform="matrix(0.776868,0,0,1,-25.7254,151.714)"><path
           id="path318"
           style="fill:#ffffff"
           d="m 190.214,1708.05 c -1.24,-1.03 0.327,115.89 0.327,148.47" /><path
           id="path320"
           d="m 193.811,1708.88 c 0.368,-0.96 0.088,-2.04 -0.856,-2.83 -1.079,-0.89 -2.277,-1.02 -3.332,-0.89 -0.787,0.09 -1.747,0.37 -2.517,1.22 -0.173,0.19 -0.426,0.5 -0.592,1 -0.112,0.33 -0.273,1.58 -0.345,3.62 -0.651,18.49 0.618,116.18 0.618,145.52 0,1.61 1.682,2.92 3.754,2.92 2.072,0 3.755,-1.31 3.755,-2.92 0,-29.31 -1.271,-126.89 -0.621,-145.37 0.034,-0.95 0.103,-1.87 0.136,-2.27 z m -2.785,2.01 c -1.252,0.22 -2.613,-0.07 -3.552,-0.85 1.158,0.96 2.395,1.1 3.552,0.85 z" /><path
           id="path322"
           style="fill:#ffffff"
           d="m 190.926,1707.4 c 83.42,-0.57 162.93,-1.33 246.176,-1.33" /><path
           id="path324"
           d="m 190.959,1710.31 c 83.408,-0.56 162.908,-1.32 246.143,-1.32 2.072,0 3.754,-1.31 3.754,-2.92 0,-1.61 -1.682,-2.92 -3.754,-2.92 -83.257,0 -162.778,0.76 -246.208,1.33 -2.072,0.02 -3.74,1.33 -3.722,2.94 0.018,1.61 1.715,2.91 3.787,2.89 z" /><path
           id="path326"
           style="fill:#ffffff"
           d="m 436.895,1706.55 c -0.62,19.84 1.336,117.22 1.336,146.57" /><path
           id="path328"
           d="m 433.142,1706.47 c -0.62,19.86 1.335,117.29 1.335,146.65 0,1.62 1.682,2.92 3.754,2.92 2.072,0 3.754,-1.3 3.754,-2.92 0,-29.33 -1.956,-126.67 -1.337,-146.5 0.05,-1.61 -1.591,-2.95 -3.662,-2.99 -2.072,-0.04 -3.794,1.24 -3.844,2.84 z" /><g
           id="g334"
           transform="translate(1.23839,2.48673)"><path
             id="path330"
             style="fill:#ffffff"
             d="m 191.084,1854.4 c -2.518,0.04 241.846,-1.98 246.538,-1.98" /><path
             id="path332"
             d="m 191.088,1851.49 h -0.081 c -0.926,0.01 -1.369,0.22 -1.391,0.22 -0.13,0.05 -3.557,5.6 1.449,5.61 v 0 0 h 0.018 c 0.215,0 2.402,-0.01 6.204,-0.04 37.787,-0.3 236.113,-1.94 240.335,-1.94 2.072,0 3.754,-1.31 3.754,-2.92 0,-1.61 -1.682,-2.91 -3.754,-2.91 -4.224,0 -202.612,1.63 -240.411,1.93 -3.757,0.03 -6.13,0.05 -6.13,0.05 z m 1.345,5.64 c -0.395,0.12 -0.823,0.18 -1.271,0.19 0.694,-0.01 1.108,-0.14 1.271,-0.19 z m 0.78,-0.32 -0.04,0.02 0.013,-0.01 z m 0.972,-0.76 c -0.248,0.28 -0.559,0.53 -0.916,0.73 0.424,-0.23 0.713,-0.49 0.916,-0.73 z m -2.199,-4.48 c 0.96,0.19 1.777,0.66 2.287,1.3 -0.28,-0.4 -0.91,-1.05 -2.287,-1.3 z" /></g></g></g><g
       id="g342"
       transform="matrix(0.793577,0,0,0.80296,180.328,-30.6649)"><path
         id="path340"
         style="fill:#ffcd00;stroke:#000000;stroke-width:3.65px"
         d="m 343.664,1800.26 c 7.979,-16.84 8.015,-60.32 -42.408,-54.17 -37.6,4.59 -41.859,54.48 -9.833,71.36 19.232,10.13 44.11,-0.04 52.241,-17.19 z" /></g></g><g
     id="g376"
     transform="translate(1303.1809,2344.1119)"
     style="clip-rule:evenodd;fill-rule:evenodd;stroke-linecap:round;stroke-linejoin:round;stroke-miterlimit:1.5"><g
       id="g370"
       transform="translate(261.001,-533.065)"><g
         id="g348"
         transform="matrix(0.857919,0,0,1,17.4524,0)"><path
           id="path346"
           style="fill:#e30011;stroke:#000000;stroke-width:3.13px"
           d="m 122.835,1859.6 c -0.256,-0.28 129.055,69.15 129.055,70.02 0,2.03 -111.159,70.96 -127.417,78.7 -1.049,0.5 -1.638,-149.99 -1.638,-148.72 z" /></g><g
         id="g368"
         transform="matrix(0.776868,0,0,1,-25.7254,151.714)"><path
           id="path350"
           style="fill:#ffffff"
           d="m 190.214,1708.05 c -1.24,-1.03 0.327,115.89 0.327,148.47" /><path
           id="path352"
           d="m 193.811,1708.88 c 0.368,-0.96 0.088,-2.04 -0.856,-2.83 -1.079,-0.89 -2.277,-1.02 -3.332,-0.89 -0.787,0.09 -1.747,0.37 -2.517,1.22 -0.173,0.19 -0.426,0.5 -0.592,1 -0.112,0.33 -0.273,1.58 -0.345,3.62 -0.651,18.49 0.618,116.18 0.618,145.52 0,1.61 1.682,2.92 3.754,2.92 2.072,0 3.755,-1.31 3.755,-2.92 0,-29.31 -1.271,-126.89 -0.621,-145.37 0.034,-0.95 0.103,-1.87 0.136,-2.27 z m -2.785,2.01 c -1.252,0.22 -2.613,-0.07 -3.552,-0.85 1.158,0.96 2.395,1.1 3.552,0.85 z" /><path
           id="path354"
           style="fill:#ffffff"
           d="m 190.926,1707.4 c 83.42,-0.57 162.93,-1.33 246.176,-1.33" /><path
           id="path356"
           d="m 190.959,1710.31 c 83.408,-0.56 162.908,-1.32 246.143,-1.32 2.072,0 3.754,-1.31 3.754,-2.92 0,-1.61 -1.682,-2.92 -3.754,-2.92 -83.257,0 -162.778,0.76 -246.208,1.33 -2.072,0.02 -3.74,1.33 -3.722,2.94 0.018,1.61 1.715,2.91 3.787,2.89 z" /><path
           id="path358"
           style="fill:#ffffff"
           d="m 436.895,1706.55 c -0.62,19.84 1.336,117.22 1.336,146.57" /><path
           id="path360"
           d="m 433.142,1706.47 c -0.62,19.86 1.335,117.29 1.335,146.65 0,1.62 1.682,2.92 3.754,2.92 2.072,0 3.754,-1.3 3.754,-2.92 0,-29.33 -1.956,-126.67 -1.337,-146.5 0.05,-1.61 -1.591,-2.95 -3.662,-2.99 -2.072,-0.04 -3.794,1.24 -3.844,2.84 z" /><g
           id="g366"
           transform="translate(1.23839,2.48673)"><path
             id="path362"
             style="fill:#ffffff"
             d="m 191.084,1854.4 c -2.518,0.04 241.846,-1.98 246.538,-1.98" /><path
             id="path364"
             d="m 191.088,1851.49 h -0.081 c -0.926,0.01 -1.369,0.22 -1.391,0.22 -0.13,0.05 -3.557,5.6 1.449,5.61 v 0 0 h 0.018 c 0.215,0 2.402,-0.01 6.204,-0.04 37.787,-0.3 236.113,-1.94 240.335,-1.94 2.072,0 3.754,-1.31 3.754,-2.92 0,-1.61 -1.682,-2.91 -3.754,-2.91 -4.224,0 -202.612,1.63 -240.411,1.93 -3.757,0.03 -6.13,0.05 -6.13,0.05 z m 1.345,5.64 c -0.395,0.12 -0.823,0.18 -1.271,0.19 0.694,-0.01 1.108,-0.14 1.271,-0.19 z m 0.78,-0.32 -0.04,0.02 0.013,-0.01 z m 0.972,-0.76 c -0.248,0.28 -0.559,0.53 -0.916,0.73 0.424,-0.23 0.713,-0.49 0.916,-0.73 z m -2.199,-4.48 c 0.96,0.19 1.777,0.66 2.287,1.3 -0.28,-0.4 -0.91,-1.05 -2.287,-1.3 z" /></g></g></g><g
       id="g374"
       transform="matrix(0.793577,0,0,0.80296,180.328,-30.6649)"><path
         id="path372"
         style="fill:#ffcd00;stroke:#000000;stroke-width:3.65px"
         d="m 343.664,1800.26 c 7.979,-16.84 8.015,-60.32 -42.408,-54.17 -37.6,4.59 -41.859,54.48 -9.833,71.36 19.232,10.13 44.11,-0.04 52.241,-17.19 z" /></g></g><g
     id="g408"
     transform="translate(1304.2194,2158.0619)"
     style="clip-rule:evenodd;fill-rule:evenodd;stroke-linecap:round;stroke-linejoin:round;stroke-miterlimit:1.5"><g
       id="g402"
       transform="translate(261.001,-533.065)"><g
         id="g380"
         transform="matrix(0.857919,0,0,1,17.4524,0)"><path
           id="path378"
           style="fill:#e30011;stroke:#000000;stroke-width:3.13px"
           d="m 122.835,1859.6 c -0.256,-0.28 129.055,69.15 129.055,70.02 0,2.03 -111.159,70.96 -127.417,78.7 -1.049,0.5 -1.638,-149.99 -1.638,-148.72 z" /></g><g
         id="g400"
         transform="matrix(0.776868,0,0,1,-25.7254,151.714)"><path
           id="path382"
           style="fill:#ffffff"
           d="m 190.214,1708.05 c -1.24,-1.03 0.327,115.89 0.327,148.47" /><path
           id="path384"
           d="m 193.811,1708.88 c 0.368,-0.96 0.088,-2.04 -0.856,-2.83 -1.079,-0.89 -2.277,-1.02 -3.332,-0.89 -0.787,0.09 -1.747,0.37 -2.517,1.22 -0.173,0.19 -0.426,0.5 -0.592,1 -0.112,0.33 -0.273,1.58 -0.345,3.62 -0.651,18.49 0.618,116.18 0.618,145.52 0,1.61 1.682,2.92 3.754,2.92 2.072,0 3.755,-1.31 3.755,-2.92 0,-29.31 -1.271,-126.89 -0.621,-145.37 0.034,-0.95 0.103,-1.87 0.136,-2.27 z m -2.785,2.01 c -1.252,0.22 -2.613,-0.07 -3.552,-0.85 1.158,0.96 2.395,1.1 3.552,0.85 z" /><path
           id="path386"
           style="fill:#ffffff"
           d="m 190.926,1707.4 c 83.42,-0.57 162.93,-1.33 246.176,-1.33" /><path
           id="path388"
           d="m 190.959,1710.31 c 83.408,-0.56 162.908,-1.32 246.143,-1.32 2.072,0 3.754,-1.31 3.754,-2.92 0,-1.61 -1.682,-2.92 -3.754,-2.92 -83.257,0 -162.778,0.76 -246.208,1.33 -2.072,0.02 -3.74,1.33 -3.722,2.94 0.018,1.61 1.715,2.91 3.787,2.89 z" /><path
           id="path390"
           style="fill:#ffffff"
           d="m 436.895,1706.55 c -0.62,19.84 1.336,117.22 1.336,146.57" /><path
           id="path392"
           d="m 433.142,1706.47 c -0.62,19.86 1.335,117.29 1.335,146.65 0,1.62 1.682,2.92 3.754,2.92 2.072,0 3.754,-1.3 3.754,-2.92 0,-29.33 -1.956,-126.67 -1.337,-146.5 0.05,-1.61 -1.591,-2.95 -3.662,-2.99 -2.072,-0.04 -3.794,1.24 -3.844,2.84 z" /><g
           id="g398"
           transform="translate(1.23839,2.48673)"><path
             id="path394"
             style="fill:#ffffff"
             d="m 191.084,1854.4 c -2.518,0.04 241.846,-1.98 246.538,-1.98" /><path
             id="path396"
             d="m 191.088,1851.49 h -0.081 c -0.926,0.01 -1.369,0.22 -1.391,0.22 -0.13,0.05 -3.557,5.6 1.449,5.61 v 0 0 h 0.018 c 0.215,0 2.402,-0.01 6.204,-0.04 37.787,-0.3 236.113,-1.94 240.335,-1.94 2.072,0 3.754,-1.31 3.754,-2.92 0,-1.61 -1.682,-2.91 -3.754,-2.91 -4.224,0 -202.612,1.63 -240.411,1.93 -3.757,0.03 -6.13,0.05 -6.13,0.05 z m 1.345,5.64 c -0.395,0.12 -0.823,0.18 -1.271,0.19 0.694,-0.01 1.108,-0.14 1.271,-0.19 z m 0.78,-0.32 -0.04,0.02 0.013,-0.01 z m 0.972,-0.76 c -0.248,0.28 -0.559,0.53 -0.916,0.73 0.424,-0.23 0.713,-0.49 0.916,-0.73 z m -2.199,-4.48 c 0.96,0.19 1.777,0.66 2.287,1.3 -0.28,-0.4 -0.91,-1.05 -2.287,-1.3 z" /></g></g></g><g
       id="g406"
       transform="matrix(0.793577,0,0,0.80296,180.328,-30.6649)"><path
         id="path404"
         style="fill:#ffcd00;stroke:#000000;stroke-width:3.65px"
         d="m 343.664,1800.26 c 7.979,-16.84 8.015,-60.32 -42.408,-54.17 -37.6,4.59 -41.859,54.48 -9.833,71.36 19.232,10.13 44.11,-0.04 52.241,-17.19 z" /></g></g><g
     style="clip-rule:evenodd;fill-rule:evenodd;stroke-linecap:round;stroke-linejoin:round;stroke-miterlimit:1.5"
     transform="matrix(0.453147,0,0,0.453147,1409.531,2736.1622)"
     id="g458"><path
       d="m 2338.07,1778.92 c -4,-143.75 -93.27,-213.69 -243.25,-245.72 -214.34,-45.77 -556.44,-12.91 -940.22,-23.51 -415.987,-11.49 -774.51,29.21 -970.594,64.67 -86.136,15.58 -141.587,30.6 -158.09,39.59 -47.289,25.77 -83.712,77.13 -105.283,138.55 -31.749,90.41 -31.319,202.25 10.554,281.79 196.679,373.65 468.935,493.99 636.45,539.27 275.999,74.6 739.073,57.5 1000.853,-3.89 187.28,-43.91 430.62,-164.78 592.79,-346.51 109.15,-122.31 181.58,-272.05 176.79,-444.24 z m -28.02,0.78 c 4.58,164.73 -65.27,307.78 -169.69,424.8 -158.18,177.25 -395.6,295.04 -578.27,337.88 -258.2,60.54 -714.922,77.69 -987.138,4.12 -163.017,-44.07 -427.561,-161.65 -618.958,-525.26 -38.549,-73.24 -38.139,-176.22 -8.911,-259.45 19.08,-54.34 50.416,-100.43 92.247,-123.22 15.602,-8.5 68.229,-21.89 149.666,-36.62 194.919,-35.26 551.315,-75.66 964.834,-64.23 381.7,10.54 721.96,-22.63 935.13,22.89 135.02,28.84 217.49,89.69 221.09,219.09 z"
       style="fill:#e30011"
       id="path456" /></g></g></g>
    </g>
</svg>
