<?xml version="1.0" encoding="UTF-8" standalone="no"?>
<svg
   xmlns:dc="http://purl.org/dc/elements/1.1/"
   xmlns:cc="http://creativecommons.org/ns#"
   xmlns:rdf="http://www.w3.org/1999/02/22-rdf-syntax-ns#"
   xmlns:svg="http://www.w3.org/2000/svg"
   xmlns="http://www.w3.org/2000/svg"
   xmlns:sodipodi="http://sodipodi.sourceforge.net/DTD/sodipodi-0.dtd"
   xmlns:inkscape="http://www.inkscape.org/namespaces/inkscape"
   sodipodi:docname="2021-IE-04-answerC.svg"
   inkscape:version="1.0 (4035a4fb49, 2020-05-01)"
   id="svg1848"
   version="1.1"
   viewBox="0 0 126.1413 117.97054"
   height="117.97054mm"
   width="126.1413mm">
  <defs
     id="defs1842" />
  <sodipodi:namedview
     inkscape:window-maximized="1"
     inkscape:window-y="222"
     inkscape:window-x="-8"
     inkscape:window-height="987"
     inkscape:window-width="1680"
     fit-margin-bottom="0"
     fit-margin-right="0"
     fit-margin-left="0"
     fit-margin-top="0"
     showgrid="false"
     inkscape:document-rotation="0"
     inkscape:current-layer="layer1"
     inkscape:document-units="mm"
     inkscape:cy="272.846"
     inkscape:cx="247.73231"
     inkscape:zoom="1.4"
     inkscape:pageshadow="2"
     inkscape:pageopacity="0.0"
     borderopacity="1.0"
     bordercolor="#666666"
     pagecolor="#ffffff"
     id="base" />
  <metadata
     id="metadata1845">
    <rdf:RDF>
      <cc:Work
         rdf:about="">
        <dc:format>image/svg+xml</dc:format>
        <dc:type
           rdf:resource="http://purl.org/dc/dcmitype/StillImage" />
        <dc:title></dc:title>
      </cc:Work>
    </rdf:RDF>
  </metadata>
  <g
     transform="translate(-83.584114,-55.489948)"
     id="layer1"
     inkscape:groupmode="layer"
     inkscape:label="Ebene 1">
    <g
       id="g2287"
       transform="translate(-382.0711,-1.0692551)">
      <path
         sodipodi:nodetypes="ccsccccc"
         id="path845-60-9"
         d="m 495.89606,68.300639 c -11.49084,8.68878 -19.01167,14.995698 -30.16014,24.627144 -0.13355,0.111523 2.29631,4.72939 2.4975,5.05471 1.31378,2.124357 5.89379,13.689107 8.99483,12.471997 5.38573,-5.74191 12.56965,-5.13209 18.26498,-10.10273 0.41117,-0.34335 6.34031,1.0199 6.89718,0.88826 6.39467,-3.868503 6.74791,-13.139733 6.53591,-21.168545 -1.31278,-9.703494 -6.41089,-9.433993 -13.03026,-11.770836 z"
         style="font-variation-settings:normal;opacity:1;vector-effect:none;fill:#ff0000;fill-opacity:1;stroke:none;stroke-width:0.125282;stroke-linecap:round;stroke-linejoin:round;stroke-miterlimit:4;stroke-dasharray:none;stroke-dashoffset:0;stroke-opacity:1;paint-order:markers fill stroke;stop-color:#000000;stop-opacity:1" />
      <path
         id="path845-89-1-4"
         style="font-variation-settings:normal;opacity:1;vector-effect:none;fill:#e90606;fill-opacity:1;stroke:none;stroke-width:0.125282;stroke-linecap:round;stroke-linejoin:round;stroke-miterlimit:4;stroke-dasharray:none;stroke-dashoffset:0;stroke-opacity:1;paint-order:markers fill stroke;stop-color:#000000;stop-opacity:1"
         d="m 495.89598,68.300521 c -11.49084,8.688781 -19.01137,14.995725 -30.15984,24.627181 -0.0404,0.03372 0.16569,0.499387 0.46132,1.113397 8.18289,-7.010838 13.57257,-11.591831 21.80783,-17.96846 24.50942,-19.494058 20.39844,33.971621 20.92097,3.999072 -1.31279,-9.703495 -6.41092,-9.434338 -13.03028,-11.77119 z"
         sodipodi:nodetypes="cccccc" />
      <path
         style="font-variation-settings:normal;opacity:1;vector-effect:none;fill:#ff0000;fill-opacity:1;stroke:none;stroke-width:0.125282;stroke-linecap:round;stroke-linejoin:round;stroke-miterlimit:4;stroke-dasharray:none;stroke-dashoffset:0;stroke-opacity:1;paint-order:markers fill stroke;stop-color:#000000;stop-opacity:1"
         d="m 564.22204,70.566673 c 10.34472,8.967083 14.19505,15.102313 26.97002,24.006779 -1.51642,6.480828 -6.43398,12.857658 -11.02293,17.574948 -6.06811,-5.57293 -8.07756,-4.13302 -13.55998,-9.23041 -0.41691,-0.33636 -3.05984,1.5017 -3.61886,1.37948 -6.45905,-3.76002 -11.79313,-13.56339 -11.71666,-21.594626 1.14881,-9.724279 6.36942,-9.687941 12.94841,-12.136171 z"
         id="path845-8-4-4"
         sodipodi:nodetypes="ccccccc" />
      <path
         sodipodi:nodetypes="ccccccc"
         id="path845-8-8-5-0"
         style="font-variation-settings:normal;opacity:1;vector-effect:none;fill:#e90606;fill-opacity:1;stroke:none;stroke-width:0.125282;stroke-linecap:round;stroke-linejoin:round;stroke-miterlimit:4;stroke-dasharray:none;stroke-dashoffset:0;stroke-opacity:1;paint-order:markers fill stroke;stop-color:#000000;stop-opacity:1"
         d="m 564.22186,70.566742 c -5.9516,2.214777 -10.79085,2.397184 -12.51031,9.610872 2.34822,-3.423835 6.26676,-3.927961 10.84498,-5.63166 10.34473,8.967092 14.19514,15.102212 26.97011,24.006676 -0.13256,0.56656 -0.29246,1.132213 -0.47452,1.69614 0.94535,-1.856139 1.69192,-3.760967 2.13985,-5.675349 C 578.417,85.668955 574.56659,79.533825 564.22186,70.566742 Z" />
      <path
         sodipodi:nodetypes="ccccccc"
         id="path845-8-4-4-0"
         d="m 564.22204,70.566674 c 10.34472,8.967084 14.19505,15.102313 26.97002,24.006779 -1.51642,6.480827 -6.43398,12.857657 -11.02293,17.574947 -6.06811,-5.57293 -8.07756,-4.13302 -13.55998,-9.23041 -0.41691,-0.33636 -3.05984,1.5017 -3.61886,1.37948 -6.45905,-3.76002 -11.79313,-13.563389 -11.71666,-21.594625 1.14881,-9.724279 6.36942,-9.687941 12.94841,-12.136171 z"
         style="font-variation-settings:normal;opacity:1;vector-effect:none;fill:none;fill-opacity:1;stroke:#000000;stroke-width:0.325001;stroke-linecap:round;stroke-linejoin:round;stroke-miterlimit:4;stroke-dasharray:none;stroke-dashoffset:0;stroke-opacity:1;paint-order:markers fill stroke;stop-color:#000000;stop-opacity:1" />
      <path
         style="font-variation-settings:normal;opacity:1;vector-effect:none;fill:none;fill-opacity:1;stroke:#000000;stroke-width:0.325001;stroke-linecap:round;stroke-linejoin:round;stroke-miterlimit:4;stroke-dasharray:none;stroke-dashoffset:0;stroke-opacity:1;paint-order:markers fill stroke;stop-color:#000000;stop-opacity:1"
         d="m 495.89607,68.300639 c -11.49084,8.68878 -19.01167,14.995698 -30.16014,24.627144 -0.13355,0.111523 2.29631,4.72939 2.4975,5.054711 1.31378,2.124356 5.89379,13.689106 8.99483,12.471996 5.38573,-5.74191 12.56965,-5.13209 18.26498,-10.10273 0.41117,-0.34335 6.34031,1.0199 6.89717,0.88826 6.39468,-3.868502 6.74792,-13.139733 6.53592,-21.168545 -1.31278,-9.703494 -6.41089,-9.433993 -13.03026,-11.770836 z"
         id="path845-60-9-9"
         sodipodi:nodetypes="ccsccccc" />
      <path
         style="fill:#ff0000;stroke:none;stroke-width:0.125282;stroke-linecap:round;stroke-linejoin:round;paint-order:markers fill stroke;stop-color:#000000"
         d="m 550.95468,63.860784 c 3.90646,2.63633 3.69415,2.6425 8.5956,4.27631 1.12603,0.37535 4.08735,1.41466 4.81085,2.13816 -8.2435,7.51764 -3.28476,30.141926 2.13815,32.606886 l 2.13816,67.08465 c -17.61541,2.04393 -33.73569,-2.302 -46.81514,0.80181 -7.18843,1.79711 -18.28351,3.47451 -25.3906,3.47451 -0.52282,-24.47583 -2.21362,-51.18864 -0.80181,-73.76639 9.21954,-19.110396 -3.08814,-29.570226 -1.06909,-31.537816 2.47629,-0.89444 9.41031,-4.49615 13.09621,-5.07812 14.43256,12.40571 28.86511,7.2555 43.29767,0 z"
         id="path843-7-0-8"
         sodipodi:nodetypes="csccccccccc" />
      <path
         id="path843-7-0-8-5"
         style="font-variation-settings:normal;opacity:1;vector-effect:none;fill:#e90606;fill-opacity:1;stroke:none;stroke-width:0.473507;stroke-linecap:round;stroke-linejoin:round;stroke-miterlimit:4;stroke-dasharray:none;stroke-dashoffset:0;stroke-opacity:1;paint-order:markers fill stroke;stop-color:#000000;stop-opacity:1"
         d="m 2117.9141,258.59375 c -23.3235,31.8219 -7.0672,105.03179 11.6308,116.82227 -14.3889,-27.45121 -21.5339,-87.00393 3.4727,-109.8086 -2.2396,-2.23962 -9.9745,-5.20718 -15.1035,-7.01367 z m 13.1464,119.58594 8.0196,251.58789 c -66.5779,7.72509 -127.5053,-8.70164 -176.9395,3.0293 -24.0583,6.0146 -59.6759,11.66568 -86.1718,12.88281 0.1084,4.30322 0.2173,8.60738 0.3085,12.87695 26.8615,0 68.796,-6.34059 95.9649,-13.13281 49.4341,-11.73094 110.3615,4.69579 176.9394,-3.0293 l -8.082,-253.54883 c -3.4754,-1.57973 -6.8992,-5.35467 -10.0391,-10.66601 z"
         transform="scale(0.26458333)" />
      <path
         sodipodi:nodetypes="cscccccccc"
         id="path843-1-7"
         d="m 550.95717,63.860784 c 3.90646,2.63633 3.69415,2.6425 8.5956,4.27631 1.12603,0.37535 4.08735,1.41466 4.81085,2.13816 -8.2435,7.51765 -3.28476,30.141926 2.13815,32.606886 l 2.13816,67.08465 c -17.61541,2.04393 -33.73569,-2.302 -46.81514,0.80181 -7.18843,1.79711 -18.28351,3.47451 -25.3906,3.47451 -0.52282,-24.47583 -2.34725,-51.58954 -0.93544,-74.16729 9.21954,-19.110396 -2.95451,-29.169316 -0.93546,-31.136916 2.47629,-0.89443 9.41031,-4.49614 13.09621,-5.07812"
         style="fill:none;stroke:#000000;stroke-width:0.325001;stroke-linecap:round;stroke-linejoin:round;stroke-miterlimit:4;stroke-dasharray:none;paint-order:markers fill stroke;stop-color:#000000" />
      <path
         id="path1179-4-3-4"
         style="font-variation-settings:normal;opacity:1;vector-effect:none;fill:#e90606;fill-opacity:1;stroke:none;stroke-width:0.125282;stroke-linecap:round;stroke-linejoin:round;stroke-miterlimit:4;stroke-dasharray:none;stroke-dashoffset:0;stroke-opacity:1;paint-order:markers fill stroke;stop-color:#000000;stop-opacity:1"
         d="m 528.18495,62.688586 c -4.38907,0.0327 -8.52507,0.75168 -10.72702,2.45025 -0.33418,-0.0836 0.24986,-0.15274 -0.0312,0.16072 4.21949,6.06908 14.44741,5.82946 19.85176,4.41748 2.31498,-0.57875 4.5745,-1.93449 6.5279,-3.67599 -0.002,-0.003 -0.004,-0.006 -0.006,-0.009 -2.24549,-1.97228 -9.20047,-3.39106 -15.61527,-3.34331 z m 3.96105,11.30265 c 0.001,0.3624 0.11257,0.72984 0.39678,1.09267 -0.0863,0.86365 -0.13336,1.72634 -0.15871,2.5882 0.19719,-0.0477 0.39863,-0.0952 0.58906,-0.14284 0.53843,-0.1346 1.09403,-0.206 1.639,-0.31376 -0.24891,-0.27203 -0.44059,-0.48612 -0.49079,-0.55304 -0.68183,-0.90911 -1.34559,-1.78801 -1.97534,-2.67123 z m -8.43242,2.41424 c -0.48671,0.76847 -0.94512,1.52792 -1.37651,2.25919 0.48709,0.063 0.98216,0.10291 1.48334,0.12086 -0.0477,-0.86917 -0.0895,-1.69307 -0.10678,-2.38005 z"
         sodipodi:nodetypes="scccccscccscsccccc" />
      <path
         sodipodi:nodetypes="ccccc"
         id="path1163-2-7-2"
         d="m 548.71148,58.999956 c -12.14138,-2.81671 -29.6695,-3.13753 -35.0381,0.90261 -1.03537,3.27671 0.35562,4.93586 3.78429,5.23654 5.42019,-4.18111 22.56054,-2.42876 26.3425,0.89296 2.97608,-1.19634 5.99807,-2.35333 4.91131,-7.03211 z"
         style="font-variation-settings:normal;opacity:1;vector-effect:none;fill:#000000;fill-opacity:1;stroke:none;stroke-width:0.14131;stroke-linecap:round;stroke-linejoin:round;stroke-miterlimit:4;stroke-dasharray:none;stroke-dashoffset:0;stroke-opacity:1;paint-order:markers fill stroke;stop-color:#000000;stop-opacity:1" />
      <path
         id="path1163-2-4-9-7"
         style="font-variation-settings:normal;opacity:1;vector-effect:none;fill:#121212;fill-opacity:1;stroke:none;stroke-width:0.366578;stroke-linecap:round;stroke-linejoin:round;stroke-miterlimit:4;stroke-dasharray:none;stroke-dashoffset:0;stroke-opacity:1;paint-order:markers fill stroke;stop-color:#000000;stop-opacity:1"
         d="m 529.89414,56.876106 c -7.08478,-0.0356 -13.36878,0.88017 -16.22085,3.0265 -0.35197,1.11391 -0.41697,2.03637 -0.22341,2.78659 0.0549,-0.28336 0.12464,-0.5762 0.22341,-0.88878 5.36861,-4.04014 23.45517,-5.95195 33.58739,1.3296 0.0644,0.27735 1.56422,-1.69099 1.60062,-1.43764 0.13034,-0.74301 0.0983,-1.6254 -0.14954,-2.69259 -5.69129,-1.32034 -12.56633,-2.09227 -18.81762,-2.12368 z"
         sodipodi:nodetypes="sccccccs" />
      <path
         style="font-variation-settings:normal;opacity:1;vector-effect:none;fill:none;fill-opacity:1;stroke:#000000;stroke-width:0.383905;stroke-linecap:round;stroke-linejoin:round;stroke-miterlimit:4;stroke-dasharray:none;stroke-dashoffset:0;stroke-opacity:1;paint-order:markers fill stroke;stop-color:#000000;stop-opacity:1"
         d="m 517.45767,65.139106 c 5.42019,-4.18111 22.56054,-2.42876 26.3425,0.89296"
         id="path1179-27-1"
         sodipodi:nodetypes="cc" />
      <path
         id="path835-1-6-4-2"
         style="font-variation-settings:normal;opacity:1;vector-effect:none;fill:#e90606;fill-opacity:1;stroke:none;stroke-width:0.125282;stroke-linecap:round;stroke-linejoin:round;stroke-miterlimit:4;stroke-dasharray:none;stroke-dashoffset:0;stroke-opacity:1;paint-order:markers fill stroke;stop-color:#000000;stop-opacity:1"
         d="m 549.18283,61.215106 c -1.90487,4.61735 -6.67316,9.48235 -11.68112,10.73434 -7.02967,1.23385 -23.79513,-1.07503 -23.67843,-9.78696 0,0 -9.2199,2.97235 -11.0498,2.95993 1.36157,6.79133 14.89444,10.45362 17.04846,20.7185 0,0 1.82245,-3.58344 4.11488,-7.20303 l 8.82921,-1.32157 c -0.28426,-0.36282 -0.39534,-0.73027 -0.39677,-1.09266 0.62973,0.88322 1.2935,1.76212 1.97532,2.67122 0.33667,0.44887 5.92029,6.39262 6.31426,5.99866 1.67726,-6.62979 7.07753,-7.35208 11.10914,-11.96435 2.30992,-2.69012 3.49499,-5.33826 2.15053,-6.3466 0,0 -4.03526,-4.94723 -4.73568,-5.36748 z"
         sodipodi:nodetypes="ccccscccscccc" />
      <path
         id="path2156"
         style="color:#000000;font-style:normal;font-variant:normal;font-weight:normal;font-stretch:normal;font-size:medium;line-height:normal;font-family:sans-serif;font-variant-ligatures:normal;font-variant-position:normal;font-variant-caps:normal;font-variant-numeric:normal;font-variant-alternates:normal;font-variant-east-asian:normal;font-feature-settings:normal;font-variation-settings:normal;text-indent:0;text-align:start;text-decoration:none;text-decoration-line:none;text-decoration-style:solid;text-decoration-color:#000000;letter-spacing:normal;word-spacing:normal;text-transform:none;writing-mode:lr-tb;direction:ltr;text-orientation:mixed;dominant-baseline:auto;baseline-shift:baseline;text-anchor:start;white-space:normal;shape-padding:0;shape-margin:0;inline-size:0;clip-rule:nonzero;display:inline;overflow:visible;visibility:visible;opacity:1;isolation:auto;mix-blend-mode:normal;color-interpolation:sRGB;color-interpolation-filters:linearRGB;solid-color:#000000;solid-opacity:1;vector-effect:none;fill:#000000;fill-opacity:1;fill-rule:nonzero;stroke:none;stroke-width:11.4331;stroke-linecap:round;stroke-linejoin:round;stroke-miterlimit:4;stroke-dasharray:none;stroke-dashoffset:0;stroke-opacity:1;paint-order:markers fill stroke;color-rendering:auto;image-rendering:auto;shape-rendering:auto;text-rendering:auto;enable-background:accumulate;stop-color:#000000;stop-opacity:1"
         d="m 1915.7227,241.96484 c -3.2878,0.77422 -7.0472,2.00559 -10.9883,3.47266 13.398,71.47628 4.0585,144.58431 4.8867,211.87109 a 5.7171261,5.7171261 0 0 0 0,0.0371 c 1.1599,62.24112 8.9574,134.03097 12.5664,197.45703 3.7923,-0.52134 7.5836,-1.08512 11.3535,-1.68359 -3.652,-63.62251 -11.3451,-134.8421 -12.4863,-195.95117 v -0.0293 c -10e-5,-0.002 0,-0.006 0,-0.008 -0.8147,-66.49931 8.9052,-140.93995 -5.332,-215.16602 z m 173.1054,3.77539 c -10.366,69.16078 -1.9795,138.02661 -2.7422,199.99219 -1.1412,61.32262 1.4404,134.42696 4.4219,198.48633 3.7931,0.12701 7.6128,0.22116 11.459,0.27539 -2.9925,-64.17459 -5.5858,-137.48511 -4.4473,-198.58398 a 5.7171261,5.7171261 0 0 0 0,-0.0371 c 0.759,-61.66291 -7.0269,-128.20727 1.9766,-193.91016 -3.5686,-1.59457 -6.3669,-3.33431 -10.668,-6.22266 z m -196.4004,4.69727 c -3.9497,1.70936 -7.7197,3.40789 -11.2148,4.97852 l 0.209,4.46289 a 5.7171072,5.7171072 0 0 0 0,0.008 c 1.6898,35.08419 12.2358,65.79692 11.5156,95.38086 -0.9272,32.31028 -6.4981,65.72887 -5.832,101.47265 1.179,63.27586 9.22,136.42697 12.7441,200.61915 3.721,-0.33077 7.5248,-0.71556 11.3906,-1.16211 -3.5596,-64.55496 -11.5383,-137.37775 -12.6992,-199.67188 -0.6413,-34.41324 4.8684,-67.57423 5.8242,-100.95508 a 5.7171072,5.7171072 0 0 0 0.01,-0.0215 c 0.7882,-32.37781 -9.9372,-63.16444 -11.5312,-96.20117 v -0.0137 z m 38.9903,0.67969 c 13.0193,71.03286 3.8081,143.6221 4.6308,210.47265 a 5.7171261,5.7171261 0 0 0 0,0.0371 c 1.1085,59.48147 8.2813,127.68881 12.0664,188.98047 3.8901,-0.72622 7.6718,-1.47924 11.3203,-2.25195 -3.8225,-61.26611 -10.8658,-128.68411 -11.9531,-186.90625 v -0.0293 c 0,-0.002 10e-5,-0.006 0,-0.008 -0.769,-62.77085 7.8485,-132.61866 -3.1562,-202.68164 -4.3026,-2.17235 -8.6057,-4.70042 -12.9082,-7.61328 z m 129.1816,0.61133 c -3.6321,1.61643 -7.2643,3.15932 -10.8965,4.61914 9.1362,65.90323 1.3033,132.67706 2.0645,194.53125 a 5.7171261,5.7171261 0 0 0 0,0.0371 c 1.127,60.48009 8.5133,129.96464 12.2422,192.04296 3.7982,0.21468 7.6281,0.42206 11.4902,0.61719 -3.7202,-62.82747 -11.1841,-132.72226 -12.3066,-192.83789 v -0.0293 c -1e-4,-0.002 0,-0.005 0,-0.008 -0.7555,-61.66319 7.5438,-130.15559 -2.5938,-198.97265 z m 53.6504,5.5996 c -17.8223,63.23267 -7.1295,129.16492 -2.4316,190.34571 -1.0844,62.30469 11.1475,134.09309 10.625,196.65039 3.7952,-0.12507 7.6131,-0.31239 11.4511,-0.56445 0.4988,-64.1974 -11.7919,-135.89265 -10.664,-196.41797 a 5.7171261,5.7171261 0 0 0 -0.014,-0.54492 c -3.3196,-43.23093 -9.2306,-87.61751 -6.7285,-131.00391 0.01,-7.31234 0.6106,-14.50578 1.9629,-21.22266 1.4461,-11.19136 3.5735,-22.29206 6.5996,-33.26172 -3.8348,-1.59483 -7.9775,-3.03741 -10.2149,-3.7832 -0.222,-0.074 -0.3693,-0.12498 -0.5859,-0.19727 z m -81.5039,5.13672 c -3.7151,1.17373 -7.4294,2.2351 -11.1445,3.15235 8.3805,64.74707 0.8423,130.2323 1.5898,190.97461 a 5.7171261,5.7171261 0 0 0 0,0.0371 c 1.0835,58.14143 7.9592,124.62366 11.8027,184.83203 3.7933,0.15005 7.6283,0.32675 11.5,0.52929 -3.8412,-60.90065 -10.7899,-127.7502 -11.8691,-185.53906 v -0.0293 c 0,-0.002 10e-5,-0.006 0,-0.008 -0.737,-60.16276 7.1528,-126.82583 -1.8789,-193.94922 z m -70.7871,3.24805 c 8.9638,65.64503 1.191,132.13087 1.9492,193.73633 a 5.7171261,5.7171261 0 0 0 0,0.0371 c 1.0855,58.25215 7.9853,124.87721 11.8242,185.17578 3.717,-0.77687 7.4938,-1.41179 11.334,-1.91211 -3.8648,-60.33763 -10.6577,-126.31205 -11.7246,-183.44141 v -0.0293 -0.008 c -0.7258,-59.24684 6.9007,-124.79843 -1.4922,-190.88476 -3.9634,-0.63935 -7.9272,-1.51928 -11.8906,-2.67383 z m 38.6855,3.50586 c -3.8292,0.34541 -7.6571,0.5015 -11.4863,0.46094 8.8794,65.51709 1.1359,131.85927 1.8926,193.34179 a 5.7171261,5.7171261 0 0 0 0,0.0371 c 1.0447,56.064 7.4703,119.86757 11.375,178.33789 3.7619,-0.19203 7.5759,-0.29638 11.4375,-0.33007 -3.9108,-58.89826 -10.3429,-122.70683 -11.3789,-178.18555 v -0.0293 c -10e-5,-0.002 0,-0.005 0,-0.008 -0.7359,-60.06587 7.1234,-126.61122 -1.8399,-193.625 z"
         transform="scale(0.26458333)" />
      <path
         sodipodi:nodetypes="ccssccscccccscccc"
         d="m 548.95958,58.982696 c -1.90486,4.61735 -6.67316,9.48235 -11.68111,10.73434 -1.52039,0.564268 -5.305,-0.08821 -7.81358,-0.24911 -1.05512,-0.06767 -1.66967,0.90058 -3.22302,0.348274 -5.58468,-1.985681 -11.95642,-5.038813 -12.64183,-9.886124 0,0 -8.74633,4.43251 -10.57624,4.42009 1.36157,6.79133 14.42088,8.99345 16.57491,19.25834 -2e-5,0 1.82243,-3.58345 4.11487,-7.20303 0.10584,4.21647 1.04079,12.67668 -0.32658,15.41143 l 9.98522,-0.23364 c -0.55505,-5.47546 -1.38267,-10.9682 -0.82944,-16.49936 -0.28425,-0.36283 -0.39534,-0.73027 -0.39678,-1.09267 0.62975,0.88322 1.29351,1.76212 1.97534,2.67123 0.33666,0.44887 5.92028,6.39262 6.31426,5.99866 1.67724,-6.6298 7.07752,-7.35208 11.10914,-11.96436 2.30992,-2.69012 3.49499,-5.33825 2.15053,-6.3466 0,0 -4.03527,-4.94723 -4.73569,-5.36747 z"
         style="font-variation-settings:normal;opacity:1;vector-effect:none;fill:#000000;fill-opacity:1;stroke:none;stroke-width:0.14131;stroke-linecap:round;stroke-linejoin:round;stroke-miterlimit:4;stroke-dasharray:none;stroke-dashoffset:0;stroke-opacity:1;paint-order:markers fill stroke;stop-color:#000000;stop-opacity:1"
         id="path835-1-1-3" />
      <path
         id="path835-1-3-9-0"
         style="font-variation-settings:normal;opacity:1;vector-effect:none;fill:#121212;fill-opacity:1;stroke:none;stroke-width:0.366578;stroke-linecap:round;stroke-linejoin:round;stroke-miterlimit:4;stroke-dasharray:none;stroke-dashoffset:0;stroke-opacity:1;paint-order:markers fill stroke;stop-color:#000000;stop-opacity:1"
         d="m 548.95978,58.982766 c -0.0175,0.0423 -0.0394,0.0846 -0.0574,0.12697 1.15702,1.3552 2.26712,2.71457 2.26712,2.71457 1.34445,1.00834 0.15936,3.65647 -2.15054,6.3466 -4.03162,4.61226 -7.53408,7.00895 -9.21135,13.63875 -0.13908,0.13908 -2.82697,-2.19183 -3.80049,-3.11196 0.42539,0.44281 0.88814,0.91639 1.34782,1.37651 0.30594,0.30606 0.61007,0.6049 0.90283,0.88634 0.1282,0.12335 0.25287,0.24206 0.37539,0.3571 0.0652,0.0612 0.13279,0.12599 0.19596,0.18435 0.18462,0.17064 0.36001,0.32775 0.52253,0.46881 0.0474,0.0411 0.0873,0.0729 0.13245,0.11109 0.11818,0.1 0.22991,0.19144 0.33023,0.26859 0.0844,0.0649 0.16777,0.1282 0.23747,0.17458 0.005,0.004 0.0114,0.008 0.0165,0.0116 0.0846,0.0554 0.15311,0.0908 0.21184,0.11415 0.0215,0.008 0.0421,0.0163 0.0598,0.0202 0.012,0.003 0.0252,0.007 0.0354,0.007 0.005,2e-4 0.0104,-1.8e-4 0.0152,-6.1e-4 0.0182,-0.002 0.0344,-0.006 0.0452,-0.0165 0.26207,-1.0359 0.61514,-1.9279 1.03956,-2.71273 0.16977,-0.31393 0.35064,-0.61031 0.54206,-0.89244 0.2871,-0.4232 0.59724,-0.81364 0.92602,-1.17874 0.10967,-0.1218 0.22141,-0.24056 0.33512,-0.3571 0.1135,-0.11633 0.22892,-0.23015 0.34609,-0.34183 0.93828,-0.89413 1.98996,-1.64925 3.07534,-2.41729 0.27138,-0.19204 0.54546,-0.38501 0.81979,-0.58113 1.37183,-0.98056 2.76528,-2.04175 4.02516,-3.48309 0.86623,-1.00879 1.57404,-2.01182 2.0498,-2.92455 0.15862,-0.30424 0.29132,-0.59854 0.39559,-0.87963 0.15632,-0.42162 0.24871,-0.81333 0.26734,-1.1653 0.0124,-0.23464 -0.008,-0.45177 -0.0635,-0.64766 -0.0835,-0.29383 -0.24661,-0.54039 -0.49871,-0.72946 0,0 -4.03528,-4.94723 -4.73568,-5.36747 z m -20.05801,10.79294 -0.0665,0.0775 c -2.07753,1.75217 -3.49674,3.83299 -4.68623,6.02918 0,0.48325 -0.30244,1.99857 -0.33635,2.7695 0.008,0.14118 0.0163,0.29102 0.0244,0.43585 0.0119,-0.084 0.0215,-0.14294 0.0446,-0.33818 l 5.08118,-7.19021 0.96996,2.32023 c -0.56694,6.25654 0.62514,11.82615 1.13173,17.7573 l 2.30194,-0.0537 c -0.0321,-0.31703 -0.0628,-0.6339 -0.0965,-0.95105 -0.12004,-1.1315 -0.24328,-2.26313 -0.36382,-3.39641 -0.0604,-0.5684 -0.11952,-1.13721 -0.17459,-1.70614 -2.6e-4,-0.004 -7.9e-4,-0.008 -10e-4,-0.0122 -0.0127,-0.13079 -0.0232,-0.26168 -0.0354,-0.3925 -0.0447,-0.47822 -0.086,-0.95649 -0.12392,-1.43511 -0.0274,-0.34597 -0.0546,-0.69215 -0.0775,-1.03834 -0.002,-0.0342 -0.005,-0.0684 -0.007,-0.10255 -0.0301,-0.46478 -0.0551,-0.92962 -0.0751,-1.39482 -0.002,-0.0559 -0.004,-0.11191 -0.006,-0.16787 -0.0164,-0.40812 -0.0277,-0.81665 -0.0348,-1.22512 -10e-4,-0.0779 -0.003,-0.15585 -0.004,-0.2338 -0.006,-0.45885 -0.006,-0.9178 0.002,-1.37712 2.7e-4,-0.0161 8e-4,-0.0322 10e-4,-0.0482 0.008,-0.43141 0.0254,-0.86288 0.0476,-1.29471 0.008,-0.14754 0.0157,-0.29498 0.025,-0.44257 0.008,-0.1237 0.0153,-0.24739 0.0244,-0.37113 0.0201,-0.27321 0.0424,-0.54641 0.069,-0.8198 -0.0527,-0.0564 -0.084,-0.0913 -0.13368,-0.14468 0.002,-0.0496 0.13393,-0.06386 0.13593,-0.113505 0.43861,-0.104074 -0.12687,-0.548061 -0.39058,-0.924215 0.0838,0.11751 0.17264,0.23538 0.25759,0.35283 -0.0197,-0.0994 -0.0339,-0.19855 -0.0342,-0.29728 l -2.94114,-4.21437 c -0.17514,-0.0175 -0.35063,-0.0368 -0.52681,-0.0568 z"
         sodipodi:nodetypes="cccccccsssssscccccccsssscsccssscccccccccccccccsccssccccccscccsccccccccc" />
      <path
         sodipodi:nodetypes="cscscccc"
         id="path835-0-5"
         d="m 548.95969,58.982866 c -1.90487,4.61735 -6.67336,9.4822 -11.68131,10.73418 -2.10293,0.52574 -8.11682,-0.23603 -8.11682,-0.23603 0,0 3.29374,4.96039 4.95971,7.18168 0.33666,0.44887 5.92025,6.39248 6.31422,5.99852 1.67726,-6.6298 7.07767,-7.35214 11.10929,-11.96442 2.30991,-2.69012 3.49504,-5.33849 2.15058,-6.34684 0,0 -4.03525,-4.94684 -4.73567,-5.36709 z"
         style="fill:none;stroke:#000000;stroke-width:0.383905;stroke-linecap:round;stroke-linejoin:round;stroke-miterlimit:4;stroke-dasharray:none;paint-order:markers fill stroke;stop-color:#000000" />
      <path
         sodipodi:nodetypes="ccccc"
         id="path837-8-3"
         d="m 529.06989,69.717046 c -3.92191,2.96787 -9.47134,13.8913 -9.47134,13.8913 -2.15401,-10.26488 -15.29219,-12.42759 -16.65377,-19.21892 1.82991,0.0124 10.65526,-4.45942 10.65526,-4.45942 -0.30572,1.83428 6.90534,10.85053 15.46985,9.78704 z"
         style="fill:none;stroke:#000000;stroke-width:0.383905;stroke-linecap:round;stroke-linejoin:round;stroke-miterlimit:4;stroke-dasharray:none;paint-order:markers fill stroke;stop-color:#000000" />
      <path
         id="path839-9-2"
         d="m 532.54271,75.084136 c -0.55285,5.52734 0.27318,11.01627 0.82818,16.48795 l -9.9838,0.24475 c 1.44598,-2.89197 0.42733,-10.96629 0.42733,-14.87344"
         style="fill:none;stroke:#000000;stroke-width:0.383905;stroke-linecap:round;stroke-linejoin:round;stroke-miterlimit:4;stroke-dasharray:none;paint-order:markers fill stroke;stop-color:#000000"
         sodipodi:nodetypes="cccc" />
      <g
         id="g1122-4-0-4"
         transform="matrix(0.63271744,0,0,0.63271744,466.94549,10.534724)">
        <path
           d="m 97.175517,102.58489 a 2.3151042,2.2678571 0 0 0 -2.315104,2.26757 2.3151042,2.2678571 0 0 0 2.315104,2.26808 2.3151042,2.2678571 0 0 0 2.315105,-2.26808 2.3151042,2.2678571 0 0 0 -2.315105,-2.26757 z m 0.632003,1.39372 a 0.36025857,0.36025857 0 0 1 0.360185,0.36018 0.36025857,0.36025857 0 0 1 -0.360185,0.36019 0.36025857,0.36025857 0 0 1 -0.360186,-0.36019 0.36025857,0.36025857 0 0 1 0.360186,-0.36018 z m -1.187008,1.23403 a 0.36025857,0.36025857 0 0 1 0.360185,0.3607 0.36025857,0.36025857 0 0 1 -0.360185,0.36019 0.36025857,0.36025857 0 0 1 -0.360186,-0.36019 0.36025857,0.36025857 0 0 1 0.360186,-0.3607 z"
           style="font-variation-settings:normal;opacity:1;vector-effect:none;fill:#121212;fill-opacity:1;stroke:none;stroke-width:0.579371;stroke-linecap:round;stroke-linejoin:round;stroke-miterlimit:4;stroke-dasharray:none;stroke-dashoffset:0;stroke-opacity:1;paint-order:markers fill stroke;stop-color:#000000;stop-opacity:1"
           id="path960-9-8-2-4" />
        <path
           id="path960-1-7-2"
           style="font-variation-settings:normal;opacity:1;vector-effect:none;fill:#ffffff;fill-opacity:1;stroke:none;stroke-width:0.473507;stroke-linecap:round;stroke-linejoin:round;stroke-miterlimit:4;stroke-dasharray:none;stroke-dashoffset:0;stroke-opacity:1;paint-order:markers fill stroke;stop-color:#000000;stop-opacity:1"
           d="m 368.03516,386.96484 a 8.7500001,8.5714284 0 0 0 -8.75,8.57032 8.7500001,8.5714284 0 0 0 8.75,8.57226 8.7500001,8.5714284 0 0 0 8.75,-8.57226 8.7500001,8.5714284 0 0 0 -8.75,-8.57032 z m 2.38867,5.26758 a 1.3616072,1.3616072 0 0 1 1.36133,1.36133 1.3616072,1.3616072 0 0 1 -1.36133,1.36133 1.3616072,1.3616072 0 0 1 -1.36133,-1.36133 1.3616072,1.3616072 0 0 1 1.36133,-1.36133 z m -4.48633,4.66406 a 1.3616072,1.3616072 0 0 1 1.36133,1.36329 1.3616072,1.3616072 0 0 1 -1.36133,1.36132 1.3616072,1.3616072 0 0 1 -1.36133,-1.36132 1.3616072,1.3616072 0 0 1 1.36133,-1.36329 z"
           transform="scale(0.26458333)" />
        <path
           id="path960-8-4-2-4"
           style="font-variation-settings:normal;opacity:1;vector-effect:none;fill:#999999;fill-opacity:1;stroke:none;stroke-width:0.372041;stroke-linecap:round;stroke-linejoin:round;stroke-miterlimit:4;stroke-dasharray:none;stroke-dashoffset:0;stroke-opacity:1;paint-order:markers fill stroke;stop-color:#000000;stop-opacity:1"
           d="m 368.03516,388.80078 a 6.8750003,6.734694 0 0 0 -6.875,6.73438 6.8750003,6.734694 0 0 0 6.875,6.73437 6.8750003,6.734694 0 0 0 6.875,-6.73437 6.8750003,6.734694 0 0 0 -6.875,-6.73438 z m 2.38867,3.43164 a 1.3616072,1.3616072 0 0 1 1.36133,1.36133 1.3616072,1.3616072 0 0 1 -1.36133,1.36133 1.3616072,1.3616072 0 0 1 -1.36133,-1.36133 1.3616072,1.3616072 0 0 1 1.36133,-1.36133 z m -4.48633,4.66406 a 1.3616072,1.3616072 0 0 1 1.36133,1.36329 1.3616072,1.3616072 0 0 1 -1.36133,1.36132 1.3616072,1.3616072 0 0 1 -1.36133,-1.36132 1.3616072,1.3616072 0 0 1 1.36133,-1.36329 z"
           transform="scale(0.26458333)" />
        <path
           id="path960-8-2-8-4-3"
           style="font-variation-settings:normal;opacity:1;vector-effect:none;fill:#808080;fill-opacity:1;stroke:none;stroke-width:0.372041;stroke-linecap:round;stroke-linejoin:round;stroke-miterlimit:4;stroke-dasharray:none;stroke-dashoffset:0;stroke-opacity:1;paint-order:markers fill stroke;stop-color:#000000;stop-opacity:1"
           d="m 368.03516,388.80078 a 6.8750003,6.734694 0 0 0 -5.47071,2.65625 6.8750003,6.734694 0 0 1 3.68555,-1.04883 6.8750003,6.734694 0 0 1 6.875,6.73438 6.8750003,6.734694 0 0 1 -1.4043,4.07812 6.8750003,6.734694 0 0 0 3.18946,-5.68554 6.8750003,6.734694 0 0 0 -6.875,-6.73438 z"
           transform="scale(0.26458333)" />
        <path
           id="path960-5-0-7-9"
           style="font-variation-settings:normal;opacity:1;vector-effect:none;fill:#808080;fill-opacity:1;stroke:none;stroke-width:0.473507;stroke-linecap:round;stroke-linejoin:round;stroke-miterlimit:4;stroke-dasharray:none;stroke-dashoffset:0;stroke-opacity:1;paint-order:markers fill stroke;stop-color:#000000;stop-opacity:1"
           d="m 368.03516,386.96484 a 8.7500001,8.5714284 0 0 0 -7.95899,5.00782 8.7500001,8.5714284 0 0 1 7.78125,-4.65039 8.7500001,8.5714284 0 0 1 8.75,8.57031 8.7500001,8.5714284 0 0 1 -0.78906,3.55664 8.7500001,8.5714284 0 0 0 0.9668,-3.91406 8.7500001,8.5714284 0 0 0 -8.75,-8.57032 z"
           transform="scale(0.26458333)" />
        <path
           style="color:#000000;font-style:normal;font-variant:normal;font-weight:normal;font-stretch:normal;font-size:medium;line-height:normal;font-family:sans-serif;font-variant-ligatures:normal;font-variant-position:normal;font-variant-caps:normal;font-variant-numeric:normal;font-variant-alternates:normal;font-variant-east-asian:normal;font-feature-settings:normal;font-variation-settings:normal;text-indent:0;text-align:start;text-decoration:none;text-decoration-line:none;text-decoration-style:solid;text-decoration-color:#000000;letter-spacing:normal;word-spacing:normal;text-transform:none;writing-mode:lr-tb;direction:ltr;text-orientation:mixed;dominant-baseline:auto;baseline-shift:baseline;text-anchor:start;white-space:normal;shape-padding:0;shape-margin:0;inline-size:0;clip-rule:nonzero;display:inline;overflow:visible;visibility:visible;opacity:1;isolation:auto;mix-blend-mode:normal;color-interpolation:sRGB;color-interpolation-filters:linearRGB;solid-color:#000000;solid-opacity:1;vector-effect:none;fill:#ffffff;fill-opacity:1;fill-rule:nonzero;stroke:none;stroke-width:0.125282;stroke-linecap:round;stroke-linejoin:round;stroke-miterlimit:4;stroke-dasharray:none;stroke-dashoffset:0;stroke-opacity:1;paint-order:markers fill stroke;color-rendering:auto;image-rendering:auto;shape-rendering:auto;text-rendering:auto;enable-background:accumulate;stop-color:#000000;stop-opacity:1"
           d="m 98.007812,103.71484 c -0.23275,5e-5 -0.421824,0.19108 -0.421874,0.42383 4.4e-5,0.23276 0.18912,0.42183 0.421874,0.42188 0.232756,-5e-5 0.423784,-0.18912 0.423829,-0.42188 -5.1e-5,-0.23275 -0.191078,-0.42378 -0.423829,-0.42383 z m 0,0.125 c 0.165062,4e-5 0.29684,0.13377 0.296876,0.29883 -3.2e-5,0.16507 -0.13181,0.29684 -0.296876,0.29688 -0.165064,-4e-5 -0.296843,-0.13181 -0.296874,-0.29688 3.5e-5,-0.16506 0.131813,-0.29879 0.296874,-0.29883 z m -1.1875,1.10938 c -0.232985,5e-5 -0.42216,0.19084 -0.421874,0.42383 4.4e-5,0.23275 0.18912,0.42182 0.421874,0.42187 0.232755,-5e-5 0.423784,-0.18912 0.423829,-0.42187 2.85e-4,-0.23299 -0.190843,-0.42378 -0.423829,-0.42383 z m 0,0.125 c 0.165233,3e-5 0.299031,0.13359 0.298829,0.29883 -3.2e-5,0.16506 -0.133764,0.29684 -0.298829,0.29687 -0.165064,-3e-5 -0.296843,-0.13181 -0.296874,-0.29687 -2.03e-4,-0.16524 0.131642,-0.2988 0.296874,-0.29883 z"
           id="path1085-7-3-4" />
      </g>
      <path
         style="font-variation-settings:normal;opacity:1;vector-effect:none;fill:none;fill-opacity:1;stroke:#000000;stroke-width:0.383905;stroke-linecap:round;stroke-linejoin:round;stroke-miterlimit:4;stroke-dasharray:none;stroke-dashoffset:0;stroke-opacity:1;paint-order:markers fill stroke;stop-color:#000000;stop-opacity:1"
         d="m 548.71148,58.999956 c -12.14138,-2.81671 -29.6695,-3.13753 -35.0381,0.90261"
         id="path1163-3-7"
         sodipodi:nodetypes="cc" />
      <g
         transform="matrix(0.63271744,0,0,0.63271744,466.97743,20.917955)"
         id="g1122-4-0-4-0">
        <path
           id="path960-9-8-2-4-4"
           style="font-variation-settings:normal;opacity:1;vector-effect:none;fill:#121212;fill-opacity:1;stroke:none;stroke-width:0.579371;stroke-linecap:round;stroke-linejoin:round;stroke-miterlimit:4;stroke-dasharray:none;stroke-dashoffset:0;stroke-opacity:1;paint-order:markers fill stroke;stop-color:#000000;stop-opacity:1"
           d="m 97.175517,102.58489 a 2.3151042,2.2678571 0 0 0 -2.315104,2.26757 2.3151042,2.2678571 0 0 0 2.315104,2.26808 2.3151042,2.2678571 0 0 0 2.315105,-2.26808 2.3151042,2.2678571 0 0 0 -2.315105,-2.26757 z m 0.632003,1.39372 a 0.36025857,0.36025857 0 0 1 0.360185,0.36018 0.36025857,0.36025857 0 0 1 -0.360185,0.36019 0.36025857,0.36025857 0 0 1 -0.360186,-0.36019 0.36025857,0.36025857 0 0 1 0.360186,-0.36018 z m -1.187008,1.23403 a 0.36025857,0.36025857 0 0 1 0.360185,0.3607 0.36025857,0.36025857 0 0 1 -0.360185,0.36019 0.36025857,0.36025857 0 0 1 -0.360186,-0.36019 0.36025857,0.36025857 0 0 1 0.360186,-0.3607 z" />
        <path
           transform="scale(0.26458333)"
           d="m 368.03516,386.96484 a 8.7500001,8.5714284 0 0 0 -8.75,8.57032 8.7500001,8.5714284 0 0 0 8.75,8.57226 8.7500001,8.5714284 0 0 0 8.75,-8.57226 8.7500001,8.5714284 0 0 0 -8.75,-8.57032 z m 2.38867,5.26758 a 1.3616072,1.3616072 0 0 1 1.36133,1.36133 1.3616072,1.3616072 0 0 1 -1.36133,1.36133 1.3616072,1.3616072 0 0 1 -1.36133,-1.36133 1.3616072,1.3616072 0 0 1 1.36133,-1.36133 z m -4.48633,4.66406 a 1.3616072,1.3616072 0 0 1 1.36133,1.36329 1.3616072,1.3616072 0 0 1 -1.36133,1.36132 1.3616072,1.3616072 0 0 1 -1.36133,-1.36132 1.3616072,1.3616072 0 0 1 1.36133,-1.36329 z"
           style="font-variation-settings:normal;opacity:1;vector-effect:none;fill:#ffffff;fill-opacity:1;stroke:none;stroke-width:0.473507;stroke-linecap:round;stroke-linejoin:round;stroke-miterlimit:4;stroke-dasharray:none;stroke-dashoffset:0;stroke-opacity:1;paint-order:markers fill stroke;stop-color:#000000;stop-opacity:1"
           id="path960-1-7-2-4" />
        <path
           transform="scale(0.26458333)"
           d="m 368.03516,388.80078 a 6.8750003,6.734694 0 0 0 -6.875,6.73438 6.8750003,6.734694 0 0 0 6.875,6.73437 6.8750003,6.734694 0 0 0 6.875,-6.73437 6.8750003,6.734694 0 0 0 -6.875,-6.73438 z m 2.38867,3.43164 a 1.3616072,1.3616072 0 0 1 1.36133,1.36133 1.3616072,1.3616072 0 0 1 -1.36133,1.36133 1.3616072,1.3616072 0 0 1 -1.36133,-1.36133 1.3616072,1.3616072 0 0 1 1.36133,-1.36133 z m -4.48633,4.66406 a 1.3616072,1.3616072 0 0 1 1.36133,1.36329 1.3616072,1.3616072 0 0 1 -1.36133,1.36132 1.3616072,1.3616072 0 0 1 -1.36133,-1.36132 1.3616072,1.3616072 0 0 1 1.36133,-1.36329 z"
           style="font-variation-settings:normal;opacity:1;vector-effect:none;fill:#999999;fill-opacity:1;stroke:none;stroke-width:0.372041;stroke-linecap:round;stroke-linejoin:round;stroke-miterlimit:4;stroke-dasharray:none;stroke-dashoffset:0;stroke-opacity:1;paint-order:markers fill stroke;stop-color:#000000;stop-opacity:1"
           id="path960-8-4-2-4-1" />
        <path
           transform="scale(0.26458333)"
           d="m 368.03516,388.80078 a 6.8750003,6.734694 0 0 0 -5.47071,2.65625 6.8750003,6.734694 0 0 1 3.68555,-1.04883 6.8750003,6.734694 0 0 1 6.875,6.73438 6.8750003,6.734694 0 0 1 -1.4043,4.07812 6.8750003,6.734694 0 0 0 3.18946,-5.68554 6.8750003,6.734694 0 0 0 -6.875,-6.73438 z"
           style="font-variation-settings:normal;opacity:1;vector-effect:none;fill:#808080;fill-opacity:1;stroke:none;stroke-width:0.372041;stroke-linecap:round;stroke-linejoin:round;stroke-miterlimit:4;stroke-dasharray:none;stroke-dashoffset:0;stroke-opacity:1;paint-order:markers fill stroke;stop-color:#000000;stop-opacity:1"
           id="path960-8-2-8-4-3-2" />
        <path
           transform="scale(0.26458333)"
           d="m 368.03516,386.96484 a 8.7500001,8.5714284 0 0 0 -7.95899,5.00782 8.7500001,8.5714284 0 0 1 7.78125,-4.65039 8.7500001,8.5714284 0 0 1 8.75,8.57031 8.7500001,8.5714284 0 0 1 -0.78906,3.55664 8.7500001,8.5714284 0 0 0 0.9668,-3.91406 8.7500001,8.5714284 0 0 0 -8.75,-8.57032 z"
           style="font-variation-settings:normal;opacity:1;vector-effect:none;fill:#808080;fill-opacity:1;stroke:none;stroke-width:0.473507;stroke-linecap:round;stroke-linejoin:round;stroke-miterlimit:4;stroke-dasharray:none;stroke-dashoffset:0;stroke-opacity:1;paint-order:markers fill stroke;stop-color:#000000;stop-opacity:1"
           id="path960-5-0-7-9-0" />
        <path
           id="path1085-7-3-4-9"
           d="m 98.007812,103.71484 c -0.23275,5e-5 -0.421824,0.19108 -0.421874,0.42383 4.4e-5,0.23276 0.18912,0.42183 0.421874,0.42188 0.232756,-5e-5 0.423784,-0.18912 0.423829,-0.42188 -5.1e-5,-0.23275 -0.191078,-0.42378 -0.423829,-0.42383 z m 0,0.125 c 0.165062,4e-5 0.29684,0.13377 0.296876,0.29883 -3.2e-5,0.16507 -0.13181,0.29684 -0.296876,0.29688 -0.165064,-4e-5 -0.296843,-0.13181 -0.296874,-0.29688 3.5e-5,-0.16506 0.131813,-0.29879 0.296874,-0.29883 z m -1.1875,1.10938 c -0.232985,5e-5 -0.42216,0.19084 -0.421874,0.42383 4.4e-5,0.23275 0.18912,0.42182 0.421874,0.42187 0.232755,-5e-5 0.423784,-0.18912 0.423829,-0.42187 2.85e-4,-0.23299 -0.190843,-0.42378 -0.423829,-0.42383 z m 0,0.125 c 0.165233,3e-5 0.299031,0.13359 0.298829,0.29883 -3.2e-5,0.16506 -0.133764,0.29684 -0.298829,0.29687 -0.165064,-3e-5 -0.296843,-0.13181 -0.296874,-0.29687 -2.03e-4,-0.16524 0.131642,-0.2988 0.296874,-0.29883 z"
           style="color:#000000;font-style:normal;font-variant:normal;font-weight:normal;font-stretch:normal;font-size:medium;line-height:normal;font-family:sans-serif;font-variant-ligatures:normal;font-variant-position:normal;font-variant-caps:normal;font-variant-numeric:normal;font-variant-alternates:normal;font-variant-east-asian:normal;font-feature-settings:normal;font-variation-settings:normal;text-indent:0;text-align:start;text-decoration:none;text-decoration-line:none;text-decoration-style:solid;text-decoration-color:#000000;letter-spacing:normal;word-spacing:normal;text-transform:none;writing-mode:lr-tb;direction:ltr;text-orientation:mixed;dominant-baseline:auto;baseline-shift:baseline;text-anchor:start;white-space:normal;shape-padding:0;shape-margin:0;inline-size:0;clip-rule:nonzero;display:inline;overflow:visible;visibility:visible;opacity:1;isolation:auto;mix-blend-mode:normal;color-interpolation:sRGB;color-interpolation-filters:linearRGB;solid-color:#000000;solid-opacity:1;vector-effect:none;fill:#ffffff;fill-opacity:1;fill-rule:nonzero;stroke:none;stroke-width:0.125282;stroke-linecap:round;stroke-linejoin:round;stroke-miterlimit:4;stroke-dasharray:none;stroke-dashoffset:0;stroke-opacity:1;paint-order:markers fill stroke;color-rendering:auto;image-rendering:auto;shape-rendering:auto;text-rendering:auto;enable-background:accumulate;stop-color:#000000;stop-opacity:1" />
      </g>
    </g>
  </g>
</svg>
