<?xml version="1.0" encoding="UTF-8" standalone="no"?>
<svg
   xmlns:dc="http://purl.org/dc/elements/1.1/"
   xmlns:cc="http://creativecommons.org/ns#"
   xmlns:rdf="http://www.w3.org/1999/02/22-rdf-syntax-ns#"
   xmlns:svg="http://www.w3.org/2000/svg"
   xmlns="http://www.w3.org/2000/svg"
   xmlns:sodipodi="http://sodipodi.sourceforge.net/DTD/sodipodi-0.dtd"
   xmlns:inkscape="http://www.inkscape.org/namespaces/inkscape"
   version="1.1"
   width="873.37878"
   height="485.17679"
   viewBox="0 0 655.03204 363.8837"
   overflow="hidden"
   id="svg51"
   sodipodi:docname="2021-CH-19_taskbody-v3.svg"
   inkscape:version="1.0 (4035a4fb49, 2020-05-01)">
  <metadata
     id="metadata55">
    <rdf:RDF>
      <cc:Work
         rdf:about="">
        <dc:format>image/svg+xml</dc:format>
        <dc:type
           rdf:resource="http://purl.org/dc/dcmitype/StillImage" />
        <dc:title></dc:title>
      </cc:Work>
    </rdf:RDF>
  </metadata>
  <sodipodi:namedview
     fit-margin-bottom="0"
     fit-margin-right="0"
     fit-margin-left="0"
     fit-margin-top="0"
     inkscape:document-rotation="0"
     pagecolor="#ffffff"
     bordercolor="#666666"
     borderopacity="1"
     objecttolerance="10"
     gridtolerance="10"
     guidetolerance="10"
     inkscape:pageopacity="0"
     inkscape:pageshadow="2"
     inkscape:window-width="640"
     inkscape:window-height="480"
     id="namedview53"
     showgrid="false"
     inkscape:current-layer="svg51" />
  <defs
     id="defs8">
    <clipPath
       id="clip1">
      <path
         d="M 55,69 H 68 V 81.1211 H 55 Z"
         id="path2" />
    </clipPath>
    <clipPath
       id="clip2">
      <path
         d="M 26,69 H 39 V 81.1211 H 26 Z"
         id="path5" />
    </clipPath>
  </defs>
  <path
     d="m 211.64159,65.125871 c -7.02982,-7e-6 -12.72862,5.698789 -12.72861,12.728609 -1e-5,7.02982 5.69879,12.72862 12.72861,12.72861 7.02982,1e-5 12.72862,-5.69879 12.72861,-12.72861 10e-6,-7.02982 -5.69879,-12.728616 -12.72861,-12.728609 z m 12.95802,22.113739 c -3.00913,4.15478 -7.82801,6.61471 -12.95802,6.614789 -5.12677,-5e-5 -9.94303,-2.456879 -12.95265,-6.607289 -10.06749,2.85198 -12.87062,15.63256 -14.76073,24.3338 h 8.85786 c 0.60348,-3.52673 1.35994,-5.02733 2.1691,-8.22054 0.0964,-0.3809 0.43649,-0.64964 0.82936,-0.65533 0.0112,-1e-4 0.0224,2e-5 0.0336,3.6e-4 0.0651,0.001 0.1298,0.01 0.19296,0.0257 0.46513,0.11798 0.74645,0.59083 0.62817,1.05589 -0.83195,3.28314 -1.46288,4.6255 -2.06512,7.7939 h 34.59302 c -0.46552,-3.00578 -1.1524,-5.91655 -2.229,-8.61652 -0.17817,-0.44571 0.039,-0.95144 0.4849,-1.12915 0.0997,-0.0398 0.20598,-0.0608 0.31337,-0.0618 0.35822,-0.003 0.68162,0.21396 0.81434,0.54671 1.1738,2.94375 1.89625,6.07271 2.37513,9.26077 h 9.411 c -0.90305,-9.36191 -7.40673,-21.79557 -15.73731,-24.3413 z"
     style="font-variation-settings:normal;opacity:1;vector-effect:none;fill:#f05030;fill-opacity:1;stroke:#000000;stroke-width:1;stroke-linecap:butt;stroke-linejoin:miter;stroke-miterlimit:4;stroke-dasharray:none;stroke-dashoffset:0;stroke-opacity:1;paint-order:stroke fill markers;stop-color:#000000;stop-opacity:1"
     id="path835"
     sodipodi:nodetypes="ssssssccccccccccccsccccss" />
  <path
     sodipodi:nodetypes="ssssssccccccccccccsccccss"
     id="path835-6"
     style="font-variation-settings:normal;opacity:1;vector-effect:none;fill:#63acbe;fill-opacity:1;stroke:#000000;stroke-width:1;stroke-linecap:butt;stroke-linejoin:miter;stroke-miterlimit:4;stroke-dasharray:none;stroke-dashoffset:0;stroke-opacity:1;paint-order:stroke fill markers;stop-color:#000000;stop-opacity:1"
     d="m 27.713123,115.29952 c -7.02982,-1e-5 -12.72861,5.69879 -12.72861,12.72861 0,7.02982 5.69879,12.72862 12.72861,12.7286 7.02983,2e-5 12.72862,-5.69878 12.72862,-12.7286 0,-7.02982 -5.69879,-12.72862 -12.72862,-12.72861 z m 12.95802,22.11373 c -3.00912,4.15478 -7.82801,6.61471 -12.95802,6.6148 -5.12677,-6e-5 -9.94302,-2.45689 -12.95265,-6.60729 C 4.6929932,140.27273 1.8898632,153.05331 -2.4681632e-4,161.75455 H 8.8576132 c 0.60348,-3.52673 1.3599398,-5.02733 2.1690998,-8.22054 0.0964,-0.38089 0.43649,-0.64964 0.82936,-0.65532 0.0112,-1e-4 0.0224,2e-5 0.0336,3.6e-4 0.0651,9.7e-4 0.1298,0.01 0.19296,0.0257 0.46513,0.11797 0.74645,0.59082 0.62817,1.05589 -0.83195,3.28314 -1.46288,4.6255 -2.06512,7.79389 h 34.59301 c -0.46552,-3.00577 -1.15239,-5.91655 -2.22899,-8.61652 -0.17818,-0.44571 0.039,-0.95144 0.48489,-1.12914 0.0997,-0.0398 0.20599,-0.0608 0.31337,-0.0618 0.35822,-0.003 0.68163,0.21396 0.81434,0.54671 1.1738,2.94375 1.89625,6.07271 2.37514,9.26077 h 9.411 c -0.90306,-9.3619 -7.40673,-21.79557 -15.73732,-24.34129 z" />
  <path
     sodipodi:nodetypes="ssssssccccccccccccsccccss"
     id="path835-4"
     style="font-variation-settings:normal;opacity:1;vector-effect:none;fill:#601a4a;fill-opacity:1;stroke:#000000;stroke-width:1;stroke-linecap:butt;stroke-linejoin:miter;stroke-miterlimit:4;stroke-dasharray:none;stroke-dashoffset:0;stroke-opacity:1;paint-order:stroke fill markers;stop-color:#000000;stop-opacity:1"
     d="m 543.7839,0 c -7.02982,0 -12.72862,5.698792 -12.72861,12.728612 -10e-6,7.02982 5.69879,12.72862 12.72861,12.72861 7.02983,10e-6 12.72862,-5.69879 12.72862,-12.72861 C 556.51252,5.698792 550.81373,0 543.7839,0 Z m 12.95802,22.113742 c -3.00913,4.15478 -7.82801,6.61471 -12.95802,6.61479 -5.12677,-5e-5 -9.94303,-2.45688 -12.95265,-6.60729 -10.06749,2.85198 -12.87062,15.63256 -14.76073,24.3338 h 8.85786 c 0.60348,-3.52673 1.35994,-5.02733 2.16911,-8.22054 0.0964,-0.3809 0.43649,-0.64964 0.82936,-0.65533 0.0112,-1e-4 0.0224,2e-5 0.0336,3.6e-4 0.0651,9.8e-4 0.1298,0.01 0.19296,0.0257 0.46512,0.11798 0.74645,0.59083 0.62816,1.05589 -0.83195,3.28314 -1.46287,4.6255 -2.06512,7.7939 h 34.59302 c -0.46552,-3.00578 -1.15239,-5.91655 -2.22899,-8.61652 -0.17818,-0.44571 0.039,-0.95144 0.48489,-1.12915 0.0997,-0.0398 0.20599,-0.0608 0.31337,-0.0618 0.35822,-0.003 0.68163,0.21396 0.81434,0.54671 1.1738,2.94375 1.89626,6.07271 2.37514,9.26077 h 9.411 c -0.90306,-9.36191 -7.40673,-21.79557 -15.73731,-24.3413 z" />
  <path
     d="m 381.34363,124.70707 c -7.02982,-1e-5 -12.72861,5.69879 -12.72861,12.72861 0,7.02982 5.69879,12.72862 12.72861,12.72861 7.02983,1e-5 12.72862,-5.69879 12.72862,-12.72861 0,-7.02982 -5.69879,-12.72862 -12.72862,-12.72861 z m 12.95802,22.11374 c -3.00912,4.15478 -7.82801,6.61471 -12.95802,6.61479 -5.12677,-5e-5 -9.94302,-2.45688 -12.95265,-6.60729 -10.06748,2.85198 -12.87061,15.63256 -14.76072,24.3338 h 8.85786 c 0.60348,-3.52673 1.35994,-5.02733 2.1691,-8.22054 0.0964,-0.3809 0.43649,-0.64964 0.82936,-0.65533 0.0112,-1e-4 0.0224,2e-5 0.0336,3.6e-4 0.0651,9.7e-4 0.1298,0.01 0.19296,0.0257 0.46513,0.11798 0.74645,0.59083 0.62817,1.05589 -0.83195,3.28314 -1.46288,4.6255 -2.06512,7.7939 h 34.59301 c -0.46552,-3.00578 -1.15239,-5.91655 -2.22899,-8.61652 -0.17818,-0.44571 0.039,-0.95144 0.48489,-1.12915 0.0997,-0.0398 0.20599,-0.0608 0.31337,-0.0618 0.35822,-0.003 0.68163,0.21396 0.81434,0.54671 1.1738,2.94375 1.89625,6.07271 2.37514,9.26077 h 9.411 c -0.90305,-9.36191 -7.40673,-21.79557 -15.73732,-24.3413 z"
     style="font-variation-settings:normal;opacity:1;vector-effect:none;fill:#63acbe;fill-opacity:1;stroke:#000000;stroke-width:1;stroke-linecap:butt;stroke-linejoin:miter;stroke-miterlimit:4;stroke-dasharray:none;stroke-dashoffset:0;stroke-opacity:1;paint-order:stroke fill markers;stop-color:#000000;stop-opacity:1"
     id="path835-6-3"
     sodipodi:nodetypes="ssssssccccccccccccsccccss" />
  <path
     sodipodi:nodetypes="ssssssccccccccccccsccccss"
     id="path835-60"
     style="font-variation-settings:normal;opacity:1;vector-effect:none;fill:#f05030;fill-opacity:1;stroke:#000000;stroke-width:1;stroke-linecap:butt;stroke-linejoin:miter;stroke-miterlimit:4;stroke-dasharray:none;stroke-dashoffset:0;stroke-opacity:1;paint-order:stroke fill markers;stop-color:#000000;stop-opacity:1"
     d="m 626.34054,174.88072 c -7.02981,-1e-5 -12.72861,5.69878 -12.7286,12.7286 -10e-6,7.02983 5.69879,12.72863 12.7286,12.72862 7.02982,1e-5 12.72862,-5.69879 12.72861,-12.72862 10e-6,-7.02982 -5.69879,-12.72861 -12.72861,-12.7286 z m 12.95802,22.11374 c -3.00913,4.15478 -7.82801,6.61471 -12.95802,6.61479 -5.12676,-5e-5 -9.94302,-2.45689 -12.95264,-6.6073 -10.06749,2.85199 -12.87063,15.63256 -14.76074,24.3338 h 8.85787 c 0.60348,-3.52673 1.35994,-5.02733 2.1691,-8.22054 0.0964,-0.3809 0.43649,-0.64964 0.82936,-0.65533 0.0112,-1e-4 0.0224,2e-5 0.0336,3.6e-4 0.0651,9.8e-4 0.1298,0.01 0.19296,0.0257 0.46513,0.11798 0.74645,0.59083 0.62817,1.05589 -0.83195,3.28314 -1.46288,4.6255 -2.06512,7.7939 h 34.59301 c -0.46552,-3.00578 -1.1524,-5.91655 -2.229,-8.61652 -0.17817,-0.44571 0.039,-0.95144 0.4849,-1.12915 0.0997,-0.0398 0.20598,-0.0608 0.31337,-0.0618 0.35822,-0.003 0.68162,0.21396 0.81434,0.54671 1.1738,2.94375 1.89625,6.07271 2.37513,9.26077 h 9.411 c -0.90305,-9.36191 -7.40673,-21.79556 -15.73731,-24.34129 z" />
  <path
     d="m 535.74711,317.42867 c -7.02982,0 -12.72862,5.69879 -12.72861,12.72861 -10e-6,7.02982 5.69879,12.72862 12.72861,12.72861 7.02983,10e-6 12.72862,-5.69879 12.72862,-12.72861 0,-7.02982 -5.69879,-12.72861 -12.72862,-12.72861 z m 12.95802,22.11374 c -3.00913,4.15478 -7.82801,6.61471 -12.95802,6.61479 -5.12677,-5e-5 -9.94303,-2.45688 -12.95265,-6.60729 -10.06749,2.85198 -12.87062,15.63256 -14.76073,24.3338 h 8.85786 c 0.60348,-3.52673 1.35994,-5.02733 2.16911,-8.22054 0.0964,-0.3809 0.43649,-0.64964 0.82936,-0.65533 0.0112,-10e-5 0.0224,2e-5 0.0336,3.6e-4 0.0651,9.7e-4 0.1298,0.01 0.19296,0.0257 0.46512,0.11798 0.74645,0.59083 0.62816,1.05589 -0.83195,3.28314 -1.46287,4.6255 -2.06512,7.7939 h 34.59302 c -0.46552,-3.00578 -1.15239,-5.91655 -2.22899,-8.61652 -0.17818,-0.44571 0.039,-0.95144 0.48489,-1.12915 0.0997,-0.0398 0.20599,-0.0608 0.31337,-0.0618 0.35822,-0.003 0.68163,0.21396 0.81434,0.54671 1.1738,2.94375 1.89626,6.07271 2.37514,9.26077 h 9.411 c -0.90306,-9.36191 -7.40673,-21.79557 -15.73731,-24.3413 z"
     style="font-variation-settings:normal;opacity:1;vector-effect:none;fill:#601a4a;fill-opacity:1;stroke:#000000;stroke-width:1;stroke-linecap:butt;stroke-linejoin:miter;stroke-miterlimit:4;stroke-dasharray:none;stroke-dashoffset:0;stroke-opacity:1;paint-order:stroke fill markers;stop-color:#000000;stop-opacity:1"
     id="path835-4-4"
     sodipodi:nodetypes="ssssssccccccccccccsccccss" />
  <path
     sodipodi:nodetypes="ssssssccccccccccccsccccss"
     id="path835-6-3-1"
     style="font-variation-settings:normal;opacity:1;vector-effect:none;fill:#63acbe;fill-opacity:1;stroke:#000000;stroke-width:1;stroke-linecap:butt;stroke-linejoin:miter;stroke-miterlimit:4;stroke-dasharray:none;stroke-dashoffset:0;stroke-opacity:1;paint-order:stroke fill markers;stop-color:#000000;stop-opacity:1"
     d="m 334.45542,298.92108 c -7.02983,-1e-5 -12.72861,5.69879 -12.72861,12.72861 0,7.02982 5.69878,12.72862 12.72861,12.72861 7.02983,10e-6 12.72862,-5.69879 12.72862,-12.72861 0,-7.02982 -5.69879,-12.72862 -12.72862,-12.72861 z m 12.95802,22.11374 c -3.00912,4.15478 -7.82801,6.61471 -12.95802,6.61479 -5.12677,-5e-5 -9.94303,-2.45688 -12.95266,-6.60729 -10.06748,2.85198 -12.87061,15.63256 -14.76072,24.3338 h 8.85786 c 0.60348,-3.52673 1.35994,-5.02733 2.16911,-8.22054 0.0964,-0.3809 0.43649,-0.64964 0.82936,-0.65533 0.0112,-10e-5 0.0224,2e-5 0.0336,3.6e-4 0.0651,9.8e-4 0.1298,0.01 0.19296,0.0257 0.46512,0.11798 0.74645,0.59083 0.62816,1.05589 -0.83195,3.28314 -1.46287,4.6255 -2.06512,7.7939 h 34.59302 c -0.46552,-3.00578 -1.15239,-5.91655 -2.22899,-8.61652 -0.17818,-0.44571 0.039,-0.95144 0.48489,-1.12915 0.0997,-0.0398 0.20599,-0.0608 0.31337,-0.0618 0.35822,-0.003 0.68163,0.21396 0.81434,0.54671 1.1738,2.94375 1.89625,6.07271 2.37514,9.26077 h 9.411 c -0.90305,-9.36191 -7.40673,-21.79557 -15.73732,-24.3413 z" />
  <path
     sodipodi:nodetypes="ssssssccccccccccccsccccss"
     id="path835-8"
     style="font-variation-settings:normal;opacity:1;vector-effect:none;fill:#f05030;fill-opacity:1;stroke:#000000;stroke-width:1;stroke-linecap:butt;stroke-linejoin:miter;stroke-miterlimit:4;stroke-dasharray:none;stroke-dashoffset:0;stroke-opacity:1;paint-order:stroke fill markers;stop-color:#000000;stop-opacity:1"
     d="m 182.35928,193.70478 c -7.02982,-1e-5 -12.72862,5.69879 -12.72861,12.72861 -1e-5,7.02982 5.69879,12.72862 12.72861,12.72861 7.02982,1e-5 12.72862,-5.69879 12.72861,-12.72861 1e-5,-7.02982 -5.69879,-12.72862 -12.72861,-12.72861 z m 12.95802,22.11374 c -3.00913,4.15478 -7.82801,6.61471 -12.95802,6.61479 -5.12677,-5e-5 -9.94303,-2.45688 -12.95265,-6.60729 -10.06749,2.85198 -12.87062,15.63256 -14.76073,24.3338 h 8.85786 c 0.60348,-3.52673 1.35994,-5.02733 2.1691,-8.22054 0.0964,-0.3809 0.43649,-0.64964 0.82936,-0.65533 0.0112,-1e-4 0.0224,2e-5 0.0336,3.6e-4 0.0651,9.7e-4 0.1298,0.01 0.19296,0.0257 0.46513,0.11798 0.74645,0.59083 0.62817,1.05589 -0.83195,3.28314 -1.46288,4.6255 -2.06512,7.7939 h 34.59302 c -0.46552,-3.00578 -1.1524,-5.91655 -2.229,-8.61652 -0.17817,-0.44571 0.039,-0.95144 0.4849,-1.12915 0.0997,-0.0398 0.20598,-0.0608 0.31337,-0.0618 0.35822,-0.003 0.68162,0.21396 0.81434,0.54671 1.1738,2.94375 1.89625,6.07271 2.37513,9.26077 h 9.411 c -0.90305,-9.36191 -7.40673,-21.79557 -15.73731,-24.3413 z" />
  <path
     style="fill:#ffcc00;stroke:#000000;stroke-width:0.502215px;stroke-linecap:butt;stroke-linejoin:miter;stroke-opacity:1"
     d="m 446.07313,182.73061 48.01657,-7.99123 3.65709,13.49427 28.07985,-2.4875 5.0134,10.52053 39.04193,2.53549 -48.12142,6.29458 -6.26593,-10.02186 -23.59113,2.43882 -6.78902,-14.33346 z"
     id="path1092" />
  <path
     id="path1092-0"
     d="m 405.04244,128.84301 28.30221,-39.603495 12.12782,6.955943 18.09653,-21.614382 10.98415,3.894124 29.39967,-25.813944 -29.57604,38.477919 -11.51719,-2.655842 -14.95697,18.405957 -14.93583,-5.33473 z"
     style="fill:#ffcc00;stroke:#000000;stroke-width:0.502215px;stroke-linecap:butt;stroke-linejoin:miter;stroke-opacity:1" />
  <path
     id="path1092-5"
     d="m 556.11532,57.715069 30.9289,37.587958 -9.85783,9.914273 16.19416,23.0741 -6.60434,9.602 17.32516,35.07905 -29.51198,-38.52709 5.54622,-10.43737 -13.90765,-19.21111 9.01863,-13.046213 z"
     style="fill:#ffcc00;stroke:#000000;stroke-width:0.502215px;stroke-linecap:butt;stroke-linejoin:miter;stroke-opacity:1" />
  <path
     id="path1092-7"
     d="m 239.59959,87.2396 48.44874,4.708671 0.0399,13.980989 27.76685,4.86486 2.11967,11.45961 37.05538,12.5539 -48.11088,-6.37465 -3.45858,-11.30211 -23.41849,-3.75012 -2.84792,-15.60219 z"
     style="fill:#ffcc00;stroke:#000000;stroke-width:0.502215px;stroke-linecap:butt;stroke-linejoin:miter;stroke-opacity:1" />
  <path
     style="fill:#ffcc00;stroke:#000000;stroke-width:0.502215px;stroke-linecap:butt;stroke-linejoin:miter;stroke-opacity:1"
     d="m 169.191,89.852721 -48.44874,4.708671 -0.0399,13.980988 -27.766847,4.86486 -2.11967,11.45961 -37.05537,12.5539 48.110867,-6.37465 3.45858,-11.30211 23.41849,-3.75012 2.84792,-15.60219 z"
     id="path1092-7-6" />
  <path
     id="path1092-7-6-5"
     d="m 27.030243,175.2395 48.44874,4.70867 0.0399,13.98099 27.766847,4.86486 2.11967,11.45961 37.05538,12.5539 -48.110877,-6.37465 -3.45858,-11.30211 -23.41849,-3.75012 -2.84791,-15.60219 z"
     style="fill:#ffcc00;stroke:#000000;stroke-width:0.502215px;stroke-linecap:butt;stroke-linejoin:miter;stroke-opacity:1" />
  <path
     style="fill:#ffcc00;stroke:#000000;stroke-width:0.502215px;stroke-linecap:butt;stroke-linejoin:miter;stroke-opacity:1"
     d="m 340.75326,179.18536 -48.44874,4.70867 -0.0399,13.98099 -27.76685,4.86487 -2.11967,11.45961 -37.05537,12.5539 48.11087,-6.37465 3.45858,-11.30212 23.41849,-3.75012 2.84791,-15.60219 z"
     id="path1092-7-6-5-8" />
  <path
     id="path1092-7-6-5-8-9"
     d="m 288.94938,321.04232 -28.3022,-39.60351 -12.12784,6.95595 -18.09652,-21.61437 -10.98416,3.89413 -29.39967,-25.81395 29.57603,38.47792 11.51722,-2.65585 14.95695,18.40595 14.93584,-5.33475 z"
     style="fill:#ffcc00;stroke:#000000;stroke-width:0.502215px;stroke-linecap:butt;stroke-linejoin:miter;stroke-opacity:1" />
  <path
     id="path1092-7-6-5-8-3"
     d="m 495.46309,345.33798 -44.31218,-20.14652 -7.02503,12.08792 -26.47926,-9.67031 -7.56547,8.86446 -38.36784,-7.65568 44.85255,18.53483 8.64627,-8.05864 22.15607,8.46154 10.26747,-12.08795 z"
     style="fill:#ffcc00;stroke:#000000;stroke-width:0.502215px;stroke-linecap:butt;stroke-linejoin:miter;stroke-opacity:1" />
  <path
     style="fill:#ffcc00;stroke:#000000;stroke-width:0.502215px;stroke-linecap:butt;stroke-linejoin:miter;stroke-opacity:1"
     d="m 617.55014,229.22747 -30.92891,37.58796 9.85783,9.91427 -16.19416,23.0741 6.60434,9.602 -17.32516,35.07906 29.51198,-38.5271 -5.54622,-10.43737 13.90765,-19.21111 -9.01863,-13.04621 z"
     id="path1092-5-0" />
</svg>
