<?xml version="1.0" encoding="UTF-8" standalone="no"?>
<svg
   xmlns:dc="http://purl.org/dc/elements/1.1/"
   xmlns:cc="http://creativecommons.org/ns#"
   xmlns:rdf="http://www.w3.org/1999/02/22-rdf-syntax-ns#"
   xmlns:svg="http://www.w3.org/2000/svg"
   xmlns="http://www.w3.org/2000/svg"
   xmlns:sodipodi="http://sodipodi.sourceforge.net/DTD/sodipodi-0.dtd"
   xmlns:inkscape="http://www.inkscape.org/namespaces/inkscape"
   inkscape:version="1.0 (4035a4fb49, 2020-05-01)"
   sodipodi:docname="2021-PH-03-explan1.svg"
   id="svg712"
   style="clip-rule:evenodd;fill-rule:evenodd;stroke-linecap:round;stroke-linejoin:round;stroke-miterlimit:1.5"
   xml:space="preserve"
   version="1.1"
   viewBox="0 0 1374.5914 971.70636"
   height="971.70636"
   width="1374.5914"><metadata
   id="metadata718"><rdf:RDF><cc:Work
       rdf:about=""><dc:format>image/svg+xml</dc:format><dc:type
         rdf:resource="http://purl.org/dc/dcmitype/StillImage" /><dc:title></dc:title></cc:Work></rdf:RDF></metadata><defs
   id="defs716" /><sodipodi:namedview
   fit-margin-bottom="0"
   fit-margin-right="0"
   fit-margin-left="0"
   fit-margin-top="0"
   inkscape:current-layer="g708"
   showgrid="false"
   id="namedview714"
   inkscape:window-height="480"
   inkscape:window-width="640"
   inkscape:pageshadow="2"
   inkscape:pageopacity="0"
   guidetolerance="10"
   gridtolerance="10"
   objecttolerance="10"
   borderopacity="1"
   bordercolor="#666666"
   pagecolor="#ffffff" />
    <g
   id="g710"
   transform="translate(-1378.6283,-3040.1719)">
        <g
   id="g708">
            
            
            
            
            
            
            
            
            
            
            
            
            
            
            
            
            
            
            
        <g
   transform="translate(82.441997,46.916565)"
   id="g2639"><g
     transform="translate(1344.7501,1899.036)"
     id="g32"
     style="clip-rule:evenodd;fill-rule:evenodd;stroke-linecap:round;stroke-linejoin:round;stroke-miterlimit:1.5"><g
       transform="translate(-724.184,1658.35)"
       id="g4"><path
         d="m 1067.11,137.848 c -0.37,4.116 1.65,137.863 1.06,142.504 -0.19,1.567 -1,4.291 -0.45,5.945 0.23,0.703 2.05,0.561 2.51,0.457 4.08,-0.906 169.35,-2.058 178.8,-2.058 2.72,0 8.67,0.245 10.75,-1.829 0.45,-0.445 -1.24,-146.358 -1.24,-146.404 -0.05,-2.957 -187.78,0.837 -191.43,1.385 z"
         style="fill:#ffffff"
         id="path2" /></g><g
       transform="matrix(0.857919,0,0,1,237.269,-65.5475)"
       id="g8"><path
         d="m 122.835,1859.6 c -0.256,-0.28 129.055,69.15 129.055,70.02 0,2.03 -111.159,70.96 -127.417,78.7 -1.049,0.5 -1.638,-149.99 -1.638,-148.72 z"
         style="fill:#e30011;stroke:#000000;stroke-width:3.13px"
         id="path6" /></g><g
       transform="matrix(0.776868,0,0,1,193.926,87.2696)"
       id="g30"><g
         id="g28"><path
           d="m 190.214,1708.05 c -1.24,-1.03 0.327,115.89 0.327,148.47"
           style="fill:#ffffff"
           id="path10" /><path
           d="m 193.811,1708.88 c 0.368,-0.96 0.088,-2.04 -0.856,-2.83 -1.079,-0.89 -2.277,-1.02 -3.332,-0.89 -0.787,0.09 -1.747,0.37 -2.517,1.22 -0.173,0.19 -0.426,0.5 -0.592,1 -0.112,0.33 -0.273,1.58 -0.345,3.62 -0.651,18.49 0.618,116.18 0.618,145.52 0,1.61 1.682,2.92 3.754,2.92 2.072,0 3.755,-1.31 3.755,-2.92 0,-29.31 -1.271,-126.89 -0.621,-145.37 0.034,-0.95 0.103,-1.87 0.136,-2.27 z m -2.785,2.01 c -1.252,0.22 -2.613,-0.07 -3.552,-0.85 1.158,0.96 2.395,1.1 3.552,0.85 z"
           id="path12" /><path
           d="m 190.926,1707.4 c 83.42,-0.57 162.93,-1.33 246.176,-1.33"
           style="fill:#ffffff"
           id="path14" /><path
           d="m 190.959,1710.31 c 83.408,-0.56 162.908,-1.32 246.143,-1.32 2.072,0 3.754,-1.31 3.754,-2.92 0,-1.61 -1.682,-2.92 -3.754,-2.92 -83.257,0 -162.778,0.76 -246.208,1.33 -2.072,0.02 -3.74,1.33 -3.722,2.94 0.018,1.61 1.715,2.91 3.787,2.89 z"
           id="path16" /><path
           d="m 436.895,1706.55 c -0.62,19.84 1.336,117.22 1.336,146.57"
           style="fill:#ffffff"
           id="path18" /><path
           d="m 433.142,1706.47 c -0.62,19.86 1.335,117.29 1.335,146.65 0,1.62 1.682,2.92 3.754,2.92 2.072,0 3.754,-1.3 3.754,-2.92 0,-29.33 -1.956,-126.67 -1.337,-146.5 0.05,-1.61 -1.591,-2.95 -3.662,-2.99 -2.072,-0.04 -3.794,1.24 -3.844,2.84 z"
           id="path20" /><g
           transform="translate(1.23839,2.48673)"
           id="g26"><path
             d="m 191.084,1854.4 c -2.518,0.04 241.846,-1.98 246.538,-1.98"
             style="fill:#ffffff"
             id="path22" /><path
             d="m 191.088,1851.49 h -0.081 c -0.926,0.01 -1.369,0.22 -1.391,0.22 -0.13,0.05 -3.557,5.6 1.449,5.61 v 0 0 h 0.018 c 0.215,0 2.402,-0.01 6.204,-0.04 37.787,-0.3 236.113,-1.94 240.335,-1.94 2.072,0 3.754,-1.31 3.754,-2.92 0,-1.61 -1.682,-2.91 -3.754,-2.91 -4.224,0 -202.612,1.63 -240.411,1.93 -3.757,0.03 -6.13,0.05 -6.13,0.05 z m 1.345,5.64 c -0.395,0.12 -0.823,0.18 -1.271,0.19 0.694,-0.01 1.108,-0.14 1.271,-0.19 z m 0.78,-0.32 -0.04,0.02 0.013,-0.01 z m 0.972,-0.76 c -0.248,0.28 -0.559,0.53 -0.916,0.73 0.424,-0.23 0.713,-0.49 0.916,-0.73 z m -2.199,-4.48 c 0.96,0.19 1.777,0.66 2.287,1.3 -0.28,-0.4 -0.91,-1.05 -2.287,-1.3 z"
             id="path24" /></g></g></g></g><g
     transform="translate(1114.1188,1704.9)"
     id="g64"
     style="clip-rule:evenodd;fill-rule:evenodd;stroke-linecap:round;stroke-linejoin:round;stroke-miterlimit:1.5"><g
       transform="translate(-724.184,1658.35)"
       id="g36"><path
         d="m 1067.11,137.848 c -0.37,4.116 1.65,137.863 1.06,142.504 -0.19,1.567 -1,4.291 -0.45,5.945 0.23,0.703 2.05,0.561 2.51,0.457 4.08,-0.906 169.35,-2.058 178.8,-2.058 2.72,0 8.67,0.245 10.75,-1.829 0.45,-0.445 -1.24,-146.358 -1.24,-146.404 -0.05,-2.957 -187.78,0.837 -191.43,1.385 z"
         style="fill:#ffffff"
         id="path34" /></g><g
       transform="matrix(0.857919,0,0,1,237.269,-65.5475)"
       id="g40"><path
         d="m 122.835,1859.6 c -0.256,-0.28 129.055,69.15 129.055,70.02 0,2.03 -111.159,70.96 -127.417,78.7 -1.049,0.5 -1.638,-149.99 -1.638,-148.72 z"
         style="fill:#e30011;stroke:#000000;stroke-width:3.13px"
         id="path38" /></g><g
       transform="matrix(0.776868,0,0,1,193.926,87.2696)"
       id="g62"><g
         id="g60"><path
           d="m 190.214,1708.05 c -1.24,-1.03 0.327,115.89 0.327,148.47"
           style="fill:#ffffff"
           id="path42" /><path
           d="m 193.811,1708.88 c 0.368,-0.96 0.088,-2.04 -0.856,-2.83 -1.079,-0.89 -2.277,-1.02 -3.332,-0.89 -0.787,0.09 -1.747,0.37 -2.517,1.22 -0.173,0.19 -0.426,0.5 -0.592,1 -0.112,0.33 -0.273,1.58 -0.345,3.62 -0.651,18.49 0.618,116.18 0.618,145.52 0,1.61 1.682,2.92 3.754,2.92 2.072,0 3.755,-1.31 3.755,-2.92 0,-29.31 -1.271,-126.89 -0.621,-145.37 0.034,-0.95 0.103,-1.87 0.136,-2.27 z m -2.785,2.01 c -1.252,0.22 -2.613,-0.07 -3.552,-0.85 1.158,0.96 2.395,1.1 3.552,0.85 z"
           id="path44" /><path
           d="m 190.926,1707.4 c 83.42,-0.57 162.93,-1.33 246.176,-1.33"
           style="fill:#ffffff"
           id="path46" /><path
           d="m 190.959,1710.31 c 83.408,-0.56 162.908,-1.32 246.143,-1.32 2.072,0 3.754,-1.31 3.754,-2.92 0,-1.61 -1.682,-2.92 -3.754,-2.92 -83.257,0 -162.778,0.76 -246.208,1.33 -2.072,0.02 -3.74,1.33 -3.722,2.94 0.018,1.61 1.715,2.91 3.787,2.89 z"
           id="path48" /><path
           d="m 436.895,1706.55 c -0.62,19.84 1.336,117.22 1.336,146.57"
           style="fill:#ffffff"
           id="path50" /><path
           d="m 433.142,1706.47 c -0.62,19.86 1.335,117.29 1.335,146.65 0,1.62 1.682,2.92 3.754,2.92 2.072,0 3.754,-1.3 3.754,-2.92 0,-29.33 -1.956,-126.67 -1.337,-146.5 0.05,-1.61 -1.591,-2.95 -3.662,-2.99 -2.072,-0.04 -3.794,1.24 -3.844,2.84 z"
           id="path52" /><g
           transform="translate(1.23839,2.48673)"
           id="g58"><path
             d="m 191.084,1854.4 c -2.518,0.04 241.846,-1.98 246.538,-1.98"
             style="fill:#ffffff"
             id="path54" /><path
             d="m 191.088,1851.49 h -0.081 c -0.926,0.01 -1.369,0.22 -1.391,0.22 -0.13,0.05 -3.557,5.6 1.449,5.61 v 0 0 h 0.018 c 0.215,0 2.402,-0.01 6.204,-0.04 37.787,-0.3 236.113,-1.94 240.335,-1.94 2.072,0 3.754,-1.31 3.754,-2.92 0,-1.61 -1.682,-2.91 -3.754,-2.91 -4.224,0 -202.612,1.63 -240.411,1.93 -3.757,0.03 -6.13,0.05 -6.13,0.05 z m 1.345,5.64 c -0.395,0.12 -0.823,0.18 -1.271,0.19 0.694,-0.01 1.108,-0.14 1.271,-0.19 z m 0.78,-0.32 -0.04,0.02 0.013,-0.01 z m 0.972,-0.76 c -0.248,0.28 -0.559,0.53 -0.916,0.73 0.424,-0.23 0.713,-0.49 0.916,-0.73 z m -2.199,-4.48 c 0.96,0.19 1.777,0.66 2.287,1.3 -0.28,-0.4 -0.91,-1.05 -2.287,-1.3 z"
             id="path56" /></g></g></g></g><g
     transform="translate(336.26482,2199.404)"
     id="g92"
     style="clip-rule:evenodd;fill-rule:evenodd;stroke-linecap:round;stroke-linejoin:round;stroke-miterlimit:1.5"><g
       transform="translate(1145.09,-419.013)"
       id="g68"><path
         d="m 343.664,1800.26 c 7.979,-16.84 8.015,-60.32 -42.408,-54.17 -37.6,4.59 -41.859,54.48 -9.833,71.36 19.232,10.13 44.11,-0.04 52.241,-17.19 z"
         style="fill:#ffcd00;stroke:#000000;stroke-width:2.92px"
         id="path66" /></g><g
       transform="matrix(0.776868,0,0,1,1212.62,-418.208)"
       id="g90"><g
         id="g88"><path
           d="m 190.214,1708.05 c -1.24,-1.03 0.327,115.89 0.327,148.47"
           style="fill:#ffffff"
           id="path70" /><path
           d="m 193.811,1708.88 c 0.368,-0.96 0.088,-2.04 -0.856,-2.83 -1.079,-0.89 -2.277,-1.02 -3.332,-0.89 -0.787,0.09 -1.747,0.37 -2.517,1.22 -0.173,0.19 -0.426,0.5 -0.592,1 -0.112,0.33 -0.273,1.58 -0.345,3.62 -0.651,18.49 0.618,116.18 0.618,145.52 0,1.61 1.682,2.92 3.754,2.92 2.072,0 3.755,-1.31 3.755,-2.92 0,-29.31 -1.271,-126.89 -0.621,-145.37 0.034,-0.95 0.103,-1.87 0.136,-2.27 z m -2.785,2.01 c -1.252,0.22 -2.613,-0.07 -3.552,-0.85 1.158,0.96 2.395,1.1 3.552,0.85 z"
           id="path72" /><path
           d="m 190.926,1707.4 c 83.42,-0.57 162.93,-1.33 246.176,-1.33"
           style="fill:#ffffff"
           id="path74" /><path
           d="m 190.959,1710.31 c 83.408,-0.56 162.908,-1.32 246.143,-1.32 2.072,0 3.754,-1.31 3.754,-2.92 0,-1.61 -1.682,-2.92 -3.754,-2.92 -83.257,0 -162.778,0.76 -246.208,1.33 -2.072,0.02 -3.74,1.33 -3.722,2.94 0.018,1.61 1.715,2.91 3.787,2.89 z"
           id="path76" /><path
           d="m 436.895,1706.55 c -0.62,19.84 1.336,117.22 1.336,146.57"
           style="fill:#ffffff"
           id="path78" /><path
           d="m 433.142,1706.47 c -0.62,19.86 1.335,117.29 1.335,146.65 0,1.62 1.682,2.92 3.754,2.92 2.072,0 3.754,-1.3 3.754,-2.92 0,-29.33 -1.956,-126.67 -1.337,-146.5 0.05,-1.61 -1.591,-2.95 -3.662,-2.99 -2.072,-0.04 -3.794,1.24 -3.844,2.84 z"
           id="path80" /><g
           transform="translate(1.23839,2.48673)"
           id="g86"><path
             d="m 191.084,1854.4 c -2.518,0.04 241.846,-1.98 246.538,-1.98"
             style="fill:#ffffff"
             id="path82" /><path
             d="m 191.088,1851.49 h -0.081 c -0.926,0.01 -1.369,0.22 -1.391,0.22 -0.13,0.05 -3.557,5.6 1.449,5.61 v 0 0 h 0.018 c 0.215,0 2.402,-0.01 6.204,-0.04 37.787,-0.3 236.113,-1.94 240.335,-1.94 2.072,0 3.754,-1.31 3.754,-2.92 0,-1.61 -1.682,-2.91 -3.754,-2.91 -4.224,0 -202.612,1.63 -240.411,1.93 -3.757,0.03 -6.13,0.05 -6.13,0.05 z m 1.345,5.64 c -0.395,0.12 -0.823,0.18 -1.271,0.19 0.694,-0.01 1.108,-0.14 1.271,-0.19 z m 0.78,-0.32 -0.04,0.02 0.013,-0.01 z m 0.972,-0.76 c -0.248,0.28 -0.559,0.53 -0.916,0.73 0.424,-0.23 0.713,-0.49 0.916,-0.73 z m -2.199,-4.48 c 0.96,0.19 1.777,0.66 2.287,1.3 -0.28,-0.4 -0.91,-1.05 -2.287,-1.3 z"
             id="path84" /></g></g></g></g><g
     transform="translate(1208.753,1588.431)"
     id="g118"
     style="clip-rule:evenodd;fill-rule:evenodd;stroke-linecap:round;stroke-linejoin:round;stroke-miterlimit:1.5"><g
       transform="matrix(1,0,0,1.15377,0,-256.31)"
       id="g96"><path
         d="m 348.166,1722.79 191.543,-2.45 -1.051,-53.16 -190.346,-0.3 z"
         style="fill:#009429;stroke:#000000;stroke-width:2.7px"
         id="path94" /></g><g
       transform="matrix(0.776868,0,0,1,200.127,-40.4722)"
       id="g116"><path
         d="m 190.214,1708.05 c -1.24,-1.03 0.327,115.89 0.327,148.47"
         style="fill:#ffffff"
         id="path98" /><path
         d="m 193.811,1708.88 c 0.368,-0.96 0.088,-2.04 -0.856,-2.83 -1.079,-0.89 -2.277,-1.02 -3.332,-0.89 -0.787,0.09 -1.747,0.37 -2.517,1.22 -0.173,0.19 -0.426,0.5 -0.592,1 -0.112,0.33 -0.273,1.58 -0.345,3.62 -0.651,18.49 0.618,116.18 0.618,145.52 0,1.61 1.682,2.92 3.754,2.92 2.072,0 3.755,-1.31 3.755,-2.92 0,-29.31 -1.271,-126.89 -0.621,-145.37 0.034,-0.95 0.103,-1.87 0.136,-2.27 z m -2.785,2.01 c -1.252,0.22 -2.613,-0.07 -3.552,-0.85 1.158,0.96 2.395,1.1 3.552,0.85 z"
         id="path100" /><path
         d="m 190.926,1707.4 c 83.42,-0.57 162.93,-1.33 246.176,-1.33"
         style="fill:#ffffff"
         id="path102" /><path
         d="m 190.959,1710.31 c 83.408,-0.56 162.908,-1.32 246.143,-1.32 2.072,0 3.754,-1.31 3.754,-2.92 0,-1.61 -1.682,-2.92 -3.754,-2.92 -83.257,0 -162.778,0.76 -246.208,1.33 -2.072,0.02 -3.74,1.33 -3.722,2.94 0.018,1.61 1.715,2.91 3.787,2.89 z"
         id="path104" /><path
         d="m 436.895,1706.55 c -0.62,19.84 1.336,117.22 1.336,146.57"
         style="fill:#ffffff"
         id="path106" /><path
         d="m 433.142,1706.47 c -0.62,19.86 1.335,117.29 1.335,146.65 0,1.62 1.682,2.92 3.754,2.92 2.072,0 3.754,-1.3 3.754,-2.92 0,-29.33 -1.956,-126.67 -1.337,-146.5 0.05,-1.61 -1.591,-2.95 -3.662,-2.99 -2.072,-0.04 -3.794,1.24 -3.844,2.84 z"
         id="path108" /><g
         transform="translate(1.23839,2.48673)"
         id="g114"><path
           d="m 191.084,1854.4 c -2.518,0.04 241.846,-1.98 246.538,-1.98"
           style="fill:#ffffff"
           id="path110" /><path
           d="m 191.088,1851.49 h -0.081 c -0.926,0.01 -1.369,0.22 -1.391,0.22 -0.13,0.05 -3.557,5.6 1.449,5.61 v 0 0 h 0.018 c 0.215,0 2.402,-0.01 6.204,-0.04 37.787,-0.3 236.113,-1.94 240.335,-1.94 2.072,0 3.754,-1.31 3.754,-2.92 0,-1.61 -1.682,-2.91 -3.754,-2.91 -4.224,0 -202.612,1.63 -240.411,1.93 -3.757,0.03 -6.13,0.05 -6.13,0.05 z m 1.345,5.64 c -0.395,0.12 -0.823,0.18 -1.271,0.19 0.694,-0.01 1.108,-0.14 1.271,-0.19 z m 0.78,-0.32 -0.04,0.02 0.013,-0.01 z m 0.972,-0.76 c -0.248,0.28 -0.559,0.53 -0.916,0.73 0.424,-0.23 0.713,-0.49 0.916,-0.73 z m -2.199,-4.48 c 0.96,0.19 1.777,0.66 2.287,1.3 -0.28,-0.4 -0.91,-1.05 -2.287,-1.3 z"
           id="path112" /></g></g></g><g
     transform="translate(1346.0468,1383.924)"
     id="g144"
     style="clip-rule:evenodd;fill-rule:evenodd;stroke-linecap:round;stroke-linejoin:round;stroke-miterlimit:1.5"><g
       transform="matrix(1,0,0,1.15377,0,-256.31)"
       id="g122"><path
         d="m 348.166,1722.79 191.543,-2.45 -1.051,-53.16 -190.346,-0.3 z"
         style="fill:#009429;stroke:#000000;stroke-width:2.7px"
         id="path120" /></g><g
       transform="matrix(0.776868,0,0,1,200.127,-40.4722)"
       id="g142"><path
         d="m 190.214,1708.05 c -1.24,-1.03 0.327,115.89 0.327,148.47"
         style="fill:#ffffff"
         id="path124" /><path
         d="m 193.811,1708.88 c 0.368,-0.96 0.088,-2.04 -0.856,-2.83 -1.079,-0.89 -2.277,-1.02 -3.332,-0.89 -0.787,0.09 -1.747,0.37 -2.517,1.22 -0.173,0.19 -0.426,0.5 -0.592,1 -0.112,0.33 -0.273,1.58 -0.345,3.62 -0.651,18.49 0.618,116.18 0.618,145.52 0,1.61 1.682,2.92 3.754,2.92 2.072,0 3.755,-1.31 3.755,-2.92 0,-29.31 -1.271,-126.89 -0.621,-145.37 0.034,-0.95 0.103,-1.87 0.136,-2.27 z m -2.785,2.01 c -1.252,0.22 -2.613,-0.07 -3.552,-0.85 1.158,0.96 2.395,1.1 3.552,0.85 z"
         id="path126" /><path
         d="m 190.926,1707.4 c 83.42,-0.57 162.93,-1.33 246.176,-1.33"
         style="fill:#ffffff"
         id="path128" /><path
         d="m 190.959,1710.31 c 83.408,-0.56 162.908,-1.32 246.143,-1.32 2.072,0 3.754,-1.31 3.754,-2.92 0,-1.61 -1.682,-2.92 -3.754,-2.92 -83.257,0 -162.778,0.76 -246.208,1.33 -2.072,0.02 -3.74,1.33 -3.722,2.94 0.018,1.61 1.715,2.91 3.787,2.89 z"
         id="path130" /><path
         d="m 436.895,1706.55 c -0.62,19.84 1.336,117.22 1.336,146.57"
         style="fill:#ffffff"
         id="path132" /><path
         d="m 433.142,1706.47 c -0.62,19.86 1.335,117.29 1.335,146.65 0,1.62 1.682,2.92 3.754,2.92 2.072,0 3.754,-1.3 3.754,-2.92 0,-29.33 -1.956,-126.67 -1.337,-146.5 0.05,-1.61 -1.591,-2.95 -3.662,-2.99 -2.072,-0.04 -3.794,1.24 -3.844,2.84 z"
         id="path134" /><g
         transform="translate(1.23839,2.48673)"
         id="g140"><path
           d="m 191.084,1854.4 c -2.518,0.04 241.846,-1.98 246.538,-1.98"
           style="fill:#ffffff"
           id="path136" /><path
           d="m 191.088,1851.49 h -0.081 c -0.926,0.01 -1.369,0.22 -1.391,0.22 -0.13,0.05 -3.557,5.6 1.449,5.61 v 0 0 h 0.018 c 0.215,0 2.402,-0.01 6.204,-0.04 37.787,-0.3 236.113,-1.94 240.335,-1.94 2.072,0 3.754,-1.31 3.754,-2.92 0,-1.61 -1.682,-2.91 -3.754,-2.91 -4.224,0 -202.612,1.63 -240.411,1.93 -3.757,0.03 -6.13,0.05 -6.13,0.05 z m 1.345,5.64 c -0.395,0.12 -0.823,0.18 -1.271,0.19 0.694,-0.01 1.108,-0.14 1.271,-0.19 z m 0.78,-0.32 -0.04,0.02 0.013,-0.01 z m 0.972,-0.76 c -0.248,0.28 -0.559,0.53 -0.916,0.73 0.424,-0.23 0.713,-0.49 0.916,-0.73 z m -2.199,-4.48 c 0.96,0.19 1.777,0.66 2.287,1.3 -0.28,-0.4 -0.91,-1.05 -2.287,-1.3 z"
           id="path138" /></g></g></g><g
     transform="translate(1112.7408,1402.238)"
     id="g170"
     style="clip-rule:evenodd;fill-rule:evenodd;stroke-linecap:round;stroke-linejoin:round;stroke-miterlimit:1.5"><g
       transform="matrix(1,0,0,1.15377,0,-256.31)"
       id="g148"><path
         d="m 348.166,1722.79 191.543,-2.45 -1.051,-53.16 -190.346,-0.3 z"
         style="fill:#009429;stroke:#000000;stroke-width:2.7px"
         id="path146" /></g><g
       transform="matrix(0.776868,0,0,1,200.127,-40.4722)"
       id="g168"><path
         d="m 190.214,1708.05 c -1.24,-1.03 0.327,115.89 0.327,148.47"
         style="fill:#ffffff"
         id="path150" /><path
         d="m 193.811,1708.88 c 0.368,-0.96 0.088,-2.04 -0.856,-2.83 -1.079,-0.89 -2.277,-1.02 -3.332,-0.89 -0.787,0.09 -1.747,0.37 -2.517,1.22 -0.173,0.19 -0.426,0.5 -0.592,1 -0.112,0.33 -0.273,1.58 -0.345,3.62 -0.651,18.49 0.618,116.18 0.618,145.52 0,1.61 1.682,2.92 3.754,2.92 2.072,0 3.755,-1.31 3.755,-2.92 0,-29.31 -1.271,-126.89 -0.621,-145.37 0.034,-0.95 0.103,-1.87 0.136,-2.27 z m -2.785,2.01 c -1.252,0.22 -2.613,-0.07 -3.552,-0.85 1.158,0.96 2.395,1.1 3.552,0.85 z"
         id="path152" /><path
         d="m 190.926,1707.4 c 83.42,-0.57 162.93,-1.33 246.176,-1.33"
         style="fill:#ffffff"
         id="path154" /><path
         d="m 190.959,1710.31 c 83.408,-0.56 162.908,-1.32 246.143,-1.32 2.072,0 3.754,-1.31 3.754,-2.92 0,-1.61 -1.682,-2.92 -3.754,-2.92 -83.257,0 -162.778,0.76 -246.208,1.33 -2.072,0.02 -3.74,1.33 -3.722,2.94 0.018,1.61 1.715,2.91 3.787,2.89 z"
         id="path156" /><path
         d="m 436.895,1706.55 c -0.62,19.84 1.336,117.22 1.336,146.57"
         style="fill:#ffffff"
         id="path158" /><path
         d="m 433.142,1706.47 c -0.62,19.86 1.335,117.29 1.335,146.65 0,1.62 1.682,2.92 3.754,2.92 2.072,0 3.754,-1.3 3.754,-2.92 0,-29.33 -1.956,-126.67 -1.337,-146.5 0.05,-1.61 -1.591,-2.95 -3.662,-2.99 -2.072,-0.04 -3.794,1.24 -3.844,2.84 z"
         id="path160" /><g
         transform="translate(1.23839,2.48673)"
         id="g166"><path
           d="m 191.084,1854.4 c -2.518,0.04 241.846,-1.98 246.538,-1.98"
           style="fill:#ffffff"
           id="path162" /><path
           d="m 191.088,1851.49 h -0.081 c -0.926,0.01 -1.369,0.22 -1.391,0.22 -0.13,0.05 -3.557,5.6 1.449,5.61 v 0 0 h 0.018 c 0.215,0 2.402,-0.01 6.204,-0.04 37.787,-0.3 236.113,-1.94 240.335,-1.94 2.072,0 3.754,-1.31 3.754,-2.92 0,-1.61 -1.682,-2.91 -3.754,-2.91 -4.224,0 -202.612,1.63 -240.411,1.93 -3.757,0.03 -6.13,0.05 -6.13,0.05 z m 1.345,5.64 c -0.395,0.12 -0.823,0.18 -1.271,0.19 0.694,-0.01 1.108,-0.14 1.271,-0.19 z m 0.78,-0.32 -0.04,0.02 0.013,-0.01 z m 0.972,-0.76 c -0.248,0.28 -0.559,0.53 -0.916,0.73 0.424,-0.23 0.713,-0.49 0.916,-0.73 z m -2.199,-4.48 c 0.96,0.19 1.777,0.66 2.287,1.3 -0.28,-0.4 -0.91,-1.05 -2.287,-1.3 z"
           id="path164" /></g></g></g><g
     transform="translate(1459.3728,1580.158)"
     id="g196"
     style="clip-rule:evenodd;fill-rule:evenodd;stroke-linecap:round;stroke-linejoin:round;stroke-miterlimit:1.5"><g
       transform="matrix(1,0,0,1.15377,0,-256.31)"
       id="g174"><path
         d="m 348.166,1722.79 191.543,-2.45 -1.051,-53.16 -190.346,-0.3 z"
         style="fill:#009429;stroke:#000000;stroke-width:2.7px"
         id="path172" /></g><g
       transform="matrix(0.776868,0,0,1,200.127,-40.4722)"
       id="g194"><path
         d="m 190.214,1708.05 c -1.24,-1.03 0.327,115.89 0.327,148.47"
         style="fill:#ffffff"
         id="path176" /><path
         d="m 193.811,1708.88 c 0.368,-0.96 0.088,-2.04 -0.856,-2.83 -1.079,-0.89 -2.277,-1.02 -3.332,-0.89 -0.787,0.09 -1.747,0.37 -2.517,1.22 -0.173,0.19 -0.426,0.5 -0.592,1 -0.112,0.33 -0.273,1.58 -0.345,3.62 -0.651,18.49 0.618,116.18 0.618,145.52 0,1.61 1.682,2.92 3.754,2.92 2.072,0 3.755,-1.31 3.755,-2.92 0,-29.31 -1.271,-126.89 -0.621,-145.37 0.034,-0.95 0.103,-1.87 0.136,-2.27 z m -2.785,2.01 c -1.252,0.22 -2.613,-0.07 -3.552,-0.85 1.158,0.96 2.395,1.1 3.552,0.85 z"
         id="path178" /><path
         d="m 190.926,1707.4 c 83.42,-0.57 162.93,-1.33 246.176,-1.33"
         style="fill:#ffffff"
         id="path180" /><path
         d="m 190.959,1710.31 c 83.408,-0.56 162.908,-1.32 246.143,-1.32 2.072,0 3.754,-1.31 3.754,-2.92 0,-1.61 -1.682,-2.92 -3.754,-2.92 -83.257,0 -162.778,0.76 -246.208,1.33 -2.072,0.02 -3.74,1.33 -3.722,2.94 0.018,1.61 1.715,2.91 3.787,2.89 z"
         id="path182" /><path
         d="m 436.895,1706.55 c -0.62,19.84 1.336,117.22 1.336,146.57"
         style="fill:#ffffff"
         id="path184" /><path
         d="m 433.142,1706.47 c -0.62,19.86 1.335,117.29 1.335,146.65 0,1.62 1.682,2.92 3.754,2.92 2.072,0 3.754,-1.3 3.754,-2.92 0,-29.33 -1.956,-126.67 -1.337,-146.5 0.05,-1.61 -1.591,-2.95 -3.662,-2.99 -2.072,-0.04 -3.794,1.24 -3.844,2.84 z"
         id="path186" /><g
         transform="translate(1.23839,2.48673)"
         id="g192"><path
           d="m 191.084,1854.4 c -2.518,0.04 241.846,-1.98 246.538,-1.98"
           style="fill:#ffffff"
           id="path188" /><path
           d="m 191.088,1851.49 h -0.081 c -0.926,0.01 -1.369,0.22 -1.391,0.22 -0.13,0.05 -3.557,5.6 1.449,5.61 v 0 0 h 0.018 c 0.215,0 2.402,-0.01 6.204,-0.04 37.787,-0.3 236.113,-1.94 240.335,-1.94 2.072,0 3.754,-1.31 3.754,-2.92 0,-1.61 -1.682,-2.91 -3.754,-2.91 -4.224,0 -202.612,1.63 -240.411,1.93 -3.757,0.03 -6.13,0.05 -6.13,0.05 z m 1.345,5.64 c -0.395,0.12 -0.823,0.18 -1.271,0.19 0.694,-0.01 1.108,-0.14 1.271,-0.19 z m 0.78,-0.32 -0.04,0.02 0.013,-0.01 z m 0.972,-0.76 c -0.248,0.28 -0.559,0.53 -0.916,0.73 0.424,-0.23 0.713,-0.49 0.916,-0.73 z m -2.199,-4.48 c 0.96,0.19 1.777,0.66 2.287,1.3 -0.28,-0.4 -0.91,-1.05 -2.287,-1.3 z"
           id="path190" /></g></g></g><g
     transform="translate(1594.3928,1634.129)"
     id="g222"
     style="clip-rule:evenodd;fill-rule:evenodd;stroke-linecap:round;stroke-linejoin:round;stroke-miterlimit:1.5"><g
       transform="matrix(1,0,0,1.05587,7.84923,185.008)"
       id="g200"><path
         d="m 348.166,1722.79 191.543,-2.45 -1.051,-53.16 -190.346,-0.3 z"
         style="fill:#0065b1;stroke:#000000;stroke-width:2.84px"
         id="path198" /></g><g
       transform="matrix(0.776868,0,0,1,208.055,146.9)"
       id="g220"><path
         d="m 190.214,1708.05 c -1.24,-1.03 0.327,115.89 0.327,148.47"
         style="fill:#ffffff"
         id="path202" /><path
         d="m 193.811,1708.88 c 0.368,-0.96 0.088,-2.04 -0.856,-2.83 -1.079,-0.89 -2.277,-1.02 -3.332,-0.89 -0.787,0.09 -1.747,0.37 -2.517,1.22 -0.173,0.19 -0.426,0.5 -0.592,1 -0.112,0.33 -0.273,1.58 -0.345,3.62 -0.651,18.49 0.618,116.18 0.618,145.52 0,1.61 1.682,2.92 3.754,2.92 2.072,0 3.755,-1.31 3.755,-2.92 0,-29.31 -1.271,-126.89 -0.621,-145.37 0.034,-0.95 0.103,-1.87 0.136,-2.27 z m -2.785,2.01 c -1.252,0.22 -2.613,-0.07 -3.552,-0.85 1.158,0.96 2.395,1.1 3.552,0.85 z"
         id="path204" /><path
         d="m 190.926,1707.4 c 83.42,-0.57 162.93,-1.33 246.176,-1.33"
         style="fill:#ffffff"
         id="path206" /><path
         d="m 190.959,1710.31 c 83.408,-0.56 162.908,-1.32 246.143,-1.32 2.072,0 3.754,-1.31 3.754,-2.92 0,-1.61 -1.682,-2.92 -3.754,-2.92 -83.257,0 -162.778,0.76 -246.208,1.33 -2.072,0.02 -3.74,1.33 -3.722,2.94 0.018,1.61 1.715,2.91 3.787,2.89 z"
         id="path208" /><path
         d="m 436.895,1706.55 c -0.62,19.84 1.336,117.22 1.336,146.57"
         style="fill:#ffffff"
         id="path210" /><path
         d="m 433.142,1706.47 c -0.62,19.86 1.335,117.29 1.335,146.65 0,1.62 1.682,2.92 3.754,2.92 2.072,0 3.754,-1.3 3.754,-2.92 0,-29.33 -1.956,-126.67 -1.337,-146.5 0.05,-1.61 -1.591,-2.95 -3.662,-2.99 -2.072,-0.04 -3.794,1.24 -3.844,2.84 z"
         id="path212" /><g
         transform="translate(1.23839,2.48673)"
         id="g218"><path
           d="m 191.084,1854.4 c -2.518,0.04 241.846,-1.98 246.538,-1.98"
           style="fill:#ffffff"
           id="path214" /><path
           d="m 191.088,1851.49 h -0.081 c -0.926,0.01 -1.369,0.22 -1.391,0.22 -0.13,0.05 -3.557,5.6 1.449,5.61 v 0 0 h 0.018 c 0.215,0 2.402,-0.01 6.204,-0.04 37.787,-0.3 236.113,-1.94 240.335,-1.94 2.072,0 3.754,-1.31 3.754,-2.92 0,-1.61 -1.682,-2.91 -3.754,-2.91 -4.224,0 -202.612,1.63 -240.411,1.93 -3.757,0.03 -6.13,0.05 -6.13,0.05 z m 1.345,5.64 c -0.395,0.12 -0.823,0.18 -1.271,0.19 0.694,-0.01 1.108,-0.14 1.271,-0.19 z m 0.78,-0.32 -0.04,0.02 0.013,-0.01 z m 0.972,-0.76 c -0.248,0.28 -0.559,0.53 -0.916,0.73 0.424,-0.23 0.713,-0.49 0.916,-0.73 z m -2.199,-4.48 c 0.96,0.19 1.777,0.66 2.287,1.3 -0.28,-0.4 -0.91,-1.05 -2.287,-1.3 z"
           id="path216" /></g></g></g><g
     transform="translate(1591.7178,1848.617)"
     id="g248"
     style="clip-rule:evenodd;fill-rule:evenodd;stroke-linecap:round;stroke-linejoin:round;stroke-miterlimit:1.5"><g
       transform="matrix(1,0,0,1.05587,7.84923,185.008)"
       id="g226"><path
         d="m 348.166,1722.79 191.543,-2.45 -1.051,-53.16 -190.346,-0.3 z"
         style="fill:#0065b1;stroke:#000000;stroke-width:2.84px"
         id="path224" /></g><g
       transform="matrix(0.776868,0,0,1,208.055,146.9)"
       id="g246"><path
         d="m 190.214,1708.05 c -1.24,-1.03 0.327,115.89 0.327,148.47"
         style="fill:#ffffff"
         id="path228" /><path
         d="m 193.811,1708.88 c 0.368,-0.96 0.088,-2.04 -0.856,-2.83 -1.079,-0.89 -2.277,-1.02 -3.332,-0.89 -0.787,0.09 -1.747,0.37 -2.517,1.22 -0.173,0.19 -0.426,0.5 -0.592,1 -0.112,0.33 -0.273,1.58 -0.345,3.62 -0.651,18.49 0.618,116.18 0.618,145.52 0,1.61 1.682,2.92 3.754,2.92 2.072,0 3.755,-1.31 3.755,-2.92 0,-29.31 -1.271,-126.89 -0.621,-145.37 0.034,-0.95 0.103,-1.87 0.136,-2.27 z m -2.785,2.01 c -1.252,0.22 -2.613,-0.07 -3.552,-0.85 1.158,0.96 2.395,1.1 3.552,0.85 z"
         id="path230" /><path
         d="m 190.926,1707.4 c 83.42,-0.57 162.93,-1.33 246.176,-1.33"
         style="fill:#ffffff"
         id="path232" /><path
         d="m 190.959,1710.31 c 83.408,-0.56 162.908,-1.32 246.143,-1.32 2.072,0 3.754,-1.31 3.754,-2.92 0,-1.61 -1.682,-2.92 -3.754,-2.92 -83.257,0 -162.778,0.76 -246.208,1.33 -2.072,0.02 -3.74,1.33 -3.722,2.94 0.018,1.61 1.715,2.91 3.787,2.89 z"
         id="path234" /><path
         d="m 436.895,1706.55 c -0.62,19.84 1.336,117.22 1.336,146.57"
         style="fill:#ffffff"
         id="path236" /><path
         d="m 433.142,1706.47 c -0.62,19.86 1.335,117.29 1.335,146.65 0,1.62 1.682,2.92 3.754,2.92 2.072,0 3.754,-1.3 3.754,-2.92 0,-29.33 -1.956,-126.67 -1.337,-146.5 0.05,-1.61 -1.591,-2.95 -3.662,-2.99 -2.072,-0.04 -3.794,1.24 -3.844,2.84 z"
         id="path238" /><g
         transform="translate(1.23839,2.48673)"
         id="g244"><path
           d="m 191.084,1854.4 c -2.518,0.04 241.846,-1.98 246.538,-1.98"
           style="fill:#ffffff"
           id="path240" /><path
           d="m 191.088,1851.49 h -0.081 c -0.926,0.01 -1.369,0.22 -1.391,0.22 -0.13,0.05 -3.557,5.6 1.449,5.61 v 0 0 h 0.018 c 0.215,0 2.402,-0.01 6.204,-0.04 37.787,-0.3 236.113,-1.94 240.335,-1.94 2.072,0 3.754,-1.31 3.754,-2.92 0,-1.61 -1.682,-2.91 -3.754,-2.91 -4.224,0 -202.612,1.63 -240.411,1.93 -3.757,0.03 -6.13,0.05 -6.13,0.05 z m 1.345,5.64 c -0.395,0.12 -0.823,0.18 -1.271,0.19 0.694,-0.01 1.108,-0.14 1.271,-0.19 z m 0.78,-0.32 -0.04,0.02 0.013,-0.01 z m 0.972,-0.76 c -0.248,0.28 -0.559,0.53 -0.916,0.73 0.424,-0.23 0.713,-0.49 0.916,-0.73 z m -2.199,-4.48 c 0.96,0.19 1.777,0.66 2.287,1.3 -0.28,-0.4 -0.91,-1.05 -2.287,-1.3 z"
           id="path242" /></g></g></g><g
     transform="translate(1840.0878,1647.647)"
     id="g274"
     style="clip-rule:evenodd;fill-rule:evenodd;stroke-linecap:round;stroke-linejoin:round;stroke-miterlimit:1.5"><g
       transform="matrix(1,0,0,1.05587,7.84923,185.008)"
       id="g252"><path
         d="m 348.166,1722.79 191.543,-2.45 -1.051,-53.16 -190.346,-0.3 z"
         style="fill:#0065b1;stroke:#000000;stroke-width:2.84px"
         id="path250" /></g><g
       transform="matrix(0.776868,0,0,1,208.055,146.9)"
       id="g272"><path
         d="m 190.214,1708.05 c -1.24,-1.03 0.327,115.89 0.327,148.47"
         style="fill:#ffffff"
         id="path254" /><path
         d="m 193.811,1708.88 c 0.368,-0.96 0.088,-2.04 -0.856,-2.83 -1.079,-0.89 -2.277,-1.02 -3.332,-0.89 -0.787,0.09 -1.747,0.37 -2.517,1.22 -0.173,0.19 -0.426,0.5 -0.592,1 -0.112,0.33 -0.273,1.58 -0.345,3.62 -0.651,18.49 0.618,116.18 0.618,145.52 0,1.61 1.682,2.92 3.754,2.92 2.072,0 3.755,-1.31 3.755,-2.92 0,-29.31 -1.271,-126.89 -0.621,-145.37 0.034,-0.95 0.103,-1.87 0.136,-2.27 z m -2.785,2.01 c -1.252,0.22 -2.613,-0.07 -3.552,-0.85 1.158,0.96 2.395,1.1 3.552,0.85 z"
         id="path256" /><path
         d="m 190.926,1707.4 c 83.42,-0.57 162.93,-1.33 246.176,-1.33"
         style="fill:#ffffff"
         id="path258" /><path
         d="m 190.959,1710.31 c 83.408,-0.56 162.908,-1.32 246.143,-1.32 2.072,0 3.754,-1.31 3.754,-2.92 0,-1.61 -1.682,-2.92 -3.754,-2.92 -83.257,0 -162.778,0.76 -246.208,1.33 -2.072,0.02 -3.74,1.33 -3.722,2.94 0.018,1.61 1.715,2.91 3.787,2.89 z"
         id="path260" /><path
         d="m 436.895,1706.55 c -0.62,19.84 1.336,117.22 1.336,146.57"
         style="fill:#ffffff"
         id="path262" /><path
         d="m 433.142,1706.47 c -0.62,19.86 1.335,117.29 1.335,146.65 0,1.62 1.682,2.92 3.754,2.92 2.072,0 3.754,-1.3 3.754,-2.92 0,-29.33 -1.956,-126.67 -1.337,-146.5 0.05,-1.61 -1.591,-2.95 -3.662,-2.99 -2.072,-0.04 -3.794,1.24 -3.844,2.84 z"
         id="path264" /><g
         transform="translate(1.23839,2.48673)"
         id="g270"><path
           d="m 191.084,1854.4 c -2.518,0.04 241.846,-1.98 246.538,-1.98"
           style="fill:#ffffff"
           id="path266" /><path
           d="m 191.088,1851.49 h -0.081 c -0.926,0.01 -1.369,0.22 -1.391,0.22 -0.13,0.05 -3.557,5.6 1.449,5.61 v 0 0 h 0.018 c 0.215,0 2.402,-0.01 6.204,-0.04 37.787,-0.3 236.113,-1.94 240.335,-1.94 2.072,0 3.754,-1.31 3.754,-2.92 0,-1.61 -1.682,-2.91 -3.754,-2.91 -4.224,0 -202.612,1.63 -240.411,1.93 -3.757,0.03 -6.13,0.05 -6.13,0.05 z m 1.345,5.64 c -0.395,0.12 -0.823,0.18 -1.271,0.19 0.694,-0.01 1.108,-0.14 1.271,-0.19 z m 0.78,-0.32 -0.04,0.02 0.013,-0.01 z m 0.972,-0.76 c -0.248,0.28 -0.559,0.53 -0.916,0.73 0.424,-0.23 0.713,-0.49 0.916,-0.73 z m -2.199,-4.48 c 0.96,0.19 1.777,0.66 2.287,1.3 -0.28,-0.4 -0.91,-1.05 -2.287,-1.3 z"
           id="path268" /></g></g></g><g
     transform="translate(1473.4228,1582.812)"
     id="g300"
     style="clip-rule:evenodd;fill-rule:evenodd;stroke-linecap:round;stroke-linejoin:round;stroke-miterlimit:1.5"><g
       transform="matrix(0.776868,0,0,1,443.157,-42.8761)"
       id="g294"><path
         d="m 190.214,1708.05 c -1.24,-1.03 0.327,115.89 0.327,148.47"
         style="fill:#ffffff"
         id="path276" /><path
         d="m 193.811,1708.88 c 0.368,-0.96 0.088,-2.04 -0.856,-2.83 -1.079,-0.89 -2.277,-1.02 -3.332,-0.89 -0.787,0.09 -1.747,0.37 -2.517,1.22 -0.173,0.19 -0.426,0.5 -0.592,1 -0.112,0.33 -0.273,1.58 -0.345,3.62 -0.651,18.49 0.618,116.18 0.618,145.52 0,1.61 1.682,2.92 3.754,2.92 2.072,0 3.755,-1.31 3.755,-2.92 0,-29.31 -1.271,-126.89 -0.621,-145.37 0.034,-0.95 0.103,-1.87 0.136,-2.27 z m -2.785,2.01 c -1.252,0.22 -2.613,-0.07 -3.552,-0.85 1.158,0.96 2.395,1.1 3.552,0.85 z"
         id="path278" /><path
         d="m 190.926,1707.4 c 83.42,-0.57 162.93,-1.33 246.176,-1.33"
         style="fill:#ffffff"
         id="path280" /><path
         d="m 190.959,1710.31 c 83.408,-0.56 162.908,-1.32 246.143,-1.32 2.072,0 3.754,-1.31 3.754,-2.92 0,-1.61 -1.682,-2.92 -3.754,-2.92 -83.257,0 -162.778,0.76 -246.208,1.33 -2.072,0.02 -3.74,1.33 -3.722,2.94 0.018,1.61 1.715,2.91 3.787,2.89 z"
         id="path282" /><path
         d="m 436.895,1706.55 c -0.62,19.84 1.336,117.22 1.336,146.57"
         style="fill:#ffffff"
         id="path284" /><path
         d="m 433.142,1706.47 c -0.62,19.86 1.335,117.29 1.335,146.65 0,1.62 1.682,2.92 3.754,2.92 2.072,0 3.754,-1.3 3.754,-2.92 0,-29.33 -1.956,-126.67 -1.337,-146.5 0.05,-1.61 -1.591,-2.95 -3.662,-2.99 -2.072,-0.04 -3.794,1.24 -3.844,2.84 z"
         id="path286" /><g
         transform="translate(1.23839,2.48673)"
         id="g292"><path
           d="m 191.084,1854.4 c -2.518,0.04 241.846,-1.98 246.538,-1.98"
           style="fill:#ffffff"
           id="path288" /><path
           d="m 191.088,1851.49 h -0.081 c -0.926,0.01 -1.369,0.22 -1.391,0.22 -0.13,0.05 -3.557,5.6 1.449,5.61 v 0 0 h 0.018 c 0.215,0 2.402,-0.01 6.204,-0.04 37.787,-0.3 236.113,-1.94 240.335,-1.94 2.072,0 3.754,-1.31 3.754,-2.92 0,-1.61 -1.682,-2.91 -3.754,-2.91 -4.224,0 -202.612,1.63 -240.411,1.93 -3.757,0.03 -6.13,0.05 -6.13,0.05 z m 1.345,5.64 c -0.395,0.12 -0.823,0.18 -1.271,0.19 0.694,-0.01 1.108,-0.14 1.271,-0.19 z m 0.78,-0.32 -0.04,0.02 0.013,-0.01 z m 0.972,-0.76 c -0.248,0.28 -0.559,0.53 -0.916,0.73 0.424,-0.23 0.713,-0.49 0.916,-0.73 z m -2.199,-4.48 c 0.96,0.19 1.777,0.66 2.287,1.3 -0.28,-0.4 -0.91,-1.05 -2.287,-1.3 z"
           id="path290" /></g></g><g
       transform="translate(8.11942,0.769745)"
       id="g298"><path
         d="m 670.025,1721.13 10.197,-21.2 9.776,20.8 24.99,0.09 -17.063,18.81 c 0.726,3.25 5.615,20.93 6.8,24.16 l -23.658,-11.11 -24.506,10.97 6.789,-23.8 -17.302,-18.34 z"
         style="fill:#1a1719;stroke:#000000;stroke-width:2.92px"
         id="path296" /></g></g><g
     transform="translate(1568.7128,1393.194)"
     id="g326"
     style="clip-rule:evenodd;fill-rule:evenodd;stroke-linecap:round;stroke-linejoin:round;stroke-miterlimit:1.5"><g
       transform="matrix(0.776868,0,0,1,443.157,-42.8761)"
       id="g320"><path
         d="m 190.214,1708.05 c -1.24,-1.03 0.327,115.89 0.327,148.47"
         style="fill:#ffffff"
         id="path302" /><path
         d="m 193.811,1708.88 c 0.368,-0.96 0.088,-2.04 -0.856,-2.83 -1.079,-0.89 -2.277,-1.02 -3.332,-0.89 -0.787,0.09 -1.747,0.37 -2.517,1.22 -0.173,0.19 -0.426,0.5 -0.592,1 -0.112,0.33 -0.273,1.58 -0.345,3.62 -0.651,18.49 0.618,116.18 0.618,145.52 0,1.61 1.682,2.92 3.754,2.92 2.072,0 3.755,-1.31 3.755,-2.92 0,-29.31 -1.271,-126.89 -0.621,-145.37 0.034,-0.95 0.103,-1.87 0.136,-2.27 z m -2.785,2.01 c -1.252,0.22 -2.613,-0.07 -3.552,-0.85 1.158,0.96 2.395,1.1 3.552,0.85 z"
         id="path304" /><path
         d="m 190.926,1707.4 c 83.42,-0.57 162.93,-1.33 246.176,-1.33"
         style="fill:#ffffff"
         id="path306" /><path
         d="m 190.959,1710.31 c 83.408,-0.56 162.908,-1.32 246.143,-1.32 2.072,0 3.754,-1.31 3.754,-2.92 0,-1.61 -1.682,-2.92 -3.754,-2.92 -83.257,0 -162.778,0.76 -246.208,1.33 -2.072,0.02 -3.74,1.33 -3.722,2.94 0.018,1.61 1.715,2.91 3.787,2.89 z"
         id="path308" /><path
         d="m 436.895,1706.55 c -0.62,19.84 1.336,117.22 1.336,146.57"
         style="fill:#ffffff"
         id="path310" /><path
         d="m 433.142,1706.47 c -0.62,19.86 1.335,117.29 1.335,146.65 0,1.62 1.682,2.92 3.754,2.92 2.072,0 3.754,-1.3 3.754,-2.92 0,-29.33 -1.956,-126.67 -1.337,-146.5 0.05,-1.61 -1.591,-2.95 -3.662,-2.99 -2.072,-0.04 -3.794,1.24 -3.844,2.84 z"
         id="path312" /><g
         transform="translate(1.23839,2.48673)"
         id="g318"><path
           d="m 191.084,1854.4 c -2.518,0.04 241.846,-1.98 246.538,-1.98"
           style="fill:#ffffff"
           id="path314" /><path
           d="m 191.088,1851.49 h -0.081 c -0.926,0.01 -1.369,0.22 -1.391,0.22 -0.13,0.05 -3.557,5.6 1.449,5.61 v 0 0 h 0.018 c 0.215,0 2.402,-0.01 6.204,-0.04 37.787,-0.3 236.113,-1.94 240.335,-1.94 2.072,0 3.754,-1.31 3.754,-2.92 0,-1.61 -1.682,-2.91 -3.754,-2.91 -4.224,0 -202.612,1.63 -240.411,1.93 -3.757,0.03 -6.13,0.05 -6.13,0.05 z m 1.345,5.64 c -0.395,0.12 -0.823,0.18 -1.271,0.19 0.694,-0.01 1.108,-0.14 1.271,-0.19 z m 0.78,-0.32 -0.04,0.02 0.013,-0.01 z m 0.972,-0.76 c -0.248,0.28 -0.559,0.53 -0.916,0.73 0.424,-0.23 0.713,-0.49 0.916,-0.73 z m -2.199,-4.48 c 0.96,0.19 1.777,0.66 2.287,1.3 -0.28,-0.4 -0.91,-1.05 -2.287,-1.3 z"
           id="path316" /></g></g><g
       transform="translate(8.11942,0.769745)"
       id="g324"><path
         d="m 670.025,1721.13 10.197,-21.2 9.776,20.8 24.99,0.09 -17.063,18.81 c 0.726,3.25 5.615,20.93 6.8,24.16 l -23.658,-11.11 -24.506,10.97 6.789,-23.8 -17.302,-18.34 z"
         style="fill:#1a1719;stroke:#000000;stroke-width:2.92px"
         id="path322" /></g></g><g
     transform="translate(1707.7938,1600.278)"
     id="g352"
     style="clip-rule:evenodd;fill-rule:evenodd;stroke-linecap:round;stroke-linejoin:round;stroke-miterlimit:1.5"><g
       transform="matrix(0.776868,0,0,1,443.157,-42.8761)"
       id="g346"><path
         d="m 190.214,1708.05 c -1.24,-1.03 0.327,115.89 0.327,148.47"
         style="fill:#ffffff"
         id="path328" /><path
         d="m 193.811,1708.88 c 0.368,-0.96 0.088,-2.04 -0.856,-2.83 -1.079,-0.89 -2.277,-1.02 -3.332,-0.89 -0.787,0.09 -1.747,0.37 -2.517,1.22 -0.173,0.19 -0.426,0.5 -0.592,1 -0.112,0.33 -0.273,1.58 -0.345,3.62 -0.651,18.49 0.618,116.18 0.618,145.52 0,1.61 1.682,2.92 3.754,2.92 2.072,0 3.755,-1.31 3.755,-2.92 0,-29.31 -1.271,-126.89 -0.621,-145.37 0.034,-0.95 0.103,-1.87 0.136,-2.27 z m -2.785,2.01 c -1.252,0.22 -2.613,-0.07 -3.552,-0.85 1.158,0.96 2.395,1.1 3.552,0.85 z"
         id="path330" /><path
         d="m 190.926,1707.4 c 83.42,-0.57 162.93,-1.33 246.176,-1.33"
         style="fill:#ffffff"
         id="path332" /><path
         d="m 190.959,1710.31 c 83.408,-0.56 162.908,-1.32 246.143,-1.32 2.072,0 3.754,-1.31 3.754,-2.92 0,-1.61 -1.682,-2.92 -3.754,-2.92 -83.257,0 -162.778,0.76 -246.208,1.33 -2.072,0.02 -3.74,1.33 -3.722,2.94 0.018,1.61 1.715,2.91 3.787,2.89 z"
         id="path334" /><path
         d="m 436.895,1706.55 c -0.62,19.84 1.336,117.22 1.336,146.57"
         style="fill:#ffffff"
         id="path336" /><path
         d="m 433.142,1706.47 c -0.62,19.86 1.335,117.29 1.335,146.65 0,1.62 1.682,2.92 3.754,2.92 2.072,0 3.754,-1.3 3.754,-2.92 0,-29.33 -1.956,-126.67 -1.337,-146.5 0.05,-1.61 -1.591,-2.95 -3.662,-2.99 -2.072,-0.04 -3.794,1.24 -3.844,2.84 z"
         id="path338" /><g
         transform="translate(1.23839,2.48673)"
         id="g344"><path
           d="m 191.084,1854.4 c -2.518,0.04 241.846,-1.98 246.538,-1.98"
           style="fill:#ffffff"
           id="path340" /><path
           d="m 191.088,1851.49 h -0.081 c -0.926,0.01 -1.369,0.22 -1.391,0.22 -0.13,0.05 -3.557,5.6 1.449,5.61 v 0 0 h 0.018 c 0.215,0 2.402,-0.01 6.204,-0.04 37.787,-0.3 236.113,-1.94 240.335,-1.94 2.072,0 3.754,-1.31 3.754,-2.92 0,-1.61 -1.682,-2.91 -3.754,-2.91 -4.224,0 -202.612,1.63 -240.411,1.93 -3.757,0.03 -6.13,0.05 -6.13,0.05 z m 1.345,5.64 c -0.395,0.12 -0.823,0.18 -1.271,0.19 0.694,-0.01 1.108,-0.14 1.271,-0.19 z m 0.78,-0.32 -0.04,0.02 0.013,-0.01 z m 0.972,-0.76 c -0.248,0.28 -0.559,0.53 -0.916,0.73 0.424,-0.23 0.713,-0.49 0.916,-0.73 z m -2.199,-4.48 c 0.96,0.19 1.777,0.66 2.287,1.3 -0.28,-0.4 -0.91,-1.05 -2.287,-1.3 z"
           id="path342" /></g></g><g
       transform="translate(8.11942,0.769745)"
       id="g350"><path
         d="m 670.025,1721.13 10.197,-21.2 9.776,20.8 24.99,0.09 -17.063,18.81 c 0.726,3.25 5.615,20.93 6.8,24.16 l -23.658,-11.11 -24.506,10.97 6.789,-23.8 -17.302,-18.34 z"
         style="fill:#1a1719;stroke:#000000;stroke-width:2.92px"
         id="path348" /></g></g><g
     transform="translate(1801.3258,1411.267)"
     id="g378"
     style="clip-rule:evenodd;fill-rule:evenodd;stroke-linecap:round;stroke-linejoin:round;stroke-miterlimit:1.5"><g
       transform="matrix(0.776868,0,0,1,443.157,-42.8761)"
       id="g372"><path
         d="m 190.214,1708.05 c -1.24,-1.03 0.327,115.89 0.327,148.47"
         style="fill:#ffffff"
         id="path354" /><path
         d="m 193.811,1708.88 c 0.368,-0.96 0.088,-2.04 -0.856,-2.83 -1.079,-0.89 -2.277,-1.02 -3.332,-0.89 -0.787,0.09 -1.747,0.37 -2.517,1.22 -0.173,0.19 -0.426,0.5 -0.592,1 -0.112,0.33 -0.273,1.58 -0.345,3.62 -0.651,18.49 0.618,116.18 0.618,145.52 0,1.61 1.682,2.92 3.754,2.92 2.072,0 3.755,-1.31 3.755,-2.92 0,-29.31 -1.271,-126.89 -0.621,-145.37 0.034,-0.95 0.103,-1.87 0.136,-2.27 z m -2.785,2.01 c -1.252,0.22 -2.613,-0.07 -3.552,-0.85 1.158,0.96 2.395,1.1 3.552,0.85 z"
         id="path356" /><path
         d="m 190.926,1707.4 c 83.42,-0.57 162.93,-1.33 246.176,-1.33"
         style="fill:#ffffff"
         id="path358" /><path
         d="m 190.959,1710.31 c 83.408,-0.56 162.908,-1.32 246.143,-1.32 2.072,0 3.754,-1.31 3.754,-2.92 0,-1.61 -1.682,-2.92 -3.754,-2.92 -83.257,0 -162.778,0.76 -246.208,1.33 -2.072,0.02 -3.74,1.33 -3.722,2.94 0.018,1.61 1.715,2.91 3.787,2.89 z"
         id="path360" /><path
         d="m 436.895,1706.55 c -0.62,19.84 1.336,117.22 1.336,146.57"
         style="fill:#ffffff"
         id="path362" /><path
         d="m 433.142,1706.47 c -0.62,19.86 1.335,117.29 1.335,146.65 0,1.62 1.682,2.92 3.754,2.92 2.072,0 3.754,-1.3 3.754,-2.92 0,-29.33 -1.956,-126.67 -1.337,-146.5 0.05,-1.61 -1.591,-2.95 -3.662,-2.99 -2.072,-0.04 -3.794,1.24 -3.844,2.84 z"
         id="path364" /><g
         transform="translate(1.23839,2.48673)"
         id="g370"><path
           d="m 191.084,1854.4 c -2.518,0.04 241.846,-1.98 246.538,-1.98"
           style="fill:#ffffff"
           id="path366" /><path
           d="m 191.088,1851.49 h -0.081 c -0.926,0.01 -1.369,0.22 -1.391,0.22 -0.13,0.05 -3.557,5.6 1.449,5.61 v 0 0 h 0.018 c 0.215,0 2.402,-0.01 6.204,-0.04 37.787,-0.3 236.113,-1.94 240.335,-1.94 2.072,0 3.754,-1.31 3.754,-2.92 0,-1.61 -1.682,-2.91 -3.754,-2.91 -4.224,0 -202.612,1.63 -240.411,1.93 -3.757,0.03 -6.13,0.05 -6.13,0.05 z m 1.345,5.64 c -0.395,0.12 -0.823,0.18 -1.271,0.19 0.694,-0.01 1.108,-0.14 1.271,-0.19 z m 0.78,-0.32 -0.04,0.02 0.013,-0.01 z m 0.972,-0.76 c -0.248,0.28 -0.559,0.53 -0.916,0.73 0.424,-0.23 0.713,-0.49 0.916,-0.73 z m -2.199,-4.48 c 0.96,0.19 1.777,0.66 2.287,1.3 -0.28,-0.4 -0.91,-1.05 -2.287,-1.3 z"
           id="path368" /></g></g><g
       transform="translate(8.11942,0.769745)"
       id="g376"><path
         d="m 670.025,1721.13 10.197,-21.2 9.776,20.8 24.99,0.09 -17.063,18.81 c 0.726,3.25 5.615,20.93 6.8,24.16 l -23.658,-11.11 -24.506,10.97 6.789,-23.8 -17.302,-18.34 z"
         style="fill:#1a1719;stroke:#000000;stroke-width:2.92px"
         id="path374" /></g></g><g
     transform="translate(1336.8175,1379.898)"
     id="g404"
     style="clip-rule:evenodd;fill-rule:evenodd;stroke-linecap:round;stroke-linejoin:round;stroke-miterlimit:1.5"><g
       transform="matrix(0.776868,0,0,1,443.157,-42.8761)"
       id="g398"><path
         d="m 190.214,1708.05 c -1.24,-1.03 0.327,115.89 0.327,148.47"
         style="fill:#ffffff"
         id="path380" /><path
         d="m 193.811,1708.88 c 0.368,-0.96 0.088,-2.04 -0.856,-2.83 -1.079,-0.89 -2.277,-1.02 -3.332,-0.89 -0.787,0.09 -1.747,0.37 -2.517,1.22 -0.173,0.19 -0.426,0.5 -0.592,1 -0.112,0.33 -0.273,1.58 -0.345,3.62 -0.651,18.49 0.618,116.18 0.618,145.52 0,1.61 1.682,2.92 3.754,2.92 2.072,0 3.755,-1.31 3.755,-2.92 0,-29.31 -1.271,-126.89 -0.621,-145.37 0.034,-0.95 0.103,-1.87 0.136,-2.27 z m -2.785,2.01 c -1.252,0.22 -2.613,-0.07 -3.552,-0.85 1.158,0.96 2.395,1.1 3.552,0.85 z"
         id="path382" /><path
         d="m 190.926,1707.4 c 83.42,-0.57 162.93,-1.33 246.176,-1.33"
         style="fill:#ffffff"
         id="path384" /><path
         d="m 190.959,1710.31 c 83.408,-0.56 162.908,-1.32 246.143,-1.32 2.072,0 3.754,-1.31 3.754,-2.92 0,-1.61 -1.682,-2.92 -3.754,-2.92 -83.257,0 -162.778,0.76 -246.208,1.33 -2.072,0.02 -3.74,1.33 -3.722,2.94 0.018,1.61 1.715,2.91 3.787,2.89 z"
         id="path386" /><path
         d="m 436.895,1706.55 c -0.62,19.84 1.336,117.22 1.336,146.57"
         style="fill:#ffffff"
         id="path388" /><path
         d="m 433.142,1706.47 c -0.62,19.86 1.335,117.29 1.335,146.65 0,1.62 1.682,2.92 3.754,2.92 2.072,0 3.754,-1.3 3.754,-2.92 0,-29.33 -1.956,-126.67 -1.337,-146.5 0.05,-1.61 -1.591,-2.95 -3.662,-2.99 -2.072,-0.04 -3.794,1.24 -3.844,2.84 z"
         id="path390" /><g
         transform="translate(1.23839,2.48673)"
         id="g396"><path
           d="m 191.084,1854.4 c -2.518,0.04 241.846,-1.98 246.538,-1.98"
           style="fill:#ffffff"
           id="path392" /><path
           d="m 191.088,1851.49 h -0.081 c -0.926,0.01 -1.369,0.22 -1.391,0.22 -0.13,0.05 -3.557,5.6 1.449,5.61 v 0 0 h 0.018 c 0.215,0 2.402,-0.01 6.204,-0.04 37.787,-0.3 236.113,-1.94 240.335,-1.94 2.072,0 3.754,-1.31 3.754,-2.92 0,-1.61 -1.682,-2.91 -3.754,-2.91 -4.224,0 -202.612,1.63 -240.411,1.93 -3.757,0.03 -6.13,0.05 -6.13,0.05 z m 1.345,5.64 c -0.395,0.12 -0.823,0.18 -1.271,0.19 0.694,-0.01 1.108,-0.14 1.271,-0.19 z m 0.78,-0.32 -0.04,0.02 0.013,-0.01 z m 0.972,-0.76 c -0.248,0.28 -0.559,0.53 -0.916,0.73 0.424,-0.23 0.713,-0.49 0.916,-0.73 z m -2.199,-4.48 c 0.96,0.19 1.777,0.66 2.287,1.3 -0.28,-0.4 -0.91,-1.05 -2.287,-1.3 z"
           id="path394" /></g></g><g
       transform="translate(8.11942,0.769745)"
       id="g402"><path
         d="m 670.025,1721.13 10.197,-21.2 9.776,20.8 24.99,0.09 -17.063,18.81 c 0.726,3.25 5.615,20.93 6.8,24.16 l -23.658,-11.11 -24.506,10.97 6.789,-23.8 -17.302,-18.34 z"
         style="fill:#1a1719;stroke:#000000;stroke-width:2.92px"
         id="path400" /></g></g><g
     style="clip-rule:evenodd;fill-rule:evenodd;stroke-linecap:round;stroke-linejoin:round;stroke-miterlimit:1.5"
     transform="matrix(0.459435,0,0,0.453147,1392.599,2733.5718)"
     id="g412"><path
       d="m 1158.66,1695.4 c -5.49,-31.52 -23.98,-56.72 -53.04,-76.21 -39.89,-26.73 -100.73,-42.63 -173.231,-50.22 -272.828,-28.56 -714.583,58.01 -782.598,67.67 -133.29,18.94 -208.063,168.75 -170.52,316.75 76.759,302.59 304.063,476.27 390.782,527.54 149.034,88.11 367.251,149.55 535.726,128.96 116.321,-14.22 209.111,-67.27 243.241,-174.39 38.85,-121.92 57.78,-464.04 9.64,-740.1 z m -27.22,4.88 c 47.25,271.02 29.41,606.91 -8.73,726.61 -30.72,96.43 -115.52,142.37 -220.24,155.17 -163.092,19.93 -374.217,-40.05 -518.489,-125.35 -83.879,-49.59 -303.687,-217.62 -377.932,-510.3 -33.213,-130.93 29.663,-265.25 147.58,-282.01 67.438,-9.58 505.408,-95.86 775.921,-67.55 56.348,5.9 105.27,16.71 141.52,34.64 32.92,16.29 55.04,38.26 60.37,68.79 z"
       style="fill:#e30011"
       id="path410" /></g></g></g>
    </g>
</svg>
