<svg version="1.1" width="122.667" height="124" viewBox="0 0 92 93" xmlns="http://www.w3.org/2000/svg" xmlns:xlink="http://www.w3.org/1999/xlink" overflow="hidden"><defs><clipPath id="clip1"><path d=" M 65 80 L 78 80 L 78 92.6406 L 65 92.6406 Z"/></clipPath><clipPath id="clip2"><path d=" M 30 80 L 43 80 L 43 92.6406 L 30 92.6406 Z"/></clipPath></defs><g id="surface32"><path d=" M 131.066 94.5352 L 108.762 94.5352" stroke="#FA8440" stroke-width="3.43579" stroke-linecap="square" stroke-linejoin="miter" stroke-miterlimit="3.25" stroke-opacity="1" fill="none" transform="matrix(1,0,0,1,-66,-8)"/><path d=" M 138.918 88.832 L 145.809 67.6211" stroke="#FA8440" stroke-width="3.43579" stroke-linecap="square" stroke-linejoin="miter" stroke-miterlimit="3.25" stroke-opacity="1" fill="none" transform="matrix(1,0,0,1,-66,-8)"/><path d=" M 94.0156 67.6211 L 100.906 88.832" stroke="#FA8440" stroke-width="3.43579" stroke-linecap="square" stroke-linejoin="miter" stroke-miterlimit="3.25" stroke-opacity="1" fill="none" transform="matrix(1,0,0,1,-66,-8)"/><path d=" M 88.6367 57.0586 L 75.5273 39.0156" stroke="#000000" stroke-width="3.43579" stroke-linecap="square" stroke-linejoin="miter" stroke-miterlimit="3.25" stroke-opacity="1" fill="none" transform="matrix(1,0,0,1,-66,-8)"/><path d=" M 97.0156 58.3867 L 115.059 45.2773" stroke="#FA8440" stroke-width="3.43579" stroke-linecap="square" stroke-linejoin="miter" stroke-miterlimit="3.25" stroke-opacity="1" fill="none" transform="matrix(1,0,0,1,-66,-8)"/><path d=" M 150.621 33.7656 L 148.293 55.9453" stroke="#000000" stroke-width="3.43579" stroke-linecap="square" stroke-linejoin="miter" stroke-miterlimit="3.25" stroke-opacity="1" fill="none" transform="matrix(1,0,0,1,-66,-8)"/><path d=" M 145.77 30.2383 L 125.395 39.3125" stroke="#000000" stroke-width="3.43579" stroke-linecap="square" stroke-linejoin="miter" stroke-miterlimit="3.25" stroke-opacity="1" fill="none" transform="matrix(1,0,0,1,-66,-8)"/><path d=" M 94.8984 17.5273 L 76.8555 30.6367" stroke="#000000" stroke-width="3.43579" stroke-linecap="square" stroke-linejoin="miter" stroke-miterlimit="3.25" stroke-opacity="1" fill="none" transform="matrix(1,0,0,1,-66,-8)"/><path d=" M 103.277 18.8555 L 116.387 36.8984" stroke="#000000" stroke-width="3.43579" stroke-linecap="square" stroke-linejoin="miter" stroke-miterlimit="3.25" stroke-opacity="1" fill="none" transform="matrix(1,0,0,1,-66,-8)"/><path d=" M 142.809 58.3867 L 124.766 45.2773" stroke="#FA8440" stroke-width="3.43579" stroke-linecap="square" stroke-linejoin="miter" stroke-miterlimit="3.25" stroke-opacity="1" fill="none" transform="matrix(1,0,0,1,-66,-8)"/><g clip-rule="nonzero" clip-path="url(#clip1)"><path d=" M 77.0664 86.5352 C 77.0664 84.9453 76.4336 83.418 75.3086 82.293 C 74.1836 81.168 72.6563 80.5352 71.0664 80.5352 C 69.4727 80.5352 67.9453 81.168 66.8203 82.293 C 65.6953 83.418 65.0664 84.9453 65.0664 86.5352 C 65.0664 88.1289 65.6953 89.6523 66.8203 90.7813 C 67.9453 91.9063 69.4727 92.5352 71.0664 92.5352 C 72.6563 92.5352 74.1836 91.9063 75.3086 90.7813 C 76.4336 89.6523 77.0664 88.1289 77.0664 86.5352 Z" stroke="none" fill="#601A4A" fill-rule="evenodd" fill-opacity="1"/></g><path d=" M 32.1641 53.9141 C 32.1641 52.3203 31.5313 50.7969 30.4063 49.6719 C 29.2813 48.5469 27.7539 47.9141 26.1641 47.9141 C 24.5703 47.9141 23.043 48.5469 21.918 49.6719 C 20.793 50.7969 20.1641 52.3203 20.1641 53.9141 C 20.1641 55.5039 20.793 57.0313 21.918 58.1563 C 23.043 59.2813 24.5703 59.9141 26.1641 59.9141 C 27.7539 59.9141 29.2813 59.2813 30.4063 58.1563 C 31.5313 57.0313 32.1641 55.5039 32.1641 53.9141 Z" stroke="none" fill="#F05030" fill-rule="evenodd" fill-opacity="1"/><path d=" M 91.25 19.8008 C 91.25 18.207 90.6172 16.6836 89.4922 15.5547 C 88.3672 14.4297 86.8398 13.8008 85.25 13.8008 C 83.6602 13.8008 82.1328 14.4297 81.0078 15.5547 C 79.8828 16.6836 79.25 18.207 79.25 19.8008 C 79.25 21.3906 79.8828 22.918 81.0078 24.043 C 82.1328 25.168 83.6602 25.8008 85.25 25.8008 C 86.8398 25.8008 88.3672 25.168 89.4922 24.043 C 90.6172 22.918 91.25 21.3906 91.25 19.8008 Z" stroke="none" fill="#601A4A" fill-rule="evenodd" fill-opacity="1"/><path d=" M 39.75 6 C 39.75 4.41016 39.1172 2.88281 37.9922 1.75781 C 36.8672 0.632813 35.3438 0 33.75 0 C 32.1602 0 30.6328 0.632813 29.5078 1.75781 C 28.3828 2.88281 27.75 4.41016 27.75 6 C 27.75 7.58984 28.3828 9.11719 29.5078 10.2422 C 30.6328 11.3672 32.1602 12 33.75 12 C 35.3438 12 36.8672 11.3672 37.9922 10.2422 C 39.1172 9.11719 39.75 7.58984 39.75 6 Z" stroke="none" fill="#F05030" fill-rule="evenodd" fill-opacity="1"/><g clip-rule="nonzero" clip-path="url(#clip2)"><path d=" M 42.7617 86.5352 C 42.7617 84.9453 42.1289 83.418 41.0039 82.293 C 39.8789 81.168 38.3555 80.5352 36.7617 80.5352 C 35.1719 80.5352 33.6445 81.168 32.5195 82.293 C 31.3945 83.418 30.7617 84.9453 30.7617 86.5352 C 30.7617 88.1289 31.3945 89.6523 32.5195 90.7813 C 33.6445 91.9063 35.1719 92.5352 36.7617 92.5352 C 38.3555 92.5352 39.8789 91.9063 41.0039 90.7813 C 42.1289 89.6523 42.7617 88.1289 42.7617 86.5352 Z" stroke="none" fill="#63ACBE" fill-rule="evenodd" fill-opacity="1"/></g><path d=" M 87.6641 53.9141 C 87.6641 52.3203 87.0313 50.7969 85.9063 49.6719 C 84.7813 48.5469 83.2539 47.9141 81.6641 47.9141 C 80.0742 47.9141 78.5469 48.5469 77.4219 49.6719 C 76.2969 50.7969 75.6641 52.3203 75.6641 53.9141 C 75.6641 55.5039 76.2969 57.0313 77.4219 58.1563 C 78.5469 59.2813 80.0742 59.9141 81.6641 59.9141 C 83.2539 59.9141 84.7813 59.2813 85.9063 58.1563 C 87.0313 57.0313 87.6641 55.5039 87.6641 53.9141 Z" stroke="none" fill="#F05030" fill-rule="evenodd" fill-opacity="1"/><path d=" M 12 26.1641 C 12 24.5703 11.3672 23.043 10.2422 21.918 C 9.11719 20.793 7.58984 20.1641 6 20.1641 C 4.41016 20.1641 2.88281 20.793 1.75781 21.918 C 0.632813 23.043 0 24.5703 0 26.1641 C 0 27.7539 0.632813 29.2813 1.75781 30.4063 C 2.88281 31.5313 4.41016 32.1641 6 32.1641 C 7.58984 32.1641 9.11719 31.5313 10.2422 30.4063 C 11.3672 29.2813 12 27.7539 12 26.1641 Z" stroke="none" fill="#63ACBE" fill-rule="evenodd" fill-opacity="1"/><path d=" M 59.9141 33.75 C 59.9141 32.1602 59.2813 30.6328 58.1563 29.5078 C 57.0313 28.3828 55.5039 27.75 53.9141 27.75 C 52.3203 27.75 50.7969 28.3828 49.6719 29.5078 C 48.5469 30.6328 47.9141 32.1602 47.9141 33.75 C 47.9141 35.3438 48.5469 36.8672 49.6719 37.9922 C 50.7969 39.1172 52.3203 39.75 53.9141 39.75 C 55.5039 39.75 57.0313 39.1172 58.1563 37.9922 C 59.2813 36.8672 59.9141 35.3438 59.9141 33.75 Z" stroke="none" fill="#63ACBE" fill-rule="evenodd" fill-opacity="1"/></g></svg>