<?xml version="1.0" encoding="UTF-8" standalone="no"?>
<svg
   xmlns:dc="http://purl.org/dc/elements/1.1/"
   xmlns:cc="http://creativecommons.org/ns#"
   xmlns:rdf="http://www.w3.org/1999/02/22-rdf-syntax-ns#"
   xmlns:svg="http://www.w3.org/2000/svg"
   xmlns="http://www.w3.org/2000/svg"
   xmlns:sodipodi="http://sodipodi.sourceforge.net/DTD/sodipodi-0.dtd"
   xmlns:inkscape="http://www.inkscape.org/namespaces/inkscape"
   sodipodi:docname="2021-DE-05-explanation-fra-nose11.svg"
   inkscape:version="1.0 (4035a4fb49, 2020-05-01)"
   id="svg1021"
   version="1.1"
   viewBox="0 0 48.735756 3.4236317"
   height="3.4236317mm"
   width="48.735756mm">
  <defs
     id="defs1015" />
  <sodipodi:namedview
     inkscape:window-maximized="1"
     inkscape:window-y="222"
     inkscape:window-x="-8"
     inkscape:window-height="987"
     inkscape:window-width="1680"
     fit-margin-bottom="0"
     fit-margin-right="0"
     fit-margin-left="0"
     fit-margin-top="0"
     showgrid="false"
     inkscape:document-rotation="0"
     inkscape:current-layer="g1358"
     inkscape:document-units="mm"
     inkscape:cy="70"
     inkscape:cx="110.52863"
     inkscape:zoom="2.8741722"
     inkscape:pageshadow="2"
     inkscape:pageopacity="0.0"
     borderopacity="1.0"
     bordercolor="#666666"
     pagecolor="#ffffff"
     id="base" />
  <metadata
     id="metadata1018">
    <rdf:RDF>
      <cc:Work
         rdf:about="">
        <dc:format>image/svg+xml</dc:format>
        <dc:type
           rdf:resource="http://purl.org/dc/dcmitype/StillImage" />
        <dc:title />
      </cc:Work>
    </rdf:RDF>
  </metadata>
  <g
     transform="translate(-35.794895,-29.541573)"
     id="layer1"
     inkscape:groupmode="layer"
     inkscape:label="Ebene 1">
    <g
       id="g1358"
       transform="matrix(0.26458333,0,0,0.26458333,-71.53866,-7.005321)">
      <path
         id="rect948-51-5-1-8"
         d="m 412.14,138.13 -5.4509,5.451 -1.018,1.0198 6.4689,6.4689 0.0465,-0.0465 h 7.5297 l 0.0465,0.0465 0.0465,-0.0465 h 155.92 l 0.0465,0.0465 0.0465,-0.0465 h 7.5297 l 0.0465,0.0465 5.4509,-5.4509 1.018,-1.018 -6.4689,-6.4708 -0.0465,0.0465 h -7.5297 l -0.0465,-0.0465 -0.0465,0.0465 h -155.92 l -0.0465,-0.0465 -0.0465,0.0465 h -7.5297 z"
         style="font-variation-settings:normal;opacity:0.995;fill:#37c871;stop-color:#000000" />
      <g
         style="font-weight:bold;font-size:12px;line-height:1.25;font-family:Arial;font-variant-ligatures:normal;font-variant-caps:normal;font-variant-numeric:normal;font-feature-settings:normal;letter-spacing:0px;word-spacing:0px;fill:#000000"
         id="text1104-7-4-0"
         aria-label="longueur_du_nez &lt; 1,1">
        <path
           id="path859"
           style="font-weight:bold;font-size:12px;font-family:'Courier New'"
           d="m 426.52505,139.63506 v 6.39843 h 1.44141 q 0.43359,0 0.61524,0.16992 0.1875,0.16407 0.1875,0.4336 0,0.26367 -0.1875,0.43359 -0.18165,0.16406 -0.61524,0.16406 h -4.08398 q -0.4336,0 -0.6211,-0.16406 -0.18164,-0.16992 -0.18164,-0.43945 0,-0.26367 0.18164,-0.42774 0.1875,-0.16992 0.6211,-0.16992 h 1.4414 v -5.19726 h -0.96679 q -0.42774,0 -0.61524,-0.16407 -0.1875,-0.16992 -0.1875,-0.43945 0,-0.26367 0.18164,-0.42773 0.1875,-0.16992 0.6211,-0.16992 z" />
        <path
           id="path861"
           style="font-weight:bold;font-size:12px;font-family:'Courier New'"
           d="m 436.2399,144.67412 q 0,0.6914 -0.38672,1.34179 -0.38086,0.64454 -1.14258,1.03125 -0.75586,0.38086 -1.58203,0.38086 -0.82031,0 -1.57031,-0.375 -0.75,-0.38086 -1.14258,-1.03125 -0.39258,-0.65039 -0.39258,-1.35937 0,-0.7207 0.39844,-1.41211 0.39844,-0.69727 1.14258,-1.0957 0.75,-0.39844 1.56445,-0.39844 0.82031,0 1.57617,0.41016 0.76172,0.40429 1.14844,1.0957 0.38672,0.68555 0.38672,1.41211 z m -1.20117,0.006 q 0,-0.58008 -0.41602,-1.06641 -0.56836,-0.65625 -1.49414,-0.65625 -0.81445,0 -1.35937,0.52149 -0.54493,0.52148 -0.54493,1.20703 0,0.5625 0.55078,1.05468 0.55079,0.48633 1.35352,0.48633 0.80859,0 1.35938,-0.48633 0.55078,-0.49218 0.55078,-1.06054 z" />
        <path
           id="path863"
           style="font-weight:bold;font-size:12px;font-family:'Courier New'"
           d="m 439.09927,141.91435 v 0.4043 q 0.32813,-0.28125 0.72071,-0.42188 0.39843,-0.14062 0.86132,-0.14062 1.06641,0 1.6875,0.66211 0.49219,0.52734 0.49219,1.38281 v 2.23242 q 0.38086,0 0.5625,0.16992 0.18164,0.16407 0.18164,0.4336 0,0.26367 -0.1875,0.43359 -0.18164,0.16406 -0.61523,0.16406 h -1.08399 q -0.43359,0 -0.62109,-0.16406 -0.18164,-0.16992 -0.18164,-0.43945 0,-0.26367 0.18164,-0.42774 0.18164,-0.16992 0.5625,-0.16992 v -2.26758 q 0,-0.39257 -0.21094,-0.57421 -0.27539,-0.23438 -0.82617,-0.23438 -0.41601,0 -0.73242,0.16406 -0.31055,0.15821 -0.79102,0.67969 v 2.23242 q 0.46289,0 0.59766,0.0879 0.28711,0.17578 0.28711,0.51563 0,0.26367 -0.1875,0.43359 -0.18164,0.16406 -0.61524,0.16406 h -1.36523 q -0.43359,0 -0.62109,-0.16406 -0.18164,-0.16992 -0.18164,-0.43945 0,-0.32813 0.28125,-0.50977 0.14062,-0.0879 0.60351,-0.0879 v -2.91797 q -0.38086,0 -0.5625,-0.16992 -0.18164,-0.16992 -0.18164,-0.43359 0,-0.26367 0.18164,-0.42774 0.1875,-0.16992 0.6211,-0.16992 z" />
        <path
           id="path865"
           style="font-weight:bold;font-size:12px;font-family:'Courier New'"
           d="m 448.8317,142.27177 v -0.35742 h 1.40625 q 0.43359,0 0.61523,0.16992 0.1875,0.16407 0.1875,0.4336 0,0.26367 -0.1875,0.43359 -0.18164,0.16406 -0.61523,0.16406 h -0.20508 v 4.3711 q 0,0.63281 -0.26953,1.10156 -0.26368,0.47461 -0.81446,0.81445 -0.55078,0.33985 -1.24218,0.33985 h -1.35938 q -0.43359,0 -0.62109,-0.16992 -0.18164,-0.16407 -0.18164,-0.42774 0,-0.26953 0.18164,-0.43945 0.1875,-0.16406 0.62109,-0.16406 h 1.32422 q 0.55078,0 0.85547,-0.29883 0.30469,-0.29883 0.30469,-0.75586 v -0.58594 q -0.39844,0.25781 -0.81446,0.38672 -0.41015,0.12891 -0.84375,0.12891 -1.22461,0 -2.05078,-0.81446 -0.82617,-0.82031 -0.82617,-2.02148 0,-1.20703 0.82617,-2.02149 0.82617,-0.82031 2.05078,-0.82031 0.45703,0 0.86719,0.13477 0.41602,0.1289 0.79102,0.39843 z m -0.006,2.30274 q 0,-0.66211 -0.49219,-1.14844 -0.48633,-0.48633 -1.17188,-0.48633 -0.68554,0 -1.17773,0.48633 -0.48633,0.48633 -0.48633,1.14844 0,0.66797 0.48633,1.1543 0.49219,0.48046 1.17773,0.48046 0.68555,0 1.17188,-0.48046 0.49219,-0.48633 0.49219,-1.1543 z" />
        <path
           id="path867"
           style="font-weight:bold;font-size:12px;font-family:'Courier New'"
           d="m 457.25748,141.91435 v 4.11914 q 0.38086,0 0.5625,0.16992 0.18164,0.16993 0.18164,0.4336 0,0.26367 -0.1875,0.43359 -0.18164,0.16406 -0.61524,0.16406 h -1.14258 v -0.27539 q -0.51562,0.23438 -0.98437,0.35157 -0.46875,0.11718 -0.89063,0.11718 -0.59179,0 -1.02539,-0.24609 -0.43359,-0.25195 -0.68554,-0.69141 -0.18164,-0.3164 -0.18164,-0.79101 v -2.58399 h -0.20508 q -0.4336,0 -0.6211,-0.16406 -0.18164,-0.16992 -0.18164,-0.43945 0,-0.26367 0.18164,-0.42774 0.1875,-0.16992 0.6211,-0.16992 h 1.40625 v 3.57422 q 0,0.38086 0.18164,0.5625 0.1875,0.17578 0.56836,0.17578 0.36328,0 0.7793,-0.14062 0.42187,-0.14649 1.0371,-0.52149 v -2.44922 h -0.43359 q -0.43359,0 -0.62109,-0.16406 -0.18164,-0.16992 -0.18164,-0.43945 0,-0.26367 0.18164,-0.42774 0.1875,-0.16992 0.62109,-0.16992 z" />
        <path
           id="path869"
           style="font-weight:bold;font-size:12px;font-family:'Courier New'"
           d="m 464.91568,145.18388 h -4.92773 q 0.1875,0.46875 0.6621,0.75586 0.48047,0.28711 1.29493,0.28711 0.66797,0 1.77539,-0.28711 0.45703,-0.11718 0.63281,-0.11718 0.24023,0 0.4043,0.16992 0.16406,0.16992 0.16406,0.42773 0,0.23438 -0.17578,0.39844 -0.23438,0.2168 -1.14258,0.41601 -0.9082,0.19336 -1.74609,0.19336 -1.44141,0 -2.3086,-0.81445 -0.86133,-0.81445 -0.86133,-2.00391 0,-1.26562 0.93164,-2.05664 0.9375,-0.79687 2.15625,-0.79687 0.73243,0 1.3418,0.25781 0.61524,0.25781 0.91406,0.55664 0.42188,0.4336 0.69727,1.07227 0.1875,0.44531 0.1875,1.03125 z m -1.33008,-1.20117 q -0.27539,-0.51562 -0.7207,-0.76758 -0.44531,-0.25781 -1.06055,-0.25781 -0.60937,0 -1.05469,0.25781 -0.44531,0.25196 -0.72656,0.76758 z" />
        <path
           id="path871"
           style="font-weight:bold;font-size:12px;font-family:'Courier New'"
           d="m 471.6481,141.91435 v 4.11914 q 0.38086,0 0.5625,0.16992 0.18164,0.16993 0.18164,0.4336 0,0.26367 -0.1875,0.43359 -0.18164,0.16406 -0.61523,0.16406 h -1.14258 v -0.27539 q -0.51563,0.23438 -0.98438,0.35157 -0.46875,0.11718 -0.89062,0.11718 -0.5918,0 -1.02539,-0.24609 -0.43359,-0.25195 -0.68555,-0.69141 -0.18164,-0.3164 -0.18164,-0.79101 v -2.58399 h -0.20508 q -0.43359,0 -0.62109,-0.16406 -0.18164,-0.16992 -0.18164,-0.43945 0,-0.26367 0.18164,-0.42774 0.1875,-0.16992 0.62109,-0.16992 h 1.40625 v 3.57422 q 0,0.38086 0.18164,0.5625 0.1875,0.17578 0.56836,0.17578 0.36328,0 0.7793,-0.14062 0.42188,-0.14649 1.03711,-0.52149 v -2.44922 h -0.43359 q -0.4336,0 -0.6211,-0.16406 -0.18164,-0.16992 -0.18164,-0.43945 0,-0.26367 0.18164,-0.42774 0.1875,-0.16992 0.6211,-0.16992 z" />
        <path
           id="path873"
           style="font-weight:bold;font-size:12px;font-family:'Courier New'"
           d="m 476.04263,141.91435 v 0.75 q 0.75586,-0.54492 1.18946,-0.72656 0.43945,-0.18164 0.82031,-0.18164 0.58594,0 1.13672,0.43359 0.375,0.29297 0.375,0.59766 0,0.25781 -0.18164,0.43945 -0.17578,0.17578 -0.42774,0.17578 -0.22265,0 -0.46875,-0.22265 -0.24609,-0.22266 -0.43945,-0.22266 -0.25195,0 -0.75586,0.31641 -0.49805,0.3164 -1.24805,0.94922 v 1.81054 h 1.71094 q 0.43359,0 0.61523,0.16992 0.1875,0.16407 0.1875,0.4336 0,0.26367 -0.1875,0.43359 -0.18164,0.16406 -0.61523,0.16406 h -3.62695 q -0.4336,0 -0.6211,-0.16406 -0.18164,-0.16992 -0.18164,-0.43945 0,-0.26367 0.18164,-0.42774 0.1875,-0.16992 0.6211,-0.16992 h 0.71484 v -2.91797 h -0.43359 q -0.4336,0 -0.6211,-0.16406 -0.18164,-0.16992 -0.18164,-0.43945 0,-0.26367 0.18164,-0.42774 0.1875,-0.16992 0.6211,-0.16992 z" />
        <path
           id="path875"
           style="font-weight:bold;font-size:12px;font-family:'Courier New'"
           d="m 486.81216,150.83818 h -6.59765 q -0.4336,0 -0.61524,-0.16406 -0.1875,-0.16406 -0.1875,-0.4336 0,-0.26953 0.1875,-0.43945 0.18164,-0.16406 0.61524,-0.16406 h 6.59765 q 0.42774,0 0.60938,0.16406 0.1875,0.16992 0.1875,0.43945 0,0.26368 -0.18164,0.42774 -0.18164,0.16992 -0.61524,0.16992 z" />
        <path
           id="path877"
           style="font-weight:bold;font-size:12px;font-family:'Courier New'"
           d="m 493.43912,139.63506 v 6.39843 h 0.20508 q 0.42773,0 0.61523,0.16992 0.1875,0.16407 0.1875,0.4336 0,0.26367 -0.1875,0.43359 -0.18164,0.16406 -0.61523,0.16406 h -1.40625 v -0.29296 q -0.41016,0.24023 -0.86133,0.36328 -0.44532,0.12304 -0.92578,0.12304 -1.35352,0 -2.17969,-0.77929 -0.82617,-0.78516 -0.82617,-1.95117 0,-1.21875 0.86718,-2.08008 0.86719,-0.86133 2.11524,-0.86133 0.46875,0 0.91992,0.14648 0.45117,0.14063 0.89063,0.42774 v -1.49414 h -0.20508 q -0.4336,0 -0.6211,-0.16407 -0.18164,-0.16992 -0.18164,-0.43359 0,-0.26953 0.18164,-0.43359 0.1875,-0.16992 0.6211,-0.16992 z m -1.20117,5.09765 q 0,-0.74414 -0.52149,-1.25976 -0.52148,-0.51563 -1.27734,-0.51563 -0.75,0 -1.27149,0.51563 -0.52148,0.51562 -0.52148,1.24218 0,0.66211 0.46875,1.08985 0.46875,0.42187 1.32422,0.42187 0.84961,0 1.32422,-0.42187 0.47461,-0.42774 0.47461,-1.07227 z" />
        <path
           id="path879"
           style="font-weight:bold;font-size:12px;font-family:'Courier New'"
           d="m 500.42935,141.91435 v 4.11914 q 0.38086,0 0.5625,0.16992 0.18164,0.16993 0.18164,0.4336 0,0.26367 -0.1875,0.43359 -0.18164,0.16406 -0.61523,0.16406 h -1.14258 v -0.27539 q -0.51563,0.23438 -0.98438,0.35157 -0.46875,0.11718 -0.89062,0.11718 -0.5918,0 -1.02539,-0.24609 -0.43359,-0.25195 -0.68555,-0.69141 -0.18164,-0.3164 -0.18164,-0.79101 v -2.58399 h -0.20508 q -0.43359,0 -0.62109,-0.16406 -0.18164,-0.16992 -0.18164,-0.43945 0,-0.26367 0.18164,-0.42774 0.1875,-0.16992 0.62109,-0.16992 h 1.40625 v 3.57422 q 0,0.38086 0.18164,0.5625 0.1875,0.17578 0.56836,0.17578 0.36328,0 0.7793,-0.14062 0.42188,-0.14649 1.03711,-0.52149 v -2.44922 h -0.43359 q -0.4336,0 -0.6211,-0.16406 -0.18164,-0.16992 -0.18164,-0.43945 0,-0.26367 0.18164,-0.42774 0.1875,-0.16992 0.6211,-0.16992 z" />
        <path
           id="path881"
           style="font-weight:bold;font-size:12px;font-family:'Courier New'"
           d="m 508.3981,150.83818 h -6.59765 q -0.4336,0 -0.61524,-0.16406 -0.1875,-0.16406 -0.1875,-0.4336 0,-0.26953 0.1875,-0.43945 0.18164,-0.16406 0.61524,-0.16406 h 6.59765 q 0.42774,0 0.60938,0.16406 0.1875,0.16992 0.1875,0.43945 0,0.26368 -0.18164,0.42774 -0.18164,0.16992 -0.61524,0.16992 z" />
        <path
           id="path883"
           style="font-weight:bold;font-size:12px;font-family:'Courier New'"
           d="m 511.0524,141.91435 v 0.4043 q 0.32812,-0.28125 0.7207,-0.42188 0.39844,-0.14062 0.86133,-0.14062 1.06641,0 1.6875,0.66211 0.49219,0.52734 0.49219,1.38281 v 2.23242 q 0.38086,0 0.5625,0.16992 0.18164,0.16407 0.18164,0.4336 0,0.26367 -0.1875,0.43359 -0.18164,0.16406 -0.61524,0.16406 h -1.08398 q -0.43359,0 -0.62109,-0.16406 -0.18165,-0.16992 -0.18165,-0.43945 0,-0.26367 0.18165,-0.42774 0.18164,-0.16992 0.5625,-0.16992 v -2.26758 q 0,-0.39257 -0.21094,-0.57421 -0.27539,-0.23438 -0.82617,-0.23438 -0.41602,0 -0.73243,0.16406 -0.31054,0.15821 -0.79101,0.67969 v 2.23242 q 0.46289,0 0.59765,0.0879 0.28711,0.17578 0.28711,0.51563 0,0.26367 -0.1875,0.43359 -0.18164,0.16406 -0.61523,0.16406 h -1.36523 q -0.4336,0 -0.6211,-0.16406 -0.18164,-0.16992 -0.18164,-0.43945 0,-0.32813 0.28125,-0.50977 0.14063,-0.0879 0.60352,-0.0879 v -2.91797 q -0.38086,0 -0.5625,-0.16992 -0.18164,-0.16992 -0.18164,-0.43359 0,-0.26367 0.18164,-0.42774 0.1875,-0.16992 0.62109,-0.16992 z" />
        <path
           id="path885"
           style="font-weight:bold;font-size:12px;font-family:'Courier New'"
           d="m 522.47818,145.18388 h -4.92773 q 0.1875,0.46875 0.6621,0.75586 0.48047,0.28711 1.29493,0.28711 0.66797,0 1.77539,-0.28711 0.45703,-0.11718 0.63281,-0.11718 0.24023,0 0.4043,0.16992 0.16406,0.16992 0.16406,0.42773 0,0.23438 -0.17578,0.39844 -0.23438,0.2168 -1.14258,0.41601 -0.9082,0.19336 -1.74609,0.19336 -1.44141,0 -2.3086,-0.81445 -0.86133,-0.81445 -0.86133,-2.00391 0,-1.26562 0.93164,-2.05664 0.9375,-0.79687 2.15625,-0.79687 0.73243,0 1.3418,0.25781 0.61524,0.25781 0.91406,0.55664 0.42188,0.4336 0.69727,1.07227 0.1875,0.44531 0.1875,1.03125 z m -1.33008,-1.20117 q -0.27539,-0.51562 -0.7207,-0.76758 -0.44531,-0.25781 -1.06055,-0.25781 -0.60937,0 -1.05469,0.25781 -0.44531,0.25196 -0.72656,0.76758 z" />
        <path
           id="path887"
           style="font-weight:bold;font-size:12px;font-family:'Courier New'"
           d="m 526.01138,146.03349 h 2.10938 q 0.0176,-0.33398 0.18164,-0.49804 0.16992,-0.16993 0.41601,-0.16993 0.26954,0 0.4336,0.1875 0.16992,0.18164 0.16992,0.61524 v 1.0664 h -5.22656 v -0.99609 l 3.16406,-3.12305 h -1.83984 v 0.11719 q 0,0.42774 -0.16993,0.61524 -0.16406,0.18164 -0.43359,0.18164 -0.26953,0 -0.43945,-0.18164 -0.16407,-0.1875 -0.16407,-0.61524 l 0.006,-1.31836 h 4.96875 v 0.98438 z" />
        <path
           id="path889"
           style="font-weight:bold;font-size:12px;font-family:'Courier New'"
           d="m 539.79263,143.81279 3.89063,2.15625 q 0.29297,0.16406 0.38672,0.29297 0.0996,0.1289 0.0996,0.32812 0,0.25196 -0.18164,0.43946 -0.18165,0.18164 -0.42188,0.18164 -0.1582,0 -0.47461,-0.17578 l -5.79492,-3.22266 5.79492,-3.22266 q 0.31641,-0.16992 0.46875,-0.16992 0.24609,0 0.42774,0.18164 0.18164,0.18164 0.18164,0.4336 0,0.19921 -0.0996,0.32812 -0.0937,0.12891 -0.38672,0.29297 z" />
        <path
           id="path891"
           style="font-weight:bold;font-size:12px;font-family:'Courier New'"
           d="m 556.0524,139.45927 v 6.57422 h 1.21289 q 0.43359,0 0.61523,0.16992 0.1875,0.16407 0.1875,0.4336 0,0.26367 -0.1875,0.43359 -0.18164,0.16406 -0.61523,0.16406 h -3.62695 q -0.4336,0 -0.6211,-0.16406 -0.18164,-0.16992 -0.18164,-0.43945 0,-0.26367 0.18164,-0.42774 0.1875,-0.16992 0.6211,-0.16992 h 1.21289 v -5.00976 l -1.07227,0.28125 q -0.25781,0.0703 -0.38672,0.0703 -0.22851,0 -0.39844,-0.18164 -0.16406,-0.18164 -0.16406,-0.44531 0,-0.24024 0.12305,-0.375 0.12305,-0.14063 0.51562,-0.2461 z" />
        <path
           id="path893"
           style="font-weight:bold;font-size:12px;font-family:'Courier New'"
           d="m 562.35123,145.61748 h 1.60547 l -1.72852,3.25781 q -0.15234,0.28711 -0.38086,0.28711 -0.15234,0 -0.26367,-0.0996 -0.10547,-0.0996 -0.10547,-0.22266 0,-0.0879 0.041,-0.24023 z" />
        <path
           id="path895"
           style="font-weight:bold;font-size:12px;font-family:'Courier New'"
           d="m 570.44302,139.45927 v 6.57422 h 1.21289 q 0.4336,0 0.61524,0.16992 0.1875,0.16407 0.1875,0.4336 0,0.26367 -0.1875,0.43359 -0.18164,0.16406 -0.61524,0.16406 h -3.62695 q -0.43359,0 -0.62109,-0.16406 -0.18164,-0.16992 -0.18164,-0.43945 0,-0.26367 0.18164,-0.42774 0.1875,-0.16992 0.62109,-0.16992 h 1.21289 v -5.00976 l -1.07226,0.28125 q -0.25782,0.0703 -0.38672,0.0703 -0.22852,0 -0.39844,-0.18164 -0.16406,-0.18164 -0.16406,-0.44531 0,-0.24024 0.12304,-0.375 0.12305,-0.14063 0.51563,-0.2461 z" />
      </g>
    </g>
  </g>
</svg>
