<?xml version="1.0" encoding="utf-8"?>
<!-- Generator: Adobe Illustrator 25.2.0, SVG Export Plug-In . SVG Version: 6.00 Build 0)  -->
<svg version="1.1" id="Layer_1" xmlns="http://www.w3.org/2000/svg" xmlns:xlink="http://www.w3.org/1999/xlink" x="0px" y="0px"
	 viewBox="0 0 38.6 23.57" style="enable-background:new 0 0 38.6 23.57;" xml:space="preserve">
<style type="text/css">
	.st0{fill:#C2EFA8;stroke:#686867;stroke-width:0.5;stroke-miterlimit:10;}
	.st1{fill:#39D8F8;stroke:#686867;stroke-width:0.5;stroke-miterlimit:10;}
	.st2{fill:#41493B;}
	.st3{fill:#006DAF;}
	.st4{fill:#F6A64E;}
	.st5{fill:#F08864;}
	.st6{fill:#C8685F;}
	.st7{fill:#CB7667;}
	.st8{fill:#3D241F;}
	.st9{fill:none;stroke:#3D241F;stroke-width:0.5714;stroke-miterlimit:10;}
	.st10{fill:#763633;}
	.st11{fill:#000100;}
	.st12{fill:#864139;}
	.st13{fill:#6D332F;}
	.st14{fill:none;stroke:#864139;stroke-width:0.5714;stroke-miterlimit:10;}
	.st15{fill:#453345;}
	.st16{fill:#F6DED3;}
	.st17{fill:#F3A07F;}
	.st18{fill:none;stroke:#EA8D29;stroke-width:0.9688;stroke-linecap:round;stroke-linejoin:round;stroke-miterlimit:10;}
	.st19{fill:#F49E36;}
	.st20{fill:#EA8D29;}
</style>
<g>
	<g>
		<g>
			<path class="st3" d="M2.99,10.99C3.75,8.87,5.48,3.72,9.25,6.4c1.56,1.11,2.08,3.99,2.86,5.63c0.51,1.07,1.03,2.42,2.14,3.01
				c3.13,1.66,4.92-2.25,5.96-4.47c0.78-1.67,1.36-5.61,3.11-6.35c2.13-0.9,5.35,1.24,6.23,2.99c0.85,1.71,1.62,4.07,3.29,5.2
				c2.66,1.79,4.44-0.17,5.46-2.58c0.75-1.78-2.15-2.55-2.89-0.8c-0.83,1.98-3.16-3.14-3.26-3.33c-0.59-1.17-1.15-2.38-2.05-3.36
				c-1.05-1.15-2.33-2.11-3.93-2.29c-1.95-0.22-3.63,0.71-4.96,2.06c-2.03,2.06-2.03,5.49-3.83,7.45c-0.27,1.82-1.24,1.92-2.9,0.31
				c-0.21-0.58-0.44-1.16-0.69-1.73c-0.63-0.9-0.94-1.98-1.62-2.87c-1.05-1.37-2.44-2.66-4.23-2.88C3.53,1.81,1.3,6.85,0.1,10.19
				C-0.56,12.01,2.34,12.8,2.99,10.99L2.99,10.99z"/>
		</g>
	</g>
	<g>
		<g>
			<path class="st3" d="M3.17,19.12c0.77-2.12,2.49-7.27,6.26-4.59c1.56,1.11,2.08,3.99,2.86,5.63c0.51,1.07,1.03,2.42,2.14,3.01
				c3.13,1.66,4.92-2.25,5.96-4.47c0.78-1.67,1.36-5.61,3.11-6.35c2.13-0.9,5.35,1.24,6.23,2.99c0.85,1.71,1.62,4.07,3.29,5.2
				c2.66,1.79,4.44-0.17,5.46-2.58c0.75-1.78-2.15-2.55-2.89-0.8c-0.83,1.98-3.16-3.14-3.26-3.33c-0.59-1.17-1.15-2.38-2.05-3.36
				c-1.05-1.15-2.33-2.11-3.93-2.29c-1.95-0.22-3.63,0.71-4.96,2.06c-2.03,2.06-2.03,5.49-3.83,7.45c-0.27,1.82-1.24,1.92-2.9,0.31
				c-0.21-0.58-0.44-1.16-0.69-1.73c-0.63-0.9-0.94-1.98-1.62-2.87C11.29,12,9.9,10.71,8.11,10.49c-4.4-0.55-6.63,4.49-7.83,7.83
				C-0.38,20.14,2.52,20.92,3.17,19.12L3.17,19.12z"/>
		</g>
	</g>
</g>
</svg>
