<?xml version="1.0" encoding="UTF-8" standalone="no"?>
<svg
   xmlns:dc="http://purl.org/dc/elements/1.1/"
   xmlns:cc="http://creativecommons.org/ns#"
   xmlns:rdf="http://www.w3.org/1999/02/22-rdf-syntax-ns#"
   xmlns:svg="http://www.w3.org/2000/svg"
   xmlns="http://www.w3.org/2000/svg"
   xmlns:sodipodi="http://sodipodi.sourceforge.net/DTD/sodipodi-0.dtd"
   xmlns:inkscape="http://www.inkscape.org/namespaces/inkscape"
   xml:space="preserve"
   width="120.16284mm"
   height="96.585648mm"
   version="1.1"
   style="clip-rule:evenodd;fill-rule:evenodd;image-rendering:optimizeQuality;shape-rendering:geometricPrecision;text-rendering:geometricPrecision"
   viewBox="0 0 8594.6735 6908.1321"
   id="svg49"
   sodipodi:docname="2021-DE-05-body02.svg"
   inkscape:version="1.0 (4035a4fb49, 2020-05-01)"><metadata
   id="metadata53"><rdf:RDF><cc:Work
       rdf:about=""><dc:format>image/svg+xml</dc:format><dc:type
         rdf:resource="http://purl.org/dc/dcmitype/StillImage" /><dc:title /></cc:Work></rdf:RDF></metadata><sodipodi:namedview
   inkscape:window-maximized="1"
   inkscape:window-y="222"
   inkscape:window-x="-8"
   inkscape:cy="274.64438"
   inkscape:cx="275.43373"
   inkscape:zoom="1.4218184"
   inkscape:snap-global="false"
   inkscape:document-rotation="0"
   pagecolor="#ffffff"
   bordercolor="#666666"
   borderopacity="1"
   objecttolerance="10"
   gridtolerance="10"
   guidetolerance="10"
   inkscape:pageopacity="0"
   inkscape:pageshadow="2"
   inkscape:window-width="1680"
   inkscape:window-height="987"
   id="namedview51"
   showgrid="false"
   fit-margin-top="0"
   fit-margin-left="0"
   fit-margin-right="0"
   fit-margin-bottom="0"
   inkscape:current-layer="svg49" />
 <defs
   id="defs4">
  <style
   type="text/css"
   id="style2">
   <![CDATA[
    .fil0 {fill:#666666}
    .fil5 {fill:#686868}
    .fil2 {fill:#8C8C8C}
    .fil3 {fill:#E4C7B4}
    .fil4 {fill:#EAD5BF}
    .fil6 {fill:red}
    .fil1 {fill:white}
   ]]>
  </style>
 
  
  
 
   
   
   
   
   
   
   
   
   
   
   
   
   
   
   
   
   
   
   
   
  </defs>
 <path
   transform="matrix(18.92438,0,0,18.92438,0,-0.08872403)"
   d="M 238.05859 4.3007812 C 235.24816 4.3113342 232.32626 4.3455955 229.28125 4.3984375 C 185.47532 5.1910658 150.70434 5.5609071 123.22656 30.34375 C 130.73011 35.522255 131.62831 34.094602 134.79883 44.240234 C 137.01819 51.426731 138.07581 59.301587 136.33203 67.544922 C 132.42173 86.462318 110.49274 63.686353 105.41992 60.410156 C 80.47857 132.53933 73.080652 123.18728 63.199219 146.33203 C 57.439453 159.80671 36.56594 201.55091 34.875 213.96875 C 33.028543 227.6393 33.339327 235.4684 34.888672 239.73633 C 34.748098 239.77143 34.609402 239.81073 34.46875 239.8457 C 37.569386 257.74837 50.623387 274.52519 57.175781 287.10156 C 57.782413 286.92981 58.406758 286.72978 59.041016 286.51562 C 58.529646 286.91612 58.069828 287.29912 57.716797 287.64453 C 62.525409 292.82303 70.06818 299.67911 77.835938 303.80078 C 83.172958 306.70709 91.04614 313.7338 98.126953 312.0957 C 98.444004 312.0429 134.11267 293.86629 136.33203 292.38672 C 135.85433 291.1447 122.59425 266.06898 119.26562 260.39453 C 117.42206 251.30989 113.61721 237.79501 112.31055 226.23242 C 112.77082 202.41492 131.6061 172.37561 143.88867 166.99219 C 163.28165 158.48464 200.21789 152.30221 223.67969 153.51758 L 228.64648 153.46484 C 263.04655 153.94042 306.00815 165.7777 324.08008 196.32031 C 329.25858 205.03922 331.74049 211.48543 333.53711 221.52539 C 333.7827 222.89216 333.93997 223.92362 334.10352 224.91016 C 333.936 224.93066 333.71026 224.95266 333.57422 224.97266 L 333.43555 253.83008 L 321.22656 282.92773 C 327.99032 284.40731 357.95069 293.44411 361.06836 293.07422 C 371.67855 292.20222 386.75414 278.44017 395.625 269.5625 C 395.81182 269.61409 395.96596 269.6652 396.15625 269.7168 C 396.41366 269.19019 396.60361 268.82368 396.84375 268.33984 C 399.68837 265.45561 401.74791 263.23901 402.55859 262.44141 C 402.05073 261.954 401.34837 261.52402 400.50781 261.13477 C 403.64864 255.04023 404.94105 252.04108 408.7793 236.76562 C 408.6502 236.70465 408.48616 236.63822 408.35156 236.57617 C 413.5569 226.57406 415.87638 195.21832 414.22852 183.42578 C 412.59042 171.5892 390.71219 132.48635 382.41602 121.91797 C 371.68911 108.28476 363.44646 102.78919 355.20312 86.408203 C 352.24408 80.542753 348.06893 69.974538 343.94727 66.169922 C 340.24833 68.653491 329.31134 76.316102 325.08398 77.425781 C 312.50761 61.361847 326.14088 43.342657 327.9375 37.160156 C 297.27269 9.318932 280.21516 4.1424888 238.05859 4.3007812 z M 113.64648 32.867188 C 111.39162 32.869663 109.23757 33.368375 107.42773 34.464844 C 100.98102 38.427985 106.84717 54.016467 109.96484 58.402344 C 113.66378 63.686533 121.53663 68.390231 130.41406 70.503906 C 134.16584 62.78899 133.00385 51.956655 130.15039 43.501953 C 128.08956 37.319452 120.41107 32.859757 113.64648 32.867188 z M 343.21484 35.1875 C 330.51525 35.775034 319.93942 51.860555 326.4043 72.458984 C 348.28084 63.792915 361.27996 41.228319 350.39453 36.525391 C 347.99188 35.501579 345.56662 35.078697 343.21484 35.1875 z M 149.89844 136.27539 C 155.5037 136.36309 161.42274 138.51432 162.85938 141.73438 C 159.16044 148.33951 144.25869 148.18148 139.02734 145.38086 C 137.59566 138.72774 143.5458 136.17601 149.89844 136.27539 z M 290.04492 137.21875 C 295.74205 137.10819 301.82205 139.37631 303.78711 141.73438 C 302.09617 146.75425 297.97504 147.96984 292.00391 148.39258 C 284.39467 148.97384 282.86342 149.13219 278.95312 144.64062 C 280.29069 139.26571 285.01804 137.3163 290.04492 137.21875 z M 335.66797 254.83008 C 349.37623 255.50639 358.0319 256.69469 364.35938 258.22852 C 353.65648 258.45534 343.23074 258.99284 336.73828 259.04688 C 335.9011 259.05379 335.75694 256.95319 335.66797 254.83008 z M 318.63672 286.83789 C 312.82411 293.12608 296.39091 313.31279 288.57031 317.01172 C 302.62625 316.64183 331.79433 306.60068 346.48438 300.3125 C 347.32978 299.94261 349.49654 298.99109 350.23633 298.56836 C 353.45968 296.66605 351.8733 297.77546 353.66992 295.82031 L 318.63672 286.83789 z M 139.97852 296.45508 C 135.1699 297.03634 124.75957 302.21597 120.05664 304.54102 C 115.24803 307.02458 105.89512 311.14634 102.72461 315.05664 C 112.87025 319.23115 154.19348 319.81085 166.61133 318.70117 C 161.32714 314.52666 156.25306 312.46705 151.86719 308.50391 C 147.16426 304.22371 145.15702 301.36937 139.97852 296.45508 z "
   style="font-variation-settings:normal;opacity:1;vector-effect:none;fill:#deaa87;fill-opacity:1;stroke-width:0.0438237;stroke-linecap:butt;stroke-linejoin:miter;stroke-miterlimit:4;stroke-dasharray:none;stroke-dashoffset:0;stroke-opacity:1;stop-color:#000000;stop-opacity:1"
   id="path25" /><path
   style="font-variation-settings:normal;opacity:1;vector-effect:none;fill:#333333;fill-opacity:1;stroke-width:0.82933598;stroke-linecap:butt;stroke-linejoin:miter;stroke-miterlimit:4;stroke-dasharray:none;stroke-dashoffset:0;stroke-opacity:1;stop-color:#000000;stop-opacity:1"
   class="fil0"
   d="m 5279,2737.145 c 74,85 103,82 247,71 113,-8 191,-31 223,-126 -70,-84 -416,-162 -470,55 z"
   id="path7" /><path
   style="font-variation-settings:normal;opacity:1;vector-effect:none;fill:#333333;fill-opacity:1;stroke-width:0.82933598;stroke-linecap:butt;stroke-linejoin:miter;stroke-miterlimit:4;stroke-dasharray:none;stroke-dashoffset:0;stroke-opacity:1;stop-color:#000000;stop-opacity:1"
   class="fil0"
   d="m 2631,2751.145 c 99,53 381,56 451,-69 -58,-130 -502,-168 -451,69 z"
   id="path9" /><path
   class="fil1"
   d="m 4873,6671.145 c 117,-53 152,-322 186,-450 -115,-62 -568,-182 -738,-370 l 50,967 c 80,-11 433,-115 502,-147 z"
   id="path11" /><path
   class="fil1"
   d="m 3638,6169.145 c 155,516 147,525 658,647 l -52,-989 c -214,114 -328,234 -606,342 z"
   id="path13" /><path
   class="fil1"
   d="m 4857,3368.145 c -16,160 296,178 340,119 34,-105 -128,-142 -227,-130 z"
   id="path15" /><path
   sodipodi:nodetypes="scccccccccccccccccccscccccsccccccccccccccccccccccccccssccccccccccccccccccccccccccccssccccssccscccccscccccccccccccccccscccsccccccccccccccccccccccccsccccssccccsccccccccccccccccccccccccccc"
   transform="matrix(18.92438,0,0,18.92438,0,-0.08872403)"
   d="M 239.71875,0.0078125 C 232.51104,0.06857551 225.26132,0.45737503 218.07812,1.0683594 189.17361,3.4990863 178.92309,-0.251667 151.44531,9.2070312 125.817,17.925943 124.1791,28.441962 115.83008,29.128906 c -6.23534,0.475577 -9.08916,-1.322481 -13.26367,4.542969 -8.084813,11.46669 4.38465,14.584234 -1.32227,27.900391 -7.186496,16.909404 -13.844018,36.303038 -22.351562,52.472654 -4.702928,8.8246 -9.775372,13.89695 -14.583984,21.34766 l -23.197266,51.46875 c -11.361006,24.04306 -14.057178,30.5432 -8.033203,60.1875 -5.706924,2.00799 -11.8354,4.64913 -17.859375,7.18555 C 5.9185775,258.19752 1.902308,258.93795 0,265.4375 l 34.505859,-14.10938 c 6.129659,13.47469 12.258708,26.05132 19.498047,37.30665 -10.674061,8.40186 -29.062535,10.09333 -30.964844,17.01562 4.491561,2.6421 23.144424,-10.09305 34.716797,-13.31641 8.93028,13.05195 26.369391,17.59626 33.925782,24.04297 -6.499553,4.33304 -35.933612,20.76685 -36.884766,27.84766 5.706924,-0.31705 6.975989,-2.85314 11.097656,-5.91797 43.277509,-31.59945 24.887667,-16.11762 58.019529,-15.90625 38.42302,0.27425 53.33118,-0.41935 60.54156,3.21604 6.6822,3.36909 4.75307,0.45619 10.80219,15.47732 3.01199,7.50355 7.23943,6.23577 22.03516,11.30859 13.05195,4.49156 12.26055,2.74667 25.3125,-1.375 4.65008,-1.42673 8.5079,-2.64152 13.26367,-4.12109 7.1865,-2.16652 9.19001,-2.16582 11.198,-8.98242 2.84469,-9.85685 3.77944,-5.72828 6.03559,-9.40944 6.12575,-9.99479 15.33539,-3.84302 56.15508,-17.47533 38.15185,-12.73489 21.55922,-15.79965 49.08985,-7.71484 8.40186,2.48357 17.01578,5.12559 25.57617,7.71484 7.39786,2.16652 20.23882,7.08173 25.73437,8.19141 -0.31705,-7.1865 -5.97192,-6.76339 -13.05273,-8.82422 -11.14964,-3.2762 -43.22472,-11.62518 -48.93164,-15.37695 l 29.59179,-19.60547 24.35938,10.09375 c 0.26421,0.15852 3.90994,1.26758 4.01562,1.26758 3.69894,0.21136 1.79812,0.47577 4.07032,-1.05664 -2.11368,-3.06483 0.58129,-0.79183 -3.85742,-3.2754 -4.70293,-2.64209 -20.76789,-7.29239 -25.41797,-11.41406 5.91829,-10.56838 7.29261,-14.32024 11.30859,-27.79492 l 35.5625,11.99414 c 0.15853,0.0528 0.63444,0.0527 0.79297,0.0527 0.15853,0.0528 0.68728,0.21147 0.79297,-0.0527 0.10568,-0.21137 0.52691,2.2e-4 0.73828,-0.10547 1.21536,-5.33703 -10.67383,-7.13415 -16.43359,-9.35351 -5.9183,-2.21936 -14.16115,-5.23006 -20.39649,-6.39258 3.11767,-20.87255 8.66704,-34.5064 5.28516,-57.28125 -2.11368,-14.0031 -13.63489,-31.07107 -20.29297,-42.2207 -9.93428,-16.6452 -14.89973,-24.57066 -25.78516,-36.88282 -19.44581,-22.035065 -14.05606,-24.519348 -23.9375,-38.046872 2.58926,-5.654082 13.84442,-17.014961 8.71875,-27.90039 -4.49156,-9.617224 -18.54886,-5.28358 -26.21094,-2.21875 -6.65807,-10.515536 -27.10797,-24.096778 -45.07421,-29.3281255 -14.27722,-4.1778119 -29.92821,-5.63367862 -45.78516,-5.5 z m -1.66016,4.2929687 c 42.15657,-0.1582934 59.2141,5.0183048 89.87891,32.8593748 -1.79662,6.182501 -15.42989,24.201691 -2.85352,40.265625 4.22736,-1.109679 15.16435,-8.77229 18.86329,-11.255859 4.12166,3.804616 8.29671,14.372831 11.25585,20.238281 8.24334,16.380987 16.48599,21.876557 27.2129,35.509767 8.29617,10.56838 30.1744,49.67123 31.8125,61.50781 1.69094,12.10079 -0.79351,44.81159 -6.28907,53.90039 -11.20248,-1.42673 -10.67329,-4.01598 -33.97656,-5.75976 -42.27351,-3.11768 -37.99505,3.4865 -40.42578,-10.04102 -1.79662,-10.03996 -4.27853,-16.48617 -9.45703,-25.20508 -18.07193,-30.54261 -61.03353,-42.37989 -95.4336,-42.85547 l 1.32227,4.43946 -0.0527,104.25586 c -1.21537,1.47957 -1.3745,2.85351 -3.54102,2.85351 -5.33703,-0.10568 -2.53584,-0.26383 -4.12109,-3.06445 l 0.0527,-104.25586 1.37305,-4.17578 c -23.4618,-1.21537 -60.39804,4.96706 -79.79102,13.47461 -12.41784,5.44271 -31.54677,36.09192 -31.59961,60.02929 -14.478675,0.58127 -27.795492,3.80519 -40.953122,7.39844 -6.341027,1.79663 -11.889013,3.53889 -18.441407,5.54688 -8.613228,2.64209 -23.779297,16.64535 -18.019531,-25.99805 1.69094,-12.41784 22.564453,-54.16204 28.324219,-67.63672 9.881433,-23.14475 17.279331,-13.7927 42.220701,-85.921874 5.07282,3.276197 27.00181,26.052162 30.91211,7.134766 1.74378,-8.243335 0.68616,-16.118191 -1.5332,-23.304688 C 131.62831,34.094592 130.73011,35.522255 123.22656,30.34375 150.70434,5.5609041 185.47532,5.1910658 229.28125,4.3984375 c 3.04501,-0.052842 5.96691,-0.087103 8.77734,-0.097656 z M 113.64648,32.867188 c 6.76459,-0.0074 14.44308,4.452264 16.50391,10.634765 2.85346,8.454702 4.01545,19.287037 0.26367,27.001953 -8.87743,-2.113675 -16.75028,-6.817373 -20.44922,-12.101562 -3.11767,-4.385877 -8.98382,-19.974359 -2.53711,-23.9375 1.80984,-1.096469 3.96389,-1.59518 6.21875,-1.597656 z M 343.21484,35.1875 c 2.35178,-0.108803 4.77704,0.314079 7.17969,1.337891 10.88543,4.702928 -2.11369,27.267524 -23.99023,35.933593 -6.46488,-20.598429 4.11095,-36.68395 16.81054,-37.271484 z m -206.5664,141.74023 c 2.21936,2.6421 0.74102,-1.10969 2.27344,4.8086 l 1.37304,14.37305 c 2.80062,18.44181 10.04028,33.50184 22.88086,45.07421 7.71492,6.97513 14.90159,12.04622 26.79102,17.17188 39.3672,17.01509 33.97656,-6.86825 33.97656,40.68945 0,4.86146 -3.3294,5.3373 -7.50391,8.50781 -8.13765,6.02398 -23.14385,16.69786 -33.07812,13.52735 -16.43383,-5.23135 -33.71343,-16.75194 -39.20899,-27.32031 l 29.4336,-13.05079 c 4.65008,-1.95515 6.50003,-1.63928 8.40234,-5.17968 -5.01998,-3.59325 -28.21877,10.35826 -40.68945,14.74414 l -8.77149,-11.73242 c -3.43472,-5.65409 -4.49157,-7.92589 -6.71093,-13.63282 4.22735,-1.05683 6.07744,-1.42709 10.25195,-1.74414 0.6341,-0.10568 4.80806,-0.36903 5.07226,-0.42187 4.17451,-0.95116 3.43383,-1.32012 4.2793,-2.37696 l -1.95508,-0.95117 c -7.39786,-1.95515 -10.93766,1.10785 -19.49804,0.89649 -3.64609,-7.8206 -6.65865,-20.29043 -7.39844,-29.22071 7.1865,0 19.12923,1.90315 24.73047,-1.37304 -3.17052,-5.44272 -18.4947,-2.37957 -24.94141,-3.01368 0.52842,-27.31925 14.53125,-38.15017 20.29102,-49.77539 z m 128.0664,0.36133 c 5.11855,0.0253 11.47635,2.12758 9.9043,6.98242 -2.32504,3.11768 -18.81227,2.1676 -17.9668,-6.2871 l 5.97266,-0.58204 c 0.65392,-0.0793 1.35862,-0.11689 2.08984,-0.11328 z m 37.54102,1.64649 c 10.67406,4.91429 29.90849,31.65119 27.84766,51.41406 -6.81661,0 -23.46164,-2.48359 -25.99805,4.80859 l 27.16015,-1.10937 -1.6914,20.71484 c -7.97913,-0.10568 -21.71721,-2.00812 -20.55469,4.86133 l 18.70508,-1.10938 c -1.47957,6.65808 -7.55583,17.75336 -10.83203,22.82618 -11.30817,-1.26821 -11.46567,-2.85232 -26.41992,-2.48242 -7.34503,0.21136 -5.65423,-0.89902 -7.60938,3.22265 8.03197,3.69893 21.76959,-1.10928 30.38281,3.64649 -5.38987,11.20248 -25.4158,26.9486 -37.04101,34.92773 -7.60923,5.23135 -10.19854,4.3345 -25.89258,-2.64063 -7.50355,-3.32903 -17.75572,-9.88159 -21.66602,-14.32031 l -0.6875,-33.97851 c 2.06084,-3.96314 -0.10503,-1.84943 5.44336,-3.85742 l 23.19727,-8.82422 c 36.40806,-17.96625 49.40802,-38.4682 45.65625,-78.09961 z m -189.80859,52.15429 c 1.10968,12.52353 5.23256,20.39711 7.08203,30.64844 -6.28819,3.38188 -23.780321,8.29596 -31.917972,11.625 -9.828591,4.06883 -21.663793,11.25471 -30.435547,13.73828 -6.552394,-12.57637 -13.106006,-22.51016 -18.601562,-37.67578 24.465794,-6.07682 43.964537,-17.22626 73.873051,-18.33594 z m 234.78125,3.12696 c 19.39209,-0.14558 49.9204,3.17189 60.18164,8.02343 -5.23135,20.81971 -4.33162,13.31494 -11.25391,27.47657 -24.36011,-6.60524 -19.97552,-13.1564 -62.72461,-15.00586 l 2.53711,-19.81641 c 2.903,-0.42604 6.78467,-0.64414 11.25977,-0.67773 z m -10.49024,24.83008 c 16.55956,-0.13782 47.73774,7.83756 54.87305,14.68554 -3.2762,3.22336 -26.05141,18.81338 -30.54297,19.3418 -3.11767,0.36989 -33.07804,-8.66691 -39.8418,-10.14649 l 10.88477,-23.56835 c 1.35737,-0.19816 2.91389,-0.29825 4.62695,-0.3125 z m -215.4668,7.02343 c 1.05684,1.16252 14.53213,24.94252 15.06055,26.31641 -2.21936,1.47957 -37.888026,19.65614 -38.205077,19.70898 -7.080813,1.6381 -14.953985,-5.38861 -20.291015,-8.29492 -7.767758,-4.12167 -11.888654,-7.55587 -16.697266,-12.73437 7.345022,-7.1865 49.934328,-23.62221 60.132808,-24.9961 z m 197.36524,20.76758 35.0332,8.98242 c -1.79662,1.95515 -0.21024,0.84574 -3.43359,2.74805 -0.73979,0.42273 -2.90648,1.37425 -3.75195,1.74414 -14.69005,6.28818 -43.85813,16.32933 -57.91407,16.69922 7.8206,-3.69893 24.2538,-23.88564 30.06641,-30.17383 z m -178.6582,9.61719 c 5.1785,4.91429 7.18574,7.76863 11.88867,12.04883 4.38587,3.96314 9.45995,6.02275 14.74414,10.19726 -12.41785,1.10968 -53.74108,0.52998 -63.88672,-3.64453 3.17051,-3.9103 12.52342,-8.03206 17.33203,-10.51562 4.70293,-2.32505 15.11326,-7.50468 19.92188,-8.08594 z m 84.2832,11.4668 0.74609,42.26171 c -27.0022,-6.44671 -24.57904,3.07697 -32.76953,-24.18945 14.69005,-5.70692 20.71527,-12.04829 32.02344,-18.07226 z m 4.06836,1.26757 c 8.98312,9.93428 30.74196,16.27654 36.81878,19.55274 -1.79662,6.76376 -1.291,11.22059 -7.4735,14.02121 -3.64609,1.69094 -24.47535,6.9444 -28.7027,7.52566 z"
   style="font-variation-settings:normal;opacity:1;vector-effect:none;fill:#333333;fill-opacity:1;stroke:#333333;stroke-width:0.744;stroke-linecap:butt;stroke-linejoin:miter;stroke-miterlimit:4;stroke-dasharray:none;stroke-dashoffset:0;stroke-opacity:1;stop-color:#000000;stop-opacity:1"
   id="path17" /><path
   id="path45-3"
   d="m 4207.0001,2984.145 -1,1972.9999 c 30,53 -23,56.0001 78,58 41,0 44,-26 67,-53.9999 l 1,-1973 c 0,0 -6.124,-82.4715 -72,-83.5 -68.3381,-1.067 -73,79.5 -73,79.5 z"
   class="fil6"
   style="clip-rule:evenodd;fill:#800000;fill-rule:evenodd;stroke-width:94.62228955;image-rendering:optimizeQuality;shape-rendering:geometricPrecision;text-rendering:geometricPrecision;font-variation-settings:normal;opacity:1;vector-effect:none;fill-opacity:1;stroke:#f9f9f9;stroke-linecap:butt;stroke-linejoin:miter;stroke-miterlimit:4;stroke-dasharray:none;stroke-dashoffset:0;stroke-opacity:1;stop-color:#000000;stop-opacity:1"
   sodipodi:nodetypes="cccccsc" /><path
   transform="matrix(18.92438,0,0,18.92438,0,-0.08872403)"
   d="M 136.64844 176.92773 C 130.88867 188.55295 116.88584 199.38387 116.35742 226.70312 C 122.80413 227.33723 138.12831 224.27408 141.29883 229.7168 C 135.69759 232.99299 123.75486 231.08984 116.56836 231.08984 C 117.30815 240.02012 120.32071 252.48995 123.9668 260.31055 C 132.52718 260.52191 136.06698 257.45891 143.46484 259.41406 L 145.41992 260.36523 C 144.57445 261.42207 145.31513 261.79103 141.14062 262.74219 C 140.87642 262.79503 136.70246 263.05838 136.06836 263.16406 C 131.89385 263.48111 130.04376 263.85137 125.81641 264.9082 C 128.03577 270.61513 129.09262 272.88693 132.52734 278.54102 L 141.29883 290.27344 C 153.76951 285.88756 176.9683 271.93605 181.98828 275.5293 C 180.08597 279.0697 178.23602 278.75383 173.58594 280.70898 L 144.15234 293.75977 C 149.6479 304.32814 166.9275 315.84873 183.36133 321.08008 C 193.2956 324.25059 208.3018 313.57671 216.43945 307.55273 C 220.61396 304.38222 223.94336 303.90638 223.94336 299.04492 C 223.94336 251.48722 229.334 275.37056 189.9668 258.35547 C 178.07737 253.22981 170.8907 248.15872 163.17578 241.18359 C 150.3352 229.61122 143.09554 214.55119 140.29492 196.10938 L 138.92188 181.73633 C 137.38946 175.81804 138.8678 179.56983 136.64844 176.92773 z M 302.25586 178.93555 C 306.00763 218.56696 293.00767 239.06891 256.59961 257.03516 L 233.40234 265.85938 C 227.85395 267.86737 230.01982 265.75366 227.95898 269.7168 L 228.64648 303.69531 C 232.55678 308.13403 242.80895 314.68659 250.3125 318.01562 C 266.00654 324.99075 268.59585 325.8876 276.20508 320.65625 C 287.83029 312.67712 307.85622 296.931 313.24609 285.72852 C 304.63287 280.97275 290.89525 285.78096 282.86328 282.08203 C 284.81843 277.96036 283.12763 279.07074 290.47266 278.85938 C 305.42691 278.48948 305.58441 280.07359 316.89258 281.3418 C 320.16878 276.26898 326.24504 265.1737 327.72461 258.51562 L 309.01953 259.625 C 307.85701 252.75555 321.59509 254.65799 329.57422 254.76367 L 331.26562 234.04883 L 304.10547 235.1582 C 306.64188 227.86602 323.28691 230.34961 330.10352 230.34961 C 332.16435 210.58674 312.92992 183.84984 302.25586 178.93555 z "
   style="stroke-width:0.04382369;font-variation-settings:normal;opacity:1;vector-effect:none;fill:#ffccaa;fill-opacity:1;stroke-linecap:butt;stroke-linejoin:miter;stroke-miterlimit:4;stroke-dasharray:none;stroke-dashoffset:0;stroke-opacity:1;stop-color:#000000;stop-opacity:1"
   id="path21" />
<g
   id="g850"
   style="opacity:1" /><path
   sodipodi:nodetypes="cccccsc"
   style="fill:#800000"
   class="fil6"
   d="m 4207,2984.145 -1,1973 c 30,53 -23,56 78,58 41,0 44,-26 67,-54 l 1,-1973 c 0,0 -6.124,-82.4715 -72,-83.5 -68.3381,-1.067 -73,79.5 -73,79.5 z"
   id="path45" /><path
   style="clip-rule:evenodd;fill:#000000;fill-rule:evenodd;stroke:#ffffff;stroke-width:378.48760489;stroke-linecap:round;stroke-linejoin:miter;stroke-miterlimit:4;stroke-dasharray:none;stroke-opacity:1;image-rendering:optimizeQuality;shape-rendering:geometricPrecision;text-rendering:geometricPrecision"
   d="M 4688.2653,2916.6228 H 8353.92"
   id="path878-3-6"
   sodipodi:nodetypes="cc" /><path
   sodipodi:nodetypes="cc"
   id="path895-4"
   d="M 8178.2444,5307.0611 V 6506.6333"
   style="clip-rule:evenodd;fill:none;fill-rule:evenodd;stroke:#aa0000;stroke-width:56.7731;stroke-linecap:round;stroke-linejoin:round;stroke-miterlimit:4;stroke-dasharray:none;stroke-opacity:1;image-rendering:optimizeQuality;shape-rendering:geometricPrecision;text-rendering:geometricPrecision" /><path
   style="clip-rule:evenodd;fill:none;fill-rule:evenodd;stroke:#aa0000;stroke-width:56.7731;stroke-linecap:round;stroke-linejoin:round;stroke-miterlimit:4;stroke-dasharray:none;stroke-opacity:1;image-rendering:optimizeQuality;shape-rendering:geometricPrecision;text-rendering:geometricPrecision"
   d="M 4688.2653,2916.6228 H 8391.7687"
   id="path878-10-9"
   sodipodi:nodetypes="cc" /><g
   transform="matrix(0.82933617,0,0,0.82933617,567.49088,3065.7267)"
   style="clip-rule:evenodd;fill-rule:evenodd;image-rendering:optimizeQuality;shape-rendering:geometricPrecision;text-rendering:geometricPrecision"
   id="g909"><path
     style="clip-rule:evenodd;fill:#000000;fill-rule:evenodd;stroke:#ffffff;stroke-width:456.37416837;stroke-linecap:round;stroke-linejoin:miter;stroke-miterlimit:4;stroke-dasharray:none;stroke-opacity:1;image-rendering:optimizeQuality;shape-rendering:geometricPrecision;text-rendering:geometricPrecision"
     d="M 4961.3637,2389.1326 H 9381.3499"
     id="path878-3-8"
     sodipodi:nodetypes="cc" /><path
     style="clip-rule:evenodd;fill:none;fill-rule:evenodd;stroke:#aa0000;stroke-width:68.4561;stroke-linecap:round;stroke-linejoin:round;stroke-miterlimit:4;stroke-dasharray:none;stroke-opacity:1;image-rendering:optimizeQuality;shape-rendering:geometricPrecision;text-rendering:geometricPrecision"
     d="M 4961.3637,2389.1326 H 9426.9873"
     id="path878-10-7"
     sodipodi:nodetypes="cc" /></g><path
   sodipodi:nodetypes="cccc"
   id="path899-8"
   d="m 8178.2446,5065.6405 -299.2155,640.5575 h 598.4307 z"
   style="clip-rule:evenodd;fill:#aa0000;fill-rule:evenodd;stroke:none;stroke-width:8.64734px;stroke-linecap:butt;stroke-linejoin:miter;stroke-opacity:1;image-rendering:optimizeQuality;shape-rendering:geometricPrecision;text-rendering:geometricPrecision" /><path
   style="clip-rule:evenodd;fill:none;fill-rule:evenodd;stroke:#aa0000;stroke-width:56.7731;stroke-linecap:round;stroke-linejoin:round;stroke-miterlimit:4;stroke-dasharray:none;stroke-opacity:1;image-rendering:optimizeQuality;shape-rendering:geometricPrecision;text-rendering:geometricPrecision"
   d="M 8178.2444,2649.0764 V 773.17404"
   id="path895-1"
   sodipodi:nodetypes="cc" /><path
   style="clip-rule:evenodd;fill:#aa0000;fill-rule:evenodd;stroke:none;stroke-width:8.64734px;stroke-linecap:butt;stroke-linejoin:miter;stroke-opacity:1;image-rendering:optimizeQuality;shape-rendering:geometricPrecision;text-rendering:geometricPrecision"
   d="m 8178.2444,2879.622 299.2134,-640.555 h -560.578 z"
   id="path899-9-9"
   sodipodi:nodetypes="cccc" /><g
   style="opacity:1;fill:#f9f9f9"
   id="g973" /></svg>
