<?xml version="1.0" encoding="UTF-8" standalone="no"?>
<svg
   xmlns:dc="http://purl.org/dc/elements/1.1/"
   xmlns:cc="http://creativecommons.org/ns#"
   xmlns:rdf="http://www.w3.org/1999/02/22-rdf-syntax-ns#"
   xmlns:svg="http://www.w3.org/2000/svg"
   xmlns="http://www.w3.org/2000/svg"
   xmlns:sodipodi="http://sodipodi.sourceforge.net/DTD/sodipodi-0.dtd"
   xmlns:inkscape="http://www.inkscape.org/namespaces/inkscape"
   sodipodi:docname="2021-AT-06-tile2.svg"
   inkscape:version="1.0 (4035a4fb49, 2020-05-01)"
   id="svg1654"
   version="1.1"
   viewBox="0 0 13.25485 13.258288"
   height="13.258288mm"
   width="13.25485mm">
  <defs
     id="defs1648" />
  <sodipodi:namedview
     inkscape:window-maximized="1"
     inkscape:window-y="222"
     inkscape:window-x="-8"
     inkscape:window-height="987"
     inkscape:window-width="1680"
     fit-margin-bottom="0"
     fit-margin-right="0"
     fit-margin-left="0"
     fit-margin-top="0"
     showgrid="false"
     inkscape:document-rotation="0"
     inkscape:current-layer="layer1"
     inkscape:document-units="mm"
     inkscape:cy="290.76932"
     inkscape:cx="-0.66575118"
     inkscape:zoom="0.35"
     inkscape:pageshadow="2"
     inkscape:pageopacity="0.0"
     borderopacity="1.0"
     bordercolor="#666666"
     pagecolor="#ffffff"
     id="base" />
  <metadata
     id="metadata1651">
    <rdf:RDF>
      <cc:Work
         rdf:about="">
        <dc:format>image/svg+xml</dc:format>
        <dc:type
           rdf:resource="http://purl.org/dc/dcmitype/StillImage" />
        <dc:title></dc:title>
      </cc:Work>
    </rdf:RDF>
  </metadata>
  <g
     transform="translate(-106.00948,-71.233951)"
     id="layer1"
     inkscape:groupmode="layer"
     inkscape:label="Ebene 1">
    <g
       transform="translate(66.27176,-182.66596)"
       id="g1485">
      <rect
         style="opacity:0.998;fill:#daf451;fill-opacity:1;stroke:none;stroke-width:1.74682;stroke-opacity:0.950355"
         id="rect2534-2"
         width="13.175656"
         height="13.249501"
         x="39.708298"
         y="253.90218" />
      <path
         style="fill:#823200;fill-opacity:1;stroke-width:0.264583"
         d="m 51.364242,261.5764 c -3.144311,-0.74079 -5.54754,-3.35114 -6.12918,-6.65743 l -0.17455,-0.99219 h 1.33491 c 1.237989,0 1.334911,0.0468 1.334911,0.64423 0,2.09056 2.54159,4.64744 4.619659,4.64744 0.63001,0 0.672,0.0827 0.672,1.32291 0,1.4299 0.005,1.42678 -1.65775,1.03504 z"
         id="path892" />
      <path
         style="fill:#823200;fill-opacity:1;stroke-width:0.264583"
         d="m 45.084492,266.48394 c 0,-2.07807 -2.55688,-4.61967 -4.64745,-4.61967 -0.59747,0 -0.64424,-0.0969 -0.64424,-1.3349 v -1.33491 l 0.9922,0.17646 c 3.53213,0.62818 6.175089,3.2704 6.794759,6.79283 l 0.17454,0.99219 h -1.334899 c -1.2531,0 -1.33491,-0.0412 -1.33491,-0.672 z"
         id="path882" />
    </g>
  </g>
</svg>
