<?xml version="1.0" encoding="UTF-8" standalone="no"?>
<svg
   sodipodi:docname="2021-SK-01-beadround.svg"
   inkscape:version="1.1.1 (3bf5ae0d25, 2021-09-20)"
   id="svg1004"
   version="1.1"
   viewBox="0 0 21.166667 21.166668"
   height="80"
   width="80"
   xmlns:inkscape="http://www.inkscape.org/namespaces/inkscape"
   xmlns:sodipodi="http://sodipodi.sourceforge.net/DTD/sodipodi-0.dtd"
   xmlns="http://www.w3.org/2000/svg"
   xmlns:svg="http://www.w3.org/2000/svg"
   xmlns:rdf="http://www.w3.org/1999/02/22-rdf-syntax-ns#"
   xmlns:cc="http://creativecommons.org/ns#"
   xmlns:dc="http://purl.org/dc/elements/1.1/">
  <defs
     id="defs998" />
  <sodipodi:namedview
     fit-margin-bottom="0"
     fit-margin-right="0"
     fit-margin-left="0"
     fit-margin-top="0"
     inkscape:window-maximized="1"
     inkscape:window-y="222"
     inkscape:window-x="-8"
     inkscape:window-height="987"
     inkscape:window-width="1680"
     showgrid="false"
     inkscape:document-rotation="0"
     inkscape:current-layer="layer1"
     inkscape:document-units="mm"
     inkscape:cy="201.07143"
     inkscape:cx="89.642857"
     inkscape:zoom="1.4"
     inkscape:pageshadow="2"
     inkscape:pageopacity="0.0"
     borderopacity="1.0"
     bordercolor="#666666"
     pagecolor="#ffffff"
     id="base"
     inkscape:pagecheckerboard="0"
     units="px" />
  <metadata
     id="metadata1001">
    <rdf:RDF>
      <cc:Work
         rdf:about="">
        <dc:format>image/svg+xml</dc:format>
        <dc:type
           rdf:resource="http://purl.org/dc/dcmitype/StillImage" />
      </cc:Work>
    </rdf:RDF>
  </metadata>
  <g
     transform="translate(-38.56209,-70.130887)"
     id="layer1"
     inkscape:groupmode="layer"
     inkscape:label="Ebene 1">
    <g
       id="g1714"
       transform="matrix(0.99433113,0,0,0.99435871,0.21860678,0.39562625)">
      <g
         style="stroke-width:0.294934"
         id="g2034-3-10-6-4-6-0"
         transform="matrix(-3.2619021,0.92524942,-0.92524942,-3.2619021,316.65621,247.82306)">
        <g
           style="stroke-width:0.294934"
           id="g1543-7-0-1-70-1-6-8"
           transform="translate(28.575002,21.365107)">
          <circle
             r="3.1088541"
             cy="47.558853"
             cx="33.866665"
             id="path1488-3-3-6-40-0-8-3"
             style="font-variation-settings:normal;opacity:1;vector-effect:none;fill:#2ca02c;fill-opacity:1;stroke:none;stroke-width:0.0589868;stroke-linecap:butt;stroke-linejoin:miter;stroke-miterlimit:4;stroke-dasharray:none;stroke-dashoffset:0;stroke-opacity:1;paint-order:stroke fill markers;stop-color:#000000;stop-opacity:1" />
          <path
             transform="scale(0.26458333)"
             d="M 127.99023,168 A 11.75,11.75 0 0 0 116.25,179.75 11.75,11.75 0 0 0 120.22266,188.55664 11.75,11.75 0 0 1 119.5,184.5 a 11.75,11.75 0 0 1 11.75,-11.75 11.75,11.75 0 0 1 7.77734,2.94336 A 11.75,11.75 0 0 0 128,168 a 11.75,11.75 0 0 0 -0.01,0 z"
             style="font-variation-settings:normal;opacity:1;vector-effect:none;fill:#2e8a2e;fill-opacity:1;stroke:none;stroke-width:0.222942;stroke-linecap:butt;stroke-linejoin:miter;stroke-miterlimit:4;stroke-dasharray:none;stroke-dashoffset:0;stroke-opacity:1;paint-order:stroke fill markers;stop-color:#000000;stop-opacity:1"
             id="path1488-2-5-7-2-05-8-6-1" />
          <circle
             r="0.69453126"
             cy="49.323433"
             cx="34.203007"
             id="path1538-3-0-0-6-0-2-8"
             style="font-variation-settings:normal;opacity:1;vector-effect:none;fill:#87de87;fill-opacity:1;stroke:none;stroke-width:0.0589868;stroke-linecap:butt;stroke-linejoin:miter;stroke-miterlimit:4;stroke-dasharray:none;stroke-dashoffset:0;stroke-opacity:1;paint-order:stroke fill markers;stop-color:#000000;stop-opacity:1" />
        </g>
        <circle
           r="3.1088541"
           style="font-variation-settings:normal;opacity:1;vector-effect:none;fill:none;fill-opacity:1;stroke:#000000;stroke-width:0.0589868;stroke-linecap:butt;stroke-linejoin:miter;stroke-miterlimit:4;stroke-dasharray:none;stroke-dashoffset:0;stroke-opacity:1;paint-order:stroke fill markers;stop-color:#000000;stop-opacity:1"
           id="path1488-0-5-3-11-8-4-5-9"
           cx="62.441666"
           cy="68.923958" />
      </g>
      <path
         id="path1651-4"
         d="m 39.569669,78.523643 c -0.314217,0.447258 -0.307576,0.765843 -0.307576,1.281293 0,0.462849 0.0068,0.91086 0.04732,1.370896 0.0254,0.288476 0.324715,1.113827 0.768935,0.869129 0.840946,-0.463234 1.303988,-2.869625 0.425873,-3.413798 -0.142282,-0.08817 -0.779084,-0.08316 -0.934552,-0.10752 z"
         style="font-variation-settings:normal;opacity:1;vector-effect:none;fill:#226722;fill-opacity:1;stroke:none;stroke-width:0.2;stroke-linecap:butt;stroke-linejoin:miter;stroke-miterlimit:4;stroke-dasharray:none;stroke-dashoffset:0;stroke-opacity:1;paint-order:stroke fill markers;stop-color:#000000;stop-opacity:1" />
      <path
         style="font-variation-settings:normal;opacity:1;vector-effect:none;fill:none;fill-opacity:1;stroke:#000000;stroke-width:0.2;stroke-linecap:butt;stroke-linejoin:miter;stroke-miterlimit:4;stroke-dasharray:none;stroke-dashoffset:0;stroke-opacity:1;paint-order:stroke fill markers;stop-color:#000000;stop-opacity:1"
         d="m 39.56967,78.523644 c -0.314217,0.447257 -0.307576,0.765842 -0.307576,1.281292 0,0.462849 0.0068,0.91086 0.04732,1.370897 0.0254,0.288475 0.324715,1.113827 0.768935,0.869129 0.840946,-0.463235 1.303988,-2.869626 0.425873,-3.413799 -0.142282,-0.08817 -0.779084,-0.08316 -0.934552,-0.107519 z"
         id="path1651" />
    </g>
  </g>
</svg>
