<svg version="1.1" width="128" height="129.333" viewBox="0 0 96 97" xmlns="http://www.w3.org/2000/svg" xmlns:xlink="http://www.w3.org/1999/xlink" overflow="hidden"><defs><clipPath id="clip1"><path d=" M 68 84 L 81 84 L 81 96.9609 L 68 96.9609 Z"/></clipPath><clipPath id="clip2"><path d=" M 32 84 L 45 84 L 45 96.9609 L 32 96.9609 Z"/></clipPath></defs><g id="surface28"><path d=" M 134.449 98.7305 L 110.363 98.7305" stroke="#000000" stroke-width="3.58518" stroke-linecap="square" stroke-linejoin="miter" stroke-miterlimit="3.25" stroke-opacity="1" fill="none" transform="matrix(1,0,0,1,-66,-8)"/><path d=" M 142.305 93.0234 L 149.75 70.1133" stroke="#000000" stroke-width="3.58518" stroke-linecap="square" stroke-linejoin="miter" stroke-miterlimit="3.25" stroke-opacity="1" fill="none" transform="matrix(1,0,0,1,-66,-8)"/><path d=" M 95.0664 70.1133 L 102.508 93.0234" stroke="#000000" stroke-width="3.58518" stroke-linecap="square" stroke-linejoin="miter" stroke-miterlimit="3.25" stroke-opacity="1" fill="none" transform="matrix(1,0,0,1,-66,-8)"/><path d=" M 89.6836 59.5547 L 75.5273 40.0664" stroke="#000000" stroke-width="3.58518" stroke-linecap="square" stroke-linejoin="miter" stroke-miterlimit="3.25" stroke-opacity="1" fill="none" transform="matrix(1,0,0,1,-66,-8)"/><path d=" M 98.0664 60.8789 L 117.555 46.7227" stroke="#000000" stroke-width="3.58518" stroke-linecap="square" stroke-linejoin="miter" stroke-miterlimit="3.25" stroke-opacity="1" fill="none" transform="matrix(1,0,0,1,-66,-8)"/><path d=" M 154.746 34.4844 L 152.23 58.4414" stroke="#FA8440" stroke-width="3.58518" stroke-linecap="square" stroke-linejoin="miter" stroke-miterlimit="3.25" stroke-opacity="1" fill="none" transform="matrix(1,0,0,1,-66,-8)"/><path d=" M 149.895 30.957 L 127.887 40.7539" stroke="#FA8440" stroke-width="3.58518" stroke-linecap="square" stroke-linejoin="miter" stroke-miterlimit="3.25" stroke-opacity="1" fill="none" transform="matrix(1,0,0,1,-66,-8)"/><path d=" M 96.3398 17.5273 L 76.8555 31.6836" stroke="#000000" stroke-width="3.58518" stroke-linecap="square" stroke-linejoin="miter" stroke-miterlimit="3.25" stroke-opacity="1" fill="none" transform="matrix(1,0,0,1,-66,-8)"/><path d=" M 104.723 18.8555 L 118.879 38.3398" stroke="#000000" stroke-width="3.58518" stroke-linecap="square" stroke-linejoin="miter" stroke-miterlimit="3.25" stroke-opacity="1" fill="none" transform="matrix(1,0,0,1,-66,-8)"/><path d=" M 146.75 60.8789 L 127.262 46.7227" stroke="#FA8440" stroke-width="3.58518" stroke-linecap="square" stroke-linejoin="miter" stroke-miterlimit="3.25" stroke-opacity="1" fill="none" transform="matrix(1,0,0,1,-66,-8)"/><g clip-rule="nonzero" clip-path="url(#clip1)"><path d=" M 80.4492 90.7305 C 80.4492 89.1367 79.8203 87.6094 78.6953 86.4844 C 77.5703 85.3594 76.043 84.7305 74.4492 84.7305 C 72.8594 84.7305 71.332 85.3594 70.207 86.4844 C 69.082 87.6094 68.4492 89.1367 68.4492 90.7305 C 68.4492 92.3203 69.082 93.8477 70.207 94.9727 C 71.332 96.0977 72.8594 96.7305 74.4492 96.7305 C 76.043 96.7305 77.5703 96.0977 78.6953 94.9727 C 79.8203 93.8477 80.4492 92.3203 80.4492 90.7305 Z" stroke="none" fill="#601A4A" fill-rule="evenodd" fill-opacity="1"/></g><path d=" M 33.2109 56.4063 C 33.2109 54.8164 32.5781 53.2891 31.4531 52.1641 C 30.3281 51.0391 28.8047 50.4063 27.2109 50.4063 C 25.6211 50.4063 24.0938 51.0391 22.9688 52.1641 C 21.8438 53.2891 21.2109 54.8164 21.2109 56.4063 C 21.2109 58 21.8438 59.5234 22.9688 60.6484 C 24.0938 61.7734 25.6211 62.4063 27.2109 62.4063 C 28.8047 62.4063 30.3281 61.7734 31.4531 60.6484 C 32.5781 59.5234 33.2109 58 33.2109 56.4063 Z" stroke="none" fill="#F05030" fill-rule="evenodd" fill-opacity="1"/><path d=" M 95.375 20.5156 C 95.375 18.9258 94.7422 17.3984 93.6172 16.2734 C 92.4922 15.1484 90.9648 14.5156 89.375 14.5156 C 87.7852 14.5156 86.2578 15.1484 85.1328 16.2734 C 84.0078 17.3984 83.375 18.9258 83.375 20.5156 C 83.375 22.1094 84.0078 23.6367 85.1328 24.7617 C 86.2578 25.8867 87.7852 26.5156 89.375 26.5156 C 90.9648 26.5156 92.4922 25.8867 93.6172 24.7617 C 94.7422 23.6367 95.375 22.1094 95.375 20.5156 Z" stroke="none" fill="#601A4A" fill-rule="evenodd" fill-opacity="1"/><path d=" M 41.1953 6 C 41.1953 4.41016 40.5625 2.88281 39.4375 1.75781 C 38.3125 0.632813 36.7852 0 35.1953 0 C 33.6055 0 32.0781 0.632813 30.9531 1.75781 C 29.8281 2.88281 29.1953 4.41016 29.1953 6 C 29.1953 7.58984 29.8281 9.11719 30.9531 10.2422 C 32.0781 11.3672 33.6055 12 35.1953 12 C 36.7852 12 38.3125 11.3672 39.4375 10.2422 C 40.5625 9.11719 41.1953 7.58984 41.1953 6 Z" stroke="none" fill="#F05030" fill-rule="evenodd" fill-opacity="1"/><g clip-rule="nonzero" clip-path="url(#clip2)"><path d=" M 44.3633 90.7305 C 44.3633 89.1367 43.7305 87.6094 42.6055 86.4844 C 41.4805 85.3594 39.9531 84.7305 38.3633 84.7305 C 36.7734 84.7305 35.2461 85.3594 34.1211 86.4844 C 32.9961 87.6094 32.3633 89.1367 32.3633 90.7305 C 32.3633 92.3203 32.9961 93.8477 34.1211 94.9727 C 35.2461 96.0977 36.7734 96.7305 38.3633 96.7305 C 39.9531 96.7305 41.4805 96.0977 42.6055 94.9727 C 43.7305 93.8477 44.3633 92.3203 44.3633 90.7305 Z" stroke="none" fill="#63ACBE" fill-rule="evenodd" fill-opacity="1"/></g><path d=" M 91.6016 56.4063 C 91.6016 54.8164 90.9688 53.2891 89.8438 52.1641 C 88.7188 51.0391 87.1953 50.4063 85.6016 50.4063 C 84.0117 50.4063 82.4844 51.0391 81.3594 52.1641 C 80.2344 53.2891 79.6016 54.8164 79.6016 56.4063 C 79.6016 58 80.2344 59.5234 81.3594 60.6484 C 82.4844 61.7734 84.0117 62.4063 85.6016 62.4063 C 87.1953 62.4063 88.7188 61.7734 89.8438 60.6484 C 90.9688 59.5234 91.6016 58 91.6016 56.4063 Z" stroke="none" fill="#F05030" fill-rule="evenodd" fill-opacity="1"/><path d=" M 12 27.2109 C 12 25.6211 11.3672 24.0938 10.2422 22.9688 C 9.11719 21.8438 7.58984 21.2109 6 21.2109 C 4.41016 21.2109 2.88281 21.8438 1.75781 22.9688 C 0.632813 24.0938 0 25.6211 0 27.2109 C 0 28.8047 0.632813 30.3281 1.75781 31.4531 C 2.88281 32.5781 4.41016 33.2109 6 33.2109 C 7.58984 33.2109 9.11719 32.5781 10.2422 31.4531 C 11.3672 30.3281 12 28.8047 12 27.2109 Z" stroke="none" fill="#63ACBE" fill-rule="evenodd" fill-opacity="1"/><path d=" M 62.4063 35.1953 C 62.4063 33.6055 61.7734 32.0781 60.6484 30.9531 C 59.5234 29.8281 58 29.1953 56.4063 29.1953 C 54.8164 29.1953 53.2891 29.8281 52.1641 30.9531 C 51.0391 32.0781 50.4063 33.6055 50.4063 35.1953 C 50.4063 36.7852 51.0391 38.3125 52.1641 39.4375 C 53.2891 40.5625 54.8164 41.1953 56.4063 41.1953 C 58 41.1953 59.5234 40.5625 60.6484 39.4375 C 61.7734 38.3125 62.4063 36.7852 62.4063 35.1953 Z" stroke="none" fill="#63ACBE" fill-rule="evenodd" fill-opacity="1"/></g></svg>