<?xml version="1.0" encoding="UTF-8" standalone="no"?>
<svg
   xmlns:dc="http://purl.org/dc/elements/1.1/"
   xmlns:cc="http://creativecommons.org/ns#"
   xmlns:rdf="http://www.w3.org/1999/02/22-rdf-syntax-ns#"
   xmlns:svg="http://www.w3.org/2000/svg"
   xmlns="http://www.w3.org/2000/svg"
   xmlns:sodipodi="http://sodipodi.sourceforge.net/DTD/sodipodi-0.dtd"
   xmlns:inkscape="http://www.inkscape.org/namespaces/inkscape"
   sodipodi:docname="2021-LT-01_icon-girl.svg"
   inkscape:version="1.0 (4035a4fb49, 2020-05-01)"
   id="svg1151"
   version="1.1"
   viewBox="0 0 146.39203 142.88889"
   height="142.88889mm"
   width="146.39203mm">
  <defs
     id="defs1145" />
  <sodipodi:namedview
     fit-margin-bottom="0"
     fit-margin-right="0"
     fit-margin-left="0"
     fit-margin-top="0"
     inkscape:window-maximized="1"
     inkscape:window-y="222"
     inkscape:window-x="-8"
     inkscape:window-height="987"
     inkscape:window-width="1680"
     inkscape:snap-global="false"
     showgrid="false"
     inkscape:document-rotation="0"
     inkscape:current-layer="g2329"
     inkscape:document-units="mm"
     inkscape:cy="606.90115"
     inkscape:cx="593.21418"
     inkscape:zoom="0.50605595"
     inkscape:pageshadow="2"
     inkscape:pageopacity="0.0"
     borderopacity="1.0"
     bordercolor="#666666"
     pagecolor="#ffffff"
     id="base" />
  <metadata
     id="metadata1148">
    <rdf:RDF>
      <cc:Work
         rdf:about="">
        <dc:format>image/svg+xml</dc:format>
        <dc:type
           rdf:resource="http://purl.org/dc/dcmitype/StillImage" />
        <dc:title></dc:title>
      </cc:Work>
    </rdf:RDF>
  </metadata>
  <g
     transform="translate(45.519563,40.160466)"
     id="layer1"
     inkscape:groupmode="layer"
     inkscape:label="Ebene 1">
    <g
       id="g2329">
      <path
         id="path2250"
         style="font-variation-settings:normal;opacity:1;vector-effect:none;fill:#eab189;fill-opacity:1;stroke:none;stroke-width:1.88976;stroke-linecap:round;stroke-linejoin:round;stroke-miterlimit:4;stroke-dasharray:none;stroke-dashoffset:0;stroke-opacity:1;paint-order:stroke fill markers;stop-color:#000000;stop-opacity:1"
         d="m 96.173828,-102.95898 c -3.803336,0.0436 -7.077313,0.44935 -9.49414,1.30859 -23.517944,8.361157 -54.069962,39.76251 -64.533204,62.216796 -7.957438,17.076793 -8.494463,37.3728313 -11.3125,55.69336 -2.2350266,14.530282 -4.9051413,44.838057 2.701172,57.640625 2.504555,22.159623 11.082426,41.833929 19.923828,61.923829 6.735157,15.30397 10.840724,29.58852 23.396485,41.38086 3.219318,3.02357 6.83099,5.13527 10.451172,7.23047 -1.309656,29.68972 -11.489957,57.50201 -27.804688,82.83398 -3.335603,5.17922 -4.876306,11.37999 -8.226562,16.45508 -0.323388,0.48988 -1.968082,1.30329 -1.542969,1.94727 3.42424,5.18715 15.941854,1.09734 19.923828,0.58398 10.981663,-1.41578 24.074508,4.86009 35.480469,5.8418 12.540827,1.07939 25.427891,-1.29174 37.921871,0.19531 9.39362,1.11805 18.94688,3.04787 28.41016,3.40625 12.24437,0.4637 24.62693,-0.48633 36.89453,-0.48633 4.1025,0 7.58705,0.62952 11.43945,1.94727 1.58837,0.54331 6.25633,2.41291 4.75782,1.65625 -3.41557,-1.72468 -7.22269,-7.0024 -9.76953,-9.93164 -22.49654,-25.87446 -28.08255,-63.44616 -31.36719,-96.78321 -0.18287,-1.85599 -0.30184,-4.71926 -0.44141,-8.02344 3.14513,-2.58351 6.18221,-5.17999 9.05469,-7.65234 72.59218,-62.48021 66.67943,-180.1941877 0,-245.849608 -7.18335,-7.073031 -14.44177,-16.392546 -23.26758,-21.517578 -9.69281,-5.628483 -36.11458,-12.206744 -52.595702,-12.017574 z"
         transform="scale(0.26458333)" />
      <path
         sodipodi:nodetypes="scsscsscsssscsscccscssscscsscscssccscsc"
         transform="matrix(0.26458333,0,0,0.26458333,-45.519563,-40.160466)"
         d="m 268.2168,48.828125 c -3.80334,0.04362 -7.07732,0.449352 -9.49414,1.308594 -23.51795,8.361158 -54.06996,39.76251 -64.53321,62.216801 -7.95743,17.07679 -8.49446,37.37282 -11.3125,55.69336 -2.23502,14.53029 -4.90514,44.83805 2.70117,57.64062 2.50456,22.15962 4.03778,43.27974 12.87918,63.36964 6.73516,15.30397 17.88538,28.14271 30.44114,39.93505 3.21932,3.02357 6.83099,5.13527 10.45117,7.23047 -1.30966,29.68972 -11.48996,57.50201 -27.80469,82.83398 -3.3356,5.17922 -4.8763,11.37999 -8.22656,16.45508 -0.32338,0.48988 -1.96808,1.30329 -1.54297,1.94726 3.42424,5.18715 15.94185,1.09735 19.92383,0.58399 4.39415,-0.5665 9.13017,0.11513 13.95703,1.17969 0.37215,-0.30717 0.78391,-0.59753 0.92969,-0.81836 3.35025,-5.07509 4.89096,-11.27586 8.22656,-16.45508 16.31473,-25.33197 21.63195,-35.96663 22.94161,-65.65635 -3.62019,-2.0952 -7.23186,-4.2069 -10.45117,-7.23046 -67.63385,-81.57656 -67.83782,-148.83709 -29.84591,-233.81632 10.46325,-22.454283 41.01526,-53.855635 64.5332,-62.216793 0.93416,-0.332114 2.00054,-0.59499 3.17188,-0.796875 -9.33854,-2.086835 -19.22782,-3.492878 -26.94531,-3.404297 z m -9.03907,391.912105 c -1.43126,-0.038 -2.83823,0.0183 -4.21093,0.19532 -1.44534,0.18633 -4.02555,0.84141 -6.87696,1.35547 3.09771,0.73371 6.15114,1.34081 9.08985,1.59375 6.21448,0.53488 12.51403,0.2235 18.80859,-0.0469 -5.70248,-1.47379 -11.43635,-2.95486 -16.81055,-3.09766 z m 59.75977,5.72657 c -1.93061,-0.002 -3.867,0.0469 -5.80469,0.11328 3.46326,0.43315 6.92748,0.77554 10.37891,0.90625 3.19776,0.1211 6.40509,0.14292 9.61719,0.11328 -1.58946,-0.2229 -3.17817,-0.43871 -4.75977,-0.62695 -3.12349,-0.37177 -6.27056,-0.50217 -9.43164,-0.50586 z m 57.09961,3.81836 c -0.18427,0.005 -0.36847,0.0102 -0.55273,0.0156 1.10202,0.41079 1.83931,0.66638 1.11914,0.30274 -0.18748,-0.0947 -0.37685,-0.20327 -0.56641,-0.31836 z"
         style="font-variation-settings:normal;opacity:1;vector-effect:none;fill:#efc4a5;fill-opacity:1;stroke:none;stroke-width:1.88976;stroke-linecap:round;stroke-linejoin:round;stroke-miterlimit:4;stroke-dasharray:none;stroke-dashoffset:0;stroke-opacity:1;paint-order:stroke fill markers;stop-color:#000000;stop-opacity:1"
         id="path2250-4" />
      <path
         style="font-variation-settings:normal;opacity:1;vector-effect:none;fill:#ffffff;fill-opacity:1;stroke:none;stroke-width:0.499999;stroke-linecap:round;stroke-linejoin:round;stroke-miterlimit:4;stroke-dasharray:none;stroke-dashoffset:0;stroke-opacity:1;paint-order:stroke fill markers;stop-color:#000000;stop-opacity:1"
         d="m 38.95712,11.778226 c 0.295476,-2.2134198 2.23176,-3.2412798 4.217514,-3.6710067 1.33442,-0.2887753 2.146196,-0.1701562 3.452241,0.090165 0.960614,0.19147 1.835713,0.4451472 2.703973,0.9274125 1.114213,0.6188781 2.315231,1.5861472 3.299184,2.3314112 0.393714,0.298206 -2.239724,2.11432 -2.516904,2.292769 -3.066865,1.974463 -6.110015,2.080868 -9.353362,0.579633 -0.906801,-0.419728 -2.358239,-1.512371 -1.802646,-2.550384 z"
         id="path2257" />
      <path
         style="font-variation-settings:normal;opacity:1;vector-effect:none;fill:#ffffff;fill-opacity:1;stroke:none;stroke-width:0.499999;stroke-linecap:round;stroke-linejoin:round;stroke-miterlimit:4;stroke-dasharray:none;stroke-dashoffset:0;stroke-opacity:1;paint-order:stroke fill markers;stop-color:#000000;stop-opacity:1"
         d="m 11.49225,9.0990353 c 0.447934,-2.278597 3.984812,-2.5375031 5.884115,-2.5375031 1.59976,0 3.223014,0.045016 4.693686,0.7213205 0.520989,0.2395826 3.953576,3.6334083 3.809369,4.0703093 -0.08493,0.257309 -0.546707,0.590942 -0.714257,0.798605 -0.607166,0.752528 -1.410898,1.674238 -2.329837,2.060916 -2.844028,1.196732 -7.971233,2.078471 -9.863544,-1.146384 -0.581677,-0.991287 -2.165214,-2.954536 -1.479532,-3.9672637 z"
         id="path2255" />
      <path
         id="path2184-8"
         style="font-variation-settings:normal;opacity:1;vector-effect:none;fill:#8e5630;fill-opacity:1;stroke:#000000;stroke-width:1.88976;stroke-linecap:round;stroke-linejoin:round;stroke-miterlimit:4;stroke-dasharray:none;stroke-dashoffset:0;stroke-opacity:1;paint-order:stroke fill markers;stop-color:#000000;stop-opacity:1"
         d="m 95.029297,-150.83203 c -35.199138,-0.67133 -71.615028,30.61128 -105.037109,72.353514 -22.287039,40.840147 -32.861052,90.333772 -41.101563,135.726563 -2.603441,14.340998 -4.873031,29.760036 -9.863281,43.486333 -4.169998,11.47008 -10.466493,22.08911 -14.921875,33.42773 -9.028377,22.97652 -18.86911,44.5929 -33.513669,64.55859 -12.39951,16.90489 -26.08094,35.08804 -42.11133,48.65821 -0.96139,0.81384 -21.17866,12.88702 -19.47461,14.17773 5.60158,4.24275 16.32821,2.49024 22.13086,2.49024 24.09361,0 50.902694,-3.04673 63.482421,-25.76758 0.303501,-0.54817 0.617229,-1.10489 0.929687,-1.66016 -0.929083,2.16349 0.827064,-2.02626 -4.089844,11.14453 -3.792207,10.15809 -9.700596,19.48203 -14.923824,28.92578 -0.70072,1.26694 -5.01767,9.12985 -4.80469,9.09961 16.222389,-2.45741 42.998772,-15.85713 48.308592,-32.27929 1.755916,-5.43073 1.945694,-9.88945 1.896485,-15.51758 -0.02767,-3.16105 -0.08991,-6.32149 -0.126953,-9.48242 -0.0079,-0.67045 0,-2.6822 0,-2.01172 0.169447,63.85338 85.99414,160.82226 85.99414,160.82226 0,0 -80.54649,-123.44493 -42.238281,-200.66797 0.923936,-2.51927 0.908989,5.28967 1.265625,7.94922 0.769217,5.73662 0.991303,6.42345 2.402344,12.83594 5.0699186,23.04026 16.7376116,41.64723 27.695312,61.97266 0.572417,1.06178 8.722947,15.80746 9.105469,15.51757 0.608088,-0.46057 -5.361327,-7.85035 -6.830078,-14.08007 -3.680848,-15.61248 -4.171875,-31.74945 -4.171875,-47.70118 0,-30.8757 5.714975,-61.30969 4.804688,-92.33593 C 19.425405,116.81823 15.321072,102.9143 14.144531,88.953125 12.282105,66.853165 12.150567,41.641263 14.398438,19.507812 15.046925,13.122482 18.004794,7.1983679 19.835938,1.1171875 28.199155,-26.352324 67.508393,-113.54944 126.82227,-81.353516 l 2.71679,-2.695312 c 5.31131,0.727343 13.81401,3.574979 14.98828,4.419922 15.51575,11.219694 37.97767,38.256514 49.95313,61.972656 32.768,65.122643 20.63364,130.07843 17.19922,191.85742 -1.40663,31.96272 9.86777,54.51306 22.25586,83.33203 6.42432,14.94531 12.49976,29.30899 20.23437,43.58203 6.86672,12.67148 15.36155,22.60771 23.39649,34.38672 1.97354,2.89309 3.7991,5.88945 5.66211,8.85743 -1.34798,-3.83238 -2.55496,-8.22463 -3.38672,-9.91211 -16.16194,-32.78926 -18.37699,-87.51868 -13.53125,-123.65625 0.18047,-1.346 1.04027,-18.98775 2.02343,-19.73243 1.95247,-1.4788 1.71186,4.59827 2.78321,6.80079 1.89849,3.90303 4.42846,7.45732 6.06836,11.49414 10.89335,26.81509 30.35924,45.13235 48.43554,66.85742 6.17356,7.4197 11.73619,15.3392 18.33789,22.41406 7.77608,8.33333 20.56614,12.1864 29.46485,19.34766 0.51108,0.4113 1.18227,0.83564 1.88867,1.26757 -0.19651,-0.22794 -0.67,-0.80097 -0.75,-0.88476 C 363.15978,306.41122 354.45398,298.3589 346.23438,282.91602 256.78641,143.03267 284.58091,146.74638 272.25391,84.929688 c -0.0953,-0.770359 -1.29103,-12.740235 -0.75782,-12.740235 0.72023,0 3.10151,3.560196 3.79297,4.214844 4.32367,4.093538 9.12531,7.83829 14.29102,10.824219 8.75542,5.0609 18.97822,6.89246 28.58008,9.769531 4.67648,1.401241 8.9587,1.4375 13.78515,1.4375 1.26463,0 4.80108,0.763551 3.79297,0 -4.20718,-3.18658 -9.5445,-3.661905 -14.03711,-6.322266 -21.9939,-13.023972 -44.08092,-38.465569 -52.86133,-62.929687 -3.42882,-9.55341 -5.59128,-20.2619026 -9.86328,-29.40625025 -0.78623,-1.68296015 -1.56478,-3.36277845 -2.32031,-5.05273435 12.70938,21.1431496 58.13335,49.9629406 74.40234,45.8554686 0.49917,-0.126047 -1.01339,-0.182945 -1.51757,-0.287109 -2.11529,-0.436959 -4.43432,-2.064103 -6.19532,-3.064453 -5.13501,-2.917021 -10.07091,-6.130495 -14.66992,-9.865235 C 292.42457,14.166052 282.52836,-6.4095738 269.97852,-22.828125 253.22493,-38.060876 225.9956,-177.33732 148.44727,-124.55078 l -1.2461,2.34375 c -16.707,-19.67148 -34.28206,-28.2838 -52.171873,-28.625 z M 375.3125,319.24023 c 1.34595,1.56123 4.66596,5.56586 4.6875,5.53321 1.37587,-2.08419 -1.9984,-3.88893 -4.6875,-5.53321 z m -92.08398,25.11915 c 1.01297,2.87995 2.10267,5.45225 3.18945,6.27539 1.22808,0.93014 -1.06197,-2.91792 -1.89649,-4.21289 -0.43904,-0.6813 -0.86168,-1.37541 -1.29296,-2.0625 z"
         transform="scale(0.26458333)"
         sodipodi:nodetypes="scssssscsscsscsscccccsscsssscccccccssscsssscsssccccssssssssscsssscccsccccssc" />
      <path
         style="font-variation-settings:normal;opacity:1;vector-effect:none;fill:none;fill-opacity:1;stroke:#000000;stroke-width:0.499999;stroke-linecap:round;stroke-linejoin:round;stroke-miterlimit:4;stroke-dasharray:none;stroke-dashoffset:0;stroke-opacity:1;paint-order:stroke fill markers;stop-color:#000000;stop-opacity:1"
         d="m 39.276901,-32.954259 c 20.517998,-13.966438 27.722085,22.88392 32.154806,26.9142528 3.320479,4.3440732 5.938875,9.7879577 10.238677,13.2797255 1.216818,0.98815 2.522691,1.8385351 3.881329,2.6103278 0.465931,0.2646769 1.079849,0.6953629 1.639527,0.8109759 0.133401,0.02756 0.533591,0.04268 0.401519,0.07603 -5.025578,1.26882 -20.577739,-9.3404305 -20.577739,-14.7242762 0,-0.3468084 0.111816,0.6892303 0.23422,1.0137195 0.375563,0.9956043 0.821807,1.9519271 1.271469,2.91444366 1.130302,2.41944084 1.702652,5.25262514 2.60986,7.78029714 2.32315,6.4727989 8.166947,13.2044169 13.986169,16.6503429 1.188669,0.703887 2.600883,0.829521 3.71403,1.672637 0.266724,0.202023 -0.669195,0 -1.003792,0 -1.276996,0 -2.409788,-0.0094 -3.647112,-0.380144 -2.540489,-0.761227 -5.245357,-1.245956 -7.5619,-2.584985 -1.366761,-0.790029 -2.636975,-1.780676 -3.780949,-2.863758 -0.182946,-0.173208 -0.813226,-1.115091 -1.003792,-1.115091 -0.141076,0 0.17553,3.166793 0.200758,3.370617 3.261509,16.355665 -4.0925,15.373159 19.573944,52.383959 2.174769,4.085928 4.478014,6.216658 7.494981,9.376907 0.166129,0.174019 1.432234,1.707885 1.438764,1.697979 0.45966,-0.696296 -1.089911,-1.276268 -1.739902,-1.799351 -2.35445,-1.894758 -5.738701,-2.914423 -7.796117,-5.119286 -1.746708,-1.871884 -3.218246,-3.967133 -4.851662,-5.930257 -4.782688,-5.748088 -9.932884,-10.59458 -12.815078,-17.689406 -0.433893,-1.068075 -1.103757,-2.008481 -1.606068,-3.041158 -0.283459,-0.58275 -0.21953,-2.19062 -0.736113,-1.799352 -0.260133,0.197027 -0.487604,4.864526 -0.535356,5.220655 -1.282094,9.561399 -0.695983,24.042309 3.580191,32.717798 0.385453,0.782005 1.069727,3.775358 1.739906,4.282964 C 76.1064,93.01841 75.500375,91.999841 75.279574,91.657211 74.661637,90.698306 74.082332,89.710791 73.439289,88.768112 71.313375,85.651585 69.06606,83.022637 67.24924,79.669978 65.202786,75.893569 63.595456,72.093195 61.895682,68.138918 58.618011,60.513899 55.634593,54.547322 56.006769,46.090519 56.256221,40.42234 58.332851,35.084789 58.516249,29.38949 58.824603,19.813812 54.943718,4.0233658 51.456245,-4.6714849 48.287738,-10.94638 42.344858,-18.099854 38.239649,-21.068398 c -0.501719,-0.361011 -6.064704,-2.108388 -4.952041,-0.633575"
         id="path2184"
         sodipodi:nodetypes="ccssscsssssssssssccscsssssscssssssssccc" />
      <path
         style="font-variation-settings:normal;opacity:1;vector-effect:none;fill:none;fill-opacity:1;stroke:#000000;stroke-width:0.499999;stroke-linecap:round;stroke-linejoin:round;stroke-miterlimit:4;stroke-dasharray:none;stroke-dashoffset:0;stroke-opacity:1;paint-order:stroke fill markers;stop-color:#000000;stop-opacity:1"
         d="M 33.555286,-21.524571 C 17.861824,-30.043076 7.4611218,-6.9722353 5.2483522,0.2957408 4.7638636,1.9047203 3.9811639,3.4721432 3.8095838,5.1615945 3.2148359,11.017737 3.2498969,17.687981 3.7426643,23.535261 c 0.3112952,3.693893 1.3970693,7.37275 1.5056879,11.074884 0.2408483,8.209026 -1.2714698,16.261445 -1.2714698,24.430641 0,4.220556 0.130279,8.490008 1.1041711,12.620807 0.3886054,1.648286 1.9677144,3.603562 1.8068258,3.725421 C 6.7866701,75.463672 4.6302321,71.56238 4.4787785,71.28145 1.5795533,65.903678 -1.5074877,60.980605 -2.8489034,54.884536 -3.2222416,53.187898 -3.281114,53.006389 -3.4846381,51.488575 -3.5789941,50.784902 -3.5747791,48.718549 -3.8192355,49.385108 -13.954948,69.817041 7.3563156,102.47867 7.3563156,102.47867 c 0,0 -22.7077846,-25.656339 -22.7526186,-42.550879 0,-0.177401 -0.0021,0.354814 0,0.532201 0.0098,0.836338 0.02615,1.672596 0.03346,2.508957 0.01302,1.489109 -0.03731,2.66869 -0.501896,4.105566 -1.404892,4.345032 -8.489444,7.890391 -12.781618,8.540586 -0.05635,0.0085 1.08607,-2.072378 1.271469,-2.407584 1.38198,-2.498659 2.944894,-4.965923 3.948249,-7.653584 1.570001,-4.205518 0.495582,-1.545373 1.30493,-3.471989 0.251178,-0.597919 0.602275,-2.498572 0.602275,-1.850038 0,1.034301 -0.585347,1.936432 -1.070711,2.813073 -3.328386,6.011561 -10.422019,6.817262 -16.796787,6.817262 -1.535284,0 -4.373369,0.46364 -5.855454,-0.658918 -0.450863,-0.341492 4.898432,-3.535431 5.1528,-3.75076 4.241374,-3.590433 7.861387,-8.401486 11.142091,-12.874238 3.874707,-5.282589 6.478072,-11.00197 8.86683,-17.081175 1.178821,-3.000009 2.844937,-5.809911 3.948248,-8.844703 1.320338,-3.631747 1.921034,-7.711325 2.60986,-11.505715 2.180302,-12.010176 4.9776346,-25.1053932 10.874413,-35.911014 14.148681,-17.670878 30.326391,-28.257174 43.966092,-8.464559"
         id="path2188"
         sodipodi:nodetypes="ccsssssssssccccsscsssssssssssscc" />
      <path
         style="font-variation-settings:normal;opacity:1;vector-effect:none;fill:none;fill-opacity:1;stroke:#000000;stroke-width:0.499999;stroke-linecap:round;stroke-linejoin:round;stroke-miterlimit:4;stroke-dasharray:none;stroke-dashoffset:0;stroke-opacity:1;paint-order:stroke fill markers;stop-color:#000000;stop-opacity:1"
         d="M 4.5122382,15.98305 C 2.032189,31.66243 8.6547173,44.641849 21.9113,53.009156 37.428016,62.360953 58.313987,36.521618 58.984686,27.007251"
         id="path2190"
         sodipodi:nodetypes="ccc" />
      <path
         style="font-variation-settings:normal;opacity:1;vector-effect:none;fill:none;fill-opacity:1;stroke:#000000;stroke-width:0.499999;stroke-linecap:round;stroke-linejoin:round;stroke-miterlimit:4;stroke-dasharray:none;stroke-dashoffset:0;stroke-opacity:1;paint-order:stroke fill markers;stop-color:#000000;stop-opacity:1"
         d="m 34.559078,13.144636 c -1.262835,8.868485 6.905976,15.533532 -1.991478,15.528398 -1.494478,-0.0065 -2.882792,-0.171238 -3.161319,-0.804123"
         id="path2192"
         sodipodi:nodetypes="ccc" />
      <path
         style="font-variation-settings:normal;opacity:1;vector-effect:none;fill:none;fill-opacity:1;stroke:#000000;stroke-width:0.499999;stroke-linecap:round;stroke-linejoin:round;stroke-miterlimit:4;stroke-dasharray:none;stroke-dashoffset:0;stroke-opacity:1;paint-order:stroke fill markers;stop-color:#000000;stop-opacity:1"
         d="m 37.938511,5.6177682 c 0.367006,-2.0139012 0.635114,-2.3749793 2.275263,-3.2945884 2.896592,-1.62407698 4.734211,-1.86137772 7.896498,-0.9123476 1.025496,0.3077608 1.979871,0.6706887 2.977917,1.0644055 0.14288,0.056365 0.543049,0.042916 0.434975,0.152058"
         id="path2194"
         sodipodi:nodetypes="csssc" />
      <path
         style="font-variation-settings:normal;opacity:1;vector-effect:none;fill:#4d9587;fill-opacity:1;stroke:none;stroke-width:0.499999;stroke-linecap:round;stroke-linejoin:round;stroke-miterlimit:4;stroke-dasharray:none;stroke-dashoffset:0;stroke-opacity:1;paint-order:stroke fill markers;stop-color:#000000;stop-opacity:1"
         d="M 26.049481,10.876575 C 25.996161,9.7043032 24.653352,8.8118832 23.804674,8.0428157 21.904859,6.3212111 18.770479,7.1546317 17.410377,9.2149617 16.988837,9.8535253 16.968218,10.76009 16.968218,11.49485 c 0,2.389117 0.955135,2.988329 3.265173,2.988329 0.807521,0 3.909204,-1.883961 4.574644,-2.421577 0.560936,-0.453187 0.476839,-0.936829 1.241446,-1.185027 z"
         id="path2263" />
      <path
         style="font-variation-settings:normal;opacity:1;vector-effect:none;fill:none;fill-opacity:1;stroke:#000000;stroke-width:0.499999;stroke-linecap:round;stroke-linejoin:round;stroke-miterlimit:4;stroke-dasharray:none;stroke-dashoffset:0;stroke-opacity:1;paint-order:stroke fill markers;stop-color:#000000;stop-opacity:1"
         d="M 27.03064,7.1890333 C 23.620606,0.79839803 17.985369,-0.9832411 11.940299,2.2218078"
         id="path2196" />
      <path
         style="font-variation-settings:normal;opacity:1;vector-effect:none;fill:none;fill-opacity:1;stroke:#000000;stroke-width:0.499999;stroke-linecap:round;stroke-linejoin:round;stroke-miterlimit:4;stroke-dasharray:none;stroke-dashoffset:0;stroke-opacity:1;paint-order:stroke fill markers;stop-color:#000000;stop-opacity:1"
         d="m 23.08239,8.1267241 c 3.250844,2.0912249 2.903553,3.7415139 0.188172,5.4783619 -1.253252,0.801621 -2.537217,1.203431 -3.948248,1.292492 -3.695133,0.23323 -5.618703,-1.163746 -7.214717,-4.185869 -0.78561,-1.4875856 -1.280879,-1.2969943 0.702654,-2.432927 1.409625,-0.807266 2.504356,-1.0390627 4.082088,-1.0390627 2.076243,0 4.193258,0.3198527 6.190051,0.8870048 z"
         id="path2198"
         sodipodi:nodetypes="csssssc" />
      <path
         style="font-variation-settings:normal;opacity:1;vector-effect:none;fill:#4d9587;fill-opacity:1;stroke:none;stroke-width:0.5;stroke-linecap:round;stroke-linejoin:round;stroke-miterlimit:4;stroke-dasharray:none;stroke-dashoffset:0;stroke-opacity:1;paint-order:stroke fill markers;stop-color:#000000;stop-opacity:1"
         d="m 45.130338,8.3777144 c -1.011269,0.6005846 -1.854207,1.8497106 -1.938697,3.0656126 -0.04979,0.716589 -0.502851,1.429902 -0.272097,2.163962 0.871257,2.771601 5.507876,1.33333 7.108552,0.334899 0.551749,-0.344155 1.93045,-0.79147 2.125766,-1.494164 C 52.399879,11.56292 51.198105,10.809586 50.606306,10.361346 49.786492,9.7404054 48.388616,9.4896343 47.443167,9.0990353 46.618191,8.7582064 46.046199,8.4973164 45.130338,8.3777144 Z"
         id="path2261" />
      <path
         style="font-variation-settings:normal;opacity:1;vector-effect:none;fill:none;fill-opacity:1;stroke:#000000;stroke-width:0.499999;stroke-linecap:round;stroke-linejoin:round;stroke-miterlimit:4;stroke-dasharray:none;stroke-dashoffset:0;stroke-opacity:1;paint-order:stroke fill markers;stop-color:#000000;stop-opacity:1"
         d="m 40.481453,14.256691 c 1.818511,0.853971 3.625268,1.30661 5.654694,1.140435 7.497178,-1.137292 8.043531,-5.4403388 0.13384,-7.0930011 C 45.586171,8.0530054 44.753488,8.049767 43.920463,8.0768731 38.086255,8.2627912 38.091397,12.785854 40.481453,14.256691 Z"
         id="path2200"
         sodipodi:nodetypes="ccccc" />
      <path
         style="font-variation-settings:normal;opacity:1;vector-effect:none;fill:none;fill-opacity:1;stroke:#000000;stroke-width:0.499999;stroke-linecap:round;stroke-linejoin:round;stroke-miterlimit:4;stroke-dasharray:none;stroke-dashoffset:0;stroke-opacity:1;paint-order:stroke fill markers;stop-color:#000000;stop-opacity:1"
         d="M 44.864678,8.050695 C 41.655417,9.3942259 41.91024,14.18449 44.496619,15.121389"
         id="path2202" />
      <path
         style="font-variation-settings:normal;opacity:1;vector-effect:none;fill:none;fill-opacity:1;stroke:#000000;stroke-width:0.499999;stroke-linecap:round;stroke-linejoin:round;stroke-miterlimit:4;stroke-dasharray:none;stroke-dashoffset:0;stroke-opacity:1;paint-order:stroke fill markers;stop-color:#000000;stop-opacity:1"
         d="m 47.507995,8.8363276 c 0.557538,0.4249081 1.003792,2.7877284 1.003792,2.7877284 L 45.701172,8.17741 c 0,0 0.561655,2.036512 1.003792,3.041158 0.04848,0.110157 0.140353,0.450154 0.06692,0.354802 -1.044935,-1.356774 -3.032683,-2.3982623 -3.044835,-2.3062116 -0.06556,0.4965501 3.430289,5.4960286 2.414273,3.6491146 -0.307192,-0.558413 -3.985258,-4.310055 -3.078295,-1.596608 0.408128,1.221041 1.405089,2.064815 2.027209,3.178572 0.158988,0.284631 -0.59681,-0.285854 -0.836493,-0.50686"
         id="path2204"
         sodipodi:nodetypes="cccccscssc" />
      <path
         style="font-variation-settings:normal;opacity:1;vector-effect:none;fill:none;fill-opacity:1;stroke:#000000;stroke-width:0.499999;stroke-linecap:round;stroke-linejoin:round;stroke-miterlimit:4;stroke-dasharray:none;stroke-dashoffset:0;stroke-opacity:1;paint-order:stroke fill markers;stop-color:#000000;stop-opacity:1"
         d="m 18.866464,6.149971 c -2.008766,1.0423744 -2.900919,8.698548 0.133839,7.932355"
         id="path2206" />
      <path
         style="font-variation-settings:normal;opacity:1;vector-effect:none;fill:none;fill-opacity:1;stroke:#000000;stroke-width:0.499999;stroke-linecap:round;stroke-linejoin:round;stroke-miterlimit:4;stroke-dasharray:none;stroke-dashoffset:0;stroke-opacity:1;paint-order:stroke fill markers;stop-color:#000000;stop-opacity:1"
         d="m 19.636038,7.2397193 c 0.267678,0.3885925 0.473316,0.8282249 0.803034,1.1657774 5.958718,6.1003103 -0.540305,-1.1581235 -0.803034,-1.1657774 -1.432976,-0.041745 2.572406,4.8810807 2.208342,4.5363947 -0.461515,-0.43695 -3.453376,-3.9668547 -4.082087,-3.6493899 -0.497559,0.2512398 2.678648,3.5002119 2.944456,3.7761049 0.08878,0.09214 0.333369,0.384991 0.234219,0.304116 -0.441178,-0.35986 -0.855736,-0.75146 -1.27147,-1.140434 -5.799126,-5.4258563 0.81032,3.69742 -1.405309,0.101371 -0.397793,-0.645632 -0.785794,-1.2918049 -1.23801,-1.9007236"
         id="path2208" />
      <path
         style="font-variation-settings:normal;opacity:1;vector-effect:none;fill:#ffaaaa;fill-opacity:1;stroke:none;stroke-width:0.499999;stroke-linecap:round;stroke-linejoin:round;stroke-miterlimit:4;stroke-dasharray:none;stroke-dashoffset:0;stroke-opacity:1;paint-order:stroke fill markers;stop-color:#000000;stop-opacity:1"
         d="m 22.359155,35.787898 c 0.364216,-3.141736 4.66473,-2.198774 6.462323,-0.837247 0.695187,0.526547 1.085556,1.401852 1.734621,1.893467 0.36513,0.276555 0.113975,-0.923801 0.306112,-1.339596 0.296805,-0.642297 1.612443,-1.840791 2.431873,-1.468403 0.52582,0.238961 3.29633,3.688215 3.0611,4.04455 -0.729261,1.10471 -2.402203,2.50258 -3.673319,3.052731 -2.251141,0.974315 -6.388701,0.779584 -8.264971,-0.759963 -0.903958,-0.74173 -1.936073,-3.449002 -2.057739,-4.585539 z"
         id="path2259" />
      <path
         style="font-variation-settings:normal;opacity:1;vector-effect:none;fill:none;fill-opacity:1;stroke:#000000;stroke-width:0.499999;stroke-linecap:round;stroke-linejoin:round;stroke-miterlimit:4;stroke-dasharray:none;stroke-dashoffset:0;stroke-opacity:1;paint-order:stroke fill markers;stop-color:#000000;stop-opacity:1"
         d="m 36.466285,37.676648 c -0.386125,-1.645304 -3.907079,-4.947489 -5.320099,-2.762385 -0.300946,0.465385 -0.467474,2.071466 -1.641855,0.232125 -1.328794,-0.94268 -5.149494,-1.855556 -6.622699,0.376107 -0.553496,1.785744 1.341849,4.003222 2.787588,5.131201 4.350976,2.977346 11.527107,1.04011 10.797065,-2.977048 z"
         id="path2210"
         sodipodi:nodetypes="cscccc" />
      <path
         style="font-variation-settings:normal;opacity:1;vector-effect:none;fill:none;fill-opacity:1;stroke:#000000;stroke-width:0.499999;stroke-linecap:round;stroke-linejoin:round;stroke-miterlimit:4;stroke-dasharray:none;stroke-dashoffset:0;stroke-opacity:1;paint-order:stroke fill markers;stop-color:#000000;stop-opacity:1"
         d="M 36.131686,37.828706 C 33.049939,39.051023 23.815304,39.387195 22.655779,35.14235"
         id="path2212"
         sodipodi:nodetypes="cc" />
      <path
         style="font-variation-settings:normal;opacity:1;vector-effect:none;fill:none;fill-opacity:1;stroke:#000000;stroke-width:0.499999;stroke-linecap:round;stroke-linejoin:round;stroke-miterlimit:4;stroke-dasharray:none;stroke-dashoffset:0;stroke-opacity:1;paint-order:stroke fill markers;stop-color:#000000;stop-opacity:1"
         d="m 44.228943,48.675504 c -1.381636,7.164403 -0.444545,14.923378 1.840285,21.845656 1.08979,3.301701 3.494641,5.023096 5.621234,7.324124 0.151673,0.16411 -0.390678,-0.219879 -0.568814,-0.354804"
         id="path2214" />
      <path
         style="font-variation-settings:normal;opacity:1;vector-effect:none;fill:none;fill-opacity:1;stroke:#000000;stroke-width:0.499999;stroke-linecap:round;stroke-linejoin:round;stroke-miterlimit:4;stroke-dasharray:none;stroke-dashoffset:0;stroke-opacity:1;paint-order:stroke fill markers;stop-color:#000000;stop-opacity:1"
         d="m 17.427696,50.221428 c 0.918426,6.736494 -3.68813,22.429288 -8.3314743,25.419015"
         id="path2216"
         sodipodi:nodetypes="cc" />
      <path
         style="font-variation-settings:normal;opacity:1;vector-effect:none;fill:#9b5e34;fill-opacity:1;stroke:#000000;stroke-width:0.499999;stroke-linecap:round;stroke-linejoin:round;stroke-miterlimit:4;stroke-dasharray:none;stroke-dashoffset:0;stroke-opacity:1;paint-order:stroke fill markers;stop-color:#000000;stop-opacity:1"
         d="m -1.7929246,14.683745 c 2.57605916,15.975544 5.9581057,40.979032 26.1894106,45.4432 0.180372,0 -0.344244,-0.109632 -0.510183,-0.180329 -0.8064,-0.343564 -1.236565,-0.560131 -2.142771,-0.978937 -2.057974,-0.951098 -4.196976,-1.22768 -6.326273,-1.932107 C 8.9116174,54.883335 3.2646109,50.151863 1.1321265,43.69114 c -0.029607,-0.0897 -0.010774,0.189534 0,0.283377 0.072081,0.627848 0.3478053,1.312288 0.4761711,1.932106 0.2225432,1.07456 0.7112428,2.182876 1.1564154,3.194421 1.5164839,3.445835 3.623833,7.321097 6.0201632,10.253059 2.9868648,3.654488 7.0299498,6.35921 10.3057028,9.712065 1.073811,1.099087 2.063804,1.977885 3.469247,2.601908 0.347661,0.154363 1.498502,0.149119 1.122403,0.206091 C 22.251297,72.09093 19.350814,70.043793 18.0362,69.45259 11.291505,66.419388 5.3223646,61.405261 1.0300898,55.309555 -1.1318929,52.239198 -2.3587637,48.318123 -3.9697067,44.953451"
         id="path2237"
         sodipodi:nodetypes="ccsssssssssssssc" />
      <path
         style="font-variation-settings:normal;opacity:1;vector-effect:none;fill:#9b5e34;fill-opacity:1;stroke:#000000;stroke-width:0.499999;stroke-linecap:round;stroke-linejoin:round;stroke-miterlimit:4;stroke-dasharray:none;stroke-dashoffset:0;stroke-opacity:1;paint-order:stroke fill markers;stop-color:#000000;stop-opacity:1"
         d="m 57.252292,32.433387 c -0.481716,3.267866 -0.644749,6.508715 -1.36049,9.737828 -1.534088,6.921158 -4.756798,13.567484 -10.271691,18.187585 -1.606206,1.345596 -3.23252,2.732995 -4.863748,4.044548 -0.674121,0.542012 -0.930195,0.62879 -1.700609,0.850127 -0.154549,0.0444 -0.636974,0.07729 -0.476171,0.07729 1.557761,0 3.338843,0.236736 4.863746,-0.02577 2.410428,-0.414932 4.098065,-1.723138 6.224238,-2.833759 10.662031,-5.569386 14.285132,-19.594631 14.285132,-30.784934 0,-0.596405 0.171315,1.182034 0.204073,1.777539 0.08592,1.561854 0.278196,3.2316 0.06802,4.791631 -2.373543,11.774112 -5.38021,25.160674 -13.264766,33.103465 -1.090422,1.07192 -2.56708,1.741321 -3.639307,2.756474 -0.08233,0.07795 0.226748,0 0.340122,0 0.913773,0 1.710732,0.207396 2.584929,0.463706 9.710421,-0.02287 15.661929,-19.663204 17.890429,-27.255615"
         id="path2243"
         sodipodi:nodetypes="csssssssssccsscc" />
      <path
         style="font-variation-settings:normal;opacity:1;vector-effect:none;fill:#9b5e34;fill-opacity:1;stroke:#000000;stroke-width:0.499999;stroke-linecap:round;stroke-linejoin:round;stroke-miterlimit:4;stroke-dasharray:none;stroke-dashoffset:0;stroke-opacity:1;paint-order:stroke fill markers;stop-color:#000000;stop-opacity:1"
         d="m 26.165121,-32.43395 c -5.310151,-3.086828 -14.760878,1.505839 -18.4686359,5.796327 -5.1153949,5.91936 -7.34297351,15.457449 -8.8091652,22.9534536 -0.4948597,2.5300039 -0.7142567,5.0982279 -0.7142567,7.6769126 0,0.8941511 -0.1270286,1.8632236 0.1020367,2.7307137 0.071632,0.271277 0.1700611,1.1049415 0.1700611,0.8243665 0,-4.2509826 2.04677667,-7.40796638 3.4012221,-11.2835157 0.7850254,-2.2462362 1.0806443,-4.6531039 1.9046844,-6.8783077 2.4173981,-6.52784 8.1413775,-13.581869 13.5708765,-17.826925 3.036708,-2.374251 6.526526,-5.001027 10.441751,-3.297465"
         id="path2246" />
      <path
         style="font-variation-settings:normal;opacity:1;vector-effect:none;fill:#9b5e34;fill-opacity:1;stroke:#000000;stroke-width:0.499999;stroke-linecap:round;stroke-linejoin:round;stroke-miterlimit:4;stroke-dasharray:none;stroke-dashoffset:0;stroke-opacity:1;paint-order:stroke fill markers;stop-color:#000000;stop-opacity:1"
         d="m 47.11665,-28.440925 c 3.898207,1.442567 6.165702,5.527007 8.128921,8.939225 2.206106,3.834377 4.768953,7.494657 6.020162,11.7987442 0.600559,2.0658852 0.654931,4.2145987 1.088393,6.3115557 0.70666,3.4186095 1.734621,6.7868395 1.734621,10.3045804 0,0.1776296 -0.08769,-0.3443081 -0.136048,-0.5152289 C 63.38099,6.3771824 63.746996,7.6830813 63.272455,5.5899531 62.781677,3.4252132 62.195931,1.2850112 61.503819,-0.82464822 58.763227,-9.1783679 55.639361,-13.15554 50.823981,-20.094214 c -0.917779,-1.322465 -1.858195,-2.643957 -3.027087,-3.761171 -8.44033,-8.067173 0.35461,2.361606 2.074746,5.564473 0.4606,0.857629 5.621102,14.2103436 2.040734,7.29049 -2.258814,-4.365654 -5.197967,-9.12408 -9.489411,-11.747221 -2.460628,-1.504056 -5.232133,-2.467433 -7.65275,-4.018787"
         id="path2248" />
      <path
         style="font-variation-settings:normal;opacity:1;vector-effect:none;fill:none;fill-opacity:1;stroke:#000000;stroke-width:0.499999;stroke-linecap:round;stroke-linejoin:round;stroke-miterlimit:4;stroke-dasharray:none;stroke-dashoffset:0;stroke-opacity:1;paint-order:stroke fill markers;stop-color:#000000;stop-opacity:1"
         d="m 21.678911,9.9105208 c -0.87124,-0.1434547 -0.804217,-0.4002418 -0.867312,0.4121832 -0.0128,0.164861 -2.25e-4,0.892764 0.03401,1.0691 0.300978,1.550168 2.173794,0.879737 1.326477,-0.747082 -0.13619,-0.26148 -0.198882,-0.7517989 -0.493177,-0.7342012 -0.110868,0.00663 -0.407006,1.8967722 0.06802,2.0351542"
         id="path2265" />
      <path
         style="font-variation-settings:normal;opacity:1;vector-effect:none;fill:none;fill-opacity:1;stroke:#000000;stroke-width:0.499999;stroke-linecap:round;stroke-linejoin:round;stroke-miterlimit:4;stroke-dasharray:none;stroke-dashoffset:0;stroke-opacity:1;paint-order:stroke fill markers;stop-color:#000000;stop-opacity:1"
         d="m 47.542508,10.758274 c -1.625333,0.452287 -0.637244,3.665421 0.25509,2.279888 0.198739,-0.308582 0.86229,-2.479715 -0.25509,-2.279888 -0.357257,0.06389 -1.087393,2.077639 -0.476174,2.176843 1.796217,0.291532 0.607838,-1.253466 0.510186,-1.558568 -0.06292,-0.19658 0.156334,-0.538465 -0.03401,-0.618275 -1.101286,-0.461752 -1.99385,1.338271 -1.13941,1.944989 1.434132,1.018348 1.744562,-2.247502 1.13941,-1.944989 -0.226748,0.322018 -0.453499,0.644036 -0.680247,0.966054 0.0057,0.02147 0.01132,0.04294 0.01701,0.0644"
         id="path2281" />
      <path
         style="font-variation-settings:normal;opacity:1;vector-effect:none;fill:#9b5e34;fill-opacity:1;stroke:#000000;stroke-width:0.499999;stroke-linecap:round;stroke-linejoin:round;stroke-miterlimit:4;stroke-dasharray:none;stroke-dashoffset:0;stroke-opacity:1;paint-order:stroke fill markers;stop-color:#000000;stop-opacity:1"
         d="m 34.191589,-22.55729 c -3.243151,1.648117 -7.50326,2.693377 -10.203666,5.306859 -4.749483,3.34597 -14.8535329,21.0586602 -13.808961,21.3304813 0.05022,0 -0.2642159,-1.7234937 -0.2720979,-1.8548245 C 11.949934,-9.2835831 25.480982,-25.979165 32.831102,-26.576077"
         id="path2283"
         sodipodi:nodetypes="ccccc" />
    </g>
  </g>
</svg>
