<svg id="svg51" width="873.38" height="485.18" overflow="hidden" version="1.1" viewBox="0 0 655.03 363.88" xmlns="http://www.w3.org/2000/svg">
	<g id="g878" class="csvg-ignore">
		<path id="path835" d="m211.64 65.126c-7.0298-7e-6 -12.729 5.6988-12.729 12.729-1e-5 7.0298 5.6988 12.729 12.729 12.729 7.0298 1e-5 12.729-5.6988 12.729-12.729 1e-5 -7.0298-5.6988-12.729-12.729-12.729zm12.958 22.114c-3.0091 4.1548-7.828 6.6147-12.958 6.6148-5.1268-5e-5 -9.943-2.4569-12.953-6.6073-10.067 2.852-12.871 15.633-14.761 24.334h8.8579c0.60348-3.5267 1.3599-5.0273 2.1691-8.2205 0.0964-0.3809 0.43649-0.64964 0.82936-0.65533 0.0112-1e-4 0.0224 2e-5 0.0336 3.6e-4 0.0651 1e-3 0.1298 0.01 0.19296 0.0257 0.46513 0.11798 0.74645 0.59083 0.62817 1.0559-0.83195 3.2831-1.4629 4.6255-2.0651 7.7939h34.593c-0.46552-3.0058-1.1524-5.9166-2.229-8.6165-0.17817-0.44571 0.039-0.95144 0.4849-1.1292 0.0997-0.0398 0.20598-0.0608 0.31337-0.0618 0.35822-3e-3 0.68162 0.21396 0.81434 0.54671 1.1738 2.9438 1.8962 6.0727 2.3751 9.2608h9.411c-0.90305-9.3619-7.4067-21.796-15.737-24.341z" style="fill:#999;font-variation-settings:normal;paint-order:stroke fill markers;stop-color:#000000"/>
		<path id="path835-6" d="m27.713 115.3c-7.0298-1e-5 -12.729 5.6988-12.729 12.729s5.6988 12.729 12.729 12.729c7.0298 2e-5 12.729-5.6988 12.729-12.729s-5.6988-12.729-12.729-12.729zm12.958 22.114c-3.0091 4.1548-7.828 6.6147-12.958 6.6148-5.1268-6e-5 -9.943-2.4569-12.953-6.6073-10.067 2.852-12.871 15.633-14.761 24.334h8.8579c0.60348-3.5267 1.3599-5.0273 2.1691-8.2205 0.0964-0.38089 0.43649-0.64964 0.82936-0.65532 0.0112-1e-4 0.0224 2e-5 0.0336 3.6e-4 0.0651 9.7e-4 0.1298 0.01 0.19296 0.0257 0.46513 0.11797 0.74645 0.59082 0.62817 1.0559-0.83195 3.2831-1.4629 4.6255-2.0651 7.7939h34.593c-0.46552-3.0058-1.1524-5.9166-2.229-8.6165-0.17818-0.44571 0.039-0.95144 0.48489-1.1291 0.0997-0.0398 0.20599-0.0608 0.31337-0.0618 0.35822-3e-3 0.68163 0.21396 0.81434 0.54671 1.1738 2.9438 1.8962 6.0727 2.3751 9.2608h9.411c-0.90306-9.3619-7.4067-21.796-15.737-24.341z" style="fill:#999;font-variation-settings:normal;paint-order:stroke fill markers;stop-color:#000000"/>
		<path id="path835-4" d="m543.78 0c-7.0298 0-12.729 5.6988-12.729 12.729-1e-5 7.0298 5.6988 12.729 12.729 12.729 7.0298 1e-5 12.729-5.6988 12.729-12.729s-5.6988-12.729-12.729-12.729zm12.958 22.114c-3.0091 4.1548-7.828 6.6147-12.958 6.6148-5.1268-5e-5 -9.943-2.4569-12.953-6.6073-10.067 2.852-12.871 15.633-14.761 24.334h8.8579c0.60348-3.5267 1.3599-5.0273 2.1691-8.2205 0.0964-0.3809 0.43649-0.64964 0.82936-0.65533 0.0112-1e-4 0.0224 2e-5 0.0336 3.6e-4 0.0651 9.8e-4 0.1298 0.01 0.19296 0.0257 0.46512 0.11798 0.74645 0.59083 0.62816 1.0559-0.83195 3.2831-1.4629 4.6255-2.0651 7.7939h34.593c-0.46552-3.0058-1.1524-5.9166-2.229-8.6165-0.17818-0.44571 0.039-0.95144 0.48489-1.1292 0.0997-0.0398 0.20599-0.0608 0.31337-0.0618 0.35822-3e-3 0.68163 0.21396 0.81434 0.54671 1.1738 2.9438 1.8963 6.0727 2.3751 9.2608h9.411c-0.90306-9.3619-7.4067-21.796-15.737-24.341z" style="fill:#999;font-variation-settings:normal;paint-order:stroke fill markers;stop-color:#000000"/>
		<path id="path835-6-3" d="m381.34 124.71c-7.0298-1e-5 -12.729 5.6988-12.729 12.729s5.6988 12.729 12.729 12.729c7.0298 1e-5 12.729-5.6988 12.729-12.729s-5.6988-12.729-12.729-12.729zm12.958 22.114c-3.0091 4.1548-7.828 6.6147-12.958 6.6148-5.1268-5e-5 -9.943-2.4569-12.953-6.6073-10.067 2.852-12.871 15.633-14.761 24.334h8.8579c0.60348-3.5267 1.3599-5.0273 2.1691-8.2205 0.0964-0.3809 0.43649-0.64964 0.82936-0.65533 0.0112-1e-4 0.0224 2e-5 0.0336 3.6e-4 0.0651 9.7e-4 0.1298 0.01 0.19296 0.0257 0.46513 0.11798 0.74645 0.59083 0.62817 1.0559-0.83195 3.2831-1.4629 4.6255-2.0651 7.7939h34.593c-0.46552-3.0058-1.1524-5.9166-2.229-8.6165-0.17818-0.44571 0.039-0.95144 0.48489-1.1292 0.0997-0.0398 0.20599-0.0608 0.31337-0.0618 0.35822-3e-3 0.68163 0.21396 0.81434 0.54671 1.1738 2.9438 1.8962 6.0727 2.3751 9.2608h9.411c-0.90305-9.3619-7.4067-21.796-15.737-24.341z" style="fill:#999;font-variation-settings:normal;paint-order:stroke fill markers;stop-color:#000000"/>
		<path id="path835-60" d="m626.34 174.88c-7.0298-1e-5 -12.729 5.6988-12.729 12.729-1e-5 7.0298 5.6988 12.729 12.729 12.729 7.0298 1e-5 12.729-5.6988 12.729-12.729 1e-5 -7.0298-5.6988-12.729-12.729-12.729zm12.958 22.114c-3.0091 4.1548-7.828 6.6147-12.958 6.6148-5.1268-5e-5 -9.943-2.4569-12.953-6.6073-10.067 2.852-12.871 15.633-14.761 24.334h8.8579c0.60348-3.5267 1.3599-5.0273 2.1691-8.2205 0.0964-0.3809 0.43649-0.64964 0.82936-0.65533 0.0112-1e-4 0.0224 2e-5 0.0336 3.6e-4 0.0651 9.8e-4 0.1298 0.01 0.19296 0.0257 0.46513 0.11798 0.74645 0.59083 0.62817 1.0559-0.83195 3.2831-1.4629 4.6255-2.0651 7.7939h34.593c-0.46552-3.0058-1.1524-5.9166-2.229-8.6165-0.17817-0.44571 0.039-0.95144 0.4849-1.1292 0.0997-0.0398 0.20598-0.0608 0.31337-0.0618 0.35822-3e-3 0.68162 0.21396 0.81434 0.54671 1.1738 2.9438 1.8962 6.0727 2.3751 9.2608h9.411c-0.90305-9.3619-7.4067-21.796-15.737-24.341z" style="fill:#999;font-variation-settings:normal;paint-order:stroke fill markers;stop-color:#000000"/>
		<path id="path835-4-4" d="m535.75 317.43c-7.0298 0-12.729 5.6988-12.729 12.729-1e-5 7.0298 5.6988 12.729 12.729 12.729 7.0298 1e-5 12.729-5.6988 12.729-12.729s-5.6988-12.729-12.729-12.729zm12.958 22.114c-3.0091 4.1548-7.828 6.6147-12.958 6.6148-5.1268-5e-5 -9.943-2.4569-12.953-6.6073-10.067 2.852-12.871 15.633-14.761 24.334h8.8579c0.60348-3.5267 1.3599-5.0273 2.1691-8.2205 0.0964-0.3809 0.43649-0.64964 0.82936-0.65533 0.0112-1e-4 0.0224 2e-5 0.0336 3.6e-4 0.0651 9.7e-4 0.1298 0.01 0.19296 0.0257 0.46512 0.11798 0.74645 0.59083 0.62816 1.0559-0.83195 3.2831-1.4629 4.6255-2.0651 7.7939h34.593c-0.46552-3.0058-1.1524-5.9166-2.229-8.6165-0.17818-0.44571 0.039-0.95144 0.48489-1.1292 0.0997-0.0398 0.20599-0.0608 0.31337-0.0618 0.35822-3e-3 0.68163 0.21396 0.81434 0.54671 1.1738 2.9438 1.8963 6.0727 2.3751 9.2608h9.411c-0.90306-9.3619-7.4067-21.796-15.737-24.341z" style="fill:#999;font-variation-settings:normal;paint-order:stroke fill markers;stop-color:#000000"/>
		<path id="path835-6-3-1" d="m334.46 298.92c-7.0298-1e-5 -12.729 5.6988-12.729 12.729s5.6988 12.729 12.729 12.729c7.0298 1e-5 12.729-5.6988 12.729-12.729s-5.6988-12.729-12.729-12.729zm12.958 22.114c-3.0091 4.1548-7.828 6.6147-12.958 6.6148-5.1268-5e-5 -9.943-2.4569-12.953-6.6073-10.067 2.852-12.871 15.633-14.761 24.334h8.8579c0.60348-3.5267 1.3599-5.0273 2.1691-8.2205 0.0964-0.3809 0.43649-0.64964 0.82936-0.65533 0.0112-1e-4 0.0224 2e-5 0.0336 3.6e-4 0.0651 9.8e-4 0.1298 0.01 0.19296 0.0257 0.46512 0.11798 0.74645 0.59083 0.62816 1.0559-0.83195 3.2831-1.4629 4.6255-2.0651 7.7939h34.593c-0.46552-3.0058-1.1524-5.9166-2.229-8.6165-0.17818-0.44571 0.039-0.95144 0.48489-1.1292 0.0997-0.0398 0.20599-0.0608 0.31337-0.0618 0.35822-3e-3 0.68163 0.21396 0.81434 0.54671 1.1738 2.9438 1.8962 6.0727 2.3751 9.2608h9.411c-0.90305-9.3619-7.4067-21.796-15.737-24.341z" style="fill:#999;font-variation-settings:normal;paint-order:stroke fill markers;stop-color:#000000"/>
		<path id="path835-8" d="m182.36 193.7c-7.0298-1e-5 -12.729 5.6988-12.729 12.729-1e-5 7.0298 5.6988 12.729 12.729 12.729 7.0298 1e-5 12.729-5.6988 12.729-12.729 1e-5 -7.0298-5.6988-12.729-12.729-12.729zm12.958 22.114c-3.0091 4.1548-7.828 6.6147-12.958 6.6148-5.1268-5e-5 -9.943-2.4569-12.953-6.6073-10.067 2.852-12.871 15.633-14.761 24.334h8.8579c0.60348-3.5267 1.3599-5.0273 2.1691-8.2205 0.0964-0.3809 0.43649-0.64964 0.82936-0.65533 0.0112-1e-4 0.0224 2e-5 0.0336 3.6e-4 0.0651 9.7e-4 0.1298 0.01 0.19296 0.0257 0.46513 0.11798 0.74645 0.59083 0.62817 1.0559-0.83195 3.2831-1.4629 4.6255-2.0651 7.7939h34.593c-0.46552-3.0058-1.1524-5.9166-2.229-8.6165-0.17817-0.44571 0.039-0.95144 0.4849-1.1292 0.0997-0.0398 0.20598-0.0608 0.31337-0.0618 0.35822-3e-3 0.68162 0.21396 0.81434 0.54671 1.1738 2.9438 1.8962 6.0727 2.3751 9.2608h9.411c-0.90305-9.3619-7.4067-21.796-15.737-24.341z" style="fill:#999;font-variation-settings:normal;paint-order:stroke fill markers;stop-color:#000000"/>
	</g>
	<g id="g882" class="csvg-group">
		<g id="g1470" class="csvg-button">
			<path id="path1092-7-6" d="m169.19 89.853-48.449 4.7087-0.0399 13.981-27.767 4.8649-2.1197 11.46-37.055 12.554 48.111-6.3746 3.4586-11.302 23.418-3.7501 2.8479-15.602z" style="fill:#fc0;stroke-width:.50222px;stroke:#000"/>
			<path id="path960-5-9-1" d="m35.388 141.54 1.7361 2.5353c68.937 14.63 100.43-14.149 159.75-66.555l-1.6233-2.6061c-54.797-0.09558-89.687-5.0633-159.86 66.626z" style="color-rendering:auto;color:#000000;dominant-baseline:auto;fill-opacity:0;font-feature-settings:normal;font-variant-alternates:normal;font-variant-caps:normal;font-variant-east-asian:normal;font-variant-ligatures:normal;font-variant-numeric:normal;font-variant-position:normal;font-variation-settings:normal;image-rendering:auto;inline-size:0;isolation:auto;mix-blend-mode:normal;shape-margin:0;shape-padding:0;shape-rendering:auto;solid-color:#000000;stop-color:#000000;stroke-width:0;text-decoration-color:#000000;text-decoration-line:none;text-decoration-style:solid;text-indent:0;text-orientation:mixed;text-transform:none;white-space:normal"/>
		</g>
		<g id="g950" class="csvg-button csvg-hidden">
			<path id="path960-5-9" d="m35.388 141.54 1.7361 2.5353c68.937 14.63 100.43-14.149 159.75-66.555l-1.6233-2.6061c-54.797-0.09558-89.687-5.0633-159.86 66.626z" style="color-rendering:auto;color:#000000;dominant-baseline:auto;fill-opacity:0;font-feature-settings:normal;font-variant-alternates:normal;font-variant-caps:normal;font-variant-east-asian:normal;font-variant-ligatures:normal;font-variant-numeric:normal;font-variant-position:normal;font-variation-settings:normal;image-rendering:auto;inline-size:0;isolation:auto;mix-blend-mode:normal;shape-margin:0;shape-padding:0;shape-rendering:auto;solid-color:#000000;stop-color:#000000;stroke-width:0;text-decoration-color:#000000;text-decoration-line:none;text-decoration-style:solid;text-indent:0;text-orientation:mixed;text-transform:none;white-space:normal"/>
			<path id="path952" d="m169.19 89.853-48.449 4.7087-0.0399 13.981-27.767 4.8649-2.1197 11.46-37.055 12.554 48.111-6.3746 3.4586-11.302 23.418-3.7501 2.8479-15.602z" style="color-rendering:auto;color:#000000;dominant-baseline:auto;fill:#fff;font-feature-settings:normal;font-variant-alternates:normal;font-variant-caps:normal;font-variant-east-asian:normal;font-variant-ligatures:normal;font-variant-numeric:normal;font-variant-position:normal;font-variation-settings:normal;image-rendering:auto;inline-size:0;isolation:auto;mix-blend-mode:normal;shape-margin:0;shape-padding:0;shape-rendering:auto;solid-color:#000000;stop-color:#000000;text-decoration-color:#000000;text-decoration-line:none;text-decoration-style:solid;text-indent:0;text-orientation:mixed;text-transform:none;white-space:normal"/>
			<path id="path1002" transform="matrix(.75 0 0 .75 -.002022 0)" d="m225.45 118.32-65.938 6.4102-0.0527 18.738-36.814 6.4512-2.8535 15.438-48.584 16.459 0.67188 2.8789 65.094-8.625 4.6191-15.096 31.35-5.0215 3.8184-20.924 49.234-13.799z" style="color-rendering:auto;color:#000000;dominant-baseline:auto;fill:#ccc;font-feature-settings:normal;font-variant-alternates:normal;font-variant-caps:normal;font-variant-east-asian:normal;font-variant-ligatures:normal;font-variant-numeric:normal;font-variant-position:normal;font-variation-settings:normal;image-rendering:auto;inline-size:0;isolation:auto;mix-blend-mode:normal;shape-margin:0;shape-padding:0;shape-rendering:auto;solid-color:#000000;stop-color:#000000;stroke-width:0;text-decoration-color:#000000;text-decoration-line:none;text-decoration-style:solid;text-indent:0;text-orientation:mixed;text-transform:none;white-space:normal"/>
		</g>
	</g>
	<g id="g886" class="csvg-group">
		<g id="g1489" class="csvg-button">
			<path id="path1092-7" d="m239.6 87.24 48.449 4.7087 0.0399 13.981 27.767 4.8649 2.1197 11.46 37.055 12.554-48.111-6.3746-3.4586-11.302-23.418-3.7501-2.8479-15.602z" style="fill:#fc0;stroke-width:.50222px;stroke:#000"/>
			<path id="path960-5-5" d="m221.14 77.758-0.56513 3.0203c38.401 59.091 81.018 61.009 160.02 65.899l0.6949-2.9907c-38.68-38.815-59.838-66.999-160.15-65.928z" style="color-rendering:auto;color:#000000;dominant-baseline:auto;fill-opacity:0;font-feature-settings:normal;font-variant-alternates:normal;font-variant-caps:normal;font-variant-east-asian:normal;font-variant-ligatures:normal;font-variant-numeric:normal;font-variant-position:normal;font-variation-settings:normal;image-rendering:auto;inline-size:0;isolation:auto;mix-blend-mode:normal;shape-margin:0;shape-padding:0;shape-rendering:auto;solid-color:#000000;stop-color:#000000;stroke-width:0;text-decoration-color:#000000;text-decoration-line:none;text-decoration-style:solid;text-indent:0;text-orientation:mixed;text-transform:none;white-space:normal"/>
		</g>
		<g id="g956" class="csvg-button csvg-hidden">
			<path id="path960-5" d="m221.14 77.758-0.56512 3.0203c38.401 59.091 81.018 61.009 160.02 65.899l0.69491-2.9907c-38.68-38.815-59.838-66.999-160.15-65.928z" style="color-rendering:auto;color:#000000;dominant-baseline:auto;fill-opacity:0;font-feature-settings:normal;font-variant-alternates:normal;font-variant-caps:normal;font-variant-east-asian:normal;font-variant-ligatures:normal;font-variant-numeric:normal;font-variant-position:normal;font-variation-settings:normal;image-rendering:auto;inline-size:0;isolation:auto;mix-blend-mode:normal;shape-margin:0;shape-padding:0;shape-rendering:auto;solid-color:#000000;stop-color:#000000;stroke-width:0;text-decoration-color:#000000;text-decoration-line:none;text-decoration-style:solid;text-indent:0;text-orientation:mixed;text-transform:none;white-space:normal"/>
			<path id="path958" d="m239.6 87.24 48.449 4.7087 0.0399 13.981 27.767 4.8649 2.1197 11.46 37.055 12.554-48.111-6.3746-3.4586-11.302-23.418-3.7501-2.8479-15.602z" style="color-rendering:auto;color:#000000;dominant-baseline:auto;fill:#fff;font-feature-settings:normal;font-variant-alternates:normal;font-variant-caps:normal;font-variant-east-asian:normal;font-variant-ligatures:normal;font-variant-numeric:normal;font-variant-position:normal;font-variation-settings:normal;image-rendering:auto;inline-size:0;isolation:auto;mix-blend-mode:normal;shape-margin:0;shape-padding:0;shape-rendering:auto;solid-color:#000000;stop-color:#000000;text-decoration-color:#000000;text-decoration-line:none;text-decoration-style:solid;text-indent:0;text-orientation:mixed;text-transform:none;white-space:normal"/>
			<path id="path960" d="m239.71 86.131-0.4082 2.1816 36.924 10.352 2.8652 15.691 23.512 3.7656 3.4648 11.322 48.82 6.4688 0.50195-2.1602-36.436-12.344-2.1426-11.578-27.609-4.8359-0.0391-14.057z" style="color-rendering:auto;color:#000000;dominant-baseline:auto;fill:#ccc;font-feature-settings:normal;font-variant-alternates:normal;font-variant-caps:normal;font-variant-east-asian:normal;font-variant-ligatures:normal;font-variant-numeric:normal;font-variant-position:normal;font-variation-settings:normal;image-rendering:auto;inline-size:0;isolation:auto;mix-blend-mode:normal;shape-margin:0;shape-padding:0;shape-rendering:auto;solid-color:#000000;stop-color:#000000;stroke-width:0;text-decoration-color:#000000;text-decoration-line:none;text-decoration-style:solid;text-indent:0;text-orientation:mixed;text-transform:none;white-space:normal"/>
		</g>
	</g>
	<g id="g890" class="csvg-group">
		<g id="g1445" class="csvg-button">
			<path id="path1092-0" d="m405.04 128.84 28.302-39.603 12.128 6.9559 18.097-21.614 10.984 3.8941 29.4-25.814-29.576 38.478-11.517-2.6558-14.957 18.406-14.936-5.3347z" style="fill:#fc0;stroke-width:.50222px;stroke:#000"/>
			<path id="path960-5-9-7-1-2" d="m386.25 142.27 2.3331 1.9995c70.375-3.7108 93.345-39.659 137.08-105.63l-2.2425-2.0971c-52.955 14.09-87.942 18.322-137.17 105.73z" style="color-rendering:auto;color:#000000;dominant-baseline:auto;fill-opacity:0;font-feature-settings:normal;font-variant-alternates:normal;font-variant-caps:normal;font-variant-east-asian:normal;font-variant-ligatures:normal;font-variant-numeric:normal;font-variant-position:normal;font-variation-settings:normal;image-rendering:auto;inline-size:0;isolation:auto;mix-blend-mode:normal;shape-margin:0;shape-padding:0;shape-rendering:auto;solid-color:#000000;stop-color:#000000;stroke-width:0;text-decoration-color:#000000;text-decoration-line:none;text-decoration-style:solid;text-indent:0;text-orientation:mixed;text-transform:none;white-space:normal"/>
		</g>
		<g id="g968" class="csvg-button csvg-hidden">
			<path id="path960-5-9-7-1" d="m386.25 142.27 2.3331 1.9996c70.375-3.7108 93.345-39.659 137.08-105.63l-2.2425-2.0971c-52.955 14.09-87.942 18.322-137.17 105.73z" style="color-rendering:auto;color:#000000;dominant-baseline:auto;fill-opacity:0;font-feature-settings:normal;font-variant-alternates:normal;font-variant-caps:normal;font-variant-east-asian:normal;font-variant-ligatures:normal;font-variant-numeric:normal;font-variant-position:normal;font-variation-settings:normal;image-rendering:auto;inline-size:0;isolation:auto;mix-blend-mode:normal;shape-margin:0;shape-padding:0;shape-rendering:auto;solid-color:#000000;stop-color:#000000;stroke-width:0;text-decoration-color:#000000;text-decoration-line:none;text-decoration-style:solid;text-indent:0;text-orientation:mixed;text-transform:none;white-space:normal"/>
			<path id="path970" d="m405.04 128.84 28.302-39.603 12.128 6.9559 18.097-21.614 10.984 3.8941 29.4-25.814-29.576 38.478-11.517-2.6558-14.957 18.406-14.936-5.3347z" style="color-rendering:auto;color:#000000;dominant-baseline:auto;fill:#fff;font-feature-settings:normal;font-variant-alternates:normal;font-variant-caps:normal;font-variant-east-asian:normal;font-variant-ligatures:normal;font-variant-numeric:normal;font-variant-position:normal;font-variation-settings:normal;image-rendering:auto;inline-size:0;isolation:auto;mix-blend-mode:normal;shape-margin:0;shape-padding:0;shape-rendering:auto;solid-color:#000000;stop-color:#000000;text-decoration-color:#000000;text-decoration-line:none;text-decoration-style:solid;text-indent:0;text-orientation:mixed;text-transform:none;white-space:normal"/>
			<path id="path972" d="m503.22 51.824-28.91 25.383-11.098-3.9336-17.994 21.492-12.191-6.9941-28.889 40.424 1.6836 1.4434 27.428-26.801 15.021 5.3652 15.016-18.479 11.539 2.6602 30.012-39.045z" style="color-rendering:auto;color:#000000;dominant-baseline:auto;fill:#ccc;font-feature-settings:normal;font-variant-alternates:normal;font-variant-caps:normal;font-variant-east-asian:normal;font-variant-ligatures:normal;font-variant-numeric:normal;font-variant-position:normal;font-variation-settings:normal;image-rendering:auto;inline-size:0;isolation:auto;mix-blend-mode:normal;shape-margin:0;shape-padding:0;shape-rendering:auto;solid-color:#000000;stop-color:#000000;stroke-width:0;text-decoration-color:#000000;text-decoration-line:none;text-decoration-style:solid;text-indent:0;text-orientation:mixed;text-transform:none;white-space:normal"/>
		</g>
	</g>
	<g id="g894" class="csvg-group">
		<g id="g1411" class="csvg-button">
			<path id="path1092-5" d="m556.12 57.715 30.929 37.588-9.8578 9.9143 16.194 23.074-6.6043 9.602 17.325 35.079-29.512-38.527 5.5462-10.437-13.908-19.211 9.0186-13.046z" style="fill:#fc0;stroke-width:.50222px;stroke:#000"/>
			<path id="path960-5-9-7-94-0" d="m549.24 38.239-2.5353 1.7361c-14.63 68.937 14.149 100.43 66.555 159.75l2.6061-1.6233c0.0956-54.797 5.0633-89.687-66.626-159.86z" style="color-rendering:auto;color:#000000;dominant-baseline:auto;fill-opacity:0;font-feature-settings:normal;font-variant-alternates:normal;font-variant-caps:normal;font-variant-east-asian:normal;font-variant-ligatures:normal;font-variant-numeric:normal;font-variant-position:normal;font-variation-settings:normal;image-rendering:auto;inline-size:0;isolation:auto;mix-blend-mode:normal;shape-margin:0;shape-padding:0;shape-rendering:auto;solid-color:#000000;stop-color:#000000;stroke-width:0;text-decoration-color:#000000;text-decoration-line:none;text-decoration-style:solid;text-indent:0;text-orientation:mixed;text-transform:none;white-space:normal"/>
		</g>
		<g id="g962" class="csvg-button csvg-hidden">
			<path id="path964" d="m556.12 57.715 30.929 37.588-9.8578 9.9143 16.194 23.074-6.6043 9.602 17.325 35.079-29.512-38.527 5.5462-10.437-13.908-19.211 9.0186-13.046z" style="color-rendering:auto;color:#000000;dominant-baseline:auto;fill:#fff;font-feature-settings:normal;font-variant-alternates:normal;font-variant-caps:normal;font-variant-east-asian:normal;font-variant-ligatures:normal;font-variant-numeric:normal;font-variant-position:normal;font-variation-settings:normal;image-rendering:auto;inline-size:0;isolation:auto;mix-blend-mode:normal;shape-margin:0;shape-padding:0;shape-rendering:auto;solid-color:#000000;stop-color:#000000;text-decoration-color:#000000;text-decoration-line:none;text-decoration-style:solid;text-indent:0;text-orientation:mixed;text-transform:none;white-space:normal"/>
			<path id="path966" d="m556.97 57.008-1.8301 1.2539 18.791 33.428-9.0723 13.123 13.963 19.285-5.5566 10.457 29.947 39.096 1.8828-1.1719-17.035-34.492 6.6719-9.7012-16.102-22.943 9.9102-9.9688z" style="color-rendering:auto;color:#000000;dominant-baseline:auto;fill:#ccc;font-feature-settings:normal;font-variant-alternates:normal;font-variant-caps:normal;font-variant-east-asian:normal;font-variant-ligatures:normal;font-variant-numeric:normal;font-variant-position:normal;font-variation-settings:normal;image-rendering:auto;inline-size:0;isolation:auto;mix-blend-mode:normal;shape-margin:0;shape-padding:0;shape-rendering:auto;solid-color:#000000;stop-color:#000000;stroke-width:0;text-decoration-color:#000000;text-decoration-line:none;text-decoration-style:solid;text-indent:0;text-orientation:mixed;text-transform:none;white-space:normal"/>
			<path id="path960-5-9-7-94" d="m549.24 38.239-2.5353 1.7361c-14.63 68.937 14.149 100.43 66.555 159.75l2.6061-1.6233c0.0956-54.797 5.0633-89.687-66.626-159.86z" style="color-rendering:auto;color:#000000;dominant-baseline:auto;fill-opacity:0;font-feature-settings:normal;font-variant-alternates:normal;font-variant-caps:normal;font-variant-east-asian:normal;font-variant-ligatures:normal;font-variant-numeric:normal;font-variant-position:normal;font-variation-settings:normal;image-rendering:auto;inline-size:0;isolation:auto;mix-blend-mode:normal;shape-margin:0;shape-padding:0;shape-rendering:auto;solid-color:#000000;stop-color:#000000;stroke-width:0;text-decoration-color:#000000;text-decoration-line:none;text-decoration-style:solid;text-indent:0;text-orientation:mixed;text-transform:none;white-space:normal"/>
		</g>
	</g>
	<g id="g910" class="csvg-group">
		<g id="g1377" class="csvg-button">
			<path id="path1092-7-6-5" d="m27.03 175.24 48.449 4.7087 0.0399 13.981 27.767 4.8649 2.1197 11.46 37.055 12.554-48.111-6.3746-3.4586-11.302-23.418-3.7501-2.8479-15.602z" style="fill:#fc0;stroke-width:.50222px;stroke:#000"/>
			<path id="path960-5-9-7-63" d="m9.6839 165.39-0.56511 3.0203c38.401 59.091 81.018 61.009 160.02 65.898l0.69492-2.9907c-38.68-38.815-59.838-66.999-160.15-65.928z" style="color-rendering:auto;color:#000000;dominant-baseline:auto;fill-opacity:0;font-feature-settings:normal;font-variant-alternates:normal;font-variant-caps:normal;font-variant-east-asian:normal;font-variant-ligatures:normal;font-variant-numeric:normal;font-variant-position:normal;font-variation-settings:normal;image-rendering:auto;inline-size:0;isolation:auto;mix-blend-mode:normal;shape-margin:0;shape-padding:0;shape-rendering:auto;solid-color:#000000;stop-color:#000000;stroke-width:0;text-decoration-color:#000000;text-decoration-line:none;text-decoration-style:solid;text-indent:0;text-orientation:mixed;text-transform:none;white-space:normal"/>
		</g>
		<g id="g944" class="csvg-button csvg-hidden">
			<path id="path946" d="m27.03 175.24 48.449 4.7087 0.0399 13.981 27.767 4.8649 2.1197 11.46 37.055 12.554-48.111-6.3746-3.4586-11.302-23.418-3.7501-2.8479-15.602z" style="color-rendering:auto;color:#000000;dominant-baseline:auto;fill:#fff;font-feature-settings:normal;font-variant-alternates:normal;font-variant-caps:normal;font-variant-east-asian:normal;font-variant-ligatures:normal;font-variant-numeric:normal;font-variant-position:normal;font-variation-settings:normal;image-rendering:auto;inline-size:0;isolation:auto;mix-blend-mode:normal;shape-margin:0;shape-padding:0;shape-rendering:auto;solid-color:#000000;stop-color:#000000;text-decoration-color:#000000;text-decoration-line:none;text-decoration-style:solid;text-indent:0;text-orientation:mixed;text-transform:none;white-space:normal"/>
			<path id="path960-5-9-7" d="m9.6839 165.39-0.56511 3.0203c38.401 59.091 81.018 61.009 160.02 65.898l0.69492-2.9906c-38.68-38.815-59.838-66.999-160.15-65.928z" style="color-rendering:auto;color:#000000;dominant-baseline:auto;fill-opacity:0;font-feature-settings:normal;font-variant-alternates:normal;font-variant-caps:normal;font-variant-east-asian:normal;font-variant-ligatures:normal;font-variant-numeric:normal;font-variant-position:normal;font-variation-settings:normal;image-rendering:auto;inline-size:0;isolation:auto;mix-blend-mode:normal;shape-margin:0;shape-padding:0;shape-rendering:auto;solid-color:#000000;stop-color:#000000;stroke-width:0;text-decoration-color:#000000;text-decoration-line:none;text-decoration-style:solid;text-indent:0;text-orientation:mixed;text-transform:none;white-space:normal"/>
			<path id="path948" d="m27.139 174.13-0.4082 2.1816 36.924 10.35 2.8652 15.693 23.51 3.7656 3.4648 11.322 48.82 6.4688 0.50391-2.1602-36.438-12.344-2.1406-11.578-27.609-4.8379-0.04102-14.055z" style="color-rendering:auto;color:#000000;dominant-baseline:auto;fill:#ccc;font-feature-settings:normal;font-variant-alternates:normal;font-variant-caps:normal;font-variant-east-asian:normal;font-variant-ligatures:normal;font-variant-numeric:normal;font-variant-position:normal;font-variation-settings:normal;image-rendering:auto;inline-size:0;isolation:auto;mix-blend-mode:normal;shape-margin:0;shape-padding:0;shape-rendering:auto;solid-color:#000000;stop-color:#000000;stroke-width:0;text-decoration-color:#000000;text-decoration-line:none;text-decoration-style:solid;text-indent:0;text-orientation:mixed;text-transform:none;white-space:normal"/>
		</g>
	</g>
	<g id="g906" class="csvg-group">
		<g id="g1358" class="csvg-button">
			<path id="path1092-7-6-5-8" d="m340.75 179.19-48.449 4.7087-0.0399 13.981-27.767 4.8649-2.1197 11.46-37.055 12.554 48.111-6.3746 3.4586-11.302 23.418-3.7501 2.8479-15.602z" style="fill:#fc0;stroke-width:.50222px;stroke:#000"/>
			<path id="path960-5-9-7-74-1" d="m204.04 231.85 1.7361 2.5353c68.937 14.63 100.43-14.149 159.75-66.555l-1.6233-2.6061c-54.797-0.0956-89.687-5.0633-159.86 66.626z" style="color-rendering:auto;color:#000000;dominant-baseline:auto;fill-opacity:0;font-feature-settings:normal;font-variant-alternates:normal;font-variant-caps:normal;font-variant-east-asian:normal;font-variant-ligatures:normal;font-variant-numeric:normal;font-variant-position:normal;font-variation-settings:normal;image-rendering:auto;inline-size:0;isolation:auto;mix-blend-mode:normal;shape-margin:0;shape-padding:0;shape-rendering:auto;solid-color:#000000;stop-color:#000000;stroke-width:0;text-decoration-color:#000000;text-decoration-line:none;text-decoration-style:solid;text-indent:0;text-orientation:mixed;text-transform:none;white-space:normal"/>
		</g>
		<g id="g938" class="csvg-button csvg-hidden">
			<path id="path960-5-9-7-74" d="m204.04 231.85 1.7361 2.5353c68.937 14.63 100.43-14.149 159.75-66.555l-1.6233-2.6061c-54.797-0.0956-89.687-5.0633-159.86 66.626z" style="color-rendering:auto;color:#000000;dominant-baseline:auto;fill-opacity:0;font-feature-settings:normal;font-variant-alternates:normal;font-variant-caps:normal;font-variant-east-asian:normal;font-variant-ligatures:normal;font-variant-numeric:normal;font-variant-position:normal;font-variation-settings:normal;image-rendering:auto;inline-size:0;isolation:auto;mix-blend-mode:normal;shape-margin:0;shape-padding:0;shape-rendering:auto;solid-color:#000000;stop-color:#000000;stroke-width:0;text-decoration-color:#000000;text-decoration-line:none;text-decoration-style:solid;text-indent:0;text-orientation:mixed;text-transform:none;white-space:normal"/>
			<path id="path940" d="m340.75 179.19-48.449 4.7087-0.0399 13.981-27.767 4.8649-2.1197 11.46-37.055 12.554 48.111-6.3746 3.4586-11.302 23.418-3.7501 2.8479-15.602z" style="color-rendering:auto;color:#000000;dominant-baseline:auto;fill:#fff;font-feature-settings:normal;font-variant-alternates:normal;font-variant-caps:normal;font-variant-east-asian:normal;font-variant-ligatures:normal;font-variant-numeric:normal;font-variant-position:normal;font-variation-settings:normal;image-rendering:auto;inline-size:0;isolation:auto;mix-blend-mode:normal;shape-margin:0;shape-padding:0;shape-rendering:auto;solid-color:#000000;stop-color:#000000;text-decoration-color:#000000;text-decoration-line:none;text-decoration-style:solid;text-indent:0;text-orientation:mixed;text-transform:none;white-space:normal"/>
			<path id="path942" d="m340.65 178.08-49.453 4.8066-0.0391 14.057-27.611 4.8379-2.1406 11.576-36.438 12.346 0.50391 2.1582 48.82-6.4688 3.4648-11.322 23.512-3.7656 2.8633-15.691 36.926-10.352z" style="color-rendering:auto;color:#000000;dominant-baseline:auto;fill:#ccc;font-feature-settings:normal;font-variant-alternates:normal;font-variant-caps:normal;font-variant-east-asian:normal;font-variant-ligatures:normal;font-variant-numeric:normal;font-variant-position:normal;font-variation-settings:normal;image-rendering:auto;inline-size:0;isolation:auto;mix-blend-mode:normal;shape-margin:0;shape-padding:0;shape-rendering:auto;solid-color:#000000;stop-color:#000000;stroke-width:0;text-decoration-color:#000000;text-decoration-line:none;text-decoration-style:solid;text-indent:0;text-orientation:mixed;text-transform:none;white-space:normal"/>
		</g>
	</g>
	<g id="g902" class="csvg-group">
		<g id="g1339" class="csvg-button">
			<path id="path1092" d="m446.07 182.73 48.017-7.9912 3.6571 13.494 28.08-2.4875 5.0134 10.521 39.042 2.5355-48.121 6.2946-6.2659-10.022-23.591 2.4388-6.789-14.333z" style="fill:#fc0;stroke-width:.50222px;stroke:#000"/>
			<path id="path960-5-9-7-9-3" d="m419.37 178.16 0.23587 3.0636c52.386 47.138 94.048 37.961 171.63 22.236l-0.1028-3.0686c-47.408-27.481-75.14-49.229-171.76-22.231z" style="color-rendering:auto;color:#000000;dominant-baseline:auto;fill-opacity:0;font-feature-settings:normal;font-variant-alternates:normal;font-variant-caps:normal;font-variant-east-asian:normal;font-variant-ligatures:normal;font-variant-numeric:normal;font-variant-position:normal;font-variation-settings:normal;image-rendering:auto;inline-size:0;isolation:auto;mix-blend-mode:normal;shape-margin:0;shape-padding:0;shape-rendering:auto;solid-color:#000000;stop-color:#000000;stroke-width:0;text-decoration-color:#000000;text-decoration-line:none;text-decoration-style:solid;text-indent:0;text-orientation:mixed;text-transform:none;white-space:normal"/>
		</g>
		<g id="g974" class="csvg-button csvg-hidden">
			<path id="path976" d="m446.07 182.73 48.017-7.9912 3.6571 13.494 28.08-2.4875 5.0134 10.521 39.042 2.5355-48.121 6.2946-6.2659-10.022-23.591 2.4388-6.789-14.333z" style="color-rendering:auto;color:#000000;dominant-baseline:auto;fill:#fff;font-feature-settings:normal;font-variant-alternates:normal;font-variant-caps:normal;font-variant-east-asian:normal;font-variant-ligatures:normal;font-variant-numeric:normal;font-variant-position:normal;font-variation-settings:normal;image-rendering:auto;inline-size:0;isolation:auto;mix-blend-mode:normal;shape-margin:0;shape-padding:0;shape-rendering:auto;solid-color:#000000;stop-color:#000000;text-decoration-color:#000000;text-decoration-line:none;text-decoration-style:solid;text-indent:0;text-orientation:mixed;text-transform:none;white-space:normal"/>
			<path id="path978" d="m494.9 173.47-49.01 8.1582 0.16993 2.2109 38.346 0.44141 6.8281 14.418 23.684-2.4492 6.2773 10.039 48.832-6.3867-0.0723-2.2148-38.391-2.4941-5.0644-10.629-27.922 2.4727z" style="color-rendering:auto;color:#000000;dominant-baseline:auto;fill:#ccc;font-feature-settings:normal;font-variant-alternates:normal;font-variant-caps:normal;font-variant-east-asian:normal;font-variant-ligatures:normal;font-variant-numeric:normal;font-variant-position:normal;font-variation-settings:normal;image-rendering:auto;inline-size:0;isolation:auto;mix-blend-mode:normal;shape-margin:0;shape-padding:0;shape-rendering:auto;solid-color:#000000;stop-color:#000000;stroke-width:0;text-decoration-color:#000000;text-decoration-line:none;text-decoration-style:solid;text-indent:0;text-orientation:mixed;text-transform:none;white-space:normal"/>
			<path id="path960-5-9-7-9" d="m419.37 178.16 0.23587 3.0636c52.386 47.138 94.048 37.961 171.63 22.236l-0.1028-3.0686c-47.408-27.481-75.14-49.229-171.76-22.231z" style="color-rendering:auto;color:#000000;dominant-baseline:auto;fill-opacity:0;font-feature-settings:normal;font-variant-alternates:normal;font-variant-caps:normal;font-variant-east-asian:normal;font-variant-ligatures:normal;font-variant-numeric:normal;font-variant-position:normal;font-variation-settings:normal;image-rendering:auto;inline-size:0;isolation:auto;mix-blend-mode:normal;shape-margin:0;shape-padding:0;shape-rendering:auto;solid-color:#000000;stop-color:#000000;stroke-width:0;text-decoration-color:#000000;text-decoration-line:none;text-decoration-style:solid;text-indent:0;text-orientation:mixed;text-transform:none;white-space:normal"/>
		</g>
	</g>
	<g id="g898" class="csvg-group">
		<g id="g1249" class="csvg-button">
			<path id="path1092-5-0" d="m617.55 229.23-30.929 37.588 9.8578 9.9143-16.194 23.074 6.6043 9.602-17.325 35.079 29.512-38.527-5.5462-10.437 13.908-19.211-9.0186-13.046z" style="fill:#fc0;stroke-width:.50222px;stroke:#000"/>
			<path id="path960-5-9-7-7-2" d="m558.48 362.75 3.0203 0.56512c59.091-38.401 61.009-81.018 65.898-160.02l-2.9907-0.69492c-38.815 38.68-66.999 59.838-65.928 160.15z" style="color-rendering:auto;color:#000000;dominant-baseline:auto;fill-opacity:0;font-feature-settings:normal;font-variant-alternates:normal;font-variant-caps:normal;font-variant-east-asian:normal;font-variant-ligatures:normal;font-variant-numeric:normal;font-variant-position:normal;font-variation-settings:normal;image-rendering:auto;inline-size:0;isolation:auto;mix-blend-mode:normal;shape-margin:0;shape-padding:0;shape-rendering:auto;solid-color:#000000;stop-color:#000000;stroke-width:0;text-decoration-color:#000000;text-decoration-line:none;text-decoration-style:solid;text-indent:0;text-orientation:mixed;text-transform:none;white-space:normal"/>
		</g>
		<g id="g920" class="csvg-button csvg-hidden">
			<path id="path960-5-9-7-7" d="m558.48 362.75 3.0203 0.56511c59.091-38.401 61.009-81.018 65.898-160.02l-2.9907-0.69492c-38.815 38.68-66.999 59.838-65.928 160.15z" style="color-rendering:auto;color:#000000;dominant-baseline:auto;fill-opacity:0;font-feature-settings:normal;font-variant-alternates:normal;font-variant-caps:normal;font-variant-east-asian:normal;font-variant-ligatures:normal;font-variant-numeric:normal;font-variant-position:normal;font-variation-settings:normal;image-rendering:auto;inline-size:0;isolation:auto;mix-blend-mode:normal;shape-margin:0;shape-padding:0;shape-rendering:auto;solid-color:#000000;stop-color:#000000;stroke-width:0;text-decoration-color:#000000;text-decoration-line:none;text-decoration-style:solid;text-indent:0;text-orientation:mixed;text-transform:none;white-space:normal"/>
			<path id="path922" d="m617.55 229.23-30.929 37.588 9.8578 9.9143-16.194 23.074 6.6043 9.602-17.325 35.079 29.512-38.527-5.5462-10.437 13.908-19.211-9.0186-13.046z" style="color-rendering:auto;color:#000000;dominant-baseline:auto;fill:#fff;font-feature-settings:normal;font-variant-alternates:normal;font-variant-caps:normal;font-variant-east-asian:normal;font-variant-ligatures:normal;font-variant-numeric:normal;font-variant-position:normal;font-variation-settings:normal;image-rendering:auto;inline-size:0;isolation:auto;mix-blend-mode:normal;shape-margin:0;shape-padding:0;shape-rendering:auto;solid-color:#000000;stop-color:#000000;text-decoration-color:#000000;text-decoration-line:none;text-decoration-style:solid;text-indent:0;text-orientation:mixed;text-transform:none;white-space:normal"/>
			<path id="path924" d="m616.69 228.52-31.568 38.367 9.9102 9.9668-16.102 22.943 6.6719 9.7012-17.035 34.494 1.8828 1.1699 29.945-39.096-5.5547-10.455 13.961-19.287-9.0703-13.121 18.791-33.43z" style="color-rendering:auto;color:#000000;dominant-baseline:auto;fill:#ccc;font-feature-settings:normal;font-variant-alternates:normal;font-variant-caps:normal;font-variant-east-asian:normal;font-variant-ligatures:normal;font-variant-numeric:normal;font-variant-position:normal;font-variation-settings:normal;image-rendering:auto;inline-size:0;isolation:auto;mix-blend-mode:normal;shape-margin:0;shape-padding:0;shape-rendering:auto;solid-color:#000000;stop-color:#000000;stroke-width:0;text-decoration-color:#000000;text-decoration-line:none;text-decoration-style:solid;text-indent:0;text-orientation:mixed;text-transform:none;white-space:normal"/>
		</g>
	</g>
	<g id="g918" class="csvg-group">
		<g id="g1273" class="csvg-button">
			<path id="path1092-7-6-5-8-3" d="m495.46 345.34-44.312-20.147-7.025 12.088-26.479-9.6703-7.5655 8.8645-38.368-7.6557 44.853 18.535 8.6463-8.0586 22.156 8.4615 10.267-12.088z" style="fill:#fc0;stroke-width:.50222px;stroke:#000"/>
			<path id="path960-5-9-7-4-9" d="m345.55 324.14 0.23585 3.0636c52.386 47.138 94.048 37.961 171.62 22.236l-0.10278-3.0686c-47.408-27.481-75.14-49.229-171.76-22.231z" style="color-rendering:auto;color:#000000;dominant-baseline:auto;fill-opacity:0;font-feature-settings:normal;font-variant-alternates:normal;font-variant-caps:normal;font-variant-east-asian:normal;font-variant-ligatures:normal;font-variant-numeric:normal;font-variant-position:normal;font-variation-settings:normal;image-rendering:auto;inline-size:0;isolation:auto;mix-blend-mode:normal;shape-margin:0;shape-padding:0;shape-rendering:auto;solid-color:#000000;stop-color:#000000;stroke-width:0;text-decoration-color:#000000;text-decoration-line:none;text-decoration-style:solid;text-indent:0;text-orientation:mixed;text-transform:none;white-space:normal"/>
		</g>
		<g id="g926" class="csvg-button csvg-hidden">
			<path id="path960-5-9-7-4" d="m345.55 324.14 0.23586 3.0636c52.386 47.138 94.048 37.961 171.62 22.236l-0.10279-3.0686c-47.408-27.481-75.14-49.229-171.76-22.231z" style="color-rendering:auto;color:#000000;dominant-baseline:auto;fill-opacity:0;font-feature-settings:normal;font-variant-alternates:normal;font-variant-caps:normal;font-variant-east-asian:normal;font-variant-ligatures:normal;font-variant-numeric:normal;font-variant-position:normal;font-variation-settings:normal;image-rendering:auto;inline-size:0;isolation:auto;mix-blend-mode:normal;shape-margin:0;shape-padding:0;shape-rendering:auto;solid-color:#000000;stop-color:#000000;stroke-width:0;text-decoration-color:#000000;text-decoration-line:none;text-decoration-style:solid;text-indent:0;text-orientation:mixed;text-transform:none;white-space:normal"/>
			<path id="path928" d="m495.46 345.34-44.312-20.147-7.025 12.088-26.479-9.6703-7.5655 8.8644-38.368-7.6557 44.853 18.535 8.6463-8.0586 22.156 8.4615 10.267-12.088z" style="color-rendering:auto;color:#000000;dominant-baseline:auto;fill:#fff;font-feature-settings:normal;font-variant-alternates:normal;font-variant-caps:normal;font-variant-east-asian:normal;font-variant-ligatures:normal;font-variant-numeric:normal;font-variant-position:normal;font-variation-settings:normal;image-rendering:auto;inline-size:0;isolation:auto;mix-blend-mode:normal;shape-margin:0;shape-padding:0;shape-rendering:auto;solid-color:#000000;stop-color:#000000;text-decoration-color:#000000;text-decoration-line:none;text-decoration-style:solid;text-indent:0;text-orientation:mixed;text-transform:none;white-space:normal"/>
			<path id="path930" d="m450.7 323.76-7.0644 12.154-26.328-9.6172-7.6445 8.957-37.727-7.5274-0.64453 2.1211 45.516 18.809 8.6602-8.0742 22.244 8.4961 10.326-12.158 37.154 9.498 0.73633-2.0938z" style="color-rendering:auto;color:#000000;dominant-baseline:auto;fill:#ccc;font-feature-settings:normal;font-variant-alternates:normal;font-variant-caps:normal;font-variant-east-asian:normal;font-variant-ligatures:normal;font-variant-numeric:normal;font-variant-position:normal;font-variation-settings:normal;image-rendering:auto;inline-size:0;isolation:auto;mix-blend-mode:normal;shape-margin:0;shape-padding:0;shape-rendering:auto;solid-color:#000000;stop-color:#000000;stroke-width:0;text-decoration-color:#000000;text-decoration-line:none;text-decoration-style:solid;text-indent:0;text-orientation:mixed;text-transform:none;white-space:normal"/>
		</g>
	</g>
	<g id="g914" class="csvg-group">
		<g id="g1292" class="csvg-button">
			<path id="path1092-7-6-5-8-9" d="m288.95 321.04-28.302-39.604-12.128 6.956-18.097-21.614-10.984 3.8941-29.4-25.814 29.576 38.478 11.517-2.6558 14.957 18.406 14.936-5.3348z" style="fill:#fc0;stroke-width:.50222px;stroke:#000"/>
			<path id="path960-5-9-7-6-9" d="m177.64 230.75-1.3276 2.7711c21.799 67.016 62.467 79.899 137.51 105.07l1.4453-2.7089c-27.316-47.503-40.459-80.203-137.63-105.13z" style="color-rendering:auto;color:#000000;dominant-baseline:auto;fill-opacity:0;font-feature-settings:normal;font-variant-alternates:normal;font-variant-caps:normal;font-variant-east-asian:normal;font-variant-ligatures:normal;font-variant-numeric:normal;font-variant-position:normal;font-variation-settings:normal;image-rendering:auto;inline-size:0;isolation:auto;mix-blend-mode:normal;shape-margin:0;shape-padding:0;shape-rendering:auto;solid-color:#000000;stop-color:#000000;stroke-width:0;text-decoration-color:#000000;text-decoration-line:none;text-decoration-style:solid;text-indent:0;text-orientation:mixed;text-transform:none;white-space:normal"/>
		</g>
		<g id="g932" class="csvg-button csvg-hidden">
			<path id="path960-5-9-7-6" d="m177.64 230.75-1.3276 2.7711c21.799 67.016 62.467 79.899 137.51 105.07l1.4453-2.7089c-27.316-47.503-40.459-80.203-137.63-105.13z" style="color-rendering:auto;color:#000000;dominant-baseline:auto;fill-opacity:0;font-feature-settings:normal;font-variant-alternates:normal;font-variant-caps:normal;font-variant-east-asian:normal;font-variant-ligatures:normal;font-variant-numeric:normal;font-variant-position:normal;font-variation-settings:normal;image-rendering:auto;inline-size:0;isolation:auto;mix-blend-mode:normal;shape-margin:0;shape-padding:0;shape-rendering:auto;solid-color:#000000;stop-color:#000000;stroke-width:0;text-decoration-color:#000000;text-decoration-line:none;text-decoration-style:solid;text-indent:0;text-orientation:mixed;text-transform:none;white-space:normal"/>
			<path id="path934" d="m288.95 321.04-28.302-39.604-12.128 6.9559-18.097-21.614-10.984 3.8941-29.4-25.814 29.576 38.478 11.517-2.6559 14.957 18.406 14.936-5.3348z" style="color-rendering:auto;color:#000000;dominant-baseline:auto;fill:#fff;font-feature-settings:normal;font-variant-alternates:normal;font-variant-caps:normal;font-variant-east-asian:normal;font-variant-ligatures:normal;font-variant-numeric:normal;font-variant-position:normal;font-variation-settings:normal;image-rendering:auto;inline-size:0;isolation:auto;mix-blend-mode:normal;shape-margin:0;shape-padding:0;shape-rendering:auto;solid-color:#000000;stop-color:#000000;text-decoration-color:#000000;text-decoration-line:none;text-decoration-style:solid;text-indent:0;text-orientation:mixed;text-transform:none;white-space:normal"/>
			<path id="path936" d="m190.77 244.02-1.6172 1.5156 30.012 39.045 11.537-2.6602 15.018 18.479 15.021-5.3652 27.428 26.803 1.6836-1.4453-28.889-40.424-12.191 6.9941-17.996-21.492-11.098 3.9336z" style="color-rendering:auto;color:#000000;dominant-baseline:auto;fill:#ccc;font-feature-settings:normal;font-variant-alternates:normal;font-variant-caps:normal;font-variant-east-asian:normal;font-variant-ligatures:normal;font-variant-numeric:normal;font-variant-position:normal;font-variation-settings:normal;image-rendering:auto;inline-size:0;isolation:auto;mix-blend-mode:normal;shape-margin:0;shape-padding:0;shape-rendering:auto;solid-color:#000000;stop-color:#000000;stroke-width:0;text-decoration-color:#000000;text-decoration-line:none;text-decoration-style:solid;text-indent:0;text-orientation:mixed;text-transform:none;white-space:normal"/>
		</g>
	</g>
</svg>
