<?xml version="1.0" encoding="UTF-8" standalone="no"?>
<!-- Created with Inkscape (http://www.inkscape.org/) -->

<svg
   width="223.42035mm"
   height="129.23169mm"
   viewBox="0 0 223.42035 129.23169"
   version="1.1"
   id="svg8995"
   inkscape:version="1.1.1 (3bf5ae0d25, 2021-09-20)"
   sodipodi:docname="2022-AT-03-itsinformatics-AND10.svg"
   xmlns:inkscape="http://www.inkscape.org/namespaces/inkscape"
   xmlns:sodipodi="http://sodipodi.sourceforge.net/DTD/sodipodi-0.dtd"
   xmlns="http://www.w3.org/2000/svg"
   xmlns:svg="http://www.w3.org/2000/svg">
  <sodipodi:namedview
     id="namedview8997"
     pagecolor="#ffffff"
     bordercolor="#666666"
     borderopacity="1.0"
     inkscape:pageshadow="2"
     inkscape:pageopacity="0.0"
     inkscape:pagecheckerboard="0"
     inkscape:document-units="mm"
     showgrid="false"
     inkscape:zoom="0.66368547"
     inkscape:cx="543.17899"
     inkscape:cy="378.94456"
     inkscape:window-width="1680"
     inkscape:window-height="1027"
     inkscape:window-x="1912"
     inkscape:window-y="-8"
     inkscape:window-maximized="1"
     inkscape:current-layer="layer1" />
  <defs
     id="defs8992" />
  <g
     inkscape:label="Ebene 1"
     inkscape:groupmode="layer"
     id="layer1"
     transform="translate(38.357147,-48.20429)">
    <g
       id="g3997"
       style="clip-rule:evenodd;fill-rule:evenodd;stroke-linecap:round;stroke-linejoin:round;stroke-miterlimit:1.5"
       transform="matrix(0.26458333,0,0,0.26458333,-798.49256,-793.13074)">
      <g
         transform="translate(2549.21,3012.6)"
         id="g1840">
        <path
           d="m 332.386,304.257 h 344.8 l -0.055,126.342 h 53.058 v 23.796"
           style="fill:none;stroke:#27f00c;stroke-width:10.98px"
           id="path1838" />
      </g>
      <g
         transform="translate(2549.21,3012.6)"
         id="g1872">
        <path
           d="m 726.226,454.395 v 13.148 c 0,0 -49.095,0 -49.095,0 -1.052,0 -2.06,0.417 -2.803,1.161 -0.744,0.744 -1.161,1.752 -1.161,2.804 l 0.054,123.667 c -38.28,0 -340.835,0 -340.835,0 -2.187,0 -3.963,1.776 -3.963,3.963 0,2.188 1.776,3.964 3.963,3.964 h 344.8 c 1.052,0 2.06,-0.418 2.804,-1.162 0.743,-0.743 1.16,-1.752 1.16,-2.803 l -0.054,-123.668 c 0,0 49.093,0 49.093,0 2.189,0 3.964,-1.774 3.964,-3.963 v -17.111 c 0,-2.188 -1.776,-3.964 -3.964,-3.964 -2.187,0 -3.963,1.776 -3.963,3.964 z"
           id="path1870" />
      </g>
      <g
         transform="matrix(0.901568,0,0,0.901568,3219.96,3194.1)"
         id="g1904">
        <path
           d="m 175.656,308.653 h 368.17392 c 2.426,0 4.396,-1.969 4.396,-4.396 0,-2.426 -1.97,-4.396 -4.396,-4.396 H 175.656 c -2.426,0 -4.396,1.97 -4.396,4.396 0,2.427 1.97,4.396 4.396,4.396 z"
           id="path1902"
           sodipodi:nodetypes="sssssss" />
      </g>
      <g
         transform="translate(2554.93,-622.337)"
         id="g1944">
        <g
           transform="matrix(0.838571,0,0,0.838571,82.7508,613.041)"
           id="g1938">
          <circle
             cx="569.63702"
             cy="3965.8201"
             r="64.883003"
             style="fill:#27f00c"
             id="circle1936" />
        </g>
        <g
           transform="matrix(4.52351,0,0,4.52351,540.532,3896.13)"
           id="g1942">
          <path
             d="M 8.899,10.307 H 4.449 L 7.095,19 0,8.023 H 4.449 L 1.684,0 Z"
             style="fill-rule:nonzero"
             id="path1940" />
        </g>
      </g>
      <g
         transform="matrix(0.561667,0,0,0.561667,1327.08,1197.74)"
         id="g2056">
        <path
           d="m 2939.96,4055.77 c 4.32,-0.14 16.12,-0.04 20.84,0.02 37.1,0.45 57.07,27.42 56.91,46.06 -0.13,17.02 -10.46,28.81 -25.01,36.96 24.33,10.47 33.24,41.3 32.92,58.35 -0.59,31.89 -30.43,66.34 -65.85,65.35 -6.92,-0.19 -12.92,0.21 -20.01,0.02 h -32.79 v -206.75 h 32.79 z m -0.2,185.96 c 6.46,3.47 14.25,4.63 22.53,4.95 23.72,0.92 45.26,-14.26 45.34,-49.52 0.08,-33.58 -17.11,-51.07 -42.97,-51.82 -11.17,-0.32 -24.66,-0.27 -24.9,0 z m 0,-111.97 h 26.16 c 0,0 15.09,-1.91 17.38,-3.08 11.13,-5.66 16.59,-14.57 16.74,-24.83 0.22,-15.44 -10.74,-29.04 -39.57,-29.92 -7.84,-0.25 -13.5,0.64 -20.71,3.28 z"
           id="path2054" />
      </g>
      <g
         transform="translate(3074.51,3030.39)"
         id="g2094">
        <path
           d="m 192.889,372.583 c 87.766,2.68 150.903,22.24 152.215,62.332 1.39,42.433 -65.904,60.765 -152.215,62.331 -1.2,0.022 -1.196,-124.699 0,-124.663 z"
           style="fill:#fdca0f"
           id="path2090" />
        <path
           d="m 192.973,369.84 c -0.336,-0.01 -2.641,0.313 -2.95,3.029 -0.108,0.952 -0.21,2.969 -0.296,5.833 -0.319,10.642 -0.48,33.427 -0.48,56.213 0,22.785 0.16,45.571 0.479,56.213 0.086,2.864 0.189,4.881 0.297,5.833 0.307,2.697 2.582,3.035 2.916,3.029 51.174,-0.929 95.713,-7.777 123.497,-21.877 20.471,-10.389 32.018,-24.751 31.411,-43.288 -0.719,-21.94 -18.786,-38.358 -49.334,-49.088 -26.828,-9.424 -63.36,-14.609 -105.54,-15.897 z m 2.371,5.569 c 40.441,1.392 75.483,6.419 101.35,15.505 27.863,9.788 45.013,24.079 45.668,44.091 0.686,20.958 -16.624,35.355 -44.543,44.933 -26.424,9.065 -62.304,13.63 -102.475,14.514 -0.096,-1.902 -0.18,-4.797 -0.253,-8.45 -0.468,-23.245 -0.475,-76.651 -0.023,-100.932 0.078,-4.217 0.169,-7.544 0.276,-9.661 z"
           id="path2092" />
      </g>
      <g
         transform="matrix(-0.562029,0,0,0.562029,4558.12,900.383)"
         id="g2176">
        <path
           d="m 2765.33,4168.21 h 63.17 l 44.32,94.32 h 11.65 l -94.14,-206.75 h -11.65 l -94.15,206.75 h 41.91 z m 5.28,-12.8 h 51.87 l -27.62,-58.8 z"
           id="path2174" />
      </g>
      <g
         transform="matrix(0.551424,0,0,0.551424,1836.07,1087.03)"
         id="g2208">
        <path
           d="m 3260.02,4240.57 c 16.77,11.61 36.37,17.18 55.83,16.77 10.25,-0.21 20.46,-2.08 30.19,-5.61 v 12.31 c -9.28,2.83 -20.33,4.07 -29.96,4.28 -26.92,0.56 -54.1,-9.13 -75.19,-29.21 -21.06,-20.08 -32.05,-46.76 -32.8,-73.68 -0.74,-27.01 8.82,-54.26 28.87,-75.31 20.06,-21.05 46.81,-31.94 73.82,-32.5 10.89,-0.23 32.37,4.36 32.37,4.36 v 11.51 c 0,0 -21.3,-5.12 -32.14,-4.9 -17.9,0.38 -35.68,5.81 -50.99,16.26 z"
           id="path2206" />
      </g>
    </g>
  </g>
</svg>
