<?xml version="1.0" encoding="UTF-8" standalone="no"?>
<!-- Created with Inkscape (http://www.inkscape.org/) -->

<svg
   width="109.49004mm"
   height="299.2373mm"
   viewBox="0 0 109.49004 299.2373"
   version="1.1"
   id="svg3653"
   inkscape:version="1.1.1 (3bf5ae0d25, 2021-09-20)"
   sodipodi:docname="2022-UK-02-solution.svg"
   xmlns:inkscape="http://www.inkscape.org/namespaces/inkscape"
   xmlns:sodipodi="http://sodipodi.sourceforge.net/DTD/sodipodi-0.dtd"
   xmlns="http://www.w3.org/2000/svg"
   xmlns:svg="http://www.w3.org/2000/svg">
  <sodipodi:namedview
     id="namedview3655"
     pagecolor="#ffffff"
     bordercolor="#666666"
     borderopacity="1.0"
     inkscape:pageshadow="2"
     inkscape:pageopacity="0.0"
     inkscape:pagecheckerboard="0"
     inkscape:document-units="mm"
     showgrid="false"
     inkscape:zoom="0.93859299"
     inkscape:cx="133.17807"
     inkscape:cy="738.87191"
     inkscape:window-width="1680"
     inkscape:window-height="1027"
     inkscape:window-x="1912"
     inkscape:window-y="-8"
     inkscape:window-maximized="1"
     inkscape:current-layer="g328" />
  <defs
     id="defs3650" />
  <g
     inkscape:label="Ebene 1"
     inkscape:groupmode="layer"
     id="layer1"
     transform="translate(-6.249612,65.90054)">
    <g
       transform="matrix(0.26458333,0,0,0.26458333,-330.14719,-121.88619)"
       id="g328"
       style="clip-rule:evenodd;fill-rule:evenodd;stroke-linecap:round;stroke-linejoin:round;stroke-miterlimit:1.5">
      <g
         transform="matrix(-1,0,0,1.02587,2960.48,-13.7151)"
         id="g24">
        <path
           d="m 1636.53,548.529 c 0,-10.124 -8.43,-18.343 -18.82,-18.343 h -175.59 c -10.39,0 -18.82,8.219 -18.82,18.343 v 729.361 c 0,10.13 8.43,18.34 18.82,18.34 h 175.59 c 10.39,0 18.82,-8.21 18.82,-18.34 z"
           style="fill:#ebebeb"
           id="path22" />
      </g>
      <g
         transform="matrix(-1,0,0,1,2958.9,33.7424)"
         id="g28">
        <path
           d="m 1507.64,1280.21 c 18.14,10.54 54.15,-21.2 29.26,-37.79 -6.76,-4.5 -35.7,3.32 -30.29,14.14 3.34,6.66 54.96,3.92 40.38,-25.24 -0.7,-1.41 -2.7,-3.4 -3.02,-4.04 -6.46,-12.91 -42.76,-0.36 -34.33,8.08 3.56,3.55 32.6,-1.88 34.33,-7.07 7.64,-22.94 -23.44,-42.97 -34.33,-21.2 -9.68,19.36 52.89,6.46 37.35,-9.08"
           style="fill:none;stroke:#000000;stroke-width:4.27px"
           id="path26" />
      </g>
      <g
         transform="matrix(-0.98734,0,0,1,2939.18,0)"
         id="g248">
        <path
           d="m 1682.35,1306.14 c 0,-5.47 -4.49,-9.91 -10.03,-9.91 h -289.88 c -5.53,0 -10.03,4.44 -10.03,9.91 v 19.82 c 0,5.47 4.5,9.91 10.03,9.91 h 289.88 c 5.54,0 10.03,-4.44 10.03,-9.91 z"
           style="fill:#ff8800"
           id="path246" />
      </g>
      <g
         transform="matrix(1.07779,0,0,0.802363,-102.994,243.384)"
         id="g252">
        <rect
           x="1323.95"
           y="1192.1801"
           width="197.83501"
           height="39.298"
           style="fill:#808080"
           id="rect250" />
      </g>
      <g
         transform="translate(284.897)"
         id="g256">
        <path
           d="m 1234.04,530.186 c 10.38,0 18.81,8.432 18.81,18.817 v 747.227 h 36.49 c 5.47,0 9.91,4.44 9.91,9.91 v 19.82 c 0,5.47 -4.44,9.91 -9.91,9.91 h -286.2 c -5.471,0 -9.911,-4.44 -9.911,-9.91 v -19.82 c 0,-5.47 4.44,-9.91 9.911,-9.91 h 36.49 V 549.003"
           style="fill:none;stroke:#000000;stroke-width:13.41px"
           id="path254" />
      </g>
      <g
         id="path2454-3"
         transform="matrix(-1.45462,-1.95477,2.1002,-1.56284,1398.15,877.168)">
        <path
           d="m 119.466,94.771 c -0.051,-0.012 -0.079,-0.014 -0.082,-0.02 -0.006,-0.006 0.014,-0.011 0.059,-0.034 0.077,-0.034 0.066,-0.023 0.023,0.054 z"
           style="fill:#c35133"
           id="path258" />
      </g>
      <g
         id="path2458-6"
         transform="matrix(-1.45462,-1.95477,2.1002,-1.56284,1398.15,877.168)">
        <path
           d="m 88.948,115.299 c -0.167,-0.13 -0.343,-0.263 -0.51,-0.397 -0.751,-0.898 -1.482,-1.817 -2.18,-2.758 0.885,1.063 1.795,2.104 2.69,3.155 z"
           style="fill:#c35133"
           id="path261" />
      </g>
      <g
         id="path2486-7"
         transform="matrix(-0.358793,-0.48216,-0.51803,0.385486,3325.67,-268.593)">
        <path
           d="m 809.266,3035 c 27.249,13.01 72.329,24.91 90.238,26.53 17.495,1.59 34.872,3.69 52.288,5.9 l 274.438,-121.1 c 24.42,-32.94 29.03,-69.84 21.35,-109.11 -2.72,-13.84 -10.32,-26.63 -8.88,-41.41 0.11,-1.09 -1.62,-2.87 -2.9,-3.52 -31.1,-15.58 -63.28,-28.42 -97.03,-37.01 -5.43,-1.39 -9.48,-3.52 -12.95,-7.85 -8.89,-11.11 -17.98,-22.1 -27.21,-32.95 -19.9,-23.43 -39.43,-47.47 -63.94,-66.17 -20.19,-15.4 -42.105,-28.63 -63.707,-42.1 -18.409,-11.48 -38.815,-14.26 -60.123,-10.82 -3.181,0.51 -6.33,1.26 -10.695,2.14 8.64,7.13 16.197,13.37 23.825,19.67 -8.813,0.04 -17.235,-0.71 -25.433,0.27 -30.101,3.61 -59.938,9.12 -90.314,10.82 -7.832,0.44 -15.183,2.1 -22.074,4.79 l -0.011,0.01 c -11.486,4.48 -21.694,11.8 -30.807,20.99 -4.102,4.15 -7.347,9.16 -11.988,15.04 13.519,-1.36 25.05,-2.53 36.587,-3.68 -3.603,4.7 -7.585,8.07 -11.282,11.77 -2.194,2.19 -3.974,2.49 -6.865,1.14 -10.48,-4.86 -21.504,-6.17 -32.936,-4.35 -14.729,2.35 -27.805,8.81 -40.34,16.39 -21.574,13.04 -40.924,28.63 -53.424,51.11 -9.281,16.7 -11.194,33.88 0.189,50.44 11.081,16.12 25.47,26.47 46.46,23.09 0.652,-0.1 1.355,0.15 2.172,0.25 -0.057,4.4 -0.511,8.54 -0.057,12.57 0.703,6.18 -0.68,11.67 -3.115,17.34 -9.253,21.54 -14.346,44.08 -15.497,67.58 -0.899,18.08 2.497,35.06 11.16,50.94 4.637,8.5 10.332,16.16 18.637,22.53 2.18,-7.25 4.133,-13.75 6.069,-20.24 2.503,15.22 6.789,29.48 13.485,42.98 6.732,13.55 15.664,25.4 28.341,35.66 -1.171,-14.38 -1.956,-27.39 1.601,-40.4 6.965,6.64 13.499,12.81 19.863,19.14 l 16.747,6.54 c 8.847,4.94 17.764,6.84 28.128,5.08 z"
           style="fill:#c35133"
           id="path264" />
      </g>
      <g
         id="path1428-2"
         transform="matrix(-0.531672,-2.39099,-2.48304,0.686559,2651.3,1047.99)">
        <path
           d="m 397.528,425.024 c -7.256,0.008 -16.535,-3.427 -22.652,-7.228 -3.526,-2.189 -7.095,-4.559 -10.04,-7.529 -2.021,-2.036 -4.93,-3.855 -6.676,-6.134 0.315,2.437 -1.187,4.609 -1.023,6.942 -0.842,-0.38 -1.885,-1.642 -2.628,-2.299 -2.182,-1.933 -4.26,-3.957 -6.216,-6.109 -2.506,-2.764 -4.969,-5.542 -6.803,-8.796 -1.919,-3.399 -3.138,-7.2 -4.17,-10.97 -0.805,-2.937 -0.181,-5.885 -0.677,-8.807 -1.069,2.027 -3.45,5.054 -5.055,6.5 -0.017,-2.937 -0.572,-5.976 -0.569,-9.043 0,-1.709 -0.185,-3.523 0.096,-5.213 0.283,-1.706 1.307,-3.146 1.715,-4.768 0.833,-3.282 1.145,-6.505 2.599,-9.686 0.828,-1.817 1.474,-4.94 2.798,-6.361 -0.796,1.571 -2.716,2.577 -3.977,3.751 -2.316,2.154 -4.756,4.203 -6.018,7.208 -1.21,2.886 -2.681,5.448 -4.467,7.937 -1.738,2.418 -3.121,4.028 -3.229,7.172 -0.057,1.703 0.193,5.811 1.432,6.956 0.527,-1.553 1.723,-2.526 2.857,-3.645 1.012,-1.001 1.859,-2.526 2.772,-3.297 0.207,1.755 -1.196,3.815 -1.366,5.672 -0.269,2.94 0.04,6.035 0.025,8.992 -0.017,2.874 1.973,6.281 1.406,8.983 1.083,-2.345 1.976,-4.261 4.213,-5.525 0.646,3.966 1.247,5.828 3.792,9.099 1.755,2.248 3.858,4.045 5.814,6.092 2.163,2.262 4.791,3.999 7.521,5.371 3.526,1.778 6.627,3.932 10.15,5.718 5.735,2.911 10.429,8.613 16.456,11.337 3.225,1.457 6.718,3.226 10.125,3.943 1.312,0.275 2.523,0.15 3.838,0.428 0.961,0.204 6.175,-0.519 6.912,0.104 0.28,0.097 0.017,-0.115 -10e-4,0 z"
           style="fill:#a25e38"
           id="path267" />
      </g>
      <g
         id="path2501-5"
         transform="matrix(-0.531672,-2.39099,-2.48304,0.686559,2650.44,1052.31)">
        <path
           d="m 336.614,400.986 c 1.752,2.214 3.889,3.566 6.945,4.028 -6.035,-5.567 -8.83,-12.498 -10.604,-20.463 -2.067,1.74 -4.513,7.401 -6.48,9.057 -0.139,-7.297 2.072,-18.511 3.475,-26.022 -3.478,2.616 -6.741,4.954 -7.929,9.192 -0.11,-0.054 -0.221,-0.105 -0.328,-0.161 0,-0.613 -0.057,-1.233 0.005,-1.84 1.026,-9.417 5.352,-17.079 12.371,-23.332 0.762,-0.68 1.323,-1.633 1.845,-2.534 0.887,-1.525 1.698,-3.096 2.489,-4.674 0.368,-0.729 0.836,-0.899 1.567,-0.593 2.311,0.967 4.666,1.843 6.942,2.889 2.895,1.332 5.794,2.525 9.074,2.426 1.905,-0.059 3.606,-0.578 4.859,-2.058 2.644,-3.132 5.952,-5.278 9.728,-6.803 1.185,-0.482 2.259,-1.239 3.441,-1.902 -1.899,-6.035 -3.106,-12.192 -6.715,-17.918 3.334,-0.876 6.528,-1.715 9.887,-2.596 -3.149,-1.778 -6.635,-2.605 -10.272,-3.708 1.777,-0.7 3.52,-1.001 5.249,-1.066 l -0.002,-0.003 c 0.575,-0.022 1.15,-0.02 1.723,0.006 0.763,0.028 1.522,0.091 2.282,0.178 4.283,0.48 8.357,1.701 12.263,3.583 1.454,0.698 3.191,0.862 4.824,1.103 4.836,0.72 9.408,2.183 13.692,4.547 1.417,0.785 2.899,1.457 4.467,2.242 1.244,-2.596 -0.122,-4.544 -1.429,-6.857 0.658,0.354 1.058,0.513 1.386,0.763 5.502,4.178 10.194,8.968 12.127,15.888 0.173,0.623 0.641,1.23 1.117,1.706 4.793,4.819 6.919,10.854 8.07,17.447 l 8.51,20.974 c 0.201,0.524 0.932,0.856 1.448,1.244 1.185,0.893 2.387,1.764 3.535,2.759 -19.902,-9.797 -40.762,-12.164 -63.431,-10.364 1.194,0.989 2.095,1.732 3.351,2.772 -9.099,-0.513 -17.459,-1.61 -25.727,1.418 2.42,0.907 4.665,1.749 6.908,2.591 -5.069,1.593 -9.865,3.415 -13.947,7.194 1.993,0.099 3.756,0.187 5.519,0.275 -3.983,3.019 -6.593,6.576 -6.358,11.718 1.023,-3.452 3.084,-6.193 6.117,-7.991 2.928,-1.737 6.086,-3.087 9.258,-4.665 -1.72,-0.485 -3.603,-1.015 -5.666,-1.599 4.544,-2.047 9.306,-2.506 14.303,-2.874 -2.041,-2.22 -4.583,-3.184 -7.494,-4.301 8.047,-1.836 15.715,0.443 23.932,1.905 -1.057,-1.542 -1.885,-2.755 -2.701,-3.948 6.041,-1.579 31.436,0.107 40.161,4.226 -1.392,2.231 -1.76,4.626 -0.952,7.155 1.406,4.402 4.459,7.494 8.022,10.349 0.144,-0.369 0.235,-0.578 0.309,-0.794 0.303,-0.915 0.683,-1.791 1.806,-1.865 1.207,-0.079 1.862,0.734 2.313,1.704 1.009,2.168 0.731,4.359 -0.017,6.522 -1.061,3.062 -3.014,5.539 -5.27,7.798 -0.941,0.944 -1.956,1.82 -2.815,2.875 9.082,-1.307 17.578,-3.816 24.31,-10.432 0.496,3.895 -2.803,14.508 -9.839,20.271 -8.042,6.587 -16.999,6.905 -26.821,3.94 3.308,-1.616 5.632,-3.816 7.117,-6.945 -0.19,0.023 -0.3,0 -0.348,0.04 -8.119,7.157 -15.511,4.763 -25.404,2.291 -6.194,-1.545 -11.772,-4.359 -16.092,-9.246 -3.917,-4.656 -5.393,-6.538 -4.426,-13.319 0.99,-1.837 2.393,-2.5 4.329,-2.318 1.052,0.099 2.1,0.3 3.155,0.453 -2.911,-5.122 -12.688,-5.408 -18.493,-3.098 3.166,0.419 6.539,0.091 9.071,2.494 -0.023,0.253 0.008,0.369 -0.04,0.426 -3.552,11.623 3.269,31.006 13.119,35.427 0.34,0.136 0.675,0.275 1.1,0.448 5.186,1.114 2.83,0.968 2.708,1.884 0,0 -2.796,-0.591 -5.012,-0.676 -9.745,-0.369 -17.661,-4.601 -25.198,-11.115 -4.445,-3.841 -7.716,-8.536 -9.981,-13.944 -0.176,-0.42 -0.357,-0.842 -0.632,-1.23 0.349,4.269 1.338,8.336 3.676,12.038 -4.067,-2.202 -7.35,-5.309 -10.298,-8.824 2.203,5.4 5.8,9.675 10.916,12.368 3.858,2.029 7.637,4.17 11.416,6.338 12.517,7.282 25.768,7.248 25.768,7.248 -0.119,2.123 0.729,3.424 2.764,4.005 0.717,0.202 1.38,0.63 2.103,0.751 l 9.72,3.249 c 1.259,0 2.166,-0.156 2.996,0.034 2.115,0.482 3.782,-0.371 5.466,-1.457 5.683,-3.671 7.221,-4.487 10.129,-10.508 0.405,-0.839 0.845,-1.125 1.78,-1.134 4.881,-0.053 9.493,-1.224 13.694,-3.733 8.74,-5.213 13.315,-13.223 15.307,-22.952 0.698,-3.43 0.176,-7.087 1.917,-10.332 0.127,-0.241 -0.097,-0.814 -0.326,-1.083 -5.638,-6.54 -11.784,-12.552 -18.695,-17.739 -1.114,-0.836 -1.837,-1.715 -2.217,-3.036 -0.977,-3.393 -2.009,-6.778 -3.089,-10.145 -2.319,-7.266 -4.499,-14.636 -8.328,-21.26 -3.155,-5.454 -6.914,-10.576 -10.577,-15.724 -3.12,-4.388 -7.528,-6.97 -12.738,-8.218 -0.777,-0.187 -1.571,-0.314 -2.654,-0.53 1.299,2.458 2.432,4.609 3.578,6.781 -2.021,-0.834 -3.878,-1.809 -5.851,-2.367 -7.24,-2.047 -14.598,-3.631 -21.719,-6.143 -1.837,-0.646 -3.679,-0.966 -5.516,-1.009 h -0.003 c -3.059,-0.068 -6.095,0.632 -9.06,1.871 -1.335,0.558 -2.557,1.395 -4.181,2.299 3.226,0.978 5.978,1.811 8.734,2.65 -1.276,0.732 -2.509,1.126 -3.711,1.619 -0.711,0.292 -1.148,0.19 -1.681,-0.394 -1.936,-2.115 -4.337,-3.467 -7.129,-4.142 -3.597,-0.867 -7.208,-0.635 -10.803,-0.093 -6.188,0.927 -12.109,2.65 -17.118,6.605 -3.719,2.939 -5.797,6.692 -4.771,11.573 1.001,4.751 3.308,8.493 8.439,9.723 0.159,0.04 0.298,0.165 0.473,0.267 -0.431,1 -0.932,1.907 -1.213,2.874 -0.428,1.483 -1.267,2.605 -2.367,3.671 -4.178,4.056 -7.495,8.733 -10.003,14.006 -1.928,4.051 -2.773,8.266 -2.305,12.73 0.252,2.387 0.825,4.686 2.118,6.942 1.196,-1.457 2.259,-2.755 3.322,-4.056 -0.876,3.722 -1.259,7.401 -1.012,11.132 0.249,3.741 1.162,7.313 3.09,10.87 1.102,-3.407 2.162,-6.457 4.22,-9.102 0.961,2.192 1.871,4.224 2.724,6.279 z"
           style="fill:#1a1a1a"
           id="path270" />
      </g>
      <g
         id="path1334-9"
         transform="matrix(-0.531672,-2.39099,-2.48304,0.686559,2640.5,1011.18)">
        <path
           d="m 393.44,360.102 c 0.817,-1.369 1.338,-2.928 0.919,-4.533 -0.661,-2.534 -3.94,-5.076 -6.588,-4.546 -3.679,0.734 -4.555,5.57 -3.098,8.475 0.757,1.511 1.837,2.707 3.416,3.322 1.814,0.709 2.338,-0.396 2.854,-1.057 0.088,1.332 1.976,-0.794 2.497,-1.661 z"
           style="fill:#261612"
           id="path273" />
      </g>
      <g
         id="path1340-0"
         transform="matrix(-0.531672,-2.39099,-2.48304,0.686559,2648,1044.26)">
        <path
           d="m 430.379,361.077 c -0.131,-1.346 -0.474,-2.551 -1.208,-3.708 -1.31,-2.069 -4.28,-3.078 -5.749,-0.592 -1.493,2.526 -0.19,6.16 1.747,8.178 0.805,0.842 1.675,1.395 2.794,1.491 1.803,0.162 2.194,-1.052 2.566,-1.811 0.272,-0.156 -0.057,-2.52 -0.15,-3.558 z"
           style="fill:#261612"
           id="path276" />
      </g>
      <g
         id="path1346-6"
         transform="matrix(-0.531672,-2.39099,-2.48304,0.686559,2650.44,1052.31)">
        <path
           d="m 372.234,312.922 c -1.726,0.068 -3.466,0.366 -5.244,1.066 3.637,1.103 7.124,1.93 10.273,3.708 -0.587,0.156 -1.148,0.3 -1.726,0.453 0.215,0.026 0.496,0.151 0.7,0.162 -1.412,1.375 -4.383,1 -6.939,1.474 -0.454,0.119 -0.907,0.241 -1.364,0.363 -0.181,0.071 -0.297,0.252 -0.468,0.343 1.738,2.803 2.94,5.703 3.909,8.645 0.1,0.307 0.176,0.615 0.273,0.922 0.317,-0.08 0.64,-0.119 0.961,-0.156 -1.378,-1.857 -1.066,-3.51 1.757,-3.161 2.923,0.36 6.066,1.304 9.031,0.885 -0.419,-0.874 -1.48,-1.327 -1.82,-2.206 4.677,-0.802 9.04,2.651 13.615,2.322 -0.414,-0.275 -0.683,-0.723 -1.097,-0.998 6.129,0.232 12.28,0.95 17.467,4.439 1.072,0.723 2.123,1.349 3.184,1.993 3.897,1.902 7.37,4.32 10.037,8.01 1.84,2.546 3.254,5.59 4.603,8.655 0.097,0.09 0.185,0.19 0.287,0.277 l -0.216,-0.121 c 0.859,1.953 1.698,3.909 2.583,5.743 1.272,2.633 2.644,5.337 4.269,7.744 0.499,0.74 1.301,2.707 2.242,4.32 l -5.791,-14.275 c -0.576,-3.297 -1.398,-6.455 -2.671,-9.389 -1.275,-2.937 -3.004,-5.649 -5.402,-8.062 -0.474,-0.476 -0.944,-1.08 -1.117,-1.706 -0.482,-1.729 -1.137,-3.325 -1.936,-4.81 -0.797,-1.489 -1.735,-2.866 -2.787,-4.159 -2.1,-2.585 -4.651,-4.827 -7.401,-6.916 -0.332,-0.25 -0.731,-0.409 -1.389,-0.766 0.652,1.16 1.321,2.225 1.67,3.328 0.348,1.1 0.382,2.234 -0.241,3.532 -1.568,-0.785 -3.05,-1.46 -4.468,-2.242 -2.143,-1.182 -4.357,-2.137 -6.638,-2.889 -2.285,-0.751 -4.635,-1.298 -7.053,-1.658 -1.633,-0.241 -3.37,-0.405 -4.825,-1.103 -1.953,-0.943 -3.948,-1.717 -5.992,-2.318 -2.041,-0.601 -4.127,-1.026 -6.267,-1.267 -0.763,-0.085 -1.523,-0.148 -2.285,-0.179 -0.573,-0.023 -1.145,-0.025 -1.721,-0.003 z"
           style="fill:#e67739"
           id="path279" />
      </g>
      <g
         id="path1360-3"
         transform="matrix(-0.531672,-2.39099,-2.48304,0.686559,2647.15,1029.58)">
        <path
           d="m 378.496,338.848 c 1.083,0.677 2.517,0.998 3.844,1.301 2.611,0.601 5.207,1.349 7.738,2.151 2.733,0.868 5.627,1.749 8.195,2.574 0.72,0.233 2.376,1.043 3.014,0.936 1.006,-0.173 1.253,-1.31 1.522,-1.882 0.711,-1.503 1.298,-3.104 1.695,-4.598 -1.202,0.28 -1.304,0.655 -2.806,0.527 -1.622,-0.139 -2.775,-0.91 -4.247,-1.426 -3.126,-1.097 -6.185,-2.021 -9.297,-2.934 -2.617,-0.768 -5.264,-2.046 -8.207,-1.933 -2.347,0.094 -4.203,3.26 -4.167,4.907 0.23,0.108 0.474,0.153 0.737,0.133 z"
           style="fill:#261612"
           id="path282" />
      </g>
      <g
         id="path1366-5"
         transform="matrix(-0.531672,-2.39099,-2.48304,0.686559,2650.44,1052.31)">
        <path
           d="m 433.222,349.668 c -1.639,-1.134 -4.3,-1.627 -6.188,-2.342 -1.576,-0.598 -3.705,-1.956 -5.312,-2.004 0.456,-1.222 0.734,-3.143 1.819,-3.96 1.704,0.425 6.56,2.464 8.014,1.715 z"
           style="fill:#261612"
           id="path285" />
      </g>
      <g
         id="path1380-2"
         transform="matrix(-0.531672,-2.39099,-2.48304,0.686559,2650.44,1052.31)">
        <path
           d="m 352.106,321.625 c 1.363,-0.015 2.749,0.096 4.158,0.331 2.857,0.482 5.094,2.18 6.463,4.689 1.233,2.27 2.132,4.725 3.104,7.129 0.436,1.071 0.692,2.219 1.018,3.336 0.858,2.923 0.875,2.96 -1.985,4.272 -1.856,0.848 -3.532,1.905 -4.705,3.592 -1.539,2.208 -3.631,2.452 -5.928,1.655 -1.352,-0.465 -2.59,-1.244 -3.903,-1.831 -2.112,-0.938 -4.187,-2.01 -6.383,-2.716 -4.692,-1.505 -7.285,-4.875 -7.28,-9.808 0.003,-3.055 1.457,-5.371 3.895,-7.013 3.574,-2.403 7.452,-3.591 11.546,-3.636 z"
           style="fill:#c35133"
           id="path288" />
      </g>
      <g
         id="path1386-6"
         transform="matrix(-0.531672,-2.39099,-2.48304,0.686559,2650.44,1052.31)">
        <path
           d="m 433.29,376.061 c 0.411,-0.034 0.949,0.125 1.703,0.437 8.071,3.339 15.826,7.239 22.468,13.016 2.474,2.157 2.798,1.423 0.453,4.556 -3.982,5.329 -9.612,8.203 -15.837,10.082 -0.057,0.023 -0.15,-0.068 -0.176,-0.073 1.265,-1.642 2.662,-3.206 3.768,-4.955 2.347,-3.716 3.186,-7.625 0.788,-11.693 -0.321,-0.544 -0.743,-1.026 -1.242,-1.494 0.445,1.981 0.788,3.915 -0.207,6.154 -1.414,-4.13 -3.841,-7.098 -7.407,-9.003 -0.3,1.579 -0.578,3.03 -0.856,4.479 -0.159,0.003 -0.312,0.006 -0.473,0.006 -2.169,-2.172 -4.057,-4.527 -4.507,-7.725 -0.082,-0.578 0.017,-1.213 0.167,-1.786 0.357,-1.346 0.677,-1.944 1.358,-2.001 z"
           style="fill:#261612"
           id="path291" />
      </g>
      <g
         id="path1392-7"
         transform="matrix(-0.531672,-2.39099,-2.48304,0.686559,2650.44,1052.31)">
        <path
           d="m 436.731,407.401 c 2.058,-3.793 5.434,-6.401 5.559,-11.01 0.079,-2.877 -0.519,-7.565 -3.739,-8.594 -1.735,1.839 -2.568,3.248 -4.266,0.805 -1.681,-2.418 -3.813,-5.627 -4.414,-8.561 -0.516,-2.514 0.802,-4.609 3.439,-4.286 2.333,0.286 4.382,1.653 6.539,2.489 1.936,0.751 4.022,1.085 5.976,1.808 4.816,1.778 10.068,3.81 13.458,7.801 1.319,1.554 2.648,2.877 1.931,5.012 -1.264,3.776 -5.508,7.526 -9.091,8.977 z"
           style="fill:#1a1a1a"
           id="path294" />
      </g>
      <g
         id="path1398-3"
         transform="matrix(-0.870212,-2.27296,-2.38556,1.01087,2750.82,870.781)">
        <path
           d="m 403.35,421.381 c 5.122,0.386 10.145,0.763 15.523,1.165 -0.839,3.479 -1.71,7.096 -2.58,10.715 0.082,0.032 0.162,0.071 0.233,0.111 1.647,-3.671 3.285,-7.339 4.921,-11.004 3.325,0.796 6.746,1.616 10.539,2.523 -1.52,2.236 -2.875,4.425 -4.428,6.463 -2.018,2.644 -4.496,4.827 -7.398,6.491 -0.391,0.224 -0.862,0.468 -1.284,0.451 -5.128,-0.179 -10.202,-0.72 -15.03,-2.645 -0.776,-0.309 -1.227,-0.709 -1.179,-1.621 0.199,-3.989 0.354,-7.98 0.539,-11.968 0.017,-0.315 0.139,-0.624 0.144,-0.681 z"
           style="fill:#ffffff"
           id="path297" />
      </g>
      <g
         id="path1440-1"
         transform="matrix(-0.531672,-2.39099,-2.48304,0.686559,2650.44,1052.31)">
        <path
           d="m 444.878,381.728 c 3.146,2.111 6.675,3.526 9.83,5.675 0.771,0.524 6.276,4.382 3.014,5.479 -1.338,0.451 -3.348,-1.982 -4.278,-2.597 -2.154,-1.423 -4.26,-2.905 -6.477,-4.294 -1.23,-0.771 -7.313,-4.346 -5.939,-5.548 z"
           style="fill:#ffffff"
           id="path300" />
      </g>
      <g
         id="path1458-3"
         transform="matrix(-0.531672,-2.39099,-2.48304,0.686559,2650.44,1052.31)">
        <path
           d="m 433.553,388.429 c -0.215,-0.241 -0.507,-0.431 -0.711,-0.678 -1.383,-1.681 -2.5,-3.549 -3.2,-5.751 -0.406,-1.265 -0.516,-2.498 -0.349,-3.691 0.164,-1.193 0.604,-2.347 1.298,-3.464 -2.18,-1.029 -5.403,-1.908 -9.105,-2.619 -3.702,-0.712 -7.883,-1.262 -11.979,-1.633 -4.099,-0.368 -8.116,-0.558 -11.483,-0.558 -0.017,0 -0.023,0.002 -0.04,0.002 -0.677,0.151 -1.321,0.301 -2.063,0.358 -1.576,0.119 -3.402,-0.287 -4.763,0.277 -0.283,0.119 -0.306,0.205 -0.481,0.309 0.745,1.089 1.496,2.186 2.457,3.586 -3.691,-0.655 -7.254,-1.428 -10.808,-1.967 -2.642,-0.045 -5.327,0.054 -7.756,0.054 -1.437,0 -3.027,-0.108 -4.277,0.473 1.029,0.403 2.063,0.788 2.982,1.27 1.253,0.658 2.401,1.457 3.421,2.568 -2.5,0.182 -4.941,0.389 -7.325,0.805 -2.384,0.417 -4.708,1.044 -6.981,2.067 2.066,0.584 3.945,1.114 5.669,1.599 -3.172,1.578 -6.33,2.928 -9.261,4.668 -0.383,0.227 -0.612,0.596 -0.967,0.853 1.446,-0.348 2.892,-0.566 4.318,-0.3 -1.344,1.412 -3.62,2.645 -5.202,4.042 -1.369,1.211 -4.55,3.787 -3.742,5.601 1.999,0.48 3.949,-1.159 5.528,-1.842 2.84,-1.23 4.912,-1.871 7.291,-3.762 3.585,-2.846 6.865,-5.907 11.534,-7.503 6.695,-2.287 13.813,-2.126 20.849,-1.131 8.489,1.202 17.186,2.673 25.628,4.232 3.214,0.593 6.338,1.361 9.518,2.135 z"
           style="fill:#e67739"
           id="path303" />
      </g>
      <g
         transform="translate(1.03575,9.12539)"
         id="g308">
        <circle
           cx="1536.14"
           cy="521.06097"
           r="36.758999"
           style="fill:#c35133;stroke:#000000;stroke-width:7.93px"
           id="circle306" />
      </g>
      <g
         transform="matrix(0.5,0,0,0.5,769.107,269.656)"
         id="g312">
        <circle
           cx="1536.14"
           cy="521.06097"
           r="36.758999"
           id="circle310" />
      </g>
      <g
         transform="translate(265.84339,-54.582173)"
         id="g382"
         style="clip-rule:evenodd;fill-rule:evenodd;stroke-linecap:round;stroke-linejoin:round;stroke-miterlimit:1.5">
        <g
           transform="translate(-265.844,-197.287)"
           id="g368">
          <g
             transform="matrix(1.07169,0,0,1.30439,-462.665,335.101)"
             id="g356">
            <path
               d="m 1851.87,582.931 c 0,-7.337 -7.25,-13.294 -16.18,-13.294 h -137.15 c -8.94,0 -16.19,5.957 -16.19,13.294 v 61.689 c 0,7.338 7.25,13.295 16.19,13.295 h 137.15 c 8.93,0 16.18,-5.957 16.18,-13.295 z"
               style="fill:#e3ab00;fill-opacity:0.93513513"
               id="path354" />
          </g>
          <path
             d="m 1516.32,1082.67 c 0.79,1.99 1.23,4.16 1.23,6.43 v 80.47 c 0,9.57 -7.77,17.34 -17.34,17.34 h -146.98 c -4.5,0 -8.61,-1.72 -11.69,-4.54 2.56,6.39 8.81,10.91 16.1,10.91 h 146.99 c 9.57,0 17.34,-7.77 17.34,-17.34 v -80.47 c 0,-5.07 -2.18,-9.63 -5.65,-12.8 z"
             style="fill:#ffd300"
             id="path358" />
          <path
             d="m 1344.22,1186.91 c -0.88,-2.07 -1.36,-4.35 -1.36,-6.74 v -80.47 c 0,-9.57 7.77,-17.34 17.34,-17.34 h 146.98 c 5.41,0 10.25,2.48 13.43,6.37 -2.63,-6.23 -8.8,-10.6 -15.98,-10.6 h -146.99 c -9.57,0 -17.34,7.77 -17.34,17.34 v 80.47 c 0,4.16 1.47,7.98 3.92,10.97 z"
             style="fill:#d09d00"
             id="path360" />
          <g
             transform="matrix(1.41,0,0,0.828702,-546.439,191.026)"
             id="g364">
            <path
               d="m 1452.7,1105.87 c 0,-8.88 -4.23,-16.08 -9.45,-16.08 h -81.42 c -5.22,0 -9.45,7.2 -9.45,16.08 v 68.17 c 0,8.87 4.23,16.07 9.45,16.07 h 81.42 c 5.22,0 9.45,-7.2 9.45,-16.07 z"
               style="fill:#efba18;font-variation-settings:normal;opacity:1;vector-effect:none;fill-opacity:1;stroke-width:0.92510548;stroke-linecap:butt;stroke-linejoin:miter;stroke-miterlimit:1.5;stroke-dasharray:none;stroke-dashoffset:0;stroke-opacity:1;-inkscape-stroke:none;stop-color:#000000;stop-opacity:1"
               id="path362" />
          </g>
          <path
             d="m 1500.94,1102.59 c -3.42,4.98 -13.19,21.29 -24.76,29.65 -19.63,14.17 -43.64,19.7 -66.4,26.94 -13.05,4.15 -26.19,7.99 -39.3,11.95 -2.09,0.63 -4.21,1.33 -6.36,2.05 2.43,2.52 5.84,4.1 9.61,4.1 h 114.81 c 7.35,0 13.32,-5.97 13.32,-13.33 v -56.49 c 0,-1.72 -0.32,-3.36 -0.92,-4.87 z"
             style="fill:#ffc922"
             id="path366" />
        </g>
        <g
           transform="matrix(1.14366,0,0,1.14864,-170.03779,-140.90695)"
           id="g372"
           style="fill:#4f421d;fill-opacity:1">
          <path
             d="m 1191.49,961.887 -12.37,-1.48 -5.96,10.933 c 3.44,0.226 7.06,-0.479 10.45,-2.228 3.39,-1.749 6.07,-4.295 7.88,-7.225 z m -29.93,3.924 c 1.69,1.948 3.85,3.418 6.26,4.358 0.03,-0.05 0.05,-0.098 0.08,-0.146 l 5.6,-10.289 -7.85,-0.941 -3.4,6.229 c -0.17,0.327 -0.41,0.592 -0.69,0.789 z m -1.53,-7.691 -1.5,2.751 -1.61,-3.123 z m 33.6,-1.264 c 0.63,-2.514 0.68,-5.124 0.08,-7.631 -0.33,0.113 -0.68,0.155 -1.05,0.11 l -7.04,-0.843 -3.79,6.946 11.63,1.393 c 0.06,0.007 0.11,0.015 0.17,0.025 z m -25.27,-3.032 7.85,0.941 3.79,-6.946 -7.86,-0.941 z m -12.67,-8.916 c -0.78,2.413 -1.03,4.945 -0.66,7.413 0.21,-0.035 0.43,-0.041 0.66,-0.013 l 7.05,0.843 3.78,-6.946 z m 34.13,-4.136 1.61,3.123 -3.11,-0.372 z m -9.75,-8.439 -5.22,9.576 7.85,0.941 3.4,-6.229 c 0.11,-0.203 0.24,-0.381 0.4,-0.535 -1.8,-1.728 -4.01,-2.995 -6.43,-3.753 z m -21.84,7.586 11,1.317 5.3,-9.729 c -3.03,0.008 -6.18,0.739 -9.15,2.269 -2.96,1.53 -5.38,3.671 -7.15,6.143 z m 5.35,-7.051 c -9.52,-4.904 -18.73,-8.092 -27.13,-6.904 8.41,1.854 15.51,5.662 20.98,11.912 z m -11.75,-25.356 14.6,17.175 -1.37,7.436 -7.24,-3.352 z m 14.49,24.057 c 1.52,-10.603 4.26,-19.953 10.1,-26.111 -3.36,7.924 -4.38,15.919 -2.46,24.004 z"
             style="fill:#714029;fill-opacity:1"
             id="path370" />
        </g>
        <g
           transform="matrix(1.14366,0,0,1.14864,-167.401,-142.037)"
           id="g376" />
        <g
           transform="matrix(1.14366,0,0,1.14864,-167.401,-142.037)"
           id="g380" />
      </g>
      <g
         transform="translate(-333.88761,-100.63054)"
         id="g450"
         style="clip-rule:evenodd;fill-rule:evenodd;stroke-linecap:round;stroke-linejoin:round;stroke-miterlimit:1.5">
        <g
           transform="translate(333.887,-25.304)"
           id="g398">
          <g
             transform="matrix(1.07169,0,0,1.30439,-462.665,335.101)"
             id="g386">
            <path
               d="m 1851.87,582.931 c 0,-7.337 -7.25,-13.294 -16.18,-13.294 h -137.15 c -8.94,0 -16.19,5.957 -16.19,13.294 v 61.689 c 0,7.338 7.25,13.295 16.19,13.295 h 137.15 c 8.93,0 16.18,-5.957 16.18,-13.295 z"
               style="fill:#a300ff"
               id="path384" />
          </g>
          <path
             d="m 1516.32,1082.67 c 0.79,1.99 1.23,4.16 1.23,6.43 v 80.47 c 0,9.57 -7.77,17.34 -17.34,17.34 h -146.98 c -4.5,0 -8.61,-1.72 -11.69,-4.54 2.56,6.39 8.81,10.91 16.1,10.91 h 146.99 c 9.57,0 17.34,-7.77 17.34,-17.34 v -80.47 c 0,-5.07 -2.18,-9.63 -5.65,-12.8 z"
             style="fill:#c968fa"
             id="path388" />
          <path
             d="m 1344.22,1186.91 c -0.88,-2.07 -1.36,-4.35 -1.36,-6.74 v -80.47 c 0,-9.57 7.77,-17.34 17.34,-17.34 h 146.98 c 5.41,0 10.25,2.48 13.43,6.37 -2.63,-6.23 -8.8,-10.6 -15.98,-10.6 h -146.99 c -9.57,0 -17.34,7.77 -17.34,17.34 v 80.47 c 0,4.16 1.47,7.98 3.92,10.97 z"
             style="fill:#9600e7"
             id="path390" />
          <g
             transform="matrix(1.41,0,0,0.828702,-546.439,191.026)"
             id="g394">
            <path
               d="m 1452.7,1105.87 c 0,-8.88 -4.23,-16.08 -9.45,-16.08 h -81.42 c -5.22,0 -9.45,7.2 -9.45,16.08 v 68.17 c 0,8.87 4.23,16.07 9.45,16.07 h 81.42 c 5.22,0 9.45,-7.2 9.45,-16.07 z"
               style="fill:#a336eb;fill-opacity:1"
               id="path392" />
          </g>
          <path
             d="m 1500.94,1102.59 c -3.42,4.98 -13.19,21.29 -24.76,29.65 -19.63,14.17 -43.64,19.7 -66.4,26.94 -13.05,4.15 -26.19,7.99 -39.3,11.95 -2.09,0.63 -4.21,1.33 -6.36,2.05 2.43,2.52 5.84,4.1 9.61,4.1 h 114.81 c 7.35,0 13.32,-5.97 13.32,-13.33 v -56.49 c 0,-1.72 -0.32,-3.36 -0.92,-4.87 z"
             style="fill:#b047ed"
             id="path396" />
        </g>
        <g
           transform="matrix(0.264963,-0.247425,0.247425,0.264963,1122.9,1043.32)"
           id="g402">
          <circle
             cx="1096.04"
             cy="1304.14"
             r="29.875"
             style="fill:#4e0082;fill-opacity:1;stroke:none"
             id="circle400" />
        </g>
        <g
           transform="matrix(0.871584,0.490245,-0.490245,0.871584,770.786,-707.594)"
           id="g406" />
        <g
           transform="matrix(0.264963,-0.247425,0.247425,0.264963,1154.57,1013.76)"
           id="g410">
          <circle
             cx="1096.04"
             cy="1304.14"
             r="29.875"
             style="fill:#4e0082;fill-opacity:1;stroke:none"
             id="circle408" />
        </g>
        <g
           transform="rotate(50.799584,1767.9104,1088.4337)"
           id="g414" />
        <g
           transform="matrix(0.264963,-0.247425,0.247425,0.264963,1159.55,1034.96)"
           id="g418">
          <circle
             cx="1096.04"
             cy="1304.14"
             r="29.875"
             style="fill:#4e0082;fill-opacity:1;stroke:none"
             id="circle416" />
        </g>
        <g
           transform="matrix(0.758338,0.655368,-0.665546,0.770116,1166.73,-906.714)"
           id="g422" />
        <g
           transform="matrix(0.264963,-0.247425,0.247425,0.264963,1143.72,1049.74)"
           id="g426">
          <circle
             cx="1096.04"
             cy="1304.14"
             r="29.875"
             style="fill:#4e0082;fill-opacity:1;stroke:none"
             id="circle424" />
        </g>
        <g
           transform="rotate(53.337571,1756.8166,1124.0139)"
           id="g430" />
        <g
           transform="matrix(0.264963,-0.247425,0.247425,0.264963,1164.61,1056.25)"
           id="g434">
          <circle
             cx="1096.04"
             cy="1304.14"
             r="29.875"
             style="fill:#4e0082;fill-opacity:1;stroke:none"
             id="circle432" />
        </g>
        <g
           transform="matrix(0.714269,0.699872,-0.699872,0.714269,1299.42,-921.165)"
           id="g440" />
        <g
           transform="matrix(0.264963,-0.247425,0.247425,0.264963,1150.29,1018.52)"
           id="g446">
          <path
             d="m 1047.96,1273.31 v -27.79 c 0,-3.26 2.65,-5.91 5.92,-5.91 3.26,0 5.91,2.65 5.91,5.91 v 27.79 c 13.66,2.74 23.96,14.82 23.96,29.28 0,16.49 -13.39,29.88 -29.87,29.88 -16.49,0 -29.88,-13.39 -29.88,-29.88 0,-14.46 10.3,-26.54 23.96,-29.28 z"
             style="fill:#4e0082;fill-opacity:1;stroke:none"
             id="path444" />
        </g>
      </g>
      <g
         transform="translate(-233.46161,8.834194)"
         id="g502"
         style="clip-rule:evenodd;fill-rule:evenodd;stroke-linecap:round;stroke-linejoin:round;stroke-miterlimit:1.5">
        <g
           id="g500">
          <g
             transform="matrix(0.670147,0,0,0.537534,534.44,304.485)"
             id="g454">
            <path
               d="m 1676.46,779.635 c 16.42,-12.44 32.25,-9.539 45.92,12.009 -11.21,2.174 -20.5,2.039 -28.14,-0.024 -5.63,-1.52 -10.37,-4.087 -14.34,-7.55 l 37.42,57.42 c 1.12,1.723 0.63,4.035 -1.09,5.158 -1.72,1.124 -4.04,0.636 -5.16,-1.088 l -34.35,-52.723 c -1.31,20.457 -5.34,41.13 -11.1,61.942 -0.36,2.026 -2.3,3.375 -4.32,3.012 -2.03,-0.362 -3.38,-2.301 -3.02,-4.327 6.25,-23.331 10.54,-47.057 12.76,-71.195 0.21,-1.188 0.96,-2.143 1.96,-2.657 0.35,-0.183 0.73,-0.305 1.11,-0.366 l 0.6,-0.049 0.09,0.002 c 0.58,0.014 1.15,0.163 1.66,0.436 z"
               style="fill:#ff988d"
               id="path452" />
          </g>
          <g
             transform="translate(233.461,-386.638)"
             id="g470">
            <g
               transform="matrix(1.07169,0,0,1.30439,-462.665,335.101)"
               id="g458">
              <path
                 d="m 1851.87,582.931 c 0,-7.337 -7.25,-13.294 -16.18,-13.294 h -137.15 c -8.94,0 -16.19,5.957 -16.19,13.294 v 61.689 c 0,7.338 7.25,13.295 16.19,13.295 h 137.15 c 8.93,0 16.18,-5.957 16.18,-13.295 z"
                 style="fill:#e11f26;fill-opacity:1"
                 id="path456" />
            </g>
            <path
               d="m 1516.32,1082.67 c 0.79,1.99 1.23,4.16 1.23,6.43 v 80.47 c 0,9.57 -7.77,17.34 -17.34,17.34 h -146.98 c -4.5,0 -8.61,-1.72 -11.69,-4.54 2.56,6.39 8.81,10.91 16.1,10.91 h 146.99 c 9.57,0 17.34,-7.77 17.34,-17.34 v -80.47 c 0,-5.07 -2.18,-9.63 -5.65,-12.8 z"
               style="fill:#ff5a47"
               id="path460" />
            <path
               d="m 1344.22,1186.91 c -0.88,-2.07 -1.36,-4.35 -1.36,-6.74 v -80.47 c 0,-9.57 7.77,-17.34 17.34,-17.34 h 146.98 c 5.41,0 10.25,2.48 13.43,6.37 -2.63,-6.23 -8.8,-10.6 -15.98,-10.6 h -146.99 c -9.57,0 -17.34,7.77 -17.34,17.34 v 80.47 c 0,4.16 1.47,7.98 3.92,10.97 z"
               style="fill:#c80e00"
               id="path462" />
            <g
               transform="matrix(1.41,0,0,0.828702,-546.439,191.026)"
               id="g466">
              <path
                 d="m 1452.7,1105.87 c 0,-8.88 -4.23,-16.08 -9.45,-16.08 h -81.42 c -5.22,0 -9.45,7.2 -9.45,16.08 v 68.17 c 0,8.87 4.23,16.07 9.45,16.07 h 81.42 c 5.22,0 9.45,-7.2 9.45,-16.07 z"
                 style="fill:#e64941;font-variation-settings:normal;opacity:1;vector-effect:none;fill-opacity:1;stroke-width:0.92510548;stroke-linecap:butt;stroke-linejoin:miter;stroke-miterlimit:1.5;stroke-dasharray:none;stroke-dashoffset:0;stroke-opacity:1;-inkscape-stroke:none;stop-color:#000000;stop-opacity:1"
                 id="path464" />
            </g>
            <path
               d="m 1500.94,1102.59 c -3.42,4.98 -13.19,21.29 -24.76,29.65 -19.63,14.17 -43.64,19.7 -66.4,26.94 -13.05,4.15 -26.19,7.99 -39.3,11.95 -2.09,0.63 -4.21,1.33 -6.36,2.05 2.43,2.52 5.84,4.1 9.61,4.1 h 114.81 c 7.35,0 13.32,-5.97 13.32,-13.33 v -56.49 c 0,-1.72 -0.32,-3.36 -0.92,-4.87 z"
               style="fill:#fa524a"
               id="path468" />
          </g>
          <g
             transform="matrix(0.670147,0,0,0.670147,532.464,187.47)"
             id="g474">
            <circle
               cx="1713.21"
               cy="852.91101"
               r="18.759001"
               style="fill:#800d00;fill-opacity:1"
               id="circle472" />
          </g>
          <g
             transform="matrix(0.670147,0,0,0.670147,500.525,194.206)"
             id="g478">
            <circle
               cx="1713.21"
               cy="852.91101"
               r="18.759001"
               style="fill:#800d00;fill-opacity:1"
               id="circle476" />
          </g>
          <g
             transform="matrix(0.670147,0,0,0.537534,535.347,305.826)"
             id="g482">
            <path
               d="m 1676.46,779.635 c 16.42,-12.44 32.25,-9.539 45.92,12.009 -11.21,2.174 -20.5,2.039 -28.14,-0.024 -5.63,-1.52 -10.37,-4.087 -14.34,-7.55 l 37.42,57.42 c 1.12,1.723 0.63,4.035 -1.09,5.158 -1.72,1.124 -4.04,0.636 -5.16,-1.088 l -34.35,-52.723 c -1.31,20.457 -5.34,41.13 -11.1,61.942 -0.36,2.026 -2.3,3.375 -4.32,3.012 -2.03,-0.362 -3.38,-2.301 -3.02,-4.327 6.25,-23.331 10.54,-47.057 12.76,-71.195 0.21,-1.188 0.96,-2.143 1.96,-2.657 0.35,-0.183 0.73,-0.305 1.11,-0.366 l 0.6,-0.049 0.09,0.002 c 0.58,0.014 1.15,0.163 1.66,0.436 z"
               style="fill:#800d00;fill-opacity:1"
               id="path480" />
          </g>
          <g
             transform="translate(234.031,-9.32422)"
             id="g486" />
          <g
             transform="translate(233.496,0.98395)"
             id="g490" />
          <g
             transform="translate(233.496,0.98395)"
             id="g494" />
          <g
             transform="translate(233.496,0.98395)"
             id="g498" />
        </g>
      </g>
      <g
         transform="translate(271.85739,34.152592)"
         id="g536"
         style="clip-rule:evenodd;fill-rule:evenodd;stroke-linecap:round;stroke-linejoin:round;stroke-miterlimit:1.5">
        <g
           transform="translate(-271.858,-537.891)"
           id="g518">
          <g
             transform="matrix(1.07169,0,0,1.30439,-462.665,335.101)"
             id="g506">
            <path
               d="m 1851.87,582.931 c 0,-7.337 -7.25,-13.294 -16.18,-13.294 h -137.15 c -8.94,0 -16.19,5.957 -16.19,13.294 v 61.689 c 0,7.338 7.25,13.295 16.19,13.295 h 137.15 c 8.93,0 16.18,-5.957 16.18,-13.295 z"
               style="fill:#129e0a"
               id="path504" />
          </g>
          <path
             d="m 1516.32,1082.67 c 0.79,1.99 1.23,4.16 1.23,6.43 v 80.47 c 0,9.57 -7.77,17.34 -17.34,17.34 h -146.98 c -4.5,0 -8.61,-1.72 -11.69,-4.54 2.56,6.39 8.81,10.91 16.1,10.91 h 146.99 c 9.57,0 17.34,-7.77 17.34,-17.34 v -80.47 c 0,-5.07 -2.18,-9.63 -5.65,-12.8 z"
             style="fill:#2ece25"
             id="path508" />
          <path
             d="m 1344.22,1186.91 c -0.88,-2.07 -1.36,-4.35 -1.36,-6.74 v -80.47 c 0,-9.57 7.77,-17.34 17.34,-17.34 h 146.98 c 5.41,0 10.25,2.48 13.43,6.37 -2.63,-6.23 -8.8,-10.6 -15.98,-10.6 h -146.99 c -9.57,0 -17.34,7.77 -17.34,17.34 v 80.47 c 0,4.16 1.47,7.98 3.92,10.97 z"
             style="fill:#198515"
             id="path510" />
          <g
             transform="matrix(1.41,0,0,0.828702,-546.439,191.026)"
             id="g514">
            <path
               d="m 1452.7,1105.87 c 0,-8.88 -4.23,-16.08 -9.45,-16.08 h -81.42 c -5.22,0 -9.45,7.2 -9.45,16.08 v 68.17 c 0,8.87 4.23,16.07 9.45,16.07 h 81.42 c 5.22,0 9.45,-7.2 9.45,-16.07 z"
               style="fill:#40c239"
               id="path512" />
          </g>
          <path
             d="m 1500.94,1102.59 c -3.42,4.98 -13.19,21.29 -24.76,29.65 -19.63,14.17 -43.64,19.7 -66.4,26.94 -13.05,4.15 -26.19,7.99 -39.3,11.95 -2.09,0.63 -4.21,1.33 -6.36,2.05 2.43,2.52 5.84,4.1 9.61,4.1 h 114.81 c 7.35,0 13.32,-5.97 13.32,-13.33 v -56.49 c 0,-1.72 -0.32,-3.36 -0.92,-4.87 z"
             style="fill:#62de5b"
             id="path516" />
        </g>
        <g
           transform="matrix(0.739762,0,0,0.739762,860.29,-103.672)"
           id="g522"
           style="fill:#056500;fill-opacity:1">
          <path
             d="m 397.371,913.999 v -9.488 c 0,-1.792 1.455,-3.247 3.247,-3.247 0.572,0 1.11,0.148 1.577,0.409 0.995,0.555 1.669,1.618 1.669,2.838 v 9.339 c 3.114,0.567 6.082,2.034 8.363,4.316 5.415,5.414 -0.071,21.87 6.146,27.888 24.724,23.933 12.507,41.851 -6.562,47.681 -8.92,2.728 -13.762,1.21 -21.39,-0.079 -5.548,-0.938 -20.493,-20.371 -11.514,-33.825 2.833,-4.243 9.501,-19.856 9.241,-23.757 -0.297,-4.442 -1.667,-11.491 -0.129,-14.611 2.033,-4.124 5.51,-6.555 9.352,-7.464 z"
             style="fill:#056500;fill-opacity:1"
             id="path520" />
        </g>
      </g>
      <g
         id="g1471"
         transform="translate(71.630989,-148.26091)"
         style="clip-rule:evenodd;fill-rule:evenodd;stroke-linecap:round;stroke-linejoin:round;stroke-miterlimit:1.5">
        <g
           transform="translate(-71.6316,148.261)"
           id="g352">
          <g
             transform="matrix(1.07169,0,0,1.30439,-462.665,335.101)"
             id="g340">
            <path
               d="m 1851.87,582.931 c 0,-7.337 -7.25,-13.294 -16.18,-13.294 h -137.15 c -8.94,0 -16.19,5.957 -16.19,13.294 v 61.689 c 0,7.338 7.25,13.295 16.19,13.295 h 137.15 c 8.93,0 16.18,-5.957 16.18,-13.295 z"
               style="fill:#ff8800"
               id="path338" />
          </g>
          <path
             d="m 1516.32,1082.67 c 0.79,1.99 1.23,4.16 1.23,6.43 v 80.47 c 0,9.57 -7.77,17.34 -17.34,17.34 h -146.98 c -4.5,0 -8.61,-1.72 -11.69,-4.54 2.56,6.39 8.81,10.91 16.1,10.91 h 146.99 c 9.57,0 17.34,-7.77 17.34,-17.34 v -80.47 c 0,-5.07 -2.18,-9.63 -5.65,-12.8 z"
             style="fill:#ff941b"
             id="path342" />
          <path
             d="m 1344.22,1186.91 c -0.88,-2.07 -1.36,-4.35 -1.36,-6.74 v -80.47 c 0,-9.57 7.77,-17.34 17.34,-17.34 h 146.98 c 5.41,0 10.25,2.48 13.43,6.37 -2.63,-6.23 -8.8,-10.6 -15.98,-10.6 h -146.99 c -9.57,0 -17.34,7.77 -17.34,17.34 v 80.47 c 0,4.16 1.47,7.98 3.92,10.97 z"
             style="fill:#da7400;fill-opacity:1"
             id="path344" />
          <g
             transform="matrix(1.41,0,0,0.828702,-546.439,191.026)"
             id="g348">
            <path
               d="m 1452.7,1105.87 c 0,-8.88 -4.23,-16.08 -9.45,-16.08 h -81.42 c -5.22,0 -9.45,7.2 -9.45,16.08 v 68.17 c 0,8.87 4.23,16.07 9.45,16.07 h 81.42 c 5.22,0 9.45,-7.2 9.45,-16.07 z"
               style="fill:#f09936;font-variation-settings:normal;opacity:1;vector-effect:none;fill-opacity:1;stroke-width:0.92510548;stroke-linecap:butt;stroke-linejoin:miter;stroke-miterlimit:1.5;stroke-dasharray:none;stroke-dashoffset:0;stroke-opacity:1;-inkscape-stroke:none;stop-color:#000000;stop-opacity:1"
               id="path346" />
          </g>
          <path
             d="m 1500.94,1102.59 c -3.42,4.98 -13.19,21.29 -24.76,29.65 -19.63,14.17 -43.64,19.7 -66.4,26.94 -13.05,4.15 -26.19,7.99 -39.3,11.95 -2.09,0.63 -4.21,1.33 -6.36,2.05 2.43,2.52 5.84,4.1 9.61,4.1 h 114.81 c 7.35,0 13.32,-5.97 13.32,-13.33 v -56.49 c 0,-1.72 -0.32,-3.36 -0.92,-4.87 z"
             style="fill:#ffa948;fill-opacity:1"
             id="path350" />
        </g>
        <g
           transform="matrix(0.492181,0,0,0.492181,903.739,621.999)"
           id="g608"
           style="fill:#8a4a00;fill-opacity:1">
          <path
             d="m 926.675,1310.56 h 0.029 c 0.103,0 0.207,0 0.313,0 v -17.8 c 0,-3.09 2.516,-5.61 5.614,-5.61 3.098,0 5.613,2.52 5.613,5.61 v 19.08 c 23.225,5.26 40.59,26.04 40.59,50.85 0,28.77 -23.359,52.13 -52.13,52.13 -28.772,0 -52.13,-23.36 -52.13,-52.13 0,-23.53 15.622,-43.44 37.048,-49.91 -4.15,0 -7.977,-0.35 -11.478,-1.05 -16.042,-3.24 -25.226,-14.02 -26.952,-32.99 l 0.104,-0.52 c 27.562,-9.23 44.968,2.34 53.408,32.28 z"
             style="fill:#8a4a00;fill-opacity:1"
             id="path606" />
        </g>
        <g
           transform="translate(-71.6316,148.261)"
           id="g620" />
      </g>
    </g>
  </g>
</svg>
