<?xml version="1.0" encoding="UTF-8" standalone="no"?>
<!-- Created with Inkscape (http://www.inkscape.org/) -->

<svg
   width="144.9953mm"
   height="193.02509mm"
   viewBox="0 0 144.9953 193.02509"
   version="1.1"
   id="svg2737"
   sodipodi:docname="2022-KR-06-taskbodyH.svg"
   inkscape:version="1.1.1 (3bf5ae0d25, 2021-09-20)"
   xmlns:inkscape="http://www.inkscape.org/namespaces/inkscape"
   xmlns:sodipodi="http://sodipodi.sourceforge.net/DTD/sodipodi-0.dtd"
   xmlns="http://www.w3.org/2000/svg"
   xmlns:svg="http://www.w3.org/2000/svg">
  <sodipodi:namedview
     id="namedview2739"
     pagecolor="#ffffff"
     bordercolor="#666666"
     borderopacity="1.0"
     inkscape:pageshadow="2"
     inkscape:pageopacity="0.0"
     inkscape:pagecheckerboard="0"
     inkscape:document-units="mm"
     showgrid="false"
     inkscape:zoom="0.16592137"
     inkscape:cx="-678.03202"
     inkscape:cy="1521.8052"
     inkscape:window-width="1920"
     inkscape:window-height="1137"
     inkscape:window-x="-8"
     inkscape:window-y="-8"
     inkscape:window-maximized="1"
     inkscape:current-layer="layer1" />
  <defs
     id="defs2734" />
  <g
     inkscape:label="Ebene 1"
     inkscape:groupmode="layer"
     id="layer1"
     transform="translate(-32.502346,-51.987456)">
    <g
       id="g4743"
       transform="translate(-477.7464,93.468632)">
      <path
         d="m 559.68859,113.74749 c -0.34038,-10.21934 -4.00923,-21.94581 -11.39777,-30.10886 -4.73644,-5.23457 -10.78299,-10.39562 -14.2661,-16.3644 -4.04508,-6.93031 -2.35476,-14.89687 6.93066,-17.03602 10.07613,-2.32005 21.00564,4.5739 24.69724,12.66055 5.15564,11.29107 3.19288,25.35386 2.54788,37.10895 -0.11954,2.17741 -2.30359,12.72765 -3.96668,14.44752 -0.9534,0.98581 -4.51586,0.15388 -4.54523,-0.70774 z"
         style="clip-rule:evenodd;fill:#652a15;fill-rule:evenodd;stroke:#000000;stroke-width:3.00064px;stroke-linecap:round;stroke-linejoin:round;stroke-miterlimit:4"
         id="path2594" />
      <path
         d="m 553.12399,87.87521 c 4.56523,-1.6855 7.88826,-5.89793 12.40708,-7.5684"
         style="clip-rule:evenodd;fill:none;fill-rule:evenodd;stroke:#000000;stroke-width:2.47512px;stroke-linecap:round;stroke-linejoin:round;stroke-miterlimit:4"
         id="path2597" />
      <path
         d="m 547.27977,78.69378 c 0.32739,-5.96649 8.25912,-11.09388 13.81109,-13.9073"
         style="clip-rule:evenodd;fill:none;fill-rule:evenodd;stroke:#000000;stroke-width:3.44144px;stroke-linecap:round;stroke-linejoin:round;stroke-miterlimit:4"
         id="path2600" />
      <path
         d="m 536.83185,69.87146 c 0.23003,-4.19257 8.20674,-12.43383 12.40525,-13.9844"
         style="clip-rule:evenodd;fill:none;fill-rule:evenodd;stroke:#000000;stroke-width:3.25496px;stroke-linecap:round;stroke-linejoin:round;stroke-miterlimit:4"
         id="path2603" />
      <path
         d="m 533.56525,58.69331 c 10.07716,0.55296 20.18802,1.95482 29.26747,6.49544"
         style="clip-rule:evenodd;fill:none;fill-rule:evenodd;stroke:#000000;stroke-width:3.00064px;stroke-linecap:round;stroke-linejoin:round;stroke-miterlimit:4"
         id="path2606" />
      <path
         d="m 538.55518,70.5776 c 6.26349,0.34356 22.26993,4.53739 26.33888,8.47262"
         style="clip-rule:evenodd;fill:none;fill-rule:evenodd;stroke:#000000;stroke-width:3.40752px;stroke-linecap:round;stroke-linejoin:round;stroke-miterlimit:4"
         id="path2609" />
      <path
         d="m 549.84252,83.41728 c 5.04926,2.52584 11.52514,6.44461 14.56685,10.88305"
         style="clip-rule:evenodd;fill:none;fill-rule:evenodd;stroke:#000000;stroke-width:3.08541px;stroke-linecap:round;stroke-linejoin:round;stroke-miterlimit:4"
         id="path2612" />
      <path
         d="m 587.14853,105.74782 c -0.30779,0.0322 -0.69969,-0.60844 -0.86431,-0.34539 -0.57801,0.92337 0.093,4.07286 0,5.18948 -0.28991,3.46623 -0.79095,6.90918 -1.03791,10.37897 -0.37222,5.20203 -0.17714,10.39866 -1.03788,15.56846 -0.15748,0.95379 -1.5676,5.78003 -1.03791,6.57455 0.21654,0.3239 9.51823,0.53327 10.37897,0.69075 10.98561,1.99705 21.70099,8.32821 32.86734,5.53664 1.14347,-0.28633 2.43189,-0.21476 3.46085,-1.03971 0.96631,-0.77306 1.74652,-3.05641 2.07579,-4.14977 2.27981,-7.60352 -5.11791,-12.83058 -11.76404,-13.49447 -6.15222,-0.61378 -12.32413,0.22728 -18.33676,1.73043 -3.05284,0.76412 -5.68875,1.83063 -8.65034,2.42295 -0.25053,0.0501 -0.54758,0.55832 -0.69075,0.34536 -0.86608,-1.29916 -0.12705,-5.04275 -0.34536,-6.57275 -0.73009,-5.11432 0.0322,-10.88538 1.03791,-15.91562 0.33642,-1.68568 1.40832,-4.78327 0.69252,-6.57275 -0.62275,-1.55503 -5.55813,-0.46524 -6.74812,-0.34713 z"
         style="clip-rule:evenodd;fill:#a36c3d;fill-rule:evenodd;stroke:#000000;stroke-width:2.97053px;stroke-linecap:round;stroke-linejoin:round;stroke-miterlimit:4"
         id="path2617" />
      <path
         d="m 572.2726,105.67659 c 4.13369,2.2279 1.90402,12.2436 1.90402,16.60634 0,5.41139 1.03788,10.76192 1.03788,16.261 0,0.70863 0.19865,4.05138 -0.69252,4.49693 -0.77843,0.39013 -2.92222,0.22191 -3.80622,0.34716 -3.52885,0.50287 -6.8358,1.33496 -10.37896,1.73043 -8.13856,0.90369 -18.21868,3.78653 -25.25671,-2.07579 -4.08715,-3.40894 -7.3279,-14.29792 -0.69072,-16.95352 6.154,-2.46232 16.36655,0.98423 22.14298,3.45909 0.8178,0.3525 9.67751,4.15874 9.68645,4.15337 0.58338,-0.39013 0.34716,-8.28349 0.34716,-9.34286 0,-4.84412 0.66926,-9.41803 -0.69252,-14.18521 -0.25233,-0.87683 -1.48349,-3.39463 -0.34716,-4.15158 1.14348,-0.76232 5.40779,-1.06831 6.74632,-0.34536 z"
         style="clip-rule:evenodd;fill:#a36c3d;fill-rule:evenodd;stroke:#000000;stroke-width:2.97053px;stroke-linecap:round;stroke-linejoin:round;stroke-miterlimit:4"
         id="path2620" />
      <path
         d="m 538.85729,131.50966 c 0.89524,-3.04014 4.42462,-4.82872 7.12377,-4.03402"
         style="clip-rule:evenodd;fill:none;fill-rule:evenodd;stroke:#000000;stroke-width:3.04803px;stroke-linecap:round;stroke-linejoin:round;stroke-miterlimit:4"
         id="path2623" />
      <path
         d="m 628.92926,146.62644 c 1.65706,-3.31409 -4.47011,-5.86769 -6.57456,-6.91991"
         style="clip-rule:evenodd;fill:#f1c94c;fill-opacity:0.01;fill-rule:evenodd;stroke:#000000;stroke-width:4.02632px;stroke-linecap:round;stroke-linejoin:round;stroke-miterlimit:4"
         id="path2626" />
      <path
         d="m 591.44865,63.32932 c 0.0537,-1.83423 15.22309,6.01442 18.35824,7.71085 7.34582,3.97621 9.4896,1.27948 17.06626,0.33462 0.918,-0.11451 2.80591,1.47632 2.54643,2.49097 -0.52969,2.05968 -4.55602,2.88822 -3.98698,4.79579 0.19148,0.64601 1.05759,0.84643 1.48707,1.36181 2.35317,2.82736 6.04842,9.37506 5.37379,13.20096 -0.51893,2.94727 -4.11938,0.136 -5.1358,-0.27556 -5.00515,-2.03108 -4.89958,-7.16331 -8.75948,-10.02647 -5.81938,-4.31443 -14.64151,-4.86201 -20.85994,-8.22801 -1.50495,-0.816 -3.37854,-0.69609 -4.86738,-1.8002 -3.09758,-2.29592 -1.32064,-6.23096 -1.22221,-9.56476 z"
         style="clip-rule:evenodd;fill:#a36c3d;fill-rule:evenodd;stroke:#000000;stroke-width:2.97053px;stroke-linecap:round;stroke-linejoin:round;stroke-miterlimit:4"
         id="path2629" />
      <path
         d="m 570.58334,65.76478 c -2.86139,-1.38324 -5.18054,0.66929 -8.12959,1.03611 -4.37171,0.54758 -8.76665,0.89834 -13.1473,1.38506 -3.15127,0.35074 -6.03054,1.72863 -9.34106,1.72863 -1.7716,0 -9.59877,-0.3919 -10.03361,0.69255 -2.02748,5.07137 6.12359,3.9959 7.61243,6.22737 0.40622,0.612 -0.41336,1.1059 -0.69252,1.38506 -1.1399,1.13988 -8.12424,10.25012 -4.84412,11.06969 5.51696,1.3797 13.00414,-9.53074 17.29888,-12.1076 4.94075,-2.96515 10.49171,-2.90253 15.91561,-3.80621 1.74654,-0.29168 4.69022,0.76949 6.22739,0 2.24936,-1.12559 0.72295,-6.84297 -0.86611,-7.61066 z"
         style="clip-rule:evenodd;fill:#a36c3d;fill-rule:evenodd;stroke:#000000;stroke-width:2.97053px;stroke-linecap:round;stroke-linejoin:round;stroke-miterlimit:4"
         id="path2632" />
      <path
         d="m 595.3676,61.35552 c 0.94486,-0.35433 1.39938,3.6398 1.55684,4.67233 0.79991,5.19486 1.67497,10.33423 2.07758,15.56846 1.39401,18.12739 5.85161,36.09554 -16.26097,42.89914 -16.49719,5.07675 -29.43333,-9.76162 -28.02321,-25.2549 0.782,-8.60917 6.41704,-15.38415 9.34106,-23.18089 1.05222,-2.8077 3.28549,-12.97371 5.18949,-14.87593 2.0239,-2.0257 6.29359,-0.73906 8.64854,-0.34716 3.68276,0.61378 14.15655,1.768 17.47067,0.51895 z"
         style="clip-rule:evenodd;fill:#a36c3d;fill-rule:evenodd;stroke:#000000;stroke-width:2.97053px;stroke-linecap:round;stroke-linejoin:round;stroke-miterlimit:4"
         id="path2635" />
      <path
         d="M 565.38555,9.95778 C 563.38358,7.42479 561.18449,7.37574 558.17007,7.05204"
         style="clip-rule:evenodd;fill:#e6b728;fill-rule:evenodd;stroke:#000000;stroke-width:2.85663px;stroke-linecap:round;stroke-linejoin:round;stroke-miterlimit:4"
         id="path2644" />
      <path
         d="m 618.75481,20.67353 c 3.19267,-1.21864 3.63246,-2.38196 7.32208,-1.98577"
         style="clip-rule:evenodd;fill:none;fill-rule:evenodd;stroke:#000000;stroke-width:2.85663px;stroke-linecap:round;stroke-linejoin:round;stroke-miterlimit:4"
         id="path2647" />
      <path
         d="m 601.07353,34.43946 c -1.90244,-2.91811 -13.52026,-3.93991 -13.22211,1.45788 0.53753,9.74138 16.44007,3.47213 13.22211,-1.45788 z"
         style="clip-rule:evenodd;fill:#070400;fill-rule:evenodd;stroke:#000000;stroke-width:2.85663px;stroke-linecap:round;stroke-linejoin:round;stroke-miterlimit:4"
         id="path2650" />
      <path
         d="m 600.94833,31.29444 c 0.92646,0.10022 -0.96581,-0.21582 -1.21566,-0.28006 -1.33911,-0.34356 -2.63885,-0.58246 -4.02667,-0.73152 -3.29951,-0.35415 -9.51653,-1.15708 -7.96271,4.52503 0.92715,3.39106 5.94378,6.90526 9.42763,5.04759 1.89281,-1.00854 4.28369,-3.62942 4.86836,-5.75334 0.20079,-0.72744 0.4567,-2.25099 -0.45418,-2.58974 -0.0583,-0.0214 -1.30691,-0.2899 -0.63677,-0.21796 z"
         style="clip-rule:evenodd;fill-rule:evenodd;stroke:#000000;stroke-width:2.85663px;stroke-linecap:round;stroke-linejoin:round;stroke-miterlimit:4"
         id="path2653" />
      <path
         d="m 635.90605,33.73009 c -3.94425,0.15033 -16.79583,4.70617 -18.40391,8.28135"
         style="clip-rule:evenodd;fill:none;fill-rule:evenodd;stroke:#000000;stroke-width:2.85663px;stroke-linecap:round;stroke-linejoin:round;stroke-miterlimit:4"
         id="path2656" />
      <path
         d="M 564.27284,34.02071 C 562.37525,30.15043 548.94492,23.1466 544.59573,23.79366"
         style="clip-rule:evenodd;fill:none;fill-rule:evenodd;stroke:#000000;stroke-width:2.85663px;stroke-linecap:round;stroke-linejoin:round;stroke-miterlimit:4"
         id="path2659" />
      <path
         d="m 619.6287,49.81535 c 2.77543,-1.73776 7.13052,-0.17894 9.62689,1.3661 0.58701,0.36343 3.50661,3.11369 3.18858,3.14267"
         style="clip-rule:evenodd;fill:none;fill-rule:evenodd;stroke:#000000;stroke-width:2.85663px;stroke-linecap:round;stroke-linejoin:round;stroke-miterlimit:4"
         id="path2662" />
      <path
         d="m 562.51175,41.25896 c 1.20737,0.31031 -2.69052,-1.43229 -2.92828,-1.5146 -1.30206,-0.4531 -2.32383,-0.74838 -3.63736,-1.08281 -5.47616,-1.40152 -9.8834,-1.00319 -15.10231,0.88866"
         style="clip-rule:evenodd;fill:none;fill-rule:evenodd;stroke:#000000;stroke-width:2.85663px;stroke-linecap:round;stroke-linejoin:round;stroke-miterlimit:4"
         id="path2665" />
      <path
         d="m 598.69389,50.21672 c 1.41901,0.80492 -2.76524,7.71623 -4.09194,8.80658 -0.79965,0.65672 -8.1751,0.0251 -9.05401,-0.7208 -0.73973,-0.62757 -0.20866,-9.08947 0.36438,-9.14387 1.6243,-0.15391 12.03944,0.63685 12.78157,1.05809 z"
         style="clip-rule:evenodd;fill:#fafaf9;fill-rule:evenodd;stroke:#000000;stroke-width:2.8553px;stroke-linecap:round;stroke-linejoin:round;stroke-miterlimit:4"
         id="path2668" />
      <path
         d="m 592.35119,50.10131 c -0.2186,2.03608 -0.874,6.33923 -1.97956,8.09041"
         style="clip-rule:evenodd;fill:#fafaf9;fill-rule:evenodd;stroke:#000000;stroke-width:2.8553px;stroke-linecap:round;stroke-linejoin:round;stroke-miterlimit:4"
         id="path2671" />
      <path
         d="m 613.17694,26.92186 c 0.1242,-1.15745 -0.72024,-2.19695 -1.88552,-2.32204 -1.16525,-0.12525 -2.21118,0.71152 -2.33543,1.86875 -0.12438,1.15851 0.72025,2.19694 1.8855,2.32204 1.16525,0.12525 2.21105,-0.71025 2.33545,-1.86875 z"
         style="clip-rule:evenodd;fill-rule:evenodd;stroke:#000000;stroke-width:2.85663px;stroke-linecap:round;stroke-linejoin:round;stroke-miterlimit:4"
         id="path2680" />
      <path
         d="m 575.02061,23.22729 c 0.12759,-1.18909 -0.76284,-2.25938 -1.99061,-2.39127 -1.22778,-0.13243 -2.32646,0.72493 -2.45415,1.91402 -0.12758,1.18787 0.76425,2.25832 1.99202,2.39022 1.22778,0.13242 2.32522,-0.72509 2.45274,-1.91297 z"
         style="clip-rule:evenodd;fill:#080500;fill-rule:evenodd;stroke:#000000;stroke-width:2.85663px;stroke-linecap:round;stroke-linejoin:round;stroke-miterlimit:4"
         id="path2683" />
      <path
         d="m 569.56689,9.53135 c -1.5435,4.26934 -5.82025,9.01234 -9.95884,10.97238 -5.69597,2.69531 -6.93518,-12.4664 -5.62798,-15.73615 3.10277,-7.76722 17.97797,-1.85246 15.58682,4.76377 z"
         style="font-variation-settings:normal;clip-rule:evenodd;vector-effect:none;fill:#a36c3d;fill-opacity:1;fill-rule:evenodd;stroke:#000000;stroke-width:2.85663px;stroke-linecap:butt;stroke-linejoin:miter;stroke-miterlimit:4;stroke-dasharray:none;stroke-dashoffset:0;stroke-opacity:1;-inkscape-stroke:none;stop-color:#000000"
         id="path2692" />
      <path
         d="m 615.06258,16.12056 c -1.24521,-0.77055 8.9509,-6.02552 11.04738,-5.52696 5.48018,1.30506 5.1367,6.67152 4.65529,11.15541 -0.18584,1.73077 -0.78607,3.58736 -1.98958,4.9021 -6.45441,7.05019 -11.64024,-9.24695 -13.71309,-10.53055 z"
         style="font-variation-settings:normal;clip-rule:evenodd;vector-effect:none;fill:#a36c3d;fill-opacity:1;fill-rule:evenodd;stroke:#000000;stroke-width:2.85663px;stroke-linecap:butt;stroke-linejoin:miter;stroke-miterlimit:4;stroke-dasharray:none;stroke-dashoffset:0;stroke-opacity:1;-inkscape-stroke:none;stop-color:#000000"
         id="path2695" />
      <path
         d="M 565.38555,9.95778 C 563.38358,7.42479 561.18449,7.37574 558.17007,7.05204"
         style="clip-rule:evenodd;fill:#e6b728;fill-rule:evenodd;stroke:#000000;stroke-width:2.85663px;stroke-linecap:round;stroke-linejoin:round;stroke-miterlimit:4"
         id="path2698" />
      <path
         d="m 618.75481,20.67353 c 3.19267,-1.21864 3.63246,-2.38196 7.32208,-1.98577"
         style="clip-rule:evenodd;fill:none;fill-rule:evenodd;stroke:#000000;stroke-width:2.85663px;stroke-linecap:round;stroke-linejoin:round;stroke-miterlimit:4"
         id="path2701" />
      <path
         d="m 601.07353,34.43946 c -1.90244,-2.91811 -13.52026,-3.93991 -13.22211,1.45788 0.53753,9.74138 16.44007,3.47213 13.22211,-1.45788 z"
         style="clip-rule:evenodd;fill:#070400;fill-rule:evenodd;stroke:#000000;stroke-width:2.85663px;stroke-linecap:round;stroke-linejoin:round;stroke-miterlimit:4"
         id="path2704" />
      <path
         d="m 591.25976,-13.65758 c 3.23972,-1.5744 6.71388,10.91115 5.43375,14.22365 -0.0369,0.0948 0.19217,0.0591 0.28792,0.0859 0.45804,-0.19077 12.66661,-7.95745 13.64228,-7.22106 0.32417,0.24371 -8.73043,8.47156 -5.41258,10.73988 0.31565,0.21691 6.85123,-3.61957 7.2263,-3.41431 0.97232,0.62666 -4.30191,5.34231 -3.44852,6.03985 0.74631,0.61146 5.41657,-1.18858 6.2018,-0.37454 0.6944,0.71795 -2.49793,4.03027 -1.79181,4.88598 10.06057,12.19227 20.61488,37.38399 8.29466,47.56896 -6.63958,5.48852 -26.10919,6.12093 -33.73935,5.07479 -8.32823,-1.14025 -34.89983,-1.94982 -39.63913,-24.46734 -2.50399,-11.89789 11.52676,-29.404 20.53384,-34.44476 1.15459,-0.64709 4.2958,-0.33803 4.01912,-2.07222 -2.16087,-13.57444 3.47279,-1.48365 5.54858,-2.08851 3.14878,-2.42348 4.17116,-5.38469 3.91483,-6.46036 -0.018,-0.0734 -0.6123,-1.49421 -0.23646,-1.57885 1.24823,-0.28239 2.632,0.88202 3.97915,2.25796 1.48415,1.51299 2.92642,3.29872 4.1193,3.74393 1.62689,0.60791 -0.42596,-12.05248 0.30276,-12.44348 0.27503,-0.14674 0.51742,-0.15389 0.76356,-0.0555 z"
         style="clip-rule:evenodd;fill:#a36c3d;fill-rule:evenodd;stroke:#000000;stroke-width:2.85663px;stroke-linecap:round;stroke-linejoin:round;stroke-miterlimit:4"
         id="path2707" />
      <path
         d="m 600.94833,31.29444 c 0.92646,0.10022 -0.96581,-0.21582 -1.21566,-0.28006 -1.33911,-0.34356 -2.63885,-0.58246 -4.02667,-0.73152 -3.29951,-0.35415 -9.51653,-1.15708 -7.96271,4.52503 0.92715,3.39106 5.94378,6.90526 9.42763,5.04759 1.89281,-1.00854 4.28369,-3.62942 4.86836,-5.75334 0.20079,-0.72744 0.4567,-2.25099 -0.45418,-2.58974 -0.0583,-0.0214 -1.30691,-0.2899 -0.63677,-0.21796 z"
         style="clip-rule:evenodd;fill-rule:evenodd;stroke:#000000;stroke-width:2.85663px;stroke-linecap:round;stroke-linejoin:round;stroke-miterlimit:4"
         id="path2710" />
      <path
         d="m 635.90605,33.73009 c -3.94425,0.15033 -16.79583,4.70617 -18.40391,8.28135"
         style="clip-rule:evenodd;fill:none;fill-rule:evenodd;stroke:#000000;stroke-width:2.85663px;stroke-linecap:round;stroke-linejoin:round;stroke-miterlimit:4"
         id="path2713" />
      <path
         d="M 564.27284,34.02071 C 562.37525,30.15043 548.94492,23.1466 544.59573,23.79366"
         style="clip-rule:evenodd;fill:none;fill-rule:evenodd;stroke:#000000;stroke-width:2.85663px;stroke-linecap:round;stroke-linejoin:round;stroke-miterlimit:4"
         id="path2716" />
      <path
         d="m 619.6287,49.81535 c 2.77543,-1.73776 7.13052,-0.17894 9.62689,1.3661 0.58701,0.36343 3.50661,3.11369 3.18858,3.14267"
         style="clip-rule:evenodd;fill:none;fill-rule:evenodd;stroke:#000000;stroke-width:2.85663px;stroke-linecap:round;stroke-linejoin:round;stroke-miterlimit:4"
         id="path2719" />
      <path
         d="m 562.51175,41.25896 c 1.20737,0.31031 -2.69052,-1.43229 -2.92828,-1.5146 -1.30206,-0.4531 -2.32383,-0.74838 -3.63736,-1.08281 -5.47616,-1.40152 -9.8834,-1.00319 -15.10231,0.88866"
         style="clip-rule:evenodd;fill:none;fill-rule:evenodd;stroke:#000000;stroke-width:2.85663px;stroke-linecap:round;stroke-linejoin:round;stroke-miterlimit:4"
         id="path2722" />
      <path
         d="m 598.69389,50.21672 c 1.41901,0.80492 -2.76524,7.71623 -4.09194,8.80658 -0.79965,0.65672 -8.1751,0.0251 -9.05401,-0.7208 -0.73973,-0.62757 -0.20866,-9.08947 0.36438,-9.14387 1.6243,-0.15391 12.03944,0.63685 12.78157,1.05809 z"
         style="clip-rule:evenodd;fill:#fafaf9;fill-rule:evenodd;stroke:#000000;stroke-width:2.8553px;stroke-linecap:round;stroke-linejoin:round;stroke-miterlimit:4"
         id="path2725" />
      <path
         d="m 592.35119,50.10131 c -0.2186,2.03608 -0.874,6.33923 -1.97956,8.09041"
         style="clip-rule:evenodd;fill:#fafaf9;fill-rule:evenodd;stroke:#000000;stroke-width:2.8553px;stroke-linecap:round;stroke-linejoin:round;stroke-miterlimit:4"
         id="path2728" />
      <path
         d="m 605.19671,46.53436 c -3.08353,3.00543 -6.87554,4.3878 -12.82858,3.82339 -4.63971,-0.44003 -9.01658,-1.72614 -12.49387,-5.86664"
         style="clip-rule:evenodd;fill:none;fill-rule:evenodd;stroke:#000000;stroke-width:2.85663px;stroke-linecap:round;stroke-linejoin:round;stroke-miterlimit:4"
         id="path2731" />
      <path
         d="m 613.17694,26.92186 c 0.1242,-1.15745 -0.72024,-2.19695 -1.88552,-2.32204 -1.16525,-0.12525 -2.21118,0.71152 -2.33543,1.86875 -0.12438,1.15851 0.72025,2.19694 1.8855,2.32204 1.16525,0.12525 2.21105,-0.71025 2.33545,-1.86875 z"
         style="clip-rule:evenodd;fill-rule:evenodd;stroke:#000000;stroke-width:2.85663px;stroke-linecap:round;stroke-linejoin:round;stroke-miterlimit:4"
         id="path2737" />
      <path
         d="m 575.02061,23.22729 c 0.12759,-1.18909 -0.76284,-2.25938 -1.99061,-2.39127 -1.22778,-0.13243 -2.32646,0.72493 -2.45415,1.91402 -0.12758,1.18787 0.76425,2.25832 1.99202,2.39022 1.22778,0.13242 2.32522,-0.72509 2.45274,-1.91297 z"
         style="clip-rule:evenodd;fill:#080500;fill-rule:evenodd;stroke:#000000;stroke-width:2.85663px;stroke-linecap:round;stroke-linejoin:round;stroke-miterlimit:4"
         id="path2740" />
      <path
         d="m 566.25526,62.4505 c 0.33761,0 4.56195,-0.41068 4.49043,-0.0805 -0.53216,2.47629 6.15553,9.51019 12.61581,8.77777 8.86068,-1.00283 10.06806,-7.42313 10.86913,-7.42313 h 17.61408 c 0.81542,0 5.27294,-0.72242 5.64489,-0.226 0.35904,0.47921 -0.0287,13.80455 -0.45064,14.22669 -1.6923,1.69233 -7.44733,0.18164 -9.48439,-0.22457 -0.33043,-0.068 -0.7539,-0.75391 -0.9041,-0.4522 -0.10594,0.2133 0.12006,0.46508 0.22603,0.67677 1.3118,2.62499 6.78072,33.64453 5.76646,36.05782 -4.03407,9.60752 -62.77012,9.18966 -60.96336,1.02428 0.19455,-0.87971 0.36478,-2.5278 0.45207,-3.38749 0.71382,-7.14555 7.79492,-29.37158 6.87081,-30.7577 -0.36907,-0.5551 -7.61757,2.68636 -8.35571,1.58064 -0.96705,-1.45198 -3.89535,-18.25357 -3.16147,-18.74424 1.43483,-0.95557 13.30962,-0.90549 18.76996,-1.04847 z"
         style="clip-rule:evenodd;fill:#7f1b50;fill-rule:evenodd;stroke:#000000;stroke-width:3.06134px;stroke-linecap:round;stroke-linejoin:round;stroke-miterlimit:10"
         id="path2757" />
      <path
         id="path2760"
         style="color:#000000;clip-rule:nonzero;fill:#fefdff;fill-rule:nonzero;stroke-width:1.78948;stroke-linecap:butt;stroke-linejoin:miter;stroke-miterlimit:10;-inkscape-stroke:none"
         d="m 593.80389,72.98182 a 3.5021509,3.5021509 0 0 0 -3.35794,3.24011 c -0.37832,5.10707 -0.51601,9.21893 -0.50434,14.54071 -5.93339,0.0611 -9.4769,0.12372 -12.77702,0.35139 0.61764,-4.16237 1.33133,-7.6201 1.68465,-12.3894 a 3.5021509,3.5021509 0 0 0 -3.23286,-3.75068 3.5021509,3.5021509 0 0 0 -3.75018,3.23286 c -0.67958,9.17287 -3.18363,14.39796 -2.77141,32.87863 a 3.5021509,3.5021509 0 0 0 3.58222,3.42511 3.5021509,3.5021509 0 0 0 3.42149,-3.57912 c -0.1493,-6.69372 0.0953,-11.46673 0.49869,-15.35668 3.43778,-0.27401 6.93264,-0.33909 13.38212,-0.40513 0.0551,4.05185 0.16526,8.87216 0.30594,15.14996 a 3.5021509,3.5021509 0 0 0 3.58272,3.42201 3.5021509,3.5021509 0 0 0 3.42149,-3.57909 C 596.88269,92.00663 596.72293,86.27104 597.429,76.73922 a 3.5021509,3.5021509 0 0 0 -3.23289,-3.75018 3.5021509,3.5021509 0 0 0 -0.39222,-0.007 z" />
    </g>
  </g>
</svg>
