<?xml version="1.0" encoding="UTF-8" standalone="no"?>
<svg
   xmlns:dc="http://purl.org/dc/elements/1.1/"
   xmlns:cc="http://creativecommons.org/ns#"
   xmlns:rdf="http://www.w3.org/1999/02/22-rdf-syntax-ns#"
   xmlns:svg="http://www.w3.org/2000/svg"
   xmlns="http://www.w3.org/2000/svg"
   xmlns:sodipodi="http://sodipodi.sourceforge.net/DTD/sodipodi-0.dtd"
   xmlns:inkscape="http://www.inkscape.org/namespaces/inkscape"
   sodipodi:docname="2022-CA-02_hat.svg"
   inkscape:version="1.0 (4035a4fb49, 2020-05-01)"
   id="svg921"
   version="1.1"
   viewBox="0 0 25.110975 23.138226"
   height="23.138226mm"
   width="25.110975mm">
  <defs
     id="defs915" />
  <sodipodi:namedview
     showgrid="false"
     inkscape:document-rotation="0"
     inkscape:current-layer="layer1"
     inkscape:document-units="mm"
     inkscape:cy="560"
     inkscape:cx="400"
     inkscape:zoom="0.35"
     inkscape:pageshadow="2"
     inkscape:pageopacity="0.0"
     borderopacity="1.0"
     bordercolor="#666666"
     pagecolor="#ffffff"
     id="base" />
  <metadata
     id="metadata918">
    <rdf:RDF>
      <cc:Work
         rdf:about="">
        <dc:format>image/svg+xml</dc:format>
        <dc:type
           rdf:resource="http://purl.org/dc/dcmitype/StillImage" />
        <dc:title></dc:title>
      </cc:Work>
    </rdf:RDF>
  </metadata>
  <g
     transform="translate(-85.892688,-60.313682)"
     id="layer1"
     inkscape:groupmode="layer"
     inkscape:label="Ebene 1">
    <g
       style="clip-rule:evenodd;fill-rule:evenodd;stroke-linejoin:round;stroke-miterlimit:2"
       transform="matrix(0.16726773,0,0,0.14981396,41.660838,-14.453315)"
       id="g20">
      <path
         d="m 279.602,512.358 c -14.496,-7.829 -13.467,-14.141 3.022,-13.199 8.98,0.513 17.849,4.116 24.367,7.3 11.093,5.42 19.201,14.01 28.121,19.273 25.771,15.205 41.101,41.687 40.181,69.336 -0.332,9.995 1.107,33.05 3.54,33.659 4.224,1.056 51.149,2.918 30.506,18.4 -6.994,5.245 -48.779,5.294 -59.075,4.358 -11.742,-1.067 -26.656,-0.841 -37.769,1.937 -2.97,0.742 -19.126,-3.429 -31.916,-0.662 -16.394,3.548 -20.383,-9.323 -11.588,-13.267 2.085,-0.935 19.877,-4.432 30.073,-6.173 4.146,-0.708 5.659,-5.18 6.168,-5.562 6.441,-4.831 8.435,-10.706 9.018,-17.469 2.438,-1.369 0.108,-20.783 -0.034,-20.497 -0.155,-2.581 -0.734,-11.782 -0.753,-13.846 -0.012,-1.343 -0.221,-2.866 -0.606,-4.542 0.729,-0.151 -0.972,-12.158 -4.557,-12.399 -1.973,-4.25 -4.421,-8.867 -7.187,-13.665 0.742,-0.534 -1.409,-2.752 -2.847,-5.237 -0.945,-1.633 -0.509,-4.153 -2.513,-3.67 -3.937,-9.326 -8.134,-19.745 -16.151,-24.075 z"
         style="fill:#878787"
         id="path16" />
      <path
         d="m 279.602,512.358 c -14.496,-7.829 -13.467,-14.141 3.022,-13.199 8.98,0.513 17.849,4.116 24.367,7.3 11.093,5.42 19.201,14.01 28.121,19.273 25.771,15.205 41.101,41.687 40.181,69.336 -0.332,9.995 1.107,33.05 3.54,33.659 4.224,1.056 51.149,2.918 30.506,18.4 -6.994,5.245 -48.779,5.294 -59.075,4.358 -11.742,-1.067 -26.656,-0.841 -37.769,1.937 -2.97,0.742 -19.126,-3.429 -31.916,-0.662 -16.394,3.548 -20.383,-9.323 -11.588,-13.267 2.919,-1.309 23.196,-4.889 30.197,-6.374 0.409,0.089 0.806,0.181 1.181,0.284 2.906,0.798 5.106,1.959 8.349,2.384 5.451,0.713 10.238,-0.37 15.503,-0.629 5.12,-0.251 10.269,-0.044 15.414,-0.316 3.802,-0.201 6.778,-1.018 10.758,-0.79 1.499,0.086 2.873,-0.207 4.226,-0.526 1.27,-0.3 2.52,-0.625 3.854,-0.625 3.169,0 6.936,0.21 10.073,0.518 0.722,0.07 1.674,-0.124 2.672,-0.419 1.372,-0.404 2.842,-0.992 3.854,-1.165 0.272,-0.047 0.455,-0.306 0.408,-0.578 -0.047,-0.272 -0.305,-0.455 -0.577,-0.408 -1.041,0.179 -2.556,0.776 -3.967,1.192 -0.858,0.253 -1.672,0.443 -2.292,0.382 -3.168,-0.31 -6.971,-0.522 -10.171,-0.522 -1.413,0 -2.739,0.334 -4.084,0.652 -1.262,0.297 -2.541,0.581 -3.939,0.501 -4.021,-0.23 -7.027,0.587 -10.867,0.79 -5.145,0.271 -10.292,0.064 -15.411,0.316 -5.204,0.255 -9.936,1.34 -15.324,0.635 -2.947,-0.385 -5.017,-1.398 -7.569,-2.17 0.028,-0.008 0.055,-0.017 0.079,-0.025 1.986,-0.662 2.092,-3.505 3.874,-4.842 6.441,-4.831 8.435,-10.706 9.018,-17.469 3.592,-0.85 7.242,-1.581 10.578,-3.168 5.192,-2.47 9.077,-6.854 14.387,-9.192 3.013,-1.327 6.495,-2.474 9.683,-3.231 0.089,-0.021 6.429,-0.442 5.797,-1.498 -0.649,-1.084 -7.186,-2.054 -8.283,-2.33 -9.88,-2.487 -31.198,-0.979 -32.196,-1.078 -0.155,-2.581 -0.734,-11.782 -0.753,-13.846 -0.012,-1.343 -0.221,-2.866 -0.606,-4.542 0.729,-0.151 1.443,-0.323 2.135,-0.524 6.424,-1.874 11.545,-6.39 17.403,-9.319 0.428,-0.214 -0.956,0 -1.434,0 h -3.106 c -3.061,0 -5.846,-0.935 -8.841,-1.434 -3.548,-0.591 -7.129,-0.881 -10.714,-1.122 -1.973,-4.25 -4.421,-8.867 -7.187,-13.665 1.229,-0.885 2.468,-1.881 3.894,-2.848 1.063,-0.721 2.236,-1.265 3.345,-1.912 1.328,-0.774 10.684,-6.159 9.797,-7.168 -1.354,-1.539 -5.807,-0.678 -7.169,-0.478 -5.131,0.755 -10.173,2.28 -15.227,3.499 -3.937,-9.326 -8.134,-19.745 -16.151,-24.075 z"
         id="path18" />
    </g>
  </g>
</svg>
