<?xml version="1.0" encoding="UTF-8" standalone="no"?>
<!-- Created with Inkscape (http://www.inkscape.org/) -->

<svg
   width="99.969109mm"
   height="40.310223mm"
   viewBox="0 0 99.969109 40.310223"
   version="1.1"
   id="svg8641"
   inkscape:version="1.1.1 (3bf5ae0d25, 2021-09-20)"
   sodipodi:docname="2022-MK-01-explanation02-box.svg"
   xmlns:inkscape="http://www.inkscape.org/namespaces/inkscape"
   xmlns:sodipodi="http://sodipodi.sourceforge.net/DTD/sodipodi-0.dtd"
   xmlns="http://www.w3.org/2000/svg"
   xmlns:svg="http://www.w3.org/2000/svg">
  <sodipodi:namedview
     id="namedview8643"
     pagecolor="#ffffff"
     bordercolor="#666666"
     borderopacity="1.0"
     inkscape:pageshadow="2"
     inkscape:pageopacity="0.0"
     inkscape:pagecheckerboard="0"
     inkscape:document-units="mm"
     showgrid="false"
     inkscape:zoom="0.66368547"
     inkscape:cx="178.54843"
     inkscape:cy="243.33816"
     inkscape:window-width="1680"
     inkscape:window-height="1027"
     inkscape:window-x="1912"
     inkscape:window-y="-8"
     inkscape:window-maximized="1"
     inkscape:current-layer="layer1" />
  <defs
     id="defs8638" />
  <g
     inkscape:label="Ebene 1"
     inkscape:groupmode="layer"
     id="layer1"
     transform="translate(-57.653027,-84.293211)">
    <g
       id="g10674"
       style="clip-rule:evenodd;fill-rule:evenodd;stroke-linecap:round;stroke-linejoin:round;stroke-miterlimit:1.5"
       transform="matrix(0.26458333,0,0,0.26458333,-305.5503,-322.54917)">
      <path
         d="m 1750.5693,1541.8691 c 0,-2.3155 -1.8833,-4.1954 -4.1954,-4.1954 h -369.4414 c -2.3156,0 -4.1955,1.8799 -4.1955,4.1954 v 143.9608 c 0,2.3152 1.8799,4.1957 4.1955,4.1957 h 369.4414 c 2.3121,0 4.1954,-1.8805 4.1954,-4.1957 z"
         style="fill:#995e26;stroke-width:0.373093"
         id="path1178" />
      <path
         d="m 1501.111,1690.022 h -95.135 v -152.35 h 95.135 z m 107.087,0 h -95.136 v -152.35 h 95.136 z m 107.542,0 h -95.136 v -152.35 h 95.136 z"
         style="fill:#57300b"
         id="path1182" />
      <path
         d="m 1405.976,1680.682 c -11.221,1.1 -22.262,2.83 -33.233,4.42 v 0.72 c 0,0.08 0,0.16 0.01,0.24 10.97,-1.6 22.009,-3.33 33.227,-4.43 z m 309.764,0.9 v 0.93 c 11.929,-0.01 23.67,0.44 31.919,0.44 l 2.914,0.01 v -0.95 h -2.914 c -8.255,0 -19.985,-0.44 -31.919,-0.43 z m -214.629,-1.9 v 0.94 c 3.992,0.17 7.976,0.36 11.951,0.57 v -0.95 c -3.976,-0.2 -7.96,-0.39 -11.951,-0.56 z m 107.087,-9.59 v 1.02 c 4.012,1.25 8.129,2.46 12.406,3.65 v -1 c -4.276,-1.19 -8.392,-2.41 -12.406,-3.67 z m -235.455,-30.66 v 1.01 c 3.07,0.94 6.067,2.04 8.754,3.29 6.486,3.02 11.193,6.95 10.486,11.86 -0.746,5.18 -5.294,8.21 -10.945,10.07 -2.612,0.86 -5.46,1.48 -8.295,1.93 v 0.96 c 2.994,-0.47 6.013,-1.11 8.774,-2.02 6.059,-2 10.878,-5.28 11.678,-10.84 0.757,-5.25 -4.128,-9.53 -11.067,-12.77 -2.873,-1.33 -6.095,-2.5 -9.385,-3.49 z m 342.997,10.01 v 0.95 c 11.613,1.3 23.219,2.59 34.833,3.81 v -0.95 c -11.617,-1.22 -23.226,-2.51 -34.833,-3.81 z m 0,-15.44 v 1.1 c 3.199,1.53 7.599,2.82 12.663,3.91 6.675,1.43 14.505,2.51 22.17,3.35 v -0.94 c -7.559,-0.84 -15.265,-1.91 -21.844,-3.32 -5.3,-1.13 -9.867,-2.47 -12.989,-4.1 z m -107.542,1.96 v 1.17 c 0.914,0.51 1.968,0.97 3.135,1.38 2.643,0.94 5.868,1.67 9.271,2.23 v -0.95 c -3.213,-0.55 -6.251,-1.24 -8.76,-2.13 -1.409,-0.5 -2.65,-1.07 -3.646,-1.7 z m -202.222,-6.13 v -0.93 c -11.139,-0.19 -22.197,-0.94 -33.233,-2.02 v 0.95 c 11.038,1.07 22.098,1.81 33.233,2 z m 309.764,-1.06 v 0.98 c 3.932,-0.94 9.575,-1.4 10.009,-1.43 8.28,-0.64 16.547,-0.98 24.824,-1.15 v -0.94 c -8.317,0.17 -16.624,0.51 -24.946,1.15 -0.431,0.04 -5.862,0.49 -9.887,1.39 z m -95.136,-8.25 c -1.008,0.3 -1.996,0.62 -2.956,0.95 -3.745,1.3 -7.066,2.86 -9.45,4.71 v 1.36 c 2.285,-2.09 5.873,-3.8 9.95,-5.21 0.801,-0.28 1.621,-0.54 2.456,-0.8 z m -107.542,-6.98 c -3.983,0.85 -7.965,1.72 -11.951,2.6 v 0.98 c 3.987,-0.88 7.969,-1.75 11.951,-2.6 z m 202.678,-4.85 v 0.94 c 11.609,-0.56 23.236,-0.98 34.833,-1.49 v -0.94 c -11.596,0.51 -23.222,0.93 -34.833,1.49 z m -95.136,-3.95 c -4.174,0.85 -8.308,1.56 -12.406,2.23 v 0.95 c 4.099,-0.66 8.233,-1.37 12.406,-2.2 z m 95.136,-9.99 v 0.94 c 11.597,-0.82 23.196,-1.35 34.833,-1.68 v -0.94 c -11.637,0.33 -23.237,0.86 -34.833,1.68 z m -309.764,-8.95 c -11.144,1.22 -22.252,2.85 -33.233,5.54 v 0.98 c 10.979,-2.71 22.087,-4.34 33.233,-5.57 z m 309.764,-4.67 v 0.94 c 6.258,0.47 12.514,0.77 18.76,0.77 5.349,0 10.708,-0.06 16.073,-0.14 v -0.94 c -5.368,0.08 -10.726,0.14 -16.073,0.14 -6.245,0 -12.498,-0.3 -18.76,-0.77 z m -309.764,-6.59 c -0.864,0.19 -1.726,0.38 -2.585,0.59 -10.156,2.41 -20.376,4.48 -30.648,6.28 v 0.97 c 10.393,-1.82 20.733,-3.92 31.007,-6.36 0.74,-0.17 1.482,-0.34 2.226,-0.5 z m 107.086,4.39 c -3.982,0.03 -7.967,0.06 -11.951,0.12 v 0.94 c 3.983,-0.06 7.968,-0.1 11.951,-0.13 z m 107.542,-3.41 c -4.134,0.14 -8.27,0.31 -12.406,0.49 v 0.95 c 4.137,-0.2 8.271,-0.36 12.406,-0.5 z m -107.542,-21.71 c -3.97,1.27 -7.946,2.55 -11.951,3.81 v 1 c 4.005,-1.26 7.98,-2.54 11.951,-3.82 z m -107.086,-1.23 c -11.118,0.85 -22.445,1.12 -33.233,0.43 v 0.95 c 10.792,0.68 22.116,0.41 33.233,-0.44 z m 309.764,-7.98 v 0.97 c 11.612,2.35 23.081,5.37 34.833,7.59 v -0.96 c -11.749,-2.23 -23.218,-5.25 -34.833,-7.6 z m -309.764,-2.84 v -0.94 c -8.852,0.33 -17.676,0.39 -26.565,0.39 -2.18,0 -4.354,-0.16 -6.525,-0.44 -0.08,0.3 -0.129,0.62 -0.14,0.94 2.218,0.28 4.439,0.44 6.665,0.44 8.888,0 17.712,-0.06 26.565,-0.39 z m 214.628,-2.7 c -4.149,0.06 -8.288,0.14 -12.406,0.23 v 0.95 c 4.118,-0.1 8.256,-0.18 12.406,-0.24 z"
         style="fill:#673b11"
         id="path1186" />
      <path
         d="m 1494.637,1537.672 h -82.853 v 5.17 c 7.521,8.5 6.889,17.33 0,24.76 v 93.09 c 7.521,8.5 6.889,17.32 0,24.75 v 4.58 h 82.853 v -4.58 c -6.89,-7.43 -7.522,-16.25 0,-24.75 v -93.09 c -6.89,-7.43 -7.522,-16.26 0,-24.76 z m 107.086,0 h -82.852 v 5.72 c 7.521,8.5 6.889,17.32 0,24.75 v 93.09 c 7.521,8.5 6.889,17.33 0,24.76 v 4.03 h 82.852 v -4.03 c -6.889,-7.43 -7.521,-16.26 0,-24.76 v -93.09 c -6.889,-7.43 -7.521,-16.25 0,-24.75 z m 106.539,0 h -82.852 v 4.69 c 7.521,8.5 6.889,17.33 0,24.75 v 93.09 c 7.521,8.5 6.889,17.33 0,24.76 v 5.06 h 82.852 v -5.06 c -6.889,-7.43 -7.521,-16.26 0,-24.76 v -93.09 c -6.889,-7.42 -7.521,-16.25 0,-24.75 z"
         style="fill:#b6adad"
         id="path1190" />
      <rect
         x="1625.4026"
         y="1567.1171"
         width="82.852516"
         height="93.086174"
         style="fill:#e6dfdf;stroke-width:1.34667"
         id="rect1194" />
      <path
         d="m 1625.406,1567.115 77.166,5.68 5.686,87.41 v -93.09 z"
         style="fill:#d6d6d6"
         id="path1198" />
      <path
         d="m 1708.261,1660.205 -77.166,-5.68 -5.686,-87.41 v 93.09 z"
         style="fill:#f8f8f8"
         id="path1202" />
      <path
         d="m 1708.261,1567.115 -77.166,5.68 -5.686,87.41 v -93.09 z"
         style="fill:#f8f8f8"
         id="path1206" />
      <path
         d="m 1704.62,1547.665 h -75.576 c 1.655,3.35 2.121,6.69 1.512,9.93 h 72.552 c -0.609,-3.24 -0.143,-6.58 1.512,-9.93 z"
         style="fill:#d2d1d1"
         id="path1210" />
      <path
         d="m 1704.62,1665.522 h -75.576 c 1.655,3.35 2.121,6.69 1.512,9.93 h 72.552 c -0.609,-3.24 -0.143,-6.58 1.512,-9.93 z"
         style="fill:#d2d1d1"
         id="path1214" />
      <path
         d="m 1703.608,1550.145 h -73.552 c 0.266,0.83 0.462,1.66 0.587,2.48 h 72.378 c 0.125,-0.82 0.321,-1.65 0.587,-2.48 z"
         style="fill:#f0f0f0"
         id="path1218" />
      <path
         d="m 1703.608,1668.002 h -73.552 c 0.266,0.83 0.462,1.66 0.587,2.48 h 72.378 c 0.125,-0.82 0.321,-1.65 0.587,-2.48 z"
         style="fill:#f0f0f0"
         id="path1222" />
      <path
         d="m 1625.406,1660.205 77.166,-5.68 5.686,-87.41 v 93.09 z"
         style="fill:#d6d6d6"
         id="path1226" />
      <rect
         x="1411.7776"
         y="1567.604"
         width="82.852516"
         height="93.086174"
         style="fill:#e6dfdf;stroke-width:1.34667"
         id="rect1230" />
      <path
         d="m 1411.78,1567.602 77.166,5.68 5.686,87.41 v -93.09 z"
         style="fill:#d6d6d6"
         id="path1234" />
      <path
         d="m 1494.631,1660.685 -77.166,-5.68 -5.686,-87.41 v 93.09 z"
         style="fill:#f8f8f8"
         id="path1238" />
      <path
         d="m 1494.631,1567.602 -77.166,5.68 -5.686,87.41 v -93.09 z"
         style="fill:#f8f8f8"
         id="path1242" />
      <path
         d="m 1490.994,1548.152 h -75.576 c 1.655,3.35 2.121,6.69 1.512,9.93 h 72.552 c -0.609,-3.24 -0.143,-6.58 1.512,-9.93 z"
         style="fill:#d2d1d1"
         id="path1246" />
      <path
         d="m 1490.994,1666.009 h -75.576 c 1.655,3.35 2.121,6.69 1.512,9.93 h 72.552 c -0.609,-3.24 -0.143,-6.58 1.512,-9.93 z"
         style="fill:#d2d1d1"
         id="path1250" />
      <path
         d="m 1489.982,1550.632 h -73.552 c 0.266,0.83 0.462,1.66 0.587,2.48 h 72.378 c 0.125,-0.82 0.321,-1.65 0.587,-2.48 z"
         style="fill:#f0f0f0"
         id="path1254" />
      <path
         d="m 1489.982,1668.489 h -73.552 c 0.266,0.83 0.462,1.66 0.587,2.48 h 72.378 c 0.125,-0.82 0.321,-1.65 0.587,-2.48 z"
         style="fill:#f0f0f0"
         id="path1258" />
      <path
         d="m 1411.78,1660.685 77.166,-5.68 5.686,-87.41 v 93.09 z"
         style="fill:#d6d6d6"
         id="path1262" />
      <rect
         x="1518.8636"
         y="1568.146"
         width="82.852516"
         height="93.086174"
         style="fill:#e6dfdf;stroke-width:1.34667"
         id="rect1266" />
      <path
         d="m 1518.867,1568.144 77.166,5.68 5.686,87.41 v -93.09 z"
         style="fill:#d6d6d6"
         id="path1270" />
      <path
         d="m 1601.721,1661.225 -77.166,-5.68 -5.686,-87.41 v 93.09 z"
         style="fill:#f8f8f8"
         id="path1274" />
      <path
         d="m 1601.721,1568.144 -77.166,5.68 -5.686,87.41 v -93.09 z"
         style="fill:#f8f8f8"
         id="path1278" />
      <path
         d="m 1598.081,1548.694 h -75.576 c 1.655,3.35 2.121,6.69 1.512,9.93 h 72.552 c -0.609,-3.24 -0.143,-6.58 1.512,-9.93 z"
         style="fill:#d2d1d1"
         id="path1282" />
      <path
         d="m 1598.081,1666.551 h -75.576 c 1.655,3.35 2.121,6.69 1.512,9.93 h 72.552 c -0.609,-3.24 -0.143,-6.58 1.512,-9.93 z"
         style="fill:#d2d1d1"
         id="path1286" />
      <path
         d="m 1597.069,1551.174 h -73.552 c 0.266,0.83 0.462,1.66 0.587,2.48 h 72.378 c 0.125,-0.82 0.321,-1.65 0.587,-2.48 z"
         style="fill:#f0f0f0"
         id="path1290" />
      <path
         d="m 1597.069,1669.031 h -73.552 c 0.266,0.83 0.462,1.66 0.587,2.48 h 72.378 c 0.125,-0.82 0.321,-1.65 0.587,-2.48 z"
         style="fill:#f0f0f0"
         id="path1294" />
      <path
         d="m 1518.867,1661.225 77.166,-5.68 5.686,-87.41 v 93.09 z"
         style="fill:#d6d6d6"
         id="path1298" />
      <path
         d="m 1696.054,1635.1547 c -4.5263,4.5142 -10.5235,7.6247 -17.3488,8.5064 -16.4518,2.1253 -31.5358,-9.515 -33.6613,-25.968 -2.1239,-16.441 9.5069,-31.5323 25.9587,-33.6576 1.6142,-0.2085 3.2155,-0.2816 4.7927,-0.2298 -6.3888,6.3606 -9.8542,15.5187 -8.6098,25.1512 1.9167,14.8376 14.3723,25.7468 28.8685,26.1978 z"
         id="path1306"
         style="stroke-width:1.20652" />
      <path
         d="m 1750.5693,1541.8691 c 0,-2.3155 -1.8833,-4.1954 -4.1954,-4.1954 h -369.4414 c -2.3156,0 -4.1955,1.8799 -4.1955,4.1954 v 143.9608 c 0,2.3152 1.8799,4.1957 4.1955,4.1957 h 369.4414 c 2.3121,0 4.1954,-1.8805 4.1954,-4.1957 z"
         style="fill:#995e26;stroke-width:0.373093"
         id="path1310" />
      <path
         d="m 1501.111,1690.022 h -95.135 v -152.35 h 95.135 z m 107.087,0 h -95.136 v -152.35 h 95.136 z m 107.542,0 h -95.136 v -152.35 h 95.136 z"
         style="fill:#57300b"
         id="path1314" />
      <path
         d="m 1405.976,1680.682 c -11.221,1.1 -22.262,2.83 -33.233,4.42 v 0.72 c 0,0.08 0,0.16 0.01,0.24 10.97,-1.6 22.009,-3.33 33.227,-4.43 z m 309.764,0.9 v 0.93 c 11.929,-0.01 23.67,0.44 31.919,0.44 l 2.914,0.01 v -0.95 h -2.914 c -8.255,0 -19.985,-0.44 -31.919,-0.43 z m -214.629,-1.9 v 0.94 c 3.992,0.17 7.976,0.36 11.951,0.57 v -0.95 c -3.976,-0.2 -7.96,-0.39 -11.951,-0.56 z m 107.087,-9.59 v 1.02 c 4.012,1.25 8.129,2.46 12.406,3.65 v -1 c -4.276,-1.19 -8.392,-2.41 -12.406,-3.67 z m -235.455,-30.66 v 1.01 c 3.07,0.94 6.067,2.04 8.754,3.29 6.486,3.02 11.193,6.95 10.486,11.86 -0.746,5.18 -5.294,8.21 -10.945,10.07 -2.612,0.86 -5.46,1.48 -8.295,1.93 v 0.96 c 2.994,-0.47 6.013,-1.11 8.774,-2.02 6.059,-2 10.878,-5.28 11.678,-10.84 0.757,-5.25 -4.128,-9.53 -11.067,-12.77 -2.873,-1.33 -6.095,-2.5 -9.385,-3.49 z m 342.997,10.01 v 0.95 c 11.613,1.3 23.219,2.59 34.833,3.81 v -0.95 c -11.617,-1.22 -23.226,-2.51 -34.833,-3.81 z m 0,-15.44 v 1.1 c 3.199,1.53 7.599,2.82 12.663,3.91 6.675,1.43 14.505,2.51 22.17,3.35 v -0.94 c -7.559,-0.84 -15.265,-1.91 -21.844,-3.32 -5.3,-1.13 -9.867,-2.47 -12.989,-4.1 z m -107.542,1.96 v 1.17 c 0.914,0.51 1.968,0.97 3.135,1.38 2.643,0.94 5.868,1.67 9.271,2.23 v -0.95 c -3.213,-0.55 -6.251,-1.24 -8.76,-2.13 -1.409,-0.5 -2.65,-1.07 -3.646,-1.7 z m -202.222,-6.13 v -0.93 c -11.139,-0.19 -22.197,-0.94 -33.233,-2.02 v 0.95 c 11.038,1.07 22.098,1.81 33.233,2 z m 309.764,-1.06 v 0.98 c 3.932,-0.94 9.575,-1.4 10.009,-1.43 8.28,-0.64 16.547,-0.98 24.824,-1.15 v -0.94 c -8.317,0.17 -16.624,0.51 -24.946,1.15 -0.431,0.04 -5.862,0.49 -9.887,1.39 z m -95.136,-8.25 c -1.008,0.3 -1.996,0.62 -2.956,0.95 -3.745,1.3 -7.066,2.86 -9.45,4.71 v 1.36 c 2.285,-2.09 5.873,-3.8 9.95,-5.21 0.801,-0.28 1.621,-0.54 2.456,-0.8 z m -107.542,-6.98 c -3.983,0.85 -7.965,1.72 -11.951,2.6 v 0.98 c 3.987,-0.88 7.969,-1.75 11.951,-2.6 z m 202.678,-4.85 v 0.94 c 11.609,-0.56 23.236,-0.98 34.833,-1.49 v -0.94 c -11.596,0.51 -23.222,0.93 -34.833,1.49 z m -95.136,-3.95 c -4.174,0.85 -8.308,1.56 -12.406,2.23 v 0.95 c 4.099,-0.66 8.233,-1.37 12.406,-2.2 z m 95.136,-9.99 v 0.94 c 11.597,-0.82 23.196,-1.35 34.833,-1.68 v -0.94 c -11.637,0.33 -23.237,0.86 -34.833,1.68 z m -309.764,-8.95 c -11.144,1.22 -22.252,2.85 -33.233,5.54 v 0.98 c 10.979,-2.71 22.087,-4.34 33.233,-5.57 z m 309.764,-4.67 v 0.94 c 6.258,0.47 12.514,0.77 18.76,0.77 5.349,0 10.708,-0.06 16.073,-0.14 v -0.94 c -5.368,0.08 -10.726,0.14 -16.073,0.14 -6.245,0 -12.498,-0.3 -18.76,-0.77 z m -309.764,-6.59 c -0.864,0.19 -1.726,0.38 -2.585,0.59 -10.156,2.41 -20.376,4.48 -30.648,6.28 v 0.97 c 10.393,-1.82 20.733,-3.92 31.007,-6.36 0.74,-0.17 1.482,-0.34 2.226,-0.5 z m 107.086,4.39 c -3.982,0.03 -7.967,0.06 -11.951,0.12 v 0.94 c 3.983,-0.06 7.968,-0.1 11.951,-0.13 z m 107.542,-3.41 c -4.134,0.14 -8.27,0.31 -12.406,0.49 v 0.95 c 4.137,-0.2 8.271,-0.36 12.406,-0.5 z m -107.542,-21.71 c -3.97,1.27 -7.946,2.55 -11.951,3.81 v 1 c 4.005,-1.26 7.98,-2.54 11.951,-3.82 z m -107.086,-1.23 c -11.118,0.85 -22.445,1.12 -33.233,0.43 v 0.95 c 10.792,0.68 22.116,0.41 33.233,-0.44 z m 309.764,-7.98 v 0.97 c 11.612,2.35 23.081,5.37 34.833,7.59 v -0.96 c -11.749,-2.23 -23.218,-5.25 -34.833,-7.6 z m -309.764,-2.84 v -0.94 c -8.852,0.33 -17.676,0.39 -26.565,0.39 -2.18,0 -4.354,-0.16 -6.525,-0.44 -0.08,0.3 -0.129,0.62 -0.14,0.94 2.218,0.28 4.439,0.44 6.665,0.44 8.888,0 17.712,-0.06 26.565,-0.39 z m 214.628,-2.7 c -4.149,0.06 -8.288,0.14 -12.406,0.23 v 0.95 c 4.118,-0.1 8.256,-0.18 12.406,-0.24 z"
         style="fill:#673b11"
         id="path1318" />
      <path
         d="m 1494.637,1537.672 h -82.853 v 5.17 c 7.521,8.5 6.889,17.33 0,24.76 v 93.09 c 7.521,8.5 6.889,17.32 0,24.75 v 4.58 h 82.853 v -4.58 c -6.89,-7.43 -7.522,-16.25 0,-24.75 v -93.09 c -6.89,-7.43 -7.522,-16.26 0,-24.76 z m 107.086,0 h -82.852 v 5.72 c 7.521,8.5 6.889,17.32 0,24.75 v 93.09 c 7.521,8.5 6.889,17.33 0,24.76 v 4.03 h 82.852 v -4.03 c -6.889,-7.43 -7.521,-16.26 0,-24.76 v -93.09 c -6.889,-7.43 -7.521,-16.25 0,-24.75 z m 106.539,0 h -82.852 v 4.69 c 7.521,8.5 6.889,17.33 0,24.75 v 93.09 c 7.521,8.5 6.889,17.33 0,24.76 v 5.06 h 82.852 v -5.06 c -6.889,-7.43 -7.521,-16.26 0,-24.76 v -93.09 c -6.889,-7.42 -7.521,-16.25 0,-24.75 z"
         style="fill:#b6adad"
         id="path1322" />
      <rect
         x="1625.4026"
         y="1567.1171"
         width="82.852516"
         height="93.086174"
         style="fill:#e6dfdf;stroke-width:1.34667"
         id="rect1326" />
      <path
         d="m 1625.406,1567.115 77.166,5.68 5.686,87.41 v -93.09 z"
         style="fill:#d6d6d6"
         id="path1330" />
      <path
         d="m 1708.261,1660.205 -77.166,-5.68 -5.686,-87.41 v 93.09 z"
         style="fill:#f8f8f8"
         id="path1334" />
      <path
         d="m 1708.261,1567.115 -77.166,5.68 -5.686,87.41 v -93.09 z"
         style="fill:#f8f8f8"
         id="path1338" />
      <path
         d="m 1704.62,1547.665 h -75.576 c 1.655,3.35 2.121,6.69 1.512,9.93 h 72.552 c -0.609,-3.24 -0.143,-6.58 1.512,-9.93 z"
         style="fill:#d2d1d1"
         id="path1342" />
      <path
         d="m 1704.62,1665.522 h -75.576 c 1.655,3.35 2.121,6.69 1.512,9.93 h 72.552 c -0.609,-3.24 -0.143,-6.58 1.512,-9.93 z"
         style="fill:#d2d1d1"
         id="path1346" />
      <path
         d="m 1703.608,1550.145 h -73.552 c 0.266,0.83 0.462,1.66 0.587,2.48 h 72.378 c 0.125,-0.82 0.321,-1.65 0.587,-2.48 z"
         style="fill:#f0f0f0"
         id="path1350" />
      <path
         d="m 1703.608,1668.002 h -73.552 c 0.266,0.83 0.462,1.66 0.587,2.48 h 72.378 c 0.125,-0.82 0.321,-1.65 0.587,-2.48 z"
         style="fill:#f0f0f0"
         id="path1354" />
      <path
         d="m 1625.406,1660.205 77.166,-5.68 5.686,-87.41 v 93.09 z"
         style="fill:#d6d6d6"
         id="path1358" />
      <rect
         x="1411.7776"
         y="1567.604"
         width="82.852516"
         height="93.086174"
         style="fill:#e6dfdf;stroke-width:1.34667"
         id="rect1362" />
      <path
         d="m 1411.78,1567.602 77.166,5.68 5.686,87.41 v -93.09 z"
         style="fill:#d6d6d6"
         id="path1366" />
      <path
         d="m 1494.631,1660.685 -77.166,-5.68 -5.686,-87.41 v 93.09 z"
         style="fill:#f8f8f8"
         id="path1370" />
      <path
         d="m 1494.631,1567.602 -77.166,5.68 -5.686,87.41 v -93.09 z"
         style="fill:#f8f8f8"
         id="path1374" />
      <path
         d="m 1490.994,1548.152 h -75.576 c 1.655,3.35 2.121,6.69 1.512,9.93 h 72.552 c -0.609,-3.24 -0.143,-6.58 1.512,-9.93 z"
         style="fill:#d2d1d1"
         id="path1378" />
      <path
         d="m 1490.994,1666.009 h -75.576 c 1.655,3.35 2.121,6.69 1.512,9.93 h 72.552 c -0.609,-3.24 -0.143,-6.58 1.512,-9.93 z"
         style="fill:#d2d1d1"
         id="path1382" />
      <path
         d="m 1489.982,1550.632 h -73.552 c 0.266,0.83 0.462,1.66 0.587,2.48 h 72.378 c 0.125,-0.82 0.321,-1.65 0.587,-2.48 z"
         style="fill:#f0f0f0"
         id="path1386" />
      <path
         d="m 1489.982,1668.489 h -73.552 c 0.266,0.83 0.462,1.66 0.587,2.48 h 72.378 c 0.125,-0.82 0.321,-1.65 0.587,-2.48 z"
         style="fill:#f0f0f0"
         id="path1390" />
      <path
         d="m 1411.78,1660.685 77.166,-5.68 5.686,-87.41 v 93.09 z"
         style="fill:#d6d6d6"
         id="path1394" />
      <rect
         x="1518.8636"
         y="1568.146"
         width="82.852516"
         height="93.086174"
         style="fill:#e6dfdf;stroke-width:1.34667"
         id="rect1398" />
      <path
         d="m 1518.867,1568.144 77.166,5.68 5.686,87.41 v -93.09 z"
         style="fill:#d6d6d6"
         id="path1402" />
      <path
         d="m 1601.721,1661.225 -77.166,-5.68 -5.686,-87.41 v 93.09 z"
         style="fill:#f8f8f8"
         id="path1406" />
      <path
         d="m 1601.721,1568.144 -77.166,5.68 -5.686,87.41 v -93.09 z"
         style="fill:#f8f8f8"
         id="path1410" />
      <path
         d="m 1598.081,1548.694 h -75.576 c 1.655,3.35 2.121,6.69 1.512,9.93 h 72.552 c -0.609,-3.24 -0.143,-6.58 1.512,-9.93 z"
         style="fill:#d2d1d1"
         id="path1414" />
      <path
         d="m 1598.081,1666.551 h -75.576 c 1.655,3.35 2.121,6.69 1.512,9.93 h 72.552 c -0.609,-3.24 -0.143,-6.58 1.512,-9.93 z"
         style="fill:#d2d1d1"
         id="path1418" />
      <path
         d="m 1597.069,1551.174 h -73.552 c 0.266,0.83 0.462,1.66 0.587,2.48 h 72.378 c 0.125,-0.82 0.321,-1.65 0.587,-2.48 z"
         style="fill:#f0f0f0"
         id="path1422" />
      <path
         d="m 1597.069,1669.031 h -73.552 c 0.266,0.83 0.462,1.66 0.587,2.48 h 72.378 c 0.125,-0.82 0.321,-1.65 0.587,-2.48 z"
         style="fill:#f0f0f0"
         id="path1426" />
      <path
         d="m 1518.867,1661.225 77.166,-5.68 5.686,-87.41 v 93.09 z"
         style="fill:#d6d6d6"
         id="path1430" />
      <path
         d="m 1696.054,1635.1547 c -4.5263,4.5142 -10.5235,7.6247 -17.3488,8.5064 -16.4518,2.1253 -31.5358,-9.515 -33.6613,-25.968 -2.1239,-16.441 9.5069,-31.5323 25.9587,-33.6576 1.6142,-0.2085 3.2155,-0.2816 4.7927,-0.2298 -6.3888,6.3606 -9.8542,15.5187 -8.6098,25.1512 1.9167,14.8376 14.3723,25.7468 28.8685,26.1978 z"
         id="path1438"
         style="stroke-width:1.20652" />
      <path
         d="m 1750.5693,1541.8691 c 0,-2.3155 -1.8833,-4.1954 -4.1954,-4.1954 h -369.4414 c -2.3156,0 -4.1955,1.8799 -4.1955,4.1954 v 143.9608 c 0,2.3152 1.8799,4.1957 4.1955,4.1957 h 369.4414 c 2.3121,0 4.1954,-1.8805 4.1954,-4.1957 z"
         style="fill:#995e26;stroke-width:0.373093"
         id="path1442" />
      <path
         d="m 1501.111,1690.022 h -95.135 v -152.35 h 95.135 z m 107.087,0 h -95.136 v -152.35 h 95.136 z m 107.542,0 h -95.136 v -152.35 h 95.136 z"
         style="fill:#57300b"
         id="path1446" />
      <path
         d="m 1405.976,1680.682 c -11.221,1.1 -22.262,2.83 -33.233,4.42 v 0.72 c 0,0.08 0,0.16 0.01,0.24 10.97,-1.6 22.009,-3.33 33.227,-4.43 z m 309.764,0.9 v 0.93 c 11.929,-0.01 23.67,0.44 31.919,0.44 l 2.914,0.01 v -0.95 h -2.914 c -8.255,0 -19.985,-0.44 -31.919,-0.43 z m -214.629,-1.9 v 0.94 c 3.992,0.17 7.976,0.36 11.951,0.57 v -0.95 c -3.976,-0.2 -7.96,-0.39 -11.951,-0.56 z m 107.087,-9.59 v 1.02 c 4.012,1.25 8.129,2.46 12.406,3.65 v -1 c -4.276,-1.19 -8.392,-2.41 -12.406,-3.67 z m -235.455,-30.66 v 1.01 c 3.07,0.94 6.067,2.04 8.754,3.29 6.486,3.02 11.193,6.95 10.486,11.86 -0.746,5.18 -5.294,8.21 -10.945,10.07 -2.612,0.86 -5.46,1.48 -8.295,1.93 v 0.96 c 2.994,-0.47 6.013,-1.11 8.774,-2.02 6.059,-2 10.878,-5.28 11.678,-10.84 0.757,-5.25 -4.128,-9.53 -11.067,-12.77 -2.873,-1.33 -6.095,-2.5 -9.385,-3.49 z m 342.997,10.01 v 0.95 c 11.613,1.3 23.219,2.59 34.833,3.81 v -0.95 c -11.617,-1.22 -23.226,-2.51 -34.833,-3.81 z m 0,-15.44 v 1.1 c 3.199,1.53 7.599,2.82 12.663,3.91 6.675,1.43 14.505,2.51 22.17,3.35 v -0.94 c -7.559,-0.84 -15.265,-1.91 -21.844,-3.32 -5.3,-1.13 -9.867,-2.47 -12.989,-4.1 z m -107.542,1.96 v 1.17 c 0.914,0.51 1.968,0.97 3.135,1.38 2.643,0.94 5.868,1.67 9.271,2.23 v -0.95 c -3.213,-0.55 -6.251,-1.24 -8.76,-2.13 -1.409,-0.5 -2.65,-1.07 -3.646,-1.7 z m -202.222,-6.13 v -0.93 c -11.139,-0.19 -22.197,-0.94 -33.233,-2.02 v 0.95 c 11.038,1.07 22.098,1.81 33.233,2 z m 309.764,-1.06 v 0.98 c 3.932,-0.94 9.575,-1.4 10.009,-1.43 8.28,-0.64 16.547,-0.98 24.824,-1.15 v -0.94 c -8.317,0.17 -16.624,0.51 -24.946,1.15 -0.431,0.04 -5.862,0.49 -9.887,1.39 z m -95.136,-8.25 c -1.008,0.3 -1.996,0.62 -2.956,0.95 -3.745,1.3 -7.066,2.86 -9.45,4.71 v 1.36 c 2.285,-2.09 5.873,-3.8 9.95,-5.21 0.801,-0.28 1.621,-0.54 2.456,-0.8 z m -107.542,-6.98 c -3.983,0.85 -7.965,1.72 -11.951,2.6 v 0.98 c 3.987,-0.88 7.969,-1.75 11.951,-2.6 z m 202.678,-4.85 v 0.94 c 11.609,-0.56 23.236,-0.98 34.833,-1.49 v -0.94 c -11.596,0.51 -23.222,0.93 -34.833,1.49 z m -95.136,-3.95 c -4.174,0.85 -8.308,1.56 -12.406,2.23 v 0.95 c 4.099,-0.66 8.233,-1.37 12.406,-2.2 z m 95.136,-9.99 v 0.94 c 11.597,-0.82 23.196,-1.35 34.833,-1.68 v -0.94 c -11.637,0.33 -23.237,0.86 -34.833,1.68 z m -309.764,-8.95 c -11.144,1.22 -22.252,2.85 -33.233,5.54 v 0.98 c 10.979,-2.71 22.087,-4.34 33.233,-5.57 z m 309.764,-4.67 v 0.94 c 6.258,0.47 12.514,0.77 18.76,0.77 5.349,0 10.708,-0.06 16.073,-0.14 v -0.94 c -5.368,0.08 -10.726,0.14 -16.073,0.14 -6.245,0 -12.498,-0.3 -18.76,-0.77 z m -309.764,-6.59 c -0.864,0.19 -1.726,0.38 -2.585,0.59 -10.156,2.41 -20.376,4.48 -30.648,6.28 v 0.97 c 10.393,-1.82 20.733,-3.92 31.007,-6.36 0.74,-0.17 1.482,-0.34 2.226,-0.5 z m 107.086,4.39 c -3.982,0.03 -7.967,0.06 -11.951,0.12 v 0.94 c 3.983,-0.06 7.968,-0.1 11.951,-0.13 z m 107.542,-3.41 c -4.134,0.14 -8.27,0.31 -12.406,0.49 v 0.95 c 4.137,-0.2 8.271,-0.36 12.406,-0.5 z m -107.542,-21.71 c -3.97,1.27 -7.946,2.55 -11.951,3.81 v 1 c 4.005,-1.26 7.98,-2.54 11.951,-3.82 z m -107.086,-1.23 c -11.118,0.85 -22.445,1.12 -33.233,0.43 v 0.95 c 10.792,0.68 22.116,0.41 33.233,-0.44 z m 309.764,-7.98 v 0.97 c 11.612,2.35 23.081,5.37 34.833,7.59 v -0.96 c -11.749,-2.23 -23.218,-5.25 -34.833,-7.6 z m -309.764,-2.84 v -0.94 c -8.852,0.33 -17.676,0.39 -26.565,0.39 -2.18,0 -4.354,-0.16 -6.525,-0.44 -0.08,0.3 -0.129,0.62 -0.14,0.94 2.218,0.28 4.439,0.44 6.665,0.44 8.888,0 17.712,-0.06 26.565,-0.39 z m 214.628,-2.7 c -4.149,0.06 -8.288,0.14 -12.406,0.23 v 0.95 c 4.118,-0.1 8.256,-0.18 12.406,-0.24 z"
         style="fill:#673b11"
         id="path1450" />
      <path
         d="m 1494.637,1537.672 h -82.853 v 5.17 c 7.521,8.5 6.889,17.33 0,24.76 v 93.09 c 7.521,8.5 6.889,17.32 0,24.75 v 4.58 h 82.853 v -4.58 c -6.89,-7.43 -7.522,-16.25 0,-24.75 v -93.09 c -6.89,-7.43 -7.522,-16.26 0,-24.76 z m 107.086,0 h -82.852 v 5.72 c 7.521,8.5 6.889,17.32 0,24.75 v 93.09 c 7.521,8.5 6.889,17.33 0,24.76 v 4.03 h 82.852 v -4.03 c -6.889,-7.43 -7.521,-16.26 0,-24.76 v -93.09 c -6.889,-7.43 -7.521,-16.25 0,-24.75 z m 106.539,0 h -82.852 v 4.69 c 7.521,8.5 6.889,17.33 0,24.75 v 93.09 c 7.521,8.5 6.889,17.33 0,24.76 v 5.06 h 82.852 v -5.06 c -6.889,-7.43 -7.521,-16.26 0,-24.76 v -93.09 c -6.889,-7.42 -7.521,-16.25 0,-24.75 z"
         style="fill:#b6adad"
         id="path1454" />
      <rect
         x="1625.4026"
         y="1567.1171"
         width="82.852516"
         height="93.086174"
         style="fill:#e6dfdf;stroke-width:1.34667"
         id="rect1458" />
      <path
         d="m 1625.406,1567.115 77.166,5.68 5.686,87.41 v -93.09 z"
         style="fill:#d6d6d6"
         id="path1462" />
      <path
         d="m 1708.261,1660.205 -77.166,-5.68 -5.686,-87.41 v 93.09 z"
         style="fill:#f8f8f8"
         id="path1466" />
      <path
         d="m 1708.261,1567.115 -77.166,5.68 -5.686,87.41 v -93.09 z"
         style="fill:#f8f8f8"
         id="path1470" />
      <path
         d="m 1704.62,1547.665 h -75.576 c 1.655,3.35 2.121,6.69 1.512,9.93 h 72.552 c -0.609,-3.24 -0.143,-6.58 1.512,-9.93 z"
         style="fill:#d2d1d1"
         id="path1474" />
      <path
         d="m 1704.62,1665.522 h -75.576 c 1.655,3.35 2.121,6.69 1.512,9.93 h 72.552 c -0.609,-3.24 -0.143,-6.58 1.512,-9.93 z"
         style="fill:#d2d1d1"
         id="path1478" />
      <path
         d="m 1703.608,1550.145 h -73.552 c 0.266,0.83 0.462,1.66 0.587,2.48 h 72.378 c 0.125,-0.82 0.321,-1.65 0.587,-2.48 z"
         style="fill:#f0f0f0"
         id="path1482" />
      <path
         d="m 1703.608,1668.002 h -73.552 c 0.266,0.83 0.462,1.66 0.587,2.48 h 72.378 c 0.125,-0.82 0.321,-1.65 0.587,-2.48 z"
         style="fill:#f0f0f0"
         id="path1486" />
      <path
         d="m 1625.406,1660.205 77.166,-5.68 5.686,-87.41 v 93.09 z"
         style="fill:#d6d6d6"
         id="path1490" />
      <rect
         x="1411.7776"
         y="1567.604"
         width="82.852516"
         height="93.086174"
         style="fill:#e6dfdf;stroke-width:1.34667"
         id="rect1494" />
      <path
         d="m 1411.78,1567.602 77.166,5.68 5.686,87.41 v -93.09 z"
         style="fill:#d6d6d6"
         id="path1498" />
      <path
         d="m 1494.631,1660.685 -77.166,-5.68 -5.686,-87.41 v 93.09 z"
         style="fill:#f8f8f8"
         id="path1502" />
      <path
         d="m 1494.631,1567.602 -77.166,5.68 -5.686,87.41 v -93.09 z"
         style="fill:#f8f8f8"
         id="path1506" />
      <path
         d="m 1490.994,1548.152 h -75.576 c 1.655,3.35 2.121,6.69 1.512,9.93 h 72.552 c -0.609,-3.24 -0.143,-6.58 1.512,-9.93 z"
         style="fill:#d2d1d1"
         id="path1510" />
      <path
         d="m 1490.994,1666.009 h -75.576 c 1.655,3.35 2.121,6.69 1.512,9.93 h 72.552 c -0.609,-3.24 -0.143,-6.58 1.512,-9.93 z"
         style="fill:#d2d1d1"
         id="path1514" />
      <path
         d="m 1489.982,1550.632 h -73.552 c 0.266,0.83 0.462,1.66 0.587,2.48 h 72.378 c 0.125,-0.82 0.321,-1.65 0.587,-2.48 z"
         style="fill:#f0f0f0"
         id="path1518" />
      <path
         d="m 1489.982,1668.489 h -73.552 c 0.266,0.83 0.462,1.66 0.587,2.48 h 72.378 c 0.125,-0.82 0.321,-1.65 0.587,-2.48 z"
         style="fill:#f0f0f0"
         id="path1522" />
      <path
         d="m 1411.78,1660.685 77.166,-5.68 5.686,-87.41 v 93.09 z"
         style="fill:#d6d6d6"
         id="path1526" />
      <rect
         x="1518.8636"
         y="1568.146"
         width="82.852516"
         height="93.086174"
         style="fill:#e6dfdf;stroke-width:1.34667"
         id="rect1530" />
      <path
         d="m 1518.867,1568.144 77.166,5.68 5.686,87.41 v -93.09 z"
         style="fill:#d6d6d6"
         id="path1534" />
      <path
         d="m 1601.721,1661.225 -77.166,-5.68 -5.686,-87.41 v 93.09 z"
         style="fill:#f8f8f8"
         id="path1538" />
      <path
         d="m 1601.721,1568.144 -77.166,5.68 -5.686,87.41 v -93.09 z"
         style="fill:#f8f8f8"
         id="path1542" />
      <path
         d="m 1598.081,1548.694 h -75.576 c 1.655,3.35 2.121,6.69 1.512,9.93 h 72.552 c -0.609,-3.24 -0.143,-6.58 1.512,-9.93 z"
         style="fill:#d2d1d1"
         id="path1546" />
      <path
         d="m 1598.081,1666.551 h -75.576 c 1.655,3.35 2.121,6.69 1.512,9.93 h 72.552 c -0.609,-3.24 -0.143,-6.58 1.512,-9.93 z"
         style="fill:#d2d1d1"
         id="path1550" />
      <path
         d="m 1597.069,1551.174 h -73.552 c 0.266,0.83 0.462,1.66 0.587,2.48 h 72.378 c 0.125,-0.82 0.321,-1.65 0.587,-2.48 z"
         style="fill:#f0f0f0"
         id="path1554" />
      <path
         d="m 1597.069,1669.031 h -73.552 c 0.266,0.83 0.462,1.66 0.587,2.48 h 72.378 c 0.125,-0.82 0.321,-1.65 0.587,-2.48 z"
         style="fill:#f0f0f0"
         id="path1558" />
      <path
         d="m 1518.867,1661.225 77.166,-5.68 5.686,-87.41 v 93.09 z"
         style="fill:#d6d6d6"
         id="path1562" />
      <path
         d="m 1696.054,1635.1547 c -4.5263,4.5142 -10.5235,7.6247 -17.3488,8.5064 -16.4518,2.1253 -31.5358,-9.515 -33.6613,-25.968 -2.1239,-16.441 9.5069,-31.5323 25.9587,-33.6576 1.6142,-0.2085 3.2155,-0.2816 4.7927,-0.2298 -6.3888,6.3606 -9.8542,15.5187 -8.6098,25.1512 1.9167,14.8376 14.3723,25.7468 28.8685,26.1978 z"
         id="path1570"
         style="stroke-width:1.20652" />
      <path
         d="m 1750.5693,1541.8691 c 0,-2.3155 -1.8833,-4.1954 -4.1954,-4.1954 h -369.4414 c -2.3156,0 -4.1955,1.8799 -4.1955,4.1954 v 143.9608 c 0,2.3152 1.8799,4.1957 4.1955,4.1957 h 369.4414 c 2.3121,0 4.1954,-1.8805 4.1954,-4.1957 z"
         style="fill:#995e26;stroke-width:0.373093"
         id="path1574" />
      <path
         d="m 1501.111,1690.022 h -95.135 v -152.35 h 95.135 z m 107.087,0 h -95.136 v -152.35 h 95.136 z m 107.542,0 h -95.136 v -152.35 h 95.136 z"
         style="fill:#57300b"
         id="path1578" />
      <path
         d="m 1405.976,1680.682 c -11.221,1.1 -22.262,2.83 -33.233,4.42 v 0.72 c 0,0.08 0,0.16 0.01,0.24 10.97,-1.6 22.009,-3.33 33.227,-4.43 z m 309.764,0.9 v 0.93 c 11.929,-0.01 23.67,0.44 31.919,0.44 l 2.914,0.01 v -0.95 h -2.914 c -8.255,0 -19.985,-0.44 -31.919,-0.43 z m -214.629,-1.9 v 0.94 c 3.992,0.17 7.976,0.36 11.951,0.57 v -0.95 c -3.976,-0.2 -7.96,-0.39 -11.951,-0.56 z m 107.087,-9.59 v 1.02 c 4.012,1.25 8.129,2.46 12.406,3.65 v -1 c -4.276,-1.19 -8.392,-2.41 -12.406,-3.67 z m -235.455,-30.66 v 1.01 c 3.07,0.94 6.067,2.04 8.754,3.29 6.486,3.02 11.193,6.95 10.486,11.86 -0.746,5.18 -5.294,8.21 -10.945,10.07 -2.612,0.86 -5.46,1.48 -8.295,1.93 v 0.96 c 2.994,-0.47 6.013,-1.11 8.774,-2.02 6.059,-2 10.878,-5.28 11.678,-10.84 0.757,-5.25 -4.128,-9.53 -11.067,-12.77 -2.873,-1.33 -6.095,-2.5 -9.385,-3.49 z m 342.997,10.01 v 0.95 c 11.613,1.3 23.219,2.59 34.833,3.81 v -0.95 c -11.617,-1.22 -23.226,-2.51 -34.833,-3.81 z m 0,-15.44 v 1.1 c 3.199,1.53 7.599,2.82 12.663,3.91 6.675,1.43 14.505,2.51 22.17,3.35 v -0.94 c -7.559,-0.84 -15.265,-1.91 -21.844,-3.32 -5.3,-1.13 -9.867,-2.47 -12.989,-4.1 z m -107.542,1.96 v 1.17 c 0.914,0.51 1.968,0.97 3.135,1.38 2.643,0.94 5.868,1.67 9.271,2.23 v -0.95 c -3.213,-0.55 -6.251,-1.24 -8.76,-2.13 -1.409,-0.5 -2.65,-1.07 -3.646,-1.7 z m -202.222,-6.13 v -0.93 c -11.139,-0.19 -22.197,-0.94 -33.233,-2.02 v 0.95 c 11.038,1.07 22.098,1.81 33.233,2 z m 309.764,-1.06 v 0.98 c 3.932,-0.94 9.575,-1.4 10.009,-1.43 8.28,-0.64 16.547,-0.98 24.824,-1.15 v -0.94 c -8.317,0.17 -16.624,0.51 -24.946,1.15 -0.431,0.04 -5.862,0.49 -9.887,1.39 z m -95.136,-8.25 c -1.008,0.3 -1.996,0.62 -2.956,0.95 -3.745,1.3 -7.066,2.86 -9.45,4.71 v 1.36 c 2.285,-2.09 5.873,-3.8 9.95,-5.21 0.801,-0.28 1.621,-0.54 2.456,-0.8 z m -107.542,-6.98 c -3.983,0.85 -7.965,1.72 -11.951,2.6 v 0.98 c 3.987,-0.88 7.969,-1.75 11.951,-2.6 z m 202.678,-4.85 v 0.94 c 11.609,-0.56 23.236,-0.98 34.833,-1.49 v -0.94 c -11.596,0.51 -23.222,0.93 -34.833,1.49 z m -95.136,-3.95 c -4.174,0.85 -8.308,1.56 -12.406,2.23 v 0.95 c 4.099,-0.66 8.233,-1.37 12.406,-2.2 z m 95.136,-9.99 v 0.94 c 11.597,-0.82 23.196,-1.35 34.833,-1.68 v -0.94 c -11.637,0.33 -23.237,0.86 -34.833,1.68 z m -309.764,-8.95 c -11.144,1.22 -22.252,2.85 -33.233,5.54 v 0.98 c 10.979,-2.71 22.087,-4.34 33.233,-5.57 z m 309.764,-4.67 v 0.94 c 6.258,0.47 12.514,0.77 18.76,0.77 5.349,0 10.708,-0.06 16.073,-0.14 v -0.94 c -5.368,0.08 -10.726,0.14 -16.073,0.14 -6.245,0 -12.498,-0.3 -18.76,-0.77 z m -309.764,-6.59 c -0.864,0.19 -1.726,0.38 -2.585,0.59 -10.156,2.41 -20.376,4.48 -30.648,6.28 v 0.97 c 10.393,-1.82 20.733,-3.92 31.007,-6.36 0.74,-0.17 1.482,-0.34 2.226,-0.5 z m 107.086,4.39 c -3.982,0.03 -7.967,0.06 -11.951,0.12 v 0.94 c 3.983,-0.06 7.968,-0.1 11.951,-0.13 z m 107.542,-3.41 c -4.134,0.14 -8.27,0.31 -12.406,0.49 v 0.95 c 4.137,-0.2 8.271,-0.36 12.406,-0.5 z m -107.542,-21.71 c -3.97,1.27 -7.946,2.55 -11.951,3.81 v 1 c 4.005,-1.26 7.98,-2.54 11.951,-3.82 z m -107.086,-1.23 c -11.118,0.85 -22.445,1.12 -33.233,0.43 v 0.95 c 10.792,0.68 22.116,0.41 33.233,-0.44 z m 309.764,-7.98 v 0.97 c 11.612,2.35 23.081,5.37 34.833,7.59 v -0.96 c -11.749,-2.23 -23.218,-5.25 -34.833,-7.6 z m -309.764,-2.84 v -0.94 c -8.852,0.33 -17.676,0.39 -26.565,0.39 -2.18,0 -4.354,-0.16 -6.525,-0.44 -0.08,0.3 -0.129,0.62 -0.14,0.94 2.218,0.28 4.439,0.44 6.665,0.44 8.888,0 17.712,-0.06 26.565,-0.39 z m 214.628,-2.7 c -4.149,0.06 -8.288,0.14 -12.406,0.23 v 0.95 c 4.118,-0.1 8.256,-0.18 12.406,-0.24 z"
         style="fill:#673b11"
         id="path1582" />
      <path
         d="m 1494.637,1537.672 h -82.853 v 5.17 c 7.521,8.5 6.889,17.33 0,24.76 v 93.09 c 7.521,8.5 6.889,17.32 0,24.75 v 4.58 h 82.853 v -4.58 c -6.89,-7.43 -7.522,-16.25 0,-24.75 v -93.09 c -6.89,-7.43 -7.522,-16.26 0,-24.76 z m 107.086,0 h -82.852 v 5.72 c 7.521,8.5 6.889,17.32 0,24.75 v 93.09 c 7.521,8.5 6.889,17.33 0,24.76 v 4.03 h 82.852 v -4.03 c -6.889,-7.43 -7.521,-16.26 0,-24.76 v -93.09 c -6.889,-7.43 -7.521,-16.25 0,-24.75 z m 106.539,0 h -82.852 v 4.69 c 7.521,8.5 6.889,17.33 0,24.75 v 93.09 c 7.521,8.5 6.889,17.33 0,24.76 v 5.06 h 82.852 v -5.06 c -6.889,-7.43 -7.521,-16.26 0,-24.76 v -93.09 c -6.889,-7.42 -7.521,-16.25 0,-24.75 z"
         style="fill:#b6adad"
         id="path1586" />
      <rect
         x="1625.4026"
         y="1567.1171"
         width="82.852516"
         height="93.086174"
         style="fill:#e6dfdf;stroke-width:1.34667"
         id="rect1590" />
      <path
         d="m 1625.406,1567.115 77.166,5.68 5.686,87.41 v -93.09 z"
         style="fill:#d6d6d6"
         id="path1594" />
      <path
         d="m 1708.261,1660.205 -77.166,-5.68 -5.686,-87.41 v 93.09 z"
         style="fill:#f8f8f8"
         id="path1598" />
      <path
         d="m 1708.261,1567.115 -77.166,5.68 -5.686,87.41 v -93.09 z"
         style="fill:#f8f8f8"
         id="path1602" />
      <path
         d="m 1704.62,1547.665 h -75.576 c 1.655,3.35 2.121,6.69 1.512,9.93 h 72.552 c -0.609,-3.24 -0.143,-6.58 1.512,-9.93 z"
         style="fill:#d2d1d1"
         id="path1606" />
      <path
         d="m 1704.62,1665.522 h -75.576 c 1.655,3.35 2.121,6.69 1.512,9.93 h 72.552 c -0.609,-3.24 -0.143,-6.58 1.512,-9.93 z"
         style="fill:#d2d1d1"
         id="path1610" />
      <path
         d="m 1703.608,1550.145 h -73.552 c 0.266,0.83 0.462,1.66 0.587,2.48 h 72.378 c 0.125,-0.82 0.321,-1.65 0.587,-2.48 z"
         style="fill:#f0f0f0"
         id="path1614" />
      <path
         d="m 1703.608,1668.002 h -73.552 c 0.266,0.83 0.462,1.66 0.587,2.48 h 72.378 c 0.125,-0.82 0.321,-1.65 0.587,-2.48 z"
         style="fill:#f0f0f0"
         id="path1618" />
      <path
         d="m 1625.406,1660.205 77.166,-5.68 5.686,-87.41 v 93.09 z"
         style="fill:#d6d6d6"
         id="path1622" />
      <rect
         x="1411.7776"
         y="1567.604"
         width="82.852516"
         height="93.086174"
         style="fill:#e6dfdf;stroke-width:1.34667"
         id="rect1626" />
      <path
         d="m 1411.78,1567.602 77.166,5.68 5.686,87.41 v -93.09 z"
         style="fill:#d6d6d6"
         id="path1630" />
      <path
         d="m 1494.631,1660.685 -77.166,-5.68 -5.686,-87.41 v 93.09 z"
         style="fill:#f8f8f8"
         id="path1634" />
      <path
         d="m 1494.631,1567.602 -77.166,5.68 -5.686,87.41 v -93.09 z"
         style="fill:#f8f8f8"
         id="path1638" />
      <path
         d="m 1490.994,1548.152 h -75.576 c 1.655,3.35 2.121,6.69 1.512,9.93 h 72.552 c -0.609,-3.24 -0.143,-6.58 1.512,-9.93 z"
         style="fill:#d2d1d1"
         id="path1642" />
      <path
         d="m 1490.994,1666.009 h -75.576 c 1.655,3.35 2.121,6.69 1.512,9.93 h 72.552 c -0.609,-3.24 -0.143,-6.58 1.512,-9.93 z"
         style="fill:#d2d1d1"
         id="path1646" />
      <path
         d="m 1489.982,1550.632 h -73.552 c 0.266,0.83 0.462,1.66 0.587,2.48 h 72.378 c 0.125,-0.82 0.321,-1.65 0.587,-2.48 z"
         style="fill:#f0f0f0"
         id="path1650" />
      <path
         d="m 1489.982,1668.489 h -73.552 c 0.266,0.83 0.462,1.66 0.587,2.48 h 72.378 c 0.125,-0.82 0.321,-1.65 0.587,-2.48 z"
         style="fill:#f0f0f0"
         id="path1654" />
      <path
         d="m 1411.78,1660.685 77.166,-5.68 5.686,-87.41 v 93.09 z"
         style="fill:#d6d6d6"
         id="path1658" />
      <rect
         x="1518.8636"
         y="1568.146"
         width="82.852516"
         height="93.086174"
         style="fill:#e6dfdf;stroke-width:1.34667"
         id="rect1662" />
      <path
         d="m 1518.867,1568.144 77.166,5.68 5.686,87.41 v -93.09 z"
         style="fill:#d6d6d6"
         id="path1666" />
      <path
         d="m 1601.721,1661.225 -77.166,-5.68 -5.686,-87.41 v 93.09 z"
         style="fill:#f8f8f8"
         id="path1670" />
      <path
         d="m 1601.721,1568.144 -77.166,5.68 -5.686,87.41 v -93.09 z"
         style="fill:#f8f8f8"
         id="path1674" />
      <path
         d="m 1598.081,1548.694 h -75.576 c 1.655,3.35 2.121,6.69 1.512,9.93 h 72.552 c -0.609,-3.24 -0.143,-6.58 1.512,-9.93 z"
         style="fill:#d2d1d1"
         id="path1678" />
      <path
         d="m 1598.081,1666.551 h -75.576 c 1.655,3.35 2.121,6.69 1.512,9.93 h 72.552 c -0.609,-3.24 -0.143,-6.58 1.512,-9.93 z"
         style="fill:#d2d1d1"
         id="path1682" />
      <path
         d="m 1597.069,1551.174 h -73.552 c 0.266,0.83 0.462,1.66 0.587,2.48 h 72.378 c 0.125,-0.82 0.321,-1.65 0.587,-2.48 z"
         style="fill:#f0f0f0"
         id="path1686" />
      <path
         d="m 1597.069,1669.031 h -73.552 c 0.266,0.83 0.462,1.66 0.587,2.48 h 72.378 c 0.125,-0.82 0.321,-1.65 0.587,-2.48 z"
         style="fill:#f0f0f0"
         id="path1690" />
      <path
         d="m 1518.867,1661.225 77.166,-5.68 5.686,-87.41 v 93.09 z"
         style="fill:#d6d6d6"
         id="path1694" />
      <path
         d="m 1696.054,1635.1547 c -4.5263,4.5142 -10.5235,7.6247 -17.3488,8.5064 -16.4518,2.1253 -31.5358,-9.515 -33.6613,-25.968 -2.1239,-16.441 9.5069,-31.5323 25.9587,-33.6576 1.6142,-0.2085 3.2155,-0.2816 4.7927,-0.2298 -6.3888,6.3606 -9.8542,15.5187 -8.6098,25.1512 1.9167,14.8376 14.3723,25.7468 28.8685,26.1978 z"
         id="path1698"
         style="stroke-width:1.20652" />
      <path
         d="m 1453.207,1583.825 7.66,23.574 h 24.789 l -20.055,14.57 7.66,23.58 -20.054,-14.57 -20.055,14.57 7.66,-23.58 -20.054,-14.57 h 24.789 z"
         id="path1702" />
    </g>
  </g>
</svg>
