<?xml version="1.0" encoding="UTF-8" standalone="no"?>
<svg
   xmlns:dc="http://purl.org/dc/elements/1.1/"
   xmlns:cc="http://creativecommons.org/ns#"
   xmlns:rdf="http://www.w3.org/1999/02/22-rdf-syntax-ns#"
   xmlns:svg="http://www.w3.org/2000/svg"
   xmlns="http://www.w3.org/2000/svg"
   xmlns:sodipodi="http://sodipodi.sourceforge.net/DTD/sodipodi-0.dtd"
   xmlns:inkscape="http://www.inkscape.org/namespaces/inkscape"
   inkscape:version="1.0 (4035a4fb49, 2020-05-01)"
   sodipodi:docname="2022-PH-03-field04.svg"
   id="svg5450"
   version="1.1"
   viewBox="0 0 29.170293 25.04745"
   height="25.047449mm"
   width="29.170294mm">
  <defs
     id="defs5444" />
  <sodipodi:namedview
     showgrid="false"
     inkscape:document-rotation="0"
     inkscape:current-layer="layer1"
     inkscape:document-units="mm"
     inkscape:cy="560"
     inkscape:cx="400"
     inkscape:zoom="0.35"
     inkscape:pageshadow="2"
     inkscape:pageopacity="0.0"
     borderopacity="1.0"
     bordercolor="#666666"
     pagecolor="#ffffff"
     id="base" />
  <metadata
     id="metadata5447">
    <rdf:RDF>
      <cc:Work
         rdf:about="">
        <dc:format>image/svg+xml</dc:format>
        <dc:type
           rdf:resource="http://purl.org/dc/dcmitype/StillImage" />
        <dc:title></dc:title>
      </cc:Work>
    </rdf:RDF>
  </metadata>
  <g
     transform="translate(-90.156481,-135.90135)"
     id="layer1"
     inkscape:groupmode="layer"
     inkscape:label="Ebene 1">
    <g
       style="clip-rule:evenodd;fill-rule:evenodd;stroke-linecap:round;stroke-linejoin:round;stroke-miterlimit:1.5"
       transform="matrix(0.26458333,0,0,0.26458333,-129.0992,-295.63709)"
       id="g1367">
      <g
         transform="matrix(1.61161,0,0,1.66244,735.812,239.346)"
         id="g1347" />
      <g
         transform="matrix(0.546954,0,0,0.546954,653.345,1057.72)"
         id="g1365">
        <g
           transform="matrix(0.833337,0,0,1,-237.821,-93.9973)"
           id="g1351">
          <path
             d="m 827.187,1210.73 c -10.258,9.87 -7.501,29.99 -1.14,46.47 2.939,7.62 6.647,14.46 10.197,19.16 10.167,13.45 3.587,24.59 -11.89,29.13 -23.483,6.88 -59.542,0.92 -62.791,-16.51 -4.534,-24.31 8.229,-44.09 -0.145,-78.25"
             style="fill:#9b5c14"
             id="path1349" />
        </g>
        <g
           transform="matrix(0.833337,0,0,1,-237.821,-93.9973)"
           id="g1355">
          <path
             d="m 811.765,1210.73 15.048,1.18 c -5.732,8.23 7.243,58.42 9.431,64.45 5.758,15.85 3.587,24.59 -11.89,29.13 -16.849,4.93 -40.172,3.26 -53.206,-4.51 12.457,2.93 27.589,2.74 39.49,-0.75 15.477,-4.53 17.648,-13.28 11.89,-29.13 -1.917,-5.28 -13.302,-43.97 -10.763,-60.37 z"
             style="fill:#6f410d"
             id="path1353" />
        </g>
        <g
           transform="matrix(0.848537,0.0240582,0.0150208,0.836055,-261.744,181.083)"
           id="g1359">
          <path
             d="m 882.7,1088.4 c 0.182,-3.32 -17.215,-37.27 -22.346,-42.01 -20.957,-19.34 -35.685,-22.06 -62.567,-24.13 -43.876,-3.38 -97.141,28.75 -101.002,75.08 -0.623,7.47 -6.069,18.94 -4.022,26.81 5.924,22.79 188.354,-6.94 189.937,-35.75 z"
             style="fill:#cd900b"
             id="path1357" />
        </g>
        <g
           transform="matrix(0.824413,-0.101365,0.122035,0.992526,-357.951,86.7224)"
           id="g1363">
          <path
             d="m 874.118,1110.29 c -4.253,5.31 -8.99,14.42 -27.072,16.93 -50.928,7.06 -146.259,-1.86 -159.483,-13.9 -1.34,1.06 -5.688,11.14 -4.406,15.25 4.768,15.25 124.827,19.55 174.968,7.87 12.682,-2.96 19.761,-8.61 20.694,-13.4 0.138,-0.72 -3.299,-9.25 -4.701,-12.75 z"
             style="fill:#b9820a"
             id="path1361" />
        </g>
      </g>
    </g>
    <g
       style="clip-rule:evenodd;fill-rule:evenodd;stroke-linecap:round;stroke-linejoin:round;stroke-miterlimit:1.5"
       transform="matrix(0.42640515,0,0,0.43985392,65.584389,-232.31014)"
       id="g1666" />
  </g>
</svg>
