<?xml version="1.0" encoding="UTF-8" standalone="no"?>
<!-- Created with Inkscape (http://www.inkscape.org/) -->

<svg
   width="144.9953mm"
   height="193.02509mm"
   viewBox="0 0 144.9953 193.02509"
   version="1.1"
   id="svg2737"
   sodipodi:docname="2022-KR-06-taskbodyD.svg"
   inkscape:version="1.1.1 (3bf5ae0d25, 2021-09-20)"
   xmlns:inkscape="http://www.inkscape.org/namespaces/inkscape"
   xmlns:sodipodi="http://sodipodi.sourceforge.net/DTD/sodipodi-0.dtd"
   xmlns="http://www.w3.org/2000/svg"
   xmlns:svg="http://www.w3.org/2000/svg">
  <sodipodi:namedview
     id="namedview2739"
     pagecolor="#ffffff"
     bordercolor="#666666"
     borderopacity="1.0"
     inkscape:pageshadow="2"
     inkscape:pageopacity="0.0"
     inkscape:pagecheckerboard="0"
     inkscape:document-units="mm"
     showgrid="false"
     inkscape:zoom="0.16592137"
     inkscape:cx="-678.03202"
     inkscape:cy="1521.8052"
     inkscape:window-width="1920"
     inkscape:window-height="1137"
     inkscape:window-x="-8"
     inkscape:window-y="-8"
     inkscape:window-maximized="1"
     inkscape:current-layer="layer1" />
  <defs
     id="defs2734" />
  <g
     inkscape:label="Ebene 1"
     inkscape:groupmode="layer"
     id="layer1"
     transform="translate(-32.502346,-51.987456)">
    <g
       id="g4558"
       transform="translate(101.94483,93.468463)">
      <path
         d="m -1.857084,100.73603 c -9.34974,3.67485 -19.000417,10.92655 -24.129153,20.45086 -3.28938,6.10605 -6.08002,13.40085 -10.46099,18.58801 -5.086562,6.02337 -13.018188,7.07739 -18.051198,-0.81619 -5.46055,-8.56623 -2.670836,-20.95174 3.60254,-27.0279 8.758952,-8.48534 22.424152,-11.29125 33.519639,-14.55848 2.05523,-0.60519 12.54117,-2.05145 14.680115,-1.07707 1.226264,0.55867 1.626817,4.13046 0.839047,4.44077 z"
         style="clip-rule:evenodd;fill:#704306;fill-rule:evenodd;stroke:#000000;stroke-width:2.94807px;stroke-linecap:round;stroke-linejoin:round;stroke-miterlimit:4"
         id="path1197" />
      <path
         d="m -15.446058,106.05095 c -1.616657,-1.5386 -3.878712,-2.50296 -5.302647,-4.21029"
         style="clip-rule:evenodd;fill:none;fill-rule:evenodd;stroke:#000000;stroke-width:1.16591px;stroke-linecap:round;stroke-linejoin:round;stroke-miterlimit:4"
         id="path1200" />
      <path
         d="m -23.652824,115.31936 c -3.061176,-3.67255 -8.053705,-5.36448 -11.085909,-8.99893"
         style="clip-rule:evenodd;fill:none;fill-rule:evenodd;stroke:#000000;stroke-width:2.43176px;stroke-linecap:round;stroke-linejoin:round;stroke-miterlimit:4"
         id="path1203" />
      <path
         d="m -30.232059,123.74851 c -5.631789,1.65848 -12.986491,-3.99947 -17.41633,-8.21495"
         style="clip-rule:evenodd;fill:none;fill-rule:evenodd;stroke:#000000;stroke-width:3.38114px;stroke-linecap:round;stroke-linejoin:round;stroke-miterlimit:4"
         id="path1206" />
      <path
         d="m -34.965508,136.32211 c -3.95724,1.16531 -14.209712,-3.51059 -17.025593,-6.88805"
         style="clip-rule:evenodd;fill:none;fill-rule:evenodd;stroke:#000000;stroke-width:3.19791px;stroke-linecap:round;stroke-linejoin:round;stroke-miterlimit:4"
         id="path1209" />
      <path
         d="m -44.240767,143.02118 c -2.800906,-9.51159 -4.826953,-19.33369 -3.607938,-29.23254"
         style="clip-rule:evenodd;fill:none;fill-rule:evenodd;stroke:#000000;stroke-width:2.94807px;stroke-linecap:round;stroke-linejoin:round;stroke-miterlimit:4"
         id="path1212" />
      <path
         d="m -34.878275,134.49432 c -1.740905,-5.91188 -3.120257,-22.11006 -0.814387,-27.17107"
         style="clip-rule:evenodd;fill:none;fill-rule:evenodd;stroke:#000000;stroke-width:3.34783px;stroke-linecap:round;stroke-linejoin:round;stroke-miterlimit:4"
         id="path1215" />
      <path
         d="m -26.70138,119.82294 c 0.678577,-5.50514 2.177918,-12.78904 5.287275,-17.06428"
         style="clip-rule:evenodd;fill:none;fill-rule:evenodd;stroke:#000000;stroke-width:3.03136px;stroke-linecap:round;stroke-linejoin:round;stroke-miterlimit:4"
         id="path1218" />
      <path
         d="m 18.329618,105.74798 c -0.30779,0.0322 -0.69969,-0.60841 -0.864314,-0.34536 -0.578009,0.92336 0.09305,4.07286 0,5.18948 -0.289904,3.46623 -0.790946,6.90917 -1.037908,10.37897 -0.372215,5.202 -0.177165,10.39865 -1.037881,15.56845 -0.15748,0.9538 -1.567603,5.78001 -1.037907,6.57455 0.216535,0.32388 9.518226,0.53327 10.378969,0.69073 10.985606,1.99707 21.700992,8.32823 32.867335,5.53664 1.143476,-0.28631 2.431891,-0.21474 3.460856,-1.03968 0.966311,-0.77306 1.746514,-3.05641 2.075788,-4.1498 2.279783,-7.60349 -5.117914,-12.83055 -11.764036,-13.49444 -6.152224,-0.61381 -12.324133,0.22725 -18.336763,1.73043 -3.052841,0.76409 -5.688753,1.83062 -8.65034,2.42294 -0.250534,0.0501 -0.547582,0.55833 -0.690748,0.34536 -0.866087,-1.29915 -0.127053,-5.04274 -0.34536,-6.57275 -0.730118,-5.11431 0.0322,-10.88538 1.037907,-15.91561 0.336418,-1.68569 1.408298,-4.78327 0.692521,-6.57275 -0.62275,-1.55507 -5.558129,-0.46527 -6.748119,-0.34716 z"
         style="clip-rule:evenodd;fill:#ffa98c;fill-rule:evenodd;stroke:#000000;stroke-width:2.97053px;stroke-linecap:round;stroke-linejoin:round;stroke-miterlimit:4"
         id="path1223" />
      <path
         d="m 3.453685,105.67675 c 4.133691,2.22792 1.903995,12.24362 1.903995,16.60636 0,5.41139 1.037907,10.76193 1.037907,16.26098 0,0.70863 0.198623,4.05137 -0.69252,4.49696 -0.778431,0.3901 -2.922217,0.22191 -3.806217,0.34716 -3.528853,0.50284 -6.835801,1.33495 -10.378969,1.73043 -8.138556,0.90368 -18.218679,3.78653 -25.256701,-2.07579 -4.087151,-3.40897 -7.3279,-14.29793 -0.690721,-16.95352 6.153996,-2.46232 16.366542,0.98422 22.142979,3.45905 0.8178,0.35254 9.677505,4.15875 9.686448,4.15338 0.58338,-0.3901 0.34716,-8.28347 0.34716,-9.34286 0,-4.8441 0.669264,-9.418 -0.69252,-14.18519 -0.252334,-0.87682 -1.483493,-3.39463 -0.34716,-4.15157 1.143476,-0.76232 5.407792,-1.06834 6.746319,-0.34539 z"
         style="clip-rule:evenodd;fill:#ffa98c;fill-rule:evenodd;stroke:#000000;stroke-width:2.97053px;stroke-linecap:round;stroke-linejoin:round;stroke-miterlimit:4"
         id="path1226" />
      <path
         d="m -29.961628,131.50985 c 0.895217,-3.04015 4.424627,-4.82873 7.123773,-4.03403"
         style="clip-rule:evenodd;fill:none;fill-rule:evenodd;stroke:#000000;stroke-width:3.04803px;stroke-linecap:round;stroke-linejoin:round;stroke-miterlimit:4"
         id="path1229" />
      <path
         d="m 60.110342,146.62663 c 1.657059,-3.31412 -4.470109,-5.86769 -6.574551,-6.91991"
         style="clip-rule:evenodd;fill:#f1c94c;fill-opacity:0.01;fill-rule:evenodd;stroke:#000000;stroke-width:4.02632px;stroke-linecap:round;stroke-linejoin:round;stroke-miterlimit:4"
         id="path1232" />
      <path
         d="m 22.629732,63.3295 c 0.05368,-1.83422 15.223093,6.01443 18.358247,7.71086 7.345812,3.97621 9.489599,1.27947 17.06626,0.33462 0.917998,-0.11451 2.80588,1.47632 2.546429,2.49094 -0.529696,2.0597 -4.556019,2.88822 -3.98698,4.79581 0.191479,0.64601 1.057593,0.84643 1.487065,1.36179 2.353177,2.82739 6.048427,9.37508 5.373793,13.20099 -0.518927,2.94727 -4.119377,0.13599 -5.135801,-0.27559 -5.005149,-2.03105 -4.89958,-7.16328 -8.759481,-10.02644 -5.819378,-4.31443 -14.641512,-4.86201 -20.859935,-8.22801 -1.50495,-0.81601 -3.378543,-0.69612 -4.86738,-1.80023 -3.097583,-2.29589 -1.320642,-6.23096 -1.222217,-9.56474 z"
         style="clip-rule:evenodd;fill:#ffa98c;fill-rule:evenodd;stroke:#000000;stroke-width:2.97053px;stroke-linecap:round;stroke-linejoin:round;stroke-miterlimit:4"
         id="path1235" />
      <path
         d="m 1.764426,65.76496 c -2.861389,-1.38326 -5.180541,0.66927 -8.129613,1.03611 -4.371684,0.54758 -8.766652,0.89832 -13.147278,1.38507 -3.151267,0.35073 -6.030542,1.72863 -9.341088,1.72863 -1.771571,0 -9.59874,-0.3919 -10.033582,0.69252 -2.027476,5.0714 6.123596,3.99592 7.612432,6.22739 0.406215,0.61201 -0.413358,1.10591 -0.69252,1.38504 -1.139904,1.13991 -8.124243,10.25014 -4.844124,11.06972 5.516959,1.37969 13.004139,-9.53074 17.298882,-12.1076 4.940749,-2.96516 10.491708,-2.90253 15.915613,-3.80622 1.746541,-0.2917 4.690216,0.76946 6.227392,0 2.249355,-1.12559 0.722947,-6.84297 -0.866114,-7.61066 z"
         style="clip-rule:evenodd;fill:#ffa98c;fill-rule:evenodd;stroke:#000000;stroke-width:2.97053px;stroke-linecap:round;stroke-linejoin:round;stroke-miterlimit:4"
         id="path1238" />
      <path
         d="m 26.548688,61.35571 c 0.944853,-0.35433 1.399381,3.63979 1.556834,4.6723 0.799915,5.19486 1.674972,10.33426 2.077588,15.56846 1.39401,18.12742 5.851604,36.09556 -16.260974,42.89917 -16.497194,5.07674 -29.433334,-9.76162 -28.023211,-25.25491 0.782003,-8.60917 6.417045,-15.38414 9.341062,-23.18088 1.052221,-2.80771 3.28549,-12.97374 5.189484,-14.87594 2.023904,-2.0257 6.293591,-0.73906 8.648541,-0.34715 3.682762,0.61378 14.156558,1.76799 17.470676,0.51895 z"
         style="clip-rule:evenodd;fill:#ffa98c;fill-rule:evenodd;stroke:#000000;stroke-width:2.97053px;stroke-linecap:round;stroke-linejoin:round;stroke-miterlimit:4"
         id="path1241" />
      <path
         d="m -15.782396,16.53143 c -2.618872,-2.05952 -4.922017,-1.64756 -8.132842,-1.33334"
         style="clip-rule:evenodd;fill:#e6b728;fill-rule:evenodd;stroke:#000000;stroke-width:2.9468px;stroke-linecap:round;stroke-linejoin:round;stroke-miterlimit:4"
         id="path1250" />
      <path
         d="m 42.110262,15.84894 c 3.073003,-1.86037 3.287422,-3.09081 7.21741,-3.47517"
         style="clip-rule:evenodd;fill:none;fill-rule:evenodd;stroke:#000000;stroke-width:2.9468px;stroke-linecap:round;stroke-linejoin:round;stroke-miterlimit:4"
         id="path1253" />
      <path
         d="m 26.564325,33.01878 c -2.595933,-2.45732 -14.92332,-1.02589 -13.479674,4.19346 2.604743,9.41946 17.869429,-0.0429 13.479674,-4.19346 z"
         style="clip-rule:evenodd;fill:#070400;fill-rule:evenodd;stroke:#000000;stroke-width:2.9468px;stroke-linecap:round;stroke-linejoin:round;stroke-miterlimit:4"
         id="path1256" />
      <path
         d="m 25.773776,29.96771 c 0.98679,-0.0966 -1.052301,-0.018 -1.32625,-0.0196 -1.468279,-0.0555 -2.873561,-0.018 -4.351788,0.12706 -3.514486,0.34377 -10.164974,0.85912 -7.352453,6.09406 1.678332,3.12407 7.646247,5.51286 10.888742,2.96625 1.761755,-1.38308 3.704563,-4.44791 3.868446,-6.64845 0.05673,-0.75391 0.0037,-2.29823 -1.017058,-2.43906 -0.06551,-0.018 -1.423458,-0.018 -0.709639,-0.0805 z"
         style="clip-rule:evenodd;fill-rule:evenodd;stroke:#000000;stroke-width:2.9468px;stroke-linecap:round;stroke-linejoin:round;stroke-miterlimit:4"
         id="path1259" />
      <path
         d="m 62.732575,25.03593 c -4.080854,0.9724 -16.524049,8.11956 -17.450382,11.95425"
         style="clip-rule:evenodd;fill:none;fill-rule:evenodd;stroke:#000000;stroke-width:2.9468px;stroke-linecap:round;stroke-linejoin:round;stroke-miterlimit:4"
         id="path1262" />
      <path
         d="M -11.892677,40.31001 C -14.68337,36.91985 -30.155912,32.87704 -34.554716,34.42012"
         style="clip-rule:evenodd;fill:none;fill-rule:evenodd;stroke:#000000;stroke-width:2.9468px;stroke-linecap:round;stroke-linejoin:round;stroke-miterlimit:4"
         id="path1265" />
      <path
         d="m 49.137146,44.18137 c 2.528993,-2.28106 7.397009,-1.66638 10.323882,-0.6775 0.688314,0.23263 4.309454,2.31273 3.983964,2.40774"
         style="clip-rule:evenodd;fill:none;fill-rule:evenodd;stroke:#000000;stroke-width:2.9468px;stroke-linecap:round;stroke-linejoin:round;stroke-miterlimit:4"
         id="path1268" />
      <path
         d="m -12.20978,47.76121 c 1.323895,0.0501 -3.105785,-0.83873 -3.370977,-0.8695 -1.452616,-0.1718 -2.579952,-0.24607 -4.019629,-0.2983 -6.003687,-0.22547 -10.515151,1.08657 -15.559458,4.02971"
         style="clip-rule:evenodd;fill:none;fill-rule:evenodd;stroke:#000000;stroke-width:2.9468px;stroke-linecap:round;stroke-linejoin:round;stroke-miterlimit:4"
         id="path1271" />
      <path
         d="m 27.396201,48.95389 c 1.648434,0.49067 -1.263756,8.12906 -2.418186,9.47352 -0.695907,0.80991 -8.518234,1.73524 -9.591145,1.18946 -0.902944,-0.45937 -2.125054,-8.85058 -1.539029,-9.0238 1.661319,-0.48996 12.686215,-1.89595 13.54836,-1.63918 z"
         style="clip-rule:evenodd;fill:#fafaf9;fill-rule:evenodd;stroke:#000000;stroke-width:2.94542px;stroke-linecap:round;stroke-linejoin:round;stroke-miterlimit:4"
         id="path1274" />
      <path
         d="m 20.758996,50.16825 c 0.199363,2.03819 0.419047,6.38575 -0.366078,8.33073"
         style="clip-rule:evenodd;fill:#fafaf9;fill-rule:evenodd;stroke:#000000;stroke-width:2.94542px;stroke-linecap:round;stroke-linejoin:round;stroke-miterlimit:4"
         id="path1277" />
      <path
         d="m 37.605916,23.13014 c -0.113268,-1.15851 -1.211977,-1.99885 -2.453164,-1.87754 -1.24116,0.12168 -2.156116,1.15888 -2.042795,2.31738 0.113454,1.15959 1.211977,1.99885 2.453164,1.87751 1.241187,-0.12168 2.156248,-1.1576 2.042795,-2.31735 z"
         style="clip-rule:evenodd;fill-rule:evenodd;stroke:#000000;stroke-width:2.9468px;stroke-linecap:round;stroke-linejoin:round;stroke-miterlimit:4"
         id="path1286" />
      <path
         d="m -2.951957,27.49949 c -0.116496,-1.19036 -1.269523,-2.05128 -2.577306,-1.92333 -1.307756,0.12885 -2.273459,1.1961 -2.157042,2.38646 0.116337,1.18909 1.270741,2.04983 2.578497,1.92188 1.307782,-0.12883 2.272162,-1.19607 2.155851,-2.38501 z"
         style="clip-rule:evenodd;fill:#080500;fill-rule:evenodd;stroke:#000000;stroke-width:2.9468px;stroke-linecap:round;stroke-linejoin:round;stroke-miterlimit:4"
         id="path1289" />
      <path
         d="m -11.512365,15.23926 c -0.71329,4.50053 -4.177004,10.03646 -8.080613,12.82036 -5.373079,3.82928 -9.846945,-10.74727 -9.170273,-14.22009 1.605015,-8.24949 18.355468,-5.57458 17.250886,1.39973 z"
         style="font-variation-settings:normal;clip-rule:evenodd;vector-effect:none;fill:#ffa98c;fill-opacity:1;fill-rule:evenodd;stroke:#000000;stroke-width:2.9468px;stroke-linecap:butt;stroke-linejoin:miter;stroke-miterlimit:4;stroke-dasharray:none;stroke-dashoffset:0;stroke-opacity:1;-inkscape-stroke:none;stop-color:#000000"
         id="path1298" />
      <path
         d="m 37.305164,12.16655 c -1.459971,-0.49356 8.067913,-7.76902 10.358332,-7.71999 5.987653,0.13062 6.755738,5.45325 7.194788,9.94143 0.169465,1.73257 -0.06676,3.67487 -1.045607,5.21311 -5.249942,8.24931 -14.076918,-6.61231 -16.507513,-7.43455 z"
         style="font-variation-settings:normal;clip-rule:evenodd;vector-effect:none;fill:#ffa98c;fill-opacity:1;fill-rule:evenodd;stroke:#000000;stroke-width:2.9468px;stroke-linecap:butt;stroke-linejoin:miter;stroke-miterlimit:4;stroke-dasharray:none;stroke-dashoffset:0;stroke-opacity:1;-inkscape-stroke:none;stop-color:#000000"
         id="path1301" />
      <path
         d="m -15.782396,16.53143 c -2.618872,-2.05952 -4.922017,-1.64756 -8.132842,-1.33334"
         style="clip-rule:evenodd;fill:#e6b728;fill-rule:evenodd;stroke:#000000;stroke-width:2.9468px;stroke-linecap:round;stroke-linejoin:round;stroke-miterlimit:4"
         id="path1304" />
      <path
         d="m 42.110262,15.84894 c 3.073003,-1.86037 3.287422,-3.09081 7.21741,-3.47517"
         style="clip-rule:evenodd;fill:none;fill-rule:evenodd;stroke:#000000;stroke-width:2.9468px;stroke-linecap:round;stroke-linejoin:round;stroke-miterlimit:4"
         id="path1307" />
      <path
         d="m 26.564325,33.01878 c -2.595933,-2.45732 -14.92332,-1.02589 -13.479674,4.19346 2.604743,9.41946 17.869429,-0.0429 13.479674,-4.19346 z"
         style="clip-rule:evenodd;fill:#070400;fill-rule:evenodd;stroke:#000000;stroke-width:2.9468px;stroke-linecap:round;stroke-linejoin:round;stroke-miterlimit:4"
         id="path1310" />
      <path
         d="m 10.20527,-5.32043 c 1.875525,0.30226 4.041457,5.35951 4.683654,6.11071 0.105568,0 0.212831,0.018 0.31832,0.0251 0.437594,-0.28237 3.827118,-4.48694 5.120031,-4.43683 0.542608,0.0214 0.552265,4.35343 4.198911,6.15794 0.35896,0.17897 0.733055,0.34682 1.168533,0.46921 1.143899,0.40961 2.2851,0.80545 3.321261,1.30953 13.105209,6.36876 36.487867,33.87786 24.175773,48.30231 -5.770774,6.75976 -25.937448,11.45283 -34.112332,12.02581 -8.922517,0.6267 -36.796503,5.39494 -46.46332,-15.64682 -5.107622,-11.11803 5.847292,-31.18379 14.180397,-38.00099 2.20464,-1.8038 5.150749,-4.08197 9.102328,-6.0733 2.774368,-3.0303 3.218868,-6.14185 2.725869,-7.14073 -0.03366,-0.0698 -0.95197,-1.33406 -0.577876,-1.49548 1.242166,-0.53755 2.929281,0.31226 4.622588,1.37665 1.864969,1.16996 3.743457,2.61551 5.080582,2.8016 1.8238,0.25447 0.99187,-5.03397 1.669574,-5.56903 0.255931,-0.20148 0.50718,-0.25821 0.785707,-0.21474 z"
         style="clip-rule:evenodd;fill:#ffa98c;fill-rule:evenodd;stroke:#000000;stroke-width:2.9468px;stroke-linecap:round;stroke-linejoin:round;stroke-miterlimit:4"
         id="path1313" />
      <path
         d="m 25.773776,29.96771 c 0.98679,-0.0966 -1.052301,-0.018 -1.32625,-0.0196 -1.468279,-0.0555 -2.873561,-0.018 -4.351788,0.12706 -3.514486,0.34377 -10.164974,0.85912 -7.352453,6.09406 1.678332,3.12407 7.646247,5.51286 10.888742,2.96625 1.761755,-1.38308 3.704563,-4.44791 3.868446,-6.64845 0.05673,-0.75391 0.0037,-2.29823 -1.017058,-2.43906 -0.06551,-0.018 -1.423458,-0.018 -0.709639,-0.0805 z"
         style="clip-rule:evenodd;fill-rule:evenodd;stroke:#000000;stroke-width:2.9468px;stroke-linecap:round;stroke-linejoin:round;stroke-miterlimit:4"
         id="path1316" />
      <path
         d="m 62.732575,25.03593 c -4.080854,0.9724 -16.524049,8.11956 -17.450382,11.95425"
         style="clip-rule:evenodd;fill:none;fill-rule:evenodd;stroke:#000000;stroke-width:2.9468px;stroke-linecap:round;stroke-linejoin:round;stroke-miterlimit:4"
         id="path1319" />
      <path
         d="M -11.892677,40.31001 C -14.68337,36.91985 -30.155912,32.87704 -34.554716,34.42012"
         style="clip-rule:evenodd;fill:none;fill-rule:evenodd;stroke:#000000;stroke-width:2.9468px;stroke-linecap:round;stroke-linejoin:round;stroke-miterlimit:4"
         id="path1322" />
      <path
         d="m 49.137146,44.18137 c 2.528993,-2.28106 7.397009,-1.66638 10.323882,-0.6775 0.688314,0.23263 4.309454,2.31273 3.983964,2.40774"
         style="clip-rule:evenodd;fill:none;fill-rule:evenodd;stroke:#000000;stroke-width:2.9468px;stroke-linecap:round;stroke-linejoin:round;stroke-miterlimit:4"
         id="path1325" />
      <path
         d="m -12.20978,47.76121 c 1.323895,0.0501 -3.105785,-0.83873 -3.370977,-0.8695 -1.452616,-0.1718 -2.579952,-0.24607 -4.019629,-0.2983 -6.003687,-0.22547 -10.515151,1.08657 -15.559458,4.02971"
         style="clip-rule:evenodd;fill:none;fill-rule:evenodd;stroke:#000000;stroke-width:2.9468px;stroke-linecap:round;stroke-linejoin:round;stroke-miterlimit:4"
         id="path1328" />
      <path
         d="m 27.396201,48.95389 c 1.648434,0.49067 -1.263756,8.12906 -2.418186,9.47352 -0.695907,0.80991 -8.518234,1.73524 -9.591145,1.18946 -0.902944,-0.45937 -2.125054,-8.85058 -1.539029,-9.0238 1.661319,-0.48996 12.686215,-1.89595 13.54836,-1.63918 z"
         style="clip-rule:evenodd;fill:#fafaf9;fill-rule:evenodd;stroke:#000000;stroke-width:2.94542px;stroke-linecap:round;stroke-linejoin:round;stroke-miterlimit:4"
         id="path1331" />
      <path
         d="m 20.758996,50.16825 c 0.199363,2.03819 0.419047,6.38575 -0.366078,8.33073"
         style="clip-rule:evenodd;fill:#fafaf9;fill-rule:evenodd;stroke:#000000;stroke-width:2.94542px;stroke-linecap:round;stroke-linejoin:round;stroke-miterlimit:4"
         id="path1334" />
      <path
         d="m 33.401449,43.99097 c -2.584185,3.58611 -6.247712,5.73223 -12.572894,6.42565 -4.929849,0.54025 -9.763151,0.19775 -14.257549,-3.12621"
         style="clip-rule:evenodd;fill:none;fill-rule:evenodd;stroke:#000000;stroke-width:2.9468px;stroke-linecap:round;stroke-linejoin:round;stroke-miterlimit:4"
         id="path1337" />
      <path
         d="m 37.605916,23.13014 c -0.113268,-1.15851 -1.211977,-1.99885 -2.453164,-1.87754 -1.24116,0.12168 -2.156116,1.15888 -2.042795,2.31738 0.113454,1.15959 1.211977,1.99885 2.453164,1.87751 1.241187,-0.12168 2.156248,-1.1576 2.042795,-2.31735 z"
         style="clip-rule:evenodd;fill-rule:evenodd;stroke:#000000;stroke-width:2.9468px;stroke-linecap:round;stroke-linejoin:round;stroke-miterlimit:4"
         id="path1343" />
      <path
         d="m -2.951957,27.49949 c -0.116496,-1.19036 -1.269523,-2.05128 -2.577306,-1.92333 -1.307756,0.12885 -2.273459,1.1961 -2.157042,2.38646 0.116337,1.18909 1.270741,2.04983 2.578497,1.92188 1.307782,-0.12883 2.272162,-1.19607 2.155851,-2.38501 z"
         style="clip-rule:evenodd;fill:#080500;fill-rule:evenodd;stroke:#000000;stroke-width:2.9468px;stroke-linecap:round;stroke-linejoin:round;stroke-miterlimit:4"
         id="path1346" />
      <path
         d="m -2.013506,63.64033 c 0.337608,0 4.561946,-0.41068 4.490429,-0.0805 -0.532157,2.47629 6.155557,9.51019 12.615809,8.77774 8.860684,-1.00282 10.068057,-7.4231 10.869136,-7.4231 h 17.61408 c 0.815419,0 5.272934,-0.72241 5.644885,-0.226 0.359066,0.47921 -0.02863,13.80474 -0.450638,14.2267 -1.692301,1.6923 -7.447306,0.18163 -9.484386,-0.22458 -0.330439,-0.068 -0.753878,-0.75391 -0.904108,-0.45202 -0.105754,0.21312 0.120094,0.4649 0.226033,0.6766 1.311805,2.62498 6.780716,33.64449 5.766462,36.05778 -4.034076,9.60753 -62.770093,9.1897 -60.96336,1.02431 0.194549,-0.87971 0.364781,-2.52783 0.452067,-3.38749 0.71382,-7.14555 7.794916,-29.37158 6.870806,-30.7577 -0.369067,-0.5551 -7.617565,2.68652 -8.3557,1.58064 -0.967026,-1.452 -3.895328,-18.25357 -3.16148,-18.74424 1.434836,-0.9556 13.309653,-0.90549 18.769965,-1.04847 z"
         style="clip-rule:evenodd;fill:#206300;fill-rule:evenodd;stroke:#000000;stroke-width:3.06134px;stroke-linecap:round;stroke-linejoin:round;stroke-miterlimit:10"
         id="path1357" />
      <path
         style="color:#000000;clip-rule:nonzero;fill:#fefdff;fill-rule:nonzero;stroke-width:1.78948;stroke-linecap:butt;stroke-linejoin:miter;stroke-miterlimit:10;-inkscape-stroke:none"
         d="m 11.77364,75.75349 c -1.59684,-0.0537 -3.00392,0.0304 -4.337367,0.3321 -0.666724,0.15034 -1.315376,0.32803 -2.114524,0.79328 -0.7992,0.46545 -2.17543,1.51283 -2.352198,3.56859 -0.167296,1.97522 -0.66937,9.47957 -0.842301,16.89158 -0.08644,3.70602 -0.09361,7.34491 0.09088,10.30007 0.09234,1.47757 0.220054,2.76564 0.47535,3.9669 0.127582,0.60055 0.274056,1.17999 0.580179,1.85928 0.306123,0.67945 0.724746,1.6592 2.22287,2.42922 1.649254,0.8473 2.140241,0.67479 3.362246,0.72689 1.223248,0.0519 2.71981,-0.0322 4.473707,-0.36005 3.507793,-0.65532 8.011689,-2.31166 12.956249,-5.85411 5.218195,-3.73732 6.214934,-10.45073 5.417347,-16.54228 -0.79756,-6.09137 -3.5306,-12.36673 -9.265417,-15.40275 C 18.823992,76.5471 14.967346,75.85297 11.773693,75.7465 Z m -0.265615,7.98983 c 2.145453,0.0716 5.041873,0.65048 7.192857,1.78948 2.252927,1.19267 4.525618,5.12901 5.081852,9.37721 0.556207,4.24823 -0.746178,8.00182 -2.149502,9.00681 -4.042727,2.89645 -7.42233,4.05638 -9.768707,4.49461 -0.66421,0.12348 -1.024599,0.10022 -1.509872,0.12885 -0.0553,-0.47797 -0.11811,-0.76769 -0.157294,-1.39454 -0.15748,-2.52261 -0.164095,-6.03001 -0.08035,-9.61503 0.140123,-6.00872 0.485563,-10.91814 0.685032,-13.74606 0.285248,-0.018 0.378196,-0.0537 0.705988,-0.0411 z"
         id="path1360" />
    </g>
  </g>
</svg>
