<?xml version="1.0" encoding="UTF-8" standalone="no"?>
<svg
   xmlns:dc="http://purl.org/dc/elements/1.1/"
   xmlns:cc="http://creativecommons.org/ns#"
   xmlns:rdf="http://www.w3.org/1999/02/22-rdf-syntax-ns#"
   xmlns:svg="http://www.w3.org/2000/svg"
   xmlns="http://www.w3.org/2000/svg"
   xmlns:sodipodi="http://sodipodi.sourceforge.net/DTD/sodipodi-0.dtd"
   xmlns:inkscape="http://www.inkscape.org/namespaces/inkscape"
   sodipodi:docname="2022-SK-02-taskbody.svg"
   inkscape:version="1.0 (4035a4fb49, 2020-05-01)"
   id="svg3224"
   version="1.1"
   viewBox="0 0 1404.9705 84.356056"
   height="84.356056mm"
   width="1404.9705mm">
  <defs
     id="defs3218" />
  <sodipodi:namedview
     showgrid="false"
     inkscape:document-rotation="0"
     inkscape:current-layer="layer1"
     inkscape:document-units="mm"
     inkscape:cy="560"
     inkscape:cx="400"
     inkscape:zoom="0.35"
     inkscape:pageshadow="2"
     inkscape:pageopacity="0.0"
     borderopacity="1.0"
     bordercolor="#666666"
     pagecolor="#ffffff"
     id="base" />
  <metadata
     id="metadata3221">
    <rdf:RDF>
      <cc:Work
         rdf:about="">
        <dc:format>image/svg+xml</dc:format>
        <dc:type
           rdf:resource="http://purl.org/dc/dcmitype/StillImage" />
        <dc:title></dc:title>
      </cc:Work>
    </rdf:RDF>
  </metadata>
  <g
     transform="translate(755.61597,27.332668)"
     id="layer1"
     inkscape:groupmode="layer"
     inkscape:label="Ebene 1">
    <g
       transform="matrix(0.26458333,0,0,0.26458333,-810.41462,-400.1573)"
       style="clip-rule:evenodd;fill-rule:evenodd;stroke-linecap:round;stroke-linejoin:round;stroke-miterlimit:1.5"
       id="g3029">
      <path
         id="path88"
         style="fill:#d9d9d9"
         d="m 216.3,1697.45 c 0,0 5138.45,2.45 5278.35,2.47 l 14.04,0.02 v -0.03 h 0.72 c 4.56,-0.38 8.01,-4.29 7.82,-8.86 -0.19,-4.57 -3.94,-8.18 -8.52,-8.19 l -5292.389,-2.49 c -4.715,0 -8.541,3.82 -8.547,8.53 -0.005,4.72 3.812,8.54 8.526,8.55 z m -0.11,-43.7 c 0,0 5138.45,2.45 5278.35,2.48 l 14.04,0.01 v -0.02 l 0.73,-0.01 c 4.55,-0.38 8,-4.29 7.81,-8.86 -0.19,-4.57 -3.94,-8.18 -8.52,-8.18 l -5292.39,-2.49 c -4.714,-0.01 -8.54,3.81 -8.546,8.53 -0.006,4.71 3.811,8.54 8.526,8.54 z m -0.11,-43.69 c 0,0 5138.45,2.45 5278.35,2.47 l 14.04,0.02 v -0.03 h 0.72 c 4.56,-0.38 8.01,-4.29 7.82,-8.86 -0.19,-4.57 -3.94,-8.18 -8.52,-8.18 L 216.1,1592.99 c -4.714,-0.01 -8.54,3.81 -8.546,8.52 -0.006,4.72 3.811,8.54 8.526,8.55 z m -0.111,-43.69 c 0,0 5138.451,2.45 5278.351,2.47 l 14.04,0.02 v -0.03 h 0.72 c 4.56,-0.39 8.01,-4.29 7.82,-8.86 -0.19,-4.57 -3.94,-8.18 -8.52,-8.19 l -5292.39,-2.49 c -4.714,0 -8.541,3.82 -8.546,8.53 -0.006,4.71 3.811,8.54 8.525,8.55 z m -0.11,-43.7 c 0,0 5138.451,2.45 5278.351,2.47 l 14.04,0.02 v -0.03 h 0.72 c 4.56,-0.38 8.01,-4.29 7.82,-8.86 -0.19,-4.57 -3.94,-8.18 -8.52,-8.18 L 215.88,1505.6 c -4.715,-0.01 -8.541,3.81 -8.546,8.52 -0.006,4.72 3.811,8.55 8.525,8.55 z m -0.11,-43.69 c 0,0 5138.451,2.45 5278.351,2.47 l 14.04,0.02 v -0.03 h 0.72 c 4.56,-0.38 8.01,-4.29 7.82,-8.86 -0.19,-4.57 -3.95,-8.18 -8.52,-8.19 L 215.77,1461.9 c -4.715,0 -8.541,3.82 -8.547,8.53 -0.005,4.72 3.812,8.54 8.526,8.55 z m -0.11,-43.7 c 0,0 5138.451,2.46 5278.351,2.48 l 14.04,0.01 v -0.02 l 0.72,-0.01 c 4.56,-0.38 8.01,-4.29 7.82,-8.86 -0.19,-4.56 -3.95,-8.18 -8.52,-8.18 l -5292.391,-2.49 c -4.714,0 -8.54,3.81 -8.546,8.53 -0.005,4.71 3.812,8.54 8.526,8.54 z" />
      <g
         id="g104"
         transform="translate(-48.4448,513.258)">
        <path
           id="path102"
           style="fill:#c2c2c2"
           d="m 1274.05,904.366 -0.47,300.274 c -0.01,4.71 3.81,8.54 8.52,8.55 4.71,0.01 8.54,-3.81 8.55,-8.52 l 0.48,-300.277 c 0,-4.712 -3.81,-8.543 -8.53,-8.55 -4.71,-0.008 -8.54,3.811 -8.55,8.523 z m -105.33,0 -0.47,300.274 c -0.01,4.71 3.81,8.54 8.52,8.55 4.71,0.01 8.54,-3.81 8.55,-8.52 l 0.48,-300.277 c 0,-4.712 -3.82,-8.543 -8.53,-8.55 -4.71,-0.008 -8.54,3.811 -8.55,8.523 z m 368.66,0 -0.47,300.274 c -0.01,4.71 3.81,8.54 8.52,8.55 4.71,0.01 8.54,-3.81 8.55,-8.52 l 0.48,-300.277 c 0,-4.712 -3.82,-8.543 -8.53,-8.55 -4.71,-0.008 -8.54,3.811 -8.55,8.523 z m -421.32,0 -0.48,300.274 c -0.01,4.71 3.81,8.54 8.52,8.55 4.71,0.01 8.54,-3.81 8.55,-8.52 l 0.48,-300.277 c 0.01,-4.712 -3.81,-8.543 -8.52,-8.55 -4.72,-0.008 -8.55,3.811 -8.55,8.523 z m -52.67,0 -0.48,300.274 c -0.01,4.71 3.81,8.54 8.53,8.55 4.71,0.01 8.54,-3.81 8.55,-8.52 l 0.47,-300.277 c 0.01,-4.712 -3.81,-8.543 -8.52,-8.55 -4.71,-0.008 -8.54,3.811 -8.55,8.523 z m 368.66,0 -0.48,300.274 c 0,4.71 3.82,8.54 8.53,8.55 4.71,0.01 8.54,-3.81 8.55,-8.52 l 0.47,-300.277 c 0.01,-4.712 -3.81,-8.543 -8.52,-8.55 -4.71,-0.008 -8.54,3.811 -8.55,8.523 z m -421.33,0 -0.47,300.274 c -0.01,4.71 3.81,8.54 8.52,8.55 4.71,0.01 8.54,-3.81 8.55,-8.52 l 0.48,-300.277 c 0.01,-4.712 -3.81,-8.543 -8.53,-8.55 -4.71,-0.008 -8.54,3.811 -8.55,8.523 z m -210.66,0 -0.477,300.274 c -0.007,4.71 3.812,8.54 8.523,8.55 4.711,0.01 8.543,-3.81 8.55,-8.52 l 0.477,-300.277 c 0.008,-4.712 -3.811,-8.543 -8.523,-8.55 -4.711,-0.008 -8.542,3.811 -8.55,8.523 z m -421.327,0 -0.478,300.274 c -0.007,4.71 3.812,8.54 8.523,8.55 4.712,0.01 8.543,-3.81 8.551,-8.52 l 0.477,-300.277 c 0.007,-4.712 -3.812,-8.543 -8.523,-8.55 -4.712,-0.008 -8.543,3.811 -8.55,8.523 z m 105.332,0 -0.478,300.274 c -0.007,4.71 3.812,8.54 8.523,8.55 4.712,0.01 8.543,-3.81 8.55,-8.52 l 0.478,-300.277 c 0.007,-4.712 -3.812,-8.543 -8.523,-8.55 -4.712,-0.008 -8.543,3.811 -8.55,8.523 z m -202.059,-8.523 h -0.055 c -4.712,-0.008 -8.543,3.811 -8.55,8.523 l -0.478,300.274 c -0.007,4.71 3.812,8.54 8.524,8.55 h 0.055 c 4.686,-0.02 8.487,-3.83 8.495,-8.52 l 0.477,-300.277 c 0.007,-4.693 -3.782,-8.513 -8.468,-8.55 z m 676.052,8.523 -0.477,300.274 c -0.008,4.71 3.811,8.54 8.523,8.55 4.711,0.01 8.543,-3.81 8.55,-8.52 l 0.477,-300.277 c 0.008,-4.712 -3.811,-8.543 -8.523,-8.55 -4.711,-0.008 -8.542,3.811 -8.55,8.523 z m -210.664,0 -0.477,300.274 c -0.007,4.71 3.812,8.54 8.523,8.55 4.712,0.01 8.543,-3.81 8.55,-8.52 l 0.477,-300.277 c 0.008,-4.712 -3.811,-8.543 -8.523,-8.55 -4.711,-0.008 -8.542,3.811 -8.55,8.523 z m -210.663,0 -0.478,300.274 c -0.007,4.71 3.812,8.54 8.523,8.55 4.712,0.01 8.543,-3.81 8.55,-8.52 l 0.478,-300.277 c 0.007,-4.712 -3.812,-8.543 -8.523,-8.55 -4.712,-0.008 -8.543,3.811 -8.55,8.523 z m 789.989,0 -0.48,300.274 c 0,4.71 3.81,8.54 8.53,8.55 4.71,0.01 8.54,-3.81 8.55,-8.52 l 0.47,-300.277 c 0.01,-4.712 -3.81,-8.543 -8.52,-8.55 -4.71,-0.008 -8.54,3.811 -8.55,8.523 z m -1000.653,0 -0.478,300.274 c -0.007,4.71 3.812,8.54 8.523,8.55 4.712,0.01 8.543,-3.81 8.551,-8.52 l 0.477,-300.277 c 0.007,-4.712 -3.812,-8.543 -8.523,-8.55 -4.712,-0.008 -8.543,3.811 -8.55,8.523 z m 105.332,0 -0.478,300.274 c -0.007,4.71 3.812,8.54 8.523,8.55 4.712,0.01 8.543,-3.81 8.551,-8.52 l 0.477,-300.277 c 0.007,-4.712 -3.812,-8.543 -8.523,-8.55 -4.712,-0.008 -8.543,3.811 -8.55,8.523 z m 473.993,0 -0.477,300.274 c -0.008,4.71 3.811,8.54 8.523,8.55 4.711,0.01 8.543,-3.81 8.55,-8.52 l 0.477,-300.277 c 0.008,-4.712 -3.811,-8.543 -8.523,-8.55 -4.711,-0.008 -8.542,3.811 -8.55,8.523 z m -210.664,0 -0.477,300.274 c -0.007,4.71 3.812,8.54 8.523,8.55 4.712,0.01 8.543,-3.81 8.55,-8.52 l 0.478,-300.277 c 0.007,-4.712 -3.812,-8.543 -8.523,-8.55 -4.712,-0.008 -8.543,3.811 -8.551,8.523 z m 1000.652,0 -0.48,300.274 c 0,4.71 3.82,8.54 8.53,8.55 4.71,0.01 8.54,-3.81 8.55,-8.52 l 0.47,-300.277 c 0.01,-4.712 -3.81,-8.543 -8.52,-8.55 -4.71,-0.008 -8.54,3.811 -8.55,8.523 z m -842.654,0 -0.477,300.274 c -0.008,4.71 3.812,8.54 8.523,8.55 4.711,0.01 8.543,-3.81 8.55,-8.52 l 0.477,-300.277 c 0.008,-4.712 -3.811,-8.543 -8.523,-8.55 -4.711,-0.008 -8.542,3.811 -8.55,8.523 z m -210.664,0 -0.477,300.274 c -0.007,4.71 3.812,8.54 8.523,8.55 4.712,0.01 8.543,-3.81 8.55,-8.52 l 0.478,-300.277 c 0.007,-4.712 -3.812,-8.543 -8.523,-8.55 -4.712,-0.008 -8.543,3.811 -8.551,8.523 z m 1000.658,0 -0.48,300.274 c -0.01,4.71 3.81,8.54 8.52,8.55 4.71,0.01 8.54,-3.81 8.55,-8.52 l 0.48,-300.277 c 0.01,-4.712 -3.81,-8.543 -8.52,-8.55 -4.72,-0.008 -8.55,3.811 -8.55,8.523 z m -421.33,0 -0.48,300.274 c -0.01,4.71 3.81,8.54 8.52,8.55 4.71,0.01 8.55,-3.81 8.55,-8.52 l 0.48,-300.277 c 0.01,-4.712 -3.81,-8.543 -8.52,-8.55 -4.71,-0.008 -8.55,3.811 -8.55,8.523 z m -631.994,0 -0.477,300.274 c -0.007,4.71 3.812,8.54 8.523,8.55 4.712,0.01 8.543,-3.81 8.55,-8.52 l 0.478,-300.277 c 0.007,-4.712 -3.812,-8.543 -8.523,-8.55 -4.712,-0.008 -8.543,3.811 -8.551,8.523 z m 1000.654,0 -0.48,300.274 c 0,4.71 3.81,8.54 8.53,8.55 4.71,0.01 8.54,-3.81 8.54,-8.52 l 0.48,-300.277 c 0.01,-4.712 -3.81,-8.543 -8.52,-8.55 -4.71,-0.008 -8.54,3.811 -8.55,8.523 z m -105.33,0 -0.48,300.274 c -0.01,4.71 3.81,8.54 8.52,8.55 4.72,0.01 8.55,-3.81 8.55,-8.52 l 0.48,-300.277 c 0.01,-4.712 -3.81,-8.543 -8.52,-8.55 -4.71,-0.008 -8.54,3.811 -8.55,8.523 z m -105.33,0 -0.48,300.274 c -0.01,4.71 3.81,8.54 8.52,8.55 4.71,0.01 8.54,-3.81 8.55,-8.52 l 0.48,-300.277 c 0.01,-4.712 -3.81,-8.543 -8.52,-8.55 -4.72,-0.008 -8.55,3.811 -8.55,8.523 z" />
      </g>
      <g
         id="g112"
         transform="translate(2795.37,513.871)">
        <path
           id="path110"
           style="fill:#c2c2c2"
           d="m 1274.05,904.366 -0.47,300.274 c -0.01,4.71 3.81,8.54 8.52,8.55 4.71,0.01 8.54,-3.81 8.55,-8.52 l 0.48,-300.277 c 0,-4.712 -3.81,-8.543 -8.53,-8.55 -4.71,-0.008 -8.54,3.811 -8.55,8.523 z m -105.33,0 -0.47,300.274 c -0.01,4.71 3.81,8.54 8.52,8.55 4.71,0.01 8.54,-3.81 8.55,-8.52 l 0.48,-300.277 c 0,-4.712 -3.82,-8.543 -8.53,-8.55 -4.71,-0.008 -8.54,3.811 -8.55,8.523 z m 368.66,0 -0.47,300.274 c -0.01,4.71 3.81,8.54 8.52,8.55 4.71,0.01 8.54,-3.81 8.55,-8.52 l 0.48,-300.277 c 0,-4.712 -3.82,-8.543 -8.53,-8.55 -4.71,-0.008 -8.54,3.811 -8.55,8.523 z m -421.32,0 -0.48,300.274 c -0.01,4.71 3.81,8.54 8.52,8.55 4.71,0.01 8.54,-3.81 8.55,-8.52 l 0.48,-300.277 c 0.01,-4.712 -3.81,-8.543 -8.52,-8.55 -4.72,-0.008 -8.55,3.811 -8.55,8.523 z m -52.67,0 -0.48,300.274 c -0.01,4.71 3.81,8.54 8.53,8.55 4.71,0.01 8.54,-3.81 8.55,-8.52 l 0.47,-300.277 c 0.01,-4.712 -3.81,-8.543 -8.52,-8.55 -4.71,-0.008 -8.54,3.811 -8.55,8.523 z m 368.66,0 -0.48,300.274 c 0,4.71 3.82,8.54 8.53,8.55 4.71,0.01 8.54,-3.81 8.55,-8.52 l 0.47,-300.277 c 0.01,-4.712 -3.81,-8.543 -8.52,-8.55 -4.71,-0.008 -8.54,3.811 -8.55,8.523 z m -421.33,0 -0.47,300.274 c -0.01,4.71 3.81,8.54 8.52,8.55 4.71,0.01 8.54,-3.81 8.55,-8.52 l 0.48,-300.277 c 0.01,-4.712 -3.81,-8.543 -8.53,-8.55 -4.71,-0.008 -8.54,3.811 -8.55,8.523 z m -210.66,0 -0.477,300.274 c -0.007,4.71 3.812,8.54 8.523,8.55 4.711,0.01 8.543,-3.81 8.55,-8.52 l 0.477,-300.277 c 0.008,-4.712 -3.811,-8.543 -8.523,-8.55 -4.711,-0.008 -8.542,3.811 -8.55,8.523 z m -421.327,0 -0.478,300.274 c -0.007,4.71 3.812,8.54 8.523,8.55 4.712,0.01 8.543,-3.81 8.551,-8.52 l 0.477,-300.277 c 0.007,-4.712 -3.812,-8.543 -8.523,-8.55 -4.712,-0.008 -8.543,3.811 -8.55,8.523 z m 105.332,0 -0.478,300.274 c -0.007,4.71 3.812,8.54 8.523,8.55 4.712,0.01 8.543,-3.81 8.55,-8.52 l 0.478,-300.277 c 0.007,-4.712 -3.812,-8.543 -8.523,-8.55 -4.712,-0.008 -8.543,3.811 -8.55,8.523 z m -202.059,-8.523 h -0.055 c -4.712,-0.008 -8.543,3.811 -8.55,8.523 l -0.478,300.274 c -0.007,4.71 3.812,8.54 8.524,8.55 h 0.055 c 4.686,-0.02 8.487,-3.83 8.495,-8.52 l 0.477,-300.277 c 0.007,-4.693 -3.782,-8.513 -8.468,-8.55 z m 676.052,8.523 -0.477,300.274 c -0.008,4.71 3.811,8.54 8.523,8.55 4.711,0.01 8.543,-3.81 8.55,-8.52 l 0.477,-300.277 c 0.008,-4.712 -3.811,-8.543 -8.523,-8.55 -4.711,-0.008 -8.542,3.811 -8.55,8.523 z m -210.664,0 -0.477,300.274 c -0.007,4.71 3.812,8.54 8.523,8.55 4.712,0.01 8.543,-3.81 8.55,-8.52 l 0.477,-300.277 c 0.008,-4.712 -3.811,-8.543 -8.523,-8.55 -4.711,-0.008 -8.542,3.811 -8.55,8.523 z m -210.663,0 -0.478,300.274 c -0.007,4.71 3.812,8.54 8.523,8.55 4.712,0.01 8.543,-3.81 8.55,-8.52 l 0.478,-300.277 c 0.007,-4.712 -3.812,-8.543 -8.523,-8.55 -4.712,-0.008 -8.543,3.811 -8.55,8.523 z m 789.989,0 -0.48,300.274 c 0,4.71 3.81,8.54 8.53,8.55 4.71,0.01 8.54,-3.81 8.55,-8.52 l 0.47,-300.277 c 0.01,-4.712 -3.81,-8.543 -8.52,-8.55 -4.71,-0.008 -8.54,3.811 -8.55,8.523 z m -1000.653,0 -0.478,300.274 c -0.007,4.71 3.812,8.54 8.523,8.55 4.712,0.01 8.543,-3.81 8.551,-8.52 l 0.477,-300.277 c 0.007,-4.712 -3.812,-8.543 -8.523,-8.55 -4.712,-0.008 -8.543,3.811 -8.55,8.523 z m 105.332,0 -0.478,300.274 c -0.007,4.71 3.812,8.54 8.523,8.55 4.712,0.01 8.543,-3.81 8.551,-8.52 l 0.477,-300.277 c 0.007,-4.712 -3.812,-8.543 -8.523,-8.55 -4.712,-0.008 -8.543,3.811 -8.55,8.523 z m 473.993,0 -0.477,300.274 c -0.008,4.71 3.811,8.54 8.523,8.55 4.711,0.01 8.543,-3.81 8.55,-8.52 l 0.477,-300.277 c 0.008,-4.712 -3.811,-8.543 -8.523,-8.55 -4.711,-0.008 -8.542,3.811 -8.55,8.523 z m -210.664,0 -0.477,300.274 c -0.007,4.71 3.812,8.54 8.523,8.55 4.712,0.01 8.543,-3.81 8.55,-8.52 l 0.478,-300.277 c 0.007,-4.712 -3.812,-8.543 -8.523,-8.55 -4.712,-0.008 -8.543,3.811 -8.551,8.523 z m 1000.652,0 -0.48,300.274 c 0,4.71 3.82,8.54 8.53,8.55 4.71,0.01 8.54,-3.81 8.55,-8.52 l 0.47,-300.277 c 0.01,-4.712 -3.81,-8.543 -8.52,-8.55 -4.71,-0.008 -8.54,3.811 -8.55,8.523 z m -842.654,0 -0.477,300.274 c -0.008,4.71 3.812,8.54 8.523,8.55 4.711,0.01 8.543,-3.81 8.55,-8.52 l 0.477,-300.277 c 0.008,-4.712 -3.811,-8.543 -8.523,-8.55 -4.711,-0.008 -8.542,3.811 -8.55,8.523 z m -210.664,0 -0.477,300.274 c -0.007,4.71 3.812,8.54 8.523,8.55 4.712,0.01 8.543,-3.81 8.55,-8.52 l 0.478,-300.277 c 0.007,-4.712 -3.812,-8.543 -8.523,-8.55 -4.712,-0.008 -8.543,3.811 -8.551,8.523 z m 1000.658,0 -0.48,300.274 c -0.01,4.71 3.81,8.54 8.52,8.55 4.71,0.01 8.54,-3.81 8.55,-8.52 l 0.48,-300.277 c 0.01,-4.712 -3.81,-8.543 -8.52,-8.55 -4.72,-0.008 -8.55,3.811 -8.55,8.523 z m -421.33,0 -0.48,300.274 c -0.01,4.71 3.81,8.54 8.52,8.55 4.71,0.01 8.55,-3.81 8.55,-8.52 l 0.48,-300.277 c 0.01,-4.712 -3.81,-8.543 -8.52,-8.55 -4.71,-0.008 -8.55,3.811 -8.55,8.523 z m -631.994,0 -0.477,300.274 c -0.007,4.71 3.812,8.54 8.523,8.55 4.712,0.01 8.543,-3.81 8.55,-8.52 l 0.478,-300.277 c 0.007,-4.712 -3.812,-8.543 -8.523,-8.55 -4.712,-0.008 -8.543,3.811 -8.551,8.523 z m 1000.654,0 -0.48,300.274 c 0,4.71 3.81,8.54 8.53,8.55 4.71,0.01 8.54,-3.81 8.54,-8.52 l 0.48,-300.277 c 0.01,-4.712 -3.81,-8.543 -8.52,-8.55 -4.71,-0.008 -8.54,3.811 -8.55,8.523 z m -105.33,0 -0.48,300.274 c -0.01,4.71 3.81,8.54 8.52,8.55 4.72,0.01 8.55,-3.81 8.55,-8.52 l 0.48,-300.277 c 0.01,-4.712 -3.81,-8.543 -8.52,-8.55 -4.71,-0.008 -8.54,3.811 -8.55,8.523 z m -105.33,0 -0.48,300.274 c -0.01,4.71 3.81,8.54 8.52,8.55 4.71,0.01 8.54,-3.81 8.55,-8.52 l 0.48,-300.277 c 0.01,-4.712 -3.81,-8.543 -8.52,-8.55 -4.72,-0.008 -8.55,3.811 -8.55,8.523 z" />
      </g>
      <g
         id="g120"
         transform="translate(1373.55,513.691)">
        <path
           id="path118"
           style="fill:#c2c2c2"
           d="m 1274.05,904.366 -0.47,300.274 c -0.01,4.71 3.81,8.54 8.52,8.55 4.71,0.01 8.54,-3.81 8.55,-8.52 l 0.48,-300.277 c 0,-4.712 -3.81,-8.543 -8.53,-8.55 -4.71,-0.008 -8.54,3.811 -8.55,8.523 z m -105.33,0 -0.47,300.274 c -0.01,4.71 3.81,8.54 8.52,8.55 4.71,0.01 8.54,-3.81 8.55,-8.52 l 0.48,-300.277 c 0,-4.712 -3.82,-8.543 -8.53,-8.55 -4.71,-0.008 -8.54,3.811 -8.55,8.523 z m 368.66,0 -0.47,300.274 c -0.01,4.71 3.81,8.54 8.52,8.55 4.71,0.01 8.54,-3.81 8.55,-8.52 l 0.48,-300.277 c 0,-4.712 -3.82,-8.543 -8.53,-8.55 -4.71,-0.008 -8.54,3.811 -8.55,8.523 z m -421.32,0 -0.48,300.274 c -0.01,4.71 3.81,8.54 8.52,8.55 4.71,0.01 8.54,-3.81 8.55,-8.52 l 0.48,-300.277 c 0.01,-4.712 -3.81,-8.543 -8.52,-8.55 -4.72,-0.008 -8.55,3.811 -8.55,8.523 z m -52.67,0 -0.48,300.274 c -0.01,4.71 3.81,8.54 8.53,8.55 4.71,0.01 8.54,-3.81 8.55,-8.52 l 0.47,-300.277 c 0.01,-4.712 -3.81,-8.543 -8.52,-8.55 -4.71,-0.008 -8.54,3.811 -8.55,8.523 z m 368.66,0 -0.48,300.274 c 0,4.71 3.82,8.54 8.53,8.55 4.71,0.01 8.54,-3.81 8.55,-8.52 l 0.47,-300.277 c 0.01,-4.712 -3.81,-8.543 -8.52,-8.55 -4.71,-0.008 -8.54,3.811 -8.55,8.523 z m -421.33,0 -0.47,300.274 c -0.01,4.71 3.81,8.54 8.52,8.55 4.71,0.01 8.54,-3.81 8.55,-8.52 l 0.48,-300.277 c 0.01,-4.712 -3.81,-8.543 -8.53,-8.55 -4.71,-0.008 -8.54,3.811 -8.55,8.523 z m -210.66,0 -0.477,300.274 c -0.007,4.71 3.812,8.54 8.523,8.55 4.711,0.01 8.543,-3.81 8.55,-8.52 l 0.477,-300.277 c 0.008,-4.712 -3.811,-8.543 -8.523,-8.55 -4.711,-0.008 -8.542,3.811 -8.55,8.523 z m -421.327,0 -0.478,300.274 c -0.007,4.71 3.812,8.54 8.523,8.55 4.712,0.01 8.543,-3.81 8.551,-8.52 l 0.477,-300.277 c 0.007,-4.712 -3.812,-8.543 -8.523,-8.55 -4.712,-0.008 -8.543,3.811 -8.55,8.523 z m 105.332,0 -0.478,300.274 c -0.007,4.71 3.812,8.54 8.523,8.55 4.712,0.01 8.543,-3.81 8.55,-8.52 l 0.478,-300.277 c 0.007,-4.712 -3.812,-8.543 -8.523,-8.55 -4.712,-0.008 -8.543,3.811 -8.55,8.523 z m -202.059,-8.523 h -0.055 c -4.712,-0.008 -8.543,3.811 -8.55,8.523 l -0.478,300.274 c -0.007,4.71 3.812,8.54 8.524,8.55 h 0.055 c 4.686,-0.02 8.487,-3.83 8.495,-8.52 l 0.477,-300.277 c 0.007,-4.693 -3.782,-8.513 -8.468,-8.55 z m 676.052,8.523 -0.477,300.274 c -0.008,4.71 3.811,8.54 8.523,8.55 4.711,0.01 8.543,-3.81 8.55,-8.52 l 0.477,-300.277 c 0.008,-4.712 -3.811,-8.543 -8.523,-8.55 -4.711,-0.008 -8.542,3.811 -8.55,8.523 z m -210.664,0 -0.477,300.274 c -0.007,4.71 3.812,8.54 8.523,8.55 4.712,0.01 8.543,-3.81 8.55,-8.52 l 0.477,-300.277 c 0.008,-4.712 -3.811,-8.543 -8.523,-8.55 -4.711,-0.008 -8.542,3.811 -8.55,8.523 z m -210.663,0 -0.478,300.274 c -0.007,4.71 3.812,8.54 8.523,8.55 4.712,0.01 8.543,-3.81 8.55,-8.52 l 0.478,-300.277 c 0.007,-4.712 -3.812,-8.543 -8.523,-8.55 -4.712,-0.008 -8.543,3.811 -8.55,8.523 z m 789.989,0 -0.48,300.274 c 0,4.71 3.81,8.54 8.53,8.55 4.71,0.01 8.54,-3.81 8.55,-8.52 l 0.47,-300.277 c 0.01,-4.712 -3.81,-8.543 -8.52,-8.55 -4.71,-0.008 -8.54,3.811 -8.55,8.523 z m -1000.653,0 -0.478,300.274 c -0.007,4.71 3.812,8.54 8.523,8.55 4.712,0.01 8.543,-3.81 8.551,-8.52 l 0.477,-300.277 c 0.007,-4.712 -3.812,-8.543 -8.523,-8.55 -4.712,-0.008 -8.543,3.811 -8.55,8.523 z m 105.332,0 -0.478,300.274 c -0.007,4.71 3.812,8.54 8.523,8.55 4.712,0.01 8.543,-3.81 8.551,-8.52 l 0.477,-300.277 c 0.007,-4.712 -3.812,-8.543 -8.523,-8.55 -4.712,-0.008 -8.543,3.811 -8.55,8.523 z m 473.993,0 -0.477,300.274 c -0.008,4.71 3.811,8.54 8.523,8.55 4.711,0.01 8.543,-3.81 8.55,-8.52 l 0.477,-300.277 c 0.008,-4.712 -3.811,-8.543 -8.523,-8.55 -4.711,-0.008 -8.542,3.811 -8.55,8.523 z m -210.664,0 -0.477,300.274 c -0.007,4.71 3.812,8.54 8.523,8.55 4.712,0.01 8.543,-3.81 8.55,-8.52 l 0.478,-300.277 c 0.007,-4.712 -3.812,-8.543 -8.523,-8.55 -4.712,-0.008 -8.543,3.811 -8.551,8.523 z m 1000.652,0 -0.48,300.274 c 0,4.71 3.82,8.54 8.53,8.55 4.71,0.01 8.54,-3.81 8.55,-8.52 l 0.47,-300.277 c 0.01,-4.712 -3.81,-8.543 -8.52,-8.55 -4.71,-0.008 -8.54,3.811 -8.55,8.523 z m -842.654,0 -0.477,300.274 c -0.008,4.71 3.812,8.54 8.523,8.55 4.711,0.01 8.543,-3.81 8.55,-8.52 l 0.477,-300.277 c 0.008,-4.712 -3.811,-8.543 -8.523,-8.55 -4.711,-0.008 -8.542,3.811 -8.55,8.523 z m -210.664,0 -0.477,300.274 c -0.007,4.71 3.812,8.54 8.523,8.55 4.712,0.01 8.543,-3.81 8.55,-8.52 l 0.478,-300.277 c 0.007,-4.712 -3.812,-8.543 -8.523,-8.55 -4.712,-0.008 -8.543,3.811 -8.551,8.523 z m 1000.658,0 -0.48,300.274 c -0.01,4.71 3.81,8.54 8.52,8.55 4.71,0.01 8.54,-3.81 8.55,-8.52 l 0.48,-300.277 c 0.01,-4.712 -3.81,-8.543 -8.52,-8.55 -4.72,-0.008 -8.55,3.811 -8.55,8.523 z m -421.33,0 -0.48,300.274 c -0.01,4.71 3.81,8.54 8.52,8.55 4.71,0.01 8.55,-3.81 8.55,-8.52 l 0.48,-300.277 c 0.01,-4.712 -3.81,-8.543 -8.52,-8.55 -4.71,-0.008 -8.55,3.811 -8.55,8.523 z m -631.994,0 -0.477,300.274 c -0.007,4.71 3.812,8.54 8.523,8.55 4.712,0.01 8.543,-3.81 8.55,-8.52 l 0.478,-300.277 c 0.007,-4.712 -3.812,-8.543 -8.523,-8.55 -4.712,-0.008 -8.543,3.811 -8.551,8.523 z m 1000.654,0 -0.48,300.274 c 0,4.71 3.81,8.54 8.53,8.55 4.71,0.01 8.54,-3.81 8.54,-8.52 l 0.48,-300.277 c 0.01,-4.712 -3.81,-8.543 -8.52,-8.55 -4.71,-0.008 -8.54,3.811 -8.55,8.523 z m -105.33,0 -0.48,300.274 c -0.01,4.71 3.81,8.54 8.52,8.55 4.72,0.01 8.55,-3.81 8.55,-8.52 l 0.48,-300.277 c 0.01,-4.712 -3.81,-8.543 -8.52,-8.55 -4.71,-0.008 -8.54,3.811 -8.55,8.523 z m -105.33,0 -0.48,300.274 c -0.01,4.71 3.81,8.54 8.52,8.55 4.71,0.01 8.54,-3.81 8.55,-8.52 l 0.48,-300.277 c 0.01,-4.712 -3.81,-8.543 -8.52,-8.55 -4.72,-0.008 -8.55,3.811 -8.55,8.523 z" />
      </g>
      <g
         id="g128"
         transform="translate(4217.37,514.304)">
        <path
           id="path126"
           style="fill:#c2c2c2"
           d="m 1274.05,904.366 -0.47,300.274 c -0.01,4.71 3.81,8.54 8.52,8.55 4.71,0.01 8.54,-3.81 8.55,-8.52 l 0.48,-300.277 c 0,-4.712 -3.81,-8.543 -8.53,-8.55 -4.71,-0.008 -8.54,3.811 -8.55,8.523 z m -105.33,0 -0.47,300.274 c -0.01,4.71 3.81,8.54 8.52,8.55 4.71,0.01 8.54,-3.81 8.55,-8.52 l 0.48,-300.277 c 0,-4.712 -3.82,-8.543 -8.53,-8.55 -4.71,-0.008 -8.54,3.811 -8.55,8.523 z m -52.66,0 -0.48,300.274 c -0.01,4.71 3.81,8.54 8.52,8.55 4.71,0.01 8.54,-3.81 8.55,-8.52 l 0.48,-300.277 c 0.01,-4.712 -3.81,-8.543 -8.52,-8.55 -4.72,-0.008 -8.55,3.811 -8.55,8.523 z m -52.67,0 -0.48,300.274 c -0.01,4.71 3.81,8.54 8.53,8.55 4.71,0.01 8.54,-3.81 8.55,-8.52 l 0.47,-300.277 c 0.01,-4.712 -3.81,-8.543 -8.52,-8.55 -4.71,-0.008 -8.54,3.811 -8.55,8.523 z m -52.67,0 -0.47,300.274 c -0.01,4.71 3.81,8.54 8.52,8.55 4.71,0.01 8.54,-3.81 8.55,-8.52 l 0.48,-300.277 c 0.01,-4.712 -3.81,-8.543 -8.53,-8.55 -4.71,-0.008 -8.54,3.811 -8.55,8.523 z m -210.66,0 -0.477,300.274 c -0.007,4.71 3.812,8.54 8.523,8.55 4.711,0.01 8.543,-3.81 8.55,-8.52 l 0.477,-300.277 c 0.008,-4.712 -3.811,-8.543 -8.523,-8.55 -4.711,-0.008 -8.542,3.811 -8.55,8.523 z m -421.327,0 -0.478,300.274 c -0.007,4.71 3.812,8.54 8.523,8.55 4.712,0.01 8.543,-3.81 8.551,-8.52 l 0.477,-300.277 c 0.007,-4.712 -3.812,-8.543 -8.523,-8.55 -4.712,-0.008 -8.543,3.811 -8.55,8.523 z m 105.332,0 -0.478,300.274 c -0.007,4.71 3.812,8.54 8.523,8.55 4.712,0.01 8.543,-3.81 8.55,-8.52 l 0.478,-300.277 c 0.007,-4.712 -3.812,-8.543 -8.523,-8.55 -4.712,-0.008 -8.543,3.811 -8.55,8.523 z m -202.059,-8.523 h -0.055 c -4.712,-0.008 -8.543,3.811 -8.55,8.523 l -0.478,300.274 c -0.007,4.71 3.812,8.54 8.524,8.55 h 0.055 c 4.686,-0.02 8.487,-3.83 8.495,-8.52 l 0.477,-300.277 c 0.007,-4.693 -3.782,-8.513 -8.468,-8.55 z m 676.052,8.523 -0.477,300.274 c -0.008,4.71 3.811,8.54 8.523,8.55 4.711,0.01 8.543,-3.81 8.55,-8.52 l 0.477,-300.277 c 0.008,-4.712 -3.811,-8.543 -8.523,-8.55 -4.711,-0.008 -8.542,3.811 -8.55,8.523 z m -210.664,0 -0.477,300.274 c -0.007,4.71 3.812,8.54 8.523,8.55 4.712,0.01 8.543,-3.81 8.55,-8.52 l 0.477,-300.277 c 0.008,-4.712 -3.811,-8.543 -8.523,-8.55 -4.711,-0.008 -8.542,3.811 -8.55,8.523 z m -210.663,0 -0.478,300.274 c -0.007,4.71 3.812,8.54 8.523,8.55 4.712,0.01 8.543,-3.81 8.55,-8.52 l 0.478,-300.277 c 0.007,-4.712 -3.812,-8.543 -8.523,-8.55 -4.712,-0.008 -8.543,3.811 -8.55,8.523 z m -210.664,0 -0.478,300.274 c -0.007,4.71 3.812,8.54 8.523,8.55 4.712,0.01 8.543,-3.81 8.551,-8.52 l 0.477,-300.277 c 0.007,-4.712 -3.812,-8.543 -8.523,-8.55 -4.712,-0.008 -8.543,3.811 -8.55,8.523 z m 105.332,0 -0.478,300.274 c -0.007,4.71 3.812,8.54 8.523,8.55 4.712,0.01 8.543,-3.81 8.551,-8.52 l 0.477,-300.277 c 0.007,-4.712 -3.812,-8.543 -8.523,-8.55 -4.712,-0.008 -8.543,3.811 -8.55,8.523 z m 473.993,0 -0.477,300.274 c -0.008,4.71 3.811,8.54 8.523,8.55 4.711,0.01 8.543,-3.81 8.55,-8.52 l 0.477,-300.277 c 0.008,-4.712 -3.811,-8.543 -8.523,-8.55 -4.711,-0.008 -8.542,3.811 -8.55,8.523 z m -210.664,0 -0.477,300.274 c -0.007,4.71 3.812,8.54 8.523,8.55 4.712,0.01 8.543,-3.81 8.55,-8.52 l 0.478,-300.277 c 0.007,-4.712 -3.812,-8.543 -8.523,-8.55 -4.712,-0.008 -8.543,3.811 -8.551,8.523 z m 157.998,0 -0.477,300.274 c -0.008,4.71 3.812,8.54 8.523,8.55 4.711,0.01 8.543,-3.81 8.55,-8.52 l 0.477,-300.277 c 0.008,-4.712 -3.811,-8.543 -8.523,-8.55 -4.711,-0.008 -8.542,3.811 -8.55,8.523 z m -210.664,0 -0.477,300.274 c -0.007,4.71 3.812,8.54 8.523,8.55 4.712,0.01 8.543,-3.81 8.55,-8.52 l 0.478,-300.277 c 0.007,-4.712 -3.812,-8.543 -8.523,-8.55 -4.712,-0.008 -8.543,3.811 -8.551,8.523 z m 579.328,0 -0.48,300.274 c -0.01,4.71 3.81,8.54 8.52,8.55 4.71,0.01 8.55,-3.81 8.55,-8.52 l 0.48,-300.277 c 0.01,-4.712 -3.81,-8.543 -8.52,-8.55 -4.71,-0.008 -8.55,3.811 -8.55,8.523 z m -631.994,0 -0.477,300.274 c -0.007,4.71 3.812,8.54 8.523,8.55 4.712,0.01 8.543,-3.81 8.55,-8.52 l 0.478,-300.277 c 0.007,-4.712 -3.812,-8.543 -8.523,-8.55 -4.712,-0.008 -8.543,3.811 -8.551,8.523 z" />
      </g>
      <path
         id="path136"
         style="fill:#d9d9d9"
         d="m 216.355,1719.29 c 0,0 5138.355,2.65 5277.845,2.67 l 14.05,0.02 v -0.03 h 0.72 c 4.56,-0.38 8,-4.29 7.82,-8.86 -0.19,-4.57 -3.95,-8.18 -8.52,-8.18 l -5291.894,-2.69 c -4.715,0 -8.541,3.81 -8.547,8.53 -0.005,4.71 3.812,8.54 8.526,8.54 z m -0.11,-43.69 c 0,0 5138.355,2.65 5277.845,2.67 l 14.05,0.02 v -0.03 h 0.72 c 4.56,-0.39 8,-4.29 7.82,-8.86 -0.19,-4.57 -3.95,-8.18 -8.52,-8.19 l -5291.894,-2.68 c -4.715,-0.01 -8.541,3.81 -8.547,8.52 -0.005,4.72 3.812,8.55 8.526,8.55 z m -0.11,-43.69 c 0,0 5138.355,2.64 5277.845,2.67 l 14.05,0.01 v -0.03 h 0.72 c 4.56,-0.38 8,-4.29 7.82,-8.86 -0.19,-4.57 -3.95,-8.18 -8.52,-8.18 l -5291.895,-2.69 c -4.714,0 -8.54,3.81 -8.546,8.53 -0.006,4.71 3.811,8.54 8.526,8.55 z m -0.11,-43.7 c 0,0 5138.355,2.65 5277.845,2.67 l 14.05,0.02 -0.01,-0.03 h 0.73 c 4.56,-0.38 8,-4.29 7.81,-8.86 -0.18,-4.57 -3.94,-8.18 -8.51,-8.18 l -5291.895,-2.69 c -4.714,-0.01 -8.54,3.81 -8.546,8.53 -0.006,4.71 3.811,8.54 8.526,8.54 z m -0.111,-43.69 c 0,0 5138.356,2.64 5277.846,2.67 l 14.05,0.01 v -0.02 l 0.72,-0.01 c 4.56,-0.38 8,-4.28 7.82,-8.85 -0.19,-4.57 -3.95,-8.18 -8.52,-8.19 l -5291.895,-2.68 c -4.714,-0.01 -8.541,3.81 -8.546,8.52 -0.006,4.72 3.811,8.54 8.525,8.55 z m -0.11,-43.69 c 0,0 5138.356,2.64 5277.846,2.66 l 14.05,0.02 -0.01,-0.03 h 0.73 c 4.56,-0.38 8,-4.29 7.81,-8.86 -0.18,-4.57 -3.94,-8.18 -8.51,-8.18 l -5291.895,-2.69 c -4.715,0 -8.541,3.81 -8.547,8.53 -0.005,4.71 3.812,8.54 8.526,8.55 z m -0.11,-43.7 c 0,0 5138.356,2.65 5277.846,2.67 l 14.05,0.02 v -0.03 h 0.72 c 4.56,-0.39 8,-4.29 7.81,-8.86 -0.18,-4.57 -3.94,-8.18 -8.51,-8.19 l -5291.895,-2.68 c -4.715,-0.01 -8.541,3.81 -8.547,8.52 -0.005,4.72 3.812,8.54 8.526,8.55 z" />
      <g
         id="g152"
         transform="translate(-23.2784,513.691)">
        <path
           id="path150"
           style="fill:#cecece"
           d="m 1274.05,904.366 -0.47,300.274 c -0.01,4.71 3.81,8.54 8.52,8.55 4.71,0.01 8.54,-3.81 8.55,-8.52 l 0.48,-300.277 c 0,-4.712 -3.81,-8.543 -8.53,-8.55 -4.71,-0.008 -8.54,3.811 -8.55,8.523 z m -105.33,0 -0.47,300.274 c -0.01,4.71 3.81,8.54 8.52,8.55 4.71,0.01 8.54,-3.81 8.55,-8.52 l 0.48,-300.277 c 0,-4.712 -3.82,-8.543 -8.53,-8.55 -4.71,-0.008 -8.54,3.811 -8.55,8.523 z m 368.66,0 -0.47,300.274 c -0.01,4.71 3.81,8.54 8.52,8.55 4.71,0.01 8.54,-3.81 8.55,-8.52 l 0.48,-300.277 c 0,-4.712 -3.82,-8.543 -8.53,-8.55 -4.71,-0.008 -8.54,3.811 -8.55,8.523 z m -421.32,0 -0.48,300.274 c -0.01,4.71 3.81,8.54 8.52,8.55 4.71,0.01 8.54,-3.81 8.55,-8.52 l 0.48,-300.277 c 0.01,-4.712 -3.81,-8.543 -8.52,-8.55 -4.72,-0.008 -8.55,3.811 -8.55,8.523 z m -52.67,0 -0.48,300.274 c -0.01,4.71 3.81,8.54 8.53,8.55 4.71,0.01 8.54,-3.81 8.55,-8.52 l 0.47,-300.277 c 0.01,-4.712 -3.81,-8.543 -8.52,-8.55 -4.71,-0.008 -8.54,3.811 -8.55,8.523 z m 368.66,0 -0.48,300.274 c 0,4.71 3.82,8.54 8.53,8.55 4.71,0.01 8.54,-3.81 8.55,-8.52 l 0.47,-300.277 c 0.01,-4.712 -3.81,-8.543 -8.52,-8.55 -4.71,-0.008 -8.54,3.811 -8.55,8.523 z m -421.33,0 -0.47,300.274 c -0.01,4.71 3.81,8.54 8.52,8.55 4.71,0.01 8.54,-3.81 8.55,-8.52 l 0.48,-300.277 c 0.01,-4.712 -3.81,-8.543 -8.53,-8.55 -4.71,-0.008 -8.54,3.811 -8.55,8.523 z m -210.66,0 -0.477,300.274 c -0.007,4.71 3.812,8.54 8.523,8.55 4.711,0.01 8.543,-3.81 8.55,-8.52 l 0.477,-300.277 c 0.008,-4.712 -3.811,-8.543 -8.523,-8.55 -4.711,-0.008 -8.542,3.811 -8.55,8.523 z m -421.327,0 -0.478,300.274 c -0.007,4.71 3.812,8.54 8.523,8.55 4.712,0.01 8.543,-3.81 8.551,-8.52 l 0.477,-300.277 c 0.007,-4.712 -3.812,-8.543 -8.523,-8.55 -4.712,-0.008 -8.543,3.811 -8.55,8.523 z m 105.332,0 -0.478,300.274 c -0.007,4.71 3.812,8.54 8.523,8.55 4.712,0.01 8.543,-3.81 8.55,-8.52 l 0.478,-300.277 c 0.007,-4.712 -3.812,-8.543 -8.523,-8.55 -4.712,-0.008 -8.543,3.811 -8.55,8.523 z m -202.059,-8.523 h -0.055 c -4.712,-0.008 -8.543,3.811 -8.55,8.523 l -0.478,300.274 c -0.007,4.71 3.812,8.54 8.524,8.55 h 0.055 c 4.686,-0.02 8.487,-3.83 8.495,-8.52 l 0.477,-300.277 c 0.007,-4.693 -3.782,-8.513 -8.468,-8.55 z m 676.052,8.523 -0.477,300.274 c -0.008,4.71 3.811,8.54 8.523,8.55 4.711,0.01 8.543,-3.81 8.55,-8.52 l 0.477,-300.277 c 0.008,-4.712 -3.811,-8.543 -8.523,-8.55 -4.711,-0.008 -8.542,3.811 -8.55,8.523 z m -210.664,0 -0.477,300.274 c -0.007,4.71 3.812,8.54 8.523,8.55 4.712,0.01 8.543,-3.81 8.55,-8.52 l 0.477,-300.277 c 0.008,-4.712 -3.811,-8.543 -8.523,-8.55 -4.711,-0.008 -8.542,3.811 -8.55,8.523 z m -210.663,0 -0.478,300.274 c -0.007,4.71 3.812,8.54 8.523,8.55 4.712,0.01 8.543,-3.81 8.55,-8.52 l 0.478,-300.277 c 0.007,-4.712 -3.812,-8.543 -8.523,-8.55 -4.712,-0.008 -8.543,3.811 -8.55,8.523 z m 789.989,0 -0.48,300.274 c 0,4.71 3.81,8.54 8.53,8.55 4.71,0.01 8.54,-3.81 8.55,-8.52 l 0.47,-300.277 c 0.01,-4.712 -3.81,-8.543 -8.52,-8.55 -4.71,-0.008 -8.54,3.811 -8.55,8.523 z m -1000.653,0 -0.478,300.274 c -0.007,4.71 3.812,8.54 8.523,8.55 4.712,0.01 8.543,-3.81 8.551,-8.52 l 0.477,-300.277 c 0.007,-4.712 -3.812,-8.543 -8.523,-8.55 -4.712,-0.008 -8.543,3.811 -8.55,8.523 z m 105.332,0 -0.478,300.274 c -0.007,4.71 3.812,8.54 8.523,8.55 4.712,0.01 8.543,-3.81 8.551,-8.52 l 0.477,-300.277 c 0.007,-4.712 -3.812,-8.543 -8.523,-8.55 -4.712,-0.008 -8.543,3.811 -8.55,8.523 z m 473.993,0 -0.477,300.274 c -0.008,4.71 3.811,8.54 8.523,8.55 4.711,0.01 8.543,-3.81 8.55,-8.52 l 0.477,-300.277 c 0.008,-4.712 -3.811,-8.543 -8.523,-8.55 -4.711,-0.008 -8.542,3.811 -8.55,8.523 z m -210.664,0 -0.477,300.274 c -0.007,4.71 3.812,8.54 8.523,8.55 4.712,0.01 8.543,-3.81 8.55,-8.52 l 0.478,-300.277 c 0.007,-4.712 -3.812,-8.543 -8.523,-8.55 -4.712,-0.008 -8.543,3.811 -8.551,8.523 z m 157.998,0 -0.477,300.274 c -0.008,4.71 3.812,8.54 8.523,8.55 4.711,0.01 8.543,-3.81 8.55,-8.52 l 0.477,-300.277 c 0.008,-4.712 -3.811,-8.543 -8.523,-8.55 -4.711,-0.008 -8.542,3.811 -8.55,8.523 z m -210.664,0 -0.477,300.274 c -0.007,4.71 3.812,8.54 8.523,8.55 4.712,0.01 8.543,-3.81 8.55,-8.52 l 0.478,-300.277 c 0.007,-4.712 -3.812,-8.543 -8.523,-8.55 -4.712,-0.008 -8.543,3.811 -8.551,8.523 z m 1000.658,0 -0.48,300.274 c -0.01,4.71 3.81,8.54 8.52,8.55 4.71,0.01 8.54,-3.81 8.55,-8.52 l 0.48,-300.277 c 0.01,-4.712 -3.81,-8.543 -8.52,-8.55 -4.72,-0.008 -8.55,3.811 -8.55,8.523 z m -421.33,0 -0.48,300.274 c -0.01,4.71 3.81,8.54 8.52,8.55 4.71,0.01 8.55,-3.81 8.55,-8.52 l 0.48,-300.277 c 0.01,-4.712 -3.81,-8.543 -8.52,-8.55 -4.71,-0.008 -8.55,3.811 -8.55,8.523 z m -631.994,0 -0.477,300.274 c -0.007,4.71 3.812,8.54 8.523,8.55 4.712,0.01 8.543,-3.81 8.55,-8.52 l 0.478,-300.277 c 0.007,-4.712 -3.812,-8.543 -8.523,-8.55 -4.712,-0.008 -8.543,3.811 -8.551,8.523 z m 1000.654,0 -0.48,300.274 c 0,4.71 3.81,8.54 8.53,8.55 4.71,0.01 8.54,-3.81 8.54,-8.52 l 0.48,-300.277 c 0.01,-4.712 -3.81,-8.543 -8.52,-8.55 -4.71,-0.008 -8.54,3.811 -8.55,8.523 z m -105.33,0 -0.48,300.274 c -0.01,4.71 3.81,8.54 8.52,8.55 4.72,0.01 8.55,-3.81 8.55,-8.52 l 0.48,-300.277 c 0.01,-4.712 -3.81,-8.543 -8.52,-8.55 -4.71,-0.008 -8.54,3.811 -8.55,8.523 z m -105.33,0 -0.48,300.274 c -0.01,4.71 3.81,8.54 8.52,8.55 4.71,0.01 8.54,-3.81 8.55,-8.52 l 0.48,-300.277 c 0.01,-4.712 -3.81,-8.543 -8.52,-8.55 -4.72,-0.008 -8.55,3.811 -8.55,8.523 z" />
      </g>
      <g
         id="g160"
         transform="translate(2820.54,514.304)">
        <path
           id="path158"
           style="fill:#cecece"
           d="m 1274.05,904.366 -0.47,300.274 c -0.01,4.71 3.81,8.54 8.52,8.55 4.71,0.01 8.54,-3.81 8.55,-8.52 l 0.48,-300.277 c 0,-4.712 -3.81,-8.543 -8.53,-8.55 -4.71,-0.008 -8.54,3.811 -8.55,8.523 z m -105.33,0 -0.47,300.274 c -0.01,4.71 3.81,8.54 8.52,8.55 4.71,0.01 8.54,-3.81 8.55,-8.52 l 0.48,-300.277 c 0,-4.712 -3.82,-8.543 -8.53,-8.55 -4.71,-0.008 -8.54,3.811 -8.55,8.523 z m 368.66,0 -0.47,300.274 c -0.01,4.71 3.81,8.54 8.52,8.55 4.71,0.01 8.54,-3.81 8.55,-8.52 l 0.48,-300.277 c 0,-4.712 -3.82,-8.543 -8.53,-8.55 -4.71,-0.008 -8.54,3.811 -8.55,8.523 z m -421.32,0 -0.48,300.274 c -0.01,4.71 3.81,8.54 8.52,8.55 4.71,0.01 8.54,-3.81 8.55,-8.52 l 0.48,-300.277 c 0.01,-4.712 -3.81,-8.543 -8.52,-8.55 -4.72,-0.008 -8.55,3.811 -8.55,8.523 z m -52.67,0 -0.48,300.274 c -0.01,4.71 3.81,8.54 8.53,8.55 4.71,0.01 8.54,-3.81 8.55,-8.52 l 0.47,-300.277 c 0.01,-4.712 -3.81,-8.543 -8.52,-8.55 -4.71,-0.008 -8.54,3.811 -8.55,8.523 z m 368.66,0 -0.48,300.274 c 0,4.71 3.82,8.54 8.53,8.55 4.71,0.01 8.54,-3.81 8.55,-8.52 l 0.47,-300.277 c 0.01,-4.712 -3.81,-8.543 -8.52,-8.55 -4.71,-0.008 -8.54,3.811 -8.55,8.523 z m -421.33,0 -0.47,300.274 c -0.01,4.71 3.81,8.54 8.52,8.55 4.71,0.01 8.54,-3.81 8.55,-8.52 l 0.48,-300.277 c 0.01,-4.712 -3.81,-8.543 -8.53,-8.55 -4.71,-0.008 -8.54,3.811 -8.55,8.523 z m -210.66,0 -0.477,300.274 c -0.007,4.71 3.812,8.54 8.523,8.55 4.711,0.01 8.543,-3.81 8.55,-8.52 l 0.477,-300.277 c 0.008,-4.712 -3.811,-8.543 -8.523,-8.55 -4.711,-0.008 -8.542,3.811 -8.55,8.523 z m -421.327,0 -0.478,300.274 c -0.007,4.71 3.812,8.54 8.523,8.55 4.712,0.01 8.543,-3.81 8.551,-8.52 l 0.477,-300.277 c 0.007,-4.712 -3.812,-8.543 -8.523,-8.55 -4.712,-0.008 -8.543,3.811 -8.55,8.523 z m 105.332,0 -0.478,300.274 c -0.007,4.71 3.812,8.54 8.523,8.55 4.712,0.01 8.543,-3.81 8.55,-8.52 l 0.478,-300.277 c 0.007,-4.712 -3.812,-8.543 -8.523,-8.55 -4.712,-0.008 -8.543,3.811 -8.55,8.523 z m -202.059,-8.523 h -0.055 c -4.712,-0.008 -8.543,3.811 -8.55,8.523 l -0.478,300.274 c -0.007,4.71 3.812,8.54 8.524,8.55 h 0.055 c 4.686,-0.02 8.487,-3.83 8.495,-8.52 l 0.477,-300.277 c 0.007,-4.693 -3.782,-8.513 -8.468,-8.55 z m 676.052,8.523 -0.477,300.274 c -0.008,4.71 3.811,8.54 8.523,8.55 4.711,0.01 8.543,-3.81 8.55,-8.52 l 0.477,-300.277 c 0.008,-4.712 -3.811,-8.543 -8.523,-8.55 -4.711,-0.008 -8.542,3.811 -8.55,8.523 z m -210.664,0 -0.477,300.274 c -0.007,4.71 3.812,8.54 8.523,8.55 4.712,0.01 8.543,-3.81 8.55,-8.52 l 0.477,-300.277 c 0.008,-4.712 -3.811,-8.543 -8.523,-8.55 -4.711,-0.008 -8.542,3.811 -8.55,8.523 z m -210.663,0 -0.478,300.274 c -0.007,4.71 3.812,8.54 8.523,8.55 4.712,0.01 8.543,-3.81 8.55,-8.52 l 0.478,-300.277 c 0.007,-4.712 -3.812,-8.543 -8.523,-8.55 -4.712,-0.008 -8.543,3.811 -8.55,8.523 z m 789.989,0 -0.48,300.274 c 0,4.71 3.81,8.54 8.53,8.55 4.71,0.01 8.54,-3.81 8.55,-8.52 l 0.47,-300.277 c 0.01,-4.712 -3.81,-8.543 -8.52,-8.55 -4.71,-0.008 -8.54,3.811 -8.55,8.523 z m -1000.653,0 -0.478,300.274 c -0.007,4.71 3.812,8.54 8.523,8.55 4.712,0.01 8.543,-3.81 8.551,-8.52 l 0.477,-300.277 c 0.007,-4.712 -3.812,-8.543 -8.523,-8.55 -4.712,-0.008 -8.543,3.811 -8.55,8.523 z m 105.332,0 -0.478,300.274 c -0.007,4.71 3.812,8.54 8.523,8.55 4.712,0.01 8.543,-3.81 8.551,-8.52 l 0.477,-300.277 c 0.007,-4.712 -3.812,-8.543 -8.523,-8.55 -4.712,-0.008 -8.543,3.811 -8.55,8.523 z m 473.993,0 -0.477,300.274 c -0.008,4.71 3.811,8.54 8.523,8.55 4.711,0.01 8.543,-3.81 8.55,-8.52 l 0.477,-300.277 c 0.008,-4.712 -3.811,-8.543 -8.523,-8.55 -4.711,-0.008 -8.542,3.811 -8.55,8.523 z m -210.664,0 -0.477,300.274 c -0.007,4.71 3.812,8.54 8.523,8.55 4.712,0.01 8.543,-3.81 8.55,-8.52 l 0.478,-300.277 c 0.007,-4.712 -3.812,-8.543 -8.523,-8.55 -4.712,-0.008 -8.543,3.811 -8.551,8.523 z m 157.998,0 -0.477,300.274 c -0.008,4.71 3.812,8.54 8.523,8.55 4.711,0.01 8.543,-3.81 8.55,-8.52 l 0.477,-300.277 c 0.008,-4.712 -3.811,-8.543 -8.523,-8.55 -4.711,-0.008 -8.542,3.811 -8.55,8.523 z m -210.664,0 -0.477,300.274 c -0.007,4.71 3.812,8.54 8.523,8.55 4.712,0.01 8.543,-3.81 8.55,-8.52 l 0.478,-300.277 c 0.007,-4.712 -3.812,-8.543 -8.523,-8.55 -4.712,-0.008 -8.543,3.811 -8.551,8.523 z m 1000.658,0 -0.48,300.274 c -0.01,4.71 3.81,8.54 8.52,8.55 4.71,0.01 8.54,-3.81 8.55,-8.52 l 0.48,-300.277 c 0.01,-4.712 -3.81,-8.543 -8.52,-8.55 -4.72,-0.008 -8.55,3.811 -8.55,8.523 z m -421.33,0 -0.48,300.274 c -0.01,4.71 3.81,8.54 8.52,8.55 4.71,0.01 8.55,-3.81 8.55,-8.52 l 0.48,-300.277 c 0.01,-4.712 -3.81,-8.543 -8.52,-8.55 -4.71,-0.008 -8.55,3.811 -8.55,8.523 z m -631.994,0 -0.477,300.274 c -0.007,4.71 3.812,8.54 8.523,8.55 4.712,0.01 8.543,-3.81 8.55,-8.52 l 0.478,-300.277 c 0.007,-4.712 -3.812,-8.543 -8.523,-8.55 -4.712,-0.008 -8.543,3.811 -8.551,8.523 z m 1000.654,0 -0.48,300.274 c 0,4.71 3.81,8.54 8.53,8.55 4.71,0.01 8.54,-3.81 8.54,-8.52 l 0.48,-300.277 c 0.01,-4.712 -3.81,-8.543 -8.52,-8.55 -4.71,-0.008 -8.54,3.811 -8.55,8.523 z m -105.33,0 -0.48,300.274 c -0.01,4.71 3.81,8.54 8.52,8.55 4.72,0.01 8.55,-3.81 8.55,-8.52 l 0.48,-300.277 c 0.01,-4.712 -3.81,-8.543 -8.52,-8.55 -4.71,-0.008 -8.54,3.811 -8.55,8.523 z m -105.33,0 -0.48,300.274 c -0.01,4.71 3.81,8.54 8.52,8.55 4.71,0.01 8.54,-3.81 8.55,-8.52 l 0.48,-300.277 c 0.01,-4.712 -3.81,-8.543 -8.52,-8.55 -4.72,-0.008 -8.55,3.811 -8.55,8.523 z" />
      </g>
      <g
         id="g168"
         transform="translate(1398.72,514.124)">
        <path
           id="path166"
           style="fill:#cecece"
           d="m 1274.05,904.366 -0.47,300.274 c -0.01,4.71 3.81,8.54 8.52,8.55 4.71,0.01 8.54,-3.81 8.55,-8.52 l 0.48,-300.277 c 0,-4.712 -3.81,-8.543 -8.53,-8.55 -4.71,-0.008 -8.54,3.811 -8.55,8.523 z m -105.33,0 -0.47,300.274 c -0.01,4.71 3.81,8.54 8.52,8.55 4.71,0.01 8.54,-3.81 8.55,-8.52 l 0.48,-300.277 c 0,-4.712 -3.82,-8.543 -8.53,-8.55 -4.71,-0.008 -8.54,3.811 -8.55,8.523 z m 368.66,0 -0.47,300.274 c -0.01,4.71 3.81,8.54 8.52,8.55 4.71,0.01 8.54,-3.81 8.55,-8.52 l 0.48,-300.277 c 0,-4.712 -3.82,-8.543 -8.53,-8.55 -4.71,-0.008 -8.54,3.811 -8.55,8.523 z m -421.32,0 -0.48,300.274 c -0.01,4.71 3.81,8.54 8.52,8.55 4.71,0.01 8.54,-3.81 8.55,-8.52 l 0.48,-300.277 c 0.01,-4.712 -3.81,-8.543 -8.52,-8.55 -4.72,-0.008 -8.55,3.811 -8.55,8.523 z m -52.67,0 -0.48,300.274 c -0.01,4.71 3.81,8.54 8.53,8.55 4.71,0.01 8.54,-3.81 8.55,-8.52 l 0.47,-300.277 c 0.01,-4.712 -3.81,-8.543 -8.52,-8.55 -4.71,-0.008 -8.54,3.811 -8.55,8.523 z m 368.66,0 -0.48,300.274 c 0,4.71 3.82,8.54 8.53,8.55 4.71,0.01 8.54,-3.81 8.55,-8.52 l 0.47,-300.277 c 0.01,-4.712 -3.81,-8.543 -8.52,-8.55 -4.71,-0.008 -8.54,3.811 -8.55,8.523 z m -421.33,0 -0.47,300.274 c -0.01,4.71 3.81,8.54 8.52,8.55 4.71,0.01 8.54,-3.81 8.55,-8.52 l 0.48,-300.277 c 0.01,-4.712 -3.81,-8.543 -8.53,-8.55 -4.71,-0.008 -8.54,3.811 -8.55,8.523 z m -210.66,0 -0.477,300.274 c -0.007,4.71 3.812,8.54 8.523,8.55 4.711,0.01 8.543,-3.81 8.55,-8.52 l 0.477,-300.277 c 0.008,-4.712 -3.811,-8.543 -8.523,-8.55 -4.711,-0.008 -8.542,3.811 -8.55,8.523 z m -421.327,0 -0.478,300.274 c -0.007,4.71 3.812,8.54 8.523,8.55 4.712,0.01 8.543,-3.81 8.551,-8.52 l 0.477,-300.277 c 0.007,-4.712 -3.812,-8.543 -8.523,-8.55 -4.712,-0.008 -8.543,3.811 -8.55,8.523 z m 105.332,0 -0.478,300.274 c -0.007,4.71 3.812,8.54 8.523,8.55 4.712,0.01 8.543,-3.81 8.55,-8.52 l 0.478,-300.277 c 0.007,-4.712 -3.812,-8.543 -8.523,-8.55 -4.712,-0.008 -8.543,3.811 -8.55,8.523 z m -202.059,-8.523 h -0.055 c -4.712,-0.008 -8.543,3.811 -8.55,8.523 l -0.478,300.274 c -0.007,4.71 3.812,8.54 8.524,8.55 h 0.055 c 4.686,-0.02 8.487,-3.83 8.495,-8.52 l 0.477,-300.277 c 0.007,-4.693 -3.782,-8.513 -8.468,-8.55 z m 676.052,8.523 -0.477,300.274 c -0.008,4.71 3.811,8.54 8.523,8.55 4.711,0.01 8.543,-3.81 8.55,-8.52 l 0.477,-300.277 c 0.008,-4.712 -3.811,-8.543 -8.523,-8.55 -4.711,-0.008 -8.542,3.811 -8.55,8.523 z m -210.664,0 -0.477,300.274 c -0.007,4.71 3.812,8.54 8.523,8.55 4.712,0.01 8.543,-3.81 8.55,-8.52 l 0.477,-300.277 c 0.008,-4.712 -3.811,-8.543 -8.523,-8.55 -4.711,-0.008 -8.542,3.811 -8.55,8.523 z m -210.663,0 -0.478,300.274 c -0.007,4.71 3.812,8.54 8.523,8.55 4.712,0.01 8.543,-3.81 8.55,-8.52 l 0.478,-300.277 c 0.007,-4.712 -3.812,-8.543 -8.523,-8.55 -4.712,-0.008 -8.543,3.811 -8.55,8.523 z m 789.989,0 -0.48,300.274 c 0,4.71 3.81,8.54 8.53,8.55 4.71,0.01 8.54,-3.81 8.55,-8.52 l 0.47,-300.277 c 0.01,-4.712 -3.81,-8.543 -8.52,-8.55 -4.71,-0.008 -8.54,3.811 -8.55,8.523 z m -1000.653,0 -0.478,300.274 c -0.007,4.71 3.812,8.54 8.523,8.55 4.712,0.01 8.543,-3.81 8.551,-8.52 l 0.477,-300.277 c 0.007,-4.712 -3.812,-8.543 -8.523,-8.55 -4.712,-0.008 -8.543,3.811 -8.55,8.523 z m 105.332,0 -0.478,300.274 c -0.007,4.71 3.812,8.54 8.523,8.55 4.712,0.01 8.543,-3.81 8.551,-8.52 l 0.477,-300.277 c 0.007,-4.712 -3.812,-8.543 -8.523,-8.55 -4.712,-0.008 -8.543,3.811 -8.55,8.523 z m 473.993,0 -0.477,300.274 c -0.008,4.71 3.811,8.54 8.523,8.55 4.711,0.01 8.543,-3.81 8.55,-8.52 l 0.477,-300.277 c 0.008,-4.712 -3.811,-8.543 -8.523,-8.55 -4.711,-0.008 -8.542,3.811 -8.55,8.523 z m -210.664,0 -0.477,300.274 c -0.007,4.71 3.812,8.54 8.523,8.55 4.712,0.01 8.543,-3.81 8.55,-8.52 l 0.478,-300.277 c 0.007,-4.712 -3.812,-8.543 -8.523,-8.55 -4.712,-0.008 -8.543,3.811 -8.551,8.523 z m 157.998,0 -0.477,300.274 c -0.008,4.71 3.812,8.54 8.523,8.55 4.711,0.01 8.543,-3.81 8.55,-8.52 l 0.477,-300.277 c 0.008,-4.712 -3.811,-8.543 -8.523,-8.55 -4.711,-0.008 -8.542,3.811 -8.55,8.523 z m -210.664,0 -0.477,300.274 c -0.007,4.71 3.812,8.54 8.523,8.55 4.712,0.01 8.543,-3.81 8.55,-8.52 l 0.478,-300.277 c 0.007,-4.712 -3.812,-8.543 -8.523,-8.55 -4.712,-0.008 -8.543,3.811 -8.551,8.523 z m 1000.658,0 -0.48,300.274 c -0.01,4.71 3.81,8.54 8.52,8.55 4.71,0.01 8.54,-3.81 8.55,-8.52 l 0.48,-300.277 c 0.01,-4.712 -3.81,-8.543 -8.52,-8.55 -4.72,-0.008 -8.55,3.811 -8.55,8.523 z m -421.33,0 -0.48,300.274 c -0.01,4.71 3.81,8.54 8.52,8.55 4.71,0.01 8.55,-3.81 8.55,-8.52 l 0.48,-300.277 c 0.01,-4.712 -3.81,-8.543 -8.52,-8.55 -4.71,-0.008 -8.55,3.811 -8.55,8.523 z m -631.994,0 -0.477,300.274 c -0.007,4.71 3.812,8.54 8.523,8.55 4.712,0.01 8.543,-3.81 8.55,-8.52 l 0.478,-300.277 c 0.007,-4.712 -3.812,-8.543 -8.523,-8.55 -4.712,-0.008 -8.543,3.811 -8.551,8.523 z m 1000.654,0 -0.48,300.274 c 0,4.71 3.81,8.54 8.53,8.55 4.71,0.01 8.54,-3.81 8.54,-8.52 l 0.48,-300.277 c 0.01,-4.712 -3.81,-8.543 -8.52,-8.55 -4.71,-0.008 -8.54,3.811 -8.55,8.523 z m -105.33,0 -0.48,300.274 c -0.01,4.71 3.81,8.54 8.52,8.55 4.72,0.01 8.55,-3.81 8.55,-8.52 l 0.48,-300.277 c 0.01,-4.712 -3.81,-8.543 -8.52,-8.55 -4.71,-0.008 -8.54,3.811 -8.55,8.523 z m -105.33,0 -0.48,300.274 c -0.01,4.71 3.81,8.54 8.52,8.55 4.71,0.01 8.54,-3.81 8.55,-8.52 l 0.48,-300.277 c 0.01,-4.712 -3.81,-8.543 -8.52,-8.55 -4.72,-0.008 -8.55,3.811 -8.55,8.523 z" />
      </g>
      <g
         id="g176"
         transform="translate(4242.54,514.737)">
        <path
           id="path174"
           style="fill:#cecece"
           d="m 1168.72,904.366 -0.47,300.274 c -0.01,4.71 3.81,8.54 8.52,8.55 4.71,0.01 8.54,-3.81 8.55,-8.52 l 0.48,-300.277 c 0,-4.712 -3.82,-8.543 -8.53,-8.55 -4.71,-0.008 -8.54,3.811 -8.55,8.523 z m -52.66,0 -0.48,300.274 c -0.01,4.71 3.81,8.54 8.52,8.55 4.71,0.01 8.54,-3.81 8.55,-8.52 l 0.48,-300.277 c 0.01,-4.712 -3.81,-8.543 -8.52,-8.55 -4.72,-0.008 -8.55,3.811 -8.55,8.523 z m -52.67,0 -0.48,300.274 c -0.01,4.71 3.81,8.54 8.53,8.55 4.71,0.01 8.54,-3.81 8.55,-8.52 l 0.47,-300.277 c 0.01,-4.712 -3.81,-8.543 -8.52,-8.55 -4.71,-0.008 -8.54,3.811 -8.55,8.523 z m -52.67,0 -0.47,300.274 c -0.01,4.71 3.81,8.54 8.52,8.55 4.71,0.01 8.54,-3.81 8.55,-8.52 l 0.48,-300.277 c 0.01,-4.712 -3.81,-8.543 -8.53,-8.55 -4.71,-0.008 -8.54,3.811 -8.55,8.523 z m -210.66,0 -0.477,300.274 c -0.007,4.71 3.812,8.54 8.523,8.55 4.711,0.01 8.543,-3.81 8.55,-8.52 l 0.477,-300.277 c 0.008,-4.712 -3.811,-8.543 -8.523,-8.55 -4.711,-0.008 -8.542,3.811 -8.55,8.523 z m -421.327,0 -0.478,300.274 c -0.007,4.71 3.812,8.54 8.523,8.55 4.712,0.01 8.543,-3.81 8.551,-8.52 l 0.477,-300.277 c 0.007,-4.712 -3.812,-8.543 -8.523,-8.55 -4.712,-0.008 -8.543,3.811 -8.55,8.523 z m 105.332,0 -0.478,300.274 c -0.007,4.71 3.812,8.54 8.523,8.55 4.712,0.01 8.543,-3.81 8.55,-8.52 l 0.478,-300.277 c 0.007,-4.712 -3.812,-8.543 -8.523,-8.55 -4.712,-0.008 -8.543,3.811 -8.55,8.523 z m -202.059,-8.523 h -0.055 c -4.712,-0.008 -8.543,3.811 -8.55,8.523 l -0.478,300.274 c -0.007,4.71 3.812,8.54 8.524,8.55 h 0.055 c 4.686,-0.02 8.487,-3.83 8.495,-8.52 l 0.477,-300.277 c 0.007,-4.693 -3.782,-8.513 -8.468,-8.55 z m 676.052,8.523 -0.477,300.274 c -0.008,4.71 3.811,8.54 8.523,8.55 4.711,0.01 8.543,-3.81 8.55,-8.52 l 0.477,-300.277 c 0.008,-4.712 -3.811,-8.543 -8.523,-8.55 -4.711,-0.008 -8.542,3.811 -8.55,8.523 z m -210.664,0 -0.477,300.274 c -0.007,4.71 3.812,8.54 8.523,8.55 4.712,0.01 8.543,-3.81 8.55,-8.52 l 0.477,-300.277 c 0.008,-4.712 -3.811,-8.543 -8.523,-8.55 -4.711,-0.008 -8.542,3.811 -8.55,8.523 z m -210.663,0 -0.478,300.274 c -0.007,4.71 3.812,8.54 8.523,8.55 4.712,0.01 8.543,-3.81 8.55,-8.52 l 0.478,-300.277 c 0.007,-4.712 -3.812,-8.543 -8.523,-8.55 -4.712,-0.008 -8.543,3.811 -8.55,8.523 z m -210.664,0 -0.478,300.274 c -0.007,4.71 3.812,8.54 8.523,8.55 4.712,0.01 8.543,-3.81 8.551,-8.52 l 0.477,-300.277 c 0.007,-4.712 -3.812,-8.543 -8.523,-8.55 -4.712,-0.008 -8.543,3.811 -8.55,8.523 z m 105.332,0 -0.478,300.274 c -0.007,4.71 3.812,8.54 8.523,8.55 4.712,0.01 8.543,-3.81 8.551,-8.52 l 0.477,-300.277 c 0.007,-4.712 -3.812,-8.543 -8.523,-8.55 -4.712,-0.008 -8.543,3.811 -8.55,8.523 z m 473.993,0 -0.477,300.274 c -0.008,4.71 3.811,8.54 8.523,8.55 4.711,0.01 8.543,-3.81 8.55,-8.52 l 0.477,-300.277 c 0.008,-4.712 -3.811,-8.543 -8.523,-8.55 -4.711,-0.008 -8.542,3.811 -8.55,8.523 z m -210.664,0 -0.477,300.274 c -0.007,4.71 3.812,8.54 8.523,8.55 4.712,0.01 8.543,-3.81 8.55,-8.52 l 0.478,-300.277 c 0.007,-4.712 -3.812,-8.543 -8.523,-8.55 -4.712,-0.008 -8.543,3.811 -8.551,8.523 z m 157.998,0 -0.477,300.274 c -0.008,4.71 3.812,8.54 8.523,8.55 4.711,0.01 8.543,-3.81 8.55,-8.52 l 0.477,-300.277 c 0.008,-4.712 -3.811,-8.543 -8.523,-8.55 -4.711,-0.008 -8.542,3.811 -8.55,8.523 z m -210.664,0 -0.477,300.274 c -0.007,4.71 3.812,8.54 8.523,8.55 4.712,0.01 8.543,-3.81 8.55,-8.52 l 0.478,-300.277 c 0.007,-4.712 -3.812,-8.543 -8.523,-8.55 -4.712,-0.008 -8.543,3.811 -8.551,8.523 z m 579.328,0 -0.48,300.274 c -0.01,4.71 3.81,8.54 8.52,8.55 4.71,0.01 8.55,-3.81 8.55,-8.52 l 0.48,-300.277 c 0.01,-4.712 -3.81,-8.543 -8.52,-8.55 -4.71,-0.008 -8.55,3.811 -8.55,8.523 z m -631.994,0 -0.477,300.274 c -0.007,4.71 3.812,8.54 8.523,8.55 4.712,0.01 8.543,-3.81 8.55,-8.52 l 0.478,-300.277 c 0.007,-4.712 -3.812,-8.543 -8.523,-8.55 -4.712,-0.008 -8.543,3.811 -8.551,8.523 z" />
      </g>
      <g
         id="g202">
        <g
           id="g188"
           transform="translate(-67.9528,508.417)">
          <path
             id="path186"
             style="fill:none;stroke:#810011;stroke-width:33.54px"
             d="m 468.978,949.586 1.188,221.144" />
        </g>
        <g
           id="g192"
           transform="translate(-67.9528,508.417)">
          <path
             id="path190"
             style="fill:none;stroke:#810011;stroke-width:33.54px"
             d="m 468.978,949.586 1.188,221.144" />
        </g>
        <g
           id="g196"
           transform="rotate(-90,689.8015,1348.3385)">
          <path
             id="path194"
             style="fill:none;stroke:#810011;stroke-width:33.54px"
             d="m 468.978,949.586 1.188,221.144" />
        </g>
        <g
           id="g200"
           transform="rotate(-90,689.8015,1348.3385)">
          <path
             id="path198"
             style="fill:none;stroke:#810011;stroke-width:33.54px"
             d="m 468.978,949.586 1.188,221.144" />
        </g>
      </g>
      <g
         id="g220">
        <g
           id="g206"
           transform="translate(803.585,508.417)">
          <path
             id="path204"
             style="fill:none;stroke:#810011;stroke-width:33.54px"
             d="m 468.978,949.586 1.188,221.144" />
        </g>
        <g
           id="g210"
           transform="translate(803.585,508.417)">
          <path
             id="path208"
             style="fill:none;stroke:#810011;stroke-width:33.54px"
             d="m 468.978,949.586 1.188,221.144" />
        </g>
        <g
           id="g214"
           transform="rotate(-90,1125.5705,912.5695)">
          <path
             id="path212"
             style="fill:none;stroke:#810011;stroke-width:33.54px"
             d="m 468.978,949.586 1.188,221.144" />
        </g>
        <g
           id="g218"
           transform="rotate(-90,1125.5705,912.5695)">
          <path
             id="path216"
             style="fill:none;stroke:#810011;stroke-width:33.54px"
             d="m 468.978,949.586 1.188,221.144" />
        </g>
      </g>
      <g
         id="g238">
        <g
           id="g224"
           transform="translate(1675.12,508.417)">
          <path
             id="path222"
             style="fill:none;stroke:#810011;stroke-width:33.54px"
             d="m 468.978,949.586 1.188,221.144" />
        </g>
        <g
           id="g228"
           transform="translate(1675.12,508.417)">
          <path
             id="path226"
             style="fill:none;stroke:#810011;stroke-width:33.54px"
             d="m 468.978,949.586 1.188,221.144" />
        </g>
        <g
           id="g232"
           transform="rotate(-90,1561.34,476.8)">
          <path
             id="path230"
             style="fill:none;stroke:#810011;stroke-width:33.54px"
             d="m 468.978,949.586 1.188,221.144" />
        </g>
        <g
           id="g236"
           transform="rotate(-90,1561.34,476.8)">
          <path
             id="path234"
             style="fill:none;stroke:#810011;stroke-width:33.54px"
             d="m 468.978,949.586 1.188,221.144" />
        </g>
      </g>
      <g
         id="g256">
        <g
           id="g242"
           transform="translate(2546.66,508.417)">
          <path
             id="path240"
             style="fill:none;stroke:#810011;stroke-width:33.54px"
             d="m 468.978,949.586 1.188,221.144" />
        </g>
        <g
           id="g246"
           transform="translate(2546.66,508.417)">
          <path
             id="path244"
             style="fill:none;stroke:#810011;stroke-width:33.54px"
             d="m 468.978,949.586 1.188,221.144" />
        </g>
        <g
           id="g250"
           transform="rotate(-90,1997.11,41.03)">
          <path
             id="path248"
             style="fill:none;stroke:#810011;stroke-width:33.54px"
             d="m 468.978,949.586 1.188,221.144" />
        </g>
        <g
           id="g254"
           transform="rotate(-90,1997.11,41.03)">
          <path
             id="path252"
             style="fill:none;stroke:#810011;stroke-width:33.54px"
             d="m 468.978,949.586 1.188,221.144" />
        </g>
      </g>
      <g
         id="g290">
        <g
           id="g260"
           transform="translate(3418.2,508.417)">
          <path
             id="path258"
             style="fill:none;stroke:#810011;stroke-width:33.54px"
             d="m 468.978,949.586 1.188,221.144" />
        </g>
        <g
           id="g264"
           transform="translate(3418.2,508.417)">
          <path
             id="path262"
             style="fill:none;stroke:#810011;stroke-width:33.54px"
             d="m 468.978,949.586 1.188,221.144" />
        </g>
        <g
           id="g268"
           transform="translate(3418.2,508.417)">
          <path
             id="path266"
             style="fill:none;stroke:#810011;stroke-width:33.54px"
             d="m 468.978,949.586 1.188,221.144" />
        </g>
        <g
           id="g272"
           transform="translate(3418.2,508.417)">
          <path
             id="path270"
             style="fill:none;stroke:#810011;stroke-width:33.54px"
             d="m 468.978,949.586 1.188,221.144" />
        </g>
        <g
           id="g276"
           transform="rotate(-90,2432.875,-394.735)">
          <path
             id="path274"
             style="fill:none;stroke:#810011;stroke-width:33.54px"
             d="m 468.978,949.586 1.188,221.144" />
        </g>
        <g
           id="g280"
           transform="rotate(-90,2432.875,-394.735)">
          <path
             id="path278"
             style="fill:none;stroke:#810011;stroke-width:33.54px"
             d="m 468.978,949.586 1.188,221.144" />
        </g>
        <g
           id="g284"
           transform="rotate(-90,2432.875,-394.735)">
          <path
             id="path282"
             style="fill:none;stroke:#810011;stroke-width:33.54px"
             d="m 468.978,949.586 1.188,221.144" />
        </g>
        <g
           id="g288"
           transform="rotate(-90,2432.875,-394.735)">
          <path
             id="path286"
             style="fill:none;stroke:#810011;stroke-width:33.54px"
             d="m 468.978,949.586 1.188,221.144" />
        </g>
      </g>
      <g
         id="g308">
        <g
           id="g294"
           transform="translate(4285.27,510.795)">
          <path
             id="path292"
             style="fill:none;stroke:#810011;stroke-width:33.54px"
             d="m 468.978,949.586 1.188,221.144" />
        </g>
        <g
           id="g298"
           transform="translate(4285.27,510.795)">
          <path
             id="path296"
             style="fill:none;stroke:#810011;stroke-width:33.54px"
             d="m 468.978,949.586 1.188,221.144" />
        </g>
        <g
           id="g302"
           transform="rotate(-90,2867.605,-827.085)">
          <path
             id="path300"
             style="fill:none;stroke:#810011;stroke-width:33.54px"
             d="m 468.978,949.586 1.188,221.144" />
        </g>
        <g
           id="g306"
           transform="rotate(-90,2867.605,-827.085)">
          <path
             id="path304"
             style="fill:none;stroke:#810011;stroke-width:33.54px"
             d="m 468.978,949.586 1.188,221.144" />
        </g>
      </g>
      <g
         id="g348"
         transform="translate(-229.922,516.124)">
        <g
           id="g334"
           transform="translate(470.941,-7.70709)">
          <path
             id="path332"
             style="fill:none;stroke:#810011;stroke-width:33.54px"
             d="m 468.978,949.586 1.188,221.144" />
        </g>
        <g
           id="g338"
           transform="rotate(-90,701.1885,820.8315)">
          <path
             id="path336"
             style="fill:none;stroke:#810011;stroke-width:33.54px"
             d="m 468.978,949.586 1.188,221.144" />
        </g>
        <g
           id="g342"
           transform="matrix(-0.85136,0.524589,-0.578913,-0.937333,1982.52,1785.62)">
          <path
             id="path340"
             style="fill:none;stroke:#810011;stroke-width:31.86px"
             d="m 489.789,941.51 23.375,243.93" />
        </g>
        <g
           id="g346"
           transform="matrix(0.85136,0.524589,0.578913,-0.937333,-102.677,1785.62)">
          <path
             id="path344"
             style="fill:none;stroke:#810011;stroke-width:31.86px"
             d="m 489.789,941.51 23.375,243.93" />
        </g>
      </g>
      <g
         id="g510"
         transform="translate(641.616,516.124)">
        <g
           id="g496"
           transform="translate(470.941,-7.70709)">
          <path
             id="path494"
             style="fill:none;stroke:#810011;stroke-width:33.54px"
             d="m 468.978,949.586 1.188,221.144" />
        </g>
        <g
           id="g500"
           transform="rotate(-90,701.1885,820.8315)">
          <path
             id="path498"
             style="fill:none;stroke:#810011;stroke-width:33.54px"
             d="m 468.978,949.586 1.188,221.144" />
        </g>
        <g
           id="g504"
           transform="matrix(-0.85136,0.524589,-0.578913,-0.937333,1982.52,1785.62)">
          <path
             id="path502"
             style="fill:none;stroke:#810011;stroke-width:31.86px"
             d="m 489.789,941.51 23.375,243.93" />
        </g>
        <g
           id="g508"
           transform="matrix(0.85136,0.524589,0.578913,-0.937333,-102.677,1785.62)">
          <path
             id="path506"
             style="fill:none;stroke:#810011;stroke-width:31.86px"
             d="m 489.789,941.51 23.375,243.93" />
        </g>
      </g>
      <g
         id="g528"
         transform="translate(1513.15,516.124)">
        <g
           id="g514"
           transform="translate(470.941,-7.70709)">
          <path
             id="path512"
             style="fill:none;stroke:#810011;stroke-width:33.54px"
             d="m 468.978,949.586 1.188,221.144" />
        </g>
        <g
           id="g518"
           transform="rotate(-90,701.1885,820.8315)">
          <path
             id="path516"
             style="fill:none;stroke:#810011;stroke-width:33.54px"
             d="m 468.978,949.586 1.188,221.144" />
        </g>
        <g
           id="g522"
           transform="matrix(-0.85136,0.524589,-0.578913,-0.937333,1982.52,1785.62)">
          <path
             id="path520"
             style="fill:none;stroke:#810011;stroke-width:31.86px"
             d="m 489.789,941.51 23.375,243.93" />
        </g>
        <g
           id="g526"
           transform="matrix(0.85136,0.524589,0.578913,-0.937333,-102.677,1785.62)">
          <path
             id="path524"
             style="fill:none;stroke:#810011;stroke-width:31.86px"
             d="m 489.789,941.51 23.375,243.93" />
        </g>
      </g>
      <g
         id="g546"
         transform="translate(2384.69,516.124)">
        <g
           id="g532"
           transform="translate(470.941,-7.70709)">
          <path
             id="path530"
             style="fill:none;stroke:#810011;stroke-width:33.54px"
             d="m 468.978,949.586 1.188,221.144" />
        </g>
        <g
           id="g536"
           transform="rotate(-90,701.1885,820.8315)">
          <path
             id="path534"
             style="fill:none;stroke:#810011;stroke-width:33.54px"
             d="m 468.978,949.586 1.188,221.144" />
        </g>
        <g
           id="g540"
           transform="matrix(-0.85136,0.524589,-0.578913,-0.937333,1982.52,1785.62)">
          <path
             id="path538"
             style="fill:none;stroke:#810011;stroke-width:31.86px"
             d="m 489.789,941.51 23.375,243.93" />
        </g>
        <g
           id="g544"
           transform="matrix(0.85136,0.524589,0.578913,-0.937333,-102.677,1785.62)">
          <path
             id="path542"
             style="fill:none;stroke:#810011;stroke-width:31.86px"
             d="m 489.789,941.51 23.375,243.93" />
        </g>
      </g>
      <g
         id="g564"
         transform="translate(3256.23,516.124)">
        <g
           id="g550"
           transform="translate(470.941,-7.70709)">
          <path
             id="path548"
             style="fill:none;stroke:#810011;stroke-width:33.54px"
             d="m 468.978,949.586 1.188,221.144" />
        </g>
        <g
           id="g554"
           transform="rotate(-90,701.1885,820.8315)">
          <path
             id="path552"
             style="fill:none;stroke:#810011;stroke-width:33.54px"
             d="m 468.978,949.586 1.188,221.144" />
        </g>
        <g
           id="g558"
           transform="matrix(-0.85136,0.524589,-0.578913,-0.937333,1982.52,1785.62)">
          <path
             id="path556"
             style="fill:none;stroke:#810011;stroke-width:31.86px"
             d="m 489.789,941.51 23.375,243.93" />
        </g>
        <g
           id="g562"
           transform="matrix(0.85136,0.524589,0.578913,-0.937333,-102.677,1785.62)">
          <path
             id="path560"
             style="fill:none;stroke:#810011;stroke-width:31.86px"
             d="m 489.789,941.51 23.375,243.93" />
        </g>
      </g>
      <g
         id="g582"
         transform="translate(3256.23,516.124)">
        <g
           id="g568"
           transform="translate(470.941,-7.70709)">
          <path
             id="path566"
             style="fill:none;stroke:#810011;stroke-width:33.54px"
             d="m 468.978,949.586 1.188,221.144" />
        </g>
        <g
           id="g572"
           transform="rotate(-90,701.1885,820.8315)">
          <path
             id="path570"
             style="fill:none;stroke:#810011;stroke-width:33.54px"
             d="m 468.978,949.586 1.188,221.144" />
        </g>
        <g
           id="g576"
           transform="matrix(-0.85136,0.524589,-0.578913,-0.937333,1982.52,1785.62)">
          <path
             id="path574"
             style="fill:none;stroke:#810011;stroke-width:31.86px"
             d="m 489.789,941.51 23.375,243.93" />
        </g>
        <g
           id="g580"
           transform="matrix(0.85136,0.524589,0.578913,-0.937333,-102.677,1785.62)">
          <path
             id="path578"
             style="fill:none;stroke:#810011;stroke-width:31.86px"
             d="m 489.789,941.51 23.375,243.93" />
        </g>
      </g>
      <g
         id="g600"
         transform="translate(4123.3,518.502)">
        <g
           id="g586"
           transform="translate(470.941,-7.70709)">
          <path
             id="path584"
             style="fill:none;stroke:#810011;stroke-width:33.54px"
             d="m 468.978,949.586 1.188,221.144" />
        </g>
        <g
           id="g590"
           transform="rotate(-90,701.1885,820.8315)">
          <path
             id="path588"
             style="fill:none;stroke:#810011;stroke-width:33.54px"
             d="m 468.978,949.586 1.188,221.144" />
        </g>
        <g
           id="g594"
           transform="matrix(-0.85136,0.524589,-0.578913,-0.937333,1982.52,1785.62)">
          <path
             id="path592"
             style="fill:none;stroke:#810011;stroke-width:31.86px"
             d="m 489.789,941.51 23.375,243.93" />
        </g>
        <g
           id="g598"
           transform="matrix(0.85136,0.524589,0.578913,-0.937333,-102.677,1785.62)">
          <path
             id="path596"
             style="fill:none;stroke:#810011;stroke-width:31.86px"
             d="m 489.789,941.51 23.375,243.93" />
        </g>
      </g>
      <g
         id="g628"
         transform="translate(316.528,516.664)">
        <g
           id="g622"
           transform="matrix(-0.85136,0.524589,-0.578913,-0.937333,1740.66,1785.67)">
          <path
             id="path620"
             style="fill:none;stroke:#810011;stroke-width:31.86px"
             d="m 489.789,941.51 23.375,243.93" />
        </g>
        <g
           id="g626"
           transform="matrix(0.85136,0.524589,0.578913,-0.937333,-344.529,1785.67)">
          <path
             id="path624"
             style="fill:none;stroke:#810011;stroke-width:31.86px"
             d="m 489.789,941.51 23.375,243.93" />
        </g>
      </g>
      <g
         id="g758"
         transform="translate(1188.07,516.664)">
        <g
           id="g752"
           transform="matrix(-0.85136,0.524589,-0.578913,-0.937333,1740.66,1785.67)">
          <path
             id="path750"
             style="fill:none;stroke:#810011;stroke-width:31.86px"
             d="m 489.789,941.51 23.375,243.93" />
        </g>
        <g
           id="g756"
           transform="matrix(0.85136,0.524589,0.578913,-0.937333,-344.529,1785.67)">
          <path
             id="path754"
             style="fill:none;stroke:#810011;stroke-width:31.86px"
             d="m 489.789,941.51 23.375,243.93" />
        </g>
      </g>
      <g
         id="g768"
         transform="translate(2059.6,516.664)">
        <g
           id="g762"
           transform="matrix(-0.85136,0.524589,-0.578913,-0.937333,1740.66,1785.67)">
          <path
             id="path760"
             style="fill:none;stroke:#810011;stroke-width:31.86px"
             d="m 489.789,941.51 23.375,243.93" />
        </g>
        <g
           id="g766"
           transform="matrix(0.85136,0.524589,0.578913,-0.937333,-344.529,1785.67)">
          <path
             id="path764"
             style="fill:none;stroke:#810011;stroke-width:31.86px"
             d="m 489.789,941.51 23.375,243.93" />
        </g>
      </g>
      <g
         id="g778"
         transform="translate(2931.14,516.664)">
        <g
           id="g772"
           transform="matrix(-0.85136,0.524589,-0.578913,-0.937333,1740.66,1785.67)">
          <path
             id="path770"
             style="fill:none;stroke:#810011;stroke-width:31.86px"
             d="m 489.789,941.51 23.375,243.93" />
        </g>
        <g
           id="g776"
           transform="matrix(0.85136,0.524589,0.578913,-0.937333,-344.529,1785.67)">
          <path
             id="path774"
             style="fill:none;stroke:#810011;stroke-width:31.86px"
             d="m 489.789,941.51 23.375,243.93" />
        </g>
      </g>
      <g
         id="g788"
         transform="translate(3802.68,516.664)">
        <g
           id="g782"
           transform="matrix(-0.85136,0.524589,-0.578913,-0.937333,1740.66,1785.67)">
          <path
             id="path780"
             style="fill:none;stroke:#810011;stroke-width:31.86px"
             d="m 489.789,941.51 23.375,243.93" />
        </g>
        <g
           id="g786"
           transform="matrix(0.85136,0.524589,0.578913,-0.937333,-344.529,1785.67)">
          <path
             id="path784"
             style="fill:none;stroke:#810011;stroke-width:31.86px"
             d="m 489.789,941.51 23.375,243.93" />
        </g>
      </g>
      <g
         id="g798"
         transform="translate(3802.68,516.664)">
        <g
           id="g792"
           transform="matrix(-0.85136,0.524589,-0.578913,-0.937333,1740.66,1785.67)">
          <path
             id="path790"
             style="fill:none;stroke:#810011;stroke-width:31.86px"
             d="m 489.789,941.51 23.375,243.93" />
        </g>
        <g
           id="g796"
           transform="matrix(0.85136,0.524589,0.578913,-0.937333,-344.529,1785.67)">
          <path
             id="path794"
             style="fill:none;stroke:#810011;stroke-width:31.86px"
             d="m 489.789,941.51 23.375,243.93" />
        </g>
      </g>
      <g
         id="g808"
         transform="translate(4669.75,519.042)">
        <g
           id="g802"
           transform="matrix(-0.85136,0.524589,-0.578913,-0.937333,1740.66,1785.67)">
          <path
             id="path800"
             style="fill:none;stroke:#810011;stroke-width:31.86px"
             d="m 489.789,941.51 23.375,243.93" />
        </g>
        <g
           id="g806"
           transform="matrix(0.85136,0.524589,0.578913,-0.937333,-344.529,1785.67)">
          <path
             id="path804"
             style="fill:none;stroke:#810011;stroke-width:31.86px"
             d="m 489.789,941.51 23.375,243.93" />
        </g>
      </g>
    </g>
  </g>
</svg>
