<?xml version="1.0" encoding="UTF-8" standalone="no"?>
<!-- Created with Inkscape (http://www.inkscape.org/) -->

<svg
   width="352.11813mm"
   height="263.60501mm"
   viewBox="0 0 352.11813 263.60501"
   version="1.1"
   id="svg9104"
   inkscape:version="1.1.1 (3bf5ae0d25, 2021-09-20)"
   sodipodi:docname="2022-HU-04-question.svg"
   xmlns:inkscape="http://www.inkscape.org/namespaces/inkscape"
   xmlns:sodipodi="http://sodipodi.sourceforge.net/DTD/sodipodi-0.dtd"
   xmlns="http://www.w3.org/2000/svg"
   xmlns:svg="http://www.w3.org/2000/svg">
  <sodipodi:namedview
     id="namedview9106"
     pagecolor="#ffffff"
     bordercolor="#666666"
     borderopacity="1.0"
     inkscape:pageshadow="2"
     inkscape:pageopacity="0.0"
     inkscape:pagecheckerboard="0"
     inkscape:document-units="mm"
     showgrid="false"
     inkscape:zoom="0.66368547"
     inkscape:cx="665.22475"
     inkscape:cy="497.97685"
     inkscape:window-width="1920"
     inkscape:window-height="1137"
     inkscape:window-x="-8"
     inkscape:window-y="-8"
     inkscape:window-maximized="1"
     inkscape:current-layer="layer1" />
  <defs
     id="defs9101" />
  <g
     inkscape:label="Ebene 1"
     inkscape:groupmode="layer"
     id="layer1"
     transform="translate(71.01275,-16.69749)">
    <g
       transform="matrix(0,-0.26458333,0.26458333,0,-183.29866,377.7128)"
       id="g294"
       style="clip-rule:evenodd;fill-rule:evenodd;stroke-linecap:round;stroke-linejoin:round;stroke-miterlimit:1.5">
      <g
         transform="matrix(0.927056,0,0,0.923824,26.8553,32.328)"
         id="g288">
        <rect
           x="368.16501"
           y="424.388"
           width="323.60501"
           height="324.737"
           style="fill:#ffeba3;stroke:none;stroke-width:2.64px"
           id="rect286" />
      </g>
      <g
         transform="matrix(0.78813,0,0,0.78682,100.482,112.716)"
         id="g292">
        <rect
           x="368.16501"
           y="424.388"
           width="323.60501"
           height="324.737"
           style="fill:#b2db93"
           id="rect290" />
      </g>
    </g>
    <g
       transform="matrix(0.26458333,0,0,0.26458333,-439.29287,-3.3030692)"
       id="g408"
       style="clip-rule:evenodd;fill-rule:evenodd;stroke-linecap:round;stroke-linejoin:round;stroke-miterlimit:1.5">
      <g
         transform="translate(1023.76)"
         id="g402">
        <g
           transform="matrix(0.927056,0,0,0.923824,26.8553,32.328)"
           id="g396">
          <rect
             x="368.16501"
             y="424.388"
             width="323.60501"
             height="324.737"
             style="fill:#ff000f;stroke:none;stroke-width:2.64px"
             id="rect394" />
        </g>
        <g
           transform="matrix(0.78813,0,0,0.78682,100.482,112.716)"
           id="g400">
          <rect
             x="368.16501"
             y="424.388"
             width="323.60501"
             height="324.737"
             style="fill:#ffffff"
             id="rect398" />
        </g>
      </g>
      <g
         transform="matrix(10.1722,0,0,10.1722,-6411.25,-5116.75)"
         id="g406">
        <path
           d="M 781.088,567.233 V 555.68 c -2.15,1.65 -3.597,2.475 -4.342,2.475 -0.355,0 -0.671,-0.141 -0.946,-0.425 -0.275,-0.283 -0.412,-0.611 -0.412,-0.984 0,-0.431 0.135,-0.749 0.406,-0.952 0.271,-0.203 0.749,-0.465 1.434,-0.787 1.025,-0.482 1.843,-0.99 2.457,-1.523 0.614,-0.534 1.157,-1.13 1.631,-1.79 0.474,-0.661 0.783,-1.067 0.927,-1.219 0.144,-0.153 0.415,-0.229 0.813,-0.229 0.448,0 0.808,0.174 1.079,0.521 0.271,0.347 0.406,0.825 0.406,1.434 v 14.537 c 0,1.701 -0.58,2.551 -1.739,2.551 -0.517,0 -0.931,-0.173 -1.244,-0.52 -0.314,-0.347 -0.47,-0.859 -0.47,-1.536 z"
           style="fill-rule:nonzero"
           id="path404" />
      </g>
    </g>
    <g
       transform="matrix(0.26458333,0,0,0.26458333,-257.46323,-3.2921683)"
       id="g504"
       style="clip-rule:evenodd;fill-rule:evenodd;stroke-linecap:round;stroke-linejoin:round;stroke-miterlimit:1.5">
      <g
         transform="translate(1023.76)"
         id="g498">
        <g
           transform="matrix(0.927056,0,0,0.923824,26.8553,32.328)"
           id="g492">
          <rect
             x="368.16501"
             y="424.388"
             width="323.60501"
             height="324.737"
             style="fill:#ff000f;stroke:none;stroke-width:2.64px"
             id="rect490" />
        </g>
        <g
           transform="matrix(0.78813,0,0,0.78682,100.482,112.716)"
           id="g496">
          <rect
             x="368.16501"
             y="424.388"
             width="323.60501"
             height="324.737"
             style="fill:#ffffff"
             id="rect494" />
        </g>
      </g>
      <g
         transform="matrix(10.1722,0,0,10.1722,-6411.25,-5116.75)"
         id="g502">
        <path
           d="M 781.088,567.233 V 555.68 c -2.15,1.65 -3.597,2.475 -4.342,2.475 -0.355,0 -0.671,-0.141 -0.946,-0.425 -0.275,-0.283 -0.412,-0.611 -0.412,-0.984 0,-0.431 0.135,-0.749 0.406,-0.952 0.271,-0.203 0.749,-0.465 1.434,-0.787 1.025,-0.482 1.843,-0.99 2.457,-1.523 0.614,-0.534 1.157,-1.13 1.631,-1.79 0.474,-0.661 0.783,-1.067 0.927,-1.219 0.144,-0.153 0.415,-0.229 0.813,-0.229 0.448,0 0.808,0.174 1.079,0.521 0.271,0.347 0.406,0.825 0.406,1.434 v 14.537 c 0,1.701 -0.58,2.551 -1.739,2.551 -0.517,0 -0.931,-0.173 -1.244,-0.52 -0.314,-0.347 -0.47,-0.859 -0.47,-1.536 z"
           style="fill-rule:nonzero"
           id="path500" />
      </g>
    </g>
    <g
       transform="matrix(0.26458333,0,0,0.26458333,-440.76636,-89.425975)"
       id="g632"
       style="clip-rule:evenodd;fill-rule:evenodd;stroke-linecap:round;stroke-linejoin:round;stroke-miterlimit:1.5">
      <g
         transform="translate(1372.94,-23.2892)"
         id="g626">
        <g
           transform="matrix(0.927056,0,0,0.923824,26.8553,32.328)"
           id="g620">
          <rect
             x="368.16501"
             y="424.388"
             width="323.60501"
             height="324.737"
             style="fill:#ff000f;stroke:none;stroke-width:2.64px"
             id="rect618" />
        </g>
        <g
           transform="matrix(0.78813,0,0,0.78682,100.482,112.716)"
           id="g624">
          <rect
             x="368.16501"
             y="424.388"
             width="323.60501"
             height="324.737"
             style="fill:#ffffff"
             id="rect622" />
        </g>
      </g>
      <g
         transform="matrix(10.1722,0,0,10.1722,-6062.61,-5143)"
         id="g630">
        <path
           d="M 781.088,567.233 V 555.68 c -2.15,1.65 -3.597,2.475 -4.342,2.475 -0.355,0 -0.671,-0.141 -0.946,-0.425 -0.275,-0.283 -0.412,-0.611 -0.412,-0.984 0,-0.431 0.135,-0.749 0.406,-0.952 0.271,-0.203 0.749,-0.465 1.434,-0.787 1.025,-0.482 1.843,-0.99 2.457,-1.523 0.614,-0.534 1.157,-1.13 1.631,-1.79 0.474,-0.661 0.783,-1.067 0.927,-1.219 0.144,-0.153 0.415,-0.229 0.813,-0.229 0.448,0 0.808,0.174 1.079,0.521 0.271,0.347 0.406,0.825 0.406,1.434 v 14.537 c 0,1.701 -0.58,2.551 -1.739,2.551 -0.517,0 -0.931,-0.173 -1.244,-0.52 -0.314,-0.347 -0.47,-0.859 -0.47,-1.536 z"
           style="fill-rule:nonzero"
           id="path628" />
      </g>
    </g>
    <g
       transform="matrix(0,-0.26458333,0.26458333,0,-183.29863,193.48277)"
       id="g722"
       style="clip-rule:evenodd;fill-rule:evenodd;stroke-linecap:round;stroke-linejoin:round;stroke-miterlimit:1.5">
      <g
         transform="matrix(0.927056,0,0,0.923824,26.8553,32.328)"
         id="g716">
        <rect
           x="368.16501"
           y="424.388"
           width="323.60501"
           height="324.737"
           style="fill:#ffeba3;stroke:none;stroke-width:2.64px"
           id="rect714" />
      </g>
      <g
         transform="matrix(0.78813,0,0,0.78682,100.482,112.716)"
         id="g720">
        <rect
           x="368.16501"
           y="424.388"
           width="323.60501"
           height="324.737"
           style="fill:#b2db93"
           id="rect718" />
      </g>
    </g>
    <g
       transform="matrix(0.26458333,0,0,0.26458333,-164.51088,-2.2725436)"
       id="g774"
       style="clip-rule:evenodd;fill-rule:evenodd;stroke-linecap:round;stroke-linejoin:round;stroke-miterlimit:1.5">
      <g
         transform="translate(328.826,343.612)"
         id="g768">
        <g
           transform="matrix(0.927056,0,0,0.923824,26.8553,32.328)"
           id="g762">
          <rect
             x="368.16501"
             y="424.388"
             width="323.60501"
             height="324.737"
             style="fill:#ff000f;stroke:none;stroke-width:2.64px"
             id="rect760" />
        </g>
        <g
           transform="matrix(0.78813,0,0,0.78682,100.482,112.716)"
           id="g766">
          <rect
             x="368.16501"
             y="424.388"
             width="323.60501"
             height="324.737"
             style="fill:#ffffff"
             id="rect764" />
        </g>
      </g>
      <g
         transform="matrix(10.1722,0,0,10.1722,-7099.2,-4772.88)"
         id="g772">
        <path
           d="M 781.088,567.233 V 555.68 c -2.15,1.65 -3.597,2.475 -4.342,2.475 -0.355,0 -0.671,-0.141 -0.946,-0.425 -0.275,-0.283 -0.412,-0.611 -0.412,-0.984 0,-0.431 0.135,-0.749 0.406,-0.952 0.271,-0.203 0.749,-0.465 1.434,-0.787 1.025,-0.482 1.843,-0.99 2.457,-1.523 0.614,-0.534 1.157,-1.13 1.631,-1.79 0.474,-0.661 0.783,-1.067 0.927,-1.219 0.144,-0.153 0.415,-0.229 0.813,-0.229 0.448,0 0.808,0.174 1.079,0.521 0.271,0.347 0.406,0.825 0.406,1.434 v 14.537 c 0,1.701 -0.58,2.551 -1.739,2.551 -0.517,0 -0.931,-0.173 -1.244,-0.52 -0.314,-0.347 -0.47,-0.859 -0.47,-1.536 z"
           style="fill-rule:nonzero"
           id="path770" />
      </g>
    </g>
    <g
       transform="matrix(0.26458333,0,0,0.26458333,-440.31364,-94.216574)"
       id="g1062"
       style="clip-rule:evenodd;fill-rule:evenodd;stroke-linecap:round;stroke-linejoin:round;stroke-miterlimit:1.5">
      <g
         transform="translate(1371.23,343.612)"
         id="g1056">
        <g
           transform="matrix(0.927056,0,0,0.923824,26.8553,32.328)"
           id="g1050">
          <rect
             x="368.16501"
             y="424.388"
             width="323.60501"
             height="324.737"
             style="fill:#ff000f;stroke:none;stroke-width:2.64px"
             id="rect1048" />
        </g>
        <g
           transform="matrix(0.78813,0,0,0.78682,100.482,112.716)"
           id="g1054">
          <rect
             x="368.16501"
             y="424.388"
             width="323.60501"
             height="324.737"
             style="fill:#ffffff"
             id="rect1052" />
        </g>
      </g>
      <g
         transform="matrix(10.1722,0,0,10.1722,-6063.72,-4773.18)"
         id="g1060">
        <path
           d="m 779.552,565.976 h 6.627 c 0.66,0 1.163,0.135 1.51,0.406 0.347,0.271 0.521,0.639 0.521,1.105 0,0.414 -0.138,0.766 -0.413,1.053 -0.275,0.288 -0.692,0.432 -1.25,0.432 h -9.344 c -0.635,0 -1.13,-0.176 -1.485,-0.527 -0.356,-0.351 -0.534,-0.764 -0.534,-1.238 0,-0.304 0.115,-0.709 0.343,-1.212 0.229,-0.504 0.478,-0.899 0.749,-1.187 1.126,-1.168 2.142,-2.169 3.047,-3.003 0.906,-0.833 1.553,-1.381 1.943,-1.644 0.694,-0.491 1.271,-0.984 1.732,-1.479 0.462,-0.495 0.813,-1.003 1.054,-1.523 0.241,-0.521 0.362,-1.031 0.362,-1.53 0,-0.542 -0.129,-1.026 -0.387,-1.453 -0.258,-0.428 -0.61,-0.76 -1.054,-0.997 -0.444,-0.237 -0.929,-0.356 -1.454,-0.356 -1.108,0 -1.98,0.487 -2.615,1.46 -0.084,0.127 -0.226,0.474 -0.425,1.041 -0.199,0.567 -0.423,1.003 -0.673,1.308 -0.25,0.305 -0.616,0.457 -1.098,0.457 -0.423,0 -0.774,-0.14 -1.054,-0.419 -0.279,-0.279 -0.419,-0.66 -0.419,-1.142 0,-0.584 0.131,-1.194 0.394,-1.829 0.262,-0.634 0.654,-1.21 1.174,-1.726 0.521,-0.516 1.181,-0.933 1.981,-1.251 0.799,-0.317 1.737,-0.476 2.812,-0.476 1.295,0 2.399,0.203 3.313,0.61 0.593,0.271 1.113,0.643 1.562,1.117 0.448,0.474 0.797,1.022 1.047,1.644 0.25,0.622 0.375,1.267 0.375,1.936 0,1.049 -0.261,2.004 -0.781,2.863 -0.521,0.859 -1.052,1.532 -1.594,2.018 -0.541,0.487 -1.449,1.251 -2.723,2.292 -1.273,1.041 -2.147,1.849 -2.621,2.425 -0.203,0.228 -0.411,0.503 -0.622,0.825 z"
           style="fill-rule:nonzero"
           id="path1058" />
      </g>
    </g>
    <g
       transform="matrix(0,-0.26458333,0.26458333,0,89.444474,377.35101)"
       id="g1152"
       style="clip-rule:evenodd;fill-rule:evenodd;stroke-linecap:round;stroke-linejoin:round;stroke-miterlimit:1.5">
      <g
         transform="matrix(0.927056,0,0,0.923824,26.8553,32.328)"
         id="g1146">
        <rect
           x="368.16501"
           y="424.388"
           width="323.60501"
           height="324.737"
           style="fill:#ffeba3;stroke:none;stroke-width:2.64px"
           id="rect1144" />
      </g>
      <g
         transform="matrix(0.78813,0,0,0.78682,100.482,112.716)"
         id="g1150">
        <rect
           x="368.16501"
           y="424.388"
           width="323.60501"
           height="324.737"
           style="fill:#b2db93"
           id="rect1148" />
      </g>
    </g>
    <g
       transform="matrix(0.26458333,0,0,0.26458333,-165.53106,-93.54813)"
       id="g1510"
       style="clip-rule:evenodd;fill-rule:evenodd;stroke-linecap:round;stroke-linejoin:round;stroke-miterlimit:1.5">
      <g
         transform="matrix(0.927056,0,0,0.923824,703.149,719.552)"
         id="g1368">
        <rect
           x="368.16501"
           y="424.388"
           width="323.60501"
           height="324.737"
           style="fill:#6cbd2e;stroke:none;stroke-width:2.64px"
           id="rect1366" />
      </g>
      <g
         transform="matrix(1.11965,0,0,1.11965,97.9813,-1252.25)"
         id="g1508">
        <g
           transform="translate(-0.341493,1925.02)"
           id="g1446">
          <g
             transform="matrix(0.767128,0,0,0.657863,345.595,-430.186)"
             id="g1372">
            <path
               d="m 835.17,1276.1 c 3.389,-3.11 5.51,-0.35 9.429,0.49 8.178,1.76 24.936,7.55 26.385,17.69 0.845,5.91 -4.353,9.28 -7.828,12.76 -3.623,3.62 -6.321,7.54 -11.018,10.14 -13.719,7.63 -32.562,5.88 -47.55,7.54 -4.115,0.46 -8.467,-1.68 -12.468,-2.32 -16.502,-2.6 -25.619,-3.87 -37.692,-15.94 -2.349,-2.35 -5.873,-4.58 -6.959,-7.83 -2.885,-8.66 -3.384,-12.3 2.32,-19.43 2.101,-2.62 5.675,-2.26 8.118,-3.48 0.645,-0.32 1.84,-0.27 2.609,-0.58 0.484,-0.19 1.971,-0.58 1.45,-0.58 -0.42,0 -1.162,0.58 -1.45,0.87 z"
               style="fill:#0b970f"
               id="path1370" />
          </g>
          <g
             transform="matrix(-0.77052,0,0,1,1580.16,-860.02)"
             id="g1376">
            <path
               d="m 808.523,1121.8 c -13.016,3.91 -6.296,109.24 4.459,133.05 6.941,15.37 3.587,24.6 -11.89,29.14 -23.484,6.87 -51.001,4.16 -51.97,-13.54 -1.478,-27 19.541,-123.48 5.675,-152.83"
               style="fill:#ffffff"
               id="path1374" />
          </g>
          <g
             transform="matrix(-0.77052,0,0,1,1580.16,-860.02)"
             id="g1380">
            <path
               d="m 751.201,1240.63 c -1.479,12.71 -2.436,23.29 -2.079,29.82 0.969,17.7 28.486,20.41 51.97,13.54 15.477,-4.54 18.831,-13.77 11.89,-29.14 -10.755,-23.81 -17.475,-129.14 -4.459,-133.05 l -53.726,-4.18 c 7.64,16.18 4.689,52.73 0.703,86.8 1.547,0.45 3.631,0.46 6.113,-0.01 3.383,-0.65 25.323,-10.53 28.275,-14.14 0.455,-0.56 2.466,-3.23 2.604,-3.18 1.504,0.47 -12.302,27.29 -12.983,40.02 -0.123,2.3 -2.432,5.29 -5.662,7.99 -5.134,4.3 -12.594,7.9 -17.309,6.92 -1.85,-0.39 -3.663,-0.84 -5.337,-1.39 z"
               style="fill:#ffffff"
               id="path1378" />
          </g>
          <g
             transform="translate(-68.2621,-842.63)"
             id="g1384">
            <path
               d="m 1057.29,1101.03 c -8.45,32.84 6.54,123.32 5.45,149.33 -0.64,15.13 -16.23,19.31 -32.05,15.91 0.14,0.05 0.28,0.11 0.43,0.16 18.09,6.88 39.29,4.16 40.04,-13.54 0.46,-10.92 -1.92,-33.22 -4.2,-57.84 -0.21,-2.29 -2.47,-5.49 -0.64,-6.93 4.6,-3.61 3.82,-6.75 -0.82,-9.54 -0.77,-0.46 -0.15,-1.78 -0.22,-2.68 -2.5,-30.68 -3.75,-61.39 1.51,-75.83 z"
               style="fill:#ffffff"
               id="path1382" />
          </g>
          <g
             transform="matrix(-0.77052,0,0,1,1580.16,-860.02)"
             id="g1388">
            <path
               d="m 751.319,1239.46 c 9.589,2.35 24.695,-4.8 24.936,-14.86 0.257,-10.73 8.746,-24.58 12.938,-32.01 -3.851,3.26 -9.975,7.48 -15.992,10.76 -4.166,2.27 -8.289,4.09 -11.579,4.86 -2.473,0.58 -4.536,0.55 -5.925,-0.14 l -0.583,-0.33 c -1.303,11.2 -2.688,22.05 -3.795,31.72 z"
               style="fill:#d4c484"
               id="path1386" />
          </g>
          <g
             transform="matrix(1.0104,0.12743,-0.104885,0.831639,296.811,-767.549)"
             id="g1392">
            <path
               d="m 879.624,1086.11 c 0.656,-4.51 -5.418,-15.89 -13.274,-25.62 -8.106,-10.04 -35.903,-7.14 -43.666,-8.93 -31.779,-7.32 -70.15,6.63 -96.563,18.48 -20.498,9.2 -38.272,44.1 -33.358,54.11 8.846,18.04 136.391,-1.02 175.797,-25.34 6.775,-4.18 10.455,-8.51 11.064,-12.7 z"
               style="fill:#d02b2b"
               id="path1390" />
          </g>
          <g
             transform="translate(-70.1399,-847.722)"
             id="g1396">
            <path
               d="m 956.644,1084.38 c -6.083,7.52 -9.368,14.99 -7.632,18.96 7.046,16.13 137.918,16.53 180.288,1.33 7.28,-2.62 11.45,-5.75 12.51,-9.16 0.44,-1.43 -0.05,-3.88 -1.22,-6.87 -1.04,0.47 -2.16,0.92 -3.37,1.35 -42.37,15.21 -173.239,14.8 -180.285,-1.33 -0.507,-1.16 -0.586,-2.61 -0.291,-4.28 z"
               style="fill:#b93737"
               id="path1394" />
          </g>
          <g
             transform="translate(223.91,-839.705)"
             id="g1400">
            <path
               d="m 799.244,1067.74 c 0.111,-5.96 -13.846,-5.89 -11.059,0 0.967,2.04 3.944,3.4 5.948,4.07 2.068,0.69 5.067,-1.76 5.111,-4.07 z"
               style="fill:#ffe9e9"
               id="path1398" />
          </g>
          <g
             transform="matrix(0.703975,0.089893,-0.0846269,0.662734,496.923,-558.282)"
             id="g1404">
            <path
               d="m 799.244,1067.74 c 0.111,-5.96 -13.846,-5.89 -11.059,0 0.967,2.04 3.944,3.4 5.948,4.07 2.068,0.69 5.067,-1.76 5.111,-4.07 z"
               style="fill:#ffe9e9"
               id="path1402" />
          </g>
          <g
             transform="matrix(0.0669918,-0.275151,0.54754,0.133311,282.807,302.373)"
             id="g1408">
            <path
               d="m 799.244,1067.74 c 0.111,-5.96 -13.846,-5.89 -11.059,0 0.967,2.04 3.944,3.4 5.948,4.07 2.068,0.69 5.067,-1.76 5.111,-4.07 z"
               style="fill:#ffe9e9"
               id="path1406" />
          </g>
          <g
             transform="matrix(0.132163,-0.542826,0.8061,0.196263,-24.4479,449.57)"
             id="g1412">
            <path
               d="m 799.244,1067.74 c 0.111,-5.96 -13.846,-5.89 -11.059,0 0.967,2.04 3.944,3.4 5.948,4.07 2.068,0.69 5.067,-1.76 5.111,-4.07 z"
               style="fill:#ffe9e9"
               id="path1410" />
          </g>
          <g
             transform="matrix(0.132163,-0.542826,0.8061,0.196263,-65.8105,474.839)"
             id="g1416">
            <path
               d="m 799.244,1067.74 c 0.111,-5.96 -13.846,-5.89 -11.059,0 0.967,2.04 3.944,3.4 5.948,4.07 2.068,0.69 5.067,-1.76 5.111,-4.07 z"
               style="fill:#ffe9e9"
               id="path1414" />
          </g>
          <g
             transform="matrix(-0.164998,0.677687,1.14439,0.278627,-166.957,-576.669)"
             id="g1420">
            <path
               d="m 799.244,1067.74 c 0.111,-5.96 -13.846,-5.89 -11.059,0 0.967,2.04 3.944,3.4 5.948,4.07 2.068,0.69 5.067,-1.76 5.111,-4.07 z"
               style="fill:#ffe9e9"
               id="path1418" />
          </g>
          <g
             transform="matrix(-0.131552,0.540315,0.668779,0.16283,347.709,-371.88)"
             id="g1424">
            <path
               d="m 799.244,1067.74 c 0.111,-5.96 -13.846,-5.89 -11.059,0 0.967,2.04 3.944,3.4 5.948,4.07 2.068,0.69 5.067,-1.76 5.111,-4.07 z"
               style="fill:#ffe9e9"
               id="path1422" />
          </g>
          <g
             transform="matrix(0.130944,-0.537815,0.554851,0.135091,307.609,503.793)"
             id="g1428">
            <path
               d="m 799.244,1067.74 c 0.111,-5.96 -13.846,-5.89 -11.059,0 0.967,2.04 3.944,3.4 5.948,4.07 2.068,0.69 5.067,-1.76 5.111,-4.07 z"
               style="fill:#ffe9e9"
               id="path1426" />
          </g>
          <g
             transform="matrix(-0.054729,0.224785,0.431207,0.104987,543.5,-48.5891)"
             id="g1432">
            <path
               d="m 799.244,1067.74 c 0.111,-5.96 -13.846,-5.89 -11.059,0 0.967,2.04 3.944,3.4 5.948,4.07 2.068,0.69 5.067,-1.76 5.111,-4.07 z"
               style="fill:#ffe9e9"
               id="path1430" />
          </g>
          <g
             transform="matrix(0.187317,-0.576425,1.11613,0.362702,-355.27,288.034)"
             id="g1436">
            <path
               d="m 799.244,1067.74 c 0.111,-5.96 -13.846,-5.89 -11.059,0 0.967,2.04 3.944,3.4 5.948,4.07 2.068,0.69 5.067,-1.76 5.111,-4.07 z"
               style="fill:#ffe9e9"
               id="path1434" />
          </g>
          <g
             transform="matrix(-0.683576,-0.249782,0.230187,-0.62995,1280.57,1102.74)"
             id="g1440">
            <path
               d="m 799.244,1067.74 c 0.111,-5.96 -13.846,-5.89 -11.059,0 0.967,2.04 3.944,3.4 5.948,4.07 2.068,0.69 5.067,-1.76 5.111,-4.07 z"
               style="fill:#ffe9e9"
               id="path1438" />
          </g>
          <g
             transform="matrix(-0.689735,0.131458,-0.187221,-0.982318,1784.65,1172.09)"
             id="g1444">
            <path
               d="m 799.244,1067.74 c 0.111,-5.96 -13.846,-5.89 -11.059,0 0.967,2.04 3.944,3.4 5.948,4.07 2.068,0.69 5.067,-1.76 5.111,-4.07 z"
               style="fill:#ffe9e9"
               id="path1442" />
          </g>
        </g>
        <g
           transform="matrix(-1.75067,0.590799,0.347922,1.03097,2620.35,-536.842)"
           id="g1450">
          <path
             d="m 1329.76,1988.68 c 0.12,-3.72 -3.61,-2.28 -4.66,3.04 -0.01,0.01 -1.08,0.16 -1.61,-0.02 -2.18,-0.73 -1.92,5.32 -1.92,6.79 0.82,0.96 1.38,0.31 2.99,0.61 2.38,0.33 5.09,-7.31 5.2,-10.42 z"
             style="fill:#aa3f3f"
             id="path1448" />
        </g>
        <g
           transform="matrix(-1.40547,-0.209494,-0.209494,1.40547,3252.83,-250.16)"
           id="g1454">
          <path
             d="m 1313.29,1953.7 c -0.26,-1.31 -2.36,0.43 -2.94,1.3 -1.74,2.61 -1.74,9.66 1.92,10.27 3.39,0.56 4.34,-5.22 4.01,-7.52 -0.13,-0.94 -0.35,-2.91 -1.44,-3.13 z"
             style="fill:#ffd500"
             id="path1452" />
        </g>
        <g
           transform="matrix(-1.41373,0.14349,0.14349,1.41373,2571.02,-726.562)"
           id="g1458">
          <path
             d="m 1320.13,1952.91 c 0.41,1.04 -0.05,5.59 -2.34,4.68 -1.25,-0.5 -1.86,-2.11 -2.84,-2.93 -2.17,-1.8 -4.87,-4.26 -7.6,-4.26 -2.44,-5.75 9.78,-5.05 12.78,2.51 z"
             style="fill:#fff7d5"
             id="path1456" />
        </g>
        <g
           transform="matrix(-1.41373,0.14349,0.14349,1.41373,2571.02,-726.562)"
           id="g1462">
          <path
             d="m 1318.9,1952.2 c 0,0.4 -0.3,1.26 -0.5,2.15 -0.12,0.56 -0.36,1.89 -0.78,1.69 -1.74,-0.83 -5.59,-4.25 -6.87,-4.97 -1.11,-0.61 -2.26,-1.02 -3.4,-1.02 -0.2,0 -0.36,0.16 -0.36,0.35 0,0.2 0.16,0.35 0.36,0.35 1.03,0 2.06,0.38 3.05,0.94 1.56,0.87 3.04,2.17 4.32,3.24 0.47,0.4 0.85,0.98 1.27,1.53 0.47,0.61 0.11,0.47 0.79,0.74 0.46,0.19 0.85,0.19 1.18,0.07 0.48,-0.17 0.84,-0.6 1.09,-1.18 0.52,-1.24 0.55,-3.19 0.55,-3.89 0,-0.2 -0.16,-0.35 -0.35,-0.35 -0.19,0 -0.35,0.15 -0.35,0.35 z"
             id="path1460" />
        </g>
        <g
           transform="matrix(-1.68921,0.17145,0.175888,1.73294,2881.68,-1384.43)"
           id="g1466">
          <path
             d="m 1333.04,1945.83 c 1.05,0.06 3.15,2.24 3.63,3.07 1.43,2.51 2.15,5.01 1.08,7.85 -0.46,1.24 -0.4,2.5 -1.92,3.01 -2.07,0.69 -4.23,-0.07 -5.35,-1.92 -0.67,-1.12 -0.6,-2.67 -1,-3.85 -0.22,-0.67 0.18,-3.84 0.75,-3.84 z"
             style="fill:#ffd500"
             id="path1464" />
        </g>
        <g
           transform="matrix(-1.68921,0.17145,0.175888,1.73294,2877.55,-1388.37)"
           id="g1470">
          <path
             d="m 1332.07,1959.42 c 2.83,-0.34 1.9,-8.36 -1.59,-6.34 -0.6,0.34 -0.49,0.81 -0.66,1.33 -0.74,2.21 -0.86,2.76 0.3,4.11 0.26,0.3 1.55,0.95 1.95,0.9 z"
             id="path1468" />
        </g>
        <g
           transform="matrix(-1.23766,0.125619,0.180421,1.77759,2291.54,-1414.25)"
           id="g1474">
          <path
             d="m 1334.02,1955.05 c 0.2,-1.7 -1.57,-2.63 -3.28,-2.14 -0.67,0.19 -0.75,0.98 -0.92,1.5 -0.74,2.21 1.47,3.27 1.84,3.43 1.66,0.66 2.36,-2.79 2.36,-2.79 z"
             id="path1472" />
        </g>
        <g
           transform="matrix(-1.95605,0.42091,0.38216,1.77596,2830.51,-1796.23)"
           id="g1478">
          <path
             d="m 1331.02,1970.94 c 0.06,-0.05 0.18,-0.24 0.18,-0.16 0,1.1 -1.87,8.06 -1.87,8.06 0,0 -0.31,-1.05 -0.59,-1.51 -0.22,-0.33 -1.67,-1.81 -1.67,-2.01 z"
             style="fill:#ffd500"
             id="path1476" />
        </g>
        <g
           transform="matrix(-0.998693,0.182117,0.272314,1.49331,1768.25,-925.047)"
           id="g1482">
          <path
             d="m 1330.45,1970.35 c 0.06,-0.05 0.75,0.35 0.75,0.43 0,1.1 -0.84,6.94 -1.13,6.49 -0.21,-0.34 -3.48,-1.87 -3.48,-2.08 z"
             style="fill:#ffd500"
             id="path1480" />
        </g>
        <g
           transform="matrix(-2.02214,-0.108745,0.183439,1.80733,3308.06,-1158.88)"
           id="g1486">
          <path
             d="m 1325.85,1977.24 c 0.38,0.1 -1.46,5.68 -1.52,5.63 -0.53,-0.53 -0.63,-4.81 -1.51,-4.81 z"
             style="fill:#ffd500"
             id="path1484" />
        </g>
        <g
           transform="matrix(-1.75987,0.951917,0.864279,1.59785,1616.87,-2147.71)"
           id="g1490">
          <path
             d="m 1321.36,1977.49 c 0.29,-0.21 -0.27,0.7 -0.52,0.97 -0.55,0.57 -0.76,1.45 -1.29,1.99 -0.06,0.06 -0.05,-0.66 -0.13,-1 -0.23,-0.92 0.13,-4.56 -0.09,-5 z"
             style="fill:#ffd500"
             id="path1488" />
        </g>
        <g
           transform="matrix(-1.61035,-0.387331,-0.28331,1.17788,3684.51,455.905)"
           id="g1494">
          <path
             d="m 1321.36,1977.49 c 0.29,-0.21 -0.27,0.7 -0.52,0.97 -0.55,0.57 -1.69,2.49 -1.94,2.21 -0.48,-0.54 1,-6.24 0.86,-6.55 z"
             style="fill:#ffd500"
             id="path1492" />
        </g>
        <g
           transform="matrix(-0.8959,0.0909314,0.100978,0.994889,1854.53,-226.108)"
           id="g1498">
          <path
             d="m 1235.21,2347.9 c 0.19,-0.12 -0.08,-0.99 -0.08,-1.17 0,-1.09 0.1,-2.17 0.32,-3.24 0.61,-2.99 17.44,-10.83 18.79,-9.13 0.73,0.92 2.61,-0.22 3.74,0.13 0.32,0.1 0.68,0.23 0.95,0.43 1.05,0.82 0.5,2.51 0.35,3.58 -0.09,0.66 -0.2,1.67 -0.77,2.12 -0.27,0.22 -0.83,0.09 -1.11,0 -2.49,-0.76 -7.27,1.11 -10.54,3.81 -1.93,1.58 -5.42,9.39 -5.81,10.1 -0.48,0.86 -0.55,1.54 -1.64,1.72 -0.83,0.14 -1.19,-0.47 -1.65,-0.98 -0.14,-0.15 -0.34,-0.22 -0.48,-0.37 -0.7,-0.76 -2.07,-7 -2.07,-7 z"
             style="fill:#fdf5d6"
             id="path1496" />
        </g>
        <g
           transform="matrix(-1.166,0.118346,0.14349,1.41373,2247.13,-690.955)"
           id="g1502">
          <path
             d="m 1334.57,1944.88 c -0.47,0.03 -2.16,0.59 -2.73,1.32 -1.3,1.66 -3.11,4.55 -3.49,5.69 -1.21,3.59 -4.64,4.89 -4.62,0.54 0,-0.81 -0.27,-1.55 -0.33,-2.36 -0.02,-0.19 -0.19,-0.34 -0.38,-0.32 -0.19,0.01 -0.34,0.18 -0.33,0.38 0.07,0.83 0.21,1.59 0.35,2.42 0.12,0.72 0.45,2.08 1.11,2.92 0.51,0.64 1.2,1 2.1,0.69 0.12,-0.04 0.38,-0.21 0.69,-0.52 0.62,-0.6 3.29,-5.87 4.53,-7.29 0.82,-0.93 1.61,-1.68 2.08,-1.89 1.9,-0.84 3.25,-1.14 4.82,-1 0.3,0.02 0.56,0.06 0.74,0.11 0.04,0.02 0.09,0.04 0.12,0.05 0.06,0.12 0.18,0.2 0.33,0.2 0.19,-0.01 0.34,-0.17 0.33,-0.37 0,-0.12 -0.05,-0.24 -0.17,-0.34 -0.11,-0.1 -0.33,-0.2 -0.65,-0.27 -1.1,-0.22 -2.65,-0.07 -4.5,0.04 z"
             id="path1500" />
        </g>
        <g
           transform="matrix(-1.17108,0.118862,0.0932293,0.91854,2207.03,-75.4673)"
           id="g1506">
          <path
             d="m 1245.91,2372.74 c -0.1,-0.03 -1.18,3.02 -1.43,3.65 -1.61,4.15 -15.05,16.64 -17.2,17.62 -5.45,2.49 -8.29,-1.66 -5.07,-8.24 0.59,-1.18 -0.98,-4.5 -1.48,-3.27 -0.36,0.89 -2.14,6.35 -1.89,8.18 0.35,2.52 -0.36,2.4 0.78,4.1 0.76,1.14 1.98,2.29 4.12,3.68 0.97,0.62 2.31,0.48 3.87,-0.35 2.08,-1.11 4.61,-3.42 7.13,-6.22 3.64,-4.04 7.26,-9.1 9.49,-12.94 -2.09,8.37 -6.43,24 -5.68,35.59 0.54,8.36 -5.05,15.92 -9.46,18.29 -3.49,1.86 -6.01,-1.04 -5.84,1.29 0.37,5.33 8.38,2.51 14.63,-8.06 1.89,-3.19 3.12,-6.61 3,-9.1 -0.64,-13.77 6.05,-43.83 5.03,-44.22 z"
             id="path1504" />
        </g>
      </g>
    </g>
    <g
       transform="matrix(0,-0.26458333,0.26458333,0,-1.4690572,193.84448)"
       id="g2412"
       style="clip-rule:evenodd;fill-rule:evenodd;stroke-linecap:round;stroke-linejoin:round;stroke-miterlimit:1.5">
      <g
         transform="matrix(0.927056,0,0,0.923824,26.8553,32.328)"
         id="g2406">
        <rect
           x="368.16501"
           y="424.388"
           width="323.60501"
           height="324.737"
           style="fill:#ffeba3;stroke:none;stroke-width:2.64px"
           id="rect2404" />
      </g>
      <g
         transform="matrix(0.78813,0,0,0.78682,100.482,112.716)"
         id="g2410">
        <rect
           x="368.16501"
           y="424.388"
           width="323.60501"
           height="324.737"
           style="fill:#b2db93"
           id="rect2408" />
      </g>
    </g>
    <g
       transform="matrix(0,-0.26458333,0.26458333,0,89.444447,285.77875)"
       id="g2472"
       style="clip-rule:evenodd;fill-rule:evenodd;stroke-linecap:round;stroke-linejoin:round;stroke-miterlimit:1.5">
      <g
         transform="matrix(0.927056,0,0,0.923824,26.8553,32.328)"
         id="g2466">
        <rect
           x="368.16501"
           y="424.388"
           width="323.60501"
           height="324.737"
           style="fill:#ffeba3;stroke:none;stroke-width:2.64px"
           id="rect2464" />
      </g>
      <g
         transform="matrix(0.78813,0,0,0.78682,100.482,112.716)"
         id="g2470">
        <rect
           x="368.16501"
           y="424.388"
           width="323.60501"
           height="324.737"
           style="fill:#b2db93"
           id="rect2468" />
      </g>
    </g>
    <g
       transform="matrix(0,-0.26458333,0.26458333,0,89.444466,193.84449)"
       id="g2586"
       style="clip-rule:evenodd;fill-rule:evenodd;stroke-linecap:round;stroke-linejoin:round;stroke-miterlimit:1.5">
      <g
         transform="matrix(0.927056,0,0,0.923824,26.8553,32.328)"
         id="g2580">
        <rect
           x="368.16501"
           y="424.388"
           width="323.60501"
           height="324.737"
           style="fill:#ffeba3;stroke:none;stroke-width:2.64px"
           id="rect2578" />
      </g>
      <g
         transform="matrix(0.78813,0,0,0.78682,100.482,112.716)"
         id="g2584">
        <rect
           x="368.16501"
           y="424.388"
           width="323.60501"
           height="324.737"
           style="fill:#b2db93"
           id="rect2582" />
      </g>
    </g>
  </g>
</svg>
