<?xml version="1.0" encoding="UTF-8" standalone="no"?>
<!-- Created with Inkscape (http://www.inkscape.org/) -->

<svg
   width="144.9953mm"
   height="193.02509mm"
   viewBox="0 0 144.9953 193.02509"
   version="1.1"
   id="svg2737"
   sodipodi:docname="2022-KR-06-taskbodyF.svg"
   inkscape:version="1.1.1 (3bf5ae0d25, 2021-09-20)"
   xmlns:inkscape="http://www.inkscape.org/namespaces/inkscape"
   xmlns:sodipodi="http://sodipodi.sourceforge.net/DTD/sodipodi-0.dtd"
   xmlns="http://www.w3.org/2000/svg"
   xmlns:svg="http://www.w3.org/2000/svg">
  <sodipodi:namedview
     id="namedview2739"
     pagecolor="#ffffff"
     bordercolor="#666666"
     borderopacity="1.0"
     inkscape:pageshadow="2"
     inkscape:pageopacity="0.0"
     inkscape:pagecheckerboard="0"
     inkscape:document-units="mm"
     showgrid="false"
     inkscape:zoom="0.16592137"
     inkscape:cx="-678.03202"
     inkscape:cy="1521.8052"
     inkscape:window-width="1920"
     inkscape:window-height="1137"
     inkscape:window-x="-8"
     inkscape:window-y="-8"
     inkscape:window-maximized="1"
     inkscape:current-layer="layer1" />
  <defs
     id="defs2734" />
  <g
     inkscape:label="Ebene 1"
     inkscape:groupmode="layer"
     id="layer1"
     transform="translate(-32.502346,-51.987456)">
    <g
       id="g4651"
       transform="translate(-189.9353,93.469362)">
      <path
         d="m 316.26087,113.74678 c 0.34036,-10.21935 4.0092,-21.94581 11.39777,-30.10887 4.73642,-5.23457 10.78299,-10.39561 14.2661,-16.3644 4.04508,-6.93031 2.35476,-14.89689 -6.93068,-17.03602 -10.0761,-2.32005 -21.00562,4.57391 -24.69722,12.66055 -5.15567,11.29107 -3.19288,25.35386 -2.54788,37.10895 0.11951,2.17742 2.30359,12.72765 3.96669,14.44752 0.95339,0.98581 4.51585,0.15389 4.54522,-0.70773 z"
         style="clip-rule:evenodd;fill:#652a15;fill-rule:evenodd;stroke:#000000;stroke-width:3.00064px;stroke-linecap:round;stroke-linejoin:round;stroke-miterlimit:4"
         id="path1894" />
      <path
         d="m 322.82547,87.8745 c -4.56522,-1.6855 -7.88826,-5.89793 -12.40708,-7.56841"
         style="clip-rule:evenodd;fill:none;fill-rule:evenodd;stroke:#000000;stroke-width:2.47512px;stroke-linecap:round;stroke-linejoin:round;stroke-miterlimit:4"
         id="path1897" />
      <path
         d="M 328.66967,78.69306 C 328.3423,72.72657 320.41057,67.59919 314.8586,64.78577"
         style="clip-rule:evenodd;fill:none;fill-rule:evenodd;stroke:#000000;stroke-width:3.44144px;stroke-linecap:round;stroke-linejoin:round;stroke-miterlimit:4"
         id="path1900" />
      <path
         d="M 339.11761,69.87074 C 338.88759,65.67818 330.91085,57.43691 326.71233,55.88635"
         style="clip-rule:evenodd;fill:none;fill-rule:evenodd;stroke:#000000;stroke-width:3.25496px;stroke-linecap:round;stroke-linejoin:round;stroke-miterlimit:4"
         id="path1903" />
      <path
         d="m 342.38421,58.6926 c -10.07718,0.55295 -20.18802,1.95482 -29.26746,6.49544"
         style="clip-rule:evenodd;fill:none;fill-rule:evenodd;stroke:#000000;stroke-width:3.00064px;stroke-linecap:round;stroke-linejoin:round;stroke-miterlimit:4"
         id="path1906" />
      <path
         d="m 337.39425,70.57689 c -6.26345,0.34356 -22.26992,4.53739 -26.33887,8.47262"
         style="clip-rule:evenodd;fill:none;fill-rule:evenodd;stroke:#000000;stroke-width:3.40752px;stroke-linecap:round;stroke-linejoin:round;stroke-miterlimit:4"
         id="path1909" />
      <path
         d="m 326.10694,83.41656 c -5.04925,2.52585 -11.52514,6.44462 -14.56687,10.88305"
         style="clip-rule:evenodd;fill:none;fill-rule:evenodd;stroke:#000000;stroke-width:3.08541px;stroke-linecap:round;stroke-linejoin:round;stroke-miterlimit:4"
         id="path1912" />
      <path
         d="m 288.80093,105.74708 c 0.30779,0.0322 0.69966,-0.60841 0.86431,-0.34536 0.57799,0.92337 -0.093,4.07286 0,5.18948 0.28988,3.46623 0.79095,6.90917 1.03789,10.37897 0.37221,5.20203 0.17716,10.39865 1.0379,15.56845 0.15748,0.9538 1.56758,5.78001 1.03791,6.57455 -0.21653,0.32391 -9.51825,0.53327 -10.37897,0.69075 -10.9856,1.99705 -21.70102,8.32821 -32.86733,5.53662 -1.14348,-0.28631 -2.43192,-0.21474 -3.46086,-1.03968 -0.96631,-0.77306 -1.74654,-3.05641 -2.07579,-4.1498 -2.27981,-7.60349 5.11789,-12.83055 11.76401,-13.49444 6.15223,-0.61378 12.32413,0.22725 18.33679,1.73043 3.05284,0.76409 5.68875,1.83062 8.65034,2.42294 0.25051,0.0501 0.54756,0.55833 0.69072,0.34536 0.86612,-1.29915 0.12706,-5.04274 0.34536,-6.57275 0.73012,-5.11431 -0.0322,-10.88538 -1.03788,-15.91561 -0.33642,-1.68569 -1.40832,-4.78327 -0.69252,-6.57275 0.62272,-1.55504 5.5581,-0.46525 6.74812,-0.34716 z"
         style="clip-rule:evenodd;fill:#a47767;fill-rule:evenodd;stroke:#000000;stroke-width:2.97053px;stroke-linecap:round;stroke-linejoin:round;stroke-miterlimit:4"
         id="path1917" />
      <path
         d="m 303.67684,105.67588 c -4.13369,2.22789 -1.904,12.24359 -1.904,16.60633 0,5.41139 -1.03791,10.76193 -1.03791,16.261 0,0.70864 -0.19862,4.05138 0.69255,4.49694 0.77841,0.39013 2.92222,0.22191 3.80622,0.34716 3.52885,0.50284 6.8358,1.33495 10.37897,1.73043 8.13853,0.90368 18.21868,3.78653 25.25667,-2.07579 4.08718,-3.40895 7.32793,-14.29793 0.69075,-16.95352 -6.15402,-2.46232 -16.36657,0.98422 -22.14301,3.45908 -0.81777,0.35251 -9.67748,4.15872 -9.68642,4.15338 -0.58338,-0.39013 -0.34716,-8.2835 -0.34716,-9.34286 0,-4.84413 -0.66926,-9.41803 0.69252,-14.18522 0.25231,-0.87682 1.48347,-3.39463 0.34716,-4.15157 -1.14347,-0.76232 -5.40779,-1.06831 -6.74634,-0.34536 z"
         style="clip-rule:evenodd;fill:#a47767;fill-rule:evenodd;stroke:#000000;stroke-width:2.97053px;stroke-linecap:round;stroke-linejoin:round;stroke-miterlimit:4"
         id="path1920" />
      <path
         d="m 337.09215,131.50895 c -0.89522,-3.04014 -4.42463,-4.82873 -7.12375,-4.03403"
         style="clip-rule:evenodd;fill:none;fill-rule:evenodd;stroke:#000000;stroke-width:3.04803px;stroke-linecap:round;stroke-linejoin:round;stroke-miterlimit:4"
         id="path1923" />
      <path
         d="m 247.02021,146.62573 c -1.65706,-3.31412 4.4701,-5.86769 6.57452,-6.91991"
         style="clip-rule:evenodd;fill:#f1c94c;fill-opacity:0.01;fill-rule:evenodd;stroke:#000000;stroke-width:4.02632px;stroke-linecap:round;stroke-linejoin:round;stroke-miterlimit:4"
         id="path1926" />
      <path
         d="m 284.50082,63.3286 c -0.0537,-1.83422 -15.2231,6.01443 -18.35828,7.71086 -7.34578,3.97621 -9.4896,1.27947 -17.06623,0.33462 -0.918,-0.11451 -2.80591,1.47632 -2.54643,2.49097 0.5297,2.05968 4.55602,2.88822 3.98695,4.79578 -0.19148,0.64601 -1.05756,0.84643 -1.48706,1.36181 -2.35315,2.82737 -6.04843,9.37507 -5.37379,13.20097 0.51895,2.94727 4.11937,0.13599 5.1358,-0.27559 5.00517,-2.03105 4.89958,-7.16328 8.7595,-10.02644 5.81938,-4.31443 14.64149,-4.86201 20.85994,-8.22801 1.50495,-0.81601 3.37852,-0.6961 4.86738,-1.80023 3.09758,-2.29589 1.32061,-6.23094 1.22222,-9.56474 z"
         style="clip-rule:evenodd;fill:#a47767;fill-rule:evenodd;stroke:#000000;stroke-width:2.97053px;stroke-linecap:round;stroke-linejoin:round;stroke-miterlimit:4"
         id="path1929" />
      <path
         d="m 305.36612,65.76406 c 2.86136,-1.38324 5.18054,0.66927 8.12959,1.03611 4.37168,0.54758 8.76665,0.89834 13.1473,1.38507 3.15127,0.35073 6.03055,1.72863 9.34107,1.72863 1.77159,0 9.59876,-0.3919 10.0336,0.69252 2.02748,5.0714 -6.12359,3.99592 -7.61243,6.22739 -0.40621,0.61201 0.41336,1.10591 0.69252,1.38507 1.13991,1.13988 8.12422,10.25011 4.84412,11.06969 -5.51695,1.37969 -13.00413,-9.53074 -17.29888,-12.1076 -4.94075,-2.96516 -10.4917,-2.90253 -15.91561,-3.80622 -1.74654,-0.29167 -4.69024,0.76949 -6.22739,0 -2.24938,-1.12559 -0.72295,-6.84297 0.86611,-7.61066 z"
         style="clip-rule:evenodd;fill:#a47767;fill-rule:evenodd;stroke:#000000;stroke-width:2.97053px;stroke-linecap:round;stroke-linejoin:round;stroke-miterlimit:4"
         id="path1932" />
      <path
         d="m 280.58186,61.35481 c -0.94485,-0.35433 -1.39938,3.63979 -1.55686,4.67233 -0.79989,5.19485 -1.67495,10.33423 -2.07759,15.56845 -1.39398,18.1274 -5.85158,36.09555 16.261,42.89915 16.4972,5.07674 29.43331,-9.76162 28.02321,-25.25491 -0.782,-8.60917 -6.41707,-15.38414 -9.34106,-23.18088 -1.05222,-2.80771 -3.28549,-12.97371 -5.18948,-14.87593 -2.02391,-2.02571 -6.29362,-0.73907 -8.64857,-0.34716 -3.68274,0.61378 -14.15656,1.76799 -17.47065,0.51895 z"
         style="clip-rule:evenodd;fill:#a47767;fill-rule:evenodd;stroke:#000000;stroke-width:2.97053px;stroke-linecap:round;stroke-linejoin:round;stroke-miterlimit:4"
         id="path1935" />
      <path
         d="m 322.91294,16.53053 c 2.61888,-2.05952 4.92199,-1.64756 8.13282,-1.33334"
         style="clip-rule:evenodd;fill:#e6b728;fill-rule:evenodd;stroke:#000000;stroke-width:2.9468px;stroke-linecap:round;stroke-linejoin:round;stroke-miterlimit:4"
         id="path1944" />
      <path
         d="m 265.02029,15.84804 c -3.07303,-1.86034 -3.28743,-3.09079 -7.21741,-3.47517"
         style="clip-rule:evenodd;fill:none;fill-rule:evenodd;stroke:#000000;stroke-width:2.9468px;stroke-linecap:round;stroke-linejoin:round;stroke-miterlimit:4"
         id="path1947" />
      <path
         d="m 280.5662,33.01788 c 2.59593,-2.45729 14.92332,-1.02589 13.47967,4.19346 -2.60472,9.41946 -17.8694,-0.0429 -13.47967,-4.19346 z"
         style="clip-rule:evenodd;fill:#070400;fill-rule:evenodd;stroke:#000000;stroke-width:2.9468px;stroke-linecap:round;stroke-linejoin:round;stroke-miterlimit:4"
         id="path1950" />
      <path
         d="m 281.35677,29.96684 c -0.98681,-0.0966 1.05228,-0.018 1.32625,-0.0196 1.46825,-0.0555 2.87354,-0.018 4.35176,0.12705 3.51449,0.34375 10.165,0.85913 7.35248,6.09407 -1.67833,3.12407 -7.64624,5.51283 -10.88877,2.96622 -1.76175,-1.38308 -3.70456,-4.44791 -3.86842,-6.64845 -0.0567,-0.75391 -0.004,-2.29823 1.01706,-2.43904 0.0655,-0.018 1.42346,-0.018 0.70964,-0.0805 z"
         style="clip-rule:evenodd;fill-rule:evenodd;stroke:#000000;stroke-width:2.9468px;stroke-linecap:round;stroke-linejoin:round;stroke-miterlimit:4"
         id="path1953" />
      <path
         d="m 244.39797,25.03503 c 4.08086,0.9724 16.52405,8.11956 17.45039,11.95425"
         style="clip-rule:evenodd;fill:none;fill-rule:evenodd;stroke:#000000;stroke-width:2.9468px;stroke-linecap:round;stroke-linejoin:round;stroke-miterlimit:4"
         id="path1956" />
      <path
         d="m 319.0232,40.30911 c 2.79069,-3.39016 18.26326,-7.43294 22.66204,-5.88989"
         style="clip-rule:evenodd;fill:none;fill-rule:evenodd;stroke:#000000;stroke-width:2.9468px;stroke-linecap:round;stroke-linejoin:round;stroke-miterlimit:4"
         id="path1959" />
      <path
         d="m 257.9934,44.18047 c -2.52902,-2.28106 -7.39703,-1.66635 -10.32388,-0.67749 -0.68831,0.23262 -4.30945,2.31272 -3.98399,2.40773"
         style="clip-rule:evenodd;fill:none;fill-rule:evenodd;stroke:#000000;stroke-width:2.9468px;stroke-linecap:round;stroke-linejoin:round;stroke-miterlimit:4"
         id="path1962" />
      <path
         d="m 319.34033,47.76033 c -1.32392,0.0501 3.10578,-0.83873 3.37095,-0.86952 1.45264,-0.17 2.57995,-0.24604 4.01963,-0.2983 6.00368,-0.22547 10.51515,1.08657 15.55946,4.02971"
         style="clip-rule:evenodd;fill:none;fill-rule:evenodd;stroke:#000000;stroke-width:2.9468px;stroke-linecap:round;stroke-linejoin:round;stroke-miterlimit:4"
         id="path1965" />
      <path
         d="m 279.73435,48.95299 c -1.64844,0.4907 1.26375,8.12909 2.41818,9.47352 0.69588,0.80991 8.51821,1.73524 9.59112,1.18946 0.90297,-0.45937 2.12508,-8.85058 1.53906,-9.0238 -1.66135,-0.48996 -12.68622,-1.89595 -13.54836,-1.63918 z"
         style="clip-rule:evenodd;fill:#fafaf9;fill-rule:evenodd;stroke:#000000;stroke-width:2.94542px;stroke-linecap:round;stroke-linejoin:round;stroke-miterlimit:4"
         id="path1968" />
      <path
         d="m 286.37155,50.16735 c -0.19936,2.03822 -0.41907,6.38575 0.36608,8.33073"
         style="clip-rule:evenodd;fill:#fafaf9;fill-rule:evenodd;stroke:#000000;stroke-width:2.94542px;stroke-linecap:round;stroke-linejoin:round;stroke-miterlimit:4"
         id="path1971" />
      <path
         d="m 269.52461,23.12924 c 0.11329,-1.15851 1.21197,-1.99885 2.45316,-1.87754 1.24119,0.12171 2.15612,1.15888 2.04279,2.31738 -0.11345,1.15959 -1.21195,1.99885 -2.45316,1.87754 -1.24116,-0.12168 -2.15625,-1.15763 -2.04279,-2.31738 z"
         style="clip-rule:evenodd;fill-rule:evenodd;stroke:#000000;stroke-width:2.9468px;stroke-linecap:round;stroke-linejoin:round;stroke-miterlimit:4"
         id="path1980" />
      <path
         d="m 310.0825,27.49859 c 0.1165,-1.19036 1.2695,-2.05126 2.57728,-1.92333 1.30779,0.12885 2.27349,1.1961 2.15705,2.38646 -0.11631,1.18912 -1.27072,2.04983 -2.5785,1.92191 -1.30776,-0.12885 -2.27214,-1.1961 -2.15583,-2.38504 z"
         style="clip-rule:evenodd;fill:#080500;fill-rule:evenodd;stroke:#000000;stroke-width:2.9468px;stroke-linecap:round;stroke-linejoin:round;stroke-miterlimit:4"
         id="path1983" />
      <path
         d="m 318.64289,15.23836 c 0.71331,4.50053 4.177,10.03646 8.08061,12.82036 5.37311,3.82928 9.84697,-10.74725 9.17027,-14.22009 -1.60501,-8.24949 -18.35544,-5.57458 -17.25088,1.39973 z"
         style="font-variation-settings:normal;clip-rule:evenodd;vector-effect:none;fill:#a47767;fill-opacity:1;fill-rule:evenodd;stroke:#000000;stroke-width:2.9468px;stroke-linecap:butt;stroke-linejoin:miter;stroke-miterlimit:4;stroke-dasharray:none;stroke-dashoffset:0;stroke-opacity:1;-inkscape-stroke:none;stop-color:#000000"
         id="path1992" />
      <path
         d="m 269.82538,12.16565 c 1.45997,-0.49356 -8.06791,-7.76902 -10.35835,-7.71999 -5.98763,0.13062 -6.75572,5.45325 -7.19477,9.94143 -0.16946,1.7326 0.0668,3.67487 1.04561,5.21311 5.24994,8.24931 14.07692,-6.61228 16.50751,-7.43455 z"
         style="font-variation-settings:normal;clip-rule:evenodd;vector-effect:none;fill:#a47767;fill-opacity:1;fill-rule:evenodd;stroke:#000000;stroke-width:2.9468px;stroke-linecap:butt;stroke-linejoin:miter;stroke-miterlimit:4;stroke-dasharray:none;stroke-dashoffset:0;stroke-opacity:1;-inkscape-stroke:none;stop-color:#000000"
         id="path1995" />
      <path
         d="m 322.91294,16.53053 c 2.61888,-2.05952 4.92199,-1.64756 8.13282,-1.33334"
         style="clip-rule:evenodd;fill:#e6b728;fill-rule:evenodd;stroke:#000000;stroke-width:2.9468px;stroke-linecap:round;stroke-linejoin:round;stroke-miterlimit:4"
         id="path1998" />
      <path
         d="m 265.02029,15.84804 c -3.07303,-1.86034 -3.28743,-3.09079 -7.21741,-3.47517"
         style="clip-rule:evenodd;fill:none;fill-rule:evenodd;stroke:#000000;stroke-width:2.9468px;stroke-linecap:round;stroke-linejoin:round;stroke-miterlimit:4"
         id="path2001" />
      <path
         d="m 280.5662,33.01788 c 2.59593,-2.45729 14.92332,-1.02589 13.47967,4.19346 -2.60472,9.41946 -17.8694,-0.0429 -13.47967,-4.19346 z"
         style="clip-rule:evenodd;fill:#070400;fill-rule:evenodd;stroke:#000000;stroke-width:2.9468px;stroke-linecap:round;stroke-linejoin:round;stroke-miterlimit:4"
         id="path2004" />
      <path
         d="m 300.89191,-11.99142 c -3.04739,-2.21858 -9.28984,9.27148 -8.65029,12.7808 0.0185,0.10023 -0.21285,0.018 -0.31834,0.0251 -0.43757,-0.28236 -11.53652,-10.43676 -12.70834,-9.92032 -0.38909,0.17 7.3247,10.11627 3.38942,11.64146 -0.37462,0.14674 -6.38363,-4.9753 -6.81776,-4.85291 -1.14524,0.40963 3.3641,6.12754 2.32794,6.63165 -0.90638,0.44199 -5.39797,-2.29645 -6.38752,-1.66423 -0.87463,0.55708 1.75866,4.46619 0.84281,5.15586 -13.04801,9.82474 -29.33893,32.26641 -18.63103,44.81065 5.77074,6.75976 25.93742,11.45283 34.1123,12.02584 8.92254,0.62667 36.79653,5.39491 46.46332,-15.64685 5.10762,-11.11803 -5.84729,-31.18379 -14.18037,-38.00099 -1.06802,-0.87469 -4.40793,-1.22973 -3.75552,-2.86869 5.10167,-12.83039 -3.30946,-2.17853 -5.34681,-3.20461 -2.77437,-3.0303 -3.21887,-6.14185 -2.72587,-7.14073 0.0336,-0.068 0.95195,-1.33406 0.57788,-1.49548 -1.24217,-0.53755 -2.92931,0.31229 -4.62259,1.37665 -1.86497,1.16996 -3.74346,2.61551 -5.08061,2.80162 -1.8238,0.25445 2.97347,-11.70426 2.29577,-12.23933 -0.25594,-0.20148 -0.50705,-0.25964 -0.78439,-0.21455 z"
         style="clip-rule:evenodd;fill:#a47767;fill-rule:evenodd;stroke:#000000;stroke-width:2.9468px;stroke-linecap:round;stroke-linejoin:round;stroke-miterlimit:4"
         id="path2007" />
      <path
         d="m 281.35677,29.96684 c -0.98681,-0.0966 1.05228,-0.018 1.32625,-0.0196 1.46825,-0.0555 2.87354,-0.018 4.35176,0.12705 3.51449,0.34375 10.165,0.85913 7.35248,6.09407 -1.67833,3.12407 -7.64624,5.51283 -10.88877,2.96622 -1.76175,-1.38308 -3.70456,-4.44791 -3.86842,-6.64845 -0.0567,-0.75391 -0.004,-2.29823 1.01706,-2.43904 0.0655,-0.018 1.42346,-0.018 0.70964,-0.0805 z"
         style="clip-rule:evenodd;fill-rule:evenodd;stroke:#000000;stroke-width:2.9468px;stroke-linecap:round;stroke-linejoin:round;stroke-miterlimit:4"
         id="path2010" />
      <path
         d="m 244.39797,25.03503 c 4.08086,0.9724 16.52405,8.11956 17.45039,11.95425"
         style="clip-rule:evenodd;fill:none;fill-rule:evenodd;stroke:#000000;stroke-width:2.9468px;stroke-linecap:round;stroke-linejoin:round;stroke-miterlimit:4"
         id="path2013" />
      <path
         d="m 319.0232,40.30911 c 2.79069,-3.39016 18.26326,-7.43294 22.66204,-5.88989"
         style="clip-rule:evenodd;fill:none;fill-rule:evenodd;stroke:#000000;stroke-width:2.9468px;stroke-linecap:round;stroke-linejoin:round;stroke-miterlimit:4"
         id="path2016" />
      <path
         d="m 257.9934,44.18047 c -2.52902,-2.28106 -7.39703,-1.66635 -10.32388,-0.67749 -0.68831,0.23262 -4.30945,2.31272 -3.98399,2.40773"
         style="clip-rule:evenodd;fill:none;fill-rule:evenodd;stroke:#000000;stroke-width:2.9468px;stroke-linecap:round;stroke-linejoin:round;stroke-miterlimit:4"
         id="path2019" />
      <path
         d="m 319.34033,47.76033 c -1.32392,0.0501 3.10578,-0.83873 3.37095,-0.86952 1.45264,-0.17 2.57995,-0.24604 4.01963,-0.2983 6.00368,-0.22547 10.51515,1.08657 15.55946,4.02971"
         style="clip-rule:evenodd;fill:none;fill-rule:evenodd;stroke:#000000;stroke-width:2.9468px;stroke-linecap:round;stroke-linejoin:round;stroke-miterlimit:4"
         id="path2022" />
      <path
         d="m 279.73435,48.95299 c -1.64844,0.4907 1.26375,8.12909 2.41818,9.47352 0.69588,0.80991 8.51821,1.73524 9.59112,1.18946 0.90297,-0.45937 2.12508,-8.85058 1.53906,-9.0238 -1.66135,-0.48996 -12.68622,-1.89595 -13.54836,-1.63918 z"
         style="clip-rule:evenodd;fill:#fafaf9;fill-rule:evenodd;stroke:#000000;stroke-width:2.94542px;stroke-linecap:round;stroke-linejoin:round;stroke-miterlimit:4"
         id="path2025" />
      <path
         d="m 286.37155,50.16735 c -0.19936,2.03822 -0.41907,6.38575 0.36608,8.33073"
         style="clip-rule:evenodd;fill:#fafaf9;fill-rule:evenodd;stroke:#000000;stroke-width:2.94542px;stroke-linecap:round;stroke-linejoin:round;stroke-miterlimit:4"
         id="path2028" />
      <path
         d="m 273.72907,43.99007 c 2.58421,3.58611 6.24771,5.73223 12.57292,6.42565 4.92983,0.54025 9.76313,0.19775 14.25753,-3.12621"
         style="clip-rule:evenodd;fill:none;fill-rule:evenodd;stroke:#000000;stroke-width:2.9468px;stroke-linecap:round;stroke-linejoin:round;stroke-miterlimit:4"
         id="path2031" />
      <path
         d="m 269.52461,23.12924 c 0.11329,-1.15851 1.21197,-1.99885 2.45316,-1.87754 1.24119,0.12171 2.15612,1.15888 2.04279,2.31738 -0.11345,1.15959 -1.21195,1.99885 -2.45316,1.87754 -1.24116,-0.12168 -2.15625,-1.15763 -2.04279,-2.31738 z"
         style="clip-rule:evenodd;fill-rule:evenodd;stroke:#000000;stroke-width:2.9468px;stroke-linecap:round;stroke-linejoin:round;stroke-miterlimit:4"
         id="path2037" />
      <path
         d="m 310.0825,27.49859 c 0.1165,-1.19036 1.2695,-2.05126 2.57728,-1.92333 1.30779,0.12885 2.27349,1.1961 2.15705,2.38646 -0.11631,1.18912 -1.27072,2.04983 -2.5785,1.92191 -1.30776,-0.12885 -2.27214,-1.1961 -2.15583,-2.38504 z"
         style="clip-rule:evenodd;fill:#080500;fill-rule:evenodd;stroke:#000000;stroke-width:2.9468px;stroke-linecap:round;stroke-linejoin:round;stroke-miterlimit:4"
         id="path2040" />
      <path
         d="m 274.26597,65.88112 c 0.3376,0 4.56194,-0.41053 4.49042,-0.0805 -0.53215,2.4761 6.15554,9.50999 12.61581,8.77757 8.86069,-1.00266 10.06806,-7.42293 10.86914,-7.42293 h 17.61411 c 0.81539,0 5.2729,-0.72242 5.64485,-0.22601 0.35904,0.47921 -0.0286,13.80456 -0.45061,14.22651 -1.69233,1.69233 -7.44733,0.18182 -9.48441,-0.22458 -0.33044,-0.068 -0.75388,-0.7539 -0.90408,-0.45201 -0.10594,0.21312 0.12007,0.4649 0.22601,0.67659 1.3118,2.62499 6.78071,33.64468 5.76646,36.05797 -4.03408,9.60737 -62.7701,9.1897 -60.96334,1.02413 0.19455,-0.87972 0.36479,-2.52765 0.45204,-3.38749 0.71382,-7.14536 7.79495,-29.37158 6.87081,-30.75771 -0.36907,-0.55509 -7.61754,2.68653 -8.3557,1.58084 -0.96705,-1.45198 -3.89533,-18.25358 -3.16148,-18.74425 1.43484,-0.9556 13.30963,-0.90548 18.76997,-1.04865 z"
         style="clip-rule:evenodd;fill:#1b357f;fill-rule:evenodd;stroke:#000000;stroke-width:3.06134px;stroke-linecap:round;stroke-linejoin:round;stroke-miterlimit:10"
         id="path2055" />
      <path
         id="path2058"
         style="color:#000000;clip-rule:nonzero;fill:#fefdff;fill-rule:nonzero;stroke-width:1.78948;stroke-linecap:butt;stroke-linejoin:miter;stroke-miterlimit:10;-inkscape-stroke:none"
         d="m 301.80517,79.62122 c -0.13501,-0.003 -0.27133,0.003 -0.40875,0.0156 -2.41435,0.21421 -6.54309,0.86135 -10.35958,1.26505 -5.57577,-0.37973 -6.76904,-0.83825 -9.33844,-0.3669 -1.77813,0.37222 -2.60091,1.46074 -3.0794,2.18798 -0.957,1.4543 -1.19245,2.63628 -1.51361,4.1031 -0.6423,2.93386 -1.0169,6.72621 -1.22989,10.70531 -0.21301,3.97925 -0.24315,8.07111 -0.0527,11.39774 0.0952,1.66331 0.2363,3.11934 0.48937,4.41421 0.1265,0.64743 0.26901,1.24941 0.55243,1.94302 0.28339,0.6936 0.54776,1.72659 2.28203,2.61794 1.96313,1.00693 4.37097,0.23239 5.37898,-1.73013 0.65892,-1.31509 0.54231,-2.88592 -0.30385,-4.08917 -0.0201,-0.0716 -0.0266,-0.0714 -0.0667,-0.27596 -0.13168,-0.67389 -0.27003,-1.88592 -0.35292,-3.33414 -0.0983,-1.71622 -0.13087,-3.78659 -0.10028,-5.96141 4.89185,-0.1275 10.73936,0.36116 17.67025,-0.21497 a 4.194965,4.194965 0 0 0 3.83387,-4.52581 4.194965,4.194965 0 0 0 -4.52943,-3.83439 c -5.8487,0.48622 -11.17071,0.0353 -16.52715,0.15761 0.19233,-1.92603 0.43559,-3.63564 0.69453,-4.94906 0.41349,0.0251 0.82439,0.0842 1.25468,0.0842 1.75729,-0.003 3.73455,-0.16452 5.77745,-0.38087 4.08577,-0.43214 8.51741,-1.10022 10.22625,-1.25161 2.19861,-0.19487 3.8232,-2.13503 3.6282,-4.33359 -0.18269,-2.06129 -1.89984,-3.61791 -3.92536,-3.64368 z" />
    </g>
  </g>
</svg>
