<?xml version="1.0" encoding="UTF-8" standalone="no"?>
<!-- Created with Inkscape (http://www.inkscape.org/) -->

<svg
   width="368.53122mm"
   height="279.1398mm"
   viewBox="0 0 368.53122 279.1398"
   version="1.1"
   id="svg12333"
   sodipodi:docname="2022-HU-04-explanation2.svg"
   inkscape:version="1.1.1 (3bf5ae0d25, 2021-09-20)"
   xmlns:inkscape="http://www.inkscape.org/namespaces/inkscape"
   xmlns:sodipodi="http://sodipodi.sourceforge.net/DTD/sodipodi-0.dtd"
   xmlns="http://www.w3.org/2000/svg"
   xmlns:svg="http://www.w3.org/2000/svg">
  <sodipodi:namedview
     id="namedview12335"
     pagecolor="#ffffff"
     bordercolor="#666666"
     borderopacity="1.0"
     inkscape:pageshadow="2"
     inkscape:pageopacity="0.0"
     inkscape:pagecheckerboard="0"
     inkscape:document-units="mm"
     showgrid="false"
     inkscape:zoom="0.46929649"
     inkscape:cx="601.96486"
     inkscape:cy="644.58185"
     inkscape:window-width="1920"
     inkscape:window-height="1137"
     inkscape:window-x="-8"
     inkscape:window-y="-8"
     inkscape:window-maximized="1"
     inkscape:current-layer="g64" />
  <defs
     id="defs12330" />
  <g
     inkscape:label="Ebene 1"
     inkscape:groupmode="layer"
     id="layer1"
     transform="translate(97.358212,38.310805)">
    <g
       transform="matrix(0.26458333,0,0,0.26458333,-274.28987,41.58556)"
       id="g16"
       style="clip-rule:evenodd;fill-rule:evenodd;stroke-linecap:round;stroke-linejoin:round;stroke-miterlimit:1.5">
      <g
         transform="translate(328.826)"
         id="g10">
        <g
           transform="matrix(0.927056,0,0,0.923824,26.8553,32.328)"
           id="g4">
          <rect
             x="368.16501"
             y="424.388"
             width="323.60501"
             height="324.737"
             style="fill:#ff000f;stroke:none;stroke-width:2.64px"
             id="rect2" />
        </g>
        <g
           transform="matrix(0.78813,0,0,0.78682,100.482,112.716)"
           id="g8">
          <rect
             x="368.16501"
             y="424.388"
             width="323.60501"
             height="324.737"
             style="fill:#ffffff"
             id="rect6" />
        </g>
      </g>
      <g
         transform="matrix(10.1722,0,0,10.1722,-7102.3,-5119.45)"
         id="g14">
        <path
           d="m 787.969,559.844 c 0,1.388 -0.085,2.581 -0.254,3.58 -0.17,0.999 -0.483,1.904 -0.94,2.717 -0.575,0.999 -1.32,1.769 -2.234,2.31 -0.914,0.542 -1.93,0.813 -3.047,0.813 -1.286,0 -2.44,-0.364 -3.459,-1.092 -1.02,-0.728 -1.788,-1.735 -2.305,-3.021 -0.262,-0.703 -0.455,-1.479 -0.577,-2.33 -0.123,-0.851 -0.184,-1.771 -0.184,-2.761 0,-1.278 0.067,-2.429 0.203,-3.453 0.135,-1.024 0.347,-1.905 0.635,-2.641 0.499,-1.219 1.225,-2.148 2.177,-2.787 0.952,-0.639 2.088,-0.958 3.409,-0.958 0.871,0 1.663,0.142 2.374,0.425 0.71,0.284 1.335,0.698 1.872,1.244 0.538,0.546 0.992,1.221 1.365,2.025 0.643,1.397 0.965,3.373 0.965,5.929 z m -3.479,-0.254 c 0,-1.549 -0.093,-2.816 -0.279,-3.802 -0.186,-0.986 -0.499,-1.731 -0.94,-2.235 -0.44,-0.503 -1.049,-0.755 -1.828,-0.755 -1.117,0 -1.893,0.563 -2.329,1.689 -0.436,1.125 -0.654,2.86 -0.654,5.205 0,1.591 0.093,2.894 0.279,3.91 0.186,1.015 0.5,1.783 0.94,2.304 0.44,0.52 1.036,0.781 1.79,0.781 0.778,0 1.388,-0.271 1.828,-0.813 0.44,-0.541 0.749,-1.316 0.927,-2.323 0.177,-1.007 0.266,-2.327 0.266,-3.961 z"
           style="fill-rule:nonzero"
           id="path12" />
      </g>
    </g>
    <g
       transform="matrix(0.26458333,0,0,0.26458333,-92.460263,-142.28133)"
       id="g32"
       style="clip-rule:evenodd;fill-rule:evenodd;stroke-linecap:round;stroke-linejoin:round;stroke-miterlimit:1.5">
      <g
         transform="translate(328.826)"
         id="g26">
        <g
           transform="matrix(0.927056,0,0,0.923824,26.8553,32.328)"
           id="g20">
          <rect
             x="368.16501"
             y="424.388"
             width="323.60501"
             height="324.737"
             style="fill:#ff000f;stroke:none;stroke-width:2.64px"
             id="rect18" />
        </g>
        <g
           transform="matrix(0.78813,0,0,0.78682,100.482,112.716)"
           id="g24">
          <rect
             x="368.16501"
             y="424.388"
             width="323.60501"
             height="324.737"
             style="fill:#ffffff"
             id="rect22" />
        </g>
      </g>
      <g
         transform="matrix(10.1722,0,0,10.1722,-7102.3,-5119.45)"
         id="g30">
        <path
           d="m 787.969,559.844 c 0,1.388 -0.085,2.581 -0.254,3.58 -0.17,0.999 -0.483,1.904 -0.94,2.717 -0.575,0.999 -1.32,1.769 -2.234,2.31 -0.914,0.542 -1.93,0.813 -3.047,0.813 -1.286,0 -2.44,-0.364 -3.459,-1.092 -1.02,-0.728 -1.788,-1.735 -2.305,-3.021 -0.262,-0.703 -0.455,-1.479 -0.577,-2.33 -0.123,-0.851 -0.184,-1.771 -0.184,-2.761 0,-1.278 0.067,-2.429 0.203,-3.453 0.135,-1.024 0.347,-1.905 0.635,-2.641 0.499,-1.219 1.225,-2.148 2.177,-2.787 0.952,-0.639 2.088,-0.958 3.409,-0.958 0.871,0 1.663,0.142 2.374,0.425 0.71,0.284 1.335,0.698 1.872,1.244 0.538,0.546 0.992,1.221 1.365,2.025 0.643,1.397 0.965,3.373 0.965,5.929 z m -3.479,-0.254 c 0,-1.549 -0.093,-2.816 -0.279,-3.802 -0.186,-0.986 -0.499,-1.731 -0.94,-2.235 -0.44,-0.503 -1.049,-0.755 -1.828,-0.755 -1.117,0 -1.893,0.563 -2.329,1.689 -0.436,1.125 -0.654,2.86 -0.654,5.205 0,1.591 0.093,2.894 0.279,3.91 0.186,1.015 0.5,1.783 0.94,2.304 0.44,0.52 1.036,0.781 1.79,0.781 0.778,0 1.388,-0.271 1.828,-0.813 0.44,-0.541 0.749,-1.316 0.927,-2.323 0.177,-1.007 0.266,-2.327 0.266,-3.961 z"
           style="fill-rule:nonzero"
           id="path28" />
      </g>
    </g>
    <g
       transform="matrix(0.26458333,0,0,0.26458333,-1.5468384,-142.28133)"
       id="g48"
       style="clip-rule:evenodd;fill-rule:evenodd;stroke-linecap:round;stroke-linejoin:round;stroke-miterlimit:1.5">
      <g
         transform="translate(328.826)"
         id="g42">
        <g
           transform="matrix(0.927056,0,0,0.923824,26.8553,32.328)"
           id="g36">
          <rect
             x="368.16501"
             y="424.388"
             width="323.60501"
             height="324.737"
             style="fill:#ff000f;stroke:none;stroke-width:2.64px"
             id="rect34" />
        </g>
        <g
           transform="matrix(0.78813,0,0,0.78682,100.482,112.716)"
           id="g40">
          <rect
             x="368.16501"
             y="424.388"
             width="323.60501"
             height="324.737"
             style="fill:#ffffff"
             id="rect38" />
        </g>
      </g>
      <g
         transform="matrix(10.1722,0,0,10.1722,-7102.3,-5119.45)"
         id="g46">
        <path
           d="m 787.969,559.844 c 0,1.388 -0.085,2.581 -0.254,3.58 -0.17,0.999 -0.483,1.904 -0.94,2.717 -0.575,0.999 -1.32,1.769 -2.234,2.31 -0.914,0.542 -1.93,0.813 -3.047,0.813 -1.286,0 -2.44,-0.364 -3.459,-1.092 -1.02,-0.728 -1.788,-1.735 -2.305,-3.021 -0.262,-0.703 -0.455,-1.479 -0.577,-2.33 -0.123,-0.851 -0.184,-1.771 -0.184,-2.761 0,-1.278 0.067,-2.429 0.203,-3.453 0.135,-1.024 0.347,-1.905 0.635,-2.641 0.499,-1.219 1.225,-2.148 2.177,-2.787 0.952,-0.639 2.088,-0.958 3.409,-0.958 0.871,0 1.663,0.142 2.374,0.425 0.71,0.284 1.335,0.698 1.872,1.244 0.538,0.546 0.992,1.221 1.365,2.025 0.643,1.397 0.965,3.373 0.965,5.929 z m -3.479,-0.254 c 0,-1.549 -0.093,-2.816 -0.279,-3.802 -0.186,-0.986 -0.499,-1.731 -0.94,-2.235 -0.44,-0.503 -1.049,-0.755 -1.828,-0.755 -1.117,0 -1.893,0.563 -2.329,1.689 -0.436,1.125 -0.654,2.86 -0.654,5.205 0,1.591 0.093,2.894 0.279,3.91 0.186,1.015 0.5,1.783 0.94,2.304 0.44,0.52 1.036,0.781 1.79,0.781 0.778,0 1.388,-0.271 1.828,-0.813 0.44,-0.541 0.749,-1.316 0.927,-2.323 0.177,-1.007 0.266,-2.327 0.266,-3.961 z"
           style="fill-rule:nonzero"
           id="path44" />
      </g>
    </g>
    <g
       transform="matrix(0,0.25322768,0.25524142,0,-471.65315,-1101.7164)"
       id="g52"
       style="clip-rule:evenodd;fill-rule:evenodd;stroke-linecap:round;stroke-linejoin:round;stroke-miterlimit:1.5">
      <rect
         x="4208.29"
         y="1475.3199"
         width="721.32501"
         height="709.97198"
         style="fill:none;stroke:#fff600;stroke-width:17.77px"
         id="rect50" />
      <rect
         x="4575.8013"
         y="1829.9725"
         width="717.40808"
         height="1071.7928"
         style="font-variation-settings:normal;clip-rule:evenodd;opacity:1;vector-effect:none;fill:none;fill-opacity:1;fill-rule:evenodd;stroke:#0075ff;stroke-width:17.1272px;stroke-linecap:round;stroke-linejoin:round;stroke-miterlimit:1.5;stroke-dasharray:none;stroke-dashoffset:0;stroke-opacity:1;-inkscape-stroke:none;stop-color:#000000;stop-opacity:1"
         id="rect50-0" />
    </g>
    <g
       transform="matrix(0.26458333,0,0,0.26458333,-458.15827,-233.55746)"
       id="g200"
       style="clip-rule:evenodd;fill-rule:evenodd;stroke-linecap:round;stroke-linejoin:round;stroke-miterlimit:1.5">
      <g
         transform="matrix(0.927056,0,0,0.923824,1050.62,375.94)"
         id="g60">
        <rect
           x="368.16501"
           y="424.388"
           width="323.60501"
           height="324.737"
           style="fill:#fff600;stroke:none;stroke-width:2.64px"
           id="rect58" />
      </g>
      <g
         transform="translate(751.622,-1234.16)"
         id="g198">
        <g
           transform="translate(-19.971,965.125)"
           id="g64">
          <path
             d="m 835.17,1276.1 c 3.389,-3.11 5.51,-0.35 9.429,0.49 8.178,1.76 24.936,7.55 26.385,17.69 0.845,5.91 -4.353,9.28 -7.828,12.76 -3.623,3.62 -6.321,7.54 -11.018,10.14 -13.719,7.63 -32.562,5.88 -47.55,7.54 -4.115,0.46 -8.467,-1.68 -12.468,-2.32 -16.502,-2.6 -25.619,-3.87 -37.692,-15.94 -2.349,-2.35 -5.873,-4.58 -6.959,-7.83 -2.885,-8.66 -3.384,-12.3 2.32,-19.43 2.101,-2.62 5.675,-2.26 8.118,-3.48 0.645,-0.32 1.84,-0.27 2.609,-0.58 0.484,-0.19 1.971,-0.58 1.45,-0.58 -0.42,0 -1.162,0.58 -1.45,0.87 z"
             style="fill:#e1d900;fill-opacity:1"
             id="path62" />
        </g>
        <g
           transform="translate(-19.971,965.125)"
           id="g68">
          <path
             d="m 809.406,1121.92 c -9.181,13.18 21.014,138.41 26.838,154.44 5.758,15.85 3.587,24.59 -11.89,29.13 -23.483,6.88 -59.542,0.92 -62.791,-16.51 -1.604,-8.6 -2.605,-52.56 -4.356,-63.68 -0.427,-2.71 3.422,5.64 4.963,5.76 8.939,0.7 0.502,-18.24 0.483,-27.35 -0.005,-2.44 -1.624,-1.48 -3.054,-3.46 -1.728,-2.4 -0.646,-4.69 -0.048,-8.05 4.984,-27.98 -1.877,-59.97 -4.754,-74.58"
             style="fill:#ffffff"
             id="path66" />
        </g>
        <g
           transform="translate(-19.971,965.125)"
           id="g72">
          <path
             d="m 794.359,1120.74 15.047,1.18 c -9.181,13.18 21.014,138.41 26.838,154.44 5.758,15.85 3.587,24.59 -11.89,29.13 -16.849,4.93 -40.172,3.26 -53.206,-4.51 12.457,2.93 27.589,2.74 39.49,-0.75 15.477,-4.53 17.648,-13.28 11.89,-29.13 -5.435,-14.96 -32.093,-125.01 -28.169,-150.36 z"
             style="fill:#fdf5d6"
             id="path70" />
        </g>
        <g
           transform="matrix(1.0104,0.12743,-0.104885,0.831639,81.1249,1070.52)"
           id="g76">
          <path
             d="m 882.7,1088.4 c 0.182,-3.32 -17.215,-37.27 -22.346,-42.01 -20.957,-19.34 -35.685,-22.06 -62.567,-24.13 -43.876,-3.38 -97.141,28.75 -101.002,75.08 -0.623,7.47 -6.069,18.94 -4.022,26.81 5.924,22.79 188.354,-6.94 189.937,-35.75 z"
             style="fill:#d02b2b"
             id="path74" />
        </g>
        <g
           transform="translate(-19.971,965.125)"
           id="g80">
          <path
             d="m 876.715,1116.25 c -16.23,20.28 -171.233,13.38 -189.152,-2.93 -1.34,1.06 -5.688,11.14 -4.406,15.25 5.973,19.11 191.042,18.22 195.662,-5.53 0.138,-0.72 -0.701,-3.29 -2.104,-6.79 z"
             style="fill:#b93737"
             id="path78" />
        </g>
        <g
           transform="translate(-5.27791,984.722)"
           id="g84">
          <path
             d="m 799.244,1067.74 c 0.111,-5.96 -13.846,-5.89 -11.059,0 0.967,2.04 3.944,3.4 5.948,4.07 2.068,0.69 5.067,-1.76 5.111,-4.07 z"
             style="fill:#ffe9e9"
             id="path82" />
        </g>
        <g
           transform="rotate(-38.158118,2167.2736,1617.5443)"
           id="g88">
          <path
             d="m 799.244,1067.74 c 0.111,-5.96 -13.846,-5.89 -11.059,0 0.967,2.04 3.944,3.4 5.948,4.07 2.068,0.69 5.067,-1.76 5.111,-4.07 z"
             style="fill:#ffe9e9"
             id="path86" />
        </g>
        <g
           transform="rotate(-76.316279,1370.285,1609.2455)"
           id="g92">
          <path
             d="m 799.244,1067.74 c 0.111,-5.96 -13.846,-5.89 -11.059,0 0.967,2.04 3.944,3.4 5.948,4.07 2.068,0.69 5.067,-1.76 5.111,-4.07 z"
             style="fill:#ffe9e9"
             id="path90" />
        </g>
        <g
           transform="matrix(0.132163,-0.542826,0.8061,0.196263,-240.482,2266.5)"
           id="g96">
          <path
             d="m 799.244,1067.74 c 0.111,-5.96 -13.846,-5.89 -11.059,0 0.967,2.04 3.944,3.4 5.948,4.07 2.068,0.69 5.067,-1.76 5.111,-4.07 z"
             style="fill:#ffe9e9"
             id="path94" />
        </g>
        <g
           transform="matrix(0.132163,-0.542826,0.8061,0.196263,-283.421,2307.65)"
           id="g100">
          <path
             d="m 799.244,1067.74 c 0.111,-5.96 -13.846,-5.89 -11.059,0 0.967,2.04 3.944,3.4 5.948,4.07 2.068,0.69 5.067,-1.76 5.111,-4.07 z"
             style="fill:#ffe9e9"
             id="path98" />
        </g>
        <g
           transform="matrix(-0.164998,0.677687,1.14439,0.278627,-384.567,1256.14)"
           id="g104">
          <path
             d="m 799.244,1067.74 c 0.111,-5.96 -13.846,-5.89 -11.059,0 0.967,2.04 3.944,3.4 5.948,4.07 2.068,0.69 5.067,-1.76 5.111,-4.07 z"
             style="fill:#ffe9e9"
             id="path102" />
        </g>
        <g
           transform="matrix(-0.131552,0.540315,0.668779,0.16283,129.17,1451.94)"
           id="g108">
          <path
             d="m 799.244,1067.74 c 0.111,-5.96 -13.846,-5.89 -11.059,0 0.967,2.04 3.944,3.4 5.948,4.07 2.068,0.69 5.067,-1.76 5.111,-4.07 z"
             style="fill:#ffe9e9"
             id="path106" />
        </g>
        <g
           transform="matrix(0.130944,-0.537815,0.554851,0.135091,71.8125,2311.56)"
           id="g112">
          <path
             d="m 799.244,1067.74 c 0.111,-5.96 -13.846,-5.89 -11.059,0 0.967,2.04 3.944,3.4 5.948,4.07 2.068,0.69 5.067,-1.76 5.111,-4.07 z"
             style="fill:#ffe9e9"
             id="path110" />
        </g>
        <g
           transform="matrix(-0.054729,0.224785,0.431207,0.104987,306.516,1740.52)"
           id="g116">
          <path
             d="m 799.244,1067.74 c 0.111,-5.96 -13.846,-5.89 -11.059,0 0.967,2.04 3.944,3.4 5.948,4.07 2.068,0.69 5.067,-1.76 5.111,-4.07 z"
             style="fill:#ffe9e9"
             id="path114" />
        </g>
        <g
           transform="rotate(-71.997707,1461.0221,1582.1139)"
           id="g120">
          <path
             d="m 799.244,1067.74 c 0.111,-5.96 -13.846,-5.89 -11.059,0 0.967,2.04 3.944,3.4 5.948,4.07 2.068,0.69 5.067,-1.76 5.111,-4.07 z"
             style="fill:#ffe9e9"
             id="path118" />
        </g>
        <g
           transform="matrix(-0.646326,-0.334558,0.359076,-0.693691,925.624,3038.69)"
           id="g124">
          <path
             d="m 799.244,1067.74 c 0.111,-5.96 -13.846,-5.89 -11.059,0 0.967,2.04 3.944,3.4 5.948,4.07 2.068,0.69 5.067,-1.76 5.111,-4.07 z"
             style="fill:#ffe9e9"
             id="path122" />
        </g>
        <g
           transform="matrix(-0.689735,0.131458,-0.187221,-0.982318,1559.48,2982.19)"
           id="g128">
          <path
             d="m 799.244,1067.74 c 0.111,-5.96 -13.846,-5.89 -11.059,0 0.967,2.04 3.944,3.4 5.948,4.07 2.068,0.69 5.067,-1.76 5.111,-4.07 z"
             style="fill:#ffe9e9"
             id="path126" />
        </g>
        <g
           transform="matrix(1,0,0,0.765329,-480.13,334.051)"
           id="g132">
          <path
             d="m 1219.04,2393.09 -0.02,-4.45 c 0.68,5.18 4.06,9.74 7.78,8.05 2.14,-0.98 16.07,-16.15 17.68,-20.3 0.25,-0.63 1.33,-3.68 1.43,-3.65 1.02,0.39 -6.61,29.7 -5.96,43.48 0.3,6.45 -7.61,19.82 -12.75,18.75 -3.13,-0.66 -6.15,-1.81 -8.03,-3.87 l -0.02,-1.16 c 0.38,0.37 0.62,0.61 0.69,0.68 -0.07,0.05 -0.15,0.09 -0.23,0.1 -0.32,0.44 0.25,-0.08 0.25,-0.08 l -0.02,-0.02 0.24,-0.33 c 2.8,-1.2 2.87,-31.55 2.64,-29.99"
             style="fill:#d4c484"
             id="path130" />
        </g>
        <g
           transform="matrix(2.00082,0,0,1.39031,-1902.16,-582.022)"
           id="g136">
          <path
             d="m 1329.76,1988.68 c 0.12,-3.72 -3.61,-2.28 -4.66,3.04 -0.01,0.01 -1.01,-2.09 -1.54,-2.27 -2.18,-0.72 -2.76,6.4 -2.76,7.87 0.81,0.96 2.15,1.48 3.76,1.78 2.38,0.33 5.09,-7.31 5.2,-10.42 z"
             style="fill:#aa3f3f"
             id="path134" />
        </g>
        <g
           transform="matrix(1.42099,0,0,1.08753,-1123.46,8.57718)"
           id="g140">
          <path
             d="m 1320.13,1952.91 c 0.41,1.04 -0.05,5.59 -2.34,4.68 -1.25,-0.5 -1.86,-2.11 -2.84,-2.93 -2.17,-1.8 -4.87,-4.26 -7.6,-4.26 -2.44,-5.75 9.78,-5.05 12.78,2.51 z"
             style="fill:#fff7d5"
             id="path138" />
        </g>
        <g
           transform="matrix(1.42099,0,0,1.08753,-1123.46,8.57718)"
           id="g144">
          <path
             d="m 1313.29,1953.7 c -0.26,-1.31 -2.36,0.43 -2.94,1.3 -1.74,2.61 -1.74,9.66 1.92,10.27 3.39,0.56 4.34,-5.22 4.01,-7.52 -0.13,-0.94 -0.35,-2.91 -1.44,-3.13 z"
             style="fill:#ffd500"
             id="path142" />
        </g>
        <g
           transform="matrix(1.42099,0,0,1.08753,-1123.46,8.57718)"
           id="g148">
          <path
             d="m 1319.77,1952.91 c 0.91,4.53 -6.61,0.87 -8.5,-2.62 -0.6,-1.11 -2.78,-0.24 -3.92,-0.24 -0.2,0 -0.36,0.16 -0.36,0.35 0,0.2 0.16,0.35 0.36,0.35 1.03,0 2.06,0.38 3.05,0.94 1.56,0.87 3.04,2.17 4.32,3.24 0.47,0.4 0.85,0.98 1.27,1.53 0.47,0.61 0.98,1.18 1.67,1.45 0.46,0.19 0.85,0.19 1.18,0.07 0.48,-0.17 0.84,-0.6 1.08,-1.18 0.53,-1.24 0.56,-3.19 0.56,-3.89 0,-0.2 -0.16,-0.35 -0.35,-0.35 -0.2,0 -0.36,0.15 -0.36,0.35 z"
             id="path146" />
        </g>
        <g
           transform="matrix(1.69788,0,0,1.33308,-1494.29,-468.993)"
           id="g152">
          <path
             d="m 1333.04,1945.83 c 1.05,0.06 3.15,2.24 3.63,3.07 1.43,2.51 2.15,5.01 1.08,7.85 -0.46,1.24 -0.4,2.5 -1.92,3.01 -2.07,0.69 -4.23,-0.07 -5.35,-1.92 -0.67,-1.12 -0.6,-2.67 -1,-3.85 -0.22,-0.67 0.18,-3.84 0.75,-3.84 z"
             style="fill:#ffd500"
             id="path150" />
        </g>
        <g
           transform="matrix(1.69788,0,0,1.33308,-1490.72,-473.557)"
           id="g156">
          <path
             d="m 1332.07,1959.42 c 2.83,-0.34 1.9,-8.36 -1.59,-6.34 -0.6,0.34 -0.49,0.81 -0.66,1.33 -0.74,2.21 -0.86,2.76 0.3,4.11 0.26,0.3 1.55,0.95 1.95,0.9 z"
             id="path154" />
        </g>
        <g
           transform="matrix(1.42099,0,0,1.08753,-1149.77,11.9664)"
           id="g160">
          <path
             d="m 1334.02,1955.05 c 0.2,-1.7 -1.57,-2.63 -3.28,-2.14 -0.67,0.19 -0.75,0.98 -0.92,1.5 -0.74,2.21 1.66,3.36 2.03,3.51 1.66,0.67 2.17,-2.87 2.17,-2.87 z"
             id="path158" />
        </g>
        <g
           transform="matrix(2.00082,0,0,1.39031,-1905.64,-578.652)"
           id="g164">
          <path
             d="m 1331.02,1970.94 c 0.06,-0.05 0.18,-0.24 0.18,-0.16 0,1.1 -1.87,8.06 -1.87,8.06 0,0 -0.31,-1.05 -0.59,-1.51 -0.22,-0.33 -1.67,-1.81 -1.67,-2.01 z"
             style="fill:#ffd500"
             id="path162" />
        </g>
        <g
           transform="matrix(1.01198,0.0614865,-0.12013,1.15808,-348.659,-206.578)"
           id="g168">
          <path
             d="m 1330.45,1970.35 c 0.06,-0.05 0.75,0.35 0.75,0.43 0,1.1 -0.84,6.94 -1.13,6.49 -0.21,-0.34 -3.48,-1.87 -3.48,-2.08 z"
             style="fill:#ffd500"
             id="path166" />
        </g>
        <g
           transform="matrix(2.00082,0,0,1.39031,-1902.38,-582.331)"
           id="g172">
          <path
             d="m 1325.85,1977.24 c 0.38,0.1 -1.46,5.68 -1.52,5.63 -0.53,-0.53 -0.52,-3.82 -1.4,-3.82 z"
             style="fill:#ffd500"
             id="path170" />
        </g>
        <g
           transform="matrix(2.00082,0,0,1.39031,-1902.16,-582.022)"
           id="g176">
          <path
             d="m 1321.36,1977.49 c 0.29,-0.21 -0.27,0.7 -0.52,0.97 -0.55,0.57 -0.76,1.45 -1.29,1.99 -0.06,0.06 -0.05,-0.66 -0.13,-1 -0.23,-0.92 0.56,-4.88 0.34,-5.33 z"
             style="fill:#ffd500"
             id="path174" />
        </g>
        <g
           transform="matrix(1.56301,-0.419371,0.400802,0.874964,-2113.1,993.019)"
           id="g180">
          <path
             d="m 1321.36,1977.49 c 0.29,-0.21 -0.27,0.7 -0.52,0.97 -0.55,0.57 -1.69,2.49 -1.94,2.21 -0.48,-0.54 1,-6.24 0.86,-6.55 z"
             style="fill:#ffd500"
             id="path178" />
        </g>
        <g
           transform="matrix(1,0,0,0.765329,-480.13,334.051)"
           id="g184">
          <path
             d="m 1235.21,2347.9 c 0.19,-0.12 -0.08,-0.99 -0.08,-1.17 0,-1.09 0.1,-2.17 0.32,-3.24 0.61,-2.99 17.44,-10.83 18.79,-9.13 0.73,0.92 2.61,-0.22 3.74,0.13 0.32,0.1 0.68,0.23 0.95,0.43 1.05,0.82 0.5,2.51 0.35,3.58 -0.09,0.66 -0.2,1.67 -0.77,2.12 -0.27,0.22 -0.83,0.09 -1.11,0 -2.49,-0.76 -7.27,1.11 -10.54,3.81 -1.93,1.58 -5.42,9.39 -5.81,10.1 -0.48,0.86 -0.55,1.54 -1.64,1.72 -0.83,0.14 -1.19,-0.47 -1.65,-0.98 -0.14,-0.15 -0.34,-0.22 -0.48,-0.37 -0.7,-0.76 -2.07,-7 -2.07,-7 z"
             style="fill:#fdf5d6"
             id="path182" />
        </g>
        <g
           transform="matrix(1.42099,0,0,1.08753,-1124.88,10.1065)"
           id="g188">
          <path
             d="m 1334.57,1944.88 c -0.47,0.03 -2.28,0.51 -2.73,1.32 -1.05,1.9 -7.64,11.04 -8.11,6.23 -0.08,-0.81 -0.27,-1.55 -0.33,-2.36 -0.02,-0.19 -0.19,-0.34 -0.38,-0.32 -0.19,0.01 -0.34,0.18 -0.33,0.38 0.07,0.83 0.21,1.59 0.35,2.42 0.12,0.72 0.45,2.08 1.11,2.92 0.51,0.64 1.2,1 2.1,0.69 0.12,-0.04 0.38,-0.21 0.69,-0.52 0.62,-0.6 3.29,-5.87 4.53,-7.29 0.82,-0.93 1.61,-1.68 2.08,-1.89 1.9,-0.84 3.25,-1.14 4.82,-1 0.3,0.02 0.56,0.06 0.74,0.11 0.04,0.02 0.09,0.04 0.12,0.05 0.06,0.12 0.18,0.2 0.33,0.2 0.19,-0.01 0.34,-0.17 0.33,-0.37 0,-0.12 -0.05,-0.24 -0.17,-0.34 -0.11,-0.1 -0.33,-0.2 -0.65,-0.27 -1.1,-0.22 -2.65,-0.07 -4.5,0.04 z"
             id="path186" />
        </g>
        <g
           transform="matrix(1,0,0,0.765329,-480.13,334.051)"
           id="g192">
          <path
             d="m 1245.91,2372.74 c -0.1,-0.03 -1.18,3.02 -1.43,3.65 -1.61,4.15 -15.54,19.32 -17.68,20.3 -5.45,2.48 -10.18,-8.49 -6.95,-15.07 0.58,-1.19 -1.59,-1.01 -1.77,0.3 -0.29,2.2 -0.47,6.05 -0.26,6.99 0.55,2.49 0.66,4.17 1.8,5.87 0.76,1.14 1.98,2.29 4.12,3.68 0.97,0.62 2.31,0.48 3.87,-0.35 2.08,-1.11 4.61,-3.42 7.13,-6.22 3.64,-4.04 7.26,-9.1 9.49,-12.94 -2.09,8.37 -6.43,24 -5.68,35.59 0.97,14.95 -16.89,26.33 -20.41,11.29 -0.07,-0.27 -0.23,-0.5 -0.5,-0.5 -0.28,0 -0.5,0.23 -0.5,0.5 0,5.61 4.87,8.05 10.06,9.14 5.14,1.07 13.05,-12.3 12.75,-18.75 -0.65,-13.78 6.98,-43.09 5.96,-43.48 z"
             id="path190" />
        </g>
        <g
           transform="matrix(1,0,0,0.765329,-480.13,334.051)"
           id="g196">
          <path
             d="m 1218.98,2380.95 0.01,3.33 c 0.17,-0.93 0.45,-1.83 0.86,-2.66 0.34,-0.71 -0.29,-0.93 -0.87,-0.67 z"
             id="path194" />
        </g>
      </g>
    </g>
    <g
       transform="matrix(0.26458333,0,0,0.26458333,-458.15779,-50.358179)"
       id="g488"
       style="clip-rule:evenodd;fill-rule:evenodd;stroke-linecap:round;stroke-linejoin:round;stroke-miterlimit:1.5">
      <g
         transform="translate(1023.76)"
         id="g482">
        <g
           transform="matrix(0.927056,0,0,0.923824,26.8553,32.328)"
           id="g476">
          <rect
             x="368.16501"
             y="424.388"
             width="323.60501"
             height="324.737"
             style="fill:#ff000f;stroke:none;stroke-width:2.64px"
             id="rect474" />
        </g>
        <g
           transform="matrix(0.78813,0,0,0.78682,100.482,112.716)"
           id="g480">
          <rect
             x="368.16501"
             y="424.388"
             width="323.60501"
             height="324.737"
             style="fill:#ffffff"
             id="rect478" />
        </g>
      </g>
      <g
         transform="matrix(10.1722,0,0,10.1722,-6411.25,-5116.75)"
         id="g486">
        <path
           d="M 781.088,567.233 V 555.68 c -2.15,1.65 -3.597,2.475 -4.342,2.475 -0.355,0 -0.671,-0.141 -0.946,-0.425 -0.275,-0.283 -0.412,-0.611 -0.412,-0.984 0,-0.431 0.135,-0.749 0.406,-0.952 0.271,-0.203 0.749,-0.465 1.434,-0.787 1.025,-0.482 1.843,-0.99 2.457,-1.523 0.614,-0.534 1.157,-1.13 1.631,-1.79 0.474,-0.661 0.783,-1.067 0.927,-1.219 0.144,-0.153 0.415,-0.229 0.813,-0.229 0.448,0 0.808,0.174 1.079,0.521 0.271,0.347 0.406,0.825 0.406,1.434 v 14.537 c 0,1.701 -0.58,2.551 -1.739,2.551 -0.517,0 -0.931,-0.173 -1.244,-0.52 -0.314,-0.347 -0.47,-0.859 -0.47,-1.536 z"
           style="fill-rule:nonzero"
           id="path484" />
      </g>
    </g>
    <g
       transform="matrix(0.26458333,0,0,0.26458333,-276.32824,-50.347622)"
       id="g584"
       style="clip-rule:evenodd;fill-rule:evenodd;stroke-linecap:round;stroke-linejoin:round;stroke-miterlimit:1.5">
      <g
         transform="translate(1023.76)"
         id="g578">
        <g
           transform="matrix(0.927056,0,0,0.923824,26.8553,32.328)"
           id="g572">
          <rect
             x="368.16501"
             y="424.388"
             width="323.60501"
             height="324.737"
             style="fill:#ff000f;stroke:none;stroke-width:2.64px"
             id="rect570" />
        </g>
        <g
           transform="matrix(0.78813,0,0,0.78682,100.482,112.716)"
           id="g576">
          <rect
             x="368.16501"
             y="424.388"
             width="323.60501"
             height="324.737"
             style="fill:#ffffff"
             id="rect574" />
        </g>
      </g>
      <g
         transform="matrix(10.1722,0,0,10.1722,-6411.25,-5116.75)"
         id="g582">
        <path
           d="M 781.088,567.233 V 555.68 c -2.15,1.65 -3.597,2.475 -4.342,2.475 -0.355,0 -0.671,-0.141 -0.946,-0.425 -0.275,-0.283 -0.412,-0.611 -0.412,-0.984 0,-0.431 0.135,-0.749 0.406,-0.952 0.271,-0.203 0.749,-0.465 1.434,-0.787 1.025,-0.482 1.843,-0.99 2.457,-1.523 0.614,-0.534 1.157,-1.13 1.631,-1.79 0.474,-0.661 0.783,-1.067 0.927,-1.219 0.144,-0.153 0.415,-0.229 0.813,-0.229 0.448,0 0.808,0.174 1.079,0.521 0.271,0.347 0.406,0.825 0.406,1.434 v 14.537 c 0,1.701 -0.58,2.551 -1.739,2.551 -0.517,0 -0.931,-0.173 -1.244,-0.52 -0.314,-0.347 -0.47,-0.859 -0.47,-1.536 z"
           style="fill-rule:nonzero"
           id="path580" />
      </g>
    </g>
    <g
       transform="matrix(0.26458333,0,0,0.26458333,-185.26133,-50.347675)"
       id="g600"
       style="clip-rule:evenodd;fill-rule:evenodd;stroke-linecap:round;stroke-linejoin:round;stroke-miterlimit:1.5">
      <g
         transform="translate(1023.76)"
         id="g594">
        <g
           transform="matrix(0.927056,0,0,0.923824,26.8553,32.328)"
           id="g588">
          <rect
             x="368.16501"
             y="424.388"
             width="323.60501"
             height="324.737"
             style="fill:#ff000f;stroke:none;stroke-width:2.64px"
             id="rect586" />
        </g>
        <g
           transform="matrix(0.78813,0,0,0.78682,100.482,112.716)"
           id="g592">
          <rect
             x="368.16501"
             y="424.388"
             width="323.60501"
             height="324.737"
             style="fill:#ffffff"
             id="rect590" />
        </g>
      </g>
      <g
         transform="matrix(10.1722,0,0,10.1722,-6411.25,-5116.75)"
         id="g598">
        <path
           d="M 781.088,567.233 V 555.68 c -2.15,1.65 -3.597,2.475 -4.342,2.475 -0.355,0 -0.671,-0.141 -0.946,-0.425 -0.275,-0.283 -0.412,-0.611 -0.412,-0.984 0,-0.431 0.135,-0.749 0.406,-0.952 0.271,-0.203 0.749,-0.465 1.434,-0.787 1.025,-0.482 1.843,-0.99 2.457,-1.523 0.614,-0.534 1.157,-1.13 1.631,-1.79 0.474,-0.661 0.783,-1.067 0.927,-1.219 0.144,-0.153 0.415,-0.229 0.813,-0.229 0.448,0 0.808,0.174 1.079,0.521 0.271,0.347 0.406,0.825 0.406,1.434 v 14.537 c 0,1.701 -0.58,2.551 -1.739,2.551 -0.517,0 -0.931,-0.173 -1.244,-0.52 -0.314,-0.347 -0.47,-0.859 -0.47,-1.536 z"
           style="fill-rule:nonzero"
           id="path596" />
      </g>
    </g>
    <g
       transform="matrix(0.26458333,0,0,0.26458333,-459.63133,-136.48032)"
       id="g712"
       style="clip-rule:evenodd;fill-rule:evenodd;stroke-linecap:round;stroke-linejoin:round;stroke-miterlimit:1.5">
      <g
         transform="translate(1372.94,-23.2892)"
         id="g706">
        <g
           transform="matrix(0.927056,0,0,0.923824,26.8553,32.328)"
           id="g700">
          <rect
             x="368.16501"
             y="424.388"
             width="323.60501"
             height="324.737"
             style="fill:#ff000f;stroke:none;stroke-width:2.64px"
             id="rect698" />
        </g>
        <g
           transform="matrix(0.78813,0,0,0.78682,100.482,112.716)"
           id="g704">
          <rect
             x="368.16501"
             y="424.388"
             width="323.60501"
             height="324.737"
             style="fill:#ffffff"
             id="rect702" />
        </g>
      </g>
      <g
         transform="matrix(10.1722,0,0,10.1722,-6062.61,-5143)"
         id="g710">
        <path
           d="M 781.088,567.233 V 555.68 c -2.15,1.65 -3.597,2.475 -4.342,2.475 -0.355,0 -0.671,-0.141 -0.946,-0.425 -0.275,-0.283 -0.412,-0.611 -0.412,-0.984 0,-0.431 0.135,-0.749 0.406,-0.952 0.271,-0.203 0.749,-0.465 1.434,-0.787 1.025,-0.482 1.843,-0.99 2.457,-1.523 0.614,-0.534 1.157,-1.13 1.631,-1.79 0.474,-0.661 0.783,-1.067 0.927,-1.219 0.144,-0.153 0.415,-0.229 0.813,-0.229 0.448,0 0.808,0.174 1.079,0.521 0.271,0.347 0.406,0.825 0.406,1.434 v 14.537 c 0,1.701 -0.58,2.551 -1.739,2.551 -0.517,0 -0.931,-0.173 -1.244,-0.52 -0.314,-0.347 -0.47,-0.859 -0.47,-1.536 z"
           style="fill-rule:nonzero"
           id="path708" />
      </g>
    </g>
    <g
       transform="matrix(0.26458333,0,0,0.26458333,-185.26133,41.378073)"
       id="g838"
       style="clip-rule:evenodd;fill-rule:evenodd;stroke-linecap:round;stroke-linejoin:round;stroke-miterlimit:1.5">
      <g
         transform="translate(1023.76)"
         id="g832">
        <g
           transform="matrix(0.927056,0,0,0.923824,26.8553,32.328)"
           id="g826">
          <rect
             x="368.16501"
             y="424.388"
             width="323.60501"
             height="324.737"
             style="fill:#ff000f;stroke:none;stroke-width:2.64px"
             id="rect824" />
        </g>
        <g
           transform="matrix(0.78813,0,0,0.78682,100.482,112.716)"
           id="g830">
          <rect
             x="368.16501"
             y="424.388"
             width="323.60501"
             height="324.737"
             style="fill:#ffffff"
             id="rect828" />
        </g>
      </g>
      <g
         transform="matrix(10.1722,0,0,10.1722,-6411.25,-5116.75)"
         id="g836">
        <path
           d="M 781.088,567.233 V 555.68 c -2.15,1.65 -3.597,2.475 -4.342,2.475 -0.355,0 -0.671,-0.141 -0.946,-0.425 -0.275,-0.283 -0.412,-0.611 -0.412,-0.984 0,-0.431 0.135,-0.749 0.406,-0.952 0.271,-0.203 0.749,-0.465 1.434,-0.787 1.025,-0.482 1.843,-0.99 2.457,-1.523 0.614,-0.534 1.157,-1.13 1.631,-1.79 0.474,-0.661 0.783,-1.067 0.927,-1.219 0.144,-0.153 0.415,-0.229 0.813,-0.229 0.448,0 0.808,0.174 1.079,0.521 0.271,0.347 0.406,0.825 0.406,1.434 v 14.537 c 0,1.701 -0.58,2.551 -1.739,2.551 -0.517,0 -0.931,-0.173 -1.244,-0.52 -0.314,-0.347 -0.47,-0.859 -0.47,-1.536 z"
           style="fill-rule:nonzero"
           id="path834" />
      </g>
    </g>
    <g
       transform="matrix(0.26458333,0,0,0.26458333,-183.37581,-49.328474)"
       id="g870"
       style="clip-rule:evenodd;fill-rule:evenodd;stroke-linecap:round;stroke-linejoin:round;stroke-miterlimit:1.5">
      <g
         transform="translate(328.826,343.612)"
         id="g864">
        <g
           transform="matrix(0.927056,0,0,0.923824,26.8553,32.328)"
           id="g858">
          <rect
             x="368.16501"
             y="424.388"
             width="323.60501"
             height="324.737"
             style="fill:#ff000f;stroke:none;stroke-width:2.64px"
             id="rect856" />
        </g>
        <g
           transform="matrix(0.78813,0,0,0.78682,100.482,112.716)"
           id="g862">
          <rect
             x="368.16501"
             y="424.388"
             width="323.60501"
             height="324.737"
             style="fill:#ffffff"
             id="rect860" />
        </g>
      </g>
      <g
         transform="matrix(10.1722,0,0,10.1722,-7099.2,-4772.88)"
         id="g868">
        <path
           d="M 781.088,567.233 V 555.68 c -2.15,1.65 -3.597,2.475 -4.342,2.475 -0.355,0 -0.671,-0.141 -0.946,-0.425 -0.275,-0.283 -0.412,-0.611 -0.412,-0.984 0,-0.431 0.135,-0.749 0.406,-0.952 0.271,-0.203 0.749,-0.465 1.434,-0.787 1.025,-0.482 1.843,-0.99 2.457,-1.523 0.614,-0.534 1.157,-1.13 1.631,-1.79 0.474,-0.661 0.783,-1.067 0.927,-1.219 0.144,-0.153 0.415,-0.229 0.813,-0.229 0.448,0 0.808,0.174 1.079,0.521 0.271,0.347 0.406,0.825 0.406,1.434 v 14.537 c 0,1.701 -0.58,2.551 -1.739,2.551 -0.517,0 -0.931,-0.173 -1.244,-0.52 -0.314,-0.347 -0.47,-0.859 -0.47,-1.536 z"
           style="fill-rule:nonzero"
           id="path866" />
      </g>
    </g>
    <g
       transform="matrix(0.26458333,0,0,0.26458333,-459.17855,-141.27221)"
       id="g1142"
       style="clip-rule:evenodd;fill-rule:evenodd;stroke-linecap:round;stroke-linejoin:round;stroke-miterlimit:1.5">
      <g
         transform="translate(1371.23,343.612)"
         id="g1136">
        <g
           transform="matrix(0.927056,0,0,0.923824,26.8553,32.328)"
           id="g1130">
          <rect
             x="368.16501"
             y="424.388"
             width="323.60501"
             height="324.737"
             style="fill:#ff000f;stroke:none;stroke-width:2.64px"
             id="rect1128" />
        </g>
        <g
           transform="matrix(0.78813,0,0,0.78682,100.482,112.716)"
           id="g1134">
          <rect
             x="368.16501"
             y="424.388"
             width="323.60501"
             height="324.737"
             style="fill:#ffffff"
             id="rect1132" />
        </g>
      </g>
      <g
         transform="matrix(10.1722,0,0,10.1722,-6063.72,-4773.18)"
         id="g1140">
        <path
           d="m 779.552,565.976 h 6.627 c 0.66,0 1.163,0.135 1.51,0.406 0.347,0.271 0.521,0.639 0.521,1.105 0,0.414 -0.138,0.766 -0.413,1.053 -0.275,0.288 -0.692,0.432 -1.25,0.432 h -9.344 c -0.635,0 -1.13,-0.176 -1.485,-0.527 -0.356,-0.351 -0.534,-0.764 -0.534,-1.238 0,-0.304 0.115,-0.709 0.343,-1.212 0.229,-0.504 0.478,-0.899 0.749,-1.187 1.126,-1.168 2.142,-2.169 3.047,-3.003 0.906,-0.833 1.553,-1.381 1.943,-1.644 0.694,-0.491 1.271,-0.984 1.732,-1.479 0.462,-0.495 0.813,-1.003 1.054,-1.523 0.241,-0.521 0.362,-1.031 0.362,-1.53 0,-0.542 -0.129,-1.026 -0.387,-1.453 -0.258,-0.428 -0.61,-0.76 -1.054,-0.997 -0.444,-0.237 -0.929,-0.356 -1.454,-0.356 -1.108,0 -1.98,0.487 -2.615,1.46 -0.084,0.127 -0.226,0.474 -0.425,1.041 -0.199,0.567 -0.423,1.003 -0.673,1.308 -0.25,0.305 -0.616,0.457 -1.098,0.457 -0.423,0 -0.774,-0.14 -1.054,-0.419 -0.279,-0.279 -0.419,-0.66 -0.419,-1.142 0,-0.584 0.131,-1.194 0.394,-1.829 0.262,-0.634 0.654,-1.21 1.174,-1.726 0.521,-0.516 1.181,-0.933 1.981,-1.251 0.799,-0.317 1.737,-0.476 2.812,-0.476 1.295,0 2.399,0.203 3.313,0.61 0.593,0.271 1.113,0.643 1.562,1.117 0.448,0.474 0.797,1.022 1.047,1.644 0.25,0.622 0.375,1.267 0.375,1.936 0,1.049 -0.261,2.004 -0.781,2.863 -0.521,0.859 -1.052,1.532 -1.594,2.018 -0.541,0.487 -1.449,1.251 -2.723,2.292 -1.273,1.041 -2.147,1.849 -2.621,2.425 -0.203,0.228 -0.411,0.503 -0.622,0.825 z"
           style="fill-rule:nonzero"
           id="path1138" />
      </g>
    </g>
    <g
       transform="matrix(0.26458333,0,0,0.26458333,-184.39599,-140.60433)"
       id="g2240"
       style="clip-rule:evenodd;fill-rule:evenodd;stroke-linecap:round;stroke-linejoin:round;stroke-miterlimit:1.5">
      <g
         transform="matrix(0.927056,0,0,0.923824,703.149,719.552)"
         id="g2098">
        <rect
           x="368.16501"
           y="424.388"
           width="323.60501"
           height="324.737"
           style="fill:#0075ff;stroke:none;stroke-width:2.64px"
           id="rect2096" />
      </g>
      <g
         transform="matrix(1.11965,0,0,1.11965,97.9813,-1252.25)"
         id="g2238">
        <g
           transform="translate(-0.341493,1925.02)"
           id="g2176">
          <g
             transform="matrix(0.767128,0,0,0.657863,345.595,-430.186)"
             id="g2102">
            <path
               d="m 835.17,1276.1 c 3.389,-3.11 5.51,-0.35 9.429,0.49 8.178,1.76 24.936,7.55 26.385,17.69 0.845,5.91 -4.353,9.28 -7.828,12.76 -3.623,3.62 -6.321,7.54 -11.018,10.14 -13.719,7.63 -32.562,5.88 -47.55,7.54 -4.115,0.46 -8.467,-1.68 -12.468,-2.32 -16.502,-2.6 -25.619,-3.87 -37.692,-15.94 -2.349,-2.35 -5.873,-4.58 -6.959,-7.83 -2.885,-8.66 -3.384,-12.3 2.32,-19.43 2.101,-2.62 5.675,-2.26 8.118,-3.48 0.645,-0.32 1.84,-0.27 2.609,-0.58 0.484,-0.19 1.971,-0.58 1.45,-0.58 -0.42,0 -1.162,0.58 -1.45,0.87 z"
               style="fill:#005dcc;fill-opacity:1"
               id="path2100" />
          </g>
          <g
             transform="matrix(-0.77052,0,0,1,1580.16,-860.02)"
             id="g2106">
            <path
               d="m 808.523,1121.8 c -13.016,3.91 -6.296,109.24 4.459,133.05 6.941,15.37 3.587,24.6 -11.89,29.14 -23.484,6.87 -51.001,4.16 -51.97,-13.54 -1.478,-27 19.541,-123.48 5.675,-152.83"
               style="fill:#ffffff"
               id="path2104" />
          </g>
          <g
             transform="matrix(-0.77052,0,0,1,1580.16,-860.02)"
             id="g2110">
            <path
               d="m 751.201,1240.63 c -1.479,12.71 -2.436,23.29 -2.079,29.82 0.969,17.7 28.486,20.41 51.97,13.54 15.477,-4.54 18.831,-13.77 11.89,-29.14 -10.755,-23.81 -17.475,-129.14 -4.459,-133.05 l -53.726,-4.18 c 7.64,16.18 4.689,52.73 0.703,86.8 1.547,0.45 3.631,0.46 6.113,-0.01 3.383,-0.65 25.323,-10.53 28.275,-14.14 0.455,-0.56 2.466,-3.23 2.604,-3.18 1.504,0.47 -12.302,27.29 -12.983,40.02 -0.123,2.3 -2.432,5.29 -5.662,7.99 -5.134,4.3 -12.594,7.9 -17.309,6.92 -1.85,-0.39 -3.663,-0.84 -5.337,-1.39 z"
               style="fill:#ffffff"
               id="path2108" />
          </g>
          <g
             transform="translate(-68.2621,-842.63)"
             id="g2114">
            <path
               d="m 1057.29,1101.03 c -8.45,32.84 6.54,123.32 5.45,149.33 -0.64,15.13 -16.23,19.31 -32.05,15.91 0.14,0.05 0.28,0.11 0.43,0.16 18.09,6.88 39.29,4.16 40.04,-13.54 0.46,-10.92 -1.92,-33.22 -4.2,-57.84 -0.21,-2.29 -2.47,-5.49 -0.64,-6.93 4.6,-3.61 3.82,-6.75 -0.82,-9.54 -0.77,-0.46 -0.15,-1.78 -0.22,-2.68 -2.5,-30.68 -3.75,-61.39 1.51,-75.83 z"
               style="fill:#ffffff"
               id="path2112" />
          </g>
          <g
             transform="matrix(-0.77052,0,0,1,1580.16,-860.02)"
             id="g2118">
            <path
               d="m 751.319,1239.46 c 9.589,2.35 24.695,-4.8 24.936,-14.86 0.257,-10.73 8.746,-24.58 12.938,-32.01 -3.851,3.26 -9.975,7.48 -15.992,10.76 -4.166,2.27 -8.289,4.09 -11.579,4.86 -2.473,0.58 -4.536,0.55 -5.925,-0.14 l -0.583,-0.33 c -1.303,11.2 -2.688,22.05 -3.795,31.72 z"
               style="fill:#d4c484"
               id="path2116" />
          </g>
          <g
             transform="matrix(1.0104,0.12743,-0.104885,0.831639,296.811,-767.549)"
             id="g2122">
            <path
               d="m 879.624,1086.11 c 0.656,-4.51 -5.418,-15.89 -13.274,-25.62 -8.106,-10.04 -35.903,-7.14 -43.666,-8.93 -31.779,-7.32 -70.15,6.63 -96.563,18.48 -20.498,9.2 -38.272,44.1 -33.358,54.11 8.846,18.04 136.391,-1.02 175.797,-25.34 6.775,-4.18 10.455,-8.51 11.064,-12.7 z"
               style="fill:#d02b2b"
               id="path2120" />
          </g>
          <g
             transform="translate(-70.1399,-847.722)"
             id="g2126">
            <path
               d="m 956.644,1084.38 c -6.083,7.52 -9.368,14.99 -7.632,18.96 7.046,16.13 137.918,16.53 180.288,1.33 7.28,-2.62 11.45,-5.75 12.51,-9.16 0.44,-1.43 -0.05,-3.88 -1.22,-6.87 -1.04,0.47 -2.16,0.92 -3.37,1.35 -42.37,15.21 -173.239,14.8 -180.285,-1.33 -0.507,-1.16 -0.586,-2.61 -0.291,-4.28 z"
               style="fill:#b93737"
               id="path2124" />
          </g>
          <g
             transform="translate(223.91,-839.705)"
             id="g2130">
            <path
               d="m 799.244,1067.74 c 0.111,-5.96 -13.846,-5.89 -11.059,0 0.967,2.04 3.944,3.4 5.948,4.07 2.068,0.69 5.067,-1.76 5.111,-4.07 z"
               style="fill:#ffe9e9"
               id="path2128" />
          </g>
          <g
             transform="matrix(0.703975,0.089893,-0.0846269,0.662734,496.923,-558.282)"
             id="g2134">
            <path
               d="m 799.244,1067.74 c 0.111,-5.96 -13.846,-5.89 -11.059,0 0.967,2.04 3.944,3.4 5.948,4.07 2.068,0.69 5.067,-1.76 5.111,-4.07 z"
               style="fill:#ffe9e9"
               id="path2132" />
          </g>
          <g
             transform="matrix(0.0669918,-0.275151,0.54754,0.133311,282.807,302.373)"
             id="g2138">
            <path
               d="m 799.244,1067.74 c 0.111,-5.96 -13.846,-5.89 -11.059,0 0.967,2.04 3.944,3.4 5.948,4.07 2.068,0.69 5.067,-1.76 5.111,-4.07 z"
               style="fill:#ffe9e9"
               id="path2136" />
          </g>
          <g
             transform="matrix(0.132163,-0.542826,0.8061,0.196263,-24.4479,449.57)"
             id="g2142">
            <path
               d="m 799.244,1067.74 c 0.111,-5.96 -13.846,-5.89 -11.059,0 0.967,2.04 3.944,3.4 5.948,4.07 2.068,0.69 5.067,-1.76 5.111,-4.07 z"
               style="fill:#ffe9e9"
               id="path2140" />
          </g>
          <g
             transform="matrix(0.132163,-0.542826,0.8061,0.196263,-65.8105,474.839)"
             id="g2146">
            <path
               d="m 799.244,1067.74 c 0.111,-5.96 -13.846,-5.89 -11.059,0 0.967,2.04 3.944,3.4 5.948,4.07 2.068,0.69 5.067,-1.76 5.111,-4.07 z"
               style="fill:#ffe9e9"
               id="path2144" />
          </g>
          <g
             transform="matrix(-0.164998,0.677687,1.14439,0.278627,-166.957,-576.669)"
             id="g2150">
            <path
               d="m 799.244,1067.74 c 0.111,-5.96 -13.846,-5.89 -11.059,0 0.967,2.04 3.944,3.4 5.948,4.07 2.068,0.69 5.067,-1.76 5.111,-4.07 z"
               style="fill:#ffe9e9"
               id="path2148" />
          </g>
          <g
             transform="matrix(-0.131552,0.540315,0.668779,0.16283,347.709,-371.88)"
             id="g2154">
            <path
               d="m 799.244,1067.74 c 0.111,-5.96 -13.846,-5.89 -11.059,0 0.967,2.04 3.944,3.4 5.948,4.07 2.068,0.69 5.067,-1.76 5.111,-4.07 z"
               style="fill:#ffe9e9"
               id="path2152" />
          </g>
          <g
             transform="matrix(0.130944,-0.537815,0.554851,0.135091,307.609,503.793)"
             id="g2158">
            <path
               d="m 799.244,1067.74 c 0.111,-5.96 -13.846,-5.89 -11.059,0 0.967,2.04 3.944,3.4 5.948,4.07 2.068,0.69 5.067,-1.76 5.111,-4.07 z"
               style="fill:#ffe9e9"
               id="path2156" />
          </g>
          <g
             transform="matrix(-0.054729,0.224785,0.431207,0.104987,543.5,-48.5891)"
             id="g2162">
            <path
               d="m 799.244,1067.74 c 0.111,-5.96 -13.846,-5.89 -11.059,0 0.967,2.04 3.944,3.4 5.948,4.07 2.068,0.69 5.067,-1.76 5.111,-4.07 z"
               style="fill:#ffe9e9"
               id="path2160" />
          </g>
          <g
             transform="matrix(0.187317,-0.576425,1.11613,0.362702,-355.27,288.034)"
             id="g2166">
            <path
               d="m 799.244,1067.74 c 0.111,-5.96 -13.846,-5.89 -11.059,0 0.967,2.04 3.944,3.4 5.948,4.07 2.068,0.69 5.067,-1.76 5.111,-4.07 z"
               style="fill:#ffe9e9"
               id="path2164" />
          </g>
          <g
             transform="matrix(-0.683576,-0.249782,0.230187,-0.62995,1280.57,1102.74)"
             id="g2170">
            <path
               d="m 799.244,1067.74 c 0.111,-5.96 -13.846,-5.89 -11.059,0 0.967,2.04 3.944,3.4 5.948,4.07 2.068,0.69 5.067,-1.76 5.111,-4.07 z"
               style="fill:#ffe9e9"
               id="path2168" />
          </g>
          <g
             transform="matrix(-0.689735,0.131458,-0.187221,-0.982318,1784.65,1172.09)"
             id="g2174">
            <path
               d="m 799.244,1067.74 c 0.111,-5.96 -13.846,-5.89 -11.059,0 0.967,2.04 3.944,3.4 5.948,4.07 2.068,0.69 5.067,-1.76 5.111,-4.07 z"
               style="fill:#ffe9e9"
               id="path2172" />
          </g>
        </g>
        <g
           transform="matrix(-1.75067,0.590799,0.347922,1.03097,2620.35,-536.842)"
           id="g2180">
          <path
             d="m 1329.76,1988.68 c 0.12,-3.72 -3.61,-2.28 -4.66,3.04 -0.01,0.01 -1.08,0.16 -1.61,-0.02 -2.18,-0.73 -1.92,5.32 -1.92,6.79 0.82,0.96 1.38,0.31 2.99,0.61 2.38,0.33 5.09,-7.31 5.2,-10.42 z"
             style="fill:#aa3f3f"
             id="path2178" />
        </g>
        <g
           transform="matrix(-1.40547,-0.209494,-0.209494,1.40547,3252.83,-250.16)"
           id="g2184">
          <path
             d="m 1313.29,1953.7 c -0.26,-1.31 -2.36,0.43 -2.94,1.3 -1.74,2.61 -1.74,9.66 1.92,10.27 3.39,0.56 4.34,-5.22 4.01,-7.52 -0.13,-0.94 -0.35,-2.91 -1.44,-3.13 z"
             style="fill:#ffd500"
             id="path2182" />
        </g>
        <g
           transform="matrix(-1.41373,0.14349,0.14349,1.41373,2571.02,-726.562)"
           id="g2188">
          <path
             d="m 1320.13,1952.91 c 0.41,1.04 -0.05,5.59 -2.34,4.68 -1.25,-0.5 -1.86,-2.11 -2.84,-2.93 -2.17,-1.8 -4.87,-4.26 -7.6,-4.26 -2.44,-5.75 9.78,-5.05 12.78,2.51 z"
             style="fill:#fff7d5"
             id="path2186" />
        </g>
        <g
           transform="matrix(-1.41373,0.14349,0.14349,1.41373,2571.02,-726.562)"
           id="g2192">
          <path
             d="m 1318.9,1952.2 c 0,0.4 -0.3,1.26 -0.5,2.15 -0.12,0.56 -0.36,1.89 -0.78,1.69 -1.74,-0.83 -5.59,-4.25 -6.87,-4.97 -1.11,-0.61 -2.26,-1.02 -3.4,-1.02 -0.2,0 -0.36,0.16 -0.36,0.35 0,0.2 0.16,0.35 0.36,0.35 1.03,0 2.06,0.38 3.05,0.94 1.56,0.87 3.04,2.17 4.32,3.24 0.47,0.4 0.85,0.98 1.27,1.53 0.47,0.61 0.11,0.47 0.79,0.74 0.46,0.19 0.85,0.19 1.18,0.07 0.48,-0.17 0.84,-0.6 1.09,-1.18 0.52,-1.24 0.55,-3.19 0.55,-3.89 0,-0.2 -0.16,-0.35 -0.35,-0.35 -0.19,0 -0.35,0.15 -0.35,0.35 z"
             id="path2190" />
        </g>
        <g
           transform="matrix(-1.68921,0.17145,0.175888,1.73294,2881.68,-1384.43)"
           id="g2196">
          <path
             d="m 1333.04,1945.83 c 1.05,0.06 3.15,2.24 3.63,3.07 1.43,2.51 2.15,5.01 1.08,7.85 -0.46,1.24 -0.4,2.5 -1.92,3.01 -2.07,0.69 -4.23,-0.07 -5.35,-1.92 -0.67,-1.12 -0.6,-2.67 -1,-3.85 -0.22,-0.67 0.18,-3.84 0.75,-3.84 z"
             style="fill:#ffd500"
             id="path2194" />
        </g>
        <g
           transform="matrix(-1.68921,0.17145,0.175888,1.73294,2877.55,-1388.37)"
           id="g2200">
          <path
             d="m 1332.07,1959.42 c 2.83,-0.34 1.9,-8.36 -1.59,-6.34 -0.6,0.34 -0.49,0.81 -0.66,1.33 -0.74,2.21 -0.86,2.76 0.3,4.11 0.26,0.3 1.55,0.95 1.95,0.9 z"
             id="path2198" />
        </g>
        <g
           transform="matrix(-1.23766,0.125619,0.180421,1.77759,2291.54,-1414.25)"
           id="g2204">
          <path
             d="m 1334.02,1955.05 c 0.2,-1.7 -1.57,-2.63 -3.28,-2.14 -0.67,0.19 -0.75,0.98 -0.92,1.5 -0.74,2.21 1.47,3.27 1.84,3.43 1.66,0.66 2.36,-2.79 2.36,-2.79 z"
             id="path2202" />
        </g>
        <g
           transform="matrix(-1.95605,0.42091,0.38216,1.77596,2830.51,-1796.23)"
           id="g2208">
          <path
             d="m 1331.02,1970.94 c 0.06,-0.05 0.18,-0.24 0.18,-0.16 0,1.1 -1.87,8.06 -1.87,8.06 0,0 -0.31,-1.05 -0.59,-1.51 -0.22,-0.33 -1.67,-1.81 -1.67,-2.01 z"
             style="fill:#ffd500"
             id="path2206" />
        </g>
        <g
           transform="matrix(-0.998693,0.182117,0.272314,1.49331,1768.25,-925.047)"
           id="g2212">
          <path
             d="m 1330.45,1970.35 c 0.06,-0.05 0.75,0.35 0.75,0.43 0,1.1 -0.84,6.94 -1.13,6.49 -0.21,-0.34 -3.48,-1.87 -3.48,-2.08 z"
             style="fill:#ffd500"
             id="path2210" />
        </g>
        <g
           transform="matrix(-2.02214,-0.108745,0.183439,1.80733,3308.06,-1158.88)"
           id="g2216">
          <path
             d="m 1325.85,1977.24 c 0.38,0.1 -1.46,5.68 -1.52,5.63 -0.53,-0.53 -0.63,-4.81 -1.51,-4.81 z"
             style="fill:#ffd500"
             id="path2214" />
        </g>
        <g
           transform="matrix(-1.75987,0.951917,0.864279,1.59785,1616.87,-2147.71)"
           id="g2220">
          <path
             d="m 1321.36,1977.49 c 0.29,-0.21 -0.27,0.7 -0.52,0.97 -0.55,0.57 -0.76,1.45 -1.29,1.99 -0.06,0.06 -0.05,-0.66 -0.13,-1 -0.23,-0.92 0.13,-4.56 -0.09,-5 z"
             style="fill:#ffd500"
             id="path2218" />
        </g>
        <g
           transform="matrix(-1.61035,-0.387331,-0.28331,1.17788,3684.51,455.905)"
           id="g2224">
          <path
             d="m 1321.36,1977.49 c 0.29,-0.21 -0.27,0.7 -0.52,0.97 -0.55,0.57 -1.69,2.49 -1.94,2.21 -0.48,-0.54 1,-6.24 0.86,-6.55 z"
             style="fill:#ffd500"
             id="path2222" />
        </g>
        <g
           transform="matrix(-0.8959,0.0909314,0.100978,0.994889,1854.53,-226.108)"
           id="g2228">
          <path
             d="m 1235.21,2347.9 c 0.19,-0.12 -0.08,-0.99 -0.08,-1.17 0,-1.09 0.1,-2.17 0.32,-3.24 0.61,-2.99 17.44,-10.83 18.79,-9.13 0.73,0.92 2.61,-0.22 3.74,0.13 0.32,0.1 0.68,0.23 0.95,0.43 1.05,0.82 0.5,2.51 0.35,3.58 -0.09,0.66 -0.2,1.67 -0.77,2.12 -0.27,0.22 -0.83,0.09 -1.11,0 -2.49,-0.76 -7.27,1.11 -10.54,3.81 -1.93,1.58 -5.42,9.39 -5.81,10.1 -0.48,0.86 -0.55,1.54 -1.64,1.72 -0.83,0.14 -1.19,-0.47 -1.65,-0.98 -0.14,-0.15 -0.34,-0.22 -0.48,-0.37 -0.7,-0.76 -2.07,-7 -2.07,-7 z"
             style="fill:#fdf5d6"
             id="path2226" />
        </g>
        <g
           transform="matrix(-1.166,0.118346,0.14349,1.41373,2247.13,-690.955)"
           id="g2232">
          <path
             d="m 1334.57,1944.88 c -0.47,0.03 -2.16,0.59 -2.73,1.32 -1.3,1.66 -3.11,4.55 -3.49,5.69 -1.21,3.59 -4.64,4.89 -4.62,0.54 0,-0.81 -0.27,-1.55 -0.33,-2.36 -0.02,-0.19 -0.19,-0.34 -0.38,-0.32 -0.19,0.01 -0.34,0.18 -0.33,0.38 0.07,0.83 0.21,1.59 0.35,2.42 0.12,0.72 0.45,2.08 1.11,2.92 0.51,0.64 1.2,1 2.1,0.69 0.12,-0.04 0.38,-0.21 0.69,-0.52 0.62,-0.6 3.29,-5.87 4.53,-7.29 0.82,-0.93 1.61,-1.68 2.08,-1.89 1.9,-0.84 3.25,-1.14 4.82,-1 0.3,0.02 0.56,0.06 0.74,0.11 0.04,0.02 0.09,0.04 0.12,0.05 0.06,0.12 0.18,0.2 0.33,0.2 0.19,-0.01 0.34,-0.17 0.33,-0.37 0,-0.12 -0.05,-0.24 -0.17,-0.34 -0.11,-0.1 -0.33,-0.2 -0.65,-0.27 -1.1,-0.22 -2.65,-0.07 -4.5,0.04 z"
             id="path2230" />
        </g>
        <g
           transform="matrix(-1.17108,0.118862,0.0932293,0.91854,2207.03,-75.4673)"
           id="g2236">
          <path
             d="m 1245.91,2372.74 c -0.1,-0.03 -1.18,3.02 -1.43,3.65 -1.61,4.15 -15.05,16.64 -17.2,17.62 -5.45,2.49 -8.29,-1.66 -5.07,-8.24 0.59,-1.18 -0.98,-4.5 -1.48,-3.27 -0.36,0.89 -2.14,6.35 -1.89,8.18 0.35,2.52 -0.36,2.4 0.78,4.1 0.76,1.14 1.98,2.29 4.12,3.68 0.97,0.62 2.31,0.48 3.87,-0.35 2.08,-1.11 4.61,-3.42 7.13,-6.22 3.64,-4.04 7.26,-9.1 9.49,-12.94 -2.09,8.37 -6.43,24 -5.68,35.59 0.54,8.36 -5.05,15.92 -9.46,18.29 -3.49,1.86 -6.01,-1.04 -5.84,1.29 0.37,5.33 8.38,2.51 14.63,-8.06 1.89,-3.19 3.12,-6.61 3,-9.1 -0.64,-13.77 6.05,-43.83 5.03,-44.22 z"
             id="path2234" />
        </g>
      </g>
    </g>
  </g>
</svg>
