<?xml version="1.0" encoding="UTF-8" standalone="no"?>
<!-- Created with Inkscape (http://www.inkscape.org/) -->

<svg
   width="271.83752mm"
   height="176.89859mm"
   viewBox="0 0 271.83752 176.89859"
   version="1.1"
   id="svg69797"
   inkscape:version="1.1.1 (3bf5ae0d25, 2021-09-20)"
   sodipodi:docname="2022-TR-02-taskbody.svg"
   xmlns:inkscape="http://www.inkscape.org/namespaces/inkscape"
   xmlns:sodipodi="http://sodipodi.sourceforge.net/DTD/sodipodi-0.dtd"
   xmlns="http://www.w3.org/2000/svg"
   xmlns:svg="http://www.w3.org/2000/svg">
  <sodipodi:namedview
     id="namedview69799"
     pagecolor="#ffffff"
     bordercolor="#666666"
     borderopacity="1.0"
     inkscape:pageshadow="2"
     inkscape:pageopacity="0.0"
     inkscape:pagecheckerboard="0"
     inkscape:document-units="mm"
     showgrid="false"
     inkscape:zoom="0.66368547"
     inkscape:cx="654.67759"
     inkscape:cy="665.22475"
     inkscape:window-width="1920"
     inkscape:window-height="1137"
     inkscape:window-x="-8"
     inkscape:window-y="-8"
     inkscape:window-maximized="1"
     inkscape:current-layer="layer1" />
  <defs
     id="defs69794" />
  <g
     inkscape:label="Ebene 1"
     inkscape:groupmode="layer"
     id="layer1"
     transform="translate(68.14695,27.45466)">
    <g
       transform="matrix(0.26458333,0,0,0.26458333,-150.77979,-89.168193)"
       id="g402"
       style="clip-rule:evenodd;fill-rule:evenodd;stroke-linecap:round;stroke-linejoin:round;stroke-miterlimit:1.5">
      <g
         transform="matrix(-0.998597,-0.0529609,-0.0494168,0.931772,1672.69,340.189)"
         id="g4">
        <path
           d="m 365.162,316.426 c 0.442,4.663 -30.54,-15.516 -31.821,-23.189 -0.039,-0.234 -1.028,-1.478 -1.451,-1.055 -2.967,2.968 -6.547,9.089 -8.045,13.586 -1.098,3.292 -1.686,7.781 -0.924,11.211 0.175,0.786 0.324,2.435 0.924,3.034 0.613,0.614 4.122,-0.098 4.88,0.66 0.208,0.208 -2.423,0.517 -2.506,0.527 -1.263,0.158 -4.381,1.104 -3.825,2.77 1.103,3.31 1.222,7.02 2.242,10.42 1.192,3.973 7.015,12.814 6.395,20.116 -0.444,5.243 5.062,7.975 8.905,5.868 1.468,-0.805 27.118,-21.236 30.601,-21.236 z"
           style="fill:#8e3e00"
           id="path2" />
      </g>
      <g
         transform="matrix(-0.998597,-0.0529609,-0.0529609,0.998597,1686.33,23.3714)"
         id="g8">
        <path
           d="m 319.836,605.51 c 0.217,-1.101 0.508,-2.158 0.847,-3.108 1.499,-4.196 5.079,-9.908 8.046,-12.677 0.423,-0.394 1.412,0.766 1.451,0.985 1.28,7.159 32.263,25.987 31.821,21.636 l 1.891,7.457 c -16.457,1.164 -32.047,-4.115 -44.056,-14.293 z"
           style="fill:#b56b31"
           id="path6" />
      </g>
      <g
         transform="matrix(-0.998597,-0.0529609,-0.0529609,0.998597,1680.51,325.093)"
         id="g12">
        <path
           d="m 430.962,271.722 c -8.218,4.842 -11.785,43.347 -31.525,42.599 -11.382,-0.431 -8.545,19.265 2.421,22.568 12.332,3.715 20.677,30.01 23.15,45.265 0.291,-1.214 21.136,-119.376 5.954,-110.432 z"
           style="fill:#8e3e00"
           id="path10" />
      </g>
      <g
         transform="matrix(-0.998597,-0.0529609,-0.0529609,0.998597,1686.33,23.3714)"
         id="g16">
        <path
           d="m 382.899,620.589 c -0.864,5.332 1.61,15.745 8.788,17.907 12.332,3.715 20.678,30.009 23.151,45.264 0.083,-0.349 1.695,-10.221 3.584,-23.887 -5.837,-12.266 -12.574,-27.074 -22.38,-28.494 -6.607,-0.956 -11.773,-6.115 -13.143,-10.79 z"
           style="fill:#b56b31"
           id="path14" />
      </g>
      <g
         transform="matrix(-0.998597,-0.0529609,-0.0529609,0.998597,1676.82,321.456)"
         id="g20">
        <path
           d="m 392.696,316.32 c -1.669,-3.941 -12.28,-8.313 -14.641,-7.65 -8.394,2.355 -13.621,5.088 -14.773,13.058 -0.223,1.547 2.101,11.527 3.825,14.113 1.996,2.993 7.403,5.78 10.816,6.463 3.533,0.707 5.043,-0.907 7.65,-2.77 6.922,-4.944 10.458,-14.877 7.123,-23.214 z"
           style="fill:#8e3e00"
           id="path18" />
      </g>
      <g
         transform="matrix(-0.744648,0.236413,0.198452,0.62508,1502.63,335.73)"
         id="g24">
        <path
           d="m 398.779,317.983 c 0.592,0.086 -7.333,19.11 -16.291,21.488 -3.097,0.822 5.82,5.667 8.082,3.642 6.891,-6.167 11.543,-16.793 8.209,-25.13 z"
           style="fill:#b56b31"
           id="path22" />
      </g>
      <g
         transform="matrix(-0.998597,-0.0529609,-0.0529609,0.998597,1680.47,321.061)"
         id="g28">
        <path
           d="m 374.707,339.989 c -11.715,-18.777 8.806,-37.143 22.324,-20.875 -0.188,-0.745 -0.426,-1.482 -0.716,-2.206 -1.669,-3.941 -12.28,-8.313 -14.641,-7.65 -8.394,2.355 -13.621,5.087 -14.772,13.058 -0.224,1.547 2.101,11.527 3.825,14.113 0.848,1.272 2.314,2.508 3.98,3.56 z"
           style="fill:#6d3001"
           id="path26" />
      </g>
      <g
         transform="matrix(-0.905467,0.388758,0.336116,0.735274,1518.46,342.31)"
         id="g32">
        <path
           d="m 370,315.975 c 0.442,4.663 -35.378,-15.065 -36.659,-22.738 -0.039,-0.234 -0.864,-1.172 -1.451,-1.055 -4.644,0.932 -5.808,10.059 -5.675,17.002 0.094,4.965 2.826,6.224 1.203,5.95 -2.558,-0.431 -5.395,5.547 -2.653,13.56 0.261,0.762 0.325,2.435 0.924,3.034 0.614,0.614 2.457,1.177 2.374,1.187 -1.263,0.158 -4.38,1.104 -3.825,2.77 1.103,3.31 1.222,7.02 2.242,10.42 2.044,6.815 3.192,1.751 4.355,8.729 0.529,3.172 2.3,5.315 4.617,6.859 0.685,0.457 1.333,1.843 2.374,1.583 2.007,-0.502 1.254,-1.19 2.11,-2.902 0.749,-1.497 28.297,-26.463 31.78,-26.463 z"
           style="fill:#5b0909"
           id="path30" />
      </g>
      <g
         transform="matrix(-0.905467,0.388758,0.336116,0.735274,1372.44,49.0412)"
         id="g36">
        <path
           d="m 359.812,729.541 c -11.515,0.114 -44.539,-10.7 -44.633,-15.666 -0.133,-6.942 1.031,-16.07 5.675,-17.001 0.587,-0.118 1.412,0.821 1.451,1.055 1.281,7.673 37.101,27.401 36.659,22.738 z"
           style="fill:#894646"
           id="path34" />
      </g>
      <g
         transform="matrix(-1.08734,-0.319678,0.244413,-0.874071,1602.83,921.461)"
         id="g40">
        <path
           d="m 365.162,316.426 c 0.442,4.663 -30.54,-15.516 -31.821,-23.189 -0.039,-0.234 -1.028,-1.478 -1.451,-1.055 -2.967,2.968 -6.547,9.089 -8.045,13.586 -1.098,3.292 -1.686,7.781 -0.924,11.211 0.175,0.786 0.324,2.435 0.924,3.034 0.613,0.614 4.122,-0.098 4.88,0.66 0.208,0.208 -2.423,0.517 -2.506,0.527 -1.263,0.158 -4.381,1.104 -3.825,2.77 1.103,3.31 1.222,7.02 2.242,10.42 2.044,6.814 4.973,13.477 6.199,20.444 0.773,4.388 3.199,10.927 4.507,8.963 3.836,-5.758 33.236,-30.228 35.195,-24.659 z"
           style="fill:#5b0909"
           id="path38" />
      </g>
      <g
         transform="matrix(-0.964002,-0.0628309,-0.0648725,0.995326,1675.32,30.6273)"
         id="g44">
        <path
           d="m 324.746,500.677 c 0.092,-1.007 0.148,-2.013 0.156,-3.015 0.035,-4.099 1.546,-10.525 3.424,-9.102 5.507,4.172 43.898,18.642 45.062,13.196 l -0.283,3.48 c -17.318,9.422 -39.695,10.183 -48.359,-4.559 z"
           style="fill:#894646"
           id="path42" />
      </g>
      <g
         transform="matrix(-0.966056,-0.258331,-0.222361,0.831542,1720.47,248.277)"
         id="g48">
        <path
           d="m 365.162,316.426 c 0.442,4.663 -30.54,-15.516 -31.821,-23.189 -0.039,-0.234 -1.028,-1.478 -1.451,-1.055 -2.967,2.968 -6.547,9.089 -8.045,13.586 -1.098,3.292 -1.686,7.781 -0.924,11.211 0.175,0.786 0.324,2.435 0.924,3.034 0.613,0.614 4.122,-0.098 4.88,0.66 0.208,0.208 -2.423,0.517 -2.506,0.527 -1.263,0.158 -4.381,1.104 -3.825,2.77 1.103,3.31 1.222,7.02 2.242,10.42 2.044,6.814 5.036,13.466 6.199,20.444 0.529,3.172 2.3,5.315 4.617,6.859 0.685,0.457 1.333,1.843 2.374,1.583 2.007,-0.502 1.254,-1.19 2.11,-2.902 0.749,-1.497 27.118,-21.236 30.601,-21.236 z"
           style="fill:#8e3e00"
           id="path46" />
      </g>
      <g
         transform="matrix(-1,0,0,1,1661.33,504.334)"
         id="g52">
        <path
           d="m 365.162,316.426 c 0.442,4.663 -30.54,-15.516 -31.821,-23.189 -0.039,-0.234 -1.028,-1.478 -1.451,-1.055 -2.967,2.968 -6.547,9.089 -8.045,13.586 -1.098,3.292 -0.437,14.178 0.325,17.608 0.175,0.786 0.324,2.435 0.924,3.034 0.613,0.614 4.122,-0.098 4.88,0.66 0.208,0.208 -2.423,0.517 -2.506,0.527 -1.263,0.158 -4.38,1.104 -3.825,2.77 1.103,3.31 -0.027,0.623 0.993,4.023 2.044,6.814 3.045,8.815 4.208,15.793 0.529,3.172 2.3,5.315 4.617,6.859 0.685,0.457 1.333,1.843 2.374,1.583 2.008,-0.502 1.254,-1.19 2.111,-2.902 0.748,-1.497 25.226,-22.695 28.709,-22.695 z"
           style="fill:#8e3e00"
           id="path50" />
      </g>
      <g
         transform="matrix(-1,0,0,1,1650.38,-2.7385)"
         id="g56">
        <path
           d="m 312.678,813.688 c 0.22,0.179 0.372,0.342 0.39,0.412 1.526,6.034 33.008,20.391 42.28,22.038 l -1.137,-12.64 c 0.442,4.663 -30.541,-15.515 -31.821,-23.188 -0.039,-0.235 -1.028,-1.478 -1.451,-1.055 -2.967,2.967 -6.547,9.089 -8.046,13.585 -0.081,0.243 -0.152,0.528 -0.215,0.848 z"
           style="fill:#b56b31"
           id="path54" />
      </g>
      <g
         transform="matrix(-1,0,0,0.892053,1660.51,33.7692)"
         id="g60">
        <path
           d="m 365.162,316.426 c 0.442,4.663 -30.54,-15.516 -31.821,-23.189 -0.039,-0.234 -1.028,-1.478 -1.451,-1.055 -2.967,2.968 -6.547,9.089 -8.045,13.586 -1.098,3.292 -1.686,7.781 -0.924,11.211 0.175,0.786 0.324,2.435 0.924,3.034 0.613,0.614 4.122,-0.098 4.88,0.66 0.208,0.208 -2.423,0.517 -2.506,0.527 -1.263,0.158 -4.381,1.104 -3.825,2.77 1.103,3.31 1.222,7.02 2.242,10.42 2.044,6.814 5.036,13.466 6.199,20.444 0.529,3.172 2.3,5.315 4.617,6.859 0.685,0.457 1.333,1.843 2.374,1.583 2.007,-0.502 1.254,-1.19 2.11,-2.902 0.749,-1.497 27.118,-21.236 30.601,-21.236 z"
           style="fill:#5b0909"
           id="path58" />
      </g>
      <g
         transform="matrix(-1,0,0,1,1664.55,-2.28117)"
         id="g64">
        <path
           d="m 332.309,300.864 c 0.413,0.262 0.842,0.678 0.822,0.799 -3.151,19.164 33.286,28.479 38.066,21.65 l -1.993,-4.994 c 0.442,4.16 -30.54,-13.841 -31.821,-20.685 -0.039,-0.21 -1.028,-1.319 -1.451,-0.942 -1.167,1.042 -2.43,2.519 -3.623,4.172 z"
           style="fill:#894646"
           id="path62" />
      </g>
      <g
         transform="matrix(-1,0,0,1,1667.33,499.939)"
         id="g68">
        <path
           d="m 425.072,364.244 c 0,0 12.189,-80.385 5.547,-82.164 -16.3,-4.365 -14.506,42.346 -34.247,41.598 -11.382,-0.431 -3.343,7.764 7.623,11.067 12.332,3.715 6.364,28.666 21.077,29.499 z"
           style="fill:#8e3e00"
           id="path66" />
      </g>
      <g
         transform="matrix(-1,0,0,1,1650.38,-2.7385)"
         id="g72">
        <path
           d="m 376.887,826.429 c -7.43,0.881 0.143,7.977 10.157,10.993 12.332,3.715 6.364,28.666 21.077,29.499 0,0 0.623,-2.905 1.564,-7.562 -7.589,-3.272 -7.767,-24.442 -18.52,-26.047 -7.302,-1.09 -13.693,-4.367 -14.278,-6.883 z"
           style="fill:#b56b31"
           id="path70" />
      </g>
      <g
         transform="matrix(-1,0,0,0.969133,1666.33,411.461)"
         id="g76">
        <path
           d="m 432.913,280.414 c -15.24,-3.585 -16.8,44.012 -36.541,43.264 -11.382,-0.431 -3.343,7.764 7.623,11.067 10.14,3.054 21.136,33.057 24.566,48.222 0.742,3.279 3.725,-0.832 4.054,-0.701 0,0 6.992,-100.278 0.298,-101.852 z"
           style="fill:#5b0909"
           id="path74" />
      </g>
      <g
         transform="matrix(-1,0,0,0.969133,1652.77,21.7326)"
         id="g80">
        <path
           d="m 377.816,729.367 c 1.604,2.51 6.682,5.732 12.618,7.519 10.14,3.055 20.894,33.452 24.324,48.617 0.742,3.278 3.967,-1.226 4.296,-1.096 0,0 0.258,-4.103 0.609,-10.638 -7.075,-14.265 -18.514,-40.059 -28.582,-40.644 -5.564,-0.322 -10.722,-1.933 -13.265,-3.758 z"
           style="fill:#894646"
           id="path78" />
      </g>
      <g
         transform="matrix(-0.964002,-0.0628309,-0.0648725,0.995326,1668.81,231.184)"
         id="g84">
        <path
           d="m 428.74,269.403 c -12.313,8.957 -10.319,42.233 -30.06,41.485 -11.382,-0.431 -3.343,7.764 7.622,11.067 12.333,3.715 15.02,31.33 17.493,46.585 8.727,0.149 12.396,-104.558 4.945,-99.137 z"
           style="fill:#5b0909"
           id="path82" />
      </g>
      <g
         transform="matrix(-0.964002,-0.0628309,-0.0648725,0.995326,1675.32,30.6273)"
         id="g88">
        <path
           d="m 420.698,561.901 c -0.359,0.4 -0.734,0.608 -1.125,0.601 -1.807,-11.149 -3.729,-28.899 -9.447,-39.097 -2.105,-3.756 -4.726,-6.487 -8.046,-7.487 -3.318,-1 -6.368,-2.447 -8.692,-3.968 -0.484,0.025 -0.979,0.029 -1.488,0.009 -11.382,-0.431 -3.343,7.764 7.622,11.067 12.333,3.715 15.02,31.33 17.493,46.584 1.446,0.025 2.674,-2.876 3.683,-7.709 z m -6.693,-78.991 c -0.694,1.994 -1.395,3.989 -2.145,5.92 0.7,-2.011 1.401,-4.008 2.145,-5.92 z"
           style="fill:#894646"
           id="path86" />
      </g>
      <g
         transform="matrix(-1,0,0,-1.01274,1668.08,743.525)"
         id="g92">
        <path
           d="m 432.13,268.86 c -9.207,12.127 -16.639,50.24 -36.38,49.493 -11.382,-0.431 -1.983,10.023 8.982,13.327 12.333,3.714 22.658,15.713 25.131,30.968 0,0 7.318,4.876 8.15,-18.199 0.967,-26.775 -3.649,-78.531 -5.883,-75.589 z"
           style="fill:#8e3e00"
           id="path90" />
      </g>
      <g
         transform="matrix(-1,0,0,1,1666.32,-2.27981)"
         id="g96">
        <path
           d="m 390.912,417.116 c 0.593,0.925 2.13,1.464 4.883,1.359 19.74,-0.758 26.647,37.772 35.855,50.053 0.15,0.201 0.333,0.164 0.541,-0.09 -0.998,3.731 -1.841,5.679 -2.34,5.013 -9.207,-12.281 -16.114,-50.811 -35.855,-50.053 -6.283,0.241 -6.234,-2.878 -3.084,-6.282 z"
           style="fill:#b56b31"
           id="path94" />
      </g>
      <g
         transform="matrix(-1,0,0,1,1666.32,-2.27981)"
         id="g100">
        <path
           d="m 326.66,421.501 c 0.01,-0.116 0.021,-0.231 0.034,-0.344 0.448,-4.127 2.544,-10.142 4.751,-13.376 0.315,-0.461 1.547,0.318 1.637,0.503 2.943,6.049 37.361,14.825 35.897,11.062 l 3.018,5.157 c -6.299,6.559 -33.614,7.833 -43.109,-0.743 -0.835,-0.754 -1.572,-1.503 -2.228,-2.259 z"
           style="fill:#b56b31"
           id="path98" />
      </g>
      <g
         transform="matrix(-1,0,0,1,1665.13,-2.3807)"
         id="g104">
        <path
           d="m 425.309,289.649 c -7.633,10.053 -8.93,27.339 -20.399,32.53 -2.365,1.071 -5.162,1.627 -8.538,1.499 -11.382,-0.431 -3.343,7.764 7.623,11.067 8.831,2.66 15.524,14.439 19.521,26.515 1.585,4.787 2.746,9.622 3.448,13.952 0,0 7.231,-3.009 7.677,-12.481 1.175,-24.943 -6.318,-77.052 -9.332,-73.082 z"
           style="fill:#5b0909"
           id="path102" />
      </g>
      <g
         transform="matrix(-1,0,0,1,1664.55,-2.28117)"
         id="g108">
        <path
           d="m 391.997,323.898 c -5.182,1.536 2.049,7.926 11.415,10.747 12.332,3.715 21.093,25.362 23.566,40.617 l -2.943,-8.533 c -2.473,-15.255 -8.287,-33.019 -20.62,-36.733 -4.859,-1.464 -9.144,-3.889 -11.418,-6.098 z"
           style="fill:#894646"
           id="path106" />
      </g>
      <g
         transform="matrix(-1,0,0,1,1660.93,-1.69337)"
         id="g112">
        <path
           d="m 392.696,316.32 c -1.669,-3.941 -12.28,-8.313 -14.641,-7.65 -8.394,2.355 -13.621,5.088 -14.773,13.058 -0.223,1.547 2.101,11.527 3.825,14.113 1.996,2.993 7.403,5.78 10.816,6.463 3.533,0.707 5.043,-0.907 7.65,-2.77 6.922,-4.944 10.458,-14.877 7.123,-23.214 z"
           style="fill:#5b0909"
           id="path110" />
      </g>
      <g
         transform="matrix(-0.964002,-0.0628309,-0.0648725,0.995326,1661.6,218.764)"
         id="g116">
        <path
           d="m 392.696,316.32 c -1.669,-3.941 -12.28,-8.313 -14.641,-7.65 -8.394,2.355 -13.621,5.088 -14.773,13.058 -0.223,1.547 2.101,11.527 3.825,14.113 1.996,2.993 7.403,5.78 10.816,6.463 3.533,0.707 5.043,-0.907 7.65,-2.77 6.922,-4.944 10.458,-14.877 7.123,-23.214 z"
           style="fill:#5b0909"
           id="path114" />
      </g>
      <g
         transform="matrix(-1,0,0,0.969133,1663.13,411.548)"
         id="g120">
        <path
           d="m 392.696,316.32 c -1.669,-3.941 -12.28,-8.313 -14.641,-7.65 -8.394,2.355 -13.621,5.088 -14.773,13.058 -0.223,1.547 2.101,11.527 3.825,14.113 1.996,2.993 7.403,5.78 10.816,6.463 3.533,0.707 5.043,-0.907 7.65,-2.77 6.922,-4.944 10.458,-14.877 7.123,-23.214 z"
           style="fill:#5b0909"
           id="path118" />
      </g>
      <g
         transform="matrix(-1,0,0,1,1662.88,505.733)"
         id="g124">
        <path
           d="m 392.696,316.32 c -1.669,-3.941 -12.28,-8.313 -14.641,-7.65 -8.394,2.355 -13.621,5.088 -14.773,13.058 -0.223,1.547 2.101,11.527 3.825,14.113 1.996,2.993 7.403,5.78 10.816,6.463 3.533,0.707 5.043,-0.907 7.65,-2.77 6.922,-4.944 10.458,-14.877 7.123,-23.214 z"
           style="fill:#8e3e00"
           id="path122" />
      </g>
      <g
         transform="matrix(-0.865518,-0.500878,-0.500878,0.865518,1773.85,328.47)"
         id="g128">
        <path
           d="m 392.696,316.32 c -1.669,-3.941 -12.28,-8.313 -14.641,-7.65 -8.394,2.355 -13.621,5.088 -14.773,13.058 -0.223,1.547 2.101,11.527 3.825,14.113 1.996,2.993 7.403,5.78 10.816,6.463 3.533,0.707 5.043,-0.907 7.65,-2.77 6.922,-4.944 10.458,-14.877 7.123,-23.214 z"
           style="fill:#8e3e00"
           id="path126" />
      </g>
      <g
         transform="matrix(-0.731082,0.275518,0.231278,0.613693,1487.74,21.7861)"
         id="g132">
        <path
           d="m 398.779,317.983 c 0.592,0.086 -7.333,19.11 -16.291,21.488 -3.097,0.822 5.82,5.667 8.082,3.642 6.891,-6.167 11.543,-16.793 8.209,-25.13 z"
           style="fill:#894646"
           id="path130" />
      </g>
      <g
         transform="matrix(-0.722638,0.228296,0.183141,0.625355,1493.12,231.252)"
         id="g136">
        <path
           d="m 398.779,317.983 c 0.592,0.086 -7.333,19.11 -16.291,21.488 -3.097,0.822 5.82,5.667 8.082,3.642 6.891,-6.167 11.543,-16.793 8.209,-25.13 z"
           style="fill:#894646"
           id="path134" />
      </g>
      <g
         transform="matrix(-0.731082,0.267014,0.231278,0.59475,1489.94,434.303)"
         id="g140">
        <path
           d="m 398.779,317.983 c 0.592,0.086 -7.333,19.11 -16.291,21.488 -3.097,0.822 5.82,5.667 8.082,3.642 6.891,-6.167 11.543,-16.793 8.209,-25.13 z"
           style="fill:#894646"
           id="path138" />
      </g>
      <g
         transform="matrix(-0.731082,0.275518,0.231278,0.613693,1489.69,529.213)"
         id="g144">
        <path
           d="m 398.779,317.983 c 0.592,0.086 -7.333,19.11 -16.291,21.488 -3.097,0.822 5.82,5.667 8.082,3.642 6.891,-6.167 11.543,-16.793 8.209,-25.13 z"
           style="fill:#b56b31"
           id="path142" />
      </g>
      <g
         transform="matrix(-0.770766,-0.127717,-0.10721,0.647004,1612.19,262.045)"
         id="g148">
        <path
           d="m 398.779,317.983 c 0.592,0.086 -7.333,19.11 -16.291,21.488 -3.097,0.822 5.82,5.667 8.082,3.642 6.891,-6.167 11.543,-16.793 8.209,-25.13 z"
           style="fill:#b56b31"
           id="path146" />
      </g>
      <g
         transform="matrix(-1,0,0,1,1664.55,-2.28117)"
         id="g152">
        <path
           d="m 374.707,339.989 c -11.715,-18.777 8.806,-37.143 22.324,-20.875 -0.188,-0.745 -0.426,-1.482 -0.716,-2.206 -1.669,-3.941 -12.28,-8.313 -14.641,-7.65 -8.394,2.355 -13.621,5.087 -14.772,13.058 -0.224,1.547 2.101,11.527 3.825,14.113 0.848,1.272 2.314,2.508 3.98,3.56 z"
           style="fill:#3d0606"
           id="path150" />
      </g>
      <g
         transform="matrix(-0.964002,-0.0628309,-0.0648725,0.995326,1665.13,218.407)"
         id="g156">
        <path
           d="m 374.707,339.989 c -11.715,-18.777 8.806,-37.143 22.324,-20.875 -0.188,-0.745 -0.426,-1.482 -0.716,-2.206 -1.669,-3.941 -12.28,-8.313 -14.641,-7.65 -8.394,2.355 -13.621,5.087 -14.772,13.058 -0.224,1.547 2.101,11.527 3.825,14.113 0.848,1.272 2.314,2.508 3.98,3.56 z"
           style="fill:#3d0606"
           id="path154" />
      </g>
      <g
         transform="matrix(-1,0,0,0.969133,1666.75,410.979)"
         id="g160">
        <path
           d="m 374.707,339.989 c -11.715,-18.777 8.806,-37.143 22.324,-20.875 -0.188,-0.745 -0.426,-1.482 -0.716,-2.206 -1.669,-3.941 -12.28,-8.313 -14.641,-7.65 -8.394,2.355 -13.621,5.087 -14.772,13.058 -0.224,1.547 2.101,11.527 3.825,14.113 0.848,1.272 2.314,2.508 3.98,3.56 z"
           style="fill:#3d0606"
           id="path158" />
      </g>
      <g
         transform="matrix(-1,0,0,1,1666.5,505.146)"
         id="g164">
        <path
           d="m 374.707,339.989 c -11.715,-18.777 8.806,-37.143 22.324,-20.875 -0.188,-0.745 -0.426,-1.482 -0.716,-2.206 -1.669,-3.941 -12.28,-8.313 -14.641,-7.65 -8.394,2.355 -13.621,5.087 -14.772,13.058 -0.224,1.547 2.101,11.527 3.825,14.113 0.848,1.272 2.314,2.508 3.98,3.56 z"
           style="fill:#6d3001"
           id="path162" />
      </g>
      <g
         transform="matrix(-0.865518,-0.500878,-0.500878,0.865518,1777.28,329.774)"
         id="g168">
        <path
           d="m 374.707,339.989 c -11.715,-18.777 8.806,-37.143 22.324,-20.875 -0.188,-0.745 -0.426,-1.482 -0.716,-2.206 -1.669,-3.941 -12.28,-8.313 -14.641,-7.65 -8.394,2.355 -13.621,5.087 -14.772,13.058 -0.224,1.547 2.101,11.527 3.825,14.113 0.848,1.272 2.314,2.508 3.98,3.56 z"
           style="fill:#6d3001"
           id="path166" />
      </g>
      <g
         transform="matrix(-0.998597,-0.0529609,-0.0529609,0.998597,1472.35,7.60605)"
         id="g172">
        <path
           d="m 147.086,663.098 c -1.874,0.552 -1.74,-0.272 -3.462,0.302"
           style="fill:none"
           id="path170" />
      </g>
      <g
         transform="matrix(1,0,0,0.933082,-3.16113,317.095)"
         id="g176">
        <path
           d="m 365.162,316.426 c 0.442,4.663 -30.54,-15.516 -31.821,-23.189 -0.039,-0.234 -1.028,-1.478 -1.451,-1.055 -2.967,2.968 -6.547,9.089 -8.045,13.586 -1.098,3.292 -1.686,7.781 -0.924,11.211 0.175,0.786 0.324,2.435 0.924,3.034 0.613,0.614 4.122,-0.098 4.88,0.66 0.208,0.208 -2.423,0.517 -2.506,0.527 -1.263,0.158 -4.381,1.104 -3.825,2.77 1.103,3.31 1.222,7.02 2.242,10.42 1.192,3.973 7.015,12.814 6.395,20.116 -0.444,5.243 5.062,7.975 8.905,5.868 1.468,-0.805 27.118,-21.236 30.601,-21.236 z"
           style="fill:#2c6532"
           id="path174" />
      </g>
      <path
         d="m 319.836,605.51 c 0.217,-1.101 0.508,-2.158 0.847,-3.108 1.499,-4.196 5.079,-9.908 8.046,-12.677 0.423,-0.394 1.412,0.766 1.451,0.985 1.28,7.159 32.263,25.987 31.821,21.636 l 1.891,7.457 c -16.457,1.164 -32.047,-4.115 -44.056,-14.293 z"
         style="fill:#527455"
         id="path178" />
      <g
         transform="translate(-10.1705,301.606)"
         id="g182">
        <path
           d="m 430.962,271.722 c -8.218,4.842 -11.785,43.347 -31.525,42.599 -11.382,-0.431 -6.408,17.121 4.558,20.424 12.332,3.715 20.677,30.009 23.15,45.264 0.291,-1.214 18.999,-117.231 3.817,-108.287 z"
           style="fill:#2c6532"
           id="path180" />
      </g>
      <path
         d="m 382.899,620.589 c -0.864,5.332 3.747,13.6 10.925,15.762 12.332,3.715 20.678,30.01 23.151,45.265 0.083,-0.35 1.695,-10.222 3.584,-23.888 -5.837,-12.266 -14.711,-24.929 -24.517,-26.349 -6.607,-0.956 -11.773,-6.115 -13.143,-10.79 z m 42.038,-45.374 c 0.93,2.187 1.456,5.778 1.672,10.346 -0.424,-3.996 -0.973,-7.512 -1.672,-10.346 z"
         style="fill:#527455"
         id="path184" />
      <g
         transform="translate(-6.29039,298.17)"
         id="g188">
        <path
           d="m 392.696,316.32 c -1.669,-3.941 -12.28,-8.313 -14.641,-7.65 -8.394,2.355 -13.621,5.088 -14.773,13.058 -0.223,1.547 2.101,11.527 3.825,14.113 1.996,2.993 7.403,5.78 10.816,6.463 3.533,0.707 5.043,-0.907 7.65,-2.77 6.922,-4.944 10.458,-14.877 7.123,-23.214 z"
           style="fill:#2c6532"
           id="path186" />
      </g>
      <g
         transform="matrix(0.731082,0.275518,-0.231278,0.613693,166.899,321.649)"
         id="g192">
        <path
           d="m 398.779,317.983 c 0.592,0.086 -7.333,19.11 -16.291,21.488 -3.097,0.822 5.82,5.667 8.082,3.642 6.891,-6.167 11.543,-16.793 8.209,-25.13 z"
           style="fill:#527455"
           id="path190" />
      </g>
      <g
         transform="translate(-9.90973,297.582)"
         id="g196">
        <path
           d="m 374.707,339.989 c -11.715,-18.777 8.806,-37.143 22.324,-20.875 -0.188,-0.745 -0.426,-1.482 -0.716,-2.206 -1.669,-3.941 -12.28,-8.313 -14.641,-7.65 -8.394,2.355 -13.621,5.087 -14.772,13.058 -0.224,1.547 2.101,11.527 3.825,14.113 0.848,1.272 2.314,2.508 3.98,3.56 z"
           style="fill:#365439"
           id="path194" />
      </g>
      <g
         transform="matrix(1.00935,0,0,1,0.324246,-12.5878)"
         id="g200">
        <path
           id="path198"
           style="color:#000000;clip-rule:nonzero;fill:#ffffff;fill-rule:nonzero;stroke-width:1.00466;stroke-linecap:butt;stroke-linejoin:miter;-inkscape-stroke:none"
           d="m 135.05469,451.52734 c -0.80467,1.89362 -1.68884,3.98719 -2.39453,5.91797 -0.70571,1.93078 -1.30664,3.50339 -1.30664,5.34766 0,1.54703 1.20531,2.71428 2.03906,3.15625 0.83374,0.44197 1.58764,0.60298 2.39844,0.73828 1.62158,0.2706 3.46841,0.31316 5.38671,0.2832 0.4987,-0.008 0.99916,-0.021 1.4961,-0.0391 0.32696,4.8232 0.61133,9.59002 0.61133,10.97266 8.3e-4,1.50728 1.23448,2.72869 2.75586,2.72851 1.52138,1.8e-4 2.75503,-1.22123 2.75586,-2.72851 0,-1.99182 -0.29307,-6.57561 -0.62305,-11.33789 0.91637,-0.0855 1.71407,-0.16904 2.16211,-0.22461 1.51019,-0.18758 2.5802,-1.55266 2.39062,-3.04883 -0.18935,-1.49534 -1.56478,-2.55579 -3.07422,-2.36914 -0.34454,0.0427 -1.0459,0.11479 -1.86718,0.1914 -0.29974,-4.12328 -0.56446,-7.625 -0.56446,-7.625 -0.11717,-1.50305 -1.44186,-2.62749 -2.95898,-2.51171 -1.51706,0.11512 -2.65284,1.42664 -2.53711,2.92968 0,0 0.266,3.47711 0.56445,7.57227 -0.4019,0.014 -0.80288,0.0251 -1.19726,0.0312 -1.52121,0.0238 -2.82307,-0.0586 -3.81836,-0.17969 0.16108,-0.66294 0.19891,-1.01654 0.56836,-2.02734 0.63562,-1.73906 1.49359,-3.77247 2.29492,-5.65821 0.80132,-1.88575 1.53715,-3.593 1.99805,-4.91796 0.23044,-0.66249 0.47876,-0.9925 0.45898,-2.16407 -4.11667,-8.07505 -7.25705,4.3014 -7.53906,4.96298 z"
           transform="matrix(0.99073661,0,0,1,194.77362,172.2628)"
           sodipodi:nodetypes="cssssccccccccscccccccssscc" />
      </g>
      <g
         transform="matrix(1.00935,0,0,1,0.580097,-10.8975)"
         id="g204" />
      <g
         transform="matrix(0.905467,0.40114,-0.336116,0.758693,134.307,330.788)"
         id="g208">
        <path
           d="m 370,315.975 c 0.442,4.663 -35.378,-15.065 -36.659,-22.738 -0.039,-0.234 -0.864,-1.172 -1.451,-1.055 -4.644,0.932 -5.808,10.059 -5.675,17.002 0.094,4.965 2.826,6.224 1.203,5.95 -2.558,-0.431 -5.395,5.547 -2.653,13.56 0.261,0.762 0.325,2.435 0.924,3.034 0.614,0.614 2.457,1.177 2.374,1.187 -1.263,0.158 -4.38,1.104 -3.825,2.77 1.103,3.31 1.222,7.02 2.242,10.42 2.044,6.815 3.192,1.751 4.355,8.729 0.529,3.172 2.3,5.315 4.617,6.859 0.685,0.457 1.333,1.843 2.374,1.583 2.007,-0.502 1.254,-1.19 2.11,-2.902 0.749,-1.497 28.297,-26.463 31.78,-26.463 z"
           style="fill:#16411a"
           id="path206" />
      </g>
      <g
         transform="matrix(0.905467,0.40114,-0.336116,0.758693,280.323,28.1784)"
         id="g212">
        <path
           d="m 359.812,729.541 c -11.515,0.114 -44.539,-10.7 -44.633,-15.666 -0.133,-6.942 1.031,-16.07 5.675,-17.001 0.587,-0.118 1.412,0.821 1.451,1.055 1.281,7.673 37.101,27.401 36.659,22.738 z"
           style="fill:#365439"
           id="path210" />
      </g>
      <g
         transform="matrix(1.1447,-0.248919,-0.193621,-0.890398,14.8994,895.957)"
         id="g216">
        <path
           d="m 365.162,316.426 c 0.442,4.663 -30.54,-15.516 -31.821,-23.189 -0.039,-0.234 -1.028,-1.478 -1.451,-1.055 -2.967,2.968 -6.547,9.089 -8.045,13.586 -1.098,3.292 -1.686,7.781 -0.924,11.211 0.175,0.786 0.324,2.435 0.924,3.034 0.613,0.614 4.122,-0.098 4.88,0.66 0.208,0.208 -2.423,0.517 -2.506,0.527 -1.263,0.158 -4.381,1.104 -3.825,2.77 1.103,3.31 1.222,7.02 2.242,10.42 2.044,6.814 4.973,13.477 6.199,20.444 0.773,4.388 3.199,10.927 4.507,8.963 3.836,-5.758 33.236,-30.228 35.195,-24.659 z"
           style="fill:#16411a"
           id="path214" />
      </g>
      <path
         d="m 324.746,500.677 c 0.092,-1.007 0.148,-2.013 0.156,-3.015 0.035,-4.099 1.546,-10.525 3.424,-9.102 5.507,4.172 43.898,18.642 45.062,13.196 l -0.283,3.48 c -17.318,9.422 -39.695,10.183 -48.359,-4.559 z"
         style="fill:#365439"
         id="path218" />
      <g
         transform="matrix(0.966056,-0.258331,0.222361,0.831542,-54.1493,250.557)"
         id="g222">
        <path
           d="m 365.162,316.426 c 0.442,4.663 -30.54,-15.516 -31.821,-23.189 -0.039,-0.234 -1.028,-1.478 -1.451,-1.055 -2.967,2.968 -6.547,9.089 -8.045,13.586 -1.098,3.292 -1.686,7.781 -0.924,11.211 0.175,0.786 0.324,2.435 0.924,3.034 0.613,0.614 4.122,-0.098 4.88,0.66 0.208,0.208 -2.423,0.517 -2.506,0.527 -1.263,0.158 -4.381,1.104 -3.825,2.77 1.103,3.31 1.222,7.02 2.242,10.42 2.044,6.814 5.036,13.466 6.199,20.444 0.529,3.172 2.3,5.315 4.617,6.859 0.685,0.457 1.333,1.843 2.374,1.583 2.007,-0.502 1.254,-1.19 2.11,-2.902 0.749,-1.497 27.118,-21.236 30.601,-21.236 z"
           style="fill:#2c6532"
           id="path220" />
      </g>
      <g
         transform="translate(-10.9512,507.072)"
         id="g226">
        <path
           d="m 365.162,316.426 c 0.442,4.663 -30.54,-15.516 -31.821,-23.189 -0.039,-0.234 -1.028,-1.478 -1.451,-1.055 -2.967,2.968 -6.547,9.089 -8.045,13.586 -1.098,3.292 -0.437,14.178 0.325,17.608 0.175,0.786 0.324,2.435 0.924,3.034 0.613,0.614 4.122,-0.098 4.88,0.66 0.208,0.208 -2.423,0.517 -2.506,0.527 -1.263,0.158 -4.38,1.104 -3.825,2.77 1.103,3.31 -0.027,0.623 0.993,4.023 2.044,6.814 3.045,8.815 4.208,15.793 0.529,3.172 2.3,5.315 4.617,6.859 0.685,0.457 1.333,1.843 2.374,1.583 2.008,-0.502 1.254,-1.19 2.111,-2.902 0.748,-1.497 25.226,-22.695 28.709,-22.695 z"
           style="fill:#2c6532"
           id="path224" />
      </g>
      <path
         d="m 312.678,813.688 c 0.22,0.179 0.372,0.342 0.39,0.412 1.526,6.034 33.008,20.391 42.28,22.038 l -1.137,-12.64 c 0.442,4.663 -30.541,-15.515 -31.821,-23.188 -0.039,-0.235 -1.028,-1.478 -1.451,-1.055 -2.967,2.967 -6.547,9.089 -8.046,13.585 -0.081,0.243 -0.152,0.528 -0.215,0.848 z"
         style="fill:#527455"
         id="path228" />
      <g
         transform="matrix(1,0,0,0.892053,4.0421,36.0504)"
         id="g232">
        <path
           d="m 365.162,316.426 c 0.442,4.663 -30.54,-15.516 -31.821,-23.189 -0.039,-0.234 -1.028,-1.478 -1.451,-1.055 -2.967,2.968 -6.547,9.089 -8.045,13.586 -1.098,3.292 -1.686,7.781 -0.924,11.211 0.175,0.786 0.324,2.435 0.924,3.034 0.613,0.614 4.122,-0.098 4.88,0.66 0.208,0.208 -2.423,0.517 -2.506,0.527 -1.263,0.158 -4.381,1.104 -3.825,2.77 1.103,3.31 1.222,7.02 2.242,10.42 2.044,6.814 5.036,13.466 6.199,20.444 0.529,3.172 2.3,5.315 4.617,6.859 0.685,0.457 1.333,1.843 2.374,1.583 2.007,-0.502 1.254,-1.19 2.11,-2.902 0.749,-1.497 27.118,-21.236 30.601,-21.236 z"
           style="fill:#16411a"
           id="path230" />
      </g>
      <g
         transform="matrix(0.990245,0.0141287,-0.0147872,1.0364,19.9721,-52.24)"
         id="g236">
        <path
           style="color:#000000;clip-rule:nonzero;fill:#ffffff;fill-rule:nonzero;stroke-linecap:butt;stroke-linejoin:miter;-inkscape-stroke:none"
           d="m 326.02539,720.78711 a 2.7052704,2.7052704 0 0 0 -3.33594,2.25781 c 0,0 -0.41883,3.05614 -0.66406,6.48828 -0.12261,1.71608 -0.20436,3.52936 -0.16211,5.17774 0.0423,1.64837 0.0255,3.00029 0.81641,4.58203 0.31215,0.62464 1.0043,1.56093 2.24804,1.83008 1.24375,0.26914 2.19795,-0.28139 2.6875,-0.65625 0.97911,-0.74972 1.28984,-1.38482 1.72852,-2.03321 0.43868,-0.64839 0.85852,-1.28638 1.19727,-1.70507 0.33875,-0.41869 0.64842,-0.49935 0.22851,-0.35938 0.31011,-0.1033 1.48381,0.009 2.58984,0.64258 1.10604,0.63314 1.96339,1.76892 2.01563,1.92578 0.93496,2.80488 0.72456,4.50903 0.18359,5.61914 -0.54096,1.11011 -1.54908,1.91056 -3.16797,2.45703 -3.23776,1.09294 -8.58979,0.50491 -11.96679,-1.18359 a 2.7049999,2.7049999 0 0 0 -3.62891,1.20898 2.7049999,2.7049999 0 0 0 1.20899,3.62891 c 4.75299,2.37649 10.93796,3.22096 16.11718,1.47265 2.58962,-0.87415 5.008,-2.56192 6.30078,-5.21484 1.29279,-2.65292 1.32298,-5.98615 0.0859,-9.69726 -0.76375,-2.29314 -2.47847,-3.77726 -4.46094,-4.91211 -1.98246,-1.13486 -4.41444,-1.93678 -6.98632,-1.08008 -0.74481,0.24827 -1.27969,0.59968 -1.71289,0.98437 0.0277,-0.78459 0.0172,-1.50547 0.0742,-2.30273 0.12342,-1.7273 0.20536,-2.14106 0.3379,-3.29102 2.1402,0.35297 4.935,0.64903 7.95117,0.29492 a 2.7049999,2.7049999 0 0 0 2.37109,-3.00195 2.7049999,2.7049999 0 0 0 -3.00195,-2.37109 c -3.80075,0.44622 -9.05469,-0.76172 -9.05469,-0.76172 z"
           id="path234" />
      </g>
      <g
         transform="translate(-16.9509,502.677)"
         id="g240">
        <path
           d="m 421.759,356.191 c 0,0 15.502,-72.332 8.86,-74.111 -16.3,-4.365 -14.506,42.346 -34.247,41.598 -11.382,-0.431 -3.343,7.764 7.623,11.067 12.332,3.715 3.051,20.613 17.764,21.446 z"
           style="fill:#2c6532"
           id="path238" />
      </g>
      <path
         d="m 376.887,826.429 c -7.43,0.881 0.143,7.977 10.157,10.993 12.332,3.715 3.051,20.613 17.764,21.446 0,0 0.622,-2.905 1.564,-7.561 -7.589,-3.273 -4.454,-16.39 -15.207,-17.995 -7.302,-1.09 -13.693,-4.367 -14.278,-6.883 z m 35.757,-41.883 c 0.831,6.363 1.003,16.202 0.867,26.415 1.954,-13.861 2.773,-25.503 0.157,-26.204 -0.349,-0.093 -0.689,-0.163 -1.024,-0.211 z"
         style="fill:#527455"
         id="path242" />
      <g
         transform="translate(-13.5607,402.142)"
         id="g246">
        <path
           d="m 432.913,280.414 c -15.24,-3.585 -16.8,44.012 -36.541,43.264 -11.382,-0.431 -3.343,7.764 7.623,11.067 10.14,3.054 16.862,30.989 20.292,46.154 0.741,3.279 8.857,-1.308 9.187,-1.177 0,0 6.133,-97.734 -0.561,-99.308 z"
           style="fill:#16411a"
           id="path244" />
      </g>
      <path
         d="m 377.816,729.367 c 1.604,2.51 6.682,5.732 12.618,7.519 10.14,3.055 16.862,30.99 20.292,46.155 0.742,3.279 8.858,-1.308 9.187,-1.177 0,0 0.257,-4.104 0.609,-10.639 -7.075,-14.265 -19.373,-37.515 -29.441,-38.1 -5.564,-0.322 -10.722,-1.933 -13.265,-3.758 z"
         style="fill:#365439"
         id="path248" />
      <g
         transform="translate(-6.78036,201.071)"
         id="g252">
        <path
           d="m 428.74,269.403 c -12.313,8.957 -10.319,42.233 -30.06,41.485 -11.382,-0.431 -3.343,7.764 7.622,11.067 12.333,3.715 17.904,33.025 20.376,48.28 8.727,0.149 9.513,-106.253 2.062,-100.832 z"
           style="fill:#16411a"
           id="path250" />
      </g>
      <path
         d="m 423.581,563.596 c -0.359,0.401 -0.734,0.608 -1.125,0.601 -2.473,-15.255 -8.043,-44.564 -20.376,-48.279 -3.318,-1 -6.368,-2.447 -8.692,-3.968 -0.484,0.025 -0.979,0.029 -1.488,0.009 -11.382,-0.431 -3.343,7.764 7.622,11.067 12.333,3.715 17.903,33.025 20.376,48.28 1.446,0.024 2.674,-2.876 3.683,-7.71 z m -9.576,-80.686 c -0.694,1.994 -1.395,3.989 -2.145,5.92 0.7,-2.011 1.401,-4.008 2.145,-5.92 z"
         style="fill:#365439"
         id="path254" />
      <g
         transform="matrix(1,0,0,-1.01274,-1.75428,745.805)"
         id="g258">
        <path
           d="m 427.609,271.81 c -9.208,12.127 -12.118,47.29 -31.859,46.543 -11.382,-0.431 -1.983,10.023 8.982,13.327 12.333,3.714 18.582,22.343 21.055,37.598 0,0 11.394,-1.754 12.226,-24.829 0.967,-26.775 -8.171,-75.581 -10.404,-72.639 z"
           style="fill:#2c6532"
           id="path256" />
      </g>
      <path
         d="m 390.912,417.116 c 0.593,0.925 2.13,1.464 4.883,1.359 19.74,-0.758 22.651,34.854 31.858,47.135 0.151,0.201 0.333,0.163 0.541,-0.09 -0.998,3.73 -1.841,5.678 -2.34,5.013 -9.207,-12.281 -12.117,-47.893 -31.858,-47.135 -6.283,0.241 -6.234,-2.878 -3.084,-6.282 z m 29.497,-29.977 c 1.647,-5.048 2.83,-10.358 3.624,-15.315 0,0 0.317,0.049 0.849,0.24 -1.058,5.083 -2.524,10.306 -4.473,15.075 z"
         style="fill:#527455"
         id="path260" />
      <path
         d="m 326.66,421.501 c 0.01,-0.116 0.021,-0.231 0.034,-0.344 0.448,-4.127 2.544,-10.142 4.751,-13.376 0.315,-0.461 1.547,0.318 1.637,0.503 2.943,6.049 37.361,14.825 35.897,11.062 l 3.018,5.157 c -6.299,6.559 -33.614,7.833 -43.109,-0.743 -0.835,-0.754 -1.572,-1.503 -2.228,-2.259 z"
         style="fill:#527455"
         id="path262" />
      <g
         transform="translate(-0.582876,-0.0995299)"
         id="g266">
        <path
           d="m 425.309,289.649 c -7.633,10.053 -8.93,27.339 -20.399,32.53 -2.365,1.071 -5.162,1.627 -8.538,1.499 -11.382,-0.431 -3.343,7.764 7.623,11.067 12.332,3.715 18.146,21.479 20.619,36.733 0,0 9.581,0.725 10.027,-8.747 1.175,-24.943 -6.318,-77.052 -9.332,-73.082 z"
           style="fill:#16411a"
           id="path264" />
      </g>
      <path
         d="m 391.997,323.898 c -5.182,1.536 2.049,7.926 11.415,10.747 12.332,3.715 18.146,21.479 20.619,36.734 l 0.004,-4.65 c -2.473,-15.255 -8.287,-33.019 -20.62,-36.733 -4.859,-1.464 -9.144,-3.889 -11.418,-6.098 z"
         style="fill:#435e45"
         id="path268" />
      <g
         transform="matrix(1,0,0,0.876944,-1.87422,34.0977)"
         id="g272">
        <path
           d="m 1241.75,288.265 -814.591,2.632 c 0,0 -6.167,638.093 -24.391,648.162 -18.225,10.069 842.432,7.422 842.432,7.422 -14.94,-217.46 -8.03,-437.975 -3.45,-658.216 z"
           style="fill:#5b0909"
           id="path270" />
      </g>
      <path
         d="m 419.854,572.604 c 241.903,-0.738 559.058,-0.313 816.246,0.501 -0.23,37.365 -0.31,74.787 -0.16,109.771 -258.173,-0.819 -577.086,-1.247 -819.646,-0.499 1.357,-34.879 2.539,-72.335 3.56,-109.773 z"
         style="fill:#8e3e00"
         id="path274" />
      <path
         d="m 424.117,371.764 c -0.456,28.246 -1.056,61.973 -1.815,98.315 247.74,-0.741 553.473,0.516 814.698,1.443 0.42,-36.21 0.9,-69.891 1.35,-98.309 -260.932,-0.925 -566.425,-2.182 -814.233,-1.449 z"
         style="fill:#8e3e00"
         id="path276" />
      <path
         d="m 411.19,784.277 c -2.896,43.067 -6.307,71.389 -10.297,73.322 -18.224,8.83 842.377,6.543 842.377,6.543 0,0 -4.72,-33.187 -6.03,-82.846 -257.508,-0.615 -578.697,1.948 -826.05,2.981 z"
         style="fill:#8e3e00"
         id="path278" />
      <path
         d="m 1239.5,286.891 c -2.25,125.015 -6.48,273.536 -3.47,412.541 0.56,87.508 7.12,164.569 7.12,164.569 -8.29,0.424 -62.05,1.04 -139.98,1.173 -0.18,-17.989 -0.38,-50.485 -0.58,-91.079 -0.8,-164.887 -1.61,-463.391 -1.29,-466.259 0.65,-5.885 3.22,-13.177 5.67,-20.569 z"
         style="fill:#16411a"
         id="path280" />
      <path
         d="m 967.776,287.661 c 9.73,118.483 -5.012,499.894 -9.457,577.54 -42.635,-0.049 -87.334,-0.146 -132.09,-0.302 0.831,-2.859 1.602,-5.05 1.602,-5.05 1.301,-88.038 2.523,-176.948 3.694,-266.445 1.293,-98.863 2.523,-198.441 3.723,-298.347 0.385,-1.741 0.74,-4.149 0.647,-7.022 z m -132.528,7.396 c -0.334,1.513 -0.69,2.523 -0.793,2.897 l -0.02,0.162 c -0.024,-0.005 -0.004,-0.066 -0.002,-0.077 l 0.022,-0.085 0.841,-6.817 z"
         style="fill:#16411a"
         id="path282" />
      <path
         d="m 700.555,288.418 -139.756,0.396 c 0.843,20.916 -0.171,39.033 -0.239,44.65 -2.017,166.539 -9.125,332.022 -6.493,494.643 0.138,8.525 3.616,21.404 2.986,34.904 39.775,0.495 84.875,0.894 132.497,1.211 16.964,-158.412 10.553,-573.354 10.553,-573.354 0.832,0.171 0.882,-0.802 0.452,-2.45 z"
         style="fill:#16411a"
         id="path284" />
      <path
         d="m 962.151,781.571 c -1.516,37.736 -2.9,67.356 -3.832,83.63 -10.488,-0.012 -121.053,-0.264 -132.09,-0.302 0.831,-2.859 1.602,-5.05 1.602,-5.05 0.382,-25.83 0.757,-51.736 1.125,-77.721 44.479,-0.212 89.05,-0.404 133.195,-0.557 z m 140.479,-0.338 c 46.23,-0.054 91.32,-0.04 134.61,0.063 v 0.006 0.259 l 5.8,82.268 c 0,0 -111.34,1.297 -139.87,1.345 -0.17,-16.922 -0.36,-46.682 -0.54,-83.941 z m -407.166,1.581 c -48.252,0.261 -95.78,0.526 -141.884,0.771 0.089,14.869 0.247,29.707 0.487,44.522 0.138,8.525 3.616,21.404 2.986,34.904 0,0 108.972,1.055 132.497,1.211 2.417,-22.574 4.36,-50.357 5.914,-81.408 z M 1101.8,572.731 c 45.65,0.11 90.27,0.235 133.23,0.371 -0.13,36.767 0.04,73.546 0.67,109.774 -43.03,-0.137 -87.74,-0.263 -133.5,-0.373 -0.14,-35.422 -0.28,-72.839 -0.4,-109.772 z m -270,-0.45 c 45.706,0.04 91.574,0.1 137.033,0.177 -0.879,37.421 -1.952,74.716 -3.088,109.764 -44.914,-0.075 -90.22,-0.135 -135.4,-0.174 0.4,-29.479 0.793,-59.029 1.18,-88.644 0.092,-7.039 0.184,-14.082 0.275,-21.123 z m -130.977,-0.057 c -0.345,36.618 -0.909,73.873 -1.78,109.767 -49.486,10e-4 -98.11,0.03 -145.127,0.092 0.412,-36.477 1.087,-73.072 1.862,-109.767 47,-0.062 95.613,-0.092 145.045,-0.092 z M 1138.61,372.855 c 16.77,0.061 33.55,0.121 50.32,0.181 l 48.88,0.175 c -0.64,31.992 -1.27,64.907 -1.78,98.307 l -48.5,-0.173 c -16.79,-0.061 -33.58,-0.121 -50.37,-0.182 l -35.66,-0.127 c -0.1,-37.337 -0.18,-71.223 -0.22,-98.314 z m -304.292,-0.968 c 45.5,0.112 91.15,0.246 136.518,0.391 0.329,29.651 0.229,63.105 -0.175,98.312 -45.703,-0.146 -91.7,-0.281 -137.559,-0.394 l 0.32,-25.574 c 0.154,-12.444 0.308,-24.887 0.462,-37.33 z m -274.302,-0.338 c -0.534,32.832 -1.222,65.608 -1.951,98.312 46.682,-0.02 94.609,0.01 143.225,0.077 0.006,-36.71 -0.149,-70.346 -0.349,-98.312 -47.808,-0.065 -94.963,-0.095 -140.925,-0.077 z"
         style="fill:#2c6532"
         id="path286" />
      <g
         transform="translate(3.61934,0.5878)"
         id="g290">
        <path
           d="m 392.696,316.32 c -1.669,-3.941 -12.28,-8.313 -14.641,-7.65 -8.394,2.355 -13.621,5.088 -14.773,13.058 -0.223,1.547 2.101,11.527 3.825,14.113 1.996,2.993 7.403,5.78 10.816,6.463 3.533,0.707 5.043,-0.907 7.65,-2.77 6.922,-4.944 10.458,-14.877 7.123,-23.214 z"
           style="fill:#16411a"
           id="path288" />
      </g>
      <g
         transform="translate(1.50649,189.116)"
         id="g294">
        <path
           d="m 392.696,316.32 c -1.669,-3.941 -12.28,-8.313 -14.641,-7.65 -8.394,2.355 -13.621,5.088 -14.773,13.058 -0.223,1.547 2.101,11.527 3.825,14.113 1.996,2.993 7.403,5.78 10.816,6.463 3.533,0.707 5.043,-0.907 7.65,-2.77 6.922,-4.944 10.458,-14.877 7.123,-23.214 z"
           style="fill:#16411a"
           id="path292" />
      </g>
      <g
         transform="translate(-10.3606,402.231)"
         id="g298">
        <path
           d="m 392.696,316.32 c -1.669,-3.941 -12.28,-8.313 -14.641,-7.65 -8.394,2.355 -13.621,5.088 -14.773,13.058 -0.223,1.547 2.101,11.527 3.825,14.113 1.996,2.993 7.403,5.78 10.816,6.463 3.533,0.707 5.043,-0.907 7.65,-2.77 6.922,-4.944 10.458,-14.877 7.123,-23.214 z"
           style="fill:#16411a"
           id="path296" />
      </g>
      <g
         transform="translate(-12.5039,508.472)"
         id="g302">
        <path
           d="m 392.696,316.32 c -1.669,-3.941 -12.28,-8.313 -14.641,-7.65 -8.394,2.355 -13.621,5.088 -14.773,13.058 -0.223,1.547 2.101,11.527 3.825,14.113 1.996,2.993 7.403,5.78 10.816,6.463 3.533,0.707 5.043,-0.907 7.65,-2.77 6.922,-4.944 10.458,-14.877 7.123,-23.214 z"
           style="fill:#2c6532"
           id="path300" />
      </g>
      <g
         transform="rotate(-30.058102,562.17356,365.62242)"
         id="g306">
        <path
           d="m 392.696,316.32 c -1.669,-3.941 -12.28,-8.313 -14.641,-7.65 -8.394,2.355 -13.621,5.088 -14.773,13.058 -0.223,1.547 2.101,11.527 3.825,14.113 1.996,2.993 7.403,5.78 10.816,6.463 3.533,0.707 5.043,-0.907 7.65,-2.77 6.922,-4.944 10.458,-14.877 7.123,-23.214 z"
           style="fill:#2c6532"
           id="path304" />
      </g>
      <g
         transform="matrix(0.731082,0.275518,-0.231278,0.613693,176.808,24.0673)"
         id="g310">
        <path
           d="m 398.779,317.983 c 0.592,0.086 -7.333,19.11 -16.291,21.488 -3.097,0.822 5.82,5.667 8.082,3.642 6.891,-6.167 11.543,-16.793 8.209,-25.13 z"
           style="fill:#445345"
           id="path308" />
      </g>
      <g
         transform="matrix(0.731082,0.275518,-0.231278,0.613693,174.695,212.595)"
         id="g314">
        <path
           d="m 398.779,317.983 c 0.592,0.086 -7.333,19.11 -16.291,21.488 -3.097,0.822 5.82,5.667 8.082,3.642 6.891,-6.167 11.543,-16.793 8.209,-25.13 z"
           style="fill:#445345"
           id="path312" />
      </g>
      <g
         transform="matrix(0.731082,0.275518,-0.231278,0.613693,162.828,425.711)"
         id="g318">
        <path
           d="m 398.779,317.983 c 0.592,0.086 -7.333,19.11 -16.291,21.488 -3.097,0.822 5.82,5.667 8.082,3.642 6.891,-6.167 11.543,-16.793 8.209,-25.13 z"
           style="fill:#445345"
           id="path316" />
      </g>
      <g
         transform="matrix(0.731082,0.275518,-0.231278,0.613693,160.685,531.951)"
         id="g322">
        <path
           d="m 398.779,317.983 c 0.592,0.086 -7.333,19.11 -16.291,21.488 -3.097,0.822 5.82,5.667 8.082,3.642 6.891,-6.167 11.543,-16.793 8.209,-25.13 z"
           style="fill:#527455"
           id="path320" />
      </g>
      <g
         transform="matrix(0.770766,-0.127717,0.10721,0.647004,54.1288,264.325)"
         id="g326">
        <path
           d="m 398.779,317.983 c 0.592,0.086 -7.333,19.11 -16.291,21.488 -3.097,0.822 5.82,5.667 8.082,3.642 6.891,-6.167 11.543,-16.793 8.209,-25.13 z"
           style="fill:#527455"
           id="path324" />
      </g>
      <path
         d="m 374.707,339.989 c -11.715,-18.777 8.806,-37.143 22.324,-20.875 -0.188,-0.745 -0.426,-1.482 -0.716,-2.206 -1.669,-3.941 -12.28,-8.313 -14.641,-7.65 -8.394,2.355 -13.621,5.087 -14.772,13.058 -0.224,1.547 2.101,11.527 3.825,14.113 0.848,1.272 2.314,2.508 3.98,3.56 z"
         style="fill:#053109"
         id="path328" />
      <g
         transform="translate(-2.11285,188.528)"
         id="g332">
        <path
           d="m 374.707,339.989 c -11.715,-18.777 8.806,-37.143 22.324,-20.875 -0.188,-0.745 -0.426,-1.482 -0.716,-2.206 -1.669,-3.941 -12.28,-8.313 -14.641,-7.65 -8.394,2.355 -13.621,5.087 -14.772,13.058 -0.224,1.547 2.101,11.527 3.825,14.113 0.848,1.272 2.314,2.508 3.98,3.56 z"
           style="fill:#053109"
           id="path330" />
      </g>
      <g
         transform="translate(-13.9799,401.643)"
         id="g336">
        <path
           d="m 374.707,339.989 c -11.715,-18.777 8.806,-37.143 22.324,-20.875 -0.188,-0.745 -0.426,-1.482 -0.716,-2.206 -1.669,-3.941 -12.28,-8.313 -14.641,-7.65 -8.394,2.355 -13.621,5.087 -14.772,13.058 -0.224,1.547 2.101,11.527 3.825,14.113 0.848,1.272 2.314,2.508 3.98,3.56 z"
           style="fill:#053109"
           id="path334" />
      </g>
      <g
         transform="translate(-16.1233,507.884)"
         id="g340">
        <path
           d="m 374.707,339.989 c -11.715,-18.777 8.806,-37.143 22.324,-20.875 -0.188,-0.745 -0.426,-1.482 -0.716,-2.206 -1.669,-3.941 -12.28,-8.313 -14.641,-7.65 -8.394,2.355 -13.621,5.087 -14.772,13.058 -0.224,1.547 2.101,11.527 3.825,14.113 0.848,1.272 2.314,2.508 3.98,3.56 z"
           style="fill:#365439"
           id="path338" />
      </g>
      <g
         transform="rotate(-30.058102,562.88843,372.65634)"
         id="g344">
        <path
           d="m 374.707,339.989 c -11.715,-18.777 8.806,-37.143 22.324,-20.875 -0.188,-0.745 -0.426,-1.482 -0.716,-2.206 -1.669,-3.941 -12.28,-8.313 -14.641,-7.65 -8.394,2.355 -13.621,5.087 -14.772,13.058 -0.224,1.547 2.101,11.527 3.825,14.113 0.848,1.272 2.314,2.508 3.98,3.56 z"
           style="fill:#365439"
           id="path342" />
      </g>
      <path
         style="color:#000000;clip-rule:nonzero;fill:#ffffff;fill-rule:nonzero;stroke-linecap:butt;stroke-linejoin:miter;-inkscape-stroke:none"
         d="m 345.05676,317.92773 c -0.5543,1.26418 -1.52829,2.8975 -2.64453,4.38086 -1.11625,1.48337 -2.39844,2.83627 -3.41602,3.61328 -1.01757,0.77702 -1.54689,0.57908 -0.95898,0.78516 -1.43031,-0.50127 -2.99623,0.25152 -3.49805,1.68164 -0.50109,1.43088 0.2527,2.99704 1.6836,3.49805 2.49791,0.87557 4.47726,-0.35827 6.10546,-1.60156 1.53017,-1.16843 2.92302,-2.73574 4.20118,-4.39454 0.0985,1.45218 0.29674,2.61997 0.29492,4.16993 -0.003,2.72982 -0.30341,5.85697 -0.61133,8.37304 -0.15396,1.25804 -0.30959,2.36459 -0.42773,3.21875 -0.11815,0.85417 -0.22071,1.03991 -0.22071,1.99219 4.7e-4,1.51535 1.22879,2.74367 2.74414,2.74414 1.51612,6.1e-4 2.74563,-1.22802 2.7461,-2.74414 0,0.57678 0.0526,-0.3918 0.16992,-1.24023 0.11735,-0.84843 0.27696,-1.99286 0.4375,-3.30469 0.32108,-2.62367 0.64914,-5.91303 0.65234,-9.0332 0.005,-4.01576 -0.37324,-7.80131 -0.74218,-10.58399 -0.47409,-7.09826 -3.40835,-9.85652 -6.51563,-1.55469 z"
         id="path346"
         sodipodi:nodetypes="csscccsccsscccssccc" />
      <g
         transform="translate(157.404,-74.0021)"
         id="g350">
        <path
           style="color:#000000;clip-rule:nonzero;fill:#3d0606;fill-rule:nonzero;stroke-linecap:butt;stroke-linejoin:miter;-inkscape-stroke:none"
           d="m 337.03516,321.42774 c -1.69733,1.65366 -3.44946,3.39603 -4.91016,4.92383 -1.4607,1.5278 -2.54505,2.65187 -3.30664,3.86328 -0.80567,1.2832 -0.41927,2.97651 0.86328,3.78321 1.2831,0.80735 2.97774,0.42173 3.78516,-0.86133 0.10441,-0.16609 1.23995,-1.54352 2.625,-2.99219 1.38504,-1.44867 3.10427,-3.15894 4.77343,-4.78516 0.71959,-0.70106 1.26517,-1.21289 1.9375,-1.85742 -0.0236,2.78501 -0.0616,6.02722 -0.11328,9.53125 -0.11865,8.04924 -0.26953,16.04898 -0.26953,17.23828 4.7e-4,1.51535 1.22879,2.74367 2.74414,2.74414 1.51535,-4.7e-4 2.74367,-1.22879 2.74414,-2.74414 0,-0.54769 0.15264,-9.0952 0.27149,-17.1582 0.0594,-4.0315 0.11135,-8.00805 0.13086,-10.99023 0.46483,-13.87104 -6.23865,-5.59862 -11.27539,-0.69532 z"
           id="path348"
           sodipodi:nodetypes="cscccsscccccscc" />
      </g>
      <g
         transform="matrix(1.20664,0,0,1.1213,-60.5039,-48.238)"
         id="g354">
        <path
           style="color:#000000;clip-rule:nonzero;fill:#ffffff;fill-rule:nonzero;stroke-linecap:butt;stroke-linejoin:miter;-inkscape-stroke:none"
           d="m 340.17383,417.06445 c -1.3969,0.09 -2.66064,0.59799 -3.74414,1.35157 -1.08351,0.75357 -2.02233,1.76862 -2.51563,3.14062 -0.4933,1.372 -0.33765,3.19768 0.6543,4.56445 0.76432,1.05214 2.23677,1.2856 3.28906,0.52149 1.05278,-0.76371 1.28714,-2.23627 0.52344,-3.28906 -0.14205,-0.19573 -0.0953,-0.0358 -0.0352,-0.20313 0.0602,-0.16734 0.33807,-0.56439 0.77344,-0.86719 0.43537,-0.3028 0.9921,-0.49598 1.35742,-0.51953 0.36532,-0.0236 0.44488,0.0264 0.55469,0.13672 1.12171,1.12636 1.47302,2.51569 1.27734,4.45703 -0.19567,1.94134 -1.05868,4.27438 -2.25586,6.42774 -1.19717,2.15335 -2.71931,4.13867 -4.03906,5.46875 -2.54652,1.98535 -4.42083,6.02346 -0.63868,6.53541 1.09084,0.14583 2.58487,0.3384 4.14258,0.52344 1.55771,0.18504 3.17587,0.36274 4.54297,0.47461 0.68355,0.0559 1.30269,0.0957 1.84375,0.11133 0.54106,0.0156 0.9113,0.0491 1.5664,-0.082 1.27565,-0.25495 2.10295,-1.49591 1.84766,-2.77149 -0.25496,-1.27564 -1.49591,-2.10294 -2.77149,-1.84765 0.24811,-0.0497 -0.10164,0.004 -0.50781,-0.008 -0.40616,-0.0117 -0.96091,-0.0459 -1.59375,-0.0977 -1.24307,-0.10172 -2.79491,-0.26966 -4.29492,-0.44727 1.41663,-1.5702 2.82845,-3.42988 4.01953,-5.57226 1.41507,-2.54527 2.53579,-5.36125 2.82617,-8.24219 0.29039,-2.88094 -0.36917,-5.98677 -2.62695,-8.25391 -1.17369,-1.17871 -2.79841,-1.60176 -4.19531,-1.51172 z"
           id="path352"
           sodipodi:nodetypes="cssccccsscssccsssccccscssccc" />
      </g>
      <g
         transform="matrix(1.32116,0,0,1.36835,169.842,-330.726)"
         id="g358">
        <path
           style="color:#000000;clip-rule:nonzero;fill:#3d0606;fill-rule:nonzero;stroke-linecap:butt;stroke-linejoin:miter;-inkscape-stroke:none"
           d="m 340.66406,417.16211 c -4.12257,-0.025 -8.72377,4.79977 -5.83984,8.77344 0.66168,0.91217 1.93763,1.11506 2.84961,0.45312 0.91217,-0.66168 1.11506,-1.93763 0.45312,-2.84961 -0.69076,-0.95177 2.46852,-2.70878 2.94141,-2.07812 v 0.002 c 1.29714,1.7294 1.22223,4.26974 0.29101,7.20117 -0.93121,2.93144 -2.65912,5.95922 -3.91406,8.05078 -4.51347,6.95863 -6.89697,9.13825 0.60943,8.78906 1.72329,-0.0796 3.94068,-0.14992 6.16992,-0.21485 2.22923,-0.0649 4.47147,-0.12557 6.27148,-0.1914 0.90001,-0.0329 1.68728,-0.0662 2.32032,-0.10352 0.63303,-0.0373 1.01007,-0.0475 1.52343,-0.15039 1.10539,-0.22125 1.82177,-1.29714 1.59961,-2.40234 -0.22129,-1.10446 -1.29586,-1.82055 -2.40039,-1.59961 0.10662,-0.0214 -0.38422,0.044 -0.96289,0.0781 -0.57866,0.0341 -1.34629,0.0673 -2.23047,0.0996 -1.76835,0.0647 -4.00597,0.12633 -6.24023,0.19141 -1.85582,0.0541 -3.58989,0.11506 -5.18164,0.17968 0.22533,-0.26632 0.45803,-0.53569 0.66797,-0.78906 0.55247,-0.66676 0.99081,-1.18246 1.35351,-1.78711 h -0.002 c 1.28906,-2.14843 3.18466,-5.39021 4.30469,-8.91601 1.12003,-3.52581 1.52584,-7.62917 -0.91602,-10.88477 -0.97278,-1.29733 -2.29378,-1.84324 -3.66797,-1.85156 z"
           id="path356"
           sodipodi:nodetypes="sccsccsccssscccscscsccscss" />
      </g>
      <g
         transform="matrix(0.869175,0,0,0.84304,48.2778,71.3854)"
         id="g362">
        <path
           style="color:#000000;clip-rule:nonzero;fill:#ffffff;fill-rule:nonzero;stroke-linecap:butt;stroke-linejoin:miter;-inkscape-stroke:none"
           d="m 341.76953,511.33203 c -1.99099,-0.0665 -3.87868,0.13033 -5.59766,0.73438 -0.85948,0.30202 -1.70784,0.68531 -2.52929,1.48828 -0.82145,0.80296 -1.55586,2.38178 -1.30469,3.85547 0.29734,1.74466 1.95255,2.91808 3.69727,2.62109 1.05892,-0.20558 1.9434,-0.93004 2.35351,-1.92773 0.61955,-0.20365 1.86957,-0.40661 3.16602,-0.36329 1.334,0.0446 2.71017,0.33049 3.55273,0.71094 0.84256,0.38045 0.94317,0.63505 0.96094,0.70703 0.0841,0.34073 0.0184,0.86631 -0.72266,1.875 -0.74107,1.00869 -2.07504,2.20902 -3.52539,3.23633 -9.64454,5.25441 -8.29703,6.39779 -1.24037,9.29118 1.52132,0.82168 3.3772,2.38653 4.41211,3.42187 1.26544,1.26544 1.23554,1.84811 1.02539,2.60547 -0.21016,0.75736 -1.05119,1.87585 -2.55078,2.73242 -2.99919,1.71314 -7.94948,2.1465 -12.00782,-1.00976 -1.39705,-1.08565 -3.40956,-0.83387 -4.49609,0.5625 -1.08742,1.39686 -0.83644,3.41079 0.56055,4.49804 6.23065,4.84573 13.92899,4.48248 19.12304,1.51563 2.59703,-1.48343 4.7395,-3.6763 5.54688,-6.58594 0.80737,-2.90964 -0.17037,-6.35005 -2.66992,-8.84961 -0.93739,-0.93771 -2.29007,-2.05331 -3.78907,-3.11719 1.72618,-1.2409 3.44205,-2.68834 4.77735,-4.50586 1.39018,-1.89221 2.45619,-4.4628 1.7793,-7.20507 -0.62424,-2.52901 -2.62049,-4.14472 -4.54493,-5.01368 -1.92443,-0.86895 -3.98557,-1.2108 -5.97656,-1.27734 z"
           id="path360"
           sodipodi:nodetypes="csssccsssscccsscccssccssscc" />
      </g>
      <g
         transform="translate(424.467,-270.192)"
         id="g366">
        <path
           style="color:#000000;clip-rule:nonzero;fill:#3d0606;fill-rule:nonzero;stroke-linecap:butt;stroke-linejoin:miter;-inkscape-stroke:none"
           d="m 340.07617,511.00586 c -2.61863,0.0746 -5.24986,0.5786 -7.53125,1.6582 -2.28139,1.0796 -4.47129,2.95727 -4.88086,5.79688 -0.21682,1.50045 0.82377,2.89256 2.32422,3.10937 1.50111,0.21677 2.89354,-0.82493 3.10938,-2.32617 0.0544,-0.37739 0.45554,-0.9844 1.79687,-1.61914 1.34133,-0.63474 3.36415,-1.07461 5.33789,-1.13086 1.97374,-0.0562 3.91088,0.28665 5.0332,0.79688 1.12233,0.51022 1.17218,0.68219 1.16797,1.07031 -0.007,0.61972 -0.53427,2.06277 -1.65429,3.63867 -1.12003,1.5759 -2.71825,3.28516 -4.34571,4.80469 -1.31957,2.62894 -8.2277,4.3757 -8.30468,7.43141 2.01318,5.54471 5.15275,0.90192 9.03713,1.10178 1.8933,0.11641 3.79926,0.96904 4.15039,1.32031 1.354,1.35401 1.39754,2.14092 1.14453,3.05274 -0.25302,0.91181 -1.18728,2.10821 -2.76563,3.00976 -3.1567,1.80312 -8.30335,2.23064 -12.51758,-1.04687 -1.19716,-0.93154 -2.92294,-0.71549 -3.85351,0.48242 -0.93022,1.19684 -0.71424,2.92112 0.48242,3.85156 6.07476,4.72449 13.57479,4.3554 18.61133,1.47852 2.51827,-1.43844 4.56751,-3.55341 5.33203,-6.3086 0.7644,-2.75475 -0.14063,-5.98951 -2.55078,-8.40039 -1.29827,-1.2988 -2.93137,-1.94234 -4.65235,-2.36523 1.67604,-1.59472 3.36448,-3.34067 4.70899,-5.23242 1.4491,-2.03891 2.6402,-4.20399 2.66797,-6.75977 0.0313,-2.89038 -2.13412,-5.10377 -4.38477,-6.12695 -2.25064,-1.02318 -4.84426,-1.36174 -7.46289,-1.28711 z"
           id="path364"
           sodipodi:nodetypes="sscccssscsccccsscccssscssssscc" />
      </g>
      <g
         transform="translate(560.41,-383.094)"
         id="g370">
        <path
           id="path368"
           style="color:#000000;clip-rule:nonzero;fill:#3d0606;fill-rule:nonzero;stroke-linecap:butt;stroke-linejoin:miter;-inkscape-stroke:none"
           d="m 690.39648,82.548828 c -0.3108,0.86122 -0.93844,2.334875 -1.66992,4.021484 -0.76207,1.757151 -1.60945,3.714719 -2.29492,5.542969 -0.68548,1.82826 -1.26531,3.366023 -1.32031,5.126953 -0.0578,1.84724 0.1746,3.463106 0.82812,4.874996 0.65352,1.41189 1.79776,2.55428 3.08399,3.17383 2.57246,1.2391 5.22558,0.78095 7.67383,0.10742 1.26045,-0.34676 2.49558,-0.79442 3.6582,-1.26757 0.0856,6.35073 0.12305,11.98817 0.12305,13.79492 3.2e-4,1.87128 0.84565,3.38809 1.88867,3.38867 1.04302,-5.7e-4 1.88835,-1.51738 1.88867,-3.38867 0,-2.10677 -0.04,-8.48866 -0.14063,-15.4668 0.61443,-0.28744 1.25656,-0.58989 1.69141,-0.7832 0.6177,-0.27461 1.23359,-0.3899 0.72461,-0.32617 1.50419,-0.1883 2.57097,-1.560257 2.38281,-3.064457 -0.1883,-1.50419 -1.56025,-2.570972 -3.06445,-2.382812 -0.87577,0.109655 -1.32837,0.312331 -1.83789,0.552734 -0.0803,-4.075928 -0.18021,-8.025119 -0.3125,-11.103516 -0.0803,-1.866808 -0.98879,-3.263663 -2.0293,-3.11914 -1.04052,0.144154 -1.81883,1.773845 -1.73828,3.640625 0.14045,3.26805 0.24754,7.740826 0.33008,12.314453 -1.62743,0.734472 -3.41599,1.476281 -5.02149,1.917973 -1.88187,0.51771 -3.38304,0.45549 -3.83398,0.23828 -0.22548,-0.10861 -0.31123,-0.15717 -0.48437,-0.531253 -0.17316,-0.37409 -0.36366,-1.137938 -0.32422,-2.398438 0.006,-0.19207 0.36043,-1.732983 0.97461,-3.371093 0.61418,-1.63812 1.43184,-3.53576 2.1914,-5.28711 0.75955,-1.75135 1.45257,-3.318647 1.88672,-4.560547 0.21707,-0.62095 0.49994,-0.868 0.41602,-2.1875 -0.021,-0.32987 -0.0587,-0.811009 -0.47071,-1.443359 -1.85753,-2.329199 -3.45952,-0.840177 -5.19922,1.986328 z"
           transform="translate(-363.491,542.769)"
           sodipodi:nodetypes="csssssscccccscsscscccsssssssscc" />
      </g>
      <g
         transform="matrix(0.828675,0,0,1.48673,618.192,-686.511)"
         id="g374" />
      <g
         transform="matrix(1.05297,0.00554613,-0.00633587,1.20291,691.801,-630.642)"
         id="g378">
        <path
           style="color:#000000;clip-rule:nonzero;fill:#3d0606;fill-rule:nonzero;stroke-linecap:butt;stroke-linejoin:miter;-inkscape-stroke:none"
           d="m 334.8125,721.86133 c -4.51471,0.47045 -10.86678,0.97553 -11.58789,1.02344 -2.42025,0.53568 -2.45325,2.43115 -2.44726,4.11328 0.0285,1.10395 0.13984,2.49032 0.31446,3.97265 0.34923,2.96466 0.73025,5.97808 1.83984,8.19727 0.29227,0.58483 0.92462,1.43514 2.05469,1.67969 1.13006,0.24454 2.00265,-0.25214 2.45898,-0.60157 0.91267,-0.69884 1.22984,-1.32405 1.66602,-1.96875 0.43618,-0.6447 0.86036,-1.28888 1.21289,-1.72461 0.35253,-0.43572 0.68115,-0.55712 0.35742,-0.44921 0.42717,-0.1423 1.66501,0.005 2.81641,0.66406 1.15139,0.65911 2.05351,1.8146 2.14257,2.08203 0.9506,2.85178 0.7498,4.63817 0.16993,5.82812 -0.57988,1.18996 -1.66096,2.03814 -3.33008,2.60157 -3.33825,1.12686 -8.73342,0.52489 -12.18164,-1.19922 -1.19787,-0.59931 -2.65477,-0.11397 -3.25391,1.08398 -0.59931,1.19787 -0.11397,2.65477 1.08399,3.25391 4.68177,2.34089 10.8236,3.17142 15.90234,1.45703 2.53937,-0.85719 4.8848,-2.4992 6.13867,-5.07227 1.25388,-2.57307 1.29367,-5.82211 0.0723,-9.48632 -0.72693,-2.18258 -2.39688,-3.64893 -4.33399,-4.75782 -1.9371,-1.10888 -4.30494,-1.87434 -6.75976,-1.05664 -1.34223,0.44741 -2.00446,1.26923 -2.59571,2 -0.002,0.002 -0.002,0.004 -0.004,0.006 -0.25309,-1.2003 -0.48906,-1.81689 -0.64063,-3.10351 -0.13073,-1.10978 -0.18905,-2.0412 -0.23047,-2.86719 2.17466,-0.16916 5.85286,-0.45727 9.63672,-0.85156 1.33303,-0.13803 2.30136,-1.33117 2.16211,-2.66407 -0.13903,-1.33223 -1.33185,-2.29943 -2.66406,-2.16015 z"
           id="path376"
           sodipodi:nodetypes="cccsssssscscsscccsscscccsccscc" />
      </g>
      <g
         transform="matrix(0.973449,0,0,1,6.74535,-0.226374)"
         id="g382">
        <path
           style="color:#000000;clip-rule:nonzero;fill:#ffffff;fill-rule:nonzero;stroke-linecap:butt;stroke-linejoin:miter;-inkscape-stroke:none"
           d="m 334.76758,817.05078 c -2.72937,0.60558 -4.50164,2.57027 -6.14258,4.9043 -1.64094,2.33403 -3.01352,5.21515 -3.86719,8.27734 -0.85366,3.06219 -1.21092,6.31196 -0.48828,9.39844 0.72264,3.08648 2.78768,6.03527 6.15039,7.48437 4.32185,1.86226 8.91784,0.35783 12.02149,-2.13867 1.55182,-1.24824 2.82954,-2.80527 3.38086,-4.78515 0.55131,-1.97989 0.0231,-4.49839 -1.63477,-6.15625 -2.27889,-2.27889 -5.34639,-3.06386 -7.8457,-2.41993 -2.49932,0.64394 -4.36602,2.27378 -5.79493,4.01368 -0.37286,0.45401 -0.63369,0.93337 -0.94726,1.40234 -0.13008,-1.59185 -0.0158,-3.40527 0.51367,-5.30469 0.67584,-2.4243 1.83524,-4.83138 3.06055,-6.57422 1.2253,-1.74284 2.65524,-2.6424 2.79687,-2.67382 a 2.78,2.78 0 0 0 2.11133,-3.31641 2.78,2.78 0 0 0 -3.31445,-2.11133 z m 4.07031,19.90039 c 0.38002,0.11573 0.81067,0.40832 1.41797,1.01563 0.40114,0.40114 0.32636,0.3109 0.20898,0.73242 -0.11737,0.42152 -0.63088,1.23994 -1.50781,1.94531 -1.58164,1.27223 -3.98917,1.91896 -5.75195,1.48633 0.27889,-0.80361 0.80794,-1.96112 1.63867,-2.97266 0.93622,-1.13997 2.08555,-1.95229 2.88477,-2.1582 0.3996,-0.10296 0.72936,-0.16455 1.10937,-0.0488 z"
           id="path380" />
      </g>
      <g
         transform="matrix(1,0,0,1.00649,838.532,-575.379)"
         id="g386">
        <path
           style="color:#000000;clip-rule:nonzero;fill:#3d0606;fill-rule:nonzero;stroke-linecap:butt;stroke-linejoin:miter;-inkscape-stroke:none"
           d="m 332.11133,811.04102 c -0.72297,-0.0622 -1.44103,0.16543 -1.9961,0.63281 -4.4179,3.72329 -6.89751,10.91227 -7.52929,18.08398 -0.3159,3.58586 -0.0923,7.1687 1.08203,10.33008 1.17435,3.16139 3.52989,5.98254 7.03125,7.08398 4.30266,1.35377 8.71083,-0.0507 11.77344,-2.44335 1.5313,-1.19631 2.80619,-2.69668 3.34179,-4.64844 0.53561,-1.95176 -0.0446,-4.40003 -1.6582,-6.01367 -2.27027,-2.27028 -5.31718,-3.04859 -7.80273,-2.40821 -2.48556,0.64039 -4.34657,2.26496 -5.77149,4 -0.68918,0.83918 -1.26881,1.71035 -1.75,2.5918 -0.0104,-0.0274 -0.0268,-0.0387 -0.0371,-0.0664 -0.76499,-2.05939 -1.02499,-4.93455 -0.75976,-7.94531 0.53046,-6.02152 3.47238,-12.58315 5.60546,-14.38086 1.15457,-0.97359 1.30147,-2.69873 0.32813,-3.85351 -0.46706,-0.55445 -1.13514,-0.90078 -1.85742,-0.96289 z m 6.73828,25.86718 c 0.38798,0.11803 0.82589,0.41574 1.4375,1.02735 0.44536,0.44535 0.34816,0.34668 0.25195,0.69726 -0.0962,0.35059 -0.5676,1.10709 -1.43554,1.78516 -1.50907,1.17894 -3.90025,1.76645 -5.84961,1.5293 0.3043,-0.80979 0.76772,-1.86013 1.55468,-2.81836 0.94021,-1.14484 2.09719,-1.96438 2.91016,-2.17383 0.40649,-0.10473 0.74288,-0.16491 1.13086,-0.0469 z"
           id="path384"
           sodipodi:nodetypes="scsscsssssccsccsssssscssss" />
      </g>
      <g
         transform="translate(26.1146,-2.66092)"
         id="g390">
        <path
           d="m 545.547,245.14 c 0.078,8.215 -17.878,9.694 -19.448,20.825 -1.385,9.822 8.064,15.412 8.311,19.812 1.308,23.259 0.11,44.227 0.035,50.348 -2.017,166.539 -9.124,332.022 -6.492,494.643 0.217,13.419 8.365,23.296 -3.915,43.744 -6.025,10.034 -7.717,19.38 4.296,27.99"
           style="fill:none;stroke:#808080;stroke-width:4px"
           id="path388" />
      </g>
      <g
         transform="translate(163.202,-4.03575)"
         id="g394">
        <path
           d="m 541.244,246.043 c 0,20.632 -16.823,13.102 -17.848,33.326 -0.254,5.029 17.012,16.256 13.505,15.535 0,0 14.014,600.593 -22.478,602.154"
           style="fill:none;stroke:#808080;stroke-width:4px"
           id="path392" />
      </g>
      <path
         d="m 813.281,891.505 c 14.195,4.314 2.702,-18.146 14.55,-31.656 1.301,-88.038 2.523,-176.948 3.694,-266.445 1.31,-100.155 2.555,-201.044 3.771,-302.267 l -0.861,6.979 c -0.208,0.009 2.949,-6.8 0.605,-16.175 -3.371,-13.484 -13.439,-15.225 -15.305,-28.285"
         style="fill:none;stroke:#808080;stroke-width:4px"
         id="path396" />
      <path
         d="m 944.067,880.879 c 20.119,16.311 14.35,-15.883 15.482,-39.494 5.553,-115.827 17.899,-464.67 7.365,-562.92 -1.463,-13.651 -30.615,-13.865 -15.097,-30.868"
         style="fill:none;stroke:#808080;stroke-width:4px"
         id="path398" />
      <path
         d="m 1120.53,898.181 c -4.47,6.642 -21.94,-14.28 -18.95,-33.176 3.22,-20.337 0.36,-57.845 1.01,-90.91 3.12,-157.621 -5.23,-462.406 -1.29,-466.259 4.65,-4.541 2.94,-19.022 3.79,-32.191 1.07,-16.81 -22.24,-19.324 -0.61,-40.397"
         style="fill:none;stroke:#808080;stroke-width:4px"
         id="path400" />
    </g>
  </g>
</svg>
