<?xml version="1.0" encoding="UTF-8" standalone="no"?>
<!-- Created with Inkscape (http://www.inkscape.org/) -->

<svg
   width="144.9953mm"
   height="193.02509mm"
   viewBox="0 0 144.9953 193.02509"
   version="1.1"
   id="svg2737"
   sodipodi:docname="2022-KR-06-taskbodyB.svg"
   inkscape:version="1.1.1 (3bf5ae0d25, 2021-09-20)"
   xmlns:inkscape="http://www.inkscape.org/namespaces/inkscape"
   xmlns:sodipodi="http://sodipodi.sourceforge.net/DTD/sodipodi-0.dtd"
   xmlns="http://www.w3.org/2000/svg"
   xmlns:svg="http://www.w3.org/2000/svg">
  <sodipodi:namedview
     id="namedview2739"
     pagecolor="#ffffff"
     bordercolor="#666666"
     borderopacity="1.0"
     inkscape:pageshadow="2"
     inkscape:pageopacity="0.0"
     inkscape:pagecheckerboard="0"
     inkscape:document-units="mm"
     showgrid="false"
     inkscape:zoom="0.16592137"
     inkscape:cx="-744.32849"
     inkscape:cy="1588.1017"
     inkscape:window-width="1920"
     inkscape:window-height="1137"
     inkscape:window-x="-8"
     inkscape:window-y="-8"
     inkscape:window-maximized="1"
     inkscape:current-layer="layer1" />
  <defs
     id="defs2734" />
  <g
     inkscape:label="Ebene 1"
     inkscape:groupmode="layer"
     id="layer1"
     transform="translate(-32.502346,-51.987456)">
    <g
       id="g4464"
       transform="translate(390.33084,93.468632)">
      <path
         d="m -299.2742,105.74782 c 0.30779,0.0322 0.69969,-0.60844 0.86431,-0.34539 0.57801,0.92337 -0.093,4.07286 0,5.18948 0.28991,3.46623 0.79095,6.90918 1.03791,10.37897 0.37219,5.20203 0.17714,10.39866 1.03788,15.56846 0.15748,0.95379 1.56758,5.78003 1.03791,6.57455 -0.21654,0.3239 -9.51823,0.53327 -10.37897,0.69075 -10.98561,1.99705 -21.70099,8.32821 -32.86734,5.53664 -1.14347,-0.28633 -2.43191,-0.21476 -3.46085,-1.03971 -0.96631,-0.77306 -1.74654,-3.05641 -2.07579,-4.14977 -2.27981,-7.60352 5.11789,-12.83058 11.76401,-13.49447 6.15222,-0.61378 12.32413,0.22728 18.33679,1.73043 3.05284,0.76412 5.68875,1.83063 8.65034,2.42295 0.25051,0.0501 0.54758,0.55832 0.69072,0.34536 0.86611,-1.29916 0.12705,-5.04275 0.34539,-6.57275 0.73009,-5.11432 -0.0322,-10.88538 -1.03791,-15.91562 -0.33642,-1.68568 -1.40833,-4.78327 -0.69252,-6.57275 0.62272,-1.55503 5.5581,-0.46524 6.74812,-0.34713 z"
         style="clip-rule:evenodd;fill:#a13813;fill-rule:evenodd;stroke:#000000;stroke-width:2.97053px;stroke-linecap:round;stroke-linejoin:round;stroke-miterlimit:4"
         id="path523" />
      <path
         d="m -284.39827,105.67659 c -4.13372,2.2279 -1.90402,12.2436 -1.90402,16.60634 0,5.41139 -1.03788,10.76192 -1.03788,16.261 0,0.70863 -0.19865,4.05138 0.69252,4.49693 0.77843,0.39013 2.92222,0.22191 3.80621,0.34716 3.52886,0.50287 6.83581,1.33496 10.37897,1.73043 8.13856,0.90369 18.21868,3.78653 25.25668,-2.07579 4.08718,-3.40894 7.32792,-14.29792 0.69075,-16.95352 -6.15403,-2.46232 -16.36657,0.98423 -22.14301,3.45909 -0.81777,0.3525 -9.67748,4.15874 -9.68642,4.15337 -0.58338,-0.39013 -0.34716,-8.28349 -0.34716,-9.34286 0,-4.84412 -0.66926,-9.41803 0.69252,-14.18521 0.25231,-0.87683 1.48347,-3.39463 0.34716,-4.15158 -1.14348,-0.76232 -5.40779,-1.06831 -6.74632,-0.34536 z"
         style="clip-rule:evenodd;fill:#a13813;fill-rule:evenodd;stroke:#000000;stroke-width:2.97053px;stroke-linecap:round;stroke-linejoin:round;stroke-miterlimit:4"
         id="path526" />
      <path
         d="m -250.98298,131.50966 c -0.89522,-3.04014 -4.42463,-4.82872 -7.12375,-4.03402"
         style="clip-rule:evenodd;fill:none;fill-rule:evenodd;stroke:#000000;stroke-width:3.04803px;stroke-linecap:round;stroke-linejoin:round;stroke-miterlimit:4"
         id="path529" />
      <path
         d="m -281.74963,111.23935 c 9.34971,-3.67488 19.00039,-10.92655 24.12915,-20.45086 3.28935,-6.10606 6.07999,-13.40086 10.46096,-18.58801 5.08657,-6.0234 13.01822,-7.0774 18.05123,0.81616 5.46055,8.56623 2.67081,20.95174 -3.60254,27.02792 -8.75898,8.48535 -22.42415,11.29126 -33.51967,14.55846 -2.0552,0.60521 -12.54114,2.05148 -14.68011,1.0771 -1.22627,-0.55867 -1.62679,-4.13047 -0.83902,-4.44077 z"
         style="clip-rule:evenodd;fill:#704306;fill-rule:evenodd;stroke:#000000;stroke-width:2.94807px;stroke-linecap:round;stroke-linejoin:round;stroke-miterlimit:4"
         id="path532" />
      <path
         d="m -268.16066,105.92443 c 1.61666,1.5386 3.87871,2.50293 5.30262,4.21028"
         style="clip-rule:evenodd;fill:none;fill-rule:evenodd;stroke:#000000;stroke-width:1.16591px;stroke-linecap:round;stroke-linejoin:round;stroke-miterlimit:4"
         id="path535" />
      <path
         d="m -259.95392,96.65599 c 3.0612,3.67255 8.05371,5.36451 11.08591,8.99893"
         style="clip-rule:evenodd;fill:none;fill-rule:evenodd;stroke:#000000;stroke-width:2.43176px;stroke-linecap:round;stroke-linejoin:round;stroke-miterlimit:4"
         id="path538" />
      <path
         d="m -253.37466,88.22684 c 5.63176,-1.65848 12.98649,3.9995 17.41633,8.21497"
         style="clip-rule:evenodd;fill:none;fill-rule:evenodd;stroke:#000000;stroke-width:3.38114px;stroke-linecap:round;stroke-linejoin:round;stroke-miterlimit:4"
         id="path541" />
      <path
         d="m -248.64124,75.65326 c 3.95727,-1.1653 14.20974,3.5106 17.0256,6.88806"
         style="clip-rule:evenodd;fill:none;fill-rule:evenodd;stroke:#000000;stroke-width:3.19791px;stroke-linecap:round;stroke-linejoin:round;stroke-miterlimit:4"
         id="path544" />
      <path
         d="m -239.36598,68.95417 c 2.80091,9.51161 4.82696,19.33371 3.60794,29.23254"
         style="clip-rule:evenodd;fill:none;fill-rule:evenodd;stroke:#000000;stroke-width:2.94807px;stroke-linecap:round;stroke-linejoin:round;stroke-miterlimit:4"
         id="path547" />
      <path
         d="m -248.72844,77.48103 c 1.74088,5.9119 3.12023,22.11007 0.81436,27.17107"
         style="clip-rule:evenodd;fill:none;fill-rule:evenodd;stroke:#000000;stroke-width:3.34783px;stroke-linecap:round;stroke-linejoin:round;stroke-miterlimit:4"
         id="path550" />
      <path
         d="m -256.90536,92.15244 c -0.67855,5.50513 -2.17792,12.78903 -5.28725,17.06428"
         style="clip-rule:evenodd;fill:none;fill-rule:evenodd;stroke:#000000;stroke-width:3.03136px;stroke-linecap:round;stroke-linejoin:round;stroke-miterlimit:4"
         id="path553" />
      <path
         d="m -341.05493,146.62644 c -1.65706,-3.31409 4.47011,-5.86769 6.57453,-6.91991"
         style="clip-rule:evenodd;fill:#f1c94c;fill-opacity:0.01;fill-rule:evenodd;stroke:#000000;stroke-width:4.02632px;stroke-linecap:round;stroke-linejoin:round;stroke-miterlimit:4"
         id="path556" />
      <path
         d="m -303.57432,63.32932 c -0.0537,-1.83423 -15.22309,6.01442 -18.35824,7.71085 -7.34582,3.97621 -9.4896,1.27948 -17.06626,0.33462 -0.918,-0.11451 -2.80591,1.47632 -2.54643,2.49097 0.52969,2.05968 4.55602,2.88822 3.98695,4.79579 -0.19148,0.64601 -1.05757,0.84643 -1.48704,1.36181 -2.35318,2.82736 -6.04845,9.37506 -5.37382,13.20096 0.51896,2.94727 4.11938,0.136 5.1358,-0.27556 5.00518,-2.03108 4.89961,-7.16331 8.75951,-10.02647 5.81938,-4.31443 14.64149,-4.86201 20.85994,-8.22801 1.50495,-0.816 3.37854,-0.69609 4.86738,-1.8002 3.09758,-2.29592 1.32064,-6.23096 1.22221,-9.56476 z"
         style="clip-rule:evenodd;fill:#a13813;fill-rule:evenodd;stroke:#000000;stroke-width:2.97053px;stroke-linecap:round;stroke-linejoin:round;stroke-miterlimit:4"
         id="path559" />
      <path
         d="m -282.70901,65.76478 c 2.86136,-1.38324 5.18054,0.66929 8.12959,1.03611 4.37171,0.54758 8.76665,0.89834 13.1473,1.38506 3.15127,0.35074 6.03054,1.72863 9.34106,1.72863 1.7716,0 9.59877,-0.3919 10.03361,0.69255 2.02748,5.07137 -6.1236,3.9959 -7.61243,6.22737 -0.40622,0.612 0.41336,1.1059 0.69252,1.38506 1.1399,1.13988 8.12421,10.25012 4.84412,11.06969 -5.51696,1.3797 -13.00414,-9.53074 -17.29888,-12.1076 -4.94075,-2.96515 -10.49171,-2.90253 -15.91561,-3.80621 -1.74654,-0.29168 -4.69022,0.76949 -6.22739,0 -2.24939,-1.12559 -0.72295,-6.84297 0.86611,-7.61066 z"
         style="clip-rule:evenodd;fill:#a13813;fill-rule:evenodd;stroke:#000000;stroke-width:2.97053px;stroke-linecap:round;stroke-linejoin:round;stroke-miterlimit:4"
         id="path562" />
      <path
         d="m -307.49327,61.35552 c -0.94486,-0.35433 -1.39938,3.6398 -1.55686,4.67233 -0.79989,5.19486 -1.67495,10.33423 -2.07759,15.56846 -1.39399,18.12739 -5.85158,36.09554 16.261,42.89914 16.49719,5.07675 29.43333,-9.76162 28.02321,-25.2549 -0.782,-8.60917 -6.41707,-15.38415 -9.34106,-23.18089 -1.05222,-2.8077 -3.28549,-12.97371 -5.18949,-14.87593 -2.0239,-2.0257 -6.29359,-0.73906 -8.64854,-0.34716 -3.68276,0.61378 -14.15655,1.768 -17.47067,0.51895 z"
         style="clip-rule:evenodd;fill:#a13813;fill-rule:evenodd;stroke:#000000;stroke-width:2.97053px;stroke-linecap:round;stroke-linejoin:round;stroke-miterlimit:4"
         id="path565" />
      <path
         d="m -266.59319,13.79119 c 2.40588,-2.30484 4.73819,-2.11891 7.96436,-2.11891"
         style="clip-rule:evenodd;fill:#e6b728;fill-rule:evenodd;stroke:#000000;stroke-width:2.9468px;stroke-linecap:round;stroke-linejoin:round;stroke-miterlimit:4"
         id="path574" />
      <path
         d="m -324.27725,18.74824 c -3.23956,-1.55239 -3.57275,-2.75598 -7.52147,-2.75598"
         style="clip-rule:evenodd;fill:none;fill-rule:evenodd;stroke:#000000;stroke-width:2.9468px;stroke-linecap:round;stroke-linejoin:round;stroke-miterlimit:4"
         id="path577" />
      <path
         d="m -307.13357,34.32312 c 2.34437,-2.69835 14.75256,-2.47411 13.8239,2.86102 -1.67529,9.6283 -17.78868,1.69733 -13.8239,-2.86102 z"
         style="clip-rule:evenodd;fill:#070400;fill-rule:evenodd;stroke:#000000;stroke-width:2.9468px;stroke-linecap:round;stroke-linejoin:round;stroke-miterlimit:4"
         id="path580" />
      <path
         d="m -306.64383,31.20945 c -0.99152,0 1.0464,-0.11096 1.31805,-0.14853 1.45584,-0.19881 2.85819,-0.29742 4.34345,-0.29742 3.53126,0 10.20033,-0.1342 7.91083,5.34929 -1.36617,3.27261 -7.07316,6.23115 -10.54819,4.0122 -1.88807,-1.20486 -4.12002,-4.06607 -4.49736,-6.2401 -0.12976,-0.74477 -0.22749,-2.28695 0.77475,-2.52655 0.0642,-0.018 1.4157,-0.14854 0.69847,-0.14854 z"
         style="clip-rule:evenodd;fill-rule:evenodd;stroke:#000000;stroke-width:2.9468px;stroke-linecap:round;stroke-linejoin:round;stroke-miterlimit:4"
         id="path583" />
      <path
         d="m -343.90716,29.89937 c 4.15613,0.57031 17.23604,6.47218 18.53134,10.19858"
         style="clip-rule:evenodd;fill:none;fill-rule:evenodd;stroke:#000000;stroke-width:2.9468px;stroke-linecap:round;stroke-linejoin:round;stroke-miterlimit:4"
         id="path586" />
      <path
         d="m -268.14941,37.83534 c 2.44739,-3.64551 17.45281,-9.17554 21.98094,-8.06805"
         style="clip-rule:evenodd;fill:none;fill-rule:evenodd;stroke:#000000;stroke-width:2.9468px;stroke-linecap:round;stroke-linejoin:round;stroke-miterlimit:4"
         id="path589" />
      <path
         d="m -328.51233,47.63024 c -2.7391,-2.02409 -7.52414,-0.93843 -10.34084,0.33067 -0.66236,0.29866 -4.06382,2.72145 -3.73063,2.78427"
         style="clip-rule:evenodd;fill:none;fill-rule:evenodd;stroke:#000000;stroke-width:2.9468px;stroke-linecap:round;stroke-linejoin:round;stroke-miterlimit:4"
         id="path592" />
      <path
         d="m -267.10836,45.22033 c -1.31268,0.1795 3.00937,-1.13702 3.2703,-1.1934 1.4291,-0.31155 2.54374,-0.49623 3.97148,-0.68842 5.9532,-0.80883 10.57098,0.0573 15.87786,2.49579"
         style="clip-rule:evenodd;fill:none;fill-rule:evenodd;stroke:#000000;stroke-width:2.9468px;stroke-linecap:round;stroke-linejoin:round;stroke-miterlimit:4"
         id="path595" />
      <path
         d="m -306.40734,50.26345 c -1.59282,0.64886 2.04917,7.96729 3.32901,9.19308 0.77145,0.73835 8.64672,0.89778 9.66139,0.24998 0.85395,-0.54507 1.25328,-9.01539 0.65321,-9.13061 -1.70117,-0.32605 -12.81057,-0.65191 -13.64361,-0.31245 z"
         style="clip-rule:evenodd;fill:#fafaf9;fill-rule:evenodd;stroke:#000000;stroke-width:2.94542px;stroke-linecap:round;stroke-linejoin:round;stroke-miterlimit:4"
         id="path598" />
      <path
         d="m -299.68343,50.82587 c 0,2.04788 0.20462,6.39631 1.17541,8.25559"
         style="clip-rule:evenodd;fill:#fafaf9;fill-rule:evenodd;stroke:#000000;stroke-width:2.94542px;stroke-linecap:round;stroke-linejoin:round;stroke-miterlimit:4"
         id="path601" />
      <path
         d="m -319.08544,25.55631 c 0,-1.16387 1.01161,-2.10748 2.2587,-2.10748 1.24711,0 2.25869,0.94361 2.25869,2.10748 0,1.16531 -1.01158,2.10746 -2.25869,2.10746 -1.24709,0 -2.2587,-0.94215 -2.2587,-2.10746 z"
         style="clip-rule:evenodd;fill-rule:evenodd;stroke:#000000;stroke-width:2.9468px;stroke-linecap:round;stroke-linejoin:round;stroke-miterlimit:4"
         id="path610" />
      <path
         d="m -278.29486,25.95626 c 0,-1.19592 1.06378,-2.16509 2.37778,-2.16509 1.31403,0 2.37916,0.96917 2.37916,2.16509 0,1.19465 -1.06513,2.16384 -2.37916,2.16384 -1.314,0 -2.37778,-0.96919 -2.37778,-2.16384 z"
         style="clip-rule:evenodd;fill:#080500;fill-rule:evenodd;stroke:#000000;stroke-width:2.9468px;stroke-linecap:round;stroke-linejoin:round;stroke-miterlimit:4"
         id="path613" />
      <path
         d="m -270.96876,12.92079 c 1.14805,4.40965 5.13426,9.58213 9.29039,11.97288 5.72037,3.28797 8.75385,-11.65487 7.74224,-15.04559 -2.40054,-8.05389 -18.811,-3.76094 -17.03263,3.07271 z"
         style="font-variation-settings:normal;clip-rule:evenodd;vector-effect:none;fill:#a13813;fill-opacity:1;fill-rule:evenodd;stroke:#000000;stroke-width:2.9468px;stroke-linecap:butt;stroke-linejoin:miter;stroke-miterlimit:4;stroke-dasharray:none;stroke-dashoffset:0;stroke-opacity:1;-inkscape-stroke:none;stop-color:#000000"
         id="path622" />
      <path
         d="m -319.85349,14.61545 c 1.40499,-0.63331 -8.78597,-6.9464 -11.06075,-6.67478 -5.94649,0.71276 -6.19271,6.08513 -6.19271,10.59479 0,1.7408 0.42418,3.65072 1.54819,5.08641 6.02813,7.69905 13.36624,-7.95137 15.70527,-9.00642 z"
         style="font-variation-settings:normal;clip-rule:evenodd;vector-effect:none;fill:#a13813;fill-opacity:1;fill-rule:evenodd;stroke:#000000;stroke-width:2.9468px;stroke-linecap:butt;stroke-linejoin:miter;stroke-miterlimit:4;stroke-dasharray:none;stroke-dashoffset:0;stroke-opacity:1;-inkscape-stroke:none;stop-color:#000000"
         id="path625" />
      <path
         d="m -266.59319,13.79119 c 2.40588,-2.30484 4.73819,-2.11891 7.96436,-2.11891"
         style="clip-rule:evenodd;fill:#e6b728;fill-rule:evenodd;stroke:#000000;stroke-width:2.9468px;stroke-linecap:round;stroke-linejoin:round;stroke-miterlimit:4"
         id="path628" />
      <path
         d="m -324.27725,18.74824 c -3.23956,-1.55239 -3.57275,-2.75598 -7.52147,-2.75598"
         style="clip-rule:evenodd;fill:none;fill-rule:evenodd;stroke:#000000;stroke-width:2.9468px;stroke-linecap:round;stroke-linejoin:round;stroke-miterlimit:4"
         id="path631" />
      <path
         d="m -307.13357,34.32312 c 2.34437,-2.69835 14.75256,-2.47411 13.8239,2.86102 -1.67529,9.6283 -17.78868,1.69733 -13.8239,-2.86102 z"
         style="clip-rule:evenodd;fill:#070400;fill-rule:evenodd;stroke:#000000;stroke-width:2.9468px;stroke-linecap:round;stroke-linejoin:round;stroke-miterlimit:4"
         id="path634" />
      <path
         d="m -294.58486,-5.42671 c -1.83721,0.48334 -3.50046,5.72741 -4.06649,6.53767 -0.10432,0.018 -0.21008,0.0376 -0.31445,0.0555 -0.46297,-0.23855 -4.24577,-4.09308 -5.52768,-3.91753 -0.53792,0.0752 -0.12581,4.38656 -3.57942,6.53767 -0.33988,0.21278 -0.69582,0.41659 -1.1173,0.58071 -1.09858,0.51911 -2.19581,1.0241 -3.17799,1.62663 -12.42291,7.61439 -33.01625,37.26926 -19.35827,50.42657 6.40146,6.16582 26.92921,8.87314 35.12106,8.64748 8.94117,-0.24479 37.14694,1.78697 44.71924,-20.096 4.00092,-11.56253 -8.85553,-30.4664 -17.81276,-36.43987 -2.36977,-1.58065 -5.52368,-3.56106 -9.65036,-5.15835 -3.05623,-2.74576 -3.80153,-5.79916 -3.40815,-6.84135 0.0267,-0.0716 0.81759,-1.42029 0.42955,-1.54467 -1.2886,-0.4141 -2.88496,0.59608 -4.46659,1.82026 -1.7422,1.34604 -3.47101,2.96748 -4.78369,3.28279 -1.79038,0.43074 -1.47725,-4.91337 -2.20385,-5.37988 -0.27432,-0.17537 -0.52988,-0.20775 -0.80285,-0.1378 z"
         style="clip-rule:evenodd;fill:#a13813;fill-rule:evenodd;stroke:#000000;stroke-width:2.9468px;stroke-linecap:round;stroke-linejoin:round;stroke-miterlimit:4"
         id="path637" />
      <path
         d="m -306.64383,31.20945 c -0.99152,0 1.0464,-0.11096 1.31805,-0.14853 1.45584,-0.19881 2.85819,-0.29742 4.34345,-0.29742 3.53126,0 10.20033,-0.1342 7.91083,5.34929 -1.36617,3.27261 -7.07316,6.23115 -10.54819,4.0122 -1.88807,-1.20486 -4.12002,-4.06607 -4.49736,-6.2401 -0.12976,-0.74477 -0.22749,-2.28695 0.77475,-2.52655 0.0642,-0.018 1.4157,-0.14854 0.69847,-0.14854 z"
         style="clip-rule:evenodd;fill-rule:evenodd;stroke:#000000;stroke-width:2.9468px;stroke-linecap:round;stroke-linejoin:round;stroke-miterlimit:4"
         id="path640" />
      <path
         d="m -343.90716,29.89937 c 4.15613,0.57031 17.23604,6.47218 18.53134,10.19858"
         style="clip-rule:evenodd;fill:none;fill-rule:evenodd;stroke:#000000;stroke-width:2.9468px;stroke-linecap:round;stroke-linejoin:round;stroke-miterlimit:4"
         id="path643" />
      <path
         d="m -268.14941,37.83534 c 2.44739,-3.64551 17.45281,-9.17554 21.98094,-8.06805"
         style="clip-rule:evenodd;fill:none;fill-rule:evenodd;stroke:#000000;stroke-width:2.9468px;stroke-linecap:round;stroke-linejoin:round;stroke-miterlimit:4"
         id="path646" />
      <path
         d="m -328.51233,47.63024 c -2.7391,-2.02409 -7.52414,-0.93843 -10.34084,0.33067 -0.66236,0.29866 -4.06382,2.72145 -3.73063,2.78427"
         style="clip-rule:evenodd;fill:none;fill-rule:evenodd;stroke:#000000;stroke-width:2.9468px;stroke-linecap:round;stroke-linejoin:round;stroke-miterlimit:4"
         id="path649" />
      <path
         d="m -267.10836,45.22033 c -1.31268,0.1795 3.00937,-1.13702 3.2703,-1.1934 1.4291,-0.31155 2.54374,-0.49623 3.97148,-0.68842 5.9532,-0.80883 10.57098,0.0573 15.87786,2.49579"
         style="clip-rule:evenodd;fill:none;fill-rule:evenodd;stroke:#000000;stroke-width:2.9468px;stroke-linecap:round;stroke-linejoin:round;stroke-miterlimit:4"
         id="path652" />
      <path
         d="m -306.40734,50.26345 c -1.59282,0.64886 2.04917,7.96729 3.32901,9.19308 0.77145,0.73835 8.64672,0.89778 9.66139,0.24998 0.85395,-0.54507 1.25328,-9.01539 0.65321,-9.13061 -1.70117,-0.32605 -12.81057,-0.65191 -13.64361,-0.31245 z"
         style="clip-rule:evenodd;fill:#fafaf9;fill-rule:evenodd;stroke:#000000;stroke-width:2.94542px;stroke-linecap:round;stroke-linejoin:round;stroke-miterlimit:4"
         id="path655" />
      <path
         d="m -299.68343,50.82587 c 0,2.04788 0.20462,6.39631 1.17541,8.25559"
         style="clip-rule:evenodd;fill:#fafaf9;fill-rule:evenodd;stroke:#000000;stroke-width:2.94542px;stroke-linecap:round;stroke-linejoin:round;stroke-miterlimit:4"
         id="path658" />
      <path
         d="m -312.86998,45.90875 c 2.92108,3.31751 6.77611,5.09662 13.13879,5.17104 4.95898,0.0573 9.736,-0.75371 13.88544,-4.49945"
         style="clip-rule:evenodd;fill:none;fill-rule:evenodd;stroke:#000000;stroke-width:2.9468px;stroke-linecap:round;stroke-linejoin:round;stroke-miterlimit:4"
         id="path661" />
      <path
         d="m -319.08544,25.55631 c 0,-1.16387 1.01161,-2.10748 2.2587,-2.10748 1.24711,0 2.25869,0.94361 2.25869,2.10748 0,1.16531 -1.01158,2.10746 -2.25869,2.10746 -1.24709,0 -2.2587,-0.94215 -2.2587,-2.10746 z"
         style="clip-rule:evenodd;fill-rule:evenodd;stroke:#000000;stroke-width:2.9468px;stroke-linecap:round;stroke-linejoin:round;stroke-miterlimit:4"
         id="path667" />
      <path
         d="m -278.29486,25.95626 c 0,-1.19592 1.06378,-2.16509 2.37778,-2.16509 1.31403,0 2.37916,0.96917 2.37916,2.16509 0,1.19465 -1.06513,2.16384 -2.37916,2.16384 -1.314,0 -2.37778,-0.96919 -2.37778,-2.16384 z"
         style="clip-rule:evenodd;fill:#080500;fill-rule:evenodd;stroke:#000000;stroke-width:2.9468px;stroke-linecap:round;stroke-linejoin:round;stroke-miterlimit:4"
         id="path670" />
      <path
         d="m -309.28847,65.8283 c 0.33761,0 4.56195,-0.4105 4.49043,-0.0805 -0.53216,2.47629 6.15556,9.51019 12.61581,8.77774 8.86068,-1.00282 10.06805,-7.42291 10.86916,-7.42291 h 17.61408 c 0.81539,0 5.27291,-0.72242 5.64486,-0.22604 0.35906,0.47924 -0.0286,13.80459 -0.45061,14.22654 -1.69233,1.69231 -7.44734,0.18164 -9.48442,-0.22457 -0.33043,-0.068 -0.75387,-0.75391 -0.90408,-0.45202 -0.10594,0.21312 0.12007,0.4649 0.22601,0.67659 1.3118,2.62499 6.78072,33.6445 5.76646,36.05798 -4.03407,9.60733 -62.77009,9.18969 -60.96336,1.02412 0.19455,-0.87971 0.36478,-2.52765 0.45207,-3.38749 0.71382,-7.14539 7.79491,-29.37158 6.8708,-30.75773 -0.36906,-0.5551 -7.61756,2.68655 -8.3557,1.58065 -0.96702,-1.45198 -3.89532,-18.25337 -3.16145,-18.74407 1.43481,-0.95557 13.30963,-0.90564 18.76994,-1.04862 z"
         style="clip-rule:evenodd;fill:#fd9800;fill-rule:evenodd;stroke:#000000;stroke-width:3.06134px;stroke-linecap:round;stroke-linejoin:round;stroke-miterlimit:10"
         id="path681" />
      <path
         style="color:#000000;clip-rule:nonzero;fill:#fefdff;fill-rule:nonzero;stroke-width:1.78948;stroke-linecap:butt;stroke-linejoin:miter;stroke-miterlimit:10;-inkscape-stroke:none"
         d="m -293.97187,80.82486 c -2.13064,0.22188 -4.39111,0.78092 -6.73852,1.70556 v 0 c -2.63813,1.03806 -2.84789,2.73592 -3.18402,3.84807 -0.33613,1.11199 -0.49588,2.20948 -0.61862,3.44617 -0.24546,2.47306 -0.27448,5.44288 -0.19222,8.56983 0.16444,6.25385 0.7353,12.80692 1.53781,16.52117 0.41452,1.86285 2.06211,3.19135 3.97042,3.20156 6.26652,0.60698 11.39039,-0.14674 15.25248,-2.07616 3.95346,-1.9754 6.81234,-5.48904 6.83289,-9.59392 0.0201,-4.0113 -2.77524,-7.48305 -6.6861,-9.50661 2.80086,-2.40954 4.61024,-5.75818 3.71878,-9.08016 -0.98939,-3.68705 -4.28681,-5.88523 -7.93732,-6.7211 -1.82525,-0.41783 -3.82497,-0.5329 -5.95558,-0.31102 z m 0.84579,8.15052 c 1.33075,-0.13777 2.4461,-0.059 3.28536,0.13242 1.67857,0.38439 1.91426,1.07477 1.85938,0.87024 -0.0549,-0.20436 0.37431,-0.018 -1.31413,1.17782 -1.20753,0.85556 -3.81892,1.7657 -7.14044,2.5305 0.0309,-1.00102 -0.0124,-2.30161 0.063,-3.05821 0.0426,-0.42857 0.0875,-0.55385 0.13978,-0.86683 1.08288,-0.32335 2.20623,-0.69323 3.10711,-0.78629 z m -2.99178,13.76002 c 3.76725,0.0555 6.82268,0.53666 8.47905,1.35266 2.18199,1.07513 2.35043,1.96162 2.34868,2.31381 -0.003,0.35216 -0.23235,1.27894 -2.31023,2.31719 -1.57634,0.78772 -4.40825,1.23293 -7.86043,1.25119 -0.26794,-1.93604 -0.45657,-4.37668 -0.65707,-7.23485 z"
         id="path684"
         sodipodi:nodetypes="csssssccsscssccccsscsccccssscc" />
    </g>
  </g>
</svg>
