<?xml version="1.0" encoding="UTF-8"?>
<svg id="svg1069" width="93.144mm" height="142.62mm" version="1.1" viewBox="0 0 93.144 142.62" xmlns="http://www.w3.org/2000/svg" xmlns:cc="http://creativecommons.org/ns#" xmlns:dc="http://purl.org/dc/elements/1.1/" xmlns:rdf="http://www.w3.org/1999/02/22-rdf-syntax-ns#">
 <metadata id="metadata1066">
  <rdf:RDF>
   <cc:Work rdf:about="">
    <dc:format>image/svg+xml</dc:format>
    <dc:type rdf:resource="http://purl.org/dc/dcmitype/StillImage"/>
   </cc:Work>
  </rdf:RDF>
 </metadata>
 <g id="layer1" transform="translate(-53.025 -52.632)">
  <g id="g1232" transform="translate(189.46 10.135)">
   <path id="path888-0" d="m-133.24 161.77c-.51726 7.9372 10.995 16.802 16.251 19.042 15.756 6.7133 36.264 2.6752 52.286-.66226 6.9861-1.4552 16.728-5.6631 18.018-12.915 1.7907-10.071-7.2326-15.832-16.251-16.889-17.386-2.037-36.18-.90011-53.346 2.318-2.8279.53023-16.579 3.2988-16.958 9.107z" fill="#f6851f" fill-rule="evenodd" stroke="#000000" stroke-linecap="round" stroke-linejoin="round" stroke-width="1.3229" style="clip-rule:evenodd"/>
   <path id="path890-9" d="m-121.25 156.21c8.9244-2.9691 18.431-3.1107 27.705-4.0422 11.079-.71924 22.431-1.5688 33.317 1.1452 2.9421 1.0602 6.7379 1.8161 8.1614 4.9459.7983 3.2836-1.9839 6.2186-4.4095 8.0272-6.2237 4.2507-14.023 4.0747-21.21 5.0678-8.8731 1.0043-17.81 1.1739-26.724 1.5293-5.3954-.0213-10.909-.1593-16.114-1.6938-3.5378-1.3443-7.5257-3.057-9.2983-6.6234-.84068-2.613 1.4878-5.0219 3.4922-6.3705 1.5561-.97386 3.3556-1.4161 5.0801-1.9855z" fill="#f0a45f" fill-rule="evenodd" style="clip-rule:evenodd;stroke-linecap:round;stroke-linejoin:round;stroke-width:.26458"/>
   <path id="path1015-3" d="m-54.63 153.63c.20735-.0245.52931-.0683.63472.0775.25233.34934.95903 6.843.67962 7.0915-.32656.29012-1.2744.005-1.5461.006-1.8034.007-4.7742.009-6.0481 1.0139-2.4418 1.9254-2.8114 6.3061-6.3135 7.4058-1.4746.46288-3.113-1.2112-4.7518-1.1644-1.6652.0475-2.3813 2.0456-4.0882 1.8372-.92741-.11323-1.2915-1.3257-2.1436-1.4297-.95659-.11679-2.6735 1.3728-3.3034 1.7381-3.0125 1.7478-6.4502 3.2912-10.276 4.0017-1.4997.2783-5.3228.97528-6.6923-.0385-1.5722-1.1635-2.49-3.5825-4.631-4.2643-2.2046-.70177-4.2672 1.3318-6.7629.53718-1.0346-.32943-3.1269-1.3086-3.8733-2.0303-.94989-.91882-.91975-1.6242-2.2804-2.4199-2.4205-1.4156-8.9335-3.4944-9.8436-5.8741-.31641-.82735 1.6526-2.0055.976-3.7746-.25146-.65736-1.9594-4.1111-1.4918-4.6596 1.0469-1.2281 4.6576-1.2764 6.1886-2.1647 1.2249-.71065 1.8136-2.2517 2.7057-3.1739.86275-.89177 1.9954-1.1431 3.2798-1.5464 2.4875-.78106 5.5115.98476 7.1767.29218 1.8862-.7846 2.664-2.7624 3.838-4.009 1.1924-1.2663 3.6065-1.594 5.6106-1.6512 4.209-.12012 5.8766 3.6247 9.5002 4.4694 3.225.7519 5.1792-2.6903 8.8868-1.0565 2.4538 1.0814 2.0932 4.6027 5.0214 5.2854 3.1715.73937 3.1442-3.8991 6.3525-3.5074 1.0789.13172 4.8672 4.9568 5.4589 5.9228.56942.93005.95891 2.9457 2.4172 3.41 1.8243.58084 3.5773-.11771 5.3197-.32392z" fill="#38b82c" fill-rule="evenodd" stroke="#010101" stroke-linecap="round" stroke-linejoin="round" stroke-width="1.3945" style="clip-rule:evenodd"/>
   <path id="path1017-1" d="m-92.505 147.91c.57837 1.4898 3.5241 1.7821 4.7342 3.3049 2.1075 1.5485 4.2692 3.2557 5.3948 5.6865-5.1959.0988-10.59.14599-15.48-1.8137-3.3997-2.1262-7.2451-3.321-11.07-4.4264 2.7021 1.3959 5.6917 2.2637 8.157 4.0948-.20618.28391-3.6694-.29739-5.0857-.0331-4.971.2247-9.8075 1.8235-14.32 3.8071-2.5381 2.2272 1.8093.25988 2.8581.0346 6.9932-2.0648 14.584-2.9004 21.68-.82433 2.7632.73948-2.4241 2.1875-3.2587 3.0756-2.9666 1.5395-6.221 2.4923-9.0498 4.3024 6.1806-.94118 11.235-5.512 17.513-6.202 2.0501 1.0018 6.1481.32744 6.9596 2.3918-2.1061 2.5221-4.6916 4.6782-7.664 6.103.43974 1.0893 3.6139-.92883 4.8815-1.2739 3.1223-.7615 4.6982-4.8027 7.9202-4.5484 6.6297.64938 13.147-1.1174 19.633-2.1874 1.7741.31452 4.8165.32056 3.6025-2.3807-.39135-.37598.36043-1.4801-.28305-1.3698-5.2154.8943-16.894 1.6247-21.852-1.423-4.8364-2.6688-9.697-5.557-15.269-6.3181z" fill="#d3fa9a" fill-rule="evenodd" stroke="#d3fa9a" stroke-linecap="round" stroke-linejoin="round" stroke-width="1.3945" style="clip-rule:evenodd"/>
   <path id="path897-8" d="m-132.04 142.99c0-.0741-.23744 2.1772-.23744 3.2456 0 1.865-.33142 5.3427 1.3979 6.6397.81341.61013 2.688.53552 3.6694.69903 4.8362.80592 9.6479 1.4031 14.503 2.0968 4.7855.68368 10.25.30295 15.027-.17489 10.73-1.0729 21.714-1.116 32.5-2.0968 4.5228-.4109 8.877-1.216 13.28-2.0966.78979-.15796 2.3646-.26802 2.9705-.87365 1.9748-1.9748 1.5462-8.4235 1.2232-11.008-.0582-.46434.0323-2.032-.17489-2.4463-1.7354-3.4708-12.393-4.6702-15.726-4.8924-16.945-1.1298-34.189-2.2426-50.847 1.9219-4.9205 1.2303-9.5197 3.537-13.979 5.7663-1.3354.66754-3.6067 3.2194-3.6067 3.2194z" fill="#794508" fill-rule="evenodd" stroke="#010101" stroke-linecap="round" stroke-linejoin="round" stroke-width="1.3229" style="clip-rule:evenodd"/>
   <path id="path900-8" d="m-132.27 143.66c.34664-1.5803-.10904 2.9163-.0192 3.8153-.38856 2.7732.64393 6.6392 4.2135 6.0521 6.6672.85906 13.297 2.203 20.02 2.5478 8.0476.0539 16.023-1.2984 24.065-1.4891 10.742-.53048 21.566-.84869 32.098-3.2377 3.4702.28546 4.5282-3.3295 4.4435-6.1489.02018-2.8274-.01911-5.779-.61304-8.4978-2.7068-2.9285-7.0613-3.2878-10.763-4.0396-8.3296-.991-16.734-1.2992-25.116-1.5436-11.621-.1322-23.487.48351-34.585 4.1992-3.9865 1.5721-7.965 3.2987-11.604 5.5645-3.9804 3.3323 2.4221 6.0562 5.3696 5.9553 6.855.68916 13.761.17637 20.639.29855 13.855-.032 27.752-.67113 41.418-3.084 5.0415-.74722 10.462-1.5215 14.541-4.8149l.11368-.2947" fill="#794508" fill-rule="evenodd" stroke="#010101" stroke-linecap="round" stroke-linejoin="round" stroke-width="1.3229" style="clip-rule:evenodd"/>
   <path id="path902-3" d="m-110.34 135.9c-1.5677.52255-5.0004 5.2745-6.532 6.6529-.83423.75089-1.5298 1.6312-2.4191 2.2982-.34899.26168-1.5248.72576-1.0888.72576.16616 0 .32253-.0804.48392-.12092" fill="none" fill-rule="evenodd" stroke="#010101" stroke-linecap="round" stroke-linejoin="round" stroke-width="1.3229" style="clip-rule:evenodd"/>
   <path id="path904-5" d="m-99.455 134.93c-2.8705 2.8707-4.4103 7.0128-7.8626 9.3141" fill="none" fill-rule="evenodd" stroke="#010101" stroke-linecap="round" stroke-linejoin="round" stroke-width="1.3229" style="clip-rule:evenodd"/>
   <path id="path906-9" d="m-86.63 134.09c-1.7251 2.5879-4.2487 4.9392-6.169 7.4996-.48445.64611-2.6694 3.3091-2.1773 3.1451" fill="none" fill-rule="evenodd" stroke="#010101" stroke-linecap="round" stroke-linejoin="round" stroke-width="1.3229" style="clip-rule:evenodd"/>
   <path id="path908-1" d="m-72.6 134.09c-1.8426 2.7641-4.4818 5.3298-6.653 7.8626-.38682.45138-1.0869.84322-1.3306 1.3306" fill="none" fill-rule="evenodd" stroke="#010101" stroke-linecap="round" stroke-linejoin="round" stroke-width="1.3229" style="clip-rule:evenodd"/>
   <path id="path910-5" d="m-59.9 135.42c-2.1397 2.1397-4.4339 4.0712-6.5318 6.169" fill="none" fill-rule="evenodd" stroke="#010101" stroke-linecap="round" stroke-linejoin="round" stroke-width="1.3229" style="clip-rule:evenodd"/>
   <path id="path912-1" d="m-123.41 140.86c5.9664 0 11.716 1.4486 17.54 2.4194 1.2147.2024 2.137.96758 3.3869.96758" fill="none" fill-rule="evenodd" stroke="#010101" stroke-linecap="round" stroke-linejoin="round" stroke-width="1.3229" style="clip-rule:evenodd"/>
   <path id="path914-5" d="m-115.91 136.14c2.2048 0 4.912 1.0808 7.1366 1.4515 3.3803.56356 6.5783 1.3787 9.919 1.9354 2.4265.40454 4.9683.12276 7.3787.60483 2.9821.59637 6.1468 1.6936 9.1932 1.6936" fill="none" fill-rule="evenodd" stroke="#010101" stroke-linecap="round" stroke-linejoin="round" stroke-width="1.3229" style="clip-rule:evenodd"/>
   <path id="path916-5" d="m-97.156 134.21c1.4467.36195 3.0162.39634 4.4754.60484 4.2304.6043 8.2095 2.3193 12.338 3.1451 3.0303.60616 6.168.56065 9.3141.84666 2.8678.26088 5.6123 1.5727 8.4672 1.5727" fill="none" fill-rule="evenodd" stroke="#010101" stroke-linecap="round" stroke-linejoin="round" stroke-width="1.3229" style="clip-rule:evenodd"/>
   <path id="path918-2" d="m-75.02 134.45c2.4741 0 4.7551 1.098 7.1366 1.6933 3.5647.89112 9.1004.67945 12.338 2.2984" fill="none" fill-rule="evenodd" stroke="#010101" stroke-linecap="round" stroke-linejoin="round" stroke-width="1.3229" style="clip-rule:evenodd"/>
   <path id="path923-8" d="m-93.998 120.73c-1.6849.0206-7.8602-1.4552-9.6573-1.4552-7.5872 0-13.884 9.021-21.696 10.583-2.043.40878-4.7884 3.0713-4.2333 5.2917 1.5152 6.0608 12.862 3.8536 16.933 3.175 5.7796-.96309 10.34.48074 15.875 1.5875 3.5044.70088 5.8174-1.2163 8.9958-1.8521 1.5222-.30427 3.986-.65696 5.5562-.26458 1.2687.31724 2.8459 1.3359 4.2333 1.0583 3.6486-.72972 7.0088-2.5458 10.583-3.4396 3.1059-.77655 16.263 1.0927 17.198-2.6458 1.0081-4.0328-3.3959-7.2649-7.1438-8.2021-2.3596-.58975-6.4257-.19658-8.7312.26459-3.7769.75538-8.5151-.18442-12.171-.79375-4.7937-.79878-10.474-3.3718-15.743-3.3073z" fill="#f14b09" fill-rule="evenodd" stroke="#010101" stroke-linecap="round" stroke-linejoin="round" stroke-width="1.3229" style="clip-rule:evenodd"/>
   <path id="path925-9" d="m-117.15 130.38c-.47054 3.5152 4.5092 1.6436 4.5527-.8013.19935-2.725-4.3492-.67096-4.5527.8013z" fill="#f1d509" fill-rule="evenodd" stroke="#010101" stroke-linecap="round" stroke-linejoin="round" stroke-width="1.3229" style="clip-rule:evenodd"/>
   <path id="path927-1" d="m-104.18 123.11c-.96717 1.4448-.28731 3.5858 1.678 2.6181 2.6913.86065 3.248-3.0547.76145-3.6338-.92328-.38082-2.1569-.0299-2.4395 1.0157z" fill="#f1d509" fill-rule="evenodd" stroke="#010101" stroke-linecap="round" stroke-linejoin="round" stroke-width="1.3229" style="clip-rule:evenodd"/>
   <path id="path929-9" d="m-86.59 129.06c-2.5097.95967-1.4993 3.4194.92961 2.908 2.948 1.0486 3.4454-3.5553.43681-3.3008-.47949-.004-.9691.11688-1.3664.39275z" fill="#f1d509" fill-rule="evenodd" stroke="#010101" stroke-linecap="round" stroke-linejoin="round" stroke-width="1.3229" style="clip-rule:evenodd"/>
   <path id="path931-0" d="m-71.38 127.21c-1.2756 2.427 1.1023 3.603 3.1644 2.7533 2.4914-.20082.59821-4.3873-1.5273-3.3288-.57275.0975-1.1296.29243-1.6371.57545z" fill="#f1d509" fill-rule="evenodd" stroke="#010101" stroke-linecap="round" stroke-linejoin="round" stroke-width="1.3229" style="clip-rule:evenodd"/>
   <path id="path933-3" d="m-105.9 130.38c-.58252 1.5826.97661 3.718 2.1582 1.5943 2.1824-2.0699-1.0213-3.8839-2.1582-1.5943z" fill="#128e1e" fill-rule="evenodd" stroke="#010101" stroke-linecap="round" stroke-linejoin="round" stroke-width="1.3229" style="clip-rule:evenodd"/>
   <path id="path935-5" d="m-93.998 125.36c-1.5753 2.244 1.6179 4.0026 2.6502 1.5807 1.3526-1.7456-.68796-3.833-2.2346-1.9228l-.20362.1625z" fill="#128e1e" fill-rule="evenodd" stroke="#010101" stroke-linecap="round" stroke-linejoin="round" stroke-width="1.3229" style="clip-rule:evenodd"/>
   <path id="path937-1" d="m-78.65 125.75c-2.7154 1.3851 2.4847 3.5594 1.8622.81465-.43147-.52302-1.1726-.91685-1.8622-.81465z" fill="#128e1e" fill-rule="evenodd" stroke="#010101" stroke-linecap="round" stroke-linejoin="round" stroke-width="1.3229" style="clip-rule:evenodd"/>
   <path id="path939-0" d="m-61.98 128.53c.28493 1.3182.15997 2.7669 2.0912 2.238 1.6698.30993 3.2301-.0596 2.5229-2.0496.0853-2.507-4.6148-2.1468-4.6141-.18846z" fill="#128e1e" fill-rule="evenodd" stroke="#010101" stroke-linecap="round" stroke-linejoin="round" stroke-width="1.3229" style="clip-rule:evenodd"/>
   <path id="path941-4" d="m-92.675 134.09c-1.3783 1.0045-5.2411-.21865-3.9871-2.3445 1.2601-.67368 5.0597.58827 3.9871 2.3445z" fill="#128e1e" fill-rule="evenodd" stroke="#010101" stroke-linecap="round" stroke-linejoin="round" stroke-width="1.3229" style="clip-rule:evenodd"/>
   <path id="path1029-5" d="m-89.46 101.24c-1.904-.21503-5.1224 1.4123-7.5133 1.9375-7.0277 2.0359-13.543 5.4502-20.551 7.5381-3.681 1.2895-7.4234 2.5182-10.902 4.2816-3.6174 2.5547 1.8762 4.0986 3.9806 4.4693 6.774 2.9182 13.769 5.2804 20.823 7.4103 3.8655 1.5798 7.6406 3.3923 11.319 5.357 3.7994 1.1154 6.9419-2.1464 10.281-3.3829 6.4777-3.5522 13.43-6.139 20.137-9.2182 3.8099-1.6528 7.8762-2.9051 11.328-5.2461 1.5139-2.8233-4.1801-2.834-5.9585-3.7695-5.3078-1.4404-10.917-1.7632-15.958-4.1433-4.9735-1.916-10.332-2.768-15.092-5.2397-.44238.24293-3.187-1.1331-1.8938.006z" fill="#f0c812" fill-rule="evenodd" stroke="#070c00" stroke-linecap="round" stroke-linejoin="round" stroke-width="1.3229" style="clip-rule:evenodd"/>
   <path id="path1020-2" d="m-99.66 93.143c-8.8504.72402-17.331 3.6132-25.655 6.5298-3.3317 1.5001-2.2382 6.8333 1.3592 7.0133 9.5195 2.9364 19.592 1.2366 29.24-.026 3.9408-.73177 8.5701-1.6964 10.772-5.4225 1.5405-3.6011-1.9986-6.9337-5.3081-7.6368-3.3701-1.0415-6.9498-.68009-10.409-.45776zm-7.0707 3.3965c5.248-.53192 10.591-.70551 15.801.26247 3.4465 2.3415-1.4833 5.8462-4.1167 5.9363-6.946 2.239-14.319 2.1324-21.523 2.6113-2.4299-.20964-8.8134.60683-6.8683-3.5825 2.0648-2.4822 5.5484-2.7947 8.4517-3.742 2.716-.67302 5.4789-1.1454 8.2553-1.4855z" fill="#faf5b3" fill-rule="evenodd" stroke="#070c00" stroke-linecap="round" stroke-linejoin="round" stroke-width="1.3229" style="clip-rule:evenodd"/>
   <path id="path1022-0" d="m-88.25 96.999c-4.6645-.31713-9.4786-1.4023-14.034.19815-3.3148 1.074-6.6174 2.9636-8.5086 5.9658-1.5235 3.4355 1.4664 7.0149 4.7824 7.769 4.6598 1.4529 9.6162 1.5104 14.453 1.728 7.1372.0669 14.429-.50302 21.181-2.9448 3.4296-1.6285 2.8731-6.3675-.16795-8.0764-4.441-3.295-10.227-3.5094-15.495-4.3315-.73758-.0979-1.4748-.19863-2.2108-.30821zm4.686 3.2839c3.1156.69268 7.2191.21226 9.0699 3.3911.4978 3.3367-3.8652 4.5505-6.5016 4.5879-7.6298.25283-15.39 1.2168-22.942-.314-4.0254-.19893-3.8974-5.6504-.48357-6.7405 4.0696-2.8394 9.1994-1.8608 13.829-1.6428 2.3442.22346 4.677.56267 7.0275.71832z" fill="#faf5b3" fill-rule="evenodd" stroke="#070c00" stroke-linecap="round" stroke-linejoin="round" stroke-width="1.3229" style="clip-rule:evenodd"/>
   <path id="path1024-5" d="m-65.8 95.042c-8.7223-1.737-17.673-1.2683-26.495-.79469-3.7779.37998-4.6253 5.8557-.97812 7.1539 8.2576 5.4755 18.393 6.4557 27.94 7.9118 3.786.41793 7.9903.473 11.289-1.6896 2.9265-2.3439 1.8324-6.8456-1.093-8.6588-3.0401-2.4065-6.9657-3.1439-10.663-3.9227zm-7.8632 1.3089c5.148.93339 10.312 2.1816 14.992 4.5886 2.4396 3.3427-3.3144 5.0384-5.8598 4.518-7.294.24403-14.36-1.8642-21.417-3.3892-2.2773-.79799-8.6596-1.9648-5.3355-5.3165 3.227-1.9476 7.2451-1.0891 10.829-1.1617 2.275.14069 4.5412.40669 6.7925.76076z" fill="#faf5b3" fill-rule="evenodd" stroke="#070c00" stroke-linecap="round" stroke-linejoin="round" stroke-width="1.3229" style="clip-rule:evenodd"/>
   <path id="path946-2" d="m-87.72 73.887c-1.8296-.05026-3.7693.51706-5.4162 1.1023-3.2645 1.1391-6.3199 3.0095-8.5964 5.6369-.65771.69769-1.0934 1.4965-1.3358 2.3415-4.2269-1.9377-9.0657-1.626-13.591-1.3322-2.5829.44922-5.9244 2.1194-5.4679 5.2508.67095 4.7192 5.4587 7.2934 9.6785 8.2858 3.6706 1.0245 8.3989 1.3039 11.116-1.8784.53338-.68109.94469-1.489 1.219-2.3508.71207.53056 1.516.92666 2.3844 1.1343 4.648 1.5854 10.457.50125 13.799-3.1605.67435 4.7018 5.7552 7.2597 10.127 7.2202 5.3157.33121 11.392-.67929 15.004-4.9413 2.4608-3.9192 1.1952-10.204-3.2784-12.047-4.53-1.4618-9.1493.63598-13.371 2.1637-.88089.35224-1.7593.71062-2.6432 1.0552-1.3126.65068-2.7205 1.47-3.8266 2.5296.65726-3.2422-.0641-6.778-1.9208-9.4899-1.1008-1.0686-2.4574-1.4812-3.8804-1.5203z" style="clip-rule:evenodd;fill:#546821;stroke-linecap:round;stroke-linejoin:round;stroke-width:.26458"/>
   <path id="path946-3" d="m-103.07 82.966c-4.2899-2.1319-8.7435-1.5592-13.379-1.2582-2.5655.44618-5.8845 2.1054-5.431 5.2157.66643 4.6874 5.4217 7.2441 9.6131 8.2298 3.6458 1.0176 8.4789 1.4066 11.042-1.8657.50973-.65088.8835-1.4302 1.1163-2.269" fill="#546821" fill-rule="evenodd" stroke="#010101" stroke-linecap="round" stroke-linejoin="round" stroke-width="1.3229" style="clip-rule:evenodd;fill:none"/>
   <path id="path948-3" d="m-101.72 89.516c-.68036 2.8211-3.4682 5.2844-6.463 4.574-4.4076-.29043-9.4318-1.5828-11.814-5.6654-1.0938-2.9589 2.3702-5.1087 4.959-5.1 1.2299-.11667 2.4668-.0303 3.699-.0919v0c2.5566.14822 5.5073-.0411 7.7398 1.3309" fill="#546821" fill-rule="evenodd" stroke="#010101" stroke-linecap="round" stroke-linejoin="round" stroke-width="1.3229" style="clip-rule:evenodd;fill:none"/>
   <path id="path950-3" d="m-112.63 86.486c1.3861.35754 4.1881.58554 4.7073.89311-1.1227.44217-1.513 4.2186-2.6668 1.8334-.6079-1.3778-3.0725-2.2009-3.447-2.9382.47493.0254.93631.15025 1.4065.21161z" fill="#7f9d33" fill-rule="evenodd" stroke="#010101" stroke-linecap="round" stroke-linejoin="round" stroke-width="1.3229" style="clip-rule:evenodd"/>
   <path id="path952-9" d="m-114.83 87.856c-.93957-1.5574-4.2919.48812-1.451.81121.4506.0715 1.5508-.17717 1.451-.81121z" fill="#7f9d33" fill-rule="evenodd" stroke="#010101" stroke-linecap="round" stroke-linejoin="round" stroke-width="1.3229" style="clip-rule:evenodd"/>
   <path id="path954-7" d="m-112.88 89.616c-1.6014-.10954-1.5993 2.0597.0592 1.0594.42148-.21603.74719-1.1627-.0592-1.0594z" fill="#7f9d33" fill-rule="evenodd" stroke="#010101" stroke-linecap="round" stroke-linejoin="round" stroke-width="1.3229" style="clip-rule:evenodd"/>
   <path id="path956-4" d="m-107.02 90.146c-1.2259 1.4754 2.51 2.3469 1.2923.40894-.3223-.32643-.82907-.58789-1.2923-.40894z" fill="#7f9d33" fill-rule="evenodd" stroke="#010101" stroke-linecap="round" stroke-linejoin="round" stroke-width="1.3229" style="clip-rule:evenodd"/>
   <path id="path958-5" d="m-105.58 88.866c.60803 1.5879 2.9415-.37457.93566-.64625-.32521.071-.97731.20885-.93566.64625z" fill="#7f9d33" fill-rule="evenodd" stroke="#010101" stroke-linecap="round" stroke-linejoin="round" stroke-width="1.3229" style="clip-rule:evenodd"/>
   <path id="path960-2" d="m-108.69 85.616c1.4487.82403 2.6022-2.2417.41988-1.127-.45846.11287-1.2924.86779-.41988 1.127z" fill="#7f9d33" fill-rule="evenodd" stroke="#010101" stroke-linecap="round" stroke-linejoin="round" stroke-width="1.3229" style="clip-rule:evenodd"/>
   <path id="path962-8" d="m-111.35 84.986c-1.6461.0426-.92272-2.344.37356-.7459.31336.30176.0256.76159-.37356.7459z" fill="#7f9d33" fill-rule="evenodd" stroke="#010101" stroke-linecap="round" stroke-linejoin="round" stroke-width="1.3229" style="clip-rule:evenodd"/>
   <path id="path968-1" d="m-101.62 80.706c-3.487 3.6989-.68186 10.26 3.9764 11.374 5.3102 1.8113 12.149.11618 15.025-4.9502 1.6041-3.7276 1.043-8.2884-1.2293-11.607-2.4991-2.426-6.3257-1.4486-9.2337-.41527-3.2425 1.1314-6.2775 2.9892-8.5387 5.5988z" fill="#546821" fill-rule="evenodd" stroke="#010101" stroke-linecap="round" stroke-linejoin="round" stroke-width="1.3229" style="clip-rule:evenodd;fill:none"/>
   <path id="path970-1" d="m-96.804 79.446c2.9621-1.7663 6.189-3.6847 9.7738-3.4114 3.4845 1.5049 3.949 6.0423 2.955 9.2697-1.1103 3.6002-5.0806 5.0289-8.4753 5.4685-3.4784.54803-7.9492-.90254-8.8291-4.6977-.60973-3.1173 2.3951-5.0884 4.5756-6.629z" fill="#546821" fill-rule="evenodd" stroke="#010101" stroke-linecap="round" stroke-linejoin="round" stroke-width="1.3229" style="clip-rule:evenodd;fill:none"/>
   <path id="path972-4" d="m-94.532 82.546c1.3791-.19284 3.982-1.34 4.5395-1.09-1.0616.95231.32624 5.2529-1.6005 3.5156-1.0825-1.3645-3.1178-1.3272-4.3282-1.9936.41682-.24755.93821-.26183 1.3892-.43192z" fill="#7f9d33" fill-rule="evenodd" stroke="#010101" stroke-linecap="round" stroke-linejoin="round" stroke-width="1.3229" style="clip-rule:evenodd"/>
   <path id="path974-0" d="m-96.017 85.166c-1.4224-1.3009-3.7061 2.4681-1.008 1.6256.53727-.19515 1.3102-1.0108 1.008-1.6256z" fill="#7f9d33" fill-rule="evenodd" stroke="#010101" stroke-linecap="round" stroke-linejoin="round" stroke-width="1.3229" style="clip-rule:evenodd"/>
   <path id="path976-6" d="m-93.656 86.326c-1.4896.59662-.69195 3.1027.42581 1.216.23949-.34599.35247-1.6889-.42581-1.216z" fill="#7f9d33" fill-rule="evenodd" stroke="#010101" stroke-linecap="round" stroke-linejoin="round" stroke-width="1.3229" style="clip-rule:evenodd"/>
   <path id="path978-8" d="m-88.25 84.236c-.72928 1.761 2.7125 2.0852 1.5755.11856-.3674-.44069-1.178-.62768-1.5755-.11856z" fill="#7f9d33" fill-rule="evenodd" stroke="#010101" stroke-linecap="round" stroke-linejoin="round" stroke-width="1.3229" style="clip-rule:evenodd"/>
   <path id="path980-0" d="m-87.41 82.056c1.5448 1.6252 2.2319-2.2759.40064-1.0187-.2112.27139-.57955.64641-.40064 1.0187z" fill="#7f9d33" fill-rule="evenodd" stroke="#010101" stroke-linecap="round" stroke-linejoin="round" stroke-width="1.3229" style="clip-rule:evenodd"/>
   <path id="path982-5" d="m-91.333 79.696c1.6871.10382 1.498-3.6579-.0225-1.5179-.32888.38407-.90126 1.5214.0225 1.5179z" fill="#7f9d33" fill-rule="evenodd" stroke="#010101" stroke-linecap="round" stroke-linejoin="round" stroke-width="1.3229" style="clip-rule:evenodd"/>
   <path id="path984-6" d="m-93.922 80.186c-1.4667.77239-1.6978-2.2391.0702-1.0487.38766.25149.30144.82488-.0702 1.0487z" fill="#7f9d33" fill-rule="evenodd" stroke="#010101" stroke-linecap="round" stroke-linejoin="round" stroke-width="1.3229" style="clip-rule:evenodd"/>
   <path id="path990-8" d="m-83.94 88.906c.64931 4.6927 5.7114 7.2459 10.064 7.2065 5.2799.32897 11.316-.67476 14.903-4.9081 2.4442-3.8928 1.1872-10.135-3.2562-11.966-4.4994-1.452-9.0875.63197-13.28 2.1494-.87495.34986-1.7476.70556-2.6256 1.0478-1.2292.6093-2.5422 1.3677-3.6091 2.3343" fill="#546821" fill-rule="evenodd" stroke="#010101" stroke-linecap="round" stroke-linejoin="round" stroke-width="1.3229" style="clip-rule:evenodd;fill:none"/>
   <path id="path992-7" d="m-63.84 80.806c5.0322 1.6996 4.8627 10.013-.0516 11.757-4.6357 1.8856-10.116 2.6486-14.843.68289-3.0728-1.0377-4.0622-5.556-1.061-7.2842 4.5111-2.6988 11.594-5.5765 15.956-5.1558z" fill="#546821" fill-rule="evenodd" stroke="#010101" stroke-linecap="round" stroke-linejoin="round" stroke-width="1.3229" style="clip-rule:evenodd;fill:none"/>
   <path id="path994-6" d="m-73.36 86.756c1.6868-.19116 4.7145-1.1876 5.5297-1.0252-1.2175.83958.23187 4.7687-1.7767 3.4009-1.4285-1.0503-3.1291-1.679-4.9097-1.6781-1.4853-.31067.92919-.60062 1.1567-.69757z" fill="#7f9d33" fill-rule="evenodd" stroke="#010101" stroke-linecap="round" stroke-linejoin="round" stroke-width="1.3229" style="clip-rule:evenodd"/>
   <path id="path996-8" d="m-75.16 89.176c-1.2974-1.2288-4.5014 1.9827-1.5723 1.5479.6555.005 1.9442-.77133 1.5723-1.5479z" fill="#7f9d33" fill-rule="evenodd" stroke="#010101" stroke-linecap="round" stroke-linejoin="round" stroke-width="1.3229" style="clip-rule:evenodd"/>
   <path id="path998-9" d="m-72.29 90.246c-1.4001.36698-1.2947 2.6034.22301 1.4779.55469-.30581.86045-1.9836-.22301-1.4779z" fill="#7f9d33" fill-rule="evenodd" stroke="#010101" stroke-linecap="round" stroke-linejoin="round" stroke-width="1.3229" style="clip-rule:evenodd"/>
   <path id="path1000-7" d="m-65.71 88.316c-.70822 2.1043 3.7326 1.4856 1.5774-.11079-.48971-.21586-1.1516-.28198-1.5774.11079z" fill="#7f9d33" fill-rule="evenodd" stroke="#010101" stroke-linecap="round" stroke-linejoin="round" stroke-width="1.3229" style="clip-rule:evenodd"/>
   <path id="path1002-0" d="m-64.69 86.296c1.3491 1.4422 3.0239-1.6296.73817-1.102-.32223.21642-.9709.64534-.73817 1.102z" fill="#7f9d33" fill-rule="evenodd" stroke="#010101" stroke-linecap="round" stroke-linejoin="round" stroke-width="1.3229" style="clip-rule:evenodd"/>
   <path id="path1004-1" d="m-69.46 84.116c1.7527.33126 1.9853-3.2718.16656-1.577-.48462.3297-1.3709 1.6135-.16656 1.577z" fill="#7f9d33" fill-rule="evenodd" stroke="#010101" stroke-linecap="round" stroke-linejoin="round" stroke-width="1.3229" style="clip-rule:evenodd"/>
   <path id="path1006-5" d="m-72.62 84.576c-1.4018.77498-2.3728-1.8035-.23967-1.1089.61035.10144.92703.79521.23967 1.1089z" fill="#7f9d33" fill-rule="evenodd" stroke="#010101" stroke-linecap="round" stroke-linejoin="round" stroke-width="1.3229" style="clip-rule:evenodd"/>
   <path id="path864-6" d="m-133.1 79.396c4.5347 2.2717 18.026.42968 22.61 0 11.748-1.1012 23.464-1.3245 35.329-1.3245 6.1061 0 13.145.78079 19.078-.33126 6.6948-1.2549 12.342-3.4422 10.952-11.259-1.3515-7.6012-10.111-15.005-16.958-18.214-19.201-8.9993-46.292-5.7626-62.532 7.2856-5.2134 4.1886-8.2132 11.008-9.5388 17.22-.33046 1.5489-1.7336 5.2237 1.0599 6.623z" fill="#f6851f" fill-rule="evenodd" stroke="#000000" stroke-linecap="round" stroke-linejoin="round" stroke-width="1.3229" style="clip-rule:evenodd"/>
   <path id="path1651" d="m-90.994 45.252c-2.7144.88675 2.2266 3.0487.96671.74347-.22438-.34896-.6141-.54745-.96671-.74347zm8.3302 2.7404c-3.2453.59638 2.2553 4.3319 1.2323 1.1155-.2464-.49896-.62083-1.0566-1.2323-1.1155zm-25.805.47336c-2.9216.59667 1.5937 2.7069.20432.21837-.0681-.07279-.13621-.14558-.20432-.21837zm12.667.23254c-3.1253-.98166-.66569 5.2266.49806 2.1112.15922-.67289.46995-1.9078-.49806-2.1112zm26.423.70176c-2.0302 2.7574 4.2876 1.5933 1.0608.12061-.35148-.06119-.70521-.09501-1.0608-.12061zm-45.588 4.4431c-3.0812-.15502-.74547 5.8572.85027 2.8446.43538-.89206.75177-3.0526-.85027-2.8446zm52.837 1.1689c-3.0413 1.175 2.0502 3.7048 1.9693 1.0342-.52504-.54644-1.2492-.84456-1.9693-1.0342zm-12.15.46767c-3.3831 1.0913 3.0478 3.9377 1.4002.98322-.30442-.50935-.8549-.79948-1.4002-.98322zm12.344.85524c.21159.06521.1573.04848 0 0zm-43.374.07596c-2.5902.0065-1.1492 5.1546.79249 3.5193.67779-1.0749.52771-3.003-.79249-3.5193zm15.954.3545c-3.2961.86762 1.8664 5.04 1.597 1.7089-.13886-.80776-.66861-1.7153-1.597-1.7089z" style="-inkscape-stroke:none;color:#000000;fill-rule:evenodd;fill:#f6cb1f;stroke-linecap:round;stroke-linejoin:round;stroke-width:.26458"/>
  </g>
 </g>
</svg>
