<?xml version="1.0" encoding="UTF-8" standalone="no"?>
<!-- Created with Inkscape (http://www.inkscape.org/) -->

<svg
   width="148.11066mm"
   height="145.1497mm"
   viewBox="0 0 148.11066 145.1497"
   version="1.1"
   id="svg3471"
   sodipodi:docname="2022-LV-03-explanationC.svg"
   inkscape:version="1.1.1 (3bf5ae0d25, 2021-09-20)"
   xmlns:inkscape="http://www.inkscape.org/namespaces/inkscape"
   xmlns:sodipodi="http://sodipodi.sourceforge.net/DTD/sodipodi-0.dtd"
   xmlns="http://www.w3.org/2000/svg"
   xmlns:svg="http://www.w3.org/2000/svg">
  <sodipodi:namedview
     id="namedview3473"
     pagecolor="#ffffff"
     bordercolor="#666666"
     borderopacity="1.0"
     inkscape:pageshadow="2"
     inkscape:pageopacity="0.0"
     inkscape:pagecheckerboard="0"
     inkscape:document-units="mm"
     showgrid="false"
     inkscape:zoom="0.23464825"
     inkscape:cx="782.02162"
     inkscape:cy="1195.4063"
     inkscape:window-width="1920"
     inkscape:window-height="1137"
     inkscape:window-x="-8"
     inkscape:window-y="-8"
     inkscape:window-maximized="1"
     inkscape:current-layer="layer1" />
  <defs
     id="defs3468" />
  <g
     inkscape:label="Ebene 1"
     inkscape:groupmode="layer"
     id="layer1"
     transform="translate(-261.74,42.625197)">
    <g
       id="g4239"
       style="clip-rule:evenodd;fill-rule:evenodd;stroke-linecap:round;stroke-linejoin:round;stroke-miterlimit:1.5"
       transform="matrix(0.26458333,0,0,0.26458333,-376.28824,-777.98923)">
      <g
         transform="matrix(0.839423,0,0,0.839423,2056.82,2459.08)"
         id="g528">
        <path
           d="m 1066.15,392.719 -631.049,12.764 c -0.417,221.909 -11.954,433.519 25.386,625.697 211.329,-4.18 430.269,-21.12 628.843,-3.93 -17.51,-198.357 -17.08,-420.835 -23.18,-634.531 z"
           style="fill:#b7b7b7"
           id="path526" />
      </g>
      <g
         transform="matrix(0.839423,0,0,0.839423,2048.9,2453.92)"
         id="g644">
        <path
           d="m 1066.15,392.719 -631.049,12.764 c -0.417,221.909 -11.954,433.519 25.386,625.697 l 622.453,-15.66 z"
           style="fill:#fff7d8;stroke:#000b7c;stroke-width:2.38px"
           id="path642" />
      </g>
      <g
         transform="rotate(92.703548,1937.4405,3763.1621)"
         id="g648">
        <path
           d="m 1018.92,2847.61 c 140.11,106.78 268.51,226.1 390.77,352.01 -37.8,7.39 -65.17,24.01 -85.64,46.7 -114.64,-123.41 -234.61,-235.23 -365.119,-324.2 z"
           style="fill:#fbe94a"
           id="path646" />
      </g>
      <g
         transform="translate(-607.326,1066.45)"
         id="g654">
        <path
           id="path652"
           style="fill:#000b7c"
           d="m 2570.4219,2843.8105 c -0.6277,-0.032 -1.3046,0.022 -2.0371,0.1895 -0.6,0.14 -2.4109,0.4892 -4.3809,2.4492 -1.06,1.06 -3.1995,3.4706 -6.0195,6.8906 -5.977,7.2211 -15.4196,19.1359 -24.7403,31.1407 -13.6964,-15.6039 -25.3536,-28.5072 -28.291,-31.8614 -0.6,-3.62 -3.7395,-6.3789 -7.5195,-6.3789 -3.75,0.1 -5.7587,1.8497 -6.8887,3.9297 -0.76,1.39 -1.4012,3.2092 -0.9511,5.4492 0.32,1.59 2.101,4.7506 3.291,6.0606 1.2824,1.4223 15.6403,15.6876 32.4804,33.0137 -8.3307,10.8729 -15.7132,20.7488 -19.1406,25.8164 -4.5,6.65 -9.9112,12.4504 -14.7812,18.7304 -2.21,2.84 -4.3193,5.78 -6.1993,8.92 -1.2,1.88 -0.64,4.39 1.25,5.58 1.88,1.2 4.3801,0.6498 5.5801,-1.2402 1.86,-2.75 3.9303,-5.2898 6.0703,-7.7598 5.36,-6.17 11.2288,-11.8208 16.2188,-18.3808 3.5122,-4.6159 10.8524,-13.3859 19.2226,-23.1485 8.433,8.7701 17.0358,17.8578 24.668,26.2598 8.78,9.67 16.2302,18.3085 20.4102,24.2285 1.18,1.67 2.0906,3.071 2.6406,4.211 0.16,0.33 0.3691,0.8203 0.3691,0.8203 0,0 3e-4,-0.151 -0.01,-0.211 0,2.23 1.8207,4.041 4.0507,4.041 2.23,0 4.0489,-1.811 4.0489,-4.041 0.03,-1.43 -0.7293,-3.9003 -2.5293,-7.0703 -2.46,-4.34 -7.0108,-10.6486 -12.8008,-18.0586 -9.0802,-11.6292 -21.2243,-25.9521 -32.8887,-39.3886 10.2901,-11.8496 20.9277,-23.8568 27.5098,-30.9629 1.88,-2.03 3.9196,-4.0898 4.8496,-5.0098 2.18,-1.34 3.6504,-3.7598 3.6504,-6.5098 -0.08,-2.88 -1.2814,-4.7 -2.6914,-5.83 -1.125,-0.915 -2.5585,-1.7838 -4.4414,-1.879 z m -4.6074,14.129 h 0.01 l 0.01,0.01 z"
           transform="translate(607.326,-1066.45)" />
      </g>
      <g
         transform="translate(-607.326,1066.45)"
         id="g666">
        <path
           id="path664"
           style="fill:#000b7c"
           d="m 2659.4102,2853.2129 c -0.8023,0 -1.5754,0.097 -2.3067,0.2578 -2.08,0.46 -4.0599,1.7486 -5.6699,4.3086 -2.13,3.63 -0.9093,8.3016 2.7207,10.4316 1.23,0.73 2.5897,1.0589 3.9297,1.0489 3.62,4.31 7.9697,11.7595 10.6797,14.7695 2.86,3.18 5.7897,6.2911 8.7597,9.3711 2.8378,2.9278 5.7162,5.8152 8.6094,8.6875 -3.2643,5.0163 -6.4118,10.1231 -9.4297,15.3125 -7.02,12.06 -13.3994,24.4687 -19.1894,36.9687 -1,1.99 -0.1795,4.4317 1.8105,5.4317 2,1 4.4297,0.1794 5.4297,-1.8106 6.39,-11.87 13.3499,-23.6302 20.9199,-34.9902 2.852,-4.2874 5.7933,-8.51 8.8223,-12.6562 6.2365,6.1463 12.4488,12.3168 18.4082,18.7363 1.3,1.4 9.5591,11.1401 14.3691,17.3301 -0.12,1.17 0.2702,2.3795 1.1602,3.2695 1.88,1.99 3.0896,2.9112 3.5996,3.2012 0.32,0.18 0.6202,0.3082 0.9102,0.4082 7.28,6.83 14.21,5.1201 5.33,-5.0899 -0.11,-0.55 -0.7189,-1.9295 -1.8789,-3.7695 -3.76,-5.91 -14.4514,-20.159 -15.9414,-21.959 -6.0621,-7.355 -12.4392,-14.4392 -18.8261,-21.5156 2.7436,-3.4824 5.5483,-6.9041 8.4277,-10.2442 3.04,-3.52 17.2802,-16.5001 23.2402,-21.9101 l 2.3184,-2.0899 c 1.66,-1.4 2.7207,-3.49 2.7207,-5.83 0,-4.21 -3.4192,-7.6211 -7.6192,-7.6211 -0.05,0 -2.7817,-0.4102 -5.5117,2.3398 -0.39,0.4 -1.2198,1.2409 -2.3398,2.3809 -5.91,6.06 -19.9892,20.6197 -22.9492,24.5097 -2.2751,2.9857 -4.4953,6.023 -6.67,9.1016 -2.0512,-2.3075 -4.1078,-4.6109 -6.1211,-6.9512 -2.69,-3.12 -5.3186,-6.28 -7.8886,-9.5 -2.17,-2.71 -5.3401,-8.8308 -8.3301,-13.3008 -2.51,-3.76 -5.2913,-6.4393 -7.2813,-7.5293 -1.4562,-0.7937 -2.8757,-1.091 -4.2128,-1.0976 z"
           transform="translate(607.326,-1066.45)" />
      </g>
      <g
         transform="translate(-607.326,1066.45)"
         id="g678">
        <path
           id="path676"
           style="fill:#000b7c"
           d="m 2864.2949,3000.7793 c -1.07,0.04 -3.2816,0.6209 -6.4316,2.6309 -2.75,1.9 -3.8698,5.2896 -3.0098,8.3496 -4.6912,6.5997 -12.6638,16.6219 -21.2988,27.1054 -1.9885,-2.8782 -3.9623,-5.7166 -5.8516,-8.3847 -6.19,-8.75 -11.709,-15.8703 -14.709,-18.7403 -4.51,-4.33 -9.0299,-3.0107 -10.6699,-2.2207 -3.71,1.98 -5.1208,6.6006 -3.1308,10.3106 0.94,1.77 2.4802,3.0091 4.2402,3.6191 1.38,1.29 4.6902,4.4711 7.4902,7.6211 4.3078,4.8551 9.4619,11.004 14.6875,17.3535 -11.0906,13.2171 -22.02,25.7753 -27.6074,31.7657 -1.57,1.58 -1.57,4.1407 0,5.7207 1.58,1.58 4.1505,1.58 5.7305,0 5.8623,-5.4716 17.1851,-16.7991 28.8926,-28.9024 6.3238,7.7713 12.3024,15.1834 16.3476,20.0313 2.64,3.16 4.5484,5.34 5.3984,6.08 2.07,1.81 3.9513,1.3902 4.5313,1.1602 0.99,-0.38 3.8995,-1.7995 2.5195,-5.4395 -0.34,-1 -1.0304,-1.7897 -1.9004,-2.2597 -0.49,-0.65 -1.3686,-1.8109 -2.1386,-2.8809 -3.7473,-5.2671 -10.1609,-14.806 -16.9688,-24.8086 11.3713,-11.9413 22.1058,-23.6285 27.4375,-30.3808 3.4,-4.3 4.7106,-7.7603 4.8906,-9.0703 0.36,-2.72 -0.74,-4.589 -1.83,-5.959 -1.31,-1.65 -3.3992,-2.8512 -6.6192,-2.7012 z"
           transform="translate(607.326,-1066.45)" />
      </g>
      <g
         transform="translate(-607.326,1066.45)"
         id="g690">
        <path
           id="path688"
           style="fill:#000b7c"
           d="m 2863.6328,3132.7266 c -2.4448,-0.064 -4.8769,1.0461 -6.4082,3.1836 -2.2342,3.3424 -10.1236,17.6988 -19.5957,34.6777 -3.8169,-4.0668 -9.0748,-9.6616 -10.9258,-11.6484 -1.7,-1.83 -3.8199,-4.3788 -5.9199,-6.9688 -4.45,-5.48 -8.7383,-11.1699 -8.7383,-11.1699 -2.65,-3.26 -7.4507,-3.7613 -10.7207,-1.1113 -3.26,2.65 -3.7594,7.4607 -1.1094,10.7207 0,0 4.8497,5.5701 9.8497,10.9101 2.51,2.68 5.0503,5.3192 7.0703,7.1992 2.4167,2.2512 8.9169,8.2546 14.2656,13.1993 -4.8398,8.5975 -9.8248,17.3605 -14.7168,25.6914 -6.9,11.74 -13.4295,22.3295 -18.4395,29.2695 -1.36,1.77 -1.0297,4.3197 0.7403,5.6797 1.77,1.36 4.3197,1.0297 5.6797,-0.7403 5.56,-6.78 12.8896,-17.1897 20.6797,-28.7597 4.9668,-7.3764 10.0707,-15.1745 15.0292,-22.836 10.2975,9.5239 21.1539,19.5811 27.5508,25.5957 2.39,2.24 4.12,3.8914 4.92,4.6914 l 0.1699,0.1602 c 0.36,0.52 0.8607,0.95 1.4707,1.25 0.89,0.49 8.4101,-2.2312 4.3301,-6.9512 -0.77,-0.89 -2.44,-2.7304 -4.75,-5.2304 -6.4112,-6.9431 -17.1988,-18.4504 -27.3965,-29.3145 11.0621,-17.2482 20.437,-32.1397 22.9668,-35.4551 2.44,-3.42 1.6487,-8.1789 -1.7813,-10.6289 -1.2825,-0.915 -2.7538,-1.3758 -4.2207,-1.414 z"
           transform="translate(607.326,-1066.45)" />
      </g>
      <g
         transform="translate(-607.326,1066.45)"
         id="g702">
        <path
           d="m 3454.15,1796.14 c -0.47,3.62 1.73,7.17 5.35,8.26 4.03,1.22 8.28,-1.06 9.5,-5.09 1.86,-6.46 -1,-12.47 -7.84,-16.54 -8.06,-4.78 -22.12,-6.61 -27.63,-5.31 -20.97,4.95 -35.35,19.38 -41.04,36.78 -5.59,17.12 -2.88,37.12 10.52,53.44 6.05,7.36 18.67,13.75 32.2,17.17 13.2,3.34 27.11,3.95 35.96,0.87 10.84,-3.77 18.27,-13.27 22.23,-24.95 5.38,-15.85 4.43,-35.52 -1.45,-47.6 -0.94,-2.02 -3.36,-2.89 -5.38,-1.94 -2.02,0.95 -2.89,3.36 -1.94,5.38 4.04,8.87 4.8,22.29 2.02,34.39 -2.64,11.48 -8.46,21.94 -18.65,25.19 -7.46,2.38 -19.04,1.19 -29.98,-1.88 -10.81,-3.04 -21.1,-7.94 -25.81,-13.99 -10.13,-13 -12.04,-28.62 -7.33,-41.86 4.63,-13.03 15.83,-23.62 31.77,-26.95 2.02,-0.42 5.86,0.2 9.66,1.21 2.99,0.79 6.01,1.84 7.84,3.42 z"
           style="fill:#bd2626"
           id="path700" />
      </g>
      <g
         transform="translate(-607.326,1066.45)"
         id="g708">
        <path
           d="m 3328.48,1945.77 c -1.18,-2.82 -3.78,-5.32 -8.03,-7.05 -6.42,-2.61 -17.98,-3.71 -25.36,-3.56 -4.02,0.08 -7.04,0.63 -8.24,1.13 -18.25,7.58 -31.28,25.85 -34.43,44.92 -3.23,19.53 3.48,39.72 24.56,49.92 28.85,13.95 53.11,1.55 63.74,-19.71 9.54,-19.07 8.01,-45.57 -12.24,-65.65 z m -14.55,6.56 c -0.1,-0.05 -0.2,-0.09 -0.29,-0.12 -1.78,-0.63 -3.93,-1.12 -6.19,-1.51 -4.94,-0.83 -10.34,-1.16 -13.85,-1.06 -0.69,0.02 -1.61,0.09 -1.9,0.12 -13.88,5.56 -23.78,19.35 -26.54,33.73 -2.75,14.32 1.67,29.37 17,37.28 22.07,11.4 41.15,2.39 49.82,-13.86 7.71,-14.45 7.44,-34.23 -5.25,-50.77 -2.05,2.01 -5.15,2.78 -8.01,1.71 -2.52,-0.94 -4.25,-3.07 -4.79,-5.52 z m 0.09,-3.58 c 0.06,-0.24 0.13,-0.47 0.22,-0.7 -0.09,0.23 -0.17,0.47 -0.22,0.7 z"
           style="fill:#bd2626"
           id="path706" />
      </g>
      <g
         transform="translate(-607.326,1066.45)"
         id="g714">
        <path
           d="m 3331.99,2081.68 c -1.36,-8.43 -7.95,-13.67 -17.02,-15.6 -10.46,-2.22 -24,0.22 -30.26,4.1 -14.02,8.66 -22.69,28.21 -23.4,47.88 -0.73,20.12 6.68,39.8 22.69,47.55 29.58,14.31 52.26,-2.18 61.22,-25.48 7.81,-20.34 4.81,-45.61 -13.23,-58.45 z m -2.66,8.59 c -1.23,0.97 -2.77,1.57 -4.46,1.62 -4.21,0.14 -7.73,-3.16 -7.86,-7.37 -0.04,-1.59 -1.21,-2.46 -2.59,-3.08 -1.75,-0.79 -3.81,-1.26 -5.97,-1.48 -6.11,-0.64 -12.99,0.3 -16.48,2.33 -10.82,6.31 -16.88,21.46 -17.82,36.4 -0.94,15.07 3.18,30.43 15.03,36.55 22.24,11.49 39.62,-1.19 46.9,-18.76 6.43,-15.51 5.5,-34.97 -6.75,-46.21 z"
           style="fill:#bd2626"
           id="path712" />
      </g>
      <g
         transform="translate(-607.326,1066.45)"
         id="g720">
        <path
           d="m 3165.21,2090.93 c 0.81,-0.6 1.51,-1.37 2.05,-2.3 1.16,-2.08 1.49,-4.27 0.83,-6.6 -0.41,-1.43 -1.26,-3.15 -3.01,-4.73 -1.43,-1.3 -3.9,-2.85 -7.18,-4.23 -9.77,-4.1 -27.62,-7.61 -36.04,-5.56 -21.06,5.11 -34.72,24.45 -37.91,45.64 -3.15,20.9 3.78,43.16 22.46,54.07 16.27,9.51 37.38,14.55 53.43,9.02 11.28,-3.9 20.42,-12.67 23.94,-28.75 1.12,-5.13 2.96,-10.66 3.6,-16.19 0.49,-4.26 0.33,-8.53 -1.1,-12.67 -2.37,-6.83 -5.98,-12.35 -10.31,-17.25 -3.28,-3.73 -6.97,-7.08 -10.76,-10.45 z m -16.51,-5.38 c -3.56,-1.3 -7.9,-2.49 -12.11,-3.3 -4.44,-0.86 -8.7,-1.42 -11.51,-0.8 -15.72,3.44 -25.53,18.12 -28.27,33.79 -2.77,15.9 1.58,33.23 15.65,41.9 13.32,8.2 30.63,13.34 44.05,9.06 8.32,-2.67 14.88,-9.19 17.73,-20.91 1.17,-4.81 3.08,-9.97 3.8,-15.17 0.4,-2.88 0.45,-5.77 -0.45,-8.59 -1.83,-5.7 -4.75,-10.31 -8.23,-14.45 -5.76,-6.85 -12.94,-12.48 -19.52,-19.22 -0.65,-0.65 -1.03,-1.46 -1.14,-2.31 z m 5.27,-4.39 v 0 l 0.08,-0.15 z"
           style="fill:#bd2626"
           id="path718" />
      </g>
      <g
         transform="matrix(-0.87326,0.0350914,0.0345064,0.858702,3301.62,2404.49)"
         id="g830">
        <path
           d="m 630.797,482.37 c 0,33.737 4.184,128.288 5.457,162.001 1.624,43.047 0.484,86.23 2.809,129.249 1.26,23.296 6.777,154.703 1.001,172.031"
           style="fill:none;stroke:#000000;stroke-width:11.54px"
           id="path828" />
      </g>
      <g
         transform="matrix(-0.0402373,-0.858453,-0.873015,0.0407268,3334.43,3500.72)"
         id="g854">
        <path
           d="m 630.797,482.37 c 0,33.737 4.184,128.288 5.457,162.001 1.624,43.047 0.484,86.23 2.809,129.249 1.26,23.296 6.777,154.703 1.001,172.031"
           style="fill:none;stroke:#000000;stroke-width:11.54px"
           id="path852" />
      </g>
      <g
         transform="matrix(-0.0221633,-0.859112,-0.87366,0.0229539,3317.51,3643.18)"
         id="g878">
        <path
           d="m 630.797,482.37 c 0,33.737 4.184,128.288 5.457,162.001 1.624,43.047 0.484,86.23 2.809,129.249 1.26,23.296 6.777,154.703 1.001,172.031"
           style="fill:none;stroke:#000000;stroke-width:11.54px"
           id="path876" />
      </g>
      <g
         transform="matrix(-0.87326,0.0350914,0.0345064,0.858702,3150.98,2410.33)"
         id="g902">
        <path
           d="m 630.797,482.37 c 0,33.737 4.184,128.288 5.457,162.001 1.624,43.047 0.484,86.23 2.809,129.249 1.26,23.296 6.777,154.703 1.001,172.031"
           style="fill:none;stroke:#000000;stroke-width:11.54px"
           id="path900" />
      </g>
    </g>
  </g>
</svg>
