<?xml version="1.0" encoding="UTF-8" standalone="no"?>
<!-- Created with Inkscape (http://www.inkscape.org/) -->

<svg
   width="148.11066mm"
   height="145.1497mm"
   viewBox="0 0 148.11066 145.1497"
   version="1.1"
   id="svg3471"
   sodipodi:docname="2022-LV-03-explanationA.svg"
   inkscape:version="1.1.1 (3bf5ae0d25, 2021-09-20)"
   xmlns:inkscape="http://www.inkscape.org/namespaces/inkscape"
   xmlns:sodipodi="http://sodipodi.sourceforge.net/DTD/sodipodi-0.dtd"
   xmlns="http://www.w3.org/2000/svg"
   xmlns:svg="http://www.w3.org/2000/svg">
  <sodipodi:namedview
     id="namedview3473"
     pagecolor="#ffffff"
     bordercolor="#666666"
     borderopacity="1.0"
     inkscape:pageshadow="2"
     inkscape:pageopacity="0.0"
     inkscape:pagecheckerboard="0"
     inkscape:document-units="mm"
     showgrid="false"
     inkscape:zoom="0.23464825"
     inkscape:cx="782.02162"
     inkscape:cy="1195.4063"
     inkscape:window-width="1920"
     inkscape:window-height="1137"
     inkscape:window-x="-8"
     inkscape:window-y="-8"
     inkscape:window-maximized="1"
     inkscape:current-layer="layer1" />
  <defs
     id="defs3468" />
  <g
     inkscape:label="Ebene 1"
     inkscape:groupmode="layer"
     id="layer1"
     transform="translate(-261.74,42.625197)">
    <g
       id="g4317"
       style="clip-rule:evenodd;fill-rule:evenodd;stroke-linecap:round;stroke-linejoin:round;stroke-miterlimit:1.5"
       transform="matrix(0.26458333,0,0,0.26458333,25.939735,-776.65976)">
      <g
         transform="matrix(0.839423,0,0,0.839423,535.748,2457.3)"
         id="g364">
        <path
           d="m 1066.15,392.719 -631.049,12.764 c -0.417,221.909 -11.954,433.519 25.386,625.697 211.329,-4.18 430.269,-21.12 628.843,-3.93 -17.51,-198.357 -17.08,-420.835 -23.18,-634.531 z"
           style="fill:#b7b7b7"
           id="path362" />
      </g>
      <g
         transform="matrix(0.839423,0,0,0.839423,527.824,2452.14)"
         id="g372">
        <path
           d="m 1059.29,384.988 c -207.379,7.155 -415.497,13.961 -624.189,20.495 15.938,241.433 4.707,453.408 25.386,625.697 l 622.453,-15.66 z"
           style="fill:#fff7d8;stroke:#000b7c;stroke-width:2.38px"
           id="path370" />
      </g>
      <g
         transform="translate(-7.97634,16.3462)"
         id="g376">
        <path
           d="m 1018.92,2847.61 c 140.11,106.78 268.51,226.1 390.77,352.01 -37.8,7.39 -65.17,24.01 -85.64,46.7 -114.64,-123.41 -234.61,-235.23 -365.119,-324.2 z"
           style="fill:#fbe94a"
           id="path374" />
      </g>
      <g
         transform="matrix(0.839423,0,0,0.839423,563.543,2453.23)"
         id="g384">
        <path
           d="m 630.797,482.37 c 0,33.737 4.184,128.288 5.457,162.001 1.624,43.047 0.484,86.23 2.809,129.249 1.26,23.296 6.777,154.703 1.001,172.031"
           style="fill:none;stroke:#000000;stroke-width:11.91px"
           id="path382" />
      </g>
      <g
         transform="matrix(0.00550957,-0.839405,0.839405,0.00550957,574.33,3524.4)"
         id="g392">
        <path
           d="m 630.797,482.37 c 0,33.737 4.184,128.288 5.457,162.001 1.624,43.047 0.484,86.23 2.809,129.249 1.26,23.296 6.777,154.703 1.001,172.031"
           style="fill:none;stroke:#000000;stroke-width:11.91px"
           id="path390" />
      </g>
      <g
         transform="matrix(-0.0118616,-0.83934,0.83934,-0.0118616,596.057,3662.78)"
         id="g400">
        <path
           d="m 630.797,482.37 c 0,33.737 4.184,128.288 5.457,162.001 1.624,43.047 0.484,86.23 2.809,129.249 1.26,23.296 6.777,154.703 1.001,172.031"
           style="fill:none;stroke:#000000;stroke-width:11.91px"
           id="path398" />
      </g>
      <g
         transform="matrix(0.839423,0,0,0.839423,708.335,2453.02)"
         id="g408">
        <path
           d="m 630.797,482.37 c 0,33.737 4.184,128.288 5.457,162.001 0.531,14.077 0.766,28.169 0.924,42.265 0.325,29.008 0.321,58.033 1.885,86.984 1.26,23.296 6.777,154.703 1.001,172.031"
           style="fill:none;stroke:#000000;stroke-width:11.91px"
           id="path406" />
      </g>
      <g
         transform="translate(-808.02,1049.75)"
         id="g416">
        <path
           id="path414"
           style="fill:#000b7c"
           d="m 987.20508,2867.623 c -1.10801,-0.05 -2.00547,0.099 -2.60547,0.2676 -1.96,0.54 -3.4093,1.7898 -4.5293,3.5098 -2.19,3.6 -1.05094,8.2905 2.53907,10.4805 0.98,0.6 2.04132,0.9386 3.11132,1.0586 1.24,0.92 3.41922,2.6009 5.19922,4.2109 8.20911,7.4098 20.59318,20.262 32.65038,33.4492 -4.1996,8.7235 -8.7392,17.5088 -13.3008,25.2695 -6.03,10.24 -11.90888,18.7102 -17.12888,22.4102 -1.85999,1.23 -2.37062,3.7513 -1.14062,5.6113 1.23,1.86 3.73937,2.3687 5.60938,1.1387 9.72852,-5.9972 22.79572,-25.3759 34.26172,-45.2285 9.3954,10.5328 17.928,20.5316 23.1797,27.3086 1.96,2.53 3.7387,5.1905 4.4687,6.3105 v 0.08 c 0,2.23 1.811,4.0391 4.041,4.0391 1.62,0.05 2.6595,-0.7182 3.4395,-1.6582 0.61,-0.74 1.2005,-2.0818 0.7305,-4.0918 -0.3,-1.25 -1.7598,-4.0189 -4.2598,-7.7989 -5.141,-7.7791 -15.0177,-20.8901 -25.8262,-34.4765 6.4654,-11.7923 12.0658,-22.9632 15.6856,-30.6836 2.21,-4.72 3.6893,-8.2096 4.2793,-9.8496 1.38,-3.81 0.041,-6.2808 -0.209,-6.8008 -0.99,-2.1 -2.6611,-3.1295 -4.3711,-3.7695 -1.55,-0.57 -4.5391,-1.1605 -7.7891,1.7695 -1.37,1.33 -2.1407,3.0408 -2.3007,4.8008 -0.5,1.45 -1.689,4.8793 -2.959,8.1093 -2.5903,6.5988 -6.4437,15.8107 -10.9434,25.7579 -4.0212,-4.9181 -8.0406,-9.7526 -11.8672,-14.2286 -9.83,-11.5 -18.54052,-20.75 -23.06052,-24.25 -2.625,-2.025 -5.05762,-2.662 -6.9043,-2.7461 z"
           transform="translate(808.02,-1049.75)" />
      </g>
      <g
         transform="translate(-808.02,1049.75)"
         id="g432">
        <path
           id="path430"
           style="fill:#000b7c"
           d="m 1191.0312,3011.3379 c -2.7025,0.1197 -5.2593,1.6727 -6.5312,4.2715 -0.59,1.22 -0.83,2.5115 -0.75,3.7715 -0.43,1.13 -1.1909,3.0482 -1.9609,4.6582 -2.8733,6.0245 -7.5896,14.7099 -12.8692,24.0039 -8.7869,-8.382 -17.1576,-16.1134 -23,-21.2227 -3.87,-3.39 -6.7992,-5.671 -8.1992,-6.541 -2.63,-1.63 -4.7799,-1.3598 -5.6699,-1.2598 -2.53,0.29 -4.1208,1.7214 -5.3008,3.3614 -0.92,1.3 -1.5791,3.1993 -1.1191,5.8593 0.59,2.91 2.7789,5.1001 5.4589,5.8301 1.25,0.83 3.5104,2.3898 5.6504,4.0098 6.4927,4.9274 16.0329,12.6146 25.9063,20.8379 -8.5216,14.5461 -17.4006,28.9067 -22.4668,36.1914 -1.35,1.78 -0.989,4.3201 0.791,5.6601 1.78,1.35 4.3199,0.991 5.6699,-0.789 5.5438,-6.7853 15.2443,-20.0342 24.7617,-33.6953 11.4491,9.7309 22.3137,19.3577 28.2969,25.4355 1,1.01 1.9502,2.0594 2.6602,2.8594 -0.31,1.92 0.8109,3.8407 2.7109,4.4707 2.43,0.91 3.9991,0.069 4.7891,-0.4707 1.28,-0.88 2.4009,-2.5999 1.4609,-5.4199 -0.43,-1.28 -2.2297,-3.8997 -5.1797,-7.3497 -5.8667,-6.8477 -16.7783,-17.9413 -28.1777,-29.0488 6.8109,-10.0196 12.9637,-19.493 16.6875,-25.9609 2.65,-4.6 4.0489,-8.1403 4.3789,-9.8203 1.03,-5.26 -2.1701,-7.7109 -4.3301,-8.8809 -1.1812,-0.575 -2.4395,-0.8161 -3.668,-0.7617 z"
           transform="translate(808.02,-1049.75)" />
      </g>
      <g
         transform="translate(-808.02,1049.75)"
         id="g448">
        <path
           id="path446"
           style="fill:#000b7c"
           d="m 1270.6484,2855.334 c -0.985,-0.064 -1.8533,0.06 -2.5683,0.2051 -2.17,0.46 -3.801,1.7707 -5.041,3.7207 -2.15,3.62 -0.9482,8.2994 2.6718,10.4394 0.77,0.46 1.59,0.7717 2.42,0.9317 1.17,1 3.2186,2.819 4.8886,4.539 7.6546,7.8463 19.1908,21.2945 30.752,35.1836 -11.463,19.1287 -23.1654,38.1277 -29.7813,49.8867 -1.15,1.91 -0.5408,4.4006 1.3692,5.5606 1.91,1.15 4.4005,0.5391 5.5605,-1.3809 6.8957,-10.65 18.6994,-27.4751 30.5781,-44.7344 12.1739,14.8096 23.4344,28.8828 28.9629,35.875 1.33,1.8 3.8682,2.1699 5.6582,0.8399 1.79,-1.33 2.1718,-3.8702 0.8418,-5.6602 -5.4386,-7.8137 -16.8088,-23.9397 -28.9257,-40.5937 2.9431,-4.3193 5.8551,-8.6155 8.625,-12.7774 7.72,-11.6 14.4494,-22.2689 18.6894,-30.1289 1.88,-3.76 0.3499,-8.3407 -3.4101,-10.2207 -3.76,-1.89 -8.3386,-0.3596 -10.2286,3.4004 -3.6,7.8 -9.4516,18.431 -16.1816,30.041 -1.7178,2.9625 -3.4958,5.9918 -5.3008,9.0469 -10.0079,-13.5531 -19.7895,-26.3813 -26.498,-34.1582 -4.38,-5.08 -8.0006,-8.1598 -9.8106,-9.0898 -1.185,-0.61 -2.2865,-0.8621 -3.2715,-0.9258 z"
           transform="translate(808.02,-1049.75)" />
      </g>
      <g
         transform="translate(-808.02,1049.75)"
         id="g464">
        <path
           id="path462"
           style="fill:#000b7c"
           d="m 1335.6055,3130.6582 c -1.1875,-0.014 -2.5211,0.2471 -3.9961,0.9121 -3.79,1.83 -5.3691,6.3997 -3.5391,10.1797 l 0.1504,0.2793 c -0.29,1.55 -0.7315,3.6616 -1.2715,5.6016 -1.8315,6.515 -4.819,15.342 -8.4297,25.1367 -8.7881,-12.829 -17.5202,-24.5226 -23.5293,-31.7774 -3.67,-4.44 -6.6093,-7.3399 -8.1093,-8.4199 -2.23,-1.62 -4.2216,-1.6994 -5.3516,-1.6894 -2.9,0.03 -4.8784,1.4999 -6.3184,3.6699 -0.72,1.09 -1.9212,3.6786 -0.5312,7.8086 1,2.73 3.4094,4.5399 6.1094,4.9199 0.99,0.94 2.171,2.1108 3.291,3.3008 7.2978,7.8294 18.5555,21.2891 29.334,35.6074 -10.228,26.1659 -22.9622,54.762 -29.875,64.543 -1.34,1.78 -0.9695,4.3201 0.8105,5.6601 1.79,1.34 4.3299,0.9795 5.6699,-0.8105 7.0584,-8.8799 20.1226,-33.795 31.5684,-58.2031 5.4061,7.6314 10.3721,15.1621 14.2129,21.8828 4.37,7.63 7.4188,14.0201 7.5488,18.1601 0,2.23 1.811,4.0508 4.041,4.0508 2.23,0 4.0489,-1.8208 4.0489,-4.0508 0.19,-6.61 -4.8994,-18.7292 -12.6094,-32.4492 -3.5116,-6.2446 -7.5638,-12.845 -11.8008,-19.4199 5.8873,-13.0836 10.9154,-25.2091 13.791,-33.6016 1.91,-5.58 2.8206,-9.8296 2.8906,-12.0996 0.05,-1.82 -0.3714,-3.1997 -0.7714,-4.1797 -0.91,-2.25 -2.529,-3.4793 -4.209,-4.2793 -0.895,-0.43 -1.9375,-0.7186 -3.125,-0.7324 z"
           transform="translate(808.02,-1049.75)" />
      </g>
      <g
         transform="translate(-808.02,1049.75)"
         id="g480">
        <path
           d="m 2000.55,1847.19 c 1.88,-0.14 3.72,-0.97 5.09,-2.49 3.09,-3.51 3.61,-6.91 2.95,-9.88 -0.68,-3.06 -3.02,-6.44 -7.61,-8.77 -10.6,-5.4 -37.28,-7.1 -39.73,-6.61 -17.98,3.52 -29.54,17.54 -34.02,34.31 -4.28,16.05 -2.04,34.38 6.55,46.89 6.1,8.88 18.2,16.01 30.66,18.09 13.14,2.2 26.41,-1.03 33.62,-12.17 5.85,-9.04 8.29,-20.81 7.94,-32.63 -0.28,-9.39 -2.26,-18.8 -5.45,-26.74 z m -37.2,-13.9 c -12.52,2.28 -20.35,12.32 -23.79,23.93 -3.72,12.51 -2.61,26.98 3.87,36.99 4.41,6.83 13.57,12.15 22.92,13.99 8.99,1.76 18.37,0.43 23.54,-7.08 5.08,-7.4 7.17,-17.2 7.15,-27.05 -0.01,-10.22 -2.27,-20.51 -6.1,-28.45 -0.94,-1.88 -0.28,-4.14 1.46,-5.24 -0.06,-0.6 -0.05,-1.21 0.03,-1.81 -6.11,-2.65 -16.62,-4.16 -23.42,-4.86 -2.55,-0.27 -5.59,-0.42 -5.66,-0.42 z"
           style="fill:#bd2626"
           id="path478" />
      </g>
      <g
         transform="translate(-808.02,1049.75)"
         id="g488">
        <path
           d="m 1867.16,1993.18 c 1.21,-1.28 1.98,-2.98 2.07,-4.87 0.2,-6.78 -4.23,-12.16 -12.26,-14.79 -9.32,-3.06 -23.98,-2.59 -28.57,-2.1 -4.51,0.48 -9.04,2.39 -13.25,5.61 -6.65,5.1 -12.68,13.49 -16.65,22.79 -6.34,14.85 -7.13,31.66 0.26,40.61 6.52,7.9 22.71,16.01 37.32,17.37 11.71,1.1 22.19,-2.07 27.02,-11.09 4.24,-7.92 6.23,-16.17 6.72,-24.61 0.55,-9.49 -0.77,-19.22 -2.66,-28.92 z m -13.14,-4.62 c -0.38,-0.24 -0.97,-0.59 -1.44,-0.77 -1.48,-0.59 -3.19,-1.04 -4.98,-1.38 -6.93,-1.29 -14.98,-1.17 -17.92,-0.95 -2.95,0.22 -5.82,1.96 -8.53,4.4 -4.25,3.82 -8.03,9.3 -10.78,15.24 -2.78,5.99 -4.61,12.42 -4.73,18.15 -0.07,3.8 0.46,7.28 2.39,9.76 4.16,5.37 13.91,10.67 23.69,13.1 5.61,1.4 11.26,1.92 15.89,0.63 2.86,-0.79 5.31,-2.26 6.81,-4.85 3.76,-6.53 5.6,-13.4 6.23,-20.47 0.77,-8.58 -0.16,-17.43 -1.59,-26.28 -2.79,-0.99 -4.81,-3.56 -5.04,-6.58 z"
           style="fill:#bd2626"
           id="path486" />
      </g>
      <g
         transform="translate(-808.02,1049.75)"
         id="g496">
        <path
           d="m 1870.18,2108.71 c -3.09,-3.01 -9.41,-9.51 -17.7,-11.66 -5.28,-1.37 -11.31,-1.3 -17.86,2.12 -4.18,2.17 -7.85,4.82 -11.01,7.98 -3.12,3.13 -5.8,6.72 -7.99,10.83 -6.7,12.54 -8.5,26.87 -5.48,40.05 3.02,13.16 10.68,25.19 22.86,33.02 10.52,6.76 22.35,8.17 31.81,4.62 9.76,-3.65 17.33,-12.36 18.26,-26.28 0.26,-3.89 0.21,-7.75 -0.06,-11.6 -0.39,-5.61 -1.23,-11.2 -2.18,-16.78 -0.34,-2.21 -2.41,-3.72 -4.62,-3.38 -2.2,0.34 -3.72,2.4 -3.38,4.61 0.73,5.33 1.35,10.66 1.55,16.01 0.12,3.45 0.05,6.92 -0.29,10.39 -0.95,9.41 -5.93,15.39 -12.62,17.64 -6.8,2.29 -15.11,0.73 -22.41,-4.32 -9.33,-6.45 -15.02,-16.07 -17.03,-26.45 -2.01,-10.33 -0.26,-21.45 5.28,-31.03 1.64,-2.85 3.6,-5.32 5.87,-7.45 2.25,-2.1 4.84,-3.81 7.76,-5.21 3.7,-1.77 6.93,-1.22 9.57,0.06 4.5,2.19 7.61,6.21 9.25,7.89 3.12,3.18 6.34,3.24 7.51,3.13 4.17,-0.48 7.18,-4.26 6.7,-8.44 -0.29,-2.51 -1.76,-4.59 -3.79,-5.75 z"
           style="fill:#bd2626"
           id="path494" />
      </g>
      <g
         transform="translate(-808.02,1049.75)"
         id="g504">
        <path
           d="m 2015.69,2115.76 c 0.59,-0.77 1.03,-1.68 1.29,-2.69 0.54,-2.25 0.36,-4.62 -1.05,-6.96 -1.1,-1.82 -3.54,-4.12 -7.28,-5.92 -8.21,-3.94 -23.94,-7.1 -28.87,-6.48 -17.08,2.15 -29.81,16.21 -35.12,33.27 -5.15,16.55 -3.31,35.43 6.94,47.05 7.73,8.76 21.62,15.34 35.7,16.63 14.23,1.3 28.47,-2.64 36.79,-14.05 4.87,-6.66 7.02,-18.75 6.23,-30.66 -0.8,-12.1 -4.53,-23.85 -10.17,-29.33 -1.21,-1.21 -2.99,-1.49 -4.46,-0.86 z m -13.08,-1.54 c -2.2,-0.99 -8.25,-3.63 -12.37,-4.69 -3.75,-0.96 -7.2,-1.75 -8.88,-1.58 -11.87,1.14 -20.26,11.39 -24.28,23.09 -4.19,12.23 -3.9,26.42 3.5,35.3 5.88,7.06 16.8,12.26 27.86,13.59 10.57,1.28 21.42,-0.86 27.87,-9.18 4.01,-5.18 5.46,-14.86 5.1,-24.34 -0.36,-9.78 -2.56,-19.51 -6.99,-24.07 -1.28,-1.28 -1.52,-3.21 -0.72,-4.74 -1.72,1.1 -3.87,1.51 -5.99,0.97 -2.37,-0.61 -4.2,-2.27 -5.1,-4.35 z m -0.49,-4.5 c 0.02,-0.14 0.05,-0.28 0.09,-0.42 -0.04,0.14 -0.07,0.28 -0.09,0.42 z"
           style="fill:#bd2626"
           id="path502" />
      </g>
      <g
         transform="translate(-808.02,1049.75)"
         id="g512">
        <path
           d="m 2152.07,1965.97 c 0.09,-2.28 -0.43,-4.22 -1.33,-5.85 -1.69,-3.08 -4.99,-5.63 -10.04,-6.48 -4.47,-0.75 -10.88,-0.29 -17.38,0.91 -10.79,1.99 -21.82,5.71 -23.48,6.57 -4.86,2.51 -8.45,7.07 -10.82,12.64 -2.69,6.35 -3.88,13.97 -4.76,19.24 -3.22,19.2 2.67,33.57 13.84,43.05 10.29,8.74 25.33,13.33 42.16,13.1 3.98,-0.05 7.91,-2.23 11.2,-6.03 4.82,-5.56 8.56,-14.67 10.34,-18.98 5.2,-12.61 6.12,-26.59 2.2,-38.85 -2.3,-7.22 -6.23,-13.87 -11.93,-19.32 z m -15.45,2.21 c -9.76,-1.05 -28.53,4.46 -30.54,5.43 -2.84,1.37 -4.32,4.62 -5.53,7.96 -1.74,4.77 -2.63,10 -3.37,13.78 -2.72,13.88 0.89,24.55 8.81,31.66 8.21,7.37 20.52,11.08 34.27,11.27 0.93,0.01 1.69,-0.71 2.51,-1.48 1.31,-1.25 2.53,-2.86 3.63,-4.59 2.77,-4.33 4.91,-9.32 6.12,-12.05 4.61,-10.36 5.76,-21.94 2.78,-32.23 -1.46,-5.08 -3.93,-9.83 -7.46,-13.95 -1.72,0.94 -3.79,1.22 -5.82,0.62 -3.01,-0.89 -5.06,-3.48 -5.4,-6.42 z"
           style="fill:#bd2626"
           id="path510" />
      </g>
      <path
         d="m 1155.02,2837.49 c -0.25,-1.14 17.49,-26.38 19.01,-17.25 0.74,4.45 1.87,39.62 -1.11,39.62"
         style="fill:none;stroke:#000000;stroke-width:10px"
         id="path956" />
      <path
         d="m 948.792,3048.45 c -10.233,-7.08 13.992,-21.33 19.868,-9.58 3.677,7.35 -8.879,37.35 -17.941,40.37 -1.37,0.46 -2.624,-5.79 -1.682,-6.73 1.078,-1.08 7.646,4.1 8.41,4.49 4.899,2.45 8.907,1.12 14.017,1.12"
         style="fill:none;stroke:#000000;stroke-width:7.93px"
         id="path958" />
      <path
         d="m 1379.94,3032.78 c 1.19,-0.07 19.33,-4.03 17.08,2.73 -1.5,4.5 -7.93,10.16 -11.21,13.45 -1.39,1.38 -7.36,2.56 -5.61,1.68 23.3,-11.65 23.76,34.61 1.12,21.87 -5.02,-2.82 -5.05,-3.37 -8.97,-7.29"
         style="fill:none;stroke:#000000;stroke-width:7.93px"
         id="path960" />
      <path
         d="m 954.783,3174.72 c 6.997,-1.14 0.077,33.4 0.077,33.4 0,0 24.979,-0.73 28.65,0.49"
         style="fill:none;stroke:#000000;stroke-width:7.93px"
         id="path962" />
      <path
         d="m 973.747,3178.3 c 5.597,-1.98 2.763,37.32 2.763,44.47"
         style="fill:none;stroke:#000000;stroke-width:7.93px"
         id="path964" />
      <path
         d="m 1189.24,3255.17 c 1.61,-2.17 -6.43,0.08 -6.96,0.12 -7.69,0.64 -22.99,2.81 -22.99,2.81 0,0 2.57,-0.8 3.36,0 0.98,0.97 -1.12,12.21 -1.12,14.01 0,0.96 0.4,2.8 -0.56,2.8 -0.47,0 7.67,-6.78 15.14,-4.48 3.15,0.97 7.12,10.44 5.61,13.46 -6.29,12.57 -20.95,7.81 -26.91,-1.13"
         style="fill:none;stroke:#000000;stroke-width:7.93px"
         id="path966" />
    </g>
  </g>
</svg>
