<?xml version="1.0" encoding="UTF-8" standalone="no"?>
<svg
   xmlns:dc="http://purl.org/dc/elements/1.1/"
   xmlns:cc="http://creativecommons.org/ns#"
   xmlns:rdf="http://www.w3.org/1999/02/22-rdf-syntax-ns#"
   xmlns:svg="http://www.w3.org/2000/svg"
   xmlns="http://www.w3.org/2000/svg"
   xmlns:sodipodi="http://sodipodi.sourceforge.net/DTD/sodipodi-0.dtd"
   xmlns:inkscape="http://www.inkscape.org/namespaces/inkscape"
   sodipodi:docname="2022-SK-02-plus.svg"
   inkscape:version="1.0 (4035a4fb49, 2020-05-01)"
   id="svg1012"
   version="1.1"
   viewBox="0 0 110.89026 113.23836"
   height="113.23836mm"
   width="110.89026mm">
  <defs
     id="defs1006" />
  <sodipodi:namedview
     showgrid="false"
     inkscape:document-rotation="0"
     inkscape:current-layer="layer1"
     inkscape:document-units="mm"
     inkscape:cy="560"
     inkscape:cx="400"
     inkscape:zoom="0.35"
     inkscape:pageshadow="2"
     inkscape:pageopacity="0.0"
     borderopacity="1.0"
     bordercolor="#666666"
     pagecolor="#ffffff"
     id="base" />
  <metadata
     id="metadata1009">
    <rdf:RDF>
      <cc:Work
         rdf:about="">
        <dc:format>image/svg+xml</dc:format>
        <dc:type
           rdf:resource="http://purl.org/dc/dcmitype/StillImage" />
        <dc:title></dc:title>
      </cc:Work>
    </rdf:RDF>
  </metadata>
  <g
     transform="translate(69.509156,-62.925033)"
     id="layer1"
     inkscape:groupmode="layer"
     inkscape:label="Ebene 1">
    <g
       transform="matrix(0.26458333,0,0,0.26458333,-103.95125,18.22847)"
       style="clip-rule:evenodd;fill-rule:evenodd;stroke-linecap:round;stroke-linejoin:round;stroke-miterlimit:1.5"
       id="g984">
      <g
         id="g4"
         transform="matrix(1.04916,0,0,1,2.40669,-10.7696)">
        <path
           id="path2"
           style="fill:#555555"
           d="m 461.4,257.486 c 22.911,32.438 59.856,100.02 59.856,142.715 0,109.92 -86.873,207.488 -196.793,207.488 -37.128,0 -75.312,-16.988 -104.779,-35.205 -47.259,-29.219 -83.84,-93.066 -96.749,-172.283 0,0 302.393,-193.788 338.465,-142.715 z" />
      </g>
      <path
         id="path68"
         style="fill:#373131"
         d="m 352.921,271.429 c 63.215,-27.804 119.024,-44.34 133.568,-24.712 24.037,32.438 62.798,100.019 62.798,142.715 0,88.892 -59.607,169.706 -143.417,197.376 68.294,-34.954 114.55,-106.993 114.55,-185.3 0,-42.695 -38.761,-110.277 -62.798,-142.715 -12.281,-16.573 -53.984,-7.362 -104.701,12.636 z" />
      <g
         id="g72"
         transform="translate(28.0314,-10.7696)">
        <path
           id="path70"
           style="fill:#3d3d3d"
           d="m 122.935,400.201 c 0,-109.919 89.241,-199.16 199.16,-199.16" />
      </g>
      <g
         id="g76"
         transform="translate(7.24084,-32.1081)">
        <circle
           id="circle74"
           r="199.161"
           cy="400.20099"
           cx="322.095" />
      </g>
      <g
         id="g80"
         transform="matrix(0.837635,0,0,0.837635,55.5469,58.9258)">
        <path
           id="path78"
           style="fill:#575353"
           d="M 219.482,534.202 C 165.674,498.52 130.176,437.42 130.176,368.093 c 0,-109.919 89.241,-199.16 199.16,-199.16 64.095,0 121.158,30.342 157.597,77.434 -31.488,-20.881 -69.261,-33.052 -109.854,-33.052 -109.92,0 -199.161,89.241 -199.161,199.161 0,45.825 15.51,88.057 41.564,121.726 z" />
      </g>
      <path
         id="path82"
         style="fill:#ffffff"
         d="m 298.704,338.971 -80.692,0.433 c -16.49,0.089 -29.806,13.548 -29.717,30.038 0.088,16.49 13.548,29.806 30.038,29.717 0,0 80.692,-0.433 80.692,-0.433 0,0 0.434,80.692 0.434,80.692 0.088,16.49 13.548,29.806 30.038,29.717 16.49,-0.089 29.806,-13.548 29.717,-30.038 0,0 -0.434,-80.692 -0.434,-80.692 0,0 80.692,-0.434 80.692,-0.434 16.49,-0.089 29.806,-13.548 29.718,-30.038 -0.089,-16.49 -13.549,-29.806 -30.039,-29.717 0,0 -80.692,0.433 -80.692,0.433 0,0 -0.433,-80.692 -0.433,-80.692 -0.089,-16.49 -13.549,-29.805 -30.039,-29.717 -16.49,0.089 -29.805,13.548 -29.717,30.038 z" />
      <path
         id="path84"
         style="fill:#e4e4e4"
         d="m 299.183,398.022 0.276,81.396 c 0.064,11.967 7.17,22.262 17.365,26.975 -3.598,-4.904 -5.736,-10.945 -5.771,-17.485 0,0 -0.434,-80.692 -0.434,-80.692 z m -93.524,-1.605 c -3.597,-4.904 -5.735,-10.944 -5.77,-17.484 -0.089,-16.49 13.227,-29.95 29.717,-30.038 l 80.692,-0.434 -0.434,-80.692 c -0.088,-16.49 13.228,-29.95 29.717,-30.038 4.524,-0.025 8.819,0.959 12.674,2.742 -5.471,-7.459 -14.318,-12.286 -24.268,-12.233 -16.49,0.089 -29.805,13.548 -29.717,30.038 l 0.434,80.693 -80.692,0.433 c -16.49,0.089 -29.806,13.548 -29.717,30.038 0.064,11.967 7.17,22.262 17.364,26.975 z m 152.828,-57.565 11.566,9.288 c 0,0 80.692,-0.434 80.692,-0.434 4.524,-0.024 8.819,0.96 12.674,2.743 -5.471,-7.46 -14.318,-12.287 -24.268,-12.233 z" />
    </g>
  </g>
</svg>
