<?xml version="1.0" encoding="UTF-8" standalone="no"?>
<svg
   xmlns:serif="http://www.serif.com/"
   xmlns:dc="http://purl.org/dc/elements/1.1/"
   xmlns:cc="http://creativecommons.org/ns#"
   xmlns:rdf="http://www.w3.org/1999/02/22-rdf-syntax-ns#"
   xmlns:svg="http://www.w3.org/2000/svg"
   xmlns="http://www.w3.org/2000/svg"
   xmlns:sodipodi="http://sodipodi.sourceforge.net/DTD/sodipodi-0.dtd"
   xmlns:inkscape="http://www.inkscape.org/namespaces/inkscape"
   inkscape:version="1.0 (4035a4fb49, 2020-05-01)"
   sodipodi:docname="2022-PH-03-field02.svg"
   id="svg5450"
   version="1.1"
   viewBox="0 0 29.170293 25.04745"
   height="25.047449mm"
   width="29.170294mm">
  <defs
     id="defs5444" />
  <sodipodi:namedview
     showgrid="false"
     inkscape:document-rotation="0"
     inkscape:current-layer="layer1"
     inkscape:document-units="mm"
     inkscape:cy="560"
     inkscape:cx="400"
     inkscape:zoom="0.35"
     inkscape:pageshadow="2"
     inkscape:pageopacity="0.0"
     borderopacity="1.0"
     bordercolor="#666666"
     pagecolor="#ffffff"
     id="base" />
  <metadata
     id="metadata5447">
    <rdf:RDF>
      <cc:Work
         rdf:about="">
        <dc:format>image/svg+xml</dc:format>
        <dc:type
           rdf:resource="http://purl.org/dc/dcmitype/StillImage" />
        <dc:title></dc:title>
      </cc:Work>
    </rdf:RDF>
  </metadata>
  <g
     transform="translate(-90.156481,-135.90135)"
     id="layer1"
     inkscape:groupmode="layer"
     inkscape:label="Ebene 1">
    <g
       style="clip-rule:evenodd;fill-rule:evenodd;stroke-linecap:round;stroke-linejoin:round;stroke-miterlimit:1.5"
       transform="matrix(0.26458333,0,0,0.26458333,-15.85727,-295.63709)"
       id="g1457">
      <g
         transform="matrix(1.61161,0,0,1.66244,307.811,239.346)"
         id="g1387" />
      <g
         transform="translate(186.468,1307.96)"
         id="g1455">
        <g
           id="g23042"
           serif:id="g2304"
           transform="matrix(1.34574,-0.06841,0.0689275,1.35592,-194.854,28.9352)">
          <g
             id="g22752"
             serif:id="g2275">
            <path
               id="path21172"
               serif:id="path2117"
               d="m 355,262.5 c 3.9,3.5 8.6,15.4 6.1,20.5 -1.4,2.8 -3.6,6 -6.8,6.6 -9.3,1.7 -30.6,3.4 -37.4,0.3 -4.2,-1.9 -9,-3 -12.7,-5.9 -4.9,-3.8 -4.6,-11.1 -3.6,-16.7 0.8,-4.6 3,-8.7 6.2,-12.2 3.8,-4.2 8.2,-10.9 13.4,-10.2 9.5,1.3 18.3,5.7 26.2,10.9 3,2 5.9,4.2 8.6,6.7 z"
               style="fill:#aa0000;fill-rule:nonzero" />
            <path
               id="path21332"
               serif:id="path2133"
               d="m 319.2,244.9 c -4.7,0.2 -8.8,6.3 -12.4,10.2 -0.6,0.6 -1.1,1.3 -1.6,1.9 h 0.3 c 29.3,-13.1 47.5,21.6 53.2,29.7 1,-1.2 1.8,-2.5 2.4,-3.8 2.5,-5.1 -2.2,-17 -6.1,-20.5 -2.7,-2.4 -5.6,-4.7 -8.6,-6.7 -8,-5.1 -16.7,-9.6 -26.2,-10.9 -0.4,0.1 -0.7,0.1 -1,0.1 z"
               style="fill:#bf0000;fill-rule:nonzero" />
            <path
               id="path21652"
               serif:id="path2165"
               d="m 300.4,268.8 c -0.7,5.4 -0.6,11.7 3.8,15.2 3.7,2.9 8.5,4 12.7,5.9 6.6,3 26.4,1.5 36.2,-0.1 0.1,-0.3 0.1,-0.6 0,-0.8 -0.8,-1.1 -4.3,-1.3 -5.5,-1.6 -25.1,4.1 -40.7,-5.4 -47.2,-18.6 z"
               style="fill:#8e0000;fill-rule:nonzero" />
            <path
               id="path11742"
               serif:id="path1174"
               d="m 329.563,260.084 c -0.111,0.008 -0.215,0.051 -0.299,0.123 -0.115,0.098 -0.182,0.242 -0.182,0.393 0,0.124 0.045,0.244 0.125,0.338 0.533,0.621 0.601,1.006 0.504,1.402 -0.097,0.396 -0.449,0.867 -0.977,1.394 -0.2,0.201 -0.2,0.53 0,0.731 0.201,0.2 0.53,0.2 0.731,0 0.572,-0.572 1.072,-1.15 1.25,-1.879 0.178,-0.729 -0.055,-1.544 -0.723,-2.322 -0.106,-0.125 -0.266,-0.192 -0.429,-0.18 z"
               style="fill:#ff9b00;fill-rule:nonzero" />
            <path
               id="path11702"
               serif:id="path1170"
               d="m 335.738,265.586 c -0.258,0.031 -0.455,0.253 -0.455,0.513 0,0.021 0.002,0.042 0.004,0.063 0.034,0.281 0.293,0.485 0.574,0.451 0.545,-0.065 0.793,0.042 0.868,0.106 0.074,0.064 0.102,0.134 0.062,0.347 -0.08,0.426 -0.627,1.131 -1.184,1.354 -0.262,0.106 -0.392,0.409 -0.287,0.672 0.105,0.263 0.409,0.394 0.672,0.289 0.943,-0.377 1.647,-1.224 1.817,-2.123 0.084,-0.45 -0.012,-0.985 -0.407,-1.324 -0.394,-0.34 -0.958,-0.433 -1.664,-0.348 z"
               style="fill:#ff9b00;fill-rule:nonzero" />
            <path
               id="path11662"
               serif:id="path1166"
               d="m 345.91,265.783 c -0.152,-0.003 -0.297,0.06 -0.398,0.174 -0.083,0.094 -0.129,0.216 -0.129,0.342 0,0.149 0.064,0.29 0.176,0.389 0.782,0.69 1.055,1.298 1.013,1.753 -0.041,0.456 -0.392,0.942 -1.302,1.397 -0.254,0.126 -0.359,0.439 -0.233,0.693 0.127,0.253 0.44,0.357 0.694,0.231 1.089,-0.545 1.789,-1.307 1.873,-2.227 0.083,-0.919 -0.444,-1.813 -1.362,-2.623 -0.092,-0.081 -0.209,-0.126 -0.332,-0.129 z"
               style="fill:#ff9b00;fill-rule:nonzero" />
            <path
               id="path11622"
               serif:id="path1162"
               d="m 341.316,276.283 c -0.069,-0.002 -0.138,0.01 -0.203,0.035 -0.198,0.077 -0.33,0.27 -0.33,0.483 0,0.064 0.012,0.127 0.035,0.187 0.331,0.851 0.334,1.289 0.225,1.494 -0.109,0.206 -0.459,0.425 -1.262,0.614 -0.233,0.055 -0.399,0.264 -0.399,0.503 0,0.041 0.005,0.081 0.014,0.12 0.066,0.275 0.346,0.449 0.622,0.385 0.897,-0.212 1.598,-0.492 1.939,-1.137 0.341,-0.645 0.193,-1.405 -0.176,-2.354 -0.074,-0.192 -0.258,-0.323 -0.465,-0.33 z"
               style="fill:#ff9b00;fill-rule:nonzero" />
            <path
               id="path11582"
               serif:id="path1158"
               d="m 327.902,275.883 c -0.029,0 -0.059,0.003 -0.088,0.008 -0.278,0.047 -0.469,0.315 -0.423,0.594 0.087,0.524 0.049,1.116 -0.125,1.502 -0.175,0.385 -0.388,0.595 -0.965,0.595 0,0 0,0 -10e-4,0 -0.283,0 -0.517,0.234 -0.517,0.518 v 0 c 0,0.284 0.234,0.517 0.517,0.517 10e-4,0 10e-4,0 10e-4,0 0.922,0 1.607,-0.538 1.908,-1.203 0.3,-0.664 0.314,-1.424 0.201,-2.099 -0.041,-0.248 -0.257,-0.431 -0.508,-0.432 z"
               style="fill:#ff9b00;fill-rule:nonzero" />
            <path
               id="path11542"
               serif:id="path1154"
               d="m 326.883,285.082 c -0.174,0.006 -0.333,0.098 -0.424,0.246 -0.304,0.494 -0.681,0.614 -1.27,0.67 -0.588,0.056 -1.322,-0.025 -2.068,0.09 -0.28,0.043 -0.475,0.31 -0.432,0.59 0.039,0.251 0.257,0.439 0.512,0.439 0.026,0 0.052,-0.002 0.078,-0.006 0.555,-0.085 1.27,-0.014 2.006,-0.084 0.736,-0.069 1.559,-0.35 2.055,-1.156 0.148,-0.241 0.073,-0.562 -0.168,-0.711 -0.087,-0.054 -0.187,-0.081 -0.289,-0.078 z"
               style="fill:#ff9b00;fill-rule:nonzero" />
            <path
               id="path11502"
               serif:id="path1150"
               d="m 355.514,274.883 c -0.261,-0.007 -0.488,0.185 -0.526,0.443 -0.03,0.209 -0.095,0.286 -0.246,0.379 -0.15,0.093 -0.405,0.165 -0.701,0.191 -0.592,0.054 -1.301,-0.056 -1.668,-0.109 -0.024,-0.003 -0.049,-0.005 -0.074,-0.005 -0.256,0 -0.476,0.191 -0.512,0.445 -0.003,0.024 -0.005,0.049 -0.005,0.073 0,0.257 0.191,0.477 0.445,0.513 0.332,0.047 1.125,0.186 1.908,0.115 0.391,-0.036 0.793,-0.12 1.152,-0.342 0.359,-0.222 0.655,-0.623 0.725,-1.113 0.039,-0.281 -0.159,-0.544 -0.44,-0.584 -0.019,-0.003 -0.039,-0.005 -0.058,-0.006 z"
               style="fill:#ff9b00;fill-rule:nonzero" />
            <path
               id="path11462"
               serif:id="path1146"
               d="m 324.303,247.582 c -0.11,0 -0.218,0.035 -0.307,0.1 -0.134,0.097 -0.214,0.253 -0.214,0.419 0,0.109 0.035,0.215 0.099,0.303 0.395,0.544 0.632,0.9 0.738,1.102 0.107,0.202 0.049,0.159 0.09,0.06 0.041,-0.098 0.011,-0.038 -0.147,0.1 -0.157,0.138 -0.374,0.371 -0.533,0.721 -10e-4,0.003 -0.002,0.006 -0.004,0.01 -0.34,0.793 -0.437,1.618 -0.627,2.379 -0.068,0.275 0.102,0.558 0.377,0.627 0.276,0.068 0.559,-0.102 0.627,-0.377 0.209,-0.837 0.312,-1.607 0.571,-2.213 0.09,-0.198 0.171,-0.28 0.273,-0.369 0.102,-0.09 0.292,-0.174 0.42,-0.485 0.128,-0.311 0.026,-0.634 -0.133,-0.935 -0.159,-0.302 -0.41,-0.672 -0.814,-1.229 -0.097,-0.133 -0.252,-0.212 -0.416,-0.213 z"
               style="fill:#ff9b00;fill-rule:nonzero" />
            <path
               id="path11422"
               serif:id="path1142"
               d="m 334.416,248.684 c -0.152,-0.005 -0.298,0.057 -0.4,0.17 -0.19,0.211 -0.172,0.54 0.039,0.73 0.478,0.431 0.602,0.665 0.605,0.709 0.002,0.022 0.002,0.056 -0.062,0.168 -0.065,0.112 -0.195,0.282 -0.385,0.496 -0.084,0.095 -0.131,0.217 -0.131,0.344 0,0.148 0.063,0.288 0.174,0.387 0.095,0.084 0.217,0.13 0.344,0.13 0.147,0 0.288,-0.063 0.386,-0.173 0.21,-0.236 0.381,-0.443 0.51,-0.668 0.129,-0.226 0.219,-0.492 0.195,-0.77 -0.046,-0.556 -0.424,-0.922 -0.945,-1.391 -0.091,-0.082 -0.208,-0.129 -0.33,-0.132 z"
               style="fill:#ff9b00;fill-rule:nonzero" />
            <path
               id="path11382"
               serif:id="path1138"
               d="m 343.982,254.283 c -0.13,0.005 -0.255,0.058 -0.347,0.151 -0.097,0.097 -0.152,0.228 -0.152,0.366 0,0.137 0.055,0.269 0.152,0.366 0.346,0.347 0.578,0.742 0.629,1.074 0.051,0.333 -0.014,0.618 -0.41,0.975 -0.211,0.19 -0.228,0.52 -0.038,0.73 0.19,0.211 0.52,0.229 0.731,0.039 0.603,-0.543 0.839,-1.257 0.74,-1.9 -0.099,-0.642 -0.468,-1.197 -0.922,-1.65 -0.101,-0.101 -0.24,-0.156 -0.383,-0.151 z"
               style="fill:#ff9b00;fill-rule:nonzero" />
            <path
               id="path11342"
               serif:id="path1134"
               d="m 353.037,261.709 c -0.255,0.085 -0.448,0.408 -0.465,0.604 -0.016,0.195 0.022,0.322 0.051,0.437 0.045,0.178 0.047,0.227 0.066,0.223 -0.027,0.025 -0.018,0.017 -0.064,0.048 -0.103,0.071 -0.235,0.15 -0.35,0.213 -0.05,0.028 -0.068,0.036 -0.109,0.057 -0.033,0.018 -0.065,0.029 -0.098,0.047 -0.003,10e-4 -0.003,0.003 -0.006,0.004 -0.005,0.002 -0.009,0.003 -0.013,0.006 -0.021,0.01 -0.045,0.024 -0.065,0.035 0,0 -10e-4,0 -0.002,0 v 0.002 c 0,0.004 0.074,0.955 0.074,0.955 0,0 0.188,0.022 0.188,0.022 0,0 0.07,-0.008 0.07,-0.008 0,-10e-4 0.044,-0.011 0.055,-0.014 0.022,-0.007 0.031,-0.011 0.039,-0.014 0.031,-0.012 0.038,-0.017 0.055,-0.025 0.04,-0.019 0.119,-0.063 0.187,-0.098 0.842,-0.461 1.694,-0.845 2.561,-1.23 0.018,-0.009 0.035,-0.018 0.052,-0.028 0.035,-0.021 0.067,-0.046 0.096,-0.074 0.015,-0.014 0.028,-0.029 0.041,-0.045 0.013,-0.015 0.024,-0.032 0.035,-0.049 0.022,-0.033 0.04,-0.069 0.053,-0.107 0.009,-0.027 0.017,-0.056 0.021,-0.084 0.003,-0.016 0.005,-0.033 0.006,-0.049 0.001,-0.01 0.002,-0.019 0.002,-0.029 0,-0.015 0,-0.029 -0.002,-0.043 -10e-4,-0.021 -0.004,-0.041 -0.008,-0.061 -0.003,-0.017 -0.007,-0.034 -0.011,-0.051 -10e-4,-0.002 -0.002,-0.005 -0.002,-0.008 -0.004,-0.01 -0.008,-0.02 -0.012,-0.031 -0.003,-0.008 -0.006,-0.017 -0.01,-0.025 -0.008,-0.018 -0.017,-0.036 -0.027,-0.053 -0.021,-0.035 -0.046,-0.067 -0.075,-0.096 -0.013,-0.014 -0.027,-0.028 -0.043,-0.041 0,0 -10e-4,0 -0.002,0 -0.015,-0.012 -0.031,-0.024 -0.048,-0.035 -0.034,-0.021 -0.07,-0.039 -0.108,-0.052 -0.019,-0.007 -0.039,-0.013 -0.058,-0.018 -0.009,-0.002 -0.017,-0.003 -0.026,-0.004 0,0 -10e-4,0 -0.002,0 -0.217,-0.037 -0.502,-0.152 -0.84,-0.25 -0.338,-0.099 -0.759,-0.18 -1.207,-0.031 z m -1.058,1.678 c -0.013,0.007 -0.015,0.006 -0.038,0.019 -0.01,0.006 -0.054,0.039 -0.054,0.039 0,0 -0.039,0.033 -0.039,0.034 0,0 -0.073,0.091 -0.073,0.091 0,0 0.196,-0.176 0.203,-0.183 z"
               style="fill:#ff9b00;fill-rule:nonzero" />
            <path
               id="path11302"
               serif:id="path1130"
               d="m 347.615,286.982 c -0.069,-0.002 -0.138,0.01 -0.203,0.036 -0.198,0.077 -0.33,0.269 -0.33,0.482 0,0.064 0.012,0.128 0.035,0.188 0.331,0.85 0.335,1.291 0.227,1.496 -0.109,0.205 -0.459,0.424 -1.262,0.613 -0.276,0.065 -0.449,0.345 -0.385,0.621 0.065,0.276 0.346,0.449 0.621,0.385 0.898,-0.211 1.598,-0.49 1.94,-1.135 0.341,-0.645 0.193,-1.406 -0.176,-2.355 -0.075,-0.194 -0.259,-0.324 -0.467,-0.331 z"
               style="fill:#ff9b00;fill-rule:nonzero" />
            <path
               id="path21192"
               serif:id="path2119"
               d="m 319.7,244.8 c -0.8,-0.1 -6.7,1.4 -8.9,3.2 -3.6,2.3 -6.3,6 -7.8,10 -0.1,0.1 -0.2,0.1 -0.3,0.2 h -0.1 c -2.2,-1.2 -4.5,-2 -7.3,-1.8 -0.9,0.1 -1.7,0.3 -2.7,0.9 -0.5,0.3 -1,0.6 -1.4,1.3 -0.4,0.6 -0.7,1.6 -0.5,2.4 0.2,1.1 1.3,1.8 2.5,1.6 0.9,-0.2 1.5,-0.9 1.6,-1.8 0.3,-0.1 0.7,-0.3 0.8,-0.3 1.9,-0.2 3.1,0.3 5,1.3 0.1,0 0.2,0.1 0.3,0.1 -3.7,9.7 -2.2,6.7 -0.9,18.6 -0.3,1.5 2.4,4.5 3.2,2.4 -0.2,-2.2 -0.8,-4.3 -0.8,-6.5 -0.8,-6.4 -1.6,-4 0.7,-8.3 1.4,-4.5 1.6,1.2 2.4,3.2 1.8,3.9 4.8,7 7.5,10.3 0.1,1 2.3,3.8 1.7,1.2 -1.1,-5.2 -3,-10.3 -5.6,-15 -1.1,-1.4 -2.8,-2 -1.8,-2.7 1,-0.6 4.6,3 6.6,3.8 3,0.9 6.3,-0.9 9.1,0.5 -0.4,-0.8 -1.5,-3.1 -1.9,-3.3 -3.4,-2.4 -7.5,-2.9 -11.8,-3.2 h -2.5 l 0.1,-0.1 c 0.2,0 0.3,0.1 0.4,0.1 0.7,0 1.3,0.1 2,0.1 7.2,-0.4 10.4,-5.4 14.4,-10.1 -6.1,-1.1 -12,3.5 -13.3,1.9 -1,-1.5 5,-5.3 9.3,-10 0.1,0.1 0.1,0.1 0,0 z m 3.4,24.6 c 0.2,0.4 0.2,0.5 0,0 z"
               style="fill:#008000;fill-rule:nonzero" />
          </g>
        </g>
        <g
           id="path2117-32"
           serif:id="path2117-3"
           transform="matrix(1.34574,-0.06841,0.0689275,1.35592,-482.809,-41.5419)">
          <path
             d="m 565.768,325.111 c 3.9,3.5 8.6,15.4 6.1,20.5 -1.4,2.8 -3.6,6 -6.8,6.6 -9.3,1.7 -30.6,3.4 -37.4,0.3 -4.2,-1.9 -9,-3 -12.7,-5.9 -4.9,-3.8 -4.6,-11.1 -3.6,-16.7 0.8,-4.6 3,-8.7 6.2,-12.2 3.8,-4.2 8.2,-10.9 13.4,-10.2 9.5,1.3 18.3,5.7 26.2,10.9 3,2 5.9,4.2 8.6,6.7 z"
             style="fill:#aa0000;fill-rule:nonzero"
             id="path1407" />
        </g>
        <g
           id="path2133-52"
           serif:id="path2133-5"
           transform="matrix(1.34574,-0.06841,0.0689275,1.35592,-482.809,-41.5419)">
          <path
             d="m 529.968,307.511 c -4.7,0.2 -8.8,6.3 -12.4,10.2 -0.6,0.6 -1.1,1.3 -1.6,1.9 h 0.3 c 29.3,-13.1 47.5,21.6 53.2,29.7 1,-1.2 1.8,-2.5 2.4,-3.8 2.5,-5.1 -2.2,-17 -6.1,-20.5 -2.7,-2.4 -5.6,-4.7 -8.6,-6.7 -8,-5.1 -16.7,-9.6 -26.2,-10.9 -0.4,0.1 -0.7,0.1 -1,0.1 z"
             style="fill:#bf0000;fill-rule:nonzero"
             id="path1410" />
        </g>
        <g
           id="path2165-12"
           serif:id="path2165-1"
           transform="matrix(1.34574,-0.06841,0.0689275,1.35592,-482.809,-41.5419)">
          <path
             d="m 511.168,331.411 c -0.7,5.4 -0.6,11.7 3.8,15.2 3.7,2.9 8.5,4 12.7,5.9 6.6,3 26.4,1.5 36.2,-0.1 0.1,-0.3 0.1,-0.6 0,-0.8 -0.8,-1.1 -4.3,-1.3 -5.5,-1.6 -25.1,4.1 -40.7,-5.4 -47.2,-18.6 z"
             style="fill:#8e0000;fill-rule:nonzero"
             id="path1413" />
        </g>
        <g
           id="path11262"
           serif:id="path1126"
           transform="matrix(1.34574,-0.06841,0.0689275,1.35592,-482.809,-41.5419)">
          <path
             d="m 540.33,322.695 c -0.11,0.008 -0.215,0.051 -0.299,0.123 -0.214,0.185 -0.239,0.514 -0.054,0.729 0.532,0.621 0.598,1.008 0.502,1.404 -0.097,0.396 -0.449,0.867 -0.977,1.395 -0.2,0.2 -0.2,0.53 0,0.73 0.097,0.097 0.229,0.152 0.366,0.152 0.138,0 0.269,-0.055 0.366,-0.152 0.573,-0.572 1.072,-1.15 1.25,-1.879 0.179,-0.729 -0.055,-1.543 -0.722,-2.322 -0.107,-0.125 -0.268,-0.192 -0.432,-0.18 z"
             style="fill:#ff9b00;fill-rule:nonzero"
             id="path1416" />
        </g>
        <g
           id="path11222"
           serif:id="path1122"
           transform="matrix(1.34574,-0.06841,0.0689275,1.35592,-482.809,-41.5419)">
          <path
             d="m 546.506,328.197 c -0.259,0.032 -0.455,0.253 -0.455,0.514 0,0.021 10e-4,0.042 0.004,0.062 0.031,0.259 0.253,0.455 0.513,0.455 0.021,0 0.042,-0.001 0.063,-0.003 0.545,-0.066 0.791,0.041 0.865,0.105 0.075,0.064 0.105,0.135 0.065,0.348 -0.081,0.426 -0.627,1.131 -1.184,1.353 -0.264,0.105 -0.394,0.409 -0.289,0.672 0.105,0.264 0.408,0.394 0.672,0.289 0.943,-0.377 1.647,-1.224 1.816,-2.123 0.085,-0.449 -0.01,-0.985 -0.404,-1.324 -0.394,-0.339 -0.961,-0.432 -1.666,-0.348 z"
             style="fill:#ff9b00;fill-rule:nonzero"
             id="path1419" />
        </g>
        <g
           id="path11182"
           serif:id="path1118"
           transform="matrix(1.34574,-0.06841,0.0689275,1.35592,-482.809,-41.5419)">
          <path
             d="m 556.68,328.395 c -0.152,-0.004 -0.298,0.06 -0.399,0.173 -0.083,0.095 -0.13,0.217 -0.13,0.343 0,0.148 0.064,0.29 0.175,0.388 0.782,0.69 1.055,1.298 1.014,1.754 -0.042,0.455 -0.392,0.941 -1.303,1.396 -0.253,0.127 -0.357,0.44 -0.23,0.694 0.127,0.253 0.44,0.357 0.693,0.23 1.089,-0.545 1.787,-1.309 1.871,-2.228 0.084,-0.92 -0.443,-1.812 -1.361,-2.622 -0.092,-0.08 -0.209,-0.126 -0.33,-0.128 z"
             style="fill:#ff9b00;fill-rule:nonzero"
             id="path1422" />
        </g>
        <g
           id="path11142"
           serif:id="path1114"
           transform="matrix(1.34574,-0.06841,0.0689275,1.35592,-482.809,-41.5419)">
          <path
             d="m 552.084,338.895 c -0.069,-0.002 -0.138,0.009 -0.203,0.035 -0.199,0.077 -0.33,0.269 -0.33,0.482 0,0.064 0.012,0.128 0.035,0.188 0.331,0.851 0.333,1.289 0.225,1.494 -0.109,0.205 -0.458,0.424 -1.26,0.613 -0.234,0.054 -0.401,0.264 -0.401,0.504 0,0.04 0.005,0.08 0.014,0.119 0.055,0.233 0.264,0.399 0.504,0.399 0.04,0 0.08,-0.005 0.119,-0.014 0.897,-0.211 1.598,-0.492 1.94,-1.137 0.341,-0.645 0.193,-1.404 -0.176,-2.353 -0.075,-0.194 -0.26,-0.324 -0.467,-0.33 z"
             style="fill:#ff9b00;fill-rule:nonzero"
             id="path1425" />
        </g>
        <g
           id="path11102"
           serif:id="path1110"
           transform="matrix(1.34574,-0.06841,0.0689275,1.35592,-482.809,-41.5419)">
          <path
             d="m 538.67,338.494 c -0.029,0 -0.058,0.002 -0.086,0.006 -0.249,0.041 -0.433,0.258 -0.433,0.511 0,0.028 0.003,0.057 0.007,0.085 0.088,0.524 0.052,1.116 -0.123,1.502 -0.174,0.386 -0.389,0.596 -0.967,0.596 0,-0.001 0,-0.001 0,-0.001 -0.284,0 -0.517,0.234 -0.517,0.518 v 0 c 0,0.284 0.233,0.518 0.517,0.518 0,0 0,0 0,0 0.923,0 1.608,-0.541 1.909,-1.205 0.3,-0.665 0.313,-1.422 0.201,-2.098 -0.042,-0.247 -0.257,-0.431 -0.508,-0.432 z"
             style="fill:#ff9b00;fill-rule:nonzero"
             id="path1428" />
        </g>
        <g
           id="path11062"
           serif:id="path1106"
           transform="matrix(1.34574,-0.06841,0.0689275,1.35592,-482.809,-41.5419)">
          <path
             d="m 537.652,347.693 c -0.173,0.006 -0.333,0.099 -0.423,0.246 -0.304,0.494 -0.683,0.615 -1.272,0.67 -0.589,0.056 -1.321,-0.025 -2.066,0.09 -0.252,0.038 -0.44,0.257 -0.44,0.512 0,0.026 0.002,0.052 0.006,0.078 0.038,0.252 0.257,0.44 0.511,0.44 0.027,0 0.053,-0.002 0.079,-0.006 0.554,-0.086 1.272,-0.015 2.008,-0.084 0.736,-0.07 1.558,-0.35 2.054,-1.157 0.149,-0.241 0.072,-0.562 -0.17,-0.711 -0.086,-0.053 -0.185,-0.08 -0.287,-0.078 z"
             style="fill:#ff9b00;fill-rule:nonzero"
             id="path1431" />
        </g>
        <g
           id="path11022"
           serif:id="path1102"
           transform="matrix(1.34574,-0.06841,0.0689275,1.35592,-482.809,-41.5419)">
          <path
             d="m 566.281,337.494 c -0.261,-0.007 -0.488,0.185 -0.525,0.444 -0.03,0.209 -0.096,0.285 -0.246,0.378 -0.151,0.094 -0.406,0.165 -0.701,0.192 -0.592,0.054 -1.301,-0.057 -1.668,-0.11 -0.281,-0.039 -0.544,0.159 -0.584,0.44 -0.004,0.024 -0.006,0.049 -0.006,0.074 0,0.256 0.191,0.476 0.445,0.512 0.333,0.047 1.123,0.186 1.906,0.115 0.392,-0.036 0.794,-0.121 1.153,-0.344 0.358,-0.222 0.656,-0.62 0.726,-1.111 0.04,-0.281 -0.159,-0.544 -0.439,-0.584 -0.02,-0.003 -0.04,-0.005 -0.061,-0.006 z"
             style="fill:#ff9b00;fill-rule:nonzero"
             id="path1434" />
        </g>
        <g
           id="path10982"
           serif:id="path1098"
           transform="matrix(1.34574,-0.06841,0.0689275,1.35592,-482.809,-41.5419)">
          <path
             d="m 535.072,310.193 c -0.111,0 -0.219,0.035 -0.308,0.1 -0.23,0.167 -0.281,0.493 -0.114,0.723 0.396,0.543 0.63,0.899 0.737,1.101 0.106,0.202 0.051,0.157 0.092,0.059 0.04,-0.099 0.01,-0.037 -0.147,0.101 -0.157,0.138 -0.376,0.371 -0.535,0.721 -10e-4,0.003 -0.003,0.007 -0.004,0.01 -0.34,0.793 -0.437,1.616 -0.627,2.377 -0.011,0.041 -0.016,0.084 -0.016,0.127 0,0.237 0.163,0.445 0.393,0.502 0.275,0.068 0.558,-0.102 0.627,-0.377 0.209,-0.835 0.313,-1.605 0.57,-2.211 l 0.002,-0.002 c 0.091,-0.198 0.172,-0.28 0.274,-0.369 0.102,-0.09 0.289,-0.174 0.418,-0.485 0.128,-0.31 0.028,-0.636 -0.131,-0.937 -0.159,-0.301 -0.412,-0.67 -0.817,-1.227 -0.096,-0.132 -0.25,-0.211 -0.414,-0.212 z"
             style="fill:#ff9b00;fill-rule:nonzero"
             id="path1437" />
        </g>
        <g
           id="path10942"
           serif:id="path1094"
           transform="matrix(1.34574,-0.06841,0.0689275,1.35592,-482.809,-41.5419)">
          <path
             d="m 545.125,311.295 c -0.131,0.011 -0.254,0.072 -0.342,0.17 -0.189,0.211 -0.172,0.541 0.039,0.73 0.479,0.431 0.602,0.665 0.606,0.709 0.002,0.022 0.004,0.056 -0.061,0.168 -0.064,0.113 -0.194,0.282 -0.385,0.496 -0.187,0.212 -0.167,0.541 0.043,0.729 0.095,0.084 0.218,0.131 0.344,0.131 0.148,0 0.289,-0.064 0.387,-0.174 0.209,-0.236 0.378,-0.441 0.508,-0.666 0.129,-0.225 0.218,-0.492 0.195,-0.77 -0.046,-0.556 -0.424,-0.923 -0.945,-1.392 -0.106,-0.096 -0.247,-0.143 -0.389,-0.131 z"
             style="fill:#ff9b00;fill-rule:nonzero"
             id="path1440" />
        </g>
        <g
           id="path10902"
           serif:id="path1090"
           transform="matrix(1.34574,-0.06841,0.0689275,1.35592,-482.809,-41.5419)">
          <path
             d="m 554.752,316.895 c -0.131,0.003 -0.256,0.057 -0.35,0.15 -0.097,0.097 -0.152,0.229 -0.152,0.366 0,0.137 0.055,0.269 0.152,0.366 0.347,0.347 0.578,0.742 0.629,1.075 0.051,0.332 -0.011,0.617 -0.408,0.974 -0.211,0.19 -0.229,0.52 -0.039,0.731 0.19,0.211 0.519,0.228 0.73,0.039 0.604,-0.543 0.84,-1.258 0.741,-1.901 -0.099,-0.642 -0.467,-1.197 -0.92,-1.65 -0.102,-0.101 -0.24,-0.155 -0.383,-0.15 z"
             style="fill:#ff9b00;fill-rule:nonzero"
             id="path1443" />
        </g>
        <g
           id="path10862"
           serif:id="path1086"
           transform="matrix(1.34574,-0.06841,0.0689275,1.35592,-482.809,-41.5419)">
          <path
             d="m 563.805,324.32 c -0.255,0.085 -0.449,0.408 -0.465,0.604 -0.016,0.196 0.022,0.323 0.051,0.437 0.044,0.178 0.049,0.227 0.068,0.223 -0.028,0.025 -0.018,0.017 -0.064,0.049 -0.103,0.07 -0.235,0.149 -0.35,0.213 -0.039,0.021 -0.052,0.027 -0.086,0.045 -0.048,0.026 -0.094,0.041 -0.142,0.068 -0.02,0.009 -0.045,0.024 -0.065,0.035 0,0 0.072,0.955 0.072,0.955 0,0 0.19,0.024 0.19,0.024 0,0 0.068,-0.008 0.068,-0.008 0,0 0.046,-0.011 0.057,-0.014 0.022,-0.007 0.029,-0.011 0.037,-0.014 0.031,-0.012 0.04,-0.017 0.057,-0.025 0.04,-0.019 0.12,-0.062 0.189,-0.098 0.842,-0.46 1.691,-0.846 2.557,-1.23 0.055,-0.025 0.106,-0.059 0.15,-0.102 0.043,-0.042 0.079,-0.092 0.105,-0.146 0.009,-0.019 0.017,-0.038 0.024,-0.057 0.006,-0.019 0.011,-0.037 0.015,-0.057 0.003,-0.009 0.005,-0.018 0.006,-0.027 10e-4,-0.008 0.002,-0.016 0.002,-0.023 0.001,-0.004 0.002,-0.007 0.002,-0.01 10e-4,-0.004 10e-4,-0.007 0,-0.01 0.002,-0.017 0.003,-0.033 0.002,-0.049 0,-0.018 -10e-4,-0.037 -0.004,-0.055 0,-0.002 0,-0.004 0,-0.006 0,-0.002 -10e-4,-0.004 -0.002,-0.006 -0.002,-0.014 -0.004,-0.027 -0.008,-0.041 0,-0.004 -10e-4,-0.009 -0.002,-0.014 -0.002,-0.008 -0.005,-0.017 -0.008,-0.025 -0.006,-0.019 -0.013,-0.038 -0.021,-0.057 -0.008,-0.018 -0.017,-0.035 -0.027,-0.052 -0.01,-0.018 -0.021,-0.035 -0.034,-0.051 -0.024,-0.032 -0.052,-0.061 -0.084,-0.086 -0.047,-0.038 -0.1,-0.068 -0.158,-0.088 -0.018,-0.007 -0.037,-0.013 -0.056,-0.017 -10e-4,0 -0.002,0 -0.002,0 -0.009,-0.002 -0.017,-0.003 -0.026,-0.004 -10e-4,-10e-4 -0.003,-0.002 -0.004,-0.002 -0.217,-0.037 -0.499,-0.15 -0.836,-0.249 -0.338,-0.098 -0.761,-0.18 -1.209,-0.031 z m -1.053,1.674 c -0.013,0.007 -0.018,0.006 -0.043,0.022 -0.01,0.006 -0.054,0.04 -0.055,0.041 0,0 -0.037,0.033 -0.037,0.033 0,0 -0.074,0.092 -0.074,0.092 0,0 0.209,-0.188 0.209,-0.188 z"
             style="fill:#ff9b00;fill-rule:nonzero"
             id="path1446" />
        </g>
        <g
           id="path10822"
           serif:id="path1082"
           transform="matrix(1.34574,-0.06841,0.0689275,1.35592,-482.809,-41.5419)">
          <path
             d="m 558.385,349.594 c -0.07,-0.002 -0.139,0.01 -0.203,0.035 -0.199,0.077 -0.331,0.269 -0.331,0.482 0,0.064 0.012,0.128 0.036,0.188 0.331,0.851 0.333,1.291 0.224,1.496 -0.108,0.205 -0.459,0.424 -1.261,0.613 -0.276,0.065 -0.45,0.345 -0.385,0.621 0.055,0.233 0.264,0.399 0.503,0.399 0.041,0 0.081,-0.005 0.12,-0.014 0.897,-0.211 1.596,-0.492 1.937,-1.137 0.342,-0.645 0.194,-1.404 -0.175,-2.353 -0.075,-0.193 -0.259,-0.323 -0.465,-0.33 z"
             style="fill:#ff9b00;fill-rule:nonzero"
             id="path1449" />
        </g>
        <g
           id="path2119-12"
           serif:id="path2119-1"
           transform="matrix(1.34574,-0.06841,0.0689275,1.35592,-482.809,-41.5419)">
          <path
             d="m 530.468,307.411 c -0.8,-0.1 -6.7,1.4 -8.9,3.2 -3.6,2.3 -6.3,6 -7.8,10 -0.1,0.1 -0.2,0.1 -0.3,0.2 h -0.1 c -2.2,-1.2 -4.5,-2 -7.3,-1.8 -0.9,0.1 -1.7,0.3 -2.7,0.9 -0.5,0.3 -1,0.6 -1.4,1.3 -0.4,0.6 -0.7,1.6 -0.5,2.4 0.2,1.1 1.3,1.8 2.5,1.6 0.9,-0.2 1.5,-0.9 1.6,-1.8 0.3,-0.1 0.7,-0.3 0.8,-0.3 1.9,-0.2 3.1,0.3 5,1.3 0.1,0 0.2,0.1 0.3,0.1 -3.7,9.7 -2.2,6.7 -0.9,18.6 -0.3,1.5 2.4,4.5 3.2,2.4 -0.2,-2.2 -0.8,-4.3 -0.8,-6.5 -0.8,-6.4 -1.6,-4 0.7,-8.3 1.4,-4.5 1.6,1.2 2.4,3.2 1.8,3.9 4.8,7 7.5,10.3 0.1,1 2.3,3.8 1.7,1.2 -1.1,-5.2 -3,-10.3 -5.6,-15 -1.1,-1.4 -2.8,-2 -1.8,-2.7 1,-0.6 4.6,3 6.6,3.8 3,0.9 6.3,-0.9 9.1,0.5 -0.4,-0.8 -1.5,-3.1 -1.9,-3.3 -3.4,-2.4 -7.5,-2.9 -11.8,-3.2 h -2.5 l 0.1,-0.1 c 0.2,0 0.3,0.1 0.4,0.1 0.7,0 1.3,0.1 2,0.1 7.2,-0.4 10.4,-5.4 14.4,-10.1 -6.1,-1.1 -12,3.5 -13.3,1.9 -1,-1.5 5,-5.3 9.3,-10 0.1,0.1 0.1,0.1 0,0 z m 3.4,24.6 c 0.2,0.4 0.2,0.5 0,0 z"
             style="fill:#008000;fill-rule:nonzero"
             id="path1452" />
        </g>
      </g>
    </g>
  </g>
</svg>
