<?xml version="1.0" encoding="UTF-8" standalone="no"?>
<!-- Created with Inkscape (http://www.inkscape.org/) -->

<svg
   width="224.48729mm"
   height="152.33084mm"
   viewBox="0 0 224.4873 152.33084"
   version="1.1"
   id="svg4547"
   sodipodi:docname="2022-LV-03-taskbody1.svg"
   inkscape:version="1.1.1 (3bf5ae0d25, 2021-09-20)"
   xmlns:inkscape="http://www.inkscape.org/namespaces/inkscape"
   xmlns:sodipodi="http://sodipodi.sourceforge.net/DTD/sodipodi-0.dtd"
   xmlns="http://www.w3.org/2000/svg"
   xmlns:svg="http://www.w3.org/2000/svg">
  <sodipodi:namedview
     id="namedview4549"
     pagecolor="#ffffff"
     bordercolor="#666666"
     borderopacity="1.0"
     inkscape:pageshadow="2"
     inkscape:pageopacity="0.0"
     inkscape:pagecheckerboard="0"
     inkscape:document-units="mm"
     showgrid="false"
     inkscape:zoom="0.082960684"
     inkscape:cx="1922.5975"
     inkscape:cy="4429.8092"
     inkscape:window-width="1680"
     inkscape:window-height="1027"
     inkscape:window-x="1912"
     inkscape:window-y="-8"
     inkscape:window-maximized="1"
     inkscape:current-layer="layer1" />
  <defs
     id="defs4544" />
  <g
     inkscape:label="Ebene 1"
     inkscape:groupmode="layer"
     id="layer1"
     transform="translate(-17.205462,-5.2038125)">
    <g
       id="g3897"
       style="clip-rule:evenodd;fill-rule:evenodd;stroke-linecap:round;stroke-linejoin:round;stroke-miterlimit:1.5"
       transform="matrix(0.26458333,0,0,0.26458333,35.195474,-32.78957)">
      <g
         transform="matrix(0.839423,0,0,0.839423,-269.568,-157.293)"
         id="g26">
        <g
           transform="translate(12.4188,13.1429)"
           id="g4">
          <path
             d="m 1066.15,392.719 -631.049,12.764 c -0.417,221.909 -11.954,433.519 25.386,625.697 211.329,-4.18 430.269,-21.12 628.843,-3.93 -17.51,-198.357 -17.08,-420.835 -23.18,-634.531 z"
             style="fill:#b7b7b7"
             id="path2" />
        </g>
        <g
           transform="translate(2.97862,6.99226)"
           id="g8">
          <path
             d="m 1066.15,392.719 -631.049,12.764 c -0.417,221.909 -11.954,433.519 25.386,625.697 l 622.453,-15.66 z"
             style="fill:#fff7d8;stroke:#000b7c;stroke-width:2.38px"
             id="path6" />
        </g>
        <g
           transform="translate(45.5311,8.28659)"
           id="g12">
          <path
             d="m 630.797,482.37 c 0,33.737 4.184,128.288 5.457,162.001 1.624,43.047 0.484,86.23 2.809,129.249 1.26,23.296 6.777,154.703 1.001,172.031"
             style="fill:none;stroke:#000000;stroke-width:11.91px"
             id="path10" />
        </g>
        <g
           transform="rotate(-89.623936,675.60438,612.80262)"
           id="g16">
          <path
             d="m 630.797,482.37 c 0,33.737 4.184,128.288 5.457,162.001 1.624,43.047 0.484,86.23 2.809,129.249 1.26,23.296 6.777,154.703 1.001,172.031"
             style="fill:none;stroke:#000000;stroke-width:11.91px"
             id="path14" />
        </g>
        <g
           transform="rotate(-90.809651,756.57441,683.06907)"
           id="g20">
          <path
             d="m 630.797,482.37 c 0,33.737 4.184,128.288 5.457,162.001 1.624,43.047 0.484,86.23 2.809,129.249 1.26,23.296 6.777,154.703 1.001,172.031"
             style="fill:none;stroke:#000000;stroke-width:11.91px"
             id="path18" />
        </g>
        <g
           transform="translate(218.021,8.03975)"
           id="g24">
          <path
             d="m 630.797,482.37 c 0,33.737 4.184,128.288 5.457,162.001 1.624,43.047 0.484,86.23 2.809,129.249 1.26,23.296 6.777,154.703 1.001,172.031"
             style="fill:none;stroke:#000000;stroke-width:11.91px"
             id="path22" />
        </g>
      </g>
      <path
         id="path28"
         style="fill:#000b7c"
         d="m 536.39648,254.86914 c -1.2507,0.0276 -2.65831,0.3555 -4.22656,1.125 -3.729,1.947 -5.17551,6.55716 -3.22851,10.28516 l 0.041,0.0762 c -0.285,1.121 -0.64992,2.44147 -1.04492,3.60547 -2.62137,7.71374 -7.53837,19.21671 -13.45117,31.50976 -4.30672,-6.73041 -8.96385,-13.26375 -13.88281,-19.71093 -2.6,-3.407 -12.50772,-17.08891 -17.01172,-22.25391 -2.01,-2.306 -3.868,-3.41581 -4.625,-3.75781 -2.697,-1.219 -4.86838,-0.51624 -6.35938,0.13476 -2.032,0.888 -3.66778,2.61892 -4.30078,5.66992 -0.604,3.462 1.23639,6.78994 4.27539,8.21094 4.66,4.705 15.00775,17.27263 17.71875,20.39063 6.388,7.347 12.40238,14.83779 17.85938,22.71679 0.12652,0.1827 0.24905,0.36772 0.375,0.55079 -9.34478,18.16698 -19.9577,36.02624 -27.98047,44.46289 -1.855,1.855 -1.855,4.86765 0,6.72265 1.855,1.855 4.86765,1.855 6.72265,0 7.9967,-7.60491 18.64478,-23.14929 28.58008,-39.73633 2.43765,4.13546 4.71866,8.38536 6.81446,12.78125 1.05299,2.403 3.85871,3.50027 6.26171,2.44727 2.403,-1.053 3.49832,-3.85872 2.44532,-6.26172 -2.72048,-6.79229 -5.85578,-13.29847 -9.31446,-19.60937 8.53419,-15.06442 15.91098,-29.80689 19.63867,-39.19922 2.23401,-5.628 3.05857,-9.88755 2.97657,-11.93555 -0.135,-3.37 -1.83046,-5.30423 -3.31446,-6.49023 -1.23562,-0.98813 -2.88424,-1.78029 -4.96875,-1.73438 z" />
      <g
         id="g74">
        <g
           id="rect7125"
           transform="matrix(0.288503,0.605863,-0.605863,0.288503,916.009,4.16176)">
          <path
             d="m 151.093,336.171 84.186,0.4 c 6.538,0.031 21.08,13.041 20.985,22.074 l -0.4,38.277 c -0.033,3.14 -2.578,5.669 -5.78,5.669 h -98.991 c -3.202,0 -5.78,-2.529 -5.78,-5.669 V 341.84 c 0,-3.141 2.578,-5.685 5.78,-5.669 z"
             style="fill:#ffadad;fill-rule:nonzero"
             id="path32" />
        </g>
        <g
           id="rect7125-5"
           transform="matrix(0.288503,0.605863,-0.605863,0.288503,916.009,4.16176)">
          <path
             d="m 220.027,337.771 c 7.169,2.864 17.913,13.569 17.832,21.339 l -0.4,38.276 c -0.033,3.141 -2.578,5.669 -5.78,5.669 l 16.804,0.801 c 3.203,0 5.748,-2.528 5.781,-5.669 l 0.4,-38.278 c 0.094,-9.032 -14.446,-22.042 -20.984,-22.073 z"
             style="fill:#f79090;fill-rule:nonzero"
             id="path35" />
        </g>
        <g
           id="rect815-4"
           transform="matrix(0.605863,-0.288503,0.288503,0.605863,443.196,6.71978)">
          <path
             d="m 246.868,453.662 c 3.758,31.978 5.204,63.412 0,93.281 -0.956,5.486 -5.604,10.052 -12.565,10.052 l -181.289,1.753 c -6.962,0 -12.566,-4.484 -12.566,-10.053 v -93.281 c 0,-5.569 5.604,-10.052 12.566,-10.052 l 181.289,-1.752 c 6.961,0 11.915,4.521 12.565,10.052 z"
             style="fill:#000b7c;fill-rule:nonzero"
             id="path38" />
        </g>
        <g
           id="path817-0"
           transform="matrix(0.605863,-0.288503,0.288503,0.605863,443.196,6.71978)">
          <path
             d="M 48.208,557.935 -100.379,501.794 48.208,445.652 c 5.218,30.254 11.256,59.378 0,112.283 z"
             style="fill:#e9c6af;fill-rule:nonzero"
             id="path41" />
        </g>
        <g
           id="path817-4-1"
           transform="matrix(0.605863,-0.288503,0.288503,0.605863,443.196,6.71978)">
          <path
             d="m 51.519,540.001 -151.883,-38.202 148.572,56.136 c 1.341,-6.305 2.43,-12.263 3.311,-17.934 z"
             style="fill:#e6bfa5;fill-rule:nonzero"
             id="path44" />
        </g>
        <g
           id="path817-4-6-3"
           transform="matrix(0.605863,-0.288503,0.288503,0.605863,443.196,6.71978)">
          <path
             d="M 52.931,476.316 48.208,445.652 -100.37,501.791 Z"
             style="fill:#e7d0c2;fill-rule:nonzero"
             id="path47" />
        </g>
        <g
           id="rect815-1-9"
           transform="matrix(0.605863,-0.288503,0.288503,0.605863,443.196,6.71978)">
          <path
             d="m 53.014,445.362 c 78.763,25.437 131.097,-4.428 150.813,12.66 43.173,37.419 31.26,-2.983 21.078,-14.125 z"
             style="fill:#08080b;fill-rule:nonzero"
             id="path50" />
        </g>
        <g
           id="path817-3-3"
           transform="matrix(0.605863,-0.288503,0.288503,0.605863,443.196,6.71978)">
          <path
             d="m -16.09,497.844 c 0,-9.209 -0.413,-18.341 -1.416,-27.363 l -82.872,31.313 80.354,30.36 c 2.404,-14.545 3.934,-28.561 3.934,-34.31 z"
             style="fill:#000b7c;fill-rule:nonzero"
             id="path53" />
        </g>
        <g
           id="path3401-1"
           transform="matrix(0.605863,-0.288503,0.288503,0.605863,443.196,6.71978)">
          <path
             d="m -46.307,505.001 c -5.72,0 -31.311,-7.421 -34.988,-3.976 -3.617,3.39 7.641,6.952 19.144,10.271 39.369,17.187 35.916,-5.273 15.844,-6.295 z"
             style="fill:#565fbf;fill-rule:nonzero"
             id="path56" />
        </g>
        <g
           id="path5742"
           transform="matrix(0.605863,-0.288503,0.288503,0.605863,443.196,6.71978)">
          <path
             d="m 182.536,538.185 c -14.269,-2.265 -31.489,-2.677 -47.986,-1.997 -16.498,0.68 -32.273,2.453 -43.653,4.558 -29.493,5.542 -8.364,8.768 5.882,9.466 13.208,0.628 30.504,0.957 47.695,1.117 17.192,0.16 34.278,0.15 47.067,0.101 38.005,4.519 5.524,-10.847 -9.005,-13.245 z"
             style="fill:#565fbf;fill-rule:nonzero"
             id="path59" />
        </g>
        <g
           id="rect7120"
           transform="matrix(0.288503,0.605863,-0.605863,0.288503,916.009,4.16176)">
          <path
             d="m 151.704,380.584 h 99.63 c 7.563,-0.288 5.947,-0.365 5.947,6.802 v 27.609 c 0,2.532 -4.554,2.737 -7.086,2.737 -2.533,0 -4.555,-2.737 -7.087,-2.737 -2.532,0 -4.554,2.737 -7.087,2.737 -2.532,0 -4.554,-2.737 -7.086,-2.737 -2.532,0 -4.554,2.737 -7.087,2.737 -2.532,0 -4.554,-2.737 -7.086,-2.737 -2.533,0 -4.555,2.737 -7.087,2.737 -2.532,0 -4.554,-2.737 -7.087,-2.737 -2.532,0 -4.554,2.737 -7.086,2.737 -2.533,0 -4.555,-2.737 -7.087,-2.737 -2.532,0 -4.554,2.737 -7.086,2.737 -2.533,0 -4.555,-2.737 -7.087,-2.737 -2.532,0 -4.554,2.737 -7.087,2.737 -2.532,0 -4.554,-2.737 -7.086,-2.737 -2.533,0 -4.555,2.737 -7.087,2.737 -2.532,0 -7.087,-0.205 -7.087,-2.737 v -28.809 c -0.324,-7.911 0.168,-5.602 7.809,-5.602 z"
             style="fill:#ac9393;fill-rule:nonzero"
             id="path62" />
        </g>
        <g
           id="path7128"
           transform="matrix(0.288503,0.605863,-0.605863,0.288503,916.009,4.16176)">
          <path
             d="m 193.317,344.573 c -13.385,-5.971 -27.481,-4.262 -35.284,1.886 -3.607,2.842 -5.87,6.633 -6.095,11.053 2.706,6.812 3.625,15.264 10.338,2.349 7.905,-16.148 35.533,-6.716 31.041,-15.288 z"
             style="fill:#ffd2d2;fill-rule:nonzero"
             id="path65" />
        </g>
        <g
           id="path7166"
           transform="matrix(0.288503,0.605863,-0.605863,0.288503,916.009,4.16176)">
          <path
             d="m 252.535,400.59 c 7.929,-4.986 -119.283,3.371 -94.429,-1.6"
             style="fill:none;fill-rule:nonzero;stroke:#d4c7c7;stroke-width:2.45px;stroke-linecap:butt;stroke-linejoin:miter;stroke-miterlimit:4"
             id="path68" />
        </g>
        <g
           id="path7168"
           transform="matrix(0.288503,0.605863,-0.605863,0.288503,916.009,4.16176)">
          <path
             d="m 250.134,393.388 c -21.066,-7.386 -55.676,-5.602 -75.223,-5.602"
             style="fill:none;fill-rule:nonzero;stroke:#d4c7c7;stroke-width:2.45px;stroke-linecap:butt;stroke-linejoin:miter;stroke-miterlimit:4"
             id="path71" />
        </g>
      </g>
    </g>
  </g>
</svg>
