<?xml version="1.0" encoding="UTF-8" standalone="no"?>
<!-- Created with Inkscape (http://www.inkscape.org/) -->

<svg
   width="139.1212mm"
   height="24.013323mm"
   viewBox="0 0 139.1212 24.013323"
   version="1.1"
   id="svg1154"
   inkscape:version="1.1.1 (3bf5ae0d25, 2021-09-20)"
   sodipodi:docname="2022-CA-02-transformation3.svg"
   xmlns:inkscape="http://www.inkscape.org/namespaces/inkscape"
   xmlns:sodipodi="http://sodipodi.sourceforge.net/DTD/sodipodi-0.dtd"
   xmlns="http://www.w3.org/2000/svg"
   xmlns:svg="http://www.w3.org/2000/svg">
  <sodipodi:namedview
     id="namedview1156"
     pagecolor="#ffffff"
     bordercolor="#666666"
     borderopacity="1.0"
     inkscape:pageshadow="2"
     inkscape:pageopacity="0.0"
     inkscape:pagecheckerboard="0"
     inkscape:document-units="mm"
     showgrid="false"
     inkscape:zoom="0.66368547"
     inkscape:cx="313.40147"
     inkscape:cy="201.1495"
     inkscape:window-width="1680"
     inkscape:window-height="1027"
     inkscape:window-x="1912"
     inkscape:window-y="-8"
     inkscape:window-maximized="1"
     inkscape:current-layer="layer1" />
  <defs
     id="defs1151" />
  <g
     inkscape:label="Ebene 1"
     inkscape:groupmode="layer"
     id="layer1"
     transform="translate(-35.950169,-76.894005)">
    <g
       id="g2516"
       transform="translate(-18.561814,-42.743634)">
      <g
         aria-label="⇒"
         id="text835-3-3-0"
         style="font-size:22.5778px;line-height:1.25;stroke-width:0.264583"
         transform="matrix(1.6877508,0,0,1.6877508,170.39897,-91.208462)">
        <path
           d="m -42.67321,138.21467 q -0.584289,0 -0.584289,-0.54019 0,-0.35278 1.146529,-1.40009 h -11.44324 v -1.0914 h 12.479526 l 1.763891,-1.85209 -1.510332,-1.14653 H -53.55421 v -1.08038 h 11.332997 q -1.289845,-0.84887 -1.289845,-1.2678 0,-0.58429 0.540192,-0.58429 0.440972,0 2.756079,1.85209 2.326131,1.85209 2.326131,2.18281 0,0.36381 -2.215888,2.64584 -2.193839,2.28203 -2.568666,2.28203 z"
           style="font-family:OpenSymbol;-inkscape-font-specification:'OpenSymbol, Normal';font-variation-settings:normal;opacity:1;vector-effect:none;fill:#000000;fill-opacity:1;stroke-width:0.0937937;stroke-linecap:butt;stroke-linejoin:miter;stroke-miterlimit:2;stroke-dasharray:none;stroke-dashoffset:0;stroke-opacity:1;-inkscape-stroke:none;stop-color:#000000;stop-opacity:1"
           id="path4279-3-7-2" />
      </g>
      <g
         id="g2344"
         transform="translate(-1.2208382)">
        <path
           d="m 124.37319,120.42285 c -0.097,-0.097 -3.40857,-0.26609 -3.64878,-0.0261 -0.0735,0.0738 0.58637,2.58466 0.68312,2.68142 0.0687,0.0687 2.48623,0.0455 2.48623,0.0554 0,0 0.62942,-2.56071 0.47944,-2.71068 z"
           style="clip-rule:evenodd;fill:#686262;fill-rule:evenodd;stroke-width:0.241897;stroke-linejoin:round;stroke-miterlimit:2"
           id="path4-74-1-8" />
        <g
           transform="matrix(0.1880852,0,0,0.18569755,21.287275,21.088719)"
           id="g8-8-0-3"
           style="clip-rule:evenodd;fill-rule:evenodd;stroke-linejoin:round;stroke-miterlimit:2">
          <path
             d="m 571.678,587.057 c 0.714,-11.412 -3.001,-18.233 -13.431,-18.095 -5.727,-0.222 -10.835,-1.375 -11.077,-5.281 0,0 0.01,-10.179 0.357,-13.868 0.241,-2.552 3.977,-2.055 4.691,-2.963 2.38,-3.025 0.253,-4.888 -2.442,-5.225 -1.333,-0.167 -7.266,-0.262 -7.266,-0.262 0,0 -13.141,0.095 -14.474,0.262 -2.695,0.337 -4.821,2.2 -2.442,5.225 0.714,0.908 4.45,0.411 4.691,2.963 0.347,3.689 0.357,13.868 0.357,13.868 -0.242,3.906 -5.35,5.059 -11.077,5.281 -10.43,-0.138 -14.145,6.683 -13.431,18.095 l -0.085,65.062 c 0,4.355 3.491,7.891 7.791,7.891 h 50.132 c 4.3,0 7.791,-3.536 7.791,-7.891 v -57.317 c 0,-4.355 -0.085,-7.745 -0.085,-7.745 z"
             id="path6-1-9-1" />
        </g>
        <path
           d="m 120.9818,121.64998 c 0.17272,0.67417 0.37543,1.37784 0.42575,1.42816 0.0687,0.0687 2.48622,0.0455 2.48622,0.0554 0,0 0.18987,-0.77165 0.33599,-1.49274 -0.40566,-0.0145 -0.90446,-0.0225 -0.90446,-0.0225 0,0 -1.58249,0.0114 -2.3435,0.0317 z"
           style="clip-rule:evenodd;fill:#2e2e2e;fill-rule:evenodd;stroke-width:0.241897;stroke-linejoin:round;stroke-miterlimit:2"
           id="path10-1-8-5" />
        <path
           d="m 123.98229,128.89332 c 0.40711,0.56555 1.10983,0.49468 1.48573,0.9642 0.50798,0.63522 0.3909,1.67755 0.3909,2.44992 0,2.57619 0.16957,9.07691 0.28665,9.72156 0.031,0.17078 0.88026,0.2402 1.12458,0.0774 0.3776,-0.25182 0.72836,-8.89065 0.46517,-11.25833 -0.1149,-1.03604 -0.12772,-2.27044 -1.14659,-2.97121 -0.90518,-0.62264 -3.16836,0.23537 -2.60643,1.01645 z"
           style="clip-rule:evenodd;fill:#b3b3b3;fill-rule:evenodd;stroke-width:0.241897;stroke-linejoin:round;stroke-miterlimit:2"
           id="path12-9-9-8" />
      </g>
      <g
         id="g2350"
         transform="translate(-2.6555704)">
        <path
           style="clip-rule:evenodd;fill-rule:evenodd;stroke-width:0.264583;stroke-linejoin:round;stroke-miterlimit:2"
           d="m 138.76823,125.68552 c -0.1725,0.30533 -1.39515,-0.10874 -2.00685,0.50297 -0.13678,0.13679 0.11878,7.32393 0.11878,8.22246 0,3.76899 0.082,8.58626 0.36805,8.58626 0.23416,0 0.0595,-0.0619 0.37253,-0.0619 0,0 0.33946,-1.10887 10.64075,-1.05648 0.2286,0.001 0.47969,-0.0931 0.68235,0.0109 1.14063,0.58499 2.39871,0.62097 4.33996,-0.0598 0.322,-0.11298 0.68343,-0.0241 1.03214,0.003 2.12566,0.16748 4.44527,1.20967 7.3451,1.22449 0.9308,0 1.9341,0.59319 2.53709,0.59319 v -1.71714 c 0,-1.0758 0.12276,-2.09894 0.12276,-3.18929 0,-1.81848 0.30323,-10.97465 1.10385,-11.77528 0.0638,-0.0638 -2.31987,-0.0712 -1.43219,-0.05 z"
           id="path2-4-8-7" />
        <g
           style="clip-rule:evenodd;fill-rule:evenodd;stroke-linejoin:round;stroke-miterlimit:2"
           transform="matrix(0.26458333,0,0,0.26458333,-6.89194,-29.447073)"
           id="g24-0-5-0">
          <path
             d="m 548.535,583.478 c 1.328,-0.524 0.169,7.863 0,10.397 -0.377,5.644 1.46,23.713 -0.617,36.658 -1.225,7.638 -0.018,5.849 -0.546,12.963 0.456,1.822 -0.661,5.202 1.163,5.371 1.249,0.116 5.186,-0.109 7.016,-0.838 12.228,-4.874 37.471,-8.534 39.523,-1.632 l 3.101,-1.01 c 1.715,-1.586 6.823,-1.844 12.567,-1.049 9.696,1.342 25.118,5.471 25.431,5.158 0.907,-0.907 4.762,-3.631 4.581,-3.45 l 0.01,0.252 c 0,-13.352 1.86,-31.581 3.771,-44.953 0.604,-4.231 1.39,-19.007 1.39,-19.007 0,0 -22.019,-2.513 -35.253,-0.813 -5.712,0.734 -11.106,7.766 -11.106,7.766 0.486,-5.647 -16.97,-8.454 -31.199,-9.802 -9.697,-0.919 -19.832,3.989 -19.832,3.989 z"
             style="fill:#cccccc"
             id="path22-1-8-9" />
        </g>
        <path
           style="clip-rule:evenodd;fill-rule:evenodd;stroke-width:0.264583;stroke-linejoin:round;stroke-miterlimit:2"
           d="m 160.65747,141.10649 c -0.19155,-0.27834 -0.59293,-0.55059 -1.13559,-0.78052 -0.73554,-0.31167 -1.73963,-0.56541 -2.74875,-0.72601 -1.1811,-0.18786 -2.36908,-0.24765 -3.1422,-0.13573 -0.38787,0.0561 -0.68209,0.16219 -0.85301,0.29845 -0.127,0.1008 -0.1479,0.28575 -0.0468,0.41248 0.1008,0.12674 0.28575,0.1479 0.41248,0.0468 0.15955,-0.127 0.48287,-0.18124 0.89588,-0.21061 0.71755,-0.0513 1.68169,0.0159 2.64134,0.16854 0.95858,0.15267 1.9132,0.39053 2.61197,0.6866 0.41355,0.17542 0.73474,0.36036 0.88053,0.57256 0.0918,0.13361 0.2749,0.16748 0.40851,0.0757 0.13336,-0.0918 0.16722,-0.27464 0.0757,-0.40826 z m -10.61904,-1.71211 c -0.35561,-0.38577 -0.88052,-0.86599 -1.46208,-1.10437 -1.12077,-0.45932 -2.64609,-0.10028 -3.34909,-0.0341 -1.88463,0.17727 -4.08411,0.58605 -5.39194,1.12844 -0.63712,0.26432 -1.0713,0.58023 -1.22794,0.8935 -0.0725,0.14499 -0.0135,0.32147 0.13124,0.39397 0.14499,0.0725 0.32147,0.0138 0.39396,-0.13124 0.11483,-0.22939 0.46117,-0.42016 0.92763,-0.61383 1.26656,-0.5252 3.39725,-0.9144 5.22208,-1.08612 0.64479,-0.0609 2.04364,-0.42836 3.07129,-0.007 0.97022,0.39741 1.61872,1.42822 1.74757,1.55417 0.15214,0.14843 0.30268,0.0926 0.35613,0.0661 0.0706,-0.0347 0.15213,-0.0992 0.16536,-0.24183 0.0376,-0.39847 0.29792,-0.68607 0.6903,-0.898 0.69824,-0.37677 1.78356,-0.51514 2.98741,-0.50059 2.16535,0.0262 4.70985,0.56356 6.17167,1.26286 0.29607,0.14155 0.54584,0.28892 0.73448,0.44106 0.15214,0.12276 0.26327,0.24209 0.30666,0.36803 0.0529,0.15293 0.22039,0.23442 0.37359,0.1815 0.15319,-0.0532 0.23442,-0.22039 0.1815,-0.37359 -0.13335,-0.38549 -0.61066,-0.79666 -1.34276,-1.1467 -1.52056,-0.72734 -4.16586,-1.29302 -6.418,-1.32027 -1.32053,-0.0161 -2.50745,0.15769 -3.27342,0.57097 -0.14949,0.0807 -0.2839,0.17013 -0.40243,0.26882 0.0987,-2.17673 1.11998,-8.99637 1.36049,-10.39813 0.0167,-0.0976 0.0333,-0.18362 0.0386,-0.21008 0.009,-0.0275 0.0148,-0.0572 0.0154,-0.0878 0.004,-0.16192 -0.12515,-0.29633 -0.28708,-0.30004 -0.0452,-0.001 -0.20822,-0.002 -0.28231,0.1913 -0.007,0.0196 -0.0325,0.1262 -0.0635,0.30718 -0.25506,1.48722 -1.37636,9.01541 -1.37636,10.79315 0,0.0111 5.3e-4,0.022 0.002,0.0328 z m -9.26438,1.50839 c 0.0643,-0.0344 0.23548,-0.12303 0.40111,-0.18283 1.02287,-0.36962 3.23374,-0.8292 4.8797,-0.89667 0.66384,-0.027 1.2311,0.003 1.57003,0.14763 0.14896,0.0635 0.32175,-0.006 0.38525,-0.15478 0.0635,-0.14922 -0.006,-0.32173 -0.15505,-0.38523 -0.39423,-0.16828 -1.05197,-0.22596 -1.8243,-0.19421 -1.70524,0.0699 -3.99547,0.54796 -5.05538,0.93081 -0.31168,0.11271 -0.52811,0.2278 -0.62548,0.3175 -0.13573,0.12488 -0.15505,0.25876 -0.13442,0.36221 0.032,0.15875 0.18707,0.26194 0.34581,0.22993 0.099,-0.0198 0.17648,-0.0876 0.21273,-0.17436 z m 11.13579,-12.29149 c -0.0193,0.0124 -0.0402,0.0225 -0.0622,0.0302 -0.022,0.007 -0.0452,0.0124 -0.0691,0.0145 0.0418,-0.003 0.0863,-0.0156 0.13123,-0.0447 z"
           id="path28-27-6-8" />
      </g>
      <g
         id="g12603-4-1"
         transform="translate(60.598507,-14.686997)">
        <g
           style="clip-rule:evenodd;fill:#cccccc;fill-rule:evenodd;stroke-linejoin:round;stroke-miterlimit:2"
           id="g32-3-2-5"
           transform="matrix(0.18971524,0,0,0.18971524,-143.01217,29.776369)">
          <circle
             id="circle30-4-8-7"
             style="fill:#cccccc"
             r="54.416"
             cy="605.49597"
             cx="776.159" />
        </g>
        <g
           style="clip-rule:evenodd;fill:#f9f9f9;fill-rule:evenodd;stroke-linejoin:round;stroke-miterlimit:2"
           id="g36-9-2-8"
           transform="matrix(0.16922088,0,0,0.164456,-127.28851,44.75496)">
          <path
             id="path34-7-1-3"
             style="fill:#f9f9f9"
             d="m 734.145,640.065 c -7.748,-9.404 -12.402,-21.447 -12.402,-34.569 0,-30.033 24.383,-54.416 54.416,-54.416 20.729,0 38.766,11.616 47.951,28.685 -9.982,-12.116 -25.102,-19.847 -42.014,-19.847 -30.033,0 -54.416,24.383 -54.416,54.416 0,9.304 2.34,18.066 6.465,25.731 z" />
        </g>
        <path
           id="path38-6-4-1"
           d="m -4.54248,150.01759 c -0.0273,1.68857 17.09631,2.49317 17.21961,0.73554 0,0 -0.42281,5.7285 -0.50906,6.18093 -0.21564,1.13057 -5.05566,1.58274 -9.45409,1.34038 -3.68618,-0.2032 -7.06226,-0.89429 -7.14746,-2.0828 -0.008,-0.11483 -0.43206,-6.17405 -0.109,-6.17405 z"
           style="clip-rule:evenodd;fill-rule:evenodd;stroke-width:0.264583;stroke-linejoin:round;stroke-miterlimit:2" />
      </g>
    </g>
  </g>
</svg>
