<?xml version="1.0" encoding="UTF-8" standalone="no"?>
<!-- Created with Inkscape (http://www.inkscape.org/) -->

<svg
   width="148.11066mm"
   height="145.1497mm"
   viewBox="0 0 148.11066 145.1497"
   version="1.1"
   id="svg3471"
   sodipodi:docname="2022-LV-03-explanationD.svg"
   inkscape:version="1.1.1 (3bf5ae0d25, 2021-09-20)"
   xmlns:inkscape="http://www.inkscape.org/namespaces/inkscape"
   xmlns:sodipodi="http://sodipodi.sourceforge.net/DTD/sodipodi-0.dtd"
   xmlns="http://www.w3.org/2000/svg"
   xmlns:svg="http://www.w3.org/2000/svg">
  <sodipodi:namedview
     id="namedview3473"
     pagecolor="#ffffff"
     bordercolor="#666666"
     borderopacity="1.0"
     inkscape:pageshadow="2"
     inkscape:pageopacity="0.0"
     inkscape:pagecheckerboard="0"
     inkscape:document-units="mm"
     showgrid="false"
     inkscape:zoom="0.23464825"
     inkscape:cx="782.02162"
     inkscape:cy="1195.4063"
     inkscape:window-width="1920"
     inkscape:window-height="1137"
     inkscape:window-x="-8"
     inkscape:window-y="-8"
     inkscape:window-maximized="1"
     inkscape:current-layer="layer1" />
  <defs
     id="defs3468" />
  <g
     inkscape:label="Ebene 1"
     inkscape:groupmode="layer"
     id="layer1"
     transform="translate(-261.74,42.625197)">
    <g
       id="g4207"
       style="clip-rule:evenodd;fill-rule:evenodd;stroke-linecap:round;stroke-linejoin:round;stroke-miterlimit:1.5"
       transform="matrix(0.26458333,0,0,0.26458333,-588.7648,-775.27725)">
      <g
         transform="matrix(0.839423,0,0,0.839423,2855.42,2448.13)"
         id="g536">
        <path
           d="m 1066.15,392.719 -631.049,12.764 c -0.417,221.909 -11.954,433.519 25.386,625.697 211.329,-4.18 430.269,-21.12 628.843,-3.93 -17.51,-198.357 -17.08,-420.835 -23.18,-634.531 z"
           style="fill:#b7b7b7"
           id="path534" />
      </g>
      <g
         transform="matrix(0.839423,0,0,0.839423,2856.89,2444.37)"
         id="g728">
        <path
           d="m 1066.15,392.719 -631.049,12.764 c -0.417,221.909 -11.954,433.519 25.386,625.697 l 622.453,-15.66 z"
           style="fill:#fff7d8;stroke:#000b7c;stroke-width:2.38px"
           id="path726" />
      </g>
      <path
         d="m 3617.44,3130.7 c 4.91,-4.9 23.97,-16.28 30.43,-6.59 4.09,6.14 1.69,17.31 -1.99,28.6 -5.65,17.38 -14.31,35.05 -6.79,35.05"
         style="fill:none;stroke:#000000;stroke-width:7.93px"
         id="path730" />
      <g
         transform="translate(-8.37257,-0.757861)"
         id="g734">
        <path
           style="color:#000000;clip-rule:nonzero;fill:#000000;fill-rule:nonzero;stroke-linecap:butt;stroke-linejoin:miter;-inkscape-stroke:none"
           d="m 3646.3262,3204.668 c -0.7517,-0.012 -1.4758,0.092 -2.127,0.2695 -2.6048,0.7083 -4.4344,2.3202 -5.8183,4.2383 -0.9907,1.3729 -1.8599,3.0642 -1.9121,5.0332 -0.3843,2.0176 -0.2919,4.2638 0.9023,6.2519 1.4532,2.4208 4.3513,4.1713 7.0195,3.8965 2.6683,-0.2747 4.4862,-1.79 5.8574,-3.4199 1.3713,-1.6299 2.3562,-3.5509 2.8594,-5.6777 0.5032,-2.1268 0.5581,-4.6232 -0.8066,-6.9532 -0.8265,-1.4114 -2.1371,-2.6263 -3.6738,-3.207 -0.7688,-0.2905 -1.5492,-0.4196 -2.3008,-0.4316 z"
           id="path732" />
      </g>
      <g
         transform="translate(-498.2,1082.72)"
         id="g740">
        <path
           id="path738"
           style="fill:#000b7c"
           d="m 3368.4883,2841.5527 c -0.2811,-0.01 -0.5717,-0.01 -0.8692,0.01 -2.99,0.24 -5.4387,2.1886 -6.4687,4.8086 -0.87,1.55 -2.7303,4.7012 -5.3203,8.9512 -5.1831,8.5314 -13.1794,21.4382 -21.6621,34.832 -10.1431,-10.8899 -19.7544,-20.9708 -26.4473,-27.7519 -4.1,-4.15 -7.1812,-7.1006 -8.7012,-8.3906 -1.82,-1.54 -3.3289,-1.9594 -3.8789,-2.1094 -3.42,-0.94 -5.6405,0.5701 -7.0605,1.8301 -1.43,1.25 -2.5297,3.1698 -2.4297,6.0898 0.17,2.91 1.9692,5.3388 4.4492,6.4688 1.54,1.23 4.1701,3.5313 7.5801,6.6113 7.4239,6.7186 18.3329,16.9602 29.6973,27.8887 -12.684,19.7768 -25.1479,38.4693 -30.0274,43.6504 -1.58,1.58 -1.58,4.1504 0,5.7304 1.57,1.58 4.1407,1.58 5.7207,0 5.1805,-4.8841 18.6245,-22.5538 32.4844,-41.4804 13.8575,13.4858 27.3644,27.0529 35.1562,35.7402 2.99,3.33 5.92,7.2598 5.92,7.2598 l -0.031,-0.3301 c 0.24,2 1.9398,3.5508 4.0098,3.5508 2.24,0 4.0508,-1.8111 4.0508,-4.0411 0.02,-0.66 -0.1808,-1.6689 -0.8008,-2.9589 -0.86,-1.77 -3.1385,-4.9511 -6.4785,-9.1211 -7.642,-9.5486 -21.162,-24.7179 -34.8789,-39.6309 9.9564,-13.7515 19.4502,-27.1668 25.5175,-35.918 3.02,-4.36 5.1914,-7.5904 6.1914,-9.1504 0.54,-0.84 0.8288,-1.4407 0.9688,-1.7207 1.17,-2.42 0.6395,-4.1886 0.5195,-4.8086 -0.36,-1.95 -1.4187,-3.2099 -2.4687,-4.1699 -1.2075,-1.1112 -2.7748,-1.7707 -4.7422,-1.8379 z"
           transform="translate(498.2,-1082.72)" />
      </g>
      <g
         transform="translate(-498.2,1082.72)"
         id="g752">
        <path
           id="path750"
           style="fill:#000b7c"
           d="m 3673.125,2837.7012 c -2.4525,0.1031 -4.6534,1.3856 -5.9746,3.3281 l -1.9395,2.5801 c -3.67,4.87 -11.3808,15.0801 -20.6308,27.4101 -3.3959,4.5317 -7.0996,9.4996 -10.7774,14.4356 -8.2958,-11.3514 -16.2198,-21.9834 -21.6328,-29.1758 -3.05,-4.05 -5.3006,-7.0099 -6.3906,-8.4199 -0.39,-0.5 -0.6593,-0.8185 -0.7793,-0.9785 -0.3,-0.36 -0.5194,-0.5507 -0.6094,-0.6407 -1.47,-1.47 -2.8405,-1.6903 -3.3105,-1.8203 -1.7,-0.5 -3.0995,-0.2004 -4.1895,0.1 -2.04,0.57 -3.4697,1.9203 -4.5097,3.8203 -0.49,0.89 -1.5804,3.1797 -0.1504,6.5997 0.38,0.85 0.8995,1.6007 1.5195,2.2207 l 0.3105,0.3398 c 1.15,1.32 3.5396,4.0891 6.7696,7.8691 6.2786,7.3486 15.7259,18.5261 25.4277,30.25 -13.4533,18.1545 -26.8348,36.4814 -34.1777,47.4004 -1.3,1.82 -0.8806,4.3504 0.9394,5.6504 1.82,1.3 4.3507,0.8706 5.6407,-0.9394 7.6083,-10.0346 21.1246,-26.5604 34.9414,-43.1817 10.5429,12.9023 20.5619,25.5431 26.2285,33.6914 1.82,2.62 3.4304,5.4102 3.9804,6.4102 -0.08,0.74 0.05,1.5105 0.4004,2.2305 1,2 3.4397,2.8086 5.4297,1.8086 1.46,-0.68 2.9701,-2.31 2.3301,-5.5 -0.33,-1.67 -2.0103,-5.109 -4.8203,-9.709 -5.5098,-9.0616 -15.5776,-23.4667 -26.0176,-37.9375 11.6169,-13.9007 22.891,-27.274 30.0781,-35.7637 3.55,-4.2 6.1487,-7.2702 7.3887,-8.7402 2.31,-2.74 2.4297,-4.9286 2.4297,-4.9786 0.41,-4.19 -2.6598,-7.92 -6.8398,-8.33 -0.3588,-0.035 -0.7141,-0.044 -1.0645,-0.029 z"
           transform="translate(498.2,-1082.72)" />
      </g>
      <g
         transform="matrix(1.11255,0,0,0.932788,-1102.42,1339.94)"
         id="g760">
        <path
           id="path758"
           style="fill:#000b7c;stroke-width:1.01871"
           d="m 3455.7695,2982.4629 c -2.2034,0.033 -3.7576,1.0812 -4.9453,2.1504 -1.3462,1.2219 -2.3687,3.0788 -2.3242,5.8398 0,0.6623 0.1661,1.8001 0.9004,3.2832 0.4673,0.8582 1.068,1.5862 1.7578,2.1739 l 0.3555,0.3339 c 1.2683,1.2127 3.8943,3.7595 7.4433,7.2481 7.3169,7.1929 18.558,18.3591 29.9219,29.9199 -10.5288,13.1812 -20.1033,26.193 -24.0762,34.3281 -1.996,4.0595 -2.676,7.3194 -2.2812,9.2715 0.4167,2.0187 1.4269,3.482 3.1816,4.3028 1.9961,0.9982 4.4305,0.2015 5.4395,-1.795 0.7019,-1.3975 0.5258,-3.0176 -0.3516,-4.1933 0.351,-0.8208 1.1848,-2.7511 2.1719,-4.3926 4.4445,-7.3507 13.6622,-18.2805 23.8164,-29.4258 10.9752,11.3124 21.279,22.2619 27.2852,29.5 1.9692,2.3786 3.7256,4.8975 4.4043,5.877 -0.045,0.5969 0.056,1.2131 0.3007,1.8007 0.8678,2.0522 3.2367,3.0316 5.295,2.1641 1.8023,-0.6903 3.3951,-2.4171 2.5273,-5.8125 -0.4228,-1.623 -2.3933,-4.9623 -5.6309,-9.4023 -5.7593,-7.8758 -15.8326,-19.9761 -26.5117,-32.4141 9.9494,-10.5788 19.8965,-20.5929 26.4863,-27.084 3.2025,-3.15 5.5944,-5.4572 6.8008,-6.5664 1.0529,-0.7542 1.9297,-1.7961 2.5,-3.0605 1.8425,-4.481 -0.2637,-7.2098 -1.4043,-8.3633 -1.4477,-1.4419 -3.7505,-3.2171 -7.4355,-2.1524 -0.351,0.111 -1.7332,0.3107 -3.3125,1.7969 -0.2852,0.2662 -0.8774,0.8666 -1.711,1.7539 -2.3689,2.5289 -7.2164,7.9188 -13.2265,14.8399 -5.0013,5.7563 -10.7993,12.5613 -16.6426,19.6445 -10.3069,-11.8429 -20.392,-23.1783 -27.0547,-30.582 -3.3821,-3.7685 -5.898,-6.5203 -7.0996,-7.8262 -0.4339,-0.4664 -0.7225,-0.7742 -0.8672,-0.9141 -0.3337,-0.3358 -0.5776,-0.5137 -0.6777,-0.5976 -1.8802,-1.5671 -3.5279,-1.5304 -4.0508,-1.5957 -0.3421,-0.04 -0.6696,-0.055 -0.9844,-0.051 z"
           transform="matrix(0.89883601,0,0,1.072055,990.89479,-1436.4893)" />
      </g>
      <g
         transform="matrix(1.11255,0,0,0.932788,-1101.76,1476.47)"
         id="g768">
        <path
           id="path766"
           style="fill:#000b7c;stroke-width:1.01871"
           d="m 3533.8633,3122.3047 c -2.1989,0.037 -4.3671,1.0197 -5.8477,2.8789 -0.6361,0.7764 -1.0747,1.6628 -1.3379,2.5723 -0.658,0.9538 -1.9295,2.7503 -3.2675,4.414 -4.7314,5.9737 -12.5656,15.2075 -20.8848,25.1172 -5.2729,-7.2924 -10.1855,-13.98 -13.7481,-18.7754 -2.5143,-3.3953 -4.3839,-5.8681 -5.2851,-7.0527 -0.3115,-0.4198 -0.5444,-0.6995 -0.6445,-0.8301 -0.2559,-0.3265 -0.4671,-0.4942 -0.545,-0.5781 -1.1125,-1.1567 -2.1256,-1.4454 -2.5039,-1.6133 -2.3252,-1.0167 -4.194,-0.4573 -5.4511,-0.047 -2.4922,0.8302 -4.2729,2.7153 -4.8848,6.0547 -0.1113,0.6436 -0.3336,2.3402 0.8457,4.7188 0.356,0.6529 0.8021,1.2408 1.3027,1.7539 l 0.1543,0.1679 c 0.9679,1.0914 2.9704,3.3776 5.6739,6.5118 4.2664,4.9415 10.3134,12.0069 16.7519,19.6738 -7.5016,9.0543 -14.865,18.1646 -20.4414,25.7695 -4.8914,6.6771 -8.4452,12.2444 -9.7832,15.7715 -2.0838,5.5236 0,8.54 3.1816,9.3164 2.1496,0.5989 4.3863,-0.6646 4.9786,-2.8164 0.307,-1.1091 0.1108,-2.2402 -0.4375,-3.1719 0.4825,-0.9095 1.4022,-2.5963 2.455,-4.1269 5.335,-7.7279 16.1831,-19.7024 27.545,-31.7403 9.9136,12.0013 19.6545,24.2351 24.7246,31.8614 1.157,1.7629 2.3251,3.8987 2.7812,4.7382 -0.1557,0.7556 -0.088,1.5676 0.2344,2.3418 0.8678,2.0522 3.2367,3.0316 5.2949,2.1641 1.6577,-0.625 2.8713,-2.0531 2.8379,-4.6836 -0.022,-1.5111 -1.2575,-4.7743 -3.7051,-9.1211 -4.7779,-8.4902 -14.3526,-22.4763 -23.9297,-35.957 8.9868,-9.3857 17.5487,-18.1896 23.1778,-24.2891 3.663,-3.9707 6.1418,-7.0318 7.1289,-8.5625 3.5753,-5.6345 -0.1103,-9.6048 -1.4922,-10.8027 -1.4395,-1.1452 -3.1687,-1.6873 -4.8789,-1.6582 z"
           transform="matrix(0.89883601,0,0,1.072055,990.30156,-1582.857)" />
      </g>
      <g
         transform="translate(-498.2,1082.72)"
         id="g796">
        <path
           d="m 4009.25,1775.21 c -2.16,-5.34 -5.44,-8.61 -9.24,-10.43 -3.86,-1.86 -8.37,-2.32 -13.13,-1.4 -9.7,1.86 -20.7,9.55 -26.04,15.3 -18.04,19.41 -22.72,41.28 -15.46,58.5 6.67,15.82 23.6,28.41 51.18,30.91 6,0.54 12.25,-1.67 18,-6.25 8.66,-6.9 16.4,-19.21 20.37,-32.71 5.64,-19.21 3.69,-40.49 -12.19,-51.77 -1.8,-1.32 -4.33,-0.93 -5.65,0.88 -1.32,1.8 -0.93,4.34 0.88,5.65 12.62,9.5 12.87,26.98 7.87,42.43 -3.09,9.53 -8.31,18.36 -14.34,24.3 -4.39,4.32 -9.13,7.15 -13.8,6.6 -21.92,-2.6 -35.78,-11.98 -40.74,-24.73 -5.19,-13.32 -0.17,-29.65 14.03,-44.11 3.3,-3.36 9.42,-7.68 15.42,-9.7 3.48,-1.17 7.18,-1.83 8.63,2.05 1.52,3.92 5.94,5.87 9.86,4.35 3.93,-1.52 5.87,-5.94 4.35,-9.87 z"
           style="fill:#bd2626"
           id="path794" />
      </g>
      <g
         transform="translate(-498.2,1082.72)"
         id="g802">
        <path
           d="m 4145.4,1913.7 c -3.98,-3.83 -9.12,-6.04 -14.93,-6.51 -9.44,-0.77 -20.83,3.03 -29.8,10.34 -11.66,9.52 -19.29,24.46 -14.02,41.03 4.3,13.55 9.42,25.83 17.9,32.92 6.47,5.41 14.78,8.27 26.16,6.5 20.35,-3.15 30.67,-16.2 34.5,-30.5 3.81,-14.24 0.97,-29.63 -4.41,-37.05 -3.08,-4.27 -6.99,-6.28 -10.98,-5.74 -2.22,0.26 -3.81,2.28 -3.55,4.49 0.26,2.22 2.28,3.81 4.5,3.55 0.86,-0.09 1.55,0.55 2.25,1.3 0.98,1.06 1.79,2.53 2.51,4.26 2.77,6.7 3.44,17.03 0.55,26.59 -3.25,10.74 -11.36,20.42 -26.86,22.31 -7.49,0.92 -12.94,-0.84 -17.06,-4.52 -6.77,-6.05 -10.11,-16.53 -13.29,-27.77 -3.09,-10.95 2.64,-20.4 10.48,-26.37 5.18,-3.96 11.4,-6.41 17.01,-6.64 3.24,-0.14 6.25,0.53 8.3,2.63 2.98,2.96 7.81,2.95 10.78,-0.04 2.96,-2.98 2.94,-7.82 -0.04,-10.78 z"
           style="fill:#bd2626"
           id="path800" />
      </g>
      <g
         transform="translate(-498.2,1082.72)"
         id="g808">
        <path
           d="m 3863.13,1919.03 c 0.17,-0.5 0.28,-1.02 0.34,-1.56 0.44,-4.18 -2.6,-7.93 -6.79,-8.38 -30.14,-2.75 -47.66,13.16 -53.19,33.19 -5.58,20.24 1.42,45.08 21,58.8 23.38,16.38 49.02,6.55 62.46,-12.77 12.5,-17.97 14.41,-43.93 -6.73,-62.73 -1.64,-1.46 -3.1,-2.43 -4.48,-3.11 -3.12,-1.54 -5.74,-1.3 -9.64,-3.19 -0.96,-0.48 -2.02,-0.54 -2.97,-0.25 z m -2.88,3.89 c -1.46,1.02 -3.27,1.53 -5.16,1.33 -21.23,-2.54 -34.23,7.8 -38.53,21.83 -4.69,15.33 0.28,34.39 14.94,45.28 17.25,12.81 36.61,5.24 47.13,-9.02 10.44,-14.14 12.41,-34.93 -4.14,-50.5 -1.3,-1.22 -2.39,-1.91 -3.47,-2.33 -2.64,-1.06 -5.12,-1.22 -8.54,-2.99 -1.41,-0.7 -2.23,-2.12 -2.23,-3.6 z"
           style="fill:#bd2626"
           id="path806" />
      </g>
      <g
         transform="translate(-498.2,1082.72)"
         id="g814">
        <path
           d="m 3875.54,2063.4 c 0.17,-0.84 0.2,-1.72 0.07,-2.62 -1.38,-8.78 -6.92,-13.63 -14.68,-15.5 -11.36,-2.73 -28.66,2.42 -36.58,7.3 -16.75,10.32 -26.7,29.09 -27.61,48.08 -0.91,18.91 6.91,37.92 25.33,48.68 5.59,3.26 21.16,5.91 35.05,6.16 11.07,0.2 21.02,-1.33 24.73,-4.04 5.08,-3.72 9.22,-9.57 12.08,-16.71 5.18,-12.91 6.33,-30.04 2.72,-44.29 -3.26,-12.82 -10.25,-23.26 -21.11,-27.06 z m -13.84,2.66 c -0.59,-0.9 -1,-1.94 -1.17,-3.08 -0.25,-1.89 -1.6,-2.8 -3.25,-3.23 -2.02,-0.54 -4.35,-0.64 -6.77,-0.47 -7.02,0.48 -14.69,2.99 -18.87,5.43 -13.11,7.66 -20.92,22.09 -21.97,36.72 -1.04,14.49 4.52,29.25 18.44,37.83 3.92,2.42 14.03,4.14 24.08,4.95 6.56,0.53 13.12,0.62 18.1,0.03 2.43,-0.29 4.41,-0.54 5.48,-1.29 9.98,-6.96 14.54,-24.89 13.42,-41.17 -1.13,-16.33 -7.99,-31.65 -23.45,-31.83 -2.18,0 -3.96,-1.73 -4.04,-3.89 z"
           style="fill:#bd2626"
           id="path812" />
      </g>
      <g
         transform="matrix(-0.87326,0.0350914,0.0345064,0.858702,4100.21,2393.54)"
         id="g838">
        <path
           d="m 630.797,482.37 c 0,33.737 4.184,128.288 5.457,162.001 1.624,43.047 0.484,86.23 2.809,129.249 1.26,23.296 6.777,154.703 1.001,172.031"
           style="fill:none;stroke:#000000;stroke-width:11.54px"
           id="path836" />
      </g>
      <g
         transform="matrix(-0.0402373,-0.858453,-0.873015,0.0407268,4133.02,3489.77)"
         id="g862">
        <path
           d="m 630.797,482.37 c 0,33.737 4.184,128.288 5.457,162.001 1.624,43.047 0.484,86.23 2.809,129.249 1.26,23.296 6.777,154.703 1.001,172.031"
           style="fill:none;stroke:#000000;stroke-width:11.54px"
           id="path860" />
      </g>
      <g
         transform="matrix(-0.0221633,-0.859112,-0.87366,0.0229539,4116.11,3632.24)"
         id="g886">
        <path
           d="m 630.797,482.37 c 0,33.737 4.184,128.288 5.457,162.001 1.624,43.047 0.484,86.23 2.809,129.249 1.26,23.296 6.777,154.703 1.001,172.031"
           style="fill:none;stroke:#000000;stroke-width:11.54px"
           id="path884" />
      </g>
      <g
         transform="matrix(-0.87326,0.0350914,0.0345064,0.858702,3949.57,2399.39)"
         id="g910">
        <path
           d="m 630.797,482.37 c 0,33.737 4.184,128.288 5.457,162.001 1.624,43.047 0.484,86.23 2.809,129.249 1.26,23.296 6.777,154.703 1.001,172.031"
           style="fill:none;stroke:#000000;stroke-width:11.54px"
           id="path908" />
      </g>
    </g>
  </g>
</svg>
