<?xml version="1.0" encoding="UTF-8" standalone="no"?>
<!-- Created with Inkscape (http://www.inkscape.org/) -->

<svg
   width="9.3540001mm"
   height="9.3540001mm"
   viewBox="0 0 9.3540001 9.3540001"
   version="1.1"
   id="svg29182"
   inkscape:version="1.1.1 (3bf5ae0d25, 2021-09-20)"
   sodipodi:docname="2022-DE-03-taskbody02.svg"
   xmlns:inkscape="http://www.inkscape.org/namespaces/inkscape"
   xmlns:sodipodi="http://sodipodi.sourceforge.net/DTD/sodipodi-0.dtd"
   xmlns="http://www.w3.org/2000/svg"
   xmlns:svg="http://www.w3.org/2000/svg">
  <sodipodi:namedview
     id="namedview29184"
     pagecolor="#ffffff"
     bordercolor="#666666"
     borderopacity="1.0"
     inkscape:pageshadow="2"
     inkscape:pageopacity="0.0"
     inkscape:pagecheckerboard="0"
     inkscape:document-units="mm"
     showgrid="false"
     inkscape:zoom="3.7543719"
     inkscape:cx="42.08427"
     inkscape:cy="92.292402"
     inkscape:window-width="1680"
     inkscape:window-height="1027"
     inkscape:window-x="1912"
     inkscape:window-y="-8"
     inkscape:window-maximized="1"
     inkscape:current-layer="layer1" />
  <defs
     id="defs29179" />
  <g
     inkscape:label="Ebene 1"
     inkscape:groupmode="layer"
     id="layer1"
     transform="translate(-85.8183,-60.702866)">
    <rect
       style="font-variation-settings:normal;display:inline;vector-effect:none;fill:#94c879;fill-opacity:1;stroke:none;stroke-width:0.111032;stroke-linecap:butt;stroke-linejoin:round;stroke-miterlimit:1.5;stroke-dasharray:none;stroke-dashoffset:0;stroke-opacity:1;-inkscape-stroke:none;stop-color:#000000"
       id="rect1741-4"
       width="9.3540001"
       height="9.3540001"
       x="85.818298"
       y="60.702866" />
    <g
       id="g2147"
       transform="translate(2.5867945,41.893766)">
      <path
         id="path1294-7-78"
         style="color:#000000;font-variation-settings:normal;vector-effect:none;fill:#09441e;fill-opacity:1;stroke:none;stroke-width:0.135083;stroke-linecap:butt;stroke-linejoin:round;stroke-miterlimit:1.5;stroke-dasharray:none;stroke-dashoffset:0;stroke-opacity:1;-inkscape-stroke:none;stop-color:#000000"
         d="m 90.436456,24.473008 c -0.01968,-0.123361 -0.04114,-0.08376 -0.06279,-0.04293 -0.05465,0.09025 -0.128834,0.176671 -0.19304,0.250752 -0.08344,0.07315 -0.173207,0.107318 -0.253825,0.100345 -0.06838,-0.0059 -0.134295,-0.03987 -0.195431,-0.11274 -0.06114,-0.07287 -0.115588,-0.186045 -0.150474,-0.345904 -0.04391,-0.223001 -0.03814,-0.214558 -0.10482,-0.0044 -0.04248,0.133257 -0.147506,0.315881 -0.221984,0.365238 -0.01862,0.01234 -0.03266,0.01625 -0.04216,0.01584 -0.0095,-4.17e-4 -0.01857,-0.0024 -0.03354,-0.0184 -0.02993,-0.03197 -0.07004,-0.122769 -0.09597,-0.287905 -0.108078,-0.113952 -0.307325,0.164988 -0.415853,0.326479 0,0 0.317403,-0.291182 0.345508,-0.206752 0.02417,0.09565 0.0454,0.19747 0.08712,0.242017 0.02973,0.03175 0.06887,0.05209 0.108314,0.05381 0.03945,0.0017 0.07505,-0.01367 0.10645,-0.03447 0.09715,-0.06438 0.153264,-0.203131 0.205214,-0.327503 0.03604,0.112092 0.07189,0.224763 0.128579,0.29233 0.07621,0.09083 0.170682,0.14218 0.26927,0.150707 0.183236,0.01585 0.356001,-0.131347 0.482636,-0.34078 0.109799,0.146709 0.266207,0.227367 0.423238,0.188442 0.147861,-0.03665 0.262059,-0.159465 0.351496,-0.288836 0.20199,0.409685 0.18093,0.206595 0.07664,-0.09465 -0.02125,-0.176432 -0.07635,-0.04475 -0.08618,-0.04904 -0.177094,0.309338 -0.552451,0.51006 -0.728397,0.168386 z"
         sodipodi:nodetypes="cccssccscccccssscsscscccc" />
      <path
         id="path1294-33-5-16"
         style="color:#000000;font-variation-settings:normal;vector-effect:none;fill:#09441e;fill-opacity:1;stroke:none;stroke-width:0.135083;stroke-linecap:butt;stroke-linejoin:round;stroke-miterlimit:1.5;stroke-dasharray:none;stroke-dashoffset:0;stroke-opacity:1;-inkscape-stroke:none;stop-color:#000000"
         d="m 85.789497,21.279954 c 0.01968,-0.123361 0.04113,-0.08376 0.06279,-0.04293 0.05465,0.09025 0.128834,0.176671 0.19304,0.250752 0.08344,0.07315 0.173207,0.107318 0.253825,0.100345 0.06838,-0.0059 0.134295,-0.03987 0.195431,-0.11274 0.06114,-0.07287 0.115588,-0.186045 0.150474,-0.345904 0.04391,-0.223001 0.03814,-0.214558 0.10482,-0.0044 0.04248,0.133257 0.147506,0.315881 0.221984,0.365238 0.01862,0.01234 0.03266,0.01625 0.04216,0.01584 0.0095,-4.17e-4 0.01857,-0.0024 0.03354,-0.0184 0.02993,-0.03197 0.07004,-0.122769 0.09597,-0.287905 0.108078,-0.113952 0.307325,0.164988 0.415853,0.326479 0,0 -0.317403,-0.291182 -0.345508,-0.206752 -0.02417,0.09565 -0.0454,0.19747 -0.08712,0.242017 -0.02973,0.03175 -0.06887,0.05209 -0.108314,0.05381 -0.03945,0.0017 -0.07505,-0.01367 -0.10645,-0.03447 -0.09715,-0.06438 -0.153264,-0.203131 -0.205214,-0.327503 -0.03604,0.112092 -0.07189,0.224763 -0.128579,0.29233 -0.07621,0.09083 -0.170682,0.14218 -0.26927,0.150707 -0.183236,0.01585 -0.356001,-0.131347 -0.482636,-0.34078 -0.109799,0.146709 -0.266207,0.227367 -0.423238,0.188442 -0.147861,-0.03665 -0.262059,-0.159465 -0.351496,-0.288836 -0.20199,0.409685 -0.18093,0.206595 -0.07664,-0.09465 0.02125,-0.176432 0.07635,-0.04475 0.08618,-0.04904 0.177094,0.309338 0.552451,0.51006 0.728397,0.168386 z"
         sodipodi:nodetypes="cccssccscccccssscsscscccc" />
      <path
         id="path1294-4-3-1"
         style="color:#000000;font-variation-settings:normal;vector-effect:none;fill:#09441e;fill-opacity:1;stroke:none;stroke-width:0.135083;stroke-linecap:butt;stroke-linejoin:round;stroke-miterlimit:1.5;stroke-dasharray:none;stroke-dashoffset:0;stroke-opacity:1;-inkscape-stroke:none;stop-color:#000000"
         d="m 86.25837,25.589679 c -0.01968,-0.123361 -0.04113,-0.08376 -0.06279,-0.04293 -0.05465,0.09025 -0.128834,0.176671 -0.19304,0.250752 -0.08344,0.07315 -0.173207,0.107318 -0.253825,0.100345 -0.06838,-0.0059 -0.134295,-0.03987 -0.195431,-0.11274 -0.06114,-0.07287 -0.115588,-0.186045 -0.150474,-0.345904 -0.04391,-0.223001 -0.03814,-0.214558 -0.10482,-0.0044 -0.04248,0.133257 -0.147506,0.315881 -0.221984,0.365238 -0.01862,0.01234 -0.03266,0.01625 -0.04216,0.01584 -0.0095,-4.17e-4 -0.01857,-0.0024 -0.03354,-0.0184 -0.02993,-0.03197 -0.07004,-0.122769 -0.09597,-0.287905 -0.108078,-0.113952 -0.307325,0.164988 -0.415853,0.326479 0,0 0.317403,-0.291182 0.345508,-0.206752 0.02417,0.09565 0.0454,0.19747 0.08712,0.242017 0.02973,0.03175 0.06887,0.05209 0.108314,0.05381 0.03944,0.0017 0.07505,-0.01367 0.10645,-0.03447 0.09715,-0.06438 0.153264,-0.203131 0.205214,-0.327503 0.03604,0.112092 0.07189,0.224763 0.128579,0.29233 0.07621,0.09083 0.170682,0.14218 0.26927,0.150707 0.183236,0.01585 0.356001,-0.131347 0.482636,-0.34078 0.109799,0.146709 0.266207,0.227367 0.423238,0.188442 0.147861,-0.03665 0.262059,-0.159465 0.351496,-0.288836 0.20199,0.409685 0.18093,0.206595 0.07664,-0.09465 -0.02125,-0.176432 -0.07635,-0.04475 -0.08618,-0.04904 -0.177094,0.309338 -0.552451,0.51006 -0.728397,0.168386 z"
         sodipodi:nodetypes="cccssccscccccssscsscscccc" />
    </g>
  </g>
</svg>
