<?xml version="1.0" encoding="UTF-8" standalone="no"?>
<!-- Created with Inkscape (http://www.inkscape.org/) -->

<svg
   width="103.99885mm"
   height="36.301933mm"
   viewBox="0 0 103.99883 36.301934"
   version="1.1"
   id="svg3092"
   inkscape:version="1.1.1 (3bf5ae0d25, 2021-09-20)"
   sodipodi:docname="2022-MK-01_taskbody02.svg"
   xmlns:inkscape="http://www.inkscape.org/namespaces/inkscape"
   xmlns:sodipodi="http://sodipodi.sourceforge.net/DTD/sodipodi-0.dtd"
   xmlns="http://www.w3.org/2000/svg"
   xmlns:svg="http://www.w3.org/2000/svg">
  <sodipodi:namedview
     id="namedview3094"
     pagecolor="#ffffff"
     bordercolor="#666666"
     borderopacity="1.0"
     inkscape:pageshadow="2"
     inkscape:pageopacity="0.0"
     inkscape:pagecheckerboard="0"
     inkscape:document-units="mm"
     showgrid="false"
     inkscape:zoom="1.4954752"
     inkscape:cx="277.83811"
     inkscape:cy="99.299542"
     inkscape:window-width="1920"
     inkscape:window-height="1137"
     inkscape:window-x="-8"
     inkscape:window-y="-8"
     inkscape:window-maximized="1"
     inkscape:current-layer="layer1" />
  <defs
     id="defs3089" />
  <g
     inkscape:label="Ebene 1"
     inkscape:groupmode="layer"
     id="layer1"
     transform="translate(189.94874,-32.761469)">
    <g
       id="g810"
       style="clip-rule:evenodd;fill-rule:evenodd;stroke-linecap:round;stroke-linejoin:round;stroke-miterlimit:1.5"
       transform="matrix(0.26458333,0,0,0.26458333,-424.94394,-60.456757)">
      <g
         transform="translate(-2.16025,-3.79388)"
         id="g744">
        <path
           d="m 1136.91,363.383 0.15,-0.008 c 3.13,-0.169 7.71,-0.638 13.33,-1.248 1.77,3.823 3.58,7.65 5.45,11.394 1.18,2.366 2.64,7.482 2.64,7.482 0,0 0.57,-4.99 0.88,-7.482 0.5,-3.977 1.11,-8.293 1.52,-12.54 46.35,-5.007 131.78,-12.493 119.34,30.981 -1.95,6.81 -2.35,51.766 -1.78,75.991 1.82,4.037 2.37,8.836 1.34,14.525 -0.61,3.397 -1.08,-3.363 -1.34,-14.525 -15.14,-33.567 -118.64,-14.217 -141.82,-14.062 -60.39,0.405 -119.91,0.313 -177.482,1.726 -13.732,0.337 -62.734,-3.435 -65.551,15.19 -1.401,9.263 -2.39,-80.621 0.438,-90.516 1.641,-5.74 8.888,-8.733 16.527,-10.923 16.466,-4.721 39.653,-3.793 49.024,-4.268 57.104,-2.895 115.984,1.22 173.294,-1.513 1.31,1.805 2.48,3.528 3.16,4.213 0.63,0.623 0.84,2.448 0.89,3.749 0,0.494 -0.01,0.87 -0.01,1.092 0,0.759 0.06,0.028 0.01,-1.092 0.02,-1.753 0.06,-4.997 -0.01,-8.166 z"
           style="fill:#ffd8a3"
           id="path742" />
      </g>
      <g
         transform="rotate(0.27726919,47286.81,-63231.508)"
         id="g748">
        <path
           d="m 1563.14,579.103 c 17.53,4.428 28.2,13.61 23.31,30.986 -1.93,6.865 -1.92,52.41 -1.23,76.514 1.51,3.966 2,8.604 1.23,14.004 -0.47,3.368 -0.92,-3.139 -1.23,-14.004 -5.04,-13.135 -21.41,-18.966 -41.48,-20.93 0.13,-1.676 0.27,-3.229 0.48,-4.569 0.74,-4.721 2.43,-6.37 2.08,-11.288 -0.65,-9.091 -2.29,-8.854 -1.78,-17.822 0.28,-5.066 1.38,-10.076 1.48,-15.149 0.1,-4.761 -1.14,-9.503 -0.89,-14.258 0.45,-8.459 10.07,-16.731 15.45,-21.387 1.03,-0.89 1.85,-1.567 2.58,-2.097 z"
           style="fill:#efd1a8"
           id="path746" />
      </g>
      <g
         transform="matrix(0.707318,0.00342292,-0.00342292,0.707318,55.5625,51.0474)"
         id="g752">
        <path
           d="m 1222.14,602.46 c -0.66,1.22 -1.69,2.406 -3.19,3.526 -13.65,10.242 -42.29,-7.843 -34.39,-23.629 11.91,-23.82 73.18,-20.847 92.56,-21.924 71.91,-3.995 145.95,1.409 218.44,-1.649 10.87,-0.459 18.19,-3.559 32.47,-2.005 34.66,3.769 228.24,-34.967 202.91,40.995 -5.5,16.516 -31.99,13.61 -43.84,2.436 -2.89,-2.723 -2.23,-2.953 -4.08,-5.012 0.4,0.396 0,-14.609 0,-16.493 0,-10.306 1.8,-20.509 1.8,-31.022 0,-11.983 0.59,-58.487 -2.7,-68.337 -2.17,-6.524 1.95,-16.991 -0.73,-18.103"
           style="fill:none;stroke:#000000;stroke-width:1.72px"
           id="path750" />
      </g>
      <g
         transform="matrix(0.853143,0.00412861,-0.00483924,0.999988,-129.414,-228.74)"
         id="g756">
        <path
           d="m 1243.64,585.529 c -0.43,3.746 -0.43,4.218 -1.87,8.941 -3.25,10.692 -1.68,19.187 -0.59,30.595 1.18,12.336 3.86,24.498 5.05,36.833 0.37,3.845 -0.98,7.782 -0.3,11.585 0.15,0.816 0.31,1.627 0.5,2.432 -18.64,0.018 -43.84,-1.397 -46.22,14.89 -1.36,9.269 -2.78,-80.609 0,-90.518 1.61,-5.747 8.84,-8.775 16.47,-11.002 12.26,-3.579 15.73,-3.539 26.96,-3.756 z"
           style="fill:#efd1a8"
           id="path754" />
      </g>
      <g
         transform="matrix(0.707318,0.00342292,-0.00342292,0.707318,56.0006,-39.4692)"
         id="g760">
        <path
           d="m 1225.15,598.864 c 1.11,0.19 -1.24,6.888 -3.23,8.878 -2.08,2.079 -19.23,4.154 -22.48,3.342 -6.75,-1.689 -6.3,-6.385 -11.28,-11.356 -2.17,-2.175 -4.04,-4.185 -5.46,-6.682 -0.68,-1.18 -1.82,-3.645 -1.82,-3.645 0,0 1.51,3.162 1.51,4.86 v 11.238 c 0,10.843 0.92,21.579 0.92,32.5 0,20.212 2.43,39.983 2.43,60.141 0,6.621 -3.78,16.491 0,22.618 7.24,11.762 10.34,16.464 21.91,15.057 1.59,-0.193 12.01,-1.091 13.66,-6.546 3.1,-10.256 0,-26.359 0,-31.619 0,-33.013 3.34,-66.105 3.34,-98.716 z"
           style="fill:#ffe5c1"
           id="path758" />
      </g>
      <g
         transform="matrix(0.674993,0.00326649,-0.00339388,0.701317,113.805,-34.7564)"
         id="g764">
        <path
           d="m 1678.17,603.589 c 4.96,0.549 0.15,106.815 1.11,118.586 0.47,5.808 10.63,10.052 14.96,12.65 3.56,2.138 10.29,2.749 14.86,2.403 20.68,-1.564 20.81,-17.299 20.45,-34.402 -0.08,-3.408 -0.34,-6.856 -0.92,-13.281 -0.86,-9.507 0.84,-21.218 0.92,-33.328 0.16,-27.672 -1.13,-58.72 -1.13,-58.72 0,0 -2.54,16.017 -23.3,14.719 -14.28,-0.893 -26.82,-17.111 -26.95,-17.111"
           style="fill:#ffe5c1"
           id="path762" />
      </g>
      <g
         transform="matrix(0.707318,0.00342292,-0.00342292,0.707318,56.0006,-39.4692)"
         id="g768">
        <path
           d="m 1223.86,599.701 c 0.44,-0.042 -0.37,8.212 -0.37,11.19 0,7.615 0.49,15.368 -0.45,22.929 -2.55,20.365 -1.8,41.535 -1.8,62.043 0,7.441 -1.82,17.913 0.45,24.728 0.67,2.02 0.45,11.096 0.45,9.891"
           style="fill:none;stroke:#000000;stroke-width:1.72px"
           id="path766" />
      </g>
      <g
         transform="matrix(0.707318,0.00342292,-0.00342292,0.707318,56.0006,-39.4692)"
         id="g772">
        <path
           d="m 1224.05,599.328 c 1.04,-1.067 -7.12,-11.21 -10.16,-13.235 -1.19,-0.797 -3.87,-3.418 -5.47,-1.822 -3.15,3.159 -6.72,12.102 -7.59,17.313 -0.33,1.971 -0.72,5.219 -0.3,7.29 0.12,0.603 0.3,1.822 0.3,1.822 0,0 0.59,-0.304 0.91,-0.304 2.46,0 7.37,1.025 9.42,0 3.54,-1.773 17.12,-8.086 11.54,-13.668"
           style="fill:#deb780"
           id="path770" />
      </g>
      <g
         transform="matrix(0.707318,0.00342292,-0.00342292,0.707318,16.1116,-39.3053)"
         id="g776">
        <path
           d="m 1757.3,607.814 c 1.6,-1.169 -2.2,-7.231 -2.42,-12.289 -0.21,-4.529 2.65,-8.683 2.42,-9.384 -1.38,-4.108 -1.59,-4.944 -5.95,-5.63 -11.65,-1.835 -8.99,12.124 -9.86,15.014 -1.06,3.553 10.88,15.862 15.81,12.289 z"
           style="fill:#deb780"
           id="path774" />
      </g>
      <g
         transform="matrix(0.707318,0.00342292,-0.00342292,0.707318,56.0006,-39.4692)"
         id="g780">
        <path
           d="m 1182.58,587.505 c -2.13,13.622 -0.89,37.504 0.38,53.949 1.96,25.597 0.9,52.118 0.9,77.779"
           style="fill:none;stroke:#000000;stroke-width:1.72px"
           id="path778" />
      </g>
      <g
         transform="matrix(0.707318,0.00342292,-0.00342292,0.707318,48.5521,-39.6269)"
         id="g784">
        <path
           d="m 1219.86,584.839 c 0.79,-0.064 -5.35,4.512 -6.33,9.408 -0.73,3.628 -0.08,14.754 -0.45,14.387"
           style="fill:none;stroke:#000000;stroke-width:1.72px"
           id="path782" />
      </g>
      <g
         transform="matrix(0.707318,0.00342292,-0.00342292,0.707318,15.9706,-40.1663)"
         id="g788">
        <path
           d="m 1788.78,595.525 c -1.01,10.081 -1.13,26.379 -1.13,36.487 0,30.021 1.62,55.563 1.62,85.049"
           style="fill:none;stroke:#000000;stroke-width:1.72px"
           id="path786" />
      </g>
      <g
         transform="matrix(0.707318,0.00342292,-0.00342292,0.707318,57.1147,-41.0404)"
         id="g792">
        <path
           d="m 1699.26,590.463 c 0.56,-3.159 -5.07,12.793 0,19.091"
           style="fill:none;stroke:#000000;stroke-width:1.72px"
           id="path790" />
      </g>
      <g
         transform="matrix(0.707318,0.00342292,-0.00342292,0.707318,56.0006,-39.4692)"
         id="g796">
        <path
           d="m 1211.71,584.303 c -1.4,-0.351 -2.16,-0.472 -1.21,0 10.38,5.192 19.88,13.713 7.31,23.142 -13.66,10.242 -41.15,-9.302 -33.25,-25.088 11.91,-23.82 73.18,-20.847 92.56,-21.924 82.69,-4.594 162.2,8.843 244.33,-3.223 3.21,-0.471 6.76,12.512 6.76,12.805 -0.01,0.792 -1.69,-12.647 -0.06,-12.838 5.46,-0.639 10.21,-0.41 17.94,-1.325 2.65,-0.312 9.05,25.229 12.36,24.696 2.33,-0.377 1.57,-26.847 3.67,-27.078 70.53,-7.735 188.51,-14.752 168.82,44.304 -4.69,14.097 -26.19,15.399 -38.47,7.374 -2.11,-1.377 -3.94,-3.029 -5.37,-4.938 -5.29,-7.047 -3.69,-13.446 0,-17.242 5.21,-5.371 14.61,-5.53 14.61,5.062"
           style="fill:none;stroke:#000000;stroke-width:1.72px"
           id="path794" />
      </g>
      <g
         transform="matrix(0.524804,0,0,0.524192,573.955,-139.238)"
         id="g800">
        <path
           d="m 757.681,1052.02 h -27.418 l 50.746,-74.308 50.745,74.308 h -27.418 l 27.418,40.15 H 730.263 Z"
           id="path798" />
      </g>
      <g
         transform="matrix(0.508151,0,0,0.508151,444.444,-63.3251)"
         id="g804">
        <path
           d="m 1417.77,911.109 v 70.986 h 75.72 v -71.287 l 21.4,-0.085 -59.26,-60.709 -59.26,61.18 z"
           id="path802" />
      </g>
      <g
         transform="matrix(0.553556,-0.582534,0.582534,0.553556,-350.737,669.493)"
         id="g808">
        <rect
           x="1442.71"
           y="1041.9"
           width="52.624001"
           height="52.624001"
           id="rect806" />
      </g>
    </g>
  </g>
</svg>
