<?xml version="1.0" encoding="UTF-8" standalone="no"?>
<!-- Created with Inkscape (http://www.inkscape.org/) -->

<svg
   width="372.81973mm"
   height="185.37698mm"
   viewBox="0 0 372.81973 185.37698"
   version="1.1"
   id="svg103875"
   inkscape:version="1.1.1 (3bf5ae0d25, 2021-09-20)"
   sodipodi:docname="2022-UZ-03-solution.svg"
   xmlns:inkscape="http://www.inkscape.org/namespaces/inkscape"
   xmlns:sodipodi="http://sodipodi.sourceforge.net/DTD/sodipodi-0.dtd"
   xmlns="http://www.w3.org/2000/svg"
   xmlns:svg="http://www.w3.org/2000/svg"
   xmlns:serif="http://www.serif.com/">
  <sodipodi:namedview
     id="namedview103877"
     pagecolor="#ffffff"
     bordercolor="#666666"
     borderopacity="1.0"
     inkscape:pageshadow="2"
     inkscape:pageopacity="0.0"
     inkscape:pagecheckerboard="0"
     inkscape:document-units="mm"
     showgrid="false"
     inkscape:zoom="0.66368547"
     inkscape:cx="638.10347"
     inkscape:cy="327.71548"
     inkscape:window-width="1680"
     inkscape:window-height="1027"
     inkscape:window-x="1912"
     inkscape:window-y="-8"
     inkscape:window-maximized="1"
     inkscape:current-layer="layer1" />
  <defs
     id="defs103872" />
  <g
     inkscape:label="Ebene 1"
     inkscape:groupmode="layer"
     id="layer1"
     transform="translate(81.363552,-55.81151)">
    <g
       transform="matrix(0.26458333,0,0,0.26458333,-99.077874,50.047146)"
       id="g6"
       style="clip-rule:evenodd;fill-rule:evenodd;stroke-linejoin:round;stroke-miterlimit:2">
      <path
         d="m 79.675,39.547 c 218.916,23.506 535.431,-6.279 595.599,-3.416 12.911,0.614 17.7,6.585 22.835,-0.33 14.809,-19.943 81.68,-18.935 84.464,5.169 4.727,40.938 5.672,81.098 6.258,67.659 l 10.606,-67.212 667.873,-5.616 c -1.91,2.609 25.49,55.692 -8.12,110.171 -18.23,29.561 -19.57,57.356 -3.37,78.148 12.8,16.429 2.88,36.846 -1.98,55.926 -4.01,15.705 -4.4,29.393 -1.49,49.361 4.37,30.089 1.53,66.996 3.34,97.206 0.92,15.474 20.6,26.798 7.71,39.684 -9.13,9.123 -10.75,27.172 -10.67,39.61 0.83,125.424 0.5,221.303 14.68,201.97 2.08,-2.832 -146.27,14.468 -344.5,-6.961 -62.45,-6.752 -120.93,-7.605 -175.478,-1.429 -56.601,6.41 -155.638,48.381 -160.389,-0.234 -13.292,-136.022 -5.16,-150.555 -19.289,-42.686 -1.608,12.275 9.301,25.471 7.684,40.946 -0.532,5.092 -10.087,6.058 -22.107,5.431 -3.463,-0.181 4.332,-41.532 -10.844,-0.878 -2.861,7.664 -31.119,-4.741 -37.885,-4.145 -83.438,7.351 -194.995,-31.842 -245.292,-10.627 -22.789,9.613 -36.594,19.097 -49.367,-0.607 -8.81,-13.592 -32.035,-0.17 -47.46,-0.154 -170.045,0.187 -289.87,8.17 -287.114,7.795 3.742,-0.509 4.835,-97.232 3.093,-226.605 C 78.236,450.919 71.667,421.091 71.589,403.809 71.453,373.742 82.983,344.47 82.384,314.449 81.606,275.44 67.1,232.617 66.961,198.151 66.555,97.329 79.675,39.547 79.675,39.547 Z"
         style="fill:#f3c280"
         id="path4" />
    </g>
    <g
       transform="matrix(0.26458333,0,0,0.26458333,-99.077874,50.047146)"
       id="g16"
       style="clip-rule:evenodd;fill-rule:evenodd;stroke-linejoin:round;stroke-miterlimit:2">
      <path
         d="m 79.675,39.547 c 218.916,23.506 535.431,-6.279 595.599,-3.416 12.911,0.614 17.7,6.585 22.835,-0.33 14.809,-19.943 81.68,-18.935 84.464,5.169 4.727,40.938 5.672,81.098 6.258,67.659 l 10.606,-67.212 667.873,-5.616 c -1.91,2.609 25.49,55.692 -8.12,110.171 -18.23,29.561 -19.57,57.356 -3.37,78.148 12.8,16.429 2.88,36.846 -1.98,55.926 -4.01,15.705 -4.4,29.393 -1.49,49.361 4.37,30.089 1.53,66.996 3.34,97.206 0.92,15.474 20.6,26.798 7.71,39.684 -9.13,9.123 -10.75,27.172 -10.67,39.61 0.83,125.424 -3.71,186.588 14.68,201.97 9.09,7.598 -145.02,16.319 -344.5,-6.961 -62.39,-7.282 -120.93,-7.605 -175.478,-1.429 -56.601,6.41 -155.638,48.381 -160.389,-0.234 -13.292,-136.022 -5.16,-150.555 -19.289,-42.686 -1.608,12.275 9.301,25.471 7.684,40.946 -0.532,5.092 -10.087,6.058 -22.107,5.431 -3.463,-0.181 4.332,-41.532 -10.844,-0.878 -2.861,7.664 -31.119,-4.741 -37.885,-4.145 -83.438,7.351 -194.995,-31.842 -245.292,-10.627 -22.789,9.613 -36.594,19.097 -49.367,-0.607 -8.81,-13.592 -32.035,-0.17 -47.46,-0.154 -170.045,0.187 -289.87,8.17 -287.114,7.795 3.742,-0.509 4.835,-97.232 3.093,-226.605 C 78.236,450.919 71.667,421.091 71.589,403.809 71.453,373.742 82.983,344.47 82.384,314.449 81.606,275.44 67.1,232.617 66.961,198.151 66.555,97.329 79.675,39.547 79.675,39.547 Z"
         style="fill:#f3c280"
         id="path14" />
    </g>
    <g
       transform="matrix(0.26458333,0,0,0.26458333,-99.077874,50.047146)"
       id="g26"
       style="clip-rule:evenodd;fill-rule:evenodd;stroke-linejoin:round;stroke-miterlimit:2">
      <path
         d="m 826.445,701.969 c -3.062,-8.209 -11.336,-12.646 -16.589,-19.085 -8.383,-10.276 -15.291,-21.009 -16.957,-34.331 -1.331,-10.654 4.174,-19.996 6.206,-30.14 1.942,-9.698 -5.043,-18.64 -2.66,-28.367 1.438,-5.868 6.59,-14.193 7.092,-20.389 0.57,-7.021 0.234,-14.134 -0.64,-21.123 -2.412,-19.287 -6.569,-31.789 -14.4,-49.497 -2.3,-5.201 -7.794,-16.03 -14.886,-17.146 -3.056,-0.482 -5.941,5.863 -6.438,7.571 -2.484,8.524 -5.059,17.057 -6.637,25.794 -3.15,17.439 -4.526,35.163 -7.528,52.628 -2.347,13.653 -14.225,23.451 -15.957,37.232 -1.813,14.427 9.758,28.3 4.433,42.551 -5.294,14.167 -24.005,25.302 -38.119,28.367 -7.269,1.579 -14.774,-0.053 -22.067,0.581 -1.154,0.1 -2.46,0.436 -3.216,1.313 -2.537,2.944 11.353,7.374 11.947,7.462 9.404,1.385 17.336,0.815 26.546,-1.273 7.891,-1.79 18.158,-5.33 24.649,-10.367 5.425,-4.208 9.438,-12.038 11.844,-18.201 9.159,-23.458 8.13,-24.127 15.01,-48.253 2.433,-8.531 4.849,-17.071 7.577,-25.512 0.76,-2.354 3.317,-7.353 6.081,-8.027 6.595,-1.607 7.771,14.706 7.97,16.65 2.76,26.971 2.904,38.193 3.924,65.328 0.242,6.456 -0.041,14.88 1.929,21.186 2.237,7.162 13.22,27.504 17.233,33.754 2.576,4.01 13.653,-8.706 13.653,-8.706 z"
         style="fill:#d6a45f"
         id="path24" />
    </g>
    <g
       transform="matrix(0.26458333,0,0,0.26458333,-99.077874,50.047146)"
       id="g36"
       style="clip-rule:evenodd;fill-rule:evenodd;stroke-linejoin:round;stroke-miterlimit:2">
      <path
         d="m 826.445,701.969 c -3.062,-8.209 -11.336,-12.646 -16.589,-19.085 -8.383,-10.276 -15.291,-21.009 -16.957,-34.331 -1.331,-10.654 4.174,-19.996 6.206,-30.14 1.942,-9.698 -5.043,-18.64 -2.66,-28.367 1.438,-5.868 6.59,-14.193 7.092,-20.389 0.57,-7.021 0.234,-14.134 -0.64,-21.123 -2.412,-19.287 -6.569,-31.789 -14.4,-49.497 -2.3,-5.201 -7.794,-16.03 -14.886,-17.146 -3.056,-0.482 -5.941,5.863 -6.438,7.571 -2.484,8.524 -5.059,17.057 -6.637,25.794 -3.15,17.439 -4.526,35.163 -7.528,52.628 -2.347,13.653 -14.225,23.451 -15.957,37.232 -1.813,14.427 9.758,28.3 4.433,42.551 -5.294,14.167 -24.005,25.302 -38.119,28.367 -7.269,1.579 -14.774,-0.053 -22.067,0.581 -1.154,0.1 -2.46,0.436 -3.216,1.313 -2.537,2.944 11.353,7.374 11.947,7.462 9.404,1.385 17.336,0.815 26.546,-1.273 7.891,-1.79 18.158,-5.33 24.649,-10.367 5.425,-4.208 9.438,-12.038 11.844,-18.201 9.159,-23.458 8.13,-24.127 15.01,-48.253 2.433,-8.531 4.849,-17.071 7.577,-25.512 0.76,-2.354 3.317,-7.353 6.081,-8.027 6.595,-1.607 7.771,14.706 7.97,16.65 2.76,26.971 2.904,38.193 3.924,65.328 0.242,6.456 -0.041,14.88 1.929,21.186 2.237,7.162 13.22,27.504 17.233,33.754 2.576,4.01 13.653,-8.706 13.653,-8.706 z"
         style="fill:#d6a45f"
         id="path34" />
    </g>
    <g
       transform="matrix(0.26458333,0,0,0.26458333,-99.077874,50.047146)"
       id="g46"
       style="clip-rule:evenodd;fill-rule:evenodd;stroke-linejoin:round;stroke-miterlimit:2">
      <path
         d="m 165.223,689.763 c -13.848,0.714 -90.552,4.66 -89.854,4.565 3.742,-0.509 4.835,-97.232 3.093,-226.605 C 78.236,450.919 71.667,421.091 71.589,403.809 71.453,373.742 82.983,344.47 82.384,314.449 81.606,275.44 67.1,232.617 66.961,198.151 66.555,97.329 79.675,39.547 79.675,39.547 c 218.916,23.506 535.431,-6.279 595.599,-3.416 12.911,0.614 17.7,6.585 22.835,-0.33 12.906,-17.38 60.206,-6.19 73.712,26.239 -10.402,-6.6 -45.743,-30.006 -55.223,-17.24 -5.134,6.914 -9.924,0.943 -22.834,0.329 C 636.766,42.417 332.35,86.934 116.705,70.885 104.707,69.992 85.044,106.327 85.45,207.149 c 0.139,34.466 14.646,77.289 15.424,116.298 0.598,30.021 -10.932,59.293 -10.796,89.36 0.078,17.282 6.647,47.111 6.874,63.914 1.414,105.064 70.496,185.091 68.271,213.042 z m 633.766,-645.512 0.448,-2.834 631.683,0.031 36.19,-5.647 c -2.48,1.508 -0.76,64.163 4.28,67.904 L 1450.2,84.844 c -19.9,0.313 -19.9,-13.09 -16.82,-28.613 -78.65,5.877 -158.1,-4.724 -232.56,-4.703 -90.91,0.025 -177.98,10.335 -248.846,0.858 -26.728,-3.574 -140.823,9.012 -150.912,-2.418 -1.384,-1.568 -0.956,-3.984 -2.073,-5.717 z"
         style="fill:#d6a45f"
         id="path44" />
    </g>
    <g
       transform="matrix(0.26458333,0,0,0.26458333,-99.077874,50.047146)"
       id="g56"
       style="clip-rule:evenodd;fill-rule:evenodd;stroke-linejoin:round;stroke-miterlimit:2">
      <path
         d="m 165.223,689.763 c -13.848,0.714 -90.552,4.66 -89.854,4.565 3.742,-0.509 4.835,-97.232 3.093,-226.605 C 78.236,450.919 71.667,421.091 71.589,403.809 71.453,373.742 82.983,344.47 82.384,314.449 81.606,275.44 67.1,232.617 66.961,198.151 66.555,97.329 79.675,39.547 79.675,39.547 c 218.916,23.506 535.431,-6.279 595.599,-3.416 12.911,0.614 17.7,6.585 22.835,-0.33 12.906,-17.38 60.206,-6.19 73.712,26.239 -10.402,-6.6 -45.743,-30.006 -55.223,-17.24 -5.134,6.914 -9.924,0.943 -22.834,0.329 C 636.766,42.417 332.35,86.934 116.705,70.885 104.707,69.992 85.044,106.327 85.45,207.149 c 0.139,34.466 14.646,77.289 15.424,116.298 0.598,30.021 -10.932,59.293 -10.796,89.36 0.078,17.282 6.647,47.111 6.874,63.914 1.414,105.064 70.496,185.091 68.271,213.042 z m 633.766,-645.512 0.448,-2.834 631.683,0.031 36.19,-5.647 c -2.48,1.508 -0.76,64.163 4.28,67.904 L 1450.2,84.844 c -19.9,0.313 -19.9,-13.09 -16.82,-28.613 -78.65,5.877 -158.1,-4.724 -232.56,-4.703 -90.91,0.025 -177.98,10.335 -248.846,0.858 -26.728,-3.574 -140.823,9.012 -150.912,-2.418 -1.384,-1.568 -0.956,-3.984 -2.073,-5.717 z"
         style="fill:#d6a45f"
         id="path54" />
    </g>
    <g
       id="g781"
       serif:id="g78"
       transform="matrix(0.26458333,0,0,0.26458333,-74.331713,61.643569)"
       style="clip-rule:evenodd;fill-rule:evenodd;stroke-linejoin:round;stroke-miterlimit:2">
      <rect
         id="path21"
         serif:id="path2"
         x="17.271"
         y="25.568001"
         width="600"
         height="600"
         style="fill:#9b782e;fill-rule:nonzero" />
      <g
         id="g761"
         serif:id="g76">
        <rect
           id="rect41"
           serif:id="rect4"
           x="320.62"
           y="28.917"
           width="93.303001"
           height="93.303001"
           style="fill:#f3c280" />
        <rect
           id="rect61"
           serif:id="rect6"
           x="220.62"
           y="28.917"
           width="93.303001"
           height="93.303001"
           style="fill:#f3c280" />
        <rect
           id="rect81"
           serif:id="rect8"
           x="120.62"
           y="28.917"
           width="93.303001"
           height="93.303001"
           style="fill:#f3c280" />
        <rect
           id="rect101"
           serif:id="rect10"
           x="20.620001"
           y="28.917"
           width="93.303001"
           height="93.303001"
           style="fill:#f3c280" />
        <rect
           id="rect121"
           serif:id="rect12"
           x="420.62"
           y="28.917"
           width="93.303001"
           height="93.303001"
           style="fill:#f3c280" />
        <rect
           id="rect141"
           serif:id="rect14"
           x="520.62"
           y="28.917"
           width="93.303001"
           height="93.303001"
           style="fill:#f3c280" />
        <rect
           id="rect161"
           serif:id="rect16"
           x="320.62"
           y="128.91701"
           width="93.303001"
           height="93.303001"
           style="fill:#f3c280" />
        <rect
           id="rect181"
           serif:id="rect18"
           x="220.62"
           y="128.91701"
           width="93.303001"
           height="93.303001"
           style="fill:#f3c280" />
        <rect
           id="rect201"
           serif:id="rect20"
           x="120.62"
           y="128.91701"
           width="93.303001"
           height="93.303001"
           style="fill:#f3c280" />
        <rect
           id="rect221"
           serif:id="rect22"
           x="20.620001"
           y="128.91701"
           width="93.303001"
           height="93.303001"
           style="fill:#f3c280" />
        <rect
           id="rect241"
           serif:id="rect24"
           x="420.62"
           y="128.91701"
           width="93.303001"
           height="93.303001"
           style="fill:#f3c280" />
        <rect
           id="rect261"
           serif:id="rect26"
           x="520.62"
           y="128.91701"
           width="93.303001"
           height="93.303001"
           style="fill:#f3c280" />
        <rect
           id="rect281"
           serif:id="rect28"
           x="320.62"
           y="228.91701"
           width="93.303001"
           height="93.303001"
           style="fill:#f3c280" />
        <rect
           id="rect301"
           serif:id="rect30"
           x="220.62"
           y="228.91701"
           width="93.303001"
           height="93.303001"
           style="fill:#f3c280" />
        <rect
           id="rect321"
           serif:id="rect32"
           x="120.62"
           y="228.91701"
           width="93.303001"
           height="93.303001"
           style="fill:#f3c280" />
        <rect
           id="rect341"
           serif:id="rect34"
           x="20.620001"
           y="228.91701"
           width="93.303001"
           height="93.303001"
           style="fill:#f3c280" />
        <rect
           id="rect361"
           serif:id="rect36"
           x="420.62"
           y="228.91701"
           width="93.303001"
           height="93.303001"
           style="fill:#f3c280" />
        <rect
           id="rect381"
           serif:id="rect38"
           x="520.62"
           y="228.91701"
           width="93.303001"
           height="93.303001"
           style="fill:#f3c280" />
        <rect
           id="rect401"
           serif:id="rect40"
           x="320.62"
           y="328.91699"
           width="93.303001"
           height="93.303001"
           style="fill:#f3c280" />
        <rect
           id="rect421"
           serif:id="rect42"
           x="220.62"
           y="328.91699"
           width="93.303001"
           height="93.303001"
           style="fill:#f3c280" />
        <rect
           id="rect441"
           serif:id="rect44"
           x="120.62"
           y="328.91699"
           width="93.303001"
           height="93.303001"
           style="fill:#f3c280" />
        <rect
           id="rect461"
           serif:id="rect46"
           x="20.620001"
           y="328.91699"
           width="93.303001"
           height="93.303001"
           style="fill:#f3c280" />
        <rect
           id="rect481"
           serif:id="rect48"
           x="420.62"
           y="328.91699"
           width="93.303001"
           height="93.303001"
           style="fill:#f3c280" />
        <rect
           id="rect501"
           serif:id="rect50"
           x="520.62"
           y="328.91699"
           width="93.303001"
           height="93.303001"
           style="fill:#f3c280" />
        <rect
           id="rect521"
           serif:id="rect52"
           x="320.62"
           y="428.91699"
           width="93.303001"
           height="93.303001"
           style="fill:#f3c280" />
        <rect
           id="rect541"
           serif:id="rect54"
           x="220.62"
           y="428.91699"
           width="93.303001"
           height="93.303001"
           style="fill:#f3c280" />
        <rect
           id="rect561"
           serif:id="rect56"
           x="120.62"
           y="428.91699"
           width="93.303001"
           height="93.303001"
           style="fill:#f3c280" />
        <rect
           id="rect581"
           serif:id="rect58"
           x="20.620001"
           y="428.91699"
           width="93.303001"
           height="93.303001"
           style="fill:#f3c280" />
        <rect
           id="rect601"
           serif:id="rect60"
           x="420.62"
           y="428.91699"
           width="93.303001"
           height="93.303001"
           style="fill:#f3c280" />
        <rect
           id="rect621"
           serif:id="rect62"
           x="520.62"
           y="428.91699"
           width="93.303001"
           height="93.303001"
           style="fill:#f3c280" />
        <rect
           id="rect641"
           serif:id="rect64"
           x="320.62"
           y="528.91699"
           width="93.303001"
           height="93.303001"
           style="fill:#f3c280" />
        <rect
           id="rect661"
           serif:id="rect66"
           x="220.62"
           y="528.91699"
           width="93.303001"
           height="93.303001"
           style="fill:#f3c280" />
        <rect
           id="rect681"
           serif:id="rect68"
           x="120.62"
           y="528.91699"
           width="93.303001"
           height="93.303001"
           style="fill:#f3c280" />
        <rect
           id="rect701"
           serif:id="rect70"
           x="20.620001"
           y="528.91699"
           width="93.303001"
           height="93.303001"
           style="fill:#f3c280" />
        <rect
           id="rect721"
           serif:id="rect72"
           x="420.62"
           y="528.91699"
           width="93.303001"
           height="93.303001"
           style="fill:#f3c280" />
        <rect
           id="rect741"
           serif:id="rect74"
           x="520.62"
           y="528.91699"
           width="93.303001"
           height="93.303001"
           style="fill:#f3c280" />
      </g>
    </g>
    <g
       transform="matrix(0.17041945,0,0,0.20044648,-71.973217,59.125265)"
       id="g189"
       style="clip-rule:evenodd;fill-rule:evenodd;stroke-linejoin:round;stroke-miterlimit:2">
      <path
         d="m 282.643,208.318 -6.162,-6.492 c -7.678,1.722 -14.993,5.54 -18.54,12.991 -0.659,7.977 5.375,7.801 11.883,3.688 z"
         style="fill:#562600"
         id="path187"
         sodipodi:nodetypes="ccccc" />
    </g>
    <g
       transform="matrix(0.26391884,-0.0187399,0.0187399,0.26391884,-484.5173,-96.053413)"
       id="g209"
       style="clip-rule:evenodd;fill-rule:evenodd;stroke-linejoin:round;stroke-miterlimit:2">
      <g
         transform="matrix(0.5617,-0.315221,0.370761,0.660668,1435.2,889.212)"
         id="g203">
        <path
           d="m 282.643,208.318 -6.162,-6.492 c -7.678,1.722 -14.993,5.54 -18.54,12.991 -0.659,7.977 5.375,7.801 11.883,3.688 z"
           style="fill:#562600"
           id="path201"
           sodipodi:nodetypes="ccccc" />
      </g>
      <g
         transform="matrix(0.591292,-0.255431,0.300437,0.695474,1441.47,866.024)"
         id="g207">
        <path
           d="m 285.919,205.767 -6.881,-6.504 c 0,0 8.191,-9.825 13.082,-5.291 6.406,5.936 -5.645,10.902 -6.201,11.795 z"
           style="fill:#562600"
           id="path205"
           sodipodi:nodetypes="cccc" />
      </g>
    </g>
    <g
       transform="matrix(0.17041945,0,0,0.20044648,-71.973217,59.125265)"
       id="g217"
       style="clip-rule:evenodd;fill-rule:evenodd;stroke-linejoin:round;stroke-miterlimit:2">
      <path
         d="m 282.643,208.318 -6.162,-6.492 c -7.678,1.722 -14.993,5.54 -18.54,12.991 -0.659,7.977 5.375,7.801 11.883,3.688 z"
         style="fill:#562600"
         id="path215"
         sodipodi:nodetypes="ccccc" />
    </g>
    <g
       transform="matrix(0.20482721,0.1674818,-0.1674818,0.20482721,-227.52425,-337.43897)"
       id="g227"
       style="clip-rule:evenodd;fill-rule:evenodd;stroke-linejoin:round;stroke-miterlimit:2">
      <g
         transform="matrix(0.5617,-0.315221,0.370761,0.660668,1435.2,889.212)"
         id="g221">
        <path
           d="m 282.643,208.318 -6.162,-6.492 c -7.678,1.722 -14.993,5.54 -18.54,12.991 -0.659,7.977 5.375,7.801 11.883,3.688 z"
           style="fill:#562600"
           id="path219"
           sodipodi:nodetypes="ccccc" />
      </g>
      <g
         transform="matrix(0.591292,-0.255431,0.300437,0.695474,1441.47,866.024)"
         id="g225">
        <path
           d="m 285.919,205.767 -6.881,-6.504 c 0,0 8.191,-9.825 13.082,-5.291 6.406,5.936 -5.645,10.902 -6.201,11.795 z"
           style="fill:#562600"
           id="path223"
           sodipodi:nodetypes="cccc" />
      </g>
    </g>
    <g
       transform="matrix(0.263799,-0.02035746,0.02035746,0.263799,-516.21512,-66.257439)"
       id="g237"
       style="clip-rule:evenodd;fill-rule:evenodd;stroke-linejoin:round;stroke-miterlimit:2">
      <g
         transform="matrix(0.5617,-0.315221,0.370761,0.660668,1435.2,889.212)"
         id="g231">
        <path
           d="m 282.643,208.318 -6.162,-6.492 c -7.678,1.722 -14.993,5.54 -18.54,12.991 -0.659,7.977 5.375,7.801 11.883,3.688 z"
           style="fill:#562600"
           id="path229"
           sodipodi:nodetypes="ccccc" />
      </g>
      <g
         transform="matrix(0.591292,-0.255431,0.300437,0.695474,1441.47,866.024)"
         id="g235">
        <path
           d="m 285.919,205.767 -6.881,-6.504 c 0,0 8.191,-9.825 13.082,-5.291 6.406,5.936 -5.645,10.902 -6.201,11.795 z"
           style="fill:#562600"
           id="path233"
           sodipodi:nodetypes="cccc" />
      </g>
    </g>
    <g
       transform="matrix(0.09953543,-0.24514697,0.24514697,0.09953543,-441.51178,478.2088)"
       id="g247"
       style="clip-rule:evenodd;fill-rule:evenodd;stroke-linejoin:round;stroke-miterlimit:2">
      <g
         transform="matrix(0.5617,-0.315221,0.370761,0.660668,1435.2,889.212)"
         id="g241">
        <path
           d="m 282.643,208.318 -6.162,-6.492 c -7.678,1.722 -14.993,5.54 -18.54,12.991 -0.659,7.977 5.375,7.801 11.883,3.688 z"
           style="fill:#562600"
           id="path239"
           sodipodi:nodetypes="ccccc" />
      </g>
      <g
         transform="matrix(0.591292,-0.255431,0.300437,0.695474,1441.47,866.024)"
         id="g245">
        <path
           d="m 285.919,205.767 -6.881,-6.504 c 0,0 8.191,-9.825 13.082,-5.291 6.406,5.936 -5.645,10.902 -6.201,11.795 z"
           style="fill:#562600"
           id="path243"
           sodipodi:nodetypes="cccc" />
      </g>
    </g>
    <g
       transform="matrix(-0.08955958,-0.2489647,0.2489647,-0.08955958,-50.704154,690.28558)"
       id="g267"
       style="clip-rule:evenodd;fill-rule:evenodd;stroke-linejoin:round;stroke-miterlimit:2">
      <g
         transform="matrix(0.5617,-0.315221,0.370761,0.660668,1435.2,889.212)"
         id="g261">
        <path
           d="m 282.643,208.318 -6.162,-6.492 c -7.678,1.722 -14.993,5.54 -18.54,12.991 -0.659,7.977 5.375,7.801 11.883,3.688 z"
           style="fill:#562600"
           id="path259"
           sodipodi:nodetypes="ccccc" />
      </g>
      <g
         transform="matrix(0.591292,-0.255431,0.300437,0.695474,1441.47,866.024)"
         id="g265">
        <path
           d="m 285.919,205.767 -6.881,-6.504 c 0,0 8.191,-9.825 13.082,-5.291 6.406,5.936 -5.645,10.902 -6.201,11.795 z"
           style="fill:#562600"
           id="path263"
           sodipodi:nodetypes="cccc" />
      </g>
    </g>
    <g
       transform="matrix(-0.0319442,-0.26264788,0.26264788,-0.0319442,-213.06392,631.20497)"
       id="g277"
       style="clip-rule:evenodd;fill-rule:evenodd;stroke-linejoin:round;stroke-miterlimit:2">
      <g
         transform="matrix(0.5617,-0.315221,0.370761,0.660668,1435.2,889.212)"
         id="g271">
        <path
           d="m 282.643,208.318 -6.162,-6.492 c -7.678,1.722 -14.993,5.54 -18.54,12.991 -0.659,7.977 5.375,7.801 11.883,3.688 z"
           style="fill:#562600"
           id="path269"
           sodipodi:nodetypes="ccccc" />
      </g>
      <g
         transform="matrix(0.591292,-0.255431,0.300437,0.695474,1441.47,866.024)"
         id="g275">
        <path
           d="m 285.919,205.767 -6.881,-6.504 c 0,0 8.191,-9.825 13.082,-5.291 6.406,5.936 -5.645,10.902 -6.201,11.795 z"
           style="fill:#562600"
           id="path273"
           sodipodi:nodetypes="cccc" />
      </g>
    </g>
    <g
       transform="matrix(0.25012235,-0.0862737,0.0862737,0.25012235,-505.17623,83.127955)"
       id="g287"
       style="clip-rule:evenodd;fill-rule:evenodd;stroke-linejoin:round;stroke-miterlimit:2">
      <g
         transform="matrix(0.5617,-0.315221,0.370761,0.660668,1435.2,889.212)"
         id="g281">
        <path
           d="m 282.643,208.318 -6.162,-6.492 c -7.678,1.722 -14.993,5.54 -18.54,12.991 -0.659,7.977 5.375,7.801 11.883,3.688 z"
           style="fill:#562600"
           id="path279"
           sodipodi:nodetypes="ccccc" />
      </g>
      <g
         transform="matrix(0.591292,-0.255431,0.300437,0.695474,1441.47,866.024)"
         id="g285">
        <path
           d="m 285.919,205.767 -6.881,-6.504 c 0,0 8.191,-9.825 13.082,-5.291 6.406,5.936 -5.645,10.902 -6.201,11.795 z"
           style="fill:#562600"
           id="path283"
           sodipodi:nodetypes="cccc" />
      </g>
    </g>
    <g
       transform="matrix(0.26458333,0,0,0.26458333,-474.71482,-120.66599)"
       id="g293"
       style="clip-rule:evenodd;fill-rule:evenodd;stroke-linejoin:round;stroke-miterlimit:2">
      <path
         d="m 1787.31,1165.46 20.41,-31.62 -30.67,28.95 -33.13,-28.97 20.68,39.63 -21.02,13.03 31.12,-5.17 5.77,21.95 8.26,-25.14 28.27,7.83 z"
         style="fill:#ffffff"
         id="path289" />
      <path
         d="m 1789,1165.36 19.84,-30.79 c 0.37,-0.57 0.25,-1.32 -0.27,-1.75 -0.52,-0.44 -1.28,-0.41 -1.77,0.05 l -29.79,28.17 -32.27,-28.16 c -0.45,-0.4 -1.12,-0.42 -1.6,-0.04 -0.47,0.37 -0.61,1.03 -0.33,1.56 l 20.19,38.61 -20.04,12.46 c -0.48,0.3 -0.69,0.9 -0.49,1.43 0.2,0.53 0.75,0.84 1.31,0.75 l 30.07,-5.03 5.52,20.93 c 0.13,0.48 0.56,0.83 1.06,0.84 0.51,0.02 0.96,-0.3 1.12,-0.78 l 7.9,-24.14 27.27,7.52 c 0.5,0.14 1.04,-0.1 1.26,-0.58 0.23,-0.48 0.07,-1.05 -0.36,-1.35 z m -2.85,-0.47 c -0.4,0.48 -0.23,1.11 0.38,1.43 h 0.18 l 24.4,16.87 -22.09,-6.14 c -0.57,-0.15 -1.16,0.16 -1.35,0.73 l -7.08,21.47 -4.77,-18.24 c -0.16,-0.57 -0.72,-0.94 -1.31,-0.84 l -25.2,4.16 15.93,-9.85 c 0.53,-0.34 0.72,-1.03 0.43,-1.59 l -17.56,-33.73 28.08,24.61 c 0.5,0.43 1.26,0.42 1.74,-0.04 l 22.68,-21.35 -14.46,22.33 z"
         style="fill:#562600"
         id="path291"
         sodipodi:nodetypes="ccccccccccscccccccccccccccccccccccccccc" />
    </g>
    <g
       transform="matrix(0.05182261,-0.16234886,-0.19095402,-0.06095338,2.381578,160.5554)"
       id="g301"
       style="clip-rule:evenodd;fill-rule:evenodd;stroke-linejoin:round;stroke-miterlimit:2">
      <path
         d="m 283.113,209.253 -5.789,-6.774 c -7.678,1.721 -15.836,4.887 -19.383,12.338 -0.659,7.977 5.375,7.801 11.883,3.688 z"
         style="fill:#562600"
         id="path299"
         sodipodi:nodetypes="ccccc" />
    </g>
    <g
       transform="matrix(0.26453199,-0.00520467,0.00520467,0.26453199,-472.67872,-116.26769)"
       id="g321"
       style="clip-rule:evenodd;fill-rule:evenodd;stroke-linejoin:round;stroke-miterlimit:2">
      <g
         transform="matrix(-0.129487,-0.630955,-0.742126,0.152302,1867.88,1085.99)"
         id="g315">
        <path
           d="m 283.113,209.253 -5.789,-6.774 c -7.678,1.721 -15.836,4.887 -19.383,12.338 -0.659,7.977 5.375,7.801 11.883,3.688 z"
           style="fill:#562600"
           id="path313"
           sodipodi:nodetypes="ccccc" />
      </g>
      <g
         transform="matrix(0.567214,-0.305187,0.358959,0.667154,1446.23,889.924)"
         id="g319">
        <path
           d="m 285.917,205.921 -6.305,-6.363 c 0,0 7.617,-10.12 12.508,-5.586 6.406,5.936 -5.648,11.056 -6.203,11.949 z"
           style="fill:#562600"
           id="path317"
           sodipodi:nodetypes="cccc" />
      </g>
    </g>
    <g
       transform="matrix(0.20435776,0.16805429,-0.16805429,0.20435776,-229.27558,-334.67976)"
       id="g331"
       style="clip-rule:evenodd;fill-rule:evenodd;stroke-linejoin:round;stroke-miterlimit:2">
      <g
         transform="matrix(-0.129487,-0.630955,-0.742126,0.152302,1867.88,1085.99)"
         id="g325">
        <path
           d="m 283.113,209.253 -5.789,-6.774 c -7.678,1.721 -15.836,4.887 -19.383,12.338 -0.659,7.977 5.375,7.801 11.883,3.688 z"
           style="fill:#562600"
           id="path323"
           sodipodi:nodetypes="ccccc" />
      </g>
      <g
         transform="matrix(0.567214,-0.305187,0.358959,0.667154,1446.23,889.924)"
         id="g329">
        <path
           d="m 285.917,205.921 -6.305,-6.363 c 0,0 7.617,-10.12 12.508,-5.586 6.406,5.936 -5.648,11.056 -6.203,11.949 z"
           style="fill:#562600"
           id="path327"
           sodipodi:nodetypes="cccc" />
      </g>
    </g>
    <g
       transform="matrix(0.26034561,-0.04716464,0.04716464,0.26034561,-535.26156,-16.046609)"
       id="g341"
       style="clip-rule:evenodd;fill-rule:evenodd;stroke-linejoin:round;stroke-miterlimit:2">
      <g
         transform="matrix(-0.129487,-0.630955,-0.742126,0.152302,1867.88,1085.99)"
         id="g335">
        <path
           d="m 283.113,209.253 -5.789,-6.774 c -7.678,1.721 -15.836,4.887 -19.383,12.338 -0.659,7.977 5.375,7.801 11.883,3.688 z"
           style="fill:#562600"
           id="path333"
           sodipodi:nodetypes="ccccc" />
      </g>
      <g
         transform="matrix(0.567214,-0.305187,0.358959,0.667154,1446.23,889.924)"
         id="g339">
        <path
           d="m 285.917,205.921 -6.305,-6.363 c 0,0 7.617,-10.12 12.508,-5.586 6.406,5.936 -5.648,11.056 -6.203,11.949 z"
           style="fill:#562600"
           id="path337"
           sodipodi:nodetypes="cccc" />
      </g>
    </g>
    <g
       transform="matrix(-0.01971579,-0.26384773,0.26384773,-0.01971579,-257.82578,621.84932)"
       id="g351"
       style="clip-rule:evenodd;fill-rule:evenodd;stroke-linejoin:round;stroke-miterlimit:2">
      <g
         transform="matrix(-0.129487,-0.630955,-0.742126,0.152302,1867.88,1085.99)"
         id="g345">
        <path
           d="m 283.113,209.253 -5.789,-6.774 c -7.678,1.721 -15.836,4.887 -19.383,12.338 -0.659,7.977 5.375,7.801 11.883,3.688 z"
           style="fill:#562600"
           id="path343"
           sodipodi:nodetypes="ccccc" />
      </g>
      <g
         transform="matrix(0.567214,-0.305187,0.358959,0.667154,1446.23,889.924)"
         id="g349">
        <path
           d="m 285.917,205.921 -6.305,-6.363 c 0,0 7.617,-10.12 12.508,-5.586 6.406,5.936 -5.648,11.056 -6.203,11.949 z"
           style="fill:#562600"
           id="path347"
           sodipodi:nodetypes="cccc" />
      </g>
    </g>
    <g
       transform="matrix(-0.07793887,-0.25284357,0.25284357,-0.07793887,-69.861928,684.70304)"
       id="g371"
       style="clip-rule:evenodd;fill-rule:evenodd;stroke-linejoin:round;stroke-miterlimit:2">
      <g
         transform="matrix(-0.129487,-0.630955,-0.742126,0.152302,1867.88,1085.99)"
         id="g365">
        <path
           d="m 283.113,209.253 -5.789,-6.774 c -7.678,1.721 -15.836,4.887 -19.383,12.338 -0.659,7.977 5.375,7.801 11.883,3.688 z"
           style="fill:#562600"
           id="path363"
           sodipodi:nodetypes="ccccc" />
      </g>
      <g
         transform="matrix(0.567214,-0.305187,0.358959,0.667154,1446.23,889.924)"
         id="g369">
        <path
           d="m 285.917,205.921 -6.305,-6.363 c 0,0 7.617,-10.12 12.508,-5.586 6.406,5.936 -5.648,11.056 -6.203,11.949 z"
           style="fill:#562600"
           id="path367"
           sodipodi:nodetypes="cccc" />
      </g>
    </g>
    <g
       transform="matrix(0.07497471,-0.25373831,0.25373831,0.07497471,-379.59659,515.83699)"
       id="g381"
       style="clip-rule:evenodd;fill-rule:evenodd;stroke-linejoin:round;stroke-miterlimit:2">
      <g
         transform="matrix(-0.129487,-0.630955,-0.742126,0.152302,1867.88,1085.99)"
         id="g375">
        <path
           d="m 283.113,209.253 -5.789,-6.774 c -7.678,1.721 -15.836,4.887 -19.383,12.338 -0.659,7.977 5.375,7.801 11.883,3.688 z"
           style="fill:#562600"
           id="path373"
           sodipodi:nodetypes="ccccc" />
      </g>
      <g
         transform="matrix(0.567214,-0.305187,0.358959,0.667154,1446.23,889.924)"
         id="g379">
        <path
           d="m 285.917,205.921 -6.305,-6.363 c 0,0 7.617,-10.12 12.508,-5.586 6.406,5.936 -5.648,11.056 -6.203,11.949 z"
           style="fill:#562600"
           id="path377"
           sodipodi:nodetypes="cccc" />
      </g>
    </g>
    <g
       transform="matrix(0.25629417,-0.06570873,0.06570873,0.25629417,-495.02055,45.447481)"
       id="g391"
       style="clip-rule:evenodd;fill-rule:evenodd;stroke-linejoin:round;stroke-miterlimit:2">
      <g
         transform="matrix(-0.129487,-0.630955,-0.742126,0.152302,1867.88,1085.99)"
         id="g385">
        <path
           d="m 283.113,209.253 -5.789,-6.774 c -7.678,1.721 -15.836,4.887 -19.383,12.338 -0.659,7.977 5.375,7.801 11.883,3.688 z"
           style="fill:#562600"
           id="path383"
           sodipodi:nodetypes="ccccc" />
      </g>
      <g
         transform="matrix(0.567214,-0.305187,0.358959,0.667154,1446.23,889.924)"
         id="g389">
        <path
           d="m 285.917,205.921 -6.305,-6.363 c 0,0 7.617,-10.12 12.508,-5.586 6.406,5.936 -5.648,11.056 -6.203,11.949 z"
           style="fill:#562600"
           id="path387"
           sodipodi:nodetypes="cccc" />
      </g>
    </g>
    <g
       transform="matrix(0.05182261,-0.16234886,-0.19095402,-0.06095338,2.381578,160.5554)"
       id="g399"
       style="clip-rule:evenodd;fill-rule:evenodd;stroke-linejoin:round;stroke-miterlimit:2">
      <path
         d="m 283.113,209.253 -5.789,-6.774 c -7.678,1.721 -15.836,4.887 -19.383,12.338 -0.659,7.977 5.375,7.801 11.883,3.688 z"
         style="fill:#562600"
         id="path397"
         sodipodi:nodetypes="ccccc" />
    </g>
    <g
       id="rect822"
       serif:id="rect82"
       transform="matrix(0.26458333,0,0,0.26458333,-52.360978,81.670146)"
       style="clip-rule:evenodd;fill-rule:evenodd;stroke-linejoin:round;stroke-miterlimit:2">
      <path
         d="m -65.458,-54.803 v 600 h 0.045 v 5.939 H 542.482 V 375.839 c -7.067,-144.788 -3.247,-284.615 0,-424.703 h -0.047 v -5.939 z m 9.781,10.282 283.03,5.657 v 190 h 0.086 v 7.534 l 103.11,-3.793 3.993,-12.147 h -91.25 V -38.864 h 283.25 l 4.806,575.237 -580.866,-1.176 V 357.933 h 184.06 v -15.937 h -184.06 v -183.86 h 84.06 v -15.939 h -84.06 z m 390.219,87.353 v 15.939 h 92.061 V 243.197 H 142.542 V 43.209 h -8 v -0.012 h -100 v 15.939 h 92.061 V 243.197 H 34.542 v 15.939 h 192 v 184.061 h -192 v 15.939 h 392.061 v 0.084 h 15.939 V 343.195 h -8 v -0.012 h -100 v 15.94 h 92.061 v 84.074 H 242.482 V 259.136 l 199.98,-8 h 0.081 l -4.141,-206.44 z"
         style="fill:#6d370d;fill-rule:nonzero"
         id="path404" />
    </g>
    <g
       id="rect825"
       serif:id="rect82"
       transform="matrix(0.26458333,0,0,0.26458333,-52.360978,81.670146)"
       style="clip-rule:evenodd;fill-rule:evenodd;stroke-linejoin:round;stroke-miterlimit:2">
      <path
         d="m -65.458,-54.803 v 600 h 0.045 v 5.939 H 542.482 V 375.839 c -7.067,-144.788 -3.247,-284.615 0,-424.703 h -0.047 v -5.939 z m 9.781,10.282 283.03,5.657 v 190 h 0.086 v 7.534 l 103.11,-3.793 3.993,-12.147 h -91.25 V -38.864 h 283.25 l 4.806,575.237 -580.866,-1.176 V 357.933 h 184.06 v -15.937 h -184.06 v -183.86 h 84.06 v -15.939 h -84.06 z m 390.219,87.353 v 15.939 h 92.061 V 243.197 H 142.542 V 43.209 h -8 v -0.012 h -100 v 15.939 h 92.061 V 243.197 H 34.542 v 15.939 h 192 v 184.061 h -192 v 15.939 h 392.061 v 0.084 h 15.939 V 343.195 h -8 v -0.012 h -100 v 15.94 h 92.061 v 84.074 H 242.482 V 259.136 l 199.98,-8 h 0.081 l -4.141,-206.44 z"
         style="fill:#6d370d;fill-rule:nonzero"
         id="path413" />
    </g>
    <g
       transform="matrix(0.27859831,-0.02756376,0.02399718,0.24254857,-107.55208,61.054871)"
       id="g425"
       style="clip-rule:evenodd;fill-rule:evenodd;stroke-linejoin:round;stroke-miterlimit:2">
      <path
         d="m 240.001,219.599 c -1.798,-2.226 -0.994,-3.74 -2.129,-4.64 -0.759,-0.603 -7.087,-1.011 -7.145,-0.677 -0.754,4.331 1.649,8.068 6.411,10.728 -3.949,7.553 -7.165,14.108 -8.445,17.521 -0.451,1.204 -2.414,7.506 -2.868,7.526 -1.375,0.061 -2.54,-11.934 -1.888,-15.985 -2.125,3.366 -4.263,10.416 -6.046,12.195 0,0 3.029,4.894 5.324,8.645 1.221,1.995 3.92,2.289 5.869,-1.418 3.154,-5.999 8.098,-16.087 13.123,-26.409 3.88,1.131 8.918,1.906 13.893,2.437 -0.475,8.858 -0.835,16.99 -0.792,21.962 0.034,4.005 0.204,6.901 0.46,8.106 0.273,1.288 0.844,2.009 1.189,2.353 0.425,0.426 2.336,1.895 4.911,0.395 2.211,-1.288 11.094,-8.536 13.433,-10.093 l 0.018,-0.012 c 1.434,-0.659 2.002,-3.736 2.052,-4.018 l 0.003,-0.021 -0.003,0.021 c -0.395,1.947 -18.714,14.906 -19.261,9.012 0,0 0.879,-12.559 1.797,-27.342 8.304,0.704 15.51,0.775 15.526,0.76 0.035,-0.031 -7.425,-0.945 -15.409,-2.648 1.272,-20.679 2.553,-44.787 1.623,-45.019 -1.041,-0.259 -12.422,19.37 -21.646,36.621 z m 16.228,7.532 c 0.637,-11.595 1.422,-24.04 1.73,-32.064 -2.882,5.526 -8.217,16.524 -13.732,27.865 2.872,1.652 7.337,3.058 12.002,4.199 z"
         style="fill:#562600"
         id="path423"
         sodipodi:nodetypes="cccccccccscccccsscccccccccccccc" />
    </g>
    <g
       transform="matrix(0.27859831,-0.02756376,0.02399718,0.24254857,-107.55208,61.054871)"
       id="g437"
       style="clip-rule:evenodd;fill-rule:evenodd;stroke-linejoin:round;stroke-miterlimit:2">
      <path
         d="m 240.001,219.599 c -1.798,-2.226 -0.994,-3.74 -2.129,-4.64 -0.759,-0.603 -7.087,-1.011 -7.145,-0.677 -0.754,4.331 1.649,8.068 6.411,10.728 -3.949,7.553 -7.165,14.108 -8.445,17.521 -0.451,1.204 -2.414,7.506 -2.868,7.526 -1.375,0.061 -2.54,-11.934 -1.888,-15.985 -2.125,3.366 -4.263,10.416 -6.046,12.195 0,0 3.029,4.894 5.324,8.645 1.221,1.995 3.92,2.289 5.869,-1.418 3.154,-5.999 8.098,-16.087 13.123,-26.409 3.88,1.131 8.918,1.906 13.893,2.437 -0.475,8.858 -0.835,16.99 -0.792,21.962 0.034,4.005 0.204,6.901 0.46,8.106 0.273,1.288 0.844,2.009 1.189,2.353 0.425,0.426 2.336,1.895 4.911,0.395 2.211,-1.288 11.094,-8.536 13.433,-10.093 l 0.018,-0.012 c 1.434,-0.659 2.002,-3.736 2.052,-4.018 l 0.003,-0.021 -0.003,0.021 c -0.395,1.947 -18.714,14.906 -19.261,9.012 0,0 0.879,-12.559 1.797,-27.342 8.304,0.704 15.51,0.775 15.526,0.76 0.035,-0.031 -7.425,-0.945 -15.409,-2.648 1.272,-20.679 2.553,-44.787 1.623,-45.019 -1.041,-0.259 -12.422,19.37 -21.646,36.621 z m 16.228,7.532 c 0.637,-11.595 1.422,-24.04 1.73,-32.064 -2.882,5.526 -8.217,16.524 -13.732,27.865 2.872,1.652 7.337,3.058 12.002,4.199 z"
         style="fill:#562600"
         id="path435"
         sodipodi:nodetypes="cccccccccscccccsscccccccccccccc" />
    </g>
    <g
       transform="matrix(0.16950531,0.01762723,-0.02073304,0.19937121,-67.524248,54.586338)"
       id="g449"
       style="clip-rule:evenodd;fill-rule:evenodd;stroke-linejoin:round;stroke-miterlimit:2">
      <path
         d="m 285.919,205.767 -6.881,-6.504 c 0,0 8.191,-9.825 13.082,-5.291 6.406,5.936 -5.645,10.902 -6.201,11.795 z"
         style="fill:#562600"
         id="path447"
         sodipodi:nodetypes="cccc" />
    </g>
    <g
       transform="matrix(0.16950531,0.01762723,-0.02073304,0.19937121,-67.524248,54.586338)"
       id="g457"
       style="clip-rule:evenodd;fill-rule:evenodd;stroke-linejoin:round;stroke-miterlimit:2">
      <path
         d="m 285.919,205.767 -6.881,-6.504 c 0,0 8.191,-9.825 13.082,-5.291 6.406,5.936 -5.645,10.902 -6.201,11.795 z"
         style="fill:#562600"
         id="path455"
         sodipodi:nodetypes="cccc" />
    </g>
    <g
       transform="matrix(0.17039246,0.00302921,-0.00356293,0.20041473,-69.518942,60.718321)"
       id="g465"
       style="clip-rule:evenodd;fill-rule:evenodd;stroke-linejoin:round;stroke-miterlimit:2">
      <path
         d="m 285.917,205.921 -6.305,-6.363 c 0,0 7.617,-10.12 12.508,-5.586 6.406,5.936 -5.648,11.056 -6.203,11.949 z"
         style="fill:#562600"
         id="path463"
         sodipodi:nodetypes="cccc" />
    </g>
    <g
       transform="matrix(0.17039246,0.00302921,-0.00356293,0.20041473,-69.518942,60.718321)"
       id="g473"
       style="clip-rule:evenodd;fill-rule:evenodd;stroke-linejoin:round;stroke-miterlimit:2">
      <path
         d="m 285.917,205.921 -6.305,-6.363 c 0,0 7.617,-10.12 12.508,-5.586 6.406,5.936 -5.648,11.056 -6.203,11.949 z"
         style="fill:#562600"
         id="path471"
         sodipodi:nodetypes="cccc" />
    </g>
    <g
       id="g1981"
       serif:id="g198"
       transform="matrix(0.26458333,0,0,0.26458333,110.65675,62.110559)"
       style="clip-rule:evenodd;fill-rule:evenodd;stroke-linejoin:round;stroke-miterlimit:2">
      <rect
         id="path1221"
         serif:id="path122"
         x="17.271"
         y="25.568001"
         width="600"
         height="600"
         style="fill:#9b782e;fill-rule:nonzero" />
      <g
         id="g1961"
         serif:id="g196">
        <rect
           id="rect1241"
           serif:id="rect124"
           x="320.62"
           y="28.917"
           width="93.303001"
           height="93.303001"
           style="fill:#f3c280" />
        <rect
           id="rect1261"
           serif:id="rect126"
           x="220.62"
           y="28.917"
           width="93.303001"
           height="93.303001"
           style="fill:#f3c280" />
        <rect
           id="rect1281"
           serif:id="rect128"
           x="120.62"
           y="28.917"
           width="93.303001"
           height="93.303001"
           style="fill:#f3c280" />
        <rect
           id="rect1301"
           serif:id="rect130"
           x="20.620001"
           y="28.917"
           width="93.303001"
           height="93.303001"
           style="fill:#f3c280" />
        <rect
           id="rect1321"
           serif:id="rect132"
           x="420.62"
           y="28.917"
           width="93.303001"
           height="93.303001"
           style="fill:#f3c280" />
        <rect
           id="rect1341"
           serif:id="rect134"
           x="520.62"
           y="28.917"
           width="93.303001"
           height="93.303001"
           style="fill:#f3c280" />
        <rect
           id="rect1361"
           serif:id="rect136"
           x="320.62"
           y="128.91701"
           width="93.303001"
           height="93.303001"
           style="fill:#f3c280" />
        <rect
           id="rect1381"
           serif:id="rect138"
           x="220.62"
           y="128.91701"
           width="93.303001"
           height="93.303001"
           style="fill:#f3c280" />
        <rect
           id="rect1401"
           serif:id="rect140"
           x="120.62"
           y="128.91701"
           width="93.303001"
           height="93.303001"
           style="fill:#f3c280" />
        <rect
           id="rect1422"
           serif:id="rect142"
           x="20.620001"
           y="128.91701"
           width="93.303001"
           height="93.303001"
           style="fill:#f3c280" />
        <rect
           id="rect1441"
           serif:id="rect144"
           x="420.62"
           y="128.91701"
           width="93.303001"
           height="93.303001"
           style="fill:#f3c280" />
        <rect
           id="rect1461"
           serif:id="rect146"
           x="520.62"
           y="128.91701"
           width="93.303001"
           height="93.303001"
           style="fill:#f3c280" />
        <rect
           id="rect1481"
           serif:id="rect148"
           x="320.62"
           y="228.91701"
           width="93.303001"
           height="93.303001"
           style="fill:#f3c280" />
        <rect
           id="rect1501"
           serif:id="rect150"
           x="220.62"
           y="228.91701"
           width="93.303001"
           height="93.303001"
           style="fill:#f3c280" />
        <rect
           id="rect1521"
           serif:id="rect152"
           x="120.62"
           y="228.91701"
           width="93.303001"
           height="93.303001"
           style="fill:#f3c280" />
        <rect
           id="rect1541"
           serif:id="rect154"
           x="20.620001"
           y="228.91701"
           width="93.303001"
           height="93.303001"
           style="fill:#f3c280" />
        <g
           id="rect1561"
           serif:id="rect156"
           transform="translate(-792.839,-45.0883)">
          <rect
             x="1213.46"
             y="274.005"
             width="93.303001"
             height="93.303001"
             style="fill:#f3c280"
             id="rect534" />
        </g>
        <rect
           id="rect1581"
           serif:id="rect158"
           x="520.62"
           y="228.91701"
           width="93.303001"
           height="93.303001"
           style="fill:#f3c280" />
        <rect
           id="rect1601"
           serif:id="rect160"
           x="320.62"
           y="328.91699"
           width="93.303001"
           height="93.303001"
           style="fill:#f3c280" />
        <rect
           id="rect1622"
           serif:id="rect162"
           x="220.62"
           y="328.91699"
           width="93.303001"
           height="93.303001"
           style="fill:#f3c280" />
        <rect
           id="rect1641"
           serif:id="rect164"
           x="120.62"
           y="328.91699"
           width="93.303001"
           height="93.303001"
           style="fill:#f3c280" />
        <rect
           id="rect1661"
           serif:id="rect166"
           x="20.620001"
           y="328.91699"
           width="93.303001"
           height="93.303001"
           style="fill:#f3c280" />
        <rect
           id="rect1681"
           serif:id="rect168"
           x="420.62"
           y="328.91699"
           width="93.303001"
           height="93.303001"
           style="fill:#f3c280" />
        <rect
           id="rect1701"
           serif:id="rect170"
           x="520.62"
           y="328.91699"
           width="93.303001"
           height="93.303001"
           style="fill:#f3c280" />
        <rect
           id="rect1721"
           serif:id="rect172"
           x="320.62"
           y="428.91699"
           width="93.303001"
           height="93.303001"
           style="fill:#f3c280" />
        <rect
           id="rect1741"
           serif:id="rect174"
           x="220.62"
           y="428.91699"
           width="93.303001"
           height="93.303001"
           style="fill:#f3c280" />
        <rect
           id="rect1761"
           serif:id="rect176"
           x="120.62"
           y="428.91699"
           width="93.303001"
           height="93.303001"
           style="fill:#f3c280" />
        <rect
           id="rect1781"
           serif:id="rect178"
           x="20.620001"
           y="428.91699"
           width="93.303001"
           height="93.303001"
           style="fill:#f3c280" />
        <rect
           id="rect1801"
           serif:id="rect180"
           x="420.62"
           y="428.91699"
           width="93.303001"
           height="93.303001"
           style="fill:#f3c280" />
        <rect
           id="rect1822"
           serif:id="rect182"
           x="520.62"
           y="428.91699"
           width="93.303001"
           height="93.303001"
           style="fill:#f3c280" />
        <rect
           id="rect1841"
           serif:id="rect184"
           x="320.62"
           y="528.91699"
           width="93.303001"
           height="93.303001"
           style="fill:#f3c280" />
        <rect
           id="rect1861"
           serif:id="rect186"
           x="220.62"
           y="528.91699"
           width="93.303001"
           height="93.303001"
           style="fill:#f3c280" />
        <rect
           id="rect1881"
           serif:id="rect188"
           x="120.62"
           y="528.91699"
           width="93.303001"
           height="93.303001"
           style="fill:#f3c280" />
        <rect
           id="rect1901"
           serif:id="rect190"
           x="20.620001"
           y="528.91699"
           width="93.303001"
           height="93.303001"
           style="fill:#f3c280" />
        <rect
           id="rect1921"
           serif:id="rect192"
           x="420.62"
           y="528.91699"
           width="93.303001"
           height="93.303001"
           style="fill:#f3c280" />
        <rect
           id="rect1941"
           serif:id="rect194"
           x="520.62"
           y="528.91699"
           width="93.303001"
           height="93.303001"
           style="fill:#f3c280" />
      </g>
    </g>
    <g
       transform="matrix(-0.08955958,-0.2489647,0.2489647,-0.08955958,108.7946,688.84361)"
       id="g607"
       style="clip-rule:evenodd;fill-rule:evenodd;stroke-linejoin:round;stroke-miterlimit:2">
      <g
         transform="matrix(0.5617,-0.315221,0.370761,0.660668,1435.2,889.212)"
         id="g601">
        <path
           d="m 282.643,208.318 -6.162,-6.492 c -7.678,1.722 -14.993,5.54 -18.54,12.991 -0.659,7.977 5.375,7.801 11.883,3.688 z"
           style="fill:#562600"
           id="path599"
           sodipodi:nodetypes="ccccc" />
      </g>
      <g
         transform="matrix(0.591292,-0.255431,0.300437,0.695474,1441.47,866.024)"
         id="g605">
        <path
           d="m 285.919,205.767 -6.881,-6.504 c 0,0 8.191,-9.825 13.082,-5.291 6.406,5.936 -5.645,10.902 -6.201,11.795 z"
           style="fill:#562600"
           id="path603"
           sodipodi:nodetypes="cccc" />
      </g>
    </g>
    <g
       transform="matrix(-0.07793887,-0.25284357,0.25284357,-0.07793887,89.636763,683.26106)"
       id="g617"
       style="clip-rule:evenodd;fill-rule:evenodd;stroke-linejoin:round;stroke-miterlimit:2">
      <g
         transform="matrix(-0.129487,-0.630955,-0.742126,0.152302,1867.88,1085.99)"
         id="g611">
        <path
           d="m 283.113,209.253 -5.789,-6.774 c -7.678,1.721 -15.836,4.887 -19.383,12.338 -0.659,7.977 5.375,7.801 11.883,3.688 z"
           style="fill:#562600"
           id="path609"
           sodipodi:nodetypes="ccccc" />
      </g>
      <g
         transform="matrix(0.567214,-0.305187,0.358959,0.667154,1446.23,889.924)"
         id="g615">
        <path
           d="m 285.917,205.921 -6.305,-6.363 c 0,0 7.617,-10.12 12.508,-5.586 6.406,5.936 -5.648,11.056 -6.203,11.949 z"
           style="fill:#562600"
           id="path613"
           sodipodi:nodetypes="cccc" />
      </g>
    </g>
    <g
       transform="matrix(0.26458333,0,0,0.26458333,-288.80799,-121.20468)"
       id="g623"
       style="clip-rule:evenodd;fill-rule:evenodd;stroke-linejoin:round;stroke-miterlimit:2">
      <path
         d="m 1787.31,1165.46 20.41,-31.62 -30.67,28.95 -33.13,-28.97 20.68,39.63 -21.02,13.03 31.12,-5.17 5.77,21.95 8.26,-25.14 28.27,7.83 z"
         style="fill:#ffffff"
         id="path619" />
      <path
         d="m 1789,1165.36 19.84,-30.79 c 0.37,-0.57 0.25,-1.32 -0.27,-1.75 -0.52,-0.44 -1.28,-0.41 -1.77,0.05 l -29.79,28.17 -32.27,-28.16 c -0.45,-0.4 -1.12,-0.42 -1.6,-0.04 -0.47,0.37 -0.61,1.03 -0.33,1.56 l 20.19,38.61 -20.04,12.46 c -0.48,0.3 -0.69,0.9 -0.49,1.43 0.2,0.53 0.75,0.84 1.31,0.75 l 30.07,-5.03 5.52,20.93 c 0.13,0.48 0.56,0.83 1.06,0.84 0.51,0.02 0.96,-0.3 1.12,-0.78 l 7.9,-24.14 27.27,7.52 c 0.5,0.14 1.04,-0.1 1.26,-0.58 0.23,-0.48 0.07,-1.05 -0.36,-1.35 z m -2.85,-0.47 c -0.4,0.48 -0.23,1.11 0.38,1.43 h 0.18 l 24.4,16.87 -22.09,-6.14 c -0.57,-0.15 -1.16,0.16 -1.35,0.73 l -7.08,21.47 -4.77,-18.24 c -0.16,-0.57 -0.72,-0.94 -1.31,-0.84 l -25.2,4.16 15.93,-9.85 c 0.53,-0.34 0.72,-1.03 0.43,-1.59 l -17.56,-33.73 28.08,24.61 c 0.5,0.43 1.26,0.42 1.74,-0.04 l 22.68,-21.35 -14.46,22.33 z"
         style="fill:#562600"
         id="path621"
         sodipodi:nodetypes="ccccccccccscccccccccccccccccccccccccccc" />
    </g>
    <g
       transform="matrix(-0.26156338,-0.03986054,0.03986054,-0.26156338,627.95208,565.01865)"
       id="g629"
       style="clip-rule:evenodd;fill-rule:evenodd;stroke-linejoin:round;stroke-miterlimit:2">
      <path
         d="m 1794.13,1164.33 13.59,-30.49 -31.55,24.11 -32.25,-24.13 19.62,36.5 -19.96,16.16 31.12,-5.17 4.79,29.47 8.88,-29.53 31.25,11.33 z"
         style="fill:#ffffff"
         id="path625" />
      <path
         d="m 1795.6,1164.4 13.34,-30.01 c 0.25,-0.56 0.09,-1.22 -0.39,-1.6 -0.48,-0.38 -1.16,-0.38 -1.65,-0.01 l -30.74,23.54 -31.49,-23.51 c -0.47,-0.36 -1.13,-0.34 -1.58,0.05 -0.45,0.39 -0.57,1.04 -0.29,1.56 l 19.18,35.58 -19.15,15.55 c -0.43,0.34 -0.57,0.92 -0.34,1.42 0.22,0.5 0.75,0.78 1.29,0.69 l 29.95,-5 4.63,28.3 c 0.08,0.53 0.52,0.92 1.05,0.96 0.53,0.03 1.02,-0.3 1.17,-0.81 l 8.52,-28.41 30.15,10.89 c 0.47,0.17 0.99,0 1.27,-0.41 0.28,-0.41 0.24,-0.96 -0.1,-1.33 z m -2.7,-0.45 c -0.24,0.39 -0.17,0.83 0.18,1.12 l 0.27,-0.04 22.56,25.05 -27.16,-9.88 c -0.29,-0.1 -0.61,-0.08 -0.88,0.05 -0.27,0.14 -0.48,0.38 -0.57,0.68 l -7.47,24.77 -3.98,-24.58 c -0.05,-0.31 -0.22,-0.58 -0.47,-0.76 -0.25,-0.19 -0.57,-0.26 -0.87,-0.21 l -26.63,4.4 16.44,-13.28 c 0.45,-0.37 0.58,-1.02 0.3,-1.53 l -16.88,-31.48 27.65,20.74 c 0.47,0.34 1.11,0.34 1.57,-0.01 l 27.39,-20.89 -11.48,25.67 z"
         style="fill:#562600"
         id="path627"
         sodipodi:nodetypes="ccscccscccccccccccscccccccccccccccccccccc" />
    </g>
    <g
       transform="matrix(-0.26156338,-0.03986054,0.03986054,-0.26156338,441.83623,563.68779)"
       id="g635"
       style="clip-rule:evenodd;fill-rule:evenodd;stroke-linejoin:round;stroke-miterlimit:2">
      <path
         d="m 1794.13,1164.33 13.59,-30.49 -31.55,24.11 -32.25,-24.13 19.62,36.5 -19.96,16.16 31.12,-5.17 4.79,29.47 8.88,-29.53 31.25,11.33 z"
         style="fill:#ffffff"
         id="path631" />
      <path
         d="m 1795.6,1164.4 13.34,-30.01 c 0.25,-0.56 0.09,-1.22 -0.39,-1.6 -0.48,-0.38 -1.16,-0.38 -1.65,-0.01 l -30.74,23.54 -31.49,-23.51 c -0.47,-0.36 -1.13,-0.34 -1.58,0.05 -0.45,0.39 -0.57,1.04 -0.29,1.56 l 19.18,35.58 -19.15,15.55 c -0.43,0.34 -0.57,0.92 -0.34,1.42 0.22,0.5 0.75,0.78 1.29,0.69 l 29.95,-5 4.63,28.3 c 0.08,0.53 0.52,0.92 1.05,0.96 0.53,0.03 1.02,-0.3 1.17,-0.81 l 8.52,-28.41 30.15,10.89 c 0.47,0.17 0.99,0 1.27,-0.41 0.28,-0.41 0.24,-0.96 -0.1,-1.33 z m -2.7,-0.45 c -0.24,0.39 -0.17,0.83 0.18,1.12 l 0.27,-0.04 22.56,25.05 -27.16,-9.88 c -0.29,-0.1 -0.61,-0.08 -0.88,0.05 -0.27,0.14 -0.48,0.38 -0.57,0.68 l -7.47,24.77 -3.98,-24.58 c -0.05,-0.31 -0.22,-0.58 -0.47,-0.76 -0.25,-0.19 -0.57,-0.26 -0.87,-0.21 l -26.63,4.4 16.44,-13.28 c 0.45,-0.37 0.58,-1.02 0.3,-1.53 l -16.88,-31.48 27.65,20.74 c 0.47,0.34 1.11,0.34 1.57,-0.01 l 27.39,-20.89 -11.48,25.67 z"
         style="fill:#562600"
         id="path633"
         sodipodi:nodetypes="ccscccscccccccccccscccccccccccccccccccccc" />
    </g>
    <g
       transform="matrix(0.2712085,-0.08828643,0.0663911,0.20394718,-402.04171,184.54517)"
       id="g639"
       style="clip-rule:evenodd;fill-rule:evenodd;stroke-linejoin:round;stroke-miterlimit:2">
      <path
         d="m 1485.86,691.484 c 0.83,0.41 1.67,0.803 2.49,1.173 4.56,2.035 8.61,5.176 12.3,6.177 6.18,1.672 9.47,-5.764 12.87,-17.153 1.25,-4.175 -2.6,-14.467 -7.05,-14.651 -2.9,-0.12 -8.1,0.398 -11.39,0.561 l -0.8,0.525 c -1.93,6.711 -4.14,13.437 -6.56,19.225 -0.61,1.442 -1.23,2.827 -1.86,4.143 z m 4.55,-58.33 c 4.81,-4.594 12.03,-5.043 15.98,-1.389 2.56,2.379 3.85,4.844 4.04,7.38 0.32,4.187 -2.13,8.36 -5.63,12.31 -2.29,2.582 -5.05,5.046 -7.98,7.305 3.6,-14.137 5.74,-26.104 5.74,-26.104 l -7.32,9.218 c 0,0 -10.88,34.155 -11.33,35.46 -1.35,3.91 -2.78,7.611 -4.29,10.845 -0.68,1.465 -1.53,2.814 -2.04,4.222 -0.26,0.744 -0.54,1.644 0.59,2.81 0.87,0.906 7.88,3.79 9.56,4.461 5.12,2.047 10.05,3.093 14.35,2.422 6.94,-1.087 12.89,-6.37 15.18,-20.299 0.82,-4.948 0.17,-8.809 -1.37,-11.786 -1.94,-3.768 -5.33,-6.238 -9.56,-7.584 -1.03,-0.328 -2.12,-0.586 -3.24,-0.779 2.31,-1.939 4.47,-3.99 6.33,-6.113 4.71,-5.356 6.12,-11.278 7.09,-16.864 2.4,-13.769 -20.55,-18.841 -26.08,-11.969"
         style="fill:#562600"
         id="path637"
         sodipodi:nodetypes="ccccscccccccccccccccccccscccc" />
    </g>
    <g
       id="rect2022"
       serif:id="rect202"
       transform="matrix(0.26458333,0,0,0.26458333,-52.360978,81.670146)"
       style="clip-rule:evenodd;fill-rule:evenodd;stroke-linejoin:round;stroke-miterlimit:2">
      <path
         d="m 633.542,-54.803 v 600 h 0.045 v 5.939 h 607.893 v -600 h -0.05 v -5.939 z m 15.94,15.939 H 1025.6 v 90 h 15.94 v -90 h 184 v 182.061 h -91 v 15.939 l 96.35,8.47 -5.35,367.591 h -83 v -90.086 h -8 v -0.012 h -100 v 15.94 h 92.06 v 74.158 H 941.543 v -90.086 h -15.94 v 90.086 l -85.813,2.589 -98.248,-2.589 v -90.086 h -15.939 v 90.086 H 649.482 V 259.476 h 185.06 v -15.939 l -187.493,3.813 z m 177.121,90 v 91.061 h -92.061 v 15.939 l 103.775,-5.539 4.226,-101.461 z m 99.75,0 v 290.86 H 734.542 v 15.937 h 91.428 v 93.203 h 15.938 v -93.203 h 292.632 v -15.937 c -63.75,4.74 -127.07,11.409 -193.304,4.843 l 1.056,-87.363 h 92.248 v -0.138 h 7.38 V 151.136 h -15.93 v 92.401 H 942.292 V 51.136 Z"
         style="fill:#6d370d;fill-rule:nonzero"
         id="path652" />
    </g>
  </g>
</svg>
