<?xml version="1.0" encoding="UTF-8" standalone="no"?>
<!-- Created with Inkscape (http://www.inkscape.org/) -->

<svg
   width="144.9953mm"
   height="193.02509mm"
   viewBox="0 0 144.9953 193.02509"
   version="1.1"
   id="svg2737"
   sodipodi:docname="2022-KR-06-taskbodyG.svg"
   inkscape:version="1.1.1 (3bf5ae0d25, 2021-09-20)"
   xmlns:inkscape="http://www.inkscape.org/namespaces/inkscape"
   xmlns:sodipodi="http://sodipodi.sourceforge.net/DTD/sodipodi-0.dtd"
   xmlns="http://www.w3.org/2000/svg"
   xmlns:svg="http://www.w3.org/2000/svg">
  <sodipodi:namedview
     id="namedview2739"
     pagecolor="#ffffff"
     bordercolor="#666666"
     borderopacity="1.0"
     inkscape:pageshadow="2"
     inkscape:pageopacity="0.0"
     inkscape:pagecheckerboard="0"
     inkscape:document-units="mm"
     showgrid="false"
     inkscape:zoom="0.16592137"
     inkscape:cx="-678.03202"
     inkscape:cy="1521.8052"
     inkscape:window-width="1920"
     inkscape:window-height="1137"
     inkscape:window-x="-8"
     inkscape:window-y="-8"
     inkscape:window-maximized="1"
     inkscape:current-layer="layer1" />
  <defs
     id="defs2734" />
  <g
     inkscape:label="Ebene 1"
     inkscape:groupmode="layer"
     id="layer1"
     transform="translate(-32.502346,-51.987456)">
    <g
       id="g4697"
       transform="translate(-333.79453,93.469363)">
      <path
         d="m 417.46897,113.74678 c -0.34039,-10.21935 -4.00923,-21.94581 -11.39778,-30.10887 -4.73643,-5.23457 -10.78298,-10.39561 -14.26609,-16.3644 -4.04508,-6.93031 -2.35477,-14.89689 6.93065,-17.03602 10.07613,-2.32005 21.00562,4.57391 24.69724,12.66055 5.15565,11.29107 3.19289,25.35386 2.54789,37.10895 -0.11954,2.17742 -2.3036,12.72765 -3.96669,14.44752 -0.9534,0.98581 -4.51585,0.15389 -4.54522,-0.70773 z"
         style="clip-rule:evenodd;fill:#652a15;fill-rule:evenodd;stroke:#000000;stroke-width:3.00064px;stroke-linecap:round;stroke-linejoin:round;stroke-miterlimit:4"
         id="path2242" />
      <path
         d="m 410.90434,87.8745 c 4.56522,-1.6855 7.88828,-5.89793 12.4071,-7.56841"
         style="clip-rule:evenodd;fill:none;fill-rule:evenodd;stroke:#000000;stroke-width:2.47512px;stroke-linecap:round;stroke-linejoin:round;stroke-miterlimit:4"
         id="path2245" />
      <path
         d="m 405.06014,78.69306 c 0.3274,-5.96649 8.25913,-11.09387 13.81109,-13.90729"
         style="clip-rule:evenodd;fill:none;fill-rule:evenodd;stroke:#000000;stroke-width:3.44144px;stroke-linecap:round;stroke-linejoin:round;stroke-miterlimit:4"
         id="path2248" />
      <path
         d="m 394.61222,69.87074 c 0.23003,-4.19256 8.20674,-12.43383 12.40526,-13.98439"
         style="clip-rule:evenodd;fill:none;fill-rule:evenodd;stroke:#000000;stroke-width:3.25496px;stroke-linecap:round;stroke-linejoin:round;stroke-miterlimit:4"
         id="path2251" />
      <path
         d="m 391.34562,58.6926 c 10.07716,0.55295 20.18803,1.95482 29.26747,6.49544"
         style="clip-rule:evenodd;fill:none;fill-rule:evenodd;stroke:#000000;stroke-width:3.00064px;stroke-linecap:round;stroke-linejoin:round;stroke-miterlimit:4"
         id="path2254" />
      <path
         d="m 396.33556,70.57689 c 6.26345,0.34356 22.26993,4.53739 26.33887,8.47262"
         style="clip-rule:evenodd;fill:none;fill-rule:evenodd;stroke:#000000;stroke-width:3.40752px;stroke-linecap:round;stroke-linejoin:round;stroke-miterlimit:4"
         id="path2257" />
      <path
         d="m 407.6229,83.41656 c 5.04925,2.52585 11.52511,6.44462 14.56684,10.88305"
         style="clip-rule:evenodd;fill:none;fill-rule:evenodd;stroke:#000000;stroke-width:3.08541px;stroke-linecap:round;stroke-linejoin:round;stroke-miterlimit:4"
         id="path2260" />
      <path
         d="m 444.92891,105.74708 c -0.30779,0.0322 -0.69969,-0.60841 -0.86432,-0.34536 -0.57801,0.92337 0.0931,4.07286 0,5.18948 -0.2899,3.46623 -0.79094,6.90917 -1.0379,10.37897 -0.37222,5.20203 -0.17717,10.39865 -1.03789,15.56845 -0.15748,0.9538 -1.5676,5.78001 -1.0379,6.57455 0.21653,0.32391 9.51822,0.53327 10.37897,0.69075 10.9856,1.99705 21.70099,8.32821 32.86733,5.53662 1.14348,-0.28631 2.43189,-0.21474 3.46086,-1.03968 0.96631,-0.77306 1.74651,-3.05641 2.07578,-4.1498 2.27979,-7.60349 -5.11791,-12.83055 -11.76403,-13.49444 -6.15223,-0.61378 -12.32413,0.22725 -18.33676,1.73043 -3.05285,0.76409 -5.68876,1.83062 -8.65034,2.42294 -0.25054,0.0501 -0.54759,0.55833 -0.69075,0.34536 -0.86609,-1.29915 -0.12705,-5.04274 -0.34536,-6.57275 -0.73012,-5.11431 0.0322,-10.88538 1.03791,-15.91561 0.33641,-1.68569 1.40829,-4.78327 0.69252,-6.57275 -0.62275,-1.55504 -5.55813,-0.46525 -6.74812,-0.34716 z"
         style="clip-rule:evenodd;fill:#dc9b65;fill-rule:evenodd;stroke:#000000;stroke-width:2.97053px;stroke-linecap:round;stroke-linejoin:round;stroke-miterlimit:4"
         id="path2265" />
      <path
         d="m 430.05297,105.67588 c 4.1337,2.22789 1.904,12.24359 1.904,16.60633 0,5.41139 1.03791,10.76193 1.03791,16.261 0,0.70864 0.19862,4.05138 -0.69252,4.49694 -0.77844,0.39013 -2.92222,0.22191 -3.80622,0.34716 -3.52885,0.50284 -6.8358,1.33495 -10.37897,1.73043 -8.13856,0.90368 -18.21868,3.78653 -25.2567,-2.07579 -4.08715,-3.40895 -7.3279,-14.29793 -0.69072,-16.95352 6.15399,-2.46232 16.36654,0.98422 22.14298,3.45908 0.8178,0.35251 9.6775,4.15872 9.68644,4.15338 0.58338,-0.39013 0.34716,-8.2835 0.34716,-9.34286 0,-4.84413 0.66927,-9.41803 -0.69252,-14.18522 -0.25233,-0.87682 -1.48349,-3.39463 -0.34716,-4.15157 1.14348,-0.76232 5.4078,-1.06831 6.74632,-0.34536 z"
         style="clip-rule:evenodd;fill:#dc9b65;fill-rule:evenodd;stroke:#000000;stroke-width:2.97053px;stroke-linecap:round;stroke-linejoin:round;stroke-miterlimit:4"
         id="path2268" />
      <path
         d="m 396.63766,131.50895 c 0.89522,-3.04014 4.42463,-4.82873 7.12377,-4.03403"
         style="clip-rule:evenodd;fill:none;fill-rule:evenodd;stroke:#000000;stroke-width:3.04803px;stroke-linecap:round;stroke-linejoin:round;stroke-miterlimit:4"
         id="path2271" />
      <path
         d="m 486.70963,146.62573 c 1.65706,-3.31412 -4.47011,-5.86769 -6.57455,-6.91991"
         style="clip-rule:evenodd;fill:#f1c94c;fill-opacity:0.01;fill-rule:evenodd;stroke:#000000;stroke-width:4.02632px;stroke-linecap:round;stroke-linejoin:round;stroke-miterlimit:4"
         id="path2274" />
      <path
         d="m 449.22902,63.3286 c 0.0537,-1.83422 15.22309,6.01443 18.35825,7.71086 7.34581,3.97621 9.4896,1.27947 17.06626,0.33462 0.918,-0.11451 2.80588,1.47632 2.54643,2.49097 -0.5297,2.05968 -4.55602,2.88822 -3.98698,4.79578 0.19148,0.64601 1.05759,0.84643 1.48706,1.36181 2.35318,2.82737 6.04843,9.37507 5.37379,13.20097 -0.51892,2.94727 -4.11937,0.13599 -5.1358,-0.27559 -5.00515,-2.03105 -4.89958,-7.16328 -8.75948,-10.02644 -5.81938,-4.31443 -14.64151,-4.86201 -20.85993,-8.22801 -1.50495,-0.81601 -3.37855,-0.6961 -4.86738,-1.80023 -3.09759,-2.29589 -1.32064,-6.23094 -1.22222,-9.56474 z"
         style="clip-rule:evenodd;fill:#dc9b65;fill-rule:evenodd;stroke:#000000;stroke-width:2.97053px;stroke-linecap:round;stroke-linejoin:round;stroke-miterlimit:4"
         id="path2277" />
      <path
         d="m 428.36372,65.76406 c -2.86139,-1.38324 -5.18055,0.66927 -8.12962,1.03611 -4.37168,0.54758 -8.76665,0.89834 -13.14728,1.38507 -3.15126,0.35073 -6.03054,1.72863 -9.34106,1.72863 -1.7716,0 -9.59876,-0.3919 -10.03361,0.69252 -2.02747,5.0714 6.1236,3.99592 7.61244,6.22739 0.40621,0.61201 -0.41336,1.10591 -0.69252,1.38507 -1.13991,1.13988 -8.12425,10.25011 -4.84413,11.06969 5.51696,1.37969 13.00414,-9.53074 17.29888,-12.1076 4.94075,-2.96516 10.49171,-2.90253 15.91562,-3.80622 1.74654,-0.29167 4.69021,0.76949 6.22739,0 2.24935,-1.12559 0.72295,-6.84297 -0.86611,-7.61066 z"
         style="clip-rule:evenodd;fill:#dc9b65;fill-rule:evenodd;stroke:#000000;stroke-width:2.97053px;stroke-linecap:round;stroke-linejoin:round;stroke-miterlimit:4"
         id="path2280" />
      <path
         d="m 453.14798,61.35481 c 0.94485,-0.35433 1.39938,3.63979 1.55683,4.67233 0.79992,5.19485 1.67497,10.33423 2.07759,15.56845 1.39401,18.1274 5.8516,36.09555 -16.26098,42.89915 -16.49719,5.07674 -29.43333,-9.76162 -28.02321,-25.25491 0.78201,-8.60917 6.41705,-15.38414 9.34107,-23.18088 1.05222,-2.80771 3.28549,-12.97371 5.18948,-14.87593 2.0239,-2.02571 6.29359,-0.73907 8.64854,-0.34716 3.68276,0.61378 14.15656,1.76799 17.47068,0.51895 z"
         style="clip-rule:evenodd;fill:#dc9b65;fill-rule:evenodd;stroke:#000000;stroke-width:2.97053px;stroke-linecap:round;stroke-linejoin:round;stroke-miterlimit:4"
         id="path2283" />
      <path
         d="m 410.81689,16.53053 c -2.61887,-2.05952 -4.92201,-1.64756 -8.13284,-1.33334"
         style="clip-rule:evenodd;fill:#e6b728;fill-rule:evenodd;stroke:#000000;stroke-width:2.9468px;stroke-linecap:round;stroke-linejoin:round;stroke-miterlimit:4"
         id="path2292" />
      <path
         d="m 468.70955,15.84804 c 3.073,-1.86034 3.28742,-3.09079 7.21741,-3.47517"
         style="clip-rule:evenodd;fill:none;fill-rule:evenodd;stroke:#000000;stroke-width:2.9468px;stroke-linecap:round;stroke-linejoin:round;stroke-miterlimit:4"
         id="path2295" />
      <path
         d="m 453.16361,33.01788 c -2.59593,-2.45729 -14.92332,-1.02589 -13.47967,4.19346 2.60474,9.41946 17.86943,-0.0429 13.47967,-4.19346 z"
         style="clip-rule:evenodd;fill:#070400;fill-rule:evenodd;stroke:#000000;stroke-width:2.9468px;stroke-linecap:round;stroke-linejoin:round;stroke-miterlimit:4"
         id="path2298" />
      <path
         d="m 452.37306,29.96684 c 0.98679,-0.0966 -1.0523,-0.018 -1.32625,-0.0196 -1.46827,-0.0555 -2.87356,-0.018 -4.35178,0.12705 -3.51449,0.34375 -10.16498,0.85913 -7.35246,6.09407 1.67834,3.12407 7.64625,5.51283 10.88875,2.96622 1.76175,-1.38308 3.70456,-4.44791 3.86844,-6.64845 0.0567,-0.75391 0.004,-2.29823 -1.01706,-2.43904 -0.0655,-0.018 -1.42345,-0.018 -0.70964,-0.0805 z"
         style="clip-rule:evenodd;fill-rule:evenodd;stroke:#000000;stroke-width:2.9468px;stroke-linecap:round;stroke-linejoin:round;stroke-miterlimit:4"
         id="path2301" />
      <path
         d="m 489.33186,25.03503 c -4.08085,0.9724 -16.52405,8.11956 -17.45038,11.95425"
         style="clip-rule:evenodd;fill:none;fill-rule:evenodd;stroke:#000000;stroke-width:2.9468px;stroke-linecap:round;stroke-linejoin:round;stroke-miterlimit:4"
         id="path2304" />
      <path
         d="m 414.70661,40.30911 c -2.79069,-3.39016 -18.26323,-7.43294 -22.66204,-5.88989"
         style="clip-rule:evenodd;fill:none;fill-rule:evenodd;stroke:#000000;stroke-width:2.9468px;stroke-linecap:round;stroke-linejoin:round;stroke-miterlimit:4"
         id="path2307" />
      <path
         d="m 475.73643,44.18047 c 2.529,-2.28106 7.39701,-1.66635 10.32389,-0.67749 0.68831,0.23262 4.30945,2.31272 3.98396,2.40773"
         style="clip-rule:evenodd;fill:none;fill-rule:evenodd;stroke:#000000;stroke-width:2.9468px;stroke-linecap:round;stroke-linejoin:round;stroke-miterlimit:4"
         id="path2310" />
      <path
         d="m 414.38951,47.76033 c 1.32389,0.0501 -3.10579,-0.83873 -3.37098,-0.86952 -1.45261,-0.17 -2.57992,-0.24604 -4.01963,-0.2983 -6.00368,-0.22547 -10.51515,1.08657 -15.55946,4.02971"
         style="clip-rule:evenodd;fill:none;fill-rule:evenodd;stroke:#000000;stroke-width:2.9468px;stroke-linecap:round;stroke-linejoin:round;stroke-miterlimit:4"
         id="path2313" />
      <path
         d="m 453.99549,48.95299 c 1.64843,0.4907 -1.26376,8.12909 -2.41819,9.47352 -0.6959,0.80991 -8.51823,1.73524 -9.59114,1.18946 -0.90295,-0.45937 -2.12506,-8.85058 -1.53903,-9.0238 1.66132,-0.48996 12.68621,-1.89595 13.54836,-1.63918 z"
         style="clip-rule:evenodd;fill:#fafaf9;fill-rule:evenodd;stroke:#000000;stroke-width:2.94542px;stroke-linecap:round;stroke-linejoin:round;stroke-miterlimit:4"
         id="path2316" />
      <path
         d="m 447.35828,50.16735 c 0.19937,2.03822 0.41905,6.38575 -0.36607,8.33073"
         style="clip-rule:evenodd;fill:#fafaf9;fill-rule:evenodd;stroke:#000000;stroke-width:2.94542px;stroke-linecap:round;stroke-linejoin:round;stroke-miterlimit:4"
         id="path2319" />
      <path
         d="m 464.2052,23.12924 c -0.11326,-1.15851 -1.21197,-1.99885 -2.45316,-1.87754 -1.24116,0.12171 -2.15611,1.15888 -2.04279,2.31738 0.11345,1.15959 1.21197,1.99885 2.45316,1.87754 1.24119,-0.12168 2.15625,-1.15763 2.04279,-2.31738 z"
         style="clip-rule:evenodd;fill-rule:evenodd;stroke:#000000;stroke-width:2.9468px;stroke-linecap:round;stroke-linejoin:round;stroke-miterlimit:4"
         id="path2328" />
      <path
         d="m 423.64733,27.49859 c -0.11649,-1.19036 -1.26952,-2.05126 -2.5773,-1.92333 -1.30776,0.12885 -2.27346,1.1961 -2.15705,2.38646 0.11634,1.18912 1.27074,2.04983 2.5785,1.92191 1.30778,-0.12885 2.27216,-1.1961 2.15585,-2.38504 z"
         style="clip-rule:evenodd;fill:#080500;fill-rule:evenodd;stroke:#000000;stroke-width:2.9468px;stroke-linecap:round;stroke-linejoin:round;stroke-miterlimit:4"
         id="path2331" />
      <path
         d="m 415.08692,15.23836 c -0.71329,4.50053 -4.177,10.03646 -8.08061,12.82036 -5.37308,3.82928 -9.84694,-10.74725 -9.17027,-14.22009 1.60501,-8.24949 18.35547,-5.57458 17.25088,1.39973 z"
         style="font-variation-settings:normal;clip-rule:evenodd;vector-effect:none;fill:#dc9b65;fill-opacity:1;fill-rule:evenodd;stroke:#000000;stroke-width:2.9468px;stroke-linecap:butt;stroke-linejoin:miter;stroke-miterlimit:4;stroke-dasharray:none;stroke-dashoffset:0;stroke-opacity:1;-inkscape-stroke:none;stop-color:#000000"
         id="path2340" />
      <path
         d="m 463.90445,12.16565 c -1.45997,-0.49356 8.06792,-7.76902 10.35833,-7.71999 5.98766,0.13062 6.75574,5.45325 7.19479,9.94143 0.16947,1.7326 -0.0668,3.67487 -1.0456,5.21311 -5.24995,8.24931 -14.07692,-6.61228 -16.50752,-7.43455 z"
         style="font-variation-settings:normal;clip-rule:evenodd;vector-effect:none;fill:#dc9b65;fill-opacity:1;fill-rule:evenodd;stroke:#000000;stroke-width:2.9468px;stroke-linecap:butt;stroke-linejoin:miter;stroke-miterlimit:4;stroke-dasharray:none;stroke-dashoffset:0;stroke-opacity:1;-inkscape-stroke:none;stop-color:#000000"
         id="path2343" />
      <path
         d="m 410.81689,16.53053 c -2.61887,-2.05952 -4.92201,-1.64756 -8.13284,-1.33334"
         style="clip-rule:evenodd;fill:#e6b728;fill-rule:evenodd;stroke:#000000;stroke-width:2.9468px;stroke-linecap:round;stroke-linejoin:round;stroke-miterlimit:4"
         id="path2346" />
      <path
         d="m 468.70955,15.84804 c 3.073,-1.86034 3.28742,-3.09079 7.21741,-3.47517"
         style="clip-rule:evenodd;fill:none;fill-rule:evenodd;stroke:#000000;stroke-width:2.9468px;stroke-linecap:round;stroke-linejoin:round;stroke-miterlimit:4"
         id="path2349" />
      <path
         d="m 453.16361,33.01788 c -2.59593,-2.45729 -14.92332,-1.02589 -13.47967,4.19346 2.60474,9.41946 17.86943,-0.0429 13.47967,-4.19346 z"
         style="clip-rule:evenodd;fill:#070400;fill-rule:evenodd;stroke:#000000;stroke-width:2.9468px;stroke-linecap:round;stroke-linejoin:round;stroke-miterlimit:4"
         id="path2352" />
      <path
         d="m 432.8379,-11.99142 c 3.04739,-2.21858 9.28984,9.27148 8.65031,12.7808 -0.0185,0.10023 0.21283,0.018 0.31832,0.0251 0.4376,-0.28236 11.53652,-10.43676 12.70836,-9.92032 0.3891,0.17 -7.3247,10.11627 -3.38941,11.64146 0.37462,0.14674 6.38362,-4.9753 6.81775,-4.85291 1.14525,0.40963 -3.36412,6.12754 -2.32796,6.63165 0.90638,0.44199 5.398,-2.29645 6.38752,-1.66423 0.87466,0.55708 -1.75864,4.46619 -0.84281,5.15586 13.04804,9.82474 29.33893,32.26641 18.63106,44.81065 -5.77075,6.75976 -25.93745,11.45283 -34.11233,12.02584 -8.92252,0.62667 -36.7965,5.39491 -46.46332,-15.64685 -5.10762,-11.11803 5.84729,-31.18379 14.1804,-38.00099 1.06801,-0.87469 4.40793,-1.22973 3.75552,-2.86869 -5.10167,-12.83039 3.30946,-2.17853 5.3468,-3.20461 2.77437,-3.0303 3.21887,-6.14185 2.72587,-7.14073 -0.0336,-0.068 -0.95197,-1.33406 -0.57787,-1.49548 1.24216,-0.53755 2.92928,0.31229 4.62259,1.37665 1.86496,1.16996 3.74345,2.61551 5.08058,2.80162 1.8238,0.25445 -2.97344,-11.70426 -2.29574,-12.23933 0.25591,-0.20148 0.50702,-0.25964 0.78436,-0.21455 z"
         style="clip-rule:evenodd;fill:#dc9b65;fill-rule:evenodd;stroke:#000000;stroke-width:2.9468px;stroke-linecap:round;stroke-linejoin:round;stroke-miterlimit:4"
         id="path2355" />
      <path
         d="m 452.37306,29.96684 c 0.98679,-0.0966 -1.0523,-0.018 -1.32625,-0.0196 -1.46827,-0.0555 -2.87356,-0.018 -4.35178,0.12705 -3.51449,0.34375 -10.16498,0.85913 -7.35246,6.09407 1.67834,3.12407 7.64625,5.51283 10.88875,2.96622 1.76175,-1.38308 3.70456,-4.44791 3.86844,-6.64845 0.0567,-0.75391 0.004,-2.29823 -1.01706,-2.43904 -0.0655,-0.018 -1.42345,-0.018 -0.70964,-0.0805 z"
         style="clip-rule:evenodd;fill-rule:evenodd;stroke:#000000;stroke-width:2.9468px;stroke-linecap:round;stroke-linejoin:round;stroke-miterlimit:4"
         id="path2358" />
      <path
         d="m 489.33186,25.03503 c -4.08085,0.9724 -16.52405,8.11956 -17.45038,11.95425"
         style="clip-rule:evenodd;fill:none;fill-rule:evenodd;stroke:#000000;stroke-width:2.9468px;stroke-linecap:round;stroke-linejoin:round;stroke-miterlimit:4"
         id="path2361" />
      <path
         d="m 414.70661,40.30911 c -2.79069,-3.39016 -18.26323,-7.43294 -22.66204,-5.88989"
         style="clip-rule:evenodd;fill:none;fill-rule:evenodd;stroke:#000000;stroke-width:2.9468px;stroke-linecap:round;stroke-linejoin:round;stroke-miterlimit:4"
         id="path2364" />
      <path
         d="m 475.73643,44.18047 c 2.529,-2.28106 7.39701,-1.66635 10.32389,-0.67749 0.68831,0.23262 4.30945,2.31272 3.98396,2.40773"
         style="clip-rule:evenodd;fill:none;fill-rule:evenodd;stroke:#000000;stroke-width:2.9468px;stroke-linecap:round;stroke-linejoin:round;stroke-miterlimit:4"
         id="path2367" />
      <path
         d="m 414.38951,47.76033 c 1.32389,0.0501 -3.10579,-0.83873 -3.37098,-0.86952 -1.45261,-0.17 -2.57992,-0.24604 -4.01963,-0.2983 -6.00368,-0.22547 -10.51515,1.08657 -15.55946,4.02971"
         style="clip-rule:evenodd;fill:none;fill-rule:evenodd;stroke:#000000;stroke-width:2.9468px;stroke-linecap:round;stroke-linejoin:round;stroke-miterlimit:4"
         id="path2370" />
      <path
         d="m 453.99549,48.95299 c 1.64843,0.4907 -1.26376,8.12909 -2.41819,9.47352 -0.6959,0.80991 -8.51823,1.73524 -9.59114,1.18946 -0.90295,-0.45937 -2.12506,-8.85058 -1.53903,-9.0238 1.66132,-0.48996 12.68621,-1.89595 13.54836,-1.63918 z"
         style="clip-rule:evenodd;fill:#fafaf9;fill-rule:evenodd;stroke:#000000;stroke-width:2.94542px;stroke-linecap:round;stroke-linejoin:round;stroke-miterlimit:4"
         id="path2373" />
      <path
         d="m 447.35828,50.16735 c 0.19937,2.03822 0.41905,6.38575 -0.36607,8.33073"
         style="clip-rule:evenodd;fill:#fafaf9;fill-rule:evenodd;stroke:#000000;stroke-width:2.94542px;stroke-linecap:round;stroke-linejoin:round;stroke-miterlimit:4"
         id="path2376" />
      <path
         d="m 460.00074,43.99007 c -2.58419,3.58611 -6.24771,5.73223 -12.5729,6.42565 -4.92985,0.54025 -9.76315,0.19775 -14.25755,-3.12621"
         style="clip-rule:evenodd;fill:none;fill-rule:evenodd;stroke:#000000;stroke-width:2.9468px;stroke-linecap:round;stroke-linejoin:round;stroke-miterlimit:4"
         id="path2379" />
      <path
         d="m 464.2052,23.12924 c -0.11326,-1.15851 -1.21197,-1.99885 -2.45316,-1.87754 -1.24116,0.12171 -2.15611,1.15888 -2.04279,2.31738 0.11345,1.15959 1.21197,1.99885 2.45316,1.87754 1.24119,-0.12168 2.15625,-1.15763 2.04279,-2.31738 z"
         style="clip-rule:evenodd;fill-rule:evenodd;stroke:#000000;stroke-width:2.9468px;stroke-linecap:round;stroke-linejoin:round;stroke-miterlimit:4"
         id="path2385" />
      <path
         d="m 423.64733,27.49859 c -0.11649,-1.19036 -1.26952,-2.05126 -2.5773,-1.92333 -1.30776,0.12885 -2.27346,1.1961 -2.15705,2.38646 0.11634,1.18912 1.27074,2.04983 2.5785,1.92191 1.30778,-0.12885 2.27216,-1.1961 2.15585,-2.38504 z"
         style="clip-rule:evenodd;fill:#080500;fill-rule:evenodd;stroke:#000000;stroke-width:2.9468px;stroke-linecap:round;stroke-linejoin:round;stroke-miterlimit:4"
         id="path2388" />
      <path
         d="m 424.17782,65.33068 c 0.33761,0 4.56195,-0.41053 4.49043,-0.0805 -0.53216,2.47629 6.15556,9.51018 12.61581,8.77773 8.86068,-1.00282 10.06806,-7.42291 10.86914,-7.42291 h 17.61408 c 0.81541,0 5.27293,-0.72242 5.64488,-0.22603 0.35904,0.47924 -0.0286,13.80458 -0.45064,14.22654 -1.6923,1.6923 -7.4473,0.18164 -9.48438,-0.22458 -0.33044,-0.068 -0.75388,-0.7539 -0.90411,-0.45201 -0.10576,0.21312 0.12025,0.4649 0.22603,0.67659 1.31181,2.62498 6.78072,33.64449 5.76646,36.05779 -4.03407,9.60752 -62.77009,9.18987 -60.96336,1.0243 0.19455,-0.87971 0.36479,-2.52764 0.45207,-3.38748 0.71382,-7.14539 7.79492,-29.37158 6.87081,-30.75774 -0.36907,-0.55509 -7.61757,2.68656 -8.3557,1.58065 -0.96703,-1.45198 -3.89533,-18.25336 -3.16148,-18.74406 1.43483,-0.95557 13.30962,-0.90564 18.76996,-1.04862 z"
         style="clip-rule:evenodd;fill:#631b7f;fill-rule:evenodd;stroke:#000000;stroke-width:3.06134px;stroke-linecap:round;stroke-linejoin:round;stroke-miterlimit:10"
         id="path2405" />
      <path
         style="color:#000000;clip-rule:nonzero;fill:#fefdff;fill-rule:nonzero;stroke-width:1.78948;stroke-linecap:butt;stroke-linejoin:miter;stroke-miterlimit:10;-inkscape-stroke:none"
         d="m 444.08975,77.69328 c -3.80145,0.0429 -7.64693,1.40044 -11.10035,3.63836 -6.90682,4.47583 -12.48876,13.20742 -9.58699,23.08855 3.19463,10.87877 17.99812,16.84007 30.63433,9.91193 2.18509,-1.19878 2.54757,-3.00043 2.84149,-4.43164 0.29395,-1.43142 0.35057,-2.89325 0.33552,-4.38637 -0.0301,-2.98646 -0.40913,-6.03501 -0.70948,-7.87442 -0.20971,-1.28146 -1.08948,-2.1812 -1.69161,-2.57937 -0.60217,-0.39833 -1.05461,-0.52628 -1.45048,-0.62918 -0.79168,-0.20561 -1.42401,-0.24228 -2.11449,-0.26554 -1.38102,-0.0465 -2.91021,0.0519 -4.43876,0.19577 -1.52855,0.14314 -3.02038,0.3416 -4.1906,0.53469 -0.5851,0.0966 -1.07789,0.18593 -1.53086,0.29364 -0.22645,0.0537 -0.42703,0.10022 -0.7549,0.22011 -0.16391,0.0608 -0.34452,0.11273 -0.73748,0.35647 -0.19648,0.12168 -0.46302,0.28059 -0.83182,0.70953 -0.18439,0.21455 -0.39608,0.50927 -0.57669,0.9402 -0.0904,0.21545 -0.21995,0.74298 -0.22018,0.7444 -2.4e-4,0.003 -0.0455,0.88993 -0.0455,0.89136 0.15245,1.92834 1.83933,3.36796 3.76769,3.21532 1.74734,-0.54454 2.1181,-0.58121 5.77737,-0.93197 0.8972,-0.0841 1.60165,-0.0894 2.34868,-0.11094 0.16983,1.45003 0.3829,2.82184 0.39843,4.36184 0.0124,1.15549 -0.073,2.17316 -0.18875,2.78908 -8.86629,4.376 -18.32928,-0.57549 -19.90093,-5.92762 -1.91585,-6.52372 1.68474,-12.0006 6.6756,-15.23492 2.49542,-1.61713 5.27516,-2.48896 7.3711,-2.51296 2.09595,-0.0233 3.24523,0.50965 4.04382,1.77554 1.03179,1.63576 3.19426,2.12553 4.83015,1.0939 1.63581,-1.03182 2.12558,-3.19421 1.09397,-4.83016 -2.22726,-3.53028 -6.24684,-5.08695 -10.04832,-5.04346 z"
         id="path2408"
         sodipodi:nodetypes="csscsssssscsscssssccccccsscssccc" />
    </g>
  </g>
</svg>
