<?xml version="1.0" encoding="UTF-8"?>
<!-- Created with Inkscape (http://www.inkscape.org/) -->
<svg id="svg1361" width="133.06mm" height="19.498mm" version="1.1" viewBox="0 0 133.06 19.498" xmlns="http://www.w3.org/2000/svg">
 <g id="layer1" transform="translate(-2.8376 -37.293)">
  <g id="g3318" transform="translate(20.76 -127.81)">
   <g id="g2781" transform="translate(-76.172 82.669)">
    <path id="path2775" d="m185.56 87.412a.27914.27914 0 00-.2646.29223.27914.27914 0 00.29223.26605s.88169-.04179 1.8914.10035c1.0098.1421 2.1132.49088 2.5646 1.1238.47251.66258.74337 1.9871.69638 3.2144-.0235.61364-.12238 1.2042-.28931 1.6763-.16692.47209-.40351.81461-.66149.97262-.25645.15706-.49108.1429-.83014-.0031-.33907-.14581-.74259-.43873-1.1863-.78653-.8875-.69558-1.9438-1.6108-3.2522-1.9278-.8658-.20972-1.4989-.16239-2.1691-.02328-.67023.13912-1.3833.3608-2.518.52192a.27914.27914 0 00-.23843.31548.27914.27914 0 00.31693.23698c1.173-.16655 1.9226-.39689 2.5529-.52774s1.134-.17266 1.9249.01891c1.1321.27422 2.1364 1.1175 3.0385 1.8246.45107.35354.87518.67372 1.3099.86067.43471.18694.91924.2263 1.3433-.03345.42256-.2588.70328-.71959.89556-1.2634.19228-.5438.29464-1.1819.31984-1.8406.0504-1.3173-.191-2.7076-.79815-3.559-.62831-.881-1.8736-1.203-2.9426-1.3535-1.069-.15044-1.9961-.10614-1.9961-.10614z" style="-inkscape-stroke:none;color:#000000;fill:#000000;stroke-linecap:round;stroke-linejoin:round;stroke-width:.74436"/>
    <ellipse id="path1488-3-3-6-40-0-8-3-6-4-7-3" transform="matrix(-.93852 .34523 -.34522 -.93852 0 0)" cx="-131.71" cy="-147.62" rx="6.2549" ry="6.2551" style="fill:#f4ebe5;font-variation-settings:normal;paint-order:stroke fill markers;stop-color:#000000"/>
    <path id="path1488-2-5-7-2-05-8-6-1-1-07-6" d="m176.74 98.939a6.2551 6.2549 85.619 003.7061-8.0281 6.2551 6.2549 85.619 00-3.6032-3.6699 6.2551 6.2549 85.619 011.1066 1.894 6.2551 6.2549 85.619 01-3.711 8.0299 6.2551 6.2549 85.619 01-4.4265-.04128 6.2551 6.2549 85.619 006.9232 1.8172 6.2551 6.2549 85.619 00.005-.002z" style="fill:#f4dccc;font-variation-settings:normal;paint-order:stroke fill markers;stop-color:#000000"/>
    <ellipse id="path1538-3-0-0-6-0-2-8-7-6-5" transform="matrix(-.93852 .34523 -.34522 -.93852 0 0)" cx="-131.04" cy="-144.07" rx="1.3974" ry="1.3974" style="fill:#fcf8f5;font-variation-settings:normal;paint-order:stroke fill markers;stop-color:#000000"/>
    <ellipse id="path1488-0-5-3-11-8-4-5-9-0-0-47" transform="matrix(-.93852 .34523 -.34522 -.93852 0 0)" cx="-131.71" cy="-147.62" rx="6.2549" ry="6.2551" style="-inkscape-stroke:none;fill:none;font-variation-settings:normal;paint-order:stroke fill markers;stop-color:#000000;stroke-width:.11868;stroke:#000000"/>
    <path id="path1651-4-7-49-8" d="m168.77 92.173c-.16574.27882-.14744.46702-.12419.77201.0208.27386.0451.53865.0898.80902.0281.16954.24236.6444.49416.47958.47668-.31203.64211-1.7568.098-2.0392-.0882-.04575-.46472-.01403-.55781-.02145z" style="fill:#aba5a0;font-variation-settings:normal;paint-order:stroke fill markers;stop-color:#000000"/>
    <path id="path1651-5-0-0-9" d="m168.77 92.173c-.16574.27882-.14744.46702-.12419.77201.0208.27386.0451.53865.0898.80902.0281.16954.24236.6444.49416.47958.47668-.31203.64211-1.7568.098-2.0392-.0882-.04575-.46472-.01403-.55781-.02145z" style="fill:none;font-variation-settings:normal;paint-order:stroke fill markers;stop-color:#000000;stroke-width:.11868;stroke:#000000"/>
    <path id="path1920-05-69" d="m173.36 86.935a6.2551 6.2549 85.562 00-.0871.01779c-3.0507 3.8241 2.8119 8.0988-.27507 12.162l.15184.04443c5.1511-4.0775-2.1285-7.675.21464-12.152zm1.7552-.09425c3.6206 3.5322-1.4446 8.6066 2.0512 11.92a6.2551 6.2549 85.562 00.10903-.0547c-2.9012-4.0117 3.4975-8.59-1.825-11.825a6.2551 6.2549 85.562 00-.33527-.04067zm-4.9686 1.812a6.2551 6.2549 85.562 00-.5418.62153c.51512 2.7295 2.5661 5.5708.64752 8.32a6.2551 6.2549 85.562 00.13646.12661c3.7802-3.0952.47122-5.919-.24217-9.0682zm9.2995.50445c.43353 2.6468-1.242 5.6456-.21093 8.0743a6.2551 6.2549 85.562 00.33957-.41436c-.31311-1.8498.6376-3.7587.9809-5.5566a6.2551 6.2549 85.562 00-.11419-.34976 6.2551 6.2549 85.562 00-.99535-1.7536z" style="-inkscape-stroke:none;color:#000000;fill:#d35f5f;stroke-width:.59678"/>
    <path id="path1538-3-0-0-6-0-2-8-7-9-0-07" d="m172.64 88.576a1.3974 1.3974 85.629 00-.17223.02084c-.20509.90721-.0707 1.8335.18429 2.7705a1.3974 1.3974 85.629 00.54471-.08449 1.3974 1.3974 85.629 00.19927-.09222c-.33458-.84474-.56591-1.7083-.4935-2.6031a1.3974 1.3974 85.629 00-.26254-.01149z" style="fill:#e9afaf;font-variation-settings:normal;paint-order:stroke fill markers;stop-color:#000000"/>
    <path id="path1488-2-5-7-2-05-8-6-1-1-3-6-36" d="m179.45 89.157c.43353 2.6468-1.242 5.6456-.21093 8.0743a6.2551 6.2549 85.562 00.33957-.41436c-.31311-1.8498.6376-3.7587.9809-5.5566a6.2551 6.2549 85.562 00-.11419-.34976 6.2551 6.2549 85.648 00-.15589-.38153 6.2551 6.2549 85.562 00-.13027-.26843 6.2551 6.2549 85.648 00-.0494-.10015 6.2551 6.2549 85.562 00-.16365-.28846 6.2551 6.2549 85.648 00-.0381-.06548 6.2551 6.2549 85.562 00-.20429-.31042 6.2551 6.2549 85.648 00-.0146-.02145 6.2551 6.2549 85.562 00-.23747-.31562 6.2551 6.2549 85.648 00-.002-.002zm-2.9388 6.5493a6.2551 6.2549 85.648 01-.60304.53248c.10864.90688.45917 1.7611 1.2621 2.5222a6.2551 6.2549 85.562 00.10903-.0547c-.70557-.97564-.86024-1.9848-.76809-3zm-1.6173 1.1727a6.2551 6.2549 85.648 01-.6562.28539 6.2551 6.2549 85.648 01-.39441.12904c-.12226.61034-.38338 1.2183-.84159 1.8215l.15184.04443c.97823-.77435 1.5077-1.5313 1.7404-2.2804zm-4.4622.445c-.0539.08917-.11158.17821-.17356.26715a6.2551 6.2549 85.648 00.13599.12851c.1286-.10534.24817-.2104.36073-.31513a6.2551 6.2549 85.648 01-.32316-.08053z" style="fill:#ab5c5c;font-variation-settings:normal;paint-order:stroke fill markers;stop-color:#000000"/>
    <path id="path7076" d="m169.26 92.774c-1.7164.04362-3.5556.35271-5.3966.3969a.27914.27914 0 00-.27186.2864.27914.27914 0 00.28495.27187c1.8939-.04545 3.7397-.35479 5.3981-.3969a.27914.27914 0 00.27187-.2864.27914.27914 0 00-.28641-.27187z" style="-inkscape-stroke:none;color:#000000;fill:#000000;stroke-linecap:round;stroke-linejoin:round;stroke-width:.74436"/>
    <ellipse id="path1488-3-3-6-40-0-8-3-6-4-5-1" transform="matrix(-.92074 .39017 -.39016 -.92075 0 0)" cx="-110.65" cy="-147.75" rx="6.2549" ry="6.2551" style="fill:#f4ebe5;font-variation-settings:normal;paint-order:stroke fill markers;stop-color:#000000"/>
    <path id="path1488-2-5-7-2-05-8-6-1-1-07-7" d="m161.97 98.622a6.2551 6.2549 82.879 003.3139-8.1978 6.2551 6.2549 82.879 00-3.7763-3.4915 6.2551 6.2549 82.879 011.1968 1.8383 6.2551 6.2549 82.879 01-3.3187 8.1998 6.2551 6.2549 82.879 01-4.4233.17267 6.2551 6.2549 82.879 007.0029 1.4805 6.2551 6.2549 82.879 00.005-.002z" style="fill:#f4dccc;font-variation-settings:normal;paint-order:stroke fill markers;stop-color:#000000"/>
    <ellipse id="path1538-3-0-0-6-0-2-8-7-6-1" transform="matrix(-.92074 .39017 -.39016 -.92075 0 0)" cx="-109.98" cy="-144.2" rx="1.3974" ry="1.3974" style="fill:#fcf8f5;font-variation-settings:normal;paint-order:stroke fill markers;stop-color:#000000"/>
    <ellipse id="path1488-0-5-3-11-8-4-5-9-0-0-4-7" transform="matrix(-.92074 .39017 -.39016 -.92075 0 0)" cx="-110.65" cy="-147.75" rx="6.2549" ry="6.2551" style="-inkscape-stroke:none;fill:none;font-variation-settings:normal;paint-order:stroke fill markers;stop-color:#000000;stroke-width:.11868;stroke:#000000"/>
    <path id="path1651-4-7-49-38" d="m153.69 92.249c-.15207.2865-.1247.4736-.0867.77712.0341.27254.0711.53584.12882.80373.0362.16799.27322.63194.51676.45514.46105-.33468.55648-1.7857-.00064-2.0415-.0903-.04148-.46485.0081-.55819.0051z" style="fill:#aba5a0;font-variation-settings:normal;paint-order:stroke fill markers;stop-color:#000000"/>
    <path id="path1651-5-0-8" d="m153.69 92.249c-.15207.2865-.1247.4736-.0867.77712.0341.27253.0711.53584.12882.80373.0362.16799.27322.63194.51676.45514.46105-.33468.55648-1.7857-.00064-2.0415-.0903-.04148-.46485.0081-.55819.0051z" style="fill:none;font-variation-settings:normal;paint-order:stroke fill markers;stop-color:#000000;stroke-width:.11868;stroke:#000000"/>
    <path id="path1920-05-4" d="m158.02 86.795a6.2551 6.2549 82.792 00-.0861.02196c-2.8624 3.967 3.1999 7.9534.31291 12.162l.15381.03701c4.9481-4.3217-2.4968-7.5632-.37277-12.148zm1.7486-.1789c3.787 3.3531-1.027 8.6664 2.6248 11.807a6.2551 6.2549 82.792 00.10626-.05989c-3.0917-3.8669 3.0784-8.749-2.3942-11.723a6.2551 6.2549 82.792 00-.33684-.0244zm-4.8752 2.05a6.2551 6.2549 82.792 00-.51116.64698c.64642 2.7015 2.8323 5.4403 1.0488 8.279a6.2551 6.2549 82.792 00.14241.11988c3.6263-3.2742.18469-5.9349-.68003-9.0459zm9.313.0545c.56092 2.6228-.96779 5.699.17945 8.0751a6.2551 6.2549 82.792 00.31915-.43028c-.40213-1.8325.45525-3.7851.71128-5.5975a6.2551 6.2549 82.792 00-.13096-.34384 6.2551 6.2549 82.792 00-1.0789-1.7034z" style="-inkscape-stroke:none;color:#000000;fill:#d35f5f;stroke-width:.59678"/>
    <path id="path1538-3-0-0-6-0-2-8-7-9-0-5" d="m157.38 88.469a1.3974 1.3974 82.86 00-.17102.02918c-.16102.91606.018 1.8347.31793 2.7584a1.3974 1.3974 82.86 00.54-.11074 1.3974 1.3974 82.86 00.19457-.10173c-.375-.8276-.64779-1.679-.61869-2.5762a1.3974 1.3974 82.86 00-.26279.001z" style="fill:#e9afaf;font-variation-settings:normal;paint-order:stroke fill markers;stop-color:#000000"/>
    <path id="path1488-2-5-7-2-05-8-6-1-1-3-6-3-4" d="m164.21 88.72c.56092 2.6228-.96779 5.699.17945 8.0751a6.2551 6.2549 82.792 00.31915-.43028c-.40213-1.8325.45525-3.7851.71128-5.5975a6.2551 6.2549 82.792 00-.13096-.34384 6.2551 6.2549 82.878 00-.17415-.37356 6.2551 6.2549 82.792 00-.14307-.26182 6.2551 6.2549 82.878 00-.0542-.09761 6.2551 6.2549 82.792 00-.17738-.28022 6.2551 6.2549 82.878 00-.0412-.06355 6.2551 6.2549 82.792 00-.21904-.30019 6.2551 6.2549 82.878 00-.0157-.02074 6.2551 6.2549 82.792 00-.25244-.30378 6.2551 6.2549 82.878 00-.002-.002zm-2.6189 6.6837a6.2551 6.2549 82.878 01-.57661.561c.15233.90057.54373 1.7369 1.3825 2.4583a6.2551 6.2549 82.792 00.10626-.05989c-.75188-.9404-.95514-1.9409-.91214-2.9594zm-1.5587 1.2495a6.2551 6.2549 82.878 01-.64164.31676 6.2551 6.2549 82.878 01-.38771.14795c-.0926.61552-.32407 1.2354-.7526 1.8601l.15381.03701c.93968-.82071 1.432-1.6024 1.6281-2.3618zm-4.4355.66008c-.0495.09161-.10284.1834-.16045.27524a6.2551 6.2549 82.878 00.14204.12179c.12335-.11144.23771-.22215.34508-.3322a6.2551 6.2549 82.878 01-.32667-.06477z" style="fill:#ab5c5c;font-variation-settings:normal;paint-order:stroke fill markers;stop-color:#000000"/>
    <path id="path7078" d="m150.95 92.918a.27914.27914 0 00-.3053.25006.27914.27914 0 00.25006.3053c1.053.10324 2.1478.17739 3.2682.22825a.27914.27914 0 00.29222-.26606.27914.27914 0 00-.26605-.29222c-1.1125-.05053-2.1979-.12325-3.2392-.22534z" style="-inkscape-stroke:none;color:#000000;fill:#000000;stroke-linecap:round;stroke-linejoin:round;stroke-width:.74436"/>
    <ellipse id="path1488-3-3-6-40-0-8-3-7" transform="matrix(-.96204 .27289 -.27288 -.96205 0 0)" cx="-114.64" cy="-128.69" rx="6.2551" ry="6.2552" style="fill:#2ad4ff;font-variation-settings:normal;paint-order:stroke fill markers;stop-color:#000000"/>
    <path id="path1488-2-5-7-2-05-8-6-1-35" d="m147.12 98.539a6.2551 6.2553.013973 004.3057-7.7234 6.2551 6.2553.013973 00-3.3139-3.9333 6.2551 6.2553.013973 01.95942 1.9727 6.2551 6.2553.013973 01-4.3107 7.7248 6.2551 6.2553.013973 01-4.4107-.3776 6.2551 6.2553.013973 006.7652 2.3382 6.2551 6.2553.013973 00.005-.001z" style="fill:#22add0;font-variation-settings:normal;paint-order:stroke fill markers;stop-color:#000000"/>
    <ellipse id="path1538-3-0-0-6-0-2-8-42" transform="matrix(-.96204 .27289 -.27288 -.96205 0 0)" cx="-113.96" cy="-125.14" rx="1.3974" ry="1.3974" style="fill:#97eaff;font-variation-settings:normal;paint-order:stroke fill markers;stop-color:#000000"/>
    <ellipse id="path1488-0-5-3-11-8-4-5-9-894" transform="matrix(-.96204 .27289 -.27288 -.96205 0 0)" cx="-114.64" cy="-128.69" rx="6.2551" ry="6.2552" style="fill:none;font-variation-settings:normal;paint-order:stroke fill markers;stop-color:#000000;stroke-width:.11868;stroke:#000000"/>
    <path id="path1651-4-22" d="m139.69 91.187c-.18645.26541-.18252.45447-.18252.76036 0 .27467.004.54053.0281.81353.015.17119.19269.66098.4563.51577.49903-.27489.7738-1.7029.25272-2.0259-.0845-.05236-.46233-.04931-.55458-.06385z" style="fill:#17778e;font-variation-settings:normal;paint-order:stroke fill markers;stop-color:#000000"/>
    <path id="path1651-7" d="m139.69 91.187c-.18646.26541-.18253.45447-.18253.76036 0 .27467.004.54053.0281.81354.015.17118.19269.66097.4563.51576.49903-.27489.77381-1.7029.25272-2.0259-.0844-.05236-.46232-.04931-.55458-.06385z" style="fill:none;font-variation-settings:normal;paint-order:stroke fill markers;stop-color:#000000;stroke-width:.11868;stroke:#000000"/>
    <path id="path7070" d="m139.94 91.717c-2.1396.0913-4.135.41891-6.1962.80542a.27914.27914 0 00-.22389.32566.27914.27914 0 00.32711.22244c2.0532-.38498 4.0187-.70571 6.1163-.79524a.27914.27914 0 00.2675-.29077.27914.27914 0 00-.29076-.2675z" style="-inkscape-stroke:none;color:#000000;fill:#000000;stroke-linecap:round;stroke-linejoin:round;stroke-width:.74436"/>
    <ellipse id="path1488-3-3-6-40-0-8-3-6-4-4" transform="matrix(-.91433 .40498 -.40497 -.91433 0 0)" cx="-79.209" cy="-137.39" rx="6.2549" ry="6.2551" style="fill:#f4ebe5;font-variation-settings:normal;paint-order:stroke fill markers;stop-color:#000000"/>
    <path id="path1488-2-5-7-2-05-8-6-1-1-07-5-9" d="m130.6 99.261a6.2551 6.2549 81.931 003.1812-8.2502 6.2551 6.2549 81.931 00-3.8322-3.4301 6.2551 6.2549 81.931 011.2263 1.8187 6.2551 6.2549 81.931 01-3.1859 8.2523 6.2551 6.2549 81.931 01-4.42.24402 6.2551 6.2549 81.931 007.0259 1.3673 6.2551 6.2549 81.931 00.005-.002z" style="fill:#f4dccc;font-variation-settings:normal;paint-order:stroke fill markers;stop-color:#000000"/>
    <ellipse id="path1538-3-0-0-6-0-2-8-7-6-7-3" transform="matrix(-.91433 .40498 -.40497 -.91433 0 0)" cx="-78.532" cy="-133.84" rx="1.3974" ry="1.3974" style="fill:#fcf8f5;font-variation-settings:normal;paint-order:stroke fill markers;stop-color:#000000"/>
    <ellipse id="path1488-0-5-3-11-8-4-5-9-0-0-1" transform="matrix(-.91433 .40498 -.40497 -.91433 0 0)" cx="-79.209" cy="-137.39" rx="6.2549" ry="6.2551" style="-inkscape-stroke:none;fill:none;font-variation-settings:normal;paint-order:stroke fill markers;stop-color:#000000;stroke-width:.11868;stroke:#000000"/>
    <path id="path1651-4-7-49-5-6" d="m122.21 93.022c-.14743.28891-.11705.47555-.0742.77841.0384.27195.0797.53462.14178.80155.0389.16739.28338.62745.52404.44675.45558-.34209.52759-1.7945-.0336-2.0412-.0909-.03996-.46465.01586-.55802.01454z" style="fill:#aba5a0;font-variation-settings:normal;paint-order:stroke fill markers;stop-color:#000000"/>
    <path id="path1651-5-0-2-6" d="m122.21 93.022c-.14743.28891-.11705.47555-.0742.77841.0384.27195.0797.53462.14178.80155.0389.16739.28338.62745.52404.44675.45558-.34209.52758-1.7945-.0336-2.0412-.0909-.03996-.46465.01586-.55802.01454z" style="fill:none;font-variation-settings:normal;paint-order:stroke fill markers;stop-color:#000000;stroke-width:.11868;stroke:#000000"/>
    <path id="path1920-05-6" d="m126.46 87.499a6.2551 6.2549 81.867 00-.0858.02339c-2.798 4.0127 3.3278 7.9008.50913 12.155l.1544.0346c4.8777-4.4009-2.6186-7.5219-.56878-12.141zm1.7454-.2071c3.8406 3.2916-.88705 8.6818 2.815 11.764a6.2551 6.2549 81.867 00.10528-.06162c-3.1537-3.8165 2.9368-8.7975-2.5831-11.683a6.2551 6.2549 81.867 00-.33719-.01891zm-4.8415 2.1284a6.2551 6.2549 81.867 00-.50064.65515c.68992 2.6907 2.9197 5.3939 1.1822 8.261a6.2551 6.2549 81.867 00.14434.11757c3.573-3.3323.0889-5.9371-.82594-9.0337zm9.3127-.09578c.60317 2.6134-.87569 5.7139.30974 8.0711a6.2551 6.2549 81.867 00.31217-.43536c-.43165-1.8258.3941-3.792.62085-5.6083a6.2551 6.2549 81.867 00-.13649-.34168 6.2551 6.2549 81.867 00-1.1063-1.6858z" style="-inkscape-stroke:none;color:#000000;fill:#d35f5f;stroke-width:.59678"/>
    <path id="path1538-3-0-0-6-0-2-8-7-9-0-0" d="m125.84 89.184a1.3974 1.3974 81.935 00-.17053.03193c-.14622.91855.0476 1.8342.3624 2.7529a1.3974 1.3974 81.935 00.53814-.11944 1.3974 1.3974 81.935 00.19292-.10485c-.38831-.82144-.67481-1.6683-.66019-2.5659a1.3974 1.3974 81.935 00-.26274.0051z" style="fill:#e9afaf;font-variation-settings:normal;paint-order:stroke fill markers;stop-color:#000000"/>
    <path id="path1488-2-5-7-2-05-8-6-1-1-3-6-67" d="m132.67 89.325c.60317 2.6134-.87569 5.7139.30974 8.0711a6.2551 6.2549 81.867 00.31217-.43536c-.43165-1.8258.3941-3.792.62085-5.6083a6.2551 6.2549 81.867 00-.13649-.34168 6.2551 6.2549 81.954 00-.18015-.37069 6.2551 6.2549 81.867 00-.14729-.25949 6.2551 6.2549 81.954 00-.0557-.0968 6.2551 6.2549 81.867 00-.1819-.27732 6.2551 6.2549 81.954 00-.0422-.06284 6.2551 6.2549 81.867 00-.22387-.29662 6.2551 6.2549 81.954 00-.016-.02044 6.2551 6.2549 81.867 00-.25731-.29967 6.2551 6.2549 81.954 00-.002-.002zm-2.5107 6.725a6.2551 6.2549 81.954 01-.56749.57023c.16684.898.5717 1.7279 1.422 2.4357a6.2551 6.2549 81.867 00.10528-.06162c-.76697-.92814-.98633-1.9253-.95978-2.9443zm-1.5384 1.2745a6.2551 6.2549 81.954 01-.63646.32708 6.2551 6.2549 81.954 01-.38527.15418c-.0827.61695-.30409 1.2405-.72249 1.872l.1544.0346c.9263-.83577 1.4059-1.6253 1.5898-2.3878zm-4.4243.73158c-.048.09242-.0999.18503-.15598.27778a6.2551 6.2549 81.954 00.14398.11948c.12154-.11341.2341-.22595.33968-.33773a6.2551 6.2549 81.954 01-.32768-.05948z" style="fill:#ab5c5c;font-variation-settings:normal;paint-order:stroke fill markers;stop-color:#000000"/>
    <path id="path7080" d="m116.9 93.743a.27914.27914 0 00-.30384.25297.27914.27914 0 00.25296.30385c2.0228.18086 4.0203.29036 5.92.27187a.27914.27914 0 00.27623-.28205.27914.27914 0 00-.28205-.27622c-1.8744.0182-3.853-.09069-5.8633-.27042z" style="-inkscape-stroke:none;color:#000000;fill:#000000;stroke-linecap:round;stroke-linejoin:round;stroke-width:.74436"/>
    <ellipse id="path1488-3-3-6-40-0-8-3-6-4-8-8-6" transform="matrix(-.96204 .27289 -.27288 -.96205 0 0)" cx="-82.88" cy="-120.69" rx="6.2549" ry="6.2551" style="fill:#f4ebe5;font-variation-settings:normal;paint-order:stroke fill markers;stop-color:#000000"/>
    <path id="path1488-2-5-7-2-05-8-6-1-1-07-1" d="m114.38 99.508a6.2551 6.2549 89.995 004.3056-7.7232 6.2551 6.2549 89.995 00-3.3138-3.9332 6.2551 6.2549 89.995 01.95939 1.9726 6.2551 6.2549 89.995 01-4.3106 7.7246 6.2551 6.2549 89.995 01-4.4106-.37759 6.2551 6.2549 89.995 006.765 2.3382 6.2551 6.2549 89.995 00.005-.001z" style="fill:#f4dccc;font-variation-settings:normal;paint-order:stroke fill markers;stop-color:#000000"/>
    <ellipse id="path1538-3-0-0-6-0-2-8-7-6-2-1" transform="matrix(-.96204 .27289 -.27288 -.96205 0 0)" cx="-82.204" cy="-117.14" rx="1.3974" ry="1.3974" style="fill:#fcf8f5;font-variation-settings:normal;paint-order:stroke fill markers;stop-color:#000000"/>
    <ellipse id="path1488-0-5-3-11-8-4-5-9-0-0-6" transform="matrix(-.96204 .27289 -.27288 -.96205 0 0)" cx="-82.88" cy="-120.69" rx="6.2549" ry="6.2551" style="-inkscape-stroke:none;fill:none;font-variation-settings:normal;paint-order:stroke fill markers;stop-color:#000000;stroke-width:.11868;stroke:#000000"/>
    <path id="path1651-4-7-49-3" d="m106.95 92.157c-.18645.26541-.18252.45446-.18252.76034 0 .27466.004.54052.0281.8135.015.17119.19269.66096.45629.51576.49902-.27489.77378-1.7029.25272-2.0258-.0844-.05236-.46231-.04931-.55456-.06375z" style="fill:#aba5a0;font-variation-settings:normal;paint-order:stroke fill markers;stop-color:#000000"/>
    <path id="path1651-5-0-5" d="m106.95 92.157c-.18645.26541-.18251.45446-.18251.76034 0 .27466.004.54052.0281.8135.0151.17119.19269.66096.45628.51576.49902-.27489.77378-1.7029.25272-2.0258-.0844-.05236-.46231-.04931-.55456-.06375z" style="fill:none;font-variation-settings:normal;paint-order:stroke fill markers;stop-color:#000000;stroke-width:.11868;stroke:#000000"/>
    <path id="path1920-05-9" d="m111.93 87.283a6.2551 6.2549 89.921 00-.0881.01108c-3.3326 3.5811 2.1882 8.2891-1.1987 12.106l.14803.05582c5.4462-3.6742-1.5389-7.8146 1.1377-12.101zm1.7572.03945c3.3416 3.7972-2.0946 8.4719 1.1392 12.042a6.2551 6.2549 89.921 00.11287-.04626c-2.5879-4.2206 4.1403-8.2993-.92086-11.93a6.2551 6.2549 89.921 00-.33122-.06599zm-5.0919 1.4291a6.2551 6.2549 89.921 00-.58749.57855c.30616 2.7608 2.1353 5.7497.0132 8.3452a6.2551 6.2549 89.921 00.12644.13662c4.0046-2.7989.91975-5.8661.44779-9.0603zm9.2343 1.2098c.23111 2.6721-1.6675 5.5348-.82403 8.0349a6.2551 6.2549 89.921 00.37008-.38734c-.17161-1.8683.92145-3.6993 1.4004-5.466a6.2551 6.2549 89.921 00-.0872-.35743 6.2551 6.2549 89.921 00-.85919-1.8242z" style="-inkscape-stroke:none;color:#000000;fill:#d35f5f;stroke-width:.59678"/>
    <path id="path1538-3-0-0-6-0-2-8-7-9-0-8" d="m111.08 88.864a1.3974 1.3974 89.989 00-.17333.0081c-.27346.889-.20981 1.8228-.0268 2.7765a1.3974 1.3974 89.989 00.54956-.04291 1.3974 1.3974 89.989 00.2057-.07677c-.2694-.86774-.43443-1.7464-.2942-2.6331a1.3974 1.3974 89.989 00-.2609-.03142z" style="fill:#e9afaf;font-variation-settings:normal;paint-order:stroke fill markers;stop-color:#000000"/>
    <path id="path1488-2-5-7-2-05-8-6-1-1-3-6-6" d="m117.83 89.961c.23111 2.6721-1.6675 5.5348-.82403 8.0349a6.2551 6.2549 89.921 00.37008-.38734c-.17161-1.8683.92145-3.6993 1.4004-5.466a6.2551 6.2549 89.921 00-.0872-.35743 6.2549 6.2551.0069196 00-.12644-.39228 6.2551 6.2549 89.921 00-.10948-.27755 6.2549 6.2551.0069196 00-.0417-.10362 6.2551 6.2549 89.921 00-.14123-.30008 6.2549 6.2551.0069196 00-.033-.06812 6.2551 6.2549 89.921 00-.18011-.32505 6.2549 6.2551.0069196 00-.0129-.02247 6.2551 6.2549 89.921 00-.21279-.33276 6.2549 6.2551.0069196 00-.002-.002zm-3.4281 6.307a6.2549 6.2551.0069196 01-.64177.4851c.0395.91252.32399 1.7909 1.0667 2.6109a6.2551 6.2549 89.921 00.11287-.04626c-.62937-1.0264-.70688-2.0445-.53784-3.0497zm-1.7017 1.0464a6.2549 6.2551.0069196 01-.676.23469 6.2549 6.2551.0069196 01-.40308.09873c-.16829.59928-.47487 1.1857-.97761 1.7523l.14803.05582c1.0343-.69776 1.6197-1.4123 1.9087-2.1415zm-4.4831.10454c-.0605.0848-.12481.16922-.19337.25319a6.2549 6.2551.0069196 00.12583.13847c.13623-.09527.26345-.19094.38365-.28681a6.2549 6.2551.0069196 01-.31611-.10486z" style="fill:#ab5c5c;font-variation-settings:normal;paint-order:stroke fill markers;stop-color:#000000"/>
    <path id="path7072" d="m100.72 91.775a.27914.27914 0 00-.30094.25442.27914.27914 0 00.25442.30095c1.9453.16229 4.1554.45505 6.4957.77634a.27914.27914 0 00.31403-.23843.27914.27914 0 00-.23843-.31402c-2.342-.32153-4.5591-.61526-6.5248-.77926z" style="-inkscape-stroke:none;color:#000000;fill:#000000;stroke-linecap:round;stroke-linejoin:round;stroke-width:.74436"/>
    <ellipse id="path1488-3-3-6-40-0-8-3-3" transform="matrix(-.96204 .27289 -.27288 -.96205 0 0)" cx="-69.836" cy="-114.75" rx="6.2551" ry="6.2552" style="fill:#2ad4ff;font-variation-settings:normal;paint-order:stroke fill markers;stop-color:#000000"/>
    <path id="path1488-2-5-7-2-05-8-6-1-19" d="m100.21 97.353a6.2551 6.2553.013973 004.3057-7.7234 6.2551 6.2553.013973 00-3.3139-3.9333 6.2551 6.2553.013973 01.95942 1.9727 6.2551 6.2553.013973 01-4.3107 7.7248 6.2551 6.2553.013973 01-4.4107-.3776 6.2551 6.2553.013973 006.7652 2.3382 6.2551 6.2553.013973 00.005-.001z" style="fill:#22add0;font-variation-settings:normal;paint-order:stroke fill markers;stop-color:#000000"/>
    <ellipse id="path1538-3-0-0-6-0-2-8-8-1" transform="matrix(-.96204 .27289 -.27288 -.96205 0 0)" cx="-69.159" cy="-111.2" rx="1.3974" ry="1.3974" style="fill:#97eaff;font-variation-settings:normal;paint-order:stroke fill markers;stop-color:#000000"/>
    <ellipse id="path1488-0-5-3-11-8-4-5-9-8" transform="matrix(-.96204 .27289 -.27288 -.96205 0 0)" cx="-69.836" cy="-114.75" rx="6.2551" ry="6.2552" style="fill:none;font-variation-settings:normal;paint-order:stroke fill markers;stop-color:#000000;stroke-width:.11868;stroke:#000000"/>
    <path id="path1651-4-8-9" d="m92.78 90.001c-.18646.26542-.18252.45448-.18252.76036 0 .27467.0041.54054.02808.81354.01507.17119.19269.66097.4563.51577.49903-.2749.7738-1.7029.25272-2.0259-.08443-.05236-.46232-.04931-.55458-.06385z" style="fill:#17778e;font-variation-settings:normal;paint-order:stroke fill markers;stop-color:#000000"/>
    <path id="path1651-2-4" d="m92.78 90.001c-.18646.26542-.18252.45448-.18252.76036 0 .27467.0041.54054.02808.81354.01508.17119.19269.66098.4563.51577.49903-.2749.7738-1.7029.25272-2.0259-.08443-.05236-.46232-.04931-.55458-.06385z" style="fill:none;font-variation-settings:normal;paint-order:stroke fill markers;stop-color:#000000;stroke-width:.11868;stroke:#000000"/>
    <path id="path7066" d="m83.018 90.208a.27914.27914 0 00-.27478.2835.27914.27914 0 00.2835.27478c4.0501-.05989 6.9225.28078 10.085.69638a.27914.27914 0 00.31258-.23988.27914.27914 0 00-.23988-.31258c-3.167-.41616-6.0812-.76258-10.167-.7022z" style="-inkscape-stroke:none;color:#000000;fill:#000000;stroke-linecap:round;stroke-linejoin:round;stroke-width:.74436"/>
    <ellipse id="path1488-3-3-6-40-0-8-3-6-4-1" transform="matrix(-.93366 .35816 -.35814 -.93367 0 0)" cx="-44.636" cy="-114.39" rx="6.2549" ry="6.2551" style="fill:#f4ebe5;font-variation-settings:normal;paint-order:stroke fill markers;stop-color:#000000"/>
    <path id="path1488-2-5-7-2-05-8-6-1-1-07-20" d="m84.889 96.658a6.2551 6.2549 84.829 003.5949-8.0785 6.2551 6.2549 84.829 00-3.6535-3.6198 6.2551 6.2549 84.829 011.1326 1.8785 6.2551 6.2549 84.829 01-3.5998 8.0804 6.2551 6.2549 84.829 01-4.4267.01983 6.2551 6.2549 84.829 006.9476 1.7214 6.2551 6.2549 84.829 00.005-.002z" style="fill:#f4dccc;font-variation-settings:normal;paint-order:stroke fill markers;stop-color:#000000"/>
    <ellipse id="path1538-3-0-0-6-0-2-8-7-6-9" transform="matrix(-.93366 .35816 -.35814 -.93367 0 0)" cx="-43.959" cy="-110.84" rx="1.3974" ry="1.3974" style="fill:#fcf8f5;font-variation-settings:normal;paint-order:stroke fill markers;stop-color:#000000"/>
    <ellipse id="path1488-0-5-3-11-8-4-5-9-0-0-8" transform="matrix(-.93366 .35816 -.35814 -.93367 0 0)" cx="-44.636" cy="-114.39" rx="6.2549" ry="6.2551" style="-inkscape-stroke:none;fill:none;font-variation-settings:normal;paint-order:stroke fill markers;stop-color:#000000;stroke-width:.11868;stroke:#000000"/>
    <path id="path1651-4-7-49-386" d="m76.829 90.003c-.16188.28107-.14098.46901-.11352.77365.02466.27356.05254.53798.10099.80771.03038.16914.25124.64099.50074.47271.47232-.31858.61779-1.7655.06983-2.0403-.08878-.04453-.46487-.0081-.55805-.01373z" style="fill:#aba5a0;font-variation-settings:normal;paint-order:stroke fill markers;stop-color:#000000"/>
    <path id="path1651-5-0-1" d="m76.829 90.003c-.16188.28107-.14098.46901-.11352.77365.02466.27356.05255.53798.10099.80771.03038.16914.25124.64099.50074.47271.47232-.31858.61779-1.7655.06983-2.0403-.08878-.04453-.46487-.0081-.55805-.01373z" style="fill:none;font-variation-settings:normal;paint-order:stroke fill markers;stop-color:#000000;stroke-width:.11868;stroke:#000000"/>
    <path id="path1920-05-27" d="m81.349 84.702a6.2551 6.2549 84.77 00-.08685.01897c-2.9976 3.8659 2.9234 8.0592-.10709 12.165l.15244.0423c5.0943-4.1483-2.2342-7.6449.04681-12.154zm1.7537-.11843c3.669 3.4819-1.3256 8.6258 2.2156 11.891a6.2551 6.2549 84.77 00.10826-.05623c-2.9564-3.9713 3.3786-8.6375-1.9881-11.799a6.2551 6.2549 84.77 00-.3358-.03599zm-4.9431 1.8804a6.2551 6.2549 84.77 00-.53318.62896c.55277 2.7222 2.6428 5.5348.76236 8.3103a6.2551 6.2549 84.77 00.1382.12472c3.7371-3.1471.38944-5.9249-.36737-9.064zm9.3056.37599c.47005 2.6406-1.1639 5.6622-.09941 8.0765a6.2551 6.2549 84.77 00.33381-.419c-.33862-1.8453.58565-3.7671.90409-5.5696a6.2551 6.2549 84.77 00-.11901-.34816 6.2551 6.2549 84.77 00-1.0195-1.7397z" style="-inkscape-stroke:none;color:#000000;fill:#d35f5f;stroke-width:.59678"/>
    <path id="path1538-3-0-0-6-0-2-8-7-9-0-7" d="m80.647 86.353a1.3974 1.3974 84.838 00-.17193.02328c-.19255.90996-.04533 1.8343.22252 2.7677a1.3974 1.3974 84.838 00.54349-.09202 1.3974 1.3974 84.838 00.19798-.09496c-.34621-.84004-.58945-1.7003-.5294-2.596a1.3974 1.3974 84.838 00-.26267-.0081z" style="fill:#e9afaf;font-variation-settings:normal;paint-order:stroke fill markers;stop-color:#000000"/>
    <path id="path1488-2-5-7-2-05-8-6-1-1-3-6-8-4" d="m87.465 86.84c.47005 2.6406-1.1639 5.6622-.09941 8.0765a6.2551 6.2549 84.77 00.33381-.419c-.33862-1.8453.58565-3.7671.90409-5.5696a6.2551 6.2549 84.77 00-.11901-.34816 6.2551 6.2549 84.857 00-.16115-.37934 6.2551 6.2549 84.77 00-.13395-.26661 6.2551 6.2549 84.857 00-.05077-.09944 6.2551 6.2549 84.77 00-.16761-.28618 6.2551 6.2549 84.857 00-.03898-.06497 6.2551 6.2549 84.77 00-.20856-.30757 6.2551 6.2549 84.857 00-.01492-.02125 6.2551 6.2549 84.77 00-.2418-.31232 6.2551 6.2549 84.857 00-.0017-.002zm-2.8481 6.5893a6.2551 6.2549 84.857 01-.59563.54076c.12115.9053.48345 1.7546 1.2968 2.5046a6.2551 6.2549 84.77 00.10826-.05623c-.71897-.96579-.88756-1.9728-.80944-2.9891zm-1.6009 1.1949a6.2551 6.2549 84.857 01-.6522.29442 6.2551 6.2549 84.857 01-.39258.13448c-.11382.61196-.36652 1.2235-.81636 1.833l.15244.0423c.96745-.78779 1.4864-1.552 1.7087-2.3042zm-4.4557.50658c-.05263.08988-.10911.17973-.16985.26952a6.2551 6.2549 84.857 00.13775.12662c.12713-.1071.24525-.21381.35635-.32008a6.2551 6.2549 84.857 01-.32424-.07605z" style="fill:#ab5c5c;font-variation-settings:normal;paint-order:stroke fill markers;stop-color:#000000"/>
    <path id="path7068" d="m77.146 90.615c-1.148.11519-2.3511.24798-3.5692.39254a.27914.27914 0 00-.24424.31112.27914.27914 0 00.30967.24424c1.2154-.14424 2.4152-.27776 3.559-.39254a.27914.27914 0 00.25006-.30676.27914.27914 0 00-.30531-.24861z" style="-inkscape-stroke:none;color:#000000;fill:#000000;stroke-linecap:round;stroke-linejoin:round;stroke-width:.74436"/>
    <ellipse id="path1488-3-3-6-40-0-8-3-0-0" transform="matrix(-.96204 .27289 -.27288 -.96205 0 0)" cx="-40.623" cy="-108.31" rx="6.2551" ry="6.2552" style="fill:#2ad4ff;font-variation-settings:normal;paint-order:stroke fill markers;stop-color:#000000"/>
    <path id="path1488-2-5-7-2-05-8-6-1-3-4" d="m70.348 99.127a6.2551 6.2553.013973 004.3057-7.7234 6.2551 6.2553.013973 00-3.3139-3.9333 6.2551 6.2553.013973 01.95942 1.9727 6.2551 6.2553.013973 01-4.3107 7.7248 6.2551 6.2553.013973 01-4.4107-.3776 6.2551 6.2553.013973 006.7652 2.3382 6.2551 6.2553.013973 00.0051-.001z" style="fill:#22add0;font-variation-settings:normal;paint-order:stroke fill markers;stop-color:#000000"/>
    <ellipse id="path1538-3-0-0-6-0-2-8-0-1" transform="matrix(-.96204 .27289 -.27288 -.96205 0 0)" cx="-39.947" cy="-104.76" rx="1.3974" ry="1.3974" style="fill:#97eaff;font-variation-settings:normal;paint-order:stroke fill markers;stop-color:#000000"/>
    <ellipse id="path1488-0-5-3-11-8-4-5-9-89" transform="matrix(-.96204 .27289 -.27288 -.96205 0 0)" cx="-40.623" cy="-108.31" rx="6.2551" ry="6.2552" style="fill:none;font-variation-settings:normal;paint-order:stroke fill markers;stop-color:#000000;stroke-width:.11868;stroke:#000000"/>
    <path id="path1651-4-5-7" d="m62.918 91.775c-.18646.26542-.18252.45448-.18252.76036 0 .27468.0041.54054.02808.81354.01507.17119.19269.66098.4563.51577.49903-.2749.7738-1.7029.25272-2.0259-.08443-.05236-.46232-.04931-.55458-.06385z" style="fill:#17778e;font-variation-settings:normal;paint-order:stroke fill markers;stop-color:#000000"/>
    <path id="path1651-1-1" d="m62.918 91.775c-.18646.26542-.18252.45448-.18252.76036 0 .27468.0041.54054.02808.81354.01507.17119.19269.66098.4563.51577.49903-.2749.7738-1.7029.25272-2.0259-.08443-.05236-.46232-.04931-.55458-.06385z" style="fill:none;font-variation-settings:normal;paint-order:stroke fill markers;stop-color:#000000;stroke-width:.11868;stroke:#000000"/>
    <path id="path7074" d="m63.102 92.416c-2.7523.40476-4.6159.70366-4.6159.70366a.27914.27914 0 00-.23261.31839.27914.27914 0 00.31984.23261s1.8609-.29789 4.6101-.7022a.27914.27914 0 00.23552-.31693.27914.27914 0 00-.31694-.23552z" style="-inkscape-stroke:none;color:#000000;fill:#000000;stroke-linecap:round;stroke-linejoin:round;stroke-width:.74436"/>
   </g>
  </g>
 </g>
</svg>
