<?xml version="1.0" encoding="UTF-8" standalone="no"?>
<!-- Created with Inkscape (http://www.inkscape.org/) -->

<svg
   width="59.255157mm"
   height="59.255157mm"
   viewBox="0 0 59.255157 59.255157"
   version="1.1"
   id="svg40417"
   sodipodi:docname="2022-KR-06-taskbody_round3.svg"
   inkscape:version="1.1.1 (3bf5ae0d25, 2021-09-20)"
   xmlns:inkscape="http://www.inkscape.org/namespaces/inkscape"
   xmlns:sodipodi="http://sodipodi.sourceforge.net/DTD/sodipodi-0.dtd"
   xmlns="http://www.w3.org/2000/svg"
   xmlns:svg="http://www.w3.org/2000/svg">
  <sodipodi:namedview
     id="namedview40419"
     pagecolor="#ffffff"
     bordercolor="#666666"
     borderopacity="1.0"
     inkscape:pageshadow="2"
     inkscape:pageopacity="0.0"
     inkscape:pagecheckerboard="0"
     inkscape:document-units="mm"
     showgrid="false"
     inkscape:zoom="0.33184273"
     inkscape:cx="253.13196"
     inkscape:cy="55.7493"
     inkscape:window-width="1680"
     inkscape:window-height="1027"
     inkscape:window-x="1912"
     inkscape:window-y="-8"
     inkscape:window-maximized="1"
     inkscape:current-layer="layer1" />
  <defs
     id="defs40414" />
  <g
     inkscape:label="Ebene 1"
     inkscape:groupmode="layer"
     id="layer1"
     transform="translate(-20.191482,-32.339995)">
    <g
       transform="matrix(0.13851387,0,0,0.13851387,-956.66483,-276.92434)"
       id="g1978"
       style="clip-rule:evenodd;fill-rule:evenodd;stroke-linecap:round;stroke-linejoin:round;stroke-miterlimit:1.5">
      <g
         aria-label="3"
         id="text1976"
         style="font-size:388.683px;font-family:'Comic Sans MS';-inkscape-font-specification:'Comic Sans MS, Normal'">
        <path
           d="m 7264.5011,2595.8003 q -28.6578,0 -51.4322,-11.9566 -25.6212,-13.8544 -34.5412,-38.9063 -1.1387,-3.4161 -1.1387,-6.6425 0,-7.5915 5.6936,-12.5259 5.8834,-5.1243 13.4749,-5.1243 7.5914,0 13.0953,7.0222 l 8.7301,13.0952 q 6.8324,9.2996 18.4093,14.0442 11.577,4.5549 27.7089,4.5549 20.6867,0 36.2492,-12.9055 16.5115,-13.6646 16.5115,-33.4024 0,-28.6578 -21.0663,-45.7386 -18.5991,-14.8034 -49.3446,-18.0297 -21.0663,-2.0877 -21.0663,-17.0808 0,-11.1974 16.5115,-17.0808 l 45.359,-11.1974 q 13.0952,-4.7447 19.7378,-12.7157 6.6425,-8.1609 6.8323,-19.7378 0.3796,-16.7013 -12.9055,-26.9497 -13.8544,-10.6281 -38.9063,-10.6281 -12.9055,0 -25.0518,6.263 l -21.4459,13.4748 q -6.2629,3.9855 -10.0587,3.9855 -7.5914,0 -13.0953,-5.6936 -5.314,-5.8833 -5.314,-13.285 0,-14.9932 29.0374,-28.8476 25.2416,-12.3361 41.5632,-12.3361 40.8042,0 64.7173,18.0297 25.6212,19.3582 25.6212,55.2279 0,44.5999 -36.0595,58.8339 -3.2264,1.3285 -7.4017,2.657 25.2417,9.2995 37.7676,27.8986 12.5259,18.4093 12.5259,46.1182 0,37.3879 -26.3803,63.5785 -26.3804,26.0008 -64.3377,26.0008 z"
           style="-inkscape-font-specification:'Comic Sans MS, Normal'"
           id="path37112" />
      </g>
    </g>
    <g
       transform="matrix(0.15039419,0,0,0.15039419,-1038.4062,-305.98235)"
       id="g1990"
       style="clip-rule:evenodd;fill-rule:evenodd;stroke-linecap:round;stroke-linejoin:round;stroke-miterlimit:1.5">
      <circle
         cx="7235.8198"
         cy="2446.5701"
         r="183.80499"
         style="fill:none;stroke:#000000;stroke-width:26.389;stroke-linecap:butt;stroke-miterlimit:2;stroke-dasharray:none"
         id="circle1988" />
    </g>
  </g>
</svg>
