<?xml version="1.0" encoding="UTF-8" standalone="no"?>
<!-- Created with Inkscape (http://www.inkscape.org/) -->

<svg
   width="88.622032mm"
   height="50.44075mm"
   viewBox="0 0 88.622032 50.440749"
   version="1.1"
   id="svg1315"
   inkscape:version="1.1.1 (3bf5ae0d25, 2021-09-20)"
   sodipodi:docname="2022-AU-03-explanation03.svg"
   xmlns:inkscape="http://www.inkscape.org/namespaces/inkscape"
   xmlns:sodipodi="http://sodipodi.sourceforge.net/DTD/sodipodi-0.dtd"
   xmlns="http://www.w3.org/2000/svg"
   xmlns:svg="http://www.w3.org/2000/svg">
  <sodipodi:namedview
     id="namedview1317"
     pagecolor="#ffffff"
     bordercolor="#666666"
     borderopacity="1.0"
     inkscape:pageshadow="2"
     inkscape:pageopacity="0.0"
     inkscape:pagecheckerboard="0"
     inkscape:document-units="mm"
     showgrid="false"
     inkscape:zoom="0.93859299"
     inkscape:cx="244.51493"
     inkscape:cy="237.05696"
     inkscape:window-width="1680"
     inkscape:window-height="1027"
     inkscape:window-x="1912"
     inkscape:window-y="-8"
     inkscape:window-maximized="1"
     inkscape:current-layer="layer1"
     fit-margin-top="0"
     fit-margin-left="0"
     fit-margin-right="0"
     fit-margin-bottom="0" />
  <defs
     id="defs1312" />
  <g
     inkscape:label="Ebene 1"
     inkscape:groupmode="layer"
     id="layer1"
     transform="translate(11.500086,-23.834662)">
    <g
       transform="matrix(0.89615961,0,0,0.89615961,-426.60007,-560.41271)"
       id="g1466"
       style="clip-rule:evenodd;fill-rule:evenodd;stroke-linecap:round;stroke-linejoin:round;stroke-miterlimit:1.5" />
    <g
       id="g2659"
       transform="translate(0,14.371817)">
      <g
         transform="matrix(0.26458333,0,0,0.26458333,-62.721264,-88.411927)"
         id="g1820"
         style="clip-rule:evenodd;fill-rule:evenodd;stroke-linecap:round;stroke-linejoin:round;stroke-miterlimit:1.5">
        <g
           transform="matrix(3.38706,0,0,3.38706,-1375.29,-1783.94)"
           id="g1792">
          <path
             d="m 556.246,692.194 c -0.387,-4.114 2.758,-10.262 -5.842,-13.335 -20.161,-7.203 -64.765,-7.774 -82.927,0.693 -5.133,2.393 -4.193,9.072 -4.237,12.642 z"
             style="fill:#dd9228"
             id="path1790" />
        </g>
        <g
           transform="rotate(102.72653,351.4664,529.03711)"
           id="g1818">
          <g
             transform="matrix(3.38706,0,0,3.38706,-1342.11,-1763.04)"
             id="g1796">
            <circle
               cx="471.98199"
               cy="641.16699"
               r="11.429"
               style="fill:#7f4f1f"
               id="circle1794" />
          </g>
          <g
             transform="matrix(5.4435,-4.31529,3.28289,4.1412,-4576.48,-179.567)"
             id="g1800">
            <path
               d="m 496.068,654.626 c 0,-1.264 -0.781,-2.29 -1.742,-2.29 h -3.485 c -0.961,0 -1.742,1.026 -1.742,2.29 v 31.467 c 0,1.264 0.781,2.29 1.742,2.29 h 3.485 c 0.961,0 1.742,-1.026 1.742,-2.29 z"
               style="fill:#ebebeb"
               id="path1798" />
          </g>
          <g
             transform="matrix(3.38706,0,0,3.38706,-1375.29,-1783.94)"
             id="g1804">
            <path
               d="m 481.79,641.324 c -0.063,0.043 -0.125,0.089 -0.186,0.138 l -5.6,4.439 c -1.546,1.225 -1.806,3.474 -0.581,5.02 l 30.499,38.473 c 1.226,1.545 3.475,1.805 5.02,0.58 l 1.105,-0.876 c -1.535,1.065 -3.656,0.766 -4.833,-0.718 l -30.499,-38.473 c -1.225,-1.546 -0.965,-3.795 0.58,-5.02 z"
               style="fill:#ffffff"
               id="path1802" />
          </g>
          <g
             transform="matrix(3.38706,0,0,3.38706,-1375.29,-1783.94)"
             id="g1808">
            <path
               d="m 482.691,640.872 c 0.638,0.211 1.223,0.605 1.671,1.17 l 30.5,38.473 c 1.225,1.545 3.226,3.795 1.68,5.02 1.546,-1.225 1.806,-3.475 0.581,-5.02 l -30.5,-38.473 c -0.959,-1.21 -2.546,-1.632 -3.932,-1.17 z"
               style="fill:#d1d1d1"
               id="path1806" />
          </g>
          <g
             transform="matrix(1.69353,0,0,1.69353,-606.491,-750.691)"
             id="g1812">
            <circle
               cx="509.59201"
               cy="684.55701"
               r="5.4920001"
               style="fill:#808080"
               id="circle1810" />
          </g>
          <g
             transform="matrix(0.846764,0,0,0.846764,-80.2619,-50.6055)"
             id="g1816">
            <circle
               cx="509.59201"
               cy="684.55701"
               r="5.4920001"
               style="fill:#808080"
               id="circle1814" />
          </g>
        </g>
      </g>
    </g>
  </g>
</svg>
