<?xml version="1.0" encoding="UTF-8" standalone="no"?>
<svg
   width="341.86423"
   height="290.48465"
   viewBox="0 0 341.86423 290.48465"
   version="1.1"
   xml:space="preserve"
   style="clip-rule:evenodd;fill-rule:evenodd;stroke-linecap:round;stroke-linejoin:round"
   id="svg56"
   sodipodi:docname="2022-SK-04-taskbody.svg"
   inkscape:version="1.1.1 (3bf5ae0d25, 2021-09-20)"
   xmlns:inkscape="http://www.inkscape.org/namespaces/inkscape"
   xmlns:sodipodi="http://sodipodi.sourceforge.net/DTD/sodipodi-0.dtd"
   xmlns="http://www.w3.org/2000/svg"
   xmlns:svg="http://www.w3.org/2000/svg"><defs
   id="defs60" /><sodipodi:namedview
   id="namedview58"
   pagecolor="#ffffff"
   bordercolor="#666666"
   borderopacity="1.0"
   inkscape:pageshadow="2"
   inkscape:pageopacity="0.0"
   inkscape:pagecheckerboard="0"
   showgrid="false"
   inkscape:zoom="2.7771707"
   inkscape:cx="187.601"
   inkscape:cy="92.000108"
   inkscape:window-width="1680"
   inkscape:window-height="1027"
   inkscape:window-x="2040"
   inkscape:window-y="22"
   inkscape:window-maximized="1"
   inkscape:current-layer="svg56" />
    <g
   id="path6"
   transform="translate(4.5672816,-2.0578328)">
        <path
   d="M 224.731,22.999 295.819,94.46 295.554,195.257 224.092,266.345 123.295,266.079 52.208,194.618 52.473,93.821 123.934,22.733 Z"
   style="fill:#3389f4;fill-rule:nonzero"
   id="path2" />
    </g>
    <g
   id="line8"
   transform="translate(4.5672816,-2.0578328)">
        <path
   d="m 123.892,22.412 99.635,244.066"
   style="fill:none;fill-rule:nonzero;stroke:#a3c0e4;stroke-width:2px;stroke-dasharray:8, 8"
   id="path5" />
    </g>
    <g
   id="line10"
   transform="translate(4.5672816,-2.0578328)">
        <path
   d="M 224.337,22.412 124.297,266.073"
   style="fill:none;fill-rule:nonzero;stroke:#a3c0e4;stroke-width:2px;stroke-dasharray:8, 8"
   id="path8" />
    </g>
    <g
   id="line12"
   transform="translate(4.5672816,-2.0578328)">
        <path
   d="M 295.742,94.627 51.676,194.263"
   style="fill:none;fill-rule:nonzero;stroke:#a3c0e4;stroke-width:2px;stroke-dasharray:8, 8"
   id="path11" />
    </g>
    <g
   id="line14"
   transform="translate(4.5672816,-2.0578328)">
        <path
   d="M 295.742,195.073 52.081,95.032"
   style="fill:none;fill-rule:nonzero;stroke:#a3c0e4;stroke-width:2px;stroke-dasharray:8, 8"
   id="path14" />
    </g>
    <g
   id="circle16"
   transform="translate(4.5672816,-2.0578328)">
        <circle
   cx="173.888"
   cy="144.597"
   r="4.895"
   style="fill:#21223b;fill-opacity:1"
   id="circle17" />
    </g>
    <g
   id="path18"
   transform="translate(4.5672816,-2.0578328)">
        <path
   d="m 197.57,140.527 c 2.704,17.874 -14.957,31.973 -31.789,25.377 -7.811,-3.061 -13.397,-10.057 -14.651,-18.354 -0.711,-4.702 -0.014,-9.144 1.709,-13.016 l -0.738,1.882 3.63,1.422 c -3.083,9.338 1.182,20.416 11.469,24.447 6.518,2.555 13.905,1.438 19.377,-2.931 11.525,-9.2 9.089,-27.223 -4.147,-33.172 l 1.419,-3.621 c 7.322,3.238 12.516,10.004 13.721,17.966 z"
   style="fill:#ffffff;fill-rule:nonzero"
   id="path20" />
    </g>
    <g
   id="g25"
   transform="translate(4.5672816,-2.0578328)">
        <path
   d="m 155.219,125.64 5.37,14.726 -15.439,-2.712 z"
   style="fill:#ffffff;fill-rule:nonzero"
   id="path23" />
    </g>
    <g
   id="path22"
   transform="translate(4.5672816,-2.0578328)">
        <path
   d="m 172.593,144.358 40.347,-100.113 -6.081,-2.451 13.516,-11.071 2.063,17.35 -6.08,-2.451 -40.347,100.114 z"
   style="fill:#21223b;fill-rule:nonzero;fill-opacity:1"
   id="path27" />
    </g>
    <g
   id="text24"
   transform="translate(97.198782,15.202856)">
        <text
   x="0"
   y="0"
   style="font-size:19.5px;font-family:ArialRoundedMTBold, 'Arial Rounded MT Bold', sans-serif;fill:#21223b;fill-opacity:1"
   id="text30">WXYZ</text>
    </g>
    <g
   id="text26"
   transform="translate(209.84578,14.472656)">
        <text
   x="0"
   y="0"
   style="font-size:19.5px;font-family:ArialRoundedMTBold, 'Arial Rounded MT Bold', sans-serif;fill:#21223b;fill-opacity:1"
   id="text33">ABC</text>
    </g>
    <g
   id="text28"
   transform="translate(304.44478,95.178956)">
        <text
   x="0"
   y="0"
   style="font-size:19.5px;font-family:ArialRoundedMTBold, 'Arial Rounded MT Bold', sans-serif;fill:#21223b;fill-opacity:1"
   id="text36">DEF</text>
    </g>
    <g
   id="g41"
   transform="translate(303.75078,199.83486)">
        <text
   x="0"
   y="0"
   style="font-size:19.5px;font-family:ArialRoundedMTBold, 'Arial Rounded MT Bold', sans-serif;fill:#21223b;fill-opacity:1"
   id="text39">GHI</text>
    </g>
    <g
   id="text32"
   transform="translate(10.444282,97.447856)">
        <text
   x="0"
   y="0"
   style="font-size:19.5px;font-family:ArialRoundedMTBold, 'Arial Rounded MT Bold', sans-serif;fill:#21223b;fill-opacity:1"
   id="text43">TUV</text>
    </g>
    <g
   id="text34"
   transform="translate(-1.9138184,199.40486)">
        <text
   x="0"
   y="0"
   style="font-size:19.5px;font-family:ArialRoundedMTBold, 'Arial Rounded MT Bold', sans-serif;fill:#21223b;fill-opacity:1"
   id="text46">PQRS</text>
    </g>
    <g
   id="g51"
   transform="translate(104.72178,286.30386)">
        <text
   x="0"
   y="0"
   style="font-size:19.5px;font-family:ArialRoundedMTBold, 'Arial Rounded MT Bold', sans-serif;fill:#21223b;fill-opacity:1"
   id="text49">MNO</text>
    </g>
    <g
   id="text38"
   transform="translate(208.55378,286.58086)">
        <text
   x="0"
   y="0"
   style="font-size:19.5px;font-family:ArialRoundedMTBold, 'Arial Rounded MT Bold', sans-serif;fill:#21223b;fill-opacity:1"
   id="text53">JKL</text>
    </g>
</svg>
