<?xml version="1.0" encoding="UTF-8" standalone="no"?>
<!-- Created with Inkscape (http://www.inkscape.org/) -->

<svg
   width="99.969093mm"
   height="40.310215mm"
   viewBox="0 0 99.969093 40.310215"
   version="1.1"
   id="svg1874"
   inkscape:version="1.1.1 (3bf5ae0d25, 2021-09-20)"
   sodipodi:docname="2022-MK-01-explanation03-box.svg"
   xmlns:inkscape="http://www.inkscape.org/namespaces/inkscape"
   xmlns:sodipodi="http://sodipodi.sourceforge.net/DTD/sodipodi-0.dtd"
   xmlns="http://www.w3.org/2000/svg"
   xmlns:svg="http://www.w3.org/2000/svg">
  <sodipodi:namedview
     id="namedview1876"
     pagecolor="#ffffff"
     bordercolor="#666666"
     borderopacity="1.0"
     inkscape:pageshadow="2"
     inkscape:pageopacity="0.0"
     inkscape:pagecheckerboard="0"
     inkscape:document-units="mm"
     showgrid="false"
     inkscape:zoom="0.66368547"
     inkscape:cx="275.73302"
     inkscape:cy="360.86371"
     inkscape:window-width="1680"
     inkscape:window-height="1027"
     inkscape:window-x="1912"
     inkscape:window-y="-8"
     inkscape:window-maximized="1"
     inkscape:current-layer="layer1" />
  <defs
     id="defs1871" />
  <g
     inkscape:label="Ebene 1"
     inkscape:groupmode="layer"
     id="layer1"
     transform="translate(-30.942969,-53.197911)">
    <g
       transform="matrix(0.26458333,0,0,0.26458333,-332.26037,-302.22402)"
       id="g2240"
       style="clip-rule:evenodd;fill-rule:evenodd;stroke-linecap:round;stroke-linejoin:round;stroke-miterlimit:1.5">
      <g
         transform="matrix(0.493,0,0,0.282349,1071.94,1106.55)"
         id="g1710">
        <path
           d="m 1376.53,853.462 c 0,-8.201 -3.82,-14.859 -8.51,-14.859 H 618.646 c -4.697,0 -8.51,6.658 -8.51,14.859 v 509.868 c 0,8.2 3.813,14.86 8.51,14.86 h 749.374 c 4.69,0 8.51,-6.66 8.51,-14.86 z"
           style="fill:#995e26"
           id="path1708" />
      </g>
      <g
         transform="translate(1087.73,-503.733)"
         id="g1714">
        <path
           d="m 413.381,1999.41 h -95.135 v -152.35 h 95.135 z m 107.087,0 h -95.136 v -152.35 h 95.136 z m 107.542,0 h -95.136 v -152.35 h 95.136 z"
           style="fill:#57300b"
           id="path1712" />
      </g>
      <g
         transform="translate(1087.73,-503.733)"
         id="g1718">
        <path
           d="m 318.246,1990.07 c -11.221,1.1 -22.262,2.83 -33.233,4.42 v 0.72 c 0,0.08 0.002,0.16 0.006,0.24 10.97,-1.6 22.009,-3.33 33.227,-4.43 z m 309.764,0.9 v 0.93 c 11.929,-0.01 23.67,0.44 31.919,0.44 l 2.914,0.01 v -0.95 h -2.914 c -8.255,0 -19.985,-0.44 -31.919,-0.43 z m -214.629,-1.9 v 0.94 c 3.992,0.17 7.976,0.36 11.951,0.57 v -0.95 c -3.976,-0.2 -7.96,-0.39 -11.951,-0.56 z m 107.087,-9.59 v 1.02 c 4.012,1.25 8.129,2.46 12.406,3.65 v -1 c -4.276,-1.19 -8.392,-2.41 -12.406,-3.67 z m -235.455,-30.66 v 1.01 c 3.07,0.94 6.067,2.04 8.754,3.29 6.486,3.02 11.193,6.95 10.486,11.86 -0.746,5.18 -5.294,8.21 -10.945,10.07 -2.612,0.86 -5.46,1.48 -8.295,1.93 v 0.96 c 2.994,-0.47 6.013,-1.11 8.774,-2.02 6.059,-2 10.878,-5.28 11.678,-10.84 0.757,-5.25 -4.128,-9.53 -11.067,-12.77 -2.873,-1.33 -6.095,-2.5 -9.385,-3.49 z m 342.997,10.01 v 0.95 c 11.613,1.3 23.219,2.59 34.833,3.81 v -0.95 c -11.617,-1.22 -23.226,-2.51 -34.833,-3.81 z m 0,-15.44 v 1.1 c 3.199,1.53 7.599,2.82 12.663,3.91 6.675,1.43 14.505,2.51 22.17,3.35 v -0.94 c -7.559,-0.84 -15.265,-1.91 -21.844,-3.32 -5.3,-1.13 -9.867,-2.47 -12.989,-4.1 z m -107.542,1.96 v 1.17 c 0.914,0.51 1.968,0.97 3.135,1.38 2.643,0.94 5.868,1.67 9.271,2.23 v -0.95 c -3.213,-0.55 -6.251,-1.24 -8.76,-2.13 -1.409,-0.5 -2.65,-1.07 -3.646,-1.7 z m -202.222,-6.13 v -0.93 c -11.139,-0.19 -22.197,-0.94 -33.233,-2.02 v 0.95 c 11.038,1.07 22.098,1.81 33.233,2 z m 309.764,-1.06 v 0.98 c 3.932,-0.94 9.575,-1.4 10.009,-1.43 8.28,-0.64 16.547,-0.98 24.824,-1.15 v -0.94 c -8.317,0.17 -16.624,0.51 -24.946,1.15 -0.431,0.04 -5.862,0.49 -9.887,1.39 z m -95.136,-8.25 c -1.008,0.3 -1.996,0.62 -2.956,0.95 -3.745,1.3 -7.066,2.86 -9.45,4.71 v 1.36 c 2.285,-2.09 5.873,-3.8 9.95,-5.21 0.801,-0.28 1.621,-0.54 2.456,-0.8 z m -107.542,-6.98 c -3.983,0.85 -7.965,1.72 -11.951,2.6 v 0.98 c 3.987,-0.88 7.969,-1.75 11.951,-2.6 z m 202.678,-4.85 v 0.94 c 11.609,-0.56 23.236,-0.98 34.833,-1.49 v -0.94 c -11.596,0.51 -23.222,0.93 -34.833,1.49 z m -95.136,-3.95 c -4.174,0.85 -8.308,1.56 -12.406,2.23 v 0.95 c 4.099,-0.66 8.233,-1.37 12.406,-2.2 z m 95.136,-9.99 v 0.94 c 11.597,-0.82 23.196,-1.35 34.833,-1.68 v -0.94 c -11.637,0.33 -23.237,0.86 -34.833,1.68 z m -309.764,-8.95 c -11.144,1.22 -22.252,2.85 -33.233,5.54 v 0.98 c 10.979,-2.71 22.087,-4.34 33.233,-5.57 z m 309.764,-4.67 v 0.94 c 6.258,0.47 12.514,0.77 18.76,0.77 5.349,0 10.708,-0.06 16.073,-0.14 v -0.94 c -5.368,0.08 -10.726,0.14 -16.073,0.14 -6.245,0 -12.498,-0.3 -18.76,-0.77 z m -309.764,-6.59 c -0.864,0.19 -1.726,0.38 -2.585,0.59 -10.156,2.41 -20.376,4.48 -30.648,6.28 v 0.97 c 10.393,-1.82 20.733,-3.92 31.007,-6.36 0.74,-0.17 1.482,-0.34 2.226,-0.5 z m 107.086,4.39 c -3.982,0.03 -7.967,0.06 -11.951,0.12 v 0.94 c 3.983,-0.06 7.968,-0.1 11.951,-0.13 z m 107.542,-3.41 c -4.134,0.14 -8.27,0.31 -12.406,0.49 v 0.95 c 4.137,-0.2 8.271,-0.36 12.406,-0.5 z M 425.332,1863.2 c -3.97,1.27 -7.946,2.55 -11.951,3.81 v 1 c 4.005,-1.26 7.98,-2.54 11.951,-3.82 z m -107.086,-1.23 c -11.118,0.85 -22.445,1.12 -33.233,0.43 v 0.95 c 10.792,0.68 22.116,0.41 33.233,-0.44 z m 309.764,-7.98 v 0.97 c 11.612,2.35 23.081,5.37 34.833,7.59 v -0.96 c -11.749,-2.23 -23.218,-5.25 -34.833,-7.6 z m -309.764,-2.84 v -0.94 c -8.852,0.33 -17.676,0.39 -26.565,0.39 -2.18,0 -4.354,-0.16 -6.525,-0.44 -0.08,0.3 -0.129,0.62 -0.14,0.94 2.218,0.28 4.439,0.44 6.665,0.44 8.888,0 17.712,-0.06 26.565,-0.39 z m 214.628,-2.7 c -4.149,0.06 -8.288,0.14 -12.406,0.23 v 0.95 c 4.118,-0.1 8.256,-0.18 12.406,-0.24 z"
           style="fill:#673b11"
           id="path1716" />
      </g>
      <g
         transform="translate(1087.73,-503.733)"
         id="g1722">
        <path
           d="m 406.907,1847.06 h -82.853 v 5.17 c 7.521,8.5 6.889,17.33 0,24.76 v 93.09 c 7.521,8.5 6.889,17.32 0,24.75 v 4.58 h 82.853 v -4.58 c -6.89,-7.43 -7.522,-16.25 0,-24.75 v -93.09 c -6.89,-7.43 -7.522,-16.26 0,-24.76 z m 107.086,0 h -82.852 v 5.72 c 7.521,8.5 6.889,17.32 0,24.75 v 93.09 c 7.521,8.5 6.889,17.33 0,24.76 v 4.03 h 82.852 v -4.03 c -6.889,-7.43 -7.521,-16.26 0,-24.76 v -93.09 c -6.889,-7.43 -7.521,-16.25 0,-24.75 z m 106.539,0 H 537.68 v 4.69 c 7.521,8.5 6.889,17.33 0,24.75 v 93.09 c 7.521,8.5 6.889,17.33 0,24.76 v 5.06 h 82.852 v -5.06 c -6.889,-7.43 -7.521,-16.26 0,-24.76 v -93.09 c -6.889,-7.42 -7.521,-16.25 0,-24.75 z"
           style="fill:#b6adad"
           id="path1720" />
      </g>
      <g
         transform="matrix(1.23912,0,0,1.46355,604.084,-188.148)"
         id="g1726">
        <rect
           x="824.229"
           y="1066.53"
           width="66.863998"
           height="63.603001"
           style="fill:#e6dfdf"
           id="rect1724" />
      </g>
      <g
         transform="translate(801.177,302.07)"
         id="g1730">
        <path
           d="m 824.229,1070.7 77.166,5.68 5.686,87.41 v -93.09 z"
           style="fill:#d6d6d6"
           id="path1728" />
      </g>
      <g
         transform="rotate(180,1266.245,1268.28)"
         id="g1734">
        <path
           d="m 824.229,1070.7 77.166,5.68 5.686,87.41 v -93.09 z"
           style="fill:#f8f8f8"
           id="path1732" />
      </g>
      <g
         transform="matrix(-1,0,0,1,2532.49,302.07)"
         id="g1738">
        <path
           d="m 824.229,1070.7 77.166,5.68 5.686,87.41 v -93.09 z"
           style="fill:#f8f8f8"
           id="path1736" />
      </g>
      <g
         transform="translate(801.177,302.07)"
         id="g1742">
        <path
           d="m 903.443,1051.25 h -75.576 c 1.655,3.35 2.121,6.69 1.512,9.93 h 72.552 c -0.609,-3.24 -0.143,-6.58 1.512,-9.93 z"
           style="fill:#d2d1d1"
           id="path1740" />
      </g>
      <g
         transform="translate(801.177,419.927)"
         id="g1746">
        <path
           d="m 903.443,1051.25 h -75.576 c 1.655,3.35 2.121,6.69 1.512,9.93 h 72.552 c -0.609,-3.24 -0.143,-6.58 1.512,-9.93 z"
           style="fill:#d2d1d1"
           id="path1744" />
      </g>
      <g
         transform="translate(801.177,302.07)"
         id="g1750">
        <path
           d="m 902.431,1053.73 h -73.552 c 0.266,0.83 0.462,1.66 0.587,2.48 h 72.378 c 0.125,-0.82 0.321,-1.65 0.587,-2.48 z"
           style="fill:#f0f0f0"
           id="path1748" />
      </g>
      <g
         transform="translate(801.177,419.927)"
         id="g1754">
        <path
           d="m 902.431,1053.73 h -73.552 c 0.266,0.83 0.462,1.66 0.587,2.48 h 72.378 c 0.125,-0.82 0.321,-1.65 0.587,-2.48 z"
           style="fill:#f0f0f0"
           id="path1752" />
      </g>
      <g
         transform="matrix(1,0,0,-1,801.177,2536.56)"
         id="g1758">
        <path
           d="m 824.229,1070.7 77.166,5.68 5.686,87.41 v -93.09 z"
           style="fill:#d6d6d6"
           id="path1756" />
      </g>
      <g
         transform="matrix(1.23912,0,0,1.46355,390.459,-187.661)"
         id="g1762">
        <rect
           x="824.229"
           y="1066.53"
           width="66.863998"
           height="63.603001"
           style="fill:#e6dfdf"
           id="rect1760" />
      </g>
      <g
         transform="translate(587.551,302.557)"
         id="g1766">
        <path
           d="m 824.229,1070.7 77.166,5.68 5.686,87.41 v -93.09 z"
           style="fill:#d6d6d6"
           id="path1764" />
      </g>
      <g
         transform="rotate(180,1159.43,1268.52)"
         id="g1770">
        <path
           d="m 824.229,1070.7 77.166,5.68 5.686,87.41 v -93.09 z"
           style="fill:#f8f8f8"
           id="path1768" />
      </g>
      <g
         transform="matrix(-1,0,0,1,2318.86,302.557)"
         id="g1774">
        <path
           d="m 824.229,1070.7 77.166,5.68 5.686,87.41 v -93.09 z"
           style="fill:#f8f8f8"
           id="path1772" />
      </g>
      <g
         transform="translate(587.551,302.557)"
         id="g1778">
        <path
           d="m 903.443,1051.25 h -75.576 c 1.655,3.35 2.121,6.69 1.512,9.93 h 72.552 c -0.609,-3.24 -0.143,-6.58 1.512,-9.93 z"
           style="fill:#d2d1d1"
           id="path1776" />
      </g>
      <g
         transform="translate(587.551,420.414)"
         id="g1782">
        <path
           d="m 903.443,1051.25 h -75.576 c 1.655,3.35 2.121,6.69 1.512,9.93 h 72.552 c -0.609,-3.24 -0.143,-6.58 1.512,-9.93 z"
           style="fill:#d2d1d1"
           id="path1780" />
      </g>
      <g
         transform="translate(587.551,302.557)"
         id="g1786">
        <path
           d="m 902.431,1053.73 h -73.552 c 0.266,0.83 0.462,1.66 0.587,2.48 h 72.378 c 0.125,-0.82 0.321,-1.65 0.587,-2.48 z"
           style="fill:#f0f0f0"
           id="path1784" />
      </g>
      <g
         transform="translate(587.551,420.414)"
         id="g1790">
        <path
           d="m 902.431,1053.73 h -73.552 c 0.266,0.83 0.462,1.66 0.587,2.48 h 72.378 c 0.125,-0.82 0.321,-1.65 0.587,-2.48 z"
           style="fill:#f0f0f0"
           id="path1788" />
      </g>
      <g
         transform="matrix(1,0,0,-1,587.551,2537.04)"
         id="g1794">
        <path
           d="m 824.229,1070.7 77.166,5.68 5.686,87.41 v -93.09 z"
           style="fill:#d6d6d6"
           id="path1792" />
      </g>
      <g
         transform="matrix(1.23912,0,0,1.46355,497.545,-187.119)"
         id="g1798">
        <rect
           x="824.229"
           y="1066.53"
           width="66.863998"
           height="63.603001"
           style="fill:#e6dfdf"
           id="rect1796" />
      </g>
      <g
         transform="translate(694.638,303.099)"
         id="g1802">
        <path
           d="m 824.229,1070.7 77.166,5.68 5.686,87.41 v -93.09 z"
           style="fill:#d6d6d6"
           id="path1800" />
      </g>
      <g
         transform="rotate(180,1212.975,1268.79)"
         id="g1806">
        <path
           d="m 824.229,1070.7 77.166,5.68 5.686,87.41 v -93.09 z"
           style="fill:#f8f8f8"
           id="path1804" />
      </g>
      <g
         transform="matrix(-1,0,0,1,2425.95,303.099)"
         id="g1810">
        <path
           d="m 824.229,1070.7 77.166,5.68 5.686,87.41 v -93.09 z"
           style="fill:#f8f8f8"
           id="path1808" />
      </g>
      <g
         transform="translate(694.638,303.099)"
         id="g1814">
        <path
           d="m 903.443,1051.25 h -75.576 c 1.655,3.35 2.121,6.69 1.512,9.93 h 72.552 c -0.609,-3.24 -0.143,-6.58 1.512,-9.93 z"
           style="fill:#d2d1d1"
           id="path1812" />
      </g>
      <g
         transform="translate(694.638,420.956)"
         id="g1818">
        <path
           d="m 903.443,1051.25 h -75.576 c 1.655,3.35 2.121,6.69 1.512,9.93 h 72.552 c -0.609,-3.24 -0.143,-6.58 1.512,-9.93 z"
           style="fill:#d2d1d1"
           id="path1816" />
      </g>
      <g
         transform="translate(694.638,303.099)"
         id="g1822">
        <path
           d="m 902.431,1053.73 h -73.552 c 0.266,0.83 0.462,1.66 0.587,2.48 h 72.378 c 0.125,-0.82 0.321,-1.65 0.587,-2.48 z"
           style="fill:#f0f0f0"
           id="path1820" />
      </g>
      <g
         transform="translate(694.638,420.956)"
         id="g1826">
        <path
           d="m 902.431,1053.73 h -73.552 c 0.266,0.83 0.462,1.66 0.587,2.48 h 72.378 c 0.125,-0.82 0.321,-1.65 0.587,-2.48 z"
           style="fill:#f0f0f0"
           id="path1824" />
      </g>
      <g
         transform="matrix(1,0,0,-1,694.638,2537.58)"
         id="g1830">
        <path
           d="m 824.229,1070.7 77.166,5.68 5.686,87.41 v -93.09 z"
           style="fill:#d6d6d6"
           id="path1828" />
      </g>
      <g
         transform="matrix(1.24568,0,0,0.884167,2.99067,424.776)"
         id="g1834">
        <ellipse
           cx="1251.25"
           cy="1126.97"
           rx="24.083"
           ry="33.93"
           id="ellipse1832" />
      </g>
      <g
         transform="matrix(1.19658,-0.154577,0.154577,1.19658,450.782,90.0057)"
         id="g1838">
        <path
           d="m 880.172,1242.59 c -4.2,3.23 -9.46,5.15 -15.164,5.15 -13.749,0 -24.912,-11.17 -24.912,-24.92 0,-13.74 11.163,-24.91 24.912,-24.91 1.349,0 2.673,0.11 3.964,0.32 -5.927,4.55 -9.748,11.71 -9.748,19.76 0,12.4 9.08,22.69 20.948,24.6 z"
           id="path1836" />
      </g>
      <g
         transform="matrix(0.493,0,0,0.282349,1071.94,1106.55)"
         id="g1842">
        <path
           d="m 1376.53,853.462 c 0,-8.201 -3.82,-14.859 -8.51,-14.859 H 618.646 c -4.697,0 -8.51,6.658 -8.51,14.859 v 509.868 c 0,8.2 3.813,14.86 8.51,14.86 h 749.374 c 4.69,0 8.51,-6.66 8.51,-14.86 z"
           style="fill:#995e26"
           id="path1840" />
      </g>
      <g
         transform="translate(1087.73,-503.733)"
         id="g1846">
        <path
           d="m 413.381,1999.41 h -95.135 v -152.35 h 95.135 z m 107.087,0 h -95.136 v -152.35 h 95.136 z m 107.542,0 h -95.136 v -152.35 h 95.136 z"
           style="fill:#57300b"
           id="path1844" />
      </g>
      <g
         transform="translate(1087.73,-503.733)"
         id="g1850">
        <path
           d="m 318.246,1990.07 c -11.221,1.1 -22.262,2.83 -33.233,4.42 v 0.72 c 0,0.08 0.002,0.16 0.006,0.24 10.97,-1.6 22.009,-3.33 33.227,-4.43 z m 309.764,0.9 v 0.93 c 11.929,-0.01 23.67,0.44 31.919,0.44 l 2.914,0.01 v -0.95 h -2.914 c -8.255,0 -19.985,-0.44 -31.919,-0.43 z m -214.629,-1.9 v 0.94 c 3.992,0.17 7.976,0.36 11.951,0.57 v -0.95 c -3.976,-0.2 -7.96,-0.39 -11.951,-0.56 z m 107.087,-9.59 v 1.02 c 4.012,1.25 8.129,2.46 12.406,3.65 v -1 c -4.276,-1.19 -8.392,-2.41 -12.406,-3.67 z m -235.455,-30.66 v 1.01 c 3.07,0.94 6.067,2.04 8.754,3.29 6.486,3.02 11.193,6.95 10.486,11.86 -0.746,5.18 -5.294,8.21 -10.945,10.07 -2.612,0.86 -5.46,1.48 -8.295,1.93 v 0.96 c 2.994,-0.47 6.013,-1.11 8.774,-2.02 6.059,-2 10.878,-5.28 11.678,-10.84 0.757,-5.25 -4.128,-9.53 -11.067,-12.77 -2.873,-1.33 -6.095,-2.5 -9.385,-3.49 z m 342.997,10.01 v 0.95 c 11.613,1.3 23.219,2.59 34.833,3.81 v -0.95 c -11.617,-1.22 -23.226,-2.51 -34.833,-3.81 z m 0,-15.44 v 1.1 c 3.199,1.53 7.599,2.82 12.663,3.91 6.675,1.43 14.505,2.51 22.17,3.35 v -0.94 c -7.559,-0.84 -15.265,-1.91 -21.844,-3.32 -5.3,-1.13 -9.867,-2.47 -12.989,-4.1 z m -107.542,1.96 v 1.17 c 0.914,0.51 1.968,0.97 3.135,1.38 2.643,0.94 5.868,1.67 9.271,2.23 v -0.95 c -3.213,-0.55 -6.251,-1.24 -8.76,-2.13 -1.409,-0.5 -2.65,-1.07 -3.646,-1.7 z m -202.222,-6.13 v -0.93 c -11.139,-0.19 -22.197,-0.94 -33.233,-2.02 v 0.95 c 11.038,1.07 22.098,1.81 33.233,2 z m 309.764,-1.06 v 0.98 c 3.932,-0.94 9.575,-1.4 10.009,-1.43 8.28,-0.64 16.547,-0.98 24.824,-1.15 v -0.94 c -8.317,0.17 -16.624,0.51 -24.946,1.15 -0.431,0.04 -5.862,0.49 -9.887,1.39 z m -95.136,-8.25 c -1.008,0.3 -1.996,0.62 -2.956,0.95 -3.745,1.3 -7.066,2.86 -9.45,4.71 v 1.36 c 2.285,-2.09 5.873,-3.8 9.95,-5.21 0.801,-0.28 1.621,-0.54 2.456,-0.8 z m -107.542,-6.98 c -3.983,0.85 -7.965,1.72 -11.951,2.6 v 0.98 c 3.987,-0.88 7.969,-1.75 11.951,-2.6 z m 202.678,-4.85 v 0.94 c 11.609,-0.56 23.236,-0.98 34.833,-1.49 v -0.94 c -11.596,0.51 -23.222,0.93 -34.833,1.49 z m -95.136,-3.95 c -4.174,0.85 -8.308,1.56 -12.406,2.23 v 0.95 c 4.099,-0.66 8.233,-1.37 12.406,-2.2 z m 95.136,-9.99 v 0.94 c 11.597,-0.82 23.196,-1.35 34.833,-1.68 v -0.94 c -11.637,0.33 -23.237,0.86 -34.833,1.68 z m -309.764,-8.95 c -11.144,1.22 -22.252,2.85 -33.233,5.54 v 0.98 c 10.979,-2.71 22.087,-4.34 33.233,-5.57 z m 309.764,-4.67 v 0.94 c 6.258,0.47 12.514,0.77 18.76,0.77 5.349,0 10.708,-0.06 16.073,-0.14 v -0.94 c -5.368,0.08 -10.726,0.14 -16.073,0.14 -6.245,0 -12.498,-0.3 -18.76,-0.77 z m -309.764,-6.59 c -0.864,0.19 -1.726,0.38 -2.585,0.59 -10.156,2.41 -20.376,4.48 -30.648,6.28 v 0.97 c 10.393,-1.82 20.733,-3.92 31.007,-6.36 0.74,-0.17 1.482,-0.34 2.226,-0.5 z m 107.086,4.39 c -3.982,0.03 -7.967,0.06 -11.951,0.12 v 0.94 c 3.983,-0.06 7.968,-0.1 11.951,-0.13 z m 107.542,-3.41 c -4.134,0.14 -8.27,0.31 -12.406,0.49 v 0.95 c 4.137,-0.2 8.271,-0.36 12.406,-0.5 z M 425.332,1863.2 c -3.97,1.27 -7.946,2.55 -11.951,3.81 v 1 c 4.005,-1.26 7.98,-2.54 11.951,-3.82 z m -107.086,-1.23 c -11.118,0.85 -22.445,1.12 -33.233,0.43 v 0.95 c 10.792,0.68 22.116,0.41 33.233,-0.44 z m 309.764,-7.98 v 0.97 c 11.612,2.35 23.081,5.37 34.833,7.59 v -0.96 c -11.749,-2.23 -23.218,-5.25 -34.833,-7.6 z m -309.764,-2.84 v -0.94 c -8.852,0.33 -17.676,0.39 -26.565,0.39 -2.18,0 -4.354,-0.16 -6.525,-0.44 -0.08,0.3 -0.129,0.62 -0.14,0.94 2.218,0.28 4.439,0.44 6.665,0.44 8.888,0 17.712,-0.06 26.565,-0.39 z m 214.628,-2.7 c -4.149,0.06 -8.288,0.14 -12.406,0.23 v 0.95 c 4.118,-0.1 8.256,-0.18 12.406,-0.24 z"
           style="fill:#673b11"
           id="path1848" />
      </g>
      <g
         transform="translate(1087.73,-503.733)"
         id="g1854">
        <path
           d="m 406.907,1847.06 h -82.853 v 5.17 c 7.521,8.5 6.889,17.33 0,24.76 v 93.09 c 7.521,8.5 6.889,17.32 0,24.75 v 4.58 h 82.853 v -4.58 c -6.89,-7.43 -7.522,-16.25 0,-24.75 v -93.09 c -6.89,-7.43 -7.522,-16.26 0,-24.76 z m 107.086,0 h -82.852 v 5.72 c 7.521,8.5 6.889,17.32 0,24.75 v 93.09 c 7.521,8.5 6.889,17.33 0,24.76 v 4.03 h 82.852 v -4.03 c -6.889,-7.43 -7.521,-16.26 0,-24.76 v -93.09 c -6.889,-7.43 -7.521,-16.25 0,-24.75 z m 106.539,0 H 537.68 v 4.69 c 7.521,8.5 6.889,17.33 0,24.75 v 93.09 c 7.521,8.5 6.889,17.33 0,24.76 v 5.06 h 82.852 v -5.06 c -6.889,-7.43 -7.521,-16.26 0,-24.76 v -93.09 c -6.889,-7.42 -7.521,-16.25 0,-24.75 z"
           style="fill:#b6adad"
           id="path1852" />
      </g>
      <g
         transform="matrix(1.23912,0,0,1.46355,604.084,-188.148)"
         id="g1858">
        <rect
           x="824.229"
           y="1066.53"
           width="66.863998"
           height="63.603001"
           style="fill:#e6dfdf"
           id="rect1856" />
      </g>
      <g
         transform="translate(801.177,302.07)"
         id="g1862">
        <path
           d="m 824.229,1070.7 77.166,5.68 5.686,87.41 v -93.09 z"
           style="fill:#d6d6d6"
           id="path1860" />
      </g>
      <g
         transform="rotate(180,1266.245,1268.28)"
         id="g1866">
        <path
           d="m 824.229,1070.7 77.166,5.68 5.686,87.41 v -93.09 z"
           style="fill:#f8f8f8"
           id="path1864" />
      </g>
      <g
         transform="matrix(-1,0,0,1,2532.49,302.07)"
         id="g1870">
        <path
           d="m 824.229,1070.7 77.166,5.68 5.686,87.41 v -93.09 z"
           style="fill:#f8f8f8"
           id="path1868" />
      </g>
      <g
         transform="translate(801.177,302.07)"
         id="g1874">
        <path
           d="m 903.443,1051.25 h -75.576 c 1.655,3.35 2.121,6.69 1.512,9.93 h 72.552 c -0.609,-3.24 -0.143,-6.58 1.512,-9.93 z"
           style="fill:#d2d1d1"
           id="path1872" />
      </g>
      <g
         transform="translate(801.177,419.927)"
         id="g1878">
        <path
           d="m 903.443,1051.25 h -75.576 c 1.655,3.35 2.121,6.69 1.512,9.93 h 72.552 c -0.609,-3.24 -0.143,-6.58 1.512,-9.93 z"
           style="fill:#d2d1d1"
           id="path1876" />
      </g>
      <g
         transform="translate(801.177,302.07)"
         id="g1882">
        <path
           d="m 902.431,1053.73 h -73.552 c 0.266,0.83 0.462,1.66 0.587,2.48 h 72.378 c 0.125,-0.82 0.321,-1.65 0.587,-2.48 z"
           style="fill:#f0f0f0"
           id="path1880" />
      </g>
      <g
         transform="translate(801.177,419.927)"
         id="g1886">
        <path
           d="m 902.431,1053.73 h -73.552 c 0.266,0.83 0.462,1.66 0.587,2.48 h 72.378 c 0.125,-0.82 0.321,-1.65 0.587,-2.48 z"
           style="fill:#f0f0f0"
           id="path1884" />
      </g>
      <g
         transform="matrix(1,0,0,-1,801.177,2536.56)"
         id="g1890">
        <path
           d="m 824.229,1070.7 77.166,5.68 5.686,87.41 v -93.09 z"
           style="fill:#d6d6d6"
           id="path1888" />
      </g>
      <g
         transform="matrix(1.23912,0,0,1.46355,390.459,-187.661)"
         id="g1894">
        <rect
           x="824.229"
           y="1066.53"
           width="66.863998"
           height="63.603001"
           style="fill:#e6dfdf"
           id="rect1892" />
      </g>
      <g
         transform="translate(587.551,302.557)"
         id="g1898">
        <path
           d="m 824.229,1070.7 77.166,5.68 5.686,87.41 v -93.09 z"
           style="fill:#d6d6d6"
           id="path1896" />
      </g>
      <g
         transform="rotate(180,1159.43,1268.52)"
         id="g1902">
        <path
           d="m 824.229,1070.7 77.166,5.68 5.686,87.41 v -93.09 z"
           style="fill:#f8f8f8"
           id="path1900" />
      </g>
      <g
         transform="matrix(-1,0,0,1,2318.86,302.557)"
         id="g1906">
        <path
           d="m 824.229,1070.7 77.166,5.68 5.686,87.41 v -93.09 z"
           style="fill:#f8f8f8"
           id="path1904" />
      </g>
      <g
         transform="translate(587.551,302.557)"
         id="g1910">
        <path
           d="m 903.443,1051.25 h -75.576 c 1.655,3.35 2.121,6.69 1.512,9.93 h 72.552 c -0.609,-3.24 -0.143,-6.58 1.512,-9.93 z"
           style="fill:#d2d1d1"
           id="path1908" />
      </g>
      <g
         transform="translate(587.551,420.414)"
         id="g1914">
        <path
           d="m 903.443,1051.25 h -75.576 c 1.655,3.35 2.121,6.69 1.512,9.93 h 72.552 c -0.609,-3.24 -0.143,-6.58 1.512,-9.93 z"
           style="fill:#d2d1d1"
           id="path1912" />
      </g>
      <g
         transform="translate(587.551,302.557)"
         id="g1918">
        <path
           d="m 902.431,1053.73 h -73.552 c 0.266,0.83 0.462,1.66 0.587,2.48 h 72.378 c 0.125,-0.82 0.321,-1.65 0.587,-2.48 z"
           style="fill:#f0f0f0"
           id="path1916" />
      </g>
      <g
         transform="translate(587.551,420.414)"
         id="g1922">
        <path
           d="m 902.431,1053.73 h -73.552 c 0.266,0.83 0.462,1.66 0.587,2.48 h 72.378 c 0.125,-0.82 0.321,-1.65 0.587,-2.48 z"
           style="fill:#f0f0f0"
           id="path1920" />
      </g>
      <g
         transform="matrix(1,0,0,-1,587.551,2537.04)"
         id="g1926">
        <path
           d="m 824.229,1070.7 77.166,5.68 5.686,87.41 v -93.09 z"
           style="fill:#d6d6d6"
           id="path1924" />
      </g>
      <g
         transform="matrix(1.23912,0,0,1.46355,497.545,-187.119)"
         id="g1930">
        <rect
           x="824.229"
           y="1066.53"
           width="66.863998"
           height="63.603001"
           style="fill:#e6dfdf"
           id="rect1928" />
      </g>
      <g
         transform="translate(694.638,303.099)"
         id="g1934">
        <path
           d="m 824.229,1070.7 77.166,5.68 5.686,87.41 v -93.09 z"
           style="fill:#d6d6d6"
           id="path1932" />
      </g>
      <g
         transform="rotate(180,1212.975,1268.79)"
         id="g1938">
        <path
           d="m 824.229,1070.7 77.166,5.68 5.686,87.41 v -93.09 z"
           style="fill:#f8f8f8"
           id="path1936" />
      </g>
      <g
         transform="matrix(-1,0,0,1,2425.95,303.099)"
         id="g1942">
        <path
           d="m 824.229,1070.7 77.166,5.68 5.686,87.41 v -93.09 z"
           style="fill:#f8f8f8"
           id="path1940" />
      </g>
      <g
         transform="translate(694.638,303.099)"
         id="g1946">
        <path
           d="m 903.443,1051.25 h -75.576 c 1.655,3.35 2.121,6.69 1.512,9.93 h 72.552 c -0.609,-3.24 -0.143,-6.58 1.512,-9.93 z"
           style="fill:#d2d1d1"
           id="path1944" />
      </g>
      <g
         transform="translate(694.638,420.956)"
         id="g1950">
        <path
           d="m 903.443,1051.25 h -75.576 c 1.655,3.35 2.121,6.69 1.512,9.93 h 72.552 c -0.609,-3.24 -0.143,-6.58 1.512,-9.93 z"
           style="fill:#d2d1d1"
           id="path1948" />
      </g>
      <g
         transform="translate(694.638,303.099)"
         id="g1954">
        <path
           d="m 902.431,1053.73 h -73.552 c 0.266,0.83 0.462,1.66 0.587,2.48 h 72.378 c 0.125,-0.82 0.321,-1.65 0.587,-2.48 z"
           style="fill:#f0f0f0"
           id="path1952" />
      </g>
      <g
         transform="translate(694.638,420.956)"
         id="g1958">
        <path
           d="m 902.431,1053.73 h -73.552 c 0.266,0.83 0.462,1.66 0.587,2.48 h 72.378 c 0.125,-0.82 0.321,-1.65 0.587,-2.48 z"
           style="fill:#f0f0f0"
           id="path1956" />
      </g>
      <g
         transform="matrix(1,0,0,-1,694.638,2537.58)"
         id="g1962">
        <path
           d="m 824.229,1070.7 77.166,5.68 5.686,87.41 v -93.09 z"
           style="fill:#d6d6d6"
           id="path1960" />
      </g>
      <g
         transform="matrix(1.24568,0,0,0.884167,2.99067,424.776)"
         id="g1966">
        <ellipse
           cx="1251.25"
           cy="1126.97"
           rx="24.083"
           ry="33.93"
           id="ellipse1964" />
      </g>
      <g
         transform="matrix(1.19658,-0.154577,0.154577,1.19658,450.782,90.0057)"
         id="g1970">
        <path
           d="m 880.172,1242.59 c -4.2,3.23 -9.46,5.15 -15.164,5.15 -13.749,0 -24.912,-11.17 -24.912,-24.92 0,-13.74 11.163,-24.91 24.912,-24.91 1.349,0 2.673,0.11 3.964,0.32 -5.927,4.55 -9.748,11.71 -9.748,19.76 0,12.4 9.08,22.69 20.948,24.6 z"
           id="path1968" />
      </g>
      <g
         transform="matrix(0.493,0,0,0.282349,1071.94,1106.55)"
         id="g1974">
        <path
           d="m 1376.53,853.462 c 0,-8.201 -3.82,-14.859 -8.51,-14.859 H 618.646 c -4.697,0 -8.51,6.658 -8.51,14.859 v 509.868 c 0,8.2 3.813,14.86 8.51,14.86 h 749.374 c 4.69,0 8.51,-6.66 8.51,-14.86 z"
           style="fill:#995e26"
           id="path1972" />
      </g>
      <g
         transform="translate(1087.73,-503.733)"
         id="g1978">
        <path
           d="m 413.381,1999.41 h -95.135 v -152.35 h 95.135 z m 107.087,0 h -95.136 v -152.35 h 95.136 z m 107.542,0 h -95.136 v -152.35 h 95.136 z"
           style="fill:#57300b"
           id="path1976" />
      </g>
      <g
         transform="translate(1087.73,-503.733)"
         id="g1982">
        <path
           d="m 318.246,1990.07 c -11.221,1.1 -22.262,2.83 -33.233,4.42 v 0.72 c 0,0.08 0.002,0.16 0.006,0.24 10.97,-1.6 22.009,-3.33 33.227,-4.43 z m 309.764,0.9 v 0.93 c 11.929,-0.01 23.67,0.44 31.919,0.44 l 2.914,0.01 v -0.95 h -2.914 c -8.255,0 -19.985,-0.44 -31.919,-0.43 z m -214.629,-1.9 v 0.94 c 3.992,0.17 7.976,0.36 11.951,0.57 v -0.95 c -3.976,-0.2 -7.96,-0.39 -11.951,-0.56 z m 107.087,-9.59 v 1.02 c 4.012,1.25 8.129,2.46 12.406,3.65 v -1 c -4.276,-1.19 -8.392,-2.41 -12.406,-3.67 z m -235.455,-30.66 v 1.01 c 3.07,0.94 6.067,2.04 8.754,3.29 6.486,3.02 11.193,6.95 10.486,11.86 -0.746,5.18 -5.294,8.21 -10.945,10.07 -2.612,0.86 -5.46,1.48 -8.295,1.93 v 0.96 c 2.994,-0.47 6.013,-1.11 8.774,-2.02 6.059,-2 10.878,-5.28 11.678,-10.84 0.757,-5.25 -4.128,-9.53 -11.067,-12.77 -2.873,-1.33 -6.095,-2.5 -9.385,-3.49 z m 342.997,10.01 v 0.95 c 11.613,1.3 23.219,2.59 34.833,3.81 v -0.95 c -11.617,-1.22 -23.226,-2.51 -34.833,-3.81 z m 0,-15.44 v 1.1 c 3.199,1.53 7.599,2.82 12.663,3.91 6.675,1.43 14.505,2.51 22.17,3.35 v -0.94 c -7.559,-0.84 -15.265,-1.91 -21.844,-3.32 -5.3,-1.13 -9.867,-2.47 -12.989,-4.1 z m -107.542,1.96 v 1.17 c 0.914,0.51 1.968,0.97 3.135,1.38 2.643,0.94 5.868,1.67 9.271,2.23 v -0.95 c -3.213,-0.55 -6.251,-1.24 -8.76,-2.13 -1.409,-0.5 -2.65,-1.07 -3.646,-1.7 z m -202.222,-6.13 v -0.93 c -11.139,-0.19 -22.197,-0.94 -33.233,-2.02 v 0.95 c 11.038,1.07 22.098,1.81 33.233,2 z m 309.764,-1.06 v 0.98 c 3.932,-0.94 9.575,-1.4 10.009,-1.43 8.28,-0.64 16.547,-0.98 24.824,-1.15 v -0.94 c -8.317,0.17 -16.624,0.51 -24.946,1.15 -0.431,0.04 -5.862,0.49 -9.887,1.39 z m -95.136,-8.25 c -1.008,0.3 -1.996,0.62 -2.956,0.95 -3.745,1.3 -7.066,2.86 -9.45,4.71 v 1.36 c 2.285,-2.09 5.873,-3.8 9.95,-5.21 0.801,-0.28 1.621,-0.54 2.456,-0.8 z m -107.542,-6.98 c -3.983,0.85 -7.965,1.72 -11.951,2.6 v 0.98 c 3.987,-0.88 7.969,-1.75 11.951,-2.6 z m 202.678,-4.85 v 0.94 c 11.609,-0.56 23.236,-0.98 34.833,-1.49 v -0.94 c -11.596,0.51 -23.222,0.93 -34.833,1.49 z m -95.136,-3.95 c -4.174,0.85 -8.308,1.56 -12.406,2.23 v 0.95 c 4.099,-0.66 8.233,-1.37 12.406,-2.2 z m 95.136,-9.99 v 0.94 c 11.597,-0.82 23.196,-1.35 34.833,-1.68 v -0.94 c -11.637,0.33 -23.237,0.86 -34.833,1.68 z m -309.764,-8.95 c -11.144,1.22 -22.252,2.85 -33.233,5.54 v 0.98 c 10.979,-2.71 22.087,-4.34 33.233,-5.57 z m 309.764,-4.67 v 0.94 c 6.258,0.47 12.514,0.77 18.76,0.77 5.349,0 10.708,-0.06 16.073,-0.14 v -0.94 c -5.368,0.08 -10.726,0.14 -16.073,0.14 -6.245,0 -12.498,-0.3 -18.76,-0.77 z m -309.764,-6.59 c -0.864,0.19 -1.726,0.38 -2.585,0.59 -10.156,2.41 -20.376,4.48 -30.648,6.28 v 0.97 c 10.393,-1.82 20.733,-3.92 31.007,-6.36 0.74,-0.17 1.482,-0.34 2.226,-0.5 z m 107.086,4.39 c -3.982,0.03 -7.967,0.06 -11.951,0.12 v 0.94 c 3.983,-0.06 7.968,-0.1 11.951,-0.13 z m 107.542,-3.41 c -4.134,0.14 -8.27,0.31 -12.406,0.49 v 0.95 c 4.137,-0.2 8.271,-0.36 12.406,-0.5 z M 425.332,1863.2 c -3.97,1.27 -7.946,2.55 -11.951,3.81 v 1 c 4.005,-1.26 7.98,-2.54 11.951,-3.82 z m -107.086,-1.23 c -11.118,0.85 -22.445,1.12 -33.233,0.43 v 0.95 c 10.792,0.68 22.116,0.41 33.233,-0.44 z m 309.764,-7.98 v 0.97 c 11.612,2.35 23.081,5.37 34.833,7.59 v -0.96 c -11.749,-2.23 -23.218,-5.25 -34.833,-7.6 z m -309.764,-2.84 v -0.94 c -8.852,0.33 -17.676,0.39 -26.565,0.39 -2.18,0 -4.354,-0.16 -6.525,-0.44 -0.08,0.3 -0.129,0.62 -0.14,0.94 2.218,0.28 4.439,0.44 6.665,0.44 8.888,0 17.712,-0.06 26.565,-0.39 z m 214.628,-2.7 c -4.149,0.06 -8.288,0.14 -12.406,0.23 v 0.95 c 4.118,-0.1 8.256,-0.18 12.406,-0.24 z"
           style="fill:#673b11"
           id="path1980" />
      </g>
      <g
         transform="translate(1087.73,-503.733)"
         id="g1986">
        <path
           d="m 406.907,1847.06 h -82.853 v 5.17 c 7.521,8.5 6.889,17.33 0,24.76 v 93.09 c 7.521,8.5 6.889,17.32 0,24.75 v 4.58 h 82.853 v -4.58 c -6.89,-7.43 -7.522,-16.25 0,-24.75 v -93.09 c -6.89,-7.43 -7.522,-16.26 0,-24.76 z m 107.086,0 h -82.852 v 5.72 c 7.521,8.5 6.889,17.32 0,24.75 v 93.09 c 7.521,8.5 6.889,17.33 0,24.76 v 4.03 h 82.852 v -4.03 c -6.889,-7.43 -7.521,-16.26 0,-24.76 v -93.09 c -6.889,-7.43 -7.521,-16.25 0,-24.75 z m 106.539,0 H 537.68 v 4.69 c 7.521,8.5 6.889,17.33 0,24.75 v 93.09 c 7.521,8.5 6.889,17.33 0,24.76 v 5.06 h 82.852 v -5.06 c -6.889,-7.43 -7.521,-16.26 0,-24.76 v -93.09 c -6.889,-7.42 -7.521,-16.25 0,-24.75 z"
           style="fill:#b6adad"
           id="path1984" />
      </g>
      <g
         transform="matrix(1.23912,0,0,1.46355,604.084,-188.148)"
         id="g1990">
        <rect
           x="824.229"
           y="1066.53"
           width="66.863998"
           height="63.603001"
           style="fill:#e6dfdf"
           id="rect1988" />
      </g>
      <g
         transform="translate(801.177,302.07)"
         id="g1994">
        <path
           d="m 824.229,1070.7 77.166,5.68 5.686,87.41 v -93.09 z"
           style="fill:#d6d6d6"
           id="path1992" />
      </g>
      <g
         transform="rotate(180,1266.245,1268.28)"
         id="g1998">
        <path
           d="m 824.229,1070.7 77.166,5.68 5.686,87.41 v -93.09 z"
           style="fill:#f8f8f8"
           id="path1996" />
      </g>
      <g
         transform="matrix(-1,0,0,1,2532.49,302.07)"
         id="g2002">
        <path
           d="m 824.229,1070.7 77.166,5.68 5.686,87.41 v -93.09 z"
           style="fill:#f8f8f8"
           id="path2000" />
      </g>
      <g
         transform="translate(801.177,302.07)"
         id="g2006">
        <path
           d="m 903.443,1051.25 h -75.576 c 1.655,3.35 2.121,6.69 1.512,9.93 h 72.552 c -0.609,-3.24 -0.143,-6.58 1.512,-9.93 z"
           style="fill:#d2d1d1"
           id="path2004" />
      </g>
      <g
         transform="translate(801.177,419.927)"
         id="g2010">
        <path
           d="m 903.443,1051.25 h -75.576 c 1.655,3.35 2.121,6.69 1.512,9.93 h 72.552 c -0.609,-3.24 -0.143,-6.58 1.512,-9.93 z"
           style="fill:#d2d1d1"
           id="path2008" />
      </g>
      <g
         transform="translate(801.177,302.07)"
         id="g2014">
        <path
           d="m 902.431,1053.73 h -73.552 c 0.266,0.83 0.462,1.66 0.587,2.48 h 72.378 c 0.125,-0.82 0.321,-1.65 0.587,-2.48 z"
           style="fill:#f0f0f0"
           id="path2012" />
      </g>
      <g
         transform="translate(801.177,419.927)"
         id="g2018">
        <path
           d="m 902.431,1053.73 h -73.552 c 0.266,0.83 0.462,1.66 0.587,2.48 h 72.378 c 0.125,-0.82 0.321,-1.65 0.587,-2.48 z"
           style="fill:#f0f0f0"
           id="path2016" />
      </g>
      <g
         transform="matrix(1,0,0,-1,801.177,2536.56)"
         id="g2022">
        <path
           d="m 824.229,1070.7 77.166,5.68 5.686,87.41 v -93.09 z"
           style="fill:#d6d6d6"
           id="path2020" />
      </g>
      <g
         transform="matrix(1.23912,0,0,1.46355,390.459,-187.661)"
         id="g2026">
        <rect
           x="824.229"
           y="1066.53"
           width="66.863998"
           height="63.603001"
           style="fill:#e6dfdf"
           id="rect2024" />
      </g>
      <g
         transform="translate(587.551,302.557)"
         id="g2030">
        <path
           d="m 824.229,1070.7 77.166,5.68 5.686,87.41 v -93.09 z"
           style="fill:#d6d6d6"
           id="path2028" />
      </g>
      <g
         transform="rotate(180,1159.43,1268.52)"
         id="g2034">
        <path
           d="m 824.229,1070.7 77.166,5.68 5.686,87.41 v -93.09 z"
           style="fill:#f8f8f8"
           id="path2032" />
      </g>
      <g
         transform="matrix(-1,0,0,1,2318.86,302.557)"
         id="g2038">
        <path
           d="m 824.229,1070.7 77.166,5.68 5.686,87.41 v -93.09 z"
           style="fill:#f8f8f8"
           id="path2036" />
      </g>
      <g
         transform="translate(587.551,302.557)"
         id="g2042">
        <path
           d="m 903.443,1051.25 h -75.576 c 1.655,3.35 2.121,6.69 1.512,9.93 h 72.552 c -0.609,-3.24 -0.143,-6.58 1.512,-9.93 z"
           style="fill:#d2d1d1"
           id="path2040" />
      </g>
      <g
         transform="translate(587.551,420.414)"
         id="g2046">
        <path
           d="m 903.443,1051.25 h -75.576 c 1.655,3.35 2.121,6.69 1.512,9.93 h 72.552 c -0.609,-3.24 -0.143,-6.58 1.512,-9.93 z"
           style="fill:#d2d1d1"
           id="path2044" />
      </g>
      <g
         transform="translate(587.551,302.557)"
         id="g2050">
        <path
           d="m 902.431,1053.73 h -73.552 c 0.266,0.83 0.462,1.66 0.587,2.48 h 72.378 c 0.125,-0.82 0.321,-1.65 0.587,-2.48 z"
           style="fill:#f0f0f0"
           id="path2048" />
      </g>
      <g
         transform="translate(587.551,420.414)"
         id="g2054">
        <path
           d="m 902.431,1053.73 h -73.552 c 0.266,0.83 0.462,1.66 0.587,2.48 h 72.378 c 0.125,-0.82 0.321,-1.65 0.587,-2.48 z"
           style="fill:#f0f0f0"
           id="path2052" />
      </g>
      <g
         transform="matrix(1,0,0,-1,587.551,2537.04)"
         id="g2058">
        <path
           d="m 824.229,1070.7 77.166,5.68 5.686,87.41 v -93.09 z"
           style="fill:#d6d6d6"
           id="path2056" />
      </g>
      <g
         transform="matrix(1.23912,0,0,1.46355,497.545,-187.119)"
         id="g2062">
        <rect
           x="824.229"
           y="1066.53"
           width="66.863998"
           height="63.603001"
           style="fill:#e6dfdf"
           id="rect2060" />
      </g>
      <g
         transform="translate(694.638,303.099)"
         id="g2066">
        <path
           d="m 824.229,1070.7 77.166,5.68 5.686,87.41 v -93.09 z"
           style="fill:#d6d6d6"
           id="path2064" />
      </g>
      <g
         transform="rotate(180,1212.975,1268.79)"
         id="g2070">
        <path
           d="m 824.229,1070.7 77.166,5.68 5.686,87.41 v -93.09 z"
           style="fill:#f8f8f8"
           id="path2068" />
      </g>
      <g
         transform="matrix(-1,0,0,1,2425.95,303.099)"
         id="g2074">
        <path
           d="m 824.229,1070.7 77.166,5.68 5.686,87.41 v -93.09 z"
           style="fill:#f8f8f8"
           id="path2072" />
      </g>
      <g
         transform="translate(694.638,303.099)"
         id="g2078">
        <path
           d="m 903.443,1051.25 h -75.576 c 1.655,3.35 2.121,6.69 1.512,9.93 h 72.552 c -0.609,-3.24 -0.143,-6.58 1.512,-9.93 z"
           style="fill:#d2d1d1"
           id="path2076" />
      </g>
      <g
         transform="translate(694.638,420.956)"
         id="g2082">
        <path
           d="m 903.443,1051.25 h -75.576 c 1.655,3.35 2.121,6.69 1.512,9.93 h 72.552 c -0.609,-3.24 -0.143,-6.58 1.512,-9.93 z"
           style="fill:#d2d1d1"
           id="path2080" />
      </g>
      <g
         transform="translate(694.638,303.099)"
         id="g2086">
        <path
           d="m 902.431,1053.73 h -73.552 c 0.266,0.83 0.462,1.66 0.587,2.48 h 72.378 c 0.125,-0.82 0.321,-1.65 0.587,-2.48 z"
           style="fill:#f0f0f0"
           id="path2084" />
      </g>
      <g
         transform="translate(694.638,420.956)"
         id="g2090">
        <path
           d="m 902.431,1053.73 h -73.552 c 0.266,0.83 0.462,1.66 0.587,2.48 h 72.378 c 0.125,-0.82 0.321,-1.65 0.587,-2.48 z"
           style="fill:#f0f0f0"
           id="path2088" />
      </g>
      <g
         transform="matrix(1,0,0,-1,694.638,2537.58)"
         id="g2094">
        <path
           d="m 824.229,1070.7 77.166,5.68 5.686,87.41 v -93.09 z"
           style="fill:#d6d6d6"
           id="path2092" />
      </g>
      <g
         transform="matrix(1.24568,0,0,0.884167,2.99067,424.776)"
         id="g2098">
        <ellipse
           cx="1251.25"
           cy="1126.97"
           rx="24.083"
           ry="33.93"
           id="ellipse2096" />
      </g>
      <g
         transform="matrix(1.19658,-0.154577,0.154577,1.19658,450.782,90.0057)"
         id="g2102">
        <path
           d="m 880.172,1242.59 c -4.2,3.23 -9.46,5.15 -15.164,5.15 -13.749,0 -24.912,-11.17 -24.912,-24.92 0,-13.74 11.163,-24.91 24.912,-24.91 1.349,0 2.673,0.11 3.964,0.32 -5.927,4.55 -9.748,11.71 -9.748,19.76 0,12.4 9.08,22.69 20.948,24.6 z"
           id="path2100" />
      </g>
      <g
         transform="matrix(0.493,0,0,0.282349,1071.94,1106.55)"
         id="g2106">
        <path
           d="m 1376.53,853.462 c 0,-8.201 -3.82,-14.859 -8.51,-14.859 H 618.646 c -4.697,0 -8.51,6.658 -8.51,14.859 v 509.868 c 0,8.2 3.813,14.86 8.51,14.86 h 749.374 c 4.69,0 8.51,-6.66 8.51,-14.86 z"
           style="fill:#995e26"
           id="path2104" />
      </g>
      <g
         transform="translate(1087.73,-503.733)"
         id="g2110">
        <path
           d="m 413.381,1999.41 h -95.135 v -152.35 h 95.135 z m 107.087,0 h -95.136 v -152.35 h 95.136 z m 107.542,0 h -95.136 v -152.35 h 95.136 z"
           style="fill:#57300b"
           id="path2108" />
      </g>
      <g
         transform="translate(1087.73,-503.733)"
         id="g2114">
        <path
           d="m 318.246,1990.07 c -11.221,1.1 -22.262,2.83 -33.233,4.42 v 0.72 c 0,0.08 0.002,0.16 0.006,0.24 10.97,-1.6 22.009,-3.33 33.227,-4.43 z m 309.764,0.9 v 0.93 c 11.929,-0.01 23.67,0.44 31.919,0.44 l 2.914,0.01 v -0.95 h -2.914 c -8.255,0 -19.985,-0.44 -31.919,-0.43 z m -214.629,-1.9 v 0.94 c 3.992,0.17 7.976,0.36 11.951,0.57 v -0.95 c -3.976,-0.2 -7.96,-0.39 -11.951,-0.56 z m 107.087,-9.59 v 1.02 c 4.012,1.25 8.129,2.46 12.406,3.65 v -1 c -4.276,-1.19 -8.392,-2.41 -12.406,-3.67 z m -235.455,-30.66 v 1.01 c 3.07,0.94 6.067,2.04 8.754,3.29 6.486,3.02 11.193,6.95 10.486,11.86 -0.746,5.18 -5.294,8.21 -10.945,10.07 -2.612,0.86 -5.46,1.48 -8.295,1.93 v 0.96 c 2.994,-0.47 6.013,-1.11 8.774,-2.02 6.059,-2 10.878,-5.28 11.678,-10.84 0.757,-5.25 -4.128,-9.53 -11.067,-12.77 -2.873,-1.33 -6.095,-2.5 -9.385,-3.49 z m 342.997,10.01 v 0.95 c 11.613,1.3 23.219,2.59 34.833,3.81 v -0.95 c -11.617,-1.22 -23.226,-2.51 -34.833,-3.81 z m 0,-15.44 v 1.1 c 3.199,1.53 7.599,2.82 12.663,3.91 6.675,1.43 14.505,2.51 22.17,3.35 v -0.94 c -7.559,-0.84 -15.265,-1.91 -21.844,-3.32 -5.3,-1.13 -9.867,-2.47 -12.989,-4.1 z m -107.542,1.96 v 1.17 c 0.914,0.51 1.968,0.97 3.135,1.38 2.643,0.94 5.868,1.67 9.271,2.23 v -0.95 c -3.213,-0.55 -6.251,-1.24 -8.76,-2.13 -1.409,-0.5 -2.65,-1.07 -3.646,-1.7 z m -202.222,-6.13 v -0.93 c -11.139,-0.19 -22.197,-0.94 -33.233,-2.02 v 0.95 c 11.038,1.07 22.098,1.81 33.233,2 z m 309.764,-1.06 v 0.98 c 3.932,-0.94 9.575,-1.4 10.009,-1.43 8.28,-0.64 16.547,-0.98 24.824,-1.15 v -0.94 c -8.317,0.17 -16.624,0.51 -24.946,1.15 -0.431,0.04 -5.862,0.49 -9.887,1.39 z m -95.136,-8.25 c -1.008,0.3 -1.996,0.62 -2.956,0.95 -3.745,1.3 -7.066,2.86 -9.45,4.71 v 1.36 c 2.285,-2.09 5.873,-3.8 9.95,-5.21 0.801,-0.28 1.621,-0.54 2.456,-0.8 z m -107.542,-6.98 c -3.983,0.85 -7.965,1.72 -11.951,2.6 v 0.98 c 3.987,-0.88 7.969,-1.75 11.951,-2.6 z m 202.678,-4.85 v 0.94 c 11.609,-0.56 23.236,-0.98 34.833,-1.49 v -0.94 c -11.596,0.51 -23.222,0.93 -34.833,1.49 z m -95.136,-3.95 c -4.174,0.85 -8.308,1.56 -12.406,2.23 v 0.95 c 4.099,-0.66 8.233,-1.37 12.406,-2.2 z m 95.136,-9.99 v 0.94 c 11.597,-0.82 23.196,-1.35 34.833,-1.68 v -0.94 c -11.637,0.33 -23.237,0.86 -34.833,1.68 z m -309.764,-8.95 c -11.144,1.22 -22.252,2.85 -33.233,5.54 v 0.98 c 10.979,-2.71 22.087,-4.34 33.233,-5.57 z m 309.764,-4.67 v 0.94 c 6.258,0.47 12.514,0.77 18.76,0.77 5.349,0 10.708,-0.06 16.073,-0.14 v -0.94 c -5.368,0.08 -10.726,0.14 -16.073,0.14 -6.245,0 -12.498,-0.3 -18.76,-0.77 z m -309.764,-6.59 c -0.864,0.19 -1.726,0.38 -2.585,0.59 -10.156,2.41 -20.376,4.48 -30.648,6.28 v 0.97 c 10.393,-1.82 20.733,-3.92 31.007,-6.36 0.74,-0.17 1.482,-0.34 2.226,-0.5 z m 107.086,4.39 c -3.982,0.03 -7.967,0.06 -11.951,0.12 v 0.94 c 3.983,-0.06 7.968,-0.1 11.951,-0.13 z m 107.542,-3.41 c -4.134,0.14 -8.27,0.31 -12.406,0.49 v 0.95 c 4.137,-0.2 8.271,-0.36 12.406,-0.5 z M 425.332,1863.2 c -3.97,1.27 -7.946,2.55 -11.951,3.81 v 1 c 4.005,-1.26 7.98,-2.54 11.951,-3.82 z m -107.086,-1.23 c -11.118,0.85 -22.445,1.12 -33.233,0.43 v 0.95 c 10.792,0.68 22.116,0.41 33.233,-0.44 z m 309.764,-7.98 v 0.97 c 11.612,2.35 23.081,5.37 34.833,7.59 v -0.96 c -11.749,-2.23 -23.218,-5.25 -34.833,-7.6 z m -309.764,-2.84 v -0.94 c -8.852,0.33 -17.676,0.39 -26.565,0.39 -2.18,0 -4.354,-0.16 -6.525,-0.44 -0.08,0.3 -0.129,0.62 -0.14,0.94 2.218,0.28 4.439,0.44 6.665,0.44 8.888,0 17.712,-0.06 26.565,-0.39 z m 214.628,-2.7 c -4.149,0.06 -8.288,0.14 -12.406,0.23 v 0.95 c 4.118,-0.1 8.256,-0.18 12.406,-0.24 z"
           style="fill:#673b11"
           id="path2112" />
      </g>
      <g
         transform="translate(1087.73,-503.733)"
         id="g2118">
        <path
           d="m 406.907,1847.06 h -82.853 v 5.17 c 7.521,8.5 6.889,17.33 0,24.76 v 93.09 c 7.521,8.5 6.889,17.32 0,24.75 v 4.58 h 82.853 v -4.58 c -6.89,-7.43 -7.522,-16.25 0,-24.75 v -93.09 c -6.89,-7.43 -7.522,-16.26 0,-24.76 z m 107.086,0 h -82.852 v 5.72 c 7.521,8.5 6.889,17.32 0,24.75 v 93.09 c 7.521,8.5 6.889,17.33 0,24.76 v 4.03 h 82.852 v -4.03 c -6.889,-7.43 -7.521,-16.26 0,-24.76 v -93.09 c -6.889,-7.43 -7.521,-16.25 0,-24.75 z m 106.539,0 H 537.68 v 4.69 c 7.521,8.5 6.889,17.33 0,24.75 v 93.09 c 7.521,8.5 6.889,17.33 0,24.76 v 5.06 h 82.852 v -5.06 c -6.889,-7.43 -7.521,-16.26 0,-24.76 v -93.09 c -6.889,-7.42 -7.521,-16.25 0,-24.75 z"
           style="fill:#b6adad"
           id="path2116" />
      </g>
      <g
         transform="matrix(1.23912,0,0,1.46355,604.084,-188.148)"
         id="g2122">
        <rect
           x="824.229"
           y="1066.53"
           width="66.863998"
           height="63.603001"
           style="fill:#e6dfdf"
           id="rect2120" />
      </g>
      <g
         transform="translate(801.177,302.07)"
         id="g2126">
        <path
           d="m 824.229,1070.7 77.166,5.68 5.686,87.41 v -93.09 z"
           style="fill:#d6d6d6"
           id="path2124" />
      </g>
      <g
         transform="rotate(180,1266.245,1268.28)"
         id="g2130">
        <path
           d="m 824.229,1070.7 77.166,5.68 5.686,87.41 v -93.09 z"
           style="fill:#f8f8f8"
           id="path2128" />
      </g>
      <g
         transform="matrix(-1,0,0,1,2532.49,302.07)"
         id="g2134">
        <path
           d="m 824.229,1070.7 77.166,5.68 5.686,87.41 v -93.09 z"
           style="fill:#f8f8f8"
           id="path2132" />
      </g>
      <g
         transform="translate(801.177,302.07)"
         id="g2138">
        <path
           d="m 903.443,1051.25 h -75.576 c 1.655,3.35 2.121,6.69 1.512,9.93 h 72.552 c -0.609,-3.24 -0.143,-6.58 1.512,-9.93 z"
           style="fill:#d2d1d1"
           id="path2136" />
      </g>
      <g
         transform="translate(801.177,419.927)"
         id="g2142">
        <path
           d="m 903.443,1051.25 h -75.576 c 1.655,3.35 2.121,6.69 1.512,9.93 h 72.552 c -0.609,-3.24 -0.143,-6.58 1.512,-9.93 z"
           style="fill:#d2d1d1"
           id="path2140" />
      </g>
      <g
         transform="translate(801.177,302.07)"
         id="g2146">
        <path
           d="m 902.431,1053.73 h -73.552 c 0.266,0.83 0.462,1.66 0.587,2.48 h 72.378 c 0.125,-0.82 0.321,-1.65 0.587,-2.48 z"
           style="fill:#f0f0f0"
           id="path2144" />
      </g>
      <g
         transform="translate(801.177,419.927)"
         id="g2150">
        <path
           d="m 902.431,1053.73 h -73.552 c 0.266,0.83 0.462,1.66 0.587,2.48 h 72.378 c 0.125,-0.82 0.321,-1.65 0.587,-2.48 z"
           style="fill:#f0f0f0"
           id="path2148" />
      </g>
      <g
         transform="matrix(1,0,0,-1,801.177,2536.56)"
         id="g2154">
        <path
           d="m 824.229,1070.7 77.166,5.68 5.686,87.41 v -93.09 z"
           style="fill:#d6d6d6"
           id="path2152" />
      </g>
      <g
         transform="matrix(1.23912,0,0,1.46355,390.459,-187.661)"
         id="g2158">
        <rect
           x="824.229"
           y="1066.53"
           width="66.863998"
           height="63.603001"
           style="fill:#e6dfdf"
           id="rect2156" />
      </g>
      <g
         transform="translate(587.551,302.557)"
         id="g2162">
        <path
           d="m 824.229,1070.7 77.166,5.68 5.686,87.41 v -93.09 z"
           style="fill:#d6d6d6"
           id="path2160" />
      </g>
      <g
         transform="rotate(180,1159.43,1268.52)"
         id="g2166">
        <path
           d="m 824.229,1070.7 77.166,5.68 5.686,87.41 v -93.09 z"
           style="fill:#f8f8f8"
           id="path2164" />
      </g>
      <g
         transform="matrix(-1,0,0,1,2318.86,302.557)"
         id="g2170">
        <path
           d="m 824.229,1070.7 77.166,5.68 5.686,87.41 v -93.09 z"
           style="fill:#f8f8f8"
           id="path2168" />
      </g>
      <g
         transform="translate(587.551,302.557)"
         id="g2174">
        <path
           d="m 903.443,1051.25 h -75.576 c 1.655,3.35 2.121,6.69 1.512,9.93 h 72.552 c -0.609,-3.24 -0.143,-6.58 1.512,-9.93 z"
           style="fill:#d2d1d1"
           id="path2172" />
      </g>
      <g
         transform="translate(587.551,420.414)"
         id="g2178">
        <path
           d="m 903.443,1051.25 h -75.576 c 1.655,3.35 2.121,6.69 1.512,9.93 h 72.552 c -0.609,-3.24 -0.143,-6.58 1.512,-9.93 z"
           style="fill:#d2d1d1"
           id="path2176" />
      </g>
      <g
         transform="translate(587.551,302.557)"
         id="g2182">
        <path
           d="m 902.431,1053.73 h -73.552 c 0.266,0.83 0.462,1.66 0.587,2.48 h 72.378 c 0.125,-0.82 0.321,-1.65 0.587,-2.48 z"
           style="fill:#f0f0f0"
           id="path2180" />
      </g>
      <g
         transform="translate(587.551,420.414)"
         id="g2186">
        <path
           d="m 902.431,1053.73 h -73.552 c 0.266,0.83 0.462,1.66 0.587,2.48 h 72.378 c 0.125,-0.82 0.321,-1.65 0.587,-2.48 z"
           style="fill:#f0f0f0"
           id="path2184" />
      </g>
      <g
         transform="matrix(1,0,0,-1,587.551,2537.04)"
         id="g2190">
        <path
           d="m 824.229,1070.7 77.166,5.68 5.686,87.41 v -93.09 z"
           style="fill:#d6d6d6"
           id="path2188" />
      </g>
      <g
         transform="matrix(1.23912,0,0,1.46355,497.545,-187.119)"
         id="g2194">
        <rect
           x="824.229"
           y="1066.53"
           width="66.863998"
           height="63.603001"
           style="fill:#e6dfdf"
           id="rect2192" />
      </g>
      <g
         transform="translate(694.638,303.099)"
         id="g2198">
        <path
           d="m 824.229,1070.7 77.166,5.68 5.686,87.41 v -93.09 z"
           style="fill:#d6d6d6"
           id="path2196" />
      </g>
      <g
         transform="rotate(180,1212.975,1268.79)"
         id="g2202">
        <path
           d="m 824.229,1070.7 77.166,5.68 5.686,87.41 v -93.09 z"
           style="fill:#f8f8f8"
           id="path2200" />
      </g>
      <g
         transform="matrix(-1,0,0,1,2425.95,303.099)"
         id="g2206">
        <path
           d="m 824.229,1070.7 77.166,5.68 5.686,87.41 v -93.09 z"
           style="fill:#f8f8f8"
           id="path2204" />
      </g>
      <g
         transform="translate(694.638,303.099)"
         id="g2210">
        <path
           d="m 903.443,1051.25 h -75.576 c 1.655,3.35 2.121,6.69 1.512,9.93 h 72.552 c -0.609,-3.24 -0.143,-6.58 1.512,-9.93 z"
           style="fill:#d2d1d1"
           id="path2208" />
      </g>
      <g
         transform="translate(694.638,420.956)"
         id="g2214">
        <path
           d="m 903.443,1051.25 h -75.576 c 1.655,3.35 2.121,6.69 1.512,9.93 h 72.552 c -0.609,-3.24 -0.143,-6.58 1.512,-9.93 z"
           style="fill:#d2d1d1"
           id="path2212" />
      </g>
      <g
         transform="translate(694.638,303.099)"
         id="g2218">
        <path
           d="m 902.431,1053.73 h -73.552 c 0.266,0.83 0.462,1.66 0.587,2.48 h 72.378 c 0.125,-0.82 0.321,-1.65 0.587,-2.48 z"
           style="fill:#f0f0f0"
           id="path2216" />
      </g>
      <g
         transform="translate(694.638,420.956)"
         id="g2222">
        <path
           d="m 902.431,1053.73 h -73.552 c 0.266,0.83 0.462,1.66 0.587,2.48 h 72.378 c 0.125,-0.82 0.321,-1.65 0.587,-2.48 z"
           style="fill:#f0f0f0"
           id="path2220" />
      </g>
      <g
         transform="matrix(1,0,0,-1,694.638,2537.58)"
         id="g2226">
        <path
           d="m 824.229,1070.7 77.166,5.68 5.686,87.41 v -93.09 z"
           style="fill:#d6d6d6"
           id="path2224" />
      </g>
      <g
         transform="matrix(1.24568,0,0,0.884167,2.99067,424.776)"
         id="g2230">
        <ellipse
           cx="1251.25"
           cy="1126.97"
           rx="24.083"
           ry="33.93"
           id="ellipse2228" />
      </g>
      <g
         transform="matrix(1.19658,-0.154577,0.154577,1.19658,450.782,90.0057)"
         id="g2234">
        <path
           d="m 880.172,1242.59 c -4.2,3.23 -9.46,5.15 -15.164,5.15 -13.749,0 -24.912,-11.17 -24.912,-24.92 0,-13.74 11.163,-24.91 24.912,-24.91 1.349,0 2.673,0.11 3.964,0.32 -5.927,4.55 -9.748,11.71 -9.748,19.76 0,12.4 9.08,22.69 20.948,24.6 z"
           id="path2232" />
      </g>
      <g
         transform="translate(501.31,391.804)"
         id="g2238">
        <path
           d="m 951.897,997.676 7.66,23.574 h 24.789 l -20.055,14.57 7.66,23.58 -20.054,-14.57 -20.055,14.57 7.66,-23.58 -20.054,-14.57 h 24.789 z"
           id="path2236" />
      </g>
    </g>
  </g>
</svg>
