<?xml version="1.0" encoding="UTF-8"?>
<!-- Created with Inkscape (http://www.inkscape.org/) -->
<svg id="svg2737" width="145mm" height="193.03mm" version="1.1" viewBox="0 0 145 193.03" xmlns="http://www.w3.org/2000/svg">
 <g id="layer1" transform="translate(-32.502 -51.987)">
  <g id="g4511" transform="translate(250.85 93.469)">
   <path id="path961" d="m-111.33 14.615c-1.405-.63331 8.786-6.9464 11.061-6.6748 5.9465.71276 6.1927 6.0851 6.1927 10.595 0 1.7408-.42418 3.6507-1.5482 5.0864-6.0281 7.699-13.366-7.9514-15.705-9.0064z" style="-inkscape-stroke:none;clip-rule:evenodd;fill-rule:evenodd;fill:#db6035;font-variation-settings:normal;stop-color:#000000;stroke-width:2.9468px;stroke:#000000"/>
   <path id="path961-5" d="m-172.73 21.424c-.72657 1.3591-6.3384-9.2342-5.914-11.485 1.112-5.8849 6.4887-5.7685 10.988-5.4645 1.7368.11735 3.6138.66929 4.9705 1.8875 7.2752 6.5334-8.8343 12.8-10.045 15.062z" style="-inkscape-stroke:none;clip-rule:evenodd;fill-rule:evenodd;fill:#db6035;font-variation-settings:normal;stop-color:#000000;stroke-width:2.9468px;stroke:#000000"/>
   <path id="path859" d="m-131.91 105.75c-.30779.0322-.69969-.60844-.86431-.34539-.57801.92337.0931 4.0729 0 5.1895-.28991 3.4662-.79097 6.9092-1.0379 10.379-.37222 5.202-.17716 10.399-1.0379 15.568-.15745.95379-1.5676 5.78-1.0379 6.5746.21654.3239 9.5182.53327 10.379.69075 10.986 1.997 21.701 8.3282 32.867 5.5366 1.1435-.28633 2.4319-.21476 3.4608-1.0397.96631-.77306 1.7465-3.0564 2.0758-4.1498 2.2798-7.6035-5.1179-12.831-11.764-13.494-6.1522-.61378-12.324.22728-18.337 1.7304-3.0529.76412-5.6888 1.8306-8.6503 2.423-.25053.0501-.54758.55832-.69075.34536-.86608-1.2992-.12705-5.0428-.34536-6.5728-.73011-5.1143.0322-10.885 1.0379-15.916.33642-1.6857 1.4083-4.7833.69252-6.5728-.62275-1.555-5.5581-.46524-6.7481-.34713z" style="clip-rule:evenodd;fill-rule:evenodd;fill:#db6035;stroke-linecap:round;stroke-linejoin:round;stroke-width:2.9705px;stroke:#000000"/>
   <path id="path862" d="m-146.78 105.68c4.1337 2.2279 1.904 12.244 1.904 16.606 0 5.4114 1.0379 10.762 1.0379 16.261 0 .70863.19862 4.0514-.69252 4.4969-.77843.39013-2.9222.22191-3.8062.34716-3.5288.50287-6.8358 1.335-10.379 1.7304-8.1386.90369-18.219 3.7865-25.257-2.0758-4.0872-3.4089-7.3279-14.298-.69074-16.954 6.154-2.4623 16.367.98423 22.143 3.4591.8178.3525 9.6775 4.1587 9.6864 4.1534.58335-.39013.34716-8.2835.34716-9.3429 0-4.8441.66926-9.418-.69252-14.185-.25233-.87683-1.4835-3.3946-.34716-4.1516 1.1435-.76232 5.4078-1.0683 6.7463-.34536z" style="clip-rule:evenodd;fill-rule:evenodd;fill:#db6035;stroke-linecap:round;stroke-linejoin:round;stroke-width:2.9705px;stroke:#000000"/>
   <path id="path865" d="m-180.2 131.51c.89521-3.0401 4.4246-4.8287 7.1238-4.034" style="clip-rule:evenodd;fill:none;stroke-linecap:round;stroke-linejoin:round;stroke-width:3.048px;stroke:#000000"/>
   <path id="path868" d="m-149.43 111.24c-9.3497-3.6749-19-10.927-24.129-20.451-3.2894-6.1061-6.08-13.401-10.461-18.588-5.0866-6.0234-13.018-7.0774-18.051.81616-5.4606 8.5662-2.6708 20.952 3.6025 27.028 8.759 8.4854 22.424 11.291 33.52 14.558 2.0552.60521 12.541 2.0515 14.68 1.0771 1.2263-.55867 1.6268-4.1305.83905-4.4408z" style="clip-rule:evenodd;fill-rule:evenodd;fill:#704306;stroke-linecap:round;stroke-linejoin:round;stroke-width:2.9481px;stroke:#000000"/>
   <path id="path871" d="m-163.02 105.92c-1.6167 1.5386-3.8787 2.5029-5.3026 4.2103" style="clip-rule:evenodd;fill:none;stroke-linecap:round;stroke-linejoin:round;stroke-width:1.1659px;stroke:#000000"/>
   <path id="path874" d="m-171.23 96.656c-3.0612 3.6726-8.0537 5.3645-11.086 8.9989" style="clip-rule:evenodd;fill:none;stroke-linecap:round;stroke-linejoin:round;stroke-width:2.4318px;stroke:#000000"/>
   <path id="path877" d="m-177.81 88.227c-5.6318-1.6585-12.986 3.9995-17.416 8.215" style="clip-rule:evenodd;fill:none;stroke-linecap:round;stroke-linejoin:round;stroke-width:3.3811px;stroke:#000000"/>
   <path id="path880" d="m-182.54 75.653c-3.9572-1.1653-14.21 3.5106-17.026 6.8881" style="clip-rule:evenodd;fill:none;stroke-linecap:round;stroke-linejoin:round;stroke-width:3.1979px;stroke:#000000"/>
   <path id="path883" d="m-191.82 68.954c-2.8009 9.5116-4.827 19.334-3.6079 29.233" style="clip-rule:evenodd;fill:none;stroke-linecap:round;stroke-linejoin:round;stroke-width:2.9481px;stroke:#000000"/>
   <path id="path886" d="m-182.45 77.481c-1.7409 5.9119-3.1203 22.11-.81439 27.171" style="clip-rule:evenodd;fill:none;stroke-linecap:round;stroke-linejoin:round;stroke-width:3.3478px;stroke:#000000"/>
   <path id="path889" d="m-174.28 92.152c.67857 5.5051 2.1779 12.789 5.2873 17.064" style="clip-rule:evenodd;fill:none;stroke-linecap:round;stroke-linejoin:round;stroke-width:3.0314px;stroke:#000000"/>
   <path id="path892" d="m-90.128 146.63c1.6571-3.3141-4.4701-5.8677-6.5746-6.9199" style="clip-rule:evenodd;fill-opacity:.01;fill-rule:evenodd;fill:#f1c94c;stroke-linecap:round;stroke-linejoin:round;stroke-width:4.0263px;stroke:#000000"/>
   <path id="path895" d="m-127.61 63.329c.0537-1.8342 15.223 6.0144 18.358 7.7108 7.3458 3.9762 9.4896 1.2795 17.066.33462.91802-.11451 2.8059 1.4763 2.5464 2.491-.52967 2.0597-4.556 2.8882-3.987 4.7958.19148.64601 1.0576.84643 1.4871 1.3618 2.3532 2.8274 6.0484 9.3751 5.3738 13.201-.51895 2.9473-4.1194.136-5.1358-.27556-5.0052-2.0311-4.8996-7.1633-8.7595-10.026-5.8194-4.3144-14.642-4.862-20.86-8.228-1.505-.816-3.3785-.69609-4.8674-1.8002-3.0976-2.2959-1.3206-6.231-1.2222-9.5648z" style="clip-rule:evenodd;fill-rule:evenodd;fill:#db6035;stroke-linecap:round;stroke-linejoin:round;stroke-width:2.9705px;stroke:#000000"/>
   <path id="path898" d="m-148.47 65.765c-2.8614-1.3832-5.1805.66929-8.1296 1.0361-4.3717.54758-8.7666.89834-13.147 1.3851-3.1513.35074-6.0305 1.7286-9.3411 1.7286-1.7716 0-9.5987-.3919-10.034.69255-2.0275 5.0714 6.1236 3.9959 7.6124 6.2274.40622.612-.41338 1.1059-.69252 1.3851-1.1399 1.1399-8.1242 10.25-4.8441 11.07 5.517 1.3797 13.004-9.5307 17.299-12.108 4.9408-2.9652 10.492-2.9025 15.916-3.8062 1.7465-.29168 4.6902.76949 6.2274 0 2.2494-1.1256.72295-6.843-.86609-7.6107z" style="clip-rule:evenodd;fill-rule:evenodd;fill:#db6035;stroke-linecap:round;stroke-linejoin:round;stroke-width:2.9705px;stroke:#000000"/>
   <path id="path901" d="m-123.69 61.356c.94483-.35433 1.3994 3.6398 1.5568 4.6723.79991 5.1949 1.6749 10.334 2.0776 15.568 1.394 18.127 5.8516 36.096-16.261 42.899-16.497 5.0768-29.433-9.7616-28.023-25.255.78201-8.6092 6.4171-15.384 9.3411-23.181 1.0522-2.8077 3.2855-12.974 5.1895-14.876 2.0239-2.0257 6.2936-.73906 8.6485-.34716 3.6827.61378 14.157 1.768 17.471.51895z" style="clip-rule:evenodd;fill-rule:evenodd;fill:#db6035;stroke-linecap:round;stroke-linejoin:round;stroke-width:2.9705px;stroke:#000000"/>
   <path id="path1017" d="m-153.85 63.321c.33761 0 4.5619-.4105 4.4904-.0805-.53216 2.4763 6.1556 9.5102 12.616 8.7777 8.8607-1.0028 10.068-7.4229 10.869-7.4229h17.614c.81542 0 5.2729-.72241 5.6449-.22603.35906.47924-.0286 13.805-.45064 14.227-1.6923 1.6923-7.4473.18164-9.4844-.22458-.33043-.068-.75387-.7539-.90408-.45204-.10578.21315.12026.46493.22601.67662 1.3118 2.625 6.7807 33.644 5.7665 36.058-4.0341 9.6075-62.77 9.1899-60.963 1.0243.19455-.87971.36478-2.5276.45207-3.3875.71382-7.1454 7.7949-29.372 6.8708-30.758-.36906-.55509-7.6176 2.6866-8.3557 1.5806-.96702-1.452-3.8953-18.253-3.1615-18.744 1.4348-.95557 13.31-.90564 18.77-1.0486z" style="clip-rule:evenodd;fill-rule:evenodd;fill:#42ca00;stroke-linecap:round;stroke-linejoin:round;stroke-miterlimit:10;stroke-width:3.0613px;stroke:#000000"/>
   <path id="path1020" d="m-136.62 78.525c-4.3037.26842-8.0766 2.5783-10.408 5.6828-3.109 4.1394-4.4097 9.4456-4.0578 14.536.35192 5.0905 2.6036 10.43 7.6786 12.893 5.0751 2.4636 11.708 1.3967 19.328-3.2855 1.8812-1.1551 2.4696-3.6167 1.3141-5.4976-1.1562-1.8802-3.6176-2.467-5.4978-1.3108-6.3597 3.9078-9.9049 3.7511-11.656 2.9009-1.7511-.85-2.9728-3.0455-3.1945-6.2526-.22172-3.2071.80523-6.9625 2.4745-9.185 1.6692-2.2225 3.2262-3.1593 6.382-2.3068 3.3418 1.4405 6.5171 6.3636 9.5626 5.0574.99555-.46331 2.0954-1.8106 2.3242-2.9569.22887-1.1464-.0143-1.8638-.19221-2.3487-.35595-.9697-.702-1.329-1.0345-1.7335-.66511-.80902-1.396-1.4731-2.2613-2.1774-1.7307-1.4089-3.688-2.8485-6.3156-3.558-1.5184-.41013-3.0112-.5474-4.4457-.45773z" style="-inkscape-stroke:none;color:#000000;fill:#fefdff;stroke-miterlimit:10;stroke-width:1.7895"/>
   <path id="path973" d="m-136.6-5.4267c1.8372.48334 3.5005 5.7274 4.0665 6.5377.10435.018.21011.0376.31448.0555.46297-.23855 4.2458-4.0931 5.5277-3.9175.53792.0752.12581 4.3866 3.5794 6.5377.33988.21278.69583.41659 1.1173.58071 1.0986.51911 2.1958 1.0241 3.178 1.6266 12.423 7.6144 33.016 37.269 19.358 50.427-6.4015 6.1658-26.929 8.8731-35.121 8.6475-8.9412-.24479-37.147 1.787-44.719-20.096-4.0009-11.563 8.8556-30.466 17.813-36.44 2.3698-1.5806 5.5236-3.5611 9.6504-5.1584 3.0562-2.7458 3.8015-5.7992 3.4081-6.8414-.0267-.0716-.81756-1.4203-.42952-1.5447 1.2886-.4141 2.8849.59608 4.4666 1.8203 1.7422 1.346 3.471 2.9675 4.7837 3.2828 1.7904.43074 1.4772-4.9134 2.2038-5.3799.27429-.17537.52988-.20775.80285-.1378z" style="clip-rule:evenodd;fill-rule:evenodd;fill:#db6035;stroke-linecap:round;stroke-linejoin:round;stroke-width:2.9468px;stroke:#000000"/>
   <path id="path910" d="m-164.59 13.791c-2.4059-2.3048-4.7382-2.1189-7.9644-2.1189" style="clip-rule:evenodd;fill-rule:evenodd;fill:#e6b728;stroke-linecap:round;stroke-linejoin:round;stroke-width:2.9468px;stroke:#000000"/>
   <path id="path913" d="m-106.91 18.748c3.2395-1.5524 3.5727-2.756 7.5214-2.756" style="clip-rule:evenodd;fill:none;stroke-linecap:round;stroke-linejoin:round;stroke-width:2.9468px;stroke:#000000"/>
   <path id="path919" d="m-124.54 31.209c.99153 0-1.0464-.11096-1.318-.14853-1.4558-.19881-2.8582-.29742-4.3434-.29742-3.5312 0-10.2-.1342-7.9108 5.3493 1.3662 3.2726 7.0732 6.2312 10.548 4.0122 1.8881-1.2049 4.12-4.0661 4.4974-6.2401.12973-.74477.22747-2.287-.77475-2.5266-.0643-.018-1.4157-.14854-.6985-.14854z" style="clip-rule:evenodd;fill-rule:evenodd;stroke-linecap:round;stroke-linejoin:round;stroke-width:2.9468px;stroke:#000000"/>
   <path id="path922" d="m-87.276 29.899c-4.1562.57031-17.236 6.4722-18.531 10.199" style="clip-rule:evenodd;fill:none;stroke-linecap:round;stroke-linejoin:round;stroke-width:2.9468px;stroke:#000000"/>
   <path id="path925" d="m-163.03 37.835c-2.4474-3.6455-17.453-9.1755-21.981-8.068" style="clip-rule:evenodd;fill:none;stroke-linecap:round;stroke-linejoin:round;stroke-width:2.9468px;stroke:#000000"/>
   <path id="path928" d="m-102.67 47.63c2.7391-2.0241 7.5241-.93843 10.341.33067.66236.29866 4.0638 2.7214 3.7306 2.7843" style="clip-rule:evenodd;fill:none;stroke-linecap:round;stroke-linejoin:round;stroke-width:2.9468px;stroke:#000000"/>
   <path id="path931" d="m-164.07 45.22c1.3127.1795-3.0094-1.137-3.2703-1.1934-1.4291-.31155-2.5437-.49623-3.9715-.68842-5.9532-.80883-10.571.0573-15.878 2.4958" style="clip-rule:evenodd;fill:none;stroke-linecap:round;stroke-linejoin:round;stroke-width:2.9468px;stroke:#000000"/>
   <path id="path934" d="m-124.78 50.263c1.5928.64886-2.0492 7.9673-3.329 9.1931-.77144.73835-8.6467.89778-9.6614.24998-.85395-.54507-1.2533-9.0154-.65323-9.1306 1.7012-.32605 12.811-.65191 13.644-.31245z" style="clip-rule:evenodd;fill-rule:evenodd;fill:#fafaf9;stroke-linecap:round;stroke-linejoin:round;stroke-width:2.9454px;stroke:#000000"/>
   <path id="path937" d="m-131.5 50.826c0 2.0479-.20463 6.3963-1.1754 8.2556" style="clip-rule:evenodd;fill-rule:evenodd;fill:#fafaf9;stroke-linecap:round;stroke-linejoin:round;stroke-width:2.9454px;stroke:#000000"/>
   <path id="path946" d="m-112.1 25.556c0-1.1639-1.0116-2.1075-2.2587-2.1075-1.2471 0-2.2587.94361-2.2587 2.1075 0 1.1653 1.0116 2.1075 2.2587 2.1075 1.2471 0 2.2587-.94215 2.2587-2.1075z" style="clip-rule:evenodd;fill-rule:evenodd;stroke-linecap:round;stroke-linejoin:round;stroke-width:2.9468px;stroke:#000000"/>
   <path id="path949" d="m-152.89 25.956c0-1.1959-1.0638-2.1651-2.3778-2.1651-1.314 0-2.3791.96917-2.3791 2.1651 0 1.1946 1.0651 2.1638 2.3791 2.1638 1.314 0 2.3778-.96919 2.3778-2.1638z" style="clip-rule:evenodd;fill-rule:evenodd;fill:#080500;stroke-linecap:round;stroke-linejoin:round;stroke-width:2.9468px;stroke:#000000"/>
   <path id="path997" d="m-118.31 45.909c-2.9211 3.3175-6.7761 5.0966-13.139 5.171-4.959.0573-9.736-.75371-13.885-4.4994" style="clip-rule:evenodd;fill:none;stroke-linecap:round;stroke-linejoin:round;stroke-width:2.9468px;stroke:#000000"/>
  </g>
 </g>
</svg>
