<?xml version="1.0" encoding="utf-8"?>
<svg viewBox="344.775 162.126 21.175 21.167" width="21.175" height="21.167" xmlns="http://www.w3.org/2000/svg">
  <g>
    <g transform="matrix(-0.262589, 0, 0, -0.221993, 492.337738, 233.649292)" id="g3820" style="clip-rule:evenodd;fill-rule:evenodd;stroke-linecap:round;stroke-linejoin:round;stroke-miterlimit:1.5">
      <rect x="481.31299" y="226.83701" width="80.639" height="95.348" style="fill:#dcafcb;stroke:#8030aa;stroke-width:2.18px" id="rect3818"/>
    </g>
    <g transform="matrix(-0.264287, 0, 0, -0.296574, 499.79422, 503.98465)" id="g3852" style="clip-rule: evenodd; fill-rule: evenodd; stroke-linecap: round; stroke-linejoin: round; stroke-miterlimit: 1.5;">
      <path d="m 575.336,1092.62 c 0,-2.17 -1.981,-3.94 -4.42,-3.94 h -51.227 c -2.44,0 -4.42,1.77 -4.42,3.94 v 45.65 c 0,2.18 1.98,3.94 4.42,3.94 h 51.227 c 2.439,0 4.42,-1.76 4.42,-3.94 z" style="fill:#40211f" id="path3850"/>
    </g>
    <g transform="matrix(-0.264583, 0, 0, -0.264583, 505.48703, 466.120117)" id="g3856" style="clip-rule:evenodd;fill-rule:evenodd;stroke-linecap:round;stroke-linejoin:round;stroke-miterlimit:1.5">
      <path d="m 541.068,1128.79 c -2.714,-16.32 -5.649,-48.76 -0.445,-51.57 -2.437,0 -4.415,1.97 -4.415,4.41 v 51.17 c 0,2.44 1.978,4.42 4.415,4.42 h 51.17 c 1.163,0 2.222,-0.45 3.011,-1.19 0.77,-0.72 -32.035,-2.14 -49.321,-2.82 -2.436,0 -4.415,-1.98 -4.415,-4.42 z" style="fill:#271817" id="path3854"/>
    </g>
    <g transform="matrix(-0.252687, 0, 0, -0.252628, 498.765808, 452.883026)" id="g3860" style="clip-rule: evenodd; fill-rule: evenodd; stroke-linecap: round; stroke-linejoin: round; stroke-miterlimit: 1.5;">
      <path d="m 540.623,1077.22 c -2.092,0 -0.946,3.34 3.908,3.25 11.81,-0.22 32.502,-0.59 35.4,-0.57 14.709,0.12 15.793,6.93 13.428,15.93 -4.423,16.82 -0.554,49.93 2.849,36.97 v -51.17 c 0,-2.44 -1.979,-4.41 -4.415,-4.41 z" style="fill:#664f4d" id="path3858"/>
    </g>
  </g>
</svg>