<?xml version="1.0" encoding="UTF-8" standalone="no"?>
<svg
   sodipodi:docname="2022-CA-06-explanationC10.svg"
   inkscape:version="1.1.1 (3bf5ae0d25, 2021-09-20)"
   id="svg3011"
   version="1.1"
   viewBox="0 0 596.61407 128.73436"
   height="128.73436mm"
   width="596.61407mm"
   xmlns:inkscape="http://www.inkscape.org/namespaces/inkscape"
   xmlns:sodipodi="http://sodipodi.sourceforge.net/DTD/sodipodi-0.dtd"
   xmlns="http://www.w3.org/2000/svg"
   xmlns:svg="http://www.w3.org/2000/svg"
   xmlns:rdf="http://www.w3.org/1999/02/22-rdf-syntax-ns#"
   xmlns:cc="http://creativecommons.org/ns#"
   xmlns:dc="http://purl.org/dc/elements/1.1/">
  <defs
     id="defs3005" />
  <sodipodi:namedview
     showgrid="false"
     inkscape:document-rotation="0"
     inkscape:current-layer="g965"
     inkscape:document-units="mm"
     inkscape:cy="802.85714"
     inkscape:cx="-177.14286"
     inkscape:zoom="0.175"
     inkscape:pageshadow="2"
     inkscape:pageopacity="0.0"
     borderopacity="1.0"
     bordercolor="#666666"
     pagecolor="#ffffff"
     id="base"
     inkscape:pagecheckerboard="0"
     inkscape:window-width="1680"
     inkscape:window-height="1027"
     inkscape:window-x="1912"
     inkscape:window-y="-8"
     inkscape:window-maximized="1" />
  <metadata
     id="metadata3008">
    <rdf:RDF>
      <cc:Work
         rdf:about="">
        <dc:format>image/svg+xml</dc:format>
        <dc:type
           rdf:resource="http://purl.org/dc/dcmitype/StillImage" />
      </cc:Work>
    </rdf:RDF>
  </metadata>
  <g
     transform="translate(-111.76639,-127.8353)"
     id="layer1"
     inkscape:groupmode="layer"
     inkscape:label="Ebene 1">
    <g
       transform="matrix(0.26458333,0,0,0.26458333,78.652716,-282.21091)"
       style="clip-rule:evenodd;fill-rule:evenodd;stroke-linejoin:round;stroke-miterlimit:2"
       id="g965">
      <g
         id="g3178"
         transform="translate(-1859.7195)">
        <g
           transform="translate(1607.9795,1469.59)"
           id="g380"
           style="clip-rule:evenodd;fill-rule:evenodd;stroke-linejoin:round;stroke-miterlimit:2">
          <g
             transform="matrix(2,0,0,2.02041,-591.438,-1778.77)"
             id="g376">
            <g
               transform="translate(471.528,913.488)"
               id="g308">
              <path
                 d="m 16.917,225.055 c 3.724,6.207 8.521,12.826 16.143,14.35 4.787,0.957 9.855,4.81 15.068,5.023 14.702,0.6 39.033,-2.588 42.69,-17.938 0.381,-1.598 0.14,-3.191 0.14,-3.191 v -36.604 c 0,0 -1.063,-5.729 -4.135,-8.956 -2.82,-2.961 -6.617,-5.24 -9.87,-6.866 -13.188,-6.594 -32.43,-8.562 -46.278,-3.946 -7.559,2.519 -16.861,5.786 -16.861,13.991 l -0.019,-0.571 v 38.033 c 0,0 2.553,5.727 3.122,6.675 z"
                 style="fill:#878990"
                 id="path306" />
            </g>
            <g
               transform="translate(471.281,913.505)"
               id="g312">
              <path
                 d="m 13.814,180.2 c -1.209,1.209 2.694,11.765 3.263,12.714 3.725,6.207 7.711,7.812 14.397,11.777 2.341,1.388 7.796,3.76 15.629,4.537 15.176,1.505 39.309,-2.649 43.482,-19.342 2.342,-9.365 -6.834,-15.614 -13.632,-19.013 -13.188,-6.594 -32.43,-8.562 -46.278,-3.946 -7.559,2.519 -16.861,5.786 -16.861,13.991"
                 style="fill:#c8cad3;stroke:#000000;stroke-width:0.8px"
                 id="path310" />
            </g>
            <g
               transform="translate(471.514,950.109)"
               id="g316">
              <path
                 d="m 13.562,143.744 v 38.032 c 0,0 2.552,5.727 3.122,6.675 3.724,6.208 7.934,11.419 15.001,14.656 3.972,1.819 10.346,4.3 16.209,4.717 15.212,1.082 38.518,-1.245 42.691,-17.938 0.14,-3.191 0.14,-3.191 0.14,-3.191 v -36.604 c -5.507,-22.122 -65.3,-32.879 -77.163,-6.347 z"
                 style="fill:none;stroke:#000000;stroke-width:1.82px;stroke-linecap:round;stroke-miterlimit:1.5"
                 id="path314"
                 sodipodi:nodetypes="ccccscccc" />
            </g>
            <g
               transform="matrix(0.90863,0,0,0.889522,-4.32138,523.885)"
               id="g374">
              <path
                 d="m 557.512,641.57 c -0.678,0.598 -0.818,-6.253 -0.818,-7.282 0,-4.66 -0.629,-9.532 -0.629,-14.15 0,-14.312 0.232,-28.957 1.076,-43.298 1.716,-29.175 -0.538,-58.821 -0.538,-87.94 0,-7.434 1.076,-14.655 1.076,-22.052 0,-3.778 -1.987,-7.24 0.538,-11.026 5.07,-7.605 23.146,-10.001 31.464,-8.337 1.941,0.388 3.995,3.042 5.648,4.034 13.665,8.199 10.065,29.985 10.488,44.373 0.159,5.388 0.269,10.741 0.269,16.136 0,27.468 -1.144,54.828 0,82.293 0.338,8.118 0.315,19.036 0.028,27.123 -0.331,9.273 -0.291,18.397 -2.45,25.068 -2.413,7.459 -14.904,15.78 -28.853,11.13 -7.208,-2.403 -18.117,-8.027 -18.117,-16.362"
                 style="fill:#c8cad3"
                 id="path318" />
              <path
                 d="m 555.465,640.33 c -0.196,0.264 -0.312,0.593 -0.312,0.95 0,3.764 1.906,7.072 4.792,9.819 3.995,3.805 9.881,6.537 14.388,8.039 8.875,2.958 17.192,0.956 22.979,-2.82 3.98,-2.597 6.759,-6.048 7.815,-9.312 2.196,-6.789 2.19,-16.069 2.526,-25.505 0.289,-8.123 0.312,-19.092 -0.027,-27.247 -1.144,-27.442 10e-4,-54.78 10e-4,-82.226 0,-5.411 -0.111,-10.779 -0.27,-16.183 -0.256,-8.715 0.927,-20.118 -1.047,-29.635 -1.396,-6.73 -4.346,-12.536 -10.201,-16.048 -0.942,-0.566 -2.011,-1.714 -3.122,-2.61 -0.991,-0.799 -2.023,-1.414 -3.009,-1.612 -5.17,-1.034 -13.98,-0.576 -21.334,1.675 -5.115,1.566 -9.509,4.033 -11.701,7.321 -1.503,2.254 -1.69,4.406 -1.475,6.562 0.176,1.759 0.67,3.516 0.67,5.35 0,7.397 -1.076,14.618 -1.076,22.052 0,29.088 2.255,58.702 0.541,87.846 -0.845,14.372 -1.079,29.049 -1.079,43.392 0,4.618 0.629,9.49 0.629,14.15 0,0.704 0.068,4.026 0.312,6.042 z m 2.929,2.533 c 0.454,2.238 1.841,4.209 3.652,5.934 3.672,3.497 9.101,5.968 13.243,7.348 7.864,2.622 15.236,0.866 20.364,-2.48 3.297,-2.151 5.673,-4.943 6.548,-7.646 2.121,-6.555 2.048,-15.522 2.373,-24.632 0.286,-8.05 0.31,-18.918 -0.027,-26.999 -1.145,-27.487 -0.002,-54.87 -0.002,-82.36 0,-5.38 -0.11,-10.716 -0.268,-16.088 -0.21,-7.159 0.587,-16.159 -0.27,-24.389 -0.807,-7.75 -3.055,-14.833 -9.458,-18.675 -0.89,-0.534 -1.898,-1.501 -2.934,-2.401 -0.744,-0.647 -1.479,-1.295 -2.23,-1.445 -4.812,-0.963 -13.01,-0.495 -19.856,1.6 -4.351,1.332 -8.175,3.281 -10.039,6.078 -1.254,1.88 -1.099,3.675 -0.826,5.477 0.232,1.529 0.556,3.07 0.556,4.663 0,7.397 -1.076,14.618 -1.076,22.052 0,29.15 2.253,58.828 0.535,88.035 -0.842,14.309 -1.073,28.922 -1.073,43.203 0,4.618 0.629,9.49 0.629,14.15 0,0.727 0.053,4.541 0.358,6.161 0.03,0.03 0.059,0.061 0.086,0.094 0.556,0.658 0.483,1.653 -0.161,2.22 -0.041,0.036 -0.082,0.069 -0.124,0.1 z"
                 style="fill:#1a1719"
                 id="path320" />
              <g
                 transform="matrix(1.22462,0,0,1,-128.863,0)"
                 id="g324">
                <path
                   d="m 573.268,450.055 c -0.553,-0.432 -3.786,0.784 -4.411,0.898 -4.364,0.793 -7.534,3.22 -8.296,7.793 -0.326,1.959 1.709,4.423 2.514,6.033 4.661,9.322 23.518,10.296 31.422,5.027 5.594,-3.729 3.899,-8.995 0.503,-13.071 -4.878,-5.854 -12.824,-7.793 -20.11,-7.793"
                   style="fill:#e6eaed"
                   id="path322" />
              </g>
              <path
                 d="m 562.894,475.813 c -1.391,5.447 0.262,12.66 0.432,18.125 0.486,15.534 0.503,31.221 0.503,46.756 0,14.644 0.251,29.318 0.251,43.991 0,15.809 -0.55,32.036 -1.759,47.761 -0.304,3.952 -0.083,14.948 6.787,13.574 2.068,-0.414 2.261,-6.026 2.514,-7.29 1.358,-6.794 2.011,-13.424 2.011,-20.361 0,-32.775 -1.76,-65.501 -1.76,-98.288 0,-10.591 0.754,-21.124 0.754,-31.673 0,-3.384 -0.279,-9.063 -3.77,-10.809 -1.825,-0.913 -3.295,0.502 -5.028,0.502"
                 style="fill:#e6eaed"
                 id="path326" />
              <path
                 d="m 602.732,474.117 c -2.623,0.807 -4.409,2.799 -6.978,3.733 -1.394,0.507 -4.476,0.956 -5.531,2.011 -0.548,0.549 -0.162,5.914 -0.251,6.536 -1.367,9.567 -1.508,18.974 -1.508,28.657 0,31.192 -0.754,62.321 -0.754,93.511 0,9.456 -1.049,21.196 1.257,30.417 0.736,2.947 -1.327,8.98 1.005,11.312 4.641,4.64 10.138,-8.124 10.809,-10.81 3.611,-14.445 2.988,-31.857 2.011,-46.504 -1.046,-15.686 -1.131,-31.284 -0.503,-47.007 0.665,-16.603 1.09,-33.189 2.011,-49.773 0.382,-6.875 -1.005,-14.272 -1.005,-20.864"
                 style="fill:#9ba0a3"
                 id="path328" />
              <path
                 d="m 556.252,456.997 c 0.197,0.524 0.16,1.053 0.028,1.585 -0.16,0.646 -0.458,1.294 -0.75,1.943 -0.716,1.592 -1.333,3.194 -0.716,4.738 1.108,2.77 3.37,5.127 6.129,7.04 4.022,2.787 9.095,4.638 12.971,5.532 6.026,1.391 17.47,0.631 24.372,-3.415 2.896,-1.698 5.002,-3.974 5.705,-6.856 0.47,-1.931 0.319,-4.145 -0.688,-6.661 -0.161,-0.402 -0.611,-0.595 -1.004,-0.431 -0.394,0.164 -0.583,0.624 -0.422,1.026 0.86,2.149 1.021,4.037 0.618,5.686 -0.606,2.487 -2.476,4.405 -4.976,5.871 -6.588,3.862 -17.513,4.572 -23.266,3.245 -3.717,-0.858 -8.587,-2.626 -12.445,-5.3 -2.493,-1.728 -4.567,-3.83 -5.567,-6.332 -0.205,-0.512 -0.175,-1.032 -0.049,-1.555 0.154,-0.641 0.448,-1.285 0.738,-1.931 0.714,-1.586 1.346,-3.192 0.76,-4.75 -0.153,-0.405 -0.599,-0.608 -0.996,-0.452 -0.397,0.156 -0.595,0.611 -0.442,1.017 z"
                 style="fill:#1a1719"
                 id="path330" />
              <path
                 d="m 557.074,476.633 c 1.196,5.949 4.996,9.432 9.894,11.398 7.088,2.844 16.524,2.445 23.309,1.923 2.398,-0.185 8.046,-2.809 11.211,-5.841 1.486,-1.423 2.41,-2.96 2.41,-4.356 0,-0.435 -0.345,-0.787 -0.77,-0.787 -0.425,0 -0.77,0.352 -0.77,0.787 0,0.516 -0.214,1.046 -0.552,1.584 -0.599,0.953 -1.585,1.902 -2.738,2.787 -2.957,2.27 -7.017,4.111 -8.907,4.256 -5.504,0.424 -12.802,0.79 -19.074,-0.705 -6.05,-1.442 -11.149,-4.627 -12.504,-11.362 -0.085,-0.426 -0.493,-0.7 -0.909,-0.613 -0.417,0.088 -0.686,0.504 -0.6,0.929 z"
                 style="fill:#1a1719"
                 id="path332" />
              <path
                 d="m 555.968,487.042 c -0.466,2.426 0.41,4.567 1.948,6.386 2.14,2.531 5.588,4.424 8.042,5.597 9.341,4.468 17.172,4.085 26.675,0.565 1.749,-0.647 3.989,-1.309 5.895,-2.322 1.37,-0.727 2.569,-1.637 3.354,-2.815 0.24,-0.359 0.149,-0.849 -0.203,-1.094 -0.351,-0.244 -0.831,-0.151 -1.07,0.208 -0.822,1.232 -2.212,2.075 -3.71,2.754 -1.619,0.734 -3.372,1.264 -4.791,1.79 -9.083,3.364 -16.569,3.759 -25.497,-0.511 -2.291,-1.096 -5.53,-2.837 -7.529,-5.201 -1.222,-1.444 -1.972,-3.127 -1.602,-5.053 0.082,-0.427 -0.19,-0.841 -0.607,-0.924 -0.417,-0.084 -0.823,0.194 -0.905,0.62 z"
                 style="fill:#1a1719"
                 id="path334" />
              <path
                 d="m 557.82,506.585 c -0.053,0.427 -0.148,0.982 -0.184,1.497 -0.046,0.65 0.014,1.248 0.203,1.626 0.823,1.647 3.126,3.12 4.528,4.055 5.594,3.729 13.407,3.086 19.784,3.086 7.066,0 13.428,-0.895 19.497,-4.687 1.092,-0.683 3.911,-2.825 4.971,-4.657 0.472,-0.817 0.609,-1.604 0.381,-2.247 -0.226,-0.636 -0.824,-1.232 -2.087,-1.527 -0.414,-0.097 -0.828,0.168 -0.923,0.592 -0.094,0.423 0.165,0.846 0.58,0.942 0.279,0.065 0.506,0.145 0.685,0.245 0.148,0.083 0.255,0.168 0.296,0.285 0.095,0.267 -0.063,0.57 -0.259,0.909 -0.943,1.631 -3.477,3.508 -4.449,4.115 -5.815,3.635 -11.92,4.456 -18.692,4.456 -6.1,0 -13.591,0.737 -18.941,-2.83 -1.22,-0.813 -3.283,-2.021 -3.999,-3.453 -0.052,-0.104 -0.05,-0.254 -0.052,-0.42 -0.004,-0.423 0.067,-0.921 0.128,-1.36 0.057,-0.409 0.107,-0.775 0.112,-1.023 0.005,-0.212 -0.023,-0.378 -0.06,-0.492 -0.127,-0.389 -0.389,-0.553 -0.67,-0.601 -0.18,-0.031 -0.508,-0.028 -0.875,0.335 -0.305,0.303 -0.312,0.801 -0.016,1.113 0.013,0.015 0.027,0.028 0.042,0.041 z"
                 style="fill:#1a1719"
                 id="path336" />
              <path
                 d="m 604.982,518.82 c -1.404,0.728 -2.63,1.982 -3.851,3.289 -1.11,1.188 -2.219,2.422 -3.515,3.232 -5.498,3.436 -14.004,7.881 -22.196,9.125 -5.318,0.807 -10.505,0.268 -14.586,-2.895 -1.742,-1.35 -2.387,-2.957 -2.967,-4.568 -0.665,-1.846 -1.257,-3.698 -2.876,-5.318 -0.304,-0.304 -0.792,-0.298 -1.09,0.012 -0.297,0.31 -0.292,0.809 0.012,1.113 1.435,1.435 1.919,3.1 2.507,4.736 0.674,1.871 1.46,3.711 3.482,5.279 4.41,3.416 9.999,4.07 15.744,3.197 8.402,-1.275 17.135,-5.814 22.774,-9.338 1.406,-0.879 2.622,-2.2 3.826,-3.489 1.094,-1.171 2.174,-2.319 3.434,-2.972 0.379,-0.196 0.53,-0.671 0.338,-1.058 -0.193,-0.387 -0.657,-0.542 -1.036,-0.345 z"
                 style="fill:#1a1719"
                 id="path338" />
              <path
                 d="m 555.15,538.515 c -0.296,1.412 0.372,3.049 1.654,4.646 2.659,3.312 7.9,6.583 9.98,7.508 8.77,3.898 23.708,5.722 32.186,0.211 1.322,-0.859 3.383,-2.058 5.021,-3.474 1.19,-1.029 2.153,-2.183 2.556,-3.39 0.137,-0.412 -0.079,-0.859 -0.481,-0.999 -0.403,-0.14 -0.841,0.08 -0.978,0.491 -0.324,0.972 -1.136,1.869 -2.093,2.696 -1.582,1.368 -3.576,2.518 -4.852,3.348 -3.21,2.086 -7.402,3.036 -11.803,3.208 -6.7,0.261 -13.887,-1.288 -18.941,-3.534 -1.685,-0.749 -5.563,-3.126 -8.219,-5.76 -0.851,-0.844 -1.577,-1.713 -2.045,-2.564 -0.396,-0.72 -0.613,-1.414 -0.479,-2.058 0.089,-0.425 -0.176,-0.843 -0.592,-0.934 -0.416,-0.091 -0.826,0.181 -0.914,0.605 z"
                 style="fill:#1a1719"
                 id="path340" />
              <path
                 d="m 557.967,622.511 c -0.008,-0.033 -0.075,-0.303 -0.1,-0.491 -0.032,-0.249 -0.041,-0.589 -0.044,-0.795 0.145,-0.248 0.15,-0.57 -0.013,-0.829 -0.244,-0.388 -0.558,-0.41 -0.749,-0.396 -0.208,0.016 -0.617,0.137 -0.741,0.693 -0.056,0.253 -0.058,0.934 0.02,1.534 0.059,0.455 0.173,0.862 0.288,1.063 1.085,1.899 3.018,3.62 4.769,4.787 5.232,3.488 9.018,5.381 15.013,7.379 8.171,2.724 19.288,0.847 24.951,-5.76 1.029,-1.201 1.609,-2.625 2.2,-4.036 0.52,-1.241 1.045,-2.474 2.033,-3.461 0.303,-0.304 0.309,-0.802 0.011,-1.113 -0.297,-0.31 -0.786,-0.315 -1.089,-0.012 -1.137,1.137 -1.773,2.538 -2.372,3.968 -0.528,1.26 -1.023,2.545 -1.942,3.618 -5.288,6.168 -15.685,7.843 -23.314,5.3 -5.85,-1.95 -9.544,-3.797 -14.649,-7.201 -1.561,-1.04 -3.3,-2.556 -4.272,-4.248 z m -1.194,-1.01 c -0.102,-0.06 -0.191,-0.146 -0.259,-0.253 0.08,0.126 0.169,0.205 0.259,0.253 z"
                 style="fill:#1a1719"
                 id="path350" />
              <path
                 d="m 555.501,602.676 c 0.134,1.215 1.005,2.41 2.312,3.469 2.668,2.163 7.16,3.872 8.986,4.654 10.936,4.687 20.559,7.239 31.556,1.741 1.485,-0.743 4.218,-1.642 6.17,-2.992 1.513,-1.046 2.557,-2.373 2.557,-3.999 0,-0.435 -0.345,-0.787 -0.771,-0.787 -0.425,0 -0.77,0.352 -0.77,0.787 0,1.127 -0.831,1.971 -1.88,2.696 -1.89,1.307 -4.545,2.162 -5.984,2.881 -10.554,5.278 -19.786,2.72 -30.282,-1.778 -1.509,-0.647 -4.912,-1.935 -7.472,-3.604 -0.806,-0.526 -1.527,-1.087 -2.061,-1.682 -0.451,-0.502 -0.77,-1.017 -0.83,-1.562 -0.048,-0.432 -0.43,-0.743 -0.852,-0.694 -0.423,0.048 -0.727,0.438 -0.679,0.87 z"
                 style="fill:#1a1719"
                 id="path354" />
              <path
                 d="m 556.572,588.79 c 0.11,-0.393 -0.097,-0.813 -0.479,-0.954 -0.4,-0.147 -0.842,0.064 -0.986,0.473 -0.221,0.624 -0.056,1.153 0.385,1.61 0.253,0.261 0.625,0.499 1.036,0.716 0.458,0.241 0.974,0.455 1.307,0.711 3.573,2.748 6.492,5.444 10.741,7.143 6.818,2.727 17.4,3.869 25.697,1.118 5.666,-1.878 10.272,-5.553 12.024,-11.685 0.119,-0.417 -0.116,-0.855 -0.524,-0.976 -0.408,-0.122 -0.836,0.118 -0.955,0.535 -1.6,5.6 -5.846,8.914 -11.02,10.629 -7.963,2.64 -18.117,1.531 -24.661,-1.087 -4.11,-1.644 -6.919,-4.276 -10.375,-6.934 -0.453,-0.349 -1.192,-0.649 -1.774,-0.989 -0.125,-0.073 -0.241,-0.147 -0.336,-0.229 -0.025,-0.021 -0.058,-0.056 -0.08,-0.081 z"
                 style="fill:#1a1719"
                 id="path356" />
              <path
                 d="m 558.112,572.811 c 2.128,1.748 3.35,3.978 4.774,6.076 1.541,2.272 3.298,4.4 6.421,5.767 10.169,4.449 22.796,3.023 30.756,-4.937 1.053,-1.053 1.917,-1.729 2.612,-2.303 0.932,-0.771 1.581,-1.398 2.014,-2.348 0.417,-0.916 0.633,-2.156 0.633,-4.207 0,-0.434 -0.345,-0.787 -0.77,-0.787 -0.425,0 -0.771,0.353 -0.771,0.787 0,1.725 -0.138,2.773 -0.489,3.543 -0.334,0.735 -0.866,1.192 -1.587,1.789 -0.723,0.599 -1.623,1.304 -2.72,2.401 -7.522,7.522 -19.462,8.819 -29.071,4.615 -2.812,-1.23 -4.374,-3.17 -5.762,-5.216 -1.506,-2.22 -2.824,-4.558 -5.074,-6.407 -0.332,-0.272 -0.817,-0.218 -1.083,0.12 -0.267,0.339 -0.214,0.835 0.117,1.107 z"
                 style="fill:#1a1719"
                 id="path358" />
              <path
                 d="m 559.528,556.602 c 0.056,-0.118 0.084,-0.252 0.075,-0.393 -0.028,-0.433 -0.395,-0.762 -0.819,-0.734 -0.43,0.029 -0.667,0.244 -0.803,0.497 -0.123,0.228 -0.183,0.604 0.016,1.071 0.492,1.157 3.251,3.997 3.493,4.279 3.076,3.589 7.215,8.242 11.574,10.254 3.821,1.764 9.677,1.797 15.254,0.511 5.58,-1.286 10.863,-3.891 13.562,-7.266 1.449,-1.811 2.294,-5.815 2.911,-8.079 0.114,-0.419 -0.126,-0.853 -0.535,-0.97 -0.41,-0.116 -0.835,0.129 -0.949,0.547 -0.572,2.097 -1.279,5.83 -2.62,7.506 -2.523,3.154 -7.493,5.525 -12.709,6.727 -5.219,1.204 -10.703,1.24 -14.28,-0.41 -4.173,-1.926 -8.104,-6.421 -11.049,-9.856 -0.172,-0.201 -1.7,-1.753 -2.649,-2.979 -0.176,-0.227 -0.356,-0.511 -0.472,-0.705 z"
                 style="fill:#1a1719"
                 id="path360" />
            </g>
          </g>
          <path
             d="m 387.848,471.449 c -0.683,2.05 -1.961,29.989 1.92,37.75 3.426,6.853 4.924,10.647 11.517,15.356 6.656,4.754 9.87,13.573 16.635,16.956 5.255,2.627 5.721,-3.087 6.719,-6.079 3.28,-9.84 1.279,-18.47 1.279,-28.792 0,-2.408 2.425,-9.227 1.6,-10.877 -4.972,-9.944 -20.905,-12.212 -29.752,-16.636 -2.601,-1.3 -8.957,-10.561 -9.918,-7.678 z"
             style="fill:#a1a3ab"
             id="path378" />
        </g>
      </g>
    </g>
  </g>
</svg>
