<?xml version="1.0" encoding="UTF-8" standalone="no"?>
<!-- Created with Inkscape (http://www.inkscape.org/) -->

<svg
   width="99.968109mm"
   height="40.309761mm"
   viewBox="0 0 99.968109 40.309761"
   version="1.1"
   id="svg5232"
   inkscape:version="1.1.1 (3bf5ae0d25, 2021-09-20)"
   sodipodi:docname="2022-MK-01-taskbody05-box.svg"
   xmlns:inkscape="http://www.inkscape.org/namespaces/inkscape"
   xmlns:sodipodi="http://sodipodi.sourceforge.net/DTD/sodipodi-0.dtd"
   xmlns="http://www.w3.org/2000/svg"
   xmlns:svg="http://www.w3.org/2000/svg">
  <sodipodi:namedview
     id="namedview5234"
     pagecolor="#ffffff"
     bordercolor="#666666"
     borderopacity="1.0"
     inkscape:pageshadow="2"
     inkscape:pageopacity="0.0"
     inkscape:pagecheckerboard="0"
     inkscape:document-units="mm"
     showgrid="false"
     inkscape:zoom="0.66368547"
     inkscape:cx="268.9527"
     inkscape:cy="507.01728"
     inkscape:window-width="1680"
     inkscape:window-height="1027"
     inkscape:window-x="1912"
     inkscape:window-y="-8"
     inkscape:window-maximized="1"
     inkscape:current-layer="layer1" />
  <defs
     id="defs5229" />
  <g
     inkscape:label="Ebene 1"
     inkscape:groupmode="layer"
     id="layer1"
     transform="translate(-33.734064,-46.420956)">
    <g
       id="g7671"
       style="clip-rule:evenodd;fill-rule:evenodd;stroke-linecap:round;stroke-linejoin:round;stroke-miterlimit:1.5"
       transform="matrix(0.26458333,0,0,0.26458333,-329.47078,-213.95913)">
      <path
         d="m 1750.575,988.30914 c 0,-2.31554 -1.8833,-4.19542 -4.1954,-4.19542 h -369.4414 c -2.3156,0 -4.1955,1.87988 -4.1955,4.19542 v 143.96076 c 0,2.3152 1.8799,4.1957 4.1955,4.1957 h 369.4414 c 2.3121,0 4.1954,-1.8805 4.1954,-4.1957 z"
         style="fill:#995e26;stroke-width:0.373093"
         id="path518" />
      <path
         d="m 1501.111,1136.465 h -95.135 v -152.35 h 95.135 z m 107.087,0 h -95.136 v -152.35 h 95.136 z m 107.542,0 h -95.136 v -152.35 h 95.136 z"
         style="fill:#57300b"
         id="path522" />
      <path
         d="m 1405.976,1127.125 c -11.221,1.1 -22.262,2.83 -33.233,4.42 v 0.72 c 0,0.08 0,0.16 0.01,0.24 10.97,-1.6 22.009,-3.33 33.227,-4.43 z m 309.764,0.9 v 0.93 c 11.929,-0.01 23.67,0.44 31.919,0.44 l 2.914,0.01 v -0.95 h -2.914 c -8.255,0 -19.985,-0.44 -31.919,-0.43 z m -214.629,-1.9 v 0.94 c 3.992,0.17 7.976,0.36 11.951,0.57 v -0.95 c -3.976,-0.2 -7.96,-0.39 -11.951,-0.56 z m 107.087,-9.59 v 1.02 c 4.012,1.25 8.129,2.46 12.406,3.65 v -1 c -4.276,-1.19 -8.392,-2.41 -12.406,-3.67 z m -235.455,-30.66 v 1.01 c 3.07,0.94 6.067,2.04 8.754,3.29 6.486,3.02 11.193,6.95 10.486,11.86 -0.746,5.18 -5.294,8.21 -10.945,10.07 -2.612,0.86 -5.46,1.48 -8.295,1.93 v 0.96 c 2.994,-0.47 6.013,-1.11 8.774,-2.02 6.059,-2 10.878,-5.28 11.678,-10.84 0.757,-5.25 -4.128,-9.53 -11.067,-12.77 -2.873,-1.33 -6.095,-2.5 -9.385,-3.49 z m 342.997,10.01 v 0.95 c 11.613,1.3 23.219,2.59 34.833,3.81 v -0.95 c -11.617,-1.22 -23.226,-2.51 -34.833,-3.81 z m 0,-15.44 v 1.1 c 3.199,1.53 7.599,2.82 12.663,3.91 6.675,1.43 14.505,2.51 22.17,3.35 v -0.94 c -7.559,-0.84 -15.265,-1.91 -21.844,-3.32 -5.3,-1.13 -9.867,-2.47 -12.989,-4.1 z m -107.542,1.96 v 1.17 c 0.914,0.51 1.968,0.97 3.135,1.38 2.643,0.94 5.868,1.67 9.271,2.23 v -0.95 c -3.213,-0.55 -6.251,-1.24 -8.76,-2.13 -1.409,-0.5 -2.65,-1.07 -3.646,-1.7 z m -202.222,-6.13 v -0.93 c -11.139,-0.19 -22.197,-0.94 -33.233,-2.02 v 0.95 c 11.038,1.07 22.098,1.81 33.233,2 z m 309.764,-1.06 v 0.98 c 3.932,-0.94 9.575,-1.4 10.009,-1.43 8.28,-0.64 16.547,-0.98 24.824,-1.15 v -0.94 c -8.317,0.17 -16.624,0.51 -24.946,1.15 -0.431,0.04 -5.862,0.49 -9.887,1.39 z m -95.136,-8.25 c -1.008,0.3 -1.996,0.62 -2.956,0.95 -3.745,1.3 -7.066,2.86 -9.45,4.71 v 1.36 c 2.285,-2.09 5.873,-3.8 9.95,-5.21 0.801,-0.28 1.621,-0.54 2.456,-0.8 z m -107.542,-6.98 c -3.983,0.85 -7.965,1.72 -11.951,2.6 v 0.98 c 3.987,-0.88 7.969,-1.75 11.951,-2.6 z m 202.678,-4.85 v 0.94 c 11.609,-0.56 23.236,-0.98 34.833,-1.49 v -0.94 c -11.596,0.51 -23.222,0.93 -34.833,1.49 z m -95.136,-3.95 c -4.174,0.85 -8.308,1.56 -12.406,2.23 v 0.95 c 4.099,-0.66 8.233,-1.37 12.406,-2.2 z m 95.136,-9.99 v 0.94 c 11.597,-0.82 23.196,-1.35 34.833,-1.68 v -0.94 c -11.637,0.33 -23.237,0.86 -34.833,1.68 z m -309.764,-8.95 c -11.144,1.22 -22.252,2.85 -33.233,5.54 v 0.98 c 10.979,-2.71 22.087,-4.34 33.233,-5.57 z m 309.764,-4.67 v 0.94 c 6.258,0.47 12.514,0.77 18.76,0.77 5.349,0 10.708,-0.06 16.073,-0.14 v -0.94 c -5.368,0.08 -10.726,0.14 -16.073,0.14 -6.245,0 -12.498,-0.3 -18.76,-0.77 z m -309.764,-6.59 c -0.864,0.19 -1.726,0.38 -2.585,0.59 -10.156,2.41 -20.376,4.48 -30.648,6.28 v 0.97 c 10.393,-1.82 20.733,-3.92 31.007,-6.36 0.74,-0.17 1.482,-0.34 2.226,-0.5 z m 107.086,4.39 c -3.982,0.03 -7.967,0.06 -11.951,0.12 v 0.94 c 3.983,-0.06 7.968,-0.1 11.951,-0.13 z m 107.542,-3.41 c -4.134,0.14 -8.27,0.31 -12.406,0.49 v 0.95 c 4.137,-0.2 8.271,-0.36 12.406,-0.5 z m -107.542,-21.71 c -3.97,1.27 -7.946,2.55 -11.951,3.81 v 1 c 4.005,-1.26 7.98,-2.54 11.951,-3.82 z m -107.086,-1.23 c -11.118,0.85 -22.445,1.12 -33.233,0.43 v 0.95 c 10.792,0.68 22.116,0.41 33.233,-0.44 z m 309.764,-7.98 v 0.97 c 11.612,2.35 23.081,5.37 34.833,7.59 v -0.96 c -11.749,-2.23 -23.218,-5.25 -34.833,-7.6 z m -309.764,-2.84 v -0.94 c -8.852,0.33 -17.676,0.39 -26.565,0.39 -2.18,0 -4.354,-0.16 -6.525,-0.44 -0.08,0.3 -0.129,0.62 -0.14,0.94 2.218,0.28 4.439,0.44 6.665,0.44 8.888,0 17.712,-0.06 26.565,-0.39 z m 214.628,-2.7 c -4.149,0.06 -8.288,0.14 -12.406,0.23 v 0.95 c 4.118,-0.1 8.256,-0.18 12.406,-0.24 z"
         style="fill:#673b11"
         id="path524" />
      <path
         d="m 1494.637,984.115 h -82.853 v 5.17 c 7.521,8.5 6.889,17.33 0,24.76 v 93.09 c 7.521,8.5 6.889,17.32 0,24.75 v 4.58 h 82.853 v -4.58 c -6.89,-7.43 -7.522,-16.25 0,-24.75 v -93.09 c -6.89,-7.43 -7.522,-16.26 0,-24.76 z m 107.086,0 h -82.852 v 5.72 c 7.521,8.5 6.889,17.32 0,24.75 v 93.09 c 7.521,8.5 6.889,17.33 0,24.76 v 4.03 h 82.852 v -4.03 c -6.889,-7.43 -7.521,-16.26 0,-24.76 v -93.09 c -6.889,-7.43 -7.521,-16.25 0,-24.75 z m 106.539,0 h -82.852 v 4.69 c 7.521,8.5 6.889,17.33 0,24.75 v 93.09 c 7.521,8.5 6.889,17.33 0,24.76 v 5.06 h 82.852 v -5.06 c -6.889,-7.43 -7.521,-16.26 0,-24.76 v -93.09 c -6.889,-7.42 -7.521,-16.25 0,-24.75 z"
         style="fill:#b6adad"
         id="path526" />
      <rect
         x="1625.4066"
         y="1013.56"
         width="82.852516"
         height="93.086174"
         style="fill:#e6dfdf;stroke-width:1.34667"
         id="rect528" />
      <path
         d="m 1625.41,1013.558 77.166,5.68 5.686,87.41 v -93.09 z"
         style="fill:#d6d6d6"
         id="path532" />
      <path
         d="m 1708.261,1106.645 -77.166,-5.68 -5.686,-87.41 v 93.09 z"
         style="fill:#f8f8f8"
         id="path536" />
      <path
         d="m 1708.261,1013.558 -77.166,5.68 -5.686,87.41 v -93.09 z"
         style="fill:#f8f8f8"
         id="path540" />
      <path
         d="m 1704.624,994.108 h -75.576 c 1.655,3.35 2.121,6.69 1.512,9.93 h 72.552 c -0.609,-3.24 -0.143,-6.58 1.512,-9.93 z"
         style="fill:#d2d1d1"
         id="path544" />
      <path
         d="m 1704.624,1111.965 h -75.576 c 1.655,3.35 2.121,6.69 1.512,9.93 h 72.552 c -0.609,-3.24 -0.143,-6.58 1.512,-9.93 z"
         style="fill:#d2d1d1"
         id="path548" />
      <path
         d="m 1703.612,996.588 h -73.552 c 0.266,0.83 0.462,1.66 0.587,2.48 h 72.378 c 0.125,-0.82 0.321,-1.65 0.587,-2.48 z"
         style="fill:#f0f0f0"
         id="path552" />
      <path
         d="m 1703.612,1114.445 h -73.552 c 0.266,0.83 0.462,1.66 0.587,2.48 h 72.378 c 0.125,-0.82 0.321,-1.65 0.587,-2.48 z"
         style="fill:#f0f0f0"
         id="path556" />
      <path
         d="m 1625.41,1106.645 77.166,-5.68 5.686,-87.41 v 93.09 z"
         style="fill:#d6d6d6"
         id="path560" />
      <rect
         x="1411.7816"
         y="1014.047"
         width="82.852516"
         height="93.086174"
         style="fill:#e6dfdf;stroke-width:1.34667"
         id="rect564" />
      <path
         d="m 1411.784,1014.045 77.166,5.68 5.686,87.41 v -93.09 z"
         style="fill:#d6d6d6"
         id="path568" />
      <path
         d="m 1494.641,1107.135 -77.166,-5.68 -5.686,-87.41 v 93.09 z"
         style="fill:#f8f8f8"
         id="path572" />
      <path
         d="m 1494.641,1014.045 -77.166,5.68 -5.686,87.41 v -93.09 z"
         style="fill:#f8f8f8"
         id="path576" />
      <path
         d="m 1490.998,994.595 h -75.576 c 1.655,3.35 2.121,6.69 1.512,9.93 h 72.552 c -0.609,-3.24 -0.143,-6.58 1.512,-9.93 z"
         style="fill:#d2d1d1"
         id="path580" />
      <path
         d="m 1490.998,1112.453 h -75.576 c 1.655,3.35 2.121,6.69 1.512,9.93 h 72.552 c -0.609,-3.24 -0.143,-6.58 1.512,-9.93 z"
         style="fill:#d2d1d1"
         id="path584" />
      <path
         d="m 1489.986,997.075 h -73.552 c 0.266,0.83 0.462,1.66 0.587,2.48 h 72.378 c 0.125,-0.82 0.321,-1.65 0.587,-2.48 z"
         style="fill:#f0f0f0"
         id="path588" />
      <path
         d="m 1489.986,1114.933 h -73.552 c 0.266,0.83 0.462,1.66 0.587,2.48 h 72.378 c 0.125,-0.82 0.321,-1.65 0.587,-2.48 z"
         style="fill:#f0f0f0"
         id="path592" />
      <path
         d="m 1411.784,1107.135 77.166,-5.68 5.686,-87.41 v 93.09 z"
         style="fill:#d6d6d6"
         id="path596" />
      <rect
         x="1518.8677"
         y="1014.5891"
         width="82.852516"
         height="93.086174"
         style="fill:#e6dfdf;stroke-width:1.34667"
         id="rect600" />
      <path
         d="m 1518.871,1014.587 77.166,5.68 5.686,87.41 v -93.09 z"
         style="fill:#d6d6d6"
         id="path604" />
      <path
         d="m 1601.721,1107.675 -77.166,-5.68 -5.686,-87.41 v 93.09 z"
         style="fill:#f8f8f8"
         id="path608" />
      <path
         d="m 1601.721,1014.587 -77.166,5.68 -5.686,87.41 v -93.09 z"
         style="fill:#f8f8f8"
         id="path612" />
      <path
         d="m 1598.085,995.137 h -75.576 c 1.655,3.35 2.121,6.69 1.512,9.93 h 72.552 c -0.609,-3.24 -0.143,-6.58 1.512,-9.93 z"
         style="fill:#d2d1d1"
         id="path616" />
      <path
         d="m 1598.085,1112.994 h -75.576 c 1.655,3.35 2.121,6.69 1.512,9.93 h 72.552 c -0.609,-3.24 -0.143,-6.58 1.512,-9.93 z"
         style="fill:#d2d1d1"
         id="path620" />
      <path
         d="m 1597.073,997.617 h -73.552 c 0.266,0.83 0.462,1.66 0.587,2.48 h 72.378 c 0.125,-0.82 0.321,-1.65 0.587,-2.48 z"
         style="fill:#f0f0f0"
         id="path624" />
      <path
         d="m 1597.073,1115.474 h -73.552 c 0.266,0.83 0.462,1.66 0.587,2.48 h 72.378 c 0.125,-0.82 0.321,-1.65 0.587,-2.48 z"
         style="fill:#f0f0f0"
         id="path628" />
      <path
         d="m 1518.871,1107.675 77.166,-5.68 5.686,-87.41 v 93.09 z"
         style="fill:#d6d6d6"
         id="path632" />
      <path
         d="m 1540.6499,1058.5621 v 36.8333 h 39.2897 v -36.9894 l 11.104,-0.044 -30.7488,-31.5008 -30.7489,31.7452 z"
         id="path636"
         style="stroke-width:0.518881" />
      <path
         d="m 1440.8707,1069.2405 h -14.503 l 26.8425,-38.9517 26.8419,38.9517 h -14.5029 l 14.5029,21.0463 h -53.6844 z"
         id="path642"
         style="stroke-width:0.526569" />
      <path
         d="m 1667.881,1026.8622 7.66,23.574 h 24.789 l -20.055,14.57 7.66,23.58 -20.054,-14.57 -20.055,14.57 7.66,-23.58 -20.054,-14.57 h 24.789 z"
         id="path2752" />
    </g>
  </g>
</svg>
