<?xml version="1.0" encoding="UTF-8"?>
<!-- Created with Inkscape (http://www.inkscape.org/) -->
<svg id="svg2136" width="220.48mm" height="66.214mm" version="1.1" viewBox="0 0 220.48 66.214" xmlns="http://www.w3.org/2000/svg">
 <defs id="defs2133">
  <clipPath id="_clip1">
   <path id="path529" d="m935.11 1259.6c6.187 4.98 28.699-17.26 38.665 19.4-2.172 2.54-7.04 2.47-8.322 3.75-6.054 6.06-27.005 12.32-35.626 13.76-6.526 1.09-17.974 1.07-23.633-3.18-3.897-2.92-5.056-2.99-11.106.03-3.161 1.58-8.859 3.7-12.383 6.05-8.929 5.95-22.839 8.15-33.12 7-16.523-1.83-30.402-17.49-47.971-11.64-2.446.82-5.67-1.48-8.033-2.32-.933-4.03-2.821-8.57-2.196-12.32.753-4.52 5.086-11.62 10.024-18.1 4.975 2.37 9.732 5.58 15.02 6.64 6.29 1.26 13.37-1.56 19.4-.35 4.332.87 7.989 3.69 12.345 4.23 2.052.26 4.256-.58 6.433-1.35 16.433 8.04 35.48 7.12 50.675-4.71 2.943-.38 5.893-.72 8.853-.99 5.604-.51 13.177-3.21 20.975-5.9z"/>
  </clipPath>
  <clipPath id="_clip3">
   <path id="path567" d="m869.79 1304.9c5.248-4.35 13.27-11.03 16.88-14.28.742-1.1 1.453-1.87 2.039-2.29.781-.57 1.535-.75 2.169-.75.755.02 1.272.31 1.643.65.38.34.656.77.776 1.33.076.36.132.89-.156 1.54-.059.14-.346.65-1.021 1.3-.312.3-.765.72-1.331 1.24-.401.62-.891 1.43-1.349 2.3-2.39 1.08-4.871 2.26-6.74 3.5-3.663 2.44-8.164 4.25-12.91 5.46z"/>
  </clipPath>
 </defs>
 <g id="layer1" transform="translate(32.502 19.377)">
  <path id="path2462" d="m99.313 38.889c.14981-.06292.61723-.24869.77304-.35356.35656-.23671-.86293.18277-1.2135.43446-.83896.59626-1.2435 1.0247-1.648 1.9925-1.3933 3.3438-6.0375 4.3716-9.2795 4.9439-4.2997.75806-8.872.37453-13.178-.08689-7.5626-.80899-14.999-2.2322-22.373-4.0749-.55072-.13783-1.0936-.30862-1.6474-.43446-.45873-.10487-.92495-.17378-1.3873-.26068-1.1599-.21573-7.0484-.63221-6.6769-2.8614.8006-4.803 7.787-6.6098 11.881-6.415 9.7828.46442 19.605 1.3723 29.307 2.5139 3.5656.41948 7.0472-.49438 10.58-.17378 1.8637.17079 4.2817.32659 5.7229 1.5611.33558.28764 1.3244.8839 1.1266 1.4742-.2427.73409-1.1056 1.3663-1.648 1.9086z" style="clip-rule:evenodd;fill-rule:evenodd;fill:#e9e1e1;stroke-linecap:round;stroke-linejoin:round;stroke-miterlimit:1.5;stroke-width:.29963"/>
  <path id="path2466" d="m101.12 23.493c.65019-.16024 1.4862.27708 2.3011.888.94682.70772 1.8667 1.6491 2.442 2.1599 2.2682 2.023 2.8315 5.1777.63821 7.6214-3.4966 3.8958-6.7716 6.1659-11.386 7.0739-3.9731.78117-9.7679 1.7793-13.735 2.477-6.3761 1.1217-15.961-.88466-22.029-3.2515-1.7288-.67434-3.4727-1.766-5.2884-2.033-10.169-1.4822-2.9423-12.812-.82098-13.514.34457-.1135.46143-1.4755.72809-1.6258.83896-.46403 2.436-.10015 3.3768-.10015-.06292 1.9396 38.481 1.6091 43.773.30379z" style="clip-rule:evenodd;fill-rule:evenodd;fill:#a55433;stroke-linecap:round;stroke-linejoin:round;stroke-miterlimit:1.5;stroke-width:.31627"/>
  <path id="path2470" d="m52.818 25.443c.2207-.16603.42608-.35159.59161-.57296.2299-.30276.47206-1.4389.74488-1.5854.85829-.4525 2.4921-.09766 3.4546-.09766-.03678 1.0515 12.166 1.4194 23.925 1.3185.141.01302.27894.02604.41075.03581.6805.05534 1.3334.02604 1.971-.06185 8.4879-.12045 16.28-.47855 18.475-.99616.42301-.09766.9196.03581 1.4407.2995-.25442 1.3347-.80618 2.1128-1.5449 2.7411-3.0868 2.6206-6.6364.22137-9.9838 1.2892-2.0017.63481-3.1021 1.9077-4.8524 2.9722-1.8208 1.1036-4.7605.29624-6.8112.89199-.93799.2702-2.0998.6869-2.8906 1.2859-.95025.71945-1.3365 1.9858-2.6147 2.1811-3.2125.48832-9.619-1.1231-12.313-3.2717-.44754-.35484-1.8177-1.6733-2.0538-2.1779-.2391-.50785 1.1985-1.6017.65292-2.1811-.68357-.72596-2.5228-.39391-3.3596-.39391-2.25 0-4.0585-.12696-5.2417-1.6765z" style="clip-rule:evenodd;fill-rule:evenodd;fill:#915137;stroke-linecap:round;stroke-linejoin:round;stroke-miterlimit:1.5;stroke-width:.3159"/>
  <path id="path2474" d="m103.17 20.674c-1.0032.05693-.12503-.65618-.55498-1.3573-.67694-1.1116-1.8509-1.9116-2.598-3.0113-.70438-1.0367-4.1501-1.8757-5.382-2.2802-2.4852-.81199-5.5009-.77304-8.0745-1.0008-1.2258-.11086-2.351-.57229-3.6195-.45843-1.3051.11686-2.4272.4794-3.8055.36555-4.641-.38053-8.9222-.63521-13.365.82098-4.4916 1.4712-7.5379 1.5161-9.1875 6.3851-.80501 2.373 3.6866 1.0607 4.3605.7281.37811-.18577.75013-.54832 1.2075-.63821.36896-.07191 1.2228-.08689 1.5765 0 1.238.30262 1.8814 2.4749 3.156 3.1011 2.2107 1.0847 4.6441 1.642 7.053 2.1873 3.1225.71012 7.297.74308 10.49.45843 2.6681-.2397 5.2173-1.5521 7.8885-1.5521 2.6315 0 4.946-2.7176 7.239-3.2839.79282-.19176 4.2751-.82098 3.4335-.54532" style="clip-rule:evenodd;fill-rule:evenodd;fill:#a55433;stroke-linecap:round;stroke-linejoin:round;stroke-miterlimit:1.5;stroke-width:.30227"/>
  <path id="path349" d="m99.08 30.493c.49616.53918 1.0271 1.0401 1.6086 1.3814 1.577.92841 3.3182 1.1996 5.0595 1.4102 1.5422.18185 3.0876.30947 4.4749.96988.59096.28076 1.065.84226 1.4474 1.4931.64469 1.1007 1.0176 2.4758 1.1219 3.5254.0474.44985.44875.78165.90067.73698.45191-.04467.78057-.44666.73633-.89969-.12325-1.2506-.572-2.8809-1.3399-4.1922-.56252-.95712-1.2925-1.7388-2.1616-2.1503-1.5485-.73698-3.2645-.91245-4.9837-1.1166-1.5201-.18185-3.0465-.38604-4.4212-1.1932-1.046-.61575-1.8772-1.844-2.6641-2.7246-.40135-.45304-1.7571-1.6782-2.4018-2.1567-.35395-.26161-.65101-.33818-.74898-.34456-.45191-.02552-.69209.21057-.82166.50727-.05372.12762-.14537.38285.0316.74017.3097.62532.78374 1.1454 1.2578 1.6845.36343.41475.73318.83908.94491 1.4006.69841 1.8345.65101 4.0422 1.4474 5.8161.8185 1.8185 2.3702 2.9862 3.8934 4.1507 1.2799.97307 2.544 1.9334 3.0401 3.5158.13589.4307.59729.67318 1.0302.53599.43295-.134.67313-.5966.5404-1.0305-.6036-1.9174-2.0636-3.1457-3.6122-4.3294-1.3083-.9986-2.6894-1.9557-3.3909-3.519-.57517-1.2762-.69842-2.7852-.98916-4.2113z" style="clip-rule:evenodd;fill-rule:evenodd;fill:#653623;stroke-linecap:round;stroke-linejoin:round;stroke-miterlimit:1.5;stroke-width:.31753"/>
  <path id="path2478" d="m99.331 18.368c.26966-.61424-6.0195-1.9356-7.6075-1.8517-6.2652.32959-12.692-1.0936-18.969-1.0936-.91686 0-5.8008 1.1176-6.1094 1.7318-.55731 1.1146-3.6764 1.8127-3.1731 2.8944 3.8562 8.2817 32.725 8.4944 35.859-1.6809z" style="clip-rule:evenodd;fill-rule:evenodd;fill:#573223;stroke-linecap:round;stroke-linejoin:round;stroke-miterlimit:1.5;stroke-width:.29963"/>
  <path id="path2519" d="m82.081 40.708c.23965.20236 2.0211.8588 2.4028.85139.65454-.01234 1.504-.24678 1.7903-.42446.60526-.37264 1.4206-.77242 2.0415-1.3178.78578-.68852 1.2901-1.5794 1.0502-2.8108-.34614-1.7768-1.7437-2.5172-3.2133-2.4407.25624-.35536.48051-.73541.63507-1.1154.39589-.97725.3644-1.952-.3745-2.7121-.58242-.59721-1.5893-.76255-2.6766-.57006-1.3978.24925-2.9078 1.0439-3.4606 1.6115-.09423.09624-.19398.24678-.23869.47382-.03053.15547-.03726.40966-.0034.73541.13485 1.2956.89226 4.2298 1.0502 5.365.08774.62929 1.0259 2.6109.99707 2.3543zm.48099-2.1717c-.22787 1.1401 2.0766 1.8114 2.9797 1.2882.62545-.36277 1.2783-.6441 1.8377-1.1327.39469-.34549.72737-.78476.57233-1.3943-.4769-1.878-2.3458-1.2487-2.9071-.9279-.27402.15794-2.8489 1.2191-2.5328 1.7744.04711.08391.03053.22951.05024.39238zm.31489-2.8059c.30912-.26652.7091-.60955.80741-.68112.53507-.39238 1.4083-1.2734 1.7718-2.1692.15841-.38991.23292-.7897-.06298-1.0932-.11706-.12092-.2858-.17275-.47257-.19989-.28388-.04195-.60598-.01974-.93794.03948-.95068.17028-1.9836.63176-2.5061 1.0389.09519.46888.44854 2.221.72208 3.6795.02332-.05429.05408-.11105.09423-.16534.07163-.09871.23388-.25172.4781-.38991.03317-.01974.06851-.03948.106-.05923z" style="clip-rule:evenodd;fill-rule:evenodd;fill:#592f1d;stroke-linecap:round;stroke-linejoin:round;stroke-miterlimit:1.5;stroke-width:.24356"/>
  <path id="path2523" d="m80.266 31.789c.0032-.003.0066-.008.0098-.0106.55272-.56621 2.063-1.3626 3.4605-1.6113 1.0874-.19314 2.0944-.0264 2.6768.5715.11774.12171.21749.24871.3003.37836-1.8095.59002-4.2802.0397-6.0719.55827-.12197.0344-.24738.0741-.37544.11377z" style="clip-rule:evenodd;fill-rule:evenodd;fill:#47291c;stroke-linecap:round;stroke-linejoin:round;stroke-miterlimit:1.5;stroke-width:.26458"/>
  <path id="path353" d="m94.918 26.478c-.17678-.35656-.08689-.61424-.03296-.74308.12884-.29663.36854-.53034.82098-.50637.09888.006.39551.0839.74907.34757.6442.47641 1.9985 1.7019 2.403 2.1543.22378.23948-3.1822-.12789-3.1822-.12789s-.57611-.77324-.7579-1.1246z" style="clip-rule:evenodd;fill-rule:evenodd;fill:#47291c;stroke-linecap:round;stroke-linejoin:round;stroke-miterlimit:1.5;stroke-width:.29963"/>
  <path id="path2525" d="m94.279 20.621c2.8225-.04794 3.9311-.93184 4.5453-1.7618.59326-.806.71911-1.5611 1.4832-1.4532 4.6382.6442 4.0839.81798 4.1858 2.9393.13483 2.8495-.53933 4.045-1.642 4.9259-3.0172 2.412-6.4869.20375-9.7589 1.1865-1.9566.58427-3.0322 1.7558-4.7431 2.7356-1.7798 1.0157-4.6532.27266-6.6577.82098-.91686.24869-2.0524.63221-2.8255 1.1835-.92884.66218-1.3064 1.8307-2.5558 2.0075-3.1401.44944-9.3993-1.0337-12.036-3.0113-.43746-.32659-1.7738-1.5401-2.0075-2.0045-.23371-.46742 1.1715-1.4742.63821-2.0075-.66817-.66817-2.4659-.36255-3.2839-.36255-2.5678 0-4.5453-.1588-5.654-2.373-.58128-1.1656.87791-1.8817 1.7348-2.0974 1.7798-.44345 3.3678-.68015 5.1057-1.5491 1.1146-.55731 2.382-1.615 3.6495-1.8247 1.8307-.30562 4.6652 1.9236 6.2922 2.7356 3.0232 1.5131 8.842 2.4749 12.219 2.7356 2.8255.21873 5.2165-.97678 7.7544-1.8247 1.1685-.38952 2.2682-.97978 3.5566-1.0008z" style="clip-rule:evenodd;fill-rule:evenodd;fill:#a55433;stroke-linecap:round;stroke-linejoin:round;stroke-miterlimit:1.5;stroke-width:.29963"/>
  <path id="path2164" d="m179.49 42.898s-10.908 2.4474-12.317 2.8284c-9.5797 2.5903-50.448.8599-42.195-7.4269.52944-.53181 1.344-1.5875 1.8372-1.9553 3.2649-2.4289 48.65 2.4077 49.629 3.2253 1.0023.83608 3.9776 2.2357 3.0454 3.3285z" style="clip-rule:evenodd;fill-rule:evenodd;fill:#e9e1e1;stroke-linecap:round;stroke-linejoin:round;stroke-miterlimit:1.5;stroke-width:.24467"/>
  <path id="path2168" d="m179.94 23.581c.61119-.4154 2.7887 1.36 2.5982.50006-.10848-.49212-2.0717-3.7333-2.2569-4.236-.16669-.44979-.1958-.94985-.46832-1.36-1.106-1.6589-3.6089-2.6167-5.3975-3.1909-.81491-.26458-1.6034-.72496-2.4394-.89429-1.0583-.20902-2.1669-.04498-3.2385-.14023-3.6512-.32279-12.078 1.4896-17.171 1.9182-2.5162.21167-12.618-.55033-13.991-.32279-.59796.10054-2.8258 2.0717-3.4131 2.1881-.60061.11906-2.3098 2.4844-2.4209 2.7755-.38894 1.0372 47.355 12.488 48.199 2.7622z" style="clip-rule:evenodd;fill-rule:evenodd;fill:#e09667;stroke-linecap:round;stroke-linejoin:round;stroke-miterlimit:1.5;stroke-width:.26458"/>
  <path id="path2172" d="m172.04 23.946c.23548 0 1.098.79375 1.3996.93133 1.1906.55033 2.5162.65088 3.728 1.2118 3.847 1.7886 8.5751 4.1116 10.53 8.0142 1.061 2.1193-1.1245 5.8341-3.3205 7.0432-10.922 6.0219-48.974 2.495-52.618 1.1615-3.1406-1.1509-4.4662-5.0932-2.2172-6.9929 1.1933-1.0081-.15082-4.8551.65087-6.0563.68527-1.0292 1.8653-1.1906 2.7966-1.7727 3.474-2.1696 5.5536-4.2862 10.065-4.2862 0 0 28.728.74612 28.985.74612z" style="clip-rule:evenodd;fill-rule:evenodd;fill:#e09667;stroke-linecap:round;stroke-linejoin:round;stroke-miterlimit:1.5;stroke-width:.26458"/>
  <path id="path2176" d="m175.82 21.258c-.30427-.34925-7.0511-2.4633-9.062-2.9342-3.9158-.91281-7.9931-1.4314-12.023-1.3203-1.061.0291-2.0929.24871-3.1591.2831-2.2437.07144-4.2995.02381-6.5061.61383-.97632.25929-1.95.53975-2.9236.80169-.52917.14023-.93662-.21696-1.4605-.14288-.90487.12965-1.6748 1.0398-1.8865 1.8865-.082.32544.30956 1.0001.42333 1.3203.96044 2.6379 4.2095 2.7358 6.6014 3.2994 1.1271.26458 2.2648.44979 3.3946.70644.80169.18256 1.6431.2831 2.4051.61383 4.617 2.0002 27.154-1.7595 24.196-5.1276z" style="clip-rule:evenodd;fill-rule:evenodd;fill:#ad6a3f;stroke-linecap:round;stroke-linejoin:round;stroke-miterlimit:1.5;stroke-width:.26458"/>
  <path id="path2230" d="m170.97 23.92c.66146.01587 1.0451.02646 1.0742.02646.23548 0 1.098.79375 1.3996.93133 1.1906.55033 2.5162.65088 3.728 1.2118.78052.36512 1.6007.74877 2.4262 1.1668.67468.68792 1.5928 1.778.78845 2.4686-1.1245.96308-1.7118 4.6778-3.0586 5.0985-1.7357.5424-3.7438 1.5293-5.5906 1.397-2.1193-.15081-4.0005-1.0478-6.059-1.3044-1.0663-.13229-5.9002-.22754-6.7098-.0926-1.2938.21431-2.4156.82285-3.728.93133-1.1721.0979-2.2648-.24871-3.4475-.18521-4.4185.23283-9.8981-2.5744-14.372-2.7675-4.3471-.18785-7.2522-4.9504-4.4265-5.3155 2.3125-.29633 3.5031-2.4527 5.2864-3.2729 1.1774.86519 2.3151 1.7886 3.4264 2.5294 1.0239.68262 3.3311 5.1038 4.5852 5.2837 2.3495.33602 4.8234-.01852 7.1781.37306 2.0426.34131 3.8259.74612 5.9637.74612.91017 0 .22754-1.2726 1.3123-1.1218 3.6618.508 10.507-6.0642 9.4218-7.6835.1217-.23812.40481-.37042.80168-.42069z" style="clip-rule:evenodd;fill-rule:evenodd;fill:#d0916a;stroke-linecap:round;stroke-linejoin:round;stroke-miterlimit:1.5;stroke-width:.26458"/>
  <path id="path2234" d="m125.62 34.135c.0238-.05027.10054-.21167.18256-.32279.25136-.33073.65617-.70908 1.1668-1.1165 2.5426-2.0346 7.6332-4.6937 11.094-5.5298.0847.03969.381.17992.59532.32279.6932.46567 1.5425 1.2224 2.0584 1.7806l.0265.0344c-.9181.35454-2.0346.31221-2.9924.36777-.56357.0344-1.1112-.06879-1.6589-.16669-.64823-.11642-1.2965-.22754-1.9685-.1905-2.958.16404-4.7969 1.5981-6.0722 4.146-.27517.55033-.3175 1.2065-.33602 1.8812-.0132.48683-.005.98954-.1905 1.4235-.14552.33602.0106.72496.3466.87048.33603.14288.72496-.01323.86784-.34925.25135-.58738.28046-1.2541.29898-1.9103.0106-.4736.003-.93927.19579-1.3229 1.0451-2.0902 2.5374-3.2835 4.9636-3.4158.56621-.03175 1.1139.07144 1.6616.16933.65088.11642 1.2991.22754 1.9685.18785 1.3838-.08202 3.0268-.08996 4.2122-.87842.17463-.11642.28575-.28575.31221-.52123.0132-.14552-.0529-.4789-.34925-.8546-.51329-.65617-1.8124-1.8494-2.7649-2.4553-.3466-.2196-.66145-.36248-.89429-.41804-.19579-.04498-.36512-.04233-.50271-.01058-4.154.97631-10.626 4.5323-12.716 6.7178-.381.40217-.63235.77523-.74613 1.0848-.127.34925-.11377.65617-.005.9181.14023.33602.52917.49477.86519.35454.31485-.13229.4736-.4789.381-.7964z" style="clip-rule:evenodd;fill-rule:evenodd;fill:#592f1d;stroke-linecap:round;stroke-linejoin:round;stroke-miterlimit:1.5;stroke-width:.26458"/>
  <path id="path2238" d="m134.64 26.912c1.1351-.45773 2.2304-.8255 3.1988-1.0557.13759-.03175.30692-.0344.50271.01058.23284.05556.54769.19844.89429.41804.9525.6059 2.2516 1.7992 2.7649 2.4553.29633.37571.36248.70908.34925.8546-.0265.23548-.13758.40481-.31221.52123-1.1853.78846-2.8284.7964-4.2122.87842-.66939.03969-1.3176-.07144-1.9685-.18785-.54768-.0979-1.0954-.20108-1.6616-.16933-.42069.02117-.81227.07673-1.18.16404-.36248-.37571-.65087-.76729-.84667-1.1483.59267-.18521 1.2409-.29898 1.9526-.33867.67204-.03704 1.3203.07408 1.9685.1905.54769.0979 1.0954.20108 1.6589.16669.95779-.05556 2.0743-.01323 2.9924-.36777l-.0265-.0344c-.51593-.55827-1.3652-1.315-2.0584-1.7806-.21432-.14288-.51065-.2831-.59532-.32279-1.7515.42069-3.9158 1.3097-5.9584 2.3495-.24606-.53446-.30427-1.0319-.13229-1.4023.51858-.25664 1.0398-.50271 1.5584-.7329.40217-.10583.76729-.26988 1.1112-.46831z" style="clip-rule:evenodd;fill-rule:evenodd;fill:#2c201c;stroke-linecap:round;stroke-linejoin:round;stroke-miterlimit:1.5;stroke-width:.26458"/>
  <path id="path2242" d="m160.51 39.699c-.0241.0344-.0664.0926-.10318.127-.16378.16404-.39767.31221-.67522.45508-1.1412.57679-2.9578.94986-4.4588.72231-.84164-.127-1.5925-.43127-1.951-1.1007-.46381-.86784-.30691-1.905.1741-2.8205.76888-1.4658 2.386-2.6723 4.1016-2.5003.67707.0661 1.9799.28046 2.8176.78581.29448.17727.56435.37306.47334.6985-.11695.42333.1307.86254.55271.97896.42228.11641.8599-.13229.97711-.55298.29607-1.0663-.22357-1.9024-1.1816-2.4818-1.0377-.62971-2.6424-.92604-3.4811-1.0081-2.349-.23547-4.6125 1.3362-5.6653 3.3417-.73343 1.3996-.87577 2.9845-.16828 4.3074.58579 1.0954 1.7394 1.7145 3.1139 1.9209 1.8227.27517 4.0286-.17462 5.4142-.87841.71464-.35984 1.2229-.80963 1.4608-1.2382.25506-.46038.27728-.92869.0558-1.3838-.19183-.39423-.66728-.55827-1.0612-.36777-.37147.18256-.53843.61383-.39529.99483z" style="clip-rule:evenodd;fill-rule:evenodd;fill:#592f1d;stroke-linecap:round;stroke-linejoin:round;stroke-miterlimit:1.5;stroke-width:.26458"/>
  <path id="path2244" d="m157.03 32.986c.51567.0635 1.0388.11377 1.5812.14023.83661.15081 1.8748.43127 2.6202.88371.35904.21696.65643.46831.87233.75671-1.3809-.0212-2.7064-.0106-3.1194.0529-.53049-.12964-1.044-.20373-1.392-.23812-1.1536-.11642-2.2627.39158-3.0993 1.1827-.64717-.0291-1.2806-.14287-1.9317-.18785 1.0353-1.4288 2.6932-2.4977 4.4688-2.5903z" style="clip-rule:evenodd;fill-rule:evenodd;fill:#453934;stroke-linecap:round;stroke-linejoin:round;stroke-miterlimit:1.5;stroke-width:.26458"/>
  <path id="path2246" d="m173.85 21.917c.72231-1.442 7.4851.97631 9.0038 2.495.55033.55033 2.2146 2.0294 1.2118 2.8892-1.1218.96308-2.8469 1.0716-4.1936 1.4922-1.7357.5424-2.6061 5.1356-4.4556 5.0033-2.1193-.15081-3.9979-1.0478-6.0563-1.3044-1.0663-.13229-5.9002-.22754-6.7098-.0926-1.2938.21431-2.4156.82285-3.7306.93133-1.1695.0979-2.2622-.24871-3.4475-.18786-4.4159.23283-9.7816-3.0665-14.258-3.0665-4.6249 0-8.7709-2.4739-9.3398-7.5882-.32808-2.9342.37306-2.3627 2.7966-2.3627 1.1774 0 3.1909-.78052 4.3815-.18786 2.2463 1.1245 4.3339 3.0454 6.3368 4.3815 1.0239.68262 2.1934 1.4975 3.4475 1.6775 2.3495.33602 4.8234-.02117 7.1755.37306 2.0452.34131 3.8285.74612 5.9664.74612.90752 0 3.4184.49477 4.1936-.28046 1.9897-1.9923 7.6782-4.9186 7.6782-4.9186z" style="clip-rule:evenodd;fill-rule:evenodd;fill:#e09667;stroke-linecap:round;stroke-linejoin:round;stroke-miterlimit:1.5;stroke-width:.26458"/>
  <path id="path2657" d="m15.344 12.483c-1.2877-.22754-1.0589-.4736-1.8619-.87312-.23707-.11906-.41196-.21696-.45535-.26458-.54901-.62971-1.4449-.99483-2.186-1.3123-2.4331-1.0425-5.0845-1.6192-7.724-1.7013-3.3523-.10319-6.9173 1.1695-10.056 2.2357-1.3504.45773-2.5178 1.3547-3.8862 1.7965-1.3398.43127-2.4715.75935-3.7407 1.36-.76835.36512-1.628.41275-2.3318.9234-.55986.40481-.82444.98954-1.2631 1.5055-1.1512 1.3547-3.7653 2.7914-3.0118 5.0535l30.913-5.3922c5.3663.08731 8.3156-2.8549 5.6039-3.3311z" style="clip-rule:evenodd;fill-rule:evenodd;fill:#d56c40;stroke-linecap:round;stroke-linejoin:round;stroke-miterlimit:1.5;stroke-width:.26458"/>
  <path id="path2661" d="m10.774 17.284c.53208-2.159-4.1312-3.0903-5.8092-3.0903-1.2353 0-2.3302-.43921-3.5465-.56092-1.2359-.12171-2.3723.45508-3.5465.56092-2.3085.20902-4.8218.01323-7.0927.46567-1.0258.20638-1.6671 1.1007-2.6133 1.4949-1.6134.67204-3.2964.08996-3.9198 1.9579 3.8238 16.886 24.412 15.79 26.528-.82815z" style="clip-rule:evenodd;fill-rule:evenodd;fill:#8d4e34;stroke-linecap:round;stroke-linejoin:round;stroke-miterlimit:1.5;stroke-width:.26458"/>
  <path id="path2665" d="m17.995 37.295c13.04-1.0345 2.9057 6.178-11.158 8.0592-7.5777 1.0134-8.8815 1.0636-15.993.61912-5.5414-.3466-6.7336.50271-12.522-.99219-1.0787-.27781-8.7336-1.6748-9.0503-3.0983-.95276-4.2889 4.9366-7.3951 8.1825-7.9349 6.0092-1.0028 12.755.28046 18.845.61912 4.6892.26194 9.4036-.26723 14.134.61912 1.8441.3466 5.7356 2.2542 7.5626 2.1087z" style="clip-rule:evenodd;fill-rule:evenodd;fill:#e9e1e1;stroke-linecap:round;stroke-linejoin:round;stroke-miterlimit:1.5;stroke-width:.26458"/>
  <path id="path2685" d="m10.32 16.086c1.8161-1.2726 2.5673 2.2251 2.3979 4.2095-.41249 4.8313 4.2489 1.8785 11.533 5.5562 2.8014 1.4155 1.3436 9.9774-.89006 11.885-13.614 11.631-62.421 6.4135-48.343-4.9477 1.4026-1.1298-.48657-3.6116-.18653-5.4134.37095-2.2251 4.0222-6.8183 5.8796-8.3053.20611-.16404 3.3584-1.868 3.2663-1.9606 5.6486 11.763 20.906 13.351 26.343-1.0239z" style="clip-rule:evenodd;fill-rule:evenodd;fill:#ce6133;stroke-linecap:round;stroke-linejoin:round;stroke-miterlimit:1.5;stroke-width:.26458"/>
  <path id="path2689" d="m12.858 21.944c1.637 1.3176 7.5933-4.5667 10.23 5.1329-.57468.67204-1.8627.65352-2.2019.99219-1.6018 1.6034-7.1451 3.2597-9.426 3.6407-1.7267.2884-4.7556.2831-6.2529-.84138-1.0311-.77258-1.3377-.7911-2.9385.0079-.83635.41804-2.3439.97896-3.2763 1.6007-2.3625 1.5743-6.0428 2.1564-8.763 1.8521-4.3717-.48419-8.0439-4.6276-12.692-3.0798-.64717.21696-1.5002-.39158-2.1254-.61383-.24686-1.0663-.74639-2.2675-.58102-3.2597.19923-1.1959 1.3457-3.0745 2.6522-4.789 1.3163.62706 2.5749 1.4764 3.974 1.7568 1.6642.33338 3.5375-.41275 5.1329-.0926 1.1462.23019 2.1138.97631 3.2663 1.1192.54293.06879 1.1261-.15346 1.7021-.35719 4.3479 2.1272 9.3874 1.8838 13.408-1.2462.77867-.10054 1.5592-.1905 2.3424-.26194 1.4827-.13494 3.4864-.84931 5.5496-1.561z" style="clip-rule:evenodd;fill-rule:evenodd;fill:#ba623d;stroke-linecap:round;stroke-linejoin:round;stroke-miterlimit:1.5;stroke-width:.26458"/>
  <path id="path2702" d="m-19.894 28.252c-.1307.10054-.43603.33073-.73792.51858-1.9973 1.2382-6.3619 3.3972-9.0371 5.1911-1.3107.87842-2.2206 1.733-2.4567 2.3442-.1442.37306.04233.79375.41592.93927.37386.14288.79454-.04233.93874-.41804.05424-.14023.18865-.2884.36195-.46038.36856-.36248.90778-.76994 1.5489-1.1986 2.662-1.7859 7.0056-3.9317 8.9929-5.162.73581-.45773 1.1824-.86519 1.2978-1.0901.15584-.30162.11906-.56092.01349-.76994-.1815-.35719-.61886-.50006-.97605-.3175-.17939.08996-.30454.24606-.36195.42333zm.0254.51329h.000529z" style="clip-rule:evenodd;fill-rule:evenodd;fill:#653623;stroke-linecap:round;stroke-linejoin:round;stroke-miterlimit:1.5;stroke-width:.26458"/>
  <path id="path2706" d="m-23.743 39.989c5.1414-.53446 7.7782-2.1616 8.9905-4.2439 1.2237-2.1008 1.0253-4.744.30401-7.456-.10319-.38894-.50112-.61912-.88821-.51594-.38735.10319-.61807.50006-.51514.889.6141 2.3098.88662 4.5614-.15558 6.3526-1.0533 1.8071-3.4176 3.0639-7.8859 3.5295-.39846.04233-.68844.39952-.64691.7964.04127.39952.39846.69056.79719.64823z" style="clip-rule:evenodd;fill-rule:evenodd;fill:#653623;stroke-linecap:round;stroke-linejoin:round;stroke-miterlimit:1.5;stroke-width:.26458"/>
  <path id="path2710" d="m-15.311 32.346c.0291-1.1668-.20373-2.4156-.53975-3.6856-.10583-.38629.127-.78317.51329-.88635.38894-.10319.78581.127.889.51329.43392 1.6298.67733 3.2359.5371 4.7122-.46567-.21431-.93398-.43656-1.3996-.65352zm-8.9138-1.5584c1.4208-.77523 2.7279-1.4817 3.593-2.0161.30162-.18785.6059-.41804.73554-.52123.05821-.17727.18521-.33073.36248-.42333.35719-.18256.79375-.03704.97631.32015.10583.20638.14288.46831-.01323.76994-.11642.2249-.56092.63235-1.2991 1.0874-.47625.29633-1.0927.64558-1.7859 1.0319-.26723.05292-.53446.12435-.80698.21431-.52917.17727-1.1933-.19844-1.7621-.46302z" style="clip-rule:evenodd;fill-rule:evenodd;fill:#392a24;stroke-linecap:round;stroke-linejoin:round;stroke-miterlimit:1.5;stroke-width:.26458"/>
  <path id="path2723" d="m-14.996 18.698c1.0763.5371 1.0766 2.503 2.1466 3.4528 1.8846 1.6748 8.2926 3.0401 10.639 1.868 2.9326-1.4684 6.5807-2.2093 9.426-3.7333 2.7239-1.4605 4.4598-5.4107 1.7634-5.8949.65088.03439.96308-.8599 1.5028-1.1986 1.1247-.70379 2.9255-.79375 4.1997-.65352 1.012.11377 2.1569.0979 3.0798.56092 1.755.87577 8.4204 9.4853 6.1725 11.359-.65484.54504-1.4944.5371-2.1463 1.0266-.64082.48154-.82576 1.487-1.6801 1.7727-.9525.3175-1.8912-1.2171-2.9864-.56092-2.4754 1.487-3.411 2.0849-5.8925 3.0136-1.7084.64029-4.1071.84138-5.5062-.55827-.97816-.97896-1.3793-2.9316-3.1731-2.7067-4.1802.52123-5.4758 4.5111-9.5194 5.3181-1.2573.25135-2.7771-1.4314-4.0129-1.6801-1.6026-.32015-3.2345.40481-4.853.18785-.5969-.07937-5.7012-1.2224-5.8796-1.3996-.58738-.58738-.15848-1.5796-.84005-2.1458-.70776-.59002-1.8436-.8546-2.7064-1.0266-.08599-.01852-1.0663-.05556-1.12-.28046-.55959-2.3521 8.7752-9.6361 10.919-8.681z" style="clip-rule:evenodd;fill-rule:evenodd;fill:#d56c40;stroke-linecap:round;stroke-linejoin:round;stroke-miterlimit:1.5;stroke-width:.26458"/>
  <path id="path2731" d="m-.25546 37.861c1.8883-.15081 4.6985-.33073 5.8251-.83608.06244-.0291.12118-.0582.17674-.09.31856.64029.58843 1.2435.78555 1.7674.17939.47625.28548 1.0557.30692 1.1827-.16589.33602-.07408.75406.23707.98689.35084.26194.84878.18786 1.111-.16139.21114-.28311.3265-.87048.11906-1.6775-.5117-1.9844-2.7953-6.0881-4.6445-8.5249-.75935-1.0001-1.4713-1.7251-1.9637-2.0002-.50244-.27781-.92948-.23283-1.2348-.0582-.12435.0714-.26749.19315-.3982.3863-.13547.20108-.2876.53975-.4318.97895-.67257 2.0558-1.4028 6.7813-1.4885 8.1545-.009.14817-.11192.41804-.23257.73819-.36036.96308-.95912 2.2516-1.088 2.5453-.11245.25665-.09128.42598-.08996.4445.02434.30427.18098.46831.30533.56356.17515.13494.39105.20638.66119.14552.06244-.0132.29131-.045.48366-.33072.04022-.0582.07144-.12171.0934-.18521.13362-.30427.74904-1.6325 1.1208-2.6247.19341-.51594.31591-.96044.33073-1.1959.0037-.0635.009-.13229.01561-.20902zm-1.8994 3.0427c.1741.0688.3384.19844.42333.4445-.05556-.14552-.15584-.27781-.2958-.37306-.04101-.0291-.08361-.0503-.12753-.0714zm-.9525.25136c-.0037.005-.0074.0106-.01111.0159-.0037.005-.0077.0106-.01138.0159zm.01376-.0185-.01032.0132.01693-.0212zm.03334-.0397-.0079.0106.01085-.0132zm.67918-.254c-.07355-.0106-.16272-.0159-.26114.005-.09842.0212-.20611.0688-.31644.1561.16484-.127.37333-.18521.57758-.16139zm7.0967-5.8235c-.73951-1.2859-1.5687-2.5612-2.3188-3.5507-.42492-.56092-.821-1.0266-1.1591-1.3335l-.01058-.008c-.10054.27517-.22913.64823-.31829.99748-.3773 1.4658-.74507 3.5613-.9689 5.1303 1.175-.0873 2.6252-.18521 3.7587-.37041.33417-.0556.72099-.16669.9906-.254-.07223-.1958-.06456-.41805.02646-.61119z" style="clip-rule:evenodd;fill-rule:evenodd;fill:#582929;stroke-linecap:round;stroke-linejoin:round;stroke-miterlimit:1.5;stroke-width:.26458"/>
  <path id="path2733" d="m-1.023 32.487c.20823-1.0345.43524-1.9976.6559-2.6723.1442-.4392.29633-.77787.4318-.97895.1307-.19315.27384-.31486.3982-.3863.30533-.17462.73237-.2196 1.2348.0582.46487.25929 1.125.92075 1.8362 1.8336-.32464.0847-.71967.26459-1.2647.53711-.07594.037-.15743.0767-.24368.11642-.28443-.34925-.55033-.64294-.78793-.8599l-.01058-.008c-.10054.27517-.22913.64823-.31829.99748-.0344.13229-.06879.27252-.10292.4154-.64135.28575-1.3107.60325-1.8132.93927z" style="clip-rule:evenodd;fill-rule:evenodd;fill:#3c1515;stroke-linecap:round;stroke-linejoin:round;stroke-miterlimit:1.5;stroke-width:.26458"/>
  <path id="path22" d="m150.52 4.3215c2.9734 3.7525 15.943 3.6184 16.932 1.3637.27917-.63661.83741-1.3195 1.1755-1.9237 1.0707-1.9147 1.5472-4.1085.78669-6.2339-.19624-.54845-.60197-1.0319-.83079-1.5733-.51132-1.2087-1.3354-2.851-2.5246-3.6892-.97083-.68253-2.1397-1.0646-3.2344-1.5844-1.4977-.71187-4.0124-1.5796-5.7591-1.4211-2.2034.20134-4.9877 1.9619-6.0656 3.538-.47139.68852.12736 1.843-.1646 2.6177-.202.53791-.90923.46929-1.1962.88852-.26045.38101-.48786.78257-.79095 1.1568-.27012.33169-.1148.86379-.21099 1.2504-.28014 1.125-.24104 2.3768-.0796 3.5191.13025.92141 1.3977 1.378 1.9631 2.0914z" style="clip-rule:evenodd;fill-rule:evenodd;fill:#eee6e6;stroke-linecap:round;stroke-linejoin:round;stroke-miterlimit:1.5;stroke-width:.17184"/>
  <path id="path26" d="m161.21 7.2756c.007-.34714.10631-.69791.21916-1.1058.33435-1.2062.95889-1.2285 1.881-2.0526 1.1054-.98827 2.2904-2.3371 2.6085-3.7322.4969-2.1776-.87412-3.7167-1.7128-5.7354-.43842-1.0554-.54865-2.3714-.41075-3.539.79017.33754 1.5778.67003 2.2659 1.1543 1.1891.83819 2.0133 2.4805 2.5246 3.6892.22882.54146.63455 1.0249.83079 1.5733.76053 2.1255.28397 4.3193-.78669 6.2339-.33805.60421-.89629 1.2871-1.1755 1.9237-.4283.97676-3.105 1.5559-6.2441 1.5904z" style="clip-rule:evenodd;fill-rule:evenodd;fill:#b1b1b1;stroke-linecap:round;stroke-linejoin:round;stroke-miterlimit:1.5;stroke-width:.17184"/>
  <path id="path30" d="m161.21 7.2756c-4.1055.050965-9.0021-.82764-10.688-2.9541-.56545-.71345-1.8329-1.17-1.9631-2.0914-.16147-1.1423-.20057-2.3942.0796-3.5191.0962-.38661-.0591-.91872.21099-1.2504.30309-.37423.5305-.77579.79095-1.1568.28698-.41924.99421-.35061 1.1962-.88852.29196-.77463-.30679-1.9292.1646-2.6177 1.0779-1.576 3.8622-3.3366 6.0656-3.538 1.7467-.15853 4.2614.70924 5.7591 1.4211.31889.1511.64395.28978.96852.43003-.1379 1.1675-.0277 2.4835.41075 3.539.83873 2.0188 2.2098 3.5578 1.7128 5.7354-.3181 1.3951-1.503 2.7439-2.6085 3.7322-.92206.82403-1.5466.84639-1.881 2.0526-.11285.40787-.21212.75864-.21916 1.1058z" style="clip-rule:evenodd;fill-rule:evenodd;fill:#eee6e6;stroke-linecap:round;stroke-linejoin:round;stroke-miterlimit:1.5;stroke-width:.17184"/>
  <path id="path34" d="m155.76 5.3287c-.52518-.37369-.68855-.88867-.52359-1.6108.0901-.39521.49572-.67841.70598-1.0329.66256-1.1141 1.2271-2.4176 1.188-3.7179-.0349-1.1658.0147-2.4652-1.0669-3.3155-.11212-.08859-.90888-.76632-1.0836-.63694-.29927.22252.13407.80042.22499 1.0199.23498.56462.34384 1.5683.18249 2.1501-.37653 1.3595-.74272 2.7118-1.3171 4.0274-.22918.52433-.63532 1.0388-.60091 1.632.038.65171.84956 1.3129 1.4703 1.5765.27322.11657.5165.1336.81337.15834.0683.00569.4412.082043.35539.074894z" style="clip-rule:evenodd;fill-rule:evenodd;fill:#b1b1b1;stroke-linecap:round;stroke-linejoin:round;stroke-miterlimit:1.5;stroke-width:.17184"/>
  <path id="path38" d="m164.9 2.9219c.32154.27586.81511.42211 1.0999.71754.0359.036955-.69441.33354-.85942.41198-3.0005 1.4401-2.5098 2.3802-5.9861 2.5257-.1828.00741-1.245.27311-1.3858.12715-1.451-1.5086 1.2098-3.4832-2.9374-4.3592-1.528-.32138-3.019-.054213-4.5368-.014089-.6837.017435-2.3987.34034-2.0485-.17067 1.2227-1.7872-.0548-3.0468.67352-4.7829.42857-1.022 2.1045-1.6005 2.4152-2.5806.20072-.63506-1.2418-1.8324-.76569-2.3636.55244-.61546 3.7101.32528 4.6534.26639.84839-.052234.79496-1.0902 1.4857-1.327 2.6189-.90099 8.3978.37134 10.133 2.1753 1.6731 1.7373.078 4.4881 1.2749 6.155.45805.63657 1.9062.02296 2.3017.43275.23011.23913-1.1894 1.2918-1.3593 1.4604-1.6195 1.6069-3.3698 3.8321-6.0762 3.6066-.49734-.041436-1.5023.0009893-1.9019-.27976-.29823-.20922-.0727-.42657.04-.48025 2.2913-1.0997 2.3172-3.0545 2.4889-5.1153.0466-.55895 1.3478-.37776.9195-1.1332-.39541-.69766-5.4767-3.7184-5.7487-3.6247-.81983.28104-2.0784 1.3504-2.502 1.9685" style="clip-rule:evenodd;fill:none;stroke-linecap:round;stroke-linejoin:round;stroke-miterlimit:1.5;stroke-width:.42444px;stroke:#000000"/>
  <path id="path42" d="m159.38 1.2987c-.0667.094715-.483.91398-.0833.32946" style="clip-rule:evenodd;fill:none;stroke-linecap:round;stroke-linejoin:round;stroke-miterlimit:1.5;stroke-width:.42444px;stroke:#000000"/>
  <path id="path46" d="m159.54 1.0584c-.60999 1.6813-2.9092-3.3719-3.068-3.5355l-.25306-.26368c-.52673-.37058-4.3604-.48135-4.4003-.00271" style="clip-rule:evenodd;fill:none;stroke-linecap:round;stroke-linejoin:round;stroke-miterlimit:1.5;stroke-width:.42444px;stroke:#000000"/>
  <path id="path50" d="m150.87-8.4103c-.62932.2209 2.7636.95481 2.9931.97393.60579.050471 2.1526.19228 2.703-.072385.54864-.2632.80419-.90986 1.553-1.1062 1.0214-.26587 1.8825.35415 2.79.23245.24944-.03259.83609-.55786.79898-.82296-.20329-1.4369-1.5395-1.4124-2.907-1.5264-2.5249-.21036-4.6184-.18262-6.651.92734-.44344.24285-.4956.71885-.76377 1.0733-.47951.63609-.37243.90864.53608.98433z" style="clip-rule:evenodd;fill-rule:evenodd;fill:#b1b1b1;stroke-linecap:round;stroke-linejoin:round;stroke-miterlimit:1.5;stroke-width:.17184"/>
  <path id="path54" d="m155.4 6.0378c-.40949.69368-4.7737-.58048-5.159-1.4132-.70171-1.5141 1.2903-1.8899-.1695-2.9172" style="clip-rule:evenodd;fill:none;stroke-linecap:round;stroke-linejoin:round;stroke-miterlimit:1.5;stroke-width:.42444px;stroke:#000000"/>
  <path id="path58" d="m161.71 5.8764c-1.5473.21234 4.709 2.4302 6.196-.38463 2.2442-4.2477-2.5337-4.979-.21883-7.2768" style="clip-rule:evenodd;fill:none;stroke-linecap:round;stroke-linejoin:round;stroke-miterlimit:1.5;stroke-width:.42444px;stroke:#000000"/>
  <path id="path62" d="m168.68-4.6561c-2.2814-3.2145-9.7339-7.6587-13.986-4.5034" style="clip-rule:evenodd;fill:none;stroke-linecap:round;stroke-linejoin:round;stroke-miterlimit:1.5;stroke-width:.42444px;stroke:#000000"/>
  <path id="path66" d="m155.35 5.5406c-1.3571-.19717-2.4138-2.7484-1.6799-4.138 1.2144-2.2989 3.4264-2.1438 1.4064-5.3267" style="clip-rule:evenodd;fill:none;stroke-linecap:round;stroke-linejoin:round;stroke-miterlimit:1.5;stroke-width:.42444px;stroke:#000000"/>
  <circle id="circle320" cx=".27891" cy="-3.0324" r="8.3416" style="clip-rule:evenodd;fill-rule:evenodd;fill:#b9dce5;stroke-linecap:round;stroke-linejoin:round;stroke-miterlimit:1.5;stroke-width:.23062"/>
  <path id="path323" d="m6.6312-2.6795c-.87104-.73797-1.9978-1.2891-2.9265-1.7365-.61344-.29288-2.1576-1.3814-2.7962-1.4529-3.2706-.37129-4.712 1.9602-5.6577 3.1041-.08994.1107-.77994 4.2318-.57262 4.2572.83898.094553 3.3891-4.0819 4.0187-4.467.83575-.51197-.00346-1.5751 1.9049-1.3583 4.3407.49121 3.6622 4.5155 6.029 1.6535z" style="clip-rule:evenodd;fill:#ffd52f;stroke-linecap:round;stroke-linejoin:round;stroke-miterlimit:1.5;stroke-width:.23062"/>
  <path id="path326" d="m6.9013-2.9747c-1.0982-.5973-2.3825-.97551-3.4387-1.2776-.69715-.20064-2.5698-1.0424-3.2169-1.0216-3.3158.10608-3.9389 2.5852-4.4779 3.8375-.053964.11761-1.0154 2.802-.80485 2.7951.85074-.027674 3.6124-3.028 4.0971-3.4938.64296-.61805-.75919-1.6835 1.1752-1.7435 4.4009-.13837 5.318 4.0335 6.666.90402z" style="clip-rule:evenodd;fill:#ccff00;stroke-linecap:round;stroke-linejoin:round;stroke-miterlimit:1.5;stroke-width:.23062"/>
  <circle id="circle329" cx="-3.3777" cy="-7.3034" r="1.8578" style="clip-rule:evenodd;fill-rule:evenodd;fill:#def9ff;stroke-linecap:round;stroke-linejoin:round;stroke-miterlimit:1.5;stroke-width:.23062"/>
  <path id="path332" d="m6.634-2.8156c-1.2555-.4474-2.6281-.65264-3.7547-.81638-.74443-.10839-2.8315-.69646-3.4604-.59499-3.0273.91093-3.198 3.9551-4.5487 5.8323 4.5837-1.7066.43079-3.0349 9.3723-3.5469 1.3699.51889 2.2238.34131 2.3915-.87404z" style="clip-rule:evenodd;fill:#aad400;stroke-linecap:round;stroke-linejoin:round;stroke-miterlimit:1.5;stroke-width:.23062"/>
  <ellipse id="ellipse335" cx="-3.4783" cy="-7.5501" rx="1.5682" ry="1.4395" style="clip-rule:evenodd;fill-rule:evenodd;fill:#eafbff;stroke-linecap:round;stroke-linejoin:round;stroke-miterlimit:1.5;stroke-width:.23062"/>
  <ellipse id="ellipse338" transform="rotate(138.57)" cx="-2.4771" cy="8.5833" rx=".48499" ry=".41211" style="clip-rule:evenodd;fill-rule:evenodd;fill:#ffffff;stroke-linecap:round;stroke-linejoin:round;stroke-miterlimit:1.5;stroke-width:.23062"/>
  <path id="path341" d="m-5.6779-8.86c-1.5253 1.5567-2.3818 3.6507-2.385 5.8277 0 4.5777 3.7657 8.3414 8.3419 8.3414 3.2369-.0023062 6.1914-1.8911 7.555-4.8268-1.5663 1.6028-3.715 2.5091-5.9568 2.5137-4.5761 0-8.3416-3.766-8.3416-8.3414.00323-1.2153.27167-2.4146.78663-3.5146z" style="clip-rule:evenodd;fill:#98cbd9;stroke-linecap:round;stroke-linejoin:round;stroke-miterlimit:1.5;stroke-width:.23062"/>
  <path id="path344" d="m3.5193-8.7632c-.97274-.67801-2.0878-.84636-3.1322-.47507.66348.023062 1.3175.24907 1.9132.66418 2.1809 1.5267 3.091 5.2212 2.0158 8.1846-.56155 1.5428-1.5827 2.6705-2.8034 3.0995 1.701.064573 3.2688-1.2153 4.0224-3.2886 1.0751-2.9657.16512-6.6602-2.0158-8.1846z" style="clip-rule:evenodd;fill:#f1fcff;stroke-linecap:round;stroke-linejoin:round;stroke-miterlimit:1.5;stroke-width:.23062"/>
  <path id="path369" d="m-.95219-6.3503 5.9659-2.535-3.8899-5.105 4.2328 4.828 3.7195-5.283-3.3502 5.5193 6.1885 1.8399-6.3037-1.4172.10543 6.4199-.54554-6.3949z" style="clip-rule:evenodd;fill-rule:evenodd;fill:#d6f4f6;stroke-linecap:round;stroke-linejoin:round;stroke-miterlimit:1.5;stroke-width:.39176"/>
  <path id="path509" d="m72.579-3.2884 11.573-6.4027 10.242 8.3682-11.573 6.4027z" style="clip-rule:evenodd;fill-rule:evenodd;fill:#ff00ec;stroke-linecap:round;stroke-linejoin:round;stroke-miterlimit:1.5;stroke-width:.3938"/>
  <path id="path513" d="m72.914-3.4759 11.077-6.1282-1.4989 5.8775z" style="clip-rule:evenodd;fill-rule:evenodd;fill:#e985e2;stroke-linecap:round;stroke-linejoin:round;stroke-miterlimit:1.5;stroke-width:.26458"/>
  <path id="path517" d="m94.196-1.4864.1977.16153-11.39 6.3016-.53021-8.4302z" style="clip-rule:evenodd;fill-rule:evenodd;fill:#dd0ecd;stroke-linecap:round;stroke-linejoin:round;stroke-miterlimit:1.5;stroke-width:.26458"/>
  <path id="path521" d="m82.311-3.5407.52204 7.0319c.0054.073008.06873.1276.14174.12222.07274-.0054.12736-.069019.12196-.14176l-.51909-6.9939 10.459 2.2068c.07142.015201.14142-.03056.15663-.10198.01523-.071683-.0308-.14171-.10222-.15691l-10.445-2.204 1.5135-4.5559c.02299-.06939-.01463-.14424-.08402-.16723-.06913-.022964-.14424.014633-.16721.083759l-1.53 4.6062-7.4735.59968c-.07277.00566-.12714.06957-.12148.14234.0059.072792.06983.12716.14263.12124z" style="clip-rule:evenodd;fill-rule:evenodd;fill:#ffb1f9;stroke-linecap:round;stroke-linejoin:round;stroke-miterlimit:1.5;stroke-width:.26458"/>
  <g id="g536" transform="matrix(.26458 0 0 .26458 -234.88 -310.74)" clip-path="url(#_clip1)" style="clip-rule:evenodd;fill-rule:evenodd;stroke-linecap:round;stroke-linejoin:round;stroke-miterlimit:1.5"></g>
  <path id="path559" d="m72.914-3.1657 11.307-4.8588-7.8934-11.012 8.5332 10.457 6.7637-10.798-6.0334 11.322 12.073 4.3378-12.263-3.4598.69845 13.479-1.545-13.46z" style="clip-rule:evenodd;fill-rule:evenodd;fill:#f4e4f3;stroke-linecap:round;stroke-linejoin:round;stroke-miterlimit:1.5;stroke-width:.78738"/>
  <g id="g574" transform="matrix(.26458 0 0 .26458 -234.88 -310.74)" clip-path="url(#_clip3)" style="clip-rule:evenodd;fill-rule:evenodd;stroke-linecap:round;stroke-linejoin:round;stroke-miterlimit:1.5"></g>
  <path id="path1687" d="m-.54722 6.3779c-.67401-.24069-1.429.1171-1.6699.79102-1.201 3.368-1.7683 6.1632-2.1289 8.2129-.35815-.69536-.71827-1.4157-.9668-2.0215-.1387-.3381-.24362-.66693-.31055-.91602-.033466-.12454-.057788-.2301-.072266-.30273-.014478-.07264-.00628-.17949-.013672-.04297a.50005.50005 0 000-.002c.037086-.71354-.52094-1.3339-1.2344-1.373-.7147-.03888-1.3379.51968-1.377 1.2344-.046244.85433.25744 1.589.58789 2.3945.33895.82623.77906 1.7201 1.2188 2.5566.87962 1.6736 1.7656 3.127 1.7656 3.127a.50005.50005 0 00.089844.10938c.13256.12123.28904.21329.45898.27148l-.16211-.0918c.11193.09551.23974.17147.37695.22461a.50005.50005 0 00.099609.02734c.33944.05545.68645-.02536.9668-.22461l-.23047.08789c.093746-.01109.18621-.03154.27539-.0625a.50005.50005 0 00.20313-.13471s1.523-1.6553 2.873-3.1758c.67458-.75973 1.3028-1.4771 1.7051-1.9805.10298-.12887.1887-.24437.26367-.34961.042471-.05961.16602-.20787.26367-.46094.017766-.04604.071821-.19928.087891-.37695v-.002c.00846-.09732.00811-.24211-.027344-.40234-.01845-.08338-.047951-.18113-.097656-.28516-.046798-.09794-.080469-.14066-.11328-.1875-.032812-.04685-.085627-.11293-.085937-.11328-.0003102-.000353-.058342-.0605-.10352-.10156-.045173-.04106-.088883-.08578-.18555-.14648-.10483-.06583-.20979-.10996-.30859-.14062-.1923-.0597-.36683-.06375-.47852-.05664-.21381.01361-.39893.08671-.43945.10352-.2732.11323-.42261.24707-.49805.30664a.50005.50005 0 00-.009766.0098c-.015638.01311-.031869.0272-.046875.04102-.5357.4761-1.1159 1.2121-1.6953 1.8809.37874-1.9241.88605-4.1652 1.8105-6.7578.24069-.67401-.1171-1.4289-.79102-1.6699z" style="-inkscape-stroke:none;color:#000000;fill:#ffffff;stroke-linecap:round;stroke-linejoin:round;stroke-miterlimit:1.5"/>
  <path id="path1685" d="m-.71519 6.8486a.80698.80698 0 00-1.0313.48828c-1.4378 4.0319-2.0666 7.5769-2.373 9.5137-.23624-.42074-.26273-.43346-.52148-.92578-.42126-.80151-.83789-1.6513-1.1348-2.375-.29687-.72366-.43859-1.3862-.43359-1.4785a.80698.80698 0 00-.76172-.84766.80698.80698 0 00-.84961.76172c-.03883.71737.22161 1.3753.55078 2.1777.32917.80239.76384 1.6853 1.1992 2.5137.87076 1.6568 1.75 3.0996 1.75 3.0996a.80706.80706 0 00.2832.16797.80706.80706 0 00.23242.13867.80706.80706 0 00.59766-.13867.80706.80706 0 00.16992-.03906s1.5215-1.6543 2.8672-3.1699c.67287-.75781 1.2991-1.4749 1.6875-1.9609.097092-.1215.17797-.22976.24805-.32812.070078-.09836.12382-.14409.20312-.34961.019825-.05138.045447-.11527.056641-.24219.0056-.06346.00622-.14441-.017578-.25195-.011898-.05377-.030583-.11502-.060547-.17773-.029964-.06271-.12243-.18484-.12305-.18555-.0006205-.000706-.11491-.11362-.17969-.1543-.064777-.04068-.13002-.06884-.19141-.08789-.12277-.03811-.22343-.03996-.29883-.03516-.15079.0096-.22245.04284-.2793.06641-.2274.09425-.26801.15072-.37891.23828a.80706.80706 0 00-.035156.03125c-.87728.77968-1.9634 2.0648-2.8809 3.1992.36459-2.1227.97167-5.1912 2.1934-8.6172a.80698.80698 0 00-.48828-1.0312z" style="-inkscape-stroke:none;color:#000000;fill:#ff0000;stroke-linecap:round;stroke-linejoin:round;stroke-miterlimit:1.5"/>
  <path id="path1748" d="m-.88316 7.3193c.16516.059056.24453.22739.18555.39258-1.2358 3.4656-1.8482 6.5665-2.2148 8.7012a.50005.50005 0 00.88086.39844c.91222-1.1279 1.9977-2.406 2.8242-3.1406a.50005.50005 0 00.011719-.0098c.0007237-.000682.001223-.0013.001953-.002.14635-.11556.078172-.09466.25977-.16992.073176-.03034.031356-.02371.11914-.0293.039107-.0025.06591-.0029.11914.01367.023958.0074.049492.01963.074219.03516-.031887-.02002.014648.01332.042969.03906s.027033.02113.027344.02148c.0003103.000354-.00544-.0047.015625.02539.021065.03007.048084.08015.03125.04492.010223.0214.018091.04615.023437.07031.011967.05408.010424.07002.00781.09961a.50005.50005 0 000 .002c-.00662.07503-.00359.04898-.025391.10547-.060953.15797-.044893.10117-.14258.23828-.065185.0915-.14121.1925-.23242.30664-.37446.46861-.99877 1.1855-1.6699 1.9414-1.2984 1.4623-2.6768 2.9616-2.7695 3.0625a.50005.50005 0 00-.18359.07031c-.054709.03888-.12322.0448-.18945.04297-.00872-.006-.019265-.0087-.027344-.01563a.50005.50005 0 00-.16211-.0918c-.024024-.0082-.043284-.02528-.064453-.03906-.045635-.07507-.84911-1.3931-1.6875-2.9883-.43107-.82018-.8603-1.6922-1.1797-2.4707-.32789-.79926-.54509-1.3805-.51367-1.9609.00958-.17516.1471-.29859.32227-.28906.17481.0096.29815.14743.28906.32227-.0094.17923.013368.1915.033203.29102.019966.10017.049443.2241.087891.36719.076896.28617.19144.6496.34961 1.0352.30705.74846.72849 1.6078 1.1543 2.418.26364.50162.29876.52692.5293.9375a.50005.50005 0 00.92969-.16602c.30462-1.9254.92751-5.4358 2.3496-9.4238.059056-.16516.22739-.24453.39258-.18555z" style="-inkscape-stroke:none;color:#000000;fill:#ff0000;stroke-linecap:round;stroke-linejoin:round;stroke-miterlimit:1.5"/>
  <path id="path1687-5" d="m83.526 6.7006c-.67401-.24069-1.429.1171-1.6699.79102-1.201 3.368-1.7683 6.1632-2.1289 8.2129-.35815-.69536-.71828-1.4157-.9668-2.0215-.1387-.3381-.24362-.66693-.31055-.91602-.03347-.12454-.05779-.2301-.07227-.30273-.01448-.07264-.0063-.17949-.01367-.04297a.50005.50005 0 000-.002c.03709-.71354-.52094-1.3339-1.2344-1.373-.7147-.03888-1.3379.51968-1.377 1.2344-.04624.85433.25744 1.589.58789 2.3945.33895.82623.77906 1.7201 1.2188 2.5566.87962 1.6736 1.7656 3.127 1.7656 3.127a.50005.50005 0 00.08984.10938c.13256.12123.28904.21329.45898.27148l-.16211-.0918c.11193.09551.23974.17147.37695.22461a.50005.50005 0 00.09961.02734c.33944.05545.68645-.02536.9668-.22461l-.23047.08789c.09375-.01109.18621-.03154.27539-.0625a.50005.50005 0 00.20313-.13471s1.523-1.6553 2.873-3.1758c.67458-.75973 1.3028-1.4771 1.7051-1.9805.10298-.12887.1887-.24437.26367-.34961.04247-.05961.16602-.20787.26367-.46094.01777-.04604.07182-.19928.08789-.37695v-.002c.0085-.09732.0081-.24211-.02734-.40234-.01845-.08338-.04795-.18113-.09766-.28516-.0468-.09794-.08047-.14066-.11328-.1875-.03281-.04685-.08563-.11293-.08594-.11328s-.05834-.0605-.10352-.10156c-.04517-.04106-.08888-.08578-.18555-.14648-.10483-.06583-.20979-.10996-.30859-.14062-.1923-.0597-.36683-.06375-.47852-.05664-.21381.01361-.39893.08671-.43945.10352-.2732.11323-.42261.24707-.49805.30664a.50005.50005 0 00-.0098.0098c-.01564.01311-.03187.0272-.04687.04102-.5357.4761-1.1159 1.2121-1.6953 1.8809.37874-1.9241.88605-4.1652 1.8105-6.7578.24068-.67401-.1171-1.4289-.79102-1.6699z" style="-inkscape-stroke:none;color:#000000;fill:#ffffff;stroke-linecap:round;stroke-linejoin:round;stroke-miterlimit:1.5"/>
  <path id="path1685-1" d="m83.358 7.1713a.80698.80698 0 00-1.0312.48828c-1.4378 4.0319-2.0666 7.5769-2.373 9.5137-.23624-.42074-.26273-.43346-.52148-.92578-.42126-.80151-.83789-1.6513-1.1348-2.375s-.43859-1.3862-.43359-1.4785a.80698.80698 0 00-.76172-.84766.80698.80698 0 00-.84961.76172c-.03883.71737.22161 1.3753.55078 2.1777.32917.80239.76384 1.6853 1.1992 2.5137.87076 1.6568 1.75 3.0996 1.75 3.0996a.80706.80706 0 00.2832.16797.80706.80706 0 00.23242.13867.80706.80706 0 00.59766-.13867.80706.80706 0 00.16992-.03906s1.5215-1.6543 2.8672-3.1699c.67287-.75781 1.2991-1.4749 1.6875-1.9609.09709-.1215.17797-.22976.24805-.32812.07008-.09836.12382-.14409.20312-.34961.01982-.05138.04545-.11527.05664-.24219.0056-.06346.0062-.14441-.01758-.25195-.0119-.05377-.03058-.11502-.06055-.17773-.02996-.06271-.12243-.18484-.12305-.18555-.00062-.000706-.11491-.11362-.17969-.1543-.06478-.04068-.13002-.06884-.19141-.08789-.12277-.03811-.22343-.03996-.29883-.03516-.1508.0096-.22245.04284-.2793.06641-.2274.09425-.26801.15072-.37891.23828a.80706.80706 0 00-.03516.03125c-.87728.77968-1.9634 2.0648-2.8809 3.1992.36459-2.1227.97167-5.1912 2.1934-8.6172a.80698.80698 0 00-.48828-1.0312z" style="-inkscape-stroke:none;color:#000000;fill:#ff0000;stroke-linecap:round;stroke-linejoin:round;stroke-miterlimit:1.5"/>
  <path id="path1748-6" d="m83.19 7.642c.16516.059056.24454.22739.18555.39258-1.2358 3.4656-1.8482 6.5665-2.2148 8.7012a.50005.50005 0 00.88086.39844c.91222-1.1279 1.9977-2.406 2.8242-3.1406a.50005.50005 0 00.01172-.0098c.000724-.000682.0012-.0013.002-.002.14635-.11556.07817-.09466.25977-.16992.07318-.03034.03136-.02371.11914-.0293.03911-.0025.06591-.0029.11914.01367.02396.0074.04949.01963.07422.03516-.03189-.02002.01465.01332.04297.03906s.02703.02113.02734.02148c.00031.000354-.0054-.0047.01563.02539.02106.03007.04808.08015.03125.04492.01022.0214.01809.04615.02344.07031.01197.05408.01042.07002.0078.09961a.50005.50005 0 000 .002c-.0066.07503-.0036.04898-.02539.10547-.06095.15797-.04489.10117-.14258.23828-.06518.0915-.14121.1925-.23242.30664-.37446.46861-.99877 1.1855-1.6699 1.9414-1.2984 1.4623-2.6768 2.9616-2.7695 3.0625a.50005.50005 0 00-.18359.07031c-.05471.03888-.12322.0448-.18945.04297-.0087-.006-.01927-.0087-.02734-.01563a.50005.50005 0 00-.16211-.0918c-.02402-.0082-.04328-.02528-.06445-.03906-.04564-.07507-.84911-1.3931-1.6875-2.9883-.43107-.82018-.8603-1.6922-1.1797-2.4707-.32789-.79926-.54509-1.3805-.51367-1.9609.0096-.17516.1471-.29859.32226-.28906.17481.0096.29815.14743.28906.32227-.0094.17923.01337.1915.0332.29102.01997.10017.04944.2241.08789.36719.0769.28617.19144.6496.34961 1.0352.30705.74846.72849 1.6078 1.1543 2.418.26364.50162.29876.52692.5293.9375a.50005.50005 0 00.92969-.16602c.30462-1.9254.92751-5.4358 2.3496-9.4238.05906-.16516.22739-.24453.39258-.18555z" style="-inkscape-stroke:none;color:#000000;fill:#ff0000;stroke-linecap:round;stroke-linejoin:round;stroke-miterlimit:1.5"/>
  <path id="path1687-1" d="m158.22 10.266c-.67401-.24069-1.429.1171-1.6699.79102-1.201 3.368-1.7683 6.1632-2.1289 8.2129-.35815-.69536-.71827-1.4157-.96679-2.0215-.13871-.3381-.24362-.66693-.31055-.91602-.0335-.12454-.0578-.2301-.0723-.30273-.0145-.07264-.006-.17949-.0137-.04297a.50005.50005 0 000-.002c.0371-.71354-.52094-1.3339-1.2344-1.373-.71471-.03888-1.3379.51968-1.377 1.2344-.0462.85433.25744 1.589.58789 2.3945.33895.82623.77907 1.7201 1.2188 2.5566.87963 1.6736 1.7656 3.127 1.7656 3.127a.50005.50005 0 00.0898.10938c.13256.12123.28904.21329.45899.27148l-.16211-.0918c.11193.09551.23973.17147.37695.22461a.50005.50005 0 00.0996.02734c.33944.05545.68645-.02536.9668-.22461l-.23047.08789c.0937-.01109.18621-.03154.27539-.0625a.50005.50005 0 00.20312-.13471s1.523-1.6553 2.873-3.1758c.67458-.75973 1.3028-1.4771 1.7051-1.9805.10298-.12887.1887-.24437.26367-.34961.0425-.05961.16603-.20787.26367-.46094.0178-.04604.0718-.19928.0879-.37695v-.002c.008-.09732.008-.24211-.0273-.40234-.0185-.08338-.048-.18113-.0977-.28516-.0468-.09794-.0805-.14066-.11328-.1875-.0328-.04685-.0856-.11293-.0859-.11328-.00031-.000353-.0583-.0605-.10352-.10156-.0452-.04106-.0889-.08578-.18555-.14648-.10482-.06583-.20978-.10996-.30859-.14062-.1923-.0597-.36683-.06375-.47852-.05664-.2138.01361-.39893.08671-.43945.10352-.2732.11323-.42261.24707-.49805.30664a.50005.50005 0 00-.01.0098c-.0156.01311-.0319.0272-.0469.04102-.5357.4761-1.1159 1.2121-1.6953 1.8809.37874-1.9241.88605-4.1652 1.8106-6.7578.24068-.67401-.1171-1.4289-.79102-1.6699z" style="-inkscape-stroke:none;color:#000000;fill:#ffffff;stroke-linecap:round;stroke-linejoin:round;stroke-miterlimit:1.5"/>
  <path id="path1685-8" d="m158.05 10.736a.80698.80698 0 00-1.0312.48828c-1.4378 4.0319-2.0666 7.5769-2.373 9.5137-.23624-.42074-.26273-.43346-.52148-.92578-.42126-.80151-.8379-1.6513-1.1348-2.375s-.43859-1.3862-.43359-1.4785a.80698.80698 0 00-.76172-.84766.80698.80698 0 00-.84961.76172c-.0388.71737.22161 1.3753.55078 2.1777.32917.80239.76384 1.6853 1.1992 2.5137.87076 1.6568 1.75 3.0996 1.75 3.0996a.80706.80706 0 00.2832.16797.80706.80706 0 00.23242.13867.80706.80706 0 00.59766-.13867.80706.80706 0 00.16992-.03906s1.5215-1.6543 2.8672-3.1699c.67287-.75781 1.2991-1.4749 1.6875-1.9609.0971-.1215.17797-.22976.24805-.32812.0701-.09836.12382-.14409.20312-.34961.0198-.05138.0455-.11527.0566-.24219.006-.06346.006-.14441-.0176-.25195-.0119-.05377-.0306-.11502-.0605-.17773-.03-.06271-.12243-.18484-.12305-.18555-.00062-.000706-.11491-.11362-.17969-.1543-.0648-.04068-.13002-.06884-.1914-.08789-.12277-.03811-.22343-.03996-.29883-.03516-.1508.0096-.22245.04284-.2793.06641-.22739.09425-.26801.15072-.3789.23828a.80706.80706 0 00-.0352.03125c-.87728.77968-1.9634 2.0648-2.8809 3.1992.36459-2.1227.97167-5.1912 2.1934-8.6172a.80698.80698 0 00-.48828-1.0312z" style="-inkscape-stroke:none;color:#000000;fill:#ff0000;stroke-linecap:round;stroke-linejoin:round;stroke-miterlimit:1.5"/>
  <path id="path1748-1" d="m157.89 11.207c.16516.05906.24453.22739.18555.39258-1.2358 3.4656-1.8482 6.5665-2.2148 8.7012a.50005.50005 0 00.88086.39844c.91222-1.1279 1.9977-2.406 2.8242-3.1406a.50005.50005 0 00.0117-.0098c.00072-.000682.001-.0013.002-.002.14635-.11556.0782-.09466.25977-.16992.0732-.03034.0314-.02371.11914-.0293.0391-.0025.0659-.0029.11914.01367.024.0074.0495.01963.0742.03516-.0319-.02002.0146.01332.043.03906.0283.02574.027.02113.0273.02148.00031.000354-.005-.0047.0156.02539.0211.03007.0481.08015.0312.04492.0102.0214.0181.04615.0234.07031.012.05408.0104.07002.008.09961a.50005.50005 0 000 .002c-.007.07503-.004.04898-.0254.10547-.061.15797-.0449.10117-.14258.23828-.0652.0915-.14122.1925-.23242.30664-.37447.46861-.99877 1.1855-1.6699 1.9414-1.2984 1.4623-2.6768 2.9616-2.7695 3.0625a.50005.50005 0 00-.18359.07031c-.0547.03888-.12322.0448-.18945.04297-.009-.006-.0193-.0087-.0273-.01563a.50005.50005 0 00-.16211-.0918c-.024-.0082-.0433-.02528-.0644-.03906-.0456-.07507-.84911-1.3931-1.6875-2.9883-.43107-.82018-.8603-1.6922-1.1797-2.4707-.32789-.79926-.54509-1.3805-.51367-1.9609.01-.17516.1471-.29859.32227-.28906.1748.0096.29814.14743.28906.32227-.009.17923.0134.1915.0332.29102.02.10017.0494.2241.0879.36719.0769.28617.19144.6496.34961 1.0352.30705.74846.72849 1.6078 1.1543 2.418.26364.50162.29876.52692.52929.9375a.50005.50005 0 00.92969-.16602c.30463-1.9254.92751-5.4358 2.3496-9.4238.0591-.16516.22739-.24454.39258-.18555z" style="-inkscape-stroke:none;color:#000000;fill:#ff0000;stroke-linecap:round;stroke-linejoin:round;stroke-miterlimit:1.5"/>
 </g>
</svg>
