<?xml version="1.0" encoding="UTF-8" standalone="no"?>
<!-- Created with Inkscape (http://www.inkscape.org/) -->

<svg
   width="24.193817mm"
   height="24.312294mm"
   viewBox="0 0 24.193817 24.312294"
   version="1.1"
   id="svg90202"
   inkscape:version="1.1.1 (3bf5ae0d25, 2021-09-20)"
   sodipodi:docname="2022-TR-02-explanation_symbol4.svg"
   xmlns:inkscape="http://www.inkscape.org/namespaces/inkscape"
   xmlns:sodipodi="http://sodipodi.sourceforge.net/DTD/sodipodi-0.dtd"
   xmlns="http://www.w3.org/2000/svg"
   xmlns:svg="http://www.w3.org/2000/svg">
  <sodipodi:namedview
     id="namedview90204"
     pagecolor="#ffffff"
     bordercolor="#666666"
     borderopacity="1.0"
     inkscape:pageshadow="2"
     inkscape:pageopacity="0.0"
     inkscape:pagecheckerboard="0"
     inkscape:document-units="mm"
     showgrid="false"
     inkscape:zoom="2.6547419"
     inkscape:cx="57.44438"
     inkscape:cy="150.86213"
     inkscape:window-width="1920"
     inkscape:window-height="1137"
     inkscape:window-x="-8"
     inkscape:window-y="-8"
     inkscape:window-maximized="1"
     inkscape:current-layer="layer1" />
  <defs
     id="defs90199" />
  <g
     inkscape:label="Ebene 1"
     inkscape:groupmode="layer"
     id="layer1"
     transform="translate(-53.150823,-12.650288)">
    <g
       transform="matrix(0.29290168,0,0,0.29290168,-276.99031,-215.34438)"
       id="g4120"
       style="clip-rule:evenodd;fill-rule:evenodd;stroke-linecap:round;stroke-linejoin:round;stroke-miterlimit:1.5">
      <path
         d="m 1156.33,793.172 c -1.9,-0.404 -3.99,-0.633 -6.29,-0.681 h -0.01 -8.85 v 16.929 c -1.71,1.08 -3.44,2.456 -5.19,4.131 l -0.01,0.01 -6.25,6.255 11.97,11.97 c -0.45,1.975 -0.7,4.171 -0.75,6.591 v 0.013 8.846 h 16.93 c 1.08,1.712 2.45,3.442 4.13,5.189 l 0.01,0.01 6.25,6.255 11.97,-11.971 c 1.98,0.446 4.17,0.697 6.6,0.748 h 0.01 8.84 v -16.929 c 1.71,-1.081 3.45,-2.456 5.19,-4.132 l 0.01,-0.009 6.26,-6.255 -11.97,-11.971 c 0.44,-1.974 0.69,-4.17 0.74,-6.59 v -0.014 -8.846 h -17.04 c -1.1,-1.76 -2.5,-3.542 -4.23,-5.342 l -0.01,-0.009 -6.26,-6.255 z m 6.55,34.016 c -3.58,3.464 -5.41,7.03 -5.4,10.755 0,4.087 2.19,8.291 6.39,12.678 l 3.11,3.107 v -24.879 c -1.52,-0.216 -2.92,-0.801 -4.1,-1.661 z m 6.69,26.54 7.84,-7.839 c -2.35,-0.864 -4.3,-2.077 -5.85,-3.623 -0.76,-0.754 -1.42,-1.589 -1.99,-2.505 z m 4.06,-26.491 c -1.17,0.832 -2.54,1.399 -4.02,1.611 -0.11,5.056 1.12,8.924 3.78,11.583 2.89,2.887 7.41,4.314 13.49,4.444 h 4.39 z m -28.26,17.407 h 11.09 c -1.05,-2.274 -1.57,-4.509 -1.58,-6.698 0,-1.067 0.13,-2.127 0.37,-3.178 z m 47.73,-12.688 c -2.27,1.051 -4.51,1.572 -6.7,1.574 -1.06,10e-4 -2.12,-0.12 -3.17,-0.365 l 9.87,9.877 z m -33.93,-10.813 c -4.86,-0.036 -8.6,1.195 -11.18,3.789 -2.89,2.892 -4.32,7.41 -4.45,13.486 v 4.393 l 17.45,-17.451 c -0.93,-1.204 -1.57,-2.645 -1.82,-4.217 z m 18.19,0.295 c -0.29,1.485 -0.92,2.844 -1.82,3.985 3.5,3.651 7.1,5.519 10.86,5.515 4.09,-0.004 8.29,-2.189 12.68,-6.394 l 3.11,-3.106 z m -42.67,-0.326 7.84,7.838 c 0.86,-2.351 2.07,-4.3 3.62,-5.849 0.75,-0.755 1.59,-1.419 2.5,-1.989 z m 33.6,-8.122 c 3.75,0 6.8,3.013 6.8,6.724 0,3.712 -3.05,6.725 -6.8,6.725 -3.76,0 -6.81,-3.013 -6.81,-6.725 0,-3.711 3.05,-6.724 6.81,-6.724 z m 26.06,-1.983 c -0.87,2.351 -2.08,4.3 -3.63,5.85 -0.75,0.755 -1.59,1.418 -2.5,1.989 h 13.97 z m -18.42,3.54 c 0.84,1.239 1.39,2.695 1.54,4.265 4.98,0.077 8.79,-1.151 11.42,-3.787 2.89,-2.892 4.31,-7.41 4.44,-13.486 v -4.392 z m -14.99,-0.416 c -3.37,-3.385 -6.84,-5.115 -10.47,-5.112 -4.08,0.004 -8.29,2.189 -12.68,6.394 l -3.1,3.106 h 24.45 c 0.21,-1.635 0.85,-3.137 1.8,-4.388 z m 8.74,-6.777 c 0.13,1.035 0.19,2.123 0.18,3.267 1.53,0.263 2.93,0.902 4.1,1.818 3.46,-3.409 5.22,-6.917 5.22,-10.578 0,-4.086 -2.19,-8.29 -6.39,-12.678 l -3.11,-3.106 z m -2.59,0.136 c -0.43,-3.321 -1.62,-5.979 -3.61,-7.963 -2.89,-2.887 -7.41,-4.315 -13.48,-4.444 h -4.39 l 17.2,17.207 c 1.23,-0.909 2.69,-1.519 4.28,-1.726 z m -23.32,0.511 c 2.28,-1.051 4.51,-1.572 6.7,-1.574 1.07,-10e-4 2.13,0.12 3.18,0.365 l -9.88,-9.876 z m 36.5,-12.687 c 1,2.221 1.5,4.405 1.5,6.545 0.01,1.233 -0.16,2.457 -0.48,3.669 l 10.21,-10.214 z m -21.08,-1.343 c 2.48,0.87 4.52,2.115 6.13,3.721 0.66,0.661 1.25,1.384 1.77,2.17 v -13.785 z"
         style="fill:#ff586d"
         id="path4118" />
    </g>
  </g>
</svg>
