<?xml version="1.0" encoding="UTF-8" standalone="no"?>
<!-- Created with Inkscape (http://www.inkscape.org/) -->

<svg
   width="64.395348mm"
   height="67.015251mm"
   viewBox="0 0 64.395348 67.015251"
   version="1.1"
   id="svg4616"
   inkscape:version="1.1.1 (3bf5ae0d25, 2021-09-20)"
   sodipodi:docname="2022-FR-02a-solution.svg"
   xmlns:inkscape="http://www.inkscape.org/namespaces/inkscape"
   xmlns:sodipodi="http://sodipodi.sourceforge.net/DTD/sodipodi-0.dtd"
   xmlns="http://www.w3.org/2000/svg"
   xmlns:svg="http://www.w3.org/2000/svg"
   xmlns:serif="http://www.serif.com/">
  <sodipodi:namedview
     id="namedview4618"
     pagecolor="#ffffff"
     bordercolor="#666666"
     borderopacity="1.0"
     inkscape:pageshadow="2"
     inkscape:pageopacity="0.0"
     inkscape:pagecheckerboard="0"
     inkscape:document-units="mm"
     showgrid="false"
     inkscape:zoom="0.66368547"
     inkscape:cx="404.55911"
     inkscape:cy="220.73709"
     inkscape:window-width="1680"
     inkscape:window-height="1027"
     inkscape:window-x="1912"
     inkscape:window-y="-8"
     inkscape:window-maximized="1"
     inkscape:current-layer="g128" />
  <defs
     id="defs4613" />
  <g
     inkscape:label="Ebene 1"
     inkscape:groupmode="layer"
     id="layer1"
     transform="translate(-74.642593,-48.217206)">
    <g
       id="g3548"
       style="clip-rule:evenodd;fill-rule:evenodd"
       transform="matrix(0.26458333,0,0,0.26458333,12.236858,35.353614)">
      <g
         id="path1741"
         transform="translate(207.0902,90.7153)">
        <path
           d="m 125.346,-42.097 -24.712,42 h -47.24 l -24.62,42.643 24.247,42 -1.113,1.928 -23.134,40.072 24.62,42.643 h 47.24 l 24.712,42 h 51.241 l 24.249,-42 h 46.704 l 24.618,-42.643 -24.248,-42 24.248,-42 -24.618,-42.643 h -46.704 l -24.249,-42 z"
           style="fill:#89cc5c;fill-opacity:1;fill-rule:nonzero"
           id="path2"
           sodipodi:nodetypes="cccccccccccccccccccc" />
      </g>
      <g
         id="hex0-0"
         transform="translate(207.0897,90.7153)">
        <path
           d="m 193.768,84.546 -21.651,37.5 h -43.302 l -21.65,-37.5 21.65,-37.5 h 43.302 z"
           style="fill:#fff2aa;fill-rule:nonzero;stroke:#ff9500;stroke-width:1.5px"
           id="path8" />
      </g>
      <g
         transform="translate(291.9605,-278.0307)"
         id="g49"
         style="clip-rule:evenodd;fill-rule:evenodd">
        <g
           id="hex01"
           serif:id="hex0"
           transform="translate(-12.4183,242.746)">
          <path
             d="m 121.315,126.546 -21.65,37.5 H 56.363 l -21.65,-37.5 21.65,-37.5 h 43.302 z"
             style="fill:#fff2aa;fill-rule:nonzero;stroke:#ff9500;stroke-width:1.5px"
             id="path28" />
        </g>
        <g
           id="draggable6"
           transform="matrix(0.264583,0,0,0.264583,-345.982,292.582)">
          <path
             id="path2-5"
             d="m 1487.69,293.414 -0.01,-0.003 -0.14,0.902 c 1.26,-8.734 4.82,-17.351 11.03,-25.027 11.58,-14.304 29.92,-21.334 48.09,-18.454 1.33,0.21 2.63,0.462 3.9,0.76 l -2.7,16.999 c -1.26,-0.348 -2.55,-0.64 -3.87,-0.85 -19.72,-3.127 -36.43,10.752 -39.37,28.358 l -0.03,-0.006 c -0.89,4.498 -5.18,7.52 -9.74,6.797 -4.56,-0.722 -7.7,-4.921 -7.16,-9.476 z m 127.53,9.479 c -4.57,0.723 -8.86,-2.302 -9.74,-6.8 l -0.04,0.006 c -2.93,-17.606 -19.65,-31.485 -39.37,-28.358 -1.32,0.21 -2.61,0.502 -3.87,0.853 l -2.7,-16.999 c 1.27,-0.301 2.57,-0.55 3.89,-0.763 18.18,-2.88 36.52,4.153 48.1,18.454 6.21,7.676 9.77,16.293 11.03,25.03 l -0.14,-0.902 h -0.01 c 0.54,4.555 -2.6,8.756 -7.15,9.479 z m -9.23,-105.188 v 0 l -0.11,-0.683 c 1.2,6.588 0.71,13.646 -1.92,20.667 -4.89,13.08 -16.4,22.55 -30.17,24.849 -1.01,0.167 -2,0.3 -2.99,0.388 l -2.15,-12.883 c 0.99,-0.051 1.99,-0.15 3,-0.318 14.94,-2.494 23.63,-16.503 21.51,-29.88 l 0.02,-0.002 c -0.44,-3.453 1.92,-6.662 5.38,-7.237 3.45,-0.579 6.72,1.689 7.43,5.099 z m -92.08,-5.102 c 3.46,0.578 5.82,3.784 5.38,7.237 l 0.02,0.005 c -2.12,13.377 6.57,27.386 21.51,29.878 1.01,0.167 2,0.269 3,0.32 l -2.15,12.883 c -0.99,-0.09 -1.98,-0.221 -2.99,-0.388 -13.77,-2.299 -25.28,-11.772 -30.17,-24.851 -2.63,-7.019 -3.12,-14.077 -1.92,-20.665 l -0.11,0.68 v 0.003 c 0.71,-3.41 3.97,-5.678 7.43,-5.102 z"
             style="fill:#915f2d;fill-rule:nonzero" />
          <path
             id="path4-4"
             d="m 1596.95,169.189 c 0,2.338 -1.86,4.246 -4.18,4.331 v 0.02 c -9.04,0.074 -17.3,7.33 -17.3,17.441 0,0.678 0.04,1.347 0.11,2.007 h -8.71 c -0.05,-0.657 -0.08,-1.326 -0.08,-2.007 0,-9.32 4.98,-17.934 13.05,-22.595 4.33,-2.5 8.93,-3.597 13.39,-3.532 h -0.46 v 0.003 c 2.32,0.088 4.18,1.993 4.18,4.332 z"
             style="fill-rule:nonzero" />
          <g
             id="path6-9"
             transform="rotate(180,1530.865,178.92)">
            <path
               d="m 1545.94,188.651 c 0,-2.338 -1.85,-4.246 -4.17,-4.331 v -0.02 c -9.04,-0.074 -17.31,-7.33 -17.31,-17.441 0,-0.678 0.04,-1.347 0.12,-2.007 h -8.72 c -0.05,0.657 -0.07,1.326 -0.07,2.007 0,9.32 4.97,17.934 13.05,22.595 4.33,2.5 8.92,3.597 13.39,3.532 h -0.46 v -0.003 c 2.32,-0.088 4.17,-1.993 4.17,-4.332 z"
               style="fill-rule:nonzero"
               id="path33" />
          </g>
          <g
             id="circle8-14"
             transform="matrix(1.20959,0,0,1,-330.892,151.733)">
            <circle
               cx="1560.17"
               cy="54.980999"
               r="22.343"
               style="fill:#915f2d"
               id="circle36" />
          </g>
          <circle
             id="circle10-0"
             cx="1555.83"
             cy="249.16499"
             r="30.402"
             style="fill:#cd853d" />
          <path
             id="path12-66"
             d="m 1640.2,243.394 c 0.26,0.136 0.53,0.283 0.79,0.437 11.59,6.689 15.56,21.509 8.87,33.097 -6.57,11.378 -20.98,15.409 -32.47,9.215 l -0.01,0.006 c -0.2,-0.113 -0.39,-0.227 -0.59,-0.34 -0.01,-0.006 -0.02,-0.012 -0.03,-0.017 -0.01,-0.006 -0.02,-0.009 -0.03,-0.017 -21.24,-12.26 -35.43,-20.727 -51.15,-56.687 41.08,-5.08 54.43,2.63 74.63,14.292 0,0.003 -0.01,0.008 -0.01,0.014 z"
             style="fill:#a2e8df;fill-rule:nonzero" />
          <g
             id="path14-6"
             transform="translate(-1.13386e-5)">
            <path
               d="m 1470.93,243.38 c 20.2,-11.665 33.55,-19.372 74.63,-14.298 -15.72,35.966 -29.92,44.43 -51.16,56.698 0,0.006 -0.01,0.009 -0.03,0.017 0,0.006 -0.01,0.009 -0.02,0.015 -0.2,0.113 -0.39,0.226 -0.59,0.34 l -0.01,-0.009 c -11.49,6.194 -25.9,2.16 -32.47,-9.221 -6.69,-11.582 -2.72,-26.402 8.87,-33.091 0.26,-0.154 0.53,-0.301 0.79,-0.44 0,-0.005 -0.01,-0.008 -0.01,-0.011 z"
               style="fill:#a2e8df;fill-rule:nonzero"
               id="path41" />
          </g>
          <g
             id="path16-4"
             transform="rotate(-120.00001,1560.9069,336.15705)">
            <path
               d="m 1607.25,313.815 c 0.4,0.204 0.8,0.422 1.2,0.655 17.4,10.049 23.36,32.309 13.31,49.714 -9.86,17.09 -31.51,23.145 -48.77,13.842 v 0.008 c -0.31,-0.17 -0.6,-0.34 -0.89,-0.51 -0.02,-0.009 -0.03,-0.017 -0.04,-0.026 -0.02,-0.008 -0.04,-0.011 -0.05,-0.025 -31.9,-18.417 -53.22,-31.133 -76.84,-85.15 61.71,-7.631 81.76,3.951 112.1,21.469 0,0.003 -0.01,0.012 -0.02,0.023 z"
               style="fill:#915f2d;fill-rule:nonzero"
               id="path44" />
          </g>
          <path
             id="path18-0"
             d="m 1518.39,307.193 c -0.02,-0.447 -0.03,-0.901 -0.03,-1.36 0,-0.21 0,-0.423 0.01,-0.632 h 72.77 c 0,0.195 0,0.388 0,0.584 v 0.051 c 0,0.017 0.01,0.031 0,0.051 0,6.817 -0.01,13.226 -0.26,19.44 h -72.29 c -0.23,-5.809 -0.23,-11.776 -0.23,-18.136 0,0 0.02,0.005 0.03,0.002 z m 6.68,54.8 h 59.9 c -2.04,6.381 -4.76,13.016 -8.37,20.126 h -42.46 c -3.91,-7.209 -6.86,-13.836 -9.07,-20.126 z"
             style="fill:#ffcc32;fill-rule:nonzero" />
        </g>
      </g>
      <g
         transform="translate(260.5133,-152.0307)"
         id="g69"
         style="clip-rule:evenodd;fill-rule:evenodd">
        <g
           id="hex02"
           serif:id="hex0"
           transform="translate(91.4814,242.746)">
          <path
             d="m 121.315,126.546 -21.65,37.5 H 56.363 l -21.65,-37.5 21.65,-37.5 h 43.302 z"
             style="fill:#fff2aa;fill-rule:nonzero;stroke:#ff9500;stroke-width:1.5px"
             id="path51" />
        </g>
        <g
           id="draggable1"
           transform="matrix(0.264583,0,0,0.264583,-242.082,291.8)">
          <path
             id="path964"
             d="m 1487.69,293.414 -0.01,-0.003 -0.14,0.902 c 1.26,-8.734 4.82,-17.351 11.03,-25.027 11.58,-14.304 29.92,-21.334 48.09,-18.454 1.33,0.21 2.63,0.462 3.9,0.76 l -2.7,16.999 c -1.26,-0.348 -2.55,-0.64 -3.87,-0.85 -19.72,-3.127 -36.43,10.752 -39.37,28.358 l -0.03,-0.006 c -0.89,4.498 -5.18,7.52 -9.74,6.797 -4.56,-0.722 -7.7,-4.921 -7.16,-9.476 z m 127.53,9.479 c -4.57,0.723 -8.86,-2.302 -9.74,-6.8 l -0.04,0.006 c -2.93,-17.606 -19.65,-31.485 -39.37,-28.358 -1.32,0.21 -2.61,0.502 -3.87,0.853 l -2.7,-16.999 c 1.27,-0.301 2.57,-0.55 3.89,-0.763 18.18,-2.88 36.52,4.153 48.1,18.454 6.21,7.676 9.77,16.293 11.03,25.03 l -0.14,-0.902 h -0.01 c 0.54,4.555 -2.6,8.756 -7.15,9.479 z m -9.23,-105.188 v 0 l -0.11,-0.683 c 1.2,6.588 0.71,13.646 -1.92,20.667 -4.89,13.08 -16.4,22.55 -30.17,24.849 -1.01,0.167 -2,0.3 -2.99,0.388 l -2.15,-12.883 c 0.99,-0.051 1.99,-0.15 3,-0.318 14.94,-2.494 23.63,-16.503 21.51,-29.88 l 0.02,-0.002 c -0.44,-3.453 1.92,-6.662 5.38,-7.237 3.45,-0.579 6.72,1.689 7.43,5.099 z m -92.08,-5.102 c 3.46,0.578 5.82,3.784 5.38,7.237 l 0.02,0.005 c -2.12,13.377 6.57,27.386 21.51,29.878 1.01,0.167 2,0.269 3,0.32 l -2.15,12.883 c -0.99,-0.09 -1.98,-0.221 -2.99,-0.388 -13.77,-2.299 -25.28,-11.772 -30.17,-24.851 -2.63,-7.019 -3.12,-14.077 -1.92,-20.665 l -0.11,0.68 v 0.003 c 0.71,-3.41 3.97,-5.678 7.43,-5.102 z"
             style="fill:#915f2d;fill-rule:nonzero" />
          <path
             id="path966"
             d="m 1596.95,169.189 c 0,2.338 -1.86,4.246 -4.18,4.331 v 0.02 c -9.04,0.074 -17.3,7.33 -17.3,17.441 0,0.678 0.04,1.347 0.11,2.007 h -8.71 c -0.05,-0.657 -0.08,-1.326 -0.08,-2.007 0,-9.32 4.98,-17.934 13.05,-22.595 4.33,-2.5 8.93,-3.597 13.39,-3.532 h -0.46 v 0.003 c 2.32,0.088 4.18,1.993 4.18,4.332 z"
             style="fill-rule:nonzero" />
          <g
             id="path968"
             transform="rotate(180,1530.865,178.92)">
            <path
               d="m 1545.94,188.651 c 0,-2.338 -1.85,-4.246 -4.17,-4.331 v -0.02 c -9.04,-0.074 -17.31,-7.33 -17.31,-17.441 0,-0.678 0.04,-1.347 0.12,-2.007 h -8.72 c -0.05,0.657 -0.07,1.326 -0.07,2.007 0,9.32 4.97,17.934 13.05,22.595 4.33,2.5 8.92,3.597 13.39,3.532 h -0.46 v -0.003 c 2.32,-0.088 4.17,-1.993 4.17,-4.332 z"
               style="fill-rule:nonzero"
               id="path56" />
          </g>
          <g
             id="circle970"
             transform="matrix(1.20959,0,0,1,-330.892,151.733)">
            <circle
               cx="1560.17"
               cy="54.980999"
               r="22.343"
               style="fill:#915f2d"
               id="circle59" />
          </g>
          <circle
             id="circle972"
             cx="1555.83"
             cy="249.16499"
             r="30.402"
             style="fill:#cd853d" />
          <path
             id="path974"
             d="m 1640.2,243.394 c 0.26,0.136 0.53,0.283 0.79,0.437 11.59,6.689 15.56,21.509 8.87,33.097 -6.57,11.378 -20.98,15.409 -32.47,9.215 l -0.01,0.006 c -0.2,-0.113 -0.39,-0.227 -0.59,-0.34 -0.01,-0.006 -0.02,-0.012 -0.03,-0.017 -0.01,-0.006 -0.02,-0.009 -0.03,-0.017 -21.24,-12.26 -35.43,-20.727 -51.15,-56.687 41.08,-5.08 54.43,2.63 74.63,14.292 0,0.003 -0.01,0.008 -0.01,0.014 z m -169.27,-0.014 c 20.2,-11.665 33.55,-19.372 74.63,-14.298 -15.72,35.966 -29.92,44.43 -51.16,56.698 0,0.006 -0.01,0.009 -0.03,0.017 0,0.006 -0.01,0.009 -0.02,0.015 -0.2,0.113 -0.39,0.226 -0.59,0.34 l -0.01,-0.009 c -11.49,6.194 -25.9,2.16 -32.47,-9.221 -6.69,-11.582 -2.72,-26.402 8.87,-33.091 0.26,-0.154 0.53,-0.301 0.79,-0.44 0,-0.005 -0.01,-0.008 -0.01,-0.011 z"
             style="fill:#a2e8df;fill-rule:nonzero" />
          <g
             id="circle976"
             transform="matrix(0.412997,0,0,1,909.769,151.733)">
            <circle
               cx="1561.84"
               cy="188.90401"
               r="80.279999"
               style="fill:#915f2d"
               id="circle64" />
          </g>
          <path
             id="path978"
             d="m 1586.38,365.168 c -1.46,11.052 -3.88,21.064 -7.03,29.452 h -49.09 c -3.15,-8.388 -5.57,-18.4 -7.03,-29.452 z m -62.7,-52.251 c 1.7,-11.203 4.41,-21.232 7.85,-29.452 h 46.55 c 3.44,8.22 6.15,18.249 7.85,29.452 z"
             style="fill:#ffcc32;fill-rule:nonzero" />
        </g>
      </g>
      <g
         transform="translate(73.999075,-222.5897)"
         id="g93"
         style="clip-rule:evenodd;fill-rule:evenodd">
        <g
           id="hex03"
           serif:id="hex0"
           transform="translate(278.002,229.305)">
          <path
             d="m 121.315,126.546 -21.65,37.5 h -40.71 l -24.242,-37.5 21.65,-37.5 h 43.302 z"
             style="fill:#fff2aa;fill-rule:nonzero;stroke:#ff9500;stroke-width:1.5px"
             id="path71" />
        </g>
        <g
           id="draggable3"
           transform="matrix(0.264583,0,0,0.264583,-55.5614,279.923)">
          <path
             id="path2-6"
             d="m 1487.69,293.414 -0.01,-0.003 -0.14,0.902 c 1.26,-8.734 4.82,-17.351 11.03,-25.027 11.58,-14.304 29.92,-21.334 48.09,-18.454 1.33,0.21 2.63,0.462 3.9,0.76 l -2.7,16.999 c -1.26,-0.348 -2.55,-0.64 -3.87,-0.85 -19.72,-3.127 -36.43,10.752 -39.37,28.358 l -0.03,-0.006 c -0.89,4.498 -5.18,7.52 -9.74,6.797 -4.56,-0.722 -7.7,-4.921 -7.16,-9.476 z m 127.53,9.479 c -4.57,0.723 -8.86,-2.302 -9.74,-6.8 l -0.04,0.006 c -2.93,-17.606 -19.65,-31.485 -39.37,-28.358 -1.32,0.21 -2.61,0.502 -3.87,0.853 l -2.7,-16.999 c 1.27,-0.301 2.57,-0.55 3.89,-0.763 18.18,-2.88 36.52,4.153 48.1,18.454 6.21,7.676 9.77,16.293 11.03,25.03 l -0.14,-0.902 h -0.01 c 0.54,4.555 -2.6,8.756 -7.15,9.479 z m -9.23,-105.188 v 0 l -0.11,-0.683 c 1.2,6.588 0.71,13.646 -1.92,20.667 -4.89,13.08 -16.4,22.55 -30.17,24.849 -1.01,0.167 -2,0.3 -2.99,0.388 l -2.15,-12.883 c 0.99,-0.051 1.99,-0.15 3,-0.318 14.94,-2.494 23.63,-16.503 21.51,-29.88 l 0.02,-0.002 c -0.44,-3.453 1.92,-6.662 5.38,-7.237 3.45,-0.579 6.72,1.689 7.43,5.099 z m -92.08,-5.102 c 3.46,0.578 5.82,3.784 5.38,7.237 l 0.02,0.005 c -2.12,13.377 6.57,27.386 21.51,29.878 1.01,0.167 2,0.269 3,0.32 l -2.15,12.883 c -0.99,-0.09 -1.98,-0.221 -2.99,-0.388 -13.77,-2.299 -25.28,-11.772 -30.17,-24.851 -2.63,-7.019 -3.12,-14.077 -1.92,-20.665 l -0.11,0.68 v 0.003 c 0.71,-3.41 3.97,-5.678 7.43,-5.102 z"
             style="fill:#915f2d;fill-rule:nonzero" />
          <path
             id="path4-9"
             d="m 1596.95,169.189 c 0,2.338 -1.86,4.246 -4.18,4.331 v 0.02 c -9.04,0.074 -17.3,7.33 -17.3,17.441 0,0.678 0.04,1.347 0.11,2.007 h -8.71 c -0.05,-0.657 -0.08,-1.326 -0.08,-2.007 0,-9.32 4.98,-17.934 13.05,-22.595 4.33,-2.5 8.93,-3.597 13.39,-3.532 h -0.46 v 0.003 c 2.32,0.088 4.18,1.993 4.18,4.332 z"
             style="fill-rule:nonzero" />
          <g
             id="path6-4"
             transform="rotate(180,1530.865,178.92)">
            <path
               d="m 1545.94,188.651 c 0,-2.338 -1.85,-4.246 -4.17,-4.331 v -0.02 c -9.04,-0.074 -17.31,-7.33 -17.31,-17.441 0,-0.678 0.04,-1.347 0.12,-2.007 h -8.72 c -0.05,0.657 -0.07,1.326 -0.07,2.007 0,9.32 4.97,17.934 13.05,22.595 4.33,2.5 8.92,3.597 13.39,3.532 h -0.46 v -0.003 c 2.32,-0.088 4.17,-1.993 4.17,-4.332 z"
               style="fill-rule:nonzero"
               id="path76" />
          </g>
          <g
             id="circle8-8"
             transform="matrix(1.20959,0,0,1,-330.892,151.733)">
            <circle
               cx="1560.17"
               cy="54.980999"
               r="22.343"
               style="fill:#915f2d"
               id="circle79" />
          </g>
          <circle
             id="circle10-6"
             cx="1555.83"
             cy="249.16499"
             r="30.402"
             style="fill:#cd853d" />
          <path
             id="path12-4"
             d="m 1640.2,243.394 c 0.26,0.136 0.53,0.283 0.79,0.437 11.59,6.689 15.56,21.509 8.87,33.097 -6.57,11.378 -20.98,15.409 -32.47,9.215 l -0.01,0.006 c -0.2,-0.113 -0.39,-0.227 -0.59,-0.34 -0.01,-0.006 -0.02,-0.012 -0.03,-0.017 -0.01,-0.006 -0.02,-0.009 -0.03,-0.017 -21.24,-12.26 -35.43,-20.727 -51.15,-56.687 41.08,-5.08 54.43,2.63 74.63,14.292 0,0.003 -0.01,0.008 -0.01,0.014 z"
             style="fill:#a2e8df;fill-rule:nonzero" />
          <g
             id="g86"
             transform="translate(-1.13386e-5)">
            <path
               d="m 1470.93,243.38 c 20.2,-11.665 33.55,-19.372 74.63,-14.298 -15.72,35.966 -29.92,44.43 -51.16,56.698 0,0.006 -0.01,0.009 -0.03,0.017 0,0.006 -0.01,0.009 -0.02,0.015 -0.2,0.113 -0.39,0.226 -0.59,0.34 l -0.01,-0.009 c -11.49,6.194 -25.9,2.16 -32.47,-9.221 -6.69,-11.582 -2.72,-26.402 8.87,-33.091 0.26,-0.154 0.53,-0.301 0.79,-0.44 0,-0.005 -0.01,-0.008 -0.01,-0.011 z"
               style="fill:#a2e8df;fill-rule:nonzero"
               id="path84" />
          </g>
          <g
             id="path16-0"
             transform="rotate(-120.00001,1560.9069,336.15705)">
            <path
               d="m 1607.25,313.815 c 0.4,0.204 0.8,0.422 1.2,0.655 17.4,10.049 23.36,32.309 13.31,49.714 -9.86,17.09 -31.51,23.145 -48.77,13.842 v 0.008 c -0.31,-0.17 -0.6,-0.34 -0.89,-0.51 -0.02,-0.009 -0.03,-0.017 -0.04,-0.026 -0.02,-0.008 -0.04,-0.011 -0.05,-0.025 -31.9,-18.417 -53.22,-31.133 -76.84,-85.15 61.71,-7.631 81.76,3.951 112.1,21.469 0,0.003 -0.01,0.012 -0.02,0.023 z"
               style="fill:#915f2d;fill-rule:nonzero"
               id="path88" />
          </g>
          <path
             id="path18"
             d="m 1518.39,307.193 c -0.02,-0.447 -0.03,-0.901 -0.03,-1.36 0,-0.21 0,-0.423 0.01,-0.632 h 72.77 c 0,0.195 0,0.388 0,0.584 v 0.051 c 0,0.017 0.01,0.031 0,0.051 0,16.628 -0.07,30.804 -3.37,45.722 h -65.79 c -3.62,-14.774 -3.62,-28.349 -3.62,-44.418 0,0 0.02,0.005 0.03,0.002 z"
             style="fill:#ffcc32;fill-rule:nonzero" />
        </g>
      </g>
      <g
         id="g130"
         transform="translate(-169.75442,-145.3107)"
         style="clip-rule:evenodd;fill-rule:evenodd">
        <g
           id="hex04"
           serif:id="hex0"
           transform="translate(376.851,236.026)">
          <path
             d="m 121.315,126.546 -21.65,37.5 h -40.71 l -24.242,-37.5 21.65,-37.5 h 43.302 z"
             style="fill:#fff2aa;fill-rule:nonzero;stroke:#ff9500;stroke-width:1.5px"
             id="path95" />
        </g>
        <g
           id="g128">
          <g
             id="g5353">
            <g
               transform="translate(470.765,592.637)"
               id="g100">
              <path
                 d="m -0.416,-262.117 c 0,0.825 -0.654,1.498 -1.473,1.528 v 0.007 c -3.189,0.026 -6.105,2.586 -6.105,6.153 0,0.239 0.015,0.475 0.042,0.708 h -3.076 c -0.017,-0.232 -0.025,-0.468 -0.025,-0.708 0,-3.288 1.754,-6.327 4.602,-7.971 1.528,-0.882 3.149,-1.269 4.725,-1.246 h -0.163 v 0.001 c 0.819,0.031 1.473,0.703 1.473,1.528 z"
                 style="fill-rule:nonzero"
                 id="path98" />
            </g>
            <g
               transform="matrix(-1,0,0,1,439.384,592.637)"
               id="g104">
              <path
                 d="m -0.416,-262.117 c 0,0.825 -0.654,1.498 -1.473,1.528 v 0.007 c -3.189,0.026 -6.105,2.586 -6.105,6.153 0,0.239 0.015,0.475 0.042,0.708 h -3.076 c -0.017,-0.232 -0.025,-0.468 -0.025,-0.708 0,-3.288 1.754,-6.327 4.602,-7.971 1.528,-0.882 3.149,-1.269 4.725,-1.246 h -0.163 v 0.001 c 0.819,0.031 1.473,0.703 1.473,1.528 z"
                 style="fill-rule:nonzero"
                 id="path102" />
            </g>
            <g
               id="circle8-6"
               transform="matrix(0.413625,0,0,0.341953,-190.437,323.624)">
              <circle
                 cx="1560.17"
                 cy="54.980999"
                 r="22.343"
                 style="fill:#915f2d"
                 id="circle109" />
            </g>
            <g
               transform="translate(470.266,592.898)"
               id="g114">
              <path
                 d="m -38.958,-218.293 -0.003,-0.001 -0.051,0.318 c 0.444,-3.081 1.7,-6.121 3.892,-8.829 4.085,-5.046 10.554,-7.526 16.966,-6.51 0.468,0.074 0.925,0.163 1.373,0.268 l -0.95,5.997 c -0.447,-0.123 -0.901,-0.226 -1.368,-0.3 -6.955,-1.103 -12.852,3.793 -13.887,10.004 l -0.013,-0.002 c -0.313,1.587 -1.827,2.653 -3.436,2.398 -1.608,-0.255 -2.715,-1.736 -2.523,-3.343 z m 44.987,3.344 c -1.609,0.255 -3.123,-0.812 -3.436,-2.399 l -0.013,0.002 c -1.035,-6.211 -6.932,-11.107 -13.887,-10.004 -0.467,0.074 -0.921,0.177 -1.368,0.301 l -0.95,-5.997 c 0.448,-0.106 0.904,-0.194 1.373,-0.269 6.412,-1.016 12.881,1.465 16.966,6.51 2.192,2.708 3.448,5.748 3.892,8.83 l -0.051,-0.318 H 8.552 c 0.192,1.607 -0.915,3.089 -2.523,3.344 z m -3.255,-37.108 h 0.002 l -0.041,-0.241 c 0.423,2.324 0.25,4.814 -0.676,7.291 -1.727,4.614 -5.786,7.955 -10.645,8.766 -0.355,0.059 -0.706,0.106 -1.053,0.137 l -0.758,-4.545 c 0.35,-0.018 0.702,-0.053 1.056,-0.112 5.272,-0.88 8.337,-5.822 7.588,-10.541 l 0.01,-0.001 c -0.157,-1.218 0.677,-2.35 1.896,-2.553 1.219,-0.204 2.372,0.596 2.621,1.799 z m -32.483,-1.8 c 1.219,0.204 2.053,1.335 1.896,2.553 l 0.01,0.002 c -0.749,4.719 2.316,9.661 7.588,10.54 0.354,0.059 0.706,0.095 1.056,0.113 l -0.758,4.545 c -0.347,-0.032 -0.698,-0.078 -1.053,-0.137 -4.859,-0.811 -8.918,-4.153 -10.645,-8.767 -0.926,-2.476 -1.099,-4.966 -0.676,-7.29 l -0.041,0.24 0.002,0.001 c 0.249,-1.203 1.402,-2.003 2.621,-1.8 z"
                 style="fill:#915f2d;fill-rule:nonzero"
                 id="path112" />
            </g>
            <g
               transform="translate(470.266,592.898)"
               id="g118">
              <circle
                 cx="-14.921"
                 cy="-233.903"
                 r="10.725"
                 style="fill:#cd853d"
                 id="circle116" />
            </g>
            <g
               transform="translate(470.266,592.898)"
               id="g122">
              <path
                 d="m 14.842,-235.939 c 0.094,0.048 0.187,0.1 0.28,0.154 4.088,2.36 5.488,7.588 3.128,11.676 -2.318,4.014 -7.402,5.436 -11.455,3.251 l -0.001,0.002 c -0.071,-0.04 -0.139,-0.08 -0.209,-0.12 -0.003,-0.002 -0.007,-0.004 -0.01,-0.006 -0.003,-0.002 -0.007,-0.003 -0.01,-0.006 -7.493,-4.325 -12.499,-7.312 -18.046,-19.998 14.491,-1.792 19.202,0.928 26.327,5.042 0,10e-4 -0.003,0.003 -0.004,0.005 z m -59.714,-0.005 c 7.127,-4.115 11.837,-6.834 26.328,-5.044 -5.547,12.688 -10.554,15.674 -18.046,20.002 -0.003,0.002 -0.007,0.003 -0.011,0.006 -0.002,0.002 -0.006,0.003 -0.008,0.005 -0.071,0.04 -0.139,0.08 -0.21,0.12 l -10e-4,-0.003 c -4.054,2.185 -9.137,0.762 -11.455,-3.253 -2.36,-4.086 -0.96,-9.314 3.128,-11.674 0.093,-0.054 0.186,-0.106 0.28,-0.155 -0.002,-0.002 -0.003,-0.003 -0.005,-0.004 z"
                 style="fill:#a2e8df;fill-rule:nonzero"
                 id="path120" />
            </g>
            <g
               id="circle14-9"
               transform="matrix(0.177616,0,0,0.196511,177.576,340.889)">
              <circle
                 cx="1561.84"
                 cy="188.90401"
                 r="80.279999"
                 style="fill:#915f2d"
                 id="circle106" />
            </g>
            <g
               transform="translate(470.266,592.898)"
               id="g126">
              <path
                 d="m -1.023,-214.495 c 0,1.433 -0.22,2.816 -0.63,4.118 h -27.258 c -0.41,-1.302 -0.63,-2.685 -0.63,-4.118 0,-1.891 0.384,-3.695 1.079,-5.34 h 26.36 c 0.695,1.645 1.079,3.449 1.079,5.34 z"
                 style="fill:#ffcc32;fill-rule:nonzero"
                 id="path124" />
            </g>
          </g>
        </g>
      </g>
      <g
         transform="translate(-92.1908,-236.0307)"
         id="g151"
         style="clip-rule:evenodd;fill-rule:evenodd">
        <g
           id="hex05"
           serif:id="hex0"
           transform="translate(299.281,242.746)">
          <path
             d="m 121.315,126.546 -21.65,37.5 H 56.363 l -21.65,-37.5 21.65,-37.5 h 43.302 z"
             style="fill:#fff2aa;fill-rule:nonzero;stroke:#ff9500;stroke-width:1.5px"
             id="path132" />
        </g>
        <g
           id="draggable5"
           transform="matrix(0.264583,0,0,0.264583,-34.283,297.779)">
          <path
             id="path135"
             d="m 1487.69,293.414 -0.01,-0.003 -0.14,0.902 c 1.26,-8.734 4.82,-17.351 11.03,-25.027 11.58,-14.304 29.92,-21.334 48.09,-18.454 1.33,0.21 2.63,0.462 3.9,0.76 l -2.7,16.999 c -1.26,-0.348 -2.55,-0.64 -3.87,-0.85 -19.72,-3.127 -36.43,10.752 -39.37,28.358 l -0.03,-0.006 c -0.89,4.498 -5.18,7.52 -9.74,6.797 -4.56,-0.722 -7.7,-4.921 -7.16,-9.476 z m 127.53,9.479 c -4.57,0.723 -8.86,-2.302 -9.74,-6.8 l -0.04,0.006 c -2.93,-17.606 -19.65,-31.485 -39.37,-28.358 -1.32,0.21 -2.61,0.502 -3.87,0.853 l -2.7,-16.999 c 1.27,-0.301 2.57,-0.55 3.89,-0.763 18.18,-2.88 36.52,4.153 48.1,18.454 6.21,7.676 9.77,16.293 11.03,25.03 l -0.14,-0.902 h -0.01 c 0.54,4.555 -2.6,8.756 -7.15,9.479 z m -9.23,-105.188 v 0 l -0.11,-0.683 c 1.2,6.588 0.71,13.646 -1.92,20.667 -4.89,13.08 -16.4,22.55 -30.17,24.849 -1.01,0.167 -2,0.3 -2.99,0.388 l -2.15,-12.883 c 0.99,-0.051 1.99,-0.15 3,-0.318 14.94,-2.494 23.63,-16.503 21.51,-29.88 l 0.02,-0.002 c -0.44,-3.453 1.92,-6.662 5.38,-7.237 3.45,-0.579 6.72,1.689 7.43,5.099 z m -92.08,-5.102 c 3.46,0.578 5.82,3.784 5.38,7.237 l 0.02,0.005 c -2.12,13.377 6.57,27.386 21.51,29.878 1.01,0.167 2,0.269 3,0.32 l -2.15,12.883 c -0.99,-0.09 -1.98,-0.221 -2.99,-0.388 -13.77,-2.299 -25.28,-11.772 -30.17,-24.851 -2.63,-7.019 -3.12,-14.077 -1.92,-20.665 l -0.11,0.68 v 0.003 c 0.71,-3.41 3.97,-5.678 7.43,-5.102 z"
             style="fill:#915f2d;fill-rule:nonzero" />
          <path
             id="path4"
             d="m 1596.95,169.189 c 0,2.338 -1.86,4.246 -4.18,4.331 v 0.02 c -9.04,0.074 -17.3,7.33 -17.3,17.441 0,0.678 0.04,1.347 0.11,2.007 h -8.71 c -0.05,-0.657 -0.08,-1.326 -0.08,-2.007 0,-9.32 4.98,-17.934 13.05,-22.595 4.33,-2.5 8.93,-3.597 13.39,-3.532 h -0.46 v 0.003 c 2.32,0.088 4.18,1.993 4.18,4.332 z"
             style="fill-rule:nonzero" />
          <g
             id="path6"
             transform="rotate(180,1530.865,178.92)">
            <path
               d="m 1545.94,188.651 c 0,-2.338 -1.85,-4.246 -4.17,-4.331 v -0.02 c -9.04,-0.074 -17.31,-7.33 -17.31,-17.441 0,-0.678 0.04,-1.347 0.12,-2.007 h -8.72 c -0.05,0.657 -0.07,1.326 -0.07,2.007 0,9.32 4.97,17.934 13.05,22.595 4.33,2.5 8.92,3.597 13.39,3.532 h -0.46 v -0.003 c 2.32,-0.088 4.17,-1.993 4.17,-4.332 z"
               style="fill-rule:nonzero"
               id="path138" />
          </g>
          <g
             id="circle8"
             transform="matrix(1.20959,0,0,1,-330.892,151.733)">
            <circle
               cx="1560.17"
               cy="54.980999"
               r="22.343"
               style="fill:#915f2d"
               id="circle141" />
          </g>
          <circle
             id="circle10"
             cx="1555.83"
             cy="249.16499"
             r="30.402"
             style="fill:#cd853d" />
          <path
             id="path12"
             d="m 1640.2,243.394 c 0.26,0.136 0.53,0.283 0.79,0.437 11.59,6.689 15.56,21.509 8.87,33.097 -6.57,11.378 -20.98,15.409 -32.47,9.215 l -0.01,0.006 c -0.2,-0.113 -0.39,-0.227 -0.59,-0.34 -0.01,-0.006 -0.02,-0.012 -0.03,-0.017 -0.01,-0.006 -0.02,-0.009 -0.03,-0.017 -21.24,-12.26 -35.43,-20.727 -51.15,-56.687 41.08,-5.08 54.43,2.63 74.63,14.292 0,0.003 -0.01,0.008 -0.01,0.014 z m -169.27,-0.014 c 20.2,-11.665 33.55,-19.372 74.63,-14.298 -15.72,35.966 -29.92,44.43 -51.16,56.698 0,0.006 -0.01,0.009 -0.03,0.017 0,0.006 -0.01,0.009 -0.02,0.015 -0.2,0.113 -0.39,0.226 -0.59,0.34 l -0.01,-0.009 c -11.49,6.194 -25.9,2.16 -32.47,-9.221 -6.69,-11.582 -2.72,-26.402 8.87,-33.091 0.26,-0.154 0.53,-0.301 0.79,-0.44 0,-0.005 -0.01,-0.008 -0.01,-0.011 z"
             style="fill:#a2e8df;fill-rule:nonzero" />
          <g
             id="circle14"
             transform="matrix(0.439993,0,0,0.683282,868.753,191.79)">
            <circle
               cx="1561.84"
               cy="188.90401"
               r="80.279999"
               style="fill:#915f2d"
               id="circle146" />
          </g>
          <path
             id="path16"
             d="m 1591.28,320.865 c 0,3.152 -0.18,6.247 -0.5,9.255 l -69.71,-0.601 c -0.29,-2.818 -0.44,-5.709 -0.44,-8.654 0,-9.369 1.51,-18.184 4.17,-25.903 l 62.68,1.131 c 2.43,7.441 3.8,15.857 3.8,24.772 z m -2.18,19.023 c -0.68,2.838 -1.51,5.559 -2.46,8.153 l -61.43,-0.128 c -0.96,-2.642 -1.79,-5.42 -2.47,-8.311 z"
             style="fill:#ffcc32;fill-rule:nonzero" />
        </g>
      </g>
      <g
         transform="translate(-148.5988,-111.7887)"
         id="g171"
         style="clip-rule:evenodd;fill-rule:evenodd">
        <g
           id="hex06"
           serif:id="hex0"
           transform="translate(428.141,242.746)">
          <path
             d="m 121.315,126.546 -21.65,37.5 H 56.363 l -21.65,-37.5 21.65,-37.5 h 43.302 z"
             style="fill:#fff2aa;fill-rule:nonzero;stroke:#ff9500;stroke-width:1.5px"
             id="path153" />
        </g>
        <g
           id="draggable2"
           transform="matrix(0.264583,0,0,0.264583,94.5771,295.884)">
          <path
             id="path2-2"
             d="m 1487.69,293.414 -0.01,-0.003 -0.14,0.902 c 1.26,-8.734 4.82,-17.351 11.03,-25.027 11.58,-14.304 29.92,-21.334 48.09,-18.454 1.33,0.21 2.63,0.462 3.9,0.76 l -2.7,16.999 c -1.26,-0.348 -2.55,-0.64 -3.87,-0.85 -19.72,-3.127 -36.43,10.752 -39.37,28.358 l -0.03,-0.006 c -0.89,4.498 -5.18,7.52 -9.74,6.797 -4.56,-0.722 -7.7,-4.921 -7.16,-9.476 z m 127.53,9.479 c -4.57,0.723 -8.86,-2.302 -9.74,-6.8 l -0.04,0.006 c -2.93,-17.606 -19.65,-31.485 -39.37,-28.358 -1.32,0.21 -2.61,0.502 -3.87,0.853 l -2.7,-16.999 c 1.27,-0.301 2.57,-0.55 3.89,-0.763 18.18,-2.88 36.52,4.153 48.1,18.454 6.21,7.676 9.77,16.293 11.03,25.03 l -0.14,-0.902 h -0.01 c 0.54,4.555 -2.6,8.756 -7.15,9.479 z m -9.23,-105.188 v 0 l -0.11,-0.683 c 1.2,6.588 0.71,13.646 -1.92,20.667 -4.89,13.08 -16.4,22.55 -30.17,24.849 -1.01,0.167 -2,0.3 -2.99,0.388 l -2.15,-12.883 c 0.99,-0.051 1.99,-0.15 3,-0.318 14.94,-2.494 23.63,-16.503 21.51,-29.88 l 0.02,-0.002 c -0.44,-3.453 1.92,-6.662 5.38,-7.237 3.45,-0.579 6.72,1.689 7.43,5.099 z m -92.08,-5.102 c 3.46,0.578 5.82,3.784 5.38,7.237 l 0.02,0.005 c -2.12,13.377 6.57,27.386 21.51,29.878 1.01,0.167 2,0.269 3,0.32 l -2.15,12.883 c -0.99,-0.09 -1.98,-0.221 -2.99,-0.388 -13.77,-2.299 -25.28,-11.772 -30.17,-24.851 -2.63,-7.019 -3.12,-14.077 -1.92,-20.665 l -0.11,0.68 v 0.003 c 0.71,-3.41 3.97,-5.678 7.43,-5.102 z"
             style="fill:#915f2d;fill-rule:nonzero" />
          <path
             id="path4-5"
             d="m 1596.95,169.189 c 0,2.338 -1.86,4.246 -4.18,4.331 v 0.02 c -9.04,0.074 -17.3,7.33 -17.3,17.441 0,0.678 0.04,1.347 0.11,2.007 h -8.71 c -0.05,-0.657 -0.08,-1.326 -0.08,-2.007 0,-9.32 4.98,-17.934 13.05,-22.595 4.33,-2.5 8.93,-3.597 13.39,-3.532 h -0.46 v 0.003 c 2.32,0.088 4.18,1.993 4.18,4.332 z"
             style="fill-rule:nonzero" />
          <g
             id="path6-3"
             transform="rotate(180,1530.865,178.92)">
            <path
               d="m 1545.94,188.651 c 0,-2.338 -1.85,-4.246 -4.17,-4.331 v -0.02 c -9.04,-0.074 -17.31,-7.33 -17.31,-17.441 0,-0.678 0.04,-1.347 0.12,-2.007 h -8.72 c -0.05,0.657 -0.07,1.326 -0.07,2.007 0,9.32 4.97,17.934 13.05,22.595 4.33,2.5 8.92,3.597 13.39,3.532 h -0.46 v -0.003 c 2.32,-0.088 4.17,-1.993 4.17,-4.332 z"
               style="fill-rule:nonzero"
               id="path158" />
          </g>
          <g
             id="circle8-1"
             transform="matrix(1.20959,0,0,1,-330.892,151.733)">
            <circle
               cx="1560.17"
               cy="54.980999"
               r="22.343"
               style="fill:#915f2d"
               id="circle161" />
          </g>
          <circle
             id="circle10-9"
             cx="1555.83"
             cy="249.16499"
             r="30.402"
             style="fill:#cd853d" />
          <path
             id="path12-6"
             d="m 1640.2,243.394 c 0.26,0.136 0.53,0.283 0.79,0.437 11.59,6.689 15.56,21.509 8.87,33.097 -6.57,11.378 -20.98,15.409 -32.47,9.215 l -0.01,0.006 c -0.2,-0.113 -0.39,-0.227 -0.59,-0.34 -0.01,-0.006 -0.02,-0.012 -0.03,-0.017 -0.01,-0.006 -0.02,-0.009 -0.03,-0.017 -21.24,-12.26 -35.43,-20.727 -51.15,-56.687 41.08,-5.08 54.43,2.63 74.63,14.292 0,0.003 -0.01,0.008 -0.01,0.014 z m -169.27,-0.014 c 20.2,-11.665 33.55,-19.372 74.63,-14.298 -15.72,35.966 -29.92,44.43 -51.16,56.698 0,0.006 -0.01,0.009 -0.03,0.017 0,0.006 -0.01,0.009 -0.02,0.015 -0.2,0.113 -0.39,0.226 -0.59,0.34 l -0.01,-0.009 c -11.49,6.194 -25.9,2.16 -32.47,-9.221 -6.69,-11.582 -2.72,-26.402 8.87,-33.091 0.26,-0.154 0.53,-0.301 0.79,-0.44 0,-0.005 -0.01,-0.008 -0.01,-0.011 z"
             style="fill:#a2e8df;fill-rule:nonzero" />
          <g
             id="circle14-8"
             transform="matrix(0.660355,0,0,0.773937,523.435,187.627)">
            <circle
               cx="1561.84"
               cy="188.90401"
               r="80.279999"
               style="fill:#915f2d"
               id="circle166" />
          </g>
          <path
             id="path16-8"
             d="m 1605.35,314.274 c 2.31,7.209 1.54,6.526 2.33,13.431 l -105.38,-0.366 c -0.06,-4.844 0.5,-9.252 2.57,-13.793 z"
             style="fill:#ffcc32;fill-rule:nonzero" />
        </g>
      </g>
      <g
         id="draggable0"
         transform="matrix(0.264583,0,0,0.264583,-54.021172,97.769135)"
         style="clip-rule:evenodd;fill-rule:evenodd">
        <path
           id="path2-7"
           d="m 1487.69,293.414 -0.01,-0.003 -0.14,0.902 c 1.26,-8.734 4.82,-17.351 11.03,-25.027 11.58,-14.304 29.92,-21.334 48.09,-18.454 1.33,0.21 2.63,0.462 3.9,0.76 l -2.7,16.999 c -1.26,-0.348 -2.55,-0.64 -3.87,-0.85 -19.72,-3.127 -36.43,10.752 -39.37,28.358 l -0.03,-0.006 c -0.89,4.498 -5.18,7.52 -9.74,6.797 -4.56,-0.722 -7.7,-4.921 -7.16,-9.476 z m 127.53,9.479 c -4.57,0.723 -8.86,-2.302 -9.74,-6.8 l -0.04,0.006 c -2.93,-17.606 -19.65,-31.485 -39.37,-28.358 -1.32,0.21 -2.61,0.502 -3.87,0.853 l -2.7,-16.999 c 1.27,-0.301 2.57,-0.55 3.89,-0.763 18.18,-2.88 36.52,4.153 48.1,18.454 6.21,7.676 9.77,16.293 11.03,25.03 l -0.14,-0.902 h -0.01 c 0.54,4.555 -2.6,8.756 -7.15,9.479 z m -9.23,-105.188 v 0 l -0.11,-0.683 c 1.2,6.588 0.71,13.646 -1.92,20.667 -4.89,13.08 -16.4,22.55 -30.17,24.849 -1.01,0.167 -2,0.3 -2.99,0.388 l -2.15,-12.883 c 0.99,-0.051 1.99,-0.15 3,-0.318 14.94,-2.494 23.63,-16.503 21.51,-29.88 l 0.02,-0.002 c -0.44,-3.453 1.92,-6.662 5.38,-7.237 3.45,-0.579 6.72,1.689 7.43,5.099 z m -92.08,-5.102 c 3.46,0.578 5.82,3.784 5.38,7.237 l 0.02,0.005 c -2.12,13.377 6.57,27.386 21.51,29.878 1.01,0.167 2,0.269 3,0.32 l -2.15,12.883 c -0.99,-0.09 -1.98,-0.221 -2.99,-0.388 -13.77,-2.299 -25.28,-11.772 -30.17,-24.851 -2.63,-7.019 -3.12,-14.077 -1.92,-20.665 l -0.11,0.68 v 0.003 c 0.71,-3.41 3.97,-5.678 7.43,-5.102 z"
           style="fill:#915f2d;fill-rule:nonzero" />
        <path
           id="path4-7"
           d="m 1596.95,169.189 c 0,2.338 -1.86,4.246 -4.18,4.331 v 0.02 c -9.04,0.074 -17.3,7.33 -17.3,17.441 0,0.678 0.04,1.347 0.11,2.007 h -8.71 c -0.05,-0.657 -0.08,-1.326 -0.08,-2.007 0,-9.32 4.98,-17.934 13.05,-22.595 4.33,-2.5 8.93,-3.597 13.39,-3.532 h -0.46 v 0.003 c 2.32,0.088 4.18,1.993 4.18,4.332 z"
           style="fill-rule:nonzero" />
        <g
           id="path6-39"
           transform="rotate(180,1530.865,178.92)">
          <path
             d="m 1545.94,188.651 c 0,-2.338 -1.85,-4.246 -4.17,-4.331 v -0.02 c -9.04,-0.074 -17.31,-7.33 -17.31,-17.441 0,-0.678 0.04,-1.347 0.12,-2.007 h -8.72 c -0.05,0.657 -0.07,1.326 -0.07,2.007 0,9.32 4.97,17.934 13.05,22.595 4.33,2.5 8.92,3.597 13.39,3.532 h -0.46 v -0.003 c 2.32,-0.088 4.17,-1.993 4.17,-4.332 z"
             style="fill-rule:nonzero"
             id="path178" />
        </g>
        <g
           id="circle8-61"
           serif:id="circle8-6"
           transform="matrix(1.20959,0,0,1,-330.892,151.733)">
          <circle
             cx="1560.17"
             cy="54.980999"
             r="22.343"
             style="fill:#915f2d"
             id="circle181" />
        </g>
        <circle
           id="circle10-7"
           cx="1555.83"
           cy="249.16499"
           r="30.402"
           style="fill:#cd853d" />
        <path
           id="path12-1"
           d="m 1640.2,243.394 c 0.26,0.136 0.53,0.283 0.79,0.437 11.59,6.689 15.56,21.509 8.87,33.097 -6.57,11.378 -20.98,15.409 -32.47,9.215 l -0.01,0.006 c -0.2,-0.113 -0.39,-0.227 -0.59,-0.34 -0.01,-0.006 -0.02,-0.012 -0.03,-0.017 -0.01,-0.006 -0.02,-0.009 -0.03,-0.017 -21.24,-12.26 -35.43,-20.727 -51.15,-56.687 41.08,-5.08 54.43,2.63 74.63,14.292 0,0.003 -0.01,0.008 -0.01,0.014 z m -169.27,-0.014 c 20.2,-11.665 33.55,-19.372 74.63,-14.298 -15.72,35.966 -29.92,44.43 -51.16,56.698 0,0.006 -0.01,0.009 -0.03,0.017 0,0.006 -0.01,0.009 -0.02,0.015 -0.2,0.113 -0.39,0.226 -0.59,0.34 l -0.01,-0.009 c -11.49,6.194 -25.9,2.16 -32.47,-9.221 -6.69,-11.582 -2.72,-26.402 8.87,-33.091 0.26,-0.154 0.53,-0.301 0.79,-0.44 0,-0.005 -0.01,-0.008 -0.01,-0.011 z"
           style="fill:#a2e8df;fill-rule:nonzero" />
        <g
           id="circle14-91"
           serif:id="circle14-9"
           transform="matrix(0.660355,0,0,1,523.435,151.733)">
          <circle
             cx="1561.84"
             cy="188.90401"
             r="80.279999"
             style="fill:#915f2d"
             id="circle186" />
        </g>
        <path
           id="path16-02"
           d="m 1607.82,340.637 c 0,10.363 -1.3,20.267 -3.66,29.361 h -98.71 c -2.36,-9.094 -3.66,-18.998 -3.66,-29.361 0,-11.574 1.62,-22.576 4.53,-32.514 h 96.97 c 2.91,9.938 4.53,20.94 4.53,32.514 z"
           style="fill:#ffcc32;fill-rule:nonzero" />
      </g>
    </g>
  </g>
</svg>
