<?xml version="1.0" encoding="UTF-8" standalone="no"?>
<!-- Created with Inkscape (http://www.inkscape.org/) -->

<svg
   xmlns:dc="http://purl.org/dc/elements/1.1/"
   xmlns:cc="http://creativecommons.org/ns#"
   xmlns:rdf="http://www.w3.org/1999/02/22-rdf-syntax-ns#"
   xmlns:svg="http://www.w3.org/2000/svg"
   xmlns="http://www.w3.org/2000/svg"
   xmlns:sodipodi="http://sodipodi.sourceforge.net/DTD/sodipodi-0.dtd"
   xmlns:inkscape="http://www.inkscape.org/namespaces/inkscape"
   width="10.38284mm"
   height="4.0442448mm"
   viewBox="0 0 10.38284 4.0442448"
   version="1.1"
   id="svg1190"
   inkscape:version="0.92.4 (5da689c313, 2019-01-14)"
   sodipodi:docname="brown-halfcircles.svg">
  <defs
     id="defs1184" />
  <sodipodi:namedview
     id="base"
     pagecolor="#ffffff"
     bordercolor="#666666"
     borderopacity="1.0"
     inkscape:pageopacity="0.0"
     inkscape:pageshadow="2"
     inkscape:zoom="44.977056"
     inkscape:cx="19.621115"
     inkscape:cy="7.6426673"
     inkscape:document-units="mm"
     inkscape:current-layer="g2071"
     showgrid="false"
     inkscape:window-width="1920"
     inkscape:window-height="1017"
     inkscape:window-x="-8"
     inkscape:window-y="-8"
     inkscape:window-maximized="1"
     fit-margin-top="0"
     fit-margin-left="0"
     fit-margin-right="0"
     fit-margin-bottom="0" />
  <metadata
     id="metadata1187">
    <rdf:RDF>
      <cc:Work
         rdf:about="">
        <dc:format>image/svg+xml</dc:format>
        <dc:type
           rdf:resource="http://purl.org/dc/dcmitype/StillImage" />
        <dc:title></dc:title>
      </cc:Work>
    </rdf:RDF>
  </metadata>
  <g
     inkscape:label="Laag 1"
     inkscape:groupmode="layer"
     id="layer1"
     transform="translate(-229.65088,-133.2775)">
    <g
       id="g2071"
       transform="rotate(-90,234.8423,117.91433)">
      <path
         inkscape:connector-curvature="0"
         id="path981-3"
         d="m 215.43491,112.72291 h 0.65061 c 1.14822,-1e-5 2.22925,0.51337 2.84375,1.4211 0.61463,0.9079 0.61463,2.09243 0,3.00033 -0.20064,0.2963 -0.46366,0.53298 -0.74982,0.74104 0.32246,0.2187 0.61805,0.47349 0.83871,0.79944 0.61462,0.90791 0.61462,2.09244 0,3.00034 -0.61465,0.90765 -1.69555,1.42072 -2.84376,1.42059 l -0.6506,-5.2e-4 5.1e-4,-1.3007 h 0.65009 c 0.75362,9e-5 1.43023,-0.352 1.76682,-0.84904 0.33656,-0.49716 0.33656,-1.04383 0,-1.54099 a 0.65045799,0.65045799 0 0 1 0,-5.3e-4 c -0.33647,-0.49717 -1.0131,-0.84906 -1.76682,-0.84905 h -0.0889 -0.56172 v -5.3e-4 h -0.0889 l 5.2e-4,-1.3007 h 0.0884 0.56172 c 0.75361,9e-5 1.43022,-0.352 1.76682,-0.84904 0.33656,-0.49716 0.33656,-1.04383 0,-1.54099 a 0.65045799,0.65045799 0 0 1 0,-5.3e-4 c -0.33647,-0.49715 -1.01311,-0.84904 -1.76682,-0.84904 h -0.65061 z"
         style="color:#000000;font-style:normal;font-variant:normal;font-weight:normal;font-stretch:normal;font-size:medium;line-height:normal;font-family:sans-serif;font-variant-ligatures:normal;font-variant-position:normal;font-variant-caps:normal;font-variant-numeric:normal;font-variant-alternates:normal;font-feature-settings:normal;text-indent:0;text-align:start;text-decoration:none;text-decoration-line:none;text-decoration-style:solid;text-decoration-color:#000000;letter-spacing:normal;word-spacing:normal;text-transform:none;writing-mode:lr-tb;direction:ltr;text-orientation:mixed;dominant-baseline:auto;baseline-shift:baseline;text-anchor:start;white-space:normal;shape-padding:0;clip-rule:nonzero;display:inline;overflow:visible;visibility:visible;opacity:1;isolation:auto;mix-blend-mode:normal;color-interpolation:sRGB;color-interpolation-filters:linearRGB;solid-color:#000000;solid-opacity:1;vector-effect:none;fill:#803300;fill-opacity:1;fill-rule:nonzero;stroke:none;stroke-width:1.3007859;stroke-linecap:square;stroke-linejoin:round;stroke-miterlimit:4;stroke-dasharray:none;stroke-dashoffset:0;stroke-opacity:1;color-rendering:auto;image-rendering:auto;shape-rendering:auto;text-rendering:auto;enable-background:accumulate" />
    </g>
  </g>
</svg>
