<?xml version="1.0" encoding="UTF-8" standalone="no"?>
<!-- Created with Inkscape (http://www.inkscape.org/) -->

<svg
   width="372.81973mm"
   height="185.37697mm"
   viewBox="0 0 372.81973 185.37697"
   version="1.1"
   id="svg1138"
   inkscape:version="1.1.1 (3bf5ae0d25, 2021-09-20)"
   sodipodi:docname="2022-UZ-03-taskbody.svg"
   xmlns:inkscape="http://www.inkscape.org/namespaces/inkscape"
   xmlns:sodipodi="http://sodipodi.sourceforge.net/DTD/sodipodi-0.dtd"
   xmlns="http://www.w3.org/2000/svg"
   xmlns:svg="http://www.w3.org/2000/svg"
   xmlns:serif="http://www.serif.com/">
  <sodipodi:namedview
     id="namedview1140"
     pagecolor="#ffffff"
     bordercolor="#666666"
     borderopacity="1.0"
     inkscape:pageshadow="2"
     inkscape:pageopacity="0.0"
     inkscape:pagecheckerboard="0"
     inkscape:document-units="mm"
     showgrid="false"
     inkscape:zoom="0.66368547"
     inkscape:cx="778.23009"
     inkscape:cy="220.73709"
     inkscape:window-width="1680"
     inkscape:window-height="1027"
     inkscape:window-x="1912"
     inkscape:window-y="-8"
     inkscape:window-maximized="1"
     inkscape:current-layer="layer1" />
  <defs
     id="defs1135" />
  <g
     inkscape:label="Ebene 1"
     inkscape:groupmode="layer"
     id="layer1"
     transform="translate(100.69845,37.275067)">
    <path
       d="m -97.332092,-32.575956 c 57.921521,6.219296 141.666114,-1.661319 157.585564,-0.903817 3.416035,0.162454 4.683125,1.742282 6.04176,-0.08731 3.918214,-5.276586 21.611166,-5.009886 22.347766,1.367631 1.250686,10.831512 1.500717,21.457179 1.655763,17.901444 l 2.806171,-17.783175 176.708068,-1.4859 c -0.50536,0.690298 6.74423,14.735175 -2.14842,29.1494097 -4.82335,7.8213479 -5.1779,15.1754413 -0.89165,20.6766583 3.38667,4.346839 0.762,9.748837 -0.52387,14.797087 -1.06098,4.155281 -1.16417,7.776898 -0.39423,13.060098 1.15623,7.961048 0.40481,17.726025 0.88371,25.719087 0.24341,4.094163 5.45041,7.090304 2.03994,10.499725 -2.41565,2.413794 -2.84428,7.189258 -2.82311,10.480146 0.21961,33.185092 0.13229,58.553082 3.88408,53.437892 0.55034,-0.7493 -38.7006,3.82799 -91.14895,-1.84177 -16.52323,-1.78647 -31.99607,-2.01215 -46.42856,-0.37809 -14.97568,1.69598 -41.179219,12.80081 -42.436254,-0.0619 -3.516842,-35.98915 -1.36525,-39.83434 -5.103548,-11.294 -0.42545,3.24776 2.460889,6.7392 2.033058,10.83362 -0.140758,1.34726 -2.668852,1.60285 -5.849143,1.43696 -0.916252,-0.0479 1.146175,-10.98868 -2.869142,-0.23231 -0.756973,2.02777 -8.233569,-1.25439 -10.02374,-1.0967 -22.076303,1.94496 -51.592426,-8.42486 -64.9001736,-2.81172 -6.0295895,2.54344 -9.6821624,5.05275 -13.0616853,-0.1606 -2.3309791,-3.59622 -8.4759271,-0.045 -12.5571251,-0.0408 -44.991072,0.0495 -76.694769,2.16165 -75.965579,2.06243 0.99007,-0.13468 1.27926,-25.72597 0.81836,-59.955902 -0.0598,-4.446058 -1.79785,-12.33805 -1.81848,-16.910579 -0.036,-7.955227 3.014658,-15.70011 2.856173,-23.643166 -0.205843,-10.321132 -4.043891,-21.651384 -4.080671,-30.7705127 -0.10742,-26.6758203 3.363918,-41.9639743 3.363918,-41.9639743 z"
       style="clip-rule:evenodd;fill:#f3c280;fill-rule:evenodd;stroke-width:0.264583;stroke-linejoin:round;stroke-miterlimit:2"
       id="path2" />
    <path
       d="m -97.332092,-32.575956 c 57.921521,6.219296 141.666114,-1.661319 157.585564,-0.903817 3.416035,0.162454 4.683125,1.742282 6.04176,-0.08731 3.918214,-5.276586 21.611166,-5.009886 22.347766,1.367631 1.250686,10.831512 1.500717,21.457179 1.655763,17.901444 l 2.806171,-17.783175 176.708068,-1.4859 c -0.50536,0.690298 6.74423,14.735175 -2.14842,29.1494097 -4.82335,7.8213479 -5.1779,15.1754413 -0.89165,20.6766583 3.38667,4.346839 0.762,9.748837 -0.52387,14.797087 -1.06098,4.155281 -1.16417,7.776898 -0.39423,13.060098 1.15623,7.961048 0.40481,17.726025 0.88371,25.719087 0.24341,4.094163 5.45041,7.090304 2.03994,10.499725 -2.41565,2.413794 -2.84428,7.189258 -2.82311,10.480146 0.21961,33.185092 0.13229,58.553082 3.88408,53.437892 0.55034,-0.7493 -38.7006,3.82799 -91.14895,-1.84177 -16.52323,-1.78647 -31.99607,-2.01215 -46.42856,-0.37809 -14.97568,1.69598 -41.179219,12.80081 -42.436254,-0.0619 -3.516842,-35.98915 -1.36525,-39.83434 -5.103548,-11.294 -0.42545,3.24776 2.460889,6.7392 2.033058,10.83362 -0.140758,1.34726 -2.668852,1.60285 -5.849143,1.43696 -0.916252,-0.0479 1.146175,-10.98868 -2.869142,-0.23231 -0.756973,2.02777 -8.233569,-1.25439 -10.02374,-1.0967 -22.076303,1.94496 -51.592426,-8.42486 -64.9001736,-2.81172 -6.0295895,2.54344 -9.6821624,5.05275 -13.0616853,-0.1606 -2.3309791,-3.59622 -8.4759271,-0.045 -12.5571251,-0.0408 -44.991072,0.0495 -76.694769,2.16165 -75.965579,2.06243 0.99007,-0.13468 1.27926,-25.72597 0.81836,-59.955902 -0.0598,-4.446058 -1.79785,-12.33805 -1.81848,-16.910579 -0.036,-7.955227 3.014658,-15.70011 2.856173,-23.643166 -0.205843,-10.321132 -4.043891,-21.651384 -4.080671,-30.7705127 -0.10742,-26.6758203 3.363918,-41.9639743 3.363918,-41.9639743 z"
       style="clip-rule:evenodd;fill:#f3c280;fill-rule:evenodd;stroke-width:0.264583;stroke-linejoin:round;stroke-miterlimit:2"
       id="path12" />
    <path
       d="m 100.2508,142.68986 c -0.810156,-2.17197 -2.999318,-3.34592 -4.389175,-5.04958 -2.218002,-2.71885 -4.045743,-5.55863 -4.486539,-9.08341 -0.352161,-2.81887 1.104371,-5.2906 1.642004,-7.97454 0.513821,-2.56593 -1.334294,-4.93183 -0.703792,-7.50543 0.380471,-1.55258 1.743604,-3.75523 1.876425,-5.39459 0.150813,-1.85764 0.06191,-3.73962 -0.169333,-5.58879 -0.638175,-5.103019 -1.738048,-8.41084 -3.81,-13.096082 -0.608542,-1.376098 -2.062163,-4.241271 -3.938587,-4.536546 -0.808567,-0.127529 -1.57189,1.551253 -1.703388,2.003161 -0.657225,2.255308 -1.338527,4.512998 -1.75604,6.824662 -0.833437,4.614069 -1.197504,9.303545 -1.991783,13.924485 -0.620977,3.61236 -3.763698,6.20475 -4.221956,9.85097 -0.47969,3.81714 2.581804,7.48771 1.172898,11.25828 -1.400704,3.74836 -6.351323,6.69449 -10.085652,7.50544 -1.923256,0.41778 -3.908954,-0.014 -5.83856,0.15372 -0.30533,0.0265 -0.650875,0.11536 -0.8509,0.3474 -0.671248,0.77893 3.003814,1.95104 3.160977,1.97432 2.488141,0.36645 4.586816,0.21564 7.023629,-0.33681 2.087827,-0.47361 4.804304,-1.41023 6.521714,-2.74294 1.435365,-1.11337 2.497138,-3.18505 3.133725,-4.81568 2.423319,-6.2066 2.151063,-6.3836 3.971396,-12.76694 0.643731,-2.25716 1.282965,-4.5167 2.004748,-6.75005 0.201083,-0.62283 0.877623,-1.94548 1.608931,-2.12381 1.744927,-0.42519 2.056077,3.89096 2.108729,4.40531 0.73025,7.13608 0.76835,10.10523 1.038225,17.2847 0.06403,1.70815 -0.01085,3.937 0.510381,5.60546 0.591873,1.89495 3.497792,7.2771 4.559565,8.93075 0.681567,1.06098 3.612358,-2.30346 3.612358,-2.30346 z"
       style="clip-rule:evenodd;fill:#d6a45f;fill-rule:evenodd;stroke-width:0.264583;stroke-linejoin:round;stroke-miterlimit:2"
       id="path22" />
    <path
       d="m 100.2508,142.68986 c -0.810156,-2.17197 -2.999318,-3.34592 -4.389175,-5.04958 -2.218002,-2.71885 -4.045743,-5.55863 -4.486539,-9.08341 -0.352161,-2.81887 1.104371,-5.2906 1.642004,-7.97454 0.513821,-2.56593 -1.334294,-4.93183 -0.703792,-7.50543 0.380471,-1.55258 1.743604,-3.75523 1.876425,-5.39459 0.150813,-1.85764 0.06191,-3.73962 -0.169333,-5.58879 -0.638175,-5.103019 -1.738048,-8.41084 -3.81,-13.096082 -0.608542,-1.376098 -2.062163,-4.241271 -3.938587,-4.536546 -0.808567,-0.127529 -1.57189,1.551253 -1.703388,2.003161 -0.657225,2.255308 -1.338527,4.512998 -1.75604,6.824662 -0.833437,4.614069 -1.197504,9.303545 -1.991783,13.924485 -0.620977,3.61236 -3.763698,6.20475 -4.221956,9.85097 -0.47969,3.81714 2.581804,7.48771 1.172898,11.25828 -1.400704,3.74836 -6.351323,6.69449 -10.085652,7.50544 -1.923256,0.41778 -3.908954,-0.014 -5.83856,0.15372 -0.30533,0.0265 -0.650875,0.11536 -0.8509,0.3474 -0.671248,0.77893 3.003814,1.95104 3.160977,1.97432 2.488141,0.36645 4.586816,0.21564 7.023629,-0.33681 2.087827,-0.47361 4.804304,-1.41023 6.521714,-2.74294 1.435365,-1.11337 2.497138,-3.18505 3.133725,-4.81568 2.423319,-6.2066 2.151063,-6.3836 3.971396,-12.76694 0.643731,-2.25716 1.282965,-4.5167 2.004748,-6.75005 0.201083,-0.62283 0.877623,-1.94548 1.608931,-2.12381 1.744927,-0.42519 2.056077,3.89096 2.108729,4.40531 0.73025,7.13608 0.76835,10.10523 1.038225,17.2847 0.06403,1.70815 -0.01085,3.937 0.510381,5.60546 0.591873,1.89495 3.497792,7.2771 4.559565,8.93075 0.681567,1.06098 3.612358,-2.30346 3.612358,-2.30346 z"
       style="clip-rule:evenodd;fill:#d6a45f;fill-rule:evenodd;stroke-width:0.264583;stroke-linejoin:round;stroke-miterlimit:2"
       id="path32" />
    <path
       d="m -74.69752,139.46035 c -3.66395,0.18892 -23.958552,1.23296 -23.773872,1.20783 0.99007,-0.13468 1.27926,-25.72597 0.81836,-59.955904 -0.0598,-4.446058 -1.79785,-12.33805 -1.81848,-16.910579 -0.036,-7.955227 3.014658,-15.70011 2.856173,-23.643166 -0.205843,-10.321132 -4.043891,-21.651384 -4.080671,-30.7705127 -0.10742,-26.6758203 3.363918,-41.9639743 3.363918,-41.9639743 57.921521,6.219296 141.666114,-1.661319 157.585564,-0.903817 3.416035,0.162454 4.683125,1.742282 6.04176,-0.08731 3.414712,-4.598458 15.929504,-1.637771 19.502966,6.942402 -2.752195,-1.74625 -12.102835,-7.939088 -14.611085,-4.561417 -1.358371,1.829329 -2.625725,0.249502 -6.041496,0.08705 -15.08072,-0.71755 -95.624119,11.060906 -152.680191,6.814608 -3.174471,-0.236273 -8.376973,9.377363 -8.269552,36.053183 0.03678,9.119129 3.875087,20.449381 4.080933,30.770512 0.158221,7.943056 -2.892425,15.68794 -2.856442,23.643167 0.02064,4.572529 1.758686,12.464785 1.818746,16.910579 0.374121,27.798169 18.652066,48.971979 18.063369,56.367349 z m 167.683918,-170.791706 0.118534,-0.749829 167.132798,0.0082 9.57527,-1.494102 c -0.65617,0.398991 -0.20109,16.97646 1.13241,17.966266 l -5.65943,-4.990306 c -5.26521,0.08282 -5.26521,-3.463396 -4.4503,-7.570523 -20.80948,1.554956 -41.83062,-1.249891 -61.5315,-1.244335 -24.05327,0.0066 -47.09054,2.734469 -65.8405,0.227012 -7.07178,-0.94562 -37.259419,2.384425 -39.928801,-0.639762 -0.366183,-0.414867 -0.252941,-1.0541 -0.548481,-1.512623 z"
       style="clip-rule:evenodd;fill:#d6a45f;fill-rule:evenodd;stroke-width:0.264583;stroke-linejoin:round;stroke-miterlimit:2"
       id="path42" />
    <path
       d="m -74.69752,139.46035 c -3.66395,0.18892 -23.958552,1.23296 -23.773872,1.20783 0.99007,-0.13468 1.27926,-25.72597 0.81836,-59.955904 -0.0598,-4.446058 -1.79785,-12.33805 -1.81848,-16.910579 -0.036,-7.955227 3.014658,-15.70011 2.856173,-23.643166 -0.205843,-10.321132 -4.043891,-21.651384 -4.080671,-30.7705127 -0.10742,-26.6758203 3.363918,-41.9639743 3.363918,-41.9639743 57.921521,6.219296 141.666114,-1.661319 157.585564,-0.903817 3.416035,0.162454 4.683125,1.742282 6.04176,-0.08731 3.414712,-4.598458 15.929504,-1.637771 19.502966,6.942402 -2.752195,-1.74625 -12.102835,-7.939088 -14.611085,-4.561417 -1.358371,1.829329 -2.625725,0.249502 -6.041496,0.08705 -15.08072,-0.71755 -95.624119,11.060906 -152.680191,6.814608 -3.174471,-0.236273 -8.376973,9.377363 -8.269552,36.053183 0.03678,9.119129 3.875087,20.449381 4.080933,30.770512 0.158221,7.943056 -2.892425,15.68794 -2.856442,23.643167 0.02064,4.572529 1.758686,12.464785 1.818746,16.910579 0.374121,27.798169 18.652066,48.971979 18.063369,56.367349 z m 167.683918,-170.791706 0.118534,-0.749829 167.132798,0.0082 9.57527,-1.494102 c -0.65617,0.398991 -0.20109,16.97646 1.13241,17.966266 l -5.65943,-4.990306 c -5.26521,0.08282 -5.26521,-3.463396 -4.4503,-7.570523 -20.80948,1.554956 -41.83062,-1.249891 -61.5315,-1.244335 -24.05327,0.0066 -47.09054,2.734469 -65.8405,0.227012 -7.07178,-0.94562 -37.259419,2.384425 -39.928801,-0.639762 -0.366183,-0.414867 -0.252941,-1.0541 -0.548481,-1.512623 z"
       style="clip-rule:evenodd;fill:#d6a45f;fill-rule:evenodd;stroke-width:0.264583;stroke-linejoin:round;stroke-miterlimit:2"
       id="path52" />
    <g
       id="g78"
       transform="matrix(0.26458333,0,0,0.26458333,-93.666531,-31.442904)"
       style="clip-rule:evenodd;fill-rule:evenodd;stroke-linejoin:round;stroke-miterlimit:2">
      <rect
         id="rect62"
         x="17.271"
         y="25.568001"
         width="600"
         height="600"
         style="fill:#9b782e;fill-rule:nonzero" />
      <g
         id="g76">
        <rect
           id="rect4"
           x="320.62"
           y="28.917"
           width="93.303001"
           height="93.303001"
           style="fill:#f3c280" />
        <rect
           id="rect6"
           x="220.62"
           y="28.917"
           width="93.303001"
           height="93.303001"
           style="fill:#f3c280" />
        <rect
           id="rect8"
           x="120.62"
           y="28.917"
           width="93.303001"
           height="93.303001"
           style="fill:#f3c280" />
        <rect
           id="rect10"
           x="20.620001"
           y="28.917"
           width="93.303001"
           height="93.303001"
           style="fill:#f3c280" />
        <rect
           id="rect12"
           x="420.62"
           y="28.917"
           width="93.303001"
           height="93.303001"
           style="fill:#f3c280" />
        <rect
           id="rect14"
           x="520.62"
           y="28.917"
           width="93.303001"
           height="93.303001"
           style="fill:#f3c280" />
        <rect
           id="rect16"
           x="320.62"
           y="128.91701"
           width="93.303001"
           height="93.303001"
           style="fill:#f3c280" />
        <rect
           id="rect18"
           x="220.62"
           y="128.91701"
           width="93.303001"
           height="93.303001"
           style="fill:#f3c280" />
        <rect
           id="rect20"
           x="120.62"
           y="128.91701"
           width="93.303001"
           height="93.303001"
           style="fill:#f3c280" />
        <rect
           id="rect22"
           x="20.620001"
           y="128.91701"
           width="93.303001"
           height="93.303001"
           style="fill:#f3c280" />
        <rect
           id="rect24"
           x="420.62"
           y="128.91701"
           width="93.303001"
           height="93.303001"
           style="fill:#f3c280" />
        <rect
           id="rect26"
           x="520.62"
           y="128.91701"
           width="93.303001"
           height="93.303001"
           style="fill:#f3c280" />
        <rect
           id="rect28"
           x="320.62"
           y="228.91701"
           width="93.303001"
           height="93.303001"
           style="fill:#f3c280" />
        <rect
           id="rect30"
           x="220.62"
           y="228.91701"
           width="93.303001"
           height="93.303001"
           style="fill:#f3c280" />
        <rect
           id="rect32"
           x="120.62"
           y="228.91701"
           width="93.303001"
           height="93.303001"
           style="fill:#f3c280" />
        <rect
           id="rect34"
           x="20.620001"
           y="228.91701"
           width="93.303001"
           height="93.303001"
           style="fill:#f3c280" />
        <rect
           id="rect36"
           x="420.62"
           y="228.91701"
           width="93.303001"
           height="93.303001"
           style="fill:#f3c280" />
        <rect
           id="rect38"
           x="520.62"
           y="228.91701"
           width="93.303001"
           height="93.303001"
           style="fill:#f3c280" />
        <rect
           id="rect40"
           x="320.62"
           y="328.91699"
           width="93.303001"
           height="93.303001"
           style="fill:#f3c280" />
        <rect
           id="rect42"
           x="220.62"
           y="328.91699"
           width="93.303001"
           height="93.303001"
           style="fill:#f3c280" />
        <rect
           id="rect44"
           x="120.62"
           y="328.91699"
           width="93.303001"
           height="93.303001"
           style="fill:#f3c280" />
        <rect
           id="rect46"
           x="20.620001"
           y="328.91699"
           width="93.303001"
           height="93.303001"
           style="fill:#f3c280" />
        <rect
           id="rect48"
           x="420.62"
           y="328.91699"
           width="93.303001"
           height="93.303001"
           style="fill:#f3c280" />
        <rect
           id="rect50"
           x="520.62"
           y="328.91699"
           width="93.303001"
           height="93.303001"
           style="fill:#f3c280" />
        <rect
           id="rect52"
           x="320.62"
           y="428.91699"
           width="93.303001"
           height="93.303001"
           style="fill:#f3c280" />
        <rect
           id="rect54"
           x="220.62"
           y="428.91699"
           width="93.303001"
           height="93.303001"
           style="fill:#f3c280" />
        <rect
           id="rect56"
           x="120.62"
           y="428.91699"
           width="93.303001"
           height="93.303001"
           style="fill:#f3c280" />
        <rect
           id="rect58"
           x="20.620001"
           y="428.91699"
           width="93.303001"
           height="93.303001"
           style="fill:#f3c280" />
        <rect
           id="rect60"
           x="420.62"
           y="428.91699"
           width="93.303001"
           height="93.303001"
           style="fill:#f3c280" />
        <rect
           id="rect93"
           x="520.62"
           y="428.91699"
           width="93.303001"
           height="93.303001"
           style="fill:#f3c280" />
        <rect
           id="rect64"
           x="320.62"
           y="528.91699"
           width="93.303001"
           height="93.303001"
           style="fill:#f3c280" />
        <rect
           id="rect66"
           x="220.62"
           y="528.91699"
           width="93.303001"
           height="93.303001"
           style="fill:#f3c280" />
        <rect
           id="rect68"
           x="120.62"
           y="528.91699"
           width="93.303001"
           height="93.303001"
           style="fill:#f3c280" />
        <rect
           id="rect70"
           x="20.620001"
           y="528.91699"
           width="93.303001"
           height="93.303001"
           style="fill:#f3c280" />
        <rect
           id="rect72"
           x="420.62"
           y="528.91699"
           width="93.303001"
           height="93.303001"
           style="fill:#f3c280" />
        <rect
           id="rect74"
           x="520.62"
           y="528.91699"
           width="93.303001"
           height="93.303001"
           style="fill:#f3c280" />
      </g>
    </g>
    <g
       transform="matrix(0.17041945,0,0,0.20044648,-91.308062,-33.961447)"
       id="g185"
       style="clip-rule:evenodd;fill-rule:evenodd;stroke-linejoin:round;stroke-miterlimit:2">
      <path
         d="m 282.643,208.318 -6.162,-6.492 c -7.678,1.722 -14.993,5.54 -18.54,12.991 -0.659,7.977 5.375,7.801 11.883,3.688 z"
         style="fill:#562600"
         id="path183"
         sodipodi:nodetypes="ccccc" />
    </g>
    <g
       transform="matrix(0.17041945,0,0,0.20044648,-91.308062,-33.961447)"
       id="g213"
       style="clip-rule:evenodd;fill-rule:evenodd;stroke-linejoin:round;stroke-miterlimit:2">
      <path
         d="m 282.643,208.318 -6.162,-6.492 c -7.678,1.722 -14.993,5.54 -18.54,12.991 -0.659,7.977 5.375,7.801 11.883,3.688 z"
         style="fill:#562600"
         id="path211"
         sodipodi:nodetypes="ccccc" />
    </g>
    <g
       transform="matrix(0.05182261,-0.16234886,-0.19095402,-0.06095338,-16.953267,67.468293)"
       id="g297"
       style="clip-rule:evenodd;fill-rule:evenodd;stroke-linejoin:round;stroke-miterlimit:2">
      <path
         d="m 283.113,209.253 -5.789,-6.774 c -7.678,1.721 -15.836,4.887 -19.383,12.338 -0.659,7.977 5.375,7.801 11.883,3.688 z"
         style="fill:#562600"
         id="path295"
         sodipodi:nodetypes="ccccc" />
    </g>
    <g
       transform="matrix(0.05182261,-0.16234886,-0.19095402,-0.06095338,-16.953267,67.468293)"
       id="g395"
       style="clip-rule:evenodd;fill-rule:evenodd;stroke-linejoin:round;stroke-miterlimit:2">
      <path
         d="m 283.113,209.253 -5.789,-6.774 c -7.678,1.721 -15.836,4.887 -19.383,12.338 -0.659,7.977 5.375,7.801 11.883,3.688 z"
         style="fill:#562600"
         id="path393"
         sodipodi:nodetypes="ccccc" />
    </g>
    <g
       id="rect821"
       serif:id="rect82"
       transform="matrix(0.26458333,0,0,0.26458333,-71.695823,-11.416433)"
       style="clip-rule:evenodd;fill-rule:evenodd;stroke-linejoin:round;stroke-miterlimit:2">
      <path
         d="m -65.458,-54.803 v 600 h 0.045 v 5.939 H 542.482 V 375.839 c -7.067,-144.788 -3.247,-284.615 0,-424.703 h -0.047 v -5.939 z m 9.781,10.282 283.03,5.657 v 190 h 0.086 v 7.534 l 103.11,-3.793 3.993,-12.147 h -91.25 V -38.864 h 283.25 l 4.806,575.237 -580.866,-1.176 V 357.933 h 184.06 v -15.937 h -184.06 v -183.86 h 84.06 v -15.939 h -84.06 z m 390.219,87.353 v 15.939 h 92.061 V 243.197 H 142.542 V 43.209 h -8 v -0.012 h -100 v 15.939 h 92.061 V 243.197 H 34.542 v 15.939 h 192 v 184.061 h -192 v 15.939 h 392.061 v 0.084 h 15.939 V 343.195 h -8 v -0.012 h -100 v 15.94 h 92.061 v 84.074 H 242.482 V 259.136 l 199.98,-8 h 0.081 l -4.141,-206.44 z"
         style="fill:#6d370d;fill-rule:nonzero"
         id="path401" />
    </g>
    <g
       id="rect824"
       serif:id="rect82"
       transform="matrix(0.26458333,0,0,0.26458333,-71.695823,-11.416433)"
       style="clip-rule:evenodd;fill-rule:evenodd;stroke-linejoin:round;stroke-miterlimit:2">
      <path
         d="m -65.458,-54.803 v 600 h 0.045 v 5.939 H 542.482 V 375.839 c -7.067,-144.788 -3.247,-284.615 0,-424.703 h -0.047 v -5.939 z m 9.781,10.282 283.03,5.657 v 190 h 0.086 v 7.534 l 103.11,-3.793 3.993,-12.147 h -91.25 V -38.864 h 283.25 l 4.806,575.237 -580.866,-1.176 V 357.933 h 184.06 v -15.937 h -184.06 v -183.86 h 84.06 v -15.939 h -84.06 z m 390.219,87.353 v 15.939 h 92.061 V 243.197 H 142.542 V 43.209 h -8 v -0.012 h -100 v 15.939 h 92.061 V 243.197 H 34.542 v 15.939 h 192 v 184.061 h -192 v 15.939 h 392.061 v 0.084 h 15.939 V 343.195 h -8 v -0.012 h -100 v 15.94 h 92.061 v 84.074 H 242.482 V 259.136 l 199.98,-8 h 0.081 l -4.141,-206.44 z"
         style="fill:#6d370d;fill-rule:nonzero"
         id="path410" />
    </g>
    <g
       transform="matrix(0.27859831,-0.02756376,0.02399718,0.24254857,-126.88698,-32.031814)"
       id="g421"
       style="clip-rule:evenodd;fill-rule:evenodd;stroke-linejoin:round;stroke-miterlimit:2">
      <path
         d="m 240.001,219.599 c -1.798,-2.226 -0.994,-3.74 -2.129,-4.64 -0.759,-0.603 -7.087,-1.011 -7.145,-0.677 -0.754,4.331 1.649,8.068 6.411,10.728 -3.949,7.553 -7.165,14.108 -8.445,17.521 -0.451,1.204 -2.414,7.506 -2.868,7.526 -1.375,0.061 -2.54,-11.934 -1.888,-15.985 -2.125,3.366 -4.263,10.416 -6.046,12.195 0,0 3.029,4.894 5.324,8.645 1.221,1.995 3.92,2.289 5.869,-1.418 3.154,-5.999 8.098,-16.087 13.123,-26.409 3.88,1.131 8.918,1.906 13.893,2.437 -0.475,8.858 -0.835,16.99 -0.792,21.962 0.034,4.005 0.204,6.901 0.46,8.106 0.273,1.288 0.844,2.009 1.189,2.353 0.425,0.426 2.336,1.895 4.911,0.395 2.211,-1.288 11.094,-8.536 13.433,-10.093 l 0.018,-0.012 c 1.434,-0.659 2.002,-3.736 2.052,-4.018 l 0.003,-0.021 -0.003,0.021 c -0.395,1.947 -18.714,14.906 -19.261,9.012 0,0 0.879,-12.559 1.797,-27.342 8.304,0.704 15.51,0.775 15.526,0.76 0.035,-0.031 -7.425,-0.945 -15.409,-2.648 1.272,-20.679 2.553,-44.787 1.623,-45.019 -1.041,-0.259 -12.422,19.37 -21.646,36.621 z m 16.228,7.532 c 0.637,-11.595 1.422,-24.04 1.73,-32.064 -2.882,5.526 -8.217,16.524 -13.732,27.865 2.872,1.652 7.337,3.058 12.002,4.199 z"
         style="fill:#562600"
         id="path419"
         sodipodi:nodetypes="cccccccccscccccsscccccccccccccc" />
    </g>
    <g
       transform="matrix(0.27859831,-0.02756376,0.02399718,0.24254857,-126.88698,-32.031814)"
       id="g433"
       style="clip-rule:evenodd;fill-rule:evenodd;stroke-linejoin:round;stroke-miterlimit:2">
      <path
         d="m 240.001,219.599 c -1.798,-2.226 -0.994,-3.74 -2.129,-4.64 -0.759,-0.603 -7.087,-1.011 -7.145,-0.677 -0.754,4.331 1.649,8.068 6.411,10.728 -3.949,7.553 -7.165,14.108 -8.445,17.521 -0.451,1.204 -2.414,7.506 -2.868,7.526 -1.375,0.061 -2.54,-11.934 -1.888,-15.985 -2.125,3.366 -4.263,10.416 -6.046,12.195 0,0 3.029,4.894 5.324,8.645 1.221,1.995 3.92,2.289 5.869,-1.418 3.154,-5.999 8.098,-16.087 13.123,-26.409 3.88,1.131 8.918,1.906 13.893,2.437 -0.475,8.858 -0.835,16.99 -0.792,21.962 0.034,4.005 0.204,6.901 0.46,8.106 0.273,1.288 0.844,2.009 1.189,2.353 0.425,0.426 2.336,1.895 4.911,0.395 2.211,-1.288 11.094,-8.536 13.433,-10.093 l 0.018,-0.012 c 1.434,-0.659 2.002,-3.736 2.052,-4.018 l 0.003,-0.021 -0.003,0.021 c -0.395,1.947 -18.714,14.906 -19.261,9.012 0,0 0.879,-12.559 1.797,-27.342 8.304,0.704 15.51,0.775 15.526,0.76 0.035,-0.031 -7.425,-0.945 -15.409,-2.648 1.272,-20.679 2.553,-44.787 1.623,-45.019 -1.041,-0.259 -12.422,19.37 -21.646,36.621 z m 16.228,7.532 c 0.637,-11.595 1.422,-24.04 1.73,-32.064 -2.882,5.526 -8.217,16.524 -13.732,27.865 2.872,1.652 7.337,3.058 12.002,4.199 z"
         style="fill:#562600"
         id="path431"
         sodipodi:nodetypes="cccccccccscccccsscccccccccccccc" />
    </g>
    <g
       transform="matrix(0.16950531,0.01762723,-0.02073304,0.19937121,-86.859093,-38.500162)"
       id="g445"
       style="clip-rule:evenodd;fill-rule:evenodd;stroke-linejoin:round;stroke-miterlimit:2">
      <path
         d="m 285.919,205.767 -6.881,-6.504 c 0,0 8.191,-9.825 13.082,-5.291 6.406,5.936 -5.645,10.902 -6.201,11.795 z"
         style="fill:#562600"
         id="path443"
         sodipodi:nodetypes="cccc" />
    </g>
    <g
       transform="matrix(0.16950531,0.01762723,-0.02073304,0.19937121,-86.859093,-38.500162)"
       id="g453"
       style="clip-rule:evenodd;fill-rule:evenodd;stroke-linejoin:round;stroke-miterlimit:2">
      <path
         d="m 285.919,205.767 -6.881,-6.504 c 0,0 8.191,-9.825 13.082,-5.291 6.406,5.936 -5.645,10.902 -6.201,11.795 z"
         style="fill:#562600"
         id="path451"
         sodipodi:nodetypes="cccc" />
    </g>
    <g
       transform="matrix(0.17039246,0.00302921,-0.00356293,0.20041473,-88.853787,-32.368179)"
       id="g461"
       style="clip-rule:evenodd;fill-rule:evenodd;stroke-linejoin:round;stroke-miterlimit:2">
      <path
         d="m 285.917,205.921 -6.305,-6.363 c 0,0 7.617,-10.12 12.508,-5.586 6.406,5.936 -5.648,11.056 -6.203,11.949 z"
         style="fill:#562600"
         id="path459"
         sodipodi:nodetypes="cccc" />
    </g>
    <g
       transform="matrix(0.17039246,0.00302921,-0.00356293,0.20041473,-88.853787,-32.368179)"
       id="g469"
       style="clip-rule:evenodd;fill-rule:evenodd;stroke-linejoin:round;stroke-miterlimit:2">
      <path
         d="m 285.917,205.921 -6.305,-6.363 c 0,0 7.617,-10.12 12.508,-5.586 6.406,5.936 -5.648,11.056 -6.203,11.949 z"
         style="fill:#562600"
         id="path467"
         sodipodi:nodetypes="cccc" />
    </g>
    <g
       id="g198"
       transform="matrix(0.26458333,0,0,0.26458333,91.359158,-31.10982)"
       style="clip-rule:evenodd;fill-rule:evenodd;stroke-linejoin:round;stroke-miterlimit:2">
      <rect
         id="path122"
         x="17.271"
         y="25.568001"
         width="600"
         height="600"
         style="fill:#9b782e;fill-rule:nonzero" />
      <g
         id="g196">
        <rect
           id="rect124"
           x="320.62"
           y="28.917"
           width="93.303001"
           height="93.303001"
           style="fill:#f3c280" />
        <rect
           id="rect126"
           x="220.62"
           y="28.917"
           width="93.303001"
           height="93.303001"
           style="fill:#f3c280" />
        <rect
           id="rect128"
           x="120.62"
           y="28.917"
           width="93.303001"
           height="93.303001"
           style="fill:#f3c280" />
        <rect
           id="rect130"
           x="20.620001"
           y="28.917"
           width="93.303001"
           height="93.303001"
           style="fill:#f3c280" />
        <rect
           id="rect132"
           x="420.62"
           y="28.917"
           width="93.303001"
           height="93.303001"
           style="fill:#f3c280" />
        <rect
           id="rect134"
           x="520.62"
           y="28.917"
           width="93.303001"
           height="93.303001"
           style="fill:#f3c280" />
        <rect
           id="rect136"
           x="320.62"
           y="128.91701"
           width="93.303001"
           height="93.303001"
           style="fill:#f3c280" />
        <rect
           id="rect138"
           x="220.62"
           y="128.91701"
           width="93.303001"
           height="93.303001"
           style="fill:#f3c280" />
        <rect
           id="rect140"
           x="120.62"
           y="128.91701"
           width="93.303001"
           height="93.303001"
           style="fill:#f3c280" />
        <rect
           id="rect1421"
           serif:id="rect142"
           x="20.620001"
           y="128.91701"
           width="93.303001"
           height="93.303001"
           style="fill:#f3c280" />
        <rect
           id="rect144"
           x="420.62"
           y="128.91701"
           width="93.303001"
           height="93.303001"
           style="fill:#f3c280" />
        <rect
           id="rect146"
           x="520.62"
           y="128.91701"
           width="93.303001"
           height="93.303001"
           style="fill:#f3c280" />
        <rect
           id="rect148"
           x="320.62"
           y="228.91701"
           width="93.303001"
           height="93.303001"
           style="fill:#f3c280" />
        <rect
           id="rect150"
           x="220.62"
           y="228.91701"
           width="93.303001"
           height="93.303001"
           style="fill:#f3c280" />
        <rect
           id="rect152"
           x="120.62"
           y="228.91701"
           width="93.303001"
           height="93.303001"
           style="fill:#f3c280" />
        <rect
           id="rect154"
           x="20.620001"
           y="228.91701"
           width="93.303001"
           height="93.303001"
           style="fill:#f3c280" />
        <g
           id="rect156"
           transform="translate(-792.839,-45.0883)">
          <rect
             x="1213.46"
             y="274.005"
             width="93.303001"
             height="93.303001"
             style="fill:#f3c280"
             id="rect493" />
        </g>
        <rect
           id="rect158"
           x="520.62"
           y="228.91701"
           width="93.303001"
           height="93.303001"
           style="fill:#f3c280" />
        <rect
           id="rect160"
           x="320.62"
           y="328.91699"
           width="93.303001"
           height="93.303001"
           style="fill:#f3c280" />
        <rect
           id="rect1621"
           serif:id="rect162"
           x="220.62"
           y="328.91699"
           width="93.303001"
           height="93.303001"
           style="fill:#f3c280" />
        <rect
           id="rect164"
           x="120.62"
           y="328.91699"
           width="93.303001"
           height="93.303001"
           style="fill:#f3c280" />
        <rect
           id="rect166"
           x="20.620001"
           y="328.91699"
           width="93.303001"
           height="93.303001"
           style="fill:#f3c280" />
        <rect
           id="rect168"
           x="420.62"
           y="328.91699"
           width="93.303001"
           height="93.303001"
           style="fill:#f3c280" />
        <rect
           id="rect170"
           x="520.62"
           y="328.91699"
           width="93.303001"
           height="93.303001"
           style="fill:#f3c280" />
        <rect
           id="rect172"
           x="320.62"
           y="428.91699"
           width="93.303001"
           height="93.303001"
           style="fill:#f3c280" />
        <rect
           id="rect174"
           x="220.62"
           y="428.91699"
           width="93.303001"
           height="93.303001"
           style="fill:#f3c280" />
        <rect
           id="rect176"
           x="120.62"
           y="428.91699"
           width="93.303001"
           height="93.303001"
           style="fill:#f3c280" />
        <rect
           id="rect178"
           x="20.620001"
           y="428.91699"
           width="93.303001"
           height="93.303001"
           style="fill:#f3c280" />
        <rect
           id="rect180"
           x="420.62"
           y="428.91699"
           width="93.303001"
           height="93.303001"
           style="fill:#f3c280" />
        <rect
           id="rect1821"
           serif:id="rect182"
           x="520.62"
           y="428.91699"
           width="93.303001"
           height="93.303001"
           style="fill:#f3c280" />
        <rect
           id="rect184"
           x="320.62"
           y="528.91699"
           width="93.303001"
           height="93.303001"
           style="fill:#f3c280" />
        <rect
           id="rect186"
           x="220.62"
           y="528.91699"
           width="93.303001"
           height="93.303001"
           style="fill:#f3c280" />
        <rect
           id="rect188"
           x="120.62"
           y="528.91699"
           width="93.303001"
           height="93.303001"
           style="fill:#f3c280" />
        <rect
           id="rect190"
           x="20.620001"
           y="528.91699"
           width="93.303001"
           height="93.303001"
           style="fill:#f3c280" />
        <rect
           id="rect192"
           x="420.62"
           y="528.91699"
           width="93.303001"
           height="93.303001"
           style="fill:#f3c280" />
        <rect
           id="rect194"
           x="520.62"
           y="528.91699"
           width="93.303001"
           height="93.303001"
           style="fill:#f3c280" />
      </g>
    </g>
    <g
       transform="matrix(0.2712085,-0.08828643,0.0663911,0.20394718,-421.6332,92.038559)"
       id="g643"
       style="clip-rule:evenodd;fill-rule:evenodd;stroke-linejoin:round;stroke-miterlimit:2">
      <path
         d="m 1485.86,691.484 c 0.83,0.41 1.67,0.803 2.49,1.173 4.56,2.035 8.61,5.176 12.3,6.177 6.18,1.672 9.47,-5.764 12.87,-17.153 1.25,-4.175 -2.6,-14.467 -7.05,-14.651 -2.9,-0.12 -8.1,0.398 -11.39,0.561 l -0.8,0.525 c -1.93,6.711 -4.14,13.437 -6.56,19.225 -0.61,1.442 -1.23,2.827 -1.86,4.143 z m 4.55,-58.33 c 4.81,-4.594 12.03,-5.043 15.98,-1.389 2.56,2.379 3.85,4.844 4.04,7.38 0.32,4.187 -2.13,8.36 -5.63,12.31 -2.29,2.582 -5.05,5.046 -7.98,7.305 3.6,-14.137 5.74,-26.104 5.74,-26.104 l -7.32,9.218 c 0,0 -10.88,34.155 -11.33,35.46 -1.35,3.91 -2.78,7.611 -4.29,10.845 -0.68,1.465 -1.53,2.814 -2.04,4.222 -0.26,0.744 -0.54,1.644 0.59,2.81 0.87,0.906 7.88,3.79 9.56,4.461 5.12,2.047 10.05,3.093 14.35,2.422 6.94,-1.087 12.89,-6.37 15.18,-20.299 0.82,-4.948 0.17,-8.809 -1.37,-11.786 -1.94,-3.768 -5.33,-6.238 -9.56,-7.584 -1.03,-0.328 -2.12,-0.586 -3.24,-0.779 2.31,-1.939 4.47,-3.99 6.33,-6.113 4.71,-5.356 6.12,-11.278 7.09,-16.864 2.4,-13.769 -20.55,-18.841 -26.08,-11.969"
         style="fill:#562600"
         id="path641"
         sodipodi:nodetypes="ccccscccccccccccccccccccccccc" />
    </g>
    <g
       id="rect2021"
       serif:id="rect202"
       transform="matrix(0.26458333,0,0,0.26458333,-71.695823,-11.416433)"
       style="clip-rule:evenodd;fill-rule:evenodd;stroke-linejoin:round;stroke-miterlimit:2">
      <path
         d="m 633.542,-54.803 v 600 h 0.045 v 5.939 h 607.893 v -600 h -0.05 v -5.939 z m 15.94,15.939 H 1025.6 v 90 h 15.94 v -90 h 184 v 182.061 h -91 v 15.939 l 96.35,8.47 -5.35,367.591 h -83 v -90.086 h -8 v -0.012 h -100 v 15.94 h 92.06 v 74.158 H 941.543 v -90.086 h -15.94 v 90.086 l -85.813,2.589 -98.248,-2.589 v -90.086 h -15.939 v 90.086 H 649.482 V 259.476 h 185.06 v -15.939 l -187.493,3.813 z m 177.121,90 v 91.061 h -92.061 v 15.939 l 103.775,-5.539 4.226,-101.461 z m 99.75,0 v 290.86 H 734.542 v 15.937 h 91.428 v 93.203 h 15.938 v -93.203 h 292.632 v -15.937 c -63.75,4.74 -127.07,11.409 -193.304,4.843 l 1.056,-87.363 h 92.248 v -0.138 h 7.38 V 151.136 h -15.93 v 92.401 H 942.292 V 51.136 Z"
         style="fill:#6d370d;fill-rule:nonzero"
         id="path649" />
    </g>
  </g>
</svg>
