<?xml version="1.0" encoding="UTF-8" standalone="no"?>
<svg
   width="53.997028"
   height="53.999954"
   viewBox="0 0 53.997028 53.999954"
   version="1.1"
   xml:space="preserve"
   style="clip-rule:evenodd;fill-rule:evenodd;stroke-linejoin:round;stroke-miterlimit:2"
   id="svg85"
   sodipodi:docname="2022-AT-02-chips_star.svg"
   inkscape:version="1.1.1 (3bf5ae0d25, 2021-09-20)"
   xmlns:inkscape="http://www.inkscape.org/namespaces/inkscape"
   xmlns:sodipodi="http://sodipodi.sourceforge.net/DTD/sodipodi-0.dtd"
   xmlns="http://www.w3.org/2000/svg"
   xmlns:svg="http://www.w3.org/2000/svg"><defs
   id="defs89">
        
        
        
        
        
    </defs><sodipodi:namedview
   id="namedview87"
   pagecolor="#ffffff"
   bordercolor="#666666"
   borderopacity="1.0"
   inkscape:pageshadow="2"
   inkscape:pageopacity="0.0"
   inkscape:pagecheckerboard="0"
   showgrid="false"
   inkscape:zoom="3.8802083"
   inkscape:cx="108.62819"
   inkscape:cy="120.74094"
   inkscape:window-width="1680"
   inkscape:window-height="1027"
   inkscape:window-x="1912"
   inkscape:window-y="-8"
   inkscape:window-maximized="1"
   inkscape:current-layer="svg85" />
    <g
   transform="translate(-1128.863,-268.77704)"
   id="g16">
            <g
   id="g14">
                <g
   transform="matrix(0.965947,0,0,0.953118,-26.4193,-2.34023)"
   id="g4">
                    <path
   d="m 1251.91,298.617 c 0,-7.817 -6.26,-14.164 -13.98,-14.164 h -27.95 c -7.71,0 -13.97,6.347 -13.97,14.164 v 28.328 c 0,7.818 6.26,14.164 13.97,14.164 h 27.95 c 7.72,0 13.98,-6.346 13.98,-14.164 z"
   style="fill:#e2ae86;font-variation-settings:normal;opacity:1;vector-effect:none;fill-opacity:1;stroke-width:1;stroke-linecap:butt;stroke-linejoin:miter;stroke-miterlimit:2;stroke-dasharray:none;stroke-dashoffset:0;stroke-opacity:1;-inkscape-stroke:none;stop-color:#000000;stop-opacity:1"
   id="path2" />
                </g>
                <path
   d="m 1173.8,269.525 c 2.58,2.46 4.2,5.934 4.2,9.783 2.66,31.319 -11.42,44.17 -40.5,40.5 -1.56,0 -3.05,-0.263 -4.44,-0.748 2.42,2.303 5.7,3.717 9.3,3.717 h 27 c 7.45,0 13.5,-6.049 13.5,-13.5 v -27 c 0,-5.896 -3.79,-10.915 -9.06,-12.752 z"
   style="fill:#cc9f7c;font-variation-settings:normal;opacity:1;vector-effect:none;fill-opacity:1;stroke-width:0.959511;stroke-linecap:butt;stroke-linejoin:miter;stroke-miterlimit:2;stroke-dasharray:none;stroke-dashoffset:0;stroke-opacity:1;-inkscape-stroke:none;stop-color:#000000;stop-opacity:1"
   id="path6" />
                <path
   d="m 1148.71,284.238 c 6.57,-2.695 10.06,-9.729 -4.4,-11.732 -4.62,-0.64 -14.39,4.074 -11.25,10.486 1.59,3.238 -0.01,7.446 0,11.053 0,1.527 2.14,3.866 3.72,5.035 1.34,0.995 4.5,0.947 5.16,0.528 1.13,-0.705 0.43,-2.917 0.25,-3.741 -0.53,-2.346 -1.77,-5.127 -0.48,-7.51 1.34,-2.462 4.65,-3.159 7,-4.119 z"
   style="fill:#e6c8ae;font-variation-settings:normal;opacity:1;vector-effect:none;fill-opacity:1;stroke-width:1;stroke-linecap:butt;stroke-linejoin:miter;stroke-miterlimit:2;stroke-dasharray:none;stroke-dashoffset:0;stroke-opacity:1;-inkscape-stroke:none;stop-color:#000000;stop-opacity:1"
   id="path8" />
                <g
   transform="translate(-622.02,-521.484)"
   id="g12">
                    <path
   d="m 1777.66,795.306 4.92,15.151 h 15.93 l -12.89,9.363 4.93,15.151 -12.89,-9.364 -12.89,9.364 4.92,-15.151 -12.89,-9.363 h 15.93 z"
   style="fill:#d200ff"
   id="path10" />
                </g>
            </g>
        </g>
</svg>
