<?xml version="1.0" encoding="UTF-8"?>
<!-- Created with Inkscape (http://www.inkscape.org/) -->
<svg id="svg831" width="190.96mm" height="24.013mm" version="1.1" viewBox="0 0 190.96 24.013" xmlns="http://www.w3.org/2000/svg">
 <g id="layer1" transform="translate(11.328 -92.331)">
  <path id="path4-74-4-2" d="m-3.4223 92.798c-.097001-.097-3.4086-.26609-3.6488-.02612-.073537.07378.58636 2.5847.68312 2.6814.068699.0687 2.4862.04548 2.4862.05539 0 0 .62942-2.5607.47944-2.7107z" style="clip-rule:evenodd;fill-rule:evenodd;fill:#686262;stroke-linejoin:round;stroke-miterlimit:2;stroke-width:.2419"/>
  <path id="path6-1-2-4" d="m1.0159 102.48c.13429-2.1192-.56444-3.3858-2.5262-3.3602-1.0772-.04123-2.0379-.25533-2.0834-.98067 0 0 .00188-1.8902.067146-2.5753.045329-.4739.74801-.38161.88231-.55022.44764-.56174.047585-.90769-.4593-.97027-.25072-.03101-1.3666-.04865-1.3666-.04865s-2.4716.01764-2.7223.04865c-.50689.06258-.90676.40854-.4593.97027.13429.16861.83698.07632.88231.55022.065265.68504.067146 2.5753.067146 2.5753-.045517.72533-1.0063.93944-2.0834.98067-1.9617-.02563-2.6605 1.241-2.5262 3.3602l-.01599 12.082c0 .80871.65661 1.4653 1.4654 1.4653h9.4291c.80877 0 1.4654-.65663 1.4654-1.4653v-10.644c0-.80871-.015987-1.4382-.015987-1.4382z" style="clip-rule:evenodd;fill-rule:evenodd;stroke-linejoin:round;stroke-miterlimit:2;stroke-width:.18689"/>
  <path id="path10-1-9-3" d="m-6.8137 94.025c.17271.67416.37542 1.3778.42574 1.4282.068699.0687 2.4862.04548 2.4862.05539 0 0 .18989-.77165.336-1.4927-.40566-.01451-.90445-.0225-.90445-.0225s-1.5825.01137-2.3435.03169z" style="clip-rule:evenodd;fill-rule:evenodd;fill:#2e2e2e;stroke-linejoin:round;stroke-miterlimit:2;stroke-width:.2419"/>
  <path id="path12-9-6-1" d="m-3.8132 101.27c.40711.56555 1.1098.49468 1.4857.9642.50798.63522.39091 1.6776.39091 2.4499 0 2.5762.16957 9.0769.28665 9.7216.030963.17078.88026.2402 1.1246.0774.3776-.25181.72835-8.8906.46517-11.258-.1149-1.036-.12772-2.2704-1.1466-2.9712-.90518-.62264-3.1684.23537-2.6064 1.0164z" style="clip-rule:evenodd;fill-rule:evenodd;fill:#b3b3b3;stroke-linejoin:round;stroke-miterlimit:2;stroke-width:.2419"/>
  <path id="path4-74-4-9" d="m49.49 92.798c-.097-.097-3.4086-.26609-3.6488-.02612-.07354.07378.58636 2.5847.68312 2.6814.0687.0687 2.4862.04548 2.4862.05539 0 0 .62942-2.5607.47944-2.7107z" style="clip-rule:evenodd;fill-rule:evenodd;fill:#686262;stroke-linejoin:round;stroke-miterlimit:2;stroke-width:.2419"/>
  <path id="path6-1-2-7" d="m53.928 102.48c.13429-2.1192-.56444-3.3858-2.5262-3.3602-1.0772-.04123-2.0379-.25533-2.0834-.98067 0 0 .0019-1.8902.06715-2.5753.04533-.4739.74802-.38161.88231-.55022.44764-.56174.04759-.90769-.4593-.97027-.25072-.03101-1.3666-.04865-1.3666-.04865s-2.4716.01764-2.7223.04865c-.50689.06258-.90676.40854-.4593.97027.13429.16861.83698.07632.88231.55022.06527.68504.06715 2.5753.06715 2.5753-.04552.72533-1.0063.93944-2.0834.98067-1.9617-.02563-2.6605 1.241-2.5262 3.3602l-.01599 12.082c0 .80871.65661 1.4653 1.4654 1.4653h9.4291c.80877 0 1.4654-.65663 1.4654-1.4653v-10.644c0-.80871-.01599-1.4382-.01599-1.4382z" style="clip-rule:evenodd;fill-rule:evenodd;stroke-linejoin:round;stroke-miterlimit:2;stroke-width:.18689"/>
  <path id="path10-1-9-9" d="m46.099 94.025c.17271.67416.37542 1.3778.42574 1.4282.0687.0687 2.4862.04548 2.4862.05539 0 0 .18989-.77165.336-1.4927-.40566-.01451-.90445-.0225-.90445-.0225s-1.5825.01137-2.3435.03169z" style="clip-rule:evenodd;fill-rule:evenodd;fill:#2e2e2e;stroke-linejoin:round;stroke-miterlimit:2;stroke-width:.2419"/>
  <path id="path12-9-6-3" d="m49.099 101.27c.40711.56555 1.1098.49468 1.4857.9642.50798.63522.39091 1.6776.39091 2.4499 0 2.5762.16957 9.0769.28665 9.7216.03096.17078.88026.2402 1.1246.0774.3776-.25181.72835-8.8906.46517-11.258-.1149-1.036-.12772-2.2704-1.1466-2.9712-.90518-.62264-3.1684.23537-2.6064 1.0164z" style="clip-rule:evenodd;fill-rule:evenodd;fill:#b3b3b3;stroke-linejoin:round;stroke-miterlimit:2;stroke-width:.2419"/>
  <path id="path2" d="m9.0028 98.061c-.17251.30533-1.3951-.10874-2.0069.50297-.13679.13679.1188 7.3239.1188 8.2225 0 3.769.08202 8.5863.36804 8.5863.23416 0 .05953-.0619.37253-.0619 0 0 .33946-1.1089 10.641-1.0565.2286.001.47969-.0931.68236.0109 1.1406.58499 2.3987.62098 4.34-.0598.322-.11298.68342-.0241 1.0321.003 2.1257.16748 4.4453 1.2097 7.3451 1.2245.9308 0 1.9341.5932 2.5371.5932v-1.7172c0-1.0758.12277-2.0989.12277-3.1893 0-1.8185.30321-10.975 1.1038-11.775.06376-.06377-2.3199-.07117-1.4322-.05001z" style="clip-rule:evenodd;fill-rule:evenodd;stroke-linejoin:round;stroke-miterlimit:2;stroke-width:.26458"/>
  <path id="path22" d="m8.4759 97.307c.35137-.13864.044715 2.0804 0 2.7509-.099748 1.4933.38629 6.2741-.16325 9.6991-.32411 2.0209-.00476 1.5476-.14446 3.4298.12065.48207-.17489 1.3764.30771 1.4211.33046.0307 1.3721-.0288 1.8563-.22173 3.2353-1.2896 9.9142-2.258 10.457-.4318l.82047-.26722c.45376-.41963 1.8053-.4879 3.325-.27755 2.5654.35507 6.6458 1.4475 6.7286 1.3647.23998-.23998 1.2599-.9607 1.2121-.91281l.0026.0667c0-3.5327.49212-8.3558.99774-11.894.15981-1.1195.36777-5.0289.36777-5.0289s-5.8259-.6649-9.3274-.21511c-1.5113.1942-2.9385 2.0548-2.9385 2.0548.12859-1.4941-4.49-2.2368-8.2547-2.5934-2.5657-.24315-5.2472 1.0554-5.2472 1.0554z" style="clip-rule:evenodd;fill-rule:evenodd;fill:#cccccc;stroke-linejoin:round;stroke-miterlimit:2;stroke-width:.26458"/>
  <path id="path28" d="m30.892 113.48c-.19156-.27834-.59293-.5506-1.1356-.78052-.73554-.31168-1.7396-.56542-2.7488-.72602-1.1811-.18785-2.3691-.24765-3.1422-.13573-.38788.0561-.6821.16219-.85302.29845-.127.10081-.1479.28575-.04683.41249.10081.12673.28575.1479.41248.0468.15954-.127.48286-.18124.89588-.21061.71755-.0513 1.6817.0159 2.6413.16854.95858.15266 1.9132.39052 2.612.68659.41354.17542.73475.36036.88053.57256.09181.13361.2749.16748.40852.0757.13335-.0918.16722-.27464.07567-.40825zm-10.619-1.7121c-.3556-.38576-.88053-.86598-1.4621-1.1044-1.1208-.45932-2.6461-.10028-3.3491-.0341-1.8846.17727-4.0841.58605-5.3919 1.1284-.63712.26432-1.0713.58023-1.2279.8935-.0725.14499-.01349.32146.13123.39396.14499.0725.32147.0138.39396-.13123.11483-.2294.46117-.42016.92763-.61384 1.2666-.52519 3.3972-.9144 5.2221-1.0861.64479-.0609 2.0436-.42836 3.0713-.007.97023.3974 1.6187 1.4282 1.7476 1.5542.15214.14843.30268.0926.35613.0661.07064-.0347.15214-.0992.16536-.24183.03757-.39846.29792-.68606.6903-.89799.69824-.37677 1.7836-.51515 2.9874-.5006 2.1654.0262 4.7098.56357 6.1717 1.2629.29607.14155.54584.28892.73448.44106.15214.12277.26326.24209.30665.36804.05292.15292.2204.23442.37359.1815.15319-.0532.23442-.2204.1815-.37359-.13335-.3855-.61066-.79666-1.3428-1.1467-1.5206-.72734-4.1659-1.293-6.418-1.3203-1.3205-.0161-2.5075.15769-3.2734.57097-.14949.0807-.2839.17013-.40243.26882.09869-2.1767 1.12-8.9964 1.3605-10.398.01667-.0976.03334-.18363.03863-.21008.0093-.0275.01482-.0571.01535-.0878.0037-.16193-.12515-.29634-.28707-.30004-.04524-.001-.20823-.002-.28231.19129-.0074.0196-.03254.12621-.0635.30718-.25506 1.4872-1.3764 9.0154-1.3764 10.793 0 .0111.00053.022.0016.0328zm-9.2644 1.5084c.06429-.0344.23548-.12303.40111-.18283 1.0229-.36962 3.2337-.8292 4.8797-.89667.66384-.027 1.2311.003 1.57.14764.14896.0635.32173-.006.38523-.15478.0635-.14923-.0058-.32174-.15505-.38524-.39423-.16827-1.052-.22595-1.8243-.1942-1.7052.0699-3.9955.54795-5.0554.9308-.31168.11272-.52811.22781-.62548.3175-.13573.12489-.15505.25877-.13441.36222.03202.15875.18706.26194.34581.22992.09895-.0198.17648-.0876.21272-.17436zm11.136-12.291c-.01932.0124-.04022.0225-.06218.0302-.02196.007-.04524.0124-.06906.0145.0418-.003.08625-.0156.13123-.0447z" style="clip-rule:evenodd;fill-rule:evenodd;stroke-linejoin:round;stroke-miterlimit:2;stroke-width:.26458"/>
  <path id="path2-5" d="m61.915 98.061c-.17251.30533-1.3951-.10874-2.0069.50297-.13679.13679.1188 7.3239.1188 8.2225 0 3.769.08202 8.5863.36804 8.5863.23416 0 .05953-.0619.37253-.0619 0 0 .33946-1.1089 10.641-1.0565.2286.001.47969-.0931.68236.0109 1.1406.58499 2.3987.62098 4.34-.0598.322-.11298.68342-.0241 1.0321.003 2.1257.16748 4.4453 1.2097 7.3451 1.2245.9308 0 1.9341.5932 2.5371.5932v-1.7172c0-1.0758.12277-2.0989.12277-3.1893 0-1.8185.30321-10.975 1.1038-11.775.06376-.06377-2.3199-.07117-1.4322-.05001z" style="clip-rule:evenodd;fill-rule:evenodd;stroke-linejoin:round;stroke-miterlimit:2;stroke-width:.26458"/>
  <path id="path22-11" d="m61.388 97.307c.35137-.13864.04472 2.0804 0 2.7509-.09975 1.4933.38629 6.2741-.16325 9.6991-.32412 2.0209-.0048 1.5476-.14446 3.4298.12065.48207-.17489 1.3764.30771 1.4211.33046.0307 1.3721-.0288 1.8563-.22173 3.2353-1.2896 9.9142-2.258 10.457-.4318l.82047-.26722c.45376-.41963 1.8053-.4879 3.325-.27755 2.5654.35507 6.6458 1.4475 6.7286 1.3647.23998-.23998 1.2599-.9607 1.2121-.91281l.0026.0667c0-3.5327.49212-8.3558.99774-11.894.15981-1.1195.36777-5.0289.36777-5.0289s-5.8259-.6649-9.3274-.21511c-1.5113.1942-2.9385 2.0548-2.9385 2.0548.12859-1.4941-4.49-2.2368-8.2547-2.5934-2.5657-.24315-5.2472 1.0554-5.2472 1.0554z" style="clip-rule:evenodd;fill-rule:evenodd;fill:#cccccc;stroke-linejoin:round;stroke-miterlimit:2;stroke-width:.26458"/>
  <path id="path28-7" d="m83.804 113.48c-.19156-.27834-.59293-.5506-1.1356-.78052-.73554-.31168-1.7396-.56542-2.7488-.72602-1.1811-.18785-2.3691-.24765-3.1422-.13573-.38788.0561-.6821.16219-.85302.29845-.127.10081-.1479.28575-.04683.41249.10081.12673.28575.1479.41248.0468.15954-.127.48286-.18124.89588-.21061.71755-.0513 1.6817.0159 2.6413.16854.95858.15266 1.9132.39052 2.612.68659.41354.17542.73475.36036.88053.57256.09181.13361.2749.16748.40852.0757.13335-.0918.16722-.27464.07567-.40825zm-10.619-1.7121c-.3556-.38576-.88053-.86598-1.4621-1.1044-1.1208-.45932-2.6461-.10028-3.3491-.0341-1.8846.17727-4.0841.58605-5.3919 1.1284-.63712.26432-1.0713.58023-1.2279.8935-.0725.14499-.01349.32146.13123.39396.14499.0725.32147.0138.39396-.13123.11483-.2294.46117-.42016.92763-.61384 1.2666-.52519 3.3972-.9144 5.2221-1.0861.64479-.0609 2.0436-.42836 3.0713-.007.97023.3974 1.6187 1.4282 1.7476 1.5542.15214.14843.30268.0926.35613.0661.07064-.0347.15214-.0992.16536-.24183.03757-.39846.29792-.68606.6903-.89799.69824-.37677 1.7836-.51515 2.9874-.5006 2.1654.0262 4.7098.56357 6.1717 1.2629.29607.14155.54584.28892.73448.44106.15214.12277.26326.24209.30665.36804.05292.15292.2204.23442.37359.1815.15319-.0532.23442-.2204.1815-.37359-.13335-.3855-.61066-.79666-1.3428-1.1467-1.5206-.72734-4.1659-1.293-6.418-1.3203-1.3205-.0161-2.5075.15769-3.2734.57097-.14949.0807-.2839.17013-.40243.26882.09869-2.1767 1.12-8.9964 1.3605-10.398.01667-.0976.03334-.18363.03863-.21008.0093-.0275.01482-.0571.01535-.0878.0037-.16193-.12515-.29634-.28707-.30004-.04524-.001-.20823-.002-.28231.19129-.0074.0196-.03254.12621-.0635.30718-.25506 1.4872-1.3764 9.0154-1.3764 10.793 0 .0111.00053.022.0016.0328zm-9.2644 1.5084c.06429-.0344.23548-.12303.40111-.18283 1.0229-.36962 3.2337-.8292 4.8797-.89667.66384-.027 1.2311.003 1.57.14764.14896.0635.32173-.006.38523-.15478.0635-.14923-.0058-.32174-.15505-.38524-.39423-.16827-1.052-.22595-1.8243-.1942-1.7052.0699-3.9955.54795-5.0554.9308-.31168.11272-.52811.22781-.62548.3175-.13573.12489-.15505.25877-.13441.36222.03202.15875.18706.26194.34581.22992.09895-.0198.17648-.0876.21272-.17436zm11.136-12.291c-.01932.0124-.04022.0225-.06218.0302-.02196.007-.04524.0124-.06906.0145.0418-.003.08625-.0156.13123-.0447z" style="clip-rule:evenodd;fill-rule:evenodd;stroke-linejoin:round;stroke-miterlimit:2;stroke-width:.26458"/>
 </g>
</svg>
