<?xml version="1.0" encoding="UTF-8"?>
<svg id="svg1069" width="91.201mm" height="92.515mm" version="1.1" viewBox="0 0 91.201 92.515" xmlns="http://www.w3.org/2000/svg" xmlns:cc="http://creativecommons.org/ns#" xmlns:dc="http://purl.org/dc/elements/1.1/" xmlns:rdf="http://www.w3.org/1999/02/22-rdf-syntax-ns#" xmlns:vectornator="http://vectornator.io">
 <metadata id="metadata1066">
  <rdf:RDF>
   <cc:Work rdf:about="">
    <dc:format>image/svg+xml</dc:format>
    <dc:type rdf:resource="http://purl.org/dc/dcmitype/StillImage"/>
   </cc:Work>
  </rdf:RDF>
 </metadata>
 <g id="layer1" transform="translate(-41.334 -27.826)">
  <g id="레이어-1" transform="matrix(.26458 0 0 .26458 -128.29 -52.509)" style="clip-rule:evenodd;stroke-linecap:round;stroke-linejoin:round" vectornator:layerName="레이어 1">
   <g id="g894">
    <g id="g886">
     <path id="path864" d="m650.06 443.09c17.139 8.586 68.131 1.624 85.457 0 44.4-4.162 88.681-5.006 133.53-5.006 23.078 0 49.683 2.951 72.104-1.252 25.303-4.743 46.646-13.01 41.393-42.555-5.108-28.729-38.215-56.71-64.093-68.839-72.572-34.013-174.96-21.78-236.34 27.536-19.704 15.831-31.042 41.605-36.052 65.084-1.249 5.854-6.552 19.743 4.006 25.032z" fill="#f6851f" fill-rule="evenodd" stroke="#000000" stroke-linecap="round" stroke-linejoin="round" stroke-width="5"/>
     <path id="path1651" d="m812.89 321.86c-10.259 3.3515 8.4155 11.523 3.6537 2.81-.84805-1.3189-2.321-2.0691-3.6537-2.81zm31.484 10.357c-12.266 2.254 8.524 16.373 4.6575 4.2161-.93128-1.8858-2.3464-3.9934-4.6575-4.2161zm-97.531 1.7891c-11.042 2.2551 6.0234 10.231.77223.82533-.25738-.27511-.51481-.55022-.77223-.82533zm47.875.87889c-11.812-3.7102-2.516 19.754 1.8824 7.9793.60177-2.5432 1.7762-7.2106-1.8824-7.9793zm99.866 2.6523c-7.6732 10.422 16.205 6.0219 4.0093.45585-1.3284-.23127-2.6654-.3591-4.0093-.45585zm-172.3 16.793c-11.645-.5859-2.8175 22.137 3.2136 10.751 1.6455-3.3716 2.8413-11.537-3.2136-10.751zm199.7 4.4179c-11.495 4.4409 7.7487 14.002 7.443 3.9088-1.9844-2.0653-4.7214-3.192-7.443-3.9088zm-45.921 1.7676c-12.786 4.1246 11.519 14.883 5.2921 3.7161-1.1506-1.9251-3.2311-3.0217-5.2921-3.7161zm46.654 3.2324c.7997.24647.5945.18323 0 0zm-163.93.2871c-9.7897.0246-4.3434 19.482 2.9952 13.301 2.5617-4.0626 1.9945-11.35-2.9952-13.301zm60.299 1.3398c-12.458 3.2792 7.0541 19.049 6.0359 6.4588-.52482-3.053-2.527-6.483-6.0359-6.4588z" style="-inkscape-stroke:none;color:#000000;fill-rule:evenodd;fill:#f6cb1f;stroke-linecap:round;stroke-linejoin:round;stroke-width:.99999"/>
    </g>
    <g id="g892" fill-rule="evenodd">
     <path id="path888" d="m650.75 565.06c-1.955 29.999 41.556 63.504 61.422 71.968 59.551 25.373 137.06 10.111 197.62-2.503 26.404-5.5 63.225-21.404 68.098-48.813 6.768-38.065-27.336-59.839-61.422-63.833-65.711-7.699-136.74-3.402-201.62 8.761-10.688 2.004-62.662 12.468-64.092 34.42z" fill="#f6851f" stroke="#000000" stroke-linecap="round" stroke-linejoin="round" stroke-width="5"/>
     <path id="path890" d="m696.08 544.06c21.84-7.417 43.025-9.577 58.514-11.126 38.879-3.888 100.04-9.487 139.28-5.357 12.97 1.366 25.037 2.733 37.499 7.006 14.422 4.944 33.378 11.95 24.724 30.081-9.946 20.839-35.85 29.669-60.162 32.554-24.313 2.884-55.612 6.892-85.3 7.829-39.147 1.236-59.75 4.533-99.309-1.236-20.078-2.928-55.218-21.016-47.389-37.499 7.83-16.483 21.673-18.696 32.142-22.252z" fill="#f0a45f"/>
    </g>
   </g>
  </g>
 </g>
</svg>
