<?xml version="1.0" encoding="UTF-8" standalone="no"?>
<svg
   sodipodi:docname="2022-PH-03-field01.svg"
   inkscape:version="1.1.1 (3bf5ae0d25, 2021-09-20)"
   id="svg5450"
   version="1.1"
   viewBox="0 0 29.170293 25.04745"
   height="25.047449mm"
   width="29.170294mm"
   xmlns:inkscape="http://www.inkscape.org/namespaces/inkscape"
   xmlns:sodipodi="http://sodipodi.sourceforge.net/DTD/sodipodi-0.dtd"
   xmlns="http://www.w3.org/2000/svg"
   xmlns:svg="http://www.w3.org/2000/svg"
   xmlns:rdf="http://www.w3.org/1999/02/22-rdf-syntax-ns#"
   xmlns:cc="http://creativecommons.org/ns#"
   xmlns:dc="http://purl.org/dc/elements/1.1/">
  <defs
     id="defs5444" />
  <sodipodi:namedview
     showgrid="false"
     inkscape:document-rotation="0"
     inkscape:current-layer="layer1"
     inkscape:document-units="mm"
     inkscape:cy="332.85714"
     inkscape:cx="398.57143"
     inkscape:zoom="0.35"
     inkscape:pageshadow="2"
     inkscape:pageopacity="0.0"
     borderopacity="1.0"
     bordercolor="#666666"
     pagecolor="#ffffff"
     id="base"
     inkscape:pagecheckerboard="0"
     inkscape:window-width="1680"
     inkscape:window-height="1027"
     inkscape:window-x="2040"
     inkscape:window-y="22"
     inkscape:window-maximized="1" />
  <metadata
     id="metadata5447">
    <rdf:RDF>
      <cc:Work
         rdf:about="">
        <dc:format>image/svg+xml</dc:format>
        <dc:type
           rdf:resource="http://purl.org/dc/dcmitype/StillImage" />
      </cc:Work>
    </rdf:RDF>
  </metadata>
  <g
     transform="translate(-90.156481,-135.90135)"
     id="layer1"
     inkscape:groupmode="layer"
     inkscape:label="Ebene 1">
    <g
       style="clip-rule:evenodd;fill-rule:evenodd;stroke-linecap:round;stroke-linejoin:round;stroke-miterlimit:1.5"
       transform="matrix(0.42640515,0,0,0.43985392,65.584389,-232.31014)"
       id="g1666" />
    <g
       aria-label="s"
       id="text1668"
       style="font-size:37.2793px;font-family:ArialMT, Arial, sans-serif;clip-rule:evenodd;fill:#0a6415;fill-rule:evenodd;stroke-width:0.264583;stroke-linecap:round;stroke-linejoin:round;stroke-miterlimit:1.5">
      <path
         d="m 96.972573,152.3954 3.240097,-0.50968 q 0.27304,1.9477 1.51083,2.98526 1.25599,1.03755 3.49493,1.03755 2.25715,0 3.34932,-0.91013 1.09216,-0.92835 1.09216,-2.16614 0,-1.11037 -0.96474,-1.74746 -0.67351,-0.43687 -3.34932,-1.11037 -3.60415,-0.91014 -5.00576,-1.56544 -1.383413,-0.67351 -2.111525,-1.83848 -0.709908,-1.18318 -0.709908,-2.603 0,-1.2924 0.582489,-2.38457 0.600692,-1.11037 1.620048,-1.83848 0.764516,-0.56428 2.075116,-0.94654 1.3288,-0.40046 2.83964,-0.40046 2.27534,0 3.9864,0.6553 1.72927,0.6553 2.54839,1.78387 0.81913,1.11037 1.12858,2.98526 l -3.20369,0.43686 q -0.21844,-1.49262 -1.2742,-2.32995 -1.03756,-0.83733 -2.94885,-0.83733 -2.25714,0 -3.22189,0.74631 -0.96475,0.74632 -0.96475,1.74747 0,0.6371 0.40046,1.14678 0.40046,0.52788 1.25599,0.87373 0.49148,0.18203 2.89425,0.83733 3.47673,0.92834 4.84194,1.52903 1.38341,0.58249 2.16613,1.71106 0.78272,1.12858 0.78272,2.80323 0,1.63825 -0.96475,3.09447 -0.94654,1.43802 -2.74862,2.23895 -1.80207,0.78272 -4.07742,0.78272 -3.76798,0 -5.752082,-1.56544 -1.965901,-1.56544 -2.511985,-4.64171 z"
         style="font-size:37.2793px;font-family:ArialMT, Arial, sans-serif;clip-rule:evenodd;fill:#0a6415;fill-rule:evenodd;stroke-width:0.264583;stroke-linecap:round;stroke-linejoin:round;stroke-miterlimit:1.5"
         id="path843" />
    </g>
  </g>
</svg>
