<?xml version="1.0" encoding="UTF-8" standalone="no"?>
<!-- Created with Inkscape (http://www.inkscape.org/) -->

<svg
   width="148.11066mm"
   height="145.1497mm"
   viewBox="0 0 148.11066 145.1497"
   version="1.1"
   id="svg3471"
   sodipodi:docname="2022-LV-03-answerB.svg"
   inkscape:version="1.1.1 (3bf5ae0d25, 2021-09-20)"
   xmlns:inkscape="http://www.inkscape.org/namespaces/inkscape"
   xmlns:sodipodi="http://sodipodi.sourceforge.net/DTD/sodipodi-0.dtd"
   xmlns="http://www.w3.org/2000/svg"
   xmlns:svg="http://www.w3.org/2000/svg">
  <sodipodi:namedview
     id="namedview3473"
     pagecolor="#ffffff"
     bordercolor="#666666"
     borderopacity="1.0"
     inkscape:pageshadow="2"
     inkscape:pageopacity="0.0"
     inkscape:pagecheckerboard="0"
     inkscape:document-units="mm"
     showgrid="false"
     inkscape:zoom="0.46929649"
     inkscape:cx="711.70359"
     inkscape:cy="484.76816"
     inkscape:window-width="1920"
     inkscape:window-height="1137"
     inkscape:window-x="-8"
     inkscape:window-y="-8"
     inkscape:window-maximized="1"
     inkscape:current-layer="layer1" />
  <defs
     id="defs3468" />
  <g
     inkscape:label="Ebene 1"
     inkscape:groupmode="layer"
     id="layer1"
     transform="translate(-261.74,42.625197)">
    <g
       id="g4128"
       style="clip-rule:evenodd;fill-rule:evenodd;stroke-linecap:round;stroke-linejoin:round;stroke-miterlimit:1.5"
       transform="matrix(0.26458333,0,0,0.26458333,-353.60154,-489.82756)">
      <g
         transform="matrix(0.839423,0,0,0.839423,1971.08,1369.97)"
         id="g516">
        <path
           d="m 1066.15,392.719 -631.049,12.764 c -0.417,221.909 -11.954,433.519 25.386,625.697 211.329,-4.18 430.269,-21.12 628.843,-3.93 -17.51,-198.357 -17.08,-420.835 -23.18,-634.531 z"
           style="fill:#b7b7b7"
           id="path514" />
      </g>
      <g
         transform="matrix(0.839423,0,0,0.839423,1963.15,1364.8)"
         id="g540">
        <path
           d="m 1066.15,392.719 -631.049,12.764 c -0.417,221.909 -11.954,433.519 25.386,625.697 l 622.453,-15.66 z"
           style="fill:#fff7d8;stroke:#000b7c;stroke-width:2.38px"
           id="path538" />
      </g>
      <path
         d="m 2638.82,1800.35 c 0.12,-8.73 -6.2,-16.47 -15.88,-21.03 -11.41,-5.38 -26.73,-6.3 -34.38,-2.33 -1.95,1.01 -3.72,2.39 -5.28,4.06 -2.55,2.73 -4.56,6.27 -6.49,9.07 -6.81,9.84 -11.67,20.78 -13.14,32.06 -1.5,11.41 0.32,23.17 7.02,34.5 6.99,11.8 18.01,18.49 30.11,20.03 11.37,1.45 23.69,-1.61 34.19,-9.34 6.75,-4.98 13.78,-13.36 16.79,-22.35 2.23,-6.63 2.38,-13.56 -0.88,-19.84 -1,-2 -3.43,-2.81 -5.43,-1.81 -2,1 -2.81,3.43 -1.81,5.43 2.6,5.41 1.28,11.38 -1.52,16.74 -3.04,5.82 -7.94,10.95 -12.61,14.18 -8.5,5.87 -18.3,8.13 -27.26,6.71 -8.86,-1.4 -16.83,-6.56 -21.7,-15.4 -4.96,-8.99 -6.12,-18.2 -4.68,-27.06 1.5,-9.28 5.89,-18.15 11.76,-26.11 1.48,-2 2.98,-4.52 4.8,-6.63 0.67,-0.78 1.4,-1.5 2.29,-1.92 4.14,-2 11.62,-0.83 18.13,1.57 3.1,1.15 5.98,2.69 8.16,4.59 1.47,1.28 2.65,2.69 2.58,4.44 -0.12,4.21 3.19,7.72 7.4,7.84 4.2,0.12 7.71,-3.19 7.83,-7.4 z"
         style="fill:#bd2626"
         id="path546" />
      <path
         d="m 2481.16,1939.9 0.02,-0.03 c 2.88,-3.62 3.32,-6.95 2.7,-9.75 -0.49,-2.24 -1.65,-4.4 -3.75,-6.19 -2.62,-2.24 -7.4,-4.15 -12.71,-5.12 -7.44,-1.36 -15.75,-1.26 -17.9,-0.71 -12.61,3.21 -20.58,9.49 -25.72,17.89 -4.75,7.76 -7.05,17.46 -8.09,28.42 -0.55,5.77 -1.26,14.5 0.85,21.2 1.27,4.01 3.41,7.42 6.7,9.7 24.26,16.75 46.2,9.93 57.08,-6.44 8.27,-12.45 10.19,-30.94 0.82,-48.97 z m -13.45,-5.59 c -1.6,-0.55 -3.67,-1.2 -5.29,-1.47 -4.21,-0.72 -8.38,-1.15 -9.6,-0.87 -8.49,1.87 -14.09,5.69 -17.71,11.19 -4,6.1 -5.82,13.89 -6.94,22.63 -0.43,3.36 -1.07,7.96 -0.79,12.31 0.19,3.03 0.49,6.09 2.67,7.7 17.43,12.88 33.77,9.24 42.15,-2.53 7.25,-10.19 8.64,-25.67 0.75,-40.99 -0.88,-0.28 -1.73,-0.73 -2.5,-1.36 -2.03,-1.67 -2.97,-4.17 -2.74,-6.61 z m 1.6,-4 0.1,-0.12 c -0.04,0.04 -0.07,0.08 -0.1,0.12 z"
         style="fill:#bd2626"
         id="path552" />
      <path
         d="m 2492.07,2065.17 c 1.71,-1.32 2.86,-3.36 2.97,-5.69 0.21,-6.26 -3.86,-11.77 -11.38,-14.75 -9.16,-3.62 -23.51,-3.59 -29.95,-0.91 -10.72,4.47 -21.69,19.97 -26.8,37.07 -5.25,17.58 -4.19,36.17 6.19,45.13 6.57,5.67 18.93,13.18 30.83,15.84 9.45,2.11 18.56,1.21 25.03,-4.62 10.04,-9.05 18.53,-27.65 18.34,-44.04 -0.13,-11.81 -4.54,-22.42 -15.23,-28.03 z m -12.24,-5.5 c -0.45,-0.33 -1.25,-0.87 -1.87,-1.14 -2.37,-1.01 -5.3,-1.67 -8.22,-1.99 -4.16,-0.46 -8.33,-0.45 -10.75,0.47 -8.07,3.1 -15.5,15.18 -19.66,27.79 -2.43,7.34 -3.73,14.96 -3,21.51 0.49,4.37 1.78,8.26 4.62,10.87 5.39,4.92 15.58,11.56 25.51,14.09 5.84,1.48 11.61,1.76 15.74,-1.75 8.58,-7.3 15.9,-22.69 16.14,-36.35 0.16,-8.82 -2.66,-17 -10.8,-21.22 -1.99,-0.99 -2.8,-3.41 -1.82,-5.4 -3.24,-0.74 -5.65,-3.53 -5.89,-6.88 z"
         style="fill:#bd2626"
         id="path558" />
      <path
         id="path568"
         style="fill:#000b7c"
         d="m 2476.1094,1765.918 c -2.7963,-0.1063 -5.9335,0.8775 -7.4785,5.0625 -0.61,1.67 -1.8307,5.2093 -3.4707,10.0293 -2.5569,7.5181 -6.2045,18.2633 -10.2657,29.83 -14.4567,-13.7549 -28.4649,-26.3673 -36.9746,-33.2207 -4.06,-3.27 -7.1697,-5.309 -8.7597,-6.039 -3.77,-1.75 -6.5104,-0.4896 -7.8204,0.2304 -3.63,2.14 -4.8392,6.8095 -2.6992,10.4395 1.13,1.92 2.97,3.1598 5,3.5898 1.38,0.87 5.1796,3.3302 8.5996,5.9102 9.6004,7.2366 23.8911,19.0086 38.25,31.4512 -4.6247,12.8135 -9.4862,25.6874 -13.83,35.7285 -3.63,8.4 -6.6207,14.7596 -8.8907,16.8496 -1.68,1.47 -1.8604,4.0309 -0.4004,5.7109 1.47,1.69 4.031,1.8704 5.711,0.4004 2.82,-2.3 7.1901,-9.3407 12.0801,-18.9707 4.5293,-8.9221 9.6372,-20.1598 14.6191,-31.5781 14.9355,13.2523 28.8926,26.3969 36.3613,34.9883 1.66,1.91 3.1591,4.0303 4.0391,5.3203 -0.32,0.57 -0.5,1.2294 -0.5,1.9394 0,2.23 1.8208,4.0411 4.0508,4.0411 2.24,0.06 3.5699,-0.9508 4.4199,-2.0508 0.97,-1.24 1.5399,-3.7201 -0.08,-7.0801 -2.57,-5.38 -12.4501,-16.8105 -25.1601,-29.9805 -5.6842,-5.8833 -11.9395,-12.1266 -18.3184,-18.3457 5.5991,-13.1522 10.7174,-25.6458 14.168,-34.0644 1.86,-4.51 3.2297,-7.8202 3.9297,-9.4102 1.76,-2.93 1.3696,-6.7886 -1.1504,-9.3086 -0.18,-0.17 -2.6335,-1.3664 -5.4297,-1.4726 z" />
      <path
         id="path580"
         style="fill:#000b7c"
         d="m 2777.0938,1761.498 c -1.2293,-0.041 -2.486,0.2153 -3.6641,0.8028 -1.73,0.93 -3.87,2.6083 -6,5.3183 -3.08,3.91 -6.8206,10.3516 -10.8106,18.3516 -3.2187,6.4662 -6.6714,14.0325 -10.1972,21.9805 -9.3535,-15.6219 -18.6208,-30.1024 -24.2324,-37.5313 -2.53,-3.34 -4.6802,-5.4498 -5.9102,-6.3398 -1.6,-1.15 -3.1002,-1.4401 -4.1602,-1.5801 -4.18,-0.41 -7.92,2.6498 -8.33,6.8398 -0.32,3.23 1.4301,6.1806 4.1601,7.5606 0.82,0.84 3.0016,3.1104 4.8516,5.4004 6.9642,8.6224 17.6093,23.5562 27.8457,38.8183 -9.4684,21.793 -18.912,44.0294 -25.5156,54.5801 -1.24,1.86 -0.7409,4.3813 1.1191,5.6113 1.86,1.24 4.3791,0.739 5.6191,-1.121 6.6324,-9.3548 16.2547,-28.4331 26.1153,-47.9629 7.3157,11.2548 13.8463,21.8801 17.8847,29.3828 1.78,3.32 3.2512,6.8702 3.7012,7.9902 -0.25,0.92 -0.1809,1.9413 0.2891,2.8613 0.99,2 3.4299,2.8086 5.4199,1.8086 1.09,-0.5 1.9309,-1.4404 2.3809,-2.9004 0.33,-1.06 0.2095,-3.44 -0.9805,-6.75 -2.63,-7.37 -10.5692,-22.5384 -19.8692,-38.8984 -0.9599,-1.686 -1.953,-3.3947 -2.9375,-5.0977 5.191,-10.1964 10.3104,-20.0572 14.9375,-28.1425 3.24,-5.67 6.2404,-10.4203 8.8204,-13.7403 0.93,-1.2 2.3785,-2.5393 2.7285,-2.8593 3.68,-1.92 5.1608,-6.45 3.3008,-10.17 -1.2925,-2.5918 -3.8622,-4.1216 -6.5664,-4.2129 z" />
      <path
         id="path592"
         style="fill:#000b7c"
         d="m 2641.9961,1911.2871 c -1.7068,-0.08 -3.4514,0.4112 -4.9258,1.5137 -2.09,1.68 -6.26,7.1999 -11.25,15.1699 -3.9646,6.3546 -8.7929,14.456 -13.8574,22.877 -0.842,-1.1895 -1.6931,-2.3662 -2.5527,-3.5274 -10.05,-13.59 -21.4804,-24.7598 -32.1504,-29.3398 -3.92,-1.52 -8.3394,0.4296 -9.8594,4.3496 -1.52,3.92 0.4394,8.3394 4.3594,9.8594 9.1,3.16 18.8409,12.1896 27.9609,22.8496 1.8939,2.2117 3.7548,4.4961 5.5762,6.8164 -4.697,7.6772 -9.4699,15.2773 -13.9766,21.9336 -4.39,6.49 -8.49,12.06 -12,15.83 -1.58,1.58 -1.58,4.1505 0,5.7305 1.58,1.58 4.1388,1.58 5.7188,0 4.02,-3.76 8.8204,-9.3692 13.9804,-15.9492 4.3017,-5.4899 8.8541,-11.6864 13.3926,-18.0137 8.8185,12.4056 16.0355,24.7665 19.9277,32.7442 0.9,2.04 3.2999,2.9588 5.3399,2.0488 2.04,-0.9 2.9608,-3.2999 2.0508,-5.3399 -3.7551,-9.3313 -11.2136,-24.3368 -20.4864,-39.0664 6.7215,-9.5538 13.1111,-18.8176 18.2657,-25.9238 4.08,-5.6 7.0909,-9.7296 8.7109,-10.8496 3.36,-2.53 4.0395,-7.3099 1.5195,-10.6699 -1.4175,-1.8956 -3.5496,-2.9404 -5.7441,-3.043 z" />
      <path
         id="path604"
         style="fill:#000b7c"
         d="m 2640.9395,2035.123 c -1.9788,-0.055 -4.2409,0.7133 -6.459,3.2071 -1.44,1.61 -4.1012,5.5308 -7.4512,11.1308 -4.7005,7.8534 -11.2699,19.5436 -18.2207,31.9356 -6.5693,-8.1814 -12.9924,-16.041 -18.6191,-22.627 -7.54,-8.82 -13.8404,-15.4386 -17.4004,-18.1386 -2.67,-2.02 -5.0182,-2.5309 -6.4082,-2.6309 -4.2,-0.17 -7.7617,3.1005 -7.9317,7.3105 -0.15,3.57 2.2,6.679 5.5,7.629 0.81,0.6 3.1699,2.3997 5.1699,4.2597 7.03,6.55 17.4312,17.7112 28.4512,29.9512 1.622,1.8013 3.2686,3.6526 4.9082,5.4883 -8.0556,14.3426 -16.3266,28.9704 -23.1289,40.2011 -5.85,9.67 -10.2888,16.7909 -12.5488,18.3809 -1.86,1.24 -2.3611,3.7594 -1.1211,5.6094 1.24,1.86 3.7494,2.3708 5.6094,1.1308 2.69,-1.69 8.6309,-9.3007 15.9609,-20.0507 6.8793,-10.1034 15.1982,-23.1073 23.4219,-36.0547 18.2966,20.6896 35.4032,40.58 39.3281,44.2949 1.58,1.58 4.1507,1.58 5.7207,0 1.58,-1.58 1.58,-4.1407 0,-5.7207 -3.8405,-4.0634 -20.8505,-26.2206 -38.6348,-48.6485 8.5029,-13.4233 16.5627,-26.1614 22.2032,-34.5312 2.18,-3.22 4.6311,-6.4401 5.7011,-7.8301 0.53,-0.31 1.0305,-0.7001 1.4805,-1.1601 2.98,-2.97 2.98,-7.7996 0,-10.7696 -0.9112,-0.8662 -2.9871,-2.2967 -5.5312,-2.3672 z" />
      <path
         id="path624"
         style="fill:#000b7c"
         d="m 2780.7695,2033.5703 c -3.86,0 -7.0488,2.8699 -7.5488,6.5899 -0.24,0.72 -0.8913,2.6904 -1.6113,4.4804 -2.9162,7.2677 -8.5123,19.7251 -15.0274,33.3008 -8.4504,-10.9479 -16.7156,-21.2969 -22.4121,-27.5019 -3.3,-3.59 -6.0707,-5.909 -7.7207,-6.879 -1.37,-0.81 -2.6086,-1.0709 -3.5586,-1.2109 -4.18,-0.5 -7.9804,2.4802 -8.4804,6.6602 -0.43,3.63 1.7693,6.9811 5.1093,8.1211 1.2,1.03 6.3312,5.4585 10.4512,9.7285 6.1028,6.3188 13.5071,14.5086 20.8691,22.8359 -1.7148,3.4501 -3.4465,6.8982 -5.1894,10.2852 -8.8,17.11 -17.4807,32.629 -22.7207,38.209 -1.58,1.58 -1.58,4.1407 0,5.7207 1.58,1.58 4.1407,1.58 5.7207,0 6.5811,-6.1757 18.7114,-25.1203 30.3027,-44.9493 7.3368,8.4254 14.2288,16.4584 18.8965,21.9297 2.85,3.35 4.9302,5.7997 5.9102,6.9297 2.86,3.3 5.2604,1.9196 6.4804,-0.1504 0.86,-0.71 1.3207,-1.7296 0.8907,-3.0996 -0.02,-0.37 -0.1018,-0.6901 -0.2618,-0.9101 -0.15,-0.22 -0.32,-0.4194 -0.5,-0.6094 -0.08,-0.12 -0.16,-0.2413 -0.25,-0.3613 -0.9,-1.19 -2.7791,-3.7596 -5.3691,-7.2696 -4.8481,-6.5769 -12.1387,-16.419 -19.9062,-26.6758 9.1187,-16.0817 17.159,-31.3526 20.8457,-39.2539 2.02,-4.34 2.6711,-7.3807 2.7011,-8.3007 0,-4.2 -3.4211,-7.6192 -7.6211,-7.6192 z" />
      <g
         transform="matrix(-0.87326,0.0350914,0.0345064,0.858702,3215.87,1315.38)"
         id="g818">
        <path
           d="m 630.797,482.37 c 0,33.737 4.184,128.288 5.457,162.001 1.624,43.047 0.484,86.23 2.809,129.249 1.26,23.296 6.777,154.703 1.001,172.031"
           style="fill:none;stroke:#000000;stroke-width:11.54px"
           id="path816" />
      </g>
      <g
         transform="matrix(-0.0402373,-0.858453,-0.873015,0.0407268,3248.68,2411.6)"
         id="g842">
        <path
           d="m 630.797,482.37 c 0,33.737 4.184,128.288 5.457,162.001 1.624,43.047 0.484,86.23 2.809,129.249 1.26,23.296 6.777,154.703 1.001,172.031"
           style="fill:none;stroke:#000000;stroke-width:11.54px"
           id="path840" />
      </g>
      <g
         transform="matrix(-0.0221633,-0.859112,-0.87366,0.0229539,3231.77,2554.07)"
         id="g866">
        <path
           d="m 630.797,482.37 c 0,33.737 4.184,128.288 5.457,162.001 1.624,43.047 0.484,86.23 2.809,129.249 1.26,23.296 6.777,154.703 1.001,172.031"
           style="fill:none;stroke:#000000;stroke-width:11.54px"
           id="path864" />
      </g>
      <g
         transform="matrix(-0.87326,0.0350914,0.0345064,0.858702,3065.23,1321.22)"
         id="g890">
        <path
           d="m 630.797,482.37 c 0,33.737 4.184,128.288 5.457,162.001 1.624,43.047 0.484,86.23 2.809,129.249 1.26,23.296 6.777,154.703 1.001,172.031"
           style="fill:none;stroke:#000000;stroke-width:11.54px"
           id="path888" />
      </g>
    </g>
  </g>
</svg>
