<?xml version="1.0" encoding="UTF-8" standalone="no"?>
<!-- Created with Inkscape (http://www.inkscape.org/) -->

<svg
   width="62.601238mm"
   height="44.687092mm"
   viewBox="0 0 62.601238 44.687092"
   version="1.1"
   id="svg40796"
   inkscape:version="1.1.1 (3bf5ae0d25, 2021-09-20)"
   sodipodi:docname="2022-DE-07-explanation3.svg"
   xmlns:inkscape="http://www.inkscape.org/namespaces/inkscape"
   xmlns:sodipodi="http://sodipodi.sourceforge.net/DTD/sodipodi-0.dtd"
   xmlns="http://www.w3.org/2000/svg"
   xmlns:svg="http://www.w3.org/2000/svg">
  <sodipodi:namedview
     id="namedview40798"
     pagecolor="#ffffff"
     bordercolor="#666666"
     borderopacity="1.0"
     inkscape:pageshadow="2"
     inkscape:pageopacity="0.0"
     inkscape:pagecheckerboard="0"
     inkscape:document-units="mm"
     showgrid="false"
     inkscape:zoom="0.66368547"
     inkscape:cx="-241.07805"
     inkscape:cy="437.70734"
     inkscape:window-width="1680"
     inkscape:window-height="1027"
     inkscape:window-x="1912"
     inkscape:window-y="-8"
     inkscape:window-maximized="1"
     inkscape:current-layer="layer1" />
  <defs
     id="defs40793" />
  <g
     inkscape:label="Ebene 1"
     inkscape:groupmode="layer"
     id="layer1"
     transform="translate(-148.22745,-32.671216)">
    <g
       transform="matrix(0.26458333,0,0,0.26458333,-35.44284,-250.46598)"
       id="g54"
       style="clip-rule:evenodd;fill-rule:evenodd;stroke-linejoin:round;stroke-miterlimit:2">
      <g
         transform="matrix(0.582346,0,0,0.582346,510.37932,860.23572)"
         id="g48">
        <path
           d="m 702.963,360.42 v 2.378 c 0,3.041 -2.469,5.51 -5.51,5.51 h -35.212 c -3.041,0 -5.51,-2.469 -5.51,-5.51 v -2.378 h -11.266 v 21.128 c 0,8.604 -6.986,15.59 -15.59,15.59 H 408.144 c -8.604,0 -15.59,-6.986 -15.59,-15.59 V 360.42 h -10.988 v 0.424 c 0,3.041 -2.469,5.51 -5.511,5.51 h -35.211 c -3.041,0 -5.511,-2.469 -5.511,-5.51 v -0.424 h -19.7 v 290.027 h 19.7 v -14.35 c 0,-3.041 2.47,-5.511 5.511,-5.511 h 35.211 c 3.042,0 5.511,2.47 5.511,5.511 v 14.35 h 10.988 v -15.325 c 0,-8.604 6.986,-15.59 15.59,-15.59 h 221.731 c 8.604,0 15.59,6.986 15.59,15.59 v 15.325 h 11.266 v -12.396 c 0,-3.042 2.469,-5.511 5.51,-5.511 h 35.212 c 3.041,0 5.51,2.469 5.51,5.511 v 12.396 h 18.963 V 360.42 Z m 0,227.692 c 0,-3.042 -2.469,-5.511 -5.51,-5.511 h -35.212 c -3.041,0 -5.51,2.469 -5.51,5.511 v 24.38 c 0,3.042 2.469,5.511 5.51,5.511 h 35.212 c 3.041,0 5.51,-2.469 5.51,-5.511 z m -321.397,-1.954 c 0,-3.041 -2.469,-5.51 -5.511,-5.51 h -35.211 c -3.041,0 -5.511,2.469 -5.511,5.51 v 24.381 c 0,3.041 2.47,5.51 5.511,5.51 h 35.211 c 3.042,0 5.511,-2.469 5.511,-5.51 z m 263.899,-157.73 c 0,-8.605 -6.986,-15.59 -15.59,-15.59 H 408.144 c -8.604,0 -15.59,6.985 -15.59,15.59 v 159.814 c 0,8.605 6.986,15.59 15.59,15.59 h 221.731 c 8.604,0 15.59,-6.985 15.59,-15.59 z m 57.498,109.745 c 0,-3.042 -2.469,-5.511 -5.51,-5.511 h -35.212 c -3.041,0 -5.51,2.469 -5.51,5.511 v 24.38 c 0,3.042 2.469,5.511 5.51,5.511 h 35.212 c 3.041,0 5.51,-2.469 5.51,-5.511 z m -321.397,-1.954 c 0,-3.041 -2.469,-5.51 -5.511,-5.51 h -35.211 c -3.041,0 -5.511,2.469 -5.511,5.51 V 560.6 c 0,3.041 2.47,5.51 5.511,5.51 h 35.211 c 3.042,0 5.511,-2.469 5.511,-5.51 z m 321.397,-47.985 c 0,-3.041 -2.469,-5.511 -5.51,-5.511 h -35.212 c -3.041,0 -5.51,2.47 -5.51,5.511 v 24.381 c 0,3.041 2.469,5.51 5.51,5.51 h 35.212 c 3.041,0 5.51,-2.469 5.51,-5.51 z M 381.566,486.28 c 0,-3.041 -2.469,-5.51 -5.511,-5.51 h -35.211 c -3.041,0 -5.511,2.469 -5.511,5.51 v 24.381 c 0,3.041 2.47,5.51 5.511,5.51 h 35.211 c 3.042,0 5.511,-2.469 5.511,-5.51 z m 321.397,-47.985 c 0,-3.041 -2.469,-5.51 -5.51,-5.51 h -35.212 c -3.041,0 -5.51,2.469 -5.51,5.51 v 24.381 c 0,3.041 2.469,5.51 5.51,5.51 h 35.212 c 3.041,0 5.51,-2.469 5.51,-5.51 z m -321.397,-1.954 c 0,-3.041 -2.469,-5.51 -5.511,-5.51 h -35.211 c -3.041,0 -5.511,2.469 -5.511,5.51 v 24.381 c 0,3.041 2.47,5.51 5.511,5.51 h 35.211 c 3.042,0 5.511,-2.469 5.511,-5.51 z m 321.397,-47.985 c 0,-3.041 -2.469,-5.51 -5.51,-5.51 h -35.212 c -3.041,0 -5.51,2.469 -5.51,5.51 v 24.381 c 0,3.041 2.469,5.51 5.51,5.51 h 35.212 c 3.041,0 5.51,-2.469 5.51,-5.51 z m -321.397,-1.954 c 0,-3.041 -2.469,-5.51 -5.511,-5.51 h -35.211 c -3.041,0 -5.511,2.469 -5.511,5.51 v 24.381 c 0,3.041 2.47,5.51 5.511,5.51 h 35.211 c 3.042,0 5.511,-2.469 5.511,-5.51 z"
           id="path46" />
      </g>
      <g
         transform="translate(318.338,-69.4516)"
         id="g52">
        <g
           aria-label="3"
           id="text50"
           style="font-size:110.526px;font-family:Impact;-inkscape-font-specification:'Impact, Normal';stroke-width:0.937512">
          <path
             d="m 510.044,1218.223 q 4.96503,1.673 7.39358,5.5047 2.42855,3.7777 2.42855,17.8094 0,10.4157 -2.37458,16.1903 -2.37458,5.7206 -8.2031,8.7428 -5.82852,2.9682 -14.94907,2.9682 -10.36182,0 -16.29827,-3.4539 -5.88249,-3.5079 -7.77136,-8.527 -1.83491,-5.0729 -1.83491,-17.5395 v -6.9079 h 21.80298 v 14.1936 q 0,5.6666 0.64762,7.2317 0.70158,1.5111 3.02219,1.5111 2.53649,0 3.34601,-1.9429 0.80951,-1.9428 0.80951,-10.1459 v -6.0444 q 0,-5.019 -1.13332,-7.3396 -1.13332,-2.3207 -3.346,-3.0222 -2.21268,-0.7556 -8.58088,-0.8635 v -12.6824 q 7.77136,0 9.60626,-0.5937 1.83491,-0.5936 2.64443,-2.5904 0.80951,-1.9969 0.80951,-6.2603 v -4.8571 q 0,-4.5873 -0.97142,-6.0444 -0.91745,-1.4571 -2.91426,-1.4571 -2.26664,0 -3.13013,1.565 -0.80952,1.5111 -0.80952,6.5301 v 7.1778 h -21.80298 v -7.4476 q 0,-12.5205 5.72059,-16.8919 5.72058,-4.4254 18.18714,-4.4254 15.59668,0 21.15536,6.0984 5.55869,6.0983 5.55869,16.9459 0,7.3396 -1.99681,10.6316 -1.99681,3.2381 -7.01581,5.9365 z"
             style="font-size:110.526px;font-family:Impact;-inkscape-font-specification:'Impact, Normal';stroke-width:0.937512"
             id="path1052" />
        </g>
      </g>
    </g>
  </g>
</svg>
