<?xml version="1.0" encoding="UTF-8" standalone="no"?>
<!-- Created with Inkscape (http://www.inkscape.org/) -->

<svg
   width="180.49026mm"
   height="86.097412mm"
   viewBox="0 0 180.49026 86.097412"
   version="1.1"
   id="svg13672"
   inkscape:version="1.1.1 (3bf5ae0d25, 2021-09-20)"
   sodipodi:docname="2022-MK-01-answerA.svg"
   xmlns:inkscape="http://www.inkscape.org/namespaces/inkscape"
   xmlns:sodipodi="http://sodipodi.sourceforge.net/DTD/sodipodi-0.dtd"
   xmlns="http://www.w3.org/2000/svg"
   xmlns:svg="http://www.w3.org/2000/svg">
  <sodipodi:namedview
     id="namedview13674"
     pagecolor="#ffffff"
     bordercolor="#666666"
     borderopacity="1.0"
     inkscape:pageshadow="2"
     inkscape:pageopacity="0.0"
     inkscape:pagecheckerboard="0"
     inkscape:document-units="mm"
     showgrid="false"
     inkscape:zoom="0.66368547"
     inkscape:cx="288.54029"
     inkscape:cy="213.2034"
     inkscape:window-width="1680"
     inkscape:window-height="1027"
     inkscape:window-x="1912"
     inkscape:window-y="-8"
     inkscape:window-maximized="1"
     inkscape:current-layer="layer1" />
  <defs
     id="defs13669" />
  <g
     inkscape:label="Ebene 1"
     inkscape:groupmode="layer"
     id="layer1"
     transform="translate(-28.406385,-92.102582)">
    <g
       id="g12467"
       style="clip-rule:evenodd;fill-rule:evenodd;stroke-linecap:round;stroke-linejoin:round;stroke-miterlimit:1.5"
       transform="matrix(0.26458333,0,0,0.26458333,-7.8645043,71.359972)">
      <path
         d="m 815.39329,91.794223 c 0,-4.815832 -3.9084,-8.725576 -8.73023,-8.725576 H 151.00052 c -4.81567,0 -8.72495,3.909744 -8.72495,8.725576 V 391.20146 c 0,4.81524 3.90928,8.72616 8.72495,8.72616 h 655.66254 c 4.82183,0 8.73023,-3.91092 8.73023,-8.72616 z"
         style="fill:#995e26;stroke-width:0.718161"
         id="path3220" />
      <path
         d="m 142.275,358.48397 v 0.94745 c 41.555,-3.85767 84.815,-5.29812 126.235,0.51229 21.83,3.06222 44.945,6.13986 66.377,11.00284 13.711,3.11159 28.555,7.90589 42.969,8.49149 71.636,2.90868 139.067,-13.63762 209.817,-16.94595 28.73,-1.34324 54.46,1.86556 82.8,4.65697 44.08,4.34142 88.45,10.89713 130.84,21.38612 4.11,1.01766 8.97,2.04148 14.05,3.22038 0.02,-0.18362 0.03,-0.36956 0.03,-0.55627 v -0.4174 c -4.96,-1.14573 -9.69,-2.14795 -13.71,-3.14323 -42.45,-10.50596 -86.9,-17.07402 -131.05,-21.42315 -28.43,-2.79913 -54.23,-6.00947 -83.03,-4.66238 -70.71,3.30602 -138.094,19.85232 -209.683,16.94518 -14.321,-0.58173 -29.066,-5.36292 -42.689,-8.45446 -21.473,-4.87223 -44.631,-7.95759 -66.503,-11.02598 -41.491,-5.82044 -84.823,-4.39079 -126.453,-0.5339 z m 357.938,-16.70523 c -3.02,-2.33157 -9.1,-4.28818 -15.882,-5.90146 -10.005,-2.38095 -21.529,-4.04591 -26.65,-5.23099 -5.828,-1.34941 -11.741,-2.47353 -17.572,-3.81291 -42.379,-9.73521 -62.38,-7.41367 -104.036,-2.98121 -8.306,0.88418 -20.125,1.83548 -28.761,5.18547 -5.903,2.28914 -10.331,5.69006 -11.293,10.88865 -1.074,5.79807 4.077,9.31163 11.453,11.53442 10.643,3.20803 25.929,3.72959 32.368,5.0844 42.272,8.895 83.411,13.68545 128.137,11.45418 11.079,-0.55242 29.566,-4.91775 41.326,-8.96058 5.12,-1.76141 8.97,-3.48039 10.45,-4.78814 0.64,-0.5663 0.87,-1.09635 0.77,-1.53381 -0.07,-0.30321 -0.29,-0.58559 -0.71,-0.82399 -0.46,-0.26387 -1.22,-0.48607 -2.31,-0.62649 -0.33,-0.0432 -0.64,0.13039 -0.7,0.38654 -0.05,0.25615 0.17,0.49841 0.5,0.54084 0.72,0.0926 1.25,0.21372 1.62,0.3742 0.22,0.0949 0.37,0.18748 0.4,0.31787 0.04,0.19057 -0.12,0.39348 -0.37,0.63574 -0.55,0.53468 -1.56,1.13879 -2.93,1.7969 -9.28,4.47644 -34.426,11.05839 -48.124,11.74196 -44.587,2.22433 -85.598,-2.55531 -127.738,-11.42254 -6.414,-1.34941 -21.644,-1.85785 -32.245,-5.05354 -6.788,-2.04611 -11.678,-5.18933 -10.69,-10.52448 0.903,-4.87455 5.099,-8.03552 10.633,-10.18193 8.52,-3.3037 20.187,-4.22105 28.381,-5.09366 41.45,-4.41085 61.352,-6.73548 103.521,2.95035 5.83,1.33938 11.742,2.46427 17.569,3.81291 5.12,1.18508 16.64,2.84927 26.641,5.22868 6.562,1.56004 12.462,3.41403 15.382,5.66768 0.24,0.18363 0.63,0.18363 0.86,0 0.24,-0.18362 0.24,-0.48143 0,-0.66506 z M 142.275,330.53519 v 0.97136 c 88.548,-17.4081 173.524,-24.00933 268.513,-18.58083 52.321,2.99046 103.295,13.3182 154.785,20.32912 26.82,3.65244 53.19,4.22029 80.24,5.08981 39.41,1.26685 76.63,10.83232 115.25,15.24703 13.91,1.58936 27.72,2.99124 41.8,3.3932 1.36,0.0394 8.37,-0.69823 12.53,-0.10107 v -0.95438 c -4.26,-0.54316 -11.13,0.1543 -12.49,0.11573 -14.03,-0.4012 -27.8,-1.79999 -41.66,-3.38472 -38.67,-4.41934 -75.93,-13.98712 -115.38,-15.25552 -27,-0.86797 -53.31,-1.43196 -80.08,-5.07669 -51.53,-7.01632 -102.543,-17.34869 -154.905,-20.34069 -95.021,-5.43082 -180.035,1.15807 -268.603,18.54765 z m 275.143,4.9517 c -13.053,-5.15384 -26.009,-6.92451 -40.237,-3.99731 -3.049,0.62725 -7.379,1.4119 -10.628,2.51828 -1.532,0.52156 -2.828,1.11949 -3.675,1.79459 -0.634,0.50535 -1.027,1.05854 -1.131,1.65416 -0.105,0.59794 0.075,1.24757 0.653,1.94735 0.761,0.92198 2.258,1.96124 4.741,3.11082 8.543,3.95488 46.396,10.22359 64.244,9.64802 2.921,-0.0941 5.316,-0.37342 6.983,-0.86334 1.239,-0.36494 2.097,-0.8564 2.544,-1.44894 0.68,-0.90192 0.491,-2.10011 -1.031,-3.59457 -1.986,-1.95198 -6.345,-4.53662 -13.786,-7.86115 -4.341,-1.93809 -8.156,-2.79604 -8.681,-2.90868 z m -0.5,0.85872 c 0.038,0.0154 0.079,0.0278 0.121,0.0363 0,0 3.927,0.80934 8.445,2.82767 7.242,3.23426 11.505,5.72786 13.438,7.62737 1.091,1.07243 1.423,1.89334 0.935,2.54066 -0.332,0.44054 -1.002,0.77153 -1.924,1.04234 -1.574,0.46292 -3.84,0.71444 -6.599,0.80317 -17.657,0.56862 -55.114,-5.60288 -63.565,-9.51532 -1.898,-0.878 -3.182,-1.67423 -3.959,-2.40564 -0.673,-0.6342 -0.947,-1.19819 -0.855,-1.71975 0.092,-0.52232 0.539,-0.98139 1.19,-1.4065 0.745,-0.4853 1.752,-0.91658 2.901,-1.30698 3.193,-1.08786 7.452,-1.85322 10.45,-2.47045 13.941,-2.86856 26.631,-1.11178 39.422,3.94717 z M 142.275,316.06818 v 0.94435 c 19.717,-1.39416 39.249,-2.82998 58.873,-4.51192 16.183,-1.38722 34.596,-8.54396 53.245,-9.74292 23.061,-1.48212 45.962,-6.63827 69.745,-8.47298 44.836,-3.45955 92.278,-0.5447 137.164,2.11863 8.304,0.49301 16.038,3.10002 24.098,4.23032 39.753,5.57741 78.303,15.18145 118.053,20.75886 32.15,4.51039 65.53,5.17699 98.32,8.47607 37.88,3.81291 75.68,7.57182 113.62,11.00591 v -0.94744 c -37.89,-3.43023 -75.63,-7.18451 -113.46,-10.99126 -32.77,-3.29753 -66.13,-3.96182 -98.26,-8.46912 -39.76,-5.57741 -78.3,-15.18145 -118.055,-20.75886 -8.1,-1.1357 -15.876,-3.74734 -24.222,-4.24266 -44.956,-2.66796 -92.473,-5.58127 -137.38,-2.11709 -23.776,1.83471 -46.669,6.99009 -69.724,8.47221 -18.66,1.19973 -37.086,8.35724 -53.278,9.74523 -19.58,1.67808 -39.067,3.11082 -58.739,4.50267 z M 815.393,212.20517 v -0.97676 c -15.21,-3.3986 -30.64,-6.575 -45.93,-8.11421 -15.49,-1.5585 -29.85,2.53834 -45.1,2.53834 -46.06,0 -90.63,0.0347 -135.73,6.36207 -16.29,2.2845 -34.43,1.06085 -50.04,4.6724 -25.2,5.83279 -48.91,5.85131 -72.067,16.56867 -3.815,1.76681 -10.116,4.36148 -14.392,7.67212 -2.659,2.05845 -4.534,4.39697 -4.666,6.97003 -0.089,1.7321 0.602,3.57683 2.403,5.52264 5.03,5.43313 11.794,6.94688 18.846,10.29456 27.686,13.14615 49.026,20.75424 80.306,28.43176 28.39,6.97081 58.32,21.20173 87.97,23.74316 12.31,1.05469 24.49,-1.05623 36.81,-0.42203 28.63,1.47209 55.93,7.76008 83.99,10.16572 14.38,1.23214 32.08,2.9758 45.61,7.04255 0.31,0.0941 0.66,-0.0255 0.79,-0.26695 0.12,-0.24226 -0.04,-0.51538 -0.35,-0.60951 -13.61,-4.09452 -31.44,-5.86056 -45.92,-7.10119 -28.07,-2.40718 -55.39,-8.69672 -84.04,-10.16957 -12.31,-0.63343 -24.47,1.47903 -36.76,0.42511 -29.57,-2.53448 -59.41,-16.75075 -87.74,-23.70458 -31.16,-7.65052 -52.43,-15.23392 -80.027,-28.33609 -6.905,-3.27824 -13.567,-4.71947 -18.493,-10.03996 -1.612,-1.74212 -2.256,-3.3878 -2.177,-4.93858 0.121,-2.34932 1.884,-4.46332 4.312,-6.34355 4.203,-3.25278 10.406,-5.79267 14.156,-7.52862 23.059,-10.67493 46.689,-10.6649 71.789,-16.47454 15.57,-3.60229 33.66,-2.36938 49.9,-4.64771 45.03,-6.31732 89.54,-6.34741 135.52,-6.34741 15.2,0 29.51,-4.09915 44.95,-2.54528 15.34,1.54383 30.82,4.74338 46.08,8.15741 z m -224.01,86.66476 c 17.22,-4.81822 50.89,-2.73662 68.55,-2.73662 47.22,0 94.43,0.42357 141.66,0.42357 0.34,0 0.61,-0.21063 0.61,-0.47064 0,-0.25923 -0.27,-0.47063 -0.61,-0.47063 -47.23,0 -94.44,-0.42357 -141.66,-0.42357 -17.77,0 -51.64,-2.05383 -68.96,2.79294 -0.32,0.0887 -0.48,0.35877 -0.37,0.60257 0.12,0.24458 0.47,0.37111 0.78,0.28238 z M 142.275,228.74067 v 0.97136 c 39.344,7.85961 81.152,17.31397 120.806,19.66715 6.448,0.38268 20.705,2.87473 30.686,7.52939 6.486,3.02518 11.193,6.94765 10.486,11.86077 -0.746,5.18085 -5.294,8.20912 -10.945,10.07237 -5.799,1.91186 -12.76,2.60546 -18.167,3.06916 -12.471,1.06857 -25.449,-1.19974 -37.896,0 -22.666,2.18652 -43.243,3.78359 -65.414,8.0602 -3.182,0.61337 -18.375,2.74897 -29.556,4.73336 v 0.96441 c 11.199,-1.99827 26.642,-4.16628 29.852,-4.78505 22.122,-4.26734 42.654,-5.85747 65.269,-8.0386 12.442,-1.2005 25.414,1.06935 37.879,7.7e-4 5.511,-0.47295 12.602,-1.19047 18.512,-3.13859 6.059,-1.9975 10.878,-5.2796 11.678,-10.83387 0.757,-5.25722 -4.128,-9.53383 -11.067,-12.76964 -10.156,-4.73644 -24.662,-7.27324 -31.223,-7.6621 -39.69,-2.35549 -81.537,-11.84071 -120.9,-19.70109 z m 649.188,-11.33305 c -0.19,-0.87877 -0.86,-1.52841 -1.91,-1.98361 -0.94,-0.4066 -2.21,-0.65426 -3.68,-0.77308 -6.44,-0.52078 -17.08,1.42965 -20.48,1.54384 -27.13,0.90964 -53.88,1.49369 -80.97,3.10156 -42.11,2.499 -84.99,2.21122 -126.41,9.31241 -5.29,0.90809 -18.16,2.59698 -28.09,6.04264 -6.81,2.36089 -12.22,5.57356 -13.14,9.84399 -0.69,3.19646 2.17,5.53884 6.82,7.19455 10.21,3.64009 29.11,4.04129 33.33,4.42474 45.28,4.10996 90.28,10.07082 135.5,14.17538 36.21,3.28673 72.45,13.7356 109.16,13.7356 0.34,0 0.61,-0.21063 0.61,-0.47064 0,-0.25923 -0.27,-0.47063 -0.61,-0.47063 -36.66,0 -72.85,-10.44579 -109.02,-13.72866 -45.22,-4.10456 -90.22,-10.06542 -135.5,-14.17615 -4.17,-0.37805 -22.86,-0.74453 -32.96,-4.34373 -4.06,-1.44662 -6.73,-3.39397 -6.13,-6.18615 0.87,-4.00426 6.05,-6.92605 12.44,-9.14035 9.85,-3.41635 22.61,-5.08209 27.86,-5.9817 41.36,-7.09193 84.18,-6.79797 126.23,-9.29311 27.08,-1.60788 53.82,-2.19038 80.94,-3.10002 3.36,-0.11265 13.91,-2.06385 20.3,-1.5477 1.28,0.10339 2.38,0.30399 3.2,0.65812 0.71,0.30553 1.18,0.72756 1.31,1.31701 0.05,0.25615 0.37,0.42897 0.7,0.38654 0.33,-0.0424 0.56,-0.2847 0.5,-0.54085 z m 23.93,54.17705 v -0.95516 c -39.93,-5.49331 -80.37,-8.96136 -120.51,-13.23333 -8.16,-0.86798 -35.44,-2.16955 -53.88,-6.11749 -7.74,-1.65648 -13.92,-3.74656 -16.32,-6.52408 -0.08,-0.098 -0.13,-0.1898 -0.13,-0.28007 0.01,-0.15199 0.14,-0.28238 0.33,-0.41663 0.32,-0.22991 0.79,-0.43823 1.37,-0.63497 3.71,-1.2684 11.26,-1.88717 11.77,-1.92652 19.29,-1.48828 38.51,-1.32626 57.93,-1.32626 25.63,0 51.49,0.412 77,-1.77453 7.58,-0.64963 18.66,-2.87859 28.86,-3.35771 4.91,-0.23069 9.61,-0.0594 13.58,0.91813 v -0.97985 c -4.03,-0.93047 -8.74,-1.10869 -13.66,-0.87723 -10.21,0.47989 -21.32,2.71039 -28.91,3.36157 -25.47,2.18266 -51.28,1.76835 -76.87,1.76835 -19.46,0 -38.72,-0.15971 -58.06,1.33167 -0.52,0.0401 -8.31,0.69283 -12.14,2.00289 -0.92,0.31402 -1.62,0.67664 -2.01,1.06009 -0.51,0.50458 -0.59,1.05546 -0.07,1.65262 2.51,2.90483 8.91,5.17699 17,6.90908 18.5,3.96028 45.86,5.27189 54.04,6.14295 40.2,4.27815 80.7,7.74696 120.68,13.25648 z M 142.275,242.81575 v 0.94049 c 19.018,0.69284 38.246,3.47422 55.913,6.88131 10,1.9296 20.784,2.72042 30.511,5.22173 1.206,0.31016 8.567,1.95044 12.117,3.49273 0.427,0.18594 0.797,0.3688 1.087,0.54856 0.22,0.13734 0.392,0.26618 0.487,0.39426 0.038,0.0517 0.047,0.10107 -0.009,0.14504 -6.909,5.33053 -17.262,7.55177 -28.697,8.28241 -17.362,1.10947 -37.215,-1.23137 -51.566,-1.64182 -6.614,-0.18903 -13.225,-0.3225 -19.843,-0.38422 v 0.94049 c 6.603,0.0617 13.199,0.1952 19.798,0.38423 14.391,0.41122 34.3,2.75128 51.712,1.63873 11.747,-0.7507 22.36,-3.07841 29.458,-8.55475 0.242,-0.18672 0.364,-0.38809 0.4,-0.59254 0.068,-0.38191 -0.2,-0.83711 -0.862,-1.27226 -2.646,-1.73826 -12.283,-3.91013 -13.696,-4.27275 -9.756,-2.5098 -20.571,-3.30756 -30.602,-5.24257 -17.758,-3.42483 -37.088,-6.21547 -56.208,-6.90907 z m 673.118,7.32339 v -0.94127 c -1.72,0.0702 -3.4,0.23763 -5.07,0.44131 -4.07,0.49456 -8.14,1.20745 -12.74,1.20745 -12.39,0 -24.35,-2.3146 -36.75,-2.3146 -4.94,0 -11.3,0.98139 -15.78,2.70731 -1.66,0.64192 -2.67,1.22365 -3.16,1.72438 -0.45,0.45906 -0.54,0.88649 -0.39,1.26917 0.14,0.36957 0.53,0.7237 1.19,1.02228 1.2,0.54162 3.38,0.95516 6.03,1.25452 5.98,0.67432 14.42,0.81936 18.98,0.93664 8.77,0.22528 8.2,0.55704 17.17,1.32626 8.08,0.69207 16.62,1.00222 24.73,1.3309 0.33,0.0139 0.62,-0.18517 0.64,-0.44441 0.02,-0.26 -0.24,-0.48143 -0.58,-0.49455 -8.08,-0.32867 -16.6,-0.63729 -24.65,-1.32704 -9.02,-0.77307 -8.45,-1.10483 -17.27,-1.33166 -4.53,-0.1165 -12.91,-0.25769 -18.84,-0.92739 -2.46,-0.27698 -4.48,-0.63342 -5.59,-1.13492 -0.37,-0.16819 -0.64,-0.32096 -0.66,-0.53776 -0.01,-0.13425 0.1,-0.26926 0.26,-0.42511 0.45,-0.41663 1.32,-0.87338 2.69,-1.39956 4.32,-1.66652 10.46,-2.60856 15.23,-2.60856 12.4,0 24.36,2.3146 36.75,2.3146 4.67,0 8.79,-0.71675 12.93,-1.21902 1.61,-0.19597 3.23,-0.35876 4.88,-0.42897 z M 228.867,233.80115 c 46.171,6.4369 91.093,13.69934 138.716,5.82585 24.417,-4.03743 48.067,-10.22436 71.95,-14.83118 7.536,-1.45357 15.728,-0.84406 23.089,-2.5476 12.996,-3.00821 26.611,-8.45292 40.461,-8.45292 0.33,0 0.61,-0.21062 0.61,-0.47063 0,-0.25924 -0.28,-0.47064 -0.61,-0.47064 -13.97,0 -27.707,5.45937 -40.811,8.49304 -7.344,1.69969 -15.517,1.08555 -23.034,2.53603 -23.87,4.60374 -47.507,10.78912 -71.911,14.82346 -47.461,7.84726 -92.228,0.58405 -138.243,-5.83125 -0.331,-0.0463 -0.648,0.12345 -0.708,0.37883 -0.06,0.25615 0.16,0.50072 0.491,0.54701 z m -86.592,-23.21234 v 0.96442 c 14.527,2.58232 29.037,4.73335 43.83,7.45378 6.534,1.20128 12.937,3.37546 19.379,5.0574 6.553,1.71049 13.146,2.91176 19.946,2.13869 9.417,-1.07012 18.559,-4.66701 27.653,-8.64657 8.995,-3.93636 17.945,-8.24615 27.084,-10.78526 26,-7.22464 52.793,-7.84418 79.221,-10.7598 37.43,-4.13002 75.639,-2.35395 113.202,-3.58994 31.013,-1.02074 62.033,-3.95411 93.083,-2.87551 27.06,0.93973 54.16,6.47008 81.1,6.47008 43.45,0 87.6,-3.49968 130.99,1.43273 9.44,1.07243 28.49,4.05518 37.63,6.00022 v -0.97522 c -9.3,-1.95507 -28.09,-4.89229 -37.45,-5.95624 -43.45,-4.93858 -87.66,-1.44276 -131.17,-1.44276 -26.92,0 -54,-5.52958 -81.04,-6.46931 -31.09,-1.07937 -62.15,1.854 -93.195,2.87551 -37.603,1.23754 -75.852,-0.53545 -113.323,3.59843 -26.509,2.92488 -53.381,3.55985 -79.461,10.80609 -9.202,2.55686 -18.216,6.88979 -27.272,10.85238 -8.958,3.92016 -17.954,7.48001 -27.229,8.5347 -6.608,0.7507 -13.011,-0.43746 -19.378,-2.09934 -6.477,-1.6912 -12.917,-3.87387 -19.488,-5.08209 -14.885,-2.73663 -29.486,-4.89692 -44.112,-7.50239 z m 0,-8.71755 v 1.01765 c 7.315,2.3254 14.927,4.02586 23.693,3.70413 50.955,-1.87251 101.244,-5.8027 150.052,-17.38958 21.957,-5.21248 45.614,-4.70712 67.519,-9.31626 36.256,-7.62892 66.183,-23.83651 104.747,-25.40195 38.817,-1.57624 82.207,-2.60547 120.687,1.26685 22.89,2.3038 44.38,10.02993 67.53,12.7087 41.39,4.78967 84.05,5.97552 125.79,8.05326 0.34,0.0162 0.63,-0.18054 0.65,-0.43978 0.02,-0.25846 -0.23,-0.48298 -0.57,-0.49918 -41.71,-2.07619 -84.33,-3.25895 -125.69,-8.04477 -23.15,-2.67954 -44.65,-10.40644 -67.55,-12.71101 -38.56,-3.88004 -82.03,-2.85313 -120.911,-1.2738 -38.655,1.5693 -68.663,17.78692 -105.004,25.43436 -21.917,4.61145 -45.587,4.10841 -67.557,9.32397 -48.71,11.56374 -98.898,15.48081 -149.751,17.34869 -8.758,0.32251 -16.336,-1.43119 -23.635,-3.78128 z m 0,-38.41077 v 0.95284 c 14.669,2.56535 29.478,7.75468 43.861,9.97438 15.911,2.45502 31.349,5.17622 47.222,7.62506 16.117,2.48743 33.22,0.89035 49.418,3.38935 0.33,0.0509 0.651,-0.11419 0.717,-0.36879 0.066,-0.25461 -0.148,-0.50304 -0.478,-0.55397 -16.198,-2.49899 -33.301,-0.90192 -49.418,-3.38934 -15.873,-2.44885 -31.31,-5.17004 -47.222,-7.62506 -14.459,-2.23127 -29.352,-7.44144 -44.1,-10.00447 z m 73.372,-31.5665 c 0.16,-0.19134 0.533,-0.34256 1.05,-0.50613 0.973,-0.30629 2.411,-0.57247 4.19,-0.80933 12.218,-1.62871 40.117,-1.7969 46.701,-2.36167 39.595,-3.39397 79.349,-11.009 119.552,-6.77946 7.621,0.80163 15.629,1.70818 22.972,3.37392 4.326,0.98216 5.563,0.88417 9.783,2.51134 5.116,1.97435 8.65,3.82834 10.878,5.57895 2.11,1.65803 3.022,3.20032 2.937,4.65852 -0.067,1.1519 -0.758,2.23744 -1.904,3.26898 -1.824,1.64105 -4.78,3.13397 -8.363,4.50421 -12.204,4.66701 -31.617,7.84881 -39.708,9.92963 -13.241,3.40555 -26.317,5.59825 -40.005,7.6104 -21.24,3.12086 -45.851,5.08826 -67.331,2.53835 -7.619,-0.90424 -16.74,-1.47209 -25.568,-2.74743 -8.74,-1.26223 -17.194,-3.21421 -23.577,-6.90754 -5.666,-3.27824 -12.88,-6.57577 -18.081,-10.14257 -2.675,-1.8347 -4.659,-4.16088 -6.748,-6.38058 -2.162,-2.29839 -4.437,-4.48338 -7.619,-5.957 -0.289,-0.13348 -0.664,-0.0609 -0.837,0.16202 -0.173,0.2222 -0.079,0.51153 0.209,0.645 3.04,1.40728 5.195,3.50739 7.26,5.70317 2.14,2.27371 4.184,4.6508 6.925,6.53103 5.224,3.58223 12.467,6.89828 18.159,10.19195 12.98,7.51087 34.355,8.0116 49.691,9.83242 21.612,2.56534 46.375,0.59562 67.745,-2.54452 13.742,-2.01987 26.87,-4.22337 40.162,-7.64203 8.124,-2.08854 27.612,-5.29349 39.865,-9.97978 3.754,-1.43505 6.835,-3.01515 8.746,-4.73413 1.343,-1.20822 2.119,-2.49051 2.198,-3.83992 0.078,-1.34632 -0.535,-2.77057 -2.038,-4.26426 -2.132,-2.11863 -6.105,-4.40777 -12.451,-6.85584 -4.308,-1.66189 -5.567,-1.57085 -9.984,-2.57307 -7.4,-1.67885 -15.471,-2.59543 -23.152,-3.404 -40.302,-4.23957 -80.158,3.37468 -119.851,6.77715 -6.594,0.56553 -34.537,0.73835 -46.773,2.36937 -1.889,0.25152 -3.412,0.54008 -4.445,0.86643 -0.821,0.25847 -1.359,0.56322 -1.613,0.86721 -0.182,0.21834 -0.1,0.50921 0.183,0.6504 0.283,0.14042 0.66,0.0771 0.842,-0.14119 z m 20.705,14.11442 c 2.054,-1.4798 5.241,-2.02064 8.773,-2.22355 5.546,-0.31942 11.93,0.2168 16.448,-0.31942 25.187,-2.98969 49.583,-4.65466 75.133,-4.65466 3.898,0 10.02,-0.29009 15.342,0.28933 3.422,0.37265 6.513,1.09326 8.387,2.53834 0.715,0.55165 1.084,1.08246 1.113,1.60942 0.035,0.61337 -0.39,1.19588 -1.117,1.76835 -0.83,0.65195 -2.045,1.27535 -3.535,1.87251 -10.313,4.13542 -33.502,6.91448 -37.791,7.08036 -9.141,0.35259 -18.248,0.4228 -27.424,0.4228 -7.241,0 -14.421,-1.79304 -21.646,-3.57837 -7.347,-1.81542 -14.741,-3.62312 -22.282,-3.62312 -0.336,0 -0.609,0.21063 -0.609,0.46987 0,0.26 0.273,0.47063 0.609,0.47063 7.416,0 14.684,1.79304 21.91,3.57837 7.348,1.81542 14.654,3.62389 22.018,3.62389 9.196,0 18.324,-0.071 27.484,-0.42434 4.347,-0.1682 27.842,-2.99509 38.293,-7.18529 1.962,-0.78619 3.474,-1.62793 4.359,-2.49976 0.662,-0.65195 0.988,-1.32858 0.95,-2.01679 -0.041,-0.7237 -0.488,-1.47594 -1.47,-2.23359 -2.033,-1.5693 -5.364,-2.40024 -9.078,-2.80452 -5.382,-0.58637 -11.572,-0.29859 -15.513,-0.29859 -25.613,0 -50.07,1.66806 -75.318,4.66546 -4.493,0.53313 -10.84,-0.007 -16.353,0.31093 -3.841,0.22066 -7.282,0.86489 -9.515,2.47431 -0.246,0.17745 -0.259,0.47526 -0.03,0.66506 0.23,0.1898 0.616,0.19983 0.862,0.0224 z m -94.077,-11.67638 v 0.95516 c 4.91,-0.67818 9.093,-1.20282 11.693,-1.56775 39.101,-5.48483 76.518,-15.64283 116.365,-19.05918 38.195,-3.27439 79.486,-7.20149 117.927,-4.23572 35.538,2.74203 67.669,14.7818 102.653,18.63792 62.27,6.86356 128.73,6.82884 191.21,3.81678 43.45,-2.09549 91.89,-0.60103 133.27,-13.85056 v -1.01611 c -41.36,13.38455 -89.86,11.82991 -133.35,13.92694 -62.39,3.00898 -128.76,3.04601 -190.96,-3.80829 -34.998,-3.85843 -67.146,-15.89975 -102.702,-18.64255 -38.524,-2.97272 -79.905,0.95516 -118.182,4.23649 -39.876,3.41866 -77.321,13.57975 -116.449,19.06844 -2.563,0.35953 -6.66,0.87492 -11.475,1.53843 z m 0,-29.27659 v 0.94436 c 14.164,-0.96982 29.669,-2.01602 33.615,-2.35395 48.16,-4.128471 97.449,-6.352029 145.99,-6.352029 15.315,0 30.963,-1.242168 46.038,0.418942 13.885,1.530722 28.237,1.418078 42.28,2.965777 98.045,10.80609 185.165,25.05553 286.185,22.45701 39.48,-1.01534 79.44,-8.48455 119.01,-12.24809 v -0.94127 c -39.59,3.76354 -79.56,11.23352 -119.05,12.24963 -100.95,2.59544 -188,-11.65092 -285.973,-22.448524 -14.043,-1.547696 -28.395,-1.435052 -42.28,-2.965773 -15.131,-1.668055 -30.838,-0.428201 -46.21,-0.428201 -48.585,0 -97.92,2.225101 -146.125,6.357428 -3.934,0.33716 -19.353,1.37719 -33.48,2.34469 z m 673.118,-6.872813 v -0.976761 c -89.54,19.239714 -185.48,15.320334 -277.12,8.892694 -26.27,-1.84243 -53.696,-2.78138 -79.55,-6.770978 -4.606,-0.710582 -20.141,-6.028759 -30.404,-8.895776 -3.129,-0.874147 -5.777,-1.522234 -7.497,-1.755237 -0.837,-0.114187 -1.482,-0.12576 -1.893,-0.04784 -0.327,0.06172 -0.527,0.3171 -0.447,0.568619 0.081,0.252292 0.411,0.406598 0.738,0.344876 0.42,-0.07947 1.157,0.0054 2.142,0.179767 1.653,0.291639 3.924,0.863345 6.542,1.594759 10.32,2.882447 25.948,8.219141 30.58,8.93359 25.896,3.99576 53.369,4.93935 79.679,6.78563 91.67,6.42918 187.65,10.33545 277.23,-8.853348 z M 525.283,83.068295 h -5.46 c 21.03,3.88544 43.15,5.875224 64.43,8.290122 69.44,7.878124 135.52,6.810322 204.99,-0.847143 0.33,-0.03703 0.56,-0.275437 0.52,-0.532358 -0.05,-0.25692 -0.36,-0.435916 -0.69,-0.398882 -69.36,7.643577 -135.32,8.71215 -204.64,0.847143 -19.51,-2.213528 -39.73,-4.06675 -59.15,-7.358882 z"
         style="fill:#57300b;stroke-width:0.87837"
         id="path3224" />
      <rect
         x="324.05164"
         y="298.62994"
         width="82.852516"
         height="68.758659"
         style="fill:#d4d3d3;stroke-width:1.1574"
         id="rect3228" />
      <path
         d="m 413.38113,106.2166 c 0,-5.55308 -4.50936,-10.062301 -10.06269,-10.062301 h -75.01102 c -5.55332,0 -10.06181,4.509221 -10.06181,10.062301 v 266.67529 c 0,5.55308 4.50849,10.06433 10.06181,10.06433 h 75.01102 c 5.55333,0 10.06269,-4.51125 10.06269,-10.06433 z"
         style="fill:#57300b;stroke-width:0.945979"
         id="path3232" />
      <path
         d="m 406.90416,298.61039 c -6.88951,-7.4202 -7.52146,-16.2454 0,-24.74863 v -93.08178 c -6.88951,-7.43483 -7.52146,-16.26004 0,-24.76326 v -46.48235 h -82.85252 v 46.48235 c 7.52146,8.50322 6.88951,17.32843 0,24.76326 v 93.08178 c 7.52146,8.50323 6.88951,17.32843 0,24.74863 v 68.75758 h 82.85252 z"
         style="fill:#b6adad;stroke-width:1.34667"
         id="path3236" />
      <path
         d="m 406.906,367.38 c 0,0 -27.617,7.52 -41.426,7.52 -13.809,0 -41.426,-7.52 -41.426,-7.52 v -19.49 l 4.428,-0.14 74.196,-2.22 4.228,-0.12 z"
         style="fill:#8a8a8a"
         id="path3240" />
      <path
         d="m 406.906,367.38 c 0,0 -27.617,7.52 -41.426,7.52 -13.809,0 -41.426,-7.52 -41.426,-7.52 v -19.49 l 4.428,-0.14 74.196,-2.22 4.228,-0.12 z"
         style="fill:#8a8a8a"
         id="path3244" />
      <rect
         x="324.05164"
         y="180.78003"
         width="82.852516"
         height="93.086174"
         style="fill:#e6dfdf;stroke-width:1.34667"
         id="rect3248" />
      <path
         d="m 324.054,180.78 77.166,5.68 5.686,87.41 v -93.09 z"
         style="fill:#d6d6d6"
         id="path3252" />
      <path
         d="m 406.911,273.87 -77.166,-5.68 -5.686,-87.41 v 93.09 z"
         style="fill:#f8f8f8"
         id="path3256" />
      <path
         d="m 406.911,180.78 -77.166,5.68 -5.686,87.41 v -93.09 z"
         style="fill:#f8f8f8"
         id="path3260" />
      <path
         d="m 406.911,298.62 -77.166,5.68 -5.686,63.08 v -68.76 z"
         style="fill:#808080"
         id="path3264" />
      <path
         d="m 324.054,367.38 77.166,-5.68 2.587,-28.7 -2.587,-28.7 -77.166,-5.68 h 82.852 v 68.76 z"
         style="fill:#9a9797"
         id="path3268" />
      <path
         d="m 406.911,367.38 -77.166,-5.68 -5.686,-63.08 v 68.76 c 0,0 27.617,7.51 41.426,7.51 13.809,0 41.426,-7.51 41.426,-7.51 z"
         style="fill:#808080"
         id="path3272" />
      <rect
         x="324.05164"
         y="109.54642"
         width="82.852516"
         height="46.47942"
         style="fill:#808080;stroke-width:0.951586"
         id="rect3276" />
      <path
         d="m 406.906,137.94 v -28.396 h -82.852 v 26.236 c 30.506,0.93 58.025,1.64 82.852,2.16 z"
         style="fill:#5d5d5d"
         id="path3280" />
      <path
         d="m 365.48,112.59 -35.74,2.63 -5.686,40.8 v -46.476 c 0,0 28.941,-5.069 41.426,-5.069 13.809,0 41.426,5.069 41.426,5.069 v 46.476 l -5.686,-40.8 z"
         style="fill:#494949"
         id="path3284" />
      <path
         d="m 406.911,156.026 -77.166,-5.676 -5.686,-40.8 v 46.476 z"
         style="fill:#959595"
         id="path3288" />
      <path
         d="m 324.054,156.026 77.166,-5.676 5.686,-40.8 v 46.476 z"
         style="fill:#959595"
         id="path3292" />
      <path
         d="m 324.054,156.026 77.166,-5.676 5.686,-40.8 v 46.476 z"
         style="fill:#959595"
         id="path3296" />
      <path
         d="m 406.911,156.026 -77.166,-5.676 -5.686,-40.8 v 46.476 z"
         style="fill:#959595"
         id="path3300" />
      <path
         d="m 406.911,156.026 -77.166,-5.676 -5.686,-40.8 v 46.476 z"
         style="fill:#959595"
         id="path3304" />
      <rect
         x="-68.266174"
         y="485.49973"
         width="37.907383"
         height="38.354336"
         style="fill:#717171;stroke-width:0.724578"
         id="rect3308"
         transform="matrix(0.76846064,-0.63989706,0.79926475,0.60097908,0,0)" />
      <rect
         x="-68.266174"
         y="485.49973"
         width="37.907383"
         height="38.354336"
         style="fill:#717171;stroke-width:0.724578"
         id="rect3312"
         transform="matrix(0.76846064,-0.63989706,0.79926475,0.60097908,0,0)" />
      <rect
         x="-68.266174"
         y="485.49973"
         width="37.907383"
         height="38.354336"
         style="fill:#9e9e9e;stroke-width:0.724578"
         id="rect3316"
         transform="matrix(0.76846064,-0.63989706,0.79926475,0.60097908,0,0)" />
      <path
         d="m 366.243,358.511 -15.208,-11.436 30.019,-0.898 z"
         style="fill:#828282"
         id="path3320" />
      <ellipse
         cx="365.8071"
         cy="132.78525"
         rx="29.999712"
         ry="18.788635"
         style="fill:#717171;stroke-width:0.830537"
         id="ellipse3322" />
      <path
         d="m 374.1244,197.57757 17.28778,12.56028 -8.64423,11.89814 13.98657,4.54711 -6.6031,20.32346 -13.98657,-4.54711 v 14.70884 h -21.36936 v -14.70884 l -13.98657,4.54711 -6.6031,-20.32346 13.98589,-4.54711 -8.64355,-11.89814 17.28778,-12.56028 8.64423,11.89814 z"
         id="path3326"
         style="stroke-width:0.675647" />
      <path
         d="m 403.268,161.33 h -75.576 c 1.655,3.35 2.121,6.69 1.512,9.93 h 72.552 c -0.609,-3.24 -0.143,-6.58 1.512,-9.93 z"
         style="fill:#d2d1d1"
         id="path3330" />
      <path
         d="m 403.268,279.187 h -75.576 c 1.655,3.35 2.121,6.69 1.512,9.93 h 72.552 c -0.609,-3.24 -0.143,-6.58 1.512,-9.93 z"
         style="fill:#d2d1d1"
         id="path3334" />
      <path
         d="m 402.256,163.81 h -73.552 c 0.266,0.83 0.462,1.66 0.587,2.48 h 72.378 c 0.125,-0.82 0.321,-1.65 0.587,-2.48 z"
         style="fill:#f0f0f0"
         id="path3338" />
      <path
         d="m 402.256,281.667 h -73.552 c 0.266,0.83 0.462,1.66 0.587,2.48 h 72.378 c 0.125,-0.82 0.321,-1.65 0.587,-2.48 z"
         style="fill:#f0f0f0"
         id="path3342" />
      <path
         d="m 324.054,273.87 77.166,-5.68 5.686,-87.41 v 93.09 z"
         style="fill:#d6d6d6"
         id="path3346" />
      <path
         d="m 406.906,137.94 v -28.396 l -3.945,28.316 c 1.321,0.03 2.637,0.06 3.945,0.08 z m -79.181,-2.05 -3.293,-0.1 -0.378,-0.01 v -26.236 z"
         style="fill:#5d5d5d"
         id="path3350" />
      <path
         d="m 336.293,136.15 c -0.315,-1.1 -0.48,-2.22 -0.48,-3.37 0,-10.37 13.443,-18.78 30,-18.78 16.558,0 30,8.41 30,18.78 0,1.7 -0.358,3.34 -1.029,4.9 -18.11,-0.42 -37.57,-0.92 -58.491,-1.53 z"
         style="fill:#575757"
         id="path3354" />
      <rect
         x="431.13763"
         y="299.17096"
         width="82.852516"
         height="68.758659"
         style="fill:#d4d3d3;stroke-width:1.1574"
         id="rect3358" />
      <path
         d="m 520.46814,106.2166 c 0,-5.55308 -4.50937,-10.062301 -10.0627,-10.062301 h -75.01102 c -5.55332,0 -10.06181,4.509221 -10.06181,10.062301 v 266.67529 c 0,5.55308 4.50849,10.06433 10.06181,10.06433 h 75.01102 c 5.55333,0 10.0627,-4.51125 10.0627,-10.06433 z"
         style="fill:#57300b;stroke-width:0.945979"
         id="path3362" />
      <path
         d="m 513.99016,299.15039 c -6.88951,-7.4202 -7.52146,-16.2454 0,-24.74863 v -93.08178 c -6.88951,-7.43483 -7.52146,-16.26004 0,-24.76326 v -46.48235 h -82.85252 v 46.48235 c 7.52146,8.50322 6.88951,17.32843 0,24.76326 v 93.08178 c 7.52146,8.50323 6.88951,17.32843 0,24.74863 v 68.75758 h 82.85252 z"
         style="fill:#b2b2b2;stroke-width:1.34667"
         id="path3366" />
      <path
         d="m 513.994,367.92 c 0,0 -27.62,6.98 -41.43,6.98 -13.81,0 -41.42,-6.98 -41.42,-6.98 v -24.46 c 1.33,0.07 2.67,0.14 4.01,0.22 23.56,-1.05 48.07,0.34 74.28,6.11 1.52,0.07 3.04,0.12 4.56,0.17 z"
         style="fill:#8a8a8a"
         id="path3370" />
      <rect
         x="431.13763"
         y="181.32002"
         width="82.852516"
         height="93.086174"
         style="fill:#e6dfdf;stroke-width:1.34667"
         id="rect3374" />
      <path
         d="m 431.141,181.321 77.166,5.68 5.686,87.41 v -93.09 z"
         style="fill:#d6d6d6"
         id="path3378" />
      <path
         d="m 513.991,274.41 -77.166,-5.68 -5.686,-87.41 v 93.09 z"
         style="fill:#f8f8f8"
         id="path3382" />
      <path
         d="m 513.991,181.321 -77.166,5.68 -5.686,87.41 v -93.09 z"
         style="fill:#f8f8f8"
         id="path3386" />
      <path
         d="m 513.991,299.161 -77.166,5.68 -5.686,63.08 v -68.76 z"
         style="fill:#808080"
         id="path3390" />
      <path
         d="m 431.141,367.921 77.166,-5.68 2.587,-28.7 -2.587,-28.7 -77.166,-5.68 h 82.852 v 68.76 z"
         style="fill:#9a9797"
         id="path3394" />
      <path
         d="m 513.991,367.93 -77.166,-5.68 -5.686,-63.08 v 68.76 c 0,0 27.617,6.97 41.426,6.97 13.809,0 41.426,-6.97 41.426,-6.97 z"
         style="fill:#808080"
         id="path3398" />
      <rect
         x="431.13763"
         y="110.08842"
         width="82.852516"
         height="46.47942"
         style="fill:#808080;stroke-width:0.951586"
         id="rect3402" />
      <path
         d="m 513.994,135.27 v -25.19 h -82.85 v 28.96 c 45.96,-0.48 70.14,-2.13 82.85,-3.77 z"
         style="fill:#5d5d5d"
         id="path3406" />
      <path
         d="m 513.991,156.566 -77.166,-5.676 -5.686,-40.8 v 46.476 z"
         style="fill:#959595"
         id="path3410" />
      <path
         d="m 431.141,156.566 77.166,-5.676 5.686,-40.8 v 46.476 z"
         style="fill:#959595"
         id="path3414" />
      <path
         d="m 513.991,156.566 -77.166,-5.676 -5.686,-40.8 v 46.476 z"
         style="fill:#959595"
         id="path3418" />
      <path
         d="m 462.64802,137.66033 h -12.09295 l 22.38198,-23.66561 22.38154,23.66561 h -12.09296 l 12.09296,12.78697 h -44.76352 z"
         style="fill:#717171;stroke-width:0.374791"
         id="path3422" />
      <path
         d="m 494.724,137.03 c -3.36,0.22 -7.06,0.43 -11.13,0.63 h -0.37 l 0.02,0.02 c -6.22,0.3 -13.3,0.57 -21.36,0.79 l 0.77,-0.81 h -12.1 L 472.934,114 Z"
         style="fill:#575757"
         id="path3426" />
      <path
         d="m 472.56936,331.69622 c 6.15999,-17.6057 18.47051,-17.6057 24.63049,-12.93768 6.15999,4.67809 6.15999,14.0242 0,23.37031 -4.30821,7.0121 -15.39051,14.01414 -24.63049,18.69223 -9.23998,-4.67809 -20.33173,-11.68013 -24.63994,-18.69223 -6.15999,-9.34611 -6.15999,-18.69222 0,-23.37031 6.15998,-4.66802 18.47995,-4.66802 24.63994,12.93768 z"
         style="fill:#9e9e9e;stroke-width:0.974931"
         id="path3430" />
      <path
         d="m 510.355,161.871 h -75.576 c 1.655,3.35 2.121,6.69 1.512,9.93 h 72.552 c -0.609,-3.24 -0.143,-6.58 1.512,-9.93 z"
         style="fill:#d2d1d1"
         id="path3434" />
      <path
         d="m 510.355,279.728 h -75.576 c 1.655,3.35 2.121,6.69 1.512,9.93 h 72.552 c -0.609,-3.24 -0.143,-6.58 1.512,-9.93 z"
         style="fill:#d2d1d1"
         id="path3438" />
      <path
         d="m 509.343,164.351 h -73.552 c 0.266,0.83 0.462,1.66 0.587,2.48 h 72.378 c 0.125,-0.82 0.321,-1.65 0.587,-2.48 z"
         style="fill:#f0f0f0"
         id="path3442" />
      <path
         d="m 509.343,282.208 h -73.552 c 0.266,0.83 0.462,1.66 0.587,2.48 h 72.378 c 0.125,-0.82 0.321,-1.65 0.587,-2.48 z"
         style="fill:#f0f0f0"
         id="path3446" />
      <path
         d="m 431.141,274.41 77.166,-5.68 5.686,-87.41 v 93.09 z"
         style="fill:#d6d6d6"
         id="path3450" />
      <path
         d="m 504.374,114 -67.55,1.76 -5.68,40.81 v -46.49 c 0,0 27.61,-5.827 41.42,-5.827 9.16,0 24.4,2.566 33.62,4.294 2.01,0.248 4.59,0.766 7.81,1.533 v 46.49 c 0,0 -9.44,-40.59 -9.62,-42.57 z"
         style="fill:#494949"
         id="path3454" />
      <path
         d="m 448.754,343.36 c 14.44,-0.03 29.28,0.96 44.68,3.4 -5.36,5.37 -13.68,10.43 -20.87,14.06 -8.7,-4.4 -19.04,-10.87 -23.81,-17.46 z"
         style="fill:#828282"
         id="path3458" />
      <path
         d="m 473.928,196.161 7.66,23.574 h 24.789 l -20.055,14.57 7.66,23.58 -20.054,-14.57 -20.055,14.57 7.66,-23.58 -20.054,-14.57 h 24.789 z"
         id="path3462" />
      <path
         d="m 226.374,402.893 c 1.973,1.642 -7.393,-11.539 -10.997,-13.681 -7.218,-4.29 -24.586,-15.631 -30.188,-21.29 -9.282,-9.375 -34.155,-55.39 -46.9,-50.026 -2.649,1.115 -0.11,65.621 0,75.88 0.033,3.028 1.922,10.45 6.463,9.878 20.403,-2.57 82.452,1.975 81.622,-0.761 z m 591.969,-88.376 c 1.642,-1.973 -11.539,7.393 -13.681,10.997 -4.29,7.218 -18.837,14.42 -24.495,20.022 -9.376,9.282 -52.185,44.321 -46.821,57.066 1.115,2.65 65.621,0.111 75.88,0 3.028,-0.032 10.449,-1.922 9.878,-6.462 -2.57,-20.403 1.975,-82.452 -0.761,-81.623 z M 729.967,79.309 c -1.973,-1.642 7.393,11.539 10.997,13.681 7.218,4.29 14.42,18.837 20.022,24.495 9.282,9.376 44.321,52.185 57.066,46.821 2.65,-1.115 0.11,-65.621 0,-75.88 -0.032,-3.028 -1.922,-10.449 -6.462,-9.878 -20.403,2.57 -82.452,-1.975 -81.623,0.761 z m -590.211,81.595 c -1.642,1.972 30.76,-18.636 36.418,-24.238 9.376,-9.282 52.185,-44.321 46.821,-57.066 -1.115,-2.65 -65.621,-0.11 -75.88,0 -3.028,0.033 -10.449,1.922 -9.877,6.463 2.569,20.403 -0.218,75.67 2.518,74.841 z"
         style="fill:#8a8a8a"
         id="path3466" />
      <path
         d="m 810.631,319.716 c -2.645,2.134 -5.138,4.4 -5.969,5.798 -4.29,7.218 -18.837,14.42 -24.495,20.022 -7.11,7.039 -33.444,28.888 -43.42,44.596 0.255,0.444 0.645,0.816 1.145,1.047 1.283,0.591 2.804,0.031 3.395,-1.252 0.784,-1.7 4.795,-6.237 10.433,-12.224 13.748,-14.595 37.139,-37.117 50.763,-47.618 2.785,-2.146 5.134,-3.776 6.881,-4.683 0.534,-0.277 1.248,-0.523 1.39,-0.571 1.328,0.106 2.53,-0.834 2.731,-2.171 0.209,-1.396 -0.755,-2.7 -2.151,-2.909 -0.209,-0.032 -0.444,-0.045 -0.703,-0.035 z"
         style="fill:#8a8a8a"
         id="path3468" />
      <path
         d="m 222.045,396.276 c -17.201,0.065 -55.975,-2.011 -71.143,-0.142 -4.426,0.545 -6.269,-6.532 -6.301,-9.42 -0.092,-8.382 -1.922,-54.74 -0.82,-68.512 -1.993,-0.834 -3.844,-0.999 -5.492,-0.306 -2.649,1.115 -0.11,65.621 0,75.88 0.033,3.028 1.922,10.45 6.463,9.878 20.403,-2.57 82.452,1.975 81.622,-0.761 1.102,0.917 -1.335,-2.792 -4.329,-6.617 z m 596.298,-81.759 c 1.181,-1.419 -12.191,42.433 -11.005,56.746 1.131,13.659 -8.85,25.476 -15.411,22.513 -7.053,-3.184 -40.321,2.904 -58.261,2.394 -0.883,2.487 -1.061,4.672 -0.32,6.432 1.115,2.65 65.621,0.111 75.88,0 3.028,-0.032 10.449,-1.922 9.878,-6.462 -2.57,-20.403 1.975,-82.452 -0.761,-81.623 z m -84,-228.53 c 18.718,0.216 52.722,1.842 66.694,0.121 4.426,-0.545 2.613,31.822 5.285,43.364 2.054,8.872 4.174,16 5.268,15.539 2.649,-1.115 6.572,-46.326 6.462,-56.585 -0.032,-3.028 -1.922,-10.449 -6.462,-9.878 -20.403,2.57 -82.452,-1.975 -81.623,0.761 -1.108,-0.922 1.36,2.831 4.376,6.678 z m -594.587,74.917 c 4.131,2.151 9.618,-53.937 11.146,-66.063 0.546,-4.332 56.84,-9.557 71.69,-8.58 0.954,-2.579 1.167,-4.846 0.403,-6.661 -1.115,-2.65 -65.621,-0.11 -75.88,0 -3.028,0.033 -10.449,1.922 -9.877,6.463 2.569,20.403 -0.218,75.67 2.518,74.841 z"
         style="fill:#8c7a7a"
         id="path3470" />
      <rect
         x="537.67664"
         y="298.14294"
         width="82.852516"
         height="68.758659"
         style="fill:#d4d3d3;stroke-width:1.1574"
         id="rect3472" />
      <path
         d="m 628.00914,106.2166 c 0,-5.55308 -4.50937,-10.062301 -10.0627,-10.062301 h -75.01102 c -5.55332,0 -10.06181,4.509221 -10.06181,10.062301 v 266.67529 c 0,5.55308 4.50849,10.06433 10.06181,10.06433 h 75.01102 c 5.55333,0 10.0627,-4.51125 10.0627,-10.06433 z"
         style="fill:#57300b;stroke-width:0.945979"
         id="path3476" />
      <path
         d="m 620.52916,298.12039 c -6.88951,-7.4202 -7.52146,-16.2454 0,-24.74863 v -93.08178 c -6.88951,-7.43483 -7.52146,-16.26004 0,-24.76326 v -46.48235 h -82.85252 v 46.48235 c 7.52146,8.50322 6.88951,17.32843 0,24.76326 v 93.08178 c 7.52146,8.50323 6.88951,17.32843 0,24.74863 v 68.75758 h 82.85252 z"
         style="fill:#b2b2b2;stroke-width:1.34667"
         id="path3480" />
      <path
         d="m 620.534,366.89 c 0,0 -29.236,8.01 -43.045,8.01 -13.535,0 -39.81,-8.01 -39.81,-8.01 v -22.06 l 4.2,-0.11 74.595,-1.52 c 1.38,-0.02 2.74,-0.03 4.06,-0.05 z"
         style="fill:#8a8a8a"
         id="path3484" />
      <path
         d="m 620.534,366.89 c 0,0 -29.236,8.01 -43.045,8.01 -13.535,0 -39.81,-8.01 -39.81,-8.01 v -22.06 l 4.2,-0.11 74.595,-1.52 c 1.38,-0.02 2.74,-0.03 4.06,-0.05 z"
         style="fill:#8a8a8a"
         id="path3488" />
      <rect
         x="537.67664"
         y="180.29002"
         width="82.852516"
         height="93.086174"
         style="fill:#e6dfdf;stroke-width:1.34667"
         id="rect3492" />
      <path
         d="m 537.68,180.292 77.166,5.68 5.686,87.41 v -93.09 z"
         style="fill:#d6d6d6"
         id="path3496" />
      <path
         d="m 620.531,273.38 -77.166,-5.68 -5.686,-87.41 v 93.09 z"
         style="fill:#f8f8f8"
         id="path3500" />
      <path
         d="m 620.531,180.292 -77.166,5.68 -5.686,87.41 v -93.09 z"
         style="fill:#f8f8f8"
         id="path3504" />
      <path
         d="m 620.531,298.132 -77.166,5.68 -5.686,63.08 v -68.76 z"
         style="fill:#808080"
         id="path3508" />
      <path
         d="m 537.68,366.892 77.166,-5.68 2.587,-28.7 -2.587,-28.7 -77.166,-5.68 h 82.852 v 68.76 z"
         style="fill:#9a9797"
         id="path3512" />
      <path
         d="m 620.531,366.9 -77.166,-5.68 -5.686,-63.08 v 68.76 c 0,0 26.274,8 39.81,8 13.808,0 43.042,-8 43.042,-8 z"
         style="fill:#808080"
         id="path3516" />
      <rect
         x="537.67664"
         y="109.05942"
         width="82.852516"
         height="46.47942"
         style="fill:#808080;stroke-width:0.951586"
         id="rect3520" />
      <path
         d="m 620.534,139.18 v -30.124 h -82.855 v 29.314 c 32.421,0.58 59.777,0.82 82.855,0.81 z"
         style="fill:#5d5d5d"
         id="path3524" />
      <path
         d="m 579.106,112.1 -35.741,2.63 -5.686,40.81 v -46.484 c 25.473,-6.404 53.091,-6.404 82.855,0 v 46.484 l -5.69,-40.81 z"
         style="fill:#494949"
         id="path3528" />
      <path
         d="m 620.531,155.536 -77.166,-5.676 -5.686,-40.8 v 46.476 z"
         style="fill:#959595"
         id="path3532" />
      <path
         d="m 537.68,155.536 77.166,-5.676 5.686,-40.8 v 46.476 z"
         style="fill:#959595"
         id="path3536" />
      <path
         d="m 620.531,155.536 -77.166,-5.676 -5.686,-40.8 v 46.476 z"
         style="fill:#959595"
         id="path3540" />
      <path
         d="m 580.44162,112.60477 6.86178,13.92964 h 22.20584 l -17.96515,8.60927 6.86178,13.93319 -17.96425,-8.60927 -17.96515,8.60927 6.86178,-13.93319 -17.96425,-8.60927 h 22.20584 z"
         style="fill:#717171;stroke-width:0.727541"
         id="path3544" />
      <path
         d="m 567.525,138.83 1.813,-3.68 -17.964,-8.61 h 22.205 l 6.862,-13.94 6.862,13.94 h 22.201 l -17.96,8.61 1.942,3.94 c -8.202,-0.06 -16.847,-0.15 -25.961,-0.26 z"
         style="fill:#575757"
         id="path3548" />
      <path
         d="m 587.9484,307.95246 17.28778,11.36087 -8.64423,10.76197 13.98657,4.11289 -6.6031,18.38273 -13.98657,-4.11289 v 13.30425 h -21.36936 v -13.30425 l -13.98657,4.11289 -6.6031,-18.38273 13.98589,-4.11289 -8.64355,-10.76197 17.28778,-11.36087 8.64423,10.76197 z"
         style="fill:#9e9e9e;stroke-width:0.642578"
         id="path3552" />
      <path
         d="m 607.274,343.384 -3.299,9.185 -13.987,-4.11 v 13.302 h -21.369 v -13.302 l -13.986,4.11 -2.891,-8.047 z"
         style="fill:#828282"
         id="path3556" />
      <path
         d="m 616.894,160.842 h -75.576 c 1.655,3.35 2.121,6.69 1.512,9.93 h 72.552 c -0.609,-3.24 -0.143,-6.58 1.512,-9.93 z"
         style="fill:#d2d1d1"
         id="path3560" />
      <path
         d="m 616.894,278.7 h -75.576 c 1.655,3.35 2.121,6.69 1.512,9.93 h 72.552 c -0.609,-3.24 -0.143,-6.58 1.512,-9.93 z"
         style="fill:#d2d1d1"
         id="path3564" />
      <path
         d="M 615.882,163.322 H 542.33 c 0.266,0.83 0.462,1.66 0.587,2.48 h 72.378 c 0.125,-0.82 0.321,-1.65 0.587,-2.48 z"
         style="fill:#f0f0f0"
         id="path3568" />
      <path
         d="M 615.882,281.18 H 542.33 c 0.266,0.83 0.462,1.66 0.587,2.48 h 72.378 c 0.125,-0.82 0.321,-1.65 0.587,-2.48 z"
         style="fill:#f0f0f0"
         id="path3572" />
      <path
         d="m 537.68,273.38 77.166,-5.68 5.686,-87.41 v 93.09 z"
         style="fill:#d6d6d6"
         id="path3576" />
      <path
         d="m 580.14536,222.23979 c 6.15999,-23.80805 18.47051,-23.80805 24.63049,-17.49552 6.15999,6.32614 6.15999,18.96481 0,31.60349 -4.30821,9.4824 -15.39051,18.9512 -24.63049,25.27734 -9.23998,-6.32614 -20.33173,-15.79494 -24.63994,-25.27734 -6.15999,-12.63868 -6.15999,-25.27735 0,-31.60349 6.15998,-6.31253 18.47995,-6.31253 24.63994,17.49552 z"
         id="path3580"
         style="stroke-width:1.13373" />
    </g>
  </g>
</svg>
