<?xml version="1.0" encoding="UTF-8" standalone="no"?>
<svg
   xmlns:dc="http://purl.org/dc/elements/1.1/"
   xmlns:cc="http://creativecommons.org/ns#"
   xmlns:rdf="http://www.w3.org/1999/02/22-rdf-syntax-ns#"
   xmlns:svg="http://www.w3.org/2000/svg"
   xmlns="http://www.w3.org/2000/svg"
   xmlns:sodipodi="http://sodipodi.sourceforge.net/DTD/sodipodi-0.dtd"
   xmlns:inkscape="http://www.inkscape.org/namespaces/inkscape"
   sodipodi:docname="2022-NL-03-solution02.svg"
   inkscape:version="1.0 (4035a4fb49, 2020-05-01)"
   id="svg16459"
   version="1.1"
   viewBox="0 0 175.00031 110.1677"
   height="110.1677mm"
   width="175.00031mm">
  <defs
     id="defs16453" />
  <sodipodi:namedview
     showgrid="false"
     inkscape:document-rotation="0"
     inkscape:current-layer="layer1"
     inkscape:document-units="mm"
     inkscape:cy="560"
     inkscape:cx="400"
     inkscape:zoom="0.35"
     inkscape:pageshadow="2"
     inkscape:pageopacity="0.0"
     borderopacity="1.0"
     bordercolor="#666666"
     pagecolor="#ffffff"
     id="base" />
  <metadata
     id="metadata16456">
    <rdf:RDF>
      <cc:Work
         rdf:about="">
        <dc:format>image/svg+xml</dc:format>
        <dc:type
           rdf:resource="http://purl.org/dc/dcmitype/StillImage" />
        <dc:title></dc:title>
      </cc:Work>
    </rdf:RDF>
  </metadata>
  <g
     transform="translate(-57.046768,-84.775063)"
     id="layer1"
     inkscape:groupmode="layer"
     inkscape:label="Ebene 1">
    <g
       transform="matrix(0.26458333,0,0,0.26458333,28.646593,-589.71017)"
       style="clip-rule:evenodd;fill-rule:evenodd;stroke-linecap:round;stroke-linejoin:round;stroke-miterlimit:1.5"
       id="g3358">
      <g
         transform="translate(-194.667,129.799)"
         id="g2888">
        <g
           transform="matrix(0.8956,0,0,0.96842,-684.936,1675.69)"
           id="g2688">
          <path
             d="m 1840.51,774.023 c 0,-3.324 -2.92,-6.023 -6.51,-6.023 h -725.5 c -3.59,0 -6.51,2.699 -6.51,6.023 v 417.907 c 0,3.33 2.92,6.03 6.51,6.03 H 1834 c 3.59,0 6.51,-2.7 6.51,-6.03 z"
             style="fill:#894920"
             id="path2686" />
        </g>
        <g
           transform="matrix(0.872152,0,0,0.93162,-650.466,1712.1)"
           id="g2692">
          <rect
             x="1101.99"
             y="768"
             width="738.51898"
             height="429.95801"
             style="fill:#a56e4b"
             id="rect2690" />
        </g>
        <g
           transform="rotate(90,-443.32,1911.08)"
           id="g2776">
          <g
             transform="matrix(-0.992463,0,0,-0.839028,951.402,1025.34)"
             id="g2696">
            <path
               d="m 561.951,226.837 h -68.218 c -8.345,-0.695 -12.152,4.349 -12.42,13.535 v 64.123 c -0.495,14.354 5.361,17.55 11.447,18.021 0,0 45.324,0.026 69.191,-0.331 z"
               style="fill:#dcafcb;stroke:#8030aa;stroke-width:2.18px"
               id="path2694" />
          </g>
          <g
             transform="matrix(-0.998881,0,0,-1.12091,978.795,2047)"
             id="g2700">
            <path
               d="m 575.336,1092.62 c 0,-2.17 -1.981,-3.94 -4.42,-3.94 h -51.227 c -2.44,0 -4.42,1.77 -4.42,3.94 v 45.65 c 0,2.18 1.98,3.94 4.42,3.94 h 51.227 c 2.439,0 4.42,-1.76 4.42,-3.94 z"
               style="fill:#40211f"
               id="path2698" />
          </g>
          <g
             transform="rotate(180,500.155,951.95)"
             id="g2704">
            <path
               d="m 541.068,1128.79 c -2.714,-16.32 -5.649,-48.76 -0.445,-51.57 -2.437,0 -4.415,1.97 -4.415,4.41 v 51.17 c 0,2.44 1.978,4.42 4.415,4.42 h 51.17 c 1.163,0 2.222,-0.45 3.011,-1.19 0.77,-0.72 -32.035,-2.14 -49.321,-2.82 -2.436,0 -4.415,-1.98 -4.415,-4.42 z"
               style="fill:#271817"
               id="path2702" />
          </g>
          <g
             transform="matrix(-0.955037,0,0,-0.954814,974.907,1853.87)"
             id="g2708">
            <path
               d="m 540.623,1077.22 c -2.092,0 -0.946,3.34 3.908,3.25 11.81,-0.22 32.502,-0.59 35.4,-0.57 14.709,0.12 15.793,6.93 13.428,15.93 -4.423,16.82 -0.554,49.93 2.849,36.97 v -51.17 c 0,-2.44 -1.979,-4.41 -4.415,-4.41 z"
               style="fill:#664f4d"
               id="path2706" />
          </g>
          <g
             transform="matrix(-0.992463,0,0,-0.839028,791.162,1025.34)"
             id="g2712">
            <rect
               x="481.31299"
               y="226.83701"
               width="80.639"
               height="95.348"
               style="fill:#dcafcb;stroke:#8030aa;stroke-width:2.18px"
               id="rect2710" />
          </g>
          <g
             transform="matrix(-0.992463,0,0,-0.839028,871.255,1025.34)"
             id="g2716">
            <rect
               x="481.31299"
               y="226.83701"
               width="80.639"
               height="95.348"
               style="fill:#dcafcb;stroke:#8030aa;stroke-width:2.18px"
               id="rect2714" />
          </g>
          <g
             transform="matrix(-0.992463,0,0,-0.839028,711.131,1025.34)"
             id="g2720">
            <rect
               x="481.31299"
               y="226.83701"
               width="80.639"
               height="95.348"
               style="fill:#dcafcb;stroke:#8030aa;stroke-width:2.18px"
               id="rect2718" />
          </g>
          <g
             transform="matrix(-0.992463,0,0,-0.839028,631.1,1025.34)"
             id="g2724">
            <path
               d="m 561.951,240.371 c -0.045,-8.274 -3.24,-13.49 -12.42,-13.534 h -68.218 v 95.348 h 67.199 c 10.387,0.618 14.64,-5.666 13.439,-17.941 z"
               style="fill:#dcafcb;stroke:#8030aa;stroke-width:2.18px"
               id="path2722" />
          </g>
          <g
             transform="matrix(-0.998881,0,0,-1.12091,818.076,2045.34)"
             id="g2728">
            <path
               d="m 575.336,1092.62 c 0,-2.17 -1.981,-3.94 -4.42,-3.94 h -51.227 c -2.44,0 -4.42,1.77 -4.42,3.94 v 45.65 c 0,2.18 1.98,3.94 4.42,3.94 h 51.227 c 2.439,0 4.42,-1.76 4.42,-3.94 z"
               style="fill:#40211f"
               id="path2726" />
          </g>
          <g
             transform="rotate(180,419.796,951.115)"
             id="g2732">
            <path
               d="m 541.068,1128.79 c -2.714,-16.32 -5.649,-48.76 -0.445,-51.57 -2.437,0 -4.415,1.97 -4.415,4.41 v 51.17 c 0,2.44 1.978,4.42 4.415,4.42 h 51.17 c 1.163,0 2.222,-0.45 3.011,-1.19 0.77,-0.72 -32.035,-2.14 -49.321,-2.82 -2.436,0 -4.415,-1.98 -4.415,-4.42 z"
               style="fill:#271817"
               id="path2730" />
          </g>
          <g
             transform="matrix(-0.955037,0,0,-0.954814,814.188,1852.2)"
             id="g2736">
            <path
               d="m 540.623,1077.22 c -2.092,0 -0.946,3.34 3.908,3.25 11.81,-0.22 32.502,-0.59 35.4,-0.57 14.709,0.12 15.793,6.93 13.428,15.93 -4.423,16.82 -0.554,49.93 2.849,36.97 v -51.17 c 0,-2.44 -1.979,-4.41 -4.415,-4.41 z"
               style="fill:#664f4d"
               id="path2734" />
          </g>
          <g
             transform="matrix(-0.998881,0,0,-1.12091,898.169,2045.34)"
             id="g2740">
            <path
               d="m 575.336,1092.62 c 0,-2.17 -1.981,-3.94 -4.42,-3.94 h -51.227 c -2.44,0 -4.42,1.77 -4.42,3.94 v 45.65 c 0,2.18 1.98,3.94 4.42,3.94 h 51.227 c 2.439,0 4.42,-1.76 4.42,-3.94 z"
               style="fill:#40211f"
               id="path2738" />
          </g>
          <g
             transform="rotate(180,459.8425,951.115)"
             id="g2744">
            <path
               d="m 541.068,1128.79 c -2.714,-16.32 -5.649,-48.76 -0.445,-51.57 -2.437,0 -4.415,1.97 -4.415,4.41 v 51.17 c 0,2.44 1.978,4.42 4.415,4.42 h 51.17 c 1.163,0 2.222,-0.45 3.011,-1.19 0.77,-0.72 -32.035,-2.14 -49.321,-2.82 -2.436,0 -4.415,-1.98 -4.415,-4.42 z"
               style="fill:#271817"
               id="path2742" />
          </g>
          <g
             transform="matrix(-0.955037,0,0,-0.954814,894.281,1852.2)"
             id="g2748">
            <path
               d="m 540.623,1077.22 c -2.092,0 -0.946,3.34 3.908,3.25 11.81,-0.22 32.502,-0.59 35.4,-0.57 14.709,0.12 15.793,6.93 13.428,15.93 -4.423,16.82 -0.554,49.93 2.849,36.97 v -51.17 c 0,-2.44 -1.979,-4.41 -4.415,-4.41 z"
               style="fill:#664f4d"
               id="path2746" />
          </g>
          <g
             transform="matrix(-0.998881,0,0,-1.12091,739.313,2047.08)"
             id="g2752">
            <path
               d="m 575.336,1092.62 c 0,-2.17 -1.981,-3.94 -4.42,-3.94 h -51.227 c -2.44,0 -4.42,1.77 -4.42,3.94 v 45.65 c 0,2.18 1.98,3.94 4.42,3.94 h 51.227 c 2.439,0 4.42,-1.76 4.42,-3.94 z"
               style="fill:#40211f"
               id="path2750" />
          </g>
          <g
             transform="rotate(180,380.4145,951.985)"
             id="g2756">
            <path
               d="m 541.068,1128.79 c -2.714,-16.32 -5.649,-48.76 -0.445,-51.57 -2.437,0 -4.415,1.97 -4.415,4.41 v 51.17 c 0,2.44 1.978,4.42 4.415,4.42 h 51.17 c 1.163,0 2.222,-0.45 3.011,-1.19 0.77,-0.72 -32.035,-2.14 -49.321,-2.82 -2.436,0 -4.415,-1.98 -4.415,-4.42 z"
               style="fill:#271817"
               id="path2754" />
          </g>
          <g
             transform="matrix(-0.955037,0,0,-0.954814,735.426,1853.94)"
             id="g2760">
            <path
               d="m 540.623,1077.22 c -2.092,0 -0.946,3.34 3.908,3.25 11.81,-0.22 32.502,-0.59 35.4,-0.57 14.709,0.12 15.793,6.93 13.428,15.93 -4.423,16.82 -0.554,49.93 2.849,36.97 v -51.17 c 0,-2.44 -1.979,-4.41 -4.415,-4.41 z"
               style="fill:#664f4d"
               id="path2758" />
          </g>
          <g
             transform="matrix(-0.998881,0,0,-1.12091,658.56,2045.54)"
             id="g2764">
            <path
               d="m 575.336,1092.62 c 0,-2.17 -1.981,-3.94 -4.42,-3.94 h -51.227 c -2.44,0 -4.42,1.77 -4.42,3.94 v 45.65 c 0,2.18 1.98,3.94 4.42,3.94 h 51.227 c 2.439,0 4.42,-1.76 4.42,-3.94 z"
               style="fill:#40211f"
               id="path2762" />
          </g>
          <g
             transform="rotate(180,340.038,951.22)"
             id="g2768">
            <path
               d="m 541.068,1128.79 c -2.714,-16.32 -5.649,-48.76 -0.445,-51.57 -2.437,0 -4.415,1.97 -4.415,4.41 v 51.17 c 0,2.44 1.978,4.42 4.415,4.42 h 51.17 c 1.163,0 2.222,-0.45 3.011,-1.19 0.77,-0.72 -32.035,-2.14 -49.321,-2.82 -2.436,0 -4.415,-1.98 -4.415,-4.42 z"
               style="fill:#271817"
               id="path2766" />
          </g>
          <g
             transform="matrix(-0.955037,0,0,-0.954814,654.673,1852.41)"
             id="g2772">
            <path
               d="m 540.623,1077.22 c -2.092,0 -0.946,3.34 3.908,3.25 11.81,-0.22 32.502,-0.59 35.4,-0.57 14.709,0.12 15.793,6.93 13.428,15.93 -0.889,3.37 -1.443,7.41 -1.733,11.6 -1.154,16.66 1.862,35.72 4.582,25.37 v -51.17 c 0,-2.44 -1.979,-4.41 -4.415,-4.41 z"
               style="fill:#664f4d"
               id="path2770" />
          </g>
          <path
             d="m 393.686,781.748 v 17.521 c 4.407,8.151 8.559,16.133 12.233,22.617 3.25,5.735 6.209,10.351 8.649,13.13 h 11.211 c 0.02,-0.231 0.022,-0.466 0.004,-0.705 -0.16,-2.058 -1.757,-3.664 -3.731,-3.907 -0.264,-0.228 -0.818,-0.718 -1.19,-1.142 -2.126,-2.422 -4.652,-6.531 -7.516,-11.585 -5.687,-10.035 -12.518,-23.625 -19.66,-35.929 z m 0,29.677 v 16.706 c 1.41,2.504 2.501,4.549 3.176,5.982 0.107,0.229 0.222,0.497 0.311,0.711 0.002,0.064 0.006,0.128 0.012,0.192 h 8.562 c 0.008,-0.075 0.015,-0.153 0.021,-0.232 0.041,-0.599 -0.166,-2.148 -1.183,-4.308 -1.653,-3.509 -5.727,-10.552 -10.899,-19.051 z m -74.079,-56.41 h -6.068 v 6.119 c 0.75,0.905 1.596,1.962 2.394,3.039 12.632,17.044 39.832,60.662 45.926,70.702 l 0.085,0.14 h 9.099 c 0.02,-0.502 -0.056,-1.08 -0.294,-1.732 -0.043,-0.12 -0.564,-1.142 -1.592,-2.837 -6.151,-10.134 -33.615,-54.152 -46.365,-71.356 -1.168,-1.576 -2.24,-2.943 -3.185,-4.075 z m 15.899,0 h -10.495 c 0.055,1.386 0.783,2.716 2.048,3.484 0.087,0.091 3.419,3.585 6.298,7.196 14.262,17.886 43.121,59.329 49.319,69.187 l 0.084,0.133 h 8.984 l 0.006,-0.093 c 0.015,-0.346 0.003,-0.855 -0.194,-1.499 -0.104,-0.342 -0.621,-1.443 -1.653,-3.085 -6.268,-9.969 -35.45,-51.878 -49.871,-69.965 -1.683,-2.111 -3.214,-3.913 -4.526,-5.358 z m 29.714,75.745 c -0.568,0.214 -1.098,0.554 -1.549,1.018 -0.587,0.606 -0.958,1.341 -1.115,2.111 0.329,-1.83 1.444,-2.705 2.664,-3.129 z m 19.008,1.216 c -0.165,0.187 -0.321,0.397 -0.46,0.634 -0.138,0.237 -0.259,0.501 -0.351,0.796 0.177,-0.53 0.454,-1.014 0.811,-1.43 z m 0.028,-0.032 -0.01,0.011 0.028,-0.031 z m 15.029,-0.989 c -0.17,0.098 -0.333,0.207 -0.488,0.328 -0.156,0.122 -0.303,0.256 -0.441,0.403 0.268,-0.281 0.579,-0.528 0.929,-0.731 z m -32.524,-0.509 c -0.357,0.011 -0.661,0.07 -0.888,0.125 0.668,-0.138 1.364,-0.114 2.024,0.072 0.598,0.168 1.166,0.469 1.66,0.904 l 0.097,0.089 c -1.012,-0.957 -2.011,-1.192 -2.784,-1.192 z m 18.262,0.81 c 0.332,-0.233 0.699,-0.42 1.092,-0.551 0.392,-0.132 0.811,-0.207 1.246,-0.218 -0.935,0.023 -1.702,0.313 -2.338,0.769 z m -28.275,-76.241 h -10.02 c 0.069,1.067 0.535,2.108 1.388,2.883 4.946,4.492 34.514,50.645 45.454,70.028 v -16.691 c -11.831,-19.431 -29.33,-46.37 -36.822,-56.22 z m 17.474,0 h -11.74 c 0.094,1.411 0.884,2.744 2.215,3.471 5.253,2.864 10.727,10.084 16.29,18.786 4.29,6.71 8.542,14.311 12.583,21.783 V 781.55 c -1.783,-3.067 -3.583,-6.05 -5.39,-8.876 -4.635,-7.248 -9.386,-13.468 -13.958,-17.659 z m -60.745,6.045 v -6.045 h -4.586 c 0.103,1.605 1.094,2.97 2.487,3.606 0.313,0.349 1.12,1.26 2.099,2.439 z m 13.582,-2.561 0.091,0.054 c -0.026,-0.015 -0.092,-0.055 -0.092,-0.055 z"
             style="fill:#8030aa"
             id="path2774" />
        </g>
        <g
           transform="rotate(-90,1372.9215,2113.7085)"
           id="g2886">
          <g
             id="g2884">
            <g
               id="g2882">
              <g
                 transform="matrix(-0.992079,0,0,-0.839028,1536.33,1562.19)"
                 id="g2780">
                <path
                   d="m 561.951,226.837 h -64.875 c -12.571,-1.641 -17.059,3.165 -15.763,20.811 v 74.537 h 80.638 z"
                   style="fill:#ffffff;stroke:#ffa300;stroke-width:2.18px"
                   id="path2778" />
              </g>
              <g
                 transform="matrix(-0.992079,0,0,-0.839028,1536.39,1482.19)"
                 id="g2784">
                <rect
                   x="481.31299"
                   y="226.83701"
                   width="80.639"
                   height="95.348"
                   style="fill:#ffffff;stroke:#ffa300;stroke-width:2.18px"
                   id="rect2782" />
              </g>
              <g
                 transform="matrix(-0.992463,0,0,-0.839028,1536.64,1402.19)"
                 id="g2788">
                <path
                   d="m 561.951,226.837 h -80.638 v 77.658 c -0.495,14.354 5.361,17.55 11.447,18.021 0,0 45.324,0.026 69.191,-0.331 z"
                   style="fill:#ffffff;stroke:#ffa300;stroke-width:2.18px"
                   id="path2786" />
              </g>
              <g
                 transform="rotate(180,793.245,1220.41)"
                 id="g2800">
                <g
                   transform="matrix(0.998881,0,0,1.12091,21.5158,-143.106)"
                   id="g2792">
                  <path
                     d="m 575.336,1092.62 c 0,-2.17 -1.981,-3.94 -4.42,-3.94 h -51.227 c -2.44,0 -4.42,1.77 -4.42,3.94 v 45.65 c 0,2.18 1.98,3.94 4.42,3.94 h 51.227 c 2.439,0 4.42,-1.76 4.42,-3.94 z"
                     style="fill:#ffeeae"
                     id="path2790" />
                </g>
                <path
                   d="m 541.068,1128.79 c -2.714,-16.32 -5.649,-48.76 -0.445,-51.57 -2.437,0 -4.415,1.97 -4.415,4.41 v 51.17 c 0,2.44 1.978,4.42 4.415,4.42 h 51.17 c 1.163,0 2.222,-0.45 3.011,-1.19 0.77,-0.72 -32.035,-2.14 -49.321,-2.82 -2.436,0 -4.415,-1.98 -4.415,-4.42 z"
                   style="fill:#ebdb91"
                   id="path2794" />
                <g
                   transform="matrix(0.955037,0,0,0.954814,25.4036,50.0305)"
                   id="g2798">
                  <path
                     d="m 540.623,1077.22 c -2.092,0 -0.946,3.34 3.908,3.25 11.81,-0.22 32.502,-0.59 35.4,-0.57 14.709,0.12 15.793,6.93 13.428,15.93 -4.423,16.82 -0.554,49.93 2.849,36.97 v -51.17 c 0,-2.44 -1.979,-4.41 -4.415,-4.41 z"
                     style="fill:#fcd67d"
                     id="path2796" />
                </g>
              </g>
              <g
                 transform="rotate(180,792.57,1179.545)"
                 id="g2812">
                <g
                   transform="matrix(0.998881,0,0,1.12091,21.5158,-143.106)"
                   id="g2804">
                  <path
                     d="m 575.336,1092.62 c 0,-2.17 -1.981,-3.94 -4.42,-3.94 h -51.227 c -2.44,0 -4.42,1.77 -4.42,3.94 v 45.65 c 0,2.18 1.98,3.94 4.42,3.94 h 51.227 c 2.439,0 4.42,-1.76 4.42,-3.94 z"
                     style="fill:#ffeeae"
                     id="path2802" />
                </g>
                <path
                   d="m 541.068,1128.79 c -2.714,-16.32 -5.649,-48.76 -0.445,-51.57 -2.437,0 -4.415,1.97 -4.415,4.41 v 51.17 c 0,2.44 1.978,4.42 4.415,4.42 h 51.17 c 1.163,0 2.222,-0.45 3.011,-1.19 0.77,-0.72 -32.035,-2.14 -49.321,-2.82 -2.436,0 -4.415,-1.98 -4.415,-4.42 z"
                   style="fill:#ebdb91"
                   id="path2806" />
                <g
                   transform="matrix(0.955037,0,0,0.954814,25.4036,50.0305)"
                   id="g2810">
                  <path
                     d="m 540.623,1077.22 c -2.092,0 -0.946,3.34 3.908,3.25 11.81,-0.22 32.502,-0.59 35.4,-0.57 14.709,0.12 15.793,6.93 13.428,15.93 -4.423,16.82 -0.554,49.93 2.849,36.97 v -51.17 c 0,-2.44 -1.979,-4.41 -4.415,-4.41 z"
                     style="fill:#fcd67d"
                     id="path2808" />
                </g>
              </g>
              <g
                 transform="rotate(180,792.775,1140.375)"
                 id="g2824">
                <g
                   transform="matrix(0.998881,0,0,1.12091,21.5158,-143.106)"
                   id="g2816">
                  <path
                     d="m 575.336,1092.62 c 0,-2.17 -1.981,-3.94 -4.42,-3.94 h -51.227 c -2.44,0 -4.42,1.77 -4.42,3.94 v 45.65 c 0,2.18 1.98,3.94 4.42,3.94 h 51.227 c 2.439,0 4.42,-1.76 4.42,-3.94 z"
                     style="fill:#ffeeae"
                     id="path2814" />
                </g>
                <path
                   d="m 541.068,1128.79 c -2.714,-16.32 -5.649,-48.76 -0.445,-51.57 -2.437,0 -4.415,1.97 -4.415,4.41 v 51.17 c 0,2.44 1.978,4.42 4.415,4.42 h 51.17 c 1.163,0 2.222,-0.45 3.011,-1.19 0.77,-0.72 -32.035,-2.14 -49.321,-2.82 -2.436,0 -4.415,-1.98 -4.415,-4.42 z"
                   style="fill:#ebdb91"
                   id="path2818" />
                <g
                   transform="matrix(0.955037,0,0,0.954814,25.4036,50.0305)"
                   id="g2822">
                  <path
                     d="m 540.623,1077.22 c -2.092,0 -0.946,3.34 3.908,3.25 11.81,-0.22 32.502,-0.59 35.4,-0.57 14.709,0.12 15.793,6.93 13.428,15.93 -4.423,16.82 -0.554,49.93 2.849,36.97 v -51.17 c 0,-2.44 -1.979,-4.41 -4.415,-4.41 z"
                     style="fill:#fcd67d"
                     id="path2820" />
                </g>
              </g>
              <g
                 transform="matrix(-0.992079,0,0,-0.839028,1456.26,1562.15)"
                 id="g2828">
                <path
                   d="m 561.951,243.228 c 0.224,-12.61 -5.089,-17.141 -14.421,-16.391 h -66.217 v 95.348 h 80.638 z"
                   style="fill:#ffffff;stroke:#ffa300;stroke-width:2.18px"
                   id="path2826" />
              </g>
              <g
                 transform="matrix(-0.992079,0,0,-0.839028,1456.32,1482.15)"
                 id="g2832">
                <rect
                   x="481.31299"
                   y="226.83701"
                   width="80.639"
                   height="95.348"
                   style="fill:#ffffff;stroke:#ffa300;stroke-width:2.18px"
                   id="rect2830" />
              </g>
              <g
                 transform="matrix(-0.992463,0,0,-0.839028,1456.47,1402.15)"
                 id="g2836">
                <path
                   d="m 561.951,226.837 h -80.638 v 95.348 h 67.199 c 10.387,0.618 14.64,-5.666 13.439,-17.941 z"
                   style="fill:#ffffff;stroke:#ffa300;stroke-width:2.18px"
                   id="path2834" />
              </g>
              <g
                 transform="matrix(-0.998881,0,0,-1.12091,1485.92,2502.15)"
                 id="g2840">
                <path
                   d="m 575.336,1092.62 c 0,-2.17 -1.981,-3.94 -4.42,-3.94 h -51.227 c -2.44,0 -4.42,1.77 -4.42,3.94 v 45.65 c 0,2.18 1.98,3.94 4.42,3.94 h 51.227 c 2.439,0 4.42,-1.76 4.42,-3.94 z"
                   style="fill:#ffeeae"
                   id="path2838" />
              </g>
              <g
                 transform="rotate(180,753.72,1179.52)"
                 id="g2844">
                <path
                   d="m 541.068,1128.79 c -2.714,-16.32 -5.649,-48.76 -0.445,-51.57 -2.437,0 -4.415,1.97 -4.415,4.41 v 51.17 c 0,2.44 1.978,4.42 4.415,4.42 h 51.17 c 1.163,0 2.222,-0.45 3.011,-1.19 0.77,-0.72 -32.035,-2.14 -49.321,-2.82 -2.436,0 -4.415,-1.98 -4.415,-4.42 z"
                   style="fill:#ebdb91"
                   id="path2842" />
              </g>
              <g
                 transform="matrix(-0.955037,0,0,-0.954814,1482.04,2309.01)"
                 id="g2848">
                <path
                   d="m 540.623,1077.22 c -2.092,0 -0.946,3.34 3.908,3.25 11.81,-0.22 32.502,-0.59 35.4,-0.57 14.709,0.12 15.793,6.93 13.428,15.93 -4.423,16.82 -0.554,49.93 2.849,36.97 v -51.17 c 0,-2.44 -1.979,-4.41 -4.415,-4.41 z"
                   style="fill:#fcd67d"
                   id="path2846" />
              </g>
              <g
                 transform="matrix(-0.998881,0,0,-1.12091,1483.51,2582.27)"
                 id="g2852">
                <path
                   d="m 575.336,1092.62 c 0,-2.17 -1.981,-3.94 -4.42,-3.94 h -51.227 c -2.44,0 -4.42,1.77 -4.42,3.94 v 45.65 c 0,2.18 1.98,3.94 4.42,3.94 h 51.227 c 2.439,0 4.42,-1.76 4.42,-3.94 z"
                   style="fill:#ffeeae"
                   id="path2850" />
              </g>
              <g
                 transform="rotate(180,752.51,1219.585)"
                 id="g2856">
                <path
                   d="m 541.068,1128.79 c -2.714,-16.32 -5.649,-48.76 -0.445,-51.57 -2.437,0 -4.415,1.97 -4.415,4.41 v 51.17 c 0,2.44 1.978,4.42 4.415,4.42 h 51.17 c 1.163,0 2.222,-0.45 3.011,-1.19 0.77,-0.72 -32.035,-2.14 -49.321,-2.82 -2.436,0 -4.415,-1.98 -4.415,-4.42 z"
                   style="fill:#ebdb91"
                   id="path2854" />
              </g>
              <g
                 transform="matrix(-0.955037,0,0,-0.954814,1479.62,2389.13)"
                 id="g2860">
                <path
                   d="m 540.623,1077.22 c -2.092,0 -0.946,3.34 3.908,3.25 11.81,-0.22 32.502,-0.59 35.4,-0.57 14.709,0.12 15.793,6.93 13.428,15.93 -4.423,16.82 -0.554,49.93 2.849,36.97 v -51.17 c 0,-2.44 -1.979,-4.41 -4.415,-4.41 z"
                   style="fill:#fcd67d"
                   id="path2858" />
              </g>
              <g
                 transform="matrix(-0.998881,0,0,-1.12091,1483.93,2422.35)"
                 id="g2864">
                <path
                   d="m 575.336,1092.62 c 0,-2.17 -1.981,-3.94 -4.42,-3.94 h -51.227 c -2.44,0 -4.42,1.77 -4.42,3.94 v 45.65 c 0,2.18 1.98,3.94 4.42,3.94 h 51.227 c 2.439,0 4.42,-1.76 4.42,-3.94 z"
                   style="fill:#ffeeae"
                   id="path2862" />
              </g>
              <g
                 transform="rotate(180,752.725,1139.625)"
                 id="g2868">
                <path
                   d="m 541.068,1128.79 c -2.714,-16.32 -5.649,-48.76 -0.445,-51.57 -2.437,0 -4.415,1.97 -4.415,4.41 v 51.17 c 0,2.44 1.978,4.42 4.415,4.42 h 51.17 c 1.163,0 2.222,-0.45 3.011,-1.19 0.77,-0.72 -32.035,-2.14 -49.321,-2.82 -2.436,0 -4.415,-1.98 -4.415,-4.42 z"
                   style="fill:#ebdb91"
                   id="path2866" />
              </g>
              <g
                 transform="matrix(-0.955037,0,0,-0.954814,1480.05,2229.22)"
                 id="g2872">
                <path
                   d="m 540.623,1077.22 c -2.092,0 -0.946,3.34 3.908,3.25 11.81,-0.22 32.502,-0.59 35.4,-0.57 14.709,0.12 15.793,6.93 13.428,15.93 -4.423,16.82 -0.554,49.93 2.849,36.97 v -51.17 c 0,-2.44 -1.979,-4.41 -4.415,-4.41 z"
                   style="fill:#fcd67d"
                   id="path2870" />
              </g>
              <g
                 transform="rotate(90,760.2325,1504.2975)"
                 id="g2876">
                <path
                   d="m 628.311,1299.56 c -0.282,0.76 -237.808,-1.97 -240.915,-1.97 -0.755,0 0,16.57 0,16.57 0,0 0.911,0.08 0,0 -0.335,-0.03 241.422,5.57 241.589,2.77 0.658,-11.03 -0.299,-18.39 -0.674,-17.37 z"
                   style="fill:#ffa300"
                   id="path2874" />
              </g>
              <g
                 transform="rotate(90,772.984,1517.246)"
                 id="g2880">
                <path
                   d="m 628.311,1299.56 c -0.282,0.76 -237.808,-1.97 -240.915,-1.97 -0.755,0 0,16.57 0,16.57 0,0 0.911,0.08 0,0 -0.335,-0.03 241.422,5.57 241.589,2.77 0.658,-11.03 -0.299,-18.39 -0.674,-17.37 z"
                   style="fill:#ffa300"
                   id="path2878" />
              </g>
            </g>
          </g>
        </g>
      </g>
      <g
         transform="rotate(-90,1783.8979,1717.3121)"
         id="g3090">
        <g
           transform="matrix(0,0.992079,-0.839028,0,974.011,-426.951)"
           id="g2892">
          <path
             d="m 561.951,226.837 h -64.875 c -12.571,-1.641 -17.059,3.165 -15.763,20.811 v 74.537 h 80.638 z"
             style="fill:#e9e3de;stroke:#c68a8a;stroke-width:2.18px"
             id="path2890" />
        </g>
        <g
           transform="matrix(0,0.992079,-0.839028,0,894.011,-427.013)"
           id="g2896">
          <rect
             x="481.31299"
             y="226.83701"
             width="80.639"
             height="95.348"
             style="fill:#e9e3de;stroke:#c68a8a;stroke-width:2.18px"
             id="rect2894" />
        </g>
        <g
           transform="matrix(0,0.992463,-0.839028,0,814.011,-427.26)"
           id="g2900">
          <path
             d="m 561.951,226.837 h -80.638 v 77.658 c -1.298,15.145 3.2,19.141 11.447,18.021 0,0 45.324,0.026 69.191,-0.331 z"
             style="fill:#e9e3de;stroke:#c68a8a;stroke-width:2.18px"
             id="path2898" />
        </g>
        <g
           transform="matrix(0,0.992079,-0.839028,0,974.011,-346.951)"
           id="g2904">
          <rect
             x="481.31299"
             y="226.83701"
             width="80.639"
             height="95.348"
             style="fill:#e9e3de;stroke:#c68a8a;stroke-width:2.18px"
             id="rect2902" />
        </g>
        <g
           transform="matrix(0,0.992079,-0.839028,0,894.011,-347.013)"
           id="g2908">
          <rect
             x="481.31299"
             y="226.83701"
             width="80.639"
             height="95.348"
             style="fill:#e9e3de;stroke:#c68a8a;stroke-width:2.18px"
             id="rect2906" />
        </g>
        <g
           transform="matrix(0,0.992463,-0.839028,0,814.011,-347.229)"
           id="g2912">
          <rect
             x="481.31299"
             y="226.83701"
             width="80.639"
             height="95.348"
             style="fill:#e9e3de;stroke:#c68a8a;stroke-width:2.18px"
             id="rect2910" />
        </g>
        <g
           transform="matrix(0,0.992079,-0.839028,0,974.011,-266.951)"
           id="g2916">
          <rect
             x="481.31299"
             y="226.83701"
             width="80.639"
             height="95.348"
             style="fill:#e9e3de;stroke:#c68a8a;stroke-width:2.18px"
             id="rect2914" />
        </g>
        <g
           transform="matrix(0,0.992079,-0.839028,0,894.011,-267.013)"
           id="g2920">
          <rect
             x="481.31299"
             y="226.83701"
             width="80.639"
             height="95.348"
             style="fill:#e9e3de;stroke:#c68a8a;stroke-width:2.18px"
             id="rect2918" />
        </g>
        <g
           transform="matrix(0,0.992463,-0.839028,0,814.011,-267.198)"
           id="g2924">
          <rect
             x="481.31299"
             y="226.83701"
             width="80.639"
             height="95.348"
             style="fill:#e9e3de;stroke:#c68a8a;stroke-width:2.18px"
             id="rect2922" />
        </g>
        <g
           transform="matrix(0,0.992079,-0.839028,0,974.011,-186.951)"
           id="g2928">
          <path
             d="m 561.951,243.228 c 0.224,-12.61 -5.089,-17.141 -14.421,-16.391 h -66.217 v 95.348 h 80.638 z"
             style="fill:#e9e3de;stroke:#c68a8a;stroke-width:2.18px"
             id="path2926" />
        </g>
        <g
           transform="matrix(0,0.992079,-0.839028,0,894.011,-187.013)"
           id="g2932">
          <rect
             x="481.31299"
             y="226.83701"
             width="80.639"
             height="95.348"
             style="fill:#e9e3de;stroke:#c68a8a;stroke-width:2.18px"
             id="rect2930" />
        </g>
        <g
           transform="matrix(0,0.992463,-0.839028,0,814.011,-187.167)"
           id="g2936">
          <path
             d="m 561.951,226.837 h -80.638 v 95.348 h 67.199 c 10.387,0.618 14.64,-5.666 13.439,-17.941 z"
             style="fill:#e9e3de;stroke:#c68a8a;stroke-width:2.18px"
             id="path2934" />
        </g>
        <g
           transform="rotate(90,1164.876,687.764)"
           id="g2948">
          <g
             transform="matrix(0.998881,0,0,1.12091,21.5158,-143.106)"
             id="g2940">
            <path
               d="m 575.336,1092.62 c 0,-2.17 -1.981,-3.94 -4.42,-3.94 h -51.227 c -2.44,0 -4.42,1.77 -4.42,3.94 v 45.65 c 0,2.18 1.98,3.94 4.42,3.94 h 51.227 c 2.439,0 4.42,-1.76 4.42,-3.94 z"
               style="fill:#6c483f"
               id="path2938" />
          </g>
          <path
             d="m 541.068,1128.79 c -2.714,-16.32 -5.649,-48.76 -0.445,-51.57 -2.437,0 -4.415,1.97 -4.415,4.41 v 51.17 c 0,2.44 1.978,4.42 4.415,4.42 h 51.17 c 1.163,0 2.222,-0.45 3.011,-1.19 0.77,-0.72 -32.035,-2.14 -49.321,-2.82 -2.436,0 -4.415,-1.98 -4.415,-4.42 z"
             style="fill:#4b332d"
             id="path2942" />
          <g
             transform="matrix(0.955037,0,0,0.954814,25.4036,50.0305)"
             id="g2946">
            <path
               d="m 540.623,1077.22 c -2.092,0 -0.946,3.34 3.908,3.25 11.81,-0.22 32.502,-0.59 35.4,-0.57 14.709,0.12 15.793,6.93 13.428,15.93 -4.423,16.82 -0.554,49.93 2.849,36.97 v -51.17 c 0,-2.44 -1.979,-4.41 -4.415,-4.41 z"
               style="fill:#825f56"
               id="path2944" />
          </g>
        </g>
        <g
           transform="rotate(90,1123.3335,647.5665)"
           id="g2960">
          <g
             transform="matrix(0.998881,0,0,1.12091,21.5158,-143.106)"
             id="g2952">
            <path
               d="m 575.336,1092.62 c 0,-2.17 -1.981,-3.94 -4.42,-3.94 h -51.227 c -2.44,0 -4.42,1.77 -4.42,3.94 v 45.65 c 0,2.18 1.98,3.94 4.42,3.94 h 51.227 c 2.439,0 4.42,-1.76 4.42,-3.94 z"
               style="fill:#6c483f"
               id="path2950" />
          </g>
          <path
             d="m 541.068,1128.79 c -2.714,-16.32 -5.649,-48.76 -0.445,-51.57 -2.437,0 -4.415,1.97 -4.415,4.41 v 51.17 c 0,2.44 1.978,4.42 4.415,4.42 h 51.17 c 1.163,0 2.222,-0.45 3.011,-1.19 0.77,-0.72 -32.035,-2.14 -49.321,-2.82 -2.436,0 -4.415,-1.98 -4.415,-4.42 z"
             style="fill:#4b332d"
             id="path2954" />
          <g
             transform="matrix(0.955037,0,0,0.954814,25.4036,50.0305)"
             id="g2958">
            <path
               d="m 540.623,1077.22 c -2.092,0 -0.946,3.34 3.908,3.25 11.81,-0.22 32.502,-0.59 35.4,-0.57 14.709,0.12 15.793,6.93 13.428,15.93 -4.423,16.82 -0.554,49.93 2.849,36.97 v -51.17 c 0,-2.44 -1.979,-4.41 -4.415,-4.41 z"
               style="fill:#825f56"
               id="path2956" />
          </g>
        </g>
        <g
           transform="rotate(90,1081.7955,607.3745)"
           id="g2972">
          <g
             transform="matrix(0.998881,0,0,1.12091,21.5158,-143.106)"
             id="g2964">
            <path
               d="m 575.336,1092.62 c 0,-2.17 -1.981,-3.94 -4.42,-3.94 h -51.227 c -2.44,0 -4.42,1.77 -4.42,3.94 v 45.65 c 0,2.18 1.98,3.94 4.42,3.94 h 51.227 c 2.439,0 4.42,-1.76 4.42,-3.94 z"
               style="fill:#6c483f"
               id="path2962" />
          </g>
          <path
             d="m 541.068,1128.79 c -2.714,-16.32 -5.649,-48.76 -0.445,-51.57 -2.437,0 -4.415,1.97 -4.415,4.41 v 51.17 c 0,2.44 1.978,4.42 4.415,4.42 h 51.17 c 1.163,0 2.222,-0.45 3.011,-1.19 0.77,-0.72 -32.035,-2.14 -49.321,-2.82 -2.436,0 -4.415,-1.98 -4.415,-4.42 z"
             style="fill:#4b332d"
             id="path2966" />
          <g
             transform="matrix(0.955037,0,0,0.954814,25.4036,50.0305)"
             id="g2970">
            <path
               d="m 540.623,1077.22 c -2.092,0 -0.946,3.34 3.908,3.25 11.81,-0.22 32.502,-0.59 35.4,-0.57 14.709,0.12 15.793,6.93 13.428,15.93 -4.423,16.82 -0.554,49.93 2.849,36.97 v -51.17 c 0,-2.44 -1.979,-4.41 -4.415,-4.41 z"
               style="fill:#825f56"
               id="path2968" />
          </g>
        </g>
        <g
           transform="rotate(90,1043.279,647.621)"
           id="g2984">
          <g
             transform="matrix(0.998881,0,0,1.12091,21.5158,-143.106)"
             id="g2976">
            <path
               d="m 575.336,1092.62 c 0,-2.17 -1.981,-3.94 -4.42,-3.94 h -51.227 c -2.44,0 -4.42,1.77 -4.42,3.94 v 45.65 c 0,2.18 1.98,3.94 4.42,3.94 h 51.227 c 2.439,0 4.42,-1.76 4.42,-3.94 z"
               style="fill:#6c483f"
               id="path2974" />
          </g>
          <path
             d="m 541.068,1128.79 c -2.714,-16.32 -5.649,-48.76 -0.445,-51.57 -2.437,0 -4.415,1.97 -4.415,4.41 v 51.17 c 0,2.44 1.978,4.42 4.415,4.42 h 51.17 c 1.163,0 2.222,-0.45 3.011,-1.19 0.77,-0.72 -32.035,-2.14 -49.321,-2.82 -2.436,0 -4.415,-1.98 -4.415,-4.42 z"
             style="fill:#4b332d"
             id="path2978" />
          <g
             transform="matrix(0.955037,0,0,0.954814,25.4036,50.0305)"
             id="g2982">
            <path
               d="m 540.623,1077.22 c -2.092,0 -0.946,3.34 3.908,3.25 11.81,-0.22 32.502,-0.59 35.4,-0.57 14.709,0.12 15.793,6.93 13.428,15.93 -4.423,16.82 -0.554,49.93 2.849,36.97 v -51.17 c 0,-2.44 -1.979,-4.41 -4.415,-4.41 z"
               style="fill:#825f56"
               id="path2980" />
          </g>
        </g>
        <g
           transform="rotate(90,1083.279,687.621)"
           id="g2996">
          <g
             transform="matrix(0.998881,0,0,1.12091,21.5158,-143.106)"
             id="g2988">
            <path
               d="m 575.336,1092.62 c 0,-2.17 -1.981,-3.94 -4.42,-3.94 h -51.227 c -2.44,0 -4.42,1.77 -4.42,3.94 v 45.65 c 0,2.18 1.98,3.94 4.42,3.94 h 51.227 c 2.439,0 4.42,-1.76 4.42,-3.94 z"
               style="fill:#6c483f"
               id="path2986" />
          </g>
          <path
             d="m 541.068,1128.79 c -2.714,-16.32 -5.649,-48.76 -0.445,-51.57 -2.437,0 -4.415,1.97 -4.415,4.41 v 51.17 c 0,2.44 1.978,4.42 4.415,4.42 h 51.17 c 1.163,0 2.222,-0.45 3.011,-1.19 0.77,-0.72 -32.035,-2.14 -49.321,-2.82 -2.436,0 -4.415,-1.98 -4.415,-4.42 z"
             style="fill:#4b332d"
             id="path2990" />
          <g
             transform="matrix(0.955037,0,0,0.954814,25.4036,50.0305)"
             id="g2994">
            <path
               d="m 540.623,1077.22 c -2.092,0 -0.946,3.34 3.908,3.25 11.81,-0.22 32.502,-0.59 35.4,-0.57 14.709,0.12 15.793,6.93 13.428,15.93 -4.423,16.82 -0.554,49.93 2.849,36.97 v -51.17 c 0,-2.44 -1.979,-4.41 -4.415,-4.41 z"
               style="fill:#825f56"
               id="path2992" />
          </g>
        </g>
        <g
           transform="rotate(90,1043.898,727.002)"
           id="g3008">
          <g
             transform="matrix(0.998881,0,0,1.12091,21.5158,-143.106)"
             id="g3000">
            <path
               d="m 575.336,1092.62 c 0,-2.17 -1.981,-3.94 -4.42,-3.94 h -51.227 c -2.44,0 -4.42,1.77 -4.42,3.94 v 45.65 c 0,2.18 1.98,3.94 4.42,3.94 h 51.227 c 2.439,0 4.42,-1.76 4.42,-3.94 z"
               style="fill:#6c483f"
               id="path2998" />
          </g>
          <path
             d="m 541.068,1128.79 c -2.714,-16.32 -5.649,-48.76 -0.445,-51.57 -2.437,0 -4.415,1.97 -4.415,4.41 v 51.17 c 0,2.44 1.978,4.42 4.415,4.42 h 51.17 c 1.163,0 2.222,-0.45 3.011,-1.19 0.77,-0.72 -32.035,-2.14 -49.321,-2.82 -2.436,0 -4.415,-1.98 -4.415,-4.42 z"
             style="fill:#4b332d"
             id="path3002" />
          <g
             transform="matrix(0.955037,0,0,0.954814,25.4036,50.0305)"
             id="g3006">
            <path
               d="m 540.623,1077.22 c -2.092,0 -0.946,3.34 3.908,3.25 11.81,-0.22 32.502,-0.59 35.4,-0.57 14.709,0.12 15.793,6.93 13.428,15.93 -4.423,16.82 -0.554,49.93 2.849,36.97 v -51.17 c 0,-2.44 -1.979,-4.41 -4.415,-4.41 z"
               style="fill:#825f56"
               id="path3004" />
          </g>
        </g>
        <g
           transform="rotate(90,1004.5165,766.3835)"
           id="g3020">
          <g
             transform="matrix(0.998881,0,0,1.12091,21.5158,-143.106)"
             id="g3012">
            <path
               d="m 575.336,1092.62 c 0,-2.17 -1.981,-3.94 -4.42,-3.94 h -51.227 c -2.44,0 -4.42,1.77 -4.42,3.94 v 45.65 c 0,2.18 1.98,3.94 4.42,3.94 h 51.227 c 2.439,0 4.42,-1.76 4.42,-3.94 z"
               style="fill:#6c483f"
               id="path3010" />
          </g>
          <path
             d="m 541.068,1128.79 c -2.714,-16.32 -5.649,-48.76 -0.445,-51.57 -2.437,0 -4.415,1.97 -4.415,4.41 v 51.17 c 0,2.44 1.978,4.42 4.415,4.42 h 51.17 c 1.163,0 2.222,-0.45 3.011,-1.19 0.77,-0.72 -32.035,-2.14 -49.321,-2.82 -2.436,0 -4.415,-1.98 -4.415,-4.42 z"
             style="fill:#4b332d"
             id="path3014" />
          <g
             transform="matrix(0.955037,0,0,0.954814,25.4036,50.0305)"
             id="g3018">
            <path
               d="m 540.623,1077.22 c -2.092,0 -0.946,3.34 3.908,3.25 11.81,-0.22 32.502,-0.59 35.4,-0.57 14.709,0.12 15.793,6.93 13.428,15.93 -4.423,16.82 -0.554,49.93 2.849,36.97 v -51.17 c 0,-2.44 -1.979,-4.41 -4.415,-4.41 z"
               style="fill:#825f56"
               id="path3016" />
          </g>
        </g>
        <g
           transform="rotate(90,1123.279,727.621)"
           id="g3032">
          <g
             transform="matrix(0.998881,0,0,1.12091,21.5158,-143.106)"
             id="g3024">
            <path
               d="m 575.336,1092.62 c 0,-2.17 -1.981,-3.94 -4.42,-3.94 h -51.227 c -2.44,0 -4.42,1.77 -4.42,3.94 v 45.65 c 0,2.18 1.98,3.94 4.42,3.94 h 51.227 c 2.439,0 4.42,-1.76 4.42,-3.94 z"
               style="fill:#6c483f"
               id="path3022" />
          </g>
          <path
             d="m 541.068,1128.79 c -2.714,-16.32 -5.649,-48.76 -0.445,-51.57 -2.437,0 -4.415,1.97 -4.415,4.41 v 51.17 c 0,2.44 1.978,4.42 4.415,4.42 h 51.17 c 1.163,0 2.222,-0.45 3.011,-1.19 0.77,-0.72 -32.035,-2.14 -49.321,-2.82 -2.436,0 -4.415,-1.98 -4.415,-4.42 z"
             style="fill:#4b332d"
             id="path3026" />
          <g
             transform="matrix(0.955037,0,0,0.954814,25.4036,50.0305)"
             id="g3030">
            <path
               d="m 540.623,1077.22 c -2.092,0 -0.946,3.34 3.908,3.25 11.81,-0.22 32.502,-0.59 35.4,-0.57 14.709,0.12 15.793,6.93 13.428,15.93 -4.423,16.82 -0.554,49.93 2.849,36.97 v -51.17 c 0,-2.44 -1.979,-4.41 -4.415,-4.41 z"
               style="fill:#825f56"
               id="path3028" />
          </g>
        </g>
        <g
           transform="rotate(90,1083.898,767.002)"
           id="g3044">
          <g
             transform="matrix(0.998881,0,0,1.12091,21.5158,-143.106)"
             id="g3036">
            <path
               d="m 575.336,1092.62 c 0,-2.17 -1.981,-3.94 -4.42,-3.94 h -51.227 c -2.44,0 -4.42,1.77 -4.42,3.94 v 45.65 c 0,2.18 1.98,3.94 4.42,3.94 h 51.227 c 2.439,0 4.42,-1.76 4.42,-3.94 z"
               style="fill:#6c483f"
               id="path3034" />
          </g>
          <path
             d="m 541.068,1128.79 c -2.714,-16.32 -5.649,-48.76 -0.445,-51.57 -2.437,0 -4.415,1.97 -4.415,4.41 v 51.17 c 0,2.44 1.978,4.42 4.415,4.42 h 51.17 c 1.163,0 2.222,-0.45 3.011,-1.19 0.77,-0.72 -32.035,-2.14 -49.321,-2.82 -2.436,0 -4.415,-1.98 -4.415,-4.42 z"
             style="fill:#4b332d"
             id="path3038" />
          <g
             transform="matrix(0.955037,0,0,0.954814,25.4036,50.0305)"
             id="g3042">
            <path
               d="m 540.623,1077.22 c -2.092,0 -0.946,3.34 3.908,3.25 11.81,-0.22 32.502,-0.59 35.4,-0.57 14.709,0.12 15.793,6.93 13.428,15.93 -4.423,16.82 -0.554,49.93 2.849,36.97 v -51.17 c 0,-2.44 -1.979,-4.41 -4.415,-4.41 z"
               style="fill:#825f56"
               id="path3040" />
          </g>
        </g>
        <g
           transform="rotate(90,1043.3735,807.6565)"
           id="g3056">
          <g
             transform="matrix(0.998881,0,0,1.12091,21.5158,-143.106)"
             id="g3048">
            <path
               d="m 575.336,1092.62 c 0,-2.17 -1.981,-3.94 -4.42,-3.94 h -51.227 c -2.44,0 -4.42,1.77 -4.42,3.94 v 45.65 c 0,2.18 1.98,3.94 4.42,3.94 h 51.227 c 2.439,0 4.42,-1.76 4.42,-3.94 z"
               style="fill:#6c483f"
               id="path3046" />
          </g>
          <path
             d="m 541.068,1128.79 c -2.714,-16.32 -5.649,-48.76 -0.445,-51.57 -2.437,0 -4.415,1.97 -4.415,4.41 v 51.17 c 0,2.44 1.978,4.42 4.415,4.42 h 51.17 c 1.163,0 2.222,-0.45 3.011,-1.19 0.77,-0.72 -32.035,-2.14 -49.321,-2.82 -2.436,0 -4.415,-1.98 -4.415,-4.42 z"
             style="fill:#4b332d"
             id="path3050" />
          <g
             transform="matrix(0.955037,0,0,0.954814,25.4036,50.0305)"
             id="g3054">
            <path
               d="m 540.623,1077.22 c -2.092,0 -0.946,3.34 3.908,3.25 11.81,-0.22 32.502,-0.59 35.4,-0.57 14.709,0.12 15.793,6.93 13.428,15.93 -4.423,16.82 -0.554,49.93 2.849,36.97 v -51.17 c 0,-2.44 -1.979,-4.41 -4.415,-4.41 z"
               style="fill:#825f56"
               id="path3052" />
          </g>
        </g>
        <g
           transform="rotate(90,1004.768,687.872)"
           id="g3068">
          <g
             transform="matrix(0.998881,0,0,1.12091,21.5158,-143.106)"
             id="g3060">
            <path
               d="m 575.336,1092.62 c 0,-2.17 -1.981,-3.94 -4.42,-3.94 h -51.227 c -2.44,0 -4.42,1.77 -4.42,3.94 v 45.65 c 0,2.18 1.98,3.94 4.42,3.94 h 51.227 c 2.439,0 4.42,-1.76 4.42,-3.94 z"
               style="fill:#6c483f"
               id="path3058" />
          </g>
          <path
             d="m 541.068,1128.79 c -2.714,-16.32 -5.649,-48.76 -0.445,-51.57 -2.437,0 -4.415,1.97 -4.415,4.41 v 51.17 c 0,2.44 1.978,4.42 4.415,4.42 h 51.17 c 1.163,0 2.222,-0.45 3.011,-1.19 0.77,-0.72 -32.035,-2.14 -49.321,-2.82 -2.436,0 -4.415,-1.98 -4.415,-4.42 z"
             style="fill:#4b332d"
             id="path3062" />
          <g
             transform="matrix(0.955037,0,0,0.954814,25.4036,50.0305)"
             id="g3066">
            <path
               d="m 540.623,1077.22 c -2.092,0 -0.946,3.34 3.908,3.25 11.81,-0.22 32.502,-0.59 35.4,-0.57 14.709,0.12 15.793,6.93 13.428,15.93 -4.423,16.82 -0.554,49.93 2.849,36.97 v -51.17 c 0,-2.44 -1.979,-4.41 -4.415,-4.41 z"
               style="fill:#825f56"
               id="path3064" />
          </g>
        </g>
        <path
           d="m 615.233,50.425 2.842,2.779 c 5.325,5.231 10.703,10.39 15.917,15.704 7.309,7.449 14.302,15.177 21.5,22.733 4.787,5.025 9.646,9.988 14.446,15.025 13.145,13.781 26.569,27.166 40.137,40.38 20.3,19.771 40.915,39.165 61.333,59.007 3.953,3.84 7.61,7.922 11.127,12.119 0.386,0.461 0.77,0.923 1.154,1.388 v -16.716 c -1.496,-1.595 -3.026,-3.161 -4.599,-4.692 C 758.683,178.303 738.089,158.89 717.788,139.125 704.314,126.007 690.966,112.736 677.904,99.062 672.729,93.649 667.593,88.217 662.326,82.92 656.173,76.733 649.781,70.807 643.603,64.646 638.927,59.983 634.34,55.227 629.725,50.487 h -6.036 v -0.062 z m 36.871,0.062 c 3.066,2.862 6.314,5.564 9.387,8.268 1.52,1.338 2.964,2.708 4.381,4.03 l 9.149,8.612 c 6.425,5.752 12.38,11.711 18.137,17.757 13.852,14.545 26.513,29.662 41.099,44.255 15.138,15.126 31.687,29.494 46.98,44.805 0.821,0.822 1.638,1.647 2.452,2.475 V 165.171 C 769.944,151.786 755.455,138.987 742.073,125.594 727.539,111.068 714.976,95.969 701.126,81.537 695.143,75.302 688.914,69.202 682.222,63.296 l -9.653,-8.101 c -1.513,-1.262 -3.107,-2.512 -4.678,-3.845 -0.336,-0.285 -0.672,-0.573 -1.007,-0.863 z"
           style="fill:#dc4343"
           id="path3070" />
        <g
           transform="rotate(90,966.2565,728.1235)"
           id="g3082">
          <g
             transform="matrix(0.998881,0,0,1.12091,21.5158,-143.106)"
             id="g3074">
            <path
               d="m 575.336,1092.62 c 0,-2.17 -1.981,-3.94 -4.42,-3.94 h -51.227 c -2.44,0 -4.42,1.77 -4.42,3.94 v 45.65 c 0,2.18 1.98,3.94 4.42,3.94 h 51.227 c 2.439,0 4.42,-1.76 4.42,-3.94 z"
               style="fill:#6c483f"
               id="path3072" />
          </g>
          <path
             d="m 541.068,1128.79 c -2.714,-16.32 -5.649,-48.76 -0.445,-51.57 -2.437,0 -4.415,1.97 -4.415,4.41 v 51.17 c 0,2.44 1.978,4.42 4.415,4.42 h 51.17 c 1.163,0 2.222,-0.45 3.011,-1.19 0.77,-0.72 -32.035,-2.14 -49.321,-2.82 -2.436,0 -4.415,-1.98 -4.415,-4.42 z"
             style="fill:#4b332d"
             id="path3076" />
          <g
             transform="matrix(0.955037,0,0,0.954814,25.4036,50.0305)"
             id="g3080">
            <path
               d="m 540.623,1077.22 c -2.092,0 -0.946,3.34 3.908,3.25 11.81,-0.22 32.502,-0.59 35.4,-0.57 14.709,0.12 15.793,6.93 13.428,15.93 -4.423,16.82 -0.554,49.93 2.849,36.97 v -51.17 c 0,-2.44 -1.979,-4.41 -4.415,-4.41 z"
               style="fill:#825f56"
               id="path3078" />
          </g>
        </g>
        <path
           d="m 714.044,135.473 c 2.886,6.563 5.573,13.443 4.232,14.703 -0.588,0.553 -2.744,0.414 -4.762,0.213 1.71,1.66 3.423,3.317 5.138,4.973 1.183,-0.137 2.328,-0.191 3.413,-0.148 0.39,0.015 0.764,3.08 0.883,3.212 0.608,0.678 1.18,1.607 1.713,2.726 4.339,4.174 8.687,8.338 13.04,12.504 -3.032,-8.004 -6.12,-15.243 -6.786,-16.871 0,0 1.879,-0.349 4.347,-0.775 -5.842,-5.612 -11.67,-11.234 -17.474,-16.885 -1.249,-1.216 -2.497,-2.433 -3.744,-3.652 z m 44.284,5.779 c -3.46,2.062 -8.681,3.547 -11.283,4.531 2.594,2.45 5.206,4.892 7.825,7.333 4.194,-0.923 8.312,-2.338 11.276,-4.557 -2.61,-2.436 -5.221,-4.869 -7.818,-7.307 z m -13.016,-12.447 c -1.276,1.219 -4.229,4.763 -7.196,8.416 2.025,1.979 4.071,3.948 6.132,5.912 2.001,-2.653 5.321,-5.378 8.537,-7.115 -2.516,-2.393 -5.01,-4.795 -7.473,-7.213 z M 710.68,108.22 c 1.528,1.691 3.057,3.382 4.592,5.072 0.248,-0.586 0.637,-1.035 1.194,-1.318 1.555,-0.789 5.333,3.91 5.781,4.628 1.073,1.716 1.914,4.249 2.526,7.001 2.534,2.696 5.109,5.383 7.744,8.054 -0.33,-12.904 -5.23,-27.531 -17.455,-25.93 -1.897,0.248 -3.326,1.17 -4.382,2.493 z"
           style="fill:#b03e3e"
           id="path3084" />
        <g
           transform="matrix(0.452746,0.222525,-0.197375,0.401576,737.829,-460.022)"
           id="g3088">
          <path
             d="m 517.267,1239.94 c 0,0 15.933,-13.39 23.088,-18.31 18.578,-12.77 48.586,-37.28 28.263,-61.3 -14.733,-17.41 -42.59,-13.55 -50.157,9.15 -2.806,8.42 -11.079,53.14 -11.079,51.94 0,-25.95 -32.757,-90.91 -62.962,-68.26 -12.145,9.11 -3.272,31.41 3.583,41 3.686,5.17 43.397,37.8 41.001,44.99 -0.962,2.88 -11.857,6.23 -14.728,7.96 -11.287,6.77 -25.683,21.11 -31.448,32.64 -6.354,12.71 -6.436,13.88 1.194,25.87 0.369,0.58 7.6,13.5 9.554,11.55 3.749,-3.75 5.764,-16.5 7.563,-21.9 5.844,-17.53 23.142,-41.82 39.011,-49.75 0.707,-0.36 4.052,5.42 4.379,5.57 14.561,6.59 40.838,54.14 40.171,61.35 -1.348,14.56 27.427,2.55 31,-1.02 7.534,-7.54 -52.153,-65.2 -58.433,-71.48 z m -26.273,-29.85 c 4.105,-1.03 -12.042,-33.63 -24.282,-42.2 -1.425,-1 -12.253,-6.7 -14.33,-3.58 -7.93,11.89 34.658,43.14 38.612,45.78 1.815,1.21 4.47,3.27 4.379,3.18 z m 38.033,2.05 c 2.133,-0.22 4.276,-6.29 6.551,-9.22 5.311,-6.83 24.728,-25.09 18.709,-33.83 -9.585,-13.93 -31.495,30.32 -24.282,41.79 z"
             style="fill:#dc4343"
             id="path3086" />
        </g>
      </g>
      <g
         transform="rotate(-90,2125.8595,1696.8605)"
         id="g3356">
        <g
           id="g3354">
          <g
             transform="translate(422.099,-1115.98)"
             id="g3344">
            <g
               transform="matrix(-0.992079,0,0,-0.839028,1321.55,1635.46)"
               id="g3094">
              <path
                 d="m 561.951,226.837 h -64.875 c -12.571,-1.641 -17.059,3.165 -15.763,20.811 v 74.537 h 80.638 z"
                 style="fill:#a1ab7d;stroke:#51736f;stroke-width:2.18px"
                 id="path3092" />
            </g>
            <g
               transform="matrix(-0.992079,0,0,-0.839028,1321.61,1555.46)"
               id="g3098">
              <rect
                 x="481.31299"
                 y="226.83701"
                 width="80.639"
                 height="95.348"
                 style="fill:#a1ab7d;stroke:#51736f;stroke-width:2.18px"
                 id="rect3096" />
            </g>
            <g
               transform="matrix(-0.992463,0,0,-0.839028,1321.86,1475.46)"
               id="g3102">
              <path
                 d="m 561.951,226.837 h -80.638 v 77.658 c -0.495,14.354 5.361,17.55 11.447,18.021 0,0 45.324,0.026 69.191,-0.331 z"
                 style="fill:#a1ab7d;stroke:#51736f;stroke-width:2.18px"
                 id="path3100" />
            </g>
            <g
               transform="rotate(180,685.855,1257.05)"
               id="g3114">
              <g
                 transform="matrix(0.998881,0,0,1.12091,21.5158,-143.106)"
                 id="g3106">
                <path
                   d="m 575.336,1092.62 c 0,-2.17 -1.981,-3.94 -4.42,-3.94 h -51.227 c -2.44,0 -4.42,1.77 -4.42,3.94 v 45.65 c 0,2.18 1.98,3.94 4.42,3.94 h 51.227 c 2.439,0 4.42,-1.76 4.42,-3.94 z"
                   style="fill:#803a29"
                   id="path3104" />
              </g>
              <path
                 d="m 541.068,1128.79 c -2.714,-16.32 -5.649,-48.76 -0.445,-51.57 -2.437,0 -4.415,1.97 -4.415,4.41 v 51.17 c 0,2.44 1.978,4.42 4.415,4.42 h 51.17 c 1.163,0 2.222,-0.45 3.011,-1.19 0.77,-0.72 -32.035,-2.14 -49.321,-2.82 -2.436,0 -4.415,-1.98 -4.415,-4.42 z"
                 style="fill:#65291a"
                 id="path3108" />
              <g
                 transform="matrix(0.955037,0,0,0.954814,25.4036,50.0305)"
                 id="g3112">
                <path
                   d="m 540.623,1077.22 c -2.092,0 -0.946,3.34 3.908,3.25 11.81,-0.22 32.502,-0.59 35.4,-0.57 14.709,0.12 15.793,6.93 13.428,15.93 -4.423,16.82 -0.554,49.93 2.849,36.97 v -51.17 c 0,-2.44 -1.979,-4.41 -4.415,-4.41 z"
                   style="fill:#b05741"
                   id="path3110" />
              </g>
            </g>
            <g
               transform="rotate(180,685.185,1216.18)"
               id="g3126">
              <g
                 transform="matrix(0.998881,0,0,1.12091,21.5158,-143.106)"
                 id="g3118">
                <path
                   d="m 575.336,1092.62 c 0,-2.17 -1.981,-3.94 -4.42,-3.94 h -51.227 c -2.44,0 -4.42,1.77 -4.42,3.94 v 45.65 c 0,2.18 1.98,3.94 4.42,3.94 h 51.227 c 2.439,0 4.42,-1.76 4.42,-3.94 z"
                   style="fill:#803a29"
                   id="path3116" />
              </g>
              <path
                 d="m 541.068,1128.79 c -2.714,-16.32 -5.649,-48.76 -0.445,-51.57 -2.437,0 -4.415,1.97 -4.415,4.41 v 51.17 c 0,2.44 1.978,4.42 4.415,4.42 h 51.17 c 1.163,0 2.222,-0.45 3.011,-1.19 0.77,-0.72 -32.035,-2.14 -49.321,-2.82 -2.436,0 -4.415,-1.98 -4.415,-4.42 z"
                 style="fill:#65291a"
                 id="path3120" />
              <g
                 transform="matrix(0.955037,0,0,0.954814,25.4036,50.0305)"
                 id="g3124">
                <path
                   d="m 540.623,1077.22 c -2.092,0 -0.946,3.34 3.908,3.25 11.81,-0.22 32.502,-0.59 35.4,-0.57 14.709,0.12 15.793,6.93 13.428,15.93 -4.423,16.82 -0.554,49.93 2.849,36.97 v -51.17 c 0,-2.44 -1.979,-4.41 -4.415,-4.41 z"
                   style="fill:#b05741"
                   id="path3122" />
              </g>
            </g>
            <g
               transform="rotate(180,685.385,1177.01)"
               id="g3138">
              <g
                 transform="matrix(0.998881,0,0,1.12091,21.5158,-143.106)"
                 id="g3130">
                <path
                   d="m 575.336,1092.62 c 0,-2.17 -1.981,-3.94 -4.42,-3.94 h -51.227 c -2.44,0 -4.42,1.77 -4.42,3.94 v 45.65 c 0,2.18 1.98,3.94 4.42,3.94 h 51.227 c 2.439,0 4.42,-1.76 4.42,-3.94 z"
                   style="fill:#803a29"
                   id="path3128" />
              </g>
              <path
                 d="m 541.068,1128.79 c -2.714,-16.32 -5.649,-48.76 -0.445,-51.57 -2.437,0 -4.415,1.97 -4.415,4.41 v 51.17 c 0,2.44 1.978,4.42 4.415,4.42 h 51.17 c 1.163,0 2.222,-0.45 3.011,-1.19 0.77,-0.72 -32.035,-2.14 -49.321,-2.82 -2.436,0 -4.415,-1.98 -4.415,-4.42 z"
                 style="fill:#65291a"
                 id="path3132" />
              <g
                 transform="matrix(0.955037,0,0,0.954814,25.4036,50.0305)"
                 id="g3136">
                <path
                   d="m 540.623,1077.22 c -2.092,0 -0.946,3.34 3.908,3.25 11.81,-0.22 32.502,-0.59 35.4,-0.57 14.709,0.12 15.793,6.93 13.428,15.93 -4.423,16.82 -0.554,49.93 2.849,36.97 v -51.17 c 0,-2.44 -1.979,-4.41 -4.415,-4.41 z"
                   style="fill:#b05741"
                   id="path3134" />
              </g>
            </g>
            <g
               transform="matrix(-0.992079,0,0,-0.839028,1161.34,1635.46)"
               id="g3142">
              <rect
                 x="481.31299"
                 y="226.83701"
                 width="80.639"
                 height="95.348"
                 style="fill:#a1ab7d;stroke:#51736f;stroke-width:2.18px"
                 id="rect3140" />
            </g>
            <g
               transform="matrix(-0.992079,0,0,-0.839028,1241.44,1635.46)"
               id="g3146">
              <rect
                 x="481.31299"
                 y="226.83701"
                 width="80.639"
                 height="95.348"
                 style="fill:#a1ab7d;stroke:#51736f;stroke-width:2.18px"
                 id="rect3144" />
            </g>
            <g
               transform="matrix(-0.992079,0,0,-0.839028,1161.4,1555.46)"
               id="g3150">
              <rect
                 x="481.31299"
                 y="226.83701"
                 width="80.639"
                 height="95.348"
                 style="fill:#a1ab7d;stroke:#51736f;stroke-width:2.18px"
                 id="rect3148" />
            </g>
            <g
               transform="matrix(-0.992079,0,0,-0.839028,1241.5,1555.46)"
               id="g3154">
              <rect
                 x="481.31299"
                 y="226.83701"
                 width="80.639"
                 height="95.348"
                 style="fill:#a1ab7d;stroke:#51736f;stroke-width:2.18px"
                 id="rect3152" />
            </g>
            <g
               transform="matrix(-0.992463,0,0,-0.839028,1161.62,1475.46)"
               id="g3158">
              <rect
                 x="481.31299"
                 y="226.83701"
                 width="80.639"
                 height="95.348"
                 style="fill:#a1ab7d;stroke:#51736f;stroke-width:2.18px"
                 id="rect3156" />
            </g>
            <g
               transform="matrix(-0.992463,0,0,-0.839028,1241.71,1475.46)"
               id="g3162">
              <rect
                 x="481.31299"
                 y="226.83701"
                 width="80.639"
                 height="95.348"
                 style="fill:#a1ab7d;stroke:#51736f;stroke-width:2.18px"
                 id="rect3160" />
            </g>
            <g
               transform="matrix(-0.992079,0,0,-0.839028,1081.34,1635.46)"
               id="g3166">
              <rect
                 x="481.31299"
                 y="226.83701"
                 width="80.639"
                 height="95.348"
                 style="fill:#a1ab7d;stroke:#51736f;stroke-width:2.18px"
                 id="rect3164" />
            </g>
            <g
               transform="matrix(-0.992079,0,0,-0.839028,1081.4,1555.46)"
               id="g3170">
              <rect
                 x="481.31299"
                 y="226.83701"
                 width="80.639"
                 height="95.348"
                 style="fill:#a1ab7d;stroke:#51736f;stroke-width:2.18px"
                 id="rect3168" />
            </g>
            <g
               transform="matrix(-0.992463,0,0,-0.839028,1081.59,1475.46)"
               id="g3174">
              <rect
                 x="481.31299"
                 y="226.83701"
                 width="80.639"
                 height="95.348"
                 style="fill:#a1ab7d;stroke:#51736f;stroke-width:2.18px"
                 id="rect3172" />
            </g>
            <g
               transform="matrix(-0.992463,0,0,-0.839028,1081.59,1475.46)"
               id="g3178">
              <rect
                 x="481.31299"
                 y="226.83701"
                 width="80.639"
                 height="95.348"
                 style="fill:#a1ab7d;stroke:#51736f;stroke-width:2.18px"
                 id="rect3176" />
            </g>
            <g
               transform="matrix(-0.992079,0,0,-0.839028,1001.34,1635.46)"
               id="g3182">
              <path
                 d="m 561.951,243.228 c 0.224,-12.61 -5.089,-17.141 -14.421,-16.391 h -66.217 v 95.348 h 80.638 z"
                 style="fill:#a1ab7d;stroke:#51736f;stroke-width:2.18px"
                 id="path3180" />
            </g>
            <g
               transform="matrix(-0.992079,0,0,-0.839028,1001.4,1555.46)"
               id="g3186">
              <rect
                 x="481.31299"
                 y="226.83701"
                 width="80.639"
                 height="95.348"
                 style="fill:#a1ab7d;stroke:#51736f;stroke-width:2.18px"
                 id="rect3184" />
            </g>
            <g
               transform="matrix(-0.992079,0,0,-0.839028,1001.4,1555.46)"
               id="g3190">
              <rect
                 x="481.31299"
                 y="226.83701"
                 width="80.639"
                 height="95.348"
                 style="fill:#a1ab7d;stroke:#51736f;stroke-width:2.18px"
                 id="rect3188" />
            </g>
            <g
               transform="matrix(-0.992463,0,0,-0.839028,1001.56,1475.46)"
               id="g3194">
              <path
                 d="m 561.951,226.837 h -80.638 v 95.348 h 67.199 c 10.387,0.618 14.64,-5.666 13.439,-17.941 z"
                 style="fill:#a1ab7d;stroke:#51736f;stroke-width:2.18px"
                 id="path3192" />
            </g>
            <g
               transform="matrix(-0.992463,0,0,-0.839028,1001.56,1475.46)"
               id="g3198">
              <path
                 d="m 561.951,226.837 h -80.638 v 95.348 h 67.199 c 10.387,0.618 14.64,-5.666 13.439,-17.941 z"
                 style="fill:#a1ab7d;stroke:#51736f;stroke-width:2.18px"
                 id="path3196" />
            </g>
            <g
               transform="matrix(-0.998881,0,0,-1.12091,1188.53,2495.46)"
               id="g3202">
              <path
                 d="m 575.336,1092.62 c 0,-2.17 -1.981,-3.94 -4.42,-3.94 h -51.227 c -2.44,0 -4.42,1.77 -4.42,3.94 v 45.65 c 0,2.18 1.98,3.94 4.42,3.94 h 51.227 c 2.439,0 4.42,-1.76 4.42,-3.94 z"
                 style="fill:#803a29"
                 id="path3200" />
            </g>
            <g
               transform="rotate(180,605.025,1176.18)"
               id="g3206">
              <path
                 d="m 541.068,1128.79 c -2.714,-16.32 -5.649,-48.76 -0.445,-51.57 -2.437,0 -4.415,1.97 -4.415,4.41 v 51.17 c 0,2.44 1.978,4.42 4.415,4.42 h 51.17 c 1.163,0 2.222,-0.45 3.011,-1.19 0.77,-0.72 -32.035,-2.14 -49.321,-2.82 -2.436,0 -4.415,-1.98 -4.415,-4.42 z"
                 style="fill:#65291a"
                 id="path3204" />
            </g>
            <g
               transform="matrix(-0.955037,0,0,-0.954814,1184.65,2302.33)"
               id="g3210">
              <path
                 d="m 540.623,1077.22 c -2.092,0 -0.946,3.34 3.908,3.25 11.81,-0.22 32.502,-0.59 35.4,-0.57 14.709,0.12 15.793,6.93 13.428,15.93 -4.423,16.82 -0.554,49.93 2.849,36.97 v -51.17 c 0,-2.44 -1.979,-4.41 -4.415,-4.41 z"
                 style="fill:#b05741"
                 id="path3208" />
            </g>
            <g
               transform="matrix(-0.998881,0,0,-1.12091,1268.63,2495.46)"
               id="g3214">
              <path
                 d="m 575.336,1092.62 c 0,-2.17 -1.981,-3.94 -4.42,-3.94 h -51.227 c -2.44,0 -4.42,1.77 -4.42,3.94 v 45.65 c 0,2.18 1.98,3.94 4.42,3.94 h 51.227 c 2.439,0 4.42,-1.76 4.42,-3.94 z"
                 style="fill:#803a29"
                 id="path3212" />
            </g>
            <g
               transform="rotate(180,645.07,1176.18)"
               id="g3218">
              <path
                 d="m 541.068,1128.79 c -2.714,-16.32 -5.649,-48.76 -0.445,-51.57 -2.437,0 -4.415,1.97 -4.415,4.41 v 51.17 c 0,2.44 1.978,4.42 4.415,4.42 h 51.17 c 1.163,0 2.222,-0.45 3.011,-1.19 0.77,-0.72 -32.035,-2.14 -49.321,-2.82 -2.436,0 -4.415,-1.98 -4.415,-4.42 z"
                 style="fill:#65291a"
                 id="path3216" />
            </g>
            <g
               transform="matrix(-0.955037,0,0,-0.954814,1264.74,2302.33)"
               id="g3222">
              <path
                 d="m 540.623,1077.22 c -2.092,0 -0.946,3.34 3.908,3.25 11.81,-0.22 32.502,-0.59 35.4,-0.57 14.709,0.12 15.793,6.93 13.428,15.93 -4.423,16.82 -0.554,49.93 2.849,36.97 v -51.17 c 0,-2.44 -1.979,-4.41 -4.415,-4.41 z"
                 style="fill:#b05741"
                 id="path3220" />
            </g>
            <g
               transform="matrix(-0.998881,0,0,-1.12091,1188.53,2575.46)"
               id="g3226">
              <path
                 d="m 575.336,1092.62 c 0,-2.17 -1.981,-3.94 -4.42,-3.94 h -51.227 c -2.44,0 -4.42,1.77 -4.42,3.94 v 45.65 c 0,2.18 1.98,3.94 4.42,3.94 h 51.227 c 2.439,0 4.42,-1.76 4.42,-3.94 z"
                 style="fill:#803a29"
                 id="path3224" />
            </g>
            <g
               transform="rotate(180,605.025,1216.18)"
               id="g3230">
              <path
                 d="m 541.068,1128.79 c -2.714,-16.32 -5.649,-48.76 -0.445,-51.57 -2.437,0 -4.415,1.97 -4.415,4.41 v 51.17 c 0,2.44 1.978,4.42 4.415,4.42 h 51.17 c 1.163,0 2.222,-0.45 3.011,-1.19 0.77,-0.72 -32.035,-2.14 -49.321,-2.82 -2.436,0 -4.415,-1.98 -4.415,-4.42 z"
                 style="fill:#65291a"
                 id="path3228" />
            </g>
            <g
               transform="matrix(-0.955037,0,0,-0.954814,1184.65,2382.33)"
               id="g3234">
              <path
                 d="m 540.623,1077.22 c -2.092,0 -0.946,3.34 3.908,3.25 11.81,-0.22 32.502,-0.59 35.4,-0.57 14.709,0.12 15.793,6.93 13.428,15.93 -4.423,16.82 -0.554,49.93 2.849,36.97 v -51.17 c 0,-2.44 -1.979,-4.41 -4.415,-4.41 z"
                 style="fill:#b05741"
                 id="path3232" />
            </g>
            <g
               transform="matrix(-0.998881,0,0,-1.12091,1268.63,2575.46)"
               id="g3238">
              <path
                 d="m 575.336,1092.62 c 0,-2.17 -1.981,-3.94 -4.42,-3.94 h -51.227 c -2.44,0 -4.42,1.77 -4.42,3.94 v 45.65 c 0,2.18 1.98,3.94 4.42,3.94 h 51.227 c 2.439,0 4.42,-1.76 4.42,-3.94 z"
                 style="fill:#803a29"
                 id="path3236" />
            </g>
            <g
               transform="rotate(180,645.07,1216.18)"
               id="g3242">
              <path
                 d="m 541.068,1128.79 c -2.714,-16.32 -5.649,-48.76 -0.445,-51.57 -2.437,0 -4.415,1.97 -4.415,4.41 v 51.17 c 0,2.44 1.978,4.42 4.415,4.42 h 51.17 c 1.163,0 2.222,-0.45 3.011,-1.19 0.77,-0.72 -32.035,-2.14 -49.321,-2.82 -2.436,0 -4.415,-1.98 -4.415,-4.42 z"
                 style="fill:#65291a"
                 id="path3240" />
            </g>
            <g
               transform="matrix(-0.955037,0,0,-0.954814,1264.74,2382.33)"
               id="g3246">
              <path
                 d="m 540.623,1077.22 c -2.092,0 -0.946,3.34 3.908,3.25 11.81,-0.22 32.502,-0.59 35.4,-0.57 14.709,0.12 15.793,6.93 13.428,15.93 -4.423,16.82 -0.554,49.93 2.849,36.97 v -51.17 c 0,-2.44 -1.979,-4.41 -4.415,-4.41 z"
                 style="fill:#b05741"
                 id="path3244" />
            </g>
            <g
               transform="matrix(-0.998881,0,0,-1.12091,1109.77,2575.46)"
               id="g3250">
              <path
                 d="m 575.336,1092.62 c 0,-2.17 -1.981,-3.94 -4.42,-3.94 h -51.227 c -2.44,0 -4.42,1.77 -4.42,3.94 v 45.65 c 0,2.18 1.98,3.94 4.42,3.94 h 51.227 c 2.439,0 4.42,-1.76 4.42,-3.94 z"
                 style="fill:#803a29"
                 id="path3248" />
            </g>
            <g
               transform="rotate(180,565.645,1216.18)"
               id="g3254">
              <path
                 d="m 541.068,1128.79 c -2.714,-16.32 -5.649,-48.76 -0.445,-51.57 -2.437,0 -4.415,1.97 -4.415,4.41 v 51.17 c 0,2.44 1.978,4.42 4.415,4.42 h 51.17 c 1.163,0 2.222,-0.45 3.011,-1.19 0.77,-0.72 -32.035,-2.14 -49.321,-2.82 -2.436,0 -4.415,-1.98 -4.415,-4.42 z"
                 style="fill:#65291a"
                 id="path3252" />
            </g>
            <g
               transform="matrix(-0.955037,0,0,-0.954814,1105.88,2382.33)"
               id="g3258">
              <path
                 d="m 540.623,1077.22 c -2.092,0 -0.946,3.34 3.908,3.25 11.81,-0.22 32.502,-0.59 35.4,-0.57 14.709,0.12 15.793,6.93 13.428,15.93 -4.423,16.82 -0.554,49.93 2.849,36.97 v -51.17 c 0,-2.44 -1.979,-4.41 -4.415,-4.41 z"
                 style="fill:#b05741"
                 id="path3256" />
            </g>
            <g
               transform="matrix(-0.998881,0,0,-1.12091,1031.01,2575.46)"
               id="g3262">
              <path
                 d="m 575.336,1092.62 c 0,-2.17 -1.981,-3.94 -4.42,-3.94 h -51.227 c -2.44,0 -4.42,1.77 -4.42,3.94 v 45.65 c 0,2.18 1.98,3.94 4.42,3.94 h 51.227 c 2.439,0 4.42,-1.76 4.42,-3.94 z"
                 style="fill:#803a29"
                 id="path3260" />
            </g>
            <g
               transform="rotate(180,526.26,1216.18)"
               id="g3266">
              <path
                 d="m 541.068,1128.79 c -2.714,-16.32 -5.649,-48.76 -0.445,-51.57 -2.437,0 -4.415,1.97 -4.415,4.41 v 51.17 c 0,2.44 1.978,4.42 4.415,4.42 h 51.17 c 1.163,0 2.222,-0.45 3.011,-1.19 0.77,-0.72 -32.035,-2.14 -49.321,-2.82 -2.436,0 -4.415,-1.98 -4.415,-4.42 z"
                 style="fill:#65291a"
                 id="path3264" />
            </g>
            <g
               transform="matrix(-0.955037,0,0,-0.954814,1027.12,2382.33)"
               id="g3270">
              <path
                 d="m 540.623,1077.22 c -2.092,0 -0.946,3.34 3.908,3.25 11.81,-0.22 32.502,-0.59 35.4,-0.57 14.709,0.12 15.793,6.93 13.428,15.93 -4.423,16.82 -0.554,49.93 2.849,36.97 v -51.17 c 0,-2.44 -1.979,-4.41 -4.415,-4.41 z"
                 style="fill:#b05741"
                 id="path3268" />
            </g>
            <g
               transform="matrix(-0.998881,0,0,-1.12091,1188.53,2655.46)"
               id="g3274">
              <path
                 d="m 575.336,1092.62 c 0,-2.17 -1.981,-3.94 -4.42,-3.94 h -51.227 c -2.44,0 -4.42,1.77 -4.42,3.94 v 45.65 c 0,2.18 1.98,3.94 4.42,3.94 h 51.227 c 2.439,0 4.42,-1.76 4.42,-3.94 z"
                 style="fill:#803a29"
                 id="path3272" />
            </g>
            <g
               transform="rotate(180,605.025,1256.18)"
               id="g3278">
              <path
                 d="m 541.068,1128.79 c -2.714,-16.32 -5.649,-48.76 -0.445,-51.57 -2.437,0 -4.415,1.97 -4.415,4.41 v 51.17 c 0,2.44 1.978,4.42 4.415,4.42 h 51.17 c 1.163,0 2.222,-0.45 3.011,-1.19 0.77,-0.72 -32.035,-2.14 -49.321,-2.82 -2.436,0 -4.415,-1.98 -4.415,-4.42 z"
                 style="fill:#65291a"
                 id="path3276" />
            </g>
            <g
               transform="matrix(-0.955037,0,0,-0.954814,1184.65,2462.33)"
               id="g3282">
              <path
                 d="m 540.623,1077.22 c -2.092,0 -0.946,3.34 3.908,3.25 11.81,-0.22 32.502,-0.59 35.4,-0.57 14.709,0.12 15.793,6.93 13.428,15.93 -4.423,16.82 -0.554,49.93 2.849,36.97 v -51.17 c 0,-2.44 -1.979,-4.41 -4.415,-4.41 z"
                 style="fill:#b05741"
                 id="path3280" />
            </g>
            <g
               transform="matrix(-0.998881,0,0,-1.12091,1268.63,2655.46)"
               id="g3286">
              <path
                 d="m 575.336,1092.62 c 0,-2.17 -1.981,-3.94 -4.42,-3.94 h -51.227 c -2.44,0 -4.42,1.77 -4.42,3.94 v 45.65 c 0,2.18 1.98,3.94 4.42,3.94 h 51.227 c 2.439,0 4.42,-1.76 4.42,-3.94 z"
                 style="fill:#803a29"
                 id="path3284" />
            </g>
            <g
               transform="rotate(180,645.07,1256.18)"
               id="g3290">
              <path
                 d="m 541.068,1128.79 c -2.714,-16.32 -5.649,-48.76 -0.445,-51.57 -2.437,0 -4.415,1.97 -4.415,4.41 v 51.17 c 0,2.44 1.978,4.42 4.415,4.42 h 51.17 c 1.163,0 2.222,-0.45 3.011,-1.19 0.77,-0.72 -32.035,-2.14 -49.321,-2.82 -2.436,0 -4.415,-1.98 -4.415,-4.42 z"
                 style="fill:#65291a"
                 id="path3288" />
            </g>
            <g
               transform="matrix(-0.955037,0,0,-0.954814,1264.74,2462.33)"
               id="g3294">
              <path
                 d="m 540.623,1077.22 c -2.092,0 -0.946,3.34 3.908,3.25 11.81,-0.22 32.502,-0.59 35.4,-0.57 14.709,0.12 15.793,6.93 13.428,15.93 -4.423,16.82 -0.554,49.93 2.849,36.97 v -51.17 c 0,-2.44 -1.979,-4.41 -4.415,-4.41 z"
                 style="fill:#b05741"
                 id="path3292" />
            </g>
            <g
               transform="matrix(-0.998881,0,0,-1.12091,1109.77,2655.46)"
               id="g3298">
              <path
                 d="m 575.336,1092.62 c 0,-2.17 -1.981,-3.94 -4.42,-3.94 h -51.227 c -2.44,0 -4.42,1.77 -4.42,3.94 v 45.65 c 0,2.18 1.98,3.94 4.42,3.94 h 51.227 c 2.439,0 4.42,-1.76 4.42,-3.94 z"
                 style="fill:#803a29"
                 id="path3296" />
            </g>
            <g
               transform="rotate(180,565.645,1256.18)"
               id="g3302">
              <path
                 d="m 541.068,1128.79 c -2.714,-16.32 -5.649,-48.76 -0.445,-51.57 -2.437,0 -4.415,1.97 -4.415,4.41 v 51.17 c 0,2.44 1.978,4.42 4.415,4.42 h 51.17 c 1.163,0 2.222,-0.45 3.011,-1.19 0.77,-0.72 -32.035,-2.14 -49.321,-2.82 -2.436,0 -4.415,-1.98 -4.415,-4.42 z"
                 style="fill:#65291a"
                 id="path3300" />
            </g>
            <g
               transform="matrix(-0.955037,0,0,-0.954814,1105.88,2462.33)"
               id="g3306">
              <path
                 d="m 540.623,1077.22 c -2.092,0 -0.946,3.34 3.908,3.25 11.81,-0.22 32.502,-0.59 35.4,-0.57 14.709,0.12 15.793,6.93 13.428,15.93 -4.423,16.82 -0.554,49.93 2.849,36.97 v -51.17 c 0,-2.44 -1.979,-4.41 -4.415,-4.41 z"
                 style="fill:#b05741"
                 id="path3304" />
            </g>
            <g
               transform="matrix(-0.998881,0,0,-1.12091,1028.59,2655.59)"
               id="g3310">
              <path
                 d="m 575.336,1092.62 c 0,-2.17 -1.981,-3.94 -4.42,-3.94 h -51.227 c -2.44,0 -4.42,1.77 -4.42,3.94 v 45.65 c 0,2.18 1.98,3.94 4.42,3.94 h 51.227 c 2.439,0 4.42,-1.76 4.42,-3.94 z"
                 style="fill:#803a29"
                 id="path3308" />
            </g>
            <g
               transform="rotate(180,525.055,1256.24)"
               id="g3314">
              <path
                 d="m 541.068,1128.79 c -2.714,-16.32 -5.649,-48.76 -0.445,-51.57 -2.437,0 -4.415,1.97 -4.415,4.41 v 51.17 c 0,2.44 1.978,4.42 4.415,4.42 h 51.17 c 1.163,0 2.222,-0.45 3.011,-1.19 0.77,-0.72 -32.035,-2.14 -49.321,-2.82 -2.436,0 -4.415,-1.98 -4.415,-4.42 z"
                 style="fill:#65291a"
                 id="path3312" />
            </g>
            <g
               transform="matrix(-0.955037,0,0,-0.954814,1024.7,2462.45)"
               id="g3318">
              <path
                 d="m 540.623,1077.22 c -2.092,0 -0.946,3.34 3.908,3.25 11.81,-0.22 32.502,-0.59 35.4,-0.57 14.709,0.12 15.793,6.93 13.428,15.93 -4.423,16.82 -0.554,49.93 2.849,36.97 v -51.17 c 0,-2.44 -1.979,-4.41 -4.415,-4.41 z"
                 style="fill:#b05741"
                 id="path3316" />
            </g>
            <g
               transform="matrix(-0.998881,0,0,-1.12091,1109.77,2497.2)"
               id="g3322">
              <path
                 d="m 575.336,1092.62 c 0,-2.17 -1.981,-3.94 -4.42,-3.94 h -51.227 c -2.44,0 -4.42,1.77 -4.42,3.94 v 45.65 c 0,2.18 1.98,3.94 4.42,3.94 h 51.227 c 2.439,0 4.42,-1.76 4.42,-3.94 z"
                 style="fill:#803a29"
                 id="path3320" />
            </g>
            <g
               transform="rotate(180,565.645,1177.045)"
               id="g3326">
              <path
                 d="m 541.068,1128.79 c -2.714,-16.32 -5.649,-48.76 -0.445,-51.57 -2.437,0 -4.415,1.97 -4.415,4.41 v 51.17 c 0,2.44 1.978,4.42 4.415,4.42 h 51.17 c 1.163,0 2.222,-0.45 3.011,-1.19 0.77,-0.72 -32.035,-2.14 -49.321,-2.82 -2.436,0 -4.415,-1.98 -4.415,-4.42 z"
                 style="fill:#65291a"
                 id="path3324" />
            </g>
            <g
               transform="matrix(-0.955037,0,0,-0.954814,1105.88,2304.06)"
               id="g3330">
              <path
                 d="m 540.623,1077.22 c -2.092,0 -0.946,3.34 3.908,3.25 11.81,-0.22 32.502,-0.59 35.4,-0.57 14.709,0.12 15.793,6.93 13.428,15.93 -4.423,16.82 -0.554,49.93 2.849,36.97 v -51.17 c 0,-2.44 -1.979,-4.41 -4.415,-4.41 z"
                 style="fill:#b05741"
                 id="path3328" />
            </g>
            <g
               transform="matrix(-0.998881,0,0,-1.12091,1029.02,2495.67)"
               id="g3334">
              <path
                 d="m 575.336,1092.62 c 0,-2.17 -1.981,-3.94 -4.42,-3.94 h -51.227 c -2.44,0 -4.42,1.77 -4.42,3.94 v 45.65 c 0,2.18 1.98,3.94 4.42,3.94 h 51.227 c 2.439,0 4.42,-1.76 4.42,-3.94 z"
                 style="fill:#803a29"
                 id="path3332" />
            </g>
            <g
               transform="rotate(180,525.265,1176.28)"
               id="g3338">
              <path
                 d="m 541.068,1128.79 c -2.714,-16.32 -5.649,-48.76 -0.445,-51.57 -2.437,0 -4.415,1.97 -4.415,4.41 v 51.17 c 0,2.44 1.978,4.42 4.415,4.42 h 51.17 c 1.163,0 2.222,-0.45 3.011,-1.19 0.77,-0.72 -32.035,-2.14 -49.321,-2.82 -2.436,0 -4.415,-1.98 -4.415,-4.42 z"
                 style="fill:#65291a"
                 id="path3336" />
            </g>
            <g
               transform="matrix(-0.955037,0,0,-0.954814,1025.13,2302.53)"
               id="g3342">
              <path
                 d="m 540.623,1077.22 c -2.092,0 -0.946,3.34 3.908,3.25 11.81,-0.22 32.502,-0.59 35.4,-0.57 14.709,0.12 15.793,6.93 13.428,15.93 -4.423,16.82 -0.554,49.93 2.849,36.97 v -51.17 c 0,-2.44 -1.979,-4.41 -4.415,-4.41 z"
                 style="fill:#b05741"
                 id="path3340" />
            </g>
          </g>
          <path
             d="m 1265.95,219.34 c -7.79,8.778 -16.02,16.82 -24.45,25.131 -21.55,21.227 -39.05,44.093 -56.18,67.92 v 17.023 h 19.27 c 16.74,-23.411 33.77,-45.898 54.88,-66.703 1.96,-1.933 3.91,-3.854 5.85,-5.772 v -7.525 h 0.06 v -11.493 c 0.49,-0.285 0.8,-0.598 0.92,-0.938 0.18,-0.545 -0.05,-8.288 -0.35,-17.643 z m -80.75,110.073 v -16.861 c -4,5.568 -7.99,11.193 -12,16.861 z m -240.057,-240 h -27.646 c -1.362,1.903 -2.807,3.956 -4.395,6.232 -15.172,21.746 -32.009,41.657 -47.99,62.668 v 11.1 h 0.062 v 15.231 c -0.091,0.12 -0.147,0.282 -0.159,0.493 -0.165,2.758 -0.218,11.837 -0.235,17.621 6.01,-7.72 11.066,-16.059 16.973,-23.976 17.276,-23.153 35.787,-44.741 52.352,-68.484 4.347,-6.229 7.503,-10.622 11.038,-15.033 z m 4.897,0 h -4.897 v 5.852 c 1.52,-1.898 3.111,-3.799 4.897,-5.852 z"
             style="fill:#297b65"
             id="path3346" />
          <path
             d="m 1239.16,246.791 c -3.17,3.186 -6.25,6.407 -9.26,9.661 -0.41,2.478 -0.97,4.833 -1.15,6.154 -0.2,1.502 0.34,3.921 -0.4,4.566 l 0.08,-0.645 c -1.47,-0.428 -2.65,-2.271 -3.44,-4.661 -1.93,2.162 -3.82,4.337 -5.69,6.525 1.68,4.095 3.18,7.633 3.05,7.459 -1.11,-1.526 -3.01,-3.162 -5.39,-4.699 -1.28,1.524 -2.55,3.054 -3.81,4.59 0.6,0.466 0.84,0.859 0.6,1.118 0.78,-0.104 1.89,-0.185 2.23,-0.213 l 0.11,-0.01 c 0.01,0.002 -0.04,0.004 -0.05,0.005 l -0.06,0.005 -2.23,0.213 c -0.25,0.034 -0.83,0.096 -1.64,0.168 -1.9,2.332 -5.04,5.995 -6.9,8.353 6.71,-1.376 13.85,-0.68 14.22,0.816 0.28,1.135 -3.04,5.102 -3.72,6.402 -2.7,5.109 -4.89,13.352 -4.49,18.405 0.3,3.745 0.5,5.142 2.26,6.131 2.44,-3.316 4.9,-6.61 7.39,-9.879 -0.71,-6.964 -0.14,-17.631 3.38,-23.309 0.18,-0.298 9.53,1.371 13.52,2.217 1.89,-2.225 3.81,-4.435 5.76,-6.629 -6.46,-0.464 -13.72,-1.53 -15.09,-1.604 0,0 4.64,-7.525 6.21,-10.954 2.66,-5.79 6.02,-14.393 4.51,-20.185 z"
             style="fill:#206250"
             id="path3348" />
          <g
             transform="matrix(0.371814,-0.271016,0.220677,0.302752,762.883,41.3014)"
             id="g3352">
            <path
               d="m 517.267,1239.94 c 0,0 15.933,-13.39 23.088,-18.31 18.578,-12.77 48.586,-37.28 28.263,-61.3 -14.733,-17.41 -42.59,-13.55 -50.157,9.15 -2.806,8.42 -11.079,53.14 -11.079,51.94 0,-25.95 -32.757,-90.91 -62.962,-68.26 -12.145,9.11 -3.272,31.41 3.583,41 3.686,5.17 43.397,37.8 41.001,44.99 -0.962,2.88 -11.857,6.23 -14.728,7.96 -11.287,6.77 -25.683,21.11 -31.448,32.64 -6.354,12.71 -6.436,13.88 1.194,25.87 0.369,0.58 7.6,13.5 9.554,11.55 3.749,-3.75 5.764,-16.5 7.563,-21.9 5.844,-17.53 23.142,-41.82 39.011,-49.75 0.707,-0.36 4.052,5.42 4.379,5.57 14.561,6.59 40.838,54.14 40.171,61.35 -1.348,14.56 27.427,2.55 31,-1.02 7.534,-7.54 -52.153,-65.2 -58.433,-71.48 z m -26.273,-29.85 c 4.105,-1.03 -12.042,-33.63 -24.282,-42.2 -1.425,-1 -12.253,-6.7 -14.33,-3.58 -7.93,11.89 34.658,43.14 38.612,45.78 1.815,1.21 4.47,3.27 4.379,3.18 z m 38.033,2.05 c 2.133,-0.22 4.276,-6.29 6.551,-9.22 5.311,-6.83 24.728,-25.09 18.709,-33.83 -9.585,-13.93 -31.495,30.32 -24.282,41.79 z"
               style="fill:#24705b"
               id="path3350" />
          </g>
        </g>
      </g>
    </g>
  </g>
</svg>
