<?xml version="1.0" encoding="UTF-8" standalone="no"?>
<svg
   sodipodi:docname="2022-SK-02-ae1.svg"
   inkscape:version="1.1.2 (b8e25be833, 2022-02-05)"
   id="svg1970"
   version="1.1"
   viewBox="0 0 416.34109 84.192276"
   height="84.192276mm"
   width="416.34109mm"
   xmlns:inkscape="http://www.inkscape.org/namespaces/inkscape"
   xmlns:sodipodi="http://sodipodi.sourceforge.net/DTD/sodipodi-0.dtd"
   xmlns="http://www.w3.org/2000/svg"
   xmlns:svg="http://www.w3.org/2000/svg"
   xmlns:rdf="http://www.w3.org/1999/02/22-rdf-syntax-ns#"
   xmlns:cc="http://creativecommons.org/ns#"
   xmlns:dc="http://purl.org/dc/elements/1.1/">
  <defs
     id="defs1964" />
  <sodipodi:namedview
     showgrid="false"
     inkscape:document-rotation="0"
     inkscape:current-layer="layer1"
     inkscape:document-units="mm"
     inkscape:cy="712.85714"
     inkscape:cx="1308.5714"
     inkscape:zoom="0.35"
     inkscape:pageshadow="2"
     inkscape:pageopacity="0.0"
     borderopacity="1.0"
     bordercolor="#666666"
     pagecolor="#ffffff"
     id="base"
     inkscape:pagecheckerboard="0"
     inkscape:window-width="1920"
     inkscape:window-height="991"
     inkscape:window-x="-9"
     inkscape:window-y="-9"
     inkscape:window-maximized="1"
     fit-margin-top="0"
     fit-margin-left="0"
     fit-margin-right="0"
     fit-margin-bottom="0" />
  <metadata
     id="metadata1967">
    <rdf:RDF>
      <cc:Work
         rdf:about="">
        <dc:format>image/svg+xml</dc:format>
        <dc:type
           rdf:resource="http://purl.org/dc/dcmitype/StillImage" />
      </cc:Work>
    </rdf:RDF>
  </metadata>
  <g
     transform="translate(563.12067,-50.743791)"
     id="layer1"
     inkscape:groupmode="layer"
     inkscape:label="Ebene 1">
    <g
       id="g1880">
      <g
         id="g92"
         transform="matrix(0.07254461,0,0,0.26458333,-578.1456,-322.08137)"
         style="clip-rule:evenodd;fill-rule:evenodd;stroke-linecap:round;stroke-linejoin:round;stroke-miterlimit:1.5">
        <path
           id="path90"
           style="fill:#d9d9d9"
           d="m 216.3,1697.45 c 0,0 5567.42,2.45 5707.32,2.47 l 14.05,0.02 v -0.03 h 0.72 c 4.56,-0.38 8.01,-4.29 7.82,-8.86 -0.19,-4.57 -3.95,-8.18 -8.52,-8.19 l -5721.369,-2.49 c -4.715,0 -8.541,3.82 -8.547,8.53 -0.005,4.72 3.812,8.54 8.526,8.55 z m -0.11,-43.7 c 0,0 5567.42,2.45 5707.32,2.48 l 14.05,0.01 v -0.02 l 0.72,-0.01 c 4.56,-0.38 8.01,-4.29 7.82,-8.86 -0.19,-4.57 -3.95,-8.18 -8.52,-8.18 l -5721.37,-2.49 c -4.714,-0.01 -8.54,3.81 -8.546,8.53 -0.006,4.71 3.811,8.54 8.526,8.54 z m -0.11,-43.69 c 0,0 5567.42,2.45 5707.32,2.47 l 14.05,0.02 v -0.03 h 0.72 c 4.56,-0.38 8.01,-4.29 7.82,-8.86 -0.19,-4.57 -3.95,-8.18 -8.52,-8.18 L 216.1,1592.99 c -4.714,-0.01 -8.54,3.81 -8.546,8.52 -0.006,4.72 3.811,8.54 8.526,8.55 z m -0.111,-43.69 c 0,0 5567.421,2.45 5707.321,2.47 l 14.05,0.02 v -0.03 h 0.72 c 4.56,-0.39 8.01,-4.29 7.82,-8.86 -0.19,-4.57 -3.95,-8.18 -8.52,-8.19 l -5721.37,-2.49 c -4.714,0 -8.541,3.82 -8.546,8.53 -0.006,4.71 3.811,8.54 8.525,8.55 z m -0.11,-43.7 c 0,0 5567.421,2.45 5707.321,2.47 l 14.05,0.02 v -0.03 h 0.72 c 4.56,-0.38 8.01,-4.29 7.82,-8.86 -0.19,-4.57 -3.95,-8.18 -8.52,-8.18 L 215.88,1505.6 c -4.715,-0.01 -8.541,3.81 -8.546,8.52 -0.006,4.72 3.811,8.55 8.525,8.55 z m -0.11,-43.69 c 0,0 5567.421,2.45 5707.321,2.47 l 14.05,0.02 v -0.03 h 0.72 c 4.56,-0.38 8.01,-4.29 7.82,-8.86 -0.19,-4.57 -3.95,-8.18 -8.52,-8.19 L 215.77,1461.9 c -4.715,0 -8.541,3.82 -8.547,8.53 -0.005,4.72 3.812,8.54 8.526,8.55 z m -0.11,-43.7 c 0,0 5567.421,2.46 5707.321,2.48 l 14.05,0.01 v -0.02 l 0.72,-0.01 c 4.56,-0.38 8,-4.29 7.82,-8.86 -0.19,-4.56 -3.95,-8.18 -8.52,-8.18 l -5721.371,-2.49 c -4.714,0 -8.54,3.81 -8.546,8.53 -0.005,4.71 3.812,8.54 8.526,8.54 z" />
      </g>
      <g
         id="g108"
         transform="matrix(0.26458333,0,0,0.26458333,-630.737,-186.28133)"
         style="clip-rule:evenodd;fill-rule:evenodd;stroke-linecap:round;stroke-linejoin:round;stroke-miterlimit:1.5">
        <path
           id="path106"
           style="fill:#c2c2c2"
           d="m 1274.05,904.366 -0.47,300.274 c -0.01,4.71 3.81,8.54 8.52,8.55 4.71,0.01 8.54,-3.81 8.55,-8.52 l 0.48,-300.277 c 0,-4.712 -3.81,-8.543 -8.53,-8.55 -4.71,-0.008 -8.54,3.811 -8.55,8.523 z m -105.33,0 -0.47,300.274 c -0.01,4.71 3.81,8.54 8.52,8.55 4.71,0.01 8.54,-3.81 8.55,-8.52 l 0.48,-300.277 c 0,-4.712 -3.82,-8.543 -8.53,-8.55 -4.71,-0.008 -8.54,3.811 -8.55,8.523 z m 368.66,0 -0.47,300.274 c -0.01,4.71 3.81,8.54 8.52,8.55 4.71,0.01 8.54,-3.81 8.55,-8.52 l 0.48,-300.277 c 0,-4.712 -3.82,-8.543 -8.53,-8.55 -4.71,-0.008 -8.54,3.811 -8.55,8.523 z m -421.32,0 -0.48,300.274 c -0.01,4.71 3.81,8.54 8.52,8.55 4.71,0.01 8.54,-3.81 8.55,-8.52 l 0.48,-300.277 c 0.01,-4.712 -3.81,-8.543 -8.52,-8.55 -4.72,-0.008 -8.55,3.811 -8.55,8.523 z m -52.67,0 -0.48,300.274 c -0.01,4.71 3.81,8.54 8.53,8.55 4.71,0.01 8.54,-3.81 8.55,-8.52 l 0.47,-300.277 c 0.01,-4.712 -3.81,-8.543 -8.52,-8.55 -4.71,-0.008 -8.54,3.811 -8.55,8.523 z m 368.66,0 -0.48,300.274 c 0,4.71 3.82,8.54 8.53,8.55 4.71,0.01 8.54,-3.81 8.55,-8.52 l 0.47,-300.277 c 0.01,-4.712 -3.81,-8.543 -8.52,-8.55 -4.71,-0.008 -8.54,3.811 -8.55,8.523 z m -421.33,0 -0.47,300.274 c -0.01,4.71 3.81,8.54 8.52,8.55 4.71,0.01 8.54,-3.81 8.55,-8.52 l 0.48,-300.277 c 0.01,-4.712 -3.81,-8.543 -8.53,-8.55 -4.71,-0.008 -8.54,3.811 -8.55,8.523 z m -210.66,0 -0.477,300.274 c -0.007,4.71 3.812,8.54 8.523,8.55 4.711,0.01 8.543,-3.81 8.55,-8.52 l 0.477,-300.277 c 0.008,-4.712 -3.811,-8.543 -8.523,-8.55 -4.711,-0.008 -8.542,3.811 -8.55,8.523 z m -421.327,0 -0.478,300.274 c -0.007,4.71 3.812,8.54 8.523,8.55 4.712,0.01 8.543,-3.81 8.551,-8.52 l 0.477,-300.277 c 0.007,-4.712 -3.812,-8.543 -8.523,-8.55 -4.712,-0.008 -8.543,3.811 -8.55,8.523 z m 105.332,0 -0.478,300.274 c -0.007,4.71 3.812,8.54 8.523,8.55 4.712,0.01 8.543,-3.81 8.55,-8.52 l 0.478,-300.277 c 0.007,-4.712 -3.812,-8.543 -8.523,-8.55 -4.712,-0.008 -8.543,3.811 -8.55,8.523 z m -202.059,-8.523 h -0.055 c -4.712,-0.008 -8.543,3.811 -8.55,8.523 l -0.478,300.274 c -0.007,4.71 3.812,8.54 8.524,8.55 h 0.055 c 4.686,-0.02 8.487,-3.83 8.495,-8.52 l 0.477,-300.277 c 0.007,-4.693 -3.782,-8.513 -8.468,-8.55 z m 676.052,8.523 -0.477,300.274 c -0.008,4.71 3.811,8.54 8.523,8.55 4.711,0.01 8.543,-3.81 8.55,-8.52 l 0.477,-300.277 c 0.008,-4.712 -3.811,-8.543 -8.523,-8.55 -4.711,-0.008 -8.542,3.811 -8.55,8.523 z m -210.664,0 -0.477,300.274 c -0.007,4.71 3.812,8.54 8.523,8.55 4.712,0.01 8.543,-3.81 8.55,-8.52 l 0.477,-300.277 c 0.008,-4.712 -3.811,-8.543 -8.523,-8.55 -4.711,-0.008 -8.542,3.811 -8.55,8.523 z m -210.663,0 -0.478,300.274 c -0.007,4.71 3.812,8.54 8.523,8.55 4.712,0.01 8.543,-3.81 8.55,-8.52 l 0.478,-300.277 c 0.007,-4.712 -3.812,-8.543 -8.523,-8.55 -4.712,-0.008 -8.543,3.811 -8.55,8.523 z m 789.989,0 -0.48,300.274 c 0,4.71 3.81,8.54 8.53,8.55 4.71,0.01 8.54,-3.81 8.55,-8.52 l 0.47,-300.277 c 0.01,-4.712 -3.81,-8.543 -8.52,-8.55 -4.71,-0.008 -8.54,3.811 -8.55,8.523 z m -1000.653,0 -0.478,300.274 c -0.007,4.71 3.812,8.54 8.523,8.55 4.712,0.01 8.543,-3.81 8.551,-8.52 l 0.477,-300.277 c 0.007,-4.712 -3.812,-8.543 -8.523,-8.55 -4.712,-0.008 -8.543,3.811 -8.55,8.523 z m 105.332,0 -0.478,300.274 c -0.007,4.71 3.812,8.54 8.523,8.55 4.712,0.01 8.543,-3.81 8.551,-8.52 l 0.477,-300.277 c 0.007,-4.712 -3.812,-8.543 -8.523,-8.55 -4.712,-0.008 -8.543,3.811 -8.55,8.523 z m 473.993,0 -0.477,300.274 c -0.008,4.71 3.811,8.54 8.523,8.55 4.711,0.01 8.543,-3.81 8.55,-8.52 l 0.477,-300.277 c 0.008,-4.712 -3.811,-8.543 -8.523,-8.55 -4.711,-0.008 -8.542,3.811 -8.55,8.523 z m -210.664,0 -0.477,300.274 c -0.007,4.71 3.812,8.54 8.523,8.55 4.712,0.01 8.543,-3.81 8.55,-8.52 l 0.478,-300.277 c 0.007,-4.712 -3.812,-8.543 -8.523,-8.55 -4.712,-0.008 -8.543,3.811 -8.551,8.523 z m 1000.652,0 -0.48,300.274 c 0,4.71 3.82,8.54 8.53,8.55 4.71,0.01 8.54,-3.81 8.55,-8.52 l 0.47,-300.277 c 0.01,-4.712 -3.81,-8.543 -8.52,-8.55 -4.71,-0.008 -8.54,3.811 -8.55,8.523 z m -842.654,0 -0.477,300.274 c -0.008,4.71 3.812,8.54 8.523,8.55 4.711,0.01 8.543,-3.81 8.55,-8.52 l 0.477,-300.277 c 0.008,-4.712 -3.811,-8.543 -8.523,-8.55 -4.711,-0.008 -8.542,3.811 -8.55,8.523 z m -210.664,0 -0.477,300.274 c -0.007,4.71 3.812,8.54 8.523,8.55 4.712,0.01 8.543,-3.81 8.55,-8.52 l 0.478,-300.277 c 0.007,-4.712 -3.812,-8.543 -8.523,-8.55 -4.712,-0.008 -8.543,3.811 -8.551,8.523 z m 1000.658,0 -0.48,300.274 c -0.01,4.71 3.81,8.54 8.52,8.55 4.71,0.01 8.54,-3.81 8.55,-8.52 l 0.48,-300.277 c 0.01,-4.712 -3.81,-8.543 -8.52,-8.55 -4.72,-0.008 -8.55,3.811 -8.55,8.523 z m -421.33,0 -0.48,300.274 c -0.01,4.71 3.81,8.54 8.52,8.55 4.71,0.01 8.55,-3.81 8.55,-8.52 l 0.48,-300.277 c 0.01,-4.712 -3.81,-8.543 -8.52,-8.55 -4.71,-0.008 -8.55,3.811 -8.55,8.523 z m -631.994,0 -0.477,300.274 c -0.007,4.71 3.812,8.54 8.523,8.55 4.712,0.01 8.543,-3.81 8.55,-8.52 l 0.478,-300.277 c 0.007,-4.712 -3.812,-8.543 -8.523,-8.55 -4.712,-0.008 -8.543,3.811 -8.551,8.523 z m 1000.654,0 -0.48,300.274 c 0,4.71 3.81,8.54 8.53,8.55 4.71,0.01 8.54,-3.81 8.54,-8.52 l 0.48,-300.277 c 0.01,-4.712 -3.81,-8.543 -8.52,-8.55 -4.71,-0.008 -8.54,3.811 -8.55,8.523 z m -105.33,0 -0.48,300.274 c -0.01,4.71 3.81,8.54 8.52,8.55 4.72,0.01 8.55,-3.81 8.55,-8.52 l 0.48,-300.277 c 0.01,-4.712 -3.81,-8.543 -8.52,-8.55 -4.71,-0.008 -8.54,3.811 -8.55,8.523 z m -105.33,0 -0.48,300.274 c -0.01,4.71 3.81,8.54 8.52,8.55 4.71,0.01 8.54,-3.81 8.55,-8.52 l 0.48,-300.277 c 0.01,-4.712 -3.81,-8.543 -8.52,-8.55 -4.72,-0.008 -8.55,3.811 -8.55,8.523 z" />
      </g>
      <g
         id="g124"
         transform="matrix(0.26458333,0,0,0.26458333,-254.49977,-186.16756)"
         style="clip-rule:evenodd;fill-rule:evenodd;stroke-linecap:round;stroke-linejoin:round;stroke-miterlimit:1.5">
        <path
           id="path122"
           style="fill:#c2c2c2"
           d="m 378.733,904.366 -0.478,300.274 c -0.007,4.71 3.812,8.54 8.523,8.55 4.712,0.01 8.543,-3.81 8.551,-8.52 l 0.477,-300.277 c 0.007,-4.712 -3.812,-8.543 -8.523,-8.55 -4.712,-0.008 -8.543,3.811 -8.55,8.523 z m -96.727,-8.523 h -0.055 c -4.712,-0.008 -8.543,3.811 -8.55,8.523 l -0.478,300.274 c -0.007,4.71 3.812,8.54 8.524,8.55 h 0.055 c 4.686,-0.02 8.487,-3.83 8.495,-8.52 l 0.477,-300.277 c 0.007,-4.693 -3.782,-8.513 -8.468,-8.55 z m 44.061,8.523 -0.478,300.274 c -0.007,4.71 3.812,8.54 8.523,8.55 4.712,0.01 8.543,-3.81 8.551,-8.52 l 0.477,-300.277 c 0.007,-4.712 -3.812,-8.543 -8.523,-8.55 -4.712,-0.008 -8.543,3.811 -8.55,8.523 z"
           sodipodi:nodetypes="ccscccccsccsscccccscccc" />
      </g>
      <g
         id="g140"
         transform="matrix(0.07253252,0,0,0.26458333,-578.13254,-322.08137)"
         style="clip-rule:evenodd;fill-rule:evenodd;stroke-linecap:round;stroke-linejoin:round;stroke-miterlimit:1.5">
        <path
           id="path138"
           style="fill:#d9d9d9"
           d="m 216.355,1719.29 c 0,0 5567.335,2.65 5706.825,2.67 l 14.04,0.02 v -0.03 h 0.72 c 4.56,-0.38 8.01,-4.29 7.82,-8.86 -0.19,-4.57 -3.94,-8.18 -8.52,-8.18 l -5720.864,-2.69 c -4.715,0 -8.541,3.81 -8.547,8.53 -0.005,4.71 3.812,8.54 8.526,8.54 z m -0.11,-43.69 c 0,0 5567.335,2.65 5706.825,2.67 l 14.04,0.02 v -0.03 h 0.73 c 4.55,-0.39 8,-4.29 7.81,-8.86 -0.19,-4.57 -3.94,-8.18 -8.52,-8.19 l -5720.864,-2.68 c -4.715,-0.01 -8.541,3.81 -8.547,8.52 -0.005,4.72 3.812,8.55 8.526,8.55 z m -0.11,-43.69 c 0,0 5567.335,2.64 5706.825,2.67 l 14.04,0.01 v -0.03 h 0.73 c 4.55,-0.38 8,-4.29 7.81,-8.86 -0.19,-4.57 -3.94,-8.18 -8.52,-8.18 l -5720.865,-2.69 c -4.714,0 -8.54,3.81 -8.546,8.53 -0.006,4.71 3.811,8.54 8.526,8.55 z m -0.11,-43.7 c 0,0 5567.335,2.65 5706.825,2.67 l 14.04,0.02 v -0.03 h 0.72 c 4.56,-0.38 8.01,-4.29 7.82,-8.86 -0.19,-4.57 -3.94,-8.18 -8.52,-8.18 l -5720.865,-2.69 c -4.714,-0.01 -8.54,3.81 -8.546,8.53 -0.006,4.71 3.811,8.54 8.526,8.54 z m -0.111,-43.69 c 0,0 5567.336,2.64 5706.826,2.67 l 14.04,0.01 v -0.02 l 0.73,-0.01 c 4.55,-0.38 8,-4.28 7.81,-8.85 -0.19,-4.57 -3.94,-8.18 -8.52,-8.19 l -5720.865,-2.68 c -4.714,-0.01 -8.541,3.81 -8.546,8.52 -0.006,4.72 3.811,8.54 8.525,8.55 z m -0.11,-43.69 c 0,0 5567.336,2.64 5706.826,2.66 l 14.04,0.02 v -0.03 h 0.72 c 4.56,-0.38 8.01,-4.29 7.82,-8.86 -0.19,-4.57 -3.94,-8.18 -8.52,-8.18 l -5720.865,-2.69 c -4.715,0 -8.541,3.81 -8.547,8.53 -0.005,4.71 3.812,8.54 8.526,8.55 z m -0.11,-43.7 c 0,0 5567.336,2.65 5706.826,2.67 l 14.04,0.02 v -0.03 h 0.72 c 4.56,-0.39 8.01,-4.29 7.82,-8.86 -0.19,-4.57 -3.95,-8.18 -8.52,-8.19 l -5720.865,-2.68 c -4.715,-0.01 -8.541,3.81 -8.547,8.52 -0.005,4.72 3.812,8.54 8.526,8.55 z" />
      </g>
      <g
         id="g156"
         transform="matrix(0.26458333,0,0,0.26458333,-624.07839,-186.16756)"
         style="clip-rule:evenodd;fill-rule:evenodd;stroke-linecap:round;stroke-linejoin:round;stroke-miterlimit:1.5">
        <path
           id="path154"
           style="fill:#cecece"
           d="m 1274.05,904.366 -0.47,300.274 c -0.01,4.71 3.81,8.54 8.52,8.55 4.71,0.01 8.54,-3.81 8.55,-8.52 l 0.48,-300.277 c 0,-4.712 -3.81,-8.543 -8.53,-8.55 -4.71,-0.008 -8.54,3.811 -8.55,8.523 z m -105.33,0 -0.47,300.274 c -0.01,4.71 3.81,8.54 8.52,8.55 4.71,0.01 8.54,-3.81 8.55,-8.52 l 0.48,-300.277 c 0,-4.712 -3.82,-8.543 -8.53,-8.55 -4.71,-0.008 -8.54,3.811 -8.55,8.523 z m 368.66,0 -0.47,300.274 c -0.01,4.71 3.81,8.54 8.52,8.55 4.71,0.01 8.54,-3.81 8.55,-8.52 l 0.48,-300.277 c 0,-4.712 -3.82,-8.543 -8.53,-8.55 -4.71,-0.008 -8.54,3.811 -8.55,8.523 z m -421.32,0 -0.48,300.274 c -0.01,4.71 3.81,8.54 8.52,8.55 4.71,0.01 8.54,-3.81 8.55,-8.52 l 0.48,-300.277 c 0.01,-4.712 -3.81,-8.543 -8.52,-8.55 -4.72,-0.008 -8.55,3.811 -8.55,8.523 z m -52.67,0 -0.48,300.274 c -0.01,4.71 3.81,8.54 8.53,8.55 4.71,0.01 8.54,-3.81 8.55,-8.52 l 0.47,-300.277 c 0.01,-4.712 -3.81,-8.543 -8.52,-8.55 -4.71,-0.008 -8.54,3.811 -8.55,8.523 z m 368.66,0 -0.48,300.274 c 0,4.71 3.82,8.54 8.53,8.55 4.71,0.01 8.54,-3.81 8.55,-8.52 l 0.47,-300.277 c 0.01,-4.712 -3.81,-8.543 -8.52,-8.55 -4.71,-0.008 -8.54,3.811 -8.55,8.523 z m -421.33,0 -0.47,300.274 c -0.01,4.71 3.81,8.54 8.52,8.55 4.71,0.01 8.54,-3.81 8.55,-8.52 l 0.48,-300.277 c 0.01,-4.712 -3.81,-8.543 -8.53,-8.55 -4.71,-0.008 -8.54,3.811 -8.55,8.523 z m -210.66,0 -0.477,300.274 c -0.007,4.71 3.812,8.54 8.523,8.55 4.711,0.01 8.543,-3.81 8.55,-8.52 l 0.477,-300.277 c 0.008,-4.712 -3.811,-8.543 -8.523,-8.55 -4.711,-0.008 -8.542,3.811 -8.55,8.523 z m -421.327,0 -0.478,300.274 c -0.007,4.71 3.812,8.54 8.523,8.55 4.712,0.01 8.543,-3.81 8.551,-8.52 l 0.477,-300.277 c 0.007,-4.712 -3.812,-8.543 -8.523,-8.55 -4.712,-0.008 -8.543,3.811 -8.55,8.523 z m 105.332,0 -0.478,300.274 c -0.007,4.71 3.812,8.54 8.523,8.55 4.712,0.01 8.543,-3.81 8.55,-8.52 l 0.478,-300.277 c 0.007,-4.712 -3.812,-8.543 -8.523,-8.55 -4.712,-0.008 -8.543,3.811 -8.55,8.523 z m -202.059,-8.523 h -0.055 c -4.712,-0.008 -8.543,3.811 -8.55,8.523 l -0.478,300.274 c -0.007,4.71 3.812,8.54 8.524,8.55 h 0.055 c 4.686,-0.02 8.487,-3.83 8.495,-8.52 l 0.477,-300.277 c 0.007,-4.693 -3.782,-8.513 -8.468,-8.55 z m 676.052,8.523 -0.477,300.274 c -0.008,4.71 3.811,8.54 8.523,8.55 4.711,0.01 8.543,-3.81 8.55,-8.52 l 0.477,-300.277 c 0.008,-4.712 -3.811,-8.543 -8.523,-8.55 -4.711,-0.008 -8.542,3.811 -8.55,8.523 z m -210.664,0 -0.477,300.274 c -0.007,4.71 3.812,8.54 8.523,8.55 4.712,0.01 8.543,-3.81 8.55,-8.52 l 0.477,-300.277 c 0.008,-4.712 -3.811,-8.543 -8.523,-8.55 -4.711,-0.008 -8.542,3.811 -8.55,8.523 z m -210.663,0 -0.478,300.274 c -0.007,4.71 3.812,8.54 8.523,8.55 4.712,0.01 8.543,-3.81 8.55,-8.52 l 0.478,-300.277 c 0.007,-4.712 -3.812,-8.543 -8.523,-8.55 -4.712,-0.008 -8.543,3.811 -8.55,8.523 z m 789.989,0 -0.48,300.274 c 0,4.71 3.81,8.54 8.53,8.55 4.71,0.01 8.54,-3.81 8.55,-8.52 l 0.47,-300.277 c 0.01,-4.712 -3.81,-8.543 -8.52,-8.55 -4.71,-0.008 -8.54,3.811 -8.55,8.523 z m -1000.653,0 -0.478,300.274 c -0.007,4.71 3.812,8.54 8.523,8.55 4.712,0.01 8.543,-3.81 8.551,-8.52 l 0.477,-300.277 c 0.007,-4.712 -3.812,-8.543 -8.523,-8.55 -4.712,-0.008 -8.543,3.811 -8.55,8.523 z m 105.332,0 -0.478,300.274 c -0.007,4.71 3.812,8.54 8.523,8.55 4.712,0.01 8.543,-3.81 8.551,-8.52 l 0.477,-300.277 c 0.007,-4.712 -3.812,-8.543 -8.523,-8.55 -4.712,-0.008 -8.543,3.811 -8.55,8.523 z m 473.993,0 -0.477,300.274 c -0.008,4.71 3.811,8.54 8.523,8.55 4.711,0.01 8.543,-3.81 8.55,-8.52 l 0.477,-300.277 c 0.008,-4.712 -3.811,-8.543 -8.523,-8.55 -4.711,-0.008 -8.542,3.811 -8.55,8.523 z m -210.664,0 -0.477,300.274 c -0.007,4.71 3.812,8.54 8.523,8.55 4.712,0.01 8.543,-3.81 8.55,-8.52 l 0.478,-300.277 c 0.007,-4.712 -3.812,-8.543 -8.523,-8.55 -4.712,-0.008 -8.543,3.811 -8.551,8.523 z m 157.998,0 -0.477,300.274 c -0.008,4.71 3.812,8.54 8.523,8.55 4.711,0.01 8.543,-3.81 8.55,-8.52 l 0.477,-300.277 c 0.008,-4.712 -3.811,-8.543 -8.523,-8.55 -4.711,-0.008 -8.542,3.811 -8.55,8.523 z m -210.664,0 -0.477,300.274 c -0.007,4.71 3.812,8.54 8.523,8.55 4.712,0.01 8.543,-3.81 8.55,-8.52 l 0.478,-300.277 c 0.007,-4.712 -3.812,-8.543 -8.523,-8.55 -4.712,-0.008 -8.543,3.811 -8.551,8.523 z m 1000.658,0 -0.48,300.274 c -0.01,4.71 3.81,8.54 8.52,8.55 4.71,0.01 8.54,-3.81 8.55,-8.52 l 0.48,-300.277 c 0.01,-4.712 -3.81,-8.543 -8.52,-8.55 -4.72,-0.008 -8.55,3.811 -8.55,8.523 z m -421.33,0 -0.48,300.274 c -0.01,4.71 3.81,8.54 8.52,8.55 4.71,0.01 8.55,-3.81 8.55,-8.52 l 0.48,-300.277 c 0.01,-4.712 -3.81,-8.543 -8.52,-8.55 -4.71,-0.008 -8.55,3.811 -8.55,8.523 z m -631.994,0 -0.477,300.274 c -0.007,4.71 3.812,8.54 8.523,8.55 4.712,0.01 8.543,-3.81 8.55,-8.52 l 0.478,-300.277 c 0.007,-4.712 -3.812,-8.543 -8.523,-8.55 -4.712,-0.008 -8.543,3.811 -8.551,8.523 z m 1000.654,0 -0.48,300.274 c 0,4.71 3.81,8.54 8.53,8.55 4.71,0.01 8.54,-3.81 8.54,-8.52 l 0.48,-300.277 c 0.01,-4.712 -3.81,-8.543 -8.52,-8.55 -4.71,-0.008 -8.54,3.811 -8.55,8.523 z m -105.33,0 -0.48,300.274 c -0.01,4.71 3.81,8.54 8.52,8.55 4.72,0.01 8.55,-3.81 8.55,-8.52 l 0.48,-300.277 c 0.01,-4.712 -3.81,-8.543 -8.52,-8.55 -4.71,-0.008 -8.54,3.811 -8.55,8.523 z m -105.33,0 -0.48,300.274 c -0.01,4.71 3.81,8.54 8.52,8.55 4.71,0.01 8.54,-3.81 8.55,-8.52 l 0.48,-300.277 c 0.01,-4.712 -3.81,-8.543 -8.52,-8.55 -4.72,-0.008 -8.55,3.811 -8.55,8.523 z" />
      </g>
      <path
         id="path170"
         style="clip-rule:evenodd;fill:#cecece;fill-rule:evenodd;stroke-width:0.264583;stroke-linecap:round;stroke-linejoin:round;stroke-miterlimit:1.5"
         d="m -173.22612,50.971334 h -0.0146 c -1.24671,-0.0021 -2.26033,1.008327 -2.26218,2.255044 l -0.12647,79.447492 c -0.002,1.24619 1.00859,2.25954 2.2553,2.26219 h 0.0146 c 1.23983,-0.005 2.24552,-1.01335 2.24763,-2.25425 l 0.12621,-79.448288 c 0.002,-1.24169 -1.00066,-2.252398 -2.24049,-2.262188 z m 11.6578,2.255044 -0.12647,79.447492 c -0.002,1.24619 1.00859,2.25954 2.25505,2.26219 1.24671,0.003 2.26033,-1.00806 2.26245,-2.25425 l 0.1262,-79.448288 c 0.002,-1.246717 -1.00859,-2.260336 -2.25504,-2.262188 -1.24672,-0.0021 -2.26034,1.008327 -2.26219,2.255044 z"
         sodipodi:nodetypes="csccsscccccccccc" />
      <g
         id="g366"
         transform="matrix(0.26458333,0,0,0.26458333,-601.43072,-185.52462)"
         style="clip-rule:evenodd;fill-rule:evenodd;stroke-linecap:round;stroke-linejoin:round;stroke-miterlimit:1.5">
        <g
           id="g352"
           transform="translate(470.941,-7.70709)">
          <path
             id="path350"
             style="fill:none;stroke:#810011;stroke-width:33.54px"
             d="m 468.978,949.586 1.188,221.144" />
        </g>
        <g
           id="g356"
           transform="rotate(-90,701.1885,820.8315)">
          <path
             id="path354"
             style="fill:none;stroke:#810011;stroke-width:33.54px"
             d="m 468.978,949.586 1.188,221.144" />
        </g>
        <g
           id="g360"
           transform="matrix(-0.85136,0.524589,-0.578913,-0.937333,1982.52,1785.62)">
          <path
             id="path358"
             style="fill:none;stroke:#810011;stroke-width:31.86px"
             d="m 489.789,941.51 23.375,243.93" />
        </g>
        <g
           id="g364"
           transform="matrix(0.85136,0.524589,0.578913,-0.937333,-102.677,1785.62)">
          <path
             id="path362"
             style="fill:none;stroke:#810011;stroke-width:31.86px"
             d="m 489.789,941.51 23.375,243.93" />
        </g>
      </g>
      <g
         id="g438"
         transform="matrix(0.26458333,0,0,0.26458333,-456.94041,-185.52462)"
         style="clip-rule:evenodd;fill-rule:evenodd;stroke-linecap:round;stroke-linejoin:round;stroke-miterlimit:1.5">
        <g
           id="g424"
           transform="translate(470.941,-7.70709)">
          <path
             id="path422"
             style="fill:none;stroke:#810011;stroke-width:33.54px"
             d="m 468.978,949.586 1.188,221.144" />
        </g>
        <g
           id="g428"
           transform="rotate(-90,701.1885,820.8315)">
          <path
             id="path426"
             style="fill:none;stroke:#810011;stroke-width:33.54px"
             d="m 468.978,949.586 1.188,221.144" />
        </g>
        <g
           id="g432"
           transform="matrix(-0.85136,0.524589,-0.578913,-0.937333,1982.52,1785.62)">
          <path
             id="path430"
             style="fill:none;stroke:#810011;stroke-width:31.86px"
             d="m 489.789,941.51 23.375,243.93" />
        </g>
        <g
           id="g436"
           transform="matrix(0.85136,0.524589,0.578913,-0.937333,-102.677,1785.62)">
          <path
             id="path434"
             style="fill:none;stroke:#810011;stroke-width:31.86px"
             d="m 489.789,941.51 23.375,243.93" />
        </g>
      </g>
      <g
         id="g638"
         transform="matrix(0.26458333,0,0,0.26458333,-690.41589,-185.38175)"
         style="clip-rule:evenodd;fill-rule:evenodd;stroke-linecap:round;stroke-linejoin:round;stroke-miterlimit:1.5">
        <g
           id="g632"
           transform="matrix(-0.85136,0.524589,-0.578913,-0.937333,1740.66,1785.67)">
          <path
             id="path630"
             style="fill:none;stroke:#810011;stroke-width:31.86px"
             d="m 489.789,941.51 23.375,243.93" />
        </g>
        <g
           id="g636"
           transform="matrix(0.85136,0.524589,0.578913,-0.937333,-344.529,1785.67)">
          <path
             id="path634"
             style="fill:none;stroke:#810011;stroke-width:31.86px"
             d="m 489.789,941.51 23.375,243.93" />
        </g>
      </g>
      <g
         id="g678"
         transform="matrix(0.26458333,0,0,0.26458333,-616.65799,-185.38175)"
         style="clip-rule:evenodd;fill-rule:evenodd;stroke-linecap:round;stroke-linejoin:round;stroke-miterlimit:1.5">
        <g
           id="g672"
           transform="matrix(-0.85136,0.524589,-0.578913,-0.937333,1740.66,1785.67)">
          <path
             id="path670"
             style="fill:none;stroke:#810011;stroke-width:31.86px"
             d="m 489.789,941.51 23.375,243.93" />
        </g>
        <g
           id="g676"
           transform="matrix(0.85136,0.524589,0.578913,-0.937333,-344.529,1785.67)">
          <path
             id="path674"
             style="fill:none;stroke:#810011;stroke-width:31.86px"
             d="m 489.789,941.51 23.375,243.93" />
        </g>
      </g>
      <g
         id="g718"
         transform="matrix(0.26458333,0,0,0.26458333,-465.13641,-185.38175)"
         style="clip-rule:evenodd;fill-rule:evenodd;stroke-linecap:round;stroke-linejoin:round;stroke-miterlimit:1.5">
        <g
           id="g712"
           transform="matrix(-0.85136,0.524589,-0.578913,-0.937333,1740.66,1785.67)">
          <path
             id="path710"
             style="fill:none;stroke:#810011;stroke-width:31.86px"
             d="m 489.789,941.51 23.375,243.93" />
        </g>
        <g
           id="g716"
           transform="matrix(0.85136,0.524589,0.578913,-0.937333,-344.529,1785.67)">
          <path
             id="path714"
             style="fill:none;stroke:#810011;stroke-width:31.86px"
             d="m 489.789,941.51 23.375,243.93" />
        </g>
      </g>
    </g>
  </g>
</svg>
