<?xml version="1.0" encoding="UTF-8" standalone="no"?>
<!--?xml version="1.0" encoding="UTF-8"?-->

<svg
   id="Layer_1"
   width="176.07"
   height="161.19"
   version="1.1"
   viewBox="0 0 176.07 161.19"
   sodipodi:docname="2022-VN-05-taskbody2.svg"
   inkscape:version="1.1.1 (3bf5ae0d25, 2021-09-20)"
   xmlns:inkscape="http://www.inkscape.org/namespaces/inkscape"
   xmlns:sodipodi="http://sodipodi.sourceforge.net/DTD/sodipodi-0.dtd"
   xmlns="http://www.w3.org/2000/svg"
   xmlns:svg="http://www.w3.org/2000/svg">
  <defs
     id="defs170" />
  <sodipodi:namedview
     id="namedview168"
     pagecolor="#ffffff"
     bordercolor="#666666"
     borderopacity="1.0"
     inkscape:pageshadow="2"
     inkscape:pageopacity="0.0"
     inkscape:pagecheckerboard="0"
     showgrid="false"
     inkscape:zoom="4.6218747"
     inkscape:cx="86.328605"
     inkscape:cy="80.595001"
     inkscape:window-width="2048"
     inkscape:window-height="1017"
     inkscape:window-x="-8"
     inkscape:window-y="-8"
     inkscape:window-maximized="1"
     inkscape:current-layer="Layer_1" />
  <style
     type="text/css"
     id="style2">
	.st0{fill:#FFFFFF;}
	.st1{fill:none;stroke:#000000;stroke-miterlimit:10;}
	.st2{fill:#68BE60;}
	.st3{fill:#FFD65E;}
	.st4{fill:#44AEE3;}
	.st5{font-family:'UTMAvo';}
	.st6{font-size:20px;}
</style>
  <g
     id="g2520"
     transform="translate(-2.05,-1.7227)"
     class="csvg-ignore">
    <polygon
       id="polygon6"
       class="st1"
       points="104.68,10.72 90.09,2.3 75.5,10.72 75.5,27.57 90.09,35.99 104.68,27.57 " />
    <polygon
       id="polygon10"
       class="st1"
       points="90.09,35.99 75.5,27.57 60.91,35.99 60.91,52.84 75.5,61.26 90.09,52.84 " />
    <polygon
       id="polygon14"
       class="st1"
       points="119.27,35.99 104.68,27.57 90.09,35.99 90.09,52.84 104.68,61.26 119.27,52.84 " />
    <polygon
       id="polygon18"
       class="st1"
       points="75.5,61.26 60.91,52.84 46.32,61.26 46.32,78.11 60.91,86.53 75.5,78.11 " />
    <polygon
       id="polygon22"
       class="st1"
       points="104.68,61.26 90.09,52.84 75.5,61.26 75.5,78.11 90.09,86.53 104.68,78.11 " />
    <polygon
       id="polygon26"
       class="st1"
       points="133.86,61.26 119.27,52.84 104.68,61.26 104.68,78.11 119.27,86.53 133.86,78.11 " />
    <polygon
       id="polygon30"
       class="st1"
       points="60.91,86.53 46.32,78.11 31.73,86.53 31.73,103.38 46.32,111.8 60.91,103.38 " />
    <polygon
       id="polygon34"
       class="st1"
       points="90.09,86.53 75.5,78.11 60.91,86.53 60.91,103.38 75.5,111.8 90.09,103.38 " />
    <polygon
       id="polygon36"
       class="st0"
       points="119.27,86.53 104.68,78.11 90.09,86.53 90.09,103.38 104.68,111.8 119.27,103.38 "
       style="fill:#09174f" />
    <polygon
       id="polygon38"
       class="st1"
       points="119.27,86.53 104.68,78.11 90.09,86.53 90.09,103.38 104.68,111.8 119.27,103.38 " />
    <polygon
       id="polygon40"
       class="st0"
       points="148.45,86.53 133.86,78.11 119.27,86.53 119.27,103.38 133.86,111.8 148.45,103.38 "
       style="fill:#ffc900" />
    <polygon
       id="polygon42"
       class="st1"
       points="148.44,86.53 133.86,78.11 119.27,86.53 119.27,103.38 133.86,111.8 148.44,103.38 " />
    <polygon
       id="polygon44"
       class="st0"
       points="46.32,111.8 31.73,103.38 17.14,111.8 17.14,128.65 31.73,137.07 46.32,128.65 "
       style="fill:#00b200" />
    <rect
       id="rect1914-96-1"
       x="27.896999"
       y="116.39"
       width="7.665"
       height="7.665"
       style="fill:#ffffff;stroke-width:0;stroke-miterlimit:1.5;paint-order:stroke fill markers;stop-color:#000000" />
    <polygon
       id="polygon46"
       class="st1"
       points="46.32,111.8 31.73,103.38 17.14,111.8 17.14,128.65 31.73,137.07 46.32,128.65 " />
    <polygon
       id="polygon50"
       class="st1"
       points="75.5,111.8 60.91,103.38 46.32,111.8 46.32,128.65 60.91,137.07 75.5,128.65 " />
    <polygon
       id="polygon52"
       class="st0"
       points="104.68,111.8 90.09,103.38 75.5,111.8 75.5,128.65 90.09,137.07 104.68,128.65 "
       style="fill:#00b200" />
    <polygon
       id="polygon54"
       class="st1"
       points="104.68,111.8 90.09,103.38 75.5,111.8 75.5,128.65 90.09,137.07 104.68,128.65 " />
    <polygon
       id="polygon56"
       class="st0"
       points="133.86,111.8 119.27,103.38 104.68,111.8 104.68,128.65 119.27,137.07 133.86,128.65 "
       style="fill:#ffc900" />
    <polygon
       id="polygon58"
       class="st1"
       points="133.86,111.8 119.27,103.38 104.68,111.8 104.68,128.65 119.27,137.07 133.86,128.65 " />
    <polygon
       id="polygon60"
       class="st0"
       points="163.03,111.8 148.45,103.38 133.86,111.8 133.86,128.65 148.45,137.07 163.03,128.65 "
       style="fill:#ffc900" />
    <polygon
       id="polygon62"
       class="st1"
       points="163.03,111.8 148.45,103.38 133.86,111.8 133.86,128.65 148.45,137.07 163.03,128.65 " />
    <polygon
       id="polygon64"
       class="st2"
       points="31.73,137.07 17.14,128.64 2.55,137.07 2.55,153.91 17.14,162.34 31.73,153.91 "
       style="fill:#00b200" />
    <polygon
       id="polygon66"
       class="st1"
       points="31.73,137.07 17.14,128.64 2.55,137.07 2.55,153.91 17.14,162.34 31.73,153.91 " />
    <polygon
       id="polygon68"
       class="st2"
       points="60.91,137.07 46.32,128.64 31.73,137.07 31.73,153.91 46.32,162.34 60.91,153.91 "
       style="fill:#00b200" />
    <polygon
       id="polygon70"
       class="st1"
       points="60.91,137.07 46.32,128.64 31.73,137.07 31.73,153.91 46.32,162.34 60.91,153.91 " />
    <polygon
       id="polygon72"
       class="st3"
       points="90.09,137.07 75.5,128.64 60.91,137.07 60.91,153.91 75.5,162.34 90.09,153.91 "
       style="fill:#ffc900" />
    <polygon
       id="polygon74"
       class="st1"
       points="90.09,137.07 75.5,128.64 60.91,137.07 60.91,153.91 75.5,162.34 90.09,153.91 " />
    <polygon
       id="polygon76"
       class="st4"
       points="119.27,137.07 104.68,128.64 90.09,137.07 90.09,153.91 104.68,162.34 119.27,153.91 "
       style="fill:#09174f" />
    <polygon
       id="polygon78"
       class="st1"
       points="119.27,137.07 104.68,128.64 90.09,137.07 90.09,153.91 104.68,162.34 119.27,153.91 " />
    <polygon
       id="polygon80"
       class="st2"
       points="148.45,137.07 133.86,128.64 119.27,137.07 119.27,153.91 133.86,162.34 148.45,153.91 "
       style="fill:#00b200" />
    <polygon
       id="polygon82"
       class="st1"
       points="148.44,137.07 133.86,128.64 119.27,137.07 119.27,153.91 133.86,162.34 148.44,153.91 " />
    <polygon
       id="polygon84"
       class="st4"
       points="177.62,137.07 163.03,128.64 148.44,137.07 148.44,153.91 163.03,162.34 177.62,153.91 "
       style="fill:#09174f" />
    <polygon
       id="polygon86"
       class="st1"
       points="177.62,137.07 163.03,128.64 148.44,137.07 148.44,153.91 163.03,162.34 177.62,153.91 " />
    <path
       id="path1360"
       transform="matrix(1.7135,0,0,1.7135,-42.395,-30.529)"
       d="m 83.408,69.657 2.4013,1.5062 2.3179,-1.5779 -0.69045,2.7492 2.2169,1.7168 -2.828,0.19289 -0.94776,2.6389 -1.0573,-2.63 -2.8026,-0.08589 2.1745,-1.8183 z"
       style="fill:#ffffff;stroke-width:0;stroke-miterlimit:1.5;paint-order:stroke fill markers;stop-color:#000000" />
    <path
       id="path1360-4"
       transform="matrix(1.7135,0,0,1.7135,-42.395,21.142)"
       d="m 83.408,69.657 2.4013,1.5062 2.3179,-1.5779 -0.69045,2.7492 2.2169,1.7168 -2.828,0.19289 -0.94776,2.6389 -1.0573,-2.63 -2.8026,-0.08589 2.1745,-1.8183 z"
       style="fill:#ffffff;stroke-width:0;stroke-miterlimit:1.5;paint-order:stroke fill markers;stop-color:#000000" />
    <path
       id="path1360-4-3"
       transform="matrix(1.7135,0,0,1.7135,15.955,21.142)"
       d="m 83.408,69.657 2.4013,1.5062 2.3179,-1.5779 -0.69045,2.7492 2.2169,1.7168 -2.828,0.19289 -0.94776,2.6389 -1.0573,-2.63 -2.8026,-0.08589 2.1745,-1.8183 z"
       style="fill:#ffffff;stroke-width:0;stroke-miterlimit:1.5;paint-order:stroke fill markers;stop-color:#000000" />
    <circle
       id="path1759"
       cx="133.86"
       cy="94.955002"
       r="3.6993999"
       style="fill:#ffffff;stroke-width:0;stroke-miterlimit:1.5;paint-order:stroke fill markers;stop-color:#000000" />
    <circle
       id="path1759-0"
       cx="119.27"
       cy="120.22"
       r="3.6993999"
       style="fill:#ffffff;stroke-width:0;stroke-miterlimit:1.5;paint-order:stroke fill markers;stop-color:#000000" />
    <circle
       id="path1759-1"
       cx="148.45"
       cy="120.22"
       r="3.6993999"
       style="fill:#ffffff;stroke-width:0;stroke-miterlimit:1.5;paint-order:stroke fill markers;stop-color:#000000" />
    <circle
       id="path1759-9"
       cx="75.5"
       cy="145.49001"
       r="3.6993999"
       style="fill:#ffffff;stroke-width:0;stroke-miterlimit:1.5;paint-order:stroke fill markers;stop-color:#000000" />
    <rect
       id="rect1914"
       x="86.257004"
       y="116.39"
       width="7.665"
       height="7.665"
       style="fill:#ffffff;stroke-width:0;stroke-miterlimit:1.5;paint-order:stroke fill markers;stop-color:#000000" />
    <rect
       id="rect1914-96"
       x="42.487"
       y="141.66"
       width="7.665"
       height="7.665"
       style="fill:#ffffff;stroke-width:0;stroke-miterlimit:1.5;paint-order:stroke fill markers;stop-color:#000000" />
    <rect
       id="rect1914-9"
       x="130.03"
       y="141.66"
       width="7.665"
       height="7.665"
       style="fill:#ffffff;stroke-width:0;stroke-miterlimit:1.5;paint-order:stroke fill markers;stop-color:#000000" />
    <rect
       id="rect1914-96-6"
       x="13.307"
       y="141.66"
       width="7.665"
       height="7.665"
       style="fill:#ffffff;stroke-width:0;stroke-miterlimit:1.5;paint-order:stroke fill markers;stop-color:#000000" />
  </g>
</svg>
