<?xml version="1.0" encoding="UTF-8" standalone="no"?>
<svg
   sodipodi:docname="2022-HU-04-taskbody.svg"
   inkscape:version="1.1.1 (3bf5ae0d25, 2021-09-20)"
   id="svg6513"
   version="1.1"
   viewBox="0 0 355.1777 352.11804"
   height="352.11804mm"
   width="355.1777mm"
   xmlns:inkscape="http://www.inkscape.org/namespaces/inkscape"
   xmlns:sodipodi="http://sodipodi.sourceforge.net/DTD/sodipodi-0.dtd"
   xmlns="http://www.w3.org/2000/svg"
   xmlns:svg="http://www.w3.org/2000/svg"
   xmlns:rdf="http://www.w3.org/1999/02/22-rdf-syntax-ns#"
   xmlns:cc="http://creativecommons.org/ns#"
   xmlns:dc="http://purl.org/dc/elements/1.1/">
  <metadata
     id="metadata328">
    <rdf:RDF>
      <cc:Work
         rdf:about="">
        <dc:format>image/svg+xml</dc:format>
        <dc:type
           rdf:resource="http://purl.org/dc/dcmitype/StillImage" />
      </cc:Work>
    </rdf:RDF>
  </metadata>
  <sodipodi:namedview
     inkscape:document-rotation="0"
     inkscape:current-layer="layer1"
     inkscape:window-maximized="1"
     inkscape:window-y="-8"
     inkscape:window-x="1912"
     inkscape:window-height="1027"
     inkscape:window-width="1680"
     inkscape:cy="491.16072"
     inkscape:cx="406.99218"
     inkscape:zoom="0.46929649"
     showgrid="false"
     inkscape:document-units="mm"
     inkscape:pagecheckerboard="0"
     inkscape:pageopacity="0.0"
     inkscape:pageshadow="2"
     borderopacity="1.0"
     bordercolor="#666666"
     pagecolor="#ffffff"
     id="namedview6515" />
  <defs
     id="defs6510" />
  <g
     transform="translate(81.113692,82.374461)"
     id="layer1"
     inkscape:groupmode="layer"
     inkscape:label="Ebene 1">
    <rect
       id="rect346"
       style="clip-rule:evenodd;fill:#ff000f;fill-rule:evenodd;stroke:none;stroke-width:0.646419px;stroke-linecap:round;stroke-linejoin:round;stroke-miterlimit:1.5"
       height="79.374954"
       width="79.374992"
       y="-82.374458"
       x="-81.113693" />
    <rect
       id="rect350"
       style="clip-rule:evenodd;fill:#ffffff;fill-rule:evenodd;stroke-width:0.208353;stroke-linecap:round;stroke-linejoin:round;stroke-miterlimit:1.5"
       height="67.603577"
       width="67.48008"
       y="-76.488762"
       x="-75.166122" />
    <path
       id="path356"
       style="clip-rule:evenodd;fill-rule:nonzero;stroke-width:2.69139;stroke-linecap:round;stroke-linejoin:round;stroke-miterlimit:1.5"
       d="m -23.940567,-42.420438 c 0,3.735656 -0.228769,6.94649 -0.683614,9.635193 -0.457537,2.688703 -1.299944,5.124415 -2.529911,7.312519 -1.547552,2.688703 -3.552641,4.761076 -6.012576,6.217121 -2.459934,1.458736 -5.194391,2.188104 -8.200679,2.188104 -3.461133,0 -6.567002,-0.979668 -9.309533,-2.939003 -2.745223,-1.959335 -4.812214,-4.66957 -6.203665,-8.130703 -0.705145,-1.89205 -1.224584,-3.980572 -1.552934,-6.270949 -0.331042,-2.290377 -0.495217,-4.76646 -0.495217,-7.43094 0,-3.439603 0.180324,-6.537398 0.546353,-9.293386 0.363339,-2.755988 0.933914,-5.127106 1.709036,-7.107972 1.343006,-3.28081 3.296958,-5.781116 5.859166,-7.500917 2.562207,-1.719801 5.619631,-2.578356 9.174964,-2.578356 2.344204,0 4.475789,0.382178 6.38937,1.143843 1.91089,0.764356 3.593012,1.878593 5.038291,3.348095 1.44797,1.469501 2.669863,3.286192 3.673753,5.450073 1.730567,3.759879 2.597196,9.078074 2.597196,15.957278 z m -9.363362,-0.683614 c 0,-4.16897 -0.250299,-7.578967 -0.750899,-10.232682 -0.500599,-2.653715 -1.343006,-4.658804 -2.529911,-6.015266 -1.184213,-1.353772 -2.823272,-2.032003 -4.919869,-2.032003 -3.006287,0 -5.09481,1.515255 -6.268258,4.545765 -1.173448,3.027819 -1.760172,7.697388 -1.760172,14.008708 0,4.282009 0.2503,7.788896 0.7509,10.523353 0.500599,2.731765 1.345697,4.798756 2.52991,6.200973 1.184214,1.399525 2.788285,2.101979 4.817597,2.101979 2.093904,0 3.735655,-0.729368 4.919869,-2.188104 1.184213,-1.456044 2.015854,-3.541875 2.494922,-6.252109 0.476377,-2.710234 0.715911,-6.262875 0.715911,-10.660614 z" />
    <rect
       id="rect362"
       style="clip-rule:evenodd;fill:#ff000f;fill-rule:evenodd;stroke:none;stroke-width:0.646419px;stroke-linecap:round;stroke-linejoin:round;stroke-miterlimit:1.5"
       height="79.374954"
       width="79.374992"
       y="-82.374458"
       x="10.820548" />
    <rect
       id="rect366"
       style="clip-rule:evenodd;fill:#ffffff;fill-rule:evenodd;stroke-width:0.208353;stroke-linecap:round;stroke-linejoin:round;stroke-miterlimit:1.5"
       height="67.603577"
       width="67.48008"
       y="-76.488762"
       x="16.76812" />
    <path
       id="path372"
       style="clip-rule:evenodd;fill-rule:nonzero;stroke-width:2.69139;stroke-linecap:round;stroke-linejoin:round;stroke-miterlimit:1.5"
       d="m 49.474647,-21.750624 v -31.09368 c -5.786498,4.440801 -9.680946,6.661201 -11.686035,6.661201 -0.955445,0 -1.805925,-0.379486 -2.546059,-1.143843 -0.740133,-0.761664 -1.108854,-1.644442 -1.108854,-2.648332 0,-1.159991 0.363338,-2.015854 1.092706,-2.562207 0.729368,-0.546353 2.015854,-1.251499 3.859459,-2.118128 2.75868,-1.297252 4.960241,-2.66448 6.612757,-4.098994 1.652516,-1.437204 3.113943,-3.041275 4.389664,-4.817596 1.275721,-1.779011 2.107362,-2.871718 2.494923,-3.28081 0.387561,-0.411783 1.116929,-0.616329 2.188104,-0.616329 1.205744,0 2.174646,0.468303 2.904014,1.402217 0.729368,0.933913 1.092706,2.2204 1.092706,3.859459 v 39.124802 c 0,4.578062 -1.561008,6.865748 -4.680335,6.865748 -1.391451,0 -2.505688,-0.465612 -3.348094,-1.399526 -0.845098,-0.933914 -1.264956,-2.311908 -1.264956,-4.133982 z" />
    <rect
       id="rect378"
       style="clip-rule:evenodd;fill:#ff000f;fill-rule:evenodd;stroke:none;stroke-width:0.646419px;stroke-linecap:round;stroke-linejoin:round;stroke-miterlimit:1.5"
       height="79.374954"
       width="79.374992"
       y="-82.374458"
       x="102.75426" />
    <rect
       id="rect382"
       style="clip-rule:evenodd;fill:#ffffff;fill-rule:evenodd;stroke-width:0.208353;stroke-linecap:round;stroke-linejoin:round;stroke-miterlimit:1.5"
       height="67.603577"
       width="67.48008"
       y="-76.488762"
       x="108.70183" />
    <path
       id="path388"
       style="clip-rule:evenodd;fill-rule:nonzero;stroke-width:2.69139;stroke-linecap:round;stroke-linejoin:round;stroke-miterlimit:1.5"
       d="m 140.38025,-21.819424 v -31.09368 c -5.7865,4.440801 -9.68095,6.661201 -11.68604,6.661201 -0.95544,0 -1.80592,-0.379486 -2.54606,-1.143843 -0.74013,-0.761664 -1.10885,-1.644442 -1.10885,-2.648332 0,-1.159991 0.36334,-2.015854 1.0927,-2.562207 0.72937,-0.546353 2.01586,-1.251499 3.85946,-2.118128 2.75868,-1.297252 4.96024,-2.66448 6.61276,-4.098994 1.65252,-1.437204 3.11394,-3.041275 4.38967,-4.817596 1.27572,-1.779011 2.10736,-2.871718 2.49492,-3.28081 0.38756,-0.411783 1.11693,-0.616329 2.1881,-0.616329 1.20575,0 2.17465,0.468303 2.90402,1.402217 0.72936,0.933913 1.0927,2.2204 1.0927,3.859459 v 39.124802 c 0,4.578062 -1.56101,6.865748 -4.68033,6.865748 -1.39145,0 -2.50569,-0.465612 -3.3481,-1.399526 -0.8451,-0.933914 -1.26495,-2.311908 -1.26495,-4.133982 z" />
    <rect
       id="rect602"
       style="clip-rule:evenodd;fill:#ff000f;fill-rule:evenodd;stroke:none;stroke-width:0.646419px;stroke-linecap:round;stroke-linejoin:round;stroke-miterlimit:1.5"
       height="79.374954"
       width="79.374992"
       y="-82.374458"
       x="194.68825" />
    <rect
       id="rect606"
       style="clip-rule:evenodd;fill:#ffffff;fill-rule:evenodd;stroke-width:0.208353;stroke-linecap:round;stroke-linejoin:round;stroke-miterlimit:1.5"
       height="67.603577"
       width="67.48008"
       y="-76.488762"
       x="200.63582" />
    <path
       id="path612"
       style="clip-rule:evenodd;fill-rule:nonzero;stroke-width:2.69139;stroke-linecap:round;stroke-linejoin:round;stroke-miterlimit:1.5"
       d="m 232.17135,-22.602724 v -31.09368 c -5.7865,4.440801 -9.68095,6.661201 -11.68604,6.661201 -0.95544,0 -1.80592,-0.379486 -2.54606,-1.143843 -0.74013,-0.761664 -1.10885,-1.644442 -1.10885,-2.648332 0,-1.159991 0.36334,-2.015854 1.0927,-2.562207 0.72937,-0.546353 2.01586,-1.251499 3.85946,-2.118128 2.75868,-1.297252 4.96024,-2.66448 6.61276,-4.098994 1.65252,-1.437204 3.11394,-3.041275 4.38967,-4.817596 1.27572,-1.779011 2.10736,-2.871718 2.49492,-3.28081 0.38756,-0.411783 1.11693,-0.616329 2.1881,-0.616329 1.20575,0 2.17465,0.468303 2.90402,1.402217 0.72936,0.933913 1.0927,2.2204 1.0927,3.859459 v 39.124802 c 0,4.578062 -1.56101,6.865748 -4.68033,6.865748 -1.39145,0 -2.50569,-0.465612 -3.3481,-1.399526 -0.8451,-0.933914 -1.26495,-2.311908 -1.26495,-4.133982 z" />
    <rect
       id="rect744"
       style="clip-rule:evenodd;fill:#ff000f;fill-rule:evenodd;stroke:none;stroke-width:0.646419px;stroke-linecap:round;stroke-linejoin:round;stroke-miterlimit:1.5"
       height="79.374954"
       width="79.374992"
       y="8.5395527"
       x="-81.113693" />
    <rect
       id="rect748"
       style="clip-rule:evenodd;fill:#ffffff;fill-rule:evenodd;stroke-width:0.208353;stroke-linecap:round;stroke-linejoin:round;stroke-miterlimit:1.5"
       height="67.603577"
       width="67.48008"
       y="14.42525"
       x="-75.166122" />
    <path
       id="path754"
       style="clip-rule:evenodd;fill-rule:nonzero;stroke-width:2.69139;stroke-linecap:round;stroke-linejoin:round;stroke-miterlimit:1.5"
       d="m -41.639853,69.162876 v -31.09368 c -5.786498,4.440801 -9.680946,6.661201 -11.686035,6.661201 -0.955445,0 -1.805925,-0.379486 -2.546059,-1.143843 -0.740133,-0.761664 -1.108854,-1.644442 -1.108854,-2.648332 0,-1.159991 0.363338,-2.015854 1.092706,-2.562207 0.729368,-0.546353 2.015854,-1.251499 3.859459,-2.118128 2.75868,-1.297252 4.960241,-2.66448 6.612757,-4.098994 1.652516,-1.437204 3.113943,-3.041275 4.389664,-4.817596 1.275721,-1.779011 2.107362,-2.871718 2.494923,-3.28081 0.387561,-0.411783 1.116929,-0.616329 2.188104,-0.616329 1.205744,0 2.174646,0.468303 2.904014,1.402217 0.729368,0.933913 1.092706,2.2204 1.092706,3.859459 v 39.124802 c 0,4.578062 -1.561008,6.865748 -4.680335,6.865748 -1.391451,0 -2.505688,-0.465612 -3.348094,-1.399526 -0.845098,-0.933914 -1.264956,-2.311908 -1.264956,-4.133982 z" />
    <rect
       id="rect872"
       style="clip-rule:evenodd;fill:#ff000f;fill-rule:evenodd;stroke:none;stroke-width:0.646419px;stroke-linecap:round;stroke-linejoin:round;stroke-miterlimit:1.5"
       height="79.374954"
       width="79.374992"
       y="8.5395527"
       x="10.820548" />
    <rect
       id="rect876"
       style="clip-rule:evenodd;fill:#ffffff;fill-rule:evenodd;stroke-width:0.208353;stroke-linecap:round;stroke-linejoin:round;stroke-miterlimit:1.5"
       height="67.603577"
       width="67.48008"
       y="14.42525"
       x="16.76812" />
    <path
       id="path882"
       style="clip-rule:evenodd;fill-rule:nonzero;stroke-width:2.69139;stroke-linecap:round;stroke-linejoin:round;stroke-miterlimit:1.5"
       d="m 47.633906,43.605394 c 2.096596,0 3.899831,-0.616329 5.415086,-1.846296 1.515255,-1.229968 2.271537,-2.995522 2.271537,-5.296665 0,-1.752098 -0.602873,-3.26197 -1.808617,-4.526925 -1.208437,-1.264956 -2.83673,-1.894742 -4.887573,-1.894742 -1.388759,0 -2.532602,0.191089 -3.434219,0.57865 -0.898926,0.387561 -1.612146,0.901617 -2.134276,1.539477 -0.524822,0.637861 -1.020039,1.456045 -1.48565,2.459935 -0.468302,1.001199 -0.896234,1.945878 -1.281104,2.834038 -0.228768,0.479069 -0.63786,0.855864 -1.232658,1.127695 -0.592107,0.274522 -1.27303,0.411783 -2.048151,0.411783 -0.912383,0 -1.749407,-0.371412 -2.511072,-1.111546 -0.764356,-0.740133 -1.146534,-1.725184 -1.146534,-2.955151 0,-1.184214 0.360647,-2.433021 1.076558,-3.741038 0.718603,-1.310709 1.765555,-2.556825 3.143549,-3.741039 1.377994,-1.184213 3.092412,-2.136967 5.143255,-2.852878 2.050842,-0.718602 4.338528,-1.076558 6.868439,-1.076558 2.209635,0 4.225489,0.301436 6.047563,0.904309 1.822074,0.602872 3.404614,1.474884 4.74762,2.613344 1.345697,1.141151 2.357662,2.459934 3.041276,3.964424 0.683614,1.50449 1.025421,3.119326 1.025421,4.852584 0,2.27692 -0.495217,4.230872 -1.48565,5.859166 -0.990433,1.628294 -2.408798,3.216217 -4.255094,4.76646 1.77632,0.955445 3.275427,2.050842 4.494628,3.28081 1.219202,1.229967 2.134276,2.589121 2.750606,4.082845 0.613638,1.491033 0.920456,3.103178 0.920456,4.833745 0,2.072373 -0.414474,4.077462 -1.246115,6.015266 -0.831641,1.935113 -2.056226,3.660297 -3.673754,5.175552 -1.617528,1.515255 -3.536492,2.699469 -5.756892,3.552641 -2.220401,0.855863 -4.674953,1.281104 -7.363656,1.281104 -2.731765,0 -5.180934,-0.489834 -7.344815,-1.469502 -2.163882,-0.979667 -3.945585,-2.201561 -5.347801,-3.671062 -1.399525,-1.469501 -2.459935,-2.990139 -3.178537,-4.561914 -0.715911,-1.571774 -1.076558,-2.871718 -1.076558,-3.894448 0,-1.321474 0.427932,-2.387266 1.283795,-3.194685 0.853172,-0.81011 1.918964,-1.213819 3.194685,-1.213819 0.637861,0 1.251499,0.188398 1.843606,0.562502 0.592106,0.376795 0.979667,0.826258 1.162682,1.35108 1.184214,3.16508 2.454552,5.517359 3.808323,7.054145 1.356463,1.539477 3.264662,2.306525 5.724596,2.306525 1.410291,0 2.772137,-0.34719 4.082846,-1.04157 1.308018,-0.69438 2.389958,-1.725184 3.245822,-3.092412 0.853172,-1.367228 1.281103,-2.949768 1.281103,-4.74762 0,-2.667172 -0.729367,-4.755694 -2.188103,-6.270949 -1.456045,-1.515255 -3.482665,-2.271537 -6.07986,-2.271537 -0.457538,0 -1.162683,0.04575 -2.118128,0.13457 -0.958136,0.09151 -1.571774,0.137261 -1.846297,0.137261 -1.251498,0 -2.2204,-0.312202 -2.904014,-0.939297 -0.683614,-0.627095 -1.025422,-1.496415 -1.025422,-2.613344 0,-1.092706 0.409092,-1.975484 1.229968,-2.648332 0.820875,-0.672849 2.040077,-1.006582 3.654913,-1.006582 z" />
    <rect
       id="rect888"
       style="clip-rule:evenodd;fill:#6cbd2e;fill-rule:evenodd;stroke:none;stroke-width:0.646419px;stroke-linecap:round;stroke-linejoin:round;stroke-miterlimit:1.5"
       height="79.374954"
       width="79.374992"
       y="8.5395498"
       x="102.7555" />
    <path
       id="path892"
       style="clip-rule:evenodd;fill:#0b970f;fill-rule:evenodd;stroke-width:0.264583;stroke-linecap:round;stroke-linejoin:round;stroke-miterlimit:1.5"
       d="m 149.02886,71.792217 c 0.89667,-0.822854 1.45785,-0.0926 2.49475,0.129646 2.16377,0.465667 6.59765,1.997604 6.98104,4.680479 0.22357,1.563688 -1.15174,2.455334 -2.07116,3.376084 -0.95859,0.957791 -1.67243,1.994958 -2.91518,2.682875 -3.62982,2.01877 -8.61536,1.55575 -12.58094,1.994958 -1.08876,0.121708 -2.24023,-0.4445 -3.29882,-0.613833 -4.36616,-0.687917 -6.77836,-1.023938 -9.97268,-4.217459 -0.62151,-0.621771 -1.5539,-1.211791 -1.84123,-2.071687 -0.76333,-2.291292 -0.89535,-3.254375 0.61383,-5.140854 0.55589,-0.693209 1.50151,-0.597959 2.14789,-0.92075 0.17065,-0.08467 0.48683,-0.07144 0.69029,-0.153459 0.12806,-0.05027 0.5215,-0.153458 0.38365,-0.153458 -0.11113,0 -0.30745,0.153458 -0.38365,0.230188 z" />
    <path
       id="path896"
       style="clip-rule:evenodd;fill:#ffffff;fill-rule:evenodd;stroke-width:0.264583;stroke-linecap:round;stroke-linejoin:round;stroke-miterlimit:1.5"
       d="m 142.21213,30.99876 c -2.42914,3.487208 5.55996,36.620978 7.10089,40.862249 1.52347,4.193646 0.94906,6.506104 -3.1459,7.707312 -6.21321,1.820334 -15.75382,0.243417 -16.61345,-4.36827 -0.42439,-2.275417 -0.68924,-13.9065 -1.15252,-16.848667 -0.11298,-0.717021 0.9054,1.49225 1.31312,1.524 2.36512,0.185209 0.13283,-4.826 0.1278,-7.236354 -0.001,-0.645583 -0.42968,-0.391583 -0.80804,-0.915458 -0.4572,-0.635 -0.17092,-1.240896 -0.0127,-2.129896 1.31868,-7.403042 -0.49662,-15.867062 -1.25783,-19.732625" />
    <path
       id="path900"
       style="clip-rule:evenodd;fill:#fdf5d6;fill-rule:evenodd;stroke-width:0.264583;stroke-linecap:round;stroke-linejoin:round;stroke-miterlimit:1.5"
       d="m 138.23095,30.686551 3.98118,0.312209 c -2.42914,3.487208 5.55996,36.620978 7.10089,40.862249 1.52347,4.193646 0.94906,6.506104 -3.1459,7.707312 -4.45796,1.304396 -10.62884,0.862542 -14.07742,-1.19327 3.29592,0.775229 7.29959,0.724958 10.4484,-0.198438 4.09496,-1.198562 4.66937,-3.513666 3.1459,-7.707312 -1.43802,-3.958167 -8.49128,-33.075562 -7.45305,-39.78275 z" />
    <path
       id="path904"
       style="clip-rule:evenodd;fill:#d02b2b;fill-rule:evenodd;stroke-width:0.244457;stroke-linecap:round;stroke-linejoin:round;stroke-miterlimit:1.5"
       d="m 160.5777,31.293334 c 0.14079,-0.724389 -3.5679,-8.781228 -4.80806,-9.997203 -5.06583,-4.962115 -8.92766,-6.057185 -16.05672,-7.419012 -11.63579,-2.223045 -26.76702,3.050896 -29.0849,13.115071 -0.37385,1.622677 -2.14806,3.962895 -1.81922,5.763609 0.95125,5.214394 50.54621,4.823452 51.7689,-1.462465 z" />
    <path
       id="path908"
       style="clip-rule:evenodd;fill:#b93737;fill-rule:evenodd;stroke-width:0.264583;stroke-linecap:round;stroke-linejoin:round;stroke-miterlimit:1.5"
       d="m 160.02097,29.498572 c -4.29419,5.36575 -45.3054,3.540125 -50.04646,-0.775229 -0.35455,0.280458 -1.50495,2.947458 -1.16576,4.034896 1.58036,5.056187 50.54653,4.820708 51.76891,-1.463146 0.0365,-0.1905 -0.18548,-0.870479 -0.55669,-1.796521 z" />
    <path
       id="path912"
       style="clip-rule:evenodd;fill:#ffe9e9;fill-rule:evenodd;stroke-width:0.264583;stroke-linecap:round;stroke-linejoin:round;stroke-miterlimit:1.5"
       d="m 136.64097,14.817537 c -1.40165,0.189246 -0.56698,2.632379 0.41014,1.101577 0.42534,-0.349359 0.10766,-1.091552 -0.41014,-1.101577 z m 7.18768,0.801502 c -2.07685,0.141272 0.0649,3.020666 1.03145,1.648056 0.15331,-0.634942 -0.3618,-1.573898 -1.03145,-1.648056 z m -12.35067,0.03462 c -1.40957,-0.225081 -2.9558,2.339848 -0.80147,2.304063 1.54967,0.39148 2.70586,-2.066711 0.80147,-2.304063 z m -6.91844,0.119888 c -1.22825,0.982048 2.03294,0.869836 0,0 z m 23.30039,1.107427 c -1.61465,0.616725 0.0341,3.152174 1.30626,1.898901 0.71041,-0.866421 -0.50471,-1.794362 -1.30626,-1.898901 z m -27.157,0.575159 c -1.79583,0.01291 -1.82534,4.048519 0.17936,2.542683 1.03252,-0.634866 1.30304,-2.31185 -0.17936,-2.542683 z m 4.4049,1.643827 c -1.55546,0.05442 -0.74079,2.491089 0.52902,1.384776 1.00778,-0.42454 0.23373,-1.410719 -0.52902,-1.384776 z m 16.57469,1.57303 c -1.9108,-0.197059 -1.27603,2.061133 0.16686,2.177544 1.75717,0.64306 2.0832,-2.372402 0.14556,-2.160031 z m -13.03434,0.835091 c -1.59703,0.433898 0.28487,2.815749 0.8821,1.156001 -0.0745,-0.480139 -0.31186,-1.119653 -0.8821,-1.156001 z m 7.40006,0.305408 c -1.74482,-0.01498 -2.02274,3.88614 0.0548,2.551126 1.1108,-0.55313 1.46295,-2.301676 -0.0548,-2.551126 z m -22.30148,8.174178 c -1.55545,0.05442 -0.74079,2.491089 0.52902,1.384776 1.00779,-0.42454 0.23374,-1.410718 -0.52902,-1.384776 z m 6.03426,0.998905 c -1.78439,0.270037 -0.44701,2.890139 1.01542,2.178053 1.53525,-0.324549 -0.0919,-2.263053 -1.01542,-2.178053 z" />
    <path
       id="path960"
       style="clip-rule:evenodd;fill:#d4c484;fill-rule:evenodd;stroke-width:0.231466;stroke-linecap:round;stroke-linejoin:round;stroke-miterlimit:1.5"
       d="m 128.84406,51.770461 -0.005,-0.901095 c 0.17992,1.048915 1.07421,1.972285 2.05846,1.630071 0.56621,-0.198443 4.25185,-3.270267 4.67783,-4.110614 0.0661,-0.127571 0.3519,-0.745175 0.37836,-0.7391 0.26987,0.07897 -1.7489,6.014051 -1.57692,8.804408 0.0794,1.306082 -2.01348,4.013418 -3.37344,3.79675 -0.82814,-0.133646 -1.62718,-0.366513 -2.1246,-0.783649 l -0.005,-0.234893 c 0.10054,0.07492 0.16404,0.123521 0.18256,0.137696 -0.0185,0.01012 -0.0397,0.01822 -0.0609,0.02025 -0.0847,0.0891 0.0661,-0.0162 0.0661,-0.0162 l -0.005,-0.004 0.0635,-0.06682 c 0.74083,-0.242992 0.75935,-6.388664 0.6985,-6.072774" />
    <path
       id="path964"
       style="clip-rule:evenodd;fill:#aa3f3f;fill-rule:evenodd;stroke-width:0.441288;stroke-linecap:round;stroke-linejoin:round;stroke-miterlimit:1.5"
       d="m 134.01413,56.349726 c 0.0635,-1.368413 -1.91107,-0.838705 -2.46693,1.118272 -0.005,0.0037 -0.53467,-0.768812 -0.81525,-0.835026 -1.15405,-0.264854 -1.46109,2.354259 -1.46109,2.895002 0.4288,0.353139 1.13817,0.544423 1.99048,0.654778 1.25993,0.121392 2.69456,-2.689004 2.75279,-3.833026 z" />
    <path
       id="path968"
       style="clip-rule:evenodd;fill:#fff7d5;fill-rule:evenodd;stroke-width:0.328911;stroke-linecap:round;stroke-linejoin:round;stroke-miterlimit:1.5"
       d="m 132.42163,43.005655 c 0.15415,0.299252 -0.0188,1.608479 -0.87977,1.346634 -0.46996,-0.143872 -0.6993,-0.607137 -1.06775,-0.843085 -0.81586,-0.517936 -1.83098,-1.225783 -2.85738,-1.225783 -0.91736,-1.654518 3.67699,-1.453098 4.8049,0.722234 z" />
    <path
       id="path972"
       style="clip-rule:evenodd;fill:#ffd500;fill-rule:evenodd;stroke-width:0.328911;stroke-linecap:round;stroke-linejoin:round;stroke-miterlimit:1.5"
       d="m 129.85,43.232971 c -0.0978,-0.376942 -0.88729,0.123729 -1.10536,0.374065 -0.65418,0.751007 -0.65418,2.779591 0.72187,2.955114 1.27454,0.161135 1.63171,-1.502015 1.50764,-2.163823 -0.0489,-0.270477 -0.13159,-0.83733 -0.5414,-0.900633 z" />
    <path
       id="path976"
       d="m 132.28628,43.005655 c 0.34214,1.303472 -2.48516,0.250335 -3.19574,-0.753885 -0.22559,-0.319394 -1.0452,-0.06906 -1.47381,-0.06906 -0.0752,0 -0.13535,0.04604 -0.13535,0.100709 0,0.05755 0.0602,0.10071 0.13535,0.10071 0.38725,0 0.7745,0.109342 1.14671,0.270478 0.58652,0.250336 1.14295,0.624401 1.62419,0.932285 0.17671,0.115097 0.31958,0.281988 0.47749,0.440246 0.1767,0.175523 0.36845,0.339536 0.62787,0.417226 0.17294,0.05467 0.31957,0.05467 0.44364,0.02014 0.18047,-0.04892 0.31582,-0.172645 0.40605,-0.339536 0.19926,-0.3568 0.21054,-0.917898 0.21054,-1.119317 0,-0.05755 -0.0602,-0.10071 -0.13159,-0.10071 -0.0752,0 -0.13535,0.04316 -0.13535,0.10071 z"
       style="clip-rule:evenodd;fill-rule:evenodd;stroke-width:0.328911;stroke-linecap:round;stroke-linejoin:round;stroke-miterlimit:1.5" />
    <path
       id="path980"
       style="clip-rule:evenodd;fill:#ffd500;fill-rule:evenodd;stroke-width:0.398056;stroke-linecap:round;stroke-linejoin:round;stroke-miterlimit:1.5"
       d="m 136.81912,41.028869 c 0.47169,0.02116 1.41507,0.790072 1.6307,1.082822 0.6424,0.885304 0.96585,1.767081 0.48517,2.768779 -0.20664,0.437361 -0.17969,0.881777 -0.86252,1.061659 -0.92991,0.243371 -1.90025,-0.02469 -2.40339,-0.677204 -0.30098,-0.395036 -0.26953,-0.941738 -0.44923,-1.357937 -0.0988,-0.236316 0.0809,-1.354409 0.33693,-1.354409 z" />
    <path
       id="path984"
       d="m 137.32792,44.614648 c 1.27132,-0.119922 0.85354,-2.948662 -0.71428,-2.236186 -0.26953,0.119921 -0.22012,0.285695 -0.29649,0.469105 -0.33243,0.779491 -0.38634,0.973482 0.13477,1.449641 0.1168,0.105813 0.69631,0.335075 0.876,0.31744 z"
       style="clip-rule:evenodd;fill-rule:evenodd;stroke-width:0.398056;stroke-linecap:round;stroke-linejoin:round;stroke-miterlimit:1.5" />
    <path
       id="path988"
       d="m 130.68268,44.518153 c 0.0752,-0.489162 -0.59027,-0.756762 -1.23318,-0.615768 -0.2519,0.05467 -0.28198,0.281987 -0.3459,0.431613 -0.27821,0.635911 0.62412,0.966814 0.76322,1.009976 0.62411,0.192787 0.81586,-0.825821 0.81586,-0.825821 z"
       style="clip-rule:evenodd;fill-rule:evenodd;stroke-width:0.328911;stroke-linecap:round;stroke-linejoin:round;stroke-miterlimit:1.5" />
    <path
       id="path992"
       style="clip-rule:evenodd;fill:#ffd500;fill-rule:evenodd;stroke-width:1.66786;stroke-linecap:round;stroke-linejoin:round;stroke-miterlimit:1.5"
       d="m 815.66992,498.49805 c -0.003,6.3e-4 -0.006,0.002 -0.008,0.004 l -4.20117,5.02539 c -5.38518,5.32708 -14.86095,11.86035 -18.37695,0.55665 0.40565,0.69586 -1.148,6.12544 -0.6914,7.39454 0.15987,0.4727 0.13957,1.47403 0.25976,1.39062 1.06043,-0.75077 1.48159,-1.97315 2.58204,-2.76562 0.15247,-0.11443 0.36245,-0.31298 0.56445,-0.52344 0.1719,1.73272 0.35765,4.60462 1.04297,4.79687 0.50298,0.14015 1.5153,-2.01671 2.14648,-2.74609 0.17847,-0.21538 0.44601,-0.70554 0.52734,-0.96094 1.4426,0.52051 1.49059,4.56666 2.48243,5.25586 0.0861,0.0498 2.00284,-3.92384 2.80078,-6.22851 0.86934,0.72754 2.44606,1.87605 2.76172,2.20507 0.56024,0.63955 1.18164,2.09961 1.18164,2.09961 0,0 2.35046,-6.08573 3.32422,-9.36718 0.93048,0.68129 2.27007,1.59485 2.38086,1.85742 0.23939,0.53897 1.78959,-6.17338 1.92187,-7.44727 0.009,-0.0897 -0.60028,-0.5664 -0.69922,-0.54687 z"
       transform="matrix(0.26458333,0,0,0.26458333,-81.113692,-82.374461)"
       sodipodi:nodetypes="cccccccccccccccccccc" />
    <path
       id="path1012"
       style="clip-rule:evenodd;fill:#fdf5d6;fill-rule:evenodd;stroke-width:0.231466;stroke-linecap:round;stroke-linejoin:round;stroke-miterlimit:1.5"
       d="m 133.12238,42.619789 c 0.0503,-0.0243 -0.0212,-0.200468 -0.0212,-0.236917 0,-0.220718 0.0265,-0.439411 0.0847,-0.656078 0.16139,-0.605455 4.61433,-2.193003 4.97152,-1.848764 0.19314,0.186294 0.69056,-0.04455 0.98954,0.02632 0.0847,0.02025 0.17991,0.04657 0.25135,0.08707 0.27781,0.166045 0.13229,0.508258 0.0926,0.724926 -0.0238,0.133646 -0.0529,0.338164 -0.20373,0.429286 -0.0714,0.04455 -0.21961,0.01822 -0.29369,0 -0.65881,-0.153895 -1.92352,0.224767 -2.78871,0.771499 -0.51064,0.31994 -1.43404,1.901412 -1.53723,2.045183 -0.127,0.174144 -0.14552,0.311839 -0.43391,0.348288 -0.21961,0.02835 -0.31486,-0.09517 -0.43657,-0.198443 -0.037,-0.03037 -0.09,-0.04455 -0.127,-0.07492 -0.18521,-0.153895 -0.54768,-1.417453 -0.54768,-1.417453 z" />
    <path
       id="path1016"
       d="m 137.47494,41.099714 c -0.1767,0.0086 -0.85721,0.146748 -1.0264,0.37982 -0.39476,0.54671 -2.87241,3.176675 -3.04911,1.792634 -0.0301,-0.233071 -0.10152,-0.446 -0.12407,-0.679072 -0.008,-0.05467 -0.0714,-0.09783 -0.14287,-0.09208 -0.0714,0.0029 -0.12783,0.05179 -0.12407,0.109342 0.0263,0.238826 0.0789,0.45751 0.13159,0.696336 0.0451,0.207175 0.16918,0.598504 0.41732,0.840208 0.19175,0.184155 0.45117,0.287742 0.78954,0.198542 0.0451,-0.01151 0.14287,-0.06043 0.25942,-0.149626 0.2331,-0.172645 1.23694,-1.689047 1.70315,-2.097641 0.30829,-0.267601 0.60531,-0.483407 0.78201,-0.543833 0.71435,-0.241704 1.22191,-0.328027 1.81218,-0.287743 0.11279,0.0058 0.21054,0.01727 0.27822,0.03165 0.015,0.0058 0.0338,0.01151 0.0451,0.01439 0.0226,0.03453 0.0677,0.05755 0.12407,0.05755 0.0714,-0.0029 0.12783,-0.04892 0.12408,-0.106465 0,-0.03453 -0.0188,-0.06906 -0.0639,-0.09783 -0.0414,-0.02877 -0.12407,-0.05755 -0.24438,-0.07769 -0.41357,-0.0633 -0.99632,-0.02014 -1.69187,0.01151 z"
       style="clip-rule:evenodd;fill-rule:evenodd;stroke-width:0.328911;stroke-linecap:round;stroke-linejoin:round;stroke-miterlimit:1.5" />
    <path
       id="path1020"
       d="m 135.95342,47.649723 c -0.0265,-0.0061 -0.31221,0.611529 -0.37836,0.7391 -0.42598,0.840347 -4.11162,3.912171 -4.67783,4.110614 -1.44198,0.502184 -2.69346,-1.719168 -1.83885,-3.051574 0.15345,-0.240967 -0.42069,-0.204518 -0.46832,0.06075 -0.0767,0.445485 -0.12435,1.225085 -0.0688,1.415428 0.14552,0.504209 0.17463,0.844397 0.47625,1.188636 0.20108,0.230842 0.52388,0.46371 1.09008,0.745175 0.25665,0.125546 0.61119,0.0972 1.02394,-0.07087 0.55034,-0.224768 1.21973,-0.692527 1.88648,-1.259509 0.96308,-0.818073 1.92088,-1.842689 2.5109,-2.620263 -0.55298,1.694869 -1.70127,4.859839 -1.50284,7.206737 0.25665,3.027274 -4.46881,5.331648 -5.40014,2.286149 -0.0185,-0.05467 -0.0609,-0.101247 -0.13229,-0.101247 -0.0741,0 -0.1323,0.04657 -0.1323,0.101247 0,1.135987 1.28853,1.630071 2.66171,1.850789 1.35996,0.216668 3.45282,-2.490668 3.37344,-3.79675 -0.17198,-2.790357 1.84679,-8.725436 1.57692,-8.804408 z"
       style="clip-rule:evenodd;fill-rule:evenodd;stroke-width:0.231466;stroke-linecap:round;stroke-linejoin:round;stroke-miterlimit:1.5" />
    <path
       id="path1024"
       d="m 128.82819,49.312193 0.003,0.674302 c 0.045,-0.188318 0.11907,-0.370562 0.22755,-0.538632 0.0899,-0.14377 -0.0767,-0.188319 -0.23019,-0.13567 z"
       style="clip-rule:evenodd;fill-rule:evenodd;stroke-width:0.231466;stroke-linecap:round;stroke-linejoin:round;stroke-miterlimit:1.5" />
    <rect
       id="rect1032"
       style="clip-rule:evenodd;fill:#ff000f;fill-rule:evenodd;stroke:none;stroke-width:0.646419px;stroke-linecap:round;stroke-linejoin:round;stroke-miterlimit:1.5"
       height="79.374954"
       width="79.374992"
       y="8.5395527"
       x="194.68903" />
    <rect
       id="rect1036"
       style="clip-rule:evenodd;fill:#ffffff;fill-rule:evenodd;stroke-width:0.208353;stroke-linecap:round;stroke-linejoin:round;stroke-miterlimit:1.5"
       height="67.603577"
       width="67.48008"
       y="14.42525"
       x="200.6366" />
    <path
       id="path1042"
       style="clip-rule:evenodd;fill-rule:nonzero;stroke-width:2.69139;stroke-linecap:round;stroke-linejoin:round;stroke-miterlimit:1.5"
       d="m 228.19687,65.700394 h 17.83587 c 1.77632,0 3.13009,0.363338 4.064,1.092706 0.93392,0.729368 1.40222,1.719801 1.40222,2.973991 0,1.114237 -0.37141,2.061608 -1.11155,2.834038 -0.74013,0.775122 -1.86244,1.162682 -3.36424,1.162682 h -25.14839 c -1.70904,0 -3.04128,-0.473685 -3.99672,-1.418364 -0.95814,-0.94468 -1.43721,-2.056226 -1.43721,-3.331947 0,-0.818184 0.30951,-1.908199 0.92315,-3.26197 0.61633,-1.356463 1.28649,-2.419564 2.01586,-3.194685 3.03051,-3.143549 5.76496,-5.837635 8.20068,-8.082258 2.4384,-2.241932 4.17973,-3.716816 5.22938,-4.424652 1.86782,-1.321475 3.42076,-2.648333 4.66149,-3.980573 1.24342,-1.33224 2.1881,-2.699469 2.83673,-4.098994 0.64863,-1.402216 0.97429,-2.774828 0.97429,-4.117833 0,-1.458736 -0.34719,-2.761371 -1.04157,-3.910597 -0.69438,-1.151916 -1.64175,-2.045459 -2.83673,-2.68332 -1.19498,-0.63786 -2.50031,-0.958136 -3.91329,-0.958136 -2.98207,0 -5.32896,1.310709 -7.038,3.929436 -0.22608,0.341807 -0.60825,1.275721 -1.14384,2.801741 -0.53559,1.526021 -1.13846,2.699469 -1.81131,3.520344 -0.67285,0.820876 -1.6579,1.229968 -2.95515,1.229968 -1.13846,0 -2.08314,-0.376796 -2.83673,-1.127695 -0.7509,-0.750899 -1.12769,-1.77632 -1.12769,-3.073572 0,-1.571775 0.35257,-3.213525 1.0604,-4.922561 0.70515,-1.706344 1.76018,-3.256587 3.1597,-4.645347 1.40222,-1.388759 3.17854,-2.511071 5.33165,-3.366934 2.15043,-0.853172 4.67496,-1.281104 7.56821,-1.281104 3.48535,0 6.45665,0.546353 8.91659,1.641751 1.59599,0.729368 2.99552,1.730566 4.20395,3.006287 1.20575,1.275721 2.14505,2.750606 2.81789,4.424653 0.67285,1.674047 1.00928,3.409997 1.00928,5.21054 0,2.823272 -0.70246,5.393554 -2.10198,7.705462 -1.40222,2.311908 -2.83135,4.123216 -4.29009,5.431234 -1.45604,1.310709 -3.89983,3.366935 -7.32866,6.168676 -3.42615,2.801742 -5.77843,4.976389 -7.05415,6.526632 -0.54635,0.613638 -1.10616,1.353772 -1.67404,2.220401 z" />
    <rect
       id="rect1220"
       style="clip-rule:evenodd;fill:#6cbd2e;fill-rule:evenodd;stroke:none;stroke-width:0.646419px;stroke-linecap:round;stroke-linejoin:round;stroke-miterlimit:1.5"
       height="79.374954"
       width="79.374992"
       y="99.45356"
       x="10.820468" />
    <path
       id="path1224"
       style="clip-rule:evenodd;fill:#0b970f;fill-rule:evenodd;stroke-width:0.210449;stroke-linecap:round;stroke-linejoin:round;stroke-miterlimit:1.5"
       d="m 52.472711,165.53964 c 0.770166,-0.60609 1.252173,-0.0682 2.142783,0.0955 1.858488,0.343 5.66682,1.47139 5.996112,3.44753 0.19203,1.15178 -0.989239,1.80854 -1.778949,2.48675 -0.823343,0.70548 -1.436476,1.46944 -2.503891,1.97614 -3.117705,1.48698 -7.399863,1.14593 -10.805954,1.46944 -0.935153,0.0896 -1.924164,-0.32741 -2.83341,-0.45214 -3.750155,-0.5067 -5.822035,-0.7542 -8.565679,-3.10648 -0.533821,-0.45798 -1.334666,-0.89257 -1.581464,-1.52595 -0.65563,-1.68771 -0.76903,-2.3971 0.52723,-3.78663 0.477462,-0.5106 1.28967,-0.44045 1.844853,-0.67821 0.146579,-0.0624 0.418148,-0.0526 0.592907,-0.11303 0.109991,-0.037 0.447919,-0.11303 0.329519,-0.11303 -0.09545,0 -0.26407,0.11303 -0.329519,0.16955 z" />
    <path
       id="path1228"
       style="clip-rule:evenodd;fill:#ffffff;fill-rule:evenodd;stroke-width:0.260038;stroke-linecap:round;stroke-linejoin:round;stroke-miterlimit:1.5"
       d="m 43.851967,121.83436 c 2.971025,1.1583 1.437121,32.36134 -1.017809,39.41483 -1.584348,4.55322 -0.818766,7.28752 2.714005,8.63245 5.360444,2.03518 11.641458,1.23237 11.862641,-4.01109 0.337368,-7.9985 -4.460417,-36.57981 -1.295372,-45.27448" />
    <path
       id="path1232"
       style="clip-rule:evenodd;fill:#ffffff;fill-rule:evenodd;stroke-width:0.260038;stroke-linecap:round;stroke-linejoin:round;stroke-miterlimit:1.5"
       d="m 56.936253,157.03665 c 0.337596,3.76522 0.55604,6.89944 0.474551,8.8339 -0.221183,5.24346 -6.502197,6.04627 -11.862641,4.01109 -3.532771,-1.34493 -4.298353,-4.07923 -2.714005,-8.63245 2.45493,-7.05349 3.988834,-38.25653 1.017809,-39.41483 l 12.263465,-1.23829 c -1.743902,4.79318 -1.070308,15.62078 -0.160466,25.7137 -0.353118,0.13331 -0.82881,0.13627 -1.39535,-0.003 -0.772202,-0.19256 -5.780213,-3.11942 -6.454035,-4.18885 -0.103858,-0.16589 -0.562888,-0.95685 -0.594387,-0.94204 -0.343303,0.13923 2.808047,8.08441 2.963492,11.85555 0.02808,0.68136 0.555126,1.56712 1.292404,2.36697 1.171884,1.27383 2.874699,2.3403 3.950942,2.04998 0.42228,-0.11553 0.836115,-0.24884 1.218221,-0.41177 z" />
    <path
       id="path1236"
       style="clip-rule:evenodd;fill:#ffffff;fill-rule:evenodd;stroke-width:0.296241;stroke-linecap:round;stroke-linejoin:round;stroke-miterlimit:1.5"
       d="m 53.287551,120.83306 c -2.503234,9.72855 1.937415,36.53241 1.614512,44.23763 -0.189594,4.48212 -4.807987,5.72041 -9.494515,4.71319 0.04147,0.0148 0.08295,0.0326 0.127384,0.0474 5.358994,2.03813 11.639298,1.23236 11.861478,-4.0111 0.136271,-3.23495 -0.568782,-9.84112 -1.244211,-17.13457 -0.06221,-0.67839 -0.731714,-1.62636 -0.189594,-2.05294 1.362708,-1.06943 1.13164,-1.99963 -0.242917,-2.82614 -0.228106,-0.13627 -0.04444,-0.52731 -0.06517,-0.79393 -0.740602,-9.08866 -1.110903,-18.18621 0.447323,-22.46393 z" />
    <path
       id="path1240"
       style="clip-rule:evenodd;fill:#d4c484;fill-rule:evenodd;stroke-width:0.260038;stroke-linecap:round;stroke-linejoin:round;stroke-miterlimit:1.5"
       d="m 56.909318,156.69005 c -2.188779,0.69616 -5.636866,-1.42196 -5.691876,-4.40214 -0.05866,-3.17867 -1.996357,-7.2816 -2.953221,-9.48267 0.879027,0.96575 2.276888,2.21588 3.650325,3.18755 0.950929,0.67247 1.892042,1.21163 2.643016,1.43973 0.564485,0.17182 1.035384,0.16293 1.352437,-0.0415 l 0.133075,-0.0978 c 0.297422,3.3179 0.613561,6.53211 0.866244,9.39676 z" />
    <path
       id="path1244"
       style="clip-rule:evenodd;fill:#d02b2b;fill-rule:evenodd;stroke-width:0.273707;stroke-linecap:round;stroke-linejoin:round;stroke-miterlimit:1.5"
       d="m 77.768448,117.69081 c 0.336486,-1.08634 -1.128003,-4.11927 -3.177151,-6.81297 -2.114347,-2.77951 -10.524696,-3.11439 -12.792713,-3.84843 -9.284701,-3.00306 -21.203414,-1.01476 -29.47759,0.90758 -6.42135,1.49276 -12.825878,9.41994 -11.666034,12.07156 2.087274,4.77837 40.856469,4.89746 53.407189,0.39343 2.157781,-0.77405 3.393823,-1.70189 3.706299,-2.71117 z" />
    <path
       id="path1248"
       style="clip-rule:evenodd;fill:#b93737;fill-rule:evenodd;stroke-width:0.296241;stroke-linecap:round;stroke-linejoin:round;stroke-miterlimit:1.5"
       d="m 22.915817,114.3922 c -1.802032,2.22773 -2.775183,4.44065 -2.260909,5.61673 2.087312,4.77836 40.856929,4.89686 53.408648,0.394 2.156633,-0.77615 3.391957,-1.70339 3.705972,-2.71357 0.130346,-0.42362 -0.01481,-1.14941 -0.361414,-2.03517 -0.30809,0.13923 -0.63988,0.27254 -0.998331,0.39992 -12.55172,4.50582 -51.320448,4.38437 -53.40776,-0.394 -0.150194,-0.34364 -0.173597,-0.77319 -0.08621,-1.26791 z" />
    <path
       id="path1252"
       style="clip-rule:evenodd;fill:#ffe9e9;fill-rule:evenodd;stroke-width:0.296241;stroke-linecap:round;stroke-linejoin:round;stroke-miterlimit:1.5"
       d="m 51.767084,107.74365 c -2.291115,0.14256 -0.592424,2.99404 1.04875,1.83547 1.787173,-0.50822 -0.04184,-1.91418 -1.04875,-1.83547 z m -5.842537,1.00407 c -1.990339,0.0308 0.225205,2.57755 1.20256,1.52179 0.906523,-0.7858 -0.439751,-1.60192 -1.20256,-1.52179 z m 11.850438,0.15296 c -1.550191,0.19463 -0.673092,2.97837 0.458917,1.23365 0.476272,-0.3914 0.120597,-1.22121 -0.458917,-1.23365 z m 9.41338,1.61954 c -1.808411,0.69027 0.03815,3.5291 1.462532,2.12585 0.795491,-0.96938 -0.565052,-2.01013 -1.462532,-2.12585 z m -5.726781,0.001 c -2.139191,-0.22042 -1.428803,2.30806 0.186766,2.43832 1.967471,0.72003 2.332255,-2.65608 0.163026,-2.4187 z m -28.604456,0.32453 c -1.767271,0.46589 1.067792,1.60797 0.74867,0.30528 -0.196411,-0.19464 -0.471718,-0.30828 -0.74867,-0.30528 z m 6.150012,0.13485 c -1.741551,0.061 -0.829384,2.7898 0.592442,1.55097 1.128384,-0.47563 0.261741,-1.57954 -0.592442,-1.55097 z m 4.706173,0.65577 c -1.78788,0.48587 0.319365,3.1523 0.988054,1.2945 -0.08358,-0.53745 -0.34875,-1.25515 -0.988054,-1.2945 z m 7.778337,0.42168 c -2.291318,0.26963 0.518562,2.98825 1.359659,1.54046 0.01449,-0.6823 -0.688951,-1.45656 -1.359659,-1.54046 z m -6.879685,3.4401 c -1.42684,1.06356 2.272638,1.01503 0,0 z m -17.858341,2.9683 c -1.741691,0.0612 -0.829228,2.78984 0.592699,1.55097 1.128921,-0.47513 0.261604,-1.58066 -0.592699,-1.55097 z m 6.756694,1.11983 c -1.998091,0.30212 -0.500809,3.23532 1.136631,2.43815 1.719485,-0.36247 -0.102502,-2.53406 -1.136631,-2.43815 z" />
    <path
       id="path1302"
       style="clip-rule:evenodd;fill:#aa3f3f;fill-rule:evenodd;stroke-width:0.42004;stroke-linecap:round;stroke-linejoin:round;stroke-miterlimit:1.5"
       d="m 51.983551,155.08689 c -0.44565,-1.11515 1.63722,-1.32817 2.730096,0.11287 0.0062,0.001 0.576601,-0.14015 0.832917,-0.28789 1.055351,-0.60449 1.544075,1.28878 1.695586,1.73774 -0.326322,0.43671 -0.683744,0.3362 -1.487801,0.70961 -1.200302,0.51733 -3.393207,-1.34175 -3.770798,-2.27233 z" />
    <path
       id="path1306"
       style="clip-rule:evenodd;fill:#ffd500;fill-rule:evenodd;stroke-width:0.420957;stroke-linecap:round;stroke-linejoin:round;stroke-miterlimit:1.5"
       d="m 55.97309,131.84148 c 0.189552,-0.5293 0.955917,0.32549 1.143412,0.72372 0.562484,1.19468 0.124956,4.13 -1.436769,4.15683 -1.446206,0.0228 -1.483035,-2.44273 -1.202898,-3.37987 0.112464,-0.38331 0.326322,-1.18988 0.793805,-1.21383 z" />
    <path
       id="path1310"
       style="clip-rule:evenodd;fill:#fff7d5;fill-rule:evenodd;stroke-width:0.420956;stroke-linecap:round;stroke-linejoin:round;stroke-miterlimit:1.5"
       d="m 52.176412,132.78072 c -0.127502,0.45299 0.258558,2.33899 1.178938,1.86054 0.502252,-0.26254 0.689285,-0.96274 1.064857,-1.34782 0.832292,-0.84609 1.858496,-1.99112 3.001832,-2.10716 0.777464,-2.51185 -4.310571,-1.69924 -5.245627,1.59444 z" />
    <path
       id="path1314"
       d="m 52.661361,132.43109 c 0.017,0.16752 0.179201,0.51494 0.300794,0.87917 0.07406,0.22943 0.231109,0.77624 0.398505,0.67463 0.693438,-0.42158 2.16046,-2.01754 2.665924,-2.37349 0.438943,-0.30265 0.90314,-0.52325 1.380577,-0.57171 0.08376,-0.008 0.157571,0.0517 0.165647,0.13128 0.0085,0.0838 -0.05213,0.15339 -0.135892,0.16189 -0.431368,0.0438 -0.846584,0.24671 -1.237396,0.52332 -0.616353,0.43067 -1.180924,1.03803 -1.671511,1.54056 -0.179835,0.1875 -0.314326,0.44656 -0.466845,0.69476 -0.170908,0.27545 -0.02609,0.20151 -0.299399,0.34349 -0.184574,0.0991 -0.347908,0.11571 -0.491214,0.0795 -0.208253,-0.0508 -0.3773,-0.21558 -0.506656,-0.44786 -0.270488,-0.49721 -0.365941,-1.31261 -0.395697,-1.60577 -0.0085,-0.0838 0.05213,-0.15338 0.131704,-0.16146 0.07957,-0.008 0.152958,0.0479 0.161459,0.13171 z"
       style="clip-rule:evenodd;fill-rule:evenodd;stroke-width:0.420956;stroke-linecap:round;stroke-linejoin:round;stroke-miterlimit:1.5" />
    <path
       id="path1318"
       style="clip-rule:evenodd;fill:#ffd500;fill-rule:evenodd;stroke-width:0.509453;stroke-linecap:round;stroke-linejoin:round;stroke-miterlimit:1.5"
       d="m 48.386913,130.52202 c -0.522307,0.0841 -1.459585,1.30993 -1.656536,1.7604 -0.584806,1.36119 -0.81484,2.68117 -0.13142,4.08479 0.294801,0.61321 0.330428,1.2631 1.11763,1.44772 1.071807,0.24909 2.113098,-0.25078 2.577166,-1.2574 0.276919,-0.609 0.161127,-1.40116 0.299808,-2.02725 0.07518,-0.35513 -0.290158,-1.96219 -0.575394,-1.93324 z" />
    <path
       id="path1322"
       d="m 48.356943,136.28222 c -1.433884,-0.0308 -1.386384,-4.19525 0.465309,-3.3355 0.317964,0.14407 0.287408,0.39094 0.399573,0.64925 0.485458,1.09696 0.574165,1.37322 0.06403,2.12518 -0.114476,0.16722 -0.72614,0.56642 -0.92891,0.56107 z"
       style="clip-rule:evenodd;fill-rule:evenodd;stroke-width:0.509453;stroke-linecap:round;stroke-linejoin:round;stroke-miterlimit:1.5" />
    <path
       id="path1326"
       d="m 54.627287,134.21887 c -0.164191,-0.88776 0.435065,-1.44336 1.088218,-1.24897 0.255807,0.0751 0.327363,0.48815 0.417486,0.75566 0.389437,1.13623 -0.364194,1.77667 -0.491301,1.87469 -0.573355,0.40933 -1.014403,-1.38138 -1.014403,-1.38138 z"
       style="clip-rule:evenodd;fill-rule:evenodd;stroke-width:0.441659;stroke-linecap:round;stroke-linejoin:round;stroke-miterlimit:1.5" />
    <path
       id="path1330"
       style="clip-rule:evenodd;fill:#ffd500;fill-rule:evenodd;stroke-width:2.13461;stroke-linecap:round;stroke-linejoin:round;stroke-miterlimit:1.5"
       d="m 493.85156,853.3125 c -0.1391,0.0306 -0.70841,0.7496 -0.68554,0.875 0.33539,1.83919 3.05511,11.43263 3.24218,10.62109 0.0987,-0.4599 1.92766,-2.39862 2.80078,-3.48047 2.147,4.5354 6.32422,12.19336 6.32422,12.19336 0,0 0.23009,-2.23462 0.64649,-3.28125 0.34061,-0.75987 2.88245,-4.38552 2.79687,-4.7832 -7.37931,-3.72306 -10.66396,-6.54022 -15.10351,-12.14062 -0.005,-0.004 -0.0122,-0.006 -0.0215,-0.004 z m 21.69936,12.99023 c -1.21181,-0.0761 -4.58438,-0.30864 -6.43359,-0.81445 -0.83982,0.1561 4.47208,11.67201 4.59765,11.57813 0.82647,-0.76348 1.66619,-5.68786 2.89063,-7.98829 0.16454,0.37609 0.45604,0.89531 0.65039,1.14258 0.81086,0.99028 2.2573,4.01673 2.79687,3.75586 0.90526,-0.44007 0.96637,-7.05514 1.20102,-8.95898 0.40082,0.30018 1.45675,0.81441 1.96679,0.96094 1.63533,0.43358 2.90187,1.78435 4.46875,2.18554 0.17628,0.0435 -0.54151,-1.23419 -0.71289,-1.92773 -0.43707,-1.89105 -4.66787,-8.01934 -4.66015,-9.04102 h 2e-5 c -0.23375,1.74002 -0.53212,3.78498 -0.90845,5.72488 -0.0703,1.65397 -1.01231,1.68627 -2.24759,2.17484 -1.28258,0.54279 -2.72173,1.22995 -3.60945,1.2077 z"
       transform="matrix(0.26458333,0,0,0.26458333,-81.113692,-82.374461)"
       sodipodi:nodetypes="ssccccccssccccccccccscccc" />
    <path
       id="path1350"
       style="clip-rule:evenodd;fill:#fdf5d6;fill-rule:evenodd;stroke-width:0.281117;stroke-linecap:round;stroke-linejoin:round;stroke-miterlimit:1.5"
       d="m 52.193,132.29498 c -0.05402,-0.0303 -0.0084,-0.29394 -0.01377,-0.34699 -0.03261,-0.32125 -0.09145,-0.63686 -0.181849,-0.94629 -0.251338,-0.8648 -4.952579,-2.7221 -5.260018,-2.1847 -0.166223,0.29081 -0.699281,0.005 -0.988715,0.13906 -0.08194,0.0381 -0.173593,0.0861 -0.239269,0.15232 -0.254143,0.26996 -0.05762,0.75324 0.0142,1.06455 0.04363,0.1921 0.103036,0.48681 0.267776,0.60408 0.07824,0.0576 0.222976,0.004 0.294597,-0.0299 0.638116,-0.29107 1.962677,0.13131 2.911309,0.83899 0.55949,0.41368 1.71937,2.62148 1.844116,2.82023 0.153118,0.24053 0.192038,0.43906 0.486711,0.46275 0.224471,0.0189 0.301769,-0.17058 0.408598,-0.33328 0.03267,-0.048 0.08366,-0.074 0.116324,-0.12198 0.163047,-0.24285 0.339986,-2.11884 0.339986,-2.11884 z" />
    <path
       id="path1354"
       d="m 47.77918,130.63901 c 0.163621,-0.004 0.77118,0.17137 0.999098,0.45711 0.519604,0.64964 1.267655,1.79653 1.447372,2.26064 0.570557,1.46109 1.810596,1.88528 1.618779,0.0642 -0.03443,-0.33924 0.02738,-0.65862 0.01367,-0.99995 -0.0012,-0.0803 0.05118,-0.14906 0.117656,-0.14734 0.06605,-0.002 0.125093,0.0635 0.13014,0.14757 0.0111,0.35007 -0.0049,0.67327 -0.01803,1.02578 -0.01085,0.30575 -0.06702,0.88689 -0.259291,1.26183 -0.148957,0.28591 -0.371992,0.46087 -0.696044,0.36259 -0.04315,-0.0125 -0.140185,-0.0746 -0.260442,-0.19358 -0.239663,-0.22955 -1.38594,-2.34304 -1.874618,-2.89427 -0.322773,-0.36074 -0.627533,-0.64715 -0.798806,-0.71862 -0.691998,-0.28518 -1.171063,-0.36349 -1.707416,-0.24982 -0.102775,0.0189 -0.190883,0.0448 -0.250932,0.072 -0.01297,0.01 -0.02939,0.0199 -0.03932,0.0251 -0.01562,0.0524 -0.05367,0.0901 -0.105486,0.0953 -0.06605,0.002 -0.124668,-0.0593 -0.129715,-0.14339 -0.0051,-0.0503 0.0071,-0.10226 0.04427,-0.14835 0.03374,-0.0457 0.105486,-0.0953 0.213044,-0.13587 0.370607,-0.1307 0.912379,-0.12222 1.556075,-0.14101 z"
       style="clip-rule:evenodd;fill-rule:evenodd;stroke-width:0.382299;stroke-linecap:round;stroke-linejoin:round;stroke-miterlimit:1.5" />
    <path
       id="path1358"
       d="m 47.508554,141.17315 c 0.03386,-0.0117 0.492775,0.78022 0.596905,0.94284 0.67316,1.07257 5.680739,3.99796 6.453686,4.18892 1.959493,0.48565 2.830134,-0.7436 1.531318,-2.4207 -0.237274,-0.30031 0.215701,-1.259 0.423132,-0.94191 0.149472,0.2295 0.917788,1.65254 0.8816,2.1593 -0.05183,0.69804 0.191175,0.64039 -0.157364,1.14311 -0.232176,0.33697 -0.623659,0.69285 -1.327682,1.14644 -0.31939,0.20286 -0.788132,0.21195 -1.352253,0.041 -0.752253,-0.2288 -1.693763,-0.76829 -2.645337,-1.44146 -1.374372,-0.97115 -2.769977,-2.22055 -3.649667,-3.18693 0.956232,2.20396 2.893546,6.3042 2.953451,9.48436 0.04355,2.29384 2.191638,4.15415 3.787017,4.64377 1.262127,0.38323 2.056276,-0.49462 2.06165,0.14538 0.01884,1.46337 -2.837881,0.97807 -5.298066,-1.67805 -0.743785,-0.80148 -1.264953,-1.68878 -1.292092,-2.37056 -0.158274,-3.76947 -3.309386,-11.7135 -2.966298,-11.85554 z"
       style="clip-rule:evenodd;fill-rule:evenodd;stroke-width:0.308825;stroke-linecap:round;stroke-linejoin:round;stroke-miterlimit:1.5" />
    <rect
       id="rect2242"
       style="clip-rule:evenodd;fill:#6cbd2e;fill-rule:evenodd;stroke:none;stroke-width:0.646419px;stroke-linecap:round;stroke-linejoin:round;stroke-miterlimit:1.5"
       height="79.374954"
       width="79.374992"
       y="99.469963"
       x="102.76608" />
    <path
       id="path2246"
       style="clip-rule:evenodd;fill:#528f23;fill-rule:evenodd;stroke-width:0.263209;stroke-linecap:round;stroke-linejoin:round;stroke-miterlimit:1.5"
       d="m 127.46167,161.09938 c 0.8041,-0.36849 27.8767,-1.88984 28.57368,4.95096 0.15951,1.56346 -1.14575,2.44258 -2.0604,3.35855 -0.9536,0.95281 -1.66374,1.98459 -2.90003,2.66893 -3.61096,2.00829 -8.57061,1.54767 -12.51558,1.9846 -1.08311,0.12107 -2.22859,-0.44219 -3.28169,-0.61065 -4.34347,-0.68434 -6.74315,-1.01861 -9.92087,-4.19555 -0.61827,-0.61854 -1.54582,-1.20549 -1.83167,-2.06092 -0.75935,-2.27939 1.08442,-4.77987 3.93656,-6.09592 z" />
    <path
       id="path2250"
       style="clip-rule:evenodd;fill:#fffef7;fill-rule:evenodd;stroke-width:0.264583;stroke-linecap:round;stroke-linejoin:round;stroke-miterlimit:1.5"
       d="m 135.21787,147.85859 c -0.008,-8.40581 -0.0926,-17.41487 -1.05833,-22.15092 h 14.42508 c -3.29141,3.80207 0.97367,32.56757 3.43959,36.48075 2.22779,3.54013 0.78581,6.47436 -2.6088,7.66763 -5.15143,1.80975 -13.05983,0.24077 -13.7742,-4.34446 -0.254,-1.64042 -0.35455,-4.46352 -0.39423,-7.9031 0.10054,0.0979 0.16404,0.16139 0.18256,0.17991 -0.0185,0.0132 -0.0397,0.0238 -0.0609,0.0265 -0.0847,0.11642 0.0661,-0.0212 0.0661,-0.0212 l -0.005,-0.005 c 0.44979,-0.32279 0.78052,-3.15912 0.84137,-5.58006 0.0476,-1.86267 -0.0661,-3.47927 -0.40216,-3.52689 -0.14552,0.10583 -0.40217,-0.2884 -0.65088,-0.82286 z" />
    <path
       id="path2252"
       style="clip-rule:evenodd;fill:#d4c484;fill-rule:evenodd;stroke-width:0.264583;stroke-linecap:round;stroke-linejoin:round;stroke-miterlimit:1.5"
       d="m 135.21787,147.85859 -0.005,-1.17739 c 0.17992,1.37054 1.07421,2.57704 2.05846,2.12989 0.56621,-0.25929 4.25185,-4.27302 4.67783,-5.37104 0.0661,-0.16669 0.3519,-0.97367 0.37836,-0.96573 0.26987,0.10319 -1.7489,7.85813 -1.57692,11.50408 0.0794,1.70657 -2.01348,5.24405 -3.37344,4.96094 -0.82814,-0.17462 -1.62718,-0.47889 -2.1246,-1.02394 l -0.005,-0.30691 c 0.10054,0.0979 0.16404,0.16139 0.18256,0.17991 -0.0185,0.0132 -0.0397,0.0238 -0.0609,0.0265 -0.0847,0.11642 0.0661,-0.0212 0.0661,-0.0212 l -0.005,-0.005 0.0635,-0.0873 c 0.74083,-0.3175 0.75935,-8.3476 0.6985,-7.93485" />
    <path
       id="path2254"
       style="clip-rule:evenodd;fill:#aa3f3f;fill-rule:evenodd;stroke-width:0.504427;stroke-linecap:round;stroke-linejoin:round;stroke-miterlimit:1.5"
       d="m 140.38794,153.84237 c 0.0635,-1.78801 -1.91107,-1.09587 -2.46693,1.46117 -0.005,0.005 -0.53467,-1.00455 -0.81525,-1.09107 -1.15405,-0.34607 -1.46109,3.07614 -1.46109,3.7827 0.4288,0.46142 1.13817,0.71135 1.99048,0.85555 1.25993,0.15861 2.69456,-3.51353 2.75279,-5.00835 z" />
    <path
       id="path2258"
       style="clip-rule:evenodd;fill:#fdf5d6;fill-rule:evenodd;stroke-width:0.240276;stroke-linecap:round;stroke-linejoin:round;stroke-miterlimit:1.5"
       d="m 145.20135,125.7075 3.30065,0.31322 c -1.25726,2.16357 -1.51411,11.34166 0.55867,22.328 1.24761,6.60917 2.48229,12.25237 2.96221,13.83952 1.26297,4.17186 0.78678,6.4723 -2.60798,7.66727 -3.69568,1.29762 -8.81139,0.85806 -11.67029,-1.18707 2.73234,0.7712 6.05142,0.72119 8.6618,-0.19741 3.39475,-1.19233 3.87095,-3.49541 2.60798,-7.66727 -0.42048,-1.38974 -1.42068,-5.89588 -2.50138,-11.43905 -1.98197,-10.16513 -1.86857,-19.33796 -1.31166,-23.65721 z" />
    <path
       id="path2262"
       style="clip-rule:evenodd;fill:#fff7d5;fill-rule:evenodd;stroke-width:0.37597;stroke-linecap:round;stroke-linejoin:round;stroke-miterlimit:1.5"
       d="m 138.79545,136.40282 c 0.15415,0.39101 -0.0188,2.10167 -0.87977,1.75954 -0.46996,-0.18798 -0.6993,-0.7933 -1.06775,-1.10159 -0.81586,-0.67675 -1.83098,-1.60164 -2.85738,-1.60164 -0.91736,-2.16182 3.67699,-1.89865 4.8049,0.94369 z" />
    <path
       id="path2266"
       style="clip-rule:evenodd;fill:#ffd500;fill-rule:evenodd;stroke-width:0.37597;stroke-linecap:round;stroke-linejoin:round;stroke-miterlimit:1.5"
       d="m 136.22382,136.69984 c -0.0978,-0.49252 -0.88729,0.16166 -1.10536,0.48876 -0.65418,0.98128 -0.65418,3.63187 0.72187,3.86121 1.27454,0.21055 1.63171,-1.96256 1.50764,-2.82729 -0.0489,-0.35342 -0.13159,-1.09408 -0.5414,-1.17679 z" />
    <path
       id="path2270"
       d="m 138.6601,136.40282 c 0,0.15039 -0.11279,0.47372 -0.18422,0.80834 -0.0489,0.21054 -0.13535,0.71058 -0.29702,0.63539 -0.65043,-0.31206 -2.42877,-1.86482 -2.91001,-2.13552 -0.41733,-0.22934 -0.84969,-0.38348 -1.2783,-0.38348 -0.0752,0 -0.13535,0.0601 -0.13535,0.13158 0,0.0752 0.0602,0.13159 0.13535,0.13159 0.38725,0 0.7745,0.14287 1.14671,0.35342 0.58652,0.32709 1.14295,0.81585 1.62419,1.21814 0.17671,0.15039 0.31958,0.36845 0.47749,0.57523 0.1767,0.22935 0.36845,0.44365 0.62787,0.54516 0.17294,0.0714 0.31957,0.0714 0.44364,0.0263 0.18047,-0.0639 0.31582,-0.22558 0.40605,-0.44365 0.19926,-0.4662 0.21054,-1.19934 0.21054,-1.46252 0,-0.0752 -0.0601,-0.13159 -0.13159,-0.13159 -0.0752,0 -0.13535,0.0564 -0.13535,0.13159 z"
       style="clip-rule:evenodd;fill-rule:evenodd;stroke-width:0.37597;stroke-linecap:round;stroke-linejoin:round;stroke-miterlimit:1.5" />
    <path
       id="path2274"
       style="clip-rule:evenodd;fill:#ffd500;fill-rule:evenodd;stroke-width:0.455009;stroke-linecap:round;stroke-linejoin:round;stroke-miterlimit:1.5"
       d="m 143.19293,133.82364 c 0.47169,0.0277 1.41507,1.03234 1.6307,1.41485 0.6424,1.15676 0.96585,2.30892 0.48517,3.61777 -0.20664,0.57146 -0.17969,1.15215 -0.86252,1.38719 -0.92991,0.31799 -1.90025,-0.0323 -2.40339,-0.88485 -0.30098,-0.51617 -0.26953,-1.23051 -0.44923,-1.77432 -0.0988,-0.30878 0.0809,-1.76971 0.33693,-1.76971 z" />
    <path
       id="path2278"
       d="m 143.70173,138.50985 c 1.27132,-0.1567 0.85354,-3.85281 -0.71428,-2.92187 -0.26953,0.1567 -0.22012,0.3733 -0.29649,0.61295 -0.33243,1.0185 -0.38634,1.27198 0.13477,1.89414 0.1168,0.13826 0.69631,0.43782 0.876,0.41478 z"
       style="clip-rule:evenodd;fill-rule:evenodd;stroke-width:0.455009;stroke-linecap:round;stroke-linejoin:round;stroke-miterlimit:1.5" />
    <path
       id="path2282"
       d="m 137.05543,138.37924 c 0.0752,-0.63915 -0.59027,-0.98881 -1.23318,-0.80458 -0.2519,0.0714 -0.28198,0.36845 -0.3459,0.56396 -0.27821,0.83089 0.49629,1.84225 0.63915,1.89865 0.62411,0.24814 0.93993,-1.65803 0.93993,-1.65803 z"
       style="clip-rule:evenodd;fill-rule:evenodd;stroke-width:0.37597;stroke-linecap:round;stroke-linejoin:round;stroke-miterlimit:1.5" />
    <path
       id="path2286"
       style="clip-rule:evenodd;fill:#ffd500;fill-rule:evenodd;stroke-width:1.9065;stroke-linecap:round;stroke-linejoin:round;stroke-miterlimit:1.5"
       d="m 839.75977,859.06055 c -0.003,8.2e-4 -0.006,0.002 -0.008,0.004 l -4.21093,6.58203 c -6.93589,7.68331 -14.60937,14.15631 -18.37695,0.69147 0.44017,0.81747 -1.14183,8.01229 -0.68164,9.68359 0.15988,0.61765 0.14153,1.92526 0.26172,1.81641 1.06042,-0.98098 1.47963,-2.57979 2.58008,-3.61523 0.15273,-0.14977 0.36409,-0.40806 0.5664,-0.6836 0.17177,2.26477 0.35638,6.01285 1.04102,6.26367 0.50298,0.18312 1.5153,-2.63683 2.14648,-3.58984 0.17665,-0.27855 0.44307,-0.90963 0.52735,-1.24609 1.44269,0.67991 1.49056,5.96664 2.48242,6.86718 0.086,0.0651 2.00051,-5.125 2.79883,-8.13671 0.8691,0.95056 2.44788,2.45272 2.76367,2.88281 0.56024,0.83565 1.18164,2.74219 1.18164,2.74219 0,0 2.35331,-7.958 3.32617,-12.24415 0.93044,0.89007 2.26817,2.08484 2.37891,2.42774 0.23939,0.70424 1.79154,-8.06597 1.92383,-9.73047 0.009,-0.11727 -0.60224,-0.74024 -0.70117,-0.71484 z"
       transform="matrix(0.26458333,0,0,0.26458333,-81.113692,-82.374461)"
       sodipodi:nodetypes="cccccccccccccccccccc" />
    <path
       id="path2306"
       style="clip-rule:evenodd;fill:#d02b2b;fill-rule:evenodd;stroke-width:0.221637;stroke-linecap:round;stroke-linejoin:round;stroke-miterlimit:1.5"
       d="m 162.10336,121.31591 c 0.0275,-0.72944 -3.9922,-8.31054 -5.15691,-9.3861 -4.75705,-4.38862 -8.05719,-5.08043 -14.06927,-5.70618 -9.81273,-1.02163 -21.58204,5.71152 -22.26119,15.88231 -0.10961,1.63989 -1.28059,4.12945 -0.79229,5.87427 1.41318,5.05261 42.04001,-0.33448 42.27966,-6.6643 z" />
    <path
       id="path2310"
       style="clip-rule:evenodd;fill:#b93737;fill-rule:evenodd;stroke-width:0.239884;stroke-linecap:round;stroke-linejoin:round;stroke-miterlimit:1.5"
       d="m 160.67389,118.11221 c -0.75231,1.50066 -1.48758,4.00696 -5.33062,5.1451 -10.82424,3.20313 -31.79689,3.41629 -35.05313,0.62376 -0.25673,0.31266 -0.87643,3.06199 -0.46623,4.10148 1.52446,3.85673 27.71451,1.77689 38.21957,-2.61218 2.65683,-1.11163 4.01144,-2.77651 4.06003,-4.05275 0.007,-0.19178 -1.01297,-2.32847 -1.42962,-3.20541 z" />
    <path
       id="path2314"
       style="clip-rule:evenodd;fill:#ffe9e9;fill-rule:evenodd;stroke-width:0.906648;stroke-linecap:round;stroke-linejoin:round;stroke-miterlimit:1.5"
       d="m 837.92969,717.51172 c -4.66643,0.29291 -1.5,10.3041 1.33593,3.93945 0.97732,-1.33761 0.21859,-3.45337 -1.33593,-3.93945 z m 22.18945,0.25586 c -0.86893,0.005 -1.71431,0.56472 -2.31836,1.96094 -1.91629,5.31753 9.14425,7.58846 5.71875,1.01367 -0.6329,-1.63581 -2.04486,-2.98176 -3.40039,-2.97461 z m 13.65234,3.18945 c -1.79954,0.0282 -2.61283,2.29262 -2.01367,4.86914 1.77857,7.24275 11.13977,-0.14329 4.55274,-3.75976 -0.98042,-0.78865 -1.8349,-1.12042 -2.53907,-1.10938 z m -51.67968,1.58789 c -4.45344,-0.011 -8.67524,9.49765 -1.65235,8.93946 4.0791,-0.18331 6.50669,-4.33066 4.08008,-7.83008 -0.77071,-0.77947 -1.60302,-1.10734 -2.42773,-1.10938 z m -20.94532,3.41992 c -1.32992,-0.59182 -1.91971,2.00768 -0.69316,2.45199 1.53343,0.55549 4.20405,-0.19378 0.69316,-2.45201 z m -11.34179,7.46485 c -5.45243,0.025 -5.44157,14.20283 0.66015,10.03515 2.8345,-2.76355 4.26213,-8.2153 -0.39648,-10.02539 -0.0893,-0.007 -0.17713,-0.0102 -0.26367,-0.01 z m 73.01172,2.27148 c -3.73353,-0.0163 -7.77362,3.30736 -2.98633,6.67969 2.98299,2.75879 7.63493,1.69211 7.36719,-2.91797 -0.2883,-2.69181 -2.28645,-3.75255 -4.38086,-3.76172 z m -27.12305,1.72461 c -5.75207,0.10759 -5.37215,14.93154 0.9375,9.46094 2.77447,-2.55179 3.70166,-7.57526 -0.36133,-9.42383 -0.19832,-0.0283 -0.39062,-0.0406 -0.57617,-0.0371 z m -31.5957,0.43555 c -4.90044,-0.06 -2.51605,9.76349 1.88281,4.98047 2.38537,-1.597 0.95005,-4.46961 -1.38672,-4.94141 -0.17342,-0.0233 -0.33802,-0.0371 -0.49609,-0.0391 z m 12.17968,7.70117 c -2.09309,-0.0175 -3.33072,5.70981 0.24219,6.33789 2.59767,0.13591 3.16482,-2.67035 1.80664,-4.39453 -0.68775,-1.39296 -1.40808,-1.93801 -2.04883,-1.94336 z m 64.14649,18.17383 c -5.39224,-0.02 -3.42469,10.96131 1.875,6.48828 2.97044,-1.89736 2.34015,-5.69053 -1.17969,-6.42969 -0.24379,-0.0389 -0.47612,-0.0578 -0.69531,-0.0586 z m 31.43164,3.80664 c -2.09309,-0.0175 -3.3307,5.70981 0.24219,6.33789 2.59767,0.13591 3.16481,-2.67234 1.80664,-4.39648 -0.68776,-1.39297 -1.40809,-1.93606 -2.04883,-1.94141 z m -13.80274,0.26758 c -4.61358,0.0757 -0.85983,8.07315 3.29688,5.18164 2.76616,-2.08109 1.00748,-4.77802 -1.93945,-5.01953 -0.51602,-0.11884 -0.96644,-0.16853 -1.35743,-0.16211 z m -88.98828,6.24218 c -4.7447,0.097 -2.36339,9.72297 2,4.97852 2.38538,-1.597 0.95005,-4.46961 -1.38672,-4.94141 -0.21677,-0.0291 -0.4204,-0.041 -0.61328,-0.0371 z m 78.00782,3.08985 c -4.74471,0.097 -2.36336,9.72296 2,4.97851 2.38537,-1.597 0.952,-4.4696 -1.38477,-4.9414 -0.21677,-0.0292 -0.42236,-0.0411 -0.61523,-0.0371 z"
       transform="matrix(0.26458333,0,0,0.26458333,-81.113692,-82.374461)"
       sodipodi:nodetypes="cccccccsccssccscscccccccsccssccsssccsssccssccsssccssccssccsssccss" />
    <path
       id="path2370"
       style="clip-rule:evenodd;fill:#fdf5d6;fill-rule:evenodd;stroke-width:0.264583;stroke-linecap:round;stroke-linejoin:round;stroke-miterlimit:1.5"
       d="m 139.49619,135.90207 c 0.0503,-0.0318 -0.0212,-0.26194 -0.0212,-0.30956 0,-0.2884 0.0265,-0.57415 0.0847,-0.85725 0.16139,-0.79111 4.61433,-2.86544 4.97152,-2.41565 0.19314,0.24342 0.69056,-0.0582 0.98954,0.0344 0.0847,0.0265 0.17991,0.0609 0.25135,0.11377 0.27781,0.21696 0.13229,0.6641 0.0926,0.94721 -0.0238,0.17462 -0.0529,0.44185 -0.20373,0.56091 -0.0714,0.0582 -0.21961,0.0238 -0.29369,0 -0.65881,-0.20108 -1.92352,0.29369 -2.78871,1.00807 -0.51064,0.41804 -1.43404,2.48443 -1.53723,2.67229 -0.127,0.22754 -0.14552,0.40746 -0.43391,0.45508 -0.21961,0.037 -0.31486,-0.12435 -0.43657,-0.25929 -0.037,-0.0397 -0.09,-0.0582 -0.127,-0.0979 -0.18521,-0.20108 -0.54768,-1.85208 -0.54768,-1.85208 z" />
    <path
       id="path2376"
       d="m 143.84981,133.91269 c -0.1767,0.0113 -0.81209,0.22182 -1.0264,0.49628 -0.48876,0.62411 -1.16926,1.71066 -1.31213,2.13927 -0.45493,1.34973 -1.7445,1.83849 -1.73698,0.20302 0,-0.30453 -0.10152,-0.58275 -0.12407,-0.88729 -0.008,-0.0714 -0.0714,-0.12783 -0.14287,-0.12031 -0.0714,0.004 -0.12783,0.0677 -0.12407,0.14287 0.0263,0.31206 0.079,0.5978 0.13159,0.90985 0.0451,0.2707 0.16918,0.78202 0.41732,1.09783 0.19175,0.24062 0.45117,0.37597 0.78954,0.25942 0.0451,-0.015 0.14287,-0.0789 0.25942,-0.1955 0.2331,-0.22558 1.23694,-2.20695 1.70315,-2.74082 0.30829,-0.34966 0.60531,-0.63163 0.78201,-0.71059 0.71435,-0.31581 1.22191,-0.4286 1.81218,-0.37597 0.11279,0.008 0.21054,0.0226 0.27822,0.0414 0.015,0.008 0.0338,0.015 0.0451,0.0188 0.0226,0.0451 0.0677,0.0752 0.12407,0.0752 0.0714,-0.004 0.12783,-0.0639 0.12408,-0.13911 0,-0.0451 -0.0188,-0.0902 -0.0639,-0.12783 -0.0414,-0.0376 -0.12407,-0.0752 -0.24438,-0.10151 -0.41357,-0.0827 -0.99632,-0.0263 -1.69187,0.015 z"
       style="clip-rule:evenodd;fill-rule:evenodd;stroke-width:0.37597;stroke-linecap:round;stroke-linejoin:round;stroke-miterlimit:1.5" />
    <path
       id="path2380"
       d="m 142.32723,142.47432 c -0.0265,-0.008 -0.31221,0.79904 -0.37836,0.96573 -0.42598,1.09802 -4.11162,5.11175 -4.67783,5.37104 -1.44198,0.65617 -2.69346,-2.24631 -1.83885,-3.98727 0.15345,-0.31485 -0.42069,-0.26723 -0.46832,0.0794 -0.0767,0.58208 -0.12435,1.60072 -0.0688,1.84943 0.14552,0.65882 0.17463,1.10332 0.47625,1.55311 0.20108,0.30162 0.52388,0.60589 1.09008,0.97366 0.25665,0.16405 0.61119,0.127 1.02394,-0.0926 0.55034,-0.29369 1.21973,-0.90488 1.88648,-1.64571 0.96308,-1.06892 1.92088,-2.40771 2.5109,-3.42371 -0.55298,2.21457 -1.70127,6.35 -1.50284,9.41652 0.25665,3.95552 -4.46881,6.96648 -5.40014,2.98715 -0.0185,-0.0714 -0.0609,-0.13229 -0.13229,-0.13229 -0.0741,0 -0.1323,0.0609 -0.1323,0.13229 0,1.48431 1.28853,2.1299 2.66171,2.41829 1.35996,0.28311 3.45282,-3.25437 3.37344,-4.96094 -0.17198,-3.64595 1.84679,-11.40089 1.57692,-11.50408 z"
       style="clip-rule:evenodd;fill-rule:evenodd;stroke-width:0.264583;stroke-linecap:round;stroke-linejoin:round;stroke-miterlimit:1.5" />
    <path
       id="path2382"
       d="m 135.202,144.64655 0.003,0.88106 c 0.045,-0.24606 0.11907,-0.48419 0.22755,-0.70379 0.09,-0.18785 -0.0767,-0.24606 -0.23019,-0.17727 z"
       style="clip-rule:evenodd;fill-rule:evenodd;stroke-width:0.264583;stroke-linecap:round;stroke-linejoin:round;stroke-miterlimit:1.5" />
    <rect
       id="rect2388"
       style="clip-rule:evenodd;fill:#ff000f;fill-rule:evenodd;stroke:none;stroke-width:0.646419px;stroke-linecap:round;stroke-linejoin:round;stroke-miterlimit:1.5"
       height="79.374954"
       width="79.374992"
       y="99.45356"
       x="194.68903" />
    <rect
       id="rect2392"
       style="clip-rule:evenodd;fill:#ffffff;fill-rule:evenodd;stroke-width:0.208353;stroke-linecap:round;stroke-linejoin:round;stroke-miterlimit:1.5"
       height="67.603577"
       width="67.48008"
       y="105.33926"
       x="200.6366" />
    <path
       id="path2398"
       style="clip-rule:evenodd;fill-rule:nonzero;stroke-width:2.69139;stroke-linecap:round;stroke-linejoin:round;stroke-miterlimit:1.5"
       d="m 228.19687,157.38909 h 17.83587 c 1.77632,0 3.13009,0.36334 4.064,1.09271 0.93392,0.72937 1.40222,1.7198 1.40222,2.97399 0,1.11424 -0.37141,2.06161 -1.11155,2.83404 -0.74013,0.77512 -1.86244,1.16268 -3.36424,1.16268 h -25.14839 c -1.70904,0 -3.04128,-0.47368 -3.99672,-1.41836 -0.95814,-0.94468 -1.43721,-2.05623 -1.43721,-3.33195 0,-0.81818 0.30951,-1.9082 0.92315,-3.26197 0.61633,-1.35646 1.28649,-2.41956 2.01586,-3.19469 3.03051,-3.14354 5.76496,-5.83763 8.20068,-8.08225 2.4384,-2.24193 4.17973,-3.71682 5.22938,-4.42466 1.86782,-1.32147 3.42076,-2.64833 4.66149,-3.98057 1.24342,-1.33224 2.1881,-2.69947 2.83673,-4.09899 0.64863,-1.40222 0.97429,-2.77483 0.97429,-4.11784 0,-1.45873 -0.34719,-2.76137 -1.04157,-3.91059 -0.69438,-1.15192 -1.64175,-2.04546 -2.83673,-2.68332 -1.19498,-0.63786 -2.50031,-0.95814 -3.91329,-0.95814 -2.98207,0 -5.32896,1.31071 -7.038,3.92944 -0.22608,0.3418 -0.60825,1.27572 -1.14384,2.80174 -0.53559,1.52602 -1.13846,2.69947 -1.81131,3.52034 -0.67285,0.82088 -1.6579,1.22997 -2.95515,1.22997 -1.13846,0 -2.08314,-0.37679 -2.83673,-1.12769 -0.7509,-0.7509 -1.12769,-1.77632 -1.12769,-3.07358 0,-1.57177 0.35257,-3.21352 1.0604,-4.92256 0.70515,-1.70634 1.76018,-3.25658 3.1597,-4.64534 1.40222,-1.38876 3.17854,-2.51107 5.33165,-3.36694 2.15043,-0.85317 4.67496,-1.2811 7.56821,-1.2811 3.48535,0 6.45665,0.54635 8.91659,1.64175 1.59599,0.72937 2.99552,1.73057 4.20395,3.00629 1.20575,1.27572 2.14505,2.7506 2.81789,4.42465 0.67285,1.67405 1.00928,3.41 1.00928,5.21054 0,2.82327 -0.70246,5.39355 -2.10198,7.70546 -1.40222,2.31191 -2.83135,4.12322 -4.29009,5.43124 -1.45604,1.3107 -3.89983,3.36693 -7.32866,6.16867 -3.42615,2.80174 -5.77843,4.97639 -7.05415,6.52663 -0.54635,0.61364 -1.10616,1.35377 -1.67404,2.2204 z" />
    <rect
       id="rect2514"
       style="clip-rule:evenodd;fill:#ff000f;fill-rule:evenodd;stroke:none;stroke-width:0.646419px;stroke-linecap:round;stroke-linejoin:round;stroke-miterlimit:1.5"
       height="79.374954"
       width="79.374992"
       y="190.36864"
       x="-81.113693" />
    <rect
       id="rect2518"
       style="clip-rule:evenodd;fill:#ffffff;fill-rule:evenodd;stroke-width:0.208353;stroke-linecap:round;stroke-linejoin:round;stroke-miterlimit:1.5"
       height="67.603577"
       width="67.48008"
       y="196.25432"
       x="-75.166122" />
    <path
       id="path2524"
       style="clip-rule:evenodd;fill-rule:nonzero;stroke-width:2.69139;stroke-linecap:round;stroke-linejoin:round;stroke-miterlimit:1.5"
       d="M -45.609653,252.52708 V 221.4334 c -5.786498,4.4408 -9.680946,6.6612 -11.686035,6.6612 -0.955445,0 -1.805925,-0.37949 -2.546059,-1.14385 -0.740133,-0.76166 -1.108854,-1.64444 -1.108854,-2.64833 0,-1.15999 0.363338,-2.01585 1.092706,-2.56221 0.729368,-0.54635 2.015854,-1.25149 3.859459,-2.11812 2.75868,-1.29725 4.960241,-2.66448 6.612757,-4.099 1.652516,-1.4372 3.113943,-3.04127 4.389664,-4.81759 1.275721,-1.77901 2.107362,-2.87172 2.494923,-3.28081 0.387561,-0.41179 1.116929,-0.61633 2.188104,-0.61633 1.205744,0 2.174646,0.4683 2.904014,1.40221 0.729368,0.93392 1.092706,2.22041 1.092706,3.85946 v 39.12481 c 0,4.57806 -1.561008,6.86574 -4.680335,6.86574 -1.391451,0 -2.505688,-0.46561 -3.348094,-1.39952 -0.845098,-0.93392 -1.264956,-2.31191 -1.264956,-4.13398 z" />
    <rect
       id="rect2530"
       style="clip-rule:evenodd;fill:#ff000f;fill-rule:evenodd;stroke:none;stroke-width:0.646419px;stroke-linecap:round;stroke-linejoin:round;stroke-miterlimit:1.5"
       height="79.374954"
       width="79.374992"
       y="190.36862"
       x="10.820548" />
    <rect
       id="rect2534"
       style="clip-rule:evenodd;fill:#ffffff;fill-rule:evenodd;stroke-width:0.208353;stroke-linecap:round;stroke-linejoin:round;stroke-miterlimit:1.5"
       height="67.603577"
       width="67.48008"
       y="196.25432"
       x="16.76812" />
    <path
       id="path2540"
       style="clip-rule:evenodd;fill-rule:nonzero;stroke-width:2.69139;stroke-linecap:round;stroke-linejoin:round;stroke-miterlimit:1.5"
       d="m 43.311365,246.21509 h 17.835872 c 1.77632,0 3.130091,0.36334 4.064005,1.09271 0.933914,0.72937 1.402217,1.7198 1.402217,2.97399 0,1.11424 -0.371413,2.06161 -1.111546,2.83404 -0.740134,0.77512 -1.862445,1.16268 -3.364243,1.16268 H 36.98928 c -1.709036,0 -3.041276,-0.47368 -3.996721,-1.41836 -0.958137,-0.94468 -1.437205,-2.05623 -1.437205,-3.33195 0,-0.81818 0.30951,-1.9082 0.923148,-3.26197 0.61633,-1.35646 1.286487,-2.41956 2.015855,-3.19469 3.03051,-3.14354 5.764967,-5.83763 8.200679,-8.08225 2.438403,-2.24193 4.179736,-3.71682 5.229379,-4.42466 1.867828,-1.32147 3.420763,-2.64833 4.661496,-3.98057 1.243424,-1.33224 2.188103,-2.69947 2.83673,-4.09899 0.648626,-1.40222 0.974284,-2.77483 0.974284,-4.11784 0,-1.45873 -0.34719,-2.76137 -1.041569,-3.91059 -0.69438,-1.15192 -1.641751,-2.04546 -2.83673,-2.68332 -1.194979,-0.63786 -2.500306,-0.95814 -3.913288,-0.95814 -2.982065,0 -5.328961,1.31071 -7.037996,3.92944 -0.226078,0.3418 -0.608256,1.27572 -1.143843,2.80174 -0.535588,1.52602 -1.13846,2.69947 -1.811309,3.52034 -0.672848,0.82088 -1.657899,1.22997 -2.955151,1.22997 -1.13846,0 -2.083139,-0.37679 -2.836729,-1.12769 -0.7509,-0.7509 -1.127695,-1.77632 -1.127695,-3.07358 0,-1.57177 0.352573,-3.21352 1.06041,-4.92256 0.705145,-1.70634 1.760172,-3.25658 3.159697,-4.64534 1.402216,-1.38876 3.178537,-2.51107 5.331652,-3.36694 2.150424,-0.85317 4.674953,-1.2811 7.568202,-1.2811 3.485355,0 6.456655,0.54635 8.91659,1.64175 1.595997,0.72937 2.995522,1.73057 4.203958,3.00629 1.205745,1.27572 2.145041,2.7506 2.81789,4.42465 0.672848,1.67405 1.009273,3.41 1.009273,5.21054 0,2.82327 -0.702454,5.39355 -2.101979,7.70546 -1.402217,2.31191 -2.831347,4.12322 -4.290083,5.43124 -1.456045,1.3107 -3.899831,3.36693 -7.328667,6.16867 -3.426146,2.80174 -5.778424,4.97639 -7.054145,6.52663 -0.546353,0.61364 -1.106163,1.35377 -1.674048,2.2204 z" />
    <rect
       id="rect2546"
       style="clip-rule:evenodd;fill:#ff000f;fill-rule:evenodd;stroke:none;stroke-width:0.646419px;stroke-linecap:round;stroke-linejoin:round;stroke-miterlimit:1.5"
       height="79.374954"
       width="79.374992"
       y="190.36862"
       x="102.75426" />
    <rect
       id="rect2550"
       style="clip-rule:evenodd;fill:#ffffff;fill-rule:evenodd;stroke-width:0.208353;stroke-linecap:round;stroke-linejoin:round;stroke-miterlimit:1.5"
       height="67.603577"
       width="67.48008"
       y="196.25432"
       x="108.70183" />
    <path
       id="path2556"
       style="clip-rule:evenodd;fill-rule:nonzero;stroke-width:2.69139;stroke-linecap:round;stroke-linejoin:round;stroke-miterlimit:1.5"
       d="m 134.79107,246.64369 h 17.83587 c 1.77632,0 3.13009,0.36334 4.064,1.09271 0.93392,0.72937 1.40222,1.7198 1.40222,2.97399 0,1.11424 -0.37141,2.06161 -1.11155,2.83404 -0.74013,0.77512 -1.86244,1.16268 -3.36424,1.16268 h -25.14839 c -1.70904,0 -3.04128,-0.47368 -3.99672,-1.41836 -0.95814,-0.94468 -1.43721,-2.05623 -1.43721,-3.33195 0,-0.81818 0.30951,-1.9082 0.92315,-3.26197 0.61633,-1.35646 1.28649,-2.41956 2.01586,-3.19469 3.03051,-3.14354 5.76496,-5.83763 8.20068,-8.08225 2.4384,-2.24193 4.17973,-3.71682 5.22938,-4.42466 1.86782,-1.32147 3.42076,-2.64833 4.66149,-3.98057 1.24342,-1.33224 2.1881,-2.69947 2.83673,-4.09899 0.64863,-1.40222 0.97429,-2.77483 0.97429,-4.11784 0,-1.45873 -0.34719,-2.76137 -1.04157,-3.91059 -0.69438,-1.15192 -1.64175,-2.04546 -2.83673,-2.68332 -1.19498,-0.63786 -2.50031,-0.95814 -3.91329,-0.95814 -2.98207,0 -5.32896,1.31071 -7.038,3.92944 -0.22608,0.3418 -0.60825,1.27572 -1.14384,2.80174 -0.53559,1.52602 -1.13846,2.69947 -1.81131,3.52034 -0.67285,0.82088 -1.6579,1.22997 -2.95515,1.22997 -1.13846,0 -2.08314,-0.37679 -2.83673,-1.12769 -0.7509,-0.7509 -1.12769,-1.77632 -1.12769,-3.07358 0,-1.57177 0.35257,-3.21352 1.0604,-4.92256 0.70515,-1.70634 1.76018,-3.25658 3.1597,-4.64534 1.40222,-1.38876 3.17854,-2.51107 5.33165,-3.36694 2.15043,-0.85317 4.67496,-1.2811 7.56821,-1.2811 3.48535,0 6.45665,0.54635 8.91659,1.64175 1.59599,0.72937 2.99552,1.73057 4.20395,3.00629 1.20575,1.27572 2.14505,2.7506 2.81789,4.42465 0.67285,1.67405 1.00928,3.41 1.00928,5.21054 0,2.82327 -0.70246,5.39355 -2.10198,7.70546 -1.40222,2.31191 -2.83135,4.12322 -4.29009,5.43124 -1.45604,1.3107 -3.89983,3.36693 -7.32866,6.16867 -3.42615,2.80174 -5.77843,4.97639 -7.05415,6.52663 -0.54635,0.61364 -1.10616,1.35377 -1.67404,2.2204 z" />
    <rect
       id="rect2562"
       style="clip-rule:evenodd;fill:#ff000f;fill-rule:evenodd;stroke:none;stroke-width:0.646419px;stroke-linecap:round;stroke-linejoin:round;stroke-miterlimit:1.5"
       height="79.374954"
       width="79.374992"
       y="190.36862"
       x="194.68903" />
    <rect
       id="rect2566"
       style="clip-rule:evenodd;fill:#ffffff;fill-rule:evenodd;stroke-width:0.208353;stroke-linecap:round;stroke-linejoin:round;stroke-miterlimit:1.5"
       height="67.603577"
       width="67.48008"
       y="196.25432"
       x="200.6366" />
    <path
       id="path2572"
       style="clip-rule:evenodd;fill-rule:nonzero;stroke-width:2.69139;stroke-linecap:round;stroke-linejoin:round;stroke-miterlimit:1.5"
       d="M 232.17215,250.14058 V 219.0469 c -5.7865,4.4408 -9.68095,6.6612 -11.68604,6.6612 -0.95544,0 -1.80592,-0.37949 -2.54606,-1.14385 -0.74013,-0.76166 -1.10885,-1.64444 -1.10885,-2.64833 0,-1.15999 0.36334,-2.01585 1.0927,-2.56221 0.72937,-0.54635 2.01586,-1.25149 3.85946,-2.11812 2.75868,-1.29725 4.96024,-2.66448 6.61276,-4.099 1.65252,-1.4372 3.11394,-3.04127 4.38967,-4.81759 1.27572,-1.77901 2.10736,-2.87172 2.49492,-3.28081 0.38756,-0.41179 1.11693,-0.61633 2.1881,-0.61633 1.20575,0 2.17465,0.4683 2.90402,1.40221 0.72936,0.93392 1.0927,2.22041 1.0927,3.85946 v 39.12481 c 0,4.57806 -1.56101,6.86574 -4.68033,6.86574 -1.39145,0 -2.50569,-0.46561 -3.3481,-1.39952 -0.8451,-0.93392 -1.26495,-2.31191 -1.26495,-4.13398 z" />
    <rect
       x="-81.113693"
       y="99.45356"
       width="79.374992"
       height="79.374954"
       style="clip-rule:evenodd;fill:#ff000f;fill-rule:evenodd;stroke:none;stroke-width:0.646419px;stroke-linecap:round;stroke-linejoin:round;stroke-miterlimit:1.5"
       id="rect744-0" />
    <rect
       x="-75.166122"
       y="105.33926"
       width="67.48008"
       height="67.603577"
       style="clip-rule:evenodd;fill:#ffffff;fill-rule:evenodd;stroke-width:0.208353;stroke-linecap:round;stroke-linejoin:round;stroke-miterlimit:1.5"
       id="rect748-8" />
    <path
       d="M -41.639853,160.07688 V 128.9832 c -5.786498,4.4408 -9.680946,6.6612 -11.686035,6.6612 -0.955445,0 -1.805925,-0.37949 -2.546059,-1.14385 -0.740133,-0.76166 -1.108854,-1.64444 -1.108854,-2.64833 0,-1.15999 0.363338,-2.01585 1.092706,-2.56221 0.729368,-0.54635 2.015854,-1.25149 3.859459,-2.11812 2.75868,-1.29725 4.960241,-2.66448 6.612757,-4.099 1.652516,-1.4372 3.113943,-3.04127 4.389664,-4.81759 1.275721,-1.77901 2.107362,-2.87172 2.494923,-3.28081 0.387561,-0.41179 1.116929,-0.61633 2.188104,-0.61633 1.205744,0 2.174646,0.4683 2.904014,1.40221 0.729368,0.93392 1.092706,2.22041 1.092706,3.85946 v 39.12481 c 0,4.57806 -1.561008,6.86574 -4.680335,6.86574 -1.391451,0 -2.505688,-0.46561 -3.348094,-1.39952 -0.845098,-0.93392 -1.264956,-2.31191 -1.264956,-4.13398 z"
       style="clip-rule:evenodd;fill-rule:nonzero;stroke-width:2.69139;stroke-linecap:round;stroke-linejoin:round;stroke-miterlimit:1.5"
       id="path754-0" />
  </g>
</svg>
