<?xml version="1.0" encoding="UTF-8" standalone="no"?>
<svg
   xmlns:dc="http://purl.org/dc/elements/1.1/"
   xmlns:cc="http://creativecommons.org/ns#"
   xmlns:rdf="http://www.w3.org/1999/02/22-rdf-syntax-ns#"
   xmlns:svg="http://www.w3.org/2000/svg"
   xmlns="http://www.w3.org/2000/svg"
   xmlns:sodipodi="http://sodipodi.sourceforge.net/DTD/sodipodi-0.dtd"
   xmlns:inkscape="http://www.inkscape.org/namespaces/inkscape"
   sodipodi:docname="2018-LT-04_beaver1.svg"
   inkscape:version="1.0 (4035a4fb49, 2020-05-01)"
   id="svg1055"
   version="1.1"
   viewBox="0 0 25.029789 16.320126"
   height="16.320126mm"
   width="25.029789mm">
  <defs
     id="defs1049" />
  <sodipodi:namedview
     inkscape:window-maximized="1"
     inkscape:window-y="222"
     inkscape:window-x="-8"
     inkscape:window-height="987"
     inkscape:window-width="1680"
     fit-margin-bottom="0"
     fit-margin-right="0"
     fit-margin-left="0"
     fit-margin-top="0"
     showgrid="false"
     inkscape:document-rotation="0"
     inkscape:current-layer="layer1"
     inkscape:document-units="mm"
     inkscape:cy="430.84118"
     inkscape:cx="270.15753"
     inkscape:zoom="0.35"
     inkscape:pageshadow="2"
     inkscape:pageopacity="0.0"
     borderopacity="1.0"
     bordercolor="#666666"
     pagecolor="#ffffff"
     id="base" />
  <metadata
     id="metadata1052">
    <rdf:RDF>
      <cc:Work
         rdf:about="">
        <dc:format>image/svg+xml</dc:format>
        <dc:type
           rdf:resource="http://purl.org/dc/dcmitype/StillImage" />
        <dc:title></dc:title>
      </cc:Work>
    </rdf:RDF>
  </metadata>
  <g
     transform="translate(-34.354153,-34.173271)"
     id="layer1"
     inkscape:groupmode="layer"
     inkscape:label="Ebene 1">
    <g
       id="g1838"
       transform="matrix(0.35417384,0.16206072,-0.16206072,0.35417384,50.26415,-6.2317251)">
      <path
         inkscape:connector-curvature="0"
         style="fill:#96604d;fill-opacity:1;fill-rule:evenodd;stroke:#2e2e2d;stroke-width:0.783161px;stroke-linecap:round;stroke-linejoin:round;stroke-miterlimit:4;stroke-dasharray:none;stroke-opacity:1"
         d="m 61.620236,123.93291 c 1.058325,-0.254 1.862651,-2.11665 2.391815,-2.37065 0,0 1.058325,-1.58749 1.841486,-2.11665 0.275164,0 4.508466,-2.64581 4.508466,-2.64581 1.312323,-1.58749 -2.116651,-3.70414 -4.508466,-1.58749 -1.058325,1.05832 -0.529164,-0.27517 -1.587489,1.58749 -0.253997,0.254 -2.116651,1.84148 -2.370648,2.89981 -0.275164,0.52916 -2.116651,3.70414 -0.275164,3.9793 z"
         id="path1694" />
      <path
         inkscape:connector-curvature="0"
         style="fill:none;stroke:#2e2e2d;stroke-width:0.465663px;stroke-linecap:round;stroke-linejoin:round;stroke-miterlimit:4;stroke-dasharray:none;stroke-opacity:1"
         d="m 69.303678,114.40798 c -0.529162,0 -2.391815,0.27516 -2.645815,1.33349 0,-0.27516 0,-0.27516 0.254,-0.52916"
         id="path1696" />
      <path
         inkscape:connector-curvature="0"
         style="fill:none;stroke:#2e2e2d;stroke-width:0.465663px;stroke-linecap:round;stroke-linejoin:round;stroke-miterlimit:4;stroke-dasharray:none;stroke-opacity:1"
         d="m 70.086839,114.93714 -2.116651,0.52917"
         id="path1698" />
      <path
         inkscape:connector-curvature="0"
         style="fill:none;stroke:#2e2e2d;stroke-width:0.465663px;stroke-linecap:round;stroke-linejoin:round;stroke-miterlimit:4;stroke-dasharray:none;stroke-opacity:1"
         d="m 70.616,115.46631 -2.11665,0.80432"
         id="path1700" />
      <path
         inkscape:connector-curvature="0"
         style="fill:#96604d;fill-opacity:1;fill-rule:evenodd;stroke:#2e2e2d;stroke-width:0.783161px;stroke-linecap:round;stroke-linejoin:round;stroke-miterlimit:4;stroke-dasharray:none;stroke-opacity:1"
         d="m 38.337075,117.32896 c -0.529164,-0.80433 0.275164,-2.39182 0.275164,-3.17498 0,0 0.253997,-1.86265 0,-2.64581 0,-0.52916 -1.058326,-5.29163 -1.058326,-5.29163 0.253998,-1.86265 4.233302,-1.05832 4.487299,2.37065 0,1.33349 0.275167,0.27517 -0.253997,2.11665 0,0.52916 0,2.92098 -0.529162,3.70414 -0.275166,0.52916 -1.058325,3.9793 -2.645814,2.92098 z"
         id="path1702" />
      <path
         inkscape:connector-curvature="0"
         style="fill:none;stroke:#2e2e2d;stroke-width:0.465663px;stroke-linecap:round;stroke-linejoin:round;stroke-miterlimit:4;stroke-dasharray:none;stroke-opacity:1"
         d="m 39.924561,105.41221 c 0.529164,0.52917 1.58749,2.11665 1.058326,2.92098 0,-0.27516 0,-0.27516 0.275166,-0.52916"
         id="path1704" />
      <path
         inkscape:connector-curvature="0"
         style="fill:none;stroke:#2e2e2d;stroke-width:0.465663px;stroke-linecap:round;stroke-linejoin:round;stroke-miterlimit:4;stroke-dasharray:none;stroke-opacity:1"
         d="m 39.1414,105.15822 1.058328,1.84148"
         id="path1706" />
      <path
         inkscape:connector-curvature="0"
         style="fill:none;stroke:#2e2e2d;stroke-width:0.465663px;stroke-linecap:round;stroke-linejoin:round;stroke-miterlimit:4;stroke-dasharray:none;stroke-opacity:1"
         d="m 38.337075,105.15822 0.804325,2.11665"
         id="path1708" />
      <path
         inkscape:connector-curvature="0"
         style="fill:#96604d;fill-opacity:1;fill-rule:evenodd;stroke:#2e2e2d;stroke-width:0.783161px;stroke-linecap:round;stroke-linejoin:round;stroke-miterlimit:4;stroke-dasharray:none;stroke-opacity:1"
         d="m 67.716188,105.68738 c -1.333489,0.78316 0,5.29163 -1.333489,8.19144 -0.253998,1.05832 -0.783162,1.86265 -1.058326,2.64581 -0.529161,1.58749 0.529164,0.80433 -0.783161,3.97931 -1.587487,3.70414 -4.508466,7.13311 -8.741767,5.01646 -3.428976,-1.58749 -10.837254,-3.42898 -12.424741,-6.34995 -3.70414,-1.58749 -3.450143,-3.42898 -3.450143,-6.87912 -0.253997,-1.84149 2.391818,-6.60395 3.450143,-7.66228 4.233302,-3.45014 1.587487,-1.86265 3.958138,-6.349949 1.333489,-2.391815 2.116651,-2.920978 2.116651,-3.174976 -0.783162,-0.529163 -0.783162,-1.058326 -0.783162,-2.116651 0.529162,-1.862653 2.370648,-1.333491 3.428974,-1.058326 1.333489,-0.529163 1.862653,-1.33349 2.920979,-1.862653 2.645814,-1.058326 5.016462,-0.529163 9.249764,1.587488 1.058325,0.529163 2.645815,1.587489 3.979304,3.174977 2.899812,3.174977 1.312323,4.508467 1.312323,7.68344 0.804328,1.05833 0.529164,3.70414 -1.841487,3.17498 z"
         id="path1716" />
      <path
         inkscape:connector-curvature="0"
         style="fill:#b67040;fill-opacity:1;fill-rule:evenodd;stroke:#2e2e2d;stroke-width:0.783161px;stroke-linecap:round;stroke-linejoin:round;stroke-miterlimit:4;stroke-dasharray:none;stroke-opacity:1"
         d="m 58.974421,89.812497 c 0.529161,-1.33349 3.45014,-0.804328 4.508466,0.529163 2.11665,-0.529163 2.899812,1.841486 3.174976,2.899812 -1.058326,-0.529163 -1.33349,-1.312324 -3.704138,-2.116651 -1.862653,-0.783161 -2.645815,-1.058326 -3.979304,-1.312324 z"
         id="path1718" />
      <path
         inkscape:connector-curvature="0"
         style="fill:none;stroke:#2e2e2d;stroke-width:0.465663px;stroke-linecap:round;stroke-linejoin:round;stroke-miterlimit:4;stroke-dasharray:none;stroke-opacity:1"
         d="m 67.441024,105.68738 c -0.529161,-0.52916 -0.253997,-0.80433 -0.529161,-0.80433"
         id="path1720" />
      <path
         inkscape:connector-curvature="0"
         style="fill:none;stroke:#2e2e2d;stroke-width:0.465663px;stroke-linecap:round;stroke-linejoin:round;stroke-miterlimit:4;stroke-dasharray:none;stroke-opacity:1"
         d="m 69.557675,100.92491 c 0,0.52917 -0.783159,2.37065 -1.312323,2.89982 h -0.275164"
         id="path1722" />
      <path
         inkscape:connector-curvature="0"
         style="fill:none;stroke:#2e2e2d;stroke-width:0.465663px;stroke-linecap:round;stroke-linejoin:round;stroke-miterlimit:4;stroke-dasharray:none;stroke-opacity:1"
         d="m 52.899633,91.653983 c -0.529164,0.275165 -1.862654,1.058326 -2.116651,1.333491 0,0 -0.275164,0.529162 -0.529164,0.529162"
         id="path1724" />
      <path
         inkscape:connector-curvature="0"
         style="fill:none;stroke:#2e2e2d;stroke-width:0.465663px;stroke-linecap:round;stroke-linejoin:round;stroke-miterlimit:4;stroke-dasharray:none;stroke-opacity:1"
         d="m 48.666331,100.12059 c 1.587487,2.39181 4.487299,4.2333 7.408278,4.2333 0.253997,0 0,0.27516 0.529164,0.80433 2.116651,2.37064 3.958137,3.42897 7.408278,3.95813 0.253997,0 0,0 0.253997,-0.25399"
         id="path1726" />
      <path
         inkscape:connector-curvature="0"
         style="fill:#c29466;fill-opacity:1;fill-rule:evenodd;stroke:none;stroke-width:0.264583"
         d="m 55.270281,90.870823 c -2.116651,1.841486 1.862653,2.899811 2.920979,2.370649 1.841486,-0.529163 5.016463,0.529162 7.408277,3.704139 1.058326,1.33349 3.174979,2.116651 3.428977,-0.253998 0.275164,-1.862653 -5.016463,-4.233302 -6.074789,-5.03763 -1.333489,-1.312323 -6.095955,-2.370649 -7.683444,-0.78316 z"
         id="path1728" />
      <path
         inkscape:connector-curvature="0"
         style="fill:none;stroke:#2e2e2d;stroke-width:0.465663px;stroke-linecap:round;stroke-linejoin:round;stroke-miterlimit:4;stroke-dasharray:none;stroke-opacity:1"
         d="m 65.324373,94.045799 c 0.275164,0 2.645815,1.841487 2.645815,2.116651"
         id="path1730" />
      <path
         inkscape:connector-curvature="0"
         style="fill:none;stroke:#2e2e2d;stroke-width:0.465663px;stroke-linecap:round;stroke-linejoin:round;stroke-miterlimit:4;stroke-dasharray:none;stroke-opacity:1"
         d="M 58.974421,91.124821 C 57.916096,90.595658 56.85777,90.34166 55.545448,90.595658"
         id="path1732" />
      <path
         inkscape:connector-curvature="0"
         style="fill:#2e2e2d;fill-opacity:1;fill-rule:evenodd;stroke:#2e2e2d;stroke-width:0.465663px;stroke-linecap:round;stroke-linejoin:round;stroke-miterlimit:4;stroke-dasharray:none;stroke-opacity:1"
         d="m 61.366236,90.066495 c 1.312325,-1.312324 7.662278,3.979304 0.529164,1.058326 -0.529164,-0.253998 -1.058325,-0.529163 -0.529164,-1.058326 z"
         id="path1734" />
      <path
         inkscape:connector-curvature="0"
         style="fill:#704333;fill-opacity:1;fill-rule:evenodd;stroke:#2e2e2d;stroke-width:0.783161px;stroke-linecap:round;stroke-linejoin:round;stroke-miterlimit:4;stroke-dasharray:none;stroke-opacity:1"
         d="m 43.628702,115.21231 c 2.645814,-0.52917 6.625116,1.84149 7.683441,1.58749 0.529164,-0.27517 5.016463,5.54562 6.349955,6.07479 2.370648,0.80432 0,6.34995 -1.058325,7.93744 -1.862654,2.39181 -3.979304,4.2333 -6.625119,5.82079 -3.704138,2.64581 -10.30809,3.45014 -14.287394,2.39181 -7.662276,-1.33349 -10.30809,-2.11665 -16.933208,-6.34995 -6.074788,-3.97931 -10.0540919,-14.0334 -2.116651,-16.67921 6.349953,-2.11665 23.029163,3.45014 26.987301,-0.78316 z"
         id="path1736" />
      <path
         inkscape:connector-curvature="0"
         style="fill:none;stroke:#2e2e2d;stroke-width:0.465663px;stroke-linecap:round;stroke-linejoin:round;stroke-miterlimit:4;stroke-dasharray:none;stroke-opacity:1"
         d="m 50.782982,118.38728 c -3.174976,3.95814 -14.287394,7.93745 -19.049859,7.93745 -5.291628,0 -8.212606,-0.80433 -12.699906,-3.17498 -0.529163,-0.27516 -0.275165,-0.52916 -0.804328,-0.52916"
         id="path1738" />
      <path
         inkscape:connector-curvature="0"
         style="fill:none;stroke:#2e2e2d;stroke-width:0.465663px;stroke-linecap:round;stroke-linejoin:round;stroke-miterlimit:4;stroke-dasharray:none;stroke-opacity:1"
         d="m 47.608006,117.0538 c -4.508469,3.9793 -15.874883,4.50846 -20.912513,2.11665 -0.783161,-0.254 -5.82079,-2.89982 -4.762464,-2.37065"
         id="path1740" />
      <path
         inkscape:connector-curvature="0"
         style="fill:none;stroke:#2e2e2d;stroke-width:0.465663px;stroke-linecap:round;stroke-linejoin:round;stroke-miterlimit:4;stroke-dasharray:none;stroke-opacity:1"
         d="m 52.899633,121.0331 c -1.58749,1.58749 -3.45014,4.2333 -5.566791,6.60395 -7.408281,7.68344 -7.662278,7.68344 -17.991535,7.15428 -0.783161,0 -1.841486,-0.52916 -2.645814,-1.05833"
         id="path1742" />
      <path
         inkscape:connector-curvature="0"
         style="fill:none;stroke:#2e2e2d;stroke-width:0.465663px;stroke-linecap:round;stroke-linejoin:round;stroke-miterlimit:4;stroke-dasharray:none;stroke-opacity:1"
         d="m 55.270281,122.87459 c -1.841487,7.15427 -4.762463,11.64158 -12.170744,14.03339"
         id="path1744" />
      <path
         inkscape:connector-curvature="0"
         style="fill:none;stroke:#2e2e2d;stroke-width:0.465663px;stroke-linecap:round;stroke-linejoin:round;stroke-miterlimit:4;stroke-dasharray:none;stroke-opacity:1"
         d="m 43.903866,117.0538 c -2.920979,3.9793 -5.03763,7.68344 -5.82079,12.6999 -0.275165,2.39182 -1.058326,4.76247 -1.058326,7.40828"
         id="path1746" />
      <path
         inkscape:connector-curvature="0"
         style="fill:none;stroke:#2e2e2d;stroke-width:0.465663px;stroke-linecap:round;stroke-linejoin:round;stroke-miterlimit:4;stroke-dasharray:none;stroke-opacity:1"
         d="m 38.612239,118.64128 c -5.291628,3.97931 -9.800095,10.32926 -8.995767,17.20838"
         id="path1748" />
      <path
         inkscape:connector-curvature="0"
         style="fill:none;stroke:#2e2e2d;stroke-width:0.465663px;stroke-linecap:round;stroke-linejoin:round;stroke-miterlimit:4;stroke-dasharray:none;stroke-opacity:1"
         d="m 32.262286,117.85812 c -4.233302,0 -15.34572,9.52493 -12.975071,14.01223"
         id="path1750" />
      <path
         inkscape:connector-curvature="0"
         style="fill:none;stroke:#2e2e2d;stroke-width:0.465663px;stroke-linecap:round;stroke-linejoin:round;stroke-miterlimit:4;stroke-dasharray:none;stroke-opacity:1"
         d="m 48.920328,118.38728 c -6.603949,9.77893 -4.233301,14.01223 -0.783161,17.46238"
         id="path1752" />
      <path
         inkscape:connector-curvature="0"
         style="fill:none;stroke:#2e2e2d;stroke-width:0.465663px;stroke-linecap:round;stroke-linejoin:round;stroke-miterlimit:4;stroke-dasharray:none;stroke-opacity:1"
         d="m 51.312143,120.50394 c -1.333489,5.29162 -0.529161,8.4666 2.645815,10.30809"
         id="path1754" />
      <path
         inkscape:connector-curvature="0"
         style="fill:none;stroke:#2e2e2d;stroke-width:0.465663px;stroke-linecap:round;stroke-linejoin:round;stroke-miterlimit:4;stroke-dasharray:none;stroke-opacity:1"
         d="m 26.970658,117.32896 c -6.095955,-1.86265 -11.64158,5.29163 -10.858419,6.07479"
         id="path1756" />
      <path
         inkscape:connector-curvature="0"
         style="fill:none;stroke:#2e2e2d;stroke-width:0.465663px;stroke-linecap:round;stroke-linejoin:round;stroke-miterlimit:4;stroke-dasharray:none;stroke-opacity:1"
         d="m 54.211955,107.80403 c -0.529161,1.31232 -1.058325,2.37065 -1.841486,3.42897 -0.529162,0.80433 -1.33349,3.97931 -0.804326,2.92098"
         id="path1758" />
    </g>
  </g>
</svg>
