<?xml version="1.0" encoding="UTF-8" standalone="no"?>
<svg
   xmlns:dc="http://purl.org/dc/elements/1.1/"
   xmlns:cc="http://creativecommons.org/ns#"
   xmlns:rdf="http://www.w3.org/1999/02/22-rdf-syntax-ns#"
   xmlns:svg="http://www.w3.org/2000/svg"
   xmlns="http://www.w3.org/2000/svg"
   xmlns:sodipodi="http://sodipodi.sourceforge.net/DTD/sodipodi-0.dtd"
   xmlns:inkscape="http://www.inkscape.org/namespaces/inkscape"
   width="140mm"
   height="60mm"
   viewBox="0 0 140.00001 60"
   version="1.1"
   id="svg8"
   inkscape:version="1.0 (4035a4fb49, 2020-05-01)"
   sodipodi:docname="2020-ID-04_taskbody.svg">
  <defs
     id="defs2" />
  <sodipodi:namedview
     inkscape:window-maximized="1"
     inkscape:window-y="222"
     inkscape:window-x="-8"
     inkscape:window-height="987"
     inkscape:window-width="1680"
     id="base"
     pagecolor="#ffffff"
     bordercolor="#666666"
     borderopacity="1.0"
     inkscape:pageopacity="0.0"
     inkscape:pageshadow="2"
     inkscape:zoom="1.979899"
     inkscape:cx="269.37361"
     inkscape:cy="233.66422"
     inkscape:document-units="mm"
     inkscape:current-layer="layer1"
     inkscape:document-rotation="0"
     showgrid="false"
     inkscape:snap-global="false"
     fit-margin-top="0"
     fit-margin-left="0"
     fit-margin-right="0"
     fit-margin-bottom="0" />
  <metadata
     id="metadata5">
    <rdf:RDF>
      <cc:Work
         rdf:about="">
        <dc:format>image/svg+xml</dc:format>
        <dc:type
           rdf:resource="http://purl.org/dc/dcmitype/StillImage" />
        <dc:title />
      </cc:Work>
    </rdf:RDF>
  </metadata>
  <g
     inkscape:label="Ebene 1"
     inkscape:groupmode="layer"
     id="layer1"
     transform="translate(-11.689024,-76.978859)">
    <path
       style="fill:none;stroke:#666666;stroke-width:1.5;stroke-linecap:round;stroke-linejoin:round;stroke-miterlimit:4;stroke-dasharray:none;stroke-opacity:1"
       d="m 12.439024,113.77964 7.808195,-7.89 c 12.13292,-12.260016 30.434902,-13.999818 36.167074,1.40781 9.741895,26.18548 33.101269,23.15341 41.469382,0 7.098205,-19.639722 21.588075,-21.735647 27.600465,-29.39556"
       id="path833"
       sodipodi:nodetypes="csssc" />
    <path
       sodipodi:nodetypes="csszc"
       id="path833-2"
       d="m 16.727946,95.468648 c 1.205422,4.729972 1.913185,6.050682 3.62926,9.879022 10.972686,24.47861 30.251599,16.70837 37.350806,5.58254 11.369501,-17.81819 26.263726,-16.667015 37.654943,3.44351 11.391215,20.11054 50.232915,1.82408 51.545705,14.34642"
       style="fill:none;stroke:#666666;stroke-width:1.5;stroke-linecap:round;stroke-linejoin:round;stroke-miterlimit:4;stroke-dasharray:none;stroke-opacity:1" />
    <path
       style="fill:none;stroke:#44aa00;stroke-width:0.964999;stroke-linecap:round;stroke-linejoin:round;stroke-miterlimit:4;stroke-dasharray:none;stroke-opacity:1;font-variation-settings:normal;opacity:1;vector-effect:none;fill-opacity:1;stroke-dashoffset:0;stop-color:#000000;stop-opacity:1"
       d="m 29.103318,99.533803 c 0.985697,-1.915508 -3.065499,-0.504877 -1.819177,0.733387 0.877747,0.87207 3.514087,0.0298 2.276983,-1.129654 -0.949494,-0.889874 -2.806306,0.0864 -1.554131,0.981794 0.253884,0.18153 1.440344,0.44223 1.31318,-0.207007 -0.267335,-1.364894 -2.001808,-0.622797 -1.036087,0.277977 0.339587,0.31675 0.688792,-0.568817 0.33733,-0.757034 -0.273441,-0.14645 -0.712295,0.556697 -0.518043,0.715634 0.15286,0.12507 0.637572,-0.343267 0.445759,-0.390347 -0.227674,-0.0559 -0.144571,1.074627 -0.144571,1.182877 0,1.58308 -0.108426,3.15834 -0.108426,4.71378"
       id="path850" />
    <path
       style="fill:none;stroke:#aa0000;stroke-width:0.964999;stroke-linecap:round;stroke-linejoin:round;stroke-miterlimit:4;stroke-dasharray:none;stroke-opacity:1;font-variation-settings:normal;opacity:1;vector-effect:none;fill-opacity:1;stroke-dashoffset:0;stop-color:#000000;stop-opacity:1"
       d="m 26.607637,114.18988 c -1.014755,0.36658 -0.04939,3.0115 0.951757,2.45448 1.712391,-0.95274 0.690602,-5.19682 -1.457752,-1.8453 -0.487509,0.76054 1.189986,1.57611 1.542085,1.15923 0.530818,-0.62849 -0.269018,-1.619 -0.891519,-1.09417 -0.883306,0.74473 0.517793,1.45929 0.855374,1.03503 0.572646,-0.71968 -0.393194,-1.26336 -0.542136,-0.70973 -0.190082,0.70652 1.082437,0.17336 0.746945,-0.56779 -0.106495,-0.23526 -0.566904,0.0904 -0.62647,0.23658 -0.05695,0.13978 0.627232,0.38549 0.686708,0.006 0.110485,-0.70511 -0.09638,-1.66552 -0.09638,-2.40717 0,-1.63944 0.228904,-3.37895 0.228904,-4.94444"
       id="path854" />
    <path
       style="fill:none;stroke:#aa0000;stroke-width:0.964999;stroke-linecap:round;stroke-linejoin:round;stroke-miterlimit:4;stroke-dasharray:none;stroke-opacity:1;font-variation-settings:normal;opacity:1;vector-effect:none;fill-opacity:1;stroke-dashoffset:0;stop-color:#000000;stop-opacity:1"
       d="m 37.390181,95.382081 c -0.873824,-0.821803 -2.845128,1.215637 -1.770986,1.934007 1.820672,1.217651 3.279246,-1.10596 1.517988,-1.50225 -0.21259,-0.0478 -0.690163,-0.19685 -0.903565,-0.10646 -0.2643,0.11194 -0.319706,0.29164 -0.361426,0.53229 -0.269269,1.553227 2.225096,1.578687 2.204699,0.46724 -0.03855,-2.100617 -2.998592,-0.6597 -2.34927,0.19518 0.618212,0.813907 2.452195,0.12357 1.517989,-0.92857 -0.377079,-0.42468 -1.398172,0.94266 -1.036087,1.17697 0.135675,0.0878 0.282127,0.0897 0.43371,0.0946 1.420675,0.0465 -0.615651,-1.32724 -0.120476,-0.35486 0.166452,0.32686 0.705761,-0.29391 0.493951,-0.3667 -0.421992,-0.14501 -0.134006,0.921827 -0.240951,1.289347 -0.282921,0.972234 -0.621136,6.736605 -0.481901,7.511275"
       id="path856" />
    <path
       style="fill:none;stroke:#44aa00;stroke-width:0.964999;stroke-linecap:round;stroke-linejoin:round;stroke-miterlimit:4;stroke-dasharray:none;stroke-opacity:1;font-variation-settings:normal;opacity:1;vector-effect:none;fill-opacity:1;stroke-dashoffset:0;stop-color:#000000;stop-opacity:1"
       d="m 35.751717,119.48328 c -0.566973,-0.18788 -0.467217,-0.31094 -0.903566,0.23066 -0.176265,0.21878 -0.494831,0.86261 -0.349379,1.15922 0.852802,1.73905 2.825887,-0.85041 1.252945,-1.38988 -0.993074,-0.3406 -1.757551,1.16689 -0.819232,1.70926 0.963131,0.55671 2.261941,-0.25031 1.469797,-1.36623 -0.996582,-1.40392 -2.619023,0.82802 -0.867421,1.23611 0.441302,0.10282 0.697596,0.14288 0.951754,-0.26023 0.927458,-1.471 -2.22609,-1.18688 -1.722797,-0.23658 0.194262,0.3668 0.715788,0.5434 0.963803,0.21292 0.106945,-0.1425 -0.02692,-0.79341 -0.228902,-0.64467 -0.386527,0.28463 0.64678,0.63904 0.445757,-0.18335 -0.192246,-0.78648 0.253,-3.07998 0.253,-4.20514 0,-0.95849 0.239223,-1.91325 0.325281,-2.8744 0.129527,-1.44661 0.132525,-4.1415 0.132525,-5.12188"
       id="path858" />
    <path
       style="fill:none;stroke:#000080;stroke-width:0.964999;stroke-linecap:round;stroke-linejoin:round;stroke-miterlimit:4;stroke-dasharray:none;stroke-opacity:1;font-variation-settings:normal;opacity:1;vector-effect:none;fill-opacity:1;stroke-dashoffset:0;stop-color:#000000;stop-opacity:1"
       d="m 46.052358,96.718738 c 0.545098,-1.931128 -2.650548,-0.58527 -2.072177,0.674237 0.727493,1.584241 4.042799,1.277124 2.301079,-1.046847 -0.366792,-0.48941 -2.649664,0.60626 -1.614368,1.419457 1.171974,0.920554 2.78889,0.178027 1.855319,-1.383967 -0.735126,-1.229976 -2.657102,0.54899 -2.132412,1.076417 0.734978,0.738817 3.049127,0.837647 1.99989,-0.822097 -0.538742,-0.85222 -2.22922,0.0663 -1.867368,0.727467 0.186478,0.34076 1.046916,0.46338 1.349324,0.23066 1.138526,-0.876157 -1.036703,-1.545407 -0.963803,0.0651 0.01585,0.350047 1.463995,0.0506 0.867424,-0.697897 -0.503677,-0.6319 -0.205526,1.128624 0.04819,0.443577 0.06696,-0.180807 -0.260622,-0.364147 -0.289139,-0.266147 -0.145455,0.499837 0.114657,1.474661 -0.01204,2.075948 -0.203806,0.967174 -0.230089,2.217294 -0.289139,3.217434 -0.116464,1.97253 -0.168667,4.14826 -0.168667,6.00312"
       id="path860" />
    <path
       style="fill:none;stroke:#ffcc00;stroke-width:0.964999;stroke-linecap:round;stroke-linejoin:round;stroke-miterlimit:4;stroke-dasharray:none;stroke-opacity:1;font-variation-settings:normal;opacity:1;vector-effect:none;fill-opacity:1;stroke-dashoffset:0;stop-color:#000000;stop-opacity:1"
       d="m 45.618645,120.37044 c -0.249372,-2.297 -2.493996,0.0918 -1.578226,0.88125 0.872662,0.75232 2.835648,-0.25458 2.09627,-1.27752 -1.782445,-2.46603 -2.835301,0.99468 -1.325226,1.53775 1.367229,0.4917 1.916178,-1.98824 0.915611,-2.28296 -2.317485,-0.68263 -1.677667,2.96435 -0.168666,2.56685 0.674092,-0.17757 1.198213,-2.22241 0.277095,-2.34802 -1.985012,-0.27069 -0.961498,1.41224 -0.650568,1.07642 0.309303,-0.33405 -0.259635,-0.94224 -0.385522,-0.71564 -0.251938,0.4535 0.727515,0.71332 0.819232,0.56187 0.150903,-0.24918 -0.337301,-0.93216 -0.361426,-1.21246 -0.09984,-1.15999 -0.06552,-2.33126 -0.144568,-3.49541 -0.08658,-1.27515 -0.252206,-4.00966 -0.01204,-5.11005"
       id="path862" />
    <path
       style="fill:none;stroke:#ffcc00;stroke-width:0.964999;stroke-linecap:round;stroke-linejoin:round;stroke-miterlimit:4;stroke-dasharray:none;stroke-opacity:1;font-variation-settings:normal;opacity:1;vector-effect:none;fill-opacity:1;stroke-dashoffset:0;stop-color:#000000;stop-opacity:1"
       d="m 54.353107,101.64248 c -1.003998,-0.62833 -1.881169,0.82818 -1.2168,1.69153 0.564565,0.73365 1.658554,-0.19541 1.493893,-0.93448 0.504976,-0.69181 -0.242501,-0.2998 -0.301186,-0.47907 -0.02894,-0.0884 0.115409,-0.26031 0.0241,-0.27798 -0.152887,-0.0296 -0.269925,0.1661 -0.421664,0.20109 -0.295606,0.0682 -0.594921,-0.1353 -0.86742,0.0769 -0.931135,0.72508 1.292648,2.35262 1.843272,1.4786 1.272604,-2.02002 -2.690995,-1.80157 -1.951701,-0.27206 0.444751,0.92014 2.442665,-0.0468 1.90351,-1.01728 -0.581123,-1.04605 -1.520409,0.22763 -1.397513,0.98179 0.03459,0.21227 0.274688,-0.76106 0.216855,-0.71564 -0.4983,0.3914 0.15694,0.82139 0.108429,0.92856 -0.522663,1.15464 -2.276986,4.20526 -2.276986,5.5004"
       id="path866" />
    <path
       style="fill:none;stroke:#000080;stroke-width:0.964999;stroke-linecap:round;stroke-linejoin:round;stroke-miterlimit:4;stroke-dasharray:none;stroke-opacity:1;font-variation-settings:normal;opacity:1;vector-effect:none;fill-opacity:1;stroke-dashoffset:0;stop-color:#000000;stop-opacity:1"
       d="m 52.88331,117.13526 c -0.09771,-0.43172 -0.19105,-1.55216 -1.192707,-1.10008 -1.254382,0.56614 -0.0604,2.75691 1.084278,2.2179 0.827045,-0.38945 0.940454,-2.26631 -0.04819,-2.51954 -1.772185,-0.45391 -0.53221,3.22899 0.493947,0.94631 0.577274,-1.28415 -1.121841,-1.72434 -1.614371,-0.56187 -0.218884,0.51661 0.111046,1.27354 0.746948,0.89307 0.42748,-0.25576 0.432721,-1.47698 -0.180713,-1.52 -0.977995,-0.0686 -0.204808,2.1433 -0.204808,0.36078 0,-0.20114 -0.06833,-0.42231 -0.0241,-0.75113 0.179779,-1.33647 0.240951,-2.5088 0.240951,-3.80297 0,-0.75369 0.06024,-1.74474 0.06024,-1.74474"
       id="path868"
       sodipodi:nodetypes="cssssssssssc" />
    <path
       style="fill:none;stroke:#44aa00;stroke-width:0.964999;stroke-linecap:round;stroke-linejoin:round;stroke-miterlimit:4;stroke-dasharray:none;stroke-opacity:1;font-variation-settings:normal;opacity:1;vector-effect:none;fill-opacity:1;stroke-dashoffset:0;stop-color:#000000;stop-opacity:1"
       d="m 63.545375,104.76823 c 0.569381,-0.8337 -0.903901,-2.14035 -1.445702,-1.07642 -0.620238,1.21795 1.238033,2.84863 1.999891,1.51408 0.784833,-1.37479 -0.923629,-2.459 -1.602322,-1.69743 -1.140839,1.28015 0.9853,3.0733 1.698701,1.41946 0.684313,-1.58641 -2.473057,-1.64673 -1.915557,0.1242 0.233688,0.74232 0.976268,0.65794 1.433656,0.15377 0.192648,-0.21235 0.22855,-0.42665 0.252997,-0.6979 0.111728,-1.2396 -1.917861,-0.0352 -1.240896,0.52639 0.829874,0.68837 1.155245,-1.07578 0.457806,-0.73339 -0.176752,0.0868 0.269031,0.29336 0.361426,0.46724 0.07795,0.14669 0.0394,0.71601 0.132525,0.95222 0.2535,0.64299 0.588602,1.12766 0.710803,1.82755 0.238527,1.36614 0.54384,3.41036 0.891519,4.40032"
       id="path870" />
    <path
       style="fill:none;stroke:#aa0000;stroke-width:0.964999;stroke-linecap:round;stroke-linejoin:round;stroke-miterlimit:4;stroke-dasharray:none;stroke-opacity:1;font-variation-settings:normal;opacity:1;vector-effect:none;fill-opacity:1;stroke-dashoffset:0;stop-color:#000000;stop-opacity:1"
       d="m 64.629654,119.30584 c -0.834843,-2.493 -2.763909,1.32214 -0.722853,1.33666 0.492848,0.003 0.642708,0.0465 1.144516,-0.27798 1.284042,-0.83023 -0.688686,-2.44287 -1.734843,-1.73292 -1.51062,1.02515 2.686042,3.84592 1.939652,0.88125 -0.227822,-0.90491 -2.226286,-1.6568 -2.325174,-0.41401 -0.09789,1.23021 1.896621,1.57888 1.843273,0.79845 -0.130543,-1.90979 -1.404888,-0.0655 -1.156563,0.14786 0.354388,0.30445 1.002509,-0.70788 1.011992,-0.73931 0.107833,-0.35733 -0.520872,-0.95646 -0.54214,-0.63284 -0.0209,0.31824 0.199602,0.19122 0.240951,-0.0651 -0.309636,-2.13593 0.869808,-4.28888 0.903562,-6.12732"
       id="path872"
       sodipodi:nodetypes="cccsssscsscc" />
    <path
       style="fill:none;stroke:#aa0000;stroke-width:0.964999;stroke-linecap:round;stroke-linejoin:round;stroke-miterlimit:4;stroke-dasharray:none;stroke-opacity:1;font-variation-settings:normal;opacity:1;vector-effect:none;fill-opacity:1;stroke-dashoffset:0;stop-color:#000000;stop-opacity:1"
       d="m 72.71355,98.132272 c -0.548058,-0.918714 -0.316386,-1.079434 -1.56618,-0.792524 -1.941086,0.445617 -0.376047,3.450772 1.2168,2.596415 0.813356,-0.43627 0.647116,-2.504868 -0.469852,-2.300698 -3.190489,0.583187 -0.450352,2.461905 0.265044,2.040458 0.178093,-0.10491 0.287298,-0.401527 0.265046,-0.591437 -0.217389,-1.855308 -1.963748,-1.279871 -1.963748,-0.289797 0,0.395447 0.04564,0.469377 0.361426,0.674237 1.834113,1.189814 1.489009,-1.299064 0.807186,-1.123734 -1.275916,0.328097 0.662834,2.004538 0.542139,0.626924 -0.06897,-0.787154 -0.524838,0.15826 -0.566235,0.42584 -0.143108,0.925024 0.0013,2.022734 0.108429,2.951284 0.292367,2.5357 0.04485,5.02839 -0.01204,7.57044 -0.01122,0.50088 0.216046,1.41453 0.180714,1.71518"
       id="path874" />
    <path
       style="fill:none;stroke:#44aa00;stroke-width:0.964999;stroke-linecap:round;stroke-linejoin:round;stroke-miterlimit:4;stroke-dasharray:none;stroke-opacity:1;font-variation-settings:normal;opacity:1;vector-effect:none;fill-opacity:1;stroke-dashoffset:0;stop-color:#000000;stop-opacity:1"
       d="m 70.207663,123.62928 c -0.754563,-2.04544 -2.550046,1.08753 -1.168612,1.70335 2.064785,0.92044 3.285948,-2.13439 0.795137,-2.6674 -0.462204,-0.0989 -0.850892,-0.10064 -1.168609,0.32529 -0.990217,1.32748 1.229127,3.42111 2.144461,1.98133 1.033756,-1.62606 -1.197544,-3.40951 -2.023986,-1.40172 -0.334386,0.81237 0.881843,1.91561 1.373418,0.8221 0.177519,-0.39488 -0.235839,-1.78609 -0.746946,-1.20062 -0.183202,0.20985 0.226566,-0.51004 0.313235,-0.77479 0.235075,-0.71807 0.192442,-1.4374 0.337331,-2.17059 0.332594,-1.68302 0.39325,-2.5701 0.578281,-4.20514 0.103235,-0.91224 0.567145,-1.68993 0.626473,-2.54911"
       id="path876" />
    <path
       style="fill:none;stroke:#000080;stroke-width:0.964999;stroke-linecap:round;stroke-linejoin:round;stroke-miterlimit:4;stroke-dasharray:none;stroke-opacity:1;font-variation-settings:normal;opacity:1;vector-effect:none;fill-opacity:1;stroke-dashoffset:0;stop-color:#000000;stop-opacity:1"
       d="m 81.472105,98.924799 c -0.25373,-1.938331 -4.301112,-1.153754 -1.542084,1.626461 1.341154,1.35145 3.546673,-1.852111 0.903565,-2.176498 -0.948261,-0.11638 -1.849141,1.245771 -1.542084,2.093688 0.330557,0.91282 2.42757,0.87215 2.734791,0 0.925222,-2.626515 -3.05214,-1.383414 -2.301078,-0.29572 0.107638,0.15589 0.360076,0.24126 0.53009,0.27798 1.373997,0.29679 0.665776,-1.469354 0.228904,-1.111904 -1.528424,1.250554 1.195607,1.722294 0.674661,0.443577 -0.198485,-0.487197 -0.817782,0.18426 -0.855374,0.467237 -0.05046,0.37981 0.37125,-0.0885 0.325284,0.15969 -0.127235,0.68708 -0.26044,1.35387 -0.421664,2.03456 -0.197559,0.83408 -0.160393,1.68203 -0.325284,2.51953 -0.393433,1.99831 -1.02404,4.07746 -1.02404,6.13325"
       id="path878" />
    <path
       style="fill:none;stroke:#ffcc00;stroke-width:0.964999;stroke-linecap:round;stroke-linejoin:round;stroke-miterlimit:4;stroke-dasharray:none;stroke-opacity:1;font-variation-settings:normal;opacity:1;vector-effect:none;fill-opacity:1;stroke-dashoffset:0;stop-color:#000000;stop-opacity:1"
       d="m 79.231264,124.80624 c -0.265044,-0.18729 -0.482478,-0.47485 -0.795136,-0.56187 -1.387684,-0.38621 -1.558378,2.05187 -0.734899,2.65557 0.999268,0.73258 3.023029,-0.41583 2.216745,-1.66194 -0.260215,-0.40217 -0.197585,-0.15843 -0.68671,-0.43176 -0.665543,-0.37191 -0.420132,-0.44341 -0.951754,-0.50272 -1.000844,-0.11167 -1.16791,1.36717 -0.710806,1.98133 1.148493,1.54308 2.863676,-0.45687 2.662505,-1.78024 -0.128958,-0.84834 -3.815884,-0.0879 -2.927548,1.21245 1.364387,1.99725 2.0501,-0.13643 1.74689,-0.39035 -0.324149,-0.27146 -1.188675,0.59224 -0.843328,0.8635 0.351232,0.27589 0.228053,-2.66847 0.228905,-2.74428 0.01505,-1.3378 -0.07412,-7.37621 0.481901,-8.52266"
       id="path880" />
    <path
       style="fill:none;stroke:#44aa00;stroke-width:0.964999;stroke-linecap:round;stroke-linejoin:round;stroke-miterlimit:4;stroke-dasharray:none;stroke-opacity:1;font-variation-settings:normal;opacity:1;vector-effect:none;fill-opacity:1;stroke-dashoffset:0;stop-color:#000000;stop-opacity:1"
       d="m 89.772857,105.69679 c 0.09808,-1.59565 -2.155235,-2.03181 -2.433601,-0.33121 -0.218641,1.33573 2.510163,2.64478 2.674551,-0.68015 0.04278,-0.86522 -3.507443,-0.49245 -2.120365,1.46677 0.657976,0.92938 1.863455,0.70529 2.252887,-0.36669 0.389144,-1.07119 -0.632264,-2.36297 -1.626415,-1.40763 -0.554416,0.53277 -0.997683,2.01626 0.373473,1.67969 0.255524,-0.0627 0.242742,-0.35162 0.289142,-0.5737 0.192693,-0.92233 -0.954537,-0.28093 -0.674664,0.16561 0.358471,0.57194 0.951751,-0.67735 0.469855,-0.62102 -0.340492,0.0398 -0.539501,0.56359 -0.602377,0.85168 -0.09973,0.45695 0.393544,0.0514 0.385522,0.20109 -0.03089,0.57621 -0.412083,1.31824 -0.542139,1.88669 -0.340659,1.48895 -1.060183,3.87923 -1.060183,5.37029"
       id="path882" />
    <path
       style="fill:none;stroke:#aa0000;stroke-width:0.964999;stroke-linecap:round;stroke-linejoin:round;stroke-miterlimit:4;stroke-dasharray:none;stroke-opacity:1;font-variation-settings:normal;opacity:1;vector-effect:none;fill-opacity:1;stroke-dashoffset:0;stop-color:#000000;stop-opacity:1"
       d="m 89.025909,120.55378 c 0.38644,-2.15802 -2.905363,-1.17806 -1.879415,0.4081 0.964695,1.49145 3.187171,1.2948 2.698647,-0.75705 -0.271182,-1.139 -3.044098,-0.52952 -2.023983,0.83985 1.193712,1.6024 2.939322,-0.14324 1.90351,-1.07051 -0.786281,-0.70389 -2.711516,0.81977 -1.03609,1.3544 0.792639,0.25293 0.418971,-1.52067 0.0241,-1.75066 -0.291727,-0.16992 -1.021496,0.67507 -0.843328,0.73338 1.581296,0.51753 -0.676492,-5.47232 -0.722852,-5.66009"
       id="path884" />
    <path
       style="fill:none;stroke:#ffcc00;stroke-width:0.964999;stroke-linecap:round;stroke-linejoin:round;stroke-miterlimit:4;stroke-dasharray:none;stroke-opacity:1;font-variation-settings:normal;opacity:1;vector-effect:none;fill-opacity:1;stroke-dashoffset:0;stop-color:#000000;stop-opacity:1"
       d="m 99.436181,101.69775 c -1.554422,3.02386 2.539749,3.65676 1.758939,0.84576 -0.0837,-0.3013 -0.41926,-0.7521 -0.71081,-0.88716 -2.259045,-1.04654 -2.907375,3.30235 0.0602,2.28888 1.10363,-0.3769 1.11357,-2.69301 -0.19276,-2.34211 -2.097606,0.56346 -0.708726,2.84848 0.26505,1.78615 0.41716,-0.4551 -0.15423,-1.18983 -0.698758,-1.04685 -0.294468,0.0773 -0.26951,0.65562 -0.108429,0.82211 0.672217,0.69475 0.346817,-1.14577 0.132525,-0.51456 -0.126781,0.37344 0.668062,0.31379 0.409612,0.0178 -0.0986,-0.113 -0.13701,0.11559 -0.0964,0.17743 0.18996,0.28908 0.61968,0.53655 0.87947,0.75704 0.68569,0.58196 2.96746,2.07902 3.27693,2.57277"
       id="path886" />
    <path
       style="fill:none;stroke:#44aa00;stroke-width:0.964999;stroke-linecap:round;stroke-linejoin:round;stroke-miterlimit:4;stroke-dasharray:none;stroke-opacity:1;font-variation-settings:normal;opacity:1;vector-effect:none;fill-opacity:1;stroke-dashoffset:0;stop-color:#000000;stop-opacity:1"
       d="m 106.14666,92.707871 c -0.81581,-0.594026 -1.23771,0.0051 -1.38547,0.798444 -0.37048,1.989303 3.35319,0.791811 1.86737,-1.147395 -0.85796,-1.119748 -2.80717,0.609452 -2.03604,1.797982 0.45647,0.703527 2.11322,1.243506 2.7107,0.461322 1.3221,-1.730801 -1.85008,-2.750643 -2.56613,-1.242026 -0.40382,0.850818 1.91556,1.672884 1.91556,0.189262 0,-1.082447 -1.46738,-0.30753 -1.18066,0.396264 0.15971,0.392004 1.04633,-0.500843 0.44576,-0.768871 -0.10478,-0.04676 -0.0723,0.123592 -0.0723,0.165602 0,0.696558 1.21947,1.328426 1.61437,1.821638 0.72656,0.907455 1.39872,2.633332 1.79508,3.489486"
       id="path888" />
    <path
       style="fill:none;stroke:#aa0000;stroke-width:0.964999;stroke-linecap:round;stroke-linejoin:round;stroke-miterlimit:4;stroke-dasharray:none;stroke-opacity:1;font-variation-settings:normal;opacity:1;vector-effect:none;fill-opacity:1;stroke-dashoffset:0;stop-color:#000000;stop-opacity:1"
       d="m 113.04989,86.126012 c -1.45579,-0.912612 -2.39604,1.839447 -0.84333,2.176502 1.78897,0.38834 3.50534,-2.16707 2.2047,-2.478138 -1.83689,-0.439325 -3.56747,2.083758 -1.51798,2.679227 1.38046,0.401087 2.23414,-0.392888 1.98784,-1.792066 -0.158,-0.897551 -3.27745,-0.720058 -2.78298,0.822103 0.24307,0.758103 2.72906,0.942467 2.27698,-0.236577 -0.35717,-0.931516 -1.58298,-0.613272 -1.50594,0.218834 0.0982,1.060617 1.31843,-1.312735 0.55419,-0.662413 -0.1864,0.158609 -0.24159,0.462878 -0.0602,0.632841 0.10994,0.103039 0.25676,0.203901 0.40961,0.224747 0.0781,0.01064 0.209,-0.135395 0.22891,-0.05915 0.25382,0.971953 5.37454,9.642646 5.80474,10.54568"
       id="path890"
       sodipodi:nodetypes="csssssssssssc" />
    <path
       style="fill:none;stroke:#000080;stroke-width:0.964999;stroke-linecap:round;stroke-linejoin:round;stroke-miterlimit:4;stroke-dasharray:none;stroke-opacity:1;font-variation-settings:normal;opacity:1;vector-effect:none;fill-opacity:1;stroke-dashoffset:0;stop-color:#000000;stop-opacity:1"
       d="m 122.57949,80.548725 c -0.79808,-0.754441 -2.19883,-0.303512 -2.22879,0.833929 -0.0684,2.595735 3.29198,1.943262 2.95164,-0.07689 -0.27158,-1.612045 -3.62423,-1.541219 -3.08417,0.396264 0.45989,1.649846 3.34767,1.942272 2.84322,-0.130117 -0.32734,-1.344816 -2.42465,-0.544182 -2.04808,0.591442 0.16858,0.508365 1.45982,0.823243 1.59028,0.14786 0.41187,-2.132277 -1.66945,-0.5738 -1.16861,-0.313465 0.68259,0.354814 0.44948,-0.687139 0.40961,-0.603269 -0.1944,0.409014 3.02754,6.600806 3.25284,7.174177 0.49703,1.264909 1.06018,3.782833 1.06018,3.093236"
       id="path892" />
    <path
       style="fill:none;stroke:#000080;stroke-width:0.964999;stroke-linecap:round;stroke-linejoin:round;stroke-miterlimit:4;stroke-dasharray:none;stroke-opacity:1;font-variation-settings:normal;opacity:1;vector-effect:none;fill-opacity:1;stroke-dashoffset:0;stop-color:#000000;stop-opacity:1"
       d="m 103.24976,120.55533 c -0.70994,-0.8755 -2.22941,0.22779 -2.16855,1.18879 0.10492,1.6569 4.29866,1.14344 3.04802,-1.00544 -1.05156,-1.80683 -4.497377,0.61316 -2.57817,2.08187 1.58629,1.21392 3.60587,-0.37034 2.59022,-2.15285 -0.48345,-0.84849 -3.82642,0.50055 -2.67455,1.52001 0.62913,0.55681 2.40998,0.76454 1.74689,-0.63285 -0.3255,-0.68595 -1.24347,-0.34383 -1.09632,0.37853 0.12319,0.6048 1.26904,-0.54133 1.32522,-0.70973 0.10946,-0.32807 -0.17098,-0.37748 -0.19276,-0.66833 -0.0702,-0.93787 1.20701,-3.56491 1.67461,-4.48312"
       id="path894" />
    <path
       style="fill:none;stroke:#aa0000;stroke-width:0.964999;stroke-linecap:round;stroke-linejoin:round;stroke-miterlimit:4;stroke-dasharray:none;stroke-opacity:1;font-variation-settings:normal;opacity:1;vector-effect:none;fill-opacity:1;stroke-dashoffset:0;stop-color:#000000;stop-opacity:1"
       d="m 113.85379,123.43538 c 1.61807,-0.56306 -2.78896,-1.50349 -1.57822,1.52592 0.79507,1.98937 4.4821,-0.10396 2.84322,-1.75658 -0.96851,-0.97662 -3.54145,0.28873 -2.6866,0.91082 0.93331,0.6792 2.70081,0.95538 2.16855,-0.78661 -0.3242,-1.06106 -2.38991,0.34053 -1.98784,1.01727 0.4255,0.71619 1.7101,-0.29294 1.22885,-0.42584 -1.33622,-0.36898 0.10577,1.53587 0.15662,-0.1242 0.0513,-1.67653 -0.69872,1.67663 0.2048,-0.94039 0.44264,-1.28208 -0.11661,-3.23319 1.012,-4.1874"
       id="path896" />
    <path
       style="fill:none;stroke:#44aa00;stroke-width:0.964999;stroke-linecap:round;stroke-linejoin:round;stroke-miterlimit:4;stroke-dasharray:none;stroke-opacity:1;font-variation-settings:normal;opacity:1;vector-effect:none;fill-opacity:1;stroke-dashoffset:0;stop-color:#000000;stop-opacity:1"
       d="m 126.36979,123.20926 c -0.52773,-1.26738 -3.73595,-0.0208 -3.20407,1.33979 0.74549,1.90706 4.61037,1.67291 3.87081,-0.69894 -0.52677,-1.68941 -4.21717,-0.67778 -2.86513,1.17216 1.59717,2.18536 3.71328,-0.36223 1.95662,-1.57655 -0.74479,-0.51485 -2.19909,1.03777 -1.34799,1.42394 0.8481,0.3848 1.6429,-0.68023 0.81682,-1.0229 -0.68148,-0.28269 -1.30851,0.60388 -0.63995,1.02351 0.44339,0.2783 1.49354,0.24853 0.96553,-0.5055 -1.06653,-1.52305 -0.75573,1.46353 -0.33344,0.0234 0.0543,-0.18514 0.0964,-0.37722 0.0999,-0.57013 0.005,-0.25765 -0.0496,-0.513 -0.0758,-0.76935 -0.27292,-2.66423 -0.25958,-5.3425 -0.34135,-8.01554"
       id="path898" />
    <path
       style="fill:none;stroke:#ffcc00;stroke-width:0.964999;stroke-linecap:round;stroke-linejoin:round;stroke-miterlimit:4;stroke-dasharray:none;stroke-opacity:1;font-variation-settings:normal;opacity:1;vector-effect:none;fill-opacity:1;stroke-dashoffset:0;stop-color:#000000;stop-opacity:1"
       d="m 136.68779,122.47648 c -0.71774,-0.94957 -3.21328,1.19393 -2.09565,2.24158 1.44038,1.35018 3.78639,-0.27708 2.09565,-2.24158 -0.30142,-0.35094 -0.78795,-0.80429 -1.29229,-0.83516 -0.29393,-0.018 -0.67442,0.3552 -0.85457,0.53828 -1.59778,1.62395 1.03711,3.1432 2.47195,1.83559 0.5289,-0.48201 -0.37155,-2.25119 -0.97381,-2.13632 -1.5646,0.29842 -2.53186,2.80558 -0.68913,2.80159 2.51862,-0.005 1.22718,-2.16202 0.68329,-2.04457 -0.84839,0.18319 -1.28328,1.99784 -0.27687,2.09549 1.04114,0.10103 0.9186,-1.38234 0.26443,-1.7748 -0.46228,-0.27735 -1.1798,0.68521 -0.23485,0.98991 0.71647,0.23103 0.18061,-1.0725 -0.21693,-1.93278 -0.87611,-1.89592 -1.17537,-3.42615 -1.39802,-5.50609"
       id="path900" />
    <text
       xml:space="preserve"
       style="font-style:normal;font-variant:normal;font-weight:bold;font-stretch:normal;font-size:8.72756px;line-height:1.25;font-family:Arial;-inkscape-font-specification:'Arial, Bold';font-variant-ligatures:normal;font-variant-caps:normal;font-variant-numeric:normal;font-feature-settings:normal;text-align:start;letter-spacing:0px;word-spacing:0px;writing-mode:lr-tb;text-anchor:start;fill:#000080;fill-opacity:1;stroke:none;stroke-width:0.545472;"
       x="98.911148"
       y="136.97885"
       id="text913"><tspan
         sodipodi:role="line"
         id="tspan911"
         x="98.911148"
         y="136.97885"
         style="stroke-width:0.545472;fill:#000080;">A</tspan></text>
    <text
       xml:space="preserve"
       style="font-style:normal;font-variant:normal;font-weight:bold;font-stretch:normal;font-size:8.72756px;line-height:1.25;font-family:Arial;-inkscape-font-specification:'Arial, Bold';font-variant-ligatures:normal;font-variant-caps:normal;font-variant-numeric:normal;font-feature-settings:normal;text-align:start;letter-spacing:0px;word-spacing:0px;writing-mode:lr-tb;text-anchor:start;fill:#aa0000;fill-opacity:1;stroke:none;stroke-width:0.545472;"
       x="110.32661"
       y="136.87231"
       id="text917"><tspan
         sodipodi:role="line"
         id="tspan915"
         x="110.32661"
         y="136.87231"
         style="stroke-width:0.545472;fill:#aa0000;">C</tspan></text>
    <text
       xml:space="preserve"
       style="font-style:normal;font-variant:normal;font-weight:bold;font-stretch:normal;font-size:8.72756px;line-height:1.25;font-family:Arial;-inkscape-font-specification:'Arial, Bold';font-variant-ligatures:normal;font-variant-caps:normal;font-variant-numeric:normal;font-feature-settings:normal;text-align:start;letter-spacing:0px;word-spacing:0px;writing-mode:lr-tb;text-anchor:start;fill:#44aa00;fill-opacity:1;stroke:none;stroke-width:0.545472;"
       x="121.96368"
       y="136.97885"
       id="text921"><tspan
         sodipodi:role="line"
         id="tspan919"
         x="121.96368"
         y="136.97885"
         style="stroke-width:0.545472;fill:#44aa00;">G</tspan></text>
    <text
       xml:space="preserve"
       style="font-style:normal;font-variant:normal;font-weight:bold;font-stretch:normal;font-size:8.72756px;line-height:1.25;font-family:Arial;-inkscape-font-specification:'Arial, Bold';font-variant-ligatures:normal;font-variant-caps:normal;font-variant-numeric:normal;font-feature-settings:normal;text-align:start;letter-spacing:0px;word-spacing:0px;writing-mode:lr-tb;text-anchor:start;fill:#ffcc00;fill-opacity:1;stroke:none;stroke-width:0.545472;"
       x="132.26689"
       y="136.87231"
       id="text925"><tspan
         sodipodi:role="line"
         id="tspan923"
         x="132.26689"
         y="136.87231"
         style="stroke-width:0.545472;fill:#ffcc00;">T</tspan></text>
  </g>
</svg>
