<?xml version="1.0" encoding="UTF-8" standalone="no"?>
<svg
   xmlns:dc="http://purl.org/dc/elements/1.1/"
   xmlns:cc="http://creativecommons.org/ns#"
   xmlns:rdf="http://www.w3.org/1999/02/22-rdf-syntax-ns#"
   xmlns:svg="http://www.w3.org/2000/svg"
   xmlns="http://www.w3.org/2000/svg"
   xmlns:sodipodi="http://sodipodi.sourceforge.net/DTD/sodipodi-0.dtd"
   xmlns:inkscape="http://www.inkscape.org/namespaces/inkscape"
   width="107.99795mm"
   height="60.001152mm"
   viewBox="0 0 107.99795 60.001152"
   version="1.1"
   id="svg538"
   inkscape:version="1.0 (4035a4fb49, 2020-05-01)"
   sodipodi:docname="2020-JP-04-taskbody5-compatible.svg">
  <defs
     id="defs532" />
  <sodipodi:namedview
     id="base"
     pagecolor="#ffffff"
     bordercolor="#666666"
     borderopacity="1.0"
     inkscape:pageopacity="0.0"
     inkscape:pageshadow="2"
     inkscape:zoom="0.35"
     inkscape:cx="467.8996"
     inkscape:cy="-175.99464"
     inkscape:document-units="mm"
     inkscape:current-layer="layer1"
     inkscape:document-rotation="0"
     showgrid="false"
     fit-margin-top="0"
     fit-margin-left="0"
     fit-margin-right="0"
     fit-margin-bottom="0"
     inkscape:window-width="1252"
     inkscape:window-height="855"
     inkscape:window-x="0"
     inkscape:window-y="23"
     inkscape:window-maximized="0" />
  <metadata
     id="metadata535">
    <rdf:RDF>
      <cc:Work
         rdf:about="">
        <dc:format>image/svg+xml</dc:format>
        <dc:type
           rdf:resource="http://purl.org/dc/dcmitype/StillImage" />
        <dc:title></dc:title>
      </cc:Work>
    </rdf:RDF>
  </metadata>
  <g
     inkscape:label="Layer 1"
     inkscape:groupmode="layer"
     id="layer1"
     transform="translate(17.964092,-194.73191)">
    <g
       id="g174"
       transform="matrix(0.24620174,0,0,0.24764124,-159.9447,-47.85889)">
      <g
         style="opacity:1"
         id="g849">
        <path
           id="path851"
           d="M 706.5,1159.4 H 598.4 c -2.9,0 -5.3,-2.4 -5.3,-5.3 V 1046 c 0,-2.9 2.4,-5.3 5.3,-5.3 h 108.1 c 2.9,0 5.3,2.4 5.3,5.3 v 108.1 c -0.1,3 -2.4,5.3 -5.3,5.3 z"
           style="color:#000000;font-style:normal;font-variant:normal;font-weight:normal;font-stretch:normal;font-size:medium;line-height:normal;font-family:sans-serif;font-variant-ligatures:normal;font-variant-position:normal;font-variant-caps:normal;font-variant-numeric:normal;font-variant-alternates:normal;font-variant-east-asian:normal;font-feature-settings:normal;font-variation-settings:normal;text-indent:0;text-align:start;text-decoration:none;text-decoration-line:none;text-decoration-style:solid;text-decoration-color:#000000;letter-spacing:normal;word-spacing:normal;text-transform:none;writing-mode:lr-tb;direction:ltr;text-orientation:mixed;dominant-baseline:auto;baseline-shift:baseline;text-anchor:start;white-space:normal;shape-padding:0;shape-margin:0;inline-size:0;clip-rule:nonzero;display:inline;overflow:visible;visibility:visible;isolation:auto;mix-blend-mode:normal;color-interpolation:sRGB;color-interpolation-filters:linearRGB;solid-color:#000000;solid-opacity:1;vector-effect:none;fill:#ffffff;fill-opacity:1;fill-rule:nonzero;stroke:none;stroke-width:4;stroke-linecap:round;stroke-linejoin:round;stroke-miterlimit:10;stroke-dasharray:none;stroke-dashoffset:0;stroke-opacity:1.0;color-rendering:auto;image-rendering:auto;shape-rendering:auto;text-rendering:auto;enable-background:accumulate;stop-color:#000000;stop-opacity:1;" />
        <path
           id="path853"
           d="M 598.40039 1038.6992 C 594.39694 1038.6992 591.09961 1041.9966 591.09961 1046 L 591.09961 1154.0996 C 591.09961 1158.1031 594.39694 1161.4004 598.40039 1161.4004 L 706.5 1161.4004 C 710.45747 1161.4004 713.66594 1158.1525 713.79883 1154.166 A 2.0002 2.0002 0 0 0 713.80078 1154.0996 L 713.80078 1046 C 713.80078 1041.9966 710.50345 1038.6992 706.5 1038.6992 L 598.40039 1038.6992 z M 598.40039 1042.6992 L 706.5 1042.6992 C 708.29655 1042.6992 709.80078 1044.2034 709.80078 1046 L 709.80078 1154.0332 C 709.73366 1156.0467 708.34253 1157.4004 706.5 1157.4004 L 598.40039 1157.4004 C 596.60384 1157.4004 595.09961 1155.8962 595.09961 1154.0996 L 595.09961 1046 C 595.09961 1044.2034 596.60384 1042.6992 598.40039 1042.6992 z "
           style="color:#000000;font-style:normal;font-variant:normal;font-weight:normal;font-stretch:normal;font-size:medium;line-height:normal;font-family:sans-serif;font-variant-ligatures:normal;font-variant-position:normal;font-variant-caps:normal;font-variant-numeric:normal;font-variant-alternates:normal;font-variant-east-asian:normal;font-feature-settings:normal;font-variation-settings:normal;text-indent:0;text-align:start;text-decoration:none;text-decoration-line:none;text-decoration-style:solid;text-decoration-color:#000000;letter-spacing:normal;word-spacing:normal;text-transform:none;writing-mode:lr-tb;direction:ltr;text-orientation:mixed;dominant-baseline:auto;baseline-shift:baseline;text-anchor:start;white-space:normal;shape-padding:0;shape-margin:0;inline-size:0;clip-rule:nonzero;display:inline;overflow:visible;visibility:visible;isolation:auto;mix-blend-mode:normal;color-interpolation:sRGB;color-interpolation-filters:linearRGB;solid-color:#000000;solid-opacity:1;vector-effect:none;fill:#000000;fill-opacity:1;fill-rule:nonzero;stroke:none;stroke-width:4;stroke-linecap:round;stroke-linejoin:round;stroke-miterlimit:10;stroke-dasharray:none;stroke-dashoffset:0;stroke-opacity:1.0;color-rendering:auto;image-rendering:auto;shape-rendering:auto;text-rendering:auto;enable-background:accumulate;stop-color:#000000;stop-opacity:1;" />
      </g>
      <g
         style="opacity:1"
         transform="translate(-1.15,1.0499109)"
         id="g877">
        <path
           id="path879"
           d="m 698.2,1089 -22.3,21.7 5.3,30.7 -27.6,-14.5 -27.5,14.5 5.2,-30.7 -22.3,-21.7 30.8,-4.5 13.8,-27.9 13.8,27.9 z"
           style="color:#000000;font-style:normal;font-variant:normal;font-weight:normal;font-stretch:normal;font-size:medium;line-height:normal;font-family:sans-serif;font-variant-ligatures:normal;font-variant-position:normal;font-variant-caps:normal;font-variant-numeric:normal;font-variant-alternates:normal;font-variant-east-asian:normal;font-feature-settings:normal;font-variation-settings:normal;text-indent:0;text-align:start;text-decoration:none;text-decoration-line:none;text-decoration-style:solid;text-decoration-color:#000000;letter-spacing:normal;word-spacing:normal;text-transform:none;writing-mode:lr-tb;direction:ltr;text-orientation:mixed;dominant-baseline:auto;baseline-shift:baseline;text-anchor:start;white-space:normal;shape-padding:0;shape-margin:0;inline-size:0;clip-rule:nonzero;display:inline;overflow:visible;visibility:visible;isolation:auto;mix-blend-mode:normal;color-interpolation:sRGB;color-interpolation-filters:linearRGB;solid-color:#000000;solid-opacity:1;vector-effect:none;fill:#fff100;fill-opacity:1;fill-rule:nonzero;stroke:none;stroke-width:8.3507;stroke-linecap:round;stroke-linejoin:round;stroke-miterlimit:10;stroke-dasharray:none;stroke-dashoffset:0;stroke-opacity:1.0;color-rendering:auto;image-rendering:auto;shape-rendering:auto;text-rendering:auto;enable-background:accumulate;stop-color:#000000;stop-opacity:1;" />
        <path
           id="path881"
           d="M 653.60156 1052.4258 A 4.1757677 4.1757677 0 0 0 649.85742 1054.748 L 637.0293 1080.6855 L 608.39648 1084.8691 A 4.1757677 4.1757677 0 0 0 606.08789 1091.9922 L 626.81641 1112.1641 L 621.98242 1140.7031 A 4.1757677 4.1757677 0 0 0 628.04688 1145.0938 L 653.60352 1131.6191 L 679.25781 1145.0957 A 4.1757677 4.1757677 0 0 0 685.31445 1140.6895 L 680.38867 1112.1582 L 701.11133 1091.9922 A 4.1757677 4.1757677 0 0 0 698.80273 1084.8691 L 670.17188 1080.6855 L 657.3418 1054.748 A 4.1757677 4.1757677 0 0 0 653.60156 1052.4258 z M 653.59961 1066.0176 L 663.6582 1086.3516 A 4.1757677 4.1757677 0 0 0 666.79688 1088.6309 L 689.22461 1091.9082 L 672.98828 1107.707 A 4.1757677 4.1757677 0 0 0 671.78516 1111.4102 L 675.64453 1133.7637 L 655.54102 1123.2031 A 4.1757677 4.1757677 0 0 0 651.65234 1123.207 L 631.62695 1133.7656 L 635.41602 1111.3965 A 4.1757677 4.1757677 0 0 0 634.21094 1107.707 L 617.97461 1091.9082 L 640.4043 1088.6309 A 4.1757677 4.1757677 0 0 0 643.54297 1086.3516 L 653.59961 1066.0176 z "
           style="color:#000000;font-style:normal;font-variant:normal;font-weight:normal;font-stretch:normal;font-size:medium;line-height:normal;font-family:sans-serif;font-variant-ligatures:normal;font-variant-position:normal;font-variant-caps:normal;font-variant-numeric:normal;font-variant-alternates:normal;font-variant-east-asian:normal;font-feature-settings:normal;font-variation-settings:normal;text-indent:0;text-align:start;text-decoration:none;text-decoration-line:none;text-decoration-style:solid;text-decoration-color:#000000;letter-spacing:normal;word-spacing:normal;text-transform:none;writing-mode:lr-tb;direction:ltr;text-orientation:mixed;dominant-baseline:auto;baseline-shift:baseline;text-anchor:start;white-space:normal;shape-padding:0;shape-margin:0;inline-size:0;clip-rule:nonzero;display:inline;overflow:visible;visibility:visible;isolation:auto;mix-blend-mode:normal;color-interpolation:sRGB;color-interpolation-filters:linearRGB;solid-color:#000000;solid-opacity:1;vector-effect:none;fill:#f39800;fill-opacity:1;fill-rule:nonzero;stroke:none;stroke-width:8.3507;stroke-linecap:round;stroke-linejoin:round;stroke-miterlimit:10;stroke-dasharray:none;stroke-dashoffset:0;stroke-opacity:1.0;color-rendering:auto;image-rendering:auto;shape-rendering:auto;text-rendering:auto;enable-background:accumulate;stop-color:#000000;stop-opacity:1;" />
      </g>
    </g>
    <g
       style="opacity:1"
       id="g855">
      <path
         id="path857"
         d="M 84.927563,224.62077 H 58.313157 c -0.713985,0 -1.30487,-0.59434 -1.30487,-1.3125 v -26.77002 c 0,-0.71815 0.590885,-1.3125 1.30487,-1.3125 h 26.614406 c 0.713983,0 1.304867,0.59435 1.304867,1.3125 v 26.77002 c -0.02466,0.71816 -0.590884,1.3125 -1.304867,1.3125 z"
         style="color:#000000;font-style:normal;font-variant:normal;font-weight:normal;font-stretch:normal;font-size:medium;line-height:normal;font-family:sans-serif;font-variant-ligatures:normal;font-variant-position:normal;font-variant-caps:normal;font-variant-numeric:normal;font-variant-alternates:normal;font-variant-east-asian:normal;font-feature-settings:normal;font-variation-settings:normal;text-indent:0;text-align:start;text-decoration:none;text-decoration-line:none;text-decoration-style:solid;text-decoration-color:#000000;letter-spacing:normal;word-spacing:normal;text-transform:none;writing-mode:lr-tb;direction:ltr;text-orientation:mixed;dominant-baseline:auto;baseline-shift:baseline;text-anchor:start;white-space:normal;shape-padding:0;shape-margin:0;inline-size:0;clip-rule:nonzero;display:inline;overflow:visible;visibility:visible;isolation:auto;mix-blend-mode:normal;color-interpolation:sRGB;color-interpolation-filters:linearRGB;solid-color:#000000;solid-opacity:1;vector-effect:none;fill:#ffffff;fill-opacity:1;fill-rule:nonzero;stroke:none;stroke-width:0.987679;stroke-linecap:round;stroke-linejoin:round;stroke-miterlimit:10;stroke-dasharray:none;stroke-dashoffset:0;stroke-opacity:1.0;color-rendering:auto;image-rendering:auto;shape-rendering:auto;text-rendering:auto;enable-background:accumulate;stop-color:#000000;stop-opacity:1;" />
      <path
         id="path859"
         d="M 58.3125 194.73242 C 57.324454 194.73242 56.513672 195.55003 56.513672 196.53906 L 56.513672 223.30859 C 56.513672 224.29763 57.324458 225.11523 58.3125 225.11523 L 84.927734 225.11523 C 85.915775 225.11523 86.693326 224.29411 86.726562 223.32617 A 0.49388889 0.49388889 0 0 0 86.726562 223.30859 L 86.726562 196.53906 C 86.726562 195.55003 85.915779 194.73242 84.927734 194.73242 L 58.3125 194.73242 z M 58.3125 195.71875 L 84.927734 195.71875 C 85.367655 195.71875 85.738281 196.0918 85.738281 196.53906 L 85.738281 223.29102 C 85.722198 223.7594 85.36766 224.12695 84.927734 224.12695 L 58.3125 224.12695 C 57.872572 224.12695 57.501953 223.75587 57.501953 223.30859 L 57.501953 196.53906 C 57.501953 196.0918 57.872576 195.71875 58.3125 195.71875 z "
         style="color:#000000;font-style:normal;font-variant:normal;font-weight:normal;font-stretch:normal;font-size:medium;line-height:normal;font-family:sans-serif;font-variant-ligatures:normal;font-variant-position:normal;font-variant-caps:normal;font-variant-numeric:normal;font-variant-alternates:normal;font-variant-east-asian:normal;font-feature-settings:normal;font-variation-settings:normal;text-indent:0;text-align:start;text-decoration:none;text-decoration-line:none;text-decoration-style:solid;text-decoration-color:#000000;letter-spacing:normal;word-spacing:normal;text-transform:none;writing-mode:lr-tb;direction:ltr;text-orientation:mixed;dominant-baseline:auto;baseline-shift:baseline;text-anchor:start;white-space:normal;shape-padding:0;shape-margin:0;inline-size:0;clip-rule:nonzero;display:inline;overflow:visible;visibility:visible;isolation:auto;mix-blend-mode:normal;color-interpolation:sRGB;color-interpolation-filters:linearRGB;solid-color:#000000;solid-opacity:1;vector-effect:none;fill:#000000;fill-opacity:1;fill-rule:nonzero;stroke:none;stroke-width:0.987679;stroke-linecap:round;stroke-linejoin:round;stroke-miterlimit:10;stroke-dasharray:none;stroke-dashoffset:0;stroke-opacity:1.0;color-rendering:auto;image-rendering:auto;shape-rendering:auto;text-rendering:auto;enable-background:accumulate;stop-color:#000000;stop-opacity:1;" />
    </g>
    <g
       id="g182"
       transform="matrix(0.24620174,0,0,0.24764124,-159.7778,-48.487673)">
      <g
         style="opacity:1"
         id="g861">
        <path
           id="path863"
           d="m 939.7,1081 c 9.2,0.5 32,-19.5 40.1,-40.1 4.9,-12.5 4.6,-28.9 -14.3,-34.4 -12.9,-3.8 -23.2,11.1 -25.3,13.7 l -0.7,0.1 c -2,-2.6 -12.4,-17.5 -25.3,-13.7 -18.9,5.5 -19.1,21.9 -14.3,34.4 8.1,20.6 30.8,40.5 40.1,40.1 z"
           style="color:#000000;font-style:normal;font-variant:normal;font-weight:normal;font-stretch:normal;font-size:medium;line-height:normal;font-family:sans-serif;font-variant-ligatures:normal;font-variant-position:normal;font-variant-caps:normal;font-variant-numeric:normal;font-variant-alternates:normal;font-variant-east-asian:normal;font-feature-settings:normal;font-variation-settings:normal;text-indent:0;text-align:start;text-decoration:none;text-decoration-line:none;text-decoration-style:solid;text-decoration-color:#000000;letter-spacing:normal;word-spacing:normal;text-transform:none;writing-mode:lr-tb;direction:ltr;text-orientation:mixed;dominant-baseline:auto;baseline-shift:baseline;text-anchor:start;white-space:normal;shape-padding:0;shape-margin:0;inline-size:0;clip-rule:nonzero;display:inline;overflow:visible;visibility:visible;isolation:auto;mix-blend-mode:normal;color-interpolation:sRGB;color-interpolation-filters:linearRGB;solid-color:#000000;solid-opacity:1;vector-effect:none;fill:#d574a5;fill-opacity:1;fill-rule:nonzero;stroke:none;stroke-width:5.2202;stroke-linecap:round;stroke-linejoin:round;stroke-miterlimit:10;stroke-dasharray:none;stroke-dashoffset:0;stroke-opacity:1.0;color-rendering:auto;image-rendering:auto;shape-rendering:auto;text-rendering:auto;enable-background:accumulate;stop-color:#000000;stop-opacity:1;" />
        <path
           id="path865"
           d="M 960.7832 1003.2656 C 950.45883 1003.5208 942.94176 1012.4283 939.82031 1016.4688 C 936.06305 1011.5811 926.3196 1000.3151 913.4707 1004.0938 C 903.35479 1007.0375 897.68824 1013.3263 895.65234 1020.459 C 893.61644 1027.5917 894.9216 1035.3176 897.46289 1041.9355 A 2.610361 2.610361 0 0 0 897.4707 1041.9551 C 901.71982 1052.7615 909.61531 1063.0909 917.69727 1070.8125 C 921.73824 1074.6733 925.82364 1077.8758 929.60938 1080.1406 C 933.39511 1082.4054 936.81252 1083.8489 940.11133 1083.707 A 2.610361 2.610361 0 0 0 940.98242 1083.5156 C 943.84273 1083.2871 946.80334 1082.0207 950.04688 1080.082 C 953.82941 1077.8211 957.91779 1074.6169 961.96484 1070.75 C 970.05895 1063.0162 977.97859 1052.6639 982.22852 1041.8555 A 2.610361 2.610361 0 0 0 982.23047 1041.8535 C 984.82863 1035.2256 986.13457 1027.4884 984.08398 1020.3535 C 982.03353 1013.219 976.34403 1006.9378 966.23047 1003.9941 L 966.22852 1003.9941 C 964.35271 1003.4427 962.53321 1003.2224 960.7832 1003.2656 z M 960.80859 1008.5156 C 962.09605 1008.4613 963.41612 1008.6075 964.76172 1009.0039 A 2.610361 2.610361 0 0 0 964.77148 1009.0059 C 973.55675 1011.5624 977.46699 1016.2318 979.06641 1021.7969 C 980.66582 1027.362 979.67098 1034.0752 977.36914 1039.9473 C 973.51878 1049.7381 965.98966 1059.684 958.35938 1066.9746 C 954.54393 1070.6202 950.70223 1073.6093 947.36914 1075.6016 C 944.03606 1077.5938 941.14195 1078.4652 939.8418 1078.3945 A 2.610361 2.610361 0 0 0 939.46094 1078.4023 C 938.00684 1078.3319 935.39458 1077.518 932.28906 1075.6602 C 928.9498 1073.6625 925.11176 1070.6763 921.30273 1067.0371 C 913.68715 1059.7611 906.18403 1049.8452 902.33203 1040.0547 C 900.07596 1034.1749 899.08365 1027.4549 900.67188 1021.8906 C 902.26097 1016.3233 906.1456 1011.6617 914.92969 1009.1055 A 2.610361 2.610361 0 0 0 914.9375 1009.1035 C 925.69875 1005.9335 935.1595 1018.9368 937.43164 1021.8906 A 2.610361 2.610361 0 0 0 939.86914 1022.8848 L 940.56836 1022.7832 A 2.610361 2.610361 0 0 0 942.23047 1021.8398 C 944.45424 1019.0866 951.79643 1008.8959 960.80859 1008.5156 z "
           style="color:#000000;font-style:normal;font-variant:normal;font-weight:normal;font-stretch:normal;font-size:medium;line-height:normal;font-family:sans-serif;font-variant-ligatures:normal;font-variant-position:normal;font-variant-caps:normal;font-variant-numeric:normal;font-variant-alternates:normal;font-variant-east-asian:normal;font-feature-settings:normal;font-variation-settings:normal;text-indent:0;text-align:start;text-decoration:none;text-decoration-line:none;text-decoration-style:solid;text-decoration-color:#000000;letter-spacing:normal;word-spacing:normal;text-transform:none;writing-mode:lr-tb;direction:ltr;text-orientation:mixed;dominant-baseline:auto;baseline-shift:baseline;text-anchor:start;white-space:normal;shape-padding:0;shape-margin:0;inline-size:0;clip-rule:nonzero;display:inline;overflow:visible;visibility:visible;isolation:auto;mix-blend-mode:normal;color-interpolation:sRGB;color-interpolation-filters:linearRGB;solid-color:#000000;solid-opacity:1;vector-effect:none;fill:#c30d23;fill-opacity:1;fill-rule:nonzero;stroke:none;stroke-width:5.2202;stroke-linecap:round;stroke-linejoin:round;stroke-miterlimit:10;stroke-dasharray:none;stroke-dashoffset:0;stroke-opacity:1.0;color-rendering:auto;image-rendering:auto;shape-rendering:auto;text-rendering:auto;enable-background:accumulate;stop-color:#000000;stop-opacity:1;" />
      </g>
    </g>
    <g
       id="g186"
       transform="matrix(0.24620174,0,0,0.24764124,-159.9447,-47.85889)">
      <g
         style="opacity:1"
         id="g905">
        <path
           id="path907"
           d="m 862.89999,1207.5 c 0,7.0692 -29.81784,12.8 -66.6,12.8 -36.78216,0 -66.6,-5.7308 -66.6,-12.8 0,-7.0692 29.81784,-12.8 66.6,-12.8 36.78216,0 66.6,5.7308 66.6,12.8"
           style="color:#000000;font-style:normal;font-variant:normal;font-weight:normal;font-stretch:normal;font-size:medium;line-height:normal;font-family:sans-serif;font-variant-ligatures:normal;font-variant-position:normal;font-variant-caps:normal;font-variant-numeric:normal;font-variant-alternates:normal;font-variant-east-asian:normal;font-feature-settings:normal;font-variation-settings:normal;text-indent:0;text-align:start;text-decoration:none;text-decoration-line:none;text-decoration-style:solid;text-decoration-color:#000000;letter-spacing:normal;word-spacing:normal;text-transform:none;writing-mode:lr-tb;direction:ltr;text-orientation:mixed;dominant-baseline:auto;baseline-shift:baseline;text-anchor:start;white-space:normal;shape-padding:0;shape-margin:0;inline-size:0;clip-rule:nonzero;display:inline;overflow:visible;visibility:visible;isolation:auto;mix-blend-mode:normal;color-interpolation:sRGB;color-interpolation-filters:linearRGB;solid-color:#000000;solid-opacity:1;vector-effect:none;fill:#898989;fill-opacity:1;fill-rule:nonzero;stroke:none;stroke-width:3.1929;stroke-linecap:butt;stroke-linejoin:miter;stroke-miterlimit:10;stroke-dasharray:none;stroke-dashoffset:0;stroke-opacity:1.0;color-rendering:auto;image-rendering:auto;shape-rendering:auto;text-rendering:auto;enable-background:accumulate;stop-color:#000000;stop-opacity:1;" />
        <path
           id="path909"
           d="M 796.30078 1193.1035 C 777.82679 1193.1035 761.10628 1194.5361 748.90625 1196.8809 C 742.80623 1198.0532 737.84301 1199.4425 734.27344 1201.0645 C 732.48865 1201.8754 731.04564 1202.7371 729.96094 1203.7559 C 728.87624 1204.7746 728.10352 1206.0552 728.10352 1207.5 C 728.10352 1208.9448 728.87624 1210.2254 729.96094 1211.2441 C 731.04564 1212.2629 732.48865 1213.1246 734.27344 1213.9355 C 737.84301 1215.5575 742.80623 1216.9468 748.90625 1218.1191 C 761.10628 1220.4639 777.82679 1221.8965 796.30078 1221.8965 C 814.77477 1221.8965 831.49528 1220.4639 843.69531 1218.1191 C 849.79533 1216.9468 854.7566 1215.5575 858.32617 1213.9355 C 860.11096 1213.1246 861.55593 1212.2629 862.64062 1211.2441 C 863.72532 1210.2254 864.49609 1208.9448 864.49609 1207.5 C 864.49609 1206.0552 863.72532 1204.7746 862.64062 1203.7559 C 861.55593 1202.7371 860.11096 1201.8754 858.32617 1201.0645 C 854.7566 1199.4425 849.79533 1198.0532 843.69531 1196.8809 C 831.49528 1194.5361 814.77477 1193.1035 796.30078 1193.1035 z M 796.30078 1196.2969 C 814.60895 1196.2969 831.18737 1197.7296 843.0918 1200.0176 C 849.04401 1201.1615 853.83514 1202.53 857.00586 1203.9707 C 858.59122 1204.6911 859.76348 1205.4363 860.45312 1206.084 C 861.14277 1206.7317 861.30273 1207.1775 861.30273 1207.5 C 861.30273 1207.8225 861.14277 1208.2683 860.45312 1208.916 C 859.76348 1209.5637 858.59122 1210.3089 857.00586 1211.0293 C 853.83514 1212.47 849.04401 1213.8385 843.0918 1214.9824 C 831.18737 1217.2704 814.60895 1218.7031 796.30078 1218.7031 C 777.99261 1218.7031 761.41224 1217.2704 749.50781 1214.9824 C 743.5556 1213.8385 738.76447 1212.47 735.59375 1211.0293 C 734.00839 1210.3089 732.83613 1209.5637 732.14648 1208.916 C 731.45684 1208.2683 731.29688 1207.8225 731.29688 1207.5 C 731.29688 1207.1775 731.45684 1206.7317 732.14648 1206.084 C 732.83613 1205.4363 734.00839 1204.6911 735.59375 1203.9707 C 738.76447 1202.53 743.5556 1201.1615 749.50781 1200.0176 C 761.41224 1197.7296 777.99261 1196.2969 796.30078 1196.2969 z "
           style="color:#000000;font-style:normal;font-variant:normal;font-weight:normal;font-stretch:normal;font-size:medium;line-height:normal;font-family:sans-serif;font-variant-ligatures:normal;font-variant-position:normal;font-variant-caps:normal;font-variant-numeric:normal;font-variant-alternates:normal;font-variant-east-asian:normal;font-feature-settings:normal;font-variation-settings:normal;text-indent:0;text-align:start;text-decoration:none;text-decoration-line:none;text-decoration-style:solid;text-decoration-color:#000000;letter-spacing:normal;word-spacing:normal;text-transform:none;writing-mode:lr-tb;direction:ltr;text-orientation:mixed;dominant-baseline:auto;baseline-shift:baseline;text-anchor:start;white-space:normal;shape-padding:0;shape-margin:0;inline-size:0;clip-rule:nonzero;display:inline;overflow:visible;visibility:visible;isolation:auto;mix-blend-mode:normal;color-interpolation:sRGB;color-interpolation-filters:linearRGB;solid-color:#000000;solid-opacity:1;vector-effect:none;fill:#000000;fill-opacity:1;fill-rule:nonzero;stroke:none;stroke-width:3.1929;stroke-linecap:butt;stroke-linejoin:miter;stroke-miterlimit:10;stroke-dasharray:none;stroke-dashoffset:0;stroke-opacity:1.0;color-rendering:auto;image-rendering:auto;shape-rendering:auto;text-rendering:auto;enable-background:accumulate;stop-color:#000000;stop-opacity:1;" />
      </g>
      <g
         style="opacity:1"
         id="g883">
        <path
           id="path885"
           d="m 943.3,1121.7 -290.5,61.1 3.1,15 290.5,-61.1 z"
           style="color:#000000;font-style:normal;font-variant:normal;font-weight:normal;font-stretch:normal;font-size:medium;line-height:normal;font-family:sans-serif;font-variant-ligatures:normal;font-variant-position:normal;font-variant-caps:normal;font-variant-numeric:normal;font-variant-alternates:normal;font-variant-east-asian:normal;font-feature-settings:normal;font-variation-settings:normal;text-indent:0;text-align:start;text-decoration:none;text-decoration-line:none;text-decoration-style:solid;text-decoration-color:#000000;letter-spacing:normal;word-spacing:normal;text-transform:none;writing-mode:lr-tb;direction:ltr;text-orientation:mixed;dominant-baseline:auto;baseline-shift:baseline;text-anchor:start;white-space:normal;shape-padding:0;shape-margin:0;inline-size:0;clip-rule:nonzero;display:inline;overflow:visible;visibility:visible;isolation:auto;mix-blend-mode:normal;color-interpolation:sRGB;color-interpolation-filters:linearRGB;solid-color:#000000;solid-opacity:1;vector-effect:none;fill:#dcdddd;fill-opacity:1;fill-rule:nonzero;stroke:none;stroke-width:2.9411;stroke-linecap:butt;stroke-linejoin:miter;stroke-miterlimit:10;stroke-dasharray:none;stroke-dashoffset:0;stroke-opacity:1.0;color-rendering:auto;image-rendering:auto;shape-rendering:auto;text-rendering:auto;enable-background:accumulate;stop-color:#000000;stop-opacity:1;" />
        <path
           id="path887"
           d="M 944.44141 1119.957 L 942.99805 1120.2617 L 651.0625 1181.6621 L 654.75781 1199.543 L 948.13672 1137.8379 L 944.44141 1119.957 z M 942.1582 1123.4434 L 944.66406 1135.5625 L 657.04102 1196.0586 L 654.53711 1183.9375 L 942.1582 1123.4434 z "
           style="color:#000000;font-style:normal;font-variant:normal;font-weight:normal;font-stretch:normal;font-size:medium;line-height:normal;font-family:sans-serif;font-variant-ligatures:normal;font-variant-position:normal;font-variant-caps:normal;font-variant-numeric:normal;font-variant-alternates:normal;font-variant-east-asian:normal;font-feature-settings:normal;font-variation-settings:normal;text-indent:0;text-align:start;text-decoration:none;text-decoration-line:none;text-decoration-style:solid;text-decoration-color:#000000;letter-spacing:normal;word-spacing:normal;text-transform:none;writing-mode:lr-tb;direction:ltr;text-orientation:mixed;dominant-baseline:auto;baseline-shift:baseline;text-anchor:start;white-space:normal;shape-padding:0;shape-margin:0;inline-size:0;clip-rule:nonzero;display:inline;overflow:visible;visibility:visible;isolation:auto;mix-blend-mode:normal;color-interpolation:sRGB;color-interpolation-filters:linearRGB;solid-color:#000000;solid-opacity:1;vector-effect:none;fill:#000000;fill-opacity:1;fill-rule:nonzero;stroke:none;stroke-width:2.9411;stroke-linecap:butt;stroke-linejoin:miter;stroke-miterlimit:10;stroke-dasharray:none;stroke-dashoffset:0;stroke-opacity:1.0;color-rendering:auto;image-rendering:auto;shape-rendering:auto;text-rendering:auto;enable-background:accumulate;stop-color:#000000;stop-opacity:1;" />
      </g>
      <g
         style="opacity:1"
         id="g867">
        <path
           id="path869"
           d="m 783.4,1206.5 h 26.8 v -58 c 0,0 -5.2,-9.9 -13.3,-9.9 -7.7,0 -13.5,9.9 -13.5,9.9 z"
           style="color:#000000;font-style:normal;font-variant:normal;font-weight:normal;font-stretch:normal;font-size:medium;line-height:normal;font-family:sans-serif;font-variant-ligatures:normal;font-variant-position:normal;font-variant-caps:normal;font-variant-numeric:normal;font-variant-alternates:normal;font-variant-east-asian:normal;font-feature-settings:normal;font-variation-settings:normal;text-indent:0;text-align:start;text-decoration:none;text-decoration-line:none;text-decoration-style:solid;text-decoration-color:#000000;letter-spacing:normal;word-spacing:normal;text-transform:none;writing-mode:lr-tb;direction:ltr;text-orientation:mixed;dominant-baseline:auto;baseline-shift:baseline;text-anchor:start;white-space:normal;shape-padding:0;shape-margin:0;inline-size:0;clip-rule:nonzero;display:inline;overflow:visible;visibility:visible;isolation:auto;mix-blend-mode:normal;color-interpolation:sRGB;color-interpolation-filters:linearRGB;solid-color:#000000;solid-opacity:1;vector-effect:none;fill:#b5b5b6;fill-opacity:1;fill-rule:nonzero;stroke:none;stroke-width:2.8791;stroke-linecap:butt;stroke-linejoin:miter;stroke-miterlimit:10;stroke-dasharray:none;stroke-dashoffset:0;stroke-opacity:1.0;color-rendering:auto;image-rendering:auto;shape-rendering:auto;text-rendering:auto;enable-background:accumulate;stop-color:#000000;stop-opacity:1;" />
        <path
           id="path871"
           d="M 796.90039 1137.1602 C 792.43344 1137.1602 788.77851 1139.9329 786.23242 1142.5449 C 783.68634 1145.157 782.1582 1147.7715 782.1582 1147.7715 L 781.96094 1148.1094 L 781.96094 1207.9395 L 783.40039 1207.9395 L 811.63867 1207.9395 L 811.63867 1148.1445 L 811.47461 1147.8301 C 811.47461 1147.8301 810.09428 1145.1946 807.63867 1142.5664 C 805.18307 1139.9382 801.53687 1137.1602 796.90039 1137.1602 z M 796.90039 1140.0391 C 800.36391 1140.0391 803.36576 1142.2114 805.53516 1144.5332 C 807.49975 1146.6359 808.55327 1148.5193 808.75977 1148.8965 L 808.75977 1205.0605 L 784.83984 1205.0605 L 784.83984 1148.9316 C 785.08607 1148.527 786.2456 1146.6551 788.29297 1144.5547 C 790.57188 1142.2167 793.66734 1140.0391 796.90039 1140.0391 z "
           style="color:#000000;font-style:normal;font-variant:normal;font-weight:normal;font-stretch:normal;font-size:medium;line-height:normal;font-family:sans-serif;font-variant-ligatures:normal;font-variant-position:normal;font-variant-caps:normal;font-variant-numeric:normal;font-variant-alternates:normal;font-variant-east-asian:normal;font-feature-settings:normal;font-variation-settings:normal;text-indent:0;text-align:start;text-decoration:none;text-decoration-line:none;text-decoration-style:solid;text-decoration-color:#000000;letter-spacing:normal;word-spacing:normal;text-transform:none;writing-mode:lr-tb;direction:ltr;text-orientation:mixed;dominant-baseline:auto;baseline-shift:baseline;text-anchor:start;white-space:normal;shape-padding:0;shape-margin:0;inline-size:0;clip-rule:nonzero;display:inline;overflow:visible;visibility:visible;isolation:auto;mix-blend-mode:normal;color-interpolation:sRGB;color-interpolation-filters:linearRGB;solid-color:#000000;solid-opacity:1;vector-effect:none;fill:#000000;fill-opacity:1;fill-rule:nonzero;stroke:none;stroke-width:2.8791;stroke-linecap:butt;stroke-linejoin:miter;stroke-miterlimit:10;stroke-dasharray:none;stroke-dashoffset:0;stroke-opacity:1.0;color-rendering:auto;image-rendering:auto;shape-rendering:auto;text-rendering:auto;enable-background:accumulate;stop-color:#000000;stop-opacity:1;" />
      </g>
      <rect
         id="rect194"
         height="26.1"
         width="18.1"
         stroke-miterlimit="10"
         stroke-width="2.9875"
         stroke="#000000"
         fill="#b5b5b6"
         y="1112.9"
         x="930.20001" />
      <rect
         id="rect196"
         height="26.6"
         width="18.1"
         stroke-miterlimit="10"
         stroke-width="2.9875"
         stroke="#000000"
         fill="#b5b5b6"
         y="1171.7"
         x="644.79999" />
      <g
         style="opacity:1"
         id="g911">
        <path
           id="path913"
           d="m 945.70001,1129.5 c 0,3.5899 -2.91015,6.5 -6.5,6.5 -3.58985,0 -6.5,-2.9101 -6.5,-6.5 0,-3.5899 2.91015,-6.5 6.5,-6.5 3.58985,0 6.5,2.9101 6.5,6.5"
           style="color:#000000;font-style:normal;font-variant:normal;font-weight:normal;font-stretch:normal;font-size:medium;line-height:normal;font-family:sans-serif;font-variant-ligatures:normal;font-variant-position:normal;font-variant-caps:normal;font-variant-numeric:normal;font-variant-alternates:normal;font-variant-east-asian:normal;font-feature-settings:normal;font-variation-settings:normal;text-indent:0;text-align:start;text-decoration:none;text-decoration-line:none;text-decoration-style:solid;text-decoration-color:#000000;letter-spacing:normal;word-spacing:normal;text-transform:none;writing-mode:lr-tb;direction:ltr;text-orientation:mixed;dominant-baseline:auto;baseline-shift:baseline;text-anchor:start;white-space:normal;shape-padding:0;shape-margin:0;inline-size:0;clip-rule:nonzero;display:inline;overflow:visible;visibility:visible;isolation:auto;mix-blend-mode:normal;color-interpolation:sRGB;color-interpolation-filters:linearRGB;solid-color:#000000;solid-opacity:1;vector-effect:none;fill:#898989;fill-opacity:1;fill-rule:nonzero;stroke:none;stroke-width:2.9875;stroke-linecap:butt;stroke-linejoin:miter;stroke-miterlimit:10;stroke-dasharray:none;stroke-dashoffset:0;stroke-opacity:1.0;color-rendering:auto;image-rendering:auto;shape-rendering:auto;text-rendering:auto;enable-background:accumulate;stop-color:#000000;stop-opacity:1;" />
        <path
           id="path915"
           d="M 939.19922 1121.5059 C 934.80209 1121.5059 931.20703 1125.1029 931.20703 1129.5 C 931.20703 1133.8971 934.80209 1137.4941 939.19922 1137.4941 C 943.59635 1137.4941 947.19336 1133.8971 947.19336 1129.5 C 947.19336 1125.1029 943.59635 1121.5059 939.19922 1121.5059 z M 939.19922 1124.4941 C 941.98179 1124.4941 944.20703 1126.7174 944.20703 1129.5 C 944.20703 1132.2826 941.98179 1134.5059 939.19922 1134.5059 C 936.41665 1134.5059 934.19336 1132.2826 934.19336 1129.5 C 934.19336 1126.7174 936.41665 1124.4941 939.19922 1124.4941 z "
           style="color:#000000;font-style:normal;font-variant:normal;font-weight:normal;font-stretch:normal;font-size:medium;line-height:normal;font-family:sans-serif;font-variant-ligatures:normal;font-variant-position:normal;font-variant-caps:normal;font-variant-numeric:normal;font-variant-alternates:normal;font-variant-east-asian:normal;font-feature-settings:normal;font-variation-settings:normal;text-indent:0;text-align:start;text-decoration:none;text-decoration-line:none;text-decoration-style:solid;text-decoration-color:#000000;letter-spacing:normal;word-spacing:normal;text-transform:none;writing-mode:lr-tb;direction:ltr;text-orientation:mixed;dominant-baseline:auto;baseline-shift:baseline;text-anchor:start;white-space:normal;shape-padding:0;shape-margin:0;inline-size:0;clip-rule:nonzero;display:inline;overflow:visible;visibility:visible;isolation:auto;mix-blend-mode:normal;color-interpolation:sRGB;color-interpolation-filters:linearRGB;solid-color:#000000;solid-opacity:1;vector-effect:none;fill:#000000;fill-opacity:1;fill-rule:nonzero;stroke:none;stroke-width:2.9875;stroke-linecap:butt;stroke-linejoin:miter;stroke-miterlimit:10;stroke-dasharray:none;stroke-dashoffset:0;stroke-opacity:1.0;color-rendering:auto;image-rendering:auto;shape-rendering:auto;text-rendering:auto;enable-background:accumulate;stop-color:#000000;stop-opacity:1;" />
      </g>
      <g
         style="opacity:1"
         id="g917">
        <path
           id="path919"
           d="m 660.70001,1188.7 c 0,3.5899 -2.91015,6.5 -6.5,6.5 -3.58985,0 -6.5,-2.9101 -6.5,-6.5 0,-3.5899 2.91015,-6.5 6.5,-6.5 3.58985,0 6.5,2.9101 6.5,6.5"
           style="color:#000000;font-style:normal;font-variant:normal;font-weight:normal;font-stretch:normal;font-size:medium;line-height:normal;font-family:sans-serif;font-variant-ligatures:normal;font-variant-position:normal;font-variant-caps:normal;font-variant-numeric:normal;font-variant-alternates:normal;font-variant-east-asian:normal;font-feature-settings:normal;font-variation-settings:normal;text-indent:0;text-align:start;text-decoration:none;text-decoration-line:none;text-decoration-style:solid;text-decoration-color:#000000;letter-spacing:normal;word-spacing:normal;text-transform:none;writing-mode:lr-tb;direction:ltr;text-orientation:mixed;dominant-baseline:auto;baseline-shift:baseline;text-anchor:start;white-space:normal;shape-padding:0;shape-margin:0;inline-size:0;clip-rule:nonzero;display:inline;overflow:visible;visibility:visible;isolation:auto;mix-blend-mode:normal;color-interpolation:sRGB;color-interpolation-filters:linearRGB;solid-color:#000000;solid-opacity:1;vector-effect:none;fill:#898989;fill-opacity:1;fill-rule:nonzero;stroke:none;stroke-width:2.9875;stroke-linecap:butt;stroke-linejoin:miter;stroke-miterlimit:10;stroke-dasharray:none;stroke-dashoffset:0;stroke-opacity:1.0;color-rendering:auto;image-rendering:auto;shape-rendering:auto;text-rendering:auto;enable-background:accumulate;stop-color:#000000;stop-opacity:1;" />
        <path
           id="path921"
           d="M 654.19922 1180.707 C 649.80209 1180.707 646.20703 1184.3021 646.20703 1188.6992 C 646.20703 1193.0964 649.80209 1196.6934 654.19922 1196.6934 C 658.59635 1196.6934 662.19336 1193.0964 662.19336 1188.6992 C 662.19336 1184.3021 658.59635 1180.707 654.19922 1180.707 z M 654.19922 1183.6934 C 656.98179 1183.6934 659.20703 1185.9167 659.20703 1188.6992 C 659.20703 1191.4818 656.98179 1193.707 654.19922 1193.707 C 651.41665 1193.707 649.19336 1191.4818 649.19336 1188.6992 C 649.19336 1185.9167 651.41665 1183.6934 654.19922 1183.6934 z "
           style="color:#000000;font-style:normal;font-variant:normal;font-weight:normal;font-stretch:normal;font-size:medium;line-height:normal;font-family:sans-serif;font-variant-ligatures:normal;font-variant-position:normal;font-variant-caps:normal;font-variant-numeric:normal;font-variant-alternates:normal;font-variant-east-asian:normal;font-feature-settings:normal;font-variation-settings:normal;text-indent:0;text-align:start;text-decoration:none;text-decoration-line:none;text-decoration-style:solid;text-decoration-color:#000000;letter-spacing:normal;word-spacing:normal;text-transform:none;writing-mode:lr-tb;direction:ltr;text-orientation:mixed;dominant-baseline:auto;baseline-shift:baseline;text-anchor:start;white-space:normal;shape-padding:0;shape-margin:0;inline-size:0;clip-rule:nonzero;display:inline;overflow:visible;visibility:visible;isolation:auto;mix-blend-mode:normal;color-interpolation:sRGB;color-interpolation-filters:linearRGB;solid-color:#000000;solid-opacity:1;vector-effect:none;fill:#000000;fill-opacity:1;fill-rule:nonzero;stroke:none;stroke-width:2.9875;stroke-linecap:butt;stroke-linejoin:miter;stroke-miterlimit:10;stroke-dasharray:none;stroke-dashoffset:0;stroke-opacity:1.0;color-rendering:auto;image-rendering:auto;shape-rendering:auto;text-rendering:auto;enable-background:accumulate;stop-color:#000000;stop-opacity:1;" />
      </g>
      <rect
         id="rect202"
         height="15.5"
         width="39.5"
         stroke-miterlimit="10"
         stroke-width="2.9875"
         stroke="#000000"
         fill="#f5ea5e"
         y="1098.3"
         x="919" />
      <rect
         id="rect204"
         height="15.5"
         width="39.5"
         stroke-miterlimit="10"
         stroke-width="2.9875"
         stroke="#000000"
         fill="#f5ea5e"
         y="1158.4"
         x="634.20001" />
      <g
         style="opacity:1"
         id="g889">
        <path
           id="path891"
           d="m 578.2,1165.3 -0.1,-11.6 148.9,-1.5 0.3,11.6 z"
           style="color:#000000;font-style:normal;font-variant:normal;font-weight:normal;font-stretch:normal;font-size:medium;line-height:normal;font-family:sans-serif;font-variant-ligatures:normal;font-variant-position:normal;font-variant-caps:normal;font-variant-numeric:normal;font-variant-alternates:normal;font-variant-east-asian:normal;font-feature-settings:normal;font-variation-settings:normal;text-indent:0;text-align:start;text-decoration:none;text-decoration-line:none;text-decoration-style:solid;text-decoration-color:#000000;letter-spacing:normal;word-spacing:normal;text-transform:none;writing-mode:lr-tb;direction:ltr;text-orientation:mixed;dominant-baseline:auto;baseline-shift:baseline;text-anchor:start;white-space:normal;shape-padding:0;shape-margin:0;inline-size:0;clip-rule:nonzero;display:inline;overflow:visible;visibility:visible;isolation:auto;mix-blend-mode:normal;color-interpolation:sRGB;color-interpolation-filters:linearRGB;solid-color:#000000;solid-opacity:1;vector-effect:none;fill:#f5ea5e;fill-opacity:1;fill-rule:nonzero;stroke:none;stroke-width:2.8079;stroke-linecap:butt;stroke-linejoin:miter;stroke-miterlimit:10;stroke-dasharray:none;stroke-dashoffset:0;stroke-opacity:1.0;color-rendering:auto;image-rendering:auto;shape-rendering:auto;text-rendering:auto;enable-background:accumulate;stop-color:#000000;stop-opacity:1;" />
        <path
           id="path893"
           d="M 728.36719 1150.7812 L 576.68359 1152.3105 L 576.80859 1166.7188 L 578.21484 1166.7031 L 728.74023 1165.1895 L 728.36719 1150.7812 z M 725.63281 1153.6172 L 725.85938 1162.4102 L 579.5918 1163.8828 L 579.51562 1155.0898 L 725.63281 1153.6172 z "
           style="color:#000000;font-style:normal;font-variant:normal;font-weight:normal;font-stretch:normal;font-size:medium;line-height:normal;font-family:sans-serif;font-variant-ligatures:normal;font-variant-position:normal;font-variant-caps:normal;font-variant-numeric:normal;font-variant-alternates:normal;font-variant-east-asian:normal;font-feature-settings:normal;font-variation-settings:normal;text-indent:0;text-align:start;text-decoration:none;text-decoration-line:none;text-decoration-style:solid;text-decoration-color:#000000;letter-spacing:normal;word-spacing:normal;text-transform:none;writing-mode:lr-tb;direction:ltr;text-orientation:mixed;dominant-baseline:auto;baseline-shift:baseline;text-anchor:start;white-space:normal;shape-padding:0;shape-margin:0;inline-size:0;clip-rule:nonzero;display:inline;overflow:visible;visibility:visible;isolation:auto;mix-blend-mode:normal;color-interpolation:sRGB;color-interpolation-filters:linearRGB;solid-color:#000000;solid-opacity:1;vector-effect:none;fill:#000000;fill-opacity:1;fill-rule:nonzero;stroke:none;stroke-width:2.8079;stroke-linecap:butt;stroke-linejoin:miter;stroke-miterlimit:10;stroke-dasharray:none;stroke-dashoffset:0;stroke-opacity:1.0;color-rendering:auto;image-rendering:auto;shape-rendering:auto;text-rendering:auto;enable-background:accumulate;stop-color:#000000;stop-opacity:1;" />
      </g>
      <g
         style="opacity:1"
         id="g895">
        <path
           id="path897"
           d="M 864.7,1105.7 V 1094 l 148.9,-1.5 0.3,11.6 z"
           style="color:#000000;font-style:normal;font-variant:normal;font-weight:normal;font-stretch:normal;font-size:medium;line-height:normal;font-family:sans-serif;font-variant-ligatures:normal;font-variant-position:normal;font-variant-caps:normal;font-variant-numeric:normal;font-variant-alternates:normal;font-variant-east-asian:normal;font-feature-settings:normal;font-variation-settings:normal;text-indent:0;text-align:start;text-decoration:none;text-decoration-line:none;text-decoration-style:solid;text-decoration-color:#000000;letter-spacing:normal;word-spacing:normal;text-transform:none;writing-mode:lr-tb;direction:ltr;text-orientation:mixed;dominant-baseline:auto;baseline-shift:baseline;text-anchor:start;white-space:normal;shape-padding:0;shape-margin:0;inline-size:0;clip-rule:nonzero;display:inline;overflow:visible;visibility:visible;isolation:auto;mix-blend-mode:normal;color-interpolation:sRGB;color-interpolation-filters:linearRGB;solid-color:#000000;solid-opacity:1;vector-effect:none;fill:#f5ea5e;fill-opacity:1;fill-rule:nonzero;stroke:none;stroke-width:2.8079;stroke-linecap:butt;stroke-linejoin:miter;stroke-miterlimit:10;stroke-dasharray:none;stroke-dashoffset:0;stroke-opacity:1.0;color-rendering:auto;image-rendering:auto;shape-rendering:auto;text-rendering:auto;enable-background:accumulate;stop-color:#000000;stop-opacity:1;" />
        <path
           id="path899"
           d="M 1014.9668 1091.082 L 863.29688 1092.6094 L 863.29688 1107.1191 L 864.71484 1107.1035 L 1015.3398 1105.4883 L 1014.9668 1091.082 z M 1012.2324 1093.918 L 1012.459 1102.7109 L 866.10352 1104.2812 L 866.10352 1095.3906 L 1012.2324 1093.918 z "
           style="color:#000000;font-style:normal;font-variant:normal;font-weight:normal;font-stretch:normal;font-size:medium;line-height:normal;font-family:sans-serif;font-variant-ligatures:normal;font-variant-position:normal;font-variant-caps:normal;font-variant-numeric:normal;font-variant-alternates:normal;font-variant-east-asian:normal;font-feature-settings:normal;font-variation-settings:normal;text-indent:0;text-align:start;text-decoration:none;text-decoration-line:none;text-decoration-style:solid;text-decoration-color:#000000;letter-spacing:normal;word-spacing:normal;text-transform:none;writing-mode:lr-tb;direction:ltr;text-orientation:mixed;dominant-baseline:auto;baseline-shift:baseline;text-anchor:start;white-space:normal;shape-padding:0;shape-margin:0;inline-size:0;clip-rule:nonzero;display:inline;overflow:visible;visibility:visible;isolation:auto;mix-blend-mode:normal;color-interpolation:sRGB;color-interpolation-filters:linearRGB;solid-color:#000000;solid-opacity:1;vector-effect:none;fill:#000000;fill-opacity:1;fill-rule:nonzero;stroke:none;stroke-width:2.8079;stroke-linecap:butt;stroke-linejoin:miter;stroke-miterlimit:10;stroke-dasharray:none;stroke-dashoffset:0;stroke-opacity:1.0;color-rendering:auto;image-rendering:auto;shape-rendering:auto;text-rendering:auto;enable-background:accumulate;stop-color:#000000;stop-opacity:1;" />
      </g>
      <g
         style="opacity:1"
         id="g923">
        <path
           id="path925"
           d="m 803.99998,1157.9 c 0,3.8108 -3.08924,6.9 -6.9,6.9 -3.81076,0 -6.9,-3.0892 -6.9,-6.9 0,-3.8108 3.08924,-6.9 6.9,-6.9 3.81076,0 6.9,3.0892 6.9,6.9"
           style="color:#000000;font-style:normal;font-variant:normal;font-weight:normal;font-stretch:normal;font-size:medium;line-height:normal;font-family:sans-serif;font-variant-ligatures:normal;font-variant-position:normal;font-variant-caps:normal;font-variant-numeric:normal;font-variant-alternates:normal;font-variant-east-asian:normal;font-feature-settings:normal;font-variation-settings:normal;text-indent:0;text-align:start;text-decoration:none;text-decoration-line:none;text-decoration-style:solid;text-decoration-color:#000000;letter-spacing:normal;word-spacing:normal;text-transform:none;writing-mode:lr-tb;direction:ltr;text-orientation:mixed;dominant-baseline:auto;baseline-shift:baseline;text-anchor:start;white-space:normal;shape-padding:0;shape-margin:0;inline-size:0;clip-rule:nonzero;display:inline;overflow:visible;visibility:visible;isolation:auto;mix-blend-mode:normal;color-interpolation:sRGB;color-interpolation-filters:linearRGB;solid-color:#000000;solid-opacity:1;vector-effect:none;fill:#898989;fill-opacity:1;fill-rule:nonzero;stroke:none;stroke-width:3.1929;stroke-linecap:butt;stroke-linejoin:miter;stroke-miterlimit:10;stroke-dasharray:none;stroke-dashoffset:0;stroke-opacity:1.0;color-rendering:auto;image-rendering:auto;shape-rendering:auto;text-rendering:auto;enable-background:accumulate;stop-color:#000000;stop-opacity:1;" />
        <path
           id="path927"
           d="M 797.09961 1149.4043 C 792.42606 1149.4043 788.60352 1153.2268 788.60352 1157.9004 C 788.60352 1162.5739 792.42606 1166.3965 797.09961 1166.3965 C 801.77316 1166.3965 805.5957 1162.5739 805.5957 1157.9004 C 805.5957 1153.2268 801.77316 1149.4043 797.09961 1149.4043 z M 797.09961 1152.5957 C 800.04759 1152.5957 802.4043 1154.9524 802.4043 1157.9004 C 802.4043 1160.8484 800.04759 1163.2031 797.09961 1163.2031 C 794.15163 1163.2031 791.79688 1160.8484 791.79688 1157.9004 C 791.79688 1154.9524 794.15163 1152.5957 797.09961 1152.5957 z "
           style="color:#000000;font-style:normal;font-variant:normal;font-weight:normal;font-stretch:normal;font-size:medium;line-height:normal;font-family:sans-serif;font-variant-ligatures:normal;font-variant-position:normal;font-variant-caps:normal;font-variant-numeric:normal;font-variant-alternates:normal;font-variant-east-asian:normal;font-feature-settings:normal;font-variation-settings:normal;text-indent:0;text-align:start;text-decoration:none;text-decoration-line:none;text-decoration-style:solid;text-decoration-color:#000000;letter-spacing:normal;word-spacing:normal;text-transform:none;writing-mode:lr-tb;direction:ltr;text-orientation:mixed;dominant-baseline:auto;baseline-shift:baseline;text-anchor:start;white-space:normal;shape-padding:0;shape-margin:0;inline-size:0;clip-rule:nonzero;display:inline;overflow:visible;visibility:visible;isolation:auto;mix-blend-mode:normal;color-interpolation:sRGB;color-interpolation-filters:linearRGB;solid-color:#000000;solid-opacity:1;vector-effect:none;fill:#000000;fill-opacity:1;fill-rule:nonzero;stroke:none;stroke-width:3.1929;stroke-linecap:butt;stroke-linejoin:miter;stroke-miterlimit:10;stroke-dasharray:none;stroke-dashoffset:0;stroke-opacity:1.0;color-rendering:auto;image-rendering:auto;shape-rendering:auto;text-rendering:auto;enable-background:accumulate;stop-color:#000000;stop-opacity:1;" />
      </g>
    </g>
  </g>
</svg>
