<?xml version="1.0" encoding="UTF-8" standalone="no"?>
<svg
   xmlns:dc="http://purl.org/dc/elements/1.1/"
   xmlns:cc="http://creativecommons.org/ns#"
   xmlns:rdf="http://www.w3.org/1999/02/22-rdf-syntax-ns#"
   xmlns:svg="http://www.w3.org/2000/svg"
   xmlns="http://www.w3.org/2000/svg"
   xmlns:sodipodi="http://sodipodi.sourceforge.net/DTD/sodipodi-0.dtd"
   xmlns:inkscape="http://www.inkscape.org/namespaces/inkscape"
   sodipodi:docname="2020-IE-09_answerA.svg"
   inkscape:version="1.0 (4035a4fb49, 2020-05-01)"
   id="svg8"
   version="1.1"
   viewBox="0 0 70 80"
   height="80mm"
   width="70mm">
  <defs
     id="defs2" />
  <sodipodi:namedview
     inkscape:snap-global="false"
     fit-margin-bottom="0"
     fit-margin-right="0"
     fit-margin-left="0"
     fit-margin-top="0"
     showgrid="false"
     inkscape:document-rotation="0"
     inkscape:current-layer="layer1"
     inkscape:document-units="mm"
     inkscape:cy="560"
     inkscape:cx="400"
     inkscape:zoom="0.35"
     inkscape:pageshadow="2"
     inkscape:pageopacity="0.0"
     borderopacity="1.0"
     bordercolor="#666666"
     pagecolor="#ffffff"
     id="base" />
  <metadata
     id="metadata5">
    <rdf:RDF>
      <cc:Work
         rdf:about="">
        <dc:format>image/svg+xml</dc:format>
        <dc:type
           rdf:resource="http://purl.org/dc/dcmitype/StillImage" />
        <dc:title></dc:title>
      </cc:Work>
    </rdf:RDF>
  </metadata>
  <g
     transform="translate(62.199152,-1.5955265)"
     id="layer1"
     inkscape:groupmode="layer"
     inkscape:label="Ebene 1">
    <g
       transform="translate(-83.268512,-103.28645)"
       id="g1418-5-2-4-1"
       style="opacity:0.999">
      <path
         id="path837-20-9-6-1-6-4-6"
         style="fill:#0000ff;stroke:none;stroke-width:0.365001;stroke-linecap:round;stroke-linejoin:round;stroke-miterlimit:4;stroke-dasharray:none;stroke-opacity:1"
         d="m 55.765537,125.88221 c -1.84743,0.0483 -3.6868,0.13377 -5.49113,0.20567 -6.8175,0.27946 -15.23927,0.76855 -22.34593,3.71243 -4.35496,1.66686 -6.759389,3.44193 -6.632999,5.60409 l -0.0558,0.002 c -0.20388,1.67031 0.19552,4.55781 0.13642,6.9479 -0.0416,1.68335 1.458649,1.48225 1.483449,2.36286 0.29651,10.52191 5.56509,21.38454 20.64732,26.29401 0.2904,1.31687 -0.11962,0.95517 0.0615,1.61024 0.83824,3.03178 26.40146,1.95941 26.41906,-0.79427 0.0323,-0.0158 0.10562,-0.51374 0.16692,-1.07693 0.151,-1.14808 -0.29353,0.12188 1.10794,-0.76016 12.04284,-4.90747 16.90569,-12.85878 18.76216,-26.14209 0.0937,-0.86045 0.50333,-0.194 0.48783,-1.07383 -0.0577,-3.27052 0.23068,-5.0544 -0.11059,-9.2723 l -0.093,0.003 c 0.005,-1.60567 -0.9882,-2.71805 -3.0334,-3.61375 -9.26167,-3.29806 -21.67959,-3.80564 -31.50971,-4.00905 z"
         sodipodi:nodetypes="ccccccccscccccccccc" />
      <g
         id="g1411-7-4-8-5">
        <path
           d="m 38.766717,126.99363 c -3.73694,0.52901 -7.49776,1.37703 -10.94868,2.80654 -0.32662,0.12502 -0.63879,0.25324 -0.93638,0.38396 -0.89257,0.39209 -1.65605,0.80897 -2.29857,1.24385 -0.1071,0.0725 -0.21118,0.14512 -0.3116,0.21859 -1.50617,1.10206 -2.26594,2.31183 -2.40967,3.52847 -0.0192,0.16223 -0.0272,0.32453 -0.0248,0.48679 0.002,0.16226 0.0154,0.32446 0.0388,0.48628 0.1871,1.2945 1.0352,2.56708 2.38539,3.69693 0.50632,0.42369 1.08321,0.82744 1.72237,1.20458 0.21305,0.12571 0.43334,0.24834 0.65991,0.36793 0.45314,0.23919 0.9326,0.46561 1.43609,0.67748 0.50349,0.21187 1.03087,0.40937 1.57974,0.59014 0.54888,0.18078 1.11913,0.34503 1.70843,0.49093 4.62915,1.45319 10.73599,2.26306 17.26148,2.47841 -5.49564,-4.25973 -10.88455,-10.56228 -9.86245,-18.66088 z"
           style="fill:#0404c3;fill-opacity:1;stroke:none;stroke-width:0.387768;stroke-linecap:round;stroke-linejoin:round;stroke-miterlimit:4;stroke-dasharray:none;stroke-opacity:1"
           id="path837-20-4-0-6-4-22-9-9" />
        <path
           id="path1145-4-7-7-5-3-1"
           d="m 55.636677,125.1494 c -1.85723,0.0485 -3.70084,0.1353 -5.50195,0.20703 -6.82425,0.27973 -15.31927,0.75667 -22.58594,3.76367 -2.69146,1.03143 -4.49145,2.27324 -5.50781,3.70508 -1.01754,1.43348 -1.17006,3.08547 -0.58399,4.55859 1.16846,2.93698 4.8596,5.28495 9.69141,6.49024 0.001,3.4e-4 0.003,-3.5e-4 0.004,0 9.57113,3.00352 25.0061,3.29292 37.80274,1.34571 9.08718,-1.38276 16.82219,-3.8009 20.24805,-7.60743 0.69951,-0.77724 1.21674,-1.62529 1.49414,-2.54297 a 0.73257328,0.73257328 0 0 0 0.006,-0.0156 c 0.36239,-1.30647 0.30353,-2.51546 -0.27735,-3.51367 -0.58088,-0.99822 -1.60102,-1.72217 -2.9668,-2.32032 a 0.73257328,0.73257328 0 0 0 -0.0488,-0.0195 c -9.43424,-3.35952 -21.89768,-3.84713 -31.74024,-4.05079 a 0.73257328,0.73257328 0 0 0 -0.0332,0 z m 0.0176,1.46484 c 9.80387,0.20309 22.1483,0.73218 31.23047,3.95703 1.19722,0.52733 1.92214,1.09804 2.27539,1.70508 0.3538,0.60799 0.42323,1.31774 0.13281,2.37305 -0.20399,0.67247 -0.59307,1.33279 -1.17773,1.98242 -2.8688,3.18758 -10.43385,5.77724 -19.38085,7.13868 -12.60069,1.9174 -27.98555,1.58282 -37.14649,-1.29298 a 0.73257328,0.73257328 0 0 0 -0.0449,-0.0117 c -4.57441,-1.13253 -7.86611,-3.46514 -8.72462,-5.62305 -0.42925,-1.07895 -0.35398,-2.08516 0.41602,-3.16992 0.76999,-1.08476 2.31637,-2.22135 4.8457,-3.18945 a 0.73257328,0.73257328 0 0 0 0.0176,-0.006 c 6.94352,-2.8763 15.28884,-3.37915 22.0957,-3.6582 1.80113,-0.0717 3.62986,-0.15695 5.46094,-0.20508 z"
           style="color:#000000;font-style:normal;font-variant:normal;font-weight:normal;font-stretch:normal;font-size:medium;line-height:normal;font-family:sans-serif;font-variant-ligatures:normal;font-variant-position:normal;font-variant-caps:normal;font-variant-numeric:normal;font-variant-alternates:normal;font-variant-east-asian:normal;font-feature-settings:normal;font-variation-settings:normal;text-indent:0;text-align:start;text-decoration:none;text-decoration-line:none;text-decoration-style:solid;text-decoration-color:#000000;letter-spacing:normal;word-spacing:normal;text-transform:none;writing-mode:lr-tb;direction:ltr;text-orientation:mixed;dominant-baseline:auto;baseline-shift:baseline;text-anchor:start;white-space:normal;shape-padding:0;shape-margin:0;inline-size:0;clip-rule:nonzero;display:inline;overflow:visible;visibility:visible;opacity:1;isolation:auto;mix-blend-mode:normal;color-interpolation:sRGB;color-interpolation-filters:linearRGB;solid-color:#000000;solid-opacity:1;vector-effect:none;fill:#0c0ce4;fill-opacity:1;fill-rule:nonzero;stroke:none;stroke-width:0.365001;stroke-linecap:round;stroke-linejoin:round;stroke-miterlimit:4;stroke-dasharray:none;stroke-dashoffset:0;stroke-opacity:1;color-rendering:auto;image-rendering:auto;shape-rendering:auto;text-rendering:auto;enable-background:accumulate;stop-color:#000000;stop-opacity:1" />
      </g>
      <path
         id="path837-20-1-4-6-1-6-1-5-1"
         style="font-variation-settings:normal;opacity:1;vector-effect:none;fill:#5050f8;fill-opacity:1;stroke:none;stroke-width:0.341273;stroke-linecap:round;stroke-linejoin:round;stroke-miterlimit:4;stroke-dasharray:none;stroke-dashoffset:0;stroke-opacity:1;stop-color:#000000;stop-opacity:1"
         d="m 74.235835,128.49533 c 0.003,0.0369 0.005,0.0734 0.006,0.11113 l 0.0698,-0.004 c 0.67806,4.41354 -0.38479,9.107 -2.53887,13.23128 2.97293,-0.56707 5.69347,-1.25563 8.0176,-2.06231 0.54084,-2.60792 0.60355,-5.31721 0.31471,-8.07754 l -0.0703,0.003 c -0.0132,-1.05607 -0.77253,-1.77834 -2.32079,-2.34827 -1.10654,-0.32902 -2.27169,-0.61172 -3.47834,-0.85428 z" />
    </g>
    <g
       style="opacity:0.999"
       id="g1418-5-2-4"
       transform="translate(-83.082181,-93.06156)">
      <path
         sodipodi:nodetypes="ccccccccscccccccccc"
         d="m 55.765537,125.88221 c -1.84743,0.0483 -3.6868,0.13377 -5.49113,0.20567 -6.8175,0.27946 -15.23927,0.76855 -22.34593,3.71243 -4.35496,1.66686 -6.759389,3.44193 -6.632999,5.60409 l -0.0558,0.002 c -0.20388,1.67031 0.19552,4.55781 0.13642,6.9479 -0.0416,1.68335 1.458649,1.48225 1.483449,2.36286 0.29651,10.52191 5.56509,21.38454 20.64732,26.29401 0.2904,1.31687 -0.11962,0.95517 0.0615,1.61024 0.83824,3.03178 26.40146,1.95941 26.41906,-0.79427 0.0323,-0.0158 0.10562,-0.51374 0.16692,-1.07693 0.151,-1.14808 -0.29353,0.12188 1.10794,-0.76016 12.04284,-4.90747 16.90569,-12.85878 18.76216,-26.14209 0.0937,-0.86045 0.50333,-0.194 0.48783,-1.07383 -0.0577,-3.27052 0.23068,-5.0544 -0.11059,-9.2723 l -0.093,0.003 c 0.005,-1.60567 -0.9882,-2.71805 -3.0334,-3.61375 -9.26167,-3.29806 -21.67959,-3.80564 -31.50971,-4.00905 z"
         style="fill:#0000ff;stroke:none;stroke-width:0.365001;stroke-linecap:round;stroke-linejoin:round;stroke-miterlimit:4;stroke-dasharray:none;stroke-opacity:1"
         id="path837-20-9-6-1-6-4" />
      <g
         id="g1411-7-4-8">
        <path
           id="path837-20-4-0-6-4-22-9"
           style="fill:#0404c3;fill-opacity:1;stroke:none;stroke-width:0.387768;stroke-linecap:round;stroke-linejoin:round;stroke-miterlimit:4;stroke-dasharray:none;stroke-opacity:1"
           d="m 38.766717,126.99363 c -3.73694,0.52901 -7.49776,1.37703 -10.94868,2.80654 -0.32662,0.12502 -0.63879,0.25324 -0.93638,0.38396 -0.89257,0.39209 -1.65605,0.80897 -2.29857,1.24385 -0.1071,0.0725 -0.21118,0.14512 -0.3116,0.21859 -1.50617,1.10206 -2.26594,2.31183 -2.40967,3.52847 -0.0192,0.16223 -0.0272,0.32453 -0.0248,0.48679 0.002,0.16226 0.0154,0.32446 0.0388,0.48628 0.1871,1.2945 1.0352,2.56708 2.38539,3.69693 0.50632,0.42369 1.08321,0.82744 1.72237,1.20458 0.21305,0.12571 0.43334,0.24834 0.65991,0.36793 0.45314,0.23919 0.9326,0.46561 1.43609,0.67748 0.50349,0.21187 1.03087,0.40937 1.57974,0.59014 0.54888,0.18078 1.11913,0.34503 1.70843,0.49093 4.62915,1.45319 10.73599,2.26306 17.26148,2.47841 -5.49564,-4.25973 -10.88455,-10.56228 -9.86245,-18.66088 z" />
        <path
           style="color:#000000;font-style:normal;font-variant:normal;font-weight:normal;font-stretch:normal;font-size:medium;line-height:normal;font-family:sans-serif;font-variant-ligatures:normal;font-variant-position:normal;font-variant-caps:normal;font-variant-numeric:normal;font-variant-alternates:normal;font-variant-east-asian:normal;font-feature-settings:normal;font-variation-settings:normal;text-indent:0;text-align:start;text-decoration:none;text-decoration-line:none;text-decoration-style:solid;text-decoration-color:#000000;letter-spacing:normal;word-spacing:normal;text-transform:none;writing-mode:lr-tb;direction:ltr;text-orientation:mixed;dominant-baseline:auto;baseline-shift:baseline;text-anchor:start;white-space:normal;shape-padding:0;shape-margin:0;inline-size:0;clip-rule:nonzero;display:inline;overflow:visible;visibility:visible;opacity:1;isolation:auto;mix-blend-mode:normal;color-interpolation:sRGB;color-interpolation-filters:linearRGB;solid-color:#000000;solid-opacity:1;vector-effect:none;fill:#0c0ce4;fill-opacity:1;fill-rule:nonzero;stroke:none;stroke-width:0.365001;stroke-linecap:round;stroke-linejoin:round;stroke-miterlimit:4;stroke-dasharray:none;stroke-dashoffset:0;stroke-opacity:1;color-rendering:auto;image-rendering:auto;shape-rendering:auto;text-rendering:auto;enable-background:accumulate;stop-color:#000000;stop-opacity:1"
           d="m 55.636677,125.1494 c -1.85723,0.0485 -3.70084,0.1353 -5.50195,0.20703 -6.82425,0.27973 -15.31927,0.75667 -22.58594,3.76367 -2.69146,1.03143 -4.49145,2.27324 -5.50781,3.70508 -1.01754,1.43348 -1.17006,3.08547 -0.58399,4.55859 1.16846,2.93698 4.8596,5.28495 9.69141,6.49024 0.001,3.4e-4 0.003,-3.5e-4 0.004,0 9.57113,3.00352 25.0061,3.29292 37.80274,1.34571 9.08718,-1.38276 16.82219,-3.8009 20.24805,-7.60743 0.69951,-0.77724 1.21674,-1.62529 1.49414,-2.54297 a 0.73257328,0.73257328 0 0 0 0.006,-0.0156 c 0.36239,-1.30647 0.30353,-2.51546 -0.27735,-3.51367 -0.58088,-0.99822 -1.60102,-1.72217 -2.9668,-2.32032 a 0.73257328,0.73257328 0 0 0 -0.0488,-0.0195 c -9.43424,-3.35952 -21.89768,-3.84713 -31.74024,-4.05079 a 0.73257328,0.73257328 0 0 0 -0.0332,0 z m 0.0176,1.46484 c 9.80387,0.20309 22.1483,0.73218 31.23047,3.95703 1.19722,0.52733 1.92214,1.09804 2.27539,1.70508 0.3538,0.60799 0.42323,1.31774 0.13281,2.37305 -0.20399,0.67247 -0.59307,1.33279 -1.17773,1.98242 -2.8688,3.18758 -10.43385,5.77724 -19.38085,7.13868 -12.60069,1.9174 -27.98555,1.58282 -37.14649,-1.29298 a 0.73257328,0.73257328 0 0 0 -0.0449,-0.0117 c -4.57441,-1.13253 -7.86611,-3.46514 -8.72462,-5.62305 -0.42925,-1.07895 -0.35398,-2.08516 0.41602,-3.16992 0.76999,-1.08476 2.31637,-2.22135 4.8457,-3.18945 a 0.73257328,0.73257328 0 0 0 0.0176,-0.006 c 6.94352,-2.8763 15.28884,-3.37915 22.0957,-3.6582 1.80113,-0.0717 3.62986,-0.15695 5.46094,-0.20508 z"
           id="path1145-4-7-7-5-3" />
      </g>
      <path
         d="m 74.235835,128.49533 c 0.003,0.0369 0.005,0.0734 0.006,0.11113 l 0.0698,-0.004 c 0.67806,4.41354 -0.38479,9.107 -2.53887,13.23128 2.97293,-0.56707 5.69347,-1.25563 8.0176,-2.06231 0.54084,-2.60792 0.60355,-5.31721 0.31471,-8.07754 l -0.0703,0.003 c -0.0132,-1.05607 -0.77253,-1.77834 -2.32079,-2.34827 -1.10654,-0.32902 -2.27169,-0.61172 -3.47834,-0.85428 z"
         style="font-variation-settings:normal;opacity:1;vector-effect:none;fill:#5050f8;fill-opacity:1;stroke:none;stroke-width:0.341273;stroke-linecap:round;stroke-linejoin:round;stroke-miterlimit:4;stroke-dasharray:none;stroke-dashoffset:0;stroke-opacity:1;stop-color:#000000;stop-opacity:1"
         id="path837-20-1-4-6-1-6-1-5" />
    </g>
    <g
       transform="rotate(-14.5938,-452.86886,405.19474)"
       id="g1418-5-2-4-7"
       style="opacity:0.999">
      <path
         id="path837-20-9-6-1-6-4-4"
         style="fill:#0000ff;stroke:none;stroke-width:0.365001;stroke-linecap:round;stroke-linejoin:round;stroke-miterlimit:4;stroke-dasharray:none;stroke-opacity:1"
         d="m 55.765537,125.88221 c -1.84743,0.0483 -3.6868,0.13377 -5.49113,0.20567 -6.8175,0.27946 -15.23927,0.76855 -22.34593,3.71243 -4.35496,1.66686 -6.759389,3.44193 -6.632999,5.60409 l -0.0558,0.002 c -0.20388,1.67031 0.19552,4.55781 0.13642,6.9479 -0.0416,1.68335 1.458649,1.48225 1.483449,2.36286 0.29651,10.52191 5.56509,21.38454 20.64732,26.29401 0.2904,1.31687 -0.11962,0.95517 0.0615,1.61024 0.83824,3.03178 26.40146,1.95941 26.41906,-0.79427 0.0323,-0.0158 0.10562,-0.51374 0.16692,-1.07693 0.151,-1.14808 -0.29353,0.12188 1.10794,-0.76016 12.04284,-4.90747 16.90569,-12.85878 18.76216,-26.14209 0.0937,-0.86045 0.50333,-0.194 0.48783,-1.07383 -0.0577,-3.27052 0.23068,-5.0544 -0.11059,-9.2723 l -0.093,0.003 c 0.005,-1.60567 -0.9882,-2.71805 -3.0334,-3.61375 -9.26167,-3.29806 -21.67959,-3.80564 -31.50971,-4.00905 z"
         sodipodi:nodetypes="ccccccccscccccccccc" />
      <g
         id="g1411-7-4-8-8">
        <path
           d="m 38.766717,126.99363 c -3.73694,0.52901 -7.49776,1.37703 -10.94868,2.80654 -0.32662,0.12502 -0.63879,0.25324 -0.93638,0.38396 -0.89257,0.39209 -1.65605,0.80897 -2.29857,1.24385 -0.1071,0.0725 -0.21118,0.14512 -0.3116,0.21859 -1.50617,1.10206 -2.26594,2.31183 -2.40967,3.52847 -0.0192,0.16223 -0.0272,0.32453 -0.0248,0.48679 0.002,0.16226 0.0154,0.32446 0.0388,0.48628 0.1871,1.2945 1.0352,2.56708 2.38539,3.69693 0.50632,0.42369 1.08321,0.82744 1.72237,1.20458 0.21305,0.12571 0.43334,0.24834 0.65991,0.36793 0.45314,0.23919 0.9326,0.46561 1.43609,0.67748 0.50349,0.21187 1.03087,0.40937 1.57974,0.59014 0.54888,0.18078 1.11913,0.34503 1.70843,0.49093 4.62915,1.45319 10.73599,2.26306 17.26148,2.47841 -5.49564,-4.25973 -10.88455,-10.56228 -9.86245,-18.66088 z"
           style="fill:#0404c3;fill-opacity:1;stroke:none;stroke-width:0.387768;stroke-linecap:round;stroke-linejoin:round;stroke-miterlimit:4;stroke-dasharray:none;stroke-opacity:1"
           id="path837-20-4-0-6-4-22-9-4" />
        <path
           id="path1145-4-7-7-5-3-7"
           d="m 55.636677,125.1494 c -1.85723,0.0485 -3.70084,0.1353 -5.50195,0.20703 -6.82425,0.27973 -15.31927,0.75667 -22.58594,3.76367 -2.69146,1.03143 -4.49145,2.27324 -5.50781,3.70508 -1.01754,1.43348 -1.17006,3.08547 -0.58399,4.55859 1.16846,2.93698 4.8596,5.28495 9.69141,6.49024 0.001,3.4e-4 0.003,-3.5e-4 0.004,0 9.57113,3.00352 25.0061,3.29292 37.80274,1.34571 9.08718,-1.38276 16.82219,-3.8009 20.24805,-7.60743 0.69951,-0.77724 1.21674,-1.62529 1.49414,-2.54297 a 0.73257328,0.73257328 0 0 0 0.006,-0.0156 c 0.36239,-1.30647 0.30353,-2.51546 -0.27735,-3.51367 -0.58088,-0.99822 -1.60102,-1.72217 -2.9668,-2.32032 a 0.73257328,0.73257328 0 0 0 -0.0488,-0.0195 c -9.43424,-3.35952 -21.89768,-3.84713 -31.74024,-4.05079 a 0.73257328,0.73257328 0 0 0 -0.0332,0 z m 0.0176,1.46484 c 9.80387,0.20309 22.1483,0.73218 31.23047,3.95703 1.19722,0.52733 1.92214,1.09804 2.27539,1.70508 0.3538,0.60799 0.42323,1.31774 0.13281,2.37305 -0.20399,0.67247 -0.59307,1.33279 -1.17773,1.98242 -2.8688,3.18758 -10.43385,5.77724 -19.38085,7.13868 -12.60069,1.9174 -27.98555,1.58282 -37.14649,-1.29298 a 0.73257328,0.73257328 0 0 0 -0.0449,-0.0117 c -4.57441,-1.13253 -7.86611,-3.46514 -8.72462,-5.62305 -0.42925,-1.07895 -0.35398,-2.08516 0.41602,-3.16992 0.76999,-1.08476 2.31637,-2.22135 4.8457,-3.18945 a 0.73257328,0.73257328 0 0 0 0.0176,-0.006 c 6.94352,-2.8763 15.28884,-3.37915 22.0957,-3.6582 1.80113,-0.0717 3.62986,-0.15695 5.46094,-0.20508 z"
           style="color:#000000;font-style:normal;font-variant:normal;font-weight:normal;font-stretch:normal;font-size:medium;line-height:normal;font-family:sans-serif;font-variant-ligatures:normal;font-variant-position:normal;font-variant-caps:normal;font-variant-numeric:normal;font-variant-alternates:normal;font-variant-east-asian:normal;font-feature-settings:normal;font-variation-settings:normal;text-indent:0;text-align:start;text-decoration:none;text-decoration-line:none;text-decoration-style:solid;text-decoration-color:#000000;letter-spacing:normal;word-spacing:normal;text-transform:none;writing-mode:lr-tb;direction:ltr;text-orientation:mixed;dominant-baseline:auto;baseline-shift:baseline;text-anchor:start;white-space:normal;shape-padding:0;shape-margin:0;inline-size:0;clip-rule:nonzero;display:inline;overflow:visible;visibility:visible;opacity:1;isolation:auto;mix-blend-mode:normal;color-interpolation:sRGB;color-interpolation-filters:linearRGB;solid-color:#000000;solid-opacity:1;vector-effect:none;fill:#0c0ce4;fill-opacity:1;fill-rule:nonzero;stroke:none;stroke-width:0.365001;stroke-linecap:round;stroke-linejoin:round;stroke-miterlimit:4;stroke-dasharray:none;stroke-dashoffset:0;stroke-opacity:1;color-rendering:auto;image-rendering:auto;shape-rendering:auto;text-rendering:auto;enable-background:accumulate;stop-color:#000000;stop-opacity:1" />
      </g>
      <path
         id="path837-20-1-4-6-1-6-1-5-4"
         style="font-variation-settings:normal;opacity:1;vector-effect:none;fill:#5050f8;fill-opacity:1;stroke:none;stroke-width:0.341273;stroke-linecap:round;stroke-linejoin:round;stroke-miterlimit:4;stroke-dasharray:none;stroke-dashoffset:0;stroke-opacity:1;stop-color:#000000;stop-opacity:1"
         d="m 74.235835,128.49533 c 0.003,0.0369 0.005,0.0734 0.006,0.11113 l 0.0698,-0.004 c 0.67806,4.41354 -0.38479,9.107 -2.53887,13.23128 2.97293,-0.56707 5.69347,-1.25563 8.0176,-2.06231 0.54084,-2.60792 0.60355,-5.31721 0.31471,-8.07754 l -0.0703,0.003 c -0.0132,-1.05607 -0.77253,-1.77834 -2.32079,-2.34827 -1.10654,-0.32902 -2.27169,-0.61172 -3.47834,-0.85428 z" />
    </g>
    <g
       id="g1307-4-1-2-8-9"
       transform="matrix(0.96040133,-0.25005484,0.25005484,0.96040133,-118.1799,-89.11501)"
       style="opacity:0.999">
      <path
         transform="scale(0.26458333)"
         d="m 359.53125,463.98438 c -0.12665,0.7412 -0.2839,1.49788 -0.50391,2.29101 -0.90909,3.00752 -2.62777,5.86373 -5.05664,8.5625 -11.89542,13.21724 -40.80833,22.67739 -74.88867,27.86328 -47.99773,7.30364 -106.24582,6.12601 -141.64453,-4.98633 C 117.90636,492.8793 103.8909,482.70185 101.71289,472 c -0.22236,1.15274 -0.31353,2.30717 -0.24609,3.46094 l -0.21094,0.008 c -0.77057,6.31298 0.73899,17.22635 0.51562,26.25977 -0.15722,6.36226 3.01959,4.01546 3.11329,7.34375 1.1207,39.76784 21.0334,80.82342 78.03711,99.3789 1.09757,4.97715 -0.45213,3.61008 0.23242,6.08594 3.16815,11.4587 99.78504,7.40566 99.85156,-3.00195 0.12208,-0.0597 0.39917,-1.94172 0.63086,-4.07032 0.57071,-4.3392 -1.1094,0.46065 4.1875,-2.87304 45.51624,-18.54792 63.89549,-48.60005 70.91211,-98.80469 0.35414,-3.2521 1.90233,-0.73325 1.84375,-4.05859 -0.21808,-12.36102 0.87187,-19.10326 -0.41797,-35.04493 l -0.35156,0.0117 c 0.003,-0.94959 -0.0967,-1.84863 -0.2793,-2.71093 z"
         style="fill:#0000ff;stroke:none;stroke-width:1.37953;stroke-linecap:round;stroke-linejoin:round;stroke-miterlimit:4;stroke-dasharray:none;stroke-opacity:1"
         id="path837-20-49-9-8-5-3-7" />
      <path
         d="m 28.067201,135.35834 c -0.09702,-0.002 -0.191497,0.002 -0.287322,0.002 0.147789,3.05772 0.719802,6.13253 1.84123,9.07128 3.107199,1.48413 8.309569,1.04735 8.309569,-3.26492 0,-0.87392 -0.093,-1.62264 -0.59324,-2.37298 -1.18013,-1.7702 -5.620101,-3.37498 -9.270237,-3.43545 z"
         style="opacity:0.999;fill:#ffffff;stroke:none;stroke-width:0.264583px;stroke-linecap:butt;stroke-linejoin:miter;stroke-opacity:1"
         id="path1381-8-4-7" />
      <path
         id="path1369-2-8-5"
         style="opacity:0.999;fill:#ffffff;stroke:none;stroke-width:0.264583px;stroke-linecap:butt;stroke-linejoin:miter;stroke-opacity:1"
         d="m 32.732549,150.22105 c 2.077178,2.89319 4.886283,5.50347 8.574154,7.63932 0.03997,-0.55491 0.02267,-1.17 -0.05426,-1.86242 -0.132239,-1.19012 -0.32322,-2.26655 -1.30483,-3.08456 -2.486673,-2.07223 -4.651806,-2.57321 -7.215064,-2.69234 z" />
      <path
         id="path1373-4-6-1"
         style="opacity:0.999;fill:#ffffff;stroke:none;stroke-width:0.264583px;stroke-linecap:butt;stroke-linejoin:miter;stroke-opacity:1"
         d="m 85.392899,148.7214 c -1.960869,-0.0144 -3.533166,1.24211 -4.866886,3.24269 -0.8123,1.21845 -1.080963,2.76898 -0.237712,4.03386 0.332859,0.4993 0.764389,0.91418 1.227315,1.29398 3.274594,-1.99419 5.826508,-4.36929 7.806243,-7.21248 -0.46586,-0.25844 -0.950601,-0.49263 -1.439707,-0.72554 -0.895225,-0.4263 -1.721956,-0.62688 -2.489253,-0.63251 z" />
      <path
         d="m 89.799348,132.38234 c -1.51931,-0.033 -3.01017,0.54427 -4.05298,2.02158 -0.79019,1.48201 -1.63931,3.67253 -1.01906,5.09478 0.42548,0.93836 1.24985,1.82957 2.20555,2.49856 1.032,0.7224 2.49995,0.74054 3.67833,0.59324 1.18741,-0.14842 1.98067,-0.58497 2.76675,-1.32963 0.5809,-2.00623 1.04015,-4.16742 1.39837,-6.49831 -1.17169,-1.36128 -3.09495,-2.3393 -4.97696,-2.38022 z"
         style="opacity:0.999;fill:#ffffff;stroke:none;stroke-width:0.264583px;stroke-linecap:butt;stroke-linejoin:miter;stroke-opacity:1"
         id="path1375-7-7-58" />
      <path
         d="m 26.911711,124.88357 c -0.05883,0.305 -0.08295,0.61044 -0.06511,0.91571 l -0.05581,0.002 c -0.146902,1.2035 0.01741,3.04094 0.09973,4.86689 0.950579,-0.65957 1.606778,-1.53267 1.792139,-2.83704 -0.943538,-0.92503 -1.563195,-1.92628 -1.770951,-2.94711 z"
         style="opacity:0.999;fill:#ffffff;stroke:none;stroke-width:0.264583px;stroke-linecap:butt;stroke-linejoin:miter;stroke-opacity:1"
         id="path1387-8-5-8" />
      <path
         transform="scale(0.26458333)"
         d="m 359.41016,457.98828 c 0.61477,2.40368 0.49286,5.13023 -0.38282,8.28711 -0.80177,2.65249 -2.23534,5.18688 -4.22851,7.59961 -0.81252,1.56278 -1.90226,3.10861 -3.2793,4.63867 -10.84275,12.04759 -39.43457,21.83491 -73.25,26.98047 -47.62465,7.24687 -105.77246,5.98241 -140.39648,-4.88672 a 2.7687809,2.7687809 0 0 0 -0.16993,-0.043 c -17.28907,-4.28046 -29.72988,-13.09806 -32.9746,-21.2539 -0.13234,-0.33263 -0.23132,-0.66096 -0.3379,-0.99024 -3.29359,-5.09198 -3.99748,-10.54667 -1.35742,-15.7832 -0.44059,0.52348 -0.86048,1.05211 -1.24218,1.58984 -3.845787,5.41792 -4.422103,11.66078 -2.207036,17.22852 4.416186,11.10036 18.366906,19.97586 36.628906,24.53125 0.004,0.001 0.0119,-10e-4 0.0156,0 36.17435,11.35189 94.5097,12.44551 142.875,5.08594 34.34521,-5.22618 63.58116,-14.36699 76.52929,-28.75391 2.64382,-2.9376 4.59805,-6.14098 5.64649,-9.60937 a 2.7687809,2.7687809 0 0 0 0.0234,-0.0605 c 1.36967,-4.93784 1.14659,-9.5065 -1.04882,-13.2793 -0.25718,-0.44194 -0.54158,-0.86685 -0.84375,-1.28125 z"
         style="color:#000000;font-style:normal;font-variant:normal;font-weight:normal;font-stretch:normal;font-size:medium;line-height:normal;font-family:sans-serif;font-variant-ligatures:normal;font-variant-position:normal;font-variant-caps:normal;font-variant-numeric:normal;font-variant-alternates:normal;font-variant-east-asian:normal;font-feature-settings:normal;font-variation-settings:normal;text-indent:0;text-align:start;text-decoration:none;text-decoration-line:none;text-decoration-style:solid;text-decoration-color:#000000;letter-spacing:normal;word-spacing:normal;text-transform:none;writing-mode:lr-tb;direction:ltr;text-orientation:mixed;dominant-baseline:auto;baseline-shift:baseline;text-anchor:start;white-space:normal;shape-padding:0;shape-margin:0;inline-size:0;clip-rule:nonzero;display:inline;overflow:visible;visibility:visible;opacity:1;isolation:auto;mix-blend-mode:normal;color-interpolation:sRGB;color-interpolation-filters:linearRGB;solid-color:#000000;solid-opacity:1;vector-effect:none;fill:#0c0ce4;fill-opacity:1;fill-rule:nonzero;stroke:none;stroke-width:1.37953;stroke-linecap:round;stroke-linejoin:round;stroke-miterlimit:4;stroke-dasharray:none;stroke-dashoffset:0;stroke-opacity:1;color-rendering:auto;image-rendering:auto;shape-rendering:auto;text-rendering:auto;enable-background:accumulate;stop-color:#000000;stop-opacity:1"
         id="path1145-3-5-0-1-10-7" />
      <path
         transform="matrix(0.26458333,0,0,0.26458333,-68.024092,-46.656341)"
         d="m 358.72461,648.16016 -0.0371,0.16211 c -0.21574,1.11915 -0.29083,2.23693 -0.23633,3.35937 l -0.20508,0.008 -0.0156,0.10157 c -0.30112,2.46686 -0.24734,5.64392 -0.0957,9.10937 v 0.0312 l 0.0156,0.0293 c 1.15905,1.97752 2.64843,3.86049 4.39063,5.65429 l 0.0957,0.10352 0.0898,-0.10937 c 1.20072,-1.57626 2.09754,-3.41356 2.60547,-5.58985 l 0.0156,-0.0586 -0.0449,-0.0508 c -1.5155,-1.76856 -2.6629,-3.558 -3.35937,-5.3086 -0.12987,-0.32617 -0.23277,-0.64961 -0.33984,-0.98047 v -0.0156 l -0.008,-0.0156 c -0.70035,-1.08279 -1.27727,-2.18394 -1.73437,-3.29296 -0.0336,-0.0813 -0.0706,-0.15942 -0.10352,-0.24219 -0.16743,-0.42403 -0.3192,-0.84536 -0.44922,-1.26953 -6.7e-4,-0.002 6.7e-4,-0.004 0,-0.008 l -0.125,0.0137 0.11719,-0.0293 c -0.006,-0.0227 -0.01,-0.0387 -0.0137,-0.0527 v -0.006 c -0.12034,-0.40059 -0.22328,-0.80081 -0.31055,-1.20507 -0.0155,-0.0711 -0.0346,-0.13409 -0.0449,-0.1836 l -0.0137,-0.0586 z"
         style="color:#000000;font-style:normal;font-variant:normal;font-weight:normal;font-stretch:normal;font-size:medium;line-height:normal;font-family:sans-serif;font-variant-ligatures:normal;font-variant-position:normal;font-variant-caps:normal;font-variant-numeric:normal;font-variant-alternates:normal;font-variant-east-asian:normal;font-feature-settings:normal;font-variation-settings:normal;text-indent:0;text-align:start;text-decoration:none;text-decoration-line:none;text-decoration-style:solid;text-decoration-color:#000000;letter-spacing:normal;word-spacing:normal;text-transform:none;writing-mode:lr-tb;direction:ltr;text-orientation:mixed;dominant-baseline:auto;baseline-shift:baseline;text-anchor:start;white-space:normal;shape-padding:0;shape-margin:0;inline-size:0;clip-rule:nonzero;display:inline;overflow:visible;visibility:visible;opacity:0.999;isolation:auto;mix-blend-mode:normal;color-interpolation:sRGB;color-interpolation-filters:linearRGB;solid-color:#000000;solid-opacity:1;vector-effect:none;fill:#cccccc;fill-opacity:1;fill-rule:nonzero;stroke:none;stroke-width:0.245669;stroke-linecap:butt;stroke-linejoin:miter;stroke-miterlimit:4;stroke-dasharray:none;stroke-dashoffset:0;stroke-opacity:1;color-rendering:auto;image-rendering:auto;shape-rendering:auto;text-rendering:auto;enable-background:accumulate;stop-color:#000000"
         id="path1544-5-6-5"
         sodipodi:nodetypes="ccccccccccccccccccccsccccccccc" />
      <path
         style="font-variation-settings:normal;opacity:1;vector-effect:none;fill:#ffffff;fill-opacity:1;stroke:none;stroke-width:0.264583px;stroke-linecap:butt;stroke-linejoin:miter;stroke-miterlimit:4;stroke-dasharray:none;stroke-dashoffset:0;stroke-opacity:1;stop-color:#000000;stop-opacity:1"
         d="m 57.915317,159.12974 c 0.045,0.98636 0.5998,1.81508 1.44974,2.42314 0.84995,0.60806 1.99499,0.99547 3.22038,1.0992 1.22538,0.10373 2.53111,-0.0762 3.70241,-0.60286 2.06781,-1.03391 2.99967,-2.04764 3.22738,-2.94868 0.2277,-0.90104 -0.24874,-1.68938 -0.99751,-2.27251 -2.74,-1.88856 -4.43271,-2.00452 -7.38324,-1.66869 -1.84065,0.25155 -3.26201,2.28554 -3.21916,3.9704 z"
         id="path1379-2-4-4"
         sodipodi:nodetypes="csscsccc" />
      <path
         id="path837-2-3-0-2-33-6-0"
         style="font-variation-settings:normal;opacity:1;vector-effect:none;fill:#5050f8;fill-opacity:1;stroke:none;stroke-width:0.365001;stroke-linecap:round;stroke-linejoin:round;stroke-miterlimit:4;stroke-dasharray:none;stroke-dashoffset:0;stroke-opacity:1;stop-color:#000000;stop-opacity:1"
         d="m 32.206869,137.9636 c 0.51619,8.87765 5.21463,17.87228 17.92167,22.00858 0.25257,1.14537 -0.1045,0.83077 0.053,1.40051 0.51695,1.86971 11.83977,1.9437 18.39361,0.97533 -6.49494,0.54617 -14.7682,0.25643 -15.2083,-1.33533 -0.15754,-0.56976 0.19955,-0.25516 -0.0531,-1.40052 -12.1796,-3.96463 -16.99838,-12.39268 -17.83223,-20.90292 -1.14358,-0.22169 -2.23654,-0.47076 -3.27474,-0.74565 z" />
      <path
         sodipodi:nodetypes="csc"
         id="path833-7-0-4-7-6-97-1-7"
         d="m 74.585809,160.05225 c -1.48351,0.81471 -4.75142,1.40072 -8.57651,1.72771 -5.60804,0.47942 -12.41377,0.40212 -16.54974,-0.3273"
         style="font-variation-settings:normal;opacity:1;vector-effect:none;fill:none;fill-opacity:1;stroke:#000000;stroke-width:0.365001;stroke-linecap:round;stroke-linejoin:round;stroke-miterlimit:4;stroke-dasharray:none;stroke-dashoffset:0;stroke-opacity:1;stop-color:#000000;stop-opacity:1" />
      <path
         style="color:#000000;font-style:normal;font-variant:normal;font-weight:normal;font-stretch:normal;font-size:medium;line-height:normal;font-family:sans-serif;font-variant-ligatures:normal;font-variant-position:normal;font-variant-caps:normal;font-variant-numeric:normal;font-variant-alternates:normal;font-variant-east-asian:normal;font-feature-settings:normal;font-variation-settings:normal;text-indent:0;text-align:start;text-decoration:none;text-decoration-line:none;text-decoration-style:solid;text-decoration-color:#000000;letter-spacing:normal;word-spacing:normal;text-transform:none;writing-mode:lr-tb;direction:ltr;text-orientation:mixed;dominant-baseline:auto;baseline-shift:baseline;text-anchor:start;white-space:normal;shape-padding:0;shape-margin:0;inline-size:0;clip-rule:nonzero;display:inline;overflow:visible;visibility:visible;opacity:1;isolation:auto;mix-blend-mode:normal;color-interpolation:sRGB;color-interpolation-filters:linearRGB;solid-color:#000000;solid-opacity:1;vector-effect:none;fill:#0c0ce4;fill-opacity:1;fill-rule:nonzero;stroke:none;stroke-width:0.365001;stroke-linecap:round;stroke-linejoin:round;stroke-miterlimit:4;stroke-dasharray:none;stroke-dashoffset:0;stroke-opacity:1;color-rendering:auto;image-rendering:auto;shape-rendering:auto;text-rendering:auto;enable-background:accumulate;stop-color:#000000;stop-opacity:1"
         d="m 94.059119,134.0497 a 0.53250005,0.53250005 0 0 0 -0.36523,0.15234 c -3.17114,3.0999 -10.51787,5.50776 -19.13086,6.81836 -12.62764,1.9215 -28.01943,1.59258 -37.23633,-1.30078 a 0.53250005,0.53250005 0 0 0 -0.66797,0.34766 0.53250005,0.53250005 0 0 0 0.34961,0.66797 c 9.51492,2.98691 24.94369,3.28122 37.71484,1.33789 8.71089,-1.32551 16.1672,-3.64142 19.71485,-7.10938 a 0.53250005,0.53250005 0 0 0 0.008,-0.75391 0.53250005,0.53250005 0 0 0 -0.38672,-0.16015 z"
         id="path1178-9-4-1-4-9-7" />
      <path
         transform="matrix(0.26458333,0,0,0.26458333,-68.024092,-46.656341)"
         d="m 612.61914,682.85742 -0.0469,0.004 c -0.54054,0.0113 -1.05514,0.23093 -1.44141,0.60937 -6.9132,6.75791 -19.14912,12.65518 -34.52539,17.38477 l -0.0996,0.0293 0.0137,0.10351 c 0.12223,0.9281 0.33744,1.81802 0.69531,2.63867 l 0.002,0.002 c 0.20027,0.44163 0.42365,0.88026 0.66797,1.31445 l 0.0488,0.084 0.0937,-0.0293 c 15.64811,-4.78326 28.32995,-10.89095 36.08789,-18.47461 0.42726,-0.4173 0.66044,-0.99486 0.64258,-1.5918 l -0.002,-0.0469 -0.0312,-0.0332 c -0.64328,-0.68432 -1.33198,-1.34153 -2.06836,-1.96289 z m -215.0293,21.33985 c -0.93741,-0.008 -1.77225,0.59817 -2.05468,1.49218 -0.35422,1.12555 0.27401,2.32827 1.40039,2.67969 1.1378,0.35717 2.29897,0.70415 3.48047,1.04102 l 0.1582,0.0469 -0.002,-0.16601 c -0.0219,-1.53325 -0.14237,-2.97567 -0.47852,-4.36914 l -0.0156,-0.0684 -0.0684,-0.0195 c -0.60126,-0.17915 -1.21142,-0.35526 -1.79688,-0.53906 -0.20065,-0.0627 -0.41084,-0.0942 -0.62109,-0.0957 z"
         style="color:#000000;font-style:normal;font-variant:normal;font-weight:normal;font-stretch:normal;font-size:medium;line-height:normal;font-family:sans-serif;font-variant-ligatures:normal;font-variant-position:normal;font-variant-caps:normal;font-variant-numeric:normal;font-variant-alternates:normal;font-variant-east-asian:normal;font-feature-settings:normal;font-variation-settings:normal;text-indent:0;text-align:start;text-decoration:none;text-decoration-line:none;text-decoration-style:solid;text-decoration-color:#000000;letter-spacing:normal;word-spacing:normal;text-transform:none;writing-mode:lr-tb;direction:ltr;text-orientation:mixed;dominant-baseline:auto;baseline-shift:baseline;text-anchor:start;white-space:normal;shape-padding:0;shape-margin:0;inline-size:0;clip-rule:nonzero;display:inline;overflow:visible;visibility:visible;opacity:0.999;isolation:auto;mix-blend-mode:normal;color-interpolation:sRGB;color-interpolation-filters:linearRGB;solid-color:#000000;solid-opacity:1;vector-effect:none;fill:#cccccc;fill-opacity:1;fill-rule:nonzero;stroke:none;stroke-width:0.245669;stroke-linecap:butt;stroke-linejoin:miter;stroke-miterlimit:4;stroke-dasharray:none;stroke-dashoffset:0;stroke-opacity:1;color-rendering:auto;image-rendering:auto;shape-rendering:auto;text-rendering:auto;enable-background:accumulate;stop-color:#000000"
         id="path1804-6-7-7" />
      <path
         transform="matrix(0.26458333,0,0,0.26458333,-68.024092,-46.656341)"
         d="m 378.8125,697.46289 v 0.002 a 0.3118422,0.3118422 0 0 0 -0.29688,0.32813 c 0.53612,9.22008 2.27178,18.47487 5.48829,27.37891 a 0.3118422,0.3118422 0 0 0 0.31445,0.20507 c 4.27008,-0.29291 8.31708,-1.53779 11.33984,-3.98047 a 0.3118422,0.3118422 0 0 0 0.10157,-0.33984 c -2.19346,-6.7059 -3.56979,-13.59185 -4.2461,-20.49414 a 0.3118422,0.3118422 0 0 0 -0.25195,-0.27539 c -4.31579,-0.83664 -8.43884,-1.77547 -12.35547,-2.8125 a 0.3118422,0.3118422 0 0 0 -0.0937,-0.0117 z m 17.26562,49.21875 a 0.3118422,0.3118422 0 0 0 -0.2246,0.49805 c 4.52764,6.03016 10.03765,11.67261 16.67382,16.75195 a 0.3118422,0.3118422 0 0 0 0.49805,-0.29492 c -0.54845,-3.62619 -1.59285,-6.97157 -4.74414,-9.59766 -4.17373,-3.47811 -8.11953,-5.79543 -12.06445,-7.33789 a 0.3118422,0.3118422 0 0 0 -0.13868,-0.0195 z"
         style="color:#000000;font-style:normal;font-variant:normal;font-weight:normal;font-stretch:normal;font-size:medium;line-height:normal;font-family:sans-serif;font-variant-ligatures:normal;font-variant-position:normal;font-variant-caps:normal;font-variant-numeric:normal;font-variant-alternates:normal;font-variant-east-asian:normal;font-feature-settings:normal;font-variation-settings:normal;text-indent:0;text-align:start;text-decoration:none;text-decoration-line:none;text-decoration-style:solid;text-decoration-color:#000000;letter-spacing:normal;word-spacing:normal;text-transform:none;writing-mode:lr-tb;direction:ltr;text-orientation:mixed;dominant-baseline:auto;baseline-shift:baseline;text-anchor:start;white-space:normal;shape-padding:0;shape-margin:0;inline-size:0;clip-rule:nonzero;display:inline;overflow:visible;visibility:visible;isolation:auto;mix-blend-mode:normal;color-interpolation:sRGB;color-interpolation-filters:linearRGB;solid-color:#000000;solid-opacity:1;vector-effect:none;fill:#dfdffe;fill-opacity:1;fill-rule:nonzero;stroke:none;stroke-width:0.623622;stroke-linecap:round;stroke-linejoin:round;stroke-miterlimit:4;stroke-dasharray:none;stroke-dashoffset:0;stroke-opacity:1;color-rendering:auto;image-rendering:auto;shape-rendering:auto;text-rendering:auto;enable-background:accumulate;stop-color:#000000"
         id="path1695-3-63-17" />
      <path
         style="opacity:0.999;fill:#ffffff;stroke:none;stroke-width:0.264583px;stroke-linecap:butt;stroke-linejoin:miter;stroke-opacity:1"
         d="m 45.642729,152.91316 c 1.43425,1.02446 3.0008,1.33193 4.74601,1.1865 1.48674,-0.04 5.064221,-0.93604 5.81385,-3.91545 0.156701,-0.94022 -0.4391,-1.9564 -1.4415,-2.85049 -1.0024,-0.89409 -2.41141,-1.6661 -3.88113,-2.118 -1.469719,-0.45191 -3.00014,-0.5837 -4.24539,-0.19735 -1.84559,0.90159 -2.76741,2.46904 -2.88483,4.25934 -0.0265,0.45516 0.0345,0.91047 0.17445,1.3487 0.13995,0.43823 0.35884,0.85938 0.64811,1.24625 0.28928,0.38686 0.64894,0.73943 1.07043,1.0405 z"
         id="path1371-5-6-5"
         sodipodi:nodetypes="sccssccsss" />
      <path
         id="path1377-2-2-2"
         style="opacity:0.999;fill:#ffffff;stroke:none;stroke-width:0.264583px;stroke-linecap:butt;stroke-linejoin:miter;stroke-opacity:1"
         d="m 68.0676,146.6247 c -0.49946,1.3083 -0.81632,2.84299 -0.17663,4.16237 0.62691,1.28395 2.10583,1.8616 3.460689,1.92722 3.130219,-0.29162 6.809592,-1.0469 7.04392,-4.38356 0.118041,-1.41315 -0.731898,-2.76436 -1.926169,-3.46968 -2.143289,-1.11404 -7.59826,-0.29966 -8.40181,1.76365 z"
         sodipodi:nodetypes="cccccc" />
    </g>
    <g
       id="g1307-4-1-2-8-4"
       transform="matrix(0.99242033,0,0,0.99242033,-87.698073,-92.12348)"
       style="opacity:0.999">
      <path
         transform="scale(0.26458333)"
         d="m 359.53125,463.98438 c -0.12665,0.7412 -0.2839,1.49788 -0.50391,2.29101 -0.90909,3.00752 -2.62777,5.86373 -5.05664,8.5625 -11.89542,13.21724 -40.80833,22.67739 -74.88867,27.86328 -47.99773,7.30364 -106.24582,6.12601 -141.64453,-4.98633 C 117.90636,492.8793 103.8909,482.70185 101.71289,472 c -0.22236,1.15274 -0.31353,2.30717 -0.24609,3.46094 l -0.21094,0.008 c -0.77057,6.31298 0.73899,17.22635 0.51562,26.25977 -0.15722,6.36226 3.01959,4.01546 3.11329,7.34375 1.1207,39.76784 21.0334,80.82342 78.03711,99.3789 1.09757,4.97715 -0.45213,3.61008 0.23242,6.08594 3.16815,11.4587 99.78504,7.40566 99.85156,-3.00195 0.12208,-0.0597 0.39917,-1.94172 0.63086,-4.07032 0.57071,-4.3392 -1.1094,0.46065 4.1875,-2.87304 45.51624,-18.54792 63.89549,-48.60005 70.91211,-98.80469 0.35414,-3.2521 1.90233,-0.73325 1.84375,-4.05859 -0.21808,-12.36102 0.87187,-19.10326 -0.41797,-35.04493 l -0.35156,0.0117 c 0.003,-0.94959 -0.0967,-1.84863 -0.2793,-2.71093 z"
         style="fill:#0000ff;stroke:none;stroke-width:1.37953;stroke-linecap:round;stroke-linejoin:round;stroke-miterlimit:4;stroke-dasharray:none;stroke-opacity:1"
         id="path837-20-49-9-8-5-3-1" />
      <path
         d="m 28.067201,135.35834 c -0.09702,-0.002 -0.191497,0.002 -0.287322,0.002 0.147789,3.05772 0.719802,6.13253 1.84123,9.07128 3.107199,1.48413 8.309569,1.04735 8.309569,-3.26492 0,-0.87392 -0.093,-1.62264 -0.59324,-2.37298 -1.18013,-1.7702 -5.620101,-3.37498 -9.270237,-3.43545 z"
         style="opacity:0.999;fill:#ffffff;stroke:none;stroke-width:0.264583px;stroke-linecap:butt;stroke-linejoin:miter;stroke-opacity:1"
         id="path1381-8-4-6" />
      <path
         id="path1369-2-8-2"
         style="opacity:0.999;fill:#ffffff;stroke:none;stroke-width:0.264583px;stroke-linecap:butt;stroke-linejoin:miter;stroke-opacity:1"
         d="m 32.732549,150.22105 c 2.077178,2.89319 4.886283,5.50347 8.574154,7.63932 0.03997,-0.55491 0.02267,-1.17 -0.05426,-1.86242 -0.132239,-1.19012 -0.32322,-2.26655 -1.30483,-3.08456 -2.486673,-2.07223 -4.651806,-2.57321 -7.215064,-2.69234 z" />
      <path
         id="path1373-4-6-4"
         style="opacity:0.999;fill:#ffffff;stroke:none;stroke-width:0.264583px;stroke-linecap:butt;stroke-linejoin:miter;stroke-opacity:1"
         d="m 85.392899,148.7214 c -1.960869,-0.0144 -3.533166,1.24211 -4.866886,3.24269 -0.8123,1.21845 -1.080963,2.76898 -0.237712,4.03386 0.332859,0.4993 0.764389,0.91418 1.227315,1.29398 3.274594,-1.99419 5.826508,-4.36929 7.806243,-7.21248 -0.46586,-0.25844 -0.950601,-0.49263 -1.439707,-0.72554 -0.895225,-0.4263 -1.721956,-0.62688 -2.489253,-0.63251 z" />
      <path
         d="m 89.799348,132.38234 c -1.51931,-0.033 -3.01017,0.54427 -4.05298,2.02158 -0.79019,1.48201 -1.63931,3.67253 -1.01906,5.09478 0.42548,0.93836 1.24985,1.82957 2.20555,2.49856 1.032,0.7224 2.49995,0.74054 3.67833,0.59324 1.18741,-0.14842 1.98067,-0.58497 2.76675,-1.32963 0.5809,-2.00623 1.04015,-4.16742 1.39837,-6.49831 -1.17169,-1.36128 -3.09495,-2.3393 -4.97696,-2.38022 z"
         style="opacity:0.999;fill:#ffffff;stroke:none;stroke-width:0.264583px;stroke-linecap:butt;stroke-linejoin:miter;stroke-opacity:1"
         id="path1375-7-7-5" />
      <path
         d="m 26.911711,124.88357 c -0.05883,0.305 -0.08295,0.61044 -0.06511,0.91571 l -0.05581,0.002 c -0.146902,1.2035 0.01741,3.04094 0.09973,4.86689 0.950579,-0.65957 1.606778,-1.53267 1.792139,-2.83704 -0.943538,-0.92503 -1.563195,-1.92628 -1.770951,-2.94711 z"
         style="opacity:0.999;fill:#ffffff;stroke:none;stroke-width:0.264583px;stroke-linecap:butt;stroke-linejoin:miter;stroke-opacity:1"
         id="path1387-8-5-6" />
      <path
         transform="scale(0.26458333)"
         d="m 359.41016,457.98828 c 0.61477,2.40368 0.49286,5.13023 -0.38282,8.28711 -0.80177,2.65249 -2.23534,5.18688 -4.22851,7.59961 -0.81252,1.56278 -1.90226,3.10861 -3.2793,4.63867 -10.84275,12.04759 -39.43457,21.83491 -73.25,26.98047 -47.62465,7.24687 -105.77246,5.98241 -140.39648,-4.88672 a 2.7687809,2.7687809 0 0 0 -0.16993,-0.043 c -17.28907,-4.28046 -29.72988,-13.09806 -32.9746,-21.2539 -0.13234,-0.33263 -0.23132,-0.66096 -0.3379,-0.99024 -3.29359,-5.09198 -3.99748,-10.54667 -1.35742,-15.7832 -0.44059,0.52348 -0.86048,1.05211 -1.24218,1.58984 -3.845787,5.41792 -4.422103,11.66078 -2.207036,17.22852 4.416186,11.10036 18.366906,19.97586 36.628906,24.53125 0.004,0.001 0.0119,-10e-4 0.0156,0 36.17435,11.35189 94.5097,12.44551 142.875,5.08594 34.34521,-5.22618 63.58116,-14.36699 76.52929,-28.75391 2.64382,-2.9376 4.59805,-6.14098 5.64649,-9.60937 a 2.7687809,2.7687809 0 0 0 0.0234,-0.0605 c 1.36967,-4.93784 1.14659,-9.5065 -1.04882,-13.2793 -0.25718,-0.44194 -0.54158,-0.86685 -0.84375,-1.28125 z"
         style="color:#000000;font-style:normal;font-variant:normal;font-weight:normal;font-stretch:normal;font-size:medium;line-height:normal;font-family:sans-serif;font-variant-ligatures:normal;font-variant-position:normal;font-variant-caps:normal;font-variant-numeric:normal;font-variant-alternates:normal;font-variant-east-asian:normal;font-feature-settings:normal;font-variation-settings:normal;text-indent:0;text-align:start;text-decoration:none;text-decoration-line:none;text-decoration-style:solid;text-decoration-color:#000000;letter-spacing:normal;word-spacing:normal;text-transform:none;writing-mode:lr-tb;direction:ltr;text-orientation:mixed;dominant-baseline:auto;baseline-shift:baseline;text-anchor:start;white-space:normal;shape-padding:0;shape-margin:0;inline-size:0;clip-rule:nonzero;display:inline;overflow:visible;visibility:visible;opacity:1;isolation:auto;mix-blend-mode:normal;color-interpolation:sRGB;color-interpolation-filters:linearRGB;solid-color:#000000;solid-opacity:1;vector-effect:none;fill:#0c0ce4;fill-opacity:1;fill-rule:nonzero;stroke:none;stroke-width:1.37953;stroke-linecap:round;stroke-linejoin:round;stroke-miterlimit:4;stroke-dasharray:none;stroke-dashoffset:0;stroke-opacity:1;color-rendering:auto;image-rendering:auto;shape-rendering:auto;text-rendering:auto;enable-background:accumulate;stop-color:#000000;stop-opacity:1"
         id="path1145-3-5-0-1-10-6" />
      <path
         transform="matrix(0.26458333,0,0,0.26458333,-68.024092,-46.656341)"
         d="m 358.72461,648.16016 -0.0371,0.16211 c -0.21574,1.11915 -0.29083,2.23693 -0.23633,3.35937 l -0.20508,0.008 -0.0156,0.10157 c -0.30112,2.46686 -0.24734,5.64392 -0.0957,9.10937 v 0.0312 l 0.0156,0.0293 c 1.15905,1.97752 2.64843,3.86049 4.39063,5.65429 l 0.0957,0.10352 0.0898,-0.10937 c 1.20072,-1.57626 2.09754,-3.41356 2.60547,-5.58985 l 0.0156,-0.0586 -0.0449,-0.0508 c -1.5155,-1.76856 -2.6629,-3.558 -3.35937,-5.3086 -0.12987,-0.32617 -0.23277,-0.64961 -0.33984,-0.98047 v -0.0156 l -0.008,-0.0156 c -0.70035,-1.08279 -1.27727,-2.18394 -1.73437,-3.29296 -0.0336,-0.0813 -0.0706,-0.15942 -0.10352,-0.24219 -0.16743,-0.42403 -0.3192,-0.84536 -0.44922,-1.26953 -6.7e-4,-0.002 6.7e-4,-0.004 0,-0.008 l -0.125,0.0137 0.11719,-0.0293 c -0.006,-0.0227 -0.01,-0.0387 -0.0137,-0.0527 v -0.006 c -0.12034,-0.40059 -0.22328,-0.80081 -0.31055,-1.20507 -0.0155,-0.0711 -0.0346,-0.13409 -0.0449,-0.1836 l -0.0137,-0.0586 z"
         style="color:#000000;font-style:normal;font-variant:normal;font-weight:normal;font-stretch:normal;font-size:medium;line-height:normal;font-family:sans-serif;font-variant-ligatures:normal;font-variant-position:normal;font-variant-caps:normal;font-variant-numeric:normal;font-variant-alternates:normal;font-variant-east-asian:normal;font-feature-settings:normal;font-variation-settings:normal;text-indent:0;text-align:start;text-decoration:none;text-decoration-line:none;text-decoration-style:solid;text-decoration-color:#000000;letter-spacing:normal;word-spacing:normal;text-transform:none;writing-mode:lr-tb;direction:ltr;text-orientation:mixed;dominant-baseline:auto;baseline-shift:baseline;text-anchor:start;white-space:normal;shape-padding:0;shape-margin:0;inline-size:0;clip-rule:nonzero;display:inline;overflow:visible;visibility:visible;opacity:0.999;isolation:auto;mix-blend-mode:normal;color-interpolation:sRGB;color-interpolation-filters:linearRGB;solid-color:#000000;solid-opacity:1;vector-effect:none;fill:#cccccc;fill-opacity:1;fill-rule:nonzero;stroke:none;stroke-width:0.245669;stroke-linecap:butt;stroke-linejoin:miter;stroke-miterlimit:4;stroke-dasharray:none;stroke-dashoffset:0;stroke-opacity:1;color-rendering:auto;image-rendering:auto;shape-rendering:auto;text-rendering:auto;enable-background:accumulate;stop-color:#000000"
         id="path1544-5-6-8"
         sodipodi:nodetypes="ccccccccccccccccccccsccccccccc" />
      <path
         style="font-variation-settings:normal;opacity:1;vector-effect:none;fill:#ffffff;fill-opacity:1;stroke:none;stroke-width:0.264583px;stroke-linecap:butt;stroke-linejoin:miter;stroke-miterlimit:4;stroke-dasharray:none;stroke-dashoffset:0;stroke-opacity:1;stop-color:#000000;stop-opacity:1"
         d="m 57.915317,159.12974 c 0.045,0.98636 0.5998,1.81508 1.44974,2.42314 0.84995,0.60806 1.99499,0.99547 3.22038,1.0992 1.22538,0.10373 2.53111,-0.0762 3.70241,-0.60286 2.06781,-1.03391 2.99967,-2.04764 3.22738,-2.94868 0.2277,-0.90104 -0.24874,-1.68938 -0.99751,-2.27251 -2.74,-1.88856 -4.43271,-2.00452 -7.38324,-1.66869 -1.84065,0.25155 -3.26201,2.28554 -3.21916,3.9704 z"
         id="path1379-2-4-6"
         sodipodi:nodetypes="csscsccc" />
      <path
         id="path837-2-3-0-2-33-6-2"
         style="font-variation-settings:normal;opacity:1;vector-effect:none;fill:#5050f8;fill-opacity:1;stroke:none;stroke-width:0.365001;stroke-linecap:round;stroke-linejoin:round;stroke-miterlimit:4;stroke-dasharray:none;stroke-dashoffset:0;stroke-opacity:1;stop-color:#000000;stop-opacity:1"
         d="m 32.206869,137.9636 c 0.51619,8.87765 5.21463,17.87228 17.92167,22.00858 0.25257,1.14537 -0.1045,0.83077 0.053,1.40051 0.51695,1.86971 11.83977,1.9437 18.39361,0.97533 -6.49494,0.54617 -14.7682,0.25643 -15.2083,-1.33533 -0.15754,-0.56976 0.19955,-0.25516 -0.0531,-1.40052 -12.1796,-3.96463 -16.99838,-12.39268 -17.83223,-20.90292 -1.14358,-0.22169 -2.23654,-0.47076 -3.27474,-0.74565 z" />
      <path
         sodipodi:nodetypes="csc"
         id="path833-7-0-4-7-6-97-1-2"
         d="m 74.585809,160.05225 c -1.48351,0.81471 -4.75142,1.40072 -8.57651,1.72771 -5.60804,0.47942 -12.41377,0.40212 -16.54974,-0.3273"
         style="font-variation-settings:normal;opacity:1;vector-effect:none;fill:none;fill-opacity:1;stroke:#000000;stroke-width:0.365001;stroke-linecap:round;stroke-linejoin:round;stroke-miterlimit:4;stroke-dasharray:none;stroke-dashoffset:0;stroke-opacity:1;stop-color:#000000;stop-opacity:1" />
      <path
         style="color:#000000;font-style:normal;font-variant:normal;font-weight:normal;font-stretch:normal;font-size:medium;line-height:normal;font-family:sans-serif;font-variant-ligatures:normal;font-variant-position:normal;font-variant-caps:normal;font-variant-numeric:normal;font-variant-alternates:normal;font-variant-east-asian:normal;font-feature-settings:normal;font-variation-settings:normal;text-indent:0;text-align:start;text-decoration:none;text-decoration-line:none;text-decoration-style:solid;text-decoration-color:#000000;letter-spacing:normal;word-spacing:normal;text-transform:none;writing-mode:lr-tb;direction:ltr;text-orientation:mixed;dominant-baseline:auto;baseline-shift:baseline;text-anchor:start;white-space:normal;shape-padding:0;shape-margin:0;inline-size:0;clip-rule:nonzero;display:inline;overflow:visible;visibility:visible;opacity:1;isolation:auto;mix-blend-mode:normal;color-interpolation:sRGB;color-interpolation-filters:linearRGB;solid-color:#000000;solid-opacity:1;vector-effect:none;fill:#0c0ce4;fill-opacity:1;fill-rule:nonzero;stroke:none;stroke-width:0.365001;stroke-linecap:round;stroke-linejoin:round;stroke-miterlimit:4;stroke-dasharray:none;stroke-dashoffset:0;stroke-opacity:1;color-rendering:auto;image-rendering:auto;shape-rendering:auto;text-rendering:auto;enable-background:accumulate;stop-color:#000000;stop-opacity:1"
         d="m 94.059119,134.0497 a 0.53250005,0.53250005 0 0 0 -0.36523,0.15234 c -3.17114,3.0999 -10.51787,5.50776 -19.13086,6.81836 -12.62764,1.9215 -28.01943,1.59258 -37.23633,-1.30078 a 0.53250005,0.53250005 0 0 0 -0.66797,0.34766 0.53250005,0.53250005 0 0 0 0.34961,0.66797 c 9.51492,2.98691 24.94369,3.28122 37.71484,1.33789 8.71089,-1.32551 16.1672,-3.64142 19.71485,-7.10938 a 0.53250005,0.53250005 0 0 0 0.008,-0.75391 0.53250005,0.53250005 0 0 0 -0.38672,-0.16015 z"
         id="path1178-9-4-1-4-9-6" />
      <path
         transform="matrix(0.26458333,0,0,0.26458333,-68.024092,-46.656341)"
         d="m 612.61914,682.85742 -0.0469,0.004 c -0.54054,0.0113 -1.05514,0.23093 -1.44141,0.60937 -6.9132,6.75791 -19.14912,12.65518 -34.52539,17.38477 l -0.0996,0.0293 0.0137,0.10351 c 0.12223,0.9281 0.33744,1.81802 0.69531,2.63867 l 0.002,0.002 c 0.20027,0.44163 0.42365,0.88026 0.66797,1.31445 l 0.0488,0.084 0.0937,-0.0293 c 15.64811,-4.78326 28.32995,-10.89095 36.08789,-18.47461 0.42726,-0.4173 0.66044,-0.99486 0.64258,-1.5918 l -0.002,-0.0469 -0.0312,-0.0332 c -0.64328,-0.68432 -1.33198,-1.34153 -2.06836,-1.96289 z m -215.0293,21.33985 c -0.93741,-0.008 -1.77225,0.59817 -2.05468,1.49218 -0.35422,1.12555 0.27401,2.32827 1.40039,2.67969 1.1378,0.35717 2.29897,0.70415 3.48047,1.04102 l 0.1582,0.0469 -0.002,-0.16601 c -0.0219,-1.53325 -0.14237,-2.97567 -0.47852,-4.36914 l -0.0156,-0.0684 -0.0684,-0.0195 c -0.60126,-0.17915 -1.21142,-0.35526 -1.79688,-0.53906 -0.20065,-0.0627 -0.41084,-0.0942 -0.62109,-0.0957 z"
         style="color:#000000;font-style:normal;font-variant:normal;font-weight:normal;font-stretch:normal;font-size:medium;line-height:normal;font-family:sans-serif;font-variant-ligatures:normal;font-variant-position:normal;font-variant-caps:normal;font-variant-numeric:normal;font-variant-alternates:normal;font-variant-east-asian:normal;font-feature-settings:normal;font-variation-settings:normal;text-indent:0;text-align:start;text-decoration:none;text-decoration-line:none;text-decoration-style:solid;text-decoration-color:#000000;letter-spacing:normal;word-spacing:normal;text-transform:none;writing-mode:lr-tb;direction:ltr;text-orientation:mixed;dominant-baseline:auto;baseline-shift:baseline;text-anchor:start;white-space:normal;shape-padding:0;shape-margin:0;inline-size:0;clip-rule:nonzero;display:inline;overflow:visible;visibility:visible;opacity:0.999;isolation:auto;mix-blend-mode:normal;color-interpolation:sRGB;color-interpolation-filters:linearRGB;solid-color:#000000;solid-opacity:1;vector-effect:none;fill:#cccccc;fill-opacity:1;fill-rule:nonzero;stroke:none;stroke-width:0.245669;stroke-linecap:butt;stroke-linejoin:miter;stroke-miterlimit:4;stroke-dasharray:none;stroke-dashoffset:0;stroke-opacity:1;color-rendering:auto;image-rendering:auto;shape-rendering:auto;text-rendering:auto;enable-background:accumulate;stop-color:#000000"
         id="path1804-6-7-2" />
      <path
         transform="matrix(0.26458333,0,0,0.26458333,-68.024092,-46.656341)"
         d="m 378.8125,697.46289 v 0.002 a 0.3118422,0.3118422 0 0 0 -0.29688,0.32813 c 0.53612,9.22008 2.27178,18.47487 5.48829,27.37891 a 0.3118422,0.3118422 0 0 0 0.31445,0.20507 c 4.27008,-0.29291 8.31708,-1.53779 11.33984,-3.98047 a 0.3118422,0.3118422 0 0 0 0.10157,-0.33984 c -2.19346,-6.7059 -3.56979,-13.59185 -4.2461,-20.49414 a 0.3118422,0.3118422 0 0 0 -0.25195,-0.27539 c -4.31579,-0.83664 -8.43884,-1.77547 -12.35547,-2.8125 a 0.3118422,0.3118422 0 0 0 -0.0937,-0.0117 z m 17.26562,49.21875 a 0.3118422,0.3118422 0 0 0 -0.2246,0.49805 c 4.52764,6.03016 10.03765,11.67261 16.67382,16.75195 a 0.3118422,0.3118422 0 0 0 0.49805,-0.29492 c -0.54845,-3.62619 -1.59285,-6.97157 -4.74414,-9.59766 -4.17373,-3.47811 -8.11953,-5.79543 -12.06445,-7.33789 a 0.3118422,0.3118422 0 0 0 -0.13868,-0.0195 z"
         style="color:#000000;font-style:normal;font-variant:normal;font-weight:normal;font-stretch:normal;font-size:medium;line-height:normal;font-family:sans-serif;font-variant-ligatures:normal;font-variant-position:normal;font-variant-caps:normal;font-variant-numeric:normal;font-variant-alternates:normal;font-variant-east-asian:normal;font-feature-settings:normal;font-variation-settings:normal;text-indent:0;text-align:start;text-decoration:none;text-decoration-line:none;text-decoration-style:solid;text-decoration-color:#000000;letter-spacing:normal;word-spacing:normal;text-transform:none;writing-mode:lr-tb;direction:ltr;text-orientation:mixed;dominant-baseline:auto;baseline-shift:baseline;text-anchor:start;white-space:normal;shape-padding:0;shape-margin:0;inline-size:0;clip-rule:nonzero;display:inline;overflow:visible;visibility:visible;isolation:auto;mix-blend-mode:normal;color-interpolation:sRGB;color-interpolation-filters:linearRGB;solid-color:#000000;solid-opacity:1;vector-effect:none;fill:#dfdffe;fill-opacity:1;fill-rule:nonzero;stroke:none;stroke-width:0.623622;stroke-linecap:round;stroke-linejoin:round;stroke-miterlimit:4;stroke-dasharray:none;stroke-dashoffset:0;stroke-opacity:1;color-rendering:auto;image-rendering:auto;shape-rendering:auto;text-rendering:auto;enable-background:accumulate;stop-color:#000000"
         id="path1695-3-63-1" />
      <path
         style="opacity:0.999;fill:#ffffff;stroke:none;stroke-width:0.264583px;stroke-linecap:butt;stroke-linejoin:miter;stroke-opacity:1"
         d="m 45.642729,152.91316 c 1.43425,1.02446 3.0008,1.33193 4.74601,1.1865 1.48674,-0.04 5.064221,-0.93604 5.81385,-3.91545 0.156701,-0.94022 -0.4391,-1.9564 -1.4415,-2.85049 -1.0024,-0.89409 -2.41141,-1.6661 -3.88113,-2.118 -1.469719,-0.45191 -3.00014,-0.5837 -4.24539,-0.19735 -1.84559,0.90159 -2.76741,2.46904 -2.88483,4.25934 -0.0265,0.45516 0.0345,0.91047 0.17445,1.3487 0.13995,0.43823 0.35884,0.85938 0.64811,1.24625 0.28928,0.38686 0.64894,0.73943 1.07043,1.0405 z"
         id="path1371-5-6-9"
         sodipodi:nodetypes="sccssccsss" />
      <path
         id="path1377-2-2-4"
         style="opacity:0.999;fill:#ffffff;stroke:none;stroke-width:0.264583px;stroke-linecap:butt;stroke-linejoin:miter;stroke-opacity:1"
         d="m 68.0676,146.6247 c -0.49946,1.3083 -0.81632,2.84299 -0.17663,4.16237 0.62691,1.28395 2.10583,1.8616 3.460689,1.92722 3.130219,-0.29162 6.809592,-1.0469 7.04392,-4.38356 0.118041,-1.41315 -0.731898,-2.76436 -1.926169,-3.46968 -2.143289,-1.11404 -7.59826,-0.29966 -8.40181,1.76365 z"
         sodipodi:nodetypes="cccccc" />
    </g>
    <g
       style="opacity:0.999"
       transform="matrix(0.99242033,0,0,0.99242033,-87.511743,-81.89859)"
       id="g1307-4-1-2-8">
      <path
         id="path837-20-49-9-8-5-3"
         style="fill:#0000ff;stroke:none;stroke-width:1.37953;stroke-linecap:round;stroke-linejoin:round;stroke-miterlimit:4;stroke-dasharray:none;stroke-opacity:1"
         d="m 359.53125,463.98438 c -0.12665,0.7412 -0.2839,1.49788 -0.50391,2.29101 -0.90909,3.00752 -2.62777,5.86373 -5.05664,8.5625 -11.89542,13.21724 -40.80833,22.67739 -74.88867,27.86328 -47.99773,7.30364 -106.24582,6.12601 -141.64453,-4.98633 C 117.90636,492.8793 103.8909,482.70185 101.71289,472 c -0.22236,1.15274 -0.31353,2.30717 -0.24609,3.46094 l -0.21094,0.008 c -0.77057,6.31298 0.73899,17.22635 0.51562,26.25977 -0.15722,6.36226 3.01959,4.01546 3.11329,7.34375 1.1207,39.76784 21.0334,80.82342 78.03711,99.3789 1.09757,4.97715 -0.45213,3.61008 0.23242,6.08594 3.16815,11.4587 99.78504,7.40566 99.85156,-3.00195 0.12208,-0.0597 0.39917,-1.94172 0.63086,-4.07032 0.57071,-4.3392 -1.1094,0.46065 4.1875,-2.87304 45.51624,-18.54792 63.89549,-48.60005 70.91211,-98.80469 0.35414,-3.2521 1.90233,-0.73325 1.84375,-4.05859 -0.21808,-12.36102 0.87187,-19.10326 -0.41797,-35.04493 l -0.35156,0.0117 c 0.003,-0.94959 -0.0967,-1.84863 -0.2793,-2.71093 z"
         transform="scale(0.26458333)" />
      <path
         id="path1381-8-4"
         style="opacity:0.999;fill:#ffffff;stroke:none;stroke-width:0.264583px;stroke-linecap:butt;stroke-linejoin:miter;stroke-opacity:1"
         d="m 28.067201,135.35834 c -0.09702,-0.002 -0.191497,0.002 -0.287322,0.002 0.147789,3.05772 0.719802,6.13253 1.84123,9.07128 3.107199,1.48413 8.309569,1.04735 8.309569,-3.26492 0,-0.87392 -0.093,-1.62264 -0.59324,-2.37298 -1.18013,-1.7702 -5.620101,-3.37498 -9.270237,-3.43545 z" />
      <path
         d="m 32.732549,150.22105 c 2.077178,2.89319 4.886283,5.50347 8.574154,7.63932 0.03997,-0.55491 0.02267,-1.17 -0.05426,-1.86242 -0.132239,-1.19012 -0.32322,-2.26655 -1.30483,-3.08456 -2.486673,-2.07223 -4.651806,-2.57321 -7.215064,-2.69234 z"
         style="opacity:0.999;fill:#ffffff;stroke:none;stroke-width:0.264583px;stroke-linecap:butt;stroke-linejoin:miter;stroke-opacity:1"
         id="path1369-2-8" />
      <path
         d="m 85.392899,148.7214 c -1.960869,-0.0144 -3.533166,1.24211 -4.866886,3.24269 -0.8123,1.21845 -1.080963,2.76898 -0.237712,4.03386 0.332859,0.4993 0.764389,0.91418 1.227315,1.29398 3.274594,-1.99419 5.826508,-4.36929 7.806243,-7.21248 -0.46586,-0.25844 -0.950601,-0.49263 -1.439707,-0.72554 -0.895225,-0.4263 -1.721956,-0.62688 -2.489253,-0.63251 z"
         style="opacity:0.999;fill:#ffffff;stroke:none;stroke-width:0.264583px;stroke-linecap:butt;stroke-linejoin:miter;stroke-opacity:1"
         id="path1373-4-6" />
      <path
         id="path1375-7-7"
         style="opacity:0.999;fill:#ffffff;stroke:none;stroke-width:0.264583px;stroke-linecap:butt;stroke-linejoin:miter;stroke-opacity:1"
         d="m 89.799348,132.38234 c -1.51931,-0.033 -3.01017,0.54427 -4.05298,2.02158 -0.79019,1.48201 -1.63931,3.67253 -1.01906,5.09478 0.42548,0.93836 1.24985,1.82957 2.20555,2.49856 1.032,0.7224 2.49995,0.74054 3.67833,0.59324 1.18741,-0.14842 1.98067,-0.58497 2.76675,-1.32963 0.5809,-2.00623 1.04015,-4.16742 1.39837,-6.49831 -1.17169,-1.36128 -3.09495,-2.3393 -4.97696,-2.38022 z" />
      <path
         id="path1387-8-5"
         style="opacity:0.999;fill:#ffffff;stroke:none;stroke-width:0.264583px;stroke-linecap:butt;stroke-linejoin:miter;stroke-opacity:1"
         d="m 26.911711,124.88357 c -0.05883,0.305 -0.08295,0.61044 -0.06511,0.91571 l -0.05581,0.002 c -0.146902,1.2035 0.01741,3.04094 0.09973,4.86689 0.950579,-0.65957 1.606778,-1.53267 1.792139,-2.83704 -0.943538,-0.92503 -1.563195,-1.92628 -1.770951,-2.94711 z" />
      <path
         id="path1145-3-5-0-1-10"
         style="color:#000000;font-style:normal;font-variant:normal;font-weight:normal;font-stretch:normal;font-size:medium;line-height:normal;font-family:sans-serif;font-variant-ligatures:normal;font-variant-position:normal;font-variant-caps:normal;font-variant-numeric:normal;font-variant-alternates:normal;font-variant-east-asian:normal;font-feature-settings:normal;font-variation-settings:normal;text-indent:0;text-align:start;text-decoration:none;text-decoration-line:none;text-decoration-style:solid;text-decoration-color:#000000;letter-spacing:normal;word-spacing:normal;text-transform:none;writing-mode:lr-tb;direction:ltr;text-orientation:mixed;dominant-baseline:auto;baseline-shift:baseline;text-anchor:start;white-space:normal;shape-padding:0;shape-margin:0;inline-size:0;clip-rule:nonzero;display:inline;overflow:visible;visibility:visible;opacity:1;isolation:auto;mix-blend-mode:normal;color-interpolation:sRGB;color-interpolation-filters:linearRGB;solid-color:#000000;solid-opacity:1;vector-effect:none;fill:#0c0ce4;fill-opacity:1;fill-rule:nonzero;stroke:none;stroke-width:1.37953;stroke-linecap:round;stroke-linejoin:round;stroke-miterlimit:4;stroke-dasharray:none;stroke-dashoffset:0;stroke-opacity:1;color-rendering:auto;image-rendering:auto;shape-rendering:auto;text-rendering:auto;enable-background:accumulate;stop-color:#000000;stop-opacity:1"
         d="m 359.41016,457.98828 c 0.61477,2.40368 0.49286,5.13023 -0.38282,8.28711 -0.80177,2.65249 -2.23534,5.18688 -4.22851,7.59961 -0.81252,1.56278 -1.90226,3.10861 -3.2793,4.63867 -10.84275,12.04759 -39.43457,21.83491 -73.25,26.98047 -47.62465,7.24687 -105.77246,5.98241 -140.39648,-4.88672 a 2.7687809,2.7687809 0 0 0 -0.16993,-0.043 c -17.28907,-4.28046 -29.72988,-13.09806 -32.9746,-21.2539 -0.13234,-0.33263 -0.23132,-0.66096 -0.3379,-0.99024 -3.29359,-5.09198 -3.99748,-10.54667 -1.35742,-15.7832 -0.44059,0.52348 -0.86048,1.05211 -1.24218,1.58984 -3.845787,5.41792 -4.422103,11.66078 -2.207036,17.22852 4.416186,11.10036 18.366906,19.97586 36.628906,24.53125 0.004,0.001 0.0119,-10e-4 0.0156,0 36.17435,11.35189 94.5097,12.44551 142.875,5.08594 34.34521,-5.22618 63.58116,-14.36699 76.52929,-28.75391 2.64382,-2.9376 4.59805,-6.14098 5.64649,-9.60937 a 2.7687809,2.7687809 0 0 0 0.0234,-0.0605 c 1.36967,-4.93784 1.14659,-9.5065 -1.04882,-13.2793 -0.25718,-0.44194 -0.54158,-0.86685 -0.84375,-1.28125 z"
         transform="scale(0.26458333)" />
      <path
         sodipodi:nodetypes="ccccccccccccccccccccsccccccccc"
         id="path1544-5-6"
         style="color:#000000;font-style:normal;font-variant:normal;font-weight:normal;font-stretch:normal;font-size:medium;line-height:normal;font-family:sans-serif;font-variant-ligatures:normal;font-variant-position:normal;font-variant-caps:normal;font-variant-numeric:normal;font-variant-alternates:normal;font-variant-east-asian:normal;font-feature-settings:normal;font-variation-settings:normal;text-indent:0;text-align:start;text-decoration:none;text-decoration-line:none;text-decoration-style:solid;text-decoration-color:#000000;letter-spacing:normal;word-spacing:normal;text-transform:none;writing-mode:lr-tb;direction:ltr;text-orientation:mixed;dominant-baseline:auto;baseline-shift:baseline;text-anchor:start;white-space:normal;shape-padding:0;shape-margin:0;inline-size:0;clip-rule:nonzero;display:inline;overflow:visible;visibility:visible;opacity:0.999;isolation:auto;mix-blend-mode:normal;color-interpolation:sRGB;color-interpolation-filters:linearRGB;solid-color:#000000;solid-opacity:1;vector-effect:none;fill:#cccccc;fill-opacity:1;fill-rule:nonzero;stroke:none;stroke-width:0.245669;stroke-linecap:butt;stroke-linejoin:miter;stroke-miterlimit:4;stroke-dasharray:none;stroke-dashoffset:0;stroke-opacity:1;color-rendering:auto;image-rendering:auto;shape-rendering:auto;text-rendering:auto;enable-background:accumulate;stop-color:#000000"
         d="m 358.72461,648.16016 -0.0371,0.16211 c -0.21574,1.11915 -0.29083,2.23693 -0.23633,3.35937 l -0.20508,0.008 -0.0156,0.10157 c -0.30112,2.46686 -0.24734,5.64392 -0.0957,9.10937 v 0.0312 l 0.0156,0.0293 c 1.15905,1.97752 2.64843,3.86049 4.39063,5.65429 l 0.0957,0.10352 0.0898,-0.10937 c 1.20072,-1.57626 2.09754,-3.41356 2.60547,-5.58985 l 0.0156,-0.0586 -0.0449,-0.0508 c -1.5155,-1.76856 -2.6629,-3.558 -3.35937,-5.3086 -0.12987,-0.32617 -0.23277,-0.64961 -0.33984,-0.98047 v -0.0156 l -0.008,-0.0156 c -0.70035,-1.08279 -1.27727,-2.18394 -1.73437,-3.29296 -0.0336,-0.0813 -0.0706,-0.15942 -0.10352,-0.24219 -0.16743,-0.42403 -0.3192,-0.84536 -0.44922,-1.26953 -6.7e-4,-0.002 6.7e-4,-0.004 0,-0.008 l -0.125,0.0137 0.11719,-0.0293 c -0.006,-0.0227 -0.01,-0.0387 -0.0137,-0.0527 v -0.006 c -0.12034,-0.40059 -0.22328,-0.80081 -0.31055,-1.20507 -0.0155,-0.0711 -0.0346,-0.13409 -0.0449,-0.1836 l -0.0137,-0.0586 z"
         transform="matrix(0.26458333,0,0,0.26458333,-68.024092,-46.656341)" />
      <path
         sodipodi:nodetypes="csscsccc"
         id="path1379-2-4"
         d="m 57.915317,159.12974 c 0.045,0.98636 0.5998,1.81508 1.44974,2.42314 0.84995,0.60806 1.99499,0.99547 3.22038,1.0992 1.22538,0.10373 2.53111,-0.0762 3.70241,-0.60286 2.06781,-1.03391 2.99967,-2.04764 3.22738,-2.94868 0.2277,-0.90104 -0.24874,-1.68938 -0.99751,-2.27251 -2.74,-1.88856 -4.43271,-2.00452 -7.38324,-1.66869 -1.84065,0.25155 -3.26201,2.28554 -3.21916,3.9704 z"
         style="font-variation-settings:normal;opacity:1;vector-effect:none;fill:#ffffff;fill-opacity:1;stroke:none;stroke-width:0.264583px;stroke-linecap:butt;stroke-linejoin:miter;stroke-miterlimit:4;stroke-dasharray:none;stroke-dashoffset:0;stroke-opacity:1;stop-color:#000000;stop-opacity:1" />
      <path
         d="m 32.206869,137.9636 c 0.51619,8.87765 5.21463,17.87228 17.92167,22.00858 0.25257,1.14537 -0.1045,0.83077 0.053,1.40051 0.51695,1.86971 11.83977,1.9437 18.39361,0.97533 -6.49494,0.54617 -14.7682,0.25643 -15.2083,-1.33533 -0.15754,-0.56976 0.19955,-0.25516 -0.0531,-1.40052 -12.1796,-3.96463 -16.99838,-12.39268 -17.83223,-20.90292 -1.14358,-0.22169 -2.23654,-0.47076 -3.27474,-0.74565 z"
         style="font-variation-settings:normal;opacity:1;vector-effect:none;fill:#5050f8;fill-opacity:1;stroke:none;stroke-width:0.365001;stroke-linecap:round;stroke-linejoin:round;stroke-miterlimit:4;stroke-dasharray:none;stroke-dashoffset:0;stroke-opacity:1;stop-color:#000000;stop-opacity:1"
         id="path837-2-3-0-2-33-6" />
      <path
         style="font-variation-settings:normal;opacity:1;vector-effect:none;fill:none;fill-opacity:1;stroke:#000000;stroke-width:0.365001;stroke-linecap:round;stroke-linejoin:round;stroke-miterlimit:4;stroke-dasharray:none;stroke-dashoffset:0;stroke-opacity:1;stop-color:#000000;stop-opacity:1"
         d="m 74.585809,160.05225 c -1.48351,0.81471 -4.75142,1.40072 -8.57651,1.72771 -5.60804,0.47942 -12.41377,0.40212 -16.54974,-0.3273"
         id="path833-7-0-4-7-6-97-1"
         sodipodi:nodetypes="csc" />
      <path
         id="path1178-9-4-1-4-9"
         d="m 94.059119,134.0497 a 0.53250005,0.53250005 0 0 0 -0.36523,0.15234 c -3.17114,3.0999 -10.51787,5.50776 -19.13086,6.81836 -12.62764,1.9215 -28.01943,1.59258 -37.23633,-1.30078 a 0.53250005,0.53250005 0 0 0 -0.66797,0.34766 0.53250005,0.53250005 0 0 0 0.34961,0.66797 c 9.51492,2.98691 24.94369,3.28122 37.71484,1.33789 8.71089,-1.32551 16.1672,-3.64142 19.71485,-7.10938 a 0.53250005,0.53250005 0 0 0 0.008,-0.75391 0.53250005,0.53250005 0 0 0 -0.38672,-0.16015 z"
         style="color:#000000;font-style:normal;font-variant:normal;font-weight:normal;font-stretch:normal;font-size:medium;line-height:normal;font-family:sans-serif;font-variant-ligatures:normal;font-variant-position:normal;font-variant-caps:normal;font-variant-numeric:normal;font-variant-alternates:normal;font-variant-east-asian:normal;font-feature-settings:normal;font-variation-settings:normal;text-indent:0;text-align:start;text-decoration:none;text-decoration-line:none;text-decoration-style:solid;text-decoration-color:#000000;letter-spacing:normal;word-spacing:normal;text-transform:none;writing-mode:lr-tb;direction:ltr;text-orientation:mixed;dominant-baseline:auto;baseline-shift:baseline;text-anchor:start;white-space:normal;shape-padding:0;shape-margin:0;inline-size:0;clip-rule:nonzero;display:inline;overflow:visible;visibility:visible;opacity:1;isolation:auto;mix-blend-mode:normal;color-interpolation:sRGB;color-interpolation-filters:linearRGB;solid-color:#000000;solid-opacity:1;vector-effect:none;fill:#0c0ce4;fill-opacity:1;fill-rule:nonzero;stroke:none;stroke-width:0.365001;stroke-linecap:round;stroke-linejoin:round;stroke-miterlimit:4;stroke-dasharray:none;stroke-dashoffset:0;stroke-opacity:1;color-rendering:auto;image-rendering:auto;shape-rendering:auto;text-rendering:auto;enable-background:accumulate;stop-color:#000000;stop-opacity:1" />
      <path
         id="path1804-6-7"
         style="color:#000000;font-style:normal;font-variant:normal;font-weight:normal;font-stretch:normal;font-size:medium;line-height:normal;font-family:sans-serif;font-variant-ligatures:normal;font-variant-position:normal;font-variant-caps:normal;font-variant-numeric:normal;font-variant-alternates:normal;font-variant-east-asian:normal;font-feature-settings:normal;font-variation-settings:normal;text-indent:0;text-align:start;text-decoration:none;text-decoration-line:none;text-decoration-style:solid;text-decoration-color:#000000;letter-spacing:normal;word-spacing:normal;text-transform:none;writing-mode:lr-tb;direction:ltr;text-orientation:mixed;dominant-baseline:auto;baseline-shift:baseline;text-anchor:start;white-space:normal;shape-padding:0;shape-margin:0;inline-size:0;clip-rule:nonzero;display:inline;overflow:visible;visibility:visible;opacity:0.999;isolation:auto;mix-blend-mode:normal;color-interpolation:sRGB;color-interpolation-filters:linearRGB;solid-color:#000000;solid-opacity:1;vector-effect:none;fill:#cccccc;fill-opacity:1;fill-rule:nonzero;stroke:none;stroke-width:0.245669;stroke-linecap:butt;stroke-linejoin:miter;stroke-miterlimit:4;stroke-dasharray:none;stroke-dashoffset:0;stroke-opacity:1;color-rendering:auto;image-rendering:auto;shape-rendering:auto;text-rendering:auto;enable-background:accumulate;stop-color:#000000"
         d="m 612.61914,682.85742 -0.0469,0.004 c -0.54054,0.0113 -1.05514,0.23093 -1.44141,0.60937 -6.9132,6.75791 -19.14912,12.65518 -34.52539,17.38477 l -0.0996,0.0293 0.0137,0.10351 c 0.12223,0.9281 0.33744,1.81802 0.69531,2.63867 l 0.002,0.002 c 0.20027,0.44163 0.42365,0.88026 0.66797,1.31445 l 0.0488,0.084 0.0937,-0.0293 c 15.64811,-4.78326 28.32995,-10.89095 36.08789,-18.47461 0.42726,-0.4173 0.66044,-0.99486 0.64258,-1.5918 l -0.002,-0.0469 -0.0312,-0.0332 c -0.64328,-0.68432 -1.33198,-1.34153 -2.06836,-1.96289 z m -215.0293,21.33985 c -0.93741,-0.008 -1.77225,0.59817 -2.05468,1.49218 -0.35422,1.12555 0.27401,2.32827 1.40039,2.67969 1.1378,0.35717 2.29897,0.70415 3.48047,1.04102 l 0.1582,0.0469 -0.002,-0.16601 c -0.0219,-1.53325 -0.14237,-2.97567 -0.47852,-4.36914 l -0.0156,-0.0684 -0.0684,-0.0195 c -0.60126,-0.17915 -1.21142,-0.35526 -1.79688,-0.53906 -0.20065,-0.0627 -0.41084,-0.0942 -0.62109,-0.0957 z"
         transform="matrix(0.26458333,0,0,0.26458333,-68.024092,-46.656341)" />
      <path
         id="path1695-3-63"
         style="color:#000000;font-style:normal;font-variant:normal;font-weight:normal;font-stretch:normal;font-size:medium;line-height:normal;font-family:sans-serif;font-variant-ligatures:normal;font-variant-position:normal;font-variant-caps:normal;font-variant-numeric:normal;font-variant-alternates:normal;font-variant-east-asian:normal;font-feature-settings:normal;font-variation-settings:normal;text-indent:0;text-align:start;text-decoration:none;text-decoration-line:none;text-decoration-style:solid;text-decoration-color:#000000;letter-spacing:normal;word-spacing:normal;text-transform:none;writing-mode:lr-tb;direction:ltr;text-orientation:mixed;dominant-baseline:auto;baseline-shift:baseline;text-anchor:start;white-space:normal;shape-padding:0;shape-margin:0;inline-size:0;clip-rule:nonzero;display:inline;overflow:visible;visibility:visible;isolation:auto;mix-blend-mode:normal;color-interpolation:sRGB;color-interpolation-filters:linearRGB;solid-color:#000000;solid-opacity:1;vector-effect:none;fill:#dfdffe;fill-opacity:1;fill-rule:nonzero;stroke:none;stroke-width:0.623622;stroke-linecap:round;stroke-linejoin:round;stroke-miterlimit:4;stroke-dasharray:none;stroke-dashoffset:0;stroke-opacity:1;color-rendering:auto;image-rendering:auto;shape-rendering:auto;text-rendering:auto;enable-background:accumulate;stop-color:#000000"
         d="m 378.8125,697.46289 v 0.002 a 0.3118422,0.3118422 0 0 0 -0.29688,0.32813 c 0.53612,9.22008 2.27178,18.47487 5.48829,27.37891 a 0.3118422,0.3118422 0 0 0 0.31445,0.20507 c 4.27008,-0.29291 8.31708,-1.53779 11.33984,-3.98047 a 0.3118422,0.3118422 0 0 0 0.10157,-0.33984 c -2.19346,-6.7059 -3.56979,-13.59185 -4.2461,-20.49414 a 0.3118422,0.3118422 0 0 0 -0.25195,-0.27539 c -4.31579,-0.83664 -8.43884,-1.77547 -12.35547,-2.8125 a 0.3118422,0.3118422 0 0 0 -0.0937,-0.0117 z m 17.26562,49.21875 a 0.3118422,0.3118422 0 0 0 -0.2246,0.49805 c 4.52764,6.03016 10.03765,11.67261 16.67382,16.75195 a 0.3118422,0.3118422 0 0 0 0.49805,-0.29492 c -0.54845,-3.62619 -1.59285,-6.97157 -4.74414,-9.59766 -4.17373,-3.47811 -8.11953,-5.79543 -12.06445,-7.33789 a 0.3118422,0.3118422 0 0 0 -0.13868,-0.0195 z"
         transform="matrix(0.26458333,0,0,0.26458333,-68.024092,-46.656341)" />
      <path
         sodipodi:nodetypes="sccssccsss"
         id="path1371-5-6"
         d="m 45.642729,152.91316 c 1.43425,1.02446 3.0008,1.33193 4.74601,1.1865 1.48674,-0.04 5.064221,-0.93604 5.81385,-3.91545 0.156701,-0.94022 -0.4391,-1.9564 -1.4415,-2.85049 -1.0024,-0.89409 -2.41141,-1.6661 -3.88113,-2.118 -1.469719,-0.45191 -3.00014,-0.5837 -4.24539,-0.19735 -1.84559,0.90159 -2.76741,2.46904 -2.88483,4.25934 -0.0265,0.45516 0.0345,0.91047 0.17445,1.3487 0.13995,0.43823 0.35884,0.85938 0.64811,1.24625 0.28928,0.38686 0.64894,0.73943 1.07043,1.0405 z"
         style="opacity:0.999;fill:#ffffff;stroke:none;stroke-width:0.264583px;stroke-linecap:butt;stroke-linejoin:miter;stroke-opacity:1" />
      <path
         sodipodi:nodetypes="cccccc"
         d="m 68.0676,146.6247 c -0.49946,1.3083 -0.81632,2.84299 -0.17663,4.16237 0.62691,1.28395 2.10583,1.8616 3.460689,1.92722 3.130219,-0.29162 6.809592,-1.0469 7.04392,-4.38356 0.118041,-1.41315 -0.731898,-2.76436 -1.926169,-3.46968 -2.143289,-1.11404 -7.59826,-0.29966 -8.40181,1.76365 z"
         style="opacity:0.999;fill:#ffffff;stroke:none;stroke-width:0.264583px;stroke-linecap:butt;stroke-linejoin:miter;stroke-opacity:1"
         id="path1377-2-2" />
    </g>
  </g>
</svg>
