<?xml version="1.0" encoding="UTF-8" standalone="no"?>
<svg
   xmlns:dc="http://purl.org/dc/elements/1.1/"
   xmlns:cc="http://creativecommons.org/ns#"
   xmlns:rdf="http://www.w3.org/1999/02/22-rdf-syntax-ns#"
   xmlns:svg="http://www.w3.org/2000/svg"
   xmlns="http://www.w3.org/2000/svg"
   xmlns:sodipodi="http://sodipodi.sourceforge.net/DTD/sodipodi-0.dtd"
   xmlns:inkscape="http://www.inkscape.org/namespaces/inkscape"
   inkscape:version="1.0 (4035a4fb49, 2020-05-01)"
   sodipodi:docname="2020-CH-07_taskbody_tree.svg"
   xml:space="preserve"
   viewBox="0 0 234.28 300"
   version="1.1"
   height="300"
   width="234.28"
   id="Layer_1"><metadata
   id="metadata24"><rdf:RDF><cc:Work
       rdf:about=""><dc:format>image/svg+xml</dc:format><dc:type
         rdf:resource="http://purl.org/dc/dcmitype/StillImage" /></cc:Work></rdf:RDF></metadata><defs
   id="defs22" /><sodipodi:namedview
   inkscape:current-layer="Layer_1"
   showgrid="false"
   id="namedview20"
   inkscape:window-height="480"
   inkscape:window-width="640"
   inkscape:pageshadow="2"
   inkscape:pageopacity="0"
   guidetolerance="10"
   gridtolerance="10"
   objecttolerance="10"
   borderopacity="1"
   bordercolor="#666666"
   pagecolor="#ffffff" />
<style
   type="text/css"
   id="style357">
	.st0{fill:#705138;}
	.st1{fill:#5E8C50;stroke:#010101;stroke-miterlimit:10;}
</style>

<path
   style="font-feature-settings:normal;font-variant-alternates:normal;font-variant-caps:normal;font-variant-east-asian:normal;font-variant-ligatures:normal;font-variant-numeric:normal;font-variant-position:normal;font-variation-settings:normal;inline-size:0;isolation:auto;mix-blend-mode:normal;shape-margin:0;shape-padding:0;text-decoration-color:#000000;text-decoration-line:none;text-decoration-style:solid;text-indent:0;text-orientation:mixed;text-transform:none;white-space:normal"
   stop-color="#000000"
   solid-color="#000000"
   shape-rendering="auto"
   image-rendering="auto"
   dominant-baseline="auto"
   color-rendering="auto"
   color="#000000"
   d="m117.27 3.8428-1.6085 3.0194-4.3587 8.1841c-8.3683 15.717-15.476 26.919-21.535 34.039-1.986 2.334-4.4117 5.2099-5.4147 6.42h0.0018l-3.7415 4.5125 5.0405 0.84447c1.2705 0.21315 4.2078 0.55168 6.7819 0.79548 2.9305 0.27743 6.7974 0.35379 10.392 0.2727 0.48977-0.01015 0.7224-0.08357 1.1959-0.09981-0.25138 0.29773-0.49221 0.57283-0.77627 0.93366-8.3724 10.634-20.45 22.931-28.182 28.764-2.6342 1.9873-4.4647 3.4338-5.6542 4.4933-0.59475 0.52972-1.0247 0.9414-1.3777 1.4004-0.17661 0.22939-0.35183 0.45597-0.48953 0.89519-0.1377 0.43922-0.10353 1.4143 0.46855 1.9809 0.42687 0.42281 0.55977 0.37771 0.6679 0.41611 0.10827 0.0382 0.16883 0.0535 0.22364 0.0663 0.1103 0.0271 0.18811 0.0389 0.27269 0.0524 0.1695 0.0271 0.35599 0.0491 0.58744 0.0751 0.46294 0.0518 1.0891 0.11029 1.8498 0.17491 1.5214 0.12891 3.5757 0.27913 5.8151 0.42136 4.4574 0.28318 9.2562 0.59083 10.653 0.68187 2.1266 0.13838 5.8735 0.0721 9.5269-0.047-1.0247 0.79213-2.1551 1.7331-3.6576 3.1069-11.909 10.889-18.395 16.058-28.025 22.344-2.1953 1.4329-3.8469 2.5104-5.0545 3.3499-1.2076 0.8395-1.9344 1.3076-2.5509 2.1382-0.15428 0.20774-0.31532 0.458-0.41963 0.83574-0.10454 0.37772-0.10624 0.93001 0.09981 1.3882 0.41154 0.91637 1.0932 1.1082 1.5193 1.2378 0.85232 0.2595 1.6265 0.27709 2.6943 0.36539 2.1427 0.17763 10.67 0.41855 19.484 0.5822 3.9953 0.0741 5.9125-0.0639 9.0041-0.07l-4.6017 3.2642c-12.881 9.1357-23.255 15.348-34.665 20.774-5.2934 2.5174-8.8415 4.2459-11.13 5.4392-1.1443 0.59664-1.9702 1.0544-2.5806 1.4424-0.30517 0.19386-0.5552 0.36722-0.79552 0.57171-0.24022 0.20435-0.53202 0.3586-0.76754 1.0648-0.14244 0.42711-0.08052 1.008 0.09609 1.3637 0.17695 0.35572 0.38377 0.5302 0.535 0.64513 0.30247 0.22972 0.46703 0.26931 0.61542 0.32006 0.29672 0.1015 0.52221 0.14041 0.80424 0.1871 0.5641 0.0934 1.298 0.17051 2.2624 0.25002 1.9288 0.15868 4.742 0.31228 8.3764 0.45462 10.489 0.41144 24.44 0.48391 36.111 0.38637-0.36611 0.22228-0.67135 0.39016-1.0945 0.66262-1.7331 1.116-3.9383 2.6454-6.4358 4.4706-15.404 11.257-24.024 16.59-40.992 25.358-3.2523 1.6805-6.3843 3.315-8.8153 4.5982-2.431 1.2832-4.0287 2.1314-4.6716 2.5247l-5.7592 3.5194 6.8973 0.95112c0.83121 0.11435 2.6766 0.22939 5.4462 0.39337 2.7696 0.16409 6.3046 0.35085 9.9412 0.52279 9.4761 0.44792 21.715 0.59983 33.14 0.58569-2.9388 1.9344-13.256 8.0644-19.788 11.716-9.8235 5.4916-24.497 12.552-33.425 16.092-4.2469 1.6838-8.1164 3.3318-11.011 4.6682-1.4474 0.66816-2.649 1.2563-3.5562 1.7484-0.45357 0.24596-0.83067 0.4654-1.1557 0.68183-0.32446 0.2162-0.57384 0.26119-0.99134 0.93538-0.19928 0.32209-0.31972 0.8756-0.22364 1.3113 0.095747 0.43567 0.30991 0.69899 0.46331 0.85669 0.30687 0.31532 0.46791 0.35227 0.5892 0.40562 0.24258 0.10658 0.35471 0.12485 0.48605 0.15564 0.26288 0.0612 0.53348 0.10556 0.88118 0.15563 0.6954 0.0998 1.6583 0.20909 2.8551 0.32683 2.3936 0.23547 5.7016 0.50177 9.373 0.74655 16.476 1.0985 50.856 1.2955 60.607 0.27811 15.128-1.5786 27.027-4.0955 35.604-7.6124l3.8079-1.5613 3.6348 1.9075c10.83 5.6864 23.476 8.4691 42.597 9.5042 11.787 0.63806 30.587-0.0237 47.736-1.661 3.9427-0.37653 9.9259-0.92892 13.279-1.2239 1.7126-0.15056 3.2391-0.33055 4.3657-0.50875 0.56329-0.089 1.0166-0.17288 1.4092-0.27607 0.19623-0.0514 0.36036-0.0887 0.64164-0.22736 0.14075-0.0694 0.32413-0.12958 0.62243-0.47556 0.1492-0.17289 0.34148-0.45414 0.41263-0.87421 0.0711-0.42004-0.0511-0.92598-0.24292-1.2361-0.46538-0.75224-0.64963-0.6907-0.93714-0.88118-0.28792-0.19082-0.62185-0.38512-1.014-0.60318-0.78438-0.43614-1.7958-0.95263-2.932-1.5018-2.2726-1.0985-5.0231-2.3199-7.268-3.1839-16.823-6.4747-36.906-16.661-55.161-27.986l-2.8813-1.7868c0.31735 5e-4 0.34959 0.0135 0.67311 0.0135 12.625 0.0135 25.013-0.19657 34.228-0.52976 4.6074-0.16679 8.4165-0.36374 11.093-0.58047 1.3384-0.10827 2.3846-0.21924 3.1645-0.34791 0.38996-0.0643 0.69916-0.12146 1.0525-0.24292 0.17661-0.0609 0.36299-0.11131 0.67838-0.35318 0.15767-0.12078 0.36872-0.30179 0.54549-0.66089 0.17695-0.35914 0.23683-0.93708 0.0961-1.3655-0.17086-0.52103-0.32615-0.59732-0.4196-0.69584-0.0937-0.0985-0.15732-0.15056-0.21687-0.19928-0.11875-0.0971-0.21653-0.16511-0.32852-0.24123-0.22397-0.15191-0.49281-0.31938-0.82874-0.52103-0.67185-0.40325-1.5986-0.93281-2.7327-1.563-2.2682-1.2604-5.3562-2.9198-8.7331-4.6821-19.254-10.048-27.061-14.864-42.984-26.509-3.4658-2.5347-5.4114-3.916-7.2313-4.9304 7.8699 0.0991 19.014-0.0203 28.717-0.27608 5.1116-0.13533 9.7332-0.30077 13.097-0.47555 1.6819-0.0873 3.0453-0.17627 4.0265-0.26932 0.49057-0.0463 0.87739-0.0903 1.2151-0.15021 0.16883-0.0305 0.316-0.0555 0.54197-0.13297 0.11301-0.0389 0.24462-0.0775 0.4808-0.23615 0.23616-0.15868 0.799-0.58914 0.799-1.4878 0-0.62273-0.22532-0.92936-0.37064-1.1347-0.14514-0.20536-0.27303-0.32716-0.39689-0.44057-0.248-0.22702-0.4941-0.40261-0.78851-0.59796-0.58883-0.39067-1.3542-0.82847-2.3061-1.3322-1.9038-1.0076-4.5342-2.2617-7.6037-3.6139-11.262-4.9614-25.707-13.497-39.875-23.596l-3.0352-2.1645c6.6013 0.0565 13.621-0.0721 22.75-0.61542 2.569-0.15293 4.4897-0.24631 5.8973-0.40038 0.70379-0.0771 1.2719-0.15766 1.8305-0.33224 0.27946-0.0873 0.56346-0.19353 0.88643-0.4196 0.3231-0.226 0.71841-0.64134 0.87069-1.2169 0.15225-0.57553 0.0135-1.1401-0.15902-1.4984-0.17288-0.3583-0.37284-0.59063-0.57519-0.80249-0.40478-0.42379-0.85997-0.76652-1.4372-1.1714-1.1544-0.80976-2.7886-1.8106-4.9566-3.175-8.8596-5.5753-17.418-12.345-28.025-22.189-2.122-1.9694-3.3874-2.9736-4.6751-3.8988 1.2068 0.0203 1.8686 0.13364 3.2467 0.13297 4.2514-3e-3 10.487-0.22601 15.758-0.50878 2.6355-0.14143 5.0248-0.2974 6.8099-0.44934 0.89255-0.0761 1.6305-0.15123 2.1994-0.22736 0.28454-0.0379 0.52235-0.0751 0.75181-0.12417 0.11469-0.0237 0.226-0.0497 0.37064-0.0978 0.1448-0.0481 0.30213-0.0305 0.72382-0.41436h2e-3c0.62155-0.56751 0.65295-1.5436 0.53152-1.9669-0.12146-0.42335-0.27811-0.63762-0.43184-0.85144-0.30755-0.42772-0.66658-0.79108-1.1294-1.2221-0.92574-0.86206-2.2503-1.9215-3.9216-3.1436-9.2935-6.7955-18.601-16.094-30.357-30.394-0.24867-0.30213-0.45789-0.52411-0.68014-0.78154 2.6815 0.08221 5.5683 0.0494 8.9062-0.20638 5.2958-0.40579 8.0854-0.62578 9.7314-0.91613 0.82299-0.14514 1.4079-0.12586 2.189-0.90392 0.3905-0.38905 0.65518-1.1495 0.60842-1.6662-0.0467-0.51666-0.20909-0.79105-0.31837-0.99483-0.21145-0.39504-0.35494-0.54782-0.59617-0.85496-0.24123-0.3072-0.54431-0.6727-0.89515-1.0875-0.7017-0.82948-1.596-1.8479-2.5299-2.8708-7.7795-8.5206-18.648-25.498-26.796-42.01z"
   id="path1053" /><path
   d="M 117.07031 249.45703 L 116.85547 249.54492 L 113.80078 250.79297 C 111.56475 251.70997 109.11134 252.55528 106.45312 253.33594 L 106.0957 253.44141 L 105.97266 297.98047 L 129.13672 297.98047 L 129.25977 255.03125 L 128.92578 254.91211 C 125.84899 253.81381 122.95999 252.54661 120.18555 251.08984 L 117.07031 249.45703 z "
   style="color:#000000;font-style:normal;font-variant:normal;font-weight:normal;font-stretch:normal;font-size:medium;line-height:normal;font-family:sans-serif;font-variant-ligatures:normal;font-variant-position:normal;font-variant-caps:normal;font-variant-numeric:normal;font-variant-alternates:normal;font-variant-east-asian:normal;font-feature-settings:normal;font-variation-settings:normal;text-indent:0;text-align:start;text-decoration:none;text-decoration-line:none;text-decoration-style:solid;text-decoration-color:#000000;letter-spacing:normal;word-spacing:normal;text-transform:none;writing-mode:lr-tb;direction:ltr;text-orientation:mixed;dominant-baseline:auto;baseline-shift:baseline;text-anchor:start;white-space:normal;shape-padding:0;shape-margin:0;inline-size:0;clip-rule:nonzero;display:inline;overflow:visible;visibility:visible;isolation:auto;mix-blend-mode:normal;color-interpolation:sRGB;color-interpolation-filters:linearRGB;solid-color:#000000;solid-opacity:1;vector-effect:none;fill:#552200;fill-opacity:1;fill-rule:nonzero;stroke:none;stroke-width:1;stroke-linecap:butt;stroke-linejoin:miter;stroke-miterlimit:4;stroke-dasharray:none;stroke-dashoffset:0;stroke-opacity:1;color-rendering:auto;image-rendering:auto;shape-rendering:auto;text-rendering:auto;enable-background:accumulate;stop-color:#000000"
   id="path966" /><path
   sodipodi:nodetypes="cccccccccccccccsccccccccccccccscccccccccccccscccsccccscccccccccssccccccccsscccccsscccccccccsccccccccccccscsccsccssccccscccscscccccscsscscsccccccccscssccccsccccscccccccccc"
   d="m 117.33008,0 -1.60547,3.0195312 -1.61328,3.0195313 -4.35352,8.1796875 c -8.3372,15.659 -15.415216,26.783516 -21.324216,33.728516 -1.9901,2.3387 -4.415294,5.206947 -5.433594,6.435546 l -2.376953,2.875 -3.304688,3.984376 8.046875,1.347656 c 1.4067,0.23582 4.30505,0.56616 6.90625,0.8125 2.2626,0.21416 5.122753,0.21153 7.876956,0.21289 -8.177902,10.046 -19.106581,21.204719 -26.142581,26.511719 -2.6491,1.9985 -4.494965,3.459338 -5.759765,4.585938 -0.61826,0.55067 -1.13591,1.035772 -1.59961,1.638671 -0.17526,0.227351 -0.560187,0.759194 -0.773437,1.439454 -0.19217,0.61275 -0.199047,1.133371 -0.0918,1.763672 0.10725,0.630342 0.366897,1.365232 0.998047,1.990232 0.30044,0.2974 0.592812,0.5332 0.951172,0.69922 0.35836,0.16613 0.726881,0.25618 0.363281,0.12695 h 0.0078 c 0.15834,0.0559 0.310382,0.0927 0.388672,0.11133 0.18066,0.0443 0.333727,0.0679 0.410157,0.0801 0.22127,0.0352 0.431548,0.0592 0.667968,0.0859 v 0.008 c 0.49139,0.0548 1.125732,0.11243 1.894532,0.17773 h 0.0078 c 1.5395,0.13026 3.598056,0.27911 5.847656,0.42188 4.4567,0.28319 9.259844,0.59086 10.652344,0.68164 1.1457,0.0745 3.161538,-0.008 4.835938,-0.0215 -0.01692,0.0135 -0.02118,0.0182 -0.03711,0.0352 -11.879,10.862 -18.237781,15.92597 -27.800781,22.16797 -2.1951,1.4328 -3.850103,2.51887 -5.095703,3.38477 -1.1877,0.8257 -2.137284,1.42415 -2.958985,2.53125 -0.208069,0.28013 -0.526461,0.77941 -0.701171,1.41211 -0.22059,0.79671 -0.232184,1.62986 0.191406,2.57226 0.66966,1.4911 2.212116,2.07982 2.603515,2.19922 1.114401,0.33927 2.049007,0.35336 3.066407,0.4375 2.3944,0.1986 10.766797,0.42404 19.591797,0.58789 1.5528,0.0304 2.35265,-0.0138 3.46875,-0.0273 l -0.04492,0.0332 c -12.825,9.0956 -23.094203,15.245 -34.408203,20.625 -5.3001,2.5206 -8.8555,4.24709 -11.1875,5.46289 -1.1637,0.60674 -2.023238,1.08439 -2.710938,1.52149 -0.33864,0.21518 -0.663281,0.43637 -0.988281,0.71289 -0.03786,0.0338 -0.948065,0.8036 -1.296875,1.84961 -0.34171,1.02469 -0.250784,1.80451 0.191406,2.69531 0.31803,0.63895 0.824179,1.09747 1.042969,1.26367 0.46923,0.35639 1.074428,0.56937 1.111328,0.58203 0.42437,0.14514 0.795684,0.20815 1.083984,0.25586 0.65241,0.10793 1.419897,0.19028 2.404297,0.27148 1.9755,0.1624 4.804725,0.31406 8.453125,0.45704 8.892,0.34882 20.184344,0.36404 30.527344,0.33007 -0.99404,0.69459 -1.787809,1.20174 -2.912109,2.02344 -15.365,11.229 -23.839625,16.46884 -40.765625,25.21484 -3.2563,1.68261 -6.392878,3.32093 -8.830078,4.60743 -2.432601,1.284 -3.975272,2.09397 -4.763672,2.57617 l -9.958985,6.08594 11.769531,1.61914 c 1.021201,0.1404 2.813938,0.2461 5.585938,0.41015 2.7791,0.16477 6.314031,0.34728 9.957031,0.51953 7.7453,0.3661 17.55886,0.43585 27.00586,0.47852 -4.4214,2.6874 -9.666829,5.88172 -14.423829,8.54102 -9.7331,5.441 -24.42075,12.50418 -33.21875,15.99218 -4.2721,1.6938 -8.159203,3.34938 -11.0957026,4.70508 -1.4677,0.67755 -2.6972563,1.27458 -3.6601563,1.79688 -0.47972,0.26017 -0.8983725,0.50736 -1.2890625,0.76757 -0.072777,0.0483 -0.9480387,0.56232 -1.5117187,1.47266 -0.50601002,0.81785 -0.67510252,1.56943 -0.44531252,2.61133 0.18167999,0.82654 0.65497182,1.43072 0.91992182,1.70312 0.4730501,0.48612 1.2661188,0.84401 1.1367188,0.78711 0.35724,0.15698 0.7274988,0.24421 0.7929688,0.25977 h 0.00586 c 0.33979,0.0791 0.6601806,0.13081 1.0253907,0.18359 0.7425699,0.10657 1.7226937,0.2188 2.9335937,0.33789 2.4221,0.23818 5.7458408,0.50033 9.4316408,0.7461 16.623,1.1084 50.705344,1.34146 60.902344,0.27734 10.170991,-1.06132 18.883132,-2.55233 26.201177,-4.49805 l -0.12061,45.47169 h 27.14258 l 0.12061,-43.74732 c 8.68971,2.76103 18.88986,4.30261 32.02539,5.01368 11.953,0.64701 30.77109,-0.0192 47.99609,-1.66407 3.9371,-0.37599 9.92398,-0.9304 13.26758,-1.22461 1.7435,-0.15326 3.29823,-0.33339 4.48633,-0.52148 0.58788,-0.0927 1.09258,-0.18233 1.58008,-0.31055 0.1651,-0.0433 0.55828,-0.1462 0.9707,-0.34961 -0.0399,0.0203 0.71111,-0.36725 1.17578,-0.90625 0.2771,-0.32107 0.67793,-0.91663 0.81445,-1.72265 v -0.008 c 0.16476,-0.97442 -0.017,-1.69847 -0.48242,-2.45117 -0.59689,-0.96486 -1.60614,-1.51807 -1.46094,-1.42187 -0.35146,-0.23277 -0.71957,-0.44428 -1.1289,-0.67188 -0.83002,-0.46151 -1.86439,-0.9896 -3.02149,-1.54883 -2.3132,-1.1182 -5.08659,-2.34582 -7.40039,-3.23632 -15.951,-6.1393 -34.8942,-15.78299 -52.4082,-26.45899 10.451,-0.0474 20.96322,-0.16174 28.69922,-0.4414 4.6223,-0.16749 8.44863,-0.36919 11.17383,-0.58985 1.3612,-0.10996 2.43608,-0.2201 3.30468,-0.36328 0.40782,-0.0673 0.84903,-0.14792 1.33985,-0.31641 0.0991,-0.0342 0.69095,-0.24191 1.17773,-0.61523 0.22939,-0.17558 0.73279,-0.63729 1.05078,-1.2832 0.43631,-0.88551 0.51549,-1.67214 0.18555,-2.68164 -0.12654,-0.38597 -0.28638,-0.72784 -0.49609,-1.00977 -0.20976,-0.28183 -0.45015,-0.49027 -0.31836,-0.35156 -0.15394,-0.16172 -0.31501,-0.30052 -0.375,-0.34961 -0.17322,-0.14176 -0.33601,-0.24753 -0.45703,-0.33008 -0.26796,-0.18168 -0.56279,-0.3665 -0.91211,-0.57617 -0.70115,-0.42085 -1.63715,-0.95597 -2.78125,-1.5918 -2.2877,-1.2713 -5.38699,-2.93668 -8.77539,-4.70508 -19.223,-10.032 -26.86786,-14.74623 -42.75586,-26.36523 -1.2505,-0.91451 -1.73437,-1.15531 -2.66797,-1.81641 7.2399,0.0135 15.33711,-0.0188 23.16211,-0.22656 5.1214,-0.13567 9.75132,-0.29858 13.14062,-0.47461 1.6946,-0.088 3.07502,-0.18186 4.10352,-0.2793 0.50808,-0.0481 0.93637,-0.0899 1.35547,-0.16406 h 0.008 c 0.15902,-0.027 0.46148,-0.0878 0.79883,-0.20312 0.0542,-0.0203 0.50935,-0.18407 0.88672,-0.4375 0.38418,-0.25815 1.57812,-1.31617 1.57812,-2.94727 0,-1.043 -0.56421,-1.95742 -0.69336,-2.14062 v -0.008 c -0.23581,-0.33257 -0.50749,-0.59163 -0.64844,-0.7207 -0.34205,-0.3133 -0.68121,-0.55152 -1.0039,-0.76562 -0.66926,-0.44407 -1.47157,-0.9015 -2.45117,-1.41993 -1.9623,-1.0386 -4.62145,-2.30347 -7.71875,-3.66797 -10.735,-4.7292 -24.57257,-12.92287 -38.22657,-22.54687 5.2941,-0.0338 10.46389,-0.052 17.46289,-0.46875 2.5595,-0.15225 4.47943,-0.24572 5.98243,-0.41016 0.7336,-0.0806 1.43266,-0.17248 2.16796,-0.40234 0.34327,-0.10725 0.85999,-0.29919 1.36719,-0.6543 0.59959,-0.41939 1.2676,-1.10753 1.5586,-2.20703 0.29232,-1.1044 0.0543,-2.03474 -0.27149,-2.71094 -0.27405,-0.56778 -0.64448,-0.99622 -0.89062,-1.2539 -0.53219,-0.5572 -1.09602,-0.9714 -1.69922,-1.39453 -1.2352,-0.86644 -2.8703,-1.86581 -5.0293,-3.22461 -8.7488,-5.5056 -17.20962,-12.18838 -27.76562,-21.98438 -0.41771,-0.38766 -0.57647,-0.45525 -0.93946,-0.77929 4.1922,-0.0426 9.43903,-0.21073 14.17383,-0.46485 2.6477,-0.1421 5.04348,-0.29454 6.85938,-0.44922 0.90835,-0.0775 1.67081,-0.15378 2.28711,-0.23633 0.30212,-0.0403 0.58313,-0.0849 0.87304,-0.14648 0.14413,-0.0304 0.34824,-0.0792 0.56836,-0.15234 -0.16849,0.0559 0.10512,8.6e-4 0.42774,-0.14454 0.09,-0.0405 0.17213,-0.12631 0.25976,-0.17773 h 0.16406 l 0.50391,-0.45703 c 0.66969,-0.6115 0.96603,-1.36465 1.08789,-2.001954 0.12181,-0.63725 0.1175,-1.15044 -0.0527,-1.74414 -0.18845,-0.65687 -0.5451,-1.188332 -0.69336,-1.394532 -0.41042,-0.5708 -0.86973,-1.022668 -1.36133,-1.480468 -1.0119,-0.94231 -2.37137,-2.030744 -4.07617,-3.277344 -8.6191,-6.3024 -17.46282,-15.180656 -28.25782,-28.097656 1.7018,-0.02032 3.26681,0.03231 5.22071,-0.117188 5.2971,-0.40593 8.07555,-0.616513 9.90625,-0.939453 0.6568,-0.11571 2.01764,-0.291302 3.11914,-1.388672 0.91951,-0.91609 1.22953,-1.802053 1.11523,-3.064453 -0.0745,-0.82438 -0.43652,-1.522116 -0.51367,-1.666016 -0.27844,-0.52022 -0.56048,-0.847678 -0.76758,-1.111328 -0.26458,-0.33698 -0.57429,-0.712405 -0.93164,-1.134765 -0.71908,-0.85009 -1.62727,-1.880622 -2.57617,-2.919922 C 141.0794,43.028469 130.19047,26.0715 122.10547,9.6875 Z m -0.28516,250.00781 2.9082,1.52539 c 2.79535,1.46774 5.70662,2.74371 8.80469,3.84961 l -0.12061,42.09669 h -22.16406 l 0.12061,-43.66309 c 2.67207,-0.78473 5.14152,-1.63579 7.39648,-2.56055 z"
   style="font-variant-ligatures:normal;font-variant-position:normal;font-variant-caps:normal;font-variant-numeric:normal;font-variant-alternates:normal;font-variant-east-asian:normal;font-feature-settings:normal;font-variation-settings:normal;text-indent:0;text-decoration:none;text-decoration-line:none;text-decoration-style:solid;text-decoration-color:#000000;text-transform:none;text-orientation:mixed;white-space:normal;shape-padding:0;shape-margin:0;inline-size:0;isolation:auto;mix-blend-mode:normal"
   id="path1059" /><g
   style="opacity:1"
   id="g913"><g
     style="opacity:1"
     id="g920" /></g><g
   style="opacity:1"
   id="g906"><path
     id="path908"
     d="M 219.37,247.96 C 175.91,232.348 124.241,193.328 117.51,188.163 h -0.77879 c -6.7316,5.1651 -58.41,44.176 -101.86,59.797 0,0 -18.199,7.1345 -9.4619,7.1345 8.1639,0 79.285,8.1997 111.9,-8.4056 29.209,20.535 103.36,8.4056 111.53,8.4056 8.7189,0 -9.4708,-7.1345 -9.4708,-7.1345 z"
     style="color:#000000;font-style:normal;font-variant:normal;font-weight:normal;font-stretch:normal;font-size:medium;line-height:normal;font-family:sans-serif;font-variant-ligatures:normal;font-variant-position:normal;font-variant-caps:normal;font-variant-numeric:normal;font-variant-alternates:normal;font-variant-east-asian:normal;font-feature-settings:normal;font-variation-settings:normal;text-indent:0;text-align:start;text-decoration:none;text-decoration-line:none;text-decoration-style:solid;text-decoration-color:#000000;letter-spacing:normal;word-spacing:normal;text-transform:none;writing-mode:lr-tb;direction:ltr;text-orientation:mixed;dominant-baseline:auto;baseline-shift:baseline;text-anchor:start;white-space:normal;shape-padding:0;shape-margin:0;inline-size:0;clip-rule:nonzero;display:inline;overflow:visible;visibility:visible;isolation:auto;mix-blend-mode:normal;color-interpolation:sRGB;color-interpolation-filters:linearRGB;solid-color:#000000;solid-opacity:1;vector-effect:none;fill:#008000;fill-opacity:1;fill-rule:nonzero;stroke:none;stroke-width:0.89516;stroke-linecap:butt;stroke-linejoin:miter;stroke-miterlimit:10;stroke-dasharray:none;stroke-dashoffset:0;stroke-opacity:1;color-rendering:auto;image-rendering:auto;shape-rendering:auto;text-rendering:auto;enable-background:accumulate;stop-color:#000000;stop-opacity:1" /><path
     id="path910"
     d="M 116.58008 187.71484 L 116.45898 187.80859 C 109.74158 192.9628 58.053778 231.9601 14.720703 247.53906 L 14.712891 247.54102 L 14.707031 247.54297 C 14.707031 247.54297 10.149943 249.32768 6.6582031 251.12891 C 5.7852682 251.57921 4.9784315 252.03156 4.3183594 252.46289 C 3.6582872 252.89422 3.1469607 253.28582 2.8378906 253.71875 C 2.6833556 253.93521 2.5634326 254.18668 2.59375 254.48242 C 2.6240674 254.77816 2.8357889 255.03276 3.0839844 255.17578 C 3.5803752 255.46183 4.2875619 255.54297 5.4101562 255.54297 C 7.3762075 255.54297 13.394112 256.05292 21.724609 256.5625 C 30.055107 257.07208 40.739074 257.57929 52.191406 257.56641 C 74.995969 257.54075 100.81932 255.472 117.28125 247.1875 C 132.09979 257.45387 157.83877 259.50301 180.97266 259.03906 C 192.59455 258.80599 203.55244 257.93206 212.11523 257.11523 C 220.67803 256.29841 226.90809 255.54297 228.83984 255.54297 C 229.96023 255.54297 230.66471 255.46254 231.16016 255.17578 C 231.40788 255.0324 231.61938 254.77608 231.64844 254.48047 C 231.67749 254.18486 231.55723 253.93494 231.40234 253.71875 C 231.09258 253.28638 230.58028 252.89418 229.91992 252.46289 C 229.25956 252.0316 228.45103 251.5792 227.57812 251.12891 C 224.92891 249.76228 222.8922 248.98358 221.47266 248.4082 L 221.93945 248.4082 L 219.53125 247.54297 L 219.52148 247.53906 C 176.17857 231.96912 124.5003 192.96293 117.7832 187.80859 L 117.66211 187.71484 L 116.58008 187.71484 z M 116.87695 188.61133 L 117.36523 188.61133 C 124.20724 193.85841 174.09594 231.43158 217.11133 247.51172 L 217.00195 247.51172 L 219.20508 248.37695 C 219.20508 248.37695 223.74446 250.15972 227.16797 251.92578 C 228.02385 252.3673 228.8099 252.80615 229.42969 253.21094 C 230.04948 253.61573 230.5044 254.00375 230.67383 254.24023 C 230.75854 254.35848 230.75546 254.41646 230.75781 254.39258 C 230.76016 254.36869 230.80027 254.34869 230.71094 254.40039 C 230.53228 254.5038 229.89919 254.64648 228.83984 254.64648 C 226.6866 254.64648 220.58236 255.40694 212.03125 256.22266 C 203.48014 257.03837 192.54331 257.91213 180.95508 258.14453 C 157.77861 258.60933 131.99121 256.46343 117.56641 246.32227 L 117.3457 246.16797 L 117.10547 246.29102 C 100.94174 254.52047 75.040063 256.64617 52.189453 256.67188 C 40.764148 256.68473 30.099321 256.17887 21.779297 255.66992 C 13.459273 255.16098 7.526055 254.64648 5.4101562 254.64648 C 4.3484756 254.64648 3.7119369 254.50451 3.53125 254.40039 C 3.4409066 254.34833 3.4799599 254.36661 3.4824219 254.39062 C 3.4848839 254.41464 3.4821905 254.3582 3.5664062 254.24023 C 3.7348377 254.0043 4.189203 253.61568 4.8085938 253.21094 C 5.4279845 252.80619 6.2124881 252.36729 7.0683594 251.92578 C 10.487019 250.16225 15.010661 248.38587 15.023438 248.38086 L 15.035156 248.37695 C 58.490425 232.75056 109.92416 193.94294 116.87695 188.61133 z "
     style="color:#000000;font-style:normal;font-variant:normal;font-weight:normal;font-stretch:normal;font-size:medium;line-height:normal;font-family:sans-serif;font-variant-ligatures:normal;font-variant-position:normal;font-variant-caps:normal;font-variant-numeric:normal;font-variant-alternates:normal;font-variant-east-asian:normal;font-feature-settings:normal;font-variation-settings:normal;text-indent:0;text-align:start;text-decoration:none;text-decoration-line:none;text-decoration-style:solid;text-decoration-color:#000000;letter-spacing:normal;word-spacing:normal;text-transform:none;writing-mode:lr-tb;direction:ltr;text-orientation:mixed;dominant-baseline:auto;baseline-shift:baseline;text-anchor:start;white-space:normal;shape-padding:0;shape-margin:0;inline-size:0;clip-rule:nonzero;display:inline;overflow:visible;visibility:visible;isolation:auto;mix-blend-mode:normal;color-interpolation:sRGB;color-interpolation-filters:linearRGB;solid-color:#000000;solid-opacity:1;vector-effect:none;fill:#010101;fill-opacity:1;fill-rule:nonzero;stroke:none;stroke-width:0.89516;stroke-linecap:butt;stroke-linejoin:miter;stroke-miterlimit:10;stroke-dasharray:none;stroke-dashoffset:0;stroke-opacity:1.0;color-rendering:auto;image-rendering:auto;shape-rendering:auto;text-rendering:auto;enable-background:accumulate;stop-color:#000000;stop-opacity:1;" /></g><g
   style="opacity:1"
   id="g894"><path
     id="path896"
     d="m 203.05,207.75 c -36.523,-15.621 -79.947,-54.632 -85.605,-59.797 h -0.66242 c -5.6574,5.1741 -49.082,44.176 -85.605,59.797 0,0 -15.289,7.1345 -7.9491,7.1345 6.8659,0 76.841,5.2815 93.885,-3.0167 17.044,8.2982 87.019,3.0167 93.885,3.0167 7.3404,0 -7.9491,-7.1345 -7.9491,-7.1345 z"
     style="color:#000000;font-style:normal;font-variant:normal;font-weight:normal;font-stretch:normal;font-size:medium;line-height:normal;font-family:sans-serif;font-variant-ligatures:normal;font-variant-position:normal;font-variant-caps:normal;font-variant-numeric:normal;font-variant-alternates:normal;font-variant-east-asian:normal;font-feature-settings:normal;font-variation-settings:normal;text-indent:0;text-align:start;text-decoration:none;text-decoration-line:none;text-decoration-style:solid;text-decoration-color:#000000;letter-spacing:normal;word-spacing:normal;text-transform:none;writing-mode:lr-tb;direction:ltr;text-orientation:mixed;dominant-baseline:auto;baseline-shift:baseline;text-anchor:start;white-space:normal;shape-padding:0;shape-margin:0;inline-size:0;clip-rule:nonzero;display:inline;overflow:visible;visibility:visible;isolation:auto;mix-blend-mode:normal;color-interpolation:sRGB;color-interpolation-filters:linearRGB;solid-color:#000000;solid-opacity:1;vector-effect:none;fill:#668000;fill-opacity:1;fill-rule:nonzero;stroke:none;stroke-width:0.89516;stroke-linecap:butt;stroke-linejoin:miter;stroke-miterlimit:10;stroke-dasharray:none;stroke-dashoffset:0;stroke-opacity:1;color-rendering:auto;image-rendering:auto;shape-rendering:auto;text-rendering:auto;enable-background:accumulate;stop-color:#000000;stop-opacity:1" /><path
     id="path898"
     d="M 116.60938 147.50586 L 116.48047 147.62305 C 110.83818 152.78333 67.395228 191.77237 31.001953 207.33789 L 30.994141 207.3418 L 30.988281 207.34375 C 30.988281 207.34375 27.157373 209.12993 24.216797 210.93555 C 22.746509 211.83835 21.507527 212.6766 20.990234 213.53906 C 20.860911 213.75468 20.767706 213.99288 20.791016 214.26367 C 20.814325 214.53447 20.985787 214.79416 21.208984 214.94727 C 21.65538 215.25348 22.274774 215.33203 23.228516 215.33203 C 24.887608 215.33203 30.582493 215.66175 38.376953 216.02734 C 46.171413 216.39294 56.098719 216.79389 66.347656 216.93555 C 76.596594 217.0772 87.165989 216.96051 96.251953 216.28711 C 105.22307 215.62222 112.70297 214.42719 117.11328 212.3418 C 121.52359 214.42721 129.00345 215.62222 137.97461 216.28711 C 147.06057 216.96051 157.62997 217.0772 167.87891 216.93555 C 178.12784 216.79389 188.05514 216.39294 195.84961 216.02734 C 203.64407 215.66175 209.33893 215.33203 210.99805 215.33203 C 211.95185 215.33203 212.57116 215.25346 213.01758 214.94727 C 213.24079 214.79417 213.41417 214.53447 213.4375 214.26367 C 213.46083 213.99287 213.36565 213.75468 213.23633 213.53906 C 212.71905 212.67657 211.48204 211.83835 210.01172 210.93555 C 207.7698 209.55896 206.03255 208.76825 204.84766 208.19727 L 205.23438 208.19727 L 203.23828 207.34375 L 203.22656 207.33789 C 166.83335 191.7724 123.39072 152.77584 117.74609 147.62305 L 117.61914 147.50586 L 116.60938 147.50586 z M 116.95117 148.40039 L 117.27539 148.40039 C 123.07151 153.68763 164.96198 191.21714 201.12305 207.30273 L 201.03125 207.30273 L 202.85938 208.15625 C 202.85938 208.15625 202.87302 208.1621 202.87305 208.16211 C 202.88794 208.16907 206.67958 209.94104 209.54297 211.69922 C 210.97747 212.58004 212.18373 213.52477 212.46875 214 C 212.54 214.11881 212.545 214.18658 212.54492 214.1875 C 212.54484 214.18842 212.57294 214.167 212.51172 214.20898 C 212.38929 214.29296 211.87934 214.4375 210.99805 214.4375 C 209.22417 214.4375 203.59813 214.76745 195.80859 215.13281 C 188.01906 215.49818 178.10076 215.89957 167.86719 216.04102 C 157.63362 216.18246 147.08356 216.06472 138.04102 215.39453 C 128.99847 214.72435 121.44442 213.47845 117.30859 211.46484 L 117.11328 211.36914 L 116.91797 211.46484 C 112.78214 213.47845 105.2281 214.72435 96.185547 215.39453 C 87.142996 216.06472 76.594903 216.18246 66.361328 216.04102 C 56.127753 215.89957 46.207499 215.49818 38.417969 215.13281 C 30.628438 214.76745 25.002373 214.4375 23.228516 214.4375 C 22.347283 214.4375 21.839187 214.29294 21.716797 214.20898 C 21.655602 214.16701 21.681721 214.18843 21.681641 214.1875 C 21.681561 214.18657 21.686551 214.11881 21.757812 214 C 22.04286 213.52475 23.251072 212.58004 24.685547 211.69922 C 27.548873 209.94104 31.338615 208.16907 31.353516 208.16211 L 31.367188 208.15625 C 67.902466 192.52514 111.06216 153.78189 116.95117 148.40039 z "
     style="color:#000000;font-style:normal;font-variant:normal;font-weight:normal;font-stretch:normal;font-size:medium;line-height:normal;font-family:sans-serif;font-variant-ligatures:normal;font-variant-position:normal;font-variant-caps:normal;font-variant-numeric:normal;font-variant-alternates:normal;font-variant-east-asian:normal;font-feature-settings:normal;font-variation-settings:normal;text-indent:0;text-align:start;text-decoration:none;text-decoration-line:none;text-decoration-style:solid;text-decoration-color:#000000;letter-spacing:normal;word-spacing:normal;text-transform:none;writing-mode:lr-tb;direction:ltr;text-orientation:mixed;dominant-baseline:auto;baseline-shift:baseline;text-anchor:start;white-space:normal;shape-padding:0;shape-margin:0;inline-size:0;clip-rule:nonzero;display:inline;overflow:visible;visibility:visible;isolation:auto;mix-blend-mode:normal;color-interpolation:sRGB;color-interpolation-filters:linearRGB;solid-color:#000000;solid-opacity:1;vector-effect:none;fill:#010101;fill-opacity:1;fill-rule:nonzero;stroke:none;stroke-width:0.89516;stroke-linecap:butt;stroke-linejoin:miter;stroke-miterlimit:10;stroke-dasharray:none;stroke-dashoffset:0;stroke-opacity:1.0;color-rendering:auto;image-rendering:auto;shape-rendering:auto;text-rendering:auto;enable-background:accumulate;stop-color:#000000;stop-opacity:1;" /></g><g
   style="opacity:1"
   id="g900"><path
     id="path902"
     d="M 189.44,165.85 C 158.7,153.416 122.141,122.363 117.379,118.254 h -0.555 c -4.7623,4.1088 -41.321,35.171 -72.061,47.596 0,0 -12.872,5.6843 -6.6958,5.6843 5.7738,0 64.685,4.2073 79.025,-2.408 14.35,6.6063 73.251,2.408 79.025,2.408 6.1945,0 -6.6779,-5.6843 -6.6779,-5.6843 z"
     style="color:#000000;font-style:normal;font-variant:normal;font-weight:normal;font-stretch:normal;font-size:medium;line-height:normal;font-family:sans-serif;font-variant-ligatures:normal;font-variant-position:normal;font-variant-caps:normal;font-variant-numeric:normal;font-variant-alternates:normal;font-variant-east-asian:normal;font-feature-settings:normal;font-variation-settings:normal;text-indent:0;text-align:start;text-decoration:none;text-decoration-line:none;text-decoration-style:solid;text-decoration-color:#000000;letter-spacing:normal;word-spacing:normal;text-transform:none;writing-mode:lr-tb;direction:ltr;text-orientation:mixed;dominant-baseline:auto;baseline-shift:baseline;text-anchor:start;white-space:normal;shape-padding:0;shape-margin:0;inline-size:0;clip-rule:nonzero;display:inline;overflow:visible;visibility:visible;isolation:auto;mix-blend-mode:normal;color-interpolation:sRGB;color-interpolation-filters:linearRGB;solid-color:#000000;solid-opacity:1;vector-effect:none;fill:#008000;fill-opacity:1;fill-rule:nonzero;stroke:none;stroke-width:0.89516;stroke-linecap:butt;stroke-linejoin:miter;stroke-miterlimit:10;stroke-dasharray:none;stroke-dashoffset:0;stroke-opacity:1;color-rendering:auto;image-rendering:auto;shape-rendering:auto;text-rendering:auto;enable-background:accumulate;stop-color:#000000;stop-opacity:1" /><path
     id="path904"
     d="M 116.6582 117.80664 L 116.53125 117.91602 C 111.782 122.01356 75.209726 153.06147 44.595703 165.43555 L 44.587891 165.4375 L 44.582031 165.44141 C 44.582031 165.44141 41.356347 166.86306 38.875 168.30469 C 38.254663 168.66509 37.680061 169.02694 37.207031 169.375 C 36.734002 169.72306 36.361892 170.04223 36.130859 170.40625 C 36.015343 170.58826 35.922837 170.79821 35.945312 171.04883 C 35.967788 171.29945 36.137593 171.53582 36.337891 171.66602 C 36.738485 171.92641 37.260054 171.98242 38.066406 171.98242 C 39.455499 171.98242 44.253188 172.24398 50.814453 172.53516 C 57.375718 172.82633 65.733041 173.14526 74.361328 173.25781 C 82.989615 173.37036 91.888785 173.27752 99.539062 172.74023 C 107.0922 172.20977 113.36475 171.25567 117.0918 169.58594 C 120.82106 171.25327 127.09682 172.20628 134.65039 172.73633 C 142.30109 173.27319 151.19853 173.36785 159.82617 173.25586 C 168.45381 173.14387 176.8106 172.82563 183.37109 172.53516 C 189.93158 172.24469 194.72793 171.98242 196.11719 171.98242 C 196.92573 171.98242 197.45005 171.92512 197.85156 171.66602 C 198.05232 171.53646 198.22187 171.3035 198.24609 171.05273 C 198.27031 170.80197 198.18135 170.59067 198.06641 170.4082 C 197.83652 170.04326 197.46444 169.72316 196.99219 169.375 C 196.51993 169.02684 195.946 168.66512 195.32617 168.30469 C 193.58761 167.2937 192.42751 166.80521 191.32422 166.29688 L 191.74023 166.29688 L 189.61914 165.44141 L 189.60742 165.43555 C 158.99321 153.05243 122.42048 122.01345 117.67188 117.91602 L 117.54492 117.80664 L 116.6582 117.80664 z M 116.98828 118.70117 L 117.21484 118.70117 C 122.10198 122.91469 157.06242 152.50956 187.41211 165.40234 L 187.31836 165.40234 L 189.25781 166.25977 C 189.25781 166.25977 189.27145 166.26561 189.27148 166.26562 C 189.28659 166.27231 192.47437 167.68101 194.87695 169.07812 C 195.47902 169.42823 196.02964 169.77774 196.46094 170.0957 C 196.89223 170.41367 197.20279 170.7168 197.30859 170.88477 C 197.33111 170.92051 197.3223 170.90405 197.32812 170.91992 C 197.2302 170.97397 196.83521 171.08594 196.11719 171.08594 C 194.61945 171.08594 189.88785 171.35036 183.33203 171.64062 C 176.77621 171.93089 168.42756 172.24758 159.81445 172.35938 C 151.20134 172.47117 142.32251 172.37773 134.71289 171.84375 C 127.10328 171.30977 120.74479 170.31611 117.2793 168.7207 L 117.0918 168.63281 L 116.9043 168.7207 C 113.44153 170.31814 107.08374 171.31326 99.474609 171.84766 C 91.865481 172.38205 82.986785 172.47564 74.373047 172.36328 C 65.759309 172.25092 57.410107 171.93159 50.853516 171.64062 C 44.296924 171.34966 39.564214 171.08594 38.066406 171.08594 C 37.353119 171.08594 36.96452 170.97305 36.867188 170.91992 C 36.873586 170.90348 36.863836 170.9197 36.884766 170.88672 C 36.991954 170.71783 37.304065 170.41377 37.736328 170.0957 C 38.168592 169.77764 38.721568 169.43021 39.324219 169.08008 C 41.734822 167.67955 44.943359 166.25977 44.943359 166.25977 C 75.695589 153.82572 112.00302 122.99891 116.98828 118.70117 z "
     style="color:#000000;font-style:normal;font-variant:normal;font-weight:normal;font-stretch:normal;font-size:medium;line-height:normal;font-family:sans-serif;font-variant-ligatures:normal;font-variant-position:normal;font-variant-caps:normal;font-variant-numeric:normal;font-variant-alternates:normal;font-variant-east-asian:normal;font-feature-settings:normal;font-variation-settings:normal;text-indent:0;text-align:start;text-decoration:none;text-decoration-line:none;text-decoration-style:solid;text-decoration-color:#000000;letter-spacing:normal;word-spacing:normal;text-transform:none;writing-mode:lr-tb;direction:ltr;text-orientation:mixed;dominant-baseline:auto;baseline-shift:baseline;text-anchor:start;white-space:normal;shape-padding:0;shape-margin:0;inline-size:0;clip-rule:nonzero;display:inline;overflow:visible;visibility:visible;isolation:auto;mix-blend-mode:normal;color-interpolation:sRGB;color-interpolation-filters:linearRGB;solid-color:#000000;solid-opacity:1;vector-effect:none;fill:#010101;fill-opacity:1;fill-rule:nonzero;stroke:none;stroke-width:0.89516;stroke-linecap:butt;stroke-linejoin:miter;stroke-miterlimit:10;stroke-dasharray:none;stroke-dashoffset:0;stroke-opacity:1.0;color-rendering:auto;image-rendering:auto;shape-rendering:auto;text-rendering:auto;enable-background:accumulate;stop-color:#000000;stop-opacity:1;" /></g><g
   style="opacity:1"
   id="g879"><path
     id="path881"
     d="M 170.4,130.02 C 147.752,117.586 120.817,86.524 117.308,82.415 h -0.41178 c -3.509,4.1088 -30.445,35.171 -53.092,47.605 0,0 -9.4798,5.6843 -4.9324,5.6843 4.261,0 47.659,4.1983 58.231,-2.408 10.572,6.6063 53.97,2.408 58.231,2.408 4.5564,0 -4.9324,-5.6843 -4.9324,-5.6843 z"
     style="color:#000000;font-style:normal;font-variant:normal;font-weight:normal;font-stretch:normal;font-size:medium;line-height:normal;font-family:sans-serif;font-variant-ligatures:normal;font-variant-position:normal;font-variant-caps:normal;font-variant-numeric:normal;font-variant-alternates:normal;font-variant-east-asian:normal;font-feature-settings:normal;font-variation-settings:normal;text-indent:0;text-align:start;text-decoration:none;text-decoration-line:none;text-decoration-style:solid;text-decoration-color:#000000;letter-spacing:normal;word-spacing:normal;text-transform:none;writing-mode:lr-tb;direction:ltr;text-orientation:mixed;dominant-baseline:auto;baseline-shift:baseline;text-anchor:start;white-space:normal;shape-padding:0;shape-margin:0;inline-size:0;clip-rule:nonzero;display:inline;overflow:visible;visibility:visible;isolation:auto;mix-blend-mode:normal;color-interpolation:sRGB;color-interpolation-filters:linearRGB;solid-color:#000000;solid-opacity:1;vector-effect:none;fill:#668000;fill-opacity:1;fill-rule:nonzero;stroke:none;stroke-width:0.89516;stroke-linecap:butt;stroke-linejoin:miter;stroke-miterlimit:10;stroke-dasharray:none;stroke-dashoffset:0;stroke-opacity:1;color-rendering:auto;image-rendering:auto;shape-rendering:auto;text-rendering:auto;enable-background:accumulate;stop-color:#000000;stop-opacity:1" /><path
     id="path883"
     d="M 116.68945 81.966797 L 116.55664 82.125 C 113.05877 86.220764 86.090476 117.27224 63.587891 129.62695 L 63.582031 129.63086 L 63.574219 129.63672 C 63.574219 129.63672 61.192937 131.06034 59.355469 132.50977 C 58.436735 133.23448 57.650593 133.91664 57.318359 134.62695 C 57.235301 134.80453 57.17739 134.99533 57.191406 135.20898 C 57.205423 135.42264 57.316025 135.64796 57.482422 135.79492 C 57.815216 136.08884 58.256045 136.15234 58.871094 136.15234 C 59.862845 136.15234 63.417795 136.41257 68.253906 136.70312 C 73.090018 136.99368 79.251612 137.31371 85.613281 137.42578 C 91.974951 137.53785 98.53601 137.44236 104.18555 136.9043 C 109.71264 136.3779 114.30181 135.43087 117.10156 133.76562 C 119.90117 135.43137 124.49156 136.37782 130.01953 136.9043 C 135.66907 137.44236 142.23208 137.53785 148.59375 137.42578 C 154.95542 137.31371 161.11506 136.99368 165.95117 136.70312 C 170.78728 136.41257 174.34223 136.15234 175.33398 136.15234 C 175.95007 136.15234 176.39322 136.09025 176.72656 135.79688 C 176.89323 135.65019 177.00316 135.42281 177.01758 135.20898 C 177.032 134.99516 176.9736 134.80466 176.89062 134.62695 C 176.55871 133.91612 175.77284 133.23449 174.85352 132.50977 C 173.01487 131.06031 170.63086 129.63672 170.63086 129.63672 L 170.61523 129.62695 C 148.11166 117.27224 121.14629 86.220949 117.64844 82.125 L 117.51367 81.966797 L 116.68945 81.966797 z M 117.0957 82.863281 L 117.10742 82.863281 C 120.85511 87.246815 147.50528 117.95346 170.17383 130.4043 C 170.17774 130.40644 170.18164 130.40996 170.18555 130.41211 C 170.20032 130.42098 172.53773 131.82457 174.29883 133.21289 C 175.18216 133.90924 175.91433 134.65088 176.08008 135.00586 C 176.11475 135.08012 176.11569 135.11137 176.11719 135.12695 C 176.08762 135.14812 175.84562 135.25586 175.33398 135.25586 C 174.19524 135.25586 170.72823 135.52037 165.89844 135.81055 C 161.06864 136.10072 154.91813 136.41758 148.57617 136.5293 C 142.23422 136.64102 135.69959 136.54645 130.10547 136.01367 C 124.51135 135.48089 119.84807 134.48337 117.33984 132.91602 L 117.10352 132.76758 L 116.86523 132.91602 C 114.35701 134.48337 109.69568 135.48089 104.10156 136.01367 C 98.507443 136.54645 91.970862 136.64102 85.628906 136.5293 C 79.286951 136.41758 73.138389 136.10072 68.308594 135.81055 C 63.478799 135.52037 60.009843 135.25586 58.871094 135.25586 C 58.360909 135.25586 58.120891 135.14964 58.091797 135.12891 C 58.093121 135.11414 58.093476 135.08161 58.128906 135.00586 C 58.295179 134.65037 59.027365 133.90925 59.910156 133.21289 C 61.675738 131.82017 64.035156 130.4043 64.035156 130.4043 L 64.019531 130.41211 C 86.689586 117.96545 113.34737 87.247361 117.0957 82.863281 z "
     style="color:#000000;font-style:normal;font-variant:normal;font-weight:normal;font-stretch:normal;font-size:medium;line-height:normal;font-family:sans-serif;font-variant-ligatures:normal;font-variant-position:normal;font-variant-caps:normal;font-variant-numeric:normal;font-variant-alternates:normal;font-variant-east-asian:normal;font-feature-settings:normal;font-variation-settings:normal;text-indent:0;text-align:start;text-decoration:none;text-decoration-line:none;text-decoration-style:solid;text-decoration-color:#000000;letter-spacing:normal;word-spacing:normal;text-transform:none;writing-mode:lr-tb;direction:ltr;text-orientation:mixed;dominant-baseline:auto;baseline-shift:baseline;text-anchor:start;white-space:normal;shape-padding:0;shape-margin:0;inline-size:0;clip-rule:nonzero;display:inline;overflow:visible;visibility:visible;isolation:auto;mix-blend-mode:normal;color-interpolation:sRGB;color-interpolation-filters:linearRGB;solid-color:#000000;solid-opacity:1;vector-effect:none;fill:#010101;fill-opacity:1;fill-rule:nonzero;stroke:none;stroke-width:0.89516;stroke-linecap:butt;stroke-linejoin:miter;stroke-miterlimit:10;stroke-dasharray:none;stroke-dashoffset:0;stroke-opacity:1.0;color-rendering:auto;image-rendering:auto;shape-rendering:auto;text-rendering:auto;enable-background:accumulate;stop-color:#000000;stop-opacity:1;" /></g><g
   style="opacity:1"
   id="g873"><path
     id="path875"
     d="M 160.89,94.184 C 142.288,81.75 120.16,50.688 117.278,46.579 h -0.33121 c -2.8824,4.1088 -25.002,35.171 -43.612,47.605 0,0 -7.7879,5.6843 -4.0461,5.6843 3.5001,0 39.146,4.1983 47.829,-2.408 8.6831,6.6063 44.329,2.408 47.829,2.408 3.7328,0 -4.0551,-5.6843 -4.0551,-5.6843 z"
     style="color:#000000;font-style:normal;font-variant:normal;font-weight:normal;font-stretch:normal;font-size:medium;line-height:normal;font-family:sans-serif;font-variant-ligatures:normal;font-variant-position:normal;font-variant-caps:normal;font-variant-numeric:normal;font-variant-alternates:normal;font-variant-east-asian:normal;font-feature-settings:normal;font-variation-settings:normal;text-indent:0;text-align:start;text-decoration:none;text-decoration-line:none;text-decoration-style:solid;text-decoration-color:#000000;letter-spacing:normal;word-spacing:normal;text-transform:none;writing-mode:lr-tb;direction:ltr;text-orientation:mixed;dominant-baseline:auto;baseline-shift:baseline;text-anchor:start;white-space:normal;shape-padding:0;shape-margin:0;inline-size:0;clip-rule:nonzero;display:inline;overflow:visible;visibility:visible;isolation:auto;mix-blend-mode:normal;color-interpolation:sRGB;color-interpolation-filters:linearRGB;solid-color:#000000;solid-opacity:1;vector-effect:none;fill:#008000;fill-opacity:1;fill-rule:nonzero;stroke:none;stroke-width:0.89516;stroke-linecap:butt;stroke-linejoin:miter;stroke-miterlimit:10;stroke-dasharray:none;stroke-dashoffset:0;stroke-opacity:1.0;color-rendering:auto;image-rendering:auto;shape-rendering:auto;text-rendering:auto;enable-background:accumulate;stop-color:#000000;stop-opacity:1;" /><path
     id="path877"
     d="M 116.71484 46.130859 L 116.58008 46.322266 C 113.70687 50.417962 91.545851 81.478778 73.085938 93.8125 L 73.078125 93.816406 L 73.070312 93.822266 C 73.070312 93.822266 71.110898 95.249395 69.597656 96.703125 C 68.841035 97.42999 68.188986 98.127395 67.923828 98.820312 C 67.791249 99.166771 67.772176 99.620897 68.060547 99.929688 C 68.348918 100.23848 68.764676 100.31641 69.289062 100.31641 C 70.07461 100.31641 73.010863 100.57654 76.984375 100.86719 C 80.957887 101.15784 86.020821 101.47769 91.25 101.58984 C 96.479179 101.70199 101.87433 101.60767 106.52539 101.06836 C 111.03799 100.54511 114.78779 99.596254 117.11719 97.939453 C 119.4465 99.596792 123.19755 100.54502 127.71094 101.06836 C 132.36201 101.60767 137.75715 101.70199 142.98633 101.58984 C 148.21551 101.47769 153.2765 101.15784 157.25 100.86719 C 161.2235 100.57654 164.16175 100.31641 164.94727 100.31641 C 165.47066 100.31641 165.88438 100.23743 166.17188 99.927734 C 166.45937 99.618039 166.43794 99.164436 166.30469 98.818359 C 166.03818 98.126207 165.38604 97.429931 164.62891 96.703125 C 163.11464 95.249512 161.15625 93.822266 161.15625 93.822266 L 161.07617 93.765625 C 142.63629 81.404376 120.51383 50.413157 117.64453 46.322266 L 117.51172 46.130859 L 116.71484 46.130859 z M 117.11328 47.111328 C 120.32787 51.685551 142.05184 82.120836 160.62695 94.544922 C 160.62695 94.544922 160.64056 94.556593 160.64062 94.556641 L 160.64258 94.558594 C 160.66071 94.571865 162.57012 95.96763 164.00977 97.349609 C 164.73301 98.043878 165.32683 98.766971 165.4707 99.140625 C 165.54264 99.327452 165.51671 99.319148 165.51562 99.320312 C 165.51454 99.321477 165.35707 99.419922 164.94727 99.419922 C 163.98279 99.419922 161.15138 99.684523 157.18555 99.974609 C 153.21972 100.2647 148.17198 100.58172 142.9668 100.69336 C 137.76161 100.805 132.39849 100.71122 127.81445 100.17969 C 123.23042 99.648154 119.42382 98.651905 117.38867 97.103516 L 117.11719 96.898438 L 116.8457 97.103516 C 114.81058 98.651903 111.0059 99.648154 106.42188 100.17969 C 101.83785 100.71122 96.474715 100.805 91.269531 100.69336 C 86.064348 100.58172 81.016623 100.2647 77.050781 99.974609 C 73.08494 99.684523 70.253565 99.419922 69.289062 99.419922 C 68.877999 99.419922 68.716776 99.320429 68.714844 99.318359 C 68.712911 99.31629 68.688419 99.327069 68.759766 99.140625 C 68.902458 98.767736 69.496121 98.043819 70.21875 97.349609 C 71.65759 95.967355 73.566924 94.569124 73.583984 94.556641 L 73.599609 94.544922 C 92.183047 82.119912 113.8999 51.683337 117.11328 47.111328 z "
     style="color:#000000;font-style:normal;font-variant:normal;font-weight:normal;font-stretch:normal;font-size:medium;line-height:normal;font-family:sans-serif;font-variant-ligatures:normal;font-variant-position:normal;font-variant-caps:normal;font-variant-numeric:normal;font-variant-alternates:normal;font-variant-east-asian:normal;font-feature-settings:normal;font-variation-settings:normal;text-indent:0;text-align:start;text-decoration:none;text-decoration-line:none;text-decoration-style:solid;text-decoration-color:#000000;letter-spacing:normal;word-spacing:normal;text-transform:none;writing-mode:lr-tb;direction:ltr;text-orientation:mixed;dominant-baseline:auto;baseline-shift:baseline;text-anchor:start;white-space:normal;shape-padding:0;shape-margin:0;inline-size:0;clip-rule:nonzero;display:inline;overflow:visible;visibility:visible;isolation:auto;mix-blend-mode:normal;color-interpolation:sRGB;color-interpolation-filters:linearRGB;solid-color:#000000;solid-opacity:1;vector-effect:none;fill:#010101;fill-opacity:1;fill-rule:nonzero;stroke:none;stroke-width:0.89516;stroke-linecap:butt;stroke-linejoin:miter;stroke-miterlimit:10;stroke-dasharray:none;stroke-dashoffset:0;stroke-opacity:1.0;color-rendering:auto;image-rendering:auto;shape-rendering:auto;text-rendering:auto;enable-background:accumulate;stop-color:#000000;stop-opacity:1;" /></g><g
   style="opacity:1"
   id="g849"><path
     id="path851"
     d="M 147.29,53.982 C 134.462,41.548 119.218,10.495 117.23,6.386 h -0.23274 c -1.9873,4.1088 -17.241,35.171 -30.06,47.596 0,0 -5.371,5.6843 -2.7929,5.6843 2.408,0 26.98,4.2073 32.969,-2.408 5.9887,6.6063 30.561,2.408 32.969,2.408 2.5781,0 -2.7929,-5.6843 -2.7929,-5.6843 z"
     style="color:#000000;font-style:normal;font-variant:normal;font-weight:normal;font-stretch:normal;font-size:medium;line-height:normal;font-family:sans-serif;font-variant-ligatures:normal;font-variant-position:normal;font-variant-caps:normal;font-variant-numeric:normal;font-variant-alternates:normal;font-variant-east-asian:normal;font-feature-settings:normal;font-variation-settings:normal;text-indent:0;text-align:start;text-decoration:none;text-decoration-line:none;text-decoration-style:solid;text-decoration-color:#000000;letter-spacing:normal;word-spacing:normal;text-transform:none;writing-mode:lr-tb;direction:ltr;text-orientation:mixed;dominant-baseline:auto;baseline-shift:baseline;text-anchor:start;white-space:normal;shape-padding:0;shape-margin:0;inline-size:0;clip-rule:nonzero;display:inline;overflow:visible;visibility:visible;isolation:auto;mix-blend-mode:normal;color-interpolation:sRGB;color-interpolation-filters:linearRGB;solid-color:#000000;solid-opacity:1;vector-effect:none;fill:#668000;fill-opacity:1;fill-rule:nonzero;stroke:none;stroke-width:0.89516;stroke-linecap:butt;stroke-linejoin:miter;stroke-miterlimit:10;stroke-dasharray:none;stroke-dashoffset:0;stroke-opacity:1;color-rendering:auto;image-rendering:auto;shape-rendering:auto;text-rendering:auto;enable-background:accumulate;stop-color:#000000;stop-opacity:1" /><path
     id="path853"
     d="M 116.7168 5.9375 L 116.59375 6.1914062 C 115.60305 8.2397168 111.29625 17.024431 105.64062 26.841797 C 99.985001 36.659163 92.964362 47.515638 86.625 53.660156 L 86.619141 53.667969 L 86.611328 53.673828 C 86.611328 53.673828 85.257466 55.105162 84.210938 56.5625 C 83.687673 57.291169 83.233882 58.008886 83.060547 58.664062 C 82.97388 58.991651 82.94501 59.347461 83.148438 59.664062 C 83.351865 59.980664 83.740032 60.113281 84.144531 60.113281 C 84.380363 60.113281 85.0451 60.17741 85.957031 60.279297 C 86.868963 60.381184 88.051198 60.520187 89.421875 60.666016 C 92.163229 60.957674 95.657755 61.277624 99.271484 61.390625 C 102.88521 61.503626 106.61657 61.411047 109.84766 60.867188 C 112.91068 60.351617 115.47173 59.392337 117.11328 57.779297 C 118.75483 59.390199 121.31601 60.348135 124.37891 60.863281 C 127.60991 61.406701 131.34135 61.499154 134.95508 61.386719 C 138.5688 61.274284 142.06332 60.955016 144.80469 60.664062 C 146.17537 60.518586 147.35759 60.380957 148.26953 60.279297 C 149.18148 60.177637 149.84606 60.113281 150.08203 60.113281 C 150.48653 60.113281 150.8747 59.980664 151.07812 59.664062 C 151.28155 59.347461 151.25268 58.991651 151.16602 58.664062 C 150.99268 58.008886 150.53889 57.291169 150.01562 56.5625 C 149.24308 55.486695 148.6837 54.91177 148.24414 54.429688 L 148.39453 54.429688 L 147.61523 53.673828 L 147.60156 53.660156 C 141.25765 47.51109 134.23644 36.654095 128.58203 26.837891 C 122.92763 17.021686 118.62399 8.2400779 117.63281 6.1914062 L 117.50977 5.9375 L 116.7168 5.9375 z M 117.11328 7.1503906 C 118.3137 9.6208219 122.35266 17.816891 127.80664 27.285156 C 133.28 36.787063 139.99796 47.166096 146.28906 53.535156 L 146.25 53.535156 L 146.96484 54.289062 C 146.96484 54.289062 148.29462 55.701125 149.28906 57.085938 C 149.78629 57.778344 150.19214 58.481948 150.30078 58.892578 C 150.3551 59.097893 150.32248 59.185429 150.32617 59.179688 C 150.32986 59.173946 150.32206 59.21875 150.08203 59.21875 C 149.716 59.21875 149.08607 59.286543 148.16992 59.388672 C 147.25377 59.490801 146.0761 59.628547 144.71094 59.773438 C 141.98061 60.063219 138.50472 60.380835 134.92578 60.492188 C 131.34684 60.60354 127.66322 60.507889 124.52734 59.980469 C 121.39147 59.453048 118.82435 58.478288 117.44531 56.957031 L 117.11328 56.591797 L 116.78125 56.957031 C 115.40204 58.480471 112.83504 59.45655 109.69922 59.984375 C 106.56339 60.5122 102.87968 60.608005 99.300781 60.496094 C 95.721886 60.384182 92.24788 60.065873 89.517578 59.775391 C 88.152427 59.630149 86.972791 59.49103 86.056641 59.388672 C 85.14049 59.286313 84.5107 59.21875 84.144531 59.21875 C 83.904506 59.21875 83.896701 59.173946 83.900391 59.179688 C 83.90408 59.185429 83.871463 59.097893 83.925781 58.892578 C 84.034418 58.481948 84.440277 57.778344 84.9375 57.085938 C 85.931947 55.701125 87.261719 54.289063 87.261719 54.289062 C 93.737817 48.006668 100.74693 37.129802 106.41602 27.289062 C 111.8712 17.819623 115.91295 9.6210331 117.11328 7.1503906 z "
     style="color:#000000;font-style:normal;font-variant:normal;font-weight:normal;font-stretch:normal;font-size:medium;line-height:normal;font-family:sans-serif;font-variant-ligatures:normal;font-variant-position:normal;font-variant-caps:normal;font-variant-numeric:normal;font-variant-alternates:normal;font-variant-east-asian:normal;font-feature-settings:normal;font-variation-settings:normal;text-indent:0;text-align:start;text-decoration:none;text-decoration-line:none;text-decoration-style:solid;text-decoration-color:#000000;letter-spacing:normal;word-spacing:normal;text-transform:none;writing-mode:lr-tb;direction:ltr;text-orientation:mixed;dominant-baseline:auto;baseline-shift:baseline;text-anchor:start;white-space:normal;shape-padding:0;shape-margin:0;inline-size:0;clip-rule:nonzero;display:inline;overflow:visible;visibility:visible;isolation:auto;mix-blend-mode:normal;color-interpolation:sRGB;color-interpolation-filters:linearRGB;solid-color:#000000;solid-opacity:1;vector-effect:none;fill:#010101;fill-opacity:1;fill-rule:nonzero;stroke:none;stroke-width:0.89516;stroke-linecap:butt;stroke-linejoin:miter;stroke-miterlimit:10;stroke-dasharray:none;stroke-dashoffset:0;stroke-opacity:1.0;color-rendering:auto;image-rendering:auto;shape-rendering:auto;text-rendering:auto;enable-background:accumulate;stop-color:#000000;stop-opacity:1;" /></g></svg>
