<?xml version="1.0" encoding="UTF-8" standalone="no"?>
<svg
   xmlns:dc="http://purl.org/dc/elements/1.1/"
   xmlns:cc="http://creativecommons.org/ns#"
   xmlns:rdf="http://www.w3.org/1999/02/22-rdf-syntax-ns#"
   xmlns:svg="http://www.w3.org/2000/svg"
   xmlns="http://www.w3.org/2000/svg"
   xmlns:sodipodi="http://sodipodi.sourceforge.net/DTD/sodipodi-0.dtd"
   xmlns:inkscape="http://www.inkscape.org/namespaces/inkscape"
   sodipodi:docname="2020-SK-04_taskbody2-compatible.svg"
   inkscape:version="1.0 (4035a4fb49, 2020-05-01)"
   id="svg5147"
   version="1.1"
   viewBox="0 0 20 24"
   height="24mm"
   width="20mm">
  <defs
     id="defs5141" />
  <sodipodi:namedview
     fit-margin-bottom="0"
     fit-margin-right="0"
     fit-margin-left="0"
     fit-margin-top="0"
     showgrid="false"
     inkscape:document-rotation="0"
     inkscape:current-layer="layer1"
     inkscape:document-units="mm"
     inkscape:cy="560"
     inkscape:cx="400"
     inkscape:zoom="0.35"
     inkscape:pageshadow="2"
     inkscape:pageopacity="0.0"
     borderopacity="1.0"
     bordercolor="#666666"
     pagecolor="#ffffff"
     id="base" />
  <metadata
     id="metadata5144">
    <rdf:RDF>
      <cc:Work
         rdf:about="">
        <dc:format>image/svg+xml</dc:format>
        <dc:type
           rdf:resource="http://purl.org/dc/dcmitype/StillImage" />
        <dc:title></dc:title>
      </cc:Work>
    </rdf:RDF>
  </metadata>
  <g
     transform="translate(-73.134928,-100.3387)"
     id="layer1"
     inkscape:groupmode="layer"
     inkscape:label="Ebene 1">
    <g
       id="g1001"
       transform="matrix(0.60406995,0,0,0.61878662,13.728267,-17.863929)"
       style="stroke-width:1.61361">
      <path
         transform="scale(0.26458333)"
         d="m 430.01562,723.5 c -20.3298,0.71639 -30.32354,11.57632 -26.55859,18.35742 l -0.72656,0.01 c -7.66515,0 -11.49486,8.96971 -7.80274,14.60351 l -0.67187,0.01 c -4.40073,0.43117 -7.68362,6.18195 -8.89258,11.9082 -0.50658,2.55837 -0.50514,4.62804 -0.10547,6.31445 l -0.71679,-0.008 c -5.53502,2.71463 -11.28959,13.47798 -4.10352,21.47071 -1.30767,5.58538 -7.19346,14.76059 -3.84961,20.0957 0.4478,0.71447 0.98262,1.3656 1.56055,1.98437 -2.45956,3.08988 -3.81077,6.89152 -4.67383,11.01172 -0.93272,3.76111 0.56676,6.58479 3.16601,8.76563 l -1.25,-0.008 c -1.54408,4.28361 -1.87777,9.45151 -0.50781,13.92579 3.70621,11.04336 13.77204,8.67736 22.71875,9.36523 28.11099,2.17285 59.98533,10.0681 83.2461,2.46875 7.14028,-2.33276 15.42965,-6.11957 13.51562,-13.83789 -0.88671,-4.23303 -2.27884,-8.13773 -4.86914,-11.27148 l -2.48828,-0.0137 c 2.55312,-1.28253 4.64516,-3.50492 5.94922,-7.39062 1.36996,-4.47428 1.03627,-9.64218 -0.50781,-13.92578 l -0.6211,0.004 c 7.93034,-6.54326 0.0602,-17.61667 -1.70312,-23.26562 3.05785,-4.61974 2.44102,-10.59605 -3.57227,-18.18555 l -0.75195,-0.01 c 4.63586,-4.51204 2.56338,-11.13947 -10.80274,-20.5918 3.33615,-3.7053 1.08589,-8.49545 -10.49218,-14.29492 C 465.91438,729.41123 439.1504,723.46411 430.01562,723.5 Z"
         style="fill:#c8a20c;fill-opacity:1;stroke:none;stroke-width:3.04933;stroke-linecap:butt;stroke-linejoin:miter;stroke-miterlimit:4;stroke-dasharray:none;stroke-opacity:1"
         id="path902-2" />
      <path
         id="path2033"
         style="color:#000000;font-style:normal;font-variant:normal;font-weight:normal;font-stretch:normal;font-size:medium;line-height:normal;font-family:sans-serif;font-variant-ligatures:normal;font-variant-position:normal;font-variant-caps:normal;font-variant-numeric:normal;font-variant-alternates:normal;font-variant-east-asian:normal;font-feature-settings:normal;font-variation-settings:normal;text-indent:0;text-align:start;text-decoration:none;text-decoration-line:none;text-decoration-style:solid;text-decoration-color:#000000;letter-spacing:normal;word-spacing:normal;text-transform:none;writing-mode:lr-tb;direction:ltr;text-orientation:mixed;dominant-baseline:auto;baseline-shift:baseline;text-anchor:start;white-space:normal;shape-padding:0;shape-margin:0;inline-size:0;clip-rule:nonzero;display:inline;overflow:visible;visibility:visible;opacity:1;isolation:auto;mix-blend-mode:normal;color-interpolation:sRGB;color-interpolation-filters:linearRGB;solid-color:#000000;solid-opacity:1;vector-effect:none;fill:#502d16;fill-opacity:1;fill-rule:nonzero;stroke:none;stroke-width:1.88976;stroke-linecap:butt;stroke-linejoin:miter;stroke-miterlimit:4;stroke-dasharray:none;stroke-dashoffset:0;stroke-opacity:1;color-rendering:auto;image-rendering:auto;shape-rendering:auto;text-rendering:auto;enable-background:accumulate;stop-color:#000000;stop-opacity:1"
         d="m 543.63672,174.37891 c -9.78586,0.3453 -16.05003,4.27527 -17.54102,8.64843 -0.31738,0.93091 -0.35723,1.88955 -0.1582,2.80078 -2.89165,0.36497 -4.9422,2.58882 -5.5918,5.10157 -0.34384,1.32999 -0.28921,2.77587 0.19727,4.0957 -1.33644,0.41863 -2.43921,1.43371 -3.29297,2.67383 -1.03632,1.50529 -1.76137,3.38338 -2.1582,5.26562 v 0.008 l -0.004,0.006 c -0.24844,1.2565 -0.30738,2.37183 -0.20508,3.36523 -2.13165,1.14293 -4.01762,3.62728 -4.69922,6.59961 -0.56012,2.44261 -0.1816,5.25347 1.73829,7.66406 -0.42028,1.41669 -1.29367,3.37734 -1.99024,5.375 -0.8623,2.47299 -1.52048,5.18205 -0.15039,7.3711 0.16849,0.2692 0.35688,0.51995 0.55078,0.76757 -1.34705,1.94141 -2.09975,4.20865 -2.5957,6.57032 -0.51799,2.10526 0.0921,3.92366 1.24609,5.33789 l -0.0293,-0.01 c -1.02368,2.84389 -1.25064,6.2236 -0.33007,9.23438 v 0.0137 l 0.006,0.01 c 1.23613,3.68848 3.77347,5.35094 6.51757,5.9375 2.74413,0.5866 5.71614,0.30686 8.37696,0.51172 17.28844,1.3382 37.0871,6.34036 51.91797,1.48828 2.25184,-0.73672 4.72752,-1.69315 6.58789,-3.19922 1.85695,-1.50327 3.07407,-3.76499 2.40429,-6.49609 -0.56247,-2.6784 -1.45627,-5.23395 -3.17187,-7.33203 0.94441,-0.91719 1.74138,-2.12349 2.28125,-3.73438 l 0.004,-0.0137 0.006,-0.008 c 0.88782,-2.90362 0.69965,-6.14551 -0.23242,-8.92383 0.91777,-1.01606 1.44108,-2.18284 1.63086,-3.37304 0.24191,-1.51714 -0.009,-3.04946 -0.43555,-4.50391 -0.7385,-2.51796 -2.0219,-4.92077 -2.59374,-6.43945 0.5741,-0.98774 0.93934,-2.06674 1.01757,-3.24024 0.16803,-2.52014 -0.90662,-5.30679 -3.27734,-8.39844 0.3961,-0.57308 0.68006,-1.19826 0.80859,-1.88281 0.30894,-1.64546 -0.27709,-3.43907 -1.66406,-5.30664 -1.26084,-1.69775 -3.24367,-3.52304 -5.98047,-5.53125 0.35907,-0.6323 0.5592,-1.34629 0.50781,-2.08203 -0.0599,-0.85793 -0.428,-1.70046 -1.04101,-2.51172 -1.14968,-1.52147 -3.20444,-3.01569 -6.29688,-4.61914 -0.0163,-1.7367 -0.87434,-3.31755 -2.17578,-4.57812 -1.60928,-1.55872 -3.87454,-2.7731 -6.34961,-3.75 -4.95016,-1.95379 -10.70081,-2.92435 -13.80664,-2.91211 h -0.0137 z m 0.0508,1.89062 c 2.68364,-0.008 8.4191,0.93655 13.08789,2.7793 2.33713,0.92248 4.41825,2.07677 5.73438,3.35156 1.25215,1.21284 1.75643,2.41987 1.50781,3.8457 -0.51506,0.75974 -1.19613,1.16474 -2.40039,1.48633 -1.26816,0.33865 -2.97957,0.55959 -5.00196,1.08594 -5.07208,1.32008 -12.90753,-0.15019 -18.76562,0.22461 -4.29754,0.27494 -7.14219,-0.46964 -8.64844,-1.54297 -1.50625,-1.07331 -1.84036,-2.32651 -1.3164,-3.86328 1.04732,-3.07191 6.51824,-7.0355 15.80273,-7.36719 z m 21.82031,11.23633 c 2.72209,1.45763 4.4677,2.79706 5.2793,3.87109 0.45364,0.60033 0.63551,1.09685 0.66406,1.50586 0.0286,0.40899 -0.0742,0.76739 -0.36133,1.18555 -0.57427,0.83629 -1.9843,1.78053 -4.01757,2.56445 -2.03328,0.78393 -4.66414,1.44225 -7.61329,1.94141 -5.89828,0.99835 -13.08864,1.37461 -19.58789,1.08398 -6.49922,-0.2906 -12.35112,-1.29959 -15.36132,-2.83789 -2.28445,-1.16744 -2.86404,-3.37721 -2.33594,-5.41992 0.52558,-2.03309 2.14866,-3.72236 4.5664,-3.73828 0.35635,0.50919 0.80433,0.97671 1.36329,1.375 2.05543,1.46465 5.30594,2.18428 9.86523,1.89258 5.40794,-0.34597 13.30306,1.23544 19.12305,-0.2793 1.89271,-0.4926 3.55302,-0.69927 5.01562,-1.08984 1.32893,-0.35487 2.55835,-0.93171 3.40039,-2.05469 z m 6.09375,8.76953 c 2.69842,1.97284 4.58322,3.73181 5.6875,5.21875 1.19839,1.61361 1.50968,2.85078 1.32617,3.82813 -0.1835,0.97734 -0.89457,1.87717 -2.24023,2.72265 -1.34568,0.84548 -3.2855,1.57589 -5.63281,2.15625 -9.38929,2.32145 -25.21505,2.24954 -37.40039,1.18164 -4.11273,-0.64726 -8.91015,-0.34945 -12.23828,-1.11719 -1.67317,-0.38595 -2.90298,-1.00838 -3.61524,-1.99609 -0.71027,-0.98499 -1.02892,-2.46704 -0.54883,-4.91211 v -0.004 c 0.35211,-1.66757 1.01732,-3.34649 1.86524,-4.57813 0.81316,-1.18112 1.74859,-1.89624 2.6875,-2.03906 0.54778,0.69786 1.261,1.30903 2.16211,1.76953 3.56286,1.82072 9.49545,2.74637 16.1289,3.04297 6.63348,0.29662 13.92348,-0.0842 19.99219,-1.11133 3.03434,-0.51358 5.76236,-1.18493 7.97266,-2.03711 1.56318,-0.60269 2.87426,-1.28422 3.85351,-2.125 z m -56.2539,11.98828 c 0.16674,0.40089 0.36873,0.77611 0.61328,1.11524 1.09001,1.51157 2.81232,2.28874 4.71875,2.72851 3.81288,0.87956 8.64079,0.54082 12.43359,1.14844 l 0.0332,0.01 h 0.0312 c 12.31547,1.07931 28.14823,1.21166 38.01758,-1.22851 2.46732,-0.61003 4.5721,-1.37495 6.18555,-2.38867 0.34762,-0.21841 0.66858,-0.45421 0.9707,-0.70117 2.05476,2.75474 2.82183,5.03804 2.69922,6.87695 -0.13072,1.96095 -1.2134,3.57944 -3.21875,5.01758 -4.01065,2.8763 -11.61828,4.6251 -20.17773,5.29101 -8.55946,0.66589 -18.08381,0.31096 -26.07618,-0.70898 -3.9962,-0.50997 -7.61121,-1.18411 -10.51562,-1.97266 -2.90441,-0.78852 -5.1103,-1.72356 -6.18945,-2.56836 -0.32992,-0.25826 -0.6187,-0.5233 -0.88867,-0.79101 0.007,-0.0425 0.0193,-0.0867 0.0254,-0.12891 l -0.1836,-0.0273 c -1.99656,-2.07848 -2.297,-4.40247 -1.80078,-6.56641 0.50191,-2.18872 1.95659,-4.15382 3.32227,-5.10547 z m 65.23632,12.69336 c 0.68117,1.60225 1.58979,3.39083 2.12305,5.20899 0.37993,1.29532 0.55642,2.55869 0.37891,3.67187 -0.17749,1.11318 -0.66717,2.09392 -1.79297,3.00195 -2.69483,2.1736 -9.1105,3.25957 -15.63477,3.62696 -6.52424,0.36738 -13.14952,0.14713 -16.70898,0.28711 -4.41975,0.17382 -12.51234,1.25843 -20.21875,1.1582 -3.85322,-0.0501 -7.59739,-0.40132 -10.66602,-1.27734 -3.06865,-0.876 -5.41416,-2.25693 -6.68359,-4.28516 -0.81673,-1.30494 -0.47583,-3.4217 0.33398,-5.74414 0.53122,-1.52347 1.20845,-3.04266 1.70704,-4.47461 0.0954,0.0797 0.18528,0.16205 0.28515,0.24023 1.48867,1.16538 3.83511,2.08571 6.85742,2.90625 3.02229,0.82054 6.70949,1.50508 10.77149,2.02344 8.124,1.03672 17.74634,1.39704 26.46484,0.71875 8.7185,-0.67826 16.51922,-2.33472 21.12891,-5.64062 0.61075,-0.43801 1.16312,-0.91318 1.65429,-1.42188 z m 1.17188,13.87891 c 0.60663,2.25018 0.66169,4.81629 -0.006,7.01758 -4.7e-4,0.002 -0.003,0.004 -0.004,0.006 -1.05933,3.15429 -2.7851,4.18548 -5.11523,4.68359 -2.33201,0.49848 -5.2491,0.25287 -8.12891,0.47461 -17.52957,1.35685 -37.20776,6.14979 -51.1875,1.57617 -2.17008,-0.70998 -4.46902,-1.64826 -5.98437,-2.875 -1.51534,-1.22672 -2.26713,-2.52937 -1.75977,-4.57813 l 0.004,-0.0195 0.006,-0.0176 c 0.43823,-2.09506 1.07642,-3.99114 2.10351,-5.5879 1.5751,1.34508 3.59383,2.29075 5.85938,2.9375 3.32704,0.94977 7.20841,1.29824 11.1582,1.34961 7.89958,0.10274 16.12741,-0.99712 20.32227,-1.16211 3.38478,-0.13311 10.10252,0.0906 16.74023,-0.2832 6.20773,-0.34957 12.34946,-1.10762 15.99219,-3.52148 z m -1.92774,12.46875 -0.0527,0.043 c 1.46471,1.77449 2.28796,4.03318 2.82031,6.57812 v 0.0195 l 0.006,0.0176 c 0.50736,2.04876 -0.24441,3.35138 -1.75976,4.57813 -1.51536,1.22674 -3.81427,2.16502 -5.98438,2.875 -13.97973,4.57361 -33.65987,-0.21737 -51.18945,-1.57422 -2.87984,-0.22174 -5.79495,0.0219 -8.12695,-0.47657 -2.32712,-0.49745 -4.05165,-1.52911 -5.11133,-4.67382 -0.69372,-2.27615 -0.61321,-4.94388 0.0508,-7.25 1.81655,1.35892 4.12802,2.25757 6.24805,2.95117 14.83086,4.85207 34.63145,-0.15009 51.91992,-1.48828 2.66082,-0.20486 5.6348,0.0748 8.3789,-0.51172 0.97764,-0.20898 1.92564,-0.56282 2.80078,-1.08789 z"
         transform="matrix(0.42723277,0,0,0.42663388,-118.49801,116.6273)" />
      <g
         id="g1956"
         style="opacity:1">
        <path
           style="color:#000000;font-style:normal;font-variant:normal;font-weight:normal;font-stretch:normal;font-size:medium;line-height:normal;font-family:sans-serif;font-variant-ligatures:normal;font-variant-position:normal;font-variant-caps:normal;font-variant-numeric:normal;font-variant-alternates:normal;font-variant-east-asian:normal;font-feature-settings:normal;font-variation-settings:normal;text-indent:0;text-align:start;text-decoration:none;text-decoration-line:none;text-decoration-style:solid;text-decoration-color:#000000;letter-spacing:normal;word-spacing:normal;text-transform:none;writing-mode:lr-tb;direction:ltr;text-orientation:mixed;dominant-baseline:auto;baseline-shift:baseline;text-anchor:start;white-space:normal;shape-padding:0;shape-margin:0;inline-size:0;clip-rule:nonzero;display:inline;overflow:visible;visibility:visible;isolation:auto;mix-blend-mode:normal;color-interpolation:sRGB;color-interpolation-filters:linearRGB;solid-color:#000000;solid-opacity:1;vector-effect:none;fill:#000000;fill-opacity:1;fill-rule:nonzero;stroke:none;stroke-width:0.426933px;stroke-linecap:round;stroke-linejoin:round;stroke-miterlimit:4;stroke-dasharray:none;stroke-dashoffset:0;stroke-opacity:1;color-rendering:auto;image-rendering:auto;shape-rendering:auto;text-rendering:auto;enable-background:accumulate;stop-color:#000000;stop-opacity:1"
           d="m 119.01786,225.66093 c 1.55543,-6.38757 -6.25036,-8.15017 -8.91427,-4.09465 -0.41544,0.63248 -0.35064,1.60776 -0.49943,2.32945 -0.50702,2.45913 -0.12132,2.02099 2.25,2.40575 1.34935,0.21894 2.79116,-0.19324 4.15511,-0.18434 1.0754,0.007 2.0764,0.11951 3.00859,-0.45621 z"
           id="path1958" />
        <path
           style="color:#000000;font-style:normal;font-variant:normal;font-weight:normal;font-stretch:normal;font-size:medium;line-height:normal;font-family:sans-serif;font-variant-ligatures:normal;font-variant-position:normal;font-variant-caps:normal;font-variant-numeric:normal;font-variant-alternates:normal;font-variant-east-asian:normal;font-feature-settings:normal;font-variation-settings:normal;text-indent:0;text-align:start;text-decoration:none;text-decoration-line:none;text-decoration-style:solid;text-decoration-color:#000000;letter-spacing:normal;word-spacing:normal;text-transform:none;writing-mode:lr-tb;direction:ltr;text-orientation:mixed;dominant-baseline:auto;baseline-shift:baseline;text-anchor:start;white-space:normal;shape-padding:0;shape-margin:0;inline-size:0;clip-rule:nonzero;display:inline;overflow:visible;visibility:visible;isolation:auto;mix-blend-mode:normal;color-interpolation:sRGB;color-interpolation-filters:linearRGB;solid-color:#000000;solid-opacity:1;vector-effect:none;fill:#1a1a1a;fill-opacity:1;fill-rule:nonzero;stroke:none;stroke-width:0.426933px;stroke-linecap:round;stroke-linejoin:round;stroke-miterlimit:4;stroke-dasharray:none;stroke-dashoffset:0;stroke-opacity:1;color-rendering:auto;image-rendering:auto;shape-rendering:auto;text-rendering:auto;enable-background:accumulate;stop-color:#000000;stop-opacity:1"
           d="m 114.50977,219.18164 c -1.7482,-0.0546 -3.53978,0.67789 -4.58399,2.26758 -0.47631,0.72516 -0.39261,1.73186 -0.53125,2.4043 -0.12758,0.61879 -0.20134,1.05787 -0.19922,1.40234 0.002,0.34447 0.10278,0.62424 0.32617,0.79102 0.2234,0.16677 0.50884,0.22079 0.87891,0.27343 0.37007,0.0526 0.83432,0.0964 1.41992,0.19141 1.41489,0.22957 2.86754,-0.19025 4.1875,-0.18164 1.06138,0.007 2.12215,0.12987 3.12305,-0.48828 a 0.21348784,0.21348784 0 0 0 0.0937,-0.13086 c 0.3991,-1.63897 0.1998,-3.00811 -0.38281,-4.0586 -0.58261,-1.05048 -1.54126,-1.77523 -2.62891,-2.15625 -0.54382,-0.19051 -1.12039,-0.29624 -1.70312,-0.31445 z m -1.60743,0.62109 c 1.03806,-0.29193 2.16757,-0.25543 3.16993,0.0957 1.00235,0.35114 1.86972,1.01116 2.39648,1.96094 0.51356,0.92597 0.69094,2.14569 0.34961,3.64648 -0.84059,0.47711 -1.75434,0.4053 -2.80859,0.39844 -1.40794,-0.009 -2.83729,0.39385 -4.1211,0.18554 -0.60005,-0.0974 -1.0744,-0.14114 -1.42773,-0.1914 -0.35334,-0.0503 -0.57753,-0.11418 -0.6836,-0.19336 -0.10606,-0.0792 -0.15454,-0.17414 -0.15625,-0.45117 -0.002,-0.27704 0.0655,-0.70369 0.19141,-1.31446 0.15894,-0.77094 0.11418,-1.71605 0.46875,-2.25586 0.63582,-0.96796 1.58304,-1.58892 2.62109,-1.88086 z"
           id="path1960" />
      </g>
    </g>
  </g>
</svg>
