<?xml version="1.0" encoding="UTF-8" standalone="no"?>
<svg
   xmlns:dc="http://purl.org/dc/elements/1.1/"
   xmlns:cc="http://creativecommons.org/ns#"
   xmlns:rdf="http://www.w3.org/1999/02/22-rdf-syntax-ns#"
   xmlns:svg="http://www.w3.org/2000/svg"
   xmlns="http://www.w3.org/2000/svg"
   xmlns:sodipodi="http://sodipodi.sourceforge.net/DTD/sodipodi-0.dtd"
   xmlns:inkscape="http://www.inkscape.org/namespaces/inkscape"
   inkscape:version="1.0 (4035a4fb49, 2020-05-01)"
   sodipodi:docname="2020-CH-07_taskbody_ring.svg"
   xml:space="preserve"
   viewBox="0 0 237.07 300"
   version="1.1"
   height="300"
   width="237.07"
   id="Layer_1"><metadata
   id="metadata26"><rdf:RDF><cc:Work
       rdf:about=""><dc:format>image/svg+xml</dc:format><dc:type
         rdf:resource="http://purl.org/dc/dcmitype/StillImage" /></cc:Work></rdf:RDF></metadata><defs
   id="defs24" /><sodipodi:namedview
   inkscape:current-layer="Layer_1"
   showgrid="false"
   id="namedview22"
   inkscape:window-height="480"
   inkscape:window-width="640"
   inkscape:pageshadow="2"
   inkscape:pageopacity="0"
   guidetolerance="10"
   gridtolerance="10"
   objecttolerance="10"
   borderopacity="1"
   bordercolor="#666666"
   pagecolor="#ffffff" />
<style
   type="text/css"
   id="style2">
	.st0{fill-rule:evenodd;clip-rule:evenodd;}
	.st1{fill-rule:evenodd;clip-rule:evenodd;fill:#F0B938;}
	.st2{fill-rule:evenodd;clip-rule:evenodd;fill:#FCB323;}
	.st3{fill-rule:evenodd;clip-rule:evenodd;fill:#AEDDD0;}
	.st4{fill-rule:evenodd;clip-rule:evenodd;fill:#78C9B0;}
</style>

<g
   id="g38"
   transform="matrix(0.94539977,0,0,0.94539977,-21.474323,-11.977235)"
   style="stroke-width:2.65388"><path
     id="path4-4"
     d="m 115.76,68.01 c -3.46,-9.31 -6.72,-18.08 -9.98,-26.86 -0.37,-1 -0.78,-1.98 -1.06,-3.01 -1.52,-5.66 0.55,-10.21 6.14,-11.66 4.18,-1.09 7.29,-3.11 9.95,-6.39 4.05,-4.98 9.18,-7.04 15.86,-6.81 10.27,0.35 20.57,-0.24 30.85,-0.6 3.62,-0.13 6.61,0.88 9.1,3.48 2.68,2.81 5.25,5.76 8.14,8.35 1.65,1.48 3.73,2.57 5.78,3.46 8.09,3.54 10.4,9.1 6.86,17.14 -1.07,2.43 -2.4,4.75 -3.53,7.15 -1.67,3.53 -3.37,7.04 -4.84,10.65 -1.06,2.6 -1.78,5.33 -2.78,8.42 2.13,1.23 4.04,2.47 6.06,3.48 13.92,6.99 24.7,17.55 34.76,29.24 10.11,11.76 18.76,24.51 27.37,37.29 3.34,4.95 5.46,10.72 8.23,16.06 5.64,10.84 8.98,22.35 10.33,34.46 0.21,1.93 0.44,3.88 0.46,5.83 0.29,19.77 -3.51,38.81 -10.92,57.07 -1.97,4.86 -5.16,9.28 -8.11,13.7 -3.05,4.56 -6.74,8.71 -9.71,13.32 -8.72,13.59 -20.72,23.87 -34.04,32.4 -10.61,6.79 -22.29,11.7 -35.17,12.83 -2.47,0.21 -4.95,0.6 -7.35,1.19 -14.51,3.58 -28.95,0.93 -43.4,-0.45 -12.73,-1.21 -24.56,-5.25 -35.71,-11.41 -2.17,-1.2 -4.38,-2.38 -6.36,-3.86 -11.7,-8.7 -23,-17.78 -31.01,-30.3 -3.14,-4.92 -6.95,-9.41 -10.38,-14.15 -5.35,-7.39 -9.37,-15.48 -11.82,-24.27 -3.72,-13.35 -6.62,-26.85 -6.76,-40.81 -0.14,-13.86 2.85,-26.94 8.01,-39.85 7.49,-18.74 19.34,-34.65 31.25,-50.51 6.05,-8.06 12.9,-15.64 20.18,-22.6 5.33,-5.08 11.84,-8.98 18.05,-13.06 4.88,-3.18 10.12,-5.83 15.55,-8.92 z m 14.28,27.46 c -2.5,0.28 -4.84,0.24 -7.01,0.83 -6.49,1.75 -12.94,3.68 -19.37,5.66 -16.4,5.06 -30.56,13.83 -43.34,25.25 -8.68,7.76 -14.89,17.02 -19.67,27.43 -1.78,3.87 -3.58,7.73 -5.27,11.64 -5.67,13.08 -8.13,26.7 -7.11,40.99 0.68,9.59 2.32,18.99 4.58,28.3 1.94,7.94 4.15,15.85 8.72,22.75 3.61,5.47 7.79,10.56 11.38,16.04 5.77,8.8 12.26,16.79 20.23,23.82 10.29,9.08 21.4,16.65 34.54,20.38 20.55,5.84 41.59,7.32 62.76,3.8 7.32,-1.22 14.69,-2.76 21.69,-5.17 10.28,-3.55 19.44,-9.23 27.74,-16.47 8.48,-7.4 16.4,-15.13 22.25,-24.86 1.91,-3.18 4.3,-6.09 6.62,-9 4.68,-5.88 8.45,-12.26 10.91,-19.38 4.83,-14 7.8,-28.43 8.39,-43.19 0.52,-13.07 -1.92,-25.73 -7.31,-37.8 -5.91,-13.26 -14.25,-24.94 -23.25,-36.15 -7.37,-9.17 -15.77,-17.28 -26.75,-22.25 -4.68,-2.12 -9.14,-4.72 -13.8,-6.88 -7.74,-3.6 -16.03,-5.48 -24.31,-7.76 -1.72,2.6 -3.25,4.91 -4.81,7.25 -11.74,-1.75 -23.14,-0.51 -34.35,1.59 -1.23,-2.4 -2.18,-4.29 -3.46,-6.82 z m 57.74,-62.58 c -2.43,5.86 -4.67,11.43 -7.03,16.96 -5.22,12.24 -10.49,24.45 -15.71,36.68 -1.23,2.89 -3.29,4.6 -6.46,4.72 -4.96,0.2 -9.93,0.28 -14.9,0.45 -1.93,0.07 -2.74,-1.08 -3.49,-2.65 -7.73,-16.16 -16.29,-31.94 -21.76,-49.11 -0.95,-3 -2.45,-5.82 -3.67,-8.67 -5.09,1.23 -5.87,2.24 -4.46,6.34 2.65,7.71 5.31,15.43 8.28,23.02 3.1,7.92 6.52,15.72 9.87,23.54 2.13,5 4.38,9.96 6.23,14.15 11.18,-0.57 21.4,-1.09 32.36,-1.64 0.64,-1.13 1.68,-2.95 2.72,-4.78 8.86,-15.61 14.35,-32.79 22.59,-48.7 2.68,-5.18 1.63,-7.23 -4.57,-10.31 z M 120.3,71.84 C 108.76,78.28 97.66,83.76 88.05,91.69 81.44,97.13 65.62,116.01 64.48,119.7 83.23,104.58 105.06,96.84 128.53,92.05 125.77,85.29 123.14,78.82 120.3,71.84 Z m 53.37,18.33 c 36.93,12.75 39.32,15.28 57.68,27.91 -14.01,-18.25 -28.58,-34.05 -50.11,-42.55 -2.42,4.68 -4.9,9.47 -7.57,14.64 z m -23.64,-0.95 c -0.74,-16.88 1.92,-32.77 -0.02,-49.03 -5.55,-0.42 -10.59,-0.79 -15.76,-1.18 1.52,10.19 12.58,46.33 15.78,50.21 z m 3.99,-0.95 c 7.23,-15.63 9.68,-32.61 15.4,-49.39 -5.8,0.34 -10.83,0.63 -16.34,0.95 1.09,16.39 -0.76,32.35 0.94,48.44 z m 4.97,0.43 c 5.04,-3.52 5.42,-8.98 7.62,-13.26 2.35,-4.56 4.27,-9.34 6.27,-14.07 1.99,-4.73 3.98,-9.46 5.72,-14.29 1.68,-4.7 4.61,-8.98 5.64,-15.01 -2.98,1.67 -5,3.15 -7.26,3.99 -3.78,1.41 -5.15,4.2 -6.14,7.86 -3.85,14.17 -8,28.27 -12.01,42.4 -0.13,0.44 0.05,0.98 0.16,2.38 z M 120.78,36.2 c 2.39,11.71 19.14,48.5 24.31,52.64 -4.94,-17.03 -9.65,-33.24 -14.2,-48.96 -3.65,-1.33 -6.62,-2.42 -10.11,-3.68 z m 29.94,-2.61 c 4.55,-6.34 6.65,-10.88 7,-14.73 -2.29,0 -4.57,-0.02 -6.84,0.01 -2.35,0.03 -4.7,0.12 -7.82,0.21 2.73,5.2 5.01,9.51 7.66,14.51 z M 140.59,20.92 c -2.57,5.44 -4.65,9.83 -6.96,14.71 5.44,0.59 10.12,1.57 15.56,1.21 -2.95,-5.45 -5.52,-10.21 -8.6,-15.92 z m 20.43,0.47 c -2.81,5.5 -5.14,10.09 -7.95,15.59 5.64,-0.46 10.18,-0.83 15.38,-1.26 -2.56,-4.94 -4.72,-9.1 -7.43,-14.33 z m -29.39,11.6 c 2.34,-4.97 4.31,-9.16 6.43,-13.64 -5.4,-1.06 -9.49,-0.68 -12.31,4.08 1.79,2.92 3.59,5.84 5.88,9.56 z m 31.39,-14.32 c 2.28,4.47 4.35,8.54 6.41,12.6 0.41,-0.02 0.81,-0.04 1.22,-0.06 1.17,-3.18 2.34,-6.36 3.44,-9.36 -2.65,-4.46 -6.34,-4.1 -11.07,-3.18 z M 128.4,36.13 c 0.26,-0.28 0.51,-0.56 0.77,-0.84 -1.87,-3.19 -2.9,-6.96 -6.4,-9.41 -1.43,1.91 -2.67,3.55 -4.23,5.65 3.63,1.68 6.74,3.14 9.86,4.6 z m 53.44,-6.22 c -1.72,-2.22 -3.12,-4.02 -5.16,-6.63 -1.55,4.32 -2.71,7.53 -3.85,10.73 0.29,0.19 0.58,0.38 0.87,0.57 2.56,-1.46 5.11,-2.92 8.14,-4.67 z"
     class="st0"
     style="stroke-width:2.65388" /><path
     id="path6-3"
     d="m 130.04,95.47 c 1.28,2.53 2.23,4.42 3.45,6.85 11.21,-2.1 22.61,-3.35 34.35,-1.59 1.56,-2.34 3.09,-4.66 4.81,-7.25 8.28,2.27 16.57,4.16 24.31,7.76 4.66,2.17 9.13,4.76 13.8,6.88 10.98,4.97 19.38,13.08 26.75,22.25 9,11.21 17.34,22.89 23.25,36.15 5.39,12.08 7.83,24.74 7.31,37.8 -0.59,14.76 -3.55,29.19 -8.39,43.19 -2.46,7.12 -6.23,13.5 -10.91,19.38 -2.32,2.92 -4.71,5.82 -6.62,9 -5.85,9.73 -13.77,17.46 -22.25,24.86 -8.29,7.23 -17.45,12.91 -27.74,16.47 -7,2.41 -14.37,3.95 -21.69,5.17 -21.17,3.52 -42.21,2.03 -62.76,-3.8 -13.14,-3.73 -24.24,-11.31 -34.54,-20.38 -7.98,-7.03 -14.47,-15.03 -20.23,-23.82 -3.59,-5.48 -7.77,-10.58 -11.38,-16.04 -4.57,-6.91 -6.78,-14.81 -8.72,-22.75 -2.26,-9.31 -3.9,-18.71 -4.58,-28.3 -1.02,-14.29 1.44,-27.91 7.11,-40.99 1.69,-3.91 3.49,-7.77 5.27,-11.64 4.78,-10.41 10.98,-19.67 19.67,-27.43 12.78,-11.42 26.94,-20.19 43.34,-25.25 6.43,-1.98 12.88,-3.91 19.37,-5.66 2.18,-0.62 4.52,-0.59 7.02,-0.86 z m 18.78,12.26 c -12.47,0.53 -24.75,2.08 -36.6,6.23 -11.12,3.9 -21.21,9.78 -30.98,16.25 -6.73,4.45 -12.57,9.81 -17.04,16.6 -2.82,4.3 -6.14,8.33 -8.49,12.87 -3.74,7.21 -8.1,14.45 -9.98,22.21 -3.42,14.06 -2.76,28.51 -0.26,42.78 2.77,15.78 10.8,29.25 19.76,42.03 7.17,10.23 17.32,17.7 27.17,25.26 2.92,2.24 6.28,4.1 9.72,5.44 10.56,4.12 21.15,8.07 32.24,10.79 23.22,5.68 44.72,1.62 64.87,-10.45 11.67,-6.99 21.5,-16.38 29.97,-26.91 5.53,-6.86 10.71,-14.29 14.45,-22.22 6.57,-13.9 9.78,-28.73 9.05,-44.36 -0.64,-13.87 -4.1,-26.92 -9.54,-39.56 -4.69,-10.89 -11.84,-20.05 -19.61,-28.93 -9.06,-10.37 -20.31,-17.3 -32.89,-21.85 -13.42,-4.84 -27.48,-6.97 -41.84,-6.18 z"
     class="st1"
     style="fill:#ffcc00;stroke-width:2.65388" /><path
     id="path8-4"
     d="m 187.78,32.89 c 6.2,3.07 7.25,5.12 4.57,10.31 -8.23,15.91 -13.72,33.09 -22.59,48.7 -1.04,1.83 -2.08,3.66 -2.72,4.78 -10.96,0.56 -21.18,1.08 -32.36,1.64 -1.85,-4.2 -4.1,-9.15 -6.23,-14.15 -3.34,-7.82 -6.76,-15.62 -9.87,-23.54 -2.96,-7.59 -5.62,-15.31 -8.28,-23.02 -1.41,-4.1 -0.63,-5.1 4.46,-6.34 1.22,2.85 2.72,5.68 3.67,8.67 5.47,17.17 14.04,32.95 21.76,49.11 0.75,1.57 1.55,2.72 3.49,2.65 4.97,-0.17 9.94,-0.25 14.9,-0.45 3.17,-0.13 5.23,-1.83 6.46,-4.72 5.22,-12.24 10.5,-24.45 15.71,-36.68 2.36,-5.53 4.6,-11.1 7.03,-16.96 z"
     class="st2"
     style="font-variation-settings:normal;opacity:1;vector-effect:none;fill:#ffcc00;fill-opacity:1;stroke-width:2.65388;stroke-linecap:butt;stroke-linejoin:miter;stroke-miterlimit:4;stroke-dasharray:none;stroke-dashoffset:0;stroke-opacity:1;stop-color:#000000;stop-opacity:1" /><path
     id="path10-7"
     d="m 120.3,71.84 c 2.84,6.97 5.47,13.45 8.22,20.21 -23.46,4.79 -45.29,12.53 -64.05,27.65 1.14,-3.68 16.96,-22.57 23.57,-28.01 9.62,-7.92 20.72,-13.41 32.26,-19.85 z"
     class="st2"
     style="fill:#d4aa00;stroke-width:2.65388" /><path
     id="path12-7"
     d="m 173.67,90.17 c 2.67,-5.17 5.15,-9.96 7.58,-14.65 21.53,8.51 36.09,24.3 50.11,42.55 -18.37,-12.62 -20.76,-15.15 -57.69,-27.9 z"
     class="st2"
     style="fill:#d4aa00;stroke-width:2.65388" /><path
     id="path14-3"
     d="M 150.03,89.22 C 146.82,85.35 135.77,49.2 134.25,39 c 5.17,0.39 10.21,0.77 15.76,1.18 1.94,16.27 -0.72,32.15 0.02,49.04 z"
     class="st3"
     style="fill:#5fbcd3;stroke-width:2.65388" /><path
     id="path16-2"
     d="m 154.02,88.27 c -1.71,-16.08 0.15,-32.05 -0.94,-48.45 5.51,-0.32 10.53,-0.61 16.34,-0.95 -5.72,16.79 -8.17,33.76 -15.4,49.4 z"
     class="st3"
     style="fill:#37abc8;stroke-width:2.65388" /><path
     id="path18-7"
     d="m 158.99,88.7 c -0.11,-1.4 -0.29,-1.94 -0.17,-2.39 4.01,-14.13 8.16,-28.23 12.01,-42.4 1,-3.66 2.36,-6.45 6.14,-7.86 2.26,-0.84 4.28,-2.32 7.26,-3.99 -1.04,6.04 -3.96,10.31 -5.64,15.01 -1.73,4.83 -3.73,9.57 -5.72,14.29 -1.99,4.73 -3.92,9.52 -6.27,14.07 -2.19,4.29 -2.57,9.75 -7.61,13.27 z"
     class="st3"
     style="fill:#5fbcd3;stroke-width:2.65388" /><path
     id="path20-4"
     d="m 120.78,36.2 c 3.48,1.27 6.45,2.35 10.11,3.68 4.56,15.71 9.26,31.93 14.2,48.96 C 139.92,84.7 123.18,47.9 120.78,36.2 Z"
     class="st3"
     style="fill:#37abc8;stroke-width:2.65388" /><path
     id="path22-6"
     d="m 150.72,33.59 c -2.65,-5 -4.92,-9.31 -7.67,-14.51 3.12,-0.08 5.47,-0.17 7.82,-0.21 2.28,-0.03 4.56,-0.01 6.84,-0.01 -0.35,3.84 -2.44,8.39 -6.99,14.73 z"
     class="st3"
     style="fill:#5fbcd3;stroke-width:2.65388" /><path
     id="path24-0"
     d="m 140.59,20.92 c 3.08,5.71 5.65,10.46 8.6,15.92 -5.44,0.37 -10.12,-0.62 -15.56,-1.21 2.31,-4.88 4.39,-9.27 6.96,-14.71 z"
     class="st4"
     style="fill:#d7eef4;stroke-width:2.65388" /><path
     id="path26-8"
     d="m 161.02,21.39 c 2.71,5.23 4.87,9.38 7.44,14.33 -5.2,0.42 -9.74,0.8 -15.38,1.26 2.79,-5.5 5.13,-10.09 7.94,-15.59 z"
     class="st4"
     style="fill:#d7eef4;stroke-width:2.65388" /><path
     id="path28-6"
     d="m 131.63,32.99 c -2.29,-3.72 -4.09,-6.65 -5.89,-9.56 2.82,-4.77 6.91,-5.14 12.31,-4.08 -2.11,4.48 -4.08,8.67 -6.42,13.64 z"
     class="st3"
     style="fill:#5fbcd3;stroke-width:2.65388" /><path
     id="path30-9"
     d="m 163.02,18.67 c 4.74,-0.92 8.42,-1.28 11.07,3.18 -1.1,3.01 -2.27,6.19 -3.44,9.36 -0.4,0.02 -0.81,0.04 -1.22,0.06 -2.06,-4.06 -4.13,-8.13 -6.41,-12.6 z"
     class="st3"
     style="fill:#5fbcd3;stroke-width:2.65388" /><path
     id="path32-7"
     d="m 128.4,36.13 c -3.12,-1.46 -6.23,-2.91 -9.87,-4.61 1.57,-2.1 2.81,-3.74 4.23,-5.65 3.5,2.45 4.53,6.22 6.4,9.41 -0.25,0.28 -0.51,0.56 -0.76,0.85 z"
     class="st4"
     style="fill:#d7eef4;stroke-width:2.65388" /><path
     id="path34-1"
     d="m 181.84,29.91 c -3.03,1.74 -5.58,3.21 -8.14,4.67 -0.29,-0.19 -0.58,-0.38 -0.87,-0.57 1.14,-3.2 2.3,-6.4 3.85,-10.73 2.04,2.62 3.44,4.42 5.16,6.63 z"
     class="st4"
     style="fill:#d7eef4;stroke-width:2.65388" /><path
     id="path36-2"
     d="m 148.82,107.73 c 14.36,-0.78 28.42,1.34 41.83,6.19 12.58,4.56 23.83,11.49 32.89,21.85 7.77,8.89 14.93,18.04 19.61,28.93 5.44,12.63 8.9,25.69 9.54,39.56 0.73,15.63 -2.48,30.46 -9.05,44.36 -3.74,7.93 -8.93,15.36 -14.45,22.22 -8.48,10.53 -18.3,19.92 -29.97,26.91 -20.15,12.07 -41.65,16.13 -64.87,10.45 -11.09,-2.72 -21.68,-6.67 -32.24,-10.79 -3.43,-1.34 -6.8,-3.2 -9.72,-5.44 -9.85,-7.55 -20.01,-15.02 -27.17,-25.26 -8.96,-12.79 -16.99,-26.25 -19.76,-42.03 -2.5,-14.27 -3.16,-28.73 0.26,-42.78 1.88,-7.76 6.23,-15 9.98,-22.21 2.35,-4.54 5.67,-8.57 8.49,-12.87 4.46,-6.79 10.31,-12.15 17.04,-16.6 9.78,-6.46 19.86,-12.34 30.98,-16.25 11.86,-4.16 24.14,-5.71 36.61,-6.24 z m -99.9,100.59 c 0.16,10.85 2.22,21.37 6.8,31.05 6.05,12.8 12.54,25.5 23.81,34.82 5.87,4.85 11.49,10.09 17.75,14.37 8.41,5.74 18.32,8.43 27.89,11.6 5.86,1.95 11.95,3.62 18.06,4.37 20.48,2.53 39.45,-1.7 56.53,-13.67 7.31,-5.12 13.84,-11.04 19.95,-17.51 11.5,-12.16 20.38,-25.62 24.36,-42.28 5,-20.92 3.7,-41.14 -4.37,-61 -6,-14.77 -15.6,-26.96 -27.29,-37.56 -2.74,-2.48 -5.8,-4.72 -9.01,-6.53 -9,-5.08 -18.48,-8.66 -28.76,-10.66 -20.73,-4.03 -40.95,-2.6 -60.89,3.87 -10.55,3.42 -19.89,9.24 -29.11,15.23 -6.46,4.2 -12.04,9.32 -16.26,15.85 -2.6,4.02 -5.55,7.83 -7.94,11.97 -4.51,7.83 -9.27,15.68 -10.36,24.85 -0.83,7.03 -0.8,14.15 -1.16,21.23 z"
     class="st0"
     style="stroke-width:2.65388" /></g></svg>
