<?xml version="1.0" encoding="UTF-8" standalone="no"?>
<!-- Created with Inkscape (http://www.inkscape.org/) -->

<svg
   xmlns:dc="http://purl.org/dc/elements/1.1/"
   xmlns:cc="http://creativecommons.org/ns#"
   xmlns:rdf="http://www.w3.org/1999/02/22-rdf-syntax-ns#"
   xmlns:svg="http://www.w3.org/2000/svg"
   xmlns="http://www.w3.org/2000/svg"
   xmlns:sodipodi="http://sodipodi.sourceforge.net/DTD/sodipodi-0.dtd"
   xmlns:inkscape="http://www.inkscape.org/namespaces/inkscape"
   width="14mm"
   height="10mm"
   viewBox="0 0 14.000001 10"
   version="1.1"
   id="svg1766"
   inkscape:version="0.92.2 (5c3e80d, 2017-08-06)"
   sodipodi:docname="2020-CH-09b_explanation1.svg">
  <defs
     id="defs1760" />
  <sodipodi:namedview
     id="base"
     pagecolor="#ffffff"
     bordercolor="#666666"
     borderopacity="1.0"
     inkscape:pageopacity="0.0"
     inkscape:pageshadow="2"
     inkscape:zoom="5.6"
     inkscape:cx="-23.297324"
     inkscape:cy="10.80903"
     inkscape:document-units="mm"
     inkscape:current-layer="layer1"
     showgrid="false"
     fit-margin-top="0"
     fit-margin-left="0"
     fit-margin-right="0"
     fit-margin-bottom="0"
     inkscape:window-width="1680"
     inkscape:window-height="987"
     inkscape:window-x="-8"
     inkscape:window-y="222"
     inkscape:window-maximized="1" />
  <metadata
     id="metadata1763">
    <rdf:RDF>
      <cc:Work
         rdf:about="">
        <dc:format>image/svg+xml</dc:format>
        <dc:type
           rdf:resource="http://purl.org/dc/dcmitype/StillImage" />
        <dc:title></dc:title>
      </cc:Work>
    </rdf:RDF>
  </metadata>
  <g
     inkscape:label="Ebene 1"
     inkscape:groupmode="layer"
     id="layer1"
     transform="translate(-73.509773,-97.321658)">
    <g
       id="g1048"
       transform="matrix(0.95014886,0.0025376,-0.0025376,0.95014886,31.395339,20.528589)">
      <path
         sodipodi:nodetypes="sssssssss"
         inkscape:connector-curvature="0"
         id="rect911-3"
         d="m 46.730228,80.705544 h 6.911559 c 1.410062,0 1.378072,1.983851 1.378072,2.042663 v 6.91156 c 0,0.855498 -0.688722,1.54422 -1.54422,1.54422 h -7.277084 c -0.855498,0 -1.589402,-0.689916 -1.544221,-1.54422 l 0.365525,-6.91156 c 0.04518,-0.854304 0.854871,-2.042663 1.710369,-2.042663 z"
         style="opacity:1;vector-effect:none;fill:#291a0f;fill-opacity:1;stroke:none;stroke-width:1.89778113;stroke-linecap:round;stroke-linejoin:round;stroke-miterlimit:4;stroke-dasharray:none;stroke-dashoffset:0;stroke-opacity:1;paint-order:markers fill stroke" />
      <path
         id="rect911"
         d="m 46.106373,80.699013 h 6.91156 c 0.855498,0 1.54422,0.688722 1.54422,1.54422 v 6.91156 c 0,0.855498 -0.688722,1.54422 -1.54422,1.54422 h -6.91156 c -0.855498,0 -1.54422,-0.688722 -1.54422,-1.54422 v -6.91156 c 0,-0.855498 0.688722,-1.54422 1.54422,-1.54422 z"
         style="opacity:1;vector-effect:none;fill:#9d6139;fill-opacity:1;stroke:none;stroke-width:1.89778101;stroke-linecap:round;stroke-linejoin:round;stroke-miterlimit:4;stroke-dasharray:none;stroke-dashoffset:0;stroke-opacity:1;paint-order:markers fill stroke"
         inkscape:connector-curvature="0" />
      <path
         id="path2722-1"
         transform="matrix(0.26458333,0,0,0.26458333,-10.989582,85.646428)"
         d="m 210.42969,-15.167969 c -0.13338,0.311515 -0.23442,0.639551 -0.3125,0.976563 3.55391,0.281557 7.08691,1.068923 10.01172,2.103515 2.80965,0.993869 5.81449,0.58696 8.78125,0.19336 2.96675,-0.393672 5.89264,-0.768054 8.53906,0.167969 3.36403,1.189972 6.8174,1.9411336 10.30469,2.4902339 v -1.0117189 c -3.43956,-0.544508 -6.83373,-1.286823 -10.13086,-2.453125 -2.80734,-0.993029 -5.81453,-0.58501 -8.78125,-0.191406 -2.96672,0.393672 -5.89215,0.775013 -8.54102,-0.16211 -2.8971,-1.024789 -6.36162,-1.808397 -9.87109,-2.113281 z"
         style="color:#000000;font-style:normal;font-variant:normal;font-weight:normal;font-stretch:normal;font-size:medium;line-height:normal;font-family:sans-serif;font-variant-ligatures:normal;font-variant-position:normal;font-variant-caps:normal;font-variant-numeric:normal;font-variant-alternates:normal;font-feature-settings:normal;text-indent:0;text-align:start;text-decoration:none;text-decoration-line:none;text-decoration-style:solid;text-decoration-color:#000000;letter-spacing:normal;word-spacing:normal;text-transform:none;writing-mode:lr-tb;direction:ltr;text-orientation:mixed;dominant-baseline:auto;baseline-shift:baseline;text-anchor:start;white-space:normal;shape-padding:0;clip-rule:nonzero;display:inline;overflow:visible;visibility:visible;opacity:1;isolation:auto;mix-blend-mode:normal;color-interpolation:sRGB;color-interpolation-filters:linearRGB;solid-color:#000000;solid-opacity:1;vector-effect:none;fill:#b58260;fill-opacity:1;fill-rule:nonzero;stroke:none;stroke-width:6.03001451;stroke-linecap:round;stroke-linejoin:round;stroke-miterlimit:4;stroke-dasharray:none;stroke-dashoffset:0;stroke-opacity:1;paint-order:markers fill stroke;color-rendering:auto;image-rendering:auto;shape-rendering:auto;text-rendering:auto;enable-background:accumulate"
         inkscape:connector-curvature="0" />
      <path
         id="path2724-5"
         transform="matrix(0.26458333,0,0,0.26458333,-10.989582,85.646428)"
         d="m 209.95898,11.724609 v 0.996094 c 2.25466,0.167193 4.57459,0.618465 7.04102,1.316406 2.45448,0.694598 5.04922,-0.27609 7.28125,0.355469 3.54906,1.004325 8.66987,3.027791 14.11133,4.703125 h 3.52539 c 0.0152,0 0.0298,-0.0018 0.0449,-0.002 -6.62854,-1.762668 -13.19229,-4.451836 -17.54492,-5.683594 -2.46026,-0.69634 -5.05166,0.276116 -7.27735,-0.353515 -2.50522,-0.708933 -4.87312,-1.166196 -7.18164,-1.332032 z"
         style="color:#000000;font-style:normal;font-variant:normal;font-weight:normal;font-stretch:normal;font-size:medium;line-height:normal;font-family:sans-serif;font-variant-ligatures:normal;font-variant-position:normal;font-variant-caps:normal;font-variant-numeric:normal;font-variant-alternates:normal;font-feature-settings:normal;text-indent:0;text-align:start;text-decoration:none;text-decoration-line:none;text-decoration-style:solid;text-decoration-color:#000000;letter-spacing:normal;word-spacing:normal;text-transform:none;writing-mode:lr-tb;direction:ltr;text-orientation:mixed;dominant-baseline:auto;baseline-shift:baseline;text-anchor:start;white-space:normal;shape-padding:0;clip-rule:nonzero;display:inline;overflow:visible;visibility:visible;opacity:1;isolation:auto;mix-blend-mode:normal;color-interpolation:sRGB;color-interpolation-filters:linearRGB;solid-color:#000000;solid-opacity:1;vector-effect:none;fill:#b58260;fill-opacity:1;fill-rule:nonzero;stroke:none;stroke-width:6.03001451;stroke-linecap:round;stroke-linejoin:round;stroke-miterlimit:4;stroke-dasharray:none;stroke-dashoffset:0;stroke-opacity:1;paint-order:markers fill stroke;color-rendering:auto;image-rendering:auto;shape-rendering:auto;text-rendering:auto;enable-background:accumulate"
         inkscape:connector-curvature="0" />
      <path
         style="color:#000000;font-style:normal;font-variant:normal;font-weight:normal;font-stretch:normal;font-size:medium;line-height:normal;font-family:sans-serif;font-variant-ligatures:normal;font-variant-position:normal;font-variant-caps:normal;font-variant-numeric:normal;font-variant-alternates:normal;font-feature-settings:normal;text-indent:0;text-align:start;text-decoration:none;text-decoration-line:none;text-decoration-style:solid;text-decoration-color:#000000;letter-spacing:normal;word-spacing:normal;text-transform:none;writing-mode:lr-tb;direction:ltr;text-orientation:mixed;dominant-baseline:auto;baseline-shift:baseline;text-anchor:start;white-space:normal;shape-padding:0;clip-rule:nonzero;display:inline;overflow:visible;visibility:visible;opacity:1;isolation:auto;mix-blend-mode:normal;color-interpolation:sRGB;color-interpolation-filters:linearRGB;solid-color:#000000;solid-opacity:1;vector-effect:none;fill:#b58260;fill-opacity:1;fill-rule:nonzero;stroke:none;stroke-width:1.59544134;stroke-linecap:round;stroke-linejoin:round;stroke-miterlimit:4;stroke-dasharray:none;stroke-dashoffset:0;stroke-opacity:1;paint-order:markers fill stroke;color-rendering:auto;image-rendering:auto;shape-rendering:auto;text-rendering:auto;enable-background:accumulate"
         d="m 50.893501,85.529083 c -0.356779,-0.0628 -0.714906,-0.10165 -0.97179,0.0801 -0.07628,0.054 -0.133365,0.1133 -0.169784,0.19727 -0.0364,0.084 -0.03753,0.19824 -0.0071,0.28125 0.06128,0.16602 0.190351,0.2623 0.364425,0.36914 0.348148,0.21367 0.898266,0.41189 1.489431,0.58008 0.591174,0.16819 1.221317,0.30399 1.71582,0.38281 0.247246,0.0394 0.459865,0.0648 0.619789,0.0723 0.07996,0.004 0.14678,0.002 0.200154,-0.004 0.02671,-0.003 0.04926,-0.006 0.07178,-0.0137 0.02254,-0.008 0.0458,-0.014 0.07454,-0.0547 0.04029,-0.0571 0.03456,-0.10809 0.03315,-0.14258 -0.0015,-0.0345 -0.0064,-0.0653 -0.01244,-0.0976 -0.01231,-0.0648 -0.03124,-0.13424 -0.0511,-0.20313 -0.01979,-0.0689 -0.04057,-0.1358 -0.05661,-0.18555 -0.008,-0.0249 -0.01457,-0.046 -0.01937,-0.0605 -0.0021,-0.007 -0.0042,-0.0122 -0.0057,-0.0156 3.74e-4,0.002 0.0042,0.0158 0.0042,0.0156 l -0.184973,0.0312 0.132517,-0.11914 c -0.489372,-0.31568 -0.882759,-0.61114 -1.41489,-0.76172 -0.27367,-0.0774 -0.584614,-0.19141 -0.882066,-0.19141 -0.214507,0 -0.573597,-0.0973 -0.930382,-0.16015 z m -0.02347,0.26171 c 0.347532,0.0612 0.701392,0.16407 0.953844,0.16407 0.262998,0 0.564254,0.10617 0.844792,0.18554 0.492363,0.13933 0.865614,0.41614 1.344499,0.72657 0.0035,0.0108 0.0064,0.0196 0.01103,0.0332 0.01541,0.0479 0.03555,0.11217 0.05385,0.17578 0.01561,0.0542 0.02672,0.10559 0.0359,0.14844 -0.04092,0.005 -0.09994,0.007 -0.173934,0.004 -0.1515,-0.007 -0.360486,-0.0333 -0.604607,-0.0723 -0.488228,-0.0778 -1.114131,-0.21244 -1.699247,-0.37891 -0.585123,-0.16646 -1.132082,-0.36605 -1.452165,-0.5625 -0.160044,-0.0982 -0.259039,-0.21132 -0.273314,-0.25 -0.0071,-0.0193 -0.0071,-0.006 0,-0.0215 0.0071,-0.0159 0.03619,-0.0559 0.09525,-0.0977 0.178767,-0.12647 0.516581,-0.11589 0.864115,-0.0547 z"
         id="path2726-2"
         inkscape:connector-curvature="0" />
      <path
         id="path2728-8"
         transform="matrix(0.26458333,0,0,0.26458333,-10.989582,85.646428)"
         d="m 229.20508,-3.4257812 c -0.65481,0.00907 -1.29728,0.040522 -1.92578,0.095703 -2.51404,0.2207244 -4.793,0.8447522 -6.60547,2.1269531 -0.23078,0.1632756 -0.69795,0.22195042 -1.26758,0.1542969 -0.56964,-0.067313 -1.23738,-0.2355737 -1.9043,-0.390625 -5.05317,-0.1281638 -4.39809,1.0435463 -0.32226,2.27929685 0.38756,0.12170079 0.73061,0.27079185 0.73437,0.27343745 2.97905,2.1075818 7.73305,4.3125 11.20703,4.3125 2.54312,0 6.17528,1.0981889 9.84375,2.4492188 3.11037,1.1454959 6.21439,2.4442861 8.78907,3.4179691 v -1.03125 c -2.52327,-0.96108 -5.56082,-2.230078 -8.61133,-3.353516 -3.68738,-1.3580182 -7.3369,-2.4804687 -10.02149,-2.4804687 -3.25739,0 -8.00483,-2.1746246 -10.88867,-4.21484378 -0.22711,-0.16062992 -0.50068,-0.22875341 -0.89844,-0.35351562 -2.19563,-0.52088693 -2.10141,-0.81577922 0.0527,-0.31835938 0.66041,0.15344882 1.34316,0.33286292 1.96289,0.40625001 0.61973,0.07328503 1.18107,0.06870088 1.64258,-0.25781251 3.36104,-2.37777642 8.75946,-2.39893582 14.25781,-1.72851562 4.43232,0.540459 8.90709,1.49581477 12.50391,1.921875 v -1.0019531 c -3.54082,-0.4280948 -8.00421,-1.3752151 -12.43946,-1.9160156 -2.07624,-0.253115 -4.14302,-0.4177847 -6.10742,-0.390625 z"
         style="color:#000000;font-style:normal;font-variant:normal;font-weight:normal;font-stretch:normal;font-size:medium;line-height:normal;font-family:sans-serif;font-variant-ligatures:normal;font-variant-position:normal;font-variant-caps:normal;font-variant-numeric:normal;font-variant-alternates:normal;font-feature-settings:normal;text-indent:0;text-align:start;text-decoration:none;text-decoration-line:none;text-decoration-style:solid;text-decoration-color:#000000;letter-spacing:normal;word-spacing:normal;text-transform:none;writing-mode:lr-tb;direction:ltr;text-orientation:mixed;dominant-baseline:auto;baseline-shift:baseline;text-anchor:start;white-space:normal;shape-padding:0;clip-rule:nonzero;display:inline;overflow:visible;visibility:visible;opacity:1;isolation:auto;mix-blend-mode:normal;color-interpolation:sRGB;color-interpolation-filters:linearRGB;solid-color:#000000;solid-opacity:1;vector-effect:none;fill:#b58260;fill-opacity:1;fill-rule:nonzero;stroke:none;stroke-width:6.03001451;stroke-linecap:round;stroke-linejoin:round;stroke-miterlimit:4;stroke-dasharray:none;stroke-dashoffset:0;stroke-opacity:1;paint-order:markers fill stroke;color-rendering:auto;image-rendering:auto;shape-rendering:auto;text-rendering:auto;enable-background:accumulate"
         inkscape:connector-curvature="0" />
      <path
         style="color:#000000;font-style:normal;font-variant:normal;font-weight:normal;font-stretch:normal;font-size:medium;line-height:normal;font-family:sans-serif;font-variant-ligatures:normal;font-variant-position:normal;font-variant-caps:normal;font-variant-numeric:normal;font-variant-alternates:normal;font-feature-settings:normal;text-indent:0;text-align:start;text-decoration:none;text-decoration-line:none;text-decoration-style:solid;text-decoration-color:#000000;letter-spacing:normal;word-spacing:normal;text-transform:none;writing-mode:lr-tb;direction:ltr;text-orientation:mixed;dominant-baseline:auto;baseline-shift:baseline;text-anchor:start;white-space:normal;shape-padding:0;clip-rule:nonzero;display:inline;overflow:visible;visibility:visible;opacity:1;isolation:auto;mix-blend-mode:normal;color-interpolation:sRGB;color-interpolation-filters:linearRGB;solid-color:#000000;solid-opacity:1;vector-effect:none;fill:#2b1100;fill-opacity:1;fill-rule:nonzero;stroke:none;stroke-width:0.80607992;stroke-linecap:round;stroke-linejoin:round;stroke-miterlimit:4;stroke-dasharray:none;stroke-dashoffset:0;stroke-opacity:1;color-rendering:auto;image-rendering:auto;shape-rendering:auto;text-rendering:auto;enable-background:accumulate"
         d="m 50.644531,84.90625 a 0.40346353,0.40346353 0 1 0 -0.02148,0.806641 c 1.091185,0.03042 2.091035,0.02021 3.044922,0.265625 a 0.40336762,0.40336762 0 1 0 0.201172,-0.78125 C 52.78094,84.917298 51.713988,84.936067 50.644531,84.90625 Z"
         id="path981"
         inkscape:connector-curvature="0" />
      <path
         id="path2730-2-0"
         transform="matrix(0.26458333,0,0,0.26458333,-10.989582,85.646428)"
         d="m 228.46289,-6.0703125 c -4.25078,-0.00491 -8.43255,0.2960611 -12.00391,1.1699219 -2.53543,0.6204353 -4.76298,1.5287448 -6.5,2.8769531 v 2.31835938 c 1.60856,-1.62772578 3.72128,-3.00072628 6.69532,-3.72851568 3.46373,-0.8475967 7.59651,-1.1414658 11.80859,-1.1367187 7.16305,0.00964 14.39386,0.8418811 19.29102,1.25 v -1.4960937 c -4.8587,-0.4115924 -12.0999,-1.2458308 -19.29102,-1.2539063 z M 209.95898,0.34570312 V 2.2285156 c 1.49174,0.8557825 4.28193,2.8511626 5.30274,2.8242188 2.56603,-0.069505 5.82081,0.045166 7.8164,1.390625 5.07478,3.4176611 15.33765,7.2135356 24.06836,9.4062496 0.14401,-0.291332 0.26695,-0.593476 0.36133,-0.910156 -8.11123,-1.865517 -17.98937,-5.5100506 -23.9375,-9.8320311 -2.38305,-1.6048895 -5.73482,-1.6268793 -8.33398,-1.5566407 -0.96632,0.027978 -4.56134,-3.12282654 -5.27735,-3.20507808 z"
         style="color:#000000;font-style:normal;font-variant:normal;font-weight:normal;font-stretch:normal;font-size:medium;line-height:normal;font-family:sans-serif;font-variant-ligatures:normal;font-variant-position:normal;font-variant-caps:normal;font-variant-numeric:normal;font-variant-alternates:normal;font-feature-settings:normal;text-indent:0;text-align:start;text-decoration:none;text-decoration-line:none;text-decoration-style:solid;text-decoration-color:#000000;letter-spacing:normal;word-spacing:normal;text-transform:none;writing-mode:lr-tb;direction:ltr;text-orientation:mixed;dominant-baseline:auto;baseline-shift:baseline;text-anchor:start;white-space:normal;shape-padding:0;clip-rule:nonzero;display:inline;overflow:visible;visibility:visible;opacity:1;isolation:auto;mix-blend-mode:normal;color-interpolation:sRGB;color-interpolation-filters:linearRGB;solid-color:#000000;solid-opacity:1;vector-effect:none;fill:#b58260;fill-opacity:1;fill-rule:nonzero;stroke:none;stroke-width:9.2406292;stroke-linecap:round;stroke-linejoin:round;stroke-miterlimit:4;stroke-dasharray:none;stroke-dashoffset:0;stroke-opacity:1;paint-order:markers fill stroke;color-rendering:auto;image-rendering:auto;shape-rendering:auto;text-rendering:auto;enable-background:accumulate"
         inkscape:connector-curvature="0" />
      <path
         style="color:#000000;font-style:normal;font-variant:normal;font-weight:normal;font-stretch:normal;font-size:medium;line-height:normal;font-family:sans-serif;font-variant-ligatures:normal;font-variant-position:normal;font-variant-caps:normal;font-variant-numeric:normal;font-variant-alternates:normal;font-feature-settings:normal;text-indent:0;text-align:start;text-decoration:none;text-decoration-line:none;text-decoration-style:solid;text-decoration-color:#000000;letter-spacing:normal;word-spacing:normal;text-transform:none;writing-mode:lr-tb;direction:ltr;text-orientation:mixed;dominant-baseline:auto;baseline-shift:baseline;text-anchor:start;white-space:normal;shape-padding:0;clip-rule:nonzero;display:inline;overflow:visible;visibility:visible;opacity:1;isolation:auto;mix-blend-mode:normal;color-interpolation:sRGB;color-interpolation-filters:linearRGB;solid-color:#000000;solid-opacity:1;vector-effect:none;fill:#2b1100;fill-opacity:1;fill-rule:nonzero;stroke:none;stroke-width:0.80607992;stroke-linecap:round;stroke-linejoin:round;stroke-miterlimit:4;stroke-dasharray:none;stroke-dashoffset:0;stroke-opacity:1;color-rendering:auto;image-rendering:auto;shape-rendering:auto;text-rendering:auto;enable-background:accumulate"
         d="m 50.166016,86.941406 a 0.40308027,0.40308027 0 0 0 0.01758,0.804688 c 1.257494,0.03506 2.461734,0.102072 3.65625,0.289062 a 0.40308027,0.40308027 0 1 0 0.123047,-0.794922 c -1.247028,-0.19521 -2.486137,-0.26337 -3.757813,-0.298828 a 0.40308027,0.40308027 0 0 0 -0.03906,0 z"
         id="path983"
         inkscape:connector-curvature="0" />
      <path
         style="color:#000000;font-style:normal;font-variant:normal;font-weight:normal;font-stretch:normal;font-size:medium;line-height:normal;font-family:sans-serif;font-variant-ligatures:normal;font-variant-position:normal;font-variant-caps:normal;font-variant-numeric:normal;font-variant-alternates:normal;font-feature-settings:normal;text-indent:0;text-align:start;text-decoration:none;text-decoration-line:none;text-decoration-style:solid;text-decoration-color:#000000;letter-spacing:normal;word-spacing:normal;text-transform:none;writing-mode:lr-tb;direction:ltr;text-orientation:mixed;dominant-baseline:auto;baseline-shift:baseline;text-anchor:start;white-space:normal;shape-padding:0;clip-rule:nonzero;display:inline;overflow:visible;visibility:visible;opacity:1;isolation:auto;mix-blend-mode:normal;color-interpolation:sRGB;color-interpolation-filters:linearRGB;solid-color:#000000;solid-opacity:1;vector-effect:none;fill:#2b1100;fill-opacity:1;fill-rule:nonzero;stroke:none;stroke-width:0.80607992;stroke-linecap:round;stroke-linejoin:round;stroke-miterlimit:4;stroke-dasharray:none;stroke-dashoffset:0;stroke-opacity:1;color-rendering:auto;image-rendering:auto;shape-rendering:auto;text-rendering:auto;enable-background:accumulate"
         d="m 46.605469,82.595703 c -0.215991,0.0032 -0.404684,0.02228 -0.585938,0.08789 -0.181253,0.06561 -0.353822,0.194126 -0.458984,0.357422 -0.210325,0.326591 -0.202499,0.675005 -0.203125,1.125 -6.27e-4,0.449995 0.01925,1.020831 -0.01367,1.777343 a 0.40308027,0.40308027 0 0 0 0,0.0039 c -0.02721,0.855721 -0.09928,1.462821 -0.144531,1.917968 -0.04525,0.455148 -0.108543,0.776675 0.08203,1.121094 0.09529,0.172209 0.270259,0.301808 0.441406,0.365234 0.171148,0.06343 0.346727,0.08671 0.554688,0.103516 0.412751,0.03335 0.968508,0.03066 1.777344,0.06836 0.90461,0.07613 1.495443,0.120208 1.9375,0.08398 0.221028,-0.01811 0.413802,-0.05386 0.591796,-0.152344 0.177995,-0.09848 0.321051,-0.280453 0.38086,-0.460937 0.119617,-0.360968 0.04876,-0.680991 0.01172,-1.121094 -0.03704,-0.440103 -0.0733,-0.993355 -0.01172,-1.716797 a 0.40308027,0.40308027 0 0 0 0,-0.0078 c 0.04793,-0.735796 0.105204,-1.298343 0.121094,-1.75 0.01589,-0.451658 0.0097,-0.814334 -0.1875,-1.138672 -0.197178,-0.324339 -0.572009,-0.4763 -0.978516,-0.523438 -0.396556,-0.04598 -0.894348,-0.02554 -1.556641,0.0059 -0.779293,-0.08847 -1.331979,-0.152796 -1.757812,-0.146485 z m 0.01172,0.804688 c 0.332941,-0.0049 0.884441,0.0541 1.68164,0.144531 a 0.40308027,0.40308027 0 0 0 0.06445,0.002 c 0.682127,-0.03257 1.168046,-0.04418 1.464844,-0.0098 0.296798,0.03442 0.341493,0.07783 0.380859,0.142579 0.03937,0.06475 0.08653,0.285858 0.07227,0.691406 -0.0142,0.403719 -0.07043,0.971704 -0.119141,1.716797 -0.06687,0.785593 -0.02639,1.39883 0.01172,1.851562 0.03811,0.452732 0.04185,0.751108 0.02539,0.800781 -0.0082,0.02484 0.01477,-0.0036 -0.0059,0.0078 -0.02063,0.01141 -0.105587,0.04157 -0.265625,0.05469 -0.320074,0.02623 -0.908243,-0.0064 -1.80664,-0.08203 a 0.40308027,0.40308027 0 0 0 -0.01367,-0.002 c -0.83702,-0.03945 -1.41481,-0.04001 -1.765625,-0.06836 -0.175408,-0.01417 -0.292273,-0.03706 -0.339844,-0.05469 -0.04757,-0.01763 -0.01839,-0.005 -0.01563,0 0.0055,0.01 -0.02815,-0.210065 0.01563,-0.650391 0.04365,-0.439024 0.119962,-1.081498 0.148438,-1.966796 0.0343,-0.788193 0.01308,-1.386403 0.01367,-1.810547 5.91e-4,-0.424144 0.05076,-0.654982 0.07422,-0.691407 0.01173,-0.01821 0.0049,-0.01714 0.05469,-0.03516 0.04976,-0.01801 0.157748,-0.03855 0.324219,-0.04102 z"
         id="path997"
         inkscape:connector-curvature="0" />
    </g>
  </g>
</svg>
