<?xml version="1.0" encoding="UTF-8" standalone="no"?>
<svg
   xmlns:dc="http://purl.org/dc/elements/1.1/"
   xmlns:cc="http://creativecommons.org/ns#"
   xmlns:rdf="http://www.w3.org/1999/02/22-rdf-syntax-ns#"
   xmlns:svg="http://www.w3.org/2000/svg"
   xmlns="http://www.w3.org/2000/svg"
   xmlns:sodipodi="http://sodipodi.sourceforge.net/DTD/sodipodi-0.dtd"
   xmlns:inkscape="http://www.inkscape.org/namespaces/inkscape"
   inkscape:version="1.0 (4035a4fb49, 2020-05-01)"
   sodipodi:docname="2020-PK-02_question.svg"
   id="svg79"
   viewBox="0 0 1414 525"
   style="shape-rendering:geometricPrecision; text-rendering:geometricPrecision; image-rendering:optimizeQuality; fill-rule:evenodd; clip-rule:evenodd"
   version="1.1"
   height="0.470323in"
   width="1.26572in"
   xml:space="preserve"><metadata
   id="metadata83"><rdf:RDF><cc:Work
       rdf:about=""><dc:format>image/svg+xml</dc:format><dc:type
         rdf:resource="http://purl.org/dc/dcmitype/StillImage" /><dc:title></dc:title></cc:Work></rdf:RDF></metadata><sodipodi:namedview
   inkscape:current-layer="svg79"
   showgrid="false"
   id="namedview81"
   inkscape:window-height="480"
   inkscape:window-width="640"
   inkscape:pageshadow="2"
   inkscape:pageopacity="0"
   guidetolerance="10"
   gridtolerance="10"
   objecttolerance="10"
   borderopacity="1"
   bordercolor="#666666"
   pagecolor="#ffffff" />
 <defs
   id="defs4">
  <style
   id="style2"
   type="text/css">
   <![CDATA[
    .str1 {stroke:#2B2A29;stroke-width:10.9941;stroke-linecap:round;stroke-linejoin:round}
    .str0 {stroke:#2B2A29;stroke-width:21.9881}
    .str2 {stroke:#2B2A29;stroke-width:32.9822;stroke-linecap:round;stroke-linejoin:round}
    .fil4 {fill:none}
    .fil0 {fill:#B2B09C}
    .fil5 {fill:#DCCF73}
    .fil3 {fill:#FCD5A6}
    .fil7 {fill:#FEFEFE}
    .fil6 {fill:#FFFBDB}
    .fil2 {fill:#827E60}
    .fil1 {fill:#C7C7BA}
   ]]>
  </style>
 </defs>
 <g
   id="Layer_x0020_1">
  <metadata
   id="CorelCorpID_0Corel-Layer" />
  <g
   id="_1142134000">
   <path
   id="path7"
   d="M139 479c96,0 190,-37 203,-141 12,-99 -14,-281 -116,-321 -5,3 -4,2 -8,8 74,0 116,-19 208,-12 93,6 222,7 318,7 130,0 244,3 372,12 108,8 153,11 235,86 12,12 41,86 45,153 2,46 -12,91 -22,106 -35,52 -98,121 -164,121l-886 18c-25,0 -169,-25 -185,-37z"
   class="fil0" />
   <path
   id="path9"
   d="M309 106c-19,-41 -46,-74 -83,-89 -5,3 -4,2 -8,8 74,0 116,-19 208,-12 93,6 222,7 318,7 130,0 244,3 372,12 104,7 149,11 225,77 -25,3 -56,3 -92,-2 -118,-16 -266,-14 -386,-14 -138,0 -405,19 -554,13z"
   class="fil1" />
   <path
   id="path11"
   d="M139 479c87,0 172,-30 197,-113 77,3 140,8 242,30 13,2 645,3 673,-1 47,-6 87,-11 119,-13 -35,51 -96,116 -160,116l-886 18c-25,0 -169,-25 -185,-37z"
   class="fil2" />
   <path
   id="path13"
   d="M197 32c-78,0 -174,92 -188,177 -41,235 180,416 328,174 49,-80 51,-206 -5,-283 -48,-64 -133,-68 -135,-68z"
   class="fil3" />
   <path
   id="path15"
   d="M1310 77c-33,-31 -79,-49 -137,-52 -376,-20 -597,-16 -974,-3 -223,16 -276,452 -3,479 267,27 801,6 1036,-5 117,-5 273,-236 78,-419z"
   class="fil4 str0" />
   <path
   id="path17"
   d="M189 25c162,0 288,312 46,455 -24,15 -78,10 -108,1"
   class="fil4 str1" />
   <g
   id="g25">
    <path
   id="path19"
   d="M386 411c9,-32 366,-11 404,-15 74,-9 315,2 414,1l31 6 22 9 -61 2 -810 -3z"
   class="fil5" />
    <path
   id="path21"
   d="M386 410c14,10 43,15 96,18 111,7 282,4 308,4 79,1 315,-2 414,-1l31 -6 23 -11 -62 0 -810 -4z"
   class="fil6" />
    <path
   id="path23"
   d="M1137 432c-100,-6 -691,18 -750,-22 47,-38 370,-10 403,-14 74,-9 315,2 414,1 21,0 37,9 54,16 -20,11 -48,24 -121,19z"
   class="fil4 str1" />
   </g>
   <g
   id="g41">
    <path
   id="path27"
   d="M947 200c17,0 33,3 47,11 14,-14 31,-24 53,-36 -11,23 -19,41 -32,55 13,14 18,31 18,51 0,19 -5,32 -14,43 11,13 20,30 31,51 -20,-11 -38,-20 -51,-31 -14,8 -28,10 -47,10 -18,0 -34,-2 -48,-10 -14,14 -31,23 -55,35 12,-20 21,-37 33,-51 -13,-12 -19,-27 -19,-47 1,-21 6,-37 18,-51 -14,-14 -23,-30 -34,-51 23,10 41,19 55,32 14,-8 27,-11 45,-11zm0 23c33,0 61,24 61,57 0,33 -24,51 -57,51 -33,0 -63,-18 -63,-51 0,-33 26,-57 59,-57z"
   class="fil6" />
    <path
   id="path29"
   d="M1023 243c2,6 10,11 10,38 -1,27 -34,73 -81,73 -37,0 -71,-17 -84,-47 -7,-21 -6,-67 27,-90 30,-20 62,-21 88,-10 16,7 28,18 40,36zm-88 -19c-58,16 -46,72 -44,71 7,24 33,36 60,36 33,0 57,-32 57,-51 0,-20 -6,-20 -7,-25 -2,-12 -30,-40 -66,-31z"
   class="fil6" />
    <path
   id="path31"
   d="M1019 280c-1,8 -1,16 -4,23 -3,5 2,14 4,22l23 36 3 10 -45 -46c-12,11 -29,16 -48,16 -28,0 -54,-11 -67,-32l6 -12c1,2 7,12 8,13 11,14 31,21 52,21 19,0 39,-8 49,-21 7,-10 8,-25 8,-30 0,-13 -4,-20 -5,-23 8,5 16,18 16,23z"
   class="fil5" />
    <path
   id="path33"
   d="M947 200c17,0 33,5 46,13l0 -1 33 -27 16 -5 -36 41c-2,9 -4,14 -2,14 2,0 8,-6 9,-5 4,4 18,20 16,24 -1,2 -17,-4 -26,-17 -12,-16 -34,-24 -56,-24 -39,0 -69,28 -69,67 -1,12 2,22 8,30l6 1 10 11 -4 9 -44 45 5 -18 21 -31 1 0 -1 0c-3,-8 -17,-22 -17,-46 0,-20 6,-37 17,-50 2,-2 5,5 7,10 1,2 11,-11 12,-13l-50 -46 28 12 26 17c13,-7 28,-11 44,-11z"
   class="fil5" />
    <path
   id="path35"
   d="M947 213c39,0 72,28 72,67 -1,39 -28,61 -67,61 -39,0 -75,-22 -74,-61 0,-39 30,-67 69,-67z"
   class="fil4" />
    <path
   id="path37"
   d="M947 200c17,0 33,3 47,11 14,-14 31,-24 53,-36 -11,23 -19,41 -32,55 13,14 18,31 18,51 0,19 -5,32 -14,43 11,13 20,30 31,51 -20,-11 -38,-20 -51,-31 -14,8 -28,10 -47,10 -18,0 -34,-2 -48,-10 -14,14 -31,23 -55,35 12,-20 21,-37 33,-51 -13,-12 -19,-27 -19,-47 1,-21 6,-37 18,-51 -14,-14 -23,-30 -34,-51 23,10 41,19 55,32 14,-8 27,-11 45,-11z"
   class="fil4 str1" />
    <path
   id="path39"
   d="M947 223c33,0 61,24 61,57 0,33 -24,51 -57,51 -33,0 -63,-18 -63,-51 0,-33 26,-57 59,-57z"
   class="fil4 str1" />
   </g>
   <path
   id="path43"
   d="M34 322l150 -60 -137 121c-14,1 -14,-53 -13,-61z"
   class="fil7" />
   <path
   id="path45"
   d="M137 460l33 -132 -48 125c5,20 15,12 15,7z"
   class="fil7" />
   <path
   id="path47"
   d="M218 40c-2,1 -46,-3 -38,12l5 180 33 -192z"
   class="fil7" />
   <path
   id="path49"
   d="M68 251c1,85 17,138 55,169 43,34 112,34 164,-66 31,-60 18,-259 -82,-268 -95,-9 -139,76 -137,165z"
   class="fil4 str2" />
   <path
   id="path51"
   d="M127 266c3,85 64,122 106,41 16,-29 9,-124 -39,-129 -48,-4 -69,45 -67,88z"
   class="fil4 str2" />
   <g
   id="g59">
    <path
   id="path53"
   d="M398 120c9,-32 366,-11 404,-16 73,-8 315,3 414,2l30 6 23 8 -62 2 -809 -2z"
   class="fil5" />
    <path
   id="path55"
   d="M398 118c13,10 43,15 96,19 111,7 282,4 308,4 78,0 315,-3 414,-2l30 -6 24 -11 -63 0 -809 -4z"
   class="fil6" />
    <path
   id="path57"
   d="M1149 141c-101,-7 -691,18 -751,-22 48,-39 371,-11 404,-15 73,-8 315,3 414,2 21,-1 37,8 54,15 -20,12 -49,24 -121,20z"
   class="fil4 str1" />
   </g>
   <g
   id="g67">
    <path
   id="path61"
   d="M385 253c9,-32 366,-11 404,-15 74,-9 315,2 414,1l31 6 22 9 -62 2 -809 -3z"
   class="fil5" />
    <path
   id="path63"
   d="M385 252c14,10 43,15 96,18 111,7 282,4 308,4 79,1 315,-2 414,-1l31 -6 23 -11 -63 0 -809 -4z"
   class="fil6" />
    <path
   id="path65"
   d="M1136 274c-100,-6 -691,18 -750,-22 47,-38 370,-10 403,-14 74,-9 315,2 414,1 21,0 37,9 54,16 -20,11 -48,24 -121,19z"
   class="fil4 str1" />
   </g>
   <path
   id="path69"
   d="M879 234c-4,5 -10,18 -10,18"
   class="fil4 str1" />
   <path
   id="path71"
   d="M911 230c-3,7 -14,8 -19,38l-1 5"
   class="fil4 str1" />
   <path
   id="path73"
   d="M989 236c17,18 5,6 16,23"
   class="fil4 str1" />
   <path
   id="path75"
   d="M1017 238c9,10 15,20 19,33"
   class="fil4 str1" />
  </g>
 </g>
</svg>
