<?xml version="1.0" encoding="UTF-8" standalone="no"?>
<svg
   xmlns:dc="http://purl.org/dc/elements/1.1/"
   xmlns:cc="http://creativecommons.org/ns#"
   xmlns:rdf="http://www.w3.org/1999/02/22-rdf-syntax-ns#"
   xmlns:svg="http://www.w3.org/2000/svg"
   xmlns="http://www.w3.org/2000/svg"
   xmlns:sodipodi="http://sodipodi.sourceforge.net/DTD/sodipodi-0.dtd"
   xmlns:inkscape="http://www.inkscape.org/namespaces/inkscape"
   sodipodi:docname="2020-ID-04_taskbody-compatible.svg"
   inkscape:version="1.0 (4035a4fb49, 2020-05-01)"
   id="svg8"
   version="1.1"
   viewBox="0 0 140.00001 60"
   height="60mm"
   width="140mm">
  <defs
     id="defs2" />
  <sodipodi:namedview
     fit-margin-bottom="0"
     fit-margin-right="0"
     fit-margin-left="0"
     fit-margin-top="0"
     inkscape:snap-global="false"
     showgrid="false"
     inkscape:document-rotation="0"
     inkscape:current-layer="layer1"
     inkscape:document-units="mm"
     inkscape:cy="-43.959846"
     inkscape:cx="267.73848"
     inkscape:zoom="1.4"
     inkscape:pageshadow="2"
     inkscape:pageopacity="0.0"
     borderopacity="1.0"
     bordercolor="#666666"
     pagecolor="#ffffff"
     id="base"
     inkscape:window-width="1680"
     inkscape:window-height="987"
     inkscape:window-x="-8"
     inkscape:window-y="222"
     inkscape:window-maximized="1" />
  <metadata
     id="metadata5">
    <rdf:RDF>
      <cc:Work
         rdf:about="">
        <dc:format>image/svg+xml</dc:format>
        <dc:type
           rdf:resource="http://purl.org/dc/dcmitype/StillImage" />
        <dc:title />
      </cc:Work>
    </rdf:RDF>
  </metadata>
  <g
     transform="translate(-11.689024,-76.978859)"
     id="layer1"
     inkscape:groupmode="layer"
     inkscape:label="Ebene 1">
    <path
       id="path1093"
       style="color:#000000;font-style:normal;font-variant:normal;font-weight:normal;font-stretch:normal;font-size:medium;line-height:normal;font-family:sans-serif;font-variant-ligatures:normal;font-variant-position:normal;font-variant-caps:normal;font-variant-numeric:normal;font-variant-alternates:normal;font-variant-east-asian:normal;font-feature-settings:normal;font-variation-settings:normal;text-indent:0;text-align:start;text-decoration:none;text-decoration-line:none;text-decoration-style:solid;text-decoration-color:#000000;letter-spacing:normal;word-spacing:normal;text-transform:none;writing-mode:lr-tb;direction:ltr;text-orientation:mixed;dominant-baseline:auto;baseline-shift:baseline;text-anchor:start;white-space:normal;shape-padding:0;shape-margin:0;inline-size:0;clip-rule:nonzero;display:inline;overflow:visible;visibility:visible;opacity:1;isolation:auto;mix-blend-mode:normal;color-interpolation:sRGB;color-interpolation-filters:linearRGB;solid-color:#000000;solid-opacity:1;vector-effect:none;fill:#666666;fill-opacity:1;fill-rule:nonzero;stroke:none;stroke-width:5.66929;stroke-linecap:round;stroke-linejoin:round;stroke-miterlimit:4;stroke-dasharray:none;stroke-dashoffset:0;stroke-opacity:1;color-rendering:auto;image-rendering:auto;shape-rendering:auto;text-rendering:auto;enable-background:accumulate;stop-color:#000000;stop-opacity:1"
       d="M 430.04883 0.65625 A 2.8346457 2.8346457 0 0 0 427.86328 1.7402344 C 417.10663 15.444438 397.91992 24.716674 377.77734 39.787109 C 357.63477 54.857548 336.71998 75.964913 323.10742 113.62891 C 320.60054 120.56509 317.73448 126.99121 314.57617 132.91016 C 293.74318 98.936548 269.836 80.391181 245.30273 78.246094 C 220.4713 76.074932 195.99376 90.9781 174.93164 121.68555 C 173.8169 119.07762 172.73548 116.38828 171.69727 113.59766 C 160.50888 83.524144 136.43996 69.720123 109.74805 69.882812 C 84.50652 70.036662 56.899354 82.212208 34.199219 103.51562 C 28.612337 91.138287 26.00792 85.720747 21.792969 69.181641 A 2.8346457 2.8346457 0 0 0 18.935547 67.048828 A 2.8346457 2.8346457 0 0 0 18.345703 67.136719 A 2.8346457 2.8346457 0 0 0 16.300781 70.583984 C 20.812429 88.287291 23.646675 93.851002 29.880859 107.73047 L 0.8203125 137.0957 A 2.8346457 2.8346457 0 0 0 0.84375 141.10352 A 2.8346457 2.8346457 0 0 0 4.8515625 141.08203 L 32.429688 113.2207 C 53.306177 156.46142 81.983684 172.1079 108.94336 171.06641 C 135.43012 170.04318 159.75633 153.46873 174.04297 133.21875 C 193.1894 171.19409 221.45302 188.66278 249.48828 187.35156 C 273.90379 186.20964 297.58205 170.97038 314.5957 144.11914 C 325.84243 162.983 343.56941 173.01836 363.4707 177.96875 C 383.85517 183.03929 406.62744 182.96953 428.0625 182.03516 C 449.49752 181.10078 469.65026 179.3096 484.33398 180.63281 C 491.67583 181.29446 497.6003 182.75697 501.56445 185.17383 C 505.52861 187.59068 507.70321 190.69577 508.24414 195.85547 A 2.8346457 2.8346457 0 0 0 511.35938 198.37891 A 2.8346457 2.8346457 0 0 0 513.88477 195.26367 C 513.18525 188.59122 509.69176 183.49724 504.50977 180.33789 C 499.32773 177.17855 492.63517 175.68849 484.84375 174.98633 C 469.26098 173.58208 449.08606 175.44011 427.81836 176.36719 C 406.55069 177.29427 384.2409 177.29566 364.83594 172.46875 C 345.43097 167.64184 329.04692 158.17818 318.71484 139.9375 C 318.45493 139.47863 318.1926 139.03396 317.93164 138.58008 C 321.89417 131.5876 325.42707 123.90036 328.44336 115.55469 C 341.65865 78.989822 361.54599 59.01147 381.17383 44.326172 C 400.80163 29.640878 420.35492 20.486883 432.32227 5.2402344 A 2.8346457 2.8346457 0 0 0 431.8418 1.2617188 A 2.8346457 2.8346457 0 0 0 430.04883 0.65625 z M 109.78516 75.552734 C 134.56007 75.401731 155.90629 87.416121 166.38281 115.57617 C 167.90423 119.66564 169.52338 123.55643 171.21875 127.28711 C 158.19121 147.37093 134.08557 164.41692 108.72852 165.39648 C 83.720436 166.36261 56.975087 152.2675 36.691406 108.97266 C 58.763093 87.694145 85.857627 75.698573 109.78516 75.552734 z M 240.4082 83.707031 C 241.87773 83.703082 243.34708 83.76623 244.81445 83.894531 C 267.4086 85.870071 290.68333 103.75789 311.36719 138.58008 C 295.06304 165.75212 272.15589 180.61678 249.2207 181.68945 C 223.03496 182.91418 196.05173 166.36773 177.67773 127.75977 C 197.17559 98.081356 218.86664 83.764918 240.4082 83.707031 z "
       transform="matrix(0.26458333,0,0,0.26458333,11.689024,76.978859)" />
    <path
       id="path1122"
       style="color:#000000;font-style:normal;font-variant:normal;font-weight:normal;font-stretch:normal;font-size:medium;line-height:normal;font-family:sans-serif;font-variant-ligatures:normal;font-variant-position:normal;font-variant-caps:normal;font-variant-numeric:normal;font-variant-alternates:normal;font-variant-east-asian:normal;font-feature-settings:normal;font-variation-settings:normal;text-indent:0;text-align:start;text-decoration:none;text-decoration-line:none;text-decoration-style:solid;text-decoration-color:#000000;letter-spacing:normal;word-spacing:normal;text-transform:none;writing-mode:lr-tb;direction:ltr;text-orientation:mixed;dominant-baseline:auto;baseline-shift:baseline;text-anchor:start;white-space:normal;shape-padding:0;shape-margin:0;inline-size:0;clip-rule:nonzero;display:inline;overflow:visible;visibility:visible;opacity:1;isolation:auto;mix-blend-mode:normal;color-interpolation:sRGB;color-interpolation-filters:linearRGB;solid-color:#000000;solid-opacity:1;vector-effect:none;fill:#44aa00;fill-opacity:1;fill-rule:nonzero;stroke:none;stroke-width:3.64724;stroke-linecap:round;stroke-linejoin:round;stroke-miterlimit:4;stroke-dasharray:none;stroke-dashoffset:0;stroke-opacity:1;color-rendering:auto;image-rendering:auto;shape-rendering:auto;text-rendering:auto;enable-background:accumulate;stop-color:#000000;stop-opacity:1"
       d="M 64.566406 79.822266 C 63.491274 79.768195 62.423763 80.067078 61.382812 80.447266 C 59.717288 81.055558 58.101366 82.024058 57.048828 83.5625 C 56.522559 84.331721 56.149885 85.310713 56.222656 86.380859 C 56.295412 87.451017 56.828871 88.49238 57.654297 89.3125 C 58.673144 90.324733 60.027476 90.602915 61.345703 90.826172 C 61.333987 96.642071 60.947266 102.50182 60.947266 108.37891 A 1.8236202 1.8236202 0 0 0 62.769531 110.21094 A 1.8236202 1.8236202 0 0 0 64.59375 108.37891 C 64.59375 102.64487 64.983865 96.753352 64.992188 90.751953 C 65.634061 90.625717 66.326677 90.694386 66.917969 90.457031 C 68.363426 89.876912 69.734263 88.980632 70.34375 87.378906 C 70.953237 85.777154 70.278081 83.809848 68.792969 82.417969 C 68.407914 82.057099 67.917701 82.099361 67.494141 81.849609 C 67.176774 81.300376 67.007199 80.623735 66.505859 80.357422 C 65.859254 80.013945 65.211485 79.854708 64.566406 79.822266 z "
       transform="matrix(0.26458333,0,0,0.26458333,11.689024,76.978859)" />
    <path
       id="path1150"
       style="color:#000000;font-style:normal;font-variant:normal;font-weight:normal;font-stretch:normal;font-size:medium;line-height:normal;font-family:sans-serif;font-variant-ligatures:normal;font-variant-position:normal;font-variant-caps:normal;font-variant-numeric:normal;font-variant-alternates:normal;font-variant-east-asian:normal;font-feature-settings:normal;font-variation-settings:normal;text-indent:0;text-align:start;text-decoration:none;text-decoration-line:none;text-decoration-style:solid;text-decoration-color:#000000;letter-spacing:normal;word-spacing:normal;text-transform:none;writing-mode:lr-tb;direction:ltr;text-orientation:mixed;dominant-baseline:auto;baseline-shift:baseline;text-anchor:start;white-space:normal;shape-padding:0;shape-margin:0;inline-size:0;clip-rule:nonzero;display:inline;overflow:visible;visibility:visible;opacity:1;isolation:auto;mix-blend-mode:normal;color-interpolation:sRGB;color-interpolation-filters:linearRGB;solid-color:#000000;solid-opacity:1;vector-effect:none;fill:#aa0000;fill-opacity:1;fill-rule:nonzero;stroke:none;stroke-width:3.64724;stroke-linecap:round;stroke-linejoin:round;stroke-miterlimit:4;stroke-dasharray:none;stroke-dashoffset:0;stroke-opacity:1;color-rendering:auto;image-rendering:auto;shape-rendering:auto;text-rendering:auto;enable-background:accumulate;stop-color:#000000;stop-opacity:1"
       d="M 61.669922 113.57617 A 1.8236202 1.8236202 0 0 0 59.845703 115.40039 C 59.845703 121.13945 58.974609 127.7238 58.974609 134.08984 C 58.974609 134.99772 59.009213 135.7 59.085938 136.63672 C 58.191267 136.83363 57.390893 138.1689 56.5625 138.82227 A 1.8236202 1.8236202 0 0 0 55.763672 138.92578 C 55.05529 139.18166 55.047167 139.97637 54.613281 140.51367 C 54.068844 141.18337 53.498011 141.08459 52.9375 141.95898 C 52.140537 143.2023 52.230774 144.82373 52.8125 145.91602 C 52.985262 146.2403 53.313827 146.37096 53.535156 146.64062 C 53.596725 146.833 53.546208 147.04164 53.617188 147.23047 C 54.156904 148.66608 54.947288 149.99982 56.132812 150.96484 C 57.318337 151.92983 59.282463 152.39666 60.873047 151.51172 C 63.061049 150.29433 64.264435 148.11264 64.769531 145.93945 C 65.274624 143.76626 65.15371 141.52618 64.386719 139.64258 C 64.035185 138.77922 63.479174 138.00874 62.740234 137.38281 C 62.625941 136.29317 62.623047 134.95445 62.623047 134.08984 C 62.623047 128.06327 63.494141 121.49495 63.494141 115.40039 A 1.8236202 1.8236202 0 0 0 61.669922 113.57617 z "
       transform="matrix(0.26458333,0,0,0.26458333,11.689024,76.978859)" />
    <path
       id="path1146"
       style="color:#000000;font-style:normal;font-variant:normal;font-weight:normal;font-stretch:normal;font-size:medium;line-height:normal;font-family:sans-serif;font-variant-ligatures:normal;font-variant-position:normal;font-variant-caps:normal;font-variant-numeric:normal;font-variant-alternates:normal;font-variant-east-asian:normal;font-feature-settings:normal;font-variation-settings:normal;text-indent:0;text-align:start;text-decoration:none;text-decoration-line:none;text-decoration-style:solid;text-decoration-color:#000000;letter-spacing:normal;word-spacing:normal;text-transform:none;writing-mode:lr-tb;direction:ltr;text-orientation:mixed;dominant-baseline:auto;baseline-shift:baseline;text-anchor:start;white-space:normal;shape-padding:0;shape-margin:0;inline-size:0;clip-rule:nonzero;display:inline;overflow:visible;visibility:visible;opacity:1;isolation:auto;mix-blend-mode:normal;color-interpolation:sRGB;color-interpolation-filters:linearRGB;solid-color:#000000;solid-opacity:1;vector-effect:none;fill:#aa0000;fill-opacity:1;fill-rule:nonzero;stroke:none;stroke-width:3.64724;stroke-linecap:round;stroke-linejoin:round;stroke-miterlimit:4;stroke-dasharray:none;stroke-dashoffset:0;stroke-opacity:1;color-rendering:auto;image-rendering:auto;shape-rendering:auto;text-rendering:auto;enable-background:accumulate;stop-color:#000000;stop-opacity:1"
       d="M 95.425781 67.03125 C 94.795223 67.002859 94.170698 67.086882 93.603516 67.255859 C 92.091032 67.706462 90.780035 68.640589 89.707031 69.779297 C 88.634027 70.918008 87.779811 72.264854 87.513672 73.832031 C 87.247518 75.399209 87.873284 77.335394 89.433594 78.378906 C 90.617739 79.17085 91.746198 79.055245 92.910156 79.257812 C 92.636783 80.518901 92.412636 81.956426 92.193359 84.136719 C 91.927923 86.775789 91.681212 89.952801 91.486328 93.107422 C 91.291456 96.26208 91.149279 99.391811 91.085938 101.93555 C 91.022593 104.47928 90.973291 106.21096 91.197266 107.45703 A 1.8236202 1.8236202 0 0 0 93.316406 108.92578 A 1.8236202 1.8236202 0 0 0 94.792969 106.80664 C 94.753813 106.58856 94.672655 104.50296 94.734375 102.02344 C 94.796132 99.543878 94.93241 96.445404 95.125 93.328125 C 95.317567 90.210808 95.559798 87.07088 95.818359 84.5 C 96.076917 81.929105 96.404972 79.798039 96.564453 79.25 C 96.848485 79.151846 97.047677 78.967812 97.310547 78.837891 C 97.953977 78.703037 98.645656 78.801953 99.228516 78.46875 C 100.50608 77.73839 101.58647 76.257212 101.55469 74.525391 C 101.54184 73.818925 100.92663 73.603194 100.75 72.990234 C 100.73072 72.918915 100.81602 72.862146 100.79297 72.791016 C 100.76122 72.693012 100.58205 72.686965 100.54297 72.591797 C 100.11885 71.442246 99.869184 70.14365 98.962891 69.566406 A 1.8236202 1.8236202 0 0 0 98.386719 68.230469 C 97.543674 67.437614 96.476711 67.078568 95.425781 67.03125 z "
       transform="matrix(0.26458333,0,0,0.26458333,11.689024,76.978859)" />
    <path
       id="path1118"
       style="color:#000000;font-style:normal;font-variant:normal;font-weight:normal;font-stretch:normal;font-size:medium;line-height:normal;font-family:sans-serif;font-variant-ligatures:normal;font-variant-position:normal;font-variant-caps:normal;font-variant-numeric:normal;font-variant-alternates:normal;font-variant-east-asian:normal;font-feature-settings:normal;font-variation-settings:normal;text-indent:0;text-align:start;text-decoration:none;text-decoration-line:none;text-decoration-style:solid;text-decoration-color:#000000;letter-spacing:normal;word-spacing:normal;text-transform:none;writing-mode:lr-tb;direction:ltr;text-orientation:mixed;dominant-baseline:auto;baseline-shift:baseline;text-anchor:start;white-space:normal;shape-padding:0;shape-margin:0;inline-size:0;clip-rule:nonzero;display:inline;overflow:visible;visibility:visible;opacity:1;isolation:auto;mix-blend-mode:normal;color-interpolation:sRGB;color-interpolation-filters:linearRGB;solid-color:#000000;solid-opacity:1;vector-effect:none;fill:#44aa00;fill-opacity:1;fill-rule:nonzero;stroke:none;stroke-width:3.64724;stroke-linecap:round;stroke-linejoin:round;stroke-miterlimit:4;stroke-dasharray:none;stroke-dashoffset:0;stroke-opacity:1;color-rendering:auto;image-rendering:auto;shape-rendering:auto;text-rendering:auto;enable-background:accumulate;stop-color:#000000;stop-opacity:1"
       d="M 94.365234 114.46875 A 1.8236202 1.8236202 0 0 0 92.533203 116.30078 C 92.533203 120.00245 92.518583 130.22453 92.046875 135.49414 C 91.738806 138.93472 90.806641 142.59542 90.806641 146.52148 C 90.806641 148.40724 90.401321 151.65308 90.068359 154.75195 C 89.917065 156.16002 90.071734 157.17413 89.994141 158.42969 C 89.674241 158.31744 89.365479 158.17006 88.8125 158.24414 C 88.072589 158.34316 87.509638 158.78254 87.160156 159.13672 C 86.810663 159.49086 86.523497 159.86536 86.111328 160.37695 C 85.960676 160.56404 85.860187 160.87764 85.720703 161.09375 C 85.52602 161.36701 85.17266 161.51726 85.025391 161.81641 C 84.915293 162.04015 85.006751 162.32545 84.923828 162.5625 C 84.858858 162.71784 84.761947 162.80461 84.701172 162.96875 C 84.538728 163.40729 84.748998 164.03215 84.650391 164.5332 C 84.658328 164.84312 84.45722 165.11384 84.523438 165.42773 C 84.533642 165.47573 84.601489 165.50473 84.613281 165.55273 C 84.647297 165.96123 84.349325 166.24025 84.576172 166.70312 C 84.985234 167.53727 85.831745 167.48953 86.451172 168.02539 C 86.675184 168.21286 86.675858 168.53038 86.9375 168.68164 C 87.15248 168.80599 87.388772 168.7463 87.609375 168.8457 C 88.195289 169.11443 88.573061 169.97357 89.189453 169.95898 C 89.580748 169.95143 89.755289 169.5511 90.111328 169.45703 C 91.624866 169.52166 93.088681 169.23041 94.238281 168.32812 C 94.735474 167.93785 94.860803 167.22116 95.191406 166.65234 C 95.208792 166.62589 95.248693 166.62689 95.265625 166.60156 C 95.301908 166.54411 95.289712 166.48165 95.324219 166.42383 C 95.57465 165.93264 96.055689 165.60346 96.121094 165.02734 C 96.139235 164.86671 95.970842 164.70357 95.972656 164.54102 C 96.013626 164.32294 96.189341 164.12192 96.195312 163.89844 C 96.220635 162.95851 95.827406 162.00414 95.234375 161.38086 C 95.171899 161.3151 95.078075 161.36718 95.013672 161.30859 C 94.928141 161.17102 94.984672 161.0221 94.888672 160.88672 C 94.53094 160.38272 93.955388 160.50628 93.515625 160.14844 C 93.489924 158.8168 93.454115 157.3715 93.693359 155.14453 C 94.020175 152.10299 94.453121 148.88834 94.453125 146.52148 C 94.453125 143.2023 95.335271 139.6432 95.677734 135.81836 C 96.185004 130.153 96.1875 120.00986 96.1875 116.30078 A 1.8236202 1.8236202 0 0 0 94.365234 114.4707 L 94.365234 114.46875 z "
       transform="matrix(0.26458333,0,0,0.26458333,11.689024,76.978859)" />
    <path
       id="path1170"
       style="color:#000000;font-style:normal;font-variant:normal;font-weight:normal;font-stretch:normal;font-size:medium;line-height:normal;font-family:sans-serif;font-variant-ligatures:normal;font-variant-position:normal;font-variant-caps:normal;font-variant-numeric:normal;font-variant-alternates:normal;font-variant-east-asian:normal;font-feature-settings:normal;font-variation-settings:normal;text-indent:0;text-align:start;text-decoration:none;text-decoration-line:none;text-decoration-style:solid;text-decoration-color:#000000;letter-spacing:normal;word-spacing:normal;text-transform:none;writing-mode:lr-tb;direction:ltr;text-orientation:mixed;dominant-baseline:auto;baseline-shift:baseline;text-anchor:start;white-space:normal;shape-padding:0;shape-margin:0;inline-size:0;clip-rule:nonzero;display:inline;overflow:visible;visibility:visible;opacity:1;isolation:auto;mix-blend-mode:normal;color-interpolation:sRGB;color-interpolation-filters:linearRGB;solid-color:#000000;solid-opacity:1;vector-effect:none;fill:#000080;fill-opacity:1;fill-rule:nonzero;stroke:none;stroke-width:3.64724;stroke-linecap:round;stroke-linejoin:round;stroke-miterlimit:4;stroke-dasharray:none;stroke-dashoffset:0;stroke-opacity:1;color-rendering:auto;image-rendering:auto;shape-rendering:auto;text-rendering:auto;enable-background:accumulate;stop-color:#000000;stop-opacity:1"
       d="M 127.67188 69.091797 C 126.84669 69.12878 126.03044 69.357986 125.25781 69.654297 C 123.71255 70.246874 122.24596 71.23949 121.18945 72.615234 C 120.13295 73.990979 119.52111 76.03329 120.38477 77.914062 C 121.30069 79.90864 122.99876 81.253922 124.80078 81.990234 C 125.21762 82.16054 125.64798 81.996115 126.07617 82.107422 C 126.08033 82.629892 126.15624 83.36035 126.0918 83.666016 C 125.26266 87.600753 125.18268 92.373095 124.96289 96.095703 C 124.51995 103.59769 124.32031 111.84589 124.32031 118.89062 A 1.8236202 1.8236202 0 0 0 126.14258 120.71484 A 1.8236202 1.8236202 0 0 0 127.9668 118.89062 C 127.9668 111.91434 128.16416 103.71903 128.60156 96.310547 C 128.82815 92.473004 128.9448 87.794134 129.65625 84.417969 C 129.79999 83.735855 129.67452 83.102223 129.67188 82.431641 C 129.88485 82.398381 130.1135 82.542493 130.32227 82.492188 C 131.00145 82.328458 131.2467 81.470804 131.84961 81.066406 C 131.92021 81.027061 132.01677 81.063853 132.08594 81.021484 C 132.23047 80.932968 132.23131 80.697506 132.36719 80.59375 C 133.06414 79.976893 134.0921 79.763131 134.32227 78.777344 C 134.37752 78.540745 134.05087 78.238452 134.07227 77.996094 C 134.14839 77.747703 134.43955 77.646355 134.47656 77.382812 C 134.69589 75.821403 134.24852 74.129887 133.21484 72.400391 C 132.77941 71.671841 131.95372 71.700587 131.29492 71.285156 C 130.97627 70.676233 130.69192 70.009884 130.13672 69.683594 C 129.33067 69.209872 128.49706 69.054814 127.67188 69.091797 z "
       transform="matrix(0.26458333,0,0,0.26458333,11.689024,76.978859)" />
    <path
       id="path1190"
       style="color:#000000;font-style:normal;font-variant:normal;font-weight:normal;font-stretch:normal;font-size:medium;line-height:normal;font-family:sans-serif;font-variant-ligatures:normal;font-variant-position:normal;font-variant-caps:normal;font-variant-numeric:normal;font-variant-alternates:normal;font-variant-east-asian:normal;font-feature-settings:normal;font-variation-settings:normal;text-indent:0;text-align:start;text-decoration:none;text-decoration-line:none;text-decoration-style:solid;text-decoration-color:#000000;letter-spacing:normal;word-spacing:normal;text-transform:none;writing-mode:lr-tb;direction:ltr;text-orientation:mixed;dominant-baseline:auto;baseline-shift:baseline;text-anchor:start;white-space:normal;shape-padding:0;shape-margin:0;inline-size:0;clip-rule:nonzero;display:inline;overflow:visible;visibility:visible;opacity:1;isolation:auto;mix-blend-mode:normal;color-interpolation:sRGB;color-interpolation-filters:linearRGB;solid-color:#000000;solid-opacity:1;vector-effect:none;fill:#ffcc00;fill-opacity:1;fill-rule:nonzero;stroke:none;stroke-width:3.64724;stroke-linecap:round;stroke-linejoin:round;stroke-miterlimit:4;stroke-dasharray:none;stroke-dashoffset:0;stroke-opacity:1;color-rendering:auto;image-rendering:auto;shape-rendering:auto;text-rendering:auto;enable-background:accumulate;stop-color:#000000;stop-opacity:1"
       d="M 126.23242 125.06836 L 126.23242 125.07031 A 1.8236202 1.8236202 0 0 0 124.49805 126.50195 C 123.95846 128.97422 123.93251 132.58574 124.01758 136.3418 C 124.10266 140.09789 124.33966 143.91088 124.50391 146.33008 C 124.75884 150.08451 124.75069 153.99407 124.99219 157.94141 C 124.39368 158.08654 124.05243 158.52899 123.57422 158.88672 C 123.36498 159.03412 122.95079 158.84819 122.76953 159.02734 C 122.62976 159.16567 122.72772 159.38715 122.60742 159.53516 C 122.27497 159.92789 121.58534 159.92119 121.375 160.36328 C 121.18001 160.7731 121.36298 161.27303 121.24219 161.71289 C 120.75576 162.41392 120.10082 162.99479 119.86133 163.83203 C 119.41763 165.38315 119.59127 167.42745 121.08008 168.71094 C 122.0778 169.57104 123.27917 169.77204 124.46094 169.90039 C 124.52164 169.92307 124.50806 170.01053 124.57031 170.0332 C 124.64666 170.05966 124.6939 169.98633 124.76953 170.00977 C 125.00779 170.02488 125.21063 170.13836 125.44922 170.12891 C 126.46126 170.58653 127.28559 171.46019 128.47656 171.14648 C 129.89093 170.77382 130.68731 169.76286 131.31055 168.71094 C 131.93378 167.65902 132.36052 166.45168 132.58789 165.20508 C 132.81527 163.95848 132.86485 162.67785 132.45508 161.43359 C 132.42635 161.34629 132.26874 161.32754 132.23242 161.24023 C 131.8289 159.71799 130.89688 158.44459 129.16211 157.93359 C 128.94981 157.87123 128.84754 158.06835 128.63867 158.02148 C 128.38442 154.14785 128.42247 150.17113 128.14453 146.07812 C 127.98156 143.67786 127.74687 139.91585 127.66406 136.25977 C 127.58125 132.60368 127.69449 128.96989 128.0625 127.2832 A 1.8236202 1.8236202 0 0 0 126.66797 125.11328 A 1.8236202 1.8236202 0 0 0 126.23242 125.06836 z "
       transform="matrix(0.26458333,0,0,0.26458333,11.689024,76.978859)" />
    <path
       id="path1186"
       style="color:#000000;font-style:normal;font-variant:normal;font-weight:normal;font-stretch:normal;font-size:medium;line-height:normal;font-family:sans-serif;font-variant-ligatures:normal;font-variant-position:normal;font-variant-caps:normal;font-variant-numeric:normal;font-variant-alternates:normal;font-variant-east-asian:normal;font-feature-settings:normal;font-variation-settings:normal;text-indent:0;text-align:start;text-decoration:none;text-decoration-line:none;text-decoration-style:solid;text-decoration-color:#000000;letter-spacing:normal;word-spacing:normal;text-transform:none;writing-mode:lr-tb;direction:ltr;text-orientation:mixed;dominant-baseline:auto;baseline-shift:baseline;text-anchor:start;white-space:normal;shape-padding:0;shape-margin:0;inline-size:0;clip-rule:nonzero;display:inline;overflow:visible;visibility:visible;opacity:1;isolation:auto;mix-blend-mode:normal;color-interpolation:sRGB;color-interpolation-filters:linearRGB;solid-color:#000000;solid-opacity:1;vector-effect:none;fill:#ffcc00;fill-opacity:1;fill-rule:nonzero;stroke:none;stroke-width:3.64724;stroke-linecap:round;stroke-linejoin:round;stroke-miterlimit:4;stroke-dasharray:none;stroke-dashoffset:0;stroke-opacity:1;color-rendering:auto;image-rendering:auto;shape-rendering:auto;text-rendering:auto;enable-background:accumulate;stop-color:#000000;stop-opacity:1"
       d="M 158.83594 90.904297 C 158.57456 90.901875 158.31892 90.929981 158.07031 91.001953 C 157.12451 91.275969 156.50678 91.997456 155.87695 92.671875 C 155.65188 92.774678 155.46863 92.663652 155.25781 92.826172 C 155.1309 92.924818 155.24885 93.120094 155.13867 93.232422 C 155.12091 93.258879 155.08372 93.266071 155.06641 93.291016 C 154.55368 94.06185 154.39137 95.024574 154.23242 95.970703 C 154.15188 96.166105 153.95656 96.268173 153.90625 96.480469 C 153.87715 96.603681 153.97618 96.737196 153.95898 96.863281 C 153.95793 96.915061 153.98009 96.959561 153.98047 97.011719 C 153.97253 97.089577 154.01317 97.169433 154.00977 97.248047 C 154.02262 97.28811 153.95875 97.33374 153.97266 97.373047 C 153.98513 97.407063 154.02617 97.421062 154.03906 97.455078 C 154.04268 98.183431 153.98872 98.922764 154.32812 99.625 C 154.47477 99.928496 154.81942 99.883514 155.00586 100.12695 C 155.12159 100.31744 155.06444 100.54179 155.20508 100.72461 C 155.45732 101.05229 155.88827 101.01578 156.20898 101.25586 C 155.11714 103.44273 153.87281 105.82786 152.41602 108.91797 C 150.48225 113.01978 148.67969 117.01619 148.67969 120.28711 A 1.8236202 1.8236202 0 0 0 150.50391 122.10938 A 1.8236202 1.8236202 0 0 0 152.32617 120.28711 C 152.32617 118.66297 153.8395 114.44663 155.71484 110.46875 C 157.23228 107.25003 158.6594 104.53087 159.80469 102.20117 C 160.09 102.28168 160.31404 102.5179 160.60938 102.5625 C 162.06271 102.78209 163.93921 102.33835 164.89062 100.82812 C 165.60169 99.699445 166.02179 98.614222 166.10938 97.527344 C 166.19695 96.440465 165.88303 95.357082 165.28125 94.560547 C 165.15297 94.390846 164.90849 94.484978 164.76562 94.339844 C 164.72428 94.254804 164.80536 94.180742 164.75781 94.095703 C 164.63543 93.875357 164.35673 93.88871 164.21094 93.689453 C 164.06656 93.463815 164.06136 93.164882 163.87109 93.033203 C 163.50338 92.778841 163.25963 92.775321 163.00781 92.738281 A 1.8236202 1.8236202 0 0 0 162.88281 92.419922 C 162.83787 92.332993 162.87258 92.270145 162.80859 92.183594 C 162.78063 92.145798 162.73581 92.153471 162.70508 92.117188 C 162.70253 92.114277 162.69991 92.113155 162.69727 92.109375 A 1.8236202 1.8236202 0 0 0 162.21875 91.673828 C 162.12472 91.614867 162.0199 91.675809 161.92383 91.623047 C 161.81139 91.579204 161.69305 91.442348 161.59766 91.423828 C 161.42474 91.389812 161.40858 91.518775 161.25195 91.519531 C 160.4503 91.207267 159.62008 90.911562 158.83594 90.904297 z "
       transform="matrix(0.26458333,0,0,0.26458333,11.689024,76.978859)" />
    <path
       id="path1220"
       style="color:#000000;font-style:normal;font-variant:normal;font-weight:normal;font-stretch:normal;font-size:medium;line-height:normal;font-family:sans-serif;font-variant-ligatures:normal;font-variant-position:normal;font-variant-caps:normal;font-variant-numeric:normal;font-variant-alternates:normal;font-variant-east-asian:normal;font-feature-settings:normal;font-variation-settings:normal;text-indent:0;text-align:start;text-decoration:none;text-decoration-line:none;text-decoration-style:solid;text-decoration-color:#000000;letter-spacing:normal;word-spacing:normal;text-transform:none;writing-mode:lr-tb;direction:ltr;text-orientation:mixed;dominant-baseline:auto;baseline-shift:baseline;text-anchor:start;white-space:normal;shape-padding:0;shape-margin:0;inline-size:0;clip-rule:nonzero;display:inline;overflow:visible;visibility:visible;opacity:1;isolation:auto;mix-blend-mode:normal;color-interpolation:sRGB;color-interpolation-filters:linearRGB;solid-color:#000000;solid-opacity:1;vector-effect:none;fill:#000080;fill-opacity:1;fill-rule:nonzero;stroke:none;stroke-width:0.964999;stroke-linecap:round;stroke-linejoin:round;stroke-miterlimit:4;stroke-dasharray:none;stroke-dashoffset:0;stroke-opacity:1;color-rendering:auto;image-rendering:auto;shape-rendering:auto;text-rendering:auto;enable-background:accumulate;stop-color:#000000;stop-opacity:1"
       d="m 52.243653,109.07147 c -0.394752,-0.009 -0.540332,0.43105 -0.498041,0.75783 -0.08023,1.67962 -0.0039,3.37104 -0.262959,5.03834 0.05985,0.4282 -0.212349,0.71952 -0.317737,1.12156 -0.295653,0.27407 -0.605831,0.64223 -0.483085,1.08328 0.104343,0.84945 0.777362,1.69558 1.675586,1.74125 0.795482,0.0516 1.432584,-0.6795 1.516523,-1.42742 0.08185,-0.457 0.04271,-0.94508 -0.164741,-1.36487 0.132121,-0.47132 -0.32307,-0.83599 -0.70327,-1.0031 -0.246496,-0.0314 -0.714125,0.15395 -0.535648,-0.28167 0.188091,-1.4619 0.19346,-2.93779 0.219119,-4.40878 -0.03112,-0.37277 0.18316,-0.8572 -0.137912,-1.14635 -0.08564,-0.0708 -0.196211,-0.11278 -0.307835,-0.11007 z" />
    <path
       style="color:#000000;font-style:normal;font-variant:normal;font-weight:normal;font-stretch:normal;font-size:medium;line-height:normal;font-family:sans-serif;font-variant-ligatures:normal;font-variant-position:normal;font-variant-caps:normal;font-variant-numeric:normal;font-variant-alternates:normal;font-variant-east-asian:normal;font-feature-settings:normal;font-variation-settings:normal;text-indent:0;text-align:start;text-decoration:none;text-decoration-line:none;text-decoration-style:solid;text-decoration-color:#000000;letter-spacing:normal;word-spacing:normal;text-transform:none;writing-mode:lr-tb;direction:ltr;text-orientation:mixed;dominant-baseline:auto;baseline-shift:baseline;text-anchor:start;white-space:normal;shape-padding:0;shape-margin:0;inline-size:0;clip-rule:nonzero;display:inline;overflow:visible;visibility:visible;isolation:auto;mix-blend-mode:normal;color-interpolation:sRGB;color-interpolation-filters:linearRGB;solid-color:#000000;solid-opacity:1;vector-effect:none;fill:#44aa00;fill-opacity:1;fill-rule:nonzero;stroke:none;stroke-width:0.964999;stroke-linecap:round;stroke-linejoin:round;stroke-miterlimit:4;stroke-dasharray:none;stroke-dashoffset:0;stroke-opacity:1;color-rendering:auto;image-rendering:auto;shape-rendering:auto;text-rendering:auto;enable-background:accumulate;stop-color:#000000;stop-opacity:1;opacity:1"
       d="M 63.175781 102.77734 C 63.064907 102.77004 62.971023 102.88066 62.857422 102.90234 C 62.764955 102.88579 62.701337 102.80566 62.601562 102.8125 C 62.233598 102.83774 61.863622 103.09229 61.669922 103.47266 C 61.370516 104.0606 61.538314 104.634 61.832031 105.13281 C 61.838701 105.15764 61.81248 105.17239 61.820312 105.19727 C 61.839738 105.25897 61.92183 105.24603 61.949219 105.30273 C 62.064412 105.46177 62.131509 105.66043 62.277344 105.7793 C 62.403846 105.88241 62.58533 105.87427 62.734375 105.94336 C 62.803083 105.96063 62.828737 106.0759 62.898438 106.07812 C 62.934187 106.07926 62.955094 106.03688 62.990234 106.03516 C 63.109612 106.06736 63.203879 106.1579 63.332031 106.1582 C 63.569573 106.69506 63.826618 107.13003 63.914062 107.63086 C 64.150561 108.98538 64.436991 111.00485 64.824219 112.10742 A 0.48249951 0.48249951 0 0 0 65.439453 112.4043 A 0.48249951 0.48249951 0 0 0 65.736328 111.78906 C 65.428198 110.91171 65.103836 108.8426 64.863281 107.46484 C 64.731511 106.71014 64.408184 106.21297 64.177734 105.67383 C 64.283906 105.5721 64.44163 105.58177 64.519531 105.44531 C 64.570191 105.35657 64.529806 105.27297 64.564453 105.18359 C 64.581527 105.14965 64.623316 105.15474 64.638672 105.11914 C 64.672966 105.03964 64.591376 104.98299 64.611328 104.90234 C 64.707618 104.44507 64.661284 104.05131 64.457031 103.69727 C 64.356462 103.52294 64.303851 103.30987 64.158203 103.1875 C 63.877891 102.95199 63.537912 102.8012 63.175781 102.77734 z "
       id="path1114" />
    <path
       style="color:#000000;font-style:normal;font-variant:normal;font-weight:normal;font-stretch:normal;font-size:medium;line-height:normal;font-family:sans-serif;font-variant-ligatures:normal;font-variant-position:normal;font-variant-caps:normal;font-variant-numeric:normal;font-variant-alternates:normal;font-variant-east-asian:normal;font-feature-settings:normal;font-variation-settings:normal;text-indent:0;text-align:start;text-decoration:none;text-decoration-line:none;text-decoration-style:solid;text-decoration-color:#000000;letter-spacing:normal;word-spacing:normal;text-transform:none;writing-mode:lr-tb;direction:ltr;text-orientation:mixed;dominant-baseline:auto;baseline-shift:baseline;text-anchor:start;white-space:normal;shape-padding:0;shape-margin:0;inline-size:0;clip-rule:nonzero;display:inline;overflow:visible;visibility:visible;isolation:auto;mix-blend-mode:normal;color-interpolation:sRGB;color-interpolation-filters:linearRGB;solid-color:#000000;solid-opacity:1;vector-effect:none;fill:#aa0000;fill-opacity:1;fill-rule:nonzero;stroke:none;stroke-width:0.964999;stroke-linecap:round;stroke-linejoin:round;stroke-miterlimit:4;stroke-dasharray:none;stroke-dashoffset:0;stroke-opacity:1;color-rendering:auto;image-rendering:auto;shape-rendering:auto;text-rendering:auto;enable-background:accumulate;stop-color:#000000;stop-opacity:1;opacity:1"
       d="M 65.240234 111.99805 A 0.48249951 0.48249951 0 0 0 64.75 112.47266 C 64.722931 113.94698 63.862823 115.91238 63.914062 118 C 63.895697 117.99928 63.881609 117.97801 63.863281 117.97852 C 63.817104 117.97978 63.81473 118.04231 63.771484 118.04883 C 63.549825 118.03206 63.32964 117.97338 63.109375 118.07031 C 62.756553 118.22558 62.484438 118.61792 62.449219 119.06055 C 62.434965 119.23968 62.557373 119.35546 62.601562 119.51562 C 62.621149 119.59179 62.608898 119.67707 62.638672 119.74805 C 62.635569 119.90819 62.530903 120.0483 62.578125 120.21094 C 62.720795 120.70233 63.243189 121.1203 63.904297 121.125 C 63.941763 121.12523 63.98097 121.09569 64.017578 121.0957 C 64.412256 121.29208 64.839674 121.42467 65.277344 121.19922 C 65.544823 121.06143 65.737556 120.77146 65.798828 120.46094 C 65.828451 120.31081 65.775165 120.11478 65.763672 119.94531 C 65.798581 119.8203 65.9593 119.73042 65.949219 119.60547 C 65.914674 119.17728 65.677249 118.82995 65.380859 118.5625 C 65.230409 118.42674 65.019696 118.37717 64.835938 118.2832 C 64.682606 116.43337 65.679036 114.44054 65.714844 112.49023 A 0.48249951 0.48249951 0 0 0 65.240234 111.99805 z "
       id="path1142" />
    <path
       id="path1138"
       style="color:#000000;font-style:normal;font-variant:normal;font-weight:normal;font-stretch:normal;font-size:medium;line-height:normal;font-family:sans-serif;font-variant-ligatures:normal;font-variant-position:normal;font-variant-caps:normal;font-variant-numeric:normal;font-variant-alternates:normal;font-variant-east-asian:normal;font-feature-settings:normal;font-variation-settings:normal;text-indent:0;text-align:start;text-decoration:none;text-decoration-line:none;text-decoration-style:solid;text-decoration-color:#000000;letter-spacing:normal;word-spacing:normal;text-transform:none;writing-mode:lr-tb;direction:ltr;text-orientation:mixed;dominant-baseline:auto;baseline-shift:baseline;text-anchor:start;white-space:normal;shape-padding:0;shape-margin:0;inline-size:0;clip-rule:nonzero;display:inline;overflow:visible;visibility:visible;opacity:1;isolation:auto;mix-blend-mode:normal;color-interpolation:sRGB;color-interpolation-filters:linearRGB;solid-color:#000000;solid-opacity:1;vector-effect:none;fill:#aa0000;fill-opacity:1;fill-rule:nonzero;stroke:none;stroke-width:3.64724;stroke-linecap:round;stroke-linejoin:round;stroke-miterlimit:4;stroke-dasharray:none;stroke-dashoffset:0;stroke-opacity:1;color-rendering:auto;image-rendering:auto;shape-rendering:auto;text-rendering:auto;enable-background:accumulate;stop-color:#000000;stop-opacity:1"
       d="M 227.86914 74.654297 C 227.6523 74.641823 227.43791 74.644266 227.23047 74.658203 C 226.40071 74.713951 225.51957 74.899124 224.31445 75.175781 C 221.99261 75.708808 220.32277 77.278273 219.75977 79.117188 C 219.46326 80.085635 219.93604 81.000088 220.08594 81.958984 C 220.09085 82.018247 220.03331 82.078401 220.04102 82.136719 C 220.0516 82.217449 220.1139 82.265287 220.12891 82.34375 C 220.28122 83.06951 220.05144 83.850384 220.38086 84.513672 C 221.19981 86.162733 222.50644 87.618949 224.22656 88.470703 C 224.39067 88.551963 224.62209 88.395237 224.79492 88.462891 C 224.83419 91.093177 224.78907 93.80958 225.05273 96.095703 C 226.12875 105.428 225.21124 114.75767 224.99414 124.45703 C 224.96617 125.70401 225.19933 127.05768 225.39258 128.30273 C 225.58579 129.54782 225.67635 130.86421 225.6875 130.76953 A 1.8236202 1.8236202 0 0 0 227.28906 132.79102 A 1.8236202 1.8236202 0 0 0 229.3125 131.19727 C 229.45714 129.96627 229.18836 128.98885 228.99609 127.75 C 228.80383 126.51115 228.62615 125.18517 228.64062 124.53906 C 228.8536 115.02293 229.8116 105.51684 228.67773 95.681641 A 1.8238026 1.8238026 0 0 0 228.67773 95.675781 C 228.39975 93.266295 228.41183 90.825046 228.39062 88.404297 C 229.01592 88.285998 229.57922 88.698086 230.18359 88.373047 C 231.50392 87.664839 232.26519 86.422518 232.67188 85.162109 C 233.07856 83.901697 233.16458 82.554927 232.97461 81.25 C 232.9138 80.832415 232.58808 80.497779 232.46484 80.091797 A 1.8236202 1.8236202 0 0 0 232.20703 79.013672 C 231.94239 78.570073 231.69452 78.349948 231.51953 77.972656 C 231.43876 77.872272 231.46228 77.728775 231.37305 77.632812 C 231.35264 77.610891 231.30418 77.625059 231.2832 77.603516 C 230.90684 76.796163 230.65801 75.91143 229.74023 75.255859 C 229.18962 74.862552 228.51965 74.691717 227.86914 74.654297 z "
       transform="matrix(0.26458333,0,0,0.26458333,11.689024,76.978859)" />
    <path
       id="path1227"
       style="color:#000000;font-style:normal;font-variant:normal;font-weight:normal;font-stretch:normal;font-size:medium;line-height:normal;font-family:sans-serif;font-variant-ligatures:normal;font-variant-position:normal;font-variant-caps:normal;font-variant-numeric:normal;font-variant-alternates:normal;font-variant-east-asian:normal;font-feature-settings:normal;font-variation-settings:normal;text-indent:0;text-align:start;text-decoration:none;text-decoration-line:none;text-decoration-style:solid;text-decoration-color:#000000;letter-spacing:normal;word-spacing:normal;text-transform:none;writing-mode:lr-tb;direction:ltr;text-orientation:mixed;dominant-baseline:auto;baseline-shift:baseline;text-anchor:start;white-space:normal;shape-padding:0;shape-margin:0;inline-size:0;clip-rule:nonzero;display:inline;overflow:visible;visibility:visible;opacity:1;isolation:auto;mix-blend-mode:normal;color-interpolation:sRGB;color-interpolation-filters:linearRGB;solid-color:#000000;solid-opacity:1;vector-effect:none;fill:#44aa00;fill-opacity:1;fill-rule:nonzero;stroke:none;stroke-width:3.64724;stroke-linecap:round;stroke-linejoin:round;stroke-miterlimit:4;stroke-dasharray:none;stroke-dashoffset:0;stroke-opacity:1;color-rendering:auto;image-rendering:auto;shape-rendering:auto;text-rendering:auto;enable-background:accumulate;stop-color:#000000;stop-opacity:1"
       d="M 225.19141 136.17578 A 1.8236202 1.8236202 0 0 0 225.08203 136.17969 A 1.8236202 1.8236202 0 0 0 223.36328 137.87695 C 223.17884 140.54795 221.4458 143.49036 221 147.42969 C 220.29739 153.63836 220.07948 156.89296 218.83789 163.17578 C 218.26216 166.08923 218.32102 168.55765 217.67969 170.78516 C 217.43561 170.80405 217.22952 170.70408 216.97656 170.75586 C 215.83428 170.99321 214.69899 171.71707 213.88477 172.80859 C 212.61656 174.50874 212.35859 176.58503 212.76953 178.36719 C 212.83564 178.65405 213.10224 178.823 213.19727 179.09766 C 213.18555 179.33161 213.01185 179.51727 213.02148 179.75391 C 213.09394 181.53758 214.04509 183.54409 216.00977 184.41992 C 217.05245 184.88473 217.9244 184.43178 218.92578 184.49414 C 219.35468 184.60942 219.65856 185.01839 220.11523 185.03906 C 220.44451 185.05418 220.67489 184.59829 221.00781 184.54492 C 221.50772 184.43947 222.14656 184.7928 222.5957 184.58984 C 223.40261 184.2255 223.65906 183.36249 224.25586 182.76562 C 224.46022 182.53394 224.81386 182.63844 224.98633 182.36719 C 225.09344 182.19862 224.98927 182.02777 225.08203 181.85742 C 225.47206 181.30334 226.21033 181.01446 226.43359 180.38086 C 226.84926 179.20119 226.3792 177.90859 226.10938 176.63867 C 226.10408 176.61222 226.10745 176.58618 226.10156 176.55859 C 225.95635 175.91562 226.28302 175.25921 225.93164 174.66016 C 225.62232 174.13284 224.7046 174.00649 224.24023 173.56055 C 223.88231 173.12371 223.79653 172.45905 223.35547 172.12891 C 222.83079 171.73618 222.07419 171.953 221.44336 171.73828 C 221.34199 171.69897 221.30338 171.61088 221.19922 171.57422 C 221.95597 168.77177 221.96972 166.15113 222.41797 163.88281 C 223.69047 157.44363 223.92895 153.99249 224.625 147.8418 C 224.95956 144.88545 226.73793 141.95059 227.00195 138.12695 A 1.8236202 1.8236202 0 0 0 225.30469 136.17969 A 1.8236202 1.8236202 0 0 0 225.19141 136.17578 z "
       transform="matrix(0.26458333,0,0,0.26458333,11.689024,76.978859)" />
    <path
       id="path1235"
       style="color:#000000;font-style:normal;font-variant:normal;font-weight:normal;font-stretch:normal;font-size:medium;line-height:normal;font-family:sans-serif;font-variant-ligatures:normal;font-variant-position:normal;font-variant-caps:normal;font-variant-numeric:normal;font-variant-alternates:normal;font-variant-east-asian:normal;font-feature-settings:normal;font-variation-settings:normal;text-indent:0;text-align:start;text-decoration:none;text-decoration-line:none;text-decoration-style:solid;text-decoration-color:#000000;letter-spacing:normal;word-spacing:normal;text-transform:none;writing-mode:lr-tb;direction:ltr;text-orientation:mixed;dominant-baseline:auto;baseline-shift:baseline;text-anchor:start;white-space:normal;shape-padding:0;shape-margin:0;inline-size:0;clip-rule:nonzero;display:inline;overflow:visible;visibility:visible;opacity:1;isolation:auto;mix-blend-mode:normal;color-interpolation:sRGB;color-interpolation-filters:linearRGB;solid-color:#000000;solid-opacity:1;vector-effect:none;fill:#000080;fill-opacity:1;fill-rule:nonzero;stroke:none;stroke-width:3.64724;stroke-linecap:round;stroke-linejoin:round;stroke-miterlimit:4;stroke-dasharray:none;stroke-dashoffset:0;stroke-opacity:1;color-rendering:auto;image-rendering:auto;shape-rendering:auto;text-rendering:auto;enable-background:accumulate;stop-color:#000000;stop-opacity:1"
       d="M 258.73242 77.064453 C 257.74101 77.06476 256.75727 77.2622 255.84375 77.65625 C 254.01672 78.444346 252.44381 80.32704 252.46875 82.691406 C 252.47706 83.472672 253.54233 84.411766 253.8418 85.230469 C 253.42947 86.586344 253.28316 87.997997 253.79102 89.400391 C 254.31501 90.847383 255.49277 91.80483 256.73633 92.361328 C 257.08877 92.518934 257.49508 92.475449 257.86523 92.582031 C 257.64016 93.65708 257.44923 94.742001 257.19336 95.822266 C 256.37097 99.294329 256.51537 102.53444 255.94727 105.41992 C 254.48531 112.84545 252.04102 120.80247 252.04102 128.94531 A 1.8236202 1.8236202 0 0 0 253.86523 130.77539 A 1.8236202 1.8236202 0 0 0 255.6875 128.94531 C 255.6875 121.54832 258.01532 113.8009 259.52734 106.12109 C 260.20566 102.67587 260.06731 99.496818 260.73828 96.664062 C 261.03222 95.42313 261.25236 94.198886 261.50586 92.972656 C 262.59539 92.886105 263.69123 92.76549 264.67188 92.316406 C 265.89483 91.75628 267.05378 90.819764 267.55859 89.386719 C 268.38128 87.051273 268.16981 85.089842 267.30664 83.576172 C 267.23339 83.253022 267.53735 82.964312 267.39648 82.646484 C 266.87475 81.46926 265.171 81.088402 263.81641 80.447266 C 263.09572 79.453038 262.71229 78.093001 261.66797 77.65625 C 260.72282 77.260972 259.72383 77.064146 258.73242 77.064453 z "
       transform="matrix(0.26458333,0,0,0.26458333,11.689024,76.978859)" />
    <path
       id="path1194"
       style="color:#000000;font-style:normal;font-variant:normal;font-weight:normal;font-stretch:normal;font-size:medium;line-height:normal;font-family:sans-serif;font-variant-ligatures:normal;font-variant-position:normal;font-variant-caps:normal;font-variant-numeric:normal;font-variant-alternates:normal;font-variant-east-asian:normal;font-feature-settings:normal;font-variation-settings:normal;text-indent:0;text-align:start;text-decoration:none;text-decoration-line:none;text-decoration-style:solid;text-decoration-color:#000000;letter-spacing:normal;word-spacing:normal;text-transform:none;writing-mode:lr-tb;direction:ltr;text-orientation:mixed;dominant-baseline:auto;baseline-shift:baseline;text-anchor:start;white-space:normal;shape-padding:0;shape-margin:0;inline-size:0;clip-rule:nonzero;display:inline;overflow:visible;visibility:visible;opacity:1;isolation:auto;mix-blend-mode:normal;color-interpolation:sRGB;color-interpolation-filters:linearRGB;solid-color:#000000;solid-opacity:1;vector-effect:none;fill:#ffcc00;fill-opacity:1;fill-rule:nonzero;stroke:none;stroke-width:3.64724;stroke-linecap:round;stroke-linejoin:round;stroke-miterlimit:4;stroke-dasharray:none;stroke-dashoffset:0;stroke-opacity:1;color-rendering:auto;image-rendering:auto;shape-rendering:auto;text-rendering:auto;enable-background:accumulate;stop-color:#000000;stop-opacity:1"
       d="M 254.12305 141.58789 A 1.8236202 1.8236202 0 0 0 254.03516 141.58984 A 1.8236202 1.8236202 0 0 0 252.45508 142.61719 C 251.64706 144.2832 251.38263 146.49534 251.11133 149.39258 C 250.84003 152.28981 250.68713 155.73488 250.59375 159.19727 C 250.40697 166.12204 250.47489 173.15065 250.44727 175.60742 C 250.44327 175.95627 250.45895 175.92142 250.46875 176.24805 C 250.47675 176.53189 250.48199 176.93973 250.49219 177.37891 C 249.60419 177.55692 248.56688 177.36291 247.95312 177.93164 C 247.46882 178.38035 247.41624 179.04697 247.11719 179.59961 C 247.05699 179.66011 246.95465 179.66151 246.89648 179.72461 C 246.28575 180.38512 245.78527 181.2511 245.67188 182.26562 C 245.62478 182.68731 245.91957 183.07504 246.01172 183.49805 C 245.98452 184.47366 245.876 185.45683 246.11328 186.39062 C 246.47827 187.82711 247.14361 189.21421 248.41797 190.14844 C 251.14624 192.1486 254.72327 191.53861 257.25391 189.86133 C 258.51923 189.02276 259.59661 187.85347 260.10938 186.33984 C 260.27903 185.83902 259.8628 185.26038 259.87305 184.70898 C 260.68611 183.028 261.14481 181.20158 260.86328 179.34961 C 260.70231 178.29059 259.89676 177.47367 259.14258 177.08203 C 258.3884 176.69043 257.61344 176.54131 256.79492 176.47656 C 255.9592 176.41046 255.0257 176.68557 254.12305 176.80273 C 254.11705 176.58012 254.11407 176.30406 254.10938 176.13867 C 254.09938 175.80607 254.09675 175.3652 254.09375 175.64258 C 254.12285 173.04309 254.05785 166.12666 254.24219 159.29297 C 254.33429 155.87612 254.4858 152.49106 254.74414 149.73242 C 255.00247 146.97378 255.48969 144.71142 255.73242 144.21094 A 1.8236202 1.8236202 0 0 0 254.89062 141.76758 A 1.8236202 1.8236202 0 0 0 254.12305 141.58789 z "
       transform="matrix(0.26458333,0,0,0.26458333,11.689024,76.978859)" />
    <path
       id="path1106"
       style="color:#000000;font-style:normal;font-variant:normal;font-weight:normal;font-stretch:normal;font-size:medium;line-height:normal;font-family:sans-serif;font-variant-ligatures:normal;font-variant-position:normal;font-variant-caps:normal;font-variant-numeric:normal;font-variant-alternates:normal;font-variant-east-asian:normal;font-feature-settings:normal;font-variation-settings:normal;text-indent:0;text-align:start;text-decoration:none;text-decoration-line:none;text-decoration-style:solid;text-decoration-color:#000000;letter-spacing:normal;word-spacing:normal;text-transform:none;writing-mode:lr-tb;direction:ltr;text-orientation:mixed;dominant-baseline:auto;baseline-shift:baseline;text-anchor:start;white-space:normal;shape-padding:0;shape-margin:0;inline-size:0;clip-rule:nonzero;display:inline;overflow:visible;visibility:visible;opacity:1;isolation:auto;mix-blend-mode:normal;color-interpolation:sRGB;color-interpolation-filters:linearRGB;solid-color:#000000;solid-opacity:1;vector-effect:none;fill:#44aa00;fill-opacity:1;fill-rule:nonzero;stroke:none;stroke-width:3.64724;stroke-linecap:round;stroke-linejoin:round;stroke-miterlimit:4;stroke-dasharray:none;stroke-dashoffset:0;stroke-opacity:1;color-rendering:auto;image-rendering:auto;shape-rendering:auto;text-rendering:auto;enable-background:accumulate;stop-color:#000000;stop-opacity:1"
       d="M 293.16602 100.47266 C 292.25335 100.45754 291.40873 101.11663 290.54492 101.61719 C 290.4058 101.61341 290.2783 101.70325 290.13867 101.70703 C 289.94104 101.75919 289.75264 101.68688 289.55664 101.75 C 289.50123 101.7689 289.47146 101.84243 289.41602 101.86133 C 288.52332 101.99286 287.59397 101.88396 286.81055 102.42969 C 285.44572 103.38024 284.45143 104.98601 284.12305 106.99219 C 283.81108 108.89794 284.54977 110.68691 285.69531 111.98828 C 286.38708 112.77412 287.46589 113.02351 288.42773 113.45898 C 288.02347 114.61801 287.74717 115.48742 287.4668 116.71289 C 286.20914 122.2098 283.41406 131.19776 283.41406 137.41992 A 1.8236202 1.8236202 0 0 0 285.23828 139.24219 A 1.8236202 1.8236202 0 0 0 287.06055 137.41992 C 287.06055 132.37108 289.70798 123.29131 291.02539 117.5332 C 291.20908 116.73036 291.56801 115.24823 291.99219 114.07812 C 292.31851 114.07775 292.63733 114.25793 292.95898 114.20312 C 295.28215 113.80627 297.31594 112.05699 298.24414 109.50195 C 299.2347 106.77529 298.5174 103.89606 296.72461 102.06836 C 295.82822 101.15447 294.57461 100.49412 293.16602 100.47266 z "
       transform="matrix(0.26458333,0,0,0.26458333,11.689024,76.978859)" />
    <path
       id="path1243"
       style="color:#000000;font-style:normal;font-variant:normal;font-weight:normal;font-stretch:normal;font-size:medium;line-height:normal;font-family:sans-serif;font-variant-ligatures:normal;font-variant-position:normal;font-variant-caps:normal;font-variant-numeric:normal;font-variant-alternates:normal;font-variant-east-asian:normal;font-feature-settings:normal;font-variation-settings:normal;text-indent:0;text-align:start;text-decoration:none;text-decoration-line:none;text-decoration-style:solid;text-decoration-color:#000000;letter-spacing:normal;word-spacing:normal;text-transform:none;writing-mode:lr-tb;direction:ltr;text-orientation:mixed;dominant-baseline:auto;baseline-shift:baseline;text-anchor:start;white-space:normal;shape-padding:0;shape-margin:0;inline-size:0;clip-rule:nonzero;display:inline;overflow:visible;visibility:visible;opacity:1;isolation:auto;mix-blend-mode:normal;color-interpolation:sRGB;color-interpolation-filters:linearRGB;solid-color:#000000;solid-opacity:1;vector-effect:none;fill:#aa0000;fill-opacity:1;fill-rule:nonzero;stroke:none;stroke-width:3.64724;stroke-linecap:round;stroke-linejoin:round;stroke-miterlimit:4;stroke-dasharray:none;stroke-dashoffset:0;stroke-opacity:1;color-rendering:auto;image-rendering:auto;shape-rendering:auto;text-rendering:auto;enable-background:accumulate;stop-color:#000000;stop-opacity:1"
       d="m 285.18555,140.55664 c -0.14448,0.003 -0.28806,0.0235 -0.42774,0.0606 -0.97858,0.24025 -1.57684,1.22861 -1.33593,2.20703 0.0822,0.33298 0.0969,0.3199 0.16992,0.53125 0.0731,0.21127 0.1762,0.49386 0.29492,0.83398 0.23743,0.6802 0.55431,1.60346 0.91601,2.6875 0.72341,2.16813 1.60841,4.97102 2.29493,7.6543 0.39699,1.55172 0.45436,2.62542 0.65039,3.92773 -0.1276,0.0265 -0.25981,-0.0942 -0.38477,-0.0605 -1.63624,0.43922 -3.18016,1.4252 -4.08203,3.02734 -0.90187,1.60218 -0.87267,3.8587 0.38477,5.80274 2.18974,3.38539 5.81612,5.01642 9.03515,4.39257 1.55065,-0.77582 4.0854,-2.37116 4.08982,-4.03907 2.75997,-4.32938 -1.65789,-6.90398 -4.40821,-8.37109 -0.26358,-0.20674 -0.60032,0.003 -0.88476,-0.13867 -0.19389,-1.74256 -0.35772,-3.46536 -0.86328,-5.44141 -0.72166,-2.82059 -1.63199,-5.69111 -2.3711,-7.90625 -0.36956,-1.10759 -0.69805,-2.05226 -0.9375,-2.73828 -0.11973,-0.34318 -0.21881,-0.62287 -0.28711,-0.82031 -0.0683,-0.1973 -0.1345,-0.46475 -0.0742,-0.22071 -0.20099,-0.81841 -0.93657,-1.3925 -1.77929,-1.38867 z"
       transform="matrix(0.26458333,0,0,0.26458333,11.689024,76.978859)"
       sodipodi:nodetypes="ccccsssccssccccssssccc" />
    <path
       id="path1178"
       style="color:#000000;font-style:normal;font-variant:normal;font-weight:normal;font-stretch:normal;font-size:medium;line-height:normal;font-family:sans-serif;font-variant-ligatures:normal;font-variant-position:normal;font-variant-caps:normal;font-variant-numeric:normal;font-variant-alternates:normal;font-variant-east-asian:normal;font-feature-settings:normal;font-variation-settings:normal;text-indent:0;text-align:start;text-decoration:none;text-decoration-line:none;text-decoration-style:solid;text-decoration-color:#000000;letter-spacing:normal;word-spacing:normal;text-transform:none;writing-mode:lr-tb;direction:ltr;text-orientation:mixed;dominant-baseline:auto;baseline-shift:baseline;text-anchor:start;white-space:normal;shape-padding:0;shape-margin:0;inline-size:0;clip-rule:nonzero;display:inline;overflow:visible;visibility:visible;opacity:1;isolation:auto;mix-blend-mode:normal;color-interpolation:sRGB;color-interpolation-filters:linearRGB;solid-color:#000000;solid-opacity:1;vector-effect:none;fill:#ffcc00;fill-opacity:1;fill-rule:nonzero;stroke:none;stroke-width:3.64724;stroke-linecap:round;stroke-linejoin:round;stroke-miterlimit:4;stroke-dasharray:none;stroke-dashoffset:0;stroke-opacity:1;color-rendering:auto;image-rendering:auto;shape-rendering:auto;text-rendering:auto;enable-background:accumulate;stop-color:#000000;stop-opacity:1"
       d="M 333.48242 90.869141 C 333.1706 90.851252 332.86307 90.854389 332.5625 90.876953 C 331.36021 90.967284 330.26285 91.371595 329.38086 92.021484 C 327.61688 93.321302 326.67696 95.347387 326.49609 97.388672 C 326.31524 99.429995 326.93762 101.67138 328.74609 103.07227 C 329.74397 103.84525 331.05583 104.17915 332.52539 104.22266 C 332.89492 104.39803 333.03905 104.96626 333.42773 105.06445 C 335.30649 105.53909 337.39952 104.98164 338.83789 103.4707 C 340.32744 104.59341 341.85116 105.71986 343.70898 107.08008 C 345.0113 108.03358 346.26416 108.97102 347.23047 109.75977 C 348.19678 110.54852 348.92134 111.35491 348.89844 111.31836 A 1.8236202 1.8236202 0 0 0 351.41602 111.89258 A 1.8236202 1.8236202 0 0 0 351.99219 109.37695 C 351.38448 108.40732 350.59385 107.80519 349.5332 106.93945 C 348.47255 106.07371 347.18905 105.11184 345.86523 104.14258 C 343.50923 102.41764 341.29215 100.81543 339.97461 99.771484 C 340.39988 98.672322 340.74998 97.533819 340.70508 96.390625 C 340.64952 94.972773 340.26046 93.54087 339.20703 92.435547 C 338.60049 91.799112 337.517 91.947374 336.57227 91.785156 C 336.48949 91.740936 336.46035 91.655675 336.37305 91.615234 C 335.39736 91.163222 334.41789 90.922808 333.48242 90.869141 z "
       transform="matrix(0.26458333,0,0,0.26458333,11.689024,76.978859)" />
    <path
       id="path1102"
       style="color:#000000;font-style:normal;font-variant:normal;font-weight:normal;font-stretch:normal;font-size:medium;line-height:normal;font-family:sans-serif;font-variant-ligatures:normal;font-variant-position:normal;font-variant-caps:normal;font-variant-numeric:normal;font-variant-alternates:normal;font-variant-east-asian:normal;font-feature-settings:normal;font-variation-settings:normal;text-indent:0;text-align:start;text-decoration:none;text-decoration-line:none;text-decoration-style:solid;text-decoration-color:#000000;letter-spacing:normal;word-spacing:normal;text-transform:none;writing-mode:lr-tb;direction:ltr;text-orientation:mixed;dominant-baseline:auto;baseline-shift:baseline;text-anchor:start;white-space:normal;shape-padding:0;shape-margin:0;inline-size:0;clip-rule:nonzero;display:inline;overflow:visible;visibility:visible;opacity:1;isolation:auto;mix-blend-mode:normal;color-interpolation:sRGB;color-interpolation-filters:linearRGB;solid-color:#000000;solid-opacity:1;vector-effect:none;fill:#44aa00;fill-opacity:1;fill-rule:nonzero;stroke:none;stroke-width:3.64724;stroke-linecap:round;stroke-linejoin:round;stroke-miterlimit:4;stroke-dasharray:none;stroke-dashoffset:0;stroke-opacity:1;color-rendering:auto;image-rendering:auto;shape-rendering:auto;text-rendering:auto;enable-background:accumulate;stop-color:#000000;stop-opacity:1"
       d="m 356.31055,54.947266 c -0.20634,-0.0096 -0.41136,-0.0063 -0.61328,0.0098 -1.61537,0.128731 -3.05474,0.887818 -4.23633,1.933594 -1.1816,1.045776 -2.12351,2.405012 -2.56836,3.986328 -0.7514,5.469565 5.91113,10.131361 11.12304,8.599609 0.11528,0.110249 0.46666,0.378277 0.53126,0.458985 2.38397,2.977485 4.98845,9.443995 6.54882,12.814453 0.42461,0.911819 1.50731,1.307676 2.41992,0.884766 0.91557,-0.420942 1.31618,-1.504675 0.89454,-2.419922 -1.43573,-3.101258 -3.91332,-9.67853 -7.02149,-13.560547 -0.12888,-0.161197 -0.31643,-0.255024 -0.45703,-0.40625 1.21047,-1.851107 1.76116,-3.87606 1.11524,-5.537109 -2.30412,-2.341907 -4.32775,-6.549411 -7.73633,-6.763672 z"
       transform="matrix(0.26458333,0,0,0.26458333,11.689024,76.978859)"
       sodipodi:nodetypes="csscccccccccc" />
    <path
       id="path1130"
       style="color:#000000;font-style:normal;font-variant:normal;font-weight:normal;font-stretch:normal;font-size:medium;line-height:normal;font-family:sans-serif;font-variant-ligatures:normal;font-variant-position:normal;font-variant-caps:normal;font-variant-numeric:normal;font-variant-alternates:normal;font-variant-east-asian:normal;font-feature-settings:normal;font-variation-settings:normal;text-indent:0;text-align:start;text-decoration:none;text-decoration-line:none;text-decoration-style:solid;text-decoration-color:#000000;letter-spacing:normal;word-spacing:normal;text-transform:none;writing-mode:lr-tb;direction:ltr;text-orientation:mixed;dominant-baseline:auto;baseline-shift:baseline;text-anchor:start;white-space:normal;shape-padding:0;shape-margin:0;inline-size:0;clip-rule:nonzero;display:inline;overflow:visible;visibility:visible;opacity:1;isolation:auto;mix-blend-mode:normal;color-interpolation:sRGB;color-interpolation-filters:linearRGB;solid-color:#000000;solid-opacity:1;vector-effect:none;fill:#aa0000;fill-opacity:1;fill-rule:nonzero;stroke:none;stroke-width:3.64724;stroke-linecap:round;stroke-linejoin:round;stroke-miterlimit:4;stroke-dasharray:none;stroke-dashoffset:0;stroke-opacity:1;color-rendering:auto;image-rendering:auto;shape-rendering:auto;text-rendering:auto;enable-background:accumulate;stop-color:#000000;stop-opacity:1"
       d="M 386.83594 31.433594 C 385.05498 31.419784 383.42192 32.004491 381.95508 32.855469 C 380.79586 32.6451 379.58079 32.113608 378.63281 32.589844 C 377.0823 33.368748 376.07512 34.775809 375.52539 36.294922 C 374.97562 37.814035 374.85401 39.520796 375.44531 41.123047 C 376.03666 42.725298 377.51234 44.142417 379.51953 44.578125 C 380.03234 44.689432 380.44495 44.372811 380.94336 44.392578 C 381.40431 44.625813 381.45663 45.152987 381.99219 45.308594 C 383.81267 45.837524 385.49694 45.745928 387.0332 45.337891 C 387.54975 46.335266 388.0297 47.278235 388.69531 48.505859 C 390.68168 52.169488 393.24279 56.7238 395.82617 61.267578 C 398.40952 65.81136 401.0126 70.345533 403.06836 73.951172 C 405.12416 77.556807 406.69667 80.370443 406.98633 80.978516 A 1.8236202 1.8236202 0 0 0 409.41602 81.841797 A 1.8236202 1.8236202 0 0 0 410.2793 79.412109 C 409.75598 78.313665 408.29471 75.756245 406.23438 72.142578 C 404.174 68.528915 401.57828 64.001618 399 59.466797 C 396.42176 54.931976 393.86156 50.390322 391.89844 46.769531 C 391.19182 45.466237 390.68051 44.466361 390.15625 43.449219 C 391.67331 41.698492 392.29811 39.234621 391.81055 36.464844 C 391.78409 36.322129 391.58461 36.352571 391.54492 36.220703 C 391.57138 36.013358 391.78257 35.85073 391.78711 35.638672 C 391.80601 34.805188 391.59876 33.88917 391.03516 33.136719 C 390.4717 32.384264 389.59929 31.883364 388.66602 31.660156 C 388.04002 31.510439 387.42959 31.438197 386.83594 31.433594 z "
       transform="matrix(0.26458333,0,0,0.26458333,11.689024,76.978859)" />
    <path
       id="path1158"
       style="color:#000000;font-style:normal;font-variant:normal;font-weight:normal;font-stretch:normal;font-size:medium;line-height:normal;font-family:sans-serif;font-variant-ligatures:normal;font-variant-position:normal;font-variant-caps:normal;font-variant-numeric:normal;font-variant-alternates:normal;font-variant-east-asian:normal;font-feature-settings:normal;font-variation-settings:normal;text-indent:0;text-align:start;text-decoration:none;text-decoration-line:none;text-decoration-style:solid;text-decoration-color:#000000;letter-spacing:normal;word-spacing:normal;text-transform:none;writing-mode:lr-tb;direction:ltr;text-orientation:mixed;dominant-baseline:auto;baseline-shift:baseline;text-anchor:start;white-space:normal;shape-padding:0;shape-margin:0;inline-size:0;clip-rule:nonzero;display:inline;overflow:visible;visibility:visible;opacity:1;isolation:auto;mix-blend-mode:normal;color-interpolation:sRGB;color-interpolation-filters:linearRGB;solid-color:#000000;solid-opacity:1;vector-effect:none;fill:#000080;fill-opacity:1;fill-rule:nonzero;stroke:none;stroke-width:3.64724;stroke-linecap:round;stroke-linejoin:round;stroke-miterlimit:4;stroke-dasharray:none;stroke-dashoffset:0;stroke-opacity:1;color-rendering:auto;image-rendering:auto;shape-rendering:auto;text-rendering:auto;enable-background:accumulate;stop-color:#000000;stop-opacity:1"
       d="M 414.73828 10.251953 C 414.42609 10.27463 414.19814 10.561653 413.88867 10.613281 C 413.6653 10.668273 413.41909 10.589405 413.20312 10.666016 C 412.89018 10.776794 412.68603 11.096235 412.39062 11.255859 C 411.45772 11.604559 410.40514 11.665032 409.68945 12.414062 C 408.35222 13.813584 407.79149 16.038239 408.43359 18.341797 C 408.8055 19.67631 409.78324 20.495044 410.63477 21.421875 C 410.95338 21.91688 410.85768 22.783223 411.27539 23.162109 C 412.84896 24.589875 414.93545 25.0765 416.86523 24.853516 C 417.05194 24.831972 417.17437 24.629983 417.35938 24.595703 C 418.26589 26.589147 419.16349 28.575754 420.24609 30.810547 C 421.781 33.979136 423.36621 37.154742 424.61523 39.675781 C 425.86422 42.196824 426.8532 44.262203 426.93359 44.466797 C 427.80795 46.692028 428.81326 50.263651 429.58398 52.927734 C 429.96935 54.259776 430.28506 55.33264 430.57227 56.085938 C 430.64408 56.274271 430.70831 56.442851 430.81641 56.646484 C 430.87045 56.748305 430.93393 56.862694 431.06055 57.023438 C 431.18716 57.184181 431.33742 57.466566 431.97461 57.673828 C 432.61195 57.881097 433.70065 57.452815 434.01953 57.046875 C 434.33852 56.640912 434.35831 56.413903 434.39648 56.242188 C 434.47283 55.898742 434.46289 55.721044 434.46289 55.496094 A 1.8236202 1.8236202 0 0 0 433.74609 54.056641 C 433.56165 53.493192 433.37418 52.898818 433.08984 51.916016 C 432.32672 49.278212 431.33227 45.694199 430.32812 43.138672 C 429.98268 42.259728 429.1297 40.585188 427.87891 38.060547 C 426.62811 35.535906 425.05332 32.362842 423.5293 29.216797 C 422.46974 27.029603 421.60308 25.121935 420.72461 23.193359 C 421.01261 22.979136 421.43958 23.099493 421.68555 22.816406 C 421.79213 22.693761 421.68122 22.439589 421.77344 22.306641 C 421.82937 22.246622 421.92604 22.257448 421.98047 22.195312 C 423.31411 20.668278 424.04658 18.464144 423.64062 16.054688 C 423.28157 13.923215 421.85168 12.307679 420.18555 11.388672 C 419.49249 11.006388 418.67923 11.108205 417.91992 10.916016 C 417.20325 10.65349 416.54327 10.495462 415.80078 10.472656 C 415.43568 10.461318 415.10089 10.22561 414.73828 10.251953 z "
       transform="matrix(0.26458333,0,0,0.26458333,11.689024,76.978859)" />
    <path
       id="path1263"
       style="color:#000000;font-style:normal;font-variant:normal;font-weight:normal;font-stretch:normal;font-size:medium;line-height:normal;font-family:sans-serif;font-variant-ligatures:normal;font-variant-position:normal;font-variant-caps:normal;font-variant-numeric:normal;font-variant-alternates:normal;font-variant-east-asian:normal;font-feature-settings:normal;font-variation-settings:normal;text-indent:0;text-align:start;text-decoration:none;text-decoration-line:none;text-decoration-style:solid;text-decoration-color:#000000;letter-spacing:normal;word-spacing:normal;text-transform:none;writing-mode:lr-tb;direction:ltr;text-orientation:mixed;dominant-baseline:auto;baseline-shift:baseline;text-anchor:start;white-space:normal;shape-padding:0;shape-margin:0;inline-size:0;clip-rule:nonzero;display:inline;overflow:visible;visibility:visible;opacity:1;isolation:auto;mix-blend-mode:normal;color-interpolation:sRGB;color-interpolation-filters:linearRGB;solid-color:#000000;solid-opacity:1;vector-effect:none;fill:#000080;fill-opacity:1;fill-rule:nonzero;stroke:none;stroke-width:3.64724;stroke-linecap:round;stroke-linejoin:round;stroke-miterlimit:4;stroke-dasharray:none;stroke-dashoffset:0;stroke-opacity:1;color-rendering:auto;image-rendering:auto;shape-rendering:auto;text-rendering:auto;enable-background:accumulate;stop-color:#000000;stop-opacity:1"
       d="M 352.36133 145.93164 A 1.8236202 1.8236202 0 0 0 350.75977 146.92773 C 349.86164 148.6913 348.19855 152.0654 346.77344 155.49805 C 346.06092 157.21441 345.40678 158.94691 344.93555 160.52539 C 344.85504 160.79563 344.88708 161.00447 344.81641 161.26367 C 344.39427 161.27879 344.06274 161.59422 343.65039 161.66992 C 343.64809 161.67034 343.64636 161.66947 343.64258 161.66992 C 342.27333 161.64347 341.00541 162.10428 339.90039 162.79102 C 339.78134 162.86509 339.71444 163.00657 339.59766 163.08594 C 339.48276 163.16531 339.3186 163.13718 339.20703 163.2207 C 338.98857 163.38398 338.97 163.7058 338.76367 163.88477 C 337.76402 164.75678 337.08982 165.80448 336.65234 167.05078 C 336.42746 167.56132 335.84143 167.84958 335.74414 168.41602 C 335.37375 170.57292 336.31284 173.01041 338.52734 174.70508 C 342.12576 177.4588 346.55422 177.13064 349.36328 174.85352 C 351.09408 173.45037 351.80451 171.21967 351.85156 168.80859 C 351.9657 167.70063 351.74015 166.55106 351.2168 165.35352 C 351.05957 164.96955 351.22784 164.60494 351.00977 164.22461 C 350.67377 163.63519 350.09023 163.40769 349.55664 163.10938 C 349.14671 162.73482 348.82993 162.21875 348.35938 161.96484 C 348.40586 161.78834 348.37879 161.75111 348.43359 161.56641 C 348.84809 160.17781 349.45666 158.54316 350.13867 156.90039 C 351.5027 153.61481 353.1386 150.28883 354.00781 148.58203 A 1.8236202 1.8236202 0 0 0 353.20898 146.13086 A 1.8236202 1.8236202 0 0 0 352.36133 145.93164 z "
       transform="matrix(0.26458333,0,0,0.26458333,11.689024,76.978859)" />
    <path
       id="path1270"
       style="color:#000000;font-style:normal;font-variant:normal;font-weight:normal;font-stretch:normal;font-size:medium;line-height:normal;font-family:sans-serif;font-variant-ligatures:normal;font-variant-position:normal;font-variant-caps:normal;font-variant-numeric:normal;font-variant-alternates:normal;font-variant-east-asian:normal;font-feature-settings:normal;font-variation-settings:normal;text-indent:0;text-align:start;text-decoration:none;text-decoration-line:none;text-decoration-style:solid;text-decoration-color:#000000;letter-spacing:normal;word-spacing:normal;text-transform:none;writing-mode:lr-tb;direction:ltr;text-orientation:mixed;dominant-baseline:auto;baseline-shift:baseline;text-anchor:start;white-space:normal;shape-padding:0;shape-margin:0;inline-size:0;clip-rule:nonzero;display:inline;overflow:visible;visibility:visible;opacity:1;isolation:auto;mix-blend-mode:normal;color-interpolation:sRGB;color-interpolation-filters:linearRGB;solid-color:#000000;solid-opacity:1;vector-effect:none;fill:#aa0000;fill-opacity:1;fill-rule:nonzero;stroke:none;stroke-width:3.64724;stroke-linecap:round;stroke-linejoin:round;stroke-miterlimit:4;stroke-dasharray:none;stroke-dashoffset:0;stroke-opacity:1;color-rendering:auto;image-rendering:auto;shape-rendering:auto;text-rendering:auto;enable-background:accumulate;stop-color:#000000;stop-opacity:1"
       d="M 391.31445 155.74219 A 1.8236202 1.8236202 0 0 0 390.10547 156.17773 C 387.39128 158.47251 386.80037 161.84125 386.57617 164.88086 C 386.37926 167.55212 386.28429 169.94137 385.83789 171.8418 C 385.68028 171.86069 385.53692 171.90361 385.38086 171.92969 C 384.75505 171.86997 384.24629 171.49267 383.55078 171.56055 C 381.78124 171.73365 379.73918 172.45258 378.50781 174.31445 C 377.27644 176.17632 377.2058 178.84304 378.47852 182.0293 C 379.45095 184.46241 381.59088 185.88177 383.74805 186.16992 C 385.90517 186.45792 388.07525 185.85533 389.91992 184.76758 C 391.7646 183.68006 393.34245 182.0769 394.00977 179.99805 C 394.67708 177.91916 394.13375 175.36871 392.20898 173.42773 C 391.42458 172.63679 390.36128 172.60574 389.37305 172.32031 C 389.87323 169.89745 390.04964 167.38638 390.21484 165.14648 C 390.41856 162.38592 390.90756 160.27262 392.45898 158.96094 A 1.8236202 1.8236202 0 0 0 392.67383 156.39062 A 1.8236202 1.8236202 0 0 0 391.31641 155.74219 L 391.31445 155.74219 z "
       transform="matrix(0.26458333,0,0,0.26458333,11.689024,76.978859)" />
    <path
       id="path1275"
       style="color:#000000;font-style:normal;font-variant:normal;font-weight:normal;font-stretch:normal;font-size:medium;line-height:normal;font-family:sans-serif;font-variant-ligatures:normal;font-variant-position:normal;font-variant-caps:normal;font-variant-numeric:normal;font-variant-alternates:normal;font-variant-east-asian:normal;font-feature-settings:normal;font-variation-settings:normal;text-indent:0;text-align:start;text-decoration:none;text-decoration-line:none;text-decoration-style:solid;text-decoration-color:#000000;letter-spacing:normal;word-spacing:normal;text-transform:none;writing-mode:lr-tb;direction:ltr;text-orientation:mixed;dominant-baseline:auto;baseline-shift:baseline;text-anchor:start;white-space:normal;shape-padding:0;shape-margin:0;inline-size:0;clip-rule:nonzero;display:inline;overflow:visible;visibility:visible;opacity:1;isolation:auto;mix-blend-mode:normal;color-interpolation:sRGB;color-interpolation-filters:linearRGB;solid-color:#000000;solid-opacity:1;vector-effect:none;fill:#44aa00;fill-opacity:1;fill-rule:nonzero;stroke:none;stroke-width:0.964999;stroke-linecap:round;stroke-linejoin:round;stroke-miterlimit:4;stroke-dasharray:none;stroke-dashoffset:0;stroke-opacity:1;color-rendering:auto;image-rendering:auto;shape-rendering:auto;text-rendering:auto;enable-background:accumulate;stop-color:#000000;stop-opacity:1"
       d="m 125.2578,114.55073 c -0.33734,-0.001 -0.53541,0.36219 -0.46361,0.66677 0.0703,2.36142 0.11083,4.72559 0.30548,7.08107 -0.49497,0.0156 -0.99346,0.10977 -1.41048,0.3943 -0.68084,0.37677 -1.26675,1.17963 -0.99016,1.98339 0.32341,0.96075 1.35628,1.44457 2.30843,1.50582 0.37008,0.2516 0.82139,0.0987 1.19189,-0.13903 0.43292,-0.0685 0.69897,-0.34126 1.05543,-0.55089 0.41652,-0.54625 0.45937,-1.33805 0.16506,-1.94719 -0.21344,-0.24573 -0.51819,-0.40041 -0.74162,-0.60728 -0.16142,-0.2447 -0.44726,-0.31664 -0.60911,-0.47803 -0.22705,-2.50401 -0.22815,-5.02142 -0.32642,-7.53108 -0.0455,-0.22138 -0.25903,-0.38787 -0.48489,-0.37785 z" />
    <path
       id="path1174"
       style="color:#000000;font-style:normal;font-variant:normal;font-weight:normal;font-stretch:normal;font-size:medium;line-height:normal;font-family:sans-serif;font-variant-ligatures:normal;font-variant-position:normal;font-variant-caps:normal;font-variant-numeric:normal;font-variant-alternates:normal;font-variant-east-asian:normal;font-feature-settings:normal;font-variation-settings:normal;text-indent:0;text-align:start;text-decoration:none;text-decoration-line:none;text-decoration-style:solid;text-decoration-color:#000000;letter-spacing:normal;word-spacing:normal;text-transform:none;writing-mode:lr-tb;direction:ltr;text-orientation:mixed;dominant-baseline:auto;baseline-shift:baseline;text-anchor:start;white-space:normal;shape-padding:0;shape-margin:0;inline-size:0;clip-rule:nonzero;display:inline;overflow:visible;visibility:visible;opacity:1;isolation:auto;mix-blend-mode:normal;color-interpolation:sRGB;color-interpolation-filters:linearRGB;solid-color:#000000;solid-opacity:1;vector-effect:none;fill:#ffcc00;fill-opacity:1;fill-rule:nonzero;stroke:none;stroke-width:0.964999;stroke-linecap:round;stroke-linejoin:round;stroke-miterlimit:4;stroke-dasharray:none;stroke-dashoffset:0;stroke-opacity:1;color-rendering:auto;image-rendering:auto;shape-rendering:auto;text-rendering:auto;enable-background:accumulate;stop-color:#000000;stop-opacity:1"
       d="m 134.14563,116.02557 c -0.42431,0.013 -0.53336,0.50994 -0.42007,0.84402 0.17864,1.54017 0.53292,3.0647 1.11047,4.50553 -0.43099,0.14938 -0.71964,0.54137 -0.9805,0.89503 -0.48801,0.82948 0.25201,2.8637 0.77061,3.0854 0.7151,0.46205 1.70225,0.45385 2.38878,-0.0581 0.44413,-0.31711 0.72576,-0.8532 0.73991,-1.39658 -0.14363,-0.37387 -0.11383,-0.79169 -0.2648,-1.16348 -0.20431,-0.38708 -0.37875,-0.90098 -0.82034,-1.06153 -0.32801,-0.19461 -0.78811,-0.24534 -0.95774,-0.62413 -0.1512,-0.35176 -0.22603,-0.73117 -0.3775,-1.08303 -0.37556,-1.16746 -0.55648,-2.38554 -0.70175,-3.59983 -0.0582,-0.20822 -0.27196,-0.35699 -0.48707,-0.34328 z"
       sodipodi:nodetypes="scccccccccccss" />
    <g
       style="font-style:normal;font-variant:normal;font-weight:bold;font-stretch:normal;font-size:8.72756px;line-height:1.25;font-family:Arial;-inkscape-font-specification:'Arial, Bold';font-variant-ligatures:normal;font-variant-caps:normal;font-variant-numeric:normal;font-feature-settings:normal;text-align:start;letter-spacing:0px;word-spacing:0px;writing-mode:lr-tb;text-anchor:start;fill:#000080;fill-opacity:1;stroke:none;stroke-width:0.545472"
       id="text913"
       aria-label="A">
      <path
         id="path863"
         style="fill:#000080;stroke-width:0.545472"
         d="m 105.17982,136.97885 h -1.3722 l -0.54548,-1.41908 h -2.49724 l -0.51564,1.41908 h -1.338112 l 2.433322,-6.24736 h 1.33385 z m -2.32252,-2.47167 -0.86082,-2.31826 -0.84378,2.31826 z" />
    </g>
    <g
       style="font-style:normal;font-variant:normal;font-weight:bold;font-stretch:normal;font-size:8.72756px;line-height:1.25;font-family:Arial;-inkscape-font-specification:'Arial, Bold';font-variant-ligatures:normal;font-variant-caps:normal;font-variant-numeric:normal;font-feature-settings:normal;text-align:start;letter-spacing:0px;word-spacing:0px;writing-mode:lr-tb;text-anchor:start;fill:#aa0000;fill-opacity:1;stroke:none;stroke-width:0.545472"
       id="text917"
       aria-label="C">
      <path
         id="path866"
         style="fill:#aa0000;stroke-width:0.545472"
         d="m 114.95886,134.57536 1.22305,0.3878 q -0.28126,1.02276 -0.93753,1.52136 -0.65201,0.49433 -1.65772,0.49433 -1.24436,0 -2.04552,-0.84804 -0.80117,-0.8523 -0.80117,-2.32678 0,-1.55971 0.80543,-2.42053 0.80542,-0.86509 2.11796,-0.86509 1.14635,0 1.86228,0.67758 0.42615,0.40058 0.63923,1.15061 l -1.24862,0.2983 q -0.1108,-0.48581 -0.46451,-0.76707 -0.34944,-0.28126 -0.8523,-0.28126 -0.69462,0 -1.1293,0.4986 -0.43041,0.49859 -0.43041,1.61511 0,1.1847 0.42615,1.68755 0.42615,0.50286 1.10799,0.50286 0.50286,0 0.86509,-0.31961 0.36223,-0.31961 0.5199,-1.00572 z" />
    </g>
    <g
       style="font-style:normal;font-variant:normal;font-weight:bold;font-stretch:normal;font-size:8.72756px;line-height:1.25;font-family:Arial;-inkscape-font-specification:'Arial, Bold';font-variant-ligatures:normal;font-variant-caps:normal;font-variant-numeric:normal;font-feature-settings:normal;text-align:start;letter-spacing:0px;word-spacing:0px;writing-mode:lr-tb;text-anchor:start;fill:#44aa00;fill-opacity:1;stroke:none;stroke-width:0.545472"
       id="text921"
       aria-label="G">
      <path
         id="path869"
         style="fill:#44aa00;stroke-width:0.545472"
         d="m 125.50499,134.6819 v -1.05259 h 2.71884 v 2.48872 q -0.39632,0.38353 -1.15061,0.67758 -0.75003,0.28978 -1.52136,0.28978 -0.98014,0 -1.70886,-0.40911 -0.72872,-0.41336 -1.09521,-1.17617 -0.36649,-0.76707 -0.36649,-1.66625 0,-0.97588 0.40911,-1.73443 0.4091,-0.75855 1.19748,-1.16339 0.60087,-0.31109 1.49579,-0.31109 1.16339,0 1.8154,0.49007 0.65627,0.48581 0.84378,1.34664 l -1.25289,0.23438 q -0.1321,-0.46024 -0.49859,-0.72446 -0.36223,-0.26847 -0.9077,-0.26847 -0.82673,0 -1.31681,0.52416 -0.48581,0.52417 -0.48581,1.55545 0,1.11226 0.49434,1.67051 0.49433,0.554 1.29549,0.554 0.39632,0 0.79264,-0.15342 0.40059,-0.15767 0.68611,-0.37927 v -0.79264 z" />
    </g>
    <g
       style="font-style:normal;font-variant:normal;font-weight:bold;font-stretch:normal;font-size:8.72756px;line-height:1.25;font-family:Arial;-inkscape-font-specification:'Arial, Bold';font-variant-ligatures:normal;font-variant-caps:normal;font-variant-numeric:normal;font-feature-settings:normal;text-align:start;letter-spacing:0px;word-spacing:0px;writing-mode:lr-tb;text-anchor:start;fill:#ffcc00;fill-opacity:1;stroke:none;stroke-width:0.545472"
       id="text925"
       aria-label="T">
      <path
         id="path872"
         style="fill:#ffcc00;stroke-width:0.545472"
         d="m 134.30815,136.87231 v -5.19051 h -1.85375 v -1.05685 h 4.96465 v 1.05685 h -1.84949 v 5.19051 z" />
    </g>
  </g>
</svg>
