<?xml version="1.0" encoding="UTF-8" standalone="no"?>
<svg
   xmlns:dc="http://purl.org/dc/elements/1.1/"
   xmlns:cc="http://creativecommons.org/ns#"
   xmlns:rdf="http://www.w3.org/1999/02/22-rdf-syntax-ns#"
   xmlns:svg="http://www.w3.org/2000/svg"
   xmlns="http://www.w3.org/2000/svg"
   xmlns:sodipodi="http://sodipodi.sourceforge.net/DTD/sodipodi-0.dtd"
   xmlns:inkscape="http://www.inkscape.org/namespaces/inkscape"
   width="107.99795mm"
   height="60.001152mm"
   viewBox="0 0 107.99795 60.001152"
   version="1.1"
   id="svg538"
   inkscape:version="1.0 (4035a4fb49, 2020-05-01)"
   sodipodi:docname="2020-JP-04-taskbody5.svg">
  <defs
     id="defs532" />
  <sodipodi:namedview
     id="base"
     pagecolor="#ffffff"
     bordercolor="#666666"
     borderopacity="1.0"
     inkscape:pageopacity="0.0"
     inkscape:pageshadow="2"
     inkscape:zoom="0.35"
     inkscape:cx="467.8996"
     inkscape:cy="-175.99464"
     inkscape:document-units="mm"
     inkscape:current-layer="layer1"
     inkscape:document-rotation="0"
     showgrid="false"
     fit-margin-top="0"
     fit-margin-left="0"
     fit-margin-right="0"
     fit-margin-bottom="0"
     inkscape:window-width="1252"
     inkscape:window-height="855"
     inkscape:window-x="0"
     inkscape:window-y="23"
     inkscape:window-maximized="0" />
  <metadata
     id="metadata535">
    <rdf:RDF>
      <cc:Work
         rdf:about="">
        <dc:format>image/svg+xml</dc:format>
        <dc:type
           rdf:resource="http://purl.org/dc/dcmitype/StillImage" />
        <dc:title></dc:title>
      </cc:Work>
    </rdf:RDF>
  </metadata>
  <g
     inkscape:label="Layer 1"
     inkscape:groupmode="layer"
     id="layer1"
     transform="translate(17.964092,-194.73191)">
    <g
       id="g174"
       transform="matrix(0.24620174,0,0,0.24764124,-159.9447,-47.85889)">
      <path
         id="path176"
         d="M 706.5,1159.4 H 598.4 c -2.9,0 -5.3,-2.4 -5.3,-5.3 V 1046 c 0,-2.9 2.4,-5.3 5.3,-5.3 h 108.1 c 2.9,0 5.3,2.4 5.3,5.3 v 108.1 c -0.1,3 -2.4,5.3 -5.3,5.3 z"
         stroke-miterlimit="10"
         stroke-linejoin="round"
         stroke-linecap="round"
         stroke-width="4"
         stroke="#000000"
         fill="#ffffff" />
      <polygon
         transform="translate(-1.15,1.0499109)"
         id="polygon178"
         points="698.2,1089 675.9,1110.7 681.2,1141.4 653.6,1126.9 626.1,1141.4 631.3,1110.7 609,1089 639.8,1084.5 653.6,1056.6 667.4,1084.5 "
         stroke-miterlimit="10"
         stroke-linejoin="round"
         stroke-linecap="round"
         stroke-width="8.3507"
         stroke="#f39800"
         fill="#fff100" />
    </g>
    <path
       id="path180"
       d="M 84.927563,224.62077 H 58.313157 c -0.713985,0 -1.30487,-0.59434 -1.30487,-1.3125 v -26.77002 c 0,-0.71815 0.590885,-1.3125 1.30487,-1.3125 h 26.614406 c 0.713983,0 1.304867,0.59435 1.304867,1.3125 v 26.77002 c -0.02466,0.71816 -0.590884,1.3125 -1.304867,1.3125 z"
       stroke-miterlimit="10"
       stroke-linejoin="round"
       stroke-linecap="round"
       stroke-width="0.987679"
       stroke="#000000"
       fill="#ffffff" />
    <g
       id="g182"
       transform="matrix(0.24620174,0,0,0.24764124,-159.7778,-48.487673)">
      <path
         id="path184"
         d="m 939.7,1081 c 9.2,0.5 32,-19.5 40.1,-40.1 4.9,-12.5 4.6,-28.9 -14.3,-34.4 -12.9,-3.8 -23.2,11.1 -25.3,13.7 l -0.7,0.1 c -2,-2.6 -12.4,-17.5 -25.3,-13.7 -18.9,5.5 -19.1,21.9 -14.3,34.4 8.1,20.6 30.8,40.5 40.1,40.1 z"
         stroke-miterlimit="10"
         stroke-linejoin="round"
         stroke-linecap="round"
         stroke-width="5.2202"
         stroke="#c30d23"
         fill="#d574a5" />
    </g>
    <g
       id="g186"
       transform="matrix(0.24620174,0,0,0.24764124,-159.9447,-47.85889)">
      <ellipse
         id="ellipse188"
         ry="12.8"
         rx="66.599998"
         cy="1207.5"
         cx="796.29999"
         stroke-miterlimit="10"
         stroke-width="3.1929"
         stroke="#000000"
         fill="#898989" />
      <polygon
         id="polygon190"
         points="943.3,1121.7 652.8,1182.8 655.9,1197.8 946.4,1136.7 "
         stroke-miterlimit="10"
         stroke-width="2.9411"
         stroke="#000000"
         fill="#dcdddd" />
      <path
         id="path192"
         d="m 783.4,1206.5 h 26.8 v -58 c 0,0 -5.2,-9.9 -13.3,-9.9 -7.7,0 -13.5,9.9 -13.5,9.9 z"
         stroke-miterlimit="10"
         stroke-width="2.8791"
         stroke="#000000"
         fill="#b5b5b6" />
      <rect
         id="rect194"
         height="26.1"
         width="18.1"
         stroke-miterlimit="10"
         stroke-width="2.9875"
         stroke="#000000"
         fill="#b5b5b6"
         y="1112.9"
         x="930.20001" />
      <rect
         id="rect196"
         height="26.6"
         width="18.1"
         stroke-miterlimit="10"
         stroke-width="2.9875"
         stroke="#000000"
         fill="#b5b5b6"
         y="1171.7"
         x="644.79999" />
      <circle
         id="circle198"
         r="6.5"
         cy="1129.5"
         cx="939.20001"
         stroke-miterlimit="10"
         stroke-width="2.9875"
         stroke="#000000"
         fill="#898989" />
      <circle
         id="circle200"
         r="6.5"
         cy="1188.7"
         cx="654.20001"
         stroke-miterlimit="10"
         stroke-width="2.9875"
         stroke="#000000"
         fill="#898989" />
      <rect
         id="rect202"
         height="15.5"
         width="39.5"
         stroke-miterlimit="10"
         stroke-width="2.9875"
         stroke="#000000"
         fill="#f5ea5e"
         y="1098.3"
         x="919" />
      <rect
         id="rect204"
         height="15.5"
         width="39.5"
         stroke-miterlimit="10"
         stroke-width="2.9875"
         stroke="#000000"
         fill="#f5ea5e"
         y="1158.4"
         x="634.20001" />
      <polygon
         id="polygon206"
         points="578.2,1165.3 578.1,1153.7 727,1152.2 727.3,1163.8 "
         stroke-miterlimit="10"
         stroke-width="2.8079"
         stroke="#000000"
         fill="#f5ea5e" />
      <polygon
         id="polygon208"
         points="864.7,1105.7 864.7,1094 1013.6,1092.5 1013.9,1104.1 "
         stroke-miterlimit="10"
         stroke-width="2.8079"
         stroke="#000000"
         fill="#f5ea5e" />
      <circle
         id="circle210"
         r="6.9000001"
         cy="1157.9"
         cx="797.09998"
         stroke-miterlimit="10"
         stroke-width="3.1929"
         stroke="#000000"
         fill="#898989" />
    </g>
  </g>
</svg>
