<?xml version="1.0" encoding="UTF-8" standalone="no"?>
<!-- Created with Inkscape (http://www.inkscape.org/) -->

<svg
   xmlns:dc="http://purl.org/dc/elements/1.1/"
   xmlns:cc="http://creativecommons.org/ns#"
   xmlns:rdf="http://www.w3.org/1999/02/22-rdf-syntax-ns#"
   xmlns:svg="http://www.w3.org/2000/svg"
   xmlns="http://www.w3.org/2000/svg"
   xmlns:sodipodi="http://sodipodi.sourceforge.net/DTD/sodipodi-0.dtd"
   xmlns:inkscape="http://www.inkscape.org/namespaces/inkscape"
   width="350mm"
   height="28mm"
   viewBox="0 0 350 28"
   version="1.1"
   id="svg988"
   inkscape:version="0.92.2 (5c3e80d, 2017-08-06)"
   sodipodi:docname="2020-CH-02a_question-compatible.svg">
  <defs
     id="defs982" />
  <sodipodi:namedview
     id="base"
     pagecolor="#ffffff"
     bordercolor="#666666"
     borderopacity="1.0"
     inkscape:pageopacity="0.0"
     inkscape:pageshadow="2"
     inkscape:zoom="0.7"
     inkscape:cx="619.24297"
     inkscape:cy="-295.54996"
     inkscape:document-units="mm"
     inkscape:current-layer="g2506"
     showgrid="false"
     fit-margin-top="0"
     fit-margin-left="0"
     fit-margin-right="0"
     fit-margin-bottom="0"
     inkscape:window-width="1680"
     inkscape:window-height="987"
     inkscape:window-x="-8"
     inkscape:window-y="222"
     inkscape:window-maximized="1" />
  <metadata
     id="metadata985">
    <rdf:RDF>
      <cc:Work
         rdf:about="">
        <dc:format>image/svg+xml</dc:format>
        <dc:type
           rdf:resource="http://purl.org/dc/dcmitype/StillImage" />
        <dc:title />
      </cc:Work>
    </rdf:RDF>
  </metadata>
  <g
     inkscape:label="Ebene 1"
     inkscape:groupmode="layer"
     id="layer1"
     transform="translate(11.007099,54.060702)">
    <g
       id="g2506">
      <g
         transform="matrix(0.9998735,0,0,1.165486,180.36768,-8.8807606)"
         id="g3021">
        <rect
           style="opacity:1;vector-effect:none;fill:#000000;fill-opacity:1;stroke:none;stroke-width:0.57459414;stroke-linecap:round;stroke-linejoin:round;stroke-miterlimit:4;stroke-dasharray:none;stroke-dashoffset:0;stroke-opacity:1;paint-order:markers fill stroke"
           id="rect2170-8-8-3"
           width="350.04428"
           height="24.024313"
           x="-191.39899"
           y="-38.764893"
           ry="5.2331142" />
      </g>
      <path
         style="color:#000000;font-style:normal;font-variant:normal;font-weight:normal;font-stretch:normal;font-size:medium;line-height:normal;font-family:sans-serif;font-variant-ligatures:normal;font-variant-position:normal;font-variant-caps:normal;font-variant-numeric:normal;font-variant-alternates:normal;font-feature-settings:normal;text-indent:0;text-align:start;text-decoration:none;text-decoration-line:none;text-decoration-style:solid;text-decoration-color:#000000;letter-spacing:normal;word-spacing:normal;text-transform:none;writing-mode:lr-tb;direction:ltr;text-orientation:mixed;dominant-baseline:auto;baseline-shift:baseline;text-anchor:start;white-space:normal;shape-padding:0;clip-rule:nonzero;display:inline;overflow:visible;visibility:visible;opacity:1;isolation:auto;mix-blend-mode:normal;color-interpolation:sRGB;color-interpolation-filters:linearRGB;solid-color:#000000;solid-opacity:1;vector-effect:none;fill:#ffffff;fill-opacity:1;fill-rule:nonzero;stroke:none;stroke-width:3.7726326;stroke-linecap:round;stroke-linejoin:round;stroke-miterlimit:4;stroke-dasharray:none;stroke-dashoffset:0;stroke-opacity:1;paint-order:markers fill stroke;color-rendering:auto;image-rendering:auto;shape-rendering:auto;text-rendering:auto;enable-background:accumulate"
         d="M 33.748047 22.191406 A 1.8865049 1.8865049 0 0 0 31.894531 24.101562 L 31.894531 31.123047 L 31.894531 52.462891 L 20.740234 52.462891 A 1.8865049 1.8865049 0 0 0 18.857422 54.537109 C 20.298988 68.911726 25.964843 76.93452 32.056641 81.208984 A 1.8865049 1.8865049 0 0 0 32.078125 81.222656 C 40.10405 86.667806 50.495997 88.215402 60.742188 82.722656 A 1.8865049 1.8865049 0 0 0 60.757812 82.714844 C 68.204784 78.635857 75.979396 70.096459 75.779297 54.324219 A 1.8865049 1.8865049 0 0 0 73.890625 52.462891 L 60.779297 52.462891 L 60.779297 33.005859 L 60.779297 25.984375 A 1.8865049 1.8865049 0 0 0 58.867188 24.072266 A 1.8865049 1.8865049 0 0 0 57.007812 25.984375 L 57.007812 33.005859 L 57.007812 52.462891 L 35.666016 52.462891 L 35.666016 31.123047 L 35.666016 24.101562 A 1.8865049 1.8865049 0 0 0 33.748047 22.191406 z M 23.191406 56.236328 L 57.945312 56.236328 A 1.8865049 1.8865049 0 0 0 59.841797 56.236328 L 71.800781 56.236328 C 71.353159 69.382028 65.159257 76.002452 58.941406 79.408203 C 49.872073 84.263237 41.290989 82.911421 34.212891 78.115234 C 29.354672 74.703496 24.90057 68.066223 23.191406 56.236328 z "
         transform="matrix(0.26458333,0,0,0.26458333,-11.007099,-54.060702)"
         id="rect2644-4-9-3" />
      <path
         style="color:#000000;font-style:normal;font-variant:normal;font-weight:normal;font-stretch:normal;font-size:medium;line-height:normal;font-family:sans-serif;font-variant-ligatures:normal;font-variant-position:normal;font-variant-caps:normal;font-variant-numeric:normal;font-variant-alternates:normal;font-feature-settings:normal;text-indent:0;text-align:start;text-decoration:none;text-decoration-line:none;text-decoration-style:solid;text-decoration-color:#000000;letter-spacing:normal;word-spacing:normal;text-transform:none;writing-mode:lr-tb;direction:ltr;text-orientation:mixed;dominant-baseline:auto;baseline-shift:baseline;text-anchor:start;white-space:normal;shape-padding:0;clip-rule:nonzero;display:inline;overflow:visible;visibility:visible;opacity:1;isolation:auto;mix-blend-mode:normal;color-interpolation:sRGB;color-interpolation-filters:linearRGB;solid-color:#000000;solid-opacity:1;vector-effect:none;fill:#ffffff;fill-opacity:1;fill-rule:nonzero;stroke:none;stroke-width:0.99817568;stroke-linecap:round;stroke-linejoin:round;stroke-miterlimit:4;stroke-dasharray:none;stroke-dashoffset:0;stroke-opacity:1;paint-order:markers fill stroke;color-rendering:auto;image-rendering:auto;shape-rendering:auto;text-rendering:auto;enable-background:accumulate"
         d="m 22.041133,-50.71672 a 0.49913775,0.49913775 0 0 0 -0.492477,0.505912 c 0,0.384349 -0.03995,1.509996 -0.06046,2.623096 -0.01009,0.547708 -0.01505,1.094637 -0.0078,1.565279 -0.319831,-0.450819 -0.654198,-0.815536 -0.976683,-1.151351 -0.463788,-0.482954 -0.900266,-0.920192 -1.318268,-1.566313 a 0.52101554,0.52101554 0 0 0 -0.435631,-0.244429 0.52101554,0.52101554 0 0 0 -0.439251,0.810803 c 0.48179,0.744719 0.987676,1.248499 1.441257,1.720825 0.45358,0.472326 0.857231,0.911135 1.226799,1.579749 0.03189,0.06155 0.05834,0.120859 0.08216,0.178284 l -6.635252,4.604886 a 0.49913775,0.49913775 0 0 0 0.05374,0.850078 c 0.442608,3.555862 1.88768,5.574635 3.442684,6.665742 a 0.49913775,0.49913775 0 0 0 0.0057,0.0036 c 2.123527,1.440703 4.873072,1.850161 7.584033,0.396875 a 0.49913775,0.49913775 0 0 0 0.0041,-0.0021 c 1.963317,-1.075381 4.011174,-3.323703 3.973402,-7.468278 a 0.49913775,0.49913775 0 0 0 5.18e-4,-0.01757 0.49913775,0.49913775 0 0 0 -0.0026,-0.07596 0.49913775,0.49913775 0 0 0 -0.0083,-0.04909 0.49913775,0.49913775 0 0 0 -0.01292,-0.04806 0.49913775,0.49913775 0 0 0 -0.04031,-0.09147 0.49913775,0.49913775 0 0 0 -0.02635,-0.04186 0.49913775,0.49913775 0 0 0 -0.06563,-0.07545 0.49913775,0.49913775 0 0 0 -0.03514,-0.03101 l -6.173783,-4.823478 c 0.01612,-0.03602 0.02976,-0.0707 0.04909,-0.108004 l 0.0036,-0.0057 c 7.2e-4,-0.0014 0.0013,-0.0027 0.0021,-0.0041 0.761672,-1.373797 1.445318,-1.847248 2.379181,-3.290755 a 0.52101554,0.52101554 0 0 0 -0.455269,-0.808737 0.52101554,0.52101554 0 0 0 -0.420129,0.24443 c -0.786582,1.215851 -1.452046,1.752854 -2.199865,2.987931 -0.0012,-0.0473 -0.0044,-0.0815 -0.0052,-0.130741 -0.0075,-0.455396 -0.0023,-1.004507 0.0077,-1.554944 0.02028,-1.100875 0.06098,-2.192774 0.06098,-2.642216 a 0.49913775,0.49913775 0 0 0 -0.505912,-0.505912 z m 0.218591,6.406327 5.281332,4.130497 h -11.23859 z m -6.683828,5.128886 h 12.863296 c -0.11838,3.478259 -1.758757,5.229771 -3.403926,6.130892 -2.397995,1.283707 -4.667102,0.926918 -6.539134,-0.340031 l -0.0021,-0.0021 c -1.285404,-0.902688 -2.465957,-2.6588 -2.918167,-5.788794 z"
         id="rect2644-4-2-9"
         inkscape:connector-curvature="0" />
      <path
         style="color:#000000;font-style:normal;font-variant:normal;font-weight:normal;font-stretch:normal;font-size:medium;line-height:normal;font-family:sans-serif;font-variant-ligatures:normal;font-variant-position:normal;font-variant-caps:normal;font-variant-numeric:normal;font-variant-alternates:normal;font-feature-settings:normal;text-indent:0;text-align:start;text-decoration:none;text-decoration-line:none;text-decoration-style:solid;text-decoration-color:#000000;letter-spacing:normal;word-spacing:normal;text-transform:none;writing-mode:lr-tb;direction:ltr;text-orientation:mixed;dominant-baseline:auto;baseline-shift:baseline;text-anchor:start;white-space:normal;shape-padding:0;clip-rule:nonzero;display:inline;overflow:visible;visibility:visible;opacity:1;isolation:auto;mix-blend-mode:normal;color-interpolation:sRGB;color-interpolation-filters:linearRGB;solid-color:#000000;solid-opacity:1;vector-effect:none;fill:#ffffff;fill-opacity:1;fill-rule:nonzero;stroke:none;stroke-width:0.99817568;stroke-linecap:round;stroke-linejoin:round;stroke-miterlimit:4;stroke-dasharray:none;stroke-dashoffset:0;stroke-opacity:1;paint-order:markers fill stroke;color-rendering:auto;image-rendering:auto;shape-rendering:auto;text-rendering:auto;enable-background:accumulate"
         d="m 45.549686,-48.085873 a 0.52101554,0.52101554 0 0 0 -0.419613,0.243913 c -0.863108,1.33414 -1.57956,1.843063 -2.420006,3.363619 a 0.52101554,0.52101554 0 0 0 -0.0057,0.0098 c -0.0118,0.02257 -0.02199,0.04955 -0.03359,0.07286 a 0.49913775,0.49913775 0 0 0 -0.232026,0.08527 l -0.06408,0.04444 c -0.01111,-0.02228 -0.02075,-0.04817 -0.03204,-0.06976 a 0.52101554,0.52101554 0 0 0 -0.0057,-0.0098 c -0.432792,-0.783006 -0.922692,-1.315903 -1.386477,-1.798856 -0.463788,-0.482954 -0.898713,-0.918642 -1.316715,-1.564763 a 0.52101554,0.52101554 0 0 0 -0.437184,-0.243913 0.52101554,0.52101554 0 0 0 -0.437698,0.810287 c 0.481788,0.744719 0.986123,1.248499 1.439704,1.720825 0.453231,0.471962 0.856951,0.910454 1.226283,1.578198 2.83e-4,5.15e-4 -2.86e-4,0.0015 0,0.0021 0.03173,0.06132 0.05881,0.120098 0.08268,0.177251 l -6.635255,4.603853 a 0.49913775,0.49913775 0 0 0 -0.122989,0.694531 v 6.602181 a 0.49913775,0.49913775 0 0 0 0.497644,0.498161 h 14.064774 a 0.49913775,0.49913775 0 0 0 0.49816,-0.498161 v -6.555672 a 0.49913775,0.49913775 0 0 0 -0.0646,-0.725537 l -6.172231,-4.823995 c 0.0165,-0.03516 0.03023,-0.06896 0.04909,-0.10542 l 0.0021,-0.0021 c 0.763632,-1.380558 1.444887,-1.852453 2.380731,-3.299024 a 0.52101554,0.52101554 0 0 0 -0.455269,-0.810286 z m -2.845305,4.806425 5.282883,4.128947 H 36.752807 Z m -6.957197,5.25601 h 13.06432 v 5.759855 h -13.06432 z"
         id="rect2644-6-8-4"
         inkscape:connector-curvature="0" />
      <path
         style="color:#000000;font-style:normal;font-variant:normal;font-weight:normal;font-stretch:normal;font-size:medium;line-height:normal;font-family:sans-serif;font-variant-ligatures:normal;font-variant-position:normal;font-variant-caps:normal;font-variant-numeric:normal;font-variant-alternates:normal;font-feature-settings:normal;text-indent:0;text-align:start;text-decoration:none;text-decoration-line:none;text-decoration-style:solid;text-decoration-color:#000000;letter-spacing:normal;word-spacing:normal;text-transform:none;writing-mode:lr-tb;direction:ltr;text-orientation:mixed;dominant-baseline:auto;baseline-shift:baseline;text-anchor:start;white-space:normal;shape-padding:0;clip-rule:nonzero;display:inline;overflow:visible;visibility:visible;opacity:1;isolation:auto;mix-blend-mode:normal;color-interpolation:sRGB;color-interpolation-filters:linearRGB;solid-color:#000000;solid-opacity:1;vector-effect:none;fill:#ffffff;fill-opacity:1;fill-rule:nonzero;stroke:none;stroke-width:0.99817568;stroke-linecap:round;stroke-linejoin:round;stroke-miterlimit:4;stroke-dasharray:none;stroke-dashoffset:0;stroke-opacity:1;paint-order:markers fill stroke;color-rendering:auto;image-rendering:auto;shape-rendering:auto;text-rendering:auto;enable-background:accumulate"
         d="m 62.629074,-45.265373 a 0.49913775,0.49913775 0 0 0 -0.49196,0.505395 c 0,0.384349 -0.03995,1.509996 -0.06046,2.623096 -0.01025,0.55655 -0.01558,1.114428 -0.0078,1.590084 0.002,0.119975 0.0071,0.214811 0.01034,0.321944 H 55.60362 a 0.49913775,0.49913775 0 0 0 -0.497644,0.500228 v 7.960754 a 0.49913775,0.49913775 0 0 0 0.497644,0.498161 h 14.064776 a 0.49913775,0.49913775 0 0 0 0.499711,-0.498161 v -7.960754 a 0.49913775,0.49913775 0 0 0 -0.499711,-0.500228 H 63.07965 c -0.0047,-0.112235 -0.01082,-0.211873 -0.01292,-0.339514 -0.0075,-0.455396 -0.0023,-1.002439 0.0078,-1.552877 0.02028,-1.100874 0.06046,-2.193291 0.06046,-2.642733 a 0.49913775,0.49913775 0 0 0 -0.505913,-0.505395 z m -6.525183,6.038907 h 6.033223 v 6.962883 h -6.033223 z m 7.031096,0 h 6.035289 v 6.962883 h -6.035289 z"
         id="rect2644-7-9-4-4"
         inkscape:connector-curvature="0" />
      <path
         style="color:#000000;font-style:normal;font-variant:normal;font-weight:normal;font-stretch:normal;font-size:medium;line-height:normal;font-family:sans-serif;font-variant-ligatures:normal;font-variant-position:normal;font-variant-caps:normal;font-variant-numeric:normal;font-variant-alternates:normal;font-feature-settings:normal;text-indent:0;text-align:start;text-decoration:none;text-decoration-line:none;text-decoration-style:solid;text-decoration-color:#000000;letter-spacing:normal;word-spacing:normal;text-transform:none;writing-mode:lr-tb;direction:ltr;text-orientation:mixed;dominant-baseline:auto;baseline-shift:baseline;text-anchor:start;white-space:normal;shape-padding:0;clip-rule:nonzero;display:inline;overflow:visible;visibility:visible;opacity:1;isolation:auto;mix-blend-mode:normal;color-interpolation:sRGB;color-interpolation-filters:linearRGB;solid-color:#000000;solid-opacity:1;vector-effect:none;fill:#ffffff;fill-opacity:1;fill-rule:nonzero;stroke:none;stroke-width:0.99817568;stroke-linecap:round;stroke-linejoin:round;stroke-miterlimit:4;stroke-dasharray:none;stroke-dashoffset:0;stroke-opacity:1;paint-order:markers fill stroke;color-rendering:auto;image-rendering:auto;shape-rendering:auto;text-rendering:auto;enable-background:accumulate"
         d="m 82.865514,-47.619235 a 0.49913775,0.49913775 0 0 0 -0.366903,0.15658 l -6.957714,7.336503 a 0.49913775,0.49913775 0 0 0 -0.197405,0.333829 0.49913775,0.49913775 0 0 0 -0.0041,0.03721 0.49913775,0.49913775 0 0 0 -0.001,0.07442 v 7.916829 a 0.49913775,0.49913775 0 0 0 0.499711,0.498161 H 89.90081 a 0.49913775,0.49913775 0 0 0 0.500229,-0.498161 v -7.960754 a 0.49913775,0.49913775 0 0 0 -0.250632,-0.433049 l -6.927225,-7.30498 a 0.49913775,0.49913775 0 0 0 -0.3576,-0.15658 z m -0.0057,1.224732 5.849771,6.169649 H 77.011608 Z m -6.523632,7.181473 h 6.035288 v 6.949447 h -6.035288 z m 7.033162,0 h 6.033222 v 6.949447 H 83.36936 Z"
         id="rect2644-7-9-4-0"
         inkscape:connector-curvature="0" />
      <path
         style="color:#000000;font-style:normal;font-variant:normal;font-weight:normal;font-stretch:normal;font-size:medium;line-height:normal;font-family:sans-serif;font-variant-ligatures:normal;font-variant-position:normal;font-variant-caps:normal;font-variant-numeric:normal;font-variant-alternates:normal;font-feature-settings:normal;text-indent:0;text-align:start;text-decoration:none;text-decoration-line:none;text-decoration-style:solid;text-decoration-color:#000000;letter-spacing:normal;word-spacing:normal;text-transform:none;writing-mode:lr-tb;direction:ltr;text-orientation:mixed;dominant-baseline:auto;baseline-shift:baseline;text-anchor:start;white-space:normal;shape-padding:0;clip-rule:nonzero;display:inline;overflow:visible;visibility:visible;opacity:1;isolation:auto;mix-blend-mode:normal;color-interpolation:sRGB;color-interpolation-filters:linearRGB;solid-color:#000000;solid-opacity:1;vector-effect:none;fill:#ffffff;fill-opacity:1;fill-rule:nonzero;stroke:none;stroke-width:0.99817568;stroke-linecap:round;stroke-linejoin:round;stroke-miterlimit:4;stroke-dasharray:none;stroke-dashoffset:0;stroke-opacity:1;paint-order:markers fill stroke;color-rendering:auto;image-rendering:auto;shape-rendering:auto;text-rendering:auto;enable-background:accumulate"
         d="m 106.46238,-49.115268 a 0.52101554,0.52101554 0 0 0 -0.41961,0.24443 c -0.86311,1.33414 -1.58162,1.840478 -2.42207,3.361035 a 0.52101554,0.52101554 0 0 0 -0.006,0.01189 c -0.0119,0.02271 -0.0219,0.04991 -0.0336,0.07338 a 0.49913775,0.49913775 0 0 0 -0.23151,0.08475 l -0.0625,0.04341 c -0.0109,-0.02193 -0.0204,-0.04746 -0.0315,-0.06873 a 0.52101554,0.52101554 0 0 0 -0.006,-0.01189 c -0.4328,-0.783006 -0.92321,-1.313835 -1.387,-1.796789 -0.46379,-0.482954 -0.90026,-0.920192 -1.31826,-1.566313 a 0.52101554,0.52101554 0 0 0 -0.43563,-0.244429 0.52101554,0.52101554 0 0 0 -0.439255,0.810803 c 0.481795,0.744719 0.987665,1.248499 1.441255,1.720825 0.45358,0.472326 0.85723,0.911135 1.2268,1.579749 0.0321,0.06194 0.0577,0.121565 0.0811,0.179317 l -6.635768,4.603853 a 0.49913775,0.49913775 0 0 0 0.05323,0.850078 c 0.442733,3.555861 1.889744,5.574635 3.444751,6.665742 a 0.49913775,0.49913775 0 0 0 0.0062,0.0036 c 2.123517,1.440704 4.872557,1.850161 7.583517,0.396875 a 0.49913775,0.49913775 0 0 0 0.004,-0.0021 c 1.96331,-1.075381 4.01169,-3.323703 3.97392,-7.468278 a 0.49913775,0.49913775 0 0 0 0.001,-0.04341 0.49913775,0.49913775 0 0 0 0,-0.0016 0.49913775,0.49913775 0 0 0 -0.004,-0.04857 0.49913775,0.49913775 0 0 0 -0.008,-0.04909 0.49913775,0.49913775 0 0 0 -0.0134,-0.04806 0.49913775,0.49913775 0 0 0 -0.0176,-0.04651 0.49913775,0.49913775 0 0 0 -0.0171,-0.03462 0.49913775,0.49913775 0 0 0 -0.005,-0.01033 0.49913775,0.49913775 0 0 0 -0.003,-0.0052 0.49913775,0.49913775 0 0 0 -0.0238,-0.03669 0.49913775,0.49913775 0 0 0 -0.0305,-0.03928 0.49913775,0.49913775 0 0 0 -0.0346,-0.03617 0.49913775,0.49913775 0 0 0 -0.0351,-0.03101 l -6.1743,-4.823478 c 0.0161,-0.03602 0.0298,-0.0707 0.0491,-0.108004 l 0.004,-0.0057 c 7.1e-4,-0.0014 10e-4,-0.0027 0.002,-0.0041 0.76167,-1.373797 1.44531,-1.847248 2.37918,-3.290755 a 0.52101554,0.52101554 0 0 0 -0.45527,-0.808737 z m -2.84375,4.804875 5.28133,4.130497 H 97.661886 Z m -6.683313,5.128886 h 12.861233 c -0.11843,3.478135 -1.75724,5.229786 -3.40238,6.130892 -2.39959,1.284558 -4.67,0.926899 -6.542754,-0.342098 -1.285398,-0.902687 -2.463889,-2.658802 -2.916099,-5.788794 z"
         id="rect2644-4-2-7"
         inkscape:connector-curvature="0" />
      <g
         id="g1905"
         transform="translate(13.034138,0.00583712)">
        <path
           style="color:#000000;font-style:normal;font-variant:normal;font-weight:normal;font-stretch:normal;font-size:medium;line-height:normal;font-family:sans-serif;font-variant-ligatures:normal;font-variant-position:normal;font-variant-caps:normal;font-variant-numeric:normal;font-variant-alternates:normal;font-feature-settings:normal;text-indent:0;text-align:start;text-decoration:none;text-decoration-line:none;text-decoration-style:solid;text-decoration-color:#000000;letter-spacing:normal;word-spacing:normal;text-transform:none;writing-mode:lr-tb;direction:ltr;text-orientation:mixed;dominant-baseline:auto;baseline-shift:baseline;text-anchor:start;white-space:normal;shape-padding:0;clip-rule:nonzero;display:inline;overflow:visible;visibility:visible;opacity:1;isolation:auto;mix-blend-mode:normal;color-interpolation:sRGB;color-interpolation-filters:linearRGB;solid-color:#000000;solid-opacity:1;vector-effect:none;fill:#ffffff;fill-opacity:1;fill-rule:nonzero;stroke:none;stroke-width:3.7726326;stroke-linecap:round;stroke-linejoin:round;stroke-miterlimit:4;stroke-dasharray:none;stroke-dashoffset:0;stroke-opacity:1;paint-order:markers fill stroke;color-rendering:auto;image-rendering:auto;shape-rendering:auto;text-rendering:auto;enable-background:accumulate"
           d="m 551.84961,18.521484 a 1.9691926,1.9691926 0 0 0 -1.59375,0.923828 c -3.26215,5.042419 -5.96998,6.963951 -9.14648,12.710938 a 1.9691926,1.9691926 0 0 0 -0.0234,0.03711 c -0.0447,0.08535 -0.0831,0.187211 -0.12696,0.275391 a 1.8865049,1.8865049 0 0 0 -0.875,0.322266 l -0.24023,0.166015 c -0.0423,-0.08369 -0.0806,-0.18057 -0.12305,-0.261719 a 1.9691926,1.9691926 0 0 0 -0.0215,-0.03711 c -1.63578,-2.959396 -3.48928,-4.973494 -5.24219,-6.798828 -1.75291,-1.825338 -3.39477,-3.470077 -4.97461,-5.912109 a 1.9691926,1.9691926 0 0 0 -1.64648,-0.923828 1.9691926,1.9691926 0 0 0 -1.66016,3.064453 c 1.82094,2.814686 3.73295,4.71678 5.44727,6.501953 1.71299,1.783793 3.23301,3.441087 4.6289,5.964844 0.001,0.002 -0.001,0.0055 0,0.0078 0.11987,0.231758 0.22224,0.453913 0.3125,0.669922 l -25.07812,17.40039 a 1.8865049,1.8865049 0 0 0 0.0137,3.101563 v 28.537109 a 1.8865049,1.8865049 0 0 0 1.88281,1.882813 h 53.15625 a 1.8865049,1.8865049 0 0 0 1.88282,-1.882813 v -30.08789 a 1.8865049,1.8865049 0 0 0 -0.008,-0.1875 1.8865049,1.8865049 0 0 0 -0.002,-0.0098 1.8865049,1.8865049 0 0 0 -0.0723,-0.361328 1.8865049,1.8865049 0 0 0 -0.004,-0.01367 1.8865049,1.8865049 0 0 0 -0.0606,-0.162109 1.8865049,1.8865049 0 0 0 -0.004,-0.0098 1.8865049,1.8865049 0 0 0 -0.29101,-0.472656 1.8865049,1.8865049 0 0 0 -0.004,-0.0039 1.8865049,1.8865049 0 0 0 -0.27734,-0.269532 L 544.36914,34.458984 c 0.0624,-0.133016 0.11617,-0.260512 0.1875,-0.398437 l 0.008,-0.0078 c 2.88616,-5.217857 5.46098,-6.999442 8.99805,-12.466796 a 1.9691926,1.9691926 0 0 0 -1.71289,-3.064454 z m -10.76172,18.167969 19.97461,15.603516 h -42.46875 z m -25.81445,19.376953 h 22.80273 v 26.316406 h -22.80273 z m 26.57422,0 h 22.80273 v 26.316406 h -22.80273 z"
           transform="matrix(0.26458333,0,0,0.26458333,-11.902865,-54.066539)"
           id="rect2644-7-9-4-2"
           inkscape:connector-curvature="0" />
      </g>
      <path
         style="color:#000000;font-style:normal;font-variant:normal;font-weight:normal;font-stretch:normal;font-size:medium;line-height:normal;font-family:sans-serif;font-variant-ligatures:normal;font-variant-position:normal;font-variant-caps:normal;font-variant-numeric:normal;font-variant-alternates:normal;font-feature-settings:normal;text-indent:0;text-align:start;text-decoration:none;text-decoration-line:none;text-decoration-style:solid;text-decoration-color:#000000;letter-spacing:normal;word-spacing:normal;text-transform:none;writing-mode:lr-tb;direction:ltr;text-orientation:mixed;dominant-baseline:auto;baseline-shift:baseline;text-anchor:start;white-space:normal;shape-padding:0;clip-rule:nonzero;display:inline;overflow:visible;visibility:visible;opacity:1;isolation:auto;mix-blend-mode:normal;color-interpolation:sRGB;color-interpolation-filters:linearRGB;solid-color:#000000;solid-opacity:1;vector-effect:none;fill:#ffffff;fill-opacity:1;fill-rule:nonzero;stroke:none;stroke-width:0.99817568;stroke-linecap:round;stroke-linejoin:round;stroke-miterlimit:4;stroke-dasharray:none;stroke-dashoffset:0;stroke-opacity:1;paint-order:markers fill stroke;color-rendering:auto;image-rendering:auto;shape-rendering:auto;text-rendering:auto;enable-background:accumulate"
         d="m 160.63727,-48.189226 a 0.49913775,0.49913775 0 0 0 -0.49196,0.505396 v 1.857767 5.646167 h -2.95124 a 0.49913775,0.49913775 0 0 0 -0.49609,0.548804 c 0.38142,3.803284 1.87844,5.925981 3.49023,7.056933 a 0.49913775,0.49913775 0 0 0 0.008,0.0036 c 2.12353,1.440696 4.87099,1.850164 7.58196,0.396875 a 0.49913775,0.49913775 0 0 0 0.004,-0.0021 c 1.97034,-1.079232 4.02737,-3.338614 3.97443,-7.511686 a 0.49913775,0.49913775 0 0 0 -0.49764,-0.492477 h -3.46904 v -5.148006 -1.857768 a 0.49913775,0.49913775 0 0 0 -0.50798,-0.505912 0.49913775,0.49913775 0 0 0 -0.49041,0.505912 v 1.857768 5.148006 h -5.64823 v -5.646167 -1.857767 a 0.49913775,0.49913775 0 0 0 -0.50592,-0.505396 z m -2.79311,9.007719 h 9.19582 a 0.49913775,0.49913775 0 0 0 0.50178,0 h 3.16363 c -0.11838,3.478258 -1.7572,5.229771 -3.40237,6.130892 -2.39959,1.284561 -4.67001,0.926892 -6.54276,-0.342098 -1.28539,-0.902681 -2.46388,-2.658854 -2.9161,-5.788794 z"
         id="rect2644-4-9-3-0"
         inkscape:connector-curvature="0" />
      <path
         style="color:#000000;font-style:normal;font-variant:normal;font-weight:normal;font-stretch:normal;font-size:medium;line-height:normal;font-family:sans-serif;font-variant-ligatures:normal;font-variant-position:normal;font-variant-caps:normal;font-variant-numeric:normal;font-variant-alternates:normal;font-feature-settings:normal;text-indent:0;text-align:start;text-decoration:none;text-decoration-line:none;text-decoration-style:solid;text-decoration-color:#000000;letter-spacing:normal;word-spacing:normal;text-transform:none;writing-mode:lr-tb;direction:ltr;text-orientation:mixed;dominant-baseline:auto;baseline-shift:baseline;text-anchor:start;white-space:normal;shape-padding:0;clip-rule:nonzero;display:inline;overflow:visible;visibility:visible;opacity:1;isolation:auto;mix-blend-mode:normal;color-interpolation:sRGB;color-interpolation-filters:linearRGB;solid-color:#000000;solid-opacity:1;vector-effect:none;fill:#ffffff;fill-opacity:1;fill-rule:nonzero;stroke:none;stroke-width:0.99817568;stroke-linecap:round;stroke-linejoin:round;stroke-miterlimit:4;stroke-dasharray:none;stroke-dashoffset:0;stroke-opacity:1;paint-order:markers fill stroke;color-rendering:auto;image-rendering:auto;shape-rendering:auto;text-rendering:auto;enable-background:accumulate"
         d="m 177.54015,-47.177918 a 0.49913775,0.49913775 0 0 0 -0.50385,0.543119 c 0.18506,2.46852 0.13461,5.047782 0.33641,7.61659 a 0.49913775,0.49913775 0 0 0 -0.44596,0.49661 v 6.757727 a 0.49913775,0.49913775 0 0 0 0.49816,0.498161 h 14.06426 a 0.49913775,0.49913775 0 0 0 0.49816,-0.498161 v -6.757727 -5.705078 -1.857251 a 0.49913775,0.49913775 0 0 0 -0.50592,-0.507979 0.49913775,0.49913775 0 0 0 -0.49247,0.507979 v 1.857251 5.205367 h -5.64617 v -5.703528 -1.857251 a 0.49913775,0.49913775 0 0 0 -0.50798,-0.505912 0.49913775,0.49913775 0 0 0 -0.48989,0.505912 v 1.857251 5.703528 h -5.97225 c -0.20226,-2.525659 -0.14869,-5.128592 -0.34054,-7.687903 a 0.49913775,0.49913775 0 0 0 -0.49196,-0.468705 z m 0.81597,9.15448 h 12.63282 v 5.759855 h -13.06432 v -5.527311 a 0.49913775,0.49913775 0 0 0 0.4315,-0.232544 z"
         id="path2701-5-6"
         inkscape:connector-curvature="0" />
      <path
         style="color:#000000;font-style:normal;font-variant:normal;font-weight:normal;font-stretch:normal;font-size:medium;line-height:normal;font-family:sans-serif;font-variant-ligatures:normal;font-variant-position:normal;font-variant-caps:normal;font-variant-numeric:normal;font-variant-alternates:normal;font-feature-settings:normal;text-indent:0;text-align:start;text-decoration:none;text-decoration-line:none;text-decoration-style:solid;text-decoration-color:#000000;letter-spacing:normal;word-spacing:normal;text-transform:none;writing-mode:lr-tb;direction:ltr;text-orientation:mixed;dominant-baseline:auto;baseline-shift:baseline;text-anchor:start;white-space:normal;shape-padding:0;clip-rule:nonzero;display:inline;overflow:visible;visibility:visible;opacity:1;isolation:auto;mix-blend-mode:normal;color-interpolation:sRGB;color-interpolation-filters:linearRGB;solid-color:#000000;solid-opacity:1;vector-effect:none;fill:#ffffff;fill-opacity:1;fill-rule:nonzero;stroke:none;stroke-width:0.99817568;stroke-linecap:round;stroke-linejoin:round;stroke-miterlimit:4;stroke-dasharray:none;stroke-dashoffset:0;stroke-opacity:1;paint-order:markers fill stroke;color-rendering:auto;image-rendering:auto;shape-rendering:auto;text-rendering:auto;enable-background:accumulate"
         d="m 204.98447,-49.224821 a 0.49913775,0.49913775 0 0 0 -0.49196,0.505912 c 0,0.384348 -0.04,1.509994 -0.0605,2.623096 -0.0103,0.556549 -0.0159,1.114426 -0.008,1.590083 0.007,0.393473 0.018,0.712372 0.0538,0.975651 l -7.1081,4.932516 a 0.49913775,0.49913775 0 0 0 0.002,0.819071 v 6.01462 a 0.49913775,0.49913775 0 0 0 0.49971,0.498161 h 13.9299 a 0.49913775,0.49913775 0 0 0 0.49971,-0.498161 v -6.085417 a 0.49913775,0.49913775 0 0 0 -0.0584,-0.732771 l -6.71484,-5.248259 a 0.49913775,0.49913775 0 0 0 -0.0791,-0.05013 c -0.0123,-0.174869 -0.0227,-0.389688 -0.0269,-0.640788 -0.007,-0.455396 -0.002,-1.004507 0.008,-1.554944 0.0203,-1.100873 0.0605,-2.19329 0.0605,-2.642732 a 0.49913775,0.49913775 0 0 0 -0.50591,-0.505912 z m 0.21911,6.406327 5.28081,4.131014 h -11.23393 z m -6.83421,5.128886 h 6.03529 v 5.426025 h -6.03529 z m 7.03316,0 h 5.90042 v 5.426025 h -5.90042 z"
         id="rect2644-7-9-4-0-7"
         inkscape:connector-curvature="0" />
      <path
         style="color:#000000;font-style:normal;font-variant:normal;font-weight:normal;font-stretch:normal;font-size:medium;line-height:normal;font-family:sans-serif;font-variant-ligatures:normal;font-variant-position:normal;font-variant-caps:normal;font-variant-numeric:normal;font-variant-alternates:normal;font-feature-settings:normal;text-indent:0;text-align:start;text-decoration:none;text-decoration-line:none;text-decoration-style:solid;text-decoration-color:#000000;letter-spacing:normal;word-spacing:normal;text-transform:none;writing-mode:lr-tb;direction:ltr;text-orientation:mixed;dominant-baseline:auto;baseline-shift:baseline;text-anchor:start;white-space:normal;shape-padding:0;clip-rule:nonzero;display:inline;overflow:visible;visibility:visible;opacity:1;isolation:auto;mix-blend-mode:normal;color-interpolation:sRGB;color-interpolation-filters:linearRGB;solid-color:#000000;solid-opacity:1;vector-effect:none;fill:#ffffff;fill-opacity:1;fill-rule:nonzero;stroke:none;stroke-width:0.99817568;stroke-linecap:round;stroke-linejoin:round;stroke-miterlimit:4;stroke-dasharray:none;stroke-dashoffset:0;stroke-opacity:1;paint-order:markers fill stroke;color-rendering:auto;image-rendering:auto;shape-rendering:auto;text-rendering:auto;enable-background:accumulate"
         d="m 221.54567,-48.189226 a 0.49913775,0.49913775 0 0 0 -0.49248,0.505396 v 1.857767 5.646167 h -2.95124 a 0.49913775,0.49913775 0 0 0 -0.49609,0.548804 c 0.38142,3.803284 1.87843,5.925981 3.49023,7.056933 a 0.49913775,0.49913775 0 0 0 0.008,0.0036 c 2.12352,1.440696 4.871,1.850164 7.58197,0.396875 a 0.49913775,0.49913775 0 0 0 0.004,-0.0021 c 1.97034,-1.079232 4.02738,-3.338614 3.97444,-7.511686 a 0.49913775,0.49913775 0 0 0 -0.49816,-0.492477 h -3.46904 v -5.148006 -1.857768 a 0.49913775,0.49913775 0 0 0 -0.50746,-0.505912 0.49913775,0.49913775 0 0 0 -0.49041,0.505912 v 1.857768 5.148006 h -5.64824 v -5.646167 -1.857767 a 0.49913775,0.49913775 0 0 0 -0.50591,-0.505396 z m -2.79311,9.007719 h 9.19582 a 0.49913775,0.49913775 0 0 0 0.50126,0 h 3.16415 c -0.11838,3.478258 -1.75721,5.229771 -3.40238,6.130892 -2.39959,1.284561 -4.67,0.926892 -6.54275,-0.342098 -1.28539,-0.902681 -2.46388,-2.658854 -2.9161,-5.788794 z"
         id="rect2644-4-9-3-0-1"
         inkscape:connector-curvature="0" />
      <path
         style="color:#000000;font-style:normal;font-variant:normal;font-weight:normal;font-stretch:normal;font-size:medium;line-height:normal;font-family:sans-serif;font-variant-ligatures:normal;font-variant-position:normal;font-variant-caps:normal;font-variant-numeric:normal;font-variant-alternates:normal;font-feature-settings:normal;text-indent:0;text-align:start;text-decoration:none;text-decoration-line:none;text-decoration-style:solid;text-decoration-color:#000000;letter-spacing:normal;word-spacing:normal;text-transform:none;writing-mode:lr-tb;direction:ltr;text-orientation:mixed;dominant-baseline:auto;baseline-shift:baseline;text-anchor:start;white-space:normal;shape-padding:0;clip-rule:nonzero;display:inline;overflow:visible;visibility:visible;opacity:1;isolation:auto;mix-blend-mode:normal;color-interpolation:sRGB;color-interpolation-filters:linearRGB;solid-color:#000000;solid-opacity:1;vector-effect:none;fill:#ffffff;fill-opacity:1;fill-rule:nonzero;stroke:none;stroke-width:0.99817568;stroke-linecap:round;stroke-linejoin:round;stroke-miterlimit:4;stroke-dasharray:none;stroke-dashoffset:0;stroke-opacity:1;paint-order:markers fill stroke;color-rendering:auto;image-rendering:auto;shape-rendering:auto;text-rendering:auto;enable-background:accumulate"
         d="m 245.66447,-49.224821 a 0.49913775,0.49913775 0 0 0 -0.49196,0.505912 c 0,0.384348 -0.04,1.509994 -0.0605,2.623096 -0.0103,0.556549 -0.0154,1.114426 -0.008,1.590083 0.007,0.392945 0.0175,0.711533 0.0532,0.974618 l -7.10965,4.933549 a 0.49913775,0.49913775 0 0 0 0.004,0.820105 v 6.013586 a 0.49913775,0.49913775 0 0 0 0.50023,0.498161 h 13.92938 a 0.49913775,0.49913775 0 0 0 0.49816,-0.498161 v -6.085417 a 0.49913775,0.49913775 0 0 0 -0.0584,-0.732771 l -6.71484,-5.248259 a 0.49913775,0.49913775 0 0 0 -0.077,-0.04909 c -0.0123,-0.175045 -0.0227,-0.390057 -0.0269,-0.641822 -0.007,-0.455396 -0.002,-1.004507 0.008,-1.554944 0.0203,-1.100873 0.0605,-2.19329 0.0605,-2.642732 a 0.49913775,0.49913775 0 0 0 -0.50539,-0.505912 z m 0.21704,6.406327 5.2834,4.131014 h -11.23652 z m -6.83214,5.128886 h 6.03322 v 5.426025 h -6.03322 z m 7.03161,0 h 5.90042 v 5.426025 h -5.90042 z"
         id="rect2644-7-9-4-0-7-7"
         inkscape:connector-curvature="0" />
      <path
         style="color:#000000;font-style:normal;font-variant:normal;font-weight:normal;font-stretch:normal;font-size:medium;line-height:normal;font-family:sans-serif;font-variant-ligatures:normal;font-variant-position:normal;font-variant-caps:normal;font-variant-numeric:normal;font-variant-alternates:normal;font-feature-settings:normal;text-indent:0;text-align:start;text-decoration:none;text-decoration-line:none;text-decoration-style:solid;text-decoration-color:#000000;letter-spacing:normal;word-spacing:normal;text-transform:none;writing-mode:lr-tb;direction:ltr;text-orientation:mixed;dominant-baseline:auto;baseline-shift:baseline;text-anchor:start;white-space:normal;shape-padding:0;clip-rule:nonzero;display:inline;overflow:visible;visibility:visible;opacity:1;isolation:auto;mix-blend-mode:normal;color-interpolation:sRGB;color-interpolation-filters:linearRGB;solid-color:#000000;solid-opacity:1;vector-effect:none;fill:#ffffff;fill-opacity:1;fill-rule:nonzero;stroke:none;stroke-width:0.99817568;stroke-linecap:round;stroke-linejoin:round;stroke-miterlimit:4;stroke-dasharray:none;stroke-dashoffset:0;stroke-opacity:1;paint-order:markers fill stroke;color-rendering:auto;image-rendering:auto;shape-rendering:auto;text-rendering:auto;enable-background:accumulate"
         d="m 258.89524,-47.177918 a 0.49913775,0.49913775 0 0 0 -0.50179,0.543119 c 0.18505,2.468352 0.13465,5.047438 0.33642,7.616073 a 0.49913775,0.49913775 0 0 0 -0.44804,0.497127 v 6.757727 a 0.49913775,0.49913775 0 0 0 0.50024,0.498161 h 14.06271 a 0.49913775,0.49913775 0 0 0 0.4997,-0.498161 v -6.757727 -5.705078 -1.857251 a 0.49913775,0.49913775 0 0 0 -0.50591,-0.507979 0.49913775,0.49913775 0 0 0 -0.49197,0.507979 v 1.857251 5.205367 h -5.64668 v -5.703528 -1.857251 a 0.49913775,0.49913775 0 0 0 -0.50798,-0.505912 0.49913775,0.49913775 0 0 0 -0.48987,0.505912 v 1.857251 5.703528 h -5.97173 c -0.20227,-2.525659 -0.14922,-5.128592 -0.34107,-7.687903 a 0.49913775,0.49913775 0 0 0 -0.49403,-0.468705 z m 0.81803,9.15448 h 12.63333 v 5.759855 h -13.06637 v -5.527311 a 0.49913775,0.49913775 0 0 0 0.43304,-0.232544 z"
         id="path2701-5-6-7"
         inkscape:connector-curvature="0" />
      <path
         style="color:#000000;font-style:normal;font-variant:normal;font-weight:normal;font-stretch:normal;font-size:medium;line-height:normal;font-family:sans-serif;font-variant-ligatures:normal;font-variant-position:normal;font-variant-caps:normal;font-variant-numeric:normal;font-variant-alternates:normal;font-feature-settings:normal;text-indent:0;text-align:start;text-decoration:none;text-decoration-line:none;text-decoration-style:solid;text-decoration-color:#000000;letter-spacing:normal;word-spacing:normal;text-transform:none;writing-mode:lr-tb;direction:ltr;text-orientation:mixed;dominant-baseline:auto;baseline-shift:baseline;text-anchor:start;white-space:normal;shape-padding:0;clip-rule:nonzero;display:inline;overflow:visible;visibility:visible;opacity:1;isolation:auto;mix-blend-mode:normal;color-interpolation:sRGB;color-interpolation-filters:linearRGB;solid-color:#000000;solid-opacity:1;vector-effect:none;fill:#ffffff;fill-opacity:1;fill-rule:nonzero;stroke:none;stroke-width:0.99817568;stroke-linecap:round;stroke-linejoin:round;stroke-miterlimit:4;stroke-dasharray:none;stroke-dashoffset:0;stroke-opacity:1;paint-order:markers fill stroke;color-rendering:auto;image-rendering:auto;shape-rendering:auto;text-rendering:auto;enable-background:accumulate"
         d="m 286.03741,-45.265373 a 0.49913775,0.49913775 0 0 0 -0.49196,0.505395 c 0,0.384349 -0.0405,1.509996 -0.061,2.623096 -0.0102,0.55655 -0.0153,1.114428 -0.008,1.590084 0.002,0.119975 0.007,0.214811 0.0103,0.321944 h -6.47504 a 0.49913775,0.49913775 0 0 0 -0.49818,0.500228 v 7.960754 a 0.49913775,0.49913775 0 0 0 0.49818,0.498161 h 14.06478 a 0.49913775,0.49913775 0 0 0 0.49762,-0.498161 v -7.960754 a 0.49913775,0.49913775 0 0 0 -0.49762,-0.500228 h -6.58927 c -0.005,-0.112235 -0.0108,-0.211873 -0.0129,-0.339514 -0.007,-0.455396 -0.002,-1.002439 0.008,-1.552877 0.0203,-1.100874 0.0605,-2.193291 0.0605,-2.642733 a 0.49913775,0.49913775 0 0 0 -0.50591,-0.505395 z m -6.52518,6.038907 h 6.03322 v 6.962883 h -6.03322 z m 7.03109,0 h 6.03322 v 6.962883 h -6.03322 z"
         id="rect2644-7-9-4-4-0"
         inkscape:connector-curvature="0" />
      <path
         style="color:#000000;font-style:normal;font-variant:normal;font-weight:normal;font-stretch:normal;font-size:medium;line-height:normal;font-family:sans-serif;font-variant-ligatures:normal;font-variant-position:normal;font-variant-caps:normal;font-variant-numeric:normal;font-variant-alternates:normal;font-feature-settings:normal;text-indent:0;text-align:start;text-decoration:none;text-decoration-line:none;text-decoration-style:solid;text-decoration-color:#000000;letter-spacing:normal;word-spacing:normal;text-transform:none;writing-mode:lr-tb;direction:ltr;text-orientation:mixed;dominant-baseline:auto;baseline-shift:baseline;text-anchor:start;white-space:normal;shape-padding:0;clip-rule:nonzero;display:inline;overflow:visible;visibility:visible;opacity:1;isolation:auto;mix-blend-mode:normal;color-interpolation:sRGB;color-interpolation-filters:linearRGB;solid-color:#000000;solid-opacity:1;vector-effect:none;fill:#ffffff;fill-opacity:1;fill-rule:nonzero;stroke:none;stroke-width:0.99817568;stroke-linecap:round;stroke-linejoin:round;stroke-miterlimit:4;stroke-dasharray:none;stroke-dashoffset:0;stroke-opacity:1;paint-order:markers fill stroke;color-rendering:auto;image-rendering:auto;shape-rendering:auto;text-rendering:auto;enable-background:accumulate"
         d="m 306.26672,-45.265373 a 0.49913775,0.49913775 0 0 0 -0.49196,0.505395 c 0,0.384349 -0.04,1.509996 -0.0605,2.623096 -0.0102,0.55655 -0.0159,1.114428 -0.008,1.590084 0.002,0.119972 0.007,0.214814 0.0103,0.321944 h -6.47298 a 0.49913775,0.49913775 0 0 0 -0.49971,0.500228 v 7.960754 a 0.49913775,0.49913775 0 0 0 0.49971,0.498161 h 14.06269 a 0.49913775,0.49913775 0 0 0 0.49972,-0.498161 v -7.960754 a 0.49913775,0.49913775 0 0 0 -0.49972,-0.500228 h -6.58874 c -0.005,-0.112238 -0.0108,-0.211869 -0.0129,-0.339514 -0.007,-0.455396 -0.002,-1.002439 0.008,-1.552877 0.0203,-1.100874 0.0605,-2.193291 0.0605,-2.642733 a 0.49913775,0.49913775 0 0 0 -0.50591,-0.505395 z m -6.52518,6.038907 h 6.03322 v 6.962883 h -6.03322 z m 7.03109,0 h 6.03528 v 6.962883 h -6.03528 z"
         id="rect2644-7-9-4-4-4"
         inkscape:connector-curvature="0" />
      <path
         style="color:#000000;font-style:normal;font-variant:normal;font-weight:normal;font-stretch:normal;font-size:medium;line-height:normal;font-family:sans-serif;font-variant-ligatures:normal;font-variant-position:normal;font-variant-caps:normal;font-variant-numeric:normal;font-variant-alternates:normal;font-feature-settings:normal;text-indent:0;text-align:start;text-decoration:none;text-decoration-line:none;text-decoration-style:solid;text-decoration-color:#000000;letter-spacing:normal;word-spacing:normal;text-transform:none;writing-mode:lr-tb;direction:ltr;text-orientation:mixed;dominant-baseline:auto;baseline-shift:baseline;text-anchor:start;white-space:normal;shape-padding:0;clip-rule:nonzero;display:inline;overflow:visible;visibility:visible;opacity:1;isolation:auto;mix-blend-mode:normal;color-interpolation:sRGB;color-interpolation-filters:linearRGB;solid-color:#000000;solid-opacity:1;vector-effect:none;fill:#ffffff;fill-opacity:1;fill-rule:nonzero;stroke:none;stroke-width:0.99817568;stroke-linecap:round;stroke-linejoin:round;stroke-miterlimit:4;stroke-dasharray:none;stroke-dashoffset:0;stroke-opacity:1;paint-order:markers fill stroke;color-rendering:auto;image-rendering:auto;shape-rendering:auto;text-rendering:auto;enable-background:accumulate"
         d="m 326.73614,-49.248076 a 0.49913775,0.49913775 0 0 0 -0.4899,0.505912 c 0,0.397681 -0.0258,1.147865 -0.0294,1.896525 -0.004,0.675965 0.006,1.325878 0.0822,1.821595 l -7.11118,4.934065 a 0.49913775,0.49913775 0 0 0 0.0532,0.850078 c 0.44275,3.555861 1.88976,5.574635 3.44477,6.665742 a 0.49913775,0.49913775 0 0 0 0.006,0.0036 c 2.12352,1.440704 4.871,1.850161 7.58195,0.396875 a 0.49913775,0.49913775 0 0 0 0.004,-0.0021 c 1.96366,-1.075564 4.01243,-3.324416 3.97393,-7.470345 a 0.49913775,0.49913775 0 0 0 10e-4,-0.04134 0.49913775,0.49913775 0 0 0 0,-0.0021 0.49913775,0.49913775 0 0 0 -0.004,-0.04806 0.49913775,0.49913775 0 0 0 -0.007,-0.04599 0.49913775,0.49913775 0 0 0 -5.3e-4,-0.0031 0.49913775,0.49913775 0 0 0 0,-5.17e-4 0.49913775,0.49913775 0 0 0 -0.0134,-0.04754 0.49913775,0.49913775 0 0 0 -0.0176,-0.04651 0.49913775,0.49913775 0 0 0 -0.0222,-0.04496 0.49913775,0.49913775 0 0 0 -0.0269,-0.04186 0.49913775,0.49913775 0 0 0 -0.0279,-0.03617 0.49913775,0.49913775 0 0 0 -0.003,-0.0031 0.49913775,0.49913775 0 0 0 -10e-4,-10e-4 0.49913775,0.49913775 0 0 0 -0.031,-0.03204 0.49913775,0.49913775 0 0 0 -0.003,-0.0031 0.49913775,0.49913775 0 0 0 -5.3e-4,-5.17e-4 0.49913775,0.49913775 0 0 0 -0.0346,-0.03049 l -6.71483,-5.247741 a 0.49913775,0.49913775 0 0 0 -0.0858,-0.05374 c -0.0329,-0.373407 -0.0482,-0.922214 -0.0454,-1.463993 0.004,-0.730324 0.0294,-1.4661 0.0294,-1.90221 a 0.49913775,0.49913775 0 0 0 -0.50797,-0.505912 z m 0.28525,4.937683 5.28338,4.130497 H 321.0667 Z m -6.68176,5.128886 h 12.86174 c -0.11838,3.478259 -1.75721,5.22977 -3.40239,6.130892 -2.39958,1.284558 -4.6705,0.926899 -6.54325,-0.342098 -1.2854,-0.902687 -2.4639,-2.658802 -2.9161,-5.788794 z"
         id="rect2644-4-2-74"
         inkscape:connector-curvature="0" />
      <path
         inkscape:connector-curvature="0"
         style="color:#000000;font-style:normal;font-variant:normal;font-weight:normal;font-stretch:normal;font-size:medium;line-height:normal;font-family:sans-serif;font-variant-ligatures:normal;font-variant-position:normal;font-variant-caps:normal;font-variant-numeric:normal;font-variant-alternates:normal;font-feature-settings:normal;text-indent:0;text-align:start;text-decoration:none;text-decoration-line:none;text-decoration-style:solid;text-decoration-color:#000000;letter-spacing:normal;word-spacing:normal;text-transform:none;writing-mode:lr-tb;direction:ltr;text-orientation:mixed;dominant-baseline:auto;baseline-shift:baseline;text-anchor:start;white-space:normal;shape-padding:0;clip-rule:nonzero;display:inline;overflow:visible;visibility:visible;opacity:1;isolation:auto;mix-blend-mode:normal;color-interpolation:sRGB;color-interpolation-filters:linearRGB;solid-color:#000000;solid-opacity:1;vector-effect:none;fill:#ffffff;fill-opacity:1;fill-rule:nonzero;stroke:none;stroke-width:0.99817568;stroke-linecap:round;stroke-linejoin:round;stroke-miterlimit:4;stroke-dasharray:none;stroke-dashoffset:0;stroke-opacity:1;paint-order:markers fill stroke;color-rendering:auto;image-rendering:auto;shape-rendering:auto;text-rendering:auto;enable-background:accumulate"
         d="m 123.54297,-45.265373 a 0.49913775,0.49913775 0 0 0 -0.49248,0.505395 c 0,0.384349 -0.04,1.509996 -0.0605,2.623096 -0.0102,0.55655 -0.0153,1.114427 -0.008,1.590083 0.002,0.119976 0.007,0.214812 0.0103,0.321945 h -6.47506 a 0.49913775,0.49913775 0 0 0 -0.49816,0.500228 v 7.960754 a 0.49913775,0.49913775 0 0 0 0.49816,0.498161 h 14.06426 a 0.49913775,0.49913775 0 0 0 0.49816,-0.498161 v -7.960754 a 0.49913775,0.49913775 0 0 0 -0.49816,-0.500228 h -6.58874 c -0.005,-0.112235 -0.0108,-0.211873 -0.0129,-0.339514 -0.007,-0.455396 -0.002,-1.002439 0.008,-1.552877 0.0203,-1.100874 0.0609,-2.193291 0.061,-2.642733 a 0.49913775,0.49913775 0 0 0 -0.50592,-0.505395 z m -6.5257,6.038907 h 6.1128 a 0.49913775,0.49913775 0 0 0 0.84388,0 h 6.10764 v 6.962883 h -13.06432 z"
         id="rect2644-7-9-4-4-8-9" />
    </g>
  </g>
</svg>
