<?xml version="1.0" encoding="UTF-8" standalone="no"?>
<svg
   xmlns:dc="http://purl.org/dc/elements/1.1/"
   xmlns:cc="http://creativecommons.org/ns#"
   xmlns:rdf="http://www.w3.org/1999/02/22-rdf-syntax-ns#"
   xmlns:svg="http://www.w3.org/2000/svg"
   xmlns="http://www.w3.org/2000/svg"
   xmlns:sodipodi="http://sodipodi.sourceforge.net/DTD/sodipodi-0.dtd"
   xmlns:inkscape="http://www.inkscape.org/namespaces/inkscape"
   inkscape:version="1.0 (4035a4fb49, 2020-05-01)"
   sodipodi:docname="2020-JP-01a-d.svg"
   id="svg5915"
   version="1.1"
   viewBox="0 0 22.57227 32.364318"
   height="32.364319mm"
   width="22.572269mm">
  <defs
     id="defs5909" />
  <sodipodi:namedview
     fit-margin-bottom="0"
     fit-margin-right="0"
     fit-margin-left="0"
     fit-margin-top="0"
     showgrid="false"
     inkscape:document-rotation="0"
     inkscape:current-layer="layer1"
     inkscape:document-units="mm"
     inkscape:cy="560"
     inkscape:cx="400"
     inkscape:zoom="0.35"
     inkscape:pageshadow="2"
     inkscape:pageopacity="0.0"
     borderopacity="1.0"
     bordercolor="#666666"
     pagecolor="#ffffff"
     id="base" />
  <metadata
     id="metadata5912">
    <rdf:RDF>
      <cc:Work
         rdf:about="">
        <dc:format>image/svg+xml</dc:format>
        <dc:type
           rdf:resource="http://purl.org/dc/dcmitype/StillImage" />
        <dc:title></dc:title>
      </cc:Work>
    </rdf:RDF>
  </metadata>
  <g
     transform="translate(-84.002347,-196.92616)"
     id="layer1"
     inkscape:groupmode="layer"
     inkscape:label="Ebene 1">
    <g
       transform="translate(-63.023043,88.690199)"
       id="g5655">
      <g
         id="g6303"
         transform="translate(25.112915)">
        <path
           style="fill:#4d4d4d;stroke:none"
           id="path47-5"
           d="m 122.8138,118.89433 c 0,0 20.56057,-0.3161 20.61881,-0.15805 0.23297,0.67171 0.87367,20.13154 0.29121,21.15886 -0.4077,0.75073 -19.97808,0.49391 -20.63819,0.33586 -0.66012,-0.15805 -0.93193,-21.00081 -0.27183,-21.33667 z"
           stroke-miterlimit="10"
           stroke-linejoin="round"
           stroke-linecap="round"
           stroke-width="0.391694"
           stroke="#000000"
           fill="#f7f8f8" />
        <path
           id="rect1683"
           style="fill:#ffffff;stroke:none;stroke-width:0.23898;stroke-linecap:round;stroke-linejoin:round;paint-order:markers stroke fill;stop-color:#000000"
           d="m 134.79256,129.15359 h 0.0456 c 0.14556,0 0.26274,0.11719 0.26274,0.26274 v 0.91111 c 0,0.14556 -0.11718,0.26274 -0.26274,0.26274 h -0.0456 c -0.14556,0 -0.26274,-0.11718 -0.26274,-0.26274 v -0.91111 c 0,-0.14555 0.11718,-0.26274 0.26274,-0.26274 z" />
        <path
           id="rect1683-2"
           style="fill:#ffffff;stroke:none;stroke-width:0.23898;stroke-linecap:round;stroke-linejoin:round;paint-order:markers stroke fill;stop-color:#000000"
           d="m 131.55784,129.1301 h 0.0456 c 0.14556,0 0.26274,0.11718 0.26274,0.26274 v 0.9111 c 0,0.14556 -0.11718,0.26274 -0.26274,0.26274 h -0.0456 c -0.14555,0 -0.26274,-0.11718 -0.26274,-0.26274 v -0.9111 c 0,-0.14556 0.11719,-0.26274 0.26274,-0.26274 z" />
        <path
           id="rect1677"
           style="fill:#999999;stroke:none;stroke-width:0.23898;stroke-linecap:round;stroke-linejoin:round;paint-order:markers stroke fill;stop-color:#000000"
           d="m 130.80485,127.25552 h 4.78633 c 0.14555,0 0.26274,0.11719 0.26274,0.26274 v 1.78447 c 0,0.14556 -0.11719,0.26274 -0.26274,0.26274 h -4.78633 c -0.14555,0 -0.26274,-0.11718 -0.26274,-0.26274 v -1.78447 c 0,-0.14555 0.11719,-0.26274 0.26274,-0.26274 z" />
        <path
           id="rect1675"
           style="fill:#4d4d4d;stroke:none;stroke-width:0.23898;stroke-linecap:round;stroke-linejoin:round;paint-order:markers stroke fill;stop-color:#000000"
           d="m 127.95944,122.98299 h 10.47718 c 0.14555,0 0.26274,0.11718 0.26274,0.26274 v 3.72968 c 0,0.14556 -0.11719,0.26274 -0.26274,0.26274 h -10.47718 c -0.14556,0 -0.26274,-0.11718 -0.26274,-0.26274 v -3.72968 c 0,-0.14556 0.11718,-0.26274 0.26274,-0.26274 z" />
        <path
           id="path1679"
           style="fill:#ff0000;stroke:none;stroke-width:0.23898;stroke-linecap:round;stroke-linejoin:round;paint-order:markers stroke fill;stop-color:#000000"
           d="m 141.83676,120.76256 a 0.98301166,0.98301166 0 0 1 -0.98302,0.98301 0.98301166,0.98301166 0 0 1 -0.98301,-0.98301 0.98301166,0.98301166 0 0 1 0.98301,-0.98301 0.98301166,0.98301166 0 0 1 0.98302,0.98301" />
        <path
           id="rect1681"
           style="fill:#1a1a1a;stroke:none;stroke-width:0.23898;stroke-linecap:round;stroke-linejoin:round;paint-order:markers stroke fill;stop-color:#000000"
           d="m 122.29385,137.9691 h 21.80834 c 0.14556,0 0.26274,0.11718 0.26274,0.26274 v 1.9383 c 0,0.14556 -0.11718,0.26274 -0.26274,0.26274 h -21.80834 c -0.14556,0 -0.26274,-0.11718 -0.26274,-0.26274 v -1.9383 c 0,-0.14556 0.11718,-0.26274 0.26274,-0.26274 z" />
      </g>
      <g
         style="opacity:1"
         id="g1409">
        <path
           id="path1411"
           d="m 147.92672,118.89433 c 0,0 20.56057,-0.3161 20.61881,-0.15805 0.23296,0.67171 0.87367,20.13154 0.2912,21.15886 -0.40769,0.75073 -19.97807,0.49391 -20.63819,0.33586 -0.66012,-0.15805 -0.93192,-21.00081 -0.27182,-21.33667 z"
           style="color:#000000;font-style:normal;font-variant:normal;font-weight:normal;font-stretch:normal;font-size:medium;line-height:normal;font-family:sans-serif;font-variant-ligatures:normal;font-variant-position:normal;font-variant-caps:normal;font-variant-numeric:normal;font-variant-alternates:normal;font-variant-east-asian:normal;font-feature-settings:normal;font-variation-settings:normal;text-indent:0;text-align:start;text-decoration:none;text-decoration-line:none;text-decoration-style:solid;text-decoration-color:#000000;letter-spacing:normal;word-spacing:normal;text-transform:none;writing-mode:lr-tb;direction:ltr;text-orientation:mixed;dominant-baseline:auto;baseline-shift:baseline;text-anchor:start;white-space:normal;shape-padding:0;shape-margin:0;inline-size:0;clip-rule:nonzero;display:inline;overflow:visible;visibility:visible;isolation:auto;mix-blend-mode:normal;color-interpolation:sRGB;color-interpolation-filters:linearRGB;solid-color:#000000;solid-opacity:1;vector-effect:none;fill:#4d4d4d;fill-opacity:1;fill-rule:nonzero;stroke:none;stroke-width:0.391694;stroke-linecap:round;stroke-linejoin:round;stroke-miterlimit:10;stroke-dasharray:none;stroke-dashoffset:0;stroke-opacity:1;color-rendering:auto;image-rendering:auto;shape-rendering:auto;text-rendering:auto;enable-background:accumulate;stop-color:#000000;stop-opacity:1" />
        <path
           id="path1413"
           d="m 165.29883,118.49805 c -1.93675,0.007 -4.51198,0.0329 -7.08594,0.0625 -5.14793,0.0593 -10.28906,0.13867 -10.28906,0.13867 a 0.19586659,0.19586659 0 0 0 -0.0859,0.0215 c -0.11244,0.0572 -0.12687,0.12666 -0.15234,0.19336 -0.0255,0.0667 -0.0462,0.14252 -0.0645,0.23438 -0.0366,0.18371 -0.0662,0.42942 -0.0937,0.73437 -0.0551,0.60991 -0.0964,1.45492 -0.125,2.45899 -0.0572,2.00813 -0.0653,4.65275 -0.0312,7.29101 0.034,2.63826 0.11051,5.26991 0.21875,7.25586 0.0541,0.99298 0.11531,1.82249 0.18555,2.41602 0.0351,0.29676 0.072,0.53388 0.11328,0.70898 0.0207,0.0876 0.0414,0.15853 0.0703,0.22266 0.0289,0.0641 0.0546,0.15232 0.19336,0.18555 0.0916,0.0219 0.18879,0.0246 0.3711,0.0352 0.18231,0.0105 0.42807,0.0209 0.72851,0.0312 0.6009,0.0207 1.42098,0.0413 2.38867,0.0586 1.93539,0.0346 4.45815,0.0577 6.97266,0.0527 2.51451,-0.005 5.02053,-0.038 6.92774,-0.11719 0.9536,-0.0396 1.75576,-0.0908 2.33984,-0.15625 0.29204,-0.0327 0.52917,-0.0687 0.70898,-0.11133 0.0899,-0.0213 0.16571,-0.043 0.23243,-0.0723 0.0659,-0.029 0.13357,-0.0588 0.18554,-0.15235 0.0703,-0.12485 0.0909,-0.26215 0.11914,-0.46875 0.0284,-0.2074 0.0513,-0.47218 0.0703,-0.79101 0.0381,-0.63766 0.0592,-1.487 0.0684,-2.47852 0.0182,-1.98303 -0.014,-4.53422 -0.0723,-7.07422 -0.0583,-2.53999 -0.14276,-5.06926 -0.22656,-7.00585 -0.0419,-0.9683 -0.0842,-1.78788 -0.12305,-2.38868 -0.0194,-0.3004 -0.037,-0.54524 -0.0547,-0.72851 -0.0177,-0.18327 -0.0223,-0.27825 -0.0586,-0.38281 a 0.19586659,0.19586659 0 0 0 -0.002,-0.004 c -2.3e-4,-6.2e-4 -0.0714,-0.0931 -0.0723,-0.0937 -8.5e-4,-6e-4 -0.0322,-0.0191 -0.043,-0.0234 -0.0215,-0.009 -0.0332,-0.0112 -0.0449,-0.0137 -0.0235,-0.005 -0.0444,-0.007 -0.0684,-0.01 -0.0479,-0.005 -0.10867,-0.008 -0.1875,-0.0117 -0.15765,-0.007 -0.38309,-0.0104 -0.66797,-0.0137 -0.56975,-0.006 -1.37733,-0.008 -2.3457,-0.004 z m 0.002,0.39257 c 0.96737,-0.004 1.77405,-0.004 2.33984,0.002 0.2829,0.003 0.50633,0.009 0.65626,0.0156 0.0357,0.001 0.0511,0.002 0.0781,0.004 0.008,0.0508 0.0129,0.0709 0.0234,0.17969 0.017,0.17608 0.0354,0.4188 0.0547,0.71679 0.0385,0.596 0.0812,1.41429 0.12305,2.38086 0.0837,1.93315 0.1664,4.4607 0.22461,6.99805 0.0582,2.53735 0.0904,5.08493 0.0723,7.06055 -0.009,0.9878 -0.031,1.83317 -0.0684,2.45898 -0.0187,0.31291 -0.0403,0.57088 -0.0664,0.76172 -0.0261,0.19084 -0.0705,0.32691 -0.0723,0.33008 a 0.19586659,0.19586659 0 0 0 -0.002,0.002 c 0.0267,-0.0492 0.0313,-0.0313 0,-0.0176 -0.0313,0.0138 -0.0881,0.0328 -0.16406,0.0508 -0.15197,0.036 -0.37871,0.0718 -0.66211,0.10352 -0.56679,0.0635 -1.36374,0.11488 -2.3125,0.1543 -1.89753,0.0788 -4.4025,0.11225 -6.91406,0.11718 -2.51156,0.005 -5.03043,-0.0201 -6.96289,-0.0547 -0.96623,-0.0173 -1.78551,-0.036 -2.38282,-0.0566 -0.29865,-0.0103 -0.54166,-0.021 -0.71874,-0.0312 -0.1405,-0.008 -0.20399,-0.0157 -0.24024,-0.0195 -0.0107,-0.0286 -0.023,-0.0635 -0.0371,-0.12305 -0.0349,-0.14774 -0.0713,-0.37513 -0.10547,-0.66406 -0.0684,-0.57788 -0.12971,-1.40408 -0.18359,-2.39258 -0.10775,-1.97701 -0.18285,-4.60607 -0.2168,-7.24024 -0.034,-2.63416 -0.0276,-5.27415 0.0293,-7.27343 0.0284,-0.99965 0.0693,-1.84072 0.12305,-2.43555 0.0269,-0.29742 0.0582,-0.53283 0.0898,-0.69141 0.0127,-0.0639 0.0241,-0.10441 0.0352,-0.13867 0.10945,-0.002 5.08456,-0.0781 10.17578,-0.13672 2.57346,-0.0296 5.14924,-0.0531 7.08398,-0.0606 z"
           style="color:#000000;font-style:normal;font-variant:normal;font-weight:normal;font-stretch:normal;font-size:medium;line-height:normal;font-family:sans-serif;font-variant-ligatures:normal;font-variant-position:normal;font-variant-caps:normal;font-variant-numeric:normal;font-variant-alternates:normal;font-variant-east-asian:normal;font-feature-settings:normal;font-variation-settings:normal;text-indent:0;text-align:start;text-decoration:none;text-decoration-line:none;text-decoration-style:solid;text-decoration-color:#000000;letter-spacing:normal;word-spacing:normal;text-transform:none;writing-mode:lr-tb;direction:ltr;text-orientation:mixed;dominant-baseline:auto;baseline-shift:baseline;text-anchor:start;white-space:normal;shape-padding:0;shape-margin:0;inline-size:0;clip-rule:nonzero;display:inline;overflow:visible;visibility:visible;isolation:auto;mix-blend-mode:normal;color-interpolation:sRGB;color-interpolation-filters:linearRGB;solid-color:#000000;solid-opacity:1;vector-effect:none;fill:#000000;fill-opacity:1;fill-rule:nonzero;stroke:none;stroke-width:0.391694;stroke-linecap:round;stroke-linejoin:round;stroke-miterlimit:10;stroke-dasharray:none;stroke-dashoffset:0;stroke-opacity:1;color-rendering:auto;image-rendering:auto;shape-rendering:auto;text-rendering:auto;enable-background:accumulate;stop-color:#000000;stop-opacity:1" />
      </g>
      <g
         style="opacity:1"
         id="g1403">
        <path
           id="path1405"
           d="m 159.90625,129.0332 c -0.2097,0 -0.38281,0.17314 -0.38281,0.38282 v 0.9121 c 0,0.20969 0.17312,0.38086 0.38281,0.38086 h 0.0449 c 0.20968,0 0.38281,-0.17116 0.38281,-0.38086 v -0.9121 c 0,-0.20969 -0.17312,-0.38282 -0.38281,-0.38282 z m 0,0.24024 h 0.0449 c 0.0814,0 0.14258,0.0612 0.14258,0.14258 v 0.9121 c 0,0.0814 -0.0612,0.14258 -0.14258,0.14258 h -0.0449 c -0.0814,0 -0.14453,-0.0611 -0.14453,-0.14258 v -0.9121 c 0,-0.0814 0.0631,-0.14258 0.14453,-0.14258 z"
           style="color:#000000;font-style:normal;font-variant:normal;font-weight:normal;font-stretch:normal;font-size:medium;line-height:normal;font-family:sans-serif;font-variant-ligatures:normal;font-variant-position:normal;font-variant-caps:normal;font-variant-numeric:normal;font-variant-alternates:normal;font-variant-east-asian:normal;font-feature-settings:normal;font-variation-settings:normal;text-indent:0;text-align:start;text-decoration:none;text-decoration-line:none;text-decoration-style:solid;text-decoration-color:#000000;letter-spacing:normal;word-spacing:normal;text-transform:none;writing-mode:lr-tb;direction:ltr;text-orientation:mixed;dominant-baseline:auto;baseline-shift:baseline;text-anchor:start;white-space:normal;shape-padding:0;shape-margin:0;inline-size:0;clip-rule:nonzero;display:inline;overflow:visible;visibility:visible;isolation:auto;mix-blend-mode:normal;color-interpolation:sRGB;color-interpolation-filters:linearRGB;solid-color:#000000;solid-opacity:1;vector-effect:none;fill:#000000;fill-opacity:1;fill-rule:nonzero;stroke:none;stroke-width:0.23898;stroke-linecap:round;stroke-linejoin:round;stroke-miterlimit:4;stroke-dasharray:none;stroke-dashoffset:0;stroke-opacity:1;paint-order:markers stroke fill;color-rendering:auto;image-rendering:auto;shape-rendering:auto;text-rendering:auto;enable-background:accumulate;stop-color:#000000;stop-opacity:1" />
        <path
           id="path1407"
           d="m 159.90548,129.15359 h 0.0456 c 0.14555,0 0.26274,0.11719 0.26274,0.26274 v 0.91111 c 0,0.14556 -0.11719,0.26274 -0.26274,0.26274 h -0.0456 c -0.14557,0 -0.26274,-0.11718 -0.26274,-0.26274 v -0.91111 c 0,-0.14555 0.11717,-0.26274 0.26274,-0.26274 z"
           style="color:#000000;font-style:normal;font-variant:normal;font-weight:normal;font-stretch:normal;font-size:medium;line-height:normal;font-family:sans-serif;font-variant-ligatures:normal;font-variant-position:normal;font-variant-caps:normal;font-variant-numeric:normal;font-variant-alternates:normal;font-variant-east-asian:normal;font-feature-settings:normal;font-variation-settings:normal;text-indent:0;text-align:start;text-decoration:none;text-decoration-line:none;text-decoration-style:solid;text-decoration-color:#000000;letter-spacing:normal;word-spacing:normal;text-transform:none;writing-mode:lr-tb;direction:ltr;text-orientation:mixed;dominant-baseline:auto;baseline-shift:baseline;text-anchor:start;white-space:normal;shape-padding:0;shape-margin:0;inline-size:0;clip-rule:nonzero;display:inline;overflow:visible;visibility:visible;isolation:auto;mix-blend-mode:normal;color-interpolation:sRGB;color-interpolation-filters:linearRGB;solid-color:#000000;solid-opacity:1;vector-effect:none;fill:#ffffff;fill-opacity:1;fill-rule:nonzero;stroke:none;stroke-width:0.23898;stroke-linecap:round;stroke-linejoin:round;stroke-miterlimit:4;stroke-dasharray:none;stroke-dashoffset:0;stroke-opacity:1;paint-order:markers stroke fill;color-rendering:auto;image-rendering:auto;shape-rendering:auto;text-rendering:auto;enable-background:accumulate;stop-color:#000000;stop-opacity:1" />
      </g>
      <g
         style="opacity:1"
         id="g1397">
        <path
           id="path1399"
           d="m 156.66992,129.00977 c -0.20968,0 -0.38086,0.17311 -0.38086,0.38281 v 0.91211 c 0,0.2097 0.17118,0.38086 0.38086,0.38086 h 0.0469 c 0.20969,0 0.38086,-0.17117 0.38086,-0.38086 v -0.91211 c 0,-0.20969 -0.17117,-0.38281 -0.38086,-0.38281 z m 0,0.24023 h 0.0469 c 0.0814,0 0.14257,0.0611 0.14258,0.14258 v 0.91211 c 0,0.0814 -0.0611,0.14258 -0.14258,0.14258 h -0.0469 c -0.0814,0 -0.14258,-0.0612 -0.14258,-0.14258 v -0.91211 c 0,-0.0814 0.0612,-0.14258 0.14258,-0.14258 z"
           style="color:#000000;font-style:normal;font-variant:normal;font-weight:normal;font-stretch:normal;font-size:medium;line-height:normal;font-family:sans-serif;font-variant-ligatures:normal;font-variant-position:normal;font-variant-caps:normal;font-variant-numeric:normal;font-variant-alternates:normal;font-variant-east-asian:normal;font-feature-settings:normal;font-variation-settings:normal;text-indent:0;text-align:start;text-decoration:none;text-decoration-line:none;text-decoration-style:solid;text-decoration-color:#000000;letter-spacing:normal;word-spacing:normal;text-transform:none;writing-mode:lr-tb;direction:ltr;text-orientation:mixed;dominant-baseline:auto;baseline-shift:baseline;text-anchor:start;white-space:normal;shape-padding:0;shape-margin:0;inline-size:0;clip-rule:nonzero;display:inline;overflow:visible;visibility:visible;isolation:auto;mix-blend-mode:normal;color-interpolation:sRGB;color-interpolation-filters:linearRGB;solid-color:#000000;solid-opacity:1;vector-effect:none;fill:#000000;fill-opacity:1;fill-rule:nonzero;stroke:none;stroke-width:0.23898;stroke-linecap:round;stroke-linejoin:round;stroke-miterlimit:4;stroke-dasharray:none;stroke-dashoffset:0;stroke-opacity:1;paint-order:markers stroke fill;color-rendering:auto;image-rendering:auto;shape-rendering:auto;text-rendering:auto;enable-background:accumulate;stop-color:#000000;stop-opacity:1" />
        <path
           id="path1401"
           d="m 156.67076,129.1301 h 0.0456 c 0.14557,0 0.26275,0.11718 0.26275,0.26274 v 0.9111 c 0,0.14556 -0.11718,0.26274 -0.26275,0.26274 h -0.0456 c -0.14555,0 -0.26275,-0.11718 -0.26275,-0.26274 v -0.9111 c 0,-0.14556 0.1172,-0.26274 0.26275,-0.26274 z"
           style="color:#000000;font-style:normal;font-variant:normal;font-weight:normal;font-stretch:normal;font-size:medium;line-height:normal;font-family:sans-serif;font-variant-ligatures:normal;font-variant-position:normal;font-variant-caps:normal;font-variant-numeric:normal;font-variant-alternates:normal;font-variant-east-asian:normal;font-feature-settings:normal;font-variation-settings:normal;text-indent:0;text-align:start;text-decoration:none;text-decoration-line:none;text-decoration-style:solid;text-decoration-color:#000000;letter-spacing:normal;word-spacing:normal;text-transform:none;writing-mode:lr-tb;direction:ltr;text-orientation:mixed;dominant-baseline:auto;baseline-shift:baseline;text-anchor:start;white-space:normal;shape-padding:0;shape-margin:0;inline-size:0;clip-rule:nonzero;display:inline;overflow:visible;visibility:visible;isolation:auto;mix-blend-mode:normal;color-interpolation:sRGB;color-interpolation-filters:linearRGB;solid-color:#000000;solid-opacity:1;vector-effect:none;fill:#ffffff;fill-opacity:1;fill-rule:nonzero;stroke:none;stroke-width:0.23898;stroke-linecap:round;stroke-linejoin:round;stroke-miterlimit:4;stroke-dasharray:none;stroke-dashoffset:0;stroke-opacity:1;paint-order:markers stroke fill;color-rendering:auto;image-rendering:auto;shape-rendering:auto;text-rendering:auto;enable-background:accumulate;stop-color:#000000;stop-opacity:1" />
      </g>
      <g
         style="opacity:1"
         id="g1391">
        <path
           id="path1393"
           d="m 155.91797,127.13672 c -0.20969,0 -0.38281,0.17117 -0.38281,0.38086 v 1.78515 c 0,0.2097 0.17313,0.38282 0.38281,0.38282 h 4.78515 c 0.20969,0 0.38282,-0.17312 0.38282,-0.38282 v -1.78515 c 0,-0.20969 -0.17313,-0.38086 -0.38282,-0.38086 z m 0,0.23828 h 4.78515 c 0.0814,0 0.14454,0.0612 0.14454,0.14258 v 1.78515 c 0,0.0814 -0.0631,0.14258 -0.14454,0.14258 h -4.78515 c -0.0814,0 -0.14258,-0.0611 -0.14258,-0.14258 v -1.78515 c 0,-0.0814 0.0612,-0.14258 0.14258,-0.14258 z"
           style="color:#000000;font-style:normal;font-variant:normal;font-weight:normal;font-stretch:normal;font-size:medium;line-height:normal;font-family:sans-serif;font-variant-ligatures:normal;font-variant-position:normal;font-variant-caps:normal;font-variant-numeric:normal;font-variant-alternates:normal;font-variant-east-asian:normal;font-feature-settings:normal;font-variation-settings:normal;text-indent:0;text-align:start;text-decoration:none;text-decoration-line:none;text-decoration-style:solid;text-decoration-color:#000000;letter-spacing:normal;word-spacing:normal;text-transform:none;writing-mode:lr-tb;direction:ltr;text-orientation:mixed;dominant-baseline:auto;baseline-shift:baseline;text-anchor:start;white-space:normal;shape-padding:0;shape-margin:0;inline-size:0;clip-rule:nonzero;display:inline;overflow:visible;visibility:visible;isolation:auto;mix-blend-mode:normal;color-interpolation:sRGB;color-interpolation-filters:linearRGB;solid-color:#000000;solid-opacity:1;vector-effect:none;fill:#000000;fill-opacity:1;fill-rule:nonzero;stroke:none;stroke-width:0.23898;stroke-linecap:round;stroke-linejoin:round;stroke-miterlimit:4;stroke-dasharray:none;stroke-dashoffset:0;stroke-opacity:1;paint-order:markers stroke fill;color-rendering:auto;image-rendering:auto;shape-rendering:auto;text-rendering:auto;enable-background:accumulate;stop-color:#000000;stop-opacity:1" />
        <path
           id="path1395"
           d="m 155.91777,127.25552 h 4.78633 c 0.14555,0 0.26274,0.11719 0.26274,0.26274 v 1.78447 c 0,0.14556 -0.11719,0.26274 -0.26274,0.26274 h -4.78633 c -0.14555,0 -0.26274,-0.11718 -0.26274,-0.26274 v -1.78447 c 0,-0.14555 0.11719,-0.26274 0.26274,-0.26274 z"
           style="color:#000000;font-style:normal;font-variant:normal;font-weight:normal;font-stretch:normal;font-size:medium;line-height:normal;font-family:sans-serif;font-variant-ligatures:normal;font-variant-position:normal;font-variant-caps:normal;font-variant-numeric:normal;font-variant-alternates:normal;font-variant-east-asian:normal;font-feature-settings:normal;font-variation-settings:normal;text-indent:0;text-align:start;text-decoration:none;text-decoration-line:none;text-decoration-style:solid;text-decoration-color:#000000;letter-spacing:normal;word-spacing:normal;text-transform:none;writing-mode:lr-tb;direction:ltr;text-orientation:mixed;dominant-baseline:auto;baseline-shift:baseline;text-anchor:start;white-space:normal;shape-padding:0;shape-margin:0;inline-size:0;clip-rule:nonzero;display:inline;overflow:visible;visibility:visible;isolation:auto;mix-blend-mode:normal;color-interpolation:sRGB;color-interpolation-filters:linearRGB;solid-color:#000000;solid-opacity:1;vector-effect:none;fill:#999999;fill-opacity:1;fill-rule:nonzero;stroke:none;stroke-width:0.23898;stroke-linecap:round;stroke-linejoin:round;stroke-miterlimit:4;stroke-dasharray:none;stroke-dashoffset:0;stroke-opacity:1;paint-order:markers stroke fill;color-rendering:auto;image-rendering:auto;shape-rendering:auto;text-rendering:auto;enable-background:accumulate;stop-color:#000000;stop-opacity:1" />
      </g>
      <g
         style="opacity:1"
         id="g1385">
        <path
           id="path1387"
           d="m 153.07227,122.86328 c -0.20969,0 -0.38282,0.17312 -0.38282,0.38281 v 3.72852 c 0,0.20969 0.17313,0.38281 0.38282,0.38281 h 10.47656 c 0.20968,0 0.38281,-0.17312 0.38281,-0.38281 v -3.72852 c 0,-0.20969 -0.17313,-0.38281 -0.38281,-0.38281 z m 0,0.23828 h 10.47656 c 0.0814,0 0.14453,0.0631 0.14453,0.14453 v 3.72852 c 0,0.0814 -0.0631,0.14453 -0.14453,0.14453 h -10.47656 c -0.0814,0 -0.14258,-0.0631 -0.14258,-0.14453 v -3.72852 c 0,-0.0814 0.0612,-0.14453 0.14258,-0.14453 z"
           style="color:#000000;font-style:normal;font-variant:normal;font-weight:normal;font-stretch:normal;font-size:medium;line-height:normal;font-family:sans-serif;font-variant-ligatures:normal;font-variant-position:normal;font-variant-caps:normal;font-variant-numeric:normal;font-variant-alternates:normal;font-variant-east-asian:normal;font-feature-settings:normal;font-variation-settings:normal;text-indent:0;text-align:start;text-decoration:none;text-decoration-line:none;text-decoration-style:solid;text-decoration-color:#000000;letter-spacing:normal;word-spacing:normal;text-transform:none;writing-mode:lr-tb;direction:ltr;text-orientation:mixed;dominant-baseline:auto;baseline-shift:baseline;text-anchor:start;white-space:normal;shape-padding:0;shape-margin:0;inline-size:0;clip-rule:nonzero;display:inline;overflow:visible;visibility:visible;isolation:auto;mix-blend-mode:normal;color-interpolation:sRGB;color-interpolation-filters:linearRGB;solid-color:#000000;solid-opacity:1;vector-effect:none;fill:#000000;fill-opacity:1;fill-rule:nonzero;stroke:none;stroke-width:0.23898;stroke-linecap:round;stroke-linejoin:round;stroke-miterlimit:4;stroke-dasharray:none;stroke-dashoffset:0;stroke-opacity:1;paint-order:markers stroke fill;color-rendering:auto;image-rendering:auto;shape-rendering:auto;text-rendering:auto;enable-background:accumulate;stop-color:#000000;stop-opacity:1" />
        <path
           id="path1389"
           d="m 153.07235,122.98299 h 10.47719 c 0.14555,0 0.26274,0.11718 0.26274,0.26274 v 3.72968 c 0,0.14556 -0.11719,0.26274 -0.26274,0.26274 h -10.47719 c -0.14555,0 -0.26274,-0.11718 -0.26274,-0.26274 v -3.72968 c 0,-0.14556 0.11719,-0.26274 0.26274,-0.26274 z"
           style="color:#000000;font-style:normal;font-variant:normal;font-weight:normal;font-stretch:normal;font-size:medium;line-height:normal;font-family:sans-serif;font-variant-ligatures:normal;font-variant-position:normal;font-variant-caps:normal;font-variant-numeric:normal;font-variant-alternates:normal;font-variant-east-asian:normal;font-feature-settings:normal;font-variation-settings:normal;text-indent:0;text-align:start;text-decoration:none;text-decoration-line:none;text-decoration-style:solid;text-decoration-color:#000000;letter-spacing:normal;word-spacing:normal;text-transform:none;writing-mode:lr-tb;direction:ltr;text-orientation:mixed;dominant-baseline:auto;baseline-shift:baseline;text-anchor:start;white-space:normal;shape-padding:0;shape-margin:0;inline-size:0;clip-rule:nonzero;display:inline;overflow:visible;visibility:visible;isolation:auto;mix-blend-mode:normal;color-interpolation:sRGB;color-interpolation-filters:linearRGB;solid-color:#000000;solid-opacity:1;vector-effect:none;fill:#4d4d4d;fill-opacity:1;fill-rule:nonzero;stroke:none;stroke-width:0.23898;stroke-linecap:round;stroke-linejoin:round;stroke-miterlimit:4;stroke-dasharray:none;stroke-dashoffset:0;stroke-opacity:1;paint-order:markers stroke fill;color-rendering:auto;image-rendering:auto;shape-rendering:auto;text-rendering:auto;enable-background:accumulate;stop-color:#000000;stop-opacity:1" />
      </g>
      <g
         style="opacity:1"
         id="g1379">
        <path
           id="path1381"
           d="m 165.9668,119.66016 c -0.60749,-1e-5 -1.10352,0.49408 -1.10352,1.10156 0,0.60748 0.49603,1.10352 1.10352,1.10351 0.57404,1e-5 1.01599,-0.45633 1.0664,-1.01757 a 0.11949,0.11949 0 0 0 0.0352,-0.0859 0.11949,0.11949 0 0 0 -0.0352,-0.082 c -0.0487,-0.56296 -0.49113,-1.01954 -1.0664,-1.01953 z m 0,0.23828 c 0.47832,-10e-6 0.86328,0.38495 0.86328,0.86328 0,0.47833 -0.38496,0.86524 -0.86328,0.86523 -0.47833,1e-5 -0.86328,-0.3869 -0.86328,-0.86523 0,-0.47833 0.38495,-0.86329 0.86328,-0.86328 z"
           style="color:#000000;font-style:normal;font-variant:normal;font-weight:normal;font-stretch:normal;font-size:medium;line-height:normal;font-family:sans-serif;font-variant-ligatures:normal;font-variant-position:normal;font-variant-caps:normal;font-variant-numeric:normal;font-variant-alternates:normal;font-variant-east-asian:normal;font-feature-settings:normal;font-variation-settings:normal;text-indent:0;text-align:start;text-decoration:none;text-decoration-line:none;text-decoration-style:solid;text-decoration-color:#000000;letter-spacing:normal;word-spacing:normal;text-transform:none;writing-mode:lr-tb;direction:ltr;text-orientation:mixed;dominant-baseline:auto;baseline-shift:baseline;text-anchor:start;white-space:normal;shape-padding:0;shape-margin:0;inline-size:0;clip-rule:nonzero;display:inline;overflow:visible;visibility:visible;isolation:auto;mix-blend-mode:normal;color-interpolation:sRGB;color-interpolation-filters:linearRGB;solid-color:#000000;solid-opacity:1;vector-effect:none;fill:#000000;fill-opacity:1;fill-rule:nonzero;stroke:none;stroke-width:0.23898;stroke-linecap:round;stroke-linejoin:round;stroke-miterlimit:4;stroke-dasharray:none;stroke-dashoffset:0;stroke-opacity:1;paint-order:markers stroke fill;color-rendering:auto;image-rendering:auto;shape-rendering:auto;text-rendering:auto;enable-background:accumulate;stop-color:#000000;stop-opacity:1" />
        <path
           id="path1383"
           d="m 166.94968,120.76256 c 0,0.5429 -0.44012,0.98301 -0.98302,0.98301 -0.5429,0 -0.98302,-0.44011 -0.98302,-0.98301 0,-0.5429 0.44012,-0.98301 0.98302,-0.98301 0.5429,0 0.98302,0.44011 0.98302,0.98301"
           style="color:#000000;font-style:normal;font-variant:normal;font-weight:normal;font-stretch:normal;font-size:medium;line-height:normal;font-family:sans-serif;font-variant-ligatures:normal;font-variant-position:normal;font-variant-caps:normal;font-variant-numeric:normal;font-variant-alternates:normal;font-variant-east-asian:normal;font-feature-settings:normal;font-variation-settings:normal;text-indent:0;text-align:start;text-decoration:none;text-decoration-line:none;text-decoration-style:solid;text-decoration-color:#000000;letter-spacing:normal;word-spacing:normal;text-transform:none;writing-mode:lr-tb;direction:ltr;text-orientation:mixed;dominant-baseline:auto;baseline-shift:baseline;text-anchor:start;white-space:normal;shape-padding:0;shape-margin:0;inline-size:0;clip-rule:nonzero;display:inline;overflow:visible;visibility:visible;isolation:auto;mix-blend-mode:normal;color-interpolation:sRGB;color-interpolation-filters:linearRGB;solid-color:#000000;solid-opacity:1;vector-effect:none;fill:#ff0000;fill-opacity:1;fill-rule:nonzero;stroke:none;stroke-width:0.23898;stroke-linecap:round;stroke-linejoin:round;stroke-miterlimit:4;stroke-dasharray:none;stroke-dashoffset:0;stroke-opacity:1;paint-order:markers stroke fill;color-rendering:auto;image-rendering:auto;shape-rendering:auto;text-rendering:auto;enable-background:accumulate;stop-color:#000000;stop-opacity:1" />
      </g>
      <g
         style="opacity:1"
         id="g1373">
        <path
           id="path1375"
           d="m 147.40625,137.84961 c -0.20969,0 -0.38086,0.17313 -0.38086,0.38281 v 1.9375 c 0,0.20968 0.17117,0.38281 0.38086,0.38281 h 21.80859 c 0.2097,0 0.38282,-0.17312 0.38282,-0.38281 v -1.9375 c 0,-0.20969 -0.17312,-0.38281 -0.38282,-0.38281 z m 0,0.23828 h 21.80859 c 0.0814,0 0.14258,0.0631 0.14258,0.14453 v 1.9375 c 0,0.0814 -0.0611,0.14258 -0.14258,0.14258 h -21.80859 c -0.0814,0 -0.14258,-0.0611 -0.14258,-0.14258 v -1.9375 c 0,-0.0814 0.0611,-0.14453 0.14258,-0.14453 z"
           style="color:#000000;font-style:normal;font-variant:normal;font-weight:normal;font-stretch:normal;font-size:medium;line-height:normal;font-family:sans-serif;font-variant-ligatures:normal;font-variant-position:normal;font-variant-caps:normal;font-variant-numeric:normal;font-variant-alternates:normal;font-variant-east-asian:normal;font-feature-settings:normal;font-variation-settings:normal;text-indent:0;text-align:start;text-decoration:none;text-decoration-line:none;text-decoration-style:solid;text-decoration-color:#000000;letter-spacing:normal;word-spacing:normal;text-transform:none;writing-mode:lr-tb;direction:ltr;text-orientation:mixed;dominant-baseline:auto;baseline-shift:baseline;text-anchor:start;white-space:normal;shape-padding:0;shape-margin:0;inline-size:0;clip-rule:nonzero;display:inline;overflow:visible;visibility:visible;isolation:auto;mix-blend-mode:normal;color-interpolation:sRGB;color-interpolation-filters:linearRGB;solid-color:#000000;solid-opacity:1;vector-effect:none;fill:#000000;fill-opacity:1;fill-rule:nonzero;stroke:none;stroke-width:0.23898;stroke-linecap:round;stroke-linejoin:round;stroke-miterlimit:4;stroke-dasharray:none;stroke-dashoffset:0;stroke-opacity:1;paint-order:markers stroke fill;color-rendering:auto;image-rendering:auto;shape-rendering:auto;text-rendering:auto;enable-background:accumulate;stop-color:#000000;stop-opacity:1" />
        <path
           id="path1377"
           d="m 147.40677,137.9691 h 21.80833 c 0.14557,0 0.26275,0.11718 0.26275,0.26274 v 1.9383 c 0,0.14556 -0.11718,0.26274 -0.26275,0.26274 h -21.80833 c -0.14557,0 -0.26274,-0.11718 -0.26274,-0.26274 v -1.9383 c 0,-0.14556 0.11717,-0.26274 0.26274,-0.26274 z"
           style="color:#000000;font-style:normal;font-variant:normal;font-weight:normal;font-stretch:normal;font-size:medium;line-height:normal;font-family:sans-serif;font-variant-ligatures:normal;font-variant-position:normal;font-variant-caps:normal;font-variant-numeric:normal;font-variant-alternates:normal;font-variant-east-asian:normal;font-feature-settings:normal;font-variation-settings:normal;text-indent:0;text-align:start;text-decoration:none;text-decoration-line:none;text-decoration-style:solid;text-decoration-color:#000000;letter-spacing:normal;word-spacing:normal;text-transform:none;writing-mode:lr-tb;direction:ltr;text-orientation:mixed;dominant-baseline:auto;baseline-shift:baseline;text-anchor:start;white-space:normal;shape-padding:0;shape-margin:0;inline-size:0;clip-rule:nonzero;display:inline;overflow:visible;visibility:visible;isolation:auto;mix-blend-mode:normal;color-interpolation:sRGB;color-interpolation-filters:linearRGB;solid-color:#000000;solid-opacity:1;vector-effect:none;fill:#1a1a1a;fill-opacity:1;fill-rule:nonzero;stroke:none;stroke-width:0.23898;stroke-linecap:round;stroke-linejoin:round;stroke-miterlimit:4;stroke-dasharray:none;stroke-dashoffset:0;stroke-opacity:1;paint-order:markers stroke fill;color-rendering:auto;image-rendering:auto;shape-rendering:auto;text-rendering:auto;enable-background:accumulate;stop-color:#000000;stop-opacity:1" />
      </g>
      <path
         id="path1715"
         style="fill:#ffffff;stroke:none;stroke-width:0.165663;stroke-linecap:round;stroke-linejoin:round;paint-order:markers stroke fill;stop-color:#000000"
         d="m 153.94702,133.54772 a 4.2940618,4.1822992 0 0 0 -0.002,0.11278 4.2940618,4.1822992 0 0 0 2.44949,3.77664 v 0.28814 c 0,0.10091 0.0813,0.1822 0.18219,0.1822 h 3.32496 c 0.1009,0 0.18193,-0.0813 0.18193,-0.1822 v -0.28788 a 4.2940618,4.1822992 0 0 0 1.3424,-0.9738 c 0.42519,0.021 0.85124,-0.0944 1.2254,-0.28525 0.44884,-0.229 0.82662,-0.56329 1.04531,-0.92254 0.10935,-0.17962 0.17955,-0.36696 0.19008,-0.55446 0.0105,-0.1875 -0.0444,-0.37608 -0.1743,-0.52792 -0.21216,-0.24806 -0.59525,-0.39429 -1.18019,-0.42512 a 4.2940618,4.1822992 0 0 0 0.001,-0.0878 4.2940618,4.1822992 0 0 0 -0.002,-0.11278 z m 8.56941,0.48874 c 0.53625,0.0311 0.84403,0.16699 0.978,0.32363 0.0821,0.096 0.11273,0.1999 0.10569,0.32522 -0.007,0.12531 -0.0573,0.27106 -0.14854,0.42091 -0.18244,0.29969 -0.52541,0.60942 -0.93043,0.81606 -0.26633,0.13588 -0.55812,0.22591 -0.84813,0.25002 a 4.2940618,4.1822992 0 0 0 0.84341,-2.13584 z" />
      <path
         id="path1715-6"
         style="fill:#cccccc;stroke:none;stroke-width:0.147926;stroke-linecap:round;stroke-linejoin:round;stroke-miterlimit:4;stroke-dasharray:none;paint-order:markers stroke fill;stop-color:#000000"
         d="m 154.43884,133.78715 c -0.001,0.0335 -0.001,0.0671 -0.001,0.10059 4e-5,1.43929 0.85025,2.75014 2.18471,3.36841 v 0.25699 c 0,0.09 0.0725,0.16251 0.1625,0.16251 h 0.36956 c -0.0641,-0.0217 -0.11021,-0.0815 -0.11021,-0.15313 v -0.25699 c -1.33446,-0.61827 -2.18467,-1.92912 -2.18472,-3.36841 0,-0.0335 5.3e-4,-0.0671 0.001,-0.10059 h -0.42184 z"
         sodipodi:nodetypes="cccsscscsccc" />
    </g>
  </g>
</svg>
