<?xml version="1.0" encoding="UTF-8" standalone="no"?>
<svg
   xmlns:dc="http://purl.org/dc/elements/1.1/"
   xmlns:cc="http://creativecommons.org/ns#"
   xmlns:rdf="http://www.w3.org/1999/02/22-rdf-syntax-ns#"
   xmlns:svg="http://www.w3.org/2000/svg"
   xmlns="http://www.w3.org/2000/svg"
   xmlns:sodipodi="http://sodipodi.sourceforge.net/DTD/sodipodi-0.dtd"
   xmlns:inkscape="http://www.inkscape.org/namespaces/inkscape"
   width="36.285mm"
   height="32.364319mm"
   viewBox="0 0 36.285001 32.364318"
   version="1.1"
   id="svg5915"
   sodipodi:docname="2020-JP-01a-c.svg"
   inkscape:version="1.0 (4035a4fb49, 2020-05-01)">
  <defs
     id="defs5909" />
  <sodipodi:namedview
     id="base"
     pagecolor="#ffffff"
     bordercolor="#666666"
     borderopacity="1.0"
     inkscape:pageopacity="0.0"
     inkscape:pageshadow="2"
     inkscape:zoom="0.35"
     inkscape:cx="400"
     inkscape:cy="560"
     inkscape:document-units="mm"
     inkscape:current-layer="layer1"
     inkscape:document-rotation="0"
     showgrid="false"
     fit-margin-top="0"
     fit-margin-left="0"
     fit-margin-right="0"
     fit-margin-bottom="0" />
  <metadata
     id="metadata5912">
    <rdf:RDF>
      <cc:Work
         rdf:about="">
        <dc:format>image/svg+xml</dc:format>
        <dc:type
           rdf:resource="http://purl.org/dc/dcmitype/StillImage" />
        <dc:title></dc:title>
      </cc:Work>
    </rdf:RDF>
  </metadata>
  <g
     inkscape:label="Ebene 1"
     inkscape:groupmode="layer"
     id="layer1"
     transform="translate(-84.002347,-196.92616)">
    <g
       id="g5671"
       transform="translate(-3.7867941,88.690869)">
      <g
         transform="translate(16.741946)"
         id="g6311">
        <path
           d="m 82.23143,137.38847 h 14.075833 v 3.01625 H 82.23143 Z"
           style="fill:#3e3a39;stroke:none;stroke-width:0.529167;stroke-linecap:round;stroke-linejoin:round;stroke-miterlimit:10"
           id="rect11" />
        <path
           d="m 86.782265,131.48827 h 4.596491 v 6.38428 h -4.596491 z"
           style="font-variation-settings:normal;vector-effect:none;fill:#4d4d4d;fill-opacity:1;stroke:none;stroke-width:0.23898;stroke-linecap:round;stroke-linejoin:round;stroke-miterlimit:4;stroke-dasharray:none;stroke-dashoffset:0;stroke-opacity:1;paint-order:markers stroke fill;stop-color:#000000"
           id="rect13" />
        <path
           style="stroke:none"
           id="path15"
           d="M 106.49372,136.38306 H 71.886221 c -0.3175,0 -0.582083,-0.26458 -0.582083,-0.58208 v -20.26709 c 0,-0.3175 0.264583,-0.58208 0.582083,-0.58208 h 34.607499 c 0.3175,0 0.58208,0.26458 0.58208,0.58208 v 20.26709 c 0,0.3175 -0.26458,0.58208 -0.58208,0.58208 z"
           stroke-miterlimit="10"
           stroke-linejoin="round"
           stroke-linecap="round"
           stroke-width="0.513186"
           stroke="#000000"
           fill="#3e3a39" />
        <path
           id="rect11-3"
           style="font-variation-settings:normal;vector-effect:none;fill:none;fill-opacity:1;stroke:none;stroke-width:0.391694;stroke-linecap:round;stroke-linejoin:round;stroke-miterlimit:10;stroke-dasharray:none;stroke-dashoffset:0;stroke-opacity:1;stop-color:#000000"
           d="m 71.886328,114.95181 c -0.3175,0 -0.5824,0.26437 -0.5824,0.58187 v 20.2675 c 0,0.3175 0.2649,0.58188 0.5824,0.58188 h 14.89573 v 1.00562 h -4.55063 v 3.01584 h 14.07563 v -3.01584 h -4.86792 v -1.00562 h 15.054372 c 0.3175,0 0.5824,-0.26438 0.5824,-0.58188 v -20.2675 c 0,-0.3175 -0.2649,-0.58187 -0.5824,-0.58187 z" />
      </g>
      <g
         id="g1367"
         style="opacity:1">
        <path
           style="color:#000000;font-style:normal;font-variant:normal;font-weight:normal;font-stretch:normal;font-size:medium;line-height:normal;font-family:sans-serif;font-variant-ligatures:normal;font-variant-position:normal;font-variant-caps:normal;font-variant-numeric:normal;font-variant-alternates:normal;font-variant-east-asian:normal;font-feature-settings:normal;font-variation-settings:normal;text-indent:0;text-align:start;text-decoration:none;text-decoration-line:none;text-decoration-style:solid;text-decoration-color:#000000;letter-spacing:normal;word-spacing:normal;text-transform:none;writing-mode:lr-tb;direction:ltr;text-orientation:mixed;dominant-baseline:auto;baseline-shift:baseline;text-anchor:start;white-space:normal;shape-padding:0;shape-margin:0;inline-size:0;clip-rule:nonzero;display:inline;overflow:visible;visibility:visible;isolation:auto;mix-blend-mode:normal;color-interpolation:sRGB;color-interpolation-filters:linearRGB;solid-color:#000000;solid-opacity:1;vector-effect:none;fill:#000000;fill-opacity:1;fill-rule:nonzero;stroke:none;stroke-width:0.23898;stroke-linecap:round;stroke-linejoin:round;stroke-miterlimit:4;stroke-dasharray:none;stroke-dashoffset:0;stroke-opacity:1;paint-order:markers stroke fill;color-rendering:auto;image-rendering:auto;shape-rendering:auto;text-rendering:auto;enable-background:accumulate;stop-color:#000000;stop-opacity:1"
           d="m 103.52344,131.36914 a 0.11950195,0.11950195 0 0 0 -0.11914,0.11914 v 6.38477 a 0.11950195,0.11950195 0 0 0 0.11914,0.11914 h 4.59765 a 0.11950195,0.11950195 0 0 0 0.11914,-0.11914 v -6.38477 a 0.11950195,0.11950195 0 0 0 -0.11914,-0.11914 z m 0.12109,0.23828 h 4.35742 v 6.14649 h -4.35742 z"
           id="path1369" />
        <path
           style="color:#000000;font-style:normal;font-variant:normal;font-weight:normal;font-stretch:normal;font-size:medium;line-height:normal;font-family:sans-serif;font-variant-ligatures:normal;font-variant-position:normal;font-variant-caps:normal;font-variant-numeric:normal;font-variant-alternates:normal;font-variant-east-asian:normal;font-feature-settings:normal;font-variation-settings:normal;text-indent:0;text-align:start;text-decoration:none;text-decoration-line:none;text-decoration-style:solid;text-decoration-color:#000000;letter-spacing:normal;word-spacing:normal;text-transform:none;writing-mode:lr-tb;direction:ltr;text-orientation:mixed;dominant-baseline:auto;baseline-shift:baseline;text-anchor:start;white-space:normal;shape-padding:0;shape-margin:0;inline-size:0;clip-rule:nonzero;display:inline;overflow:visible;visibility:visible;isolation:auto;mix-blend-mode:normal;color-interpolation:sRGB;color-interpolation-filters:linearRGB;solid-color:#000000;solid-opacity:1;vector-effect:none;fill:#4d4d4d;fill-opacity:1;fill-rule:nonzero;stroke:none;stroke-width:0.23898;stroke-linecap:round;stroke-linejoin:round;stroke-miterlimit:4;stroke-dasharray:none;stroke-dashoffset:0;stroke-opacity:1;paint-order:markers stroke fill;color-rendering:auto;image-rendering:auto;shape-rendering:auto;text-rendering:auto;enable-background:accumulate;stop-color:#000000;stop-opacity:1"
           d="m 103.52421,131.48827 h 4.59649 v 6.38428 h -4.59649 z"
           id="path1371" />
      </g>
      <g
         id="g1361"
         style="opacity:1">
        <path
           style="color:#000000;font-style:normal;font-variant:normal;font-weight:normal;font-stretch:normal;font-size:medium;line-height:normal;font-family:sans-serif;font-variant-ligatures:normal;font-variant-position:normal;font-variant-caps:normal;font-variant-numeric:normal;font-variant-alternates:normal;font-variant-east-asian:normal;font-feature-settings:normal;font-variation-settings:normal;text-indent:0;text-align:start;text-decoration:none;text-decoration-line:none;text-decoration-style:solid;text-decoration-color:#000000;letter-spacing:normal;word-spacing:normal;text-transform:none;writing-mode:lr-tb;direction:ltr;text-orientation:mixed;dominant-baseline:auto;baseline-shift:baseline;text-anchor:start;white-space:normal;shape-padding:0;shape-margin:0;inline-size:0;clip-rule:nonzero;display:inline;overflow:visible;visibility:visible;isolation:auto;mix-blend-mode:normal;color-interpolation:sRGB;color-interpolation-filters:linearRGB;solid-color:#000000;solid-opacity:1;vector-effect:none;fill:#3e3a39;fill-opacity:1;fill-rule:nonzero;stroke:none;stroke-width:0.513186;stroke-linecap:round;stroke-linejoin:round;stroke-miterlimit:10;stroke-dasharray:none;stroke-dashoffset:0;stroke-opacity:1;color-rendering:auto;image-rendering:auto;shape-rendering:auto;text-rendering:auto;enable-background:accumulate;stop-color:#000000;stop-opacity:1"
           d="m 123.23567,136.38306 h -34.6075 c -0.3175,0 -0.582083,-0.26458 -0.582083,-0.58208 v -20.26709 c 0,-0.3175 0.264583,-0.58208 0.582083,-0.58208 h 34.6075 c 0.3175,0 0.58208,0.26458 0.58208,0.58208 v 20.26709 c 0,0.3175 -0.26458,0.58208 -0.58208,0.58208 z"
           id="path1363" />
        <path
           style="color:#000000;font-style:normal;font-variant:normal;font-weight:normal;font-stretch:normal;font-size:medium;line-height:normal;font-family:sans-serif;font-variant-ligatures:normal;font-variant-position:normal;font-variant-caps:normal;font-variant-numeric:normal;font-variant-alternates:normal;font-variant-east-asian:normal;font-feature-settings:normal;font-variation-settings:normal;text-indent:0;text-align:start;text-decoration:none;text-decoration-line:none;text-decoration-style:solid;text-decoration-color:#000000;letter-spacing:normal;word-spacing:normal;text-transform:none;writing-mode:lr-tb;direction:ltr;text-orientation:mixed;dominant-baseline:auto;baseline-shift:baseline;text-anchor:start;white-space:normal;shape-padding:0;shape-margin:0;inline-size:0;clip-rule:nonzero;display:inline;overflow:visible;visibility:visible;isolation:auto;mix-blend-mode:normal;color-interpolation:sRGB;color-interpolation-filters:linearRGB;solid-color:#000000;solid-opacity:1;vector-effect:none;fill:#000000;fill-opacity:1;fill-rule:nonzero;stroke:none;stroke-width:0.513186;stroke-linecap:round;stroke-linejoin:round;stroke-miterlimit:10;stroke-dasharray:none;stroke-dashoffset:0;stroke-opacity:1;color-rendering:auto;image-rendering:auto;shape-rendering:auto;text-rendering:auto;enable-background:accumulate;stop-color:#000000;stop-opacity:1"
           d="m 88.628906,114.69531 c -0.46005,0 -0.839844,0.37784 -0.839844,0.83789 v 20.26758 c 0,0.46005 0.379794,0.83985 0.839844,0.83984 h 34.607424 c 0.46005,0 0.83789,-0.37979 0.83789,-0.83984 V 115.5332 c 0,-0.46005 -0.37784,-0.83789 -0.83789,-0.83789 z m 0,0.51367 h 34.607424 c 0.17495,0 0.32422,0.14927 0.32422,0.32422 v 20.26758 c 0,0.17495 -0.14927,0.32617 -0.32422,0.32617 H 88.628906 c -0.17495,0 -0.326172,-0.15122 -0.326172,-0.32617 V 115.5332 c 0,-0.17495 0.151222,-0.32422 0.326172,-0.32422 z"
           id="path1365" />
      </g>
      <path
         style="color:#000000;font-style:normal;font-variant:normal;font-weight:normal;font-stretch:normal;font-size:medium;line-height:normal;font-family:sans-serif;font-variant-ligatures:normal;font-variant-position:normal;font-variant-caps:normal;font-variant-numeric:normal;font-variant-alternates:normal;font-variant-east-asian:normal;font-feature-settings:normal;font-variation-settings:normal;text-indent:0;text-align:start;text-decoration:none;text-decoration-line:none;text-decoration-style:solid;text-decoration-color:#000000;letter-spacing:normal;word-spacing:normal;text-transform:none;writing-mode:lr-tb;direction:ltr;text-orientation:mixed;dominant-baseline:auto;baseline-shift:baseline;text-anchor:start;white-space:normal;shape-padding:0;shape-margin:0;inline-size:0;clip-rule:nonzero;display:inline;overflow:visible;visibility:visible;opacity:1;isolation:auto;mix-blend-mode:normal;color-interpolation:sRGB;color-interpolation-filters:linearRGB;solid-color:#000000;solid-opacity:1;vector-effect:none;fill:#000000;fill-opacity:1;fill-rule:nonzero;stroke:none;stroke-width:0.391694;stroke-linecap:round;stroke-linejoin:round;stroke-miterlimit:10;stroke-dasharray:none;stroke-dashoffset:0;stroke-opacity:1;color-rendering:auto;image-rendering:auto;shape-rendering:auto;text-rendering:auto;enable-background:accumulate;stop-color:#000000;stop-opacity:1"
         d="m 88.628906,114.75586 c -0.426216,0 -0.779297,0.35091 -0.779297,0.77734 v 20.26758 c 0,0.42644 0.353077,0.77735 0.779297,0.77734 h 14.699214 v 0.61524 h -4.355464 a 0.19586659,0.19586659 0 0 0 -0.195312,0.19531 v 3.01563 a 0.19586659,0.19586659 0 0 0 0.195312,0.19531 h 14.076174 a 0.19586659,0.19586659 0 0 0 0.19531,-0.19531 v -3.01563 a 0.19586659,0.19586659 0 0 0 -0.19531,-0.19531 h -4.67188 v -0.61524 h 14.85938 c 0.42622,0 0.77734,-0.3509 0.77734,-0.77734 V 115.5332 c 0,-0.42643 -0.35113,-0.77734 -0.77734,-0.77734 z m 0,0.39258 h 34.607424 c 0.20878,0 0.38476,0.1762 0.38476,0.38476 v 20.26758 c 0,0.20857 -0.17598,0.38672 -0.38476,0.38672 h -15.05469 a 0.19586659,0.19586659 0 0 0 -0.19726,0.19531 v 1.00586 a 0.19586659,0.19586659 0 0 0 0.19726,0.19531 h 4.67188 v 2.625 H 99.169922 v -2.625 h 4.353518 a 0.19586659,0.19586659 0 0 0 0.19726,-0.19531 v -1.00586 a 0.19586659,0.19586659 0 0 0 -0.19726,-0.19531 H 88.628906 c -0.208779,0 -0.386718,-0.17815 -0.386718,-0.38672 V 115.5332 c 0,-0.20856 0.177934,-0.38476 0.386718,-0.38476 z"
         id="path1359" />
      <path
         id="rect17"
         style="fill:#00ffff;stroke:none;stroke-width:0.422989;stroke-linejoin:round;stroke-miterlimit:10"
         d="m 90.374415,117.20077 h 31.326675 v 16.64229 H 90.374415 Z" />
      <path
         sodipodi:nodetypes="ccccc"
         id="path1635"
         d="m 113.50582,118.28048 c 0,0 6.31926,-0.55098 7.34551,-0.21425 0.19953,0.0735 -0.16306,1.97333 -0.19124,2.07747 -0.59722,5.68394 -1.16823,5.69128 -4.35435,1.28066 -0.44237,-0.61237 -2.79992,-3.14388 -2.79992,-3.14388 z"
         style="font-variation-settings:normal;vector-effect:none;fill:#9cffff;fill-opacity:1;stroke:none;stroke-width:0.422989;stroke-linecap:butt;stroke-linejoin:round;stroke-miterlimit:10;stroke-dasharray:none;stroke-dashoffset:0;stroke-opacity:1;stop-color:#000000" />
    </g>
  </g>
</svg>
