<?xml version="1.0" encoding="UTF-8" standalone="no"?>
<svg
   xmlns:dc="http://purl.org/dc/elements/1.1/"
   xmlns:cc="http://creativecommons.org/ns#"
   xmlns:rdf="http://www.w3.org/1999/02/22-rdf-syntax-ns#"
   xmlns:svg="http://www.w3.org/2000/svg"
   xmlns="http://www.w3.org/2000/svg"
   xmlns:sodipodi="http://sodipodi.sourceforge.net/DTD/sodipodi-0.dtd"
   xmlns:inkscape="http://www.inkscape.org/namespaces/inkscape"
   width="250.47165mm"
   height="89.350929mm"
   viewBox="0 0 250.47165 89.350929"
   version="1.1"
   id="svg8"
   inkscape:version="1.0 (4035a4fb49, 2020-05-01)"
   sodipodi:docname="red_blue_v2.svg">
  <defs
     id="defs2" />
  <sodipodi:namedview
     id="base"
     pagecolor="#ffffff"
     bordercolor="#666666"
     borderopacity="1.0"
     inkscape:pageopacity="0.0"
     inkscape:pageshadow="2"
     inkscape:zoom="0.49497475"
     inkscape:cx="566.84282"
     inkscape:cy="318.67993"
     inkscape:document-units="mm"
     inkscape:current-layer="layer1"
     inkscape:document-rotation="0"
     showgrid="false"
     width="200mm"
     inkscape:window-width="1680"
     inkscape:window-height="987"
     inkscape:window-x="-8"
     inkscape:window-y="222"
     inkscape:window-maximized="1"
     inkscape:snap-global="false"
     fit-margin-top="0"
     fit-margin-left="0"
     fit-margin-right="0"
     fit-margin-bottom="0" />
  <metadata
     id="metadata5">
    <rdf:RDF>
      <cc:Work
         rdf:about="">
        <dc:format>image/svg+xml</dc:format>
        <dc:type
           rdf:resource="http://purl.org/dc/dcmitype/StillImage" />
        <dc:title />
      </cc:Work>
    </rdf:RDF>
  </metadata>
  <g
     inkscape:label="Calque 1"
     inkscape:groupmode="layer"
     id="layer1"
     transform="translate(56.114948,-164.03212)">
    <g
       style="stroke-width:0.987052"
       transform="matrix(0,1.0264087,-0.99999999,0,221.87473,209.26901)"
       id="g1095">
      <path
         inkscape:connector-curvature="0"
         id="path9064-0-4-2-0-4-9-7-8-0-2-1-67-3-6-7-8"
         style="color:#000000;fill:#ff0000;fill-opacity:1;stroke-width:0.376952"
         d="m -15.747337,222.34231 c -3.0164,-31.48755 7.3195991,-60.43845 23.0858692,-64.66301 15.7662808,-4.22456 30.9929408,17.87685 34.0093408,49.36439 3.01639,31.48755 -7.31964,60.43845 -23.08591,64.66301 -15.7662709,4.22456 -30.9929,-17.87685 -34.0093,-49.36439 z" />
      <path
         d="M 12.439256,276.23711 C 29.345849,271.707 40.575719,240.94952 37.527042,207.53089 34.478146,174.10986 18.304469,150.68838 1.3990748,155.21816 c -0.81816733,0.21923 -1.62321177,0.49928 -2.4138708,0.83873 15.99269,-1.77623 30.783495,20.97471 33.684718,52.777 2.901223,31.80228 -7.132886,61.19586 -22.6784464,67.87024 0.8133444,-0.0903 1.6299674,-0.24481 2.4480544,-0.46402 z"
         style="color:#000000;fill:#d5b04f;stroke-width:0.439469"
         id="path7395-7-0-8-9-1-7-6-9-4-7-03-2-1-2-9-6-1"
         inkscape:connector-curvature="0" />
      <path
         d="m 16.794898,274.42819 c 1.904475,-1.08235 3.714968,-2.51409 5.418083,-4.254 -1.309723,0.19583 -2.863414,0.51919 -4.529708,0.95461 -1.56522,1.64929 -3.222502,3.04025 -4.96316,4.13212 1.188122,-0.17568 2.57887,-0.45722 4.074785,-0.83273 z m 5.006732,-8.44311 c 1.875367,-0.5025 3.595677,-1.07152 4.997507,-1.62697 0.542377,-0.83906 1.067791,-1.71104 1.576677,-2.6201 -1.144681,0.0545 -2.719822,0.2895 -4.520427,0.6834 -0.682584,1.2589 -1.394119,2.45716 -2.139002,3.58651 0.02878,-0.008 0.05655,-0.0152 0.08529,-0.0229 z m 4.720818,-8.38585 c 1.770011,-0.50621 3.369872,-1.06534 4.645627,-1.59985 0.331888,-0.78303 0.655416,-1.58229 0.965699,-2.39884 -1.180321,0.0637 -2.801578,0.3147 -4.642744,0.7258 -0.42901,1.15858 -0.880598,2.28329 -1.352408,3.37574 0.127521,-0.0352 0.257992,-0.0671 0.383866,-0.10286 z m 3.054313,-7.91996 c 1.649671,-0.47179 3.153443,-0.98915 4.383677,-1.49128 0.241977,-0.81356 0.469435,-1.64132 0.691412,-2.47889 -1.262039,0.11265 -2.90489,0.39352 -4.73554,0.82744 -0.289845,1.11822 -0.592464,2.22163 -0.917685,3.29764 0.19368,-0.0509 0.388571,-0.10064 0.578136,-0.15491 z m 1.353236,-7.46416 c 1.850911,-0.50309 3.546046,-1.06534 4.920798,-1.61602 0.169327,-0.82499 0.330339,-1.65676 0.480793,-2.49923 -1.307774,0.14181 -2.959501,0.4398 -4.783261,0.88822 -0.190207,1.09113 -0.396607,2.16497 -0.618289,3.22704 z m 2.195773,-7.69944 c 1.430474,-0.38329 2.771667,-0.80638 3.950962,-1.2314 0.119334,-0.91253 0.223363,-1.83531 0.320762,-2.76344 -1.331112,0.21271 -2.884041,0.55205 -4.545274,0.99718 -0.09584,0.0257 -0.189239,0.0502 -0.284312,0.0762 -0.109368,1.06397 -0.233699,2.11739 -0.371864,3.161 0.305567,-0.0761 0.615997,-0.15548 0.929644,-0.23952 z m 1.598773,-7.53947 c 1.081338,-0.28974 2.107486,-0.60597 3.056649,-0.92459 0.06146,-0.94866 0.107587,-1.90926 0.145948,-2.87015 -1.069253,0.20411 -2.243501,0.46679 -3.476067,0.79705 -0.468792,0.12562 -0.925059,0.25432 -1.372533,0.38697 -0.0401,1.02983 -0.09547,2.05056 -0.162028,3.06639 0.584849,-0.13473 1.188289,-0.28963 1.807989,-0.45568 z m 2.039469,-7.65756 c 0.432569,-0.12369 0.845868,-0.25576 1.256247,-0.38457 0.0038,-0.98321 -0.0064,-1.96572 -0.02713,-2.9581 -0.760439,0.16537 -1.557655,0.35979 -2.384095,0.58124 -0.860531,0.23058 -1.686401,0.47756 -2.467583,0.72836 0.02032,0.97763 0.02724,1.95194 0.02369,2.92063 0.858466,-0.18005 1.769541,-0.39737 2.717435,-0.65136 0.29878,-0.08 0.590874,-0.15306 0.881433,-0.23618 z m -1.513827,-6.69593 c 0.905251,-0.24256 1.774736,-0.49697 2.590891,-0.7614 -0.05274,-0.95691 -0.118184,-1.91246 -0.194301,-2.87492 -0.844166,0.17798 -1.739788,0.3894 -2.669977,0.63864 -0.759779,0.20358 -1.490292,0.4147 -2.189858,0.63474 0.07739,0.97851 0.145055,1.94907 0.19858,2.92177 0.725294,-0.15972 1.481025,-0.34888 2.264662,-0.55885 z m -0.633243,-6.9414 c 0.923076,-0.24734 1.807393,-0.51361 2.637504,-0.78349 -0.108307,-0.95295 -0.225941,-1.89685 -0.355426,-2.83175 -0.810403,0.1731 -1.667679,0.37967 -2.555385,0.61754 -0.802501,0.21502 -1.572929,0.44279 -2.307418,0.67585 0.131111,0.94622 0.254164,1.90329 0.363579,2.86794 0.711019,-0.15733 1.450692,-0.34074 2.217344,-0.54617 z m -0.633243,-6.94141 c 0.795627,-0.21319 1.559807,-0.43987 2.288462,-0.67077 -0.167349,-0.95457 -0.345866,-1.89939 -0.535042,-2.83162 -0.652931,0.14728 -1.328577,0.3176 -2.026929,0.50472 -0.994174,0.26639 -1.941408,0.55185 -2.8262,0.84365 0.185245,0.91489 0.365642,1.83903 0.52988,2.77542 0.81482,-0.17379 1.676807,-0.38212 2.569669,-0.62136 z m 0.24819,-7.17758 c 0.221173,-0.0632 0.427096,-0.12669 0.642769,-0.19143 -0.23371,-0.96055 -0.478668,-1.91291 -0.735299,-2.84511 -0.349052,0.0859 -0.702521,0.17866 -1.062367,0.27508 -1.355739,0.36327 -2.628813,0.75934 -3.763117,1.16187 0.235562,0.86014 0.463849,1.72624 0.679911,2.61048 1.036847,-0.20118 2.170508,-0.45683 3.356635,-0.77465 0.29878,-0.0801 0.590874,-0.15307 0.881432,-0.23618 z m -3.973245,-6.03694 c 0.962162,-0.25781 1.881622,-0.52952 2.741689,-0.8114 -0.294804,-0.91397 -0.599543,-1.81972 -0.91635,-2.70067 -0.674781,0.15109 -1.374878,0.32043 -2.098727,0.51438 -0.965719,0.25877 -1.888008,0.53089 -2.751241,0.81397 0.317112,0.8825 0.621271,1.78502 0.91635,2.70067 0.67788,-0.15168 1.380952,-0.32206 2.108279,-0.51695 z m -1.528863,-6.70142 c 0.655629,-0.17568 1.289639,-0.35945 1.901482,-0.54789 -0.385755,-0.92271 -0.787918,-1.82422 -1.197988,-2.70198 -0.32117,0.0797 -0.646929,0.16377 -0.977042,0.25222 -1.378199,0.36929 -2.671475,0.77728 -3.819132,1.18648 0.380821,0.8197 0.753112,1.65496 1.112841,2.51363 0.933562,-0.18984 1.934109,-0.42227 2.979838,-0.70248 z m -4.656459,-5.86339 c 1.251151,-0.33525 2.432461,-0.70138 3.499458,-1.07203 -0.470555,-0.85908 -0.956212,-1.68711 -1.450577,-2.49034 -0.742358,0.16251 -1.518249,0.34924 -2.322348,0.5647 -0.882711,0.23652 -1.730708,0.48735 -2.52933,0.74491 0.511901,0.83208 1.011497,1.6913 1.497865,2.58323 0.427089,-0.10298 0.860801,-0.21145 1.304854,-0.33043 z m -2.86441,-6.33405 c 0.886108,-0.23743 1.737533,-0.48883 2.538721,-0.74742 -0.642788,-0.86704 -1.300588,-1.68994 -1.972625,-2.46561 -0.276277,0.0696 -0.556808,0.13962 -0.839642,0.21541 -1.413609,0.37877 -2.739377,0.79052 -3.909214,1.21061 0.637361,0.74203 1.263701,1.52346 1.874599,2.34791 0.738083,-0.16181 1.509098,-0.34678 2.308242,-0.56091 z m -6.225052,-5.44309 c 1.258584,-0.33723 2.446496,-0.70414 3.518401,-1.0771 -0.922823,-0.80769 -1.86491,-1.53394 -2.824295,-2.17021 -0.31808,0.079 -0.640735,0.16211 -0.96757,0.24969 -1.346428,0.36077 -2.611435,0.75595 -3.739498,1.15554 0.940885,0.63453 1.869152,1.35515 2.774454,2.15479 0.405846,-0.0984 0.817599,-0.19988 1.238552,-0.31267 z M 6.8679752,156.247 c 1.1257793,-0.30165 2.1936886,-0.63358 3.1742108,-0.96569 -2.8167343,-0.79661 -5.7222977,-0.8467 -8.64703,-0.063 -0.68552289,0.18369 -1.35935715,0.40888 -2.02578063,0.67716 -0.0919146,0.0507 -0.18025152,0.098 -0.26328805,0.14732 2.10200608,-0.21679 4.18395178,-0.006 6.21922448,0.58878 0.502226,-0.1186 1.0160878,-0.24339 1.5426291,-0.38448 z"
         id="path7397-4-6-5-8-9-6-0-2-6-5-1-2-4-1-2-2-3"
         inkscape:connector-curvature="0"
         style="fill:#c89c31;fill-rule:evenodd;stroke-width:0.439469" />
      <path
         inkscape:connector-curvature="0"
         id="path9060-8-0-1-1-3-5-3-4-5-9-4-0-2-1-4-2-6-7"
         style="color:#000000;fill:#eed175;stroke-width:0.37644"
         d="m -26.816658,225.01951 c -3.048769,-33.41963 7.992267,-64.13276 24.6606493,-68.59904 16.6683517,-4.46627 32.6525357,19.00548 35.7013037,52.42511 3.048769,33.41963 -7.992296,64.13277 -24.6606473,68.59904 -16.6683822,4.46628 -32.6525367,-19.00547 -35.7013057,-52.42511 z" />
      <path
         inkscape:connector-curvature="0"
         id="path9062-1-4-89-6-9-9-1-8-4-2-8-3-4-5-1-4-1-2"
         style="color:#000000;fill:#c89c31;stroke-width:0.37644"
         d="m -26.094963,224.37017 c -2.97085,-32.56552 7.788036,-62.49371 24.0303745,-66.84583 16.2423665,-4.35213 31.8180375,18.51974 34.7888875,51.08525 2.97085,32.56551 -7.788036,62.4937 -24.0304026,66.84583 -16.2423382,4.35212 -31.8180104,-18.51975 -34.7888594,-51.08525 z" />
      <path
         inkscape:connector-curvature="0"
         id="path9064-0-4-2-0-4-9-7-8-0-2-1-67-7-3-1-7-8-6"
         style="color:#000000;fill:#05a4ff;fill-opacity:1;stroke-width:0.37644"
         d="M -25.159336,223.9798 C -28.03528,192.45462 -17.620104,163.4825 -1.8966195,159.26941 13.826864,155.05631 28.904979,177.19752 31.780923,208.7227 34.656867,240.24788 24.241661,269.22 8.5181777,273.43309 -7.205307,277.64619 -22.283392,255.50498 -25.159336,223.9798 Z" />
      <path
         d="m -9.5762006,219.52073 c -1.1948864,-13.09796 3.132369,-25.13518 9.66510276,-26.88562 6.53273064,-1.75044 12.79732784,7.4487 13.99221384,20.54666 1.194886,13.09796 -3.132384,25.13518 -9.6651146,26.88562 -6.5327337,1.75044 -12.7973159,-7.4487 -13.992202,-20.54666 z"
         style="color:#000000;fill:#000000;fill-opacity:1;stroke:#000000;stroke-width:0.156403"
         id="path9064-0-4-2-0-4-9-7-8-0-2-1-67-7-3-1-7-8-7-9"
         inkscape:connector-curvature="0" />
    </g>
    <g
       style="stroke-width:0.987052"
       transform="matrix(0,-1.0264087,0.99999999,0,-83.524978,309.18061)"
       id="g1104">
      <path
         d="m 111.77955,224.37844 c 2.87594,-31.52518 -7.53924,-60.49729 -23.262718,-64.71039 -15.723486,-4.21309 -30.801601,17.92811 -33.677545,49.45329 -2.875945,31.52519 7.53926,60.4973 23.262745,64.7104 15.723483,4.21309 30.801568,-17.92812 33.677518,-49.4533 z"
         style="color:#000000;fill:#05a4ff;fill-opacity:1;stroke-width:0.376439"
         id="path9064-0-4-2-0-4-9-7-8-0-2-1-67-7-3-1-7-8-2-3"
         inkscape:connector-curvature="0" />
      <path
         d="M 83.27337,276.1232 C 66.320771,271.58076 55.174293,240.84562 58.371858,207.46688 61.569653,174.08575 77.901322,150.7066 94.85272,155.24871 c 0.820393,0.21983 1.627364,0.50039 2.419651,0.84028 -16.046514,-1.79065 -30.987272,20.92011 -34.030182,52.68443 -3.04291,31.76432 6.908838,61.13583 22.486399,67.81879 -0.816082,-0.0911 -1.635191,-0.24621 -2.455505,-0.46602 z"
         style="color:#000000;fill:#d5b04f;stroke-width:0.440066"
         id="path7395-7-0-8-9-1-7-6-9-4-7-03-0-6-0"
         inkscape:connector-curvature="0" />
      <path
         d="m 78.908512,274.31181 c -1.907308,-1.08312 -3.718841,-2.51513 -5.42132,-4.25488 1.313925,0.19697 2.872226,0.52156 4.543099,0.95821 1.564429,1.64907 3.222332,3.0402 4.965158,4.13265 -1.19194,-0.1767 -2.586848,-0.45936 -4.086937,-0.83598 z m -4.991194,-8.43895 c -1.88047,-0.50387 -3.605017,-1.07402 -5.009924,-1.6303 -0.541004,-0.83869 -1.064844,-1.71025 -1.571943,-2.61883 1.148832,0.0556 2.729027,0.29197 4.534896,0.68728 0.680023,1.25821 1.389356,2.45588 2.132449,3.58475 -0.02886,-0.008 -0.05671,-0.0152 -0.08552,-0.0229 z m -4.704421,-8.38145 c -1.774697,-0.50748 -3.378375,-1.06762 -4.656812,-1.60286 -0.32994,-0.7825 -0.651422,-1.58122 -0.959537,-2.39719 1.184569,0.0649 2.810992,0.31723 4.657506,0.72976 0.425891,1.15775 0.874587,2.28168 1.343713,3.37341 -0.127864,-0.0353 -0.258702,-0.0673 -0.38491,-0.10314 z m -3.033462,-7.91438 c -1.654037,-0.47296 -3.161431,-0.99129 -4.394306,-1.49413 -0.23956,-0.81292 -0.464488,-1.64 -0.683874,-2.47687 1.2664,0.11382 2.914376,0.39606 4.75024,0.83138 0.28636,1.11728 0.585605,2.21979 0.90765,3.29495 -0.194211,-0.0511 -0.389643,-0.10093 -0.57971,-0.15533 z m -1.327754,-7.45734 c -1.855919,-0.50443 -3.555223,-1.06779 -4.932968,-1.61927 -0.166586,-0.82426 -0.324797,-1.65528 -0.472367,-2.49698 1.312189,0.14299 2.969005,0.44235 4.797893,0.89214 0.186453,1.09012 0.389232,2.163 0.6074,3.22412 z m -2.172546,-7.69321 c -1.434367,-0.38434 -2.778948,-0.80833 -3.961005,-1.23409 -0.116042,-0.91165 -0.216679,-1.83352 -0.310639,-2.76073 1.335325,0.21384 2.892795,0.5544 4.558549,1.00073 0.0961,0.0257 0.189756,0.0504 0.285086,0.0764 0.105416,1.06292 0.225897,2.11531 0.360304,3.15791 -0.306422,-0.0763 -0.617713,-0.15594 -0.932213,-0.24021 z m -1.573922,-7.53281 c -1.08428,-0.29053 -2.113051,-0.60746 -3.064533,-0.9267 -0.0578,-0.94768 -0.100158,-1.90727 -0.134719,-2.86715 1.0725,0.20498 2.250157,0.46858 3.486077,0.79974 0.470068,0.12595 0.927551,0.25499 1.37619,0.38795 0.03602,1.02874 0.08742,2.0484 0.150055,3.06318 -0.586531,-0.13519 -1.191641,-0.29053 -1.813028,-0.45703 z m -2.015816,-7.65122 c -0.433715,-0.124 -0.848051,-0.25635 -1.259469,-0.38544 1.98e-4,-0.98213 0.01449,-1.96354 0.03938,-2.95481 0.762667,0.16596 1.562131,0.36099 2.39082,0.58303 0.862872,0.23121 1.690885,0.47877 2.474022,0.7301 -0.02441,0.97652 -0.03536,1.94975 -0.03578,2.91739 -0.861007,-0.18073 -1.774672,-0.39875 -2.725145,-0.65343 -0.299593,-0.0803 -0.592504,-0.1535 -0.883831,-0.23682 z m 1.54711,-6.68702 c -0.907715,-0.24322 -1.779478,-0.49823 -2.597667,-0.76321 0.05687,-0.9558 0.12649,-1.91024 0.206851,-2.87156 0.846661,0.17865 1.744837,0.39075 2.677558,0.64067 0.761846,0.20414 1.494284,0.41577 2.19562,0.63628 -0.08171,0.97736 -0.153614,1.94679 -0.211338,2.91835 -0.72741,-0.16028 -1.485252,-0.35 -2.271022,-0.56055 z m 0.664168,-6.93311 c -0.925588,-0.24802 -1.812191,-0.51489 -2.644366,-0.78533 0.112634,-0.95179 0.234594,-1.89453 0.368413,-2.82827 0.81279,0.17374 1.672493,0.38097 2.562615,0.61947 0.804685,0.21562 1.577122,0.44392 2.31346,0.67748 -0.135497,0.94504 -0.262951,1.90093 -0.376746,2.86441 -0.713089,-0.15789 -1.454836,-0.34185 -2.223574,-0.54784 z m 0.664168,-6.93312 c -0.797792,-0.21377 -1.563961,-0.44099 -2.294453,-0.67238 0.171909,-0.95335 0.354988,-1.89695 0.548716,-2.82795 0.654821,0.14778 1.332349,0.31861 2.032602,0.50624 0.996879,0.26711 1.946561,0.55322 2.833536,0.84561 -0.18971,0.9137 -0.374592,1.83663 -0.543302,2.77182 -0.81722,-0.17443 -1.681646,-0.38341 -2.576938,-0.6233 z m -0.219662,-7.16994 c -0.221759,-0.0634 -0.428208,-0.12699 -0.64444,-0.19188 0.238548,-0.95926 0.488353,-1.91031 0.749793,-2.84123 0.350033,0.0862 0.704472,0.17919 1.065298,0.27587 1.359428,0.36426 2.63574,0.7612 3.772726,1.16445 -0.239994,0.85894 -0.47271,1.72386 -0.693229,2.60691 -1.039984,-0.20203 -2.176928,-0.45855 -3.366282,-0.77724 -0.299593,-0.0803 -0.592504,-0.1535 -0.883831,-0.23682 z m 4.01322,-6.02623 c -0.96478,-0.25851 -1.886638,-0.53087 -2.748834,-0.81332 0.299683,-0.91266 0.609306,-1.8171 0.930942,-2.69676 0.676739,0.15162 1.378816,0.32149 2.104635,0.51597 0.968347,0.25947 1.893043,0.53224 2.758413,0.81589 -0.321948,0.88121 -0.630976,1.78242 -0.930943,2.69676 -0.679847,-0.15221 -1.384907,-0.32312 -2.114213,-0.51854 z m 1.562226,-6.69248 c -0.657413,-0.17616 -1.293091,-0.36037 -1.906499,-0.54924 0.391018,-0.92129 0.798421,-1.8214 1.213662,-2.69778 0.322071,0.0799 0.648729,0.16426 0.97974,0.25295 1.38195,0.37029 2.678493,0.77916 3.828855,1.18908 -0.385642,0.81841 -0.762786,1.65237 -1.127417,2.50973 -0.936349,-0.19059 -1.939765,-0.42379 -2.98834,-0.70476 z m 4.698332,-5.85217 c -1.254555,-0.33616 -2.438876,-0.7031 -3.508428,-1.07444 0.475881,-0.85764 0.966794,-1.68427 1.466346,-2.4861 0.744528,0.16308 1.522617,0.3504 2.328905,0.56645 0.885113,0.23716 1.735321,0.48859 2.535937,0.74667 -0.517275,0.83065 -1.022309,1.68841 -1.514198,2.57887 -0.428298,-0.10331 -0.863222,-0.21211 -1.308484,-0.33141 z m 2.901368,-6.32414 c -0.888519,-0.23808 -1.742165,-0.49008 -2.545353,-0.74921 0.648805,-0.86542 1.312498,-1.68675 1.990289,-2.46087 0.277047,0.0698 0.558363,0.14004 0.841966,0.21603 1.417455,0.3798 2.7466,0.79245 3.919182,1.21328 -0.642844,0.74056 -1.274787,1.52049 -1.891405,2.34341 -0.740239,-0.16238 -1.513441,-0.34794 -2.31476,-0.56266 z m 6.271195,-5.43073 c -1.262009,-0.33815 -2.452954,-0.70588 -3.527424,-1.07952 0.929666,-0.80586 1.878336,-1.53034 2.844001,-2.16493 0.318971,0.0792 0.642518,0.16259 0.970242,0.2504 1.350091,0.36176 2.61831,0.75779 3.749043,1.1581 -0.947086,0.63287 -1.88186,1.35175 -2.793905,2.14958 -0.406993,-0.0987 -0.819902,-0.20049 -1.242001,-0.3136 z m 8.167172,-4.92269 c -1.128843,-0.30248 -2.19947,-0.63513 -3.182376,-0.96788 2.830771,-0.79284 5.747644,-0.83991 8.680335,-0.0541 0.687388,0.18418 1.362873,0.40982 2.030741,0.67849 0.09206,0.0508 0.180538,0.0981 0.26369,0.14743 -2.109149,-0.21871 -4.199917,-0.0102 -6.24541,0.58176 -0.503658,-0.11899 -1.018971,-0.24417 -1.546946,-0.38564 z"
         id="path7397-4-6-5-8-9-6-0-2-6-5-1-1-2-2"
         inkscape:connector-curvature="0"
         style="fill:#c89c31;fill-rule:evenodd;stroke-width:0.440066" />
      <path
         inkscape:connector-curvature="0"
         id="path9060-8-0-1-1-3-5-3-4-5-9-4-0-8-67-8"
         style="color:#000000;fill:#eed175;stroke-width:0.376952"
         d="m 122.88963,225.00216 c 3.19766,-33.37974 -7.75944,-64.07038 -24.473184,-68.54882 -16.71371,-4.47842 -32.855368,18.95113 -36.053029,52.33087 -3.197662,33.37974 7.759471,64.07039 24.473182,68.54882 16.713741,4.47843 32.855371,-18.95113 36.053031,-52.33087 z" />
      <path
         inkscape:connector-curvature="0"
         id="path9062-1-4-89-6-9-9-1-8-4-2-8-3-6-5-7"
         style="color:#000000;fill:#c89c31;stroke-width:0.376952"
         d="m 122.16784,224.35279 c 3.11594,-32.52664 -7.56116,-62.43292 -23.847697,-66.79688 -16.286565,-4.36397 -32.015687,18.46678 -35.131624,50.99341 -3.115937,32.52664 7.561163,62.43292 23.847729,66.79689 16.286542,4.36396 32.015662,-18.46679 35.131592,-50.99342 z" />
      <path
         inkscape:connector-curvature="0"
         id="path9064-0-4-2-0-4-9-7-8-0-2-1-67-3-6-76"
         style="color:#000000;fill:#ff0000;fill-opacity:1;stroke-width:0.376952"
         d="m 121.23024,223.96189 c 3.0164,-31.48755 -7.3196,-60.43845 -23.085874,-64.66301 -15.766271,-4.22456 -30.992933,17.87685 -34.009329,49.3644 -3.016396,31.48754 7.319635,60.43845 23.085906,64.66301 15.766277,4.22456 30.992907,-17.87685 34.009297,-49.3644 z" />
      <path
         inkscape:connector-curvature="0"
         d="m 96.157611,218.11426 0.714808,1.2382 q 0.745801,1.28525 3.984871,1.53292 1.95169,0.17405 3.21284,2.37272 1.39874,2.42934 1.44925,5.23396 0.0822,4.32496 -0.90828,6.88944 -0.9868,2.52667 -3.00442,3.22654 -1.32086,0.46015 -2.719532,-1.96919 -1.319526,-2.33058 -1.704475,-6.27147 -0.641001,-6.45173 -1.489651,-7.95838 l -0.728522,-1.28062 -0.199135,2.07871 q -0.199135,2.07874 1.079555,8.35243 0.773378,3.77364 0.425798,7.40196 -0.383787,4.00629 -1.505634,5.72147 -1.703756,2.60593 -3.156037,2.21679 -1.452227,-0.38912 -2.583922,-3.7548 -0.745302,-2.2155 -0.361513,-6.22178 0.369304,-3.8551 1.787155,-6.80899 2.350396,-4.91363 2.58574,-7.37032 l 0.199133,-2.07873 -0.931277,0.83589 q -0.913943,0.84054 -2.9017,6.78171 -1.220104,3.66589 -2.790661,5.06702 -1.782467,1.57697 -2.951254,0.44971 -1.785902,-1.71902 -2.251387,-4.63484 -0.461805,-2.95361 0.424179,-7.01914 0.571877,-2.63786 2.35434,-4.21481 1.68883,-1.5245 3.495251,-0.5753 2.970441,1.57124 4.071769,0.62586 l 0.927656,-0.7981 -0.728521,-1.28064 q -0.728467,-1.28061 -3.984874,-1.53293 -1.951628,-0.17403 -3.212841,-2.37271 -1.398677,-2.42934 -1.449183,-5.23396 -0.08221,-4.32497 0.908217,-6.88945 1.035894,-2.66858 3.004476,-3.22652 1.38635,-0.40383 2.719534,1.96919 1.319466,2.33056 1.704471,6.27149 0.640945,6.4517 1.489652,7.95836 l 0.728523,1.28064 0.199135,-2.07874 q 0.199135,-2.07873 -1.079555,-8.35243 -0.773378,-3.77362 -0.425798,-7.40195 0.383788,-4.00629 1.505635,-5.72147 1.703755,-2.60593 3.15598,-2.21681 1.521456,0.40767 2.583977,3.75482 0.734436,2.32888 0.361516,6.22178 -0.369306,3.85509 -1.787157,6.80899 -2.350398,4.91365 -2.585739,7.37032 l -0.199135,2.07872 0.931279,-0.83589 q 0.990355,-0.89757 2.901697,-6.7817 1.181865,-3.63738 2.790665,-5.06702 1.78246,-1.57695 2.95126,-0.44971 1.7859,1.71902 2.25133,4.63482 0.46827,3.07163 -0.42413,7.01916 -0.58921,2.63321 -2.35439,4.21479 -1.68878,1.52452 -3.49526,0.57528 -3.022276,-1.5851 -4.071766,-0.62584 z"
         style="font-style:normal;font-variant:normal;font-weight:600;font-stretch:normal;font-size:62.5px;line-height:125%;font-family:FreeSans;-inkscape-font-specification:'FreeSans, Semi-Bold';text-align:start;letter-spacing:0px;word-spacing:0px;writing-mode:lr-tb;text-anchor:start;fill:#000000;fill-opacity:1;stroke:none;stroke-width:0.837326px;stroke-linecap:butt;stroke-linejoin:miter;stroke-opacity:1"
         id="path8366-5-5-7" />
    </g>
    <path
       id="path1127"
       d="m 50.38671,164.23961 c -23.409197,0.12448 -48.0035699,10.27125 -60.537108,28.45077 a 1.0825,1.1110875 0 0 0 0.2578132,1.54964 1.0825,1.1110875 0 0 0 1.509765,-0.26663 C 3.5942861,176.60096 27.594957,166.58408 50.39843,166.46283 c 22.800389,-0.12122 44.169199,9.5043 51.47852,31.02281 -0.0119,-0.035 0.0703,0.38066 0.11327,0.84999 0.0431,0.4715 0.0824,1.05432 0.12696,1.63985 0.017,0.22303 0.0432,0.42248 0.0625,0.6415 -6.234691,-3.51014 -13.852451,-6.7046 -20.656251,-8.08096 a 1.0825,1.1110875 0 0 0 -1.27148,0.87606 1.0825,1.1110875 0 0 0 0.85351,1.30506 c 7.23893,1.46438 15.95005,5.0918 22.216811,8.93497 a 1.0826082,1.1111985 0 0 0 0.38866,0.14233 c 0.10771,0.0439 0.14788,0.15888 0.27345,0.18042 0.55995,0.0961 1.12567,-0.19101 1.4375,-0.50919 0.62363,-0.63634 0.84644,-1.40505 1.10546,-2.37758 0.12443,-0.46724 0.16073,-1.24477 0.26562,-1.79421 0.38625,-1.22663 0.76323,-2.5063 1.02734,-3.98736 0.66623,-3.73598 0.92094,-7.95108 0.38477,-11.13212 l 0.0137,0.16038 c 5.3e-4,-0.11595 2.6e-4,-0.20173 0,-0.26864 -2e-4,-0.0335 7.9e-4,-0.0618 0,-0.0922 -7.9e-4,-0.0305 0.045,0.0928 -0.0273,-0.24057 -0.0181,-0.0833 -0.93145,-0.862 -0.93164,-0.86202 -2e-4,-3e-5 -1.16776,0.79712 -1.16797,0.79787 -5.3e-4,0.001 -0.0324,0.16714 -0.0352,0.19245 -0.005,0.0506 -0.008,0.07 -0.01,0.0982 -0.003,0.0564 -0.006,0.12336 -0.01,0.2125 -0.0161,0.35656 -0.0435,1.0412 -0.0859,1.9566 -0.0849,1.8308 -0.23244,4.57091 -0.47656,7.28709 -0.18685,2.07899 -0.48819,3.82005 -0.79297,5.42273 -0.0696,0.21313 -0.11567,0.53267 -0.1875,0.72771 -0.0767,0.20832 -0.12358,0.18677 -0.20508,0.37087 -0.004,-0.0495 -0.01,-0.0845 -0.0137,-0.13432 -0.0435,-0.57137 -0.0817,-1.16051 -0.12891,-1.67593 -0.0472,-0.51541 -0.0681,-0.89512 -0.21679,-1.35117 a 1.0826082,1.1111985 0 0 0 -0.004,-0.012 C 96.253329,174.16126 73.795909,164.11515 50.38671,164.23961 Z"
       style="color:#000000;font-style:normal;font-variant:normal;font-weight:normal;font-stretch:normal;font-size:medium;line-height:normal;font-family:sans-serif;font-variant-ligatures:normal;font-variant-position:normal;font-variant-caps:normal;font-variant-numeric:normal;font-variant-alternates:normal;font-variant-east-asian:normal;font-feature-settings:normal;font-variation-settings:normal;text-indent:0;text-align:start;text-decoration:none;text-decoration-line:none;text-decoration-style:solid;text-decoration-color:#000000;letter-spacing:normal;word-spacing:normal;text-transform:none;writing-mode:lr-tb;direction:ltr;text-orientation:mixed;dominant-baseline:auto;baseline-shift:baseline;text-anchor:start;white-space:normal;shape-padding:0;shape-margin:0;inline-size:0;clip-rule:nonzero;display:inline;overflow:visible;visibility:visible;opacity:1;isolation:auto;mix-blend-mode:normal;color-interpolation:sRGB;color-interpolation-filters:linearRGB;solid-color:#000000;solid-opacity:1;vector-effect:none;fill:#ffffff;fill-opacity:1;fill-rule:nonzero;stroke:#fefefe;stroke-width:4.99999;stroke-linecap:round;stroke-linejoin:round;stroke-miterlimit:4;stroke-dasharray:none;stroke-dashoffset:0;stroke-opacity:1;color-rendering:auto;image-rendering:auto;shape-rendering:auto;text-rendering:auto;enable-background:accumulate;stop-color:#000000;stop-opacity:1" />
    <path
       sodipodi:nodetypes="cccccc"
       id="path1108"
       d="M -9.2663238,193.33256 C 15.244319,157.78062 87.924869,153.0015 102.90381,197.12882 c 0.27169,0.83328 0.2746,4.74823 0.70179,5.34018 3.13455,3.96527 3.549,-21.78987 3.53063,-18.1392 1.00714,5.90299 -0.93803,16.71353 -3.25802,18.36765 -6.386701,-3.91671 -15.155781,-7.57232 -22.563391,-9.07082"
       style="fill:none;stroke:#000000;stroke-width:2.165;stroke-linecap:round;stroke-linejoin:round;stroke-miterlimit:4;stroke-dasharray:none;stroke-opacity:1" />
  </g>
</svg>
