<?xml version="1.0" encoding="UTF-8" standalone="no"?>
<svg
   xmlns:dc="http://purl.org/dc/elements/1.1/"
   xmlns:cc="http://creativecommons.org/ns#"
   xmlns:rdf="http://www.w3.org/1999/02/22-rdf-syntax-ns#"
   xmlns:svg="http://www.w3.org/2000/svg"
   xmlns="http://www.w3.org/2000/svg"
   xmlns:sodipodi="http://sodipodi.sourceforge.net/DTD/sodipodi-0.dtd"
   xmlns:inkscape="http://www.inkscape.org/namespaces/inkscape"
   sodipodi:docname="2021-CH-13_melon.svg"
   inkscape:version="1.0 (4035a4fb49, 2020-05-01)"
   id="svg2196"
   version="1.1"
   viewBox="0 0 13.233707 12.59129"
   height="12.59129mm"
   width="13.233707mm">
  <defs
     id="defs2190" />
  <sodipodi:namedview
     inkscape:window-maximized="1"
     inkscape:window-y="222"
     inkscape:window-x="-8"
     inkscape:window-height="987"
     inkscape:window-width="1680"
     fit-margin-bottom="0"
     fit-margin-right="0"
     fit-margin-left="0"
     fit-margin-top="0"
     showgrid="false"
     inkscape:document-rotation="0"
     inkscape:current-layer="layer1"
     inkscape:document-units="mm"
     inkscape:cy="180.93742"
     inkscape:cx="159.29429"
     inkscape:zoom="0.35"
     inkscape:pageshadow="2"
     inkscape:pageopacity="0.0"
     borderopacity="1.0"
     bordercolor="#666666"
     pagecolor="#ffffff"
     id="base" />
  <metadata
     id="metadata2193">
    <rdf:RDF>
      <cc:Work
         rdf:about="">
        <dc:format>image/svg+xml</dc:format>
        <dc:type
           rdf:resource="http://purl.org/dc/dcmitype/StillImage" />
        <dc:title></dc:title>
      </cc:Work>
    </rdf:RDF>
  </metadata>
  <g
     transform="translate(-63.686718,-100.29364)"
     id="layer1"
     inkscape:groupmode="layer"
     inkscape:label="Ebene 1">
    <g
       transform="translate(-38.540497,-24.435309)"
       id="g1997">
      <path
         style="font-variation-settings:normal;vector-effect:none;fill:none;fill-opacity:1;stroke:#000000;stroke-width:0.165885;stroke-linecap:round;stroke-linejoin:round;stroke-miterlimit:4;stroke-dasharray:none;stroke-dashoffset:0;stroke-opacity:1;paint-order:markers stroke fill;stop-color:#000000"
         d="m 103.44841,133.43306 c -0.0664,0.65967 -0.7008,0.83207 -0.80892,1.48414"
         id="path1796"
         sodipodi:nodetypes="cc" />
      <g
         id="g1962">
        <path
           id="path1806"
           d="m 103.05529,133.6909 c 0.0205,0.15373 -0.68041,1.60525 -0.68041,1.60992 0,0.0816 0.16002,-0.005 0.21924,0.044 0.49725,0.41364 0.79359,0.69172 1.42885,0.81754 1.37485,0.2723 2.74707,1.27115 4.18826,1.01878 0.98764,-0.17297 2.04539,-0.39355 2.99377,-0.76723 0.41507,-0.16356 0.7904,-0.46745 1.22472,-0.56599 0.97007,-0.22008 1.42936,-0.6296 2.24533,-1.18857 0.0894,-0.0613 0.49933,-0.31602 0.44604,-0.38991 -0.25705,-0.35638 -0.52966,-0.75179 -0.74088,-1.14455 -0.0926,-0.17227 -0.17936,-0.68266 -0.27972,-0.51568 -0.47605,0.792 -1.79935,0.77146 -2.5553,1.10683 -0.58231,0.25834 -1.11841,0.64758 -1.72368,0.84898 -1.7351,0.57733 -3.38263,0.81585 -5.13325,0.32072 -0.77312,-0.21865 -1.29931,-0.382 -1.63297,-1.19486 z"
           style="font-variation-settings:normal;opacity:1;vector-effect:none;fill:#9dea6a;fill-opacity:1;stroke:none;stroke-width:0.565999;stroke-linecap:round;stroke-linejoin:round;stroke-miterlimit:4;stroke-dasharray:none;stroke-dashoffset:0;stroke-opacity:1;paint-order:markers stroke fill;stop-color:#000000;stop-opacity:1" />
        <path
           id="path1822"
           d="m 115.2194,133.8916 a 0.20776064,0.23915936 0 0 0 -0.0932,0.0264 c -1.08396,0.62423 -1.24795,0.92599 -2.41606,1.44259 -1.42498,0.63019 -3.37306,1.27478 -5.25509,1.38647 -1.88203,0.11168 -3.6793,-0.30707 -4.8694,-1.7496 a 0.20776064,0.23915936 0 0 0 -0.29394,-0.008 0.20776064,0.23915936 0 0 0 -0.007,0.33836 c 1.30595,1.58297 3.24309,2.01215 5.192,1.8965 1.94892,-0.11565 3.92819,-0.77458 5.38272,-1.41784 1.2066,-0.53361 1.40317,-0.85597 2.45333,-1.46074 a 0.20776064,0.23915936 0 0 0 0.0932,-0.32186 0.20776064,0.23915936 0 0 0 -0.18639,-0.13204 z"
           style="color:#000000;font-style:normal;font-variant:normal;font-weight:normal;font-stretch:normal;font-size:medium;line-height:normal;font-family:sans-serif;font-variant-ligatures:normal;font-variant-position:normal;font-variant-caps:normal;font-variant-numeric:normal;font-variant-alternates:normal;font-variant-east-asian:normal;font-feature-settings:normal;font-variation-settings:normal;text-indent:0;text-align:start;text-decoration:none;text-decoration-line:none;text-decoration-style:solid;text-decoration-color:#000000;letter-spacing:normal;word-spacing:normal;text-transform:none;writing-mode:lr-tb;direction:ltr;text-orientation:mixed;dominant-baseline:auto;baseline-shift:baseline;text-anchor:start;white-space:normal;shape-padding:0;shape-margin:0;inline-size:0;clip-rule:nonzero;display:inline;overflow:visible;visibility:visible;opacity:1;isolation:auto;mix-blend-mode:normal;color-interpolation:sRGB;color-interpolation-filters:linearRGB;solid-color:#000000;solid-opacity:1;vector-effect:none;fill:#002b11;fill-opacity:1;fill-rule:nonzero;stroke:none;stroke-width:0.566;stroke-linecap:round;stroke-linejoin:round;stroke-miterlimit:4;stroke-dasharray:none;stroke-dashoffset:0;stroke-opacity:1;paint-order:markers stroke fill;color-rendering:auto;image-rendering:auto;shape-rendering:auto;text-rendering:auto;enable-background:accumulate;stop-color:#000000;stop-opacity:1" />
        <path
           sodipodi:nodetypes="cssccccssccc"
           id="path1802"
           d="m 108.16587,125.14451 c 0.61565,0.64867 0.768,1.2993 1.39104,1.94321 1.1924,1.23235 2.07032,2.77715 3.23569,4.03738 0.14151,0.15301 1.75008,1.6258 1.73881,1.65393 -0.38261,0.95484 -2.38565,1.81549 -3.20545,2.07528 -0.18036,0.0572 -0.37629,-0.0111 -0.55944,0.0378 -1.62164,1.23918 -7.71556,0.17184 -7.55248,-1.60362 0.30603,-0.77227 0.25562,-0.68437 0.40068,-0.9559 0.21129,-0.39544 0.1956,-0.92385 0.31753,-1.35208 0.0888,-0.31179 0.28097,-0.61028 0.39312,-0.91815 0.23667,-2.06945 1.12639,-3.02442 1.79928,-4.45871 0.41679,-1.52771 0.9163,-0.62473 2.04122,-0.45908 z"
           style="font-variation-settings:normal;opacity:1;vector-effect:none;fill:#ff2828;fill-opacity:1;stroke:none;stroke-width:0.165885;stroke-linecap:round;stroke-linejoin:round;stroke-miterlimit:4;stroke-dasharray:none;stroke-dashoffset:0;stroke-opacity:1;paint-order:markers stroke fill;stop-color:#000000;stop-opacity:1" />
        <path
           id="path1774"
           d="m 115.16646,133.76636 c -0.9247,-1.00153 -1.71371,-2.14411 -2.63845,-3.15694 -0.86451,-0.94686 -1.65828,-1.93026 -2.4797,-2.91799 -0.0324,-0.039 -1.89016,-2.3489 -1.98829,-2.38971 -0.0225,-0.009 -0.0837,0.80248 -0.0907,0.83012 -0.18103,0.70992 -0.48798,1.36735 -0.66528,2.07527 -0.46418,1.8534 -0.88833,3.7052 -1.37592,5.55296 -0.14804,0.56102 -0.31441,1.4664 -0.56701,1.88662"
           style="font-variation-settings:normal;opacity:1;vector-effect:none;fill:none;fill-opacity:1;stroke:#000000;stroke-width:0.165885;stroke-linecap:round;stroke-linejoin:round;stroke-miterlimit:4;stroke-dasharray:none;stroke-dashoffset:0;stroke-opacity:1;paint-order:markers stroke fill;stop-color:#000000;stop-opacity:1" />
        <path
           sodipodi:nodetypes="cssc"
           id="path1790"
           d="m 115.37798,134.18732 c -0.4715,0.36208 -1.63352,1.12604 -1.70841,1.17079 -1.47934,0.88392 -5.19685,1.79375 -6.78132,1.87778 -0.69628,0.0369 -2.60714,-0.72226 -1.24744,-1.85332"
           style="font-variation-settings:normal;opacity:1;vector-effect:none;fill:none;fill-opacity:1;stroke:#000000;stroke-width:0.165885;stroke-linecap:round;stroke-linejoin:round;stroke-miterlimit:4;stroke-dasharray:none;stroke-dashoffset:0;stroke-opacity:1;paint-order:markers stroke fill;stop-color:#000000;stop-opacity:1" />
        <path
           sodipodi:nodetypes="ccsssc"
           id="path1792"
           d="m 107.87859,125.308 c -0.19917,0.15018 -1.25046,-0.32559 -1.33057,-0.25154 -0.4445,0.41083 -0.27132,0.67361 -0.58969,1.2263 -0.96985,1.68369 -1.67535,3.52189 -2.1924,5.43347 -0.098,0.36222 -0.54914,1.35265 -0.40824,1.70425 0.45263,1.12958 1.90749,1.78421 2.76696,1.9558"
           style="font-variation-settings:normal;opacity:1;vector-effect:none;fill:none;fill-opacity:1;stroke:#000000;stroke-width:0.165885;stroke-linecap:round;stroke-linejoin:round;stroke-miterlimit:4;stroke-dasharray:none;stroke-dashoffset:0;stroke-opacity:1;paint-order:markers stroke fill;stop-color:#000000;stop-opacity:1" />
        <path
           id="path1794"
           d="m 102.64692,134.9964 c 0.37978,1.25054 1.36517,1.78036 2.4797,1.81745"
           style="font-variation-settings:normal;opacity:1;vector-effect:none;fill:none;fill-opacity:1;stroke:#000000;stroke-width:0.165885;stroke-linecap:round;stroke-linejoin:round;stroke-miterlimit:4;stroke-dasharray:none;stroke-dashoffset:0;stroke-opacity:1;paint-order:markers stroke fill;stop-color:#000000;stop-opacity:1" />
        <path
           id="path1800"
           d="m 105.61813,135.31339 c 2.5811,0.67413 6.5165,-0.90476 8.626,-2.48404"
           style="font-variation-settings:normal;opacity:1;vector-effect:none;fill:none;fill-opacity:1;stroke:#000000;stroke-width:0.165885;stroke-linecap:round;stroke-linejoin:round;stroke-miterlimit:4;stroke-dasharray:none;stroke-dashoffset:0;stroke-opacity:1;paint-order:markers stroke fill;stop-color:#000000;stop-opacity:1" />
        <path
           sodipodi:nodetypes="ccccc"
           id="path1808"
           d="m 108.97158,129.41585 c -0.4224,0.0958 -0.46228,-0.42832 -0.40717,-0.84627 0.0414,-0.10979 0.12676,-0.17852 0.21046,-0.20005 0.1338,0.0287 0.22858,0.11375 0.30248,0.229 0.22598,0.37902 0.25892,0.7502 -0.10577,0.81732 z"
           style="font-variation-settings:normal;opacity:1;vector-effect:none;fill:#000000;fill-opacity:1;stroke:none;stroke-width:0.565999;stroke-linecap:round;stroke-linejoin:round;stroke-miterlimit:4;stroke-dasharray:none;stroke-dashoffset:0;stroke-opacity:1;paint-order:markers stroke fill;stop-color:#000000;stop-opacity:1" />
        <path
           sodipodi:nodetypes="cssscc"
           id="path1810"
           d="m 111.80466,131.41411 c 0.0733,0.0921 0.11536,0.18658 0.1337,0.27822 0.0367,0.18329 -0.0217,0.35521 -0.11573,0.47391 -0.18818,0.23739 -0.51935,0.2619 -0.51935,-0.26134 0,-0.1827 0.005,-0.31167 0.0308,-0.42481 0.10028,-0.40303 0.24686,-0.28354 0.47062,-0.066 z"
           style="font-variation-settings:normal;opacity:1;vector-effect:none;fill:#000000;fill-opacity:1;stroke:none;stroke-width:0.565999;stroke-linecap:round;stroke-linejoin:round;stroke-miterlimit:4;stroke-dasharray:none;stroke-dashoffset:0;stroke-opacity:1;paint-order:markers stroke fill;stop-color:#000000;stop-opacity:1" />
        <path
           sodipodi:nodetypes="csscc"
           id="path1812"
           d="m 107.55859,132.12287 c 0.0976,0.102 0.21116,0.19633 0.24439,0.2977 0.0584,0.17828 -0.0706,0.35156 -0.14364,0.49052 -0.22921,0.4358 -0.44278,0.32984 -0.52346,0.0264 0.0695,-0.60153 -0.0277,-1.43551 0.42271,-0.81463 z"
           style="font-variation-settings:normal;opacity:1;vector-effect:none;fill:#000000;fill-opacity:1;stroke:none;stroke-width:0.565999;stroke-linecap:round;stroke-linejoin:round;stroke-miterlimit:4;stroke-dasharray:none;stroke-dashoffset:0;stroke-opacity:1;paint-order:markers stroke fill;stop-color:#000000;stop-opacity:1" />
        <path
           id="path1816"
           d="m 106.0415,128.12536 c 0.4916,-0.0973 -0.33831,2.05172 -0.46117,1.54074 -0.0419,-0.17429 0.17711,-0.29732 0.23437,-0.44021 0.15286,-0.38149 -0.007,-0.69129 0.2268,-1.10053 z"
           style="font-variation-settings:normal;opacity:1;vector-effect:none;fill:#000000;fill-opacity:1;stroke:none;stroke-width:0.565999;stroke-linecap:round;stroke-linejoin:round;stroke-miterlimit:4;stroke-dasharray:none;stroke-dashoffset:0;stroke-opacity:1;paint-order:markers stroke fill;stop-color:#000000;stop-opacity:1" />
        <path
           id="path1818"
           d="m 105.70129,131.70365 c 0.22203,2.40653 -1.32963,0.83908 0,0 z"
           style="font-variation-settings:normal;opacity:1;vector-effect:none;fill:#000000;fill-opacity:1;stroke:none;stroke-width:0.565999;stroke-linecap:round;stroke-linejoin:round;stroke-miterlimit:4;stroke-dasharray:none;stroke-dashoffset:0;stroke-opacity:1;paint-order:markers stroke fill;stop-color:#000000;stop-opacity:1" />
        <path
           sodipodi:nodetypes="cssscc"
           id="path1814"
           d="m 109.63363,131.02336 c 0.0748,0.10227 0.11587,0.1992 0.13132,0.2876 0.0309,0.1768 -0.0407,0.31944 -0.14995,0.40232 -0.21845,0.16578 -0.58729,0.0925 -0.58729,-0.42468 0,-0.14563 0.0442,-0.21981 0.10036,-0.29361 0.17913,-0.35675 0.2793,-0.21981 0.50556,0.0284 z"
           style="font-variation-settings:normal;opacity:1;vector-effect:none;fill:#000000;fill-opacity:1;stroke:none;stroke-width:0.565999;stroke-linecap:round;stroke-linejoin:round;stroke-miterlimit:4;stroke-dasharray:none;stroke-dashoffset:0;stroke-opacity:1;paint-order:markers stroke fill;stop-color:#000000;stop-opacity:1" />
      </g>
    </g>
  </g>
</svg>
