<?xml version="1.0" encoding="UTF-8" standalone="no"?>
<svg
   xmlns:dc="http://purl.org/dc/elements/1.1/"
   xmlns:cc="http://creativecommons.org/ns#"
   xmlns:rdf="http://www.w3.org/1999/02/22-rdf-syntax-ns#"
   xmlns:svg="http://www.w3.org/2000/svg"
   xmlns="http://www.w3.org/2000/svg"
   xmlns:sodipodi="http://sodipodi.sourceforge.net/DTD/sodipodi-0.dtd"
   xmlns:inkscape="http://www.inkscape.org/namespaces/inkscape"
   sodipodi:docname="2021-HU-05c-answerB_background.svg"
   inkscape:version="1.0 (4035a4fb49, 2020-05-01)"
   id="svg856"
   version="1.1"
   viewBox="0 0 30 30"
   height="30mm"
   width="30mm">
  <defs
     id="defs850" />
  <sodipodi:namedview
     inkscape:window-maximized="1"
     inkscape:window-y="222"
     inkscape:window-x="-8"
     inkscape:window-height="987"
     inkscape:window-width="1680"
     showgrid="false"
     inkscape:document-rotation="0"
     inkscape:current-layer="layer1"
     inkscape:document-units="mm"
     inkscape:cy="560"
     inkscape:cx="400"
     inkscape:zoom="0.35927152"
     inkscape:pageshadow="2"
     inkscape:pageopacity="0.0"
     borderopacity="1.0"
     bordercolor="#666666"
     pagecolor="#ffffff"
     id="base" />
  <metadata
     id="metadata853">
    <rdf:RDF>
      <cc:Work
         rdf:about="">
        <dc:format>image/svg+xml</dc:format>
        <dc:type
           rdf:resource="http://purl.org/dc/dcmitype/StillImage" />
        <dc:title></dc:title>
      </cc:Work>
    </rdf:RDF>
  </metadata>
  <g
     id="layer1"
     inkscape:groupmode="layer"
     inkscape:label="Ebene 1">
    <rect
       style="fill:#ffffff;fill-opacity:1;stroke:none;stroke-width:1.55998;stroke-linecap:round;stroke-linejoin:round;paint-order:markers fill stroke;stop-color:#000000"
       id="rect840"
       width="30.000002"
       height="30.000002"
       x="-9.5367432e-07"
       y="-9.5367432e-07" />
    <path
       id="path1090"
       style="font-variation-settings:normal;opacity:1;vector-effect:none;fill:#008000;fill-opacity:1;stroke:none;stroke-width:0.191549px;stroke-linecap:butt;stroke-linejoin:miter;stroke-miterlimit:4;stroke-dasharray:none;stroke-dashoffset:0;stroke-opacity:1;stop-color:#000000;stop-opacity:1"
       d="M 4.4741933,1.7412221 C 4.0876333,12.861791 -0.16429171,29.508214 20.987137,24.125933 c 1.345538,0.98643 1.567179,2.42715 1.848458,4.0272 1.147938,-0.0084 2.031355,0.522307 3.292248,-0.719375 0.0077,-1.674489 -1.365809,-3.926862 -2.60956,-5.041469 C 30.167383,12.654303 18.043449,4.4040372 5.2886503,1.9447431 5.0171673,1.8768731 4.7540333,1.7412221 4.4741933,1.7412221 Z M 7.1069282,4.086271 c 0.08847,-4.789e-4 0.1748521,0.02687 0.2469182,0.07819 3.6255506,2.5577 6.0084276,5.983921 8.1868556,9.342135 2.178427,3.358215 3.129324,5.560884 5.895356,7.915308 0.177992,0.150887 0.19962,0.417635 0.04826,0.595226 -0.151228,0.176801 -0.417075,0.197728 -0.594104,0.04676 -2.908641,-2.475814 -3.88871,-4.75591 -6.056602,-8.097879 C 12.665724,10.624039 10.344644,7.3061131 6.8671155,4.8528372 6.6764432,4.7186392 6.6308592,4.4551822 6.7653554,4.264721 6.8405054,4.15826 6.9606563,4.092523 7.0908373,4.08664 c 0.0054,-2.3e-4 0.010729,-3.439e-4 0.016089,-3.836e-4 z m 8.2923548,2.62744 c 0.193177,0.0045 0.358593,0.1396831 0.401431,0.3281032 0.129182,0.561531 0.130836,1.4529599 0.13169,2.316172 3.97e-4,0.431608 -0.0023,0.8464648 -0.0015,1.1777288 7.67e-4,0.331265 0.01492,0.612926 0.01833,0.633384 0.03894,0.230039 -0.116302,0.447983 -0.346436,0.486356 -0.229508,0.03803 -0.44646,-0.116988 -0.484856,-0.346436 -0.03366,-0.201781 -0.03024,-0.431134 -0.03105,-0.77031 -7.68e-4,-0.339178 0.003,-0.7534167 0.0026,-1.1795999 -7.68e-4,-0.8523639 -0.03366,-1.790792 -0.111487,-2.1291129 -0.05192,-0.226844 0.08972,-0.4528719 0.316504,-0.505061 0.03431,-0.0081 0.0695,-0.01188 0.104752,-0.011221 z m 3.769627,3.816393 c 0.04619,-6e-6 0.09207,0.0076 0.135808,0.02245 0.220095,0.07519 0.337763,0.314376 0.263003,0.534617 -0.262664,0.76784 -0.438377,2.415726 -0.781908,3.748676 -0.05781,0.226388 -0.288665,0.36262 -0.514789,0.303785 -0.225932,-0.05831 -0.361568,-0.289009 -0.302663,-0.514788 0.317259,-1.231009 0.465909,-2.828682 0.801738,-3.810406 0.05864,-0.170174 0.218819,-0.284376 0.398811,-0.28433 z m -8.487644,0.576891 c 0.364509,-0.0083 0.726175,0.02469 1.077089,0.121589 0.224505,0.06208 0.356166,0.294407 0.294058,0.518903 -0.06207,0.224505 -0.294409,0.356166 -0.518904,0.294058 -0.666815,-0.184128 -1.5634992,-0.04833 -2.4605832,0.169851 -0.897084,0.218184 -1.7701675,0.51247 -2.5294214,0.528629 -0.2321461,0.0046 -0.4243031,-0.179404 -0.4298631,-0.411529 -0.0052,-0.233154 0.179864,-0.426243 0.4130271,-0.430986 0.5300779,-0.01128 1.4117104,-0.278654 2.3472264,-0.506184 0.467757,-0.113765 0.954901,-0.218538 1.4422312,-0.263006 0.121831,-0.01111 0.243637,-0.01856 0.36514,-0.02133 z m 12.684517,2.76998 c 0.008,-1.92e-4 0.01596,-1.92e-4 0.02394,0 0.06197,0.0017 0.122769,0.01728 0.178081,0.04527 0.208658,0.103762 0.293603,0.357091 0.189678,0.565667 -0.745546,1.491084 -1.503875,3.104672 -3.238004,4.03413 -0.205011,0.109265 -0.459781,0.03215 -0.569784,-0.172469 -0.110279,-0.205365 -0.03303,-0.461248 0.172471,-0.57128 1.465462,-0.785466 2.129787,-2.166761 2.880343,-3.667867 0.06904,-0.138612 0.208503,-0.228234 0.363271,-0.23345 z m -9.783222,1.439612 c 0.008,-1.91e-4 0.01596,-1.91e-4 0.02394,0 0.210357,0.0084 0.382324,0.17059 0.402927,0.380104 0.02276,0.231972 -0.146987,0.438414 -0.378983,0.460916 -0.609025,0.05977 -2.173168,0.196443 -3.624094,0.387588 -0.7254642,0.09557 -1.4218982,0.205559 -1.9413082,0.32249 -0.259703,0.05847 -0.4758705,0.11994 -0.6165486,0.173967 -0.140675,0.05403 -0.188091,0.145723 -0.1174729,0.02394 -0.1165079,0.201219 -0.373902,0.270169 -0.575396,0.154136 -0.202117,-0.11655 -0.271188,-0.375066 -0.1541359,-0.576892 0.153335,-0.26442 0.3386018,-0.310068 0.5443429,-0.389084 0.2057421,-0.07901 0.4511781,-0.145457 0.7340225,-0.209132 0.565692,-0.127351 1.277397,-0.239011 2.016131,-0.336333 1.4774642,-0.194643 3.0601752,-0.330947 3.6525272,-0.389084 0.0113,-0.0013 0.02267,-0.0022 0.03404,-0.0026 z m 2.590028,4.067052 c 0.226155,-0.0048 0.415825,0.169672 0.429864,0.395443 0.01511,0.232734 -0.161559,0.433541 -0.394322,0.448196 -2.832,0.180574 -4.773347,0.868708 -7.3413442,1.741898 -0.221015,0.07564 -0.461408,-0.04279 -0.536114,-0.264127 -0.07463,-0.220674 0.04381,-0.460053 0.264503,-0.534617 2.5627662,-0.871413 4.6148682,-1.598315 7.5590812,-1.786046 0.0061,-3.97e-4 0.01222,-5.82e-4 0.01833,-7.67e-4 z"
       sodipodi:nodetypes="cccccccccscccsccccccsscccsscccccccccccscccscccssscccccccccccccssscccsssccccccccsccscc" />
  </g>
</svg>
