<?xml version="1.0" encoding="UTF-8" standalone="no"?>
<svg
   xmlns:dc="http://purl.org/dc/elements/1.1/"
   xmlns:cc="http://creativecommons.org/ns#"
   xmlns:rdf="http://www.w3.org/1999/02/22-rdf-syntax-ns#"
   xmlns:svg="http://www.w3.org/2000/svg"
   xmlns="http://www.w3.org/2000/svg"
   xmlns:sodipodi="http://sodipodi.sourceforge.net/DTD/sodipodi-0.dtd"
   xmlns:inkscape="http://www.inkscape.org/namespaces/inkscape"
   width="184.68663mm"
   height="93.507576mm"
   viewBox="0 0 184.68663 93.507573"
   version="1.1"
   id="svg8"
   inkscape:version="1.0 (4035a4fb49, 2020-05-01)"
   sodipodi:docname="2021-AT-01-taskbody.svg">
  <defs
     id="defs2" />
  <sodipodi:namedview
     id="base"
     pagecolor="#ffffff"
     bordercolor="#666666"
     borderopacity="1.0"
     inkscape:pageopacity="0.0"
     inkscape:pageshadow="2"
     inkscape:zoom="0.97638868"
     inkscape:cx="469.51536"
     inkscape:cy="82.097492"
     inkscape:document-units="mm"
     inkscape:current-layer="layer1"
     inkscape:document-rotation="0"
     showgrid="false"
     inkscape:snap-global="false"
     inkscape:window-width="1680"
     inkscape:window-height="987"
     inkscape:window-x="-8"
     inkscape:window-y="222"
     inkscape:window-maximized="1"
     fit-margin-top="0"
     fit-margin-left="0"
     fit-margin-right="0"
     fit-margin-bottom="0" />
  <metadata
     id="metadata5">
    <rdf:RDF>
      <cc:Work
         rdf:about="">
        <dc:format>image/svg+xml</dc:format>
        <dc:type
           rdf:resource="http://purl.org/dc/dcmitype/StillImage" />
        <dc:title />
      </cc:Work>
    </rdf:RDF>
  </metadata>
  <g
     inkscape:label="Ebene 1"
     inkscape:groupmode="layer"
     id="layer1"
     transform="translate(-14.736311,-160.73322)">
    <path
       id="path1030"
       style="fill:#6d4429;fill-opacity:1;stroke:#000000;stroke-width:0.367001;stroke-linecap:round;stroke-linejoin:round;stroke-miterlimit:4;stroke-dasharray:none;stroke-opacity:1;paint-order:markers fill stroke;stop-color:#000000"
       d="m 26.639739,188.29212 c 2.794601,-13.89316 19.631551,-3.09269 27.132949,-11.23546 9.885909,-6.98696 20.348444,-15.10747 33.275962,-12.09069 10.459665,0.94389 21.48843,3.35048 31.78675,-0.27364 8.18352,-5.43962 16.68672,-0.1397 25.40283,-1.56265 51.38256,-1.27676 22.26911,7.76168 23.10558,27.10206 2.5053,8.03809 19.19099,9.08738 12.1809,17.15587 2.77095,9.48345 17.87535,10.65198 13.86734,23.25982 -3.59214,6.57796 0.50481,19.06989 -11.68744,18.25308 -7.09177,-11.56378 -20.54346,3.01741 -28.42748,-7.19483 -12.35929,-11.60597 -37.12413,-7.80529 -50.10055,-4.97827 -9.078894,2.59898 -17.358029,10.21254 -27.575183,7.20048 -10.776639,-5.16244 -18.160913,9.89517 -28.843359,5.75037 -9.568648,1.90389 -22.200278,5.32479 -30.42072,-0.17335 -6.6046115,-10.10535 12.276805,-15.45619 6.600363,-25.5791 2.213313,-8.99909 -4.001865,-16.96528 3.010439,-24.91043 -2.55362,-3.14893 -1.196196,-7.62422 0.691619,-10.72326 z"
       sodipodi:nodetypes="ccccccccccccccccc" />
    <path
       id="path1016"
       style="fill:#ce804c;fill-opacity:1;stroke:#000000;stroke-width:1.38709;stroke-linecap:round;stroke-linejoin:round;stroke-miterlimit:4;stroke-dasharray:none;stroke-opacity:1;paint-order:markers fill stroke;stop-color:#000000"
       d="m 602.14844,629.94141 c -8.32908,0.0824 -17.12787,3.41792 -13.67383,11.49218 -4.54689,2.8289 -6.6065,5.59424 -9.58594,9.65625 -11.07245,14.00571 -6.54449,7.69537 -18.24219,9.00586 -19.2839,2.9212 -26.18497,4.35706 -45.43554,2.16992 -0.0124,-0.002 -0.0247,-0.004 -0.0371,-0.006 -11.50987,-1.10038 -18.95858,-2.36251 -30.32422,-5.75196 -0.0914,-0.0268 -0.18482,-0.0464 -0.2793,-0.0586 -6.03866,-0.80716 -12.04088,-1.15036 -18.01367,-1.15234 -17.9184,-0.006 -35.56132,3.05036 -53.07422,5.75195 -12.80681,1.97561 -25.52745,2.44245 -38.80831,1.36506 -4.43062,0.0617 -5.57448,-1.52324 -6.42216,-3.4178 -1.04171,-2.36704 -0.93466,-6.43436 -3.6289,-7.96484 -3.40747,-1.93553 -7.02711,-0.19468 -10.23828,-1.69141 -4.54703,-2.11937 -8.35937,-7.13132 -12.8418,-8.52929 -5.5274,-1.72388 -19.97393,3.26625 -25.7793,3.87695 -6.86789,0.72249 -18.80807,-1.98616 -20.7539,7.25977 -1.31144,6.23152 0.20276,11.02733 3.91873,14.57725 4.9337,4.85398 5.69091,3.99004 -3.66001,6.17397 -5.95035,1.38989 -6.01439,1.71899 -9.76458,4.76831 -1.70519,1.38648 -5.53513,4.07994 -10.625,6.14843 -5.08988,2.06846 -11.30772,4.26799 -17.73829,6.40625 -23.33029,13.95703 -56.9844,18.8884 -78.86523,28.25 -0.61862,0.26636 -1.13671,0.48242 -1.72656,0.73438 -4.23914,-4.53748 -8.33825,-1.89546 -12.48242,-5.66211 -7.14616,-6.49516 -14.19694,-5.42773 -23.35938,-5.42773 -8.54835,0 -15.96166,4.5799 -20.19531,11.98437 -1.19546,2.86726 -0.86196,5.89703 -2.88477,8.38672 -2.79857,3.44451 -10.77725,4.83594 -11.72656,9.86914 -1.09622,5.81208 5.03019,8.976 9.21289,11.41992 5.81589,4.21774 21.82216,0.27817 21.04492,10.28516 -0.58551,7.39774 -0.63411,16.38962 -0.50781,25.59375 0.25261,18.40826 1.18719,37.83318 0.22852,46.0625 -2.61034,13.4655 -1.52376,26.12314 -1.67023,38.16637 -0.0352,11.14812 -0.1515,6.1216 -7.55438,7.90199 -4.7679,1.20374 -9.56347,7.31307 -13.40235,10.2207 -8.27019,6.264 -17.960934,1.15847 -17.960934,13.74414 0,1.72891 0.773867,5.10597 1.953125,6.48633 5.612039,6.5692 12.290049,5.32036 19.080079,9.0918 4.23657,2.35317 10.49049,5.78745 15.35547,5.99218 16.03598,-3.86984 31.75273,-11.13812 31.36342,-22.21461 -1.65735,-8.12879 -0.92694,-4.67029 5.9,-8.54891 13.86947,-3.11849 28.81947,-3.17376 40.70923,-5.58609 19.38033,-4.11012 38.64342,-12.34025 56.23745,-22.09116 5.60332,-3.13948 7.59819,-5.93443 9.29771,2.05015 6.15088,1.12452 12.11915,-1.67709 18.70508,-0.8457 3.22929,0.40766 4.29777,7.87408 13.58789,5.70898 1.11676,-0.26026 4.67084,-5.22719 6.23633,-6.27344 3.02394,-2.02091 7.18816,-2.55028 10.51562,-4.23047 5.55051,-2.80267 15.33161,-12.21067 16.09961,-18.60937 0.25314,-2.10902 -0.17032,-3.79179 -0.86914,-5.29883 1.63207,0.10265 3.31784,0.20209 4.88086,0.30078 5.221,0.32965 7.71167,2.09294 12.86523,3.6543 6.6481,2.01418 15.9607,2.17078 22.22071,2.37695 18.68757,0.61538 36.22042,-4.03704 54.13867,-4.79101 7.63465,-0.32134 15.7448,-0.55605 23.17773,0 3.87319,0.28973 8.78441,1.51017 13.8125,2.39257 5.02814,0.88241 10.22347,1.4623 14.9043,0.13282 12.31681,-5.28216 8.62151,4.93876 15.34375,10.45507 1.75453,2.13782 4.32669,5.21682 6.98047,6.48633 1.41885,0.67875 8.54952,3.2118 17.46031,2.98682 16.54158,0.98318 16.71148,-1.58525 27.91646,-7.59537 1.90196,-0.96944 5.87849,-3.18627 12.22284,-1.5184 21.02619,6.12522 39.93577,15.13774 60,23.49609 6.38241,2.65886 11.99497,7.02075 18.64648,10.1211 0.59713,0.27832 1.25241,0.52982 1.93555,0.76758 0.92082,1.90423 3.16705,3.05132 2.62695,5.50585 -0.82507,3.74956 -6.03897,6.07392 -0.37304,9.375 7.07637,4.12294 15.65157,4.51504 23.45312,5.78126 2.77429,0.45026 5.17446,2.38172 7.91016,2.67773 3.08175,0.33335 6.07131,-1.33505 9.12109,-0.70508 0.94216,0.19465 2.60834,1.57248 3.72266,0.91602 3.25583,-1.91804 7.51166,-7.62828 9.77148,-10.57227 8.28903,-10.79856 2.81778,-15.23923 -4.83984,-22.91016 -6.86929,-6.65953 -18.39385,-11.77148 -28.38477,-11.77148 -3.96453,0 -7.70084,0.51942 -11.44726,1.97461 -17.40878,13.41995 -11.86165,13.51738 -30.73242,5.4668 -19.95478,-8.31273 -39.00839,-17.40133 -60.39258,-23.63086 -13.24283,-1.47903 -2.97256,-4.80182 -3.15039,-11.93555 -0.0851,-2.64162 -1.46118,-5.60471 -2.14063,-8.17773 -2.13985,-8.10388 -6.98516,-2.71547 -12.75,-5.99024 -8.9262,-5.36001 -10.81695,-2.74433 -7.11523,-12.05273 1.95624,-4.89782 3.95319,-9.89631 5.53515,-13.95117 1.58196,-4.05487 3.56027,-11.94293 3.91797,-13.4668 4.40005,-18.74635 15.50118,-28.28742 26.20117,-44.49609 5.24931,-7.95179 8.73835,-16.71034 13.44141,-24.38282 0.56852,-0.92746 1.99471,-3.6519 4.08203,-7.64648 2.08732,-3.99462 4.71933,-9.08051 7.30078,-14.09961 6.0924,-15.5378 13.51538,-2.60315 23.41602,-4.75195 7.19856,-1.73485 17.49251,-8.60731 21.68359,-14.37891 6.58522,-9.06871 -5.2237,-31.06337 -15.54101,-31.93164 -7.52017,-0.63288 -12.88488,-6.48104 -19.26563,-9.58789 -2.3972,-1.16724 -6.08515,-1.80111 -9.87109,-1.76367 z m -135.60352,29.01953 c 16.72151,-0.37643 34.07192,5.54974 48.2832,6.9375 19.5055,2.2131 27.13806,0.71926 46.36524,-2.19336 1.36694,-0.20708 4.89806,0.0483 8.39258,0.39844 2.87606,0.2881 5.75128,0.61336 8.05859,0.61718 2.5917,2.92345 5.84186,5.51379 7.19922,6.95313 3.08254,3.26865 0.52891,6.15933 5.02734,8.66992 9.57016,3.46522 13.44316,0.93544 8.60743,10.3418 -2.57859,5.01343 -5.2034,10.08635 -7.28516,14.07031 -2.08176,3.98392 -3.75364,7.04148 -3.96484,7.43359 -4.55334,8.45376 -7.47608,17.79713 -13.375,24.2793 -12.89907,14.17446 -22.92577,30.92048 -27.56446,50.68359 -0.14929,0.63606 -1.33637,3.93598 -2.9082,7.96485 -1.57179,4.02886 -3.57192,9.02325 -5.5293,13.92383 -3.10362,10.89574 -11.56428,4.59774 -21.41015,6.36132 -8.99029,1.65634 -10.98558,3.03852 -14.89063,10.92578 -4.02106,9.40643 -8.39971,8.90941 -17.0918,11.39844 -3.69751,1.05018 -8.41535,0.64416 -13.26562,-0.20703 -4.85023,-0.85119 -9.78965,-2.11541 -14.17383,-2.44336 -7.70612,-0.57649 -15.94106,-0.32269 -23.60742,0 -18.43869,0.77586 -35.86003,5.38372 -53.85742,4.79102 -6.29569,-0.20731 -15.52727,-0.47935 -21.28125,-2.22266 -4.69648,-1.42288 -7.72912,-3.43996 -13.69336,-3.81641 -2.35097,-0.14836 -4.8685,-0.3092 -7.38867,-0.46093 -0.81427,-1.26301 -1.577,-2.55518 -1.97657,-4.06836 -0.46326,-1.75442 1.76707,-2.60688 0.83594,-4.72266 -0.54425,-1.23666 -3.45921,-1.18946 -4.65234,-1.55078 -10.1642,-3.07942 -15.24574,-3.5613 -23.08594,-0.16016 2.24172,-16.13795 7.44587,-34.62999 10.59961,-53.38476 3.08779,-18.36261 1.8968,-36.34572 5.75,-53.47461 2.95921,-13.15479 7.50006,-20.14357 10.48068,-33.24086 1.82965,-3.81929 2.87096,-4.18446 8.5408,-5.15953 7.12868,0 11.72162,-1.41033 18.33399,-3.66406 9.46533,-5.07122 3.62498,-6.40091 14.19226,-6.60762 12.81949,-0.2536 27.17059,-1.03165 37.82532,-2.67559 17.55445,-2.70851 35.00038,-5.69457 52.50976,-5.69726 z m -141.7539,20.125 c 7.50793,0.13839 6.54534,-1.18052 6.30244,3.60332 -2.9774,11.40404 -7.16199,19.00503 -10.13057,32.20136 -4.00639,17.80973 -2.65653,36.16867 -5.65234,53.98438 -3.26088,19.39194 -8.88975,38.71877 -10.94727,55.89453 -1.07573,0.56316 -2.18995,1.16617 -3.39648,1.85156 -2.89733,1.64584 -6.6115,1.91546 -9.40039,3.87696 -3.43739,2.41757 -5.56593,6.68703 -8.8418,9.375 -4.257,3.493 -11.09192,6.28012 -12.5625,12.40625 -0.21178,6.33917 2.33138,5.08934 -3.55834,8.48839 -32.22083,18.56544 -66.71578,21.65846 -100.53329,29.06762 -4.52748,0.93318 -5.92667,2.49486 -8.799,-0.69078 -9.56711,-8.68037 -20.02611,-6.86574 -19.45196,-19.174 0.61276,-13.27975 0.40426,-26.64048 1.69025,-38.03108 1.06205,-9.11675 0.0443,-28.22168 -0.20704,-46.53515 -0.12565,-9.15678 -0.0664,-18.07239 0.50196,-25.25391 0.48723,-2.78081 8.42829,-9.78078 9.74414,-10.57422 4.62194,-2.62552 11.07849,-1.85111 15.72656,-4.01758 3.96854,-1.84973 16.17309,-18.76318 13.58789,-23.33203 -0.25027,-0.44229 -0.49892,-0.82773 -0.74805,-1.20703 14.85436,-6.24171 31.53448,-8.28242 46.125,-12.85351 0.003,-9e-4 1e-5,-0.005 0,-0.008 7.36134,-2.32316 21.10636,-10.36117 34.05274,-14.66601 6.47319,-2.15244 12.75302,-4.36944 17.9668,-6.48828 8.70711,-4.14534 17.30562,-9.15023 25.65234,-11.11719 14.12559,-3.6458 14.74094,2.59154 22.87891,3.1994 z"
       transform="scale(0.26458333)"
       sodipodi:nodetypes="ccccccccssccsssssccsscccsscssccscccssssccccccssssscssssssccscccsscssssssscsccccsccscsssccssssccsscssccsssssccccscssscssccsscccccccccscsssscccccscccscscscccc" />
    <path
       style="fill:#61a21b;stroke:#000000;stroke-width:0.36699893;stroke-linecap:round;stroke-linejoin:round;stroke-miterlimit:4;stroke-dasharray:none;stroke-opacity:1;paint-order:markers fill stroke;stop-color:#000000;font-variation-settings:normal;opacity:1;vector-effect:none;fill-opacity:1;stroke-dashoffset:0;stop-opacity:1"
       d="m 87.255254,179.07558 c -0.02009,-0.72167 -1.235783,-0.65011 -2.08476,-0.86445 -1.676101,-0.42317 -1.594401,0.19285 -2.786839,0.64444 -1.844384,0.69848 -5.073607,-0.3641 -6.691947,0.86166 -1.153951,0.87403 -1.371518,2.64119 -3.011374,3.19322 -1.554548,0.52331 -4.477787,-0.86371 -5.755076,0.38014 -1.040387,1.01316 -1.71836,2.31073 -3.178672,2.86376 -0.766326,0.29022 -1.4756,0.69821 -2.241804,0.98838 -0.831612,0.31494 -1.920386,-0.14707 -2.777157,0.1774 -1.187609,0.44976 -1.81632,2.01599 -3.412895,2.30621 -1.857708,0.3377 -2.332732,0.85477 -4.200828,1.17634 -0.953572,0.16415 -3.136542,0.42395 -3.996805,0.74973 -0.952066,0.36055 1.176861,1.84727 -1.620554,2.78089 -1.424415,0.47539 -0.131038,1.52516 -0.49843,2.29041 -0.416682,0.8679 -2.683099,-0.48109 -4.351868,2.04682 -0.708515,1.07328 -1.82171,2.50453 -1.994462,3.55128 -0.16042,0.97203 -1.423321,0.51077 -1.070711,2.91444 0.124479,0.84854 1.171398,1.11672 1.33839,2.0021 0.332129,1.76091 -1.165164,3.95192 -1.539148,5.65148 -0.497895,2.26268 1.210387,2.63362 1.371849,3.97885 0.128376,1.06957 -1.458068,1.29344 -1.639528,2.25553 -0.229248,1.21546 -0.348308,3.98573 0.535356,4.94188 1.099551,1.64353 -0.842743,4.5151 0.459237,5.57885 0.846713,0.69179 -0.240248,1.80264 -0.09659,2.09956 0.398938,0.82455 1.680714,1.69638 2.389312,0.96734 0.887105,-0.9127 1.688831,0.64917 2.434303,1.08596 1.668372,-0.19441 2.726085,1.85556 6.063984,1.13323 2.454489,-0.53117 3.498846,-1.84793 5.646924,-2.93258 2.071944,-1.04622 4.650703,-0.38517 6.825784,-0.91235 0.703567,-0.17053 0.799021,-1.10655 1.371851,-1.2925 1.163985,-0.37783 2.723555,0.37511 3.847868,-0.0507 0.981215,-0.3716 3.048667,-3.91916 3.49219,-4.85978 0.344657,-0.73093 0.477872,-1.64352 1.003792,-2.28087 0.740223,-0.89705 3.204266,0.70587 4.048628,-0.25343 1.839246,-2.08961 -0.656786,-2.67753 0.06692,-3.85213 0.663525,-1.07693 3.398149,-0.0844 4.571606,-2.0842 1.650878,-2.81341 0.226845,-6.76889 1.20455,-9.04745 0.251716,-0.58663 0.803724,-0.88858 1.037251,-1.41921 0.480073,-1.09084 -0.540676,-2.77966 0.200758,-3.90282 0.829222,-1.25613 1.575133,-3.55327 1.706446,-5.14462 0.139348,-1.68871 -0.26981,-6.21479 -0.136505,-6.61866 0.898591,-2.72243 1.926564,-4.20264 2.545607,-7.01587 0.387165,-1.75948 1.022463,-0.52819 0.942022,-3.4175 z"
       id="path1034"
       sodipodi:nodetypes="ssssssssssssssssssssscssscssssssssssssssssss" />
    <path
       style="fill:none;fill-opacity:1;stroke:#000000;stroke-width:0.367001;stroke-linecap:round;stroke-linejoin:round;stroke-miterlimit:4;stroke-dasharray:none;stroke-opacity:1;paint-order:markers fill stroke;stop-color:#000000"
       d="m 41.793239,200.2305 c 0.819311,-0.0847 1.503227,-0.73043 2.283153,-0.90497 0.582668,-0.13038 0.801843,1.74768 2.188512,1.5053 2.132001,-0.37265 0.777128,-2.61428 3.962984,-1.80994"
       id="path1036" />
    <path
       style="fill:none;fill-opacity:1;stroke:#000000;stroke-width:0.367001;stroke-linecap:round;stroke-linejoin:round;stroke-miterlimit:4;stroke-dasharray:none;stroke-opacity:1;paint-order:markers fill stroke;stop-color:#000000"
       d="m 75.496348,189.96223 c -3.202708,-1.95303 -3.418351,0.79748 -5.654646,0.63617 -0.580329,-0.0419 -1.64809,-1.13916 -2.200344,-0.91393 -0.552265,0.22523 -1.549535,1.35439 -1.892768,1.89058 -0.196369,0.30676 0.186838,1.59315 -0.05915,1.75618 -0.675076,0.4474 -0.496958,0.27671 -0.816255,0.96769"
       id="path1038" />
    <path
       style="font-variation-settings:normal;opacity:1;vector-effect:none;fill:#61a21b;fill-opacity:1;stroke:#000000;stroke-width:0.36699893;stroke-linecap:round;stroke-linejoin:round;stroke-miterlimit:4;stroke-dasharray:none;stroke-dashoffset:0;stroke-opacity:1;paint-order:markers fill stroke;stop-color:#000000;stop-opacity:1"
       d="m 84.037463,188.26877 c 1.079796,-0.0516 3.081702,-3.35701 2.342303,-4.10372 -1.060114,-1.0706 -2.024764,-0.29774 -2.791836,-0.70785 -0.905483,-0.48412 -0.121594,-1.37678 -2.176682,-1.10209 -0.484798,0.0648 -0.874694,0.4748 -1.324938,0.52864 -0.376161,0.045 -1.050404,-0.0231 -1.324938,0.29568 -0.350581,0.40716 -0.03228,1.02356 -0.591489,1.3261"
       id="path1040" />
    <path
       style="font-variation-settings:normal;opacity:1;vector-effect:none;fill:#61a21b;fill-opacity:1;stroke:#000000;stroke-width:0.36699893;stroke-linecap:round;stroke-linejoin:round;stroke-miterlimit:4;stroke-dasharray:none;stroke-dashoffset:0;stroke-opacity:1;paint-order:markers fill stroke;stop-color:#000000;stop-opacity:1"
       d="m 80.630481,209.29812 c 1.094198,-0.32548 2.538656,-2.20209 1.466895,-3.22563 -0.871082,-0.83189 -1.530408,-0.34049 -2.555237,-0.34049 -0.201972,0 -0.829643,-0.19594 -1.005533,-0.0627 -0.230349,0.17447 -0.106196,0.43508 -0.461362,0.52865 -0.677646,0.17853 -1.174456,-0.29201 -1.809962,-0.3584 -0.56923,-0.0595 -1.159134,0.0691 -1.727149,0 -0.103349,-0.0126 -0.514798,-0.13585 -0.697958,-0.0896 -0.283911,0.0717 -0.50387,0.34882 -0.768937,0.46593 -0.214503,0.0948 -0.454237,-0.0188 -0.65064,0.11648 -0.291348,0.20061 -0.728535,1.68384 -0.768937,1.71138 -0.587611,0.40056 -1.868144,-0.35156 -2.460599,0.94977"
       id="path1042"
       sodipodi:nodetypes="csssssssscsc" />
    <path
       style="font-variation-settings:normal;opacity:1;vector-effect:none;fill:#61a21b;fill-opacity:1;stroke:#000000;stroke-width:0.36699893;stroke-linecap:round;stroke-linejoin:round;stroke-miterlimit:4;stroke-dasharray:none;stroke-dashoffset:0;stroke-opacity:1;paint-order:markers fill stroke;stop-color:#000000;stop-opacity:1"
       d="m 80.311076,196.20742 c -0.556448,-0.55341 -1.156171,-1.12913 -1.916427,-1.38882 -0.397886,-0.13591 -2.006613,-0.22409 -2.41328,0.0269 -0.01714,0.0106 -1.496283,1.18999 -1.514216,1.20961 -0.261414,0.286 0.01326,0.51979 -0.425873,0.69889 -0.680927,0.2777 -1.001758,-0.67647 -1.514214,-0.82433 -0.181951,-0.0525 -0.349686,0.13187 -0.473191,0.24192 -0.657132,0.58556 -1.61879,0.99194 -2.200344,1.6397 -0.261609,0.29139 -0.274809,0.89838 -0.201107,1.26337"
       id="path1044"
       sodipodi:nodetypes="csssssssc" />
    <path
       style="fill:none;fill-opacity:1;stroke:#000000;stroke-width:0.367001;stroke-linecap:round;stroke-linejoin:round;stroke-miterlimit:4;stroke-dasharray:none;stroke-opacity:1;paint-order:markers fill stroke;stop-color:#000000"
       d="m 59.69173,207.55091 c -0.750674,-2.37149 -2.900977,-2.49888 -4.826559,-1.93539 -0.332081,0.0972 -0.144171,0.39885 -0.307575,0.59137 -0.242895,0.28618 -1.254609,0.46079 -1.597022,0.48385 -0.996061,0.0671 -1.657512,-1.07795 -2.602558,-1.20066 -0.937247,-0.12169 -0.874795,0.4881 -1.644344,0.77953 -0.640183,0.24244 -1.408739,-0.27429 -1.975574,0 -0.498687,0.24132 -0.560351,0.77182 -0.970045,1.03041"
       id="path1046" />
    <path
       style="fill:none;fill-opacity:1;stroke:#000000;stroke-width:0.367001;stroke-linecap:round;stroke-linejoin:round;stroke-miterlimit:4;stroke-dasharray:none;stroke-opacity:1;paint-order:markers fill stroke;stop-color:#000000"
       d="m 65.086118,216.43037 c 0.06368,-0.21705 0.301437,-0.34144 0.414044,-0.53761 h 3e-6 c -0.909871,-1.20717 -2.220389,-1.37683 -3.619921,-1.53218 -2.31779,-0.25728 -2.924075,-0.2466 -5.015836,0.76161 -0.332375,0.1602 -0.680429,0.22489 -0.958215,0.48384 -0.194834,0.18163 -0.256982,0.44921 -0.414041,0.65409 -0.364585,0.47558 -1.444109,-0.4101 -1.951919,-0.36736"
       id="path1048"
       sodipodi:nodetypes="cssssssc" />
    <path
       style="font-variation-settings:normal;opacity:1;vector-effect:none;fill:#61a21b;fill-opacity:1;stroke:#000000;stroke-width:0.36699893;stroke-linecap:round;stroke-linejoin:round;stroke-miterlimit:4;stroke-dasharray:none;stroke-dashoffset:0;stroke-opacity:1;paint-order:markers fill stroke;stop-color:#000000;stop-opacity:1"
       d="m 69.2657,226.20329 c 1.251682,0.46991 2.235831,-0.39401 2.235831,-1.83682 v 2e-5 c -0.759267,-1.09653 -1.961854,-1.37775 -3.158556,-1.69346 -2.078945,-0.54847 -2.37799,0.59152 -3.844687,1.70242 -1.417526,1.07366 -2.520807,-0.38726 -3.974811,-0.46592 -0.25045,-0.0135 -0.580652,0.56187 -0.780767,0.68096 -0.203989,0.1214 -0.472747,-0.004 -0.674299,0.10752"
       id="path1050"
       sodipodi:nodetypes="csssscsc" />
    <path
       style="fill:none;fill-opacity:1;stroke:#000000;stroke-width:0.367001;stroke-linecap:round;stroke-linejoin:round;stroke-miterlimit:4;stroke-dasharray:none;stroke-opacity:1;paint-order:markers fill stroke;stop-color:#000000"
       d="m 50.819377,232.2091 c -0.668797,-1.02087 -2.284243,-2.92036 -3.761874,-2.06978 -0.685033,0.39433 -1.087165,0.73871 -1.92826,0.77056 -0.527965,0.02 -0.709403,-0.5855 -1.194811,-0.672 -0.895855,-0.15966 -2.029481,1.03891 -2.330468,1.83682"
       id="path1052"
       sodipodi:nodetypes="csssc" />
    <path
       style="font-variation-settings:normal;opacity:1;vector-effect:none;fill:#61a21b;fill-opacity:1;stroke:#000000;stroke-width:0.36699893;stroke-linecap:round;stroke-linejoin:round;stroke-miterlimit:4;stroke-dasharray:none;stroke-dashoffset:0;stroke-opacity:1;paint-order:markers fill stroke;stop-color:#000000;stop-opacity:1"
       d="m 48.086695,222.95332 c -0.911799,-0.71262 -2.170951,-1.33559 -3.383325,-1.12897 -0.554619,0.0945 -1.275032,0.73917 -1.880939,0.51968 -0.670927,-0.24304 -0.928147,-1.05924 -1.597022,-1.29921 -0.834117,-0.29926 -1.905159,-0.10539 -2.626217,0.33152 -0.128397,0.0778 -0.04547,0.31243 -0.189278,0.4032 -0.191005,0.12056 -0.772768,0.0811 -1.005533,0.10753 -0.371972,0.0423 -1.295815,0.79122 -1.360426,1.18273 -0.05603,0.33954 0.631346,2.22859 0.839917,2.61635 0.08358,0.15539 -0.100685,0.51911 0,0.61825 0.177713,0.17498 0.625237,0.31554 0.851744,0.42112 0.323572,0.15082 0.886587,0.2925 1.230299,0.15232 0.12722,-0.0519 0.339376,-0.3228 0.366726,-0.18816 0.09934,0.48907 -0.02365,1.09749 -0.02365,1.60386"
       id="path1054" />
    <path
       style="fill:none;fill-opacity:1;stroke:#000000;stroke-width:0.367001;stroke-linecap:round;stroke-linejoin:round;stroke-miterlimit:4;stroke-dasharray:none;stroke-opacity:1;paint-order:markers fill stroke;stop-color:#000000"
       d="m 49.932142,209.59381 c -0.202155,-2.04889 -2.476841,-1.91325 -4.010303,-1.9533 -0.249346,-0.007 -0.884383,-0.15632 -1.12383,-0.009 -0.398013,0.24494 -0.622758,0.66124 -1.135661,0.75265 -0.503711,0.0898 -0.969867,-0.4288 -1.360427,-0.29569 -0.400356,0.13646 -2.613474,1.26767 -2.886471,1.54114 -0.453359,0.45415 -0.140584,0.92977 -0.425874,1.36194"
       id="path1056" />
    <path
       style="fill:none;fill-opacity:1;stroke:#000000;stroke-width:0.367001;stroke-linecap:round;stroke-linejoin:round;stroke-miterlimit:4;stroke-dasharray:none;stroke-opacity:1;paint-order:markers fill stroke;stop-color:#000000"
       d="m 65.926035,195.90277 c -0.843682,-1.5796 -2.070094,-1.80271 -3.690897,-1.56801 -0.29323,0.0425 -0.621724,-0.0777 -0.887236,0.0538 -0.319119,0.15803 -0.281043,0.77192 -0.579659,0.90496 -0.112771,0.0503 -2.08338,-0.9747 -2.235833,-1.03937 -0.32531,-0.13798 -1.078036,0.006 -1.431406,0.0358 -1.3907,0.11893 -1.388539,0.5736 -2.294983,0.84225 -0.192878,0.0572 -0.883912,-0.25821 -0.958212,-0.1344 -0.362656,0.6043 0.203938,0.89494 -0.579662,1.1917"
       id="path1058" />
    <path
       style="font-variation-settings:normal;opacity:1;vector-effect:none;fill:#61a21b;fill-opacity:1;stroke:#000000;stroke-width:0.36699893;stroke-linecap:round;stroke-linejoin:round;stroke-miterlimit:4;stroke-dasharray:none;stroke-dashoffset:0;stroke-opacity:1;paint-order:markers fill stroke;stop-color:#000000;stop-opacity:1"
       d="m 63.631922,188.88807 c -0.370404,-1.11231 -2.486417,-2.00381 -3.690898,-1.61282 -0.635781,0.20638 -0.748744,1.07218 -1.3486,1.12897 -1.658879,0.15706 -1.694524,-0.97624 -3.477961,0.16128 -0.210428,0.13422 -0.454099,0.13424 -0.63881,0.32257 -1.224555,1.24856 1.065908,2.1172 -0.295743,2.72387"
       id="path1060" />
    <path
       sodipodi:nodetypes="cssssssc"
       id="path1048-2"
       d="m 65.539486,211.60454 c -0.06368,-0.21705 -0.301437,-0.34144 -0.414044,-0.53761 h -3e-6 c 0.909871,-1.20717 2.220389,-1.37683 3.619921,-1.53218 2.31779,-0.25728 2.924075,-0.2466 5.015837,0.76161 0.332374,0.1602 0.680428,0.22489 0.958214,0.48384 0.194834,0.18163 0.256982,0.44921 0.414041,0.65409 0.364585,0.47558 1.444109,-0.4101 1.951919,-0.36736"
       style="fill:none;fill-opacity:1;stroke:#000000;stroke-width:0.367001;stroke-linecap:round;stroke-linejoin:round;stroke-miterlimit:4;stroke-dasharray:none;stroke-opacity:1;paint-order:markers fill stroke;stop-color:#000000" />
    <path
       style="font-variation-settings:normal;opacity:1;vector-effect:none;fill:#61a21b;fill-opacity:1;stroke:#000000;stroke-width:0.36699893;stroke-linecap:round;stroke-linejoin:round;stroke-miterlimit:4;stroke-dasharray:none;stroke-dashoffset:0;stroke-opacity:1;paint-order:markers fill stroke;stop-color:#000000;stop-opacity:1"
       d="m 92.398202,179.16513 c 0,-0.65688 -0.0044,-0.96138 0.615151,-1.12898 1.384268,-0.37445 1.464483,-0.50189 2.931288,-0.55239 2.309537,-0.0795 4.522009,-1.07254 6.932259,-0.98561 1.19156,0.043 2.18933,0.67284 3.50163,0.57344 2.40589,-0.18222 4.28311,-1.65173 6.67201,-1.9533 1.89729,-0.2395 4.22095,-0.19605 6.12783,0.0179 0.59861,0.0672 1.86892,0.33455 2.36596,0.25089 1.0742,-0.18081 0.87231,-1.1497 3.31235,-1.05729 1.62952,0.0617 1.91429,1.41408 2.01106,1.48737 0.44969,0.3406 1.17268,-0.31227 1.56154,-0.43008 1.26094,-0.38203 2.93371,0.27811 4.18775,0.43008 0.73272,0.0888 1.25206,-0.2586 1.79813,-0.16128 1.37621,0.24526 2.64339,0.84713 3.99847,1.07521 0.32309,0.0544 0.75863,-0.29647 0.9937,-0.3584 0.92049,-0.2425 2.45321,-0.0896 3.43065,-0.0896 0.57358,0 0.59257,1.00052 1.34859,0.82433 0.80547,-0.18772 1.0939,-1.2079 1.96375,-1.29026 2.15767,-0.20428 1.78382,2.72171 3.88323,2.76049 1.78502,0.033 3.11288,-0.68864 4.75558,-0.89601 0.67263,-0.0849 0.35609,0.33292 0.80443,0.48385 1.98714,0.66893 -0.23425,0.27236 0.59149,1.52321 0.32293,0.4892 0.95371,0.19585 1.20664,0.77057 0.2696,0.61262 -0.12184,1.70425 -0.78077,1.89954 -0.29223,0.0866 -0.73194,0.0244 -0.99371,0.14336 -0.2074,0.0943 -0.0888,0.53929 -0.18927,0.71681 -0.32868,0.58087 1.29878,-1.6113 1.4875,-0.8251 0.47358,1.97281 0.16861,1.74937 -0.54417,3.36899 -0.1923,0.43697 -0.16615,1.02935 -0.44953,1.4157 -0.2056,0.2803 -0.54105,0.35894 -0.70979,0.71681 -0.29894,0.63399 -0.23436,1.34716 -0.68613,1.91746 -0.40526,0.51158 -1.16686,0.33818 -1.56153,1.02145 -0.94891,1.64278 -0.82614,2.76322 -2.12937,4.40837 -1.21651,1.53568 -3.0845,2.61833 -3.88017,4.42629 -0.30634,0.69607 0.14666,1.62361 -0.28391,2.27586 -0.34571,0.52368 -0.83413,0.85932 -1.23031,1.3261 -0.23884,0.2814 -1.97601,4.08757 -2.08204,4.51589 -0.32962,1.33152 0.5532,3.45019 0,4.62341 -0.0551,0.11678 -3.87539,2.94694 -4.15949,3.10065 -0.86525,0.46811 -2.07856,0.35429 -2.72086,1.11105 -0.40771,0.48037 0.30142,1.12187 -0.44953,1.46946 -1.42361,0.65894 -3.08441,-0.27857 -4.04579,-0.0358 -0.8539,0.21558 -1.00783,0.95807 -2.4606,0.84224 -1.81693,-0.14486 -2.75087,-0.43985 -4.90214,0.0354 -2.30057,0.50823 -4.47648,1.74992 -6.81396,1.97122 -1.9413,0.1838 -3.76598,-0.53507 -5.74929,-0.39424 -3.09124,0.2195 -3.1269,1.40078 -6.67201,0.75265 -1.17691,-0.21517 -2.45885,-0.92137 -3.69089,-0.73473 -1.68299,0.25494 -2.034835,1.38881 -4.282394,1.21857 -0.654648,-0.0496 -1.164151,-0.46733 -1.77447,-0.64512 -1.325727,-0.38621 -2.954356,-0.13388 -4.306049,-0.25089 -0.667443,-0.0578 -1.181986,-0.41214 -1.845448,-0.43008 -1.330774,-0.036 -6.23629,0.41905 -7.097881,-0.96769 -0.802529,-1.29168 0.518906,-1.95906 0.63881,-2.86723 0.08351,-0.63252 -0.14196,-1.524 -0.14196,-2.24003 0,-1.76326 0.658252,-2.19655 0.875406,-3.51236 0.141822,-0.85934 0.204017,-1.63955 0.473194,-2.45507 0.191802,-0.5811 -0.238911,-1.7924 -0.14196,-2.52674 0.05084,-0.38502 0.375859,-0.68981 0.402215,-1.12898 0.09622,-1.60325 -0.192366,-3.35378 0.141957,-4.99973 0.03844,-0.18926 0.334457,-0.19141 0.378555,-0.35841 0.194447,-0.73639 0.13816,-1.74424 0.212934,-2.50883 0.111768,-1.14282 -0.204814,-4.13447 0,-4.91013 0.374041,-1.41652 1.745266,-1.20044 2.247664,-2.43715 0.367877,-0.90556 -0.463081,-1.48202 -0.354893,-2.38338 0.123793,-1.0314 0.615148,-2.00457 0.615148,-3.08227 0,-0.14337 -0.114281,-0.34353 0,-0.43009 0.930593,-0.70485 0.61889,-0.74796 0.804426,-2.29379 0.100938,-0.84096 3.117059,-0.83269 2.815495,-1.79201 -0.155771,-0.49553 1.043523,0.18664 1.043523,-0.36154 z"
       id="path1126"
       sodipodi:nodetypes="ssssssssssssssssssssssssscsssssssssssssssssssssssssssssssssssssssssssss" />
    <path
       style="font-variation-settings:normal;opacity:1;vector-effect:none;fill:#61a21b;fill-opacity:1;stroke:#000000;stroke-width:0.36699893;stroke-linecap:round;stroke-linejoin:round;stroke-miterlimit:4;stroke-dasharray:none;stroke-dashoffset:0;stroke-opacity:1;paint-order:markers fill stroke;stop-color:#000000;stop-opacity:1"
       d="m 150.88602,192.6046 c 0.56969,-0.0749 4.0851,-1.54889 2.41327,-2.63426 -0.86368,-0.56072 -3.36223,-0.04 -4.37702,-0.12545 -0.56313,-0.0474 -2.1392,-1.11372 -2.72086,-0.5376 -0.98126,0.97191 -1.57394,0.56111 -2.224,1.79202"
       id="path1142" />
    <path
       style="font-variation-settings:normal;opacity:1;vector-effect:none;fill:#61a21b;fill-opacity:1;stroke:#000000;stroke-width:0.36699893;stroke-linecap:round;stroke-linejoin:round;stroke-miterlimit:4;stroke-dasharray:none;stroke-dashoffset:0;stroke-opacity:1;paint-order:markers fill stroke;stop-color:#000000;stop-opacity:1"
       d="m 132.59337,200.43953 c -0.85496,-0.39493 -1.14558,-1.37959 -1.96375,-1.80994 -0.88871,-0.46744 -1.77736,0.44335 -2.55524,0.39425 -0.93633,-0.0591 -1.90311,-0.62923 -2.86281,-0.48385 -0.2776,0.0421 -0.0902,0.66387 -0.30757,0.84225 -0.19468,0.15974 -1.0815,0.43093 -1.39592,0.48385 -0.59261,0.0997 -2.11303,-0.10197 -2.5789,0.25088 -0.3045,0.23063 0.0244,1.3115 -0.37855,1.6845"
       id="path1149" />
    <path
       style="font-variation-settings:normal;opacity:1;vector-effect:none;fill:#61a21b;fill-opacity:1;stroke:#000000;stroke-width:0.36699893;stroke-linecap:round;stroke-linejoin:round;stroke-miterlimit:4;stroke-dasharray:none;stroke-dashoffset:0;stroke-opacity:1;paint-order:markers fill stroke;stop-color:#000000;stop-opacity:1"
       d="m 125.16425,205.08086 c -2.19943,-2.76306 -3.34105,-2.67475 -6.05686,-3.42275 -0.18227,-0.0502 -0.40376,-0.30399 -0.61515,-0.21504 -0.32199,0.13548 -0.18099,0.53051 -0.54417,0.55552 -0.40531,0.0279 -1.37258,-0.29556 -1.67983,-0.1792 -0.48087,0.18211 -0.60067,0.92088 -0.89906,1.14689"
       id="path1151" />
    <path
       style="font-variation-settings:normal;opacity:1;vector-effect:none;fill:#61a21b;fill-opacity:1;stroke:#000000;stroke-width:0.36699893;stroke-linecap:round;stroke-linejoin:round;stroke-miterlimit:4;stroke-dasharray:none;stroke-dashoffset:0;stroke-opacity:1;paint-order:markers fill stroke;stop-color:#000000;stop-opacity:1"
       d="m 111.89121,210.65405 c -0.30602,-1.37529 -2.14333,-3.6264 -3.88017,-2.79556 -0.52095,0.24921 -0.81216,1.0643 -1.37226,1.20066 -0.53764,0.13089 -2.63511,-0.82132 -3.14672,-0.30464 -0.24086,0.24324 -0.13132,0.72846 -0.26026,1.02145 -0.46143,1.04848 -1.63234,1.57532 -2.81549,1.73826"
       id="path1153" />
    <path
       style="font-variation-settings:normal;opacity:1;vector-effect:none;fill:#61a21b;fill-opacity:1;stroke:#000000;stroke-width:0.36699893;stroke-linecap:round;stroke-linejoin:round;stroke-miterlimit:4;stroke-dasharray:none;stroke-dashoffset:0;stroke-opacity:1;paint-order:markers fill stroke;stop-color:#000000;stop-opacity:1"
       d="m 107.46687,214.50689 c -0.374,-2.77861 6.71544,-4.50692 8.91967,-4.12165 1.37073,0.23959 0.49234,1.56993 3.24137,1.4157"
       id="path1155" />
    <path
       style="font-variation-settings:normal;opacity:1;vector-effect:none;fill:#61a21b;fill-opacity:1;stroke:#000000;stroke-width:0.36699893;stroke-linecap:round;stroke-linejoin:round;stroke-miterlimit:4;stroke-dasharray:none;stroke-dashoffset:0;stroke-opacity:1;paint-order:markers fill stroke;stop-color:#000000;stop-opacity:1"
       d="m 128.1397,216.47694 c 1.01913,0.6692 4.7082,0.12137 3.38332,-1.7741 -0.48013,-0.68691 -2.86784,-1.40372 -3.76187,-1.52322 -0.59827,-0.08 -1.0596,0.31662 -1.67984,0.21505 -0.3534,-0.0579 -0.76385,-0.47234 -1.15932,-0.32257 -0.26028,0.0986 -1.64013,0.5693 -1.70349,0.60929 -0.19055,0.12027 -0.0787,0.73619 -0.16562,0.75265 -0.91865,0.17395 -1.19857,0.0469 -1.39591,1.09313"
       id="path1169" />
    <path
       style="font-variation-settings:normal;opacity:1;vector-effect:none;fill:#61a21b;fill-opacity:1;stroke:#000000;stroke-width:0.36699893;stroke-linecap:round;stroke-linejoin:round;stroke-miterlimit:4;stroke-dasharray:none;stroke-dashoffset:0;stroke-opacity:1;paint-order:markers fill stroke;stop-color:#000000;stop-opacity:1"
       d="m 83.665305,217.23076 c -0.02389,-1.03458 -1.583362,-0.52656 -1.940086,-1.18273 -0.704379,-1.29567 1.440092,-1.53039 2.034725,-1.73826 0.348803,-0.12194 0.341416,-0.48646 0.544171,-0.71681 0.616331,-0.70023 2.551144,-0.69665 3.312345,-0.16128 0.273466,0.19233 0.04275,0.89967 0.141957,0.94977 0.904013,0.45648 2.941873,0.64283 3.880175,0.37632"
       id="path1176" />
    <path
       style="font-variation-settings:normal;opacity:1;vector-effect:none;fill:#61a21b;fill-opacity:1;stroke:#000000;stroke-width:0.36699893;stroke-linecap:round;stroke-linejoin:round;stroke-miterlimit:4;stroke-dasharray:none;stroke-dashoffset:0;stroke-opacity:1;paint-order:markers fill stroke;stop-color:#000000;stop-opacity:1"
       d="m 98.45256,198.34287 c -1.983533,-1.97623 -4.094868,-1.24479 -6.293455,-0.41216 -0.45788,0.1734 -0.84926,0.007 -1.301279,0.32256 -0.476856,0.3334 -0.418799,1.08149 -1.017363,1.30817 -0.687131,0.26023 -1.632514,-0.0689 -1.632514,0.98561"
       id="path1178" />
    <path
       style="font-variation-settings:normal;opacity:1;vector-effect:none;fill:#61a21b;fill-opacity:1;stroke:#000000;stroke-width:0.36699893;stroke-linecap:round;stroke-linejoin:round;stroke-miterlimit:4;stroke-dasharray:none;stroke-dashoffset:0;stroke-opacity:1;paint-order:markers fill stroke;stop-color:#000000;stop-opacity:1"
       d="m 95.9683,199.97361 c 0.267909,-1.62826 1.307772,-0.62967 2.294983,-1.00353 0.390639,-0.14794 0.393393,-0.53042 0.709787,-0.71681 0.775033,-0.45657 2.60227,-0.40711 3.40698,-0.23296 1.28067,0.27714 1.9943,1.15433 3.40699,0.84225"
       id="path1180" />
    <path
       style="font-variation-settings:normal;opacity:1;vector-effect:none;fill:#61a21b;fill-opacity:1;stroke:#000000;stroke-width:0.36699893;stroke-linecap:round;stroke-linejoin:round;stroke-miterlimit:4;stroke-dasharray:none;stroke-dashoffset:0;stroke-opacity:1;paint-order:markers fill stroke;stop-color:#000000;stop-opacity:1"
       d="m 125.09327,191.12103 c 0.0108,-1.89157 -2.77905,-3.50989 -4.66094,-3.08227 -0.41173,0.0935 -0.41654,0.4686 -0.85174,0.448 -0.51082,-0.0242 -1.51386,-0.49989 -1.98741,-0.34048 -0.15813,0.0532 -2.058,1.35168 -2.4606,1.52321"
       id="path1182" />
    <path
       style="font-variation-settings:normal;opacity:1;vector-effect:none;fill:#61a21b;fill-opacity:1;stroke:#000000;stroke-width:0.36699893;stroke-linecap:round;stroke-linejoin:round;stroke-miterlimit:4;stroke-dasharray:none;stroke-dashoffset:0;stroke-opacity:1;paint-order:markers fill stroke;stop-color:#000000;stop-opacity:1"
       d="m 116.67045,192.46504 c 0.71862,-3.72653 -4.71258,-3.32981 -5.37073,-1.00353"
       id="path1184" />
    <path
       style="font-variation-settings:normal;opacity:1;vector-effect:none;fill:#61a21b;fill-opacity:1;stroke:#000000;stroke-width:0.36699893;stroke-linecap:round;stroke-linejoin:round;stroke-miterlimit:4;stroke-dasharray:none;stroke-dashoffset:0;stroke-opacity:1;paint-order:markers fill stroke;stop-color:#000000;stop-opacity:1"
       d="m 136.78112,187.78787 c 0.52687,-1.92746 -1.45546,-2.78485 -2.88647,-1.88162 -0.20496,0.12937 -0.32133,0.58289 -0.56783,0.64513 -0.3277,0.0827 -0.98314,-0.54909 -1.51422,-0.19712 -0.38442,0.25477 -0.15798,1.13504 -0.70979,1.34401"
       id="path1186" />
    <path
       style="font-variation-settings:normal;opacity:1;vector-effect:none;fill:#61a21b;fill-opacity:1;stroke:#000000;stroke-width:0.36699893;stroke-linecap:round;stroke-linejoin:round;stroke-miterlimit:4;stroke-dasharray:none;stroke-dashoffset:0;stroke-opacity:1;paint-order:markers fill stroke;stop-color:#000000;stop-opacity:1"
       d="m 152.84599,179.68795 c -0.61272,-1.07982 0.10751,-2.8681 -0.66247,-3.88869 -0.21075,-0.27934 -2.97604,-0.23399 -3.336,-0.16128 -0.0917,0.0185 -0.59213,1.08506 -0.66247,1.18273 -0.32557,0.45209 -0.99184,0.51606 -1.39592,0.91393"
       id="path1188" />
    <path
       style="font-variation-settings:normal;opacity:1;vector-effect:none;fill:#61a21b;fill-opacity:1;stroke:#000000;stroke-width:0.36699893;stroke-linecap:round;stroke-linejoin:round;stroke-miterlimit:4;stroke-dasharray:none;stroke-dashoffset:0;stroke-opacity:1;paint-order:markers fill stroke;stop-color:#000000;stop-opacity:1"
       d="m 109.92747,179.1145 c -0.8597,-0.32902 -0.93856,-1.43196 -1.56154,-1.97122 -1.61839,-1.40092 -3.5556,0.0571 -4.89753,0.73472 -0.61755,0.31183 -0.89099,-0.1869 -1.3486,0.37633"
       id="path1190" />
    <path
       style="font-variation-settings:normal;opacity:1;vector-effect:none;fill:#61a21b;fill-opacity:1;stroke:#000000;stroke-width:0.36699893;stroke-linecap:round;stroke-linejoin:round;stroke-miterlimit:4;stroke-dasharray:none;stroke-dashoffset:0;stroke-opacity:1;paint-order:markers fill stroke;stop-color:#000000;stop-opacity:1"
       d="m 94.383107,185.11776 c -0.99592,-0.81108 -2.081723,-0.95274 -3.288686,-1.00353 -1.980374,-0.0833 -4.306046,0.20384 -4.306046,2.36547 0,0.24196 -0.141941,0.7742 -0.04732,1.00353 0.250177,0.60636 1.354463,1.36623 1.632514,2.41923"
       id="path1192" />
    <path
       style="font-variation-settings:normal;opacity:1;vector-effect:none;fill:#61a21b;fill-opacity:1;stroke:#000000;stroke-width:0.36699893;stroke-linecap:round;stroke-linejoin:round;stroke-miterlimit:4;stroke-dasharray:none;stroke-dashoffset:0;stroke-opacity:1;paint-order:markers fill stroke;stop-color:#000000;stop-opacity:1"
       d="m 105.43214,185.60161 c -0.78629,-0.43426 -1.0579,-0.69178 -1.8691,-0.84225 -0.93433,-0.17331 -2.27829,0.44357 -3.28869,0.48385 -0.97317,0.0388 -1.975005,0.2733 -2.933791,0.23296 -1.76526,-0.0743 -2.563826,-0.49526 -4.093112,0.66304 -0.591997,0.44839 -2.153026,-0.01 -2.153026,1.2365"
       id="path1194" />
    <path
       style="font-variation-settings:normal;opacity:1;vector-effect:none;fill:#61a21b;fill-opacity:1;stroke:#000000;stroke-width:0.36699893;stroke-linecap:round;stroke-linejoin:round;stroke-miterlimit:4;stroke-dasharray:none;stroke-dashoffset:0;stroke-opacity:1;paint-order:markers fill stroke;stop-color:#000000;stop-opacity:1"
       d="m 100.84218,189.54405 c -0.32932,-1.20655 1.24036,-2.96723 2.62622,-2.5805 0.48639,0.13572 0.43105,0.6113 0.97004,0.448 0.21799,-0.066 0.0319,-0.5863 0.0946,-0.75265 0.049,-0.12987 1.22855,-1.10694 1.41957,-1.16481 0.63511,-0.19242 0.98693,0.38401 1.51422,0.25088 0.16478,-0.0416 1.17449,-0.19374 1.20664,-0.16128 1.65433,1.67069 1.44107,1.23536 3.28868,2.20418"
       id="path1196" />
    <path
       style="font-variation-settings:normal;opacity:1;vector-effect:none;fill:#61a21b;fill-opacity:1;stroke:#000000;stroke-width:0.36699893;stroke-linecap:round;stroke-linejoin:round;stroke-miterlimit:4;stroke-dasharray:none;stroke-dashoffset:0;stroke-opacity:1;paint-order:markers fill stroke;stop-color:#000000;stop-opacity:1"
       d="m 131.03184,178.59481 c -0.032,-2.68581 -2.12538,-3.53551 -4.32971,-3.11811 -0.31381,0.0594 -0.60524,0.6751 -0.82809,0.66305 -0.75991,-0.0411 -2.22073,-0.47817 -2.95745,-0.14337 -0.38839,0.17651 -1.30632,0.59519 -1.60885,0.82433 -0.37117,0.28113 0.15293,0.85464 -0.66247,1.07522"
       id="path1198" />
    <path
       style="font-variation-settings:normal;opacity:1;vector-effect:none;fill:#61a21b;fill-opacity:1;stroke:#000000;stroke-width:0.36699893;stroke-linecap:round;stroke-linejoin:round;stroke-miterlimit:4;stroke-dasharray:none;stroke-dashoffset:0;stroke-opacity:1;paint-order:markers fill stroke;stop-color:#000000;stop-opacity:1"
       d="m 127.41191,180.8886 c -0.23557,-1.34905 0.7501,-1.21612 1.67984,-1.54114 0.43381,-0.15165 0.26322,-0.38082 0.42587,-0.62721 0.25328,-0.38367 3.57056,-0.10752 3.99847,-0.10752 0.26702,0 0.89196,-0.3256 1.15933,-0.10752 1.14808,0.93647 -0.0365,1.89954 2.72085,1.89954"
       id="path1200" />
    <path
       style="font-variation-settings:normal;opacity:1;vector-effect:none;fill:#61a21b;fill-opacity:1;stroke:#000000;stroke-width:0.36699893;stroke-linecap:round;stroke-linejoin:round;stroke-miterlimit:4;stroke-dasharray:none;stroke-dashoffset:0;stroke-opacity:1;paint-order:markers fill stroke;stop-color:#000000;stop-opacity:1"
       d="m 140.75593,206.81912 c 0.29684,-3.19513 -2.44033,-0.82834 -3.66724,-0.43008 -0.38617,0.12535 -1.38425,0.0584 -1.63251,0.34048 -0.25172,0.28599 -0.59587,1.52405 -0.97004,1.5949 -1.12847,0.21368 -1.62748,-0.70179 -2.43694,0.34049"
       id="path1202" />
    <path
       id="path1204"
       style="font-variation-settings:normal;opacity:1;vector-effect:none;fill:#61a21b;fill-opacity:1;stroke:#000000;stroke-width:1.38708258;stroke-linecap:round;stroke-linejoin:round;stroke-miterlimit:4;stroke-dasharray:none;stroke-dashoffset:0;stroke-opacity:1;paint-order:markers fill stroke;stop-color:#000000;stop-opacity:1"
       d="m 487.2832,608.19336 c -0.58984,0.0107 -1.18503,0.0429 -1.78711,0.0977 -8.50938,0.7734 -11.62321,14.09133 -19.3164,14.76367 -7.55671,0.66039 -22.80274,0.0118 -29.95508,-1.42188 -4.49261,-0.9007 -8.51687,-4.12591 -13.14649,-4.67383 -4.112,-0.48665 -7.89085,1.78711 -11.98242,1.89649 -6.08628,0.16252 -12.0577,-0.83693 -18.15234,-0.67774 -2.87822,0.0752 -5.52872,1.25046 -8.49414,0.88086 -5.85215,-0.72941 -10.85417,-4.76612 -16.54297,-5.2832 -4.35183,-0.39553 -22.23202,0.65928 -26.02344,1.35547 -3.64794,0.66981 -6.67007,7.37989 -13.85937,8.06055 -4.40381,0.41695 -7.8516,-2.69135 -12.16211,-3.11719 -4.78266,-0.47248 -8.86722,1.24655 -13.50195,1.55859 -8.39627,0.56531 -17.3573,0.52581 -25.75391,0.27149 -4.47042,-0.13531 -11.05438,-2.82627 -15.38086,-1.42188 -0.70308,0.22829 -1.5469,3.03453 -2.05664,3.58789 -3.47318,3.77061 -8.77809,5.6661 -12.25,9.34766 -1.78561,1.89343 -1.99588,4.36172 -4.29297,6.23047 -2.94788,2.39815 -6.72542,3.28316 -9.74609,5.48633 -2.17076,1.58328 -2.69693,5.45552 -5.8125,5.82421 -3.81946,0.45204 -8.05214,-0.7895 -11.80469,0 -2.9148,0.61327 -4.78865,4.06101 -7.42188,5.35157 -2.35051,1.15196 -5.35538,1.09836 -7.86914,1.625 -11.05127,2.31522 -5.99146,4.56846 -10.01562,7.04492 -4.89044,3.0096 -11.26342,3.25604 -16.45313,5.41797 -2.21945,0.92458 -3.46337,3.25036 -5.90234,3.92773 -5.02692,1.39608 -10.01425,-2.49273 -14.66406,-1.08398 -3.84792,1.16579 -12.85052,2.62501 -15.65039,5.35156 -0.94038,0.91578 -0.58595,2.54053 -1.51954,3.31836 -1.51511,1.26232 -3.69712,1.31043 -5.27539,2.50586 -6.44699,4.88308 -13.46762,2.99103 -16.91796,9.89453 -2.56602,-0.78354 -4.05977,6.10876 -6.48047,6.16211 -0.62034,0.0137 -1.2275,0.0563 -1.81836,0.13086 -5.820936,0.73481 -9.899838,9.4989 -12.609378,13.75 -2.608336,4.09232 -4.837641,6.51006 -5.185546,11.64844 -0.508872,7.51585 1.953037,32.56103 0.447265,36.98047 -1.362217,3.99807 -7.362807,2.9549 -8.675781,6.43554 -0.06181,0.16388 3.738902,16.23681 3.488281,20.31836 -0.431735,7.03057 -4.811832,13.59895 -5.365234,20.72461 -0.639731,8.23718 4.232847,18.77127 1.431641,26.55078 -0.840189,2.33337 -4.097428,3.42086 -4.740235,5.75781 -1.463282,5.31992 1.357038,10.48726 1.966797,15.64454 0.520747,4.40435 -1.406963,9.18552 -0.447266,13.54687 0.953832,4.33467 3.209001,7.32238 2.236328,11.98828 -0.513492,2.4632 -3.48047,3.49166 -4.917968,5.41797 -2.075275,2.78098 -0.956342,6.8407 -3.13086,9.68555 -2.711864,3.54784 -10.65298,10.53608 -11.892578,14.42578 -1.783219,5.59551 3.784384,10.09949 2.056641,16.11914 -0.802292,2.7953 -3.564415,4.91593 -2.503906,8.12891 1.598951,4.84429 8.657163,6.13684 11.177734,9.95507 1.849512,2.80169 2.584304,7.14117 6.259766,8.4668 8.632225,3.11346 7.821562,-6.70856 13.68164,-9.14258 5.349385,-2.2219 10.74706,2.3514 15.460939,4.99024 -0.14583,0.62813 -0.21787,1.32214 -0.16992,2.12109 0.12513,2.08509 12.55198,0.87621 13.77148,0.94727 4.34068,0.25311 8.93652,-0.1081 13.23438,0.54297 4.27541,0.6476 7.75261,2.28183 12.25,2.36914 6.01139,0.11675 18.35563,-1.86836 23.96484,0.74609 8.4556,3.94118 15.40426,-0.94421 23.42969,-2.70899 4.40294,-0.96814 10.54265,0.0826 14.57617,-2.0996 1.60446,-0.86805 1.82567,-2.83617 3.21875,-3.58985 2.75936,-1.49284 6.30398,2.70343 9.21094,1.55664 3.79218,-1.49597 3.97873,-7.48357 7.33203,-10.02343 5.7822,-4.37953 12.83254,-2.56149 18.33203,-5.01172 3.18436,-1.41876 3.64138,-6.79761 7.33203,-8.19532 7.45608,-2.82364 24.49254,-2.70486 31.74414,-0.94726 3.62031,0.87749 4.84181,4.20233 9.0332,3.58789 7.67217,-1.12471 13.34984,-8.04498 21.19141,-9.61719 8.14391,-1.63275 15.56689,0.25732 22.17773,-0.74414 3.20667,-0.48574 3.93419,-4.66233 7.60157,-4.80859 5.33061,-0.21253 10.59387,1.86939 15.82617,1.21875 6.68934,-0.83184 10.32288,-5.80135 13.95117,-6.43555 3.03676,-0.5308 4.96053,2.20338 7.86914,1.55859 5.37014,-1.19047 6.43674,-8.615 12.16016,-8.39843 5.83895,0.22114 12.67193,0.43816 18.51172,1.21875 2.59702,0.34711 4.74388,2.18695 7.24218,2.70898 2.34365,0.48968 4.21887,-1.29666 6.34961,-0.8125 1.92787,0.43805 3.62437,1.85724 5.54297,2.23633 2.39562,0.47335 4.13924,-1.25002 6.43946,-1.01758 3.84147,0.38793 7.17256,2.58794 11.08789,2.8457 4.52107,0.29764 13.16323,1.57642 17.52734,0.47461 1.69773,-0.42863 3.60829,-5.3741 4.4707,-5.08008 8.39108,2.86001 9.43002,7.73967 19.58399,6.90821 6.08439,-0.49822 15.22049,-1.30701 20.5664,-4.19922 2.26859,-1.22733 3.89798,-3.92242 5.8125,-5.62109 7.20125,-6.38937 16.47614,-8.22281 25.93164,-5.55469 8.81265,2.4867 15.66892,12.01224 21.01563,18.76172 1.10744,1.39797 2.07963,4.76998 3.66602,5.62109 5.24936,2.81616 11.64635,-2.08669 17.4375,2.70898 4.41783,3.65847 8.2077,10.27521 14.48632,11.10743 4.03729,0.5351 28.86032,-11.18827 34.96289,-11.98828 7.54126,-0.98858 15.64833,0.47108 20.21094,6.70507 1.46839,2.00629 3.71069,6.60396 6.4375,7.72266 1.36297,0.55907 4.20985,-0.0312 5.63477,0.13477 5.26824,0.6139 9.30034,5.63876 12.78711,9.07617 1.19157,1.17471 2.272,2.47319 3.57617,3.52148 4.24634,3.41318 15.84253,-7.64718 17.25781,-10.22656 1.31414,-2.39513 1.60049,-8.67322 3.57813,-10.43164 71.98149,-19.60919 48.58921,-31.17128 41.76562,-71.9961 -0.44942,-2.85082 0.24932,-5.80081 -0.53516,-8.60156 -0.59996,-2.14223 -8.42538,-22.51125 -10.37304,-24.51758 -3.35755,-3.45857 -9.18104,-5.26339 -13.14649,-7.78906 -3.48015,-2.21654 -5.45017,-5.28109 -9.20898,-7.11133 -1.83421,-0.8931 -5.33409,-0.3085 -6.79688,-1.69336 -3.95962,-3.7488 -2.18496,-7.73376 -5.00781,-11.44726 -2.67466,-3.51855 -7.74662,-6.41252 -9.47851,-10.56641 -2.49219,-5.97743 8.76994,-18.05611 -1.43165,-25.05859 -7.8486,-5.38738 -9.36655,-4.2076 -10.2832,-14.96875 -0.66039,-7.7531 19.18641,-10.82786 13.5918,-19.30274 -3.66573,-5.55303 -11.57522,-8.52919 -11.44531,-8.80468 0.67903,-1.44012 3.95044,-3.11459 4.91797,-4.33594 1.66371,-2.10017 1.52144,-5.04199 2.86132,-6.63672 2.33152,-2.77504 6.78328,-6.23335 7.7793,-9.75391 0.0756,-0.26645 -2.07574,-1.88162 -2.14453,-3.18359 -0.13606,-2.57941 0.34511,-5.91598 -0.89453,-8.33008 -0.76048,-1.48112 -2.49093,-2.07807 -3.21875,-3.31836 -1.18757,-2.02386 1.16019,-6.09883 -0.0899,-7.99218 -1.35435,-2.05165 -3.49922,-5.25521 -4.20312,-7.6543 -2.13918,-7.29113 5.77959,-11.378 4.91797,-18.55664 -0.23509,-1.95931 -2.42701,-8.85141 -5.09766,-9.07617 -0.82446,-0.0696 -2.3538,0.35225 -3.12891,0 -1.77316,-0.8058 -3.41665,-3.31207 -5.27539,-4.33594 -1.38576,-0.76337 -8.46241,-0.34656 -13.8164,0.31445 -1.02719,-6.62553 -8.41273,-17.86725 -13.91211,-18.33008 -1.26425,-0.1062 -1.38624,4.73872 -4.65039,4.06446 -3.70318,-0.76498 -6.72669,-5.46974 -10.01367,-7.24805 -3.47989,-1.88266 -9.06817,-3.72803 -12.78711,-5.08008 -0.82761,-0.30085 -6.97224,-1.58704 -7.69141,-0.8789 -0.44818,0.44129 -0.69106,2.00999 -1.51953,2.09961 -2.27701,0.24641 -4.88425,-2.18678 -7.33399,-2.30274 -3.93942,-0.18633 -8.176,1.65914 -12.25,1.89648 -7.17689,0.41817 -14.26743,-0.96083 -21.37109,0.3379 -1.80654,0.33033 -2.5035,1.79892 -4.65039,1.42187 -2.83718,-0.49829 -6.65961,-2.35975 -9.74805,-1.82812 -2.11528,0.36396 -2.34406,2.4022 -4.20117,3.04687 -1.49605,0.51938 -35.65333,0.38393 -39.79297,0 -8.81369,-0.8174 -16.3711,-5.33555 -25.21875,-5.17578 z m -159.50195,23.72852 c 0.75478,0.12106 3.39692,6.25908 3.7207,6.62695 1.38268,1.57092 10.45789,4.06954 12.51953,3.86133 1.15823,-0.11717 1.64918,-1.56659 2.77149,-1.82813 3.80588,-0.88698 3.79384,0.90855 4.91797,3.25 0.19419,0.40449 5.33024,2.50194 6.08203,2.70899 4.82138,1.32793 23.25838,13.43734 28.5332,12.47851 3.59962,-0.65435 9.03351,1.09634 12.33985,-0.40625 5.27848,-2.39879 12.62582,-0.99129 17.4375,-3.72461 1.6885,-0.95917 6.60278,-3.9777 8.13867,-4.13281 3.49493,-0.35301 8.6588,0.55876 11.71289,2.16797 0.92542,0.48759 2.59287,2.74403 3.39844,2.8457 3.01576,0.38071 5.88132,-0.3475 8.76367,0.74414 4.89464,1.85363 10.78011,-5.10213 15.73828,-4.26758 2.99611,0.50427 5.24067,3.03409 8.40625,3.38672 1.20404,0.13418 6.26699,-1.19275 7.24219,-0.26953 3.10178,2.93666 6.90369,3.78604 11.26757,4.19922 7.93055,0.75084 33.83719,-4.45782 39.70313,-2.23633 0.47781,0.18104 1.37704,3.2608 2.05664,3.86133 2.67489,2.36368 10.85954,-0.89897 13.5918,-1.49023 1.17078,-0.25323 3.96744,1.49023 5.8125,1.49023 4.69073,0 9.19973,-1.26965 13.86133,-1.83008 2.48695,-0.29896 5.15711,-0.53017 7.51171,-1.42187 1.27019,-0.48102 5.35265,-6.15642 6.85033,-6.03574 2.97626,0.23962 1.83884,-6.89808 4.79749,-7.50923 9.1539,-1.8909 -6.29528,-8.75065 9.60528,-12.47172 8.24601,-1.92974 35.35296,-4.5846 27.45073,8.27672 -0.99469,1.61891 4.43267,1.70145 6.25976,1.35547 0.33789,-0.0639 2.51728,-1.62413 2.77149,-1.28711 0.92235,1.22252 -5.89864,7.66652 3.04101,2.98047 3.44285,-1.8047 4.58891,-1.5908 6.25782,-1.22071 17.20425,22.74861 -8.39467,17.01745 -6.85422,22.41974 -1.44511,0.74675 -3.15384,1.56587 -5.17969,2.77148 0.54494,3.14986 -0.34691,5.88745 -3.30859,7.38282 -3.88566,1.96206 -10.53683,-1.42097 -13.76953,0.67773 -4.01167,2.60447 -5.06687,14.32559 -6.79688,18.69336 -0.83833,2.11657 -3.60905,4.09999 -4.11328,6.77344 -0.5591,2.96443 -0.629,6.90565 -2.05664,9.54883 -1.4866,2.75236 -3.25452,2.16903 -5.36523,3.99609 -4.1585,3.5997 -8.32661,7.87556 -11.17774,12.73437 -1.73197,2.95166 2.6506,7.15808 0.625,10.22657 -1.01779,1.54178 -3.68466,3.26553 -5.18554,4.40234 -2.40783,1.82374 -3.47682,8.09885 -6.70704,9.21094 -2.60432,0.89662 -10.28882,9.15169 -11.625,11.17578 -1.61729,2.44993 3.10532,7.82889 1.60938,10.9043 -1.34415,2.76332 -5.29056,4.22933 -6.88477,7.24804 -1.02134,1.93391 -5.98322,14.98904 -6.34961,16.93164 -0.62498,3.31359 -0.18878,6.28612 -1.87695,9.48243 -1.49851,2.83751 -3.41091,8.25433 0.1875,12.79687 1.27227,1.60604 4.27913,-0.18903 5.54297,1.96484 1.24464,2.12111 -0.13315,4.7493 0.62695,6.90821 0.83169,2.36224 -1.50412,7.1128 0.39419,8.39084 0.72011,0.4848 1.67309,5.29574 2.45738,5.83572 0.87979,0.60582 1.76952,3.16627 2.77343,3.31836 3.19514,0.48401 15.16191,1.38427 17.07813,1.96484 2.32093,0.70315 5.57791,5.82526 9.39062,6.90821 5.46316,1.55168 12.42603,0.099 17.70508,1.96484 2.49884,0.88328 3.74041,3.80316 6.25977,4.53711 1.6744,0.48779 3.9281,-0.12554 5.36523,1.08398 2.3667,1.99174 4.70701,5.89823 7.51172,7.31446 2.9331,1.48104 6.57433,-0.36262 9.47852,1.28711 4.97616,2.82674 8.06731,-0.81714 13.86132,0.0605 1.48373,0.22489 4.30796,-0.71343 8.53148,4.37079 0.72023,0.86701 7.07875,-7.98918 7.89626,-9.02118 0.72378,-0.91366 -0.56572,-3.12737 0.0898,-3.99609 1.60853,-2.13207 5.29425,6.26992 7.24414,4.54687 1.11062,-0.98135 0.98196,-2.17555 2.77149,-2.57422 2.86223,-0.6376 5.70384,0.60791 8.22656,0.88086 2.21102,0.23925 5.97471,-1.02621 7.78125,0 1.23526,0.70171 1.08536,2.56882 2.14453,3.52149 1.40822,1.26656 4.76956,1.62388 5.63477,3.58984 0.42731,0.971 -0.20461,1.73379 0.71484,2.70899 0.89851,0.95274 5.62314,1.62015 5.63281,1.69336 0.30055,2.27639 5.90759,9.99992 5.75454,15.96394 -0.11902,4.6381 -6.05725,13.81873 -5.64126,15.07902 0.44868,1.35933 -2.55679,-0.47351 -3.44149,0.84697 -6.16797,0.38076 -13.44798,4.23898 -14.71671,3.7585 -2.11147,-0.79963 -3.27787,-4.69048 -5.18555,-5.01171 -5.45412,-0.91801 -10.81307,1.43593 -16.36523,0 -5.66483,-1.4651 -18.5012,-24.55531 -20.56641,-19.28321 -2.63924,6.73746 -0.81523,-3.37619 -1.43164,-3.65625 -2.1335,-0.96956 -5.13753,-1.0696 -7.42187,-1.55859 -7.31267,-1.56529 -21.54344,-0.99892 -25.2168,-9.34571 -0.43525,-0.98851 0.19393,-2.18408 -0.53711,-3.25195 -2.90831,-4.24826 -16.73498,-4.15313 -18.0625,-6.16406 -4.2638,-6.45899 -15.64007,-8.66788 -23.16015,-9.61719 -3.00333,-0.37912 -5.33898,-4.88643 -7.7793,-2.4375 -6.76643,6.79028 -11.08898,9.05194 -12.84922,8.1328 -1.67489,-0.87457 -3.40094,10.21153 -5.03555,9.79884 -2.04914,-0.51719 -4.49377,0.18687 -6.61718,-0.13476 -1.68242,-0.25486 -2.17552,-2.91 -2.6836,-4.06446 -0.22,-0.49995 -5.79457,1.12675 -6.52734,1.01563 -1.41661,-0.2146 -3.15019,-3.65889 -3.75586,-4.94336 -0.99096,-2.10153 -3.66776,-2.53427 -6.70703,-3.45508 -5.28287,-1.60052 -4.38841,-0.5934 -8.58399,0.67774 -3.78754,1.1475 -8.22791,-18.4733 -11.98242,-17.52539 -4.3381,1.09521 -8.78514,6.03256 -11.625,6.57031 -13.1918,2.49793 -11.74141,-3.4176 -19.85156,-8.19531 -7.57221,-4.46079 -16.02367,5.43611 -22.35547,5.75585 -3.50037,0.17677 -11.77872,-1.11762 -12.25195,3.1836 -0.003,0.0305 -7.08341,-1.02378 -7.68946,-1.15039 -4.02266,-0.84065 -8.16384,-0.7461 -12.33984,-0.7461 -3.9236,0 -8.4609,2.13947 -12.25195,3.1836 -3.7719,1.03888 -6.887,-1.86994 -10.28321,-1.35547 -4.35227,0.6593 -7.41381,2.4571 -12.25,2.16797 -6.92764,-0.41424 -10.43134,-5.49417 -14.1289,-5.96094 -6.82665,-0.86177 -11.18742,12.13877 -16.00782,6.14062 -1.10177,-1.371 -14.23591,0.34637 -15.29101,1.625 -3.56567,4.32114 -2.12844,3.26332 1.78906,6.23047 3.69003,2.79489 -0.11008,3.65821 -2.23633,3.65821 -15.81732,0 -22.17506,6.94316 -36.57617,11.79101 -4.58474,1.54334 -11.74773,-0.95536 -15.91797,1.15039 -4.67185,2.35903 -11.141,-3.02435 -21.40234,-2.67382 -4.58866,0.15674 -4.43321,4.56403 -10.60742,7.57031 -2.75869,1.34339 -6.70416,-1.18739 -9.47852,-0.13672 -1.98804,0.75288 -2.96665,2.353 -4.73828,2.91211 -2.6087,0.82314 -6.17857,-0.90117 -8.94336,-0.20313 -1.97944,0.49977 -2.84661,2.95791 -4.82812,3.58985 -11.39879,3.63522 -23.74309,3.36226 -35.14258,6.50195 -2.41575,0.66535 -4.61441,3.11107 -6.97461,4.06445 -4.16422,1.68208 3.93686,4.34546 -1.52539,6.41407 -4.34208,1.64436 -0.48854,2.8229 -2.23633,4.80859 -2.0702,2.35204 -5.12935,4.37355 -7.86914,5.82617 -4.8411,2.56672 -15.56312,-0.47587 -20.87695,3.99609 -0.95288,0.80194 -2.14568,1.26433 -3.21875,1.89649 -0.48414,0.681 -9.5945,-1.36714 -11.68164,1.29297 -4.96157,-0.67356 -9.27016,-1.50965 -10.12891,-3.46094 -0.3981,-0.90463 0.62868,-2.88131 -0.35742,-3.52148 -0.55925,-0.36295 -2.04854,0.6841 -2.6836,0.20312 -2.30287,-1.74425 -7.19271,-2.84121 -9.20898,-4.67383 -0.68438,-0.62203 0.0906,-2.29647 -0.17969,-3.11523 -0.42325,-1.28228 -2.266394,-2.1793 -2.414061,-3.52149 -0.128693,-1.16965 -1.644324,-3.25758 0.894532,-3.92773 8.894679,-2.34777 8.920729,-1.40342 13.054689,-11.24414 0.48959,-1.16546 2.2317,-2.83152 2.5039,-3.65625 0.68118,-2.06374 15.49005,-12.06502 15.95508,-14.88281 2.31172,-14.0075 4.13981,-29.4825 1.07422,-43.41407 -0.73507,-3.34053 1.54772,-5.45287 1.78711,-8.53515 0.20847,-2.68434 0.9215,-5.84454 0.53711,-8.46485 -0.20984,-1.4304 -1.86418,-2.61654 -1.3418,-4.19921 1.41583,-4.28943 2.73409,-10.03122 1.51953,-14.63086 -0.73299,-2.77588 -3.38762,-3.86139 -4.56054,-6.23047 -0.47585,-0.9611 -0.0155,-3.55417 0.17968,-4.47071 0.93575,-4.39426 0.78686,-16.51265 1.9668,-19.64062 0.7346,-1.9474 -0.23606,-1.99365 -1.22851,-4.36719 -2.03428,-4.86514 -8.32983,-6.65615 -12.30274,-2.34179 -3.95099,4.29054 -11.75902,-0.36854 -12.92969,-1.55079 -0.27041,-0.27309 2.81416,-4.28836 2.83985,-4.64062 0.41345,-5.63682 -1.74147,-11.63833 -0.44727,-16.93164 0.81622,-3.33838 4.75322,-4.44715 7.47656,-6.1543 10.191,2.80815 4.22045,-14.23751 5.48633,-12.02539 2.35078,4.10796 12.72102,2.47908 13.72657,-0.97852 1.55828,-5.35812 13.21761,4.90564 14.00781,-0.82031 0.68399,-4.95626 6.22415,4.20062 11.27148,3.81836 3.66332,-0.27742 7.52006,4.54248 11.71485,3.79492 8.83386,-1.57432 13.23971,-2.91828 21.72851,-6.23047 3.25963,-1.27183 6.86936,-4.04191 10.19531,-4.80859 2.06332,-0.47565 7.17203,0.93393 8.94141,-0.40625 3.66185,-2.77353 6.40101,-6.813 10.01563,-9.55078 3.02694,-2.29266 7.44719,-3.79657 10.73046,-5.95898 6.37876,-4.20121 17.06959,-0.44474 23.78711,-3.65821 2.58127,-1.23481 4.32802,-4.58641 6.88477,-5.55469 2.57665,-0.97578 6.06608,-0.1639 8.85352,-1.08203 3.80943,-1.2545 4.06908,-4.07918 6.88476,-5.96093 1.07907,-0.72114 8.37258,-2.61522 10.2832,-3.25196 3.74585,-1.24834 -1.6178,-19.72461 2.4961,-19.72461 3.16072,0 15.1708,1.42425 16.90039,-2.50586 1.07198,-2.43579 -1.12929,-10.76246 1.34179,-12.25976 5.02448,-3.04452 13.92337,-0.0959 17.07813,-4.875 0.0323,-0.0489 0.0747,-0.0667 0.125,-0.0586 z"
       transform="scale(0.26458333)"
       sodipodi:nodetypes="scscscssssssssscsssssssssssssscscssssssssssssssssssscsssssssssssssssssssscsssscsscssssssssssscsssccsssssssssssssccssssssssccssssssssssssssscsssssssssssssssssssscsssssscccssssssssssssssssssssssssssssssscssssssscsscscssssssssssssscsssssssccsssssssssssssssssssssssccssssssssssssssssssssscscsssssssssssscsssssssss" />
    <path
       style="font-variation-settings:normal;opacity:1;vector-effect:none;fill:#61a21b;fill-opacity:1;stroke:#000000;stroke-width:0.36699893;stroke-linecap:round;stroke-linejoin:round;stroke-miterlimit:4;stroke-dasharray:none;stroke-dashoffset:0;stroke-opacity:1;paint-order:markers fill stroke;stop-color:#000000;stop-opacity:1"
       d="m 177.00525,182.10717 c -1.94795,-1.45978 -4.34831,-1.84236 -6.50639,-0.75265 -0.38754,0.19569 -0.22276,1.07372 -0.56784,1.11106 -1.92783,0.20859 -4.29665,-0.19663 -4.61362,2.20418"
       id="path1206" />
    <path
       style="font-variation-settings:normal;opacity:1;vector-effect:none;fill:#61a21b;fill-opacity:1;stroke:#000000;stroke-width:0.36699893;stroke-linecap:round;stroke-linejoin:round;stroke-miterlimit:4;stroke-dasharray:none;stroke-dashoffset:0;stroke-opacity:1;paint-order:markers fill stroke;stop-color:#000000;stop-opacity:1"
       d="m 181.33496,182.55518 c -0.19717,-0.32854 -0.36842,-0.67409 -0.5915,-0.98562 -0.17546,-0.24503 -4.32145,0.14587 -4.96851,0.25089 -0.41992,0.0682 -1.40732,0.74041 -1.79813,1.00353 -0.41147,0.27702 -0.27624,0.80897 -0.63881,1.11105"
       id="path1208" />
    <path
       style="font-variation-settings:normal;opacity:1;vector-effect:none;fill:#61a21b;fill-opacity:1;stroke:#000000;stroke-width:0.36699893;stroke-linecap:round;stroke-linejoin:round;stroke-miterlimit:4;stroke-dasharray:none;stroke-dashoffset:0;stroke-opacity:1;paint-order:markers fill stroke;stop-color:#000000;stop-opacity:1"
       d="m 173.59826,204.2207 c -0.36423,-1.41481 -1.59608,-4.18025 -3.64358,-3.40484 -0.36923,0.13983 -0.56519,0.46897 -0.9937,0.55553 -0.52803,0.10664 -1.26496,-0.23 -1.75081,0 -1.45156,0.68714 -0.0408,0.79534 -2.3423,1.18273"
       id="path1210" />
    <path
       style="font-variation-settings:normal;opacity:1;vector-effect:none;fill:#61a21b;fill-opacity:1;stroke:#000000;stroke-width:0.36699893;stroke-linecap:round;stroke-linejoin:round;stroke-miterlimit:4;stroke-dasharray:none;stroke-dashoffset:0;stroke-opacity:1;paint-order:markers fill stroke;stop-color:#000000;stop-opacity:1"
       d="m 178.94533,204.8479 c -4.29638,-2.48851 -5.07848,-0.94983 -8.99065,-0.39424"
       id="path1212" />
    <path
       style="font-variation-settings:normal;opacity:1;vector-effect:none;fill:#61a21b;fill-opacity:1;stroke:#000000;stroke-width:0.36699893;stroke-linecap:round;stroke-linejoin:round;stroke-miterlimit:4;stroke-dasharray:none;stroke-dashoffset:0;stroke-opacity:1;paint-order:markers fill stroke;stop-color:#000000;stop-opacity:1"
       d="m 180.10466,221.58537 c 0.10124,-0.40048 0.3454,-0.98619 0.16561,-1.43362 -0.56662,-1.41014 -3.2336,-0.004 -3.92749,-0.0717 -0.75238,-0.0735 -1.43103,-0.51671 -2.17669,-0.62721 -0.72156,-0.10692 -1.93471,0.27067 -2.67353,0.48385 -0.13418,0.0387 -0.45734,1.10606 -0.59149,1.27233 -0.21436,0.26568 -2.00871,1.09448 -2.27132,1.11106"
       id="path1214" />
    <path
       style="font-variation-settings:normal;opacity:1;vector-effect:none;fill:#61a21b;fill-opacity:1;stroke:#000000;stroke-width:0.36699893;stroke-linecap:round;stroke-linejoin:round;stroke-miterlimit:4;stroke-dasharray:none;stroke-dashoffset:0;stroke-opacity:1;paint-order:markers fill stroke;stop-color:#000000;stop-opacity:1"
       d="m 154.74156,214.70401 c -0.318,-0.4639 -0.61217,-1.61141 -1.3486,-1.7741 -1.95251,-0.43133 -4.33276,0.79249 -5.72562,1.93538 -0.32054,0.26301 -0.0328,0.74164 -0.3549,0.98561"
       id="path1216" />
    <path
       style="font-variation-settings:normal;opacity:1;vector-effect:none;fill:#61a21b;fill-opacity:1;stroke:#000000;stroke-width:0.36699893;stroke-linecap:round;stroke-linejoin:round;stroke-miterlimit:4;stroke-dasharray:none;stroke-dashoffset:0;stroke-opacity:1;paint-order:markers fill stroke;stop-color:#000000;stop-opacity:1"
       d="m 169.37309,224.5235 c 0.15697,-0.76972 0.001,-1.39302 -0.25335,-2.10091 -0.12165,-0.33849 -1.21297,-2.58096 -1.76249,-2.28482 -0.38923,0.20982 -0.4236,1.42015 -0.59987,1.82331 -0.18236,0.41706 -0.55185,0.60574 -0.68194,1.09095 -0.11051,0.41244 0.0268,1.00647 -0.21162,1.41296 -0.10445,0.17694 -0.5968,0.22887 -0.75681,0.26262"
       id="path1222" />
    <path
       style="font-variation-settings:normal;opacity:1;vector-effect:none;fill:#61a21b;fill-opacity:1;stroke:#000000;stroke-width:0.36699893;stroke-linecap:round;stroke-linejoin:round;stroke-miterlimit:4;stroke-dasharray:none;stroke-dashoffset:0;stroke-opacity:1;paint-order:markers fill stroke;stop-color:#000000;stop-opacity:1"
       d="m 191.76884,224.68556 c -0.53485,-3.06436 -2.47145,-1.99239 -4.51898,-1.88162 -0.63201,0.0342 -0.90345,-0.23538 -1.41958,-0.51968 -0.19189,-0.10571 -1.72721,0.75635 -1.75081,0.80641"
       id="path1224" />
    <path
       style="font-variation-settings:normal;opacity:1;vector-effect:none;fill:#61a21b;fill-opacity:1;stroke:#000000;stroke-width:0.36699893;stroke-linecap:round;stroke-linejoin:round;stroke-miterlimit:4;stroke-dasharray:none;stroke-dashoffset:0;stroke-opacity:1;paint-order:markers fill stroke;stop-color:#000000;stop-opacity:1"
       d="m 165.64864,213.19872 c 0.0824,-3.01129 -2.54324,-1.91242 -4.18775,-1.20066 -0.31522,0.13643 -0.30948,0.64633 -0.59149,0.82433 -0.29734,0.18767 -0.98656,-0.75806 -1.51422,-0.3584 -0.0856,0.0648 -0.0237,0.62086 -0.0237,0.68096"
       id="path1226" />
    <path
       style="font-variation-settings:normal;opacity:1;vector-effect:none;fill:#61a21b;fill-opacity:1;stroke:#000000;stroke-width:0.36699893;stroke-linecap:round;stroke-linejoin:round;stroke-miterlimit:4;stroke-dasharray:none;stroke-dashoffset:0;stroke-opacity:1;paint-order:markers fill stroke;stop-color:#000000;stop-opacity:1"
       d="m 164.442,215.43874 c 0.91939,-2.14586 2.4865,-2.41138 3.88017,-1.98914 0.57618,0.17456 0.29538,1.05036 0.30758,1.05729 0.0696,0.0395 1.01662,-0.82629 1.3486,0.0538 0.2986,0.7916 -0.92192,0.60207 -0.0237,1.43362"
       id="path1228" />
    <path
       style="font-variation-settings:normal;opacity:1;vector-effect:none;fill:#61a21b;fill-opacity:1;stroke:#000000;stroke-width:0.36699893;stroke-linecap:round;stroke-linejoin:round;stroke-miterlimit:4;stroke-dasharray:none;stroke-dashoffset:0;stroke-opacity:1;paint-order:markers fill stroke;stop-color:#000000;stop-opacity:1"
       d="m 165.77597,190.86176 c -0.93663,-0.60833 -3.10413,-1.68271 -4.42435,-1.18273 -0.66127,0.25043 -1.24357,0.83034 -1.91643,1.02145 -0.38971,0.11069 -0.85961,0.006 -1.01736,0.48385 -0.0853,0.25836 -0.19872,0.82918 -0.1183,1.09313 0.14454,0.4744 0.66972,0.4146 0.87541,0.78849"
       id="path1230"
       sodipodi:nodetypes="cssssc" />
    <path
       style="font-variation-settings:normal;opacity:1;vector-effect:none;fill:#61a21b;fill-opacity:1;stroke:#000000;stroke-width:0.36699893;stroke-linecap:round;stroke-linejoin:round;stroke-miterlimit:4;stroke-dasharray:none;stroke-dashoffset:0;stroke-opacity:1;paint-order:markers fill stroke;stop-color:#000000;stop-opacity:1"
       d="m 179.074,174.91125 c -0.92039,-3.79911 -3.34467,-0.18074 -4.85022,-0.77057 -1.71151,-0.67051 -1.78508,-0.6039 -3.4543,-0.75264"
       id="path1236" />
    <path
       style="font-variation-settings:normal;opacity:1;vector-effect:none;fill:#61a21b;fill-opacity:1;stroke:#000000;stroke-width:0.36699893;stroke-linecap:round;stroke-linejoin:round;stroke-miterlimit:4;stroke-dasharray:none;stroke-dashoffset:0;stroke-opacity:1;paint-order:markers fill stroke;stop-color:#000000;stop-opacity:1"
       d="m 151.2146,168.14734 c -0.99757,-1.78323 -2.48853,-2.47697 -4.0458,-1.12898 -0.18349,0.15884 -0.11175,0.49249 -0.37855,0.62721 -0.54068,0.27302 -1.45314,-0.76526 -2.31864,-0.19712 -0.36509,0.23965 -1.18393,1.52202 -0.75711,2.06082 0.10319,0.13026 0.76881,0.0622 0.78077,0.10752 0.14156,0.53611 -0.49709,0.82433 -0.92272,0.82433"
       id="path1238" />
    <path
       style="font-variation-settings:normal;opacity:1;vector-effect:none;fill:#61a21b;fill-opacity:1;stroke:#000000;stroke-width:0.36699893;stroke-linecap:round;stroke-linejoin:round;stroke-miterlimit:4;stroke-dasharray:none;stroke-dashoffset:0;stroke-opacity:1;paint-order:markers fill stroke;stop-color:#000000;stop-opacity:1"
       d="m 129.89729,169.54511 c -0.49688,-1.72615 -1.64208,-2.52567 -3.40698,-2.1325 -0.5651,0.12589 -0.73979,0.73851 -1.41958,0.82433 -0.38154,0.0482 -0.59811,-0.17657 -0.92272,-0.34049 -0.36999,-0.18682 -3.12884,1.13286 -3.52528,1.52322"
       id="path1240" />
    <path
       style="font-variation-settings:normal;opacity:1;vector-effect:none;fill:#61a21b;fill-opacity:1;stroke:#000000;stroke-width:0.36699893;stroke-linecap:round;stroke-linejoin:round;stroke-miterlimit:4;stroke-dasharray:none;stroke-dashoffset:0;stroke-opacity:1;paint-order:markers fill stroke;stop-color:#000000;stop-opacity:1"
       d="m 145.72557,172.57363 c -0.34897,-0.92885 -0.91703,-1.52963 -1.67983,-2.13251 -0.88716,-0.70116 -2.05258,-0.43968 -3.00477,-0.82433 -0.37245,-0.15045 -0.90469,-0.85117 -1.2303,-0.89601 -0.4514,-0.0622 -1.44738,-0.14581 -1.89277,0.0358 -0.49919,0.20359 -0.84844,0.82736 -1.32494,0.86017"
       id="path1242" />
    <path
       style="font-variation-settings:normal;opacity:1;vector-effect:none;fill:#61a21b;fill-opacity:1;stroke:#000000;stroke-width:0.36699893;stroke-linecap:round;stroke-linejoin:round;stroke-miterlimit:4;stroke-dasharray:none;stroke-dashoffset:0;stroke-opacity:1;paint-order:markers fill stroke;stop-color:#000000;stop-opacity:1"
       d="m 115.39396,167.78893 c -0.14196,-0.37035 -0.17202,-0.80631 -0.42588,-1.11105 -0.51863,-0.62258 -3.94743,-1.72016 -5.06315,-2.31171 -2.66178,-1.30425 0.14188,-2.08719 -5.96222,-0.68096 -0.50235,0.57072 -0.94878,0.71185 -1.25396,1.45153"
       id="path1244"
       sodipodi:nodetypes="csccc" />
    <path
       style="font-variation-settings:normal;opacity:1;vector-effect:none;fill:#61a21b;fill-opacity:1;stroke:#000000;stroke-width:0.36699893;stroke-linecap:round;stroke-linejoin:round;stroke-miterlimit:4;stroke-dasharray:none;stroke-dashoffset:0;stroke-opacity:1;paint-order:markers fill stroke;stop-color:#000000;stop-opacity:1"
       d="m 106.81589,167.66245 c -0.89354,-0.76096 -2.20143,-1.40632 -3.40699,-0.94977 -0.18702,0.0708 -0.19973,0.35567 -0.35489,0.44801 -0.39046,0.23236 -1.0215,0.11594 -1.4669,0.25088 -0.39542,0.1198 -0.27072,0.50108 -0.59149,0.66305 -0.15867,0.0801 -2.389662,0.7526 -1.727148,1.50529 0.477909,0.54297 1.850348,0.40877 2.200348,0.80641 0.33713,0.38303 -0.01,1.11922 0.28391,1.4157"
       id="path1246"
       sodipodi:nodetypes="cssssssc" />
    <path
       style="font-variation-settings:normal;opacity:1;vector-effect:none;fill:#61a21b;fill-opacity:1;stroke:#000000;stroke-width:0.36699893;stroke-linecap:round;stroke-linejoin:round;stroke-miterlimit:4;stroke-dasharray:none;stroke-dashoffset:0;stroke-opacity:1;paint-order:markers fill stroke;stop-color:#000000;stop-opacity:1"
       d="m 71.907603,173.57716 c -0.315463,-0.26283 -0.57875,-0.60563 -0.946386,-0.78849 -0.428913,-0.21335 -3.309302,0.51968 -4.282387,0.51968 -0.234029,0 -0.636233,-0.0853 -0.828087,0.0358 -0.514625,0.32483 -0.880886,1.21071 -1.395915,1.43362 -1.590122,0.68822 -1.392611,-1.14263 -3.194048,1.4157"
       id="path1248" />
    <path
       style="font-variation-settings:normal;opacity:1;vector-effect:none;fill:#61a21b;fill-opacity:1;stroke:#000000;stroke-width:0.36699893;stroke-linecap:round;stroke-linejoin:round;stroke-miterlimit:4;stroke-dasharray:none;stroke-dashoffset:0;stroke-opacity:1;paint-order:markers fill stroke;stop-color:#000000;stop-opacity:1"
       d="m 76.654099,175.42193 c -1.311133,-0.34746 -2.291145,-0.85051 -3.200915,-0.53591 -0.85012,0.29398 -1.500684,-0.73525 -2.171334,-0.96759 -1.658438,-0.57457 -3.454181,0.8229 -5.085296,1.98734"
       id="path1250"
       sodipodi:nodetypes="cssc" />
    <path
       style="font-variation-settings:normal;opacity:1;vector-effect:none;fill:#61a21b;fill-opacity:1;stroke:#000000;stroke-width:0.36699893;stroke-linecap:round;stroke-linejoin:round;stroke-miterlimit:4;stroke-dasharray:none;stroke-dashoffset:0;stroke-opacity:1;paint-order:markers fill stroke;stop-color:#000000;stop-opacity:1"
       d="m 47.135996,183.2003 c -1.00916,0.38523 -1.251278,-1.11003 -1.869109,-1.34401 -0.735137,-0.2784 -2.273112,-0.17438 -3.099408,-0.0179 -0.298702,0.0566 -0.813827,0.0797 -1.112002,0 -0.167375,-0.0447 -0.455686,-0.38742 -0.473191,-0.21505 -0.02686,0.26444 0.04779,0.29415 -0.236596,0.26881 -0.746233,-0.0665 -1.455147,-0.68768 -2.247662,-0.53761 -0.09775,0.0185 -1.351004,0.73801 -1.466897,0.84225 -0.108702,0.0978 -1.149067,3.20015 -1.017363,3.33316 0.220417,0.22259 1.154258,-0.18688 1.301279,0.0358 0.367964,0.5574 0.19603,0.67033 0.993704,0.7168"
       id="path1252" />
    <path
       style="font-variation-settings:normal;opacity:1;vector-effect:none;fill:#61a21b;fill-opacity:1;stroke:#000000;stroke-width:0.36699893;stroke-linecap:round;stroke-linejoin:round;stroke-miterlimit:4;stroke-dasharray:none;stroke-dashoffset:0;stroke-opacity:1;paint-order:markers fill stroke;stop-color:#000000;stop-opacity:1"
       d="m 44.533441,185.61953 c -0.06079,-0.52499 -0.353862,-1.20666 0.165616,-1.61282 0.670237,-0.52402 1.354204,-0.14653 2.058387,-0.34048 0.271354,-0.0747 0.421878,-0.48704 0.662469,-0.62721 0.243186,-0.14169 0.6135,-0.003 0.899065,-0.16128 1.40259,-0.77906 2.331717,-1.46883 3.785536,-0.73473"
       id="path1254" />
    <path
       style="font-variation-settings:normal;opacity:1;vector-effect:none;fill:#61a21b;fill-opacity:1;stroke:#000000;stroke-width:0.36699893;stroke-linecap:round;stroke-linejoin:round;stroke-miterlimit:4;stroke-dasharray:none;stroke-dashoffset:0;stroke-opacity:1;paint-order:markers fill stroke;stop-color:#000000;stop-opacity:1"
       d="m 31.899211,204.52534 c -0.196522,-1.29002 0.122484,-0.90032 -1.324938,-1.52322 -1.874258,-0.80659 -1.884272,0.38947 -3.525282,0.73473 -0.240016,0.0505 -1.213494,-0.17401 -1.443235,0 -0.271677,0.20577 0.08256,0.72138 -0.331234,0.87809 -0.832371,0.31523 -1.509893,0.43215 -2.41328,0.68097 -0.128732,0.0354 -0.02366,0.748 -0.02366,0.91393"
       id="path1258" />
    <path
       style="font-variation-settings:normal;opacity:1;vector-effect:none;fill:#61a21b;fill-opacity:1;stroke:#000000;stroke-width:0.36699893;stroke-linecap:round;stroke-linejoin:round;stroke-miterlimit:4;stroke-dasharray:none;stroke-dashoffset:0;stroke-opacity:1;paint-order:markers fill stroke;stop-color:#000000;stop-opacity:1"
       d="m 30.810869,211.08413 c 0.628118,-0.59139 5.724401,-1.92149 5.536348,0.21504 -0.06708,0.76212 -1.365716,1.18516 -1.632514,2.06083 -0.529365,1.73745 1.665817,2.63427 -1.608851,2.63427"
       id="path1260" />
    <path
       style="font-variation-settings:normal;opacity:1;vector-effect:none;fill:#61a21b;fill-opacity:1;stroke:#000000;stroke-width:0.36699893;stroke-linecap:round;stroke-linejoin:round;stroke-miterlimit:4;stroke-dasharray:none;stroke-dashoffset:0;stroke-opacity:1;paint-order:markers fill stroke;stop-color:#000000;stop-opacity:1"
       d="m 27.287598,209.3209 c -0.919282,0.25332 -5.695239,-2.21438 -6.742987,-0.62721 -0.180317,0.27315 0.146094,0.83598 -0.02366,1.09313 -0.152106,0.23042 -0.652367,-0.0563 -0.780767,0.0896 -0.477121,0.54207 1.705117,2.55744 2.176684,2.79555 0.28548,0.14416 0.323544,-0.36382 0.615149,-0.43008 0.563571,-0.12806 0.491272,0.30512 0.922725,0.39424"
       id="path1262" />
    <path
       style="font-variation-settings:normal;opacity:1;vector-effect:none;fill:#61a21b;fill-opacity:1;stroke:#000000;stroke-width:0.36699893;stroke-linecap:round;stroke-linejoin:round;stroke-miterlimit:4;stroke-dasharray:none;stroke-dashoffset:0;stroke-opacity:1;paint-order:markers fill stroke;stop-color:#000000;stop-opacity:1"
       d="m 23.831286,215.86882 c 0.22284,-0.60261 0.331102,-0.86013 0.899065,-1.00353 0.731592,-0.1847 2.535829,0.3617 3.052089,0.0358 0.551868,-0.34832 1.689709,-1.08543 2.43694,-1.12897"
       id="path1264" />
    <path
       style="font-variation-settings:normal;opacity:1;vector-effect:none;fill:#61a21b;fill-opacity:1;stroke:#000000;stroke-width:0.36699893;stroke-linecap:round;stroke-linejoin:round;stroke-miterlimit:4;stroke-dasharray:none;stroke-dashoffset:0;stroke-opacity:1;paint-order:markers fill stroke;stop-color:#000000;stop-opacity:1"
       d="m 31.99385,228.62801 c -0.523235,-1.18742 -2.315588,-3.41496 -3.998473,-2.77763 -0.263761,0.0999 -0.505547,0.54622 -0.757108,0.57344 -0.771504,0.0835 -1.731299,-0.33891 -2.484259,-0.0538 -0.306507,0.11608 -0.877107,0.79352 -1.277618,1.00353"
       id="path1266" />
    <path
       style="font-variation-settings:normal;opacity:1;vector-effect:none;fill:#61a21b;fill-opacity:1;stroke:#000000;stroke-width:0.36699893;stroke-linecap:round;stroke-linejoin:round;stroke-miterlimit:4;stroke-dasharray:none;stroke-dashoffset:0;stroke-opacity:1;paint-order:markers fill stroke;stop-color:#000000;stop-opacity:1"
       d="m 30.526953,244.1469 c -0.808821,-1.71693 -2.088698,-2.06074 -3.714557,-1.4157 -0.438122,0.17382 -0.59595,0.75031 -1.041023,0.84225 -1.241412,0.25644 -2.199825,0.57116 -3.548941,0.69889 -0.0027,2.5e-4 -0.347396,1.13364 -0.425872,1.27233 -0.01183,0.0209 -1.284898,0.50648 -1.395917,0.55553"
       id="path1268" />
    <path
       style="font-variation-settings:normal;opacity:1;vector-effect:none;fill:#61a21b;fill-opacity:1;stroke:#000000;stroke-width:0.36699893;stroke-linecap:round;stroke-linejoin:round;stroke-miterlimit:4;stroke-dasharray:none;stroke-dashoffset:0;stroke-opacity:1;paint-order:markers fill stroke;stop-color:#000000;stop-opacity:1"
       d="m 166.07283,238.60956 c -1.98559,-0.64213 -1.68161,-2.18162 -2.81549,-3.35108 -0.55315,-0.57051 -2.7071,-0.1596 -3.45431,-0.25088 -0.45196,-0.0552 -0.74619,-0.80072 -1.06468,-0.77057 -1.13044,0.10703 -2.15743,1.36298 -3.28868,1.63074 -0.83661,0.19802 -2.69625,0.45016 -2.95745,1.50529"
       id="path1272" />
    <path
       style="font-variation-settings:normal;opacity:1;vector-effect:none;fill:#61a21b;fill-opacity:1;stroke:#000000;stroke-width:0.36699893;stroke-linecap:round;stroke-linejoin:round;stroke-miterlimit:4;stroke-dasharray:none;stroke-dashoffset:0;stroke-opacity:1;paint-order:markers fill stroke;stop-color:#000000;stop-opacity:1"
       d="m 130.20487,232.12245 c -0.12094,-0.12131 -1.04977,-1.13392 -1.41958,-1.29026 -1.36951,-0.57895 -2.56094,0.54207 -3.78553,0.64513 -0.39565,0.0333 -0.8066,-0.32636 -1.15933,-0.21505 -0.33459,0.1056 -1.53787,1.06075 -1.53787,1.25442"
       id="path1274" />
    <path
       style="font-variation-settings:normal;opacity:1;vector-effect:none;fill:#61a21b;fill-opacity:1;stroke:#000000;stroke-width:0.36699893;stroke-linecap:round;stroke-linejoin:round;stroke-miterlimit:4;stroke-dasharray:none;stroke-dashoffset:0;stroke-opacity:1;paint-order:markers fill stroke;stop-color:#000000;stop-opacity:1"
       d="m 128.00453,234.70295 c -0.0651,-1.91103 0.93553,-1.10557 1.94008,-1.61282 0.41184,-0.20795 0.26454,-0.68503 0.66247,-0.896 0.48748,-0.25846 5.9448,-0.46502 6.24614,-0.21505 0.24276,0.20139 0.30509,0.51528 0.40221,0.78849"
       id="path1276" />
    <path
       style="font-variation-settings:normal;opacity:1;vector-effect:none;fill:#61a21b;fill-opacity:1;stroke:#000000;stroke-width:0.36699893;stroke-linecap:round;stroke-linejoin:round;stroke-miterlimit:4;stroke-dasharray:none;stroke-dashoffset:0;stroke-opacity:1;paint-order:markers fill stroke;stop-color:#000000;stop-opacity:1"
       d="m 104.86543,233.34102 c -0.26056,-0.85485 -0.41808,-1.86263 -0.97004,-2.59843 -0.39784,-0.53034 -4.084369,-1.36065 -4.542646,-0.77057 -0.624641,0.80429 -0.47703,1.39663 -1.679831,1.73826 -0.674095,0.19146 -1.317636,-0.38395 -2.011066,-0.10752 -0.471702,0.18804 -0.218332,0.95386 -0.567831,1.21857 -0.535154,0.40534 -1.176771,0.69627 -1.679834,1.34402"
       id="path1278" />
    <path
       style="font-variation-settings:normal;opacity:1;vector-effect:none;fill:#61a21b;fill-opacity:1;stroke:#000000;stroke-width:0.36699893;stroke-linecap:round;stroke-linejoin:round;stroke-miterlimit:4;stroke-dasharray:none;stroke-dashoffset:0;stroke-opacity:1;paint-order:markers fill stroke;stop-color:#000000;stop-opacity:1"
       d="m 101.88432,235.814 c 0.008,-0.31061 -0.11853,-0.65557 0.0237,-0.93184 0.0421,-0.0817 1.236,-0.26702 1.34859,-0.30465 0.41239,-0.1378 0.98751,-0.32489 1.37226,-0.48384 0.32281,-0.13337 0.25725,-0.62943 0.56783,-0.77057 0.40497,-0.18404 0.89222,0.0667 1.30128,-0.0538 1.09275,-0.32188 3.25368,-1.38164 4.25873,-0.43009"
       id="path1280" />
    <path
       style="font-variation-settings:normal;opacity:1;vector-effect:none;fill:#61a21b;fill-opacity:1;stroke:#000000;stroke-width:0.36699893;stroke-linecap:round;stroke-linejoin:round;stroke-miterlimit:4;stroke-dasharray:none;stroke-dashoffset:0;stroke-opacity:1;paint-order:markers fill stroke;stop-color:#000000;stop-opacity:1"
       d="m 79.596974,236.29785 c -0.508098,-1.9616 -2.563143,-4.04235 -4.77924,-3.2794 -0.409546,0.141 -0.564534,0.69287 -0.946383,0.82433 -0.644462,0.22188 -1.619922,-0.24891 -2.224003,0.12545 -0.211047,0.13078 -0.158893,0.34689 -0.425873,0.448 -0.28606,0.10833 -0.74503,-0.58315 -1.088343,-0.25088 -0.819602,0.79322 -2.281758,0.33442 -2.41328,0.48384 -0.245623,0.27906 -0.358317,0.43853 -0.733446,0.55553"
       id="path1282" />
    <path
       style="font-variation-settings:normal;opacity:1;vector-effect:none;fill:#61a21b;fill-opacity:1;stroke:#000000;stroke-width:0.36699893;stroke-linecap:round;stroke-linejoin:round;stroke-miterlimit:4;stroke-dasharray:none;stroke-dashoffset:0;stroke-opacity:1;paint-order:markers fill stroke;stop-color:#000000;stop-opacity:1"
       d="m 60.858566,235.79608 c 1.465477,-1.29889 2.364084,-0.36042 3.761877,-0.0717 0.836248,0.17275 0.973429,-0.66859 1.727153,-0.57344 1.858809,0.23465 3.366066,1.79202 5.394388,1.79202"
       id="path1284" />
    <path
       style="font-variation-settings:normal;opacity:1;vector-effect:none;fill:#61a21b;fill-opacity:1;stroke:#000000;stroke-width:0.36699893;stroke-linecap:round;stroke-linejoin:round;stroke-miterlimit:4;stroke-dasharray:none;stroke-dashoffset:0;stroke-opacity:1;paint-order:markers fill stroke;stop-color:#000000;stop-opacity:1"
       d="m 55.98469,243.75265 c -0.335074,-1.6537 -3.063209,-2.59582 -4.684604,-2.07874 -0.541319,0.17263 -0.516073,0.73171 -1.182979,0.77057 -0.831466,0.0484 -1.95998,-0.38105 -2.744515,-0.14336 -0.611796,0.18535 -1.034597,0.72566 -1.656172,0.86017 -0.04308,0.009 -0.712486,-0.0131 -0.875406,0.0717 -0.123566,0.0643 -0.29672,1.03182 -0.851744,1.32609"
       id="path1286" />
    <path
       style="font-variation-settings:normal;opacity:1;vector-effect:none;fill:#61a21b;fill-opacity:1;stroke:#000000;stroke-width:0.36699893;stroke-linecap:round;stroke-linejoin:round;stroke-miterlimit:4;stroke-dasharray:none;stroke-dashoffset:0;stroke-opacity:1;paint-order:markers fill stroke;stop-color:#000000;stop-opacity:1"
       d="m 51.7023,247.92806 c -0.453829,-2.32397 1.868704,-1.4214 3.00477,-2.18626 0.354478,-0.23866 0.399602,-0.89404 0.780767,-1.18274 0.990205,-0.75 4.696531,-1.56848 5.701963,-1.27233 0.812761,0.2394 0.835047,1.56126 1.514216,1.93538"
       id="path1288" />
    <path
       style="font-variation-settings:normal;opacity:1;vector-effect:none;fill:#61a21b;fill-opacity:1;stroke:#000000;stroke-width:0.36699893;stroke-linecap:round;stroke-linejoin:round;stroke-miterlimit:4;stroke-dasharray:none;stroke-dashoffset:0;stroke-opacity:1;paint-order:markers fill stroke;stop-color:#000000;stop-opacity:1"
       d="m 39.730539,250.88489 c -2.865382,-3.54863 -4.761727,-3.11059 -8.209883,-2.24002 -0.357912,0.0904 -0.04525,0.75687 -0.283914,0.86017 -1.421196,0.6151 -1.824003,-0.081 -2.034725,1.5949"
       id="path1290" />
    <path
       style="font-variation-settings:normal;opacity:1;vector-effect:none;fill:#61a21b;fill-opacity:1;stroke:#000000;stroke-width:0.36699893;stroke-linecap:round;stroke-linejoin:round;stroke-miterlimit:4;stroke-dasharray:none;stroke-dashoffset:0;stroke-opacity:1;paint-order:markers fill stroke;stop-color:#000000;stop-opacity:1"
       d="m 91.355798,238.8246 c -0.719656,-0.77739 -1.277919,-1.77994 -2.43694,-1.84578 -0.921631,-0.0524 -2.657334,1.44335 -3.525281,1.88162 -0.573006,0.28934 -0.98673,-0.62405 -1.537875,-0.51969 -1.09919,0.20814 -2.213557,1.41972 -3.052088,1.88163"
       id="path1292" />
  </g>
</svg>
