<?xml version="1.0" encoding="UTF-8" standalone="no"?>
<svg
   xmlns:dc="http://purl.org/dc/elements/1.1/"
   xmlns:cc="http://creativecommons.org/ns#"
   xmlns:rdf="http://www.w3.org/1999/02/22-rdf-syntax-ns#"
   xmlns:svg="http://www.w3.org/2000/svg"
   xmlns="http://www.w3.org/2000/svg"
   xmlns:sodipodi="http://sodipodi.sourceforge.net/DTD/sodipodi-0.dtd"
   xmlns:inkscape="http://www.inkscape.org/namespaces/inkscape"
   xml:space="preserve"
   width="112.03779mm"
   height="80.540894mm"
   version="1.1"
   style="clip-rule:evenodd;fill-rule:evenodd;image-rendering:optimizeQuality;shape-rendering:geometricPrecision;text-rendering:geometricPrecision"
   viewBox="0 0 9662.0827 6946.1631"
   id="svg55"
   sodipodi:docname="2021-DE-05-body03.svg"
   inkscape:version="1.0 (4035a4fb49, 2020-05-01)"><path
   style="font-variation-settings:normal;clip-rule:evenodd;opacity:1;vector-effect:none;fill:#333333;fill-opacity:1;fill-rule:evenodd;stroke-width:1;stroke-linecap:butt;stroke-linejoin:miter;stroke-miterlimit:4;stroke-dasharray:none;stroke-dashoffset:0;stroke-opacity:1;image-rendering:optimizeQuality;shape-rendering:geometricPrecision;text-rendering:geometricPrecision;stop-color:#000000;stop-opacity:1"
   d="m 5736.2645,960.41025 c 0,-0.9999 10,-129 222,-31 -13.0001,67 19,51 -68,110.00005 -43,29 -60,30 -135,29 z"
   id="path51-1" /><metadata
   id="metadata59"><rdf:RDF><cc:Work
       rdf:about=""><dc:format>image/svg+xml</dc:format><dc:type
         rdf:resource="http://purl.org/dc/dcmitype/StillImage" /><dc:title /></cc:Work></rdf:RDF></metadata><sodipodi:namedview
   inkscape:document-rotation="0"
   pagecolor="#ffffff"
   bordercolor="#666666"
   borderopacity="1"
   objecttolerance="10"
   gridtolerance="10"
   guidetolerance="10"
   inkscape:pageopacity="0"
   inkscape:pageshadow="2"
   inkscape:window-width="1680"
   inkscape:window-height="987"
   id="namedview57"
   showgrid="false"
   fit-margin-top="0"
   fit-margin-left="0"
   fit-margin-right="0"
   fit-margin-bottom="0"
   inkscape:current-layer="svg55"
   inkscape:zoom="1.2720755"
   inkscape:cx="364.10228"
   inkscape:cy="-10.673495"
   inkscape:window-x="-8"
   inkscape:window-y="222"
   inkscape:window-maximized="1" />
 <defs
   id="defs4">
  <style
   type="text/css"
   id="style2">
   <![CDATA[
    .fil6 {fill:#656565}
    .fil7 {fill:#666666}
    .fil4 {fill:#686868}
    .fil1 {fill:#8C8C8C}
    .fil2 {fill:#E4C7B4}
    .fil3 {fill:#E9D5BF}
    .fil5 {fill:red}
    .fil0 {fill:white}
   ]]>
  </style>
 
  
  
 
   
   
   
   
   
   
   
   
  </defs>
 <g
   id="g17"
   transform="translate(-0.00485157,0.35377052)">
    <path
   class="fil0"
   d="m 3838,4320 167,424 460,-91 -23,-806 c -99,72 -211,155 -304,232 -105,87 -205,188 -300,241 z"
   id="path7" />
    <path
   class="fil0"
   d="m 4558,4648 401,37 195,-374 c -240,-116 -428,-306 -620,-460 z"
   id="path9" />
    <path
   class="fil0"
   d="m 5807,1557 c -53,-169 -200,-166 -416,-150 19,192 237,213 416,150 z"
   id="path11" />
    <path
   class="fil0"
   d="m 2927,1117 c 126,14 78,5 183,-38 -31,-98 -41,-150 -133,-188 -108,72 -94,103 -50,226 z"
   id="path13" />
    
   </g><g
   id="g23"
   transform="translate(-0.00485157,0.35377052)">
    <path
   id="path19"
   style="font-variation-settings:normal;opacity:1;vector-effect:none;fill:#333333;fill-opacity:1;stroke:#333333;stroke-width:0.644;stroke-linecap:butt;stroke-linejoin:miter;stroke-miterlimit:4;stroke-dasharray:none;stroke-dashoffset:0;stroke-opacity:1;stop-color:#000000;stop-opacity:1"
   d="M 196.66406,0 C 164.51092,-2.5946052 134.26235,10.021676 111.14844,15.310547 102.86576,17.107318 97.82446,8.6054109 86.298828,14.214844 82.705285,26.222536 88.184803,30.998622 89.324219,34.373047 91.12099,39.63189 69.822692,77.759089 63.994141,84.201172 51.285269,84.639409 7.4597936,81.046345 0.00976563,85.078125 V 87.09375 C 5.3124326,89.284935 49.794438,87.749993 61.232422,88.451172 58.559177,94.323547 54.395304,98.925731 50.451172,103.83398 34.849939,123.20406 40.635486,120.74889 29.986328,122.10742 L 0.00976563,130.74219 V 131.75 c 8.67709147,3.06766 23.70911937,-5.39123 34.31445337,-5.96094 -8.107384,35.80396 -11.876303,35.54189 -3.900391,81.25 9.2468,52.80755 19.019134,64.77155 57.583984,82.38867 44.963108,20.50949 70.643978,14.89957 123.933598,12.13868 64.15788,-3.3306 111.79473,-3.59406 141.63867,-45.22657 19.54537,-27.17069 32.86726,-74.63159 25.85547,-110.43554 -3.3306,-17.09124 -8.85077,-20.33399 -14.89844,-31.94727 10.9121,-0.61353 13.05801,1.27048 21.99805,3.72461 l 6.17968,0.13281 c 0.26295,-0.0876 0.70105,-0.21923 1.00782,-0.39453 -4.9959,-6.74885 -22.04264,-7.71289 -31.07032,-7.71289 -5.39031,-2.5856 -21.69247,-29.406663 -24.54101,-36.593749 6.74885,-1.007945 13.36565,-2.935171 20.55273,-3.855469 7.09944,-0.876473 17.35456,0.525788 23.00782,-2.498046 -2.71707,-4.163251 -5.03998,-2.761844 -11,-2.455078 -4.2509,0.219118 -8.28329,0.437861 -12.1836,0.919921 -8.15121,1.007945 -16.34636,3.638179 -23.62109,4.164063 L 318.60938,42.65625 c -2.89237,-4.732959 -2.23611,-4.208322 -0.0449,-9.248047 3.98796,-9.159152 2.41084,-13.32234 -4.73242,-17.923828 -8.37032,-5.390314 -13.54096,0.132784 -19.15039,2.9375 C 263.82702,5.685614 232.97123,0.07382411 196.66406,0 Z m 88.33203,19.078125 c 14.90006,5.258843 20.02812,10.431525 27.69727,21.650391 4.42619,6.529731 15.99558,23.269341 17.92383,29.886718 L 297.35352,85.384766 C 290.56084,78.592093 290.29868,75.040705 281.0957,69.650391 263.12799,59.08888 229.99754,49.404297 207.99805,49.404297 c -23.22656,0 -79.14525,2.980406 -92.42383,20.904297 -4.29472,5.740904 -9.8165,11.745528 -13.01563,19.283203 L 70.128906,85.208984 c 1.53383,-4.995901 6.090913,-11.920726 8.939453,-16.785156 3.286777,-5.69708 5.828951,-10.517026 8.589844,-16.652344 C 93.442931,38.887317 96.290539,28.193181 107.02734,21.794922 164.38284,-3.8099593 237.84757,2.8358798 284.99609,19.078125 Z M 94.771484,16.232422 c 2.547948,-0.03654 5.581126,0.825315 8.443356,2.496094 L 91.996094,30.472656 C 85.910078,20.741057 89.166,16.312805 94.771484,16.232422 Z M 305.57617,17.1875 c 4.16484,-0.175006 8.46911,3.168546 10.57813,4.916016 0.39441,6.310612 0.43826,7.406206 -2.80469,11.613281 L 300.64062,20.919922 c -0.0876,-0.438237 -0.30602,-0.571042 -0.4375,-0.833984 1.616,-2.013151 3.47995,-2.81889 5.37305,-2.898438 z M 196.97656,49.980469 c 1.28185,0.0493 2.60631,1.330727 3.96485,3.5 3.16078,0 6.43592,0.115177 9.78125,0.33789 -3.34533,-0.222731 -6.62047,-0.33789 -9.78125,-0.33789 l -0.30664,43.210937 0.0449,3.724614 c 14.33035,1.13941 35.19006,-2.586385 47.37304,-6.968754 14.2427,-5.127373 21.25403,-12.445985 33.26172,-18.31836 5.25885,2.629422 9.2905,6.923889 11.91993,12.927735 -5.9162,4.732959 -11.43657,7.363334 -19.19336,14.068359 -4.03178,3.46207 -14.8141,11.39303 -14.33204,15.07422 3.11149,1.70912 10.91266,-6.79267 17.0918,-12.31445 4.47002,-4.03178 12.92889,-10.29856 19.67774,-13.015629 2.4103,8.063559 3.37415,16.347559 2.71679,26.164059 -6.88032,4.11943 -17.66133,3.19866 -22.30664,10.03516 4.9959,2.89236 9.94715,-2.23497 21.16602,-4.20703 -1.62148,10.21092 -5.38998,17.96829 -9.02735,26.60156 -7.14326,0.52588 -33.96371,-0.39581 -36.72461,5.47656 9.59739,2.27884 22.92042,-1.97144 34.00782,-0.83203 -7.5815,15.42594 -24.93586,25.19784 -41.93946,29.27344 -20.20272,4.86443 -21.73632,-0.91898 -45.66406,-20.99024 l 0.0879,-60.74023 h -4.33789 l 0.17383,60.30078 c -3.3306,1.8406 -6.39682,4.86533 -9.68359,7.36328 -19.72067,14.98771 -15.77779,18.88763 -31.77344,13.93555 -17.44183,-5.39031 -33.21735,-15.46973 -39.39649,-26.73242 6.66121,-2.23501 20.68369,-2.32331 23.18164,-7.97656 -7.45002,-1.57766 -19.15031,2.89293 -26.86328,4.07617 -2.76089,-7.80062 -7.05491,-12.83974 -8.54492,-23.35742 7.01179,-0.1753 17.04719,3.55008 22.4375,0.48242 -3.24295,-5.60944 -18.05621,-4.2069 -23.88476,-5.21485 -1.007949,-13.36622 0.92001,-19.59009 4.11914,-30.58984 21.91184,4.820606 30.4135,13.14732 37.25,14.50586 C 139.15,99.933618 116.31809,93.842312 106.7207,91.212891 c 2.32266,-6.573554 10.03719,-16.654136 14.63868,-20.466797 12.13916,7.274733 34.09446,32.124296 71.30078,29.757816 l 0.043,-3.812504 0.57032,-42.816406 c -2.39183,-0.159617 -2.00532,-0.146066 0,0 1.18324,-2.760893 2.42128,-3.943833 3.70312,-3.894531 z m 45.80274,11.384765 c 5.91414,0.01438 9.97285,1.32816 11.71484,6.882813 -7.84444,2.760893 -17.39782,1.841883 -18.23047,-6.572266 2.36648,-0.175295 4.54425,-0.31534 6.51563,-0.310547 z m 90.55468,13.675782 c 2.01589,1.752947 21.03551,31.729714 22.21875,34.271484 -9.64121,1.27089 -17.35451,1.40111 -27.21484,3.06641 -7.97591,1.35853 -17.04838,4.07579 -24.98047,4.99609 0.61353,-14.19888 -0.43673,-16.25891 -3.67969,-28.617188 10.07945,-3.067658 21.03503,-10.955904 33.65625,-13.716796 z M 68.691406,89.267578 c 10.185318,-0.126945 21.202169,2.385287 31.0625,4.398438 -3.374424,13.497694 -4.601201,15.339434 -4.11914,31.378904 -17.660949,-0.56971 -34.403249,-3.63867 -53.378907,-3.63867 L 66.666016,89.328125 c 0.67105,-0.03287 1.346369,-0.05208 2.02539,-0.06055 z M 358.88281,113.78125 c 17.88007,17.96771 19.89579,46.49767 16.82813,71.3457 -3.15531,25.76834 -12.27014,49.95795 -24.45313,67.53125 -29.58099,42.59663 -76.16646,41.634 -139.3164,44.87696 -27.52128,1.40235 -59.7319,4.60087 -86.99024,0.13086 C 107.90375,294.8613 70.392068,278.47164 60.707031,270.01367 35.99047,248.32094 18.987217,161.46167 39.365234,126.18359 c 8.3265,-2.36648 47.853783,1.09629 57.451172,3.76953 3.242954,10.69299 4.997394,15.60111 9.335934,24.23438 -6.967964,2.93619 -19.808511,5.17161 -27.521481,7.1875 -13.366226,3.5059 -22.744877,3.63763 -22.30664,10.29883 14.330348,-1.49001 36.067449,-11.17637 53.333981,-13.14844 11.13122,23.57715 51.58042,31.29001 54.16602,33.74414 2.27883,2.14736 6.26681,15.07539 9.50976,19.7207 7.93209,0.30677 15.07414,-3.11156 22.78711,-3.90039 7.53768,-0.745 16.127,1.27149 24.23438,1.27149 l 8.85351,-18.58203 c 29.27423,-1.22707 53.07023,-16.60759 61.48438,-36.02149 13.97976,-0.48206 27.39061,0.39366 41.10742,1.83985 7.14326,0.745 29.44941,7.1879 34.44531,3.46289 -5.69708,-7.66915 -58.94419,-8.58971 -72.61718,-9.59766 l 9.59765,-28.44141 c 19.45772,-4.51384 34.53323,-8.24023 55.65625,-8.24023 z m -164.20703,54.82422 1.00781,35.32226 -20.1582,3.98829 -7.32031,-18.58204 c 4.16325,-2.32265 8.54695,-6.74983 13.14844,-10.5625 4.0756,-3.37442 8.98372,-7.01071 13.32226,-10.16601 z m 4.03125,0.17578 c 8.41415,6.74885 16.65419,15.07465 27.17188,20.1582 l -8.54688,16.39063 -17.57226,-1.6211 z"
   transform="matrix(22.818706,0,0,22.818706,-0.24349705,-0.35377052)"
   sodipodi:nodetypes="cccccccccccccccccccccccccccccccccccccccscccccccsccssccccsscccccccccccccccccccccccscccccccccccccccssccscsccccsccccscccccccccccccccccccccccccccccccccccc" />
    
   </g><g
   id="g29"
   transform="translate(-0.00485157,0.35377052)">
    <path
   class="fil2"
   d="m 4579,2291 -43,51 -2,1386 c 546,458 581,590 1042,479 388,-93 784,-316 957,-668 -253,-26 -557,71 -776,19 63,-134 675,-113 838,-125 83,-197 169,-374 206,-607 -256,45 -369,162 -483,96 106,-156 352,-135 509,-229 15,-224 -7,-413 -62,-597 -154,62 -347,205 -449,297 -141,126 -319,320 -390,281 -11,-84 235,-265 327,-344 177,-153 303,-213 438,-321 -60,-137 -152,-235 -272,-295 -274,134 -434,301 -759,418 -278,100 -754,185 -1081,159 z"
   id="path25"
   style="fill:#ffccaa;font-variation-settings:normal;opacity:1;vector-effect:none;fill-opacity:1;stroke-width:0.99999991;stroke-linecap:butt;stroke-linejoin:miter;stroke-miterlimit:4;stroke-dasharray:none;stroke-dashoffset:0;stroke-opacity:1;stop-color:#000000;stop-opacity:1" />
    <path
   class="fil2"
   d="m 4437,2342 c -18,-19 -35,-40 -41,-49 -849,54 -1350,-513 -1627,-679 -105,87 -281,317 -334,467 219,60 740,199 793,416 -156,-31 -350,-221 -850,-331 -73,251 -117,393 -94,698 133,23 471,-9 545,119 -123,70 -352,-15 -512,-11 34,240 132,355 195,533 176,-27 443,-129 613,-93 -57,129 -377,131 -529,182 141,257 501,487 899,610 365,113 275,24 725,-318 75,-57 145,-126 221,-168 z"
   id="path27"
   style="fill:#ffccaa;font-variation-settings:normal;opacity:1;vector-effect:none;fill-opacity:1;stroke-width:0.99999991;stroke-linecap:butt;stroke-linejoin:miter;stroke-miterlimit:4;stroke-dasharray:none;stroke-dashoffset:0;stroke-opacity:1;stop-color:#000000;stop-opacity:1" />
   </g><g
   id="g43"
   transform="translate(-0.00485157,0.35377052)">
    <path
   id="path885"
   style="fill:#deaa87;stroke-width:0.0438237;font-variation-settings:normal;opacity:1;vector-effect:none;fill-opacity:1;stroke-linecap:butt;stroke-linejoin:miter;stroke-miterlimit:4;stroke-dasharray:none;stroke-dashoffset:0;stroke-opacity:1;stop-color:#000000;stop-opacity:1"
   d="m 189.32812,4.0917969 c -21.16682,0 -66.83101,8.4563251 -82.30078,17.7031251 -10.736793,6.398259 -13.584409,17.092398 -19.369137,29.976562 -2.760893,6.135318 -5.303067,10.955264 -8.589844,16.652344 -2.84854,4.86443 -7.405623,11.789255 -8.939453,16.785156 l 32.429684,4.382813 c 3.19913,-7.537675 8.72091,-13.542299 13.01563,-19.283203 13.27858,-17.923891 69.19727,-20.904297 92.42383,-20.904297 21.99949,0 55.12994,9.684583 73.09765,20.246094 9.20298,5.390314 9.46514,8.941702 16.25782,15.734375 L 330.61719,70.615234 C 328.68894,63.997857 317.11955,47.258246 312.69336,40.728516 305.02421,29.50965 299.89615,24.336968 284.99609,19.078125 248.92919,6.4569016 228.02445,4.0917969 189.32812,4.0917969 Z M 333.33398,75.041016 c -12.62122,2.760892 -23.5768,10.649139 -33.65625,13.716796 3.24296,12.358278 4.29322,14.418308 3.67969,28.617188 7.93209,-0.9203 17.00456,-3.63756 24.98047,-4.99609 9.86033,-1.6653 17.57363,-1.79552 27.21484,-3.06641 -1.18324,-2.54177 -20.20286,-32.518537 -22.21875,-34.271484 z m 25.54883,38.740234 c -21.12302,0 -36.19853,3.72639 -55.65625,8.24023 l -9.59765,28.44141 c 13.67299,1.00795 66.9201,1.92851 72.61718,9.59766 -4.9959,3.72501 -27.30205,-2.71789 -34.44531,-3.46289 -13.71681,-1.44619 -27.12766,-2.32191 -41.10742,-1.83985 -8.41415,19.4139 -32.21015,34.79442 -61.48438,36.02149 l -8.85351,18.58203 c -8.10738,0 -16.6967,-2.01649 -24.23438,-1.27149 -7.71297,0.78883 -14.85502,4.20716 -22.78711,3.90039 -3.24295,-4.64531 -7.23093,-17.57334 -9.50976,-19.7207 -2.5856,-2.45413 -43.0348,-10.16699 -54.16602,-33.74414 -17.266526,1.97207 -39.003633,11.65843 -53.333981,13.14844 -0.438237,-6.6612 8.940416,-6.79293 22.30664,-10.29883 7.71297,-2.01589 20.553525,-4.25131 27.521481,-7.1875 -4.33854,-8.63327 -6.09298,-13.54139 -9.335934,-24.23438 -9.597389,-2.67322 -49.12467,-6.13601 -57.451172,-3.76953 -20.378015,35.27808 -3.374764,122.13735 21.341797,143.83008 9.685037,8.45797 47.196719,24.84763 64.244139,27.65235 27.25834,4.47001 59.46896,1.27149 86.99024,-0.13086 63.14994,-3.24296 109.73541,-2.28033 139.3164,-44.87696 12.18299,-17.5733 21.29782,-41.76291 24.45313,-67.53125 3.06766,-24.84803 1.05194,-53.37799 -16.82813,-71.3457 z"
   transform="matrix(22.818706,0,0,22.818706,-0.24349705,-0.35377052)" />
    
    
    <path
   class="fil3"
   d="m 964,2770 c 433,0 815,70 1218,83 -11,-366 17,-408 94,-716 -240,-49 -510,-111 -755,-99 z"
   id="path37"
   style="fill:#deaa87;font-variation-settings:normal;opacity:1;vector-effect:none;fill-opacity:1;stroke-width:1.00000014;stroke-linecap:butt;stroke-linejoin:miter;stroke-miterlimit:4;stroke-dasharray:none;stroke-dashoffset:0;stroke-opacity:1;stop-color:#000000;stop-opacity:1" />
    <path
   class="fil3"
   d="m 6850,458 c 3,6 8,9 10,19 l 290,292 c 74,-96 73,-121 64,-265 -70,-58 -246,-193 -364,-46 z"
   id="path39"
   style="fill:#d38d5f" />
    <path
   class="fil3"
   d="M 2099,695 2355,427 C 2146,305 1897,372 2099,695 Z"
   id="path41"
   style="fill:#d38d5f" />
   </g><path
   id="path950"
   style="font-variation-settings:normal;clip-rule:evenodd;opacity:1;vector-effect:none;fill:#e4c7b4;fill-opacity:1;fill-rule:evenodd;stroke-width:0.04382369;stroke-linecap:butt;stroke-linejoin:miter;stroke-miterlimit:4;stroke-dasharray:none;stroke-dashoffset:0;stroke-opacity:1;image-rendering:optimizeQuality;shape-rendering:geometricPrecision;text-rendering:geometricPrecision;stop-color:#000000;stop-opacity:1"
   d="M 131.04883 34.849609 C 129.8507 34.866974 128.66283 35.047802 127.53711 35.425781 C 122.19062 37.222553 118.72814 43.049847 119.64844 50.806641 C 120.34962 56.547545 120.8763 55.716303 125.21484 56.242188 C 128.58927 56.636601 133.89231 56.329112 136.60938 55.277344 C 140.77262 53.699691 145.59365 46.687558 143.0957 41.078125 C 141.63583 37.766697 136.24074 34.774362 131.04883 34.849609 z "
   transform="matrix(22.818706,0,0,22.818706,-0.24834862,0)" /><path
   class="fil6"
   d="m 2881.3577,1117.3538 c -44,-123.00003 -58,-154.00003 50,-226.00003 229.9132,166.53533 93.2502,241.67733 -50,226.00003 z m 28.6374,-309.00003 c -122,41 -201,174 -180,351.00003 16,131 28,112 127,124 77,9 198,2 260,-22 95,-36 205,-196 148,-324.00003 -41,-93 -218,-175 -355,-129 z"
   id="path49"
   sodipodi:nodetypes="ccccccccc"
   style="font-variation-settings:normal;opacity:1;vector-effect:none;fill:#333333;fill-opacity:1;stroke-width:0.99999991;stroke-linecap:butt;stroke-linejoin:miter;stroke-miterlimit:4;stroke-dasharray:none;stroke-dashoffset:0;stroke-opacity:1;stop-color:#000000;stop-opacity:1" /><path
   style="font-variation-settings:normal;clip-rule:evenodd;opacity:1;vector-effect:none;fill:#e4c7b4;fill-opacity:1;fill-rule:evenodd;stroke-width:1;stroke-linecap:butt;stroke-linejoin:miter;stroke-miterlimit:4;stroke-dasharray:none;stroke-dashoffset:0;stroke-opacity:1;image-rendering:optimizeQuality;shape-rendering:geometricPrecision;text-rendering:geometricPrecision;stop-color:#000000;stop-opacity:1"
   d="m 5600.2645,826.41025 c -0.9994,142 -35,406.00005 298.9999,349.00005 204.0002,-35 191.0001,-127 188.0001,-339.00005 -216.9999,-81 -265,-92 -487,-10 z"
   id="path946" /><path
   class="fil7"
   d="m 5736.2647,960.41025 c 0,-1 10,-129 222,-31 -13,67 19,51 -68,110.00005 -43,29 -60,30 -135,29 z m -136,-134 c -1,142 -35,406.00005 299,349.00005 204,-35 191,-127 188,-339.00005 -217,-81.00003 -265,-92.00003 -487,-10 z"
   id="path51"
   style="font-variation-settings:normal;opacity:1;vector-effect:none;fill:#333333;fill-opacity:1;stroke-width:1;stroke-linecap:butt;stroke-linejoin:miter;stroke-miterlimit:4;stroke-dasharray:none;stroke-dashoffset:0;stroke-opacity:1;stop-color:#000000;stop-opacity:1" />
<path
   style="font-variation-settings:normal;clip-rule:evenodd;opacity:1;vector-effect:none;fill:#000000;fill-opacity:1;fill-rule:evenodd;stroke:#ffffff;stroke-width:456.374;stroke-linecap:round;stroke-linejoin:miter;stroke-miterlimit:4;stroke-dasharray:none;stroke-dashoffset:0;stroke-opacity:1;image-rendering:optimizeQuality;shape-rendering:geometricPrecision;text-rendering:geometricPrecision;stop-color:#000000;stop-opacity:1"
   d="M 4923.1252,1143.6994 H 9388.749"
   id="path878-3"
   sodipodi:nodetypes="cc" /><path
   sodipodi:nodetypes="cc"
   id="path895"
   d="M 9212.2738,2702.5644 V 5746.2982"
   style="font-variation-settings:normal;clip-rule:evenodd;opacity:1;vector-effect:none;fill:none;fill-opacity:1;fill-rule:evenodd;stroke:#aa0000;stroke-width:68.4561;stroke-linecap:round;stroke-linejoin:round;stroke-miterlimit:4;stroke-dasharray:none;stroke-dashoffset:0;stroke-opacity:1;image-rendering:optimizeQuality;shape-rendering:geometricPrecision;text-rendering:geometricPrecision;stop-color:#000000;stop-opacity:1" /><path
   style="font-variation-settings:normal;clip-rule:evenodd;opacity:1;vector-effect:none;fill:none;fill-opacity:1;fill-rule:evenodd;stroke:#aa0000;stroke-width:68.4561;stroke-linecap:round;stroke-linejoin:round;stroke-miterlimit:4;stroke-dasharray:none;stroke-dashoffset:0;stroke-opacity:1;image-rendering:optimizeQuality;shape-rendering:geometricPrecision;text-rendering:geometricPrecision;stop-color:#000000;stop-opacity:1"
   d="M 4923.1252,1143.6994 H 9480.0238"
   id="path878-10"
   sodipodi:nodetypes="cc" /><path
   id="path47-4"
   d="m 4409.9952,1229.354 -13,976.9999 -1,87 c 6,9 23,30 41,49 h 99 l 43,-51 -1,-85 7,-985.9999 c -62,-99 -121,-117 -175,9 z"
   class="fil5"
   style="font-variation-settings:normal;clip-rule:evenodd;opacity:1;vector-effect:none;fill:#800000;fill-opacity:1;fill-rule:evenodd;stroke-width:114.0935318;stroke-linecap:butt;stroke-linejoin:miter;stroke-miterlimit:4;stroke-dasharray:none;stroke-dashoffset:0;stroke-opacity:1;image-rendering:optimizeQuality;shape-rendering:geometricPrecision;text-rendering:geometricPrecision;stop-color:#000000;stop-opacity:1;stroke:#f9f9f9" /><path
   style="font-variation-settings:normal;opacity:1;vector-effect:none;fill:#800000;fill-opacity:1;stroke-width:1.20577992;stroke-linecap:butt;stroke-linejoin:miter;stroke-miterlimit:4;stroke-dasharray:none;stroke-dashoffset:0;stroke-opacity:1;stop-color:#000000;stop-opacity:1"
   class="fil5"
   d="m 4409.9951,1229.3538 -13,977 -1,87 c 6,9 23,30 41,49 h 99 l 43,-51 -1,-85 7,-986 c -62,-99 -121,-117 -175,9 z"
   id="path47" /><g
   id="g909"><path
     style="font-variation-settings:normal;clip-rule:evenodd;opacity:1;vector-effect:none;fill:#000000;fill-opacity:1;fill-rule:evenodd;stroke:#ffffff;stroke-width:456.374;stroke-linecap:round;stroke-linejoin:miter;stroke-miterlimit:4;stroke-dasharray:none;stroke-dashoffset:0;stroke-opacity:1;image-rendering:optimizeQuality;shape-rendering:geometricPrecision;text-rendering:geometricPrecision;stop-color:#000000;stop-opacity:1"
     d="m 4870.0889,2389.1326 h 4511.261"
     id="path878-3-8"
     sodipodi:nodetypes="cc" /><path
     style="font-variation-settings:normal;clip-rule:evenodd;opacity:1;vector-effect:none;fill:none;fill-opacity:1;fill-rule:evenodd;stroke:#aa0000;stroke-width:68.4561;stroke-linecap:round;stroke-linejoin:round;stroke-miterlimit:4;stroke-dasharray:none;stroke-dashoffset:0;stroke-opacity:1;image-rendering:optimizeQuality;shape-rendering:geometricPrecision;text-rendering:geometricPrecision;stop-color:#000000;stop-opacity:1"
     d="M 4870.0889,2389.1326 H 9472.6247"
     id="path878-10-7"
     sodipodi:nodetypes="cc" /></g><path
   sodipodi:nodetypes="cccc"
   id="path899-8"
   d="m 9210.8509,2423.1618 -360.7899,772.3737 h 721.5778 z"
   style="clip-rule:evenodd;fill:#aa0000;fill-rule:evenodd;stroke:none;stroke-width:10.4268px;stroke-linecap:butt;stroke-linejoin:miter;stroke-opacity:1;image-rendering:optimizeQuality;shape-rendering:geometricPrecision;text-rendering:geometricPrecision" /><path
   style="font-variation-settings:normal;clip-rule:evenodd;opacity:1;vector-effect:none;fill:none;fill-opacity:1;fill-rule:evenodd;stroke:#aa0000;stroke-width:68.4561;stroke-linecap:round;stroke-linejoin:round;stroke-miterlimit:4;stroke-dasharray:none;stroke-dashoffset:0;stroke-opacity:1;image-rendering:optimizeQuality;shape-rendering:geometricPrecision;text-rendering:geometricPrecision;stop-color:#000000;stop-opacity:1"
   d="M 9212.2738,855.13759 V 47.637323"
   id="path895-3"
   sodipodi:nodetypes="cc" /><path
   style="font-variation-settings:normal;clip-rule:evenodd;opacity:1;vector-effect:none;fill:#aa0000;fill-opacity:1;fill-rule:evenodd;stroke:none;stroke-width:10.4268px;stroke-linecap:butt;stroke-linejoin:miter;stroke-miterlimit:4;stroke-dasharray:none;stroke-dashoffset:0;stroke-opacity:1;image-rendering:optimizeQuality;shape-rendering:geometricPrecision;text-rendering:geometricPrecision;stop-color:#000000;stop-opacity:1"
   d="M 9210.8509,1134.5402 8850.061,362.16649 h 721.5777 z"
   id="path899-8-0"
   sodipodi:nodetypes="cccc" /></svg>
