<?xml version="1.0" encoding="UTF-8" standalone="no"?>
<svg
   xmlns:dc="http://purl.org/dc/elements/1.1/"
   xmlns:cc="http://creativecommons.org/ns#"
   xmlns:rdf="http://www.w3.org/1999/02/22-rdf-syntax-ns#"
   xmlns:svg="http://www.w3.org/2000/svg"
   xmlns="http://www.w3.org/2000/svg"
   xmlns:sodipodi="http://sodipodi.sourceforge.net/DTD/sodipodi-0.dtd"
   xmlns:inkscape="http://www.inkscape.org/namespaces/inkscape"
   width="28.005453mm"
   height="27.898582mm"
   viewBox="0 0 28.005453 27.898582"
   version="1.1"
   id="svg3548"
   inkscape:version="1.0 (4035a4fb49, 2020-05-01)"
   sodipodi:docname="2021-HU-02-unsure.svg">
  <defs
     id="defs3542" />
  <sodipodi:namedview
     id="base"
     pagecolor="#ffffff"
     bordercolor="#666666"
     borderopacity="1.0"
     inkscape:pageopacity="0.0"
     inkscape:pageshadow="2"
     inkscape:zoom="0.98994949"
     inkscape:cx="54.767163"
     inkscape:cy="133.24256"
     inkscape:document-units="mm"
     inkscape:current-layer="layer1"
     inkscape:document-rotation="0"
     showgrid="false"
     fit-margin-top="0"
     fit-margin-left="0"
     fit-margin-right="0"
     fit-margin-bottom="0"
     inkscape:window-width="1680"
     inkscape:window-height="987"
     inkscape:window-x="-8"
     inkscape:window-y="222"
     inkscape:window-maximized="1"
     inkscape:snap-global="false" />
  <metadata
     id="metadata3545">
    <rdf:RDF>
      <cc:Work
         rdf:about="">
        <dc:format>image/svg+xml</dc:format>
        <dc:type
           rdf:resource="http://purl.org/dc/dcmitype/StillImage" />
        <dc:title />
      </cc:Work>
    </rdf:RDF>
  </metadata>
  <g
     inkscape:label="Ebene 1"
     inkscape:groupmode="layer"
     id="layer1"
     transform="translate(-93.342512,-76.00904)">
    <g
       id="g4117-5-3"
       transform="translate(-48.287356,18.970499)">
      <path
         id="path23144-4-21-5-2-5-5-0"
         style="color:#000000;font-style:normal;font-variant:normal;font-weight:normal;font-stretch:normal;font-size:medium;line-height:normal;font-family:sans-serif;font-variant-ligatures:normal;font-variant-position:normal;font-variant-caps:normal;font-variant-numeric:normal;font-variant-alternates:normal;font-variant-east-asian:normal;font-feature-settings:normal;font-variation-settings:normal;text-indent:0;text-align:start;text-decoration:none;text-decoration-line:none;text-decoration-style:solid;text-decoration-color:#000000;letter-spacing:normal;word-spacing:normal;text-transform:none;writing-mode:lr-tb;direction:ltr;text-orientation:mixed;dominant-baseline:auto;baseline-shift:baseline;text-anchor:start;white-space:normal;shape-padding:0;shape-margin:0;inline-size:0;clip-rule:nonzero;display:inline;overflow:visible;visibility:visible;opacity:1;isolation:auto;mix-blend-mode:normal;color-interpolation:sRGB;color-interpolation-filters:linearRGB;solid-color:#000000;solid-opacity:1;vector-effect:none;fill:#ffff00;fill-opacity:1;fill-rule:nonzero;stroke:none;stroke-width:0.264583px;stroke-linecap:butt;stroke-linejoin:miter;stroke-miterlimit:4;stroke-dasharray:none;stroke-dashoffset:0;stroke-opacity:1;paint-order:markers fill stroke;color-rendering:auto;image-rendering:auto;shape-rendering:auto;text-rendering:auto;enable-background:accumulate;stop-color:#000000;stop-opacity:1"
         d="m 155.6332,57.038541 c -7.70915,0 -14.00333,6.268833 -14.00333,13.948688 0,7.679837 6.29406,13.949894 14.00333,13.949894 7.70929,0 14.00212,-6.270175 14.00212,-13.949894 0,-7.679737 -6.29294,-13.948688 -14.00212,-13.948688 z" />
      <path
         id="path4089-9-5-4"
         style="fill:#000000;stroke:none;stroke-width:0.264583"
         d="m 155.26817,60.368662 c -0.58258,0.0066 -1.19856,0.06644 -1.84845,0.17725 a 1.60016,1.60016 0 0 0 -0.0899,0.01757 c -1.30358,0.299411 -2.53196,0.819444 -3.35328,1.959055 -0.41066,0.569801 -0.67117,1.350036 -0.59944,2.132687 0.0717,0.782651 0.43349,1.500367 0.95083,2.121318 a 1.6,1.6 0 0 0 2.25412,0.205155 1.6,1.6 0 0 0 0.20516,-2.254126 c -0.20201,-0.242501 -0.20638,-0.332314 -0.20722,-0.337965 0.0828,-0.110969 0.6451,-0.493387 1.42782,-0.687295 1.30567,-0.21323 2.22967,-0.118046 2.75953,0.08371 0.53961,0.205481 0.73752,0.436724 0.88884,0.810805 0.30263,0.748139 0.0741,2.480652 -1.19941,4.306713 -0.43466,0.615151 -0.92133,1.205479 -1.34927,1.947167 -0.42974,0.744752 -0.7805,1.708724 -0.72298,2.783292 a 1.6,1.6 0 0 0 1.68156,1.511538 1.6,1.6 0 0 0 1.51414,-1.68362 c -0.0188,-0.352899 0.0519,-0.584063 0.29868,-1.011822 0.24681,-0.427763 0.68773,-0.986751 1.19735,-1.708942 a 1.60016,1.60016 0 0 0 0.006,-0.0078 c 1.66552,-2.388148 2.47481,-5.027586 1.54101,-7.335986 -0.46691,-1.154199 -1.45465,-2.120852 -2.71663,-2.601391 -0.63098,-0.240279 -1.31935,-0.376886 -2.06656,-0.415994 -0.18679,-0.0098 -0.37735,-0.01355 -0.57153,-0.01138 z m 0.64389,16.747813 a 2.4255733,2.4255733 0 0 0 -2.38797,2.425692 2.4255733,2.4255733 0 0 0 2.42518,2.425176 2.4255733,2.4255733 0 0 0 2.4257,-2.425176 2.4255733,2.4255733 0 0 0 -2.4257,-2.425692 2.4255733,2.4255733 0 0 0 -0.0372,0 z" />
    </g>
  </g>
</svg>
