<?xml version="1.0" encoding="UTF-8" standalone="no"?>
<!-- Created with Inkscape (http://www.inkscape.org/) -->

<svg
   width="24.193817mm"
   height="24.312294mm"
   viewBox="0 0 24.193817 24.312294"
   version="1.1"
   id="svg90202"
   sodipodi:docname="2022-TR-02-explanation_symbol3.svg"
   inkscape:version="1.1.1 (3bf5ae0d25, 2021-09-20)"
   xmlns:inkscape="http://www.inkscape.org/namespaces/inkscape"
   xmlns:sodipodi="http://sodipodi.sourceforge.net/DTD/sodipodi-0.dtd"
   xmlns="http://www.w3.org/2000/svg"
   xmlns:svg="http://www.w3.org/2000/svg">
  <sodipodi:namedview
     id="namedview90204"
     pagecolor="#ffffff"
     bordercolor="#666666"
     borderopacity="1.0"
     inkscape:pageshadow="2"
     inkscape:pageopacity="0.0"
     inkscape:pagecheckerboard="0"
     inkscape:document-units="mm"
     showgrid="false"
     inkscape:zoom="2.6547419"
     inkscape:cx="57.44438"
     inkscape:cy="150.86213"
     inkscape:window-width="1920"
     inkscape:window-height="1137"
     inkscape:window-x="-8"
     inkscape:window-y="-8"
     inkscape:window-maximized="1"
     inkscape:current-layer="layer1" />
  <defs
     id="defs90199" />
  <g
     inkscape:label="Ebene 1"
     inkscape:groupmode="layer"
     id="layer1"
     transform="translate(-53.150823,-12.650288)">
    <g
       transform="matrix(0.13252529,0,0,0.13252529,-177.88184,-108.12478)"
       id="g4112"
       style="clip-rule:evenodd;fill-rule:evenodd;stroke-linecap:round;stroke-linejoin:round;stroke-miterlimit:1.5">
      <path
         d="m 1815.64,933.338 c -2.02,-0.536 -4.13,-1.011 -6.29,-1.429 -19.37,-3.752 -42.8,-3.144 -42.8,-3.144 l -2.68,0.071 -0.27,2.666 c 0,0 -2.43,23.775 0.88,42.811 0.51,2.912 1.16,5.713 1.96,8.318 -11.78,9.769 -21.2,20.179 -21.2,20.179 l -1.93,2.12 2.01,2.05 c 0,0 8.72,8.93 19.88,17.66 -0.72,2.43 -1.31,5.02 -1.78,7.7 -3.3,19.04 -0.88,42.81 -0.88,42.81 l 0.26,2.57 2.58,0.16 c 0,0 24.29,1.51 43.63,-2.34 2.29,-0.45 4.51,-0.99 6.62,-1.61 9.17,10.69 18.26,18.93 18.26,18.93 l 2.13,1.93 2.05,-2.01 c 0,0 9.42,-9.22 18.37,-20.81 2.79,0.94 5.81,1.72 8.97,2.35 19.34,3.85 43.63,2.34 43.63,2.34 l 2.58,-0.16 0.26,-2.57 c 0,0 2.43,-23.77 -0.88,-42.81 -0.71,-4.05 -1.69,-7.89 -2.99,-11.28 9.2,-8.2 15.94,-15.64 15.94,-15.64 l 1.92,-2.12 -2,-2.06 c 0,0 -6.14,-6.27 -14.71,-13.446 1.25,-3.334 2.21,-7.086 2.9,-11.042 3.3,-19.037 0.88,-42.811 0.88,-42.811 l -0.26,-2.571 -2.58,-0.161 c 0,0 -24.29,-1.51 -43.63,2.343 -3.04,0.604 -5.95,1.35 -8.65,2.248 -9.79,-11.834 -20.26,-21.32 -20.26,-21.32 l -2.13,-1.924 -2.05,2.004 c 0,0 -8.98,8.787 -17.74,19.998 z m 34.97,136.202 c -2.47,-1.25 -4.59,-2.7 -6.24,-4.36 -2.65,-2.64 -4.78,-7.02 -6.31,-11.37 -0.15,-0.42 -0.29,-0.83 -0.42,-1.25 -0.26,0.71 -0.53,1.43 -0.82,2.15 -1.81,4.55 -4.16,9.08 -6.77,11.69 -2.09,2.1 -4.93,3.86 -8.27,5.32 5.7,6.5 11.18,11.88 14.08,14.63 v 0 c 3.01,-3.09 8.9,-9.37 14.75,-16.81 z m -80.22,-41 c -0.97,3.98 -1.59,8.38 -2,12.81 -1.15,12.48 -0.42,25.23 -0.01,30.57 6.62,0.26 24.55,0.61 39.44,-2.36 1.21,-0.24 2.4,-0.5 3.56,-0.78 -2.28,-2.89 -4.49,-5.88 -6.45,-8.88 -4.22,-6.44 -7.31,-12.94 -8.13,-18.59 -5.63,-0.76 -12.1,-3.61 -18.51,-7.5 -2.66,-1.62 -5.32,-3.41 -7.9,-5.27 z m 132.73,-4.48 c -3.87,3.22 -8,6.39 -12.13,9.11 -6.44,4.21 -12.94,7.3 -18.6,8.12 -0.75,5.64 -3.61,12.11 -7.5,18.52 -1.43,2.35 -2.99,4.71 -4.63,7.01 2.01,0.58 4.14,1.08 6.34,1.52 14.89,2.97 32.82,2.62 39.44,2.36 0.41,-5.34 1.14,-18.09 -0.01,-30.57 -0.53,-5.67 -1.39,-11.3 -2.91,-16.07 z m -48.79,40.57 c 0.3,-0.41 0.6,-0.83 0.9,-1.25 5.26,-7.41 9.9,-15.32 11.01,-22.02 -14.25,-1.23 -26.25,-10.33 -31.65,-22.93 -5.39,12.59 -17.39,21.69 -31.62,22.93 0.86,4.66 3.6,9.92 7.06,15.2 2.3,3.5 4.93,6.99 7.64,10.31 3.29,-1.25 6.09,-2.8 8.07,-4.78 2.13,-2.13 3.94,-5.91 5.41,-9.63 2.38,-5.99 3.81,-11.93 3.81,-11.93 l 5.97,0.21 c 0,0 0.92,5.46 2.89,11.05 1.2,3.45 2.77,6.99 4.86,9.08 1.47,1.48 3.4,2.71 5.65,3.76 z m -22.95,-57.92 c -0.75,7.53 -4.12,14.29 -9.19,19.35 -5.06,5.06 -11.82,8.44 -19.34,9.19 1.5,-15.05 13.48,-27.03 28.53,-28.54 z m 6.42,0 c 7.52,0.76 14.28,4.13 19.34,9.19 5.07,5.07 8.44,11.82 9.19,19.35 -15.04,-1.51 -27.03,-13.49 -28.53,-28.54 z m -65.46,15.71 c 0.78,0.58 1.57,1.15 2.38,1.72 7.4,5.26 15.32,9.9 22.01,11.01 1.3,-15.09 11.44,-27.66 25.2,-32.53 -12.4,-5.312 -21.42,-17.042 -22.87,-31.006 -5.2,0.215 -11.35,3.28 -17.52,7.329 -2.68,1.758 -5.36,3.713 -7.96,5.75 1.07,2.466 2.37,4.579 3.97,6.18 1.44,1.435 4.11,2.682 7.08,3.834 7.81,3.019 17.75,4.975 17.75,4.975 l -0.14,6.008 c -6.82,1.02 -20.58,4.92 -25.75,10.09 -1.7,1.7 -3.06,3.97 -4.15,6.64 z m 129.4,-34.05 c -2.32,-1.855 -4.76,-3.721 -7.27,-5.503 -6.64,-4.714 -13.68,-8.926 -19.89,-10.553 -1.77,14.488 -11.71,26.467 -25.07,31.186 12.6,5.39 21.7,17.39 22.94,31.63 4.66,-0.86 9.92,-3.6 15.19,-7.06 4.46,-2.93 8.9,-6.39 12.99,-9.88 -0.79,-1.39 -1.68,-2.61 -2.7,-3.63 -1.43,-1.43 -4.19,-2.67 -7.28,-3.83 -8.13,-3.03 -18.59,-5.01 -18.59,-5.01 l 0.18,-6.019 c 0,0 10.96,-1.4 19.38,-4.088 3.15,-1.008 5.96,-2.11 7.37,-3.521 1.04,-1.039 1.95,-2.294 2.75,-3.722 z m -132.97,0.257 c -7.56,6.411 -13.94,12.893 -17.03,16.143 v 0 c 2.94,2.85 8.75,8.31 15.68,13.86 1.32,-2.85 2.89,-5.29 4.76,-7.16 3.5,-3.5 10.41,-6.6 17.06,-8.79 v 0 c -2.27,-0.67 -4.62,-1.44 -6.81,-2.29 -3.9,-1.507 -7.31,-3.323 -9.19,-5.205 -1.74,-1.735 -3.22,-3.966 -4.47,-6.558 z m 137.7,3.641 c -0.95,1.575 -2,2.968 -3.17,4.136 -1.91,1.906 -5.56,3.656 -9.83,5.016 -2.02,0.65 -4.19,1.22 -6.32,1.73 1.9,0.57 3.82,1.2 5.63,1.87 4.06,1.52 7.58,3.35 9.46,5.23 1.11,1.11 2.11,2.41 3.01,3.88 5.39,-4.88 9.79,-9.37 12.19,-11.89 v 0 c -2.25,-2.18 -6.16,-5.876 -10.97,-9.972 z m -37.95,-20.651 c -0.95,7.706 -4.66,14.564 -10.11,19.559 -5.44,4.994 -12.62,8.124 -20.53,8.375 1.91,-15.412 14.83,-27.433 30.64,-27.934 z m -63.26,0.479 c 6.75,1.202 12.77,4.53 17.34,9.265 4.56,4.735 7.68,10.878 8.64,17.711 -13.5,-2.404 -24.08,-13.311 -25.98,-26.976 z m 12.71,-31.765 c -0.59,0.795 -1.17,1.599 -1.75,2.409 -5.56,7.83 -10.42,16.225 -11.17,23.147 13.32,1.902 24.41,10.717 29.54,22.69 5.69,-13.291 18.74,-22.692 34.01,-23.062 -0.68,-4.843 -3.53,-10.387 -7.18,-15.95 -1.71,-2.61 -3.61,-5.215 -5.59,-7.748 -2.44,1.094 -4.52,2.396 -6.09,3.964 -5.32,5.32 -8.01,11.515 -8.01,18.74 h -0.01 c 0,0.197 -0.01,0.356 -0.03,0.472 l -6.06,-0.474 c 0,-0.149 0,-0.297 0,-0.445 -0.08,-0.606 -0.47,-3.344 -1.15,-5.74 -1.3,-4.612 -3.62,-10.586 -7.4,-13.519 -2.34,-1.819 -5.49,-3.288 -9.11,-4.484 z m 86.23,42.211 c 1.5,-4.753 2.36,-10.367 2.88,-16.016 1.16,-12.479 0.43,-25.231 0.02,-30.576 -6.62,-0.259 -24.55,-0.604 -39.44,2.362 -2,0.397 -3.94,0.848 -5.78,1.367 1.63,2.151 3.2,4.345 4.64,6.542 4.55,6.944 7.79,13.965 8.28,19.919 5.03,1.138 10.58,3.718 16.09,7.065 4.57,2.768 9.11,6.044 13.31,9.337 z m -92.52,-43.935 c -3.71,-0.847 -7.68,-1.499 -11.64,-2.016 -12.58,-1.641 -25.21,-1.789 -30.61,-1.764 -0.41,5.401 -1.13,18.076 0.02,30.48 0.43,4.589 1.08,9.153 2.11,13.252 2.18,-1.662 4.41,-3.254 6.64,-4.715 7.28,-4.775 14.64,-8.101 20.77,-8.328 0.61,-5.793 3.54,-12.53 7.59,-19.205 1.57,-2.594 3.31,-5.183 5.12,-7.704 z m 40.23,-1.613 c -6.47,-7.646 -13.04,-14.113 -16.32,-17.226 v 0 c -2.83,2.916 -8.23,8.655 -13.73,15.524 3.53,1.313 6.6,2.874 8.96,4.706 3.3,2.56 5.86,6.896 7.65,11.24 1.62,-3.5 3.94,-6.751 6.96,-9.768 1.7,-1.707 3.91,-3.193 6.48,-4.476 z"
         style="fill:#b5be36"
         id="path4110" />
    </g>
  </g>
</svg>
