<?xml version="1.0" encoding="UTF-8"?>
<!-- Created with Inkscape (http://www.inkscape.org/) -->
<svg id="svg3081" width="223.16mm" height="78.628mm" version="1.1" viewBox="0 0 223.16 78.628" xmlns="http://www.w3.org/2000/svg">
 <path id="path2462" d="m134.79 71.18c.14981-.06292.61723-.24869.77304-.35356.35656-.23671-.86293.18277-1.2135.43446-.83896.59626-1.2434 1.0247-1.648 1.9925-1.3933 3.3438-6.0375 4.3716-9.2795 4.9439-4.2997.75806-8.872.37453-13.178-.08689-7.5626-.80899-14.999-2.2322-22.373-4.0749-.55072-.13783-1.0936-.30862-1.6474-.43446-.45873-.10487-.92495-.17378-1.3873-.26068-1.1599-.21573-7.0484-.63221-6.6769-2.8614.8006-4.803 7.787-6.6098 11.881-6.415 9.7828.46442 19.605 1.3723 29.307 2.5139 3.5656.41948 7.0472-.49438 10.58-.17378 1.8637.17079 4.2817.32659 5.7229 1.5611.33558.28764 1.3244.8839 1.1266 1.4742-.2427.73409-1.1056 1.3663-1.648 1.9086z" style="clip-rule:evenodd;fill-rule:evenodd;fill:#e9e1e1;stroke-linecap:round;stroke-linejoin:round;stroke-miterlimit:1.5;stroke-width:.29963"/>
 <path id="path2466" d="m136.6 55.785c.65019-.16024 1.4862.27708 2.3011.888.94682.70772 1.8667 1.6491 2.442 2.1599 2.2682 2.023 2.8315 5.1777.63821 7.6214-3.4966 3.8958-6.7716 6.1659-11.386 7.0739-3.9731.78117-9.7679 1.7793-13.735 2.477-6.3761 1.1217-15.961-.88466-22.029-3.2515-1.7288-.67434-3.4727-1.766-5.2884-2.033-10.169-1.4822-2.9423-12.812-.82098-13.514.34457-.1135.46143-1.4755.72809-1.6258.83896-.46403 2.436-.10015 3.3768-.10015-.06292 1.9396 38.481 1.6091 43.773.30379z" style="clip-rule:evenodd;fill-rule:evenodd;fill:#a55433;stroke-linecap:round;stroke-linejoin:round;stroke-miterlimit:1.5;stroke-width:.31627"/>
 <path id="path2470" d="m88.299 57.735c.2207-.16603.42608-.35159.59161-.57296.2299-.30276.47206-1.4389.74488-1.5854.85829-.4525 2.4921-.09766 3.4546-.09766-.03678 1.0515 12.166 1.4194 23.925 1.3185.14101.01302.27895.02604.41075.03581.68051.05534 1.3334.02604 1.971-.06185 8.4879-.12045 16.28-.47855 18.475-.99616.42301-.09766.9196.03581 1.4407.2995-.25442 1.3347-.80618 2.1128-1.5449 2.7411-3.0868 2.6206-6.6364.22137-9.9838 1.2892-2.0017.63481-3.1021 1.9077-4.8524 2.9722-1.8208 1.1036-4.7605.29624-6.8112.89199-.93799.2702-2.0998.6869-2.8906 1.2859-.95026.71945-1.3365 1.9858-2.6147 2.1811-3.2125.48832-9.619-1.1231-12.313-3.2717-.44754-.35484-1.8177-1.6733-2.0538-2.1779-.2391-.50785 1.1985-1.6017.65292-2.1811-.68357-.72596-2.5228-.39391-3.3596-.39391-2.25 0-4.0585-.12696-5.2417-1.6765z" style="clip-rule:evenodd;fill-rule:evenodd;fill:#915137;stroke-linecap:round;stroke-linejoin:round;stroke-miterlimit:1.5;stroke-width:.3159"/>
 <path id="path2474" d="m138.65 52.966c-1.0032.05693-.12503-.65618-.55498-1.3573-.67694-1.1116-1.8509-1.9116-2.598-3.0113-.70438-1.0367-4.1501-1.8757-5.382-2.2802-2.4852-.81199-5.5009-.77304-8.0745-1.0008-1.2258-.11086-2.351-.57229-3.6195-.45843-1.3051.11686-2.4272.4794-3.8055.36555-4.641-.38053-8.9222-.63521-13.365.82098-4.4916 1.4712-7.5379 1.5161-9.1875 6.3851-.80501 2.373 3.6866 1.0607 4.3605.7281.37811-.18577.75013-.54832 1.2075-.63821.36896-.07191 1.2228-.08689 1.5765 0 1.238.30262 1.8814 2.4749 3.156 3.1011 2.2107 1.0847 4.6441 1.642 7.053 2.1873 3.1225.71012 7.297.74308 10.49.45843 2.6681-.2397 5.2174-1.5521 7.8885-1.5521 2.6315 0 4.946-2.7176 7.239-3.2839.79282-.19176 4.2751-.82098 3.4335-.54532" style="clip-rule:evenodd;fill-rule:evenodd;fill:#a55433;stroke-linecap:round;stroke-linejoin:round;stroke-miterlimit:1.5;stroke-width:.30227"/>
 <path id="path2478" d="m134.81 50.66c.26966-.61424-6.0195-1.9356-7.6075-1.8517-6.2652.32959-12.692-1.0936-18.969-1.0936-.91686 0-5.8008 1.1176-6.1094 1.7318-.55731 1.1146-3.6764 1.8127-3.1731 2.8944 3.8562 8.2817 32.725 8.4944 35.859-1.6809z" style="clip-rule:evenodd;fill-rule:evenodd;fill:#573223;stroke-linecap:round;stroke-linejoin:round;stroke-miterlimit:1.5;stroke-width:.29963"/>
 <path id="path2511" d="m133.76 62.285c.49616.53918 1.0271 1.0401 1.6086 1.3814 1.577.92841 3.3182 1.1996 5.0595 1.4102 1.5422.18185 3.0876.30947 4.4749.96988.59096.28076 1.065.84226 1.4474 1.4931.64469 1.1007 1.0176 2.4758 1.1219 3.5254.0474.44985.44875.78165.90067.73698.45191-.04467.78057-.44666.73633-.89969-.12325-1.2506-.572-2.8809-1.3399-4.1922-.56252-.95712-1.2925-1.7388-2.1616-2.1503-1.5485-.73698-3.2645-.91245-4.9837-1.1166-1.5201-.18185-3.0465-.38604-4.4212-1.1932-1.046-.61575-1.8772-1.844-2.6641-2.7246-.40135-.45304-1.7571-1.6782-2.4018-2.1567-.35395-.26161-.65101-.33818-.74898-.34456-.45191-.02552-.69209.21057-.82166.50727-.0537.12762-.14537.38285.0316.74017.30971.62532.78374 1.1454 1.2578 1.6845.36342.41475.73317.83908.94491 1.4006.69841 1.8345.65101 4.0422 1.4474 5.8161.8185 1.8185 2.3702 2.9862 3.8934 4.1507 1.2799.97307 2.544 1.9334 3.0401 3.5158.13589.4307.59729.67318 1.0302.53599.43295-.134.67313-.5966.5404-1.0305-.6036-1.9174-2.0636-3.1457-3.6122-4.3294-1.3083-.9986-2.6894-1.9557-3.3909-3.519-.57517-1.2762-.69841-2.7852-.98916-4.2113z" style="clip-rule:evenodd;fill-rule:evenodd;fill:#653623;stroke-linecap:round;stroke-linejoin:round;stroke-miterlimit:1.5;stroke-width:.31753"/>
 <path id="path2515" d="m130.76 59.843c-.44045-.50038-.86892-.99177-1.1566-1.573-.17678-.35656-.0869-.61424-.033-.74308.12884-.29663.36854-.53034.82098-.50637.0989.006.39551.0839.74907.34757.6442.47641 1.9985 1.7019 2.403 2.1543.1588.17678.3206.37154.4854.56929-1.0757.003-2.1723-.17378-3.2689-.24869z" style="clip-rule:evenodd;fill-rule:evenodd;fill:#47291c;stroke-linecap:round;stroke-linejoin:round;stroke-miterlimit:1.5;stroke-width:.29963"/>
 <path id="path2519" d="m117.56 73c.23966.20236 2.0211.8588 2.4028.85139.65454-.01234 1.504-.24678 1.7903-.42446.60526-.37264 1.4206-.77242 2.0415-1.3178.78577-.68852 1.2901-1.5794 1.0502-2.8108-.34613-1.7768-1.7437-2.5172-3.2133-2.4407.25624-.35536.4805-.73541.63506-1.1154.3959-.97725.36441-1.952-.3745-2.7121-.58242-.59721-1.5893-.76255-2.6766-.57006-1.3978.24925-2.9078 1.0439-3.4606 1.6115-.0942.09624-.19398.24678-.23869.47382-.0305.15547-.0373.40966-.003.73541.13485 1.2956.89226 4.2298 1.0502 5.365.0877.62929 1.0259 2.6109.99706 2.3543zm.48099-2.1717c-.22787 1.1401 2.0766 1.8114 2.9797 1.2882.62545-.36277 1.2783-.6441 1.8376-1.1327.3947-.34549.72737-.78476.57233-1.3943-.4769-1.878-2.3458-1.2487-2.9071-.9279-.27402.15794-2.8489 1.2191-2.5328 1.7744.0471.08391.0305.22951.0502.39238zm.31489-2.8059c.30912-.26652.7091-.60955.80741-.68112.53507-.39238 1.4084-1.2734 1.7718-2.1692.1584-.38991.23292-.7897-.063-1.0932-.11706-.12092-.2858-.17275-.47257-.19989-.28388-.04195-.60598-.01974-.93794.03948-.95067.17028-1.9836.63176-2.5061 1.0389.0952.46888.44853 2.221.72208 3.6795.0233-.05429.0541-.11105.0942-.16534.0716-.09871.23388-.25172.4781-.38991.0332-.01974.0685-.03948.10601-.05923z" style="clip-rule:evenodd;fill-rule:evenodd;fill:#592f1d;stroke-linecap:round;stroke-linejoin:round;stroke-miterlimit:1.5;stroke-width:.24356"/>
 <path id="path2523" d="m115.75 64.08c.003-.003.007-.008.01-.0106.55272-.56621 2.063-1.3626 3.4605-1.6113 1.0874-.19314 2.0944-.0264 2.6768.5715.11774.12171.21749.24871.3003.37836-1.8095.59002-4.2802.0397-6.0719.55827-.12198.0344-.24739.0741-.37545.11377z" style="clip-rule:evenodd;fill-rule:evenodd;fill:#47291c;stroke-linecap:round;stroke-linejoin:round;stroke-miterlimit:1.5;stroke-width:.26458"/>
 <path id="path2525" d="m129.76 52.913c2.8225-.04794 3.9311-.93184 4.5454-1.7618.59326-.806.71911-1.5611 1.4832-1.4532 4.6382.6442 4.0839.81798 4.1858 2.9393.13483 2.8495-.53933 4.045-1.642 4.9259-3.0172 2.412-6.4869.20375-9.7589 1.1865-1.9566.58427-3.0322 1.7558-4.7431 2.7356-1.7798 1.0157-4.6532.27266-6.6577.82098-.91686.24869-2.0524.63221-2.8255 1.1835-.92885.66218-1.3064 1.8307-2.5558 2.0075-3.1401.44944-9.3993-1.0337-12.036-3.0113-.43746-.32659-1.7738-1.5401-2.0075-2.0045-.23371-.46742 1.1715-1.4742.63821-2.0075-.66817-.66817-2.4659-.36255-3.2839-.36255-2.5678 0-4.5453-.1588-5.654-2.373-.58128-1.1656.87791-1.8817 1.7348-2.0974 1.7798-.44345 3.3678-.68015 5.1057-1.5491 1.1146-.55731 2.382-1.615 3.6495-1.8247 1.8307-.30562 4.6652 1.9236 6.2922 2.7356 3.0232 1.5131 8.842 2.4749 12.219 2.7356 2.8255.21873 5.2165-.97678 7.7544-1.8247 1.1685-.38952 2.2682-.97978 3.5566-1.0008z" style="clip-rule:evenodd;fill-rule:evenodd;fill:#a55433;stroke-linecap:round;stroke-linejoin:round;stroke-miterlimit:1.5;stroke-width:.29963"/>
 <path id="path2" d="m71.691 39.009c1.0866.05932 3.8896-2.2386 4.8915-3.3238.05893-.0627.25784-.21836.27625-.14889.23942.9674-1.4844 7.7372-.82507 7.1458" style="clip-rule:evenodd;fill:none;stroke-linecap:round;stroke-linejoin:round;stroke-miterlimit:1.5;stroke-width:.96666px;stroke:#000000"/>
 <circle id="circle6" cx="75.764" cy="39.119" r="6.0856" style="clip-rule:evenodd;fill:none;stroke-linecap:round;stroke-linejoin:round;stroke-miterlimit:1.5;stroke-width:1.0567px;stroke:#000000"/>
 <path id="path1127" d="m104.75 38.105c1.0266-1.27-2.1193-3.1298-3.0004-3.8029-4.6725-3.5737-10.157-5.4605-15.994-6.0164-9.1705-.87312-18.915.02884-27.734 2.6413-2.8945.85752-5.7282 1.5436-8.3635 3.0813-3.4528 2.014-5.8341 3.1181-5.8685 3.0816-1.1986-1.1986 3.519-5.842 3.519-7.1901 0-.64029-3.8232 5.9754-3.519 7.1901.08731.35428 9.0276-.48339 9.4112-.48339" style="clip-rule:evenodd;fill:none;stroke-linecap:round;stroke-linejoin:round;stroke-miterlimit:1.5;stroke-width:1.614px;stroke:#ff0000"/>
 <path id="path1135" d="m104.4 32.21c0 1.8627 2.7095 5.6519.55339 6.6409-.47508.2189-12.057-5.1831-10.99-2.2444" style="clip-rule:evenodd;fill:none;stroke-linecap:round;stroke-linejoin:round;stroke-miterlimit:1.5;stroke-width:1.6111px;stroke:#ff0000"/>
 <path id="path1147" d="m186.43 42.998c6.9162-36.19-92.379-52.285-135.58-24.163-10.515 6.8458-19.569 16.031-19.793 16.699-.03969.12488-.20373.17092-.27781.27914-.37306.53975 8.8291-3.983 8.9747-4.1693.75671-.97181-8.9958 6.101-8.9747 4.1693.07408-6.4886.21167-6.8633.2831-7.1387" style="clip-rule:evenodd;fill:none;stroke-linecap:round;stroke-linejoin:round;stroke-miterlimit:1.5;stroke-width:1.614px;stroke:#ff0000"/>
 <path id="path1149" d="m145.87 16.706c-.83849-1.4428 2.072-3.2857 2.8878-1.4133.68309 1.5759-.59245 3.2897-1.6996 4.5266-.71547.80002-.6313.8097-1.4309 1.3715-.21691.15225-.67338.47589-.80288.27445-.89353-1.3703 3.5579-.54394 4.1115-.48011.83849.09662 1.6511.27421 2.5025.27421" style="clip-rule:evenodd;fill:none;stroke-linecap:round;stroke-linejoin:round;stroke-miterlimit:1.5;stroke-width:1.0407px;stroke:#000000"/>
 <path id="path1153" d="m147.36 43.149c1.2112-3.0582 6.7243-1.7218 3.0722 1.6579-.34135.31309-.85888.24409-1.314.18756-.18719-.02386-.75244-.09396-.56158-.09396 1.1892 0 3.832-.25106 3.5016 1.5812-.57994 3.1749-4.6284 2.4229-4.6284-.54983" style="clip-rule:evenodd;fill:none;stroke-linecap:round;stroke-linejoin:round;stroke-miterlimit:1.5;stroke-width:1.0571px;stroke:#000000"/>
 <path id="path1157" d="m190.67 33.034s-2.8046 8.8186-3.9502 9.9639c-.97631.97737-4.8101-5.6838-4.5588-5.6838" style="clip-rule:evenodd;fill:none;stroke-linecap:round;stroke-linejoin:round;stroke-miterlimit:1.5;stroke-width:1.614px;stroke:#ff0000"/>
 <circle id="circle1159" cx="147.63" cy="18.449" r="6.0763" style="clip-rule:evenodd;fill:none;stroke-linecap:round;stroke-linejoin:round;stroke-miterlimit:1.5;stroke-width:1.0585px;stroke:#000000"/>
 <circle id="circle1163" cx="149.98" cy="44.748" r="6.0957" style="clip-rule:evenodd;fill:none;stroke-linecap:round;stroke-linejoin:round;stroke-miterlimit:1.5;stroke-width:1.0585px;stroke:#000000"/>
 <path id="path1167" d="m175.43 44.271c-.0556-.74163-6.4056-4.9022-7.3819-5.3904-.32279-.1606-8.5434-3.8285-17.211-4.0521-7.8819-.20346-16.05 2.7805-20.593 7.3231-.29105.29236 2.0347-9.2114 2.0347-9.2114m-2.0321 9.1847c.0529.2122 7.8528-.30321 8.8397-.30321" style="clip-rule:evenodd;fill:none;stroke-linecap:round;stroke-linejoin:round;stroke-miterlimit:1.5;stroke-width:1.614px;stroke:#ff0000"/>
 <path id="path1169" d="m172.52 36.694c-.20373-1.1083.78052 1.9352.92868 2.4567.37836 1.3237 1.9817 3.9637 1.9817 5.1202 0 .21855-6.4691-1.1126-8.1941-.07832" style="clip-rule:evenodd;fill:none;stroke-linecap:round;stroke-linejoin:round;stroke-miterlimit:1.5;stroke-width:1.614px;stroke:#ff0000"/>
 <path id="path2164" d="m214.97 75.19s-10.908 2.4474-12.317 2.8284c-9.5797 2.5903-50.448.8599-42.195-7.4269.52944-.53181 1.344-1.5875 1.8372-1.9553 3.2649-2.4289 48.65 2.4077 49.629 3.2253 1.0023.83608 3.9776 2.2357 3.0454 3.3285z" style="clip-rule:evenodd;fill-rule:evenodd;fill:#e9e1e1;stroke-linecap:round;stroke-linejoin:round;stroke-miterlimit:1.5;stroke-width:.24467"/>
 <path id="path2168" d="m215.42 55.873c.61119-.4154 2.7887 1.36 2.5982.50006-.10848-.49212-2.0717-3.7333-2.2569-4.236-.16669-.44979-.1958-.94985-.46832-1.36-1.106-1.6589-3.6089-2.6167-5.3975-3.1909-.81491-.26458-1.6034-.72496-2.4394-.89429-1.0583-.20902-2.1669-.04498-3.2385-.14023-3.6512-.32279-12.078 1.4896-17.171 1.9182-2.5162.21167-12.618-.55033-13.991-.32279-.59796.10054-2.8258 2.0717-3.4131 2.1881-.60061.11906-2.3098 2.4844-2.4209 2.7755-.38894 1.0372 47.355 12.488 48.199 2.7622z" style="clip-rule:evenodd;fill-rule:evenodd;fill:#e09667;stroke-linecap:round;stroke-linejoin:round;stroke-miterlimit:1.5;stroke-width:.26458"/>
 <path id="path2172" d="m207.52 56.238c.23548 0 1.098.79375 1.3996.93133 1.1906.55033 2.5162.65088 3.728 1.2118 3.847 1.7886 8.5751 4.1116 10.53 8.0142 1.061 2.1193-1.1245 5.8341-3.3205 7.0432-10.922 6.0219-48.974 2.495-52.618 1.1615-3.1406-1.1509-4.4662-5.0932-2.2172-6.9929 1.1933-1.0081-.15082-4.8551.65087-6.0563.68527-1.0292 1.8653-1.1906 2.7966-1.7727 3.474-2.1696 5.5536-4.2862 10.065-4.2862 0 0 28.728.74612 28.985.74612z" style="clip-rule:evenodd;fill-rule:evenodd;fill:#e09667;stroke-linecap:round;stroke-linejoin:round;stroke-miterlimit:1.5;stroke-width:.26458"/>
 <path id="path2176" d="m211.3 53.55c-.30427-.34925-7.0511-2.4633-9.062-2.9342-3.9158-.91281-7.9931-1.4314-12.023-1.3203-1.061.0291-2.0929.24871-3.1591.2831-2.2437.07144-4.2995.02381-6.5061.61383-.97632.25929-1.95.53975-2.9236.80169-.52917.14023-.93662-.21696-1.4605-.14288-.90487.12965-1.6748 1.0398-1.8865 1.8865-.082.32544.30956 1.0001.42333 1.3203.96044 2.6379 4.2095 2.7358 6.6014 3.2994 1.1271.26458 2.2648.44979 3.3946.70644.80169.18256 1.6431.2831 2.4051.61383 4.617 2.0002 27.154-1.7595 24.196-5.1276z" style="clip-rule:evenodd;fill-rule:evenodd;fill:#ad6a3f;stroke-linecap:round;stroke-linejoin:round;stroke-miterlimit:1.5;stroke-width:.26458"/>
 <path id="path2230" d="m206.45 56.212c.66146.01588 1.0451.02646 1.0742.02646.23548 0 1.098.79375 1.3996.93133 1.1906.55033 2.5162.65088 3.728 1.2118.78052.36512 1.6007.74877 2.4262 1.1668.67468.68792 1.5928 1.778.78845 2.4686-1.1245.96308-1.7118 4.6778-3.0586 5.0985-1.7357.5424-3.7438 1.5293-5.5906 1.397-2.1193-.15081-4.0005-1.0478-6.059-1.3044-1.0663-.13229-5.9002-.22754-6.7098-.0926-1.2938.21431-2.4156.82285-3.728.93133-1.1721.0979-2.2648-.24871-3.4475-.18521-4.4185.23283-9.8981-2.5744-14.372-2.7675-4.3471-.18785-7.2522-4.9504-4.4265-5.3155 2.3125-.29633 3.5031-2.4527 5.2864-3.2729 1.1774.86519 2.3151 1.7886 3.4264 2.5294 1.0239.68262 3.3311 5.1038 4.5852 5.2837 2.3495.33602 4.8234-.01852 7.1781.37306 2.0426.34131 3.8259.74612 5.9637.74612.91017 0 .22754-1.2726 1.3123-1.1218 3.6618.508 10.507-6.0642 9.4218-7.6835.1217-.23812.40481-.37042.80168-.42069z" style="clip-rule:evenodd;fill-rule:evenodd;fill:#d0916a;stroke-linecap:round;stroke-linejoin:round;stroke-miterlimit:1.5;stroke-width:.26458"/>
 <path id="path2234" d="m161.1 66.427c.0238-.05027.10054-.21167.18256-.32279.25136-.33073.65617-.70908 1.1668-1.1165 2.5426-2.0346 7.6332-4.6937 11.094-5.5298.0847.03969.381.17992.59532.32279.6932.46567 1.5425 1.2224 2.0584 1.7806l.0265.0344c-.9181.35454-2.0346.31221-2.9924.36777-.56357.0344-1.1112-.06879-1.6589-.16669-.64823-.11642-1.2965-.22754-1.9685-.1905-2.958.16404-4.7969 1.5981-6.0722 4.146-.27517.55033-.3175 1.2065-.33602 1.8812-.0132.48683-.005.98954-.1905 1.4235-.14552.33602.0106.72496.3466.87048.33603.14288.72496-.01323.86784-.34925.25135-.58738.28046-1.2541.29898-1.9103.0106-.4736.003-.93927.19579-1.3229 1.0451-2.0902 2.5374-3.2835 4.9636-3.4158.56621-.03175 1.1139.07144 1.6616.16933.65088.11642 1.2991.22754 1.9685.18785 1.3838-.08202 3.0268-.08996 4.2122-.87842.17463-.11642.28575-.28575.31221-.52123.0132-.14552-.0529-.4789-.34925-.8546-.51329-.65617-1.8124-1.8494-2.7649-2.4553-.3466-.2196-.66145-.36248-.89429-.41804-.19579-.04498-.36512-.04233-.50271-.01058-4.154.97631-10.626 4.5323-12.716 6.7178-.381.40217-.63235.77523-.74613 1.0848-.127.34925-.11377.65617-.005.9181.14023.33602.52917.49477.86519.35454.31485-.13229.4736-.4789.381-.7964z" style="clip-rule:evenodd;fill-rule:evenodd;fill:#592f1d;stroke-linecap:round;stroke-linejoin:round;stroke-miterlimit:1.5;stroke-width:.26458"/>
 <path id="path2238" d="m170.12 59.204c1.1351-.45773 2.2304-.8255 3.1988-1.0557.13759-.03175.30692-.0344.50271.01058.23284.05556.54769.19844.89429.41804.9525.6059 2.2516 1.7992 2.7649 2.4553.29633.37571.36248.70908.34925.8546-.0265.23548-.13758.40481-.31221.52123-1.1853.78846-2.8284.7964-4.2122.87842-.66939.03969-1.3176-.07144-1.9685-.18785-.54768-.0979-1.0954-.20108-1.6616-.16933-.42069.02117-.81227.07673-1.18.16404-.36248-.37571-.65087-.76729-.84667-1.1483.59267-.18521 1.2409-.29898 1.9526-.33867.67204-.03704 1.3203.07408 1.9685.1905.54769.0979 1.0954.20108 1.6589.16669.95779-.05556 2.0743-.01323 2.9924-.36777l-.0265-.0344c-.51593-.55827-1.3652-1.315-2.0584-1.7806-.21432-.14288-.51065-.2831-.59532-.32279-1.7515.42069-3.9158 1.3097-5.9584 2.3495-.24606-.53446-.30427-1.0319-.13229-1.4023.51858-.25664 1.0398-.50271 1.5584-.7329.40217-.10583.76729-.26988 1.1112-.46831z" style="clip-rule:evenodd;fill-rule:evenodd;fill:#2c201c;stroke-linecap:round;stroke-linejoin:round;stroke-miterlimit:1.5;stroke-width:.26458"/>
 <path id="path2242" d="m195.99 71.99c-.0241.0344-.0664.0926-.10318.127-.16378.16404-.39767.31221-.67522.45508-1.1412.57679-2.9578.94986-4.4588.72231-.84164-.127-1.5925-.43127-1.951-1.1007-.46381-.86784-.30691-1.905.1741-2.8205.76888-1.4658 2.386-2.6723 4.1016-2.5003.67707.0661 1.9799.28046 2.8176.78581.29448.17727.56435.37306.47334.6985-.11695.42333.1307.86254.55271.97896.42228.11641.8599-.13229.97711-.55298.29607-1.0663-.22357-1.9024-1.1816-2.4818-1.0377-.62971-2.6424-.92604-3.4811-1.0081-2.349-.23547-4.6125 1.3362-5.6653 3.3417-.73343 1.3996-.87577 2.9845-.16828 4.3074.58579 1.0954 1.7394 1.7145 3.1139 1.9209 1.8227.27517 4.0286-.17462 5.4142-.87841.71464-.35984 1.2229-.80963 1.4608-1.2382.25506-.46038.27728-.92869.0558-1.3838-.19183-.39423-.66728-.55827-1.0612-.36777-.37147.18256-.53843.61383-.39529.99483z" style="clip-rule:evenodd;fill-rule:evenodd;fill:#592f1d;stroke-linecap:round;stroke-linejoin:round;stroke-miterlimit:1.5;stroke-width:.26458"/>
 <path id="path2244" d="m192.51 65.278c.51567.0635 1.0388.11377 1.5812.14023.83661.15081 1.8748.43127 2.6202.88371.35904.21696.65643.46831.87233.75671-1.3809-.0212-2.7064-.0106-3.1194.0529-.53049-.12964-1.044-.20373-1.392-.23812-1.1536-.11642-2.2627.39158-3.0993 1.1827-.64717-.0291-1.2806-.14287-1.9317-.18785 1.0353-1.4288 2.6932-2.4977 4.4688-2.5903z" style="clip-rule:evenodd;fill-rule:evenodd;fill:#453934;stroke-linecap:round;stroke-linejoin:round;stroke-miterlimit:1.5;stroke-width:.26458"/>
 <path id="path2246" d="m209.33 54.209c.72231-1.442 7.4851.97631 9.0038 2.495.55033.55033 2.2146 2.0294 1.2118 2.8892-1.1218.96308-2.8469 1.0716-4.1936 1.4922-1.7357.5424-2.6061 5.1356-4.4556 5.0033-2.1193-.15081-3.9979-1.0478-6.0563-1.3044-1.0663-.13229-5.9002-.22754-6.7098-.0926-1.2938.21431-2.4156.82285-3.7306.93133-1.1695.0979-2.2622-.24871-3.4475-.18786-4.4159.23283-9.7816-3.0665-14.258-3.0665-4.6249 0-8.7709-2.4739-9.3398-7.5882-.32808-2.9342.37306-2.3627 2.7966-2.3627 1.1774 0 3.1909-.78052 4.3815-.18786 2.2463 1.1245 4.3339 3.0454 6.3368 4.3815 1.0239.68262 2.1934 1.4975 3.4475 1.6775 2.3495.33602 4.8234-.02117 7.1755.37306 2.0452.34131 3.8285.74612 5.9664.74612.90752 0 3.4184.49477 4.1936-.28046 1.9897-1.9923 7.6782-4.9186 7.6782-4.9186z" style="clip-rule:evenodd;fill-rule:evenodd;fill:#e09667;stroke-linecap:round;stroke-linejoin:round;stroke-miterlimit:1.5;stroke-width:.26458"/>
 <path id="path2657" d="m47.519 44.871c-1.2877-.22754-1.0589-.4736-1.8619-.87312-.23707-.11906-.41196-.21696-.45535-.26458-.54901-.62971-1.4449-.99483-2.186-1.3123-2.4331-1.0425-5.0845-1.6192-7.724-1.7013-3.3523-.10319-6.9173 1.1695-10.056 2.2357-1.3504.45773-2.5178 1.3547-3.8862 1.7965-1.3398.43127-2.4715.75935-3.7407 1.36-.76835.36512-1.628.41275-2.3318.9234-.55986.40481-.82444.98954-1.2631 1.5055-1.1512 1.3547-3.7653 2.7914-3.0118 5.0535l30.913-5.3922c5.3663.08731 8.3156-2.8549 5.6039-3.3311z" style="clip-rule:evenodd;fill-rule:evenodd;fill:#d56c40;stroke-linecap:round;stroke-linejoin:round;stroke-miterlimit:1.5;stroke-width:.26458"/>
 <path id="path2661" d="m42.949 49.671c.53208-2.159-4.1312-3.0903-5.8092-3.0903-1.2353 0-2.3302-.43921-3.5465-.56092-1.2359-.12171-2.3723.45508-3.5465.56092-2.3085.20902-4.8218.01323-7.0927.46567-1.0258.20638-1.6671 1.1007-2.6133 1.4949-1.6134.67204-3.2964.08996-3.9198 1.9579 3.8238 16.886 24.412 15.79 26.528-.82815z" style="clip-rule:evenodd;fill-rule:evenodd;fill:#8d4e34;stroke-linecap:round;stroke-linejoin:round;stroke-miterlimit:1.5;stroke-width:.26458"/>
 <path id="path2665" d="m50.169 69.683c13.04-1.0345 2.9057 6.178-11.158 8.0592-7.5777 1.0134-8.8815 1.0636-15.993.61912-5.5414-.3466-6.7336.50271-12.522-.99219-1.0787-.27781-8.7336-1.6748-9.0503-3.0983-.95276-4.2889 4.9366-7.3951 8.1825-7.9349 6.0092-1.0028 12.755.28046 18.845.61912 4.6892.26194 9.4036-.26723 14.134.61912 1.8441.3466 5.7356 2.2542 7.5626 2.1087z" style="clip-rule:evenodd;fill-rule:evenodd;fill:#e9e1e1;stroke-linecap:round;stroke-linejoin:round;stroke-miterlimit:1.5;stroke-width:.26458"/>
 <path id="path2685" d="m42.495 48.474c1.8161-1.2726 2.5673 2.2251 2.3979 4.2095-.41249 4.8313 4.2489 1.8785 11.533 5.5562 2.8014 1.4155 1.3436 9.9774-.89006 11.885-13.614 11.631-62.421 6.4135-48.343-4.9477 1.4026-1.1298-.48657-3.6116-.18653-5.4134.37095-2.2251 4.0222-6.8183 5.8796-8.3053.20611-.16404 3.3584-1.868 3.2663-1.9606 5.6486 11.763 20.906 13.351 26.343-1.0239z" style="clip-rule:evenodd;fill-rule:evenodd;fill:#ce6133;stroke-linecap:round;stroke-linejoin:round;stroke-miterlimit:1.5;stroke-width:.26458"/>
 <path id="path2689" d="m45.033 54.332c1.637 1.3176 7.5933-4.5667 10.23 5.1329-.57468.67204-1.8627.65352-2.2019.99219-1.6018 1.6034-7.1451 3.2597-9.426 3.6407-1.7267.2884-4.7556.2831-6.2529-.84138-1.0311-.77258-1.3377-.7911-2.9385.0079-.83635.41804-2.3439.97896-3.2763 1.6007-2.3625 1.5743-6.0428 2.1564-8.763 1.8521-4.3717-.48415-8.0439-4.6275-12.692-3.0797-.64717.21696-1.5002-.39158-2.1254-.61383-.24686-1.0663-.74639-2.2675-.58102-3.2597.19923-1.1959 1.3457-3.0745 2.6522-4.789 1.3163.62706 2.5749 1.4764 3.974 1.7568 1.6642.33338 3.5375-.41275 5.1329-.0926 1.1462.23019 2.1138.97631 3.2663 1.1192.54292.06879 1.1261-.15346 1.7021-.35719 4.3479 2.1272 9.3874 1.8838 13.408-1.2462.77867-.10054 1.5592-.1905 2.3424-.26194 1.4827-.13494 3.4864-.84931 5.5496-1.561z" style="clip-rule:evenodd;fill-rule:evenodd;fill:#ba623d;stroke-linecap:round;stroke-linejoin:round;stroke-miterlimit:1.5;stroke-width:.26458"/>
 <path id="path2702" d="m12.28 60.64c-.1307.10054-.43603.33073-.73792.51858-1.9973 1.2382-6.3619 3.3972-9.0371 5.1911-1.3107.87842-2.2206 1.733-2.4567 2.3442-.1442.37306.042333.79375.41592.93927.37386.14288.79454-.04233.93874-.41804.05424-.14023.18865-.2884.36195-.46038.36856-.36248.90779-.76994 1.5489-1.1986 2.662-1.7859 7.0056-3.9317 8.9929-5.162.73581-.45773 1.1824-.86519 1.2978-1.0901.15584-.30162.11906-.56092.01349-.76994-.1815-.35719-.61886-.50006-.97605-.3175-.17939.08996-.30454.24606-.36195.42333zm.0254.51329h.000529z" style="clip-rule:evenodd;fill-rule:evenodd;fill:#653623;stroke-linecap:round;stroke-linejoin:round;stroke-miterlimit:1.5;stroke-width:.26458"/>
 <path id="path2706" d="m8.4321 72.377c5.1414-.53446 7.7782-2.1616 8.9905-4.2439 1.2237-2.1008 1.0253-4.744.30401-7.456-.10319-.38894-.50112-.61912-.88821-.51594-.38735.10319-.61807.50006-.51514.889.6141 2.3098.88662 4.5614-.15558 6.3526-1.0533 1.8071-3.4176 3.0639-7.8859 3.5295-.39846.04233-.68845.39952-.64691.7964.041275.39952.39846.69056.79719.64823z" style="clip-rule:evenodd;fill-rule:evenodd;fill:#653623;stroke-linecap:round;stroke-linejoin:round;stroke-miterlimit:1.5;stroke-width:.26458"/>
 <path id="path2710" d="m16.864 64.734c.0291-1.1668-.20373-2.4156-.53975-3.6856-.10583-.38629.127-.78317.51329-.88635.38894-.10319.78581.127.889.51329.43392 1.6298.67733 3.2359.5371 4.7122-.46567-.21431-.93398-.43656-1.3996-.65352zm-8.9138-1.5584c1.4208-.77523 2.7279-1.4817 3.593-2.0161.30162-.18785.6059-.41804.73554-.52123.05821-.17727.18521-.33073.36248-.42333.35719-.18256.79375-.03704.97631.32015.10583.20638.14288.46831-.01323.76994-.11642.2249-.56092.63235-1.2991 1.0874-.47625.29633-1.0927.64558-1.7859 1.0319-.26723.05292-.53446.12435-.80698.21431-.52917.17727-1.1933-.19844-1.7621-.46302z" style="clip-rule:evenodd;fill-rule:evenodd;fill:#392a24;stroke-linecap:round;stroke-linejoin:round;stroke-miterlimit:1.5;stroke-width:.26458"/>
 <path id="path2723" d="m17.178 51.086c1.0763.5371 1.0766 2.503 2.1466 3.4528 1.8846 1.6748 8.2926 3.0401 10.639 1.868 2.9326-1.4684 6.5807-2.2093 9.426-3.7333 2.7239-1.4605 4.4598-5.4107 1.7634-5.8949.65088.03439.96308-.8599 1.5028-1.1986 1.1247-.70379 2.9255-.79375 4.1997-.65352 1.012.11377 2.1569.0979 3.0798.56092 1.755.87577 8.4204 9.4853 6.1725 11.359-.65484.54504-1.4944.5371-2.1463 1.0266-.64082.48154-.82576 1.487-1.6801 1.7727-.9525.3175-1.8912-1.2171-2.9864-.56092-2.4754 1.487-3.411 2.0849-5.8925 3.0136-1.7084.64029-4.1071.84138-5.5062-.55827-.97816-.97896-1.3793-2.9316-3.1731-2.7067-4.1802.52123-5.4758 4.5111-9.5194 5.3181-1.2573.25135-2.7771-1.4314-4.0129-1.6801-1.6026-.32015-3.2345.40481-4.853.18785-.5969-.07937-5.7012-1.2224-5.8796-1.3996-.58737-.58738-.15848-1.5796-.84005-2.1458-.70776-.59002-1.8436-.8546-2.7064-1.0266-.08599-.018521-1.0663-.055562-1.12-.28046-.55959-2.3521 8.7752-9.6361 10.919-8.681z" style="clip-rule:evenodd;fill-rule:evenodd;fill:#d56c40;stroke-linecap:round;stroke-linejoin:round;stroke-miterlimit:1.5;stroke-width:.26458"/>
 <path id="path2731" d="m31.919 70.249c1.8883-.15081 4.6985-.33073 5.8251-.83608.06244-.0291.12118-.0582.17674-.09.31856.64029.58843 1.2435.78555 1.7674.17939.47625.28548 1.0557.30692 1.1827-.16589.33602-.07408.75406.23707.98689.35084.26194.84878.18786 1.111-.16139.21114-.28311.3265-.87048.11906-1.6775-.5117-1.9844-2.7953-6.0881-4.6445-8.5249-.75935-1.0001-1.4713-1.7251-1.9637-2.0002-.50244-.27781-.92948-.23283-1.2348-.0582-.12435.0714-.26749.19315-.3982.3863-.13547.20108-.2876.53975-.4318.97895-.67257 2.0558-1.4028 6.7813-1.4885 8.1545-.009.14817-.11192.41804-.23257.73819-.36036.96308-.95912 2.2516-1.088 2.5453-.11245.25665-.09128.42598-.08996.4445.02434.30427.18098.46831.30533.56356.17515.13494.39105.20638.66119.14552.06244-.0132.29131-.045.48366-.33072.04022-.0582.07144-.12171.0934-.18521.13362-.30427.74904-1.6325 1.1208-2.6247.19341-.51594.31591-.96044.33073-1.1959.0037-.0635.009-.13229.01561-.20902zm-1.8994 3.0427c.1741.0688.3384.19844.42333.4445-.05556-.14552-.15584-.27781-.2958-.37306-.04101-.0291-.08361-.0503-.12753-.0714zm-.9525.25136c-.0037.005-.0074.0106-.01111.0159-.0037.005-.0077.0106-.01138.0159zm.01376-.0185-.01032.0132.01693-.0212zm.03334-.0397-.0079.0106.01085-.0132zm.67918-.254c-.07355-.0106-.16272-.0159-.26114.005-.09842.0212-.20611.0688-.31644.1561.16484-.127.37333-.18521.57758-.16139zm7.0967-5.8235c-.73951-1.2859-1.5687-2.5612-2.3188-3.5507-.42492-.56092-.821-1.0266-1.1591-1.3335l-.01058-.008c-.10054.27517-.22913.64823-.31829.99748-.3773 1.4658-.74507 3.5613-.9689 5.1303 1.175-.0873 2.6252-.18521 3.7587-.37041.33417-.0556.72099-.16669.9906-.254-.07223-.1958-.06456-.41805.02646-.61119z" style="clip-rule:evenodd;fill-rule:evenodd;fill:#582929;stroke-linecap:round;stroke-linejoin:round;stroke-miterlimit:1.5;stroke-width:.26458"/>
 <path id="path2733" d="m31.152 64.875c.20823-1.0345.43524-1.9976.6559-2.6723.1442-.4392.29633-.77787.4318-.97895.1307-.19315.27384-.31486.3982-.3863.30533-.17462.73237-.2196 1.2348.0582.46487.25929 1.125.92075 1.8362 1.8336-.32464.0847-.71967.26459-1.2647.53711-.07594.037-.15743.0767-.24368.11642-.28443-.34925-.55033-.64294-.78793-.8599l-.01058-.008c-.10054.27517-.22913.64823-.31829.99748-.0344.13229-.06879.27252-.10292.4154-.64135.28575-1.3107.60325-1.8132.93927z" style="clip-rule:evenodd;fill-rule:evenodd;fill:#3c1515;stroke-linecap:round;stroke-linejoin:round;stroke-miterlimit:1.5;stroke-width:.26458"/>
</svg>
