<?xml version="1.0" encoding="UTF-8" standalone="no"?>
<svg
   xmlns:vectornator="http://vectornator.io"
   xmlns:dc="http://purl.org/dc/elements/1.1/"
   xmlns:cc="http://creativecommons.org/ns#"
   xmlns:rdf="http://www.w3.org/1999/02/22-rdf-syntax-ns#"
   xmlns:svg="http://www.w3.org/2000/svg"
   xmlns="http://www.w3.org/2000/svg"
   xmlns:sodipodi="http://sodipodi.sourceforge.net/DTD/sodipodi-0.dtd"
   xmlns:inkscape="http://www.inkscape.org/namespaces/inkscape"
   width="81.04171mm"
   height="33.142597mm"
   viewBox="0 0 81.041709 33.142598"
   version="1.1"
   id="svg1069"
   inkscape:version="1.0.2 (e86c8708, 2021-01-15)"
   sodipodi:docname="G3_Hamburger Recipes_7.svg">
  <defs
     id="defs1063" />
  <sodipodi:namedview
     id="base"
     pagecolor="#ffffff"
     bordercolor="#666666"
     borderopacity="1.0"
     inkscape:pageopacity="0.0"
     inkscape:pageshadow="2"
     inkscape:zoom="0.90164567"
     inkscape:cx="115.15294"
     inkscape:cy="80.830129"
     inkscape:document-units="mm"
     inkscape:current-layer="layer1"
     inkscape:document-rotation="0"
     showgrid="false"
     inkscape:window-width="712"
     inkscape:window-height="1027"
     inkscape:window-x="0"
     inkscape:window-y="25"
     inkscape:window-maximized="0" />
  <metadata
     id="metadata1066">
    <rdf:RDF>
      <cc:Work
         rdf:about="">
        <dc:format>image/svg+xml</dc:format>
        <dc:type
           rdf:resource="http://purl.org/dc/dcmitype/StillImage" />
        <dc:title></dc:title>
      </cc:Work>
    </rdf:RDF>
  </metadata>
  <g
     inkscape:label="레이어 1"
     inkscape:groupmode="layer"
     id="layer1"
     transform="translate(-59.193431,-82.384168)">
    <g
       id="레이어-8"
       vectornator:layerName="레이어 8"
       style="clip-rule:evenodd;fill-rule:nonzero;stroke-linecap:round;stroke-linejoin:round"
       transform="matrix(0.26458333,0,0,0.26458333,-40.744322,30.801677)">
      <path
         d="m 532.404,199.51 c 1.271,-0.278 0.561,-0.381 -1.906,-0.381 -3.822,0 -1.277,-0.283 -6.097,1.524 -4.235,1.588 -8.638,2.461 -12.956,3.811 -9.887,3.089 -19.927,6.479 -29.724,9.908 -9.58,3.353 -18.792,7.669 -28.2,11.432 -16.792,6.717 -34.397,11.149 -51.065,18.292 -5.021,2.152 -24.138,7.102 -22.102,15.243 1.494,5.978 13.683,6.336 18.291,8.384 16.297,7.243 32.764,12.953 49.541,19.054 13.028,4.737 28.005,7.524 40.394,13.719 6.478,3.239 13.238,5.856 19.816,9.145 4.835,2.418 9.916,6.29 15.243,7.622 10.747,2.687 23.516,-7.465 32.773,-11.432 5.616,-2.407 10.506,-5.818 16.005,-8.384 18.18,-8.484 36.611,-16.087 54.875,-24.389 14.072,-6.396 28.904,-11.403 42.681,-18.292 3.685,-1.842 9.759,-4.2 11.432,-8.384 2.049,-5.12 -18.382,-9.43 -22.102,-10.67 -12.737,-4.245 -25.836,-5.376 -38.87,-8.383 -12.955,-2.99 -25.297,-9.297 -38.108,-12.957 -10.803,-3.087 -23.159,-6.223 -33.535,-10.67 -3.529,-1.513 -6.757,-3.791 -10.67,-4.573 -1.997,-0.4 -3.391,0.21 -5.335,-0.762 -0.508,-0.254 -1.345,-1.301 -1.524,-0.763 -0.235,0.703 0.419,2.064 1.143,1.906 z"
         fill="#f0c812"
         fill-rule="evenodd"
         opacity="1"
         stroke="#070c00"
         stroke-linecap="round"
         stroke-linejoin="round"
         stroke-width="5"
         id="path1029" />
    </g>
  </g>
</svg>
