<?xml version="1.0" encoding="UTF-8" standalone="no"?>
<svg
   xmlns:dc="http://purl.org/dc/elements/1.1/"
   xmlns:cc="http://creativecommons.org/ns#"
   xmlns:rdf="http://www.w3.org/1999/02/22-rdf-syntax-ns#"
   xmlns:svg="http://www.w3.org/2000/svg"
   xmlns="http://www.w3.org/2000/svg"
   xmlns:sodipodi="http://sodipodi.sourceforge.net/DTD/sodipodi-0.dtd"
   xmlns:inkscape="http://www.inkscape.org/namespaces/inkscape"
   sodipodi:docname="2022-SK-02-x.svg"
   inkscape:version="1.0 (4035a4fb49, 2020-05-01)"
   id="svg1012"
   version="1.1"
   viewBox="0 0 110.89005 113.23836"
   height="113.23836mm"
   width="110.89005mm">
  <defs
     id="defs1006" />
  <sodipodi:namedview
     showgrid="false"
     inkscape:document-rotation="0"
     inkscape:current-layer="layer1"
     inkscape:document-units="mm"
     inkscape:cy="560"
     inkscape:cx="400"
     inkscape:zoom="0.35"
     inkscape:pageshadow="2"
     inkscape:pageopacity="0.0"
     borderopacity="1.0"
     bordercolor="#666666"
     pagecolor="#ffffff"
     id="base" />
  <metadata
     id="metadata1009">
    <rdf:RDF>
      <cc:Work
         rdf:about="">
        <dc:format>image/svg+xml</dc:format>
        <dc:type
           rdf:resource="http://purl.org/dc/dcmitype/StillImage" />
        <dc:title></dc:title>
      </cc:Work>
    </rdf:RDF>
  </metadata>
  <g
     transform="translate(-76.630176,-172.73015)"
     id="layer1"
     inkscape:groupmode="layer"
     inkscape:label="Ebene 1">
    <g
       transform="matrix(0.26458333,0,0,0.26458333,-100.47344,128.51682)"
       style="clip-rule:evenodd;fill-rule:evenodd;stroke-linecap:round;stroke-linejoin:round;stroke-miterlimit:1.5"
       id="g36">
      <g
         transform="matrix(1.04916,0,0,1,541.599,-12.596)"
         id="g8">
        <path
           d="m 461.4,257.486 c 22.911,32.438 59.856,100.02 59.856,142.715 0,109.92 -86.873,207.488 -196.793,207.488 -37.128,0 -75.312,-16.988 -104.779,-35.205 -47.259,-29.219 -83.84,-93.066 -96.749,-172.283 0,0 302.393,-193.788 338.465,-142.715 z"
           style="fill:#555555"
           id="path6" />
      </g>
      <g
         transform="translate(539.193,-1.82643)"
         id="g12">
        <path
           d="m 352.921,271.429 c 63.215,-27.804 119.024,-44.34 133.568,-24.712 24.037,32.438 62.798,100.019 62.798,142.715 0,88.892 -59.607,169.706 -143.417,197.376 68.294,-34.954 114.55,-106.993 114.55,-185.3 0,-42.695 -38.761,-110.277 -62.798,-142.715 -12.281,-16.573 -53.984,-7.362 -104.701,12.636 z"
           style="fill:#373131"
           id="path10" />
      </g>
      <g
         transform="translate(567.224,-12.596)"
         id="g16">
        <path
           d="m 122.935,400.201 c 0,-109.919 89.241,-199.16 199.16,-199.16"
           style="fill:#3d3d3d"
           id="path14" />
      </g>
      <g
         transform="translate(546.434,-33.9345)"
         id="g20">
        <circle
           cx="322.095"
           cy="400.20099"
           r="199.161"
           id="circle18" />
      </g>
      <g
         transform="matrix(0.837635,0,0,0.837635,594.74,57.0994)"
         id="g24">
        <path
           d="M 219.482,534.202 C 165.674,498.52 130.176,437.42 130.176,368.093 c 0,-109.919 89.241,-199.16 199.16,-199.16 64.095,0 121.158,30.342 157.597,77.434 -31.488,-20.881 -69.261,-33.052 -109.854,-33.052 -109.92,0 -199.161,89.241 -199.161,199.161 0,45.825 15.51,88.057 41.564,121.726 z"
           style="fill:#575353"
           id="path22" />
      </g>
      <g
         transform="matrix(0.875465,0,0,0.875465,109.439,45.6841)"
         id="g34">
        <g
           transform="translate(-471.187,-0.594212)"
           id="g28">
          <path
             d="m 1300.18,366.861 -66.45,89.256 c -10.45,14.036 -7.55,33.916 6.49,44.368 14.04,10.451 33.92,7.54 44.37,-6.496 0,0 55.13,-74.036 55.13,-74.036 0,0 55.12,74.036 55.12,74.036 10.45,14.036 30.33,16.947 44.37,6.496 14.04,-10.452 16.95,-30.332 6.5,-44.368 0,0 -66.46,-89.256 -66.46,-89.256 0,0 66.46,-89.255 66.46,-89.255 10.45,-14.036 7.54,-33.917 -6.5,-44.368 -14.04,-10.451 -33.92,-7.541 -44.37,6.495 0,0 -55.12,74.036 -55.12,74.036 0,0 -55.13,-74.036 -55.13,-74.036 -10.45,-14.036 -30.33,-16.946 -44.37,-6.495 -14.04,10.451 -16.94,30.332 -6.49,44.368 z"
             style="fill:#ffffff"
             id="path26" />
        </g>
        <g
           transform="matrix(-1,0,0,1,1736.81,-0.339487)"
           id="g32">
          <path
             d="m 919.574,244.62 c 10.908,-11.308 28.803,-13.022 41.735,-3.392 14.037,10.451 16.947,30.332 6.496,44.368 0,0 -66.459,89.255 -66.459,89.255 0,0 66.459,89.256 66.459,89.256 7.568,10.163 8.13,23.391 2.534,33.884 12.012,-10.827 14.028,-29.242 4.18,-42.469 0,0 -66.459,-89.255 -66.459,-89.255 0,0 66.459,-89.255 66.459,-89.255 10.451,-14.037 7.541,-33.917 -6.496,-44.368 -14.036,-10.452 -33.916,-7.541 -44.368,6.495 z m -57.598,183.539 -0.161,-0.216 -51.045,68.555 c 0.931,-0.966 1.811,-2 2.633,-3.103 z M 760.005,243.127 c 0.733,-0.662 1.506,-1.296 2.316,-1.899 14.036,-10.451 33.916,-7.541 44.368,6.496 0,0 55.126,74.036 55.126,74.036 l 6.553,-8.801 -54.965,-73.82 c -10.452,-14.036 -30.332,-16.947 -44.368,-6.495 -3.873,2.883 -6.899,6.484 -9.03,10.483 z"
             style="fill:#e4e4e4"
             id="path30" />
        </g>
      </g>
    </g>
  </g>
</svg>
