<?xml version="1.0" encoding="UTF-8" standalone="no"?>
<!-- Created with Inkscape (http://www.inkscape.org/) -->

<svg
   width="267.00464mm"
   height="177.70596mm"
   viewBox="0 0 267.00464 177.70596"
   version="1.1"
   id="svg3676"
   inkscape:version="1.1.1 (3bf5ae0d25, 2021-09-20)"
   sodipodi:docname="2022-AT-04-taskbody2.svg"
   xmlns:inkscape="http://www.inkscape.org/namespaces/inkscape"
   xmlns:sodipodi="http://sodipodi.sourceforge.net/DTD/sodipodi-0.dtd"
   xmlns="http://www.w3.org/2000/svg"
   xmlns:svg="http://www.w3.org/2000/svg">
  <sodipodi:namedview
     id="namedview3678"
     pagecolor="#ffffff"
     bordercolor="#666666"
     borderopacity="1.0"
     inkscape:pageshadow="2"
     inkscape:pageopacity="0.0"
     inkscape:pagecheckerboard="0"
     inkscape:document-units="mm"
     showgrid="false"
     inkscape:zoom="0.66368547"
     inkscape:cx="484.41621"
     inkscape:cy="110.74523"
     inkscape:window-width="1680"
     inkscape:window-height="1027"
     inkscape:window-x="1912"
     inkscape:window-y="-8"
     inkscape:window-maximized="1"
     inkscape:current-layer="layer1" />
  <defs
     id="defs3673" />
  <g
     inkscape:label="Ebene 1"
     inkscape:groupmode="layer"
     id="layer1"
     transform="translate(118.75199,72.109359)">
    <g
       id="g3594"
       style="clip-rule:evenodd;fill-rule:evenodd;stroke-linejoin:round;stroke-miterlimit:2"
       transform="matrix(0.26458333,0,0,0.26458333,-649.30378,-236.38048)">
      <g
         transform="matrix(0.939594,0,0,0.754464,1776.23,761.127)"
         id="g176">
        <rect
           x="1167.88"
           y="459.48099"
           width="149.877"
           height="244.84"
           style="fill:#afafaf"
           id="rect174" />
      </g>
      <g
         transform="matrix(0.978905,0,0,0.754464,1551.05,761.127)"
         id="g374">
        <rect
           x="1167.88"
           y="459.48099"
           width="149.877"
           height="244.84"
           style="fill:#afafaf"
           id="rect372" />
      </g>
      <g
         transform="matrix(0.989452,0,0,0.754464,1363.77,761.127)"
         id="g410">
        <rect
           x="1167.88"
           y="459.48099"
           width="149.877"
           height="244.84"
           style="fill:#afafaf"
           id="rect408" />
      </g>
      <g
         transform="matrix(0.978905,0,0,0.754464,1204.29,761.127)"
         id="g446">
        <rect
           x="1167.88"
           y="459.48099"
           width="149.877"
           height="244.84"
           style="fill:#afafaf"
           id="rect444" />
      </g>
      <g
         transform="matrix(0.978905,0,0,0.754464,1030.92,761.127)"
         id="g482">
        <rect
           x="1167.88"
           y="459.48099"
           width="149.877"
           height="244.84"
           style="fill:#afafaf"
           id="rect480" />
      </g>
      <g
         id="g3217"
         transform="translate(0,-62)">
        <g
           transform="matrix(0.978905,0,0,0.769238,1724.42,329.417)"
           id="g68">
          <rect
             x="1167.88"
             y="459.48099"
             width="149.877"
             height="244.84"
             style="fill:#afafaf"
             id="rect66" />
        </g>
        <g
           transform="matrix(0.978905,0,0,0.769238,1551.05,329.417)"
           id="g358">
          <rect
             x="1167.88"
             y="459.48099"
             width="149.877"
             height="244.84"
             style="fill:#afafaf"
             id="rect356" />
        </g>
        <g
           transform="matrix(0.978905,0,0,0.769238,1377.67,329.417)"
           id="g394">
          <rect
             x="1167.88"
             y="459.48099"
             width="149.877"
             height="244.84"
             style="fill:#afafaf"
             id="rect392" />
        </g>
        <g
           transform="matrix(0.978905,0,0,0.769238,1204.29,329.417)"
           id="g430">
          <rect
             x="1167.88"
             y="459.48099"
             width="149.877"
             height="244.84"
             style="fill:#afafaf"
             id="rect428" />
        </g>
        <g
           transform="matrix(0.978905,0,0,0.769238,1030.92,329.417)"
           id="g466">
          <rect
             x="1167.88"
             y="459.48099"
             width="149.877"
             height="244.84"
             style="fill:#afafaf"
             id="rect464" />
        </g>
        <g
           transform="matrix(0.534125,0,0,0.534125,1795.77,659.043)"
           id="g524">
          <path
             d="M 392.165,356.839 500.297,75.273 h 40.142 L 655.677,356.839 H 613.231 L 580.388,271.563 H 462.653 l -30.923,85.276 z m 81.243,-115.623 h 95.456 l -29.385,-77.978 c -8.963,-23.688 -15.622,-43.15 -19.975,-58.387 -3.585,18.054 -8.643,35.98 -15.173,53.778 z"
             style="fill-rule:nonzero"
             id="path522" />
        </g>
        <g
           transform="matrix(0.534125,0,0,0.534125,1792.77,663.135)"
           id="g528">
          <path
             d="m 759.2,282.51 34.572,-4.609 c 3.969,19.59 10.723,33.707 20.262,42.35 9.539,8.643 21.159,12.964 34.86,12.964 16.261,0 29.994,-5.634 41.198,-16.902 11.203,-11.267 16.805,-25.224 16.805,-41.87 0,-15.877 -5.185,-28.969 -15.557,-39.277 -10.371,-10.307 -23.56,-15.461 -39.565,-15.461 -6.53,0 -14.661,1.281 -24.392,3.841 l 3.841,-30.346 c 2.305,0.256 4.161,0.384 5.57,0.384 14.725,0 27.977,-3.841 39.757,-11.523 11.78,-7.683 17.67,-19.527 17.67,-35.532 0,-12.677 -4.289,-23.176 -12.868,-31.499 -8.579,-8.323 -19.655,-12.484 -33.227,-12.484 -13.445,0 -24.649,4.225 -33.612,12.676 -8.963,8.451 -14.724,21.127 -17.285,38.029 l -34.572,-6.146 c 4.226,-23.176 13.829,-41.134 28.81,-53.874 14.981,-12.74 33.611,-19.11 55.89,-19.11 15.366,0 29.514,3.297 42.447,9.891 12.932,6.594 22.823,15.589 29.674,26.985 6.85,11.396 10.275,23.496 10.275,36.3 0,12.164 -3.265,23.24 -9.795,33.227 -6.53,9.987 -16.198,17.926 -29.002,23.816 16.646,3.841 29.578,11.812 38.797,23.912 9.219,12.1 13.829,27.241 13.829,45.423 0,24.584 -8.963,45.423 -26.889,62.517 -17.926,17.094 -40.59,25.641 -67.991,25.641 -24.712,0 -45.231,-7.363 -61.557,-22.088 C 770.82,325.02 761.505,305.942 759.2,282.51 Z"
             style="fill-rule:nonzero"
             id="path526" />
        </g>
        <g
           transform="matrix(0.534125,0,0,0.534125,1792.94,660.57)"
           id="g532">
          <path
             d="m 1268.75,323.612 v 33.227 h -186.11 c -0.26,-8.323 1.08,-16.325 4.03,-24.008 4.74,-12.676 12.32,-25.16 22.76,-37.453 10.44,-12.292 25.51,-26.504 45.23,-42.638 30.6,-25.096 51.28,-44.975 62.04,-59.636 10.75,-14.661 16.13,-28.521 16.13,-41.582 0,-13.7 -4.9,-25.256 -14.69,-34.667 -9.8,-9.411 -22.57,-14.117 -38.32,-14.117 -16.65,0 -29.96,4.994 -39.95,14.981 -9.99,9.987 -15.04,23.816 -15.17,41.486 l -35.53,-3.649 c 2.43,-26.505 11.58,-46.704 27.46,-60.597 15.88,-13.892 37.2,-20.838 63.96,-20.838 27.02,0 48.4,7.49 64.15,22.471 15.75,14.981 23.62,33.547 23.62,55.699 0,11.267 -2.3,22.343 -6.91,33.227 -4.61,10.883 -12.26,22.343 -22.95,34.379 -10.69,12.036 -28.46,28.554 -53.3,49.553 -20.75,17.414 -34.06,29.226 -39.95,35.436 -5.89,6.21 -10.76,12.452 -14.6,18.726 z"
             style="fill-rule:nonzero"
             id="path530" />
        </g>
        <g
           transform="matrix(0.534125,0,0,0.534125,1792.55,662.827)"
           id="g536">
          <path
             d="m 1525.92,356.839 v -67.415 h -122.15 v -31.69 L 1532.26,75.273 h 28.23 v 182.461 h 38.03 v 31.69 h -38.03 v 67.415 z m 0,-99.105 V 130.779 l -88.16,126.955 z"
             style="fill-rule:nonzero"
             id="path534" />
        </g>
        <g
           transform="matrix(0.534125,0,0,0.534125,1784.89,661.135)"
           id="g540">
          <path
             d="m 1873.36,356.839 h -34.57 V 136.541 c -8.32,7.939 -19.24,15.878 -32.74,23.816 -13.51,7.939 -25.65,13.893 -36.4,17.862 V 144.8 c 19.33,-9.091 36.24,-20.103 50.71,-33.035 14.46,-12.932 24.71,-25.48 30.73,-37.644 h 22.27 z"
             style="fill-rule:nonzero"
             id="path538" />
        </g>
        <g
           transform="matrix(0.534125,0,0,0.534125,1787.84,661.801)"
           id="g544">
          <path
             d="m 2071.19,283.086 36.3,-3.073 c 2.69,17.67 8.93,30.955 18.73,39.854 9.79,8.899 21.6,13.348 35.43,13.348 16.65,0 30.73,-6.274 42.26,-18.822 11.52,-12.548 17.28,-29.194 17.28,-49.937 0,-19.718 -5.53,-35.276 -16.61,-46.671 -11.08,-11.396 -25.58,-17.094 -43.5,-17.094 -11.14,0 -21.19,2.529 -30.16,7.586 -8.96,5.058 -16,11.62 -21.12,19.687 l -32.46,-4.225 27.27,-144.625 h 140.01 v 33.035 h -112.35 l -15.18,75.674 c 16.91,-11.78 34.64,-17.67 53.21,-17.67 24.58,0 45.32,8.514 62.23,25.544 16.9,17.03 25.35,38.925 25.35,65.686 0,25.481 -7.43,47.504 -22.28,66.07 -18.06,22.792 -42.71,34.188 -73.95,34.188 -25.61,0 -46.51,-7.171 -62.71,-21.512 -16.19,-14.34 -25.45,-33.355 -27.75,-57.043 z"
             style="fill-rule:nonzero"
             id="path542" />
        </g>
      </g>
      <g
         id="g3241"
         transform="translate(0,-34)">
        <g
           transform="matrix(0.939594,0,0,0.770225,1776.23,541.815)"
           id="g122">
          <rect
             x="1167.88"
             y="459.48099"
             width="149.877"
             height="244.84"
             style="fill:#afafaf"
             id="rect120" />
        </g>
        <g
           transform="matrix(0.978905,0,0,0.770225,1551.05,541.815)"
           id="g366">
          <rect
             x="1167.88"
             y="459.48099"
             width="149.877"
             height="244.84"
             style="fill:#afafaf"
             id="rect364" />
        </g>
        <g
           transform="matrix(0.989452,0,0,0.770225,1363.77,541.815)"
           id="g402">
          <rect
             x="1167.88"
             y="459.48099"
             width="149.877"
             height="244.84"
             style="fill:#afafaf"
             id="rect400" />
        </g>
        <g
           transform="matrix(0.978905,0,0,0.770225,1204.29,541.815)"
           id="g438">
          <rect
             x="1167.88"
             y="459.48099"
             width="149.877"
             height="244.84"
             style="fill:#afafaf"
             id="rect436" />
        </g>
        <g
           transform="matrix(0.978905,0,0,0.770225,1030.92,541.815)"
           id="g474">
          <rect
             x="1167.88"
             y="459.48099"
             width="149.877"
             height="244.84"
             style="fill:#afafaf"
             id="rect472" />
        </g>
        <g
           transform="matrix(0.534125,0,0,0.534125,1793.67,872.016)"
           id="g552">
          <path
             d="M 421.551,356.839 V 75.273 h 105.635 c 21.512,0 38.765,2.849 51.762,8.547 12.996,5.698 23.175,14.469 30.538,26.313 7.362,11.844 11.044,24.232 11.044,37.164 0,12.036 -3.265,23.368 -9.796,33.995 -6.53,10.628 -16.389,19.207 -29.578,25.737 17.03,4.994 30.123,13.508 39.278,25.544 9.155,12.037 13.732,26.249 13.732,42.639 0,13.188 -2.785,25.448 -8.355,36.78 -5.569,11.332 -12.452,20.071 -20.647,26.217 -8.194,6.146 -18.47,10.787 -30.826,13.924 -12.356,3.138 -27.497,4.706 -45.423,4.706 z m 37.261,-163.255 h 60.884 c 16.517,0 28.361,-1.088 35.532,-3.265 9.475,-2.817 16.613,-7.49 21.415,-14.02 4.802,-6.531 7.202,-14.725 7.202,-24.585 0,-9.347 -2.24,-17.573 -6.722,-24.68 -4.481,-7.106 -10.884,-11.972 -19.206,-14.597 -8.323,-2.625 -22.6,-3.937 -42.831,-3.937 h -56.274 z m 0,130.028 h 70.103 c 12.036,0 20.487,-0.448 25.352,-1.345 8.579,-1.536 15.75,-4.097 21.512,-7.682 5.762,-3.585 10.499,-8.803 14.212,-15.653 3.714,-6.851 5.57,-14.757 5.57,-23.72 0,-10.5 -2.689,-19.623 -8.066,-27.369 -5.378,-7.747 -12.837,-13.189 -22.376,-16.326 -9.539,-3.137 -23.272,-4.705 -41.198,-4.705 h -65.109 z"
             style="fill-rule:nonzero"
             id="path550" />
        </g>
        <g
           transform="matrix(0.534125,0,0,0.534125,1780.67,876.107)"
           id="g556">
          <path
             d="m 780.711,283.086 36.3,-3.073 c 2.689,17.67 8.931,30.955 18.727,39.854 9.795,8.899 21.607,13.348 35.435,13.348 16.646,0 30.731,-6.274 42.255,-18.822 11.523,-12.548 17.285,-29.194 17.285,-49.937 0,-19.718 -5.538,-35.276 -16.613,-46.671 -11.076,-11.396 -25.577,-17.094 -43.503,-17.094 -11.14,0 -21.191,2.529 -30.154,7.586 -8.963,5.058 -16.005,11.62 -21.127,19.687 L 786.857,223.739 814.13,79.114 h 140.015 v 33.035 H 841.788 l -15.173,75.674 c 16.901,-11.78 34.635,-17.67 53.201,-17.67 24.585,0 45.327,8.514 62.229,25.544 16.902,17.03 25.353,38.925 25.353,65.686 0,25.481 -7.427,47.504 -22.28,66.07 -18.054,22.792 -42.702,34.188 -73.945,34.188 -25.608,0 -46.511,-7.171 -62.709,-21.512 -16.197,-14.34 -25.448,-33.355 -27.753,-57.043 z"
             style="fill-rule:nonzero"
             id="path554" />
        </g>
        <g
           transform="matrix(0.534125,0,0,0.534125,1782.72,873.543)"
           id="g560">
          <path
             d="m 1219.58,356.839 v -67.415 h -122.16 v -31.69 l 128.5,-182.461 h 28.23 v 182.461 h 38.03 v 31.69 h -38.03 v 67.415 z m 0,-99.105 V 130.779 l -88.16,126.955 z"
             style="fill-rule:nonzero"
             id="path558" />
        </g>
        <g
           transform="matrix(0.534125,0,0,0.534125,1773.01,875.8)"
           id="g564">
          <path
             d="m 1567.02,356.839 h -34.57 V 136.541 c -8.32,7.939 -19.24,15.878 -32.75,23.816 -13.51,7.939 -25.64,13.893 -36.39,17.862 V 144.8 c 19.33,-9.091 36.23,-20.103 50.7,-33.035 14.47,-12.932 24.72,-25.48 30.73,-37.644 h 22.28 z"
             style="fill-rule:nonzero"
             id="path562" />
        </g>
        <g
           transform="matrix(0.534125,0,0,0.534125,1779.39,874.107)"
           id="g568">
          <path
             d="m 1765.04,282.51 34.57,-4.609 c 3.97,19.59 10.73,33.707 20.27,42.35 9.53,8.643 21.15,12.964 34.85,12.964 16.27,0 30,-5.634 41.2,-16.902 11.21,-11.267 16.81,-25.224 16.81,-41.87 0,-15.877 -5.19,-28.969 -15.56,-39.277 -10.37,-10.307 -23.56,-15.461 -39.56,-15.461 -6.53,0 -14.67,1.281 -24.4,3.841 l 3.84,-30.346 c 2.31,0.256 4.17,0.384 5.57,0.384 14.73,0 27.98,-3.841 39.76,-11.523 11.78,-7.683 17.67,-19.527 17.67,-35.532 0,-12.677 -4.29,-23.176 -12.87,-31.499 -8.58,-8.323 -19.65,-12.484 -33.22,-12.484 -13.45,0 -24.65,4.225 -33.61,12.676 -8.97,8.451 -14.73,21.127 -17.29,38.029 l -34.57,-6.146 c 4.22,-23.176 13.83,-41.134 28.81,-53.874 14.98,-12.74 33.61,-19.11 55.89,-19.11 15.36,0 29.51,3.297 42.44,9.891 12.94,6.594 22.83,15.589 29.68,26.985 6.85,11.396 10.27,23.496 10.27,36.3 0,12.164 -3.26,23.24 -9.79,33.227 -6.53,9.987 -16.2,17.926 -29,23.816 16.64,3.841 29.57,11.812 38.79,23.912 9.22,12.1 13.83,27.241 13.83,45.423 0,24.584 -8.96,45.423 -26.89,62.517 -17.92,17.094 -40.59,25.641 -67.99,25.641 -24.71,0 -45.23,-7.363 -61.55,-22.088 -16.33,-14.725 -25.64,-33.803 -27.95,-57.235 z"
             style="fill-rule:nonzero"
             id="path566" />
        </g>
        <g
           transform="matrix(0.534125,0,0,0.534125,1778.77,874.774)"
           id="g572">
          <path
             d="m 2274.59,323.612 v 33.227 h -186.11 c -0.26,-8.323 1.09,-16.325 4.03,-24.008 4.74,-12.676 12.32,-25.16 22.76,-37.453 10.43,-12.292 25.51,-26.504 45.23,-42.638 30.6,-25.096 51.28,-44.975 62.04,-59.636 10.75,-14.661 16.13,-28.521 16.13,-41.582 0,-13.7 -4.9,-25.256 -14.69,-34.667 -9.8,-9.411 -22.57,-14.117 -38.32,-14.117 -16.65,0 -29.96,4.994 -39.95,14.981 -9.99,9.987 -15.04,23.816 -15.17,41.486 l -35.53,-3.649 c 2.43,-26.505 11.58,-46.704 27.46,-60.597 15.88,-13.892 37.2,-20.838 63.96,-20.838 27.02,0 48.4,7.49 64.15,22.471 15.75,14.981 23.62,33.547 23.62,55.699 0,11.267 -2.3,22.343 -6.91,33.227 -4.61,10.883 -12.26,22.343 -22.95,34.379 -10.7,12.036 -28.46,28.554 -53.3,49.553 -20.74,17.414 -34.06,29.226 -39.95,35.436 -5.89,6.21 -10.76,12.452 -14.6,18.726 z"
             style="fill-rule:nonzero"
             id="path570" />
        </g>
      </g>
      <g
         transform="matrix(0.525164,0,0,0.534125,1793.71,1082.61)"
         id="g580">
        <path
           d="m 623.987,258.118 37.26,9.411 c -7.81,30.602 -21.863,53.938 -42.158,70.008 -20.295,16.069 -45.103,24.104 -74.425,24.104 -30.346,0 -55.026,-6.178 -74.041,-18.535 -19.014,-12.356 -33.483,-30.25 -43.406,-53.682 -9.923,-23.431 -14.885,-48.592 -14.885,-75.481 0,-29.322 5.602,-54.898 16.806,-76.729 11.203,-21.832 27.145,-38.413 47.824,-49.745 20.679,-11.332 43.438,-16.998 68.278,-16.998 28.17,0 51.858,7.171 71.064,21.511 19.207,14.341 32.587,34.508 40.142,60.501 l -36.685,8.643 c -6.53,-20.487 -16.005,-35.404 -28.425,-44.751 -12.42,-9.347 -28.042,-14.021 -46.864,-14.021 -21.639,0 -39.725,5.186 -54.258,15.557 -14.533,10.372 -24.744,24.296 -30.634,41.774 -5.89,17.478 -8.835,35.5 -8.835,54.066 0,23.944 3.489,44.847 10.467,62.709 6.979,17.862 17.83,31.211 32.555,40.046 14.725,8.834 30.666,13.252 47.824,13.252 20.871,0 38.541,-6.018 53.01,-18.054 14.469,-12.036 24.264,-29.898 29.386,-53.586 z"
           style="fill-rule:nonzero"
           id="path578" />
      </g>
      <g
         transform="matrix(0.525164,0,0,0.534125,1779.58,1086.7)"
         id="g584">
        <path
           d="m 984.107,323.612 v 33.227 h -186.11 c -0.256,-8.323 1.088,-16.325 4.033,-24.008 4.738,-12.676 12.324,-25.16 22.76,-37.453 10.435,-12.292 25.512,-26.504 45.231,-42.638 30.602,-25.096 51.281,-44.975 62.037,-59.636 10.755,-14.661 16.133,-28.521 16.133,-41.582 0,-13.7 -4.897,-25.256 -14.693,-34.667 -9.795,-9.411 -22.567,-14.117 -38.317,-14.117 -16.645,0 -29.962,4.994 -39.949,14.981 -9.987,9.987 -15.045,23.816 -15.173,41.486 l -35.532,-3.649 c 2.433,-26.505 11.588,-46.704 27.465,-60.597 15.878,-13.892 37.197,-20.838 63.958,-20.838 27.017,0 48.4,7.49 64.149,22.471 15.749,14.981 23.624,33.547 23.624,55.699 0,11.267 -2.305,22.343 -6.914,33.227 -4.61,10.883 -12.26,22.343 -22.952,34.379 -10.692,12.036 -28.457,28.554 -53.298,49.553 -20.743,17.414 -34.059,29.226 -39.949,35.436 -5.89,6.21 -10.756,12.452 -14.597,18.726 z"
           style="fill-rule:nonzero"
           id="path582" />
      </g>
      <g
         transform="matrix(0.525164,0,0,0.534125,1778.2,1084.13)"
         id="g588">
        <path
           d="m 1130.46,283.086 36.3,-3.073 c 2.69,17.67 8.93,30.955 18.73,39.854 9.79,8.899 21.6,13.348 35.43,13.348 16.65,0 30.73,-6.274 42.26,-18.822 11.52,-12.548 17.28,-29.194 17.28,-49.937 0,-19.718 -5.54,-35.276 -16.61,-46.671 -11.08,-11.396 -25.58,-17.094 -43.5,-17.094 -11.14,0 -21.2,2.529 -30.16,7.586 -8.96,5.058 -16,11.62 -21.12,19.687 l -32.46,-4.225 27.27,-144.625 h 140.01 v 33.035 h -112.35 l -15.18,75.674 c 16.91,-11.78 34.64,-17.67 53.21,-17.67 24.58,0 45.32,8.514 62.22,25.544 16.91,17.03 25.36,38.925 25.36,65.686 0,25.481 -7.43,47.504 -22.28,66.07 -18.06,22.792 -42.71,34.188 -73.95,34.188 -25.61,0 -46.51,-7.171 -62.71,-21.512 -16.19,-14.34 -25.44,-33.355 -27.75,-57.043 z"
           style="fill-rule:nonzero"
           id="path586" />
      </g>
      <g
         transform="matrix(0.525164,0,0,0.534125,1782.33,1086.39)"
         id="g592">
        <path
           d="m 1569.33,356.839 v -67.415 h -122.16 v -31.69 L 1575.66,75.273 h 28.24 v 182.461 h 38.03 v 31.69 h -38.03 v 67.415 z m 0,-99.105 V 130.779 l -88.16,126.955 z"
           style="fill-rule:nonzero"
           id="path590" />
      </g>
      <g
         transform="matrix(0.525164,0,0,0.534125,1784.64,1084.7)"
         id="g596">
        <path
           d="m 1786.74,282.51 34.58,-4.609 c 3.96,19.59 10.72,33.707 20.26,42.35 9.54,8.643 21.16,12.964 34.86,12.964 16.26,0 29.99,-5.634 41.19,-16.902 11.21,-11.267 16.81,-25.224 16.81,-41.87 0,-15.877 -5.18,-28.969 -15.56,-39.277 -10.37,-10.307 -23.56,-15.461 -39.56,-15.461 -6.53,0 -14.66,1.281 -24.39,3.841 l 3.84,-30.346 c 2.3,0.256 4.16,0.384 5.57,0.384 14.72,0 27.98,-3.841 39.76,-11.523 11.78,-7.683 17.67,-19.527 17.67,-35.532 0,-12.677 -4.29,-23.176 -12.87,-31.499 -8.58,-8.323 -19.66,-12.484 -33.23,-12.484 -13.44,0 -24.65,4.225 -33.61,12.676 -8.96,8.451 -14.73,21.127 -17.29,38.029 l -34.57,-6.146 c 4.23,-23.176 13.83,-41.134 28.81,-53.874 14.98,-12.74 33.61,-19.11 55.89,-19.11 15.37,0 29.51,3.297 42.45,9.891 12.93,6.594 22.82,15.589 29.67,26.985 6.85,11.396 10.28,23.496 10.28,36.3 0,12.164 -3.27,23.24 -9.8,33.227 -6.53,9.987 -16.2,17.926 -29,23.816 16.64,3.841 29.58,11.812 38.8,23.912 9.22,12.1 13.82,27.241 13.82,45.423 0,24.584 -8.96,45.423 -26.88,62.517 -17.93,17.094 -40.59,25.641 -67.99,25.641 -24.72,0 -45.24,-7.363 -61.56,-22.088 -16.33,-14.725 -25.64,-33.803 -27.95,-57.235 z"
           style="fill-rule:nonzero"
           id="path594" />
      </g>
      <g
         transform="matrix(0.525164,0,0,0.534125,1779.94,1087.36)"
         id="g600">
        <path
           d="m 2244.82,356.839 h -34.58 V 136.541 c -8.32,7.939 -19.23,15.878 -32.74,23.816 -13.51,7.939 -25.64,13.893 -36.4,17.862 V 144.8 c 19.34,-9.091 36.24,-20.103 50.71,-33.035 14.47,-12.932 24.71,-25.48 30.73,-37.644 h 22.28 z"
           style="fill-rule:nonzero"
           id="path598" />
      </g>
    </g>
  </g>
</svg>
