<?xml version="1.0" encoding="UTF-8"?>
<svg id="svg962" width="120mm" height="50mm" version="1.1" viewBox="0 0 120 50" xmlns="http://www.w3.org/2000/svg">
 <g id="container6" transform="matrix(.33794 0 0 .33792 -150.27 -95.335)" style="clip-rule:evenodd;fill-rule:evenodd;fill:#cccccc">
  <circle id="path1770-8-3-1-3-5" cx="496.49" cy="377.92" r="16.275" style="clip-rule:evenodd;fill-rule:evenodd;fill:#ffae00;paint-order:stroke fill markers;stop-color:#000000"/>
 </g>
 <g id="container7" transform="matrix(.33794 0 0 .33792 -133.69 -95.335)" style="clip-rule:evenodd;fill-rule:evenodd;fill:#cccccc">
  <circle id="path1770-8-3-1-3-5-3" cx="496.49" cy="377.92" r="16.275" style="-inkscape-stroke:none;clip-rule:evenodd;fill-rule:evenodd;fill:#ffae00;font-variation-settings:normal;paint-order:stroke fill markers;stop-color:#000000"/>
 </g>
 <g id="container8" transform="matrix(.33794 0 0 .33792 -117.1 -95.335)" style="clip-rule:evenodd;fill-rule:evenodd;fill:#cccccc">
  <circle id="path1770-8-3-1-3-5-7" cx="496.49" cy="377.92" r="16.275" style="-inkscape-stroke:none;clip-rule:evenodd;fill-rule:evenodd;fill:#ffae00;font-variation-settings:normal;paint-order:stroke fill markers;stop-color:#000000"/>
 </g>
 <g id="container9" transform="matrix(.33794 0 0 .33792 -100.52 -95.335)" style="clip-rule:evenodd;fill-rule:evenodd;fill:#cccccc">
  <circle id="path1770-8-3-1-3-5-2" cx="496.49" cy="377.92" r="16.275" style="-inkscape-stroke:none;clip-rule:evenodd;fill-rule:evenodd;fill:#ffae00;font-variation-settings:normal;paint-order:stroke fill markers;stop-color:#000000"/>
 </g>
 <g id="container10" transform="matrix(.33794 0 0 .33792 -83.938 -95.335)" style="clip-rule:evenodd;fill-rule:evenodd;fill:#cccccc">
  <circle id="path1770-8-3-1-3-5-9" cx="496.49" cy="377.92" r="16.275" style="-inkscape-stroke:none;clip-rule:evenodd;fill-rule:evenodd;fill:#ffae00;font-variation-settings:normal;paint-order:stroke fill markers;stop-color:#000000"/>
 </g>
 <g id="container11" transform="matrix(.33794 0 0 .33792 -67.354 -95.335)" style="clip-rule:evenodd;fill-rule:evenodd;fill:#cccccc">
  <circle id="path1770-8-3-1-3-5-24" cx="496.49" cy="377.92" r="16.275" style="-inkscape-stroke:none;clip-rule:evenodd;fill-rule:evenodd;fill:#ffae00;font-variation-settings:normal;paint-order:stroke fill markers;stop-color:#000000"/>
 </g>
 <g id="ignore0" transform="translate(-47.346 2.0032)">
  <path id="path4810" d="m74.175 29.042v2.7l1.6914-1.35z" style="fill:#000000"/>
  <path id="path5010" d="m70.422 30.392h4.6512" style="fill:none;stroke-width:.33429px;stroke:#000000"/>
  <path id="path4810-8" d="m90.76 29.042v2.7l1.6914-1.35z" style="fill:#000000"/>
  <path id="path5010-5" d="m87.007 30.392h4.6512" style="fill:none;stroke-width:.33429px;stroke:#000000"/>
  <path id="path4810-2" d="m107.34 29.042v2.7l1.6914-1.35z" style="fill:#000000"/>
  <path id="path5010-6" d="m103.59 30.392h4.6512" style="fill:none;stroke-width:.33429px;stroke:#000000"/>
  <path id="path4810-4" d="m123.93 29.042v2.7l1.6914-1.35z" style="fill:#000000"/>
  <path id="path5010-8" d="m120.18 30.392h4.6512" style="fill:none;stroke-width:.33429px;stroke:#000000"/>
  <path id="path4810-9" d="m140.51 29.042v2.7l1.6914-1.35z" style="fill:#000000"/>
  <path id="path5010-7" d="m136.76 30.392h4.6512" style="fill:none;stroke-width:.33429px;stroke:#000000"/>
 </g>
 <g id="container0" transform="matrix(.29108 0 0 .29108 -125.99 -92.995)">
  <path id="path1447" d="m496.49 359.15c-10.339 0-18.776 8.4332-18.776 18.772s8.4368 18.774 18.776 18.774c10.339 0 18.772-8.435 18.772-18.774s-8.4332-18.772-18.772-18.772z" style="-inkscape-stroke:none;clip-rule:evenodd;color:#000000;fill-rule:evenodd;fill:#999999;paint-order:fill markers stroke;stroke-linejoin:round;stroke-miterlimit:1.5"/>
  <path id="path1280" d="m512.76 377.92a16.275 16.275 0 01-16.275 16.275 16.275 16.275 0 01-16.275-16.275 16.275 16.275 0 0116.275-16.275 16.275 16.275 0 0116.275 16.275z" style="-inkscape-stroke:none;clip-rule:evenodd;color:#000000;fill-rule:evenodd;fill:#b3b3b3;paint-order:fill markers stroke;stroke-linejoin:round;stroke-miterlimit:1.5;stroke-width:4.9986"/>
  <path id="path1214-3" d="m489.66 384.29h4.6996v-13.339l-4.824.99521v-3.6215l4.7964-.99521h5.059v16.96h4.6996v3.6768h-14.431z" style="fill:#e6e6e6;stroke-width:.7077"/>
 </g>
 <g id="container1" transform="translate(-48.422 12.586)">
  <path id="path1423" d="m83.109-1.0477c-3.0095 0-5.4643 2.4547-5.4643 5.4643 0 3.0095 2.4547 5.4653 5.4643 5.4653 3.0095 0 5.4653-2.4558 5.4653-5.4653s-2.4558-5.4643-5.4653-5.4643z" style="-inkscape-stroke:none;color:#000000;fill:#999999;paint-order:fill markers stroke;stroke-miterlimit:1.5;stroke-width:.29108"/>
  <path id="path1274" d="m87.846 4.4169a4.7373 4.7373 0 01-4.7373 4.7373 4.7373 4.7373 0 01-4.7373-4.7373 4.7373 4.7373 0 014.7373-4.7373 4.7373 4.7373 0 014.7373 4.7373z" style="-inkscape-stroke:none;color:#000000;fill:#b3b3b3;paint-order:fill markers stroke;stroke-miterlimit:1.5;stroke-width:1.455"/>
  <path id="path1199-4" d="m82.882 6.2798h2.6434v1.1386h-4.3653v-1.1386l2.1928-1.9353q.2937-.26554.43452-.51902t.14082-.52706q0-.42247-.28566-.67996-.28164-.2575-.75238-.2575-.3621 0-.79261.15691-.43051.15289-.92136.45868v-1.3197q.52304-.17301 1.034-.26152.51096-.092537 1.0018-.092537 1.0783 0 1.6737.47475.59948.47475.59948 1.3237 0 .49085-.25347.91734-.25348.42247-1.0662 1.1346z" style="clip-rule:evenodd;fill-rule:evenodd;fill:#e6e6e6;stroke-linejoin:round;stroke-miterlimit:1.5;stroke-width:.206"/>
 </g>
 <g id="container2" transform="translate(-48.422 12.586)">
  <path id="path1471" d="m99.295-1.0487c-3.0095 0-5.4648 2.4553-5.4648 5.4648s2.4553 5.4648 5.4648 5.4648 5.4648-2.4553 5.4648-5.4648-2.4553-5.4648-5.4648-5.4648z" style="-inkscape-stroke:none;clip-rule:evenodd;color:#000000;fill-rule:evenodd;fill:#999999;paint-order:fill markers stroke;stroke-linejoin:round;stroke-miterlimit:1.5"/>
  <path id="path1268" d="m104.03 4.4169a4.7373 4.7373 0 01-4.7373 4.7373 4.7373 4.7373 0 01-4.7373-4.7373 4.7373 4.7373 0 014.7373-4.7373 4.7373 4.7373 0 014.7373 4.7373z" style="-inkscape-stroke:none;clip-rule:evenodd;color:#000000;fill-rule:evenodd;fill:#b3b3b3;paint-order:fill markers stroke;stroke-linejoin:round;stroke-miterlimit:1.5;stroke-width:1.455"/>
  <path id="path1194-9" d="m100.41 3.9482q.60754.15692.92135.54717.31786.38626.31786.98574 0 .89321-.68398 1.3599-.68398.4627-1.9956.4627-.4627 0-.92942-.076443-.4627-.072421-.91734-.22129v-1.1949q.43452.21727.86101.32991.43051.10863.84492.10863.61558 0 .94147-.21324.32991-.21324.32991-.61156 0-.41039-.33797-.61959-.33396-.21324-.98976-.21324h-.61959v-.99779h.65179q.58338 0 .86905-.18105.28566-.18508.28566-.55925 0-.34601-.27762-.53512-.27761-.18911-.78458-.1891-.37418 0-.7564.084489-.38222.084492-.76042.24945v-1.1346q.45868-.12875.90928-.19312.45062-.064375.88514-.064375 1.1708 0 1.7502.38626.58338.38222.58338 1.1547 0 .52706-.27761.86503-.27762.33393-.82079.47073z" style="clip-rule:evenodd;fill-rule:evenodd;fill:#e6e6e6;stroke-linejoin:round;stroke-miterlimit:1.5;stroke-width:.206"/>
 </g>
 <g id="container3" transform="translate(-48.422 12.586)">
  <path id="path1497" d="m115.48-1.0487c-3.0095 0-5.4648 2.4553-5.4648 5.4648s2.4553 5.4648 5.4648 5.4648 5.4627-2.4553 5.4627-5.4648-2.4532-5.4648-5.4627-5.4648z" style="-inkscape-stroke:none;clip-rule:evenodd;color:#000000;fill-rule:evenodd;fill:#999999;paint-order:fill markers stroke;stroke-linejoin:round;stroke-miterlimit:1.5"/>
  <path id="path1262" d="m120.22 4.4169a4.7373 4.7373 0 01-4.7373 4.7373 4.7373 4.7373 0 01-4.7373-4.7373 4.7373 4.7373 0 014.7373-4.7373 4.7373 4.7373 0 014.7373 4.7373z" style="-inkscape-stroke:none;clip-rule:evenodd;color:#000000;fill-rule:evenodd;fill:#b3b3b3;paint-order:fill markers stroke;stroke-linejoin:round;stroke-miterlimit:1.5;stroke-width:1.455"/>
  <path id="path1189-3" d="m115.41 2.455-1.6979 2.5146h1.6979zm-.2575-1.2754h1.722v3.7902h.857v1.1225h-.857v1.0944h-1.4645v-1.0944h-2.6635v-1.3277z" style="clip-rule:evenodd;fill-rule:evenodd;fill:#e6e6e6;stroke-linejoin:round;stroke-miterlimit:1.5;stroke-width:.206"/>
 </g>
 <g id="container4" transform="translate(-48.422 12.586)">
  <path id="path1521" d="m131.67-1.0508c-3.0095 0-5.4648 2.4553-5.4648 5.4648s2.4553 5.4648 5.4648 5.4648 5.4648-2.4553 5.4648-5.4648-2.4553-5.4648-5.4648-5.4648z" style="-inkscape-stroke:none;clip-rule:evenodd;color:#000000;fill-rule:evenodd;fill:#999999;paint-order:fill markers stroke;stroke-linejoin:round;stroke-miterlimit:1.5"/>
  <path id="path1256" d="m136.41 4.415a4.7373 4.7373 0 01-4.7373 4.7373 4.7373 4.7373 0 01-4.7373-4.7373 4.7373 4.7373 0 014.7373-4.7373 4.7373 4.7373 0 014.7373 4.7373z" style="-inkscape-stroke:none;clip-rule:evenodd;color:#000000;fill-rule:evenodd;fill:#b3b3b3;paint-order:fill markers stroke;stroke-linejoin:round;stroke-miterlimit:1.5;stroke-width:1.455"/>
  <path id="path1209-4" d="m129.9 1.411h3.8504v1.1386h-2.6152v.92942q.17703-.048281.35407-.072421.18105-.028177.37418-.028177 1.0984 0 1.71.55122.61156.54717.61156 1.5289 0 .97366-.66788 1.5249-.66387.55122-1.8468.55122-.51096 0-1.0139-.10059-.49891-.09656-.99377-.29772v-1.2191q.49084.28164.92941.42247.44259.14082.83284.14082.56327 0 .88515-.27359.32589-.27761.32589-.74837 0-.47475-.32589-.74837-.32188-.27359-.88515-.27359-.33395 0-.71215.088518-.3782.084492-.81273.26554z" style="clip-rule:evenodd;fill-rule:evenodd;fill:#e6e6e6;stroke-linejoin:round;stroke-miterlimit:1.5;stroke-width:.206"/>
 </g>
 <g id="container5" transform="translate(-48.422 12.586)">
  <path id="path1545" d="m147.85-1.0508c-3.0095 0-5.4648 2.4553-5.4648 5.4648s2.4552 5.4648 5.4648 5.4648c3.0095 0 5.4648-2.4553 5.4648-5.4648s-2.4553-5.4648-5.4648-5.4648z" style="-inkscape-stroke:none;clip-rule:evenodd;color:#000000;fill-rule:evenodd;fill:#999999;paint-order:fill markers stroke;stroke-linejoin:round;stroke-miterlimit:1.5"/>
  <path id="path1250" d="m152.59 4.415a4.7373 4.7373 0 01-4.7373 4.7373 4.7373 4.7373 0 01-4.7373-4.7373 4.7373 4.7373 0 014.7373-4.7373 4.7373 4.7373 0 014.7373 4.7373z" style="-inkscape-stroke:none;clip-rule:evenodd;color:#000000;fill-rule:evenodd;fill:#b3b3b3;paint-order:fill markers stroke;stroke-linejoin:round;stroke-miterlimit:1.5;stroke-width:1.455"/>
  <path id="path1204-7" d="m147.84 4.2985q-.40637 0-.61156.26554-.20117.26152-.20117.78859t.20117.79261q.2052.26152.61156.26152.4104 0 .61156-.26152.2052-.26554.2052-.79261t-.2052-.78859q-.20117-.26554-.61156-.26554zm1.9151-2.8848v1.1105q-.38222-.18105-.72019-.26555-.33798-.088515-.65985-.088515-.69202 0-1.0783.38623-.38626.38222-.45062 1.1386.26554-.19715.57535-.2937.30979-.10059.67594-.10059.92136 0 1.4846.53914.56731.53914.56731 1.4122 0 .96563-.63167 1.549-.63167.57937-1.6938.57937-1.1708 0-1.8146-.78859-.63973-.79261-.63973-2.2451 0-1.4887.74836-2.3376.75239-.85295 2.06-.85295.41441 0 .80469.064375t.7725.19312z" style="clip-rule:evenodd;fill-rule:evenodd;fill:#e6e6e6;stroke-linejoin:round;stroke-miterlimit:1.5;stroke-width:.206"/>
 </g>
 <g id="draggable0" transform="matrix(.26458 0 0 .26458 -112.86 -82.989)" style="clip-rule:evenodd;fill-rule:evenodd;stroke-linejoin:round;stroke-miterlimit:1.5">
  <circle id="path1770-8-3-1-3" cx="496.49" cy="377.92" r="16.275" style="clip-rule:evenodd;fill-rule:evenodd;fill:#ffae00;paint-order:fill markers stroke;stop-color:#000000;stroke-linejoin:round;stroke-miterlimit:1.5;stroke-width:2.6948;stroke:#000000"/>
  <path id="path1214" d="m490.46 384.29h4.6996v-13.339l-4.824.99521v-3.6215l4.7964-.99521h5.059v16.96h4.6996v3.6768h-14.431z" style="stroke-width:.7077"/>
 </g>
 <g id="draggable1" transform="matrix(.26458 0 0 .26458 -74.615 -95.275)" style="clip-rule:evenodd;fill-rule:evenodd;stroke-linejoin:round;stroke-miterlimit:1.5">
  <circle id="path1770" cx="413.11" cy="424.34" r="16.275" style="fill:#ffae00;paint-order:fill markers stroke;stop-color:#000000;stroke-miterlimit:1.5;stroke-width:2.6948;stroke:#000000"/>
  <path id="path1199" d="m411.92 430.74h9.0813v3.9117h-14.997v-3.9117l7.5332-6.6486q1.009-.91227 1.4928-1.7831.48378-.87081.48378-1.8107 0-1.4514-.98139-2.336-.96756-.88463-2.5848-.88463-1.244 0-2.723.53907-1.479.52525-3.1653 1.5758v-4.5337q1.7969-.59436 3.5524-.89845 1.7554-.31791 3.4418-.31791 3.7044 0 5.7501 1.631 2.0595 1.631 2.0595 4.5476 0 1.6863-.8708 3.1515-.87081 1.4514-3.6629 3.8979z" style="stroke-width:.7077"/>
 </g>
 <g id="draggable2" transform="matrix(.26458 0 0 .26458 -58.428 -95.275)" style="clip-rule:evenodd;fill-rule:evenodd;stroke-linejoin:round;stroke-miterlimit:1.5">
  <circle id="path1770-8" cx="413.11" cy="424.34" r="16.275" style="fill:#ffae00;paint-order:fill markers stroke;stop-color:#000000;stroke-miterlimit:1.5;stroke-width:2.6948;stroke:#000000"/>
  <path id="path1194" d="m416.95 422.73q2.0872.53908 3.1653 1.8798 1.092 1.327 1.092 3.3865 0 3.0686-2.3498 4.672-2.3498 1.5896-6.8559 1.5896-1.5896 0-3.193-.26262-1.5896-.2488-3.1515-.76023v-4.1052q1.4928.74641 2.958 1.1334 1.479.37321 2.9027.37321 2.1148 0 3.2344-.73259 1.1334-.73259 1.1334-2.101 0-1.4099-1.1611-2.1286-1.1473-.73259-3.4003-.73259h-2.1286v-3.4279h2.2392q2.0042 0 2.9856-.62201.98138-.63583.98138-1.9213 0-1.1887-.95374-1.8384t-2.6954-.64965q-1.2855 0-2.5986.29026-1.3131.29027-2.6124.85699v-3.8979q1.5758-.44231 3.1238-.66347 1.5481-.22116 3.0409-.22116 4.0223 0 6.0127 1.327 2.0042 1.3131 2.0042 3.967 0 1.8107-.95374 2.9718-.95374 1.1472-2.8198 1.6172z" style="stroke-width:.7077"/>
 </g>
 <g id="draggable3" transform="matrix(.26458 0 0 .26458 -42.242 -95.275)" style="clip-rule:evenodd;fill-rule:evenodd;stroke-linejoin:round;stroke-miterlimit:1.5">
  <circle id="path1770-8-3" cx="413.11" cy="424.34" r="16.275" style="fill:#ffae00;paint-order:fill markers stroke;stop-color:#000000;stroke-miterlimit:1.5;stroke-width:2.6948;stroke:#000000"/>
  <path id="path1189" d="m412.86 417.6-5.833 8.639h5.833zm-.88463-4.3817h5.916v13.021h2.9442v3.8564h-2.9442v3.7597h-5.0313v-3.7597h-9.1504v-4.5614z" style="stroke-width:.7077"/>
 </g>
 <g id="draggable4" transform="matrix(.26458 0 0 .26458 -48.116 -82.989)" style="clip-rule:evenodd;fill-rule:evenodd;stroke-linejoin:round;stroke-miterlimit:1.5">
  <circle id="path1770-8-3-1" cx="496.49" cy="377.92" r="16.275" style="clip-rule:evenodd;fill-rule:evenodd;fill:#ffae00;paint-order:fill markers stroke;stop-color:#000000;stroke-linejoin:round;stroke-miterlimit:1.5;stroke-width:2.6948;stroke:#000000"/>
  <path id="path1209" d="m490.41 367.6h13.228v3.9117h-8.9845v3.193q.60818-.16587 1.2164-.2488.622-.0968 1.2855-.0968 3.7735 0 5.8745 1.8937 2.101 1.8798 2.101 5.2525 0 3.345-2.2945 5.2387-2.2807 1.8937-6.3445 1.8937-1.7554 0-3.4832-.34556-1.714-.33173-3.4141-1.0228v-4.1882q1.6863.96757 3.193 1.4514 1.5205.48378 2.8612.48378 1.9351 0 3.0409-.93992 1.1196-.95374 1.1196-2.571 0-1.631-1.1196-2.571-1.1058-.93992-3.0409-.93992-1.1473 0-2.4466.3041-1.2993.29027-2.7921.91227z" style="stroke-width:.7077"/>
 </g>
 <g id="draggable5" transform="matrix(.26458 0 0 .26458 -31.93 -82.989)" style="clip-rule:evenodd;fill-rule:evenodd;stroke-linejoin:round;stroke-miterlimit:1.5">
  <circle id="path1770-8-3-1-5" cx="496.49" cy="377.92" r="16.275" style="clip-rule:evenodd;fill-rule:evenodd;fill:#ffae00;paint-order:fill markers stroke;stop-color:#000000;stroke-linejoin:round;stroke-miterlimit:1.5;stroke-width:2.6948;stroke:#000000"/>
  <path id="path1204" d="m496.37 377.52q-1.3961 0-2.101.91227-.69112.89846-.69112 2.7092t.69112 2.723q.70494.89846 2.101.89846 1.4099 0 2.101-.89846.70494-.91227.70494-2.723t-.70494-2.7092q-.69112-.91227-2.101-.91227zm6.5794-9.9106v3.815q-1.3131-.62201-2.4742-.91228-1.1611-.30409-2.2669-.30409-2.3774 0-3.7044 1.3269-1.327 1.3131-1.5481 3.9117.91228-.67729 1.9766-1.009 1.0643-.34556 2.3222-.34556 3.1653 0 5.1004 1.8522 1.949 1.8522 1.949 4.8516 0 3.3174-2.1701 5.3216-2.1701 1.9904-5.8192 1.9904-4.0223 0-6.2339-2.7092-2.1978-2.723-2.1978-7.7129 0-5.1143 2.571-8.0308 2.5848-2.9303 7.077-2.9303 1.4237 0 2.7645.22116t2.6539.66347z" style="stroke-width:.7077"/>
 </g>
</svg>
