<?xml version="1.0" encoding="UTF-8"?>
<svg id="svg1069" width="65.475mm" height="23.643mm" version="1.1" viewBox="0 0 65.475 23.643" xmlns="http://www.w3.org/2000/svg" xmlns:cc="http://creativecommons.org/ns#" xmlns:dc="http://purl.org/dc/elements/1.1/" xmlns:rdf="http://www.w3.org/1999/02/22-rdf-syntax-ns#">
 <metadata id="metadata1066">
  <rdf:RDF>
   <cc:Work rdf:about="">
    <dc:format>image/svg+xml</dc:format>
    <dc:type rdf:resource="http://purl.org/dc/dcmitype/StillImage"/>
   </cc:Work>
  </rdf:RDF>
 </metadata>
 <g id="layer1" transform="translate(-50.345 -69.263)">
  <path id="path946-2" d="m85.229 69.932c-1.8296-.05026-3.7693.51706-5.4162 1.1023-3.2645 1.1391-6.3199 3.0095-8.5964 5.6369-.65771.69769-1.0934 1.4965-1.3358 2.3415-4.2269-1.9377-9.0657-1.626-13.591-1.3322-2.5829.44922-5.9244 2.1194-5.4679 5.2508.67095 4.7192 5.4587 7.2934 9.6785 8.2858 3.6706 1.0245 8.3989 1.3039 11.116-1.8784.53338-.68108.94469-1.489 1.219-2.3508.71206.53056 1.516.92666 2.3844 1.1343 4.648 1.5854 10.457.50125 13.799-3.1605.67435 4.7018 5.7552 7.2597 10.127 7.2202 5.3157.3312 11.392-.67929 15.004-4.9413 2.4608-3.9192 1.1952-10.204-3.2784-12.047-4.53-1.4618-9.1493.63598-13.371 2.1637-.88088.35224-1.7593.71064-2.6432 1.0552-1.3126.65069-2.7205 1.47-3.8266 2.5296.65726-3.2422-.06408-6.778-1.9208-9.4899-1.1008-1.0686-2.4573-1.4812-3.8804-1.5203z" style="clip-rule:evenodd;fill:#546821;stroke-linecap:round;stroke-linejoin:round;stroke-width:.26458"/>
  <path id="path946" d="m69.88 79.012c-4.2899-2.1319-8.7435-1.5591-13.379-1.2582-2.5655.44619-5.8845 2.1054-5.431 5.2157.66643 4.6874 5.4217 7.2441 9.6131 8.2298 3.6458 1.0176 8.4789 1.4066 11.042-1.8657.50973-.65088.8835-1.4301 1.1163-2.269" fill="#546821" fill-rule="evenodd" stroke="#010101" stroke-linecap="round" stroke-linejoin="round" stroke-width="1.3229" style="clip-rule:evenodd;fill:none"/>
  <path id="path948" d="m71.23 85.558c-.68037 2.8211-3.4682 5.2844-6.463 4.574-4.4076-.29044-9.4318-1.5828-11.814-5.6654-1.0938-2.9589 2.3702-5.1087 4.959-5.1 1.2299-.11667 2.4668-.03034 3.699-.0919v5e-6c2.5566.14822 5.5073-.04111 7.7398 1.3309" fill="#546821" fill-rule="evenodd" stroke="#010101" stroke-linecap="round" stroke-linejoin="round" stroke-width="1.3229" style="clip-rule:evenodd;fill:none"/>
  <path id="path950" d="m60.319 82.536c1.3861.35754 4.1881.58554 4.7073.89312-1.1227.44217-1.513 4.2186-2.6668 1.8334-.6079-1.3778-3.0725-2.2009-3.447-2.9382.47493.02537.93631.15026 1.4065.21161z" fill="#7f9d33" fill-rule="evenodd" stroke="#010101" stroke-linecap="round" stroke-linejoin="round" stroke-width="1.3229" style="clip-rule:evenodd"/>
  <path id="path952" d="m58.114 83.902c-.93957-1.5574-4.2919.48812-1.451.81121.45061.07151 1.5508-.17718 1.451-.81121z" fill="#7f9d33" fill-rule="evenodd" stroke="#010101" stroke-linecap="round" stroke-linejoin="round" stroke-width="1.3229" style="clip-rule:evenodd"/>
  <path id="path954" d="m60.067 85.661c-1.6015-.10953-1.5993 2.0597.05917 1.0594.42148-.21603.74719-1.1627-.05917-1.0594z" fill="#7f9d33" fill-rule="evenodd" stroke="#010101" stroke-linecap="round" stroke-linejoin="round" stroke-width="1.3229" style="clip-rule:evenodd"/>
  <path id="path956" d="m65.922 86.193c-1.2259 1.4754 2.51 2.3469 1.2923.40895-.3223-.32643-.82907-.5879-1.2923-.40895z" fill="#7f9d33" fill-rule="evenodd" stroke="#010101" stroke-linecap="round" stroke-linejoin="round" stroke-width="1.3229" style="clip-rule:evenodd"/>
  <path id="path958" d="m67.37 84.906c.60803 1.5879 2.9415-.37458.93566-.64625-.32521.07096-.97731.20884-.93566.64625z" fill="#7f9d33" fill-rule="evenodd" stroke="#010101" stroke-linecap="round" stroke-linejoin="round" stroke-width="1.3229" style="clip-rule:evenodd"/>
  <path id="path960" d="m64.252 81.663c1.4487.82404 2.6022-2.2417.41988-1.127-.45846.11288-1.2924.86781-.41988 1.127z" fill="#7f9d33" fill-rule="evenodd" stroke="#010101" stroke-linecap="round" stroke-linejoin="round" stroke-width="1.3229" style="clip-rule:evenodd"/>
  <path id="path962" d="m61.597 81.031c-1.6461.04265-.92272-2.344.37356-.74589.31336.30176.02561.76159-.37356.74589z" fill="#7f9d33" fill-rule="evenodd" stroke="#010101" stroke-linecap="round" stroke-linejoin="round" stroke-width="1.3229" style="clip-rule:evenodd"/>
  <path id="path968" d="m71.327 76.752c-3.487 3.6989-.68186 10.26 3.9764 11.374 5.3102 1.8113 12.149.11618 15.025-4.9502 1.6041-3.7276 1.043-8.2884-1.2293-11.607-2.4991-2.426-6.3257-1.4486-9.2337-.41527-3.2425 1.1314-6.2775 2.9892-8.5387 5.5988z" fill="#546821" fill-rule="evenodd" stroke="#010101" stroke-linecap="round" stroke-linejoin="round" stroke-width="1.3229" style="clip-rule:evenodd;fill:none"/>
  <path id="path970" d="m76.142 75.49c2.9621-1.7663 6.189-3.6847 9.7738-3.4114 3.4845 1.5049 3.949 6.0423 2.9551 9.2697-1.1103 3.6002-5.0806 5.0289-8.4753 5.4685-3.4784.54803-7.9492-.90255-8.8291-4.6977-.60973-3.1173 2.3951-5.0884 4.5756-6.629z" fill="#546821" fill-rule="evenodd" stroke="#010101" stroke-linecap="round" stroke-linejoin="round" stroke-width="1.3229" style="clip-rule:evenodd;fill:none"/>
  <path id="path972" d="m78.414 78.587c1.3791-.19284 3.982-1.3399 4.5395-1.09-1.0616.95233.32623 5.2529-1.6005 3.5156-1.0825-1.3645-3.1178-1.3272-4.3282-1.9936.41682-.24755.93822-.26183 1.3892-.43192z" fill="#7f9d33" fill-rule="evenodd" stroke="#010101" stroke-linecap="round" stroke-linejoin="round" stroke-width="1.3229" style="clip-rule:evenodd"/>
  <path id="path974" d="m76.929 81.215c-1.4224-1.3009-3.7061 2.4681-1.008 1.6256.53728-.19515 1.3102-1.0108 1.008-1.6256z" fill="#7f9d33" fill-rule="evenodd" stroke="#010101" stroke-linecap="round" stroke-linejoin="round" stroke-width="1.3229" style="clip-rule:evenodd"/>
  <path id="path976" d="m79.29 82.373c-1.4896.59662-.69195 3.1027.42581 1.216.2395-.34599.35247-1.6889-.42581-1.216z" fill="#7f9d33" fill-rule="evenodd" stroke="#010101" stroke-linecap="round" stroke-linejoin="round" stroke-width="1.3229" style="clip-rule:evenodd"/>
  <path id="path978" d="m84.697 80.28c-.72928 1.761 2.7125 2.0852 1.5755.11857-.3674-.44069-1.178-.62768-1.5755-.11857z" fill="#7f9d33" fill-rule="evenodd" stroke="#010101" stroke-linecap="round" stroke-linejoin="round" stroke-width="1.3229" style="clip-rule:evenodd"/>
  <path id="path980" d="m85.535 78.098c1.5448 1.6252 2.2319-2.2759.40064-1.0187-.2112.27139-.57956.64642-.40064 1.0187z" fill="#7f9d33" fill-rule="evenodd" stroke="#010101" stroke-linecap="round" stroke-linejoin="round" stroke-width="1.3229" style="clip-rule:evenodd"/>
  <path id="path982" d="m81.612 75.737c1.6871.10382 1.498-3.6579-.02252-1.5179-.32888.38406-.90126 1.5214.02252 1.5179z" fill="#7f9d33" fill-rule="evenodd" stroke="#010101" stroke-linecap="round" stroke-linejoin="round" stroke-width="1.3229" style="clip-rule:evenodd"/>
  <path id="path984" d="m79.023 76.227c-1.4667.77239-1.6978-2.2391.07021-1.0487.38767.25148.30144.82488-.07021 1.0487z" fill="#7f9d33" fill-rule="evenodd" stroke="#010101" stroke-linecap="round" stroke-linejoin="round" stroke-width="1.3229" style="clip-rule:evenodd"/>
  <path id="path990" d="m89.004 84.951c.64931 4.6927 5.7113 7.2459 10.064 7.2065 5.2799.32897 11.316-.67476 14.903-4.9081 2.4442-3.8928 1.1872-10.135-3.2562-11.966-4.4994-1.452-9.0875.63197-13.28 2.1494-.87495.34986-1.7476.70557-2.6256 1.0478-1.2291.6093-2.5422 1.3677-3.6091 2.3343" fill="#546821" fill-rule="evenodd" stroke="#010101" stroke-linecap="round" stroke-linejoin="round" stroke-width="1.3229" style="clip-rule:evenodd;fill:none"/>
  <path id="path992" d="m109.11 76.848c5.0322 1.6996 4.8627 10.013-.0516 11.757-4.6357 1.8856-10.116 2.6486-14.843.68289-3.0728-1.0377-4.0622-5.556-1.061-7.2842 4.5111-2.6988 11.594-5.5765 15.956-5.1558z" fill="#546821" fill-rule="evenodd" stroke="#010101" stroke-linecap="round" stroke-linejoin="round" stroke-width="1.3229" style="clip-rule:evenodd;fill:none"/>
  <path id="path994" d="m99.589 82.798c1.6868-.19116 4.7145-1.1876 5.5297-1.0252-1.2175.83958.23187 4.7687-1.7767 3.4009-1.4285-1.0503-3.1291-1.679-4.9097-1.6781-1.4853-.31066.92919-.60062 1.1567-.69757z" fill="#7f9d33" fill-rule="evenodd" stroke="#010101" stroke-linecap="round" stroke-linejoin="round" stroke-width="1.3229" style="clip-rule:evenodd"/>
  <path id="path996" d="m97.782 85.226c-1.2974-1.2288-4.5014 1.9827-1.5723 1.5479.65551.0053 1.9442-.77133 1.5723-1.5479z" fill="#7f9d33" fill-rule="evenodd" stroke="#010101" stroke-linecap="round" stroke-linejoin="round" stroke-width="1.3229" style="clip-rule:evenodd"/>
  <path id="path998" d="m100.65 86.295c-1.4001.36699-1.2947 2.6034.22301 1.4779.55469-.30581.86045-1.9836-.22301-1.4779z" fill="#7f9d33" fill-rule="evenodd" stroke="#010101" stroke-linecap="round" stroke-linejoin="round" stroke-width="1.3229" style="clip-rule:evenodd"/>
  <path id="path1000" d="m107.23 84.362c-.70822 2.1043 3.7326 1.4856 1.5774-.11079-.48971-.21586-1.1516-.28198-1.5774.11079z" fill="#7f9d33" fill-rule="evenodd" stroke="#010101" stroke-linecap="round" stroke-linejoin="round" stroke-width="1.3229" style="clip-rule:evenodd"/>
  <path id="path1002" d="m108.25 82.346c1.3491 1.4422 3.0239-1.6296.73817-1.102-.32223.21642-.9709.64534-.73817 1.102z" fill="#7f9d33" fill-rule="evenodd" stroke="#010101" stroke-linecap="round" stroke-linejoin="round" stroke-width="1.3229" style="clip-rule:evenodd"/>
  <path id="path1004" d="m103.48 80.165c1.7527.33127 1.9853-3.2718.16656-1.577-.48462.3297-1.3709 1.6135-.16656 1.577z" fill="#7f9d33" fill-rule="evenodd" stroke="#010101" stroke-linecap="round" stroke-linejoin="round" stroke-width="1.3229" style="clip-rule:evenodd"/>
  <path id="path1006" d="m100.33 80.618c-1.4018.77499-2.3728-1.8035-.23967-1.1089.61035.10144.92703.79522.23967 1.1089z" fill="#7f9d33" fill-rule="evenodd" stroke="#010101" stroke-linecap="round" stroke-linejoin="round" stroke-width="1.3229" style="clip-rule:evenodd"/>
 </g>
</svg>
