<?xml version="1.0" encoding="UTF-8" standalone="no"?>
<svg
   xmlns:dc="http://purl.org/dc/elements/1.1/"
   xmlns:cc="http://creativecommons.org/ns#"
   xmlns:rdf="http://www.w3.org/1999/02/22-rdf-syntax-ns#"
   xmlns:svg="http://www.w3.org/2000/svg"
   xmlns="http://www.w3.org/2000/svg"
   xmlns:sodipodi="http://sodipodi.sourceforge.net/DTD/sodipodi-0.dtd"
   xmlns:inkscape="http://www.inkscape.org/namespaces/inkscape"
   sodipodi:docname="answer-explanation-0.svg"
   inkscape:version="1.0 (4035a4f, 2020-05-01)"
   id="svg1190"
   version="1.1"
   viewBox="0 0 80.155548 80.155502"
   height="80.155502mm"
   width="80.155548mm">
  <defs
     id="defs1184" />
  <sodipodi:namedview
     inkscape:document-rotation="0"
     fit-margin-bottom="-4.37723"
     fit-margin-right="0"
     fit-margin-left="40.07777"
     fit-margin-top="40.07777"
     inkscape:window-maximized="1"
     inkscape:window-y="25"
     inkscape:window-x="0"
     inkscape:window-height="847"
     inkscape:window-width="1440"
     showgrid="false"
     inkscape:current-layer="g2040"
     inkscape:document-units="mm"
     inkscape:cy="151.47497"
     inkscape:cx="151.47505"
     inkscape:zoom="2.1092594"
     inkscape:pageshadow="2"
     inkscape:pageopacity="0.0"
     borderopacity="1.0"
     bordercolor="#666666"
     pagecolor="#ffffff"
     id="base" />
  <metadata
     id="metadata1187">
    <rdf:RDF>
      <cc:Work
         rdf:about="">
        <dc:format>image/svg+xml</dc:format>
        <dc:type
           rdf:resource="http://purl.org/dc/dcmitype/StillImage" />
        <dc:title></dc:title>
      </cc:Work>
    </rdf:RDF>
  </metadata>
  <g
     transform="translate(-20.868617,-57.797668)"
     id="layer1"
     inkscape:groupmode="layer"
     inkscape:label="Laag 1">
    <g
       id="g2040">
      <rect
         style="opacity:1;fill:#e9ddaf;fill-opacity:1;stroke:#786721;stroke-width:0.6;stroke-linecap:butt;stroke-linejoin:round;stroke-miterlimit:4;stroke-dasharray:none;stroke-dashoffset:0;stroke-opacity:1"
         id="rect815"
         width="39.477776"
         height="39.477776"
         x="61.246387"
         y="98.175438"
         ry="4.9136906"
         rx="4.9136906" />
      <path
         style="opacity:1;fill:#00ffff;fill-opacity:1;stroke:none;stroke-width:0.439638;stroke-linecap:butt;stroke-linejoin:round;stroke-miterlimit:4;stroke-dasharray:none;stroke-dashoffset:0;stroke-opacity:1"
         d="m 100.45626,110.14255 v 15.54356 l -7.771785,-7.77178 z"
         id="rect821"
         inkscape:connector-curvature="0"
         sodipodi:nodetypes="cccc" />
      <path
         style="opacity:1;fill:#00ffff;fill-opacity:1;stroke:none;stroke-width:0.439638;stroke-linecap:butt;stroke-linejoin:round;stroke-miterlimit:4;stroke-dasharray:none;stroke-dashoffset:0;stroke-opacity:1"
         d="m 73.213494,98.486399 15.543562,-2e-6 -7.771782,7.771783 z"
         id="rect821-0"
         inkscape:connector-curvature="0"
         sodipodi:nodetypes="cccc" />
      <path
         sodipodi:arc-type="slice"
         style="opacity:1;fill:#008000;fill-opacity:1;stroke:none;stroke-width:0.6;stroke-linecap:butt;stroke-linejoin:round;stroke-miterlimit:4;stroke-dasharray:none;stroke-dashoffset:0;stroke-opacity:1"
         id="path819-7-9"
         sodipodi:type="arc"
         sodipodi:cx="80.985275"
         sodipodi:cy="-137.3304"
         sodipodi:rx="5"
         sodipodi:ry="5"
         sodipodi:start="0"
         sodipodi:end="3.1415927"
         d="m 85.985275,-137.3304 a 5,5 0 0 1 -2.5,4.33013 5,5 0 0 1 -5,0 5,5 0 0 1 -2.5,-4.33013 h 5 z"
         transform="scale(1,-1)" />
      <g
         id="g2025">
        <rect
           y="111.59945"
           x="61.478386"
           height="5"
           width="5"
           id="rect1899"
           style="opacity:1;fill:#ff6600;fill-opacity:1;stroke:none;stroke-width:0.6;stroke-linecap:butt;stroke-linejoin:round;stroke-miterlimit:4;stroke-dasharray:none;stroke-dashoffset:0;stroke-opacity:1" />
        <rect
           y="119.2292"
           x="61.478386"
           height="5"
           width="5"
           id="rect1899-4"
           style="opacity:1;fill:#ff6600;fill-opacity:1;stroke:none;stroke-width:0.6;stroke-linecap:butt;stroke-linejoin:round;stroke-miterlimit:4;stroke-dasharray:none;stroke-dashoffset:0;stroke-opacity:1" />
      </g>
      <g
         id="g2051"
         transform="rotate(180,86.589222,117.91433)">
        <rect
           style="opacity:1;fill:#e9ddaf;fill-opacity:1;stroke:#786721;stroke-width:0.6;stroke-linecap:butt;stroke-linejoin:round;stroke-miterlimit:4;stroke-dasharray:none;stroke-dashoffset:0;stroke-opacity:1"
           id="rect815-3"
           width="39.477776"
           height="39.477776"
           x="-152.00983"
           y="98.175438"
           ry="4.9136906"
           rx="4.9136906"
           transform="scale(-1,1)" />
        <rect
           style="opacity:1;fill:#ff0000;fill-opacity:1;stroke:none;stroke-width:0.6;stroke-linecap:butt;stroke-linejoin:round;stroke-miterlimit:4;stroke-dasharray:none;stroke-dashoffset:0;stroke-opacity:1"
           id="rect817-6"
           width="5"
           height="10"
           x="-151.68649"
           y="112.91432"
           transform="scale(-1,1)" />
        <rect
           style="opacity:1;fill:#ff00ff;fill-opacity:1;stroke:none;stroke-width:0.6;stroke-linecap:butt;stroke-linejoin:round;stroke-miterlimit:4;stroke-dasharray:none;stroke-dashoffset:0;stroke-opacity:1"
           id="rect1935"
           width="7.9375"
           height="7.9375"
           x="182.69943"
           y="-4.3599205"
           transform="rotate(45)"
           inkscape:transform-center-x="-29.104167"
           inkscape:transform-center-y="12.851187" />
        <g
           id="g2029">
          <rect
             y="111.59945"
             x="112.78539"
             height="5"
             width="5"
             id="rect1899-6-2"
             style="opacity:1;fill:#ff6600;fill-opacity:1;stroke:none;stroke-width:0.6;stroke-linecap:butt;stroke-linejoin:round;stroke-miterlimit:4;stroke-dasharray:none;stroke-dashoffset:0;stroke-opacity:1" />
          <rect
             y="119.2292"
             x="112.78539"
             height="5"
             width="5"
             id="rect1899-4-7-9"
             style="opacity:1;fill:#ff6600;fill-opacity:1;stroke:none;stroke-width:0.6;stroke-linecap:butt;stroke-linejoin:round;stroke-miterlimit:4;stroke-dasharray:none;stroke-dashoffset:0;stroke-opacity:1" />
        </g>
        <rect
           style="opacity:1;fill:#ff0000;fill-opacity:1;stroke:none;stroke-width:0.6;stroke-linecap:butt;stroke-linejoin:round;stroke-miterlimit:4;stroke-dasharray:none;stroke-dashoffset:0;stroke-opacity:1"
           id="rect817-7"
           width="5"
           height="10"
           x="-103.4864"
           y="127.27094"
           transform="rotate(-90)" />
      </g>
      <g
         id="g2071"
         transform="matrix(-1.0000056,0,0,-0.99999998,275.75124,195.75083)">
        <rect
           style="opacity:1;fill:#e9ddaf;fill-opacity:1;stroke:#786721;stroke-width:0.6;stroke-linecap:butt;stroke-linejoin:round;stroke-miterlimit:4;stroke-dasharray:none;stroke-dashoffset:0;stroke-opacity:1"
           id="rect815-3-7"
           width="39.477776"
           height="39.477776"
           x="215.10341"
           y="-137.65321"
           ry="4.9136906"
           rx="4.9136906"
           transform="scale(1,-1)" />
        <path
           style="color:#000000;font-style:normal;font-variant:normal;font-weight:normal;font-stretch:normal;font-size:medium;line-height:normal;font-family:sans-serif;font-variant-ligatures:normal;font-variant-position:normal;font-variant-caps:normal;font-variant-numeric:normal;font-variant-alternates:normal;font-feature-settings:normal;text-indent:0;text-align:start;text-decoration:none;text-decoration-line:none;text-decoration-style:solid;text-decoration-color:#000000;letter-spacing:normal;word-spacing:normal;text-transform:none;writing-mode:lr-tb;direction:ltr;text-orientation:mixed;dominant-baseline:auto;baseline-shift:baseline;text-anchor:start;white-space:normal;shape-padding:0;clip-rule:nonzero;display:inline;overflow:visible;visibility:visible;opacity:1;isolation:auto;mix-blend-mode:normal;color-interpolation:sRGB;color-interpolation-filters:linearRGB;solid-color:#000000;solid-opacity:1;vector-effect:none;fill:#803300;fill-opacity:1;fill-rule:nonzero;stroke:none;stroke-width:1.30079;stroke-linecap:square;stroke-linejoin:round;stroke-miterlimit:4;stroke-dasharray:none;stroke-dashoffset:0;stroke-opacity:1;color-rendering:auto;image-rendering:auto;shape-rendering:auto;text-rendering:auto;enable-background:accumulate"
           d="m 215.43491,112.72291 h 0.65061 c 1.14822,-1e-5 2.22925,0.51337 2.84375,1.4211 0.61463,0.9079 0.61463,2.09243 0,3.00033 -0.20064,0.2963 -0.46366,0.53298 -0.74982,0.74104 0.32246,0.2187 0.61805,0.47349 0.83871,0.79944 0.61462,0.90791 0.61462,2.09244 0,3.00034 -0.61465,0.90765 -1.69555,1.42072 -2.84376,1.42059 l -0.6506,-5.2e-4 5.1e-4,-1.3007 h 0.65009 c 0.75362,9e-5 1.43023,-0.352 1.76682,-0.84904 0.33656,-0.49716 0.33656,-1.04383 0,-1.54099 a 0.65045799,0.65045799 0 0 1 0,-5.3e-4 c -0.33647,-0.49717 -1.0131,-0.84906 -1.76682,-0.84905 h -0.0889 -0.56172 v -5.3e-4 h -0.0889 l 5.2e-4,-1.3007 h 0.0884 0.56172 c 0.75361,9e-5 1.43022,-0.352 1.76682,-0.84904 0.33656,-0.49716 0.33656,-1.04383 0,-1.54099 a 0.65045799,0.65045799 0 0 1 0,-5.3e-4 c -0.33647,-0.49715 -1.01311,-0.84904 -1.76682,-0.84904 h -0.65061 z"
           id="path981-3"
           inkscape:connector-curvature="0" />
        <rect
           style="opacity:1;fill:#ff00ff;fill-opacity:1;stroke:none;stroke-width:0.6;stroke-linecap:butt;stroke-linejoin:round;stroke-miterlimit:4;stroke-dasharray:none;stroke-dashoffset:0;stroke-opacity:1"
           id="rect1935-1-6"
           width="7.9375"
           height="7.9375"
           x="235.69897"
           y="-96.418182"
           transform="rotate(45)"
           inkscape:transform-center-x="-29.104167"
           inkscape:transform-center-y="12.851187" />
        <rect
           style="opacity:1;fill:#ff00ff;fill-opacity:1;stroke:none;stroke-width:0.6;stroke-linecap:butt;stroke-linejoin:round;stroke-miterlimit:4;stroke-dasharray:none;stroke-dashoffset:0;stroke-opacity:1"
           id="rect1935-1-0"
           width="7.9375"
           height="7.9375"
           x="255.35796"
           y="-96.539413"
           transform="rotate(45)"
           inkscape:transform-center-x="-29.104167"
           inkscape:transform-center-y="12.851187" />
        <path
           sodipodi:arc-type="slice"
           style="opacity:1;fill:#008000;fill-opacity:1;stroke:none;stroke-width:0.6;stroke-linecap:butt;stroke-linejoin:round;stroke-miterlimit:4;stroke-dasharray:none;stroke-dashoffset:0;stroke-opacity:1"
           id="path819-7-9-5-6"
           sodipodi:type="arc"
           sodipodi:cx="234.8423"
           sodipodi:cy="-137.3304"
           sodipodi:rx="5"
           sodipodi:ry="5"
           sodipodi:start="0"
           sodipodi:end="3.1415927"
           d="m 239.8423,-137.3304 a 5,5 0 0 1 -2.5,4.33013 5,5 0 0 1 -5,0 5,5 0 0 1 -2.5,-4.33013 h 5 z"
           transform="scale(1,-1)" />
      </g>
      <g
         id="g2081"
         transform="rotate(-90,163.51773,200.44679)">
        <rect
           style="opacity:1;fill:#e9ddaf;fill-opacity:1;stroke:#786721;stroke-width:0.6;stroke-linecap:butt;stroke-linejoin:round;stroke-miterlimit:4;stroke-dasharray:none;stroke-dashoffset:0;stroke-opacity:1"
           id="rect815-3-5"
           width="39.477776"
           height="39.477776"
           x="-305.86685"
           y="98.175438"
           ry="4.9136906"
           rx="4.9136906"
           transform="scale(-1,1)" />
        <path
           style="opacity:1;fill:#00ffff;fill-opacity:1;stroke:none;stroke-width:0.439638;stroke-linecap:butt;stroke-linejoin:round;stroke-miterlimit:4;stroke-dasharray:none;stroke-dashoffset:0;stroke-opacity:1"
           d="m 266.73939,110.14255 v 15.54356 l 7.77179,-7.77178 z"
           id="rect821-53-2"
           inkscape:connector-curvature="0"
           sodipodi:nodetypes="cccc" />
        <path
           style="color:#000000;font-style:normal;font-variant:normal;font-weight:normal;font-stretch:normal;font-size:medium;line-height:normal;font-family:sans-serif;font-variant-ligatures:normal;font-variant-position:normal;font-variant-caps:normal;font-variant-numeric:normal;font-variant-alternates:normal;font-feature-settings:normal;text-indent:0;text-align:start;text-decoration:none;text-decoration-line:none;text-decoration-style:solid;text-decoration-color:#000000;letter-spacing:normal;word-spacing:normal;text-transform:none;writing-mode:lr-tb;direction:ltr;text-orientation:mixed;dominant-baseline:auto;baseline-shift:baseline;text-anchor:start;white-space:normal;shape-padding:0;clip-rule:nonzero;display:inline;overflow:visible;visibility:visible;opacity:1;isolation:auto;mix-blend-mode:normal;color-interpolation:sRGB;color-interpolation-filters:linearRGB;solid-color:#000000;solid-opacity:1;vector-effect:none;fill:#803300;fill-opacity:1;fill-rule:nonzero;stroke:none;stroke-width:1.30079;stroke-linecap:square;stroke-linejoin:round;stroke-miterlimit:4;stroke-dasharray:none;stroke-dashoffset:0;stroke-opacity:1;color-rendering:auto;image-rendering:auto;shape-rendering:auto;text-rendering:auto;enable-background:accumulate"
           d="m 280.93655,98.486427 v 0.65061 c -1e-5,1.148223 0.51337,2.229253 1.4211,2.843753 0.9079,0.61463 2.09243,0.61463 3.00033,0 0.2963,-0.20064 0.53298,-0.46366 0.74104,-0.74982 0.2187,0.32246 0.47349,0.61805 0.79944,0.83871 0.9079,0.61462 2.09243,0.61462 3.00033,0 0.90765,-0.61465 1.42072,-1.69555 1.42059,-2.843763 l -5.2e-4,-0.6506 -1.3007,5.1e-4 v 0.65009 c 9e-5,0.753619 -0.352,1.430233 -0.84904,1.766823 -0.49716,0.33656 -1.04383,0.33656 -1.54099,0 a 0.65045799,0.65045799 0 0 0 -5.3e-4,0 c -0.49716,-0.33647 -0.84905,-1.013104 -0.84904,-1.766823 v -0.0889 -0.56172 h -5.3e-4 v -0.0889 l -1.3007,5.2e-4 v 0.0884 0.56172 c 9e-5,0.75361 -0.352,1.430223 -0.84904,1.766823 -0.49716,0.33656 -1.04383,0.33656 -1.54099,0 a 0.65045799,0.65045799 0 0 0 -5.3e-4,0 c -0.49715,-0.33647 -0.84904,-1.013113 -0.84904,-1.766823 v -0.65061 z"
           id="path981-6"
           inkscape:connector-curvature="0" />
        <path
           style="color:#000000;font-style:normal;font-variant:normal;font-weight:normal;font-stretch:normal;font-size:medium;line-height:normal;font-family:sans-serif;font-variant-ligatures:normal;font-variant-position:normal;font-variant-caps:normal;font-variant-numeric:normal;font-variant-alternates:normal;font-feature-settings:normal;text-indent:0;text-align:start;text-decoration:none;text-decoration-line:none;text-decoration-style:solid;text-decoration-color:#000000;letter-spacing:normal;word-spacing:normal;text-transform:none;writing-mode:lr-tb;direction:ltr;text-orientation:mixed;dominant-baseline:auto;baseline-shift:baseline;text-anchor:start;white-space:normal;shape-padding:0;clip-rule:nonzero;display:inline;overflow:visible;visibility:visible;opacity:1;isolation:auto;mix-blend-mode:normal;color-interpolation:sRGB;color-interpolation-filters:linearRGB;solid-color:#000000;solid-opacity:1;vector-effect:none;fill:#803300;fill-opacity:1;fill-rule:nonzero;stroke:none;stroke-width:1.30079;stroke-linecap:square;stroke-linejoin:round;stroke-miterlimit:4;stroke-dasharray:none;stroke-dashoffset:0;stroke-opacity:1;color-rendering:auto;image-rendering:auto;shape-rendering:auto;text-rendering:auto;enable-background:accumulate"
           d="m 291.31938,137.33037 v -0.65061 c 10e-6,-1.14822 -0.51337,-2.22925 -1.4211,-2.84375 -0.9079,-0.61463 -2.09243,-0.61463 -3.00033,0 -0.2963,0.20064 -0.53298,0.46366 -0.74104,0.74982 -0.2187,-0.32246 -0.47349,-0.61805 -0.79944,-0.83871 -0.9079,-0.61462 -2.09243,-0.61462 -3.00033,0 -0.90765,0.61465 -1.42072,1.69555 -1.42059,2.84376 l 5.3e-4,0.6506 1.3007,-5.1e-4 v -0.65009 c -9e-5,-0.75362 0.352,-1.43023 0.84904,-1.76682 0.49716,-0.33656 1.04383,-0.33656 1.54099,0 a 0.65045799,0.65045799 0 0 0 5.3e-4,0 c 0.49715,0.33647 0.84904,1.0131 0.84903,1.76682 v 0.0889 0.56172 h 5.3e-4 v 0.0889 l 1.3007,-5.2e-4 v -0.0884 -0.56172 c -9e-5,-0.75361 0.352,-1.43022 0.84904,-1.76682 0.49716,-0.33656 1.04383,-0.33656 1.54099,0 a 0.65045799,0.65045799 0 0 0 5.3e-4,0 c 0.49715,0.33647 0.84904,1.01311 0.84904,1.76682 v 0.65061 z"
           id="path981-6-1"
           inkscape:connector-curvature="0" />
        <circle
           style="opacity:1;fill:#000000;fill-opacity:1;stroke:none;stroke-width:0.6;stroke-linecap:butt;stroke-linejoin:round;stroke-miterlimit:4;stroke-dasharray:none;stroke-dashoffset:0;stroke-opacity:1"
           id="path919-6-2-8"
           cx="302.56198"
           cy="117.91432"
           r="3.0735996" />
      </g>
    </g>
  </g>
</svg>
