<?xml version="1.0" encoding="UTF-8" standalone="no"?>
<!-- Created with Inkscape (http://www.inkscape.org/) -->

<svg
   width="352.11548mm"
   height="263.60507mm"
   viewBox="0 0 352.11548 263.60507"
   version="1.1"
   id="svg12333"
   sodipodi:docname="2022-HU-04-explanation1.svg"
   inkscape:version="1.1.1 (3bf5ae0d25, 2021-09-20)"
   xmlns:inkscape="http://www.inkscape.org/namespaces/inkscape"
   xmlns:sodipodi="http://sodipodi.sourceforge.net/DTD/sodipodi-0.dtd"
   xmlns="http://www.w3.org/2000/svg"
   xmlns:svg="http://www.w3.org/2000/svg">
  <sodipodi:namedview
     id="namedview12335"
     pagecolor="#ffffff"
     bordercolor="#666666"
     borderopacity="1.0"
     inkscape:pageshadow="2"
     inkscape:pageopacity="0.0"
     inkscape:pagecheckerboard="0"
     inkscape:document-units="mm"
     showgrid="false"
     inkscape:zoom="0.46929649"
     inkscape:cx="601.96486"
     inkscape:cy="644.58185"
     inkscape:window-width="1920"
     inkscape:window-height="1137"
     inkscape:window-x="-8"
     inkscape:window-y="-8"
     inkscape:window-maximized="1"
     inkscape:current-layer="g64" />
  <defs
     id="defs12330" />
  <g
     inkscape:label="Ebene 1"
     inkscape:groupmode="layer"
     id="layer1"
     transform="translate(91.876498,29.166541)">
    <g
       transform="matrix(0.26458333,0,0,0.26458333,-458.15827,-233.55746)"
       id="g200"
       style="clip-rule:evenodd;fill-rule:evenodd;stroke-linecap:round;stroke-linejoin:round;stroke-miterlimit:1.5">
      <g
         transform="translate(751.622,-1234.16)"
         id="g198">
        <g
           transform="translate(-19.971,965.125)"
           id="g64">
          <g
             id="g8435"
             transform="translate(92.307468,-2524.607)"
             style="clip-rule:evenodd;fill-rule:evenodd;stroke-linecap:round;stroke-linejoin:round;stroke-miterlimit:1.5">
            <g
               transform="translate(1223.0788,3838.0581)"
               id="g2616">
              <g
                 transform="matrix(0.927056,0,0,0.923824,26.8553,32.328)"
                 id="g2610">
                <rect
                   x="368.16501"
                   y="424.388"
                   width="323.60501"
                   height="324.737"
                   style="fill:#ffeba3;stroke:none;stroke-width:2.64px"
                   id="rect2608" />
              </g>
              <g
                 transform="matrix(0.78813,0,0,0.78682,100.482,112.716)"
                 id="g2614">
                <rect
                   x="368.16501"
                   y="424.388"
                   width="323.60501"
                   height="324.737"
                   style="fill:#b2db93"
                   id="rect2612" />
              </g>
            </g>
            <g
               transform="translate(1223.0788,3838.0581)"
               id="g2626">
              <g
                 transform="matrix(0.927056,0,0,0.923824,26.8553,32.328)"
                 id="g2620">
                <rect
                   x="368.16501"
                   y="424.388"
                   width="323.60501"
                   height="324.737"
                   style="fill:#ffeba3;stroke:none;stroke-width:2.64px"
                   id="rect2618" />
              </g>
              <g
                 transform="matrix(0.78813,0,0,0.78682,100.482,112.716)"
                 id="g2624">
                <rect
                   x="368.16501"
                   y="424.388"
                   width="323.60501"
                   height="324.737"
                   style="fill:#b2db93"
                   id="rect2622" />
              </g>
            </g>
            <g
               transform="matrix(0.910813,0,0,0.910813,247.56081,2509.0981)"
               id="g2670">
              <path
                 d="m 1689.56,2022.96 h -78.23 v 50.15 h 65.4 c 6.06,0 10.58,1.36 13.57,4.08 2.99,2.72 4.48,6.35 4.48,10.9 0,4.55 -1.52,8.16 -4.55,10.83 -3.03,2.68 -7.53,4.02 -13.5,4.02 h -65.4 v 64.59 c 0,8.21 -1.85,14.29 -5.55,18.26 -3.7,3.97 -8.45,5.95 -14.25,5.95 -5.88,0 -10.67,-2.01 -14.38,-6.02 -3.7,-4.01 -5.54,-10.07 -5.54,-18.19 v -150.86 c 0,-5.7 0.84,-10.36 2.54,-13.97 1.69,-3.61 4.34,-6.24 7.95,-7.89 3.62,-1.65 8.23,-2.48 13.85,-2.48 h 93.61 c 6.33,0 11.04,1.41 14.11,4.22 3.08,2.8 4.62,6.48 4.62,11.03 0,4.64 -1.54,8.36 -4.62,11.17 -3.07,2.8 -7.78,4.21 -14.11,4.21 z"
                 style="font-variation-settings:normal;opacity:1;vector-effect:none;fill:#0b970f;fill-opacity:1;fill-rule:nonzero;stroke-width:0.873282;stroke-linecap:butt;stroke-linejoin:miter;stroke-miterlimit:1.5;stroke-dasharray:none;stroke-dashoffset:0;stroke-opacity:1;-inkscape-stroke:none;stop-color:#000000;stop-opacity:1"
                 id="path2668" />
            </g>
          </g>
          <g
             id="g8388"
             transform="translate(-243.59244,-2190.0798)"
             style="clip-rule:evenodd;fill-rule:evenodd;stroke-linecap:round;stroke-linejoin:round;stroke-miterlimit:1.5">
            <g
               transform="translate(528.14881,2807.2281)"
               id="g334">
              <g
                 transform="matrix(0.927056,0,0,0.923824,26.8553,32.328)"
                 id="g328">
                <rect
                   x="368.16501"
                   y="424.388"
                   width="323.60501"
                   height="324.737"
                   style="fill:#ffeba3;stroke:none;stroke-width:2.64px"
                   id="rect326" />
              </g>
              <g
                 transform="matrix(0.78813,0,0,0.78682,100.482,112.716)"
                 id="g332">
                <rect
                   x="368.16501"
                   y="424.388"
                   width="323.60501"
                   height="324.737"
                   style="fill:#b2db93"
                   id="rect330" />
              </g>
            </g>
            <g
               transform="translate(528.14881,2807.2281)"
               id="g344">
              <g
                 transform="matrix(0.927056,0,0,0.923824,26.8553,32.328)"
                 id="g338">
                <rect
                   x="368.16501"
                   y="424.388"
                   width="323.60501"
                   height="324.737"
                   style="fill:#ffeba3;stroke:none;stroke-width:2.64px"
                   id="rect336" />
              </g>
              <g
                 transform="matrix(0.78813,0,0,0.78682,100.482,112.716)"
                 id="g342">
                <rect
                   x="368.16501"
                   y="424.388"
                   width="323.60501"
                   height="324.737"
                   style="fill:#b2db93"
                   id="rect340" />
              </g>
            </g>
            <g
               transform="matrix(0.910813,0,0,0.910813,-455.90119,1477.6821)"
               id="g2630">
              <path
                 d="m 1697.86,2166.2 -9.37,-24.61 h -79.7 l -9.37,25.14 c -3.65,9.81 -6.77,16.43 -9.36,19.86 -2.58,3.43 -6.82,5.15 -12.7,5.15 -5,0 -9.41,-1.83 -13.24,-5.48 -3.84,-3.66 -5.75,-7.81 -5.75,-12.44 0,-2.68 0.44,-5.44 1.33,-8.29 0.89,-2.86 2.37,-6.83 4.42,-11.91 l 50.15,-127.32 c 1.42,-3.65 3.14,-8.04 5.15,-13.17 2,-5.13 4.14,-9.39 6.42,-12.77 2.27,-3.39 5.26,-6.13 8.96,-8.23 3.7,-2.09 8.27,-3.14 13.71,-3.14 5.52,0 10.14,1.05 13.84,3.14 3.7,2.1 6.69,4.79 8.96,8.09 2.27,3.3 4.19,6.85 5.75,10.64 1.56,3.78 3.54,8.84 5.95,15.18 l 51.22,126.51 c 4.02,9.63 6.02,16.63 6.02,21 0,4.55 -1.89,8.72 -5.68,12.5 -3.79,3.8 -8.36,5.69 -13.71,5.69 -3.12,0 -5.8,-0.56 -8.02,-1.67 -2.23,-1.12 -4.11,-2.63 -5.62,-4.55 -1.52,-1.92 -3.14,-4.86 -4.88,-8.83 -1.74,-3.96 -3.24,-7.46 -4.48,-10.49 z m -78.64,-54.44 h 58.58 l -29.56,-80.91 z"
                 style="font-variation-settings:normal;opacity:1;vector-effect:none;fill:#0b970f;fill-opacity:1;fill-rule:nonzero;stroke-width:0.873282;stroke-linecap:butt;stroke-linejoin:miter;stroke-miterlimit:1.5;stroke-dasharray:none;stroke-dashoffset:0;stroke-opacity:1;-inkscape-stroke:none;stop-color:#000000;stop-opacity:1"
                 id="path2628" />
            </g>
          </g>
          <g
             transform="translate(-739.20381,965.94299)"
             id="g456"
             style="clip-rule:evenodd;fill-rule:evenodd;stroke-linecap:round;stroke-linejoin:round;stroke-miterlimit:1.5">
            <g
               transform="translate(1023.76)"
               id="g450">
              <g
                 transform="matrix(0.927056,0,0,0.923824,26.8553,32.328)"
                 id="g444">
                <rect
                   x="368.16501"
                   y="424.388"
                   width="323.60501"
                   height="324.737"
                   style="fill:#ff000f;stroke:none;stroke-width:2.64px"
                   id="rect442" />
              </g>
              <g
                 transform="matrix(0.78813,0,0,0.78682,100.482,112.716)"
                 id="g448">
                <rect
                   x="368.16501"
                   y="424.388"
                   width="323.60501"
                   height="324.737"
                   style="fill:#ffffff"
                   id="rect446" />
              </g>
            </g>
            <g
               transform="matrix(10.1722,0,0,10.1722,-6411.25,-5116.75)"
               id="g454">
              <path
                 d="M 781.088,567.233 V 555.68 c -2.15,1.65 -3.597,2.475 -4.342,2.475 -0.355,0 -0.671,-0.141 -0.946,-0.425 -0.275,-0.283 -0.412,-0.611 -0.412,-0.984 0,-0.431 0.135,-0.749 0.406,-0.952 0.271,-0.203 0.749,-0.465 1.434,-0.787 1.025,-0.482 1.843,-0.99 2.457,-1.523 0.614,-0.534 1.157,-1.13 1.631,-1.79 0.474,-0.661 0.783,-1.067 0.927,-1.219 0.144,-0.153 0.415,-0.229 0.813,-0.229 0.448,0 0.808,0.174 1.079,0.521 0.271,0.347 0.406,0.825 0.406,1.434 v 14.537 c 0,1.701 -0.58,2.551 -1.739,2.551 -0.517,0 -0.931,-0.173 -1.244,-0.52 -0.314,-0.347 -0.47,-0.859 -0.47,-1.536 z"
                 style="fill-rule:nonzero"
                 id="path452" />
            </g>
          </g>
          <g
             transform="translate(-51.983422,965.98399)"
             id="g552"
             style="clip-rule:evenodd;fill-rule:evenodd;stroke-linecap:round;stroke-linejoin:round;stroke-miterlimit:1.5">
            <g
               transform="translate(1023.76)"
               id="g546">
              <g
                 transform="matrix(0.927056,0,0,0.923824,26.8553,32.328)"
                 id="g540">
                <rect
                   x="368.16501"
                   y="424.388"
                   width="323.60501"
                   height="324.737"
                   style="fill:#ff000f;stroke:none;stroke-width:2.64px"
                   id="rect538" />
              </g>
              <g
                 transform="matrix(0.78813,0,0,0.78682,100.482,112.716)"
                 id="g544">
                <rect
                   x="368.16501"
                   y="424.388"
                   width="323.60501"
                   height="324.737"
                   style="fill:#ffffff"
                   id="rect542" />
              </g>
            </g>
            <g
               transform="matrix(10.1722,0,0,10.1722,-6411.25,-5116.75)"
               id="g550">
              <path
                 d="M 781.088,567.233 V 555.68 c -2.15,1.65 -3.597,2.475 -4.342,2.475 -0.355,0 -0.671,-0.141 -0.946,-0.425 -0.275,-0.283 -0.412,-0.611 -0.412,-0.984 0,-0.431 0.135,-0.749 0.406,-0.952 0.271,-0.203 0.749,-0.465 1.434,-0.787 1.025,-0.482 1.843,-0.99 2.457,-1.523 0.614,-0.534 1.157,-1.13 1.631,-1.79 0.474,-0.661 0.783,-1.067 0.927,-1.219 0.144,-0.153 0.415,-0.229 0.813,-0.229 0.448,0 0.808,0.174 1.079,0.521 0.271,0.347 0.406,0.825 0.406,1.434 v 14.537 c 0,1.701 -0.58,2.551 -1.739,2.551 -0.517,0 -0.931,-0.173 -1.244,-0.52 -0.314,-0.347 -0.47,-0.859 -0.47,-1.536 z"
                 style="fill-rule:nonzero"
                 id="path548" />
            </g>
          </g>
          <g
             transform="translate(-744.77281,640.43949)"
             id="g680"
             style="clip-rule:evenodd;fill-rule:evenodd;stroke-linecap:round;stroke-linejoin:round;stroke-miterlimit:1.5">
            <g
               transform="translate(1372.94,-23.2892)"
               id="g674">
              <g
                 transform="matrix(0.927056,0,0,0.923824,26.8553,32.328)"
                 id="g668">
                <rect
                   x="368.16501"
                   y="424.388"
                   width="323.60501"
                   height="324.737"
                   style="fill:#ff000f;stroke:none;stroke-width:2.64px"
                   id="rect666" />
              </g>
              <g
                 transform="matrix(0.78813,0,0,0.78682,100.482,112.716)"
                 id="g672">
                <rect
                   x="368.16501"
                   y="424.388"
                   width="323.60501"
                   height="324.737"
                   style="fill:#ffffff"
                   id="rect670" />
              </g>
            </g>
            <g
               transform="matrix(10.1722,0,0,10.1722,-6062.61,-5143)"
               id="g678">
              <path
                 d="M 781.088,567.233 V 555.68 c -2.15,1.65 -3.597,2.475 -4.342,2.475 -0.355,0 -0.671,-0.141 -0.946,-0.425 -0.275,-0.283 -0.412,-0.611 -0.412,-0.984 0,-0.431 0.135,-0.749 0.406,-0.952 0.271,-0.203 0.749,-0.465 1.434,-0.787 1.025,-0.482 1.843,-0.99 2.457,-1.523 0.614,-0.534 1.157,-1.13 1.631,-1.79 0.474,-0.661 0.783,-1.067 0.927,-1.219 0.144,-0.153 0.415,-0.229 0.813,-0.229 0.448,0 0.808,0.174 1.079,0.521 0.271,0.347 0.406,0.825 0.406,1.434 v 14.537 c 0,1.701 -0.58,2.551 -1.739,2.551 -0.517,0 -0.931,-0.173 -1.244,-0.52 -0.314,-0.347 -0.47,-0.859 -0.47,-1.536 z"
                 style="fill-rule:nonzero"
                 id="path676" />
            </g>
          </g>
          <g
             transform="translate(299.34226,969.83909)"
             id="g822"
             style="clip-rule:evenodd;fill-rule:evenodd;stroke-linecap:round;stroke-linejoin:round;stroke-miterlimit:1.5">
            <g
               transform="translate(328.826,343.612)"
               id="g816">
              <g
                 transform="matrix(0.927056,0,0,0.923824,26.8553,32.328)"
                 id="g810">
                <rect
                   x="368.16501"
                   y="424.388"
                   width="323.60501"
                   height="324.737"
                   style="fill:#ff000f;stroke:none;stroke-width:2.64px"
                   id="rect808" />
              </g>
              <g
                 transform="matrix(0.78813,0,0,0.78682,100.482,112.716)"
                 id="g814">
                <rect
                   x="368.16501"
                   y="424.388"
                   width="323.60501"
                   height="324.737"
                   style="fill:#ffffff"
                   id="rect812" />
              </g>
            </g>
            <g
               transform="matrix(10.1722,0,0,10.1722,-7099.2,-4772.88)"
               id="g820">
              <path
                 d="M 781.088,567.233 V 555.68 c -2.15,1.65 -3.597,2.475 -4.342,2.475 -0.355,0 -0.671,-0.141 -0.946,-0.425 -0.275,-0.283 -0.412,-0.611 -0.412,-0.984 0,-0.431 0.135,-0.749 0.406,-0.952 0.271,-0.203 0.749,-0.465 1.434,-0.787 1.025,-0.482 1.843,-0.99 2.457,-1.523 0.614,-0.534 1.157,-1.13 1.631,-1.79 0.474,-0.661 0.783,-1.067 0.927,-1.219 0.144,-0.153 0.415,-0.229 0.813,-0.229 0.448,0 0.808,0.174 1.079,0.521 0.271,0.347 0.406,0.825 0.406,1.434 v 14.537 c 0,1.701 -0.58,2.551 -1.739,2.551 -0.517,0 -0.931,-0.173 -1.244,-0.52 -0.314,-0.347 -0.47,-0.859 -0.47,-1.536 z"
                 style="fill-rule:nonzero"
                 id="path818" />
            </g>
          </g>
          <g
             transform="translate(-743.06171,622.32919)"
             id="g1110"
             style="clip-rule:evenodd;fill-rule:evenodd;stroke-linecap:round;stroke-linejoin:round;stroke-miterlimit:1.5">
            <g
               transform="translate(1371.23,343.612)"
               id="g1104">
              <g
                 transform="matrix(0.927056,0,0,0.923824,26.8553,32.328)"
                 id="g1098">
                <rect
                   x="368.16501"
                   y="424.388"
                   width="323.60501"
                   height="324.737"
                   style="fill:#ff000f;stroke:none;stroke-width:2.64px"
                   id="rect1096" />
              </g>
              <g
                 transform="matrix(0.78813,0,0,0.78682,100.482,112.716)"
                 id="g1102">
                <rect
                   x="368.16501"
                   y="424.388"
                   width="323.60501"
                   height="324.737"
                   style="fill:#ffffff"
                   id="rect1100" />
              </g>
            </g>
            <g
               transform="matrix(10.1722,0,0,10.1722,-6063.72,-4773.18)"
               id="g1108">
              <path
                 d="m 779.552,565.976 h 6.627 c 0.66,0 1.163,0.135 1.51,0.406 0.347,0.271 0.521,0.639 0.521,1.105 0,0.414 -0.138,0.766 -0.413,1.053 -0.275,0.288 -0.692,0.432 -1.25,0.432 h -9.344 c -0.635,0 -1.13,-0.176 -1.485,-0.527 -0.356,-0.351 -0.534,-0.764 -0.534,-1.238 0,-0.304 0.115,-0.709 0.343,-1.212 0.229,-0.504 0.478,-0.899 0.749,-1.187 1.126,-1.168 2.142,-2.169 3.047,-3.003 0.906,-0.833 1.553,-1.381 1.943,-1.644 0.694,-0.491 1.271,-0.984 1.732,-1.479 0.462,-0.495 0.813,-1.003 1.054,-1.523 0.241,-0.521 0.362,-1.031 0.362,-1.53 0,-0.542 -0.129,-1.026 -0.387,-1.453 -0.258,-0.428 -0.61,-0.76 -1.054,-0.997 -0.444,-0.237 -0.929,-0.356 -1.454,-0.356 -1.108,0 -1.98,0.487 -2.615,1.46 -0.084,0.127 -0.226,0.474 -0.425,1.041 -0.199,0.567 -0.423,1.003 -0.673,1.308 -0.25,0.305 -0.616,0.457 -1.098,0.457 -0.423,0 -0.774,-0.14 -1.054,-0.419 -0.279,-0.279 -0.419,-0.66 -0.419,-1.142 0,-0.584 0.131,-1.194 0.394,-1.829 0.262,-0.634 0.654,-1.21 1.174,-1.726 0.521,-0.516 1.181,-0.933 1.981,-1.251 0.799,-0.317 1.737,-0.476 2.812,-0.476 1.295,0 2.399,0.203 3.313,0.61 0.593,0.271 1.113,0.643 1.562,1.117 0.448,0.474 0.797,1.022 1.047,1.644 0.25,0.622 0.375,1.267 0.375,1.936 0,1.049 -0.261,2.004 -0.781,2.863 -0.521,0.859 -1.052,1.532 -1.594,2.018 -0.541,0.487 -1.449,1.251 -2.723,2.292 -1.273,1.041 -2.147,1.849 -2.621,2.425 -0.203,0.228 -0.411,0.503 -0.622,0.825 z"
                 style="fill-rule:nonzero"
                 id="path1106" />
            </g>
          </g>
          <g
             transform="translate(295.48653,624.85929)"
             id="g1948"
             style="clip-rule:evenodd;fill-rule:evenodd;stroke-linecap:round;stroke-linejoin:round;stroke-miterlimit:1.5">
            <g
               transform="matrix(0.927056,0,0,0.923824,703.149,719.552)"
               id="g1806">
              <rect
                 x="368.16501"
                 y="424.388"
                 width="323.60501"
                 height="324.737"
                 style="fill:#6cbd2e;stroke:none;stroke-width:2.64px"
                 id="rect1804" />
            </g>
            <g
               transform="matrix(1.11965,0,0,1.11965,97.9813,-1252.25)"
               id="g1946">
              <g
                 transform="translate(-0.341493,1925.02)"
                 id="g1884">
                <g
                   transform="matrix(0.767128,0,0,0.657863,345.595,-430.186)"
                   id="g1810">
                  <path
                     d="m 835.17,1276.1 c 3.389,-3.11 5.51,-0.35 9.429,0.49 8.178,1.76 24.936,7.55 26.385,17.69 0.845,5.91 -4.353,9.28 -7.828,12.76 -3.623,3.62 -6.321,7.54 -11.018,10.14 -13.719,7.63 -32.562,5.88 -47.55,7.54 -4.115,0.46 -8.467,-1.68 -12.468,-2.32 -16.502,-2.6 -25.619,-3.87 -37.692,-15.94 -2.349,-2.35 -5.873,-4.58 -6.959,-7.83 -2.885,-8.66 -3.384,-12.3 2.32,-19.43 2.101,-2.62 5.675,-2.26 8.118,-3.48 0.645,-0.32 1.84,-0.27 2.609,-0.58 0.484,-0.19 1.971,-0.58 1.45,-0.58 -0.42,0 -1.162,0.58 -1.45,0.87 z"
                     style="fill:#0b970f"
                     id="path1808" />
                </g>
                <g
                   transform="matrix(-0.77052,0,0,1,1580.16,-860.02)"
                   id="g1814">
                  <path
                     d="m 808.523,1121.8 c -13.016,3.91 -6.296,109.24 4.459,133.05 6.941,15.37 3.587,24.6 -11.89,29.14 -23.484,6.87 -51.001,4.16 -51.97,-13.54 -1.478,-27 19.541,-123.48 5.675,-152.83"
                     style="fill:#ffffff"
                     id="path1812" />
                </g>
                <g
                   transform="matrix(-0.77052,0,0,1,1580.16,-860.02)"
                   id="g1818">
                  <path
                     d="m 751.201,1240.63 c -1.479,12.71 -2.436,23.29 -2.079,29.82 0.969,17.7 28.486,20.41 51.97,13.54 15.477,-4.54 18.831,-13.77 11.89,-29.14 -10.755,-23.81 -17.475,-129.14 -4.459,-133.05 l -53.726,-4.18 c 7.64,16.18 4.689,52.73 0.703,86.8 1.547,0.45 3.631,0.46 6.113,-0.01 3.383,-0.65 25.323,-10.53 28.275,-14.14 0.455,-0.56 2.466,-3.23 2.604,-3.18 1.504,0.47 -12.302,27.29 -12.983,40.02 -0.123,2.3 -2.432,5.29 -5.662,7.99 -5.134,4.3 -12.594,7.9 -17.309,6.92 -1.85,-0.39 -3.663,-0.84 -5.337,-1.39 z"
                     style="fill:#ffffff"
                     id="path1816" />
                </g>
                <g
                   transform="translate(-68.2621,-842.63)"
                   id="g1822">
                  <path
                     d="m 1057.29,1101.03 c -8.45,32.84 6.54,123.32 5.45,149.33 -0.64,15.13 -16.23,19.31 -32.05,15.91 0.14,0.05 0.28,0.11 0.43,0.16 18.09,6.88 39.29,4.16 40.04,-13.54 0.46,-10.92 -1.92,-33.22 -4.2,-57.84 -0.21,-2.29 -2.47,-5.49 -0.64,-6.93 4.6,-3.61 3.82,-6.75 -0.82,-9.54 -0.77,-0.46 -0.15,-1.78 -0.22,-2.68 -2.5,-30.68 -3.75,-61.39 1.51,-75.83 z"
                     style="fill:#ffffff"
                     id="path1820" />
                </g>
                <g
                   transform="matrix(-0.77052,0,0,1,1580.16,-860.02)"
                   id="g1826">
                  <path
                     d="m 751.319,1239.46 c 9.589,2.35 24.695,-4.8 24.936,-14.86 0.257,-10.73 8.746,-24.58 12.938,-32.01 -3.851,3.26 -9.975,7.48 -15.992,10.76 -4.166,2.27 -8.289,4.09 -11.579,4.86 -2.473,0.58 -4.536,0.55 -5.925,-0.14 l -0.583,-0.33 c -1.303,11.2 -2.688,22.05 -3.795,31.72 z"
                     style="fill:#d4c484"
                     id="path1824" />
                </g>
                <g
                   transform="matrix(1.0104,0.12743,-0.104885,0.831639,296.811,-767.549)"
                   id="g1830">
                  <path
                     d="m 879.624,1086.11 c 0.656,-4.51 -5.418,-15.89 -13.274,-25.62 -8.106,-10.04 -35.903,-7.14 -43.666,-8.93 -31.779,-7.32 -70.15,6.63 -96.563,18.48 -20.498,9.2 -38.272,44.1 -33.358,54.11 8.846,18.04 136.391,-1.02 175.797,-25.34 6.775,-4.18 10.455,-8.51 11.064,-12.7 z"
                     style="fill:#d02b2b"
                     id="path1828" />
                </g>
                <g
                   transform="translate(-70.1399,-847.722)"
                   id="g1834">
                  <path
                     d="m 956.644,1084.38 c -6.083,7.52 -9.368,14.99 -7.632,18.96 7.046,16.13 137.918,16.53 180.288,1.33 7.28,-2.62 11.45,-5.75 12.51,-9.16 0.44,-1.43 -0.05,-3.88 -1.22,-6.87 -1.04,0.47 -2.16,0.92 -3.37,1.35 -42.37,15.21 -173.239,14.8 -180.285,-1.33 -0.507,-1.16 -0.586,-2.61 -0.291,-4.28 z"
                     style="fill:#b93737"
                     id="path1832" />
                </g>
                <g
                   transform="translate(223.91,-839.705)"
                   id="g1838">
                  <path
                     d="m 799.244,1067.74 c 0.111,-5.96 -13.846,-5.89 -11.059,0 0.967,2.04 3.944,3.4 5.948,4.07 2.068,0.69 5.067,-1.76 5.111,-4.07 z"
                     style="fill:#ffe9e9"
                     id="path1836" />
                </g>
                <g
                   transform="matrix(0.703975,0.089893,-0.0846269,0.662734,496.923,-558.282)"
                   id="g1842">
                  <path
                     d="m 799.244,1067.74 c 0.111,-5.96 -13.846,-5.89 -11.059,0 0.967,2.04 3.944,3.4 5.948,4.07 2.068,0.69 5.067,-1.76 5.111,-4.07 z"
                     style="fill:#ffe9e9"
                     id="path1840" />
                </g>
                <g
                   transform="matrix(0.0669918,-0.275151,0.54754,0.133311,282.807,302.373)"
                   id="g1846">
                  <path
                     d="m 799.244,1067.74 c 0.111,-5.96 -13.846,-5.89 -11.059,0 0.967,2.04 3.944,3.4 5.948,4.07 2.068,0.69 5.067,-1.76 5.111,-4.07 z"
                     style="fill:#ffe9e9"
                     id="path1844" />
                </g>
                <g
                   transform="matrix(0.132163,-0.542826,0.8061,0.196263,-24.4479,449.57)"
                   id="g1850">
                  <path
                     d="m 799.244,1067.74 c 0.111,-5.96 -13.846,-5.89 -11.059,0 0.967,2.04 3.944,3.4 5.948,4.07 2.068,0.69 5.067,-1.76 5.111,-4.07 z"
                     style="fill:#ffe9e9"
                     id="path1848" />
                </g>
                <g
                   transform="matrix(0.132163,-0.542826,0.8061,0.196263,-65.8105,474.839)"
                   id="g1854">
                  <path
                     d="m 799.244,1067.74 c 0.111,-5.96 -13.846,-5.89 -11.059,0 0.967,2.04 3.944,3.4 5.948,4.07 2.068,0.69 5.067,-1.76 5.111,-4.07 z"
                     style="fill:#ffe9e9"
                     id="path1852" />
                </g>
                <g
                   transform="matrix(-0.164998,0.677687,1.14439,0.278627,-166.957,-576.669)"
                   id="g1858">
                  <path
                     d="m 799.244,1067.74 c 0.111,-5.96 -13.846,-5.89 -11.059,0 0.967,2.04 3.944,3.4 5.948,4.07 2.068,0.69 5.067,-1.76 5.111,-4.07 z"
                     style="fill:#ffe9e9"
                     id="path1856" />
                </g>
                <g
                   transform="matrix(-0.131552,0.540315,0.668779,0.16283,347.709,-371.88)"
                   id="g1862">
                  <path
                     d="m 799.244,1067.74 c 0.111,-5.96 -13.846,-5.89 -11.059,0 0.967,2.04 3.944,3.4 5.948,4.07 2.068,0.69 5.067,-1.76 5.111,-4.07 z"
                     style="fill:#ffe9e9"
                     id="path1860" />
                </g>
                <g
                   transform="matrix(0.130944,-0.537815,0.554851,0.135091,307.609,503.793)"
                   id="g1866">
                  <path
                     d="m 799.244,1067.74 c 0.111,-5.96 -13.846,-5.89 -11.059,0 0.967,2.04 3.944,3.4 5.948,4.07 2.068,0.69 5.067,-1.76 5.111,-4.07 z"
                     style="fill:#ffe9e9"
                     id="path1864" />
                </g>
                <g
                   transform="matrix(-0.054729,0.224785,0.431207,0.104987,543.5,-48.5891)"
                   id="g1870">
                  <path
                     d="m 799.244,1067.74 c 0.111,-5.96 -13.846,-5.89 -11.059,0 0.967,2.04 3.944,3.4 5.948,4.07 2.068,0.69 5.067,-1.76 5.111,-4.07 z"
                     style="fill:#ffe9e9"
                     id="path1868" />
                </g>
                <g
                   transform="matrix(0.187317,-0.576425,1.11613,0.362702,-355.27,288.034)"
                   id="g1874">
                  <path
                     d="m 799.244,1067.74 c 0.111,-5.96 -13.846,-5.89 -11.059,0 0.967,2.04 3.944,3.4 5.948,4.07 2.068,0.69 5.067,-1.76 5.111,-4.07 z"
                     style="fill:#ffe9e9"
                     id="path1872" />
                </g>
                <g
                   transform="matrix(-0.683576,-0.249782,0.230187,-0.62995,1280.57,1102.74)"
                   id="g1878">
                  <path
                     d="m 799.244,1067.74 c 0.111,-5.96 -13.846,-5.89 -11.059,0 0.967,2.04 3.944,3.4 5.948,4.07 2.068,0.69 5.067,-1.76 5.111,-4.07 z"
                     style="fill:#ffe9e9"
                     id="path1876" />
                </g>
                <g
                   transform="matrix(-0.689735,0.131458,-0.187221,-0.982318,1784.65,1172.09)"
                   id="g1882">
                  <path
                     d="m 799.244,1067.74 c 0.111,-5.96 -13.846,-5.89 -11.059,0 0.967,2.04 3.944,3.4 5.948,4.07 2.068,0.69 5.067,-1.76 5.111,-4.07 z"
                     style="fill:#ffe9e9"
                     id="path1880" />
                </g>
              </g>
              <g
                 transform="matrix(-1.75067,0.590799,0.347922,1.03097,2620.35,-536.842)"
                 id="g1888">
                <path
                   d="m 1329.76,1988.68 c 0.12,-3.72 -3.61,-2.28 -4.66,3.04 -0.01,0.01 -1.08,0.16 -1.61,-0.02 -2.18,-0.73 -1.92,5.32 -1.92,6.79 0.82,0.96 1.38,0.31 2.99,0.61 2.38,0.33 5.09,-7.31 5.2,-10.42 z"
                   style="fill:#aa3f3f"
                   id="path1886" />
              </g>
              <g
                 transform="matrix(-1.40547,-0.209494,-0.209494,1.40547,3252.83,-250.16)"
                 id="g1892">
                <path
                   d="m 1313.29,1953.7 c -0.26,-1.31 -2.36,0.43 -2.94,1.3 -1.74,2.61 -1.74,9.66 1.92,10.27 3.39,0.56 4.34,-5.22 4.01,-7.52 -0.13,-0.94 -0.35,-2.91 -1.44,-3.13 z"
                   style="fill:#ffd500"
                   id="path1890" />
              </g>
              <g
                 transform="matrix(-1.41373,0.14349,0.14349,1.41373,2571.02,-726.562)"
                 id="g1896">
                <path
                   d="m 1320.13,1952.91 c 0.41,1.04 -0.05,5.59 -2.34,4.68 -1.25,-0.5 -1.86,-2.11 -2.84,-2.93 -2.17,-1.8 -4.87,-4.26 -7.6,-4.26 -2.44,-5.75 9.78,-5.05 12.78,2.51 z"
                   style="fill:#fff7d5"
                   id="path1894" />
              </g>
              <g
                 transform="matrix(-1.41373,0.14349,0.14349,1.41373,2571.02,-726.562)"
                 id="g1900">
                <path
                   d="m 1318.9,1952.2 c 0,0.4 -0.3,1.26 -0.5,2.15 -0.12,0.56 -0.36,1.89 -0.78,1.69 -1.74,-0.83 -5.59,-4.25 -6.87,-4.97 -1.11,-0.61 -2.26,-1.02 -3.4,-1.02 -0.2,0 -0.36,0.16 -0.36,0.35 0,0.2 0.16,0.35 0.36,0.35 1.03,0 2.06,0.38 3.05,0.94 1.56,0.87 3.04,2.17 4.32,3.24 0.47,0.4 0.85,0.98 1.27,1.53 0.47,0.61 0.11,0.47 0.79,0.74 0.46,0.19 0.85,0.19 1.18,0.07 0.48,-0.17 0.84,-0.6 1.09,-1.18 0.52,-1.24 0.55,-3.19 0.55,-3.89 0,-0.2 -0.16,-0.35 -0.35,-0.35 -0.19,0 -0.35,0.15 -0.35,0.35 z"
                   id="path1898" />
              </g>
              <g
                 transform="matrix(-1.68921,0.17145,0.175888,1.73294,2881.68,-1384.43)"
                 id="g1904">
                <path
                   d="m 1333.04,1945.83 c 1.05,0.06 3.15,2.24 3.63,3.07 1.43,2.51 2.15,5.01 1.08,7.85 -0.46,1.24 -0.4,2.5 -1.92,3.01 -2.07,0.69 -4.23,-0.07 -5.35,-1.92 -0.67,-1.12 -0.6,-2.67 -1,-3.85 -0.22,-0.67 0.18,-3.84 0.75,-3.84 z"
                   style="fill:#ffd500"
                   id="path1902" />
              </g>
              <g
                 transform="matrix(-1.68921,0.17145,0.175888,1.73294,2877.55,-1388.37)"
                 id="g1908">
                <path
                   d="m 1332.07,1959.42 c 2.83,-0.34 1.9,-8.36 -1.59,-6.34 -0.6,0.34 -0.49,0.81 -0.66,1.33 -0.74,2.21 -0.86,2.76 0.3,4.11 0.26,0.3 1.55,0.95 1.95,0.9 z"
                   id="path1906" />
              </g>
              <g
                 transform="matrix(-1.23766,0.125619,0.180421,1.77759,2291.54,-1414.25)"
                 id="g1912">
                <path
                   d="m 1334.02,1955.05 c 0.2,-1.7 -1.57,-2.63 -3.28,-2.14 -0.67,0.19 -0.75,0.98 -0.92,1.5 -0.74,2.21 1.47,3.27 1.84,3.43 1.66,0.66 2.36,-2.79 2.36,-2.79 z"
                   id="path1910" />
              </g>
              <g
                 transform="matrix(-1.95605,0.42091,0.38216,1.77596,2830.51,-1796.23)"
                 id="g1916">
                <path
                   d="m 1331.02,1970.94 c 0.06,-0.05 0.18,-0.24 0.18,-0.16 0,1.1 -1.87,8.06 -1.87,8.06 0,0 -0.31,-1.05 -0.59,-1.51 -0.22,-0.33 -1.67,-1.81 -1.67,-2.01 z"
                   style="fill:#ffd500"
                   id="path1914" />
              </g>
              <g
                 transform="matrix(-0.998693,0.182117,0.272314,1.49331,1768.25,-925.047)"
                 id="g1920">
                <path
                   d="m 1330.45,1970.35 c 0.06,-0.05 0.75,0.35 0.75,0.43 0,1.1 -0.84,6.94 -1.13,6.49 -0.21,-0.34 -3.48,-1.87 -3.48,-2.08 z"
                   style="fill:#ffd500"
                   id="path1918" />
              </g>
              <g
                 transform="matrix(-2.02214,-0.108745,0.183439,1.80733,3308.06,-1158.88)"
                 id="g1924">
                <path
                   d="m 1325.85,1977.24 c 0.38,0.1 -1.46,5.68 -1.52,5.63 -0.53,-0.53 -0.63,-4.81 -1.51,-4.81 z"
                   style="fill:#ffd500"
                   id="path1922" />
              </g>
              <g
                 transform="matrix(-1.75987,0.951917,0.864279,1.59785,1616.87,-2147.71)"
                 id="g1928">
                <path
                   d="m 1321.36,1977.49 c 0.29,-0.21 -0.27,0.7 -0.52,0.97 -0.55,0.57 -0.76,1.45 -1.29,1.99 -0.06,0.06 -0.05,-0.66 -0.13,-1 -0.23,-0.92 0.13,-4.56 -0.09,-5 z"
                   style="fill:#ffd500"
                   id="path1926" />
              </g>
              <g
                 transform="matrix(-1.61035,-0.387331,-0.28331,1.17788,3684.51,455.905)"
                 id="g1932">
                <path
                   d="m 1321.36,1977.49 c 0.29,-0.21 -0.27,0.7 -0.52,0.97 -0.55,0.57 -1.69,2.49 -1.94,2.21 -0.48,-0.54 1,-6.24 0.86,-6.55 z"
                   style="fill:#ffd500"
                   id="path1930" />
              </g>
              <g
                 transform="matrix(-0.8959,0.0909314,0.100978,0.994889,1854.53,-226.108)"
                 id="g1936">
                <path
                   d="m 1235.21,2347.9 c 0.19,-0.12 -0.08,-0.99 -0.08,-1.17 0,-1.09 0.1,-2.17 0.32,-3.24 0.61,-2.99 17.44,-10.83 18.79,-9.13 0.73,0.92 2.61,-0.22 3.74,0.13 0.32,0.1 0.68,0.23 0.95,0.43 1.05,0.82 0.5,2.51 0.35,3.58 -0.09,0.66 -0.2,1.67 -0.77,2.12 -0.27,0.22 -0.83,0.09 -1.11,0 -2.49,-0.76 -7.27,1.11 -10.54,3.81 -1.93,1.58 -5.42,9.39 -5.81,10.1 -0.48,0.86 -0.55,1.54 -1.64,1.72 -0.83,0.14 -1.19,-0.47 -1.65,-0.98 -0.14,-0.15 -0.34,-0.22 -0.48,-0.37 -0.7,-0.76 -2.07,-7 -2.07,-7 z"
                   style="fill:#fdf5d6"
                   id="path1934" />
              </g>
              <g
                 transform="matrix(-1.166,0.118346,0.14349,1.41373,2247.13,-690.955)"
                 id="g1940">
                <path
                   d="m 1334.57,1944.88 c -0.47,0.03 -2.16,0.59 -2.73,1.32 -1.3,1.66 -3.11,4.55 -3.49,5.69 -1.21,3.59 -4.64,4.89 -4.62,0.54 0,-0.81 -0.27,-1.55 -0.33,-2.36 -0.02,-0.19 -0.19,-0.34 -0.38,-0.32 -0.19,0.01 -0.34,0.18 -0.33,0.38 0.07,0.83 0.21,1.59 0.35,2.42 0.12,0.72 0.45,2.08 1.11,2.92 0.51,0.64 1.2,1 2.1,0.69 0.12,-0.04 0.38,-0.21 0.69,-0.52 0.62,-0.6 3.29,-5.87 4.53,-7.29 0.82,-0.93 1.61,-1.68 2.08,-1.89 1.9,-0.84 3.25,-1.14 4.82,-1 0.3,0.02 0.56,0.06 0.74,0.11 0.04,0.02 0.09,0.04 0.12,0.05 0.06,0.12 0.18,0.2 0.33,0.2 0.19,-0.01 0.34,-0.17 0.33,-0.37 0,-0.12 -0.05,-0.24 -0.17,-0.34 -0.11,-0.1 -0.33,-0.2 -0.65,-0.27 -1.1,-0.22 -2.65,-0.07 -4.5,0.04 z"
                   id="path1938" />
              </g>
              <g
                 transform="matrix(-1.17108,0.118862,0.0932293,0.91854,2207.03,-75.4673)"
                 id="g1944">
                <path
                   d="m 1245.91,2372.74 c -0.1,-0.03 -1.18,3.02 -1.43,3.65 -1.61,4.15 -15.05,16.64 -17.2,17.62 -5.45,2.49 -8.29,-1.66 -5.07,-8.24 0.59,-1.18 -0.98,-4.5 -1.48,-3.27 -0.36,0.89 -2.14,6.35 -1.89,8.18 0.35,2.52 -0.36,2.4 0.78,4.1 0.76,1.14 1.98,2.29 4.12,3.68 0.97,0.62 2.31,0.48 3.87,-0.35 2.08,-1.11 4.61,-3.42 7.13,-6.22 3.64,-4.04 7.26,-9.1 9.49,-12.94 -2.09,8.37 -6.43,24 -5.68,35.59 0.54,8.36 -5.05,15.92 -9.46,18.29 -3.49,1.86 -6.01,-1.04 -5.84,1.29 0.37,5.33 8.38,2.51 14.63,-8.06 1.89,-3.19 3.12,-6.61 3,-9.1 -0.64,-13.77 6.05,-43.83 5.03,-44.22 z"
                   id="path1942" />
              </g>
            </g>
          </g>
          <g
             id="g8402"
             transform="translate(-252.67223,-2190.0798)"
             style="clip-rule:evenodd;fill-rule:evenodd;stroke-linecap:round;stroke-linejoin:round;stroke-miterlimit:1.5">
            <g
               transform="translate(1224.4488,2807.2281)"
               id="g732">
              <g
                 transform="matrix(0.927056,0,0,0.923824,26.8553,32.328)"
                 id="g726">
                <rect
                   x="368.16501"
                   y="424.388"
                   width="323.60501"
                   height="324.737"
                   style="fill:#ffeba3;stroke:none;stroke-width:2.64px"
                   id="rect724" />
              </g>
              <g
                 transform="matrix(0.78813,0,0,0.78682,100.482,112.716)"
                 id="g730">
                <rect
                   x="368.16501"
                   y="424.388"
                   width="323.60501"
                   height="324.737"
                   style="fill:#b2db93"
                   id="rect728" />
              </g>
            </g>
            <g
               transform="translate(1224.4488,2807.2281)"
               id="g742">
              <g
                 transform="matrix(0.927056,0,0,0.923824,26.8553,32.328)"
                 id="g736">
                <rect
                   x="368.16501"
                   y="424.388"
                   width="323.60501"
                   height="324.737"
                   style="fill:#ffeba3;stroke:none;stroke-width:2.64px"
                   id="rect734" />
              </g>
              <g
                 transform="matrix(0.78813,0,0,0.78682,100.482,112.716)"
                 id="g740">
                <rect
                   x="368.16501"
                   y="424.388"
                   width="323.60501"
                   height="324.737"
                   style="fill:#b2db93"
                   id="rect738" />
              </g>
            </g>
            <g
               transform="matrix(0.910813,0,0,0.910813,240.40081,1474.6371)"
               id="g2638"
               style="font-variation-settings:normal;opacity:1;vector-effect:none;fill:#000000;fill-opacity:1;stroke-width:1;stroke-linecap:butt;stroke-linejoin:miter;stroke-miterlimit:1.5;stroke-dasharray:none;stroke-dashoffset:0;stroke-opacity:1;-inkscape-stroke:none;stop-color:#000000;stop-opacity:1">
              <path
                 d="m 1656.13,2188.4 h -59.92 c -8.64,0 -14.82,-1.94 -18.52,-5.82 -3.7,-3.88 -5.55,-10.05 -5.55,-18.53 v -147.38 c 0,-8.65 1.9,-14.86 5.68,-18.65 3.79,-3.79 9.92,-5.69 18.39,-5.69 h 63.53 c 9.36,0 17.48,0.58 24.34,1.74 6.87,1.16 13.02,3.39 18.46,6.69 4.63,2.76 8.74,6.26 12.3,10.5 3.57,4.23 6.29,8.91 8.16,14.04 1.87,5.13 2.81,10.54 2.81,16.25 0,19.61 -9.81,33.97 -29.43,43.06 25.77,8.21 38.66,24.17 38.66,47.88 0,10.97 -2.81,20.84 -8.43,29.63 -5.62,8.78 -13.2,15.27 -22.73,19.45 -5.98,2.5 -12.84,4.26 -20.6,5.29 -7.76,1.02 -16.81,1.54 -27.15,1.54 z m -2.94,-87.07 h -41.33 v 57.24 h 42.66 c 26.84,0 40.26,-9.67 40.26,-29.02 0,-9.9 -3.48,-17.07 -10.43,-21.53 -6.96,-4.46 -17.34,-6.69 -31.16,-6.69 z m -41.33,-79.17 v 50.68 h 36.38 c 9.89,0 17.54,-0.93 22.93,-2.81 5.4,-1.87 9.52,-5.43 12.38,-10.69 2.23,-3.75 3.34,-7.94 3.34,-12.58 0,-9.89 -3.52,-16.47 -10.57,-19.72 -7.04,-3.26 -17.78,-4.88 -32.23,-4.88 z"
                 style="font-variation-settings:normal;opacity:1;vector-effect:none;fill:#0b970f;fill-opacity:1;fill-rule:nonzero;stroke-width:0.873282;stroke-linecap:butt;stroke-linejoin:miter;stroke-miterlimit:1.5;stroke-dasharray:none;stroke-dashoffset:0;stroke-opacity:1;-inkscape-stroke:none;stop-color:#000000;stop-opacity:1"
                 id="path2636" />
            </g>
          </g>
          <g
             id="g8421"
             transform="translate(92.307538,-2875.93)"
             style="clip-rule:evenodd;fill-rule:evenodd;stroke-linecap:round;stroke-linejoin:round;stroke-miterlimit:1.5">
            <g
               transform="translate(1223.0788,3494.4481)"
               id="g2442">
              <g
                 transform="matrix(0.927056,0,0,0.923824,26.8553,32.328)"
                 id="g2436">
                <rect
                   x="368.16501"
                   y="424.388"
                   width="323.60501"
                   height="324.737"
                   style="fill:#ffeba3;stroke:none;stroke-width:2.64px"
                   id="rect2434" />
              </g>
              <g
                 transform="matrix(0.78813,0,0,0.78682,100.482,112.716)"
                 id="g2440">
                <rect
                   x="368.16501"
                   y="424.388"
                   width="323.60501"
                   height="324.737"
                   style="fill:#b2db93"
                   id="rect2438" />
              </g>
            </g>
            <g
               transform="translate(1223.0788,3494.4481)"
               id="g2452">
              <g
                 transform="matrix(0.927056,0,0,0.923824,26.8553,32.328)"
                 id="g2446">
                <rect
                   x="368.16501"
                   y="424.388"
                   width="323.60501"
                   height="324.737"
                   style="fill:#ffeba3;stroke:none;stroke-width:2.64px"
                   id="rect2444" />
              </g>
              <g
                 transform="matrix(0.78813,0,0,0.78682,100.482,112.716)"
                 id="g2450">
                <rect
                   x="368.16501"
                   y="424.388"
                   width="323.60501"
                   height="324.737"
                   style="fill:#b2db93"
                   id="rect2448" />
              </g>
            </g>
            <g
               transform="translate(1223.0788,3494.4481)"
               id="g2462">
              <g
                 transform="matrix(0.927056,0,0,0.923824,26.8553,32.328)"
                 id="g2456">
                <rect
                   x="368.16501"
                   y="424.388"
                   width="323.60501"
                   height="324.737"
                   style="fill:#ffeba3;stroke:none;stroke-width:2.64px"
                   id="rect2454" />
              </g>
              <g
                 transform="matrix(0.78813,0,0,0.78682,100.482,112.716)"
                 id="g2460">
                <rect
                   x="368.16501"
                   y="424.388"
                   width="323.60501"
                   height="324.737"
                   style="fill:#b2db93"
                   id="rect2458" />
              </g>
            </g>
            <g
               transform="matrix(0.910813,0,0,0.910813,240.40081,2167.0201)"
               id="g2646">
              <path
                 d="m 1739.45,2126.47 c 0,6.25 -1.54,13 -4.61,20.27 -3.08,7.26 -7.92,14.4 -14.51,21.39 -6.6,7 -15.03,12.69 -25.28,17.06 -10.26,4.36 -22.2,6.55 -35.85,6.55 -10.34,0 -19.74,-0.98 -28.21,-2.94 -8.47,-1.96 -16.16,-5.02 -23.07,-9.16 -6.91,-4.15 -13.27,-9.61 -19.06,-16.39 -5.17,-6.15 -9.59,-13.04 -13.24,-20.66 -3.66,-7.62 -6.4,-15.76 -8.23,-24.41 -1.83,-8.65 -2.74,-17.83 -2.74,-27.55 0,-15.78 2.3,-29.91 6.89,-42.39 4.59,-12.49 11.16,-23.16 19.73,-32.03 8.55,-8.88 18.59,-15.63 30.09,-20.27 11.5,-4.63 23.76,-6.95 36.77,-6.95 15.88,0 30.01,3.16 42.4,9.49 12.39,6.33 21.89,14.16 28.49,23.48 6.6,9.31 9.89,18.12 9.89,26.41 0,4.55 -1.6,8.56 -4.81,12.04 -3.21,3.47 -7.09,5.21 -11.63,5.21 -5.09,0 -8.9,-1.2 -11.44,-3.61 -2.54,-2.41 -5.37,-6.55 -8.49,-12.44 -5.17,-9.72 -11.26,-16.98 -18.26,-21.8 -7,-4.81 -15.62,-7.22 -25.88,-7.22 -16.31,0 -29.31,6.2 -38.98,18.59 -9.68,12.39 -14.51,30 -14.51,52.83 0,15.25 2.14,27.93 6.42,38.05 4.28,10.12 10.34,17.67 18.19,22.67 7.84,4.99 17.02,7.49 27.55,7.49 11.41,0 21.06,-2.83 28.95,-8.5 7.89,-5.66 13.84,-13.97 17.86,-24.94 1.69,-5.17 3.78,-9.38 6.28,-12.64 2.5,-3.25 6.51,-4.88 12.04,-4.88 4.72,0 8.78,1.65 12.17,4.95 3.39,3.3 5.08,7.4 5.08,12.3 z"
                 style="font-variation-settings:normal;opacity:1;vector-effect:none;fill:#0b970f;fill-opacity:1;fill-rule:nonzero;stroke-width:0.873282;stroke-linecap:butt;stroke-linejoin:miter;stroke-miterlimit:1.5;stroke-dasharray:none;stroke-dashoffset:0;stroke-opacity:1;-inkscape-stroke:none;stop-color:#000000;stop-opacity:1"
                 id="path2644" />
            </g>
          </g>
          <g
             id="g8468"
             transform="translate(-244.95261,-2525.9699)"
             style="clip-rule:evenodd;fill-rule:evenodd;stroke-linecap:round;stroke-linejoin:round;stroke-miterlimit:1.5">
            <g
               transform="translate(529.50881,3838.0581)"
               id="g1182">
              <g
                 transform="matrix(0.927056,0,0,0.923824,26.8553,32.328)"
                 id="g1176">
                <rect
                   x="368.16501"
                   y="424.388"
                   width="323.60501"
                   height="324.737"
                   style="fill:#ffeba3;stroke:none;stroke-width:2.64px"
                   id="rect1174" />
              </g>
              <g
                 transform="matrix(0.78813,0,0,0.78682,100.482,112.716)"
                 id="g1180">
                <rect
                   x="368.16501"
                   y="424.388"
                   width="323.60501"
                   height="324.737"
                   style="fill:#b2db93"
                   id="rect1178" />
              </g>
            </g>
            <g
               transform="translate(529.50881,3838.0581)"
               id="g1192">
              <g
                 transform="matrix(0.927056,0,0,0.923824,26.8553,32.328)"
                 id="g1186">
                <rect
                   x="368.16501"
                   y="424.388"
                   width="323.60501"
                   height="324.737"
                   style="fill:#ffeba3;stroke:none;stroke-width:2.64px"
                   id="rect1184" />
              </g>
              <g
                 transform="matrix(0.78813,0,0,0.78682,100.482,112.716)"
                 id="g1190">
                <rect
                   x="368.16501"
                   y="424.388"
                   width="323.60501"
                   height="324.737"
                   style="fill:#b2db93"
                   id="rect1188" />
              </g>
            </g>
            <g
               transform="translate(529.50881,3838.0581)"
               id="g1202">
              <g
                 transform="matrix(0.927056,0,0,0.923824,26.8553,32.328)"
                 id="g1196">
                <rect
                   x="368.16501"
                   y="424.388"
                   width="323.60501"
                   height="324.737"
                   style="fill:#ffeba3;stroke:none;stroke-width:2.64px"
                   id="rect1194" />
              </g>
              <g
                 transform="matrix(0.78813,0,0,0.78682,100.482,112.716)"
                 id="g1200">
                <rect
                   x="368.16501"
                   y="424.388"
                   width="323.60501"
                   height="324.737"
                   style="fill:#b2db93"
                   id="rect1198" />
              </g>
            </g>
            <g
               transform="matrix(0.910813,0,0,0.910813,-461.62619,2509.0981)"
               id="g2654">
              <path
                 d="m 1597.02,1992.33 h 51.75 c 13.47,0 25.01,1.25 34.64,3.75 9.63,2.49 18.37,7.17 26.21,14.04 20.42,17.48 30.63,44.04 30.63,79.71 0,11.77 -1.02,22.51 -3.07,32.23 -2.06,9.72 -5.22,18.48 -9.5,26.28 -4.28,7.8 -9.76,14.78 -16.45,20.93 -5.26,4.73 -11.01,8.52 -17.25,11.37 -6.24,2.85 -12.95,4.86 -20.13,6.02 -7.18,1.16 -15.27,1.74 -24.27,1.74 h -51.76 c -7.22,0 -12.66,-1.1 -16.32,-3.28 -3.65,-2.19 -6.04,-5.26 -7.15,-9.23 -1.12,-3.97 -1.68,-9.12 -1.68,-15.45 v -143.77 c 0,-8.56 1.92,-14.75 5.76,-18.59 3.83,-3.83 10.03,-5.75 18.59,-5.75 z m 15.38,31.43 v 133.07 h 30.09 c 6.6,0 11.77,-0.17 15.51,-0.53 3.75,-0.36 7.62,-1.25 11.64,-2.68 4.01,-1.42 7.49,-3.43 10.43,-6.01 13.28,-11.24 19.93,-30.59 19.93,-58.05 0,-19.35 -2.92,-33.84 -8.76,-43.46 -5.84,-9.63 -13.04,-15.76 -21.6,-18.39 -8.56,-2.63 -18.9,-3.95 -31.03,-3.95 z"
                 style="font-variation-settings:normal;opacity:1;vector-effect:none;fill:#0b970f;fill-opacity:1;fill-rule:nonzero;stroke-width:0.873282;stroke-linecap:butt;stroke-linejoin:miter;stroke-miterlimit:1.5;stroke-dasharray:none;stroke-dashoffset:0;stroke-opacity:1;-inkscape-stroke:none;stop-color:#000000;stop-opacity:1"
                 id="path2652" />
            </g>
          </g>
          <g
             id="g8449"
             transform="translate(439.76764,-2872.08)"
             style="clip-rule:evenodd;fill-rule:evenodd;stroke-linecap:round;stroke-linejoin:round;stroke-miterlimit:1.5">
            <g
               transform="translate(875.61881,3838.0581)"
               id="g2502">
              <g
                 transform="matrix(0.927056,0,0,0.923824,26.8553,32.328)"
                 id="g2496">
                <rect
                   x="368.16501"
                   y="424.388"
                   width="323.60501"
                   height="324.737"
                   style="fill:#ffeba3;stroke:none;stroke-width:2.64px"
                   id="rect2494" />
              </g>
              <g
                 transform="matrix(0.78813,0,0,0.78682,100.482,112.716)"
                 id="g2500">
                <rect
                   x="368.16501"
                   y="424.388"
                   width="323.60501"
                   height="324.737"
                   style="fill:#b2db93"
                   id="rect2498" />
              </g>
            </g>
            <g
               transform="translate(875.61881,3838.0581)"
               id="g2512">
              <g
                 transform="matrix(0.927056,0,0,0.923824,26.8553,32.328)"
                 id="g2506">
                <rect
                   x="368.16501"
                   y="424.388"
                   width="323.60501"
                   height="324.737"
                   style="fill:#ffeba3;stroke:none;stroke-width:2.64px"
                   id="rect2504" />
              </g>
              <g
                 transform="matrix(0.78813,0,0,0.78682,100.482,112.716)"
                 id="g2510">
                <rect
                   x="368.16501"
                   y="424.388"
                   width="323.60501"
                   height="324.737"
                   style="fill:#b2db93"
                   id="rect2508" />
              </g>
            </g>
            <g
               transform="matrix(0.910813,0,0,0.910813,-107.21519,2509.0981)"
               id="g2662">
              <path
                 d="m 1701.6,2022.96 h -89.47 v 48.15 h 82.38 c 6.07,0 10.59,1.36 13.58,4.07 2.98,2.72 4.48,6.31 4.48,10.77 0,4.46 -1.47,8.09 -4.42,10.9 -2.94,2.81 -7.49,4.21 -13.64,4.21 h -82.38 v 55.77 h 92.55 c 6.24,0 10.94,1.45 14.11,4.35 3.16,2.9 4.74,6.75 4.74,11.57 0,4.64 -1.58,8.4 -4.74,11.3 -3.17,2.9 -7.87,4.35 -14.11,4.35 h -107.93 c -8.65,0 -14.87,-1.92 -18.66,-5.76 -3.79,-3.83 -5.68,-10.02 -5.68,-18.59 v -147.38 c 0,-5.7 0.84,-10.36 2.54,-13.97 1.69,-3.61 4.35,-6.24 7.96,-7.89 3.61,-1.65 8.22,-2.48 13.84,-2.48 h 104.85 c 6.33,0 11.03,1.41 14.11,4.22 3.08,2.8 4.62,6.48 4.62,11.03 0,4.64 -1.54,8.36 -4.62,11.17 -3.08,2.8 -7.78,4.21 -14.11,4.21 z"
                 style="font-variation-settings:normal;opacity:1;vector-effect:none;fill:#0b970f;fill-opacity:1;fill-rule:nonzero;stroke-width:0.873282;stroke-linecap:butt;stroke-linejoin:miter;stroke-miterlimit:1.5;stroke-dasharray:none;stroke-dashoffset:0;stroke-opacity:1;-inkscape-stroke:none;stop-color:#000000;stop-opacity:1"
                 id="path2660" />
            </g>
          </g>
        </g>
      </g>
    </g>
  </g>
</svg>
