<?xml version="1.0" encoding="UTF-8" standalone="no"?>
<!-- Created with Inkscape (http://www.inkscape.org/) -->

<svg
   width="224.48729mm"
   height="152.33084mm"
   viewBox="0 0 224.4873 152.33084"
   version="1.1"
   id="svg4547"
   sodipodi:docname="2022-LV-03-taskbody5.svg"
   inkscape:version="1.1.1 (3bf5ae0d25, 2021-09-20)"
   xmlns:inkscape="http://www.inkscape.org/namespaces/inkscape"
   xmlns:sodipodi="http://sodipodi.sourceforge.net/DTD/sodipodi-0.dtd"
   xmlns="http://www.w3.org/2000/svg"
   xmlns:svg="http://www.w3.org/2000/svg">
  <sodipodi:namedview
     id="namedview4549"
     pagecolor="#ffffff"
     bordercolor="#666666"
     borderopacity="1.0"
     inkscape:pageshadow="2"
     inkscape:pageopacity="0.0"
     inkscape:pagecheckerboard="0"
     inkscape:document-units="mm"
     showgrid="false"
     inkscape:zoom="0.66368547"
     inkscape:cx="205.66971"
     inkscape:cy="455.78819"
     inkscape:window-width="1920"
     inkscape:window-height="1137"
     inkscape:window-x="-8"
     inkscape:window-y="-8"
     inkscape:window-maximized="1"
     inkscape:current-layer="layer1" />
  <defs
     id="defs4544" />
  <g
     inkscape:label="Ebene 1"
     inkscape:groupmode="layer"
     id="layer1"
     transform="translate(-17.205462,-5.2038125)">
    <g
       id="g4074"
       style="clip-rule:evenodd;fill-rule:evenodd;stroke-linecap:round;stroke-linejoin:round;stroke-miterlimit:1.5"
       transform="matrix(0.26458333,0,0,0.26458333,-882.07482,-46.177016)">
      <g
         transform="matrix(0.839423,0,0,0.839423,3197.28,-106.695)"
         id="g152">
        <g
           transform="translate(12.4188,13.1429)"
           id="g130">
          <path
             d="m 1066.15,392.719 -631.049,12.764 c -0.417,221.909 -11.954,433.519 25.386,625.697 211.329,-4.18 430.269,-21.12 628.843,-3.93 -17.51,-198.357 -17.08,-420.835 -23.18,-634.531 z"
             style="fill:#b7b7b7"
             id="path128" />
        </g>
        <g
           transform="translate(2.97862,6.99226)"
           id="g134">
          <path
             d="m 1066.15,392.719 -631.049,12.764 c -0.417,221.909 -11.954,433.519 25.386,625.697 l 622.453,-15.66 z"
             style="fill:#fff7d8;stroke:#000b7c;stroke-width:2.38px"
             id="path132" />
        </g>
        <g
           transform="translate(45.5311,8.28659)"
           id="g138">
          <path
             d="m 630.797,482.37 c 0,33.737 4.184,128.288 5.457,162.001 1.624,43.047 0.484,86.23 2.809,129.249 1.26,23.296 6.777,154.703 1.001,172.031"
             style="fill:none;stroke:#000000;stroke-width:11.91px"
             id="path136" />
        </g>
        <g
           transform="rotate(-89.623936,675.60438,612.80262)"
           id="g142">
          <path
             d="m 630.797,482.37 c 0,33.737 4.184,128.288 5.457,162.001 1.624,43.047 0.484,86.23 2.809,129.249 1.26,23.296 6.777,154.703 1.001,172.031"
             style="fill:none;stroke:#000000;stroke-width:11.91px"
             id="path140" />
        </g>
        <g
           transform="rotate(-90.809651,756.57441,683.06907)"
           id="g146">
          <path
             d="m 630.797,482.37 c 0,33.737 4.184,128.288 5.457,162.001 1.624,43.047 0.484,86.23 2.809,129.249 1.26,23.296 6.777,154.703 1.001,172.031"
             style="fill:none;stroke:#000000;stroke-width:11.91px"
             id="path144" />
        </g>
        <g
           transform="translate(218.021,8.03975)"
           id="g150">
          <path
             d="m 630.797,482.37 c 0,33.737 4.184,128.288 5.457,162.001 1.624,43.047 0.484,86.23 2.809,129.249 1.26,23.296 6.777,154.703 1.001,172.031"
             style="fill:none;stroke:#000000;stroke-width:11.91px"
             id="path148" />
        </g>
      </g>
      <g
         transform="matrix(-0.505355,-0.770487,0.828789,-0.543595,4104.28,1458.92)"
         id="g186">
        <path
           style="color:#000000;clip-rule:nonzero;fill:#ff0041;fill-rule:nonzero;stroke-linecap:butt;stroke-linejoin:miter;-inkscape-stroke:none"
           d="m 1027.2246,255.60547 c -20.4437,0.0287 -42.08123,10.84399 -52.52343,31.75 -7.33047,14.67634 -8.19132,29.00478 -4.01562,40.86914 4.17569,11.86436 13.07924,20.98455 23.81836,26.47266 21.47759,10.97587 51.50149,7.74963 69.66989,-16.0918 1.9298,-2.53107 2.8037,-4.68729 4.2539,-8.04102 1.4502,-3.35373 2.9959,-7.42357 4.336,-11.73828 1.3401,-4.3147 2.4796,-8.84293 3.0332,-13.27539 0.5534,-4.43115 0.8391,-8.77656 -1.2617,-13.48828 -0.5299,-1.19272 -1.0719,-2.29511 -2.0313,-3.55664 -0.092,-0.12117 -0.303,-0.30335 -0.4062,-0.44141 -5.8286,-21.34137 -25.3472,-32.48642 -44.8731,-32.45898 z m 0.022,15.92969 c 14.7798,-0.0208 26.9017,6.63431 30.125,22.63086 0.355,1.73368 1.2772,3.29978 2.6211,4.45117 -0.067,-0.0893 0.3655,2.01699 0,4.95898 -0.3773,3.02154 -1.2927,6.82711 -2.4414,10.52539 -1.1486,3.69829 -2.5259,7.32336 -3.7441,10.14063 -1.2182,2.81726 -2.7586,5.30814 -2.2988,4.70508 v 0.002 c -13.5217,17.7455 -34.597,19.30627 -49.75,11.5625 -7.57649,-3.87189 -13.37106,-9.99006 -16.04101,-17.57617 -2.66995,-7.58612 -2.52378,-16.92081 3.24023,-28.46094 7.43979,-14.89496 23.51318,-22.91868 38.29298,-22.93945 z"
           id="path184"
           sodipodi:nodetypes="sssscssscscsccccssccssscc" />
      </g>
      <g
         transform="matrix(0.373496,-0.842339,0.906078,0.401758,3320.8,1238.07)"
         id="g190">
        <path
           style="color:#000000;clip-rule:nonzero;fill:#ff0041;fill-rule:nonzero;stroke-linecap:butt;stroke-linejoin:miter;-inkscape-stroke:none"
           d="m 1027.2246,255.60547 c -20.4437,0.0287 -42.08123,10.84399 -52.52343,31.75 -7.33047,14.67634 -8.19132,29.00478 -4.01562,40.86914 4.17569,11.86436 13.07924,20.98455 23.81836,26.47266 21.47759,10.97587 51.50149,7.74963 69.66989,-16.0918 1.9298,-2.53107 2.8037,-4.68729 4.2539,-8.04102 1.4502,-3.35373 2.9959,-7.42357 4.336,-11.73828 1.3401,-4.3147 2.4796,-8.84293 3.0332,-13.27539 0.5534,-4.43115 0.8391,-8.77656 -1.2617,-13.48828 -0.5299,-1.19272 -1.0719,-2.29511 -2.0313,-3.55664 -0.092,-0.12117 -0.303,-0.30335 -0.4062,-0.44141 -5.8286,-21.34137 -25.3472,-32.48642 -44.8731,-32.45898 z m 0.022,15.92969 c 14.7798,-0.0208 26.9017,6.63431 30.125,22.63086 0.355,1.73368 1.2772,3.29978 2.6211,4.45117 -0.067,-0.0893 0.3655,2.01699 0,4.95898 -0.3773,3.02154 -1.2927,6.82711 -2.4414,10.52539 -1.1486,3.69829 -2.5259,7.32336 -3.7441,10.14063 -1.2182,2.81726 -2.7586,5.30814 -2.2988,4.70508 v 0.002 c -13.5217,17.7455 -34.597,19.30627 -49.75,11.5625 -7.57649,-3.87189 -13.37106,-9.99006 -16.04101,-17.57617 -2.66995,-7.58612 -2.52378,-16.92081 3.24023,-28.46094 7.43979,-14.89496 23.51318,-22.91868 38.29298,-22.93945 z"
           id="path188"
           sodipodi:nodetypes="sssscssscscsccccssccssscc" />
      </g>
      <g
         transform="matrix(-0.505355,-0.770487,0.828789,-0.543595,3949.56,1315.27)"
         id="g202">
        <path
           d="m 1060.99,278.29 c -11.32,-22.113 -42.81,-24.409 -66.559,-10.887 -21.314,12.135 -36.06,36.453 -19.907,67.945 2.134,4.161 4.759,10.843 8.334,15.74 2.247,3.078 4.873,5.544 7.784,6.965 31.168,15.217 58.708,7.646 73.558,-9.751 14.51,-16.987 17.2,-43.87 -1.88,-68.792 -0.37,-0.493 -0.82,-0.901 -1.33,-1.22 z m -0.14,18.87 c -0.96,0.562 -2.05,0.949 -3.24,1.108 -4.52,0.604 -8.71,-2.317 -9.36,-6.518 -3.02,-20.967 -28.2,-22.025 -46.06,-12.301 -16.076,8.756 -26.818,26.85 -15.274,50.544 1.611,3.306 3.455,8.354 5.971,12.585 1.167,1.964 2.316,3.84 3.99,4.697 24.293,12.435 46.213,7.646 58.203,-5.844 9.82,-11.048 12.9,-27.471 5.77,-44.271 z"
           style="fill:#ff0041"
           id="path200" />
      </g>
      <g
         transform="translate(3466.85,50.5981)"
         id="g218">
        <path
           id="path216"
           style="fill:#000b7c"
           d="m 4003.2461,305.4668 c -1.2507,0.0275 -2.6583,0.35745 -4.2266,1.12695 -3.729,1.947 -5.1755,6.5552 -3.2285,10.2832 l 0.041,0.0762 c -0.285,1.121 -0.6499,2.44147 -1.0449,3.60547 -2.5892,7.61902 -7.4209,18.93843 -13.2363,31.06055 -4.3259,-6.62896 -8.9852,-13.06991 -13.9082,-19.41602 -2.625,-3.38499 -12.6406,-16.99018 -17.1836,-22.11718 -2.029,-2.29 -3.8806,-3.40619 -4.6406,-3.74219 -2.706,-1.197 -4.8754,-0.52823 -6.3614,0.13477 -2.024,0.904 -3.6927,2.61687 -4.3008,5.67187 -0.5989,3.436 1.2081,6.73873 4.2071,8.17773 l 0.039,0.0371 c 4.615,4.731 14.8726,17.40002 17.5586,20.54102 6.317,7.384 12.2616,14.91622 17.6446,22.82422 0.1783,0.26202 0.3443,0.53214 0.5215,0.79492 -9.2814,17.99203 -19.7743,35.59863 -27.7227,43.95703 -1.855,1.855 -1.855,4.86766 0,6.72266 1.855,1.855 4.8696,1.855 6.7246,0 7.9019,-7.51471 18.3907,-22.78192 28.2246,-39.14649 2.3285,4.04375 4.5074,8.19323 6.5098,12.48047 0.799,1.711 4.1118,7.37738 6.5078,13.23438 1.042,2.55 1.9535,5.11708 2.2285,7.33008 0.064,0.513 0.117,0.99445 0.084,1.43945 -0.014,0.192 -0.051,0.5293 -0.051,0.5293 0,0 0.113,-0.10711 0.166,-0.16211 -1.855,1.855 -1.855,4.86861 0,6.72461 1.856,1.855 4.8677,1.855 6.7227,0 2.688,-2.562 3.4784,-7.41524 2.2734,-13.11524 -1.672,-7.908 -6.9042,-17.92405 -7.9082,-20.37305 -2.8254,-6.89335 -6.0756,-13.49092 -9.6582,-19.88476 8.3982,-14.86704 15.6451,-29.35996 19.3262,-38.63477 2.234,-5.628 3.0566,-9.88754 2.9746,-11.93554 -0.135,-3.37 -1.8285,-5.30424 -3.3125,-6.49024 -1.2356,-0.98812 -2.8862,-1.78028 -4.9707,-1.73437 z"
           transform="translate(-3466.85,-50.5981)" />
      </g>
      <g
         transform="matrix(0.813707,0,0,0.809439,2020.99,126.797)"
         id="g334">
        <path
           id="path332"
           style="fill:#000b7c;stroke-width:0.81157"
           d="m 3753.2402,584.75391 c -0.3484,-0.008 -0.7105,0.004 -1.0879,0.0371 -3.1816,0.34563 -5.6957,2.61236 -6.5175,5.52148 -1.1636,1.97179 -3.5333,5.51908 -6.7637,10.17578 -7.0641,10.19474 -18.0826,25.4667 -29.7266,41.25391 -3.8354,-5.35419 -7.552,-10.71138 -10.9941,-15.86914 -9.87,-14.799 -17.5895,-27.82794 -19.1895,-34.33594 -0.47,-2.183 -2.6305,-3.5707 -4.8105,-3.0957 -2.18,0.474 -3.5696,2.63245 -3.0996,4.81445 1.8769,9.84618 15.5742,34.32285 30.9609,58.12695 -13.3897,17.98598 -26.7856,35.50825 -35.3965,45.92188 -3.4664,4.19127 -6.0633,7.18767 -7.5117,8.42773 l -0.016,0.0137 c -1.6762,0.73255 -2.8555,2.40796 -2.8555,4.35547 0,2.62339 2.1315,4.75196 4.7598,4.75196 0.7486,0.0146 2.3182,-0.26201 4.1816,-1.73438 1.7169,-1.35905 4.883,-4.62502 9.041,-9.2793 8.5294,-9.54353 21.5676,-25.27556 34.8731,-41.73437 3.5755,5.30448 7.1603,10.46887 10.6328,15.2793 10.29,14.254 19.7491,25.50462 25.1191,29.64062 4.7,3.62 8.8894,3.22461 11.1094,2.34961 3.87,-1.649 5.6715,-6.13 4.0215,-10 -1.12,-2.631 -3.5412,-4.30584 -6.2012,-4.58984 -1.54,-1.256 -6.0297,-5.02413 -9.7597,-9.07813 -7.7184,-8.38021 -17.4674,-20.47602 -27.0801,-33.3457 13.1829,-16.46501 25.8607,-32.66899 33.8379,-43.28711 4.1173,-5.47262 7.0154,-9.54784 8.2441,-11.53906 1.2938,-2.10697 1.5459,-3.704 1.6192,-4.31836 0.3417,-2.89699 -0.8957,-4.73468 -1.9454,-5.9375 -1.2602,-1.45052 -3.006,-2.47236 -5.4453,-2.52539 z"
           transform="matrix(1.2289436,0,0,1.2354235,-2483.6827,-156.648)" />
      </g>
      <path
         id="path346"
         style="fill:#000b7c"
         d="m 3874.6504,579.2168 c -1.7016,-0.0307 -3.6915,0.20517 -5.9902,0.82617 -4.03,1.218 -6.3099,5.47595 -5.0899,9.50195 0.73,2.412 2.5498,4.19556 4.7598,4.97656 -4.5332,9.21527 -15.0461,23.47113 -26.0879,37.35743 -8.5773,-13.27298 -16.8887,-26.71643 -28.502,-39.02149 -2.98,-2.97 -7.8093,-2.96337 -10.7793,0.0156 -2.97,2.979 -2.9702,7.80929 0.01,10.77929 12.5958,11.81657 21.7685,25.0631 31.3379,38.05274 -13.3072,16.22253 -25.5095,30.01664 -26.9277,31.69726 -1.49,1.663 -1.3514,4.22189 0.3086,5.71289 1.67,1.491 4.2307,1.35246 5.7207,-0.31054 1.4835,-1.55771 13.5672,-13.76631 27.2988,-28.60547 4.407,5.67873 9.051,11.23697 14.2812,16.51953 8.03,8.122 17.3399,15.65002 29.0899,22.04102 1.93,1.125 4.409,0.47392 5.539,-1.45508 1.12,-1.928 0.4711,-4.41016 -1.4589,-5.53516 -10.52,-6.576 -18.6997,-14.0623 -25.6797,-22.0293 -5.135,-5.85833 -9.6194,-11.97384 -13.8555,-18.19726 5.4433,-6.03159 10.8835,-12.23171 15.7949,-18.13867 9.48,-11.399 16.8992,-21.89063 19.3692,-28.26563 2.73,-7.028 0.2803,-11.74961 -2.9297,-14.09961 -1.3375,-0.98062 -3.373,-1.77108 -6.209,-1.82226 z" />
      <path
         id="path350"
         style="fill:#000b7c"
         d="m 4036.9648,572.04102 c -1.7713,0.1099 -3.8822,1.04318 -6.2753,3.14843 -0.37,0.29 -0.7191,0.61361 -1.0391,0.97461 l -0.291,0.29102 c -0.56,0.569 -1.8394,1.84681 -2.8594,2.63281 -1.42,1.157 -2.3104,2.72072 -2.6504,4.38672 -5.65,7.356 -10.9994,14.95942 -16.1094,22.73242 -2.6992,4.10917 -5.3193,8.26738 -7.9004,12.44727 -1.038,-1.39183 -1.8771,-2.56029 -2.3789,-3.35742 -1.56,-2.46301 -13.4013,-23.32611 -17.6113,-30.66211 -0.17,-0.302 -0.3495,-0.59582 -0.5195,-0.88282 -0.11,-0.24 -0.2292,-0.47503 -0.3692,-0.70703 -0.39,-0.609 -0.7909,-1.18279 -1.2109,-1.7168 -5.28,-7.44299 -10.1504,-8.02184 -12.6504,-5.08984 -2.65,1.55 -3.5705,5.60628 -0.4805,11.98828 0.34,0.85 0.7505,1.71585 1.2305,2.58985 0.29,0.504 0.6413,0.96118 1.0313,1.36718 l 0.2089,0.32422 c 4.74,7.159 18.0904,27.52102 19.8204,29.91602 1.0434,1.44226 3.3544,4.12997 6.1992,7.35156 -1.387,2.34375 -2.7649,4.69175 -4.1289,7.04492 -6.9,11.907 -12.6297,24.03808 -19.4297,35.70508 -2.82,4.856 -5.8312,9.62972 -9.2012,14.26172 -1.36,1.77 -1.0298,4.31283 0.7402,5.67383 1.77,1.362 4.3197,1.02976 5.6797,-0.74024 3.8,-4.674 7.2112,-9.51508 10.4512,-14.45508 7.39,-11.27999 13.7498,-23.0817 21.2598,-34.5957 0.864,-1.32478 1.7415,-2.64339 2.6133,-3.96484 6.3996,7.09349 13.7964,15.25466 19.9863,22.42969 4.57,5.304 8.4591,10.00628 10.6191,13.23828 0.62,0.916 1.3203,2.20312 1.3203,2.20312 0,0 -0.01,-0.34865 -0.019,-0.47265 0,2.234 1.8208,4.04687 4.0508,4.04687 2.23,0 4.0488,-1.81287 4.0488,-4.04687 0.03,-0.969 -0.4002,-2.61571 -1.4902,-4.72071 -1.28,-2.463 -3.69,-6.05034 -6.75,-10.27734 -6.9712,-9.63367 -17.2278,-22.36528 -25.1172,-32.31836 3.4852,-5.0989 7.0419,-10.15455 10.707,-15.13477 6.65,-9.044 13.6411,-17.81429 21.1211,-26.15429 l 0.7598,-0.8418 0.1191,-0.13867 0.3809,-0.41797 c 0.28,-0.318 0.5395,-0.65577 0.7695,-1.00977 3.52,-4.773 2.8004,-8.23186 0.4004,-10.13086 -1.0406,-1.83993 -2.7578,-3.05926 -5.0352,-2.91796 z" />
    </g>
  </g>
</svg>
