<?xml version="1.0" encoding="UTF-8" standalone="no"?>
<svg
   xmlns:dc="http://purl.org/dc/elements/1.1/"
   xmlns:cc="http://creativecommons.org/ns#"
   xmlns:rdf="http://www.w3.org/1999/02/22-rdf-syntax-ns#"
   xmlns:svg="http://www.w3.org/2000/svg"
   xmlns="http://www.w3.org/2000/svg"
   xmlns:sodipodi="http://sodipodi.sourceforge.net/DTD/sodipodi-0.dtd"
   xmlns:inkscape="http://www.inkscape.org/namespaces/inkscape"
   inkscape:version="1.0 (4035a4fb49, 2020-05-01)"
   sodipodi:docname="2022-PH-03-hare.svg"
   id="svg8113"
   version="1.1"
   viewBox="0 0 52.641865 37.156357"
   height="37.156357mm"
   width="52.641865mm">
  <defs
     id="defs8107" />
  <sodipodi:namedview
     showgrid="false"
     inkscape:document-rotation="0"
     inkscape:current-layer="layer1"
     inkscape:document-units="mm"
     inkscape:cy="560"
     inkscape:cx="400"
     inkscape:zoom="0.35"
     inkscape:pageshadow="2"
     inkscape:pageopacity="0.0"
     borderopacity="1.0"
     bordercolor="#666666"
     pagecolor="#ffffff"
     id="base" />
  <metadata
     id="metadata8110">
    <rdf:RDF>
      <cc:Work
         rdf:about="">
        <dc:format>image/svg+xml</dc:format>
        <dc:type
           rdf:resource="http://purl.org/dc/dcmitype/StillImage" />
        <dc:title></dc:title>
      </cc:Work>
    </rdf:RDF>
  </metadata>
  <g
     transform="translate(-78.679066,-129.92182)"
     id="layer1"
     inkscape:groupmode="layer"
     inkscape:label="Ebene 1">
    <g
       style="clip-rule:evenodd;fill-rule:evenodd;stroke-linecap:round;stroke-linejoin:round;stroke-miterlimit:1.5"
       id="g547"
       transform="matrix(0.18063077,0,0,0.18063077,-120.56988,-70.667879)">
      <g
         id="g493"
         transform="translate(-22.3769,-8.99666)">
        <path
           id="path491"
           style="fill:#814f2e"
           d="m 1278.78,1287.05 c -15.04,-3.57 40.59,24.65 65.3,12.45 2.74,-1.36 -14.6,-12.58 -16.77,-13.82 -7.45,-4.25 -15.18,-7.66 -23.68,-8.87 z" />
      </g>
      <path
         id="path495"
         style="fill:#814f2e"
         d="m 1258.05,1158.24 c 3.38,0.89 33.24,-5.29 36.71,-5.72 25.17,-3.15 -9.55,-29.43 -46.08,-4.7 -3.79,2.56 -8.86,1.09 -12.65,1.94 z" />
      <path
         id="path497"
         style="fill:#814f2e"
         d="m 1124.39,1186.46 c -3.78,-4.17 5.53,-22.48 8.46,-29.98 5.25,-13.49 50.75,-54.27 64.59,-39.48 4.01,4.29 -18.5,23.35 -19.5,24.53 z" />
      <path
         id="path499"
         style="fill:#814f2e"
         d="m 1118.85,1238.35 c -0.74,-3.44 7.7,37.15 16.38,43.09 14.18,9.72 21.94,27.43 39.18,30.88 25.47,5.09 11.95,-26.2 -6.51,-28.25 z" />
      <path
         id="path501"
         style="fill:#a35e31"
         d="m 1312.45,1182.17 c 2.52,-0.96 -22.41,-16.99 -47.3,-30.38 -13.3,-7.15 -44.87,-12.62 -65.91,-13.68 -7.82,-0.39 -40.5,8.96 -50.19,15.42 -18.65,12.45 -32.13,30.81 -35.64,55.37 -0.78,5.43 1.47,28.45 14.32,46.43 11.93,16.69 34.87,26.48 40.92,29.53 15.59,7.85 149.27,-5.61 141.67,-40.16 z" />
      <path
         id="path503"
         style="fill:#945933"
         d="m 1115.03,1225.52 c -6.65,-99.46 182.47,-84.39 196.65,-20.82 l 0.77,-22.53 c 2.52,-0.96 -22.41,-16.99 -47.3,-30.38 -13.3,-7.15 -44.87,-12.62 -65.91,-13.68 -7.82,-0.39 -40.5,8.96 -50.19,15.42 -18.65,12.45 -32.13,30.81 -35.64,55.37 -0.36,2.52 -0.07,8.81 1.62,16.62 z" />
      <path
         id="path505"
         style="fill:#814f2e"
         d="m 1305.48,1184.39 c 0,0 -68.86,-30.93 -88.65,-16.09 -33.85,25.38 32.46,35.48 44.39,39.46 8.8,2.93 18.87,-0.95 27.62,1.97 2.27,0.76 9.3,1.97 6.9,1.97 -14.72,0 -30.67,-3.71 -46.36,-1.97 -66.67,7.41 6.64,72.62 57.21,28.61 l 0.38,0.4 c 35.57,30.32 93.85,0.79 79.53,-40.85 -2.91,-8.43 -9.9,-16.31 -19.27,-21.77 -7.88,-4.6 -22.4,-7.4 -31.72,-5.52 -7.95,1.6 -30.07,13.92 -30.03,13.79 z" />
      <g
         id="g509"
         transform="matrix(1,0,0,0.865221,-0.739947,155.259)">
        <path
           id="path507"
           style="fill:#dc9fb6"
           d="m 1226.58,1183.23 c 10.24,9.35 77.12,15.7 72.96,7.64 -2.04,-3.95 -44.55,-15.46 -61.23,-16.57 -5.23,-0.35 -13.81,-1.89 -16.38,3.9 -2.11,4.76 1.84,2.47 4.65,5.03 z" />
      </g>
      <g
         id="g513"
         transform="matrix(1.11253,0,0,0.943565,-128.976,69.3989)">
        <path
           id="path511"
           style="fill:#945933"
           d="m 1118.2,1200.18 c 0.53,-1.82 2.46,-1.67 3.97,-1.67 3.45,-0.01 5.68,-0.01 9,1.08 1.91,0.62 3.8,1.37 5.57,2.33 4.59,2.5 6.92,7.68 8.36,12.41 0.61,1.98 1.23,4.47 0.99,6.57 -0.29,2.53 -3.77,3.71 -5.48,4.68 -1.15,0.64 -14.41,4.28 -16.82,4.13 -1.38,-0.09 -2.44,-1.17 -3.33,-2.07 -0.2,-0.21 -0.97,-1.09 -0.54,-1.52 z" />
      </g>
      <path
         id="path515"
         style="fill:#dc9fb6"
         d="m 1303.08,1231.18 c 2.53,-0.98 -48,-1.41 -56.58,0.25 -3.15,0.61 -7.24,1.73 -8.58,5.07 -0.59,1.48 1.32,2.58 2.15,3.32 3.57,3.17 7.05,4.44 11.7,5.65 11.65,3.04 49.13,-4.51 49.13,-8.38 z" />
      <g
         id="g519"
         transform="matrix(1.49744,0,0,1.24637,-567.139,-294.512)">
        <path
           id="path517"
           style="fill:#ffffff"
           d="m 1119.3,1202.45 c 0.53,-2.5 6.43,-0.94 8.82,0.42 11.85,6.77 23.51,14.46 -4.01,23.63 -6.81,-1.67 -7.62,-11.06 -4.81,-24.05 z" />
      </g>
      <g
         id="g523"
         transform="translate(41.8678,-16.7107)">
        <path
           id="path521"
           style="fill:#f4dcdc"
           d="m 1070.74,1249.92 c -6.85,-3.92 -7.29,-14.59 -3.63,-28.66 0.8,-3.11 9.64,-1.17 13.2,0.52 7.91,3.76 15.76,7.75 18.39,12.02 -3.7,-2.81 -10.06,-3.17 -15.44,-5.86 -13.87,-6.94 -20.43,14.18 -12.52,21.98 z" />
      </g>
      <g
         id="g527"
         transform="matrix(0.773882,-0.192258,0.241105,0.970499,16.1262,295.675)">
        <path
           id="path525"
           style="fill:#ffffff"
           d="m 1352.23,1232.03 c -2.46,-1.12 -4.7,-3.02 -7.37,-3.69 -5.94,-1.48 -16.96,2.32 -15.68,9.96 0.44,2.63 3.67,3.76 5.71,4.61 5.93,2.47 16.29,2.43 20.85,-2.58 2.52,-2.77 -0.48,-6.93 -3.51,-8.3 z" />
      </g>
      <g
         id="g531"
         transform="matrix(0.774576,0.189443,0.237573,-0.97137,22.4,2133.65)">
        <path
           id="path529"
           style="fill:#ffffff"
           d="m 1352.23,1232.03 c -2.46,-1.12 -4.7,-3.02 -7.37,-3.69 -5.94,-1.48 -16.96,2.32 -15.68,9.96 0.44,2.63 3.67,3.76 5.71,4.61 5.93,2.47 16.29,2.43 20.85,-2.58 2.52,-2.77 -0.48,-6.93 -3.51,-8.3 z" />
      </g>
      <g
         id="g535"
         transform="matrix(0.826635,0,0,0.89935,243.943,122.706)">
        <path
           id="path533"
           d="m 1353.28,1236.53 c 0,0 -2.97,-1.21 -4.18,-1.7 -5.04,-2.05 -13.65,5.98 -7.3,9.57 5.32,3 15.6,-2.4 11.48,-7.87 z" />
      </g>
      <g
         id="g539"
         transform="matrix(0.826635,0,0,-0.89935,246.478,2302.13)">
        <path
           id="path537"
           d="m 1353.28,1236.53 c 0,0 -2.92,-1.34 -4.18,-1.7 -5.5,-1.58 -11.36,6.56 -7.3,9.57 4.91,3.64 15.6,-2.4 11.48,-7.87 z" />
      </g>
      <path
         id="path541"
         style="fill:#de9090"
         d="m 1388.13,1201.32 c -2.54,-0.5 -4.48,0.68 -7.11,2.62 -4.9,3.62 -9.33,8.48 -8.93,14.93 0.22,3.4 3.8,5.21 6.15,7.17 0.73,0.61 1.29,1.16 2.2,1.47 0.24,0.08 4.43,1.06 3.72,1.06 6.15,-5.07 9.44,-13.96 3.97,-27.25 z" />
      <g
         id="g545"
         transform="matrix(0.687987,0,0,0.768029,402.553,261.813)">
        <path
           id="path543"
           style="fill:#f9e2e2"
           d="m 1426.82,1228.18 c 4.48,12.29 1.24,20.61 -4.6,25.46 0.05,0.03 0.04,0.04 -0.05,0.04 l 0.05,-0.04 c -0.11,-0.06 -0.55,-0.19 -1.1,-0.34 0.4,0.31 0.81,0.57 1.34,0.75 0.21,0.07 3.43,0.83 3.77,1.02 l -0.05,0.04 c 0.09,0 0.1,-0.01 0.05,-0.04 6.12,-5.08 9.38,-13.95 3.92,-27.21 -1.2,-0.23 -2.26,-0.09 -3.33,0.32 z" />
      </g>
    </g>
  </g>
</svg>
