<?xml version="1.0" encoding="UTF-8" standalone="no"?>
<svg
   xmlns:dc="http://purl.org/dc/elements/1.1/"
   xmlns:cc="http://creativecommons.org/ns#"
   xmlns:rdf="http://www.w3.org/1999/02/22-rdf-syntax-ns#"
   xmlns:svg="http://www.w3.org/2000/svg"
   xmlns="http://www.w3.org/2000/svg"
   xmlns:sodipodi="http://sodipodi.sourceforge.net/DTD/sodipodi-0.dtd"
   xmlns:inkscape="http://www.inkscape.org/namespaces/inkscape"
   sodipodi:docname="answer-explanation-3.svg"
   inkscape:version="1.0 (4035a4f, 2020-05-01)"
   id="svg1190"
   version="1.1"
   viewBox="0 0 80.155548 80.155548"
   height="80.155548mm"
   width="80.155548mm">
  <defs
     id="defs1184" />
  <sodipodi:namedview
     inkscape:document-rotation="0"
     fit-margin-bottom="40.07777"
     fit-margin-right="0"
     fit-margin-left="40.07777"
     fit-margin-top="0"
     inkscape:window-maximized="1"
     inkscape:window-y="25"
     inkscape:window-x="0"
     inkscape:window-height="847"
     inkscape:window-width="1440"
     showgrid="false"
     inkscape:current-layer="layer1"
     inkscape:document-units="mm"
     inkscape:cy="151.47505"
     inkscape:cx="291.0976"
     inkscape:zoom="2.1092582"
     inkscape:pageshadow="2"
     inkscape:pageopacity="0.0"
     borderopacity="1.0"
     bordercolor="#666666"
     pagecolor="#ffffff"
     id="base" />
  <metadata
     id="metadata1187">
    <rdf:RDF>
      <cc:Work
         rdf:about="">
        <dc:format>image/svg+xml</dc:format>
        <dc:type
           rdf:resource="http://purl.org/dc/dcmitype/StillImage" />
        <dc:title></dc:title>
      </cc:Work>
    </rdf:RDF>
  </metadata>
  <g
     transform="translate(-123.43996,-97.875438)"
     id="layer1"
     inkscape:groupmode="layer"
     inkscape:label="Laag 1">
    <g
       id="g2061">
      <rect
         style="opacity:1;fill:#e9ddaf;fill-opacity:1;stroke:#786721;stroke-width:0.6;stroke-linecap:butt;stroke-linejoin:round;stroke-miterlimit:4;stroke-dasharray:none;stroke-dashoffset:0;stroke-opacity:1"
         id="rect815-5"
         width="39.477776"
         height="39.477776"
         x="163.81773"
         y="-137.65321"
         ry="4.9136906"
         rx="4.9136906"
         transform="scale(1,-1)" />
      <path
         style="opacity:1;fill:#0000ff;fill-opacity:1;stroke:none;stroke-width:0.6;stroke-linecap:butt;stroke-linejoin:round;stroke-miterlimit:4;stroke-dasharray:none;stroke-dashoffset:0;stroke-opacity:1"
         d="m 179.11908,98.486397 -2.72967,4.109343 4.92911,-0.20418 2.19396,4.41863 2.28773,-4.37083 4.92363,0.30929 -2.64138,-4.262163 z"
         id="path824-2"
         inkscape:connector-curvature="0"
         sodipodi:nodetypes="cccccccc"
         inkscape:transform-center-y="1.1888282e-06" />
      <circle
         style="opacity:1;fill:#000000;fill-opacity:1;stroke:none;stroke-width:0.6;stroke-linecap:butt;stroke-linejoin:round;stroke-miterlimit:4;stroke-dasharray:none;stroke-dashoffset:0;stroke-opacity:1"
         id="path919"
         cx="183.55663"
         cy="134.25681"
         r="3.0735996" />
      <path
         style="opacity:1;fill:#0000ff;fill-opacity:1;stroke:none;stroke-width:0.6;stroke-linecap:butt;stroke-linejoin:round;stroke-miterlimit:4;stroke-dasharray:none;stroke-dashoffset:0;stroke-opacity:1"
         d="m 202.93735,122.35187 -4.10934,2.72967 0.20418,-4.92911 -4.41863,-2.19396 4.37083,-2.28773 -0.30929,-4.92363 4.26216,2.64138 z"
         id="path824"
         inkscape:connector-curvature="0"
         sodipodi:nodetypes="cccccccc"
         inkscape:transform-center-y="-1.2986915e-06" />
      <rect
         style="opacity:1;fill:#ff0000;fill-opacity:1;stroke:none;stroke-width:0.6;stroke-linecap:butt;stroke-linejoin:round;stroke-miterlimit:4;stroke-dasharray:none;stroke-dashoffset:0;stroke-opacity:1"
         id="rect817-6-0"
         width="5"
         height="10"
         x="164.17957"
         y="-122.91432"
         transform="scale(1,-1)" />
    </g>
    <g
       transform="matrix(0,-1.0000056,0.99999996,0,65.642625,444.12189)"
       id="g2081">
      <rect
         transform="scale(-1,1)"
         rx="4.9136906"
         ry="4.9136906"
         y="98.175438"
         x="-305.86685"
         height="39.477776"
         width="39.477776"
         id="rect815-3-5"
         style="opacity:1;fill:#e9ddaf;fill-opacity:1;stroke:#786721;stroke-width:0.6;stroke-linecap:butt;stroke-linejoin:round;stroke-miterlimit:4;stroke-dasharray:none;stroke-dashoffset:0;stroke-opacity:1" />
      <path
         sodipodi:nodetypes="cccc"
         inkscape:connector-curvature="0"
         id="rect821-53-2"
         d="m 266.73939,110.14255 v 15.54356 l 7.77179,-7.77178 z"
         style="opacity:1;fill:#00ffff;fill-opacity:1;stroke:none;stroke-width:0.439638;stroke-linecap:butt;stroke-linejoin:round;stroke-miterlimit:4;stroke-dasharray:none;stroke-dashoffset:0;stroke-opacity:1" />
      <path
         inkscape:connector-curvature="0"
         id="path981-6"
         d="m 280.93655,98.486427 v 0.65061 c -1e-5,1.148223 0.51337,2.229253 1.4211,2.843753 0.9079,0.61463 2.09243,0.61463 3.00033,0 0.2963,-0.20064 0.53298,-0.46366 0.74104,-0.74982 0.2187,0.32246 0.47349,0.61805 0.79944,0.83871 0.9079,0.61462 2.09243,0.61462 3.00033,0 0.90765,-0.61465 1.42072,-1.69555 1.42059,-2.843763 l -5.2e-4,-0.6506 -1.3007,5.1e-4 v 0.65009 c 9e-5,0.753619 -0.352,1.430233 -0.84904,1.766823 -0.49716,0.33656 -1.04383,0.33656 -1.54099,0 a 0.65045799,0.65045799 0 0 0 -5.3e-4,0 c -0.49716,-0.33647 -0.84905,-1.013104 -0.84904,-1.766823 v -0.0889 -0.56172 h -5.3e-4 v -0.0889 l -1.3007,5.2e-4 v 0.0884 0.56172 c 9e-5,0.75361 -0.352,1.430223 -0.84904,1.766823 -0.49716,0.33656 -1.04383,0.33656 -1.54099,0 a 0.65045799,0.65045799 0 0 0 -5.3e-4,0 c -0.49715,-0.33647 -0.84904,-1.013113 -0.84904,-1.766823 v -0.65061 z"
         style="color:#000000;font-style:normal;font-variant:normal;font-weight:normal;font-stretch:normal;font-size:medium;line-height:normal;font-family:sans-serif;font-variant-ligatures:normal;font-variant-position:normal;font-variant-caps:normal;font-variant-numeric:normal;font-variant-alternates:normal;font-feature-settings:normal;text-indent:0;text-align:start;text-decoration:none;text-decoration-line:none;text-decoration-style:solid;text-decoration-color:#000000;letter-spacing:normal;word-spacing:normal;text-transform:none;writing-mode:lr-tb;direction:ltr;text-orientation:mixed;dominant-baseline:auto;baseline-shift:baseline;text-anchor:start;white-space:normal;shape-padding:0;clip-rule:nonzero;display:inline;overflow:visible;visibility:visible;opacity:1;isolation:auto;mix-blend-mode:normal;color-interpolation:sRGB;color-interpolation-filters:linearRGB;solid-color:#000000;solid-opacity:1;vector-effect:none;fill:#803300;fill-opacity:1;fill-rule:nonzero;stroke:none;stroke-width:1.30079;stroke-linecap:square;stroke-linejoin:round;stroke-miterlimit:4;stroke-dasharray:none;stroke-dashoffset:0;stroke-opacity:1;color-rendering:auto;image-rendering:auto;shape-rendering:auto;text-rendering:auto;enable-background:accumulate" />
      <path
         inkscape:connector-curvature="0"
         id="path981-6-1"
         d="m 291.31938,137.33037 v -0.65061 c 10e-6,-1.14822 -0.51337,-2.22925 -1.4211,-2.84375 -0.9079,-0.61463 -2.09243,-0.61463 -3.00033,0 -0.2963,0.20064 -0.53298,0.46366 -0.74104,0.74982 -0.2187,-0.32246 -0.47349,-0.61805 -0.79944,-0.83871 -0.9079,-0.61462 -2.09243,-0.61462 -3.00033,0 -0.90765,0.61465 -1.42072,1.69555 -1.42059,2.84376 l 5.3e-4,0.6506 1.3007,-5.1e-4 v -0.65009 c -9e-5,-0.75362 0.352,-1.43023 0.84904,-1.76682 0.49716,-0.33656 1.04383,-0.33656 1.54099,0 a 0.65045799,0.65045799 0 0 0 5.3e-4,0 c 0.49715,0.33647 0.84904,1.0131 0.84903,1.76682 v 0.0889 0.56172 h 5.3e-4 v 0.0889 l 1.3007,-5.2e-4 v -0.0884 -0.56172 c -9e-5,-0.75361 0.352,-1.43022 0.84904,-1.76682 0.49716,-0.33656 1.04383,-0.33656 1.54099,0 a 0.65045799,0.65045799 0 0 0 5.3e-4,0 c 0.49715,0.33647 0.84904,1.01311 0.84904,1.76682 v 0.65061 z"
         style="color:#000000;font-style:normal;font-variant:normal;font-weight:normal;font-stretch:normal;font-size:medium;line-height:normal;font-family:sans-serif;font-variant-ligatures:normal;font-variant-position:normal;font-variant-caps:normal;font-variant-numeric:normal;font-variant-alternates:normal;font-feature-settings:normal;text-indent:0;text-align:start;text-decoration:none;text-decoration-line:none;text-decoration-style:solid;text-decoration-color:#000000;letter-spacing:normal;word-spacing:normal;text-transform:none;writing-mode:lr-tb;direction:ltr;text-orientation:mixed;dominant-baseline:auto;baseline-shift:baseline;text-anchor:start;white-space:normal;shape-padding:0;clip-rule:nonzero;display:inline;overflow:visible;visibility:visible;opacity:1;isolation:auto;mix-blend-mode:normal;color-interpolation:sRGB;color-interpolation-filters:linearRGB;solid-color:#000000;solid-opacity:1;vector-effect:none;fill:#803300;fill-opacity:1;fill-rule:nonzero;stroke:none;stroke-width:1.30079;stroke-linecap:square;stroke-linejoin:round;stroke-miterlimit:4;stroke-dasharray:none;stroke-dashoffset:0;stroke-opacity:1;color-rendering:auto;image-rendering:auto;shape-rendering:auto;text-rendering:auto;enable-background:accumulate" />
      <circle
         r="3.0735996"
         cy="117.91432"
         cx="302.56198"
         id="path919-6-2-8"
         style="opacity:1;fill:#000000;fill-opacity:1;stroke:none;stroke-width:0.6;stroke-linecap:butt;stroke-linejoin:round;stroke-miterlimit:4;stroke-dasharray:none;stroke-dashoffset:0;stroke-opacity:1" />
    </g>
    <g
       id="g2051"
       transform="translate(11.207909)">
      <rect
         style="opacity:1;fill:#e9ddaf;fill-opacity:1;stroke:#786721;stroke-width:0.6;stroke-linecap:butt;stroke-linejoin:round;stroke-miterlimit:4;stroke-dasharray:none;stroke-dashoffset:0;stroke-opacity:1"
         id="rect815-3"
         width="39.477776"
         height="39.477776"
         x="-152.00983"
         y="98.175438"
         ry="4.9136906"
         rx="4.9136906"
         transform="scale(-1,1)" />
      <rect
         style="opacity:1;fill:#ff0000;fill-opacity:1;stroke:none;stroke-width:0.6;stroke-linecap:butt;stroke-linejoin:round;stroke-miterlimit:4;stroke-dasharray:none;stroke-dashoffset:0;stroke-opacity:1"
         id="rect817-6"
         width="5"
         height="10"
         x="-151.68649"
         y="112.91432"
         transform="scale(-1,1)" />
      <rect
         style="opacity:1;fill:#ff00ff;fill-opacity:1;stroke:none;stroke-width:0.6;stroke-linecap:butt;stroke-linejoin:round;stroke-miterlimit:4;stroke-dasharray:none;stroke-dashoffset:0;stroke-opacity:1"
         id="rect1935"
         width="7.9375"
         height="7.9375"
         x="182.69943"
         y="-4.3599205"
         transform="rotate(45)"
         inkscape:transform-center-x="-29.104167"
         inkscape:transform-center-y="12.851187" />
      <g
         id="g2029">
        <rect
           y="111.59945"
           x="112.78539"
           height="5"
           width="5"
           id="rect1899-6-2"
           style="opacity:1;fill:#ff6600;fill-opacity:1;stroke:none;stroke-width:0.6;stroke-linecap:butt;stroke-linejoin:round;stroke-miterlimit:4;stroke-dasharray:none;stroke-dashoffset:0;stroke-opacity:1" />
        <rect
           y="119.2292"
           x="112.78539"
           height="5"
           width="5"
           id="rect1899-4-7-9"
           style="opacity:1;fill:#ff6600;fill-opacity:1;stroke:none;stroke-width:0.6;stroke-linecap:butt;stroke-linejoin:round;stroke-miterlimit:4;stroke-dasharray:none;stroke-dashoffset:0;stroke-opacity:1" />
      </g>
      <rect
         style="opacity:1;fill:#ff0000;fill-opacity:1;stroke:none;stroke-width:0.6;stroke-linecap:butt;stroke-linejoin:round;stroke-miterlimit:4;stroke-dasharray:none;stroke-dashoffset:0;stroke-opacity:1"
         id="rect817-7"
         width="5"
         height="10"
         x="-103.4864"
         y="127.27094"
         transform="rotate(-90)" />
    </g>
  </g>
</svg>
