<?xml version="1.0" encoding="UTF-8" standalone="no"?>
<svg
   xmlns:dc="http://purl.org/dc/elements/1.1/"
   xmlns:cc="http://creativecommons.org/ns#"
   xmlns:rdf="http://www.w3.org/1999/02/22-rdf-syntax-ns#"
   xmlns:svg="http://www.w3.org/2000/svg"
   xmlns="http://www.w3.org/2000/svg"
   xmlns:sodipodi="http://sodipodi.sourceforge.net/DTD/sodipodi-0.dtd"
   xmlns:inkscape="http://www.inkscape.org/namespaces/inkscape"
   sodipodi:docname="2022-SK-02-pfeil.svg"
   inkscape:version="1.0 (4035a4fb49, 2020-05-01)"
   id="svg1012"
   version="1.1"
   viewBox="0 0 110.89004 113.23836"
   height="113.23836mm"
   width="110.89005mm">
  <defs
     id="defs1006" />
  <sodipodi:namedview
     showgrid="false"
     inkscape:document-rotation="0"
     inkscape:current-layer="layer1"
     inkscape:document-units="mm"
     inkscape:cy="560"
     inkscape:cx="400"
     inkscape:zoom="0.35"
     inkscape:pageshadow="2"
     inkscape:pageopacity="0.0"
     borderopacity="1.0"
     bordercolor="#666666"
     pagecolor="#ffffff"
     id="base" />
  <metadata
     id="metadata1009">
    <rdf:RDF>
      <cc:Work
         rdf:about="">
        <dc:format>image/svg+xml</dc:format>
        <dc:type
           rdf:resource="http://purl.org/dc/dcmitype/StillImage" />
        <dc:title></dc:title>
      </cc:Work>
    </rdf:RDF>
  </metadata>
  <g
     transform="translate(-212.61216,-260.6579)"
     id="layer1"
     inkscape:groupmode="layer"
     inkscape:label="Ebene 1">
    <g
       transform="matrix(0.26458333,0,0,0.26458333,-95.57133,216.97795)"
       style="clip-rule:evenodd;fill-rule:evenodd;stroke-linecap:round;stroke-linejoin:round;stroke-miterlimit:1.5"
       id="g66">
      <g
         transform="translate(495.42,-2.01593)"
         id="g58">
        <g
           transform="matrix(1.04916,0,0,1,541.599,-12.596)"
           id="g40">
          <path
             d="m 461.4,257.486 c 22.911,32.438 59.856,100.02 59.856,142.715 0,109.92 -86.873,207.488 -196.793,207.488 -37.128,0 -75.312,-16.988 -104.779,-35.205 -47.259,-29.219 -83.84,-93.066 -96.749,-172.283 0,0 302.393,-193.788 338.465,-142.715 z"
             style="fill:#555555"
             id="path38" />
        </g>
        <g
           transform="translate(539.193,-1.82643)"
           id="g44">
          <path
             d="m 352.921,271.429 c 63.215,-27.804 119.024,-44.34 133.568,-24.712 24.037,32.438 62.798,100.019 62.798,142.715 0,88.892 -59.607,169.706 -143.417,197.376 68.294,-34.954 114.55,-106.993 114.55,-185.3 0,-42.695 -38.761,-110.277 -62.798,-142.715 -12.281,-16.573 -53.984,-7.362 -104.701,12.636 z"
             style="fill:#373131"
             id="path42" />
        </g>
        <g
           transform="translate(567.224,-12.596)"
           id="g48">
          <path
             d="m 122.935,400.201 c 0,-109.919 89.241,-199.16 199.16,-199.16"
             style="fill:#3d3d3d"
             id="path46" />
        </g>
        <g
           transform="translate(546.434,-33.9345)"
           id="g52">
          <circle
             cx="322.095"
             cy="400.20099"
             r="199.161"
             id="circle50" />
        </g>
        <g
           transform="matrix(0.837635,0,0,0.837635,594.74,57.0994)"
           id="g56">
          <path
             d="M 219.482,534.202 C 165.674,498.52 130.176,437.42 130.176,368.093 c 0,-109.919 89.241,-199.16 199.16,-199.16 64.095,0 121.158,30.342 157.597,77.434 -31.488,-20.881 -69.261,-33.052 -109.854,-33.052 -109.92,0 -199.161,89.241 -199.161,199.161 0,45.825 15.51,88.057 41.564,121.726 z"
             style="fill:#575353"
             id="path54" />
        </g>
      </g>
      <g
         transform="matrix(1.3978,0,0,1.43094,-993.646,-572.968)"
         id="g62">
        <path
           d="m 1675.8,605.608 c 15.25,-14.552 -3.41,-34.928 -19.58,-22.571 l -69.58,60.354 c -0.18,0.157 -0.36,0.317 -0.53,0.483 l -0.06,0.053 -0.08,0.083 -0.18,0.176 -0.1,0.109 -0.19,0.195 c -8.55,6.832 -8.03,13.244 -0.87,19.347 l 0.04,0.056 0.04,0.043 0.46,0.565 0.14,0.147 0.09,0.104 0.11,0.12 0.2,0.21 0.36,0.353 0.11,0.116 0.05,0.037 0.05,0.049 68.89,63.811 c 6.05,5.602 15.51,5.24 21.12,-0.81 5.6,-6.049 5.24,-15.509 -0.81,-21.111 l -40.99,-37.964 159.59,-0.219 c 8.25,-0.012 14.93,-6.715 14.92,-14.96 -0.01,-8.245 -6.71,-14.93 -14.96,-14.918 l -157.53,0.216 c 0,0 39.29,-34.074 39.29,-34.074 z"
           style="fill:#ffffff"
           id="path60" />
      </g>
      <path
         d="m 1291.44,385.133 3.53,14.913 c 19.1,18.108 34.26,34.199 53.36,52.307 2.63,2.492 4.55,5.62 5.67,9.061 l 0.05,0.179 c 2.35,-7.642 0.4,-16.333 -5.72,-22.134 z m -75.93,-15.049 c -2.49,-4.011 105,-96.193 105.9,-95.867 14.34,-11.218 30.08,-3.585 34.23,8.814 6.06,-18.483 -15.31,-36.514 -34.23,-21.709 l -97.26,86.362 c -0.25,0.224 -0.5,0.453 -0.74,0.691 l -0.44,0.447 -0.14,0.156 -0.27,0.279 c -8.87,7.252 -10.75,14.173 -7.05,20.827 z m 78.27,-27.512 2.66,11.353 c 73.4,-0.103 144.22,1.14 217.62,1.037 1.76,-0.003 3.52,0.22 5.22,0.666 4.86,1.275 9.14,4.372 11.96,8.526 1.17,1.713 2.06,3.585 2.7,5.553 l 0.06,0.184 c 0.63,-2.043 0.97,-4.219 0.97,-6.476 -0.02,-11.798 -9.38,-21.364 -20.91,-21.348 z"
         style="fill:#d8d8d8"
         id="path64" />
    </g>
  </g>
</svg>
