<?xml version="1.0" encoding="UTF-8" standalone="no"?>
<!-- Created with Inkscape (http://www.inkscape.org/) -->

<svg
   width="223.42035mm"
   height="129.23169mm"
   viewBox="0 0 223.42035 129.23169"
   version="1.1"
   id="svg8995"
   inkscape:version="1.1.1 (3bf5ae0d25, 2021-09-20)"
   sodipodi:docname="2022-AT-03-itsinformatics-OR00.svg"
   xmlns:inkscape="http://www.inkscape.org/namespaces/inkscape"
   xmlns:sodipodi="http://sodipodi.sourceforge.net/DTD/sodipodi-0.dtd"
   xmlns="http://www.w3.org/2000/svg"
   xmlns:svg="http://www.w3.org/2000/svg">
  <sodipodi:namedview
     id="namedview8997"
     pagecolor="#ffffff"
     bordercolor="#666666"
     borderopacity="1.0"
     inkscape:pageshadow="2"
     inkscape:pageopacity="0.0"
     inkscape:pagecheckerboard="0"
     inkscape:document-units="mm"
     showgrid="false"
     inkscape:zoom="0.93859299"
     inkscape:cx="357.44993"
     inkscape:cy="340.40314"
     inkscape:window-width="1680"
     inkscape:window-height="1027"
     inkscape:window-x="1912"
     inkscape:window-y="-8"
     inkscape:window-maximized="1"
     inkscape:current-layer="layer1" />
  <defs
     id="defs8992" />
  <g
     inkscape:label="Ebene 1"
     inkscape:groupmode="layer"
     id="layer1"
     transform="translate(38.357147,-48.20429)">
    <g
       id="g6245"
       style="clip-rule:evenodd;fill-rule:evenodd;stroke-linecap:round;stroke-linejoin:round;stroke-miterlimit:1.5"
       transform="matrix(0.26458333,0,0,0.26458333,-1075.7535,-985.66988)">
      <g
         transform="translate(3593.97,3736.8)"
         id="g1860">
        <path
           d="m 332.386,308.221 h 340.835 c 0,0 -0.054,122.377 -0.054,122.377 0,1.051 0.417,2.06 1.161,2.803 0.743,0.744 1.751,1.162 2.803,1.162 h 49.095 c 0,0 0,19.832 0,19.832 0,2.187 1.776,3.963 3.963,3.963 2.188,0 3.964,-1.776 3.964,-3.963 v -23.796 c 0,-2.189 -1.775,-3.963 -3.964,-3.963 h -49.093 c 0,0 0.054,-122.377 0.054,-122.377 0,-1.051 -0.417,-2.06 -1.16,-2.804 -0.744,-0.743 -1.752,-1.161 -2.804,-1.161 h -344.8 c -2.187,0 -3.963,1.776 -3.963,3.963 0,2.188 1.776,3.964 3.963,3.964 z"
           id="path1858" />
      </g>
      <g
         transform="translate(3593.97,3736.8)"
         id="g1892">
        <path
           d="m 726.226,454.395 v 13.148 c 0,0 -49.095,0 -49.095,0 -1.052,0 -2.06,0.417 -2.803,1.161 -0.744,0.744 -1.161,1.752 -1.161,2.804 l 0.054,123.667 c 0,0 -340.835,0 -340.835,0 -2.187,0 -3.963,1.776 -3.963,3.963 0,2.188 1.776,3.964 3.963,3.964 h 344.8 c 1.052,0 2.06,-0.418 2.804,-1.162 0.743,-0.743 1.16,-1.752 1.16,-2.803 l -0.054,-123.668 c 0,0 49.093,0 49.093,0 2.189,0 3.964,-1.774 3.964,-3.963 v -17.111 c 0,-2.188 -1.776,-3.964 -3.964,-3.964 -2.187,0 -3.963,1.776 -3.963,3.964 z"
           id="path1890" />
      </g>
      <g
         transform="matrix(0.825461,0,0,0.825461,4278.08,3941.45)"
         id="g1924">
        <path
           d="m 175.656,309.059 h 407.925 c 2.65,0 4.801,-2.152 4.801,-4.802 0,-2.65 -2.151,-4.801 -4.801,-4.801 H 175.656 c -2.65,0 -4.802,2.151 -4.802,4.801 0,2.65 2.152,4.802 4.802,4.802 z"
           id="path1922" />
      </g>
      <g
         transform="matrix(0.561667,0,0,0.561667,2356.67,1925.45)"
         id="g2076">
        <path
           d="m 2967.6043,4055.77 c 4.32,-0.14 16.12,-0.04 20.84,0.02 37.1,0.45 57.07,27.42 56.91,46.06 -0.13,17.02 -10.46,28.81 -25.01,36.96 24.33,10.47 33.24,41.3 32.92,58.35 -0.59,31.89 -30.43,66.34 -65.85,65.35 -6.92,-0.19 -12.92,0.21 -20.01,0.02 h -32.79 v -206.75 h 32.79 z m -0.2,185.96 c 6.46,3.47 14.25,4.63 22.53,4.95 23.72,0.92 45.26,-14.26 45.34,-49.52 0.08,-33.58 -17.11,-51.07 -42.97,-51.82 -11.17,-0.32 -24.66,-0.27 -24.9,0 z m 0,-111.97 h 26.16 c 0,0 15.09,-1.91 17.38,-3.08 11.13,-5.66 16.59,-14.57 16.74,-24.83 0.22,-15.44 -10.74,-29.04 -39.57,-29.92 -7.84,-0.25 -13.5,0.64 -20.71,3.28 z"
           id="path2074" />
      </g>
      <g
         transform="translate(2975.68,1405.42)"
         id="g2164">
        <g
           transform="translate(1150.97,2350.87)"
           id="g2152">
          <path
             d="m 161.154,372.583 c 87.765,2.68 171.865,22.662 183.95,62.332 -8.29,43.702 -97.64,60.765 -183.95,62.331 44.367,-43.269 45.53,-84.869 0,-124.663 z"
             style="fill:#ffffff"
             id="path2150" />
        </g>
        <g
           transform="translate(1122.02,2350.87)"
           id="g2156">
          <path
             d="m 210.305,491.151 c 16.415,-19.287 24.579,-38.397 24.828,-57.059 0.258,-19.342 -7.904,-38.486 -25.398,-57.142 -3.222,-3.437 -8.629,-3.61 -12.066,-0.388 -3.437,3.223 -3.611,8.63 -0.388,12.067 13.926,14.851 20.986,29.838 20.78,45.235 -0.203,15.196 -7.391,30.517 -20.758,46.221 -3.053,3.588 -2.62,8.98 0.968,12.034 3.588,3.054 8.98,2.62 12.034,-0.968 z"
             id="path2154" />
        </g>
        <g
           transform="translate(1150.97,2350.87)"
           id="g2162">
          <path
             d="m 192.889,372.583 c 87.766,2.68 140.13,22.662 152.215,62.332 -8.29,43.702 -65.904,60.765 -152.215,62.331 44.367,-43.269 45.531,-84.869 0,-124.663 z"
             style="fill:#8aecff"
             id="path2158" />
          <path
             d="m 192.973,369.84 c -1.158,-0.035 -2.214,0.661 -2.637,1.74 -0.424,1.078 -0.125,2.307 0.748,3.069 22.361,19.544 33.247,39.446 32.759,59.873 -0.476,19.877 -11.667,40.082 -32.869,60.76 -0.806,0.786 -1.05,1.983 -0.617,3.022 0.434,1.038 1.457,1.706 2.582,1.686 42.983,-0.78 78.905,-5.41 105.273,-15.163 27.878,-10.312 45.223,-26.391 49.588,-49.401 0.083,-0.436 0.059,-0.886 -0.071,-1.311 -6.392,-20.983 -23.543,-36.781 -51.027,-47.455 -25.646,-9.96 -60.411,-15.497 -103.729,-16.82 z m 7.275,5.758 c 39.11,1.675 70.76,6.971 94.467,16.178 25.314,9.831 41.45,24.076 47.563,43.291 -4.242,20.881 -20.504,35.194 -45.97,44.613 -24.514,9.068 -57.442,13.559 -96.689,14.666 19.307,-20.244 29.244,-40.188 29.71,-59.693 0.479,-20.05 -9.004,-39.787 -29.08,-59.054 z"
             id="path2160" />
        </g>
      </g>
      <g
         transform="matrix(-0.562029,0,0,0.562029,5587.71,1628.09)"
         id="g2196">
        <path
           d="m 2737.7036,4168.21 h 63.17 l 44.32,94.32 h 11.65 l -94.14,-206.75 h -11.65 l -94.15,206.75 h 41.91 z m 5.28,-12.8 h 51.87 l -27.62,-58.8 z"
           id="path2194" />
      </g>
      <g
         transform="matrix(0.551424,0,0,0.551424,2865.66,1814.73)"
         id="g2228">
        <path
           d="m 3260.02,4240.57 c 16.77,11.61 36.37,17.18 55.83,16.77 10.25,-0.21 20.46,-2.08 30.19,-5.61 v 12.31 c -9.28,2.83 -20.33,4.07 -29.96,4.28 -26.92,0.56 -54.1,-9.13 -75.19,-29.21 -21.06,-20.08 -32.05,-46.76 -32.8,-73.68 -0.74,-27.01 8.82,-54.26 28.87,-75.31 20.06,-21.05 46.81,-31.94 73.82,-32.5 10.89,-0.23 32.37,4.36 32.37,4.36 v 11.51 c 0,0 -21.3,-5.12 -32.14,-4.9 -17.9,0.38 -35.68,5.81 -50.99,16.26 z"
           id="path2226" />
      </g>
    </g>
  </g>
</svg>
