<?xml version="1.0" encoding="UTF-8" standalone="no"?>
<svg
   width="672.18793"
   height="436.38025"
   viewBox="0 0 672.18793 436.38025"
   version="1.1"
   xml:space="preserve"
   style="clip-rule:evenodd;fill-rule:evenodd"
   id="svg268"
   sodipodi:docname="2022-FR-02a-explanation3.svg"
   inkscape:version="1.1.1 (3bf5ae0d25, 2021-09-20)"
   xmlns:inkscape="http://www.inkscape.org/namespaces/inkscape"
   xmlns:sodipodi="http://sodipodi.sourceforge.net/DTD/sodipodi-0.dtd"
   xmlns="http://www.w3.org/2000/svg"
   xmlns:svg="http://www.w3.org/2000/svg"
   xmlns:serif="http://www.serif.com/"><defs
   id="defs272">
                    
                    
                    
                    
                    
                    
                    
                    
                
                        
                        
                    
                        
                        
                    
                        
                        
                    
                        
                        
                    
                        
                        
                        
                    
                        
                        
                        
                    
                        
                        
                    
                        
                    
                        
                        
                        
                    
                        
                        
                    
                        
                        
                        
                        
                        
                        
                        
                        
                    
                        
                        
                        
                    
                        
                        
                        
                    
                        
                        
                        
                    
                        
                        
                        
                    </defs><sodipodi:namedview
   id="namedview270"
   pagecolor="#ffffff"
   bordercolor="#666666"
   borderopacity="1.0"
   inkscape:pageshadow="2"
   inkscape:pageopacity="0.0"
   inkscape:pagecheckerboard="0"
   showgrid="false"
   inkscape:zoom="2.7744282"
   inkscape:cx="391.07157"
   inkscape:cy="207.79056"
   inkscape:window-width="1920"
   inkscape:window-height="1137"
   inkscape:window-x="-8"
   inkscape:window-y="-8"
   inkscape:window-maximized="1"
   inkscape:current-layer="g263" />
    <g
   transform="translate(-21.461781,-48.6183)"
   id="g266">
        <g
   id="Ebene-1"
   serif:id="Ebene 1">
            <g
   id="g263">
                <g
   id="path1741"
   transform="translate(207.0902,90.7153)">
                        <path
   d="m 127.346,-42.097 -1.485,2.571 -22.995,39.831 -0.232,-0.402 h -49.24 l -1.486,2.571 -23.134,40.072 24.247,42 -1.113,1.928 -23.134,40.072 24.62,42.643 h 49.24 l 0.232,-0.401 24.48,42.401 h 49.241 l 24.249,-42 h 46.704 l 24.618,-42.643 -24.248,-42 24.248,-42 -24.618,-42.643 h -46.704 l -24.249,-42 z"
   style="fill:#ffbb00;fill-rule:nonzero"
   id="path2" />
                    </g><g
   id="hex0"
   transform="translate(207.0902,90.7153)">
                        <path
   d="m 121.315,126.546 -21.65,37.5 H 56.363 l -21.65,-37.5 21.65,-37.5 h 43.302 z"
   style="fill:#fff2aa;fill-rule:nonzero;stroke:#89cc5c;stroke-width:7.034;font-variation-settings:normal;opacity:1;vector-effect:none;fill-opacity:1;stroke-linecap:butt;stroke-linejoin:miter;stroke-miterlimit:4;stroke-dasharray:none;stroke-dashoffset:0;stroke-opacity:1;-inkscape-stroke:none;stop-color:#000000;stop-opacity:1"
   id="path5" />
                    </g><g
   id="hex0-0"
   transform="translate(207.34507,90.205568)">
                        <path
   d="m 193.768,84.546 -21.651,37.5 h -43.302 l -21.65,-37.5 21.65,-37.5 h 43.302 z"
   style="font-variation-settings:normal;opacity:1;vector-effect:none;fill:#fff2aa;fill-opacity:1;fill-rule:nonzero;stroke:#89cc5c;stroke-width:7.034;stroke-linecap:butt;stroke-linejoin:miter;stroke-miterlimit:4;stroke-dasharray:none;stroke-dashoffset:0;stroke-opacity:1;-inkscape-stroke:none;stop-color:#000000;stop-opacity:1"
   id="path8" />
                    </g><g
   id="hex0-5"
   transform="translate(207.0902,90.7153)">
                        <path
   d="m 121.315,42.546 -21.65,37.5 H 56.363 l -21.65,-37.5 21.65,-37.5 h 43.302 z"
   style="fill:#fff2aa;fill-rule:nonzero;stroke:#ff9500;stroke-width:1.5px"
   id="path11" />
                    </g><g
   id="hex0-8"
   transform="translate(207.0902,90.7153)">
                        <path
   d="m 195.268,0.546 -21.651,37.5 h -43.302 l -21.65,-37.5 21.65,-37.5 h 43.302 z"
   style="fill:#fff2aa;fill-rule:nonzero;stroke:#ff9500;stroke-width:1.5px"
   id="path14" />
                    </g><g
   id="hex0-4"
   transform="translate(207.0902,90.7153)"
   style="font-variation-settings:normal;opacity:1;fill:#fff2aa;fill-opacity:1;stroke:#89cc5c;stroke-width:7.034;stroke-linecap:butt;stroke-linejoin:miter;stroke-miterlimit:4;stroke-dasharray:none;stroke-dashoffset:0;stroke-opacity:1;stop-color:#000000;stop-opacity:1">
                        <path
   d="m 266.22,42.546 -21.65,37.5 h -43.302 l -21.651,-37.5 21.651,-37.5 h 43.302 z"
   style="font-variation-settings:normal;fill:#fff2aa;fill-opacity:1;fill-rule:nonzero;stroke:#89cc5c;stroke-width:7.034;stroke-linecap:butt;stroke-linejoin:miter;stroke-miterlimit:4;stroke-dasharray:none;stroke-dashoffset:0;stroke-opacity:1;stop-color:#000000;stop-opacity:1"
   id="path17" />
                    </g><g
   id="hex0-52"
   transform="translate(207.0902,89.44097)"
   style="font-variation-settings:normal;opacity:1;fill:#fff2aa;fill-opacity:1;stroke:#89cc5c;stroke-width:7.034;stroke-linecap:butt;stroke-linejoin:miter;stroke-miterlimit:4;stroke-dasharray:none;stroke-dashoffset:0;stroke-opacity:1;stop-color:#000000;stop-opacity:1">
                        <path
   d="m 266.22,126.546 -21.65,37.5 h -43.302 l -21.651,-37.5 21.651,-37.5 h 43.302 z"
   style="font-variation-settings:normal;fill:#fff2aa;fill-opacity:1;fill-rule:nonzero;stroke:#89cc5c;stroke-width:7.034;stroke-linecap:butt;stroke-linejoin:miter;stroke-miterlimit:4;stroke-dasharray:none;stroke-dashoffset:0;stroke-opacity:1;stop-color:#000000;stop-opacity:1"
   id="path20" />
                    </g><g
   id="hex0-1"
   transform="translate(206.5266,88.9573)"
   style="font-variation-settings:normal;opacity:1;fill:#fff2aa;fill-opacity:1;stroke:#89cc5c;stroke-width:7.034;stroke-linecap:butt;stroke-linejoin:miter;stroke-miterlimit:4;stroke-dasharray:none;stroke-dashoffset:0;stroke-opacity:1;stop-color:#000000;stop-opacity:1">
                        <path
   d="m 195.268,168.546 -21.651,37.5 h -43.302 l -21.65,-37.5 21.65,-37.5 h 43.302 z"
   style="font-variation-settings:normal;fill:#fff2aa;fill-opacity:1;fill-rule:nonzero;stroke:#89cc5c;stroke-width:7.034;stroke-linecap:butt;stroke-linejoin:miter;stroke-miterlimit:4;stroke-dasharray:none;stroke-dashoffset:0;stroke-opacity:1;stop-color:#000000;stop-opacity:1"
   id="path23" />
                    </g>
                <g
   id="g261">
                    <g
   id="hex01"
   serif:id="hex0"
   transform="translate(571.4687,236.02539)">
                            <path
   d="m 121.315,126.546 -21.65,37.5 H 56.363 l -21.65,-37.5 21.65,-37.5 h 43.302 z"
   style="fill:#fff2aa;fill-rule:nonzero;stroke:#ff9500;stroke-width:1.5px"
   id="path28" />
                        </g><g
   id="draggable6"
   transform="matrix(0.264583,0,0,0.264583,237.905,285.86139)">
                            <path
   id="path2-5"
   d="m 1487.69,293.414 -0.01,-0.003 -0.14,0.902 c 1.26,-8.734 4.82,-17.351 11.03,-25.027 11.58,-14.304 29.92,-21.334 48.09,-18.454 1.33,0.21 2.63,0.462 3.9,0.76 l -2.7,16.999 c -1.26,-0.348 -2.55,-0.64 -3.87,-0.85 -19.72,-3.127 -36.43,10.752 -39.37,28.358 l -0.03,-0.006 c -0.89,4.498 -5.18,7.52 -9.74,6.797 -4.56,-0.722 -7.7,-4.921 -7.16,-9.476 z m 127.53,9.479 c -4.57,0.723 -8.86,-2.302 -9.74,-6.8 l -0.04,0.006 c -2.93,-17.606 -19.65,-31.485 -39.37,-28.358 -1.32,0.21 -2.61,0.502 -3.87,0.853 l -2.7,-16.999 c 1.27,-0.301 2.57,-0.55 3.89,-0.763 18.18,-2.88 36.52,4.153 48.1,18.454 6.21,7.676 9.77,16.293 11.03,25.03 l -0.14,-0.902 h -0.01 c 0.54,4.555 -2.6,8.756 -7.15,9.479 z m -9.23,-105.188 v 0 l -0.11,-0.683 c 1.2,6.588 0.71,13.646 -1.92,20.667 -4.89,13.08 -16.4,22.55 -30.17,24.849 -1.01,0.167 -2,0.3 -2.99,0.388 l -2.15,-12.883 c 0.99,-0.051 1.99,-0.15 3,-0.318 14.94,-2.494 23.63,-16.503 21.51,-29.88 l 0.02,-0.002 c -0.44,-3.453 1.92,-6.662 5.38,-7.237 3.45,-0.579 6.72,1.689 7.43,5.099 z m -92.08,-5.102 c 3.46,0.578 5.82,3.784 5.38,7.237 l 0.02,0.005 c -2.12,13.377 6.57,27.386 21.51,29.878 1.01,0.167 2,0.269 3,0.32 l -2.15,12.883 c -0.99,-0.09 -1.98,-0.221 -2.99,-0.388 -13.77,-2.299 -25.28,-11.772 -30.17,-24.851 -2.63,-7.019 -3.12,-14.077 -1.92,-20.665 l -0.11,0.68 v 0.003 c 0.71,-3.41 3.97,-5.678 7.43,-5.102 z"
   style="fill:#915f2d;fill-rule:nonzero" />
                            <path
   id="path4-4"
   d="m 1596.95,169.189 c 0,2.338 -1.86,4.246 -4.18,4.331 v 0.02 c -9.04,0.074 -17.3,7.33 -17.3,17.441 0,0.678 0.04,1.347 0.11,2.007 h -8.71 c -0.05,-0.657 -0.08,-1.326 -0.08,-2.007 0,-9.32 4.98,-17.934 13.05,-22.595 4.33,-2.5 8.93,-3.597 13.39,-3.532 h -0.46 v 0.003 c 2.32,0.088 4.18,1.993 4.18,4.332 z"
   style="fill-rule:nonzero" />
                            <g
   id="path6-9"
   transform="rotate(180,1530.865,178.92)">
                                <path
   d="m 1545.94,188.651 c 0,-2.338 -1.85,-4.246 -4.17,-4.331 v -0.02 c -9.04,-0.074 -17.31,-7.33 -17.31,-17.441 0,-0.678 0.04,-1.347 0.12,-2.007 h -8.72 c -0.05,0.657 -0.07,1.326 -0.07,2.007 0,9.32 4.97,17.934 13.05,22.595 4.33,2.5 8.92,3.597 13.39,3.532 h -0.46 v -0.003 c 2.32,-0.088 4.17,-1.993 4.17,-4.332 z"
   style="fill-rule:nonzero"
   id="path33" />
                            </g>
                            <g
   id="circle8-14"
   transform="matrix(1.20959,0,0,1,-330.892,151.733)">
                                <circle
   cx="1560.17"
   cy="54.980999"
   r="22.343"
   style="fill:#915f2d"
   id="circle36" />
                            </g>
                            <circle
   id="circle10-0"
   cx="1555.83"
   cy="249.16499"
   r="30.402"
   style="fill:#cd853d" />
                            <path
   id="path12-66"
   d="m 1640.2,243.394 c 0.26,0.136 0.53,0.283 0.79,0.437 11.59,6.689 15.56,21.509 8.87,33.097 -6.57,11.378 -20.98,15.409 -32.47,9.215 l -0.01,0.006 c -0.2,-0.113 -0.39,-0.227 -0.59,-0.34 -0.01,-0.006 -0.02,-0.012 -0.03,-0.017 -0.01,-0.006 -0.02,-0.009 -0.03,-0.017 -21.24,-12.26 -35.43,-20.727 -51.15,-56.687 41.08,-5.08 54.43,2.63 74.63,14.292 0,0.003 -0.01,0.008 -0.01,0.014 z"
   style="fill:#a2e8df;fill-rule:nonzero" />
                            <g
   id="path14-6"
   transform="translate(-1.13386e-5)">
                                <path
   d="m 1470.93,243.38 c 20.2,-11.665 33.55,-19.372 74.63,-14.298 -15.72,35.966 -29.92,44.43 -51.16,56.698 0,0.006 -0.01,0.009 -0.03,0.017 0,0.006 -0.01,0.009 -0.02,0.015 -0.2,0.113 -0.39,0.226 -0.59,0.34 l -0.01,-0.009 c -11.49,6.194 -25.9,2.16 -32.47,-9.221 -6.69,-11.582 -2.72,-26.402 8.87,-33.091 0.26,-0.154 0.53,-0.301 0.79,-0.44 0,-0.005 -0.01,-0.008 -0.01,-0.011 z"
   style="fill:#a2e8df;fill-rule:nonzero"
   id="path41" />
                            </g>
                            <g
   id="path16-4"
   transform="rotate(-120.00001,1560.9069,336.15705)">
                                <path
   d="m 1607.25,313.815 c 0.4,0.204 0.8,0.422 1.2,0.655 17.4,10.049 23.36,32.309 13.31,49.714 -9.86,17.09 -31.51,23.145 -48.77,13.842 v 0.008 c -0.31,-0.17 -0.6,-0.34 -0.89,-0.51 -0.02,-0.009 -0.03,-0.017 -0.04,-0.026 -0.02,-0.008 -0.04,-0.011 -0.05,-0.025 -31.9,-18.417 -53.22,-31.133 -76.84,-85.15 61.71,-7.631 81.76,3.951 112.1,21.469 0,0.003 -0.01,0.012 -0.02,0.023 z"
   style="fill:#915f2d;fill-rule:nonzero"
   id="path44" />
                            </g>
                            <path
   id="path18-0"
   d="m 1518.39,307.193 c -0.02,-0.447 -0.03,-0.901 -0.03,-1.36 0,-0.21 0,-0.423 0.01,-0.632 h 72.77 c 0,0.195 0,0.388 0,0.584 v 0.051 c 0,0.017 0.01,0.031 0,0.051 0,6.817 -0.01,13.226 -0.26,19.44 h -72.29 c -0.23,-5.809 -0.23,-11.776 -0.23,-18.136 0,0 0.02,0.005 0.03,0.002 z m 6.68,54.8 h 59.9 c -2.04,6.381 -4.76,13.016 -8.37,20.126 h -42.46 c -3.91,-7.209 -6.86,-13.836 -9.07,-20.126 z"
   style="fill:#ffcc32;fill-rule:nonzero" />
                        </g>
                    <g
   id="g10514"><g
     id="hex02"
     serif:id="hex0"
     transform="translate(84.99229,236.02539)">
                            <path
   d="m 121.315,126.546 -21.65,37.5 H 56.363 l -21.65,-37.5 21.65,-37.5 h 43.302 z"
   style="fill:#fff2aa;fill-rule:nonzero;stroke:#ff9500;stroke-width:1.5px"
   id="path51" />
                        </g><g
     id="draggable1"
     transform="matrix(0.264583,0,0,0.264583,18.431318,138.49483)"
     style="clip-rule:evenodd;fill-rule:evenodd"><path
       id="path964"
       d="m 1487.69,293.414 -0.01,-0.003 -0.14,0.902 c 1.26,-8.734 4.82,-17.351 11.03,-25.027 11.58,-14.304 29.92,-21.334 48.09,-18.454 1.33,0.21 2.63,0.462 3.9,0.76 l -2.7,16.999 c -1.26,-0.348 -2.55,-0.64 -3.87,-0.85 -19.72,-3.127 -36.43,10.752 -39.37,28.358 l -0.03,-0.006 c -0.89,4.498 -5.18,7.52 -9.74,6.797 -4.56,-0.722 -7.7,-4.921 -7.16,-9.476 z m 127.53,9.479 c -4.57,0.723 -8.86,-2.302 -9.74,-6.8 l -0.04,0.006 c -2.93,-17.606 -19.65,-31.485 -39.37,-28.358 -1.32,0.21 -2.61,0.502 -3.87,0.853 l -2.7,-16.999 c 1.27,-0.301 2.57,-0.55 3.89,-0.763 18.18,-2.88 36.52,4.153 48.1,18.454 6.21,7.676 9.77,16.293 11.03,25.03 l -0.14,-0.902 h -0.01 c 0.54,4.555 -2.6,8.756 -7.15,9.479 z m -9.23,-105.188 v 0 l -0.11,-0.683 c 1.2,6.588 0.71,13.646 -1.92,20.667 -4.89,13.08 -16.4,22.55 -30.17,24.849 -1.01,0.167 -2,0.3 -2.99,0.388 l -2.15,-12.883 c 0.99,-0.051 1.99,-0.15 3,-0.318 14.94,-2.494 23.63,-16.503 21.51,-29.88 l 0.02,-0.002 c -0.44,-3.453 1.92,-6.662 5.38,-7.237 3.45,-0.579 6.72,1.689 7.43,5.099 z m -92.08,-5.102 c 3.46,0.578 5.82,3.784 5.38,7.237 l 0.02,0.005 c -2.12,13.377 6.57,27.386 21.51,29.878 1.01,0.167 2,0.269 3,0.32 l -2.15,12.883 c -0.99,-0.09 -1.98,-0.221 -2.99,-0.388 -13.77,-2.299 -25.28,-11.772 -30.17,-24.851 -2.63,-7.019 -3.12,-14.077 -1.92,-20.665 l -0.11,0.68 v 0.003 c 0.71,-3.41 3.97,-5.678 7.43,-5.102 z"
       style="fill:#915f2d;fill-rule:nonzero" /><path
       id="path966"
       d="m 1596.95,169.189 c 0,2.338 -1.86,4.246 -4.18,4.331 v 0.02 c -9.04,0.074 -17.3,7.33 -17.3,17.441 0,0.678 0.04,1.347 0.11,2.007 h -8.71 c -0.05,-0.657 -0.08,-1.326 -0.08,-2.007 0,-9.32 4.98,-17.934 13.05,-22.595 4.33,-2.5 8.93,-3.597 13.39,-3.532 h -0.46 v 0.003 c 2.32,0.088 4.18,1.993 4.18,4.332 z"
       style="fill-rule:nonzero" /><g
       id="path968"
       transform="rotate(180,1530.865,178.92)"><path
         d="m 1545.94,188.651 c 0,-2.338 -1.85,-4.246 -4.17,-4.331 v -0.02 c -9.04,-0.074 -17.31,-7.33 -17.31,-17.441 0,-0.678 0.04,-1.347 0.12,-2.007 h -8.72 c -0.05,0.657 -0.07,1.326 -0.07,2.007 0,9.32 4.97,17.934 13.05,22.595 4.33,2.5 8.92,3.597 13.39,3.532 h -0.46 v -0.003 c 2.32,-0.088 4.17,-1.993 4.17,-4.332 z"
         style="fill-rule:nonzero"
         id="path56" /></g><g
       id="circle970"
       transform="matrix(1.20959,0,0,1,-330.892,151.733)"><circle
         cx="1560.17"
         cy="54.980999"
         r="22.343"
         style="fill:#915f2d"
         id="circle59" /></g><circle
       id="circle972"
       cx="1555.83"
       cy="249.16499"
       r="30.402"
       style="fill:#cd853d" /><path
       id="path974"
       d="m 1640.2,243.394 c 0.26,0.136 0.53,0.283 0.79,0.437 11.59,6.689 15.56,21.509 8.87,33.097 -6.57,11.378 -20.98,15.409 -32.47,9.215 l -0.01,0.006 c -0.2,-0.113 -0.39,-0.227 -0.59,-0.34 -0.01,-0.006 -0.02,-0.012 -0.03,-0.017 -0.01,-0.006 -0.02,-0.009 -0.03,-0.017 -21.24,-12.26 -35.43,-20.727 -51.15,-56.687 41.08,-5.08 54.43,2.63 74.63,14.292 0,0.003 -0.01,0.008 -0.01,0.014 z m -169.27,-0.014 c 20.2,-11.665 33.55,-19.372 74.63,-14.298 -15.72,35.966 -29.92,44.43 -51.16,56.698 0,0.006 -0.01,0.009 -0.03,0.017 0,0.006 -0.01,0.009 -0.02,0.015 -0.2,0.113 -0.39,0.226 -0.59,0.34 l -0.01,-0.009 c -11.49,6.194 -25.9,2.16 -32.47,-9.221 -6.69,-11.582 -2.72,-26.402 8.87,-33.091 0.26,-0.154 0.53,-0.301 0.79,-0.44 0,-0.005 -0.01,-0.008 -0.01,-0.011 z"
       style="fill:#a2e8df;fill-rule:nonzero" /><g
       id="circle976"
       transform="matrix(0.412997,0,0,1,909.769,151.733)"><circle
         cx="1561.84"
         cy="188.90401"
         r="80.279999"
         style="fill:#915f2d"
         id="circle64" /></g><path
       id="path978"
       d="m 1586.38,365.168 c -1.46,11.052 -3.88,21.064 -7.03,29.452 h -49.09 c -3.15,-8.388 -5.57,-18.4 -7.03,-29.452 z m -62.7,-52.251 c 1.7,-11.203 4.41,-21.232 7.85,-29.452 h 46.55 c 3.44,8.22 6.15,18.249 7.85,29.452 z"
       style="fill:#ffcc32;fill-rule:nonzero" /></g></g>
                    <g
   id="hex03"
   serif:id="hex0"
   transform="translate(279.17987,236.02561)">
                            <path
   d="m 121.315,126.546 -21.65,37.5 h -40.71 l -24.242,-37.5 21.65,-37.5 h 43.302 z"
   style="fill:#fff2aa;fill-rule:nonzero;stroke:#ff9500;stroke-width:1.5px"
   id="path71" />
                        </g><g
   id="draggable3"
   transform="matrix(0.264583,0,0,0.264583,18.431319,56.551389)">
                            <path
   id="path2-6"
   d="m 1487.69,293.414 -0.01,-0.003 -0.14,0.902 c 1.26,-8.734 4.82,-17.351 11.03,-25.027 11.58,-14.304 29.92,-21.334 48.09,-18.454 1.33,0.21 2.63,0.462 3.9,0.76 l -2.7,16.999 c -1.26,-0.348 -2.55,-0.64 -3.87,-0.85 -19.72,-3.127 -36.43,10.752 -39.37,28.358 l -0.03,-0.006 c -0.89,4.498 -5.18,7.52 -9.74,6.797 -4.56,-0.722 -7.7,-4.921 -7.16,-9.476 z m 127.53,9.479 c -4.57,0.723 -8.86,-2.302 -9.74,-6.8 l -0.04,0.006 c -2.93,-17.606 -19.65,-31.485 -39.37,-28.358 -1.32,0.21 -2.61,0.502 -3.87,0.853 l -2.7,-16.999 c 1.27,-0.301 2.57,-0.55 3.89,-0.763 18.18,-2.88 36.52,4.153 48.1,18.454 6.21,7.676 9.77,16.293 11.03,25.03 l -0.14,-0.902 h -0.01 c 0.54,4.555 -2.6,8.756 -7.15,9.479 z m -9.23,-105.188 v 0 l -0.11,-0.683 c 1.2,6.588 0.71,13.646 -1.92,20.667 -4.89,13.08 -16.4,22.55 -30.17,24.849 -1.01,0.167 -2,0.3 -2.99,0.388 l -2.15,-12.883 c 0.99,-0.051 1.99,-0.15 3,-0.318 14.94,-2.494 23.63,-16.503 21.51,-29.88 l 0.02,-0.002 c -0.44,-3.453 1.92,-6.662 5.38,-7.237 3.45,-0.579 6.72,1.689 7.43,5.099 z m -92.08,-5.102 c 3.46,0.578 5.82,3.784 5.38,7.237 l 0.02,0.005 c -2.12,13.377 6.57,27.386 21.51,29.878 1.01,0.167 2,0.269 3,0.32 l -2.15,12.883 c -0.99,-0.09 -1.98,-0.221 -2.99,-0.388 -13.77,-2.299 -25.28,-11.772 -30.17,-24.851 -2.63,-7.019 -3.12,-14.077 -1.92,-20.665 l -0.11,0.68 v 0.003 c 0.71,-3.41 3.97,-5.678 7.43,-5.102 z"
   style="fill:#915f2d;fill-rule:nonzero" />
                            <path
   id="path4-9"
   d="m 1596.95,169.189 c 0,2.338 -1.86,4.246 -4.18,4.331 v 0.02 c -9.04,0.074 -17.3,7.33 -17.3,17.441 0,0.678 0.04,1.347 0.11,2.007 h -8.71 c -0.05,-0.657 -0.08,-1.326 -0.08,-2.007 0,-9.32 4.98,-17.934 13.05,-22.595 4.33,-2.5 8.93,-3.597 13.39,-3.532 h -0.46 v 0.003 c 2.32,0.088 4.18,1.993 4.18,4.332 z"
   style="fill-rule:nonzero" />
                            <g
   id="path6-4"
   transform="rotate(180,1530.865,178.92)">
                                <path
   d="m 1545.94,188.651 c 0,-2.338 -1.85,-4.246 -4.17,-4.331 v -0.02 c -9.04,-0.074 -17.31,-7.33 -17.31,-17.441 0,-0.678 0.04,-1.347 0.12,-2.007 h -8.72 c -0.05,0.657 -0.07,1.326 -0.07,2.007 0,9.32 4.97,17.934 13.05,22.595 4.33,2.5 8.92,3.597 13.39,3.532 h -0.46 v -0.003 c 2.32,-0.088 4.17,-1.993 4.17,-4.332 z"
   style="fill-rule:nonzero"
   id="path76" />
                            </g>
                            <g
   id="circle8-8"
   transform="matrix(1.20959,0,0,1,-330.892,151.733)">
                                <circle
   cx="1560.17"
   cy="54.980999"
   r="22.343"
   style="fill:#915f2d"
   id="circle79" />
                            </g>
                            <circle
   id="circle10-6"
   cx="1555.83"
   cy="249.16499"
   r="30.402"
   style="fill:#cd853d" />
                            <path
   id="path12-4"
   d="m 1640.2,243.394 c 0.26,0.136 0.53,0.283 0.79,0.437 11.59,6.689 15.56,21.509 8.87,33.097 -6.57,11.378 -20.98,15.409 -32.47,9.215 l -0.01,0.006 c -0.2,-0.113 -0.39,-0.227 -0.59,-0.34 -0.01,-0.006 -0.02,-0.012 -0.03,-0.017 -0.01,-0.006 -0.02,-0.009 -0.03,-0.017 -21.24,-12.26 -35.43,-20.727 -51.15,-56.687 41.08,-5.08 54.43,2.63 74.63,14.292 0,0.003 -0.01,0.008 -0.01,0.014 z"
   style="fill:#a2e8df;fill-rule:nonzero" />
                            <g
   id="g86"
   transform="translate(-1.13386e-5)">
                                <path
   d="m 1470.93,243.38 c 20.2,-11.665 33.55,-19.372 74.63,-14.298 -15.72,35.966 -29.92,44.43 -51.16,56.698 0,0.006 -0.01,0.009 -0.03,0.017 0,0.006 -0.01,0.009 -0.02,0.015 -0.2,0.113 -0.39,0.226 -0.59,0.34 l -0.01,-0.009 c -11.49,6.194 -25.9,2.16 -32.47,-9.221 -6.69,-11.582 -2.72,-26.402 8.87,-33.091 0.26,-0.154 0.53,-0.301 0.79,-0.44 0,-0.005 -0.01,-0.008 -0.01,-0.011 z"
   style="fill:#a2e8df;fill-rule:nonzero"
   id="path84" />
                            </g>
                            <g
   id="path16-0"
   transform="rotate(-120.00001,1560.9069,336.15705)">
                                <path
   d="m 1607.25,313.815 c 0.4,0.204 0.8,0.422 1.2,0.655 17.4,10.049 23.36,32.309 13.31,49.714 -9.86,17.09 -31.51,23.145 -48.77,13.842 v 0.008 c -0.31,-0.17 -0.6,-0.34 -0.89,-0.51 -0.02,-0.009 -0.03,-0.017 -0.04,-0.026 -0.02,-0.008 -0.04,-0.011 -0.05,-0.025 -31.9,-18.417 -53.22,-31.133 -76.84,-85.15 61.71,-7.631 81.76,3.951 112.1,21.469 0,0.003 -0.01,0.012 -0.02,0.023 z"
   style="fill:#915f2d;fill-rule:nonzero"
   id="path88" />
                            </g>
                            <path
   id="path18"
   d="m 1518.39,307.193 c -0.02,-0.447 -0.03,-0.901 -0.03,-1.36 0,-0.21 0,-0.423 0.01,-0.632 h 72.77 c 0,0.195 0,0.388 0,0.584 v 0.051 c 0,0.017 0.01,0.031 0,0.051 0,16.628 -0.07,30.804 -3.37,45.722 h -65.79 c -3.62,-14.774 -3.62,-28.349 -3.62,-44.418 0,0 0.02,0.005 0.03,0.002 z"
   style="fill:#ffcc32;fill-rule:nonzero" />
                        </g>
                    <g
   id="hex04"
   serif:id="hex0"
   transform="translate(376.851,236.026)">
                            <path
   d="m 121.315,126.546 -21.65,37.5 h -40.71 l -24.242,-37.5 21.65,-37.5 h 43.302 z"
   style="fill:#fff2aa;fill-rule:nonzero;stroke:#ff9500;stroke-width:1.5px"
   id="path95" />
                        </g><g
   id="g128"
   transform="translate(-170.1493,-144.12703)">
                            <g
   transform="translate(470.765,592.637)"
   id="g100">
                                <path
   d="m -0.416,-262.117 c 0,0.825 -0.654,1.498 -1.473,1.528 v 0.007 c -3.189,0.026 -6.105,2.586 -6.105,6.153 0,0.239 0.015,0.475 0.042,0.708 h -3.076 c -0.017,-0.232 -0.025,-0.468 -0.025,-0.708 0,-3.288 1.754,-6.327 4.602,-7.971 1.528,-0.882 3.149,-1.269 4.725,-1.246 h -0.163 v 0.001 c 0.819,0.031 1.473,0.703 1.473,1.528 z"
   style="fill-rule:nonzero"
   id="path98" />
                            </g>
                            <g
   transform="matrix(-1,0,0,1,439.384,592.637)"
   id="g104">
                                <path
   d="m -0.416,-262.117 c 0,0.825 -0.654,1.498 -1.473,1.528 v 0.007 c -3.189,0.026 -6.105,2.586 -6.105,6.153 0,0.239 0.015,0.475 0.042,0.708 h -3.076 c -0.017,-0.232 -0.025,-0.468 -0.025,-0.708 0,-3.288 1.754,-6.327 4.602,-7.971 1.528,-0.882 3.149,-1.269 4.725,-1.246 h -0.163 v 0.001 c 0.819,0.031 1.473,0.703 1.473,1.528 z"
   style="fill-rule:nonzero"
   id="path102" />
                            </g>
                            <g
   id="circle14-9"
   transform="matrix(0.177616,0,0,0.196511,177.576,340.889)">
                                <circle
   cx="1561.84"
   cy="188.90401"
   r="80.279999"
   style="fill:#915f2d"
   id="circle106" />
                            </g>
                            <g
   id="circle8-6"
   transform="matrix(0.413625,0,0,0.341953,-190.437,323.624)">
                                <circle
   cx="1560.17"
   cy="54.980999"
   r="22.343"
   style="fill:#915f2d"
   id="circle109" />
                            </g>
                            <g
   transform="translate(470.266,592.898)"
   id="g114">
                                <path
   d="m -38.958,-218.293 -0.003,-0.001 -0.051,0.318 c 0.444,-3.081 1.7,-6.121 3.892,-8.829 4.085,-5.046 10.554,-7.526 16.966,-6.51 0.468,0.074 0.925,0.163 1.373,0.268 l -0.95,5.997 c -0.447,-0.123 -0.901,-0.226 -1.368,-0.3 -6.955,-1.103 -12.852,3.793 -13.887,10.004 l -0.013,-0.002 c -0.313,1.587 -1.827,2.653 -3.436,2.398 -1.608,-0.255 -2.715,-1.736 -2.523,-3.343 z m 44.987,3.344 c -1.609,0.255 -3.123,-0.812 -3.436,-2.399 l -0.013,0.002 c -1.035,-6.211 -6.932,-11.107 -13.887,-10.004 -0.467,0.074 -0.921,0.177 -1.368,0.301 l -0.95,-5.997 c 0.448,-0.106 0.904,-0.194 1.373,-0.269 6.412,-1.016 12.881,1.465 16.966,6.51 2.192,2.708 3.448,5.748 3.892,8.83 l -0.051,-0.318 H 8.552 c 0.192,1.607 -0.915,3.089 -2.523,3.344 z m -3.255,-37.108 h 0.002 l -0.041,-0.241 c 0.423,2.324 0.25,4.814 -0.676,7.291 -1.727,4.614 -5.786,7.955 -10.645,8.766 -0.355,0.059 -0.706,0.106 -1.053,0.137 l -0.758,-4.545 c 0.35,-0.018 0.702,-0.053 1.056,-0.112 5.272,-0.88 8.337,-5.822 7.588,-10.541 l 0.01,-0.001 c -0.157,-1.218 0.677,-2.35 1.896,-2.553 1.219,-0.204 2.372,0.596 2.621,1.799 z m -32.483,-1.8 c 1.219,0.204 2.053,1.335 1.896,2.553 l 0.01,0.002 c -0.749,4.719 2.316,9.661 7.588,10.54 0.354,0.059 0.706,0.095 1.056,0.113 l -0.758,4.545 c -0.347,-0.032 -0.698,-0.078 -1.053,-0.137 -4.859,-0.811 -8.918,-4.153 -10.645,-8.767 -0.926,-2.476 -1.099,-4.966 -0.676,-7.29 l -0.041,0.24 0.002,0.001 c 0.249,-1.203 1.402,-2.003 2.621,-1.8 z"
   style="fill:#915f2d;fill-rule:nonzero"
   id="path112" />
                            </g>
                            <g
   transform="translate(470.266,592.898)"
   id="g118">
                                <circle
   cx="-14.921"
   cy="-233.903"
   r="10.725"
   style="fill:#cd853d"
   id="circle116" />
                            </g>
                            <g
   transform="translate(470.266,592.898)"
   id="g122">
                                <path
   d="m 14.842,-235.939 c 0.094,0.048 0.187,0.1 0.28,0.154 4.088,2.36 5.488,7.588 3.128,11.676 -2.318,4.014 -7.402,5.436 -11.455,3.251 l -0.001,0.002 c -0.071,-0.04 -0.139,-0.08 -0.209,-0.12 -0.003,-0.002 -0.007,-0.004 -0.01,-0.006 -0.003,-0.002 -0.007,-0.003 -0.01,-0.006 -7.493,-4.325 -12.499,-7.312 -18.046,-19.998 14.491,-1.792 19.202,0.928 26.327,5.042 0,10e-4 -0.003,0.003 -0.004,0.005 z m -59.714,-0.005 c 7.127,-4.115 11.837,-6.834 26.328,-5.044 -5.547,12.688 -10.554,15.674 -18.046,20.002 -0.003,0.002 -0.007,0.003 -0.011,0.006 -0.002,0.002 -0.006,0.003 -0.008,0.005 -0.071,0.04 -0.139,0.08 -0.21,0.12 l -10e-4,-0.003 c -4.054,2.185 -9.137,0.762 -11.455,-3.253 -2.36,-4.086 -0.96,-9.314 3.128,-11.674 0.093,-0.054 0.186,-0.106 0.28,-0.155 -0.002,-0.002 -0.003,-0.003 -0.005,-0.004 z"
   style="fill:#a2e8df;fill-rule:nonzero"
   id="path120" />
                            </g>
                            <g
   transform="translate(470.266,592.898)"
   id="g126">
                                <path
   d="m -1.023,-214.495 c 0,1.433 -0.22,2.816 -0.63,4.118 h -27.258 c -0.41,-1.302 -0.63,-2.685 -0.63,-4.118 0,-1.891 0.384,-3.695 1.079,-5.34 h 26.36 c 0.695,1.645 1.079,3.449 1.079,5.34 z"
   style="fill:#ffcc32;fill-rule:nonzero"
   id="path124" />
                            </g>
                        </g>
                    <g
   id="hex05"
   serif:id="hex0"
   transform="translate(474.16,236.02539)">
                            <path
   d="m 121.315,126.546 -21.65,37.5 H 56.363 l -21.65,-37.5 21.65,-37.5 h 43.302 z"
   style="fill:#fff2aa;fill-rule:nonzero;stroke:#ff9500;stroke-width:1.5px"
   id="path132" />
                        </g><g
   id="draggable5"
   transform="matrix(0.264583,0,0,0.264583,140.596,291.05839)">
                            <path
   id="path135"
   d="m 1487.69,293.414 -0.01,-0.003 -0.14,0.902 c 1.26,-8.734 4.82,-17.351 11.03,-25.027 11.58,-14.304 29.92,-21.334 48.09,-18.454 1.33,0.21 2.63,0.462 3.9,0.76 l -2.7,16.999 c -1.26,-0.348 -2.55,-0.64 -3.87,-0.85 -19.72,-3.127 -36.43,10.752 -39.37,28.358 l -0.03,-0.006 c -0.89,4.498 -5.18,7.52 -9.74,6.797 -4.56,-0.722 -7.7,-4.921 -7.16,-9.476 z m 127.53,9.479 c -4.57,0.723 -8.86,-2.302 -9.74,-6.8 l -0.04,0.006 c -2.93,-17.606 -19.65,-31.485 -39.37,-28.358 -1.32,0.21 -2.61,0.502 -3.87,0.853 l -2.7,-16.999 c 1.27,-0.301 2.57,-0.55 3.89,-0.763 18.18,-2.88 36.52,4.153 48.1,18.454 6.21,7.676 9.77,16.293 11.03,25.03 l -0.14,-0.902 h -0.01 c 0.54,4.555 -2.6,8.756 -7.15,9.479 z m -9.23,-105.188 v 0 l -0.11,-0.683 c 1.2,6.588 0.71,13.646 -1.92,20.667 -4.89,13.08 -16.4,22.55 -30.17,24.849 -1.01,0.167 -2,0.3 -2.99,0.388 l -2.15,-12.883 c 0.99,-0.051 1.99,-0.15 3,-0.318 14.94,-2.494 23.63,-16.503 21.51,-29.88 l 0.02,-0.002 c -0.44,-3.453 1.92,-6.662 5.38,-7.237 3.45,-0.579 6.72,1.689 7.43,5.099 z m -92.08,-5.102 c 3.46,0.578 5.82,3.784 5.38,7.237 l 0.02,0.005 c -2.12,13.377 6.57,27.386 21.51,29.878 1.01,0.167 2,0.269 3,0.32 l -2.15,12.883 c -0.99,-0.09 -1.98,-0.221 -2.99,-0.388 -13.77,-2.299 -25.28,-11.772 -30.17,-24.851 -2.63,-7.019 -3.12,-14.077 -1.92,-20.665 l -0.11,0.68 v 0.003 c 0.71,-3.41 3.97,-5.678 7.43,-5.102 z"
   style="fill:#915f2d;fill-rule:nonzero" />
                            <path
   id="path4"
   d="m 1596.95,169.189 c 0,2.338 -1.86,4.246 -4.18,4.331 v 0.02 c -9.04,0.074 -17.3,7.33 -17.3,17.441 0,0.678 0.04,1.347 0.11,2.007 h -8.71 c -0.05,-0.657 -0.08,-1.326 -0.08,-2.007 0,-9.32 4.98,-17.934 13.05,-22.595 4.33,-2.5 8.93,-3.597 13.39,-3.532 h -0.46 v 0.003 c 2.32,0.088 4.18,1.993 4.18,4.332 z"
   style="fill-rule:nonzero" />
                            <g
   id="path6"
   transform="rotate(180,1530.865,178.92)">
                                <path
   d="m 1545.94,188.651 c 0,-2.338 -1.85,-4.246 -4.17,-4.331 v -0.02 c -9.04,-0.074 -17.31,-7.33 -17.31,-17.441 0,-0.678 0.04,-1.347 0.12,-2.007 h -8.72 c -0.05,0.657 -0.07,1.326 -0.07,2.007 0,9.32 4.97,17.934 13.05,22.595 4.33,2.5 8.92,3.597 13.39,3.532 h -0.46 v -0.003 c 2.32,-0.088 4.17,-1.993 4.17,-4.332 z"
   style="fill-rule:nonzero"
   id="path138" />
                            </g>
                            <g
   id="circle8"
   transform="matrix(1.20959,0,0,1,-330.892,151.733)">
                                <circle
   cx="1560.17"
   cy="54.980999"
   r="22.343"
   style="fill:#915f2d"
   id="circle141" />
                            </g>
                            <circle
   id="circle10"
   cx="1555.83"
   cy="249.16499"
   r="30.402"
   style="fill:#cd853d" />
                            <path
   id="path12"
   d="m 1640.2,243.394 c 0.26,0.136 0.53,0.283 0.79,0.437 11.59,6.689 15.56,21.509 8.87,33.097 -6.57,11.378 -20.98,15.409 -32.47,9.215 l -0.01,0.006 c -0.2,-0.113 -0.39,-0.227 -0.59,-0.34 -0.01,-0.006 -0.02,-0.012 -0.03,-0.017 -0.01,-0.006 -0.02,-0.009 -0.03,-0.017 -21.24,-12.26 -35.43,-20.727 -51.15,-56.687 41.08,-5.08 54.43,2.63 74.63,14.292 0,0.003 -0.01,0.008 -0.01,0.014 z m -169.27,-0.014 c 20.2,-11.665 33.55,-19.372 74.63,-14.298 -15.72,35.966 -29.92,44.43 -51.16,56.698 0,0.006 -0.01,0.009 -0.03,0.017 0,0.006 -0.01,0.009 -0.02,0.015 -0.2,0.113 -0.39,0.226 -0.59,0.34 l -0.01,-0.009 c -11.49,6.194 -25.9,2.16 -32.47,-9.221 -6.69,-11.582 -2.72,-26.402 8.87,-33.091 0.26,-0.154 0.53,-0.301 0.79,-0.44 0,-0.005 -0.01,-0.008 -0.01,-0.011 z"
   style="fill:#a2e8df;fill-rule:nonzero" />
                            <g
   id="circle14"
   transform="matrix(0.439993,0,0,0.683282,868.753,191.79)">
                                <circle
   cx="1561.84"
   cy="188.90401"
   r="80.279999"
   style="fill:#915f2d"
   id="circle146" />
                            </g>
                            <path
   id="path16"
   d="m 1591.28,320.865 c 0,3.152 -0.18,6.247 -0.5,9.255 l -69.71,-0.601 c -0.29,-2.818 -0.44,-5.709 -0.44,-8.654 0,-9.369 1.51,-18.184 4.17,-25.903 l 62.68,1.131 c 2.43,7.441 3.8,15.857 3.8,24.772 z m -2.18,19.023 c -0.68,2.838 -1.51,5.559 -2.46,8.153 l -61.43,-0.128 c -0.96,-2.642 -1.79,-5.42 -2.47,-8.311 z"
   style="fill:#ffcc32;fill-rule:nonzero" />
                        </g>
                    <g
   id="hex06"
   serif:id="hex0"
   transform="translate(182.233,236.02539)">
                            <path
   d="m 121.315,126.546 -21.65,37.5 H 56.363 l -21.65,-37.5 21.65,-37.5 h 43.302 z"
   style="fill:#fff2aa;fill-rule:nonzero;stroke:#ff9500;stroke-width:1.5px"
   id="path153" />
                        </g><g
   id="draggable2"
   transform="matrix(0.264583,0,0,0.264583,-53.084269,183.31294)">
                            <path
   id="path2-2"
   d="m 1487.69,293.414 -0.01,-0.003 -0.14,0.902 c 1.26,-8.734 4.82,-17.351 11.03,-25.027 11.58,-14.304 29.92,-21.334 48.09,-18.454 1.33,0.21 2.63,0.462 3.9,0.76 l -2.7,16.999 c -1.26,-0.348 -2.55,-0.64 -3.87,-0.85 -19.72,-3.127 -36.43,10.752 -39.37,28.358 l -0.03,-0.006 c -0.89,4.498 -5.18,7.52 -9.74,6.797 -4.56,-0.722 -7.7,-4.921 -7.16,-9.476 z m 127.53,9.479 c -4.57,0.723 -8.86,-2.302 -9.74,-6.8 l -0.04,0.006 c -2.93,-17.606 -19.65,-31.485 -39.37,-28.358 -1.32,0.21 -2.61,0.502 -3.87,0.853 l -2.7,-16.999 c 1.27,-0.301 2.57,-0.55 3.89,-0.763 18.18,-2.88 36.52,4.153 48.1,18.454 6.21,7.676 9.77,16.293 11.03,25.03 l -0.14,-0.902 h -0.01 c 0.54,4.555 -2.6,8.756 -7.15,9.479 z m -9.23,-105.188 v 0 l -0.11,-0.683 c 1.2,6.588 0.71,13.646 -1.92,20.667 -4.89,13.08 -16.4,22.55 -30.17,24.849 -1.01,0.167 -2,0.3 -2.99,0.388 l -2.15,-12.883 c 0.99,-0.051 1.99,-0.15 3,-0.318 14.94,-2.494 23.63,-16.503 21.51,-29.88 l 0.02,-0.002 c -0.44,-3.453 1.92,-6.662 5.38,-7.237 3.45,-0.579 6.72,1.689 7.43,5.099 z m -92.08,-5.102 c 3.46,0.578 5.82,3.784 5.38,7.237 l 0.02,0.005 c -2.12,13.377 6.57,27.386 21.51,29.878 1.01,0.167 2,0.269 3,0.32 l -2.15,12.883 c -0.99,-0.09 -1.98,-0.221 -2.99,-0.388 -13.77,-2.299 -25.28,-11.772 -30.17,-24.851 -2.63,-7.019 -3.12,-14.077 -1.92,-20.665 l -0.11,0.68 v 0.003 c 0.71,-3.41 3.97,-5.678 7.43,-5.102 z"
   style="fill:#915f2d;fill-rule:nonzero" />
                            <path
   id="path4-5"
   d="m 1596.95,169.189 c 0,2.338 -1.86,4.246 -4.18,4.331 v 0.02 c -9.04,0.074 -17.3,7.33 -17.3,17.441 0,0.678 0.04,1.347 0.11,2.007 h -8.71 c -0.05,-0.657 -0.08,-1.326 -0.08,-2.007 0,-9.32 4.98,-17.934 13.05,-22.595 4.33,-2.5 8.93,-3.597 13.39,-3.532 h -0.46 v 0.003 c 2.32,0.088 4.18,1.993 4.18,4.332 z"
   style="fill-rule:nonzero" />
                            <g
   id="path6-3"
   transform="rotate(180,1530.865,178.92)">
                                <path
   d="m 1545.94,188.651 c 0,-2.338 -1.85,-4.246 -4.17,-4.331 v -0.02 c -9.04,-0.074 -17.31,-7.33 -17.31,-17.441 0,-0.678 0.04,-1.347 0.12,-2.007 h -8.72 c -0.05,0.657 -0.07,1.326 -0.07,2.007 0,9.32 4.97,17.934 13.05,22.595 4.33,2.5 8.92,3.597 13.39,3.532 h -0.46 v -0.003 c 2.32,-0.088 4.17,-1.993 4.17,-4.332 z"
   style="fill-rule:nonzero"
   id="path158" />
                            </g>
                            <g
   id="circle8-1"
   transform="matrix(1.20959,0,0,1,-330.892,151.733)">
                                <circle
   cx="1560.17"
   cy="54.980999"
   r="22.343"
   style="fill:#915f2d"
   id="circle161" />
                            </g>
                            <circle
   id="circle10-9"
   cx="1555.83"
   cy="249.16499"
   r="30.402"
   style="fill:#cd853d" />
                            <path
   id="path12-6"
   d="m 1640.2,243.394 c 0.26,0.136 0.53,0.283 0.79,0.437 11.59,6.689 15.56,21.509 8.87,33.097 -6.57,11.378 -20.98,15.409 -32.47,9.215 l -0.01,0.006 c -0.2,-0.113 -0.39,-0.227 -0.59,-0.34 -0.01,-0.006 -0.02,-0.012 -0.03,-0.017 -0.01,-0.006 -0.02,-0.009 -0.03,-0.017 -21.24,-12.26 -35.43,-20.727 -51.15,-56.687 41.08,-5.08 54.43,2.63 74.63,14.292 0,0.003 -0.01,0.008 -0.01,0.014 z m -169.27,-0.014 c 20.2,-11.665 33.55,-19.372 74.63,-14.298 -15.72,35.966 -29.92,44.43 -51.16,56.698 0,0.006 -0.01,0.009 -0.03,0.017 0,0.006 -0.01,0.009 -0.02,0.015 -0.2,0.113 -0.39,0.226 -0.59,0.34 l -0.01,-0.009 c -11.49,6.194 -25.9,2.16 -32.47,-9.221 -6.69,-11.582 -2.72,-26.402 8.87,-33.091 0.26,-0.154 0.53,-0.301 0.79,-0.44 0,-0.005 -0.01,-0.008 -0.01,-0.011 z"
   style="fill:#a2e8df;fill-rule:nonzero" />
                            <g
   id="circle14-8"
   transform="matrix(0.660355,0,0,0.773937,523.435,187.627)">
                                <circle
   cx="1561.84"
   cy="188.90401"
   r="80.279999"
   style="fill:#915f2d"
   id="circle166" />
                            </g>
                            <path
   id="path16-8"
   d="m 1605.35,314.274 c 2.31,7.209 1.54,6.526 2.33,13.431 l -105.38,-0.366 c -0.06,-4.844 0.5,-9.252 2.57,-13.793 z"
   style="fill:#ffcc32;fill-rule:nonzero" />
                        </g>
                    <path
   d="m 108.9298,362.572 -21.65,37.5 h -43.302 l -21.65,-37.5 21.65,-37.5 h 43.302 z"
   style="fill:#fff2aa;fill-rule:nonzero;stroke:#ff9500;stroke-width:1.5px"
   id="path173" />
                    <g
   id="g10975"
   transform="translate(291.92829,-187.81945)"><path
     id="path2-7"
     d="m 47.668483,362.71136 -0.0026,-8e-4 -0.03704,0.23866 c 0.333374,-2.31087 1.27529,-4.59078 2.91835,-6.62172 3.063871,-3.7846 7.916324,-5.64462 12.723797,-4.88262 0.351895,0.0556 0.695853,0.12224 1.031873,0.20109 l -0.714374,4.49764 c -0.333374,-0.0921 -0.674686,-0.16933 -1.023936,-0.22489 -5.217577,-0.82735 -9.638759,2.84479 -10.416633,7.50304 l -0.0079,-0.002 c -0.235479,1.1901 -1.37054,1.98967 -2.577038,1.79837 -1.206499,-0.19102 -2.03729,-1.30201 -1.894415,-2.50718 z m 33.74227,2.50798 c -1.209144,0.19129 -2.344205,-0.60907 -2.577038,-1.79917 l -0.01058,0.002 c -0.775229,-4.65825 -5.199056,-8.33039 -10.416633,-7.50304 -0.34925,0.0556 -0.690562,0.13282 -1.023936,0.22569 l -0.714374,-4.49765 c 0.33602,-0.0796 0.679978,-0.14552 1.029227,-0.20188 4.810119,-0.762 9.662572,1.09882 12.726443,4.88262 1.64306,2.03094 2.584976,4.31085 2.91835,6.62251 l -0.03704,-0.23865 h -0.0026 c 0.142875,1.20517 -0.687916,2.31669 -1.891769,2.50798 z m -2.442101,-27.83096 v 0 l -0.0291,-0.18071 c 0.3175,1.74307 0.187854,3.6105 -0.507999,5.46814 -1.293811,3.46074 -4.339162,5.96635 -7.982469,6.57462 -0.267229,0.0442 -0.529166,0.0794 -0.791104,0.10266 l -0.568853,-3.40862 c 0.261937,-0.0135 0.52652,-0.0397 0.793749,-0.0841 3.95287,-0.65987 6.252096,-4.36641 5.69118,-7.90574 l 0.0053,-5.3e-4 c -0.116417,-0.9136 0.507999,-1.76265 1.423456,-1.91479 0.912812,-0.15319 1.777998,0.44688 1.965852,1.34911 z m -24.362802,-1.3499 c 0.915457,0.15293 1.539873,1.00118 1.423456,1.91479 l 0.0053,0.001 c -0.560916,3.53933 1.73831,7.24587 5.69118,7.90521 0.267229,0.0442 0.529166,0.0712 0.793749,0.0847 l -0.568853,3.40862 c -0.261938,-0.0238 -0.523875,-0.0585 -0.791104,-0.10266 -3.643307,-0.60827 -6.688658,-3.11467 -7.982469,-6.57515 -0.695853,-1.85711 -0.825499,-3.72454 -0.507999,-5.46761 l -0.0291,0.17992 v 7.9e-4 c 0.187854,-0.90223 1.050394,-1.5023 1.965852,-1.3499 z"
     style="fill:#915f2d;fill-rule:nonzero;stroke-width:0.264583" /><path
     id="path4-7"
     d="m 76.576822,329.84353 c 0,0.6186 -0.492125,1.12342 -1.105957,1.14591 v 0.005 c -2.39183,0.0196 -4.577286,1.9394 -4.577286,4.6146 0,0.17938 0.01058,0.35639 0.0291,0.53101 h -2.304518 c -0.01323,-0.17383 -0.02117,-0.35083 -0.02117,-0.53101 0,-2.46592 1.317623,-4.74504 3.452808,-5.97826 1.145644,-0.66145 2.362726,-0.9517 3.542766,-0.9345 h -0.121708 v 7.9e-4 c 0.613832,0.0233 1.105957,0.52731 1.105957,1.14617 z"
     style="fill-rule:nonzero;stroke-width:0.264583" /><g
     id="path6-39"
     transform="matrix(-0.264583,0,0,-0.264583,464.13271,379.75738)">
                            <path
   d="m 1545.94,188.651 c 0,-2.338 -1.85,-4.246 -4.17,-4.331 v -0.02 c -9.04,-0.074 -17.31,-7.33 -17.31,-17.441 0,-0.678 0.04,-1.347 0.12,-2.007 h -8.72 c -0.05,0.657 -0.07,1.326 -0.07,2.007 0,9.32 4.97,17.934 13.05,22.595 4.33,2.5 8.92,3.597 13.39,3.532 h -0.46 v -0.003 c 2.32,-0.088 4.17,-1.993 4.17,-4.332 z"
   style="fill-rule:nonzero"
   id="path178" />
                        </g><g
     id="circle8-61"
     serif:id="circle8-6"
     transform="matrix(0.32003695,0,0,0.264583,-433.4974,325.22497)">
                            <circle
   cx="1560.17"
   cy="54.980999"
   r="22.343"
   style="fill:#915f2d"
   id="circle181" />
                        </g><circle
     id="circle10-7"
     cx="65.697159"
     cy="351.00381"
     r="8.0438528"
     style="fill:#cd853d;stroke-width:0.264583" /><path
     id="path12-1"
     d="m 88.020037,349.47691 c 0.06879,0.036 0.140229,0.0749 0.20902,0.11563 3.066517,1.76979 4.116912,5.69091 2.346851,8.7569 -1.73831,3.01043 -5.550951,4.07696 -8.59101,2.43813 l -0.0026,0.002 c -0.05292,-0.0299 -0.103188,-0.0601 -0.156104,-0.09 -0.0026,-0.002 -0.0053,-0.003 -0.0079,-0.005 -0.0026,-0.002 -0.0053,-0.002 -0.0079,-0.004 -5.619743,-3.24379 -9.374176,-5.48402 -13.533421,-14.99842 10.86907,-1.34408 14.401253,0.69585 19.745829,3.78142 0,7.9e-4 -0.0026,0.002 -0.0026,0.004 z m -44.785965,-0.004 c 5.344577,-3.08636 8.87676,-5.1255 19.745829,-3.78301 -4.159244,9.51599 -7.916323,11.75543 -13.536066,15.00133 0,0.002 -0.0026,0.002 -0.0079,0.005 0,0.002 -0.0026,0.002 -0.0053,0.004 -0.05292,0.0299 -0.103187,0.0598 -0.156104,0.0899 l -0.0026,-0.002 c -3.040058,1.63883 -6.852699,0.5715 -8.59101,-2.43972 -1.77006,-3.0644 -0.719666,-6.98552 2.346851,-8.75531 0.06879,-0.0408 0.140229,-0.0796 0.209021,-0.11642 0,-10e-4 -0.0026,-0.002 -0.0026,-0.003 z"
     style="fill:#a2e8df;fill-rule:nonzero;stroke-width:0.264583" /><g
     id="circle14-91"
     serif:id="circle14-9"
     transform="matrix(0.17471871,0,0,0.264583,-207.457,325.22497)">
                            <circle
   cx="1561.84"
   cy="188.90401"
   r="80.279999"
   style="fill:#915f2d"
   id="circle186" />
                        </g><path
     id="path16-02"
     d="m 79.452839,375.20576 c 0,2.74187 -0.343958,5.3623 -0.968374,7.76842 H 52.367477 c -0.624416,-2.40612 -0.968373,-5.02655 -0.968373,-7.76842 0,-3.06228 0.428624,-5.97323 1.198561,-8.60265 h 25.656613 c 0.769937,2.62942 1.198561,5.54037 1.198561,8.60265 z"
     style="fill:#ffcc32;fill-rule:nonzero;stroke-width:0.264583" /></g>
                    <g
   id="path2-67"
   transform="matrix(0,0.0842177,-0.0842177,0,317.85556,365.3967)">
                            <path
   d="m 708.661,523.077 141.733,81.828 V 768.566 L 708.661,850.394 566.929,768.566 V 604.905 Z"
   style="fill:#fff2aa;fill-rule:nonzero;stroke:#d07900;stroke-width:9.32px"
   id="path191" />
                        </g><g
   id="path4-6"
   transform="matrix(0,0.0842177,-0.0842177,0,318.30781,412.98787)">
                            <path
   d="m 708.661,523.077 141.733,81.828 V 768.566 L 708.661,850.394 566.929,768.566 V 604.905 Z"
   style="fill:#fcba5e;fill-rule:nonzero;stroke:#d07900;stroke-width:9.32px"
   id="path194" />
                        </g><g
   id="path6-7"
   transform="matrix(0,0.0842177,-0.0842177,0,318.30781,389.26938)">
                            <path
   d="m 708.661,523.077 141.733,81.828 V 768.566 L 708.661,850.394 566.929,768.566 V 604.905 Z"
   style="fill:#fff2aa;fill-rule:nonzero;stroke:#d07900;stroke-width:9.32px"
   id="path197" />
                        </g>
                    <g
   id="path2-8"
   transform="matrix(0,0.0842177,-0.0842177,0,102.82204,365.39723)">
                            <path
   d="m 708.661,523.077 141.733,81.828 V 768.566 L 708.661,850.394 566.929,768.566 V 604.905 Z"
   style="fill:#fff2aa;fill-rule:nonzero;stroke:#d07900;stroke-width:9.32px"
   id="path201" />
                        </g><g
   id="path4-78"
   transform="matrix(0,0.0842177,-0.0842177,0,123.35516,377.08361)">
                            <path
   d="m 708.661,523.077 141.733,81.828 V 768.566 L 708.661,850.394 566.929,768.566 V 604.905 Z"
   style="fill:#fcba5e;fill-rule:nonzero;stroke:#d07900;stroke-width:9.32px"
   id="path204" />
                        </g><g
   id="path6-76"
   transform="matrix(0,0.0842177,-0.0842177,0,144.1064,365.39723)">
                            <path
   d="m 708.661,523.077 141.733,81.828 V 768.566 L 708.661,850.394 566.929,768.566 V 604.905 Z"
   style="fill:#fff2aa;fill-rule:nonzero;stroke:#d07900;stroke-width:9.32px"
   id="path207" />
                        </g>
                    <g
   id="path2-3"
   transform="matrix(0,0.0842177,-0.0842177,0,200.19954,365.39723)">
                            <path
   d="m 708.661,523.077 141.733,81.828 V 768.566 L 708.661,850.394 566.929,768.566 V 604.905 Z"
   style="fill:#fff2aa;fill-rule:nonzero;stroke:#d07900;stroke-width:9.32px"
   id="path211" />
                        </g><g
   id="path4-69"
   transform="matrix(0,0.0842177,-0.0842177,0,220.73266,377.08361)">
                            <path
   d="m 708.661,523.077 141.733,81.828 V 768.566 L 708.661,850.394 566.929,768.566 V 604.905 Z"
   style="fill:#fff2aa;fill-rule:nonzero;stroke:#d07900;stroke-width:9.32px"
   id="path214" />
                        </g><g
   id="path6-8"
   transform="matrix(0,0.0842177,-0.0842177,0,241.4839,389.10214)">
                            <path
   d="m 708.661,523.077 141.733,81.828 V 768.566 L 708.661,850.394 566.929,768.566 V 604.905 Z"
   style="fill:#fcba5e;fill-rule:nonzero;stroke:#d07900;stroke-width:9.32px"
   id="path217" />
                        </g>
                    <g
   id="path2-9"
   transform="matrix(0,0.0842177,-0.0842177,0,620.26629,365.39669)">
                            <path
   d="m 708.661,523.077 141.733,81.828 V 768.566 L 708.661,850.394 566.929,768.566 V 604.905 Z"
   style="fill:#fff2aa;fill-rule:nonzero;stroke:#d07900;stroke-width:9.32px"
   id="path221" />
                        </g><g
   id="path4-8"
   transform="matrix(0,0.0842177,-0.0842177,0,599.7517,377.27902)">
                            <path
   d="m 708.661,523.077 141.733,81.828 V 768.566 L 708.661,850.394 566.929,768.566 V 604.905 Z"
   style="fill:#fcba5e;fill-rule:nonzero;stroke:#d07900;stroke-width:9.32px"
   id="path224" />
                        </g><g
   id="path6-6"
   transform="matrix(0,0.0842177,-0.0842177,0,620.26629,389.26946)">
                            <path
   d="m 708.661,523.077 141.733,81.828 V 768.566 L 708.661,850.394 566.929,768.566 V 604.905 Z"
   style="fill:#fff2aa;fill-rule:nonzero;stroke:#d07900;stroke-width:9.32px"
   id="path227" />
                        </g>
                    <g
   id="path2-91"
   serif:id="path2-9"
   transform="matrix(0,0.0842177,0.0842177,0,577.73614,365.39669)">
                            <path
   d="m 708.661,523.077 141.733,81.828 V 768.566 L 708.661,850.394 566.929,768.566 V 604.905 Z"
   style="fill:#fcba5e;fill-rule:nonzero;stroke:#d07900;stroke-width:9.32px"
   id="path231" />
                        </g><g
   id="path4-81"
   serif:id="path4-8"
   transform="matrix(0,0.0842177,0.0842177,0,598.25073,377.27902)">
                            <path
   d="m 708.661,523.077 141.733,81.828 V 768.566 L 708.661,850.394 566.929,768.566 V 604.905 Z"
   style="fill:#fff2aa;fill-rule:nonzero;stroke:#d07900;stroke-width:9.32px"
   id="path234" />
                        </g><g
   id="path6-61"
   serif:id="path6-6"
   transform="matrix(0,0.0842177,0.0842177,0,577.73614,389.26946)">
                            <path
   d="m 708.661,523.077 141.733,81.828 V 768.566 L 708.661,850.394 566.929,768.566 V 604.905 Z"
   style="fill:#fff2aa;fill-rule:nonzero;stroke:#d07900;stroke-width:9.32px"
   id="path237" />
                        </g>
                    <g
   id="path2-74"
   transform="matrix(-0.07293466,-0.04210886,0.04210886,-0.07293466,488.0959,528.90454)">
                            <path
   d="m 708.661,523.077 141.733,81.828 V 768.566 L 708.661,850.394 566.929,768.566 V 604.905 Z"
   style="fill:#fff2aa;fill-rule:nonzero;stroke:#d07900;stroke-width:9.32px"
   id="path241" />
                        </g><g
   id="path4-3"
   transform="matrix(-0.07293466,-0.04210886,0.04210886,-0.07293466,488.20538,505.00607)">
                            <path
   d="m 708.661,523.077 141.733,81.828 V 768.566 L 708.661,850.394 566.929,768.566 V 604.905 Z"
   style="fill:#fff2aa;fill-rule:nonzero;stroke:#d07900;stroke-width:9.32px"
   id="path244" />
                        </g><g
   id="path6-65"
   transform="matrix(-0.07293466,-0.04210886,0.04210886,-0.07293466,467.06252,540.81545)">
                            <path
   d="m 708.661,523.077 141.733,81.828 V 768.566 L 708.661,850.394 566.929,768.566 V 604.905 Z"
   style="fill:#fcba5e;fill-rule:nonzero;stroke:#d07900;stroke-width:9.32px"
   id="path247" />
                        </g>
                    <g
   id="path2-69"
   transform="matrix(0,-0.0842177,-0.0842177,0,394.38694,508.46577)">
                            <path
   d="m 708.661,523.077 141.733,81.828 V 768.566 L 708.661,850.394 566.929,768.566 V 604.905 Z"
   style="fill:#fff2aa;fill-rule:nonzero;stroke:#d07900;stroke-width:9.32px"
   id="path251" />
                        </g><g
   id="path4-60"
   transform="matrix(0,-0.0842177,-0.0842177,0,414.92006,496.77939)">
                            <path
   d="m 708.661,523.077 141.733,81.828 V 768.566 L 708.661,850.394 566.929,768.566 V 604.905 Z"
   style="fill:#fff2aa;fill-rule:nonzero;stroke:#d07900;stroke-width:9.32px"
   id="path254" />
                        </g><g
   id="path6-0"
   transform="matrix(0,-0.0842177,-0.0842177,0,435.6713,484.76086)">
                            <path
   d="m 708.661,523.077 141.733,81.828 V 768.566 L 708.661,850.394 566.929,768.566 V 604.905 Z"
   style="fill:#fcba5e;fill-rule:nonzero;stroke:#d07900;stroke-width:9.32px"
   id="path257" />
                        </g>
                </g>
            </g>
        </g>
    </g>
</svg>
