<?xml version="1.0" encoding="utf-8"?>
<svg viewBox="63.228 86.142 21.211 21.211" width="21.211" height="21.211" xmlns="http://www.w3.org/2000/svg">
  <g transform="matrix(-0.000549, -0.264286, 0.296573, -0.000617, -256.6824, 241.562117)" id="g3904">
    <g style="">
      <rect x="478.037" y="169.794" width="80.09" height="71.371" style="fill:#ffffff;stroke:#ffa300;stroke-width:2.18px" id="rect3882" transform="matrix(1, 0.000002, -0.000002, 1, 27.264278, 909.982544)"/>
      <path d="M 575.336 1092.62 C 575.336 1090.45 573.355 1088.68 570.916 1088.68 L 519.689 1088.68 C 517.249 1088.68 515.269 1090.45 515.269 1092.62 L 515.269 1138.27 C 515.269 1140.45 517.249 1142.21 519.689 1142.21 L 570.916 1142.21 C 573.355 1142.21 575.336 1140.45 575.336 1138.27 Z" style="fill:#ffeeae" id="path3902"/>
      <path d="M 520.134 1134.699 C 517.417 1120.14 514.479 1091.199 519.689 1088.692 C 517.249 1088.692 515.269 1090.45 515.269 1092.626 L 515.269 1138.277 C 515.269 1140.454 517.249 1142.22 519.689 1142.22 L 570.916 1142.22 C 572.08 1142.22 573.141 1141.819 573.93 1141.158 C 574.701 1140.516 541.86 1139.249 524.554 1138.643 C 522.115 1138.643 520.134 1136.876 520.134 1134.699 Z" style="fill:#ebdb91" id="path3906"/>
    </g>
  </g>
</svg>