<?xml version="1.0" encoding="UTF-8" standalone="no"?>
<svg
   xmlns:dc="http://purl.org/dc/elements/1.1/"
   xmlns:cc="http://creativecommons.org/ns#"
   xmlns:rdf="http://www.w3.org/1999/02/22-rdf-syntax-ns#"
   xmlns:svg="http://www.w3.org/2000/svg"
   xmlns="http://www.w3.org/2000/svg"
   xmlns:sodipodi="http://sodipodi.sourceforge.net/DTD/sodipodi-0.dtd"
   xmlns:inkscape="http://www.inkscape.org/namespaces/inkscape"
   width="28.704897mm"
   height="19.805227mm"
   viewBox="0 0 28.704897 19.805227"
   version="1.1"
   id="svg2111"
   inkscape:version="1.0 (4035a4fb49, 2020-05-01)"
   sodipodi:docname="2022-CA-02-book.svg">
  <defs
     id="defs2105" />
  <sodipodi:namedview
     id="base"
     pagecolor="#ffffff"
     bordercolor="#666666"
     borderopacity="1.0"
     inkscape:pageopacity="0.0"
     inkscape:pageshadow="2"
     inkscape:zoom="0.35"
     inkscape:cx="400"
     inkscape:cy="560"
     inkscape:document-units="mm"
     inkscape:current-layer="layer1"
     inkscape:document-rotation="0"
     showgrid="false" />
  <metadata
     id="metadata2108">
    <rdf:RDF>
      <cc:Work
         rdf:about="">
        <dc:format>image/svg+xml</dc:format>
        <dc:type
           rdf:resource="http://purl.org/dc/dcmitype/StillImage" />
        <dc:title />
      </cc:Work>
    </rdf:RDF>
  </metadata>
  <g
     inkscape:label="Ebene 1"
     inkscape:groupmode="layer"
     id="layer1"
     transform="translate(44.824502,-37.758807)">
    <g
       id="g2691">
      <path
         style="clip-rule:evenodd;fill-rule:evenodd;stroke-width:0.264583;stroke-linejoin:round;stroke-miterlimit:2"
         d="m -42.77737,39.5986 c -0.172509,0.305329 -1.395148,-0.108744 -2.006865,0.502973 -0.136789,0.136789 0.118798,7.323931 0.118798,8.222456 0,3.76899 0.08202,8.586258 0.368035,8.586258 0.234157,0 0.05953,-0.06191 0.372534,-0.06191 0,0 0.33946,-1.108869 10.640747,-1.056481 0.2286,0.0013 0.47969,-0.09313 0.682361,0.01085 1.140618,0.584993 2.398712,0.620977 4.33996,-0.0598 0.321998,-0.112977 0.683419,-0.02408 1.03214,0.0034 2.125662,0.167482 4.445264,1.209675 7.345098,1.224492 0.930804,0 1.934103,0.593196 2.537088,0.593196 v -1.717146 c 0,-1.075796 0.122767,-2.09894 0.122767,-3.189287 0,-1.818482 0.303213,-10.974653 1.103842,-11.775282 0.06376,-0.06377 -2.319866,-0.07117 -1.43219,-0.05001 z"
         id="path2" />
      <g
         style="clip-rule:evenodd;fill-rule:evenodd;stroke-linejoin:round;stroke-miterlimit:2"
         transform="matrix(0.26458333,0,0,0.26458333,-188.43755,-115.53399)"
         id="g24">
        <path
           d="m 548.535,583.478 c 1.328,-0.524 0.169,7.863 0,10.397 -0.377,5.644 1.46,23.713 -0.617,36.658 -1.225,7.638 -0.018,5.849 -0.546,12.963 0.456,1.822 -0.661,5.202 1.163,5.371 1.249,0.116 5.186,-0.109 7.016,-0.838 12.228,-4.874 37.471,-8.534 39.523,-1.632 l 3.101,-1.01 c 1.715,-1.586 6.823,-1.844 12.567,-1.049 9.696,1.342 25.118,5.471 25.431,5.158 0.907,-0.907 4.762,-3.631 4.581,-3.45 l 0.01,0.252 c 0,-13.352 1.86,-31.581 3.771,-44.953 0.604,-4.231 1.39,-19.007 1.39,-19.007 0,0 -22.019,-2.513 -35.253,-0.813 -5.712,0.734 -11.106,7.766 -11.106,7.766 0.486,-5.647 -16.97,-8.454 -31.199,-9.802 -9.697,-0.919 -19.832,3.989 -19.832,3.989 z"
           style="fill:#cccccc"
           id="path22" />
      </g>
      <path
         style="clip-rule:evenodd;fill-rule:evenodd;stroke-width:0.264583;stroke-linejoin:round;stroke-miterlimit:2"
         d="m -20.888127,55.019575 c -0.191558,-0.278342 -0.592931,-0.550598 -1.135592,-0.780521 -0.735541,-0.311679 -1.739635,-0.565414 -2.748756,-0.726017 -1.1811,-0.187854 -2.369079,-0.24765 -3.142192,-0.135731 -0.387879,0.05609 -0.682095,0.16219 -0.853016,0.29845 -0.127,0.100806 -0.147902,0.28575 -0.04683,0.412486 0.100806,0.126735 0.28575,0.147902 0.412485,0.04683 0.159544,-0.127 0.482865,-0.18124 0.895879,-0.210608 0.71755,-0.05133 1.681692,0.01587 2.641336,0.168539 0.958585,0.152665 1.913202,0.390525 2.611966,0.686594 0.413544,0.175419 0.734748,0.360362 0.880534,0.572558 0.09181,0.133615 0.274902,0.167481 0.408516,0.07567 0.13335,-0.09181 0.167217,-0.274637 0.07567,-0.408252 z m -10.619052,-1.712119 c -0.3556,-0.385762 -0.880533,-0.865981 -1.462088,-1.104371 -1.120775,-0.459316 -2.646097,-0.100277 -3.349095,-0.03413 -1.884627,0.177271 -4.084108,0.586052 -5.391944,1.128448 -0.637116,0.264319 -1.071298,0.580231 -1.227931,0.893498 -0.0725,0.144992 -0.01349,0.321469 0.131233,0.393965 0.144992,0.07249 0.321469,0.01376 0.393965,-0.131234 0.114829,-0.229394 0.461169,-0.420158 0.927629,-0.613833 1.26656,-0.525198 3.39725,-0.9144 5.222081,-1.086115 0.64479,-0.06085 2.043642,-0.42836 3.071283,-0.0071 0.970227,0.397404 1.618721,1.42822 1.747573,1.554162 0.152136,0.148431 0.302684,0.0926 0.356129,0.06615 0.07064,-0.03466 0.152136,-0.09922 0.165365,-0.241829 0.03757,-0.398463 0.297921,-0.686065 0.690298,-0.897996 0.698235,-0.376767 1.783556,-0.515144 2.98741,-0.500592 2.16535,0.02619 4.709848,0.563563 6.171671,1.262856 0.296069,0.141553 0.545836,0.288925 0.734483,0.441061 0.152136,0.122767 0.263261,0.242094 0.306653,0.368035 0.05292,0.152929 0.220397,0.234421 0.373591,0.181504 0.153194,-0.05318 0.234421,-0.220397 0.181504,-0.373591 -0.13335,-0.385498 -0.610658,-0.796661 -1.34276,-1.146704 -1.52056,-0.72734 -4.165865,-1.293019 -6.417998,-1.320271 -1.320535,-0.01614 -2.507456,0.157691 -3.273425,0.570971 -0.14949,0.0807 -0.283898,0.170127 -0.402431,0.268816 0.09869,-2.176727 1.119981,-8.996362 1.360487,-10.398125 0.01667,-0.09763 0.03334,-0.183621 0.03863,-0.210079 0.0093,-0.02752 0.01482,-0.05715 0.01535,-0.08784 0.0037,-0.161925 -0.125148,-0.296334 -0.287073,-0.300038 -0.04524,-0.0011 -0.208227,-0.0024 -0.28231,0.191294 -0.0074,0.01958 -0.03254,0.126206 -0.0635,0.307181 -0.255058,1.487223 -1.376363,9.015413 -1.376363,10.793149 0,0.01111 5.3e-4,0.02196 0.0016,0.03281 z m -9.264385,1.50839 c 0.06429,-0.0344 0.235479,-0.123031 0.401108,-0.182827 1.022879,-0.369623 3.233738,-0.829204 4.879711,-0.896673 0.663839,-0.02699 1.231106,0.0032 1.570037,0.147637 0.14896,0.0635 0.321733,-0.0058 0.385233,-0.154781 0.0635,-0.149225 -0.0058,-0.321733 -0.155046,-0.385233 -0.394229,-0.168275 -1.051983,-0.225954 -1.824301,-0.194204 -1.70524,0.06985 -3.995473,0.547952 -5.055394,0.930804 -0.311679,0.112712 -0.528109,0.227806 -0.625475,0.3175 -0.135731,0.124883 -0.155046,0.258762 -0.134409,0.362214 0.03202,0.15875 0.187061,0.261938 0.345811,0.229923 0.09895,-0.01984 0.176477,-0.08758 0.212725,-0.17436 z m 11.135783,-12.291484 c -0.01932,0.01243 -0.04022,0.02249 -0.06218,0.03016 -0.02196,0.0074 -0.04524,0.01244 -0.06906,0.01455 0.0418,-0.0032 0.08625,-0.01561 0.131233,-0.04471 z"
         id="path28" />
    </g>
  </g>
</svg>
