<?xml version="1.0" encoding="UTF-8" standalone="no"?>
<!-- Created with Inkscape (http://www.inkscape.org/) -->

<svg
   width="48.020393mm"
   height="43.772732mm"
   viewBox="0 0 48.020393 43.772732"
   version="1.1"
   id="svg2465"
   sodipodi:docname="2022-IT-02-taskbody_shell.svg"
   inkscape:version="1.1.1 (3bf5ae0d25, 2021-09-20)"
   xmlns:inkscape="http://www.inkscape.org/namespaces/inkscape"
   xmlns:sodipodi="http://sodipodi.sourceforge.net/DTD/sodipodi-0.dtd"
   xmlns="http://www.w3.org/2000/svg"
   xmlns:svg="http://www.w3.org/2000/svg">
  <sodipodi:namedview
     id="namedview2467"
     pagecolor="#ffffff"
     bordercolor="#666666"
     borderopacity="1.0"
     inkscape:pageshadow="2"
     inkscape:pageopacity="0.0"
     inkscape:pagecheckerboard="0"
     inkscape:document-units="mm"
     showgrid="false"
     inkscape:zoom="0.66368547"
     inkscape:cx="91.157639"
     inkscape:cy="82.117212"
     inkscape:window-width="1920"
     inkscape:window-height="1137"
     inkscape:window-x="-8"
     inkscape:window-y="-8"
     inkscape:window-maximized="1"
     inkscape:current-layer="layer1" />
  <defs
     id="defs2462" />
  <g
     inkscape:label="Ebene 1"
     inkscape:groupmode="layer"
     id="layer1"
     transform="translate(-80.989806,-126.61364)">
    <g
       transform="matrix(0.15859178,-0.00122392,0.00122392,0.15859178,69.685048,119.87143)"
       id="g1594"
       style="clip-rule:evenodd;fill-rule:evenodd;stroke-linecap:round;stroke-linejoin:round;stroke-miterlimit:1.5">
      <path
         d="m 285.143,318.382 c -0.963,-8.584 -13.008,-32.797 9.142,-49.903 4.567,-3.527 33.557,-13.403 37.097,-17.829 6.48,-8.099 13.286,-16.791 19.698,-25.864 3.607,-5.105 12.483,-10.33 15.712,-15.639 3.002,-4.936 4.972,-10.902 2.836,-17.521 -2.723,-8.435 -13.931,-16.25 -3.842,-27.509 4.019,-4.485 5.893,-18.938 3.781,-25.22 -2.972,-8.838 -10.883,-13.974 -18.964,-17.755 -11.13,-5.206 -19.877,-14.249 -25.051,-28.321 -1.579,-4.296 -0.808,-11.816 -4.616,-14.453 -5.42,-3.754 -16.754,-4.738 -23.442,-4.203 -13.034,1.041 -16.349,-2.391 -23.455,-14.94 -3.366,-5.945 -13.201,-10.691 -19.939,-12.066 -5.864,-1.197 -12.505,1.409 -17.732,4.346 -8.359,4.697 -17.829,5.757 -29.505,-1.194 -6.859,-4.083 -15.748,-7.342 -23.93,-6.083 -7.624,1.174 -16.332,10.331 -22.23,14.997 -7.586,6 -13.818,13.401 -27.327,9.411 -5.633,-1.663 -13.484,2.363 -18.146,5.751 -6.053,4.398 -12.945,10.871 -13.267,18.276 -0.47,10.838 -6.875,19.024 -16.971,25.616 -5.62,3.669 -11.485,6.199 -13.116,13.154 -1.18,5.029 1.875,17.07 3.895,22.19 6.706,16.996 9.578,27.458 3.18,42.293 -2.724,6.314 -6.286,12.397 -3.896,19.567 1.574,4.722 14.269,17.292 17.041,21.955 9.11,15.326 23.88,28.873 38.982,31.041 23.798,3.416 24.601,39.001 16.934,45.535 z"
         style="fill:#f2f1e7"
         id="path1576" />
      <path
         d="m 294.285,268.479 c 4.567,-3.527 -7.277,-14.854 -11.844,-11.326 -22.15,17.106 -5.23,45.997 -4.267,54.58 -44.114,0.721 -90.048,4.861 -126.05,-8.538 -0.513,4.967 -1.988,9.008 -4.112,10.819 l 137.131,4.368 c -0.963,-8.584 -13.008,-32.797 9.142,-49.903 z"
         style="fill:#e8e6cd"
         id="path1578" />
      <path
         d="m 131.078,268.479 c 17.472,5.504 56.169,17.223 77.364,24.727 11.324,4.01 24.65,2.789 27.202,-0.518 6.423,-8.324 17.851,-8.609 27.386,-10.911 9.996,-2.413 9.504,0.893 31.255,-13.298 4.833,-3.153 33.557,-13.403 37.097,-17.829 6.48,-8.099 13.286,-16.791 19.698,-25.864 3.607,-5.105 12.483,-10.33 15.712,-15.639 3.002,-4.936 4.972,-10.902 2.836,-17.521 -2.723,-8.435 -13.931,-16.25 -3.842,-27.509 4.019,-4.485 5.893,-18.938 3.781,-25.22 -2.972,-8.838 -10.883,-13.974 -18.964,-17.755 -11.13,-5.206 -19.877,-14.249 -25.051,-28.321 -1.579,-4.296 -0.808,-11.816 -4.616,-14.453 -5.42,-3.754 -16.754,-4.738 -23.442,-4.203 -13.034,1.041 -16.349,-2.391 -23.455,-14.94 -3.366,-5.945 -13.201,-10.691 -19.939,-12.066 -5.864,-1.197 -12.505,1.409 -17.732,4.346 -8.359,4.697 -17.829,5.757 -29.505,-1.194 -6.859,-4.083 -15.748,-7.342 -23.93,-6.083 -7.624,1.174 -16.332,10.331 -22.23,14.997 -7.586,6 -13.818,13.401 -27.327,9.411 -5.633,-1.663 -13.484,2.363 -18.146,5.751 -6.053,4.398 -12.945,10.871 -13.267,18.276 -0.47,10.838 -6.875,19.024 -16.971,25.616 -5.62,3.669 -11.485,6.199 -13.116,13.154 -1.18,5.029 1.875,17.07 3.895,22.19 6.706,16.996 9.578,27.458 3.18,42.293 -2.724,6.314 -6.286,12.397 -3.896,19.567 1.574,4.722 14.269,17.292 17.041,21.955 9.11,15.326 24.43,26.457 38.982,31.041 z"
         style="fill:#e6e3b5"
         id="path1580" />
      <path
         d="m 284.863,274.37 c -7.576,4.454 -10.95,5.492 -14.288,6.069 3.86,-1.705 9.128,-3.861 14.288,-6.069 z M 161.33,58.72 c 5.909,0.759 11.769,3.232 16.616,6.118 11.676,6.951 21.146,5.89 29.505,1.194 5.227,-2.937 11.868,-5.543 17.731,-4.347 6.739,1.375 16.574,6.122 19.94,12.067 7.105,12.548 10.421,15.981 23.455,14.939 6.688,-0.534 18.022,0.449 23.442,4.203 3.808,2.638 3.037,10.158 4.616,14.454 5.174,14.072 13.921,23.114 25.05,28.321 8.081,3.78 15.993,8.916 18.964,17.754 2.113,6.282 0.239,20.736 -3.78,25.22 -10.089,11.259 1.119,19.075 3.842,27.51 2.136,6.618 0.165,12.585 -2.837,17.521 -3.228,5.309 -12.104,10.534 -15.712,15.639 -6.191,8.761 -12.751,17.167 -19.029,25.027 10.342,-4.396 25.72,-10.529 28.249,-13.69 6.48,-8.099 13.286,-16.791 19.698,-25.864 3.607,-5.105 12.483,-10.33 15.712,-15.639 3.002,-4.936 4.972,-10.902 2.836,-17.521 -2.723,-8.435 -13.931,-16.25 -3.842,-27.509 4.019,-4.485 5.893,-18.938 3.781,-25.22 -2.972,-8.838 -10.883,-13.974 -18.964,-17.755 -11.13,-5.206 -19.877,-14.249 -25.051,-28.321 -1.579,-4.296 -0.808,-11.816 -4.616,-14.453 -5.42,-3.754 -16.754,-4.738 -23.442,-4.203 -13.034,1.041 -16.349,-2.391 -23.455,-14.94 -3.366,-5.945 -13.201,-10.691 -19.939,-12.066 -5.864,-1.197 -12.505,1.409 -17.732,4.346 -8.359,4.697 -17.829,5.757 -29.505,-1.194 -6.859,-4.083 -15.748,-7.342 -23.93,-6.083 -7.358,1.133 -15.726,9.702 -21.603,14.492 z"
         style="fill:#d3d19e"
         id="path1582" />
      <path
         d="m 96.819,244.025 c -0.635,-0.299 4.605,-2.106 6.057,-2.448 3.691,-0.872 6.078,-2.977 8.778,-5.527 2.631,-2.485 3.511,-3.812 3.511,-7.186 0,-0.854 0.826,-5.664 1.228,-6.044 1.19,-1.124 10.821,-1.821 13.046,-5.876 2.74,-4.995 4.523,-19.543 7.707,-18.048 3.893,1.828 10.161,-2.735 14.301,-3.746 4.367,-1.067 10.115,-16.557 11.844,-17.026 6.33,-1.715 13.924,2.606 15.859,1.903 12.304,-4.47 15.031,-9.597 23.657,-17.744 0.8,-0.755 10.006,8.555 20.867,9.283 2.461,0.165 13.09,-9.283 13.09,-9.283 0,0 11.952,10.024 13.865,10.928 4.42,2.087 17.675,-3.987 17.284,-3.369 -4.256,6.728 23.236,28.045 32.1,23.152 1.193,-0.659 4.007,9.56 4.168,10.17 1.633,6.17 1.27,11.298 5.88,16.274 4.301,4.643 8.894,5.745 14.716,7.119 2.328,0.55 0.293,12.078 0.062,13.383 -1.007,5.71 7.352,9.202 7.352,9.202 0,0 8.349,-9.381 9.019,-10.962 1.55,-3.659 -3.161,-7.094 -2.353,-11.937 0.247,-1.484 3.669,-8.9 2.514,-10.056 -1.435,-1.435 -7.119,0.201 -9.619,-0.424 -6.252,-1.563 -11.185,-2.816 -15.804,-8.095 -4.951,-5.659 -4.562,-11.489 -6.316,-18.506 -0.173,-0.693 1.48,-9.288 0.675,-7.994 -4.827,7.756 -42.012,-17.036 -37.441,-24.687 0.42,-0.702 -16,0.995 -20.747,-1.379 -2.055,-1.027 -9.941,-8.279 -9.941,-8.279 0,0 -16.365,6.597 -19.009,6.409 -11.665,-0.828 -20.508,-9.179 -21.366,-8.32 -9.265,9.264 -13.238,12.858 -26.452,17.941 -2.078,0.799 -12.584,-1.095 -19.383,0.856 -1.857,0.532 -5.679,15.127 -10.37,16.34 -4.446,1.15 -14.357,5.076 -18.538,2.997 -3.419,-1.7 -2.155,16.106 -5.098,21.785 -2.389,4.612 -15.623,8.82 -16.901,10.099 -0.431,0.431 1.571,2.485 1.571,3.457 0,3.836 -0.945,5.344 -3.771,8.17 -2.899,2.899 -5.463,5.294 -9.427,6.285 -1.559,0.389 -4.858,0.223 -4.176,0.564 z"
         style="fill:#c9a862"
         id="path1584" />
      <g
         transform="matrix(1.23372,0.155962,-0.197926,1.56568,1.08166,-196.554)"
         id="g1588">
        <path
           d="m 101.885,226.004 c 1.976,1.898 0.133,16.369 -0.862,16.74 0,0 7.931,-4.144 10.631,-6.694 2.631,-2.485 8.493,-18.776 8.894,-19.155 1.191,-1.124 10.802,-0.576 13.026,-4.631 2.74,-4.995 8.032,-24.226 11.365,-23.103 5.319,1.791 38.284,-15.244 38.716,-15.679 4.622,-4.654 21.231,3.546 23.165,2.843 12.304,-4.469 11.235,-3.96 19.861,-12.107 0.799,-0.755 22.035,8.089 23.948,8.993 4.42,2.087 20.249,0.198 19.859,0.815 -4.257,6.729 20.934,27.962 29.797,23.068 1.194,-0.659 5.166,17.368 9.776,22.344 4.301,4.643 14.007,7.094 19.829,8.469 2.328,0.549 6.899,-10.153 4.398,-10.778 -6.252,-1.563 -13.721,-4.182 -18.34,-9.461 -4.951,-5.659 -4.81,-19.738 -5.615,-18.444 -4.827,7.756 -37.294,-17.509 -32.723,-25.159 0.42,-0.703 -21.617,1.855 -26.364,-0.519 -2.055,-1.027 -24.711,-17.558 -25.57,-16.699 -9.264,9.264 -11.738,8.59 -24.953,13.673 -2.077,0.799 -17.592,-3.404 -24.391,-1.454 -1.856,0.533 -26.043,19.77 -30.734,20.983 -4.446,1.15 -6.935,1.168 -11.116,-0.911 -3.42,-1.7 -9.577,20.014 -12.52,25.693 -2.389,4.612 -11.03,3.437 -12.309,4.716 -0.431,0.431 -10.999,13.352 -7.768,16.457 z"
           style="fill:#c9a862"
           id="path1586" />
      </g>
      <path
         d="m 350.361,211.275 c 0.037,-0.016 0.074,-0.034 0.11,-0.054 0.615,-0.336 0.918,-0.512 0.947,-0.532 1.208,-0.816 0.466,-2.043 0.387,-2.153 -0.066,-0.093 -0.706,-1.008 -1.851,-0.508 -0.013,0.006 -0.074,0.038 -0.181,0.096 l 0.002,-0.002 -0.046,0.026 c -2.505,1.358 -25.258,14.06 -44.074,28.818 -8.321,6.526 -15.869,13.459 -20.605,19.986 -3.331,4.588 -5.275,9.018 -5.317,12.987 -0.067,6.336 -4.899,8.225 -11.174,9.428 -5.341,1.023 -11.726,1.47 -17.75,2.92 -6.34,1.525 -12.272,4.156 -16.372,9.47 -0.307,0.398 -0.865,0.776 -1.583,1.155 -1.326,0.702 -3.155,1.324 -5.27,1.75 -5.374,1.083 -12.595,0.904 -18.324,-2.742 -9.062,-5.767 -28.307,-8.673 -41.217,-13.744 -4.038,-1.586 -7.433,-3.369 -9.573,-5.592 -1.875,-1.95 -2.686,-4.251 -1.888,-7.071 0.614,-2.173 0.299,-4.711 -0.866,-7.488 -1.57,-3.743 -4.712,-7.999 -8.843,-12.403 -15.701,-16.735 -45.774,-35.804 -54.409,-37.954 -0.817,-0.203 -1.644,0.294 -1.848,1.111 -0.203,0.816 0.295,1.644 1.111,1.847 8.412,2.095 37.628,20.78 52.923,37.082 3.838,4.091 6.796,8.018 8.255,11.496 0.854,2.037 1.194,3.886 0.743,5.479 -1.128,3.989 -0.028,7.257 2.626,10.014 2.39,2.484 6.143,4.545 10.654,6.317 12.738,5.003 31.754,7.788 40.695,13.478 7.504,4.776 17.274,4.349 23.389,2.441 2.868,-0.895 4.953,-2.165 5.839,-3.314 3.661,-4.745 9.01,-7.006 14.671,-8.368 5.977,-1.438 12.312,-1.875 17.611,-2.89 7.912,-1.517 13.565,-4.401 13.649,-12.39 0.036,-3.447 1.843,-7.244 4.735,-11.229 4.597,-6.334 11.943,-13.043 20.02,-19.377 17.417,-13.661 38.466,-25.652 42.824,-28.09 z M 252.563,60.501 c 0.006,0.081 0.011,0.204 0.003,0.294 -0.039,0.431 -0.177,0.928 -0.358,1.462 -0.872,2.571 -2.653,5.793 -2.891,7.463 -1.011,7.072 -1.487,12.881 -3.391,19.956 -4.925,18.303 -1.54,38.015 -5.165,56.659 -2.368,12.175 -9.1,23.391 -11.983,35.498 -5.367,22.539 -8.891,81.638 -10.869,104.39 -0.073,0.838 0.548,1.578 1.386,1.651 0.839,0.073 1.578,-0.548 1.651,-1.387 1.97,-22.655 5.454,-81.505 10.798,-103.948 2.892,-12.148 9.634,-23.406 12.009,-35.622 3.612,-18.574 0.21,-38.215 5.117,-56.449 1.939,-7.203 2.436,-13.116 3.465,-20.317 0.121,-0.845 0.738,-2.132 1.357,-3.511 0.734,-1.638 1.492,-3.376 1.784,-4.758 0.415,-1.955 -0.113,-3.378 -1.398,-4.021 -0.752,-0.376 -1.669,-0.07 -2.045,0.682 -0.35,0.7 -0.11,1.541 0.53,1.958 z m -59.919,218.513 c 0.14,0.425 0.465,0.784 0.917,0.952 0.787,0.291 1.337,0.013 1.73,-0.489 0.121,-0.154 0.447,-0.559 0.289,-1.275 -0.013,-0.06 -0.148,-0.437 -0.438,-1.055 -2.06,-4.382 -13.11,-26.741 -16.31,-31.542 -6.059,-9.087 -6.396,-23.549 -7.9,-34.073 -1.935,-13.545 -3.37,-26.347 -8.666,-39.347 -4.401,-10.802 -11.842,-18.753 -14.935,-30.24 -1.112,-4.131 -1.736,-10.389 -2.837,-16.091 -0.775,-4.009 -1.794,-7.752 -3.309,-10.404 -1.098,-1.92 -3.148,-3.229 -5.112,-4.566 -1.449,-0.986 -2.887,-1.956 -3.302,-3.616 -0.73,-2.92 -0.747,-5.463 -1.049,-7.732 -0.353,-2.652 -1.064,-4.971 -3.208,-7.114 -0.595,-0.595 -1.56,-0.595 -2.155,0 -0.595,0.595 -0.595,1.561 0,2.156 1.606,1.606 2.076,3.372 2.341,5.36 0.315,2.369 0.351,5.021 1.114,8.07 0.597,2.392 2.455,3.975 4.544,5.397 1.573,1.07 3.3,2.02 4.18,3.558 1.377,2.41 2.258,5.825 2.962,9.469 1.116,5.779 1.76,12.119 2.887,16.306 3.127,11.614 10.606,19.676 15.056,30.597 5.198,12.76 6.572,25.333 8.471,38.628 1.561,10.927 2.091,25.898 8.381,35.334 3.159,4.739 14.054,26.821 16.087,31.147 0.114,0.242 0.223,0.483 0.262,0.57 z m 44.696,0.933 c 0.956,-0.39 4.181,-3.118 8.211,-6.914 9.04,-8.515 22.506,-22.355 23.741,-24.549 4.891,-8.697 7.382,-17.694 13.201,-26.008 4.969,-7.099 18.279,-29.385 22.537,-33.643 7.893,-7.893 15.937,-16.365 23.992,-24.42 7.014,-7.015 16.127,-11.415 23.135,-18.423 0.595,-0.595 0.595,-1.561 0,-2.156 -0.594,-0.595 -1.56,-0.595 -2.155,0 -7.009,7.008 -16.122,11.409 -23.136,18.423 -8.055,8.055 -16.099,16.527 -23.992,24.42 -4.314,4.314 -17.844,26.859 -22.878,34.051 -5.879,8.398 -8.42,17.476 -13.361,26.261 -1.202,2.135 -14.377,15.538 -23.174,23.825 -3.616,3.405 -6.417,5.961 -7.274,6.311 -0.779,0.319 -1.153,1.209 -0.835,1.988 0.319,0.779 1.21,1.153 1.988,0.834 z m -6.561,-1.195 c 0.149,-1.042 1.63,-4.425 3.605,-8.762 4.839,-10.623 12.73,-26.608 13.593,-29.024 2.233,-6.253 2.579,-12.295 3.007,-18.356 0.406,-5.766 0.888,-11.552 3.391,-17.559 13.112,-31.47 25.342,-68.785 51.446,-91.989 2.144,-1.906 3.854,-4.325 5.611,-6.672 1.589,-2.124 3.213,-4.191 5.361,-5.624 0.7,-0.467 0.89,-1.414 0.423,-2.114 -0.466,-0.7 -1.414,-0.889 -2.114,-0.423 -2.433,1.623 -4.311,3.929 -6.111,6.334 -1.633,2.182 -3.202,4.449 -5.195,6.22 -26.439,23.501 -38.955,61.222 -52.235,93.095 -2.641,6.338 -3.19,12.434 -3.618,18.518 -0.409,5.791 -0.704,11.57 -2.837,17.544 -0.856,2.397 -8.696,18.249 -13.496,28.786 -2.156,4.733 -3.687,8.458 -3.849,9.595 -0.119,0.833 0.46,1.605 1.293,1.724 0.833,0.119 1.606,-0.46 1.725,-1.293 z m -22.388,-0.216 c 0,-7.279 -5.662,-28.918 -6.172,-36.05 -0.507,-7.098 -0.863,-14.252 -1.284,-21.402 -1.42,-24.143 4.453,-47.989 2.999,-71.98 -0.921,-15.202 -6,-30.424 -10.344,-44.903 -0.757,-2.525 -0.615,-5.322 -0.522,-8.108 0.106,-3.14 0.158,-6.268 -0.777,-9.073 -0.898,-2.694 -2.542,-4.967 -4.175,-7.132 -1.431,-1.898 -2.862,-3.696 -3.537,-5.721 -0.105,-0.317 -0.041,-0.63 0.058,-0.932 0.169,-0.514 0.458,-1.003 0.722,-1.463 0.578,-1.003 1.012,-1.945 1.012,-2.693 0,-0.841 -0.683,-1.524 -1.524,-1.524 -0.842,0 -1.525,0.683 -1.525,1.524 0,0.138 -0.11,0.274 -0.198,0.444 -0.212,0.41 -0.488,0.854 -0.742,1.322 -0.717,1.324 -1.189,2.803 -0.695,4.286 0.774,2.321 2.355,4.417 3.995,6.593 1.439,1.907 2.926,3.887 3.717,6.26 0.824,2.474 0.716,5.237 0.622,8.006 -0.105,3.124 -0.2,6.256 0.649,9.087 4.278,14.258 9.314,29.241 10.221,44.211 1.454,23.99 -4.419,47.834 -2.999,71.975 0.421,7.163 0.778,14.33 1.286,21.441 0.507,7.09 6.164,28.596 6.164,35.832 0,0.842 0.683,1.525 1.524,1.525 0.842,0 1.525,-0.683 1.525,-1.525 z m -15.438,-1.014 c 0.202,-0.227 0.468,-0.387 0.759,-0.462 0.29,-0.075 0.606,-0.065 0.908,0.047 -0.746,-0.277 -1.279,-0.04 -1.667,0.415 z m -14.011,-4.824 c -4.129,-8.947 -16.5,-28.812 -20.453,-37.934 -6.404,-14.778 -15.725,-28.368 -23.52,-42.399 -6.923,-12.461 -32.27,-37.65 -41.726,-48.457 -0.554,-0.633 -1.518,-0.697 -2.151,-0.143 -0.633,0.554 -0.698,1.518 -0.144,2.151 9.361,10.698 34.503,35.594 41.356,47.929 7.747,13.945 17.023,27.444 23.387,42.131 3.96,9.137 16.347,29.038 20.483,37.999 0.352,0.764 1.259,1.098 2.023,0.746 0.764,-0.353 1.098,-1.259 0.745,-2.023 z"
         style="fill:#9e815a"
         id="path1590" />
      <path
         d="m 282.56,316.551 c -0.225,0.02 -0.436,0.059 -0.631,0.117 -0.078,0.006 -0.67,0.052 -1.221,0.064 -2,0.042 -5.721,-0.027 -10.619,-0.172 -28.202,-0.836 -95.094,-4.226 -97.986,-4.226 -0.841,0 -1.524,0.683 -1.524,1.524 0,0.841 0.683,1.525 1.524,1.525 2.889,0 69.72,3.389 97.896,4.224 4.968,0.148 8.744,0.215 10.773,0.173 1.109,-0.023 1.806,-0.117 2.041,-0.195 0.316,-0.106 0.758,0.06 1.187,0.189 0.988,0.298 1.895,0.781 1.895,0.781 0.547,0.291 1.215,0.222 1.691,-0.174 0.476,-0.396 -3.906,-10.741 -4.785,-17.265 -0.904,-6.705 -1.343,-13.666 -0.274,-14.234 0.658,-0.21 1.11,-0.85 1.055,-1.567 -0.064,-0.839 -0.797,-1.468 -1.636,-1.404 -0.792,0.061 -1.294,0.706 -2.107,1.505 -2.972,2.918 0.982,29.228 2.721,29.135 z"
         style="fill:#9e815a"
         id="path1592" />
    </g>
  </g>
</svg>
