<?xml version="1.0" encoding="UTF-8" standalone="no"?>
<!-- Created with Inkscape (http://www.inkscape.org/) -->

<svg
   width="364.51263mm"
   height="322.55557mm"
   viewBox="0 0 364.51263 322.55557"
   version="1.1"
   id="svg4783"
   inkscape:version="1.1.1 (3bf5ae0d25, 2021-09-20)"
   sodipodi:docname="2022-AT-04-explanation-compatible.svg"
   xmlns:inkscape="http://www.inkscape.org/namespaces/inkscape"
   xmlns:sodipodi="http://sodipodi.sourceforge.net/DTD/sodipodi-0.dtd"
   xmlns="http://www.w3.org/2000/svg"
   xmlns:svg="http://www.w3.org/2000/svg">
  <sodipodi:namedview
     id="namedview4785"
     pagecolor="#ffffff"
     bordercolor="#666666"
     borderopacity="1.0"
     inkscape:pageshadow="2"
     inkscape:pageopacity="0.0"
     inkscape:pagecheckerboard="0"
     inkscape:document-units="mm"
     showgrid="false"
     inkscape:zoom="0.66368547"
     inkscape:cx="841.51308"
     inkscape:cy="1070.5372"
     inkscape:window-width="1680"
     inkscape:window-height="1027"
     inkscape:window-x="1912"
     inkscape:window-y="-8"
     inkscape:window-maximized="1"
     inkscape:current-layer="layer1" />
  <defs
     id="defs4780" />
  <g
     inkscape:label="Ebene 1"
     inkscape:groupmode="layer"
     id="layer1"
     transform="translate(117.67377,134.56772)">
    <path
       d="m -57.184839,-115.72346 2.969808,-14.17149 c -1.279991,1.00689 -3.080936,1.81341 -5.402161,2.41956 l 0.435082,-2.09964 c 1.152363,-0.46068 2.289571,-1.06245 3.411626,-1.80499 1.122391,-0.74254 1.965279,-1.39112 2.528327,-1.94575 0.341465,-0.34146 0.665757,-0.75533 0.97321,-1.24194 h 1.343974 l -3.929885,18.84426 z"
       style="clip-rule:evenodd;fill:#de2a2a;fill-rule:nonzero;stroke-width:0.336751;stroke-linejoin:round;stroke-miterlimit:2"
       id="path14"
       sodipodi:nodetypes="cccccccccc" />
    <path
       d="m -17.76337,-115.72346 c 0.238756,-1.11802 0.569446,-2.05485 0.992068,-2.81019 0.422286,-0.75532 0.98365,-1.47193 1.683419,-2.15048 0.699769,-0.67857 2.04812,-1.81577 4.045391,-3.41164 1.21163,-0.96445 2.0397009,-1.67702 2.4832021,-2.13803 0.6401638,-0.66576 1.105217,-1.31838 1.3954964,-1.95854 0.1963259,-0.43541 0.2943205,-0.90889 0.2943205,-1.42108 0,-0.86175 -0.3050965,-1.59385 -0.9152895,-2.19528 -0.6101929,-0.60179 -1.3591273,-0.9025 -2.2464665,-0.9025 -0.879257,0 -1.647386,0.30509 -2.304388,0.91529 -0.657001,0.61018 -1.126432,1.58947 -1.408293,2.93781 l -2.265661,-0.3327 c 0.221919,-1.66424 0.868144,-2.97654 1.93935,-3.93663 1.071205,-0.96008 2.404402,-1.44029 4.000602,-1.44029 1.0668279,0 2.0333035,0.22192 2.8994273,0.66576 0.8661237,0.44384 1.5170636,1.06683 1.952146,1.86897 0.4354191,0.80248 0.6529603,1.63021 0.6529603,2.48354 0,1.24598 -0.4438379,2.44515 -1.331177,3.59751 -0.5462102,0.71661 -2.1508291,2.12928 -4.8135196,4.23734 -1.143607,0.90451 -1.994914,1.64705 -2.553921,2.22727 -0.559006,0.58056 -0.979272,1.12677 -1.261132,1.63864 h 8.3978981 l -0.4478789,2.12523 z"
       style="clip-rule:evenodd;fill:#de2a2a;fill-rule:nonzero;stroke-width:0.336751;stroke-linejoin:round;stroke-miterlimit:2"
       id="path22"
       sodipodi:nodetypes="cccccccccccccccccccccccc" />
    <path
       d="m 29.107629,-120.63934 2.252865,-0.28153 c 0.171743,1.31399 0.548904,2.25488 1.134851,2.82264 0.582579,0.56742 1.350372,0.85131 2.296642,0.85131 1.144954,0 2.131634,-0.40983 2.96341,-1.22915 0.831775,-0.81931 1.249346,-1.75784 1.249346,-2.81625 0,-0.92168 -0.313178,-1.68341 -0.936168,-2.28519 -0.622989,-0.60144 -1.458132,-0.90249 -2.508795,-0.90249 -0.117863,0 -0.367059,0.0172 -0.740853,0.0512 l 0.397367,-1.93296 c 0.222255,0.034 0.434408,0.0512 0.639827,0.0512 1.320064,0 2.34042,-0.32227 3.050964,-0.96648 0.713913,-0.6442 1.070869,-1.4359 1.070869,-2.37476 0,-0.86175 -0.292974,-1.58744 -0.878921,-2.17608 -0.582579,-0.58899 -1.296491,-0.88331 -2.141736,-0.88331 -0.828408,0 -1.572628,0.30072 -2.236028,0.9025 -0.660032,0.60143 -1.084338,1.45274 -1.272919,2.55392 l -2.279804,-0.46101 c 0.377161,-1.54467 1.097808,-2.73948 2.165309,-3.58439 1.067501,-0.8449 2.330317,-1.26753 3.78845,-1.26753 1.535585,0 2.781564,0.4654 3.731202,1.3955 0.953005,0.93045 1.427824,2.07405 1.427824,3.43083 0,0.99005 -0.259298,1.85414 -0.774527,2.5923 -0.515229,0.73816 -1.289757,1.35071 -2.323583,1.83698 0.734118,0.43542 1.283022,0.96007 1.646713,1.57465 0.360324,0.61457 0.542169,1.31871 0.542169,2.11243 0,1.68107 -0.629724,3.13852 -1.889173,4.37171 -1.256082,1.23318 -2.761359,1.84977 -4.512465,1.84977 -1.697225,0 -3.067802,-0.47583 -4.115098,-1.42749 -1.043928,-0.95132 -1.626508,-2.22087 -1.747738,-3.80831 z"
       style="clip-rule:evenodd;fill:#de2a2a;fill-rule:nonzero;stroke-width:0.336751;stroke-linejoin:round;stroke-miterlimit:2"
       id="path30"
       sodipodi:nodetypes="ccccccccccccccccccccccccccccccc" />
    <path
       d="m 82.684348,-115.72346 1.013621,-4.78792 h -7.65772 l 0.488289,-2.2916 10.510001,-11.68761 h 1.892542 l -2.495326,11.93108 h 2.636761 l -0.420939,2.04813 h -2.636761 l -1.013621,4.78792 z m 1.43456,-6.83605 1.639977,-7.83484 -6.990952,7.83484 z"
       style="clip-rule:evenodd;fill:#de2a2a;fill-rule:nonzero;stroke-width:0.336751;stroke-linejoin:round;stroke-miterlimit:2"
       id="path38"
       sodipodi:nodetypes="cccccccccccccccc" />
    <path
       d="m 122.83987,-121.08757 2.35389,-0.23033 c -0.0168,0.3327 -0.0269,0.53342 -0.0269,0.60177 0,0.56304 0.14481,1.13081 0.43105,1.70262 0.28623,0.5718 0.6735,1.00924 1.16515,1.31198 0.48829,0.30308 1.00689,0.45462 1.55579,0.45462 0.71728,0 1.44467,-0.24752 2.18889,-0.74254 0.74085,-0.49502 1.34363,-1.21601 1.80498,-2.16363 0.46135,-0.94728 0.69034,-1.8858 0.69034,-2.81625 0,-1.04965 -0.30981,-1.89018 -0.92943,-2.52192 -0.61626,-0.63141 -1.43119,-0.94729 -2.43808,-0.94729 -0.6735,0 -1.30996,0.16232 -1.91275,0.48661 -0.60278,0.32429 -1.16179,0.81056 -1.68375,1.45914 l -2.02387,-0.14076 2.8287,-9.60111 h 9.16637 l -0.44788,2.1249 h -7.12902 l -1.40762,4.77513 c 0.5287,-0.3839 1.07087,-0.67216 1.62987,-0.8641 0.55901,-0.19195 1.13486,-0.28793 1.72417,-0.28793 1.43119,0 2.60982,0.47348 3.53252,1.42076 0.91933,0.94728 1.38068,2.24478 1.38068,3.89183 0,1.4423 -0.31318,2.77146 -0.94627,3.98781 -0.63309,1.216 -1.49854,2.15049 -2.60309,2.80345 -1.10791,0.65296 -2.30001,0.97927 -3.57966,0.97927 -1.07424,0 -2.02724,-0.24313 -2.85565,-0.72974 -0.82841,-0.48627 -1.44803,-1.1564 -1.86223,-2.00973 -0.41421,-0.85366 -0.61963,-1.70699 -0.61963,-2.56032 0,-0.0855 0.003,-0.2135 0.0135,-0.38423 z"
       style="clip-rule:evenodd;fill:#de2a2a;fill-rule:nonzero;stroke-width:0.336751;stroke-linejoin:round;stroke-miterlimit:2"
       id="path46"
       sodipodi:nodetypes="ccccccccccccccccccccccccccccccc" />
    <rect
       x="110.51305"
       y="-108.72573"
       width="38.818432"
       height="49.831684"
       style="clip-rule:evenodd;fill:#afafaf;fill-rule:evenodd;stroke-width:0.229595;stroke-linejoin:round;stroke-miterlimit:2"
       id="rect70" />
    <rect
       x="64.639595"
       y="-108.72573"
       width="38.818432"
       height="49.831684"
       style="clip-rule:evenodd;fill:#afafaf;fill-rule:evenodd;stroke-width:0.229595;stroke-linejoin:round;stroke-miterlimit:2"
       id="rect74" />
    <rect
       x="18.766148"
       y="-108.72573"
       width="38.818432"
       height="49.831684"
       style="clip-rule:evenodd;fill:#de2a2a;fill-rule:evenodd;stroke-width:0.229595;stroke-linejoin:round;stroke-miterlimit:2"
       id="rect78" />
    <rect
       x="-27.104671"
       y="-108.72573"
       width="38.818432"
       height="49.831684"
       style="clip-rule:evenodd;fill:#afafaf;fill-rule:evenodd;stroke-width:0.229595;stroke-linejoin:round;stroke-miterlimit:2"
       id="rect82" />
    <rect
       x="-72.978127"
       y="-108.72573"
       width="38.818432"
       height="49.831684"
       style="clip-rule:evenodd;fill:#afafaf;fill-rule:evenodd;stroke-width:0.229595;stroke-linejoin:round;stroke-miterlimit:2"
       id="rect86" />
    <path
       d="m -117.67377,-64.599474 15.28128,-39.791066 h 5.672889 l 16.285499,39.791066 h -5.998493 l -4.641391,-12.051253 h -16.638374 l -4.37006,12.051253 z m 11.48131,-16.339908 h 13.489896 l -4.152705,-11.019896 c -1.266656,-3.347601 -2.20771,-6.097982 -2.82288,-8.251282 -0.506631,2.5514 -1.221431,5.084712 -2.144261,7.599936 z"
       style="clip-rule:evenodd;fill-rule:nonzero;stroke-width:0.141321;stroke-linejoin:round;stroke-miterlimit:2"
       id="path90" />
    <path
       d="m -66.595282,-74.021545 4.885734,-0.651346 c 0.560902,2.76847 1.515381,4.763492 2.863438,5.984926 1.348057,1.221434 2.990202,1.83208 4.926435,1.83208 2.298014,0 4.238769,-0.7962 5.822125,-2.388601 1.583214,-1.592258 2.374892,-3.56467 2.374892,-5.917092 0,-2.243746 -0.732747,-4.093915 -2.198524,-5.550648 -1.465636,-1.456591 -3.329513,-2.184957 -5.591348,-2.184957 -0.922824,0 -2.071901,0.181031 -3.447092,0.542812 l 0.542812,-4.288514 c 0.325744,0.03618 0.588035,0.05427 0.787156,0.05427 2.080945,0 3.953726,-0.542812 5.618482,-1.628437 1.664756,-1.085766 2.497134,-2.759566 2.497134,-5.021402 0,-1.791521 -0.606123,-3.275246 -1.818513,-4.451457 -1.212389,-1.176211 -2.777655,-1.764246 -4.695658,-1.764246 -1.900055,0 -3.483411,0.59708 -4.750067,1.79138 -1.266657,1.1943 -2.080804,2.985679 -2.442726,5.37428 l -4.885735,-0.868557 c 0.597221,-3.275245 1.954322,-5.81308 4.071446,-7.613506 2.117123,-1.80042 4.749925,-2.70063 7.898406,-2.70063 2.171532,0 4.170936,0.46593 5.998634,1.3978 1.827558,0.93187 3.22536,2.203044 4.193547,3.813533 0.968046,1.61049 1.452069,3.320468 1.452069,5.129937 0,1.719023 -0.461412,3.28429 -1.384235,4.695659 -0.922823,1.411368 -2.289111,2.533312 -4.098579,3.36569 2.352422,0.542813 4.17998,1.669279 5.482814,3.379258 1.302834,1.709979 1.954322,3.849713 1.954322,6.419204 0,3.474225 -1.266656,6.419204 -3.799969,8.834938 -2.533312,2.415734 -5.736202,3.623601 -9.608527,3.623601 -3.492314,0 -6.39207,-1.040544 -8.69927,-3.121489 -2.307058,-2.080945 -3.623459,-4.777059 -3.949203,-8.088483 z"
       style="clip-rule:evenodd;fill-rule:nonzero;stroke-width:0.141321;stroke-linejoin:round;stroke-miterlimit:2"
       id="path94" />
    <path
       d="m 5.4569542,-68.892963 v 4.695659 H -20.844217 c -0.03674,-1.176211 0.152626,-2.307058 0.569522,-3.392824 0.669859,-1.79138 1.741069,-3.555626 3.216456,-5.29288 1.475387,-1.737112 3.605088,-3.74556 6.391929,-6.025626 4.3244098,-3.546581 7.2469192,-6.355893 8.7675285,-8.427794 1.51919606,-2.071901 2.27950077,-4.030604 2.27950077,-5.876392 0,-1.936091 -0.69247081,-3.569192 -2.07599917,-4.89916 -1.3849415,-1.329968 -3.1896052,-1.99502 -5.4154042,-1.99502 -2.3529879,0 -4.2339639,0.705753 -5.6457569,2.117121 -1.411792,1.411369 -2.125461,3.365691 -2.143833,5.862825 l -5.02112,-0.515678 c 0.343409,-3.745702 1.636492,-6.600236 3.880663,-8.563598 2.244171,-1.96323 5.257125,-2.94484 9.0388637,-2.94484 3.8184818,0 6.83991558,1.05849 9.0657146,3.17561 2.225799,2.117125 3.3379919,4.740883 3.3379919,7.871416 0,1.592259 -0.3250373,3.157525 -0.9765252,4.695659 -0.6514878,1.537991 -1.7325902,3.157525 -3.2433071,4.858459 -1.51071684,1.700935 -4.0219834,4.035268 -7.5323863,7.002859 -2.9324016,2.460956 -4.8133786,4.130235 -5.6457566,5.007835 -0.832378,0.877601 -1.52061,1.759724 -2.063281,2.646369 z"
       style="clip-rule:evenodd;fill-rule:nonzero;stroke-width:0.141321;stroke-linejoin:round;stroke-miterlimit:2"
       id="path98" />
    <path
       d="M 41.699815,-63.599344 V -73.12647 H 24.437508 v -4.478449 l 18.15828,-25.785491 h 3.989479 v 25.785491 h 5.374422 v 4.478449 h -5.374422 v 9.527126 z m 0,-14.005575 v -17.941353 l -12.458821,17.941353 z"
       style="clip-rule:evenodd;fill-rule:nonzero;stroke:#000000;stroke-width:2.41941px;stroke-linejoin:round;stroke-miterlimit:2"
       id="path102" />
    <path
       d="m 88.773534,-64.046494 h -4.885452 v -31.132639 c -1.175787,1.121944 -2.719008,2.243888 -4.626836,3.365691 -1.90924,1.121944 -3.624872,1.963366 -5.144068,2.524268 v -4.722792 c 2.731726,-1.284746 5.121457,-2.840968 7.166366,-4.668525 2.043495,-1.827559 3.492031,-3.600849 4.342781,-5.319869 h 3.147209 z"
       style="clip-rule:evenodd;fill-rule:nonzero;stroke-width:0.141321;stroke-linejoin:round;stroke-miterlimit:2"
       id="path106" />
    <path
       d="m 117.5115,-74.29469 5.12994,-0.434278 c 0.38015,2.497134 1.26199,4.374578 2.64693,5.63219 1.38353,1.257612 3.05253,1.886347 5.00699,1.886347 2.35299,0 4.34278,-0.886646 5.97221,-2.659936 1.62801,-1.773291 2.44202,-4.125713 2.44202,-7.057125 0,-2.786559 -0.78151,-4.985225 -2.34734,-6.595573 -1.56583,-1.610489 -3.61498,-2.415733 -6.14744,-2.415733 -1.57431,0 -2.99459,0.357399 -4.26223,1.072057 -1.26623,0.7148 -2.26113,1.642145 -2.98469,2.782178 l -4.58727,-0.597079 3.85381,-20.438488 h 19.7863 v 4.668526 h -15.87737 l -2.14524,10.694292 c 2.38973,-1.664756 4.89534,-2.497134 7.51966,-2.497134 3.47366,0 6.40465,1.203203 8.79438,3.609893 2.38832,2.406689 3.58248,5.500903 3.58248,9.282783 0,3.600989 -1.05001,6.713292 -3.14862,9.33705 -2.55225,3.220978 -6.03581,4.831467 -10.45066,4.831467 -3.61922,0 -6.57282,-1.01341 -8.86221,-3.040088 -2.28798,-2.026537 -3.59661,-4.713747 -3.92165,-8.061349 z"
       style="clip-rule:evenodd;fill-rule:nonzero;stroke-width:0.141321;stroke-linejoin:round;stroke-miterlimit:2"
       id="path110" />
    <rect
       x="112.07132"
       y="-3.1668947"
       width="37.25956"
       height="49.895626"
       style="clip-rule:evenodd;fill:#afafaf;fill-rule:evenodd;stroke-width:0.225082;stroke-linejoin:round;stroke-miterlimit:2"
       id="rect124" />
    <rect
       x="64.639595"
       y="-3.1668947"
       width="38.818432"
       height="49.895626"
       style="clip-rule:evenodd;fill:#afafaf;fill-rule:evenodd;stroke-width:0.229743;stroke-linejoin:round;stroke-miterlimit:2"
       id="rect128" />
    <rect
       x="18.35013"
       y="-3.1668947"
       width="39.236675"
       height="49.895626"
       style="clip-rule:evenodd;fill:#afafaf;fill-rule:evenodd;stroke-width:0.230977;stroke-linejoin:round;stroke-miterlimit:2"
       id="rect132" />
    <rect
       x="-27.104671"
       y="-3.1668947"
       width="38.818432"
       height="49.895626"
       style="clip-rule:evenodd;fill:#afafaf;fill-rule:evenodd;stroke-width:0.229743;stroke-linejoin:round;stroke-miterlimit:2"
       id="rect136" />
    <rect
       x="-72.978127"
       y="-3.1668947"
       width="38.818432"
       height="49.895626"
       style="clip-rule:evenodd;fill:#afafaf;fill-rule:evenodd;stroke-width:0.229743;stroke-linejoin:round;stroke-miterlimit:2"
       id="rect140" />
    <path
       d="M -114.07655,40.990178 V 1.19911 h 14.928397 c 3.040088,0 5.478292,0.402623 7.315035,1.207867 1.836602,0.805245 3.275105,2.044768 4.315648,3.718569 1.040402,1.6738 1.560744,3.42448 1.560744,5.252037 0,1.700935 -0.461411,3.302379 -1.384376,4.804193 -0.922823,1.501955 -2.316103,2.714344 -4.17998,3.637167 2.406689,0.705755 4.257,1.908959 5.55079,3.609893 1.293789,1.701076 1.940614,3.709524 1.940614,6.025768 0,1.863736 -0.393578,3.596326 -1.180734,5.19777 -0.787014,1.601445 -1.759724,2.836446 -2.917846,3.705002 -1.15798,0.868556 -2.610191,1.524425 -4.356347,1.967747 -1.746157,0.443464 -3.885892,0.665055 -6.419205,0.665055 z m 5.26574,-23.07129 h 8.60416 c 2.334198,0 4.007999,-0.153756 5.021408,-0.461411 1.339013,-0.3981 2.347759,-1.058491 3.02638,-1.981315 0.678622,-0.922964 1.017791,-2.080945 1.017791,-3.474366 0,-1.320923 -0.316558,-2.483426 -0.949957,-3.487792 -0.633257,-1.004223 -1.538133,-1.691889 -2.714203,-2.062856 -1.176211,-0.370966 -3.193844,-0.556379 -6.052899,-0.556379 h -7.95268 z m 0,18.375631 h 9.907 c 1.700935,0 2.895235,-0.06331 3.582759,-0.190076 1.21239,-0.217068 2.225799,-0.57899 3.040088,-1.085624 0.81429,-0.506635 1.483725,-1.244045 2.008448,-2.212091 0.524865,-0.968187 0.787156,-2.085468 0.787156,-3.352124 0,-1.483866 -0.380011,-2.773134 -1.139892,-3.867803 -0.760022,-1.09481 -1.814132,-1.863877 -3.162189,-2.307199 -1.348057,-0.443323 -3.288812,-0.664914 -5.822129,-0.664914 h -9.201241 z"
       style="clip-rule:evenodd;fill-rule:nonzero;stroke-width:0.141321;stroke-linejoin:round;stroke-miterlimit:2"
       id="path144" />
    <path
       d="m -66.759435,31.649508 5.129936,-0.434278 c 0.380011,2.497134 1.262134,4.374578 2.646511,5.63219 1.384235,1.257612 3.053513,1.886347 5.007694,1.886347 2.352422,0 4.342922,-0.886646 5.971501,-2.659936 1.628437,-1.773291 2.442726,-4.125713 2.442726,-7.057125 0,-2.786559 -0.782634,-4.985225 -2.347759,-6.595573 -1.565267,-1.610489 -3.614556,-2.415733 -6.147869,-2.415733 -1.574311,0 -2.994724,0.357399 -4.26138,1.072057 -1.266656,0.7148 -2.261836,1.642145 -2.98568,2.782178 l -4.587124,-0.597079 3.854236,-20.438487 h 19.786999 v 4.668525 h -15.878355 l -2.144257,10.694292 c 2.388459,-1.664756 4.894638,-2.497134 7.518396,-2.497134 3.474366,0 6.405637,1.203203 8.794237,3.609893 2.388601,2.406689 3.582901,5.500903 3.582901,9.282783 0,3.600989 -1.049588,6.713292 -3.148623,9.33705 -2.551401,3.220978 -6.034671,4.831467 -10.449949,4.831467 -3.618937,0 -6.572961,-1.01341 -8.862072,-3.040088 -2.288969,-2.026537 -3.596326,-4.713747 -3.922069,-8.061349 z"
       style="clip-rule:evenodd;fill-rule:nonzero;stroke-width:0.141321;stroke-linejoin:round;stroke-miterlimit:2"
       id="path148" />
    <path
       d="M -4.1931782,41.394991 V 31.867864 H -21.456899 V 27.389415 L -3.2972058,1.603923 H 0.69227383 V 27.389415 H 6.0666951 v 4.478449 H 0.69227383 v 9.527127 z m 0,-14.005576 V 9.448063 L -16.652,27.389415 Z"
       style="clip-rule:evenodd;fill-rule:nonzero;stroke-width:0.141321;stroke-linejoin:round;stroke-miterlimit:2"
       id="path152" />
    <path
       d="M 42.335491,41.990303 H 37.450038 V 10.857664 c -1.175787,1.121944 -2.719007,2.243888 -4.628248,3.365691 -1.909241,1.121944 -3.62346,1.963367 -5.142656,2.524268 v -4.722792 c 2.731727,-1.284746 5.120045,-2.840968 7.164953,-4.668525 2.044909,-1.827558 3.493445,-3.600848 4.342781,-5.319872 h 3.148623 z"
       style="clip-rule:evenodd;fill-rule:nonzero;stroke-width:0.141321;stroke-linejoin:round;stroke-miterlimit:2"
       id="path156" />
    <path
       d="m 72.01048,31.038941 4.885452,-0.651347 c 0.561043,2.76847 1.51637,4.763492 2.864568,5.984926 1.346785,1.221434 2.98893,1.83208 4.925022,1.83208 2.299285,0 4.239617,-0.7962 5.822407,-2.3886 1.584204,-1.592259 2.375599,-3.56467 2.375599,-5.917093 0,-2.243746 -0.733454,-4.093915 -2.198948,-5.550648 -1.465494,-1.456591 -3.329513,-2.184957 -5.590642,-2.184957 -0.922823,0 -2.073173,0.181032 -3.448222,0.542812 L 82.188387,18.4176 c 0.326451,0.03618 0.589307,0.05427 0.787156,0.05427 2.081652,0 3.954149,-0.542813 5.618906,-1.628437 1.664756,-1.085766 2.497134,-2.759567 2.497134,-5.021403 0,-1.791521 -0.606265,-3.275245 -1.818796,-4.451457 -1.21253,-1.176211 -2.776949,-1.764246 -4.694669,-1.764246 -1.900762,0 -3.483552,0.59708 -4.749784,1.79138 -1.267646,1.1943 -2.081652,2.98568 -2.443433,5.37428 L 72.499449,11.903431 C 73.095822,8.628185 74.453913,6.09035 76.570895,4.289926 78.687877,2.489502 81.320679,1.58929 84.469301,1.58929 c 2.170684,0 4.17037,0.465934 5.997645,1.397802 1.828688,0.931868 3.226349,2.203046 4.194395,3.813536 0.968046,1.610489 1.451362,3.320468 1.451362,5.129936 0,1.719024 -0.460705,3.28429 -1.383528,4.695659 -0.922824,1.411368 -2.289394,2.533312 -4.098297,3.365691 2.351574,0.542812 4.178849,1.669278 5.481825,3.379257 1.302976,1.709979 1.954464,3.849714 1.954464,6.419204 0,3.474225 -1.266233,6.419205 -3.800111,8.834938 -2.532464,2.415734 -5.736201,3.623601 -9.608385,3.623601 -3.492031,0 -6.391929,-1.040543 -8.698281,-3.121489 -2.307765,-2.080945 -3.62346,-4.777059 -3.94991,-8.088482 z"
       style="clip-rule:evenodd;fill-rule:nonzero;stroke-width:0.141321;stroke-linejoin:round;stroke-miterlimit:2"
       id="path160" />
    <path
       d="m 143.85634,37.024769 v 4.695659 h -26.30118 c -0.0367,-1.176211 0.15404,-2.307058 0.56953,-3.392824 0.66986,-1.79138 1.74107,-3.555626 3.21645,-5.292879 1.47398,-1.737113 3.60509,-3.745561 6.39193,-6.025627 4.32441,-3.546581 7.24692,-6.355893 8.76753,-8.427793 1.5192,-2.071901 2.2795,-4.030604 2.2795,-5.876392 0,-1.936092 -0.69247,-3.569193 -2.076,-4.899161 -1.38494,-1.329967 -3.1896,-1.995022 -5.4154,-1.995022 -2.35299,0 -4.23397,0.705755 -5.64576,2.117123 -1.41179,1.411369 -2.12546,3.365691 -2.14383,5.862826 L 118.47799,13.275 c 0.34341,-3.745702 1.63649,-6.600236 3.88066,-8.563603 2.24417,-1.963225 5.25713,-2.944838 9.03886,-2.944838 3.81849,0 6.83992,1.058491 9.06572,3.175615 2.2258,2.117123 3.33799,4.740881 3.33799,7.871414 0,1.592259 -0.32504,3.157526 -0.97652,4.695659 -0.65149,1.537991 -1.7326,3.157525 -3.24331,4.85846 -1.51213,1.700934 -4.02199,4.035267 -7.53239,7.002858 -2.93099,2.460956 -4.81338,4.130235 -5.64576,5.007836 -0.83237,0.8776 -1.5206,1.759723 -2.06328,2.646368 z"
       style="clip-rule:evenodd;fill-rule:nonzero;stroke-width:0.141321;stroke-linejoin:round;stroke-miterlimit:2"
       id="path164" />
    <rect
       x="112.07132"
       y="104.5421"
       width="37.25956"
       height="48.874619"
       style="clip-rule:evenodd;fill:#afafaf;fill-rule:evenodd;stroke-width:0.222768;stroke-linejoin:round;stroke-miterlimit:2"
       id="rect178" />
    <rect
       x="64.639595"
       y="104.5421"
       width="38.818432"
       height="48.874619"
       style="clip-rule:evenodd;fill:#afafaf;fill-rule:evenodd;stroke-width:0.22738;stroke-linejoin:round;stroke-miterlimit:2"
       id="rect182" />
    <rect
       x="18.35013"
       y="104.5421"
       width="39.236675"
       height="48.874619"
       style="clip-rule:evenodd;fill:#afafaf;fill-rule:evenodd;stroke-width:0.228602;stroke-linejoin:round;stroke-miterlimit:2"
       id="rect186" />
    <rect
       x="-27.104671"
       y="104.5421"
       width="38.818432"
       height="48.874619"
       style="clip-rule:evenodd;fill:#afafaf;fill-rule:evenodd;stroke-width:0.22738;stroke-linejoin:round;stroke-miterlimit:2"
       id="rect190" />
    <rect
       x="-72.978127"
       y="104.5421"
       width="38.818432"
       height="48.874619"
       style="clip-rule:evenodd;fill:#afafaf;fill-rule:evenodd;stroke-width:0.22738;stroke-linejoin:round;stroke-miterlimit:2"
       id="rect194" />
    <path
       d="m -86.93702,134.35678 5.177264,1.32997 c -1.085197,4.32469 -3.037856,7.62255 -5.857839,9.89358 -2.819983,2.27088 -6.267046,3.40638 -10.341327,3.40638 -4.216568,0 -7.645848,-0.87307 -10.287968,-2.61937 -2.64199,-1.74616 -4.65245,-4.27495 -6.03125,-7.58638 -1.3788,-3.31128 -2.06827,-6.86704 -2.06827,-10.66701 0,-4.1438 0.7784,-7.75821 2.33519,-10.84338 1.55665,-3.08531 3.77179,-5.42855 6.64513,-7.02999 2.87334,-1.60145 6.03569,-2.40218 9.487203,-2.40218 3.914211,0 7.20565,1.01341 9.874317,3.03996 2.668806,2.02667 4.527952,4.87669 5.577716,8.55003 l -5.097367,1.22144 c -0.907341,-2.89524 -2.223889,-5.00332 -3.949644,-6.32424 -1.725754,-1.32092 -3.896425,-1.98145 -6.511736,-1.98145 -3.006729,0 -5.519779,0.73288 -7.539129,2.19852 -2.01936,1.46578 -3.43817,3.43352 -4.25658,5.90353 -0.81842,2.47 -1.22762,5.01688 -1.22762,7.64062 0,3.38378 0.48479,6.33781 1.45438,8.86207 0.96973,2.52427 2.47747,4.41076 4.52351,5.65933 2.04603,1.24842 4.26103,1.87278 6.645125,1.87278 2.900018,0 5.355259,-0.85047 7.365721,-2.5514 2.010462,-1.70094 3.371474,-4.22521 4.083174,-7.57281 z"
       style="clip-rule:evenodd;fill-rule:nonzero;stroke-width:0.14013;stroke-linejoin:round;stroke-miterlimit:2"
       id="path198" />
    <path
       d="m -40.637046,144.69458 v 4.69566 h -25.859917 c -0.03557,-1.17621 0.151177,-2.30707 0.560384,-3.39282 0.658343,-1.79138 1.712415,-3.55564 3.162494,-5.29288 1.449939,-1.73712 3.544883,-3.74557 6.284831,-6.02563 4.252137,-3.54659 7.125476,-6.35589 8.620019,-8.42779 1.494403,-2.0719 2.241674,-4.03061 2.241674,-5.87639 0,-1.9361 -0.680436,-3.5692 -2.041587,-4.89916 -1.361012,-1.32997 -3.135676,-1.99503 -5.324133,-1.99503 -2.312817,0 -4.163209,0.70576 -5.550899,2.11713 -1.387691,1.41136 -2.090498,3.36569 -2.108283,5.86282 l -4.937159,-0.51568 c 0.338064,-3.7457 1.610148,-6.60023 3.816252,-8.5636 2.206242,-1.96323 5.16851,-2.94484 8.886941,-2.94484 3.754002,0 6.725163,1.05849 8.91348,3.17562 2.188318,2.11712 3.282547,4.74088 3.282547,7.87141 0,1.59226 -0.320279,3.15753 -0.960698,4.69566 -0.640558,1.53799 -1.703523,3.15753 -3.189172,4.85846 -1.48565,1.70093 -3.95409,4.03527 -7.405738,7.00286 -2.882233,2.46095 -4.732486,4.13023 -5.550899,5.00783 -0.818414,0.8776 -1.494543,1.75973 -2.028248,2.64637 z"
       style="clip-rule:evenodd;fill-rule:nonzero;stroke-width:0.14013;stroke-linejoin:round;stroke-miterlimit:2"
       id="path202" />
    <path
       d="m -20.666469,138.29008 5.043872,-0.43427 c 0.373774,2.49713 1.24082,4.37459 2.602527,5.6322 1.360317,1.25761 3.001312,1.88633 4.9229855,1.88633 2.3135115,0 4.2699224,-0.88664 5.8720118,-2.65993 1.60069976,-1.77329 2.40104969,-4.12571 2.40104969,-7.05713 0,-2.78656 -0.76978103,-4.98522 -2.30795349,-6.59557 -1.539562,-1.61049 -3.5543318,-2.41573 -6.0443093,-2.41573 -1.5478992,0 -2.9457322,0.35741 -4.1907212,1.07205 -1.244989,0.7148 -2.223194,1.64215 -2.934616,2.78218 l -4.510306,-0.59708 3.789157,-20.43848 H 3.4315671 v 4.66852 H -12.179425 l -2.109255,10.69429 c 2.349638,-1.66475 4.813215,-2.49713 7.3935099,-2.49713 3.4153821,0 6.29719756,1.20321 8.6454465,3.60989 2.3496385,2.40669 3.5237629,5.5009 3.5237629,9.28278 0,3.60099 -1.0323958,6.7133 -3.095798,9.33705 -2.50943054,3.22098 -5.9345391,4.83147 -10.2753258,4.83147 -3.5585005,0 -6.4625475,-1.01341 -8.7135315,-3.04009 -2.249595,-2.02653 -3.534879,-4.71374 -3.855853,-8.06135 z"
       style="clip-rule:evenodd;fill-rule:nonzero;stroke-width:0.14013;stroke-linejoin:round;stroke-miterlimit:2"
       id="path206" />
    <path
       d="m 41.40973,149.30822 v -9.52713 H 24.435642 v -4.47845 l 17.853639,-25.78549 h 3.923938 v 25.78549 h 5.284254 v 4.47845 h -5.284254 v 9.52713 z m 0,-14.00558 v -17.94135 l -12.249801,17.94135 z"
       style="clip-rule:evenodd;fill-rule:nonzero;stroke-width:0.14013;stroke-linejoin:round;stroke-miterlimit:2"
       id="path210" />
    <path
       d="m 72.227311,138.35684 4.804878,-0.65134 c 0.550241,2.76847 1.48954,4.76349 2.81512,5.98492 1.32558,1.22144 2.940174,1.83208 4.843784,1.83208 2.259322,0 4.1671,-0.7962 5.723336,-2.3886 1.557626,-1.59226 2.335744,-3.56467 2.335744,-5.91709 0,-2.24375 -0.71976,-4.09391 -2.162057,-5.55065 -1.440908,-1.45659 -3.273653,-2.18495 -5.496848,-2.18495 -0.907341,0 -2.037001,0.18103 -3.388981,0.54281 l 0.533566,-4.28852 c 0.319585,0.0362 0.578031,0.0543 0.77395,0.0543 2.045339,0 3.887811,-0.54282 5.524638,-1.62845 1.636826,-1.08576 2.45524,-2.75956 2.45524,-5.0214 0,-1.79152 -0.596094,-3.27524 -1.788282,-4.45145 -1.192188,-1.17622 -2.73175,-1.76425 -4.617297,-1.76425 -1.867483,0 -3.425108,0.59708 -4.670097,1.79138 -1.244989,1.1943 -2.046728,2.98568 -2.402439,5.37428 l -4.803489,-0.86856 c 0.587757,-3.27524 1.921673,-5.81308 4.003139,-7.6135 2.081465,-1.80043 4.670097,-2.70064 7.765895,-2.70064 2.135656,0 4.100404,0.46594 5.898412,1.3978 1.796619,0.93187 3.170831,2.20305 4.122636,3.81354 0.951805,1.61049 1.428402,3.32047 1.428402,5.12994 0,1.71902 -0.454365,3.28429 -1.361706,4.69565 -0.907341,1.41138 -2.250984,2.53332 -4.02954,3.36571 2.312122,0.54281 4.110131,1.66926 5.391246,3.37924 1.281116,1.70999 1.920284,3.84972 1.920284,6.41921 0,3.47422 -1.244988,6.4192 -3.734966,8.83494 -2.491367,2.41573 -5.639966,3.6236 -9.447186,3.6236 -3.434835,0 -6.286082,-1.04055 -8.55374,-3.12149 -2.269047,-2.08095 -3.562669,-4.77706 -3.883642,-8.08849 z"
       style="clip-rule:evenodd;fill-rule:nonzero;stroke-width:0.14013;stroke-linejoin:round;stroke-miterlimit:2"
       id="path214" />
    <path
       d="m 134.63382,149.5675 h -4.80488 v -31.13263 c -1.15606,1.12195 -2.672,2.24388 -4.54921,3.36569 -1.87721,1.12195 -3.56267,1.96337 -5.05777,2.52427 v -4.72279 c 2.68729,-1.28476 5.03554,-2.84097 7.04614,-4.66854 2.0106,-1.82755 3.43345,-3.60084 4.26992,-5.31987 h 3.0958 z"
       style="clip-rule:evenodd;fill-rule:nonzero;stroke-width:0.14013;stroke-linejoin:round;stroke-miterlimit:2"
       id="path218" />
    <path
       d="m 40.238787,177.88648 c 0.465666,0.57679 0.47625,-5.23346 0.47625,-6.05631 0,-3.67507 0.5715,-8.6995 -0.576792,-12.14702 -0.134937,-0.40217 -0.134937,-1.66688 -0.772583,-1.34938 -1.502834,0.75142 -2.838979,4.91861 -3.664479,6.36323 -0.179917,0.31485 -0.513292,1.02658 -0.769938,0.76994 -0.04498,-0.045 0,-0.12965 0,-0.19315 0,-1.14564 4.069292,-7.90575 5.013854,-7.90575 0.211667,0 12.461875,9.85309 6.940021,6.17009"
       style="clip-rule:evenodd;fill:none;fill-rule:evenodd;stroke:#de2a2a;stroke-width:2.74373px;stroke-linecap:round;stroke-linejoin:round;stroke-miterlimit:1.5"
       id="path224"
       sodipodi:nodetypes="ccccccccc" />
    <path
       d="m 39.103763,99.408425 c -0.994834,-0.47625 -2.971271,-20.539606 4.468812,-23.018751 6.44525,-2.148417 34.76625,0.902229 37.790437,-2.121959 3.511021,-3.51102 1.441979,-11.895666 1.441979,-16.695208 0,-0.849312 -0.420687,-5.344583 0.100542,-5.863166 0.478896,-0.478896 5.783792,7.326312 5.783792,7.326312 0,0 -4.98475,-7.405687 -5.783792,-7.326312 -2.391833,0.238125 -6.82625,6.746874 -7.328958,6.746874"
       style="clip-rule:evenodd;fill:none;fill-rule:evenodd;stroke:#de2a2a;stroke-width:2.74373px;stroke-linecap:round;stroke-linejoin:round;stroke-miterlimit:1.5"
       id="path226"
       sodipodi:nodetypes="cccccccc" />
    <path
       d="m 87.687049,-6.5651367 c 0.994834,-0.47625 2.971271,-20.5396043 -4.468812,-23.0187493 -6.44525,-2.148417 -34.76625,0.902229 -37.790437,-2.121959 -3.511021,-3.51102 -1.441979,-11.895666 -1.441979,-16.695208 0,-0.849312 0.420687,-5.344583 -0.100542,-5.863166 -0.478896,-0.478896 -5.783792,7.326312 -5.783792,7.326312 0,0 4.98475,-7.405687 5.783792,-7.326312 2.391833,0.238125 6.82625,6.746874 7.328958,6.746874"
       style="clip-rule:evenodd;fill:none;fill-rule:evenodd;stroke:#de2a2a;stroke-width:2.74373px;stroke-linecap:round;stroke-linejoin:round;stroke-miterlimit:1.5"
       id="path230"
       sodipodi:nodetypes="cccccccc" />
    <path
       d="m 132.5677,161.61906 c -6.29914,1.35069 -9.78506,20.0419 -3.7987,24.08173"
       style="clip-rule:evenodd;fill:none;fill-rule:evenodd;stroke:#000000;stroke-width:2.74331px;stroke-linecap:round;stroke-linejoin:round;stroke-miterlimit:1.5"
       id="path234"
       sodipodi:nodetypes="cc" />
    <path
       d="m 132.5677,-44.781867 c -6.29914,1.350687 -9.78506,20.041899 -3.7987,24.081731"
       style="clip-rule:evenodd;fill:none;fill-rule:evenodd;stroke:#de2a2a;stroke-width:2.74331px;stroke-linecap:round;stroke-linejoin:round;stroke-miterlimit:1.5"
       id="path238"
       sodipodi:nodetypes="cc" />
    <path
       d="m 132.5677,65.574783 c -6.29914,1.350687 -9.78506,20.041899 -3.7987,24.081732"
       style="clip-rule:evenodd;fill:none;fill-rule:evenodd;stroke:#000000;stroke-width:2.74331px;stroke-linecap:round;stroke-linejoin:round;stroke-miterlimit:1.5"
       id="path242"
       sodipodi:nodetypes="cc" />
    <path
       d="m 133.47107,183.62146 c 0.11707,-5.7959 6.79712,-19.2853 7.55895,-18.52346 2.04264,2.04263 5.05329,20.30924 4.12021,19.68719"
       style="clip-rule:evenodd;fill:none;fill-rule:evenodd;stroke:#000000;stroke-width:2.74331px;stroke-linecap:round;stroke-linejoin:round;stroke-miterlimit:1.5"
       id="path246"
       sodipodi:nodetypes="ccc" />
    <path
       d="m 133.47107,-22.779461 c 0.11707,-5.795901 6.79712,-19.285305 7.55895,-18.523468 2.04264,2.042631 5.05329,20.309241 4.12021,19.687191"
       style="clip-rule:evenodd;fill:none;fill-rule:evenodd;stroke:#de2a2a;stroke-width:2.74331px;stroke-linecap:round;stroke-linejoin:round;stroke-miterlimit:1.5"
       id="path250"
       sodipodi:nodetypes="ccc" />
    <path
       d="m 133.47107,87.577185 c 0.11707,-5.795897 6.79712,-19.285301 7.55895,-18.523464 2.04264,2.042631 5.05329,20.309244 4.12021,19.687194"
       style="clip-rule:evenodd;fill:none;fill-rule:evenodd;stroke:#000000;stroke-width:2.74331px;stroke-linecap:round;stroke-linejoin:round;stroke-miterlimit:1.5"
       id="path254"
       sodipodi:nodetypes="ccc" />
    <path
       d="m 146.34716,173.4188 c 1.30525,-0.25511 -9.96504,0.26384 -13.77946,0.26384"
       style="clip-rule:evenodd;fill:none;fill-rule:evenodd;stroke:#000000;stroke-width:2.74331px;stroke-linecap:round;stroke-linejoin:round;stroke-miterlimit:1.5"
       id="path258"
       sodipodi:nodetypes="cc" />
    <path
       d="m 146.34716,-32.982134 c 1.30525,-0.25511 -9.96504,0.263848 -13.77946,0.263848"
       style="clip-rule:evenodd;fill:none;fill-rule:evenodd;stroke:#de2a2a;stroke-width:2.74331px;stroke-linecap:round;stroke-linejoin:round;stroke-miterlimit:1.5"
       id="path262"
       sodipodi:nodetypes="cc" />
    <path
       d="m 146.34716,77.374516 c 1.30525,-0.25511 -9.96504,0.263848 -13.77946,0.263848"
       style="clip-rule:evenodd;fill:none;fill-rule:evenodd;stroke:#000000;stroke-width:2.74331px;stroke-linecap:round;stroke-linejoin:round;stroke-miterlimit:1.5"
       id="path266"
       sodipodi:nodetypes="cc" />
    <path
       d="m 165.30176,160.74694 c -8.66328,3.71308 -10.23762,25.86925 -4.35086,25.86925"
       style="clip-rule:evenodd;fill:none;fill-rule:evenodd;stroke:#000000;stroke-width:2.74331px;stroke-linecap:round;stroke-linejoin:round;stroke-miterlimit:1.5"
       id="path270"
       sodipodi:nodetypes="cc" />
    <path
       d="m 161.40181,64.702935 c -8.66328,3.713081 -10.23762,25.86925 -4.35086,25.86925"
       style="clip-rule:evenodd;fill:none;fill-rule:evenodd;stroke:#de2a2a;stroke-width:2.74331px;stroke-linecap:round;stroke-linejoin:round;stroke-miterlimit:1.5"
       id="path274"
       sodipodi:nodetypes="cc" />
    <path
       d="m 167.54184,166.40831 0.65525,18.83448"
       style="clip-rule:evenodd;fill:none;fill-rule:evenodd;stroke:#000000;stroke-width:2.74331px;stroke-linecap:round;stroke-linejoin:round;stroke-miterlimit:1.5"
       id="path278"
       sodipodi:nodetypes="cc" />
    <path
       d="m 167.54184,70.364291 0.65525,18.834494"
       style="clip-rule:evenodd;fill:none;fill-rule:evenodd;stroke:#de2a2a;stroke-width:2.74331px;stroke-linecap:round;stroke-linejoin:round;stroke-miterlimit:1.5"
       id="path282"
       sodipodi:nodetypes="cc" />
    <path
       d="m 163.37095,166.57604 c 0.33025,-0.61506 2.18067,-0.92259 2.95125,-1.0781 2.88659,-0.57662 6.62763,-0.47528 7.48732,2.96522 0.74785,2.99143 -7.42617,5.58622 -5.70679,4.30018 1.62327,-1.21439 9.73089,3.81618 7.26541,7.9626 -0.62555,1.05189 -5.19482,6.16633 -10.41585,4.51685"
       style="clip-rule:evenodd;fill:none;fill-rule:evenodd;stroke:#000000;stroke-width:2.74331px;stroke-linecap:round;stroke-linejoin:round;stroke-miterlimit:1.5"
       id="path286"
       sodipodi:nodetypes="cccccc" />
    <path
       d="m 163.37095,70.532035 c 0.33025,-0.615061 2.18067,-0.922591 2.95125,-1.078104 2.88659,-0.57662 6.62763,-0.475274 7.48732,2.965223 0.74785,2.991432 -7.42617,5.58622 -5.70679,4.300184 1.62327,-1.214396 9.73089,3.816173 7.26541,7.962592 -0.62555,1.051894 -5.19482,6.166335 -10.41585,4.516855"
       style="clip-rule:evenodd;fill:none;fill-rule:evenodd;stroke:#de2a2a;stroke-width:2.74331px;stroke-linecap:round;stroke-linejoin:round;stroke-miterlimit:1.5"
       id="path290"
       sodipodi:nodetypes="cccccc" />
    <path
       d="m 187.04602,160.06045 c -5.43595,4.75623 -8.56018,25.64035 -0.2289,25.64035"
       style="clip-rule:evenodd;fill:none;fill-rule:evenodd;stroke:#de2a2a;stroke-width:2.74331px;stroke-linecap:round;stroke-linejoin:round;stroke-miterlimit:1.5"
       id="path294"
       sodipodi:nodetypes="cc" />
    <path
       d="m 201.69914,166.29667 c -2.35365,-5.242 -17.20598,6.89846 -8.24391,14.36831 1.7351,1.44504 2.80622,2.04787 5.03756,1.60231 2.29599,-0.45956 4.81215,-2.20164 6.63811,-3.66241"
       style="clip-rule:evenodd;fill:none;fill-rule:evenodd;stroke:#de2a2a;stroke-width:2.74331px;stroke-linecap:round;stroke-linejoin:round;stroke-miterlimit:1.5"
       id="path298"
       sodipodi:nodetypes="cccc" />
    <path
       d="m 183.65951,64.702864 c -1.40835,1.40835 -4.69683,10.162483 -4.69683,12.133474 0,0 8.22294,0.345972 11.07634,-0.223658"
       style="clip-rule:evenodd;fill:none;fill-rule:evenodd;stroke:#de2a2a;stroke-width:2.74331px;stroke-linecap:round;stroke-linejoin:round;stroke-miterlimit:1.5"
       id="path302"
       sodipodi:nodetypes="ccc" />
    <path
       d="m 211.84753,164.94042 c 2.05052,-0.68262 5.10646,-2.02142 6.46113,0.68527 0.77258,1.54517 -5.63298,8.48783 -5.48217,6.65427 0.14552,-1.73567 7.24429,-0.51594 7.24165,3.5216 0,3.69623 -3.85234,6.19654 -7.04586,5.28373 -1.97908,-0.56356 -3.76237,-3.63537 -4.01108,-5.38162"
       style="clip-rule:evenodd;fill:none;fill-rule:evenodd;stroke:#de2a2a;stroke-width:2.74373px;stroke-linecap:round;stroke-linejoin:round;stroke-miterlimit:1.5"
       id="path306"
       sodipodi:nodetypes="cccccc" />
    <path
       d="m 156.89541,-41.460508 c 2.05052,-0.682625 5.10646,-2.021416 6.46113,0.685271 0.77258,1.545167 -5.63298,8.487834 -5.48217,6.654271 0.14552,-1.735667 7.24429,-0.515937 7.24165,3.521604 0,3.696229 -3.85234,6.196542 -7.04586,5.283729 -1.97908,-0.563562 -3.76237,-3.635375 -4.01108,-5.381625"
       style="clip-rule:evenodd;fill:none;fill-rule:evenodd;stroke:#de2a2a;stroke-width:2.74373px;stroke-linecap:round;stroke-linejoin:round;stroke-miterlimit:1.5"
       id="path308"
       sodipodi:nodetypes="cccccc" />
    <path
       d="m 187.24503,68.978586 c -0.22715,3.09103 0.0157,6.931666 -0.0402,8.086653 -0.1957,4.102735 0.18839,11.498236 0.18839,11.498236"
       style="clip-rule:evenodd;fill:none;fill-rule:evenodd;stroke:#de2a2a;stroke-width:2.74331px;stroke-linecap:round;stroke-linejoin:round;stroke-miterlimit:1.5"
       id="path312"
       sodipodi:nodetypes="ccc" />
    <path
       d="m 224.59094,161.20494 c 2.79923,1.68093 3.65891,4.53258 3.89131,7.55547 0.166,2.14398 -1.86266,13.66588 -3.87209,15.9811"
       style="clip-rule:evenodd;fill:none;fill-rule:evenodd;stroke:#de2a2a;stroke-width:2.74331px;stroke-linecap:round;stroke-linejoin:round;stroke-miterlimit:1.5"
       id="path316"
       sodipodi:nodetypes="ccc" />
    <path
       d="m 169.63963,-45.195985 c 2.79923,1.680933 3.65891,4.532579 3.89131,7.555464 0.166,2.143976 -1.86266,13.665884 -3.87209,15.981099"
       style="clip-rule:evenodd;fill:none;fill-rule:evenodd;stroke:#de2a2a;stroke-width:2.74331px;stroke-linecap:round;stroke-linejoin:round;stroke-miterlimit:1.5"
       id="path320"
       sodipodi:nodetypes="ccc" />
    <path
       d="m 195.90481,65.160665 c 2.79923,1.680933 3.65891,4.532579 3.89131,7.555464 0.166,2.143976 -1.86266,13.665886 -3.87209,15.981096"
       style="clip-rule:evenodd;fill:none;fill-rule:evenodd;stroke:#de2a2a;stroke-width:2.74331px;stroke-linecap:round;stroke-linejoin:round;stroke-miterlimit:1.5"
       id="path324"
       sodipodi:nodetypes="ccc" />
    <path
       d="m 233.51981,160.74715 c 5.62466,4.84885 2.73632,24.30188 1.1445,23.80914"
       style="clip-rule:evenodd;fill:none;fill-rule:evenodd;stroke:#000000;stroke-width:2.74331px;stroke-linecap:round;stroke-linejoin:round;stroke-miterlimit:1.5"
       id="path328"
       sodipodi:nodetypes="cc" />
    <path
       d="m 204.83368,64.702864 c 5.62466,4.848847 2.73632,24.301891 1.1445,23.809151"
       style="clip-rule:evenodd;fill:none;fill-rule:evenodd;stroke:#000000;stroke-width:2.74331px;stroke-linecap:round;stroke-linejoin:round;stroke-miterlimit:1.5"
       id="path332"
       sodipodi:nodetypes="cc" />
    <path
       d="m 240.02513,159.56594 c 6.67306,1.8679 6.77615,24.3019 2.6507,26.36375"
       style="clip-rule:evenodd;fill:none;fill-rule:evenodd;stroke:#000000;stroke-width:2.74331px;stroke-linecap:round;stroke-linejoin:round;stroke-miterlimit:1.5"
       id="path336"
       sodipodi:nodetypes="cc" />
  </g>
</svg>
