<?xml version="1.0" encoding="UTF-8" standalone="no"?>
<svg
   id="svg1069"
   width="93.144mm"
   height="142.62mm"
   version="1.1"
   viewBox="0 0 93.144 142.62"
   sodipodi:docname="2022-KR-03-answerD.svg"
   inkscape:version="1.1.1 (3bf5ae0d25, 2021-09-20)"
   xmlns:inkscape="http://www.inkscape.org/namespaces/inkscape"
   xmlns:sodipodi="http://sodipodi.sourceforge.net/DTD/sodipodi-0.dtd"
   xmlns="http://www.w3.org/2000/svg"
   xmlns:svg="http://www.w3.org/2000/svg"
   xmlns:rdf="http://www.w3.org/1999/02/22-rdf-syntax-ns#"
   xmlns:cc="http://creativecommons.org/ns#"
   xmlns:dc="http://purl.org/dc/elements/1.1/">
  <defs
     id="defs67" />
  <sodipodi:namedview
     id="namedview65"
     pagecolor="#ffffff"
     bordercolor="#666666"
     borderopacity="1.0"
     inkscape:pageshadow="2"
     inkscape:pageopacity="0.0"
     inkscape:pagecheckerboard="0"
     inkscape:document-units="mm"
     showgrid="false"
     inkscape:zoom="1.3820964"
     inkscape:cx="176.18163"
     inkscape:cy="269.5181"
     inkscape:window-width="1680"
     inkscape:window-height="1027"
     inkscape:window-x="2040"
     inkscape:window-y="22"
     inkscape:window-maximized="1"
     inkscape:current-layer="g1152" />
  <metadata
     id="metadata1066">
    <rdf:RDF>
      <cc:Work
         rdf:about="">
        <dc:format>image/svg+xml</dc:format>
        <dc:type
           rdf:resource="http://purl.org/dc/dcmitype/StillImage" />
      </cc:Work>
    </rdf:RDF>
  </metadata>
  <g
     id="layer1"
     transform="translate(-53.025,-52.632)">
    <g
       id="g1152"
       transform="translate(131.08,66.616)">
      <path
         id="path888-5"
         d="m -74.869,105.29 c -0.51726,7.9372 10.995,16.802 16.251,19.042 15.756,6.7133 36.264,2.6752 52.286,-0.66226 6.9861,-1.4552 16.728,-5.6631 18.018,-12.915 1.7907,-10.071 -7.2326,-15.832 -16.251,-16.889 -17.386,-2.037 -36.18,-0.90011 -53.346,2.318 -2.8279,0.53023 -16.579,3.2988 -16.958,9.107 z"
         fill="#f6851f"
         fill-rule="evenodd"
         stroke="#000000"
         stroke-linecap="round"
         stroke-linejoin="round"
         stroke-width="1.3229"
         style="clip-rule:evenodd" />
      <path
         id="path890-1"
         d="m -62.876,99.734 c 8.9244,-2.9691 18.431,-3.1107 27.705,-4.0422 11.079,-0.71924 22.431,-1.5688 33.317,1.1452 2.9421,1.0602 6.7379,1.8161 8.1614,4.9459 0.7983,3.2836 -1.9839,6.2186 -4.4095,8.0272 -6.2237,4.2507 -14.023,4.0747 -21.21,5.0678 -8.8731,1.0043 -17.81,1.1739 -26.724,1.5293 -5.3954,-0.0213 -10.909,-0.1593 -16.114,-1.6938 -3.5378,-1.3443 -7.5257,-3.057 -9.2983,-6.6234 -0.84068,-2.613 1.4877,-5.0219 3.4922,-6.3705 1.5561,-0.97386 3.3556,-1.4161 5.0801,-1.9855 z"
         fill="#f0a45f"
         fill-rule="evenodd"
         style="clip-rule:evenodd;stroke-width:0.26458;stroke-linecap:round;stroke-linejoin:round" />
      <path
         id="path897-3"
         d="m -73.661,95.504 c 0,-0.0741 -0.23744,2.1772 -0.23744,3.2456 0,1.865 -0.33142,5.3427 1.3979,6.6397 0.81341,0.61013 2.688,0.53552 3.6694,0.69903 4.8362,0.80592 9.6479,1.4031 14.503,2.0968 4.7855,0.68368 10.25,0.30295 15.027,-0.17489 10.73,-1.0729 21.714,-1.116 32.5,-2.0968 4.5228,-0.4109 8.877,-1.216 13.28,-2.0966 0.78979,-0.15796 2.3646,-0.26802 2.9705,-0.87365 1.9748,-1.9748 1.5462,-8.4235 1.2232,-11.008 -0.0582,-0.46434 0.0323,-2.032 -0.17489,-2.4463 -1.7354,-3.4708 -12.393,-4.6702 -15.726,-4.8924 -16.945,-1.1298 -34.189,-2.2426 -50.847,1.9219 -4.9205,1.2303 -9.5197,3.537 -13.979,5.7663 -1.3354,0.66754 -3.6067,3.2194 -3.6067,3.2194 z"
         fill="#794508"
         fill-rule="evenodd"
         stroke="#010101"
         stroke-linecap="round"
         stroke-linejoin="round"
         stroke-width="1.3229"
         style="clip-rule:evenodd" />
      <path
         id="path900-7"
         d="m -73.899,96.704 c 0.34664,-1.5803 -0.10904,2.9163 -0.01919,3.8153 -0.38856,2.7732 0.64392,6.6392 4.2135,6.0521 6.6672,0.85906 13.297,2.203 20.02,2.5478 8.0476,0.0539 16.023,-1.2984 24.065,-1.4891 10.742,-0.53048 21.566,-0.84869 32.098,-3.2377 3.4702,0.28546 4.5282,-3.3295 4.4435,-6.1489 0.02018,-2.8274 -0.01911,-5.779 -0.61304,-8.4978 -2.7068,-2.9285 -7.0613,-3.2878 -10.763,-4.0396 -8.3296,-0.991 -16.734,-1.2992 -25.116,-1.5436 -11.621,-0.1322 -23.487,0.48351 -34.585,4.1992 -3.9865,1.5721 -7.965,3.2987 -11.604,5.5645 -3.9804,3.3323 2.4221,6.0562 5.3696,5.9553 6.855,0.68916 13.761,0.17637 20.639,0.29855 13.855,-0.032 27.752,-0.67113 41.418,-3.084 5.0415,-0.74722 10.462,-1.5215 14.541,-4.8149 l 0.11368,-0.2947"
         fill="#794508"
         fill-rule="evenodd"
         stroke="#010101"
         stroke-linecap="round"
         stroke-linejoin="round"
         stroke-width="1.3229"
         style="clip-rule:evenodd" />
      <path
         id="path902-4"
         d="m -51.966,88.414 c -1.5677,0.52255 -5.0004,5.2745 -6.532,6.6529 -0.83423,0.75089 -1.5298,1.6312 -2.4191,2.2982 -0.34899,0.26168 -1.5248,0.72576 -1.0888,0.72576 0.16616,0 0.32253,-0.0804 0.48392,-0.12092"
         fill="none"
         fill-rule="evenodd"
         stroke="#010101"
         stroke-linecap="round"
         stroke-linejoin="round"
         stroke-width="1.3229"
         style="clip-rule:evenodd" />
      <path
         id="path904-1"
         d="m -41.08,87.444 c -2.8705,2.8707 -4.4103,7.0128 -7.8626,9.3141"
         fill="none"
         fill-rule="evenodd"
         stroke="#010101"
         stroke-linecap="round"
         stroke-linejoin="round"
         stroke-width="1.3229"
         style="clip-rule:evenodd" />
      <path
         id="path906-5"
         d="m -28.255,86.604 c -1.7251,2.5879 -4.2487,4.9392 -6.169,7.4996 -0.48445,0.64611 -2.6694,3.3091 -2.1773,3.1451"
         fill="none"
         fill-rule="evenodd"
         stroke="#010101"
         stroke-linecap="round"
         stroke-linejoin="round"
         stroke-width="1.3229"
         style="clip-rule:evenodd" />
      <path
         id="path908-3"
         d="m -14.225,86.604 c -1.8426,2.7641 -4.4818,5.3298 -6.653,7.8626 -0.38682,0.45138 -1.0869,0.84322 -1.3306,1.3306"
         fill="none"
         fill-rule="evenodd"
         stroke="#010101"
         stroke-linecap="round"
         stroke-linejoin="round"
         stroke-width="1.3229"
         style="clip-rule:evenodd" />
      <path
         id="path910-7"
         d="m -1.5249,87.934 c -2.1397,2.1397 -4.4339,4.0712 -6.5318,6.169"
         fill="none"
         fill-rule="evenodd"
         stroke="#010101"
         stroke-linecap="round"
         stroke-linejoin="round"
         stroke-width="1.3229"
         style="clip-rule:evenodd" />
      <path
         id="path912-7"
         d="m -65.03,93.374 c 5.9664,0 11.716,1.4486 17.54,2.4194 1.2147,0.2024 2.137,0.96758 3.3869,0.96758"
         fill="none"
         fill-rule="evenodd"
         stroke="#010101"
         stroke-linecap="round"
         stroke-linejoin="round"
         stroke-width="1.3229"
         style="clip-rule:evenodd" />
      <path
         id="path914-0"
         d="m -57.53,88.654 c 2.2048,0 4.912,1.0808 7.1366,1.4515 3.3803,0.56356 6.5783,1.3787 9.919,1.9354 2.4265,0.40454 4.9683,0.12276 7.3787,0.60483 2.9821,0.59637 6.1468,1.6936 9.1932,1.6936"
         fill="none"
         fill-rule="evenodd"
         stroke="#010101"
         stroke-linecap="round"
         stroke-linejoin="round"
         stroke-width="1.3229"
         style="clip-rule:evenodd" />
      <path
         id="path916-5"
         d="m -38.781,86.724 c 1.4467,0.36195 3.0162,0.39634 4.4754,0.60484 4.2304,0.6043 8.2095,2.3193 12.338,3.1451 3.0303,0.60616 6.168,0.56065 9.3141,0.84666 2.8678,0.26088 5.6123,1.5727 8.4672,1.5727"
         fill="none"
         fill-rule="evenodd"
         stroke="#010101"
         stroke-linecap="round"
         stroke-linejoin="round"
         stroke-width="1.3229"
         style="clip-rule:evenodd" />
      <path
         id="path918-9"
         d="m -16.645,86.964 c 2.4741,0 4.7551,1.098 7.1366,1.6933 3.5647,0.89112 9.1004,0.67945 12.338,2.2984"
         fill="none"
         fill-rule="evenodd"
         stroke="#010101"
         stroke-linecap="round"
         stroke-linejoin="round"
         stroke-width="1.3229"
         style="clip-rule:evenodd" />
      <path
         id="path923-2"
         d="m -35.623,73.244 c -1.6849,0.0206 -7.8602,-1.4552 -9.6573,-1.4552 -7.5872,0 -13.884,9.021 -21.696,10.583 -2.043,0.40878 -4.7884,3.0713 -4.2333,5.2917 1.5152,6.0608 12.862,3.8536 16.933,3.175 5.7796,-0.96309 10.34,0.48074 15.875,1.5875 3.5044,0.70088 5.8174,-1.2163 8.9958,-1.8521 1.5222,-0.30427 3.986,-0.65696 5.5562,-0.26458 1.2687,0.31724 2.8459,1.3359 4.2333,1.0583 3.6486,-0.72972 7.0088,-2.5458 10.583,-3.4396 3.1059,-0.77655 16.263,1.0927 17.198,-2.6458 1.0081,-4.0328 -3.3959,-7.2649 -7.1438,-8.2021 -2.3596,-0.58975 -6.4257,-0.19658 -8.7312,0.26459 -3.7769,0.75538 -8.5151,-0.18442 -12.171,-0.79375 -4.7937,-0.79878 -10.474,-3.3718 -15.743,-3.3073 z"
         fill="#f14b09"
         fill-rule="evenodd"
         stroke="#010101"
         stroke-linecap="round"
         stroke-linejoin="round"
         stroke-width="1.3229"
         style="clip-rule:evenodd" />
      <path
         id="path925-2"
         d="m -58.774,82.894 c -0.47054,3.5152 4.5092,1.6436 4.5527,-0.8013 0.19935,-2.725 -4.3492,-0.67096 -4.5527,0.8013 z"
         fill="#f1d509"
         fill-rule="evenodd"
         stroke="#010101"
         stroke-linecap="round"
         stroke-linejoin="round"
         stroke-width="1.3229"
         style="clip-rule:evenodd" />
      <path
         id="path927-5"
         d="m -45.809,75.624 c -0.96717,1.4448 -0.28731,3.5858 1.678,2.6181 2.6913,0.86065 3.248,-3.0547 0.76145,-3.6338 -0.92328,-0.38082 -2.1569,-0.0299 -2.4395,1.0157 z"
         fill="#f1d509"
         fill-rule="evenodd"
         stroke="#010101"
         stroke-linecap="round"
         stroke-linejoin="round"
         stroke-width="1.3229"
         style="clip-rule:evenodd" />
      <path
         id="path929-1"
         d="m -28.215,81.574 c -2.5097,0.95967 -1.4993,3.4194 0.92961,2.908 2.948,1.0486 3.4454,-3.5553 0.43681,-3.3008 -0.47949,-0.004 -0.9691,0.11688 -1.3664,0.39275 z"
         fill="#f1d509"
         fill-rule="evenodd"
         stroke="#010101"
         stroke-linecap="round"
         stroke-linejoin="round"
         stroke-width="1.3229"
         style="clip-rule:evenodd" />
      <path
         id="path931-6"
         d="m -13.005,79.724 c -1.2756,2.427 1.1023,3.603 3.1644,2.7533 2.4914,-0.20082 0.59821,-4.3873 -1.5273,-3.3288 -0.57275,0.0975 -1.1296,0.29243 -1.6371,0.57545 z"
         fill="#f1d509"
         fill-rule="evenodd"
         stroke="#010101"
         stroke-linecap="round"
         stroke-linejoin="round"
         stroke-width="1.3229"
         style="clip-rule:evenodd" />
      <path
         id="path933-8"
         d="m -47.529,82.894 c -0.58252,1.5826 0.97661,3.718 2.1582,1.5943 2.1824,-2.0699 -1.0213,-3.8839 -2.1582,-1.5943 z"
         fill="#128e1e"
         fill-rule="evenodd"
         stroke="#010101"
         stroke-linecap="round"
         stroke-linejoin="round"
         stroke-width="1.3229"
         style="clip-rule:evenodd" />
      <path
         id="path935-5"
         d="m -35.623,77.874 c -1.5753,2.244 1.6179,4.0026 2.6502,1.5807 1.3526,-1.7456 -0.68796,-3.833 -2.2346,-1.9228 l -0.20362,0.1625 z"
         fill="#128e1e"
         fill-rule="evenodd"
         stroke="#010101"
         stroke-linecap="round"
         stroke-linejoin="round"
         stroke-width="1.3229"
         style="clip-rule:evenodd" />
      <path
         id="path937-2"
         d="m -20.275,78.264 c -2.7154,1.3851 2.4847,3.5594 1.8622,0.81465 -0.43147,-0.52302 -1.1726,-0.91685 -1.8622,-0.81465 z"
         fill="#128e1e"
         fill-rule="evenodd"
         stroke="#010101"
         stroke-linecap="round"
         stroke-linejoin="round"
         stroke-width="1.3229"
         style="clip-rule:evenodd" />
      <path
         id="path939-0"
         d="m -3.6049,81.044 c 0.28493,1.3182 0.15997,2.7669 2.0912,2.238 1.6698,0.30993 3.2301,-0.0596 2.5229,-2.0496 0.0853,-2.507 -4.6148,-2.1468 -4.6141,-0.18846 z"
         fill="#128e1e"
         fill-rule="evenodd"
         stroke="#010101"
         stroke-linecap="round"
         stroke-linejoin="round"
         stroke-width="1.3229"
         style="clip-rule:evenodd" />
      <path
         id="path941-0"
         d="m -34.3,86.604 c -1.3783,1.0045 -5.2411,-0.21865 -3.9871,-2.3445 1.2601,-0.67368 5.0597,0.58827 3.9871,2.3445 z"
         fill="#128e1e"
         fill-rule="evenodd"
         stroke="#010101"
         stroke-linecap="round"
         stroke-linejoin="round"
         stroke-width="1.3229"
         style="clip-rule:evenodd" />
      <path
         id="path1029-5"
         d="m -31.085,53.754 c -1.904,-0.21504 -5.1224,1.4123 -7.5133,1.9375 -7.0277,2.0359 -13.543,5.4502 -20.551,7.5381 -3.681,1.2895 -7.4234,2.5181 -10.902,4.2816 -3.6174,2.5547 1.8762,4.0986 3.9806,4.4693 6.774,2.9181 13.769,5.2804 20.823,7.4103 3.8655,1.5798 7.6406,3.3923 11.319,5.357 3.7994,1.1154 6.9419,-2.1464 10.281,-3.3829 6.4777,-3.5522 13.43,-6.1389 20.137,-9.2182 3.8099,-1.6528 7.8762,-2.9051 11.328,-5.2461 1.5139,-2.8233 -4.1801,-2.834 -5.9585,-3.7695 -5.3078,-1.4404 -10.917,-1.7631 -15.958,-4.1433 -4.9735,-1.916 -10.332,-2.768 -15.092,-5.2397 -0.44238,0.24292 -3.187,-1.1331 -1.8938,0.0059 z"
         fill="#f0c812"
         fill-rule="evenodd"
         stroke="#070c00"
         stroke-linecap="round"
         stroke-linejoin="round"
         stroke-width="1.3229"
         style="clip-rule:evenodd" />
      <path
         id="path1015-2"
         d="m 3.7451,49.524 c 0.20735,-0.0245 0.52931,-0.0683 0.63472,0.0775 0.25233,0.34934 0.95903,6.843 0.67962,7.0915 -0.32656,0.29012 -1.2744,0.005 -1.5461,0.006 -1.8034,0.007 -4.7742,0.009 -6.0481,1.0139 -2.4418,1.9254 -2.8114,6.3061 -6.3135,7.4058 -1.4746,0.46288 -3.113,-1.2112 -4.7518,-1.1644 -1.6652,0.0475 -2.3813,2.0456 -4.0882,1.8372 -0.92741,-0.11323 -1.2915,-1.3257 -2.1436,-1.4297 -0.95659,-0.11679 -2.6735,1.3728 -3.3034,1.7381 -3.0125,1.7478 -6.4502,3.2912 -10.276,4.0017 -1.4997,0.2783 -5.3228,0.97528 -6.6923,-0.0385 -1.5722,-1.1635 -2.49,-3.5825 -4.631,-4.2643 -2.2046,-0.70177 -4.2672,1.3318 -6.7629,0.53718 -1.0346,-0.32943 -3.1269,-1.3086 -3.8733,-2.0303 -0.94989,-0.91882 -0.91975,-1.6242 -2.2804,-2.4199 -2.4205,-1.4156 -8.9335,-3.4944 -9.8436,-5.8741 -0.31641,-0.82735 1.6526,-2.0055 0.976,-3.7746 -0.25146,-0.65736 -1.9594,-4.1111 -1.4918,-4.6596 1.0469,-1.2281 4.6576,-1.2764 6.1886,-2.1647 1.2249,-0.71065 1.8136,-2.2517 2.7057,-3.1739 0.86275,-0.89177 1.9954,-1.1431 3.2798,-1.5464 2.4875,-0.78106 5.5115,0.98476 7.1767,0.29218 1.8862,-0.7846 2.664,-2.7624 3.838,-4.009 1.1924,-1.2663 3.6065,-1.594 5.6106,-1.6512 4.209,-0.12012 5.8766,3.6247 9.5002,4.4694 3.225,0.7519 5.1792,-2.6903 8.8868,-1.0565 2.4538,1.0814 2.0932,4.6027 5.0214,5.2854 3.1715,0.73937 3.1442,-3.8991 6.3525,-3.5074 1.0789,0.13172 4.8672,4.9568 5.4589,5.9228 0.56942,0.93005 0.95891,2.9457 2.4172,3.41 1.8243,0.58084 3.5773,-0.11771 5.3197,-0.32392 z"
         fill="#38b82c"
         fill-rule="evenodd"
         stroke="#010101"
         stroke-linecap="round"
         stroke-linejoin="round"
         stroke-width="1.3945"
         style="clip-rule:evenodd" />
      <path
         id="path1017-1"
         d="m -34.13,43.804 c 0.57837,1.4898 3.5241,1.7821 4.7342,3.3049 2.1075,1.5485 4.2692,3.2557 5.3948,5.6865 -5.1959,0.09878 -10.59,0.14599 -15.48,-1.8137 -3.3997,-2.1261 -7.2451,-3.321 -11.07,-4.4264 2.7021,1.3959 5.6917,2.2637 8.1569,4.0948 -0.20618,0.2839 -3.6693,-0.2974 -5.0857,-0.03313 -4.971,0.2247 -9.8075,1.8235 -14.32,3.8071 -2.5381,2.2272 1.8093,0.25988 2.8581,0.03461 6.9932,-2.0648 14.584,-2.9003 21.68,-0.82433 2.7632,0.73949 -2.4241,2.1875 -3.2587,3.0756 -2.9666,1.5395 -6.221,2.4923 -9.0498,4.3024 6.1806,-0.94117 11.235,-5.512 17.513,-6.202 2.0501,1.0018 6.1481,0.32744 6.9596,2.3918 -2.1061,2.5221 -4.6916,4.6782 -7.664,6.103 0.43974,1.0893 3.6139,-0.92883 4.8815,-1.2739 3.1223,-0.7615 4.6982,-4.8027 7.9202,-4.5484 6.6297,0.64939 13.147,-1.1174 19.633,-2.1873 1.7741,0.31452 4.8165,0.32055 3.6025,-2.3807 -0.39135,-0.37598 0.36043,-1.4801 -0.28305,-1.3698 -5.2154,0.8943 -16.894,1.6247 -21.852,-1.423 -4.8364,-2.6687 -9.697,-5.557 -15.269,-6.3181 z"
         fill="#d3fa9a"
         fill-rule="evenodd"
         stroke="#d3fa9a"
         stroke-linecap="round"
         stroke-linejoin="round"
         stroke-width="1.3945"
         style="clip-rule:evenodd" />
      <path
         id="path1020-2"
         d="m -41.285,32.958 c -8.8504,0.72402 -17.331,3.6132 -25.655,6.5297 -3.3317,1.5001 -2.2382,6.8333 1.3592,7.0132 9.5195,2.9364 19.592,1.2366 29.24,-0.02598 3.9408,-0.73177 8.5701,-1.6964 10.772,-5.4224 1.5405,-3.6011 -1.9986,-6.9336 -5.3081,-7.6368 -3.3701,-1.0415 -6.9498,-0.68009 -10.409,-0.45776 z m -7.0707,3.3965 c 5.248,-0.53193 10.591,-0.70552 15.801,0.26247 3.4465,2.3415 -1.4833,5.8462 -4.1167,5.9363 -6.946,2.239 -14.319,2.1324 -21.523,2.6113 -2.4299,-0.20964 -8.8134,0.60683 -6.8683,-3.5825 2.0648,-2.4821 5.5484,-2.7946 8.4517,-3.742 2.716,-0.67302 5.4789,-1.1454 8.2553,-1.4855 z"
         fill="#faf5b3"
         fill-rule="evenodd"
         stroke="#070c00"
         stroke-linecap="round"
         stroke-linejoin="round"
         stroke-width="1.3229"
         style="clip-rule:evenodd" />
      <path
         id="path1022-3"
         d="m -29.875,36.814 c -4.6645,-0.31712 -9.4786,-1.4023 -14.034,0.19815 -3.3148,1.074 -6.6174,2.9636 -8.5086,5.9658 -1.5235,3.4354 1.4664,7.0148 4.7824,7.769 4.6598,1.4529 9.6162,1.5104 14.453,1.728 7.1372,0.06689 14.429,-0.50302 21.181,-2.9448 3.4296,-1.6285 2.8731,-6.3675 -0.16795,-8.0764 -4.441,-3.295 -10.227,-3.5094 -15.495,-4.3315 -0.73758,-0.09786 -1.4748,-0.19863 -2.2108,-0.30821 z m 4.686,3.2839 c 3.1156,0.69268 7.2191,0.21226 9.0699,3.3911 0.4978,3.3367 -3.8652,4.5504 -6.5016,4.5879 -7.6298,0.25283 -15.39,1.2168 -22.942,-0.314 -4.0254,-0.19892 -3.8974,-5.6504 -0.48357,-6.7404 4.0697,-2.8394 9.1994,-1.8608 13.829,-1.6428 2.3442,0.22346 4.677,0.56266 7.0275,0.71831 z"
         fill="#faf5b3"
         fill-rule="evenodd"
         stroke="#070c00"
         stroke-linecap="round"
         stroke-linejoin="round"
         stroke-width="1.3229"
         style="clip-rule:evenodd" />
      <path
         id="path1024-8"
         d="m -7.4249,34.857 c -8.7223,-1.7369 -17.673,-1.2683 -26.495,-0.79468 -3.7779,0.37998 -4.6253,5.8557 -0.97812,7.1539 8.2576,5.4755 18.393,6.4557 27.94,7.9118 3.786,0.41793 7.9903,0.473 11.289,-1.6896 2.9265,-2.3439 1.8324,-6.8455 -1.093,-8.6588 -3.0401,-2.4065 -6.9657,-3.1439 -10.663,-3.9227 z m -7.8632,1.3089 c 5.148,0.93339 10.312,2.1816 14.992,4.5886 2.4396,3.3427 -3.3144,5.0383 -5.8598,4.518 -7.294,0.24403 -14.36,-1.8642 -21.417,-3.3892 -2.2773,-0.79798 -8.6596,-1.9648 -5.3355,-5.3165 3.227,-1.9476 7.2451,-1.0891 10.829,-1.1617 2.275,0.14069 4.5412,0.40668 6.7925,0.76076 z"
         fill="#faf5b3"
         fill-rule="evenodd"
         stroke="#070c00"
         stroke-linecap="round"
         stroke-linejoin="round"
         stroke-width="1.3229"
         style="clip-rule:evenodd" />
      <path
         id="path946-2"
         d="m -29.345,16.877 c -1.8296,-0.05026 -3.7693,0.51706 -5.4162,1.1023 -3.2645,1.1391 -6.3199,3.0095 -8.5964,5.6369 -0.65771,0.69769 -1.0934,1.4965 -1.3358,2.3415 -4.2269,-1.9377 -9.0657,-1.626 -13.591,-1.3322 -2.5829,0.44922 -5.9244,2.1194 -5.4679,5.2508 0.67095,4.7192 5.4587,7.2934 9.6785,8.2858 3.6706,1.0245 8.3989,1.3039 11.116,-1.8784 0.53338,-0.68109 0.94469,-1.489 1.219,-2.3508 0.71207,0.53056 1.516,0.92666 2.3844,1.1343 4.648,1.5854 10.457,0.50125 13.799,-3.1605 0.67435,4.7018 5.7552,7.2597 10.127,7.2202 5.3157,0.33121 11.392,-0.67929 15.004,-4.9413 2.4608,-3.9192 1.1952,-10.204 -3.2784,-12.047 -4.53,-1.4618 -9.1493,0.63598 -13.371,2.1637 -0.88089,0.35224 -1.7593,0.71063 -2.6432,1.0552 -1.3126,0.65068 -2.7205,1.47 -3.8266,2.5296 0.65726,-3.2422 -0.0641,-6.778 -1.9208,-9.4899 -1.1008,-1.0686 -2.4574,-1.4812 -3.8804,-1.5203 z"
         style="clip-rule:evenodd;fill:#546821;stroke-width:0.26458;stroke-linecap:round;stroke-linejoin:round" />
      <path
         id="path946-3"
         d="m -44.69,25.956 c -4.2899,-2.1319 -8.7435,-1.5592 -13.379,-1.2582 -2.5655,0.44618 -5.8845,2.1054 -5.431,5.2157 0.66643,4.6874 5.4217,7.2441 9.6131,8.2298 3.6458,1.0176 8.4789,1.4066 11.042,-1.8657 0.50973,-0.65088 0.8835,-1.4302 1.1163,-2.269"
         fill="#546821"
         fill-rule="evenodd"
         stroke="#010101"
         stroke-linecap="round"
         stroke-linejoin="round"
         stroke-width="1.3229"
         style="clip-rule:evenodd;fill:none" />
      <path
         id="path948-3"
         d="m -43.341,32.506 c -0.68036,2.8211 -3.4682,5.2844 -6.463,4.574 -4.4076,-0.29043 -9.4318,-1.5828 -11.814,-5.6654 -1.0938,-2.9589 2.3702,-5.1087 4.959,-5.1 1.2299,-0.11667 2.4668,-0.0303 3.699,-0.0919 v 0 c 2.5566,0.14822 5.5073,-0.0411 7.7398,1.3309"
         fill="#546821"
         fill-rule="evenodd"
         stroke="#010101"
         stroke-linecap="round"
         stroke-linejoin="round"
         stroke-width="1.3229"
         style="clip-rule:evenodd;fill:none" />
      <path
         id="path950-3"
         d="m -54.251,29.476 c 1.3861,0.35754 4.1881,0.58554 4.7073,0.89312 -1.1227,0.44217 -1.513,4.2186 -2.6668,1.8334 -0.6079,-1.3778 -3.0725,-2.2009 -3.447,-2.9382 0.47493,0.0254 0.93631,0.15025 1.4065,0.21161 z"
         fill="#7f9d33"
         fill-rule="evenodd"
         stroke="#010101"
         stroke-linecap="round"
         stroke-linejoin="round"
         stroke-width="1.3229"
         style="clip-rule:evenodd" />
      <path
         id="path952-9"
         d="m -56.457,30.846 c -0.93957,-1.5574 -4.2919,0.48812 -1.451,0.81121 0.4506,0.0715 1.5508,-0.17717 1.451,-0.81121 z"
         fill="#7f9d33"
         fill-rule="evenodd"
         stroke="#010101"
         stroke-linecap="round"
         stroke-linejoin="round"
         stroke-width="1.3229"
         style="clip-rule:evenodd" />
      <path
         id="path954-7"
         d="m -54.503,32.606 c -1.6014,-0.10954 -1.5993,2.0597 0.0592,1.0594 0.42148,-0.21603 0.74719,-1.1627 -0.0592,-1.0594 z"
         fill="#7f9d33"
         fill-rule="evenodd"
         stroke="#010101"
         stroke-linecap="round"
         stroke-linejoin="round"
         stroke-width="1.3229"
         style="clip-rule:evenodd" />
      <path
         id="path956-4"
         d="m -48.648,33.136 c -1.2259,1.4754 2.51,2.3469 1.2923,0.40894 -0.3223,-0.32643 -0.82907,-0.58789 -1.2923,-0.40894 z"
         fill="#7f9d33"
         fill-rule="evenodd"
         stroke="#010101"
         stroke-linecap="round"
         stroke-linejoin="round"
         stroke-width="1.3229"
         style="clip-rule:evenodd" />
      <path
         id="path958-5"
         d="m -47.201,31.856 c 0.60803,1.5879 2.9415,-0.37457 0.93566,-0.64625 -0.32521,0.071 -0.97731,0.20885 -0.93566,0.64625 z"
         fill="#7f9d33"
         fill-rule="evenodd"
         stroke="#010101"
         stroke-linecap="round"
         stroke-linejoin="round"
         stroke-width="1.3229"
         style="clip-rule:evenodd" />
      <path
         id="path960-2"
         d="m -50.319,28.606 c 1.4487,0.82404 2.6022,-2.2417 0.41988,-1.127 -0.45846,0.11287 -1.2924,0.8678 -0.41988,1.127 z"
         fill="#7f9d33"
         fill-rule="evenodd"
         stroke="#010101"
         stroke-linecap="round"
         stroke-linejoin="round"
         stroke-width="1.3229"
         style="clip-rule:evenodd" />
      <path
         id="path962-8"
         d="m -52.973,27.976 c -1.6461,0.0426 -0.92272,-2.344 0.37356,-0.7459 0.31336,0.30176 0.0256,0.76159 -0.37356,0.7459 z"
         fill="#7f9d33"
         fill-rule="evenodd"
         stroke="#010101"
         stroke-linecap="round"
         stroke-linejoin="round"
         stroke-width="1.3229"
         style="clip-rule:evenodd" />
      <path
         id="path968-1"
         d="m -43.244,23.696 c -3.487,3.6989 -0.68186,10.26 3.9764,11.374 5.3102,1.8113 12.149,0.11618 15.025,-4.9502 1.6041,-3.7276 1.043,-8.2884 -1.2293,-11.607 -2.4991,-2.426 -6.3257,-1.4486 -9.2337,-0.41527 -3.2425,1.1314 -6.2775,2.9892 -8.5387,5.5988 z"
         fill="#546821"
         fill-rule="evenodd"
         stroke="#010101"
         stroke-linecap="round"
         stroke-linejoin="round"
         stroke-width="1.3229"
         style="clip-rule:evenodd;fill:none" />
      <path
         id="path970-1"
         d="m -38.429,22.436 c 2.9621,-1.7663 6.189,-3.6847 9.7738,-3.4114 3.4845,1.5049 3.949,6.0423 2.955,9.2697 -1.1103,3.6002 -5.0806,5.0289 -8.4753,5.4685 -3.4784,0.54803 -7.9492,-0.90255 -8.8291,-4.6977 -0.60973,-3.1173 2.3951,-5.0884 4.5756,-6.629 z"
         fill="#546821"
         fill-rule="evenodd"
         stroke="#010101"
         stroke-linecap="round"
         stroke-linejoin="round"
         stroke-width="1.3229"
         style="clip-rule:evenodd;fill:none" />
      <path
         id="path972-4"
         d="m -36.157,25.536 c 1.3791,-0.19284 3.982,-1.34 4.5395,-1.09 -1.0616,0.95232 0.32624,5.2529 -1.6005,3.5156 -1.0825,-1.3645 -3.1178,-1.3272 -4.3282,-1.9936 0.41682,-0.24755 0.93821,-0.26183 1.3892,-0.43192 z"
         fill="#7f9d33"
         fill-rule="evenodd"
         stroke="#010101"
         stroke-linecap="round"
         stroke-linejoin="round"
         stroke-width="1.3229"
         style="clip-rule:evenodd" />
      <path
         id="path974-0"
         d="m -37.642,28.156 c -1.4224,-1.3009 -3.7061,2.4681 -1.008,1.6256 0.53727,-0.19515 1.3102,-1.0108 1.008,-1.6256 z"
         fill="#7f9d33"
         fill-rule="evenodd"
         stroke="#010101"
         stroke-linecap="round"
         stroke-linejoin="round"
         stroke-width="1.3229"
         style="clip-rule:evenodd" />
      <path
         id="path976-6"
         d="m -35.281,29.316 c -1.4896,0.59662 -0.69195,3.1027 0.42581,1.216 0.23949,-0.34599 0.35247,-1.6889 -0.42581,-1.216 z"
         fill="#7f9d33"
         fill-rule="evenodd"
         stroke="#010101"
         stroke-linecap="round"
         stroke-linejoin="round"
         stroke-width="1.3229"
         style="clip-rule:evenodd" />
      <path
         id="path978-8"
         d="m -29.875,27.226 c -0.72928,1.761 2.7125,2.0852 1.5755,0.11856 -0.3674,-0.44069 -1.178,-0.62768 -1.5755,-0.11856 z"
         fill="#7f9d33"
         fill-rule="evenodd"
         stroke="#010101"
         stroke-linecap="round"
         stroke-linejoin="round"
         stroke-width="1.3229"
         style="clip-rule:evenodd" />
      <path
         id="path980-0"
         d="m -29.035,25.046 c 1.5448,1.6252 2.2319,-2.2759 0.40064,-1.0187 -0.2112,0.27139 -0.57955,0.64641 -0.40064,1.0187 z"
         fill="#7f9d33"
         fill-rule="evenodd"
         stroke="#010101"
         stroke-linecap="round"
         stroke-linejoin="round"
         stroke-width="1.3229"
         style="clip-rule:evenodd" />
      <path
         id="path982-5"
         d="m -32.958,22.686 c 1.6871,0.10382 1.498,-3.6579 -0.0225,-1.5179 -0.32888,0.38407 -0.90126,1.5214 0.0225,1.5179 z"
         fill="#7f9d33"
         fill-rule="evenodd"
         stroke="#010101"
         stroke-linecap="round"
         stroke-linejoin="round"
         stroke-width="1.3229"
         style="clip-rule:evenodd" />
      <path
         id="path984-6"
         d="m -35.547,23.176 c -1.4667,0.7724 -1.6978,-2.2391 0.0702,-1.0487 0.38766,0.25149 0.30144,0.82489 -0.0702,1.0487 z"
         fill="#7f9d33"
         fill-rule="evenodd"
         stroke="#010101"
         stroke-linecap="round"
         stroke-linejoin="round"
         stroke-width="1.3229"
         style="clip-rule:evenodd" />
      <path
         id="path990-8"
         d="m -25.565,31.896 c 0.64931,4.6927 5.7114,7.2459 10.064,7.2065 5.2799,0.32897 11.316,-0.67476 14.903,-4.9081 2.4442,-3.8928 1.1872,-10.135 -3.2562,-11.966 -4.4994,-1.452 -9.0875,0.63197 -13.28,2.1494 -0.87495,0.34986 -1.7476,0.70557 -2.6256,1.0478 -1.2292,0.6093 -2.5422,1.3677 -3.6091,2.3343"
         fill="#546821"
         fill-rule="evenodd"
         stroke="#010101"
         stroke-linecap="round"
         stroke-linejoin="round"
         stroke-width="1.3229"
         style="clip-rule:evenodd;fill:none" />
      <path
         id="path992-7"
         d="m -5.4649,23.796 c 5.0322,1.6996 4.8627,10.013 -0.0516,11.757 -4.6357,1.8856 -10.116,2.6486 -14.843,0.68289 -3.0728,-1.0377 -4.0622,-5.556 -1.061,-7.2842 4.5111,-2.6988 11.594,-5.5765 15.956,-5.1558 z"
         fill="#546821"
         fill-rule="evenodd"
         stroke="#010101"
         stroke-linecap="round"
         stroke-linejoin="round"
         stroke-width="1.3229"
         style="clip-rule:evenodd;fill:none" />
      <path
         id="path994-6"
         d="m -14.985,29.746 c 1.6868,-0.19116 4.7145,-1.1876 5.5297,-1.0252 -1.2175,0.83958 0.23187,4.7687 -1.7767,3.4009 -1.4285,-1.0503 -3.1291,-1.679 -4.9097,-1.6781 -1.4853,-0.31067 0.92919,-0.60062 1.1567,-0.69757 z"
         fill="#7f9d33"
         fill-rule="evenodd"
         stroke="#010101"
         stroke-linecap="round"
         stroke-linejoin="round"
         stroke-width="1.3229"
         style="clip-rule:evenodd" />
      <path
         id="path996-8"
         d="m -16.785,32.166 c -1.2974,-1.2288 -4.5014,1.9827 -1.5723,1.5479 0.6555,0.005 1.9442,-0.77133 1.5723,-1.5479 z"
         fill="#7f9d33"
         fill-rule="evenodd"
         stroke="#010101"
         stroke-linecap="round"
         stroke-linejoin="round"
         stroke-width="1.3229"
         style="clip-rule:evenodd" />
      <path
         id="path998-9"
         d="m -13.915,33.236 c -1.4001,0.36698 -1.2947,2.6034 0.22301,1.4779 0.55469,-0.30581 0.86045,-1.9836 -0.22301,-1.4779 z"
         fill="#7f9d33"
         fill-rule="evenodd"
         stroke="#010101"
         stroke-linecap="round"
         stroke-linejoin="round"
         stroke-width="1.3229"
         style="clip-rule:evenodd" />
      <path
         id="path1000-7"
         d="m -7.3349,31.306 c -0.70822,2.1043 3.7326,1.4856 1.5774,-0.11079 -0.48971,-0.21586 -1.1516,-0.28198 -1.5774,0.11079 z"
         fill="#7f9d33"
         fill-rule="evenodd"
         stroke="#010101"
         stroke-linecap="round"
         stroke-linejoin="round"
         stroke-width="1.3229"
         style="clip-rule:evenodd" />
      <path
         id="path1002-0"
         d="m -6.3149,29.286 c 1.3491,1.4422 3.0239,-1.6296 0.73817,-1.102 -0.32223,0.21642 -0.9709,0.64534 -0.73817,1.102 z"
         fill="#7f9d33"
         fill-rule="evenodd"
         stroke="#010101"
         stroke-linecap="round"
         stroke-linejoin="round"
         stroke-width="1.3229"
         style="clip-rule:evenodd" />
      <path
         id="path1004-1"
         d="m -11.085,27.106 c 1.7527,0.33126 1.9853,-3.2718 0.16656,-1.577 -0.48462,0.3297 -1.3709,1.6135 -0.16656,1.577 z"
         fill="#7f9d33"
         fill-rule="evenodd"
         stroke="#010101"
         stroke-linecap="round"
         stroke-linejoin="round"
         stroke-width="1.3229"
         style="clip-rule:evenodd" />
      <path
         id="path1006-5"
         d="m -14.245,27.566 c -1.4018,0.77499 -2.3728,-1.8035 -0.23967,-1.1089 0.61035,0.10144 0.92703,0.79522 0.23967,1.1089 z"
         fill="#7f9d33"
         fill-rule="evenodd"
         stroke="#010101"
         stroke-linecap="round"
         stroke-linejoin="round"
         stroke-width="1.3229"
         style="clip-rule:evenodd" />
      <path
         id="path864-4"
         d="m -74.721,22.916 c 4.5347,2.2717 18.026,0.42968 22.61,0 11.748,-1.1012 23.464,-1.3245 35.329,-1.3245 6.1061,0 13.145,0.78079 19.078,-0.33126 6.6948,-1.2549 12.342,-3.4422 10.952,-11.259 -1.3515,-7.6012 -10.111,-15.005 -16.958,-18.214 -19.201,-8.9993 -46.292,-5.7626 -62.532,7.2856 -5.2134,4.1886 -8.2132,11.008 -9.5388,17.22 -0.33046,1.5489 -1.7336,5.2237 1.0599,6.623 z"
         fill="#f6851f"
         fill-rule="evenodd"
         stroke="#000000"
         stroke-linecap="round"
         stroke-linejoin="round"
         stroke-width="1.3229"
         style="clip-rule:evenodd" />
      <path
         id="path1651"
         d="m -32.619,-11.228 c -2.7144,0.88675 2.2266,3.0487 0.96671,0.74347 -0.22438,-0.34896 -0.6141,-0.54745 -0.96671,-0.74347 z m 8.3302,2.7404 c -3.2453,0.59638 2.2553,4.3319 1.2323,1.1155 -0.2464,-0.49896 -0.62083,-1.0566 -1.2323,-1.1155 z m -25.805,0.47336 c -2.9216,0.59667 1.5937,2.7069 0.20432,0.21837 -0.06811,-0.07279 -0.13621,-0.14558 -0.20432,-0.21837 z m 12.667,0.23254 c -3.1253,-0.98166 -0.66569,5.2266 0.49806,2.1112 0.15922,-0.67289 0.46995,-1.9078 -0.49806,-2.1112 z m 26.423,0.70176 c -2.0302,2.7574 4.2876,1.5933 1.0608,0.12061 -0.35148,-0.06119 -0.70521,-0.09501 -1.0608,-0.12061 z m -45.588,4.4431 c -3.0812,-0.15502 -0.74547,5.8572 0.85027,2.8446 0.43538,-0.89206 0.75177,-3.0526 -0.85027,-2.8446 z m 52.837,1.1689 c -3.0413,1.175 2.0502,3.7048 1.9693,1.0342 -0.52504,-0.54644 -1.2492,-0.84456 -1.9693,-1.0342 z m -12.15,0.46767 c -3.3831,1.0913 3.0478,3.9377 1.4002,0.98322 -0.30442,-0.50935 -0.8549,-0.79948 -1.4002,-0.98322 z m 12.344,0.85524 c 0.21159,0.06521 0.1573,0.04848 0,0 z m -43.374,0.07596 c -2.5902,0.0065 -1.1492,5.1546 0.79249,3.5193 0.67779,-1.0749 0.52771,-3.003 -0.79249,-3.5193 z m 15.954,0.3545 c -3.2961,0.86762 1.8664,5.04 1.597,1.7089 -0.13886,-0.80776 -0.66861,-1.7153 -1.597,-1.7089 z"
         style="color:#000000;fill:#f6cb1f;fill-rule:evenodd;stroke-width:0.26458;stroke-linecap:round;stroke-linejoin:round;-inkscape-stroke:none" />
    </g>
  </g>
</svg>
