<?xml version="1.0" encoding="UTF-8" standalone="no"?>
<svg
   xmlns:vectornator="http://vectornator.io"
   xmlns:dc="http://purl.org/dc/elements/1.1/"
   xmlns:cc="http://creativecommons.org/ns#"
   xmlns:rdf="http://www.w3.org/1999/02/22-rdf-syntax-ns#"
   xmlns:svg="http://www.w3.org/2000/svg"
   xmlns="http://www.w3.org/2000/svg"
   xmlns:sodipodi="http://sodipodi.sourceforge.net/DTD/sodipodi-0.dtd"
   xmlns:inkscape="http://www.inkscape.org/namespaces/inkscape"
   width="80.91687mm"
   height="22.110336mm"
   viewBox="0 0 80.91687 22.110337"
   version="1.1"
   id="svg1069"
   inkscape:version="1.0.2 (e86c8708, 2021-01-15)"
   sodipodi:docname="G3_Hamburger Recipes_3.svg">
  <defs
     id="defs1063" />
  <sodipodi:namedview
     id="base"
     pagecolor="#ffffff"
     bordercolor="#666666"
     borderopacity="1.0"
     inkscape:pageopacity="0.0"
     inkscape:pageshadow="2"
     inkscape:zoom="0.90164567"
     inkscape:cx="198.98789"
     inkscape:cy="107.92529"
     inkscape:document-units="mm"
     inkscape:current-layer="layer1"
     inkscape:document-rotation="0"
     showgrid="false"
     inkscape:window-width="712"
     inkscape:window-height="1027"
     inkscape:window-x="0"
     inkscape:window-y="25"
     inkscape:window-maximized="0" />
  <metadata
     id="metadata1066">
    <rdf:RDF>
      <cc:Work
         rdf:about="">
        <dc:format>image/svg+xml</dc:format>
        <dc:type
           rdf:resource="http://purl.org/dc/dcmitype/StillImage" />
        <dc:title></dc:title>
      </cc:Work>
    </rdf:RDF>
  </metadata>
  <g
     inkscape:label="레이어 1"
     inkscape:groupmode="layer"
     id="layer1"
     transform="translate(-37.012101,-75.215239)">
    <g
       id="레이어-4"
       vectornator:layerName="레이어 4"
       style="clip-rule:evenodd;fill-rule:nonzero;stroke-linecap:round;stroke-linejoin:round"
       transform="matrix(0.26458333,0,0,0.26458333,17.592394,-26.420214)">
      <g
         opacity="1"
         id="g943">
        <path
           d="m 210.683,392.134 c -6.368,0.078 -29.708,-5.5 -36.5,-5.5 -28.676,0 -52.474,34.095 -82.0004,40 -7.7214,1.545 -18.098,11.608 -16,20 5.7268,22.907 48.6134,14.565 64.0004,12 21.844,-3.64 39.082,1.817 60,6 13.245,2.649 21.987,-4.597 34,-7 5.753,-1.15 15.065,-2.483 21,-1 4.795,1.199 10.756,5.049 16,4 13.79,-2.758 26.49,-9.622 40,-13 11.739,-2.935 61.467,4.13 65,-10 3.81,-15.242 -12.835,-27.458 -27,-31 -8.918,-2.229 -24.286,-0.743 -33,1 -14.275,2.855 -32.183,-0.697 -46,-3 -18.118,-3.019 -39.587,-12.744 -59.5,-12.5 z"
           fill="#f14b09"
           fill-rule="evenodd"
           opacity="1"
           stroke="#010101"
           stroke-linecap="round"
           stroke-linejoin="round"
           stroke-width="5"
           id="path923" />
        <path
           d="m 123.183,428.634 c -1.341,14.096 14.97,6.117 17,-2 2.891,-11.564 -16.436,-3.935 -17,2 z"
           fill="#f1d509"
           fill-rule="evenodd"
           opacity="1"
           stroke="#010101"
           stroke-linecap="round"
           stroke-linejoin="round"
           stroke-width="5"
           id="path925" />
        <path
           d="m 172.183,401.134 c -3.701,10.923 -1.268,11.817 8,9.5 1.736,-0.434 4.69,0.965 6,-1 6.633,-9.95 -10.669,-18.33 -14,-8.5 z"
           fill="#f1d509"
           fill-rule="evenodd"
           opacity="1"
           stroke="#010101"
           stroke-linecap="round"
           stroke-linejoin="round"
           stroke-width="5"
           id="path927" />
        <path
           d="m 238.683,423.634 c -18.925,13.159 10.506,11.491 11.5,10 6.235,-9.352 -5.596,-14.105 -11.5,-10 z"
           fill="#f1d509"
           fill-rule="evenodd"
           opacity="1"
           stroke="#010101"
           stroke-linecap="round"
           stroke-linejoin="round"
           stroke-width="5"
           id="path929" />
        <path
           d="m 296.183,416.634 c -1.224,0.691 -0.992,9.009 0,10 2.098,2.099 14.304,0.696 16,-1 0.942,-0.943 0,-2.666 0,-4 0,-9.619 -10.411,-8.153 -16,-5 z"
           fill="#f1d509"
           fill-rule="evenodd"
           opacity="1"
           stroke="#010101"
           stroke-linecap="round"
           stroke-linejoin="round"
           stroke-width="5"
           id="path931" />
        <path
           d="m 165.683,428.634 c -1.193,20.678 13.444,2.416 10.5,-2 -2.232,-3.347 -10.273,-1.933 -10.5,2 z"
           fill="#128e1e"
           fill-rule="evenodd"
           opacity="1"
           stroke="#010101"
           stroke-linecap="round"
           stroke-linejoin="round"
           stroke-width="5"
           id="path933" />
        <path
           d="m 210.683,409.634 c -1.149,1.001 -1.873,9.051 0.5,10 12.605,5.042 16.93,-25.185 -0.5,-10 z"
           fill="#128e1e"
           fill-rule="evenodd"
           opacity="1"
           stroke="#010101"
           stroke-linecap="round"
           stroke-linejoin="round"
           stroke-width="5"
           id="path935" />
        <path
           d="m 268.683,411.134 c -7.372,3.108 0.628,10.748 5.5,7.5 6.183,-4.122 -3.371,-8.397 -5.5,-7.5 z"
           fill="#128e1e"
           fill-rule="evenodd"
           opacity="1"
           stroke="#010101"
           stroke-linecap="round"
           stroke-linejoin="round"
           stroke-width="5"
           id="path937" />
        <path
           d="m 331.683,421.634 c 1.824,1.727 0.356,6.857 1.5,8 0.427,0.427 15.129,0.871 16,0 0.529,-0.529 0,-5.176 0,-6 0,-14.458 -21.204,-5.505 -17.5,-2 z"
           fill="#128e1e"
           fill-rule="evenodd"
           opacity="1"
           stroke="#010101"
           stroke-linecap="round"
           stroke-linejoin="round"
           stroke-width="5"
           id="path939" />
        <path
           d="m 215.683,442.634 c -1.525,2.223 -3.872,1 -6.5,1 -13.375,0 -14.253,-18.551 5,-7 2.958,1.775 3.505,3.076 1.5,6 z"
           fill="#128e1e"
           fill-rule="evenodd"
           opacity="1"
           stroke="#010101"
           stroke-linecap="round"
           stroke-linejoin="round"
           stroke-width="5"
           id="path941" />
      </g>
    </g>
  </g>
</svg>
