<?xml version="1.0" encoding="UTF-8" standalone="no"?>
<svg
   sodipodi:docname="2022-PH-03-taskbody.svg"
   inkscape:version="1.1.1 (3bf5ae0d25, 2021-09-20)"
   id="svg2825"
   version="1.1"
   viewBox="0 0 399.67194 144.08844"
   height="144.08844mm"
   width="399.67194mm"
   xmlns:inkscape="http://www.inkscape.org/namespaces/inkscape"
   xmlns:sodipodi="http://sodipodi.sourceforge.net/DTD/sodipodi-0.dtd"
   xmlns="http://www.w3.org/2000/svg"
   xmlns:svg="http://www.w3.org/2000/svg"
   xmlns:rdf="http://www.w3.org/1999/02/22-rdf-syntax-ns#"
   xmlns:cc="http://creativecommons.org/ns#"
   xmlns:dc="http://purl.org/dc/elements/1.1/">
  <defs
     id="defs2819" />
  <sodipodi:namedview
     showgrid="false"
     inkscape:document-rotation="0"
     inkscape:current-layer="layer1"
     inkscape:document-units="mm"
     inkscape:cy="418.21429"
     inkscape:cx="196.78571"
     inkscape:zoom="1.4"
     inkscape:pageshadow="2"
     inkscape:pageopacity="0.0"
     borderopacity="1.0"
     bordercolor="#666666"
     pagecolor="#ffffff"
     id="base"
     inkscape:pagecheckerboard="0"
     inkscape:window-width="1680"
     inkscape:window-height="1027"
     inkscape:window-x="2040"
     inkscape:window-y="22"
     inkscape:window-maximized="1" />
  <metadata
     id="metadata2822">
    <rdf:RDF>
      <cc:Work
         rdf:about="">
        <dc:format>image/svg+xml</dc:format>
        <dc:type
           rdf:resource="http://purl.org/dc/dcmitype/StillImage" />
      </cc:Work>
    </rdf:RDF>
  </metadata>
  <g
     transform="translate(47.475697,75.950894)"
     id="layer1"
     inkscape:groupmode="layer"
     inkscape:label="Ebene 1">
    <g
       style="clip-rule:evenodd;fill-rule:evenodd;stroke-linecap:round;stroke-linejoin:round;stroke-miterlimit:1.5"
       transform="matrix(0.26458333,0,0,0.26458333,-91.093186,-156.11342)"
       id="g549">
      <g
         transform="translate(165.606,-192.455)"
         id="g4">
        <path
           d="m 86.042,864.158 c 5.049,0.288 39.065,0.604 92.212,0.927 21.221,0.129 45.493,0.259 72.188,0.389"
           style="fill:none;stroke:#a96319;stroke-width:10.98px"
           id="path2" />
      </g>
      <path
         d="m 375.314,696.374 40.734,-23.355 -40.117,-27.102"
         style="fill:none;stroke:#a96319;stroke-width:10.98px"
         id="path6" />
      <g
         transform="translate(212.907,1.87367)"
         id="g10">
        <path
           d="m 375.314,696.374 40.734,-23.355 -40.117,-27.102"
           style="fill:none;stroke:#a96319;stroke-width:10.98px"
           id="path8" />
      </g>
      <g
         transform="translate(425.815,3.74734)"
         id="g14">
        <path
           d="m 375.314,696.374 40.734,-23.355 -40.117,-27.102"
           style="fill:none;stroke:#a96319;stroke-width:10.98px"
           id="path12" />
      </g>
      <g
         transform="translate(665.011,4.06939)"
         id="g18">
        <path
           d="m 375.314,696.374 42.824,-25.726 c -1.647,-2.64 -13.577,-7.378 -42.207,-24.731"
           style="fill:none;stroke:#a96319;stroke-width:10.98px"
           id="path16" />
      </g>
      <g
         transform="translate(893.191,3.74734)"
         id="g22">
        <path
           d="m 375.314,696.374 40.734,-23.355 -40.117,-27.102"
           style="fill:none;stroke:#a96319;stroke-width:10.98px"
           id="path20" />
      </g>
      <g
         transform="matrix(0.876679,-0.43547,0.462825,0.931749,868.43,196.018)"
         id="g26">
        <path
           d="m 375.314,696.374 40.734,-23.355 -40.117,-27.102"
           style="fill:none;stroke:#a96319;stroke-width:10.87px"
           id="path24" />
      </g>
      <g
         transform="matrix(-0.768547,-0.606247,0.64433,-0.816824,1495.63,1238.61)"
         id="g30">
        <path
           d="m 375.314,696.374 40.734,-23.355 -40.117,-27.102"
           style="fill:none;stroke:#a96319;stroke-width:10.87px"
           id="path28" />
      </g>
      <g
         transform="matrix(-1.00888,0.0955332,-0.0980756,-1.03573,1840.87,1028.1)"
         id="g34">
        <path
           d="m 375.314,696.374 40.734,-23.355 -40.117,-27.102"
           style="fill:none;stroke:#a96319;stroke-width:10.69px"
           id="path32" />
      </g>
      <g
         transform="matrix(-0.816686,0.594068,-0.651614,-0.833553,1914.66,737.153)"
         id="g38">
        <path
           d="m 375.314,696.374 40.734,-23.355 -40.117,-27.102"
           style="fill:none;stroke:#a96319;stroke-width:10.43px"
           id="path36" />
      </g>
      <g
         transform="matrix(0.76599,0.834971,-0.805837,0.788384,1318.06,-239.085)"
         id="g42">
        <path
           d="m 383.63,695.233 32.418,-22.214 -30.377,-21.038"
           style="fill:none;stroke:#a96319;stroke-width:9.56px"
           id="path40" />
      </g>
      <g
         transform="translate(165.606,-192.455)"
         id="g46">
        <path
           d="m 390.919,866.077 c 23.948,0.092 48.67,0.184 73.919,0.273"
           style="fill:none;stroke:#a96319;stroke-width:10.98px"
           id="path44" />
      </g>
      <g
         transform="translate(165.606,-192.455)"
         id="g50">
        <path
           d="m 602.991,866.809 c 24.9,0.078 49.883,0.153 74.742,0.226"
           style="fill:none;stroke:#a96319;stroke-width:10.98px"
           id="path48" />
      </g>
      <g
         transform="matrix(1.2949,0,0,-1.24147,-75.7655,1751.84)"
         id="g54">
        <path
           d="m 818.476,867.421 c 25.023,0.064 49.46,0.124 73.067,0.18"
           style="fill:none;stroke:#a96319;stroke-width:8.65px"
           id="path52" />
      </g>
      <g
         transform="translate(165.606,-192.455)"
         id="g58">
        <path
           d="m 1030.99,867.896 c 51.42,0.093 92.68,0.145 118.78,0.145"
           style="fill:none;stroke:#a96319;stroke-width:10.98px"
           id="path56" />
      </g>
      <g
         transform="translate(165.606,-192.455)"
         id="g62">
        <path
           d="m 1284.88,860.394 c 32.39,-4.808 64.33,-12.608 93.03,-25.242"
           style="fill:none;stroke:#a96319;stroke-width:10.98px"
           id="path60" />
      </g>
      <g
         transform="translate(165.606,-192.455)"
         id="g66">
        <path
           d="m 1476.72,736.815 c 16.34,-44.631 1.61,-80.998 -31.91,-108.815"
           style="fill:none;stroke:#a96319;stroke-width:10.98px"
           id="path64" />
      </g>
      <g
         transform="translate(165.606,-192.455)"
         id="g70">
        <path
           d="m 1315.3,573.39 c -40.15,-8.339 -83.98,-12.395 -127.33,-12.071"
           style="fill:none;stroke:#a96319;stroke-width:10.98px"
           id="path68" />
      </g>
      <g
         transform="translate(165.606,-192.455)"
         id="g74">
        <path
           d="m 1187.97,561.319 c -24.45,0.183 -116.83,11.897 -137.2,17.492"
           style="fill:none;stroke:#a96319;stroke-width:10.98px"
           id="path72" />
      </g>
      <g
         transform="translate(165.606,-192.455)"
         id="g78">
        <path
           d="m 1050.77,578.811 c -33.02,9.067 -61.98,21.684 -83.97,37.919"
           style="fill:none;stroke:#a96319;stroke-width:10.98px"
           id="path76" />
      </g>
      <g
         transform="matrix(2.09791,0,0,1.07427,-818.206,-247.978)"
         id="g82">
        <path
           d="m 897.044,736.879 c -5.778,34.984 1.206,64.975 14.279,87.559"
           style="fill:none;stroke:#a96319;stroke-width:6.59px"
           id="path80" />
      </g>
      <g
         transform="matrix(1.61161,0,0,1.66244,1006.92,-763.241)"
         id="g86">
        <ellipse
           cx="92.436996"
           cy="865.76501"
           rx="43.435001"
           ry="42.106998"
           style="fill:#f2e1bf;stroke:#6b3f22;stroke-width:4.47px"
           id="ellipse84" />
      </g>
      <g
         transform="matrix(1.61161,0,0,1.66244,764.586,-765.923)"
         id="g90">
        <ellipse
           cx="92.436996"
           cy="865.76501"
           rx="43.435001"
           ry="42.106998"
           style="fill:#f2e1bf;stroke:#6b3f22;stroke-width:4.47px"
           id="ellipse88" />
      </g>
      <g
         transform="matrix(1.61161,0,0,1.66244,550.586,-765.923)"
         id="g94">
        <ellipse
           cx="92.436996"
           cy="865.76501"
           rx="43.435001"
           ry="42.106998"
           style="fill:#f2e1bf;stroke:#6b3f22;stroke-width:4.47px"
           id="ellipse92" />
      </g>
      <g
         transform="matrix(1.61161,0,0,1.66244,336.586,-765.923)"
         id="g98">
        <ellipse
           cx="92.436996"
           cy="865.76501"
           rx="43.435001"
           ry="42.106998"
           style="fill:#f2e1bf;stroke:#6b3f22;stroke-width:4.47px"
           id="ellipse96" />
      </g>
      <g
         transform="matrix(1.61161,0,0,1.66244,122.585,-765.923)"
         id="g102">
        <ellipse
           cx="92.436996"
           cy="865.76501"
           rx="43.435001"
           ry="42.106998"
           style="fill:#f2e1bf;stroke:#6b3f22;stroke-width:4.47px"
           id="ellipse100" />
      </g>
      <g
         transform="matrix(1.61161,0,0,1.66244,1230.99,-769.51)"
         id="g106">
        <ellipse
           cx="92.436996"
           cy="865.76501"
           rx="43.435001"
           ry="42.106998"
           style="fill:#f2e1bf;stroke:#6b3f22;stroke-width:4.47px"
           id="ellipse104" />
      </g>
      <g
         transform="matrix(1.61161,0,0,1.66244,1452.85,-837.869)"
         id="g110">
        <ellipse
           cx="92.436996"
           cy="865.76501"
           rx="43.435001"
           ry="42.106998"
           style="fill:#f2e1bf;stroke:#6b3f22;stroke-width:4.47px"
           id="ellipse108" />
      </g>
      <g
         transform="matrix(1.61161,0,0,1.66244,1394.71,-1027.99)"
         id="g114">
        <ellipse
           cx="92.436996"
           cy="865.76501"
           rx="43.435001"
           ry="42.106998"
           style="fill:#f2e1bf;stroke:#6b3f22;stroke-width:4.47px"
           id="ellipse112" />
      </g>
      <g
         transform="matrix(1.61161,0,0,1.66244,1135.43,-1062.59)"
         id="g118">
        <ellipse
           cx="92.436996"
           cy="865.76501"
           rx="43.435001"
           ry="42.106998"
           style="fill:#f2e1bf;stroke:#6b3f22;stroke-width:4.47px"
           id="ellipse116" />
      </g>
      <g
         transform="matrix(1.61161,0,0,1.66244,945.477,-959.301)"
         id="g122">
        <ellipse
           cx="92.436996"
           cy="865.76501"
           rx="43.435001"
           ry="42.106998"
           style="fill:#f2e1bf;stroke:#6b3f22;stroke-width:4.47px"
           id="ellipse120" />
      </g>
      <g
         transform="matrix(1.73458,0,0,-1.73458,347.667,719.853)"
         id="g199">
        <g
           id="path4481"
           transform="matrix(0.116045,-1.37912,-1.37293,-0.115524,10.2525,35.0803)">
          <path
             d="m 65.418,49.828 c 0,15.734 -9,28.488 -20.102,28.488 -11.101,0 -20.101,-12.754 -20.101,-28.488 0,-15.73 9,-28.484 20.101,-28.484 11.102,0 20.102,12.754 20.102,28.484 z"
             style="fill:#338000"
             id="path124" />
        </g>
        <g
           id="path4457"
           transform="matrix(0.116045,-1.37912,-1.37293,-0.115524,11.3536,34.5156)">
          <path
             d="m 51.355,24.422 c 0,0 6.403,-6.113 5.543,-11.543 C 56.043,7.453 52.07,5.453 45.789,5.453 c -6.285,0 -10.258,2 -11.113,7.426 -0.86,5.43 5.543,11.543 5.543,11.543"
             style="fill:#338000"
             id="path127" />
        </g>
        <g
           id="path4461"
           transform="matrix(0.116045,-1.37912,-1.37293,-0.115524,9.77365,34.5109)">
          <path
             d="m 58.953,71.02 c 0,0 9,10.714 12.426,7.285 3.43,-3.426 -9.426,-12.285 -9.426,-12.285"
             style="fill:#338000;fill-rule:nonzero"
             id="path130" />
        </g>
        <g
           id="path4465"
           transform="matrix(0.116045,-1.37912,-1.37293,-0.115524,9.77365,34.5109)">
          <path
             d="m 31.625,71.449 c 0,0 -9,10.715 -12.426,7.285 -3.429,-3.429 9.426,-12.285 9.426,-12.285"
             style="fill:#338000;fill-rule:nonzero"
             id="path133" />
        </g>
        <g
           id="path4469"
           transform="matrix(0.116045,-1.37912,-1.37293,-0.115524,9.77365,34.5109)">
          <path
             d="m 59.934,29.824 c 0,0 9,-10.715 12.425,-7.285 3.43,3.426 -9.425,12.285 -9.425,12.285"
             style="fill:#338000;fill-rule:nonzero"
             id="path136" />
        </g>
        <g
           id="path4473"
           transform="matrix(0.116045,-1.37912,-1.37293,-0.115524,9.77365,34.5109)">
          <path
             d="m 30.77,29.195 c 0,0 -9,-10.715 -12.43,-7.285 -3.426,3.43 9.43,12.285 9.43,12.285"
             style="fill:#338000;fill-rule:nonzero"
             id="path139" />
        </g>
        <g
           id="path4477"
           transform="matrix(0.116045,-1.37912,-1.37293,-0.115524,9.77365,34.5109)">
          <path
             d="m 41.359,77.965 c 0,0 1.575,9.715 3.575,9.715 2,0 3.425,-9.715 3.425,-9.715"
             style="fill:#338000"
             id="path142" />
        </g>
        <g
           transform="matrix(0.120696,-1.43439,-1.39809,-0.117641,11.0333,37.2147)"
           id="g147">
          <path
             d="m 45.316,19.615 c -2.485,-0.789 -4.179,-0.143 -5.794,1.072 -3.168,-0.186 -3.448,1.502 -4.831,2.724 -2.319,-0.303 -2.383,1.385 -2.93,2.7 -2.407,0.429 -1.889,1.56 -2.072,2.578 -2.034,1.242 -3.403,2.821 -2.9,5.106 -1.181,1.601 -2.268,3.291 -1.759,4.806 -1.733,1.856 -1.12,3.122 -1.023,4.607 -1.54,2.731 -0.692,4.433 -0.521,6.62 -2.438,3.158 0.122,3.84 0.381,5.675 -1.482,3.648 0.522,4.639 1.443,6.481 -0.777,3.185 1.015,3.836 2.106,5.19 0.375,2.865 1.387,2.888 2.273,3.795 0.148,2.527 1.437,3.271 3.015,3.553 0.456,2.494 1.961,2.268 3.256,2.628 1.232,2.335 2.776,2.451 4.413,2.12 1.482,1.213 3.087,1.83 4.943,0.775 1.966,1.187 3.68,0.525 5.253,-0.877 2.082,0.832 2.901,-0.408 3.682,-1.75 2.387,0.211 3.027,-0.976 3.279,-2.516 2.496,-1.156 2.483,-2.477 3.413,-3.933 1.572,-1.134 3.186,-2.336 2.586,-4.429 1.136,-1.266 2.364,-2.526 1.835,-4.688 1.605,-1.599 1.902,-3.803 1.403,-6.358 0.76,-1.785 2.241,-3.544 0.379,-5.666 1.222,-2.045 0.667,-3.858 -0.366,-5.572 0.835,-2.253 -0.452,-3.243 -0.922,-4.721 0.207,-2.572 -0.678,-4.72 -2.365,-6.492 0.252,-2.415 -0.834,-3.673 -2.55,-4.354 -0.064,-2.334 -1.786,-3.73 -4.177,-4.612 -1.001,-2.307 -3.038,-3.268 -5.599,-3.369 -1.304,-2.338 -3.721,-0.416 -5.851,-1.093 z"
             style="fill:#b3ff80"
             id="path145" />
        </g>
        <g
           transform="matrix(0.116045,-1.37912,-1.37293,-0.115524,10.3267,34.6078)"
           id="g151">
          <path
             d="m 45.316,19.615 c -2.485,-0.789 -4.179,-0.143 -5.794,1.072 -3.168,-0.186 -3.448,1.502 -4.831,2.724 -2.319,-0.303 -2.383,1.385 -2.93,2.7 -2.407,0.429 -1.889,1.56 -2.072,2.578 -2.034,1.242 -3.403,2.821 -2.9,5.106 -1.181,1.601 -2.268,3.291 -1.759,4.806 -1.733,1.856 -1.12,3.122 -1.023,4.607 -0.406,0.72 -0.646,1.369 -0.777,1.974 -0.363,1.689 0.13,3.036 0.256,4.646 -2.438,3.158 0.122,3.84 0.381,5.675 -1.482,3.648 0.522,4.639 1.443,6.481 -0.777,3.185 1.015,3.836 2.106,5.19 0.375,2.865 1.387,2.888 2.273,3.795 0.148,2.527 1.437,3.271 3.015,3.553 0.456,2.494 1.961,2.268 3.256,2.628 1.232,2.335 2.776,2.451 4.413,2.12 1.482,1.213 3.087,1.83 4.943,0.775 1.966,1.187 3.68,0.525 5.253,-0.877 2.082,0.832 2.901,-0.408 3.682,-1.75 2.387,0.211 3.027,-0.976 3.279,-2.516 2.496,-1.156 2.483,-2.477 3.413,-3.933 1.572,-1.134 3.186,-2.336 2.586,-4.429 1.136,-1.266 2.364,-2.526 1.835,-4.688 1.605,-1.599 1.902,-3.803 1.403,-6.358 0.76,-1.785 2.241,-3.544 0.379,-5.666 1.222,-2.045 0.667,-3.858 -0.366,-5.572 0.835,-2.253 -0.452,-3.243 -0.922,-4.721 0.207,-2.572 -0.678,-4.72 -2.365,-6.492 0.252,-2.415 -0.834,-3.673 -2.55,-4.354 -0.064,-2.334 -1.786,-3.73 -4.177,-4.612 -1.001,-2.307 -3.038,-3.268 -5.599,-3.369 -1.304,-2.338 -3.721,-0.416 -5.851,-1.093 z"
             style="fill:#00a900"
             id="path149" />
        </g>
        <g
           id="path4938"
           transform="matrix(0.116045,-1.37912,1.37293,0.115524,-114.763,24.0319)">
          <path
             d="m 26.393,40.958 h 5.673 L 38.339,28.38 32.996,21.021 c -0.347,0.418 -0.691,0.838 -1.016,1.291 -3.401,4.732 -5.555,11.314 -5.587,18.646 z"
             style="fill:#338000;fill-rule:nonzero"
             id="path153" />
        </g>
        <g
           id="path4936"
           transform="matrix(0.116045,-1.37912,1.37293,0.115524,-114.763,24.0319)">
          <path
             d="m 26.011,41.913 c 0.146,7.05 2.141,13.145 5.316,17.495 0.533,0.73 1.113,1.391 1.708,2.02 l 4.884,-6.78 -6.349,-12.735 z"
             style="fill:#70c737;fill-rule:nonzero"
             id="path156" />
        </g>
        <g
           id="path4932"
           transform="matrix(0.116045,-1.37912,1.37293,0.115524,-114.763,24.0319)">
          <path
             d="m 33.846,20.723 5.517,7.586 h 12.551 c 1.451,-2.222 2.743,-4.578 4.079,-6.894 0.203,-0.357 0.408,-0.713 0.611,-1.07 -3.242,-3.293 -7.176,-5.23 -11.298,-5.23 -4.266,0 -8.256,2.08 -11.46,5.608 z"
             style="fill:#8dd25f;fill-rule:nonzero"
             id="path159" />
        </g>
        <g
           id="path4930"
           transform="matrix(0.116045,-1.37912,1.37293,0.115524,-114.763,24.0319)">
          <path
             d="m 34.125,62.339 c 2.961,2.832 6.556,4.447 10.482,4.447 4.382,0 8.666,-2.037 12.113,-5.544 -1.614,-1.943 -3.227,-3.886 -4.841,-5.83 H 39.112 Z"
             style="fill:#5a9f2b;fill-rule:nonzero"
             id="path162" />
        </g>
        <g
           id="path4928"
           transform="matrix(0.116045,-1.37912,1.37293,0.115524,-114.763,24.0319)">
          <path
             d="m 52.686,28.984 6.316,12.68 c 1.828,-0.038 3.656,-0.074 5.484,-0.113 -0.009,-7.375 -2.287,-13.97 -5.825,-18.705 -0.437,-0.586 -0.898,-1.143 -1.372,-1.67 -1.353,2.386 -2.702,4.775 -4.139,7.094 -0.152,0.241 -0.306,0.479 -0.464,0.714 z"
             style="fill:#b2ff7f;fill-rule:nonzero"
             id="path165" />
        </g>
        <g
           id="path4485-9-3"
           transform="matrix(0.116045,-1.37912,1.37293,0.115524,-114.763,24.0319)">
          <path
             d="m 52.369,54.917 4.815,5.792 c 3.969,-4.402 6.673,-10.833 6.883,-18.371 -1.83,0.04 -3.659,0.08 -5.489,0.119 z"
             style="fill:#8dd25f;fill-rule:nonzero"
             id="path168" />
        </g>
        <g
           id="path4485-9"
           transform="matrix(0.100135,-1.19004,-1.37293,-0.115524,-5.63166,-49.9803)">
          <path
             d="m -31.194,11.379 c -0.261,0.182 -0.574,0.312 -0.802,0.528 0.232,0.385 0.581,0.709 0.856,1.072 1.898,2.277 3.796,4.554 5.694,6.832 -2.452,4.245 -4.904,8.49 -7.356,12.735 h -7.649 c -0.18,0.147 -0.035,0.476 -0.082,0.695 -0.105,0.352 0.267,0.286 0.491,0.281 h 7.348 c 2.422,4.194 4.845,8.387 7.267,12.581 -2.465,2.931 -4.931,5.862 -7.397,8.793 -0.014,0.232 0.36,0.276 0.504,0.426 0.185,0.17 0.425,0.261 0.543,-0.03 2.434,-2.89 4.868,-5.78 7.303,-8.67 h 14.549 c 1.682,2.222 3.175,4.578 4.724,6.894 0.64,0.97 1.279,1.941 1.919,2.912 0.217,0.073 0.438,-0.184 0.655,-0.241 0.301,-0.057 0.385,-0.282 0.145,-0.489 -1.982,-2.984 -3.906,-6.008 -5.996,-8.918 -0.176,-0.241 -0.355,-0.479 -0.538,-0.714 2.439,-4.227 4.879,-8.453 7.319,-12.68 2.504,0.045 5.009,0.091 7.514,0.136 C 6,33.379 5.862,33.047 5.914,32.829 6.028,32.478 5.654,32.537 5.43,32.538 3.037,32.493 0.645,32.448 -1.747,32.404 -4.146,28.251 -6.544,24.099 -8.943,19.947 c 2.315,-2.406 4.631,-4.812 6.946,-7.217 0.029,-0.23 -0.342,-0.298 -0.476,-0.458 -0.186,-0.212 -0.423,-0.249 -0.566,0.029 -2.232,2.319 -4.464,4.639 -6.696,6.958 h -14.796 c -2.186,-2.621 -4.372,-5.242 -6.557,-7.863 -0.038,-0.012 -0.064,-0.051 -0.106,-0.017 z m 21.103,9.192 c 2.379,4.123 4.759,8.246 7.139,12.37 -2.38,4.123 -4.76,8.246 -7.139,12.369 h -14.285 c -2.38,-4.123 -4.759,-8.246 -7.139,-12.369 2.38,-4.124 4.759,-8.247 7.139,-12.37 z"
             style="fill:#44aa00;fill-rule:nonzero;stroke:#44aa00;stroke-width:0.74px;stroke-linecap:butt;stroke-linejoin:miter;stroke-miterlimit:4"
             id="path171" />
        </g>
        <g
           id="path4517-6"
           transform="matrix(0.116045,-1.37912,1.37293,0.115524,-114.763,24.0319)">
          <path
             d="m 53.003,77.28 c 0.02,-1.765 -1.519,-3.765 -2.99,-3.765 -1.467,0 -3.374,1.914 -3.394,3.679 -0.019,1.761 1.968,3.749 3.435,3.749 1.471,0 2.926,-1.544 2.949,-3.663 z"
             style="fill:#44aa00;fill-rule:nonzero"
             id="path174" />
        </g>
        <g
           id="path4517"
           transform="matrix(0.158963,-1.88918,-4.18657,-0.352276,37.4171,61.8014)">
          <path
             d="m 51.457,11.48 c 0,0.547 -0.871,0.993 -1.945,0.993 -1.071,0 -1.942,-0.446 -1.942,-0.993 0,-0.546 0.871,-0.988 1.942,-0.988 1.074,0 1.945,0.442 1.945,0.988 z"
             style="fill:#ffffff;fill-rule:nonzero"
             id="path177" />
        </g>
        <g
           id="path4521"
           transform="matrix(0.116045,-1.37912,1.37293,0.115524,-114.763,24.0319)">
          <path
             d="m 51.21,78.802 c 0,-0.884 -0.616,-1.595 -1.38,-1.595 -0.757,0 -1.379,0.711 -1.379,1.595 0,0.899 0.622,1.61 1.379,1.61 0.764,0 1.38,-0.711 1.38,-1.61 z"
             style="fill:#112b00;fill-rule:nonzero"
             id="path180" />
        </g>
        <g
           id="path4525"
           transform="matrix(0.116045,-1.37912,-1.37293,-0.115524,10.2654,34.3106)">
          <path
             d="m 45.57,6.455 c -4.176,0 -6.572,2.305 -6.572,2.305 2.048,0.027 3.352,-1.494 6.572,-1.504 3.93,0.224 4.987,1.106 6.36,1.293 0,0 -0.568,-0.545 -1.631,-1.063 C 49.236,6.968 47.652,6.455 45.57,6.455 Z"
             style="fill:#c4e6ad;fill-rule:nonzero"
             id="path183" />
        </g>
        <g
           id="path4517-6-6"
           transform="matrix(0.116045,-1.37912,1.37293,0.115524,-114.763,24.0319)">
          <path
             d="m 45.343,77.215 c 0.022,1.906 -1.677,4.066 -3.301,4.066 -1.62,0 -3.727,-2.067 -3.748,-3.973 -0.022,-1.903 2.173,-4.049 3.793,-4.049 1.624,0 3.231,1.667 3.256,3.956 z"
             style="fill:#44aa00;fill-rule:nonzero"
             id="path186" />
        </g>
        <g
           id="path4517-3"
           transform="matrix(0.170398,-2.02507,-4.47902,-0.376883,38.9748,79.5534)">
          <path
             d="m 51.457,11.48 c 0,0.547 -0.871,0.993 -1.945,0.993 -1.071,0 -1.942,-0.446 -1.942,-0.993 0,-0.546 0.871,-0.988 1.942,-0.988 1.074,0 1.945,0.442 1.945,0.988 z"
             style="fill:#ffffff;fill-rule:nonzero"
             id="path189" />
        </g>
        <g
           id="path4521-2"
           transform="matrix(0.116045,-1.37912,1.37293,0.115524,-114.763,24.0319)">
          <path
             d="m 43.543,78.76 c 0,-0.889 -0.68,-1.604 -1.523,-1.604 -0.836,0 -1.524,0.715 -1.524,1.604 0,0.905 0.688,1.62 1.524,1.62 0.843,0 1.523,-0.715 1.523,-1.62 z"
             style="fill:#112b00;fill-rule:nonzero"
             id="path192" />
        </g>
        <g
           transform="matrix(0.0460842,-0.547682,-0.549503,-0.0462375,555.903,836.767)"
           id="g197">
          <path
             d="m 1530.4,1263.4 c 15.57,-29.14 -2.64,-100.14 -46.68,-96.52 -26.8,2.2 -48.37,27.88 -48.37,66.13 0,21.13 6.93,39.88 17.66,52.38 l -0.6,0.81 1.63,1.19 0.33,-0.46 c 0.43,0.46 0.87,0.92 1.31,1.37 8.27,8.38 18.43,13.29 29.28,13.28 21.58,-0.02 34.71,-18.1 45.44,-38.18 z m -28.99,2.05 h -31.33 l -14.21,19.43 c 0.51,0.57 1.04,1.13 1.58,1.67 7.77,7.89 17.3,12.55 27.51,12.55 10.21,0 19.94,-4.63 27.95,-12.48 0.21,-0.2 0.42,-0.41 0.62,-0.62 z m 16.99,-32.88 -16.11,32.09 0.73,-0.43 11.95,20.26 h 0.01 c 0.64,-0.71 1.27,-1.43 1.88,-2.16 1.62,-1.96 3.12,-4.02 4.49,-6.15 1.91,-2.98 3.58,-6.11 5.03,-9.34 1.69,-3.79 3.05,-7.73 4.12,-11.74 1.49,-5.65 2.38,-11.46 2.68,-17.3 0.08,-1.62 0.12,-3.25 0.11,-4.87 v -0.05 z m -66.12,0.34 h -14.45 v 0.1 c 0,20.22 6.51,38.21 16.69,50.32 l 13.68,-18.7 z m 48.49,30.71 h -31.02 c 0,0 -15.61,-31.09 -15.61,-31.09 0,0 15.61,-31.1 15.61,-31.1 0,0 -8.55,-0.06 31.02,0 0,0 15.61,31.1 15.61,31.1 z m -32.24,-63.84 -12.88,-17.76 v 0 c -0.53,0.56 -1.05,1.12 -1.55,1.7 -2.9,3.31 -5.37,6.99 -7.44,10.88 -0.33,0.64 -0.66,1.29 -0.98,1.94 -0.4,0.82 -0.79,1.65 -1.16,2.48 -0.43,0.99 -0.84,1.99 -1.23,3 -0.48,1.23 -0.92,2.47 -1.33,3.72 -0.49,1.52 -0.94,3.06 -1.34,4.61 -0.48,1.84 -0.89,3.71 -1.24,5.58 -0.43,2.27 -0.76,4.55 -1.01,6.84 -0.19,1.82 -0.33,3.64 -0.42,5.47 -0.05,0.88 -0.07,1.76 -0.09,2.64 v 0.03 h 15 v 0.08 z m 33.85,0.79 15.25,30.36 v -0.38 l 15.63,0.32 v -0.02 c -0.04,-1.54 -0.13,-3.08 -0.26,-4.62 -0.24,-2.81 -0.62,-5.61 -1.16,-8.38 -1.28,-6.64 -14.72,-31.61 -16.13,-33.15 l -0.03,-0.03 z m -1.59,-0.97 -0.13,-0.1 c 5.11,-7.01 11.67,-18.07 13.63,-16.29 v 0 c -0.71,-0.71 -1.43,-1.41 -2.18,-2.09 -1.55,-1.4 -3.18,-2.71 -4.89,-3.92 -1.59,-1.11 -3.24,-2.13 -4.95,-3.05 -1.91,-1.01 -3.9,-1.89 -5.94,-2.6 -1.13,-0.4 -2.26,-0.74 -3.41,-1.03 -1.43,-0.36 -2.87,-0.64 -4.32,-0.83 -1.88,-0.25 -3.78,-0.36 -5.67,-0.32 -2.32,0.05 -4.64,0.32 -6.9,0.82 -1.47,0.32 -2.92,0.73 -4.33,1.23 -1.41,0.49 -2.78,1.08 -4.12,1.73 -2.21,1.09 -4.31,2.4 -6.28,3.87 -1.46,1.09 -2.86,2.28 -4.18,3.54 l -0.03,0.02 13.49,18.61 -0.56,0.41 z"
             style="fill:#225500"
             id="path195" />
        </g>
      </g>
      <g
         transform="translate(-71.806,-339.948)"
         id="g203">
        <g
           aria-label="s"
           id="text201"
           style="font-size:140.898px;font-family:ArialMT, Arial, sans-serif;fill:#0a6415">
          <path
             d="m 310.88727,1025.4311 12.24602,-1.9264 q 1.03197,7.3614 5.71022,11.2829 4.74705,3.9215 13.20919,3.9215 8.53093,0 12.6588,-3.4399 4.12787,-3.5087 4.12787,-8.187 0,-4.1966 -3.64628,-6.6046 -2.54552,-1.6511 -12.65881,-4.1966 -13.62197,-3.4399 -18.9194,-5.9167 -5.22864,-2.5455 -7.98055,-6.9485 -2.68312,-4.4719 -2.68312,-9.83813 0,-4.88465 2.20153,-9.01252 2.27033,-4.19667 6.12301,-6.94858 2.88951,-2.13274 7.84295,-3.57749 5.02225,-1.51355 10.73247,-1.51355 8.59973,0 15.06673,2.47672 6.53579,2.47672 9.6317,6.74219 3.0959,4.19667 4.26546,11.28285 l -12.10842,1.65114 q -0.82557,-5.64142 -4.81585,-8.80612 -3.92148,-3.1647 -11.14525,-3.1647 -8.53093,0 -12.17722,2.82071 -3.64629,2.82071 -3.64629,6.60459 0,2.40793 1.51356,4.33427 1.51355,1.99514 4.74705,3.30229 1.85754,0.68803 10.93886,3.16473 13.14039,3.5087 18.30022,5.779 5.22864,2.2015 8.18695,6.467 2.95831,4.2655 2.95831,10.5949 0,6.1918 -3.64629,11.6956 -3.57749,5.435 -10.38847,8.4621 -6.81099,2.9583 -15.41072,2.9583 -14.24116,0 -21.74012,-5.9166 -7.43017,-5.9166 -9.49411,-17.5434 z"
             style="font-size:140.898px;font-family:ArialMT, Arial, sans-serif;fill:#0a6415"
             id="path1143" />
        </g>
      </g>
      <g
         transform="translate(215.242,302.688)"
         id="g271">
        <g
           id="g2304"
           transform="matrix(1.34574,-0.06841,0.0689275,1.35592,-194.854,28.9352)">
          <g
             id="g2275">
            <path
               id="path2117"
               d="m 355,262.5 c 3.9,3.5 8.6,15.4 6.1,20.5 -1.4,2.8 -3.6,6 -6.8,6.6 -9.3,1.7 -30.6,3.4 -37.4,0.3 -4.2,-1.9 -9,-3 -12.7,-5.9 -4.9,-3.8 -4.6,-11.1 -3.6,-16.7 0.8,-4.6 3,-8.7 6.2,-12.2 3.8,-4.2 8.2,-10.9 13.4,-10.2 9.5,1.3 18.3,5.7 26.2,10.9 3,2 5.9,4.2 8.6,6.7 z"
               style="fill:#aa0000;fill-rule:nonzero" />
            <path
               id="path2133"
               d="m 319.2,244.9 c -4.7,0.2 -8.8,6.3 -12.4,10.2 -0.6,0.6 -1.1,1.3 -1.6,1.9 h 0.3 c 29.3,-13.1 47.5,21.6 53.2,29.7 1,-1.2 1.8,-2.5 2.4,-3.8 2.5,-5.1 -2.2,-17 -6.1,-20.5 -2.7,-2.4 -5.6,-4.7 -8.6,-6.7 -8,-5.1 -16.7,-9.6 -26.2,-10.9 -0.4,0.1 -0.7,0.1 -1,0.1 z"
               style="fill:#bf0000;fill-rule:nonzero" />
            <path
               id="path2165"
               d="m 300.4,268.8 c -0.7,5.4 -0.6,11.7 3.8,15.2 3.7,2.9 8.5,4 12.7,5.9 6.6,3 26.4,1.5 36.2,-0.1 0.1,-0.3 0.1,-0.6 0,-0.8 -0.8,-1.1 -4.3,-1.3 -5.5,-1.6 -25.1,4.1 -40.7,-5.4 -47.2,-18.6 z"
               style="fill:#8e0000;fill-rule:nonzero" />
            <path
               id="path1174"
               d="m 329.563,260.084 c -0.111,0.008 -0.215,0.051 -0.299,0.123 -0.115,0.098 -0.182,0.242 -0.182,0.393 0,0.124 0.045,0.244 0.125,0.338 0.533,0.621 0.601,1.006 0.504,1.402 -0.097,0.396 -0.449,0.867 -0.977,1.394 -0.2,0.201 -0.2,0.53 0,0.731 0.201,0.2 0.53,0.2 0.731,0 0.572,-0.572 1.072,-1.15 1.25,-1.879 0.178,-0.729 -0.055,-1.544 -0.723,-2.322 -0.106,-0.125 -0.266,-0.192 -0.429,-0.18 z"
               style="fill:#ff9b00;fill-rule:nonzero" />
            <path
               id="path1170"
               d="m 335.738,265.586 c -0.258,0.031 -0.455,0.253 -0.455,0.513 0,0.021 0.002,0.042 0.004,0.063 0.034,0.281 0.293,0.485 0.574,0.451 0.545,-0.065 0.793,0.042 0.868,0.106 0.074,0.064 0.102,0.134 0.062,0.347 -0.08,0.426 -0.627,1.131 -1.184,1.354 -0.262,0.106 -0.392,0.409 -0.287,0.672 0.105,0.263 0.409,0.394 0.672,0.289 0.943,-0.377 1.647,-1.224 1.817,-2.123 0.084,-0.45 -0.012,-0.985 -0.407,-1.324 -0.394,-0.34 -0.958,-0.433 -1.664,-0.348 z"
               style="fill:#ff9b00;fill-rule:nonzero" />
            <path
               id="path1166"
               d="m 345.91,265.783 c -0.152,-0.003 -0.297,0.06 -0.398,0.174 -0.083,0.094 -0.129,0.216 -0.129,0.342 0,0.149 0.064,0.29 0.176,0.389 0.782,0.69 1.055,1.298 1.013,1.753 -0.041,0.456 -0.392,0.942 -1.302,1.397 -0.254,0.126 -0.359,0.439 -0.233,0.693 0.127,0.253 0.44,0.357 0.694,0.231 1.089,-0.545 1.789,-1.307 1.873,-2.227 0.083,-0.919 -0.444,-1.813 -1.362,-2.623 -0.092,-0.081 -0.209,-0.126 -0.332,-0.129 z"
               style="fill:#ff9b00;fill-rule:nonzero" />
            <path
               id="path1162"
               d="m 341.316,276.283 c -0.069,-0.002 -0.138,0.01 -0.203,0.035 -0.198,0.077 -0.33,0.27 -0.33,0.483 0,0.064 0.012,0.127 0.035,0.187 0.331,0.851 0.334,1.289 0.225,1.494 -0.109,0.206 -0.459,0.425 -1.262,0.614 -0.233,0.055 -0.399,0.264 -0.399,0.503 0,0.041 0.005,0.081 0.014,0.12 0.066,0.275 0.346,0.449 0.622,0.385 0.897,-0.212 1.598,-0.492 1.939,-1.137 0.341,-0.645 0.193,-1.405 -0.176,-2.354 -0.074,-0.192 -0.258,-0.323 -0.465,-0.33 z"
               style="fill:#ff9b00;fill-rule:nonzero" />
            <path
               id="path1158"
               d="m 327.902,275.883 c -0.029,0 -0.059,0.003 -0.088,0.008 -0.278,0.047 -0.469,0.315 -0.423,0.594 0.087,0.524 0.049,1.116 -0.125,1.502 -0.175,0.385 -0.388,0.595 -0.965,0.595 0,0 0,0 -10e-4,0 -0.283,0 -0.517,0.234 -0.517,0.518 v 0 c 0,0.284 0.234,0.517 0.517,0.517 10e-4,0 10e-4,0 10e-4,0 0.922,0 1.607,-0.538 1.908,-1.203 0.3,-0.664 0.314,-1.424 0.201,-2.099 -0.041,-0.248 -0.257,-0.431 -0.508,-0.432 z"
               style="fill:#ff9b00;fill-rule:nonzero" />
            <path
               id="path1154"
               d="m 326.883,285.082 c -0.174,0.006 -0.333,0.098 -0.424,0.246 -0.304,0.494 -0.681,0.614 -1.27,0.67 -0.588,0.056 -1.322,-0.025 -2.068,0.09 -0.28,0.043 -0.475,0.31 -0.432,0.59 0.039,0.251 0.257,0.439 0.512,0.439 0.026,0 0.052,-0.002 0.078,-0.006 0.555,-0.085 1.27,-0.014 2.006,-0.084 0.736,-0.069 1.559,-0.35 2.055,-1.156 0.148,-0.241 0.073,-0.562 -0.168,-0.711 -0.087,-0.054 -0.187,-0.081 -0.289,-0.078 z"
               style="fill:#ff9b00;fill-rule:nonzero" />
            <path
               id="path1150"
               d="m 355.514,274.883 c -0.261,-0.007 -0.488,0.185 -0.526,0.443 -0.03,0.209 -0.095,0.286 -0.246,0.379 -0.15,0.093 -0.405,0.165 -0.701,0.191 -0.592,0.054 -1.301,-0.056 -1.668,-0.109 -0.024,-0.003 -0.049,-0.005 -0.074,-0.005 -0.256,0 -0.476,0.191 -0.512,0.445 -0.003,0.024 -0.005,0.049 -0.005,0.073 0,0.257 0.191,0.477 0.445,0.513 0.332,0.047 1.125,0.186 1.908,0.115 0.391,-0.036 0.793,-0.12 1.152,-0.342 0.359,-0.222 0.655,-0.623 0.725,-1.113 0.039,-0.281 -0.159,-0.544 -0.44,-0.584 -0.019,-0.003 -0.039,-0.005 -0.058,-0.006 z"
               style="fill:#ff9b00;fill-rule:nonzero" />
            <path
               id="path1146"
               d="m 324.303,247.582 c -0.11,0 -0.218,0.035 -0.307,0.1 -0.134,0.097 -0.214,0.253 -0.214,0.419 0,0.109 0.035,0.215 0.099,0.303 0.395,0.544 0.632,0.9 0.738,1.102 0.107,0.202 0.049,0.159 0.09,0.06 0.041,-0.098 0.011,-0.038 -0.147,0.1 -0.157,0.138 -0.374,0.371 -0.533,0.721 -10e-4,0.003 -0.002,0.006 -0.004,0.01 -0.34,0.793 -0.437,1.618 -0.627,2.379 -0.068,0.275 0.102,0.558 0.377,0.627 0.276,0.068 0.559,-0.102 0.627,-0.377 0.209,-0.837 0.312,-1.607 0.571,-2.213 0.09,-0.198 0.171,-0.28 0.273,-0.369 0.102,-0.09 0.292,-0.174 0.42,-0.485 0.128,-0.311 0.026,-0.634 -0.133,-0.935 -0.159,-0.302 -0.41,-0.672 -0.814,-1.229 -0.097,-0.133 -0.252,-0.212 -0.416,-0.213 z"
               style="fill:#ff9b00;fill-rule:nonzero" />
            <path
               id="path1142"
               d="m 334.416,248.684 c -0.152,-0.005 -0.298,0.057 -0.4,0.17 -0.19,0.211 -0.172,0.54 0.039,0.73 0.478,0.431 0.602,0.665 0.605,0.709 0.002,0.022 0.002,0.056 -0.062,0.168 -0.065,0.112 -0.195,0.282 -0.385,0.496 -0.084,0.095 -0.131,0.217 -0.131,0.344 0,0.148 0.063,0.288 0.174,0.387 0.095,0.084 0.217,0.13 0.344,0.13 0.147,0 0.288,-0.063 0.386,-0.173 0.21,-0.236 0.381,-0.443 0.51,-0.668 0.129,-0.226 0.219,-0.492 0.195,-0.77 -0.046,-0.556 -0.424,-0.922 -0.945,-1.391 -0.091,-0.082 -0.208,-0.129 -0.33,-0.132 z"
               style="fill:#ff9b00;fill-rule:nonzero" />
            <path
               id="path1138"
               d="m 343.982,254.283 c -0.13,0.005 -0.255,0.058 -0.347,0.151 -0.097,0.097 -0.152,0.228 -0.152,0.366 0,0.137 0.055,0.269 0.152,0.366 0.346,0.347 0.578,0.742 0.629,1.074 0.051,0.333 -0.014,0.618 -0.41,0.975 -0.211,0.19 -0.228,0.52 -0.038,0.73 0.19,0.211 0.52,0.229 0.731,0.039 0.603,-0.543 0.839,-1.257 0.74,-1.9 -0.099,-0.642 -0.468,-1.197 -0.922,-1.65 -0.101,-0.101 -0.24,-0.156 -0.383,-0.151 z"
               style="fill:#ff9b00;fill-rule:nonzero" />
            <path
               id="path1134"
               d="m 353.037,261.709 c -0.255,0.085 -0.448,0.408 -0.465,0.604 -0.016,0.195 0.022,0.322 0.051,0.437 0.045,0.178 0.047,0.227 0.066,0.223 -0.027,0.025 -0.018,0.017 -0.064,0.048 -0.103,0.071 -0.235,0.15 -0.35,0.213 -0.05,0.028 -0.068,0.036 -0.109,0.057 -0.033,0.018 -0.065,0.029 -0.098,0.047 -0.003,10e-4 -0.003,0.003 -0.006,0.004 -0.005,0.002 -0.009,0.003 -0.013,0.006 -0.021,0.01 -0.045,0.024 -0.065,0.035 0,0 -10e-4,0 -0.002,0 v 0.002 c 0,0.004 0.074,0.955 0.074,0.955 0,0 0.188,0.022 0.188,0.022 0,0 0.07,-0.008 0.07,-0.008 0,-10e-4 0.044,-0.011 0.055,-0.014 0.022,-0.007 0.031,-0.011 0.039,-0.014 0.031,-0.012 0.038,-0.017 0.055,-0.025 0.04,-0.019 0.119,-0.063 0.187,-0.098 0.842,-0.461 1.694,-0.845 2.561,-1.23 0.018,-0.009 0.035,-0.018 0.052,-0.028 0.035,-0.021 0.067,-0.046 0.096,-0.074 0.015,-0.014 0.028,-0.029 0.041,-0.045 0.013,-0.015 0.024,-0.032 0.035,-0.049 0.022,-0.033 0.04,-0.069 0.053,-0.107 0.009,-0.027 0.017,-0.056 0.021,-0.084 0.003,-0.016 0.005,-0.033 0.006,-0.049 0.001,-0.01 0.002,-0.019 0.002,-0.029 0,-0.015 0,-0.029 -0.002,-0.043 -10e-4,-0.021 -0.004,-0.041 -0.008,-0.061 -0.003,-0.017 -0.007,-0.034 -0.011,-0.051 -10e-4,-0.002 -0.002,-0.005 -0.002,-0.008 -0.004,-0.01 -0.008,-0.02 -0.012,-0.031 -0.003,-0.008 -0.006,-0.017 -0.01,-0.025 -0.008,-0.018 -0.017,-0.036 -0.027,-0.053 -0.021,-0.035 -0.046,-0.067 -0.075,-0.096 -0.013,-0.014 -0.027,-0.028 -0.043,-0.041 0,0 -10e-4,0 -0.002,0 -0.015,-0.012 -0.031,-0.024 -0.048,-0.035 -0.034,-0.021 -0.07,-0.039 -0.108,-0.052 -0.019,-0.007 -0.039,-0.013 -0.058,-0.018 -0.009,-0.002 -0.017,-0.003 -0.026,-0.004 0,0 -10e-4,0 -0.002,0 -0.217,-0.037 -0.502,-0.152 -0.84,-0.25 -0.338,-0.099 -0.759,-0.18 -1.207,-0.031 z m -1.058,1.678 c -0.013,0.007 -0.015,0.006 -0.038,0.019 -0.01,0.006 -0.054,0.039 -0.054,0.039 0,0 -0.039,0.033 -0.039,0.034 0,0 -0.073,0.091 -0.073,0.091 0,0 0.196,-0.176 0.203,-0.183 z"
               style="fill:#ff9b00;fill-rule:nonzero" />
            <path
               id="path1130"
               d="m 347.615,286.982 c -0.069,-0.002 -0.138,0.01 -0.203,0.036 -0.198,0.077 -0.33,0.269 -0.33,0.482 0,0.064 0.012,0.128 0.035,0.188 0.331,0.85 0.335,1.291 0.227,1.496 -0.109,0.205 -0.459,0.424 -1.262,0.613 -0.276,0.065 -0.449,0.345 -0.385,0.621 0.065,0.276 0.346,0.449 0.621,0.385 0.898,-0.211 1.598,-0.49 1.94,-1.135 0.341,-0.645 0.193,-1.406 -0.176,-2.355 -0.075,-0.194 -0.259,-0.324 -0.467,-0.331 z"
               style="fill:#ff9b00;fill-rule:nonzero" />
            <path
               id="path2119"
               d="m 319.7,244.8 c -0.8,-0.1 -6.7,1.4 -8.9,3.2 -3.6,2.3 -6.3,6 -7.8,10 -0.1,0.1 -0.2,0.1 -0.3,0.2 h -0.1 c -2.2,-1.2 -4.5,-2 -7.3,-1.8 -0.9,0.1 -1.7,0.3 -2.7,0.9 -0.5,0.3 -1,0.6 -1.4,1.3 -0.4,0.6 -0.7,1.6 -0.5,2.4 0.2,1.1 1.3,1.8 2.5,1.6 0.9,-0.2 1.5,-0.9 1.6,-1.8 0.3,-0.1 0.7,-0.3 0.8,-0.3 1.9,-0.2 3.1,0.3 5,1.3 0.1,0 0.2,0.1 0.3,0.1 -3.7,9.7 -2.2,6.7 -0.9,18.6 -0.3,1.5 2.4,4.5 3.2,2.4 -0.2,-2.2 -0.8,-4.3 -0.8,-6.5 -0.8,-6.4 -1.6,-4 0.7,-8.3 1.4,-4.5 1.6,1.2 2.4,3.2 1.8,3.9 4.8,7 7.5,10.3 0.1,1 2.3,3.8 1.7,1.2 -1.1,-5.2 -3,-10.3 -5.6,-15 -1.1,-1.4 -2.8,-2 -1.8,-2.7 1,-0.6 4.6,3 6.6,3.8 3,0.9 6.3,-0.9 9.1,0.5 -0.4,-0.8 -1.5,-3.1 -1.9,-3.3 -3.4,-2.4 -7.5,-2.9 -11.8,-3.2 h -2.5 l 0.1,-0.1 c 0.2,0 0.3,0.1 0.4,0.1 0.7,0 1.3,0.1 2,0.1 7.2,-0.4 10.4,-5.4 14.4,-10.1 -6.1,-1.1 -12,3.5 -13.3,1.9 -1,-1.5 5,-5.3 9.3,-10 0.1,0.1 0.1,0.1 0,0 z m 3.4,24.6 c 0.2,0.4 0.2,0.5 0,0 z"
               style="fill:#008000;fill-rule:nonzero" />
          </g>
        </g>
        <g
           id="path2117-3"
           transform="matrix(1.34574,-0.06841,0.0689275,1.35592,-482.809,-41.5419)">
          <path
             d="m 565.768,325.111 c 3.9,3.5 8.6,15.4 6.1,20.5 -1.4,2.8 -3.6,6 -6.8,6.6 -9.3,1.7 -30.6,3.4 -37.4,0.3 -4.2,-1.9 -9,-3 -12.7,-5.9 -4.9,-3.8 -4.6,-11.1 -3.6,-16.7 0.8,-4.6 3,-8.7 6.2,-12.2 3.8,-4.2 8.2,-10.9 13.4,-10.2 9.5,1.3 18.3,5.7 26.2,10.9 3,2 5.9,4.2 8.6,6.7 z"
             style="fill:#aa0000;fill-rule:nonzero"
             id="path223" />
        </g>
        <g
           id="path2133-5"
           transform="matrix(1.34574,-0.06841,0.0689275,1.35592,-482.809,-41.5419)">
          <path
             d="m 529.968,307.511 c -4.7,0.2 -8.8,6.3 -12.4,10.2 -0.6,0.6 -1.1,1.3 -1.6,1.9 h 0.3 c 29.3,-13.1 47.5,21.6 53.2,29.7 1,-1.2 1.8,-2.5 2.4,-3.8 2.5,-5.1 -2.2,-17 -6.1,-20.5 -2.7,-2.4 -5.6,-4.7 -8.6,-6.7 -8,-5.1 -16.7,-9.6 -26.2,-10.9 -0.4,0.1 -0.7,0.1 -1,0.1 z"
             style="fill:#bf0000;fill-rule:nonzero"
             id="path226" />
        </g>
        <g
           id="path2165-1"
           transform="matrix(1.34574,-0.06841,0.0689275,1.35592,-482.809,-41.5419)">
          <path
             d="m 511.168,331.411 c -0.7,5.4 -0.6,11.7 3.8,15.2 3.7,2.9 8.5,4 12.7,5.9 6.6,3 26.4,1.5 36.2,-0.1 0.1,-0.3 0.1,-0.6 0,-0.8 -0.8,-1.1 -4.3,-1.3 -5.5,-1.6 -25.1,4.1 -40.7,-5.4 -47.2,-18.6 z"
             style="fill:#8e0000;fill-rule:nonzero"
             id="path229" />
        </g>
        <g
           id="path1126"
           transform="matrix(1.34574,-0.06841,0.0689275,1.35592,-482.809,-41.5419)">
          <path
             d="m 540.33,322.695 c -0.11,0.008 -0.215,0.051 -0.299,0.123 -0.214,0.185 -0.239,0.514 -0.054,0.729 0.532,0.621 0.598,1.008 0.502,1.404 -0.097,0.396 -0.449,0.867 -0.977,1.395 -0.2,0.2 -0.2,0.53 0,0.73 0.097,0.097 0.229,0.152 0.366,0.152 0.138,0 0.269,-0.055 0.366,-0.152 0.573,-0.572 1.072,-1.15 1.25,-1.879 0.179,-0.729 -0.055,-1.543 -0.722,-2.322 -0.107,-0.125 -0.268,-0.192 -0.432,-0.18 z"
             style="fill:#ff9b00;fill-rule:nonzero"
             id="path232" />
        </g>
        <g
           id="path1122"
           transform="matrix(1.34574,-0.06841,0.0689275,1.35592,-482.809,-41.5419)">
          <path
             d="m 546.506,328.197 c -0.259,0.032 -0.455,0.253 -0.455,0.514 0,0.021 10e-4,0.042 0.004,0.062 0.031,0.259 0.253,0.455 0.513,0.455 0.021,0 0.042,-0.001 0.063,-0.003 0.545,-0.066 0.791,0.041 0.865,0.105 0.075,0.064 0.105,0.135 0.065,0.348 -0.081,0.426 -0.627,1.131 -1.184,1.353 -0.264,0.105 -0.394,0.409 -0.289,0.672 0.105,0.264 0.408,0.394 0.672,0.289 0.943,-0.377 1.647,-1.224 1.816,-2.123 0.085,-0.449 -0.01,-0.985 -0.404,-1.324 -0.394,-0.339 -0.961,-0.432 -1.666,-0.348 z"
             style="fill:#ff9b00;fill-rule:nonzero"
             id="path235" />
        </g>
        <g
           id="path1118"
           transform="matrix(1.34574,-0.06841,0.0689275,1.35592,-482.809,-41.5419)">
          <path
             d="m 556.68,328.395 c -0.152,-0.004 -0.298,0.06 -0.399,0.173 -0.083,0.095 -0.13,0.217 -0.13,0.343 0,0.148 0.064,0.29 0.175,0.388 0.782,0.69 1.055,1.298 1.014,1.754 -0.042,0.455 -0.392,0.941 -1.303,1.396 -0.253,0.127 -0.357,0.44 -0.23,0.694 0.127,0.253 0.44,0.357 0.693,0.23 1.089,-0.545 1.787,-1.309 1.871,-2.228 0.084,-0.92 -0.443,-1.812 -1.361,-2.622 -0.092,-0.08 -0.209,-0.126 -0.33,-0.128 z"
             style="fill:#ff9b00;fill-rule:nonzero"
             id="path238" />
        </g>
        <g
           id="path1114"
           transform="matrix(1.34574,-0.06841,0.0689275,1.35592,-482.809,-41.5419)">
          <path
             d="m 552.084,338.895 c -0.069,-0.002 -0.138,0.009 -0.203,0.035 -0.199,0.077 -0.33,0.269 -0.33,0.482 0,0.064 0.012,0.128 0.035,0.188 0.331,0.851 0.333,1.289 0.225,1.494 -0.109,0.205 -0.458,0.424 -1.26,0.613 -0.234,0.054 -0.401,0.264 -0.401,0.504 0,0.04 0.005,0.08 0.014,0.119 0.055,0.233 0.264,0.399 0.504,0.399 0.04,0 0.08,-0.005 0.119,-0.014 0.897,-0.211 1.598,-0.492 1.94,-1.137 0.341,-0.645 0.193,-1.404 -0.176,-2.353 -0.075,-0.194 -0.26,-0.324 -0.467,-0.33 z"
             style="fill:#ff9b00;fill-rule:nonzero"
             id="path241" />
        </g>
        <g
           id="path1110"
           transform="matrix(1.34574,-0.06841,0.0689275,1.35592,-482.809,-41.5419)">
          <path
             d="m 538.67,338.494 c -0.029,0 -0.058,0.002 -0.086,0.006 -0.249,0.041 -0.433,0.258 -0.433,0.511 0,0.028 0.003,0.057 0.007,0.085 0.088,0.524 0.052,1.116 -0.123,1.502 -0.174,0.386 -0.389,0.596 -0.967,0.596 0,-0.001 0,-0.001 0,-0.001 -0.284,0 -0.517,0.234 -0.517,0.518 v 0 c 0,0.284 0.233,0.518 0.517,0.518 0,0 0,0 0,0 0.923,0 1.608,-0.541 1.909,-1.205 0.3,-0.665 0.313,-1.422 0.201,-2.098 -0.042,-0.247 -0.257,-0.431 -0.508,-0.432 z"
             style="fill:#ff9b00;fill-rule:nonzero"
             id="path244" />
        </g>
        <g
           id="path1106"
           transform="matrix(1.34574,-0.06841,0.0689275,1.35592,-482.809,-41.5419)">
          <path
             d="m 537.652,347.693 c -0.173,0.006 -0.333,0.099 -0.423,0.246 -0.304,0.494 -0.683,0.615 -1.272,0.67 -0.589,0.056 -1.321,-0.025 -2.066,0.09 -0.252,0.038 -0.44,0.257 -0.44,0.512 0,0.026 0.002,0.052 0.006,0.078 0.038,0.252 0.257,0.44 0.511,0.44 0.027,0 0.053,-0.002 0.079,-0.006 0.554,-0.086 1.272,-0.015 2.008,-0.084 0.736,-0.07 1.558,-0.35 2.054,-1.157 0.149,-0.241 0.072,-0.562 -0.17,-0.711 -0.086,-0.053 -0.185,-0.08 -0.287,-0.078 z"
             style="fill:#ff9b00;fill-rule:nonzero"
             id="path247" />
        </g>
        <g
           id="path1102"
           transform="matrix(1.34574,-0.06841,0.0689275,1.35592,-482.809,-41.5419)">
          <path
             d="m 566.281,337.494 c -0.261,-0.007 -0.488,0.185 -0.525,0.444 -0.03,0.209 -0.096,0.285 -0.246,0.378 -0.151,0.094 -0.406,0.165 -0.701,0.192 -0.592,0.054 -1.301,-0.057 -1.668,-0.11 -0.281,-0.039 -0.544,0.159 -0.584,0.44 -0.004,0.024 -0.006,0.049 -0.006,0.074 0,0.256 0.191,0.476 0.445,0.512 0.333,0.047 1.123,0.186 1.906,0.115 0.392,-0.036 0.794,-0.121 1.153,-0.344 0.358,-0.222 0.656,-0.62 0.726,-1.111 0.04,-0.281 -0.159,-0.544 -0.439,-0.584 -0.02,-0.003 -0.04,-0.005 -0.061,-0.006 z"
             style="fill:#ff9b00;fill-rule:nonzero"
             id="path250" />
        </g>
        <g
           id="path1098"
           transform="matrix(1.34574,-0.06841,0.0689275,1.35592,-482.809,-41.5419)">
          <path
             d="m 535.072,310.193 c -0.111,0 -0.219,0.035 -0.308,0.1 -0.23,0.167 -0.281,0.493 -0.114,0.723 0.396,0.543 0.63,0.899 0.737,1.101 0.106,0.202 0.051,0.157 0.092,0.059 0.04,-0.099 0.01,-0.037 -0.147,0.101 -0.157,0.138 -0.376,0.371 -0.535,0.721 -10e-4,0.003 -0.003,0.007 -0.004,0.01 -0.34,0.793 -0.437,1.616 -0.627,2.377 -0.011,0.041 -0.016,0.084 -0.016,0.127 0,0.237 0.163,0.445 0.393,0.502 0.275,0.068 0.558,-0.102 0.627,-0.377 0.209,-0.835 0.313,-1.605 0.57,-2.211 l 0.002,-0.002 c 0.091,-0.198 0.172,-0.28 0.274,-0.369 0.102,-0.09 0.289,-0.174 0.418,-0.485 0.128,-0.31 0.028,-0.636 -0.131,-0.937 -0.159,-0.301 -0.412,-0.67 -0.817,-1.227 -0.096,-0.132 -0.25,-0.211 -0.414,-0.212 z"
             style="fill:#ff9b00;fill-rule:nonzero"
             id="path253" />
        </g>
        <g
           id="path1094"
           transform="matrix(1.34574,-0.06841,0.0689275,1.35592,-482.809,-41.5419)">
          <path
             d="m 545.125,311.295 c -0.131,0.011 -0.254,0.072 -0.342,0.17 -0.189,0.211 -0.172,0.541 0.039,0.73 0.479,0.431 0.602,0.665 0.606,0.709 0.002,0.022 0.004,0.056 -0.061,0.168 -0.064,0.113 -0.194,0.282 -0.385,0.496 -0.187,0.212 -0.167,0.541 0.043,0.729 0.095,0.084 0.218,0.131 0.344,0.131 0.148,0 0.289,-0.064 0.387,-0.174 0.209,-0.236 0.378,-0.441 0.508,-0.666 0.129,-0.225 0.218,-0.492 0.195,-0.77 -0.046,-0.556 -0.424,-0.923 -0.945,-1.392 -0.106,-0.096 -0.247,-0.143 -0.389,-0.131 z"
             style="fill:#ff9b00;fill-rule:nonzero"
             id="path256" />
        </g>
        <g
           id="path1090"
           transform="matrix(1.34574,-0.06841,0.0689275,1.35592,-482.809,-41.5419)">
          <path
             d="m 554.752,316.895 c -0.131,0.003 -0.256,0.057 -0.35,0.15 -0.097,0.097 -0.152,0.229 -0.152,0.366 0,0.137 0.055,0.269 0.152,0.366 0.347,0.347 0.578,0.742 0.629,1.075 0.051,0.332 -0.011,0.617 -0.408,0.974 -0.211,0.19 -0.229,0.52 -0.039,0.731 0.19,0.211 0.519,0.228 0.73,0.039 0.604,-0.543 0.84,-1.258 0.741,-1.901 -0.099,-0.642 -0.467,-1.197 -0.92,-1.65 -0.102,-0.101 -0.24,-0.155 -0.383,-0.15 z"
             style="fill:#ff9b00;fill-rule:nonzero"
             id="path259" />
        </g>
        <g
           id="path1086"
           transform="matrix(1.34574,-0.06841,0.0689275,1.35592,-482.809,-41.5419)">
          <path
             d="m 563.805,324.32 c -0.255,0.085 -0.449,0.408 -0.465,0.604 -0.016,0.196 0.022,0.323 0.051,0.437 0.044,0.178 0.049,0.227 0.068,0.223 -0.028,0.025 -0.018,0.017 -0.064,0.049 -0.103,0.07 -0.235,0.149 -0.35,0.213 -0.039,0.021 -0.052,0.027 -0.086,0.045 -0.048,0.026 -0.094,0.041 -0.142,0.068 -0.02,0.009 -0.045,0.024 -0.065,0.035 0,0 0.072,0.955 0.072,0.955 0,0 0.19,0.024 0.19,0.024 0,0 0.068,-0.008 0.068,-0.008 0,0 0.046,-0.011 0.057,-0.014 0.022,-0.007 0.029,-0.011 0.037,-0.014 0.031,-0.012 0.04,-0.017 0.057,-0.025 0.04,-0.019 0.12,-0.062 0.189,-0.098 0.842,-0.46 1.691,-0.846 2.557,-1.23 0.055,-0.025 0.106,-0.059 0.15,-0.102 0.043,-0.042 0.079,-0.092 0.105,-0.146 0.009,-0.019 0.017,-0.038 0.024,-0.057 0.006,-0.019 0.011,-0.037 0.015,-0.057 0.003,-0.009 0.005,-0.018 0.006,-0.027 10e-4,-0.008 0.002,-0.016 0.002,-0.023 0.001,-0.004 0.002,-0.007 0.002,-0.01 10e-4,-0.004 10e-4,-0.007 0,-0.01 0.002,-0.017 0.003,-0.033 0.002,-0.049 0,-0.018 -10e-4,-0.037 -0.004,-0.055 0,-0.002 0,-0.004 0,-0.006 0,-0.002 -10e-4,-0.004 -0.002,-0.006 -0.002,-0.014 -0.004,-0.027 -0.008,-0.041 0,-0.004 -10e-4,-0.009 -0.002,-0.014 -0.002,-0.008 -0.005,-0.017 -0.008,-0.025 -0.006,-0.019 -0.013,-0.038 -0.021,-0.057 -0.008,-0.018 -0.017,-0.035 -0.027,-0.052 -0.01,-0.018 -0.021,-0.035 -0.034,-0.051 -0.024,-0.032 -0.052,-0.061 -0.084,-0.086 -0.047,-0.038 -0.1,-0.068 -0.158,-0.088 -0.018,-0.007 -0.037,-0.013 -0.056,-0.017 -10e-4,0 -0.002,0 -0.002,0 -0.009,-0.002 -0.017,-0.003 -0.026,-0.004 -10e-4,-10e-4 -0.003,-0.002 -0.004,-0.002 -0.217,-0.037 -0.499,-0.15 -0.836,-0.249 -0.338,-0.098 -0.761,-0.18 -1.209,-0.031 z m -1.053,1.674 c -0.013,0.007 -0.018,0.006 -0.043,0.022 -0.01,0.006 -0.054,0.04 -0.055,0.041 0,0 -0.037,0.033 -0.037,0.033 0,0 -0.074,0.092 -0.074,0.092 0,0 0.209,-0.188 0.209,-0.188 z"
             style="fill:#ff9b00;fill-rule:nonzero"
             id="path262" />
        </g>
        <g
           id="path1082"
           transform="matrix(1.34574,-0.06841,0.0689275,1.35592,-482.809,-41.5419)">
          <path
             d="m 558.385,349.594 c -0.07,-0.002 -0.139,0.01 -0.203,0.035 -0.199,0.077 -0.331,0.269 -0.331,0.482 0,0.064 0.012,0.128 0.036,0.188 0.331,0.851 0.333,1.291 0.224,1.496 -0.108,0.205 -0.459,0.424 -1.261,0.613 -0.276,0.065 -0.45,0.345 -0.385,0.621 0.055,0.233 0.264,0.399 0.503,0.399 0.041,0 0.081,-0.005 0.12,-0.014 0.897,-0.211 1.596,-0.492 1.937,-1.137 0.342,-0.645 0.194,-1.404 -0.175,-2.353 -0.075,-0.193 -0.259,-0.323 -0.465,-0.33 z"
             style="fill:#ff9b00;fill-rule:nonzero"
             id="path265" />
        </g>
        <g
           id="path2119-1"
           transform="matrix(1.34574,-0.06841,0.0689275,1.35592,-482.809,-41.5419)">
          <path
             d="m 530.468,307.411 c -0.8,-0.1 -6.7,1.4 -8.9,3.2 -3.6,2.3 -6.3,6 -7.8,10 -0.1,0.1 -0.2,0.1 -0.3,0.2 h -0.1 c -2.2,-1.2 -4.5,-2 -7.3,-1.8 -0.9,0.1 -1.7,0.3 -2.7,0.9 -0.5,0.3 -1,0.6 -1.4,1.3 -0.4,0.6 -0.7,1.6 -0.5,2.4 0.2,1.1 1.3,1.8 2.5,1.6 0.9,-0.2 1.5,-0.9 1.6,-1.8 0.3,-0.1 0.7,-0.3 0.8,-0.3 1.9,-0.2 3.1,0.3 5,1.3 0.1,0 0.2,0.1 0.3,0.1 -3.7,9.7 -2.2,6.7 -0.9,18.6 -0.3,1.5 2.4,4.5 3.2,2.4 -0.2,-2.2 -0.8,-4.3 -0.8,-6.5 -0.8,-6.4 -1.6,-4 0.7,-8.3 1.4,-4.5 1.6,1.2 2.4,3.2 1.8,3.9 4.8,7 7.5,10.3 0.1,1 2.3,3.8 1.7,1.2 -1.1,-5.2 -3,-10.3 -5.6,-15 -1.1,-1.4 -2.8,-2 -1.8,-2.7 1,-0.6 4.6,3 6.6,3.8 3,0.9 6.3,-0.9 9.1,0.5 -0.4,-0.8 -1.5,-3.1 -1.9,-3.3 -3.4,-2.4 -7.5,-2.9 -11.8,-3.2 h -2.5 l 0.1,-0.1 c 0.2,0 0.3,0.1 0.4,0.1 0.7,0 1.3,0.1 2,0.1 7.2,-0.4 10.4,-5.4 14.4,-10.1 -6.1,-1.1 -12,3.5 -13.3,1.9 -1,-1.5 5,-5.3 9.3,-10 0.1,0.1 0.1,0.1 0,0 z m 3.4,24.6 c 0.2,0.4 0.2,0.5 0,0 z"
             style="fill:#008000;fill-rule:nonzero"
             id="path268" />
        </g>
      </g>
      <g
         transform="matrix(1.04211,0,0,1.04211,1182.13,-216.611)"
         id="g341">
        <g
           transform="translate(-144.496,-152.716)"
           id="g275">
          <path
             d="m 315.995,989.857 c 0.94,-3.082 -0.323,-6.183 -3.267,-8.49 -5.383,-4.218 -17.049,-10.503 -23.886,-2.969 -1.018,1.121 -0.295,7.124 0.827,8.142 1.121,1.018 2.486,1.651 3.503,0.53 4.037,-4.448 10.396,-4.348 14.461,-2.422 1.18,0.56 2.169,1.264 2.76,2.109 0.325,0.464 0.514,0.97 0.353,1.5 -0.442,1.449 0.376,2.983 1.824,3.425 1.449,0.441 2.983,-0.376 3.425,-1.825 z"
             style="fill:#547a09"
             id="path273" />
        </g>
        <g
           transform="translate(-146.087,-156.498)"
           id="g279">
          <path
             d="m 331.509,981.922 c -0.493,-1.429 2.958,-3.353 3.952,-3.574 1.195,-0.265 2.324,-1.042 3.536,-1.091 3.699,-0.148 9.381,-0.427 12.261,2.453 1.55,1.55 0.121,3.977 -0.817,5.356 -0.412,0.606 -1.607,1.389 -1.09,1.907 0.434,0.433 0.984,-0.75 1.544,-0.999 1.191,-0.529 7.891,-0.077 8.939,0.088 2.489,0.389 6.473,3.814 7.497,5.863 1.211,2.422 -2.508,10.415 -3.181,10.935 -0.393,0.3 -1.677,0.91 -1.18,0.91 0.465,0 2.444,0.47 3.177,0.91 0.381,0.22 2.554,-0.2 3.892,0.29 8.761,3.23 8.022,23.66 -1.077,21.68 -0.319,-0.07 2.131,1.83 2.723,2.54 2.104,2.5 3.312,7.44 3.186,9.42 -0.336,5.24 -9.118,10.59 -12.9,7.83 -1.086,-0.8 -2.03,1.8 -3.268,2.27 -1.056,0.39 -2.115,0.38 -3.178,0 -0.616,-0.22 -1.907,-0.46 -1.907,-0.46 0,0 -0.231,1.58 -0.817,2 -1.781,1.28 -5.348,2.36 -7.535,1.82 -1.228,-0.31 -2.326,-0.91 -3.541,-1.27 -0.987,-0.3 -2.091,0.03 -2.996,-0.55 -0.751,-0.48 -1.848,-1.87 -2.269,-2.63 -0.223,-0.4 -0.182,-1.36 -0.182,-1.36 0,0 -1.205,1.21 -1.997,1.36 -1.604,0.3 -2.903,0.19 -4.54,0.27 -0.802,0.04 -1.845,0.52 -2.632,0.36 -3.273,-0.65 -7.045,-1.7 -9.352,-4.26 -0.979,-1.09 -0.41,-1.63 0.091,-2.63 0.056,-0.12 0.999,-1.21 0.999,-0.73 0,0.22 -1.3,0.45 -1.453,0.45 -1.803,0 -3.345,-0.87 -5.084,-1.27 -5.109,-1.16 -10.743,-5.06 -11.984,-10.44 -0.232,-1 -0.081,-2.91 0.636,-3.63 0.268,-0.27 0.761,-1.33 1.18,-0.91 0.183,0.18 -0.793,-0.54 -0.999,-0.82 -0.604,-0.8 -0.531,-2.21 -1.362,-2.81 -3.584,-2.58 -4.624,-12.41 1.519,-14.07 0.827,-0.23 2.51,-0.44 3.293,-0.18 0.104,0.03 -9.094,-4.44 -6.536,-10.535 1.047,-2.496 4.805,-8.022 10.751,-8.829 1.24,-0.168 2.429,0.138 3.502,0.567 0.395,0.158 0.845,0.363 1.271,0.363 h 0.545 c 0,-0.461 -0.619,-0.868 -0.726,-1.725 -1.354,-10.815 15.981,-12.159 18.109,-4.869 z"
             style="fill:#55226f"
             id="path277" />
        </g>
        <g
           transform="translate(-155.578,-128.486)"
           id="g283">
          <path
             d="m 343.676,1002.13 c -1.612,-5.954 11.824,-10.262 14.74,-5.403 2.707,4.513 -2.888,11.583 -7.105,12.793 -1.411,0.4 -7.635,-7.39 -7.635,-7.39 z"
             style="fill:#2d1b34"
             id="path281" />
        </g>
        <g
           transform="translate(-179.907,-156.477)"
           id="g287">
          <path
             d="m 354.864,1027.04 c -4.398,0.71 -7.464,-9.92 -2.843,-10.89 0.749,-0.16 2.162,-0.43 2.843,-0.47 4.028,-0.29 8.205,-0.58 9.71,4.02 1.005,3.08 -1.8,10.56 -5.921,10.19 -1.687,-0.16 -2.174,-2.31 -3.789,-2.85 z"
             style="fill:#2f2433"
             id="path285" />
        </g>
        <g
           transform="matrix(0.740102,0,0,0.759004,-52.5253,61.3665)"
           id="g291">
          <path
             d="m 354.864,1027.04 c -4.398,0.71 -7.464,-9.92 -2.843,-10.89 0.749,-0.16 2.162,-0.43 2.843,-0.47 4.028,-0.29 8.205,-0.58 9.71,4.02 1.005,3.08 -1.8,10.56 -5.921,10.19 -1.687,-0.16 -2.174,-2.31 -3.789,-2.85 z"
             style="fill:#a071b0"
             id="path289" />
        </g>
        <g
           transform="matrix(0.54775,0,0,0.576088,3.24849,237.975)"
           id="g295">
          <path
             d="m 354.864,1027.04 c -4.398,0.71 -7.464,-9.92 -2.843,-10.89 0.749,-0.16 2.162,-0.43 2.843,-0.47 4.028,-0.29 8.205,-0.58 9.71,4.02 1.005,3.08 -1.8,10.56 -5.921,10.19 -1.687,-0.16 -2.174,-2.31 -3.789,-2.85 z"
             style="fill:#a071b0"
             id="path293" />
        </g>
        <g
           transform="matrix(0.796853,0,0,0.790665,-89.3762,31.5433)"
           id="g299">
          <path
             d="m 358.653,1029.89 c -8.178,4.47 -15.895,-9.45 -6.632,-13.74 0.694,-0.32 2.162,-0.43 2.843,-0.47 4.028,-0.29 8.205,-0.58 9.71,4.02 1.005,3.08 -2.292,8.2 -5.921,10.19 z"
             style="fill:#804695"
             id="path297" />
        </g>
        <g
           transform="matrix(0.796853,0,0,0.790665,-77.877,43.1051)"
           id="g303">
          <path
             d="m 358.653,1029.89 c -8.178,4.47 -15.895,-9.45 -6.632,-13.74 0.694,-0.32 2.162,-0.43 2.843,-0.47 4.028,-0.29 8.205,-0.58 9.71,4.02 1.005,3.08 -2.292,8.2 -5.921,10.19 z"
             style="fill:#804695"
             id="path301" />
        </g>
        <g
           transform="matrix(0.453004,-0.655563,0.650472,0.449486,-612.417,639.917)"
           id="g307">
          <path
             d="m 358.653,1029.89 c -8.178,4.47 -15.895,-9.45 -6.632,-13.74 0.694,-0.32 2.162,-0.43 2.843,-0.47 4.028,-0.29 8.205,-0.58 9.71,4.02 1.005,3.08 -2.292,8.2 -5.921,10.19 z"
             style="fill:#804695"
             id="path305" />
        </g>
        <g
           transform="matrix(0.448216,-0.149223,0.303313,0.911053,-246.478,-20.242)"
           id="g311">
          <path
             d="m 357.995,1031.6 c -2.077,0.28 -8.53,-15.92 -3.909,-16.89 0.748,-0.16 2.162,-0.43 2.842,-0.48 4.028,-0.28 8.205,-0.58 9.711,4.03 1.004,3.07 -4.599,12.81 -8.644,13.34 z"
             style="fill:#a071b0"
             id="path309" />
        </g>
        <g
           transform="translate(-154.572,-129.622)"
           id="g315">
          <path
             d="m 342.792,1008.74 c -0.015,-2.66 -4.678,-4.11 -7.824,-2.54 -3.003,1.5 -6.163,6.13 -5.447,9.71 1.428,7.14 16.521,4.25 14.921,-3.55 z"
             style="fill:#2d1b34"
             id="path313" />
        </g>
        <g
           transform="translate(-149.698,-159.137)"
           id="g319">
          <path
             d="m 321.468,999.806 c 0,0 -1.221,-7.07 -7.579,-6.158 -2.782,0.399 -4.862,2.866 -6.395,4.974 -1.001,1.377 -2.111,3.218 -1.511,5.018 2.774,8.33 18.641,5.64 15.485,-3.834 z"
             style="fill:#2f2433"
             id="path317" />
        </g>
        <g
           transform="translate(-152.001,-161.266)"
           id="g323">
          <path
             d="m 316.435,1016.66 c 0,0 -5.824,-2.65 -7.283,-2.41 -4.31,0.72 -3.196,10.59 -0.237,12.56 5.833,3.89 17.063,-8.83 7.52,-10.15 z"
             style="fill:#2f2433"
             id="path321" />
        </g>
        <g
           transform="matrix(1.26014,0,0,1.07301,-247.192,-238.593)"
           id="g327">
          <path
             d="m 331.795,1040.94 c 2.539,-2.74 0.33,-7.77 -2.985,-9.63 -4.09,-2.31 -8.635,3.01 -7.342,6.16 2.452,5.96 7.212,7.22 10.327,3.47 z"
             style="fill:#2d1b34"
             id="path325" />
        </g>
        <g
           transform="matrix(-0.590399,-0.52236,0.510018,-0.57645,-128.155,1666.06)"
           id="g331">
          <path
             d="m 348.664,1039.36 c 5.391,-4.47 -3.033,-8.37 -8.011,-6.4 -5.785,2.31 -6.138,10.9 1.421,10.9 z"
             style="fill:#2d1b34"
             id="path329" />
        </g>
        <g
           transform="translate(-147.304,-158.945)"
           id="g335">
          <path
             d="m 350.747,1040.64 c -1.551,-7.52 15.994,-4.66 10.985,3.69 -3.625,6.05 -9.804,1.97 -10.985,-3.69 z"
             style="fill:#2d1b34"
             id="path333" />
        </g>
        <g
           transform="rotate(65.890863,413.07364,857.76032)"
           id="g339">
          <path
             d="m 350.747,1040.64 c -1.551,-7.52 15.994,-4.66 10.985,3.69 -3.625,6.05 -9.804,1.97 -10.985,-3.69 z"
             style="fill:#2d1b34"
             id="path337" />
        </g>
      </g>
      <g
         transform="translate(483.461,46.3616)"
         id="g359">
        <g
           transform="matrix(0.681759,-0.705242,0.759208,0.733928,-4.12977,-123.178)"
           id="g345">
          <path
             d="m 254.267,814.77 c 5.936,5.022 7.07,2.311 12.025,8.299 5.542,6.696 10.802,13.424 10.186,22.66 -0.207,3.109 -0.462,7.128 -2.481,9.653 -2.173,2.716 -5.968,3.697 -8.646,5.78 -2.321,1.806 -4.507,4.051 -7.07,5.511 -3.789,2.157 -8.601,2.601 -12.818,3.319 -5.748,0.978 -11.984,2.708 -17.854,2.174 -2.764,-0.251 -5.301,-1.152 -8.011,-1.716 -3.189,-0.665 -6.443,-0.724 -9.385,-2.289 -8.026,-4.271 -12.482,-15.87 -10.758,-24.492 0.714,-3.566 0.157,-10.291 1.15,-13.767 1.997,-6.989 6.121,-1.73 12.128,-6.45 3.607,-2.834 7.318,-10.911 11.443,-11.828 1.589,-0.353 3.905,7.322 5.45,6.807 1.975,-0.658 4.392,3.143 6.384,2.574 2.49,-0.711 2.982,-15.55 5.562,-16.019 2.13,-0.387 -1.436,14.126 0.556,14.68 1.877,0.521 8.154,-8.269 12.139,-4.896 z"
             style="fill:#895d3c"
             id="path343" />
        </g>
        <g
           transform="matrix(0.274425,-0.283877,0.396668,0.38346,478.22,94.0383)"
           id="g349">
          <path
             d="m 169.864,664.881 c 0.409,-0.183 0.833,-0.317 1.27,-0.396 2.13,-0.388 4.416,0.705 6.409,1.258 1.876,0.522 -1.125,-2.571 2.861,0.802 5.935,5.022 10.495,10.034 15.45,16.022 5.542,6.696 10.802,13.424 10.186,22.661 -0.207,3.108 -0.461,7.128 -2.481,9.652 -2.173,2.717 -5.968,3.697 -8.646,5.781 -2.321,1.805 -4.507,4.051 -7.07,5.51 -3.789,2.158 -10.007,-8.716 -7.817,-10.522 2.527,-2.083 6.106,-3.063 8.157,-5.78 1.905,-2.524 2.145,-6.544 2.34,-9.652 0.581,-9.237 -4.381,-15.965 -9.609,-22.661 -3.642,-4.665 -7.058,-8.738 -11.05,-12.675 z"
             style="fill:#ac7e5b"
             id="path347" />
        </g>
        <g
           transform="matrix(0.564723,-0.584175,0.759208,0.733928,19.1589,-148.397)"
           id="g353">
          <path
             d="m 218.675,870.294 c -2.886,-0.534 -5.801,-0.718 -8.462,-2.133 -8.026,-4.271 -12.482,-15.87 -10.758,-24.492 0.714,-3.566 0.157,-10.291 1.15,-13.767 1.997,-6.989 6.755,-2.187 12.761,-6.907 3.607,-2.834 6.685,-10.454 10.81,-11.371 1.589,-0.353 4.812,5.262 6.358,4.747 1.975,-0.658 4.302,0.226 6.294,-0.343 2.49,-0.711 4.63,-3.079 7.21,-3.548 2.13,-0.387 4.416,0.705 6.409,1.259 1.876,0.521 -1.124,-2.571 2.861,0.801 l 3.738,3.347 c -2.168,0.827 -4.105,2.561 -6.297,3.152 -2.112,0.569 -4.579,-0.315 -6.672,0.343 -1.638,0.515 -2.44,2.394 -4.125,2.747 -4.372,0.917 -10.29,-7.123 -14.113,-4.289 -6.367,4.719 -11.222,8.084 -13.339,15.073 -1.053,3.476 -0.462,10.201 -1.219,13.767 -1.51,7.126 1.454,16.286 7.394,21.614 z"
             style="fill:#76553c"
             id="path351" />
        </g>
        <g
           transform="matrix(0.681759,-0.705242,0.759208,0.733928,-3.38321,-121.209)"
           id="g357">
          <path
             d="m 242.58,864.568 c -0.358,0.068 -0.696,0.21 -1.014,0.423 -0.206,0.138 -0.678,0.454 -0.979,1.1 -0.131,0.077 -0.257,0.167 -0.377,0.269 -9.69,8.238 -22.247,2.28 -29.672,-6.27 -4.827,-5.557 -7.745,-12.319 -5.683,-17.412 0.569,-1.404 -0.109,-3.005 -1.513,-3.573 -1.404,-0.568 -3.005,0.11 -3.573,1.514 -2.703,6.674 0.3,15.786 6.626,23.07 8.864,10.207 23.747,16.555 35.635,8.197 1.272,3.477 3.003,8.37 3.713,9.327 3.58,4.826 5.986,8.025 11.588,8.025 1.515,0 4.956,-1.485 4.956,-3 0,-1.514 -1.137,-6.618 -2.651,-6.618 -3.86,0 -7.019,1.648 -9.486,-1.676 -0.522,-0.705 -1.588,-3.87 -2.557,-6.681 0.372,0.032 0.761,0.05 1.166,0.051 3.792,0.013 9.279,-1.294 13.74,-3.333 3.237,-1.48 5.92,-3.383 7.298,-5.332 5.073,-7.175 8.949,-17.04 9.412,-23.331 0.277,-3.765 -0.792,-6.484 -2.551,-7.745 -1.231,-0.882 -2.947,-0.598 -3.829,0.633 -0.882,1.231 -0.598,2.947 0.633,3.829 0.059,0.042 0.053,0.132 0.083,0.214 0.091,0.25 0.145,0.538 0.181,0.856 0.129,1.157 -0.01,2.598 -0.327,4.211 -1.073,5.477 -4.212,12.69 -8.083,18.165 -0.79,1.118 -2.3,2.108 -4.065,3.01 -3.066,1.566 -6.923,2.736 -10.134,3.165 -1.142,0.153 -2.194,0.213 -3.08,0.142 -0.263,-0.021 -0.585,-0.089 -0.816,-0.144 -0.337,-1.135 -1.388,-1.963 -2.631,-1.963 -0.793,0 -1.509,0.337 -2.01,0.877 z m -1.365,-9.451 c -1.074,-0.666 -2.505,-0.517 -3.418,0.429 -5.836,6.053 -13.009,4.42 -16.931,1.234 -1.149,-0.934 -2.029,-1.977 -2.393,-3.005 -0.12,-0.34 -0.25,-0.675 -0.011,-0.913 1.072,-1.069 1.075,-2.808 0.006,-3.881 -1.07,-1.072 -2.808,-1.075 -3.881,-0.005 -2.402,2.395 -2.305,6.108 0.341,9.547 4.558,5.921 17.001,11.014 26.819,0.833 0.165,-0.171 0.303,-0.358 0.415,-0.555 0.073,0.045 0.149,0.087 0.228,0.126 1.423,0.703 3.937,0.85 6.665,0.371 3.521,-0.617 7.414,-2.134 9.143,-3.456 0.586,-0.448 3.25,-2.303 4.962,-3.779 1.16,-0.999 1.922,-1.996 2.15,-2.557 0.52,-1.281 0.178,-2.286 -0.394,-3.009 -0.407,-0.514 -1.29,-1.338 -3.117,-1.107 -1.322,0.167 -2.305,1.25 -2.393,2.531 -1.437,1.131 -4.064,3.197 -4.541,3.562 -1.269,0.97 -4.173,1.957 -6.757,2.41 -1.345,0.236 -2.588,0.46 -3.289,0.113 -1.312,-0.647 -2.893,-0.148 -3.604,1.111 z m -1.969,-7.514 c -0.629,-0.3 -1.371,-0.362 -2.08,-0.117 -3.182,1.103 -5.589,0.002 -8.126,-1.455 -2.216,-1.273 -4.498,-2.832 -7.169,-4.089 -1.305,-0.614 -4.348,-3.286 -5.489,-4.383 -0.216,-0.344 -0.513,-0.644 -0.882,-0.871 -1.662,-1.022 -2.841,-0.131 -3.102,0.052 -0.535,0.376 -0.913,0.891 -1.086,1.576 -0.093,0.367 -0.281,1.202 0.376,2.207 0.33,0.505 5.766,5.405 7.846,6.384 3.232,1.521 5.867,3.513 8.536,4.83 3.328,1.642 6.701,2.387 10.893,0.935 0.791,-0.275 1.377,-0.876 1.659,-1.601 0.368,0.176 0.781,0.273 1.216,0.267 3.23,-0.039 6.593,-1.755 9.881,-4.128 3.938,-2.843 7.789,-6.704 11.429,-7.917 1.871,-0.623 3.998,-0.873 5.524,-2.122 1.388,-1.136 1.61,-2.709 0.854,-4.266 -0.662,-1.365 -2.39,-2.451 -3.365,-2.56 -1.505,-0.168 -2.864,0.918 -3.032,2.423 -0.032,0.291 -0.018,0.577 0.038,0.85 -0.595,0.14 -1.189,0.281 -1.754,0.469 -3.458,1.153 -7.179,4.259 -10.905,7.163 -2.944,2.294 -5.832,4.565 -8.737,4.601 -1.153,0.014 -2.132,0.739 -2.525,1.752 z m 22.981,-18.872 c 1.352,-0.596 1.993,-2.166 1.432,-3.543 -0.571,-1.403 -2.173,-2.078 -3.576,-1.507 -0.725,0.295 -2.471,1.571 -4.535,3.361 -4.052,3.513 -9.816,9.044 -10.972,10.035 -1.15,0.985 -1.283,2.719 -0.298,3.869 0.986,1.15 2.72,1.283 3.869,0.297 1.159,-0.993 6.935,-6.535 10.996,-10.055 1.333,-1.156 3.011,-2.402 3.084,-2.457 z m -47.584,12.975 c -0.333,0.072 -0.681,0.083 -1.023,0.027 -0.342,-0.055 -0.68,-0.177 -0.994,-0.37 0.816,0.501 1.508,0.492 2.017,0.343 z m 18.493,-15.153 -0.066,-0.08 c -2.945,-3.576 -5.465,-7.095 -7.374,-11.348 -0.023,-0.316 0.583,-4.437 0.292,-5.509 -0.524,-1.934 -4.491,-3.173 -5.32,-2.838 -1.961,0.794 -3.177,2.754 -3.25,4.266 -0.029,0.608 3.018,5.76 3.215,6.203 2.122,4.768 4.909,8.718 8.201,12.715 1.124,1.365 2.154,2.621 3.324,3.827 -4.926,-0.869 -8.731,-2.925 -12.386,-7.336 -0.898,-1.084 -1.438,-2.991 -2.217,-4.52 -0.899,-1.761 -2.069,-3.135 -3.488,-3.775 -1.38,-0.622 -3.006,-0.007 -3.629,1.374 -0.622,1.38 -0.007,3.006 1.373,3.629 0.235,0.105 0.347,0.382 0.51,0.645 0.26,0.421 0.49,0.899 0.713,1.391 0.79,1.738 1.545,3.59 2.513,4.758 5.628,6.792 11.497,9.18 19.997,9.747 0.712,0.047 1.379,-0.182 1.896,-0.595 0.512,0.276 1.115,0.392 1.733,0.293 3.054,-0.49 5.846,-2.724 8.188,-5.773 2.855,-3.719 5.108,-8.632 6.832,-11.341 1.745,-2.742 3.098,-5.292 3.676,-6.949 0.463,-1.326 0.476,-2.374 0.33,-2.997 -0.23,-0.974 -0.777,-1.615 -1.475,-2.023 -0.696,-0.406 -2.076,-0.809 -4.002,0.327 -1.305,0.769 -1.739,2.453 -0.97,3.757 0.082,0.14 0.175,0.27 0.278,0.389 -0.611,1.276 -1.516,3.055 -2.467,4.55 -1.661,2.61 -3.803,7.361 -6.555,10.944 -0.791,1.031 -1.61,1.985 -2.501,2.673 l -0.019,-0.09 c 0.955,-5.018 1.763,-10.04 2.848,-15.03 0.159,-0.734 2.379,-8.154 3.89,-11.228 1.348,-0.533 2.058,-2.037 1.59,-3.427 -0.625,-1.854 -1.921,-2.182 -2.938,-2.157 -0.661,0.017 -1.905,0.367 -2.858,1.863 -1.698,2.668 -4.845,12.854 -5.047,13.783 -0.2,0.921 -0.391,1.843 -0.575,2.766 -1.398,-8.067 -2.331,-12.354 -4.745,-20.65 -0.658,-2.264 1.765,-4.67 1.147,-5.905 -0.677,-1.355 -4.343,-2.877 -6.94,-2.365 -1.06,0.209 -4.287,4.102 -3.61,5.456 0.65,1.299 3.899,3.227 4.584,5.689 2.75,9.884 3.96,17.448 4.913,23.161 0.045,0.275 0.19,0.91 0.389,1.73 z m 1.828,7.174 c -0.02,0.064 -0.038,0.131 -0.054,0.199 -0.017,0.07 -0.03,0.143 -0.041,0.218 h 0.002 c 0.021,-0.14 0.053,-0.278 0.095,-0.41 z"
             style="fill:#5d3d25"
             id="path355" />
        </g>
      </g>
      <g
         transform="translate(808.215,-65.6775)"
         id="g377">
        <path
           d="m 298.003,518.113 c -0.526,0.739 -0.674,1.723 -0.307,2.625 0.57,1.403 2.172,2.078 3.575,1.508 1.874,-0.763 2.794,-2.55 2.195,-5.089 -0.589,-2.492 -3.123,-6.205 -3.843,-7.131 -5.078,-6.529 -11.492,-10.174 -19.861,-9.852 -15.538,0.597 -28.188,15.591 -34.458,28.548 -1.912,3.952 -2.975,11.242 -3.563,19.275 -0.83,11.344 -0.821,24.232 -1.72,30.325 -0.221,1.498 0.816,2.894 2.314,3.115 1.498,0.221 3.338,-0.816 3.115,-2.314 -0.98,-6.598 4.215,-41.61 5.052,-45.653 5.513,-26.629 38.855,-40.95 44.789,-20.075 0.168,0.588 1.42,1.952 2.184,3.439 0.195,0.379 0.397,0.909 0.528,1.279 z"
           style="fill:#007a10"
           id="path361" />
        <path
           d="m 276.815,554.526 c -0.728,-39.607 38.128,-48.844 43.46,-14.484 2.102,13.539 2.835,9.288 5.586,21.667 0.623,2.806 2.776,11.059 0.644,13.191 -1.6,1.6 -5.971,-7.289 -6.199,-7.581 -3.366,-4.329 -5.923,-7.329 -6.465,-7.329 -0.372,0 -1.291,6.125 -1.609,7.079 -1.491,4.474 -3.311,15.773 -8.194,17.529 -8.488,3.052 -4.108,-17.761 -14.328,-19.782 -2.006,-0.396 -4.119,2.705 -4.504,3.218 -1.355,1.806 -8.96,9.041 -11.905,7.078 -3.545,-2.363 3.555,-18.348 3.514,-20.586 z"
           style="fill:#ab68c8"
           id="path363" />
        <g
           transform="translate(2.82289,-0.52672)"
           id="g367">
          <path
             d="m 304.667,526.212 c -0.301,0.207 1.571,1.157 2.289,1.875 1.319,1.319 2.742,2.899 3.722,4.531 1.186,1.976 2.589,6.923 2.589,9.385 v 3.883 c 0,0.461 -0.486,1.295 -0.486,1.295 0,0 0.171,-1.107 0,-1.618 -0.443,-1.33 -1.1,-2.699 -1.618,-4.046 -1.305,-3.393 -2.948,-8.372 -5.016,-11.327 -1.148,-1.639 -2.705,-3.041 -4.046,-4.53 -0.344,-0.383 -2.263,-2.104 -1.618,-2.104 z"
             style="fill:#caaad7"
             id="path365" />
        </g>
        <g
           transform="matrix(-1,0,0,1,598.751,0.384463)"
           id="g371">
          <path
             d="m 304.667,526.212 c -0.301,0.207 1.571,1.157 2.289,1.875 1.319,1.319 2.742,2.899 3.722,4.531 1.186,1.976 2.589,6.923 2.589,9.385 v 3.883 c 0,0.461 -0.486,1.295 -0.486,1.295 0,0 0.171,-1.107 0,-1.618 -0.443,-1.33 -1.1,-2.699 -1.618,-4.046 -1.305,-3.393 -2.948,-8.372 -5.016,-11.327 -1.148,-1.639 -2.705,-3.041 -4.046,-4.53 -0.344,-0.383 -2.263,-2.104 -1.618,-2.104 z"
             style="fill:#caaad7"
             id="path369" />
        </g>
        <g
           transform="translate(0.818716,-4.54274)"
           id="g375">
          <path
             d="m 299.557,532.699 c 1.836,0.529 3.067,36.165 1.574,36.165 -0.197,0 -0.644,-2.447 -0.648,-2.589 -0.066,-2.882 -0.225,-24.824 -1.27,-29.85 z"
             style="fill:#caaad7"
             id="path373" />
        </g>
      </g>
      <g
         transform="translate(1151.4,-111.069)"
         id="g435">
        <g
           transform="matrix(0.547963,-0.0681231,0.0854756,0.687541,109.433,39.4302)"
           id="g381">
          <path
             d="m 463.091,1012.2 c 13.027,-4.47 33.416,-22.34 28.869,-34.746 -16.251,-44.329 -71.481,-11.131 -47.788,18.781 4.728,5.965 13.754,10.805 18.919,15.965 z"
             style="fill:#9d1a72"
             id="path379" />
        </g>
        <g
           transform="matrix(0.20327,-0.494821,0.582162,0.239149,-243.968,694.405)"
           id="g385">
          <path
             d="m 463.091,1012.2 c 13.027,-4.47 33.416,-22.34 28.869,-34.746 -16.251,-44.329 -71.481,-11.131 -47.788,18.781 4.728,5.965 13.754,10.805 18.919,15.965 z"
             style="fill:#9d1a72"
             id="path383" />
        </g>
        <g
           transform="matrix(-0.34273,-0.424208,0.482445,-0.389782,108.457,1307.91)"
           id="g389">
          <path
             d="m 463.091,1012.2 c 13.027,-4.47 33.416,-22.34 28.869,-34.746 -16.251,-44.329 -71.481,-11.131 -47.788,18.781 4.728,5.965 13.754,10.805 18.919,15.965 z"
             style="fill:#9d1a72"
             id="path387" />
        </g>
        <g
           transform="matrix(-0.537861,0.0658108,-0.075906,-0.620368,775.267,1321.27)"
           id="g393">
          <path
             d="m 463.091,1012.2 c 13.027,-4.47 33.416,-22.34 28.869,-34.746 -16.251,-44.329 -71.481,-11.131 -47.788,18.781 4.728,5.965 13.754,10.805 18.919,15.965 z"
             style="fill:#9d1a72"
             id="path391" />
        </g>
        <g
           transform="matrix(-0.280016,0.463914,-0.535078,-0.32297,1132.32,829.994)"
           id="g397">
          <path
             d="m 463.091,1012.2 c 13.027,-4.47 33.416,-22.34 28.869,-34.746 -16.251,-44.329 -71.481,-11.131 -47.788,18.781 4.728,5.965 13.754,10.805 18.919,15.965 z"
             style="fill:#9d1a72"
             id="path395" />
        </g>
        <g
           transform="matrix(0.323283,0.487187,-0.565756,0.375419,882.57,102.314)"
           id="g401">
          <path
             d="m 463.091,1012.2 c 13.027,-4.47 33.416,-22.34 28.869,-34.746 -16.251,-44.329 -71.481,-11.131 -47.788,18.781 4.728,5.965 13.754,10.805 18.919,15.965 z"
             style="fill:#9d1a72"
             id="path399" />
        </g>
        <g
           transform="matrix(0.964404,0,0,0.982593,136.938,-270.89)"
           id="g405">
          <circle
             cx="324.56601"
             cy="1001.33"
             r="24.337"
             style="fill:#ffb400"
             id="circle403" />
        </g>
        <g
           transform="matrix(0.867226,0,0,0.920744,135.277,136.203)"
           id="g409">
          <path
             d="m 378.955,607.878 c 5.094,4.387 8.332,10.946 8.332,18.268 0,13.198 -10.517,23.914 -23.471,23.914 -9.199,0 -17.169,-5.403 -21.017,-13.264 4.088,3.522 9.372,5.646 15.139,5.646 12.954,0 23.471,-10.716 23.471,-23.914 0,-3.826 -0.884,-7.444 -2.454,-10.65 z"
             style="fill:#ffe797"
             id="path407" />
        </g>
        <g
           transform="matrix(0.46558,-0.078651,0.0949934,0.562319,160.916,342.723)"
           id="g413">
          <path
             d="m 428.827,698.222 c 1.345,-0.203 -1.312,-1.778 -1.329,-1.788 -2.475,-1.414 -4.957,-2.412 -7.753,-2.991 -0.108,-0.022 -2.106,-0.55 -2.326,-0.111 -0.431,0.862 0.499,2.23 0.886,3.102 1.466,3.297 2.756,4.243 5.538,6.534 0.519,0.427 2.211,2.109 2.99,1.329 z"
             style="fill:#dd83cb"
             id="path411" />
        </g>
        <g
           transform="matrix(-0.46558,0.078651,-0.0949934,-0.562319,738.266,1083.48)"
           id="g417">
          <path
             d="m 428.827,698.222 c 1.345,-0.203 -1.312,-1.778 -1.329,-1.788 -2.475,-1.414 -4.957,-2.412 -7.753,-2.991 -0.108,-0.022 -2.106,-0.55 -2.326,-0.111 -0.431,0.862 0.499,2.23 0.886,3.102 1.466,3.297 2.756,4.243 5.538,6.534 0.519,0.427 2.211,2.109 2.99,1.329 z"
             style="fill:#dd83cb"
             id="path415" />
        </g>
        <g
           transform="matrix(0.377228,0.136892,-0.166752,0.459512,383.833,317.703)"
           id="g421">
          <path
             d="m 428.827,698.222 c 1.345,-0.203 -1.312,-1.778 -1.329,-1.788 -2.475,-1.414 -4.957,-2.412 -7.753,-2.991 -0.108,-0.022 -2.106,-0.55 -2.326,-0.111 -0.431,0.862 0.499,2.23 0.886,3.102 1.466,3.297 2.756,4.243 5.538,6.534 0.519,0.427 2.211,2.109 2.99,1.329 z"
             style="fill:#dd83cb"
             id="path419" />
        </g>
        <g
           transform="matrix(0.221105,0.260617,-0.316872,0.272842,571.929,385.235)"
           id="g425">
          <path
             d="m 428.827,698.222 c 1.345,-0.203 -1.312,-1.778 -1.329,-1.788 -2.475,-1.414 -4.957,-2.412 -7.753,-2.991 -0.108,-0.022 -2.106,-0.55 -2.326,-0.111 -0.431,0.862 0.499,2.23 0.886,3.102 1.466,3.297 2.756,4.243 5.538,6.534 0.519,0.427 2.211,2.109 2.99,1.329 z"
             style="fill:#dd83cb"
             id="path423" />
        </g>
        <g
           transform="matrix(0.216649,0.710404,-0.313474,0.124489,576.647,296.31)"
           id="g429">
          <path
             d="m 428.827,698.222 c 1.345,-0.203 -1.312,-1.778 -1.329,-1.788 -2.475,-1.414 -4.957,-2.412 -7.753,-2.991 -0.108,-0.022 -2.106,-0.55 -2.326,-0.111 -0.431,0.862 0.499,2.23 0.886,3.102 1.466,3.297 2.756,4.243 5.538,6.534 0.519,0.427 2.211,2.109 2.99,1.329 z"
             style="fill:#dd83cb"
             id="path427" />
        </g>
        <g
           transform="matrix(-0.216649,-0.710404,0.313474,-0.124489,322.536,1129.89)"
           id="g433">
          <path
             d="m 428.827,698.222 c 1.345,-0.203 -1.312,-1.778 -1.329,-1.788 -2.475,-1.414 -4.957,-2.412 -7.753,-2.991 -0.108,-0.022 -2.106,-0.55 -2.326,-0.111 -0.431,0.862 0.499,2.23 0.886,3.102 1.466,3.297 2.756,4.243 5.538,6.534 0.519,0.427 2.211,2.109 2.99,1.329 z"
             style="fill:#dd83cb"
             id="path431" />
        </g>
      </g>
      <g
         transform="translate(371.714,191.333)"
         id="g445">
        <g
           transform="matrix(0.762474,0,0,0.701993,90.2784,110.212)"
           id="g439">
          <path
             d="m 305.87,483.87 c 5.728,-21.319 8.061,-20.904 11.199,0.797 3.262,22.564 23.6,44.693 25.129,58.959 2.05,19.144 -12.644,33.758 -33.443,34.886 -25.649,1.39 -47.615,-35.768 -28.859,-58.198 9.079,-10.858 21.656,-20.371 25.974,-36.444 z"
             style="fill:#301a9d"
             id="path437" />
        </g>
        <g
           transform="matrix(0.764071,0,0,0.773322,159.455,-68.0389)"
           id="g443">
          <path
             d="m 206.831,746.5 c -14.777,-5.915 -24.316,-26.123 -12.439,-39.2 6.923,-7.622 16.512,-14.3 19.805,-25.583 4.367,-14.966 6.146,-14.675 8.538,0.559 0.399,2.541 1.133,5.074 2.089,7.577 -3.392,11.056 -12.846,17.671 -19.692,25.208 -8.584,9.451 -5.982,22.626 1.699,31.439 z"
             style="fill:#6758ae"
             id="path441" />
        </g>
      </g>
      <g
         transform="matrix(0.611662,0,0,0.611662,1357.75,-239.932)"
         id="g455">
        <g
           transform="translate(14.3917,4.33309)"
           id="g449">
          <path
             d="m 341.469,1102.87 c 0,-10.92 -6.908,-21.8 -11.669,-31.33 -10.103,-20.2 -33.755,-48.12 -55.278,-55.27 -6.678,-2.22 -21.742,-9.47 -30.171,-15.5 -3.568,-2.555 -7.347,-5.305 -9.404,2.68 -2.548,9.9 -5.616,23.48 -5.875,26.33 -1.894,20.83 3.179,40.75 12.284,58.96 15.564,31.13 66.511,36.08 91.28,19.57 3.211,-2.14 8.833,-4.61 8.833,-5.44 z"
             style="fill:#137440"
             id="path447" />
        </g>
        <g
           transform="matrix(0.833679,0,0,1.26645,38.6475,-300.253)"
           id="g453">
          <path
             d="m 264.767,1046.83 c -2.418,1.57 3.413,8.65 14.395,19.16 8.34,7.97 22.773,18.13 31.836,22.42 30.531,14.46 78.847,30.13 109.06,34.34 1.975,0.27 3.917,-0.56 4.335,-1.86 0.417,-1.3 -0.828,-2.88 -2.822,-2.85 -27.37,0.43 -103.311,-27.92 -132.406,-48.6 -9.297,-6.61 -22.783,-23.65 -24.398,-22.61 z"
             style="fill:#43af29"
             id="path451" />
        </g>
      </g>
      <g
         transform="matrix(0.546954,0,0,0.546954,682.119,52.4545)"
         id="g473">
        <g
           transform="matrix(0.833337,0,0,1,-237.821,-93.9973)"
           id="g459">
          <path
             d="m 827.187,1210.73 c -10.258,9.87 -7.501,29.99 -1.14,46.47 2.939,7.62 6.647,14.46 10.197,19.16 10.167,13.45 3.587,24.59 -11.89,29.13 -23.483,6.88 -59.542,0.92 -62.791,-16.51 -4.534,-24.31 8.229,-44.09 -0.145,-78.25"
             style="fill:#9b5c14"
             id="path457" />
        </g>
        <g
           transform="matrix(0.833337,0,0,1,-237.821,-93.9973)"
           id="g463">
          <path
             d="m 811.765,1210.73 15.048,1.18 c -5.732,8.23 7.243,58.42 9.431,64.45 5.758,15.85 3.587,24.59 -11.89,29.13 -16.849,4.93 -40.172,3.26 -53.206,-4.51 12.457,2.93 27.589,2.74 39.49,-0.75 15.477,-4.53 17.648,-13.28 11.89,-29.13 -1.917,-5.28 -13.302,-43.97 -10.763,-60.37 z"
             style="fill:#6f410d"
             id="path461" />
        </g>
        <g
           transform="matrix(0.848537,0.0240582,0.0150208,0.836055,-261.744,181.083)"
           id="g467">
          <path
             d="m 882.7,1088.4 c 0.182,-3.32 -17.215,-37.27 -22.346,-42.01 -20.957,-19.34 -35.685,-22.06 -62.567,-24.13 -43.876,-3.38 -97.141,28.75 -101.002,75.08 -0.623,7.47 -6.069,18.94 -4.022,26.81 5.924,22.79 188.354,-6.94 189.937,-35.75 z"
             style="fill:#cd900b"
             id="path465" />
        </g>
        <g
           transform="matrix(0.824413,-0.101365,0.122035,0.992526,-357.951,86.7224)"
           id="g471">
          <path
             d="m 874.118,1110.29 c -4.253,5.31 -8.99,14.42 -27.072,16.93 -50.928,7.06 -146.259,-1.86 -159.483,-13.9 -1.34,1.06 -5.688,11.14 -4.406,15.25 4.768,15.25 124.827,19.55 174.968,7.87 12.682,-2.96 19.761,-8.61 20.694,-13.4 0.138,-0.72 -3.299,-9.25 -4.701,-12.75 z"
             style="fill:#b9820a"
             id="path469" />
        </g>
      </g>
      <g
         transform="matrix(1.43719,0,0,1.43719,-1.55966,-397.68)"
         id="g489">
        <path
           d="m 823.671,768.883 c 3.146,-0.524 12.746,-8.063 13.612,-9.507 1.607,-2.677 4.019,-6.357 3.458,-9.723 -0.874,-5.24 -9.31,-12.24 -13.397,-14.692 -9.111,-5.467 -22.027,-8.823 -32.842,-6.914 -3.461,0.611 -6.552,2.178 -9.939,3.025 -1.898,0.474 -3.554,0.756 -5.401,1.512 -7.281,2.979 -7.137,9.469 -6.05,15.989 0.438,2.632 0.831,6.012 2.593,7.994 2.822,3.175 6.823,3.922 10.371,6.05 5.713,3.428 13.055,6.892 19.878,7.346 5.471,0.365 12.365,-0.188 17.717,-1.08 z"
           style="fill:#808080"
           id="path475" />
        <path
           d="m 820.573,731.582 c -0.076,0.037 -0.152,0.076 -0.228,0.118 -0.402,0.221 -8.102,2.294 -9.395,3.155 -0.679,0.453 -1.59,0.631 -2.516,0.767 -1.141,0.169 -2.313,0.252 -3.272,0.457 -2.107,0.452 -3.988,1.691 -5.957,2.586 -2.241,1.019 -6.488,3.929 -8.2,5.927 -0.839,0.979 -0.836,1.099 -0.776,1.578 0.03,0.241 0.256,0.498 0.033,1.147 -0.641,1.873 -0.985,3.865 -0.985,5.777 0,0.556 -0.094,1.596 -0.011,2.408 0.054,0.538 0.192,1.002 0.385,1.324 0.71,1.182 1.693,2.019 2.217,3.331 0.822,2.055 1.462,4.268 1.97,6.512 1.054,0.462 2.126,0.895 3.208,1.285 -0.211,-3.347 -0.639,-6.705 -2.913,-8.703 -2.074,-1.822 -2.699,-7.063 -1.872,-11.004 0.465,-2.212 0.019,-1.738 1.399,-2.297 2.071,-0.84 4.651,-4.199 6.554,-5.064 1.811,-0.823 3.522,-2.007 5.459,-2.422 1.115,-0.239 2.527,-0.301 3.829,-0.547 1.043,-0.198 2.021,-0.512 2.801,-1.032 0.829,-0.553 7.283,-3.448 9.682,-4.699 -0.466,-0.207 -0.936,-0.409 -1.412,-0.604 z"
           style="fill:#dedede"
           id="path477" />
        <path
           d="m 811.966,728.83 c -1.075,0.337 -2.17,0.624 -3.194,0.839 -4.116,0.867 -7.791,2.923 -11.751,4.243 -3.854,1.284 -8.858,4.88 -12.302,7.176 -1.549,1.033 -1.571,1.622 -1.557,3.665 0.016,2.394 2.514,12.495 2.614,13.746 0.11,1.376 0.197,2.751 0.311,4.125 0.831,0.498 1.696,0.997 2.589,1.487 -0.206,-1.934 -0.314,-3.869 -0.469,-5.806 -0.116,-1.457 -0.701,-2.992 -1.268,-4.317 -0.514,-1.202 -1.233,-6.774 -1.423,-8.951 -0.134,-1.534 0.154,-2.805 1.897,-3.407 3.418,-1.183 7.326,-4.819 10.379,-5.404 4.009,-0.769 7.457,-3.323 11.482,-4.17 2.165,-0.456 4.622,-1.211 6.638,-2.075 0.019,-0.008 0.055,-0.025 0.102,-0.047 -1.329,-0.417 -2.682,-0.786 -4.048,-1.104 z m 4.542,1.261 c 0.18,0.126 0.396,0.205 0.632,0.218 l 0.031,10e-4 c -0.22,-0.074 -0.441,-0.147 -0.663,-0.219 z"
           style="fill:#faf9f9"
           id="path479" />
        <g
           transform="matrix(0.993729,-0.111815,0.13226,1.17543,-93.6111,-42.2208)"
           id="g483">
          <path
             d="m 775.407,749.93 c 0,0 1.53,2.926 2.166,3.377 1.945,1.377 3.99,2.279 6.181,3.122 4.154,1.598 8.613,2.976 12.552,5.097 3.664,1.973 8.239,3.891 12.362,4.716 2.868,0.573 5.64,1.785 8.474,0.509 0.645,-0.29 7.969,-2.937 7.784,-4.108 -0.11,-0.692 -3.421,-1.894 -8.908,-3.904 -3.265,-1.197 -8.536,-2.439 -11.901,-2.699 -2.8,-0.217 -4.233,-4.225 -6.728,-5.473 -2.76,-1.38 -5.532,-2.106 -8.41,-3.122 -2.06,-0.727 -4.043,-1.736 -6.117,-2.358 -2.252,-0.675 -5.723,-2.497 -7.774,-0.446 -0.363,0.363 -1.312,1.828 -0.955,2.422 0.76,1.268 2.001,1.231 1.274,2.867 z"
             style="fill:#716f6f"
             id="path481" />
        </g>
        <path
           d="m 783.314,746.147 c 0.698,4.132 2.383,11.358 2.462,12.352 0.026,0.32 0.05,0.64 0.074,0.959 0.826,0.264 1.662,0.519 2.501,0.773 -0.046,-0.642 -0.092,-1.284 -0.144,-1.926 -0.116,-1.457 -0.786,-2.959 -1.268,-4.317 -0.302,-0.852 -0.882,-4.255 -1.221,-7.08 -0.799,-0.283 -1.599,-0.551 -2.404,-0.761 z"
           style="fill:#d3c3c3"
           id="path485" />
        <path
           d="m 789.951,748.32 c -0.441,1.572 -0.674,3.2 -0.674,4.774 0,0.556 -0.094,1.596 -0.011,2.408 0.054,0.538 0.192,1.002 0.385,1.324 0.71,1.182 1.693,2.019 2.217,3.331 0.173,0.433 0.339,0.874 0.496,1.32 1.331,0.436 2.653,0.904 3.947,1.437 -0.421,-1.433 -1.087,-2.705 -2.178,-3.663 -1.96,-1.722 -2.626,-6.498 -1.995,-10.344 -0.723,-0.192 -1.451,-0.382 -2.187,-0.587 z"
           style="fill:#d3c3c3"
           id="path487" />
      </g>
      <g
         transform="matrix(0.682699,0,0,0.682699,-573.746,-257.682)"
         id="g547">
        <g
           transform="translate(-22.3769,-8.99666)"
           id="g493">
          <path
             d="m 1278.78,1287.05 c -15.04,-3.57 40.59,24.65 65.3,12.45 2.74,-1.36 -14.6,-12.58 -16.77,-13.82 -7.45,-4.25 -15.18,-7.66 -23.68,-8.87 z"
             style="fill:#814f2e"
             id="path491" />
        </g>
        <path
           d="m 1258.05,1158.24 c 3.38,0.89 33.24,-5.29 36.71,-5.72 25.17,-3.15 -9.55,-29.43 -46.08,-4.7 -3.79,2.56 -8.86,1.09 -12.65,1.94 z"
           style="fill:#814f2e"
           id="path495" />
        <path
           d="m 1124.39,1186.46 c -3.78,-4.17 5.53,-22.48 8.46,-29.98 5.25,-13.49 50.75,-54.27 64.59,-39.48 4.01,4.29 -18.5,23.35 -19.5,24.53 z"
           style="fill:#814f2e"
           id="path497" />
        <path
           d="m 1118.85,1238.35 c -0.74,-3.44 7.7,37.15 16.38,43.09 14.18,9.72 21.94,27.43 39.18,30.88 25.47,5.09 11.95,-26.2 -6.51,-28.25 z"
           style="fill:#814f2e"
           id="path499" />
        <path
           d="m 1312.45,1182.17 c 2.52,-0.96 -22.41,-16.99 -47.3,-30.38 -13.3,-7.15 -44.87,-12.62 -65.91,-13.68 -7.82,-0.39 -40.5,8.96 -50.19,15.42 -18.65,12.45 -32.13,30.81 -35.64,55.37 -0.78,5.43 1.47,28.45 14.32,46.43 11.93,16.69 34.87,26.48 40.92,29.53 15.59,7.85 149.27,-5.61 141.67,-40.16 z"
           style="fill:#a35e31"
           id="path501" />
        <path
           d="m 1115.03,1225.52 c -6.65,-99.46 182.47,-84.39 196.65,-20.82 l 0.77,-22.53 c 2.52,-0.96 -22.41,-16.99 -47.3,-30.38 -13.3,-7.15 -44.87,-12.62 -65.91,-13.68 -7.82,-0.39 -40.5,8.96 -50.19,15.42 -18.65,12.45 -32.13,30.81 -35.64,55.37 -0.36,2.52 -0.07,8.81 1.62,16.62 z"
           style="fill:#945933"
           id="path503" />
        <path
           d="m 1305.48,1184.39 c 0,0 -68.86,-30.93 -88.65,-16.09 -33.85,25.38 32.46,35.48 44.39,39.46 8.8,2.93 18.87,-0.95 27.62,1.97 2.27,0.76 9.3,1.97 6.9,1.97 -14.72,0 -30.67,-3.71 -46.36,-1.97 -66.67,7.41 6.64,72.62 57.21,28.61 l 0.38,0.4 c 35.57,30.32 93.85,0.79 79.53,-40.85 -2.91,-8.43 -9.9,-16.31 -19.27,-21.77 -7.88,-4.6 -22.4,-7.4 -31.72,-5.52 -7.95,1.6 -30.07,13.92 -30.03,13.79 z"
           style="fill:#814f2e"
           id="path505" />
        <g
           transform="matrix(1,0,0,0.865221,-0.739947,155.259)"
           id="g509">
          <path
             d="m 1226.58,1183.23 c 10.24,9.35 77.12,15.7 72.96,7.64 -2.04,-3.95 -44.55,-15.46 -61.23,-16.57 -5.23,-0.35 -13.81,-1.89 -16.38,3.9 -2.11,4.76 1.84,2.47 4.65,5.03 z"
             style="fill:#dc9fb6"
             id="path507" />
        </g>
        <g
           transform="matrix(1.11253,0,0,0.943565,-128.976,69.3989)"
           id="g513">
          <path
             d="m 1118.2,1200.18 c 0.53,-1.82 2.46,-1.67 3.97,-1.67 3.45,-0.01 5.68,-0.01 9,1.08 1.91,0.62 3.8,1.37 5.57,2.33 4.59,2.5 6.92,7.68 8.36,12.41 0.61,1.98 1.23,4.47 0.99,6.57 -0.29,2.53 -3.77,3.71 -5.48,4.68 -1.15,0.64 -14.41,4.28 -16.82,4.13 -1.38,-0.09 -2.44,-1.17 -3.33,-2.07 -0.2,-0.21 -0.97,-1.09 -0.54,-1.52 z"
             style="fill:#945933"
             id="path511" />
        </g>
        <path
           d="m 1303.08,1231.18 c 2.53,-0.98 -48,-1.41 -56.58,0.25 -3.15,0.61 -7.24,1.73 -8.58,5.07 -0.59,1.48 1.32,2.58 2.15,3.32 3.57,3.17 7.05,4.44 11.7,5.65 11.65,3.04 49.13,-4.51 49.13,-8.38 z"
           style="fill:#dc9fb6"
           id="path515" />
        <g
           transform="matrix(1.49744,0,0,1.24637,-567.139,-294.512)"
           id="g519">
          <path
             d="m 1119.3,1202.45 c 0.53,-2.5 6.43,-0.94 8.82,0.42 11.85,6.77 23.51,14.46 -4.01,23.63 -6.81,-1.67 -7.62,-11.06 -4.81,-24.05 z"
             style="fill:#ffffff"
             id="path517" />
        </g>
        <g
           transform="translate(41.8678,-16.7107)"
           id="g523">
          <path
             d="m 1070.74,1249.92 c -6.85,-3.92 -7.29,-14.59 -3.63,-28.66 0.8,-3.11 9.64,-1.17 13.2,0.52 7.91,3.76 15.76,7.75 18.39,12.02 -3.7,-2.81 -10.06,-3.17 -15.44,-5.86 -13.87,-6.94 -20.43,14.18 -12.52,21.98 z"
             style="fill:#f4dcdc"
             id="path521" />
        </g>
        <g
           transform="matrix(0.773882,-0.192258,0.241105,0.970499,16.1262,295.675)"
           id="g527">
          <path
             d="m 1352.23,1232.03 c -2.46,-1.12 -4.7,-3.02 -7.37,-3.69 -5.94,-1.48 -16.96,2.32 -15.68,9.96 0.44,2.63 3.67,3.76 5.71,4.61 5.93,2.47 16.29,2.43 20.85,-2.58 2.52,-2.77 -0.48,-6.93 -3.51,-8.3 z"
             style="fill:#ffffff"
             id="path525" />
        </g>
        <g
           transform="matrix(0.774576,0.189443,0.237573,-0.97137,22.4,2133.65)"
           id="g531">
          <path
             d="m 1352.23,1232.03 c -2.46,-1.12 -4.7,-3.02 -7.37,-3.69 -5.94,-1.48 -16.96,2.32 -15.68,9.96 0.44,2.63 3.67,3.76 5.71,4.61 5.93,2.47 16.29,2.43 20.85,-2.58 2.52,-2.77 -0.48,-6.93 -3.51,-8.3 z"
             style="fill:#ffffff"
             id="path529" />
        </g>
        <g
           transform="matrix(0.826635,0,0,0.89935,243.943,122.706)"
           id="g535">
          <path
             d="m 1353.28,1236.53 c 0,0 -2.97,-1.21 -4.18,-1.7 -5.04,-2.05 -13.65,5.98 -7.3,9.57 5.32,3 15.6,-2.4 11.48,-7.87 z"
             id="path533" />
        </g>
        <g
           transform="matrix(0.826635,0,0,-0.89935,246.478,2302.13)"
           id="g539">
          <path
             d="m 1353.28,1236.53 c 0,0 -2.92,-1.34 -4.18,-1.7 -5.5,-1.58 -11.36,6.56 -7.3,9.57 4.91,3.64 15.6,-2.4 11.48,-7.87 z"
             id="path537" />
        </g>
        <path
           d="m 1388.13,1201.32 c -2.54,-0.5 -4.48,0.68 -7.11,2.62 -4.9,3.62 -9.33,8.48 -8.93,14.93 0.22,3.4 3.8,5.21 6.15,7.17 0.73,0.61 1.29,1.16 2.2,1.47 0.24,0.08 4.43,1.06 3.72,1.06 6.15,-5.07 9.44,-13.96 3.97,-27.25 z"
           style="fill:#de9090"
           id="path541" />
        <g
           transform="matrix(0.687987,0,0,0.768029,402.553,261.813)"
           id="g545">
          <path
             d="m 1426.82,1228.18 c 4.48,12.29 1.24,20.61 -4.6,25.46 0.05,0.03 0.04,0.04 -0.05,0.04 l 0.05,-0.04 c -0.11,-0.06 -0.55,-0.19 -1.1,-0.34 0.4,0.31 0.81,0.57 1.34,0.75 0.21,0.07 3.43,0.83 3.77,1.02 l -0.05,0.04 c 0.09,0 0.1,-0.01 0.05,-0.04 6.12,-5.08 9.38,-13.95 3.92,-27.21 -1.2,-0.23 -2.26,-0.09 -3.33,0.32 z"
             style="fill:#f9e2e2"
             id="path543" />
        </g>
      </g>
    </g>
  </g>
</svg>
