<?xml version="1.0" encoding="UTF-8"?>
<!-- Created with Inkscape (http://www.inkscape.org/) -->
<svg id="svg1361" width="133.06mm" height="19.498mm" version="1.1" viewBox="0 0 133.06 19.498" xmlns="http://www.w3.org/2000/svg">
 <g id="layer1" transform="translate(-2.8376 -37.293)">
  <g id="g2486" transform="translate(-7.8967)">
   <path id="path8697" d="m125.53 45.007c-.38381-.0051-.80013.09171-1.2313.3082a.28313.28313 0 00-.12534.37898.28313.28313 0 00.38045.12682c.72961-.36631 1.2727-.30791 1.7179-.03391.44522.274.79493.80389.98651 1.4304.1916.62649.22259 1.3409.0768 1.9376-.14593.59671-.45503 1.0616-.93344 1.2814-1.004.46144-2.4817.24128-4.2292-.17253-1.7475-.41382-3.7496-.99895-5.8262-1.1369a.28313.28313 0 00-.30083.26396.28313.28313 0 00.26248.30082c1.9942.13251 3.9642.70473 5.7333 1.1237 1.769.41892 3.3529.70637 4.5979.13418.67019-.30803 1.0717-.94734 1.246-1.6604.17436-.71308.13548-1.5143-.0855-2.237-.22103-.72273-.62651-1.3752-1.2313-1.7474-.30239-.1861-.65431-.2928-1.0381-.29787z" style="-inkscape-stroke:none;color:#000000;fill:#000000;stroke-linecap:round;stroke-linejoin:round;stroke-width:.755"/>
   <ellipse id="path1488-3-3-6-40-0-8-3-6-9" transform="matrix(-.96204 .27289 -.27288 -.96205 0 0)" cx="-98.826" cy="-79.14" rx="6.3443" ry="6.3445" style="fill:#f4ebe5;font-variation-settings:normal;paint-order:stroke fill markers;stop-color:#000000"/>
   <path id="path1488-2-5-7-2-05-8-6-1-1-8" d="m118.41 55.27a6.3445 6.3443 89.998 004.3672-7.8336 6.3445 6.3443 89.998 00-3.3612-3.9894 6.3445 6.3443 89.998 01.97311 2.0008 6.3445 6.3443 89.998 01-4.3722 7.835 6.3445 6.3443 89.998 01-4.4736-.383 6.3445 6.3443 89.998 006.8617 2.3716 6.3445 6.3443 89.998 00.006-.002z" style="fill:#f4dccc;font-variation-settings:normal;paint-order:stroke fill markers;stop-color:#000000"/>
   <ellipse id="path1538-3-0-0-6-0-2-8-7-8" transform="matrix(-.96204 .27289 -.27288 -.96205 0 0)" cx="-98.14" cy="-75.539" rx="1.4174" ry="1.4174" style="fill:#fcf8f5;font-variation-settings:normal;paint-order:stroke fill markers;stop-color:#000000"/>
   <ellipse id="path1488-0-5-3-11-8-4-5-9-0-7" transform="matrix(-.96204 .27289 -.27288 -.96205 0 0)" cx="-98.826" cy="-79.14" rx="6.3443" ry="6.3445" style="-inkscape-stroke:none;fill:none;font-variation-settings:normal;paint-order:stroke fill markers;stop-color:#000000;stroke-width:.12038;stroke:#000000"/>
   <path id="path1651-4-7-6-0" d="m110.87 47.813c-.18912.2692-.18512.46096-.18512.77121 0 .27859.005.54824.0285.82514.0154.17363.19543.67041.4628.52312.50616-.27882.78485-1.7272.25633-2.0548-.0856-.05308-.46892-.05005-.56249-.06471z" style="fill:#aba5a0;font-variation-settings:normal;paint-order:stroke fill markers;stop-color:#000000"/>
   <path id="path1651-5-1" d="m110.87 47.813c-.18912.2692-.18512.46096-.18512.77121 0 .27859.005.54824.0285.82514.0154.17363.19543.67041.4628.52312.50616-.27882.78485-1.7272.25633-2.0548-.0856-.05308-.46892-.05005-.56249-.06471z" style="fill:none;font-variation-settings:normal;paint-order:stroke fill markers;stop-color:#000000;stroke-width:.12038;stroke:#000000"/>
   <path id="path1920-5" d="m115.92 42.869a6.3445 6.3443 89.921 00-.0894.01126c-3.3802 3.6323 2.2194 8.4075-1.2159 12.279l.15016.0566c5.524-3.7267-1.5609-7.9263 1.1539-12.273zm1.7823.04003c3.3894 3.8515-2.1245 8.593 1.1555 12.214a6.3445 6.3443 89.921 00.1145-.0469c-2.6249-4.281 4.1995-8.418-.93403-12.1a6.3445 6.3443 89.921 00-.33597-.06693zm-5.1647 1.4495a6.3445 6.3443 89.921 00-.59588.58682c.31056 2.8003 2.1658 5.8319.0134 8.4645a6.3445 6.3443 89.921 00.12826.13857c4.0618-2.8389.9329-5.9499.4542-9.1898zm9.3663 1.2271c.23441 2.7103-1.6914 5.614-.83582 8.1498a6.3445 6.3443 89.921 00.37536-.39288c-.17404-1.895.93464-3.7522 1.4204-5.5441a6.3445 6.3443 89.921 00-.0885-.36254 6.3445 6.3443 89.921 00-.87148-1.8502z" style="-inkscape-stroke:none;color:#000000;fill:#d35f5f;stroke-width:.60531"/>
   <path id="path1538-3-0-0-6-0-2-8-7-9-08" d="m115.06 44.473a1.4174 1.4173 89.989 00-.17581.0077c-.27737.9017-.2128 1.8488-.0272 2.8162a1.4174 1.4173 89.989 00.55742-.04347 1.4174 1.4173 89.989 00.20863-.07789c-.27326-.88014-.44064-1.7713-.29841-2.6707a1.4174 1.4173 89.989 00-.26463-.0319z" style="fill:#e9afaf;font-variation-settings:normal;paint-order:stroke fill markers;stop-color:#000000"/>
   <path id="path1488-2-5-7-2-05-8-6-1-1-3-9-9" d="m121.9 45.586c.23441 2.7103-1.6914 5.614-.83582 8.1498a6.3445 6.3443 89.921 00.37536-.39288c-.17404-1.895.93464-3.7522 1.4204-5.5441a6.3445 6.3443 89.921 00-.0885-.36254 6.3443 6.3445.0069196 00-.12826-.39788 6.3445 6.3443 89.921 00-.11104-.28152 6.3443 6.3445.0069196 00-.0422-.1051 6.3445 6.3443 89.921 00-.14327-.30436 6.3443 6.3445.0069196 00-.0335-.06912 6.3445 6.3443 89.921 00-.18267-.32969 6.3443 6.3445.0069196 00-.0132-.02284 6.3445 6.3443 89.921 00-.21583-.33751 6.3443 6.3445.0069196 00-.002-.0021zm-3.4771 6.3971a6.3443 6.3445.0069196 01-.65095.49204c.0399.92556.32864 1.8165 1.082 2.6482a6.3445 6.3443 89.921 00.1145-.047c-.63837-1.0411-.71701-2.0737-.54554-3.0933zm-1.726 1.0613a6.3443 6.3445.0069196 01-.68566.23805 6.3443 6.3445.0069196 01-.40884.10009c-.17069.60785-.48166 1.2026-.99159 1.7773l.15016.0566c1.049-.70774 1.6429-1.4325 1.9359-2.1721zm-4.5472.10604c-.0615.08603-.12659.17164-.19613.25681a6.3443 6.3445.0069196 00.12763.14045c.13818-.09663.26722-.19366.38912-.29091a6.3443 6.3445.0069196 01-.32062-.10635z" style="fill:#ab5c5c;font-variation-settings:normal;paint-order:stroke fill markers;stop-color:#000000"/>
   <path id="path8707" d="m106.15 48.204a.28313.28313 0 00-.30524.25806.28313.28313 0 00.25953.30525c1.8142.14872 3.5006.29613 4.9591.42764a.28313.28313 0 00.30819-.25658.28313.28313 0 00-.25657-.30672c-1.4598-.13162-3.1491-.27877-4.965-.42764z" style="-inkscape-stroke:none;color:#000000;fill:#000000;stroke-linecap:round;stroke-linejoin:round;stroke-width:.755"/>
   <ellipse id="path1488-3-3-6-40-0-8-3-6" transform="matrix(-.96204 .27289 -.27288 -.96205 0 0)" cx="-85.43" cy="-74.204" rx="6.3443" ry="6.3445" style="fill:#f4ebe5;font-variation-settings:normal;paint-order:stroke fill markers;stop-color:#000000"/>
   <path id="path1488-2-5-7-2-05-8-6-1-1" d="m104.17 54.177a6.3445 6.3443 89.998 004.3672-7.8336 6.3445 6.3443 89.998 00-3.3612-3.9894 6.3445 6.3443 89.998 01.9731 2.0008 6.3445 6.3443 89.998 01-4.3722 7.835 6.3445 6.3443 89.998 01-4.4736-.383 6.3445 6.3443 89.998 006.8617 2.3716 6.3445 6.3443 89.998 00.006-.0019z" style="fill:#f4dccc;font-variation-settings:normal;paint-order:stroke fill markers;stop-color:#000000"/>
   <ellipse id="path1538-3-0-0-6-0-2-8-7" transform="matrix(-.96204 .27289 -.27288 -.96205 0 0)" cx="-84.743" cy="-70.603" rx="1.4174" ry="1.4174" style="fill:#fcf8f5;font-variation-settings:normal;paint-order:stroke fill markers;stop-color:#000000"/>
   <ellipse id="path1488-0-5-3-11-8-4-5-9-0" transform="matrix(-.96204 .27289 -.27288 -.96205 0 0)" cx="-85.43" cy="-74.204" rx="6.3443" ry="6.3445" style="-inkscape-stroke:none;fill:none;font-variation-settings:normal;paint-order:stroke fill markers;stop-color:#000000;stroke-width:.12038;stroke:#000000"/>
   <path id="path1651-4-7" d="m96.636 46.72c-.18912.2692-.18512.46096-.18512.77121 0 .27859.005.54824.0285.82514.0154.17363.19545.67041.46281.52312.50615-.27882.78486-1.7272.25633-2.0548-.0856-.05307-.46891-.05005-.56249-.06471z" style="fill:#aba5a0;font-variation-settings:normal;paint-order:stroke fill markers;stop-color:#000000"/>
   <path id="path1651-5" d="m96.636 46.72c-.18912.2692-.18512.46096-.18512.77121 0 .27859.005.54824.0285.82514.0154.17363.19545.67041.46282.52312.50614-.27882.78485-1.7272.25632-2.0548-.0856-.05307-.46891-.05005-.56249-.06471z" style="fill:none;font-variation-settings:normal;paint-order:stroke fill markers;stop-color:#000000;stroke-width:.12038;stroke:#000000"/>
   <path id="path1920" d="m101.68 41.776a6.3445 6.3443 89.921 00-.0894.01126c-3.3802 3.6323 2.2194 8.4075-1.2159 12.279l.15013.05663c5.524-3.7267-1.5609-7.9263 1.1539-12.273zm1.7824.04003c3.3894 3.8515-2.1245 8.593 1.1555 12.214a6.3445 6.3443 89.921 00.11448-.04696c-2.6249-4.281 4.1995-8.418-.93402-12.1a6.3445 6.3443 89.921 00-.33594-.06693zm-5.1647 1.4495a6.3445 6.3443 89.921 00-.5959.58682c.31054 2.8003 2.1658 5.8319.0135 8.4645a6.3445 6.3443 89.921 00.12825.13857c4.0618-2.8389.93289-5.9499.45419-9.1898zm9.3663 1.2271c.23441 2.7103-1.6914 5.614-.8358 8.1498a6.3445 6.3443 89.921 00.37536-.39288c-.17406-1.895.93462-3.7522 1.4204-5.5441a6.3445 6.3443 89.921 00-.0885-.36254 6.3445 6.3443 89.921 00-.87148-1.8502z" style="-inkscape-stroke:none;color:#000000;fill:#d35f5f;stroke-width:.60531"/>
   <path id="path1538-3-0-0-6-0-2-8-7-9" d="m100.83 43.38a1.4174 1.4173 89.989 00-.17579.0077c-.27737.9017-.21282 1.8488-.0273 2.8162a1.4174 1.4173 89.989 00.55742-.04347 1.4174 1.4173 89.989 00.20864-.07789c-.27323-.88014-.44063-1.7713-.29841-2.6707a1.4174 1.4173 89.989 00-.26462-.0319z" style="fill:#e9afaf;font-variation-settings:normal;paint-order:stroke fill markers;stop-color:#000000"/>
   <path id="path1488-2-5-7-2-05-8-6-1-1-3" d="m107.67 44.493c.23441 2.7103-1.6914 5.614-.8358 8.1498a6.3445 6.3443 89.921 00.37536-.39288c-.17406-1.895.93462-3.7522 1.4204-5.5441a6.3445 6.3443 89.921 00-.0885-.36254 6.3443 6.3445.0069196 00-.12824-.39788 6.3445 6.3443 89.921 00-.11107-.28152 6.3443 6.3445.0069196 00-.0423-.1051 6.3445 6.3443 89.921 00-.14326-.30436 6.3443 6.3445.0069196 00-.0335-.06913 6.3445 6.3443 89.921 00-.18268-.32969 6.3443 6.3445.0069196 00-.0131-.02284 6.3445 6.3443 89.921 00-.21584-.33751 6.3443 6.3445.0069196 00-.002-.0021zm-3.4771 6.3971a6.3443 6.3445.0069196 01-.65097.49204c.0399.92556.32863 1.8165 1.082 2.6482a6.3445 6.3443 89.921 00.11448-.04696c-.63835-1.0411-.71698-2.0737-.5455-3.0933zm-1.7261 1.0613a6.3443 6.3445.0069196 01-.68566.23805 6.3443 6.3445.0069196 01-.40883.10009c-.17069.60785-.48167 1.2026-.99159 1.7774l.15013.05663c1.049-.70774 1.6429-1.4325 1.936-2.1721zm-4.5472.10604c-.0614.08603-.12658.17164-.1961.25682a6.3443 6.3445.0069196 00.12763.14045c.13817-.09663.2672-.19366.38911-.29091a6.3443 6.3445.0069196 01-.32064-.10636z" style="fill:#ab5c5c;font-variation-settings:normal;paint-order:stroke fill markers;stop-color:#000000"/>
   <path id="path8705" d="m92.852 47.318a.28313.28313 0 00-.29492.27133.28313.28313 0 00.26986.29492c1.3584.06104 2.7734.13812 4.2041.22562a.28313.28313 0 00.29936-.26543.28313.28313 0 00-.26544-.29935c-1.4332-.08766-2.8509-.1659-4.213-.22709z" style="-inkscape-stroke:none;color:#000000;fill:#000000;stroke-linecap:round;stroke-linejoin:round;stroke-width:.755"/>
   <ellipse id="path1488-3-3-6-40-0-8-3-4-3" transform="matrix(-.96204 .27289 -.27288 -.96205 0 0)" cx="-72.205" cy="-70.436" rx="6.3445" ry="6.3447" style="fill:#2ad4ff;font-variation-settings:normal;paint-order:stroke fill markers;stop-color:#000000"/>
   <path id="path1488-2-5-7-2-05-8-6-1-7-6" d="m90.422 54.161a6.3447 6.3445 89.993 004.3673-7.8338 6.3447 6.3445 89.993 00-3.3613-3.9895 6.3447 6.3445 89.993 01.97314 2.0009 6.3447 6.3445 89.993 01-4.3724 7.8353 6.3447 6.3445 89.993 01-4.4737-.38301 6.3447 6.3445 89.993 006.8619 2.3716 6.3447 6.3445 89.993 00.006-.0019z" style="fill:#22add0;font-variation-settings:normal;paint-order:stroke fill markers;stop-color:#000000"/>
   <ellipse id="path1538-3-0-0-6-0-2-8-99" transform="matrix(-.96204 .27289 -.27288 -.96205 0 0)" cx="-71.519" cy="-66.835" rx="1.4174" ry="1.4174" style="fill:#97eaff;font-variation-settings:normal;paint-order:stroke fill markers;stop-color:#000000"/>
   <ellipse id="path1488-0-5-3-11-8-4-5-9-23" transform="matrix(-.96204 .27289 -.27288 -.96205 0 0)" cx="-72.205" cy="-70.436" rx="6.3445" ry="6.3447" style="fill:none;font-variation-settings:normal;paint-order:stroke fill markers;stop-color:#000000;stroke-width:.12038;stroke:#000000"/>
   <path id="path1651-4-74" d="m82.885 46.704c-.18913.26921-.18512.46097-.18512.77123 0 .2786.005.54826.0285.82516.0154.17364.19544.67043.46281.52314.50617-.27883.78488-1.7273.25633-2.0548-.0857-.05308-.46893-.05005-.5625-.06471z" style="fill:#17778e;font-variation-settings:normal;paint-order:stroke fill markers;stop-color:#000000"/>
   <path id="path1651-6" d="m82.885 46.704c-.18913.26921-.18512.46097-.18512.77123 0 .2786.005.54826.0285.82516.0154.17364.19544.67043.46281.52314.50617-.27883.78488-1.7273.25633-2.0548-.0857-.05308-.46893-.05005-.56249-.06471z" style="fill:none;font-variation-settings:normal;paint-order:stroke fill markers;stop-color:#000000;stroke-width:.12038;stroke:#000000"/>
   <path id="path8703" d="m83.138 47.284c-1.3877.0766-2.7734.18591-4.157.31262a.28313.28313 0 00-.25659.3082.28313.28313 0 00.3082.25511c1.3789-.12628 2.7576-.23504 4.1363-.31114a.28313.28313 0 00.2669-.29787.28313.28313 0 00-.29786-.26691z" style="-inkscape-stroke:none;color:#000000;fill:#000000;stroke-linecap:round;stroke-linejoin:round;stroke-width:.755"/>
   <ellipse id="path1488-3-3-6-40-0-8-3-1-5" transform="matrix(-.96204 .27289 -.27288 -.96205 0 0)" cx="-59.009" cy="-67.669" rx="6.3445" ry="6.3447" style="fill:#2ad4ff;font-variation-settings:normal;paint-order:stroke fill markers;stop-color:#000000"/>
   <path id="path1488-2-5-7-2-05-8-6-1-13" d="m76.972 55.1a6.3447 6.3445 89.993 004.3673-7.8338 6.3447 6.3445 89.993 00-3.3613-3.9895 6.3447 6.3445 89.993 01.97313 2.0009 6.3447 6.3445 89.993 01-4.3724 7.8352 6.3447 6.3445 89.993 01-4.4738-.38301 6.3447 6.3445 89.993 006.8619 2.3716 6.3447 6.3445 89.993 00.006-.002z" style="fill:#22add0;font-variation-settings:normal;paint-order:stroke fill markers;stop-color:#000000"/>
   <ellipse id="path1538-3-0-0-6-0-2-8-6" transform="matrix(-.96204 .27289 -.27288 -.96205 0 0)" cx="-58.323" cy="-64.068" rx="1.4174" ry="1.4174" style="fill:#97eaff;font-variation-settings:normal;paint-order:stroke fill markers;stop-color:#000000"/>
   <ellipse id="path1488-0-5-3-11-8-4-5-9-4" transform="matrix(-.96204 .27289 -.27288 -.96205 0 0)" cx="-59.009" cy="-67.669" rx="6.3445" ry="6.3447" style="fill:none;font-variation-settings:normal;paint-order:stroke fill markers;stop-color:#000000;stroke-width:.12038;stroke:#000000"/>
   <path id="path1651-4-66" d="m69.435 47.643c-.18913.26921-.18514.46097-.18514.77123 0 .2786.005.54826.0285.82516.0154.17364.19545.67043.46282.52314.50617-.27883.78486-1.7273.25633-2.0548-.0856-.05307-.46892-.05005-.56251-.06471z" style="fill:#17778e;font-variation-settings:normal;paint-order:stroke fill markers;stop-color:#000000"/>
   <path id="path1651-3" d="m69.435 47.643c-.18913.26921-.18514.46097-.18514.77123 0 .2786.005.54826.0285.82516.0154.17364.19545.67043.46282.52314.50617-.27883.78486-1.7273.25633-2.0548-.0856-.05307-.46892-.05005-.56251-.06471z" style="fill:none;font-variation-settings:normal;paint-order:stroke fill markers;stop-color:#000000;stroke-width:.12038;stroke:#000000"/>
   <path id="path8709" d="m69.719 48.529c-1.0989.09955-2.1983.18766-3.2972.25658a.28313.28313 0 00-.26395.30082.28313.28313 0 00.29934.26396c1.1055-.06933 2.2092-.15817 3.312-.25806a.28313.28313 0 00.25656-.30672.28313.28313 0 00-.30672-.25658z" style="-inkscape-stroke:none;color:#000000;fill:#000000;stroke-linecap:round;stroke-linejoin:round;stroke-width:.755"/>
   <ellipse id="path1488-3-3-6-40-0-8-3-0" transform="matrix(-.92703 .375 -.37498 -.92703 0 0)" cx="-38.796" cy="-68.302" rx="6.3445" ry="6.3447" style="fill:#2ad4ff;font-variation-settings:normal;paint-order:stroke fill markers;stop-color:#000000"/>
   <path id="path1488-2-5-7-2-05-8-6-1-9" d="m63.961 54.649a6.3447 6.3445 83.832 003.4975-8.2589 6.3447 6.3445 83.832 00-3.7717-3.6039 6.3447 6.3445 83.832 011.1831 1.8843 6.3447 6.3445 83.832 01-3.5024 8.2609 6.3447 6.3445 83.832 01-4.489.10143 6.3447 6.3445 83.832 007.0776 1.6182 6.3447 6.3445 83.832 00.006-.0019z" style="fill:#22add0;font-variation-settings:normal;paint-order:stroke fill markers;stop-color:#000000"/>
   <ellipse id="path1538-3-0-0-6-0-2-8-9-3" transform="matrix(-.92703 .375 -.37498 -.92703 0 0)" cx="-38.11" cy="-64.7" rx="1.4174" ry="1.4174" style="fill:#97eaff;font-variation-settings:normal;paint-order:stroke fill markers;stop-color:#000000"/>
   <ellipse id="path1488-0-5-3-11-8-4-5-9-6-3" transform="matrix(-.92703 .375 -.37498 -.92703 0 0)" cx="-38.796" cy="-68.302" rx="6.3445" ry="6.3447" style="fill:none;font-variation-settings:normal;paint-order:stroke fill markers;stop-color:#000000;stroke-width:.12038;stroke:#000000"/>
   <path id="path1651-4-79" d="m55.665 48.048c-.159.28803-.13436.47824-.10092.78669.0299.27697.0632.54462.11726.81729.0338.17098.26655.64546.51649.47021.47317-.33176.59412-1.8018.0333-2.0705-.0908-.04353-.47157.000779-.5662-.0036z" style="fill:#17778e;font-variation-settings:normal;paint-order:stroke fill markers;stop-color:#000000"/>
   <path id="path1651-2" d="m55.665 48.048c-.159.28803-.13436.47824-.10092.78669.0299.27697.0632.54462.11726.81729.0338.17098.26655.64546.51649.47021.47318-.33176.59413-1.8018.0333-2.0705-.0908-.04353-.47157.000779-.5662-.0036z" style="fill:none;font-variation-settings:normal;paint-order:stroke fill markers;stop-color:#000000;stroke-width:.12038;stroke:#000000"/>
   <path id="path8711" d="m52.197 48.772a.28313.28313 0 00-.30081.26248.28313.28313 0 00.26249.3023c1.298.08968 2.5993.14353 3.9004.17253a.28313.28313 0 00.28903-.27723.28313.28313 0 00-.27724-.28902c-1.294-.02884-2.5862-.0821-3.8738-.17106z" style="-inkscape-stroke:none;color:#000000;fill:#000000;stroke-linecap:round;stroke-linejoin:round;stroke-width:.755"/>
   <ellipse id="path1488-3-3-6-40-0-8-3-6-4-7" transform="matrix(-.96204 .27289 -.27288 -.96205 0 0)" cx="-32.424" cy="-58.949" rx="6.3443" ry="6.3445" style="fill:#f4ebe5;font-variation-settings:normal;paint-order:stroke fill markers;stop-color:#000000"/>
   <path id="path1488-2-5-7-2-05-8-6-1-1-07-3" d="m49.016 53.966a6.3445 6.3443 89.998 004.3672-7.8336 6.3445 6.3443 89.998 00-3.3612-3.9894 6.3445 6.3443 89.998 01.97311 2.0008 6.3445 6.3443 89.998 01-4.3722 7.835 6.3445 6.3443 89.998 01-4.4736-.383 6.3445 6.3443 89.998 006.8617 2.3716 6.3445 6.3443 89.998 00.006-.0018z" style="fill:#f4dccc;font-variation-settings:normal;paint-order:stroke fill markers;stop-color:#000000"/>
   <ellipse id="path1538-3-0-0-6-0-2-8-7-6-4" transform="matrix(-.96204 .27289 -.27288 -.96205 0 0)" cx="-31.738" cy="-55.348" rx="1.4174" ry="1.4174" style="fill:#fcf8f5;font-variation-settings:normal;paint-order:stroke fill markers;stop-color:#000000"/>
   <ellipse id="path1488-0-5-3-11-8-4-5-9-0-0-3" transform="matrix(-.96204 .27289 -.27288 -.96205 0 0)" cx="-32.424" cy="-58.949" rx="6.3443" ry="6.3445" style="-inkscape-stroke:none;fill:none;font-variation-settings:normal;paint-order:stroke fill markers;stop-color:#000000;stroke-width:.12038;stroke:#000000"/>
   <path id="path1651-4-7-49-4" d="m41.48 46.509c-.18913.2692-.18512.46096-.18512.7712 0 .27859.005.54824.0285.82514.0154.17363.19544.67041.46279.52312.50616-.27882.78485-1.7272.25634-2.0548-.0856-.05308-.46891-.05005-.56249-.06472z" style="fill:#aba5a0;font-variation-settings:normal;paint-order:stroke fill markers;stop-color:#000000"/>
   <path id="path1651-5-0-3" d="m41.48 46.509c-.18914.2692-.18513.46096-.18513.7712 0 .27859.005.54824.0285.82514.0154.17363.19544.67041.46279.52313.50616-.27882.78485-1.7272.25634-2.0548-.0856-.05308-.46891-.05005-.56249-.06472z" style="fill:none;font-variation-settings:normal;paint-order:stroke fill markers;stop-color:#000000;stroke-width:.12038;stroke:#000000"/>
   <path id="path1920-05-1" d="m46.527 41.565a6.3445 6.3443 89.921 00-.0894.01126c-3.3802 3.6323 2.2194 8.4075-1.2159 12.279l.15015.05663c5.524-3.7267-1.5609-7.9263 1.154-12.273zm1.7824.04003c3.3894 3.8515-2.1245 8.593 1.1555 12.214a6.3445 6.3443 89.921 00.11448-.04696c-2.6249-4.281 4.1995-8.418-.93404-12.1a6.3445 6.3443 89.921 00-.33594-.06693zm-5.1647 1.4495a6.3445 6.3443 89.921 00-.5959.58682c.31054 2.8002 2.1658 5.8319.0133 8.4645a6.3445 6.3443 89.921 00.12826.13857c4.0618-2.8389.93289-5.9499.45418-9.1898zm9.3663 1.2271c.2344 2.7103-1.6914 5.614-.83581 8.1498a6.3445 6.3443 89.921 00.37536-.39288c-.17405-1.895.93464-3.7522 1.4204-5.5441a6.3445 6.3443 89.921 00-.0885-.36254 6.3445 6.3443 89.921 00-.87146-1.8502z" style="-inkscape-stroke:none;color:#000000;fill:#d35f5f;stroke-width:.60531"/>
   <path id="path1538-3-0-0-6-0-2-8-7-9-0-30" d="m45.669 43.169a1.4174 1.4173 89.989 00-.1758.0077c-.27736.9017-.21281 1.8488-.0273 2.8162a1.4174 1.4173 89.989 00.55742-.04347 1.4174 1.4173 89.989 00.20866-.07789c-.27326-.88014-.44066-1.7713-.29843-2.6707a1.4174 1.4173 89.989 00-.26463-.0319z" style="fill:#e9afaf;font-variation-settings:normal;paint-order:stroke fill markers;stop-color:#000000"/>
   <path id="path1488-2-5-7-2-05-8-6-1-1-3-6-8" d="m52.511 44.282c.2344 2.7103-1.6914 5.614-.83581 8.1498a6.3445 6.3443 89.921 00.37536-.39288c-.17405-1.895.93464-3.7522 1.4204-5.5441a6.3445 6.3443 89.921 00-.0885-.36254 6.3443 6.3445.0069196 00-.12825-.39788 6.3445 6.3443 89.921 00-.11102-.28152 6.3443 6.3445.0069196 00-.0423-.1051 6.3445 6.3443 89.921 00-.14327-.30436 6.3443 6.3445.0069196 00-.0335-.06913 6.3445 6.3443 89.921 00-.18267-.32969 6.3443 6.3445.0069196 00-.0132-.02284 6.3445 6.3443 89.921 00-.21583-.33752 6.3443 6.3445.0069196 00-.002-.0021zm-3.4771 6.3971a6.3443 6.3445.0069196 01-.65093.49204c.0399.92556.32861 1.8165 1.082 2.6482a6.3445 6.3443 89.921 00.11448-.04696c-.63837-1.0411-.71698-2.0737-.54554-3.0933zm-1.726 1.0613a6.3443 6.3445.0069196 01-.68565.23805 6.3443 6.3445.0069196 01-.40885.10009c-.17071.60785-.48164 1.2026-.99158 1.7774l.15014.05663c1.049-.70773 1.6429-1.4325 1.9359-2.1721zm-4.5472.10604c-.0615.08602-.12659.17164-.19613.25681a6.3443 6.3445.0069196 00.12762.14045c.13818-.09663.26722-.19366.38914-.29091a6.3443 6.3445.0069196 01-.32063-.10635z" style="fill:#ab5c5c;font-variation-settings:normal;paint-order:stroke fill markers;stop-color:#000000"/>
   <path id="path8701" d="m36.172 45.8a.28313.28313 0 00-.15483.15041.28313.28313 0 00.14746.37308c1.7437.75012 3.5468 1.5466 5.6389 1.5439a.28313.28313 0 00.28166-.28313.28313.28313 0 00-.28312-.28312c-1.9471.0025-3.667-.74695-5.4133-1.4982a.28313.28313 0 00-.21678-.0029z" style="-inkscape-stroke:none;color:#000000;fill:#000000;stroke-linecap:round;stroke-linejoin:round;stroke-width:.755"/>
   <ellipse id="path1488-3-3-6-40-0-8-3-9-5" transform="matrix(-.96204 .27289 -.27288 -.96205 0 0)" cx="-18.86" cy="-52.037" rx="6.3445" ry="6.3447" style="fill:#2ad4ff;font-variation-settings:normal;paint-order:stroke fill markers;stop-color:#000000"/>
   <path id="path1488-2-5-7-2-05-8-6-1-3-2" d="m34.08 51.018a6.3447 6.3445 89.993 004.3673-7.8338 6.3447 6.3445 89.993 00-3.3613-3.9895 6.3447 6.3445 89.993 01.97313 2.0009 6.3447 6.3445 89.993 01-4.3724 7.8353 6.3447 6.3445 89.993 01-4.4738-.38301 6.3447 6.3445 89.993 006.8619 2.3716 6.3447 6.3445 89.993 00.006-.0018z" style="fill:#22add0;font-variation-settings:normal;paint-order:stroke fill markers;stop-color:#000000"/>
   <ellipse id="path1538-3-0-0-6-0-2-8-1" transform="matrix(-.96204 .27289 -.27288 -.96205 0 0)" cx="-18.173" cy="-48.436" rx="1.4174" ry="1.4174" style="fill:#97eaff;font-variation-settings:normal;paint-order:stroke fill markers;stop-color:#000000"/>
   <ellipse id="path1488-0-5-3-11-8-4-5-9-2" transform="matrix(-.96204 .27289 -.27288 -.96205 0 0)" cx="-18.86" cy="-52.037" rx="6.3445" ry="6.3447" style="fill:none;font-variation-settings:normal;paint-order:stroke fill markers;stop-color:#000000;stroke-width:.12038;stroke:#000000"/>
   <path id="path1651-4-6-0" d="m26.544 43.561c-.18913.26921-.18513.46097-.18513.77123 0 .27859.005.54826.0285.82516.0154.17364.19544.67043.46281.52314.50617-.27883.78485-1.7273.25633-2.0548-.0856-.05307-.46893-.05005-.56251-.06471z" style="fill:#17778e;font-variation-settings:normal;paint-order:stroke fill markers;stop-color:#000000"/>
   <path id="path1651-9" d="m26.544 43.561c-.18913.26921-.18513.46097-.18513.77123 0 .27859.005.54826.0285.82516.0154.17364.19544.67043.46281.52314.50617-.27883.78485-1.7273.25633-2.0548-.0856-.05307-.46893-.05005-.56251-.06471z" style="fill:none;font-variation-settings:normal;paint-order:stroke fill markers;stop-color:#000000;stroke-width:.12038;stroke:#000000"/>
   <path id="path3935" d="m26.775 44.223c-1.4517.0039-2.9683.04425-4.4637.1047a.28313.28313 0 00-.2728.29345.28313.28313 0 00.29492.2728c1.4899-.06024 3.0005-.10081 4.443-.1047a.28313.28313 0 00.28167-.28313.28313.28313 0 00-.28313-.28313z" style="-inkscape-stroke:none;color:#000000;fill:#000000;stroke-linecap:round;stroke-linejoin:round;stroke-width:.755"/>
   <ellipse id="path1488-3-3-6-40-0-8-3-9" transform="matrix(-.96204 .27289 -.27288 -.96205 0 0)" cx="-4.9504" cy="-49.117" rx="6.3445" ry="6.3447" style="fill:#2ad4ff;font-variation-settings:normal;paint-order:stroke fill markers;stop-color:#000000"/>
   <path id="path1488-2-5-7-2-05-8-6-1-2" d="m19.902 52.004a6.3447 6.3445 89.993 004.3673-7.8338 6.3447 6.3445 89.993 00-3.3613-3.9895 6.3447 6.3445 89.993 01.97313 2.0009 6.3447 6.3445 89.993 01-4.3724 7.8353 6.3447 6.3445 89.993 01-4.4737-.38301 6.3447 6.3445 89.993 006.8619 2.3716 6.3447 6.3445 89.993 00.0061-.0018z" style="fill:#22add0;font-variation-settings:normal;paint-order:stroke fill markers;stop-color:#000000"/>
   <ellipse id="path1538-3-0-0-6-0-2-8-3" transform="matrix(-.96204 .27289 -.27288 -.96205 0 0)" cx="-4.264" cy="-45.516" rx="1.4174" ry="1.4174" style="fill:#97eaff;font-variation-settings:normal;paint-order:stroke fill markers;stop-color:#000000"/>
   <ellipse id="path1488-0-5-3-11-8-4-5-9-5" transform="matrix(-.96204 .27289 -.27288 -.96205 0 0)" cx="-4.9504" cy="-49.117" rx="6.3445" ry="6.3447" style="fill:none;font-variation-settings:normal;paint-order:stroke fill markers;stop-color:#000000;stroke-width:.12038;stroke:#000000"/>
   <path id="path1651-4-1" d="m12.366 44.548c-.18912.26921-.18513.46097-.18513.77123 0 .2786.0043.54826.0285.82516.01532.17364.19544.67043.46282.52314.50616-.27883.78487-1.7273.25633-2.0548-.08567-.05308-.46893-.05005-.56251-.06471z" style="fill:#17778e;font-variation-settings:normal;paint-order:stroke fill markers;stop-color:#000000"/>
   <path id="path1651-09" d="m12.366 44.548c-.18912.26921-.18513.46097-.18513.77123 0 .2786.0043.54826.0285.82516.01532.17364.19544.67043.46282.52314.50616-.27883.78487-1.7273.25633-2.0548-.08567-.05308-.46893-.05005-.56251-.06471z" style="fill:none;font-variation-settings:normal;paint-order:stroke fill markers;stop-color:#000000;stroke-width:.12038;stroke:#000000"/>
   <path id="path8699" d="m11.008 45.113a.28313.28313 0 00-.1976.08995.28313.28313 0 00.01327.39962s.23279.22004.5987.35391c.3659.13386.89943.18343 1.4495-.12534a.28313.28313 0 00.10913-.38487.28313.28313 0 00-.38635-.10912c-.39807.22343-.72239.1804-.97768.087-.25528-.09339-.40552-.23447-.40552-.23447a.28313.28313 0 00-.2035-.07668z" style="-inkscape-stroke:none;color:#000000;fill:#000000;stroke-linecap:round;stroke-linejoin:round;stroke-width:.755"/>
  </g>
 </g>
</svg>
