<?xml version="1.0" encoding="UTF-8" standalone="no"?>
<!-- Created with Inkscape (http://www.inkscape.org/) -->

<svg
   width="90.877228mm"
   height="75.814499mm"
   viewBox="0 0 90.877228 75.814499"
   version="1.1"
   id="svg3433"
   inkscape:version="1.1.1 (3bf5ae0d25, 2021-09-20)"
   sodipodi:docname="2022-SK-04-explanation74.svg"
   xmlns:inkscape="http://www.inkscape.org/namespaces/inkscape"
   xmlns:sodipodi="http://sodipodi.sourceforge.net/DTD/sodipodi-0.dtd"
   xmlns="http://www.w3.org/2000/svg"
   xmlns:svg="http://www.w3.org/2000/svg"
   xmlns:serif="http://www.serif.com/">
  <sodipodi:namedview
     id="namedview3435"
     pagecolor="#ffffff"
     bordercolor="#666666"
     borderopacity="1.0"
     inkscape:pageshadow="2"
     inkscape:pageopacity="0.0"
     inkscape:pagecheckerboard="0"
     inkscape:document-units="mm"
     showgrid="false"
     inkscape:zoom="1.3273709"
     inkscape:cx="208.30651"
     inkscape:cy="282.13667"
     inkscape:window-width="1680"
     inkscape:window-height="1027"
     inkscape:window-x="2040"
     inkscape:window-y="22"
     inkscape:window-maximized="1"
     inkscape:current-layer="g3342" />
  <defs
     id="defs3430" />
  <g
     inkscape:label="Ebene 1"
     inkscape:groupmode="layer"
     id="layer1"
     transform="translate(-31.103664,-30.263219)">
    <g
       id="g3342"
       style="clip-rule:evenodd;fill-rule:evenodd;stroke-linecap:round;stroke-linejoin:round;stroke-miterlimit:1.5"
       transform="matrix(0.26458333,0,0,0.26458333,-204.79751,-38.734028)">
      <g
         id="path63"
         serif:id="path6"
         transform="translate(896.442,258.838)">
        <path
           d="M 224.731,22.999 295.819,94.46 295.554,195.257 224.092,266.345 123.295,266.079 52.208,194.618 52.473,93.821 123.934,22.733 Z"
           style="fill:#3389f4;fill-rule:nonzero"
           id="path11" />
      </g>
      <g
         transform="rotate(-94.204395,745.21261,-147.56645)"
         id="g28">
        <path
           d="m 241.587,119.192 c 5.083,17.236 1.603,32.719 -6.789,47.199 l 11.025,-8.594 -12.487,-4.407 1.462,13.001"
           style="fill:none;stroke:#ffffff;stroke-width:3;stroke-miterlimit:1.5;stroke-dasharray:none;stroke-opacity:1"
           id="path26" />
      </g>
      <g
         transform="rotate(-50.945595,904.17994,-671.98404)"
         id="g40">
        <path
           d="m 241.587,119.192 c 5.083,17.236 1.603,32.719 -6.789,47.199 l 11.025,-8.594 -12.487,-4.407 1.462,13.001"
           style="fill:none;stroke:#ffffff;stroke-width:3;stroke-miterlimit:1.5;stroke-dasharray:none;stroke-opacity:1"
           id="path38" />
      </g>
      <g
         transform="rotate(-7.6868074,2642.2801,-6416.659)"
         id="g52">
        <path
           d="m 241.587,119.192 c 5.083,17.236 1.603,32.719 -6.789,47.199 l 11.025,-8.594 -12.487,-4.407 1.462,13.001"
           style="fill:none;stroke:#ffffff;stroke-width:3;stroke-miterlimit:1.5;stroke-dasharray:none;stroke-opacity:1"
           id="path50" />
      </g>
      <g
         transform="rotate(40.874073,264.9596,1478.4552)"
         id="g66">
        <path
           d="m 241.587,119.192 c 5.083,17.236 1.603,32.719 -6.789,47.199 l 11.025,-8.594 -12.487,-4.407 1.462,13.001"
           style="fill:none;stroke:#ffffff;stroke-width:3;stroke-miterlimit:1.5;stroke-dasharray:none;stroke-opacity:1"
           id="path64" />
      </g>
      <g
         transform="rotate(84.428395,474.39644,765.72988)"
         id="g78">
        <path
           d="m 241.587,119.192 c 5.083,17.236 1.603,32.719 -6.789,47.199 l 11.025,-8.594 -12.487,-4.407 1.462,13.001"
           style="fill:none;stroke:#ffffff;stroke-width:3;stroke-miterlimit:1.5;stroke-dasharray:none;stroke-opacity:1"
           id="path76" />
      </g>
      <g
         transform="rotate(130.13179,560.10929,480.14737)"
         id="g82">
        <path
           d="m 241.587,119.192 c 5.083,17.236 1.603,32.719 -6.789,47.199 l 11.025,-8.594 -12.487,-4.407 1.462,13.001"
           style="fill:none;stroke:#ffffff;stroke-width:3;stroke-miterlimit:1.5;stroke-dasharray:none;stroke-opacity:1"
           id="path80" />
      </g>
      <g
         transform="matrix(0.996712,0,0,0.85236,7.86692,66.373)"
         id="g86">
        <path
           d="m 1007.5,462.154 c 0.27,-0.158 6.48,-0.705 6.77,-0.418 0.51,0.509 -2.54,17.257 -2.54,16.779"
           style="fill:none;stroke:#ffffff;stroke-width:3.2548;stroke-miterlimit:1.5;stroke-dasharray:none;stroke-opacity:1"
           id="path84" />
      </g>
      <g
         transform="matrix(0.996712,0,0,0.85236,7.86692,66.373)"
         id="g90">
        <path
           d="m 1016.76,469.345 c 0.33,0.337 -5.11,-0.361 -6.6,0.035"
           style="fill:none;stroke:#ffffff;stroke-width:3.2548;stroke-miterlimit:1.5;stroke-dasharray:none;stroke-opacity:1"
           id="path88" />
      </g>
      <g
         id="line83"
         serif:id="line8"
         transform="translate(897.81,259.733)">
        <path
           d="m 123.892,22.412 99.635,244.066"
           style="fill:none;fill-rule:nonzero;stroke:#a3c0e4;stroke-width:2px;stroke-miterlimit:4;stroke-dasharray:8, 8"
           id="path101" />
      </g>
      <g
         id="line103"
         serif:id="line10"
         transform="translate(897.81,259.733)">
        <path
           d="M 224.337,22.412 124.297,266.073"
           style="fill:none;fill-rule:nonzero;stroke:#a3c0e4;stroke-width:2px;stroke-miterlimit:4;stroke-dasharray:8, 8"
           id="path113" />
      </g>
      <g
         id="line123"
         serif:id="line12"
         transform="translate(897.81,259.733)">
        <path
           d="M 295.742,94.627 51.676,194.263"
           style="fill:none;fill-rule:nonzero;stroke:#a3c0e4;stroke-width:2px;stroke-miterlimit:4;stroke-dasharray:8, 8"
           id="path125" />
      </g>
      <g
         id="path181"
         serif:id="path18"
         transform="translate(897.81,259.733)">
        <path
           d="m 197.57,140.527 c 2.704,17.874 -14.957,31.973 -31.789,25.377 -7.811,-3.061 -13.397,-10.057 -14.651,-18.354 -0.711,-4.702 -0.014,-9.144 1.709,-13.016 l -0.738,1.882 3.63,1.422 c -3.083,9.338 1.182,20.416 11.469,24.447 6.518,2.555 13.905,1.438 19.377,-2.931 11.525,-9.2 9.089,-27.223 -4.147,-33.172 l 1.419,-3.621 c 7.322,3.238 12.516,10.004 13.721,17.966 z"
           style="fill:#ffffff;fill-rule:nonzero"
           id="path138" />
      </g>
      <g
         id="line143"
         serif:id="line14"
         transform="translate(897.81,259.733)">
        <path
           d="M 295.742,195.073 52.081,95.032"
           style="fill:none;fill-rule:nonzero;stroke:#a3c0e4;stroke-width:2px;stroke-miterlimit:4;stroke-dasharray:8, 8"
           id="path144" />
      </g>
      <g
         id="path201"
         serif:id="path20"
         transform="translate(897.81,259.733)">
        <path
           d="m 155.219,125.64 5.37,14.726 -15.439,-2.712 z"
           style="fill:#ffffff;fill-rule:nonzero"
           id="path153" />
      </g>
      <g
         id="path22-93"
         serif:id="path22-9"
         transform="rotate(-134.31566,676.53858,86.255353)">
        <path
           d="m 172.593,144.358 40.347,-100.113 -6.081,-2.451 13.516,-11.071 2.063,17.35 -6.08,-2.451 -40.347,100.114 z"
           style="fill:#21223b;fill-rule:nonzero;font-variation-settings:normal;opacity:1;vector-effect:none;fill-opacity:1;stroke-width:1;stroke-linecap:butt;stroke-linejoin:miter;stroke-miterlimit:4;stroke-dasharray:none;stroke-dashoffset:0;stroke-opacity:1;-inkscape-stroke:none;stop-color:#000000;stop-opacity:1"
           id="path162" />
      </g>
      <g
         id="path222"
         serif:id="path22"
         transform="rotate(-179.90536,621.77193,274.38711)">
        <path
           d="m 174.086,143.79 99.878,40.927 2.486,-6.067 10.993,13.58 -17.362,1.963 2.486,-6.067 -99.878,-40.926 z"
           style="fill:#a3c0e4;fill-rule:nonzero"
           id="path175" />
      </g>
      <g
         id="circle163"
         serif:id="circle16"
         transform="translate(897.81,259.733)">
        <circle
           cx="173.888"
           cy="144.597"
           r="4.895"
           style="fill:#21223b;font-variation-settings:normal;opacity:1;vector-effect:none;fill-opacity:1;stroke-width:1;stroke-linecap:butt;stroke-linejoin:miter;stroke-miterlimit:4;stroke-dasharray:none;stroke-dashoffset:0;stroke-opacity:1;-inkscape-stroke:none;stop-color:#000000;stop-opacity:1"
           id="circle184" />
      </g>
      <g
         id="text243"
         serif:id="text24"
         transform="translate(989.185,275.704)">
        <path
           d="m 11.407,-2.199 -2.257,-8.37 -2.285,8.37 C 6.687,-1.565 6.546,-1.109 6.441,-0.833 6.337,-0.557 6.154,-0.309 5.894,-0.09 5.634,0.129 5.288,0.238 4.856,0.238 4.507,0.238 4.22,0.173 3.994,0.043 3.769,-0.087 3.586,-0.271 3.447,-0.509 3.307,-0.747 3.193,-1.03 3.104,-1.357 3.015,-1.684 2.936,-1.987 2.866,-2.266 l -2.323,-9.398 c -0.14,-0.546 -0.21,-0.961 -0.21,-1.247 0,-0.362 0.127,-0.667 0.381,-0.914 0.254,-0.248 0.568,-0.372 0.943,-0.372 0.514,0 0.86,0.166 1.038,0.496 0.177,0.33 0.333,0.809 0.466,1.437 l 1.828,8.151 2.047,-7.627 c 0.153,-0.584 0.289,-1.028 0.41,-1.333 0.12,-0.305 0.317,-0.568 0.59,-0.79 0.273,-0.222 0.644,-0.334 1.114,-0.334 0.476,0 0.846,0.116 1.109,0.348 0.264,0.232 0.446,0.484 0.548,0.757 0.101,0.273 0.238,0.724 0.409,1.352 l 2.066,7.627 1.829,-8.151 c 0.088,-0.425 0.173,-0.758 0.252,-0.999 0.079,-0.242 0.216,-0.457 0.409,-0.648 0.194,-0.19 0.475,-0.286 0.843,-0.286 0.368,0 0.681,0.123 0.938,0.367 0.257,0.244 0.385,0.551 0.385,0.919 0,0.26 -0.069,0.676 -0.209,1.247 l -2.323,9.398 c -0.159,0.635 -0.291,1.1 -0.395,1.395 -0.105,0.295 -0.283,0.554 -0.534,0.776 -0.25,0.222 -0.604,0.333 -1.061,0.333 -0.432,0 -0.778,-0.108 -1.038,-0.324 -0.26,-0.216 -0.441,-0.458 -0.543,-0.728 -0.101,-0.27 -0.244,-0.732 -0.428,-1.385 z"
           style="fill:#21223b;fill-rule:nonzero;font-variation-settings:normal;opacity:1;vector-effect:none;fill-opacity:1;stroke-width:1;stroke-linecap:butt;stroke-linejoin:miter;stroke-miterlimit:4;stroke-dasharray:none;stroke-dashoffset:0;stroke-opacity:1;-inkscape-stroke:none;stop-color:#000000;stop-opacity:1"
           id="path279" />
        <path
           d="m 19.3,-2.714 3.123,-4.56 -2.628,-4.057 c -0.247,-0.393 -0.433,-0.731 -0.557,-1.014 -0.124,-0.282 -0.186,-0.553 -0.186,-0.814 0,-0.266 0.12,-0.506 0.358,-0.719 0.238,-0.212 0.528,-0.319 0.871,-0.319 0.393,0 0.7,0.116 0.919,0.348 0.219,0.232 0.522,0.662 0.909,1.29 l 2.095,3.39 2.237,-3.39 c 0.184,-0.285 0.341,-0.53 0.471,-0.733 0.131,-0.203 0.256,-0.371 0.377,-0.505 0.12,-0.133 0.255,-0.233 0.404,-0.3 0.149,-0.066 0.322,-0.1 0.519,-0.1 0.356,0 0.646,0.107 0.871,0.319 0.226,0.213 0.338,0.465 0.338,0.757 0,0.426 -0.244,1.003 -0.733,1.733 l -2.751,4.114 2.961,4.56 c 0.266,0.4 0.46,0.732 0.581,0.995 0.12,0.264 0.18,0.513 0.18,0.748 0,0.222 -0.054,0.425 -0.161,0.609 -0.108,0.184 -0.261,0.33 -0.457,0.438 -0.197,0.108 -0.419,0.162 -0.667,0.162 -0.267,0 -0.492,-0.056 -0.676,-0.167 -0.184,-0.111 -0.333,-0.249 -0.448,-0.414 -0.114,-0.165 -0.326,-0.485 -0.637,-0.961 l -2.457,-3.866 -2.609,3.98 c -0.203,0.317 -0.347,0.539 -0.433,0.666 -0.086,0.127 -0.189,0.251 -0.31,0.372 -0.12,0.12 -0.263,0.215 -0.428,0.285 -0.165,0.07 -0.359,0.105 -0.581,0.105 -0.343,0 -0.627,-0.105 -0.852,-0.314 -0.225,-0.21 -0.338,-0.514 -0.338,-0.914 0,-0.47 0.232,-1.044 0.695,-1.724 z"
           style="fill:#21223b;fill-rule:nonzero;font-variation-settings:normal;opacity:1;vector-effect:none;fill-opacity:1;stroke-width:1;stroke-linecap:butt;stroke-linejoin:miter;stroke-miterlimit:4;stroke-dasharray:none;stroke-dashoffset:0;stroke-opacity:1;-inkscape-stroke:none;stop-color:#000000;stop-opacity:1"
           id="path281" />
        <path
           d="m 34.706,-1.485 v -4.428 l -3.409,-5.284 c -0.298,-0.476 -0.509,-0.848 -0.633,-1.114 -0.124,-0.267 -0.186,-0.499 -0.186,-0.695 0,-0.324 0.126,-0.603 0.376,-0.838 0.251,-0.235 0.561,-0.353 0.929,-0.353 0.387,0 0.681,0.11 0.88,0.329 0.2,0.219 0.5,0.655 0.9,1.309 l 2.609,4.237 2.638,-4.237 c 0.158,-0.26 0.292,-0.479 0.399,-0.657 0.108,-0.178 0.227,-0.344 0.358,-0.5 0.13,-0.155 0.274,-0.274 0.433,-0.357 0.158,-0.082 0.352,-0.124 0.581,-0.124 0.355,0 0.652,0.116 0.89,0.348 0.238,0.232 0.357,0.5 0.357,0.805 0,0.247 -0.06,0.495 -0.181,0.742 -0.121,0.248 -0.327,0.591 -0.619,1.029 l -3.494,5.36 v 4.428 c 0,0.577 -0.134,1.009 -0.4,1.295 -0.267,0.285 -0.606,0.428 -1.019,0.428 -0.419,0 -0.759,-0.141 -1.019,-0.424 -0.26,-0.282 -0.39,-0.715 -0.39,-1.299 z"
           style="fill:#21223b;fill-rule:nonzero;font-variation-settings:normal;opacity:1;vector-effect:none;fill-opacity:1;stroke-width:1;stroke-linecap:butt;stroke-linejoin:miter;stroke-miterlimit:4;stroke-dasharray:none;stroke-dashoffset:0;stroke-opacity:1;-inkscape-stroke:none;stop-color:#000000;stop-opacity:1"
           id="path283" />
        <path
           d="m 43.408,-3.256 7.17,-8.579 h -6.16 c -0.432,0 -0.757,-0.095 -0.976,-0.286 -0.219,-0.19 -0.329,-0.441 -0.329,-0.752 0,-0.324 0.11,-0.586 0.329,-0.786 0.219,-0.2 0.544,-0.299 0.976,-0.299 h 7.941 c 1.028,0 1.542,0.479 1.542,1.437 0,0.457 -0.086,0.822 -0.257,1.095 -0.171,0.273 -0.517,0.714 -1.038,1.324 l -6.703,7.979 h 7.389 c 0.438,0 0.765,0.09 0.98,0.271 0.216,0.181 0.324,0.433 0.324,0.757 0,0.336 -0.108,0.603 -0.324,0.8 C 54.057,-0.098 53.73,0 53.292,0 h -9.065 c -0.615,0 -1.079,-0.138 -1.39,-0.414 -0.311,-0.276 -0.466,-0.646 -0.466,-1.109 0,-0.159 0.025,-0.305 0.076,-0.438 0.051,-0.134 0.119,-0.259 0.204,-0.377 0.086,-0.117 0.205,-0.266 0.358,-0.447 0.152,-0.181 0.285,-0.338 0.399,-0.471 z"
           style="fill:#21223b;fill-rule:nonzero;font-variation-settings:normal;opacity:1;vector-effect:none;fill-opacity:1;stroke-width:1;stroke-linecap:butt;stroke-linejoin:miter;stroke-miterlimit:4;stroke-dasharray:none;stroke-dashoffset:0;stroke-opacity:1;-inkscape-stroke:none;stop-color:#000000;stop-opacity:1"
           id="path285" />
      </g>
      <g
         id="text263"
         serif:id="text26"
         transform="translate(1101.83,274.974)">
        <path
           d="M 10.455,-1.581 9.788,-3.333 H 4.113 L 3.447,-1.542 C 3.187,-0.844 2.964,-0.373 2.78,-0.129 2.596,0.116 2.295,0.238 1.876,0.238 1.52,0.238 1.206,0.108 0.933,-0.152 0.66,-0.413 0.524,-0.708 0.524,-1.038 c 0,-0.19 0.031,-0.387 0.095,-0.59 0.063,-0.203 0.168,-0.486 0.314,-0.848 l 3.571,-9.064 c 0.101,-0.26 0.223,-0.573 0.366,-0.938 0.143,-0.365 0.295,-0.668 0.457,-0.909 0.162,-0.241 0.375,-0.437 0.638,-0.586 0.264,-0.149 0.589,-0.224 0.976,-0.224 0.394,0 0.722,0.075 0.986,0.224 0.263,0.149 0.476,0.341 0.638,0.576 0.161,0.235 0.298,0.487 0.409,0.757 0.111,0.27 0.252,0.63 0.424,1.081 l 3.646,9.007 c 0.286,0.686 0.429,1.184 0.429,1.495 0,0.324 -0.135,0.621 -0.405,0.89 -0.27,0.27 -0.595,0.405 -0.976,0.405 -0.222,0 -0.412,-0.04 -0.571,-0.119 -0.159,-0.079 -0.292,-0.187 -0.4,-0.324 -0.108,-0.136 -0.224,-0.346 -0.347,-0.628 -0.124,-0.283 -0.231,-0.532 -0.319,-0.748 z M 4.856,-5.456 h 4.17 l -2.104,-5.76 z"
           style="fill:#21223b;fill-rule:nonzero;font-variation-settings:normal;opacity:1;vector-effect:none;fill-opacity:1;stroke-width:1;stroke-linecap:butt;stroke-linejoin:miter;stroke-miterlimit:4;stroke-dasharray:none;stroke-dashoffset:0;stroke-opacity:1;-inkscape-stroke:none;stop-color:#000000;stop-opacity:1"
           id="path295" />
        <path
           d="M 21.509,0 H 17.243 C 16.628,0 16.188,-0.138 15.925,-0.414 15.661,-0.69 15.53,-1.13 15.53,-1.733 v -10.493 c 0,-0.615 0.134,-1.058 0.404,-1.328 0.27,-0.27 0.706,-0.404 1.309,-0.404 h 4.523 c 0.667,0 1.244,0.041 1.733,0.123 0.489,0.083 0.927,0.241 1.314,0.476 0.33,0.197 0.622,0.446 0.876,0.748 0.254,0.301 0.447,0.635 0.581,1 0.133,0.365 0.2,0.75 0.2,1.156 0,1.397 -0.699,2.419 -2.095,3.066 1.834,0.584 2.752,1.721 2.752,3.409 0,0.781 -0.2,1.484 -0.6,2.109 -0.4,0.625 -0.94,1.087 -1.619,1.385 -0.425,0.178 -0.914,0.304 -1.466,0.377 C 22.89,-0.036 22.245,0 21.509,0 Z M 21.3,-6.198 h -2.943 v 4.075 h 3.038 c 1.91,0 2.866,-0.689 2.866,-2.066 0,-0.705 -0.248,-1.216 -0.743,-1.533 C 23.023,-6.04 22.283,-6.198 21.3,-6.198 Z m -2.943,-5.637 v 3.608 h 2.59 c 0.705,0 1.249,-0.066 1.633,-0.2 0.384,-0.133 0.678,-0.387 0.881,-0.761 0.159,-0.267 0.238,-0.565 0.238,-0.895 0,-0.705 -0.251,-1.173 -0.752,-1.405 -0.502,-0.231 -1.267,-0.347 -2.295,-0.347 z"
           style="fill:#21223b;fill-rule:nonzero;font-variation-settings:normal;opacity:1;vector-effect:none;fill-opacity:1;stroke-width:1;stroke-linecap:butt;stroke-linejoin:miter;stroke-miterlimit:4;stroke-dasharray:none;stroke-dashoffset:0;stroke-opacity:1;-inkscape-stroke:none;stop-color:#000000;stop-opacity:1"
           id="path297" />
        <path
           d="m 41.466,-4.408 c 0,0.444 -0.109,0.925 -0.328,1.442 -0.219,0.517 -0.564,1.025 -1.034,1.523 -0.469,0.499 -1.069,0.903 -1.799,1.214 -0.73,0.312 -1.581,0.467 -2.552,0.467 -0.736,0 -1.406,-0.07 -2.009,-0.209 -0.603,-0.14 -1.15,-0.357 -1.642,-0.653 -0.492,-0.295 -0.945,-0.684 -1.357,-1.166 -0.368,-0.438 -0.683,-0.928 -0.943,-1.471 -0.26,-0.543 -0.455,-1.122 -0.585,-1.738 -0.13,-0.616 -0.196,-1.269 -0.196,-1.961 0,-1.124 0.164,-2.13 0.491,-3.019 0.327,-0.888 0.795,-1.648 1.404,-2.28 0.61,-0.632 1.324,-1.112 2.143,-1.442 0.818,-0.33 1.691,-0.496 2.618,-0.496 1.13,0 2.136,0.226 3.018,0.676 0.883,0.451 1.559,1.008 2.028,1.672 0.47,0.663 0.705,1.29 0.705,1.88 0,0.324 -0.114,0.609 -0.343,0.857 -0.228,0.247 -0.504,0.371 -0.828,0.371 -0.362,0 -0.633,-0.085 -0.814,-0.257 -0.181,-0.171 -0.383,-0.466 -0.605,-0.885 -0.368,-0.692 -0.801,-1.21 -1.3,-1.552 -0.498,-0.343 -1.112,-0.514 -1.842,-0.514 -1.162,0 -2.087,0.441 -2.775,1.323 -0.689,0.882 -1.034,2.136 -1.034,3.761 0,1.085 0.153,1.988 0.457,2.709 0.305,0.72 0.737,1.258 1.295,1.614 0.559,0.355 1.213,0.533 1.962,0.533 0.812,0 1.499,-0.202 2.061,-0.605 0.562,-0.403 0.986,-0.995 1.271,-1.775 0.121,-0.369 0.27,-0.668 0.448,-0.9 0.178,-0.232 0.463,-0.348 0.857,-0.348 0.336,0 0.625,0.118 0.866,0.353 0.241,0.234 0.362,0.526 0.362,0.876 z"
           style="fill:#21223b;fill-rule:nonzero;font-variation-settings:normal;opacity:1;vector-effect:none;fill-opacity:1;stroke-width:1;stroke-linecap:butt;stroke-linejoin:miter;stroke-miterlimit:4;stroke-dasharray:none;stroke-dashoffset:0;stroke-opacity:1;-inkscape-stroke:none;stop-color:#000000;stop-opacity:1"
           id="path299" />
      </g>
      <g
         id="text283"
         serif:id="text28"
         transform="translate(1196.43,355.68)">
        <path
           d="M 3.275,-13.958 H 6.96 c 0.959,0 1.781,0.088 2.466,0.266 0.686,0.178 1.308,0.511 1.866,1 1.454,1.244 2.181,3.136 2.181,5.675 0,0.838 -0.073,1.602 -0.219,2.294 -0.146,0.692 -0.371,1.316 -0.676,1.871 -0.305,0.556 -0.695,1.052 -1.171,1.49 -0.375,0.337 -0.784,0.607 -1.229,0.81 C 9.734,-0.349 9.256,-0.206 8.745,-0.124 8.234,-0.041 7.658,0 7.017,0 H 3.333 C 2.818,0 2.431,-0.078 2.171,-0.233 1.911,-0.389 1.741,-0.608 1.661,-0.89 1.582,-1.173 1.542,-1.539 1.542,-1.99 v -10.236 c 0,-0.609 0.137,-1.05 0.41,-1.323 0.273,-0.273 0.714,-0.409 1.323,-0.409 z m 1.095,2.237 v 9.474 h 2.143 c 0.469,0 0.838,-0.013 1.104,-0.038 0.267,-0.026 0.543,-0.089 0.829,-0.191 0.285,-0.101 0.533,-0.244 0.742,-0.428 0.946,-0.8 1.419,-2.177 1.419,-4.132 0,-1.378 -0.208,-2.409 -0.624,-3.095 -0.415,-0.685 -0.928,-1.122 -1.537,-1.309 -0.61,-0.187 -1.346,-0.281 -2.209,-0.281 z"
           style="fill:#21223b;fill-rule:nonzero;font-variation-settings:normal;opacity:1;vector-effect:none;fill-opacity:1;stroke-width:1;stroke-linecap:butt;stroke-linejoin:miter;stroke-miterlimit:4;stroke-dasharray:none;stroke-dashoffset:0;stroke-opacity:1;-inkscape-stroke:none;stop-color:#000000;stop-opacity:1"
           id="path309" />
        <path
           d="m 25.156,-11.778 h -6.37 v 3.428 h 5.865 c 0.432,0 0.754,0.096 0.967,0.29 0.212,0.194 0.319,0.449 0.319,0.767 0,0.317 -0.105,0.576 -0.315,0.776 -0.209,0.199 -0.533,0.299 -0.971,0.299 h -5.865 v 3.971 h 6.589 c 0.444,0 0.779,0.103 1.004,0.309 0.226,0.207 0.338,0.481 0.338,0.824 0,0.33 -0.112,0.598 -0.338,0.805 C 26.154,-0.103 25.819,0 25.375,0 h -7.684 c -0.616,0 -1.059,-0.136 -1.328,-0.409 -0.27,-0.273 -0.405,-0.715 -0.405,-1.324 v -10.493 c 0,-0.406 0.06,-0.738 0.181,-0.995 0.121,-0.257 0.309,-0.444 0.566,-0.561 0.258,-0.118 0.586,-0.176 0.986,-0.176 h 7.465 c 0.45,0 0.785,0.099 1.004,0.299 0.219,0.2 0.329,0.462 0.329,0.786 0,0.33 -0.11,0.595 -0.329,0.795 -0.219,0.2 -0.554,0.3 -1.004,0.3 z"
           style="fill:#21223b;fill-rule:nonzero;font-variation-settings:normal;opacity:1;vector-effect:none;fill-opacity:1;stroke-width:1;stroke-linecap:butt;stroke-linejoin:miter;stroke-miterlimit:4;stroke-dasharray:none;stroke-dashoffset:0;stroke-opacity:1;-inkscape-stroke:none;stop-color:#000000;stop-opacity:1"
           id="path311" />
        <path
           d="m 37.305,-11.778 h -5.57 v 3.57 h 4.656 c 0.432,0 0.754,0.097 0.967,0.291 0.212,0.193 0.319,0.452 0.319,0.776 0,0.324 -0.108,0.581 -0.324,0.771 -0.216,0.191 -0.537,0.286 -0.962,0.286 h -4.656 v 4.599 c 0,0.584 -0.132,1.017 -0.395,1.299 -0.263,0.283 -0.601,0.424 -1.014,0.424 -0.419,0 -0.76,-0.143 -1.024,-0.428 -0.263,-0.286 -0.395,-0.718 -0.395,-1.295 v -10.741 c 0,-0.406 0.061,-0.738 0.181,-0.995 0.121,-0.257 0.31,-0.444 0.567,-0.561 0.257,-0.118 0.585,-0.176 0.985,-0.176 h 6.665 c 0.451,0 0.786,0.099 1.005,0.299 0.219,0.2 0.328,0.462 0.328,0.786 0,0.33 -0.109,0.595 -0.328,0.795 -0.219,0.2 -0.554,0.3 -1.005,0.3 z"
           style="fill:#21223b;fill-rule:nonzero;font-variation-settings:normal;opacity:1;vector-effect:none;fill-opacity:1;stroke-width:1;stroke-linecap:butt;stroke-linejoin:miter;stroke-miterlimit:4;stroke-dasharray:none;stroke-dashoffset:0;stroke-opacity:1;-inkscape-stroke:none;stop-color:#000000;stop-opacity:1"
           id="path313" />
      </g>
      <g
         id="text303"
         serif:id="text30"
         transform="translate(1195.74,460.336)">
        <path
           d="m 14.273,-5.675 v 2.676 c 0,0.355 -0.035,0.639 -0.105,0.852 -0.07,0.213 -0.198,0.405 -0.386,0.576 -0.187,0.171 -0.427,0.336 -0.719,0.495 -0.844,0.457 -1.656,0.79 -2.437,1 C 9.845,0.133 8.995,0.238 8.074,0.238 7.001,0.238 6.024,0.073 5.142,-0.257 4.259,-0.587 3.507,-1.066 2.885,-1.695 2.263,-2.323 1.785,-3.085 1.452,-3.98 c -0.333,-0.895 -0.5,-1.895 -0.5,-2.999 0,-1.086 0.162,-2.079 0.486,-2.98 0.323,-0.902 0.8,-1.667 1.428,-2.295 0.628,-0.629 1.393,-1.109 2.295,-1.443 0.901,-0.333 1.923,-0.5 3.066,-0.5 0.939,0 1.771,0.126 2.494,0.377 0.724,0.25 1.311,0.566 1.762,0.947 0.45,0.381 0.79,0.784 1.018,1.209 0.229,0.425 0.343,0.803 0.343,1.133 0,0.356 -0.131,0.659 -0.395,0.91 -0.263,0.25 -0.579,0.376 -0.947,0.376 -0.203,0 -0.399,-0.048 -0.586,-0.143 -0.187,-0.095 -0.344,-0.229 -0.471,-0.4 -0.349,-0.546 -0.644,-0.959 -0.886,-1.238 -0.241,-0.279 -0.566,-0.514 -0.976,-0.704 -0.409,-0.191 -0.931,-0.286 -1.566,-0.286 -0.654,0 -1.238,0.113 -1.752,0.338 -0.514,0.225 -0.954,0.552 -1.319,0.981 -0.365,0.428 -0.644,0.953 -0.837,1.575 -0.194,0.622 -0.291,1.311 -0.291,2.067 0,1.637 0.376,2.897 1.128,3.78 0.753,0.882 1.802,1.323 3.147,1.323 0.654,0 1.268,-0.086 1.843,-0.257 0.574,-0.171 1.157,-0.416 1.747,-0.733 v -2.266 h -2.19 c -0.527,0 -0.925,-0.08 -1.195,-0.238 -0.27,-0.159 -0.405,-0.429 -0.405,-0.81 0,-0.311 0.113,-0.568 0.338,-0.771 0.226,-0.203 0.532,-0.305 0.919,-0.305 h 3.209 c 0.393,0 0.727,0.035 1,0.105 0.273,0.07 0.493,0.226 0.661,0.467 0.169,0.241 0.253,0.603 0.253,1.085 z"
           style="fill:#21223b;fill-rule:nonzero;font-variation-settings:normal;opacity:1;vector-effect:none;fill-opacity:1;stroke-width:1;stroke-linecap:butt;stroke-linejoin:miter;stroke-miterlimit:4;stroke-dasharray:none;stroke-dashoffset:0;stroke-opacity:1;-inkscape-stroke:none;stop-color:#000000;stop-opacity:1"
           id="path323" />
        <path
           d="m 19.814,-12.483 v 3.999 h 6.103 v -3.999 c 0,-0.571 0.129,-0.999 0.386,-1.285 0.257,-0.286 0.595,-0.429 1.014,-0.429 0.425,0 0.77,0.142 1.033,0.424 0.264,0.283 0.395,0.713 0.395,1.29 v 10.998 c 0,0.577 -0.133,1.009 -0.4,1.295 -0.266,0.285 -0.609,0.428 -1.028,0.428 -0.425,0 -0.765,-0.144 -1.019,-0.433 -0.254,-0.289 -0.381,-0.719 -0.381,-1.29 v -4.694 h -6.103 v 4.694 c 0,0.577 -0.133,1.009 -0.4,1.295 -0.266,0.285 -0.609,0.428 -1.028,0.428 -0.425,0 -0.765,-0.144 -1.019,-0.433 -0.254,-0.289 -0.381,-0.719 -0.381,-1.29 v -10.998 c 0,-0.571 0.126,-0.999 0.376,-1.285 0.251,-0.286 0.592,-0.429 1.024,-0.429 0.425,0 0.77,0.142 1.033,0.424 0.263,0.283 0.395,0.713 0.395,1.29 z"
           style="fill:#21223b;fill-rule:nonzero;font-variation-settings:normal;opacity:1;vector-effect:none;fill-opacity:1;stroke-width:1;stroke-linecap:butt;stroke-linejoin:miter;stroke-miterlimit:4;stroke-dasharray:none;stroke-dashoffset:0;stroke-opacity:1;-inkscape-stroke:none;stop-color:#000000;stop-opacity:1"
           id="path325" />
        <path
           d="m 31.897,-1.485 v -10.998 c 0,-0.571 0.13,-0.999 0.39,-1.285 0.261,-0.286 0.597,-0.429 1.01,-0.429 0.425,0 0.769,0.142 1.033,0.424 0.263,0.283 0.395,0.713 0.395,1.29 v 10.998 c 0,0.577 -0.132,1.009 -0.395,1.295 -0.264,0.285 -0.608,0.428 -1.033,0.428 -0.407,0 -0.741,-0.144 -1.005,-0.433 -0.263,-0.289 -0.395,-0.719 -0.395,-1.29 z"
           style="fill:#21223b;fill-rule:nonzero;font-variation-settings:normal;opacity:1;vector-effect:none;fill-opacity:1;stroke-width:1;stroke-linecap:butt;stroke-linejoin:miter;stroke-miterlimit:4;stroke-dasharray:none;stroke-dashoffset:0;stroke-opacity:1;-inkscape-stroke:none;stop-color:#000000;stop-opacity:1"
           id="path327" />
      </g>
      <g
         id="text323"
         serif:id="text32"
         transform="translate(902.43,357.949)">
        <path
           d="M 10.588,-11.626 H 7.503 v 10.141 c 0,0.584 -0.13,1.017 -0.39,1.299 C 6.852,0.097 6.516,0.238 6.103,0.238 5.684,0.238 5.343,0.095 5.08,-0.19 4.816,-0.476 4.685,-0.908 4.685,-1.485 V -11.626 H 1.6 c -0.483,0 -0.841,-0.106 -1.076,-0.319 -0.235,-0.212 -0.353,-0.493 -0.353,-0.842 0,-0.362 0.123,-0.648 0.367,-0.857 0.244,-0.21 0.598,-0.314 1.062,-0.314 h 8.988 c 0.489,0 0.852,0.107 1.09,0.323 0.238,0.216 0.357,0.499 0.357,0.848 0,0.349 -0.12,0.63 -0.362,0.842 -0.241,0.213 -0.603,0.319 -1.085,0.319 z"
           style="fill:#21223b;fill-rule:nonzero;font-variation-settings:normal;opacity:1;vector-effect:none;fill-opacity:1;stroke-width:1;stroke-linecap:butt;stroke-linejoin:miter;stroke-miterlimit:4;stroke-dasharray:none;stroke-dashoffset:0;stroke-opacity:1;-inkscape-stroke:none;stop-color:#000000;stop-opacity:1"
           id="path337" />
        <path
           d="m 13.73,-5.77 v -6.713 c 0,-0.571 0.129,-0.999 0.386,-1.285 0.257,-0.286 0.595,-0.429 1.014,-0.429 0.438,0 0.785,0.143 1.042,0.429 0.257,0.286 0.386,0.714 0.386,1.285 v 6.865 c 0,0.781 0.087,1.433 0.262,1.957 0.174,0.524 0.484,0.93 0.928,1.219 0.444,0.289 1.066,0.433 1.866,0.433 1.105,0 1.886,-0.294 2.343,-0.881 0.457,-0.587 0.685,-1.477 0.685,-2.671 v -6.922 c 0,-0.577 0.127,-1.007 0.381,-1.29 0.254,-0.282 0.593,-0.424 1.019,-0.424 0.425,0 0.769,0.142 1.033,0.424 0.263,0.283 0.395,0.713 0.395,1.29 v 6.713 c 0,1.092 -0.106,2.003 -0.319,2.733 -0.213,0.73 -0.614,1.371 -1.204,1.923 -0.508,0.47 -1.099,0.812 -1.771,1.028 -0.673,0.216 -1.46,0.324 -2.362,0.324 -1.073,0 -1.996,-0.116 -2.771,-0.347 C 16.269,-0.341 15.637,-0.7 15.149,-1.185 14.66,-1.671 14.301,-2.293 14.073,-3.052 13.844,-3.81 13.73,-4.716 13.73,-5.77 Z"
           style="fill:#21223b;fill-rule:nonzero;font-variation-settings:normal;opacity:1;vector-effect:none;fill-opacity:1;stroke-width:1;stroke-linecap:butt;stroke-linejoin:miter;stroke-miterlimit:4;stroke-dasharray:none;stroke-dashoffset:0;stroke-opacity:1;-inkscape-stroke:none;stop-color:#000000;stop-opacity:1"
           id="path339" />
        <path
           d="m 30.593,-12.34 3.161,9.36 3.17,-9.426 c 0.165,-0.496 0.289,-0.84 0.372,-1.034 0.082,-0.193 0.219,-0.368 0.409,-0.523 0.191,-0.156 0.451,-0.234 0.781,-0.234 0.241,0 0.465,0.061 0.671,0.181 0.206,0.121 0.368,0.281 0.486,0.481 0.117,0.2 0.176,0.402 0.176,0.605 0,0.139 -0.019,0.29 -0.057,0.452 -0.038,0.162 -0.086,0.321 -0.143,0.476 -0.057,0.156 -0.114,0.316 -0.171,0.481 l -3.381,9.122 c -0.12,0.349 -0.241,0.68 -0.361,0.995 -0.121,0.314 -0.261,0.59 -0.419,0.828 -0.159,0.238 -0.37,0.433 -0.634,0.586 -0.263,0.152 -0.585,0.228 -0.966,0.228 -0.381,0 -0.703,-0.075 -0.966,-0.224 -0.264,-0.149 -0.476,-0.346 -0.638,-0.59 C 31.921,-0.82 31.78,-1.098 31.659,-1.409 31.538,-1.72 31.418,-2.05 31.297,-2.399 l -3.323,-9.046 c -0.057,-0.165 -0.116,-0.327 -0.176,-0.485 -0.06,-0.159 -0.111,-0.33 -0.152,-0.515 -0.042,-0.184 -0.062,-0.339 -0.062,-0.466 0,-0.324 0.13,-0.619 0.39,-0.886 0.26,-0.266 0.587,-0.4 0.981,-0.4 0.482,0 0.823,0.148 1.023,0.443 0.2,0.295 0.405,0.767 0.615,1.414 z"
           style="fill:#21223b;fill-rule:nonzero;font-variation-settings:normal;opacity:1;vector-effect:none;fill-opacity:1;stroke-width:1;stroke-linecap:butt;stroke-linejoin:miter;stroke-miterlimit:4;stroke-dasharray:none;stroke-dashoffset:0;stroke-opacity:1;-inkscape-stroke:none;stop-color:#000000;stop-opacity:1"
           id="path341" />
      </g>
      <g
         id="text343"
         serif:id="text34"
         transform="translate(890.072,459.906)">
        <path
           d="m 6.941,-5.437 h -2.59 v 3.952 c 0,0.565 -0.133,0.993 -0.4,1.285 C 3.685,0.092 3.348,0.238 2.942,0.238 2.517,0.238 2.174,0.094 1.914,-0.195 1.654,-0.484 1.523,-0.908 1.523,-1.466 v -10.76 c 0,-0.622 0.143,-1.066 0.429,-1.333 0.286,-0.266 0.739,-0.399 1.361,-0.399 h 3.628 c 1.073,0 1.898,0.082 2.476,0.247 0.571,0.159 1.065,0.422 1.48,0.79 0.416,0.369 0.732,0.819 0.948,1.352 0.216,0.534 0.323,1.133 0.323,1.8 0,1.422 -0.438,2.499 -1.314,3.233 -0.875,0.733 -2.18,1.099 -3.913,1.099 z M 6.256,-11.835 H 4.351 v 4.265 h 1.905 c 0.666,0 1.223,-0.069 1.671,-0.209 0.447,-0.14 0.788,-0.368 1.023,-0.686 0.235,-0.317 0.352,-0.733 0.352,-1.247 0,-0.616 -0.18,-1.117 -0.542,-1.504 -0.406,-0.413 -1.241,-0.619 -2.504,-0.619 z"
           style="fill:#21223b;fill-rule:nonzero;font-variation-settings:normal;opacity:1;vector-effect:none;fill-opacity:1;stroke-width:1;stroke-linecap:butt;stroke-linejoin:miter;stroke-miterlimit:4;stroke-dasharray:none;stroke-dashoffset:0;stroke-opacity:1;-inkscape-stroke:none;stop-color:#000000;stop-opacity:1"
           id="path353" />
        <path
           d="m 25.756,-1.733 c 0.412,0.279 0.863,0.551 1.352,0.814 0.488,0.264 0.812,0.473 0.971,0.629 0.159,0.155 0.238,0.376 0.238,0.661 0,0.203 -0.094,0.407 -0.281,0.61 -0.187,0.203 -0.414,0.304 -0.681,0.304 -0.216,0 -0.477,-0.069 -0.785,-0.209 C 26.262,0.936 25.9,0.733 25.484,0.467 25.068,0.2 24.613,-0.111 24.118,-0.467 c -0.92,0.47 -2.05,0.705 -3.39,0.705 -1.085,0 -2.058,-0.173 -2.918,-0.519 -0.86,-0.346 -1.582,-0.844 -2.166,-1.495 -0.584,-0.65 -1.024,-1.423 -1.319,-2.318 -0.295,-0.895 -0.443,-1.87 -0.443,-2.923 0,-1.073 0.154,-2.057 0.462,-2.952 0.308,-0.895 0.754,-1.657 1.338,-2.285 0.584,-0.629 1.295,-1.109 2.133,-1.443 0.838,-0.333 1.79,-0.5 2.856,-0.5 1.447,0 2.69,0.294 3.728,0.881 1.038,0.587 1.823,1.422 2.356,2.504 0.534,1.083 0.8,2.354 0.8,3.814 0,2.215 -0.6,3.97 -1.799,5.265 z m -2.219,-1.542 c 0.394,-0.451 0.684,-0.984 0.871,-1.6 0.188,-0.616 0.281,-1.33 0.281,-2.142 0,-1.022 -0.165,-1.908 -0.495,-2.657 -0.33,-0.749 -0.801,-1.315 -1.414,-1.699 -0.612,-0.384 -1.315,-0.576 -2.109,-0.576 -0.565,0 -1.087,0.106 -1.566,0.319 -0.479,0.212 -0.892,0.522 -1.238,0.928 -0.346,0.406 -0.619,0.925 -0.819,1.557 -0.2,0.631 -0.3,1.341 -0.3,2.128 0,1.606 0.375,2.842 1.124,3.708 0.749,0.867 1.695,1.3 2.837,1.3 0.47,0 0.952,-0.098 1.447,-0.295 -0.298,-0.222 -0.671,-0.445 -1.118,-0.667 -0.448,-0.222 -0.754,-0.393 -0.919,-0.514 -0.165,-0.12 -0.248,-0.292 -0.248,-0.514 0,-0.19 0.08,-0.359 0.238,-0.505 0.159,-0.146 0.334,-0.219 0.524,-0.219 0.578,0 1.546,0.483 2.904,1.448 z"
           style="fill:#21223b;fill-rule:nonzero;font-variation-settings:normal;opacity:1;vector-effect:none;fill-opacity:1;stroke-width:1;stroke-linecap:butt;stroke-linejoin:miter;stroke-miterlimit:4;stroke-dasharray:none;stroke-dashoffset:0;stroke-opacity:1;-inkscape-stroke:none;stop-color:#000000;stop-opacity:1"
           id="path355" />
        <path
           d="m 33.773,-5.97 h -0.991 v 4.485 c 0,0.59 -0.13,1.025 -0.39,1.304 -0.26,0.279 -0.6,0.419 -1.019,0.419 -0.45,0 -0.8,-0.146 -1.047,-0.438 -0.248,-0.292 -0.371,-0.72 -0.371,-1.285 v -10.741 c 0,-0.609 0.136,-1.05 0.409,-1.323 0.273,-0.273 0.714,-0.409 1.323,-0.409 h 4.599 c 0.635,0 1.178,0.026 1.629,0.08 0.45,0.054 0.856,0.164 1.218,0.329 0.438,0.184 0.825,0.447 1.162,0.79 0.336,0.343 0.592,0.741 0.766,1.195 0.175,0.454 0.262,0.935 0.262,1.443 0,1.041 -0.293,1.872 -0.88,2.494 -0.588,0.622 -1.478,1.064 -2.671,1.324 0.501,0.266 0.98,0.66 1.437,1.18 0.458,0.521 0.865,1.075 1.224,1.662 0.359,0.587 0.638,1.117 0.838,1.59 0.2,0.473 0.3,0.798 0.3,0.976 0,0.184 -0.059,0.367 -0.176,0.547 -0.118,0.181 -0.278,0.324 -0.481,0.429 -0.203,0.105 -0.438,0.157 -0.705,0.157 -0.317,0 -0.584,-0.075 -0.8,-0.224 -0.215,-0.149 -0.401,-0.338 -0.557,-0.566 -0.155,-0.229 -0.366,-0.565 -0.633,-1.01 l -1.133,-1.885 c -0.406,-0.692 -0.769,-1.219 -1.09,-1.58 -0.321,-0.362 -0.646,-0.61 -0.976,-0.743 -0.33,-0.133 -0.746,-0.2 -1.247,-0.2 z m 1.618,-5.865 h -2.609 v 3.837 h 2.533 c 0.679,0 1.251,-0.059 1.714,-0.176 0.463,-0.118 0.817,-0.318 1.062,-0.6 0.244,-0.283 0.366,-0.671 0.366,-1.166 0,-0.388 -0.098,-0.729 -0.295,-1.024 -0.197,-0.295 -0.47,-0.516 -0.819,-0.662 -0.33,-0.139 -0.98,-0.209 -1.952,-0.209 z"
           style="fill:#21223b;fill-rule:nonzero;font-variation-settings:normal;opacity:1;vector-effect:none;fill-opacity:1;stroke-width:1;stroke-linecap:butt;stroke-linejoin:miter;stroke-miterlimit:4;stroke-dasharray:none;stroke-dashoffset:0;stroke-opacity:1;-inkscape-stroke:none;stop-color:#000000;stop-opacity:1"
           id="path357" />
        <path
           d="m 54.606,-4.189 c 0,0.844 -0.218,1.602 -0.653,2.275 -0.434,0.673 -1.071,1.2 -1.909,1.581 -0.837,0.381 -1.831,0.571 -2.98,0.571 -1.377,0 -2.513,-0.26 -3.408,-0.781 -0.635,-0.374 -1.151,-0.874 -1.548,-1.499 -0.396,-0.626 -0.595,-1.233 -0.595,-1.824 0,-0.342 0.119,-0.636 0.357,-0.88 0.238,-0.245 0.541,-0.367 0.91,-0.367 0.298,0 0.55,0.095 0.756,0.286 0.207,0.19 0.383,0.473 0.529,0.847 0.178,0.444 0.37,0.816 0.576,1.114 0.206,0.298 0.497,0.544 0.871,0.738 0.375,0.194 0.867,0.29 1.476,0.29 0.838,0 1.519,-0.195 2.042,-0.585 0.524,-0.391 0.786,-0.878 0.786,-1.462 0,-0.463 -0.141,-0.839 -0.424,-1.128 C 51.11,-5.302 50.745,-5.522 50.297,-5.675 49.85,-5.827 49.251,-5.989 48.502,-6.16 47.5,-6.395 46.66,-6.67 45.984,-6.984 45.308,-7.298 44.772,-7.727 44.375,-8.269 43.978,-8.812 43.78,-9.487 43.78,-10.293 c 0,-0.768 0.209,-1.45 0.628,-2.047 0.419,-0.597 1.025,-1.055 1.819,-1.376 0.793,-0.32 1.726,-0.481 2.799,-0.481 0.857,0 1.598,0.107 2.223,0.319 0.626,0.213 1.145,0.496 1.557,0.848 0.413,0.352 0.714,0.722 0.905,1.109 0.19,0.387 0.285,0.765 0.285,1.133 0,0.337 -0.119,0.64 -0.357,0.909 -0.238,0.27 -0.535,0.405 -0.89,0.405 -0.324,0 -0.57,-0.081 -0.738,-0.243 -0.168,-0.162 -0.351,-0.427 -0.547,-0.795 -0.254,-0.527 -0.559,-0.938 -0.914,-1.233 -0.356,-0.295 -0.927,-0.442 -1.714,-0.442 -0.73,0 -1.319,0.16 -1.767,0.48 -0.447,0.321 -0.671,0.707 -0.671,1.157 0,0.279 0.076,0.521 0.229,0.724 0.152,0.203 0.362,0.378 0.628,0.524 0.267,0.146 0.537,0.26 0.809,0.342 0.273,0.083 0.724,0.203 1.353,0.362 0.787,0.184 1.499,0.387 2.137,0.609 0.638,0.223 1.181,0.492 1.628,0.81 0.448,0.317 0.797,0.719 1.048,1.204 0.25,0.486 0.376,1.081 0.376,1.786 z"
           style="fill:#21223b;fill-rule:nonzero;font-variation-settings:normal;opacity:1;vector-effect:none;fill-opacity:1;stroke-width:1;stroke-linecap:butt;stroke-linejoin:miter;stroke-miterlimit:4;stroke-dasharray:none;stroke-dashoffset:0;stroke-opacity:1;-inkscape-stroke:none;stop-color:#000000;stop-opacity:1"
           id="path359" />
      </g>
      <g
         id="text362"
         serif:id="text36"
         transform="translate(996.707,546.805)">
        <path
           d="m 6.237,-2.104 -2.238,-8.893 v 9.635 c 0,0.534 -0.119,0.934 -0.357,1.2 -0.238,0.267 -0.554,0.4 -0.947,0.4 C 2.314,0.238 2.003,0.106 1.761,-0.157 1.52,-0.421 1.4,-0.822 1.4,-1.362 v -11.044 c 0,-0.61 0.158,-1.021 0.476,-1.234 0.317,-0.212 0.746,-0.318 1.285,-0.318 h 0.876 c 0.527,0 0.909,0.047 1.147,0.142 0.238,0.096 0.415,0.267 0.529,0.514 0.114,0.248 0.244,0.651 0.39,1.21 l 2.028,7.645 2.028,-7.645 c 0.146,-0.559 0.277,-0.962 0.391,-1.21 0.114,-0.247 0.29,-0.418 0.528,-0.514 0.238,-0.095 0.621,-0.142 1.148,-0.142 h 0.876 c 0.539,0 0.968,0.106 1.285,0.318 0.317,0.213 0.476,0.624 0.476,1.234 v 11.044 c 0,0.534 -0.119,0.934 -0.357,1.2 -0.238,0.267 -0.557,0.4 -0.957,0.4 -0.374,0 -0.682,-0.133 -0.924,-0.4 -0.241,-0.266 -0.361,-0.666 -0.361,-1.2 v -9.635 l -2.238,8.893 C 9.88,-1.527 9.761,-1.103 9.669,-0.833 9.577,-0.563 9.407,-0.317 9.16,-0.095 8.912,0.127 8.569,0.238 8.131,0.238 7.801,0.238 7.522,0.167 7.293,0.024 7.065,-0.119 6.887,-0.302 6.76,-0.524 6.633,-0.746 6.533,-0.992 6.46,-1.262 6.387,-1.531 6.313,-1.812 6.237,-2.104 Z"
           style="fill:#21223b;fill-rule:nonzero;font-variation-settings:normal;opacity:1;vector-effect:none;fill-opacity:1;stroke-width:1;stroke-linecap:butt;stroke-linejoin:miter;stroke-miterlimit:4;stroke-dasharray:none;stroke-dashoffset:0;stroke-opacity:1;-inkscape-stroke:none;stop-color:#000000;stop-opacity:1"
           id="path369" />
        <path
           d="m 21.452,-12.502 5.437,8.227 v -8.303 c 0,-0.539 0.116,-0.944 0.347,-1.214 0.232,-0.27 0.545,-0.405 0.938,-0.405 0.406,0 0.727,0.135 0.962,0.405 0.235,0.27 0.352,0.675 0.352,1.214 V -1.6 c 0,1.225 -0.508,1.838 -1.523,1.838 -0.254,0 -0.483,-0.036 -0.686,-0.109 C 27.076,0.056 26.885,-0.06 26.708,-0.219 26.53,-0.378 26.365,-0.563 26.213,-0.776 26.06,-0.989 25.908,-1.206 25.756,-1.428 L 20.452,-9.56 v 8.179 c 0,0.534 -0.124,0.937 -0.371,1.21 -0.248,0.273 -0.565,0.409 -0.952,0.409 -0.4,0 -0.721,-0.138 -0.962,-0.414 -0.241,-0.276 -0.362,-0.678 -0.362,-1.205 v -10.768 c 0,-0.457 0.051,-0.816 0.153,-1.076 0.12,-0.286 0.32,-0.519 0.599,-0.7 0.28,-0.181 0.581,-0.272 0.905,-0.272 0.254,0 0.471,0.042 0.652,0.124 0.181,0.083 0.34,0.194 0.476,0.333 0.137,0.14 0.276,0.321 0.419,0.543 0.143,0.222 0.291,0.454 0.443,0.695 z"
           style="fill:#21223b;fill-rule:nonzero;font-variation-settings:normal;opacity:1;vector-effect:none;fill-opacity:1;stroke-width:1;stroke-linecap:butt;stroke-linejoin:miter;stroke-miterlimit:4;stroke-dasharray:none;stroke-dashoffset:0;stroke-opacity:1;-inkscape-stroke:none;stop-color:#000000;stop-opacity:1"
           id="path371" />
        <path
           d="m 38.724,-14.197 c 1.447,0 2.69,0.294 3.728,0.881 1.037,0.587 1.823,1.422 2.356,2.504 0.533,1.083 0.8,2.354 0.8,3.814 0,1.079 -0.146,2.06 -0.438,2.942 -0.292,0.882 -0.73,1.647 -1.314,2.295 -0.584,0.647 -1.301,1.142 -2.152,1.485 -0.85,0.343 -1.825,0.514 -2.923,0.514 -1.092,0 -2.069,-0.176 -2.933,-0.528 -0.863,-0.353 -1.583,-0.849 -2.161,-1.491 -0.578,-0.641 -1.014,-1.412 -1.309,-2.313 -0.295,-0.902 -0.443,-1.876 -0.443,-2.923 0,-1.073 0.154,-2.057 0.462,-2.952 0.308,-0.895 0.754,-1.657 1.338,-2.285 0.584,-0.629 1.295,-1.109 2.132,-1.443 0.838,-0.333 1.79,-0.5 2.857,-0.5 z m 4.018,7.18 c 0,-1.022 -0.165,-1.908 -0.495,-2.657 -0.33,-0.749 -0.802,-1.315 -1.414,-1.699 -0.613,-0.384 -1.316,-0.576 -2.109,-0.576 -0.565,0 -1.087,0.106 -1.566,0.319 -0.48,0.212 -0.892,0.522 -1.238,0.928 -0.346,0.406 -0.619,0.925 -0.819,1.557 -0.2,0.631 -0.3,1.341 -0.3,2.128 0,0.793 0.1,1.51 0.3,2.152 0.2,0.641 0.482,1.172 0.847,1.594 0.365,0.422 0.784,0.738 1.257,0.948 0.473,0.209 0.992,0.314 1.557,0.314 0.724,0 1.389,-0.181 1.995,-0.543 0.606,-0.362 1.088,-0.92 1.447,-1.676 0.359,-0.755 0.538,-1.685 0.538,-2.789 z"
           style="fill:#21223b;fill-rule:nonzero;font-variation-settings:normal;opacity:1;vector-effect:none;fill-opacity:1;stroke-width:1;stroke-linecap:butt;stroke-linejoin:miter;stroke-miterlimit:4;stroke-dasharray:none;stroke-dashoffset:0;stroke-opacity:1;-inkscape-stroke:none;stop-color:#000000;stop-opacity:1"
           id="path373" />
      </g>
      <g
         id="text382"
         serif:id="text38"
         transform="translate(1100.54,547.082)">
        <path
           d="m 9.636,-12.483 v 7.313 c 0,0.635 -0.027,1.174 -0.081,1.618 C 9.501,-3.107 9.379,-2.656 9.188,-2.199 8.871,-1.431 8.347,-0.833 7.617,-0.405 6.887,0.024 5.999,0.238 4.951,0.238 4.005,0.238 3.217,0.089 2.585,-0.209 1.953,-0.508 1.444,-0.99 1.057,-1.657 0.854,-2.012 0.689,-2.422 0.562,-2.885 0.435,-3.348 0.371,-3.79 0.371,-4.208 c 0,-0.445 0.124,-0.784 0.372,-1.019 0.247,-0.235 0.565,-0.353 0.952,-0.353 0.374,0 0.657,0.108 0.847,0.324 0.191,0.216 0.337,0.552 0.438,1.009 0.108,0.489 0.216,0.88 0.324,1.172 0.108,0.292 0.289,0.542 0.543,0.752 0.254,0.209 0.615,0.314 1.085,0.314 1.251,0 1.876,-0.917 1.876,-2.752 v -7.722 c 0,-0.571 0.125,-0.999 0.376,-1.285 0.251,-0.286 0.592,-0.429 1.024,-0.429 0.438,0 0.785,0.143 1.042,0.429 0.257,0.286 0.386,0.714 0.386,1.285 z"
           style="fill:#21223b;fill-rule:nonzero;font-variation-settings:normal;opacity:1;vector-effect:none;fill-opacity:1;stroke-width:1;stroke-linecap:butt;stroke-linejoin:miter;stroke-miterlimit:4;stroke-dasharray:none;stroke-dashoffset:0;stroke-opacity:1;-inkscape-stroke:none;stop-color:#000000;stop-opacity:1"
           id="path383" />
        <path
           d="m 15.549,-12.483 v 4.894 l 5.551,-5.789 c 0.266,-0.279 0.493,-0.485 0.68,-0.619 0.188,-0.133 0.437,-0.2 0.748,-0.2 0.406,0 0.735,0.119 0.985,0.358 0.251,0.238 0.376,0.528 0.376,0.871 0,0.412 -0.212,0.822 -0.638,1.228 l -3.437,3.256 3.961,5.675 c 0.279,0.394 0.489,0.738 0.629,1.033 0.139,0.295 0.209,0.583 0.209,0.862 0,0.311 -0.122,0.581 -0.367,0.809 -0.244,0.229 -0.576,0.343 -0.995,0.343 -0.393,0 -0.714,-0.084 -0.961,-0.252 -0.248,-0.168 -0.457,-0.392 -0.629,-0.672 -0.171,-0.279 -0.323,-0.533 -0.457,-0.761 l -3.342,-5.142 -2.313,2.219 v 2.885 c 0,0.584 -0.134,1.017 -0.4,1.299 -0.267,0.283 -0.61,0.424 -1.029,0.424 -0.241,0 -0.473,-0.063 -0.695,-0.19 C 13.203,-0.079 13.032,-0.251 12.911,-0.467 12.822,-0.644 12.768,-0.851 12.749,-1.085 12.73,-1.32 12.721,-1.66 12.721,-2.104 v -10.379 c 0,-0.571 0.125,-0.999 0.376,-1.285 0.251,-0.286 0.592,-0.429 1.023,-0.429 0.426,0 0.77,0.142 1.033,0.424 0.264,0.283 0.396,0.713 0.396,1.29 z"
           style="fill:#21223b;fill-rule:nonzero;font-variation-settings:normal;opacity:1;vector-effect:none;fill-opacity:1;stroke-width:1;stroke-linecap:butt;stroke-linejoin:miter;stroke-miterlimit:4;stroke-dasharray:none;stroke-dashoffset:0;stroke-opacity:1;-inkscape-stroke:none;stop-color:#000000;stop-opacity:1"
           id="path385" />
        <path
           d="m 29.907,-12.483 v 10.16 h 5.732 c 0.457,0 0.808,0.111 1.052,0.333 0.244,0.222 0.367,0.501 0.367,0.838 0,0.343 -0.121,0.62 -0.362,0.833 C 36.455,-0.106 36.102,0 35.639,0 h -6.827 c -0.616,0 -1.058,-0.136 -1.328,-0.409 -0.27,-0.273 -0.405,-0.715 -0.405,-1.324 v -10.75 c 0,-0.571 0.129,-0.999 0.386,-1.285 0.257,-0.286 0.595,-0.429 1.014,-0.429 0.425,0 0.769,0.142 1.033,0.424 0.263,0.283 0.395,0.713 0.395,1.29 z"
           style="fill:#21223b;fill-rule:nonzero;font-variation-settings:normal;opacity:1;vector-effect:none;fill-opacity:1;stroke-width:1;stroke-linecap:butt;stroke-linejoin:miter;stroke-miterlimit:4;stroke-dasharray:none;stroke-dashoffset:0;stroke-opacity:1;-inkscape-stroke:none;stop-color:#000000;stop-opacity:1"
           id="path387" />
      </g>
      <g
         transform="rotate(-94.204395,745.04842,-145.3828)"
         id="g467">
        <path
           d="m 211.332,72.402 c 16.656,10.389 24.946,25.94 29.774,43.626 l -10.179,-8.277 13.073,-4.76 c 0,0 -2.746,13.462 -2.894,13.037"
           style="fill:none;stroke:#ffffff;stroke-width:3;stroke-miterlimit:1.5;stroke-dasharray:none;stroke-opacity:1"
           id="path465" />
      </g>
      <path
         d="m 944.986,462.862 c -2.771,-0.649 -11.257,-0.145 -10.881,-0.232"
         style="fill:none;stroke:#8800e1;stroke-width:2.13px"
         id="path503" />
      <g
         transform="translate(-0.0202419,-2.59844)"
         id="g507">
        <path
           d="m 937.637,469.949 c 0,0 -2.677,8.008 -2.445,8.206 0.666,0.568 8.837,0.079 8.837,-0.482"
           style="fill:none;stroke:#8800e1;stroke-width:2.13px"
           id="path505" />
      </g>
      <g
         transform="translate(-0.0202419,-2.59844)"
         id="g511">
        <path
           d="m 941.256,470.185 c 0,0 -0.735,9.685 -0.573,12.518"
           style="fill:none;stroke:#8800e1;stroke-width:2.13px"
           id="path509" />
      </g>
    </g>
  </g>
</svg>
