<?xml version="1.0" encoding="UTF-8" standalone="no"?>
<!-- Created with Inkscape (http://www.inkscape.org/) -->

<svg
   width="24.193817mm"
   height="24.312294mm"
   viewBox="0 0 24.193817 24.312294"
   version="1.1"
   id="svg90202"
   sodipodi:docname="2022-TR-02-explanation_symbol1.svg"
   inkscape:version="1.1.1 (3bf5ae0d25, 2021-09-20)"
   xmlns:inkscape="http://www.inkscape.org/namespaces/inkscape"
   xmlns:sodipodi="http://sodipodi.sourceforge.net/DTD/sodipodi-0.dtd"
   xmlns="http://www.w3.org/2000/svg"
   xmlns:svg="http://www.w3.org/2000/svg">
  <sodipodi:namedview
     id="namedview90204"
     pagecolor="#ffffff"
     bordercolor="#666666"
     borderopacity="1.0"
     inkscape:pageshadow="2"
     inkscape:pageopacity="0.0"
     inkscape:pagecheckerboard="0"
     inkscape:document-units="mm"
     showgrid="false"
     inkscape:zoom="2.6547419"
     inkscape:cx="57.44438"
     inkscape:cy="150.86213"
     inkscape:window-width="1920"
     inkscape:window-height="1137"
     inkscape:window-x="-8"
     inkscape:window-y="-8"
     inkscape:window-maximized="1"
     inkscape:current-layer="layer1" />
  <defs
     id="defs90199" />
  <g
     inkscape:label="Ebene 1"
     inkscape:groupmode="layer"
     id="layer1"
     transform="translate(-53.150823,-12.650288)">
    <g
       transform="matrix(0.26458333,0,0,0.26458333,-136.54587,-192.55419)"
       id="g4108"
       style="clip-rule:evenodd;fill-rule:evenodd;stroke-linecap:round;stroke-linejoin:round;stroke-miterlimit:1.5">
      <path
         d="m 802.445,828.774 v -13.387 h -28.72 c 0,0 0,-15.711 0,-15.711 0,0 6.718,0.037 6.718,0.037 0,0 0,8.75 0,8.75 l 12.455,-0.109 v -21.428 h -60.34 v 22.625 l 11.993,0.093 v -9.88 c 0,0 7.159,0.02 7.159,0.02 0,0 0,15.603 0,15.603 0,0 -28.786,0 -28.786,0 v 13.387 h 28.786 c 0,0 0,16.156 0,16.156 10e-4,0 -7.159,0 -7.159,0 0,0 0,-9.246 0,-9.246 h -11.993 v 20.431 h 60.34 v -20.431 h -12.455 v 9.246 c 0,0 -6.718,0 -6.718,0 0,0 0,-16.156 0,-16.156 0,0 28.72,0 28.72,0 z m -41.523,-38.848 0.525,63.189 h -25.889 c 0,0 0,-14.431 0,-14.431 0,0 5.993,0 5.993,0 0,0 0,9.246 0,9.246 h 13.159 v -22.156 h -28.786 c 0,0 0,-7.387 0,-7.387 0,0 28.786,0 28.786,0 v -21.594 l -13.159,-0.037 v 9.864 c 0,0 -5.993,-0.046 -5.993,-0.046 0,0 0,-16.648 0,-16.648 z m 3,0 h 25.976 c 0,0 0,15.454 0,15.454 0,0 -6.455,0.057 -6.455,0.057 0,0 0,-8.707 0,-8.707 l -12.718,-0.071 v 21.728 h 28.72 v 7.387 c 0,0 -28.72,0 -28.72,0 v 22.156 h 12.718 v -9.246 c 0,0 6.455,0 6.455,0 0,0 0,14.431 0,14.431 h -25.451 z"
         style="fill:#ff8f00"
         id="path4106" />
    </g>
  </g>
</svg>
