<?xml version="1.0" encoding="UTF-8" standalone="no"?>
<svg
   xmlns:dc="http://purl.org/dc/elements/1.1/"
   xmlns:cc="http://creativecommons.org/ns#"
   xmlns:rdf="http://www.w3.org/1999/02/22-rdf-syntax-ns#"
   xmlns:svg="http://www.w3.org/2000/svg"
   xmlns="http://www.w3.org/2000/svg"
   xmlns:sodipodi="http://sodipodi.sourceforge.net/DTD/sodipodi-0.dtd"
   xmlns:inkscape="http://www.inkscape.org/namespaces/inkscape"
   inkscape:version="1.0 (4035a4fb49, 2020-05-01)"
   sodipodi:docname="2022-NL-03-taskbody.svg"
   id="svg367"
   version="1.1"
   viewBox="0 0 191.601 106.301">
  <metadata
     id="metadata373">
    <rdf:RDF>
      <cc:Work
         rdf:about="">
        <dc:format>image/svg+xml</dc:format>
        <dc:type
           rdf:resource="http://purl.org/dc/dcmitype/StillImage" />
      </cc:Work>
    </rdf:RDF>
  </metadata>
  <defs
     id="defs371" />
  <sodipodi:namedview
     inkscape:current-layer="svg367"
     showgrid="false"
     id="namedview369"
     inkscape:window-height="480"
     inkscape:window-width="640"
     inkscape:pageshadow="2"
     inkscape:pageopacity="0"
     guidetolerance="10"
     gridtolerance="10"
     objecttolerance="10"
     borderopacity="1"
     bordercolor="#666666"
     pagecolor="#ffffff" />
  <rect
     x="42.648727"
     y="0.24173784"
     width="21.167"
     height="21.167"
     style="clip-rule:evenodd;fill:#e4bf98;fill-rule:evenodd;stroke:#000000;stroke-width:0.5px;stroke-linecap:round;stroke-linejoin:round;stroke-miterlimit:1.5"
     id="rect3360" />
  <rect
     x="42.634735"
     y="21.412737"
     width="21.167"
     height="21.167"
     style="clip-rule:evenodd;fill:#e4bf98;fill-rule:evenodd;stroke:#000000;stroke-width:0.5px;stroke-linecap:round;stroke-linejoin:round;stroke-miterlimit:1.5"
     id="rect3364" />
  <rect
     x="42.634735"
     y="42.579739"
     width="21.167"
     height="21.167"
     style="clip-rule:evenodd;fill:#e4bf98;fill-rule:evenodd;stroke:#000000;stroke-width:0.5px;stroke-linecap:round;stroke-linejoin:round;stroke-miterlimit:1.5"
     id="rect3368" />
  <rect
     x="42.634735"
     y="63.746738"
     width="21.167"
     height="21.167"
     style="clip-rule:evenodd;fill:#e4bf98;fill-rule:evenodd;stroke:#000000;stroke-width:0.5px;stroke-linecap:round;stroke-linejoin:round;stroke-miterlimit:1.5"
     id="rect3372" />
  <rect
     x="42.634735"
     y="84.912743"
     width="21.167"
     height="21.167"
     style="clip-rule:evenodd;fill:#e4bf98;fill-rule:evenodd;stroke:#000000;stroke-width:0.5px;stroke-linecap:round;stroke-linejoin:round;stroke-miterlimit:1.5"
     id="rect3376" />
  <rect
     x="63.815735"
     y="0.24173784"
     width="21.167"
     height="21.167"
     style="clip-rule:evenodd;fill:#e4bf98;fill-rule:evenodd;stroke:#000000;stroke-width:0.5px;stroke-linecap:round;stroke-linejoin:round;stroke-miterlimit:1.5"
     id="rect3396" />
  <rect
     x="63.800735"
     y="21.412737"
     width="21.167"
     height="21.167"
     style="clip-rule:evenodd;fill:#e4bf98;fill-rule:evenodd;stroke:#000000;stroke-width:0.5px;stroke-linecap:round;stroke-linejoin:round;stroke-miterlimit:1.5"
     id="rect3400" />
  <rect
     x="63.800735"
     y="42.579739"
     width="21.167"
     height="21.167"
     style="clip-rule:evenodd;fill:#e4bf98;fill-rule:evenodd;stroke:#000000;stroke-width:0.5px;stroke-linecap:round;stroke-linejoin:round;stroke-miterlimit:1.5"
     id="rect3404" />
  <rect
     x="63.800735"
     y="63.746738"
     width="21.167"
     height="21.167"
     style="clip-rule:evenodd;fill:#e4bf98;fill-rule:evenodd;stroke:#000000;stroke-width:0.5px;stroke-linecap:round;stroke-linejoin:round;stroke-miterlimit:1.5"
     id="rect3408" />
  <rect
     x="63.800735"
     y="84.912743"
     width="21.167"
     height="21.167"
     style="clip-rule:evenodd;fill:#e4bf98;fill-rule:evenodd;stroke:#000000;stroke-width:0.5px;stroke-linecap:round;stroke-linejoin:round;stroke-miterlimit:1.5"
     id="rect3412" />
  <rect
     x="0.30073586"
     y="0.24673891"
     width="21.167"
     height="21.167"
     style="clip-rule:evenodd;fill:#e4bf98;fill-rule:evenodd;stroke:#000000;stroke-width:0.5px;stroke-linecap:round;stroke-linejoin:round;stroke-miterlimit:1.5"
     id="rect3360-2" />
  <rect
     x="0.28672829"
     y="21.417738"
     width="21.167"
     height="21.167"
     style="clip-rule:evenodd;fill:#e4bf98;fill-rule:evenodd;stroke:#000000;stroke-width:0.5px;stroke-linecap:round;stroke-linejoin:round;stroke-miterlimit:1.5"
     id="rect3364-3" />
  <rect
     x="0.28672829"
     y="42.583736"
     width="21.167"
     height="21.167"
     style="clip-rule:evenodd;fill:#e4bf98;fill-rule:evenodd;stroke:#000000;stroke-width:0.5px;stroke-linecap:round;stroke-linejoin:round;stroke-miterlimit:1.5"
     id="rect3368-0" />
  <rect
     x="0.28672829"
     y="63.75074"
     width="21.167"
     height="21.167"
     style="clip-rule:evenodd;fill:#e4bf98;fill-rule:evenodd;stroke:#000000;stroke-width:0.5px;stroke-linecap:round;stroke-linejoin:round;stroke-miterlimit:1.5"
     id="rect3372-3" />
  <rect
     x="0.28672829"
     y="84.91774"
     width="21.167"
     height="21.167"
     style="clip-rule:evenodd;fill:#e4bf98;fill-rule:evenodd;stroke:#000000;stroke-width:0.5px;stroke-linecap:round;stroke-linejoin:round;stroke-miterlimit:1.5"
     id="rect3376-7" />
  <rect
     x="21.467728"
     y="0.24673891"
     width="21.167"
     height="21.167"
     style="clip-rule:evenodd;fill:#e4bf98;fill-rule:evenodd;stroke:#000000;stroke-width:0.5px;stroke-linecap:round;stroke-linejoin:round;stroke-miterlimit:1.5"
     id="rect3396-3" />
  <rect
     x="21.452728"
     y="21.417738"
     width="21.167"
     height="21.167"
     style="clip-rule:evenodd;fill:#e4bf98;fill-rule:evenodd;stroke:#000000;stroke-width:0.5px;stroke-linecap:round;stroke-linejoin:round;stroke-miterlimit:1.5"
     id="rect3400-4" />
  <rect
     x="21.452728"
     y="42.583736"
     width="21.167"
     height="21.167"
     style="clip-rule:evenodd;fill:#e4bf98;fill-rule:evenodd;stroke:#000000;stroke-width:0.5px;stroke-linecap:round;stroke-linejoin:round;stroke-miterlimit:1.5"
     id="rect3404-4" />
  <rect
     x="21.452728"
     y="63.75074"
     width="21.167"
     height="21.167"
     style="clip-rule:evenodd;fill:#e4bf98;fill-rule:evenodd;stroke:#000000;stroke-width:0.5px;stroke-linecap:round;stroke-linejoin:round;stroke-miterlimit:1.5"
     id="rect3408-9" />
  <rect
     x="21.452728"
     y="84.91774"
     width="21.167"
     height="21.167"
     style="clip-rule:evenodd;fill:#e4bf98;fill-rule:evenodd;stroke:#000000;stroke-width:0.5px;stroke-linecap:round;stroke-linejoin:round;stroke-miterlimit:1.5"
     id="rect3412-1" />
  <rect
     x="84.981735"
     y="0.24173784"
     width="21.167"
     height="21.167"
     style="clip-rule:evenodd;fill:#e4bf98;fill-rule:evenodd;stroke:#000000;stroke-width:0.5px;stroke-linecap:round;stroke-linejoin:round;stroke-miterlimit:1.5"
     id="rect3432" />
  <rect
     x="84.967728"
     y="21.412737"
     width="21.167"
     height="21.167"
     style="clip-rule:evenodd;fill:#e4bf98;fill-rule:evenodd;stroke:#000000;stroke-width:0.5px;stroke-linecap:round;stroke-linejoin:round;stroke-miterlimit:1.5"
     id="rect3436" />
  <rect
     x="84.967728"
     y="42.579739"
     width="21.167"
     height="21.167"
     style="clip-rule:evenodd;fill:#e4bf98;fill-rule:evenodd;stroke:#000000;stroke-width:0.5px;stroke-linecap:round;stroke-linejoin:round;stroke-miterlimit:1.5"
     id="rect3440" />
  <rect
     x="84.967728"
     y="63.746738"
     width="21.167"
     height="21.167"
     style="clip-rule:evenodd;fill:#e4bf98;fill-rule:evenodd;stroke:#000000;stroke-width:0.5px;stroke-linecap:round;stroke-linejoin:round;stroke-miterlimit:1.5"
     id="rect3444" />
  <rect
     x="84.967728"
     y="84.912743"
     width="21.167"
     height="21.167"
     style="clip-rule:evenodd;fill:#e4bf98;fill-rule:evenodd;stroke:#000000;stroke-width:0.5px;stroke-linecap:round;stroke-linejoin:round;stroke-miterlimit:1.5"
     id="rect3448" />
  <rect
     x="106.14873"
     y="0.24173784"
     width="21.167"
     height="21.167"
     style="clip-rule:evenodd;fill:#e4bf98;fill-rule:evenodd;stroke:#000000;stroke-width:0.5px;stroke-linecap:round;stroke-linejoin:round;stroke-miterlimit:1.5"
     id="rect3468" />
  <rect
     x="106.13473"
     y="21.412737"
     width="21.167"
     height="21.167"
     style="clip-rule:evenodd;fill:#e4bf98;fill-rule:evenodd;stroke:#000000;stroke-width:0.5px;stroke-linecap:round;stroke-linejoin:round;stroke-miterlimit:1.5"
     id="rect3472" />
  <rect
     x="106.13473"
     y="42.579739"
     width="21.167"
     height="21.167"
     style="clip-rule:evenodd;fill:#e4bf98;fill-rule:evenodd;stroke:#000000;stroke-width:0.5px;stroke-linecap:round;stroke-linejoin:round;stroke-miterlimit:1.5"
     id="rect3476" />
  <rect
     x="106.13473"
     y="63.746738"
     width="21.167"
     height="21.167"
     style="clip-rule:evenodd;fill:#e4bf98;fill-rule:evenodd;stroke:#000000;stroke-width:0.5px;stroke-linecap:round;stroke-linejoin:round;stroke-miterlimit:1.5"
     id="rect3480" />
  <rect
     x="106.13473"
     y="84.912743"
     width="21.167"
     height="21.167"
     style="clip-rule:evenodd;fill:#e4bf98;fill-rule:evenodd;stroke:#000000;stroke-width:0.5px;stroke-linecap:round;stroke-linejoin:round;stroke-miterlimit:1.5"
     id="rect3484" />
  <rect
     x="127.31573"
     y="0.24173784"
     width="21.167"
     height="21.167"
     style="clip-rule:evenodd;fill:#e4bf98;fill-rule:evenodd;stroke:#000000;stroke-width:0.5px;stroke-linecap:round;stroke-linejoin:round;stroke-miterlimit:1.5"
     id="rect3504" />
  <rect
     x="127.30073"
     y="21.412737"
     width="21.167"
     height="21.167"
     style="clip-rule:evenodd;fill:#e4bf98;fill-rule:evenodd;stroke:#000000;stroke-width:0.5px;stroke-linecap:round;stroke-linejoin:round;stroke-miterlimit:1.5"
     id="rect3508" />
  <rect
     x="127.30073"
     y="42.579739"
     width="21.167"
     height="21.167"
     style="clip-rule:evenodd;fill:#e4bf98;fill-rule:evenodd;stroke:#000000;stroke-width:0.5px;stroke-linecap:round;stroke-linejoin:round;stroke-miterlimit:1.5"
     id="rect3512" />
  <rect
     x="127.30073"
     y="63.746738"
     width="21.167"
     height="21.167"
     style="clip-rule:evenodd;fill:#e4bf98;fill-rule:evenodd;stroke:#000000;stroke-width:0.5px;stroke-linecap:round;stroke-linejoin:round;stroke-miterlimit:1.5"
     id="rect3516" />
  <rect
     x="127.30073"
     y="84.912743"
     width="21.167"
     height="21.167"
     style="clip-rule:evenodd;fill:#e4bf98;fill-rule:evenodd;stroke:#000000;stroke-width:0.5px;stroke-linecap:round;stroke-linejoin:round;stroke-miterlimit:1.5"
     id="rect3520" />
  <rect
     x="148.48174"
     y="0.24173784"
     width="21.167"
     height="21.167"
     style="clip-rule:evenodd;fill:#e4bf98;fill-rule:evenodd;stroke:#000000;stroke-width:0.5px;stroke-linecap:round;stroke-linejoin:round;stroke-miterlimit:1.5"
     id="rect3540" />
  <rect
     x="148.46773"
     y="21.412737"
     width="21.167"
     height="21.167"
     style="clip-rule:evenodd;fill:#e4bf98;fill-rule:evenodd;stroke:#000000;stroke-width:0.5px;stroke-linecap:round;stroke-linejoin:round;stroke-miterlimit:1.5"
     id="rect3544" />
  <rect
     x="148.46773"
     y="42.579739"
     width="21.167"
     height="21.167"
     style="clip-rule:evenodd;fill:#e4bf98;fill-rule:evenodd;stroke:#000000;stroke-width:0.5px;stroke-linecap:round;stroke-linejoin:round;stroke-miterlimit:1.5"
     id="rect3548" />
  <rect
     x="148.46773"
     y="63.746738"
     width="21.167"
     height="21.167"
     style="clip-rule:evenodd;fill:#e4bf98;fill-rule:evenodd;stroke:#000000;stroke-width:0.5px;stroke-linecap:round;stroke-linejoin:round;stroke-miterlimit:1.5"
     id="rect3552" />
  <rect
     x="148.46773"
     y="84.912743"
     width="21.167"
     height="21.167"
     style="clip-rule:evenodd;fill:#e4bf98;fill-rule:evenodd;stroke:#000000;stroke-width:0.5px;stroke-linecap:round;stroke-linejoin:round;stroke-miterlimit:1.5"
     id="rect3556" />
  <rect
     x="169.64774"
     y="0.24173784"
     width="21.167"
     height="21.167"
     style="clip-rule:evenodd;fill:#e4bf98;fill-rule:evenodd;stroke:#000000;stroke-width:0.5px;stroke-linecap:round;stroke-linejoin:round;stroke-miterlimit:1.5"
     id="rect3576" />
  <rect
     x="169.63474"
     y="21.412737"
     width="21.167"
     height="21.167"
     style="clip-rule:evenodd;fill:#e4bf98;fill-rule:evenodd;stroke:#000000;stroke-width:0.5px;stroke-linecap:round;stroke-linejoin:round;stroke-miterlimit:1.5"
     id="rect3580" />
  <rect
     x="169.63474"
     y="42.579739"
     width="21.167"
     height="21.167"
     style="clip-rule:evenodd;fill:#e4bf98;fill-rule:evenodd;stroke:#000000;stroke-width:0.5px;stroke-linecap:round;stroke-linejoin:round;stroke-miterlimit:1.5"
     id="rect3584" />
  <rect
     x="169.63474"
     y="63.746738"
     width="21.167"
     height="21.167"
     style="clip-rule:evenodd;fill:#e4bf98;fill-rule:evenodd;stroke:#000000;stroke-width:0.5px;stroke-linecap:round;stroke-linejoin:round;stroke-miterlimit:1.5"
     id="rect3588" />
  <rect
     x="169.63474"
     y="84.912743"
     width="21.167"
     height="21.167"
     style="clip-rule:evenodd;fill:#e4bf98;fill-rule:evenodd;stroke:#000000;stroke-width:0.5px;stroke-linecap:round;stroke-linejoin:round;stroke-miterlimit:1.5"
     id="rect3592" />
  <path
     id="path3794"
     style="clip-rule:evenodd;fill:#dcafcb;fill-rule:evenodd;stroke:#8030aa;stroke-width:0.526338px;stroke-linecap:round;stroke-linejoin:round;stroke-miterlimit:1.5"
     d="m 0.49475714,85.371859 v 17.913301 c -0.15428513,2.1913 0.96544756,3.19098 3.00467526,3.26135 H 17.73429 c 3.186487,0.12998 3.895977,-1.40774 4.000535,-3.00586 0,0 0.0058,-11.901579 -0.07348,-18.168791 z" />
  <path
     id="path3798"
     style="clip-rule:evenodd;fill:#40211f;fill-rule:evenodd;stroke-width:0.279965;stroke-linecap:round;stroke-linejoin:round;stroke-miterlimit:1.5"
     d="m 3.8669939,88.127925 c -0.6435656,0 -1.1685016,0.523552 -1.1685016,1.168148 V 102.8347 c 0,0.64486 0.524936,1.16815 1.1685016,1.16815 H 17.405597 c 0.646531,0 1.168502,-0.52329 1.168502,-1.16815 V 89.296073 c 0,-0.644596 -0.521971,-1.168148 -1.168502,-1.168148 z" />
  <path
     id="path3802"
     style="clip-rule:evenodd;fill:#271817;fill-rule:evenodd;stroke-width:0.264583;stroke-linecap:round;stroke-linejoin:round;stroke-miterlimit:1.5"
     d="m 16.344855,102.71687 c -4.317995,0.71807 -12.9010675,1.49462 -13.6445457,0.11773 0,0.64479 0.5212285,1.16814 1.166811,1.16814 H 17.405832 c 0.645583,0 1.169457,-0.52335 1.169457,-1.16814 V 89.295893 c 0,-0.30771 -0.119062,-0.587904 -0.314854,-0.79666 -0.190499,-0.203729 -0.566207,8.475917 -0.746124,13.049497 0,0.64453 -0.523874,1.16814 -1.169456,1.16814 z" />
  <path
     id="path3806"
     style="clip-rule:evenodd;fill:#664f4d;fill-rule:evenodd;stroke-width:0.252658;stroke-linecap:round;stroke-linejoin:round;stroke-miterlimit:1.5"
     d="m 3.0592342,102.54466 c 0,0.52862 0.8437775,0.23904 0.821041,-0.9875 -0.055578,-2.984238 -0.1490506,-8.212838 -0.143998,-8.945125 0.030315,-3.716773 1.750712,-3.990685 4.024364,-3.393081 4.2492028,1.117635 12.6137158,0.139989 9.3396568,-0.719905 H 4.1733236 c -0.6164123,0 -1.1140894,0.500068 -1.1140894,1.115613 z" />
  <rect
     transform="rotate(-90)"
     id="rect3810"
     style="clip-rule:evenodd;fill:#dcafcb;fill-rule:evenodd;stroke:#8030aa;stroke-width:0.526338px;stroke-linecap:round;stroke-linejoin:round;stroke-miterlimit:1.5"
     height="21.166588"
     width="21.174913"
     y="0.4947584"
     x="-64.149696" />
  <rect
     transform="rotate(-90)"
     id="rect3814"
     style="clip-rule:evenodd;fill:#dcafcb;fill-rule:evenodd;stroke:#8030aa;stroke-width:0.526338px;stroke-linecap:round;stroke-linejoin:round;stroke-miterlimit:1.5"
     height="21.166588"
     width="21.174913"
     y="0.4947584"
     x="-85.340973" />
  <rect
     transform="rotate(-90)"
     id="rect3818"
     style="clip-rule:evenodd;fill:#dcafcb;fill-rule:evenodd;stroke:#8030aa;stroke-width:0.526338px;stroke-linecap:round;stroke-linejoin:round;stroke-miterlimit:1.5"
     height="21.166588"
     width="21.174913"
     y="0.4947584"
     x="-42.974823" />
  <path
     id="path3822"
     style="clip-rule:evenodd;fill:#dcafcb;fill-rule:evenodd;stroke:#8030aa;stroke-width:0.526338px;stroke-linecap:round;stroke-linejoin:round;stroke-miterlimit:1.5"
     d="M 3.4992104,0.62528886 C 1.6624403,0.63710537 0.50452483,1.4760772 0.49475714,3.8866442 V 21.799941 H 21.661346 V 4.1542224 C 21.798537,1.4267105 20.403533,0.30991947 17.678569,0.62528886 Z" />
  <path
     id="path3826"
     style="clip-rule:evenodd;fill:#40211f;fill-rule:evenodd;stroke-width:0.279965;stroke-linecap:round;stroke-linejoin:round;stroke-miterlimit:1.5"
     d="m 4.3062239,45.604365 c -0.6435656,0 -1.1685016,0.523552 -1.1685016,1.168148 v 13.53863 c 0,0.644861 0.524936,1.168149 1.1685016,1.168149 H 17.844827 c 0.646531,0 1.168502,-0.523288 1.168502,-1.168149 v -13.53863 c 0,-0.644596 -0.521971,-1.168148 -1.168502,-1.168148 z" />
  <path
     id="path3830"
     style="clip-rule:evenodd;fill:#271817;fill-rule:evenodd;stroke-width:0.264583;stroke-linecap:round;stroke-linejoin:round;stroke-miterlimit:1.5"
     d="m 16.786695,60.193575 c -4.317995,0.718079 -12.9010675,1.49463 -13.6445457,0.11774 0,0.644789 0.5212285,1.168134 1.166811,1.168134 H 17.847672 c 0.645583,0 1.169457,-0.523345 1.169457,-1.168134 V 46.772603 c 0,-0.30771 -0.119062,-0.587904 -0.314854,-0.79666 -0.190499,-0.203729 -0.566207,8.475917 -0.746124,13.049498 0,0.644525 -0.523874,1.168134 -1.169456,1.168134 z" />
  <path
     id="path3834"
     style="clip-rule:evenodd;fill:#664f4d;fill-rule:evenodd;stroke-width:0.252658;stroke-linecap:round;stroke-linejoin:round;stroke-miterlimit:1.5"
     d="m 3.5010742,60.021066 c 0,0.528621 0.8437775,0.239042 0.821041,-0.987501 -0.055578,-2.984233 -0.1490506,-8.212833 -0.143998,-8.94512 0.030315,-3.716773 1.750712,-3.990685 4.024364,-3.393081 4.2492028,1.117635 12.6137158,0.139989 9.3396568,-0.719905 H 4.6151636 c -0.6164123,0 -1.1140894,0.500068 -1.1140894,1.115613 z" />
  <path
     id="path3838"
     style="clip-rule:evenodd;fill:#40211f;fill-rule:evenodd;stroke-width:0.279965;stroke-linecap:round;stroke-linejoin:round;stroke-miterlimit:1.5"
     d="m 4.3062239,66.795615 c -0.6435656,0 -1.1685016,0.523552 -1.1685016,1.168148 v 13.53863 c 0,0.644861 0.524936,1.168149 1.1685016,1.168149 H 17.844827 c 0.646531,0 1.168502,-0.523288 1.168502,-1.168149 v -13.53863 c 0,-0.644596 -0.521971,-1.168148 -1.168502,-1.168148 z" />
  <path
     id="path3842"
     style="clip-rule:evenodd;fill:#271817;fill-rule:evenodd;stroke-width:0.264583;stroke-linecap:round;stroke-linejoin:round;stroke-miterlimit:1.5"
     d="m 16.786695,81.384825 c -4.317995,0.718079 -12.9010675,1.49463 -13.6445457,0.11774 0,0.644789 0.5212285,1.168134 1.166811,1.168134 H 17.847672 c 0.645583,0 1.169457,-0.523345 1.169457,-1.168134 V 67.963853 c 0,-0.30771 -0.119062,-0.587904 -0.314854,-0.79666 -0.190499,-0.203729 -0.566207,8.475917 -0.746124,13.049498 0,0.644525 -0.523874,1.168134 -1.169456,1.168134 z" />
  <path
     id="path3846"
     style="clip-rule:evenodd;fill:#664f4d;fill-rule:evenodd;stroke-width:0.252658;stroke-linecap:round;stroke-linejoin:round;stroke-miterlimit:1.5"
     d="m 3.5010742,81.212356 c 0,0.528621 0.8437775,0.239042 0.821041,-0.987501 -0.055578,-2.984233 -0.1490506,-8.212833 -0.143998,-8.94512 0.030315,-3.716773 1.750712,-3.990685 4.024364,-3.393081 4.2492028,1.117635 12.6137158,0.139989 9.3396568,-0.719905 H 4.6151636 c -0.6164123,0 -1.1140894,0.500068 -1.1140894,1.115613 z" />
  <path
     id="path3850"
     style="clip-rule:evenodd;fill:#40211f;fill-rule:evenodd;stroke-width:0.279965;stroke-linecap:round;stroke-linejoin:round;stroke-miterlimit:1.5"
     d="m 3.8458439,24.764985 c -0.6435656,0 -1.1685016,0.523552 -1.1685016,1.168148 v 13.53863 c 0,0.644861 0.524936,1.168149 1.1685016,1.168149 H 17.384447 c 0.646531,0 1.168502,-0.523288 1.168502,-1.168149 v -13.53863 c 0,-0.644596 -0.521971,-1.168148 -1.168502,-1.168148 z" />
  <path
     id="path3854"
     style="clip-rule:evenodd;fill:#271817;fill-rule:evenodd;stroke-width:0.264583;stroke-linecap:round;stroke-linejoin:round;stroke-miterlimit:1.5"
     d="m 16.326335,39.354185 c -4.317995,0.718079 -12.9010675,1.49463 -13.6445457,0.11774 0,0.644789 0.5212285,1.168134 1.166811,1.168134 H 17.387312 c 0.645583,0 1.169457,-0.523345 1.169457,-1.168134 V 25.933213 c 0,-0.30771 -0.119062,-0.587904 -0.314854,-0.79666 -0.190499,-0.203729 -0.566207,8.475917 -0.746124,13.049498 0,0.644525 -0.523874,1.168134 -1.169456,1.168134 z" />
  <path
     inkscape:label="path3858"
     id="path3858"
     style="clip-rule:evenodd;fill:#664f4d;fill-rule:evenodd;stroke-width:0.252658;stroke-linecap:round;stroke-linejoin:round;stroke-miterlimit:1.5"
     d="m 3.0407142,39.181956 c 0,0.528621 0.8437775,0.239042 0.821041,-0.987501 -0.055578,-2.984233 -0.1490506,-8.212833 -0.143998,-8.94512 0.030315,-3.716773 1.750712,-3.990685 4.024364,-3.393081 4.2492028,1.117635 12.6137158,0.139989 9.3396568,-0.719905 H 4.1548036 c -0.6164123,0 -1.1140894,0.500068 -1.1140894,1.115613 z" />
  <path
     id="path3862"
     style="clip-rule:evenodd;fill:#40211f;fill-rule:evenodd;stroke-width:0.279965;stroke-linecap:round;stroke-linejoin:round;stroke-miterlimit:1.5"
     d="m 4.2532839,3.3990746 c -0.6435656,0 -1.1685016,0.5235525 -1.1685016,1.1681485 V 18.105853 c 0,0.644861 0.524936,1.168149 1.1685016,1.168149 H 17.791887 c 0.646531,0 1.168502,-0.523288 1.168502,-1.168149 V 4.5672231 c 0,-0.644596 -0.521971,-1.1681485 -1.168502,-1.1681485 z" />
  <path
     id="path3866"
     style="clip-rule:evenodd;fill:#271817;fill-rule:evenodd;stroke-width:0.264583;stroke-linecap:round;stroke-linejoin:round;stroke-miterlimit:1.5"
     d="m 16.731155,17.988285 c -4.317995,0.718079 -12.9010675,1.49463 -13.6445457,0.11774 0,0.644789 0.5212285,1.168134 1.166811,1.168134 H 17.792132 c 0.645583,0 1.169457,-0.523345 1.169457,-1.168134 V 4.5673127 c 0,-0.30771 -0.119062,-0.5879034 -0.314854,-0.7966594 -0.190499,-0.2037289 -0.566207,8.4759167 -0.746124,13.0494977 0,0.644525 -0.523874,1.168134 -1.169456,1.168134 z" />
  <path
     id="path3870"
     style="clip-rule:evenodd;fill:#664f4d;fill-rule:evenodd;stroke-width:0.252658;stroke-linecap:round;stroke-linejoin:round;stroke-miterlimit:1.5"
     d="m 3.4455342,17.816056 c 0,0.528621 0.8437775,0.239042 0.821041,-0.987501 C 4.210997,13.844322 4.1175246,8.6157223 4.1225772,7.8834354 4.1528926,4.1666623 5.8732892,3.8927496 8.1469412,4.4903544 8.9982976,4.7149931 10.018915,4.8549817 11.077426,4.9282609 15.286209,5.2198617 20.101298,4.4577577 17.486598,3.7704491 H 4.5596236 c -0.6164123,0 -1.1140894,0.5000676 -1.1140894,1.1156131 z" />
  <path
     id="path3878"
     style="clip-rule:evenodd;fill:#ffffff;fill-rule:evenodd;stroke:#ffa300;stroke-width:0.526236px;stroke-linecap:round;stroke-linejoin:round;stroke-miterlimit:1.5"
     d="m 42.743096,84.889486 v 17.028904 c -0.36429,3.29974 0.702608,4.47779 4.619896,4.1376 H 63.909685 V 84.889486 Z" />
  <rect
     transform="rotate(-90)"
     id="rect3882"
     style="clip-rule:evenodd;fill:#ffffff;fill-rule:evenodd;stroke:#ffa300;stroke-width:0.526236px;stroke-linecap:round;stroke-linejoin:round;stroke-miterlimit:1.5"
     height="21.166588"
     width="21.166769"
     y="63.909748"
     x="-106.07187" />
  <path
     id="path3886"
     style="clip-rule:evenodd;fill:#ffffff;fill-rule:evenodd;stroke:#ffa300;stroke-width:0.526338px;stroke-linecap:round;stroke-linejoin:round;stroke-miterlimit:1.5"
     d="m 85.076426,84.914729 v 21.174651 h 17.239534 c 3.18649,0.12998 3.89598,-1.40774 4.00053,-3.00586 0,0 0.006,-11.901579 -0.0735,-18.168791 z" />
  <path
     d="m 46.094979,87.919865 c -0.643565,0 -1.168501,0.523552 -1.168501,1.168148 v 13.538627 c 0,0.64486 0.524936,1.16815 1.168501,1.16815 H 59.63357 c 0.64653,0 1.1685,-0.52329 1.1685,-1.16815 V 89.088013 c 0,-0.644596 -0.52197,-1.168148 -1.1685,-1.168148 z"
     style="clip-rule:evenodd;fill:#ffeeae;fill-rule:evenodd;stroke-width:0.279965;stroke-linecap:round;stroke-linejoin:round;stroke-miterlimit:1.5"
     id="path3890" />
  <path
     id="path3894"
     style="clip-rule:evenodd;fill:#ebdb91;fill-rule:evenodd;stroke-width:0.264583;stroke-linecap:round;stroke-linejoin:round;stroke-miterlimit:1.5"
     d="m 58.574645,102.50897 c -4.317995,0.71807 -12.901068,1.49462 -13.644546,0.11773 0,0.64479 0.521229,1.16814 1.166811,1.16814 h 13.538712 c 0.645583,0 1.169457,-0.52335 1.169457,-1.16814 V 89.087993 c 0,-0.30771 -0.119062,-0.587904 -0.314854,-0.79666 -0.190499,-0.203729 -0.566207,8.475917 -0.746124,13.049497 0,0.64453 -0.523874,1.16814 -1.169456,1.16814 z" />
  <path
     d="m 45.288669,102.33684 c 0,0.52862 0.843776,0.23904 0.82104,-0.9875 -0.05558,-2.984228 -0.14905,-8.212818 -0.143998,-8.945104 0.03032,-3.716766 1.750709,-3.990678 4.024357,-3.393075 4.249196,1.117633 12.613694,0.139989 9.339641,-0.719904 H 46.402757 c -0.616411,0 -1.114088,0.500067 -1.114088,1.115612 z"
     style="clip-rule:evenodd;fill:#fcd67d;fill-rule:evenodd;stroke-width:0.252657;stroke-linecap:round;stroke-linejoin:round;stroke-miterlimit:1.5"
     id="path3896" />
  <path
     d="m 67.719359,87.562695 c -0.643565,0 -1.168501,0.523552 -1.168501,1.168148 v 13.538627 c 0,0.64486 0.524936,1.16815 1.168501,1.16815 H 81.25795 c 0.64653,0 1.1685,-0.52329 1.1685,-1.16815 V 88.730843 c 0,-0.644596 -0.52197,-1.168148 -1.1685,-1.168148 z"
     style="clip-rule:evenodd;fill:#ffeeae;fill-rule:evenodd;stroke-width:0.279965;stroke-linecap:round;stroke-linejoin:round;stroke-miterlimit:1.5"
     id="path3902" />
  <path
     id="path3906"
     style="clip-rule:evenodd;fill:#ebdb91;fill-rule:evenodd;stroke-width:0.264583;stroke-linecap:round;stroke-linejoin:round;stroke-miterlimit:1.5"
     d="m 80.199025,102.1518 c -4.317995,0.71807 -12.901068,1.49462 -13.644546,0.11773 0,0.64479 0.521229,1.16814 1.166811,1.16814 h 13.538712 c 0.645583,0 1.169457,-0.52335 1.169457,-1.16814 V 88.730823 c 0,-0.30771 -0.119062,-0.587904 -0.314854,-0.79666 -0.190499,-0.203729 -0.566207,8.475917 -0.746124,13.049497 0,0.64453 -0.523874,1.16814 -1.169456,1.16814 z" />
  <path
     d="m 66.913049,101.97967 c 0,0.52862 0.843776,0.23904 0.82104,-0.9875 -0.05558,-2.984228 -0.14905,-8.212818 -0.143998,-8.945104 0.03032,-3.716766 1.750709,-3.990678 4.024357,-3.393075 4.249196,1.117633 12.613694,0.139989 9.339641,-0.719904 H 68.027137 c -0.616411,0 -1.114088,0.500067 -1.114088,1.115612 z"
     style="clip-rule:evenodd;fill:#fcd67d;fill-rule:evenodd;stroke-width:0.252657;stroke-linecap:round;stroke-linejoin:round;stroke-miterlimit:1.5"
     id="path3908" />
  <path
     d="m 88.446839,87.671155 c -0.643565,0 -1.168501,0.523552 -1.168501,1.168148 v 13.538627 c 0,0.64486 0.524936,1.16815 1.168501,1.16815 h 13.538591 c 0.64653,0 1.1685,-0.52329 1.1685,-1.16815 V 88.839303 c 0,-0.644596 -0.52197,-1.168148 -1.1685,-1.168148 z"
     style="clip-rule:evenodd;fill:#ffeeae;fill-rule:evenodd;stroke-width:0.279965;stroke-linecap:round;stroke-linejoin:round;stroke-miterlimit:1.5"
     id="path3914" />
  <path
     id="path3918"
     style="clip-rule:evenodd;fill:#ebdb91;fill-rule:evenodd;stroke-width:0.264583;stroke-linecap:round;stroke-linejoin:round;stroke-miterlimit:1.5"
     d="m 100.9265,102.26026 c -4.31799,0.71807 -12.901063,1.49462 -13.644541,0.11773 0,0.64479 0.521229,1.16814 1.166811,1.16814 h 13.53871 c 0.64558,0 1.16946,-0.52335 1.16946,-1.16814 V 88.839283 c 0,-0.30771 -0.11906,-0.587904 -0.31485,-0.79666 -0.1905,-0.203729 -0.56621,8.475917 -0.74613,13.049497 0,0.64453 -0.52387,1.16814 -1.16946,1.16814 z" />
  <path
     d="m 87.640529,102.08813 c 0,0.52862 0.843776,0.23904 0.82104,-0.9875 -0.05558,-2.984228 -0.14905,-8.212818 -0.143998,-8.945104 0.03032,-3.716766 1.750709,-3.990678 4.024357,-3.393075 4.249196,1.117633 12.613692,0.139989 9.339642,-0.719904 H 88.754617 c -0.616411,0 -1.114088,0.500067 -1.114088,1.115612 z"
     style="clip-rule:evenodd;fill:#fcd67d;fill-rule:evenodd;stroke-width:0.252657;stroke-linecap:round;stroke-linejoin:round;stroke-miterlimit:1.5"
     id="path3920" />
  <path
     id="path3926"
     style="clip-rule:evenodd;fill:#ffffff;fill-rule:evenodd;stroke:#ffa300;stroke-width:0.526236px;stroke-linecap:round;stroke-linejoin:round;stroke-miterlimit:1.5"
     d="m 46.392353,63.704256 c -2.799331,-0.0588 -3.805182,1.335801 -3.638687,3.785339 V 84.870763 H 63.920255 V 63.704256 Z" />
  <rect
     transform="rotate(-90)"
     id="rect3930"
     style="clip-rule:evenodd;fill:#ffffff;fill-rule:evenodd;stroke:#ffa300;stroke-width:0.526236px;stroke-linecap:round;stroke-linejoin:round;stroke-miterlimit:1.5"
     height="21.166588"
     width="21.166769"
     y="63.920338"
     x="-84.886635" />
  <path
     id="path3934"
     style="clip-rule:evenodd;fill:#ffffff;fill-rule:evenodd;stroke:#ffa300;stroke-width:0.526338px;stroke-linecap:round;stroke-linejoin:round;stroke-miterlimit:1.5"
     d="M 85.087016,63.703079 V 84.877731 H 106.2536 V 67.232012 c 0.1372,-2.727512 -1.25781,-3.844303 -3.98277,-3.528933 z" />
  <path
     id="path3938"
     style="clip-rule:evenodd;fill:#ffeeae;fill-rule:evenodd;stroke-width:0.279965;stroke-linecap:round;stroke-linejoin:round;stroke-miterlimit:1.5"
     d="m 67.731784,67.003365 c -0.643566,0 -1.168502,0.523552 -1.168502,1.168148 v 13.53863 c 0,0.644861 0.524936,1.168149 1.168502,1.168149 h 13.538603 c 0.646531,0 1.168502,-0.523288 1.168502,-1.168149 v -13.53863 c 0,-0.644596 -0.521971,-1.168148 -1.168502,-1.168148 z" />
  <path
     id="path3942"
     style="clip-rule:evenodd;fill:#ebdb91;fill-rule:evenodd;stroke-width:0.264583;stroke-linecap:round;stroke-linejoin:round;stroke-miterlimit:1.5"
     d="m 80.212275,81.593645 c -4.317995,0.718079 -12.901068,1.49463 -13.644546,0.11774 0,0.644789 0.521229,1.168134 1.166811,1.168134 h 13.538712 c 0.645583,0 1.169457,-0.523345 1.169457,-1.168134 V 68.172673 c 0,-0.30771 -0.119062,-0.587904 -0.314854,-0.79666 -0.190499,-0.203729 -0.566207,8.475917 -0.746124,13.049498 0,0.644525 -0.523874,1.168134 -1.169456,1.168134 z" />
  <path
     id="path3946"
     style="clip-rule:evenodd;fill:#fcd67d;fill-rule:evenodd;stroke-width:0.252658;stroke-linecap:round;stroke-linejoin:round;stroke-miterlimit:1.5"
     d="m 66.926654,81.422206 c 0,0.528621 0.843778,0.239042 0.821041,-0.987501 -0.05558,-2.984233 -0.14905,-8.212833 -0.143998,-8.94512 0.03032,-3.716773 1.750712,-3.990685 4.024364,-3.393081 4.249203,1.117635 12.613716,0.139989 9.339657,-0.719905 H 68.040744 c -0.616413,0 -1.11409,0.500068 -1.11409,1.115613 z" />
  <path
     id="path3950"
     style="clip-rule:evenodd;fill:#ffeeae;fill-rule:evenodd;stroke-width:0.279965;stroke-linecap:round;stroke-linejoin:round;stroke-miterlimit:1.5"
     d="m 46.533354,66.365725 c -0.643566,0 -1.168502,0.523552 -1.168502,1.168148 v 13.53863 c 0,0.644861 0.524936,1.168149 1.168502,1.168149 h 13.538603 c 0.646531,0 1.168502,-0.523288 1.168502,-1.168149 v -13.53863 c 0,-0.644596 -0.521971,-1.168148 -1.168502,-1.168148 z" />
  <path
     id="path3954"
     style="clip-rule:evenodd;fill:#ebdb91;fill-rule:evenodd;stroke-width:0.264583;stroke-linecap:round;stroke-linejoin:round;stroke-miterlimit:1.5"
     d="m 59.011195,80.953355 c -4.317995,0.718079 -12.901068,1.49463 -13.644546,0.11774 0,0.644789 0.521229,1.168134 1.166811,1.168134 h 13.538712 c 0.645583,0 1.169457,-0.523345 1.169457,-1.168134 V 67.532383 c 0,-0.30771 -0.119062,-0.587904 -0.314854,-0.79666 -0.190499,-0.203729 -0.566207,8.475917 -0.746124,13.049498 0,0.644525 -0.523874,1.168134 -1.169456,1.168134 z" />
  <path
     id="path3958"
     style="clip-rule:evenodd;fill:#fcd67d;fill-rule:evenodd;stroke-width:0.252658;stroke-linecap:round;stroke-linejoin:round;stroke-miterlimit:1.5"
     d="m 45.728264,80.781916 c 0,0.528621 0.843778,0.239042 0.821041,-0.987501 -0.05558,-2.984233 -0.14905,-8.212833 -0.143998,-8.94512 0.03032,-3.716773 1.750712,-3.990685 4.024364,-3.393081 4.249203,1.117635 12.613716,0.139989 9.339657,-0.719905 H 46.842354 c -0.616413,0 -1.11409,0.500068 -1.11409,1.115613 z" />
  <path
     id="path3962"
     style="clip-rule:evenodd;fill:#ffeeae;fill-rule:evenodd;stroke-width:0.279965;stroke-linecap:round;stroke-linejoin:round;stroke-miterlimit:1.5"
     d="m 88.845554,66.476845 c -0.643566,0 -1.168502,0.523552 -1.168502,1.168148 v 13.53863 c 0,0.644861 0.524936,1.168149 1.168502,1.168149 h 13.538606 c 0.64653,0 1.1685,-0.523288 1.1685,-1.168149 v -13.53863 c 0,-0.644596 -0.52197,-1.168148 -1.1685,-1.168148 z" />
  <path
     id="path3966"
     style="clip-rule:evenodd;fill:#ebdb91;fill-rule:evenodd;stroke-width:0.264583;stroke-linecap:round;stroke-linejoin:round;stroke-miterlimit:1.5"
     d="m 101.32338,81.067125 c -4.31799,0.718079 -12.901063,1.49463 -13.644541,0.11774 0,0.644789 0.521229,1.168134 1.166811,1.168134 h 13.53871 c 0.64558,0 1.16946,-0.523345 1.16946,-1.168134 V 67.646153 c 0,-0.30771 -0.11906,-0.587904 -0.31485,-0.79666 -0.1905,-0.203729 -0.56621,8.475917 -0.74613,13.049498 0,0.644525 -0.52387,1.168134 -1.16946,1.168134 z" />
  <path
     id="path3970"
     style="clip-rule:evenodd;fill:#fcd67d;fill-rule:evenodd;stroke-width:0.252658;stroke-linecap:round;stroke-linejoin:round;stroke-miterlimit:1.5"
     d="m 88.037774,80.895686 c 0,0.528621 0.843778,0.239042 0.821041,-0.987501 -0.05558,-2.984233 -0.14905,-8.212833 -0.143998,-8.94512 0.03032,-3.716773 1.750712,-3.990685 4.024364,-3.393081 4.249203,1.117635 12.613719,0.139989 9.339659,-0.719905 H 89.151864 c -0.616413,0 -1.11409,0.500068 -1.11409,1.115613 z" />
  <path
     id="path3986"
     style="clip-rule:evenodd;fill:#e9e3de;fill-rule:evenodd;stroke:#c68a8a;stroke-width:0.526235px;stroke-linecap:round;stroke-linejoin:round;stroke-miterlimit:1.5"
     d="M 191.0009,21.846177 V 4.8173173 c 0.36429,-3.2997271 -0.70261,-4.47776982 -4.61989,-4.13758635 H 169.83435 V 21.846177 Z" />
  <rect
     transform="rotate(90)"
     id="rect3990"
     style="clip-rule:evenodd;fill:#e9e3de;fill-rule:evenodd;stroke:#c68a8a;stroke-width:0.526235px;stroke-linecap:round;stroke-linejoin:round;stroke-miterlimit:1.5"
     height="21.166546"
     width="21.166708"
     y="-169.83426"
     x="0.66332787" />
  <path
     id="path3994"
     style="clip-rule:evenodd;fill:#e9e3de;fill-rule:evenodd;stroke:#c68a8a;stroke-width:0.526337px;stroke-linecap:round;stroke-linejoin:round;stroke-miterlimit:1.5"
     d="M 148.66762,21.821511 V 0.64687235 h -17.2395 c -3.36208,-0.34084032 -4.24916,0.84028425 -4.00053,3.00585445 0,0 -0.006,11.9015762 0.0735,18.1687842 z" />
  <rect
     transform="rotate(90)"
     id="rect3998"
     style="clip-rule:evenodd;fill:#e9e3de;fill-rule:evenodd;stroke:#c68a8a;stroke-width:0.526235px;stroke-linecap:round;stroke-linejoin:round;stroke-miterlimit:1.5"
     height="21.166546"
     width="21.166708"
     y="-191.0009"
     x="21.846369" />
  <rect
     transform="rotate(90)"
     id="rect4002"
     style="clip-rule:evenodd;fill:#e9e3de;fill-rule:evenodd;stroke:#c68a8a;stroke-width:0.526235px;stroke-linecap:round;stroke-linejoin:round;stroke-miterlimit:1.5"
     height="21.166546"
     width="21.166708"
     y="-169.83426"
     x="21.829967" />
  <rect
     transform="rotate(90)"
     id="rect4006"
     style="clip-rule:evenodd;fill:#e9e3de;fill-rule:evenodd;stroke:#c68a8a;stroke-width:0.526337px;stroke-linecap:round;stroke-linejoin:round;stroke-miterlimit:1.5"
     height="21.166546"
     width="21.174902"
     y="-148.66762"
     x="21.82172" />
  <rect
     transform="rotate(90)"
     id="rect4010"
     style="clip-rule:evenodd;fill:#e9e3de;fill-rule:evenodd;stroke:#c68a8a;stroke-width:0.526235px;stroke-linecap:round;stroke-linejoin:round;stroke-miterlimit:1.5"
     height="21.166546"
     width="21.166708"
     y="-191.0009"
     x="43.013008" />
  <rect
     transform="rotate(90)"
     id="rect4014"
     style="clip-rule:evenodd;fill:#e9e3de;fill-rule:evenodd;stroke:#c68a8a;stroke-width:0.526235px;stroke-linecap:round;stroke-linejoin:round;stroke-miterlimit:1.5"
     height="21.166546"
     width="21.166708"
     y="-169.83426"
     x="42.996605" />
  <rect
     transform="rotate(90)"
     id="rect4018"
     style="clip-rule:evenodd;fill:#e9e3de;fill-rule:evenodd;stroke:#c68a8a;stroke-width:0.526337px;stroke-linecap:round;stroke-linejoin:round;stroke-miterlimit:1.5"
     height="21.166546"
     width="21.174902"
     y="-148.66762"
     x="42.996559" />
  <path
     id="path4022"
     style="clip-rule:evenodd;fill:#e9e3de;fill-rule:evenodd;stroke:#c68a8a;stroke-width:0.526235px;stroke-linecap:round;stroke-linejoin:round;stroke-miterlimit:1.5"
     d="m 187.36222,85.346098 c 2.79932,0.0588 3.80517,-1.335798 3.63868,-3.785328 V 64.179652 h -21.16655 v 21.166446 z" />
  <rect
     transform="rotate(90)"
     id="rect4026"
     style="clip-rule:evenodd;fill:#e9e3de;fill-rule:evenodd;stroke:#c68a8a;stroke-width:0.526235px;stroke-linecap:round;stroke-linejoin:round;stroke-miterlimit:1.5"
     height="21.166546"
     width="21.166708"
     y="-169.83426"
     x="64.163246" />
  <path
     id="path4030"
     style="clip-rule:evenodd;fill:#e9e3de;fill-rule:evenodd;stroke:#c68a8a;stroke-width:0.526337px;stroke-linecap:round;stroke-linejoin:round;stroke-miterlimit:1.5"
     d="M 148.66762,85.346042 V 64.171403 h -21.16655 v 17.645708 c -0.13719,2.72751 1.25781,3.8443 3.98277,3.528931 z" />
  <path
     d="m 187.64834,18.815955 c 0.64357,0 1.1685,-0.523552 1.1685,-1.168148 V 4.1091804 c 0,-0.6448601 -0.52493,-1.1681483 -1.1685,-1.1681483 h -13.53859 c -0.64653,0 -1.1685,0.5232882 -1.1685,1.1681483 V 17.647807 c 0,0.644596 0.52197,1.168148 1.1685,1.168148 z"
     style="clip-rule:evenodd;fill:#6c483f;fill-rule:evenodd;stroke-width:0.279965;stroke-linecap:round;stroke-linejoin:round;stroke-miterlimit:1.5"
     id="path4034" />
  <path
     id="path4038"
     style="clip-rule:evenodd;fill:#4b332d;fill-rule:evenodd;stroke-width:0.264583;stroke-linecap:round;stroke-linejoin:round;stroke-miterlimit:1.5"
     d="m 175.16868,4.2268546 c 4.31799,-0.7180782 12.90106,-1.4946293 13.64454,-0.1177394 0,-0.6447888 -0.52123,-1.1681339 -1.16681,-1.1681339 H 174.1077 c -0.64558,0 -1.16946,0.5233451 -1.16946,1.1681339 V 17.647827 c 0,0.30771 0.11906,0.587904 0.31485,0.79666 0.1905,0.203729 0.56621,-8.4759167 0.74613,-13.0494984 0,-0.6445242 0.52387,-1.168134 1.16946,-1.168134 z" />
  <path
     d="m 188.45465,4.3989807 c 0,-0.5286202 -0.84378,-0.2390415 -0.82104,0.9874991 0.0556,2.9842281 0.14905,8.2128182 0.144,8.9451042 -0.0303,3.716766 -1.75071,3.990678 -4.02436,3.393075 -4.24919,-1.117633 -12.61369,-0.139989 -9.33964,0.719904 h 12.92695 c 0.61641,0 1.11409,-0.500067 1.11409,-1.115612 z"
     style="clip-rule:evenodd;fill:#825f56;fill-rule:evenodd;stroke-width:0.252657;stroke-linecap:round;stroke-linejoin:round;stroke-miterlimit:1.5"
     id="path4040" />
  <path
     d="m 166.02132,19.171825 c 0.64357,0 1.1685,-0.523552 1.1685,-1.168148 V 4.4650504 c 0,-0.6448601 -0.52493,-1.1681483 -1.1685,-1.1681483 h -13.53859 c -0.64653,0 -1.1685,0.5232882 -1.1685,1.1681483 V 18.003677 c 0,0.644596 0.52197,1.168148 1.1685,1.168148 z"
     style="clip-rule:evenodd;fill:#6c483f;fill-rule:evenodd;stroke-width:0.279965;stroke-linecap:round;stroke-linejoin:round;stroke-miterlimit:1.5"
     id="path4046" />
  <path
     id="path4050"
     style="clip-rule:evenodd;fill:#4b332d;fill-rule:evenodd;stroke-width:0.264583;stroke-linecap:round;stroke-linejoin:round;stroke-miterlimit:1.5"
     d="m 153.54166,4.5827246 c 4.31799,-0.7180782 12.90106,-1.4946293 13.64454,-0.1177394 0,-0.6447888 -0.52123,-1.1681339 -1.16681,-1.1681339 h -13.53871 c -0.64558,0 -1.16946,0.5233451 -1.16946,1.1681339 V 18.003697 c 0,0.30771 0.11906,0.587904 0.31485,0.79666 0.1905,0.203729 0.56621,-8.475917 0.74613,-13.0494984 0,-0.6445242 0.52387,-1.168134 1.16946,-1.168134 z" />
  <path
     d="m 166.82763,4.7548507 c 0,-0.5286202 -0.84378,-0.2390415 -0.82104,0.9874991 0.0556,2.9842281 0.14905,8.2128182 0.144,8.9451042 -0.0303,3.716766 -1.75071,3.990678 -4.02436,3.393075 -4.24919,-1.117633 -12.61369,-0.139989 -9.33964,0.719904 h 12.92695 c 0.61641,0 1.11409,-0.500067 1.11409,-1.115612 z"
     style="clip-rule:evenodd;fill:#825f56;fill-rule:evenodd;stroke-width:0.252657;stroke-linecap:round;stroke-linejoin:round;stroke-miterlimit:1.5"
     id="path4052" />
  <path
     d="m 144.39696,19.527955 c 0.64357,0 1.1685,-0.523552 1.1685,-1.168148 V 4.8211804 c 0,-0.6448601 -0.52493,-1.1681483 -1.1685,-1.1681483 h -13.53859 c -0.64653,0 -1.1685,0.5232882 -1.1685,1.1681483 V 18.359807 c 0,0.644596 0.52197,1.168148 1.1685,1.168148 z"
     style="clip-rule:evenodd;fill:#6c483f;fill-rule:evenodd;stroke-width:0.279965;stroke-linecap:round;stroke-linejoin:round;stroke-miterlimit:1.5"
     id="path4058" />
  <path
     id="path4062"
     style="clip-rule:evenodd;fill:#4b332d;fill-rule:evenodd;stroke-width:0.264583;stroke-linecap:round;stroke-linejoin:round;stroke-miterlimit:1.5"
     d="m 131.9173,4.9388546 c 4.31799,-0.7180782 12.90106,-1.4946293 13.64454,-0.1177394 0,-0.6447888 -0.52123,-1.1681339 -1.16681,-1.1681339 h -13.53871 c -0.64558,0 -1.16946,0.5233451 -1.16946,1.1681339 V 18.359827 c 0,0.30771 0.11906,0.587904 0.31485,0.79666 0.1905,0.203729 0.56621,-8.475917 0.74613,-13.0494984 0,-0.6445242 0.52387,-1.168134 1.16946,-1.168134 z" />
  <path
     d="m 145.20327,5.1109807 c 0,-0.5286202 -0.84378,-0.2390415 -0.82104,0.9874991 0.0556,2.9842281 0.14905,8.2128182 0.144,8.9451042 -0.0303,3.716766 -1.75071,3.990678 -4.02436,3.393075 -4.24919,-1.117633 -12.61369,-0.139989 -9.33964,0.719904 h 12.92695 c 0.61641,0 1.11409,-0.500067 1.11409,-1.115612 z"
     style="clip-rule:evenodd;fill:#825f56;fill-rule:evenodd;stroke-width:0.252657;stroke-linecap:round;stroke-linejoin:round;stroke-miterlimit:1.5"
     id="path4064" />
  <path
     d="m 144.85468,40.367305 c 0.64357,0 1.1685,-0.523552 1.1685,-1.168148 V 25.66053 c 0,-0.64486 -0.52493,-1.168148 -1.1685,-1.168148 h -13.53859 c -0.64653,0 -1.1685,0.523288 -1.1685,1.168148 v 13.538627 c 0,0.644596 0.52197,1.168148 1.1685,1.168148 z"
     style="clip-rule:evenodd;fill:#6c483f;fill-rule:evenodd;stroke-width:0.279965;stroke-linecap:round;stroke-linejoin:round;stroke-miterlimit:1.5"
     id="path4070" />
  <path
     id="path4074"
     style="clip-rule:evenodd;fill:#4b332d;fill-rule:evenodd;stroke-width:0.264583;stroke-linecap:round;stroke-linejoin:round;stroke-miterlimit:1.5"
     d="m 132.37502,25.778205 c 4.31799,-0.718079 12.90106,-1.49463 13.64454,-0.11774 0,-0.644789 -0.52123,-1.168134 -1.16681,-1.168134 h -13.53871 c -0.64558,0 -1.16946,0.523345 -1.16946,1.168134 v 13.538712 c 0,0.30771 0.11906,0.587904 0.31485,0.79666 0.1905,0.203729 0.56621,-8.475917 0.74613,-13.049498 0,-0.644525 0.52387,-1.168134 1.16946,-1.168134 z" />
  <path
     d="m 145.66099,25.950331 c 0,-0.528621 -0.84378,-0.239042 -0.82104,0.987499 0.0556,2.984228 0.14905,8.212818 0.144,8.945104 -0.0303,3.716766 -1.75071,3.990678 -4.02436,3.393075 -4.24919,-1.117633 -12.61369,-0.139989 -9.33964,0.719904 h 12.92695 c 0.61641,0 1.11409,-0.500067 1.11409,-1.115612 z"
     style="clip-rule:evenodd;fill:#825f56;fill-rule:evenodd;stroke-width:0.252657;stroke-linecap:round;stroke-linejoin:round;stroke-miterlimit:1.5"
     id="path4076" />
  <path
     d="m 166.02132,40.367305 c 0.64357,0 1.1685,-0.523552 1.1685,-1.168148 V 25.66053 c 0,-0.64486 -0.52493,-1.168148 -1.1685,-1.168148 h -13.53859 c -0.64653,0 -1.1685,0.523288 -1.1685,1.168148 v 13.538627 c 0,0.644596 0.52197,1.168148 1.1685,1.168148 z"
     style="clip-rule:evenodd;fill:#6c483f;fill-rule:evenodd;stroke-width:0.279965;stroke-linecap:round;stroke-linejoin:round;stroke-miterlimit:1.5"
     id="path4082" />
  <path
     id="path4086"
     style="clip-rule:evenodd;fill:#4b332d;fill-rule:evenodd;stroke-width:0.264583;stroke-linecap:round;stroke-linejoin:round;stroke-miterlimit:1.5"
     d="m 153.54166,25.778205 c 4.31799,-0.718079 12.90106,-1.49463 13.64454,-0.11774 0,-0.644789 -0.52123,-1.168134 -1.16681,-1.168134 h -13.53871 c -0.64558,0 -1.16946,0.523345 -1.16946,1.168134 v 13.538712 c 0,0.30771 0.11906,0.587904 0.31485,0.79666 0.1905,0.203729 0.56621,-8.475917 0.74613,-13.049498 0,-0.644525 0.52387,-1.168134 1.16946,-1.168134 z" />
  <path
     d="m 166.82763,25.950331 c 0,-0.528621 -0.84378,-0.239042 -0.82104,0.987499 0.0556,2.984228 0.14905,8.212818 0.144,8.945104 -0.0303,3.716766 -1.75071,3.990678 -4.02436,3.393075 -4.24919,-1.117633 -12.61369,-0.139989 -9.33964,0.719904 h 12.92695 c 0.61641,0 1.11409,-0.500067 1.11409,-1.115612 z"
     style="clip-rule:evenodd;fill:#825f56;fill-rule:evenodd;stroke-width:0.252657;stroke-linecap:round;stroke-linejoin:round;stroke-miterlimit:1.5"
     id="path4088" />
  <path
     d="m 166.02132,61.206393 c 0.64357,0 1.1685,-0.523552 1.1685,-1.168148 V 46.499618 c 0,-0.64486 -0.52493,-1.168148 -1.1685,-1.168148 h -13.53859 c -0.64653,0 -1.1685,0.523288 -1.1685,1.168148 v 13.538627 c 0,0.644596 0.52197,1.168148 1.1685,1.168148 z"
     style="clip-rule:evenodd;fill:#6c483f;fill-rule:evenodd;stroke-width:0.279965;stroke-linecap:round;stroke-linejoin:round;stroke-miterlimit:1.5"
     id="path4094" />
  <path
     id="path4098"
     style="clip-rule:evenodd;fill:#4b332d;fill-rule:evenodd;stroke-width:0.264583;stroke-linecap:round;stroke-linejoin:round;stroke-miterlimit:1.5"
     d="m 153.54166,46.617288 c 4.31799,-0.718079 12.90106,-1.49463 13.64454,-0.11774 0,-0.644789 -0.52123,-1.168134 -1.16681,-1.168134 h -13.53871 c -0.64558,0 -1.16946,0.523345 -1.16946,1.168134 V 60.03826 c 0,0.30771 0.11906,0.587904 0.31485,0.79666 0.1905,0.203729 0.56621,-8.475917 0.74613,-13.049498 0,-0.644525 0.52387,-1.168134 1.16946,-1.168134 z" />
  <path
     d="m 166.82763,46.789415 c 0,-0.528621 -0.84378,-0.239042 -0.82104,0.987499 0.0556,2.984228 0.14905,8.212818 0.144,8.945104 -0.0303,3.716766 -1.75071,3.990678 -4.02436,3.393075 -4.24919,-1.117633 -12.61369,-0.139989 -9.33964,0.719904 h 12.92695 c 0.61641,0 1.11409,-0.500067 1.11409,-1.115612 z"
     style="clip-rule:evenodd;fill:#825f56;fill-rule:evenodd;stroke-width:0.252657;stroke-linecap:round;stroke-linejoin:round;stroke-miterlimit:1.5"
     id="path4100" />
  <path
     d="m 166.02132,82.045743 c 0.64357,0 1.1685,-0.523552 1.1685,-1.168148 V 67.338968 c 0,-0.64486 -0.52493,-1.168148 -1.1685,-1.168148 h -13.53859 c -0.64653,0 -1.1685,0.523288 -1.1685,1.168148 v 13.538627 c 0,0.644596 0.52197,1.168148 1.1685,1.168148 z"
     style="clip-rule:evenodd;fill:#6c483f;fill-rule:evenodd;stroke-width:0.279965;stroke-linecap:round;stroke-linejoin:round;stroke-miterlimit:1.5"
     id="path4106" />
  <path
     id="path4110"
     style="clip-rule:evenodd;fill:#4b332d;fill-rule:evenodd;stroke-width:0.264583;stroke-linecap:round;stroke-linejoin:round;stroke-miterlimit:1.5"
     d="m 153.54166,67.456638 c 4.31799,-0.718079 12.90106,-1.49463 13.64454,-0.11774 0,-0.644789 -0.52123,-1.168134 -1.16681,-1.168134 h -13.53871 c -0.64558,0 -1.16946,0.523345 -1.16946,1.168134 V 80.87761 c 0,0.30771 0.11906,0.587904 0.31485,0.79666 0.1905,0.203729 0.56621,-8.475917 0.74613,-13.049498 0,-0.644525 0.52387,-1.168134 1.16946,-1.168134 z" />
  <path
     d="m 166.82763,67.628765 c 0,-0.528621 -0.84378,-0.239042 -0.82104,0.987499 0.0556,2.984228 0.14905,8.212818 0.144,8.945104 -0.0303,3.716766 -1.75071,3.990678 -4.02436,3.393075 -4.24919,-1.117633 -12.61369,-0.139989 -9.33964,0.719904 h 12.92695 c 0.61641,0 1.11409,-0.500067 1.11409,-1.115612 z"
     style="clip-rule:evenodd;fill:#825f56;fill-rule:evenodd;stroke-width:0.252657;stroke-linecap:round;stroke-linejoin:round;stroke-miterlimit:1.5"
     id="path4112" />
  <path
     d="m 187.18796,40.367305 c 0.64357,0 1.1685,-0.523552 1.1685,-1.168148 V 25.66053 c 0,-0.64486 -0.52493,-1.168148 -1.1685,-1.168148 h -13.53859 c -0.64653,0 -1.1685,0.523288 -1.1685,1.168148 v 13.538627 c 0,0.644596 0.52197,1.168148 1.1685,1.168148 z"
     style="clip-rule:evenodd;fill:#6c483f;fill-rule:evenodd;stroke-width:0.279965;stroke-linecap:round;stroke-linejoin:round;stroke-miterlimit:1.5"
     id="path4118" />
  <path
     id="path4122"
     style="clip-rule:evenodd;fill:#4b332d;fill-rule:evenodd;stroke-width:0.264583;stroke-linecap:round;stroke-linejoin:round;stroke-miterlimit:1.5"
     d="m 174.7083,25.778205 c 4.31799,-0.718079 12.90106,-1.49463 13.64454,-0.11774 0,-0.644789 -0.52123,-1.168134 -1.16681,-1.168134 h -13.53871 c -0.64558,0 -1.16946,0.523345 -1.16946,1.168134 v 13.538712 c 0,0.30771 0.11906,0.587904 0.31485,0.79666 0.1905,0.203729 0.56621,-8.475917 0.74613,-13.049498 0,-0.644525 0.52387,-1.168134 1.16946,-1.168134 z" />
  <path
     d="m 187.99427,25.950331 c 0,-0.528621 -0.84378,-0.239042 -0.82104,0.987499 0.0556,2.984228 0.14905,8.212818 0.144,8.945104 -0.0303,3.716766 -1.75071,3.990678 -4.02436,3.393075 -4.24919,-1.117633 -12.61369,-0.139989 -9.33964,0.719904 h 12.92695 c 0.61641,0 1.11409,-0.500067 1.11409,-1.115612 z"
     style="clip-rule:evenodd;fill:#825f56;fill-rule:evenodd;stroke-width:0.252657;stroke-linecap:round;stroke-linejoin:round;stroke-miterlimit:1.5"
     id="path4124" />
  <path
     d="m 187.18796,61.206393 c 0.64357,0 1.1685,-0.523552 1.1685,-1.168148 V 46.499618 c 0,-0.64486 -0.52493,-1.168148 -1.1685,-1.168148 h -13.53859 c -0.64653,0 -1.1685,0.523288 -1.1685,1.168148 v 13.538627 c 0,0.644596 0.52197,1.168148 1.1685,1.168148 z"
     style="clip-rule:evenodd;fill:#6c483f;fill-rule:evenodd;stroke-width:0.279965;stroke-linecap:round;stroke-linejoin:round;stroke-miterlimit:1.5"
     id="path4130" />
  <path
     id="path4134"
     style="clip-rule:evenodd;fill:#4b332d;fill-rule:evenodd;stroke-width:0.264583;stroke-linecap:round;stroke-linejoin:round;stroke-miterlimit:1.5"
     d="m 174.7083,46.617288 c 4.31799,-0.718079 12.90106,-1.49463 13.64454,-0.11774 0,-0.644789 -0.52123,-1.168134 -1.16681,-1.168134 h -13.53871 c -0.64558,0 -1.16946,0.523345 -1.16946,1.168134 V 60.03826 c 0,0.30771 0.11906,0.587904 0.31485,0.79666 0.1905,0.203729 0.56621,-8.475917 0.74613,-13.049498 0,-0.644525 0.52387,-1.168134 1.16946,-1.168134 z" />
  <path
     d="m 187.99427,46.789415 c 0,-0.528621 -0.84378,-0.239042 -0.82104,0.987499 0.0556,2.984228 0.14905,8.212818 0.144,8.945104 -0.0303,3.716766 -1.75071,3.990678 -4.02436,3.393075 -4.24919,-1.117633 -12.61369,-0.139989 -9.33964,0.719904 h 12.92695 c 0.61641,0 1.11409,-0.500067 1.11409,-1.115612 z"
     style="clip-rule:evenodd;fill:#825f56;fill-rule:evenodd;stroke-width:0.252657;stroke-linecap:round;stroke-linejoin:round;stroke-miterlimit:1.5"
     id="path4136" />
  <path
     d="m 187.22236,82.684976 c 0.64357,0 1.1685,-0.523552 1.1685,-1.168148 V 67.978201 c 0,-0.64486 -0.52493,-1.168148 -1.1685,-1.168148 h -13.53859 c -0.64653,0 -1.1685,0.523288 -1.1685,1.168148 v 13.538627 c 0,0.644596 0.52197,1.168148 1.1685,1.168148 z"
     style="clip-rule:evenodd;fill:#6c483f;fill-rule:evenodd;stroke-width:0.279965;stroke-linecap:round;stroke-linejoin:round;stroke-miterlimit:1.5"
     id="path4142" />
  <path
     id="path4146"
     style="clip-rule:evenodd;fill:#4b332d;fill-rule:evenodd;stroke-width:0.264583;stroke-linecap:round;stroke-linejoin:round;stroke-miterlimit:1.5"
     d="m 174.7427,68.095871 c 4.31799,-0.718079 12.90106,-1.49463 13.64454,-0.11774 0,-0.644789 -0.52123,-1.168134 -1.16681,-1.168134 h -13.53871 c -0.64558,0 -1.16946,0.523345 -1.16946,1.168134 v 13.538712 c 0,0.30771 0.11906,0.587904 0.31485,0.79666 0.1905,0.203729 0.56621,-8.475917 0.74613,-13.049498 0,-0.644525 0.52387,-1.168134 1.16946,-1.168134 z" />
  <path
     d="m 188.02867,68.267998 c 0,-0.528621 -0.84378,-0.239042 -0.82104,0.987499 0.0556,2.984228 0.14905,8.212818 0.144,8.945104 -0.0303,3.716766 -1.75071,3.990678 -4.02436,3.393075 -4.24919,-1.117633 -12.61369,-0.139989 -9.33964,0.719904 h 12.92695 c 0.61641,0 1.11409,-0.500067 1.11409,-1.115612 z"
     style="clip-rule:evenodd;fill:#825f56;fill-rule:evenodd;stroke-width:0.252657;stroke-linecap:round;stroke-linejoin:round;stroke-miterlimit:1.5"
     id="path4148" />
  <path
     d="m 145.31506,61.206393 c 0.64357,0 1.1685,-0.523552 1.1685,-1.168148 V 46.499618 c 0,-0.64486 -0.52493,-1.168148 -1.1685,-1.168148 h -13.53859 c -0.64653,0 -1.1685,0.523288 -1.1685,1.168148 v 13.538627 c 0,0.644596 0.52197,1.168148 1.1685,1.168148 z"
     style="clip-rule:evenodd;fill:#6c483f;fill-rule:evenodd;stroke-width:0.279965;stroke-linecap:round;stroke-linejoin:round;stroke-miterlimit:1.5"
     id="path4154" />
  <path
     id="path4158"
     style="clip-rule:evenodd;fill:#4b332d;fill-rule:evenodd;stroke-width:0.264583;stroke-linecap:round;stroke-linejoin:round;stroke-miterlimit:1.5"
     d="m 132.8354,46.617288 c 4.31799,-0.718079 12.90106,-1.49463 13.64454,-0.11774 0,-0.644789 -0.52123,-1.168134 -1.16681,-1.168134 h -13.53871 c -0.64558,0 -1.16946,0.523345 -1.16946,1.168134 V 60.03826 c 0,0.30771 0.11906,0.587904 0.31485,0.79666 0.1905,0.203729 0.56621,-8.475917 0.74613,-13.049498 0,-0.644525 0.52387,-1.168134 1.16946,-1.168134 z" />
  <path
     d="m 146.12137,46.789415 c 0,-0.528621 -0.84378,-0.239042 -0.82104,0.987499 0.0556,2.984228 0.14905,8.212818 0.144,8.945104 -0.0303,3.716766 -1.75071,3.990678 -4.02436,3.393075 -4.24919,-1.117633 -12.61369,-0.139989 -9.33964,0.719904 h 12.92695 c 0.61641,0 1.11409,-0.500067 1.11409,-1.115612 z"
     style="clip-rule:evenodd;fill:#825f56;fill-rule:evenodd;stroke-width:0.252657;stroke-linecap:round;stroke-linejoin:round;stroke-miterlimit:1.5"
     id="path4160" />
  <path
     d="m 145.77543,82.045743 c 0.64357,0 1.1685,-0.523552 1.1685,-1.168148 V 67.338968 c 0,-0.64486 -0.52493,-1.168148 -1.1685,-1.168148 h -13.53859 c -0.64653,0 -1.1685,0.523288 -1.1685,1.168148 v 13.538627 c 0,0.644596 0.52197,1.168148 1.1685,1.168148 z"
     style="clip-rule:evenodd;fill:#6c483f;fill-rule:evenodd;stroke-width:0.279965;stroke-linecap:round;stroke-linejoin:round;stroke-miterlimit:1.5"
     id="path4168" />
  <path
     id="path4172"
     style="clip-rule:evenodd;fill:#4b332d;fill-rule:evenodd;stroke-width:0.264583;stroke-linecap:round;stroke-linejoin:round;stroke-miterlimit:1.5"
     d="m 133.29577,67.456638 c 4.31799,-0.718079 12.90106,-1.49463 13.64454,-0.11774 0,-0.644789 -0.52123,-1.168134 -1.16681,-1.168134 h -13.53871 c -0.64558,0 -1.16946,0.523345 -1.16946,1.168134 V 80.87761 c 0,0.30771 0.11906,0.587904 0.31485,0.79666 0.1905,0.203729 0.56621,-8.475917 0.74613,-13.049498 0,-0.644525 0.52387,-1.168134 1.16946,-1.168134 z" />
  <path
     d="m 146.58174,67.628765 c 0,-0.528621 -0.84378,-0.239042 -0.82104,0.987499 0.0556,2.984228 0.14905,8.212818 0.144,8.945104 -0.0303,3.716766 -1.75071,3.990678 -4.02436,3.393075 -4.24919,-1.117633 -12.61369,-0.139989 -9.33964,0.719904 h 12.92695 c 0.61641,0 1.11409,-0.500067 1.11409,-1.115612 z"
     style="clip-rule:evenodd;fill:#825f56;fill-rule:evenodd;stroke-width:0.252657;stroke-linecap:round;stroke-linejoin:round;stroke-miterlimit:1.5"
     id="path4174" />
  <path
     id="path4188"
     style="clip-rule:evenodd;fill:#a1ab7d;fill-rule:evenodd;stroke:#51736f;stroke-width:0.526235px;stroke-linecap:round;stroke-linejoin:round;stroke-miterlimit:1.5"
     d="m 106.43502,64.310516 h 17.02886 c 3.29973,0.36429 4.47777,-0.702606 4.13759,-4.619887 V 43.14397 h -21.16645 z" />
  <rect
     transform="scale(-1)"
     id="rect4192"
     style="clip-rule:evenodd;fill:#a1ab7d;fill-rule:evenodd;stroke:#51736f;stroke-width:0.526235px;stroke-linecap:round;stroke-linejoin:round;stroke-miterlimit:1.5"
     height="21.166546"
     width="21.166708"
     y="-43.143879"
     x="-127.61736" />
  <path
     id="path4196"
     style="clip-rule:evenodd;fill:#a1ab7d;fill-rule:evenodd;stroke:#51736f;stroke-width:0.526337px;stroke-linecap:round;stroke-linejoin:round;stroke-miterlimit:1.5"
     d="m 106.45995,21.977239 h 21.17464 V 4.7377415 c 0.12998,-3.1864811 -1.40774,-3.89596926 -3.00586,-4.00052776 0,0 -11.90157,-0.005772 -18.16878,0.0734795 z" />
  <g
     id="g4202"
     transform="matrix(-0.26428693,0,0,-0.29657373,261.51877,385.00326)"
     style="clip-rule:evenodd;fill-rule:evenodd;stroke-linecap:round;stroke-linejoin:round;stroke-miterlimit:1.5">
    <path
       id="path4200"
       style="fill:#803a29"
       d="m 575.336,1092.62 c 0,-2.17 -1.981,-3.94 -4.42,-3.94 h -51.227 c -2.44,0 -4.42,1.77 -4.42,3.94 v 45.65 c 0,2.18 1.98,3.94 4.42,3.94 h 51.227 c 2.439,0 4.42,-1.76 4.42,-3.94 z" />
  </g>
  <path
     id="path4204"
     style="clip-rule:evenodd;fill:#65291a;fill-rule:evenodd;stroke-width:0.264583;stroke-linecap:round;stroke-linejoin:round;stroke-miterlimit:1.5"
     d="m 124.05409,48.481205 c 0.71807,4.317995 1.49462,12.901068 0.11773,13.644546 0.64479,0 1.16814,-0.521229 1.16814,-1.166811 V 47.420228 c 0,-0.645583 -0.52335,-1.169457 -1.16814,-1.169457 h -13.53871 c -0.30771,0 -0.5879,0.119062 -0.79666,0.314854 -0.20373,0.190499 8.47592,0.566207 13.0495,0.746124 0.64453,0 1.16814,0.523874 1.16814,1.169456 z" />
  <g
     id="g4208"
     transform="matrix(-0.25268655,0,0,-0.25262755,260.49012,333.90263)"
     style="clip-rule:evenodd;fill-rule:evenodd;stroke-linecap:round;stroke-linejoin:round;stroke-miterlimit:1.5">
    <path
       id="path4206"
       style="fill:#b05741"
       d="m 540.623,1077.22 c -2.092,0 -0.946,3.34 3.908,3.25 11.81,-0.22 32.502,-0.59 35.4,-0.57 14.709,0.12 15.793,6.93 13.428,15.93 -4.423,16.82 -0.554,49.93 2.849,36.97 v -51.17 c 0,-2.44 -1.979,-4.41 -4.415,-4.41 z" />
  </g>
  <g
     id="g4214"
     transform="matrix(-0.26428693,0,0,-0.29657373,261.16423,363.37625)"
     style="clip-rule:evenodd;fill-rule:evenodd;stroke-linecap:round;stroke-linejoin:round;stroke-miterlimit:1.5">
    <path
       id="path4212"
       style="fill:#803a29"
       d="m 575.336,1092.62 c 0,-2.17 -1.981,-3.94 -4.42,-3.94 h -51.227 c -2.44,0 -4.42,1.77 -4.42,3.94 v 45.65 c 0,2.18 1.98,3.94 4.42,3.94 h 51.227 c 2.439,0 4.42,-1.76 4.42,-3.94 z" />
  </g>
  <path
     id="path4216"
     style="clip-rule:evenodd;fill:#65291a;fill-rule:evenodd;stroke-width:0.264583;stroke-linecap:round;stroke-linejoin:round;stroke-miterlimit:1.5"
     d="m 123.69955,26.854195 c 0.71807,4.317995 1.49462,12.901068 0.11773,13.644546 0.64479,0 1.16814,-0.521229 1.16814,-1.166811 V 25.793218 c 0,-0.645583 -0.52335,-1.169457 -1.16814,-1.169457 h -13.53871 c -0.30771,0 -0.5879,0.119062 -0.79666,0.314854 -0.20373,0.190499 8.47592,0.566207 13.0495,0.746124 0.64453,0 1.16814,0.523874 1.16814,1.169456 z" />
  <g
     id="g4220"
     transform="matrix(-0.25268655,0,0,-0.25262755,260.13558,312.27562)"
     style="clip-rule:evenodd;fill-rule:evenodd;stroke-linecap:round;stroke-linejoin:round;stroke-miterlimit:1.5">
    <path
       id="path4218"
       style="fill:#b05741"
       d="m 540.623,1077.22 c -2.092,0 -0.946,3.34 3.908,3.25 11.81,-0.22 32.502,-0.59 35.4,-0.57 14.709,0.12 15.793,6.93 13.428,15.93 -4.423,16.82 -0.554,49.93 2.849,36.97 v -51.17 c 0,-2.44 -1.979,-4.41 -4.415,-4.41 z" />
  </g>
  <g
     id="g4226"
     transform="matrix(-0.26428693,0,0,-0.29657373,261.27006,342.64881)"
     style="clip-rule:evenodd;fill-rule:evenodd;stroke-linecap:round;stroke-linejoin:round;stroke-miterlimit:1.5">
    <path
       id="path4224"
       style="fill:#803a29"
       d="m 575.336,1092.62 c 0,-2.17 -1.981,-3.94 -4.42,-3.94 h -51.227 c -2.44,0 -4.42,1.77 -4.42,3.94 v 45.65 c 0,2.18 1.98,3.94 4.42,3.94 h 51.227 c 2.439,0 4.42,-1.76 4.42,-3.94 z" />
  </g>
  <path
     id="path4228"
     style="clip-rule:evenodd;fill:#65291a;fill-rule:evenodd;stroke-width:0.264583;stroke-linecap:round;stroke-linejoin:round;stroke-miterlimit:1.5"
     d="m 123.80538,6.1267554 c 0.71807,4.3179946 1.49462,12.9010676 0.11773,13.6445456 0.64479,0 1.16814,-0.521229 1.16814,-1.166811 V 5.0657776 c 0,-0.6455825 -0.52335,-1.1694569 -1.16814,-1.1694569 H 110.3844 c -0.30771,0 -0.5879,0.1190624 -0.79666,0.3148538 -0.20373,0.1904998 8.47592,0.5662076 13.0495,0.7461241 0.64453,0 1.16814,0.5238743 1.16814,1.1694568 z" />
  <g
     id="g4232"
     transform="matrix(-0.25268655,0,0,-0.25262755,260.24141,291.54818)"
     style="clip-rule:evenodd;fill-rule:evenodd;stroke-linecap:round;stroke-linejoin:round;stroke-miterlimit:1.5">
    <path
       id="path4230"
       style="fill:#b05741"
       d="m 540.623,1077.22 c -2.092,0 -0.946,3.34 3.908,3.25 11.81,-0.22 32.502,-0.59 35.4,-0.57 14.709,0.12 15.793,6.93 13.428,15.93 -4.423,16.82 -0.554,49.93 2.849,36.97 v -51.17 c 0,-2.44 -1.979,-4.41 -4.415,-4.41 z" />
  </g>
  <rect
     transform="scale(-1)"
     id="rect4236"
     style="clip-rule:evenodd;fill:#a1ab7d;fill-rule:evenodd;stroke:#51736f;stroke-width:0.526235px;stroke-linecap:round;stroke-linejoin:round;stroke-miterlimit:1.5"
     height="21.166546"
     width="21.166708"
     y="-64.310516"
     x="-85.212631" />
  <rect
     transform="scale(-1)"
     id="rect4240"
     style="clip-rule:evenodd;fill:#a1ab7d;fill-rule:evenodd;stroke:#51736f;stroke-width:0.526235px;stroke-linecap:round;stroke-linejoin:round;stroke-miterlimit:1.5"
     height="21.166546"
     width="21.166708"
     y="-64.310516"
     x="-106.40573" />
  <rect
     transform="scale(-1)"
     id="rect4244"
     style="clip-rule:evenodd;fill:#a1ab7d;fill-rule:evenodd;stroke:#51736f;stroke-width:0.526235px;stroke-linecap:round;stroke-linejoin:round;stroke-miterlimit:1.5"
     height="21.166546"
     width="21.166708"
     y="-43.143879"
     x="-85.228516" />
  <rect
     transform="scale(-1)"
     id="rect4248"
     style="clip-rule:evenodd;fill:#a1ab7d;fill-rule:evenodd;stroke:#51736f;stroke-width:0.526235px;stroke-linecap:round;stroke-linejoin:round;stroke-miterlimit:1.5"
     height="21.166546"
     width="21.166708"
     y="-43.143879"
     x="-106.4216" />
  <rect
     transform="scale(-1)"
     id="rect4252"
     style="clip-rule:evenodd;fill:#a1ab7d;fill-rule:evenodd;stroke:#51736f;stroke-width:0.526337px;stroke-linecap:round;stroke-linejoin:round;stroke-miterlimit:1.5"
     height="21.166546"
     width="21.174902"
     y="-21.977238"
     x="-85.237808" />
  <rect
     transform="scale(-1)"
     id="rect4256"
     style="clip-rule:evenodd;fill:#a1ab7d;fill-rule:evenodd;stroke:#51736f;stroke-width:0.526337px;stroke-linecap:round;stroke-linejoin:round;stroke-miterlimit:1.5"
     height="21.166546"
     width="21.174902"
     y="-21.977238"
     x="-106.42827" />
  <rect
     transform="scale(-1)"
     id="rect4260"
     style="clip-rule:evenodd;fill:#a1ab7d;fill-rule:evenodd;stroke:#51736f;stroke-width:0.526235px;stroke-linecap:round;stroke-linejoin:round;stroke-miterlimit:1.5"
     height="21.166546"
     width="21.166708"
     y="-64.310516"
     x="-64.04599" />
  <rect
     transform="scale(-1)"
     id="rect4264"
     style="clip-rule:evenodd;fill:#a1ab7d;fill-rule:evenodd;stroke:#51736f;stroke-width:0.526235px;stroke-linecap:round;stroke-linejoin:round;stroke-miterlimit:1.5"
     height="21.166546"
     width="21.166708"
     y="-43.143879"
     x="-64.061874" />
  <rect
     transform="scale(-1)"
     id="rect4268"
     style="clip-rule:evenodd;fill:#a1ab7d;fill-rule:evenodd;stroke:#51736f;stroke-width:0.526337px;stroke-linecap:round;stroke-linejoin:round;stroke-miterlimit:1.5"
     height="21.166546"
     width="21.174902"
     y="-21.977238"
     x="-64.06324" />
  <rect
     transform="scale(-1)"
     id="rect4272"
     style="clip-rule:evenodd;fill:#a1ab7d;fill-rule:evenodd;stroke:#51736f;stroke-width:0.526337px;stroke-linecap:round;stroke-linejoin:round;stroke-miterlimit:1.5"
     height="21.166546"
     width="21.174902"
     y="-21.977238"
     x="-64.06324" />
  <path
     id="path4276"
     style="clip-rule:evenodd;fill:#a1ab7d;fill-rule:evenodd;stroke:#51736f;stroke-width:0.526235px;stroke-linecap:round;stroke-linejoin:round;stroke-miterlimit:1.5"
     d="m 21.712903,60.671836 c -0.0588,2.799326 1.335798,3.805174 3.785328,3.63868 H 42.879349 V 43.14397 H 21.712903 Z" />
  <rect
     transform="scale(-1)"
     id="rect4280"
     style="clip-rule:evenodd;fill:#a1ab7d;fill-rule:evenodd;stroke:#51736f;stroke-width:0.526235px;stroke-linecap:round;stroke-linejoin:round;stroke-miterlimit:1.5"
     height="21.166546"
     width="21.166708"
     y="-43.143879"
     x="-42.895233" />
  <rect
     transform="scale(-1)"
     id="rect4284"
     style="clip-rule:evenodd;fill:#a1ab7d;fill-rule:evenodd;stroke:#51736f;stroke-width:0.526235px;stroke-linecap:round;stroke-linejoin:round;stroke-miterlimit:1.5"
     height="21.166546"
     width="21.166708"
     y="-43.143879"
     x="-42.895233" />
  <path
     id="path4288"
     style="clip-rule:evenodd;fill:#a1ab7d;fill-rule:evenodd;stroke:#51736f;stroke-width:0.526337px;stroke-linecap:round;stroke-linejoin:round;stroke-miterlimit:1.5"
     d="M 21.714019,21.977239 H 42.888658 V 0.81069328 H 25.24295 C 22.51544,0.67350188 21.39865,2.0685031 21.714019,4.7934616 Z" />
  <path
     id="path4292"
     style="clip-rule:evenodd;fill:#a1ab7d;fill-rule:evenodd;stroke:#51736f;stroke-width:0.526337px;stroke-linecap:round;stroke-linejoin:round;stroke-miterlimit:1.5"
     d="M 21.714019,21.977239 H 42.888658 V 0.81069328 H 25.24295 C 22.51544,0.67350188 21.39865,2.0685031 21.714019,4.7934616 Z" />
  <path
     id="path4296"
     style="clip-rule:evenodd;fill:#803a29;fill-rule:evenodd;stroke-width:0.279965;stroke-linecap:round;stroke-linejoin:round;stroke-miterlimit:1.5"
     d="m 66.691375,18.165631 c 0,0.643565 0.523552,1.168501 1.168148,1.168501 H 81.39815 c 0.64486,0 1.168148,-0.524936 1.168148,-1.168501 V 4.6270404 c 0,-0.6465308 -0.523288,-1.1685005 -1.168148,-1.1685005 H 67.859523 c -0.644596,0 -1.168148,0.5219697 -1.168148,1.1685005 z" />
  <path
     id="path4300"
     style="clip-rule:evenodd;fill:#65291a;fill-rule:evenodd;stroke-width:0.264583;stroke-linecap:round;stroke-linejoin:round;stroke-miterlimit:1.5"
     d="m 81.281595,5.6875554 c 0.718079,4.3179946 1.49463,12.9010676 0.11774,13.6445456 0.644789,0 1.168134,-0.521229 1.168134,-1.166811 V 4.6265776 c 0,-0.6455825 -0.523345,-1.1694569 -1.168134,-1.1694569 H 67.860623 c -0.30771,0 -0.587904,0.1190624 -0.79666,0.3148538 -0.203729,0.1904998 8.475917,0.5662076 13.049498,0.7461241 0.644525,0 1.168134,0.5238743 1.168134,1.1694568 z" />
  <path
     id="path4304"
     style="clip-rule:evenodd;fill:#b05741;fill-rule:evenodd;stroke-width:0.252657;stroke-linecap:round;stroke-linejoin:round;stroke-miterlimit:1.5"
     d="m 81.110419,18.973661 c 0.528621,0 0.239042,-0.843776 -0.987499,-0.82104 -2.984228,0.05558 -8.212818,0.14905 -8.945104,0.143998 C 67.46105,18.266303 67.187138,16.54591 67.784741,14.272262 68.902374,10.023066 67.92473,1.6585683 67.064837,4.9326214 V 17.859573 c 0,0.616411 0.500067,1.114088 1.115612,1.114088 z" />
  <path
     id="path4308"
     style="clip-rule:evenodd;fill:#803a29;fill-rule:evenodd;stroke-width:0.279965;stroke-linecap:round;stroke-linejoin:round;stroke-miterlimit:1.5"
     d="m 87.884475,18.165631 c 0,0.643565 0.523552,1.168501 1.168148,1.168501 h 13.538627 c 0.64486,0 1.16815,-0.524936 1.16815,-1.168501 V 4.6270404 c 0,-0.6465308 -0.52329,-1.1685005 -1.16815,-1.1685005 H 89.052623 c -0.644596,0 -1.168148,0.5219697 -1.168148,1.1685005 z" />
  <path
     id="path4312"
     style="clip-rule:evenodd;fill:#65291a;fill-rule:evenodd;stroke-width:0.264583;stroke-linecap:round;stroke-linejoin:round;stroke-miterlimit:1.5"
     d="m 102.47205,5.6875554 c 0.71807,4.3179946 1.49462,12.9010676 0.11773,13.6445456 0.64479,0 1.16814,-0.521229 1.16814,-1.166811 V 4.6265776 c 0,-0.6455825 -0.52335,-1.1694569 -1.16814,-1.1694569 H 89.051073 c -0.30771,0 -0.587904,0.1190624 -0.79666,0.3148538 -0.203729,0.1904998 8.475917,0.5662076 13.049497,0.7461241 0.64453,0 1.16814,0.5238743 1.16814,1.1694568 z" />
  <path
     id="path4316"
     style="clip-rule:evenodd;fill:#b05741;fill-rule:evenodd;stroke-width:0.252657;stroke-linecap:round;stroke-linejoin:round;stroke-miterlimit:1.5"
     d="m 102.30087,18.973661 c 0.52862,0 0.23904,-0.843776 -0.9875,-0.82104 -2.984228,0.05558 -8.212818,0.14905 -8.945104,0.143998 C 88.6515,18.266303 88.377588,16.54591 88.975191,14.272262 90.092824,10.023066 89.11518,1.6585683 88.255287,4.9326214 V 17.859573 c 0,0.616411 0.500067,1.114088 1.115612,1.114088 z" />
  <path
     id="path4320"
     style="clip-rule:evenodd;fill:#803a29;fill-rule:evenodd;stroke-width:0.279965;stroke-linecap:round;stroke-linejoin:round;stroke-miterlimit:1.5"
     d="m 66.691375,39.332271 c 0,0.643565 0.523552,1.168501 1.168148,1.168501 H 81.39815 c 0.64486,0 1.168148,-0.524936 1.168148,-1.168501 V 25.79368 c 0,-0.64653 -0.523288,-1.1685 -1.168148,-1.1685 H 67.859523 c -0.644596,0 -1.168148,0.52197 -1.168148,1.1685 z" />
  <path
     id="path4324"
     style="clip-rule:evenodd;fill:#65291a;fill-rule:evenodd;stroke-width:0.264583;stroke-linecap:round;stroke-linejoin:round;stroke-miterlimit:1.5"
     d="m 81.281595,26.854195 c 0.718079,4.317995 1.49463,12.901068 0.11774,13.644546 0.644789,0 1.168134,-0.521229 1.168134,-1.166811 V 25.793218 c 0,-0.645583 -0.523345,-1.169457 -1.168134,-1.169457 H 67.860623 c -0.30771,0 -0.587904,0.119062 -0.79666,0.314854 -0.203729,0.190499 8.475917,0.566207 13.049498,0.746124 0.644525,0 1.168134,0.523874 1.168134,1.169456 z" />
  <path
     id="path4328"
     style="clip-rule:evenodd;fill:#b05741;fill-rule:evenodd;stroke-width:0.252657;stroke-linecap:round;stroke-linejoin:round;stroke-miterlimit:1.5"
     d="m 81.110419,40.140301 c 0.528621,0 0.239042,-0.843776 -0.987499,-0.82104 -2.984228,0.05558 -8.212818,0.14905 -8.945104,0.143998 -3.716766,-0.03032 -3.990678,-1.750709 -3.393075,-4.024357 1.117633,-4.249196 0.139989,-12.613694 -0.719904,-9.339641 v 12.926952 c 0,0.616411 0.500067,1.114088 1.115612,1.114088 z" />
  <path
     id="path4332"
     style="clip-rule:evenodd;fill:#803a29;fill-rule:evenodd;stroke-width:0.279965;stroke-linecap:round;stroke-linejoin:round;stroke-miterlimit:1.5"
     d="m 87.884475,39.332271 c 0,0.643565 0.523552,1.168501 1.168148,1.168501 h 13.538627 c 0.64486,0 1.16815,-0.524936 1.16815,-1.168501 V 25.79368 c 0,-0.64653 -0.52329,-1.1685 -1.16815,-1.1685 H 89.052623 c -0.644596,0 -1.168148,0.52197 -1.168148,1.1685 z" />
  <path
     id="path4336"
     style="clip-rule:evenodd;fill:#65291a;fill-rule:evenodd;stroke-width:0.264583;stroke-linecap:round;stroke-linejoin:round;stroke-miterlimit:1.5"
     d="m 102.47205,26.854195 c 0.71807,4.317995 1.49462,12.901068 0.11773,13.644546 0.64479,0 1.16814,-0.521229 1.16814,-1.166811 V 25.793218 c 0,-0.645583 -0.52335,-1.169457 -1.16814,-1.169457 H 89.051073 c -0.30771,0 -0.587904,0.119062 -0.79666,0.314854 -0.203729,0.190499 8.475917,0.566207 13.049497,0.746124 0.64453,0 1.16814,0.523874 1.16814,1.169456 z" />
  <path
     id="path4340"
     style="clip-rule:evenodd;fill:#b05741;fill-rule:evenodd;stroke-width:0.252657;stroke-linecap:round;stroke-linejoin:round;stroke-miterlimit:1.5"
     d="m 102.30087,40.140301 c 0.52862,0 0.23904,-0.843776 -0.9875,-0.82104 -2.984228,0.05558 -8.212818,0.14905 -8.945104,0.143998 -3.716766,-0.03032 -3.990678,-1.750709 -3.393075,-4.024357 1.117633,-4.249196 0.139989,-12.613694 -0.719904,-9.339641 v 12.926952 c 0,0.616411 0.500067,1.114088 1.115612,1.114088 z" />
  <path
     id="path4344"
     style="clip-rule:evenodd;fill:#803a29;fill-rule:evenodd;stroke-width:0.279965;stroke-linecap:round;stroke-linejoin:round;stroke-miterlimit:1.5"
     d="m 45.852825,39.332271 c 0,0.643565 0.523552,1.168501 1.168148,1.168501 H 60.5596 c 0.64486,0 1.168148,-0.524936 1.168148,-1.168501 V 25.79368 c 0,-0.64653 -0.523288,-1.1685 -1.168148,-1.1685 H 47.020973 c -0.644596,0 -1.168148,0.52197 -1.168148,1.1685 z" />
  <path
     id="path4348"
     style="clip-rule:evenodd;fill:#65291a;fill-rule:evenodd;stroke-width:0.264583;stroke-linecap:round;stroke-linejoin:round;stroke-miterlimit:1.5"
     d="m 60.443035,26.854195 c 0.718079,4.317995 1.49463,12.901068 0.11774,13.644546 0.644789,0 1.168134,-0.521229 1.168134,-1.166811 V 25.793218 c 0,-0.645583 -0.523345,-1.169457 -1.168134,-1.169457 H 47.022063 c -0.30771,0 -0.587904,0.119062 -0.79666,0.314854 -0.203729,0.190499 8.475917,0.566207 13.049498,0.746124 0.644525,0 1.168134,0.523874 1.168134,1.169456 z" />
  <path
     id="path4352"
     style="clip-rule:evenodd;fill:#b05741;fill-rule:evenodd;stroke-width:0.252657;stroke-linecap:round;stroke-linejoin:round;stroke-miterlimit:1.5"
     d="m 60.269219,40.140301 c 0.528621,0 0.239042,-0.843776 -0.987499,-0.82104 -2.984228,0.05558 -8.212818,0.14905 -8.945104,0.143998 -3.716766,-0.03032 -3.990678,-1.750709 -3.393075,-4.024357 1.117633,-4.249196 0.139989,-12.613694 -0.719904,-9.339641 v 12.926952 c 0,0.616411 0.500067,1.114088 1.115612,1.114088 z" />
  <path
     id="path4356"
     style="clip-rule:evenodd;fill:#803a29;fill-rule:evenodd;stroke-width:0.279965;stroke-linecap:round;stroke-linejoin:round;stroke-miterlimit:1.5"
     d="m 25.014265,39.332271 c 0,0.643565 0.523552,1.168501 1.168148,1.168501 H 39.72104 c 0.64486,0 1.168148,-0.524936 1.168148,-1.168501 V 25.79368 c 0,-0.64653 -0.523288,-1.1685 -1.168148,-1.1685 H 26.182413 c -0.644596,0 -1.168148,0.52197 -1.168148,1.1685 z" />
  <path
     id="path4360"
     style="clip-rule:evenodd;fill:#65291a;fill-rule:evenodd;stroke-width:0.264583;stroke-linecap:round;stroke-linejoin:round;stroke-miterlimit:1.5"
     d="m 39.601835,26.854195 c 0.718079,4.317995 1.49463,12.901068 0.11774,13.644546 0.644789,0 1.168134,-0.521229 1.168134,-1.166811 V 25.793218 c 0,-0.645583 -0.523345,-1.169457 -1.168134,-1.169457 H 26.180863 c -0.30771,0 -0.587904,0.119062 -0.79666,0.314854 -0.203729,0.190499 8.475917,0.566207 13.049498,0.746124 0.644525,0 1.168134,0.523874 1.168134,1.169456 z" />
  <path
     id="path4364"
     style="clip-rule:evenodd;fill:#b05741;fill-rule:evenodd;stroke-width:0.252657;stroke-linecap:round;stroke-linejoin:round;stroke-miterlimit:1.5"
     d="m 39.430659,40.140301 c 0.528621,0 0.239042,-0.843776 -0.987499,-0.82104 -2.984228,0.05558 -8.212818,0.14905 -8.945104,0.143998 -3.716766,-0.03032 -3.990678,-1.750709 -3.393075,-4.024357 1.117633,-4.249196 0.139989,-12.613694 -0.719904,-9.339641 v 12.926952 c 0,0.616411 0.500067,1.114088 1.115612,1.114088 z" />
  <path
     id="path4368"
     style="clip-rule:evenodd;fill:#803a29;fill-rule:evenodd;stroke-width:0.279965;stroke-linecap:round;stroke-linejoin:round;stroke-miterlimit:1.5"
     d="m 66.691375,60.498911 c 0,0.643565 0.523552,1.168501 1.168148,1.168501 H 81.39815 c 0.64486,0 1.168148,-0.524936 1.168148,-1.168501 V 46.96032 c 0,-0.64653 -0.523288,-1.1685 -1.168148,-1.1685 H 67.859523 c -0.644596,0 -1.168148,0.52197 -1.168148,1.1685 z" />
  <path
     id="path4372"
     style="clip-rule:evenodd;fill:#65291a;fill-rule:evenodd;stroke-width:0.264583;stroke-linecap:round;stroke-linejoin:round;stroke-miterlimit:1.5"
     d="m 81.281595,48.020835 c 0.718079,4.317995 1.49463,12.901068 0.11774,13.644546 0.644789,0 1.168134,-0.521229 1.168134,-1.166811 V 46.959858 c 0,-0.645583 -0.523345,-1.169457 -1.168134,-1.169457 H 67.860623 c -0.30771,0 -0.587904,0.119062 -0.79666,0.314854 -0.203729,0.190499 8.475917,0.566207 13.049498,0.746124 0.644525,0 1.168134,0.523874 1.168134,1.169456 z" />
  <path
     id="path4376"
     style="clip-rule:evenodd;fill:#b05741;fill-rule:evenodd;stroke-width:0.252657;stroke-linecap:round;stroke-linejoin:round;stroke-miterlimit:1.5"
     d="m 81.110419,61.306941 c 0.528621,0 0.239042,-0.843776 -0.987499,-0.82104 -2.984228,0.05558 -8.212818,0.14905 -8.945104,0.143998 -3.716766,-0.03032 -3.990678,-1.750709 -3.393075,-4.024357 1.117633,-4.249196 0.139989,-12.613694 -0.719904,-9.339641 v 12.926952 c 0,0.616411 0.500067,1.114088 1.115612,1.114088 z" />
  <path
     id="path4380"
     style="clip-rule:evenodd;fill:#803a29;fill-rule:evenodd;stroke-width:0.279965;stroke-linecap:round;stroke-linejoin:round;stroke-miterlimit:1.5"
     d="m 87.884475,60.498911 c 0,0.643565 0.523552,1.168501 1.168148,1.168501 h 13.538627 c 0.64486,0 1.16815,-0.524936 1.16815,-1.168501 V 46.96032 c 0,-0.64653 -0.52329,-1.1685 -1.16815,-1.1685 H 89.052623 c -0.644596,0 -1.168148,0.52197 -1.168148,1.1685 z" />
  <path
     id="path4384"
     style="clip-rule:evenodd;fill:#65291a;fill-rule:evenodd;stroke-width:0.264583;stroke-linecap:round;stroke-linejoin:round;stroke-miterlimit:1.5"
     d="m 102.47205,48.020835 c 0.71807,4.317995 1.49462,12.901068 0.11773,13.644546 0.64479,0 1.16814,-0.521229 1.16814,-1.166811 V 46.959858 c 0,-0.645583 -0.52335,-1.169457 -1.16814,-1.169457 H 89.051073 c -0.30771,0 -0.587904,0.119062 -0.79666,0.314854 -0.203729,0.190499 8.475917,0.566207 13.049497,0.746124 0.64453,0 1.16814,0.523874 1.16814,1.169456 z" />
  <path
     id="path4388"
     style="clip-rule:evenodd;fill:#b05741;fill-rule:evenodd;stroke-width:0.252657;stroke-linecap:round;stroke-linejoin:round;stroke-miterlimit:1.5"
     d="m 102.30087,61.306941 c 0.52862,0 0.23904,-0.843776 -0.9875,-0.82104 -2.984228,0.05558 -8.212818,0.14905 -8.945104,0.143998 -3.716766,-0.03032 -3.990678,-1.750709 -3.393075,-4.024357 1.117633,-4.249196 0.139989,-12.613694 -0.719904,-9.339641 v 12.926952 c 0,0.616411 0.500067,1.114088 1.115612,1.114088 z" />
  <path
     id="path4392"
     style="clip-rule:evenodd;fill:#803a29;fill-rule:evenodd;stroke-width:0.279965;stroke-linecap:round;stroke-linejoin:round;stroke-miterlimit:1.5"
     d="m 45.852825,60.498911 c 0,0.643565 0.523552,1.168501 1.168148,1.168501 H 60.5596 c 0.64486,0 1.168148,-0.524936 1.168148,-1.168501 V 46.96032 c 0,-0.64653 -0.523288,-1.1685 -1.168148,-1.1685 H 47.020973 c -0.644596,0 -1.168148,0.52197 -1.168148,1.1685 z" />
  <path
     id="path4396"
     style="clip-rule:evenodd;fill:#65291a;fill-rule:evenodd;stroke-width:0.264583;stroke-linecap:round;stroke-linejoin:round;stroke-miterlimit:1.5"
     d="m 60.443035,48.020835 c 0.718079,4.317995 1.49463,12.901068 0.11774,13.644546 0.644789,0 1.168134,-0.521229 1.168134,-1.166811 V 46.959858 c 0,-0.645583 -0.523345,-1.169457 -1.168134,-1.169457 H 47.022063 c -0.30771,0 -0.587904,0.119062 -0.79666,0.314854 -0.203729,0.190499 8.475917,0.566207 13.049498,0.746124 0.644525,0 1.168134,0.523874 1.168134,1.169456 z" />
  <path
     id="path4400"
     style="clip-rule:evenodd;fill:#b05741;fill-rule:evenodd;stroke-width:0.252657;stroke-linecap:round;stroke-linejoin:round;stroke-miterlimit:1.5"
     d="m 60.269219,61.306941 c 0.528621,0 0.239042,-0.843776 -0.987499,-0.82104 -2.984228,0.05558 -8.212818,0.14905 -8.945104,0.143998 -3.716766,-0.03032 -3.990678,-1.750709 -3.393075,-4.024357 1.117633,-4.249196 0.139989,-12.613694 -0.719904,-9.339641 v 12.926952 c 0,0.616411 0.500067,1.114088 1.115612,1.114088 z" />
  <path
     id="path4404"
     style="clip-rule:evenodd;fill:#803a29;fill-rule:evenodd;stroke-width:0.279965;stroke-linecap:round;stroke-linejoin:round;stroke-miterlimit:1.5"
     d="m 24.373975,60.533311 c 0,0.643565 0.523552,1.168501 1.168148,1.168501 H 39.08075 c 0.64486,0 1.168148,-0.524936 1.168148,-1.168501 V 46.99472 c 0,-0.64653 -0.523288,-1.1685 -1.168148,-1.1685 H 25.542123 c -0.644596,0 -1.168148,0.52197 -1.168148,1.1685 z" />
  <path
     id="path4408"
     style="clip-rule:evenodd;fill:#65291a;fill-rule:evenodd;stroke-width:0.264583;stroke-linecap:round;stroke-linejoin:round;stroke-miterlimit:1.5"
     d="m 38.964185,48.052585 c 0.718079,4.317995 1.49463,12.901068 0.11774,13.644546 0.644789,0 1.168134,-0.521229 1.168134,-1.166811 V 46.991608 c 0,-0.645583 -0.523345,-1.169457 -1.168134,-1.169457 H 25.543213 c -0.30771,0 -0.587904,0.119062 -0.79666,0.314854 -0.203729,0.190499 8.475917,0.566207 13.049498,0.746124 0.644525,0 1.168134,0.523874 1.168134,1.169456 z" />
  <path
     id="path4412"
     style="clip-rule:evenodd;fill:#b05741;fill-rule:evenodd;stroke-width:0.252657;stroke-linecap:round;stroke-linejoin:round;stroke-miterlimit:1.5"
     d="m 38.790369,61.338691 c 0.528621,0 0.239042,-0.843776 -0.987499,-0.82104 -2.984228,0.05558 -8.212818,0.14905 -8.945104,0.143998 C 25.141,60.631333 24.867088,58.91094 25.464691,56.637292 26.582324,52.388096 25.60468,44.023598 24.744787,47.297651 v 12.926952 c 0,0.616411 0.500067,1.114088 1.115612,1.114088 z" />
  <path
     id="path4416"
     style="clip-rule:evenodd;fill:#803a29;fill-rule:evenodd;stroke-width:0.279965;stroke-linecap:round;stroke-linejoin:round;stroke-miterlimit:1.5"
     d="m 45.852825,18.626011 c 0,0.643565 0.523552,1.168501 1.168148,1.168501 H 60.5596 c 0.64486,0 1.168148,-0.524936 1.168148,-1.168501 V 5.0874204 c 0,-0.6465308 -0.523288,-1.1685005 -1.168148,-1.1685005 H 47.020973 c -0.644596,0 -1.168148,0.5219697 -1.168148,1.1685005 z" />
  <path
     id="path4420"
     style="clip-rule:evenodd;fill:#65291a;fill-rule:evenodd;stroke-width:0.264583;stroke-linecap:round;stroke-linejoin:round;stroke-miterlimit:1.5"
     d="m 60.443035,6.1452754 c 0.718079,4.3179946 1.49463,12.9010676 0.11774,13.6445456 0.644789,0 1.168134,-0.521229 1.168134,-1.166811 V 5.0842976 c 0,-0.6455825 -0.523345,-1.1694569 -1.168134,-1.1694569 H 47.022063 c -0.30771,0 -0.587904,0.1190624 -0.79666,0.3148538 -0.203729,0.1904998 8.475917,0.5662076 13.049498,0.7461241 0.644525,0 1.168134,0.5238743 1.168134,1.1694568 z" />
  <path
     id="path4424"
     style="clip-rule:evenodd;fill:#b05741;fill-rule:evenodd;stroke-width:0.252657;stroke-linecap:round;stroke-linejoin:round;stroke-miterlimit:1.5"
     d="m 60.269219,19.431391 c 0.528621,0 0.239042,-0.843776 -0.987499,-0.82104 -2.984228,0.05558 -8.212818,0.14905 -8.945104,0.143998 C 46.61985,18.724033 46.345938,17.00364 46.943541,14.729992 48.061174,10.480796 47.08353,2.1162983 46.223637,5.3903514 V 18.317303 c 0,0.616411 0.500067,1.114088 1.115612,1.114088 z" />
  <path
     id="path4428"
     style="clip-rule:evenodd;fill:#803a29;fill-rule:evenodd;stroke-width:0.279965;stroke-linecap:round;stroke-linejoin:round;stroke-miterlimit:1.5"
     d="m 24.487745,18.221201 c 0,0.643565 0.523552,1.168501 1.168148,1.168501 H 39.19452 c 0.64486,0 1.168148,-0.524936 1.168148,-1.168501 V 4.6826104 c 0,-0.6465308 -0.523288,-1.1685005 -1.168148,-1.1685005 H 25.655893 c -0.644596,0 -1.168148,0.5219697 -1.168148,1.1685005 z" />
  <path
     id="path4432"
     style="clip-rule:evenodd;fill:#65291a;fill-rule:evenodd;stroke-width:0.264583;stroke-linecap:round;stroke-linejoin:round;stroke-miterlimit:1.5"
     d="m 39.075315,5.7404654 c 0.718079,4.3179946 1.49463,12.9010676 0.11774,13.6445456 0.644789,0 1.168134,-0.521229 1.168134,-1.166811 V 4.6794876 c 0,-0.6455825 -0.523345,-1.1694569 -1.168134,-1.1694569 H 25.654343 c -0.30771,0 -0.587904,0.1190624 -0.79666,0.3148538 -0.203729,0.1904998 8.475917,0.5662076 13.049498,0.7461241 0.644525,0 1.168134,0.5238743 1.168134,1.1694568 z" />
  <path
     id="path4436"
     style="clip-rule:evenodd;fill:#b05741;fill-rule:evenodd;stroke-width:0.252657;stroke-linecap:round;stroke-linejoin:round;stroke-miterlimit:1.5"
     d="m 38.904139,19.026571 c 0.528621,0 0.239042,-0.843776 -0.987499,-0.82104 -2.984228,0.05558 -8.212818,0.14905 -8.945104,0.143998 C 25.25477,18.319213 24.980858,16.59882 25.578461,14.325172 26.696094,10.075976 25.71845,1.7114783 24.858557,4.9855314 V 17.912483 c 0,0.616411 0.500067,1.114088 1.115612,1.114088 z" />
</svg>
