<?xml version="1.0" encoding="UTF-8" standalone="no"?>
<!-- Generator: Adobe Illustrator 25.0.0, SVG Export Plug-In . SVG Version: 6.00 Build 0)  -->

<svg
   version="1.1"
   id="Layer_1"
   x="0px"
   y="0px"
   viewBox="0 0 59.349998 60.114629"
   xml:space="preserve"
   sodipodi:docname="2022-VN-05-taskbody1.svg"
   inkscape:version="1.1.1 (3bf5ae0d25, 2021-09-20)"
   width="59.349998"
   height="60.114628"
   xmlns:inkscape="http://www.inkscape.org/namespaces/inkscape"
   xmlns:sodipodi="http://sodipodi.sourceforge.net/DTD/sodipodi-0.dtd"
   xmlns="http://www.w3.org/2000/svg"
   xmlns:svg="http://www.w3.org/2000/svg"><defs
   id="defs25" /><sodipodi:namedview
   id="namedview23"
   pagecolor="#ffffff"
   bordercolor="#666666"
   borderopacity="1.0"
   inkscape:pageshadow="2"
   inkscape:pageopacity="0.0"
   inkscape:pagecheckerboard="0"
   showgrid="false"
   inkscape:zoom="6.1296801"
   inkscape:cx="29.283747"
   inkscape:cy="2.0392581"
   inkscape:window-width="1680"
   inkscape:window-height="1027"
   inkscape:window-x="1912"
   inkscape:window-y="-8"
   inkscape:window-maximized="1"
   inkscape:current-layer="g20" />
<style
   type="text/css"
   id="style2">
	.st0{fill:#FFFFFF;}
	.st1{fill:none;stroke:#000000;stroke-miterlimit:10;}
	.st2{font-family:'UTMAvo';}
	.st3{font-size:20px;}
</style>
<g
   id="g20"
   transform="translate(-13.275125,-15.263335)">
	<g
   id="g16"
   transform="translate(1.3051252,13.540674)">
		<polygon
   class="st0"
   points="41.65,35.99 56.23,27.57 56.23,10.72 41.65,2.3 27.06,10.72 27.06,27.57 "
   id="polygon4" />
		<polygon
   class="st1"
   points="41.65,35.99 56.23,27.57 56.23,10.72 41.65,2.3 27.06,10.72 27.06,27.57 "
   id="polygon6" />
		<polygon
   class="st0"
   points="27.06,61.26 41.65,52.84 41.65,35.99 27.06,27.57 12.47,35.99 12.47,52.84 "
   id="polygon8" />
		<polygon
   class="st1"
   points="27.06,61.26 41.65,52.84 41.65,35.99 27.06,27.57 12.47,35.99 12.47,52.84 "
   id="polygon10" />
		<polygon
   class="st0"
   points="56.23,61.26 70.82,52.84 70.82,35.99 56.23,27.57 41.64,35.99 41.64,52.84 "
   id="polygon12" />
		<polygon
   class="st1"
   points="56.23,61.26 70.82,52.84 70.82,35.99 56.23,27.57 41.64,35.99 41.64,52.84 "
   id="polygon14" />
	</g>
	<text
   transform="translate(0.5773,82.8101)"
   class="st2 st3"
   id="text18" />
</g>
</svg>
